,start,end,pitch,velocity
0,18.915020597916666,19.248353164583335,62.0,78.0
1,18.915020597916666,19.280404372916667,55.0,73.0
2,19.299635097916667,19.785210904166668,50.0,30.0
3,19.68424959791667,19.903800375,59.0,89.0
4,19.68424959791667,19.955082308333335,62.0,84.0
5,19.68424959791667,19.959889989583335,55.0,87.0
6,20.068864097916666,20.23713294166667,50.0,21.0
7,20.26117134791667,20.405401785416668,55.0,84.0
8,20.26117134791667,20.419824829166668,62.0,80.0
9,20.453478597916668,20.60091415625,50.0,33.0
10,20.645785847916667,20.80283676875,55.0,67.0
11,20.838093097916666,21.336489387500002,50.0,58.0
12,21.222707597916667,21.355720112500002,59.0,94.0
13,21.222707597916667,21.360527793750002,55.0,87.0
14,18.915020597916666,21.374950837500002,43.0,89.0
15,21.222707597916667,21.400591804166666,62.0,92.0
16,21.991936597916666,22.387769020833336,62.0,71.0
17,21.991936597916666,22.415012547916668,57.0,58.0
18,22.761165597916666,22.88135762916667,57.0,97.0
19,22.761165597916666,22.9134088375,66.0,79.0
20,21.991936597916666,23.386164160416666,50.0,73.0
21,23.338087347916666,23.568856047916668,62.0,84.0
22,23.338087347916666,23.578471410416668,57.0,69.0
23,23.53039459791667,23.67783015625,50.0,51.0
24,23.722701847916667,23.987124316666666,57.0,87.0
25,24.10731634791667,24.248341664583336,57.0,100.0
26,24.299623597916668,24.543212781250002,62.0,108.0
27,24.299623597916668,24.546417902083334,57.0,108.0
28,23.915009097916666,24.618533120833334,50.0,82.0
29,25.068852597916667,25.512761833333332,59.0,80.0
30,25.068852597916667,25.530389997916668,64.0,82.0
31,25.838081597916666,25.99673507916667,59.0,89.0
32,25.838081597916666,25.9999402,67.0,94.0
33,25.068852597916667,26.458272479166666,52.0,87.0
34,26.415003347916667,26.652182289583333,59.0,67.0
35,26.415003347916667,26.714682145833333,64.0,73.0
36,26.799617847916668,27.040001910416667,59.0,67.0
37,26.991925097916667,27.142565777083334,64.0,42.0
38,26.60731059791667,27.28359109375,52.0,60.0
39,27.37653959791667,27.592885254166667,59.0,84.0
40,27.37653959791667,27.644167187500003,64.0,78.0
41,27.37653959791667,27.665000472916667,67.0,84.0
42,27.37653959791667,27.676218395833335,52.0,82.0
43,27.761154097916666,27.8941666125,59.0,67.0
44,28.145768597916668,28.56884454791667,64.0,87.0
45,28.145768597916668,28.589677833333333,60.0,78.0
46,28.53038309791667,29.014356343750002,55.0,48.0
47,28.914997597916667,29.052817793750002,67.0,89.0
48,28.145768597916668,29.065638277083334,48.0,97.0
49,28.914997597916667,29.073651079166666,60.0,97.0
50,29.491919347916667,29.632944664583334,64.0,84.0
51,29.491919347916667,29.673008675000002,60.0,78.0
52,30.068841097916668,30.267558589583334,60.0,100.0
53,29.87653384791667,30.320443083333334,55.0,73.0
54,29.684226597916666,30.358904533333334,48.0,60.0
55,30.45345559791667,30.666596133333336,60.0,82.0
56,30.45345559791667,30.711467825,64.0,94.0
57,30.838070097916667,31.185825708333333,60.0,89.0
58,30.45345559791667,31.18742826875,48.0,80.0
59,30.45345559791667,31.18742826875,55.0,84.0
60,31.22268459791667,31.594478614583334,59.0,89.0
61,31.22268459791667,31.673004075,55.0,73.0
62,31.991913597916668,32.19704133125,62.0,80.0
63,31.991913597916668,32.19864389166667,55.0,78.0
64,32.37652809791667,32.5864635125,50.0,7.0
65,32.56883534791667,32.81883477291667,59.0,73.0
66,32.56883534791667,32.8364629375,55.0,62.0
67,33.33806434791667,33.43421797291667,55.0,76.0
68,33.53037159791667,33.77075566041667,55.0,84.0
69,33.53037159791667,33.797999187500004,59.0,97.0
70,33.53037159791667,33.822037593750004,62.0,87.0
71,33.53037159791667,33.980691075,50.0,82.0
72,31.22268459791667,34.09767798541667,43.0,94.0
73,34.299600597916665,34.826842975,62.0,84.0
74,34.299600597916665,34.844471139583334,57.0,76.0
75,35.06882959791667,35.21626515625,57.0,84.0
76,35.06882959791667,35.34767511041667,66.0,61.0
77,35.645751347916665,35.717866566666665,57.0,78.0
78,34.299600597916665,36.04318633125,50.0,51.0
79,35.83805859791667,36.29639087708333,57.0,94.0
80,35.83805859791667,36.29639087708333,62.0,87.0
81,36.22267309791667,36.5287621375,50.0,76.0
82,36.41498034791667,36.70985146458334,57.0,102.0
83,36.41498034791667,36.86850494583334,62.0,97.0
84,36.991902097916665,37.142542777083335,57.0,80.0
85,36.60728759791667,37.200234952083335,50.0,71.0
86,37.37651659791667,37.75151573541667,64.0,84.0
87,37.37651659791667,37.78677206458333,59.0,87.0
88,37.37651659791667,38.2595273875,52.0,80.0
89,38.145745597916665,38.34286052916667,59.0,89.0
90,38.145745597916665,38.358886133333336,64.0,89.0
91,38.145745597916665,38.397347583333335,67.0,94.0
92,38.91497459791667,39.20343547291667,59.0,78.0
93,38.91497459791667,39.3941401625,67.0,97.0
94,39.299589097916666,39.472665622916665,59.0,50.0
95,38.91497459791667,39.7691393,52.0,94.0
96,39.68420359791667,39.83804939791667,59.0,89.0
97,39.68420359791667,39.86689548541667,64.0,87.0
98,39.68420359791667,40.00792080208333,67.0,89.0
99,40.45343259791667,40.96304681041667,57.0,73.0
100,40.45343259791667,40.96625193125,62.0,82.0
101,41.22266159791667,41.62810938333333,62.0,80.0
102,41.22266159791667,41.65375035,66.0,65.0
103,41.60727609791667,41.85887808333334,54.0,9.0
104,41.799583347916666,42.051185333333336,59.0,84.0
105,41.799583347916666,42.22586441875,62.0,82.0
106,41.799583347916666,42.44701775625,66.0,63.0
107,42.18419784791667,42.5479790625,59.0,82.0
108,42.37650509791667,42.60406867708333,62.0,84.0
109,41.991890597916665,42.82522201458333,54.0,52.0
110,40.45343259791667,42.8941321125,47.0,100.0
111,42.76111959791667,42.96784989166667,59.0,100.0
112,42.76111959791667,42.98387549583333,62.0,89.0
113,42.76111959791667,43.019131825,66.0,99.0
114,43.145734097916666,43.34124646875,47.0,89.0
115,43.53034859791667,43.980668075000004,67.0,87.0
116,43.53034859791667,44.004706481250004,64.0,80.0
117,43.53034859791667,44.03675768958333,60.0,76.0
118,43.91496309791667,44.37970561875,55.0,55.0
119,44.29957759791667,44.588038472916665,60.0,100.0
120,44.29957759791667,44.592846154166665,64.0,100.0
121,44.29957759791667,44.640922966666665,67.0,100.0
122,43.53034859791667,44.74669195416667,48.0,100.0
123,44.68419209791667,44.834832777083335,55.0,52.0
124,45.06880659791667,45.4710492625,62.0,80.0
125,45.06880659791667,45.66175395208334,66.0,74.0
126,45.645728347916666,45.76271525833334,62.0,73.0
127,45.45342109791667,45.92777898125,57.0,57.0
128,45.06880659791667,46.036753089583335,50.0,102.0
129,45.838035597916665,46.06239405625,66.0,96.0
130,45.838035597916665,46.075214539583335,62.0,89.0
131,46.60726459791667,47.08963528333334,59.0,80.0
132,46.60726459791667,47.15854538125,62.0,84.0
133,46.991879097916666,47.4710446625,54.0,29.0
134,46.60726459791667,47.623287902083334,47.0,94.0
135,47.37649359791667,47.644121187500005,59.0,92.0
136,47.37649359791667,47.644121187500005,62.0,82.0
137,47.37649359791667,47.71783896666667,66.0,65.0
138,47.76110809791667,48.0768125,47.0,87.0
139,48.14572259791667,48.66975985416667,64.0,87.0
140,48.14572259791667,48.69379826041667,67.0,82.0
141,48.14572259791667,48.72745202916667,59.0,69.0
142,48.91495159791667,49.08963068333333,59.0,89.0
143,48.91495159791667,49.24828416458333,64.0,84.0
144,48.91495159791667,49.36366851458334,67.0,92.0
145,48.14572259791667,49.41014276666667,52.0,87.0
146,49.29956609791667,49.44700165625,59.0,82.0
147,49.684180597916665,50.176166645833334,60.0,78.0
148,49.684180597916665,50.221038337500005,57.0,64.0
149,50.06879509791667,50.53674273958333,52.0,58.0
150,50.45340959791667,50.794754966666666,64.0,94.0
151,50.45340959791667,50.804370329166666,57.0,105.0
152,49.684180597916665,51.172959225,45.0,97.0
153,51.030331347916665,51.17776690625,57.0,76.0
154,50.838024097916666,51.22744627916667,52.0,71.0
155,51.22263859791667,51.788342425,60.0,89.0
156,51.22263859791667,51.82199619375,57.0,97.0
157,51.22263859791667,52.18096972708334,45.0,76.0
158,51.99186759791667,52.211418375,60.0,100.0
159,51.99186759791667,52.241867022916665,64.0,100.0
160,51.99186759791667,52.267507989583336,57.0,100.0
161,52.37648209791667,52.705006983333334,45.0,97.0
162,52.76109659791667,53.31558250208334,62.0,89.0
163,52.76109659791667,53.3364157875,57.0,67.0
164,53.530325597916665,53.74667125416667,57.0,87.0
165,53.530325597916665,53.86686328541667,62.0,92.0
166,53.530325597916665,53.99667067916667,66.0,85.0
167,52.76109659791667,54.65692557083334,50.0,97.0
168,54.29955459791667,54.979040214583335,57.0,102.0
169,54.29955459791667,55.022309345833335,62.0,94.0
170,54.29955459791667,55.29955229791667,66.0,61.0
171,55.06878359791667,55.46942370208333,57.0,102.0
172,55.26109084791667,55.495064668750004,62.0,87.0
173,54.87647634791667,55.74506409375,50.0,76.0
174,55.45339809791667,55.74506409375,66.0,96.0
175,55.838012597916666,56.209806614583336,59.0,89.0
176,55.838012597916666,56.288332075,55.0,73.0
177,56.60724159791667,56.812369331250004,62.0,80.0
178,56.60724159791667,56.81397189166667,55.0,78.0
179,56.99185609791667,57.2017915125,50.0,7.0
180,57.184163347916666,57.43416277291667,59.0,73.0
181,57.184163347916666,57.4517909375,55.0,62.0
182,57.95339234791667,58.04954597291667,55.0,76.0
183,58.14569959791667,58.386083660416666,55.0,84.0
184,58.14569959791667,58.4133271875,59.0,97.0
185,58.14569959791667,58.43736559375,62.0,87.0
186,58.14569959791667,58.596019075,50.0,82.0
187,55.838012597916666,58.71300598541667,43.0,94.0
188,58.91492859791667,59.442170975,62.0,84.0
189,58.91492859791667,59.45979913958333,57.0,76.0
190,59.684157597916666,59.83159315625,57.0,84.0
191,59.684157597916666,59.96300311041667,66.0,61.0
192,60.26107934791667,60.33319456666667,57.0,78.0
193,58.91492859791667,60.658514331250004,50.0,51.0
194,60.45338659791667,60.91171887708334,57.0,94.0
195,60.45338659791667,60.91171887708334,62.0,87.0
196,60.83800109791667,61.1440901375,50.0,76.0
197,61.030308347916666,61.325179464583336,57.0,102.0
198,61.030308347916666,61.483832945833335,62.0,97.0
199,61.60723009791667,61.75787077708333,57.0,80.0
200,61.22261559791667,61.81556295208333,50.0,71.0
201,61.99184459791667,62.366843735416666,64.0,84.0
202,61.99184459791667,62.40210006458334,59.0,87.0
203,61.99184459791667,62.8748553875,52.0,80.0
204,62.76107359791667,62.95818852916667,59.0,89.0
205,62.76107359791667,62.974214133333334,64.0,89.0
206,62.76107359791667,63.01267558333333,67.0,94.0
207,63.530302597916666,63.81876347291667,59.0,78.0
208,63.530302597916666,64.0094681625,67.0,97.0
209,63.91491709791667,64.08799362291667,59.0,50.0
210,63.530302597916666,64.3844673,52.0,94.0
211,64.29953159791667,64.45337739791667,59.0,89.0
212,64.29953159791667,64.48222348541667,64.0,87.0
213,64.29953159791667,64.62324880208334,67.0,89.0
214,65.06876059791666,65.57837481041666,57.0,73.0
215,65.06876059791666,65.58157993125,62.0,82.0
216,65.83798959791667,66.24343738333333,62.0,80.0
217,65.83798959791667,66.26907835,66.0,65.0
218,66.22260409791667,66.47420608333333,54.0,9.0
219,66.41491134791667,66.66651333333334,59.0,84.0
220,66.41491134791667,66.84119241875,62.0,82.0
221,66.41491134791667,67.06234575625,66.0,63.0
222,66.79952584791667,67.1633070625,59.0,82.0
223,66.99183309791667,67.21939667708334,62.0,84.0
224,66.60721859791667,67.44055001458334,54.0,52.0
225,65.06876059791666,67.50946011250001,47.0,100.0
226,67.37644759791667,67.58317789166667,59.0,100.0
227,67.37644759791667,67.59920349583334,62.0,89.0
228,67.37644759791667,67.63445982500001,66.0,99.0
229,67.76106209791666,67.95657446875,47.0,89.0
230,68.14567659791666,68.595996075,67.0,87.0
231,68.14567659791666,68.62003448125,64.0,80.0
232,68.14567659791666,68.65208568958333,60.0,76.0
233,68.53029109791667,68.99503361875,55.0,55.0
234,68.91490559791667,69.20336647291667,60.0,100.0
235,68.91490559791667,69.20817415416667,64.0,100.0
236,68.91490559791667,69.25625096666667,67.0,100.0
237,68.14567659791666,69.36201995416667,48.0,100.0
238,69.29952009791667,69.45016077708334,55.0,52.0
239,69.68413459791667,70.08637726250001,62.0,80.0
240,69.68413459791667,70.27708195208334,66.0,74.0
241,70.26105634791666,70.37804325833334,62.0,73.0
242,70.06874909791667,70.54310698125,57.0,57.0
243,69.68413459791667,70.65208108958333,50.0,102.0
244,70.45336359791666,70.67772205625,66.0,96.0
245,70.45336359791666,70.69054253958333,62.0,89.0
246,71.22259259791667,71.6152199,62.0,80.0
247,71.22259259791667,71.65207878958334,67.0,89.0
248,71.22259259791667,71.82034763333334,43.0,100.0
249,71.60720709791667,71.83797579791667,50.0,47.0
250,71.79951434791667,71.9229115,62.0,92.0
251,71.99182159791667,72.71457634583334,62.0,89.0
252,71.99182159791667,72.73540963125001,66.0,105.0
253,71.99182159791667,72.74983267500001,42.0,87.0
254,72.76105059791666,73.00143466041666,59.0,78.0
255,72.76105059791666,73.18092142708333,64.0,87.0
256,72.76105059791666,73.21938287708333,67.0,87.0
257,73.14566509791666,73.3363697875,59.0,71.0
258,73.53027959791667,73.67130491458333,59.0,92.0
259,72.76105059791666,73.72258684791667,52.0,97.0
260,73.53027959791667,74.23380362083334,64.0,94.0
261,73.91489409791667,74.29630347708334,59.0,67.0
262,73.53027959791667,74.30591883958334,67.0,94.0
263,74.29950859791667,74.54630290208334,60.0,89.0
264,74.29950859791667,74.74662295416667,65.0,92.0
265,74.68412309791667,74.91008411666667,60.0,82.0
266,75.06873759791667,75.24662180416667,60.0,102.0
267,74.29950859791667,75.30271141875001,53.0,100.0
268,75.06873759791667,75.32835238541666,65.0,102.0
269,75.06873759791667,75.519057075,69.0,100.0
270,75.45335209791666,75.69373616041666,60.0,82.0
271,75.64565934791666,75.749825775,65.0,82.0
272,75.83796659791668,76.29309375625,62.0,69.0
273,75.83796659791668,76.37642689791667,66.0,93.0
274,75.83796659791668,76.78988748541667,50.0,89.0
275,76.22258109791667,76.79149004583334,57.0,69.0
276,76.60719559791667,76.7979002875,62.0,100.0
277,76.60719559791667,76.96777169166667,66.0,105.0
278,76.99181009791667,77.21937367708334,62.0,76.0
279,77.37642459791667,77.57033440833334,67.0,84.0
280,77.37642459791667,77.59597537500001,62.0,80.0
281,77.76103909791667,78.33796084791666,50.0,46.0
282,78.14565359791666,78.51584505416668,55.0,82.0
283,78.14565359791666,78.56872954791667,60.0,73.0
284,77.37642459791667,78.80751105,43.0,100.0
285,78.53026809791668,78.84436993958333,50.0,87.0
286,78.91488259791667,79.29308685625,59.0,100.0
287,78.91488259791667,79.3075099,55.0,94.0
288,79.49180434791667,79.61199637916667,55.0,82.0
289,79.29949709791667,79.75462425625,50.0,67.0
290,78.91488259791667,79.84116251875,43.0,94.0
291,79.68411159791667,80.41487914791666,55.0,94.0
292,79.68411159791667,80.41487914791666,59.0,111.0
293,79.68411159791667,80.44212267500001,62.0,100.0
294,80.06872609791667,80.47096876250001,50.0,100.0
295,80.45334059791666,80.58955823333334,64.0,97.0
296,80.45334059791666,80.595968475,61.0,68.0
297,80.45334059791666,80.60718639791666,67.0,102.0
298,80.45334059791666,80.69051953958333,37.0,82.0
299,80.45334059791666,80.69051953958333,49.0,82.0
300,80.45334059791666,80.69051953958333,55.0,100.0
301,80.83795509791666,80.96135225,64.0,78.0
302,80.83795509791666,80.97577529375,61.0,55.0
303,80.83795509791666,80.98539065625,67.0,82.0
304,81.22256959791667,81.35237699166667,64.0,87.0
305,81.22256959791667,81.36680003541667,61.0,70.0
306,81.22256959791667,81.37000515625,67.0,94.0
307,81.22256959791667,81.3940435625,37.0,96.0
308,81.22256959791667,81.3940435625,49.0,96.0
309,81.22256959791667,81.40846660625,55.0,94.0
310,81.60718409791667,81.68410699791667,64.0,89.0
311,81.60718409791667,81.7401966125,61.0,61.0
312,81.60718409791667,81.79628622708334,67.0,89.0
313,81.99179859791667,82.11199062916667,63.0,96.0
314,81.99179859791667,82.13282391458334,59.0,94.0
315,81.99179859791667,82.14884951875,66.0,74.0
316,81.99179859791667,82.24340058333334,35.0,100.0
317,81.99179859791667,82.24340058333334,47.0,100.0
318,82.37641309791667,82.4901948875,63.0,79.0
319,82.37641309791667,82.51263073333334,66.0,72.0
320,82.37641309791667,82.53506657916667,59.0,78.0
321,82.76102759791667,82.89884779375001,63.0,105.0
322,82.76102759791667,82.90846315625001,59.0,102.0
323,82.76102759791667,82.90846315625001,66.0,90.0
324,82.76102759791667,83.17128306458333,35.0,100.0
325,82.76102759791667,83.17128306458333,47.0,100.0
326,83.14564209791666,83.2594238875,63.0,55.0
327,83.14564209791666,83.29948789791666,59.0,71.0
328,83.14564209791666,83.3171160625,66.0,74.0
329,83.53025659791668,83.67128191458333,59.0,94.0
330,83.53025659791668,83.67128191458333,64.0,100.0
331,83.53025659791668,83.67448703541667,67.0,97.0
332,83.53025659791668,83.88762757083333,40.0,105.0
333,83.53025659791668,83.88762757083333,52.0,105.0
334,83.91487109791667,84.01743496458333,59.0,71.0
335,83.91487109791667,84.01743496458333,67.0,82.0
336,83.91487109791667,84.02705032708333,64.0,87.0
337,84.29948559791667,84.39884434375,59.0,94.0
338,84.29948559791667,84.41967762916667,64.0,97.0
339,84.29948559791667,84.41967762916667,67.0,94.0
340,84.29948559791667,84.71294618541667,40.0,94.0
341,84.29948559791667,84.71294618541667,52.0,94.0
342,84.68410009791667,84.77384348125,64.0,94.0
343,84.68410009791667,84.81070237083334,67.0,82.0
344,84.68410009791667,84.81230493125,59.0,92.0
345,85.06871459791667,85.21615015625001,61.0,65.0
346,85.06871459791667,85.23377832083334,57.0,82.0
347,85.06871459791667,85.25461160625001,64.0,43.0
348,85.45332909791667,85.53826480000001,61.0,93.0
349,85.45332909791667,85.55589296458334,57.0,84.0
350,85.45332909791667,85.55589296458334,64.0,92.0
351,85.06871459791667,85.59275185416666,33.0,100.0
352,85.06871459791667,85.59275185416666,45.0,100.0
353,85.83794359791666,85.96134075,61.0,102.0
354,85.83794359791666,85.96294331041666,57.0,97.0
355,85.83794359791666,85.97896891458333,64.0,100.0
356,86.22255809791668,86.32512196458333,61.0,74.0
357,86.22255809791668,86.34595525,64.0,87.0
358,86.22255809791668,86.3555706125,57.0,82.0
359,85.83794359791666,86.35717317291667,33.0,102.0
360,85.83794359791666,86.35717317291667,45.0,102.0
361,86.60717259791667,86.75781327708333,64.0,97.0
362,86.60717259791667,86.76422351875,60.0,100.0
363,86.60717259791667,86.76582607916667,55.0,100.0
364,86.99178709791667,87.0767228,64.0,84.0
365,86.99178709791667,87.07992792083334,55.0,82.0
366,86.99178709791667,87.08313304166667,60.0,94.0
367,86.60717259791667,87.095953525,36.0,71.0
368,86.60717259791667,87.095953525,48.0,71.0
369,87.37640159791667,87.50300387083334,55.0,87.0
370,87.37640159791667,87.51422179375,60.0,94.0
371,87.37640159791667,87.51422179375,64.0,92.0
372,87.76101609791667,87.87319532708334,55.0,80.0
373,87.76101609791667,87.88120812916667,64.0,82.0
374,87.76101609791667,87.88441325000001,60.0,82.0
375,87.37640159791667,87.95492590833334,36.0,102.0
376,87.37640159791667,87.95492590833334,48.0,102.0
377,88.14563059791666,88.33152760625,57.0,92.0
378,88.14563059791666,88.33152760625,62.0,105.0
379,88.53024509791668,88.66005249166668,57.0,55.0
380,88.53024509791668,88.67127041458333,66.0,40.0
381,88.53024509791668,88.67447553541668,62.0,78.0
382,88.14563059791666,88.70332162291668,38.0,97.0
383,88.14563059791666,88.70332162291668,50.0,97.0
384,88.91485959791667,89.0286413875,57.0,100.0
385,88.91485959791667,89.04466699166667,62.0,105.0
386,88.91485959791667,89.07191051875,66.0,102.0
387,88.91485959791667,89.38601236041667,38.0,102.0
388,88.91485959791667,89.38601236041667,50.0,102.0
389,89.29947409791667,89.41165332708334,62.0,89.0
390,89.29947409791667,89.41165332708334,66.0,82.0
391,89.29947409791667,89.43729429375,57.0,84.0
392,89.68408859791667,89.82831903541667,62.0,89.0
393,89.68408859791667,89.83312671666667,55.0,80.0
394,89.68408859791667,89.83793439791667,59.0,92.0
395,90.06870309791667,90.16806184375,55.0,52.0
396,90.06870309791667,90.16806184375,59.0,62.0
397,90.06870309791667,90.16806184375,62.0,80.0
398,89.68408859791667,90.28504875416667,31.0,105.0
399,89.68408859791667,90.28504875416667,43.0,105.0
400,90.45331759791667,90.61197107916666,59.0,100.0
401,90.45331759791667,90.61517620000001,55.0,92.0
402,90.45331759791667,90.63440692500001,62.0,92.0
403,90.83793209791666,90.94049596458333,59.0,66.0
404,90.83793209791666,90.9709446125,55.0,60.0
405,90.83793209791666,90.97575229375,62.0,64.0
406,90.45331759791667,91.02222654583333,31.0,102.0
407,90.45331759791667,91.02222654583333,43.0,102.0
408,91.22254659791668,91.33953350833333,59.0,97.0
409,91.22254659791668,91.3555591125,62.0,87.0
410,91.22254659791668,91.36357191458333,55.0,84.0
411,91.22254659791668,91.37959751875,67.0,87.0
412,91.22254659791668,91.46934090208333,31.0,100.0
413,91.22254659791668,91.46934090208333,43.0,100.0
414,91.60716109791667,91.71453264583333,59.0,87.0
415,91.60716109791667,91.73055825,62.0,71.0
416,91.60716109791667,91.74818641458333,55.0,78.0
417,91.60716109791667,91.77542994166667,67.0,69.0
418,91.99177559791667,92.16004444166667,59.0,108.0
419,91.99177559791667,92.1632495625,62.0,100.0
420,91.99177559791667,92.16645468333334,55.0,89.0
421,91.99177559791667,92.18087772708334,67.0,87.0
422,91.99177559791667,92.42606947083334,31.0,108.0
423,91.99177559791667,92.42606947083334,43.0,108.0
424,92.37639009791667,92.53344101875,59.0,105.0
425,92.37639009791667,92.5382487,62.0,89.0
426,92.37639009791667,92.55106918333334,55.0,84.0
427,92.37639009791667,92.557479425,67.0,87.0
428,92.76100459791667,92.89722223333334,64.0,97.0
429,92.76100459791667,92.90363247500001,61.0,68.0
430,92.76100459791667,92.91485039791667,67.0,102.0
431,92.76100459791667,92.99818353958334,37.0,82.0
432,92.76100459791667,92.99818353958334,49.0,82.0
433,92.76100459791667,92.99818353958334,55.0,100.0
434,93.14561909791666,93.26901625,64.0,78.0
435,93.14561909791666,93.28343929375,61.0,55.0
436,93.14561909791666,93.29305465625,67.0,82.0
437,93.53023359791666,93.66004099166668,64.0,87.0
438,93.53023359791666,93.67446403541668,61.0,70.0
439,93.53023359791666,93.67766915625,67.0,94.0
440,93.53023359791666,93.7017075625,37.0,96.0
441,93.53023359791666,93.7017075625,49.0,96.0
442,93.53023359791666,93.71613060625,55.0,94.0
443,93.91484809791667,93.99177099791667,64.0,89.0
444,93.91484809791667,94.0478606125,61.0,61.0
445,93.91484809791667,94.10395022708333,67.0,89.0
446,94.29946259791667,94.41965462916667,63.0,96.0
447,94.29946259791667,94.44048791458334,59.0,94.0
448,94.29946259791667,94.45651351875,66.0,74.0
449,94.29946259791667,94.55106458333334,35.0,100.0
450,94.29946259791667,94.55106458333334,47.0,100.0
451,94.68407709791667,94.7978588875,63.0,79.0
452,94.68407709791667,94.82029473333334,66.0,72.0
453,94.68407709791667,94.84273057916667,59.0,78.0
454,95.06869159791667,95.20651179375,63.0,105.0
455,95.06869159791667,95.21612715625,59.0,102.0
456,95.06869159791667,95.21612715625,66.0,90.0
457,95.06869159791667,95.47894706458334,35.0,100.0
458,95.06869159791667,95.47894706458334,47.0,100.0
459,95.45330609791667,95.56708788750001,63.0,55.0
460,95.45330609791667,95.60715189791667,59.0,71.0
461,95.45330609791667,95.62478006250001,66.0,74.0
462,95.83792059791666,95.97894591458333,59.0,94.0
463,95.83792059791666,95.97894591458333,64.0,100.0
464,95.83792059791666,95.98215103541666,67.0,97.0
465,95.83792059791666,96.19529157083333,40.0,105.0
466,95.83792059791666,96.19529157083333,52.0,105.0
467,96.22253509791668,96.32509896458333,59.0,71.0
468,96.22253509791668,96.32509896458333,67.0,82.0
469,96.22253509791668,96.33471432708333,64.0,87.0
470,96.60714959791667,96.70650834375,59.0,94.0
471,96.60714959791667,96.72734162916667,64.0,97.0
472,96.60714959791667,96.72734162916667,67.0,94.0
473,96.60714959791667,97.02061018541667,40.0,94.0
474,96.60714959791667,97.02061018541667,52.0,94.0
475,96.99176409791667,97.08150748125,64.0,94.0
476,96.99176409791667,97.11836637083334,67.0,82.0
477,96.99176409791667,97.11996893125,59.0,92.0
478,97.37637859791667,97.48535270625,55.0,76.0
479,97.37637859791667,97.50298087083334,59.0,87.0
480,97.37637859791667,97.51259623333334,62.0,87.0
481,97.76099309791667,97.88118512916667,55.0,78.0
482,97.37637859791667,97.88278768958334,31.0,102.0
483,97.37637859791667,97.88278768958334,43.0,102.0
484,97.76099309791667,97.89400561250001,59.0,92.0
485,97.76099309791667,97.90522353541667,62.0,87.0
486,98.14560759791667,98.30265851875001,55.0,94.0
487,98.14560759791667,98.31387644166666,59.0,102.0
488,98.14560759791667,98.31387644166666,62.0,94.0
489,98.53022209791666,98.62637572291666,55.0,92.0
490,98.53022209791666,98.63599108541666,59.0,97.0
491,98.14560759791667,98.66643973333333,31.0,102.0
492,98.14560759791667,98.66643973333333,43.0,102.0
493,98.53022209791666,98.66804229375,62.0,94.0
494,98.91483659791668,99.03823375,64.0,97.0
495,98.91483659791668,99.04143887083333,61.0,70.0
496,98.91483659791668,99.05265679375,67.0,100.0
497,98.91483659791668,99.14881041875,37.0,63.0
498,98.91483659791668,99.14881041875,49.0,63.0
499,98.91483659791668,99.16643858333333,55.0,80.0
500,99.29945109791667,99.4324636125,64.0,94.0
501,99.29945109791667,99.43727129375,61.0,79.0
502,99.29945109791667,99.45650201875,67.0,94.0
503,99.68406559791667,99.80425762916667,64.0,92.0
504,99.68406559791667,99.81227043125,61.0,85.0
505,99.68406559791667,99.82829603541667,67.0,97.0
506,99.68406559791667,99.90041125416667,55.0,94.0
507,99.68406559791667,99.903616375,37.0,85.0
508,99.68406559791667,99.903616375,49.0,85.0
509,100.06868009791667,100.21611565625,64.0,92.0
510,100.06868009791667,100.2305387,61.0,87.0
511,100.06868009791667,100.23374382083334,67.0,100.0
512,100.45329459791667,100.59592247500001,67.0,102.0
513,100.45329459791667,100.60073015625001,64.0,100.0
514,100.45329459791667,100.60233271666667,61.0,59.0
515,100.45329459791667,100.68406329791667,37.0,57.0
516,100.45329459791667,100.68406329791667,49.0,57.0
517,100.45329459791667,100.70329402291667,55.0,80.0
518,100.83790909791666,100.97572929375,61.0,70.0
519,100.83790909791666,100.97893441458334,64.0,92.0
520,100.83790909791666,100.98213953541666,67.0,94.0
521,101.22252359791668,101.38758732083333,64.0,97.0
522,101.22252359791668,101.3939975625,61.0,82.0
523,101.22252359791668,101.39720268333333,67.0,97.0
524,101.22252359791668,101.42124108958333,55.0,87.0
525,101.22252359791668,101.44527949583333,37.0,68.0
526,101.22252359791668,101.44527949583333,49.0,68.0
527,101.60713809791667,101.6920738,64.0,92.0
528,101.60713809791667,101.7209198875,61.0,87.0
529,101.60713809791667,101.76579157916667,67.0,102.0
530,101.99175259791667,102.10713694791667,59.0,89.0
531,101.99175259791667,102.1247651125,63.0,99.0
532,101.99175259791667,102.13918815625,66.0,96.0
533,101.99175259791667,102.49495656875,35.0,105.0
534,101.99175259791667,102.49495656875,47.0,105.0
535,102.37636709791667,102.5093796125,59.0,94.0
536,102.37636709791667,102.52380265625,63.0,93.0
537,102.37636709791667,102.52380265625,66.0,85.0
538,102.76098159791667,102.87316082708334,59.0,97.0
539,102.76098159791667,102.90200691458334,63.0,99.0
540,102.76098159791667,102.92604532083334,66.0,96.0
541,102.76098159791667,103.29142909583334,35.0,102.0
542,102.76098159791667,103.29142909583334,47.0,102.0
543,103.14559609791667,103.29142909583334,63.0,90.0
544,103.14559609791667,103.29303165625001,59.0,92.0
545,103.14559609791667,103.34751871041667,66.0,93.0
546,103.53021059791666,103.66963335416666,59.0,94.0
547,103.53021059791666,103.6824538375,63.0,93.0
548,103.53021059791666,103.711299925,66.0,87.0
549,103.91482509791668,104.05104273333333,59.0,100.0
550,103.91482509791668,104.06226065625,63.0,102.0
551,103.91482509791668,104.07187601875,66.0,93.0
552,103.53021059791666,104.10873490833333,35.0,108.0
553,103.53021059791666,104.10873490833333,47.0,108.0
554,104.29943959791667,104.43725979375,59.0,100.0
555,104.29943959791667,104.45809307916667,63.0,102.0
556,104.29943959791667,104.47732380416667,66.0,102.0
557,104.29943959791667,104.99495081875,35.0,105.0
558,104.29943959791667,104.99495081875,47.0,105.0
559,104.68405409791667,105.00777130208334,59.0,105.0
560,104.68405409791667,105.01738666458334,63.0,112.0
561,104.68405409791667,105.0286045875,66.0,109.0
562,105.06866859791667,105.26738608958334,59.0,100.0
563,105.06866859791667,105.47892406458334,64.0,105.0
564,105.06866859791667,105.52700087708334,68.0,93.0
565,105.45328309791667,105.65200058958334,59.0,80.0
566,105.83789759791667,106.03982021041666,59.0,108.0
567,105.83789759791667,106.32988364583333,64.0,108.0
568,105.83789759791667,106.42603727083333,68.0,105.0
569,106.22251209791666,106.50776785208333,59.0,80.0
570,106.60712659791668,106.80263896875,59.0,89.0
571,106.60712659791668,107.09911264583333,64.0,102.0
572,106.60712659791668,107.18404834791667,68.0,90.0
573,106.99174109791667,107.24334308333334,59.0,84.0
574,107.37635559791667,107.5478295625,59.0,108.0
575,107.37635559791667,107.80584178958334,64.0,108.0
576,107.37635559791667,107.81866227291667,68.0,99.0
577,105.06866859791667,107.87635444791667,52.0,117.0
578,107.76097009791667,107.99173879791667,59.0,84.0
579,108.14558459791667,108.36513537500001,59.0,105.0
580,108.14558459791667,108.56866054791666,63.0,99.0
581,108.14558459791667,108.61994248125,66.0,93.0
582,108.53019909791666,108.77058316041666,59.0,69.0
583,108.14558459791667,108.96289041041668,47.0,105.0
584,108.91481359791668,109.19365911041668,59.0,108.0
585,108.91481359791668,109.47570974375,63.0,105.0
586,108.91481359791668,109.50295327083333,66.0,85.0
587,109.29942809791667,109.90519593541667,54.0,72.0
588,109.68404259791667,109.93564458333334,59.0,108.0
589,109.68404259791667,110.15840048125,63.0,109.0
590,109.68404259791667,110.211284975,71.0,87.0
591,109.68404259791667,110.3074386,66.0,90.0
592,110.06865709791667,110.31545140208334,59.0,67.0
593,110.45327159791667,110.59750203541667,59.0,111.0
594,110.06865709791667,110.70968126458334,47.0,58.0
595,110.45327159791667,110.78660416458334,71.0,94.0
596,110.45327159791667,110.82666817500001,66.0,109.0
597,110.45327159791667,110.84109121875001,63.0,112.0
598,110.83788609791667,110.94365508541667,59.0,108.0
599,111.22250059791666,111.62794838333333,64.0,100.0
600,111.22250059791666,111.63916630625,68.0,72.0
601,111.22250059791666,111.711281525,61.0,90.0
602,111.99172959791667,112.18083172708333,61.0,102.0
603,111.60711509791668,112.19525477083333,56.0,45.0
604,111.22250059791666,112.22249829791667,49.0,102.0
605,111.99172959791667,112.27698535208334,64.0,111.0
606,111.99172959791667,112.42602347083334,68.0,96.0
607,112.37634409791667,112.64717680833334,61.0,87.0
608,112.76095859791667,113.01576570416667,61.0,90.0
609,112.76095859791667,113.21608575625001,64.0,108.0
610,112.76095859791667,113.39557252291667,68.0,82.0
611,113.14557309791667,113.39877764375001,61.0,72.0
612,112.76095859791667,113.66320011250001,49.0,77.0
613,113.53018759791667,113.66320011250001,61.0,99.0
614,113.53018759791667,113.77698190208334,64.0,108.0
615,113.53018759791667,113.94685330625,68.0,96.0
616,113.91480209791666,114.06223765625,61.0,93.0
617,114.29941659791668,114.73691559166667,59.0,94.0
618,114.29941659791668,114.76095399791667,63.0,65.0
619,114.29941659791668,114.90838955625,56.0,82.0
620,115.06864559791667,115.288196375,56.0,99.0
621,115.06864559791667,115.3362731875,59.0,108.0
622,115.06864559791667,115.36992695625,63.0,99.0
623,115.45326009791667,115.49813178958334,63.0,38.0
624,115.45326009791667,115.73210561041667,56.0,102.0
625,114.29941659791668,115.74813121458334,44.0,102.0
626,114.68403109791667,115.77056706041667,51.0,50.0
627,115.83787459791667,116.03018184791667,56.0,99.0
628,115.83787459791667,116.10229706666667,59.0,111.0
629,115.83787459791667,116.288194075,63.0,90.0
630,116.22248909791666,116.39716818333333,56.0,96.0
631,115.83787459791667,116.46447572083333,44.0,102.0
632,116.60710359791668,116.77216732083333,56.0,102.0
633,116.60710359791668,116.87953886875,59.0,108.0
634,116.99171809791667,117.07344867916667,59.0,37.0
635,116.60710359791668,117.16799974375,44.0,109.0
636,116.60710359791668,117.20646119375,63.0,93.0
637,116.99171809791667,117.27697385208333,56.0,102.0
638,117.37633259791667,117.86190840416667,64.0,97.0
639,117.37633259791667,117.87953656875,57.0,94.0
640,117.37633259791667,117.92761338125,61.0,102.0
641,117.76094709791667,118.32985604583334,52.0,94.0
642,118.14556159791667,118.53498377916667,57.0,100.0
643,118.14556159791667,118.54139402083334,61.0,102.0
644,118.14556159791667,118.54139402083334,64.0,100.0
645,117.37633259791667,118.64395788750001,45.0,105.0
646,118.53017609791667,118.83306001666666,52.0,97.0
647,118.91479059791666,119.19684123125,59.0,97.0
648,118.91479059791666,119.39716128333333,63.0,77.0
649,119.29940509791668,119.58145573125,59.0,92.0
650,118.91479059791666,119.58946853333333,66.0,85.0
651,118.91479059791666,119.61991718125,47.0,105.0
652,119.68401959791667,119.88594221041667,59.0,111.0
653,119.68401959791667,120.07344177916667,54.0,93.0
654,119.68401959791667,120.0862622625,63.0,112.0
655,119.68401959791667,120.11350578958334,47.0,97.0
656,119.68401959791667,120.11510835,66.0,102.0
657,120.06863409791667,120.19523637083334,59.0,102.0
658,120.45324859791667,120.85869638333334,59.0,89.0
659,120.45324859791667,120.86670918541667,56.0,59.0
660,120.45324859791667,120.88433735000001,63.0,63.0
661,120.45324859791667,121.40036180416666,44.0,105.0
662,121.22247759791667,121.403566925,56.0,105.0
663,121.22247759791667,121.45004117708334,59.0,117.0
664,120.83786309791667,121.53016919791666,51.0,96.0
665,121.22247759791667,121.64875866875,63.0,99.0
666,121.60709209791668,121.68561755833333,56.0,96.0
667,121.60709209791668,121.71286108541668,44.0,96.0
668,121.99170659791668,122.46285936041667,64.0,92.0
669,121.99170659791668,122.57984627083334,68.0,63.0
670,121.99170659791668,122.58785907291667,61.0,61.0
671,121.99170659791668,122.94362748541667,49.0,109.0
672,122.76093559791667,122.97407613333334,61.0,99.0
673,122.37632109791667,122.98208893541667,56.0,93.0
674,122.76093559791667,123.03657598958334,64.0,114.0
675,123.14555009791667,123.19362691041667,64.0,49.0
676,122.76093559791667,123.45644681875001,68.0,102.0
677,123.14555009791667,123.50612619166667,61.0,102.0
678,123.53016459791667,123.82183059375001,57.0,105.0
679,123.53016459791667,123.83625363750001,61.0,93.0
680,123.53016459791667,123.84747156041666,54.0,90.0
681,124.29939359791668,124.51253413333333,54.0,93.0
682,124.29939359791668,124.518944375,61.0,77.0
683,124.29939359791668,124.52214949583333,57.0,105.0
684,123.91477909791666,124.52695717708333,49.0,61.0
685,124.29939359791668,124.76093099791667,66.0,72.0
686,123.53016459791667,124.9708664125,42.0,93.0
687,124.68400809791667,124.98208433541667,54.0,87.0
688,125.06862259791667,125.32823738541667,54.0,82.0
689,125.06862259791667,125.34907067083334,57.0,102.0
690,125.06862259791667,125.49810878958334,61.0,68.0
691,125.45323709791667,125.68721091875,54.0,90.0
692,125.06862259791667,125.89554377291667,42.0,102.0
693,125.83785159791667,126.00612044166667,57.0,114.0
694,125.83785159791667,126.02374860625001,61.0,102.0
695,125.83785159791667,126.03015884791667,54.0,99.0
696,125.83785159791667,126.16797904375001,66.0,79.0
697,126.60708059791666,126.83784929791668,59.0,92.0
698,126.60708059791666,127.01252838333333,63.0,96.0
699,126.60708059791666,127.20002795208333,66.0,72.0
700,126.99169509791668,127.24329708333333,59.0,89.0
701,127.37630959791667,127.6054757375,66.0,109.0
702,127.37630959791667,127.64874486875,59.0,117.0
703,127.37630959791667,127.7785522625,63.0,116.0
704,126.60708059791666,127.98848767708334,47.0,108.0
705,127.76092409791667,128.07021825833334,54.0,74.0
706,127.95323134791667,128.07342337916668,59.0,100.0
707,128.14553859791667,128.51733261458332,59.0,114.0
708,128.14553859791667,128.5477812625,66.0,105.0
709,128.14553859791667,128.55098638333334,63.0,112.0
710,128.14553859791667,128.57983247083334,71.0,97.0
711,128.53015309791667,129.03335706875,54.0,82.0
712,128.14553859791667,129.59425321458335,47.0,108.0
713,129.29938209791666,129.60226601666668,54.0,102.0
714,128.91476759791666,129.60226601666668,59.0,111.0
715,128.91476759791666,129.61668906041666,63.0,112.0
716,128.91476759791666,129.61829162083333,66.0,99.0
717,129.68399659791666,129.88271408958335,59.0,100.0
718,129.68399659791666,130.09425206458334,64.0,105.0
719,129.68399659791666,130.14232887708334,68.0,93.0
720,130.06861109791666,130.26732858958334,59.0,80.0
721,130.45322559791668,130.65514821041668,59.0,108.0
722,130.45322559791668,130.94521164583333,64.0,108.0
723,130.45322559791668,131.04136527083332,68.0,105.0
724,130.83784009791668,131.12309585208334,59.0,80.0
725,131.22245459791668,131.41796696875,59.0,89.0
726,131.22245459791668,131.71444064583335,64.0,102.0
727,131.22245459791668,131.79937634791668,68.0,90.0
728,131.60706909791668,131.85867108333335,59.0,84.0
729,131.99168359791668,132.1631575625,59.0,108.0
730,131.99168359791668,132.42116978958333,64.0,108.0
731,131.99168359791668,132.43399027291667,68.0,99.0
732,129.68399659791666,132.49168244791667,52.0,117.0
733,132.37629809791667,132.60706679791667,59.0,84.0
734,132.76091259791667,132.980463375,59.0,105.0
735,132.76091259791667,133.18398854791667,63.0,99.0
736,132.76091259791667,133.23527048125,66.0,93.0
737,133.14552709791667,133.38591116041667,59.0,69.0
738,132.76091259791667,133.57821841041667,47.0,105.0
739,133.53014159791667,133.80898711041667,59.0,108.0
740,133.53014159791667,134.09103774375,63.0,105.0
741,133.53014159791667,134.11828127083334,66.0,85.0
742,133.91475609791667,134.52052393541666,54.0,72.0
743,134.29937059791666,134.55097258333333,59.0,108.0
744,134.29937059791666,134.77372848125,63.0,109.0
745,134.29937059791666,134.82661297500002,71.0,87.0
746,134.29937059791666,134.92276660000002,66.0,90.0
747,134.68398509791666,134.93077940208335,59.0,67.0
748,135.06859959791666,135.21283003541666,59.0,111.0
749,134.68398509791666,135.32500926458334,47.0,58.0
750,135.06859959791666,135.40193216458334,71.0,94.0
751,135.06859959791666,135.441996175,66.0,109.0
752,135.06859959791666,135.45641921875,63.0,112.0
753,135.45321409791666,135.55898308541668,59.0,108.0
754,135.83782859791668,136.24327638333332,64.0,100.0
755,135.83782859791668,136.25449430625,68.0,72.0
756,135.83782859791668,136.326609525,61.0,90.0
757,136.60705759791668,136.79615972708334,61.0,102.0
758,136.22244309791668,136.81058277083335,56.0,45.0
759,135.83782859791668,136.83782629791668,49.0,102.0
760,136.60705759791668,136.89231335208333,64.0,111.0
761,136.60705759791668,137.04135147083335,68.0,96.0
762,136.99167209791668,137.26250480833335,61.0,87.0
763,137.37628659791667,137.63109370416666,61.0,90.0
764,137.37628659791667,137.83141375625002,64.0,108.0
765,137.37628659791667,138.01090052291667,68.0,82.0
766,137.76090109791667,138.01410564375,61.0,72.0
767,137.37628659791667,138.2785281125,49.0,77.0
768,138.14551559791667,138.2785281125,61.0,99.0
769,138.14551559791667,138.39230990208333,64.0,108.0
770,138.14551559791667,138.56218130625,68.0,96.0
771,138.53013009791667,138.67756565625,61.0,93.0
772,138.91474459791667,139.35224359166668,59.0,94.0
773,138.91474459791667,139.37628199791666,63.0,65.0
774,138.91474459791667,139.52371755625,56.0,82.0
775,139.68397359791666,139.90352437500002,56.0,99.0
776,139.68397359791666,139.95160118750002,59.0,108.0
777,139.68397359791666,139.98525495625,63.0,99.0
778,140.06858809791666,140.11345978958335,63.0,38.0
779,140.06858809791666,140.34743361041666,56.0,102.0
780,138.91474459791667,140.36345921458334,44.0,102.0
781,139.29935909791666,140.38589506041666,51.0,50.0
782,140.45320259791666,140.64550984791668,56.0,99.0
783,140.45320259791666,140.71762506666667,59.0,111.0
784,140.45320259791666,140.903522075,63.0,90.0
785,140.83781709791668,141.01249618333333,56.0,96.0
786,140.45320259791666,141.07980372083333,44.0,102.0
787,141.22243159791668,141.38749532083332,56.0,102.0
788,141.22243159791668,141.49486686875,59.0,108.0
789,141.60704609791668,141.68877667916666,59.0,37.0
790,141.22243159791668,141.78332774375,44.0,109.0
791,141.22243159791668,141.82178919375,63.0,93.0
792,141.60704609791668,141.89230185208334,56.0,102.0
793,141.99166059791668,142.47723640416666,64.0,97.0
794,141.99166059791668,142.49486456875002,57.0,94.0
795,141.99166059791668,142.54294138125002,61.0,102.0
796,142.37627509791668,142.94518404583334,52.0,94.0
797,142.76088959791667,143.15031177916669,57.0,100.0
798,142.76088959791667,143.15672202083334,61.0,102.0
799,142.76088959791667,143.15672202083334,64.0,100.0
800,141.99166059791668,143.2592858875,45.0,105.0
801,143.14550409791667,143.44838801666668,52.0,97.0
802,143.53011859791667,143.81216923125,59.0,97.0
803,143.53011859791667,144.01248928333334,63.0,77.0
804,143.91473309791667,144.19678373125,59.0,92.0
805,143.53011859791667,144.20479653333334,66.0,85.0
806,143.53011859791667,144.23524518125,47.0,105.0
807,144.29934759791666,144.50127021041666,59.0,111.0
808,144.29934759791666,144.68876977916668,54.0,93.0
809,144.29934759791666,144.7015902625,63.0,112.0
810,144.29934759791666,144.72883378958335,47.0,97.0
811,144.29934759791666,144.73043635,66.0,102.0
812,144.68396209791666,144.81056437083333,59.0,102.0
813,145.06857659791666,145.47402438333333,59.0,89.0
814,145.06857659791666,145.48203718541666,56.0,59.0
815,145.06857659791666,145.49966535000001,63.0,63.0
816,145.06857659791666,146.01568980416667,44.0,105.0
817,145.83780559791668,146.018894925,56.0,105.0
818,145.83780559791668,146.06536917708334,59.0,117.0
819,145.45319109791666,146.14549719791668,51.0,96.0
820,145.83780559791668,146.26408666875,63.0,99.0
821,146.22242009791668,146.30094555833332,56.0,96.0
822,146.22242009791668,146.32818908541668,44.0,96.0
823,146.60703459791668,147.07818736041668,64.0,92.0
824,146.60703459791668,147.19517427083335,68.0,63.0
825,146.60703459791668,147.20318707291668,61.0,61.0
826,146.60703459791668,147.55895548541667,49.0,109.0
827,147.37626359791668,147.58940413333335,61.0,99.0
828,146.99164909791668,147.59741693541667,56.0,93.0
829,147.37626359791668,147.65190398958333,64.0,114.0
830,147.76087809791667,147.80895491041667,64.0,49.0
831,147.37626359791668,148.07177481875001,68.0,102.0
832,147.76087809791667,148.12145419166666,61.0,102.0
833,148.14549259791667,148.43715859375,57.0,105.0
834,148.14549259791667,148.4515816375,61.0,93.0
835,148.14549259791667,148.46279956041667,54.0,90.0
836,148.91472159791667,149.12786213333334,54.0,93.0
837,148.91472159791667,149.134272375,61.0,77.0
838,148.91472159791667,149.13747749583334,57.0,105.0
839,148.53010709791667,149.14228517708335,49.0,61.0
840,148.91472159791667,149.37625899791666,66.0,72.0
841,148.14549259791667,149.5861944125,42.0,93.0
842,149.29933609791667,149.59741233541666,54.0,87.0
843,149.68395059791666,149.93395002291666,59.0,84.0
844,149.68395059791666,150.26888515000002,63.0,57.0
845,149.68395059791666,150.27369283125,71.0,92.0
846,149.68395059791666,150.31055172083333,66.0,65.0
847,150.06856509791666,150.59260235416667,54.0,61.0
848,150.45317959791666,150.59741003541666,59.0,102.0
849,149.68395059791666,150.71119182500001,47.0,105.0
850,150.45317959791666,150.80093520833333,63.0,109.0
851,150.45317959791666,150.81375569166667,71.0,94.0
852,150.45317959791666,150.86664018541668,66.0,102.0
853,150.83779409791669,151.14708825833333,59.0,105.0
854,151.22240859791668,151.40510048541668,59.0,94.0
855,151.22240859791668,151.75285609583335,68.0,70.0
856,151.22240859791668,151.78650986458334,64.0,100.0
857,151.60702309791668,151.83298411666667,59.0,71.0
858,151.99163759791668,152.12945779375,59.0,105.0
859,151.99163759791668,152.19676533125,64.0,102.0
860,151.99163759791668,152.22881653958333,68.0,96.0
861,151.22240859791668,152.4900338875,52.0,100.0
862,152.37625209791668,152.67593089583335,59.0,100.0
863,152.76086659791667,152.96118665,59.0,105.0
864,152.76086659791667,153.22881423958333,64.0,100.0
865,152.76086659791667,153.403493325,68.0,70.0
866,153.14548109791667,153.41631380833334,59.0,89.0
867,152.76086659791667,153.45317269791667,52.0,105.0
868,153.53009559791667,154.26246570833334,64.0,87.0
869,153.53009559791667,154.26727338958335,68.0,63.0
870,153.91471009791667,154.27528619166668,59.0,97.0
871,157.37624059791668,157.70957316458333,62.0,78.0
872,157.37624059791668,157.74162437291668,55.0,73.0
873,157.76085509791668,158.24643090416666,50.0,30.0
874,158.14546959791667,158.365020375,59.0,89.0
875,158.14546959791667,158.41630230833334,62.0,84.0
876,158.14546959791667,158.42110998958333,55.0,87.0
877,158.53008409791667,158.69835294166668,50.0,21.0
878,158.72239134791667,158.86662178541667,55.0,84.0
879,158.72239134791667,158.88104482916668,62.0,80.0
880,158.91469859791667,159.06213415625,50.0,33.0
881,159.10700584791667,159.26405676875,55.0,67.0
882,159.29931309791667,159.7977093875,50.0,58.0
883,159.68392759791666,159.8169401125,59.0,94.0
884,159.68392759791666,159.82174779375,55.0,87.0
885,157.37624059791668,159.8361708375,43.0,89.0
886,159.68392759791666,159.86181180416668,62.0,92.0
887,160.45898468125,160.85995830625,62.0,71.0
888,160.45898468125,160.88755568125,57.0,58.0
889,161.23820468125,161.35995780625,57.0,97.0
890,161.23820468125,161.39242530625,66.0,79.0
891,160.45898468125,161.87132093125,50.0,73.0
892,161.82261968125002,162.05638568125,62.0,84.0
893,161.82261968125002,162.06612593125,57.0,69.0
894,162.01742468125,162.16677518125002,50.0,51.0
895,162.21222968125,162.48008655625,57.0,87.0
896,162.60183968125,162.74469668125002,57.0,100.0
897,162.79664468125,163.04339768125,62.0,108.0
898,162.79664468125,163.04664443125,57.0,108.0
899,162.40703468125,163.11969630625,50.0,82.0
900,163.57586468125,164.02553955625,59.0,80.0
901,163.57586468125,164.04339668125002,64.0,82.0
902,164.35508468125,164.51579880625002,59.0,89.0
903,164.35508468125,164.51904555625,67.0,94.0
904,163.57586468125,164.98333080625,52.0,87.0
905,164.93949968125,165.17975918125,59.0,67.0
906,164.93949968125,165.24307080625002,64.0,73.0
907,165.32910968125,165.57261593125,59.0,67.0
908,165.52391468125,165.67651193125002,64.0,42.0
909,165.13430468125,165.81936893125,52.0,60.0
910,165.91352468125,166.13268030625,59.0,84.0
911,165.91352468125,166.18462830625,64.0,78.0
912,165.91352468125,166.20573218125,67.0,84.0
913,165.91352468125,166.21709580625,52.0,82.0
914,166.30313468125001,166.43787480625,59.0,67.0
915,166.69274468125002,167.24144543125,62.0,87.0
916,166.69274468125002,167.27391293125,57.0,78.0
917,166.69274468125002,167.28040643125001,66.0,65.0
918,167.86157468125,168.19761330625,57.0,87.0
919,167.47196468125,168.21222368125,62.0,97.0
920,167.47196468125,168.23657430625002,66.0,99.0
921,166.69274468125002,168.26579505625,50.0,87.0
922,168.25118468125,168.62780768125,59.0,89.0
923,168.25118468125,168.70683269166668,55.0,73.0
924,169.02574221458335,169.23086994791666,62.0,80.0
925,169.02574221458335,169.23247250833333,55.0,78.0
926,169.41035671458334,169.62029212916667,50.0,7.0
927,169.60266396458334,169.85266338958334,59.0,73.0
928,169.60266396458334,169.87029155416667,55.0,62.0
929,170.37189296458334,170.46804658958334,55.0,76.0
930,170.56420021458334,170.80458427708334,55.0,84.0
931,170.56420021458334,170.83182780416666,59.0,97.0
932,170.56420021458334,170.85586621041668,62.0,87.0
933,170.56420021458334,171.01451969166666,50.0,82.0
934,168.25118468125,171.13150660208333,43.0,94.0
935,171.33342921458333,171.86067159166666,62.0,84.0
936,171.33342921458333,171.87829975625002,57.0,76.0
937,172.10265821458333,172.25009377291667,57.0,84.0
938,172.10265821458333,172.38150372708333,66.0,61.0
939,172.67957996458333,172.75169518333334,57.0,78.0
940,171.33342921458333,173.07701494791667,50.0,51.0
941,172.87188721458335,173.33021949375,57.0,94.0
942,172.87188721458335,173.33021949375,62.0,87.0
943,173.25650171458335,173.56259075416668,50.0,76.0
944,173.44880896458335,173.74368008125,57.0,102.0
945,173.44880896458335,173.90233356250002,62.0,97.0
946,174.02573071458335,174.17637139375,57.0,80.0
947,173.64111621458335,174.23406356875,50.0,71.0
948,174.41034521458334,174.78534435208334,64.0,84.0
949,174.41034521458334,174.82060068125,59.0,87.0
950,174.41034521458334,175.29335600416667,52.0,80.0
951,175.17957421458334,175.37668914583332,59.0,89.0
952,175.17957421458334,175.39271475,64.0,89.0
953,175.17957421458334,175.4311762,67.0,94.0
954,175.94880321458334,176.23726408958333,59.0,78.0
955,175.94880321458334,176.42796877916666,67.0,97.0
956,176.33341771458333,176.50649423958333,59.0,50.0
957,175.94880321458334,176.80296791666666,52.0,94.0
958,176.71803221458333,176.87187801458333,59.0,89.0
959,176.71803221458333,176.90072410208333,64.0,87.0
960,176.71803221458333,177.04174941875002,67.0,89.0
961,177.48726121458333,177.99687542708335,57.0,73.0
962,177.48726121458333,178.00008054791667,62.0,82.0
963,178.25649021458335,178.661938,62.0,80.0
964,178.25649021458335,178.68757896666668,66.0,65.0
965,178.64110471458335,178.89270670000002,54.0,9.0
966,178.83341196458335,179.08501395000002,59.0,84.0
967,178.83341196458335,179.25969303541666,62.0,82.0
968,178.83341196458335,179.48084637291666,66.0,63.0
969,179.21802646458335,179.58180767916667,59.0,82.0
970,179.41033371458334,179.63789729375,62.0,84.0
971,179.02571921458335,179.85905063125,54.0,52.0
972,177.48726121458333,179.92796072916667,47.0,100.0
973,179.79494821458334,180.00167850833333,59.0,100.0
974,179.79494821458334,180.0177041125,62.0,89.0
975,179.79494821458334,180.05296044166667,66.0,99.0
976,180.17956271458334,180.37507508541668,47.0,89.0
977,180.56417721458334,181.01449669166666,67.0,87.0
978,180.56417721458334,181.03853509791668,64.0,80.0
979,180.56417721458334,181.07058630625,60.0,76.0
980,180.94879171458334,181.41353423541668,55.0,55.0
981,181.33340621458333,181.62186708958333,60.0,100.0
982,181.33340621458333,181.62667477083335,64.0,100.0
983,181.33340621458333,181.67475158333335,67.0,100.0
984,180.56417721458334,181.78052057083335,48.0,100.0
985,181.71802071458333,181.86866139375002,55.0,52.0
986,182.10263521458333,182.50487787916668,62.0,80.0
987,182.10263521458333,182.69558256875,66.0,74.0
988,182.67955696458333,182.796543875,62.0,73.0
989,182.48724971458333,182.96160759791667,57.0,57.0
990,182.10263521458333,183.07058170625,50.0,102.0
991,182.87186421458333,183.09622267291667,66.0,96.0
992,182.87186421458333,183.10904315625,62.0,89.0
993,183.64109321458335,184.03372051666668,62.0,80.0
994,183.64109321458335,184.07057940625,67.0,89.0
995,183.64109321458335,184.23884825000002,43.0,100.0
996,184.02570771458335,184.25647641458335,50.0,47.0
997,184.21801496458335,184.34141211666667,62.0,92.0
998,184.41032221458335,185.1330769625,62.0,89.0
999,184.41032221458335,185.15391024791668,66.0,105.0
1000,184.41032221458335,185.16833329166667,42.0,87.0
1001,185.17955121458334,185.41993527708334,59.0,78.0
1002,185.17955121458334,185.59942204375,64.0,87.0
1003,185.17955121458334,185.63788349375,67.0,87.0
1004,185.56416571458334,185.75487040416667,59.0,71.0
1005,185.94878021458334,186.08980553125,59.0,92.0
1006,185.17955121458334,186.14108746458334,52.0,97.0
1007,185.94878021458334,186.6523042375,64.0,94.0
1008,186.33339471458333,186.71480409375,59.0,67.0
1009,185.94878021458334,186.72441945625002,67.0,94.0
1010,186.71800921458333,186.96480351875002,60.0,89.0
1011,186.71800921458333,187.16512357083334,65.0,92.0
1012,187.10262371458333,187.32858473333334,60.0,82.0
1013,187.48723821458333,187.66512242083334,60.0,102.0
1014,186.71800921458333,187.72121203541667,53.0,100.0
1015,187.48723821458333,187.74685300208333,65.0,102.0
1016,187.48723821458333,187.93755769166668,69.0,100.0
1017,187.87185271458333,188.11223677708335,60.0,82.0
1018,188.06415996458333,188.16832639166668,65.0,82.0
1019,188.25646721458332,188.71159437291666,62.0,69.0
1020,188.25646721458332,188.79492751458335,66.0,93.0
1021,188.25646721458332,189.20838810208335,50.0,89.0
1022,188.64108171458335,189.2099906625,57.0,69.0
1023,189.02569621458335,189.21640090416668,62.0,100.0
1024,189.02569621458335,189.38627230833333,66.0,105.0
1025,189.41031071458335,189.63787429375,62.0,76.0
1026,189.79492521458334,189.98883502500001,67.0,84.0
1027,189.79492521458334,190.01447599166667,62.0,80.0
1028,190.17953971458334,190.75646146458334,50.0,46.0
1029,190.56415421458334,190.93434567083335,55.0,82.0
1030,190.56415421458334,190.98723016458334,60.0,73.0
1031,189.79492521458334,191.22601166666666,43.0,100.0
1032,190.94876871458334,191.26287055625,50.0,87.0
1033,191.33338321458334,191.71158747291668,59.0,100.0
1034,191.33338321458334,191.72601051666666,55.0,94.0
1035,191.91030496458333,192.03049699583335,55.0,82.0
1036,191.71799771458333,192.17312487291667,50.0,67.0
1037,191.33338321458334,192.25966313541667,43.0,94.0
1038,192.10261221458333,192.83337976458333,55.0,94.0
1039,192.10261221458333,192.83337976458333,59.0,111.0
1040,192.10261221458333,192.86062329166668,62.0,100.0
1041,192.48722671458333,192.88946937916668,50.0,100.0
1042,192.87184121458333,193.00805885,64.0,97.0
1043,192.87184121458333,193.01446909166668,61.0,68.0
1044,192.87184121458333,193.02568701458335,67.0,102.0
1045,192.87184121458333,193.10902015625,37.0,82.0
1046,192.87184121458333,193.10902015625,49.0,82.0
1047,192.87184121458333,193.10902015625,55.0,100.0
1048,193.25645571458335,193.37985286666668,64.0,78.0
1049,193.25645571458335,193.39427591041667,61.0,55.0
1050,193.25645571458335,193.40389127291667,67.0,82.0
1051,193.64107021458335,193.77087760833334,64.0,87.0
1052,193.64107021458335,193.78530065208335,61.0,70.0
1053,193.64107021458335,193.78850577291666,67.0,94.0
1054,193.64107021458335,193.81254417916668,37.0,96.0
1055,193.64107021458335,193.81254417916668,49.0,96.0
1056,193.64107021458335,193.82696722291666,55.0,94.0
1057,194.02568471458335,194.10260761458335,64.0,89.0
1058,194.02568471458335,194.15869722916668,61.0,61.0
1059,194.02568471458335,194.21478684375,67.0,89.0
1060,194.41029921458335,194.53049124583333,63.0,96.0
1061,194.41029921458335,194.55132453125,59.0,94.0
1062,194.41029921458335,194.56735013541666,66.0,74.0
1063,194.41029921458335,194.66190120000002,35.0,100.0
1064,194.41029921458335,194.66190120000002,47.0,100.0
1065,194.79491371458334,194.90869550416667,63.0,79.0
1066,194.79491371458334,194.93113135000002,66.0,72.0
1067,194.79491371458334,194.95356719583333,59.0,78.0
1068,195.17952821458334,195.31734841041668,63.0,105.0
1069,195.17952821458334,195.32696377291668,59.0,102.0
1070,195.17952821458334,195.32696377291668,66.0,90.0
1071,195.17952821458334,195.58978368125,35.0,100.0
1072,195.17952821458334,195.58978368125,47.0,100.0
1073,195.56414271458334,195.67792450416667,63.0,55.0
1074,195.56414271458334,195.71798851458334,59.0,71.0
1075,195.56414271458334,195.73561667916667,66.0,74.0
1076,195.94875721458334,196.08978253125,59.0,94.0
1077,195.94875721458334,196.08978253125,64.0,100.0
1078,195.94875721458334,196.09298765208334,67.0,97.0
1079,195.94875721458334,196.3061281875,40.0,105.0
1080,195.94875721458334,196.3061281875,52.0,105.0
1081,196.33337171458334,196.43593558125002,59.0,71.0
1082,196.33337171458334,196.43593558125002,67.0,82.0
1083,196.33337171458334,196.44555094375,64.0,87.0
1084,196.71798621458333,196.81734496041668,59.0,94.0
1085,196.71798621458333,196.83817824583335,64.0,97.0
1086,196.71798621458333,196.83817824583335,67.0,94.0
1087,196.71798621458333,197.13144680208333,40.0,94.0
1088,196.71798621458333,197.13144680208333,52.0,94.0
1089,197.10260071458333,197.19234409791667,64.0,94.0
1090,197.10260071458333,197.2292029875,67.0,82.0
1091,197.10260071458333,197.23080554791667,59.0,92.0
1092,197.48721521458333,197.63465077291667,61.0,65.0
1093,197.48721521458333,197.6522789375,57.0,82.0
1094,197.48721521458333,197.67311222291667,64.0,43.0
1095,197.87182971458333,197.95676541666668,61.0,93.0
1096,197.87182971458333,197.97439358125,57.0,84.0
1097,197.87182971458333,197.97439358125,64.0,92.0
1098,197.48721521458333,198.01125247083334,33.0,100.0
1099,197.48721521458333,198.01125247083334,45.0,100.0
1100,198.25644421458333,198.37984136666668,61.0,102.0
1101,198.25644421458333,198.38144392708335,57.0,97.0
1102,198.25644421458333,198.39746953125,64.0,100.0
1103,198.64105871458335,198.74362258125,61.0,74.0
1104,198.64105871458335,198.76445586666668,64.0,87.0
1105,198.64105871458335,198.77407122916668,57.0,82.0
1106,198.25644421458333,198.77567378958335,33.0,102.0
1107,198.25644421458333,198.77567378958335,45.0,102.0
1108,199.02567321458335,199.17631389375,64.0,97.0
1109,199.02567321458335,199.18272413541666,60.0,100.0
1110,199.02567321458335,199.18432669583333,55.0,100.0
1111,199.41028771458335,199.49522341666668,64.0,84.0
1112,199.41028771458335,199.49842853750002,55.0,82.0
1113,199.41028771458335,199.50163365833333,60.0,94.0
1114,199.02567321458335,199.51445414166668,36.0,71.0
1115,199.02567321458335,199.51445414166668,48.0,71.0
1116,199.79490221458335,199.92150448750002,55.0,87.0
1117,199.79490221458335,199.93272241041666,60.0,94.0
1118,199.79490221458335,199.93272241041666,64.0,92.0
1119,200.17951671458334,200.29169594375,55.0,80.0
1120,200.17951671458334,200.29970874583333,64.0,82.0
1121,200.17951671458334,200.30291386666667,60.0,82.0
1122,199.79490221458335,200.373426525,36.0,102.0
1123,199.79490221458335,200.373426525,48.0,102.0
1124,200.56413121458334,200.75002822291668,57.0,92.0
1125,200.56413121458334,200.75002822291668,62.0,105.0
1126,200.94874571458334,201.07855310833332,57.0,55.0
1127,200.94874571458334,201.08977103125,66.0,40.0
1128,200.94874571458334,201.09297615208334,62.0,78.0
1129,200.56413121458334,201.12182223958334,38.0,97.0
1130,200.56413121458334,201.12182223958334,50.0,97.0
1131,201.33336021458334,201.44714200416666,57.0,100.0
1132,201.33336021458334,201.46316760833332,62.0,105.0
1133,201.33336021458334,201.49041113541668,66.0,102.0
1134,201.33336021458334,201.80451297708333,38.0,102.0
1135,201.33336021458334,201.80451297708333,50.0,102.0
1136,201.71797471458333,201.83015394375002,62.0,89.0
1137,201.71797471458333,201.83015394375002,66.0,82.0
1138,201.71797471458333,201.85579491041668,57.0,84.0
1139,202.10258921458333,202.24681965208333,62.0,89.0
1140,202.10258921458333,202.25162733333335,55.0,80.0
1141,202.10258921458333,202.25643501458333,59.0,92.0
1142,202.48720371458333,202.58656246041667,55.0,52.0
1143,202.48720371458333,202.58656246041667,59.0,62.0
1144,202.48720371458333,202.58656246041667,62.0,80.0
1145,202.10258921458333,202.70354937083334,31.0,105.0
1146,202.10258921458333,202.70354937083334,43.0,105.0
1147,202.87181821458336,203.03047169583334,59.0,100.0
1148,202.87181821458336,203.03367681666668,55.0,92.0
1149,202.87181821458336,203.05290754166668,62.0,92.0
1150,203.25643271458335,203.35899658125,59.0,66.0
1151,203.25643271458335,203.38944522916668,55.0,60.0
1152,203.25643271458335,203.39425291041667,62.0,64.0
1153,202.87181821458336,203.4407271625,31.0,102.0
1154,202.87181821458336,203.4407271625,43.0,102.0
1155,203.64104721458335,203.758034125,59.0,97.0
1156,203.64104721458335,203.77405972916668,62.0,87.0
1157,203.64104721458335,203.78207253125,55.0,84.0
1158,203.64104721458335,203.79809813541667,67.0,87.0
1159,203.64104721458335,203.88784151875,31.0,100.0
1160,203.64104721458335,203.88784151875,43.0,100.0
1161,204.02566171458335,204.13303326250002,59.0,87.0
1162,204.02566171458335,204.14905886666668,62.0,71.0
1163,204.02566171458335,204.16668703125,55.0,78.0
1164,204.02566171458335,204.19393055833334,67.0,69.0
1165,204.41027621458335,204.57854505833333,59.0,108.0
1166,204.41027621458335,204.58175017916668,62.0,100.0
1167,204.41027621458335,204.5849553,55.0,89.0
1168,204.41027621458335,204.59937834375,67.0,87.0
1169,204.41027621458335,204.84457008750002,31.0,108.0
1170,204.41027621458335,204.84457008750002,43.0,108.0
1171,204.79489071458335,204.9519416354167,59.0,105.0
1172,204.79489071458335,204.95674931666667,62.0,89.0
1173,204.79489071458335,204.96956980000002,55.0,84.0
1174,204.79489071458335,204.97598004166667,67.0,87.0
1175,205.17950521458334,205.31572285000001,64.0,97.0
1176,205.17950521458334,205.32213309166667,61.0,68.0
1177,205.17950521458334,205.33335101458334,67.0,102.0
1178,205.17950521458334,205.41668415625,37.0,82.0
1179,205.17950521458334,205.41668415625,49.0,82.0
1180,205.17950521458334,205.41668415625,55.0,100.0
1181,205.56411971458334,205.68751686666667,64.0,78.0
1182,205.56411971458334,205.70193991041668,61.0,55.0
1183,205.56411971458334,205.71155527291666,67.0,82.0
1184,205.94873421458334,206.07854160833335,64.0,87.0
1185,205.94873421458334,206.09296465208334,61.0,70.0
1186,205.94873421458334,206.09616977291668,67.0,94.0
1187,205.94873421458334,206.12020817916667,37.0,96.0
1188,205.94873421458334,206.12020817916667,49.0,96.0
1189,205.94873421458334,206.13463122291668,55.0,94.0
1190,206.33334871458334,206.41027161458334,64.0,89.0
1191,206.33334871458334,206.46636122916667,61.0,61.0
1192,206.33334871458334,206.52245084375,67.0,89.0
1193,206.71796321458334,206.83815524583335,63.0,96.0
1194,206.71796321458334,206.85898853125002,59.0,94.0
1195,206.71796321458334,206.87501413541668,66.0,74.0
1196,206.71796321458334,206.9695652,35.0,100.0
1197,206.71796321458334,206.9695652,47.0,100.0
1198,207.10257771458333,207.2163595041667,63.0,79.0
1199,207.10257771458333,207.23879535,66.0,72.0
1200,207.10257771458333,207.26123119583335,59.0,78.0
1201,207.48719221458333,207.62501241041667,63.0,105.0
1202,207.48719221458333,207.63462777291667,59.0,102.0
1203,207.48719221458333,207.63462777291667,66.0,90.0
1204,207.48719221458333,207.89744768125001,35.0,100.0
1205,207.48719221458333,207.89744768125001,47.0,100.0
1206,207.87180671458333,207.98558850416669,63.0,55.0
1207,207.87180671458333,208.02565251458333,59.0,71.0
1208,207.87180671458333,208.04328067916668,66.0,74.0
1209,208.25642121458333,208.39744653125,59.0,94.0
1210,208.25642121458333,208.39744653125,64.0,100.0
1211,208.25642121458333,208.40065165208335,67.0,97.0
1212,208.25642121458333,208.6137921875,40.0,105.0
1213,208.25642121458333,208.6137921875,52.0,105.0
1214,208.64103571458332,208.74359958125,59.0,71.0
1215,208.64103571458332,208.74359958125,67.0,82.0
1216,208.64103571458332,208.75321494375,64.0,87.0
1217,209.02565021458332,209.12500896041666,59.0,94.0
1218,209.02565021458332,209.14584224583334,64.0,97.0
1219,209.02565021458332,209.14584224583334,67.0,94.0
1220,209.02565021458332,209.43911080208335,40.0,94.0
1221,209.02565021458332,209.43911080208335,52.0,94.0
1222,209.41026471458335,209.50000809791666,64.0,94.0
1223,209.41026471458335,209.5368669875,67.0,82.0
1224,209.41026471458335,209.5384695479167,59.0,92.0
1225,209.79487921458335,209.9038533229167,55.0,76.0
1226,209.79487921458335,209.9214814875,59.0,87.0
1227,209.79487921458335,209.93109685000002,62.0,87.0
1228,210.17949371458334,210.29968574583333,55.0,78.0
1229,209.79487921458335,210.30128830625,31.0,102.0
1230,209.79487921458335,210.30128830625,43.0,102.0
1231,210.17949371458334,210.31250622916667,59.0,92.0
1232,210.17949371458334,210.32372415208334,62.0,87.0
1233,210.56410821458334,210.72115913541666,55.0,94.0
1234,210.56410821458334,210.73237705833333,59.0,102.0
1235,210.56410821458334,210.73237705833333,62.0,94.0
1236,210.94872271458334,211.04487633958334,55.0,92.0
1237,210.94872271458334,211.05449170208334,59.0,97.0
1238,210.56410821458334,211.08494035,31.0,102.0
1239,210.56410821458334,211.08494035,43.0,102.0
1240,210.94872271458334,211.08654291041668,62.0,94.0
1241,211.33333721458334,211.45673436666667,64.0,97.0
1242,211.33333721458334,211.4599394875,61.0,70.0
1243,211.33333721458334,211.47115741041668,67.0,100.0
1244,211.33333721458334,211.56731103541668,37.0,63.0
1245,211.33333721458334,211.56731103541668,49.0,63.0
1246,211.33333721458334,211.5849392,55.0,80.0
1247,211.71795171458334,211.85096422916666,64.0,94.0
1248,211.71795171458334,211.85577191041668,61.0,79.0
1249,211.71795171458334,211.87500263541668,67.0,94.0
1250,212.10256621458333,212.22275824583335,64.0,92.0
1251,212.10256621458333,212.23077104791668,61.0,85.0
1252,212.10256621458333,212.24679665208333,67.0,97.0
1253,212.10256621458333,212.31891187083335,55.0,94.0
1254,212.10256621458333,212.3221169916667,37.0,85.0
1255,212.10256621458333,212.3221169916667,49.0,85.0
1256,212.48718071458333,212.63461627291667,64.0,92.0
1257,212.48718071458333,212.6490393166667,61.0,87.0
1258,212.48718071458333,212.6522444375,67.0,100.0
1259,212.87179521458333,213.01442309166669,67.0,102.0
1260,212.87179521458333,213.01923077291667,64.0,100.0
1261,212.87179521458333,213.02083333333334,61.0,59.0
1262,212.87179521458333,213.10256391458336,37.0,57.0
1263,212.87179521458333,213.10256391458336,49.0,57.0
1264,212.87179521458333,213.12179463958336,55.0,80.0
1265,213.25640971458336,213.39422991041667,61.0,70.0
1266,213.25640971458336,213.39743503125,64.0,92.0
1267,213.25640971458336,213.40064015208333,67.0,94.0
1268,213.64102421458335,213.80608793750002,64.0,97.0
1269,213.64102421458335,213.81249817916668,61.0,82.0
1270,213.64102421458335,213.8157033,67.0,97.0
1271,213.64102421458335,213.83974170625,55.0,87.0
1272,213.64102421458335,213.86378011250002,37.0,68.0
1273,213.64102421458335,213.86378011250002,49.0,68.0
1274,214.02563871458335,214.11057441666668,64.0,92.0
1275,214.02563871458335,214.13942050416668,61.0,87.0
1276,214.02563871458335,214.18429219583334,67.0,102.0
1277,214.41025321458335,214.52563756458335,59.0,89.0
1278,214.41025321458335,214.54326572916668,63.0,99.0
1279,214.41025321458335,214.55768877291666,66.0,96.0
1280,214.41025321458335,214.9134571854167,35.0,105.0
1281,214.41025321458335,214.9134571854167,47.0,105.0
1282,214.79486771458335,214.92788022916668,59.0,94.0
1283,214.79486771458335,214.94230327291666,63.0,93.0
1284,214.79486771458335,214.94230327291666,66.0,85.0
1285,215.17948221458335,215.29166144375,59.0,97.0
1286,215.17948221458335,215.32050753125,63.0,99.0
1287,215.17948221458335,215.34454593750002,66.0,96.0
1288,215.17948221458335,215.7099297125,35.0,102.0
1289,215.17948221458335,215.7099297125,47.0,102.0
1290,215.56409671458334,215.7099297125,63.0,90.0
1291,215.56409671458334,215.71153227291666,59.0,92.0
1292,215.56409671458334,215.76601932708334,66.0,93.0
1293,215.94871121458334,216.08813397083333,59.0,94.0
1294,215.94871121458334,216.10095445416667,63.0,93.0
1295,215.94871121458334,216.12980054166667,66.0,87.0
1296,216.33332571458334,216.46954335,59.0,100.0
1297,216.33332571458334,216.48076127291668,63.0,102.0
1298,216.33332571458334,216.49037663541668,66.0,93.0
1299,215.94871121458334,216.527235525,35.0,108.0
1300,215.94871121458334,216.527235525,47.0,108.0
1301,216.71794021458334,216.85576041041668,59.0,100.0
1302,216.71794021458334,216.87659369583335,63.0,102.0
1303,216.71794021458334,216.89582442083335,66.0,102.0
1304,216.71794021458334,217.41345143541668,35.0,105.0
1305,216.71794021458334,217.41345143541668,47.0,105.0
1306,217.10255471458333,217.42627191875,59.0,105.0
1307,217.10255471458333,217.43588728125002,63.0,112.0
1308,217.10255471458333,217.4471052041667,66.0,109.0
1309,217.48716921458333,217.68588670625002,59.0,100.0
1310,217.48716921458333,217.89742468125002,64.0,105.0
1311,217.48716921458333,217.94550149375002,68.0,93.0
1312,217.87178371458333,218.07050120625001,59.0,80.0
1313,218.25639821458333,218.45832082708336,59.0,108.0
1314,218.25639821458333,218.7483842625,64.0,108.0
1315,218.25639821458333,218.8445378875,68.0,105.0
1316,218.64101271458333,218.92626846875,59.0,80.0
1317,219.02562721458332,219.22113958541667,59.0,89.0
1318,219.02562721458332,219.5176132625,64.0,102.0
1319,219.02562721458332,219.60254896458335,68.0,90.0
1320,219.41024171458335,219.66184370000002,59.0,84.0
1321,219.79485621458335,219.96633017916668,59.0,108.0
1322,219.79485621458335,220.22434240625,64.0,108.0
1323,219.79485621458335,220.23716288958335,68.0,99.0
1324,217.48716921458333,220.29485506458334,52.0,117.0
1325,220.17947071458335,220.41023941458334,59.0,84.0
1326,220.56408521458334,220.78363599166667,59.0,105.0
1327,220.56408521458334,220.98716116458334,63.0,99.0
1328,220.56408521458334,221.03844309791668,66.0,93.0
1329,220.94869971458334,221.18908377708334,59.0,69.0
1330,220.56408521458334,221.38139102708334,47.0,105.0
1331,221.33331421458334,221.61215972708334,59.0,108.0
1332,221.33331421458334,221.89421036041668,63.0,105.0
1333,221.33331421458334,221.9214538875,66.0,85.0
1334,221.71792871458334,222.32369655208333,54.0,72.0
1335,222.10254321458333,222.3541452,59.0,108.0
1336,222.10254321458333,222.57690109791668,63.0,109.0
1337,222.10254321458333,222.6297855916667,71.0,87.0
1338,222.10254321458333,222.7259392166667,66.0,90.0
1339,222.48715771458333,222.73395201875002,59.0,67.0
1340,222.87177221458333,223.01600265208333,59.0,111.0
1341,222.48715771458333,223.12818188125001,47.0,58.0
1342,222.87177221458333,223.20510478125001,71.0,94.0
1343,222.87177221458333,223.24516879166669,66.0,109.0
1344,222.87177221458333,223.25959183541667,63.0,112.0
1345,223.25638671458336,223.36215570208333,59.0,108.0
1346,223.64100121458335,224.046449,64.0,100.0
1347,223.64100121458335,224.05766692291667,68.0,72.0
1348,223.64100121458335,224.12978214166668,61.0,90.0
1349,224.41023021458335,224.59933234375,61.0,102.0
1350,224.02561571458335,224.61375538750002,56.0,45.0
1351,223.64100121458335,224.64099891458335,49.0,102.0
1352,224.41023021458335,224.69548596875,64.0,111.0
1353,224.41023021458335,224.84452408750002,68.0,96.0
1354,224.79484471458335,225.065677425,61.0,87.0
1355,225.17945921458335,225.43426632083333,61.0,90.0
1356,225.17945921458335,225.63458637291666,64.0,108.0
1357,225.17945921458335,225.81407313958334,68.0,82.0
1358,225.56407371458334,225.81727826041669,61.0,72.0
1359,225.17945921458335,226.08170072916667,49.0,77.0
1360,225.94868821458334,226.08170072916667,61.0,99.0
1361,225.94868821458334,226.19548251875,64.0,108.0
1362,225.94868821458334,226.36535392291668,68.0,96.0
1363,226.33330271458334,226.48073827291668,61.0,93.0
1364,226.71791721458334,227.15541620833335,59.0,94.0
1365,226.71791721458334,227.17945461458334,63.0,65.0
1366,226.71791721458334,227.32689017291668,56.0,82.0
1367,227.48714621458333,227.70669699166666,56.0,99.0
1368,227.48714621458333,227.7547738041667,59.0,108.0
1369,227.48714621458333,227.78842757291667,63.0,99.0
1370,227.87176071458333,227.91663240625002,63.0,38.0
1371,227.87176071458333,228.15060622708333,56.0,102.0
1372,226.71791721458334,228.16663183125002,44.0,102.0
1373,227.10253171458334,228.18906767708336,51.0,50.0
1374,228.25637521458333,228.44868246458333,56.0,99.0
1375,228.25637521458333,228.52079768333334,59.0,111.0
1376,228.25637521458333,228.70669469166668,63.0,90.0
1377,228.64098971458333,228.8156688,56.0,96.0
1378,228.25637521458333,228.8829763375,44.0,102.0
1379,229.02560421458332,229.1906679375,56.0,102.0
1380,229.02560421458332,229.29803948541667,59.0,108.0
1381,229.41021871458332,229.49194929583334,59.0,37.0
1382,229.02560421458332,229.58650036041666,44.0,109.0
1383,229.02560421458332,229.62496181041666,63.0,93.0
1384,229.41021871458332,229.69547446875,56.0,102.0
1385,229.79483321458335,230.28040902083333,64.0,97.0
1386,229.79483321458335,230.29803718541666,57.0,94.0
1387,229.79483321458335,230.3461139979167,61.0,102.0
1388,230.17944771458335,230.74835666250002,52.0,94.0
1389,230.56406221458334,230.95348439583336,57.0,100.0
1390,230.56406221458334,230.9598946375,61.0,102.0
1391,230.56406221458334,230.9598946375,64.0,100.0
1392,229.79483321458335,231.06245850416667,45.0,105.0
1393,230.94867671458334,231.25156063333333,52.0,97.0
1394,231.33329121458334,231.61534184791668,59.0,97.0
1395,231.33329121458334,231.8156619,63.0,77.0
1396,231.71790571458334,231.99995634791668,59.0,92.0
1397,231.33329121458334,232.00796915,66.0,85.0
1398,231.33329121458334,232.03841779791668,47.0,105.0
1399,232.10252021458334,232.30444282708334,59.0,111.0
1400,232.10252021458334,232.49194239583335,54.0,93.0
1401,232.10252021458334,232.50476287916666,63.0,112.0
1402,232.10252021458334,232.53200640625,47.0,97.0
1403,232.10252021458334,232.5336089666667,66.0,102.0
1404,232.48713471458333,232.6137369875,59.0,102.0
1405,232.87174921458336,233.277197,59.0,89.0
1406,232.87174921458336,233.28520980208333,56.0,59.0
1407,232.87174921458336,233.3028379666667,63.0,63.0
1408,232.87174921458336,233.81886242083334,44.0,105.0
1409,233.64097821458336,233.82206754166668,56.0,105.0
1410,233.64097821458336,233.86854179375,59.0,117.0
1411,233.25636371458336,233.94866981458335,51.0,96.0
1412,233.64097821458336,234.06725928541667,63.0,99.0
1413,234.02559271458335,234.104118175,56.0,96.0
1414,234.02559271458335,234.13136170208332,44.0,96.0
1415,234.41020721458335,234.88135997708332,64.0,92.0
1416,234.41020721458335,234.99834688750002,68.0,63.0
1417,234.41020721458335,235.00635968958335,61.0,61.0
1418,234.41020721458335,235.36212810208335,49.0,109.0
1419,235.17943621458335,235.39257675,61.0,99.0
1420,234.79482171458335,235.40058955208335,56.0,93.0
1421,235.17943621458335,235.45507660625,64.0,114.0
1422,235.56405071458335,235.61212752708335,64.0,49.0
1423,235.17943621458335,235.8749474354167,68.0,102.0
1424,235.56405071458335,235.92462680833336,61.0,102.0
1425,235.94866521458334,236.24033121041668,57.0,105.0
1426,235.94866521458334,236.25475425416667,61.0,93.0
1427,235.94866521458334,236.26597217708334,54.0,90.0
1428,236.71789421458334,236.93103475,54.0,93.0
1429,236.71789421458334,236.93744499166667,61.0,77.0
1430,236.71789421458334,236.9406501125,57.0,105.0
1431,236.33327971458334,236.94545779375,49.0,61.0
1432,236.71789421458334,237.17943161458334,66.0,72.0
1433,235.94866521458334,237.3893670291667,42.0,93.0
1434,237.10250871458334,237.40058495208334,54.0,87.0
1435,237.48712321458333,237.74673800208336,54.0,82.0
1436,237.48712321458333,237.7675712875,57.0,102.0
1437,237.48712321458333,237.91660940625002,61.0,68.0
1438,237.87173771458333,238.10571153541667,54.0,90.0
1439,237.48712321458333,238.31404438958333,42.0,102.0
1440,238.25635221458333,238.42462105833334,57.0,114.0
1441,238.25635221458333,238.44224922291667,61.0,102.0
1442,238.25635221458333,238.44865946458333,54.0,99.0
1443,238.25635221458333,238.58647966041667,66.0,79.0
1444,239.02558121458333,239.25634991458332,59.0,92.0
1445,239.02558121458333,239.43102900000002,63.0,96.0
1446,239.02558121458333,239.61852856875,66.0,72.0
1447,239.41019571458332,239.66179770000002,59.0,89.0
1448,239.79481021458332,240.02397635416668,66.0,109.0
1449,239.79481021458332,240.06724548541666,59.0,117.0
1450,239.79481021458332,240.19705287916668,63.0,116.0
1451,239.02558121458333,240.40698829375,47.0,108.0
1452,240.17942471458332,240.48871887500002,54.0,74.0
1453,240.37173196458335,240.49192399583336,59.0,100.0
1454,240.56403921458335,240.93583323125,59.0,114.0
1455,240.56403921458335,240.96628187916667,66.0,105.0
1456,240.56403921458335,240.96948700000002,63.0,112.0
1457,240.56403921458335,240.9983330875,71.0,97.0
1458,240.94865371458334,241.45185768541666,54.0,82.0
1459,240.56403921458335,242.01275383125,47.0,108.0
1460,241.71788271458334,242.02076663333332,54.0,102.0
1461,241.33326821458334,242.02076663333332,59.0,111.0
1462,241.33326821458334,242.03518967708334,63.0,112.0
1463,241.33326821458334,242.0367922375,66.0,99.0
1464,242.10249721458334,242.30121470625,59.0,100.0
1465,242.10249721458334,242.51275268125,64.0,105.0
1466,242.10249721458334,242.56082949375002,68.0,93.0
1467,242.48711171458334,242.68582920625,59.0,80.0
1468,242.87172621458336,243.07364882708333,59.0,108.0
1469,242.87172621458336,243.3637122625,64.0,108.0
1470,242.87172621458336,243.4598658875,68.0,105.0
1471,243.25634071458336,243.54159646875001,59.0,80.0
1472,243.64095521458336,243.83646758541667,59.0,89.0
1473,243.64095521458336,244.13294126250003,64.0,102.0
1474,243.64095521458336,244.21787696458335,68.0,90.0
1475,244.02556971458336,244.2771717,59.0,84.0
1476,244.41018421458335,244.58165817916668,59.0,108.0
1477,244.41018421458335,244.83967040625,64.0,108.0
1478,244.41018421458335,244.85249088958335,68.0,99.0
1479,242.10249721458334,244.91018306458335,52.0,117.0
1480,244.79479871458335,245.02556741458335,59.0,84.0
1481,245.17941321458335,245.39896399166668,59.0,105.0
1482,245.17941321458335,245.60248916458335,63.0,99.0
1483,245.17941321458335,245.65377109791666,66.0,93.0
1484,245.56402771458335,245.80441177708335,59.0,69.0
1485,245.17941321458335,245.99671902708334,47.0,105.0
1486,245.94864221458334,246.22748772708334,59.0,108.0
1487,245.94864221458334,246.50953836041668,63.0,105.0
1488,245.94864221458334,246.5367818875,66.0,85.0
1489,246.33325671458334,246.93902455208334,54.0,72.0
1490,246.71787121458334,246.9694732,59.0,108.0
1491,246.71787121458334,247.19222909791668,63.0,109.0
1492,246.71787121458334,247.24511359166667,71.0,87.0
1493,246.71787121458334,247.34126721666667,66.0,90.0
1494,247.10248571458334,247.34928001875,59.0,67.0
1495,247.48710021458334,247.63133065208334,59.0,111.0
1496,247.10248571458334,247.74350988125002,47.0,58.0
1497,247.48710021458334,247.82043278125002,71.0,94.0
1498,247.48710021458334,247.86049679166666,66.0,109.0
1499,247.48710021458334,247.87491983541668,63.0,112.0
1500,247.87171471458333,247.97748370208336,59.0,108.0
1501,248.25632921458333,248.661777,64.0,100.0
1502,248.25632921458333,248.67299492291667,68.0,72.0
1503,248.25632921458333,248.74511014166666,61.0,90.0
1504,249.02555821458333,249.21466034375,61.0,102.0
1505,248.64094371458333,249.2290833875,56.0,45.0
1506,248.25632921458333,249.25632691458333,49.0,102.0
1507,249.02555821458333,249.31081396875,64.0,111.0
1508,249.02555821458333,249.4598520875,68.0,96.0
1509,249.41017271458333,249.68100542500002,61.0,87.0
1510,249.79478721458332,250.04959432083334,61.0,90.0
1511,249.79478721458332,250.2499143729167,64.0,108.0
1512,249.79478721458332,250.42940113958335,68.0,82.0
1513,250.17940171458332,250.43260626041666,61.0,72.0
1514,249.79478721458332,250.69702872916668,49.0,77.0
1515,250.56401621458335,250.69702872916668,61.0,99.0
1516,250.56401621458335,250.81081051875,64.0,108.0
1517,250.56401621458335,250.9806819229167,68.0,96.0
1518,250.94863071458335,251.0960662729167,61.0,93.0
1519,251.33324521458334,251.77074420833333,59.0,94.0
1520,251.33324521458334,251.79478261458334,63.0,65.0
1521,251.33324521458334,251.94221817291668,56.0,82.0
1522,252.10247421458334,252.3220249916667,56.0,99.0
1523,252.10247421458334,252.37010180416667,59.0,108.0
1524,252.10247421458334,252.40375557291668,63.0,99.0
1525,252.48708871458334,252.53196040625,63.0,38.0
1526,252.48708871458334,252.76593422708333,56.0,102.0
1527,251.33324521458334,252.78195983125,44.0,102.0
1528,251.71785971458334,252.80439567708333,51.0,50.0
1529,252.87170321458333,253.06401046458336,56.0,99.0
1530,252.87170321458333,253.13612568333335,59.0,111.0
1531,252.87170321458333,253.3220226916667,63.0,90.0
1532,253.25631771458336,253.4309968,56.0,96.0
1533,252.87170321458333,253.4983043375,44.0,102.0
1534,253.64093221458336,253.80599593750003,56.0,102.0
1535,253.64093221458336,253.91336748541667,59.0,108.0
1536,254.02554671458336,254.10727729583334,59.0,37.0
1537,253.64093221458336,254.20182836041667,44.0,109.0
1538,253.64093221458336,254.24028981041667,63.0,93.0
1539,254.02554671458336,254.31080246875,56.0,102.0
1540,254.41016121458335,254.89573702083334,64.0,97.0
1541,254.41016121458335,254.9133651854167,57.0,94.0
1542,254.41016121458335,254.96144199791667,61.0,102.0
1543,254.79477571458335,255.36368466250002,52.0,94.0
1544,255.17939021458335,255.56881239583333,57.0,100.0
1545,255.17939021458335,255.57522263750002,61.0,102.0
1546,255.17939021458335,255.57522263750002,64.0,100.0
1547,254.41016121458335,255.67778650416668,45.0,105.0
1548,255.56400471458335,255.86688863333336,52.0,97.0
1549,255.94861921458335,256.23066984791666,59.0,97.0
1550,255.94861921458335,256.4309899,63.0,77.0
1551,256.33323371458334,256.61528434791666,59.0,92.0
1552,255.94861921458335,256.62329715,66.0,85.0
1553,255.94861921458335,256.65374579791666,47.0,105.0
1554,256.71784821458334,256.9197708270833,59.0,111.0
1555,256.71784821458334,257.1072703958333,54.0,93.0
1556,256.71784821458334,257.1200908791667,63.0,112.0
1557,256.71784821458334,257.14733440625,47.0,97.0
1558,256.71784821458334,257.14893696666667,66.0,102.0
1559,257.10246271458334,257.2290649875,59.0,102.0
1560,257.48707721458334,257.892525,59.0,89.0
1561,257.48707721458334,257.90053780208336,56.0,59.0
1562,257.48707721458334,257.91816596666666,63.0,63.0
1563,257.48707721458334,258.4341904208334,44.0,105.0
1564,258.25630621458333,258.43739554166666,56.0,105.0
1565,258.25630621458333,258.48386979375,59.0,117.0
1566,257.87169171458333,258.56399781458333,51.0,96.0
1567,258.25630621458333,258.6825872854167,63.0,99.0
1568,258.64092071458333,258.71944617500003,56.0,96.0
1569,258.64092071458333,258.74668970208336,44.0,96.0
1570,259.02553521458333,259.49668797708335,64.0,92.0
1571,259.02553521458333,259.6136748875,68.0,63.0
1572,259.02553521458333,259.6216876895833,61.0,61.0
1573,259.02553521458333,259.97745610208335,49.0,109.0
1574,259.7947642145833,260.00790475,61.0,99.0
1575,259.4101497145833,260.01591755208335,56.0,93.0
1576,259.7947642145833,260.07040460625,64.0,114.0
1577,260.1793787145833,260.22745552708335,64.0,49.0
1578,259.7947642145833,260.49027543541666,68.0,102.0
1579,260.1793787145833,260.53995480833333,61.0,102.0
1580,260.5639932145833,260.9806589229167,57.0,87.0
1581,260.5639932145833,261.08001766875,61.0,55.0
1582,260.5639932145833,261.1986071395834,54.0,68.0
1583,260.5639932145833,261.36206830208334,42.0,102.0
1584,260.9486077145833,261.37809390625,49.0,50.0
1585,261.3332222145833,261.4998884979167,54.0,87.0
1586,261.3332222145833,261.53193970625,57.0,102.0
1587,261.3332222145833,261.5639909145833,61.0,57.0
1588,261.3332222145833,261.76270840625,66.0,61.0
1589,262.0960409729167,262.62328335,59.0,84.0
1590,262.08161792916667,262.89732118125,63.0,63.0
1591,262.0752076875,262.9101416645833,66.0,65.0
1592,262.85565461041665,263.8652676729167,59.0,114.0
1593,262.46462986875,263.89731888125,54.0,61.0
1594,264.0207160333333,264.5527660916667,51.0,57.0
1595,264.38609980833337,266.23545452916665,54.0,39.0
1596,262.09283585208334,266.24987757291666,47.0,102.0
1597,263.5768067979167,266.48064627291666,66.0,1.0
1598,263.2691151979167,266.5143000416667,63.0,109.0
1599,263.66975530208333,266.55917173333336,71.0,92.0
1600,266.71782521458334,267.05115778125,59.0,78.0
1601,266.71782521458334,267.08320898958334,52.0,73.0
1602,267.10243971458334,267.5880155208333,47.0,30.0
1603,267.48705421458334,267.70660499166667,56.0,89.0
1604,267.48705421458334,267.757886925,59.0,84.0
1605,267.48705421458334,267.76269460625,52.0,87.0
1606,267.87166871458334,268.03993755833335,47.0,21.0
1607,268.06397596458334,268.20820640208336,52.0,84.0
1608,268.06397596458334,268.2226294458334,59.0,80.0
1609,268.25628321458333,268.4037187729167,47.0,33.0
1610,268.44859046458333,268.6056413854167,52.0,67.0
1611,268.64089771458333,269.1392940041667,47.0,58.0
1612,269.02551221458333,269.1585247291667,56.0,94.0
1613,269.02551221458333,269.1633324104167,52.0,87.0
1614,266.71782521458334,269.1777554541667,40.0,89.0
1615,269.02551221458333,269.2033964208333,59.0,92.0
1616,269.7947412145833,270.1905736375,59.0,71.0
1617,269.7947412145833,270.2178171645833,54.0,58.0
1618,270.5639702145833,270.68416224583336,54.0,97.0
1619,270.5639702145833,270.7162134541667,63.0,79.0
1620,269.7947412145833,271.18896877708335,47.0,73.0
1621,271.1408919645834,271.3716606645834,59.0,84.0
1622,271.1408919645834,271.38127602708335,54.0,69.0
1623,271.3331992145834,271.4806347729167,47.0,51.0
1624,271.5255064645834,271.78992893333333,54.0,87.0
1625,271.91012096458337,272.05114628125,54.0,100.0
1626,272.10242821458337,272.3460173979167,59.0,108.0
1627,272.10242821458337,272.34922251875,54.0,108.0
1628,271.7178137145834,272.42133773750004,47.0,82.0
1629,272.87165721458337,273.31556645,56.0,80.0
1630,272.87165721458337,273.33319461458336,61.0,82.0
1631,273.64088621458336,273.79953969583335,56.0,89.0
1632,273.64088621458336,273.8027448166667,64.0,94.0
1633,272.87165721458337,274.26107709583334,49.0,87.0
1634,274.21780796458336,274.45498690625004,56.0,67.0
1635,274.21780796458336,274.5174867625,61.0,73.0
1636,274.60242246458336,274.8428065270833,56.0,67.0
1637,274.79472971458335,274.94537039375,61.0,42.0
1638,274.41011521458336,275.0863957104167,49.0,60.0
1639,275.17934421458335,275.39568987083334,56.0,84.0
1640,275.17934421458335,275.44697180416665,61.0,78.0
1641,275.17934421458335,275.46780508958335,64.0,84.0
1642,275.17934421458335,275.4790230125,49.0,82.0
1643,275.56395871458335,275.6969712291667,56.0,67.0
1644,275.94857321458335,276.37164916458335,61.0,87.0
1645,275.94857321458335,276.39248245,57.0,78.0
1646,276.33318771458335,276.8171609604167,52.0,48.0
1647,276.71780221458334,276.8556224104167,64.0,89.0
1648,275.94857321458335,276.86844289375,45.0,97.0
1649,276.71780221458334,276.87645569583333,57.0,97.0
1650,277.29472396458334,277.43574928125,61.0,84.0
1651,277.29472396458334,277.47581329166667,57.0,78.0
1652,277.87164571458334,278.071674525,57.0,100.0
1653,277.67933846458334,278.1252459,52.0,73.0
1654,277.48703121458334,278.16420689999995,45.0,60.0
1655,278.2616313375,278.486293275,57.0,82.0
1656,278.2616313375,278.53359052499997,61.0,94.0
1657,278.6720324416666,279.0540740520833,57.0,89.0
1658,278.2616313375,279.05583461249995,45.0,80.0
1659,278.2616313375,279.05583461249995,52.0,84.0
1660,279.6614673958333,280.80407110625,52.0,66.0
1661,279.1526654354166,282.23012504375,40.0,102.0
1662,279.42555229999994,282.25125176874997,47.0,57.0
1663,279.9730865895833,282.3920966020833,56.0,102.0
1664,280.36217044166665,282.4114627666666,59.0,80.0
