,start,end,pitch,velocity
0,29.045573712499998,29.397044124999997,61.0,117.0
1,29.3985147125,29.7514557125,61.0,117.0
2,29.7514557125,30.104396712499998,64.0,119.0
3,30.104396712499998,30.4573377125,63.0,119.0
4,30.4573377125,31.867631125,61.0,119.0
5,31.869101712499997,32.220572125,61.0,120.0
6,32.2220427125,32.5749837125,61.0,116.0
7,32.5749837125,32.9279247125,68.0,120.0
8,32.9279247125,33.280865712499995,66.0,119.0
9,33.280865712499995,34.691159125,68.0,119.0
10,34.6926297125,35.044100125,68.0,119.0
11,35.0455707125,35.398511712499996,68.0,119.0
12,35.398511712499996,35.7514527125,71.0,114.0
13,35.7514527125,36.1043937125,68.0,116.0
14,36.1043937125,36.460275887499996,66.0,117.0
15,36.4573347125,36.460275887499996,66.0,113.0
16,36.8102757125,37.163216712499995,66.0,116.0
17,37.163216712499995,37.3543930875,64.0,113.0
18,37.339687212499996,37.5161577125,63.0,107.0
19,37.5161577125,38.5749807125,61.0,116.0
20,38.5749807125,38.9279217125,59.0,104.0
21,38.9279217125,40.3396857125,56.0,107.0
22,40.3396857125,40.691156125,61.0,102.0
23,40.6926267125,41.045567712499995,61.0,94.0
24,41.045567712499995,41.398508712499996,64.0,113.0
25,41.398508712499996,41.7514497125,63.0,104.0
26,41.7514497125,43.161743125,61.0,104.0
27,43.163213712499996,43.514684124999995,61.0,107.0
28,43.5161547125,43.8690957125,61.0,104.0
29,43.8690957125,44.2220367125,68.0,113.0
30,44.2220367125,44.5749777125,66.0,114.0
31,44.5749777125,45.985271125,68.0,117.0
32,45.9867417125,46.338212125,68.0,114.0
33,46.3396827125,46.692623712499994,68.0,114.0
34,46.692623712499994,47.045564712499996,71.0,110.0
35,47.045564712499996,47.3985057125,68.0,116.0
36,47.3985057125,47.749976124999996,66.0,116.0
37,47.7514467125,48.102917125,66.0,110.0
38,48.1043877125,48.4573287125,66.0,110.0
39,48.4573287125,48.810269712499995,64.0,110.0
40,48.810269712499995,49.163210712499996,63.0,114.0
41,49.163210712499996,49.514681124999996,61.0,108.0
42,49.5161517125,49.8690927125,61.0,113.0
43,49.8690927125,50.2220337125,59.0,107.0
44,50.2220337125,51.6337977125,61.0,113.0
45,51.6337977125,51.9867387125,75.0,116.0
46,51.9867387125,52.692620712499995,73.0,117.0
47,52.692620712499995,53.045561712499996,68.0,116.0
48,53.045561712499996,53.3985027125,75.0,117.0
49,53.3985027125,54.1043847125,73.0,117.0
50,54.1043847125,54.457325712499994,68.0,107.0
51,54.457325712499994,54.810266712499995,71.0,113.0
52,54.810266712499995,55.161737124999995,73.0,113.0
53,55.1632077125,55.5161487125,73.0,108.0
54,55.5161487125,55.8690897125,70.0,110.0
55,55.8690897125,57.2808537125,68.0,113.0
56,57.2808537125,57.6337947125,75.0,117.0
57,57.6337947125,58.339676712499994,73.0,116.0
58,58.339676712499994,58.692617712499995,68.0,114.0
59,58.692617712499995,59.0455587125,75.0,116.0
60,59.0455587125,59.7514407125,73.0,117.0
61,59.7514407125,60.1043817125,68.0,108.0
62,60.1043817125,60.457322712499995,71.0,108.0
63,60.457322712499995,60.808793124999994,73.0,117.0
64,60.810263712499996,61.1632047125,73.0,114.0
65,61.1632047125,61.5161457125,70.0,113.0
66,61.5161457125,62.927909712499996,68.0,116.0
67,62.927909712499996,63.279380124999996,66.0,114.0
68,63.2808507125,63.9867327125,66.0,108.0
69,63.9867327125,64.3396737125,61.0,113.0
70,64.3396737125,64.691144125,66.0,116.0
71,64.6926147125,65.39849671249999,66.0,116.0
72,65.39849671249999,65.75143771249999,69.0,119.0
73,65.75143771249999,66.1043787125,68.0,114.0
74,66.1043787125,66.455849125,66.0,113.0
75,66.4573197125,66.8102607125,66.0,113.0
76,66.8102607125,67.1632017125,64.0,116.0
77,67.1632017125,68.573495125,66.0,116.0
78,68.5749657125,68.926436125,66.0,114.0
79,68.92790671249999,69.63378871249999,66.0,110.0
80,69.63378871249999,69.9867297125,61.0,102.0
81,69.9867297125,70.338200125,64.0,116.0
82,70.3396707125,71.0455527125,64.0,116.0
83,71.0455527125,71.3984937125,66.0,113.0
84,71.3984937125,71.7514347125,63.0,114.0
85,71.7514347125,72.10290512499999,61.0,108.0
86,72.1043757125,72.4573167125,61.0,113.0
87,72.4573167125,72.81025771249999,59.0,113.0
88,72.81025771249999,74.2220217125,61.0,114.0
89,74.2220217125,74.5749627125,75.0,116.0
90,74.5749627125,75.2808447125,73.0,117.0
91,75.2808447125,75.6337857125,68.0,116.0
92,75.6337857125,75.9867267125,75.0,117.0
93,75.9867267125,76.69260871249999,73.0,117.0
94,76.69260871249999,77.04554971249999,68.0,107.0
95,77.04554971249999,77.39849071249999,71.0,113.0
96,77.39849071249999,77.749961125,73.0,113.0
97,77.7514317125,78.1043727125,73.0,108.0
98,78.1043727125,78.4573137125,70.0,110.0
99,78.4573137125,79.8690777125,68.0,113.0
100,79.8690777125,80.2220187125,75.0,117.0
101,80.2220187125,80.92790071249999,73.0,116.0
102,80.92790071249999,81.28084171249999,68.0,114.0
103,81.28084171249999,81.6337827125,75.0,116.0
104,81.6337827125,82.3396647125,73.0,117.0
105,82.3396647125,82.6926057125,68.0,108.0
106,82.6926057125,83.0455467125,71.0,108.0
107,83.0455467125,83.39701712499999,73.0,117.0
108,83.3984877125,83.7514287125,73.0,114.0
109,83.7514287125,84.1043697125,70.0,113.0
110,84.1043697125,85.5161337125,68.0,116.0
111,85.5161337125,85.867604125,66.0,114.0
112,85.8690747125,86.5749567125,66.0,108.0
113,86.5749567125,86.9278977125,61.0,113.0
114,86.9278977125,87.27936812499999,66.0,116.0
115,87.2808387125,87.9867207125,66.0,116.0
116,87.9867207125,88.33966171249999,69.0,119.0
117,88.33966171249999,88.69260271249999,68.0,114.0
118,88.69260271249999,89.044073125,66.0,113.0
119,89.04554371249999,89.3984847125,66.0,113.0
120,89.3984847125,89.7514257125,64.0,116.0
121,89.7514257125,91.16171912499999,66.0,116.0
122,91.1631897125,91.51466012499999,66.0,114.0
123,91.5161307125,92.22201271249999,66.0,110.0
124,92.22201271249999,92.57495371249999,61.0,102.0
125,92.57495371249999,92.926424125,64.0,116.0
126,92.92789471249999,93.6337767125,64.0,116.0
127,93.6337767125,93.9867177125,66.0,113.0
128,93.9867177125,94.3396587125,63.0,114.0
129,94.3396587125,94.69112912499999,61.0,108.0
130,94.6925997125,95.0455407125,61.0,113.0
131,95.0455407125,95.3984817125,59.0,113.0
132,95.3984817125,96.10436371249999,61.0,114.0
133,120.8102337125,121.161704125,61.0,117.0
134,121.1631747125,121.5161157125,61.0,117.0
135,121.5161157125,121.8690567125,64.0,119.0
136,121.8690567125,122.2219977125,63.0,119.0
137,122.2219977125,123.632291125,61.0,119.0
138,123.63376171249999,123.985232125,61.0,120.0
139,123.98670271249999,124.33964371249999,61.0,116.0
140,124.33964371249999,124.6925847125,68.0,120.0
141,124.6925847125,125.0455257125,66.0,119.0
142,125.0455257125,126.45581912499999,68.0,119.0
143,126.4572897125,126.80876012499999,68.0,119.0
144,126.8102307125,127.16317171249999,68.0,119.0
145,127.16317171249999,127.51611271249999,71.0,114.0
146,127.51611271249999,127.86905371249999,68.0,116.0
147,127.86905371249999,128.22493588749998,66.0,117.0
148,128.2219947125,128.22493588749998,66.0,113.0
149,128.5749357125,128.9278767125,66.0,116.0
150,128.9278767125,129.1190530875,64.0,113.0
151,129.1043472125,129.28081771249998,63.0,107.0
152,129.28081771249998,130.3396407125,61.0,116.0
153,130.3396407125,130.6925817125,59.0,104.0
154,130.6925817125,132.1043457125,56.0,107.0
155,132.1043457125,132.45581612499998,61.0,102.0
156,132.4572867125,132.8102277125,61.0,94.0
157,132.8102277125,133.16316871249998,64.0,113.0
158,133.16316871249998,133.5161097125,63.0,104.0
159,133.5161097125,134.926403125,61.0,104.0
160,134.9278737125,135.279344125,61.0,107.0
161,135.2808147125,135.6337557125,61.0,104.0
162,135.6337557125,135.9866967125,68.0,113.0
163,135.9866967125,136.3396377125,66.0,114.0
164,136.3396377125,137.749931125,68.0,117.0
165,137.75140171249998,138.102872125,68.0,114.0
166,138.1043427125,138.4572837125,68.0,114.0
167,138.4572837125,138.8102247125,71.0,110.0
168,138.8102247125,139.1631657125,68.0,116.0
169,139.1631657125,139.51463612499998,66.0,116.0
170,139.5161067125,139.867577125,66.0,110.0
171,139.8690477125,140.2219887125,66.0,110.0
172,140.2219887125,140.5749297125,64.0,110.0
173,140.5749297125,140.92787071249998,63.0,114.0
174,140.92787071249998,141.279341125,61.0,108.0
175,141.2808117125,141.63375271249998,61.0,113.0
176,141.63375271249998,141.9866937125,59.0,107.0
177,141.9866937125,143.3984577125,61.0,113.0
178,143.3984577125,143.7513987125,75.0,116.0
179,143.7513987125,144.4572807125,73.0,117.0
180,144.4572807125,144.81022171249998,68.0,116.0
181,144.81022171249998,145.1631627125,75.0,117.0
182,145.1631627125,145.8690447125,73.0,117.0
183,145.8690447125,146.2219857125,68.0,107.0
184,146.2219857125,146.5749267125,71.0,113.0
185,146.5749267125,146.926397125,73.0,113.0
186,146.9278677125,147.2808087125,73.0,108.0
187,147.2808087125,147.6337497125,70.0,110.0
188,147.6337497125,149.0455137125,68.0,113.0
189,149.0455137125,149.39845471249998,75.0,117.0
190,149.39845471249998,150.1043367125,73.0,116.0
191,150.1043367125,150.4572777125,68.0,114.0
192,150.4572777125,150.8102187125,75.0,116.0
193,150.8102187125,151.5161007125,73.0,117.0
194,151.5161007125,151.8690417125,68.0,108.0
195,151.8690417125,152.2219827125,71.0,108.0
196,152.2219827125,152.573453125,73.0,117.0
197,152.57492371249998,152.9278647125,73.0,114.0
198,152.9278647125,153.28080571249998,70.0,113.0
199,153.28080571249998,154.6925697125,68.0,116.0
200,154.6925697125,155.04404012499998,66.0,114.0
201,155.0455107125,155.7513927125,66.0,108.0
202,155.7513927125,156.1043337125,61.0,113.0
203,156.1043337125,156.455804125,66.0,116.0
204,156.45727471249998,157.16315671249998,66.0,116.0
205,157.16315671249998,157.5160977125,69.0,119.0
206,157.5160977125,157.8690387125,68.0,114.0
207,157.8690387125,158.220509125,66.0,113.0
208,158.2219797125,158.5749207125,66.0,113.0
209,158.5749207125,158.9278617125,64.0,116.0
210,158.9278617125,160.338155125,66.0,116.0
211,160.33962571249998,160.691096125,66.0,114.0
212,160.6925667125,161.3984487125,66.0,110.0
213,161.3984487125,161.75138971249999,61.0,102.0
214,161.75138971249999,162.102860125,64.0,116.0
215,162.1043307125,162.8102127125,64.0,116.0
216,162.8102127125,163.1631537125,66.0,113.0
217,163.1631537125,163.5160947125,63.0,114.0
218,163.5160947125,163.867565125,61.0,108.0
219,163.8690357125,164.22197671249998,61.0,113.0
220,164.22197671249998,164.5749177125,59.0,113.0
221,164.5749177125,165.9866817125,61.0,114.0
222,165.9866817125,166.3396227125,75.0,116.0
223,166.3396227125,167.0455047125,73.0,117.0
224,167.0455047125,167.3984457125,68.0,116.0
225,167.3984457125,167.7513867125,75.0,117.0
226,167.7513867125,168.4572687125,73.0,117.0
227,168.4572687125,168.81020971249998,68.0,107.0
228,168.81020971249998,169.1631507125,71.0,113.0
229,169.1631507125,169.514621125,73.0,113.0
230,169.51609171249999,169.8690327125,73.0,108.0
231,169.8690327125,170.2219737125,70.0,110.0
232,170.2219737125,171.6337377125,68.0,113.0
233,171.6337377125,171.98667871249998,75.0,117.0
234,171.98667871249998,172.69256071249998,73.0,116.0
235,172.69256071249998,173.0455017125,68.0,114.0
236,173.0455017125,173.39844271249999,75.0,116.0
237,173.39844271249999,174.1043247125,73.0,117.0
238,174.1043247125,174.4572657125,68.0,108.0
239,174.4572657125,174.8102067125,71.0,108.0
240,174.8102067125,175.16167712499998,73.0,117.0
241,175.1631477125,175.5160887125,73.0,114.0
242,175.5160887125,175.86902971249998,70.0,113.0
243,175.86902971249998,177.28079371249999,68.0,116.0
244,177.28079371249999,177.632264125,66.0,114.0
245,177.6337347125,178.3396167125,66.0,108.0
246,178.3396167125,178.6925577125,61.0,113.0
247,178.6925577125,179.04402812499998,66.0,116.0
248,179.0454987125,179.75138071249998,66.0,116.0
249,179.75138071249998,180.1043217125,69.0,119.0
250,180.1043217125,180.45726271249998,68.0,114.0
251,180.45726271249998,180.808733125,66.0,113.0
252,180.8102037125,181.16314471249999,66.0,113.0
253,181.16314471249999,181.5160857125,64.0,116.0
254,181.5160857125,182.92637912499998,66.0,116.0
255,182.9278497125,183.279320125,66.0,114.0
256,183.2807907125,183.9866727125,66.0,110.0
257,183.9866727125,184.33961371249998,61.0,102.0
258,184.33961371249998,184.691084125,64.0,116.0
259,184.6925547125,185.3984367125,64.0,116.0
260,185.3984367125,185.7513777125,66.0,113.0
261,185.7513777125,186.1043187125,63.0,114.0
262,186.1043187125,186.455789125,61.0,108.0
263,186.4572597125,186.81020071249998,61.0,113.0
264,186.81020071249998,187.1631417125,59.0,113.0
265,187.1631417125,187.8690237125,61.0,114.0
