,start,end,pitch,velocity
0,14.228557200000003,15.098199187500002,73.0,91.0
1,15.085699200000002,15.589270125000002,75.0,97.0
2,15.514270200000002,15.998198287500003,85.0,94.0
3,15.942841200000002,17.667839475,82.0,89.0
4,17.657125200000003,18.564267150000003,80.0,84.0
5,18.514267200000003,18.9839095875,78.0,82.0
6,18.942838200000004,19.378552050000003,77.0,82.0
7,19.371409200000002,21.089264625000002,75.0,86.0
8,21.0856932,21.891049537500002,80.0,91.0
9,21.942835200000005,22.394620462500004,78.0,84.0
10,22.371406200000003,22.862477137500004,85.0,85.0
11,22.799977200000004,23.662476337500003,82.0,84.0
12,23.657119200000004,24.54997545,80.0,82.0
13,24.514261200000004,27.882114975000004,82.0,83.0
14,27.942829200000002,28.616042812500005,73.0,97.0
15,28.799971200000005,29.212470787500003,75.0,97.0
16,29.228542200000003,29.614256100000002,85.0,87.0
17,29.657113200000005,31.135683150000006,82.0,94.0
18,31.371397200000004,32.032110825000004,80.0,84.0
19,32.22853920000001,32.594610262500005,78.0,85.0
20,32.657110200000005,33.06425265000001,77.0,85.0
21,33.0856812,34.6124653875,75.0,96.0
22,34.7999652,35.562464437500005,73.0,87.0
23,35.657107200000006,36.046392525,75.0,94.0
24,36.085678200000004,36.4088921625,78.0,87.0
25,36.5142492,37.33031981250001,78.0,91.0
26,37.371391200000005,38.19639037500001,85.0,91.0
27,39.085675200000004,39.873174412500006,65.0,75.0
28,39.085675200000004,39.90531723750001,68.0,74.0
29,39.94281720000001,40.74103068750001,66.0,73.0
30,39.94281720000001,40.7428164,63.0,72.0
31,38.22853320000001,41.34638722500001,87.0,83.0
32,40.7999592,41.649958350000006,68.0,76.0
33,40.7999592,41.65174406250001,65.0,76.0
34,41.65710120000001,42.421386150000004,66.0,71.0
35,41.65710120000001,42.47495752500001,70.0,76.0
36,42.5142432,43.24995675,65.0,79.0
37,42.5142432,43.34817093750001,68.0,76.0
38,43.371385200000006,44.05352737500001,63.0,74.0
39,43.371385200000006,44.167812975000004,66.0,71.0
40,44.22852720000001,45.1088834625,65.0,72.0
41,44.22852720000001,45.110669175000005,68.0,73.0
42,56.228515200000004,56.66780047500001,73.0,84.0
43,56.65708620000001,57.114228600000004,75.0,87.0
44,57.08565720000001,57.52494247500001,77.0,85.0
45,57.514228200000005,57.989227725000006,68.0,80.0
46,57.94279920000001,58.43387013750001,73.0,82.0
47,58.37137020000001,58.81958403750001,71.0,81.0
48,58.799941200000006,60.13208272500001,66.0,76.0
49,58.799941200000006,60.51779662500001,70.0,76.0
50,60.514225200000006,61.41958143750001,73.0,81.0
51,61.37136720000001,62.18386638750001,68.0,76.0
52,62.228509200000005,63.73386483750001,70.0,81.0
53,63.94279320000001,64.40886416250001,75.0,81.0
54,64.3713642,64.79457806250001,73.0,82.0
55,64.79993520000001,65.58922012500001,70.0,71.0
56,66.08564820000001,67.41957543750001,66.0,74.0
57,65.6570772,67.59278955,71.0,87.0
58,66.51421920000001,68.27850315,75.0,80.0
59,67.79993220000001,68.324931675,66.0,69.0
60,68.2285032,68.8338597375,71.0,82.0
61,68.65707420000001,69.16243083750001,66.0,74.0
62,69.08564520000002,69.6195732375,75.0,81.0
63,69.94278720000001,70.42492957500001,77.0,69.0
64,69.5142162,70.94457191250001,70.0,73.0
65,71.22850020000001,71.6570712,73.0,77.0
66,70.79992920000001,71.6570712,78.0,80.0
67,71.6570712,72.08564220000001,77.0,77.0
68,72.08564220000001,72.51421320000001,73.0,81.0
69,73.37135520000001,74.16599726250001,82.0,72.0
70,72.9427842,74.18206867500001,73.0,68.0
71,72.51421320000001,74.19278295000001,78.0,71.0
72,74.65706820000001,75.5409958875,73.0,67.0
73,74.2284972,75.58385298750001,77.0,76.0
74,75.0856392,75.93206692500002,80.0,75.0
75,76.3713522,77.54992245000001,68.0,70.0
76,75.94278120000001,77.66599376250001,75.0,81.0
77,76.79992320000001,77.717779425,80.0,70.0
78,78.29992170000001,78.503492925,75.0,26.0
79,78.08563620000001,78.7124212875,70.0,71.0
80,78.9427782,79.24099218750001,70.0,73.0
81,78.51420720000002,79.24992075000002,78.0,76.0
82,79.37134920000001,80.97134760000002,75.0,82.0
83,81.0856332,81.57848985000001,73.0,76.0
84,81.51420420000001,82.74277440000002,70.0,75.0
85,83.22848820000002,83.7427734,68.0,68.0
86,81.94277520000001,83.84455901250001,73.0,76.0
87,83.6570592,84.18920152500002,77.0,81.0
88,84.08563020000001,84.56062972500001,75.0,81.0
89,84.51420120000002,84.8284866,68.0,72.0
90,84.51420120000002,85.16598626250001,73.0,76.0
91,85.37134320000001,85.83205702500001,73.0,76.0
92,84.94277220000001,85.86241413750001,68.0,80.0
93,85.79991420000002,86.324913675,71.0,73.0
94,86.22848520000001,87.89455496250001,70.0,71.0
95,87.94276920000001,89.31955353750001,68.0,72.0
96,87.94276920000001,89.35348207500002,73.0,74.0
97,89.65705320000001,90.59990940000002,70.0,73.0
98,89.65705320000001,91.13205172500001,75.0,80.0
99,90.51419520000002,91.37312291250001,78.0,78.0
100,91.37133720000001,92.85883571250001,75.0,83.0
101,93.0856212,94.61240538750002,71.0,80.0
102,93.94276320000002,94.61597681250001,75.0,78.0
103,93.51419220000001,94.89990510000001,66.0,76.0
104,94.79990520000001,95.23383333750002,75.0,82.0
105,95.22847620000002,96.01954683750002,71.0,80.0
106,95.65704720000001,96.48204637500001,78.0,75.0
107,96.51418920000002,97.44097398750002,75.0,81.0
108,96.94276020000001,97.44454541250002,70.0,78.0
109,97.37133120000001,97.88561640000002,78.0,82.0
110,97.79990220000002,98.27311601250001,77.0,81.0
111,98.22847320000001,98.94811533750001,75.0,83.0
112,99.0856152,99.89811438750002,73.0,80.0
113,99.0856152,99.90882866250001,77.0,83.0
114,99.94275720000002,100.75882781250002,75.0,81.0
115,99.94275720000002,100.75882781250002,78.0,79.0
116,100.79989920000001,101.13204172500001,80.0,81.0
117,100.79989920000001,101.14097028750001,77.0,78.0
118,101.22847020000002,101.65704120000001,78.0,72.0
119,101.22847020000002,101.65704120000001,82.0,84.0
120,101.65704120000001,102.15168356250001,78.0,97.0
121,102.08561220000001,102.51239748750001,80.0,89.0
122,102.51418320000002,103.02668268750001,82.0,84.0
123,102.94275420000001,103.38739661250001,85.0,97.0
124,103.37132520000002,104.22846720000001,87.0,89.0
125,104.22846720000001,104.61239538750002,87.0,86.0
126,104.65703820000002,105.11775202500002,85.0,97.0
127,105.08560920000001,105.94275120000002,87.0,89.0
128,105.94275120000002,106.37132220000001,90.0,94.0
129,106.37132220000001,106.78025036250001,89.0,91.0
130,106.79989320000001,107.69096373750001,87.0,87.0
131,107.65703520000001,108.54274860000001,85.0,109.0
132,108.51417720000002,109.37131920000002,82.0,91.0
133,109.37131920000002,110.14631842500002,85.0,96.0
134,110.22846120000001,110.63024651250001,85.0,106.0
135,110.65703220000002,110.99810328750002,87.0,87.0
136,111.08560320000001,111.53917417500001,87.0,87.0
137,111.53917417500001,111.99274515000002,85.0,87.0
138,111.94274520000002,112.79988720000001,87.0,87.0
139,112.79988720000001,113.18024396250001,85.0,87.0
140,113.22845820000002,113.64452921250002,82.0,84.0
141,114.52667118750001,114.61417110000002,77.0,75.0
142,114.65702820000001,114.76417095000002,78.0,75.0
143,114.76417095000002,114.98738501250001,77.0,75.0
144,114.96595646250002,115.27488472500002,75.0,75.0
145,115.61595581250002,115.79631277500002,70.0,75.0
146,115.79631277500002,116.02131255000002,66.0,75.0
147,116.01059827500002,116.11774102500002,65.0,75.0
148,116.24452661250001,116.75524038750001,63.0,73.0
149,113.65702920000001,117.08559720000001,85.0,87.0
150,117.08559720000001,117.83381073750002,80.0,94.0
151,117.94273920000002,118.37488162500001,80.0,86.0
152,118.37131020000001,118.82845260000002,78.0,83.0
153,118.79988120000002,119.71952313750002,80.0,91.0
154,119.65702320000001,120.12309416250001,85.0,87.0
155,120.08559420000002,120.54273660000001,82.0,87.0
156,120.51416520000002,121.37130720000002,80.0,96.0
157,121.37130720000002,122.22844920000001,78.0,89.0
158,122.22844920000001,123.05880551250002,80.0,91.0
159,123.08559120000001,123.96059032500001,82.0,91.0
160,123.94273320000002,125.21951763750002,75.0,106.0
161,125.48558880000002,125.60701725000001,82.0,81.0
162,125.58558870000002,125.64987435000002,84.0,75.0
163,125.58023156250002,125.71773142500001,85.0,76.0
164,125.65523148750002,127.32665838750002,87.0,91.0
165,127.37130120000002,127.79987220000001,75.0,93.0
166,127.79987220000001,128.25701460000002,73.0,89.0
167,128.22844320000002,128.66951418750003,75.0,106.0
168,128.65701420000002,129.0445138125,85.0,97.0
169,129.08558520000003,130.79986920000002,82.0,85.0
170,130.76772637500002,130.95701190000003,80.0,85.0
171,130.94094048750003,131.09986890000002,82.0,75.0
172,131.09451176250002,131.22129735000001,80.0,81.0
173,131.21594021250002,131.3266543875,82.0,75.0
174,131.32844010000002,131.432011425,80.0,73.0
175,131.42129715000002,131.532011325,82.0,74.0
176,131.52665418750001,131.63915407500002,80.0,76.0
177,131.63379693750002,131.72843970000002,82.0,75.0
178,131.732011125,131.82665388750002,80.0,79.0
179,131.82665388750002,131.91058237500002,82.0,75.0
180,131.91772522500003,132.00701085000003,80.0,80.0
181,132.00165371250003,132.09451076250002,82.0,80.0
182,132.10522503750002,132.18379638750002,80.0,82.0
183,132.17843925000003,132.274867725,82.0,81.0
184,132.29451056250002,132.3695104875,80.0,81.0
185,132.36772477500003,132.46058182500002,82.0,76.0
186,132.48736751250001,132.56058172500002,80.0,73.0
187,132.57129600000002,132.65701020000003,82.0,72.0
188,132.65522448750002,132.7409386875,80.0,72.0
189,132.76058152500002,132.84986715000002,82.0,72.0
190,132.85522428750002,132.946295625,80.0,69.0
191,132.946295625,133.16058112500002,82.0,72.0
192,133.12843830000003,133.274866725,80.0,80.0
193,133.296295275,133.43200942500002,82.0,75.0
194,133.4409379875,133.54808073750002,80.0,74.0
195,133.56415215,133.6695091875,82.0,65.0
196,133.674866325,133.77129480000002,80.0,67.0
197,133.7909376375,133.8855804,82.0,71.0
198,133.89272325000002,133.97308031250003,80.0,66.0
199,133.99808028750002,134.07129450000002,82.0,69.0
200,134.09272305000002,134.1802229625,80.0,67.0
201,134.18736581250002,134.27665143750002,82.0,72.0
202,134.27665143750002,134.36593706250002,80.0,68.0
203,134.37665133750002,134.45522268750003,82.0,71.0
204,134.46593696250002,134.54986545000003,80.0,67.0
205,134.56593686250002,134.64986535000003,82.0,72.0
206,134.66057962500003,134.74807953750002,80.0,73.0
207,134.774865225,134.84450801250003,82.0,69.0
208,134.84807943750002,134.93200792500002,80.0,72.0
209,134.94450791250003,135.03379353750003,82.0,73.0
210,135.03736496250002,135.1302220125,80.0,75.0
211,135.13915057500003,135.22486477500001,82.0,76.0
212,135.2302219125,135.317721825,80.0,76.0
213,135.3302218125,135.41950743750002,82.0,75.0
214,135.41415030000002,135.50700735,80.0,79.0
215,135.5123644875,135.60700725,82.0,73.0
216,135.60700725,135.70343572500002,80.0,75.0
217,135.70700715,135.8016499125,82.0,74.0
218,135.80700705,135.896292675,80.0,72.0
219,135.9016498125,135.98736401250002,82.0,73.0
220,135.9909354375,137.47486252500002,80.0,81.0
221,148.7998512,149.239136475,73.0,84.0
222,149.2284222,149.68556460000002,75.0,87.0
223,149.65699320000002,150.09627847500002,77.0,85.0
224,150.08556420000002,150.560563725,68.0,80.0
225,150.51413520000003,151.0052061375,73.0,82.0
226,150.94270620000003,151.39092003750002,71.0,81.0
227,151.3712772,152.703418725,66.0,76.0
228,151.3712772,153.08913262500002,70.0,76.0
229,153.08556120000003,153.99091743750003,73.0,81.0
230,153.9427032,154.75520238750002,68.0,76.0
231,154.79984520000002,156.30520083750002,70.0,81.0
232,156.5141292,156.9802001625,75.0,81.0
233,156.94270020000002,157.36591406250002,73.0,82.0
234,157.37127120000002,158.16055612500003,70.0,71.0
235,158.6569842,159.99091143750002,66.0,74.0
236,158.22841320000003,160.16412555000002,71.0,87.0
237,159.08555520000002,160.84983915,75.0,80.0
238,160.37126820000003,160.89626767500002,66.0,69.0
239,160.7998392,161.4051957375,71.0,82.0
240,161.2284102,161.7337668375,66.0,74.0
241,161.65698120000002,162.19090923750002,75.0,81.0
242,162.51412320000003,162.99626557500002,77.0,69.0
243,162.08555220000002,163.5159079125,70.0,73.0
244,163.79983620000002,164.22840720000002,73.0,77.0
245,163.3712652,164.22840720000002,78.0,80.0
246,164.22840720000002,164.65697820000003,77.0,77.0
247,164.65697820000003,165.08554920000003,73.0,81.0
248,165.9426912,166.73733326250002,82.0,72.0
249,165.5141202,166.753404675,73.0,68.0
250,165.08554920000003,166.76411895,78.0,71.0
251,167.22840420000003,168.11233188750003,73.0,67.0
252,166.79983320000002,168.15518898750003,77.0,76.0
253,167.65697520000003,168.50340292500002,80.0,75.0
254,168.94268820000002,170.12125845000003,68.0,70.0
255,168.51411720000002,170.23732976250002,75.0,81.0
256,169.37125920000003,170.28911542500003,80.0,70.0
257,170.87125770000003,171.07482892500002,75.0,26.0
258,170.6569722,171.2837572875,70.0,71.0
259,171.51411420000002,171.81232818750001,70.0,73.0
260,171.08554320000002,171.82125675000003,78.0,76.0
261,171.94268520000003,173.54268360000003,75.0,82.0
262,173.65696920000002,174.14982585,73.0,76.0
263,174.08554020000003,175.31411040000003,70.0,75.0
264,175.79982420000002,176.31410940000004,68.0,68.0
265,174.51411120000003,176.41589501250002,73.0,76.0
266,176.22839520000002,176.76053752500002,77.0,81.0
267,176.65696620000003,177.13196572500001,75.0,81.0
268,177.08553720000003,177.39982260000002,68.0,72.0
269,177.08553720000003,177.73732226250002,73.0,76.0
270,177.94267920000001,178.403393025,73.0,76.0
271,177.5141082,178.43375013750003,68.0,80.0
272,178.37125020000002,178.8955375416667,71.0,73.0
273,178.7994524166667,180.4595898541667,70.0,71.0
274,180.5076324166667,181.87951447916672,68.0,72.0
275,180.5076324166667,181.91332220833337,73.0,74.0
276,182.2158124166667,183.1553114166667,70.0,73.0
277,182.2158124166667,183.68555895833336,75.0,80.0
278,183.0699024166667,183.92577177083336,78.0,78.0
279,183.9239924166667,185.40619443750003,75.0,83.0
280,185.6321724166667,187.1535202291667,71.0,80.0
281,186.4862624166667,187.15707893750005,75.0,78.0
282,186.0592174166667,187.43999625000004,66.0,76.0
283,187.3403524166667,187.7727354791667,75.0,82.0
284,187.7673974166667,188.55565131250003,71.0,80.0
285,188.1944424166667,189.0165040416667,78.0,75.0
286,189.03429758333337,189.7905231041667,87.0,97.0
287,189.9132985416667,190.3243293541667,87.0,94.0
288,190.3189912916667,190.62148150000004,90.0,91.0
289,190.75315370833337,191.63571337500002,90.0,94.0
290,191.6054643541667,191.85126320416668,87.0,96.0
291,191.8405489291667,191.9459059666667,90.0,91.0
292,191.9405488291667,192.0530487166667,87.0,81.0
293,192.0298344541667,192.4798340041667,85.0,85.0
294,192.4476911791667,193.3048331791667,87.0,97.0
295,193.3119760291667,193.7655470041667,87.0,94.0
296,193.72268990416669,194.1351894916667,89.0,97.0
297,194.1209037916667,194.58876046666668,90.0,91.0
298,194.5476890791667,194.9857454416667,89.0,96.0
299,194.9893296666667,195.44731101250002,87.0,89.0
300,195.43651966250002,195.8825621291667,85.0,94.0
301,195.88076357083335,198.45498296458337,87.0,87.0
302,198.4106567666667,199.2947752416667,90.0,84.0
303,199.25477530000003,202.89207695833335,92.0,94.0
304,203.3674802125,204.11926517499998,66.0,84.0
305,204.2281936375,204.7210502875,66.0,81.0
306,203.81569405,204.80140735,73.0,81.0
307,205.1031927625,206.362120075,68.0,82.0
308,205.526406625,206.42997714999998,77.0,81.0
309,206.7799768,208.1281897375,68.0,78.0
310,207.2389049125,208.1960468125,75.0,81.0
311,208.4942608,209.0460459625,70.0,74.0
312,209.35854565,209.719259575,70.0,76.0
313,208.91568895,209.819259475,78.0,81.0
314,209.79425949999998,211.3674722125,75.0,83.0
315,211.912114525,212.8496135875,70.0,76.0
316,211.4781863875,212.88711354999998,73.0,81.0
317,212.35497122499999,213.00139915,78.0,75.0
318,213.1996132375,213.890683975,77.0,82.0
319,214.09782662499998,214.53711189999999,73.0,84.0
320,214.526397625,214.983540025,75.0,87.0
321,214.954968625,215.3942539,77.0,85.0
322,215.383539625,215.85853914999998,68.0,80.0
323,215.812110625,216.3031815625,73.0,82.0
324,216.240681625,216.6888954625,71.0,81.0
325,216.66925262499998,218.00139415,66.0,76.0
326,216.66925262499998,218.38710805,70.0,76.0
327,218.383536625,219.2888928625,73.0,81.0
328,219.240678625,220.0531778125,68.0,76.0
329,220.097820625,221.6031762625,70.0,81.0
330,221.812104625,222.2781755875,75.0,81.0
331,222.240675625,222.6638894875,73.0,82.0
332,222.669246625,223.45853155,70.0,71.0
333,223.954959625,225.2888868625,66.0,74.0
334,223.52638862499998,225.462100975,71.0,87.0
335,224.383530625,226.14781457499998,75.0,80.0
336,225.669243625,226.1942431,66.0,69.0
337,226.09781462499998,226.70317116249998,71.0,82.0
338,226.526385625,227.0317422625,66.0,74.0
339,226.954956625,227.4888846625,75.0,81.0
340,227.812098625,228.294241,77.0,69.0
341,227.383527625,228.8138833375,70.0,73.0
342,229.097811625,229.526382625,73.0,77.0
343,228.669240625,229.526382625,78.0,80.0
344,229.526382625,229.954953625,77.0,77.0
345,229.954953625,230.383524625,73.0,81.0
346,230.383524625,231.71566615,66.0,76.0
347,230.383524625,232.10138005,70.0,76.0
348,232.097808625,233.0031648625,73.0,81.0
349,232.954950625,233.7674498125,68.0,76.0
350,233.812092625,235.3174482625,70.0,81.0
351,235.526376625,235.9924475875,75.0,81.0
352,235.954947625,236.3781614875,73.0,82.0
353,236.383518625,237.17280355,70.0,71.0
354,237.676374475,239.00315886250002,66.0,74.0
355,237.2495891875,239.176372975,71.0,87.0
356,238.09780262499999,239.862086575,75.0,80.0
357,239.562086875,239.9085151,66.0,69.0
358,240.026372125,240.4174431625,71.0,82.0
359,240.38708605,240.69601431249998,66.0,74.0
360,240.78708565,241.3210136875,75.0,81.0
361,241.64422765,242.126370025,77.0,69.0
362,241.21565665,242.6460123625,70.0,73.0
363,242.92994065,243.35851165,73.0,77.0
364,242.50136965000002,243.35851165,78.0,80.0
365,243.35851165,243.78708265,77.0,77.0
366,243.78708265,244.21565365,73.0,81.0
367,244.6995817375,245.154938425,70.0,69.0
368,245.13350987500002,245.5656523,73.0,76.0
369,245.554938025,245.8460091625,75.0,77.0
370,245.983509025,246.4513657,78.0,77.0
371,246.419222875,246.8781509875,80.0,77.0
372,246.8567224375,247.6674359125,82.0,79.0
373,247.7638643875,248.633506375,73.0,91.0
374,248.6210063875,249.1245773125,75.0,97.0
375,249.0495773875,249.533505475,85.0,94.0
376,249.4781483875,251.204932375,82.0,89.0
377,251.1924323875,252.10136004999998,80.0,84.0
378,252.0495743875,252.5210024875,78.0,82.0
379,252.4781453875,252.9138592375,77.0,82.0
380,252.9067163875,254.626357525,75.0,86.0
381,254.6210003875,255.426356725,80.0,91.0
382,255.4781423875,255.9317133625,78.0,84.0
383,255.9067133875,256.3995700375,85.0,85.0
384,256.3352843875,257.197783525,82.0,84.0
385,257.1924263875,258.0852826375,80.0,82.0
386,258.0495683875,261.4174221625,82.0,83.0
387,261.4781363875,262.1531357125,73.0,97.0
388,262.3352783875,262.747777975,75.0,97.0
389,262.7638493875,263.1495632875,85.0,87.0
390,263.1924203875,264.67277605,82.0,94.0
391,264.9067043875,265.5674180125,80.0,84.0
392,265.7638463875,266.1317031625,78.0,85.0
393,266.1924173875,266.5995598375,77.0,85.0
394,266.6209883875,268.1495582875,75.0,96.0
395,268.4888436625,269.5745568625,85.0,97.0
396,269.5316997625,270.140627725,87.0,91.0
397,270.0995563375,270.3959846125,90.0,91.0
398,270.5745558625,271.6031262625,90.0,96.0
399,271.6352690875,272.9066963875,85.0,91.0
400,272.8852678375,277.0924064875,87.0,85.0
