,start,end,pitch,velocity
0,14.091057337500002,14.387485612500003,61.0,63.0
1,14.144628712500001,14.482128375000002,66.0,71.0
2,14.174985825000002,14.594628262500002,42.0,72.0
3,14.237485762500002,14.623199662500001,70.0,66.0
4,15.092842050000002,15.589270125000002,41.0,75.0
5,15.030342112500001,15.635698650000002,61.0,68.0
6,15.207127650000002,15.717841425000001,68.0,53.0
7,15.076770637500003,15.817841325000002,65.0,73.0
8,15.916055512500002,16.210698075000003,63.0,67.0
9,15.939269775000001,16.399983600000002,66.0,73.0
10,15.933912637500002,16.917840225000003,39.0,78.0
11,16.828554600000004,17.253554175,66.0,67.0
12,16.382126475000003,17.285697000000003,63.0,65.0
13,16.833911737500003,17.3589112125,70.0,69.0
14,18.074981925000003,18.680338462500004,56.0,80.0
15,18.412481587500004,18.707124150000002,59.0,64.0
16,18.4446244125,18.801766912500003,63.0,67.0
17,18.524981475000004,18.857124000000002,68.0,67.0
18,17.651768062500004,18.917838225000004,44.0,80.0
19,19.249980750000002,19.433909137500002,58.0,60.0
20,19.335694950000004,19.855337287500003,63.0,67.0
21,19.366052062500003,19.9410514875,66.0,73.0
22,19.341052087500003,20.132122725000002,39.0,71.0
23,19.782123075,20.3589082125,58.0,67.0
24,20.233908337500004,20.374979625,63.0,62.0
25,20.223194062500003,20.394622462500003,66.0,67.0
26,20.958907612500003,21.676764037500003,59.0,65.0
27,21.016050412500004,21.969620887500003,63.0,72.0
28,21.071407500000003,21.978549450000003,66.0,60.0
29,22.732120125,23.355333787500005,66.0,66.0
30,22.305334837500002,23.439262275000004,63.0,77.0
31,21.905335237500005,23.4428337,59.0,74.0
32,23.644619212500004,23.848190437500005,59.0,56.0
33,23.639262075,23.869618987500004,63.0,71.0
34,21.494621362500002,23.999976000000004,54.0,67.0
35,21.042836100000002,24.001761712500002,47.0,71.0
36,23.628547800000003,24.021404550000003,66.0,67.0
37,24.5124754875,25.121403450000003,63.0,63.0
38,24.505332637500004,25.433903137500003,66.0,68.0
39,24.953546475000003,25.539260175000003,58.0,65.0
40,25.387474612500004,25.983902587500005,63.0,81.0
41,25.783902787500004,26.319616537500004,58.0,64.0
42,26.201759512500004,26.741044687500004,66.0,67.0
43,26.196402375,26.769616087500005,63.0,69.0
44,26.617830525000002,27.749972250000003,58.0,59.0
45,24.494618362500002,27.755329387500005,51.0,80.0
46,27.041044387500005,27.801757912500005,70.0,79.0
47,27.051758662500003,27.810686475000004,63.0,71.0
48,27.942829200000002,28.348185937500002,58.0,69.0
49,27.942829200000002,28.374971625000004,61.0,75.0
50,27.942829200000002,28.505328637500003,42.0,81.0
51,27.942829200000002,28.735685550000003,66.0,75.0
52,28.799971200000005,29.246399325000002,56.0,72.0
53,28.799971200000005,29.276756437500005,61.0,79.0
54,28.799971200000005,29.289256425000005,65.0,80.0
55,28.799971200000005,29.323184962500005,41.0,82.0
56,29.657113200000005,29.917827225000003,58.0,71.0
57,29.657113200000005,30.182112675000003,63.0,75.0
58,30.085684200000003,30.610683675000004,58.0,68.0
59,29.657113200000005,30.708897862500002,39.0,76.0
60,30.514255200000004,30.812469187500003,63.0,80.0
61,30.514255200000004,30.932111925000005,66.0,79.0
62,31.371397200000004,31.971396600000006,63.0,74.0
63,31.371397200000004,32.283896287500006,56.0,74.0
64,31.799968200000006,32.557110300000005,51.0,70.0
65,32.22853920000001,32.60889596250001,59.0,74.0
66,31.371397200000004,32.617824525,44.0,77.0
67,32.22853920000001,32.64639592500001,68.0,74.0
68,32.22853920000001,32.694610162500005,63.0,78.0
69,32.657110200000005,32.74639582500001,56.0,81.0
70,33.0856812,33.3285381,58.0,69.0
71,33.0856812,33.691037737500004,63.0,76.0
72,33.5142522,34.033894537500004,58.0,72.0
73,33.0856812,34.141037287500005,51.0,78.0
74,33.94282320000001,34.198180087500006,63.0,80.0
75,33.94282320000001,34.34282280000001,66.0,77.0
76,34.7999652,35.094607762500004,58.0,74.0
77,34.7999652,35.412464587500004,61.0,74.0
78,35.657107200000006,36.22139235,66.0,80.0
79,35.657107200000006,36.2838922875,61.0,80.0
80,35.22853620000001,36.36960648750001,49.0,72.0
81,34.7999652,36.392820750000006,42.0,80.0
82,36.085678200000004,36.59460626250001,58.0,64.0
83,36.5142492,37.246391325000005,61.0,72.0
84,36.5142492,37.31067697500001,66.0,76.0
85,36.94282020000001,37.4374625625,58.0,76.0
86,36.5142492,37.93389063750001,42.0,75.0
87,37.7999622,38.07139050000001,58.0,81.0
88,37.371391200000005,38.144604712500005,65.0,86.0
89,38.07139050000001,39.40710345000001,58.0,53.0
90,38.13567615,39.460674825000005,63.0,69.0
91,38.2053189375,39.4713891,66.0,73.0
92,38.1553189875,41.25353017500001,39.0,82.0
93,41.630315512500005,44.27852715000001,66.0,76.0
94,41.18388738750001,44.367812775000004,58.0,82.0
95,41.61424410000001,44.59459826250001,39.0,82.0
96,41.603529825,44.885669400000005,63.0,72.0
97,44.623169662500004,44.97495502500001,58.0,70.0
98,45.085669200000005,45.703525725000006,61.0,75.0
99,45.5142402,46.283882287500006,49.0,61.0
100,45.085669200000005,46.32852510000001,42.0,78.0
101,45.94281120000001,46.444596412500005,58.0,74.0
102,45.94281120000001,46.46066782500001,61.0,73.0
103,46.371382200000006,46.812453187500005,54.0,81.0
104,46.799953200000004,47.42138115000001,61.0,80.0
105,47.22852420000001,47.7713808,56.0,71.0
106,46.799953200000004,47.805309337500006,49.0,82.0
107,47.65709520000001,47.860666425000005,65.0,80.0
108,48.514237200000004,49.47316481250001,63.0,75.0
109,48.94280820000001,49.6053075375,51.0,73.0
110,48.514237200000004,49.64102178750001,44.0,78.0
111,49.37137920000001,49.71602171250001,59.0,81.0
112,50.22852120000001,51.1142346,51.0,80.0
113,50.65709220000001,51.123163162500006,58.0,75.0
114,50.22852120000001,51.141020287500005,63.0,75.0
115,51.085663200000006,51.578519850000006,66.0,80.0
116,51.514234200000004,51.889233825000005,58.0,75.0
117,51.94280520000001,51.9874480125,59.0,55.0
118,51.94280520000001,52.867804275000005,63.0,74.0
119,52.37137620000001,52.98208987500001,54.0,71.0
120,51.94280520000001,53.02851840000001,47.0,77.0
121,52.799947200000005,53.04458981250001,59.0,81.0
122,53.65708920000001,54.52494547500001,58.0,71.0
123,54.08566020000001,54.65351677500001,49.0,71.0
124,53.65708920000001,54.67851675000001,42.0,80.0
125,53.65708920000001,54.989230725000006,61.0,76.0
126,54.94280220000001,55.187444812500004,58.0,80.0
127,54.514231200000005,55.455301687500004,66.0,80.0
128,55.37137320000001,56.24637232500001,65.0,81.0
129,55.799944200000006,56.28744371250001,56.0,81.0
130,55.37137320000001,56.74458611250001,49.0,80.0
131,56.228515200000004,56.75708610000001,63.0,81.0
132,56.65708620000001,56.94815733750001,56.0,82.0
133,57.08565720000001,57.601728112500005,61.0,75.0
134,57.514228200000005,57.701728012500006,56.0,67.0
135,57.94279920000001,58.119584737500006,56.0,79.0
136,57.08565720000001,58.14637042500001,49.0,80.0
137,57.94279920000001,58.18029896250001,61.0,78.0
138,57.94279920000001,58.18565610000001,65.0,80.0
139,58.799941200000006,59.385654900000006,66.0,77.0
140,58.799941200000006,59.56244043750001,58.0,77.0
141,59.228512200000004,59.846368725000005,49.0,66.0
142,58.799941200000006,59.91779722500001,42.0,80.0
143,59.65708320000001,60.058868512500005,66.0,79.0
144,59.65708320000001,60.13565415000001,61.0,81.0
145,60.08565420000001,60.226725487500005,58.0,75.0
146,60.514225200000006,60.76065352500001,56.0,78.0
147,60.514225200000006,61.074938925000005,61.0,75.0
148,60.514225200000006,61.10886746250001,65.0,81.0
149,60.94279620000001,61.21065307500001,56.0,72.0
150,61.37136720000001,61.48208137500001,56.0,81.0
151,60.514225200000006,61.51958133750001,49.0,80.0
152,61.37136720000001,61.53208132500001,61.0,77.0
153,62.228509200000005,62.73922297500001,63.0,80.0
154,62.228509200000005,62.75529438750001,66.0,76.0
155,62.65708020000001,63.146365425000006,58.0,74.0
156,62.228509200000005,63.35529378750001,39.0,81.0
157,63.08565120000001,63.50529363750001,63.0,82.0
158,63.514222200000006,63.639222075000006,58.0,72.0
159,63.08565120000001,63.74815053750001,66.0,80.0
160,63.94279320000001,64.596363975,59.0,71.0
161,63.94279320000001,64.60707825000001,63.0,74.0
162,64.79993520000001,65.1410062875,63.0,76.0
163,64.3713642,65.14993485000001,51.0,71.0
164,63.94279320000001,65.17493482500001,44.0,73.0
165,64.79993520000001,65.26779187500001,59.0,74.0
166,65.22850620000001,65.3410060875,56.0,80.0
167,65.6570772,66.1481481375,59.0,75.0
168,66.08564820000001,66.567790575,54.0,84.0
169,66.51421920000001,67.01421870000001,63.0,81.0
170,65.6570772,67.15707570000001,47.0,80.0
171,67.37136120000001,67.59100383750001,61.0,72.0
172,67.37136120000001,67.903503525,63.0,73.0
173,66.9427902,68.26778887500001,54.0,84.0
174,67.79993220000001,68.29100313750001,59.0,78.0
175,67.37136120000001,68.81600261250001,47.0,77.0
176,68.65707420000001,68.82135975000001,54.0,82.0
177,68.2285032,68.91064537500002,63.0,80.0
178,69.08564520000002,69.31600211250002,58.0,78.0
179,69.08564520000002,69.60707325000001,66.0,76.0
180,69.5142162,69.9802871625,58.0,79.0
181,69.94278720000001,70.41421530000001,63.0,82.0
182,69.94278720000001,70.4552866875,66.0,85.0
183,70.3713582,70.88742911250002,58.0,74.0
184,70.79992920000001,71.3267143875,66.0,81.0
185,70.79992920000001,71.38564290000001,63.0,80.0
186,69.08564520000002,71.6570712,39.0,82.0
187,71.22850020000001,71.73921397500001,58.0,79.0
188,71.6570712,72.4427847,66.0,83.0
189,71.6570712,72.4570704,63.0,80.0
190,72.08564220000001,72.46599896250001,58.0,84.0
191,71.6570712,72.50171321250001,41.0,84.0
192,72.51421320000001,73.13206972500001,61.0,75.0
193,72.9427842,73.71242628750001,49.0,61.0
194,72.51421320000001,73.75706910000001,42.0,78.0
195,73.37135520000001,73.8731404125,58.0,74.0
196,73.37135520000001,73.889211825,61.0,73.0
197,73.79992620000002,74.24099718750001,54.0,81.0
198,74.2284972,74.84992515,61.0,80.0
199,74.65706820000001,75.1999248,56.0,71.0
200,74.2284972,75.23385333750001,49.0,82.0
201,75.0856392,75.28921042500001,65.0,80.0
202,75.94278120000001,76.9017088125,63.0,75.0
203,76.3713522,77.03385153750001,51.0,73.0
204,75.94278120000001,77.06956578750001,44.0,78.0
205,76.79992320000001,77.14456571250001,59.0,81.0
206,77.6570652,78.5427786,51.0,80.0
207,78.08563620000001,78.55170716250001,58.0,75.0
208,77.6570652,78.56956428750001,63.0,75.0
209,78.51420720000002,79.00706385000001,66.0,80.0
210,78.9427782,79.31777782500001,58.0,75.0
211,79.37134920000001,79.41599201250001,59.0,55.0
212,79.37134920000001,80.29634827500001,63.0,74.0
213,79.79992020000002,80.41063387500002,54.0,71.0
214,79.37134920000001,80.45706240000001,47.0,77.0
215,80.22849120000001,80.47313381250001,59.0,81.0
216,81.0856332,81.95348947500001,58.0,71.0
217,81.51420420000001,82.08206077500002,49.0,71.0
218,81.0856332,82.10706075000002,42.0,80.0
219,81.0856332,82.41777472500002,61.0,76.0
220,82.3713462,82.6159888125,58.0,80.0
221,81.94277520000001,82.88384568750001,66.0,80.0
222,82.79991720000001,83.67491632500001,65.0,81.0
223,83.22848820000002,83.71598771250001,56.0,81.0
224,82.79991720000001,84.1731301125,49.0,80.0
225,83.6570592,84.18563010000001,63.0,81.0
226,84.08563020000001,84.37670133750001,56.0,82.0
227,84.51420120000002,85.03027211250001,61.0,75.0
228,84.94277220000001,85.13027201250001,56.0,67.0
229,85.37134320000001,85.54812873750001,56.0,79.0
230,84.51420120000002,85.57491442500002,49.0,80.0
231,85.37134320000001,85.6088429625,61.0,78.0
232,85.37134320000001,85.6142001,65.0,80.0
233,86.22848520000001,86.81419890000001,66.0,77.0
234,86.22848520000001,86.99098443750002,58.0,77.0
235,86.65705620000001,87.27491272500001,49.0,66.0
236,86.22848520000001,87.34634122500002,42.0,80.0
237,87.0856272,87.48741251250001,66.0,79.0
238,87.0856272,87.56419815000001,61.0,81.0
239,87.51419820000001,87.65526948750001,58.0,75.0
240,88.79991120000001,89.60348182500002,59.0,80.0
241,88.79991120000001,89.60705325,63.0,84.0
242,88.3713402,89.6124103875,51.0,80.0
243,89.22848220000002,89.62491037500001,56.0,87.0
244,87.94276920000001,89.63026751250001,44.0,80.0
245,89.65705320000001,90.167766975,63.0,80.0
246,89.65705320000001,90.18383838750002,66.0,76.0
247,90.08562420000001,90.57490942500002,58.0,74.0
248,89.65705320000001,90.7838377875,39.0,81.0
249,90.51419520000002,90.9338376375,63.0,82.0
250,90.94276620000001,91.06776607500001,58.0,72.0
251,90.51419520000002,91.17669453750001,66.0,80.0
252,91.37133720000001,92.024907975,59.0,71.0
253,91.37133720000001,92.03562225000002,63.0,74.0
254,92.22847920000001,92.56955028750001,63.0,76.0
255,91.79990820000002,92.57847885000001,51.0,71.0
256,91.37133720000001,92.60347882500001,44.0,73.0
257,92.22847920000001,92.69633587500002,59.0,74.0
258,92.65705020000001,92.76955008750001,56.0,80.0
259,93.0856212,93.57669213750002,59.0,75.0
260,93.51419220000001,93.996334575,54.0,84.0
261,93.94276320000002,94.44276270000002,63.0,81.0
262,93.0856212,94.58561970000001,47.0,80.0
263,94.79990520000001,95.01954783750001,61.0,72.0
264,94.79990520000001,95.33204752500001,63.0,73.0
265,94.3713342,95.69633287500001,54.0,84.0
266,95.22847620000002,95.71954713750002,59.0,78.0
267,94.79990520000001,96.24454661250002,47.0,77.0
268,96.08561820000001,96.24990375000002,54.0,82.0
269,95.65704720000001,96.33918937500002,63.0,80.0
270,96.51418920000002,96.74454611250002,58.0,78.0
271,96.51418920000002,97.03561725000002,66.0,76.0
272,96.94276020000001,97.40883116250001,58.0,79.0
273,97.37133120000001,97.84275930000001,63.0,82.0
274,97.37133120000001,97.88383068750001,66.0,85.0
275,97.79990220000002,98.31597311250002,58.0,74.0
276,98.22847320000001,98.7552583875,66.0,81.0
277,98.22847320000001,98.81418690000001,63.0,80.0
278,96.51418920000002,99.0856152,39.0,82.0
279,98.65704420000002,99.16775797500001,58.0,79.0
280,99.0856152,99.8713287,66.0,83.0
281,99.0856152,99.88561440000001,63.0,80.0
282,99.51418620000001,99.89454296250001,58.0,84.0
283,99.0856152,99.93025721250001,41.0,84.0
284,99.94275720000002,100.21239978750002,58.0,74.0
285,99.94275720000002,100.4766852375,66.0,77.0
286,99.94275720000002,100.48561380000001,63.0,75.0
287,100.37132820000001,100.69989930000001,58.0,66.0
288,100.79989920000001,100.97847045000002,63.0,82.0
289,100.79989920000001,101.11061317500001,66.0,86.0
290,101.22847020000002,101.45346997500002,58.0,80.0
291,101.65704120000001,101.80882676250002,58.0,80.0
292,101.65704120000001,102.18739781250001,63.0,83.0
293,101.65704120000001,102.23739776250001,66.0,80.0
294,102.08561220000001,102.34096908750001,58.0,79.0
295,102.51418320000002,102.68918302500002,63.0,87.0
296,102.51418320000002,102.73204012500001,58.0,81.0
297,99.94275720000002,102.81061147500002,39.0,82.0
298,102.51418320000002,102.85346857500001,66.0,80.0
299,102.94275420000001,103.37846805000001,56.0,80.0
300,102.94275420000001,103.39096803750002,61.0,77.0
301,102.94275420000001,103.39989660000002,37.0,79.0
302,103.37132520000002,104.03739596250001,59.0,74.0
303,103.37132520000002,104.03739596250001,63.0,77.0
304,103.79989620000002,104.46775267500001,54.0,46.0
305,104.22846720000001,104.68739531250002,66.0,80.0
306,104.22846720000001,104.72132385000002,59.0,80.0
307,104.22846720000001,104.72310956250001,63.0,81.0
308,103.37132520000002,104.94632362500002,47.0,84.0
309,104.65703820000002,105.01060927500001,54.0,65.0
310,104.87132370000002,105.18560910000001,59.0,81.0
311,104.87132370000002,105.39096603750001,63.0,82.0
312,105.51418020000001,105.76596566250001,59.0,81.0
313,105.29989470000001,106.11775102500002,54.0,69.0
314,105.08560920000001,106.15703670000002,47.0,81.0
315,105.94275120000002,106.21060807500001,59.0,82.0
316,105.94275120000002,106.26953658750001,66.0,78.0
317,105.94275120000002,106.29989370000001,63.0,82.0
318,106.37132220000001,106.53917917500002,47.0,81.0
319,106.79989320000001,107.47310681250002,61.0,77.0
320,106.79989320000001,107.48382108750002,58.0,74.0
321,107.65703520000001,107.85524928750002,65.0,84.0
322,107.65703520000001,107.88739211250001,58.0,81.0
323,106.79989320000001,108.38203447500001,46.0,80.0
324,107.22846420000002,108.40882016250002,53.0,66.0
325,108.29989170000002,108.54632002500001,66.0,79.0
326,108.51417720000002,108.75346267500001,65.0,81.0
327,108.72846270000001,109.04989095000002,61.0,80.0
328,108.94274820000001,109.26596216250002,58.0,83.0
329,109.37131920000002,109.69989030000002,61.0,83.0
330,109.37131920000002,109.78560450000002,58.0,81.0
331,109.37131920000002,109.79810448750001,65.0,85.0
332,108.51417720000002,109.96774717500001,46.0,80.0
333,109.79989020000002,110.07846135000001,53.0,76.0
334,110.22846120000001,110.89096053750002,63.0,76.0
335,110.22846120000001,110.89810338750002,59.0,74.0
336,111.08560320000001,111.45881711250001,59.0,81.0
337,111.08560320000001,111.49095993750001,66.0,78.0
338,111.08560320000001,111.53024561250001,63.0,81.0
339,110.65703220000002,111.71595971250001,54.0,55.0
340,110.22846120000001,111.81595961250001,47.0,81.0
341,111.72845970000002,111.85881671250002,59.0,68.0
342,111.94274520000002,112.47131610000001,59.0,75.0
343,111.94274520000002,112.56774457500002,66.0,77.0
344,111.94274520000002,112.64095878750001,63.0,80.0
345,112.58560170000001,112.72667298750001,59.0,75.0
346,112.37131620000001,112.90345852500002,54.0,64.0
347,112.79988720000001,113.13560115000001,59.0,80.0
348,112.79988720000001,113.19810108750002,66.0,81.0
349,112.79988720000001,113.21774392500001,63.0,83.0
350,111.94274520000002,113.33560095000001,47.0,80.0
351,113.22845820000002,113.44452941250002,54.0,67.0
352,113.22845820000002,113.65702920000001,65.0,68.0
353,113.65702920000001,114.17845725000001,61.0,75.0
354,113.65702920000001,114.19274295000001,58.0,73.0
355,114.08560020000002,114.66059962500002,53.0,67.0
356,114.51417120000002,114.93202792500001,58.0,81.0
357,114.51417120000002,114.96417075000001,65.0,84.0
358,114.51417120000002,114.97488502500002,61.0,83.0
359,114.94274220000001,115.23024191250002,53.0,62.0
360,113.65702920000001,115.24809903750001,46.0,81.0
361,115.15702770000001,115.27309901250001,58.0,72.0
362,115.37131320000002,115.58202727500002,58.0,75.0
363,115.37131320000002,115.65881291250001,61.0,74.0
364,115.79988420000001,115.89452696250001,58.0,80.0
365,115.58559870000002,116.06059822500002,53.0,76.0
366,116.01416970000001,116.29988370000001,58.0,83.0
367,116.01416970000001,116.45881211250001,65.0,82.0
368,116.44274070000002,116.65345477500001,61.0,85.0
369,116.22845520000001,116.66416905000001,53.0,84.0
370,115.37131320000002,116.67309761250002,46.0,81.0
371,116.65702620000002,116.77666893750002,58.0,80.0
372,117.08559720000001,117.57131100000001,63.0,79.0
373,117.08559720000001,117.58738241250002,59.0,61.0
374,117.08559720000001,117.63559665000001,56.0,80.0
375,117.94273920000002,118.12666758750001,56.0,80.0
376,117.94273920000002,118.15166756250001,68.0,80.0
377,118.15702470000002,118.37131020000001,63.0,78.0
378,117.51416820000001,118.55702430000001,51.0,59.0
379,118.37131020000001,118.62309566250002,59.0,78.0
380,117.08559720000001,118.66773847500002,44.0,80.0
381,118.58559570000001,118.68380988750002,56.0,81.0
382,118.79988120000002,119.02309526250002,56.0,72.0
383,118.79988120000002,119.26059502500001,59.0,72.0
384,118.79988120000002,119.27488072500002,63.0,79.0
385,119.22845220000002,119.33559495000002,56.0,75.0
386,119.01416670000002,119.54988045000002,51.0,70.0
387,119.44273770000001,119.67309461250001,56.0,82.0
388,119.44273770000001,119.76238023750001,59.0,83.0
389,119.44273770000001,119.83023731250002,63.0,81.0
390,119.87130870000001,119.92845150000002,63.0,51.0
391,119.65702320000001,120.04273710000001,51.0,75.0
392,118.79988120000002,120.07130850000001,44.0,80.0
393,119.87130870000001,120.10166561250001,56.0,85.0
394,120.08559420000002,120.19630837500002,59.0,81.0
395,120.51416520000002,120.74273640000001,58.0,76.0
396,120.51416520000002,121.01595041250002,63.0,80.0
397,120.94273620000001,121.10523603750002,58.0,69.0
398,121.37130720000002,121.69452116250001,58.0,82.0
399,121.37130720000002,121.74273540000002,66.0,83.0
400,120.51416520000002,121.78023536250002,51.0,81.0
401,121.79987820000001,121.91773522500002,65.0,81.0
402,122.01416370000001,122.28023486250001,66.0,81.0
403,122.22844920000001,122.46952038750001,65.0,85.0
404,122.44273470000002,122.67844875000002,63.0,79.0
405,122.65702020000002,122.84987715000001,58.0,76.0
406,122.22844920000001,122.87666283750002,51.0,85.0
407,123.08559120000001,123.26059102500001,58.0,82.0
408,123.29987670000001,123.36237663750002,58.0,73.0
409,123.08559120000001,123.42487657500001,63.0,82.0
410,123.08559120000001,123.45344797500002,51.0,86.0
411,123.94273320000002,124.44451841250002,59.0,80.0
412,123.94273320000002,124.64451821250002,63.0,80.0
413,124.58558970000001,124.72844670000002,59.0,80.0
414,124.79987520000002,125.02308926250002,66.0,82.0
415,125.01416070000002,125.28023186250002,63.0,80.0
416,125.22844620000002,125.50523163750002,59.0,81.0
417,124.37130420000001,125.52308876250001,54.0,69.0
418,123.94273320000002,125.55523158750002,47.0,83.0
419,125.65701720000001,126.26415945000002,59.0,75.0
420,125.65701720000001,126.32130225000002,63.0,80.0
421,125.65701720000001,126.68558760000002,47.0,81.0
422,126.51415920000002,126.70165901250002,59.0,82.0
423,126.51415920000002,126.74094468750002,63.0,81.0
424,126.08558820000002,126.75701610000002,54.0,73.0
425,126.51415920000002,126.81058747500002,66.0,80.0
426,127.37130120000002,127.65344377500001,71.0,81.0
427,127.37130120000002,127.86951498750001,66.0,76.0
428,128.22844320000002,128.4766572375,66.0,80.0
429,128.22844320000002,128.539157175,75.0,82.0
430,128.22844320000002,128.58379998750002,71.0,89.0
431,127.79987220000001,128.94629962500002,54.0,71.0
432,128.8712997,128.9659424625,71.0,65.0
433,128.8712997,128.9766567375,66.0,73.0
434,128.8712997,128.9980852875,78.0,69.0
435,127.37130120000002,129.00165671250002,47.0,89.0
436,129.08558520000003,129.42487057500003,66.0,77.0
437,129.08558520000003,129.48022766250003,71.0,81.0
438,129.08558520000003,129.53915617500002,78.0,81.0
439,129.51415620000003,130.0980841875,54.0,71.0
440,129.08558520000003,130.11951273750003,47.0,83.0
441,129.9427272,130.19451266250002,71.0,84.0
442,129.9427272,130.203441225,66.0,84.0
443,129.9427272,130.282012575,75.0,89.0
444,130.3712982,130.4695123875,47.0,91.0
445,130.79986920000002,130.88915482500002,37.0,81.0
446,130.79986920000002,131.2587973125,73.0,80.0
447,130.79986920000002,131.28558300000003,68.0,79.0
448,131.87129670000002,132.12843930000003,61.0,80.0
449,132.0855822,132.25701060000003,63.0,82.0
450,132.29986770000002,132.44986755000002,65.0,81.0
451,132.5141532,132.71236728750003,68.0,84.0
452,132.72843870000003,132.91593851250002,65.0,81.0
453,132.94272420000001,133.146295425,73.0,80.0
454,133.1570097,133.36058092500002,65.0,82.0
455,133.37129520000002,133.53736646250002,75.0,89.0
456,133.5855807,133.78379478750003,65.0,84.0
457,131.65701120000003,133.9409374875,56.0,83.0
458,131.22844020000002,134.01593741250002,49.0,80.0
459,133.79986620000003,134.08200877500002,77.0,82.0
460,134.0141517,134.09272305000002,65.0,80.0
461,134.6570082,134.9802221625,65.0,71.0
462,135.0855792,135.39272175000002,73.0,76.0
463,135.0855792,135.5284359,68.0,74.0
464,135.51415020000002,135.77486422500002,65.0,60.0
465,135.94272120000002,136.567720575,73.0,74.0
466,135.94272120000002,136.639149075,65.0,74.0
467,135.94272120000002,136.6623633375,68.0,73.0
468,136.7998632,137.59271955000003,68.0,69.0
469,137.2284342,137.60879096250002,65.0,76.0
470,136.7998632,137.61414810000002,73.0,75.0
471,135.94272120000002,137.6623623375,56.0,62.0
472,134.22843720000003,137.667719475,49.0,86.0
473,137.65700520000001,138.27486172500002,61.0,75.0
474,138.08557620000002,138.8552182875,49.0,61.0
475,137.65700520000001,138.8998611,42.0,78.0
476,138.51414720000002,139.0159324125,58.0,74.0
477,138.51414720000002,139.03200382500003,61.0,73.0
478,138.94271820000003,139.3837891875,54.0,81.0
479,139.3712892,139.99271715,61.0,80.0
480,139.7998602,140.3427168,56.0,71.0
481,139.3712892,140.3766453375,49.0,82.0
482,140.22843120000002,140.432002425,65.0,80.0
483,141.08557320000003,142.04450081250002,63.0,75.0
484,141.51414420000003,142.1766435375,51.0,73.0
485,141.08557320000003,142.21235778750003,44.0,78.0
486,141.9427152,142.2873577125,59.0,81.0
487,142.79985720000002,143.6855706,51.0,80.0
488,143.22842820000002,143.69449916250002,58.0,75.0
489,142.79985720000002,143.71235628750003,63.0,75.0
490,143.65699920000003,144.14985585000002,66.0,80.0
491,144.0855702,144.46056982500002,58.0,75.0
492,144.5141412,144.5587840125,59.0,55.0
493,144.5141412,145.43914027500003,63.0,74.0
494,144.94271220000002,145.55342587500002,54.0,71.0
495,144.5141412,145.59985440000003,47.0,77.0
496,145.37128320000002,145.61592581250002,59.0,81.0
497,146.22842520000003,147.096281475,58.0,71.0
498,146.6569962,147.22485277500002,49.0,71.0
499,146.22842520000003,147.24985275000003,42.0,80.0
500,146.22842520000003,147.56056672500003,61.0,76.0
501,147.51413820000002,147.75878081250002,58.0,80.0
502,147.0855672,148.02663768750003,66.0,80.0
503,147.94270920000002,148.817708325,65.0,81.0
504,148.37128020000003,148.85877971250002,56.0,81.0
505,147.94270920000002,149.31592211250003,49.0,80.0
506,148.7998512,149.3284221,63.0,81.0
507,149.2284222,149.51949333750002,56.0,82.0
508,149.65699320000002,150.17306411250001,61.0,75.0
509,150.08556420000002,150.27306401250001,56.0,67.0
510,150.51413520000003,150.69092073750002,56.0,79.0
511,149.65699320000002,150.71770642500002,49.0,80.0
512,150.51413520000003,150.75163496250002,61.0,78.0
513,150.51413520000003,150.75699210000002,65.0,80.0
514,151.3712772,151.95699090000002,66.0,77.0
515,151.3712772,152.13377643750002,58.0,77.0
516,151.7998482,152.41770472500002,49.0,66.0
517,151.3712772,152.48913322500002,42.0,80.0
518,152.22841920000002,152.63020451250003,66.0,79.0
519,152.22841920000002,152.70699015000002,61.0,81.0
520,152.65699020000002,152.7980614875,58.0,75.0
521,153.08556120000003,153.331989525,56.0,78.0
522,153.08556120000003,153.64627492500003,61.0,75.0
523,153.08556120000003,153.68020346250003,65.0,81.0
524,153.5141322,153.781989075,56.0,72.0
525,153.9427032,154.053417375,56.0,81.0
526,153.08556120000003,154.09091733750003,49.0,80.0
527,153.9427032,154.103417325,61.0,77.0
528,154.79984520000002,155.31055897500002,63.0,80.0
529,154.79984520000002,155.32663038750002,66.0,76.0
530,155.22841620000003,155.71770142500003,58.0,74.0
531,154.79984520000002,155.92662978750002,39.0,81.0
532,155.65698720000003,156.07662963750002,63.0,82.0
533,156.0855582,156.21055807500002,58.0,72.0
534,155.65698720000003,156.3194865375,66.0,80.0
535,156.5141292,157.16769997500003,59.0,71.0
536,156.5141292,157.17841425000003,63.0,74.0
537,157.37127120000002,157.7123422875,63.0,76.0
538,156.94270020000002,157.72127085000002,51.0,71.0
539,156.5141292,157.746270825,44.0,73.0
540,157.37127120000002,157.83912787500003,59.0,74.0
541,157.79984220000003,157.9123420875,56.0,80.0
542,158.22841320000003,158.71948413750002,59.0,75.0
543,158.6569842,159.13912657500003,54.0,84.0
544,159.08555520000002,159.58555470000002,63.0,81.0
545,158.22841320000003,159.7284117,47.0,80.0
546,159.94269720000003,160.1623398375,61.0,72.0
547,159.94269720000003,160.47483952500002,63.0,73.0
548,159.51412620000002,160.839124875,54.0,84.0
549,160.37126820000003,160.86233913750002,59.0,78.0
550,159.94269720000003,161.38733861250003,47.0,77.0
551,161.2284102,161.39269575000003,54.0,82.0
552,160.7998392,161.48198137500003,63.0,80.0
553,161.65698120000002,161.88733811250003,58.0,78.0
554,161.65698120000002,162.17840925000002,66.0,76.0
555,162.08555220000002,162.55162316250002,58.0,79.0
556,162.51412320000003,162.98555130000003,63.0,82.0
557,162.51412320000003,163.0266226875,66.0,85.0
558,162.94269420000003,163.45876511250003,58.0,74.0
559,163.3712652,163.89805038750004,66.0,81.0
560,163.3712652,163.95697890000002,63.0,80.0
561,161.65698120000002,164.22840720000002,39.0,82.0
562,163.79983620000002,164.31054997500001,58.0,79.0
563,164.22840720000002,165.01412070000003,66.0,83.0
564,164.22840720000002,165.02840640000002,63.0,80.0
565,164.65697820000003,165.0373349625,58.0,84.0
566,164.22840720000002,165.07304921250002,41.0,84.0
567,165.08554920000003,165.703405725,61.0,75.0
568,165.5141202,166.28376228750002,49.0,61.0
569,165.08554920000003,166.32840510000003,42.0,78.0
570,165.9426912,166.44447641250002,58.0,74.0
571,165.9426912,166.46054782500002,61.0,73.0
572,166.37126220000002,166.81233318750003,54.0,81.0
573,166.79983320000002,167.42126115000002,61.0,80.0
574,167.22840420000003,167.77126080000002,56.0,71.0
575,166.79983320000002,167.80518933750002,49.0,82.0
576,167.65697520000003,167.86054642500002,65.0,80.0
577,168.51411720000002,169.47304481250004,63.0,75.0
578,168.94268820000002,169.60518753750003,51.0,73.0
579,168.51411720000002,169.6409017875,44.0,78.0
580,169.37125920000003,169.71590171250003,59.0,81.0
581,170.22840120000004,171.11411460000002,51.0,80.0
582,170.6569722,171.1230431625,58.0,75.0
583,170.22840120000004,171.14090028750002,63.0,75.0
584,171.08554320000002,171.57839985,66.0,80.0
585,171.51411420000002,171.889113825,58.0,75.0
586,171.94268520000003,171.98732801250003,59.0,55.0
587,171.94268520000003,172.86768427500002,63.0,74.0
588,172.37125620000003,172.98196987500003,54.0,71.0
589,171.94268520000003,173.02839840000001,47.0,77.0
590,172.7998272,173.0444698125,59.0,81.0
591,173.65696920000002,174.52482547500003,58.0,71.0
592,174.08554020000003,174.65339677500003,49.0,71.0
593,173.65696920000002,174.67839675000002,42.0,80.0
594,173.65696920000002,174.98911072500002,61.0,76.0
595,174.94268220000004,175.1873248125,58.0,80.0
596,174.51411120000003,175.45518168750002,66.0,80.0
597,175.3712532,176.24625232500003,65.0,81.0
598,175.79982420000002,176.2873237125,56.0,81.0
599,175.3712532,176.74446611250002,49.0,80.0
600,176.22839520000002,176.75696610000003,63.0,81.0
601,176.65696620000003,176.9480373375,56.0,82.0
602,177.08553720000003,177.60160811250003,61.0,75.0
603,177.5141082,177.70160801250003,56.0,67.0
604,177.94267920000001,178.1194647375,56.0,79.0
605,177.08553720000003,178.14625042500003,49.0,80.0
606,177.94267920000001,178.18017896250004,61.0,78.0
607,177.94267920000001,178.18553610000004,65.0,80.0
608,178.7994524166667,179.38308058333337,66.0,77.0
609,178.7994524166667,179.55923664583338,58.0,77.0
610,179.2264974166667,179.84215395833337,49.0,66.0
611,178.7994524166667,179.91332812500002,42.0,80.0
612,179.6535424166667,180.0538971041667,66.0,79.0
613,179.6535424166667,180.13040933333338,61.0,81.0
614,180.0805874166667,180.22115639583336,58.0,75.0
615,181.3617224166667,182.1624317916667,59.0,80.0
616,181.3617224166667,182.16599050000002,63.0,84.0
617,180.93467741666672,182.17132856250004,51.0,80.0
618,181.7887674166667,182.1837840416667,56.0,87.0
619,180.5076324166667,182.1891221041667,44.0,80.0
620,182.2158124166667,182.72470770833337,63.0,80.0
621,182.2158124166667,182.74072189583336,66.0,76.0
622,182.64285741666671,183.13040045833336,58.0,74.0
623,182.2158124166667,183.33858489583338,39.0,81.0
624,183.0699024166667,183.48805064583337,63.0,82.0
625,183.4969474166667,183.62150220833337,58.0,72.0
626,183.0699024166667,183.73004281250005,66.0,80.0
627,183.9239924166667,184.5752360416667,59.0,71.0
628,183.9239924166667,184.5859121666667,63.0,74.0
629,184.7780824166667,185.11793906250003,63.0,76.0
630,184.3510374166667,185.12683583333336,51.0,71.0
631,183.9239924166667,185.1517467916667,44.0,73.0
632,184.7780824166667,185.24427320833337,59.0,74.0
633,185.2051274166667,185.3172267291667,56.0,80.0
634,185.6321724166667,186.12149481250003,59.0,75.0
635,186.0592174166667,186.5396430416667,54.0,84.0
636,186.4862624166667,186.98448158333338,63.0,81.0
637,185.6321724166667,187.1268299166667,47.0,80.0
638,187.3403524166667,187.55921297916672,61.0,72.0
639,187.3403524166667,187.87059995833337,63.0,73.0
640,186.9133074166667,188.23358820833337,54.0,84.0
641,187.7673974166667,188.25671981250002,59.0,78.0
642,187.3403524166667,188.77984993750005,47.0,77.0
643,188.6214874166667,188.78518800000003,54.0,82.0
644,188.1944424166667,188.87415570833338,63.0,80.0
645,189.04853241666672,189.30831812500003,63.0,81.0
646,189.04853241666672,189.53251675000004,66.0,84.0
647,189.9026224166667,190.35813708333336,63.0,83.0
648,189.9026224166667,190.35813708333336,66.0,83.0
649,189.04853241666672,190.5325137916667,39.0,83.0
650,190.3296674166667,190.6019086041667,58.0,80.0
651,190.7567124166667,190.9435446041667,63.0,80.0
652,190.7567124166667,191.26560770833336,66.0,76.0
653,191.1837574166667,191.3919418541667,58.0,70.0
654,191.6108024166667,191.9244774166667,63.0,83.0
655,191.6108024166667,191.9834059291667,58.0,80.0
656,191.6108024166667,192.0548344291667,66.0,80.0
657,192.0387630166667,192.1744771666667,46.0,82.0
658,192.4673340166667,192.8244765166667,59.0,81.0
659,192.4673340166667,192.9209049916667,63.0,81.0
660,193.3244760166667,193.4673330166667,59.0,81.0
661,193.3244760166667,193.4798330041667,63.0,80.0
662,192.4673340166667,193.52269010416668,47.0,89.0
663,193.3244760166667,193.5959043166667,66.0,78.0
664,194.1816180166667,194.3084036041667,59.0,77.0
665,194.1816180166667,194.33340357916668,63.0,77.0
666,194.1816180166667,194.4280463416667,66.0,76.0
667,195.03950881666668,195.42752687083336,59.0,86.0
668,195.03950881666668,195.45810236250003,66.0,81.0
669,195.03950881666668,195.47968506250004,63.0,84.0
670,195.47069227083335,195.5642173041667,47.0,94.0
671,195.90234627083336,196.25846082083336,63.0,80.0
672,195.90234627083336,196.3088204541667,56.0,79.0
673,195.90234627083336,196.31061901250004,59.0,75.0
674,196.76565427083335,196.9509057791667,56.0,82.0
675,196.76565427083335,196.9994668541667,59.0,82.0
676,196.76565427083335,197.0102582041667,63.0,84.0
677,197.19637052500005,197.44458456250004,56.0,71.0
678,197.62450915833335,197.68856590833337,56.0,70.0
679,196.33400027083337,197.7134768666667,51.0,67.0
680,195.90234627083336,197.76863684583336,44.0,82.0
681,197.62450915833335,198.12342300416668,68.0,76.0
682,197.62450915833335,198.16065701041668,63.0,82.0
683,197.62450915833335,198.16243005833337,59.0,81.0
684,198.05072803958336,198.29718170000004,56.0,74.0
685,198.47625953958337,198.65711042708335,59.0,83.0
686,198.47625953958337,198.67306785833335,68.0,78.0
687,198.47625953958337,198.70143662500004,56.0,82.0
688,198.47625953958337,198.72094015208336,63.0,82.0
689,199.30204795833336,199.40386599166672,37.0,81.0
690,199.2893207041667,199.6606670666667,56.0,80.0
691,199.29113888333336,199.7236299666667,61.0,78.0
692,199.28750252500004,199.79029656666668,65.0,82.0
693,200.1828887666667,200.3754811666667,61.0,84.0
694,200.1847406166667,200.3791848666667,65.0,91.0
695,199.7236299666667,200.39029596666668,49.0,81.0
696,200.1810369166667,200.4328885166667,68.0,81.0
697,200.62807909166668,200.94660376041668,61.0,81.0
698,201.08570140625002,201.34055114583336,61.0,80.0
699,201.0875811041667,201.42833735416667,65.0,86.0
700,201.0875811041667,201.47604725000002,68.0,81.0
701,201.08946080208335,201.59245939583334,73.0,80.0
702,201.09509989583336,201.92452027083334,49.0,89.0
703,201.09697959375004,201.92642866666668,56.0,85.0
704,201.58673420833335,201.98368054166667,61.0,82.0
705,202.02184845833335,202.9245196875,65.0,94.0
706,202.0199400625,202.930244875,61.0,84.0
707,202.0237568541667,202.930244875,68.0,82.0
708,202.03139043750002,202.93215327083334,56.0,85.0
709,202.02948204166668,202.9455120416667,49.0,85.0
710,202.08673391666667,203.034193,73.0,79.0
711,202.9455120416667,203.57283715,61.0,75.0
712,203.383551625,204.15319371249998,49.0,61.0
713,202.9455120416667,204.19783652499999,42.0,78.0
714,203.812122625,204.31390783749998,58.0,74.0
715,203.812122625,204.32997924999998,61.0,73.0
716,204.240693625,204.6817646125,54.0,81.0
717,204.66926462499998,205.29069257499998,61.0,80.0
718,205.097835625,205.64069222499998,56.0,71.0
719,204.66926462499998,205.67462076249998,49.0,82.0
720,205.526406625,205.72997784999998,65.0,80.0
721,206.383548625,207.3424762375,63.0,75.0
722,206.81211962499998,207.4746189625,51.0,73.0
723,206.383548625,207.5103332125,44.0,78.0
724,207.24069062499998,207.5853331375,59.0,81.0
725,208.097832625,208.98354602499998,51.0,80.0
726,208.526403625,208.9924745875,58.0,75.0
727,208.097832625,209.0103317125,63.0,75.0
728,208.954974625,209.447831275,66.0,80.0
729,209.38354562499998,209.75854525,58.0,75.0
730,209.812116625,209.8567594375,59.0,55.0
731,209.812116625,210.7371157,63.0,74.0
732,210.240687625,210.8514013,54.0,71.0
733,209.812116625,210.897829825,47.0,77.0
734,210.669258625,210.9139012375,59.0,81.0
735,211.526400625,212.3942569,58.0,71.0
736,211.95497162499998,212.5228282,49.0,71.0
737,211.526400625,212.547828175,42.0,80.0
738,211.526400625,212.85854215,61.0,76.0
739,212.812113625,213.0567562375,58.0,80.0
740,212.383542625,213.3246131125,66.0,80.0
741,213.240684625,214.11568375,65.0,81.0
742,213.669255625,214.1567551375,56.0,81.0
743,213.240684625,214.6138975375,49.0,80.0
744,214.09782662499998,214.626397525,63.0,81.0
745,214.526397625,214.8174687625,56.0,82.0
746,214.954968625,215.4710395375,61.0,75.0
747,215.383539625,215.5710394375,56.0,67.0
748,215.812110625,215.9888961625,56.0,79.0
749,214.954968625,216.01568185,49.0,80.0
750,215.812110625,216.0496103875,61.0,78.0
751,215.812110625,216.054967525,65.0,80.0
752,216.66925262499998,217.254966325,66.0,77.0
753,216.66925262499998,217.4317518625,58.0,77.0
754,217.097823625,217.71568015,49.0,66.0
755,216.66925262499998,217.78710865,42.0,80.0
756,217.526394625,217.9281799375,66.0,79.0
757,217.526394625,218.004965575,61.0,81.0
758,217.954965625,218.09603691249998,58.0,75.0
759,218.383536625,218.62996495,56.0,78.0
760,218.383536625,218.94425035,61.0,75.0
761,218.383536625,218.9781788875,65.0,81.0
762,218.812107625,219.0799645,56.0,72.0
763,219.240678625,219.35139279999999,56.0,81.0
764,218.383536625,219.3888927625,49.0,80.0
765,219.240678625,219.40139274999999,61.0,77.0
766,220.097820625,220.6085344,63.0,80.0
767,220.097820625,220.6246058125,66.0,76.0
768,220.526391625,221.01567685,58.0,74.0
769,220.097820625,221.2246052125,39.0,81.0
770,220.954962625,221.3746050625,63.0,82.0
771,221.38353362499998,221.5085335,58.0,72.0
772,220.954962625,221.6174619625,66.0,80.0
773,221.812104625,222.4656754,59.0,71.0
774,221.812104625,222.476389675,63.0,74.0
775,222.669246625,223.0103177125,63.0,76.0
776,222.240675625,223.019246275,51.0,71.0
777,221.812104625,223.04424625,44.0,73.0
778,222.669246625,223.1371033,59.0,74.0
779,223.097817625,223.21031751249998,56.0,80.0
780,223.52638862499998,224.0174595625,59.0,75.0
781,223.954959625,224.43710199999998,54.0,84.0
782,224.383530625,224.883530125,63.0,81.0
783,223.52638862499998,225.02638712499999,47.0,80.0
784,225.240672625,225.4603152625,61.0,72.0
785,225.240672625,225.77281495,63.0,73.0
786,224.812101625,226.1371003,54.0,84.0
787,225.669243625,226.1603145625,59.0,78.0
788,225.240672625,226.6853140375,47.0,77.0
789,226.526385625,226.690671175,54.0,82.0
790,226.09781462499998,226.7799568,63.0,80.0
791,226.954956625,227.1853135375,58.0,78.0
792,226.954956625,227.476384675,66.0,76.0
793,227.383527625,227.8495985875,58.0,79.0
794,227.812098625,228.283526725,63.0,82.0
795,227.812098625,228.32459811249998,66.0,85.0
796,228.240669625,228.7567405375,58.0,74.0
797,228.669240625,229.1960258125,66.0,81.0
798,228.669240625,229.254954325,63.0,80.0
799,226.954956625,229.526382625,39.0,82.0
800,229.097811625,229.6085254,58.0,79.0
801,229.526382625,230.31209612499998,66.0,83.0
802,229.526382625,230.326381825,63.0,80.0
803,229.954953625,230.3353103875,58.0,84.0
804,229.526382625,230.3710246375,41.0,84.0
805,230.383524625,230.969238325,66.0,77.0
806,230.383524625,231.1460238625,58.0,77.0
807,230.81209562499998,231.42995215,49.0,66.0
808,230.383524625,231.50138065,42.0,80.0
809,231.240666625,231.6424519375,66.0,79.0
810,231.240666625,231.719237575,61.0,81.0
811,231.669237625,231.8103089125,58.0,75.0
812,232.097808625,232.34423694999998,56.0,78.0
813,232.097808625,232.65852235,61.0,75.0
814,232.097808625,232.6924508875,65.0,81.0
815,232.526379625,232.7942365,56.0,72.0
816,232.954950625,233.0656648,56.0,81.0
817,232.097808625,233.1031647625,49.0,80.0
818,232.954950625,233.11566475,61.0,77.0
819,233.812092625,234.3228064,63.0,80.0
820,233.812092625,234.3388778125,66.0,76.0
821,234.240663625,234.72994885,58.0,74.0
822,233.812092625,234.9388772125,39.0,81.0
823,234.669234625,235.0888770625,63.0,82.0
824,235.097805625,235.2228055,58.0,72.0
825,234.669234625,235.33173396249998,66.0,80.0
826,235.526376625,236.1799474,59.0,71.0
827,235.526376625,236.190661675,63.0,74.0
828,236.383518625,236.7245897125,63.0,76.0
829,235.954947625,236.733518275,51.0,71.0
830,235.526376625,236.75851825,44.0,73.0
831,236.383518625,236.8513753,59.0,74.0
832,236.812089625,236.9245895125,56.0,80.0
833,237.240660625,237.7317315625,59.0,75.0
834,237.669231625,238.151374,54.0,84.0
835,238.09780262499999,238.597802125,63.0,81.0
836,237.240660625,238.740659125,47.0,80.0
837,239.0656588,239.28530143749998,61.0,72.0
838,239.0656588,239.597801125,63.0,73.0
839,238.569230725,239.962086475,54.0,84.0
840,239.5674440125,239.98530073749998,59.0,78.0
841,239.0656588,240.5103002125,47.0,77.0
842,240.026372125,240.604942975,63.0,80.0
843,240.790657075,241.0210139875,58.0,78.0
844,240.790657075,241.312085125,66.0,76.0
845,241.23529948750001,241.797798925,58.0,79.0
846,241.64422765,242.11565575,63.0,82.0
847,241.64422765,242.1567271375,66.0,85.0
848,242.07279864999998,242.5888695625,58.0,74.0
849,242.50672678749999,243.02815483749998,66.0,81.0
850,242.50672678749999,243.08708335,63.0,80.0
851,240.790657075,243.362083075,39.0,82.0
852,242.92994065,243.440654425,58.0,79.0
853,243.3745830625,244.0852966375,41.0,84.0
854,243.362083075,244.14422515,66.0,83.0
855,243.362083075,244.15851085,63.0,80.0
856,243.78708265,244.16743941250002,58.0,84.0
857,244.22993935,244.440653425,58.0,65.0
858,244.2245822125,244.7852959375,63.0,76.0
859,244.2370822,244.8424387375,66.0,76.0
860,244.597796125,245.11565274999998,58.0,67.0
861,245.083509925,245.57279515,63.0,72.0
862,245.0781527875,245.6210093875,66.0,74.0
863,245.5102952125,246.0656518,58.0,63.0
864,246.0031518625,246.50136565,63.0,80.0
865,244.22993935,246.6888654625,39.0,83.0
866,246.00136615,246.72993685,66.0,79.0
867,246.4317228625,247.00136515,58.0,81.0
868,246.9174366625,247.812078625,61.0,74.0
869,247.62636452499999,247.812078625,61.0,63.0
870,246.91565094999999,247.8227929,37.0,77.0
871,247.6799359,248.0174355625,66.0,71.0
872,247.712078725,248.1317211625,42.0,72.0
873,247.7745786625,248.15850685,70.0,66.0
874,248.6281492375,249.1245773125,41.0,75.0
875,248.5656493,249.17279155,61.0,68.0
876,248.7424348375,249.2531486125,68.0,53.0
877,248.6138635375,249.3531485125,65.0,73.0
878,249.4531484125,249.7460052625,63.0,67.0
879,249.4745769625,249.9352907875,66.0,73.0
880,249.46921982499998,250.45314741250002,39.0,78.0
881,250.3638617875,250.7888613625,66.0,67.0
882,249.919219375,250.8210041875,63.0,65.0
883,250.36921892499998,250.8942184,70.0,69.0
884,251.6102891125,252.2174313625,56.0,80.0
885,251.947788775,252.2424313375,59.0,64.0
886,251.9799316,252.3388598125,63.0,67.0
887,252.0602886625,252.3942169,68.0,67.0
888,251.18707525,252.4531454125,44.0,80.0
889,252.78528793750002,252.9710020375,58.0,60.0
890,252.8710021375,253.3924301875,63.0,67.0
891,252.9031449625,253.476358675,66.0,73.0
892,252.876359275,253.66742991249998,39.0,71.0
893,253.319215975,253.89600111250002,58.0,67.0
894,253.769215525,253.9102868125,63.0,62.0
895,253.75850125,253.92992965,66.0,67.0
896,254.4245720125,255.0995713375,56.0,68.0
897,254.63350037499998,255.2031426625,68.0,71.0
898,254.5817147125,255.2709997375,63.0,69.0
899,254.504929075,255.28707115,59.0,67.0
900,255.0656428,255.7317135625,51.0,60.0
901,255.51564235,256.1781416875,59.0,67.0
902,256.32992724999997,256.754926825,59.0,62.0
903,256.3317129625,256.754926825,63.0,73.0
904,257.162069275,257.4638546875,59.0,79.0
905,257.1745692625,257.55849745,56.0,80.0
906,257.1674264125,257.5852831375,63.0,81.0
907,255.89957053749998,257.64064022499997,51.0,70.0
908,254.6085004,257.72992585,44.0,80.0
909,257.8531400125,258.0924254875,54.0,65.0
910,257.9281399375,258.4602822625,58.0,73.0
911,258.008497,258.4709965375,66.0,80.0
912,257.98706845,258.48706795,61.0,69.0
913,258.8799247,259.50135265,61.0,76.0
914,259.2781385875,259.7317095625,54.0,76.0
915,258.44421085,260.690637175,49.0,67.0
916,257.997782725,260.72278,42.0,79.0
917,259.7209952875,261.1817081125,58.0,65.0
918,259.71563815,261.2174223625,61.0,65.0
919,261.4781363875,261.8852788375,58.0,69.0
920,261.4781363875,261.9102788125,61.0,75.0
921,261.4781363875,262.0424215375,42.0,81.0
922,261.4781363875,262.27277845000003,66.0,75.0
923,262.3352783875,262.7817065125,56.0,72.0
924,262.3352783875,262.8138493375,61.0,79.0
925,262.3352783875,262.826349325,65.0,80.0
926,262.3352783875,262.85849215,41.0,82.0
927,263.1924203875,263.454920125,58.0,71.0
928,263.1924203875,263.7174198625,63.0,75.0
929,263.6209913875,264.1459908625,58.0,68.0
930,263.1924203875,264.24420505,39.0,76.0
931,264.04956238750003,264.3495620875,63.0,80.0
932,264.04956238750003,264.4674191125,66.0,79.0
933,264.9067043875,265.5067037875,63.0,74.0
934,264.9067043875,265.819203475,56.0,74.0
935,265.3352753875,266.09241748750003,51.0,70.0
936,265.7638463875,266.14420315,59.0,74.0
937,264.9067043875,266.154917425,44.0,77.0
938,265.7638463875,266.183488825,68.0,74.0
939,265.7638463875,266.2317030625,63.0,78.0
940,266.1924173875,266.2817030125,56.0,81.0
941,266.6209883875,266.8638452875,58.0,69.0
942,266.6209883875,267.2281306375,63.0,76.0
943,267.0495593875,267.56920172499997,58.0,72.0
944,266.6209883875,267.676344475,51.0,78.0
945,267.4781303875,267.7352729875,63.0,80.0
946,267.4781303875,267.8781299875,66.0,77.0
947,268.5388436125,269.2424143375,66.0,75.0
948,268.5067007875,269.2888428625,61.0,70.0
949,268.4281294375,269.30134284999997,58.0,72.0
950,268.3388438125,269.347771375,54.0,66.0
951,269.53527118750003,269.9459850625,66.0,79.0
952,269.547771175,270.00134215,61.0,77.0
953,269.5424140375,270.0352706875,58.0,77.0
954,270.033484975,270.226341925,54.0,63.0
955,270.3816989125,270.562055875,54.0,69.0
956,270.48705595,270.61205582499997,58.0,74.0
957,270.5602701625,270.64598436250003,61.0,75.0
958,270.60134155000003,270.733484275,66.0,80.0
959,269.033485975,270.9316983625,49.0,69.0
960,268.4602722625,271.062055375,42.0,80.0
961,271.6513405,271.7781260875,37.0,78.0
962,271.5316977625,272.247768475,61.0,62.0
963,271.6209833875,272.247768475,65.0,76.0
964,271.71562615,272.26741131250003,68.0,72.0
965,273.3066959875,274.0495523875,51.0,74.0
966,273.5102672125,274.0799095,54.0,75.0
967,273.7459812625,274.0852666375,58.0,70.0
968,273.997766725,274.18705225,61.0,69.0
969,274.3174092625,274.454909125,63.0,72.0
970,274.61562325,274.8084802,66.0,68.0
971,274.9495514875,275.37812248750004,68.0,63.0
972,275.3352653875,275.447765275,70.0,72.0
973,273.11205332500003,276.519192775,46.0,69.0
974,272.8388393125,276.5709784375,39.0,87.0
975,275.8924076875,276.869192425,70.0,53.0
976,276.0424075375,276.8781209875,75.0,76.0
