,start,end,pitch,velocity
0,46.16278893958334,46.896340935416674,57.0,87.0
1,46.95226193958334,47.25818272708334,57.0,87.0
2,47.34699843958334,47.61673504791668,57.0,102.0
3,47.74173493958334,48.488444818750004,62.0,83.0
4,48.53120793958334,48.80752348958334,62.0,87.0
5,48.92594443958334,49.26311520000001,62.0,93.0
6,49.32068093958334,49.66114117083334,60.0,87.0
7,49.71541743958334,50.16443020833334,62.0,85.0
8,50.11015393958334,50.891403262500006,64.0,95.0
9,50.89962693958334,52.16607321041668,62.0,74.0
10,52.478572939583344,53.09863819166667,64.0,93.0
11,53.26804593958334,53.577256197916675,62.0,83.0
12,53.66278243958334,53.99008478750001,64.0,83.0
13,54.05751893958334,54.42265020208334,62.0,74.0
14,54.45225543958334,54.82396564375001,57.0,93.0
15,54.84699193958334,55.23350476250001,60.0,85.0
16,55.24172843958334,55.64304388125001,59.0,80.0
17,55.63646493958334,58.16606801041667,57.0,83.0
18,58.794356939583345,59.38810642500001,57.0,93.0
19,59.58382993958334,59.85521128333334,57.0,83.0
20,59.97856643958334,60.29600037500001,57.0,93.0
21,60.37330293958334,61.01474975208334,69.0,93.0
22,61.16277593958334,61.83711746041668,69.0,95.0
23,61.95224893958334,62.29106443541668,67.0,83.0
24,62.34698543958334,62.62001151875001,69.0,83.0
25,62.74172193958334,63.05915587500001,71.0,87.0
26,63.13645843958334,63.26310306666667,69.0,83.0
27,63.33382668958334,63.46376078750001,71.0,68.0
28,63.531194939583344,64.77790438541668,69.0,93.0
29,65.11014093958335,65.70389042500001,71.0,93.0
30,65.89961393958335,66.17921896041668,69.0,85.0
31,66.29435043958334,66.58875807916668,71.0,80.0
32,66.68908693958335,66.99994193333335,69.0,90.0
33,67.08382343958334,67.45224417291668,64.0,87.0
34,67.47855993958335,67.79599387500001,67.0,80.0
35,67.87329643958334,68.19730931666668,66.0,80.0
36,68.26803293958335,70.82230704166668,64.0,90.0
37,71.42592493958334,72.03776651458334,69.0,93.0
38,72.21539793958334,72.48184507708335,71.0,90.0
39,72.61013443958335,72.89467366666668,69.0,93.0
40,73.00487093958334,73.57065992291668,57.0,95.0
41,73.79434393958334,74.4571723125,57.0,85.0
42,74.58381693958334,74.87822457916668,62.0,87.0
43,74.97855343958335,75.31078999375,62.0,87.0
44,75.37328993958334,75.69730281666668,60.0,80.0
45,75.76802643958335,76.05256566666668,62.0,87.0
46,76.16276293958335,77.43249868125001,64.0,90.0
47,77.74170893958335,78.4242741375,67.0,87.0
48,78.53118193958335,78.7894054,64.0,95.0
49,78.92591843958334,79.22361555,62.0,80.0
50,79.32065493958335,79.96210175208334,60.0,80.0
51,80.11012793958335,80.39795663750002,62.0,83.0
52,80.50486443958334,80.89137726250001,59.0,74.0
53,80.89960093958335,83.43907242291668,57.0,87.0
54,84.05749293958334,84.79104493541668,57.0,87.0
55,84.84696593958334,85.15288672708334,57.0,87.0
56,85.24170243958335,85.51143904791668,57.0,102.0
57,85.63643893958334,86.38314881875002,62.0,83.0
58,86.42591193958334,86.70222748958335,62.0,87.0
59,86.82064843958335,87.15781920000002,62.0,93.0
60,87.21538493958334,87.55584517083335,60.0,87.0
61,87.61012143958335,88.05913420833335,62.0,85.0
62,88.00485793958335,88.78610726250001,64.0,95.0
63,88.79433093958335,90.06077721041667,62.0,74.0
64,90.37327693958335,90.99334219166668,64.0,93.0
65,91.16274993958335,91.47196019791669,62.0,83.0
66,91.55748643958334,91.88478878750001,64.0,83.0
67,91.95222293958335,92.31735420208335,62.0,74.0
68,92.34695943958334,92.71866964375002,57.0,93.0
69,92.74169593958335,93.12820876250001,60.0,85.0
70,93.13643243958334,93.53774788125001,59.0,80.0
71,93.53116893958335,96.06077201041668,57.0,83.0
72,96.68906093958334,97.28281042500001,57.0,93.0
73,97.47853393958334,97.74991528333335,57.0,83.0
74,97.87327043958335,98.19070437500001,57.0,93.0
75,98.26800693958334,98.90945375208335,69.0,93.0
76,99.05747993958335,99.73182146041668,69.0,95.0
77,99.84695293958335,100.18576843541668,67.0,83.0
78,100.24168943958335,100.51471551875001,69.0,83.0
79,100.63642593958335,100.95385987500002,71.0,87.0
80,101.03116243958335,101.15780706666668,69.0,83.0
81,101.22853068958335,101.35846478750001,71.0,68.0
82,101.42589893958335,102.67260838541668,69.0,93.0
83,103.00484493958335,103.59859442500002,71.0,93.0
84,103.79431793958335,104.07392296041668,69.0,85.0
85,104.18905443958334,104.48346207916669,71.0,80.0
86,104.58379093958335,104.89464593333335,69.0,90.0
87,104.97852743958335,105.34694817291668,64.0,87.0
88,105.37326393958335,105.69069787500001,67.0,80.0
89,105.76800043958335,106.09201331666668,66.0,80.0
90,106.16273693958335,108.71701104166668,64.0,90.0
91,109.32062893958334,109.93247051458334,69.0,93.0
92,110.11010193958334,110.37654907708335,71.0,90.0
93,110.50483843958335,110.78937766666668,69.0,93.0
94,110.89957493958335,111.46536392291668,57.0,95.0
95,111.68904793958335,112.35187631250001,57.0,85.0
96,112.47852093958335,112.77292857916669,62.0,87.0
97,112.87325743958336,113.20549399375001,62.0,87.0
98,113.26799393958335,113.59200681666668,60.0,80.0
99,113.66273043958336,113.94726966666668,62.0,87.0
100,114.05746693958335,115.32720268125001,64.0,90.0
101,115.63641293958335,116.32182140625001,67.0,87.0
102,116.42943730208334,116.68937108125002,64.0,95.0
103,116.82678830208334,117.12645718125002,62.0,80.0
104,117.22413930208334,117.86983467708335,60.0,80.0
105,118.01884130208335,118.30857640625001,62.0,83.0
106,118.41619230208335,118.80526515625002,59.0,74.0
107,118.81354330208335,121.36983473541667,57.0,87.0
108,121.99235130208335,122.71567583333335,69.0,102.0
109,122.78475472083335,123.06764921250002,71.0,93.0
110,123.17949122083334,123.51172777500001,69.0,102.0
111,123.57422772083335,124.34396389583335,67.0,93.0
112,124.36370072083335,124.99856859166668,64.0,102.0
113,125.15317372083335,125.87356783333335,69.0,102.0
114,125.94264672083335,126.22554121250002,71.0,93.0
115,126.33738322083335,126.66961977500002,69.0,102.0
116,126.73211972083335,127.50185589583334,67.0,93.0
117,127.52159272083335,128.15646059166667,64.0,102.0
118,128.31106572083334,128.9261967666667,67.0,93.0
119,129.10053872083336,129.4245515979167,67.0,80.0
120,129.49527522083335,129.8176433625,64.0,87.0
121,129.89001172083334,130.22224827500003,62.0,93.0
122,130.28474822083334,130.59724795000002,64.0,93.0
123,130.67948472083336,131.4163261875,66.0,80.0
124,131.46895772083334,133.9294819041667,64.0,102.0
125,134.62684972083335,135.24198076666667,57.0,93.0
126,135.41632272083336,135.70415141875003,57.0,87.0
127,135.81105922083336,136.07257215208335,57.0,87.0
128,136.20579572083335,136.8702688291667,62.0,87.0
129,136.99526872083334,137.74691280625,62.0,87.0
130,137.78474172083335,138.11039933333336,60.0,87.0
131,138.17947822083335,138.4640174479167,62.0,87.0
132,138.57421472083334,138.9557933375,64.0,93.0
133,138.96895122083336,139.16796420625002,62.0,69.0
134,139.16631947083334,139.35875351458336,64.0,74.0
135,139.36368772083335,140.65809449375,62.0,87.0
136,140.94263372083336,141.54789635416668,64.0,93.0
137,141.73210672083334,142.04131697916668,62.0,80.0
138,142.12684322083334,142.42618506666668,64.0,87.0
139,142.52157972083336,142.8702636291667,62.0,83.0
140,142.91631622083335,143.27980274791668,57.0,87.0
141,143.31105272083335,143.68605239583334,60.0,87.0
142,143.70578922083337,144.10545992708336,59.0,87.0
143,144.10052572083336,147.15973359583336,57.0,83.0
144,172.52155372083337,173.2551057166667,57.0,87.0
145,173.31102672083335,173.61694750833334,57.0,87.0
146,173.70576322083335,173.9754998291667,57.0,102.0
147,174.10049972083334,174.8472096,62.0,83.0
148,174.88997272083336,175.16628827083335,62.0,87.0
149,175.28470922083335,175.62187998125003,62.0,93.0
150,175.67944572083337,176.01990595208335,60.0,87.0
151,176.07418222083336,176.52319498958337,62.0,85.0
152,176.46891872083336,177.25016804375002,64.0,95.0
153,177.25839172083334,178.5248379916667,62.0,74.0
154,178.83733772083335,179.4574029729167,64.0,93.0
155,179.62681072083336,179.9360209791667,62.0,83.0
156,180.02154722083336,180.34884956875004,64.0,83.0
157,180.41628372083335,180.78141498333335,62.0,74.0
158,180.81102022083337,181.18273042500002,57.0,93.0
159,181.20575672083336,181.59226954375004,60.0,85.0
160,181.60049322083336,182.00180866250003,59.0,80.0
161,181.99522972083335,184.52483279166668,57.0,83.0
162,185.15312172083335,185.74687120625003,57.0,93.0
163,185.94259472083337,186.21397606458336,57.0,83.0
164,186.33733122083336,186.65476515625002,57.0,93.0
165,186.73206772083336,187.37351453333338,69.0,93.0
166,187.52154072083334,188.1958822416667,69.0,95.0
167,188.31101372083336,188.6498292166667,67.0,83.0
168,188.70575022083335,188.97877630000002,69.0,83.0
169,189.10048672083337,189.41792065625003,71.0,87.0
170,189.49522322083334,189.6218678479167,69.0,83.0
171,189.69259147083335,189.82252556875002,71.0,68.0
172,189.88995972083336,191.1366691666667,69.0,93.0
173,191.46890572083336,192.06265520625004,71.0,93.0
174,192.25837872083338,192.5379837416667,69.0,85.0
175,192.65311522083334,192.9475228604167,71.0,80.0
176,193.04785172083336,193.35870671458338,69.0,90.0
177,193.44258822083336,193.8110089541667,64.0,87.0
178,193.83732472083335,194.15475865625,67.0,80.0
179,194.23206122083337,194.55607409791668,66.0,80.0
180,194.62679772083337,197.1810718229167,64.0,90.0
181,197.78468972083334,198.39653129583337,69.0,93.0
182,198.57416272083336,198.84060985833338,71.0,90.0
183,198.96889922083335,199.2534384479167,69.0,93.0
184,199.36363572083337,199.9294247041667,57.0,95.0
185,200.15310872083336,200.81593709375002,57.0,85.0
186,200.94258172083335,201.23698936041671,62.0,87.0
187,201.33731822083337,201.66955477500002,62.0,87.0
188,201.73205472083336,202.0560675979167,60.0,80.0
189,202.12679122083335,202.4113304479167,62.0,87.0
190,202.52152772083338,203.7912634625,64.0,90.0
191,204.10047372083335,204.78303891875004,67.0,87.0
192,204.88994672083336,205.14817018125,64.0,95.0
193,205.28468322083336,205.58238033125002,62.0,80.0
194,205.67941972083338,206.32086653333334,60.0,80.0
195,206.46889272083337,206.75672141875003,62.0,83.0
196,206.86362922083336,207.25014204375003,59.0,74.0
197,207.25836572083335,209.79783720416668,57.0,87.0
198,210.41625772083336,211.13665183333336,69.0,102.0
199,211.20573072083334,211.48862521250004,71.0,93.0
200,211.60046722083337,211.93270377500002,69.0,102.0
201,211.99520372083336,212.76493989583338,67.0,93.0
202,212.78467672083337,213.4195445916667,64.0,102.0
203,213.57414972083336,214.29454383333336,69.0,102.0
204,214.36362272083335,214.64651721250004,71.0,93.0
205,214.75835922083337,215.09059577500003,69.0,102.0
206,215.15309572083336,215.92283189583338,67.0,93.0
207,215.94256872083338,216.5774365916667,64.0,102.0
208,216.73204172083337,217.3471727666667,67.0,93.0
209,217.52151472083335,217.8455275979167,67.0,80.0
210,217.91625122083337,218.23861936250003,64.0,87.0
211,218.31098772083337,218.64322427500002,62.0,93.0
212,218.70572422083336,219.01822395000005,64.0,93.0
213,219.10046072083338,219.83730218750003,66.0,80.0
214,219.88993372083337,222.35045790416672,64.0,102.0
215,223.04782572083337,223.6629567666667,57.0,93.0
216,223.83729872083336,224.12512741875003,57.0,87.0
217,224.23203522083338,224.49354815208335,57.0,87.0
218,224.62677172083335,225.29124482916671,62.0,87.0
219,225.41624472083336,226.16788880625003,62.0,87.0
220,226.20571772083338,226.53137533333336,60.0,87.0
221,226.60045422083337,226.8849934479167,62.0,87.0
222,226.99519072083336,227.37676933750004,64.0,93.0
223,227.38992722083336,227.58894020625002,62.0,69.0
224,227.58729547083337,227.77972951458338,64.0,74.0
225,227.78466372083335,229.07907049375004,62.0,87.0
226,229.36360972083338,229.9688723541667,64.0,93.0
227,230.15308272083337,230.4622929791667,62.0,80.0
228,230.54781922083336,230.8471610666667,64.0,87.0
229,230.94255572083335,231.29123962916668,62.0,83.0
230,231.33729222083338,231.7007787479167,57.0,87.0
231,231.73202872083337,232.10702839583337,60.0,87.0
232,232.12676522083336,232.52643592708336,59.0,87.0
233,232.52150172083338,235.58070959583335,57.0,83.0
234,235.67939372083336,236.39978783333336,69.0,102.0
235,236.46886672083338,236.7517612125,71.0,93.0
236,236.86360322083337,237.19583977500002,69.0,102.0
237,237.25833972083336,238.02807589583335,67.0,93.0
238,238.04781272083335,238.6826805916667,64.0,102.0
239,238.83728572083336,239.55767983333337,69.0,102.0
240,239.62675872083338,239.90965321250002,71.0,93.0
241,240.02149522083337,240.35373177500003,69.0,102.0
242,240.41623172083337,241.18596789583336,67.0,93.0
243,241.20570472083335,241.8405725916667,64.0,102.0
244,241.99517772083337,242.61030876666672,67.0,93.0
245,242.78465072083338,243.1086635979167,67.0,80.0
246,243.17938722083335,243.50175536250003,64.0,87.0
247,243.57412372083337,243.90636027500005,62.0,93.0
248,243.96886022083336,244.28135995000002,64.0,93.0
249,244.36359672083336,245.10043818750003,66.0,80.0
250,245.15306972083337,247.6135939041667,64.0,102.0
251,248.31096172083335,248.9260927666667,57.0,93.0
252,249.10043472083336,249.38826341875003,57.0,87.0
253,249.49517122083336,249.75668415208338,57.0,87.0
254,249.88990772083338,250.5543808291667,62.0,87.0
255,250.67938072083336,251.43102480625004,62.0,87.0
256,251.46885372083335,251.7945113333334,60.0,87.0
257,251.86359022083337,252.1481294479167,62.0,87.0
258,252.2583267208334,252.6399053375,64.0,93.0
259,252.65306322083336,252.85207620625005,62.0,69.0
260,252.85043147083337,253.04286551458335,64.0,74.0
261,253.04779972083338,254.34220649375004,62.0,87.0
262,254.62674572083336,255.23200835416668,64.0,93.0
263,255.41621872083334,255.72542897916668,62.0,80.0
264,255.81095522083336,256.1102970666667,64.0,87.0
265,256.2056917208334,256.5543756291667,62.0,83.0
266,256.60042822083335,256.9639147479167,57.0,87.0
267,256.9951647208334,257.37016439583334,60.0,87.0
268,257.3899012208334,257.7895719270834,59.0,87.0
269,257.78463772083336,260.8438455958334,57.0,83.0
270,260.94252972083336,261.5576607666667,57.0,93.0
271,261.73200272083335,262.01983141875,57.0,87.0
272,262.1267392208334,262.3882521520834,57.0,87.0
273,262.5214757208334,263.1859488291667,62.0,87.0
274,263.3109487208334,264.06259280625005,62.0,87.0
275,264.10042172083337,264.42607933333335,60.0,87.0
276,264.4951582208334,264.7796974479167,62.0,87.0
277,264.88989472083335,265.2714733375,64.0,93.0
278,265.2846312208334,265.48364420625006,62.0,69.0
279,265.4819994708334,265.67443351458337,64.0,74.0
280,265.6793677208334,266.97377449375006,62.0,87.0
281,267.25502425,268.1892339666667,64.0,87.0
282,268.24515497083337,268.73035191875005,62.0,69.0
283,268.78462818750006,269.32081193333335,64.0,74.0
284,269.26324619375004,269.77146943750006,62.0,87.0
285,269.77146943750006,270.24844270833336,57.0,87.0
286,270.2040348520834,270.66456076875005,60.0,93.0
287,270.6234423833334,271.0675209458334,59.0,87.0
288,271.0412051791667,274.09218937708334,57.0,93.0
