,start,end,pitch,velocity
0,8.268084939583334,8.807558156250002,57.0,83.0
1,8.662821439583334,9.230255158333335,52.0,56.0
2,9.057557939583335,9.560846977083335,60.0,83.0
3,9.057557939583335,9.648017954166669,57.0,87.0
4,8.268084939583334,9.771373110416668,45.0,83.0
5,9.847030939583334,10.314135797916668,62.0,85.0
6,10.241767439583334,10.708872297916669,57.0,68.0
7,10.636503939583335,11.047687793750002,62.0,80.0
8,9.847030939583334,11.123345622916668,50.0,70.0
9,11.031240439583335,11.399661172916668,57.0,71.0
10,10.636503939583335,11.449003235416669,65.0,87.0
11,11.425976939583336,12.133213168750002,60.0,70.0
12,11.820713439583335,12.309199858333335,55.0,68.0
13,12.215449939583335,12.659528502083335,60.0,51.0
14,12.215449939583335,12.662817972916669,64.0,93.0
15,11.425976939583336,12.776304716666669,48.0,71.0
16,13.004922939583336,13.789461733333335,55.0,69.0
17,13.004922939583336,13.883211652083336,62.0,80.0
18,13.794395939583335,14.220382412500003,59.0,72.0
19,13.399659439583335,14.376632277083335,50.0,59.0
20,13.004922939583336,14.38485595416667,43.0,74.0
21,14.189132439583336,14.853605547916668,55.0,83.0
22,14.583868939583336,15.060842210416668,60.0,80.0
23,14.978605439583335,15.452289239583335,55.0,83.0
24,15.373341939583336,15.838802062500003,64.0,93.0
25,14.583868939583336,16.03781504791667,48.0,71.0
26,15.768078439583336,16.110183406250002,55.0,102.0
27,16.162814939583335,16.61511717916667,62.0,83.0
28,16.557551439583335,16.83715646041667,57.0,87.0
29,16.162814939583335,17.16610354375,50.0,80.0
30,16.952287939583336,17.317419202083336,60.0,93.0
31,17.347024439583336,17.733537262500004,59.0,68.0
32,17.741760939583337,18.32235254166667,57.0,74.0
33,18.136497439583337,18.64307594791667,52.0,63.0
34,18.531233939583338,18.899654672916668,64.0,83.0
35,18.531233939583338,18.960509883333337,57.0,83.0
36,19.320706939583335,19.39307529791667,57.0,51.0
37,18.925970439583335,19.473667333333335,52.0,53.0
38,19.320706939583335,19.71873291041667,60.0,68.0
39,19.320706939583335,19.754917089583337,64.0,80.0
40,19.912811689583336,20.07892996666667,57.0,68.0
41,20.110179939583336,20.31577186666667,59.0,69.0
42,20.307548189583336,20.40458757916667,60.0,102.0
43,20.504916439583337,20.63156106666667,62.0,95.0
44,19.715443439583336,20.722021514583336,52.0,51.0
45,17.741760939583337,20.832218787500004,45.0,83.0
46,20.899652939583337,21.496691895833337,53.0,80.0
47,20.899652939583337,21.80425741875,60.0,72.0
48,21.689125939583338,22.483533145833338,53.0,87.0
49,22.083862439583335,22.54274362083334,57.0,83.0
50,21.294389439583338,22.66938824791667,48.0,54.0
51,22.478598939583335,22.976953770833337,60.0,72.0
52,22.873335439583336,23.361821858333336,48.0,41.0
53,23.268071939583336,23.624979525000004,57.0,93.0
54,20.899652939583337,23.837150393750004,41.0,83.0
55,23.465440189583337,23.90293981041667,48.0,68.0
56,23.662808439583337,23.921031900000003,53.0,87.0
57,23.860176689583337,23.990110787500004,57.0,72.0
58,24.057544939583337,24.674320720833336,59.0,71.0
59,24.84701793958334,25.060833543750004,52.0,83.0
60,24.452281439583338,25.095372987500003,47.0,56.0
61,24.84701793958334,25.149649256250004,55.0,87.0
62,24.84701793958334,25.23024129166667,59.0,87.0
63,24.057544939583337,25.258201793750004,40.0,83.0
64,25.24175443958334,25.539451550000003,52.0,85.0
65,25.636490939583336,26.092082650000005,57.0,71.0
66,26.031227439583336,26.472016531250006,52.0,74.0
67,25.636490939583336,26.50820071041667,45.0,80.0
68,26.425963939583337,26.516424387500003,57.0,66.0
69,26.425963939583337,26.56741118541667,60.0,74.0
70,27.215436939583338,27.84537060416667,55.0,71.0
71,27.215436939583338,28.095370387500004,62.0,70.0
72,28.00490993958334,28.38813329166667,55.0,87.0
73,27.61017343958334,28.401291175000004,50.0,65.0
74,27.215436939583338,28.46379112083334,43.0,80.0
75,28.794382939583336,29.235172031250006,57.0,71.0
76,28.794382939583336,29.42596133958334,62.0,71.0
77,29.386487689583337,29.764776835416672,57.0,66.0
78,29.189119439583337,29.797671543750006,45.0,63.0
79,29.583855939583337,29.809184691666673,62.0,85.0
80,28.794382939583336,29.83385572291667,38.0,87.0
81,29.781224189583337,30.036158179166673,66.0,69.0
82,29.978592439583338,30.11181600833334,62.0,87.0
83,30.373328939583338,31.128262495833336,59.0,72.0
84,30.373328939583338,31.157867733333337,64.0,80.0
85,31.16280193958334,31.40951225208334,67.0,93.0
86,31.55753843958334,31.749972483333337,66.0,60.0
87,30.76806543958334,32.180893162500006,47.0,60.0
88,31.952274939583337,32.50655077500001,64.0,93.0
89,32.34701143958334,32.87826097916667,47.0,68.0
90,32.74174793958334,33.36839213333334,59.0,74.0
91,32.74174793958334,33.38977369375001,62.0,87.0
92,30.373328939583338,33.43253681458334,40.0,80.0
93,33.13648443958334,33.48187887708334,47.0,68.0
94,33.531220939583335,34.322338675000005,57.0,74.0
95,33.531220939583335,34.32891761666667,64.0,87.0
96,34.320693939583336,34.713785704166675,60.0,87.0
97,33.925957439583335,35.35194304583334,52.0,59.0
98,35.11016693958334,35.86510049583334,69.0,95.0
99,34.715430439583336,35.92595570625001,57.0,69.0
100,35.50490343958334,36.088784512500006,52.0,59.0
101,35.89963993958334,36.215429139583335,64.0,85.0
102,35.89963993958334,36.22036334583334,60.0,80.0
103,33.531220939583335,36.268060672916675,45.0,83.0
104,36.68911293958334,37.19898091875,55.0,65.0
105,36.68911293958334,37.527928002083335,62.0,67.0
106,37.47858593958334,37.916085560416676,55.0,85.0
107,37.08384943958334,38.08384857291667,50.0,61.0
108,36.68911293958334,38.10029592708334,43.0,80.0
109,37.87332243958334,38.30588785416667,59.0,70.0
110,38.26805893958334,38.76805850625001,60.0,83.0
111,38.66279543958334,39.12825556250001,55.0,85.0
112,38.26805893958334,39.3650974625,48.0,74.0
113,39.05753193958334,39.904570679166675,64.0,87.0
114,39.84700493958334,40.697333150000006,62.0,72.0
115,40.63647793958334,40.88812245833334,55.0,80.0
116,40.83384618958334,41.01970129166667,59.0,68.0
117,40.241741439583336,41.23351689583334,50.0,64.0
118,39.84700493958334,41.23680636666667,43.0,85.0
119,41.03121443958334,41.399635172916675,62.0,87.0
120,41.42595093958334,41.77956905416667,57.0,80.0
121,41.42595093958334,41.797661143750005,53.0,87.0
122,41.42595093958334,41.87331897291667,41.0,83.0
123,42.21542393958334,42.84206813333334,40.0,83.0
124,42.21542393958334,42.90785755000001,52.0,85.0
125,43.00489693958334,43.66114637083334,57.0,80.0
126,43.39963343958334,43.82233044166667,52.0,74.0
127,43.79436993958334,44.271343210416674,60.0,85.0
128,44.18910643958334,44.61180344166667,59.0,74.0
129,44.58384293958334,45.039434650000004,57.0,70.0
130,44.97857943958334,45.218710810416674,52.0,60.0
131,45.37331593958334,45.50818424375001,57.0,69.0
132,43.00489693958334,45.57726313125001,45.0,70.0
133,45.37331593958334,45.58877627916667,60.0,69.0
134,46.16278893958334,46.73680160000001,64.0,80.0
135,46.55752543958334,47.14798545416667,52.0,41.0
136,46.95226193958334,47.45555097708334,60.0,87.0
137,46.16278893958334,47.508182510416674,45.0,83.0
138,47.34699843958334,47.631537666666674,52.0,67.0
139,47.74173493958334,48.23022135833334,62.0,74.0
140,48.13647143958334,48.58383947291667,57.0,60.0
141,48.53120793958334,48.66936571458334,62.0,68.0
142,48.53120793958334,48.69897095208334,65.0,68.0
143,47.74173493958334,48.74173407291667,50.0,66.0
144,49.32068093958334,49.74008847083334,60.0,69.0
145,49.71541743958334,49.90620674791668,62.0,70.0
146,50.11015393958334,50.27791695208334,55.0,69.0
147,49.32068093958334,50.84206120000001,48.0,68.0
148,50.11015393958334,50.955547943750005,64.0,80.0
149,50.50489043958334,50.985153181250006,55.0,72.0
150,50.89962693958334,51.562455312500006,62.0,74.0
151,51.68909993958334,51.94732340000001,55.0,80.0
152,51.68909993958334,51.95061287083334,59.0,85.0
153,51.29436343958334,52.12659956041667,50.0,59.0
154,50.89962693958334,52.13317850208334,43.0,61.0
155,52.478572939583344,52.96376988750001,60.0,66.0
156,52.873309439583345,53.330545885416676,55.0,68.0
157,53.26804593958334,53.636466672916676,64.0,93.0
158,52.478572939583344,53.83876912916668,48.0,65.0
159,54.05751893958334,54.213768804166676,57.0,69.0
160,54.05751893958334,54.618373716666675,62.0,69.0
161,54.45225543958334,54.71376837083334,57.0,67.0
162,54.05751893958334,55.23514949791667,50.0,64.0
163,54.84699193958334,55.29929417916667,62.0,72.0
164,54.84699193958334,55.39304409791667,65.0,83.0
165,55.63646493958334,56.34370116875001,64.0,74.0
166,56.42593793958334,56.60356936458334,60.0,80.0
167,56.03120143958334,57.04600319166668,52.0,66.0
168,55.63646493958334,57.04764792708334,45.0,68.0
169,56.82067443958334,57.240081970833344,59.0,80.0
170,57.21541093958334,58.065739150000006,57.0,74.0
171,57.61014743958334,58.215410072916676,52.0,67.0
172,58.004883939583344,58.39139676250001,60.0,72.0
173,57.21541093958334,58.41771252916668,45.0,80.0
174,58.004883939583344,58.43415988333334,64.0,80.0
175,58.794356939583345,59.62988253125001,53.0,69.0
176,58.794356939583345,59.647974620833345,60.0,68.0
177,59.58382993958334,60.046000591666676,57.0,87.0
178,58.794356939583345,60.202250456250006,41.0,80.0
179,59.189093439583345,60.32067140625001,48.0,55.0
180,59.97856643958334,60.996657662500006,53.0,102.0
181,61.16277593958334,61.29764424375001,57.0,87.0
182,60.76803943958334,61.43086781250001,48.0,59.0
183,60.37330293958334,61.457183579166674,41.0,74.0
184,61.95224893958334,62.488432685416676,59.0,60.0
185,61.95224893958334,62.78777453125001,64.0,71.0
186,61.95224893958334,62.827248181250006,40.0,74.0
187,62.34698543958334,62.86507709583334,47.0,54.0
188,62.74172193958334,63.05751113958334,59.0,87.0
189,63.531194939583344,64.14797072083334,60.0,68.0
190,63.531194939583344,64.17593122291667,57.0,69.0
191,64.32066793958334,64.58547034166668,60.0,70.0
192,64.32066793958334,64.60027296041667,57.0,71.0
193,64.32066793958334,64.60356243125001,64.0,80.0
194,63.531194939583344,64.65454922916668,45.0,74.0
195,63.925931439583344,64.65948343541667,52.0,63.0
196,65.11014093958335,65.58382473958335,55.0,55.0
197,65.11014093958335,65.91277182291668,59.0,65.0
198,65.89961393958335,66.37494247500001,55.0,87.0
199,65.11014093958335,66.45717924583334,43.0,80.0
200,65.50487743958334,66.47198186458334,50.0,56.0
201,66.68908693958335,66.92921831041667,57.0,74.0
202,66.68908693958335,67.12329708958335,62.0,74.0
203,67.08382343958334,67.5690203875,57.0,85.0
204,66.68908693958335,67.84204646666667,50.0,80.0
205,67.47855993958335,67.87658591041668,66.0,80.0
206,67.87329643958334,68.04105945208335,57.0,80.0
207,68.26803293958335,69.11342694375001,64.0,74.0
208,69.05750593958335,69.572308125,59.0,80.0
209,68.66276943958334,70.02296562916668,47.0,54.0
210,69.84697893958334,70.37987321458334,64.0,80.0
211,69.84697893958334,70.39467583333334,59.0,69.0
212,70.63645193958334,70.85026754375001,59.0,72.0
213,70.24171543958334,70.90618854791667,47.0,54.0
214,68.26803293958335,70.95388587500001,40.0,70.0
215,70.63645193958334,71.44895123541667,67.0,85.0
216,71.42592493958334,72.23513476458335,57.0,68.0
217,71.42592493958334,72.25816106041668,60.0,69.0
218,71.82066143958335,72.42592407291667,52.0,64.0
219,72.21539793958334,72.91276575625001,64.0,93.0
220,72.61013443958335,73.12000241875,52.0,58.0
221,73.00487093958334,73.46704159166667,60.0,72.0
222,73.39960743958335,73.90947541875,52.0,41.0
223,73.79434393958334,74.18085676250001,57.0,80.0
224,73.79434393958334,74.18085676250001,60.0,93.0
225,73.79434393958334,74.18579096875001,64.0,87.0
226,71.42592493958334,74.33052768541668,45.0,80.0
227,74.18908043958335,74.54598802500001,52.0,68.0
228,74.58381693958334,75.09039544791668,55.0,68.0
229,74.58381693958334,75.38973729375002,59.0,69.0
230,74.97855343958335,75.81078956041668,50.0,68.0
231,74.58381693958334,75.83546059166667,43.0,80.0
232,75.37328993958334,75.84697373958335,55.0,93.0
233,75.76802643958335,76.20388132500001,59.0,95.0
234,76.16276293958335,76.99828853125001,60.0,95.0
235,76.55749943958334,77.03447271041668,55.0,72.0
236,76.16276293958335,77.52295912916668,48.0,71.0
237,76.95223593958335,77.73348526250001,64.0,93.0
238,77.74170893958335,78.69730021666668,62.0,55.0
239,78.53118193958335,78.98677365000002,55.0,74.0
240,78.92591843958334,79.07394462708335,59.0,80.0
241,78.13644543958334,79.14960245625001,50.0,61.0
242,77.74170893958335,79.15289192708335,43.0,74.0
243,79.32065493958335,79.77295717916668,57.0,60.0
244,79.32065493958335,79.82065450625001,41.0,85.0
245,79.32065493958335,79.82887818333334,53.0,71.0
246,80.11012793958335,80.62328538958334,59.0,70.0
247,80.11012793958335,80.68578533541668,40.0,80.0
248,80.11012793958335,80.77953525416667,52.0,70.0
249,80.89960093958335,81.69894235208335,57.0,74.0
250,81.29433743958334,81.74335020833334,52.0,68.0
251,81.68907393958335,82.15453406250002,60.0,80.0
252,82.08381043958335,82.49992850000001,59.0,80.0
253,82.47854693958334,82.90124394166668,57.0,87.0
254,82.87328343958335,83.08709904375002,52.0,72.0
255,83.26801993958334,83.41604612708335,52.0,93.0
256,83.26801993958334,83.95716407916667,60.0,83.0
257,83.66275643958335,83.96374302083335,52.0,90.0
258,80.89960093958335,83.97361143333335,45.0,74.0
259,84.05749293958334,84.63150560000001,64.0,80.0
260,84.45222943958335,85.04268945416668,52.0,41.0
261,84.84696593958334,85.35025497708335,60.0,87.0
262,84.05749293958334,85.40288651041668,45.0,83.0
263,85.24170243958335,85.52624166666668,52.0,67.0
264,85.63643893958334,86.12492535833334,62.0,74.0
265,86.03117543958335,86.47854347291668,57.0,60.0
266,86.42591193958334,86.56406971458334,62.0,68.0
267,86.42591193958334,86.59367495208335,65.0,68.0
268,85.63643893958334,86.63643807291668,50.0,66.0
269,87.21538493958334,87.63479247083335,60.0,69.0
270,87.61012143958335,87.80091074791667,62.0,70.0
271,88.00485793958335,88.17262095208335,55.0,69.0
272,87.21538493958334,88.73676520000001,48.0,68.0
273,88.00485793958335,88.85025194375001,64.0,80.0
274,88.39959443958335,88.87985718125002,55.0,72.0
275,88.79433093958335,89.45715931250001,62.0,74.0
276,89.58380393958335,89.84202740000002,55.0,80.0
277,89.58380393958335,89.84531687083334,59.0,85.0
278,89.18906743958334,90.02130356041668,50.0,59.0
279,88.79433093958335,90.02788250208334,43.0,61.0
280,90.37327693958335,90.85847388750001,60.0,66.0
281,90.76801343958334,91.22524988541669,55.0,68.0
282,91.16274993958335,91.53117067291669,64.0,93.0
283,90.37327693958335,91.73347312916668,48.0,65.0
284,91.95222293958335,92.10847280416668,57.0,69.0
285,91.95222293958335,92.51307771666669,62.0,69.0
286,92.34695943958334,92.60847237083335,57.0,67.0
287,91.95222293958335,93.12985349791668,50.0,64.0
288,92.74169593958335,93.19399817916668,62.0,72.0
289,92.74169593958335,93.28774809791668,65.0,83.0
290,93.53116893958335,94.23840516875002,64.0,74.0
291,94.32064193958335,94.49827336458334,60.0,80.0
292,93.92590543958335,94.94070719166668,52.0,66.0
293,93.53116893958335,94.94235192708335,45.0,68.0
294,94.71537843958335,95.13478597083335,59.0,80.0
295,95.11011493958335,95.96044315000002,57.0,74.0
296,95.50485143958335,96.11011407291669,52.0,67.0
297,95.89958793958334,96.28610076250001,60.0,72.0
298,95.11011493958335,96.31241652916668,45.0,80.0
299,95.89958793958334,96.32886388333334,64.0,80.0
300,96.68906093958334,97.52458653125001,53.0,69.0
301,96.68906093958334,97.54267862083334,60.0,68.0
302,97.47853393958334,97.94070459166669,57.0,87.0
303,96.68906093958334,98.09695445625002,41.0,80.0
304,97.08379743958335,98.21537540625002,48.0,55.0
305,97.87327043958335,98.89136166250002,53.0,102.0
306,99.05747993958335,99.19234824375002,57.0,87.0
307,98.66274343958335,99.32557181250002,48.0,59.0
308,98.26800693958334,99.35188757916669,41.0,74.0
309,99.84695293958335,100.38313668541669,59.0,60.0
310,99.84695293958335,100.68247853125001,64.0,71.0
311,99.84695293958335,100.72195218125002,40.0,74.0
312,100.24168943958335,100.75978109583335,47.0,54.0
313,100.63642593958335,100.95221513958334,59.0,87.0
314,101.42589893958335,102.04267472083335,60.0,68.0
315,101.42589893958335,102.07063522291668,57.0,69.0
316,102.21537193958335,102.48017434166668,60.0,70.0
317,102.21537193958335,102.49497696041668,57.0,71.0
318,102.21537193958335,102.49826643125002,64.0,80.0
319,101.42589893958335,102.54925322916668,45.0,74.0
320,101.82063543958336,102.55418743541668,52.0,63.0
321,103.00484493958335,103.47852873958335,55.0,55.0
322,103.00484493958335,103.80747582291669,59.0,65.0
323,103.79431793958335,104.26964647500002,55.0,87.0
324,103.00484493958335,104.35188324583335,43.0,80.0
325,103.39958143958334,104.36668586458335,50.0,56.0
326,104.58379093958335,104.82392231041668,57.0,74.0
327,104.58379093958335,105.01800108958335,62.0,74.0
328,104.97852743958335,105.46372438750002,57.0,85.0
329,104.58379093958335,105.73675046666668,50.0,80.0
330,105.37326393958335,105.77128991041668,66.0,80.0
331,105.76800043958335,105.93576345208335,57.0,80.0
332,106.16273693958335,107.00813094375002,64.0,74.0
333,106.95220993958335,107.46701212500001,59.0,80.0
334,106.55747343958335,107.91766962916668,47.0,54.0
335,107.74168293958336,108.27457721458335,64.0,80.0
336,107.74168293958336,108.28937983333336,59.0,69.0
337,108.53115593958334,108.74497154375001,59.0,72.0
338,108.13641943958335,108.80089254791669,47.0,54.0
339,106.16273693958335,108.84858987500002,40.0,70.0
340,108.53115593958334,109.34365523541668,67.0,85.0
341,109.32062893958334,110.12983876458335,57.0,68.0
342,109.32062893958334,110.15286506041669,60.0,69.0
343,109.71536543958335,110.32062807291668,52.0,64.0
344,110.11010193958334,110.80746975625001,64.0,93.0
345,110.50483843958335,111.01470641875002,52.0,58.0
346,110.89957493958335,111.36174559166669,60.0,72.0
347,111.29431143958335,111.80417941875001,52.0,41.0
348,111.68904793958335,112.07556076250002,57.0,80.0
349,111.68904793958335,112.07556076250002,60.0,93.0
350,111.68904793958335,112.08049496875002,64.0,87.0
351,109.32062893958334,112.22523168541669,45.0,80.0
352,112.08378443958335,112.44069202500002,52.0,68.0
353,112.47852093958335,112.98509944791668,55.0,68.0
354,112.47852093958335,113.28444129375002,59.0,69.0
355,112.87325743958336,113.70549356041668,50.0,68.0
356,112.47852093958335,113.73016459166668,43.0,80.0
357,113.26799393958335,113.74167773958335,55.0,93.0
358,113.66273043958336,114.09858532500002,59.0,95.0
359,114.05746693958335,114.89299253125002,60.0,95.0
360,114.45220343958336,114.92917671041668,55.0,72.0
361,114.05746693958335,115.41766312916668,48.0,71.0
362,114.84693993958335,115.62818926250002,64.0,93.0
363,115.63641293958335,116.59665584791668,62.0,55.0
364,116.42943730208334,116.88804658125001,55.0,74.0
365,116.82678830208334,116.97579492708334,59.0,80.0
366,116.03208630208334,117.05195386875,50.0,61.0
367,115.63641293958335,117.05526512708335,43.0,74.0
368,117.22413930208334,117.67943732291668,57.0,60.0
369,117.22413930208334,117.72745056875002,41.0,85.0
370,117.22413930208334,117.73572871458335,53.0,71.0
371,118.01884130208335,118.53539760208335,59.0,70.0
372,118.01884130208335,118.59831151041668,40.0,80.0
373,118.01884130208335,118.69268237291668,52.0,70.0
374,118.81354330208335,119.61817907708334,57.0,74.0
375,119.21089430208335,119.66288106458335,52.0,68.0
376,119.60824530208335,120.07678835625,60.0,80.0
377,120.00559630208335,120.42447048125001,59.0,80.0
378,120.40294730208335,120.82844399791668,57.0,87.0
379,120.80029830208335,121.01553009375002,52.0,72.0
380,121.19764930208335,121.34665592708335,52.0,93.0
381,121.19764930208335,121.89135792291668,60.0,83.0
382,121.59500030208335,121.89798043958335,52.0,90.0
383,118.81354330208335,121.90791421458334,45.0,74.0
384,121.99235130208335,122.55284702708335,57.0,85.0
385,121.99235130208335,122.57916279375002,60.0,87.0
386,122.38970230208335,122.86699149166668,52.0,70.0
387,121.99235130208335,123.12685968750002,45.0,87.0
388,122.98212297083334,123.15317545416669,52.0,80.0
389,122.78475472083335,123.16139913125002,60.0,105.0
390,123.17949122083334,123.42784626875002,57.0,87.0
391,123.37685947083335,123.62521451875001,60.0,80.0
392,123.57422772083335,124.12850355625001,59.0,74.0
393,123.96896422083334,124.49363481875001,47.0,68.0
394,124.36370072083335,124.65481888958335,52.0,83.0
395,124.36370072083335,124.65810836041668,55.0,87.0
396,123.57422772083335,124.83738452083335,40.0,71.0
397,124.75843722083334,125.02323962291668,47.0,64.0
398,125.15317372083335,125.30284464375002,55.0,65.0
399,125.15317372083335,125.33902882291669,59.0,66.0
400,125.15317372083335,125.64166013958335,53.0,68.0
401,125.15317372083335,125.75843635416668,57.0,67.0
402,125.74527847083336,126.05119925833336,53.0,87.0
403,125.54791022083334,126.12027814583335,48.0,68.0
404,125.94264672083335,126.13179129375001,57.0,95.0
405,125.15317372083335,126.41633052083336,41.0,71.0
406,126.14001497083335,126.44593575833335,60.0,93.0
407,126.33738322083335,126.63179086041669,48.0,83.0
408,126.73211972083335,127.11040886666669,52.0,74.0
409,126.73211972083335,127.24198770000001,55.0,87.0
410,127.32422447083334,127.52817166250001,52.0,68.0
411,126.73211972083335,127.73869779583335,40.0,85.0
412,127.12685622083335,127.74363200208334,47.0,61.0
413,127.52159272083335,127.77652671041668,59.0,80.0
414,127.71896097083335,127.90975027916669,55.0,93.0
415,127.91632922083335,128.03146070000003,52.0,93.0
416,128.31106572083334,128.5659997104167,55.0,74.0
417,128.31106572083334,128.76336796041667,60.0,66.0
418,128.70580222083336,129.14330184166667,55.0,72.0
419,129.10053872083336,129.54461728333334,64.0,95.0
420,128.31106572083334,129.56928831458336,48.0,80.0
421,129.49527522083335,129.669617175,55.0,83.0
422,129.89001172083334,130.25020877708334,62.0,71.0
423,130.28474822083334,130.73376098958335,57.0,90.0
424,129.89001172083334,130.82257670208335,50.0,71.0
425,130.67948472083336,130.92619503333336,66.0,87.0
426,131.46895772083334,131.96402308125002,64.0,87.0
427,132.06106247083335,132.34395696250002,59.0,70.0
428,132.25843072083336,132.45086476458334,64.0,83.0
429,132.45579897083334,132.78474605416667,67.0,87.0
430,132.65316722083335,132.94099591875002,59.0,80.0
431,131.86369422083334,132.94593012500002,47.0,60.0
432,131.46895772083334,132.95086433125002,40.0,80.0
433,132.85053547083334,132.97060115625,64.0,80.0
434,133.04790372083335,133.64494267708335,59.0,72.0
435,133.04790372083335,133.66467950208335,67.0,83.0
436,133.04790372083335,133.9492187291667,40.0,85.0
437,133.44264022083334,133.97060028958336,47.0,65.0
438,133.83737672083336,133.99362658541668,59.0,83.0
439,133.83737672083336,134.20250798333336,64.0,87.0
440,134.23211322083336,134.36698152500003,59.0,93.0
441,134.62684972083335,135.2913228291667,60.0,70.0
442,134.62684972083335,135.42948060416668,57.0,69.0
443,135.41632272083336,135.90151966875,64.0,102.0
444,135.02158622083334,136.05119059166668,52.0,49.0
445,135.81105922083336,136.05119059166668,57.0,68.0
446,134.62684972083335,136.07092741666668,45.0,85.0
447,136.20579572083335,136.70579528750002,62.0,74.0
448,136.60053222083334,137.20908432500002,57.0,87.0
449,136.99526872083334,137.42783413541667,62.0,63.0
450,136.20579572083335,137.46401831458334,50.0,74.0
451,137.39000522083336,137.5758603229167,57.0,68.0
452,137.78474172083335,138.01829415000003,55.0,69.0
453,137.78474172083335,138.21401766458334,60.0,70.0
454,138.17947822083335,138.45579377083334,55.0,68.0
455,138.57421472083334,138.9426354541667,64.0,90.0
456,138.77158297083335,139.0265169604167,55.0,90.0
457,137.78474172083335,139.0511879916667,48.0,70.0
458,138.96895122083336,139.16796420625002,60.0,54.0
459,139.16631947083334,139.83408205,55.0,61.0
460,139.36368772083335,139.83737152083336,59.0,87.0
461,140.15316072083334,140.30941058541669,62.0,63.0
462,140.15316072083334,140.36862106041667,59.0,60.0
463,140.15316072083334,140.37520000208335,55.0,71.0
464,139.36368772083335,140.55941036875,43.0,74.0
465,139.75842422083335,140.56105510416668,50.0,64.0
466,140.94263372083336,141.1531598541667,55.0,72.0
467,140.94263372083336,141.45250170000003,60.0,69.0
468,141.33737022083335,141.59888315208335,55.0,68.0
469,141.73210672083334,141.90315920416668,60.0,72.0
470,140.94263372083336,141.93440917708335,48.0,71.0
471,141.73210672083334,141.95414600208335,64.0,83.0
472,142.52157972083336,142.72881638333337,38.0,67.0
473,142.52157972083336,142.75842162083336,62.0,80.0
474,142.52157972083336,142.80447421250003,57.0,74.0
475,143.31105272083335,143.63177612708336,55.0,69.0
476,143.31105272083335,143.64657874583335,59.0,71.0
477,143.31105272083335,143.79953913958335,43.0,74.0
478,144.10052572083336,144.66466996875002,60.0,71.0
479,144.10052572083336,144.6761831166667,57.0,72.0
480,144.49526222083335,145.0413143791667,52.0,70.0
481,144.88999872083335,145.37026146250003,60.0,87.0
482,144.10052572083336,145.53144553333334,45.0,71.0
483,145.28473522083334,145.67124804375,52.0,64.0
484,145.67947172083336,146.14986605,64.0,67.0
485,145.67947172083336,146.1893397,57.0,69.0
486,146.07420822083336,146.53308940208336,52.0,69.0
487,146.46894472083335,146.73210238750002,60.0,93.0
488,146.46894472083335,146.75019447708334,57.0,87.0
489,145.67947172083336,147.17947042083335,45.0,70.0
490,146.86368122083334,147.18440462708335,59.0,74.0
491,146.66631297083336,147.18933883333335,52.0,74.0
492,147.25841772083336,147.85545667708334,53.0,80.0
493,147.25841772083336,148.16302220000003,60.0,72.0
494,148.04789072083335,148.84229792708334,53.0,87.0
495,148.44262722083334,148.90150840208335,57.0,83.0
496,147.65315422083336,149.02815302916667,48.0,54.0
497,148.83736372083337,149.33571855208336,60.0,72.0
498,149.23210022083336,149.72058663958336,48.0,41.0
499,149.62683672083335,149.98374430625003,57.0,93.0
500,147.25841772083336,150.195915175,41.0,83.0
501,149.82420497083336,150.26170459166667,48.0,68.0
502,150.02157322083335,150.27979668125002,53.0,87.0
503,150.21894147083336,150.34887556875003,57.0,72.0
504,150.41630972083334,151.03308550208334,59.0,71.0
505,151.20578272083335,151.419598325,52.0,83.0
506,150.81104622083336,151.45413776875003,47.0,56.0
507,151.20578272083335,151.50841403750002,55.0,87.0
508,151.20578272083335,151.58900607291667,59.0,87.0
509,150.41630972083334,151.61696657500002,40.0,83.0
510,151.60051922083335,151.89821633125,52.0,85.0
511,151.99525572083334,152.45084743125003,57.0,71.0
512,152.38999222083336,152.83078131250002,52.0,74.0
513,151.99525572083334,152.8669654916667,45.0,80.0
514,152.78472872083336,152.87518916875,57.0,66.0
515,152.78472872083336,152.92617596666668,60.0,74.0
516,153.57420172083334,154.2041353854167,55.0,71.0
517,153.57420172083334,154.45413516875,62.0,70.0
518,154.36367472083336,154.74689807291668,55.0,87.0
519,153.96893822083337,154.76005595625003,50.0,65.0
520,153.57420172083334,154.82255590208337,43.0,80.0
521,155.15314772083335,155.59393681250003,57.0,71.0
522,155.15314772083335,155.78472612083334,62.0,71.0
523,155.74525247083335,156.12354161666667,57.0,66.0
524,155.54788422083334,156.15643632500002,45.0,63.0
525,155.94262072083336,156.1679494729167,62.0,85.0
526,155.15314772083335,156.19262050416668,38.0,87.0
527,156.13998897083334,156.3949229604167,66.0,69.0
528,156.33735722083335,156.47058078958335,62.0,87.0
529,156.73209372083335,157.48702727708337,59.0,72.0
530,156.73209372083335,157.51663251458336,64.0,80.0
531,157.52156672083336,157.76827703333336,67.0,93.0
532,157.91630322083336,158.10873726458334,66.0,60.0
533,157.12683022083337,158.53965794375003,47.0,60.0
534,158.31103972083335,158.86531555625,64.0,93.0
535,158.70577622083334,159.23702576041669,47.0,68.0
536,159.10051272083336,159.72715691458336,59.0,74.0
537,159.10051272083336,159.74853847500003,62.0,87.0
538,156.73209372083335,159.79130159583335,40.0,80.0
539,159.49524922083336,159.84064365833336,47.0,68.0
540,159.88998572083335,160.68110345625,57.0,74.0
541,159.88998572083335,160.6876823979167,64.0,87.0
542,160.67945872083334,161.07255048541668,60.0,87.0
543,160.28472222083334,161.71070782708335,52.0,59.0
544,161.46893172083335,162.22386527708335,69.0,95.0
545,161.07419522083336,162.2847204875,57.0,69.0
546,161.86366822083335,162.44754929375003,52.0,59.0
547,162.25840472083337,162.57419392083335,64.0,85.0
548,162.25840472083337,162.57912812708335,60.0,80.0
549,159.88998572083335,162.6268254541667,45.0,83.0
550,163.04787772083336,163.55774570000003,55.0,65.0
551,163.04787772083336,163.88669278333336,62.0,67.0
552,163.83735072083334,164.27485034166668,55.0,85.0
553,163.44261422083335,164.4426133541667,50.0,61.0
554,163.04787772083336,164.45906070833337,43.0,80.0
555,164.23208722083336,164.6646526354167,59.0,70.0
556,164.62682372083336,165.12682328750003,60.0,83.0
557,165.02156022083335,165.48702034375003,55.0,85.0
558,164.62682372083336,165.72386224375003,48.0,74.0
559,165.41629672083337,166.2633354604167,64.0,87.0
560,166.20576972083336,167.05609793125,62.0,72.0
561,166.99524272083335,167.24688723958337,55.0,80.0
562,167.19261097083336,167.3784660729167,59.0,68.0
563,166.60050622083335,167.59228167708335,50.0,64.0
564,166.20576972083336,167.5955711479167,43.0,85.0
565,167.38997922083337,167.7583999541667,62.0,87.0
566,167.78471572083336,168.1383338354167,57.0,80.0
567,167.78471572083336,168.156425925,53.0,87.0
568,167.78471572083336,168.2320837541667,41.0,83.0
569,168.57418872083335,169.20083291458337,40.0,83.0
570,168.57418872083335,169.26662233125,52.0,85.0
571,169.36366172083336,170.01991115208335,57.0,80.0
572,169.75839822083336,170.1810952229167,52.0,74.0
573,170.15313472083335,170.6301079916667,60.0,85.0
574,170.54787122083337,170.97056822291668,59.0,74.0
575,170.94260772083337,171.39819943125002,57.0,70.0
576,171.33734422083336,171.57747559166668,52.0,60.0
577,171.73208072083335,171.86694902500003,57.0,69.0
578,169.36366172083336,171.93602791250004,45.0,70.0
579,171.73208072083335,171.94754106041668,60.0,69.0
580,172.52155372083337,173.09556638125002,64.0,80.0
581,172.91629022083336,173.5067502354167,52.0,41.0
582,173.31102672083335,173.81431575833335,60.0,87.0
583,172.52155372083337,173.8669472916667,45.0,83.0
584,173.70576322083335,173.9903024479167,52.0,67.0
585,174.10049972083334,174.58898613958337,62.0,74.0
586,174.49523622083336,174.9426042541667,57.0,60.0
587,174.88997272083336,175.02813049583335,62.0,68.0
588,174.88997272083336,175.05773573333335,65.0,68.0
589,174.10049972083334,175.1004988541667,50.0,66.0
590,175.67944572083337,176.09885325208336,60.0,69.0
591,176.07418222083336,176.2649715291667,62.0,70.0
592,176.46891872083336,176.63668173333335,55.0,69.0
593,175.67944572083337,177.20082598125003,48.0,68.0
594,176.46891872083336,177.31431272500004,64.0,80.0
595,176.86365522083335,177.34391796250003,55.0,72.0
596,177.25839172083334,177.92122009375004,62.0,74.0
597,178.04786472083336,178.30608818125003,55.0,80.0
598,178.04786472083336,178.30937765208336,59.0,85.0
599,177.65312822083337,178.4853643416667,50.0,59.0
600,177.25839172083334,178.49194328333334,43.0,61.0
601,178.83733772083335,179.32253466875002,60.0,66.0
602,179.23207422083334,179.6893106666667,55.0,68.0
603,179.62681072083336,179.99523145416669,64.0,93.0
604,178.83733772083335,180.1975339104167,48.0,65.0
605,180.41628372083335,180.5725335854167,57.0,69.0
606,180.41628372083335,180.97713849791668,62.0,69.0
607,180.81102022083337,181.07253315208337,57.0,67.0
608,180.41628372083335,181.59391427916668,50.0,64.0
609,181.20575672083336,181.6580589604167,62.0,72.0
610,181.20575672083336,181.75180887916667,65.0,83.0
611,181.99522972083335,182.70246595000003,64.0,74.0
612,182.78470272083337,182.96233414583335,60.0,80.0
613,182.38996622083334,183.4047679729167,52.0,66.0
614,181.99522972083335,183.40641270833336,45.0,68.0
615,183.17943922083336,183.59884675208338,59.0,80.0
616,183.57417572083335,184.42450393125003,57.0,74.0
617,183.96891222083337,184.5741748541667,52.0,67.0
618,184.36364872083337,184.75016154375004,60.0,72.0
619,183.57417572083335,184.77647731041668,45.0,80.0
620,184.36364872083337,184.79292466458335,64.0,80.0
621,185.15312172083335,185.98864731250004,53.0,69.0
622,185.15312172083335,186.00673940208335,60.0,68.0
623,185.94259472083337,186.4047653729167,57.0,87.0
624,185.15312172083335,186.56101523750004,41.0,80.0
625,185.54785822083335,186.67943618750002,48.0,55.0
626,186.33733122083336,187.35542244375003,53.0,102.0
627,187.52154072083334,187.65640902500002,57.0,87.0
628,187.12680422083338,187.78963259375,48.0,59.0
629,186.73206772083336,187.8159483604167,41.0,74.0
630,188.31101372083336,188.84719746666667,59.0,60.0
631,188.31101372083336,189.1465393125,64.0,71.0
632,188.31101372083336,189.18601296250003,40.0,74.0
633,188.70575022083335,189.22384187708337,47.0,54.0
634,189.10048672083337,189.41627592083336,59.0,87.0
635,189.88995972083336,190.50673550208336,60.0,68.0
636,189.88995972083336,190.53469600416668,57.0,69.0
637,190.67943272083335,190.9442351229167,60.0,70.0
638,190.67943272083335,190.9590377416667,57.0,71.0
639,190.67943272083335,190.96232721250004,64.0,80.0
640,189.88995972083336,191.0133140104167,45.0,74.0
641,190.28469622083335,191.01824821666668,52.0,63.0
642,191.46890572083336,191.94258952083337,55.0,55.0
643,191.46890572083336,192.2715366041667,59.0,65.0
644,192.25837872083338,192.73370725625003,55.0,87.0
645,191.46890572083336,192.81594402708336,43.0,80.0
646,191.86364222083336,192.83074664583336,50.0,56.0
647,193.04785172083336,193.2879830916667,57.0,74.0
648,193.04785172083336,193.48206187083338,62.0,74.0
649,193.44258822083336,193.92778516875,57.0,85.0
650,193.04785172083336,194.2008112479167,50.0,80.0
651,193.83732472083335,194.2353506916667,66.0,80.0
652,194.23206122083337,194.39982423333336,57.0,80.0
653,194.62679772083337,195.47219172500002,64.0,74.0
654,195.41627072083335,195.93107290625002,59.0,80.0
655,195.02153422083336,196.3817304104167,47.0,54.0
656,196.20574372083337,196.73863799583336,64.0,80.0
657,196.20574372083337,196.75344061458335,59.0,69.0
658,196.99521672083335,197.209032325,59.0,72.0
659,196.60048022083336,197.2649533291667,47.0,54.0
660,194.62679772083337,197.31265065625,40.0,70.0
661,196.99521672083335,197.8077160166667,67.0,85.0
662,197.78468972083334,198.59389954583338,57.0,68.0
663,197.78468972083334,198.6169258416667,60.0,69.0
664,198.17942622083336,198.7846888541667,52.0,64.0
665,198.57416272083336,199.27153053750004,64.0,93.0
666,198.96889922083335,199.47876720000002,52.0,58.0
667,199.36363572083337,199.8258063729167,60.0,72.0
668,199.75837222083337,200.26824020000004,52.0,41.0
669,200.15310872083336,200.53962154375003,57.0,80.0
670,200.15310872083336,200.53962154375003,60.0,93.0
671,200.15310872083336,200.54455575000003,64.0,87.0
672,197.78468972083334,200.6892924666667,45.0,80.0
673,200.54784522083338,200.90475280625003,52.0,68.0
674,200.94258172083335,201.4491602291667,55.0,68.0
675,200.94258172083335,201.74850207500003,59.0,69.0
676,201.33731822083337,202.1695543416667,50.0,68.0
677,200.94258172083335,202.1942253729167,43.0,80.0
678,201.73205472083336,202.20573852083336,55.0,93.0
679,202.12679122083335,202.56264610625004,59.0,95.0
680,202.52152772083338,203.35705331250003,60.0,95.0
681,202.91626422083334,203.3932374916667,55.0,72.0
682,202.52152772083338,203.8817239104167,48.0,71.0
683,203.31100072083336,204.09225004375003,64.0,93.0
684,204.10047372083335,205.05606499791668,62.0,55.0
685,204.88994672083336,205.34553843125002,55.0,74.0
686,205.28468322083336,205.43270940833338,59.0,80.0
687,204.49521022083337,205.5083672375,50.0,61.0
688,204.10047372083335,205.51165670833336,43.0,74.0
689,205.67941972083338,206.1317219604167,57.0,60.0
690,205.67941972083338,206.17941928750002,41.0,85.0
691,205.67941972083338,206.18764296458335,53.0,71.0
692,206.46889272083337,206.98205017083336,59.0,70.0
693,206.46889272083337,207.0445501166667,40.0,80.0
694,206.46889272083337,207.1383000354167,52.0,70.0
695,207.25836572083335,208.05770713333337,57.0,74.0
696,207.65310222083338,208.10211498958336,52.0,68.0
697,208.04783872083334,208.51329884375002,60.0,80.0
698,208.44257522083336,208.85869328125003,59.0,80.0
699,208.83731172083336,209.2600087229167,57.0,87.0
700,209.23204822083335,209.44586382500003,52.0,72.0
701,209.62678472083337,209.77481090833336,52.0,93.0
702,209.62678472083337,210.3159288604167,60.0,83.0
703,210.02152122083336,210.32250780208335,52.0,90.0
704,207.25836572083335,210.33237621458335,45.0,74.0
705,210.41625772083336,210.97382302708337,57.0,85.0
706,210.41625772083336,211.00013879375,60.0,87.0
707,210.81099422083338,211.28796749166668,52.0,70.0
708,210.41625772083336,211.54783568750003,45.0,87.0
709,211.40309897083335,211.5741514541667,52.0,80.0
710,211.20573072083334,211.58237513125005,60.0,105.0
711,211.60046722083337,211.84882226875004,57.0,87.0
712,211.79783547083338,212.04619051875002,60.0,80.0
713,211.99520372083336,212.54947955625005,59.0,74.0
714,212.38994022083335,212.91461081875002,47.0,68.0
715,212.78467672083337,213.07579488958336,52.0,83.0
716,212.78467672083337,213.0790843604167,55.0,87.0
717,211.99520372083336,213.25836052083338,40.0,71.0
718,213.17941322083337,213.44421562291672,47.0,64.0
719,213.57414972083336,213.72382064375003,55.0,65.0
720,213.57414972083336,213.7600048229167,59.0,66.0
721,213.57414972083336,214.06263613958336,53.0,68.0
722,213.57414972083336,214.1794123541667,57.0,67.0
723,214.16625447083337,214.47217525833338,53.0,87.0
724,213.96888622083338,214.54125414583336,48.0,68.0
725,214.36362272083335,214.55276729375004,57.0,95.0
726,213.57414972083336,214.83730652083335,41.0,71.0
727,214.56099097083336,214.86691175833334,60.0,93.0
728,214.75835922083337,215.05276686041668,48.0,83.0
729,215.15309572083336,215.5313848666667,52.0,74.0
730,215.15309572083336,215.66296370000003,55.0,87.0
731,215.74520047083337,215.94914766250002,52.0,68.0
732,215.15309572083336,216.15967379583336,40.0,85.0
733,215.54783222083336,216.16460800208336,47.0,61.0
734,215.94256872083338,216.1975027104167,59.0,80.0
735,216.13993697083336,216.3307262791667,55.0,93.0
736,216.33730522083334,216.45243670000002,52.0,93.0
737,216.73204172083337,216.9869757104167,55.0,74.0
738,216.73204172083337,217.1843439604167,60.0,66.0
739,217.12677822083336,217.5642778416667,55.0,72.0
740,217.52151472083335,217.96559328333336,64.0,95.0
741,216.73204172083337,217.99026431458336,48.0,80.0
742,217.91625122083337,218.09059317500004,55.0,83.0
743,218.31098772083337,218.67118477708337,62.0,71.0
744,218.70572422083336,219.15473698958337,57.0,90.0
745,218.31098772083337,219.24355270208338,50.0,71.0
746,219.10046072083338,219.34717103333338,66.0,87.0
747,219.88993372083337,220.38499908125004,64.0,87.0
748,220.48203847083334,220.76493296250004,59.0,70.0
749,220.67940672083336,220.87184076458337,64.0,83.0
750,220.87677497083337,221.2057220541667,67.0,87.0
751,221.07414322083338,221.36197191875004,59.0,80.0
752,220.28467022083336,221.366906125,47.0,60.0
753,219.88993372083337,221.37184033125004,40.0,80.0
754,221.27151147083336,221.39157715625004,64.0,80.0
755,221.46887972083334,222.06591867708335,59.0,72.0
756,221.46887972083334,222.08565550208337,67.0,83.0
757,221.46887972083334,222.3701947291667,40.0,85.0
758,221.86361622083336,222.39157628958338,47.0,65.0
759,222.25835272083336,222.4146025854167,59.0,83.0
760,222.25835272083336,222.62348398333336,64.0,87.0
761,222.65308922083335,222.78795752500002,59.0,93.0
762,223.04782572083337,223.71229882916668,60.0,70.0
763,223.04782572083337,223.8504566041667,57.0,69.0
764,223.83729872083336,224.32249566875004,64.0,102.0
765,223.44256222083337,224.47216659166668,52.0,49.0
766,224.23203522083338,224.47216659166668,57.0,68.0
767,223.04782572083337,224.4919034166667,45.0,85.0
768,224.62677172083335,225.12677128750005,62.0,74.0
769,225.02150822083337,225.63006032500004,57.0,87.0
770,225.41624472083336,225.8488101354167,62.0,63.0
771,224.62677172083335,225.88499431458337,50.0,74.0
772,225.81098122083336,225.9968363229167,57.0,68.0
773,226.20571772083338,226.43927015000003,55.0,69.0
774,226.20571772083338,226.63499366458336,60.0,70.0
775,226.60045422083337,226.87676977083336,55.0,68.0
776,226.99519072083336,227.3636114541667,64.0,90.0
777,227.19255897083337,227.4474929604167,55.0,90.0
778,226.20571772083338,227.47216399166672,48.0,70.0
779,227.38992722083336,227.58894020625002,60.0,54.0
780,227.58729547083337,228.25505805000003,55.0,61.0
781,227.78466372083335,228.25834752083335,59.0,87.0
782,228.57413672083337,228.73038658541668,62.0,63.0
783,228.57413672083337,228.7895970604167,59.0,60.0
784,228.57413672083337,228.79617600208337,55.0,71.0
785,227.78466372083335,228.98038636875003,43.0,74.0
786,228.17940022083337,228.9820311041667,50.0,64.0
787,229.36360972083338,229.57413585416668,55.0,72.0
788,229.36360972083338,229.87347770000002,60.0,69.0
789,229.75834622083335,230.01985915208337,55.0,68.0
790,230.15308272083337,230.32413520416668,60.0,72.0
791,229.36360972083338,230.35538517708335,48.0,71.0
792,230.15308272083337,230.37512200208334,64.0,83.0
793,230.94255572083335,231.14979238333336,38.0,67.0
794,230.94255572083335,231.17939762083336,62.0,80.0
795,230.94255572083335,231.22545021250005,57.0,74.0
796,231.73202872083337,232.05275212708335,55.0,69.0
797,231.73202872083337,232.06755474583338,59.0,71.0
798,231.73202872083337,232.22051513958337,43.0,74.0
799,232.52150172083338,233.08564596875004,60.0,71.0
800,232.52150172083338,233.09715911666672,57.0,72.0
801,232.91623822083335,233.4622903791667,52.0,70.0
802,233.31097472083337,233.79123746250002,60.0,87.0
803,232.52150172083338,233.95242153333336,45.0,71.0
804,233.70571122083336,234.09222404375004,52.0,64.0
805,234.10044772083336,234.57084205000004,64.0,67.0
806,234.10044772083336,234.61031570000003,57.0,69.0
807,234.49518422083338,234.95406540208336,52.0,69.0
808,234.88992072083335,235.15307838750005,60.0,93.0
809,234.88992072083335,235.17117047708336,57.0,87.0
810,234.10044772083336,235.60044642083335,45.0,70.0
811,235.28465722083337,235.60538062708338,59.0,74.0
812,235.08728897083336,235.61031483333335,52.0,74.0
813,235.67939372083336,236.23695902708337,57.0,85.0
814,235.67939372083336,236.26327479375004,60.0,87.0
815,236.07413022083335,236.5511034916667,52.0,70.0
816,235.67939372083336,236.81097168750003,45.0,87.0
817,236.6662349708334,236.8372874541667,52.0,80.0
818,236.46886672083338,236.84551113125002,60.0,105.0
819,236.86360322083337,237.11195826875002,57.0,87.0
820,237.06097147083335,237.30932651875003,60.0,80.0
821,237.25833972083336,237.81261555625002,59.0,74.0
822,237.65307622083338,238.17774681875005,47.0,68.0
823,238.04781272083335,238.33893088958337,52.0,83.0
824,238.04781272083335,238.34222036041672,55.0,87.0
825,237.25833972083336,238.52149652083335,40.0,71.0
826,238.44254922083337,238.7073516229167,47.0,64.0
827,238.83728572083336,238.98695664375003,55.0,65.0
828,238.83728572083336,239.0231408229167,59.0,66.0
829,238.83728572083336,239.32577213958336,53.0,68.0
830,238.83728572083336,239.44254835416672,57.0,67.0
831,239.42939047083337,239.73531125833335,53.0,87.0
832,239.23202222083336,239.80439014583337,48.0,68.0
833,239.62675872083338,239.81590329375,57.0,95.0
834,238.83728572083336,240.10044252083338,41.0,71.0
835,239.82412697083336,240.13004775833338,60.0,93.0
836,240.02149522083337,240.3159028604167,48.0,83.0
837,240.41623172083337,240.7945208666667,52.0,74.0
838,240.41623172083337,240.92609970000004,55.0,87.0
839,241.00833647083337,241.21228366250003,52.0,68.0
840,240.41623172083337,241.42280979583336,40.0,85.0
841,240.81096822083336,241.4277440020834,47.0,61.0
842,241.20570472083335,241.4606387104167,59.0,80.0
843,241.40307297083336,241.5938622791667,55.0,93.0
844,241.60044122083337,241.71557270000005,52.0,93.0
845,241.99517772083337,242.25011171041672,55.0,74.0
846,241.99517772083337,242.4474799604167,60.0,66.0
847,242.38991422083336,242.8274138416667,55.0,72.0
848,242.78465072083338,243.22872928333337,64.0,95.0
849,241.99517772083337,243.25340031458336,48.0,80.0
850,243.17938722083335,243.353729175,55.0,83.0
851,243.57412372083337,243.93432077708337,62.0,71.0
852,243.96886022083336,244.41787298958337,57.0,90.0
853,243.57412372083337,244.50668870208335,50.0,71.0
854,244.36359672083336,244.61030703333336,66.0,87.0
855,245.15306972083337,245.64813508125002,64.0,87.0
856,245.74517447083338,246.02806896250002,59.0,70.0
857,245.9425427208334,246.13497676458337,64.0,83.0
858,246.13991097083337,246.4688580541667,67.0,87.0
859,246.33727922083335,246.62510791875002,59.0,80.0
860,245.54780622083337,246.63004212500005,47.0,60.0
861,245.15306972083337,246.63497633125002,40.0,80.0
862,246.53464747083336,246.65471315625004,64.0,80.0
863,246.73201572083337,247.32905467708338,59.0,72.0
864,246.73201572083337,247.34879150208337,67.0,83.0
865,246.73201572083337,247.6333307291667,40.0,85.0
866,247.12675222083337,247.65471228958336,47.0,65.0
867,247.52148872083336,247.6777385854167,59.0,83.0
868,247.52148872083336,247.88661998333336,64.0,87.0
869,247.91622522083338,248.05109352500003,59.0,93.0
870,248.31096172083335,248.97543482916672,60.0,70.0
871,248.31096172083335,249.11359260416668,57.0,69.0
872,249.10043472083336,249.58563166875004,64.0,102.0
873,248.70569822083337,249.7353025916667,52.0,49.0
874,249.49517122083336,249.7353025916667,57.0,68.0
875,248.31096172083335,249.7550394166667,45.0,85.0
876,249.88990772083338,250.38990728750002,62.0,74.0
877,250.28464422083337,250.89319632500002,57.0,87.0
878,250.67938072083336,251.1119461354167,62.0,63.0
879,249.88990772083338,251.14813031458334,50.0,74.0
880,251.0741172208334,251.25997232291672,57.0,68.0
881,251.46885372083335,251.70240615000006,55.0,69.0
882,251.46885372083335,251.8981296645834,60.0,70.0
883,251.86359022083337,252.13990577083337,55.0,68.0
884,252.2583267208334,252.62674745416672,64.0,90.0
885,252.45569497083335,252.71062896041673,55.0,90.0
886,251.46885372083335,252.7352999916667,48.0,70.0
887,252.65306322083336,252.85207620625005,60.0,54.0
888,252.85043147083337,253.51819405000003,55.0,61.0
889,253.04779972083338,253.52148352083339,59.0,87.0
890,253.83727272083337,253.9935225854167,62.0,63.0
891,253.83727272083337,254.0527330604167,59.0,60.0
892,253.83727272083337,254.05931200208335,55.0,71.0
893,253.04779972083338,254.24352236875,43.0,74.0
894,253.44253622083335,254.24516710416668,50.0,64.0
895,254.62674572083336,254.83727185416672,55.0,72.0
896,254.62674572083336,255.13661370000005,60.0,69.0
897,255.02148222083338,255.28299515208334,55.0,68.0
898,255.41621872083334,255.5872712041667,60.0,72.0
899,254.62674572083336,255.61852117708338,48.0,71.0
900,255.41621872083334,255.63825800208338,64.0,83.0
901,256.2056917208334,256.4129283833334,38.0,67.0
902,256.2056917208334,256.4425336208334,62.0,80.0
903,256.2056917208334,256.4885862125,57.0,74.0
904,256.9951647208334,257.3158881270834,55.0,69.0
905,256.9951647208334,257.33069074583335,59.0,71.0
906,256.9951647208334,257.48365113958334,43.0,74.0
907,257.78463772083336,258.34878196875,60.0,71.0
908,257.78463772083336,258.3602951166667,57.0,72.0
909,258.1793742208334,258.7254263791667,52.0,70.0
910,258.57411072083335,259.05437346250005,60.0,87.0
911,257.78463772083336,259.21555753333337,45.0,71.0
912,258.96884722083337,259.35536004375,52.0,64.0
913,259.3635837208334,259.83397805000004,64.0,67.0
914,259.3635837208334,259.87345170000003,57.0,69.0
915,259.75832022083335,260.2172014020834,52.0,69.0
916,260.1530567208334,260.4162143875,60.0,93.0
917,260.1530567208334,260.4343064770834,57.0,87.0
918,259.3635837208334,260.8635824208334,45.0,70.0
919,260.54779322083334,260.86851662708335,59.0,74.0
920,260.3504249708334,260.8734508333334,52.0,74.0
921,261.34384516250003,262.103712925,52.0,68.0
922,261.7204895729167,262.1398971041667,60.0,83.0
923,260.96884548750006,262.4474626270834,45.0,93.0
924,262.10042345416673,262.5790414604167,57.0,87.0
925,262.52640992708336,263.0231200229167,62.0,80.0
926,262.8948306604167,263.3767381375,57.0,60.0
927,263.27640927708336,263.74680360625,65.0,74.0
928,262.5296993979167,263.8668692916667,50.0,71.0
929,264.10042172083337,264.6218028479167,60.0,68.0
930,264.47706613125,264.95568413750004,55.0,67.0
931,264.1152243395834,265.22048653958336,48.0,70.0
932,264.89647366250006,265.7319992541667,64.0,74.0
933,265.68430192708337,266.70074841458336,62.0,74.0
934,266.47048545625006,267.0494323229167,55.0,68.0
935,266.0823278979167,267.10864279791673,50.0,59.0
936,265.68430192708337,267.1152217395834,43.0,54.0
937,266.8421956604167,267.31423472500006,59.0,74.0
938,267.41127411458336,268.45403636875005,52.0,58.0
939,267.49186615,268.6694967083334,55.0,68.0
940,267.6086423645834,268.735286125,59.0,67.0
941,267.26818213333337,269.0428516479167,40.0,70.0
942,269.2254172791667,269.9754166291667,40.0,53.0
943,269.02147008750006,269.99844292500006,52.0,51.0
944,269.11522000625,270.00337713125003,55.0,66.0
945,269.20732518958334,270.00337713125003,59.0,37.0
946,269.26160145833336,270.0362718395834,64.0,63.0
947,270.94909999583336,271.73857299583335,57.0,74.0
948,270.94909999583336,271.74515193750005,64.0,87.0
949,271.73857299583335,272.1316647604167,60.0,87.0
950,271.3438364958334,272.7681773666667,52.0,59.0
951,272.5280459958334,273.2813348166667,69.0,95.0
952,272.1333094958334,273.34219002708335,57.0,69.0
953,272.92278249583336,273.50666356875,52.0,59.0
954,273.3175189958334,273.6316634604167,64.0,85.0
955,273.3175189958334,273.6365976666667,60.0,80.0
956,270.94909999583336,273.68429499375003,45.0,83.0
957,274.10699199583337,274.6152152395834,55.0,65.0
958,274.10699199583337,274.9441623229167,62.0,67.0
959,274.89646499583336,275.33231988125004,55.0,85.0
960,274.5017284958334,275.5017276291667,50.0,61.0
961,274.10699199583337,275.5165302479167,43.0,80.0
962,275.2912014958334,275.72212217500004,59.0,70.0
963,275.6859379958334,276.18593756250004,60.0,83.0
964,276.08067449583336,276.54448988333337,55.0,85.0
965,275.6859379958334,276.78133178333337,48.0,74.0
966,276.4754109958334,277.3224497354167,64.0,87.0
967,277.6629099666667,278.3931724916667,62.0,56.0
968,277.59712055000006,278.4178435229167,59.0,61.0
969,277.4885680125,278.4688303208334,55.0,56.0
970,277.35534444375,278.9770535645834,43.0,80.0
971,277.5790284604167,279.2171849354167,50.0,56.0
972,279.44744789375005,279.9523816666667,65.0,74.0
973,279.32738220833335,279.95896060833337,57.0,68.0
974,279.4161979208334,279.96553955,60.0,51.0
975,279.2517243791667,279.97047375625004,53.0,59.0
976,279.4441584229167,280.1152104729167,41.0,87.0
977,280.5099469729167,280.94580185833337,52.0,59.0
978,280.5839600666667,281.02145968750006,40.0,80.0
979,280.6431705416667,281.05106492500005,59.0,68.0
980,282.2911954291667,282.91948435833336,57.0,68.0
981,282.5625767729167,282.96060274375003,64.0,70.0
982,282.90139226875004,283.0872473708334,69.0,90.0
983,281.73691959375003,284.1365885666667,45.0,87.0
984,282.03626143958337,284.15468065625004,52.0,56.0
985,283.8257335729167,284.52310138958336,69.0,64.0
986,283.3767208041667,284.6004039541667,76.0,72.0
987,284.7484301416667,288.24349290208335,76.0,53.0
988,284.6316539270834,288.2467823729167,52.0,56.0
989,284.86027215,288.2533613145834,81.0,51.0
990,284.42770673541673,288.2566507854167,45.0,36.0
991,284.66783810625003,288.2730981395834,69.0,66.0
