,start,end,pitch,velocity
0,31.98828125,32.30078125,74.0,102.0
1,32.45703125,32.55078125,81.0,112.0
2,32.69140625,32.77734375,81.0,95.0
3,32.92578125,33.24609375,81.0,107.0
4,33.39453125,33.755859375,79.0,117.0
5,33.86328125,34.072265625,81.0,127.0
6,34.09765625,34.306640625,79.0,90.0
7,34.33203125,35.189453125,77.0,97.0
8,35.73828125,36.0625,79.0,100.0
9,36.20703125,37.1015625,79.0,112.0
10,37.14453125,37.44921875,76.0,97.0
11,37.61328125,38.7890625,74.0,97.0
12,39.48828125,39.8046875,74.0,107.0
13,39.95703125,40.046875,86.0,112.0
14,40.19140625,40.291015625,86.0,100.0
15,40.42578125,40.650390625,86.0,117.0
16,40.89453125,40.99609375,84.0,102.0
17,41.12890625,41.234375,84.0,100.0
18,41.36328125,41.923828125,81.0,100.0
19,41.83203125,41.923828125,81.0,112.0
20,42.06640625,42.26953125,79.0,99.0
21,42.30078125,42.666015625,77.0,96.0
22,42.76953125,43.12109375,74.0,102.0
23,43.23828125,43.70703125,79.0,99.0
24,43.70703125,45.009765625,81.0,90.0
25,46.98828125,47.2578125,81.0,107.0
26,47.45703125,47.544921875,86.0,122.0
27,47.69140625,47.783203125,86.0,99.0
28,47.92578125,48.267578125,86.0,127.0
29,48.39453125,48.708984375,84.0,117.0
30,48.86328125,49.013671875,86.0,127.0
31,49.09765625,49.267578125,84.0,122.0
32,49.33203125,49.732421875,81.0,112.0
33,50.73828125,51.029296875,84.0,127.0
34,51.20703125,51.58984375,81.0,127.0
35,52.14453125,52.291015625,81.0,127.0
36,52.37890625,52.5078125,79.0,93.0
37,52.61328125,53.376953125,81.0,122.0
38,53.08203125,54.087890625,79.0,117.0
39,54.48828125,54.77734375,79.0,107.0
40,54.95703125,55.048828125,79.0,99.0
41,55.19140625,55.302734375,79.0,86.0
42,55.42578125,55.728515625,79.0,97.0
43,55.89453125,56.09375,79.0,107.0
44,56.12890625,56.365234375,81.0,100.0
45,56.36328125,56.826171875,84.0,127.0
46,56.83203125,57.21484375,84.0,117.0
47,57.30078125,57.6796875,77.0,102.0
48,57.76953125,57.998046875,79.0,112.0
49,58.00390625,58.22265625,77.0,99.0
50,58.23828125,60.015625,74.0,117.0
51,61.98828125,62.30078125,74.0,102.0
52,62.45703125,62.55078125,81.0,112.0
53,62.69140625,62.77734375,81.0,95.0
54,62.92578125,63.24609375,81.0,107.0
55,63.39453125,63.755859375,79.0,117.0
56,63.86328125,64.072265625,81.0,127.0
57,64.09765625,64.306640625,79.0,90.0
58,64.33203125,65.189453125,77.0,97.0
59,65.73828125,66.0625,79.0,100.0
60,66.20703125,67.1015625,79.0,112.0
61,67.14453125,67.44921875,76.0,97.0
62,67.61328125,68.7890625,74.0,97.0
63,69.48828125,69.8046875,74.0,107.0
64,69.95703125,70.046875,86.0,112.0
65,70.19140625,70.291015625,86.0,100.0
66,70.42578125,70.650390625,86.0,117.0
67,70.89453125,70.99609375,84.0,102.0
68,71.12890625,71.234375,84.0,100.0
69,71.36328125,71.923828125,81.0,100.0
70,71.83203125,71.923828125,81.0,112.0
71,72.06640625,72.26953125,79.0,99.0
72,72.30078125,72.666015625,77.0,96.0
73,72.76953125,73.12109375,74.0,102.0
74,73.23828125,73.70703125,79.0,99.0
75,73.70703125,75.908203125,81.0,90.0
76,76.98828125,77.2578125,81.0,107.0
77,77.45703125,77.544921875,86.0,122.0
78,77.69140625,77.783203125,86.0,99.0
79,77.92578125,78.267578125,86.0,127.0
80,78.39453125,78.708984375,84.0,117.0
81,78.86328125,79.013671875,86.0,127.0
82,79.09765625,79.267578125,84.0,122.0
83,79.33203125,79.732421875,81.0,112.0
84,80.73828125,81.029296875,84.0,127.0
85,81.20703125,81.58984375,81.0,127.0
86,82.14453125,82.291015625,81.0,127.0
87,82.37890625,82.5078125,79.0,93.0
88,82.61328125,83.376953125,81.0,122.0
89,83.08203125,84.087890625,79.0,117.0
90,84.48828125,84.77734375,79.0,107.0
91,84.95703125,85.048828125,79.0,99.0
92,85.19140625,85.302734375,79.0,86.0
93,85.42578125,85.728515625,79.0,97.0
94,85.89453125,86.09375,79.0,107.0
95,86.12890625,86.365234375,81.0,100.0
96,86.36328125,86.826171875,84.0,127.0
97,86.83203125,87.21484375,84.0,117.0
98,87.30078125,87.6796875,77.0,102.0
99,87.76953125,87.998046875,79.0,112.0
100,88.00390625,88.22265625,77.0,99.0
101,88.23828125,90.015625,74.0,117.0
102,91.98828125,92.333984375,81.0,100.0
103,92.45703125,92.560546875,86.0,127.0
104,92.69140625,92.791015625,86.0,97.0
105,92.92578125,93.265625,86.0,127.0
106,93.39453125,93.716796875,84.0,127.0
107,93.86328125,94.57421875,86.0,127.0
108,95.26953125,95.59375,81.0,97.0
109,95.73828125,96.04296875,89.0,112.0
110,96.20703125,96.298828125,89.0,117.0
111,96.44140625,96.482421875,89.0,89.0
112,96.67578125,97.013671875,86.0,117.0
113,96.91015625,97.123046875,84.0,107.0
114,97.14453125,97.369140625,81.0,96.0
115,97.37890625,97.580078125,84.0,117.0
116,97.61328125,98.572265625,86.0,122.0
117,99.48828125,99.73046875,81.0,112.0
118,99.95703125,100.04296875,86.0,117.0
119,100.19140625,100.271484375,86.0,97.0
120,100.42578125,100.677734375,86.0,127.0
121,100.89453125,100.98046875,84.0,117.0
122,101.12890625,101.23828125,84.0,112.0
123,101.36328125,101.560546875,86.0,127.0
124,101.83203125,102.97265625,86.0,127.0
125,103.23828125,103.59765625,86.0,127.0
126,103.70703125,104.32421875,86.0,117.0
127,104.64453125,104.96484375,79.0,107.0
128,105.11328125,106.40625,81.0,122.0
129,106.98828125,107.2734375,81.0,102.0
130,107.45703125,107.546875,86.0,127.0
131,107.69140625,107.791015625,86.0,99.0
132,107.92578125,108.23828125,86.0,127.0
133,108.39453125,108.697265625,84.0,127.0
134,108.86328125,109.05859375,86.0,127.0
135,109.09765625,109.263671875,84.0,102.0
136,109.33203125,110.150390625,81.0,99.0
137,110.26953125,110.591796875,81.0,107.0
138,110.73828125,111.15234375,84.0,117.0
139,111.20703125,111.931640625,81.0,107.0
140,112.14453125,112.35546875,81.0,102.0
141,112.37890625,112.609375,79.0,97.0
142,112.61328125,113.822265625,77.0,107.0
143,114.01953125,114.126953125,74.0,107.0
144,114.25390625,114.419921875,74.0,92.0
145,114.48828125,114.951171875,79.0,127.0
146,115.19140625,115.38671875,81.0,112.0
147,115.42578125,115.892578125,79.0,127.0
148,115.89453125,116.259765625,81.0,117.0
149,116.36328125,116.740234375,84.0,122.0
150,116.83203125,117.21484375,81.0,112.0
151,117.76953125,118.154296875,81.0,112.0
152,118.23828125,118.54296875,84.0,117.0
153,118.70703125,118.796875,84.0,112.0
154,118.94140625,119.37890625,84.0,122.0
155,119.64453125,119.78515625,81.0,100.0
156,119.87890625,120.0859375,84.0,112.0
157,120.11328125,121.90234375,86.0,122.0
158,121.98828125,122.333984375,81.0,100.0
159,122.45703125,122.560546875,86.0,127.0
160,122.69140625,122.791015625,86.0,97.0
161,122.92578125,123.265625,86.0,127.0
162,123.39453125,123.716796875,84.0,127.0
163,123.86328125,124.57421875,86.0,127.0
164,125.26953125,125.59375,81.0,97.0
165,125.73828125,126.04296875,89.0,112.0
166,126.20703125,126.298828125,89.0,117.0
167,126.44140625,126.482421875,89.0,89.0
168,126.67578125,127.013671875,86.0,117.0
169,126.91015625,127.123046875,84.0,107.0
170,127.14453125,127.369140625,81.0,96.0
171,127.37890625,127.580078125,84.0,117.0
172,127.61328125,129.25390625,86.0,122.0
173,129.48828125,129.73046875,81.0,112.0
174,129.95703125,130.04296875,86.0,117.0
175,130.19140625,130.271484375,86.0,97.0
176,130.42578125,130.677734375,86.0,127.0
177,130.89453125,130.98046875,84.0,117.0
178,131.12890625,131.23828125,84.0,112.0
179,131.36328125,131.560546875,86.0,127.0
180,131.83203125,132.97265625,86.0,127.0
181,133.23828125,133.59765625,86.0,127.0
182,133.70703125,133.982421875,86.0,117.0
183,134.17578125,134.5078125,86.0,127.0
184,134.64453125,134.96484375,79.0,107.0
185,135.11328125,136.40625,81.0,122.0
186,136.98828125,137.2734375,81.0,102.0
187,137.45703125,137.546875,86.0,127.0
188,137.69140625,137.791015625,86.0,99.0
189,137.92578125,138.23828125,86.0,127.0
190,138.39453125,138.697265625,84.0,127.0
191,138.86328125,139.05859375,86.0,127.0
192,139.09765625,139.263671875,84.0,102.0
193,139.33203125,140.150390625,81.0,99.0
194,140.26953125,140.591796875,81.0,107.0
195,140.73828125,141.15234375,84.0,117.0
196,141.20703125,141.931640625,81.0,107.0
197,142.14453125,142.35546875,81.0,102.0
198,142.37890625,142.609375,79.0,97.0
199,142.61328125,143.822265625,77.0,107.0
200,144.01953125,144.126953125,74.0,107.0
201,144.25390625,144.419921875,74.0,92.0
202,144.48828125,144.951171875,79.0,127.0
203,145.19140625,145.38671875,81.0,112.0
204,145.42578125,145.892578125,79.0,127.0
205,145.89453125,146.259765625,81.0,117.0
206,146.36328125,146.740234375,84.0,122.0
207,146.83203125,147.21484375,81.0,112.0
208,147.76953125,148.154296875,81.0,112.0
209,148.23828125,148.9765625,84.0,122.0
210,149.17578125,149.603515625,81.0,122.0
211,149.64453125,150.001953125,84.0,127.0
212,150.11328125,151.734375,86.0,127.0
213,151.98828125,152.3046875,79.0,112.0
214,152.45703125,152.552734375,79.0,95.0
215,152.69140625,152.791015625,79.0,95.0
216,152.92578125,153.333984375,79.0,102.0
217,153.39453125,153.783203125,81.0,122.0
218,153.86328125,154.201171875,84.0,127.0
219,154.33203125,155.2265625,84.0,127.0
220,155.26953125,155.515625,77.0,122.0
221,155.50390625,155.70703125,79.0,88.0
222,155.73828125,158.025390625,74.0,102.0
223,189.48828125,189.80078125,74.0,102.0
224,189.95703125,190.05078125,81.0,112.0
225,190.19140625,190.27734375,81.0,95.0
226,190.42578125,190.74609375,81.0,107.0
227,190.89453125,191.255859375,79.0,117.0
228,191.36328125,191.572265625,81.0,127.0
229,191.59765625,191.806640625,79.0,90.0
230,191.83203125,192.689453125,77.0,97.0
231,193.23828125,193.5625,79.0,100.0
232,193.70703125,194.6015625,79.0,112.0
233,194.64453125,194.94921875,76.0,97.0
234,195.11328125,196.2890625,74.0,97.0
235,196.98828125,197.3046875,74.0,107.0
236,197.45703125,197.546875,86.0,112.0
237,197.69140625,197.791015625,86.0,100.0
238,197.92578125,198.150390625,86.0,117.0
239,198.39453125,198.49609375,84.0,102.0
240,198.62890625,198.734375,84.0,100.0
241,198.86328125,199.423828125,81.0,100.0
242,199.33203125,199.423828125,81.0,112.0
243,199.56640625,199.76953125,79.0,99.0
244,199.80078125,200.166015625,77.0,96.0
245,200.26953125,200.62109375,74.0,102.0
246,200.73828125,201.20703125,79.0,99.0
247,201.20703125,203.408203125,81.0,90.0
248,204.48828125,204.7578125,81.0,107.0
249,204.95703125,205.044921875,86.0,122.0
250,205.19140625,205.283203125,86.0,99.0
251,205.42578125,205.767578125,86.0,127.0
252,205.89453125,206.208984375,84.0,117.0
253,206.36328125,206.513671875,86.0,127.0
254,206.59765625,206.767578125,84.0,122.0
255,206.83203125,207.232421875,81.0,112.0
256,208.23828125,208.529296875,84.0,127.0
257,208.70703125,209.08984375,81.0,127.0
258,209.64453125,209.791015625,81.0,127.0
259,209.87890625,210.0078125,79.0,93.0
260,210.11328125,210.876953125,81.0,122.0
261,210.58203125,211.587890625,79.0,117.0
262,211.98828125,212.27734375,79.0,107.0
263,212.45703125,212.548828125,79.0,99.0
264,212.69140625,212.802734375,79.0,86.0
265,212.92578125,213.228515625,79.0,97.0
266,213.39453125,213.59375,79.0,107.0
267,213.62890625,213.865234375,81.0,100.0
268,213.86328125,214.326171875,84.0,127.0
269,214.33203125,214.71484375,84.0,117.0
270,214.80078125,215.1796875,77.0,102.0
271,215.26953125,215.498046875,79.0,112.0
272,215.50390625,215.72265625,77.0,99.0
273,215.73828125,217.515625,74.0,117.0
274,219.48828125,219.833984375,81.0,100.0
275,219.95703125,220.060546875,86.0,127.0
276,220.19140625,220.291015625,86.0,97.0
277,220.42578125,220.765625,86.0,127.0
278,220.89453125,221.216796875,84.0,127.0
279,221.36328125,222.07421875,86.0,127.0
280,222.76953125,223.09375,81.0,97.0
281,223.23828125,223.54296875,89.0,112.0
282,223.70703125,223.798828125,89.0,117.0
283,223.94140625,223.982421875,89.0,89.0
284,224.17578125,224.513671875,86.0,117.0
285,224.41015625,224.623046875,84.0,107.0
286,224.64453125,224.869140625,81.0,96.0
287,224.87890625,225.080078125,84.0,117.0
288,225.11328125,226.072265625,86.0,122.0
289,226.98828125,227.23046875,81.0,112.0
290,227.45703125,227.54296875,86.0,117.0
291,227.69140625,227.771484375,86.0,97.0
292,227.92578125,228.177734375,86.0,127.0
293,228.39453125,228.48046875,84.0,117.0
294,228.62890625,228.73828125,84.0,112.0
295,228.86328125,229.060546875,86.0,127.0
296,229.33203125,230.47265625,86.0,127.0
297,230.73828125,231.09765625,86.0,127.0
298,231.20703125,231.82421875,86.0,117.0
299,232.14453125,232.46484375,79.0,107.0
300,232.61328125,233.90625,81.0,122.0
301,234.48828125,234.7734375,81.0,102.0
302,234.95703125,235.046875,86.0,127.0
303,235.19140625,235.291015625,86.0,99.0
304,235.42578125,235.73828125,86.0,127.0
305,235.89453125,236.197265625,84.0,127.0
306,236.36328125,236.55859375,86.0,127.0
307,236.59765625,236.763671875,84.0,102.0
308,236.83203125,237.650390625,81.0,99.0
309,237.76953125,238.091796875,81.0,107.0
310,238.23828125,238.65234375,84.0,117.0
311,238.70703125,239.431640625,81.0,107.0
312,239.64453125,239.85546875,81.0,102.0
313,239.87890625,240.109375,79.0,97.0
314,240.11328125,241.322265625,77.0,107.0
315,241.51953125,241.626953125,74.0,107.0
316,241.75390625,241.919921875,74.0,92.0
317,241.98828125,242.451171875,79.0,127.0
318,242.69140625,242.88671875,81.0,112.0
319,242.92578125,243.392578125,79.0,127.0
320,243.39453125,243.759765625,81.0,117.0
321,243.86328125,244.240234375,84.0,122.0
322,244.33203125,244.71484375,81.0,112.0
323,245.26953125,245.654296875,81.0,112.0
324,245.73828125,246.04296875,84.0,117.0
325,246.20703125,246.296875,84.0,112.0
326,246.44140625,246.87890625,84.0,122.0
327,247.14453125,247.28515625,81.0,100.0
328,247.37890625,247.5859375,84.0,112.0
329,247.61328125,249.40234375,86.0,122.0
330,249.48828125,249.833984375,81.0,100.0
331,249.95703125,250.060546875,86.0,127.0
332,250.19140625,250.291015625,86.0,97.0
333,250.42578125,250.765625,86.0,127.0
334,250.89453125,251.216796875,84.0,127.0
335,251.36328125,252.07421875,86.0,127.0
336,252.76953125,253.09375,81.0,97.0
337,253.23828125,253.54296875,89.0,112.0
338,253.70703125,253.798828125,89.0,117.0
339,253.94140625,253.982421875,89.0,89.0
340,254.17578125,254.513671875,86.0,117.0
341,254.41015625,254.623046875,84.0,107.0
342,254.64453125,254.869140625,81.0,96.0
343,254.87890625,255.080078125,84.0,117.0
344,255.11328125,256.75390625,86.0,122.0
345,256.98828125,257.23046875,81.0,112.0
346,257.45703125,257.54296875,86.0,117.0
347,257.69140625,257.771484375,86.0,97.0
348,257.92578125,258.177734375,86.0,127.0
349,258.39453125,258.48046875,84.0,117.0
350,258.62890625,258.73828125,84.0,112.0
351,258.86328125,259.060546875,86.0,127.0
352,259.33203125,260.47265625,86.0,127.0
353,260.73828125,261.09765625,86.0,127.0
354,261.20703125,261.482421875,86.0,117.0
355,261.67578125,262.0078125,86.0,127.0
356,262.14453125,262.46484375,79.0,107.0
357,262.61328125,263.90625,81.0,122.0
358,264.48828125,264.7734375,81.0,102.0
359,264.95703125,265.046875,86.0,127.0
360,265.19140625,265.291015625,86.0,99.0
361,265.42578125,265.73828125,86.0,127.0
362,265.89453125,266.197265625,84.0,127.0
363,266.36328125,266.55859375,86.0,127.0
364,266.59765625,266.763671875,84.0,102.0
365,266.83203125,267.650390625,81.0,99.0
366,267.76953125,268.091796875,81.0,107.0
367,268.23828125,268.65234375,84.0,117.0
368,268.70703125,269.431640625,81.0,107.0
369,269.64453125,269.85546875,81.0,102.0
370,269.87890625,270.109375,79.0,97.0
371,270.11328125,271.322265625,77.0,107.0
372,271.51953125,271.626953125,74.0,107.0
373,271.75390625,271.919921875,74.0,92.0
374,271.98828125,272.451171875,79.0,127.0
375,272.69140625,272.88671875,81.0,112.0
376,272.92578125,273.392578125,79.0,127.0
377,273.39453125,273.759765625,81.0,117.0
378,273.86328125,274.240234375,84.0,122.0
379,274.33203125,274.71484375,81.0,112.0
380,275.26953125,275.654296875,81.0,112.0
381,275.73828125,276.4765625,84.0,122.0
382,276.67578125,277.103515625,81.0,122.0
383,277.14453125,277.501953125,84.0,127.0
384,277.61328125,279.234375,86.0,127.0
385,279.48828125,279.8046875,79.0,112.0
386,279.95703125,280.052734375,79.0,95.0
387,280.19140625,280.291015625,79.0,95.0
388,280.42578125,280.833984375,79.0,102.0
389,280.89453125,281.283203125,81.0,122.0
390,281.36328125,281.701171875,84.0,127.0
391,281.83203125,282.7265625,84.0,127.0
392,282.76953125,283.015625,77.0,122.0
393,283.00390625,283.20703125,79.0,88.0
394,283.23828125,285.525390625,74.0,102.0
395,286.98828125,287.263671875,79.0,107.0
396,287.45703125,287.560546875,79.0,97.0
397,287.69140625,287.76953125,79.0,85.0
398,287.92578125,288.2265625,79.0,96.0
399,288.39453125,288.732421875,81.0,117.0
400,288.86328125,289.23828125,84.0,127.0
401,289.33203125,290.181640625,84.0,127.0
402,290.318359375,291.037109375,77.0,96.0
403,291.01171875,291.6796875,79.0,96.0
404,291.638671875,292.52734375,77.0,96.0
405,292.529296875,296.140625,74.0,95.0
