,start,end,pitch,velocity
0,0.11328125,0.580078125,62.0,82.0
1,0.58203125,1.044921875,64.0,40.0
2,1.05078125,1.552734375,65.0,59.0
3,0.11328125,1.7734375,50.0,59.0
4,1.51953125,1.83203125,64.0,63.0
5,0.58203125,1.974609375,57.0,43.0
6,1.75390625,2.060546875,65.0,56.0
7,1.98828125,2.966796875,69.0,83.0
8,2.92578125,3.453125,65.0,74.0
9,3.39453125,3.822265625,64.0,42.0
10,3.86328125,4.75,62.0,65.0
11,3.86328125,4.755859375,65.0,69.0
12,3.86328125,4.783203125,69.0,50.0
13,2.45703125,4.970703125,57.0,63.0
14,1.98828125,5.15234375,50.0,64.0
15,4.80078125,5.287109375,64.0,90.0
16,5.26953125,5.548828125,62.0,75.0
17,5.73828125,6.291015625,67.0,64.0
18,5.73828125,6.548828125,64.0,69.0
19,5.73828125,6.5703125,60.0,86.0
20,5.73828125,6.7109375,48.0,63.0
21,6.20703125,6.7265625,55.0,41.0
22,6.67578125,7.16015625,67.0,73.0
23,6.67578125,7.53125,64.0,79.0
24,7.61328125,8.01171875,65.0,58.0
25,7.61328125,8.169921875,62.0,43.0
26,8.08203125,8.78125,57.0,55.0
27,7.61328125,8.84375,50.0,61.0
28,8.55078125,9.115234375,64.0,82.0
29,9.01953125,9.48046875,65.0,72.0
30,9.95703125,10.748046875,58.0,58.0
31,9.48828125,11.2578125,46.0,100.0
32,10.42578125,11.865234375,65.0,89.0
33,10.42578125,11.943359375,62.0,88.0
34,11.83203125,12.224609375,58.0,48.0
35,11.36328125,12.42578125,46.0,58.0
36,12.30078125,12.447265625,62.0,74.0
37,12.30078125,12.44921875,65.0,76.0
38,13.23828125,13.380859375,53.0,59.0
39,13.23828125,13.703125,60.0,65.0
40,13.23828125,13.779296875,57.0,72.0
41,14.17578125,14.541015625,55.0,72.0
42,13.23828125,14.603515625,41.0,63.0
43,13.70703125,14.697265625,48.0,53.0
44,14.17578125,15.1015625,53.0,49.0
45,15.11328125,15.84375,67.0,62.0
46,15.11328125,15.8671875,64.0,56.0
47,15.11328125,15.873046875,60.0,68.0
48,15.11328125,15.892578125,57.0,74.0
49,15.11328125,16.181640625,45.0,60.0
50,16.05078125,16.490234375,67.0,88.0
51,16.05078125,16.521484375,60.0,89.0
52,16.05078125,16.521484375,64.0,83.0
53,16.51953125,16.583984375,57.0,48.0
54,16.98828125,17.388671875,65.0,92.0
55,16.98828125,17.884765625,62.0,93.0
56,16.98828125,18.724609375,50.0,72.0
57,17.45703125,18.77734375,57.0,59.0
58,17.92578125,18.83984375,64.0,89.0
59,18.86328125,19.416015625,69.0,69.0
60,18.86328125,19.48046875,62.0,64.0
61,18.39453125,19.607421875,65.0,69.0
62,18.86328125,19.958984375,57.0,50.0
63,18.86328125,20.103515625,50.0,62.0
64,19.80078125,20.755859375,64.0,90.0
65,20.26953125,20.7890625,62.0,82.0
66,20.73828125,21.783203125,41.0,70.0
67,21.20703125,21.806640625,48.0,55.0
68,21.67578125,21.837890625,57.0,86.0
69,21.67578125,21.873046875,60.0,78.0
70,22.61328125,23.3203125,60.0,88.0
71,22.61328125,23.361328125,67.0,74.0
72,22.61328125,23.384765625,64.0,82.0
73,23.08203125,23.658203125,55.0,39.0
74,22.61328125,23.728515625,48.0,59.0
75,23.55078125,23.833984375,64.0,95.0
76,23.55078125,23.84765625,67.0,89.0
77,24.48828125,25.08203125,62.0,76.0
78,24.48828125,25.103515625,55.0,86.0
79,24.48828125,25.13671875,58.0,86.0
80,24.48828125,25.701171875,43.0,62.0
81,25.42578125,25.828125,58.0,97.0
82,25.42578125,25.84375,62.0,83.0
83,25.42578125,25.861328125,55.0,75.0
84,24.95703125,25.916015625,50.0,33.0
85,26.36328125,27.08203125,57.0,85.0
86,26.36328125,27.16796875,64.0,75.0
87,26.83203125,27.76171875,52.0,42.0
88,26.36328125,27.763671875,45.0,69.0
89,27.30078125,27.794921875,64.0,77.0
90,27.30078125,28.123046875,57.0,81.0
91,28.23828125,28.53125,65.0,70.0
92,28.23828125,28.98828125,62.0,76.0
93,28.70703125,29.48046875,57.0,59.0
94,28.23828125,29.5,50.0,63.0
95,29.64453125,30.048828125,65.0,65.0
96,29.17578125,31.173828125,64.0,89.0
97,30.11328125,31.173828125,69.0,65.0
98,30.11328125,31.18359375,57.0,42.0
99,30.11328125,31.2109375,65.0,41.0
100,30.11328125,31.216796875,62.0,59.0
101,30.11328125,31.30078125,50.0,47.0
102,31.98828125,32.73046875,65.0,75.0
103,31.98828125,32.734375,57.0,93.0
104,31.98828125,32.74609375,62.0,88.0
105,31.98828125,33.72265625,50.0,62.0
106,32.92578125,33.763671875,65.0,82.0
107,32.92578125,33.787109375,62.0,90.0
108,32.92578125,33.8125,57.0,88.0
109,34.33203125,34.7734375,57.0,61.0
110,33.86328125,34.8515625,50.0,58.0
111,34.80078125,35.5078125,65.0,72.0
112,34.80078125,35.61328125,62.0,82.0
113,35.73828125,36.08203125,64.0,69.0
114,35.73828125,36.716796875,60.0,69.0
115,36.20703125,36.78515625,55.0,49.0
116,35.73828125,36.849609375,48.0,71.0
117,36.67578125,37.607421875,67.0,60.0
118,36.67578125,37.966796875,64.0,60.0
119,38.08203125,38.990234375,57.0,57.0
120,37.61328125,39.01953125,50.0,72.0
121,38.55078125,39.0859375,65.0,100.0
122,39.01953125,39.431640625,64.0,66.0
123,39.48828125,39.80078125,65.0,88.0
124,39.48828125,39.91796875,62.0,73.0
125,39.95703125,40.1796875,58.0,57.0
126,40.42578125,40.78125,65.0,64.0
127,40.42578125,40.943359375,62.0,75.0
128,40.42578125,40.97265625,58.0,96.0
129,41.36328125,41.849609375,65.0,38.0
130,41.36328125,41.88671875,62.0,47.0
131,41.36328125,41.9453125,58.0,60.0
132,41.36328125,41.947265625,53.0,55.0
133,39.48828125,42.38671875,46.0,93.0
134,42.30078125,42.5234375,53.0,47.0
135,42.30078125,42.78515625,65.0,81.0
136,42.30078125,42.833984375,62.0,92.0
137,42.30078125,42.849609375,58.0,96.0
138,42.76953125,43.052734375,53.0,53.0
139,43.23828125,43.73828125,53.0,83.0
140,43.23828125,43.974609375,60.0,74.0
141,43.23828125,44.0,57.0,79.0
142,43.23828125,44.25390625,41.0,63.0
143,43.70703125,44.271484375,48.0,39.0
144,44.17578125,44.40234375,53.0,62.0
145,44.17578125,44.423828125,57.0,72.0
146,44.17578125,44.462890625,60.0,72.0
147,45.11328125,45.80078125,67.0,59.0
148,45.11328125,45.837890625,64.0,68.0
149,45.11328125,45.8515625,57.0,88.0
150,45.11328125,45.8515625,61.0,89.0
151,45.11328125,46.095703125,52.0,50.0
152,45.11328125,46.142578125,45.0,50.0
153,46.052734375,46.291015625,67.0,83.0
154,46.052734375,46.392578125,61.0,107.0
155,46.052734375,46.40625,64.0,85.0
156,46.98828125,47.54296875,62.0,93.0
157,46.98828125,47.552734375,69.0,93.0
158,46.98828125,47.580078125,65.0,93.0
159,47.45703125,48.1796875,57.0,73.0
160,47.92578125,48.736328125,64.0,100.0
161,48.39453125,49.173828125,57.0,36.0
162,48.86328125,49.38671875,64.0,63.0
163,48.86328125,49.390625,62.0,72.0
164,48.86328125,49.390625,65.0,72.0
165,48.86328125,49.421875,69.0,69.0
166,49.33203125,49.728515625,57.0,31.0
167,46.98828125,49.84765625,50.0,71.0
168,49.80078125,50.23828125,65.0,85.0
169,50.73828125,51.3046875,53.0,90.0
170,50.73828125,51.501953125,60.0,77.0
171,50.73828125,51.509765625,57.0,77.0
172,51.20703125,51.744140625,48.0,33.0
173,50.73828125,51.77734375,41.0,61.0
174,51.67578125,51.80078125,53.0,66.0
175,51.67578125,51.810546875,57.0,67.0
176,51.67578125,51.8671875,60.0,71.0
177,52.61328125,53.138671875,60.0,83.0
178,52.61328125,53.138671875,67.0,82.0
179,52.61328125,53.17578125,64.0,85.0
180,53.08203125,53.67578125,55.0,38.0
181,52.61328125,53.703125,48.0,63.0
182,53.55078125,53.78125,64.0,86.0
183,53.55078125,53.791015625,67.0,79.0
184,54.48828125,54.83984375,67.0,90.0
185,54.48828125,54.861328125,70.0,92.0
186,54.48828125,54.89453125,62.0,81.0
187,54.95703125,55.458984375,50.0,56.0
188,54.48828125,55.47265625,43.0,67.0
189,55.42578125,55.6015625,58.0,86.0
190,55.42578125,55.615234375,62.0,76.0
191,55.42578125,55.625,55.0,82.0
192,56.36328125,56.95703125,57.0,83.0
193,56.36328125,56.958984375,60.0,83.0
194,56.36328125,57.12109375,64.0,76.0
195,56.83203125,57.298828125,52.0,48.0
196,56.36328125,57.33984375,45.0,65.0
197,57.30078125,57.46484375,57.0,61.0
198,57.30078125,57.4765625,60.0,66.0
199,57.30078125,57.4765625,64.0,58.0
200,57.30078125,57.509765625,67.0,65.0
201,58.23828125,58.7109375,65.0,83.0
202,58.23828125,58.8515625,69.0,72.0
203,58.23828125,59.0234375,62.0,85.0
204,58.70703125,59.37890625,57.0,38.0
205,59.17578125,59.8046875,64.0,97.0
206,60.11328125,60.8828125,64.0,39.0
207,60.11328125,61.06640625,62.0,47.0
208,60.11328125,61.09375,65.0,41.0
209,58.23828125,61.150390625,50.0,67.0
210,60.11328125,61.150390625,69.0,43.0
211,59.64453125,61.15625,57.0,42.0
212,61.05078125,61.6328125,64.0,76.0
213,61.521484375,61.875,65.0,53.0
214,61.75390625,62.509765625,64.0,66.0
215,61.98828125,62.5390625,62.0,88.0
216,61.98828125,62.548828125,69.0,69.0
217,61.98828125,62.552734375,65.0,64.0
218,62.92578125,63.21875,62.0,85.0
219,61.98828125,63.66015625,50.0,72.0
220,62.45703125,63.80859375,57.0,58.0
221,61.98828125,64.30078125,74.0,122.0
222,63.39453125,64.326171875,62.0,62.0
223,62.92578125,64.357421875,64.0,99.0
224,62.92578125,64.359375,65.0,99.0
225,62.92578125,64.3671875,69.0,92.0
226,64.33203125,64.830078125,57.0,56.0
227,64.80078125,64.83984375,69.0,82.0
228,63.86328125,64.91015625,50.0,78.0
229,61.98828125,64.99609375,38.0,100.0
230,64.80078125,65.12109375,65.0,102.0
231,65.03515625,65.31640625,64.0,85.0
232,65.26953125,65.712890625,62.0,74.0
233,65.26953125,65.71875,38.0,102.0
234,65.73828125,66.47265625,67.0,63.0
235,65.73828125,66.521484375,64.0,71.0
236,65.73828125,66.763671875,48.0,69.0
237,66.20703125,66.78125,55.0,44.0
238,66.67578125,67.05078125,67.0,79.0
239,66.67578125,67.4609375,64.0,85.0
240,65.73828125,67.599609375,36.0,100.0
241,67.61328125,68.130859375,62.0,77.0
242,67.61328125,68.142578125,69.0,76.0
243,67.61328125,68.16015625,65.0,83.0
244,68.08203125,68.611328125,57.0,54.0
245,67.61328125,68.716796875,50.0,68.0
246,68.55078125,68.78515625,64.0,112.0
247,67.61328125,68.82421875,38.0,102.0
248,68.78515625,69.080078125,65.0,83.0
249,69.01953125,69.25,38.0,107.0
250,69.01953125,69.287109375,64.0,100.0
251,69.25390625,69.470703125,36.0,88.0
252,69.25390625,69.5390625,60.0,75.0
253,69.48828125,69.9765625,62.0,100.0
254,69.95703125,70.111328125,58.0,64.0
255,69.48828125,70.740234375,34.0,112.0
256,70.42578125,70.892578125,65.0,72.0
257,69.48828125,70.923828125,46.0,90.0
258,70.42578125,71.021484375,58.0,112.0
259,70.42578125,71.17578125,62.0,88.0
260,70.89453125,71.244140625,34.0,117.0
261,71.36328125,71.796875,65.0,73.0
262,71.36328125,72.080078125,62.0,86.0
263,71.36328125,72.08203125,58.0,102.0
264,71.36328125,72.44921875,46.0,63.0
265,71.36328125,72.615234375,34.0,93.0
266,72.30078125,72.728515625,65.0,90.0
267,72.30078125,72.79296875,58.0,127.0
268,72.30078125,72.79296875,62.0,100.0
269,73.005859375,73.078125,60.0,40.0
270,72.76953125,73.091796875,34.0,96.0
271,73.23828125,73.744140625,53.0,99.0
272,73.23828125,74.02734375,57.0,97.0
273,73.23828125,74.03125,60.0,96.0
274,73.23828125,74.236328125,41.0,73.0
275,73.23828125,74.236328125,41.0,97.0
276,73.70703125,74.248046875,48.0,43.0
277,74.17578125,74.310546875,53.0,78.0
278,74.17578125,74.31640625,57.0,90.0
279,74.17578125,74.353515625,60.0,85.0
280,74.64453125,74.849609375,41.0,95.0
281,74.87890625,75.109375,43.0,88.0
282,75.11328125,75.896484375,57.0,93.0
283,75.11328125,75.904296875,64.0,89.0
284,75.11328125,75.916015625,61.0,100.0
285,75.11328125,76.1484375,52.0,63.0
286,76.05078125,76.19921875,57.0,79.0
287,76.05078125,76.3359375,61.0,97.0
288,75.11328125,76.33984375,45.0,99.0
289,76.05078125,76.3671875,64.0,82.0
290,76.51953125,76.759765625,41.0,102.0
291,76.75390625,76.958984375,40.0,70.0
292,76.98828125,77.51953125,62.0,92.0
293,76.98828125,77.529296875,65.0,102.0
294,76.98828125,77.53515625,69.0,93.0
295,77.92578125,78.451171875,69.0,95.0
296,77.92578125,78.501953125,65.0,102.0
297,76.98828125,78.626953125,50.0,72.0
298,76.98828125,78.74609375,38.0,95.0
299,77.45703125,78.896484375,57.0,72.0
300,78.39453125,78.955078125,62.0,85.0
301,78.86328125,79.416015625,69.0,99.0
302,78.86328125,79.431640625,65.0,102.0
303,78.86328125,79.921875,50.0,62.0
304,79.33203125,79.921875,57.0,52.0
305,78.86328125,80.11328125,38.0,93.0
306,79.80078125,80.251953125,69.0,112.0
307,79.80078125,80.2578125,65.0,112.0
308,80.26953125,80.458984375,38.0,89.0
309,80.50390625,80.716796875,40.0,78.0
310,80.26953125,80.744140625,62.0,85.0
311,80.73828125,81.2421875,69.0,99.0
312,80.73828125,81.29296875,65.0,112.0
313,81.20703125,81.767578125,60.0,86.0
314,81.67578125,81.841796875,48.0,53.0
315,80.73828125,81.865234375,41.0,67.0
316,80.73828125,81.865234375,41.0,90.0
317,81.67578125,82.130859375,65.0,100.0
318,81.67578125,82.130859375,69.0,97.0
319,82.14453125,82.525390625,41.0,92.0
320,82.14453125,82.599609375,60.0,86.0
321,82.61328125,83.177734375,67.0,93.0
322,82.61328125,83.18359375,64.0,93.0
323,83.08203125,83.53125,60.0,41.0
324,83.08203125,83.671875,55.0,39.0
325,82.61328125,83.77734375,48.0,67.0
326,83.55078125,84.029296875,67.0,93.0
327,83.55078125,84.03125,64.0,100.0
328,84.01953125,84.111328125,60.0,90.0
329,82.61328125,84.400390625,36.0,95.0
330,84.48828125,84.998046875,58.0,96.0
331,84.48828125,85.130859375,62.0,89.0
332,84.95703125,85.490234375,55.0,77.0
333,84.95703125,85.716796875,50.0,57.0
334,84.48828125,85.763671875,43.0,95.0
335,85.42578125,85.875,58.0,112.0
336,85.42578125,85.896484375,62.0,95.0
337,85.89453125,86.32421875,43.0,99.0
338,85.89453125,86.396484375,50.0,42.0
339,86.36328125,86.916015625,60.0,100.0
340,86.36328125,86.99609375,64.0,97.0
341,86.83203125,87.35546875,57.0,68.0
342,86.83203125,87.43359375,52.0,50.0
343,86.36328125,87.517578125,45.0,112.0
344,87.30078125,87.763671875,60.0,97.0
345,87.30078125,87.791015625,64.0,95.0
346,87.76953125,87.830078125,57.0,92.0
347,87.76953125,88.0390625,41.0,99.0
348,88.00390625,88.201171875,40.0,81.0
349,88.23828125,88.703125,65.0,97.0
350,88.23828125,88.86328125,69.0,93.0
351,88.70703125,89.154296875,64.0,72.0
352,88.70703125,89.2734375,57.0,52.0
353,89.17578125,89.662109375,65.0,97.0
354,89.17578125,89.76953125,69.0,99.0
355,89.64453125,89.8984375,64.0,90.0
356,88.23828125,89.923828125,50.0,71.0
357,88.23828125,90.015625,38.0,92.0
358,89.41015625,90.080078125,57.0,53.0
359,90.11328125,90.359375,65.0,95.0
360,90.34765625,90.359375,65.0,20.0
361,90.11328125,90.5625,69.0,95.0
362,90.11328125,90.56640625,62.0,102.0
363,90.11328125,90.970703125,38.0,86.0
364,90.58203125,91.11328125,57.0,64.0
365,91.05078125,91.224609375,64.0,112.0
366,91.05078125,91.24609375,76.0,97.0
367,90.11328125,91.408203125,50.0,90.0
368,91.28515625,91.42578125,57.0,97.0
369,91.05078125,91.537109375,41.0,88.0
370,91.51953125,91.615234375,65.0,112.0
371,91.51953125,91.98828125,40.0,89.0
372,91.99609375,92.455078125,65.0,80.0
373,91.99609375,92.498046875,69.0,82.0
374,91.99609375,92.505859375,62.0,83.0
375,91.99609375,92.51171875,50.0,87.0
376,92.693359375,93.0703125,50.0,80.0
377,91.99609375,93.224609375,38.0,88.0
378,93.162109375,93.435546875,57.0,59.0
379,93.400390625,93.494140625,50.0,57.0
380,92.94140625,93.51171875,65.0,86.0
381,92.94140625,93.515625,62.0,99.0
382,92.94140625,93.521484375,69.0,93.0
383,93.61328125,93.666015625,38.0,65.0
384,93.8828125,94.23828125,62.0,69.0
385,93.87890625,94.248046875,69.0,73.0
386,93.87890625,94.251953125,65.0,74.0
387,93.87890625,94.265625,50.0,80.0
388,94.57421875,95.015625,69.0,95.0
389,94.57421875,95.01953125,65.0,89.0
390,94.57421875,95.03125,57.0,97.0
391,94.57421875,95.04296875,62.0,91.0
392,93.87890625,95.294921875,38.0,76.0
393,95.271484375,95.3984375,69.0,86.0
394,95.27734375,95.404296875,62.0,80.0
395,95.27734375,95.42578125,65.0,75.0
396,95.27734375,95.44921875,57.0,88.0
397,95.04296875,95.470703125,50.0,80.0
398,95.48046875,95.525390625,38.0,71.0
399,95.759765625,96.2109375,46.0,69.0
400,95.759765625,96.232421875,62.0,76.0
401,95.759765625,96.24609375,58.0,79.0
402,95.759765625,96.248046875,65.0,78.0
403,95.759765625,96.259765625,53.0,80.0
404,96.494140625,96.8828125,46.0,71.0
405,95.759765625,97.068359375,34.0,71.0
406,96.947265625,97.1796875,53.0,59.0
407,96.728515625,97.216796875,58.0,102.0
408,96.734375,97.220703125,62.0,90.0
409,96.732421875,97.255859375,65.0,92.0
410,97.34375,97.39453125,34.0,69.0
411,97.166015625,97.396484375,46.0,61.0
412,97.626953125,98.095703125,50.0,85.0
413,98.328125,98.685546875,50.0,67.0
414,98.57421875,98.880859375,69.0,93.0
415,98.578125,98.912109375,62.0,92.0
416,98.572265625,98.9140625,65.0,89.0
417,98.80859375,98.91796875,57.0,64.0
418,97.626953125,98.953125,38.0,87.0
419,99.046875,99.099609375,50.0,80.0
420,99.505859375,99.994140625,65.0,68.0
421,99.505859375,100.001953125,53.0,65.0
422,99.505859375,100.001953125,58.0,71.0
423,99.505859375,100.001953125,62.0,72.0
424,99.505859375,100.044921875,46.0,81.0
425,100.208984375,100.5234375,46.0,80.0
426,99.505859375,100.73828125,34.0,81.0
427,100.681640625,100.86328125,46.0,67.0
428,100.4609375,100.875,65.0,92.0
429,100.474609375,100.880859375,53.0,87.0
430,100.4609375,100.900390625,62.0,88.0
431,100.4609375,100.904296875,58.0,99.0
432,100.93359375,101.001953125,34.0,56.0
433,101.154296875,101.22265625,34.0,46.0
434,101.13671875,101.22265625,46.0,56.0
435,101.388671875,101.869140625,46.0,69.0
436,101.39453125,101.908203125,62.0,67.0
437,101.3828125,101.908203125,65.0,66.0
438,101.3828125,101.923828125,58.0,77.0
439,102.060546875,102.4296875,46.0,85.0
440,102.52734375,102.65625,53.0,75.0
441,102.310546875,102.671875,62.0,88.0
442,102.310546875,102.6796875,58.0,99.0
443,102.310546875,102.705078125,65.0,87.0
444,101.390625,102.76953125,34.0,59.0
445,102.76953125,103.0078125,46.0,74.0
446,102.962890625,103.203125,34.0,54.0
447,103.2421875,103.7265625,43.0,64.0
448,103.248046875,103.755859375,62.0,76.0
449,103.244140625,103.8125,58.0,76.0
450,103.244140625,103.84765625,55.0,88.0
451,103.2421875,103.94140625,67.0,83.0
452,103.951171875,104.27734375,43.0,90.0
453,103.259765625,104.5,31.0,85.0
454,104.1875,104.580078125,55.0,106.0
455,104.1875,104.65625,67.0,99.0
456,104.189453125,104.671875,58.0,95.0
457,104.1875,104.671875,62.0,90.0
458,104.412109375,104.8359375,43.0,72.0
459,104.650390625,104.841796875,31.0,84.0
460,105.123046875,105.587890625,45.0,79.0
461,105.12890625,105.65234375,69.0,84.0
462,105.134765625,105.662109375,64.0,68.0
463,105.130859375,105.6640625,57.0,83.0
464,105.130859375,105.669921875,60.0,72.0
465,105.822265625,106.12109375,45.0,80.0
466,105.12890625,106.330078125,33.0,85.0
467,106.072265625,106.505859375,57.0,97.0
468,106.068359375,106.52734375,60.0,99.0
469,106.072265625,106.556640625,64.0,85.0
470,106.068359375,106.5625,69.0,100.0
471,106.52734375,106.77734375,33.0,81.0
472,106.28515625,106.787109375,45.0,87.0
473,106.755859375,106.80078125,38.0,72.0
474,106.990234375,107.43359375,50.0,72.0
475,107.0,107.537109375,65.0,87.0
476,107.0078125,107.556640625,57.0,94.0
477,107.0078125,107.556640625,69.0,92.0
478,107.009765625,107.572265625,62.0,84.0
479,107.724609375,108.150390625,50.0,84.0
480,106.99609375,108.361328125,38.0,71.0
481,108.1796875,108.462890625,57.0,67.0
482,107.962890625,108.474609375,65.0,96.0
483,107.962890625,108.48046875,69.0,96.0
484,107.966796875,108.505859375,62.0,97.0
485,108.630859375,108.685546875,38.0,75.0
486,108.4296875,108.7109375,50.0,81.0
487,108.884765625,109.234375,50.0,85.0
488,108.884765625,109.30859375,65.0,93.0
489,108.884765625,109.3203125,69.0,93.0
490,108.884765625,109.326171875,62.0,94.0
491,108.900390625,109.365234375,57.0,83.0
492,109.412109375,109.951171875,50.0,79.0
493,108.884765625,110.271484375,38.0,80.0
494,109.83203125,110.32421875,65.0,96.0
495,109.83203125,110.345703125,62.0,104.0
496,110.04296875,110.35546875,57.0,76.0
497,109.83203125,110.35546875,69.0,102.0
498,110.267578125,110.560546875,50.0,71.0
499,110.46875,110.763671875,38.0,68.0
500,110.73046875,111.318359375,65.0,83.0
501,110.7265625,111.328125,69.0,92.0
502,110.73046875,111.353515625,57.0,90.0
503,110.7265625,111.353515625,60.0,87.0
504,111.416015625,111.78515625,53.0,67.0
505,111.673828125,111.986328125,69.0,100.0
506,111.673828125,112.009765625,65.0,95.0
507,111.888671875,112.02734375,57.0,59.0
508,111.673828125,112.03125,60.0,102.0
509,110.73046875,112.14453125,41.0,83.0
510,112.126953125,112.294921875,53.0,67.0
511,112.3515625,112.40234375,41.0,72.0
512,112.6171875,113.060546875,65.0,78.0
513,112.62890625,113.103515625,62.0,75.0
514,112.615234375,113.10546875,58.0,85.0
515,112.623046875,113.107421875,46.0,79.0
516,112.6171875,113.11328125,53.0,84.0
517,113.349609375,113.744140625,46.0,92.0
518,113.5703125,113.953125,62.0,90.0
519,113.78515625,113.966796875,53.0,81.0
520,113.5625,113.97265625,65.0,95.0
521,112.625,113.9921875,34.0,84.0
522,113.568359375,113.994140625,58.0,100.0
523,114.041015625,114.279296875,46.0,79.0
524,114.263671875,114.326171875,34.0,72.0
525,114.51171875,114.98046875,43.0,75.0
526,114.51171875,114.98046875,67.0,90.0
527,114.515625,115.02734375,62.0,79.0
528,114.51171875,115.044921875,55.0,95.0
529,114.51171875,115.060546875,58.0,84.0
530,115.185546875,115.5703125,43.0,72.0
531,115.431640625,115.92578125,67.0,100.0
532,115.435546875,115.951171875,62.0,92.0
533,115.65234375,115.96875,55.0,85.0
534,114.5234375,115.98046875,31.0,79.0
535,115.431640625,115.986328125,58.0,104.0
536,115.9296875,116.03515625,43.0,79.0
537,116.38671875,116.79296875,64.0,84.0
538,116.38671875,116.798828125,60.0,87.0
539,116.390625,116.826171875,55.0,87.0
540,117.015625,117.443359375,48.0,79.0
541,116.396484375,117.611328125,36.0,89.0
542,117.51953125,117.65625,55.0,63.0
543,117.287109375,117.71875,64.0,104.0
544,117.296875,117.720703125,60.0,102.0
545,117.77734375,118.109375,48.0,76.0
546,117.998046875,118.234375,36.0,55.0
547,118.25390625,118.791015625,45.0,85.0
548,118.24609375,118.841796875,69.0,92.0
549,118.24609375,118.857421875,64.0,79.0
550,118.25,118.87109375,60.0,84.0
551,118.25,118.89453125,57.0,87.0
552,118.94921875,119.388671875,45.0,95.0
553,119.19140625,119.650390625,69.0,104.0
554,119.197265625,119.673828125,64.0,94.0
555,119.404296875,119.697265625,57.0,71.0
556,119.19140625,119.705078125,60.0,104.0
557,119.638671875,120.150390625,45.0,97.0
558,120.123046875,120.634765625,65.0,86.0
559,120.11328125,120.666015625,38.0,96.0
560,120.13671875,120.666015625,62.0,80.0
561,120.115234375,120.68359375,57.0,87.0
562,120.59375,120.8359375,53.0,71.0
563,120.8203125,121.529296875,38.0,105.0
564,121.291015625,121.7421875,53.0,63.0
565,121.048828125,121.779296875,62.0,94.0
566,121.744140625,121.798828125,38.0,74.0
567,121.046875,121.8046875,57.0,102.0
568,121.521484375,121.80859375,45.0,84.0
569,121.04296875,121.81640625,65.0,100.0
570,121.98828125,122.408203125,62.0,100.0
571,121.98828125,122.416015625,65.0,102.0
572,121.98828125,122.427734375,69.0,100.0
573,122.458984375,123.13671875,57.0,67.0
574,122.927734375,123.13671875,57.0,100.0
575,121.98828125,123.515625,38.0,100.0
576,121.98828125,123.73046875,50.0,89.0
577,123.62890625,123.73828125,38.0,86.0
578,122.927734375,123.76171875,65.0,127.0
579,122.927734375,123.765625,62.0,122.0
580,123.39453125,123.76953125,57.0,82.0
581,123.86328125,123.900390625,57.0,95.0
582,124.09765625,124.1953125,38.0,72.0
583,123.86328125,124.564453125,65.0,100.0
584,123.86328125,124.595703125,62.0,107.0
585,124.33203125,124.634765625,57.0,69.0
586,123.86328125,124.8984375,50.0,79.0
587,124.33203125,125.12890625,38.0,97.0
588,125.26953125,125.46875,38.0,100.0
589,124.80078125,125.513671875,69.0,122.0
590,124.80078125,125.515625,65.0,122.0
591,124.80078125,125.59375,62.0,102.0
592,125.50390625,125.6484375,36.0,72.0
593,125.26953125,125.70703125,50.0,90.0
594,125.73828125,126.265625,65.0,96.0
595,125.73828125,126.490234375,62.0,99.0
596,125.73828125,126.509765625,58.0,127.0
597,125.73828125,126.921875,46.0,52.0
598,125.73828125,126.951171875,34.0,102.0
599,126.67578125,127.005859375,58.0,127.0
600,126.67578125,127.021484375,62.0,100.0
601,126.67578125,127.076171875,65.0,90.0
602,127.14453125,127.326171875,34.0,102.0
603,127.37890625,127.5546875,36.0,68.0
604,127.14453125,127.59765625,46.0,85.0
605,127.61328125,128.3828125,69.0,107.0
606,127.61328125,128.390625,62.0,100.0
607,127.61328125,128.390625,65.0,107.0
608,127.61328125,128.646484375,50.0,63.0
609,127.61328125,128.87109375,38.0,88.0
610,128.55078125,128.87890625,69.0,127.0
611,128.55078125,128.892578125,65.0,127.0
612,128.78515625,129.0078125,50.0,107.0
613,129.01953125,129.21484375,38.0,82.0
614,129.25390625,129.423828125,36.0,86.0
615,129.01953125,129.443359375,48.0,95.0
616,129.48828125,130.041015625,65.0,83.0
617,129.48828125,130.244140625,62.0,93.0
618,129.48828125,130.271484375,58.0,117.0
619,130.42578125,130.84375,65.0,92.0
620,129.48828125,131.0390625,34.0,100.0
621,130.42578125,131.18359375,58.0,122.0
622,130.42578125,131.193359375,62.0,96.0
623,131.12890625,131.234375,34.0,81.0
624,131.36328125,131.728515625,34.0,89.0
625,131.36328125,131.861328125,65.0,93.0
626,131.36328125,132.125,62.0,102.0
627,131.36328125,132.134765625,58.0,127.0
628,129.48828125,132.54296875,46.0,99.0
629,131.83203125,132.60546875,34.0,95.0
630,132.30078125,132.7890625,65.0,93.0
631,132.30078125,133.021484375,62.0,102.0
632,132.30078125,133.076171875,58.0,127.0
633,132.76953125,133.1015625,34.0,95.0
634,132.76953125,133.23046875,46.0,99.0
635,133.23828125,133.833984375,62.0,93.0
636,133.23828125,133.845703125,55.0,117.0
637,133.23828125,134.0,58.0,117.0
638,133.70703125,134.318359375,50.0,44.0
639,134.17578125,134.6328125,58.0,127.0
640,134.17578125,134.65625,62.0,100.0
641,134.17578125,134.671875,55.0,102.0
642,133.23828125,134.759765625,43.0,68.0
643,133.23828125,134.759765625,43.0,100.0
644,134.87890625,135.12890625,43.0,93.0
645,134.64453125,135.140625,50.0,71.0
646,135.11328125,135.404296875,45.0,89.0
647,135.11328125,135.90625,57.0,107.0
648,135.11328125,135.94140625,64.0,100.0
649,135.11328125,135.9453125,60.0,100.0
650,135.58203125,136.26171875,52.0,45.0
651,135.58203125,136.326171875,45.0,100.0
652,136.05078125,136.541015625,57.0,97.0
653,136.05078125,136.55078125,60.0,107.0
654,136.05078125,136.572265625,64.0,96.0
655,136.51953125,136.650390625,52.0,63.0
656,136.51953125,136.748046875,41.0,96.0
657,136.75390625,136.94921875,40.0,70.0
658,136.98828125,137.453125,65.0,99.0
659,136.98828125,137.501953125,69.0,97.0
660,136.98828125,137.71875,62.0,99.0
661,137.45703125,138.07421875,57.0,70.0
662,137.92578125,138.447265625,69.0,102.0
663,137.92578125,138.5,65.0,107.0
664,136.98828125,138.515625,38.0,78.0
665,138.62890625,138.751953125,38.0,77.0
666,136.98828125,138.751953125,50.0,78.0
667,137.92578125,138.80859375,64.0,102.0
668,138.39453125,138.892578125,57.0,53.0
669,138.86328125,139.138671875,38.0,86.0
670,138.86328125,139.49609375,62.0,93.0
671,138.86328125,139.650390625,69.0,83.0
672,138.86328125,139.66796875,65.0,95.0
673,139.33203125,139.87109375,57.0,73.0
674,139.33203125,140.107421875,38.0,89.0
675,138.86328125,140.134765625,50.0,73.0
676,140.03515625,140.138671875,57.0,83.0
677,139.80078125,140.263671875,62.0,90.0
678,139.80078125,140.302734375,69.0,97.0
679,139.80078125,140.318359375,65.0,112.0
680,140.26953125,140.44921875,38.0,97.0
681,140.26953125,140.6171875,64.0,112.0
682,140.50390625,140.734375,36.0,77.0
683,140.73828125,141.376953125,69.0,99.0
684,140.73828125,141.404296875,60.0,100.0
685,140.73828125,141.408203125,65.0,107.0
686,140.73828125,141.8671875,41.0,93.0
687,141.67578125,142.03125,69.0,97.0
688,141.67578125,142.05078125,65.0,100.0
689,141.67578125,142.115234375,60.0,95.0
690,142.37890625,142.52734375,41.0,93.0
691,142.61328125,142.806640625,34.0,95.0
692,142.61328125,143.216796875,65.0,88.0
693,142.61328125,143.294921875,62.0,96.0
694,142.61328125,143.341796875,58.0,122.0
695,143.08203125,143.595703125,50.0,34.0
696,142.61328125,143.71484375,46.0,83.0
697,143.08203125,143.8515625,34.0,97.0
698,143.55078125,143.8671875,65.0,89.0
699,143.55078125,144.076171875,62.0,99.0
700,143.55078125,144.0859375,58.0,122.0
701,144.01953125,144.310546875,34.0,97.0
702,144.01953125,144.447265625,45.0,86.0
703,144.48828125,145.228515625,62.0,89.0
704,144.48828125,145.2421875,55.0,97.0
705,144.48828125,145.25390625,58.0,117.0
706,144.95703125,145.490234375,50.0,36.0
707,144.48828125,145.509765625,43.0,94.0
708,145.42578125,145.580078125,55.0,96.0
709,145.42578125,145.59765625,58.0,122.0
710,145.42578125,145.6328125,62.0,96.0
711,146.12890625,146.2734375,43.0,92.0
712,146.36328125,146.73828125,36.0,89.0
713,146.36328125,147.091796875,60.0,107.0
714,146.36328125,147.099609375,67.0,99.0
715,146.36328125,147.10546875,64.0,112.0
716,146.83203125,147.486328125,55.0,37.0
717,146.36328125,147.5859375,48.0,69.0
718,147.30078125,147.767578125,67.0,99.0
719,147.30078125,147.775390625,64.0,99.0
720,147.30078125,147.83984375,60.0,99.0
721,146.83203125,147.884765625,36.0,89.0
722,148.00390625,148.19921875,36.0,82.0
723,148.23828125,148.76953125,67.0,74.0
724,148.23828125,148.779296875,64.0,85.0
725,148.23828125,148.806640625,60.0,96.0
726,148.23828125,148.80859375,57.0,92.0
727,148.70703125,149.306640625,52.0,45.0
728,149.17578125,149.443359375,57.0,99.0
729,149.17578125,149.470703125,60.0,122.0
730,149.17578125,149.478515625,64.0,99.0
731,149.17578125,149.515625,67.0,89.0
732,148.23828125,149.556640625,45.0,71.0
733,149.64453125,149.734375,52.0,69.0
734,149.64453125,149.978515625,45.0,93.0
735,150.11328125,150.13671875,69.0,78.0
736,150.11328125,150.5703125,65.0,107.0
737,150.11328125,150.865234375,62.0,100.0
738,150.58203125,151.130859375,57.0,86.0
739,150.11328125,151.353515625,38.0,96.0
740,151.05078125,151.478515625,64.0,122.0
741,151.51953125,151.716796875,38.0,97.0
742,151.51953125,151.80078125,65.0,112.0
743,150.11328125,151.853515625,50.0,72.0
744,151.28515625,151.9296875,57.0,97.0
745,151.75390625,151.966796875,41.0,68.0
746,151.75390625,151.982421875,64.0,97.0
747,151.98828125,152.74609375,62.0,83.0
748,151.98828125,152.755859375,55.0,83.0
749,151.98828125,152.79296875,58.0,93.0
750,152.92578125,153.357421875,58.0,92.0
751,152.92578125,153.37890625,62.0,77.0
752,151.98828125,153.40234375,43.0,70.0
753,153.39453125,153.40234375,43.0,99.0
754,152.45703125,153.41015625,50.0,35.0
755,152.92578125,153.41015625,55.0,86.0
756,153.86328125,153.890625,55.0,47.0
757,153.86328125,155.10546875,36.0,102.0
758,153.86328125,155.236328125,60.0,88.0
759,153.86328125,155.2421875,48.0,48.0
760,153.86328125,155.26171875,64.0,78.0
761,155.26953125,155.693359375,36.0,86.0
762,155.73828125,156.212890625,65.0,74.0
763,155.73828125,156.380859375,69.0,74.0
764,155.73828125,156.603515625,62.0,83.0
765,156.20703125,156.861328125,57.0,55.0
766,156.67578125,157.498046875,64.0,99.0
767,155.73828125,158.55078125,38.0,95.0
768,157.14453125,159.51171875,57.0,50.0
769,155.73828125,159.607421875,50.0,69.0
770,159.48828125,159.607421875,50.0,69.0
771,157.61328125,159.6171875,62.0,78.0
772,159.48828125,159.6171875,62.0,92.0
773,157.61328125,159.6171875,65.0,71.0
774,159.48828125,159.6171875,65.0,96.0
775,157.61328125,159.626953125,64.0,67.0
776,157.61328125,159.6328125,69.0,74.0
777,159.48828125,159.6328125,69.0,85.0
778,159.95703125,160.53125,57.0,61.0
779,160.42578125,160.974609375,64.0,99.0
780,160.89453125,161.693359375,57.0,38.0
781,161.36328125,161.88671875,62.0,83.0
782,161.36328125,161.88671875,69.0,79.0
783,161.36328125,161.900390625,65.0,88.0
784,161.83203125,162.421875,57.0,33.0
785,162.30078125,162.572265625,69.0,97.0
786,162.30078125,162.615234375,65.0,107.0
787,162.30078125,162.689453125,62.0,83.0
788,163.23828125,163.998046875,62.0,90.0
789,163.23828125,164.001953125,65.0,77.0
790,163.23828125,164.005859375,58.0,112.0
791,164.17578125,164.322265625,58.0,122.0
792,163.23828125,164.326171875,46.0,58.0
793,164.17578125,164.33203125,62.0,93.0
794,164.17578125,164.384765625,65.0,81.0
795,165.11328125,165.625,62.0,92.0
796,165.11328125,165.638671875,65.0,96.0
797,165.11328125,165.646484375,69.0,95.0
798,165.81640625,165.908203125,69.0,32.0
799,165.58203125,166.029296875,57.0,38.0
800,165.11328125,166.05859375,50.0,65.0
801,166.05078125,166.302734375,69.0,100.0
802,166.05078125,166.333984375,65.0,100.0
803,166.51953125,166.916015625,48.0,62.0
804,166.98828125,167.751953125,58.0,99.0
805,166.98828125,167.75390625,65.0,86.0
806,166.98828125,167.7578125,62.0,92.0
807,167.92578125,168.083984375,58.0,112.0
808,167.92578125,168.091796875,62.0,92.0
809,167.92578125,168.09765625,65.0,78.0
810,166.98828125,168.216796875,46.0,92.0
811,168.39453125,168.83984375,46.0,44.0
812,168.86328125,169.5859375,62.0,97.0
813,168.86328125,169.626953125,69.0,95.0
814,168.86328125,169.638671875,65.0,102.0
815,168.86328125,170.0546875,50.0,67.0
816,169.80078125,170.09765625,69.0,93.0
817,169.80078125,170.123046875,65.0,100.0
818,169.80078125,170.169921875,62.0,93.0
819,170.26953125,170.638671875,50.0,82.0
820,170.73828125,171.294921875,62.0,88.0
821,170.73828125,171.330078125,55.0,93.0
822,170.73828125,171.51953125,58.0,97.0
823,171.20703125,171.86328125,50.0,35.0
824,171.67578125,172.109375,58.0,107.0
825,171.67578125,172.13671875,62.0,88.0
826,171.67578125,172.146484375,55.0,89.0
827,170.73828125,172.15234375,43.0,66.0
828,172.14453125,172.65234375,50.0,40.0
829,172.61328125,173.439453125,64.0,95.0
830,172.61328125,173.44140625,57.0,99.0
831,172.61328125,173.443359375,61.0,112.0
832,172.61328125,173.697265625,45.0,65.0
833,173.55078125,173.83984375,57.0,102.0
834,173.78515625,173.884765625,45.0,78.0
835,173.55078125,174.048828125,61.0,127.0
836,173.55078125,174.072265625,67.0,93.0
837,173.55078125,174.0859375,64.0,100.0
838,174.01953125,174.138671875,57.0,96.0
839,174.48828125,174.91015625,62.0,127.0
840,174.48828125,174.91015625,65.0,102.0
841,174.48828125,174.927734375,69.0,85.0
842,175.42578125,175.693359375,62.0,102.0
843,175.42578125,175.91015625,65.0,112.0
844,175.42578125,175.98828125,69.0,100.0
845,174.48828125,176.076171875,50.0,78.0
846,175.89453125,176.201171875,62.0,82.0
847,174.95703125,176.388671875,57.0,56.0
848,176.36328125,176.865234375,64.0,73.0
849,176.36328125,176.884765625,62.0,74.0
850,176.36328125,176.884765625,65.0,90.0
851,176.36328125,176.884765625,69.0,88.0
852,176.83203125,177.408203125,57.0,61.0
853,177.302734375,177.65234375,62.0,99.0
854,177.537109375,177.65625,57.0,74.0
855,176.36328125,177.67578125,50.0,69.0
856,177.302734375,177.83984375,69.0,102.0
857,177.302734375,177.8515625,65.0,112.0
858,177.76953125,178.10546875,64.0,99.0
859,178.23828125,178.58203125,69.0,96.0
860,178.23828125,178.611328125,65.0,107.0
861,178.23828125,178.66015625,60.0,99.0
862,178.70703125,179.361328125,48.0,48.0
863,179.17578125,179.62890625,57.0,97.0
864,179.17578125,179.650390625,60.0,100.0
865,179.17578125,179.71484375,53.0,100.0
866,178.23828125,179.76953125,41.0,74.0
867,179.64453125,179.8125,48.0,41.0
868,180.11328125,180.591796875,65.0,85.0
869,180.11328125,180.603515625,62.0,102.0
870,180.11328125,180.615234375,58.0,122.0
871,180.11328125,181.33203125,46.0,67.0
872,181.05078125,181.37109375,65.0,92.0
873,180.58203125,181.3828125,50.0,42.0
874,181.28515625,181.42578125,53.0,71.0
875,181.05078125,181.44921875,58.0,127.0
876,181.05078125,181.49609375,62.0,112.0
877,181.75390625,181.810546875,62.0,27.0
878,181.51953125,181.876953125,57.0,99.0
879,181.98828125,182.587890625,55.0,112.0
880,181.98828125,182.7109375,62.0,86.0
881,181.98828125,182.7734375,58.0,107.0
882,182.45703125,182.9765625,50.0,41.0
883,181.98828125,183.203125,43.0,71.0
884,183.16015625,183.27734375,50.0,79.0
885,182.92578125,183.359375,58.0,127.0
886,182.92578125,183.400390625,62.0,102.0
887,183.39453125,183.4453125,55.0,96.0
888,183.86328125,184.552734375,60.0,102.0
889,183.86328125,184.568359375,67.0,95.0
890,183.86328125,184.580078125,64.0,100.0
891,183.86328125,184.87109375,55.0,89.0
892,183.86328125,185.158203125,48.0,82.0
893,184.80078125,185.287109375,67.0,100.0
894,184.80078125,185.31640625,64.0,97.0
895,185.26953125,185.63671875,60.0,92.0
896,185.73828125,186.080078125,65.0,97.0
897,185.73828125,186.107421875,62.0,100.0
898,186.67578125,187.654296875,52.0,86.0
899,185.73828125,189.0859375,38.0,82.0
900,187.14453125,189.111328125,50.0,54.0
901,187.61328125,189.572265625,53.0,70.0
902,187.61328125,189.583984375,57.0,65.0
903,186.20703125,189.611328125,45.0,40.0
904,189.48828125,190.0390625,62.0,88.0
905,189.48828125,190.048828125,69.0,69.0
906,189.48828125,190.052734375,65.0,64.0
907,190.42578125,190.71875,62.0,85.0
908,189.48828125,191.16015625,50.0,72.0
909,189.95703125,191.30859375,57.0,58.0
910,189.48828125,191.80078125,74.0,122.0
911,190.89453125,191.826171875,62.0,62.0
912,190.42578125,191.857421875,64.0,99.0
913,190.42578125,191.859375,65.0,99.0
914,190.42578125,191.8671875,69.0,92.0
915,191.83203125,192.330078125,57.0,56.0
916,192.30078125,192.33984375,69.0,82.0
917,191.36328125,192.41015625,50.0,78.0
918,189.48828125,192.49609375,38.0,100.0
919,192.30078125,192.62109375,65.0,102.0
920,192.53515625,192.81640625,64.0,85.0
921,192.76953125,193.212890625,62.0,74.0
922,192.76953125,193.21875,38.0,102.0
923,193.23828125,193.97265625,67.0,63.0
924,193.23828125,194.021484375,64.0,71.0
925,193.23828125,194.263671875,48.0,69.0
926,193.70703125,194.28125,55.0,44.0
927,194.17578125,194.55078125,67.0,79.0
928,194.17578125,194.9609375,64.0,85.0
929,193.23828125,195.099609375,36.0,100.0
930,195.11328125,195.630859375,62.0,77.0
931,195.11328125,195.642578125,69.0,76.0
932,195.11328125,195.66015625,65.0,83.0
933,195.58203125,196.111328125,57.0,54.0
934,195.11328125,196.216796875,50.0,68.0
935,196.05078125,196.28515625,64.0,112.0
936,195.11328125,196.32421875,38.0,102.0
937,196.28515625,196.580078125,65.0,83.0
938,196.51953125,196.75,38.0,107.0
939,196.51953125,196.787109375,64.0,100.0
940,196.75390625,196.970703125,36.0,88.0
941,196.75390625,197.0390625,60.0,75.0
942,196.98828125,197.4765625,62.0,100.0
943,197.45703125,197.611328125,58.0,64.0
944,196.98828125,198.240234375,34.0,112.0
945,197.92578125,198.392578125,65.0,72.0
946,196.98828125,198.423828125,46.0,90.0
947,197.92578125,198.521484375,58.0,112.0
948,197.92578125,198.67578125,62.0,88.0
949,198.39453125,198.744140625,34.0,117.0
950,198.86328125,199.296875,65.0,73.0
951,198.86328125,199.580078125,62.0,86.0
952,198.86328125,199.58203125,58.0,102.0
953,198.86328125,199.94921875,46.0,63.0
954,198.86328125,200.115234375,34.0,93.0
955,199.80078125,200.228515625,65.0,90.0
956,199.80078125,200.29296875,58.0,127.0
957,199.80078125,200.29296875,62.0,100.0
958,200.505859375,200.578125,60.0,40.0
959,200.26953125,200.591796875,34.0,96.0
960,200.73828125,201.244140625,53.0,99.0
961,200.73828125,201.52734375,57.0,97.0
962,200.73828125,201.53125,60.0,96.0
963,201.20703125,201.748046875,48.0,43.0
964,201.67578125,201.810546875,53.0,78.0
965,201.67578125,201.81640625,57.0,90.0
966,201.67578125,201.853515625,60.0,85.0
967,200.73828125,201.95703125,41.0,97.0
968,202.14453125,202.349609375,41.0,95.0
969,202.37890625,202.609375,43.0,88.0
970,202.61328125,203.396484375,57.0,93.0
971,202.61328125,203.404296875,64.0,89.0
972,202.61328125,203.416015625,61.0,100.0
973,202.61328125,203.6484375,52.0,63.0
974,203.55078125,203.69921875,57.0,79.0
975,203.55078125,203.8359375,61.0,97.0
976,202.61328125,203.83984375,45.0,99.0
977,203.55078125,203.8671875,64.0,82.0
978,204.01953125,204.259765625,41.0,102.0
979,204.25390625,204.458984375,40.0,70.0
980,204.48828125,205.01953125,62.0,92.0
981,204.48828125,205.029296875,65.0,102.0
982,204.48828125,205.03515625,69.0,93.0
983,205.42578125,205.951171875,69.0,95.0
984,205.42578125,206.001953125,65.0,102.0
985,204.48828125,206.126953125,50.0,72.0
986,204.48828125,206.24609375,38.0,95.0
987,204.95703125,206.396484375,57.0,72.0
988,205.89453125,206.455078125,62.0,85.0
989,206.36328125,206.916015625,69.0,99.0
990,206.36328125,206.931640625,65.0,102.0
991,206.36328125,207.421875,50.0,62.0
992,206.83203125,207.421875,57.0,52.0
993,206.36328125,207.61328125,38.0,93.0
994,207.30078125,207.751953125,69.0,112.0
995,207.30078125,207.7578125,65.0,112.0
996,207.76953125,207.958984375,38.0,89.0
997,208.00390625,208.216796875,40.0,78.0
998,207.76953125,208.244140625,62.0,85.0
999,208.23828125,208.7421875,69.0,99.0
1000,208.23828125,208.79296875,65.0,112.0
1001,208.70703125,209.267578125,60.0,86.0
1002,209.17578125,209.341796875,48.0,53.0
1003,208.23828125,209.541015625,41.0,90.0
1004,209.17578125,209.630859375,65.0,100.0
1005,209.17578125,209.630859375,69.0,97.0
1006,209.64453125,210.025390625,41.0,92.0
1007,209.64453125,210.099609375,60.0,86.0
1008,210.11328125,210.677734375,67.0,93.0
1009,210.11328125,210.68359375,64.0,93.0
1010,210.58203125,211.03125,60.0,41.0
1011,210.58203125,211.171875,55.0,39.0
1012,210.11328125,211.27734375,48.0,67.0
1013,211.05078125,211.529296875,67.0,93.0
1014,211.05078125,211.53125,64.0,100.0
1015,211.51953125,211.611328125,60.0,90.0
1016,210.11328125,211.900390625,36.0,95.0
1017,211.98828125,212.498046875,58.0,96.0
1018,211.98828125,212.630859375,62.0,89.0
1019,212.45703125,212.990234375,55.0,77.0
1020,212.45703125,213.216796875,50.0,57.0
1021,211.98828125,213.263671875,43.0,95.0
1022,212.92578125,213.375,58.0,112.0
1023,212.92578125,213.396484375,62.0,95.0
1024,213.39453125,213.82421875,43.0,99.0
1025,213.39453125,213.896484375,50.0,42.0
1026,213.86328125,214.416015625,60.0,100.0
1027,213.86328125,214.49609375,64.0,97.0
1028,214.33203125,214.85546875,57.0,68.0
1029,214.33203125,214.93359375,52.0,50.0
1030,213.86328125,215.017578125,45.0,112.0
1031,214.80078125,215.263671875,60.0,97.0
1032,214.80078125,215.291015625,64.0,95.0
1033,215.26953125,215.330078125,57.0,92.0
1034,215.26953125,215.5390625,41.0,99.0
1035,215.50390625,215.701171875,40.0,81.0
1036,215.73828125,216.203125,65.0,97.0
1037,215.73828125,216.36328125,69.0,93.0
1038,216.20703125,216.654296875,64.0,72.0
1039,216.20703125,216.7734375,57.0,52.0
1040,216.67578125,217.162109375,65.0,97.0
1041,216.67578125,217.26953125,69.0,99.0
1042,217.14453125,217.3984375,64.0,90.0
1043,215.73828125,217.423828125,50.0,71.0
1044,215.73828125,217.515625,38.0,92.0
1045,216.91015625,217.580078125,57.0,53.0
1046,217.61328125,217.859375,65.0,95.0
1047,217.84765625,217.859375,65.0,20.0
1048,217.61328125,218.0625,69.0,95.0
1049,217.61328125,218.06640625,62.0,102.0
1050,217.61328125,218.470703125,38.0,86.0
1051,218.08203125,218.61328125,57.0,64.0
1052,218.55078125,218.724609375,64.0,112.0
1053,218.55078125,218.74609375,76.0,97.0
1054,217.61328125,218.908203125,50.0,90.0
1055,218.78515625,218.92578125,57.0,97.0
1056,218.55078125,219.037109375,41.0,88.0
1057,219.01953125,219.115234375,65.0,112.0
1058,219.01953125,219.48828125,40.0,89.0
1059,219.49609375,219.955078125,65.0,80.0
1060,219.49609375,219.998046875,69.0,82.0
1061,219.49609375,220.005859375,62.0,83.0
1062,219.49609375,220.01171875,50.0,87.0
1063,220.193359375,220.5703125,50.0,80.0
1064,219.49609375,220.724609375,38.0,88.0
1065,220.662109375,220.935546875,57.0,59.0
1066,220.900390625,220.994140625,50.0,57.0
1067,220.44140625,221.01171875,65.0,86.0
1068,220.44140625,221.015625,62.0,99.0
1069,220.44140625,221.021484375,69.0,93.0
1070,221.11328125,221.166015625,38.0,65.0
1071,221.3828125,221.73828125,62.0,69.0
1072,221.37890625,221.748046875,69.0,73.0
1073,221.37890625,221.751953125,65.0,74.0
1074,221.37890625,221.765625,50.0,80.0
1075,222.07421875,222.515625,69.0,95.0
1076,222.07421875,222.51953125,65.0,89.0
1077,222.07421875,222.53125,57.0,97.0
1078,222.07421875,222.54296875,62.0,91.0
1079,221.37890625,222.794921875,38.0,76.0
1080,222.771484375,222.8984375,69.0,86.0
1081,222.77734375,222.904296875,62.0,80.0
1082,222.77734375,222.92578125,65.0,75.0
1083,222.77734375,222.94921875,57.0,88.0
1084,222.54296875,222.970703125,50.0,80.0
1085,222.98046875,223.025390625,38.0,71.0
1086,223.259765625,223.7109375,46.0,69.0
1087,223.259765625,223.732421875,62.0,76.0
1088,223.259765625,223.74609375,58.0,79.0
1089,223.259765625,223.748046875,65.0,78.0
1090,223.259765625,223.759765625,53.0,80.0
1091,223.994140625,224.3828125,46.0,71.0
1092,223.259765625,224.568359375,34.0,71.0
1093,224.447265625,224.6796875,53.0,59.0
1094,224.228515625,224.716796875,58.0,102.0
1095,224.234375,224.720703125,62.0,90.0
1096,224.232421875,224.755859375,65.0,92.0
1097,224.84375,224.89453125,34.0,69.0
1098,224.666015625,224.896484375,46.0,61.0
1099,225.126953125,225.595703125,50.0,85.0
1100,225.828125,226.185546875,50.0,67.0
1101,226.07421875,226.380859375,69.0,93.0
1102,226.078125,226.412109375,62.0,92.0
1103,226.072265625,226.4140625,65.0,89.0
1104,226.30859375,226.41796875,57.0,64.0
1105,225.126953125,226.453125,38.0,87.0
1106,226.546875,226.599609375,50.0,80.0
1107,227.005859375,227.494140625,65.0,68.0
1108,227.005859375,227.501953125,53.0,65.0
1109,227.005859375,227.501953125,58.0,71.0
1110,227.005859375,227.501953125,62.0,72.0
1111,227.005859375,227.544921875,46.0,81.0
1112,227.708984375,228.0234375,46.0,80.0
1113,227.005859375,228.23828125,34.0,81.0
1114,228.181640625,228.36328125,46.0,67.0
1115,227.9609375,228.375,65.0,92.0
1116,227.974609375,228.380859375,53.0,87.0
1117,227.9609375,228.400390625,62.0,88.0
1118,227.9609375,228.404296875,58.0,99.0
1119,228.43359375,228.501953125,34.0,56.0
1120,228.654296875,228.72265625,34.0,46.0
1121,228.63671875,228.72265625,46.0,56.0
1122,228.888671875,229.369140625,46.0,69.0
1123,228.89453125,229.408203125,62.0,67.0
1124,228.8828125,229.408203125,65.0,66.0
1125,228.8828125,229.423828125,58.0,77.0
1126,229.560546875,229.9296875,46.0,85.0
1127,230.02734375,230.15625,53.0,75.0
1128,229.810546875,230.171875,62.0,88.0
1129,229.810546875,230.1796875,58.0,99.0
1130,229.810546875,230.205078125,65.0,87.0
1131,228.890625,230.26953125,34.0,59.0
1132,230.26953125,230.5078125,46.0,74.0
1133,230.462890625,230.703125,34.0,54.0
1134,230.7421875,231.2265625,43.0,64.0
1135,230.748046875,231.255859375,62.0,76.0
1136,230.744140625,231.3125,58.0,76.0
1137,230.744140625,231.34765625,55.0,88.0
1138,230.7421875,231.44140625,67.0,83.0
1139,231.451171875,231.77734375,43.0,90.0
1140,230.759765625,232.0,31.0,85.0
1141,231.6875,232.080078125,55.0,106.0
1142,231.6875,232.15625,67.0,99.0
1143,231.689453125,232.171875,58.0,95.0
1144,231.6875,232.171875,62.0,90.0
1145,231.912109375,232.3359375,43.0,72.0
1146,232.150390625,232.341796875,31.0,84.0
1147,232.623046875,233.087890625,45.0,79.0
1148,232.62890625,233.15234375,69.0,84.0
1149,232.634765625,233.162109375,64.0,68.0
1150,232.630859375,233.1640625,57.0,83.0
1151,232.630859375,233.169921875,60.0,72.0
1152,233.322265625,233.62109375,45.0,80.0
1153,232.62890625,233.830078125,33.0,85.0
1154,233.572265625,234.005859375,57.0,97.0
1155,233.568359375,234.02734375,60.0,99.0
1156,233.572265625,234.056640625,64.0,85.0
1157,233.568359375,234.0625,69.0,100.0
1158,234.02734375,234.27734375,33.0,81.0
1159,233.78515625,234.287109375,45.0,87.0
1160,234.255859375,234.30078125,38.0,72.0
1161,234.490234375,234.93359375,50.0,72.0
1162,234.5,235.037109375,65.0,87.0
1163,234.5078125,235.056640625,57.0,94.0
1164,234.5078125,235.056640625,69.0,92.0
1165,234.509765625,235.072265625,62.0,84.0
1166,235.224609375,235.650390625,50.0,84.0
1167,234.49609375,235.861328125,38.0,71.0
1168,235.6796875,235.962890625,57.0,67.0
1169,235.462890625,235.974609375,65.0,96.0
1170,235.462890625,235.98046875,69.0,96.0
1171,235.466796875,236.005859375,62.0,97.0
1172,236.130859375,236.185546875,38.0,75.0
1173,235.9296875,236.2109375,50.0,81.0
1174,236.384765625,236.734375,50.0,85.0
1175,236.384765625,236.80859375,65.0,93.0
1176,236.384765625,236.8203125,69.0,93.0
1177,236.384765625,236.826171875,62.0,94.0
1178,236.400390625,236.865234375,57.0,83.0
1179,236.912109375,237.451171875,50.0,79.0
1180,236.384765625,237.771484375,38.0,80.0
1181,237.33203125,237.82421875,65.0,96.0
1182,237.33203125,237.845703125,62.0,104.0
1183,237.54296875,237.85546875,57.0,76.0
1184,237.33203125,237.85546875,69.0,102.0
1185,237.767578125,238.060546875,50.0,71.0
1186,237.96875,238.263671875,38.0,68.0
1187,238.23046875,238.818359375,65.0,83.0
1188,238.2265625,238.828125,69.0,92.0
1189,238.23046875,238.853515625,57.0,90.0
1190,238.2265625,238.853515625,60.0,87.0
1191,238.916015625,239.28515625,53.0,67.0
1192,239.173828125,239.486328125,69.0,100.0
1193,239.173828125,239.509765625,65.0,95.0
1194,239.388671875,239.52734375,57.0,59.0
1195,239.173828125,239.53125,60.0,102.0
1196,238.23046875,239.64453125,41.0,83.0
1197,239.626953125,239.794921875,53.0,67.0
1198,239.8515625,239.90234375,41.0,72.0
1199,240.1171875,240.560546875,65.0,78.0
1200,240.12890625,240.603515625,62.0,75.0
1201,240.115234375,240.60546875,58.0,85.0
1202,240.123046875,240.607421875,46.0,79.0
1203,240.1171875,240.61328125,53.0,84.0
1204,240.849609375,241.244140625,46.0,92.0
1205,241.0703125,241.453125,62.0,90.0
1206,241.28515625,241.466796875,53.0,81.0
1207,241.0625,241.47265625,65.0,95.0
1208,240.125,241.4921875,34.0,84.0
1209,241.068359375,241.494140625,58.0,100.0
1210,241.541015625,241.779296875,46.0,79.0
1211,241.763671875,241.826171875,34.0,72.0
1212,242.01171875,242.48046875,43.0,75.0
1213,242.01171875,242.48046875,67.0,90.0
1214,242.015625,242.52734375,62.0,79.0
1215,242.01171875,242.544921875,55.0,95.0
1216,242.01171875,242.560546875,58.0,84.0
1217,242.685546875,243.0703125,43.0,72.0
1218,242.931640625,243.42578125,67.0,100.0
1219,242.935546875,243.451171875,62.0,92.0
1220,243.15234375,243.46875,55.0,85.0
1221,242.0234375,243.48046875,31.0,79.0
1222,242.931640625,243.486328125,58.0,104.0
1223,243.4296875,243.53515625,43.0,79.0
1224,243.88671875,244.29296875,64.0,84.0
1225,243.88671875,244.298828125,60.0,87.0
1226,243.890625,244.326171875,55.0,87.0
1227,244.515625,244.943359375,48.0,79.0
1228,243.896484375,245.111328125,36.0,89.0
1229,245.01953125,245.15625,55.0,63.0
1230,244.787109375,245.21875,64.0,104.0
1231,244.796875,245.220703125,60.0,102.0
1232,245.27734375,245.609375,48.0,76.0
1233,245.498046875,245.734375,36.0,55.0
1234,245.75390625,246.291015625,45.0,85.0
1235,245.74609375,246.341796875,69.0,92.0
1236,245.74609375,246.357421875,64.0,79.0
1237,245.75,246.37109375,60.0,84.0
1238,245.75,246.39453125,57.0,87.0
1239,246.44921875,246.888671875,45.0,95.0
1240,246.69140625,247.150390625,69.0,104.0
1241,246.697265625,247.173828125,64.0,94.0
1242,246.904296875,247.197265625,57.0,71.0
1243,246.69140625,247.205078125,60.0,104.0
1244,247.138671875,247.650390625,45.0,97.0
1245,247.61328125,247.736328125,38.0,78.0
1246,247.61328125,247.8125,69.0,78.0
1247,247.61328125,248.0703125,65.0,107.0
1248,247.84765625,248.240234375,38.0,90.0
1249,247.61328125,248.365234375,62.0,100.0
1250,248.08203125,248.630859375,57.0,86.0
1251,248.55078125,248.921875,38.0,96.0
1252,248.55078125,248.978515625,64.0,122.0
1253,249.01953125,249.205078125,40.0,83.0
1254,249.01953125,249.30078125,65.0,112.0
1255,247.61328125,249.353515625,50.0,72.0
1256,248.78515625,249.4296875,57.0,97.0
1257,249.25390625,249.48046875,41.0,78.0
1258,249.25390625,249.482421875,64.0,97.0
1259,249.48828125,249.90625,62.0,100.0
1260,249.48828125,249.9140625,65.0,102.0
1261,249.48828125,249.92578125,69.0,100.0
1262,249.95703125,250.63671875,57.0,67.0
1263,250.42578125,250.94140625,77.0,127.0
1264,250.42578125,250.9453125,74.0,122.0
1265,250.42578125,250.94921875,69.0,100.0
1266,249.48828125,251.015625,38.0,100.0
1267,249.48828125,251.23046875,50.0,89.0
1268,251.12890625,251.23828125,38.0,86.0
1269,250.89453125,251.400390625,57.0,82.0
1270,251.36328125,251.533203125,77.0,100.0
1271,251.36328125,251.564453125,74.0,107.0
1272,251.36328125,251.603515625,69.0,95.0
1273,251.59765625,251.6953125,38.0,72.0
1274,251.83203125,252.28125,57.0,69.0
1275,251.36328125,252.3984375,50.0,79.0
1276,252.30078125,252.5625,69.0,122.0
1277,252.30078125,252.564453125,65.0,122.0
1278,251.83203125,252.62890625,38.0,97.0
1279,252.30078125,252.640625,62.0,102.0
1280,252.76953125,252.96875,38.0,100.0
1281,253.00390625,253.1484375,36.0,72.0
1282,252.76953125,253.20703125,48.0,90.0
1283,253.23828125,253.765625,65.0,96.0
1284,253.23828125,253.990234375,62.0,99.0
1285,253.23828125,254.009765625,58.0,127.0
1286,253.23828125,254.421875,46.0,52.0
1287,253.23828125,254.451171875,34.0,102.0
1288,254.17578125,254.505859375,58.0,127.0
1289,254.17578125,254.521484375,62.0,100.0
1290,254.17578125,254.576171875,65.0,90.0
1291,254.64453125,254.826171875,34.0,102.0
1292,254.87890625,255.0546875,36.0,68.0
1293,254.64453125,255.09765625,46.0,85.0
1294,255.11328125,255.8828125,69.0,107.0
1295,255.11328125,255.890625,62.0,100.0
1296,255.11328125,255.890625,65.0,107.0
1297,255.11328125,256.146484375,50.0,63.0
1298,255.11328125,256.37109375,38.0,88.0
1299,256.05078125,256.37890625,69.0,127.0
1300,256.05078125,256.392578125,65.0,127.0
1301,256.28515625,256.5078125,50.0,107.0
1302,256.51953125,256.71484375,38.0,82.0
1303,256.75390625,256.923828125,36.0,86.0
1304,256.51953125,256.943359375,48.0,95.0
1305,256.98828125,257.541015625,65.0,83.0
1306,256.98828125,257.744140625,62.0,93.0
1307,256.98828125,257.771484375,58.0,117.0
1308,257.92578125,258.34375,65.0,92.0
1309,256.98828125,258.5390625,34.0,100.0
1310,257.92578125,258.68359375,58.0,122.0
1311,257.92578125,258.693359375,62.0,96.0
1312,258.62890625,258.734375,34.0,81.0
1313,258.86328125,259.228515625,34.0,89.0
1314,258.86328125,259.361328125,65.0,93.0
1315,258.86328125,259.625,62.0,102.0
1316,258.86328125,259.634765625,58.0,127.0
1317,256.98828125,260.04296875,46.0,99.0
1318,259.33203125,260.10546875,34.0,95.0
1319,259.80078125,260.2890625,65.0,93.0
1320,259.80078125,260.521484375,62.0,102.0
1321,259.80078125,260.576171875,58.0,127.0
1322,260.26953125,260.6015625,34.0,95.0
1323,260.26953125,260.73046875,46.0,99.0
1324,260.73828125,261.333984375,62.0,93.0
1325,260.73828125,261.345703125,55.0,117.0
1326,260.73828125,261.5,58.0,117.0
1327,261.20703125,261.818359375,50.0,44.0
1328,261.67578125,262.1328125,58.0,127.0
1329,261.67578125,262.15625,62.0,100.0
1330,261.67578125,262.171875,55.0,102.0
1331,260.73828125,262.259765625,43.0,68.0
1332,260.73828125,262.259765625,43.0,100.0
1333,262.37890625,262.62890625,43.0,93.0
1334,262.14453125,262.640625,50.0,71.0
1335,262.61328125,262.904296875,45.0,89.0
1336,262.61328125,263.40625,57.0,107.0
1337,262.61328125,263.44140625,64.0,100.0
1338,262.61328125,263.4453125,60.0,100.0
1339,263.08203125,263.76171875,52.0,45.0
1340,263.08203125,263.826171875,45.0,100.0
1341,263.55078125,264.041015625,57.0,97.0
1342,263.55078125,264.05078125,60.0,107.0
1343,263.55078125,264.072265625,64.0,96.0
1344,264.01953125,264.150390625,52.0,63.0
1345,264.01953125,264.248046875,41.0,96.0
1346,264.25390625,264.44921875,40.0,70.0
1347,264.48828125,264.953125,65.0,99.0
1348,264.48828125,265.001953125,69.0,97.0
1349,264.48828125,265.21875,62.0,99.0
1350,264.95703125,265.57421875,57.0,70.0
1351,265.42578125,265.947265625,69.0,102.0
1352,265.42578125,266.0,65.0,107.0
1353,264.48828125,266.015625,38.0,78.0
1354,266.12890625,266.251953125,38.0,77.0
1355,264.48828125,266.251953125,50.0,78.0
1356,265.89453125,266.392578125,57.0,53.0
1357,266.36328125,266.638671875,38.0,86.0
1358,266.36328125,266.99609375,62.0,93.0
1359,266.36328125,267.150390625,69.0,83.0
1360,266.36328125,267.16796875,65.0,95.0
1361,266.83203125,267.37109375,57.0,73.0
1362,266.83203125,267.607421875,38.0,89.0
1363,266.36328125,267.634765625,50.0,73.0
1364,267.53515625,267.638671875,57.0,83.0
1365,267.30078125,267.763671875,62.0,90.0
1366,267.30078125,267.802734375,69.0,97.0
1367,267.30078125,267.818359375,65.0,112.0
1368,267.76953125,267.94921875,38.0,97.0
1369,267.76953125,268.1171875,64.0,112.0
1370,268.00390625,268.234375,36.0,77.0
1371,268.23828125,268.876953125,69.0,99.0
1372,268.23828125,268.904296875,60.0,100.0
1373,268.23828125,268.908203125,65.0,107.0
1374,268.23828125,269.3671875,41.0,93.0
1375,269.17578125,269.53125,69.0,97.0
1376,269.17578125,269.55078125,65.0,100.0
1377,269.17578125,269.615234375,60.0,95.0
1378,269.87890625,270.02734375,41.0,93.0
1379,270.11328125,270.306640625,34.0,95.0
1380,270.11328125,270.716796875,65.0,88.0
1381,270.11328125,270.794921875,62.0,96.0
1382,270.11328125,270.841796875,58.0,122.0
1383,270.58203125,271.095703125,50.0,34.0
1384,270.11328125,271.21484375,46.0,83.0
1385,270.58203125,271.3515625,34.0,97.0
1386,271.05078125,271.3671875,65.0,89.0
1387,271.05078125,271.576171875,62.0,99.0
1388,271.05078125,271.5859375,58.0,122.0
1389,271.51953125,271.810546875,34.0,97.0
1390,271.51953125,271.947265625,45.0,86.0
1391,271.98828125,272.728515625,62.0,89.0
1392,271.98828125,272.7421875,55.0,97.0
1393,271.98828125,272.75390625,58.0,117.0
1394,272.45703125,272.990234375,50.0,36.0
1395,271.98828125,273.009765625,43.0,75.0
1396,272.92578125,273.080078125,55.0,96.0
1397,272.92578125,273.09765625,58.0,122.0
1398,272.92578125,273.1328125,62.0,96.0
1399,273.62890625,273.7734375,43.0,92.0
1400,273.86328125,274.23828125,36.0,89.0
1401,273.86328125,274.591796875,60.0,107.0
1402,273.86328125,274.599609375,67.0,99.0
1403,273.86328125,274.60546875,64.0,112.0
1404,274.33203125,274.986328125,55.0,37.0
1405,273.86328125,275.0859375,48.0,69.0
1406,274.80078125,275.267578125,67.0,99.0
1407,274.80078125,275.275390625,64.0,99.0
1408,274.80078125,275.33984375,60.0,99.0
1409,274.33203125,275.384765625,36.0,89.0
1410,275.50390625,275.69921875,36.0,82.0
1411,275.73828125,276.26953125,67.0,74.0
1412,275.73828125,276.279296875,64.0,85.0
1413,275.73828125,276.306640625,60.0,96.0
1414,275.73828125,276.30859375,57.0,92.0
1415,276.20703125,276.806640625,52.0,45.0
1416,276.67578125,276.943359375,57.0,99.0
1417,276.67578125,276.970703125,60.0,122.0
1418,276.67578125,276.978515625,64.0,99.0
1419,276.67578125,277.015625,67.0,89.0
1420,275.73828125,277.056640625,45.0,71.0
1421,277.14453125,277.234375,52.0,69.0
1422,277.14453125,277.478515625,45.0,93.0
1423,277.61328125,277.63671875,69.0,78.0
1424,277.61328125,278.0703125,65.0,107.0
1425,277.61328125,278.365234375,62.0,100.0
1426,278.08203125,278.630859375,57.0,86.0
1427,277.61328125,278.853515625,38.0,96.0
1428,278.55078125,278.978515625,64.0,122.0
1429,279.01953125,279.216796875,38.0,97.0
1430,279.01953125,279.30078125,65.0,112.0
1431,277.61328125,279.353515625,50.0,72.0
1432,278.78515625,279.4296875,57.0,97.0
1433,279.25390625,279.466796875,41.0,68.0
1434,279.25390625,279.482421875,64.0,97.0
1435,279.48828125,280.24609375,62.0,83.0
1436,279.48828125,280.255859375,55.0,83.0
1437,279.48828125,280.29296875,58.0,93.0
1438,279.48828125,280.42578125,43.0,70.0
1439,280.42578125,280.857421875,58.0,92.0
1440,280.42578125,280.87890625,62.0,77.0
1441,279.95703125,280.91015625,50.0,35.0
1442,280.42578125,280.91015625,55.0,86.0
1443,280.89453125,281.33203125,43.0,99.0
1444,281.36328125,281.390625,55.0,47.0
1445,281.36328125,282.60546875,36.0,102.0
1446,281.36328125,282.736328125,60.0,88.0
1447,281.36328125,282.7421875,48.0,48.0
1448,281.36328125,282.76171875,64.0,78.0
1449,282.76953125,283.193359375,36.0,86.0
1450,283.23828125,283.712890625,65.0,74.0
1451,283.23828125,283.880859375,69.0,74.0
1452,283.23828125,284.103515625,62.0,83.0
1453,283.70703125,284.361328125,57.0,55.0
1454,284.17578125,284.998046875,64.0,99.0
1455,283.23828125,286.05078125,38.0,95.0
1456,283.23828125,286.98828125,50.0,69.0
1457,284.64453125,286.98828125,57.0,50.0
1458,285.11328125,286.98828125,62.0,78.0
1459,285.11328125,286.98828125,64.0,67.0
1460,285.11328125,286.98828125,65.0,71.0
1461,285.11328125,286.98828125,69.0,74.0
1462,287.013671875,287.822265625,62.0,79.0
1463,287.009765625,287.8359375,58.0,93.0
1464,287.01171875,287.958984375,55.0,82.0
1465,287.001953125,288.314453125,43.0,63.0
1466,287.9375,288.33203125,58.0,102.0
1467,287.458984375,288.35546875,50.0,50.0
1468,287.94140625,288.365234375,62.0,85.0
1469,289.28515625,290.205078125,55.0,41.0
1470,288.82421875,290.287109375,48.0,68.0
1471,288.828125,290.365234375,67.0,78.0
1472,288.826171875,290.4375,60.0,89.0
1473,288.822265625,290.791015625,64.0,85.0
1474,292.16796875,292.69921875,52.0,67.0
1475,292.65234375,293.14453125,53.0,68.0
1476,293.16015625,293.2421875,57.0,77.0
1477,293.732421875,294.30078125,64.0,89.0
1478,294.359375,294.4296875,65.0,73.0
1479,290.6875,295.3046875,38.0,74.0
1480,291.681640625,295.359375,50.0,72.0
1481,295.53125,297.6875,50.0,35.0
1482,291.177734375,297.71875,45.0,43.0
1483,295.751953125,297.73046875,74.0,43.0
1484,295.482421875,297.734375,38.0,40.0
1485,295.5625,297.73828125,65.0,39.0
1486,295.654296875,297.744140625,69.0,37.0
1487,295.509765625,297.75,62.0,42.0
