,start,end,pitch,velocity
0,28.465043166666668,29.310630500000002,60.0,88.0
1,29.34739516666667,30.090041433333337,62.0,76.0
2,30.22974716666667,30.6176144,60.0,97.0
3,30.670923166666668,31.115775633333335,62.0,78.0
4,31.11209916666667,31.476069366666668,65.0,89.0
5,31.55327516666667,31.9356277,62.0,90.0
6,31.994451166666668,32.47423006666667,60.0,93.0
7,32.43562716666667,33.3529056,58.0,75.0
8,33.31797916666667,33.7830522,60.0,99.0
9,33.759155166666666,34.59187486666667,62.0,92.0
10,34.64150716666667,35.10474196666667,60.0,107.0
11,35.08268316666667,35.54959443333333,62.0,88.0
12,35.52385916666667,36.010991000000004,60.0,86.0
13,35.96503516666667,36.8161372,58.0,64.0
14,36.84738716666667,37.12679863333334,60.0,96.0
15,37.28856316666667,37.648856900000006,60.0,95.0
16,37.72973916666667,38.06981233333334,62.0,92.0
17,38.17091516666667,38.479738366666666,65.0,99.0
18,38.61209116666667,38.89334086666667,62.0,88.0
19,39.05326716666667,39.45400203333334,60.0,85.0
20,39.49444316666667,40.36392753333334,58.0,75.0
21,40.37679516666667,40.59738316666667,60.0,97.0
22,40.817971166666666,41.56245566666667,62.0,97.0
23,41.70032316666667,42.06980806666667,60.0,127.0
24,42.14149916666667,42.53304286666667,62.0,89.0
25,42.58267516666667,42.97973356666667,55.0,97.0
26,43.02385116666667,43.35473316666667,58.0,96.0
27,43.46502716666667,43.86208556666667,58.0,92.0
28,43.90620316666667,44.34186446666667,55.0,74.0
29,44.34737916666667,45.09554013333334,60.0,89.0
30,45.22973116666667,45.61024546666667,69.0,122.0
31,45.67090716666667,45.9815686,67.0,95.0
32,46.11208316666667,46.46502396666667,65.0,97.0
33,46.55325916666667,46.90068526666667,60.0,96.0
34,46.99443516666667,47.411714133333334,60.0,92.0
35,47.43561116666667,47.8841401,65.0,95.0
36,47.876787166666674,48.6231099,62.0,85.0
37,48.75913916666667,49.12127113333334,60.0,100.0
38,49.20031516666667,49.54774126666667,62.0,97.0
39,49.64149116666667,49.89700560000001,60.0,102.0
40,50.08266716666667,50.395166833333334,58.0,96.0
41,50.52384316666667,50.86575456666667,58.0,97.0
42,50.96501916666667,51.259136500000004,58.0,96.0
43,51.40619516666667,51.75362126666667,58.0,97.0
44,52.72972316666667,53.17641386666667,55.0,89.0
45,53.17089916666667,55.104720633333336,60.0,89.0
46,56.70030716666667,57.5458945,60.0,88.0
47,57.58265916666667,58.32530543333334,62.0,76.0
48,58.46501116666667,58.8528784,60.0,97.0
49,58.90618716666667,59.351039633333336,62.0,78.0
50,59.34736316666667,59.71133336666667,65.0,89.0
51,59.78853916666667,60.170891700000006,62.0,90.0
52,60.22971516666667,60.70949406666667,60.0,93.0
53,60.67089116666667,61.58816960000001,58.0,75.0
54,61.55324316666667,62.01831620000001,60.0,99.0
55,61.994419166666674,62.82713886666667,62.0,92.0
56,62.87677116666667,63.34000596666667,60.0,107.0
57,63.31794716666667,63.78485843333334,62.0,88.0
58,63.75912316666667,64.246255,60.0,86.0
59,64.20029916666667,65.0514012,58.0,64.0
60,65.08265116666666,65.36206263333334,60.0,96.0
61,65.52382716666668,65.8841209,60.0,95.0
62,65.96500316666668,66.30507633333333,62.0,92.0
63,66.40617916666667,66.71500236666667,65.0,99.0
64,66.84735516666667,67.12860486666668,62.0,88.0
65,67.28853116666667,67.68926603333334,60.0,85.0
66,67.72970716666667,68.59919153333334,58.0,75.0
67,68.61205916666667,68.83264716666667,60.0,97.0
68,69.05323516666667,69.79771966666667,62.0,97.0
69,69.93558716666668,70.30507206666667,60.0,127.0
70,70.37676316666668,70.76830686666668,62.0,89.0
71,70.81793916666668,71.21499756666667,55.0,97.0
72,71.25911516666667,71.58999716666668,58.0,96.0
73,71.70029116666667,72.09734956666667,58.0,92.0
74,72.14146716666667,72.57712846666668,55.0,74.0
75,72.58264316666667,73.33080413333334,60.0,89.0
76,73.46499516666667,73.84550946666667,69.0,122.0
77,73.90617116666667,74.2168326,67.0,95.0
78,74.34734716666667,74.70028796666668,65.0,97.0
79,74.78852316666668,75.13594926666667,60.0,96.0
80,75.22969916666668,75.64697813333333,60.0,92.0
81,75.67087516666668,76.11940410000001,65.0,95.0
82,76.11205116666667,76.8583739,62.0,85.0
83,76.99440316666667,77.35653513333334,60.0,100.0
84,77.43557916666667,77.78300526666668,62.0,97.0
85,77.87675516666667,78.1322696,55.0,102.0
86,78.31793116666667,78.63043083333334,58.0,96.0
87,78.75910716666667,79.10101856666667,58.0,97.0
88,79.20028316666668,79.49440050000001,58.0,96.0
89,79.64145916666668,79.98888526666667,58.0,97.0
90,80.96498716666667,81.41167786666668,55.0,89.0
91,81.40616316666667,83.33998463333334,65.0,89.0
92,84.05321916666668,84.2866748,65.0,107.0
93,84.49439516666668,84.75174783333334,60.0,112.0
94,84.93557116666668,85.84549666666668,62.0,117.0
95,86.25909916666667,86.6138782,60.0,112.0
96,86.70027516666667,87.3859362,62.0,122.0
97,87.58262716666667,87.85652393333334,62.0,112.0
98,88.02380316666667,88.34181753333334,63.0,122.0
99,88.46497916666668,89.17453723333334,65.0,112.0
100,91.11203516666667,91.5826229,60.0,122.0
101,91.55321116666667,91.84549026666667,62.0,97.0
102,91.99438716666667,92.38041616666668,60.0,102.0
103,92.43556316666667,93.25725346666667,58.0,92.0
104,93.31791516666668,93.74254706666667,57.0,102.0
105,93.75909116666668,94.41350223333335,58.0,99.0
106,94.64144316666668,94.99070750000001,58.0,102.0
107,95.08261916666667,95.40798646666667,60.0,97.0
108,95.52379516666667,96.36754426666667,62.0,102.0
109,97.72967516666668,97.97416020000001,58.0,112.0
110,98.17085116666668,98.51276256666668,70.0,122.0
111,98.61202716666668,98.90614450000001,65.0,100.0
112,99.05320316666668,99.95577573333334,67.0,100.0
113,100.37673116666667,101.3546713,65.0,117.0
114,101.70025916666667,101.91717070000001,65.0,102.0
115,102.14143516666667,102.39327313333334,62.0,97.0
116,102.58261116666668,103.33077213333334,65.0,117.0
117,103.46496316666668,103.99069790000001,67.0,127.0
118,104.34731516666668,105.24069656666667,58.0,112.0
119,105.67084316666667,105.98334283333334,62.0,100.0
120,106.11201916666667,106.43738646666668,65.0,100.0
121,106.55319516666667,106.8473125,63.0,107.0
122,106.99437116666668,107.34179726666667,63.0,122.0
123,107.43554716666668,107.68187043333334,62.0,100.0
124,107.87672316666668,108.27929626666668,63.0,122.0
125,108.31789916666668,108.6451047,62.0,102.0
126,108.75907516666668,109.06789836666667,60.0,107.0
127,109.20025116666667,109.49988320000001,58.0,100.0
128,109.64142716666667,111.76274843333334,60.0,97.0
129,112.28848316666668,112.52193880000002,65.0,107.0
130,112.72965916666668,112.98701183333334,60.0,112.0
131,113.17083516666668,114.08076066666668,62.0,117.0
132,114.49436316666667,114.8491422,60.0,112.0
133,114.93553916666667,115.6212002,62.0,122.0
134,115.81789116666667,116.09178793333334,62.0,112.0
135,116.25906716666668,116.57708153333334,63.0,122.0
136,116.70024316666668,117.40980123333334,65.0,112.0
137,119.34729916666667,119.8178869,60.0,122.0
138,119.78847516666667,120.08075426666667,62.0,97.0
139,120.22965116666667,120.61568016666668,60.0,102.0
140,120.67082716666667,121.49251746666667,58.0,92.0
141,121.55317916666668,121.97781106666667,57.0,102.0
142,121.99435516666668,122.64876623333335,58.0,99.0
143,122.87670716666668,123.22597150000001,58.0,102.0
144,123.31788316666668,123.64325046666667,60.0,97.0
145,123.75905916666667,124.60280826666667,62.0,102.0
146,125.96493916666668,126.20942420000002,58.0,112.0
147,126.40611516666668,126.74802656666668,70.0,122.0
148,126.84729116666668,127.14140850000001,65.0,100.0
149,127.28846716666668,128.19103973333335,67.0,100.0
150,128.61199516666667,129.5899353,65.0,117.0
151,129.93552316666668,130.15243470000001,65.0,102.0
152,130.37669916666667,130.62853713333334,62.0,97.0
153,130.81787516666668,131.56603613333334,65.0,117.0
154,131.70022716666668,132.22596190000002,67.0,127.0
155,132.58257916666668,133.47596056666669,58.0,112.0
156,133.9061071666667,134.21860683333335,62.0,100.0
157,134.34728316666667,134.67265046666668,65.0,100.0
158,134.78845916666668,135.08257650000002,63.0,107.0
159,135.22963516666667,135.57706126666668,63.0,122.0
160,135.67081116666668,135.91713443333333,62.0,100.0
161,136.11198716666667,136.54213376666667,62.0,112.0
162,136.55316316666668,137.2222801,60.0,99.0
163,137.43551516666668,137.85647060000002,58.0,117.0
164,137.8766911666667,138.37117593333335,60.0,107.0
165,138.31786716666667,140.23514453333334,58.0,99.0
166,141.40609916666668,142.2516865,60.0,88.0
167,142.28845116666668,143.03109743333334,62.0,76.0
168,143.17080316666667,143.5586704,60.0,97.0
169,143.61197916666669,144.05683163333333,62.0,78.0
170,144.05315516666667,144.41712536666668,65.0,89.0
171,144.49433116666668,144.8766837,62.0,90.0
172,144.93550716666667,145.41528606666668,60.0,93.0
173,145.37668316666668,146.29396160000002,58.0,75.0
174,146.25903516666668,146.72410820000002,60.0,99.0
175,146.7002111666667,147.53293086666667,62.0,92.0
176,147.5825631666667,148.04579796666667,60.0,107.0
177,148.02373916666667,148.49065043333334,62.0,88.0
178,148.46491516666669,148.95204700000002,60.0,86.0
179,148.90609116666667,149.75719320000002,58.0,64.0
180,149.78844316666667,150.06785463333335,60.0,96.0
181,150.22961916666668,150.5899129,60.0,95.0
182,150.67079516666666,151.01086833333335,62.0,92.0
183,151.11197116666668,151.42079436666668,65.0,99.0
184,151.5531471666667,151.83439686666668,62.0,88.0
185,151.99432316666667,152.39505803333336,60.0,85.0
186,152.4354991666667,153.30498353333334,58.0,75.0
187,153.31785116666669,153.53843916666668,60.0,97.0
188,153.75902716666667,154.50351166666667,62.0,97.0
189,154.64137916666667,155.01086406666667,60.0,127.0
190,155.08255516666668,155.47409886666668,62.0,89.0
191,155.5237311666667,155.92078956666668,55.0,97.0
192,155.96490716666668,156.29578916666668,58.0,96.0
193,156.4060831666667,156.80314156666668,58.0,92.0
194,156.84725916666667,157.28292046666667,55.0,74.0
195,157.2884351666667,158.03659613333335,60.0,89.0
196,158.17078716666668,158.55130146666667,69.0,122.0
197,158.61196316666667,158.9226246,67.0,95.0
198,159.05313916666668,159.40607996666668,65.0,97.0
199,159.49431516666667,159.84174126666667,60.0,96.0
200,159.93549116666668,160.35277013333334,60.0,92.0
201,160.3766671666667,160.8251961,65.0,95.0
202,160.81784316666668,161.5641659,62.0,85.0
203,161.70019516666667,162.06232713333335,60.0,100.0
204,162.1413711666667,162.48879726666667,62.0,97.0
205,162.58254716666667,162.8380616,55.0,102.0
206,163.02372316666668,163.33622283333335,58.0,96.0
207,163.46489916666667,163.80681056666668,58.0,97.0
208,163.90607516666668,164.2001925,58.0,96.0
209,164.34725116666667,164.69467726666667,58.0,97.0
210,165.67077916666668,166.11746986666668,55.0,89.0
211,166.1119551666667,168.04577663333333,65.0,89.0
212,168.75901116666668,168.99246680000002,65.0,107.0
213,169.20018716666667,169.45753983333336,60.0,112.0
214,169.64136316666668,170.5512886666667,62.0,117.0
215,170.9648911666667,171.31967020000002,60.0,112.0
216,171.40606716666667,172.0917282,62.0,122.0
217,172.28841916666667,172.56231593333334,62.0,112.0
218,172.72959516666668,173.04760953333334,63.0,122.0
219,173.17077116666667,173.88032923333336,65.0,112.0
220,175.8178271666667,176.28841490000002,60.0,122.0
221,176.25900316666667,176.55128226666668,62.0,97.0
222,176.7001791666667,177.0862081666667,60.0,102.0
223,177.14135516666667,177.96304546666667,58.0,92.0
224,178.02370716666667,178.44833906666668,57.0,102.0
225,178.46488316666668,179.11929423333333,58.0,99.0
226,179.34723516666668,179.69649950000002,58.0,102.0
227,179.7884111666667,180.11377846666667,60.0,97.0
228,180.22958716666668,181.07333626666667,62.0,102.0
229,182.43546716666668,182.6799522,58.0,112.0
230,182.87664316666667,183.21855456666668,70.0,122.0
231,183.31781916666668,183.6119365,65.0,100.0
232,183.7589951666667,184.66156773333336,67.0,100.0
233,185.08252316666668,186.0604633,65.0,117.0
234,186.40605116666669,186.62296270000002,65.0,102.0
235,186.84722716666667,187.09906513333334,62.0,97.0
236,187.28840316666668,188.03656413333334,65.0,117.0
237,188.17075516666668,188.69648990000002,67.0,127.0
238,189.05310716666668,189.9464885666667,58.0,112.0
239,190.3766351666667,190.68913483333336,62.0,100.0
240,190.81781116666667,191.14317846666668,65.0,100.0
241,191.25898716666669,191.55310450000002,63.0,107.0
242,191.70016316666667,192.04758926666668,63.0,122.0
243,192.14133916666668,192.38766243333336,62.0,100.0
244,192.5825151666667,192.98508826666668,63.0,122.0
245,193.02369116666668,193.35089670000002,62.0,102.0
246,193.4648671666667,193.77369036666667,60.0,107.0
247,193.90604316666668,194.2056752,58.0,100.0
248,194.3472191666667,196.46854043333335,60.0,97.0
249,196.99427516666668,197.22773080000002,65.0,107.0
250,197.4354511666667,197.69280383333336,60.0,112.0
251,197.87662716666668,198.7865526666667,62.0,117.0
252,199.2001551666667,199.55493420000002,60.0,112.0
253,199.64133116666667,200.3269922,62.0,122.0
254,200.52368316666667,200.79757993333334,62.0,112.0
255,200.96485916666668,201.28287353333334,63.0,122.0
256,201.40603516666667,202.11559323333336,65.0,112.0
257,204.0530911666667,204.52367890000002,60.0,122.0
258,204.49426716666667,204.78654626666668,62.0,97.0
259,204.9354431666667,205.3214721666667,60.0,102.0
260,205.37661916666667,206.19830946666667,58.0,92.0
261,206.25897116666667,206.68360306666668,57.0,102.0
262,206.70014716666668,207.35455823333334,58.0,99.0
263,207.58249916666668,207.93176350000002,58.0,102.0
264,208.0236751666667,208.34904246666667,60.0,97.0
265,208.46485116666668,209.30860026666667,62.0,102.0
266,210.67073116666668,210.9152162,58.0,112.0
267,211.11190716666667,211.45381856666668,70.0,122.0
268,211.55308316666668,211.8472005,65.0,100.0
269,211.9942591666667,212.89683173333336,67.0,100.0
270,213.31778716666668,214.2957273,65.0,117.0
271,214.6413151666667,214.85822670000002,65.0,102.0
272,215.08249116666667,215.33432913333334,62.0,97.0
273,215.52366716666668,216.27182813333334,65.0,117.0
274,216.40601916666668,216.93175390000002,72.0,127.0
275,217.28837116666668,218.1817525666667,70.0,112.0
276,218.6118991666667,218.92439883333336,62.0,100.0
277,219.05307516666667,219.37844246666668,65.0,100.0
278,219.4942511666667,219.78836850000002,63.0,107.0
279,219.93542716666667,220.28285326666668,63.0,122.0
280,220.37660316666668,220.62292643333336,62.0,100.0
281,220.8177791666667,221.2479257666667,62.0,112.0
282,221.25895516666668,221.9280721,60.0,99.0
283,222.14130716666668,222.56226260000003,58.0,117.0
284,222.5824831666667,223.07696793333335,60.0,107.0
285,223.02365916666668,224.94093653333334,58.0,99.0
286,226.11189116666668,227.13946360000003,67.0,127.0
287,227.4354191666667,227.75711,67.0,122.0
288,227.87659516666668,228.68357960000003,69.0,127.0
289,229.20012316666669,229.51078460000002,69.0,107.0
290,229.64129916666667,231.17990046666668,70.0,127.0
291,231.84717916666668,232.22953170000002,67.0,117.0
292,232.2883551666667,232.59166366666668,74.0,122.0
293,232.72953116666667,233.11923663333334,79.0,102.0
294,233.1707071666667,233.73504480000003,75.0,127.0
295,233.61188316666667,233.87658876666669,74.0,127.0
296,234.05305916666669,234.3839411666667,75.0,127.0
297,234.4942351666667,234.78651426666667,74.0,122.0
298,234.93541116666668,235.2901902,75.0,127.0
299,235.3765871666667,235.67621920000002,74.0,127.0
300,235.81776316666668,236.17805690000003,67.0,107.0
301,236.2589391666667,236.56592413333334,70.0,127.0
302,236.70011516666668,238.4390839,72.0,127.0
303,239.3471711666667,239.5806268,65.0,107.0
304,239.78834716666668,240.04569983333334,60.0,112.0
305,240.2295231666667,241.13944866666668,62.0,117.0
306,241.55305116666668,241.9078302,60.0,112.0
307,241.9942271666667,242.67988820000002,62.0,122.0
308,242.8765791666667,243.15047593333335,62.0,112.0
309,243.31775516666667,243.63576953333336,63.0,122.0
310,243.75893116666668,244.46848923333334,65.0,112.0
311,246.40598716666668,246.8765749,60.0,122.0
312,246.8471631666667,247.1394422666667,62.0,97.0
313,247.28833916666667,247.67436816666668,60.0,102.0
314,247.7295151666667,248.5512054666667,58.0,92.0
315,248.61186716666668,249.0364990666667,57.0,102.0
316,249.0530431666667,249.70745423333335,58.0,99.0
317,249.9353951666667,250.28465950000003,58.0,102.0
318,250.37657116666668,250.7019384666667,60.0,97.0
319,250.8177471666667,251.6614962666667,62.0,102.0
320,253.0236271666667,253.26811220000002,58.0,112.0
321,253.46480316666668,253.8067145666667,70.0,122.0
322,253.9059791666667,254.20009650000003,65.0,100.0
323,254.34715516666668,255.24972773333334,67.0,100.0
324,255.6706831666667,256.6486233,65.0,117.0
325,256.9942111666667,257.21112270000003,65.0,102.0
326,257.43538716666666,257.68722513333336,62.0,97.0
327,257.8765631666667,258.62472413333336,65.0,117.0
328,258.75891516666667,259.28464990000003,67.0,127.0
329,259.6412671666667,260.5346485666667,58.0,112.0
330,260.9647951666667,261.27729483333337,62.0,100.0
331,261.4059711666667,261.73133846666667,65.0,100.0
332,261.8471471666667,262.14126450000003,63.0,107.0
333,262.2883231666667,262.63574926666666,63.0,122.0
334,262.7294991666667,262.97582243333335,62.0,100.0
335,263.1706751666667,263.57324826666667,63.0,122.0
336,263.61185116666667,263.93905670000004,62.0,102.0
337,264.0530271666667,264.36185036666666,60.0,107.0
338,264.4942031666667,264.79383520000005,58.0,100.0
339,264.9353791666667,267.05670043333333,60.0,97.0
340,267.5824351666667,267.81589080000003,65.0,107.0
341,268.0236111666667,268.2809638333334,60.0,112.0
342,268.46478716666667,269.3747126666667,62.0,117.0
343,269.7883151666667,270.1430942,60.0,112.0
344,270.22949116666666,270.9151522,62.0,122.0
345,271.1118431666667,271.38573993333335,62.0,112.0
346,271.5530191666667,271.87103353333333,63.0,122.0
347,271.9941951666667,272.7037532333334,65.0,112.0
348,274.6412511666667,275.1118389,60.0,122.0
349,275.08242716666666,275.3747062666667,62.0,97.0
350,275.5236031666667,275.9096321666667,60.0,102.0
351,275.9647791666667,276.7864694666667,58.0,92.0
352,276.8471311666667,277.27176306666667,57.0,102.0
353,277.2883071666667,277.9427182333334,58.0,99.0
354,278.17065916666667,278.5199235,58.0,102.0
355,278.6118351666667,278.9372024666667,60.0,97.0
356,279.0530111666667,279.89676026666666,62.0,102.0
357,281.2588911666667,281.50337620000005,58.0,112.0
358,281.7000671666667,282.04197856666667,70.0,122.0
359,282.1412431666667,282.4353605,65.0,100.0
360,282.5824191666667,283.48499173333335,67.0,100.0
361,283.9059471666667,284.8838873,65.0,117.0
362,285.2294751666667,285.4463867,65.0,102.0
363,285.6706511666667,285.92248913333333,62.0,97.0
364,286.11182716666667,286.85998813333333,65.0,117.0
365,286.9941791666667,287.5199139,72.0,127.0
366,287.87653116666667,288.7699125666667,70.0,112.0
367,289.2000591666667,289.51255883333334,62.0,100.0
368,289.64123516666666,289.9666024666667,65.0,100.0
369,290.0824111666667,290.3765285,63.0,107.0
370,290.5235871666667,290.8710132666667,63.0,122.0
371,290.96476316666667,291.2110864333334,62.0,100.0
372,291.4059391666667,291.8360857666667,62.0,112.0
373,291.8471151666667,292.5162321,60.0,99.0
374,292.72946716666667,293.1504226,58.0,117.0
375,293.1706431666667,293.66512793333334,60.0,107.0
376,293.6118191666667,294.93167070000004,58.0,99.0
