,start,end,pitch,velocity
0,4.641539166666667,5.733449766666667,58.0,62.0
1,5.523891166666667,6.406243166666667,65.0,51.0
2,5.9650671666666675,6.7058752,58.0,45.0
3,3.759187166666667,6.911757333333334,46.0,58.0
4,4.200363166666667,7.347418633333334,53.0,41.0
5,5.0827151666666675,8.104770766666666,70.0,75.0
6,6.8474191666666675,8.251829433333334,65.0,52.0
7,6.406243166666667,8.6360202,62.0,53.0
8,8.170947166666668,9.108446166666667,58.0,59.0
9,8.612123166666667,9.112122633333334,63.0,56.0
10,9.053299166666667,9.963224666666667,65.0,59.0
11,9.494475166666668,10.332709566666667,58.0,43.0
12,9.935651166666668,10.556974033333335,62.0,66.0
13,7.288595166666667,10.601091633333334,46.0,53.0
14,10.376827166666667,10.865797233333334,63.0,37.0
15,7.7297711666666675,10.889694266666668,53.0,43.0
16,11.700355166666668,12.759177566666668,58.0,59.0
17,12.141531166666667,13.4889562,62.0,44.0
18,13.023883166666668,13.6102796,58.0,50.0
19,10.818003166666667,14.191161333333335,46.0,64.0
20,13.906235166666669,14.433808133333335,58.0,49.0
21,11.259179166666668,14.498146300000002,53.0,51.0
22,12.582707166666667,15.148880900000002,70.0,81.0
23,13.465059166666668,15.709542066666668,65.0,52.0
24,15.229763166666668,16.17829156666667,58.0,63.0
25,15.670939166666669,16.187482733333333,62.0,56.0
26,14.788587166666668,17.812481000000002,53.0,29.0
27,16.11211516666667,17.825348633333334,63.0,73.0
28,16.553291166666668,17.838216266666667,58.0,43.0
29,16.994467166666666,17.8565986,62.0,55.0
30,14.347411166666667,17.948510266666666,46.0,65.0
31,17.876819166666667,19.055126733333335,38.0,88.0
32,18.31799516666667,19.07902376666667,45.0,67.0
33,18.75917116666667,19.345567600000003,50.0,41.0
34,18.75917116666667,19.672773133333333,65.0,92.0
35,19.200347166666667,19.696670166666667,57.0,82.0
36,20.082699166666668,20.65622796666667,50.0,69.0
37,19.64152316666667,20.729757300000003,43.0,76.0
38,20.523875166666667,21.463212400000003,62.0,99.0
39,20.96505116666667,21.494462366666667,55.0,77.0
40,21.406227166666667,22.69666696666667,36.0,66.0
41,21.84740316666667,22.75732866666667,43.0,56.0
42,22.28857916666667,22.773872766666667,48.0,52.0
43,22.28857916666667,23.073504800000002,51.0,63.0
44,22.729755166666667,23.191151733333335,55.0,60.0
45,23.612107166666668,24.382326933333335,46.0,34.0
46,23.17093116666667,24.415415133333337,39.0,72.0
47,24.05328316666667,24.44482686666667,51.0,41.0
48,24.05328316666667,24.8547529,63.0,93.0
49,24.49445916666667,24.933796933333337,55.0,72.0
50,24.935635166666668,26.387839500000002,42.0,93.0
51,25.37681116666667,26.411736533333336,45.0,62.0
52,25.81798716666667,26.70585386666667,54.0,72.0
53,26.259163166666667,26.726074433333334,57.0,79.0
54,26.259163166666667,26.7573244,60.0,85.0
55,26.70033916666667,28.461366700000003,41.0,73.0
56,27.141515166666668,28.461366700000003,48.0,55.0
57,27.58269116666667,28.461366700000003,57.0,56.0
58,27.58269116666667,28.461366700000003,60.0,56.0
59,29.34739516666667,29.83820346666667,58.0,61.0
60,28.90621916666667,29.8786446,53.0,53.0
61,28.465043166666668,29.937468066666668,46.0,95.0
62,29.788571166666667,30.81430536666667,65.0,72.0
63,30.22974716666667,31.540407533333337,45.0,71.0
64,31.55327516666667,32.08268636666667,62.0,66.0
65,31.11209916666667,32.09187753333334,65.0,82.0
66,30.670923166666668,32.13783336666667,57.0,68.0
67,32.43562716666667,33.0937147,50.0,53.0
68,31.994451166666668,33.20217046666667,43.0,74.0
69,32.87680316666667,33.847390366666666,62.0,79.0
70,33.31797916666667,33.85658153333333,55.0,53.0
71,32.87680316666667,33.882316800000005,58.0,66.0
72,34.20033116666667,34.80143346666667,48.0,66.0
73,33.759155166666666,34.81613933333334,41.0,72.0
74,34.64150716666667,35.544079733333334,60.0,82.0
75,34.64150716666667,35.54591796666667,57.0,68.0
76,35.08268316666667,35.61209436666667,53.0,63.0
77,35.96503516666667,36.68194616666667,46.0,55.0
78,35.52385916666667,36.68562263333334,39.0,81.0
79,36.40621116666667,36.76282843333333,51.0,42.0
80,36.40621116666667,37.29959256666667,63.0,72.0
81,36.40621116666667,37.32716606666667,58.0,70.0
82,36.84738716666667,37.3400337,55.0,64.0
83,37.28856316666667,38.19113573333333,41.0,55.0
84,37.72973916666667,38.26466506666667,48.0,66.0
85,38.61209116666667,39.02385543333334,53.0,58.0
86,38.17091516666667,39.044076000000004,57.0,68.0
87,38.17091516666667,39.06797303333334,60.0,71.0
88,39.05326716666667,40.650691933333334,46.0,60.0
89,39.93561916666667,40.852897600000006,58.0,52.0
90,39.49444316666667,40.87863286666667,53.0,61.0
91,39.93561916666667,41.472382233333335,65.0,61.0
92,39.93561916666667,41.47422046666667,70.0,59.0
93,40.37679516666667,41.48341163333334,62.0,57.0
94,41.70032316666667,41.82164656666667,62.0,31.0
95,41.70032316666667,41.9558376,58.0,65.0
96,41.25914716666667,41.96870523333334,53.0,38.0
97,40.817971166666666,42.03671986666667,46.0,61.0
98,42.14149916666667,42.62495453333334,62.0,82.0
99,41.92091116666667,42.63782216666667,65.0,68.0
100,41.70032316666667,42.6506898,70.0,96.0
101,42.58267516666667,43.78304153333334,39.0,83.0
102,42.80326316666667,43.81245326666667,46.0,32.0
103,43.02385116666667,43.82164443333334,51.0,72.0
104,43.46502716666667,44.35289386666667,63.0,88.0
105,43.90620316666667,44.38598206666667,58.0,63.0
106,43.24443916666667,44.39517323333334,55.0,64.0
107,45.22973116666667,45.39333393333334,53.0,48.0
108,44.78855516666667,45.551422,48.0,55.0
109,44.34737916666667,45.58818666666667,41.0,67.0
110,45.22973116666667,46.40987696666667,65.0,64.0
111,45.22973116666667,46.41539166666667,60.0,67.0
112,45.67090716666667,46.59186206666667,57.0,73.0
113,46.11208316666667,47.33083186666667,38.0,78.0
114,46.55325916666667,47.34553773333334,45.0,41.0
115,46.99443516666667,47.4705376,50.0,55.0
116,46.99443516666667,47.94112533333334,65.0,75.0
117,46.99443516666667,47.95950766666667,62.0,75.0
118,47.43561116666667,47.99075763333334,57.0,64.0
119,48.31796316666667,48.783036200000005,50.0,56.0
120,47.876787166666674,48.88046256666667,43.0,75.0
121,48.75913916666667,49.67825583333334,62.0,67.0
122,49.20031516666667,49.88413796666667,55.0,62.0
123,48.75913916666667,49.952152600000005,58.0,72.0
124,49.64149116666667,50.70582826666667,36.0,75.0
125,50.08266716666667,50.7517841,43.0,53.0
126,50.52384316666667,50.88597513333334,48.0,49.0
127,50.52384316666667,51.1929601,60.0,69.0
128,50.52384316666667,51.35104816666667,63.0,82.0
129,50.96501916666667,51.4356069,55.0,66.0
130,51.40619516666667,52.53487043333334,39.0,75.0
131,51.84737116666667,52.64700266666667,51.0,63.0
132,52.28854716666667,53.10104630000001,63.0,77.0
133,52.28854716666667,53.1396492,58.0,67.0
134,52.72972316666667,53.15435506666667,55.0,55.0
135,53.61207516666667,54.33450086666667,54.0,61.0
136,53.17089916666667,54.553250633333334,42.0,70.0
137,54.49442716666667,54.96133843333334,54.0,68.0
138,54.05325116666667,54.979720766666674,57.0,56.0
139,54.05325116666667,54.99442663333334,60.0,69.0
140,54.935603166666674,56.48339563333334,41.0,74.0
141,55.37677916666667,56.54957203333334,48.0,63.0
142,55.81795516666667,56.6856013,57.0,86.0
143,55.81795516666667,56.70030716666667,60.0,88.0
144,56.25913116666667,56.720527733333334,53.0,62.0
145,57.141483166666674,57.48339456666667,53.0,80.0
146,57.362071166666674,57.5128063,58.0,30.0
147,57.58265916666667,58.099202733333335,62.0,87.0
148,58.02383516666667,58.21133496666667,58.0,74.0
149,56.70030716666667,58.28854076666667,46.0,87.0
150,58.46501116666667,59.049569366666674,53.0,74.0
151,58.46501116666667,59.11574576666667,57.0,80.0
152,59.34736316666667,59.55324530000001,53.0,93.0
153,58.46501116666667,59.62677463333334,41.0,68.0
154,58.90618716666667,59.67824516666667,48.0,60.0
155,59.34736316666667,59.77383330000001,60.0,72.0
156,60.22971516666667,60.6175824,55.0,70.0
157,60.22971516666667,60.92824383333334,58.0,65.0
158,60.89147916666667,61.18192003333334,55.0,65.0
159,61.11206716666667,61.6267725,67.0,93.0
160,61.55324316666667,61.74074296666667,55.0,95.0
161,60.67089116666667,61.76280176666667,50.0,63.0
162,60.22971516666667,61.84919873333334,43.0,90.0
163,61.994419166666674,62.60655086666667,53.0,68.0
164,61.994419166666674,62.92456523333334,57.0,70.0
165,62.87677116666667,63.27750603333334,60.0,80.0
166,61.994419166666674,63.30507953333334,41.0,83.0
167,62.43559516666667,63.32162363333334,48.0,60.0
168,63.09735916666667,63.336329500000005,53.0,93.0
169,63.31794716666667,63.420888233333336,57.0,80.0
170,63.75912316666667,64.27566673333334,55.0,69.0
171,63.75912316666667,64.28853436666667,58.0,67.0
172,63.75912316666667,64.72235743333334,39.0,66.0
173,64.20029916666667,64.7260339,46.0,37.0
174,64.64147516666667,65.01463653333334,63.0,80.0
175,64.86206316666667,65.09919526666667,55.0,74.0
176,65.08265116666666,65.30323916666667,58.0,51.0
177,65.30323916666667,65.45581253333334,55.0,68.0
178,65.52382716666668,66.0550766,53.0,69.0
179,65.52382716666668,66.06426776666667,57.0,71.0
180,66.40617916666667,66.64147303333334,53.0,80.0
181,65.52382716666668,66.76279643333334,41.0,69.0
182,66.40617916666667,66.80691403333334,57.0,87.0
183,66.40617916666667,66.84000223333334,60.0,74.0
184,65.96500316666668,66.86206103333333,48.0,55.0
185,66.84735516666667,67.34735463333334,53.0,74.0
186,67.28853116666667,67.8197806,62.0,80.0
187,67.72970716666667,68.22051546666667,53.0,69.0
188,68.17088316666667,68.6304415,58.0,87.0
189,67.28853116666667,68.74257373333334,46.0,66.0
190,68.61205916666667,68.95948526666668,53.0,87.0
191,68.83264716666667,69.0054411,58.0,59.0
192,69.05323516666667,69.5679405,62.0,83.0
193,69.49441116666667,69.74257266666667,53.0,74.0
194,69.05323516666667,70.11573403333334,46.0,72.0
195,69.93558716666668,70.2738221,53.0,93.0
196,69.93558716666668,70.3455132,58.0,72.0
197,69.93558716666668,70.39330726666667,62.0,74.0
198,70.81793916666668,71.4760267,63.0,70.0
199,70.81793916666668,71.87308510000001,39.0,74.0
200,71.25911516666667,71.91168800000001,46.0,55.0
201,71.47970316666667,71.91352623333334,55.0,69.0
202,71.70029116666667,71.95948206666667,58.0,74.0
203,71.92087916666667,72.18926123333334,63.0,93.0
204,72.14146716666667,72.26279056666667,55.0,93.0
205,72.58264316666667,73.1414661,57.0,74.0
206,72.58264316666667,73.15065726666667,53.0,69.0
207,73.02381916666667,73.72970076666667,48.0,68.0
208,72.58264316666667,73.81242126666668,41.0,68.0
209,73.46499516666667,73.82712713333333,53.0,83.0
210,73.46499516666667,73.83080360000001,57.0,85.0
211,73.46499516666667,73.87859766666668,60.0,80.0
212,74.34734716666667,75.00543470000001,57.0,74.0
213,74.34734716666667,75.0881552,65.0,74.0
214,75.22969916666668,75.4300666,57.0,87.0
215,74.34734716666667,75.56058116666667,38.0,87.0
216,75.22969916666668,75.64697813333333,62.0,80.0
217,74.78852316666668,75.65984576666668,45.0,68.0
218,75.67087516666668,75.8105809,57.0,90.0
219,76.11205116666667,76.73888873333334,62.0,74.0
220,76.11205116666667,76.74624166666668,55.0,80.0
221,76.99440316666667,77.16903533333334,62.0,87.0
222,76.55322716666667,77.19293236666667,50.0,70.0
223,76.99440316666667,77.49440263333334,58.0,87.0
224,76.11205116666667,77.66535833333334,43.0,90.0
225,77.43557916666667,77.73521120000001,55.0,95.0
226,77.21499116666668,77.74440236666668,50.0,70.0
227,77.87675516666667,78.0936667,55.0,83.0
228,77.87675516666667,78.3583723,60.0,80.0
229,78.31793116666667,78.82344533333334,55.0,87.0
230,77.87675516666667,79.12491560000001,48.0,68.0
231,78.75910716666667,79.26094486666668,63.0,83.0
232,79.20028316666668,79.72417966666667,55.0,90.0
233,79.64145916666668,80.33447313333333,58.0,69.0
234,79.64145916666668,80.58447286666667,39.0,60.0
235,80.08263516666668,80.59366403333334,46.0,64.0
236,80.30322316666667,80.70763450000001,55.0,68.0
237,80.52381116666668,80.78667853333334,58.0,83.0
238,80.74439916666667,81.04586943333334,63.0,93.0
239,80.96498716666667,81.23336923333333,58.0,65.0
240,81.40616316666667,82.11755946666668,53.0,83.0
241,81.40616316666667,82.23888286666667,57.0,85.0
242,82.28851516666667,82.6984412,60.0,74.0
243,82.50910316666668,82.77197053333335,53.0,87.0
244,81.40616316666667,83.03116143333334,41.0,83.0
245,81.84733916666667,83.11388193333335,48.0,67.0
246,82.72969116666667,83.15616130000001,57.0,87.0
247,82.95027916666668,83.49807270000001,60.0,80.0
248,83.17086716666667,83.49807270000001,60.0,85.0
249,83.17086716666667,83.67638133333334,65.0,95.0
250,83.17086716666667,83.91902813333334,41.0,87.0
251,83.17086716666667,83.97968983333334,57.0,87.0
252,84.05321916666668,84.81240953333334,41.0,97.0
253,85.81792316666667,86.24806976666667,53.0,75.0
254,85.81792316666667,86.2719668,50.0,96.0
255,84.93557116666668,86.5035842,34.0,76.0
256,85.37674716666668,86.70762810000001,41.0,45.0
257,85.81792316666667,86.7131428,58.0,117.0
258,86.25909916666667,86.77564273333334,46.0,86.0
259,87.58262716666667,87.7168182,58.0,92.0
260,86.70027516666667,87.96130323333334,34.0,85.0
261,87.58262716666667,88.0587296,62.0,90.0
262,87.58262716666667,88.13593540000001,46.0,72.0
263,87.14145116666667,88.20027356666667,41.0,70.0
264,88.02380316666667,88.41902333333334,58.0,97.0
265,87.58262716666667,88.42086156666667,65.0,88.0
266,88.24439116666667,88.50358206666667,62.0,82.0
267,89.34733116666668,89.63041910000001,57.0,86.0
268,89.34733116666668,89.8510071,62.0,90.0
269,89.34733116666668,89.86755120000001,50.0,92.0
270,88.46497916666668,90.055051,38.0,86.0
271,89.34733116666668,90.31240366666667,65.0,107.0
272,88.90615516666668,90.51277110000001,45.0,75.0
273,89.78850716666668,90.75357966666667,57.0,99.0
274,90.00909516666667,90.771962,62.0,86.0
275,91.11203516666667,91.39696133333334,57.0,93.0
276,90.22968316666667,91.42085836666668,38.0,90.0
277,91.11203516666667,91.56975526666668,62.0,95.0
278,91.11203516666667,91.6708581,50.0,90.0
279,90.67085916666667,91.6818875,45.0,86.0
280,91.55321116666667,91.79218150000001,57.0,85.0
281,91.11203516666667,91.99806363333335,65.0,117.0
282,92.87673916666667,93.09365070000001,55.0,83.0
283,92.87673916666667,93.22416526666667,58.0,83.0
284,92.87673916666667,93.48887086666667,62.0,69.0
285,91.99438716666667,93.65798833333334,43.0,82.0
286,93.31791516666668,93.87673810000001,58.0,86.0
287,92.87673916666667,93.96497330000001,67.0,75.0
288,92.43556316666667,94.06607613333334,50.0,74.0
289,94.64144316666668,94.7811489,55.0,76.0
290,93.75909116666668,95.0568839,43.0,72.0
291,94.64144316666668,95.10467796666667,58.0,92.0
292,95.08261916666667,95.10467796666667,58.0,92.0
293,94.64144316666668,95.11019266666668,62.0,76.0
294,94.20026716666668,95.22967783333334,50.0,83.0
295,94.64144316666668,95.55872160000001,67.0,69.0
296,96.40614716666667,96.70761743333334,57.0,53.0
297,95.52379516666667,96.72967623333334,38.0,83.0
298,96.40614716666667,96.89879370000001,62.0,93.0
299,96.40614716666667,96.93004366666668,50.0,81.0
300,95.96497116666667,96.98335243333334,45.0,56.0
301,96.84732316666667,97.2848227,57.0,93.0
302,97.28849916666667,98.09916006666667,41.0,92.0
303,98.17085116666668,98.38776270000001,58.0,107.0
304,97.72967516666668,98.3932774,48.0,69.0
305,98.17085116666668,98.49438023333335,63.0,127.0
306,98.17085116666668,98.4980567,53.0,97.0
307,98.61202716666668,99.02195320000001,46.0,89.0
308,99.05320316666668,99.86570230000001,39.0,95.0
309,99.49437916666668,100.05320210000001,46.0,54.0
310,99.93555516666667,100.08077560000001,58.0,117.0
311,99.71496716666667,100.1524667,51.0,93.0
312,99.93555516666667,100.20761370000001,63.0,127.0
313,99.93555516666667,100.38592233333334,55.0,96.0
314,101.25908316666667,101.8179061,48.0,95.0
315,101.70025916666667,102.00172943333334,53.0,59.0
316,101.70025916666667,102.11753813333334,57.0,107.0
317,100.37673116666667,102.1377587,41.0,100.0
318,102.14143516666667,102.31790556666668,48.0,88.0
319,102.36202316666667,102.56422883333335,53.0,95.0
320,101.70025916666667,102.5679053,60.0,107.0
321,102.58261116666668,103.79584516666668,38.0,93.0
322,103.46496316666668,103.84547746666668,57.0,95.0
323,103.46496316666668,103.91716856666667,62.0,97.0
324,103.02378716666668,104.06974193333335,45.0,85.0
325,103.90613916666668,104.16533006666667,57.0,92.0
326,103.46496316666668,104.35099163333334,65.0,117.0
327,103.46496316666668,104.45025623333333,50.0,92.0
328,105.22966716666667,105.44290223333334,55.0,96.0
329,105.22966716666667,105.4576081,58.0,107.0
330,104.78849116666667,105.57525503333333,50.0,83.0
331,104.34731516666668,105.67635786666668,43.0,92.0
332,105.22966716666667,106.03848983333334,62.0,112.0
333,105.67084316666667,106.04951923333334,58.0,122.0
334,105.89143116666668,106.13959266666667,55.0,117.0
335,106.11201916666667,107.28113556666668,36.0,96.0
336,106.99437116666668,107.31973846666668,60.0,117.0
337,106.99437116666668,107.49620886666668,55.0,95.0
338,107.43554716666668,107.49620886666668,55.0,96.0
339,106.99437116666668,107.52562060000001,48.0,96.0
340,106.55319516666667,107.55687056666667,43.0,72.0
341,106.99437116666668,107.79767913333335,63.0,127.0
342,107.87672316666668,109.11017773333334,39.0,92.0
343,108.75907516666668,109.2131188,55.0,96.0
344,108.75907516666668,109.24804523333334,51.0,97.0
345,108.31789916666668,109.33076573333334,46.0,102.0
346,108.75907516666668,109.5164273,63.0,127.0
347,109.20025116666667,109.54767726666668,58.0,127.0
348,109.42083916666668,109.6046625,55.0,107.0
349,110.30319116666668,110.59914673333334,57.0,99.0
350,110.08260316666667,110.62855846666668,53.0,97.0
351,110.74436716666668,110.9337052,53.0,99.0
352,110.52377916666667,111.06789623333334,60.0,117.0
353,110.52377916666667,111.08076386666667,65.0,117.0
354,109.64142716666667,111.29216070000001,41.0,88.0
355,111.18554316666668,111.44473406666667,60.0,97.0
356,110.96495516666667,111.45024876666668,57.0,99.0
357,109.86201516666668,111.46495463333333,48.0,92.0
358,111.18554316666668,111.48885166666668,65.0,107.0
359,111.62671916666667,111.74436610000001,69.0,57.0
360,111.62671916666667,111.76826313333333,65.0,78.0
361,111.62671916666667,111.78113076666668,60.0,92.0
362,112.06789516666667,112.39142423333334,53.0,95.0
363,112.28848316666668,112.5605417,60.0,99.0
364,112.50907116666667,112.75907090000001,53.0,107.0
365,112.28848316666668,112.77010030000001,65.0,102.0
366,111.40613116666667,112.84914433333334,41.0,93.0
367,111.62671916666667,113.06237940000001,48.0,97.0
368,112.28848316666668,113.1175264,69.0,107.0
369,112.72965916666668,113.13958520000001,60.0,107.0
370,112.95024716666667,113.14693813333334,65.0,112.0
371,114.05318716666667,114.31789276666667,58.0,107.0
372,114.05318716666667,114.60465716666667,62.0,85.0
373,114.05318716666667,114.64509830000002,65.0,96.0
374,114.05318716666667,114.73517173333335,53.0,99.0
375,114.49436316666667,114.80870106666667,58.0,99.0
376,113.17083516666668,114.81237753333335,46.0,122.0
377,113.61201116666668,115.202083,50.0,88.0
378,115.81789116666667,115.9631116,53.0,93.0
379,115.81789116666667,116.04399386666668,58.0,102.0
380,114.93553916666667,116.17083196666668,46.0,96.0
381,115.81789116666667,116.28664066666667,65.0,90.0
382,115.81789116666667,116.31789063333335,62.0,97.0
383,115.37671516666667,116.38958173333334,50.0,89.0
384,116.25906716666668,116.52377276666668,58.0,112.0
385,117.58259516666668,117.80685963333335,50.0,92.0
386,117.58259516666668,118.13957986666668,57.0,93.0
387,118.02377116666668,118.13957986666668,57.0,90.0
388,116.70024316666668,118.17082983333334,38.0,86.0
389,117.58259516666668,118.58994703333335,62.0,97.0
390,117.58259516666668,118.65244696666667,65.0,96.0
391,117.14141916666668,118.70943220000001,45.0,82.0
392,118.90612316666667,119.6524459,45.0,86.0
393,119.34729916666667,119.67450470000001,50.0,89.0
394,119.34729916666667,119.77744576666667,57.0,95.0
395,119.34729916666667,119.8068575,62.0,89.0
396,118.46494716666668,119.94288676666667,38.0,82.0
397,119.78847516666667,120.12854833333334,45.0,102.0
398,119.34729916666667,120.22965116666667,65.0,112.0
399,120.67082716666667,120.90612103333335,50.0,73.0
400,121.11200316666668,121.54398800000001,55.0,85.0
401,120.22965116666667,121.56237033333335,43.0,76.0
402,121.11200316666668,121.59362030000001,58.0,107.0
403,121.55317916666668,121.78295833333334,50.0,89.0
404,121.11200316666668,122.02192866666668,62.0,100.0
405,122.43553116666668,122.6248692,50.0,85.0
406,122.87670716666668,123.13589806666667,58.0,93.0
407,122.87670716666668,123.1653098,55.0,89.0
408,121.99435516666668,123.3583243,43.0,78.0
409,123.31788316666668,123.70207393333334,58.0,112.0
410,122.87670716666668,123.7608974,62.0,97.0
411,123.53847116666668,123.77927973333334,55.0,82.0
412,123.75905916666667,125.03663133333335,38.0,95.0
413,124.64141116666667,125.18001353333334,50.0,99.0
414,124.64141116666667,125.18736646666667,65.0,107.0
415,124.20023516666667,125.29582223333334,45.0,96.0
416,124.64141116666667,125.3050134,60.0,88.0
417,124.64141116666667,125.31788103333334,63.0,107.0
418,125.08258716666667,125.43185150000001,57.0,99.0
419,125.96493916666668,126.26824766666668,53.0,96.0
420,125.52376316666668,126.29030646666668,41.0,96.0
421,126.18552716666667,126.36567403333335,57.0,100.0
422,125.74435116666668,126.38405636666667,48.0,88.0
423,126.40611516666668,126.71310013333334,58.0,112.0
424,126.40611516666668,126.8325853,46.0,107.0
425,126.62670316666667,126.9208205,53.0,39.0
426,126.40611516666668,127.28295246666667,62.0,90.0
427,127.06787916666667,127.28479070000002,53.0,90.0
428,126.84729116666668,127.28479070000002,58.0,99.0
429,126.40611516666668,127.28479070000002,65.0,88.0
430,127.28846716666668,128.0789075,39.0,99.0
431,127.72964316666668,128.3050102,46.0,32.0
432,128.1708191666667,128.50170116666666,63.0,127.0
433,128.1708191666667,128.5697158,51.0,92.0
434,128.1708191666667,128.62853926666668,55.0,79.0
435,128.61199516666667,129.78111156666668,53.0,107.0
436,128.61199516666667,129.79030273333333,60.0,90.0
437,128.61199516666667,129.80684683333334,57.0,93.0
438,129.49434716666667,130.07890536666667,48.0,100.0
439,128.61199516666667,130.32706686666668,41.0,83.0
440,130.15611116666668,130.33074333333334,48.0,93.0
441,129.93552316666668,130.4502285,57.0,96.0
442,130.37669916666667,130.71125763333333,53.0,96.0
443,130.5972871666667,130.76640463333334,57.0,96.0
444,129.93552316666668,130.7866252,60.0,97.0
445,131.70022716666668,131.8950799,62.0,90.0
446,131.70022716666668,132.07522676666667,57.0,88.0
447,130.81787516666668,132.17265313333334,38.0,82.0
448,131.25905116666667,132.4520646,45.0,89.0
449,131.70022716666668,132.61382913333335,65.0,112.0
450,132.36199116666668,132.62669676666667,62.0,92.0
451,132.14140316666666,132.63404970000002,57.0,92.0
452,131.70022716666668,132.90059353333334,50.0,95.0
453,133.46493116666667,133.69654856666668,58.0,102.0
454,133.46493116666667,133.7204456,55.0,88.0
455,133.0237551666667,133.80868080000002,50.0,76.0
456,133.68551916666667,133.80868080000002,50.0,61.0
457,132.58257916666668,133.95022476666668,43.0,92.0
458,133.46493116666667,134.3141949666667,62.0,97.0
459,133.9061071666667,134.31787143333335,58.0,100.0
460,134.12669516666668,134.33809200000002,55.0,75.0
461,134.34728316666667,135.53845836666667,36.0,88.0
462,135.22963516666667,135.6230171,60.0,92.0
463,135.22963516666667,135.7884581,48.0,83.0
464,134.78845916666668,135.82889923333335,43.0,69.0
465,135.67081116666668,135.82889923333335,43.0,92.0
466,135.22963516666667,135.87485506666667,55.0,83.0
467,135.22963516666667,136.0641931,63.0,102.0
468,136.55316316666668,137.04948616666667,53.0,89.0
469,136.77375116666667,137.32338293333333,57.0,88.0
470,136.11198716666667,137.37301523333335,41.0,82.0
471,136.3325751666667,137.4428681,48.0,78.0
472,137.21492716666668,137.66713256666668,53.0,96.0
473,136.9943391666667,137.72595603333335,65.0,99.0
474,137.43551516666668,137.78294126666668,60.0,96.0
475,137.65610316666667,137.84727943333334,57.0,93.0
476,138.53845516666667,138.81786663333335,58.0,86.0
477,138.31786716666667,138.8436019,53.0,92.0
478,137.8766911666667,139.52926293333334,46.0,112.0
479,138.09727916666668,139.6542628,50.0,81.0
480,138.97963116666668,140.87301150000002,53.0,79.0
481,139.64139516666668,141.3913933,46.0,66.0
482,139.20021916666667,141.39874623333336,62.0,92.0
483,139.64139516666668,141.4005844666667,58.0,95.0
484,138.7590431666667,141.42080503333335,65.0,85.0
485,142.28845116666668,142.77925946666667,58.0,61.0
486,141.8472751666667,142.8197006,53.0,53.0
487,141.40609916666668,142.87852406666667,46.0,95.0
488,142.7296271666667,143.75536136666668,65.0,72.0
489,143.17080316666667,144.48146353333334,45.0,71.0
490,144.49433116666668,145.02374236666668,62.0,66.0
491,144.05315516666667,145.03293353333333,65.0,82.0
492,143.61197916666669,145.0788893666667,57.0,68.0
493,145.37668316666668,146.03477070000002,50.0,53.0
494,144.93550716666667,146.14322646666668,43.0,74.0
495,145.81785916666666,146.78844636666668,62.0,79.0
496,146.25903516666668,146.79763753333336,55.0,53.0
497,145.81785916666666,146.82337280000002,58.0,66.0
498,147.14138716666668,147.74248946666668,48.0,66.0
499,146.7002111666667,147.75719533333336,41.0,72.0
500,147.5825631666667,148.48513573333335,60.0,82.0
501,147.5825631666667,148.48697396666668,57.0,68.0
502,148.02373916666667,148.55315036666667,53.0,63.0
503,148.90609116666667,149.62300216666668,46.0,55.0
504,148.46491516666669,149.62667863333334,39.0,81.0
505,149.34726716666668,149.70388443333334,51.0,42.0
506,149.34726716666668,150.24064856666666,63.0,72.0
507,149.34726716666668,150.26822206666668,58.0,70.0
508,149.78844316666667,150.28108970000002,55.0,64.0
509,150.22961916666668,151.13219173333334,41.0,55.0
510,150.67079516666666,151.20572106666668,48.0,66.0
511,151.5531471666667,151.96491143333336,53.0,58.0
512,151.11197116666668,151.98513200000002,57.0,68.0
513,151.11197116666668,152.00902903333335,60.0,71.0
514,151.99432316666667,153.59174793333335,46.0,60.0
515,152.87667516666667,153.7939536,58.0,52.0
516,152.4354991666667,153.81968886666667,53.0,61.0
517,152.87667516666667,154.41343823333335,65.0,61.0
518,152.87667516666667,154.41527646666668,70.0,59.0
519,153.31785116666669,154.42446763333334,62.0,57.0
520,154.64137916666667,154.7627025666667,62.0,31.0
521,154.64137916666667,154.8968936,58.0,65.0
522,154.20020316666668,154.90976123333334,53.0,38.0
523,153.75902716666667,154.9777758666667,46.0,61.0
524,155.08255516666668,155.56601053333335,62.0,82.0
525,154.8619671666667,155.57887816666667,65.0,68.0
526,154.64137916666667,155.5917458,70.0,96.0
527,155.5237311666667,156.72409753333335,39.0,83.0
528,155.74431916666668,156.75350926666667,46.0,32.0
529,155.96490716666668,156.76270043333335,51.0,72.0
530,156.4060831666667,157.29394986666668,63.0,88.0
531,156.84725916666667,157.3270380666667,58.0,63.0
532,156.18549516666667,157.33622923333334,55.0,64.0
533,158.17078716666668,158.33438993333334,53.0,48.0
534,157.72961116666667,158.492478,48.0,55.0
535,157.2884351666667,158.52924266666668,41.0,67.0
536,158.17078716666668,159.35093296666668,65.0,64.0
537,158.17078716666668,159.35644766666667,60.0,67.0
538,158.61196316666667,159.53291806666667,57.0,73.0
539,159.05313916666668,160.27188786666667,38.0,78.0
540,159.49431516666667,160.28659373333335,45.0,41.0
541,159.93549116666668,160.4115936,50.0,55.0
542,159.93549116666668,160.88218133333334,65.0,75.0
543,159.93549116666668,160.90056366666667,62.0,75.0
544,160.3766671666667,160.93181363333335,57.0,64.0
545,161.2590191666667,161.7240922,50.0,56.0
546,160.81784316666668,161.82151856666667,43.0,75.0
547,161.70019516666667,162.61931183333334,62.0,67.0
548,162.1413711666667,162.8251939666667,55.0,62.0
549,161.70019516666667,162.8932086,58.0,72.0
550,162.58254716666667,163.6468842666667,36.0,75.0
551,163.02372316666668,163.6928401,43.0,53.0
552,163.46489916666667,163.82703113333335,48.0,49.0
553,163.46489916666667,164.13401610000003,60.0,69.0
554,163.46489916666667,164.2921041666667,63.0,82.0
555,163.90607516666668,164.3766629,55.0,66.0
556,164.34725116666667,165.47592643333334,39.0,75.0
557,164.78842716666668,165.58805866666668,51.0,63.0
558,165.2296031666667,166.0421023,63.0,77.0
559,165.2296031666667,166.0807052,58.0,67.0
560,165.67077916666668,166.09541106666668,55.0,55.0
561,166.9943071666667,168.06599720000003,53.0,97.0
562,167.87665916666668,168.60092310000002,65.0,102.0
563,167.87665916666668,168.6284966,60.0,100.0
564,167.43548316666667,168.6450407,57.0,86.0
565,168.31783516666667,168.83621696666668,53.0,95.0
566,166.1119551666667,168.99246680000002,41.0,92.0
567,166.55313116666667,169.01268736666668,48.0,61.0
568,168.97959916666667,169.06048143333334,53.0,95.0
569,168.75901116666668,169.22776066666668,60.0,99.0
570,168.75901116666668,169.5715103,65.0,122.0
571,169.20018716666667,169.5880544,57.0,112.0
572,169.4207751666667,169.63033376666667,60.0,77.0
573,170.0825391666667,170.5898915666667,46.0,81.0
574,170.30312716666668,170.9722441,50.0,96.0
575,169.64136316666668,171.2093762,34.0,76.0
576,169.86195116666667,171.37849366666669,41.0,45.0
577,170.9648911666667,171.3950377666667,53.0,75.0
578,171.18547916666668,171.39687600000002,50.0,92.0
579,170.52371516666668,171.41893480000002,58.0,117.0
580,170.74430316666667,171.4722435666667,46.0,86.0
581,172.06783116666668,172.20018396666669,62.0,56.0
582,172.06783116666668,172.21856630000002,65.0,69.0
583,172.06783116666668,172.22224276666668,58.0,63.0
584,171.8472431666667,172.4005514,46.0,72.0
585,172.28841916666667,172.4226102,58.0,92.0
586,171.40606716666667,172.66709523333336,34.0,85.0
587,171.62665516666667,172.6854775666667,41.0,70.0
588,172.5090071666667,172.7148893,46.0,100.0
589,172.28841916666667,172.76452160000002,62.0,90.0
590,172.72959516666668,173.12481533333334,58.0,97.0
591,172.28841916666667,173.12665356666668,65.0,88.0
592,172.95018316666668,173.20937406666667,62.0,82.0
593,173.83253516666667,174.11562310000002,57.0,86.0
594,173.61194716666668,174.13216720000003,50.0,92.0
595,174.2737111666667,174.49246093333335,50.0,93.0
596,174.0531231666667,174.5567991,62.0,90.0
597,173.17077116666667,174.76084300000002,38.0,86.0
598,173.3913591666667,174.99797510000002,45.0,75.0
599,174.0531231666667,175.01819566666668,65.0,107.0
600,174.49429916666668,175.45937166666667,57.0,99.0
601,174.71488716666667,175.477754,62.0,86.0
602,175.59723916666667,175.88216533333335,57.0,93.0
603,175.37665116666668,175.88400356666668,50.0,78.0
604,174.9354751666667,176.12665036666667,38.0,90.0
605,175.15606316666668,176.16709150000003,45.0,86.0
606,176.03841516666668,176.59723810000003,50.0,90.0
607,175.8178271666667,176.70385563333335,65.0,117.0
608,176.25900316666667,176.7167232666667,62.0,95.0
609,176.4795911666667,176.71856150000002,57.0,85.0
610,177.14135516666667,177.68179576666668,55.0,96.0
611,177.3619431666667,177.9207661,58.0,83.0
612,177.80311916666668,178.0200307,55.0,83.0
613,176.7001791666667,178.36378033333335,43.0,82.0
614,176.92076716666668,178.55128013333334,50.0,74.0
615,178.02370716666667,178.6358388666667,62.0,69.0
616,177.58253116666668,178.6707653,67.0,75.0
617,178.2442951666667,178.8031181,58.0,86.0
618,178.9060591666667,179.43730860000002,55.0,79.0
619,179.1266471666667,179.58988196666667,58.0,92.0
620,179.56782316666667,179.7075289,55.0,76.0
621,178.68547116666667,179.71488183333335,50.0,83.0
622,178.46488316666668,179.7626759,43.0,72.0
623,179.7884111666667,180.2571606666667,62.0,76.0
624,179.34723516666668,180.26451360000002,67.0,69.0
625,180.00899916666668,180.27554300000003,58.0,92.0
626,180.6707631666667,181.1358362,50.0,31.0
627,180.89135116666668,181.19282143333334,57.0,53.0
628,180.22958716666668,181.43546823333335,38.0,83.0
629,180.45017516666667,181.46855643333333,45.0,56.0
630,181.11193916666667,181.6045857,62.0,99.0
631,181.3325271666667,181.85642366666667,50.0,81.0
632,181.77370316666668,181.9520118,62.0,67.0
633,181.5531151666667,181.9906147,57.0,93.0
634,182.43546716666668,182.76267270000002,53.0,97.0
635,181.99429116666667,182.8049520666667,41.0,92.0
636,182.2148791666667,182.87848140000003,48.0,69.0
637,182.65605516666668,182.97958423333336,63.0,127.0
638,182.87664316666667,183.2865692,46.0,89.0
639,183.31781916666668,183.71855403333333,62.0,112.0
640,183.0972311666667,183.73142166666668,53.0,95.0
641,183.53840716666667,183.7553187,58.0,107.0
642,183.97958316666669,184.5384061,46.0,54.0
643,183.7589951666667,184.5714943,39.0,95.0
644,184.20017116666668,184.6376707,51.0,93.0
645,184.42075916666667,184.87112633333334,55.0,96.0
646,184.6413471666667,184.91340570000003,63.0,127.0
647,184.86193516666668,185.0071556,58.0,117.0
648,186.1854631666667,186.48693343333335,53.0,59.0
649,185.96487516666667,186.52369810000002,48.0,95.0
650,186.62663916666668,186.80310956666668,48.0,88.0
651,185.08252316666668,186.8435507,41.0,100.0
652,186.84722716666667,187.26450613333336,57.0,107.0
653,187.0678151666667,187.27002083333335,53.0,95.0
654,186.40605116666669,187.2736973,60.0,107.0
655,187.9501671666667,188.33068146666668,57.0,95.0
656,187.28840316666668,188.50163716666668,38.0,93.0
657,187.50899116666668,188.55494593333336,45.0,85.0
658,187.72957916666667,188.71487223333335,50.0,92.0
659,188.17075516666668,189.05678363333334,65.0,117.0
660,188.6119311666667,189.0641365666667,62.0,97.0
661,188.83251916666669,189.09171006666668,57.0,92.0
662,189.4942831666667,189.70751823333336,55.0,96.0
663,189.71487116666668,189.94281210000003,58.0,107.0
664,189.27369516666667,190.06045903333336,50.0,83.0
665,190.15604716666667,190.33987050000002,50.0,95.0
666,189.05310716666668,190.38214986666668,43.0,92.0
667,189.93545916666667,190.74428183333336,62.0,112.0
668,190.3766351666667,190.75531123333334,58.0,122.0
669,190.59722316666668,190.8453846666667,55.0,117.0
670,191.25898716666669,191.79023660000001,48.0,96.0
671,191.47957516666668,191.9814128666667,55.0,95.0
672,190.81781116666667,191.98692756666668,36.0,96.0
673,191.0383991666667,192.04207456666668,43.0,72.0
674,191.9207511666667,192.17258913333336,48.0,99.0
675,192.14133916666668,192.4667064666667,60.0,117.0
676,191.70016316666667,192.50347113333333,63.0,127.0
677,192.36192716666667,192.56045636666667,55.0,96.0
678,193.02369116666668,193.51266123333335,51.0,97.0
679,193.24427916666667,193.69832280000003,55.0,96.0
680,192.5825151666667,193.81596973333336,39.0,92.0
681,192.8031031666667,193.81596973333336,46.0,102.0
682,193.68545516666669,193.90052846666669,51.0,100.0
683,193.4648671666667,194.2222193,63.0,127.0
684,193.90604316666668,194.25346926666668,58.0,127.0
685,194.12663116666667,194.31045450000002,55.0,107.0
686,195.0089831666667,195.30493873333336,57.0,99.0
687,194.78839516666667,195.33435046666668,53.0,97.0
688,195.45015916666668,195.63949720000002,53.0,99.0
689,195.2295711666667,195.77368823333336,60.0,117.0
690,195.2295711666667,195.78655586666667,65.0,117.0
691,194.3472191666667,195.9979527,41.0,88.0
692,195.8913351666667,196.15052606666669,60.0,97.0
693,195.67074716666667,196.15604076666668,57.0,99.0
694,194.56780716666668,196.17074663333335,48.0,92.0
695,195.8913351666667,196.19464366666668,65.0,107.0
696,196.7736871666667,196.88214293333334,71.0,64.0
697,196.7736871666667,196.89133410000002,69.0,57.0
698,196.7736871666667,196.91523113333335,65.0,78.0
699,196.7736871666667,196.9280987666667,60.0,92.0
700,196.55309916666667,197.09721623333334,53.0,95.0
701,196.99427516666668,197.26633370000002,60.0,99.0
702,197.21486316666667,197.4648629,53.0,107.0
703,196.99427516666668,197.47589230000003,65.0,102.0
704,196.11192316666668,197.55493633333336,41.0,93.0
705,196.33251116666668,197.76817140000003,48.0,97.0
706,196.99427516666668,197.8233184,69.0,107.0
707,197.4354511666667,197.8453772,60.0,107.0
708,197.6560391666667,197.85273013333335,65.0,112.0
709,198.75897916666668,199.18912576666668,53.0,75.0
710,198.75897916666668,199.2130228,50.0,96.0
711,197.87662716666668,199.4446402,34.0,76.0
712,198.3178031666667,199.64868410000003,41.0,45.0
713,198.75897916666668,199.65419880000002,58.0,117.0
714,199.2001551666667,199.71669873333335,46.0,86.0
715,200.52368316666667,200.6578742,58.0,92.0
716,199.64133116666667,200.90235923333336,34.0,85.0
717,200.52368316666667,200.99978560000002,62.0,90.0
718,200.52368316666667,201.07699140000003,46.0,72.0
719,200.0825071666667,201.14132956666668,41.0,70.0
720,200.96485916666668,201.36007933333335,58.0,97.0
721,200.52368316666667,201.36191756666668,65.0,88.0
722,201.18544716666668,201.44463806666667,62.0,82.0
723,202.2883871666667,202.57147510000001,57.0,86.0
724,202.2883871666667,202.7920631,62.0,90.0
725,202.2883871666667,202.8086072,50.0,92.0
726,201.40603516666667,202.99610700000002,38.0,86.0
727,202.2883871666667,203.25345966666669,65.0,107.0
728,201.84721116666668,203.4538271,45.0,75.0
729,202.72956316666668,203.69463566666667,57.0,99.0
730,202.95015116666667,203.713018,62.0,86.0
731,204.0530911666667,204.33801733333334,57.0,93.0
732,203.1707391666667,204.3619143666667,38.0,90.0
733,204.0530911666667,204.51081126666668,62.0,95.0
734,204.0530911666667,204.6119141,50.0,90.0
735,203.61191516666668,204.62294350000002,45.0,86.0
736,204.49426716666667,204.7332375,57.0,85.0
737,204.0530911666667,204.93911963333335,65.0,117.0
738,205.81779516666668,206.03470670000002,55.0,83.0
739,205.81779516666668,206.1652212666667,58.0,83.0
740,205.81779516666668,206.42992686666668,62.0,69.0
741,204.9354431666667,206.59904433333335,43.0,82.0
742,206.25897116666667,206.81779410000001,58.0,86.0
743,205.81779516666668,206.90602930000003,67.0,75.0
744,205.37661916666667,207.00713213333336,50.0,74.0
745,207.58249916666668,207.7222049,55.0,76.0
746,206.70014716666668,207.9979399,43.0,72.0
747,207.58249916666668,208.0457339666667,58.0,92.0
748,208.0236751666667,208.0457339666667,58.0,92.0
749,207.58249916666668,208.05124866666668,62.0,76.0
750,207.1413231666667,208.17073383333334,50.0,83.0
751,207.58249916666668,208.49977760000002,67.0,69.0
752,209.34720316666667,209.64867343333336,57.0,53.0
753,208.46485116666668,209.67073223333335,38.0,83.0
754,209.34720316666667,209.8398497,62.0,93.0
755,209.34720316666667,209.87109966666668,50.0,81.0
756,208.9060271666667,209.92440843333335,45.0,56.0
757,209.7883791666667,210.2258787,57.0,93.0
758,210.22955516666667,211.0402160666667,41.0,92.0
759,211.11190716666667,211.32881870000003,58.0,107.0
760,210.67073116666668,211.33433340000002,48.0,69.0
761,211.11190716666667,211.43543623333335,63.0,127.0
762,211.11190716666667,211.4391127,53.0,97.0
763,211.55308316666668,211.96300920000002,46.0,89.0
764,211.9942591666667,212.8067583,39.0,95.0
765,212.43543516666668,212.99425810000002,46.0,54.0
766,212.8766111666667,213.0218316,58.0,117.0
767,212.65602316666667,213.09352270000002,51.0,93.0
768,212.8766111666667,213.14866970000003,63.0,127.0
769,212.8766111666667,213.32697833333336,55.0,96.0
770,214.20013916666667,214.75896210000002,48.0,95.0
771,214.6413151666667,214.94278543333334,53.0,59.0
772,214.6413151666667,215.05859413333334,57.0,107.0
773,213.31778716666668,215.0788147,41.0,100.0
774,215.08249116666667,215.25896156666667,48.0,88.0
775,215.3030791666667,215.50528483333335,53.0,95.0
776,214.6413151666667,215.5089613,60.0,107.0
777,215.52366716666668,216.73690116666668,38.0,93.0
778,216.40601916666668,216.7865334666667,57.0,95.0
779,216.40601916666668,216.85822456666668,62.0,97.0
780,215.9648431666667,217.01079793333335,45.0,85.0
781,216.8471951666667,217.1063860666667,57.0,92.0
782,216.40601916666668,217.29204763333334,65.0,117.0
783,216.40601916666668,217.39131223333334,50.0,92.0
784,218.17072316666668,218.38395823333335,55.0,96.0
785,218.17072316666668,218.39866410000002,58.0,107.0
786,217.7295471666667,218.51631103333335,50.0,83.0
787,217.28837116666668,218.61741386666668,43.0,92.0
788,218.17072316666668,218.97954583333336,62.0,112.0
789,218.6118991666667,218.99057523333335,58.0,122.0
790,218.83248716666668,219.0806486666667,55.0,117.0
791,219.05307516666667,220.22219156666668,36.0,96.0
792,219.93542716666667,220.26079446666668,60.0,117.0
793,219.93542716666667,220.43726486666668,55.0,95.0
794,220.37660316666668,220.43726486666668,55.0,96.0
795,219.93542716666667,220.46667660000003,48.0,96.0
796,219.4942511666667,220.49792656666668,43.0,72.0
797,219.93542716666667,220.73873513333336,63.0,127.0
798,220.8177791666667,222.05123373333336,39.0,92.0
799,221.7001311666667,222.15417480000002,55.0,96.0
800,221.7001311666667,222.18910123333336,51.0,97.0
801,221.25895516666668,222.27182173333335,46.0,102.0
802,221.7001311666667,222.4574833,63.0,127.0
803,222.14130716666668,222.48873326666669,58.0,127.0
804,222.36189516666667,222.54571850000002,55.0,107.0
805,223.02365916666668,223.51814393333336,46.0,97.0
806,222.80307116666668,223.78284953333335,41.0,62.0
807,223.2442471666667,223.81042303333334,53.0,79.0
808,223.68542316666668,223.94461406666667,46.0,112.0
809,222.5824831666667,224.0107904666667,34.0,102.0
810,223.4648351666667,224.02181986666668,62.0,122.0
811,223.90601116666667,224.09534920000002,58.0,107.0
812,224.1265991666667,224.22034906666667,53.0,69.0
813,224.34718716666669,224.9225542,58.0,122.0
814,224.34718716666669,225.1082157666667,55.0,96.0
815,224.34718716666669,225.1376275,52.0,112.0
816,224.34718716666669,225.1982892,40.0,112.0
817,225.22953916666668,226.0457147666667,38.0,99.0
818,225.22953916666668,226.06042063333334,54.0,107.0
819,225.22953916666668,226.06409710000003,57.0,95.0
820,225.22953916666668,226.0677735666667,50.0,117.0
821,226.5530671666667,227.0659342666667,51.0,99.0
822,226.77365516666669,227.26813993333334,55.0,95.0
823,226.33247916666667,227.42806623333334,46.0,93.0
824,226.11189116666668,227.43174270000003,39.0,99.0
825,227.21483116666667,227.50711026666667,51.0,100.0
826,227.4354191666667,227.80674230000002,58.0,127.0
827,226.99424316666668,227.81409523333335,63.0,127.0
828,227.65600716666668,227.8729187,55.0,100.0
829,228.3177711666667,228.83982943333336,53.0,100.0
830,228.53835916666668,228.95931460000003,57.0,100.0
831,227.87659516666668,229.1174026666667,41.0,89.0
832,228.0971831666667,229.16703496666668,48.0,95.0
833,228.9795351666667,229.28100543333335,53.0,112.0
834,229.20012316666669,229.6082109666667,60.0,112.0
835,229.42071116666668,229.62659330000002,57.0,117.0
836,228.75894716666667,229.6302697666667,65.0,117.0
837,230.08247516666668,230.38394543333334,55.0,100.0
838,229.8618871666667,230.6192393,50.0,100.0
839,230.5236511666667,230.98688596666668,58.0,127.0
840,230.30306316666667,231.05490060000002,62.0,117.0
841,229.64129916666667,231.26262096666667,43.0,107.0
842,230.7442391666667,231.39313553333335,50.0,99.0
843,231.18541516666667,231.4740178,58.0,122.0
844,230.96482716666668,231.48137073333336,55.0,95.0
845,231.18541516666667,231.48688543333336,62.0,100.0
846,232.0677671666667,232.21482583333335,70.0,107.0
847,232.0677671666667,232.224017,67.0,96.0
848,232.0677671666667,232.22585523333336,62.0,88.0
849,232.2883551666667,232.3490168666667,62.0,82.0
850,231.84717916666668,232.35269333333335,55.0,107.0
851,232.50894316666668,232.6541636,55.0,112.0
852,231.62659116666669,232.6707077,50.0,102.0
853,231.4060031666667,232.70011943333336,43.0,99.0
854,232.2883551666667,232.7699723,67.0,112.0
855,232.2883551666667,233.0879866666667,70.0,127.0
856,232.9501191666667,233.1651924666667,67.0,112.0
857,232.72953116666667,233.17438363333335,62.0,117.0
858,233.61188316666667,234.1247502666667,48.0,100.0
859,233.8324711666667,234.13945613333334,55.0,102.0
860,233.1707071666667,234.35452943333334,36.0,97.0
861,233.39129516666668,234.40232350000002,43.0,82.0
862,234.05305916666669,234.54202923333335,60.0,102.0
863,234.27364716666668,234.55857333333336,48.0,99.0
864,234.7148231666667,234.9133523666667,60.0,93.0
865,234.05305916666669,234.9243817666667,63.0,127.0
866,234.4942351666667,234.94460233333336,55.0,99.0
867,235.3765871666667,235.9059983666667,51.0,112.0
868,235.5971751666667,236.09717463333334,55.0,93.0
869,234.93541116666668,236.17805690000003,39.0,99.0
870,235.15599916666667,236.22952743333335,46.0,92.0
871,236.03835116666667,236.30305676666669,51.0,112.0
872,235.81776316666668,236.60820350000003,63.0,127.0
873,236.2589391666667,236.61004173333336,58.0,127.0
874,236.47952716666668,236.66151226666668,55.0,102.0
875,237.1412911666667,237.64496710000003,53.0,102.0
876,237.36187916666668,237.90783446666669,57.0,89.0
877,237.8030551666667,238.06592253333335,53.0,112.0
878,236.70011516666668,238.25158410000003,41.0,93.0
879,238.0236431666667,238.34165753333335,60.0,112.0
880,237.58246716666667,238.35636340000002,65.0,117.0
881,238.24423116666668,238.4096721666667,57.0,89.0
882,236.9207031666667,238.4390839,48.0,95.0
883,238.46481916666667,239.7387148666667,41.0,72.0
884,238.46481916666667,239.76628836666669,48.0,49.0
885,238.46481916666667,239.90415586666668,53.0,112.0
886,238.46481916666667,240.16334676666668,57.0,127.0
887,238.46481916666667,240.18908203333336,60.0,107.0
888,238.46481916666667,240.2074643666667,65.0,102.0
889,241.1118751666667,242.18540343333336,58.0,72.0
890,241.55305116666668,242.48871193333335,65.0,65.0
891,242.43540316666667,242.96297613333334,58.0,86.0
892,240.67069916666668,242.9997408,53.0,66.0
893,240.2295231666667,243.09349070000002,46.0,82.0
894,241.9942271666667,243.57143136666667,70.0,95.0
895,242.8765791666667,243.8434899,65.0,71.0
896,243.31775516666667,243.89312220000002,62.0,73.0
897,244.64128316666668,245.7184879,50.0,67.0
898,243.75893116666668,246.4464283,38.0,73.0
899,245.0824591666667,246.4464283,57.0,70.0
900,244.2001071666667,246.51444293333336,45.0,55.0
901,245.9648111666667,246.6780457,50.0,56.0
902,245.52363516666668,247.29569210000002,65.0,88.0
903,246.40598716666668,247.3103979666667,62.0,81.0
904,246.8471631666667,247.38025083333335,57.0,73.0
905,247.7295151666667,249.28833703333336,50.0,53.0
906,248.61186716666668,249.5052485666667,55.0,70.0
907,249.0530431666667,249.5181162,58.0,65.0
908,248.17069116666667,249.51995443333334,62.0,92.0
909,249.49421916666668,250.20010076666668,50.0,66.0
910,247.28833916666667,250.30671830000003,43.0,72.0
911,249.9353951666667,250.67252673333334,70.0,86.0
912,250.37657116666668,250.9721587666667,67.0,78.0
913,251.7000991666667,251.9225254,69.0,96.0
914,250.8177471666667,252.19274570000002,38.0,88.0
915,251.7000991666667,252.297525,50.0,64.0
916,251.25892316666668,252.61002466666667,45.0,56.0
917,252.5824511666667,253.14678880000002,57.0,74.0
918,252.5824511666667,253.18722993333336,63.0,83.0
919,252.5824511666667,253.38575913333335,41.0,60.0
920,253.46480316666668,254.31774343333336,65.0,58.0
921,253.46480316666668,254.32877283333335,62.0,69.0
922,252.5824511666667,254.3416404666667,53.0,67.0
923,253.46480316666668,254.34347870000002,46.0,83.0
924,253.46480316666668,254.34347870000002,58.0,72.0
925,254.34715516666668,255.2534042,39.0,86.0
926,254.7883311666667,255.32509530000002,51.0,82.0
927,255.22950716666668,255.3728893666667,63.0,82.0
928,255.22950716666668,255.38208053333335,58.0,90.0
929,255.6706831666667,256.64494683333334,60.0,72.0
930,255.6706831666667,256.68354973333334,53.0,69.0
931,255.6706831666667,256.71112323333335,57.0,70.0
932,256.5530351666667,257.1431080666667,48.0,55.0
933,255.6706831666667,257.2644314666667,41.0,63.0
934,257.43538716666666,257.8508279,53.0,77.0
935,256.9942111666667,257.88023963333336,60.0,85.0
936,257.8765631666667,259.0769295333333,38.0,78.0
937,258.3177391666667,259.09898833333335,45.0,51.0
938,258.75891516666667,259.3581792333334,50.0,66.0
939,258.75891516666667,259.6357524666667,62.0,82.0
940,258.75891516666667,259.65045833333335,65.0,79.0
941,259.2000911666667,259.7129582666667,57.0,72.0
942,260.0824431666667,260.72214836666666,50.0,66.0
943,259.6412671666667,260.8545011666667,43.0,76.0
944,260.52361916666666,261.33795653333334,62.0,85.0
945,260.9647951666667,261.42986820000004,55.0,73.0
946,260.52361916666666,261.43722113333337,58.0,99.0
947,261.4059711666667,262.45560240000003,36.0,85.0
948,261.8471471666667,262.47398473333334,43.0,58.0
949,262.2883231666667,262.6908962666667,48.0,61.0
950,262.2883231666667,263.1210428666667,60.0,83.0
951,262.2883231666667,263.1669987,63.0,93.0
952,262.7294991666667,263.22030746666667,55.0,69.0
953,263.61185116666667,264.4556002666667,46.0,36.0
954,264.0530271666667,264.4611149666667,51.0,63.0
955,263.1706751666667,264.4813355333334,39.0,93.0
956,264.0530271666667,264.6651588666667,63.0,117.0
957,264.0530271666667,264.6798647333334,58.0,122.0
958,264.4942031666667,264.9427321,55.0,85.0
959,265.37655516666666,265.70559893333336,53.0,92.0
960,265.37655516666666,265.7129518666667,60.0,92.0
961,265.37655516666666,265.7184665666667,57.0,86.0
962,265.37655516666666,265.9133193,48.0,93.0
963,265.8177311666667,266.1780249,53.0,122.0
964,265.8177311666667,266.1817013666667,60.0,102.0
965,265.8177311666667,266.19273076666667,57.0,107.0
966,264.9353791666667,266.55853920000004,41.0,95.0
967,266.2589071666667,266.60265680000003,60.0,117.0
968,266.2589071666667,266.61552443333335,53.0,99.0
969,266.2589071666667,266.61552443333335,57.0,100.0
970,266.03831916666667,266.68170083333337,48.0,112.0
971,266.7000831666667,267.01809753333333,53.0,112.0
972,266.7000831666667,267.2092738,57.0,102.0
973,266.7000831666667,267.2092738,60.0,97.0
974,267.1412591666667,267.4941999666667,53.0,97.0
975,267.3618471666667,267.49603820000004,60.0,100.0
976,267.3618471666667,267.5052293666667,57.0,97.0
977,266.9206711666667,267.6339057,48.0,122.0
978,267.5824351666667,267.79567023333334,53.0,112.0
979,267.5824351666667,268.11919930000005,57.0,117.0
980,267.5824351666667,268.1522875,60.0,117.0
981,266.7000831666667,268.3765519666667,41.0,96.0
982,267.80302316666666,268.40780193333336,48.0,117.0
983,268.0236111666667,268.51074300000005,53.0,107.0
984,268.2441991666667,268.5254488666667,57.0,96.0
985,268.2441991666667,268.5364782666667,60.0,107.0
986,268.9059631666667,269.40596263333333,58.0,112.0
987,269.1265511666667,269.63941826666667,62.0,95.0
988,268.46478716666667,270.0989766,46.0,100.0
989,268.6853751666667,270.2313294,53.0,72.0
990,269.5677271666667,270.3085352,58.0,97.0
991,269.3471391666667,270.6504466,70.0,127.0
992,270.0089031666667,270.73500533333333,62.0,100.0
993,269.7883151666667,270.8930934,65.0,97.0
994,270.6706671666667,271.2019166,58.0,107.0
995,270.4500791666667,271.41331343333337,53.0,72.0
996,271.3324311666667,271.44272516666666,58.0,97.0
997,270.89125516666667,271.4647839666667,62.0,99.0
998,270.22949116666666,271.4923574666667,46.0,85.0
999,271.1118431666667,271.8361071,70.0,127.0
1000,271.5530191666667,271.9225040666667,65.0,122.0
1001,271.7736071666667,272.0107392666667,62.0,100.0
1002,272.4353711666667,272.94088533333337,50.0,93.0
1003,272.65595916666666,273.36184076666666,57.0,97.0
1004,273.0971351666667,273.4114730666667,50.0,97.0
1005,271.9941951666667,273.60816403333337,38.0,89.0
1006,272.2147831666667,273.79198736666666,45.0,76.0
1007,272.8765471666667,274.26257510000005,65.0,122.0
1008,273.5383111666667,274.28647213333335,57.0,107.0
1009,273.31772316666667,274.28647213333335,62.0,102.0
1010,274.4206631666667,274.56220713333335,65.0,97.0
1011,274.4206631666667,274.57323653333333,62.0,96.0
1012,274.2000751666667,274.7129422666667,50.0,90.0
1013,273.7588991666667,274.907795,38.0,79.0
1014,273.9794871666667,274.94272143333336,45.0,88.0
1015,274.8618391666667,275.0934565666667,50.0,90.0
1016,274.6412511666667,275.1173536,62.0,117.0
1017,275.08242716666666,275.4960296666667,57.0,112.0
1018,274.6412511666667,275.49970613333335,65.0,117.0
1019,275.3030151666667,275.51992670000004,62.0,127.0
1020,275.9647791666667,276.2423524,55.0,95.0
1021,276.1853671666667,276.4684551,58.0,96.0
1022,275.74419116666667,276.5438226666667,50.0,69.0
1023,275.5236031666667,277.1449249666667,43.0,93.0
1024,276.8471311666667,277.2754395333333,58.0,112.0
1025,276.6265431666667,277.27911600000004,50.0,86.0
1026,277.0677191666667,277.2809542333334,55.0,100.0
1027,276.4059551666667,277.28463070000004,62.0,122.0
1028,277.9500711666667,278.09161513333333,70.0,122.0
1029,277.9500711666667,278.0989680666667,67.0,100.0
1030,277.7294831666667,278.25337966666666,55.0,96.0
1031,278.3912471666667,278.5015411666667,55.0,102.0
1032,277.50889516666666,278.50521763333336,50.0,85.0
1033,277.2883071666667,278.53646760000004,43.0,96.0
1034,278.17065916666667,278.6504380666667,70.0,127.0
1035,278.17065916666667,278.68536450000005,67.0,107.0
1036,278.8324231666667,279.0860993666667,67.0,99.0
1037,278.6118351666667,279.0934523,62.0,102.0
1038,279.4941871666667,280.02727483333337,50.0,100.0
1039,279.7147751666667,280.0787453666667,53.0,100.0
1040,279.0530111666667,280.3710244666667,38.0,107.0
1041,279.93536316666666,280.39675973333334,57.0,127.0
1042,280.1559511666667,280.4537449666667,50.0,107.0
1043,280.3765391666667,280.7460240666667,53.0,102.0
1044,279.2735991666667,280.753377,45.0,93.0
1045,280.59712716666667,280.753377,57.0,95.0
1046,280.8177151666667,281.3140381666667,57.0,93.0
1047,280.8177151666667,281.32874403333335,63.0,127.0
1048,280.8177151666667,281.6577878,41.0,97.0
1049,281.2588911666667,281.7368318333333,53.0,99.0
1050,281.7000671666667,282.518081,62.0,107.0
1051,281.7000671666667,282.5658750666667,46.0,112.0
1052,281.7000671666667,282.60631620000004,58.0,127.0
1053,282.1412431666667,282.60815443333337,53.0,95.0
1054,283.02359516666667,283.5327858,51.0,99.0
1055,283.2441831666667,283.68903563333333,55.0,89.0
1056,282.5824191666667,283.7202856,39.0,93.0
1057,282.8030071666667,283.7478591,46.0,83.0
1058,283.4647711666667,283.7570502666667,63.0,127.0
1059,283.6853591666667,283.7956531666667,51.0,88.0
1060,283.9059471666667,284.0474911333334,55.0,95.0
1061,283.9059471666667,284.9077843333334,53.0,93.0
1062,283.9059471666667,284.98866660000004,60.0,97.0
1063,283.9059471666667,285.0364606666667,57.0,122.0
1064,284.78829916666666,285.3397691666667,48.0,97.0
1065,285.0088871666667,285.53462190000005,53.0,78.0
1066,285.45006316666667,285.67432763333335,48.0,79.0
1067,283.9059471666667,285.70190113333337,41.0,102.0
1068,285.8912391666667,286.09344483333336,53.0,92.0
1069,285.6706511666667,286.09344483333336,57.0,102.0
1070,285.2294751666667,286.10447423333335,60.0,127.0
1071,286.5530031666667,287.0603555666667,50.0,88.0
1072,286.7735911666667,287.3213847,57.0,93.0
1073,286.3324151666667,287.36182583333334,45.0,82.0
1074,286.11182716666667,287.36734053333333,38.0,85.0
1075,287.21476716666666,287.8213841666667,50.0,85.0
1076,287.4353551666667,287.83792826666667,62.0,102.0
1077,286.9941791666667,287.8544723666667,65.0,122.0
1078,287.6559431666667,287.88388410000005,57.0,100.0
1079,288.3177071666667,288.5530010333334,55.0,89.0
1080,288.53829516666667,288.7699125666667,58.0,102.0
1081,288.0971191666667,288.87285363333336,50.0,89.0
1082,288.9794711666667,289.32689726666666,50.0,82.0
1083,287.87653116666667,289.3673384,43.0,76.0
1084,288.7588831666667,289.53829410000003,62.0,112.0
1085,289.2000591666667,289.5438088,58.0,122.0
1086,289.4206471666667,289.6375587,55.0,82.0
1087,290.0824111666667,290.6357194,48.0,86.0
1088,290.30299916666667,290.79196923333336,55.0,85.0
1089,289.64123516666666,290.8765279666667,36.0,89.0
1090,289.8618231666667,290.9096161666667,43.0,93.0
1091,290.7441751666667,291.2699099,48.0,78.0
1092,290.96476316666667,291.3526304,60.0,96.0
1093,290.5235871666667,291.36917450000004,63.0,127.0
1094,291.1853511666667,291.41329210000004,55.0,85.0
1095,291.8471151666667,292.36917343333334,53.0,92.0
1096,291.4059391666667,292.6191731666667,41.0,74.0
1097,291.6265271666667,292.66512900000004,48.0,74.0
1098,292.06770316666666,292.7901288666667,57.0,85.0
1099,292.5088791666667,292.8121876666667,53.0,88.0
1100,292.9500551666667,293.16696670000005,57.0,82.0
1101,292.72946716666667,293.16696670000005,60.0,82.0
1102,292.2882911666667,293.16696670000005,65.0,122.0
1103,293.6118191666667,294.1136568666667,58.0,79.0
1104,293.8324071666667,294.4353477,62.0,74.0
1105,293.1706431666667,294.8121855333334,46.0,99.0
1106,293.39123116666667,294.9427001,53.0,66.0
1107,294.0529951666667,295.6467434666667,70.0,117.0
1108,294.49417116666666,295.6798316666667,65.0,86.0
1109,294.7147591666667,295.73314043333335,62.0,90.0
1110,294.9353471666667,296.48865433333333,46.0,81.0
1111,294.2735831666667,296.525419,58.0,89.0
1112,295.81769916666667,296.63938946666667,65.0,63.0
1113,296.2588751666667,296.6632865,62.0,58.0
1114,295.81769916666667,296.6779923666667,70.0,75.0
1115,297.1412271666667,298.4518875333334,53.0,42.0
1116,298.0235791666667,298.46291693333336,62.0,63.0
1117,296.7000511666667,298.5033580666667,46.0,77.0
1118,298.4647551666667,298.5033580666667,46.0,75.0
1119,297.58240316666667,298.52357863333333,58.0,58.0
1120,298.9059311666667,299.99600353333335,58.0,62.0
1121,299.7882831666667,300.40776780000004,67.0,56.0
1122,299.3471071666667,300.4721059666667,63.0,55.0
1123,300.2294591666667,301.8599721333334,46.0,72.0
1124,300.67063516666667,302.0529866333334,58.0,64.0
1125,301.1118111666667,302.2037217666667,65.0,70.0
1126,301.5529871666667,302.8746769333334,62.0,62.0
1127,302.8765151666667,303.47026453333336,63.0,62.0
1128,301.9941631666667,303.6448967,46.0,59.0
1129,302.43533916666667,303.80666123333333,58.0,56.0
1130,303.3176911666667,303.80666123333333,65.0,56.0
1131,303.7588671666667,305.40592423333334,46.0,60.0
1132,304.2000431666667,305.63754163333334,58.0,62.0
1133,304.6412191666667,305.7625415,70.0,74.0
1134,305.0823951666667,305.8342326,65.0,53.0
1135,305.52357116666667,307.1816576333334,46.0,61.0
1136,305.9647471666667,307.40776033333333,58.0,55.0
1137,306.4059231666667,307.4371720666667,63.0,57.0
1138,306.8470991666667,307.51805433333334,65.0,43.0
1139,307.28827516666666,310.7698891,46.0,55.0
1140,307.95003916666667,310.80665376666667,58.0,52.0
1141,307.7294511666667,310.8728301666667,77.0,50.0
1142,307.95003916666667,310.94084480000004,86.0,73.0
1143,307.95003916666667,311.02908,82.0,49.0
