,start,end,pitch,velocity
0,15.759321529166668,16.04476916666667,74.0,104.0
1,16.095142279166666,16.20148551666667,71.0,90.0
2,16.207082529166666,16.457082420833334,74.0,90.0
3,16.542903279166666,16.6399181625,71.0,89.0
4,16.654843529166666,16.884321041666666,74.0,88.0
5,16.990664279166666,17.0764851375,71.0,87.0
6,17.102604529166666,17.2835746,74.0,91.0
7,17.438425279166665,17.541037175,71.0,87.0
8,17.550365529166665,17.6697684625,74.0,89.0
9,17.88618627916667,17.996260858333333,71.0,90.0
10,17.99812652916667,18.229469712500002,74.0,89.0
11,18.33394727916667,18.42349947916667,71.0,88.0
12,18.44588752916667,18.634320283333334,74.0,90.0
13,18.66976802916667,18.9123052375,76.0,102.0
14,19.34140952916667,19.6063347875,73.0,106.0
15,19.67723027916667,19.798498883333334,71.0,91.0
16,19.789170529166668,20.044767433333334,73.0,87.0
17,20.124991279166668,20.236931529166668,71.0,90.0
18,20.236931529166668,20.5074538,73.0,88.0
19,20.572752279166668,20.6865582,71.0,88.0
20,20.684692529166668,20.97760285,73.0,87.0
21,21.020513279166668,21.13805054166667,71.0,90.0
22,21.132453529166668,21.395513116666667,73.0,86.0
23,21.468274279166668,21.591408554166666,71.0,87.0
24,21.580214529166668,21.8563338125,73.0,85.0
25,21.916035279166667,22.089542666666667,71.0,87.0
26,22.027975529166667,22.23133365,76.0,88.0
27,22.251856029166667,22.399244025,74.0,98.0
28,22.923497529166667,23.195885470833336,74.0,107.0
29,23.259318279166667,23.369392858333335,71.0,87.0
30,23.371258529166667,23.6473778125,74.0,94.0
31,23.707079279166667,23.819019529166667,71.0,91.0
32,23.819019529166667,24.106332837500002,74.0,91.0
33,24.154840279166667,24.248123820833335,71.0,88.0
34,24.266780529166667,24.548496825,74.0,92.0
35,24.602601279166667,24.708944516666666,71.0,86.0
36,24.714541529166667,24.914168308333334,74.0,100.0
37,25.050362279166666,25.1585711875,71.0,91.0
38,25.162302529166666,25.361929308333334,74.0,89.0
39,25.498123279166666,25.5727501125,74.0,89.0
40,25.610063529166666,25.759317195833333,74.0,96.0
41,25.833944029166666,26.041033491666667,76.0,94.0
42,26.281705029166666,26.436555708333334,71.0,91.0
43,26.505585529166666,26.76864511666667,78.0,113.0
44,26.953346529166666,27.08207781666667,71.0,92.0
45,27.177227029166666,27.423495579166666,78.0,116.0
46,27.848868529166666,27.981331158333333,71.0,104.0
47,28.07274902916667,28.438420512500002,78.0,116.0
48,28.74439052916667,28.8973755375,71.0,98.0
49,28.96827102916667,29.279838058333333,78.0,116.0
50,30.08767352916667,30.373121166666667,74.0,104.0
51,30.42349427916667,30.529837516666667,71.0,90.0
52,30.53543452916667,30.785434420833333,74.0,90.0
53,30.871255279166668,30.9682701625,71.0,89.0
54,30.983195529166668,31.21267304166667,74.0,88.0
55,31.319016279166668,31.4048371375,71.0,87.0
56,31.430956529166668,31.6119266,74.0,91.0
57,31.766777279166668,31.869389175000002,71.0,87.0
58,31.878717529166668,31.9981204625,74.0,89.0
59,32.21453827916667,32.32461285833333,71.0,90.0
60,32.326478529166664,32.5578217125,74.0,89.0
61,32.66229927916667,32.75185147916667,71.0,88.0
62,32.774239529166664,32.96267228333333,74.0,90.0
63,32.998120029166664,33.2406572375,76.0,102.0
64,33.66976152916667,33.9346867875,73.0,106.0
65,34.00558227916667,34.12685088333333,71.0,91.0
66,34.11752252916667,34.373119433333336,73.0,87.0
67,34.45334327916667,34.56528352916667,71.0,90.0
68,34.56528352916667,34.8358058,73.0,88.0
69,34.90110427916667,35.0149102,71.0,88.0
70,35.01304452916667,35.30595485,73.0,87.0
71,35.34886527916667,35.46640254166667,71.0,90.0
72,35.46080552916667,35.723865116666666,73.0,86.0
73,35.79662627916667,35.919760554166665,71.0,87.0
74,35.90856652916667,36.1846858125,73.0,85.0
75,36.244387279166666,36.41789466666667,71.0,87.0
76,36.35632752916667,36.55968565,76.0,88.0
77,36.58020802916667,36.727596025000004,74.0,98.0
78,37.25184952916667,37.524237470833334,74.0,107.0
79,37.587670279166666,37.69774485833334,71.0,87.0
80,37.69961052916667,37.9757298125,74.0,94.0
81,38.035431279166666,38.14737152916667,71.0,91.0
82,38.14737152916667,38.4346848375,74.0,91.0
83,38.483192279166666,38.57647582083334,71.0,88.0
84,38.59513252916667,38.876848825,74.0,92.0
85,38.930953279166665,39.037296516666665,71.0,86.0
86,39.04289352916667,39.24252030833333,74.0,100.0
87,39.378714279166665,39.486923187500004,71.0,91.0
88,39.49065452916667,39.69028130833333,74.0,89.0
89,39.826475279166665,39.9011021125,74.0,89.0
90,39.93841552916667,40.087669195833335,74.0,96.0
91,40.16229602916667,40.36938549166667,76.0,94.0
92,40.61005702916667,40.76490770833333,71.0,91.0
93,40.83393752916667,41.09699711666667,78.0,113.0
94,41.28169852916667,41.41042981666667,71.0,92.0
95,41.50557902916667,41.751847579166665,78.0,116.0
96,42.17722052916667,42.309683158333335,71.0,104.0
97,42.40110102916667,42.7667725125,78.0,116.0
98,43.07274252916667,43.2257275375,71.0,98.0
99,43.29662302916667,43.608190058333335,78.0,116.0
100,44.41602552916667,44.66042840833333,67.0,119.0
101,44.86378652916667,44.951473058333335,67.0,107.0
102,45.08766702916667,45.212666975,67.0,94.0
103,45.31154752916667,45.59512949583333,69.0,117.0
104,45.75930852916667,45.8955025,62.0,104.0
105,45.98318902916667,46.33580081666667,64.0,114.0
106,47.998113529166666,48.2182626875,66.0,113.0
107,48.33393427916667,48.499978983333335,66.0,100.0
108,48.669755029166666,48.8787101625,66.0,103.0
109,48.893635529166666,49.13244139583333,69.0,110.0
110,49.341396529166666,49.5167695875,61.0,103.0
111,49.565277029166666,49.82273960416667,62.0,110.0
112,51.580201529166665,51.85445514166667,67.0,113.0
113,52.027962529166665,52.1137833875,67.0,107.0
114,52.251843029166665,52.395499683333334,67.0,98.0
115,52.475723529166665,52.781693545833335,69.0,117.0
116,52.923484529166664,53.12870832083333,62.0,108.0
117,53.147365029166664,53.4122902875,64.0,113.0
118,54.26676752916667,54.56714053333334,64.0,116.0
119,54.60258827916667,54.8451254875,57.0,100.0
120,54.93840902916667,55.14922983333334,57.0,113.0
121,55.16228952916667,55.423483445833334,66.0,119.0
122,55.61005052916667,55.95706530416667,66.0,109.0
123,58.74437752916667,58.988780408333334,67.0,119.0
124,59.19213852916667,59.27982505833334,67.0,107.0
125,59.41601902916667,59.541018975,67.0,94.0
126,59.63989952916667,59.923481495833336,69.0,117.0
127,60.08766052916667,60.2238545,62.0,104.0
128,60.31154102916667,60.664152816666665,64.0,114.0
129,62.32646552916667,62.5466146875,66.0,113.0
130,62.662286279166665,62.82833098333334,66.0,100.0
131,62.99810702916667,63.2070621625,66.0,103.0
132,63.22198752916667,63.460793395833335,69.0,110.0
133,63.66974852916667,63.8451215875,61.0,103.0
134,63.89362902916667,64.15109160416667,62.0,110.0
135,65.90855352916667,66.18280714166667,67.0,113.0
136,66.35631452916667,66.4421353875,67.0,107.0
137,66.58019502916667,66.72385168333334,67.0,98.0
138,66.80407552916667,67.11004554583333,69.0,117.0
139,67.25183652916667,67.45706032083334,62.0,108.0
140,67.47571702916667,67.7406422875,64.0,113.0
141,68.37123902916667,68.4906419625,57.0,93.0
142,68.59511952916667,68.85817911666666,57.0,98.0
143,69.04288052916667,69.2742237125,57.0,98.0
144,69.49064152916667,69.88802941666667,64.0,107.0
145,69.93840252916667,70.30220834166667,62.0,98.0
146,73.07272952916666,73.35817716666666,62.0,104.0
147,73.40855027916666,73.51489351666667,59.0,90.0
148,73.52049052916666,73.77049042083334,62.0,90.0
149,73.85631127916666,73.9533261625,59.0,89.0
150,73.96825152916666,74.19772904166666,62.0,88.0
151,74.30407227916668,74.3898931375,59.0,87.0
152,74.41601252916666,74.5969826,62.0,91.0
153,74.75183327916668,74.854445175,59.0,87.0
154,74.86377352916666,74.9831764625,62.0,89.0
155,75.19959427916667,75.30966885833334,59.0,90.0
156,75.31153452916666,75.5428777125,62.0,89.0
157,75.64735527916667,75.73690747916667,59.0,88.0
158,75.75929552916666,75.94772828333333,62.0,90.0
159,75.98317602916667,76.2257132375,64.0,102.0
160,76.65481752916666,76.9197427875,61.0,106.0
161,76.99063827916667,77.11190688333333,59.0,91.0
162,77.10257852916666,77.35817543333333,61.0,87.0
163,77.43839927916667,77.55033952916666,59.0,90.0
164,77.55033952916666,77.8208618,61.0,88.0
165,77.88616027916667,77.9999662,59.0,88.0
166,77.99810052916666,78.29101085,61.0,87.0
167,78.33392127916667,78.45145854166667,59.0,90.0
168,78.44586152916666,78.70892111666667,61.0,86.0
169,78.78168227916667,78.90481655416667,59.0,87.0
170,78.89362252916666,79.1697418125,61.0,85.0
171,79.22944327916667,79.40295066666667,59.0,87.0
172,79.34138352916666,79.54474165,64.0,88.0
173,79.56526402916667,79.712652025,62.0,98.0
174,80.23690552916666,80.50929347083334,62.0,107.0
175,80.57272627916667,80.68280085833334,59.0,87.0
176,80.68466652916666,80.9607858125,62.0,94.0
177,81.02048727916667,81.13242752916666,59.0,91.0
178,81.13242752916666,81.4197408375,62.0,91.0
179,81.46824827916667,81.56153182083334,59.0,88.0
180,81.58018852916666,81.861904825,62.0,92.0
181,81.91600927916667,82.02235251666667,59.0,86.0
182,82.02794952916666,82.22757630833334,62.0,100.0
183,82.36377027916667,82.4719791875,59.0,91.0
184,82.47571052916666,82.67533730833334,62.0,89.0
185,82.81153127916667,82.8861581125,62.0,89.0
186,82.92347152916666,83.07272519583333,62.0,96.0
187,83.14735202916667,83.35444149166666,64.0,94.0
188,83.59511302916667,83.74996370833334,59.0,91.0
189,83.81899352916666,84.08205311666667,66.0,113.0
190,84.26675452916668,84.39548581666666,59.0,92.0
191,84.49063502916667,84.73690357916666,66.0,116.0
192,85.16227652916668,85.29473915833333,59.0,104.0
193,85.38615702916667,85.7518285125,66.0,116.0
194,86.05779852916667,86.2107835375,59.0,98.0
195,86.28167902916667,86.59324605833334,66.0,116.0
196,116.05778552916667,116.30218840833334,67.0,119.0
197,116.50554652916666,116.59323305833334,67.0,107.0
198,116.72942702916667,116.854426975,67.0,94.0
199,116.95330752916666,117.23688949583334,69.0,117.0
200,117.40106852916666,117.5372625,62.0,104.0
201,117.62494902916667,117.97756081666667,64.0,114.0
202,119.63987352916666,119.8600226875,66.0,113.0
203,119.97569427916667,120.14173898333334,66.0,100.0
204,120.31151502916667,120.5204701625,66.0,103.0
205,120.53539552916666,120.77420139583333,69.0,110.0
206,120.98315652916666,121.1585295875,61.0,103.0
207,121.20703702916667,121.46449960416668,62.0,110.0
208,123.22196152916666,123.49621514166667,67.0,113.0
209,123.66972252916666,123.7555433875,67.0,107.0
210,123.89360302916667,124.03725968333333,67.0,98.0
211,124.11748352916666,124.42345354583334,69.0,117.0
212,124.56524452916666,124.77046832083333,62.0,108.0
213,124.78912502916667,125.0540502875,64.0,113.0
214,125.90852752916668,126.20890053333333,64.0,116.0
215,126.24434827916667,126.4868854875,57.0,100.0
216,126.58016902916667,126.79098983333334,57.0,113.0
217,126.80404952916668,127.06524344583333,66.0,119.0
218,127.25181052916668,127.59882530416667,66.0,109.0
219,130.38613752916666,130.63054040833333,67.0,119.0
220,130.83389852916667,130.92158505833333,67.0,107.0
221,131.05777902916668,131.182778975,67.0,94.0
222,131.28165952916666,131.56524149583333,69.0,117.0
223,131.72942052916667,131.8656145,62.0,104.0
224,131.95330102916668,132.30591281666668,64.0,114.0
225,133.96822552916666,134.18837468750002,66.0,113.0
226,134.30404627916667,134.47009098333334,66.0,100.0
227,134.63986702916668,134.8488221625,66.0,103.0
228,134.86374752916666,135.10255339583333,69.0,110.0
229,135.31150852916667,135.4868815875,61.0,103.0
230,135.53538902916668,135.79285160416666,62.0,110.0
231,137.55031352916666,137.82456714166668,67.0,113.0
232,137.99807452916667,138.0838953875,67.0,107.0
233,138.22195502916668,138.36561168333333,67.0,98.0
234,138.44583552916666,138.75180554583335,69.0,117.0
235,138.89359652916667,139.09882032083334,62.0,108.0
236,139.11747702916668,139.3824022875,64.0,113.0
237,140.01299902916668,140.1324019625,57.0,93.0
238,140.23687952916666,140.49993911666667,57.0,98.0
239,140.68464052916667,140.9159837125,57.0,98.0
240,141.13240152916666,141.52978941666666,64.0,107.0
241,141.58016252916667,141.94396834166668,62.0,98.0
242,144.71448952916666,144.95889240833333,67.0,119.0
243,145.16225052916667,145.24993705833333,67.0,107.0
244,145.38613102916668,145.51113097500001,67.0,94.0
245,145.61001152916668,145.89359349583333,69.0,117.0
246,146.05777252916667,146.19396650000002,62.0,104.0
247,146.28165302916668,146.63426481666667,64.0,114.0
248,148.29657752916668,148.5167266875,66.0,113.0
249,148.63239827916667,148.79844298333333,66.0,100.0
250,148.96821902916668,149.1771741625,66.0,103.0
251,149.19209952916668,149.43090539583335,69.0,110.0
252,149.63986052916667,149.8152335875,61.0,103.0
253,149.86374102916668,150.12120360416668,62.0,110.0
254,151.87866552916668,152.15291914166667,67.0,113.0
255,152.32642652916667,152.4122473875,67.0,107.0
256,152.55030702916667,152.69396368333332,67.0,98.0
257,152.77418752916668,153.08015754583334,69.0,117.0
258,153.22194852916667,153.42717232083334,62.0,108.0
259,153.44582902916667,153.7107542875,64.0,113.0
260,154.56523152916668,154.86560453333334,64.0,116.0
261,154.90105227916666,155.1435894875,57.0,100.0
262,155.23687302916667,155.44769383333335,57.0,113.0
263,155.46075352916668,155.72194744583334,66.0,119.0
264,155.90851452916667,156.25552930416666,66.0,109.0
265,159.04284152916668,159.28724440833335,67.0,119.0
266,159.49060252916667,159.57828905833333,67.0,107.0
267,159.71448302916667,159.839482975,67.0,94.0
268,159.93836352916668,160.22194549583332,69.0,117.0
269,160.38612452916666,160.5223185,62.0,104.0
270,160.61000502916667,160.96261681666667,64.0,114.0
271,162.62492952916668,162.8450786875,66.0,113.0
272,162.96075027916666,163.12679498333333,66.0,100.0
273,163.29657102916667,163.5055261625,66.0,103.0
274,163.52045152916668,163.75925739583334,69.0,110.0
275,163.96821252916666,164.1435855875,61.0,103.0
276,164.19209302916667,164.44955560416668,62.0,110.0
277,166.20701752916668,166.48127114166667,67.0,113.0
278,166.65477852916666,166.7405993875,67.0,107.0
279,166.87865902916667,167.02231568333335,67.0,98.0
280,167.10253952916668,167.40850954583334,69.0,117.0
281,167.55030052916666,167.75552432083333,62.0,108.0
282,167.77418102916667,168.0391062875,64.0,113.0
283,169.78910552916668,170.07828450833333,64.0,107.0
284,170.23686652916666,170.36000080416667,64.0,96.0
285,170.46074702916667,170.7256722875,64.0,98.0
286,170.68462752916668,171.08574675833333,62.0,102.0
287,171.13238852916666,171.43462720416667,59.0,100.0
288,171.58014952916668,172.08388065416668,62.0,100.0
289,173.37119352916667,173.59320835833333,67.0,113.0
290,173.81895452916666,173.9103724,67.0,100.0
291,174.04283502916667,174.179029,67.0,100.0
292,174.26671552916667,174.60999896250001,69.0,110.0
293,174.71447652916666,174.98126745833335,62.0,93.0
294,175.16223752916667,175.74246115833333,64.0,102.0
295,176.95328152916667,177.21634111666668,66.0,109.0
296,177.40104252916666,177.50178875416668,66.0,93.0
297,177.62492302916667,177.76857968333334,66.0,90.0
298,177.84880352916667,178.10999744583333,69.0,108.0
299,178.29656452916666,178.712609125,61.0,109.0
300,178.74432552916667,179.02044481250002,62.0,104.0
301,180.53536952916667,180.80216045833333,67.0,107.0
302,180.98313052916666,181.0689513875,67.0,93.0
303,181.20701102916667,181.39171244166667,67.0,92.0
304,181.43089152916667,181.71447349583335,69.0,98.0
305,181.87865252916666,182.14544345833335,62.0,90.0
306,182.32641352916667,182.58760744583333,64.0,86.0
307,184.11745752916667,184.4607409625,64.0,86.0
308,184.56521852916666,184.86559153333334,64.0,88.0
309,185.01297952916667,185.30962119166668,57.0,84.0
310,185.46074052916666,185.71820310416666,59.0,84.0
311,185.79656127916667,186.11932233333334,62.0,88.0
