,start,end,pitch,velocity
0,31.118475375,31.23048825,67.0,109.0
1,31.313280375,31.42529325,69.0,115.0
2,31.508085375,31.774318875000002,71.0,109.0
3,31.897695375,32.154188625,71.0,109.0
4,32.287305375,32.550292125,71.0,112.0
5,32.676915375,32.943148875,69.0,109.0
6,33.066525375,33.337629,69.0,109.0
7,33.456135375,35.0713935,67.0,109.0
8,35.793795375,35.896068,69.0,109.0
9,35.988600375000004,36.089249625,71.0,115.0
10,36.183405375,37.209378375,72.0,109.0
11,37.352235375,37.563274125,71.0,109.0
12,37.741845375000004,37.98372825,69.0,109.0
13,38.131455375,38.467494,71.0,106.0
14,38.521065375,40.147687125,67.0,109.0
15,40.469115375,40.719115125,69.0,109.0
16,40.858725375,42.271061625,69.0,109.0
17,43.585995375,43.68502125,67.0,112.0
18,43.780800375,43.8765795,69.0,112.0
19,43.975605375,44.23696875,71.0,109.0
20,44.365215375,44.637942375,71.0,109.0
21,44.754825375,45.0194355,71.0,112.0
22,45.144435375,45.400928625,69.0,112.0
23,45.534045375,45.999954,69.0,112.0
24,46.118460375,47.975601375000004,67.0,112.0
25,48.261315375,48.3830685,71.0,109.0
26,48.456120375,48.550276125,72.0,109.0
27,48.650925375,49.680145125,74.0,112.0
28,49.819755375,49.9415085,72.0,106.0
29,50.014560375,50.115209625,71.0,106.0
30,50.209365375000004,50.5129365,69.0,115.0
31,50.598975375,50.9155335,71.0,109.0
32,50.988585375,51.839233875,67.0,109.0
33,52.936635375,53.227219500000004,71.0,112.0
34,53.326245375,55.508061375000004,69.0,112.0
35,55.663905375,55.95773625,67.0,112.0
36,56.053515375,56.310008625,66.0,120.0
37,56.443125375,57.420397125,64.0,112.0
38,58.001565375,58.258058625000004,64.0,112.0
39,58.391175375,58.64604525,66.0,117.0
40,58.780785375,59.219096625,67.0,112.0
41,59.365200375,60.766173,66.0,117.0
42,61.118445375,61.397665875,66.0,120.0
43,61.508055375,61.74344475,67.0,112.0
44,61.897665375,62.342470125,69.0,112.0
45,62.482080375,63.829481625,67.0,109.0
46,63.818118,64.50318225,72.0,101.0
47,64.624935375,64.881428625,67.0,115.0
48,65.014545375,65.345713875,69.0,112.0
49,65.598960375,67.17850425,71.0,112.0
50,67.352205375,67.602205125,71.0,109.0
51,67.741815375,68.49019125,69.0,112.0
52,68.521035375,69.77265750000001,67.0,99.0
53,70.079475375,70.293760875,67.0,112.0
54,70.469085375,70.7596695,67.0,112.0
55,70.858695375,71.0973315,69.0,112.0
56,71.248305375,71.52265575,71.0,109.0
57,71.637915375,72.6168105,74.0,109.0
58,73.196355375,73.420381125,71.0,109.0
59,73.585965375,73.8375885,71.0,112.0
60,73.975575375,74.212588125,72.0,109.0
61,74.365185375,74.615185125,71.0,112.0
62,74.754795375,75.31972987500001,72.0,109.0
63,75.923625375,76.18498875,71.0,109.0
64,76.313235375,77.24342925,69.0,112.0
65,77.482065375,77.745052125,67.0,109.0
66,77.871675375,78.124921875,69.0,112.0
67,78.261285375,78.569726625,71.0,112.0
68,78.650895375,78.94310287500001,72.0,112.0
69,79.040505375,79.296998625,76.0,109.0
70,79.430115375,80.400893625,74.0,118.0
71,80.598945375,80.887906125,71.0,115.0
72,80.988555375,81.238555125,72.0,112.0
73,81.378165375,82.082710125,74.0,115.0
74,82.157385375,82.4479695,71.0,112.0
75,82.54699537500001,83.566474875,74.0,115.0
76,83.71582537500001,83.95770825,71.0,112.0
77,84.105435375,84.39601950000001,74.0,112.0
78,84.495045375,84.790499625,76.0,115.0
79,84.88465537500001,85.154135625,78.0,120.0
80,85.274265375,85.504784625,76.0,106.0
81,85.663875375,86.738549625,74.0,115.0
82,86.832705375,87.095692125,76.0,115.0
83,87.22231537500001,87.45770475,78.0,120.0
84,87.611925375,88.2271845,79.0,115.0
85,88.39114537500001,88.62004125,79.0,115.0
86,88.780755375,89.41874175,79.0,115.0
87,89.55997537500001,89.842442625,78.0,120.0
88,89.949585375,90.22393575,76.0,109.0
89,90.339195375,92.105427375,74.0,115.0
90,92.287245375,92.553478875,74.0,115.0
91,92.676855375,92.9284785,76.0,109.0
92,93.066465375,93.329452125,78.0,120.0
93,93.456075375,94.079451375,79.0,115.0
94,94.624905375,94.845684375,72.0,112.0
95,95.014515375,95.897631375,72.0,112.0
96,96.183345375,96.4219815,76.0,115.0
97,96.572955375,96.81483825000001,78.0,117.0
98,96.962565375,97.517759625,79.0,115.0
99,97.741785375,97.985291625,71.0,112.0
100,98.131395375,98.77587525,71.0,109.0
101,98.910615375,99.18496575,71.0,115.0
102,99.300225375,99.5648355,74.0,115.0
103,99.689835375,100.472302125,76.0,109.0
104,100.858665375,101.115158625,71.0,115.0
105,101.248275375,101.908989,71.0,112.0
106,102.027495375,102.28723537500001,71.0,109.0
107,102.417105375,102.78885825,72.0,109.0
108,102.806715375,103.58106525000001,71.0,109.0
109,103.585935375,104.559960375,69.0,115.0
110,104.754765375,105.428466,71.0,115.0
111,105.533985375,106.147621125,72.0,118.0
112,106.313205375,107.017750125,74.0,115.0
113,107.092425375,107.3830095,71.0,112.0
114,107.482035375,108.501514875,74.0,115.0
115,108.65086537500001,108.89274825,71.0,112.0
116,109.040475375,109.33105950000001,74.0,112.0
117,109.430085375,109.725539625,76.0,115.0
118,109.81969537500001,110.089175625,78.0,120.0
119,110.209305375,110.439824625,76.0,106.0
120,110.598915375,111.673589625,74.0,115.0
121,111.767745375,112.030732125,76.0,115.0
122,112.15735537500001,112.39274475,78.0,120.0
123,112.546965375,113.16222450000001,79.0,115.0
124,113.32618537500001,113.55508125,79.0,115.0
125,113.715795375,114.35378175,79.0,115.0
126,114.49501537500001,114.777482625,78.0,120.0
127,114.884625375,115.15897575,76.0,109.0
128,115.274235375,115.917091875,78.0,117.0
129,116.053455375,116.272611,74.0,112.0
130,116.443065375,117.374882625,71.0,115.0
131,117.611895375,117.884622375,71.0,115.0
132,118.00150537500001,118.257998625,74.0,115.0
133,118.391115375,119.08429650000001,76.0,109.0
134,119.17033537500001,119.39273775000001,78.0,120.0
135,119.559945375,119.8115685,79.0,112.0
136,119.949555375,120.53559375,72.0,115.0
137,121.118385375,121.365138375,76.0,112.0
138,121.50799537500001,121.74338475,78.0,117.0
139,121.897605375,122.472280125,79.0,112.0
140,122.676825375,122.93818875000001,71.0,112.0
141,123.066435375,123.822928125,71.0,106.0
142,123.845655375,124.45117425000001,72.0,118.0
143,124.624875375,124.908966,71.0,112.0
144,125.014485375,128.19143025,69.0,112.0
145,129.30019537500002,129.563182125,62.0,118.0
146,129.689805375,130.72389525,72.0,112.0
147,130.858635375,131.439803625,71.0,112.0
148,131.443050375,131.6297385,69.0,94.0
149,131.63785537500002,133.423567875,67.0,96.0
150,155.793675375,155.90568825,67.0,109.0
151,155.988480375,156.10049325,69.0,115.0
152,156.183285375,156.449518875,71.0,109.0
153,156.572895375,156.829388625,71.0,109.0
154,156.962505375,157.22549212500002,71.0,112.0
155,157.352115375,157.618348875,69.0,109.0
156,157.74172537500002,158.012829,69.0,109.0
157,158.131335375,159.74659350000002,67.0,109.0
158,160.468995375,160.571268,69.0,109.0
159,160.663800375,160.764449625,71.0,115.0
160,160.858605375,161.884578375,72.0,109.0
161,162.027435375,162.238474125,71.0,109.0
162,162.41704537500001,162.65892825,69.0,109.0
163,162.806655375,163.142694,71.0,106.0
164,163.196265375,164.822887125,67.0,109.0
165,165.144315375,165.394315125,69.0,109.0
166,165.533925375,166.946261625,69.0,109.0
167,168.261195375,168.36022125,67.0,112.0
168,168.456000375,168.5517795,69.0,112.0
169,168.650805375,168.91216875,71.0,109.0
170,169.040415375,169.313142375,71.0,109.0
171,169.430025375,169.6946355,71.0,112.0
172,169.819635375,170.076128625,69.0,112.0
173,170.209245375,170.675154,69.0,112.0
174,170.793660375,172.65080137500001,67.0,112.0
175,172.936515375,173.0582685,71.0,109.0
176,173.131320375,173.225476125,72.0,109.0
177,173.326125375,174.355345125,74.0,112.0
178,174.49495537500002,174.61670850000002,72.0,106.0
179,174.689760375,174.790409625,71.0,106.0
180,174.884565375,175.1881365,69.0,115.0
181,175.274175375,175.5907335,71.0,109.0
182,175.663785375,176.514433875,67.0,109.0
183,177.611835375,177.9024195,71.0,112.0
184,178.001445375,180.183261375,69.0,112.0
185,180.339105375,180.63293625,67.0,112.0
186,180.728715375,180.985208625,66.0,120.0
187,181.118325375,182.095597125,64.0,112.0
188,182.676765375,182.933258625,64.0,112.0
189,183.066375375,183.32124525,66.0,117.0
190,183.455985375,183.894296625,67.0,112.0
191,184.040400375,185.441373,66.0,117.0
192,185.793645375,186.072865875,66.0,120.0
193,186.18325537500002,186.41864475,67.0,112.0
194,186.572865375,187.017670125,69.0,112.0
195,187.157280375,188.50468162500002,67.0,109.0
196,188.49331800000002,189.17838225,72.0,101.0
197,189.300135375,189.556628625,67.0,115.0
198,189.689745375,190.020913875,69.0,112.0
199,190.274160375,191.85370425,71.0,112.0
200,192.027405375,192.277405125,71.0,109.0
201,192.417015375,193.16539125,69.0,112.0
202,193.19623537500001,194.4478575,67.0,99.0
203,194.754675375,194.968960875,67.0,112.0
204,195.144285375,195.4348695,67.0,112.0
205,195.53389537500001,195.7725315,69.0,112.0
206,195.923505375,196.19785575,71.0,109.0
207,196.313115375,197.2920105,74.0,109.0
208,197.871555375,198.095581125,71.0,109.0
209,198.261165375,198.5127885,71.0,112.0
210,198.650775375,198.88778812500001,72.0,109.0
211,199.040385375,199.290385125,71.0,112.0
212,199.429995375,199.994929875,72.0,109.0
213,200.59882537500002,200.86018875,71.0,109.0
214,200.988435375,201.91862925,69.0,112.0
215,202.157265375,202.420252125,67.0,109.0
216,202.546875375,202.800121875,69.0,112.0
217,202.93648537500002,203.244926625,71.0,112.0
218,203.326095375,203.618302875,72.0,112.0
219,203.715705375,203.972198625,76.0,109.0
220,204.105315375,205.076093625,74.0,118.0
221,205.27414537500002,205.563106125,71.0,115.0
222,205.663755375,205.913755125,72.0,112.0
223,206.053365375,206.757910125,74.0,115.0
224,206.832585375,207.12316950000002,71.0,112.0
225,207.222195375,208.241674875,74.0,115.0
226,208.391025375,208.63290825,71.0,112.0
227,208.780635375,209.0712195,74.0,112.0
228,209.170245375,209.465699625,76.0,115.0
229,209.559855375,209.829335625,78.0,120.0
230,209.94946537500002,210.179984625,76.0,106.0
231,210.339075375,211.413749625,74.0,115.0
232,211.507905375,211.77089212500002,76.0,115.0
233,211.897515375,212.13290475,78.0,120.0
234,212.28712537500002,212.9023845,79.0,115.0
235,213.066345375,213.29524125,79.0,115.0
236,213.455955375,214.09394175,79.0,115.0
237,214.235175375,214.517642625,78.0,120.0
238,214.62478537500002,214.89913575,76.0,109.0
239,215.014395375,216.780627375,74.0,115.0
240,216.96244537500002,217.228678875,74.0,115.0
241,217.352055375,217.6036785,76.0,109.0
242,217.741665375,218.004652125,78.0,120.0
243,218.131275375,218.754651375,79.0,115.0
244,219.30010537500002,219.520884375,72.0,112.0
245,219.689715375,220.572831375,72.0,112.0
246,220.858545375,221.0971815,76.0,115.0
247,221.248155375,221.49003825,78.0,117.0
248,221.63776537500001,222.19295962500001,79.0,115.0
249,222.416985375,222.660491625,71.0,112.0
250,222.806595375,223.45107525,71.0,109.0
251,223.585815375,223.86016575,71.0,115.0
252,223.97542537500001,224.2400355,74.0,115.0
253,224.365035375,225.14750212500002,76.0,109.0
254,225.533865375,225.790358625,71.0,115.0
255,225.923475375,226.584189,71.0,112.0
256,226.70269537500002,226.962435375,71.0,109.0
257,227.092305375,227.46405825,72.0,109.0
258,227.481915375,228.25626525,71.0,109.0
259,228.261135375,229.235160375,69.0,115.0
260,229.429965375,230.103666,71.0,115.0
261,230.209185375,230.82282112500002,72.0,118.0
262,230.988405375,231.692950125,74.0,115.0
263,231.767625375,232.0582095,71.0,112.0
264,232.157235375,233.17671487500002,74.0,115.0
265,233.326065375,233.56794825,71.0,112.0
266,233.71567537500002,234.0062595,74.0,112.0
267,234.105285375,234.400739625,76.0,115.0
268,234.494895375,234.764375625,78.0,120.0
269,234.884505375,235.11502462500002,76.0,106.0
270,235.274115375,236.348789625,74.0,115.0
271,236.442945375,236.705932125,76.0,115.0
272,236.832555375,237.06794475,78.0,120.0
273,237.222165375,237.8374245,79.0,115.0
274,238.001385375,238.23028125000002,79.0,115.0
275,238.39099537500002,239.02898175,79.0,115.0
276,239.170215375,239.452682625,78.0,120.0
277,239.559825375,239.83417575,76.0,109.0
278,239.949435375,240.592291875,78.0,117.0
279,240.72865537500002,240.947811,74.0,112.0
280,241.118265375,242.05008262500002,71.0,115.0
281,242.287095375,242.559822375,71.0,115.0
282,242.676705375,242.93319862500002,74.0,115.0
283,243.06631537500002,243.7594965,76.0,109.0
284,243.845535375,244.06793775,78.0,120.0
285,244.235145375,244.4867685,79.0,112.0
286,244.624755375,245.21079375,72.0,115.0
287,245.793585375,246.040338375,76.0,112.0
288,246.183195375,246.41858475,78.0,117.0
289,246.572805375,247.14748012500002,79.0,112.0
290,247.352025375,247.61338875,71.0,112.0
291,247.74163537500002,248.498128125,71.0,106.0
292,248.520855375,249.12637425,72.0,118.0
293,249.300075375,249.584166,71.0,112.0
294,249.689685375,252.86663025000001,69.0,112.0
295,253.975395375,254.23838212500002,62.0,118.0
296,254.365005375,255.39909525000002,72.0,112.0
297,255.533835375,256.115003625,71.0,112.0
298,256.118250375,256.3049385,69.0,94.0
299,256.31305537500003,258.098767875,67.0,96.0
