,start,end,pitch,velocity
0,0.339285375,0.728895375,71.0,80.0
1,0.339285375,0.751622625,62.0,80.0
2,0.339285375,0.76947975,67.0,80.0
3,0.339285375,1.271102625,55.0,96.0
4,1.118505375,1.49675175,62.0,87.0
5,1.118505375,1.4983751250000001,67.0,85.0
6,1.118505375,1.5129855,71.0,85.0
7,1.897725375,2.284088625,71.0,82.0
8,1.897725375,2.2922055,62.0,82.0
9,1.897725375,2.293828875,67.0,82.0
10,1.897725375,2.858763375,55.0,94.0
11,2.676945375,3.25649025,62.0,99.0
12,2.676945375,3.25649025,71.0,94.0
13,2.676945375,3.26298375,67.0,101.0
14,3.456165375,3.974022,71.0,80.0
15,3.456165375,3.9837622500000003,62.0,91.0
16,3.456165375,4.004866125,67.0,89.0
17,3.456165375,4.683436875,55.0,96.0
18,4.235385375,4.740255,71.0,87.0
19,4.235385375,4.75648875,62.0,89.0
20,4.235385375,4.758112125,67.0,87.0
21,5.014605375,5.32467,62.0,69.0
22,5.014605375,5.3311635,67.0,74.0
23,5.014605375,5.3311635,71.0,78.0
24,5.793825375,6.402591,62.0,101.0
25,5.793825375,6.420448125,67.0,99.0
26,5.793825375,6.4318117500000005,71.0,94.0
27,5.014605375,6.452915625,55.0,96.0
28,6.573045375,7.10064225,67.0,82.0
29,6.573045375,7.105512375,62.0,89.0
30,6.573045375,7.10713575,71.0,87.0
31,6.573045375,7.5129795,55.0,101.0
32,7.741875375,7.967524500000001,55.0,91.0
33,7.352265375,7.999992,62.0,101.0
34,7.352265375,8.014602375,67.0,101.0
35,7.352265375,8.014602375,71.0,91.0
36,8.131485375,8.647718625,62.0,94.0
37,8.131485375,8.657458875,67.0,94.0
38,8.131485375,8.662329,71.0,82.0
39,8.131485375,9.225640125,54.0,110.0
40,8.910705375000001,9.553561875,62.0,104.0
41,8.910705375000001,9.563302125,67.0,101.0
42,8.910705375000001,9.56817225,71.0,96.0
43,9.689925375,10.300314375000001,62.0,96.0
44,9.689925375,10.306807875,67.0,94.0
45,9.689925375,10.319794875,71.0,91.0
46,9.689925375,10.6298595,52.0,88.0
47,10.469145375,11.118495375,71.0,99.0
48,10.469145375,11.124988875,62.0,101.0
49,10.469145375,11.134729125,67.0,99.0
50,10.858755375,11.1883005,52.0,94.0
51,11.248365375,11.826286875000001,62.0,96.0
52,11.248365375,11.849014125,67.0,96.0
53,11.248365375,11.852260875,71.0,94.0
54,12.027585375000001,12.581156250000001,62.0,96.0
55,12.027585375000001,12.599013375,71.0,96.0
56,12.027585375000001,12.602260125,67.0,94.0
57,11.248365375,12.644467875,47.0,101.0
58,12.806805375,13.472389125,62.0,87.0
59,12.806805375,13.482129375,67.0,85.0
60,12.806805375,13.485376125,71.0,87.0
61,13.586025375,14.350635,71.0,94.0
62,13.586025375,14.3571285,62.0,104.0
63,13.586025375,14.36037525,67.0,99.0
64,12.806805375,14.391219375,48.0,91.0
65,14.365245375,14.998361625000001,62.0,85.0
66,14.365245375,14.999985,67.0,91.0
67,14.365245375,15.00972525,71.0,71.0
68,15.144465375000001,15.806802375,62.0,101.0
69,15.144465375000001,15.831153,67.0,104.0
70,15.144465375000001,15.832776375,71.0,96.0
71,14.365245375,15.85388025,47.0,80.0
72,15.923685375,16.545438,67.0,91.0
73,15.923685375,16.547061375000002,62.0,94.0
74,15.923685375,16.55517825,71.0,85.0
75,15.923685375,16.98374925,48.0,94.0
76,16.702905375,17.391216375,62.0,96.0
77,16.702905375,17.407450125,67.0,96.0
78,16.702905375,17.407450125,71.0,89.0
79,17.092515375,17.506476,48.0,87.0
80,17.482125375,18.0194625,69.0,94.0
81,17.482125375,18.043813125,66.0,86.0
82,17.482125375,18.05517675,62.0,85.0
83,18.261345375,18.514591875,62.0,99.0
84,18.261345375,18.975630375,66.0,96.0
85,17.482125375,18.98374725,50.0,101.0
86,18.650955375,18.99024075,62.0,96.0
87,18.261345375,18.991864125,69.0,104.0
88,19.040565375,19.56816225,67.0,82.0
89,19.040565375,19.573032375,62.0,89.0
90,19.040565375,19.57465575,71.0,87.0
91,19.040565375,19.9804995,55.0,101.0
92,20.209395375,20.4350445,55.0,91.0
93,19.819785375000002,20.467512,62.0,101.0
94,19.819785375000002,20.482122375,67.0,101.0
95,19.819785375000002,20.482122375,71.0,91.0
96,20.599005375,21.115238625,62.0,94.0
97,20.599005375,21.124978875,67.0,94.0
98,20.599005375,21.129849,71.0,82.0
99,20.599005375,21.693160125000002,54.0,110.0
100,21.378225375,22.021081875,62.0,104.0
101,21.378225375,22.030822125,67.0,101.0
102,21.378225375,22.03569225,71.0,96.0
103,22.157445375,22.767834375,62.0,96.0
104,22.157445375,22.774327875,67.0,94.0
105,22.157445375,22.787314875,71.0,91.0
106,22.157445375,23.0973795,52.0,88.0
107,22.936665375,23.586015375,71.0,99.0
108,22.936665375,23.592508875,62.0,101.0
109,22.936665375,23.602249125,67.0,99.0
110,23.326275375,23.6558205,52.0,94.0
111,23.715885375,24.293806875,62.0,96.0
112,23.715885375,24.316534125,67.0,96.0
113,23.715885375,24.319780875,71.0,94.0
114,24.495105375,25.04867625,62.0,96.0
115,24.495105375,25.066533375,71.0,96.0
116,24.495105375,25.069780125,67.0,94.0
117,23.715885375,25.111987875,47.0,101.0
118,25.274325375,25.939909125,62.0,87.0
119,25.274325375,25.949649375,67.0,85.0
120,25.274325375,25.952896125000002,71.0,87.0
121,26.053545375000002,26.818155,71.0,94.0
122,26.053545375000002,26.824648500000002,62.0,104.0
123,26.053545375000002,26.82789525,67.0,99.0
124,25.274325375,26.858739375,48.0,91.0
125,26.832765375,27.465881625,62.0,85.0
126,26.832765375,27.467505,67.0,91.0
127,26.832765375,27.47724525,71.0,71.0
128,27.611985375,28.274322375,62.0,101.0
129,27.611985375,28.298673,67.0,104.0
130,27.611985375,28.300296375000002,71.0,96.0
131,26.832765375,28.32140025,47.0,80.0
132,28.391205375000002,29.012958,67.0,91.0
133,28.391205375000002,29.014581375000002,62.0,94.0
134,28.391205375000002,29.02269825,71.0,85.0
135,28.391205375000002,29.45126925,48.0,94.0
136,29.170425375,29.858736375,62.0,96.0
137,29.170425375,29.874970125,67.0,96.0
138,29.170425375,29.874970125,71.0,89.0
139,29.560035375000002,29.973996,48.0,87.0
140,29.949645375,30.4869825,69.0,94.0
141,29.949645375,30.511333125,66.0,86.0
142,29.949645375,30.52269675,62.0,85.0
143,30.728865375,30.982111875,62.0,99.0
144,30.728865375,31.443150375000002,66.0,96.0
145,29.949645375,31.45126725,50.0,101.0
146,31.118475375,31.457760750000002,62.0,96.0
147,30.728865375,31.459384125,69.0,104.0
148,31.508085375,32.03568225,67.0,82.0
149,31.508085375,32.040552375,62.0,89.0
150,31.508085375,32.04217575,71.0,87.0
151,31.508085375,32.4480195,55.0,101.0
152,32.676915375,32.902564500000004,55.0,91.0
153,32.287305375,32.935032,62.0,101.0
154,32.287305375,32.949642375,67.0,101.0
155,32.287305375,32.949642375,71.0,91.0
156,33.066525375,33.582758625000004,62.0,94.0
157,33.066525375,33.592498875000004,67.0,94.0
158,33.066525375,33.597369,71.0,82.0
159,33.066525375,34.160680125,54.0,110.0
160,33.845745375,34.488601875,62.0,104.0
161,33.845745375,34.498342125,67.0,101.0
162,33.845745375,34.503212250000004,71.0,96.0
163,34.624965375,35.235354375,62.0,96.0
164,34.624965375,35.241847875,67.0,94.0
165,34.624965375,35.254834875,71.0,91.0
166,34.624965375,35.5648995,52.0,88.0
167,35.404185375,36.053535375,71.0,99.0
168,35.404185375,36.060028875,62.0,101.0
169,35.404185375,36.069769125,67.0,99.0
170,35.793795375,36.1233405,52.0,94.0
171,36.183405375,36.761326875,62.0,96.0
172,36.183405375,36.784054125,67.0,96.0
173,36.183405375,36.787300875,71.0,94.0
174,36.962625375,37.51619625,62.0,96.0
175,36.962625375,37.534053375,71.0,96.0
176,36.962625375,37.537300125,67.0,94.0
177,36.183405375,37.579507875,47.0,101.0
178,37.741845375000004,38.407429125,62.0,87.0
179,37.741845375000004,38.417169375,67.0,85.0
180,37.741845375000004,38.420416125,71.0,87.0
181,38.521065375,39.285675,71.0,94.0
182,38.521065375,39.2921685,62.0,104.0
183,38.521065375,39.29541525,67.0,99.0
184,37.741845375000004,39.326259375,48.0,91.0
185,39.300285375,39.933401625,62.0,85.0
186,39.300285375,39.935025,67.0,91.0
187,39.300285375,39.94476525,71.0,71.0
188,40.079505375000004,40.741842375,62.0,101.0
189,40.079505375000004,40.766193,67.0,104.0
190,40.079505375000004,40.767816375,71.0,96.0
191,39.300285375,40.788920250000004,47.0,80.0
192,40.858725375,41.480478,67.0,91.0
193,40.858725375,41.482101375,62.0,94.0
194,40.858725375,41.49021825,71.0,85.0
195,40.858725375,41.91878925,48.0,94.0
196,41.637945375,42.326256375,62.0,96.0
197,41.637945375,42.342490125,67.0,96.0
198,41.637945375,42.342490125,71.0,89.0
199,42.027555375,42.441516,48.0,87.0
200,42.417165375,42.954502500000004,69.0,94.0
201,42.417165375,42.978853125,66.0,86.0
202,42.417165375,42.99021675,62.0,85.0
203,43.196385375,43.449631875,62.0,99.0
204,43.196385375,43.910670375,66.0,96.0
205,42.417165375,43.91878725,50.0,101.0
206,43.585995375,43.92528075,62.0,96.0
207,43.196385375,43.926904125,69.0,104.0
208,43.975605375,44.50320225,67.0,82.0
209,43.975605375,44.508072375,62.0,89.0
210,43.975605375,44.50969575,71.0,87.0
211,43.975605375,44.9155395,55.0,101.0
212,45.144435375,45.370084500000004,55.0,91.0
213,44.754825375,45.402552,62.0,101.0
214,44.754825375,45.417162375000004,67.0,101.0
215,44.754825375,45.417162375000004,71.0,91.0
216,45.534045375,46.050278625000004,62.0,94.0
217,45.534045375,46.060018875000004,67.0,94.0
218,45.534045375,46.064889,71.0,82.0
219,45.534045375,46.628200125,54.0,110.0
220,46.313265375,46.956121875,62.0,104.0
221,46.313265375,46.965862125,67.0,101.0
222,46.313265375,46.97073225,71.0,96.0
223,47.092485375,47.702874375,62.0,96.0
224,47.092485375,47.709367875,67.0,94.0
225,47.092485375,47.722354875,71.0,91.0
226,47.092485375,48.0324195,52.0,88.0
227,47.871705375,48.521055375,71.0,99.0
228,47.871705375,48.527548875,62.0,101.0
229,47.871705375,48.537289125,67.0,99.0
230,48.261315375,48.5908605,52.0,94.0
231,48.650925375,49.228846875,62.0,96.0
232,48.650925375,49.251574125,67.0,96.0
233,48.650925375,49.254820875,71.0,94.0
234,49.430145375,49.98371625,62.0,96.0
235,49.430145375,50.001573375,71.0,96.0
236,49.430145375,50.004820125,67.0,94.0
237,48.650925375,50.047027875,47.0,101.0
238,50.209365375000004,50.874949125,62.0,87.0
239,50.209365375000004,50.884689375,67.0,85.0
240,50.209365375000004,50.887936125,71.0,87.0
241,50.988585375,51.753195,71.0,94.0
242,50.988585375,51.7596885,62.0,104.0
243,50.988585375,51.76293525,67.0,99.0
244,50.209365375000004,51.793779375,48.0,91.0
245,51.767805375,52.400921625,62.0,85.0
246,51.767805375,52.402545,67.0,91.0
247,51.767805375,52.412285250000004,71.0,71.0
248,52.547025375000004,53.209362375,62.0,101.0
249,52.547025375000004,53.233713,67.0,104.0
250,52.547025375000004,53.235336375,71.0,96.0
251,51.767805375,53.256440250000004,47.0,80.0
252,53.326245375,53.947998,67.0,91.0
253,53.326245375,53.949621375,62.0,94.0
254,53.326245375,53.95773825,71.0,85.0
255,53.326245375,54.386309250000004,48.0,94.0
256,54.105465375,54.793776375,62.0,96.0
257,54.105465375,54.810010125,67.0,96.0
258,54.105465375,54.810010125,71.0,89.0
259,54.495075375,54.909036,48.0,87.0
260,54.884685375000004,55.422022500000004,69.0,94.0
261,54.884685375000004,55.446373125,66.0,86.0
262,54.884685375000004,55.45773675,62.0,85.0
263,55.663905375,55.917151875,62.0,99.0
264,55.663905375,56.378190375,66.0,96.0
265,54.884685375000004,56.38630725,50.0,101.0
266,56.053515375,56.39280075,62.0,96.0
267,55.663905375,56.394424125,69.0,104.0
268,56.443125375,56.894423625,67.0,89.0
269,56.443125375,56.933384625,64.0,91.0
270,56.443125375,56.933384625,71.0,94.0
271,57.222345375,57.597345000000004,67.0,109.0
272,57.222345375,57.675267,64.0,106.0
273,57.222345375,57.699617625,71.0,99.0
274,58.001565375,58.579486875,67.0,94.0
275,58.391175375,58.605460875,64.0,48.0
276,58.001565375,58.618447875,71.0,96.0
277,56.443125375,58.86033075,52.0,101.0
278,58.780785375,58.913902125,64.0,99.0
279,58.780785375,59.176888875,67.0,101.0
280,59.170395375,59.28240825,64.0,91.0
281,58.780785375,59.649291,71.0,96.0
282,59.560005375,60.11357625,62.0,94.0
283,59.560005375,60.126563250000004,59.0,87.0
284,59.560005375,60.134680125,66.0,96.0
285,60.339225375,60.78240675,62.0,109.0
286,60.339225375,60.852211875,66.0,110.0
287,60.728835375,60.8765625,59.0,55.0
288,61.118445375,61.54863975,59.0,87.0
289,61.118445375,61.641172125000004,62.0,101.0
290,61.118445375,61.686626625,66.0,101.0
291,61.508055375,61.959353625,54.0,22.0
292,59.560005375,62.01617175,47.0,94.0
293,61.897665375,62.0453925,59.0,99.0
294,61.897665375,62.335976625,62.0,106.0
295,62.287275375,62.433379125,59.0,104.0
296,61.897665375,62.532405000000004,66.0,107.0
297,62.676885375000005,63.219092625,64.0,101.0
298,62.676885375000005,63.3051315,60.0,94.0
299,63.456105375,63.63305325,60.0,104.0
300,63.066495375,63.64604025,55.0,31.0
301,62.676885375000005,63.8505855,48.0,96.0
302,63.456105375,63.89604,64.0,106.0
303,63.456105375,64.092468375,67.0,104.0
304,63.845715375000005,64.1103255,60.0,89.0
305,64.235325375,64.78889625000001,63.0,99.0
306,64.235325375,64.790519625,67.0,101.0
307,64.235325375,64.818117,60.0,96.0
308,64.624935375,65.163895875,55.0,42.0
309,65.014545375,65.23694775,63.0,120.0
310,64.235325375,65.24344125,48.0,104.0
311,65.014545375,65.309999625,60.0,104.0
312,65.014545375,65.40253200000001,67.0,106.0
313,65.793765375,65.9934405,59.0,91.0
314,65.793765375,66.225583125,62.0,101.0
315,65.793765375,66.251557125,67.0,99.0
316,66.183375375,66.439868625,59.0,82.0
317,66.572985375,67.19798475,62.0,112.0
318,66.572985375,67.215841875,67.0,101.0
319,66.962595375,67.245062625,59.0,85.0
320,65.793765375,67.540516875,43.0,104.0
321,67.352205375,67.540516875,43.0,109.0
322,67.352205375,67.62655575000001,62.0,104.0
323,67.352205375,67.64603625,67.0,104.0
324,67.741815375,68.54213925,62.0,101.0
325,67.741815375,68.58434700000001,42.0,101.0
326,67.741815375,68.805126,66.0,101.0
327,68.910645375,69.186619125,64.0,91.0
328,68.910645375,69.48369675000001,67.0,91.0
329,68.910645375,69.485320125,71.0,94.0
330,69.300255375,69.563242125,64.0,99.0
331,69.689865375,69.933371625,64.0,109.0
332,69.689865375,70.25642325,67.0,109.0
333,69.689865375,70.264540125,71.0,96.0
334,70.079475375,70.371682875,64.0,87.0
335,70.469085375,70.670383875,64.0,104.0
336,70.469085375,71.043760125,71.0,99.0
337,70.469085375,71.05512375,67.0,104.0
338,70.858695375,71.06811075,64.0,67.0
339,68.910645375,71.29538325,40.0,101.0
340,71.248305375,71.4090195,64.0,109.0
341,71.248305375,71.55512325000001,67.0,106.0
342,72.027525375,72.24992775,59.0,94.0
343,72.027525375,72.480447,66.0,91.0
344,72.027525375,72.50317425,62.0,99.0
345,72.417135375,72.610317,59.0,85.0
346,71.248305375,72.670381875,71.0,99.0
347,72.806745375,72.91226475,71.0,87.0
348,72.806745375,73.011290625,59.0,104.0
349,72.806745375,73.29538125,66.0,101.0
350,72.806745375,73.33434225,62.0,109.0
351,73.196355375,73.36680975,59.0,54.0
352,73.585965375,74.173627125,62.0,106.0
353,73.585965375,74.181744,59.0,104.0
354,73.585965375,74.24343225,66.0,101.0
355,74.365185375,74.550250125,66.0,101.0
356,74.365185375,74.556743625,62.0,104.0
357,73.975575375,74.563237125,54.0,49.0
358,72.027525375,74.5778475,47.0,87.0
359,74.365185375,74.5778475,47.0,101.0
360,74.365185375,74.60706825,59.0,96.0
361,74.754795375,75.228820875,60.0,106.0
362,74.754795375,75.355444125,45.0,109.0
363,74.754795375,75.376548,57.0,106.0
364,74.754795375,75.7726515,64.0,106.0
365,75.923625375,76.1103135,59.0,106.0
366,75.923625375,76.14602775,62.0,104.0
367,75.923625375,76.18336537500001,55.0,104.0
368,75.923625375,76.2012225,43.0,109.0
369,76.313235375,77.0323905,57.0,106.0
370,76.313235375,77.0713515,53.0,106.0
371,76.313235375,77.157390375,60.0,104.0
372,77.092455375,77.58271462500001,48.0,46.0
373,77.482065375,77.6038185,53.0,106.0
374,76.313235375,77.81323387500001,41.0,109.0
375,77.482065375,78.19148025,57.0,118.0
376,77.871675375,78.21745425,53.0,109.0
377,77.482065375,78.21745425,60.0,109.0
378,77.482065375,78.261285375,65.0,104.0
379,78.261285375,78.70122,64.0,106.0
380,78.261285375,78.728817375,60.0,104.0
381,78.261285375,78.73693425,67.0,106.0
382,78.650895375,78.842453625,55.0,62.0
383,78.261285375,78.87979125,48.0,106.0
384,79.040505375,79.189855875,64.0,99.0
385,79.040505375,79.194726,67.0,99.0
386,79.040505375,79.206089625,60.0,99.0
387,79.819725375,79.897647375,38.0,106.0
388,79.819725375,80.115179625,57.0,112.0
389,79.819725375,80.13141337500001,62.0,109.0
390,79.819725375,80.233686,66.0,113.0
391,80.404140375,80.611932375,54.0,86.0
392,80.209335375,80.97719175,50.0,101.0
393,80.598945375,80.97719175,57.0,115.0
394,80.793750375,81.085957875,62.0,118.0
395,80.988555375,81.225568125,69.0,109.0
396,81.35381475,81.738554625,55.0,89.0
397,81.34732125000001,81.82134675,62.0,98.0
398,81.345697875,81.83595712500001,71.0,100.0
399,81.352191375,81.844074,67.0,93.0
400,82.137904875,82.376541,62.0,92.0
401,82.13303475000001,82.43011237500001,71.0,101.0
402,82.131411375,82.4869305,67.0,95.0
403,81.956086875,82.582709625,55.0,61.0
404,82.517774625,82.595696625,62.0,57.0
405,82.514527875,82.595696625,69.0,69.0
406,82.712579625,83.12654025,62.0,77.0
407,82.71907312500001,83.13952725,71.0,100.0
408,82.712579625,83.14602075,67.0,93.0
409,83.118423375,83.384656875,55.0,87.0
410,83.31322837500001,83.534007375,62.0,99.0
411,83.31322837500001,83.553487875,69.0,102.0
412,81.3570615,83.71744875,43.0,89.0
413,83.508033375,83.9674485,55.0,84.0
414,83.89277325,84.030760125,43.0,107.0
415,83.69634487500001,84.043747125,67.0,115.0
416,83.701215,84.07459125,62.0,108.0
417,84.092448375,84.238552125,66.0,97.0
418,84.488551875,84.92361637500001,50.0,93.0
419,84.49017525000001,84.985304625,62.0,97.0
420,84.493422,84.988551375,66.0,89.0
421,84.493422,85.001538375,69.0,96.0
422,85.07459025,85.397641875,50.0,59.0
423,85.303486125,85.663875375,62.0,99.0
424,85.29536925000001,85.663875375,67.0,109.0
425,85.67036887500001,85.97069325,50.0,61.0
426,85.865173875,86.274264375,66.0,104.0
427,85.87004400000001,86.309978625,62.0,102.0
428,86.277511125,86.55510825,50.0,73.0
429,86.428485,86.754783375,64.0,115.0
430,84.493422,86.83432875,38.0,92.0
431,86.818095,87.141146625,66.0,118.0
432,87.0064065,87.23692575,38.0,109.0
433,86.654134125,87.248289375,50.0,78.0
434,87.215821875,87.34731525000001,67.0,116.0
435,87.611925375,88.092444375,59.0,88.0
436,87.611925375,88.102184625,62.0,91.0
437,87.6038085,88.103808,67.0,99.0
438,88.15250925000001,88.465820625,52.0,68.0
439,88.345690875,88.6038075,59.0,104.0
440,88.339197375,88.634651625,62.0,101.0
441,88.345690875,88.634651625,67.0,107.0
442,88.7206905,88.81484625,66.0,63.0
443,88.72393725,88.818093,59.0,48.0
444,88.741794375,88.818093,62.0,45.0
445,88.921989,89.313222375,59.0,91.0
446,88.921989,89.33432625,62.0,61.0
447,88.930105875,89.33432625,67.0,98.0
448,89.309975625,89.623287,52.0,92.0
449,89.5258845,89.766144,59.0,100.0
450,89.52263775,89.774260875,67.0,104.0
451,89.519391,89.77588425,62.0,98.0
452,87.611925375,89.871663375,40.0,87.0
453,89.92523475,90.219065625,62.0,88.0
454,90.1102995,90.2531565,40.0,108.0
455,89.6947155,90.26939025,52.0,106.0
456,89.91874125,90.3051045,66.0,104.0
457,89.92523475,90.35705250000001,59.0,107.0
458,90.313221375,90.4349745,64.0,111.0
459,90.727182,91.196337375,54.0,73.0
460,90.732052125,91.24990875,59.0,89.0
461,90.732052125,91.2531555,62.0,86.0
462,90.727182,91.264519125,66.0,86.0
463,91.277506125,91.660622625,54.0,69.0
464,91.519389,91.8765315,59.0,112.0
465,91.50964875,91.887895125,64.0,119.0
466,91.89763537500001,92.22393375,54.0,55.0
467,92.092440375,92.478803625,59.0,104.0
468,92.08919362500001,92.519388,62.0,107.0
469,92.46744,92.72230987500001,54.0,85.0
470,92.660621625,92.959322625,59.0,115.0
471,90.741792375,92.96419275,47.0,70.0
472,92.842439625,93.2791275,54.0,77.0
473,93.22230937500001,93.303478125,47.0,99.0
474,93.0453615,93.46906237500001,62.0,123.0
475,93.446335125,93.58107525,64.0,113.0
476,93.852178875,94.2921135,52.0,65.0
477,93.842438625,94.316464125,55.0,94.0
478,93.839191875,94.335944625,64.0,99.0
479,94.618411875,95.05996987500001,64.0,114.0
480,94.628152125,95.066463375,55.0,111.0
481,94.420360125,95.212567125,52.0,52.0
482,95.030749125,95.232047625,62.0,78.0
483,95.233671,95.6297745,55.0,107.0
484,95.238541125,95.649255,64.0,110.0
485,95.618410875,95.920358625,52.0,89.0
486,95.822956125,96.11516362500001,55.0,107.0
487,95.822956125,96.12003375,62.0,108.0
488,93.845685375,96.309968625,36.0,87.0
489,96.219059625,96.472306125,60.0,118.0
490,96.387890625,96.611916375,36.0,90.0
491,96.00964425000001,96.637890375,52.0,85.0
492,96.589189125,96.706072125,59.0,117.0
493,96.988539375,97.4999025,59.0,100.0
494,96.995032875,97.53237,62.0,99.0
495,97.715811375,98.095681125,59.0,115.0
496,97.70607112500001,98.1232785,62.0,115.0
497,97.5258765,98.540485875,50.0,72.0
498,98.285616,98.735290875,59.0,112.0
499,98.65574550000001,98.962563375,50.0,68.0
500,98.868407625,99.1232775,57.0,118.0
501,96.988539375,99.3180825,43.0,89.0
502,99.24990075000001,99.56158875,57.0,117.0
503,99.417108375,99.818082,43.0,72.0
504,99.056719125,99.819705375,50.0,76.0
505,99.654121125,99.908991,59.0,116.0
506,100.06808175,100.550224125,52.0,83.0
507,100.06158825,100.605418875,57.0,103.0
508,100.069705125,100.61840587500001,60.0,90.0
509,100.831068,101.186587125,57.0,121.0
510,100.831068,101.19145725,60.0,117.0
511,101.23204162500001,101.326197375,59.0,73.0
512,100.0843155,101.459314125,45.0,76.0
513,101.42359987500001,101.831067,60.0,106.0
514,101.4219765,101.858664375,57.0,114.0
515,100.624899375,101.975547375,52.0,85.0
516,102.01613175,102.259638,59.0,117.0
517,101.79859950000001,102.384637875,45.0,79.0
518,102.384637875,102.637884375,60.0,122.0
519,102.19794975,102.751520625,52.0,113.0
520,102.56807925,102.8115855,45.0,108.0
521,102.77587125000001,102.92846850000001,64.0,123.0
522,103.2011955,103.5388575,57.0,83.0
523,103.194702,103.546974375,54.0,85.0
524,103.196325375,103.58918212500001,62.0,85.0
525,103.194702,103.62814312500001,50.0,76.0
526,103.796974125,104.17846725,50.0,102.0
527,104.348921625,104.973921,50.0,81.0
528,104.910609375,105.00801187500001,64.0,85.0
529,105.11353125000001,105.272622,66.0,77.0
530,105.28885575,105.38301150000001,67.0,90.0
531,103.181715,105.550219125,38.0,86.0
532,105.519375,105.71742675,69.0,114.0
533,105.706063125,105.7985955,38.0,104.0
534,105.329440125,105.7985955,50.0,105.0
535,105.686582625,105.86677725,66.0,84.0
536,105.87976425000001,106.11353025,67.0,93.0
537,106.07456925,106.2141795,69.0,100.0
538,106.322945625,106.74339975000001,55.0,77.0
539,106.322945625,106.800217875,62.0,86.0
540,106.322945625,106.80833475,59.0,82.0
541,106.311582,106.822945125,67.0,96.0
542,107.076191625,107.316451125,62.0,94.0
543,107.0713215,107.32132125,59.0,98.0
544,107.064828,107.33755500000001,67.0,103.0
545,107.467425,107.5908015,66.0,71.0
546,107.504762625,107.592424875,59.0,46.0
547,106.84891912500001,107.822944125,55.0,64.0
548,107.686580625,108.06807375,59.0,74.0
549,107.686580625,108.079437375,62.0,86.0
550,107.686580625,108.098917875,67.0,94.0
551,108.06158025,108.352164375,55.0,94.0
552,108.259632,108.49015125,59.0,103.0
553,108.259632,108.49664475,62.0,99.0
554,108.259632,108.51450187500001,67.0,105.0
555,106.311582,108.6427485,43.0,86.0
556,108.66709912500001,108.87002100000001,62.0,74.0
557,108.44794350000001,108.883008,55.0,79.0
558,108.816449625,108.93657937500001,43.0,106.0
559,108.6427485,108.952813125,59.0,108.0
560,108.637878375,108.96093,66.0,111.0
561,109.027488375,109.10865712500001,64.0,104.0
562,109.44469575000001,109.8505395,50.0,81.0
563,109.42521525000001,109.917097875,66.0,88.0
564,109.44469575000001,109.91872125,62.0,80.0
565,109.43657887500001,109.926838125,57.0,90.0
566,109.96417575,110.358655875,50.0,62.0
567,110.19144825000001,110.610279,57.0,115.0
568,110.186578125,110.62651275,62.0,114.0
569,110.556707625,111.0193695,50.0,76.0
570,110.764499625,111.264499125,62.0,99.0
571,111.154109625,111.480408,50.0,63.0
572,110.770993125,111.68820000000001,57.0,105.0
573,111.41871975000001,111.68820000000001,57.0,29.0
574,111.355408125,111.76936875,64.0,115.0
575,109.44469575000001,111.792096,38.0,82.0
576,111.748264875,112.11352425,66.0,112.0
577,111.913849125,112.173589125,38.0,86.0
578,111.530732625,112.19144625,50.0,107.0
579,112.155732,112.28235525000001,69.0,103.0
580,112.54858875000001,112.965796125,52.0,101.0
581,112.54858875000001,113.030731125,59.0,98.0
582,112.54858875000001,113.03722462500001,62.0,95.0
583,112.53560175,113.0583285,67.0,112.0
584,113.300211375,113.553457875,67.0,113.0
585,113.309951625,113.566444875,62.0,104.0
586,113.30670487500001,113.57618512500001,59.0,109.0
587,113.719042125,113.7856005,59.0,61.0
588,113.714172,113.82131475,66.0,84.0
589,113.751509625,113.8375485,62.0,46.0
590,113.089172625,113.973912,52.0,65.0
591,113.9154705,114.259626,59.0,90.0
592,113.90897700000001,114.29209350000001,62.0,92.0
593,113.90897700000001,114.296963625,67.0,118.0
594,112.550212125,114.571314,40.0,95.0
595,114.491768625,114.70443075,67.0,111.0
596,114.491768625,114.728781375,62.0,101.0
597,114.491768625,114.754755375,59.0,109.0
598,114.3050805,114.960924,52.0,103.0
599,114.891118875,115.102157625,59.0,106.0
600,114.895989,115.118391375,62.0,106.0
601,114.87813187500001,115.118391375,69.0,117.0
602,114.662223,115.298586,40.0,83.0
603,115.270988625,115.329430125,59.0,105.0
604,115.26124837500001,115.4479365,62.0,102.0
605,115.26124837500001,115.467417,71.0,118.0
606,115.415469,115.49988450000001,40.0,64.0
607,115.059949875,115.50962475,52.0,87.0
608,115.65248175,116.00800087500001,62.0,104.0
609,115.64598825,116.02910475,71.0,113.0
610,116.44144200000001,116.683324875,62.0,103.0
611,116.43007837500001,116.735272875,71.0,112.0
612,116.44144200000001,116.764493625,66.0,92.0
613,116.803454625,116.881376625,69.0,82.0
614,116.222286375,117.0842985,54.0,66.0
615,116.999883,117.376506,62.0,104.0
616,116.9933895,117.381376125,71.0,112.0
617,117.0063765,117.391116375,66.0,93.0
618,117.381376125,117.71741475,54.0,98.0
619,117.56806425,117.813193875,69.0,116.0
620,117.56806425,117.826180875,62.0,113.0
621,117.7726095,118.037219625,54.0,97.0
622,115.65897525,118.209297375,47.0,112.0
623,118.124881875,118.24988175,54.0,74.0
624,117.952804125,118.4089725,67.0,126.0
625,118.355401125,118.4479335,66.0,101.0
626,118.77910200000001,119.20929637500001,52.0,78.0
627,118.764491625,119.29533525000001,55.0,98.0
628,118.764491625,119.32130925,67.0,102.0
629,118.783972125,119.324556,60.0,66.0
630,119.55345187500001,119.819685375,55.0,115.0
631,119.55507525,119.83104900000001,60.0,103.0
632,119.550205125,119.8635165,67.0,120.0
633,119.94793200000001,120.030724125,66.0,64.0
634,119.96416575,120.03397087500001,55.0,54.0
635,119.99663325,120.07455525,60.0,39.0
636,119.31481575000001,120.235269375,52.0,72.0
637,120.14598375,120.53072362500001,55.0,84.0
638,120.1492305,120.54858075,67.0,108.0
639,120.144360375,120.55020412500001,60.0,86.0
640,120.53072362500001,120.832671375,52.0,96.0
641,120.728775375,120.995008875,55.0,110.0
642,120.728775375,121.01611275,67.0,113.0
643,120.728775375,121.02909975,60.0,100.0
644,118.764491625,121.12487887500001,36.0,85.0
645,121.142736,121.31643712500001,60.0,51.0
646,121.121632125,121.456047375,55.0,81.0
647,121.121632125,121.51124212500001,66.0,106.0
648,121.29533325,121.543709625,36.0,109.0
649,120.91221675,121.57455375,52.0,91.0
650,121.506372,121.636242,64.0,105.0
651,121.904098875,122.342410125,55.0,82.0
652,121.900852125,122.40247500000001,59.0,91.0
653,121.900852125,122.415462,62.0,90.0
654,121.89273525,122.426825625,67.0,98.0
655,122.654098125,122.923578375,67.0,119.0
656,122.66059162500001,122.92520175,62.0,104.0
657,122.66059162500001,122.9284485,59.0,110.0
658,123.038838,123.131370375,62.0,41.0
659,123.038838,123.13948725,66.0,72.0
660,123.03234450000001,123.14598075,59.0,64.0
661,122.441436,123.4219545,55.0,69.0
662,123.23526637500001,123.530720625,62.0,89.0
663,123.2401365,123.97065525000001,59.0,101.0
664,123.624876375,124.085914875,62.0,71.0
665,121.900852125,124.26773287500001,43.0,82.0
666,124.361888625,124.54533,43.0,81.0
667,124.20117450000001,124.558317,57.0,114.0
668,123.2401365,124.56805725000001,67.0,118.0
669,123.999876,124.572927375,55.0,98.0
670,124.5777975,124.774225875,59.0,104.0
671,124.99825162500001,125.949549375,57.0,101.0
672,125.00636850000001,126.00312075000001,60.0,96.0
673,126.193055625,126.4089645,57.0,120.0
674,126.37325025,126.498250125,59.0,118.0
675,125.00636850000001,126.605392875,52.0,82.0
676,126.582665625,126.86675625000001,60.0,121.0
677,125.001498375,127.131366375,45.0,87.0
678,126.978769125,127.181691,57.0,121.0
679,127.155717,127.5128595,60.0,122.0
680,126.774223875,127.608638625,52.0,108.0
681,127.361885625,127.6297425,45.0,114.0
682,127.543703625,127.86026175,64.0,123.0
683,128.180066625,131.17844025,57.0,94.0
684,128.193053625,131.21577787500001,60.0,88.0
685,128.18493675,131.228764875,63.0,76.0
686,128.19143025,131.233635,36.0,87.0
687,131.248245375,131.77584225,67.0,82.0
688,131.248245375,131.780712375,62.0,89.0
689,131.248245375,131.78233575000002,71.0,87.0
690,131.248245375,132.1881795,55.0,101.0
691,132.417075375,132.6427245,55.0,91.0
692,132.027465375,132.675192,62.0,101.0
693,132.027465375,132.689802375,67.0,101.0
694,132.027465375,132.689802375,71.0,91.0
695,132.806685375,133.322918625,62.0,94.0
696,132.806685375,133.332658875,67.0,94.0
697,132.806685375,133.337529,71.0,82.0
698,132.806685375,133.900840125,54.0,110.0
699,133.585905375,134.228761875,62.0,104.0
700,133.585905375,134.238502125,67.0,101.0
701,133.585905375,134.24337225,71.0,96.0
702,134.365125375,134.975514375,62.0,96.0
703,134.365125375,134.982007875,67.0,94.0
704,134.365125375,134.994994875,71.0,91.0
705,134.365125375,135.3050595,52.0,88.0
706,135.144345375,135.793695375,71.0,99.0
707,135.144345375,135.800188875,62.0,101.0
708,135.144345375,135.809929125,67.0,99.0
709,135.533955375,135.86350050000001,52.0,94.0
710,135.923565375,136.501486875,62.0,96.0
711,135.923565375,136.52421412500001,67.0,96.0
712,135.923565375,136.527460875,71.0,94.0
713,136.702785375,137.25635625,62.0,96.0
714,136.702785375,137.27421337500002,71.0,96.0
715,136.702785375,137.277460125,67.0,94.0
716,135.923565375,137.319667875,47.0,101.0
717,137.482005375,138.147589125,62.0,87.0
718,137.482005375,138.157329375,67.0,85.0
719,137.482005375,138.160576125,71.0,87.0
720,138.261225375,139.025835,71.0,94.0
721,138.261225375,139.0323285,62.0,104.0
722,138.261225375,139.03557525,67.0,99.0
723,137.482005375,139.066419375,48.0,91.0
724,139.040445375,139.673561625,62.0,85.0
725,139.040445375,139.675185,67.0,91.0
726,139.040445375,139.68492525,71.0,71.0
727,139.819665375,140.482002375,62.0,101.0
728,139.819665375,140.506353,67.0,104.0
729,139.819665375,140.507976375,71.0,96.0
730,139.040445375,140.52908025,47.0,80.0
731,140.598885375,141.220638,67.0,91.0
732,140.598885375,141.22226137500002,62.0,94.0
733,140.598885375,141.23037825,71.0,85.0
734,140.598885375,141.65894925,48.0,94.0
735,141.378105375,142.06641637500002,62.0,96.0
736,141.378105375,142.08265012500001,67.0,96.0
737,141.378105375,142.08265012500001,71.0,89.0
738,141.767715375,142.181676,48.0,87.0
739,142.168689,142.363494,57.0,110.0
740,142.183299375,142.381351125,33.0,99.0
741,142.168689,142.391091375,69.0,102.0
742,142.181676,142.407325125,45.0,99.0
743,142.176805875,142.42518225,66.0,86.0
744,142.17193575000002,142.475506875,62.0,96.0
745,142.53557175,142.667065125,35.0,100.0
746,142.53557175,142.667065125,59.0,97.0
747,142.52907825,142.69790925,47.0,104.0
748,142.53557175,142.702779375,62.0,92.0
749,142.52258475,142.712519625,71.0,101.0
750,142.91544150000001,143.24336325000002,74.0,108.0
751,142.92680512500002,143.280700875,69.0,96.0
752,142.910571375,143.300181375,62.0,108.0
753,142.91544150000001,143.30992162500002,66.0,98.0
754,142.91544150000001,143.33751900000001,50.0,104.0
755,142.917064875,143.34725925,38.0,102.0
756,143.6946615,144.118362375,62.0,100.0
757,143.69303812500002,144.124855875,59.0,103.0
758,143.696284875,144.137842875,67.0,106.0
759,143.702778375,144.58751775,55.0,102.0
760,143.706025125,144.907322625,43.0,100.0
761,144.4868685,144.9933615,71.0,99.0
762,144.488491875,145.038816,59.0,98.0
763,144.49660875,145.063166625,62.0,90.0
764,144.49660875,145.063166625,67.0,91.0
765,144.891088875,145.102127625,55.0,85.0
766,145.069660125,145.129725,43.0,76.0
767,145.27582875000002,145.7725815,69.0,89.0
768,145.28232225,145.77582825,62.0,78.0
769,145.2790755,145.779075,66.0,78.0
770,145.272582,145.783945125,57.0,100.0
771,145.27582875000002,146.19141225,54.0,101.0
772,146.06154225,146.345632875,57.0,108.0
773,146.06154225,146.407321125,69.0,100.0
774,146.06154225,146.410567875,62.0,94.0
775,146.06154225,146.41868475,66.0,90.0
776,146.43167175,146.576152125,54.0,74.0
777,145.285569,146.611866375,42.0,91.0
778,145.363491,146.611866375,42.0,30.0
779,146.82777525,147.2660865,52.0,92.0
780,146.82777525,147.36024225,59.0,99.0
781,146.82777525,147.376476,62.0,90.0
782,146.82777525,147.376476,67.0,91.0
783,146.82777525,147.376476,71.0,98.0
784,146.832645375,147.73686525,40.0,87.0
785,147.608618625,147.949527375,71.0,102.0
786,147.61348875000002,147.9673845,67.0,99.0
787,147.61348875000002,147.97063125,59.0,105.0
788,147.61348875000002,148.014462375,62.0,99.0
789,147.389463,148.027449375,52.0,64.0
790,147.97063125,148.043683125,40.0,76.0
791,148.376475,148.582643625,57.0,110.0
792,148.376475,148.608617625,69.0,102.0
793,148.376475,148.623228,33.0,102.0
794,148.376475,148.63946175,45.0,102.0
795,148.376475,148.641085125,62.0,96.0
796,148.376475,148.644331875,66.0,91.0
797,148.74335775,148.87322775,59.0,102.0
798,148.73037075,148.8764745,62.0,69.0
799,148.74335775,148.9154355,67.0,100.0
800,148.731994125,148.9154355,71.0,105.0
801,148.74335775,148.936539375,35.0,104.0
802,148.74335775,148.97712375,47.0,104.0
803,149.131344375,149.38621425,74.0,107.0
804,149.137837875,149.39920125,69.0,95.0
805,149.13459112500001,149.402448,62.0,106.0
806,149.1362145,149.428422,66.0,93.0
807,149.141084625,149.430045375,50.0,107.0
808,149.144331375,149.43491550000002,38.0,104.0
809,149.908941,150.368356125,55.0,93.0
810,149.908941,150.423550875,59.0,101.0
811,149.908941,150.430044375,62.0,96.0
812,149.908941,150.446278125,67.0,96.0
813,149.9024475,150.452771625,71.0,102.0
814,149.908941,150.865108875,43.0,95.0
815,150.699524625,151.051797,67.0,97.0
816,150.696277875,151.0972515,59.0,104.0
817,150.696277875,151.098874875,71.0,98.0
818,150.436537875,151.12647225,55.0,68.0
819,151.07290087500002,151.134589125,43.0,90.0
820,150.699524625,151.134589125,62.0,97.0
821,151.478744625,151.852120875,54.0,87.0
822,151.478744625,151.949523375,57.0,107.0
823,151.478744625,151.9543935,69.0,99.0
824,151.480368,151.962510375,66.0,87.0
825,151.480368,151.96413375,62.0,91.0
826,152.07452325,152.329393125,54.0,94.0
827,151.478744625,152.430042375,42.0,90.0
828,152.259588,152.519328,57.0,115.0
829,152.259588,152.61997725,69.0,103.0
830,152.264458125,152.637834375,66.0,95.0
831,152.407315125,152.641081125,54.0,76.0
832,152.264458125,152.66543175,62.0,94.0
833,152.618353875,152.779068,42.0,82.0
834,153.024197625,153.530690625,59.0,97.0
835,153.024197625,153.56802825,62.0,90.0
836,153.014457375,153.56802825,69.0,90.0
837,153.024197625,154.27094962500001,40.0,98.0
838,153.024197625,154.439780625,52.0,99.0
839,154.248222375,156.072895875,67.0,53.0
840,156.183285375,156.71088225,67.0,82.0
841,156.183285375,156.715752375,62.0,89.0
842,156.183285375,156.71737575,71.0,87.0
843,156.183285375,157.1232195,55.0,101.0
844,157.352115375,157.5777645,55.0,91.0
845,156.962505375,157.610232,62.0,101.0
846,156.962505375,157.62484237500001,67.0,101.0
847,156.962505375,157.62484237500001,71.0,91.0
848,157.74172537500002,158.25795862500001,62.0,94.0
849,157.74172537500002,158.267698875,67.0,94.0
850,157.74172537500002,158.272569,71.0,82.0
851,157.74172537500002,158.83588012500002,54.0,110.0
852,158.520945375,159.163801875,62.0,104.0
853,158.520945375,159.173542125,67.0,101.0
854,158.520945375,159.17841225,71.0,96.0
855,159.300165375,159.910554375,62.0,96.0
856,159.300165375,159.917047875,67.0,94.0
857,159.300165375,159.930034875,71.0,91.0
858,159.300165375,160.2400995,52.0,88.0
859,160.07938537500002,160.728735375,71.0,99.0
860,160.07938537500002,160.735228875,62.0,101.0
861,160.07938537500002,160.744969125,67.0,99.0
862,160.468995375,160.7985405,52.0,94.0
863,160.858605375,161.436526875,62.0,96.0
864,160.858605375,161.459254125,67.0,96.0
865,160.858605375,161.46250087500002,71.0,94.0
866,161.637825375,162.19139625,62.0,96.0
867,161.637825375,162.209253375,71.0,96.0
868,161.637825375,162.212500125,67.0,94.0
869,160.858605375,162.254707875,47.0,101.0
870,162.41704537500001,163.082629125,62.0,87.0
871,162.41704537500001,163.092369375,67.0,85.0
872,162.41704537500001,163.095616125,71.0,87.0
873,163.196265375,163.96087500000002,71.0,94.0
874,163.196265375,163.9673685,62.0,104.0
875,163.196265375,163.97061525,67.0,99.0
876,162.41704537500001,164.001459375,48.0,91.0
877,163.975485375,164.608601625,62.0,85.0
878,163.975485375,164.610225,67.0,91.0
879,163.975485375,164.61996525,71.0,71.0
880,164.75470537500001,165.417042375,62.0,101.0
881,164.75470537500001,165.441393,67.0,104.0
882,164.75470537500001,165.443016375,71.0,96.0
883,163.975485375,165.46412025,47.0,80.0
884,165.533925375,166.155678,67.0,91.0
885,165.533925375,166.157301375,62.0,94.0
886,165.533925375,166.16541825000002,71.0,85.0
887,165.533925375,166.59398925,48.0,94.0
888,166.313145375,167.001456375,62.0,96.0
889,166.313145375,167.017690125,67.0,96.0
890,166.313145375,167.017690125,71.0,89.0
891,166.702755375,167.116716,48.0,87.0
892,167.092365375,167.6297025,69.0,94.0
893,167.092365375,167.654053125,66.0,86.0
894,167.092365375,167.66541675,62.0,85.0
895,167.871585375,168.124831875,62.0,99.0
896,167.871585375,168.585870375,66.0,96.0
897,167.092365375,168.59398725,50.0,101.0
898,168.261195375,168.60048075,62.0,96.0
899,167.871585375,168.602104125,69.0,104.0
900,168.650805375,169.17840225,67.0,82.0
901,168.650805375,169.183272375,62.0,89.0
902,168.650805375,169.18489575,71.0,87.0
903,168.650805375,169.5907395,55.0,101.0
904,169.819635375,170.0452845,55.0,91.0
905,169.430025375,170.077752,62.0,101.0
906,169.430025375,170.092362375,67.0,101.0
907,169.430025375,170.092362375,71.0,91.0
908,170.209245375,170.725478625,62.0,94.0
909,170.209245375,170.73521887500002,67.0,94.0
910,170.209245375,170.740089,71.0,82.0
911,170.209245375,171.303400125,54.0,110.0
912,170.988465375,171.631321875,62.0,104.0
913,170.988465375,171.641062125,67.0,101.0
914,170.988465375,171.64593225000002,71.0,96.0
915,171.767685375,172.378074375,62.0,96.0
916,171.767685375,172.38456787500002,67.0,94.0
917,171.767685375,172.397554875,71.0,91.0
918,171.767685375,172.7076195,52.0,88.0
919,172.546905375,173.196255375,71.0,99.0
920,172.546905375,173.202748875,62.0,101.0
921,172.546905375,173.212489125,67.0,99.0
922,172.936515375,173.2660605,52.0,94.0
923,173.326125375,173.904046875,62.0,96.0
924,173.326125375,173.926774125,67.0,96.0
925,173.326125375,173.930020875,71.0,94.0
926,174.105345375,174.65891625,62.0,96.0
927,174.105345375,174.676773375,71.0,96.0
928,174.105345375,174.680020125,67.0,94.0
929,173.326125375,174.72222787500002,47.0,101.0
930,174.884565375,175.550149125,62.0,87.0
931,174.884565375,175.559889375,67.0,85.0
932,174.884565375,175.563136125,71.0,87.0
933,175.663785375,176.428395,71.0,94.0
934,175.663785375,176.4348885,62.0,104.0
935,175.663785375,176.43813525000002,67.0,99.0
936,174.884565375,176.468979375,48.0,91.0
937,176.443005375,177.076121625,62.0,85.0
938,176.443005375,177.077745,67.0,91.0
939,176.443005375,177.08748525000001,71.0,71.0
940,177.222225375,177.884562375,62.0,101.0
941,177.222225375,177.908913,67.0,104.0
942,177.222225375,177.910536375,71.0,96.0
943,176.443005375,177.93164025000002,47.0,80.0
944,178.001445375,178.623198,67.0,91.0
945,178.001445375,178.624821375,62.0,94.0
946,178.001445375,178.63293825,71.0,85.0
947,178.001445375,179.06150925,48.0,94.0
948,178.780665375,179.468976375,62.0,96.0
949,178.780665375,179.485210125,67.0,96.0
950,178.780665375,179.485210125,71.0,89.0
951,179.17027537500002,179.584236,48.0,87.0
952,179.559885375,180.09722250000002,69.0,94.0
953,179.559885375,180.121573125,66.0,86.0
954,179.559885375,180.13293675,62.0,85.0
955,180.339105375,180.592351875,62.0,99.0
956,180.339105375,181.053390375,66.0,96.0
957,179.559885375,181.06150725,50.0,101.0
958,180.728715375,181.06800075,62.0,96.0
959,180.339105375,181.069624125,69.0,104.0
960,181.15241625000002,181.504688625,52.0,57.0
961,181.134559125,181.56800025,64.0,72.0
962,181.11994875,181.58098725,67.0,84.0
963,181.129689,181.589104125,59.0,75.0
964,181.887805125,182.14592175,59.0,84.0
965,181.878064875,182.2011165,67.0,91.0
966,181.894298625,182.2400775,64.0,81.0
967,182.2530645,182.3309865,66.0,66.0
968,182.257934625,182.350467,59.0,54.0
969,182.465726625,182.861830125,59.0,64.0
970,182.472220125,182.8634535,62.0,83.0
971,182.465726625,182.887804125,67.0,92.0
972,181.131312375,183.11832337500002,40.0,69.0
973,183.053388375,183.2660505,59.0,94.0
974,183.064752,183.272544,62.0,74.0
975,183.053388375,183.283907625,66.0,85.0
976,182.858583375,183.51605025,52.0,90.0
977,183.45111525000002,183.654037125,62.0,90.0
978,183.45111525000002,183.670270875,59.0,92.0
979,183.446245125,183.67838775,67.0,101.0
980,183.22384275000002,183.780660375,40.0,70.0
981,183.608582625,183.78877725,52.0,77.0
982,183.822868125,183.917023875,59.0,63.0
983,183.8504655,183.92514075,62.0,61.0
984,183.8115045,183.973842,66.0,78.0
985,184.215724875,184.59397125,62.0,82.0
986,184.212478125,184.628062125,59.0,86.0
987,184.22871187500002,184.6296855,47.0,68.0
988,184.202737875,184.64591925,66.0,91.0
989,184.981957875,185.23033425,59.0,105.0
990,184.99007475,185.28228225,62.0,88.0
991,184.97871112500002,185.30013937500001,66.0,94.0
992,185.358580875,185.42838600000002,64.0,71.0
993,185.358580875,185.44461975000002,59.0,52.0
994,185.543645625,185.936502375,59.0,97.0
995,185.54851575,185.9673465,66.0,110.0
996,185.939749125,186.26117737500002,47.0,89.0
997,186.14429437500002,186.32773575000002,64.0,109.0
998,186.14429437500002,186.3309825,59.0,103.0
999,184.218971625,186.58747575,35.0,79.0
1000,186.52741087500002,186.77741062500002,66.0,114.0
1001,186.52741087500002,186.845592375,59.0,115.0
1002,186.688125,186.897540375,35.0,86.0
1003,186.3179955,186.94948837500002,47.0,113.0
1004,186.90565725,186.959228625,62.0,101.0
1005,187.300137375,187.75468237500002,64.0,90.0
1006,187.31637112500002,187.761175875,60.0,69.0
1007,187.313124375,187.779033,48.0,76.0
1008,187.303384125,187.779033,55.0,74.0
1009,187.8634485,188.17838325,48.0,71.0
1010,188.108578125,188.410525875,60.0,92.0
1011,188.095591125,188.41864275,67.0,112.0
1012,188.105331375,188.439746625,55.0,96.0
1013,188.475460875,188.55987637500002,48.0,69.0
1014,187.306630875,188.57124000000002,36.0,78.0
1015,188.696239875,189.03552525,60.0,76.0
1016,188.673512625,189.07448625,55.0,88.0
1017,188.663772375,189.272538,63.0,96.0
1018,189.27578475,189.611823375,55.0,91.0
1019,189.272538,189.64266750000002,63.0,89.0
1020,189.2920185,189.657277875,60.0,84.0
1021,189.066369375,189.74981025,48.0,84.0
1022,189.702732375,189.90565425,55.0,70.0
1023,189.73032975,189.91864125,60.0,65.0
1024,189.69299212500002,189.9543555,65.0,108.0
1025,189.05987587500002,190.155654,36.0,88.0
1026,189.87968025,190.2011085,48.0,114.0
1027,190.098835875,190.20922537500002,55.0,90.0
1028,190.12968,190.228705875,60.0,50.0
1029,190.079355375,190.233576,63.0,96.0
1030,190.494939375,190.955977875,55.0,97.0
1031,190.48682250000002,190.99656225,59.0,100.0
1032,190.485199125,191.02902975,62.0,101.0
1033,190.494939375,191.42513325000002,43.0,95.0
1034,191.246562,191.54201625000002,62.0,115.0
1035,191.244938625,191.6037045,67.0,121.0
1036,191.244938625,191.65889925,59.0,120.0
1037,191.615068125,191.718964125,43.0,86.0
1038,191.046886875,191.718964125,55.0,79.0
1039,192.020911875,192.141041625,43.0,108.0
1040,192.017665125,192.15240525000002,55.0,118.0
1041,192.017665125,192.168639,59.0,113.0
1042,192.0322755,192.17513250000002,62.0,101.0
1043,192.017665125,192.199483125,67.0,111.0
1044,192.410521875,193.089092625,66.0,105.0
1045,192.410521875,193.09396275,57.0,121.0
1046,192.415392,193.10045625,62.0,98.0
1047,192.415392,193.115066625,42.0,100.0
1048,192.410521875,193.118313375,54.0,108.0
1049,193.5647415,193.999806,59.0,77.0
1050,193.56311812500002,194.007922875,55.0,78.0
1051,193.56311812500002,194.017663125,64.0,84.0
1052,194.358571875,194.636169,55.0,96.0
1053,194.358571875,194.738441625,64.0,97.0
1054,194.365065375,194.80662337500002,59.0,89.0
1055,194.72383125000002,194.8244805,62.0,68.0
1056,193.57935187500001,194.991688125,52.0,72.0
1057,194.917012875,195.199480125,64.0,100.0
1058,194.92350637500002,195.274155375,59.0,77.0
1059,194.926753125,195.28227225,55.0,95.0
1060,193.57448175000002,195.56149275,40.0,81.0
1061,195.4998045,195.66538875,55.0,91.0
1062,195.485194125,195.675129,66.0,96.0
1063,195.501427875,195.683245875,59.0,87.0
1064,195.29525925000002,195.936492375,52.0,97.0
1065,195.882921,195.94460925,55.0,97.0
1066,195.882921,195.946232625,59.0,86.0
1067,195.8764275,196.01603775,67.0,110.0
1068,196.05499875,196.173505125,52.0,82.0
1069,195.65240175,196.18973887500002,40.0,73.0
1070,196.27253100000001,196.381297125,69.0,111.0
1071,196.660517625,197.150776875,47.0,66.0
1072,196.65077737500002,197.15564700000002,66.0,82.0
1073,196.65240075,197.157270375,62.0,84.0
1074,196.64590725,197.196231375,71.0,96.0
1075,197.436490875,197.891035875,69.0,101.0
1076,197.436490875,197.9283735,66.0,94.0
1077,197.436490875,197.975451375,62.0,103.0
1078,197.852074875,197.99655525,67.0,97.0
1079,197.4478545,198.163762875,47.0,88.0
1080,198.03876300000002,198.44947687500002,62.0,92.0
1081,198.043633125,198.478697625,69.0,107.0
1082,198.39915225000001,198.670255875,47.0,100.0
1083,198.602074125,198.80174925,62.0,106.0
1084,198.597204,198.8114895,71.0,111.0
1085,196.657270875,199.02739837500002,35.0,81.0
1086,199.147528125,199.277398125,35.0,78.0
1087,198.99006075,199.296878625,62.0,111.0
1088,198.77577525,199.324476,47.0,74.0
1089,198.99006075,199.345579875,69.0,115.0
1090,199.38616425,199.439735625,67.0,94.0
1091,199.790384625,200.251423125,64.0,84.0
1092,199.7855145,200.27090362500002,60.0,83.0
1093,199.780644375,200.290384125,67.0,92.0
1094,199.7855145,200.675124,48.0,89.0
1095,200.5257735,200.9023965,64.0,109.0
1096,200.5257735,200.913760125,60.0,109.0
1097,200.5257735,200.946227625,67.0,111.0
1098,201.124798875,201.40888950000002,60.0,112.0
1099,201.124798875,201.446227125,64.0,112.0
1100,201.118305375,201.452720625,69.0,115.0
1101,200.923500375,201.58096725000001,48.0,72.0
1102,201.52252575,201.939733125,64.0,88.0
1103,201.506292,201.9543435,60.0,64.0
1104,201.51603225,201.968953875,67.0,93.0
1105,199.790384625,202.181616,36.0,90.0
1106,202.111810875,202.429992375,64.0,114.0
1107,202.10694075,202.472200125,67.0,109.0
1108,202.10694075,202.48356375,60.0,116.0
1109,202.274148375,202.5647325,36.0,94.0
1110,201.92025262500002,202.60044675,48.0,112.0
1111,202.494927375,202.602070125,69.0,118.0
1112,202.90564125,203.39265375,62.0,119.0
1113,202.90564125,203.446225125,66.0,107.0
1114,202.90564125,203.45109525,69.0,119.0
1115,202.90564125,203.910510375,50.0,114.0
1116,203.67512100000002,204.092328375,62.0,113.0
1117,203.67187425,204.10044525,69.0,118.0
1118,203.67512100000002,204.108562125,66.0,108.0
1119,204.108562125,204.54687337500002,50.0,72.0
1120,204.2920035,204.621548625,66.0,102.0
1121,204.287133375,204.621548625,71.0,119.0
1122,204.287133375,204.644275875,62.0,119.0
1123,204.878041875,205.103691,72.0,120.0
1124,204.878041875,205.128041625,66.0,105.0
1125,204.878041875,205.131288375,62.0,120.0
1126,204.67999012500002,205.35369075,50.0,103.0
1127,205.244924625,205.49005425000001,62.0,115.0
1128,205.244924625,205.50953475,74.0,126.0
1129,205.244924625,205.51278150000002,66.0,111.0
1130,202.90564125,205.683235875,38.0,112.0
1131,205.63940475,205.813105875,62.0,127.0
1132,205.644274875,205.830963,66.0,107.0
1133,205.644274875,205.84719675,72.0,121.0
1134,205.429989375,205.90563825,50.0,100.0
1135,206.0322615,206.270897625,62.0,92.0
1136,206.027391375,206.324469,71.0,101.0
1137,206.025768,206.381287125,67.0,95.0
1138,206.030638125,206.93972812500002,55.0,105.0
1139,206.6296635,206.93972812500002,55.0,61.0
1140,206.030638125,206.96407875,43.0,109.0
1141,206.8114815,207.050117625,62.0,92.0
1142,206.80661137500002,207.103689,71.0,101.0
1143,206.804988,207.160507125,67.0,95.0
1144,207.19135125,207.26927325,62.0,57.0
1145,207.1881045,207.26927325,69.0,69.0
1146,207.38615625,207.80011687500001,62.0,77.0
1147,207.39264975,207.813103875,71.0,100.0
1148,207.38615625,207.819597375,67.0,93.0
1149,207.792,208.0582335,55.0,87.0
1150,207.986805,208.207584,62.0,99.0
1151,207.986805,208.2270645,69.0,102.0
1152,208.18161,208.641025125,55.0,84.0
1153,208.56634987500001,208.70433675,43.0,107.0
1154,208.3699215,208.71732375,67.0,115.0
1155,208.374791625,208.748167875,62.0,108.0
1156,208.766025,208.91212875,66.0,97.0
1157,209.1621285,209.597193,50.0,93.0
1158,209.163751875,209.65888125,62.0,97.0
1159,209.166998625,209.662128,66.0,89.0
1160,209.166998625,209.675115,69.0,96.0
1161,209.748166875,210.07121850000001,50.0,59.0
1162,209.97706275000002,210.337452,62.0,99.0
1163,209.968945875,210.337452,67.0,109.0
1164,210.34394550000002,210.644269875,50.0,61.0
1165,210.5387505,210.947841,66.0,104.0
1166,210.54362062500002,210.98355525,62.0,102.0
1167,210.95108775,211.228684875,50.0,73.0
1168,211.102061625,211.42836,64.0,115.0
1169,209.166998625,211.507905375,38.0,92.0
1170,211.491671625,211.81472325000001,64.0,118.0
1171,211.679983125,211.910502375,38.0,109.0
1172,211.32771075,211.921866,50.0,78.0
1173,211.87965825,212.011151625,66.0,116.0
1174,212.285502,212.766021,59.0,88.0
1175,212.285502,212.77576125000002,62.0,91.0
1176,212.277385125,212.777384625,67.0,99.0
1177,212.82608587500002,213.13939725,52.0,68.0
1178,213.0192675,213.277384125,59.0,104.0
1179,213.012774,213.30822825,62.0,101.0
1180,213.0192675,213.30822825,67.0,107.0
1181,213.394267125,213.488422875,66.0,63.0
1182,213.39751387500002,213.49166962500001,59.0,48.0
1183,213.415371,213.49166962500001,62.0,45.0
1184,213.595565625,213.986799,59.0,91.0
1185,213.595565625,214.007902875,62.0,61.0
1186,213.6036825,214.007902875,67.0,98.0
1187,213.98355225,214.29686362500001,52.0,92.0
1188,214.199461125,214.439720625,59.0,100.0
1189,214.196214375,214.4478375,67.0,104.0
1190,214.194591,214.449460875,62.0,98.0
1191,212.285502,214.54524,40.0,87.0
1192,214.598811375,214.89264225,62.0,88.0
1193,214.783876125,214.926733125,40.0,108.0
1194,214.368292125,214.942966875,52.0,106.0
1195,214.592317875,214.978681125,66.0,104.0
1196,214.598811375,215.03062912500002,59.0,107.0
1197,214.986798,215.108551125,64.0,111.0
1198,215.400758625,215.869914,54.0,73.0
1199,215.40562875,215.923485375,59.0,89.0
1200,215.40562875,215.926732125,62.0,86.0
1201,215.400758625,215.93809575,66.0,86.0
1202,215.95108275,216.33419925,54.0,69.0
1203,216.192965625,216.550108125,59.0,112.0
1204,216.183225375,216.56147175,64.0,119.0
1205,216.571212,216.897510375,54.0,55.0
1206,216.766017,217.15238025,59.0,104.0
1207,216.76277025000002,217.192964625,62.0,107.0
1208,217.141016625,217.39588650000002,54.0,85.0
1209,217.33419825000001,217.63289925,59.0,115.0
1210,215.415369,217.637769375,47.0,70.0
1211,217.51601625,217.952704125,54.0,77.0
1212,217.89588600000002,217.97705475,47.0,99.0
1213,217.718938125,218.142639,62.0,123.0
1214,218.11991175,218.254651875,64.0,113.0
1215,218.5257555,218.965690125,52.0,65.0
1216,218.51601525,218.99004075,55.0,94.0
1217,218.5127685,219.00952125,64.0,99.0
1218,219.2919885,219.73354650000002,64.0,114.0
1219,219.30172875,219.74004,55.0,111.0
1220,219.09393675,219.88614375,52.0,52.0
1221,219.70432575,219.90562425000002,62.0,78.0
1222,219.907247625,220.303351125,55.0,107.0
1223,219.91211775,220.322831625,64.0,110.0
1224,220.2919875,220.59393525000002,52.0,89.0
1225,220.49653275,220.78874025000002,55.0,107.0
1226,220.49653275,220.79361037500001,62.0,108.0
1227,218.519262,220.98354525,36.0,87.0
1228,220.89263625,221.14588275,60.0,118.0
1229,221.06146725,221.285493,36.0,90.0
1230,220.68322087500002,221.311467,52.0,85.0
1231,221.26276575,221.37964875,59.0,117.0
1232,221.662116,222.173479125,59.0,100.0
1233,221.6686095,222.205946625,62.0,99.0
1234,222.389388,222.76925775,59.0,115.0
1235,222.37964775,222.796855125,62.0,115.0
1236,222.199453125,223.2140625,50.0,72.0
1237,222.95919262500001,223.4088675,59.0,112.0
1238,223.329322125,223.63614,50.0,68.0
1239,223.57445175,223.829321625,57.0,118.0
1240,221.662116,223.991659125,43.0,89.0
1241,223.955944875,224.267632875,57.0,117.0
1242,224.090685,224.491658625,43.0,72.0
1243,223.73029575,224.493282,50.0,76.0
1244,224.36016525,224.615035125,59.0,116.0
1245,224.74165837500001,225.22380075,52.0,83.0
1246,224.735164875,225.2789955,57.0,103.0
1247,224.74328175,225.29198250000002,60.0,90.0
1248,225.504644625,225.86016375,57.0,121.0
1249,225.504644625,225.865033875,60.0,117.0
1250,225.90561825,225.999774,59.0,73.0
1251,224.757892125,226.13289075,45.0,76.0
1252,226.09717650000002,226.504643625,60.0,106.0
1253,226.095553125,226.532241,57.0,114.0
1254,225.298476,226.649124,52.0,85.0
1255,226.689708375,226.933214625,59.0,117.0
1256,226.472176125,227.0582145,45.0,79.0
1257,227.0582145,227.311461,60.0,122.0
1258,226.871526375,227.42509725,52.0,113.0
1259,227.241655875,227.48516212500002,45.0,108.0
1260,227.449447875,227.60204512500002,64.0,123.0
1261,227.874772125,228.21243412500002,57.0,83.0
1262,227.86827862500002,228.220551,54.0,85.0
1263,227.869902,228.26275875000002,62.0,85.0
1264,227.86827862500002,228.30171975000002,50.0,76.0
1265,228.47055075,228.852043875,50.0,102.0
1266,229.02249825,229.647497625,50.0,81.0
1267,229.58418600000002,229.6815885,64.0,85.0
1268,229.787107875,229.946198625,66.0,77.0
1269,229.962432375,230.05658812500002,67.0,90.0
1270,227.855291625,230.22379575,38.0,86.0
1271,230.168601,230.391003375,69.0,114.0
1272,230.37963975,230.47217212500001,38.0,104.0
1273,230.00301675,230.47217212500001,50.0,105.0
1274,230.36015925,230.540353875,66.0,84.0
1275,230.553340875,230.787106875,67.0,93.0
1276,230.748145875,230.887756125,69.0,100.0
1277,230.99652225,231.41697637500002,55.0,77.0
1278,230.99652225,231.4737945,62.0,86.0
1279,230.99652225,231.48353475000002,59.0,82.0
1280,230.985158625,231.498145125,67.0,96.0
1281,231.74976825000002,231.99002775,62.0,94.0
1282,231.744898125,231.994897875,59.0,98.0
1283,231.73840462500002,232.01113162500002,67.0,103.0
1284,232.141001625,232.264378125,66.0,71.0
1285,232.17833925,232.26600150000002,59.0,46.0
1286,231.52249575000002,232.49652075,55.0,64.0
1287,232.36015725000001,232.741650375,59.0,74.0
1288,232.36015725000001,232.753014,62.0,86.0
1289,232.36015725000001,232.7724945,67.0,94.0
1290,232.735156875,233.025741,55.0,94.0
1291,232.933208625,233.163727875,59.0,103.0
1292,232.933208625,233.170221375,62.0,99.0
1293,232.933208625,233.18807850000002,67.0,105.0
1294,230.985158625,233.316325125,43.0,86.0
1295,233.342299125,233.54359762500002,62.0,74.0
1296,233.12152012500002,233.556584625,55.0,79.0
1297,233.49002625,233.61015600000002,43.0,106.0
1298,233.316325125,233.62638975000002,59.0,108.0
1299,233.311455,233.634506625,66.0,111.0
1300,233.701065,233.78223375000002,64.0,104.0
1301,234.118272375,234.524116125,50.0,81.0
1302,234.09879187500002,234.5906745,66.0,88.0
1303,234.118272375,234.592297875,62.0,80.0
1304,234.11015550000002,234.60041475,57.0,90.0
1305,234.637752375,235.0322325,50.0,62.0
1306,234.86502487500002,235.283855625,57.0,115.0
1307,234.86015475,235.300089375,62.0,114.0
1308,235.23028425,235.692946125,50.0,76.0
1309,235.43807625,235.93807575,62.0,99.0
1310,235.82768625,236.153984625,50.0,63.0
1311,235.44456975,236.361776625,57.0,105.0
1312,236.09229637500002,236.361776625,57.0,29.0
1313,236.02898475,236.442945375,64.0,115.0
1314,234.118272375,236.465672625,38.0,82.0
1315,236.4218415,236.787100875,66.0,112.0
1316,236.58742575,236.84716575000002,38.0,86.0
1317,236.20430925,236.865022875,50.0,107.0
1318,236.829308625,236.955931875,69.0,103.0
1319,237.222165375,237.63937275,52.0,101.0
1320,237.222165375,237.70430775,59.0,98.0
1321,237.222165375,237.71080125,62.0,95.0
1322,237.209178375,237.731905125,67.0,112.0
1323,237.973788,238.2270345,67.0,113.0
1324,237.98352825,238.2400215,62.0,104.0
1325,237.98028150000002,238.24976175,59.0,109.0
1326,238.39261875,238.459177125,59.0,61.0
1327,238.387748625,238.494891375,66.0,84.0
1328,238.42508625,238.511125125,62.0,46.0
1329,237.76274925,238.647488625,52.0,65.0
1330,238.589047125,238.933202625,59.0,90.0
1331,238.582553625,238.965670125,62.0,92.0
1332,238.582553625,238.97054025,67.0,118.0
1333,237.22378875,239.244890625,40.0,95.0
1334,239.16534525,239.378007375,67.0,111.0
1335,239.16534525,239.402358,62.0,101.0
1336,239.16534525,239.428332,59.0,109.0
1337,238.978657125,239.63450062500002,52.0,103.0
1338,239.5646955,239.77573425,59.0,106.0
1339,239.569565625,239.791968,62.0,106.0
1340,239.55170850000002,239.791968,69.0,117.0
1341,239.335799625,239.972162625,40.0,83.0
1342,239.94456525,240.00300675,59.0,105.0
1343,239.93482500000002,240.121513125,62.0,102.0
1344,239.93482500000002,240.140993625,71.0,118.0
1345,240.089045625,240.17346112500002,40.0,64.0
1346,239.7335265,240.183201375,52.0,87.0
1347,240.326058375,240.6815775,62.0,104.0
1348,240.319564875,240.702681375,71.0,113.0
1349,241.115018625,241.3569015,62.0,103.0
1350,241.103655,241.4088495,71.0,112.0
1351,241.115018625,241.43807025,66.0,92.0
1352,241.47703125,241.55495325,69.0,82.0
1353,240.895863,241.757875125,54.0,66.0
1354,241.673459625,242.05008262500002,62.0,104.0
1355,241.66696612500002,242.05495275,71.0,112.0
1356,241.679953125,242.064693,66.0,93.0
1357,242.05495275,242.390991375,54.0,98.0
1358,242.241640875,242.4867705,69.0,116.0
1359,242.241640875,242.49975750000002,62.0,113.0
1360,242.446186125,242.71079625000002,54.0,97.0
1361,240.332551875,242.88287400000002,47.0,112.0
1362,242.7984585,242.923458375,54.0,74.0
1363,242.62638075,243.082549125,67.0,126.0
1364,243.02897775,243.12151012500001,66.0,101.0
1365,243.452678625,243.88287300000002,52.0,78.0
1366,243.43806825000001,243.968911875,55.0,98.0
1367,243.43806825000001,243.994885875,67.0,102.0
1368,243.45754875,243.998132625,60.0,66.0
1369,244.22702850000002,244.49326200000002,55.0,115.0
1370,244.228651875,244.50462562500002,60.0,103.0
1371,244.22378175,244.537093125,67.0,120.0
1372,244.62150862500002,244.70430075000002,66.0,64.0
1373,244.63774237500002,244.7075475,55.0,54.0
1374,244.670209875,244.748131875,60.0,39.0
1375,243.98839237500002,244.908846,52.0,72.0
1376,244.819560375,245.20430025000002,55.0,84.0
1377,244.822807125,245.222157375,67.0,108.0
1378,244.817937,245.22378075,60.0,86.0
1379,245.20430025000002,245.506248,52.0,96.0
1380,245.402352,245.6685855,55.0,110.0
1381,245.402352,245.689689375,67.0,113.0
1382,245.402352,245.702676375,60.0,100.0
1383,243.43806825000001,245.79845550000002,36.0,85.0
1384,245.816312625,245.99001375,60.0,51.0
1385,245.79520875,246.129624,55.0,81.0
1386,245.79520875,246.18481875,66.0,106.0
1387,245.968909875,246.21728625,36.0,109.0
1388,245.585793375,246.24813037500002,52.0,91.0
1389,246.179948625,246.309818625,64.0,105.0
1390,246.5776755,247.01598675,55.0,82.0
1391,246.57442875,247.07605162500002,59.0,91.0
1392,246.57442875,247.089038625,62.0,90.0
1393,246.566311875,247.10040225,67.0,98.0
1394,247.32767475,247.59715500000001,67.0,119.0
1395,247.33416825,247.598778375,62.0,104.0
1396,247.33416825,247.602025125,59.0,110.0
1397,247.712414625,247.813063875,66.0,72.0
1398,247.705921125,247.81955737500002,59.0,64.0
1399,247.740012,247.83092100000002,62.0,41.0
1400,247.115012625,248.095531125,55.0,69.0
1401,247.90884300000002,248.20429725,62.0,89.0
1402,247.91371312500002,248.644231875,59.0,101.0
1403,248.298453,248.7594915,62.0,71.0
1404,246.57442875,248.94130950000002,43.0,82.0
1405,249.03546525000002,249.21890662500002,43.0,81.0
1406,247.91371312500002,249.24163387500002,67.0,118.0
1407,248.887738125,249.244880625,59.0,114.0
1408,248.673452625,249.24650400000002,55.0,98.0
1409,249.264361125,249.4607895,60.0,104.0
1410,249.67182825,250.623126,57.0,101.0
1411,249.67994512500002,250.676697375,60.0,96.0
1412,250.86663225,251.082541125,57.0,120.0
1413,251.046826875,251.17182675,59.0,118.0
1414,249.67994512500002,251.27896950000002,52.0,82.0
1415,251.25624225,251.54033287500002,60.0,121.0
1416,249.675075,251.804943,45.0,87.0
1417,251.65234575,251.855267625,57.0,121.0
1418,251.82929362500002,252.186436125,60.0,122.0
1419,251.4478005,252.28221525,52.0,108.0
1420,252.03546225,252.303319125,45.0,114.0
1421,252.21728025000002,252.53383837500002,64.0,123.0
1422,252.85364325,256.077666,57.0,94.0
1423,252.86663025000001,256.115003625,60.0,88.0
1424,252.858513375,256.127990625,63.0,76.0
1425,252.865006875,256.13286075,36.0,87.0
1426,255.920198625,256.4477955,67.0,82.0
1427,255.920198625,256.452665625,62.0,89.0
1428,255.920198625,256.454289,71.0,87.0
1429,255.920198625,256.86013275,55.0,101.0
1430,257.089028625,257.31467775,55.0,91.0
1431,256.699418625,257.34714525,62.0,101.0
1432,256.699418625,257.361755625,67.0,101.0
1433,256.699418625,257.361755625,71.0,91.0
1434,257.47863862500003,257.994871875,62.0,94.0
1435,257.47863862500003,258.004612125,67.0,94.0
1436,257.47863862500003,258.00948225,71.0,82.0
1437,257.47863862500003,258.572793375,54.0,110.0
1438,258.257858625,258.90071512500003,62.0,104.0
1439,258.257858625,258.910455375,67.0,101.0
1440,258.257858625,258.9153255,71.0,96.0
1441,259.037078625,259.647467625,62.0,96.0
1442,259.037078625,259.653961125,67.0,94.0
1443,259.037078625,259.66694812500003,71.0,91.0
1444,259.037078625,259.97701275000003,52.0,88.0
1445,259.816298625,260.46564862500003,71.0,99.0
1446,259.816298625,260.472142125,62.0,101.0
1447,259.816298625,260.481882375,67.0,99.0
1448,260.205908625,260.53545375,52.0,94.0
1449,260.595518625,261.173440125,62.0,96.0
1450,260.595518625,261.196167375,67.0,96.0
1451,260.595518625,261.19941412500003,71.0,94.0
1452,261.374738625,261.9283095,62.0,96.0
1453,261.374738625,261.946166625,71.0,96.0
1454,261.374738625,261.949413375,67.0,94.0
1455,260.595518625,261.991621125,47.0,101.0
1456,262.15395862500003,262.819542375,62.0,87.0
1457,262.15395862500003,262.829282625,67.0,85.0
1458,262.15395862500003,262.832529375,71.0,87.0
1459,262.933178625,263.69778825000003,71.0,94.0
1460,262.933178625,263.70428175,62.0,104.0
1461,262.933178625,263.7075285,67.0,99.0
1462,262.15395862500003,263.738372625,48.0,91.0
1463,263.712398625,264.345514875,62.0,85.0
1464,263.712398625,264.34713825,67.0,91.0
1465,263.712398625,264.3568785,71.0,71.0
1466,264.491618625,265.153955625,62.0,101.0
1467,264.491618625,265.17830625,67.0,104.0
1468,264.491618625,265.179929625,71.0,96.0
1469,263.712398625,265.2010335,47.0,80.0
1470,265.270838625,265.89259125,67.0,91.0
1471,265.270838625,265.894214625,62.0,94.0
1472,265.270838625,265.9023315,71.0,85.0
1473,265.270838625,266.3309025,48.0,94.0
1474,266.050058625,266.738369625,62.0,96.0
1475,266.050058625,266.754603375,67.0,96.0
1476,266.050058625,266.754603375,71.0,89.0
1477,266.439668625,266.85362925,48.0,87.0
1478,266.82927862500003,267.36661575,69.0,94.0
1479,266.82927862500003,267.390966375,66.0,86.0
1480,266.82927862500003,267.40233,62.0,85.0
1481,267.608498625,267.861745125,62.0,99.0
1482,267.608498625,268.322783625,66.0,96.0
1483,266.82927862500003,268.3309005,50.0,101.0
1484,267.998108625,268.337394,62.0,96.0
1485,267.608498625,268.339017375,69.0,104.0
1486,268.387718625,268.9153155,67.0,82.0
1487,268.387718625,268.920185625,62.0,89.0
1488,268.387718625,268.921809,71.0,87.0
1489,268.387718625,269.32765275,55.0,101.0
1490,269.556548625,269.78219775,55.0,91.0
1491,269.166938625,269.81466525,62.0,101.0
1492,269.166938625,269.829275625,67.0,101.0
1493,269.166938625,269.829275625,71.0,91.0
1494,269.946158625,270.462391875,62.0,94.0
1495,269.946158625,270.47213212500003,67.0,94.0
1496,269.946158625,270.47700225,71.0,82.0
1497,269.946158625,271.040313375,54.0,110.0
1498,270.725378625,271.368235125,62.0,104.0
1499,270.725378625,271.377975375,67.0,101.0
1500,270.725378625,271.38284550000003,71.0,96.0
1501,271.504598625,272.114987625,62.0,96.0
1502,271.504598625,272.121481125,67.0,94.0
1503,271.504598625,272.134468125,71.0,91.0
1504,271.504598625,272.44453275,52.0,88.0
1505,272.283818625,272.933168625,71.0,99.0
1506,272.283818625,272.939662125,62.0,101.0
1507,272.283818625,272.94940237500003,67.0,99.0
1508,272.673428625,273.00297375,52.0,94.0
1509,273.063038625,273.640960125,62.0,96.0
1510,273.063038625,273.663687375,67.0,96.0
1511,273.063038625,273.666934125,71.0,94.0
1512,273.842258625,274.3958295,62.0,96.0
1513,273.842258625,274.413686625,71.0,96.0
1514,273.842258625,274.416933375,67.0,94.0
1515,273.063038625,274.45914112500003,47.0,101.0
1516,274.621478625,275.287062375,62.0,87.0
1517,274.621478625,275.296802625,67.0,85.0
1518,274.621478625,275.300049375,71.0,87.0
1519,275.400698625,276.17388,71.0,94.0
1520,275.400698625,276.18054666666666,62.0,104.0
1521,275.400698625,276.18388,67.0,99.0
1522,274.621478625,276.2155466666667,48.0,91.0
1523,276.18888000000004,276.87024120833337,62.0,85.0
1524,276.18888000000004,276.8720017708333,67.0,91.0
1525,276.18888000000004,276.8825651458333,71.0,71.0
1526,277.02869183333337,277.74700133333334,62.0,101.0
1527,277.02869183333337,277.7734097708333,67.0,104.0
1528,277.02869183333337,277.77517033333334,71.0,96.0
1529,276.18888000000004,277.79805764583335,47.0,80.0
1530,277.87376183333333,278.5566010625,67.0,91.0
1531,277.87376183333333,278.55843929583335,62.0,94.0
1532,277.87376183333333,278.5676304625,71.0,85.0
1533,277.87376183333333,279.05292406250004,48.0,94.0
1534,278.7349096958334,279.5143206291667,62.0,96.0
1535,278.7349096958334,279.5327029625,67.0,96.0
1536,278.7349096958334,279.5327029625,71.0,89.0
1537,279.17608569583336,279.64483519583337,48.0,87.0
1538,279.61726169583335,280.2257169291667,69.0,94.0
1539,279.61726169583335,280.2532904291667,66.0,86.0
1540,279.61726169583335,280.26615806250004,62.0,85.0
1541,280.4996136958334,280.78637809583336,62.0,99.0
1542,280.4996136958334,281.3084363625,66.0,96.0
1543,279.61726169583335,281.3176275291667,50.0,101.0
1544,280.94078969583336,281.32498046250004,62.0,96.0
1545,280.4996136958334,281.32681869583337,69.0,104.0
1546,281.4003480291667,284.77166796250003,43.0,101.0
1547,281.7202006291667,285.96835786250006,50.0,67.0
1548,282.29005296250006,286.04188719583334,62.0,87.0
1549,281.9885826958334,286.05107836250005,55.0,61.0
1550,282.6356408291667,286.06394599583336,67.0,69.0
