,start,end,pitch,velocity
0,26.951457112499998,27.132339374999997,62.0,83.0
1,27.3043981125,27.4543980375,62.0,76.0
2,27.657339112499997,28.063221262499997,62.0,77.0
3,28.0102801125,28.33527995,64.0,75.0
4,28.3632211125,28.597044524999998,71.0,85.0
5,28.716162112499998,29.0132207875,71.0,75.0
6,29.0691031125,29.216161862499998,69.0,95.0
7,29.4220441125,29.6514557625,69.0,93.0
8,29.774985112499998,32.05292515,67.0,98.0
9,32.5985131125,33.1191010875,69.0,111.0
10,33.127924612499996,33.252924549999996,69.0,64.0
11,33.304395112499996,33.526453825,71.0,77.0
12,33.6573361125,33.93527715,71.0,87.0
13,34.0102771125,34.2485122875,69.0,87.0
14,34.3632181125,34.7249826375,67.0,87.0
15,34.7161591125,35.014688375,64.0,71.0
16,35.069100112499996,35.4073352375,67.0,93.0
17,35.4220411125,36.4455700125,62.0,87.0
18,38.2455691125,38.5293925,71.0,83.0
19,38.5985101125,38.744098275,74.0,74.0
20,38.951451112499996,39.127921612499996,74.0,100.0
21,39.3043921125,39.444097925,71.0,90.0
22,39.6573331125,40.2308622375,74.0,104.0
23,41.069097112499996,41.392626362499996,76.0,108.0
24,41.5985086125,41.773508525,74.0,86.0
25,41.7749791125,42.0470378,71.0,87.0
26,42.1279201125,42.244096524999996,69.0,87.0
27,42.4808611125,43.622037012499995,67.0,104.0
28,43.8926251125,44.286742562499995,69.0,90.0
29,44.4220366125,44.514683624999996,69.0,86.0
30,44.598507112499995,44.8279187625,69.0,100.0
31,44.951448112499996,45.285271474999995,67.0,83.0
32,45.3043891125,45.6690948125,69.0,87.0
33,45.6573301125,46.026447575,71.0,72.0
34,46.0102711125,46.344094475,67.0,83.0
35,46.3632121125,46.773506024999996,64.0,87.0
36,46.716153112499995,48.655858025,62.0,83.0
37,49.5396811125,49.720563375,62.0,83.0
38,49.8926221125,50.042622037499996,62.0,76.0
39,50.2455631125,50.6514452625,62.0,77.0
40,50.598504112499995,50.92350395,64.0,75.0
41,50.9514451125,51.185268525,71.0,85.0
42,51.3043861125,51.6014447875,71.0,75.0
43,51.6573271125,51.8043858625,71.0,95.0
44,52.0102681125,52.239679762499996,69.0,93.0
45,52.363209112499995,54.64114915,67.0,98.0
46,55.1867371125,55.707325087499996,69.0,111.0
47,55.7161486125,55.84114855,69.0,64.0
48,55.8926191125,56.114677824999994,71.0,77.0
49,56.245560112499994,56.523501149999994,71.0,87.0
50,56.598501112499996,56.836736287499996,69.0,87.0
51,56.9514421125,57.313206637499995,67.0,87.0
52,57.3043831125,57.602912374999995,64.0,71.0
53,57.6573241125,57.9955592375,67.0,93.0
54,58.0102651125,59.033794012499996,62.0,87.0
55,60.8337931125,61.1176165,71.0,83.0
56,61.1867341125,61.332322274999996,74.0,74.0
57,61.5396751125,61.7161456125,74.0,100.0
58,61.8926161125,62.032321925,71.0,90.0
59,62.245557112499995,62.819086237499995,74.0,104.0
60,63.6573211125,63.9808503625,76.0,108.0
61,64.1867326125,64.361732525,74.0,86.0
62,64.3632031125,64.6352618,71.0,87.0
63,64.7161441125,64.832320525,69.0,87.0
64,65.06908511249999,66.2102610125,67.0,104.0
65,66.4808491125,66.87496656249999,69.0,90.0
66,67.01026061249999,67.102907625,69.0,86.0
67,67.1867311125,67.4161427625,69.0,100.0
68,67.5396721125,67.873495475,67.0,83.0
69,67.8926131125,68.2573188125,69.0,87.0
70,68.2455541125,68.614671575,71.0,72.0
71,68.5984951125,68.92349494999999,76.0,79.0
72,68.95143611249999,69.2455536125,71.0,75.0
73,69.30437711249999,71.5573171625,74.0,112.0
74,72.1279051125,72.438199075,74.0,83.0
75,72.6573166125,72.7337871625,74.0,93.0
76,72.83378711249999,73.058787,74.0,95.0
77,73.18672811249999,73.3999633,71.0,86.0
78,73.5396691125,73.77055134999999,74.0,86.0
79,73.8926101125,74.09996294999999,76.0,79.0
80,74.2455511125,74.48819805,79.0,87.0
81,74.5984921125,74.79113907499999,78.0,67.0
82,74.9514331125,75.85437383749999,76.0,77.0
83,77.7749611125,78.0308433375,76.0,108.0
84,78.1279021125,78.3926078625,79.0,117.0
85,78.4808431125,78.75878415,76.0,95.0
86,78.8337841125,79.05437223749999,74.0,100.0
87,79.1867251125,79.5690778625,76.0,112.0
88,79.5396661125,79.6749601625,74.0,85.0
89,79.8926071125,80.14554816249999,74.0,93.0
90,80.2455481125,80.49554798749999,67.0,87.0
91,80.59848911249999,82.84113504999999,69.0,85.0
92,83.0690761125,83.3308406875,67.0,111.0
93,83.4220171125,83.6573111125,69.0,93.0
94,83.7749581125,83.89995805,69.0,69.0
95,84.12789911249999,84.2955460875,69.0,100.0
96,84.48084011249999,84.65289885,67.0,87.0
97,84.83378111249999,85.3131926375,69.0,108.0
98,86.2455451125,86.5749567125,76.0,111.0
99,86.77495661249999,86.9543682875,74.0,87.0
100,86.9514271125,87.149956425,71.0,104.0
101,87.3043681125,87.46466215,69.0,93.0
102,87.6573091125,88.71613211249999,67.0,111.0
103,89.06907311249999,89.37936707499999,69.0,100.0
104,89.5984846125,89.679366925,69.0,100.0
105,89.7749551125,89.90730798749999,69.0,112.0
106,90.1278961125,90.3411313,67.0,90.0
107,90.4808371125,90.6043664625,69.0,87.0
108,90.8337781125,90.92789571249999,71.0,90.0
109,91.1867191125,91.4484836875,79.0,117.0
110,91.5396601125,91.73524825,71.0,95.0
111,91.89260111249999,94.297011675,74.0,104.0
112,94.7161291125,95.026423075,74.0,83.0
113,95.2455406125,95.32201116249999,74.0,93.0
114,95.4220111125,95.64701099999999,74.0,95.0
115,95.77495211249999,95.98818729999999,71.0,86.0
116,96.12789311249999,96.35877535,74.0,86.0
117,96.48083411249999,96.68818695,76.0,79.0
118,96.83377511249999,97.07642204999999,79.0,87.0
119,97.1867161125,97.379363075,78.0,67.0
120,97.5396571125,98.9514211125,76.0,77.0
121,100.36318511249999,100.6190673375,76.0,108.0
122,100.71612611249999,100.9808318625,79.0,117.0
123,101.0690671125,101.34700815,76.0,95.0
124,101.4220081125,101.6425962375,74.0,100.0
125,101.7749491125,102.120537175,74.0,98.0
126,102.1278901125,102.4484781875,64.0,90.0
127,102.4808311125,102.95141911249999,74.0,90.0
128,103.1867131125,105.379359075,69.0,87.0
129,105.6573001125,105.9190646875,67.0,111.0
130,106.0102411125,106.2455351125,69.0,93.0
131,106.3631821125,106.48818204999999,69.0,69.0
132,106.7161231125,106.8837700875,69.0,100.0
133,107.0690641125,107.24112285,67.0,87.0
134,107.42200511249999,107.90141663749999,69.0,108.0
135,108.12788711249999,108.5161222125,69.0,98.0
136,108.48082811249999,108.8455338125,71.0,81.0
137,108.8337691125,109.2102395125,74.0,108.0
138,109.1867101125,109.3764159,71.0,74.0
139,109.5396511125,110.0190626375,74.0,117.0
140,110.2455331125,111.308767875,71.0,112.0
141,111.65729711249999,111.985238125,69.0,104.0
142,112.1867086125,112.26464974999999,69.0,93.0
143,112.36317911249999,112.49847316249999,69.0,111.0
144,112.7161201125,112.8896494375,67.0,104.0
145,113.0690611125,113.26023748749999,69.0,81.0
146,113.4220021125,113.57053144999999,71.0,81.0
147,113.7749431125,114.09847236249999,79.0,104.0
148,114.1278841125,114.5484721375,71.0,77.0
149,114.4808251125,116.59405935,74.0,74.0
150,116.9514121125,117.20582375,62.0,79.0
151,117.3043531125,117.673470575,71.0,98.0
152,117.83376461249999,118.120529175,69.0,104.0
153,118.3631761125,118.5425877875,64.0,100.0
154,118.7161171125,121.4455275125,67.0,112.0
155,144.12786911249998,144.30875137499999,62.0,83.0
156,144.4808101125,144.6308100375,62.0,76.0
157,144.83375111249998,145.2396332625,62.0,77.0
158,145.1866921125,145.51169195,64.0,75.0
159,145.53963311249998,145.773456525,71.0,85.0
160,145.8925741125,146.1896327875,71.0,75.0
161,146.2455151125,146.3925738625,71.0,95.0
162,146.5984561125,146.8278677625,69.0,93.0
163,146.9513971125,149.22933715,67.0,98.0
164,149.7749251125,150.29551308749998,69.0,111.0
165,150.30433661249998,150.42933655,69.0,64.0
166,150.4808071125,150.702865825,71.0,77.0
167,150.8337481125,151.11168915,71.0,87.0
168,151.1866891125,151.4249242875,69.0,87.0
169,151.5396301125,151.9013946375,67.0,87.0
170,151.89257111249998,152.191100375,64.0,71.0
171,152.2455121125,152.5837472375,67.0,93.0
172,152.59845311249998,153.62198201249998,62.0,87.0
173,155.4219811125,155.7058045,71.0,83.0
174,155.77492211249998,155.920510275,74.0,74.0
175,156.1278631125,156.3043336125,74.0,100.0
176,156.48080411249998,156.620509925,71.0,90.0
177,156.8337451125,157.4072742375,74.0,104.0
178,158.2455091125,158.56903836249998,76.0,108.0
179,158.77492061249998,158.94992052499998,74.0,86.0
180,158.9513911125,159.2234498,71.0,87.0
181,159.3043321125,159.420508525,69.0,87.0
182,159.65727311249998,160.7984490125,67.0,104.0
183,161.06903711249998,161.4631545625,69.0,90.0
184,161.5984486125,161.691095625,69.0,86.0
185,161.7749191125,162.0043307625,69.0,100.0
186,162.1278601125,162.461683475,67.0,83.0
187,162.4808011125,162.8455068125,69.0,87.0
188,162.8337421125,163.202859575,71.0,72.0
189,163.1866831125,163.51168295,76.0,79.0
190,163.53962411249998,163.8337416125,71.0,75.0
191,163.8925651125,166.1455051625,74.0,112.0
192,166.7160931125,167.026387075,74.0,83.0
193,167.24550461249999,167.3219751625,74.0,93.0
194,167.42197511249998,167.646975,74.0,95.0
195,167.7749161125,167.9881513,71.0,86.0
196,168.12785711249998,168.35873934999998,74.0,86.0
197,168.4807981125,168.68815095,76.0,79.0
198,168.83373911249998,169.07638605,79.0,87.0
199,169.1866801125,169.379327075,78.0,67.0
200,169.5396211125,170.4425618375,76.0,77.0
201,172.3631491125,172.6190313375,76.0,108.0
202,172.71609011249998,172.9807958625,79.0,117.0
203,173.0690311125,173.34697215,76.0,95.0
204,173.4219721125,173.6425602375,74.0,100.0
205,173.7749131125,174.1572658625,76.0,112.0
206,174.1278541125,174.2631481625,74.0,85.0
207,174.4807951125,174.73373616249998,74.0,93.0
208,174.8337361125,175.0837359875,67.0,87.0
209,175.18667711249998,177.42932305,69.0,85.0
210,177.6572641125,177.9190286875,67.0,111.0
211,178.0102051125,178.2454991125,69.0,93.0
212,178.3631461125,178.48814604999998,69.0,69.0
213,178.7160871125,178.8837340875,69.0,100.0
214,179.06902811249998,179.24108685,67.0,87.0
215,179.4219691125,179.90138063749998,69.0,108.0
216,180.8337331125,181.16314471249999,76.0,111.0
217,181.36314461249998,181.5425562875,74.0,87.0
218,181.5396151125,181.738144425,71.0,104.0
219,181.8925561125,182.05285014999998,69.0,93.0
220,182.2454971125,183.3043201125,67.0,111.0
221,183.65726111249998,183.96755507499998,69.0,100.0
222,184.1866726125,184.26755492499998,69.0,100.0
223,184.36314311249998,184.4954959875,69.0,112.0
224,184.7160841125,184.9293193,67.0,90.0
225,185.0690251125,185.1925544625,69.0,87.0
226,185.4219661125,185.5160837125,71.0,90.0
227,185.7749071125,186.0366716875,79.0,117.0
228,186.1278481125,186.32343625,71.0,95.0
229,186.4807891125,188.885199675,74.0,104.0
230,189.3043171125,189.614611075,74.0,83.0
231,189.83372861249998,189.9101991625,74.0,93.0
232,190.0101991125,190.235199,74.0,95.0
233,190.3631401125,190.5763753,71.0,86.0
234,190.71608111249998,190.94696335,74.0,86.0
235,191.0690221125,191.27637495,76.0,79.0
236,191.42196311249998,191.66461005,79.0,87.0
237,191.7749041125,191.967551075,78.0,67.0
238,192.12784511249998,193.5396091125,76.0,77.0
239,194.9513731125,195.2072553375,76.0,108.0
240,195.30431411249998,195.5690198625,79.0,117.0
241,195.6572551125,195.93519615,76.0,95.0
242,196.01019611249998,196.2307842375,74.0,100.0
243,196.3631371125,196.70872517499998,74.0,98.0
244,196.71607811249999,197.0366661875,64.0,90.0
245,197.0690191125,197.5396071125,74.0,90.0
246,197.7749011125,199.967547075,69.0,87.0
247,200.2454881125,200.5072526875,67.0,111.0
248,200.59842911249999,200.8337231125,69.0,93.0
249,200.9513701125,201.07637004999998,69.0,69.0
250,201.3043111125,201.47195808749998,69.0,100.0
251,201.6572521125,201.82931084999998,67.0,87.0
252,202.0101931125,202.48960463749998,69.0,108.0
253,202.7160751125,203.1043102125,69.0,98.0
254,203.06901611249998,203.43372181249998,71.0,81.0
255,203.4219571125,203.79842751249998,74.0,108.0
256,203.77489811249998,203.9646039,71.0,74.0
257,204.1278391125,204.6072506375,74.0,117.0
258,204.8337211125,205.896955875,71.0,112.0
259,206.24548511249998,206.573426125,69.0,104.0
260,206.7748966125,206.85283775,69.0,93.0
261,206.95136711249998,207.08666116249998,69.0,111.0
262,207.3043081125,207.4778374375,67.0,104.0
263,207.65724911249998,207.84842548749998,69.0,81.0
264,208.0101901125,208.15871944999998,71.0,81.0
265,208.36313111249999,208.6866603625,79.0,104.0
266,208.7160721125,209.1366601375,71.0,77.0
267,209.0690131125,211.18224734999998,74.0,74.0
268,211.53960011249998,211.79401174999998,62.0,79.0
269,211.8925411125,212.26165857499998,71.0,98.0
270,212.42195261249998,212.708717175,69.0,104.0
271,212.9513641125,213.1307757875,64.0,100.0
272,213.3043051125,214.71606911249998,67.0,112.0
273,214.71606911249998,215.02636307499998,74.0,83.0
274,215.2454806125,215.3219511625,74.0,93.0
275,215.42195111249998,215.646951,74.0,95.0
276,215.7748921125,215.9881273,71.0,86.0
277,216.12783311249999,216.35871534999998,74.0,86.0
278,216.4807741125,216.68812695,76.0,79.0
279,216.8337151125,217.07636205,79.0,87.0
280,217.1866561125,217.379303075,78.0,67.0
281,217.5395971125,218.4425378375,76.0,77.0
282,220.3631251125,220.6190073375,76.0,108.0
283,220.7160661125,220.98077186249998,79.0,117.0
284,221.0690071125,221.34694815,76.0,95.0
285,221.4219481125,221.6425362375,74.0,100.0
286,221.77488911249998,222.1572418625,76.0,112.0
287,222.1278301125,222.2631241625,74.0,85.0
288,222.48077111249998,222.73371216249998,74.0,93.0
289,222.8337121125,223.08371198749998,67.0,87.0
290,223.18665311249998,225.42929905,69.0,85.0
291,225.65724011249998,225.91900468749998,67.0,111.0
292,226.0101811125,226.2454751125,69.0,93.0
293,226.36312211249998,226.48812205,69.0,69.0
294,226.7160631125,226.8837100875,69.0,100.0
295,227.06900411249998,227.24106285,67.0,87.0
296,227.4219451125,227.9013566375,69.0,108.0
297,228.8337091125,229.1631207125,76.0,111.0
298,229.36312061249998,229.5425322875,74.0,87.0
299,229.53959111249998,229.73812042499998,71.0,104.0
300,229.8925321125,230.05282615,69.0,93.0
301,230.24547311249998,231.3042961125,67.0,111.0
302,231.65723711249998,231.96753107499998,69.0,100.0
303,232.1866486125,232.267530925,69.0,100.0
304,232.3631191125,232.4954719875,69.0,112.0
305,232.7160601125,232.92929529999998,67.0,90.0
306,233.0690011125,233.1925304625,69.0,87.0
307,233.42194211249998,233.51605971249998,71.0,90.0
308,233.7748831125,234.0366476875,79.0,117.0
309,234.12782411249998,234.32341225,71.0,95.0
310,234.4807651125,236.885175675,74.0,104.0
311,237.30429311249998,237.614587075,74.0,83.0
312,237.8337046125,237.9101751625,74.0,93.0
313,238.01017511249998,238.235175,74.0,95.0
314,238.3631161125,238.5763513,71.0,86.0
315,238.71605711249998,238.94693934999998,74.0,86.0
316,239.0689981125,239.27635095,76.0,79.0
317,239.42193911249998,239.66458605,79.0,87.0
318,239.7748801125,239.967527075,78.0,67.0
319,240.1278211125,241.5395851125,76.0,77.0
320,242.9513491125,243.2072313375,76.0,108.0
321,243.30429011249998,243.56899586249997,79.0,117.0
322,243.6572311125,243.93517215,76.0,95.0
323,244.0101721125,244.2307602375,74.0,100.0
324,244.3631131125,244.708701175,74.0,98.0
325,244.7160541125,245.03664218749998,64.0,90.0
326,245.06899511249998,245.5395831125,74.0,90.0
327,245.77487711249998,247.967523075,69.0,87.0
328,248.2454641125,248.50722868749997,67.0,111.0
329,248.5984051125,248.8336991125,69.0,93.0
330,248.95134611249998,249.07634604999998,69.0,69.0
331,249.3042871125,249.4719340875,69.0,100.0
332,249.65722811249998,249.82928685,67.0,87.0
333,250.0101691125,250.48958063749998,69.0,108.0
334,250.7160511125,251.1042862125,69.0,98.0
335,251.06899211249998,251.4336978125,71.0,81.0
336,251.4219331125,251.7984035125,74.0,108.0
337,251.7748741125,251.9645799,71.0,74.0
338,252.1278151125,252.6072266375,74.0,117.0
339,252.83369711249998,253.89693187499998,71.0,112.0
340,254.24546111249998,254.573402125,69.0,104.0
341,254.7748726125,254.85281375,69.0,93.0
342,254.95134311249998,255.08663716249998,69.0,111.0
343,255.3042841125,255.47781343749998,67.0,104.0
344,255.6572251125,255.84840148749998,69.0,81.0
345,256.0101661125,256.15869545,71.0,81.0
346,256.36310711249996,256.6866363625,79.0,104.0
347,256.7160481125,257.1366361375,71.0,77.0
348,257.0689891125,259.18222335,74.0,74.0
349,259.5395761125,259.79398775,62.0,79.0
350,259.8925171125,260.261634575,71.0,98.0
351,260.4219286125,260.708693175,69.0,104.0
352,260.95134011249996,261.1307517875,64.0,100.0
353,261.3042811125,262.7160451125,67.0,112.0
