,start,end,pitch,velocity
0,4.336762537499999,4.6249976875,55.0,59.0
1,4.332350775,4.708821175,59.0,59.0
2,4.332350775,4.708821175,67.0,63.0
3,4.3411743,4.720585874999999,62.0,52.0
4,5.0367621875,5.33529145,59.0,69.0
5,5.0367621875,5.3397032125,67.0,73.0
6,5.0308798375,5.347056149999999,62.0,69.0
7,5.4117619999999995,5.5764678,55.0,41.0
8,5.585291325,5.82940885,59.0,67.0
9,5.579408975,5.832350024999999,67.0,68.0
10,5.585291325,5.8455853125,62.0,69.0
11,5.9249970375,6.114702824999999,59.0,63.0
12,5.9176440999999995,6.1220557625,67.0,66.0
13,5.9249970375,6.126467525,62.0,77.0
14,6.102938125,6.4470556,55.0,69.0
15,4.3426448875,6.582349649999999,43.0,56.0
16,6.4426438374999995,6.7102907625,67.0,74.0
17,6.579408474999999,6.7161731125,55.0,40.0
18,6.45293795,6.7308789875,59.0,76.0
19,6.4544085375,6.7602907375,62.0,64.0
20,6.773526025,6.81764365,43.0,67.0
21,7.1367611375,7.5044080125,59.0,65.0
22,7.1426434875,7.5176433,64.0,63.0
23,7.148525837499999,7.520584475,55.0,64.0
24,7.1529376,7.935290149999999,52.0,55.0
25,7.86470195,8.18234885,55.0,58.0
26,7.86470195,8.186760612499999,59.0,64.0
27,7.854407837499999,8.1999959,64.0,63.0
28,8.3808781625,8.54705455,55.0,74.0
29,8.3808781625,8.557348662499999,64.0,69.0
30,8.3808781625,8.57058395,59.0,72.0
31,8.2132311875,8.6602897875,52.0,44.0
32,8.7249956375,8.836760287499999,55.0,62.0
33,8.713230937499999,8.8573485125,64.0,58.0
34,8.713230937499999,8.8632308625,59.0,44.0
35,8.877936737499999,9.22940715,52.0,55.0
36,9.2573483125,9.41176,59.0,56.0
37,9.2485247875,9.414701175,55.0,77.0
38,9.2367600875,9.4602893875,62.0,67.0
39,9.41176,9.4941129,52.0,61.0
40,9.607348137499999,9.6661716375,59.0,59.0
41,9.597054025,9.6808775125,55.0,68.0
42,9.602936374999999,9.714701025,64.0,64.0
43,7.145584662499999,9.7485245375,40.0,61.0
44,9.75881865,9.810289212499999,52.0,56.0
45,9.9882303,10.3632301125,52.0,53.0
46,9.9647009,10.377935987499999,57.0,67.0
47,9.969112662499999,10.3838183375,64.0,68.0
48,9.973524424999999,10.3926418625,60.0,63.0
49,10.673524075,10.9308768875,60.0,84.0
50,10.673524075,10.932347475,57.0,83.0
51,10.673524075,10.945582762499999,64.0,80.0
52,10.5073476875,11.219112037499999,52.0,47.0
53,11.191170875,11.5602883375,64.0,68.0
54,11.191170875,11.567641275,57.0,59.0
55,11.191170875,11.573523625,60.0,62.0
56,11.55881775,11.72352355,52.0,64.0
57,11.7308764875,11.808817625,64.0,68.0
58,11.726464725,11.8117588,60.0,50.0
59,11.720582375,11.8485234875,57.0,64.0
60,11.885288175,12.0573469125,52.0,58.0
61,12.0838174875,12.276464449999999,60.0,72.0
62,12.074993962499999,12.2838173875,57.0,75.0
63,9.9882303,12.28822915,45.0,62.0
64,12.074993962499999,12.2985232625,66.0,76.0
65,12.244111525,12.4235232,52.0,72.0
66,12.395582037499999,12.4632290625,60.0,49.0
67,12.408817325,12.485287875,67.0,71.0
68,12.399993799999999,12.4896996375,57.0,62.0
69,12.801464187499999,13.1102875625,62.0,59.0
70,12.7926406625,13.120581674999999,66.0,66.0
71,12.791170075,13.123522849999999,57.0,67.0
72,12.807346537499999,13.5514638125,50.0,53.0
73,13.4808756125,13.7396990125,67.0,78.0
74,13.4808756125,13.75881665,57.0,79.0
75,13.4808756125,13.769110762499999,62.0,72.0
76,13.838228375,14.054404737499999,50.0,45.0
77,14.011757699999999,14.1926399625,69.0,76.0
78,14.011757699999999,14.1985223125,57.0,77.0
79,14.0073459375,14.2014634875,62.0,69.0
80,14.37058105,14.5514633125,62.0,59.0
81,14.367639875,14.5573456625,57.0,72.0
82,14.361757525,14.5632280125,66.0,71.0
83,14.542639787499999,14.897051375,50.0,59.0
84,12.802934774999999,15.033816012499999,38.0,61.0
85,14.897051375,15.0352866,57.0,79.0
86,14.8941102,15.24116885,64.0,76.0
87,15.030874837499999,15.2514629625,50.0,49.0
88,15.222051212499998,15.273521774999999,38.0,61.0
89,15.24116885,15.307345287499999,57.0,47.0
90,15.24116885,15.308815874999999,62.0,58.0
91,15.639698062499999,16.02940375,60.0,67.0
92,15.636756887499999,16.032344925,64.0,70.0
93,15.633815712499999,16.0352861,57.0,71.0
94,16.1294037,16.414697675,52.0,55.0
95,16.342638887499998,16.608815225,57.0,75.0
96,16.336756537499998,16.6191093375,64.0,75.0
97,16.345580062499998,16.623521099999998,60.0,72.0
98,16.6808740125,16.755873975,52.0,44.0
99,16.8470504,16.980873862499998,57.0,72.0
100,16.8544033375,16.989697387499998,60.0,67.0
101,16.8485209875,16.991167975,64.0,68.0
102,15.639698062499999,17.029403249999998,45.0,74.0
103,17.055873825,17.3485207375,50.0,47.0
104,17.0338150125,17.4338148125,66.0,62.0
105,17.0514620625,17.4544030375,57.0,48.0
106,17.0367561875,17.4544030375,62.0,57.0
107,17.6044029625,17.7867558125,50.0,62.0
108,17.0485208875,17.979402775,38.0,48.0
109,17.798520512499998,18.032343925,57.0,77.0
110,17.789696987499998,18.042638037499998,66.0,83.0
111,17.791167575,18.11175565,62.0,76.0
112,17.957343962499998,18.1485203375,50.0,71.0
113,18.120579175,18.1661673875,38.0,74.0
114,18.44116725,18.8073435375,59.0,56.0
115,18.4470496,18.8279317625,64.0,57.0
116,18.439696662499998,18.839696462499997,55.0,56.0
117,18.4588143,18.873519975,52.0,51.0
118,18.9632258125,19.1573433625,52.0,58.0
119,19.149990425,19.4455785125,55.0,79.0
120,19.149990425,19.4455785125,59.0,76.0
121,19.144108075,19.4544020375,64.0,80.0
122,19.6396960625,19.773519524999998,59.0,75.0
123,19.64116665,19.782343049999998,55.0,83.0
124,19.6338137125,19.7926371625,64.0,76.0
125,19.4808726125,19.947048849999998,52.0,61.0
126,19.9882253,20.17057815,55.0,81.0
127,19.997048825,20.173519324999997,59.0,76.0
128,19.9882253,20.176460499999997,64.0,72.0
129,20.167636975,20.5308720875,52.0,68.0
130,18.451461362499998,20.655872025,40.0,47.0
131,20.5191073875,20.773519025,55.0,91.0
132,20.5191073875,20.792636662499998,59.0,84.0
133,20.5191073875,20.8470484,64.0,80.0
134,20.6514602625,20.8941072,52.0,53.0
135,20.8588131,20.917636599999998,40.0,65.0
136,21.25293055,21.6396950625,52.0,54.0
137,21.238224674999998,21.6588127,60.0,63.0
138,21.244107024999998,21.661753875,57.0,63.0
139,21.238224674999998,21.66469505,64.0,65.0
140,21.961753724999998,22.161753625,57.0,84.0
141,21.9602831375,22.167635975,60.0,81.0
142,21.9602831375,22.173518325,64.0,79.0
143,22.486753462499998,22.649988675,57.0,72.0
144,22.491165225,22.657341612499998,60.0,69.0
145,22.489694637499998,22.667635725,64.0,67.0
146,21.761753825,22.7999886,52.0,46.0
147,22.8720473875,23.0191061375,57.0,75.0
148,22.8720473875,23.020576724999998,60.0,75.0
149,22.8720473875,23.0279296625,64.0,72.0
150,23.017635549999998,23.4014588875,52.0,80.0
151,23.3632236125,23.570576449999997,60.0,83.0
152,23.3632236125,23.582341149999998,64.0,84.0
153,23.3632236125,23.5867529125,57.0,88.0
154,21.2470482,23.5926352625,45.0,54.0
155,23.536752937499998,23.7396940125,52.0,72.0
156,23.7058705,23.7632234125,45.0,63.0
157,24.073517374999998,24.4043995625,57.0,67.0
158,24.073517374999998,24.4043995625,62.0,69.0
159,24.0632232625,24.4161642625,66.0,80.0
160,24.6220465125,24.766164087499998,67.0,79.0
161,24.626458274999997,24.77057585,57.0,74.0
162,24.6338112125,24.773517025,62.0,67.0
163,24.0749879625,25.1646933,50.0,63.0
164,25.1426344875,25.402928475,57.0,85.0
165,25.138222725,25.40586965,69.0,90.0
166,25.1426344875,25.426457875,62.0,79.0
167,25.6926342125,25.8632223625,62.0,72.0
168,25.688222449999998,25.877928237499997,57.0,84.0
169,25.688222449999998,25.892634112499998,66.0,84.0
170,25.838222374999997,26.214692775,50.0,67.0
171,24.073517374999998,26.329398599999998,38.0,69.0
172,26.201457487499997,26.344104474999998,57.0,84.0
173,26.204398662499997,26.438222075,64.0,75.0
174,26.544104375,26.6117514,62.0,63.0
175,26.53528085,26.6514572625,57.0,53.0
176,26.3367515375,26.667633724999998,50.0,45.0
177,26.951457112499998,27.107339387499998,55.0,42.0
178,26.93528065,27.27645695,62.0,47.0
179,26.9293983,27.279398125,59.0,47.0
180,26.92351595,27.285280475,67.0,52.0
181,27.436750987499998,27.6308685375,55.0,28.0
182,27.654397937499997,27.9720448375,62.0,48.0
183,27.6396920625,27.973515425,59.0,44.0
184,27.6338097125,27.985280125,67.0,53.0
185,28.0073389375,28.102927124999997,55.0,39.0
186,28.163221212499998,28.3602799375,67.0,63.0
187,28.173515325,28.361750524999998,62.0,50.0
188,28.160280037499998,28.3661622875,59.0,53.0
189,28.502926924999997,28.6926327125,62.0,45.0
190,28.49998575,28.6955738875,59.0,43.0
191,28.502926924999997,28.697044475,67.0,51.0
192,28.691162124999998,28.9926325625,55.0,47.0
193,26.94704535,29.191161875,43.0,47.0
194,29.020573725,29.2573383125,59.0,53.0
195,29.026456075,29.27645595,62.0,54.0
196,29.192632462499997,29.297044175,55.0,56.0
197,29.0102796125,29.355867675,67.0,60.0
198,29.374985312499998,29.4235147,43.0,56.0
199,29.755867475,30.085279075,52.0,32.0
200,29.735279249999998,30.1132202375,59.0,53.0
201,29.726455724999997,30.1367496375,55.0,50.0
202,29.726455724999997,30.1367496375,64.0,61.0
203,30.1955731375,30.294102499999997,52.0,39.0
204,30.4543965375,30.7602787375,55.0,51.0
205,30.4485141875,30.7661610875,59.0,58.0
206,30.4485141875,30.7749846125,64.0,55.0
207,30.827925762499998,30.9455727625,52.0,34.0
208,30.9764551,31.0985138625,59.0,51.0
209,30.983808037499998,31.1014550375,55.0,44.0
210,30.9661609875,31.105866799999998,64.0,56.0
211,31.3176314,31.480866612499998,55.0,53.0
212,31.316160812499998,31.48821955,59.0,58.0
213,31.31174905,31.4896901375,64.0,55.0
214,31.480866612499998,31.835278199999998,52.0,59.0
215,29.7455733625,31.949984025,40.0,42.0
216,31.835278199999998,32.0485133875,55.0,67.0
217,31.835278199999998,32.079395725,59.0,65.0
218,31.835278199999998,32.111748649999996,64.0,63.0
219,32.004395762499996,32.14704275,52.0,39.0
220,32.185278024999995,32.232336825,40.0,58.0
221,32.5514543125,32.926454125,52.0,41.0
222,32.5455719625,32.979395275,60.0,48.0
223,32.548513137499995,32.9926305625,64.0,55.0
224,32.5455719625,33.0043952625,57.0,51.0
225,33.286748062499996,33.4602773875,57.0,72.0
226,33.286748062499996,33.473512674999995,60.0,68.0
227,33.286748062499996,33.4779244375,64.0,71.0
228,33.1043952125,33.879394825,52.0,44.0
229,33.832336025,34.438218075,57.0,53.0
230,33.832336025,34.4543945375,60.0,54.0
231,33.832336025,34.47645335,64.0,55.0
232,34.5161592125,34.694100299999995,52.0,61.0
233,32.555866075,34.8691002125,45.0,47.0
234,34.685276775,34.910276662499996,64.0,67.0
235,34.6838061875,34.9543942875,60.0,64.0
236,34.6838061875,34.95880605,57.0,68.0
237,34.858806099999995,35.014688375,52.0,47.0
238,35.049982475,35.1073353875,45.0,51.0
239,35.42939405,35.7543938875,50.0,45.0
240,35.4102764125,35.7808644625,62.0,52.0
241,35.3955705375,35.80586445,66.0,55.0
242,35.3999823,35.8190997375,57.0,42.0
243,35.932334974999996,36.124981937499996,50.0,58.0
244,36.09998195,36.351452412499995,67.0,71.0
245,36.1043937125,36.3602759375,57.0,65.0
246,36.113217237499995,36.369099462499996,62.0,59.0
247,36.4514523625,36.53527585,50.0,47.0
248,36.626452275,36.7896874875,62.0,57.0
249,36.620569925,36.794099249999995,69.0,74.0
250,36.6279228625,36.814687475,57.0,63.0
251,36.970569749999996,37.1720402375,66.0,60.0
252,36.991157975,37.176452,62.0,49.0
253,36.970569749999996,37.197040224999995,57.0,53.0
254,37.176452,37.5161577125,50.0,42.0
255,35.4102764125,37.67645175,38.0,43.0
256,37.502922425,37.6823341,57.0,67.0
257,37.5014518375,37.68821645,67.0,66.0
258,37.508804775,37.708804674999996,62.0,56.0
259,37.6588047,37.7838046375,50.0,47.0
260,37.867628124999996,37.920569275,38.0,52.0
261,37.86468695,37.938216325,57.0,59.0
262,37.855863424999995,37.938216325,62.0,34.0
263,37.849981074999995,37.9514516125,66.0,58.0
264,38.2514514625,38.6117454,62.0,44.0
265,38.230863237499996,38.616157162499995,66.0,74.0
266,38.230863237499996,38.626451275,59.0,63.0
267,38.7632159125,38.9838040375,54.0,45.0
268,38.941157,39.1543921875,71.0,71.0
269,38.945568762499995,39.195568637499996,59.0,72.0
270,38.945568762499995,39.2043921625,62.0,59.0
271,38.9485099375,39.220568625,66.0,58.0
272,39.273509775,39.5220390625,54.0,39.0
273,39.45292145,39.735274249999996,59.0,56.0
274,39.4661567375,39.735274249999996,62.0,47.0
275,39.445568512499996,39.75880365,69.0,62.0
276,39.820568324999996,40.120568174999995,67.0,67.0
277,39.832333025,40.126450524999996,62.0,62.0
278,39.820568324999996,40.1279211125,59.0,68.0
279,40.149979925,40.33527395,54.0,62.0
280,40.3176269,40.5161562125,59.0,63.0
281,40.324979837499995,40.55880325,62.0,54.0
282,38.230863237499996,40.6220385125,47.0,56.0
283,40.314685725,40.648509087499995,66.0,70.0
284,40.5043915125,40.6808620125,54.0,59.0
285,40.667626725,40.722038462499995,67.0,63.0
286,40.655862025,40.7411561,59.0,68.0
287,40.6808620125,40.7485090375,62.0,43.0
288,41.0602735875,41.3955675375,52.0,52.0
289,41.0470383,41.46468515,55.0,56.0
290,41.0543912375,41.466155737499996,59.0,53.0
291,41.0470383,41.479391025,64.0,61.0
292,41.5926262625,41.7132144375,52.0,35.0
293,41.7485085375,42.0485083875,59.0,61.0
294,41.7455673625,42.0602730875,55.0,67.0
295,41.738214424999995,42.0720377875,64.0,63.0
296,42.117626,42.2249788875,52.0,39.0
297,42.2690965125,42.4235082,55.0,52.0
298,42.279390625,42.442625837499996,59.0,50.0
299,42.2690965125,42.444096425,64.0,46.0
300,42.697037474999995,42.9602726375,55.0,59.0
301,42.697037474999995,42.9661549875,59.0,51.0
302,42.697037474999995,42.980860862499995,64.0,54.0
303,43.038213774999996,43.1161549125,52.0,55.0
304,41.0470383,43.441154749999995,40.0,55.0
305,43.1646843,43.5249782375,55.0,67.0
306,43.1646843,43.548507637499995,59.0,61.0
307,43.52939,43.579389975,52.0,67.0
308,43.155860775,43.5867429125,64.0,64.0
309,43.891154525,44.226448475,52.0,62.0
310,43.873507475,44.286742562499995,57.0,59.0
311,43.873507475,44.286742562499995,60.0,61.0
312,43.877919237499995,44.2940955,64.0,65.0
313,44.408801325,44.702918825,52.0,43.0
314,44.585271825,44.7838011375,57.0,75.0
315,44.585271825,44.836742287499995,64.0,77.0
316,44.585271825,44.844095225,60.0,74.0
317,45.122036262499996,45.2102715125,57.0,68.0
318,45.1249774375,45.2102715125,60.0,64.0
319,45.1249774375,45.2661538375,64.0,69.0
320,44.97056575,45.6514477625,52.0,49.0
321,45.667624225,46.0308593375,57.0,67.0
322,45.661741875,46.041153449999996,60.0,67.0
323,45.667624225,46.051447562499995,64.0,68.0
324,43.883801587499995,46.188212199999995,45.0,61.0
325,46.148506337499995,46.3455650625,64.0,52.0
326,46.161741625,46.358800349999996,57.0,47.0
327,46.0161534625,46.369094462499994,52.0,67.0
328,46.1514475125,46.379388575,60.0,49.0
329,46.335270949999995,46.3955650375,45.0,56.0
330,46.71174135,47.06468235,50.0,50.0
331,46.705859,47.0705647,62.0,61.0
332,46.694094299999996,47.0720352875,66.0,63.0
333,46.691153125,47.079388224999995,57.0,53.0
334,47.182329349999996,47.4132115875,50.0,52.0
335,47.385270424999995,47.6837996875,57.0,76.0
336,47.3985057125,47.6837996875,62.0,64.0
337,47.380858662499996,47.686740862499995,67.0,76.0
338,47.7411526,47.9014466375,50.0,47.0
339,47.8985054625,48.111740649999994,69.0,68.0
340,47.919093687499995,48.114681825,62.0,56.0
341,47.913211337499995,48.1190935875,57.0,59.0
342,48.2587994,48.4573287125,62.0,43.0
343,48.2455641125,48.480858112499995,57.0,56.0
344,48.244093525,48.4837992875,66.0,67.0
345,48.42938755,48.773505025,50.0,61.0
346,46.705859,48.9220343625,38.0,57.0
347,48.7720344375,48.947034349999996,57.0,62.0
348,48.88821085,48.9764461,50.0,46.0
349,48.7573285625,49.1661518875,64.0,69.0
350,49.1308577875,49.18232835,38.0,61.0
351,49.127916612499995,49.1985048125,57.0,48.0
352,49.127916612499995,49.2117401,62.0,54.0
353,49.5396811125,49.9132103375,55.0,40.0
354,49.508798774999995,49.957327962499996,59.0,56.0
355,49.51173995,49.95879855,67.0,60.0
356,49.520563474999996,49.9764456,62.0,55.0
357,50.026445575,50.3014454375,55.0,51.0
358,50.235268999999995,50.5485041375,59.0,67.0
359,50.2426219375,50.561739425,62.0,63.0
360,50.238210175,50.5632100125,67.0,68.0
361,50.738209925,50.894092199999996,59.0,45.0
362,50.741151099999996,50.898503962499994,67.0,53.0
363,50.747033449999996,50.9014451375,62.0,62.0
364,50.567621775,51.0543862375,55.0,40.0
365,51.0896803375,51.251444962499995,62.0,62.0
366,51.08820975,51.2543861375,59.0,56.0
367,51.08820975,51.2602684875,67.0,54.0
368,51.255856725,51.6073271375,55.0,62.0
369,49.5514458125,51.75879765,43.0,31.0
370,51.586738912499996,51.7690917625,59.0,68.0
371,51.586738912499996,51.835268199999994,67.0,67.0
372,51.591150674999994,51.841150549999995,62.0,64.0
373,51.77056235,51.885268175,55.0,56.0
374,51.9455622625,51.991150475,43.0,63.0
375,52.320562075,52.652914849999995,52.0,41.0
376,52.308797375,52.664679549999995,59.0,59.0
377,52.313209137499996,52.673503075,55.0,54.0
378,52.308797375,52.676444249999996,64.0,63.0
379,52.8426206375,53.08820875,52.0,45.0
380,53.033797012499996,53.289679237499996,55.0,63.0
381,53.026444075,53.294090999999995,59.0,65.0
382,53.02938525,53.305855699999995,64.0,67.0
383,53.379385074999995,53.502914425,52.0,30.0
384,53.572032037499994,53.73526725,55.0,52.0
385,53.5646791,53.7411496,64.0,59.0
386,53.572032037499994,53.748502537499995,59.0,54.0
387,53.9058554,53.985267125,55.0,53.0
388,53.891149524999996,54.026443574999995,59.0,44.0
389,53.901443637499995,54.0587965,64.0,53.0
390,54.102914125,54.185267024999995,55.0,47.0
391,54.08820825,54.186737612499996,62.0,59.0
392,52.313209137499996,54.669090312499996,40.0,54.0
393,54.441149249999995,54.7455608625,55.0,68.0
394,54.447031599999995,54.764678499999995,59.0,63.0
395,54.627913862499994,54.8132078875,52.0,51.0
396,54.441149249999995,54.816149062499996,64.0,65.0
397,54.7999726,54.8485019875,40.0,56.0
398,55.1926194625,55.538207525,52.0,51.0
399,55.173501824999995,55.598501612499994,57.0,47.0
400,55.167619474999995,55.6073251375,64.0,58.0
401,55.1602665375,55.6132074875,60.0,58.0
402,55.685266275,56.0632072625,52.0,42.0
403,55.885266175,56.197030725,57.0,67.0
404,55.891148525,56.205854249999994,64.0,63.0
405,55.8867367625,56.217618949999995,60.0,67.0
406,56.410265912499995,56.5161482125,60.0,65.0
407,56.410265912499995,56.526442325,64.0,56.0
408,56.410265912499995,56.529383499999994,57.0,56.0
409,56.2367365875,56.773501024999995,52.0,39.0
410,56.779383374999995,56.941148,57.0,63.0
411,56.773501024999995,56.94703035,60.0,67.0
412,56.78232455,56.9573244625,64.0,59.0
413,56.95879505,57.2632066625,52.0,59.0
414,57.2720301875,57.422030112499996,64.0,65.0
415,55.17056065,57.4367359875,45.0,58.0
416,57.2749713625,57.473500675,60.0,68.0
417,57.2720301875,57.5132065375,57.0,74.0
418,57.4249712875,57.619088837499994,52.0,53.0
419,57.6117359,57.664677049999995,45.0,56.0
420,57.9926180625,58.2705591,50.0,56.0
421,57.9749710125,58.307323787499996,66.0,55.0
422,57.9926180625,58.320559075,62.0,54.0
423,57.979382775,58.335264949999996,57.0,45.0
424,58.4837942875,58.698500062499996,50.0,56.0
425,58.6779118375,58.9161470125,67.0,76.0
426,58.6940883,58.9293823,62.0,58.0
427,58.686735362499995,58.941147,57.0,71.0
428,59.039676362499996,59.1661468875,50.0,46.0
429,59.2132056875,59.4661467375,69.0,63.0
430,59.2132056875,59.473499675,57.0,67.0
431,59.2220292125,59.476440849999996,62.0,55.0
432,59.554381987499994,59.6955583875,50.0,52.0
433,59.730852487499995,59.816146562499995,62.0,55.0
434,59.7220289625,59.855852424999995,57.0,63.0
435,59.7102642625,59.8808524125,66.0,71.0
436,59.897028875,60.0587935,50.0,50.0
437,57.985265125,60.255852225,38.0,58.0
438,60.082322899999994,60.255852225,57.0,75.0
439,60.079381725,60.29996985,64.0,71.0
440,60.247028699999994,60.3293816,50.0,67.0
441,60.4308521375,60.485263874999994,57.0,63.0
442,60.445558012499994,60.492616812499996,38.0,58.0
443,60.426440375,60.5161462125,62.0,67.0
444,60.808793124999994,61.1573223625,62.0,56.0
445,60.80585195,61.211734099999994,71.0,58.0
446,60.802910774999994,61.220557625,66.0,61.0
447,61.4984986625,61.8161455625,71.0,83.0
448,61.49996925,61.8234985,66.0,78.0
449,61.4984986625,61.826439674999996,62.0,84.0
450,61.292616412499996,62.00585135,59.0,50.0
451,62.002910175,62.1749689125,62.0,61.0
452,62.00585135,62.179380675,66.0,64.0
453,62.002910175,62.182321849999994,71.0,54.0
454,62.3661452875,62.538204025,62.0,79.0
455,62.3661452875,62.552909899999996,66.0,75.0
456,62.3661452875,62.558792249999996,71.0,83.0
457,61.848498487499995,62.745556862499996,54.0,44.0
458,60.814675474999994,63.007321437499996,47.0,58.0
459,62.8837920875,63.063203762499995,71.0,76.0
460,62.886733262499995,63.06467435,62.0,75.0
461,62.886733262499995,63.0705567,66.0,73.0
462,62.541145199999995,63.0940861,59.0,75.0
463,63.032321425,63.22938015,54.0,63.0
464,63.2367330875,63.289674237499995,47.0,57.0
465,63.5837917375,63.973497425,52.0,46.0
466,63.5808505625,64.0117327,59.0,53.0
467,63.5808505625,64.0161444625,64.0,56.0
468,63.5808505625,64.02496798749999,55.0,56.0
469,64.14702675,64.4632030625,52.0,47.0
470,64.3337913625,64.62055592499999,55.0,69.0
471,64.3337913625,64.62937945,59.0,71.0
472,64.3337913625,64.6396735625,64.0,71.0
473,64.8808499125,64.9573204625,59.0,63.0
474,64.88673226249999,64.9602616375,55.0,68.0
475,64.8808499125,64.97349692499999,64.0,68.0
476,64.6940853,65.14702625,52.0,41.0
477,65.061732175,65.3999673,55.0,59.0
478,65.0602615875,65.40584965,59.0,67.0
479,65.05732041249999,65.4190849375,64.0,69.0
480,65.42937905,65.738202425,52.0,62.0
481,63.5808505625,65.92349645,40.0,54.0
482,65.7661435875,66.00143758749999,55.0,84.0
483,65.7661435875,66.0249669875,59.0,75.0
484,65.7661435875,66.067614025,64.0,71.0
485,65.93526115,66.0823199,52.0,59.0
486,66.114672825,66.161731625,40.0,68.0
487,66.4926138125,66.814672475,52.0,57.0
488,66.479378525,66.92349595,60.0,59.0
489,66.479378525,66.9279077125,57.0,59.0
490,66.479378525,66.93526065,64.0,58.0
491,67.032319425,67.2455546125,52.0,59.0
492,67.2073193375,67.52202506249999,57.0,79.0
493,67.2073193375,67.53526035,60.0,76.0
494,67.2073193375,67.53526035,64.0,77.0
495,67.7220249625,67.80584845,60.0,67.0
496,67.71173085,67.84408372499999,57.0,63.0
497,67.714672025,67.86320136249999,64.0,69.0
498,67.5455544625,68.073495375,52.0,43.0
499,68.067613025,68.23526,57.0,75.0
500,68.0632012625,68.2455541125,60.0,76.0
501,68.0632012625,68.255848225,64.0,68.0
502,68.23526,68.5926127625,52.0,64.0
503,66.4867314625,68.7543773875,45.0,63.0
504,68.57790688749999,68.8117303,64.0,76.0
505,68.58231864999999,68.90731848749999,60.0,75.0
506,68.7337891625,68.9455537625,52.0,59.0
507,68.5808480625,68.9455537625,57.0,83.0
508,68.9308478875,68.9764361,45.0,74.0
509,69.29702417499999,69.5764358,62.0,69.0
510,69.29702417499999,69.585259325,50.0,67.0
511,69.2823183,69.585259325,66.0,86.0
512,69.2867300625,69.60584755,57.0,79.0
513,69.80584745,70.0543767375,50.0,64.0
514,70.0043767625,70.2632001625,57.0,77.0
515,70.00290617499999,70.2955530875,64.0,76.0
516,70.3573177625,70.58231765,50.0,55.0
517,70.514670625,70.7396705125,57.0,85.0
518,70.5102588625,70.78525872499999,62.0,88.0
519,70.83672928749999,71.038199775,64.0,68.0
520,70.8279057625,71.044082125,57.0,59.0
521,71.026435075,71.3867290125,50.0,63.0
522,71.35878785,71.538199525,57.0,84.0
523,69.291141825,71.53967011249999,38.0,77.0
524,71.35878785,71.5602583375,66.0,84.0
525,71.5102583625,71.64702299999999,50.0,50.0
526,71.72349355,71.7690817625,38.0,67.0
527,71.72349355,71.7867288125,57.0,61.0
528,71.7514347125,71.8102582125,62.0,45.0
529,71.7176112,71.8337876125,69.0,73.0
530,72.0984933625,72.47643434999999,55.0,58.0
531,72.0926110125,72.53966961249999,59.0,76.0
532,72.0926110125,72.5543754875,67.0,71.0
533,72.0984933625,72.55878725,62.0,65.0
534,72.649963675,72.88525767499999,55.0,61.0
535,72.8352577,73.09555168749999,59.0,84.0
536,72.8352577,73.1161399125,62.0,79.0
537,72.8352577,73.1161399125,67.0,87.0
538,73.16319871249999,73.25878689999999,55.0,51.0
539,73.33819862499999,73.48084561249999,59.0,64.0
540,73.3426103875,73.4867279625,62.0,63.0
541,73.33819862499999,73.4896691375,67.0,68.0
542,73.708786675,73.81025721249999,59.0,77.0
543,73.7043749125,73.83378661249999,62.0,72.0
544,73.7058455,73.84113955,67.0,73.0
545,73.8690807125,74.2484922875,55.0,58.0
546,72.1058463,74.3867275125,43.0,63.0
547,74.20584525,74.45290394999999,59.0,80.0
548,74.208786425,74.4940804,62.0,75.0
549,74.3631981125,74.5073156875,55.0,49.0
550,74.20290407499999,74.58231565,67.0,82.0
551,74.55878625,74.602903875,43.0,68.0
552,74.94702135,75.25290355,52.0,45.0
553,74.926433125,75.3073152875,55.0,63.0
554,74.926433125,75.3073152875,64.0,67.0
555,74.926433125,75.31172705,59.0,62.0
556,75.432315225,75.67202098749999,52.0,58.0
557,75.6190798375,75.84702089999999,55.0,79.0
558,75.6220210125,75.873491475,59.0,68.0
559,75.62937395,75.8955502875,64.0,62.0
560,75.96613848749999,76.032314925,55.0,41.0
561,75.97055025,76.0426090375,62.0,47.0
562,75.9764326,76.17202073749999,52.0,45.0
563,76.13231487499999,76.4073147375,55.0,55.0
564,76.1396678125,76.4161382625,59.0,69.0
565,76.13231487499999,76.41760885,64.0,67.0
566,76.4926088125,76.66025578749999,52.0,63.0
567,76.6705499,76.8484909875,55.0,83.0
568,76.67643224999999,76.8690792125,59.0,65.0
569,76.667608725,76.87496156249999,64.0,71.0
570,76.8455498125,77.0631967625,52.0,69.0
571,77.03378501249999,77.2823143,55.0,80.0
572,74.9308448875,77.285255475,40.0,63.0
573,77.0470203,77.302902525,59.0,69.0
574,77.026432075,77.3293731,62.0,74.0
575,77.3955495375,77.4470201,59.0,62.0
576,77.2426084375,77.4573142125,52.0,62.0
577,77.3808436625,77.4837847875,55.0,64.0
578,77.385255425,77.52349065,64.0,77.0
579,77.52937299999999,77.567608275,40.0,72.0
580,77.76025523749999,78.17054915,52.0,68.0
581,77.738196425,78.23231382499999,57.0,71.0
582,77.738196425,78.2455491125,64.0,64.0
583,77.74701995,78.24849028749999,60.0,62.0
584,78.2705491,78.55437248749999,52.0,65.0
585,78.45437253749999,78.7161371125,60.0,80.0
586,78.4602548875,78.72054887499999,64.0,77.0
587,78.4602548875,78.72496063749999,57.0,87.0
588,78.9529017,79.0234899,60.0,58.0
589,78.9455487625,79.05437223749999,64.0,55.0
590,78.9455487625,79.058784,57.0,58.0
591,78.773490025,79.32790151249999,52.0,46.0
592,79.3308426875,79.497019075,60.0,72.0
593,79.3337838625,79.5014308375,57.0,69.0
594,79.32790151249999,79.51172495,64.0,69.0
595,79.497019075,79.8514306625,52.0,69.0
596,77.773490525,79.997018825,45.0,50.0
597,79.838195375,80.0279011625,64.0,76.0
598,79.8426071375,80.1190775875,60.0,75.0
599,79.83966596249999,80.1411364,57.0,80.0
600,79.9690776625,80.191136375,52.0,51.0
601,80.18966578749999,80.2426069375,45.0,63.0
602,80.5720185375,80.92348894999999,50.0,56.0
603,80.5631950125,80.96760657499999,62.0,56.0
604,80.555842075,80.9720183375,57.0,53.0
605,80.5514303125,80.97937127499999,66.0,66.0
606,81.06319476249999,81.32348875,50.0,59.0
607,81.2661358375,81.58231214999999,67.0,74.0
608,81.26907701249999,81.5999592,62.0,69.0
609,81.2631946625,81.6014297875,57.0,81.0
610,81.6073121375,81.8955472875,50.0,47.0
611,81.79407675,82.05878249999999,69.0,80.0
612,81.79701792499999,82.0808413125,57.0,68.0
613,81.8043708625,82.0823119,62.0,61.0
614,82.1161354125,82.33525295,50.0,75.0
615,82.302900025,82.51172344999999,57.0,83.0
616,82.3102529625,82.5220175625,62.0,72.0
617,82.30142943749999,82.5426057875,66.0,86.0
618,80.567606775,82.61760575,38.0,65.0
619,82.67054689999999,82.73525275,62.0,44.0
620,82.48819404999999,82.855840925,50.0,64.0
621,82.6631939625,82.8602526875,57.0,72.0
622,82.6602527875,83.032311425,64.0,80.0
623,82.820546825,83.06319376249999,38.0,85.0
624,83.0102526125,83.08378198749999,62.0,72.0
625,83.04113495,83.085252575,50.0,77.0
626,83.01172319999999,83.1220172625,57.0,67.0
627,83.414664175,83.79407574999999,52.0,59.0
628,83.414664175,83.879369825,64.0,63.0
629,83.402899475,83.882311,57.0,59.0
630,83.40584065,83.88525217499999,60.0,63.0
631,83.9278992125,84.1778990875,52.0,54.0
632,84.1367226375,84.52348715,57.0,71.0
633,84.13966381249999,84.538193025,64.0,67.0
634,84.1367226375,84.54407537499999,60.0,68.0
635,83.41760535,84.55878125,45.0,53.0
636,84.4955459875,84.7720164375,52.0,58.0
637,84.832310525,85.2161338625,57.0,80.0
638,84.832310525,85.244075025,60.0,76.0
639,84.832310525,85.244075025,64.0,81.0
640,85.5220160625,85.697015975,57.0,80.0
641,85.5220160625,85.7043689125,64.0,77.0
642,85.5220160625,85.72348654999999,60.0,81.0
643,85.3293691,85.732310075,45.0,69.0
644,85.68378068749999,85.8955452875,52.0,74.0
645,85.8455453125,85.89995705,45.0,59.0
646,86.2367215875,86.5161332125,54.0,67.0
647,86.2220157125,86.6352508,66.0,71.0
648,86.2220157125,86.638191975,59.0,71.0
649,86.2220157125,86.64407432499999,62.0,71.0
650,86.702897825,86.92642712499999,54.0,72.0
651,86.891133025,87.08083881249999,59.0,79.0
652,86.8896624375,87.09260351249999,62.0,76.0
653,86.8896624375,87.0955446875,66.0,79.0
654,86.23525099999999,87.10436821249999,47.0,62.0
655,87.079368225,87.25142696249999,54.0,53.0
656,87.27936812499999,87.3455445625,47.0,47.0
657,87.6352503,87.93525015,52.0,54.0
658,87.61760325,88.032308925,59.0,64.0
659,87.6220150125,88.0426030375,55.0,62.0
660,87.62495618749999,88.0426030375,64.0,63.0
661,88.1631912125,88.3367205375,52.0,63.0
662,87.6308385375,88.508779275,40.0,57.0
663,88.33966171249999,88.5190733875,55.0,87.0
664,88.3367205375,88.61760274999999,59.0,80.0
665,88.3337793625,88.644073325,64.0,79.0
666,88.48230869999999,88.6837791875,52.0,61.0
667,88.6778968375,88.7190732875,40.0,63.0
668,89.0470143,89.285249475,52.0,61.0
669,89.032308425,89.44113175,57.0,72.0
670,89.02936724999999,89.45877879999999,64.0,69.0
671,89.02936724999999,89.4631905625,60.0,69.0
672,89.54554346249999,89.797013925,52.0,72.0
673,89.0470143,90.12201376249999,45.0,57.0
674,89.7514257125,90.20877842499999,64.0,76.0
675,89.7514257125,90.235249,57.0,81.0
676,89.7514257125,90.2396607625,60.0,80.0
677,90.1102490625,90.2984842625,52.0,55.0
678,90.614660575,90.838189875,57.0,76.0
679,90.614660575,90.8470134,60.0,79.0
680,90.61760174999999,90.84848398749999,64.0,71.0
681,90.797013425,91.1955426375,52.0,83.0
682,90.2573078125,91.373483725,45.0,44.0
683,91.1631897125,91.444071925,64.0,81.0
684,91.1631897125,91.47495426249999,57.0,88.0
685,91.1631897125,91.4778954375,60.0,87.0
686,91.33230727499999,91.529366,52.0,63.0
687,91.50289542499999,91.56613068749999,45.0,50.0
688,91.8690717125,92.0837774875,62.0,85.0
689,91.8690717125,92.120542175,54.0,84.0
690,91.8749540625,92.1249539375,50.0,67.0
691,91.87201288749999,92.12642452499999,57.0,79.0
692,92.3896596875,92.50730668749999,64.0,77.0
693,92.3896596875,92.5131890375,54.0,76.0
694,92.39260086249999,92.53083608749999,57.0,72.0
695,92.9249535375,93.120541675,50.0,63.0
696,92.91171824999999,93.179365175,66.0,80.0
697,92.9176006,93.191129875,54.0,79.0
698,92.9249535375,93.2117181,57.0,67.0
699,91.87201288749999,93.3102474625,38.0,72.0
700,93.44112975,93.5573061625,50.0,81.0
701,93.438188575,93.56318851249999,38.0,67.0
702,93.4352474,93.60583555,54.0,80.0
703,93.4470121,93.62936495,62.0,69.0
704,93.4514238625,93.632306125,57.0,59.0
705,93.65436493749999,93.7190707875,50.0,71.0
706,93.65877669999999,93.73818842499999,38.0,84.0
707,93.7999531,93.8484824875,38.0,85.0
708,93.7881884,93.8720118875,50.0,87.0
709,93.8220119125,93.8749530625,54.0,68.0
710,93.832306025,93.88818835,64.0,62.0
711,93.8426001375,93.9014236375,57.0,47.0
712,94.01760005,94.0661294375,38.0,95.0
713,94.01760005,94.0690706125,66.0,86.0
714,93.99995299999999,94.09995295,57.0,63.0
715,94.01171769999999,94.1014235375,50.0,91.0
716,94.0014235875,94.120541175,54.0,85.0
717,94.3543645875,94.40142338749999,54.0,88.0
718,94.3543645875,94.4073057375,38.0,88.0
719,94.35877635,94.4073057375,57.0,59.0
720,94.36171752499999,94.4161292625,50.0,68.0
721,94.349952825,94.46024688749999,66.0,101.0
722,94.697011475,94.9631878125,55.0,59.0
723,94.67495266249999,95.04848188749999,67.0,79.0
724,94.68230559999999,95.049952475,59.0,72.0
725,94.68230559999999,95.08818774999999,62.0,71.0
726,95.21024651249999,95.45289344999999,55.0,28.0
727,95.4220111125,95.71171685,59.0,74.0
728,95.4220111125,95.732305075,67.0,75.0
729,95.4220111125,95.74259918749999,62.0,74.0
730,95.791128575,95.88818735,55.0,39.0
731,95.95289319999999,96.0940696,59.0,71.0
732,95.95289319999999,96.1058343,62.0,65.0
733,95.95877555,96.1102460625,67.0,67.0
734,96.2778930375,96.420540025,59.0,67.0
735,96.285245975,96.43377531249999,67.0,75.0
736,96.285245975,96.438187075,62.0,72.0
737,96.44554001249999,96.7925986625,55.0,61.0
738,94.69407029999999,96.95289269999999,43.0,63.0
739,96.80289277499999,97.03671618749999,59.0,69.0
740,96.94701035,97.04848088749999,55.0,61.0
741,96.79848101249999,97.0867161625,62.0,72.0
742,97.1455396625,97.1896572875,43.0,68.0
743,96.79406924999999,97.208774925,67.0,78.0
744,97.526421825,97.8514216625,59.0,62.0
745,97.52936299999999,97.8573040125,55.0,63.0
746,97.526421825,97.86465695,64.0,62.0
747,97.5396571125,98.29553908749999,52.0,56.0
748,98.22789206249999,98.49700957499999,55.0,77.0
749,98.22789206249999,98.51171545,64.0,72.0
750,98.23524499999999,98.514656625,59.0,68.0
751,98.60142128749999,98.77936237499999,52.0,50.0
752,98.7602447375,98.9367152375,55.0,72.0
753,98.7528918,98.955832875,64.0,74.0
754,98.75877415,98.9646564,59.0,67.0
755,99.09995045,99.1867151125,55.0,68.0
756,99.08965633749999,99.2308327375,59.0,51.0
757,99.08965633749999,99.23230332499999,64.0,61.0
758,99.24112685,99.5661266875,52.0,63.0
759,99.6102443125,99.764656,55.0,76.0
760,99.6102443125,99.78377363749999,64.0,71.0
761,99.61318548749999,99.80583245,59.0,63.0
762,99.7573030625,99.9293618,52.0,65.0
763,99.9455382625,100.0131852875,55.0,67.0
764,97.5337747625,100.032302925,40.0,63.0
765,99.9528912,100.03377351249999,59.0,30.0
766,99.9337735625,100.07642055,62.0,67.0
767,100.320538075,100.66906731249999,52.0,79.0
768,100.3175969,100.71171435,57.0,68.0
769,100.3175969,100.749949625,64.0,71.0
770,100.3175969,100.761714325,60.0,67.0
771,101.02200831249999,101.20141998749999,60.0,76.0
772,101.0278906625,101.20436116249999,57.0,74.0
773,101.02200831249999,101.214655275,64.0,72.0
774,100.8308319375,101.5925962625,52.0,56.0
775,101.529361,101.83230202499999,57.0,65.0
776,101.51906688749999,101.8352432,64.0,74.0
777,101.52347865,101.8587726,60.0,71.0
778,101.897007875,102.05436073749999,52.0,53.0
779,102.097007775,102.2073018375,57.0,57.0
780,102.085243075,102.214654775,62.0,68.0
781,102.2587724,102.4543605375,52.0,63.0
782,102.449948775,102.59406634999999,64.0,75.0
783,102.4543605375,102.61759574999999,57.0,76.0
784,100.326420425,102.620536925,45.0,71.0
785,102.45583112499999,102.6234781,60.0,68.0
786,102.57788988749999,102.7984780125,52.0,51.0
787,102.78083096249999,102.83671328749999,45.0,47.0
788,102.7778897875,102.861713275,57.0,67.0
789,102.7778897875,102.8896544375,66.0,78.0
790,103.17347782499999,103.35583067499999,66.0,57.0
791,103.167595475,103.49994824999999,62.0,50.0
792,103.14259548749999,103.51171294999999,50.0,64.0
793,103.1514190125,103.526418825,57.0,72.0
794,103.720536375,103.93230097499999,62.0,67.0
795,103.702889325,103.93671273749999,66.0,94.0
796,103.702889325,103.94406567499999,57.0,85.0
797,104.020536225,104.24553611249999,50.0,59.0
798,104.21759494999999,104.3984772125,67.0,87.0
799,104.21759494999999,104.4117125,57.0,90.0
800,104.2308302375,104.426418375,62.0,72.0
801,104.7484770375,105.061712175,57.0,90.0
802,104.744065275,105.07200628749999,62.0,88.0
803,104.744065275,105.07200628749999,69.0,95.0
804,105.09553568749999,105.28818265,50.0,84.0
805,103.1396543125,105.4455355125,38.0,71.0
806,105.27053559999999,105.449947275,57.0,87.0
807,105.267594425,105.467594325,62.0,74.0
808,105.267594425,105.50435901249999,66.0,84.0
809,105.4278884625,105.5925942625,50.0,59.0
810,105.6278883625,105.67053539999999,38.0,68.0
811,105.6220060125,105.7175942,57.0,72.0
812,105.620535425,105.720535375,64.0,67.0
813,106.01612346249999,106.3484762375,52.0,59.0
814,105.99259406249999,106.3881821,64.0,63.0
815,106.01171169999999,106.41759384999999,57.0,59.0
816,106.0072999375,106.42494678749999,60.0,58.0
817,106.4984761625,106.74259368749999,52.0,63.0
818,106.6940643,106.8867112625,64.0,80.0
819,106.6940643,106.88818185,57.0,87.0
820,106.6940643,106.8955347875,60.0,84.0
821,107.0808288125,107.13965231249999,64.0,54.0
822,107.0984758625,107.1690640625,60.0,38.0
823,107.12347584999999,107.17494641249999,57.0,23.0
824,107.22641697499999,107.549946225,57.0,76.0
825,107.22347579999999,107.549946225,64.0,65.0
826,107.2367110875,107.56465209999999,60.0,80.0
827,107.5514168125,107.76612258749999,52.0,81.0
828,107.7249461375,107.9867107125,57.0,84.0
829,107.7293579,108.00141658749999,64.0,80.0
830,107.73524024999999,108.00435776249999,60.0,88.0
831,108.073475375,108.40141638749999,57.0,77.0
832,108.073475375,108.408769325,64.0,75.0
833,108.0749459625,108.4249457875,60.0,77.0
834,108.42641637499999,108.46465165,52.0,79.0
835,106.01171169999999,108.46906341249999,45.0,59.0
836,108.7999456,109.1293572,54.0,68.0
837,108.7999456,109.22347479999999,66.0,79.0
838,108.80288677499999,109.2337689125,59.0,74.0
839,108.80288677499999,109.2337689125,62.0,72.0
840,109.33082768749999,109.50141583749999,54.0,56.0
841,108.81759265,109.726415725,47.0,59.0
842,109.5308275875,109.76759217499999,66.0,87.0
843,109.54112169999999,109.7690627625,62.0,79.0
844,109.53523935,109.773474525,59.0,85.0
845,109.6867098625,109.873474475,54.0,69.0
846,109.861709775,109.9190626875,47.0,45.0
847,110.2587684,110.5425917875,52.0,43.0
848,110.2337684125,110.61759174999999,59.0,67.0
849,110.2337684125,110.61759174999999,64.0,67.0
850,110.24112135,110.626415275,55.0,67.0
851,110.74847403749999,110.9293563,52.0,67.0
852,110.92347395,111.0720032875,55.0,84.0
853,110.92347395,111.14700325,59.0,79.0
854,110.2470037,111.16465029999999,40.0,54.0
855,110.9175916,111.167591475,64.0,79.0
856,111.261709075,111.3367090375,55.0,67.0
857,111.28376788749999,111.3484737375,59.0,36.0
858,111.0631797625,111.4131795875,52.0,56.0
859,111.2705326,111.420532525,62.0,63.0
860,111.6278853625,112.0043557625,52.0,74.0
861,111.6117089,112.06464985,57.0,83.0
862,111.61759124999999,112.07053219999999,60.0,68.0
863,111.62494418749999,112.0749439625,64.0,72.0
864,112.3425908875,112.508767275,57.0,71.0
865,112.3425908875,112.5249437375,60.0,76.0
866,112.3425908875,112.5293555,64.0,80.0
867,112.15729686249999,112.95876704999999,52.0,55.0
868,112.8587671,113.2337669125,57.0,64.0
869,112.85288475,113.23670808749999,64.0,65.0
870,112.85582592499999,113.2396492625,60.0,63.0
871,113.22053162499999,113.41170799999999,52.0,68.0
872,113.3925903625,113.5925902625,64.0,77.0
873,113.397002125,113.597002025,57.0,76.0
874,113.397002125,113.6043549625,60.0,72.0
875,113.5484726375,113.7778842875,52.0,77.0
876,113.738178425,113.90729598749999,62.0,83.0
877,113.74847253749999,113.9220018625,57.0,69.0
878,111.647003,113.98229595,45.0,59.0
879,114.08670766249999,114.13376646249999,60.0,75.0
880,114.08670766249999,114.14258998749999,64.0,75.0
881,114.08670766249999,114.167589975,57.0,83.0
882,113.87641364999999,114.1984723125,52.0,76.0
883,114.2072958375,114.2484722875,45.0,72.0
884,114.4425898375,114.7278838125,50.0,84.0
885,114.4425898375,114.76906026249999,62.0,72.0
886,114.4308251375,114.7749426125,66.0,86.0
887,114.4337663125,114.7764132,57.0,84.0
888,114.938177825,115.08229539999999,67.0,74.0
889,114.938177825,115.1293542,62.0,54.0
890,114.92788371249999,115.1337659625,57.0,59.0
891,114.93964841249999,115.9514126125,50.0,48.0
892,115.508765775,116.2749418625,69.0,82.0
893,115.508765775,116.3661182875,62.0,75.0
894,115.508765775,116.37053005,57.0,79.0
895,116.2249418875,116.37641239999999,66.0,62.0
896,116.24258893749999,116.5661181875,50.0,56.0
897,116.57200053749999,116.71170635,57.0,83.0
898,116.57494171249999,116.720529875,67.0,83.0
899,114.44111925,116.72347105,38.0,83.0
900,116.585235825,116.7367063375,62.0,72.0
901,116.7367063375,117.0308238375,50.0,50.0
902,116.9308238875,117.03229442499999,69.0,73.0
903,116.95876505,117.03670618749999,62.0,45.0
904,116.93670623749999,117.05288265,57.0,63.0
905,117.0940591,117.1411179,38.0,58.0
906,117.29405899999999,117.4072942375,45.0,59.0
907,117.29994135,117.4220001125,52.0,55.0
908,117.28229429999999,117.44552951249999,64.0,58.0
909,117.28817665,117.455823625,60.0,55.0
910,117.28229429999999,117.4587648,69.0,61.0
911,117.27641195,117.46023538749999,57.0,59.0
912,117.79405874999999,117.87347047499999,69.0,51.0
913,117.79405874999999,117.87641165,62.0,53.0
914,117.79405874999999,117.87788223749999,50.0,56.0
915,117.78229404999999,117.8867057625,57.0,56.0
916,117.773470525,117.88817635,66.0,63.0
917,118.29994085,118.3484702375,38.0,63.0
918,118.29847026249999,118.37052904999999,60.0,56.0
919,118.279352625,118.3984702125,64.0,73.0
920,118.6705289,119.4543520375,59.0,58.0
921,119.38964618749999,119.4543520375,59.0,72.0
922,118.67641125,119.51170495,43.0,74.0
923,118.66758772499999,119.5278814125,55.0,71.0
924,118.6661171375,119.53670493749999,67.0,73.0
925,118.673470075,119.54552846249999,62.0,62.0
926,119.391116775,119.54552846249999,62.0,72.0
927,119.385234425,119.57641079999999,69.0,84.0
928,119.91464592499999,120.01758704999999,71.0,83.0
929,119.920528275,120.049939975,59.0,80.0
930,119.92199886249999,120.0661164375,62.0,72.0
931,120.28817515,120.5984691125,69.0,78.0
932,120.30288102499999,120.602880875,59.0,67.0
933,120.30288102499999,120.6072926375,62.0,65.0
934,120.6543514375,120.81170429999999,55.0,67.0
935,120.80288077499999,120.9646454,71.0,86.0
936,120.81464547499999,120.9719983375,59.0,84.0
937,120.6543514375,120.9808218625,43.0,68.0
938,120.796998425,120.9837630375,62.0,76.0
939,120.96611598749999,121.11758649999999,55.0,69.0
940,121.15288059999999,121.21170409999999,62.0,54.0
941,121.1396453125,121.2190570375,69.0,70.0
942,121.16464529999999,121.22052762499999,43.0,49.0
943,121.15288059999999,121.2249393875,59.0,67.0
944,121.51317453749999,121.8014096875,55.0,59.0
945,121.508762775,121.885233175,59.0,59.0
946,121.508762775,121.885233175,67.0,63.0
947,121.51758629999999,121.896997875,62.0,52.0
948,122.21317418749999,122.51170345,59.0,69.0
949,122.21317418749999,122.5161152125,67.0,73.0
950,122.2072918375,122.52346815,62.0,69.0
951,122.588174,122.75287979999999,55.0,41.0
952,122.761703325,123.00582084999999,59.0,67.0
953,122.75582097499999,123.008762025,67.0,68.0
954,122.761703325,123.02199731249999,62.0,69.0
955,123.10140903749999,123.291114825,59.0,63.0
956,123.09405609999999,123.2984677625,67.0,66.0
957,123.10140903749999,123.302879525,62.0,77.0
958,123.279350125,123.6234676,55.0,69.0
959,121.5190568875,123.75876165,43.0,56.0
960,123.6190558375,123.8867027625,67.0,74.0
961,123.755820475,123.8925851125,55.0,40.0
962,123.62934994999999,123.90729098749999,59.0,76.0
963,123.6308205375,123.9367027375,62.0,64.0
964,123.949938025,123.99405564999999,43.0,67.0
965,124.31317313749999,124.68082001249999,59.0,65.0
966,124.3190554875,124.69405529999999,64.0,63.0
967,124.32493783749999,124.69699647499999,55.0,64.0
968,124.3293496,125.11170215,52.0,55.0
969,125.04111395,125.35876085,55.0,58.0
970,125.04111395,125.3631726125,59.0,64.0
971,125.03081983749999,125.37640789999999,64.0,63.0
972,125.5572901625,125.72346655,55.0,74.0
973,125.5572901625,125.73376066249999,64.0,69.0
974,125.5572901625,125.74699595,59.0,72.0
975,125.3896431875,125.83670178749999,52.0,44.0
976,125.9014076375,126.0131722875,55.0,62.0
977,125.8896429375,126.0337605125,64.0,58.0
978,125.8896429375,126.03964286249999,59.0,44.0
979,126.05434873749999,126.40581915,52.0,55.0
980,126.4337603125,126.588172,59.0,56.0
981,126.42493678749999,126.59111317499999,55.0,77.0
982,126.4131720875,126.6367013875,62.0,67.0
983,126.588172,126.67052489999999,52.0,61.0
984,126.7837601375,126.8425836375,59.0,59.0
985,126.77346602499999,126.85728951249999,55.0,68.0
986,126.779348375,126.891113025,64.0,64.0
987,124.3219966625,126.92493653749999,40.0,61.0
988,126.93523065,126.9867012125,52.0,56.0
989,127.1646423,127.53964211249999,52.0,53.0
990,127.1411129,127.5543479875,57.0,67.0
991,127.1455246625,127.56023033749999,64.0,68.0
992,127.14993642499999,127.5690538625,60.0,63.0
993,127.84993607499999,128.1072888875,60.0,84.0
994,127.84993607499999,128.108759475,57.0,83.0
995,127.84993607499999,128.12199476249998,64.0,80.0
996,127.6837596875,128.3955240375,52.0,47.0
997,128.36758287499998,128.7367003375,64.0,68.0
998,128.36758287499998,128.744053275,57.0,59.0
999,128.36758287499998,128.749935625,60.0,62.0
1000,128.73522975,128.89993554999998,52.0,64.0
1001,128.90728848749998,128.985229625,64.0,68.0
1002,128.902876725,128.9881708,60.0,50.0
1003,128.896994375,129.0249354875,57.0,64.0
1004,129.061700175,129.2337589125,52.0,58.0
1005,129.2602294875,129.45287645,60.0,72.0
1006,129.2514059625,129.4602293875,57.0,75.0
1007,127.1646423,129.46464115,45.0,62.0
1008,129.2514059625,129.4749352625,66.0,76.0
1009,129.420523525,129.5999352,52.0,72.0
1010,129.5719940375,129.6396410625,60.0,49.0
1011,129.585229325,129.66169987499998,67.0,71.0
1012,129.5764058,129.6661116375,57.0,62.0
1013,129.9778761875,130.2866995625,62.0,59.0
1014,129.9690526625,130.29699367499998,66.0,66.0
1015,129.967582075,130.29993485,57.0,67.0
1016,129.9837585375,130.7278758125,50.0,53.0
1017,130.6572876125,130.91611101249998,67.0,78.0
1018,130.6572876125,130.93522865,57.0,79.0
1019,130.6572876125,130.9455227625,62.0,72.0
1020,131.014640375,131.2308167375,50.0,45.0
1021,131.1881697,131.36905196249998,69.0,76.0
1022,131.1881697,131.3749343125,57.0,77.0
1023,131.1837579375,131.3778754875,62.0,69.0
1024,131.54699305,131.7278753125,62.0,59.0
1025,131.544051875,131.73375766249998,57.0,72.0
1026,131.538169525,131.7396400125,66.0,71.0
1027,131.7190517875,132.073463375,50.0,59.0
1028,129.97934677499998,132.21022801249998,38.0,61.0
1029,132.073463375,132.2116986,57.0,79.0
1030,132.0705222,132.41758085,64.0,76.0
1031,132.2072868375,132.4278749625,50.0,49.0
1032,132.3984632125,132.449933775,38.0,61.0
1033,132.41758085,132.4837572875,57.0,47.0
1034,132.41758085,132.485227875,62.0,58.0
1035,132.84552181249998,133.1896392875,52.0,50.0
1036,132.82934534999998,133.2219922125,57.0,44.0
1037,132.8249335875,133.24258043749998,64.0,53.0
1038,132.8308159375,133.2469922,60.0,48.0
1039,133.3808156625,133.638168475,52.0,56.0
1040,133.555815575,133.826403675,57.0,75.0
1041,133.55140381249998,133.83816837499998,64.0,74.0
1042,133.555815575,133.8396389625,60.0,74.0
1043,132.84552181249998,133.961697725,45.0,50.0
1044,134.2514034625,134.614638575,50.0,56.0
1045,134.24110935,134.6837561875,57.0,54.0
1046,134.2396387625,134.68669736249998,66.0,70.0
1047,134.2455211125,134.6940503,62.0,67.0
1048,134.77493261249998,134.9631678125,50.0,72.0
1049,134.2572858125,135.102873625,38.0,49.0
1050,134.961697225,135.126403025,57.0,79.0
1051,134.9543442875,135.13963831249998,66.0,83.0
1052,134.967579575,135.14699124999999,62.0,69.0
1053,135.1102265625,135.32346175,50.0,67.0
1054,135.285226475,135.3278735125,38.0,75.0
1055,135.61757925,135.9837555375,59.0,56.0
1056,135.62346159999998,136.00434376249999,64.0,57.0
1057,135.61610866249998,136.0161084625,55.0,56.0
1058,135.6352263,136.049931975,52.0,51.0
1059,136.13963781249998,136.3337553625,52.0,58.0
1060,136.326402425,136.6219905125,55.0,79.0
1061,136.326402425,136.6219905125,59.0,76.0
1062,136.320520075,136.6308140375,64.0,80.0
1063,136.8161080625,136.94993152499998,59.0,75.0
1064,136.81757865,136.95875505,55.0,83.0
1065,136.8102257125,136.9690491625,64.0,76.0
1066,136.6572846125,137.12346085,52.0,61.0
1067,137.16463729999998,137.34699014999998,55.0,81.0
1068,137.173460825,137.349931325,59.0,76.0
1069,137.16463729999998,137.3528725,64.0,72.0
1070,137.344048975,137.7072840875,52.0,68.0
1071,135.6278733625,137.832284025,40.0,47.0
1072,137.69551938749998,137.94993102499998,55.0,91.0
1073,137.69551938749998,137.9690486625,59.0,84.0
1074,137.69551938749998,138.0234604,64.0,80.0
1075,137.8278722625,138.0705192,52.0,53.0
1076,138.0352251,138.0940486,40.0,65.0
1077,138.42934255,138.81610706249998,52.0,54.0
1078,138.414636675,138.8352247,60.0,63.0
1079,138.420519025,138.838165875,57.0,63.0
1080,138.414636675,138.84110705,64.0,65.0
1081,139.138165725,139.338165625,57.0,84.0
1082,139.1366951375,139.344047975,60.0,81.0
1083,139.1366951375,139.349930325,64.0,79.0
1084,139.6631654625,139.826400675,57.0,72.0
1085,139.667577225,139.8337536125,60.0,69.0
1086,139.6661066375,139.844047725,64.0,67.0
1087,138.938165825,139.9764006,52.0,46.0
1088,140.0484593875,140.1955181375,57.0,75.0
1089,140.0484593875,140.19698872499998,60.0,75.0
1090,140.0484593875,140.20434166249998,64.0,72.0
1091,140.19404755,140.57787088749998,52.0,80.0
1092,140.5396356125,140.74698845,60.0,83.0
1093,140.5396356125,140.75875315,64.0,84.0
1094,140.5396356125,140.7631649125,57.0,88.0
1095,138.4234602,140.76904726249998,45.0,54.0
1096,140.71316493749998,140.9161060125,52.0,72.0
1097,140.8822825,140.9396354125,45.0,63.0
1098,141.249929375,141.5808115625,57.0,67.0
1099,141.249929375,141.5808115625,62.0,69.0
1100,141.2396352625,141.5925762625,66.0,80.0
1101,141.7984585125,141.9425760875,67.0,79.0
1102,141.802870275,141.94698785,57.0,74.0
1103,141.8102232125,141.949929025,62.0,67.0
1104,141.2513999625,142.34110529999998,50.0,63.0
1105,142.3190464875,142.57934047499998,57.0,85.0
1106,142.314634725,142.58228165,69.0,90.0
1107,142.3190464875,142.60286987499998,62.0,79.0
1108,142.8690462125,143.03963436249998,62.0,72.0
1109,142.86463444999998,143.05434023749999,57.0,84.0
1110,142.86463444999998,143.0690461125,66.0,84.0
1111,143.01463437499999,143.391104775,50.0,67.0
1112,141.249929375,143.5058106,38.0,69.0
1113,143.3778694875,143.520516475,57.0,84.0
1114,143.38081066249998,143.614634075,64.0,75.0
1115,143.720516375,143.7881634,62.0,63.0
1116,143.71169285,143.8278692625,57.0,53.0
1117,143.5131635375,143.844045725,50.0,45.0
1118,144.12786911249998,144.2837513875,55.0,42.0
1119,144.11169264999998,144.45286894999998,62.0,47.0
1120,144.1058103,144.455810125,59.0,47.0
1121,144.09992795,144.461692475,67.0,52.0
1122,144.6131629875,144.8072805375,55.0,28.0
1123,144.8308099375,145.1484568375,62.0,48.0
1124,144.8161040625,145.149927425,59.0,44.0
1125,144.81022171249998,145.161692125,67.0,53.0
1126,145.18375093749998,145.279339125,55.0,39.0
1127,145.3396332125,145.5366919375,67.0,63.0
1128,145.34992732499998,145.538162525,62.0,50.0
1129,145.3366920375,145.5425742875,59.0,53.0
1130,145.679338925,145.8690447125,62.0,45.0
1131,145.67639775,145.8719858875,59.0,43.0
1132,145.679338925,145.87345647499998,67.0,51.0
1133,145.867574125,146.1690445625,55.0,47.0
1134,144.12345735,146.367573875,43.0,47.0
1135,146.196985725,146.4337503125,59.0,53.0
1136,146.202868075,146.45286794999998,62.0,54.0
1137,146.3690444625,146.473456175,55.0,56.0
1138,146.1866916125,146.53227967499998,67.0,60.0
1139,146.5513973125,146.5999267,43.0,56.0
1140,146.932279475,147.261691075,52.0,32.0
1141,146.91169125,147.2896322375,59.0,53.0
1142,146.902867725,147.3131616375,55.0,50.0
1143,146.902867725,147.3131616375,64.0,61.0
1144,147.3719851375,147.4705145,52.0,39.0
1145,147.6308085375,147.9366907375,55.0,51.0
1146,147.6249261875,147.9425730875,59.0,58.0
1147,147.6249261875,147.9513966125,64.0,55.0
1148,148.0043377625,148.1219847625,52.0,34.0
1149,148.15286709999998,148.2749258625,59.0,51.0
1150,148.16022003749998,148.2778670375,55.0,44.0
1151,148.1425729875,148.2822788,64.0,56.0
1152,148.49404339999998,148.6572786125,55.0,53.0
1153,148.4925728125,148.66463155,59.0,58.0
1154,148.48816105,148.6661021375,64.0,55.0
1155,148.6572786125,149.0116902,52.0,59.0
1156,146.92198536249998,149.126396025,40.0,42.0
1157,149.0116902,149.22492538749998,55.0,67.0
1158,149.0116902,149.25580772499998,59.0,65.0
1159,149.0116902,149.28816064999998,64.0,63.0
1160,149.1808077625,149.32345475,52.0,39.0
1161,149.361690025,149.408748825,40.0,58.0
1162,149.7278663125,150.102866125,52.0,41.0
1163,149.7219839625,150.155807275,60.0,48.0
1164,149.72492513749998,150.16904256249998,64.0,55.0
1165,149.7219839625,150.1808072625,57.0,51.0
1166,150.46316006249998,150.63668938749998,57.0,72.0
1167,150.46316006249998,150.649924675,60.0,68.0
1168,150.46316006249998,150.6543364375,64.0,71.0
1169,150.28080721249998,151.055806825,52.0,44.0
1170,151.008748025,151.61463007499998,57.0,53.0
1171,151.008748025,151.6308065375,60.0,54.0
1172,151.008748025,151.65286534999998,64.0,55.0
1173,151.69257121249998,151.8705123,52.0,61.0
1174,149.73227807499998,152.0455122125,45.0,47.0
1175,151.861688775,152.0866886625,64.0,67.0
1176,151.86021818749998,152.13080628749998,60.0,64.0
1177,151.86021818749998,152.13521805,57.0,68.0
1178,152.03521809999998,152.191100375,52.0,47.0
1179,152.226394475,152.2837473875,45.0,51.0
1180,152.60580604999998,152.9308058875,50.0,45.0
1181,152.5866884125,152.9572764625,62.0,52.0
1182,152.5719825375,152.98227645,66.0,55.0
1183,152.5763943,152.99551173749998,57.0,42.0
1184,153.108746975,153.3013939375,50.0,58.0
1185,153.27639395,153.52786441249998,67.0,71.0
1186,153.28080571249998,153.5366879375,57.0,65.0
1187,153.28962923749998,153.5455114625,62.0,59.0
1188,153.6278643625,153.71168785,50.0,47.0
1189,153.802864275,153.9660994875,62.0,57.0
1190,153.79698192499998,153.97051125,69.0,74.0
1191,153.80433486249999,153.991099475,57.0,63.0
1192,154.14698174999998,154.3484522375,66.0,60.0
1193,154.167569975,154.35286399999998,62.0,49.0
1194,154.14698174999998,154.373452225,57.0,53.0
1195,154.35286399999998,154.6925697125,50.0,42.0
1196,152.5866884125,154.85286374999998,38.0,43.0
1197,154.67933442499998,154.8587461,57.0,67.0
1198,154.67786383749998,154.86462845,67.0,66.0
1199,154.685216775,154.88521667499998,62.0,56.0
1200,154.8352167,154.9602166375,50.0,47.0
1201,155.04404012499998,155.096981275,38.0,52.0
1202,155.04109895,155.11462832499998,57.0,59.0
1203,155.032275425,155.11462832499998,62.0,34.0
1204,155.026393075,155.1278636125,66.0,58.0
1205,155.4278634625,155.7881574,62.0,44.0
1206,155.4072752375,155.7925691625,66.0,74.0
1207,155.4072752375,155.802863275,59.0,63.0
1208,155.9396279125,156.1602160375,54.0,45.0
1209,156.117569,156.33080418749998,71.0,71.0
1210,156.1219807625,156.3719806375,59.0,72.0
1211,156.1219807625,156.3808041625,62.0,59.0
1212,156.1249219375,156.396980625,66.0,58.0
1213,156.449921775,156.6984510625,54.0,39.0
1214,156.62933345,156.91168625,59.0,56.0
1215,156.6425687375,156.91168625,62.0,47.0
1216,156.6219805125,156.93521565,69.0,62.0
1217,156.99698032499998,157.296980175,67.0,67.0
1218,157.008745025,157.302862525,62.0,62.0
1219,156.99698032499998,157.3043331125,59.0,68.0
1220,157.326391925,157.51168595,54.0,62.0
1221,157.4940389,157.6925682125,59.0,63.0
1222,157.5013918375,157.73521524999998,62.0,54.0
1223,155.4072752375,157.79845051249998,47.0,56.0
1224,157.491097725,157.8249210875,66.0,70.0
1225,157.6808035125,157.8572740125,54.0,59.0
1226,157.844038725,157.8984504625,67.0,63.0
1227,157.832274025,157.91756809999998,59.0,68.0
1228,157.8572740125,157.92492103749998,62.0,43.0
1229,158.2366855875,158.5719795375,52.0,52.0
1230,158.2234503,158.64109714999998,55.0,56.0
1231,158.2308032375,158.6425677375,59.0,53.0
1232,158.2234503,158.65580302499998,64.0,61.0
1233,158.7690382625,158.8896264375,52.0,35.0
1234,158.9249205375,159.2249203875,59.0,61.0
1235,158.9219793625,159.2366850875,55.0,67.0
1236,158.914626425,159.2484497875,64.0,63.0
1237,159.294038,159.40139088749999,52.0,39.0
1238,159.4455085125,159.59992019999999,55.0,52.0
1239,159.455802625,159.6190378375,59.0,50.0
1240,159.4455085125,159.620508425,64.0,46.0
1241,159.873449475,160.1366846375,55.0,59.0
1242,159.873449475,160.1425669875,59.0,51.0
1243,159.873449475,160.15727286249998,64.0,54.0
1244,160.214625775,160.29256691249998,52.0,55.0
1245,158.2234503,160.61756674999998,40.0,55.0
1246,160.3410963,160.7013902375,55.0,67.0
1247,160.3410963,160.7249196375,59.0,61.0
1248,160.705802,160.755801975,52.0,67.0
1249,160.33227277499998,160.7631549125,64.0,64.0
1250,161.067566525,161.40286047499998,52.0,62.0
1251,161.049919475,161.4631545625,57.0,59.0
1252,161.049919475,161.4631545625,60.0,61.0
1253,161.05433123749998,161.4705075,64.0,65.0
1254,161.58521332499998,161.87933082499998,52.0,43.0
1255,161.761683825,161.9602131375,57.0,75.0
1256,161.761683825,162.0131542875,64.0,77.0
1257,161.761683825,162.020507225,60.0,74.0
1258,162.2984482625,162.38668351249999,57.0,68.0
1259,162.3013894375,162.38668351249999,60.0,64.0
1260,162.3013894375,162.44256583749998,64.0,69.0
1261,162.14697775,162.8278597625,52.0,49.0
1262,162.844036225,163.2072713375,57.0,67.0
1263,162.838153875,163.21756545,60.0,67.0
1264,162.844036225,163.2278595625,64.0,68.0
1265,161.0602135875,163.36462419999998,45.0,61.0
1266,163.32491833749998,163.52197706249999,64.0,52.0
1267,163.338153625,163.53521235,57.0,47.0
1268,163.1925654625,163.5455064625,52.0,67.0
1269,163.3278595125,163.555800575,60.0,49.0
1270,163.51168295,163.5719770375,45.0,56.0
1271,163.88815334999998,164.24109435,50.0,50.0
1272,163.882271,164.2469767,62.0,61.0
1273,163.8705063,164.2484472875,66.0,63.0
1274,163.867565125,164.255800225,57.0,53.0
1275,164.35874135,164.5896235875,50.0,52.0
1276,164.561682425,164.8602116875,57.0,76.0
1277,164.5749177125,164.8602116875,62.0,64.0
1278,164.5572706625,164.8631528625,67.0,76.0
1279,164.9175646,165.0778586375,50.0,47.0
1280,165.0749174625,165.28815265,69.0,68.0
1281,165.09550568749998,165.291093825,62.0,56.0
1282,165.0896233375,165.2955055875,57.0,59.0
1283,165.4352114,165.63374071249999,62.0,43.0
1284,165.4219761125,165.6572701125,57.0,56.0
1285,165.42050552499998,165.6602112875,66.0,67.0
1286,165.60579955,165.949917025,50.0,61.0
1287,163.882271,166.0984463625,38.0,57.0
1288,165.9484464375,166.12344635,57.0,62.0
1289,166.06462285,166.1528581,50.0,46.0
1290,165.9337405625,166.3425638875,64.0,69.0
1291,166.3072697875,166.35874035,38.0,61.0
1292,166.3043286125,166.3749168125,57.0,48.0
1293,166.3043286125,166.38815209999999,62.0,54.0
1294,166.7160931125,167.0896223375,55.0,40.0
1295,166.685210775,167.1337399625,59.0,56.0
1296,166.68815195,167.13521054999998,67.0,60.0
1297,166.696975475,167.1528576,62.0,55.0
1298,167.202857575,167.4778574375,55.0,51.0
1299,167.411681,167.7249161375,59.0,67.0
1300,167.4190339375,167.73815142499998,62.0,63.0
1301,167.414622175,167.73962201249998,67.0,68.0
1302,167.914621925,168.0705042,59.0,45.0
1303,167.9175631,168.0749159625,67.0,53.0
1304,167.92344545,168.0778571375,62.0,62.0
1305,167.744033775,168.23079823749998,55.0,40.0
1306,168.2660923375,168.4278569625,62.0,62.0
1307,168.26462175,168.4307981375,59.0,56.0
1308,168.26462175,168.43668048749998,67.0,54.0
1309,168.432268725,168.7837391375,55.0,62.0
1310,166.7278578125,168.93520965,43.0,31.0
1311,168.76315091249998,168.94550376249998,59.0,68.0
1312,168.76315091249998,169.0116802,67.0,67.0
1313,168.767562675,169.01756254999998,62.0,64.0
1314,168.94697435,169.061680175,55.0,56.0
1315,169.1219742625,169.16756247499998,43.0,63.0
1316,169.496974075,169.82932685,52.0,41.0
1317,169.48520937499998,169.84109155,59.0,59.0
1318,169.4896211375,169.84991507499998,55.0,54.0
1319,169.48520937499998,169.85285625,64.0,63.0
1320,170.0190326375,170.26462075,52.0,45.0
1321,170.2102090125,170.4660912375,55.0,63.0
1322,170.202856075,170.47050299999998,59.0,65.0
1323,170.20579725,170.4822677,64.0,67.0
1324,170.555797075,170.679326425,52.0,30.0
1325,170.74844403749998,170.91167925,55.0,52.0
1326,170.7410911,170.9175616,64.0,59.0
1327,170.74844403749998,170.9249145375,59.0,54.0
1328,171.0822674,171.161679125,55.0,53.0
1329,171.067561525,171.202855575,59.0,44.0
1330,171.0778556375,171.2352085,64.0,53.0
1331,171.27932612499998,171.361679025,55.0,47.0
1332,171.26462024999998,171.3631496125,62.0,59.0
1333,169.4896211375,171.8455023125,40.0,54.0
1334,171.61756125,171.92197286249998,55.0,68.0
1335,171.6234436,171.9410905,59.0,63.0
1336,171.80432586249998,171.9896198875,52.0,51.0
1337,171.61756125,171.9925610625,64.0,65.0
1338,171.9763846,172.02491398749999,40.0,56.0
1339,172.3690314625,172.714619525,52.0,51.0
1340,172.349913825,172.7749136125,57.0,47.0
1341,172.34403147499998,172.7837371375,64.0,58.0
1342,172.3366785375,172.7896194875,60.0,58.0
1343,172.861678275,173.23961926249999,52.0,42.0
1344,173.061678175,173.373442725,57.0,67.0
1345,173.067560525,173.38226625,64.0,63.0
1346,173.0631487625,173.39403095,60.0,67.0
1347,173.5866779125,173.69256021249998,60.0,65.0
1348,173.5866779125,173.702854325,64.0,56.0
1349,173.5866779125,173.7057955,57.0,56.0
1350,173.4131485875,173.949913025,52.0,39.0
1351,173.95579537499998,174.11756,57.0,63.0
1352,173.949913025,174.12344235,60.0,67.0
1353,173.95873655,174.1337364625,64.0,59.0
1354,174.13520705,174.43961866249998,52.0,59.0
1355,174.44844218749998,174.59844211249998,64.0,65.0
1356,172.34697265,174.61314798749999,45.0,58.0
1357,174.4513833625,174.649912675,60.0,68.0
1358,174.44844218749998,174.6896185375,57.0,74.0
1359,174.6013832875,174.7955008375,52.0,53.0
1360,174.78814789999998,174.84108905,45.0,56.0
1361,175.16903006249998,175.44697109999998,50.0,56.0
1362,175.1513830125,175.4837357875,66.0,55.0
1363,175.16903006249998,175.496971075,62.0,54.0
1364,175.155794775,175.51167694999998,57.0,45.0
1365,175.6602062875,175.8749120625,50.0,56.0
1366,175.8543238375,176.0925590125,67.0,76.0
1367,175.8705003,176.10579429999999,62.0,58.0
1368,175.8631473625,176.117559,57.0,71.0
1369,176.2160883625,176.3425588875,50.0,46.0
1370,176.3896176875,176.6425587375,69.0,63.0
1371,176.3896176875,176.649911675,57.0,67.0
1372,176.3984412125,176.65285285,62.0,55.0
1373,176.7307939875,176.8719703875,50.0,52.0
1374,176.9072644875,176.9925585625,62.0,55.0
1375,176.8984409625,177.032264425,57.0,63.0
1376,176.8866762625,177.0572644125,66.0,71.0
1377,177.073440875,177.23520549999998,50.0,50.0
1378,175.16167712499998,177.43226422499998,38.0,58.0
1379,177.25873489999998,177.43226422499998,57.0,75.0
1380,177.255793725,177.47638185,64.0,71.0
1381,177.4234407,177.5057936,50.0,67.0
1382,177.60726413749998,177.661675875,57.0,63.0
1383,177.6219700125,177.6690288125,38.0,58.0
1384,177.602852375,177.6925582125,62.0,67.0
1385,178.0013815875,178.2631461625,52.0,56.0
1386,177.9866757125,178.373440225,57.0,58.0
1387,177.9749110125,178.3896166875,64.0,63.0
1388,177.98079336249998,178.39402844999998,60.0,61.0
1389,178.514616625,178.6896165375,52.0,48.0
1390,178.00432276249998,178.92343995,45.0,52.0
1391,178.71902828749998,179.05138106249998,57.0,74.0
1392,178.71020476249998,179.079322225,60.0,75.0
1393,178.708734175,179.0866751625,64.0,75.0
1394,178.88520467499998,179.1013810375,52.0,64.0
1395,179.0660869375,179.1366751375,45.0,51.0
1396,179.4396161625,179.785204225,57.0,59.0
1397,179.42638087499998,179.8043218625,64.0,59.0
1398,179.42932205,179.80579244999998,60.0,59.0
1399,179.920498275,180.09255701249998,52.0,72.0
1400,180.25873339999998,180.47343917499998,52.0,79.0
1401,180.43373331249998,180.479321525,45.0,69.0
1402,180.096968775,180.49990975,57.0,80.0
1403,180.0896158375,180.5572626625,60.0,87.0
1404,180.0940276,180.59255676249998,64.0,81.0
1405,180.76020373749998,181.149909425,52.0,46.0
1406,180.7572625625,181.18814469999998,59.0,53.0
1407,180.7572625625,181.1925564625,64.0,56.0
1408,180.7572625625,181.2013799875,55.0,56.0
1409,181.32343874999998,181.63961506249998,52.0,47.0
1410,181.5102033625,181.796967925,55.0,69.0
1411,181.5102033625,181.80579145,59.0,71.0
1412,181.5102033625,181.81608556249998,64.0,71.0
1413,182.0572619125,182.13373246249998,59.0,63.0
1414,182.0631442625,182.1366736375,55.0,68.0
1415,182.0572619125,182.149908925,64.0,68.0
1416,181.87049729999998,182.32343824999998,52.0,41.0
1417,182.238144175,182.57637929999999,55.0,59.0
1418,182.23667358749998,182.58226165,59.0,67.0
1419,182.2337324125,182.5954969375,64.0,69.0
1420,182.60579105,182.914614425,52.0,62.0
1421,180.7572625625,183.09990845,40.0,54.0
1422,182.94255558749998,183.1778495875,55.0,84.0
1423,182.94255558749998,183.2013789875,59.0,75.0
1424,182.94255558749998,183.24402602499998,64.0,71.0
1425,183.11167315,183.2587319,52.0,59.0
1426,183.29108482499998,183.338143625,40.0,68.0
1427,183.6690258125,183.99108447499998,52.0,57.0
1428,183.655790525,184.09990795,60.0,59.0
1429,183.655790525,184.1043197125,57.0,59.0
1430,183.655790525,184.11167265,64.0,58.0
1431,184.208731425,184.4219666125,52.0,59.0
1432,184.3837313375,184.6984370625,57.0,79.0
1433,184.3837313375,184.71167235,60.0,76.0
1434,184.3837313375,184.71167235,64.0,77.0
1435,184.8984369625,184.98226044999998,60.0,67.0
1436,184.88814284999998,185.020495725,57.0,63.0
1437,184.891084025,185.03961336249998,64.0,69.0
1438,184.72196646249998,185.249907375,52.0,43.0
1439,185.24402502499998,185.41167199999998,57.0,75.0
1440,185.2396132625,185.4219661125,60.0,76.0
1441,185.2396132625,185.432260225,64.0,68.0
1442,185.41167199999998,185.76902476249998,52.0,64.0
1443,183.6631434625,185.9307893875,45.0,63.0
1444,185.7543188875,185.9881423,64.0,76.0
1445,185.75873065,186.0837304875,60.0,75.0
1446,185.9102011625,186.1219657625,52.0,59.0
1447,185.7572600625,186.1219657625,57.0,83.0
1448,186.1072598875,186.1528481,45.0,74.0
1449,186.473436175,186.75284779999998,62.0,69.0
1450,186.473436175,186.76167132499998,50.0,67.0
1451,186.45873029999998,186.76167132499998,66.0,86.0
1452,186.4631420625,186.78225955,57.0,79.0
1453,186.98225945,187.23078873749998,50.0,64.0
1454,187.1807887625,187.4396121625,57.0,77.0
1455,187.179318175,187.4719650875,64.0,76.0
1456,187.5337297625,187.75872965,50.0,55.0
1457,187.69108262499998,187.9160825125,57.0,85.0
1458,187.6866708625,187.961670725,62.0,88.0
1459,188.0131412875,188.21461177499998,64.0,68.0
1460,188.0043177625,188.220494125,57.0,59.0
1461,188.202847075,188.56314101249998,50.0,63.0
1462,188.53519985,188.71461152499998,57.0,84.0
1463,186.46755382499998,188.7160821125,38.0,77.0
1464,188.53519985,188.7366703375,66.0,84.0
1465,188.6866703625,188.823435,50.0,50.0
1466,188.89990555,188.94549376249998,38.0,67.0
1467,188.89990555,188.9631408125,57.0,61.0
1468,188.92784671249998,188.9866702125,62.0,45.0
1469,188.8940232,189.0101996125,69.0,73.0
1470,189.2749053625,189.65284635,55.0,58.0
1471,189.26902301249999,189.7160816125,59.0,76.0
1472,189.26902301249999,189.73078748749998,67.0,71.0
1473,189.2749053625,189.73519925,62.0,65.0
1474,189.82637567499998,190.061669675,55.0,61.0
1475,190.0116697,190.2719636875,59.0,84.0
1476,190.0116697,190.2925519125,62.0,79.0
1477,190.0116697,190.2925519125,67.0,87.0
1478,190.3396107125,190.4351989,55.0,51.0
1479,190.514610625,190.6572576125,59.0,64.0
1480,190.5190223875,190.6631399625,62.0,63.0
1481,190.514610625,190.6660811375,67.0,68.0
1482,190.885198675,190.9866692125,59.0,77.0
1483,190.88078691249999,191.0101986125,62.0,72.0
1484,190.88225749999998,191.01755154999998,67.0,73.0
1485,191.0454927125,191.4249042875,55.0,58.0
1486,189.2822583,191.5631395125,43.0,63.0
1487,191.38225724999998,191.62931594999998,59.0,80.0
1488,191.385198425,191.6704924,62.0,75.0
1489,191.5396101125,191.68372768749998,55.0,49.0
1490,191.379316075,191.75872765,67.0,82.0
1491,191.73519825,191.77931587499998,43.0,68.0
1492,192.12343335,192.42931554999998,52.0,45.0
1493,192.102845125,192.4837272875,55.0,63.0
1494,192.102845125,192.4837272875,64.0,67.0
1495,192.102845125,192.48813905,59.0,62.0
1496,192.608727225,192.8484329875,52.0,58.0
1497,192.79549183749998,193.0234329,55.0,79.0
1498,192.7984330125,193.04990347499998,59.0,68.0
1499,192.80578595,193.07196228749999,64.0,62.0
1500,193.1425504875,193.20872692499998,55.0,41.0
1501,193.14696225,193.2190210375,62.0,47.0
1502,193.15284459999998,193.3484327375,52.0,45.0
1503,193.308726875,193.5837267375,55.0,55.0
1504,193.3160798125,193.5925502625,59.0,69.0
1505,193.308726875,193.59402085,64.0,67.0
1506,193.66902081249998,193.8366677875,52.0,63.0
1507,193.8469619,194.02490298749998,55.0,83.0
1508,193.85284425,194.0454912125,59.0,65.0
1509,193.84402072499998,194.0513735625,64.0,71.0
1510,194.0219618125,194.23960876249998,52.0,69.0
1511,194.2101970125,194.4587263,55.0,80.0
1512,192.1072568875,194.46166747499998,40.0,63.0
1513,194.22343229999998,194.47931452499998,59.0,69.0
1514,194.202844075,194.5057851,62.0,74.0
1515,194.5719615375,194.6234321,59.0,62.0
1516,194.4190204375,194.6337262125,52.0,62.0
1517,194.55725566249998,194.66019678749998,55.0,64.0
1518,194.561667425,194.69990264999998,64.0,77.0
1519,194.705785,194.744020275,40.0,72.0
1520,194.9366672375,195.34696115,52.0,68.0
1521,194.91460842499998,195.408725825,57.0,71.0
1522,194.91460842499998,195.4219611125,64.0,64.0
1523,194.92343194999998,195.4249022875,60.0,62.0
1524,195.44696109999998,195.7307844875,52.0,65.0
1525,195.63078453749998,195.89254911249998,60.0,80.0
1526,195.63666688749998,195.896960875,64.0,77.0
1527,195.63666688749998,195.9013726375,57.0,87.0
1528,196.12931369999998,196.1999019,60.0,58.0
1529,196.12196076249998,196.2307842375,64.0,55.0
1530,196.12196076249998,196.235196,57.0,58.0
1531,195.949902025,196.5043135125,52.0,46.0
1532,196.5072546875,196.673431075,60.0,72.0
1533,196.51019586249998,196.67784283749998,57.0,69.0
1534,196.5043135125,196.68813695,64.0,69.0
1535,196.673431075,197.02784266249998,52.0,69.0
1536,194.949902525,197.173430825,45.0,50.0
1537,197.014607375,197.2043131625,64.0,76.0
1538,197.01901913749998,197.2954895875,60.0,75.0
1539,197.0160779625,197.3175484,57.0,80.0
1540,197.14548966249998,197.36754837499998,52.0,51.0
1541,197.3660777875,197.4190189375,45.0,63.0
1542,197.74843053749998,198.09990094999998,50.0,56.0
1543,197.7396070125,198.144018575,62.0,56.0
1544,197.732254075,198.1484303375,57.0,53.0
1545,197.7278423125,198.155783275,66.0,66.0
1546,198.2396067625,198.49990075,50.0,59.0
1547,198.4425478375,198.75872414999998,66.0,74.0
1548,198.4454890125,198.7763712,62.0,69.0
1549,198.43960666249998,198.7778417875,57.0,81.0
1550,198.7837241375,199.0719592875,50.0,47.0
1551,198.97048875,199.23519449999998,66.0,80.0
1552,198.973429925,199.25725331249998,57.0,68.0
1553,198.98078286249998,199.25872389999998,62.0,61.0
1554,199.2925474125,199.51166494999998,50.0,75.0
1555,199.47931202499998,199.68813545,57.0,83.0
1556,199.4866649625,199.6984295625,62.0,72.0
1557,199.4778414375,199.71901778749998,66.0,86.0
1558,197.744018775,199.79401775,38.0,65.0
1559,199.8469589,199.91166475,62.0,44.0
1560,199.66460605,200.032252925,50.0,64.0
1561,199.8396059625,200.03666468749998,57.0,72.0
1562,199.83666478749998,200.208723425,64.0,80.0
1563,199.99695882499998,200.2396057625,38.0,85.0
1564,200.18666461249998,200.2601939875,62.0,72.0
1565,200.21754694999998,200.261664575,50.0,77.0
1566,200.1881352,200.29842926249998,57.0,67.0
1567,200.59107617499998,200.97048775,52.0,59.0
1568,200.59107617499998,201.055781825,64.0,63.0
1569,200.579311475,201.058723,57.0,59.0
1570,200.58225265,201.061664175,60.0,63.0
1571,201.1043112125,201.35431108749998,52.0,54.0
1572,201.31313463749999,201.69989915,57.0,71.0
1573,201.3160758125,201.714605025,64.0,67.0
1574,201.31313463749999,201.720487375,60.0,68.0
1575,200.59401735,201.73519324999998,45.0,53.0
1576,201.67195798749998,201.94842843749998,52.0,58.0
1577,202.008722525,202.3925458625,57.0,80.0
1578,202.008722525,202.420487025,60.0,76.0
1579,202.008722525,202.420487025,64.0,81.0
1580,202.6984280625,202.873427975,57.0,80.0
1581,202.6984280625,202.8807809125,64.0,77.0
1582,202.6984280625,202.89989855,60.0,81.0
1583,202.50578109999998,202.908722075,45.0,69.0
1584,202.8601926875,203.0719572875,52.0,74.0
1585,203.02195731249998,203.07636904999998,45.0,59.0
1586,203.4131335875,203.6925452125,54.0,67.0
1587,203.3984277125,203.8116628,66.0,71.0
1588,203.3984277125,203.81460397499998,59.0,71.0
1589,203.3984277125,203.820486325,62.0,71.0
1590,203.87930982499998,204.102839125,54.0,72.0
1591,204.067545025,204.2572508125,59.0,79.0
1592,204.0660744375,204.2690155125,62.0,76.0
1593,204.0660744375,204.2719566875,66.0,79.0
1594,203.411663,204.2807802125,47.0,62.0
1595,204.255780225,204.4278389625,54.0,53.0
1596,204.455780125,204.52195656249998,47.0,47.0
1597,204.8116623,205.11166215,52.0,54.0
1598,204.79401525,205.208720925,59.0,64.0
1599,204.79842701249999,205.2190150375,55.0,62.0
1600,204.8013681875,205.2190150375,64.0,63.0
1601,205.33960321249998,205.51313253749998,52.0,63.0
1602,204.80725053749998,205.685191275,40.0,57.0
1603,205.5160737125,205.69548538749999,55.0,87.0
1604,205.51313253749998,205.79401475,59.0,80.0
1605,205.5101913625,205.820485325,64.0,79.0
1606,205.6587207,205.8601911875,52.0,61.0
1607,205.85430883749999,205.89548528749998,40.0,63.0
1608,206.2234263,206.461661475,52.0,61.0
1609,206.208720425,206.61754374999998,57.0,72.0
1610,206.20577924999998,206.6351908,64.0,69.0
1611,206.20577924999998,206.6396025625,60.0,69.0
1612,206.72195546249998,206.973425925,52.0,72.0
1613,206.2234263,207.2984257625,45.0,57.0
1614,206.92783771249998,207.385190425,64.0,76.0
1615,206.92783771249998,207.41166099999998,57.0,81.0
1616,206.92783771249998,207.4160727625,60.0,80.0
1617,207.2866610625,207.47489626249998,52.0,55.0
1618,207.791072575,208.01460187499998,57.0,76.0
1619,207.791072575,208.02342539999998,60.0,79.0
1620,207.79401374999998,208.0248959875,64.0,71.0
1621,207.973425425,208.37195463749998,52.0,83.0
1622,207.4337198125,208.549895725,45.0,44.0
1623,208.33960171249998,208.620483925,64.0,81.0
1624,208.33960171249998,208.65136626249998,57.0,88.0
1625,208.33960171249998,208.6543074375,60.0,87.0
1626,208.508719275,208.70577799999998,52.0,63.0
1627,208.679307425,208.7425426875,45.0,50.0
1628,209.0454837125,209.26018948749999,62.0,85.0
1629,209.0454837125,209.296954175,54.0,84.0
1630,209.0513660625,209.30136593749998,50.0,67.0
1631,209.04842488749998,209.302836525,57.0,79.0
1632,209.5660716875,209.6837186875,64.0,77.0
1633,209.5660716875,209.68960103749998,54.0,76.0
1634,209.5690128625,209.70724808749998,57.0,72.0
1635,210.1013655375,210.296953675,50.0,63.0
1636,210.08813024999998,210.355777175,66.0,80.0
1637,210.09401259999999,210.367541875,54.0,79.0
1638,210.1013655375,210.38813009999998,57.0,67.0
1639,209.04842488749998,210.4866594625,38.0,72.0
1640,210.61754175,210.7337181625,50.0,81.0
1641,210.614600575,210.7396005125,38.0,67.0
1642,210.61165939999998,210.78224755,54.0,80.0
1643,210.6234241,210.80577695,62.0,69.0
1644,210.62783586249998,210.80871812499998,57.0,59.0
1645,210.8307769375,210.8954827875,50.0,71.0
1646,210.8351887,210.914600425,38.0,84.0
1647,210.97636509999998,211.02489448749998,38.0,85.0
1648,210.9646004,211.04842388749998,50.0,87.0
1649,210.9984239125,211.0513650625,54.0,68.0
1650,211.00871802499998,211.06460034999998,64.0,62.0
1651,211.0190121375,211.0778356375,57.0,47.0
1652,211.19401205,211.2425414375,38.0,95.0
1653,211.19401205,211.24548261249998,66.0,86.0
1654,211.176365,211.27636495,57.0,63.0
1655,211.1881297,211.27783553749998,50.0,91.0
1656,211.1778355875,211.296953175,54.0,85.0
1657,211.5307765875,211.5778353875,54.0,88.0
1658,211.5307765875,211.5837177375,38.0,88.0
1659,211.53518835,211.5837177375,57.0,59.0
1660,211.538129525,211.5925412625,50.0,68.0
1661,211.526364825,211.63665888749998,66.0,101.0
1662,211.87342347499998,211.96165872499998,57.0,57.0
1663,211.8690117125,211.96165872499998,60.0,59.0
1664,211.8837175875,211.96754107499999,52.0,68.0
1665,211.885188175,211.97636459999998,45.0,59.0
1666,211.8690117125,211.9954822375,64.0,63.0
1667,212.391070275,212.4351879,52.0,72.0
1668,212.391070275,212.4469526,60.0,67.0
1669,212.4013643875,212.449893775,45.0,67.0
1670,212.4013643875,212.45430553749998,57.0,58.0
1671,212.391070275,212.467540825,64.0,67.0
1672,212.89989355,212.94548176249998,38.0,74.0
1673,212.89695237499998,212.96165822499998,57.0,59.0
1674,212.9043053125,212.9631288125,62.0,55.0
1675,212.89107002499998,212.9631288125,66.0,67.0
1676,212.89107002499998,212.9895993875,50.0,77.0
1677,213.291069825,213.355775675,43.0,74.0
1678,213.285187475,213.38077566249999,55.0,75.0
1679,213.27783453749998,213.402834475,59.0,67.0
1680,213.27783453749998,213.402834475,67.0,71.0
1681,213.27930512499998,213.411658,62.0,65.0
1682,213.7925401625,213.9719518375,55.0,47.0
1683,213.973422425,214.3293046,59.0,72.0
1684,214.13665763749998,214.3410693,55.0,47.0
1685,213.96901066249998,214.3454810625,67.0,74.0
1686,214.308716375,214.355775175,43.0,69.0
1687,213.96901066249998,214.3719516375,62.0,67.0
1688,214.69989264999998,214.9484219375,62.0,67.0
1689,214.69989264999998,214.9513631125,67.0,71.0
1690,214.7043044125,214.96165722499998,43.0,77.0
1691,214.7043044125,214.9645984,59.0,68.0
1692,214.69989264999998,214.97048074999998,55.0,75.0
1693,215.2043041625,215.31165704999998,59.0,68.0
1694,215.1984218125,215.3160688125,67.0,71.0
1695,215.19989239999998,215.31900998749998,55.0,88.0
1696,215.1984218125,215.31900998749998,62.0,64.0
1697,215.2043041625,215.32636292499998,43.0,84.0
1698,216.1395978125,217.085185575,59.0,84.0
1699,216.1484213375,217.1101855625,67.0,84.0
1700,216.14400957499998,217.12342085,55.0,94.0
1701,216.1484213375,217.13812672499998,62.0,75.0
1702,216.1484213375,217.15430318749998,43.0,92.0
1703,217.52342065,217.79400875,55.0,84.0
1704,217.5278324125,217.802832275,59.0,76.0
1705,217.529303,217.8072440375,40.0,89.0
1706,217.5278324125,217.8072440375,52.0,88.0
1707,217.5219500625,217.8101852125,64.0,81.0
1708,218.02636157499998,218.07636155,55.0,85.0
1709,218.02636157499998,218.079302725,59.0,74.0
1710,218.01753804999998,218.09989095,64.0,74.0
1711,218.020479225,218.1043027125,52.0,99.0
1712,218.02636157499998,218.11459682499998,40.0,93.0
1713,218.91606701249998,219.32341975,52.0,85.0
1714,218.9057729,219.4043020625,55.0,90.0
1715,218.9101846625,219.4101844125,64.0,81.0
1716,218.9175376,219.41753735,59.0,80.0
1717,219.420478525,219.632243125,52.0,58.0
1718,219.62930194999998,219.7763607,55.0,90.0
1719,218.91606701249998,219.7998901,40.0,87.0
1720,219.620478425,219.86165477499998,64.0,84.0
1721,219.620478425,219.8984194625,59.0,81.0
1722,219.7528313,219.98812529999998,52.0,63.0
1723,219.96459589999998,220.00430176249998,40.0,69.0
1724,220.36900746249998,220.714595525,52.0,51.0
1725,220.349889825,220.77488961249998,57.0,47.0
1726,220.34400747499998,220.7837131375,64.0,58.0
1727,220.33665453749998,220.78959548749998,60.0,58.0
1728,220.86165427499998,221.2395952625,52.0,42.0
1729,221.061654175,221.373418725,57.0,67.0
1730,221.06753652499998,221.38224225,64.0,63.0
1731,221.0631247625,221.39400694999998,60.0,67.0
1732,221.5866539125,221.6925362125,60.0,65.0
1733,221.5866539125,221.70283032499998,64.0,56.0
1734,221.5866539125,221.7057715,57.0,56.0
1735,221.4131245875,221.94988902499998,52.0,39.0
1736,221.95577137499998,222.117536,57.0,63.0
1737,221.94988902499998,222.12341834999998,60.0,67.0
1738,221.95871255,222.1337124625,64.0,59.0
1739,222.13518305,222.43959466249999,52.0,59.0
1740,222.44841818749998,222.59841811249998,64.0,65.0
1741,220.34694865,222.6131239875,45.0,58.0
1742,222.4513593625,222.649888675,60.0,68.0
1743,222.44841818749998,222.6895945375,57.0,74.0
1744,222.6013592875,222.7954768375,52.0,53.0
1745,222.7881239,222.84106505,45.0,56.0
1746,223.1690060625,223.4469471,50.0,56.0
1747,223.1513590125,223.4837117875,66.0,55.0
1748,223.1690060625,223.49694707499998,62.0,54.0
1749,223.15577077499998,223.51165294999998,57.0,45.0
1750,223.6601822875,223.8748880625,50.0,56.0
1751,223.85429983749998,224.09253501249998,67.0,76.0
1752,223.87047629999998,224.1057703,62.0,58.0
1753,223.86312336249998,224.117535,57.0,71.0
1754,224.2160643625,224.3425348875,50.0,46.0
1755,224.3895936875,224.6425347375,69.0,63.0
1756,224.3895936875,224.649887675,57.0,67.0
1757,224.3984172125,224.65282885,62.0,55.0
1758,224.7307699875,224.8719463875,50.0,52.0
1759,224.9072404875,224.9925345625,62.0,55.0
1760,224.8984169625,225.032240425,57.0,63.0
1761,224.88665226249998,225.0572404125,66.0,71.0
1762,225.073416875,225.23518149999998,50.0,50.0
1763,223.161653125,225.432240225,38.0,58.0
1764,225.25871089999998,225.432240225,57.0,75.0
1765,225.255769725,225.47635785,64.0,71.0
1766,225.4234167,225.50576959999998,50.0,67.0
1767,225.60724013749999,225.661651875,57.0,63.0
1768,225.6219460125,225.6690048125,38.0,58.0
1769,225.602828375,225.6925342125,62.0,67.0
1770,226.0013575875,226.2631221625,52.0,56.0
1771,225.9866517125,226.373416225,57.0,58.0
1772,225.97488701249998,226.3895926875,64.0,63.0
1773,225.98076936249998,226.39400444999998,60.0,61.0
1774,226.51459262499998,226.68959253749998,52.0,48.0
1775,226.00429876249999,226.92341595,45.0,52.0
1776,226.71900428749998,227.0513570625,57.0,74.0
1777,226.7101807625,227.079298225,60.0,75.0
1778,226.708710175,227.08665116249998,64.0,75.0
1779,226.885180675,227.10135703749998,52.0,64.0
1780,227.0660629375,227.1366511375,45.0,51.0
1781,227.4395921625,227.78518022499998,57.0,59.0
1782,227.42635687499998,227.8042978625,64.0,59.0
1783,227.42929805,227.80576845,60.0,59.0
1784,227.920474275,228.09253301249998,52.0,72.0
1785,228.2587094,228.47341517499999,52.0,79.0
1786,228.43370931249999,228.479297525,45.0,69.0
1787,228.096944775,228.49988574999998,57.0,80.0
1788,228.0895918375,228.5572386625,60.0,87.0
1789,228.09400359999998,228.59253276249999,64.0,81.0
1790,228.76017973749998,229.14988542499998,52.0,46.0
1791,228.7572385625,229.18812069999998,59.0,53.0
1792,228.7572385625,229.1925324625,64.0,56.0
1793,228.7572385625,229.2013559875,55.0,56.0
1794,229.32341474999998,229.6395910625,52.0,47.0
1795,229.5101793625,229.796943925,55.0,69.0
1796,229.5101793625,229.80576745,59.0,71.0
1797,229.5101793625,229.81606156249998,64.0,71.0
1798,230.0572379125,230.13370846249998,59.0,63.0
1799,230.06312026249998,230.1366496375,55.0,68.0
1800,230.0572379125,230.14988492499998,64.0,68.0
1801,229.8704733,230.32341424999998,52.0,41.0
1802,230.23812017499998,230.5763553,55.0,59.0
1803,230.23664958749998,230.58223765,59.0,67.0
1804,230.2337084125,230.59547293749998,64.0,69.0
1805,230.60576705,230.914590425,52.0,62.0
1806,228.7572385625,231.09988445,40.0,54.0
1807,230.94253158749999,231.1778255875,55.0,84.0
1808,230.94253158749999,231.2013549875,59.0,75.0
1809,230.94253158749999,231.244002025,64.0,71.0
1810,231.11164914999998,231.2587079,52.0,59.0
1811,231.291060825,231.338119625,40.0,68.0
1812,231.6690018125,231.99106047499998,52.0,57.0
1813,231.655766525,232.09988395,60.0,59.0
1814,231.655766525,232.10429571249998,57.0,59.0
1815,231.655766525,232.11164864999998,64.0,58.0
1816,232.208707425,232.42194261249998,52.0,59.0
1817,232.3837073375,232.69841306249998,57.0,79.0
1818,232.3837073375,232.71164835,60.0,76.0
1819,232.3837073375,232.71164835,64.0,77.0
1820,232.89841296249998,232.98223645,60.0,67.0
1821,232.88811884999998,233.020471725,57.0,63.0
1822,232.891060025,233.03958936249998,64.0,69.0
1823,232.72194246249998,233.249883375,52.0,43.0
1824,233.244001025,233.41164799999999,57.0,75.0
1825,233.23958926249998,233.42194211249998,60.0,76.0
1826,233.23958926249998,233.432236225,64.0,68.0
1827,233.41164799999999,233.76900076249999,52.0,64.0
1828,231.6631194625,233.9307653875,45.0,63.0
1829,233.75429488749998,233.9881183,64.0,76.0
1830,233.75870665,234.0837064875,60.0,75.0
1831,233.9101771625,234.1219417625,52.0,59.0
1832,233.7572360625,234.1219417625,57.0,83.0
1833,234.1072358875,234.15282409999998,45.0,74.0
1834,234.473412175,234.7528238,62.0,69.0
1835,234.473412175,234.76164732499998,50.0,67.0
1836,234.4587063,234.76164732499998,66.0,86.0
1837,234.4631180625,234.78223555,57.0,79.0
1838,234.98223545,235.23076473749998,50.0,64.0
1839,235.1807647625,235.4395881625,57.0,77.0
1840,235.179294175,235.4719410875,64.0,76.0
1841,235.53370576249998,235.75870565,50.0,55.0
1842,235.69105862499998,235.9160585125,57.0,85.0
1843,235.6866468625,235.96164672499998,62.0,88.0
1844,236.0131172875,236.21458777499998,64.0,68.0
1845,236.0042937625,236.220470125,57.0,59.0
1846,236.202823075,236.5631170125,50.0,63.0
1847,236.53517585,236.71458752499998,57.0,84.0
1848,234.46752982499999,236.71605811249998,38.0,77.0
1849,236.53517585,236.7366463375,66.0,84.0
1850,236.6866463625,236.823411,50.0,50.0
1851,236.89988154999998,236.94546976249998,38.0,67.0
1852,236.89988154999998,236.96311681249998,57.0,61.0
1853,236.9278227125,236.98664621249998,62.0,45.0
1854,236.8939992,237.01017561249998,69.0,73.0
1855,237.2748813625,237.65282234999998,55.0,58.0
1856,237.2689990125,237.71605761249998,59.0,76.0
1857,237.2689990125,237.73076348749998,67.0,71.0
1858,237.2748813625,237.73517525,62.0,65.0
1859,237.82635167499998,238.061645675,55.0,61.0
1860,238.0116457,238.27193968749998,59.0,84.0
1861,238.0116457,238.2925279125,62.0,79.0
1862,238.0116457,238.2925279125,67.0,87.0
1863,238.3395867125,238.4351749,55.0,51.0
1864,238.514586625,238.6572336125,59.0,64.0
1865,238.51899838749998,238.6631159625,62.0,63.0
1866,238.514586625,238.6660571375,67.0,68.0
1867,238.885174675,238.98664521249998,59.0,77.0
1868,238.8807629125,239.01017461249998,62.0,72.0
1869,238.88223349999998,239.01752754999998,67.0,73.0
1870,239.0454687125,239.4248802875,55.0,58.0
1871,237.2822343,239.5631155125,43.0,63.0
1872,239.38223324999998,239.62929194999998,59.0,80.0
1873,239.385174425,239.67046839999998,62.0,75.0
1874,239.5395861125,239.68370368749999,55.0,49.0
1875,239.379292075,239.75870365,67.0,82.0
1876,239.73517425,239.77929187499998,43.0,68.0
1877,240.12340935,240.42929155,52.0,45.0
1878,240.102821125,240.4837032875,55.0,63.0
1879,240.102821125,240.4837032875,64.0,67.0
1880,240.102821125,240.48811504999998,59.0,62.0
1881,240.608703225,240.8484089875,52.0,58.0
1882,240.79546783749998,241.0234089,55.0,79.0
1883,240.7984090125,241.04987947499998,59.0,68.0
1884,240.80576194999998,241.0719382875,64.0,62.0
1885,241.1425264875,241.20870292499998,55.0,41.0
1886,241.14693824999998,241.2189970375,62.0,47.0
1887,241.15282059999998,241.3484087375,52.0,45.0
1888,241.308702875,241.58370273749998,55.0,55.0
1889,241.3160558125,241.5925262625,59.0,69.0
1890,241.308702875,241.59399685,64.0,67.0
1891,241.66899681249998,241.83664378749998,52.0,63.0
1892,241.8469379,242.0248789875,55.0,83.0
1893,241.85282024999998,242.0454672125,59.0,65.0
1894,241.84399672499998,242.05134956249998,64.0,71.0
1895,242.0219378125,242.2395847625,52.0,69.0
1896,242.21017301249998,242.4587023,55.0,80.0
1897,240.10723288749998,242.461643475,40.0,63.0
1898,242.2234083,242.47929052499998,59.0,69.0
1899,242.20282007499998,242.5057611,62.0,74.0
1900,242.5719375375,242.62340809999998,59.0,62.0
1901,242.4189964375,242.6337022125,52.0,62.0
1902,242.5572316625,242.6601727875,55.0,64.0
1903,242.561643425,242.69987865,64.0,77.0
1904,242.705761,242.743996275,40.0,72.0
1905,242.9366432375,243.34693715,52.0,68.0
1906,242.914584425,243.40870182499998,57.0,71.0
1907,242.914584425,243.4219371125,64.0,64.0
1908,242.92340794999998,243.42487828749998,60.0,62.0
1909,243.44693709999999,243.7307604875,52.0,65.0
1910,243.63076053749998,243.89252511249998,60.0,80.0
1911,243.6366428875,243.896936875,64.0,77.0
1912,243.6366428875,243.90134863749998,57.0,87.0
1913,244.1292897,244.1998779,60.0,58.0
1914,244.12193676249998,244.2307602375,64.0,55.0
1915,244.12193676249998,244.23517199999998,57.0,58.0
1916,243.94987802499998,244.50428951249998,52.0,46.0
1917,244.5072306875,244.673407075,60.0,72.0
1918,244.5101718625,244.67781883749998,57.0,69.0
1919,244.50428951249998,244.68811294999998,64.0,69.0
1920,244.673407075,245.02781866249998,52.0,69.0
1921,242.949878525,245.173406825,45.0,50.0
1922,245.014583375,245.20428916249998,64.0,76.0
1923,245.01899513749999,245.2954655875,60.0,75.0
1924,245.0160539625,245.3175244,57.0,80.0
1925,245.1454656625,245.367524375,52.0,51.0
1926,245.3660537875,245.4189949375,45.0,63.0
1927,245.7484065375,246.09987694999998,50.0,56.0
1928,245.7395830125,246.143994575,62.0,56.0
1929,245.732230075,246.14840633749998,57.0,53.0
1930,245.72781831249998,246.15575927499998,66.0,66.0
1931,246.2395827625,246.49987675,50.0,59.0
1932,246.44252383749998,246.75870014999998,66.0,74.0
1933,246.4454650125,246.77634719999998,62.0,69.0
1934,246.4395826625,246.7778177875,57.0,81.0
1935,246.78370013749998,247.0719352875,50.0,47.0
1936,246.97046475,247.23517049999998,66.0,80.0
1937,246.97340592499998,247.2572293125,57.0,68.0
1938,246.98075886249998,247.25869989999998,62.0,61.0
1939,247.29252341249997,247.51164095,50.0,75.0
1940,247.479288025,247.68811144999998,57.0,83.0
1941,247.4866409625,247.6984055625,62.0,72.0
1942,247.4778174375,247.71899378749998,66.0,86.0
1943,245.74399477499998,247.79399375,38.0,65.0
1944,247.84693489999998,247.91164074999998,62.0,44.0
1945,247.66458204999998,248.032228925,50.0,64.0
1946,247.83958196249998,248.03664068749998,57.0,72.0
1947,247.8366407875,248.208699425,64.0,80.0
1948,247.99693482499998,248.2395817625,38.0,85.0
1949,248.18664061249999,248.26016998749998,62.0,72.0
1950,248.21752295,248.261640575,50.0,77.0
1951,248.18811119999998,248.29840526249998,57.0,67.0
1952,248.591052175,248.97046375,52.0,59.0
1953,248.591052175,249.055757825,64.0,63.0
1954,248.579287475,249.058699,57.0,59.0
1955,248.58222865,249.06164017499998,60.0,63.0
1956,249.1042872125,249.35428708749998,52.0,54.0
1957,249.3131106375,249.69987515,57.0,71.0
1958,249.31605181249998,249.714581025,64.0,67.0
1959,249.3131106375,249.72046337499998,60.0,68.0
1960,248.59399334999998,249.73516924999998,45.0,53.0
1961,249.67193398749998,249.9484044375,52.0,58.0
1962,250.008698525,250.3925218625,57.0,80.0
1963,250.008698525,250.42046302499998,60.0,76.0
1964,250.008698525,250.42046302499998,64.0,81.0
1965,250.69840406249997,250.873403975,57.0,80.0
1966,250.69840406249997,250.88075691249998,64.0,77.0
1967,250.69840406249997,250.89987455,60.0,81.0
1968,250.50575709999998,250.908698075,45.0,69.0
1969,250.8601686875,251.0719332875,52.0,74.0
1970,251.02193331249998,251.07634505,45.0,59.0
1971,251.41310958749997,251.6925212125,54.0,67.0
1972,251.3984037125,251.8116388,66.0,71.0
1973,251.3984037125,251.814579975,59.0,71.0
1974,251.3984037125,251.820462325,62.0,71.0
1975,251.87928582499998,252.10281512499998,54.0,72.0
1976,252.067521025,252.2572268125,59.0,79.0
1977,252.0660504375,252.26899151249998,62.0,76.0
1978,252.0660504375,252.2719326875,66.0,79.0
1979,251.41163899999998,252.2807562125,47.0,62.0
1980,252.255756225,252.42781496249998,54.0,53.0
1981,252.455756125,252.52193256249998,47.0,47.0
1982,252.8116383,253.11163814999998,52.0,54.0
1983,252.79399124999998,253.208696925,59.0,64.0
1984,252.7984030125,253.2189910375,55.0,62.0
1985,252.80134418749998,253.2189910375,64.0,63.0
1986,253.33957921249998,253.5131085375,52.0,63.0
1987,252.8072265375,253.685167275,40.0,57.0
1988,253.51604971249998,253.6954613875,55.0,87.0
1989,253.5131085375,253.79399074999998,59.0,80.0
1990,253.5101673625,253.820461325,64.0,79.0
1991,253.65869669999998,253.8601671875,52.0,61.0
1992,253.8542848375,253.89546128749998,40.0,63.0
1993,254.22340229999998,254.46163747499997,52.0,61.0
1994,254.208696425,254.61751974999999,57.0,72.0
1995,254.20575524999998,254.63516679999998,64.0,69.0
1996,254.20575524999998,254.6395785625,60.0,69.0
1997,254.72193146249998,254.973401925,52.0,72.0
1998,254.22340229999998,255.2984017625,45.0,57.0
1999,254.92781371249998,255.385166425,64.0,76.0
2000,254.92781371249998,255.41163699999998,57.0,81.0
2001,254.92781371249998,255.4160487625,60.0,80.0
2002,255.28663706249998,255.47487226249999,52.0,55.0
2003,255.791048575,256.014577875,57.0,76.0
2004,255.791048575,256.0234014,60.0,79.0
2005,255.79398974999998,256.0248719875,64.0,71.0
2006,255.973401425,256.3719306375,52.0,83.0
2007,255.4336958125,256.549871725,45.0,44.0
2008,256.3395777125,256.620459925,64.0,81.0
2009,256.3395777125,256.6513422625,57.0,88.0
2010,256.3395777125,256.6542834375,60.0,87.0
2011,256.508695275,256.705754,52.0,63.0
2012,256.679283425,256.74251868749997,45.0,50.0
2013,257.04545971249996,257.2601654875,62.0,85.0
2014,257.04545971249996,257.296930175,54.0,84.0
2015,257.0513420625,257.3013419375,50.0,67.0
2016,257.0484008875,257.302812525,57.0,79.0
2017,257.5660476875,257.6836946875,64.0,77.0
2018,257.5660476875,257.6895770375,54.0,76.0
2019,257.56898886249996,257.7072240875,57.0,72.0
2020,258.1013415375,258.296929675,50.0,63.0
2021,258.08810625,258.35575317499996,66.0,80.0
2022,258.0939886,258.367517875,54.0,79.0
2023,258.1013415375,258.3881061,57.0,67.0
2024,257.0484008875,258.4866354625,38.0,72.0
2025,258.61751775,258.7336941625,50.0,81.0
2026,258.614576575,258.7395765125,38.0,67.0
2027,258.6116354,258.78222354999997,54.0,80.0
2028,258.62340009999997,258.80575295,62.0,69.0
2029,258.6278118625,258.808694125,57.0,59.0
2030,258.8307529375,258.8954587875,50.0,71.0
2031,258.8351647,258.914576425,38.0,84.0
2032,258.9763411,259.0248704875,38.0,85.0
2033,258.9645764,259.0483998875,50.0,87.0
2034,258.99839991249996,259.0513410625,54.0,68.0
2035,259.008694025,259.06457635,64.0,62.0
2036,259.0189881375,259.07781163749996,57.0,47.0
2037,259.19398805,259.2425174375,38.0,95.0
2038,259.19398805,259.2454586125,66.0,86.0
2039,259.176341,259.27634094999996,57.0,63.0
2040,259.1881057,259.2778115375,50.0,91.0
2041,259.1778115875,259.296929175,54.0,85.0
2042,259.5307525875,259.5778113875,54.0,88.0
2043,259.5307525875,259.58369373749997,38.0,88.0
2044,259.53516435,259.58369373749997,57.0,59.0
2045,259.538105525,259.5925172625,50.0,68.0
2046,259.526340825,259.6366348875,66.0,101.0
2047,259.8778112375,260.00575234999997,52.0,51.0
2048,259.85281125,260.108693475,57.0,58.0
2049,259.8425171375,260.126340525,60.0,56.0
2050,259.8425171375,260.138105225,64.0,57.0
2051,260.38222275,260.638104975,57.0,62.0
2052,260.367516875,260.685163775,60.0,65.0
2053,260.3719286375,260.691046125,64.0,69.0
2054,259.8572230125,260.7292814,45.0,55.0
2055,260.9689871625,261.03810477499997,62.0,65.0
2056,260.9778106875,261.0689871125,57.0,51.0
2057,260.985163625,261.0983988625,38.0,59.0
2058,260.9631048125,261.0983988625,66.0,71.0
2059,260.99104597499996,261.11016356249996,50.0,50.0
2060,261.343986975,261.79398675,59.0,56.0
2061,261.34839873749996,261.826339675,67.0,64.0
2062,261.33810462499997,261.843986725,62.0,61.0
2063,261.33810462499997,262.01751605,55.0,68.0
2064,261.999869,262.0983983625,59.0,68.0
2065,261.99104547499996,262.1631042125,67.0,76.0
2066,261.996927825,262.185163025,62.0,65.0
2067,262.38222175,262.48222169999997,55.0,39.0
2068,262.5160452125,262.7219274625,59.0,74.0
2069,262.508692275,262.7425156875,67.0,71.0
2070,262.5057511,262.74692745,62.0,72.0
2071,261.3572222625,262.87928032499997,43.0,51.0
2072,262.8454568125,263.01604496249996,59.0,63.0
2073,262.843986225,263.0278096625,67.0,62.0
2074,262.8366332875,263.0351626,62.0,61.0
2075,263.349868325,263.4572212125,59.0,75.0
2076,263.0072214375,263.5013388375,55.0,81.0
2077,263.349868325,263.5366329375,67.0,76.0
2078,263.3513389125,263.55869175,62.0,71.0
2079,263.4895741375,263.65280935,43.0,79.0
2080,263.6822211,263.72045637499997,55.0,80.0
2081,264.07633855,264.4366324875,55.0,47.0
2082,264.061632675,264.4836912875,59.0,56.0
2083,264.0542797375,264.5013383375,67.0,62.0
2084,264.0572209125,264.502808925,62.0,59.0
2085,264.820455825,265.1395733125,59.0,67.0
2086,264.8189852375,265.1645733,67.0,67.0
2087,264.8160440625,265.179279175,62.0,67.0
2088,264.079279725,265.2189850375,43.0,54.0
2089,265.1689850625,265.220455625,55.0,63.0
2090,265.53957311249997,265.64398482499996,59.0,50.0
2091,265.5366319375,265.6748671625,62.0,58.0
2092,265.53222017499996,265.6748671625,67.0,58.0
2093,265.54692604999997,266.0836904875,55.0,48.0
2094,265.5366319375,266.4248667875,43.0,53.0
2095,265.9057494,266.5895725875,59.0,49.0
2096,265.8939847,266.5925137625,62.0,47.0
2097,266.5748667125,266.62927845,55.0,76.0
2098,265.8939847,266.6954548875,67.0,55.0
2099,266.967513575,267.33516045,55.0,55.0
2100,266.9572194625,267.338101625,59.0,53.0
2101,266.95133711249997,267.3572192625,64.0,61.0
2102,266.98221945,267.6807485125,52.0,47.0
2103,267.6351603,267.8631013625,59.0,68.0
2104,267.638101475,268.00133658749996,55.0,71.0
2105,267.6395720625,268.00574835,64.0,69.0
2106,266.9748665125,268.014571875,40.0,54.0
2107,267.9454542625,268.0601600875,59.0,68.0
2108,268.338101125,268.44545401249997,59.0,47.0
2109,268.343983475,268.4513363625,55.0,53.0
2110,268.343983475,268.4836892875,64.0,50.0
2111,268.332218775,268.9013361375,52.0,53.0
2112,268.6822186,269.0778066375,55.0,68.0
2113,268.338101125,269.1983948125,40.0,56.0
2114,268.6822186,269.2704536,59.0,69.0
2115,268.6748656625,269.367512375,64.0,64.0
2116,269.38368883749996,269.4351594,52.0,64.0
2117,269.76310041249997,270.12045317499997,57.0,51.0
2118,269.7528063,270.1292767,64.0,61.0
2119,269.7528063,270.13810022499996,60.0,59.0
2120,269.785159225,270.526335325,52.0,57.0
2121,269.767512175,270.5925117625,45.0,50.0
2122,270.47780593749997,270.8704528,57.0,56.0
2123,270.47633535,270.8704528,64.0,67.0
2124,270.47045299999996,270.8807469125,60.0,69.0
2125,270.8366292875,270.8836880875,52.0,63.0
2126,271.1807467625,271.29986435,57.0,47.0
2127,271.17045265,271.320452575,60.0,54.0
2128,271.173393825,271.3248643375,64.0,59.0
2129,271.1807467625,271.8513346625,52.0,61.0
2130,271.529276,271.991040475,57.0,56.0
2131,271.520452475,272.13515805,60.0,53.0
2132,271.529276,272.1630992125,64.0,54.0
2133,271.1895702875,272.1763345,45.0,53.0
2134,272.24692269999997,272.2954520875,52.0,58.0
2135,272.61456957499996,272.9763341,50.0,43.0
2136,272.5983931125,272.9778046875,62.0,61.0
2137,272.585157825,272.9807458625,66.0,63.0
2138,272.5983931125,272.985157625,57.0,54.0
2139,272.5998637,273.6278043625,38.0,53.0
2140,273.2807457125,273.64398082499997,62.0,59.0
2141,273.27192218749997,273.64398082499997,66.0,68.0
2142,273.285157475,273.655745525,57.0,56.0
2143,273.6233926,273.679274925,50.0,56.0
2144,273.97192183749996,274.07633355,62.0,51.0
2145,273.967510075,274.0954511875,57.0,51.0
2146,273.967510075,274.102804125,66.0,54.0
2147,273.9778041875,274.5954509375,50.0,57.0
2148,274.32192166249996,274.95721546249996,57.0,67.0
2149,273.9778041875,274.985156625,38.0,61.0
2150,274.314568725,275.00574485,66.0,66.0
2151,274.32927459999996,275.0219213125,62.0,63.0
2152,275.0219213125,275.0719212875,50.0,57.0
2153,275.3954505375,275.7748621125,64.0,63.0
2154,275.4101564125,275.7778032875,57.0,57.0
2155,275.40574465,275.79397975,60.0,59.0
2156,275.4130975875,276.1425089875,52.0,56.0
2157,276.1248619375,276.3983912125,60.0,64.0
2158,276.1278031125,276.41603826249997,57.0,63.0
2159,276.1248619375,276.426332375,64.0,67.0
2160,276.479273525,276.532214675,52.0,61.0
2161,275.41603876249997,276.5513323125,45.0,47.0
2162,276.8366262875,277.243979025,57.0,55.0
2163,276.81750865,277.243979025,66.0,62.0
2164,276.82780276249997,277.2483907875,62.0,59.0
2165,276.8366262875,277.5895670875,50.0,54.0
2166,277.54692005,277.8748610625,57.0,72.0
2167,277.54250828749997,277.9057434,62.0,72.0
2168,277.5366259375,277.914566925,66.0,76.0
2169,277.89250811249997,277.9866257125,50.0,59.0
2170,278.2469197,278.561625425,52.0,52.0
2171,278.2395667625,278.649860675,55.0,61.0
2172,278.2366255875,278.649860675,59.0,58.0
2173,278.232213825,278.6660371375,64.0,62.0
2174,278.7895664875,278.9160370125,52.0,43.0
2175,278.9689781625,279.29691917499997,55.0,72.0
2176,278.96456639999997,279.3130956375,59.0,77.0
2177,278.96456639999997,279.32191916249997,64.0,72.0
2178,279.2983897625,279.6483895875,52.0,43.0
2179,279.6586837,280.0248599875,59.0,53.0
2180,279.667507225,280.04103645,64.0,44.0
2181,279.67633075,280.04397762499997,55.0,44.0
2182,280.17338932499996,280.391036275,52.0,57.0
2183,280.37191863749996,280.64103615,55.0,72.0
2184,280.3660362875,280.685153775,59.0,76.0
2185,278.2483902875,280.7130949375,40.0,54.0
2186,280.3660362875,280.73515375,64.0,74.0
2187,280.7072125875,280.749859625,52.0,67.0
2188,281.0748594625,281.4748592625,57.0,59.0
2189,281.06897711249997,281.4778004375,60.0,65.0
2190,281.06162417499996,281.485153375,64.0,63.0
2191,281.0778006375,281.7998591,52.0,47.0
2192,281.7630944125,282.04397662499997,57.0,74.0
2193,281.7601532375,282.079270725,60.0,76.0
2194,281.7630944125,282.0983883625,64.0,71.0
2195,281.0778006375,282.12338834999997,45.0,53.0
2196,282.11603541249997,282.16603538749996,52.0,69.0
2197,282.49103522499996,282.86309386249997,57.0,58.0
2198,282.4689764125,282.955740875,62.0,76.0
2199,282.47338817499997,282.961623225,69.0,74.0
2200,282.4689764125,282.9807408625,66.0,71.0
2201,283.0013290875,283.2660348375,57.0,64.0
2202,283.1895642875,283.52927,62.0,85.0
2203,282.485152875,283.5336817625,50.0,56.0
2204,283.191034875,283.55279939999997,66.0,80.0
2205,283.1895642875,283.567505275,69.0,90.0
2206,283.532211175,283.57779938749997,57.0,67.0
2207,283.8925051125,284.249857875,59.0,77.0
2208,283.8895639375,284.2822108,67.0,80.0
2209,283.8895639375,284.28809315,62.0,76.0
2210,284.5689753625,284.8939752,59.0,64.0
2211,284.56309301249996,284.9057399,67.0,68.0
2212,284.5719165375,284.908681075,62.0,72.0
2213,284.93515164999997,285.4542690375,55.0,47.0
2214,285.28809265,285.614563075,59.0,67.0
2215,285.28809265,285.64250423749996,62.0,76.0
2216,285.2807397125,285.643974825,67.0,71.0
2217,285.7527983,286.00573935,55.0,40.0
2218,285.973386425,286.2160333625,59.0,72.0
2219,283.8925051125,286.26309216249996,43.0,80.0
2220,285.9719158375,286.30720978749997,67.0,76.0
2221,285.9777981875,286.34985682499996,62.0,72.0
2222,286.314562725,286.352798,55.0,64.0
2223,286.5366214375,286.6983860625,71.0,59.0
2224,286.5366214375,286.7101507625,74.0,68.0
2225,286.7130919375,289.5395611125,79.0,60.0
2226,286.7130919375,290.9689721625,55.0,64.0
2227,286.7130919375,290.97044274999996,50.0,90.0
2228,286.7130919375,290.99397215,43.0,66.0
