,start,end,pitch,velocity
0,1.4490119020833336,3.0279579020833336,80.0,114.0
1,3.0279579020833336,3.4226944020833336,78.0,83.0
2,3.4226944020833336,3.8174309020833337,80.0,94.0
3,3.8174309020833337,4.210522666666668,82.0,104.0
4,4.212167402083334,4.606903902083334,82.0,107.0
5,4.606903902083334,4.8042721520833345,83.0,119.0
6,4.8042721520833345,5.019732491666668,82.0,94.0
7,5.001640402083334,5.791113402083334,80.0,96.0
8,5.791113402083334,5.988481652083334,77.0,108.0
9,5.988481652083334,6.185849902083334,75.0,93.0
10,6.185849902083334,6.9753229020833345,73.0,102.0
11,6.9753229020833345,7.370059402083334,70.0,113.0
12,7.370059402083334,7.763151166666668,68.0,113.0
13,7.764795902083335,9.738478402083334,68.0,113.0
14,9.738478402083334,9.983543979166669,65.0,86.0
15,9.935846652083335,10.197359583333334,66.0,87.0
16,10.133214902083335,10.378280479166667,68.0,92.0
17,10.330583152083335,10.613477643750002,73.0,89.0
18,10.527951402083335,10.725319652083336,75.0,87.0
19,10.725319652083336,10.921043166666669,77.0,91.0
20,10.922687902083336,11.120056152083334,77.0,100.0
21,11.120056152083334,11.317424402083335,75.0,87.0
22,11.317424402083335,13.093738652083335,73.0,90.0
23,36.975296902083336,37.17266515208334,73.0,107.0
24,37.17266515208334,37.37003340208334,72.0,96.0
25,37.37003340208334,37.56740165208334,73.0,94.0
26,37.56740165208334,37.76476990208334,75.0,100.0
27,37.76476990208334,43.68581740208334,77.0,113.0
28,43.68581740208334,44.08055390208334,80.0,85.0
29,44.08055390208334,44.27792215208334,78.0,88.0
30,44.27792215208334,44.47529040208334,70.0,90.0
31,44.47529040208334,44.67265865208334,77.0,87.0
32,44.67265865208334,44.87002690208334,70.0,89.0
33,44.87002690208334,45.06739515208334,75.0,79.0
34,45.06739515208334,45.26476340208334,70.0,85.0
35,45.26476340208334,45.46213165208334,73.0,72.0
36,45.46213165208334,45.71871037708334,70.0,78.0
37,45.65949990208334,46.17430208750001,73.0,87.0
38,88.29104190208335,88.52459433125001,68.0,93.0
39,88.48841015208335,88.68577840208334,70.0,87.0
40,88.68577840208334,88.92097556666668,68.0,87.0
41,88.88314665208334,89.08051490208335,70.0,89.0
42,89.08051490208335,89.31406733125002,68.0,91.0
43,89.27788315208335,89.47525140208334,70.0,89.0
44,89.47525140208334,89.67261965208334,73.0,88.0
45,89.67261965208334,89.86998790208335,75.0,89.0
46,89.86998790208335,90.50650050833335,80.0,92.0
47,106.44892090208334,106.79102586875001,77.0,117.0
48,106.84365740208335,107.20220972291668,75.0,104.0
49,107.23839390208335,107.88313018541669,73.0,116.0
50,109.21207640208335,109.30911579166668,75.0,108.0
51,109.40944465208335,109.52457613125002,77.0,96.0
52,109.60681290208335,109.84694427291669,73.0,114.0
53,116.71206990208336,117.00812227708334,75.0,93.0
54,117.00812227708334,117.14299058125002,77.0,87.0
55,117.10680640208335,117.23180629375001,75.0,85.0
56,117.20549052708336,117.41930613125002,73.0,91.0
57,117.40285877708335,117.52127972708335,75.0,89.0
58,117.50154290208336,117.69891115208335,70.0,96.0
59,117.69891115208335,117.79759527708335,73.0,88.0
60,117.79759527708335,117.94397672916668,70.0,89.0
61,117.89627940208335,118.09364765208335,68.0,94.0
62,118.09364765208335,118.29101590208334,70.0,89.0
63,118.29101590208334,118.48838415208336,65.0,104.0
64,118.48838415208336,118.58706827708335,68.0,76.0
65,118.58706827708335,118.71371290416668,65.0,90.0
66,118.68575240208335,118.88312065208335,63.0,92.0
67,118.88312065208335,119.08048890208335,65.0,104.0
68,119.08048890208335,119.28443609375002,63.0,104.0
69,119.17917302708335,119.67259365208335,61.0,93.0
70,119.67259365208335,119.86996190208335,58.0,91.0
71,119.86996190208335,120.09364591875001,56.0,104.0
72,120.06733015208336,120.26469840208335,58.0,100.0
73,120.26469840208335,120.46206665208335,61.0,102.0
74,120.46206665208335,120.66107963750002,58.0,88.0
75,120.65943490208335,120.86831630000002,61.0,113.0
76,120.85680315208336,121.05417140208336,63.0,114.0
77,121.05417140208336,121.25153965208335,61.0,107.0
78,121.25153965208335,121.44890790208335,63.0,113.0
79,121.44890790208335,123.42259040208336,65.0,116.0
80,123.42259040208336,123.61995865208335,56.0,98.0
81,123.61995865208335,123.81732690208335,58.0,98.0
82,123.81732690208335,124.01469515208335,61.0,110.0
83,124.01469515208335,124.21206340208336,58.0,100.0
84,124.21206340208336,124.40943165208336,61.0,100.0
85,124.40943165208336,124.60679990208335,63.0,102.0
86,124.60679990208335,124.87324703958335,65.0,116.0
87,124.80416815208335,124.87324703958335,65.0,110.0
88,125.00153640208335,125.19890465208336,63.0,107.0
89,125.19890465208336,125.39462816666669,61.0,94.0
90,125.39627290208335,126.58048240208335,61.0,113.0
91,126.58048240208335,126.77785065208336,63.0,113.0
92,126.77785065208336,126.97521890208336,65.0,107.0
93,126.97521890208336,127.17258715208335,68.0,108.0
94,127.17258715208335,127.36995540208335,70.0,107.0
95,127.36995540208335,127.56732365208335,68.0,96.0
96,127.56732365208335,127.76469190208336,70.0,102.0
97,127.76469190208336,128.06074427708336,72.0,110.0
98,128.06074427708336,128.15942840208336,70.0,86.0
99,128.15942840208336,128.55252016666668,68.0,87.0
100,128.55416490208336,129.73837440208337,68.0,87.0
101,129.73837440208337,129.93574265208335,63.0,107.0
102,129.93574265208335,130.13311090208336,65.0,102.0
103,130.13311090208336,131.31732040208334,68.0,114.0
104,131.31732040208334,131.51468865208335,73.0,107.0
105,131.51468865208335,131.71205690208336,75.0,108.0
106,131.71205690208336,133.29100290208336,77.0,119.0
107,133.29100290208336,134.08047590208335,75.0,113.0
108,134.08047590208335,134.27784415208336,73.0,113.0
109,134.27784415208336,137.04099965208334,68.0,104.0
110,137.04099965208334,137.23836790208335,58.0,100.0
111,137.23836790208335,137.45382824166668,56.0,107.0
112,137.43573615208336,137.63310440208335,58.0,93.0
113,137.63310440208335,137.83047265208336,61.0,100.0
114,137.83047265208336,138.02784090208334,58.0,93.0
115,138.02784090208334,138.24001177083335,61.0,116.0
116,138.22520915208335,138.61994565208335,63.0,102.0
117,138.61994565208335,138.81731390208336,61.0,108.0
118,138.81731390208336,139.40941865208336,63.0,117.0
119,139.40941865208336,139.6051421666667,61.0,107.0
120,139.60678690208334,140.00152340208336,61.0,114.0
121,140.00152340208336,140.39625990208336,63.0,100.0
122,140.39625990208336,142.76467890208335,61.0,107.0
123,147.10678040208336,147.1890171729167,80.0,113.0
124,147.40283277708335,147.58375367291669,80.0,110.0
125,147.89625340208335,147.9982269979167,73.0,94.0
126,148.09362165208336,148.30743725625,80.0,108.0
127,155.00151040208337,155.22354968333335,73.0,102.0
128,155.19887865208335,155.39624690208336,75.0,91.0
129,155.39624690208336,155.59361515208334,77.0,92.0
130,155.59361515208334,155.79098340208336,78.0,92.0
131,155.79098340208336,155.98835165208337,77.0,94.0
132,155.98835165208337,156.23506196458337,75.0,98.0
133,156.18571990208335,156.97519290208336,77.0,107.0
134,166.05413240208335,166.45380310833335,68.0,107.0
135,166.44886890208335,166.84360540208337,73.0,104.0
136,166.84360540208337,167.23834190208336,75.0,108.0
137,167.23834190208336,167.94557813125002,77.0,108.0
138,178.29096390208335,178.52451633125003,68.0,110.0
139,178.48833215208336,178.60017416041669,70.0,102.0
140,178.68570040208337,178.92912124375002,73.0,92.0
141,178.88306865208335,179.03767378125002,75.0,91.0
142,179.08043690208336,179.22352888333336,77.0,107.0
143,179.27780515208337,179.45543657708336,80.0,88.0
144,179.47517340208336,179.7547784229167,82.0,107.0
145,179.86990990208335,180.14129124583337,80.0,119.0
146,191.31726840208336,191.48996562083337,73.0,113.0
147,191.51463665208337,191.7054259604167,70.0,104.0
148,191.71200490208335,191.85674161875002,73.0,96.0
149,191.90937315208336,192.08864931250002,70.0,102.0
150,192.10674140208337,192.24654391250002,73.0,100.0
151,192.30410965208335,192.54753049375003,77.0,113.0
152,192.50147790208337,192.89621440208336,75.0,114.0
153,199.01463015208336,199.0968669229167,77.0,104.0
154,199.21199840208337,199.3731824729167,77.0,104.0
155,199.40936665208335,199.61002437291668,75.0,100.0
156,199.60673490208336,199.82055050625004,73.0,110.0
157,208.29093790208336,209.1133056104167,80.0,110.0
158,209.08041090208337,209.43238428125002,77.0,114.0
159,209.47514740208337,209.87152863750003,75.0,113.0
160,209.86988390208336,210.27448881458338,73.0,114.0
161,224.86987090208336,224.99651552916671,70.0,110.0
162,225.06723915208337,225.18566010208338,73.0,104.0
163,225.26460740208336,225.36164679166671,75.0,98.0
164,225.46197565208337,225.57710713125005,77.0,98.0
165,225.65934390208338,225.86658056458336,80.0,113.0
166,231.18565490208337,231.32052320625004,70.0,110.0
167,231.38302315208338,231.48335201250003,73.0,94.0
168,231.58039140208336,231.6675623791667,75.0,93.0
169,231.77775965208338,231.87150957083338,77.0,91.0
170,231.97512790208336,232.19881191875004,80.0,108.0
171,237.50143890208338,237.60999143958338,80.0,119.0
172,237.69880715208336,237.81887283750004,82.0,96.0
173,237.89617540208337,238.04420158958337,80.0,92.0
174,238.09354365208338,238.3090039916667,77.0,100.0
175,238.29091190208337,238.5310432729167,73.0,87.0
176,245.00143240208337,245.2119585354167,80.0,110.0
177,245.19880065208338,245.40110310833336,82.0,104.0
178,245.39616890208336,246.38301015208336,80.0,110.0
179,246.38301015208336,246.5787336666667,68.0,102.0
180,246.58037840208337,246.80899662500005,68.0,92.0
181,246.77774665208338,246.97511490208336,70.0,104.0
182,246.97511490208336,247.17248315208337,73.0,94.0
183,247.17248315208337,247.38465402083338,75.0,96.0
184,247.36985140208338,248.05899554166672,68.0,104.0
185,248.06064027708337,248.17412702083337,68.0,107.0
186,248.15932440208337,248.45537677708336,70.0,91.0
187,248.45537677708336,248.55406090208336,73.0,89.0
188,248.55406090208336,248.7497844166667,75.0,107.0
189,248.75142915208338,249.14616565208337,75.0,114.0
190,249.14616565208337,249.34353390208338,73.0,91.0
191,249.34353390208338,249.54090215208336,75.0,108.0
192,249.54090215208336,249.9339939166667,77.0,108.0
193,249.93563865208338,251.31721640208337,77.0,117.0
194,251.31721640208337,251.56392671458337,75.0,110.0
195,251.51458465208336,251.71195290208337,77.0,96.0
196,251.71195290208337,251.90932115208338,80.0,110.0
197,251.90932115208338,252.10668940208336,82.0,110.0
198,252.10668940208336,252.8945176666667,80.0,110.0
199,252.89616240208338,253.09353065208336,80.0,108.0
200,253.09353065208336,253.29089890208337,82.0,88.0
201,253.29089890208337,253.88300365208337,77.0,107.0
202,253.88300365208337,254.08037190208339,73.0,94.0
203,254.08037190208339,254.57379252708338,70.0,114.0
204,254.57379252708338,254.8682001666667,75.0,108.0
205,254.86984490208337,255.26458140208337,75.0,108.0
206,255.26458140208337,255.65931790208336,77.0,107.0
207,255.65931790208336,257.6330004020834,75.0,114.0
208,257.6330004020834,257.83530285833336,80.0,104.0
209,257.8303686520834,258.02773690208335,82.0,93.0
210,258.02773690208335,259.40931465208337,80.0,107.0
211,259.40931465208337,259.6066829020834,87.0,110.0
212,259.6066829020834,259.8040511520834,89.0,107.0
213,259.8040511520834,260.1001035270834,87.0,91.0
214,260.1001035270834,260.9882606520834,85.0,102.0
215,260.9882606520834,261.18562890208335,87.0,96.0
216,261.18562890208335,261.38299715208336,89.0,104.0
217,261.38299715208336,261.5803654020834,87.0,91.0
218,261.5803654020834,261.9751019020834,85.0,104.0
219,261.9751019020834,262.9619431520834,89.0,108.0
220,262.9619431520834,263.55404790208337,80.0,88.0
221,263.55404790208337,263.85010027708336,85.0,116.0
222,263.85010027708336,264.1461526520834,82.0,87.0
223,264.1461526520834,264.34352090208336,85.0,117.0
224,264.34352090208336,264.7382574020834,82.0,113.0
225,264.7382574020834,264.9356256520834,85.0,113.0
226,264.9356256520834,265.7250986520834,82.0,102.0
227,265.7250986520834,266.9093081520834,80.0,110.0
228,266.9093081520834,267.1362816395834,75.0,89.0
229,267.1066764020834,267.30404465208335,77.0,88.0
230,267.30404465208335,267.50141290208336,80.0,96.0
231,267.50141290208336,267.94549146458337,77.0,108.0
232,267.8961494020834,268.29088590208335,75.0,91.0
233,268.29088590208335,269.8698319020834,73.0,98.0
234,294.7382314020834,294.9355996520834,82.0,91.0
235,294.9355996520834,295.13296790208335,77.0,88.0
236,295.13296790208335,296.9092821520834,80.0,110.0
237,296.9092821520834,297.1099398729167,77.0,96.0
238,297.1066504020834,297.30401865208336,75.0,88.0
239,297.30401865208336,297.50138690208337,80.0,91.0
240,297.50138690208337,297.8961234020834,77.0,91.0
241,297.8961234020834,298.29085990208335,75.0,89.0
242,298.29085990208335,299.47506940208336,73.0,96.0
243,299.47506940208336,299.89447693333335,70.0,100.0
244,299.8698059020834,302.35335638125,68.0,102.0
245,302.3550011166667,302.55730357291674,68.0,82.0
246,302.54579042500006,302.7415139395834,70.0,80.0
247,302.7415139395834,302.97506636875005,73.0,80.0
248,302.97506636875005,303.8747366416667,70.0,85.0
249,303.8747366416667,304.52276239583335,68.0,85.0
250,304.52440713125003,304.64611755208335,68.0,65.0
251,304.63460440416674,304.7645385020834,63.0,73.0
252,304.71190696875004,305.1806565625,65.0,85.0
253,305.1806565625,305.3023669833334,63.0,38.0
254,305.3023669833334,306.9750629020834,61.0,82.0
255,306.9750629020834,307.5359176791667,82.0,113.0
256,307.76453590208337,308.1576276666667,80.0,114.0
