,start,end,pitch,velocity
0,13.291106902083335,13.685843402083336,77.0,104.0
1,13.685843402083336,14.07893516666667,80.0,94.0
2,14.080579902083336,15.264789402083336,80.0,102.0
3,15.264789402083336,15.659525902083336,77.0,113.0
4,15.659525902083336,16.062486079166668,78.0,104.0
5,16.054262402083335,16.460512050000002,77.0,102.0
6,16.448998902083336,16.843735402083336,75.0,91.0
7,16.843735402083336,17.238471902083337,77.0,89.0
8,17.238471902083337,19.21050966666667,73.0,89.0
9,19.212154402083335,19.606890902083336,73.0,88.0
10,19.606890902083336,20.001627402083336,77.0,102.0
11,20.001627402083336,20.396363902083337,80.0,104.0
12,20.396363902083337,21.18419216666667,82.0,89.0
13,21.185836902083338,21.580573402083335,82.0,108.0
14,21.580573402083335,21.97366516666667,80.0,96.0
15,21.975309902083335,22.370046402083336,80.0,96.0
16,22.370046402083336,22.76313816666667,73.0,91.0
17,22.764782902083336,23.159519402083337,73.0,98.0
18,23.159519402083337,23.55261116666667,77.0,96.0
19,23.554255902083337,24.00162393541667,77.0,100.0
20,23.948992402083338,25.922674902083337,75.0,94.0
21,25.922674902083337,26.317411402083337,77.0,89.0
22,26.317411402083337,26.712147902083338,78.0,93.0
23,26.712147902083338,27.89471266666667,80.0,102.0
24,27.89635740208334,28.291093902083336,80.0,113.0
25,28.291093902083336,28.685830402083337,81.0,116.0
26,28.685830402083337,29.080566902083337,77.0,113.0
27,29.080566902083337,29.870039902083338,84.0,114.0
28,29.870039902083338,30.26477640208334,75.0,114.0
29,30.26477640208334,32.63155066666667,73.0,113.0
30,32.63319540208334,32.84043206458334,73.0,110.0
31,32.83056365208334,33.02793190208334,72.0,93.0
32,33.02793190208334,33.42266840208334,70.0,108.0
33,33.42266840208334,33.81576016666667,82.0,113.0
34,33.81740490208334,34.21214140208334,82.0,114.0
35,34.21214140208334,34.60687790208334,80.0,113.0
36,34.60687790208334,35.00161440208334,75.0,110.0
37,35.00161440208334,35.19898265208334,77.0,100.0
38,35.19898265208334,35.79108740208334,75.0,104.0
39,35.79108740208334,36.18582390208334,70.0,104.0
40,36.18582390208334,38.55424290208334,73.0,108.0
41,38.55424290208334,38.94897940208334,77.0,104.0
42,38.94897940208334,39.34207116666667,80.0,94.0
43,39.34371590208334,40.52792540208334,80.0,102.0
44,40.52792540208334,40.92266190208334,77.0,113.0
45,40.92266190208334,41.32562207916667,78.0,104.0
46,41.31739840208334,41.72364805000001,77.0,102.0
47,41.71213490208334,42.10687140208334,75.0,91.0
48,42.10687140208334,42.50160790208334,77.0,89.0
49,42.50160790208334,44.47364566666668,73.0,89.0
50,44.47529040208334,44.87002690208334,73.0,88.0
51,44.87002690208334,45.26476340208334,77.0,102.0
52,45.26476340208334,45.65949990208334,80.0,104.0
53,45.65949990208334,46.44732816666667,82.0,89.0
54,46.44897290208334,46.84370940208334,82.0,108.0
55,46.84370940208334,47.23680116666667,80.0,96.0
56,47.23844590208334,47.63318240208334,80.0,96.0
57,47.63318240208334,48.026274166666674,73.0,91.0
58,48.02791890208334,48.42265540208334,73.0,98.0
59,48.42265540208334,48.815747166666675,77.0,96.0
60,48.817391902083344,49.26475993541668,77.0,100.0
61,49.212128402083344,51.18581090208334,75.0,94.0
62,51.18581090208334,51.58054740208334,77.0,89.0
63,51.58054740208334,51.97528390208334,78.0,93.0
64,51.97528390208334,53.15784866666667,80.0,102.0
65,53.15949340208334,53.55422990208334,80.0,113.0
66,53.55422990208334,53.94896640208334,81.0,116.0
67,53.94896640208334,54.34370290208334,77.0,113.0
68,54.34370290208334,54.738439402083344,75.0,114.0
69,54.738439402083344,55.133175902083345,77.0,102.0
70,55.133175902083345,55.527912402083345,75.0,102.0
71,55.527912402083345,55.72363591666667,73.0,100.0
72,55.72528065208334,56.31738540208334,73.0,104.0
73,56.31738540208334,56.71212190208334,70.0,104.0
74,56.71212190208334,56.90949015208334,75.0,110.0
75,56.90949015208334,58.093699652083345,73.0,110.0
76,58.093699652083345,58.29106790208334,70.0,114.0
77,58.29106790208334,58.68415966666667,82.0,114.0
78,58.68580440208334,59.078896166666674,82.0,113.0
79,59.08054090208334,59.47527740208334,82.0,114.0
80,59.47527740208334,59.87001390208334,80.0,113.0
81,59.87001390208334,60.264750402083344,75.0,110.0
82,60.264750402083344,60.46211865208334,77.0,100.0
83,60.46211865208334,61.054223402083345,75.0,104.0
84,61.054223402083345,61.448959902083345,70.0,104.0
85,61.448959902083345,64.60685190208335,73.0,108.0
86,64.60685190208335,65.00158840208334,85.0,119.0
87,65.00158840208334,65.39468016666667,82.0,114.0
88,65.39632490208335,66.18579790208334,82.0,114.0
89,66.18579790208334,66.58053440208334,84.0,117.0
90,66.58053440208334,66.97362616666668,80.0,116.0
91,66.97527090208334,67.76309916666668,80.0,119.0
92,67.76474390208334,68.15948040208335,80.0,114.0
93,68.15948040208335,68.55257216666668,77.0,116.0
94,68.55421690208334,69.34204516666668,77.0,114.0
95,69.34368990208334,69.73842640208335,77.0,114.0
96,69.73842640208335,70.13151816666668,73.0,110.0
97,70.13316290208334,70.92263590208334,73.0,113.0
98,70.92263590208334,71.31737240208335,75.0,116.0
99,71.31737240208335,71.71210890208334,77.0,110.0
100,71.71210890208334,72.10684540208334,75.0,114.0
101,72.10684540208334,72.50158190208334,77.0,110.0
102,72.50158190208334,72.89631840208334,80.0,114.0
103,72.89631840208334,73.29105490208335,82.0,102.0
104,73.29105490208335,73.68579140208334,80.0,98.0
105,73.68579140208334,74.08052790208335,75.0,114.0
106,74.08052790208335,77.23841990208335,77.0,108.0
107,77.23841990208335,77.63315640208334,85.0,116.0
108,77.63315640208334,78.02624816666668,82.0,114.0
109,78.02789290208335,78.81736590208334,82.0,117.0
110,78.81736590208334,79.21210240208335,84.0,117.0
111,79.21210240208335,79.60519416666668,80.0,117.0
112,79.60683890208334,80.39466716666668,80.0,117.0
113,80.39631190208334,80.79104840208335,80.0,116.0
114,80.79104840208335,81.18414016666668,77.0,113.0
115,81.18578490208334,81.97361316666668,77.0,114.0
116,81.97525790208334,82.36999440208335,77.0,117.0
117,82.36999440208335,82.96045441666668,74.0,113.0
118,82.96209915208334,85.13314990208335,74.0,116.0
119,85.13314990208335,85.52788640208334,75.0,114.0
120,85.52788640208334,85.92262290208335,77.0,107.0
121,85.92262290208335,86.31735940208334,75.0,108.0
122,86.31735940208334,86.71209590208335,77.0,114.0
123,86.71209590208335,87.10683240208334,80.0,116.0
124,87.10683240208334,87.50156890208335,82.0,114.0
125,87.50156890208335,87.89630540208334,80.0,114.0
126,87.89630540208334,88.28939716666667,82.0,107.0
127,88.29104190208335,88.68577840208334,82.0,113.0
128,88.68577840208334,91.44728916666668,80.0,114.0
129,91.44893390208335,92.23840690208334,80.0,123.0
130,92.23840690208334,92.63314340208335,77.0,119.0
131,92.63314340208335,93.02787990208334,80.0,117.0
132,93.02787990208334,93.42261640208335,82.0,119.0
133,93.42261640208335,93.81735290208334,80.0,117.0
134,93.81735290208334,94.21208940208335,77.0,117.0
135,94.21208940208335,94.60682590208334,75.0,116.0
136,94.60682590208334,95.39629890208334,73.0,117.0
137,95.39629890208334,95.79103540208335,70.0,113.0
138,95.79103540208335,96.18577190208335,73.0,114.0
139,96.18577190208335,97.76471790208335,68.0,116.0
140,97.76471790208335,98.15945440208334,70.0,116.0
141,98.15945440208334,98.55419090208335,73.0,114.0
142,98.55419090208335,98.94892740208334,75.0,114.0
143,98.94892740208334,99.34366390208335,77.0,116.0
144,99.34366390208335,100.13313690208335,80.0,119.0
145,100.13313690208335,100.92260990208335,77.0,117.0
146,100.92260990208335,101.31734640208334,75.0,117.0
147,101.31734640208334,101.71208290208335,73.0,113.0
148,101.71208290208335,102.10681940208335,70.0,117.0
149,102.10681940208335,102.50155590208335,77.0,119.0
150,102.50155590208335,104.08050190208336,75.0,119.0
151,104.08050190208336,104.86997490208334,80.0,120.0
152,104.86997490208334,105.26471140208335,77.0,117.0
153,105.26471140208335,105.65944790208334,80.0,116.0
154,105.65944790208334,106.05418440208335,82.0,114.0
155,106.05418440208335,106.44892090208334,80.0,114.0
156,106.44892090208334,106.84365740208335,77.0,116.0
157,106.84365740208335,107.23839390208335,75.0,110.0
158,107.23839390208335,107.80747235625002,73.0,114.0
159,107.63313040208335,107.80747235625002,73.0,114.0
160,108.02786690208335,108.42260340208335,70.0,114.0
161,108.42260340208335,108.81733990208335,73.0,114.0
162,108.81733990208335,109.99990466666668,68.0,113.0
163,110.00154940208336,110.39628590208335,68.0,116.0
164,110.39628590208335,110.79102240208336,70.0,114.0
165,110.79102240208336,111.18575890208335,73.0,110.0
166,111.18575890208335,111.58049540208334,75.0,114.0
167,111.58049540208334,111.97523190208335,77.0,114.0
168,111.97523190208335,112.76470490208335,80.0,114.0
169,112.76470490208335,113.35516491666668,77.0,114.0
170,113.35680965208336,113.59365155208334,77.0,107.0
171,113.55417790208335,113.94891440208335,75.0,107.0
172,113.94891440208335,114.35022984375001,73.0,113.0
173,114.34365090208335,114.73838740208335,70.0,114.0
174,114.73838740208335,115.13312390208336,75.0,116.0
175,115.13312390208336,115.71042603333335,73.0,116.0
176,142.76467890208335,143.15941540208337,77.0,104.0
177,143.15941540208337,143.5525071666667,80.0,94.0
178,143.55415190208336,144.73836140208334,80.0,102.0
179,144.73836140208334,145.13309790208336,77.0,113.0
180,145.13309790208336,145.53605807916668,78.0,104.0
181,145.52783440208336,145.93408405000002,77.0,102.0
182,145.92257090208335,146.31730740208334,75.0,91.0
183,146.31730740208334,146.71204390208337,77.0,89.0
184,146.71204390208337,148.68408166666669,73.0,89.0
185,148.68572640208336,149.08046290208335,73.0,88.0
186,149.08046290208335,149.47519940208335,77.0,102.0
187,149.47519940208335,149.86993590208337,80.0,104.0
188,149.86993590208337,150.65776416666668,82.0,89.0
189,150.65940890208336,151.05414540208335,82.0,108.0
190,151.05414540208335,151.4472371666667,80.0,96.0
191,151.44888190208334,151.84361840208337,80.0,96.0
192,151.84361840208337,152.23671016666668,73.0,91.0
193,152.23835490208336,152.63309140208335,73.0,98.0
194,152.63309140208335,153.0261831666667,77.0,96.0
195,153.02782790208335,153.47519593541668,77.0,100.0
196,153.42256440208337,155.39624690208336,75.0,94.0
197,155.39624690208336,155.79098340208336,77.0,89.0
198,155.79098340208336,156.18571990208335,78.0,93.0
199,156.18571990208335,157.36828466666668,80.0,102.0
200,157.36992940208336,157.76466590208335,80.0,113.0
201,157.76466590208335,158.15940240208334,81.0,116.0
202,158.15940240208334,158.55413890208337,77.0,113.0
203,158.55413890208337,158.94887540208336,75.0,114.0
204,158.94887540208336,159.34361190208335,77.0,102.0
205,159.34361190208335,159.73834840208335,75.0,102.0
206,159.73834840208335,159.93407191666668,73.0,100.0
207,159.93571665208336,160.52782140208336,73.0,104.0
208,160.52782140208336,160.92255790208335,70.0,104.0
209,160.92255790208335,161.11992615208337,75.0,110.0
210,161.11992615208337,162.30413565208335,73.0,110.0
211,162.30413565208335,162.50150390208336,70.0,114.0
212,162.50150390208336,162.8945956666667,82.0,114.0
213,162.89624040208335,163.2893321666667,82.0,113.0
214,163.29097690208337,163.68571340208337,82.0,114.0
215,163.68571340208337,164.08044990208336,80.0,113.0
216,164.08044990208336,164.47518640208335,75.0,110.0
217,164.47518640208335,164.67255465208336,77.0,100.0
218,164.67255465208336,165.26465940208337,75.0,104.0
219,165.26465940208337,165.65939590208336,70.0,104.0
220,165.65939590208336,168.81728790208336,73.0,108.0
221,168.81728790208336,169.21202440208336,85.0,119.0
222,169.21202440208336,169.6051161666667,82.0,114.0
223,169.60676090208335,170.39623390208337,82.0,114.0
224,170.39623390208337,170.79097040208336,84.0,117.0
225,170.79097040208336,171.1840621666667,80.0,116.0
226,171.18570690208335,171.9735351666667,80.0,119.0
227,171.97517990208337,172.36991640208336,80.0,114.0
228,172.36991640208336,172.76300816666668,77.0,116.0
229,172.76465290208336,173.5524811666667,77.0,114.0
230,173.55412590208337,173.94886240208336,77.0,114.0
231,173.94886240208336,174.34195416666668,73.0,110.0
232,174.34359890208336,175.13307190208337,73.0,113.0
233,175.13307190208337,175.52780840208337,75.0,116.0
234,175.52780840208337,175.92254490208336,77.0,110.0
235,175.92254490208336,176.31728140208335,75.0,114.0
236,176.31728140208335,176.71201790208335,77.0,110.0
237,176.71201790208335,177.10675440208337,80.0,114.0
238,177.10675440208337,177.50149090208336,82.0,102.0
239,177.50149090208336,177.89622740208335,80.0,98.0
240,177.89622740208335,178.29096390208335,75.0,114.0
241,178.29096390208335,181.44885590208335,77.0,108.0
242,181.44885590208335,181.84359240208337,85.0,116.0
243,181.84359240208337,182.2366841666667,82.0,114.0
244,182.23832890208337,183.02780190208335,82.0,117.0
245,183.02780190208335,183.42253840208335,84.0,117.0
246,183.42253840208335,183.8156301666667,80.0,117.0
247,183.81727490208337,184.6051031666667,80.0,117.0
248,184.60674790208336,185.00148440208335,80.0,116.0
249,185.00148440208335,185.3945761666667,77.0,113.0
250,185.39622090208337,186.18404916666668,77.0,114.0
251,186.18569390208336,186.58043040208335,77.0,117.0
252,186.58043040208335,186.9735221666667,74.0,113.0
253,186.97516690208337,187.76463990208336,74.0,116.0
254,187.76463990208336,188.15937640208335,75.0,114.0
255,188.15937640208335,188.55411290208338,77.0,107.0
256,188.55411290208338,188.94884940208337,75.0,108.0
257,188.94884940208337,189.34358590208336,77.0,114.0
258,189.34358590208336,189.73832240208336,80.0,116.0
259,189.73832240208336,190.13305890208335,82.0,114.0
260,190.13305890208335,190.52779540208337,80.0,114.0
261,190.52779540208337,190.9208871666667,82.0,107.0
262,190.92253190208336,191.31726840208336,82.0,113.0
263,191.31726840208336,194.08042390208337,80.0,114.0
264,194.08042390208337,194.86989690208335,80.0,123.0
265,194.86989690208335,195.26463340208338,77.0,119.0
266,195.26463340208338,195.65936990208337,80.0,117.0
267,195.65936990208337,196.05410640208336,82.0,119.0
268,196.05410640208336,196.44884290208336,80.0,117.0
269,196.44884290208336,196.84357940208335,77.0,117.0
270,196.84357940208335,197.23831590208337,75.0,116.0
271,197.23831590208337,198.02778890208336,73.0,117.0
272,198.02778890208336,198.42252540208335,70.0,113.0
273,198.42252540208335,198.81726190208337,73.0,114.0
274,198.81726190208337,200.39620790208338,68.0,116.0
275,200.39620790208338,200.79094440208337,70.0,116.0
276,200.79094440208337,201.18568090208336,73.0,114.0
277,201.18568090208336,201.58041740208336,75.0,114.0
278,201.58041740208336,201.97515390208338,77.0,116.0
279,201.97515390208338,202.76462690208336,80.0,119.0
280,202.76462690208336,203.55409990208335,77.0,117.0
281,203.55409990208335,203.94883640208337,75.0,117.0
282,203.94883640208337,204.34357290208337,73.0,113.0
283,204.34357290208337,204.73830940208336,70.0,117.0
284,204.73830940208336,205.13304590208335,77.0,119.0
285,205.13304590208335,206.71199190208335,75.0,119.0
286,206.71199190208335,207.50146490208337,80.0,120.0
287,207.50146490208337,207.89620140208336,77.0,117.0
288,207.89620140208336,208.29093790208336,80.0,116.0
289,208.29093790208336,208.68567440208338,82.0,114.0
290,208.68567440208338,209.08041090208337,80.0,114.0
291,209.08041090208337,209.47514740208337,77.0,116.0
292,209.47514740208337,209.86988390208336,75.0,110.0
293,209.86988390208336,210.43896235625004,73.0,114.0
294,210.26462040208335,210.43896235625004,73.0,114.0
295,210.65935690208337,211.05409340208337,70.0,114.0
296,211.05409340208337,211.44882990208336,73.0,114.0
297,211.44882990208336,212.6313946666667,68.0,113.0
298,212.63303940208337,213.02777590208336,68.0,116.0
299,213.02777590208336,213.42251240208336,70.0,114.0
300,213.42251240208336,213.81724890208338,73.0,110.0
301,213.81724890208338,214.21198540208337,75.0,114.0
302,214.21198540208337,214.60672190208336,77.0,114.0
303,214.60672190208336,215.39619490208338,80.0,114.0
304,215.39619490208338,215.9866549166667,77.0,114.0
305,215.98829965208336,216.22514155208336,77.0,107.0
306,216.18566790208337,216.58040440208336,75.0,107.0
307,216.58040440208336,216.98171984375003,73.0,113.0
308,216.97514090208335,217.36987740208338,70.0,114.0
309,217.36987740208338,217.76461390208337,75.0,116.0
310,217.76461390208337,219.34355990208337,73.0,116.0
311,219.34355990208337,220.13303290208336,80.0,123.0
312,220.13303290208336,220.52776940208338,77.0,119.0
313,220.52776940208338,220.92250590208337,80.0,117.0
314,220.92250590208337,221.31724240208337,82.0,119.0
315,221.31724240208337,221.71197890208336,80.0,117.0
316,221.71197890208336,222.10671540208335,77.0,117.0
317,222.10671540208335,222.50145190208337,75.0,116.0
318,222.50145190208337,223.29092490208336,73.0,117.0
319,223.29092490208336,223.68566140208335,70.0,113.0
320,223.68566140208335,224.08039790208338,73.0,114.0
321,224.08039790208338,225.65934390208338,68.0,116.0
322,225.65934390208338,226.05408040208337,70.0,116.0
323,226.05408040208337,226.44881690208337,73.0,114.0
324,226.44881690208337,226.84355340208336,75.0,114.0
325,226.84355340208336,227.23828990208338,77.0,116.0
326,227.23828990208338,228.02776290208337,80.0,119.0
327,228.02776290208337,228.81723590208335,77.0,117.0
328,228.81723590208335,229.21197240208338,75.0,117.0
329,229.21197240208338,229.60670890208337,73.0,113.0
330,229.60670890208337,230.00144540208336,70.0,117.0
331,230.00144540208336,230.39618190208336,77.0,119.0
332,230.39618190208336,231.97512790208336,75.0,119.0
333,231.97512790208336,232.76460090208337,80.0,120.0
334,232.76460090208337,233.15933740208337,77.0,117.0
335,233.15933740208337,233.55407390208336,80.0,116.0
336,233.55407390208336,233.94881040208338,82.0,114.0
337,233.94881040208338,234.34354690208338,80.0,114.0
338,234.34354690208338,234.73828340208337,77.0,116.0
339,234.73828340208337,235.13301990208336,75.0,110.0
340,235.13301990208336,235.70209835625005,73.0,114.0
341,235.52775640208336,235.70209835625005,73.0,114.0
342,235.92249290208338,236.31722940208337,70.0,114.0
343,236.31722940208337,236.71196590208336,73.0,114.0
344,236.71196590208336,237.8945306666667,68.0,113.0
345,237.89617540208337,238.29091190208337,68.0,116.0
346,238.29091190208337,238.68564840208336,70.0,114.0
347,238.68564840208336,239.08038490208338,73.0,110.0
348,239.08038490208338,239.47512140208337,75.0,114.0
349,239.47512140208337,239.86985790208337,77.0,114.0
350,239.86985790208337,240.65933090208338,80.0,114.0
351,240.65933090208338,241.2497909166667,77.0,114.0
352,241.25143565208336,241.48827755208336,77.0,107.0
353,241.44880390208337,241.84354040208336,75.0,107.0
354,241.84354040208336,242.24485584375003,73.0,113.0
355,242.23827690208336,242.63301340208338,70.0,114.0
356,242.63301340208338,243.02774990208337,75.0,116.0
357,243.02774990208337,244.60669590208337,73.0,116.0
358,269.8698319020834,270.65930490208336,80.0,123.0
359,270.65930490208336,271.0540414020834,77.0,119.0
360,271.0540414020834,271.44877790208335,80.0,117.0
361,271.44877790208335,271.8435144020834,82.0,119.0
362,271.8435144020834,272.2382509020834,80.0,117.0
363,272.2382509020834,272.63298740208336,77.0,117.0
364,272.63298740208336,273.0277239020834,75.0,116.0
365,273.0277239020834,273.81719690208337,73.0,117.0
366,273.81719690208337,274.2119334020834,70.0,113.0
367,274.2119334020834,274.60666990208335,73.0,114.0
368,274.60666990208335,274.9997616666667,77.0,116.0
369,275.0014064020834,276.1856159020834,77.0,116.0
370,276.1856159020834,276.58035240208335,70.0,116.0
371,276.58035240208335,276.97508890208337,73.0,114.0
372,276.97508890208337,277.3698254020834,75.0,114.0
373,277.3698254020834,277.76456190208336,77.0,116.0
374,277.76456190208336,278.5540349020834,80.0,119.0
375,278.5540349020834,279.3435079020834,77.0,117.0
376,279.3435079020834,279.5408761520834,82.0,117.0
377,279.5408761520834,280.1329809020834,80.0,113.0
378,280.1329809020834,280.5277174020834,73.0,117.0
379,280.5277174020834,280.92245390208336,77.0,119.0
380,280.92245390208336,282.5013999020834,75.0,119.0
381,282.5013999020834,283.2908729020834,80.0,120.0
382,283.2908729020834,283.6856094020834,77.0,117.0
383,283.6856094020834,284.08034590208337,80.0,116.0
384,284.08034590208337,284.4750824020834,82.0,114.0
385,284.4750824020834,284.86981890208335,80.0,114.0
386,284.86981890208335,285.2645554020834,77.0,116.0
387,285.2645554020834,285.6592919020834,75.0,110.0
388,285.6592919020834,286.22837035625,73.0,114.0
389,286.05402840208336,286.22837035625,73.0,114.0
390,286.4487649020834,286.8435014020834,70.0,114.0
391,286.8435014020834,287.23823790208337,73.0,114.0
392,287.23823790208337,287.6313296666667,77.0,113.0
393,287.6329744020834,288.4224474020834,77.0,113.0
394,288.4224474020834,288.8171839020834,68.0,116.0
395,288.8171839020834,289.21192040208336,70.0,114.0
396,289.21192040208336,289.6066569020834,73.0,110.0
397,289.6066569020834,290.00139340208335,75.0,114.0
398,290.00139340208335,290.3961299020834,77.0,114.0
399,290.3961299020834,291.18560290208336,80.0,114.0
400,291.18560290208336,291.7760629166667,77.0,114.0
401,291.7777076520834,292.0145495520834,77.0,107.0
402,291.9750759020834,292.36981240208337,75.0,107.0
403,292.36981240208337,292.77112784375004,73.0,113.0
404,292.7645489020834,293.15928540208336,70.0,114.0
405,293.15928540208336,293.5540219020834,75.0,116.0
406,293.5540219020834,295.13296790208335,73.0,116.0
