,start,end,pitch,velocity
0,2.2384849020833335,2.6694055812500004,61.0,78.0
1,1.4490119020833336,2.7730239125000002,49.0,80.0
2,1.8437484020833337,3.0657868166666673,56.0,65.0
3,3.8174309020833337,4.2664436708333335,60.0,78.0
4,3.4226944020833336,4.319075204166667,56.0,72.0
5,3.0279579020833336,4.3667725312500005,48.0,77.0
6,5.396376902083334,5.822363375000001,58.0,76.0
7,4.606903902083334,5.902955410416667,46.0,82.0
8,5.001640402083334,6.212165668750001,53.0,70.0
9,4.212167402083334,6.3026261166666675,63.0,85.0
10,6.9753229020833345,7.404598845833334,56.0,81.0
11,6.580586402083334,7.414467258333334,53.0,67.0
12,6.185849902083334,7.503282970833334,44.0,79.0
13,8.554268902083335,8.993413258333335,54.0,81.0
14,7.764795902083335,9.031242172916668,42.0,77.0
15,7.370059402083334,9.264794602083334,61.0,73.0
16,8.159532402083334,9.328939283333336,49.0,64.0
17,8.949005402083335,9.401307641666667,58.0,76.0
18,9.343741902083334,10.669398647916669,44.0,83.0
19,9.738478402083334,10.702293356250001,51.0,67.0
20,10.133214902083335,11.018082556250002,56.0,77.0
21,10.527951402083335,11.046043058333336,60.0,79.0
22,12.106897402083336,12.567423318750002,66.0,78.0
23,12.501633902083336,13.509856712500001,65.0,84.0
24,11.317424402083335,13.615119779166669,56.0,63.0
25,11.712160902083335,13.62005398541667,61.0,77.0
26,10.922687902083336,13.634856604166668,49.0,80.0
27,14.870052902083335,15.309197258333336,61.0,80.0
28,14.080579902083336,15.319065670833336,49.0,81.0
29,14.475316402083335,15.710512700000002,56.0,65.0
30,15.264789402083336,15.87992044791667,65.0,83.0
31,16.448998902083336,16.86018275625,60.0,83.0
32,16.054262402083335,16.927616908333334,56.0,70.0
33,15.659525902083336,16.973669500000003,48.0,84.0
34,16.843735402083336,17.524655864583337,65.0,84.0
35,18.422681402083334,18.881562583333338,60.0,82.0
36,18.027944902083338,19.37827267916667,58.0,81.0
37,17.238471902083337,19.39800950416667,46.0,80.0
38,17.633208402083337,19.944061662500005,53.0,71.0
39,18.817417902083335,20.416100727083336,61.0,83.0
40,20.396363902083337,21.62827072916667,42.0,86.0
41,21.185836902083338,21.891428395833337,54.0,82.0
42,20.791100402083337,21.995046727083338,49.0,73.0
43,21.580573402083335,22.03780984791667,58.0,80.0
44,22.764782902083336,23.22859828958334,65.0,82.0
45,22.370046402083336,23.343729768750002,60.0,73.0
46,21.975309902083335,23.368400800000003,53.0,80.0
47,24.73846540208334,25.20557026041667,65.0,77.0
48,24.34372890208334,26.18254309791667,63.0,80.0
49,23.948992402083338,26.245043043750005,58.0,76.0
50,23.554255902083337,26.297674577083338,51.0,85.0
51,25.133201902083336,26.57727959791667,66.0,87.0
52,27.50162090208334,27.917738962500003,61.0,81.0
53,26.712147902083338,27.96872576041667,49.0,86.0
54,27.106884402083338,28.35359384791667,56.0,78.0
55,27.89635740208334,28.38484382083334,65.0,89.0
56,28.291093902083336,28.38484382083334,65.0,86.0
57,28.291093902083336,28.883198652083337,69.0,87.0
58,28.291093902083336,29.472013931250004,53.0,82.0
59,28.883198652083337,29.518066522916673,60.0,72.0
60,29.080566902083337,29.521355993750003,69.0,86.0
61,29.870039902083338,30.55096036458334,70.0,81.0
62,29.080566902083337,30.573986660416672,65.0,86.0
63,29.870039902083338,30.708854964583338,61.0,78.0
64,30.65951290208334,32.45556397708334,58.0,79.0
65,30.26477640208334,32.516419187500006,53.0,66.0
66,31.05424940208334,32.52299812916667,60.0,73.0
67,29.870039902083338,32.555892837500004,46.0,80.0
68,31.448985902083336,32.67760325833334,61.0,83.0
69,33.02793190208334,34.291088702083336,42.0,86.0
70,33.02793190208334,34.30589132083334,58.0,82.0
71,33.02793190208334,34.317404468750006,66.0,87.0
72,33.81740490208334,34.44898330208334,54.0,79.0
73,33.42266840208334,34.60358843125,49.0,64.0
74,34.60687790208334,35.90128467500001,68.0,84.0
75,34.60687790208334,35.902929410416675,60.0,81.0
76,34.60687790208334,35.92924517708334,44.0,81.0
77,35.39635090208334,35.93417938333334,56.0,79.0
78,35.00161440208334,35.94569253125,51.0,65.0
79,37.37003340208334,37.83384878958334,63.0,81.0
80,37.76476990208334,38.685821735416674,65.0,88.0
81,36.975296902083336,38.88812419166667,61.0,81.0
82,36.580560402083336,38.94404519583334,56.0,64.0
83,36.18582390208334,39.00161093541667,49.0,88.0
84,39.34371590208334,40.47858333958334,73.0,81.0
85,39.34371590208334,40.51805698958334,68.0,78.0
86,39.34371590208334,40.56739905208334,65.0,81.0
87,40.13318890208334,40.573977993750006,61.0,79.0
88,39.34371590208334,40.59371481875001,49.0,77.0
89,39.73845240208334,40.953911875,56.0,68.0
90,41.71213490208334,42.105226666666674,60.0,78.0
91,40.92266190208334,42.11673981458334,63.0,80.0
92,40.92266190208334,42.14963452291667,72.0,84.0
93,41.31739840208334,42.192397643750006,56.0,69.0
94,40.92266190208334,42.192397643750006,68.0,82.0
95,40.92266190208334,42.21213446875001,48.0,81.0
96,42.50160790208334,43.26969934166667,65.0,86.0
97,42.50160790208334,43.27792301875001,70.0,83.0
98,42.50160790208334,43.29108090208334,61.0,84.0
99,43.68581740208334,44.16936961458334,60.0,80.0
100,42.50160790208334,44.57890873333334,46.0,81.0
101,43.29108090208334,44.59700082291668,58.0,81.0
102,42.896344402083336,44.911145287500005,53.0,70.0
103,44.08055390208334,44.98515838125001,61.0,87.0
104,44.87002690208334,45.65456569583334,44.0,94.0
105,45.65949990208334,46.865090962500005,66.0,87.0
106,45.65949990208334,46.87331463958334,58.0,81.0
107,46.44897290208334,46.90127514166667,54.0,81.0
108,46.05423640208334,46.921011966666676,49.0,64.0
109,45.65949990208334,46.92759090833334,42.0,86.0
110,45.65949990208334,46.93910405625001,61.0,76.0
111,47.23844590208334,48.38318175208334,41.0,81.0
112,47.23844590208334,48.62660259375001,68.0,85.0
113,47.23844590208334,48.631536800000006,60.0,83.0
114,47.23844590208334,48.80258928333334,65.0,78.0
115,49.60686490208334,51.52133692708334,63.0,83.0
116,49.212128402083344,51.567389518750005,58.0,76.0
117,48.817391902083344,51.598639491666674,51.0,83.0
118,50.39633790208334,51.92594183958334,72.0,89.0
119,50.39633790208334,51.960481283333344,68.0,86.0
120,52.76475690208334,53.156203931250005,61.0,84.0
121,51.97528390208334,53.208835464583345,49.0,87.0
122,53.15949340208334,53.56574305000001,65.0,86.0
123,53.55422990208334,53.56574305000001,65.0,87.0
124,52.37002040208334,53.61344037708334,56.0,72.0
125,53.15949340208334,53.75159815208334,68.0,81.0
126,53.55422990208334,54.06245314583334,69.0,87.0
127,53.94896640208334,54.613439510416676,54.0,50.0
128,54.34370290208334,55.11343907708334,69.0,84.0
129,54.34370290208334,55.14962325625001,65.0,87.0
130,53.55422990208334,55.15784693333334,48.0,85.0
131,55.133175902083345,55.986793583333345,70.0,87.0
132,55.133175902083345,56.080543502083344,61.0,86.0
133,56.31738540208334,57.31902927083334,60.0,82.0
134,56.31738540208334,57.32067400625001,65.0,78.0
135,55.527912402083345,57.34205556666667,53.0,63.0
136,55.133175902083345,57.34534503750001,46.0,81.0
137,55.92264890208334,57.35356871458334,58.0,77.0
138,58.29106790208334,59.57560626250001,42.0,85.0
139,58.29106790208334,59.57560626250001,66.0,87.0
140,58.29106790208334,59.58054046875001,58.0,83.0
141,58.29106790208334,59.81573763333334,61.0,82.0
142,59.08054090208334,59.868369166666675,54.0,81.0
143,58.68580440208334,59.87330337291667,49.0,67.0
144,59.87001390208334,60.44402656250001,68.0,86.0
145,59.87001390208334,60.51475018541667,60.0,80.0
146,59.87001390208334,61.13646017291668,44.0,85.0
147,60.659486902083344,61.15784173333334,60.0,79.0
148,60.659486902083344,61.175933822916676,68.0,79.0
149,60.264750402083344,61.210473266666675,51.0,70.0
150,59.87001390208334,61.235144297916676,63.0,72.0
151,60.659486902083344,61.50981511250001,56.0,79.0
152,61.448959902083345,61.89632793541668,61.0,83.0
153,61.448959902083345,62.06738041875001,65.0,81.0
154,61.448959902083345,62.38810382500001,68.0,82.0
155,62.238432902083346,63.24172150625001,61.0,82.0
156,61.843696402083346,64.21047066666668,56.0,67.0
157,62.63316940208334,64.21704960833334,63.0,81.0
158,63.02790590208334,64.23185222708334,68.0,87.0
159,61.448959902083345,64.24994431666667,49.0,82.0
160,63.02790590208334,64.29435217291667,65.0,88.0
161,64.60685190208335,65.16770667916667,68.0,87.0
162,64.60685190208335,65.23514083125,61.0,86.0
163,64.60685190208335,65.24829871458334,65.0,89.0
164,64.60685190208335,65.77790351875001,49.0,88.0
165,65.39632490208335,65.83546925833335,68.0,88.0
166,65.39632490208335,65.8519166125,61.0,85.0
167,65.39632490208335,65.89467973333335,65.0,86.0
168,66.18579790208334,66.68250799791667,68.0,87.0
169,66.18579790208334,66.71540270625,60.0,87.0
170,66.18579790208334,66.72033691250002,63.0,88.0
171,66.97527090208334,67.45224417291668,60.0,87.0
172,66.97527090208334,67.45553364375002,68.0,88.0
173,66.18579790208334,67.45882311458334,56.0,86.0
174,66.97527090208334,67.48513888125001,63.0,92.0
175,66.18579790208334,67.49336255833335,44.0,84.0
176,67.76474390208334,68.21540140625001,65.0,90.0
177,67.76474390208334,68.22198034791667,68.0,88.0
178,67.76474390208334,68.23349349583334,60.0,88.0
179,68.15948040208335,68.76145356458335,53.0,71.0
180,67.76474390208334,68.99829546458335,41.0,87.0
181,68.55421690208334,68.99829546458335,60.0,96.0
182,68.55421690208334,69.00980861250001,68.0,93.0
183,68.55421690208334,69.02132176041668,65.0,94.0
184,68.94895340208335,69.34697937291668,53.0,73.0
185,69.34368990208334,69.78118952291668,70.0,89.0
186,69.34368990208334,69.80915002500001,61.0,86.0
187,69.34368990208334,69.81079476041668,65.0,88.0
188,70.13316290208334,70.48678101666668,58.0,81.0
189,69.73842640208335,70.4999389,53.0,73.0
190,70.13316290208334,70.53283360833335,65.0,96.0
191,70.13316290208334,70.54763622708334,61.0,91.0
192,69.34368990208334,70.5492809625,46.0,83.0
193,70.13316290208334,70.56243884583334,70.0,91.0
194,70.92263590208334,71.35026711041668,70.0,88.0
195,70.92263590208334,71.42756967500002,66.0,89.0
196,70.92263590208334,71.467043325,63.0,86.0
197,71.31737240208335,72.14960852291668,58.0,65.0
198,71.71210890208334,72.16112167083334,70.0,86.0
199,70.92263590208334,72.17592428958335,51.0,88.0
200,71.71210890208334,72.19730585,66.0,92.0
201,71.71210890208334,72.26474000208334,63.0,88.0
202,72.50158190208334,72.96210781875001,68.0,89.0
203,72.50158190208334,73.00158146875,63.0,91.0
204,72.50158190208334,73.02296302916668,60.0,90.0
205,72.50158190208334,73.77131764375001,44.0,87.0
206,73.29105490208335,73.78118605625001,60.0,91.0
207,73.29105490208335,73.78118605625001,68.0,93.0
208,72.89631840208334,73.80256761666668,51.0,71.0
209,73.29105490208335,73.81408076458334,63.0,102.0
210,73.29105490208335,73.87164650416668,56.0,78.0
211,74.08052790208335,74.68908000625001,61.0,88.0
212,74.08052790208335,74.91111928750001,65.0,92.0
213,74.08052790208335,74.93579031875001,68.0,91.0
214,75.26473740208334,75.58710554375001,66.0,92.0
215,74.87000090208335,75.85355268125001,61.0,85.0
216,75.65947390208335,76.29763124375002,68.0,91.0
217,75.65947390208335,76.30421018541668,65.0,100.0
218,74.47526440208334,76.66440724166668,56.0,71.0
219,74.08052790208335,76.77789398541668,49.0,83.0
220,76.44894690208335,76.80914395833335,68.0,62.0
221,76.44894690208335,76.84861760833334,65.0,40.0
222,77.23841990208335,77.65782743333334,70.0,87.0
223,77.23841990208335,77.67263005208335,66.0,88.0
224,77.23841990208335,77.68249846458335,61.0,87.0
225,78.02789290208335,78.44565569791668,70.0,92.0
226,78.02789290208335,78.45223463958334,66.0,100.0
227,77.63315640208334,78.47690567083335,54.0,80.0
228,78.02789290208335,78.48019514166668,61.0,93.0
229,77.23841990208335,78.51637932083335,42.0,87.0
230,78.81736590208334,79.27460234791668,68.0,87.0
231,78.81736590208334,79.33710229375001,60.0,85.0
232,78.81736590208334,79.34861544166668,63.0,92.0
233,79.60683890208334,80.01473328541668,56.0,79.0
234,79.21210240208335,80.03282537500002,51.0,67.0
235,78.81736590208334,80.04762799375001,44.0,84.0
236,79.60683890208334,80.11835161666667,68.0,89.0
237,79.60683890208334,80.15453579583334,60.0,87.0
238,79.60683890208334,80.15782526666668,63.0,93.0
239,80.39631190208334,80.84367993541667,68.0,87.0
240,80.39631190208334,80.85025887708335,65.0,90.0
241,80.39631190208334,80.85683781875001,60.0,88.0
242,80.79104840208335,81.48512674791668,53.0,80.0
243,80.39631190208334,81.58545560833335,41.0,88.0
244,81.18578490208334,81.65288976041668,60.0,91.0
245,81.18578490208334,81.68085026250002,68.0,91.0
246,81.18578490208334,81.83874486250001,65.0,94.0
247,81.58052140208335,82.02131049375001,53.0,84.0
248,81.97525790208334,84.86834750000001,58.0,78.0
249,81.97525790208334,84.87163697083335,62.0,87.0
250,81.97525790208334,84.88150538333335,65.0,90.0
251,81.97525790208334,84.88315011875001,70.0,90.0
252,81.97525790208334,84.94071585833335,46.0,83.0
253,85.13314990208335,85.75650462500002,70.0,91.0
254,85.13314990208335,85.82229404166668,66.0,90.0
255,85.13314990208335,85.82887298333334,63.0,88.0
256,85.92262290208335,86.37821461250002,70.0,90.0
257,85.92262290208335,86.41110932083335,66.0,98.0
258,85.92262290208335,86.53446447708335,63.0,89.0
259,85.13314990208335,86.70880643125001,51.0,89.0
260,86.71209590208335,87.20551652708335,68.0,93.0
261,86.71209590208335,87.24499017708335,63.0,96.0
262,86.71209590208335,87.33380588958335,60.0,87.0
263,86.71209590208335,88.03775264791668,44.0,80.0
264,87.50156890208335,88.05420000208335,68.0,91.0
265,87.50156890208335,88.06242367916668,60.0,89.0
266,87.50156890208335,88.06571315000001,63.0,102.0
267,86.71209590208335,88.13643677291668,56.0,80.0
268,88.29104190208335,88.83709406041667,68.0,89.0
269,88.29104190208335,88.86340982708334,60.0,88.0
270,88.29104190208335,88.8650545625,63.0,91.0
271,88.29104190208335,89.61011970625002,44.0,88.0
272,89.08051490208335,89.66439597500002,68.0,91.0
273,89.08051490208335,89.72031697916668,60.0,90.0
274,89.08051490208335,89.77294851250001,63.0,96.0
275,88.68577840208334,89.91604049375002,51.0,70.0
276,89.47525140208334,89.91932996458334,56.0,81.0
277,89.86998790208335,90.45715844583334,68.0,89.0
278,89.86998790208335,90.46209265208334,60.0,88.0
279,89.86998790208335,90.49498736041669,63.0,89.0
280,90.46209265208334,90.83873706250002,56.0,92.0
281,89.86998790208335,91.08544737500002,44.0,84.0
282,90.65946090208335,91.11834208333335,60.0,104.0
283,90.26472440208335,91.13149996666668,51.0,73.0
284,90.65946090208335,91.19071044166668,68.0,98.0
285,90.65946090208335,91.29432877291669,63.0,113.0
286,91.05419740208335,91.38149975000002,56.0,84.0
287,91.44893390208335,91.89630193541669,68.0,91.0
288,91.44893390208335,91.93248611458334,61.0,94.0
289,91.44893390208335,91.94399926250001,65.0,104.0
290,91.84367040208335,92.30419631875002,56.0,77.0
291,91.44893390208335,92.64136707916668,49.0,86.0
292,92.23840690208334,92.69564334791669,68.0,91.0
293,92.23840690208334,92.72195911458334,65.0,93.0
294,92.23840690208334,92.73182752708335,61.0,94.0
295,92.63314340208335,93.03774831458335,56.0,85.0
296,93.02787990208334,93.47031372916668,60.0,89.0
297,93.02787990208334,93.48511634791669,68.0,87.0
298,93.02787990208334,93.51801105625002,63.0,93.0
299,93.42261640208335,93.95551067708335,56.0,81.0
300,93.02787990208334,93.95880014791668,48.0,84.0
301,93.81735290208334,94.24169463958334,60.0,96.0
302,93.81735290208334,94.27458934791667,68.0,100.0
303,93.81735290208334,94.44728656666668,63.0,110.0
304,94.21208940208335,94.59366801875001,48.0,81.0
305,94.60682590208334,95.11833861666668,70.0,100.0
306,94.60682590208334,95.12162808750001,65.0,91.0
307,94.60682590208334,95.13643070625001,61.0,89.0
308,95.00156240208335,95.42590413958335,53.0,71.0
309,95.39629890208334,95.78774593125002,58.0,80.0
310,95.39629890208334,95.83708799375002,70.0,92.0
311,94.60682590208334,95.86011428958335,46.0,86.0
312,95.39629890208334,95.86504849583335,61.0,93.0
313,95.39629890208334,96.01142994791668,65.0,94.0
314,95.79103540208335,96.22360081666667,53.0,81.0
315,96.18577190208335,96.60517943333335,68.0,91.0
316,96.18577190208335,96.71702144166669,60.0,88.0
317,96.18577190208335,96.71866617708335,63.0,100.0
318,96.58050840208335,97.09860005833335,53.0,74.0
319,96.18577190208335,97.14794212083335,44.0,86.0
320,96.97524490208335,97.42919187708335,60.0,93.0
321,96.97524490208335,97.54267862083334,68.0,100.0
322,96.97524490208335,97.57886280000001,63.0,108.0
323,97.36998140208335,97.74662581250001,44.0,84.0
324,97.76471790208335,98.24333590833335,70.0,94.0
325,97.76471790208335,98.27129641041668,61.0,100.0
326,97.76471790208335,98.27294114583334,66.0,107.0
327,98.15945440208334,98.54267775416668,49.0,72.0
328,98.55419090208335,98.94234846041668,70.0,96.0
329,98.55419090208335,98.97853263958335,54.0,83.0
330,98.55419090208335,98.98017737500001,66.0,107.0
331,98.55419090208335,98.99004578750001,61.0,100.0
332,97.76471790208335,99.03609837916669,42.0,89.0
333,98.94892740208334,99.29103236875001,49.0,85.0
334,99.34366390208335,99.80090034791668,68.0,91.0
335,99.34366390208335,99.82392664375001,60.0,94.0
336,99.34366390208335,99.83379505625001,65.0,94.0
337,100.13313690208335,100.53774181458334,60.0,96.0
338,99.34366390208335,100.55254443333335,41.0,87.0
339,100.13313690208335,100.57063652291669,68.0,102.0
340,100.13313690208335,100.57392599375001,65.0,107.0
341,99.73840040208334,100.57721546458335,48.0,71.0
342,100.52787340208334,100.83379418958334,53.0,87.0
343,100.92260990208335,101.36997793541668,70.0,100.0
344,100.92260990208335,101.46043838333335,66.0,104.0
345,100.92260990208335,101.47195153125001,63.0,100.0
346,100.92260990208335,101.82885911666668,51.0,88.0
347,101.31734640208334,101.87984591458334,58.0,78.0
348,101.71208290208335,102.18741143750002,70.0,94.0
349,101.71208290208335,102.19070090833335,66.0,108.0
350,102.10681940208335,102.23181929375002,51.0,88.0
351,101.71208290208335,102.37820074583335,63.0,100.0
352,102.50155590208335,103.10517380000002,68.0,102.0
353,102.50155590208335,103.12655536041669,60.0,100.0
354,102.50155590208335,103.12984483125001,63.0,110.0
355,103.29102890208335,103.50319977083335,58.0,102.0
356,103.48839715208335,103.62655492708335,60.0,96.0
357,102.50155590208335,103.71372590416668,44.0,96.0
358,102.89629240208335,103.74826534791669,51.0,79.0
359,103.68576540208335,103.82392317708334,61.0,96.0
360,103.88313365208334,104.00155460208335,63.0,94.0
361,103.09366065208334,104.00319933750002,56.0,104.0
362,104.08050190208336,104.41931739791669,61.0,107.0
363,104.08050190208336,104.42260686875001,65.0,107.0
364,104.47523840208335,104.91438275833335,56.0,77.0
365,104.86997490208334,105.24332984166668,65.0,98.0
366,104.86997490208334,105.24990878333335,73.0,94.0
367,104.86997490208334,105.26306666666669,61.0,86.0
368,104.86997490208334,105.26306666666669,68.0,110.0
369,104.08050190208336,105.33214555416669,49.0,98.0
370,105.26471140208335,105.70878996458335,56.0,77.0
371,105.65944790208334,106.10517120000002,72.0,100.0
372,105.65944790208334,106.15944746875002,63.0,104.0
373,105.65944790208334,106.17096061666668,68.0,113.0
374,106.05418440208335,106.48346034583335,56.0,80.0
375,106.44892090208334,106.81569690000002,60.0,86.0
376,106.44892090208334,106.90944681875001,63.0,107.0
377,106.44892090208334,106.94892046875002,72.0,94.0
378,106.44892090208334,107.03773618125001,68.0,108.0
379,105.65944790208334,107.10188086250001,48.0,85.0
380,107.23839390208335,107.72359085000002,70.0,100.0
381,107.23839390208335,107.74661714583335,61.0,98.0
382,107.23839390208335,107.80747235625002,65.0,108.0
383,107.63313040208335,108.02293269583335,53.0,81.0
384,108.02786690208335,108.42424813750002,58.0,83.0
385,108.02786690208335,108.45056390416669,61.0,98.0
386,108.02786690208335,108.47030072916668,65.0,108.0
387,108.02786690208335,108.47523493541668,70.0,104.0
388,107.23839390208335,108.50319543750001,46.0,88.0
389,108.42260340208335,108.78773466458335,53.0,87.0
390,108.81733990208335,109.28444476041669,68.0,96.0
391,108.81733990208335,109.31898420416668,60.0,91.0
392,108.81733990208335,109.32391841041668,63.0,104.0
393,109.21207640208335,109.59201028333335,53.0,84.0
394,109.60681290208335,110.01141781458335,60.0,100.0
395,109.60681290208335,110.06404934791668,56.0,86.0
396,110.00154940208336,110.07391776041668,53.0,88.0
397,108.81733990208335,110.13477297083335,44.0,86.0
398,109.60681290208335,110.13970717708335,63.0,113.0
399,109.60681290208335,110.15779926666669,68.0,100.0
400,110.39628590208335,110.87819337916669,70.0,94.0
401,110.39628590208335,110.90121967500002,66.0,102.0
402,110.39628590208335,110.90944335208334,61.0,91.0
403,110.79102240208336,111.18246943125001,49.0,81.0
404,110.39628590208335,111.67095585000001,42.0,93.0
405,111.18575890208335,111.67753479166669,70.0,93.0
406,111.18575890208335,111.70220582291668,66.0,104.0
407,111.18575890208335,111.70878476458336,61.0,100.0
408,111.18575890208335,111.73345579583335,54.0,85.0
409,111.58049540208334,111.78937680000001,49.0,85.0
410,111.97523190208335,112.41931046458335,68.0,98.0
411,111.97523190208335,112.45384990833335,63.0,113.0
412,111.97523190208335,112.47194199791669,60.0,96.0
413,112.36996840208334,112.75812596041668,51.0,85.0
414,111.97523190208335,113.23180976041668,44.0,94.0
415,112.76470490208335,113.24496764375002,60.0,102.0
416,112.76470490208335,113.25154658541669,68.0,102.0
417,113.15944140208335,113.32227020833335,51.0,82.0
418,112.76470490208335,113.32720441458335,63.0,110.0
419,112.76470490208335,113.41930959791668,56.0,87.0
420,113.55417790208335,114.10351953125002,70.0,100.0
421,113.55417790208335,114.12325635625001,66.0,108.0
422,113.55417790208335,114.23674310000001,63.0,100.0
423,113.55417790208335,114.32226934166668,51.0,88.0
424,114.34365090208335,114.85516361666669,44.0,86.0
425,114.34365090208335,114.86832150000002,60.0,100.0
426,114.34365090208335,114.89299253125002,68.0,102.0
427,114.34365090208335,114.99167665625002,63.0,104.0
428,114.34365090208335,114.99332139166668,56.0,87.0
429,115.13312390208336,115.60187349583335,68.0,91.0
430,115.13312390208336,115.63476820416669,65.0,98.0
431,115.13312390208336,115.67424185416668,61.0,88.0
432,115.52786040208335,116.05253100000002,56.0,77.0
433,115.92259690208336,116.39792543750002,68.0,89.0
434,115.13312390208336,116.40614911458336,49.0,80.0
435,115.92259690208336,116.49332009166669,65.0,91.0
436,115.92259690208336,116.50483323958335,61.0,89.0
437,116.31733340208335,116.74660934583335,56.0,78.0
438,116.71206990208336,117.15943793541669,68.0,91.0
439,116.71206990208336,117.19562211458336,61.0,94.0
440,116.71206990208336,117.20713526250002,65.0,104.0
441,117.10680640208335,117.56733231875002,56.0,77.0
442,116.71206990208336,117.90450307916669,49.0,86.0
443,117.50154290208336,117.95877934791669,68.0,91.0
444,117.50154290208336,117.98509511458334,65.0,93.0
445,117.50154290208336,117.99496352708336,61.0,94.0
446,117.89627940208335,118.30088431458336,56.0,85.0
447,118.29101590208334,118.73344972916668,60.0,89.0
448,118.29101590208334,118.74825234791669,68.0,87.0
449,118.29101590208334,118.78114705625002,63.0,93.0
450,118.68575240208335,119.21864667708336,56.0,81.0
451,118.29101590208334,119.22193614791668,48.0,84.0
452,119.08048890208335,119.50483063958335,60.0,96.0
453,119.08048890208335,119.53772534791669,68.0,100.0
454,119.08048890208335,119.71042256666668,63.0,110.0
455,119.47522540208335,119.85680401875001,48.0,81.0
456,119.86996190208335,120.38147461666668,70.0,100.0
457,119.86996190208335,120.38476408750002,65.0,91.0
458,119.86996190208335,120.39956670625001,61.0,89.0
459,120.26469840208335,120.68904013958335,53.0,71.0
460,120.65943490208335,121.05088193125002,58.0,80.0
461,120.65943490208335,121.10022399375002,70.0,92.0
462,119.86996190208335,121.12325028958335,46.0,86.0
463,120.65943490208335,121.12818449583335,61.0,93.0
464,120.65943490208335,121.27456594791668,65.0,94.0
465,121.05417140208336,121.48673681666668,53.0,81.0
466,121.44890790208335,121.86831543333335,68.0,91.0
467,121.44890790208335,121.98015744166669,60.0,88.0
468,121.44890790208335,121.98180217708335,63.0,100.0
469,121.84364440208336,122.36173605833335,53.0,74.0
470,121.44890790208335,122.41107812083335,44.0,86.0
471,122.23838090208335,122.69232787708336,60.0,93.0
472,122.23838090208335,122.80581462083335,68.0,100.0
473,122.23838090208335,122.84199880000001,63.0,108.0
474,122.63311740208336,123.00976181250002,44.0,84.0
475,123.02785390208335,123.50647190833335,70.0,94.0
476,123.02785390208335,123.53443241041668,61.0,100.0
477,123.02785390208335,123.53607714583335,66.0,107.0
478,123.42259040208336,123.80581375416669,49.0,72.0
479,123.81732690208335,124.20548446041668,70.0,96.0
480,123.81732690208335,124.24166863958335,54.0,83.0
481,123.81732690208335,124.24331337500001,66.0,107.0
482,123.81732690208335,124.25318178750003,61.0,100.0
483,123.02785390208335,124.29923437916669,42.0,89.0
484,124.21206340208336,124.55416836875001,49.0,85.0
485,124.60679990208335,125.06403634791668,68.0,91.0
486,124.60679990208335,125.08706264375002,60.0,94.0
487,124.60679990208335,125.09693105625001,65.0,94.0
488,125.39627290208335,125.80087781458336,60.0,96.0
489,124.60679990208335,125.81568043333336,41.0,87.0
490,125.39627290208335,125.83377252291669,68.0,102.0
491,125.39627290208335,125.83706199375001,65.0,107.0
492,125.00153640208335,125.84035146458335,48.0,71.0
493,125.79100940208335,126.09693018958335,53.0,87.0
494,126.18574590208335,126.63311393541669,70.0,100.0
495,126.18574590208335,126.72357438333336,66.0,104.0
496,126.18574590208335,126.73508753125002,63.0,100.0
497,126.18574590208335,127.09199511666668,51.0,88.0
498,126.58048240208335,127.14298191458336,58.0,78.0
499,126.97521890208336,127.45054743750002,70.0,94.0
500,126.97521890208336,127.45383690833336,66.0,108.0
501,127.36995540208335,127.49495529375002,51.0,88.0
502,126.97521890208336,127.64133674583336,63.0,100.0
503,127.76469190208336,128.36830980000002,68.0,102.0
504,127.76469190208336,128.3896913604167,60.0,100.0
505,127.76469190208336,128.39298083125001,63.0,110.0
506,128.55416490208336,128.76633577083336,58.0,102.0
507,128.75153315208334,128.88969092708336,60.0,96.0
508,127.76469190208336,128.9768619041667,44.0,96.0
509,128.15942840208336,129.0114013479167,51.0,79.0
510,128.94890140208335,129.08705917708335,61.0,96.0
511,129.14626965208336,129.26469060208336,63.0,94.0
512,128.35679665208335,129.2663353375,56.0,104.0
513,129.34363790208334,129.68245339791667,61.0,107.0
514,129.34363790208334,129.68574286875003,65.0,107.0
515,129.73837440208337,130.17751875833335,56.0,77.0
516,130.13311090208336,130.50646584166668,65.0,98.0
517,130.13311090208336,130.51304478333336,73.0,94.0
518,130.13311090208336,130.52620266666668,61.0,86.0
519,130.13311090208336,130.52620266666668,68.0,110.0
520,129.34363790208334,130.5952815541667,49.0,98.0
521,130.52784740208335,130.97192596458336,56.0,77.0
522,130.92258390208335,131.36830720000003,72.0,100.0
523,130.92258390208335,131.42258346875002,63.0,104.0
524,130.92258390208335,131.4340966166667,68.0,113.0
525,131.31732040208334,131.74659634583335,56.0,80.0
526,131.71205690208336,132.0788329,60.0,86.0
527,131.71205690208336,132.17258281875002,63.0,107.0
528,131.71205690208336,132.21205646875,72.0,94.0
529,131.71205690208336,132.30087218125,68.0,108.0
530,130.92258390208335,132.36501686250003,48.0,85.0
531,132.50152990208335,132.98672685000003,70.0,100.0
532,132.50152990208335,133.00975314583334,61.0,98.0
533,132.50152990208335,133.07060835625003,65.0,108.0
534,132.89626640208334,133.28606869583336,53.0,81.0
535,133.29100290208336,133.68738413750003,58.0,83.0
536,133.29100290208336,133.71369990416667,61.0,98.0
537,133.29100290208336,133.7334367291667,65.0,108.0
538,133.29100290208336,133.7383709354167,70.0,104.0
539,132.50152990208335,133.7663314375,46.0,88.0
540,133.68573940208336,134.05087066458336,53.0,87.0
541,134.08047590208335,134.54758076041668,68.0,96.0
542,134.08047590208335,134.5821202041667,60.0,91.0
543,134.08047590208335,134.5870544104167,63.0,104.0
544,134.47521240208334,134.85514628333334,53.0,84.0
545,134.86994890208337,135.27455381458336,60.0,100.0
546,134.86994890208337,135.3271853479167,56.0,86.0
547,135.26468540208336,135.3370537604167,53.0,88.0
548,134.08047590208335,135.39790897083336,44.0,86.0
549,134.86994890208337,135.40284317708335,63.0,113.0
550,134.86994890208337,135.42093526666667,68.0,100.0
551,135.65942190208335,136.14132937916668,70.0,94.0
552,135.65942190208335,136.16435567500002,66.0,102.0
553,135.65942190208335,136.17257935208335,61.0,91.0
554,136.05415840208335,136.44560543125002,49.0,81.0
555,135.65942190208335,136.93409185000002,42.0,93.0
556,136.44889490208337,136.9406707916667,70.0,93.0
557,136.44889490208337,136.96534182291668,66.0,104.0
558,136.44889490208337,136.97192076458336,61.0,100.0
559,136.44889490208337,136.99659179583335,54.0,85.0
560,136.84363140208336,137.05251280000002,49.0,85.0
561,137.23836790208335,137.68244646458336,68.0,98.0
562,137.23836790208335,137.71698590833336,63.0,113.0
563,137.23836790208335,137.73507799791668,60.0,96.0
564,137.63310440208335,138.0212619604167,51.0,85.0
565,137.23836790208335,138.4949457604167,44.0,94.0
566,138.02784090208334,138.50810364375002,60.0,102.0
567,138.02784090208334,138.5146825854167,68.0,102.0
568,138.42257740208336,138.58540620833335,51.0,82.0
569,138.02784090208334,138.59034041458335,63.0,110.0
570,138.02784090208334,138.68244559791668,56.0,87.0
571,138.81731390208336,139.36665553125002,70.0,100.0
572,138.81731390208336,139.38639235625,66.0,108.0
573,138.81731390208336,139.49987910000002,63.0,100.0
574,138.81731390208336,139.5854053416667,51.0,88.0
575,139.60678690208334,140.1182996166667,44.0,86.0
576,139.60678690208334,140.1314575,60.0,100.0
577,139.60678690208334,140.15612853125003,68.0,102.0
578,139.60678690208334,140.25481265625,63.0,104.0
579,139.60678690208334,140.2564573916667,56.0,87.0
580,140.39625990208336,140.86500949583336,68.0,91.0
581,140.39625990208336,140.89790420416668,65.0,98.0
582,140.39625990208336,140.9373778541667,61.0,88.0
583,140.79099640208335,141.31566700000002,56.0,77.0
584,141.18573290208334,141.66106143750002,68.0,89.0
585,140.39625990208336,141.66928511458335,49.0,80.0
586,141.18573290208334,141.75645609166668,65.0,91.0
587,141.18573290208334,141.76796923958335,61.0,89.0
588,141.58046940208337,142.00974534583335,56.0,78.0
589,141.97520590208336,142.34362663541668,61.0,87.0
590,141.97520590208336,142.35842925416668,68.0,86.0
591,141.97520590208336,142.37652134375003,65.0,87.0
592,141.97520590208336,142.4275081416667,49.0,87.0
593,143.55415190208336,144.68901933958335,73.0,81.0
594,143.55415190208336,144.72849298958334,68.0,78.0
595,143.55415190208336,144.77783505208336,65.0,81.0
596,144.34362490208335,144.78441399375004,61.0,79.0
597,143.55415190208336,144.80415081875003,49.0,77.0
598,143.94888840208336,145.16434787500003,56.0,68.0
599,145.92257090208335,146.3156626666667,60.0,78.0
600,145.13309790208336,146.32717581458334,63.0,80.0
601,145.13309790208336,146.3600705229167,72.0,84.0
602,145.52783440208336,146.40283364375003,56.0,69.0
603,145.13309790208336,146.40283364375003,68.0,82.0
604,145.13309790208336,146.42257046875002,48.0,81.0
605,146.71204390208337,147.48013534166668,65.0,86.0
606,146.71204390208337,147.48835901875003,70.0,83.0
607,146.71204390208337,147.50151690208335,61.0,84.0
608,147.89625340208335,148.37980561458335,60.0,80.0
609,146.71204390208337,148.78934473333337,46.0,81.0
610,147.50151690208335,148.80743682291669,58.0,81.0
611,147.10678040208336,149.12158128750002,53.0,70.0
612,148.29098990208337,149.19559438125003,61.0,87.0
613,149.08046290208335,149.86500169583334,44.0,94.0
614,149.86993590208337,151.07552696250002,66.0,87.0
615,149.86993590208337,151.08375063958334,58.0,81.0
616,150.65940890208336,151.1117111416667,54.0,81.0
617,150.26467240208336,151.13144796666668,49.0,64.0
618,149.86993590208337,151.13802690833336,42.0,86.0
619,149.86993590208337,151.14954005625003,61.0,76.0
620,151.44888190208334,152.59361775208336,41.0,81.0
621,151.44888190208334,152.83703859375,68.0,85.0
622,151.44888190208334,152.84197280000004,60.0,83.0
623,151.44888190208334,153.01302528333335,65.0,78.0
624,153.81730090208336,155.73177292708337,63.0,83.0
625,153.42256440208337,155.77782551875003,58.0,76.0
626,153.02782790208335,155.8090754916667,51.0,83.0
627,154.60677390208335,156.13637783958336,72.0,89.0
628,154.60677390208335,156.17091728333335,68.0,86.0
629,156.97519290208336,157.36663993125003,61.0,84.0
630,156.18571990208335,157.41927146458335,49.0,87.0
631,157.36992940208336,157.77617905000002,65.0,86.0
632,157.76466590208335,157.77617905000002,65.0,87.0
633,156.58045640208337,157.82387637708337,56.0,72.0
634,157.36992940208336,157.96203415208336,68.0,81.0
635,157.76466590208335,158.27288914583335,69.0,87.0
636,158.15940240208334,158.82387551041668,54.0,50.0
637,158.55413890208337,159.32387507708336,69.0,84.0
638,158.55413890208337,159.36005925625003,65.0,87.0
639,157.76466590208335,159.36828293333335,48.0,85.0
640,159.34361190208335,160.19722958333335,70.0,87.0
641,159.34361190208335,160.29097950208336,61.0,86.0
642,160.52782140208336,161.52946527083336,60.0,82.0
643,160.52782140208336,161.53111000625003,65.0,78.0
644,159.73834840208335,161.5524915666667,53.0,63.0
645,159.34361190208335,161.55578103750003,46.0,81.0
646,160.13308490208337,161.56400471458335,58.0,77.0
647,162.50150390208336,163.78604226250002,42.0,85.0
648,162.50150390208336,163.78604226250002,66.0,87.0
649,162.50150390208336,163.79097646875002,58.0,83.0
650,162.50150390208336,164.02617363333337,61.0,82.0
651,163.29097690208337,164.07880516666668,54.0,81.0
652,162.89624040208335,164.08373937291668,49.0,67.0
653,164.08044990208336,164.65446256250002,68.0,86.0
654,164.08044990208336,164.7251861854167,60.0,80.0
655,164.08044990208336,165.3468961729167,44.0,85.0
656,164.86992290208335,165.36827773333337,60.0,79.0
657,164.86992290208335,165.3863698229167,68.0,79.0
658,164.47518640208335,165.42090926666668,51.0,70.0
659,164.08044990208336,165.44558029791668,63.0,72.0
660,164.86992290208335,165.72025111250002,56.0,79.0
661,165.65939590208336,166.1067639354167,61.0,83.0
662,165.65939590208336,166.27781641875004,65.0,81.0
663,165.65939590208336,166.59853982500002,68.0,82.0
664,166.44886890208335,167.45215750625002,61.0,82.0
665,166.05413240208335,168.4209066666667,56.0,67.0
666,166.84360540208337,168.42748560833337,63.0,81.0
667,167.23834190208336,168.44228822708337,68.0,87.0
668,165.65939590208336,168.4603803166667,49.0,82.0
669,167.23834190208336,168.5047881729167,65.0,88.0
670,168.81728790208336,169.3781426791667,68.0,87.0
671,168.81728790208336,169.44557683125004,61.0,86.0
672,168.81728790208336,169.45873471458336,65.0,89.0
673,168.81728790208336,169.98833951875002,49.0,88.0
674,169.60676090208335,170.04590525833336,68.0,88.0
675,169.60676090208335,170.06235261250004,61.0,85.0
676,169.60676090208335,170.10511573333335,65.0,86.0
677,170.39623390208337,170.8929439979167,68.0,87.0
678,170.39623390208337,170.92583870625003,60.0,87.0
679,170.39623390208337,170.93077291250003,63.0,88.0
680,171.18570690208335,171.66268017291668,60.0,87.0
681,171.18570690208335,171.66596964375003,68.0,88.0
682,170.39623390208337,171.66925911458335,56.0,86.0
683,171.18570690208335,171.69557488125002,63.0,92.0
684,170.39623390208337,171.70379855833335,44.0,84.0
685,171.97517990208337,172.42583740625003,65.0,90.0
686,171.97517990208337,172.4324163479167,68.0,88.0
687,171.97517990208337,172.44392949583337,60.0,88.0
688,172.36991640208336,172.97188956458336,53.0,71.0
689,171.97517990208337,173.20873146458337,41.0,87.0
690,172.76465290208336,173.20873146458337,60.0,96.0
691,172.76465290208336,173.22024461250004,68.0,93.0
692,172.76465290208336,173.23175776041668,65.0,94.0
693,173.15938940208335,173.5574153729167,53.0,73.0
694,173.55412590208337,173.9916255229167,70.0,89.0
695,173.55412590208337,174.01958602500002,61.0,86.0
696,173.55412590208337,174.0212307604167,65.0,88.0
697,174.34359890208336,174.69721701666668,58.0,81.0
698,173.94886240208336,174.71037490000003,53.0,73.0
699,174.34359890208336,174.74326960833335,65.0,96.0
700,174.34359890208336,174.75807222708335,61.0,91.0
701,173.55412590208337,174.75971696250002,46.0,83.0
702,174.34359890208336,174.77287484583337,70.0,91.0
703,175.13307190208337,175.56070311041668,70.0,88.0
704,175.13307190208337,175.63800567500002,66.0,89.0
705,175.13307190208337,175.67747932500004,63.0,86.0
706,175.52780840208337,176.3600445229167,58.0,65.0
707,175.92254490208336,176.37155767083337,70.0,86.0
708,175.13307190208337,176.38636028958337,51.0,88.0
709,175.92254490208336,176.40774185000004,66.0,92.0
710,175.92254490208336,176.47517600208337,63.0,88.0
711,176.71201790208335,177.17254381875003,68.0,89.0
712,176.71201790208335,177.21201746875002,63.0,91.0
713,176.71201790208335,177.2333990291667,60.0,90.0
714,176.71201790208335,177.98175364375004,44.0,87.0
715,177.50149090208336,177.99162205625004,60.0,91.0
716,177.50149090208336,177.99162205625004,68.0,93.0
717,177.10675440208337,178.01300361666668,51.0,71.0
718,177.50149090208336,178.02451676458335,63.0,102.0
719,177.50149090208336,178.0820825041667,56.0,78.0
720,178.29096390208335,178.89951600625002,61.0,88.0
721,178.29096390208335,179.12155528750003,65.0,92.0
722,178.29096390208335,179.14622631875002,68.0,91.0
723,179.47517340208336,179.79754154375001,66.0,92.0
724,179.08043690208336,180.06398868125004,61.0,85.0
725,179.86990990208335,180.50806724375002,68.0,91.0
726,179.86990990208335,180.5146461854167,65.0,100.0
727,178.68570040208337,180.8748432416667,56.0,71.0
728,178.29096390208335,180.9883299854167,49.0,83.0
729,180.65938290208337,181.01957995833337,68.0,62.0
730,180.65938290208337,181.05905360833336,65.0,40.0
731,181.44885590208335,181.86826343333337,70.0,87.0
732,181.44885590208335,181.88306605208336,66.0,88.0
733,181.44885590208335,181.89293446458336,61.0,87.0
734,182.23832890208337,182.6560916979167,70.0,92.0
735,182.23832890208337,182.66267063958335,66.0,100.0
736,181.84359240208337,182.68734167083335,54.0,80.0
737,182.23832890208337,182.6906311416667,61.0,93.0
738,181.44885590208335,182.72681532083337,42.0,87.0
739,183.02780190208335,183.48503834791669,68.0,87.0
740,183.02780190208335,183.54753829375002,60.0,85.0
741,183.02780190208335,183.5590514416667,63.0,92.0
742,183.81727490208337,184.22516928541668,56.0,79.0
743,183.42253840208335,184.24326137500003,51.0,67.0
744,183.02780190208335,184.25806399375003,44.0,84.0
745,183.81727490208337,184.3287876166667,68.0,89.0
746,183.81727490208337,184.36497179583336,60.0,87.0
747,183.81727490208337,184.3682612666667,63.0,93.0
748,184.60674790208336,185.0541159354167,68.0,87.0
749,184.60674790208336,185.06069487708336,65.0,90.0
750,184.60674790208336,185.06727381875004,60.0,88.0
751,185.00148440208335,185.69556274791668,53.0,80.0
752,184.60674790208336,185.79589160833336,41.0,88.0
753,185.39622090208337,185.8633257604167,60.0,91.0
754,185.39622090208337,185.89128626250002,68.0,91.0
755,185.39622090208337,186.04918086250004,65.0,94.0
756,185.79095740208336,186.23174649375002,53.0,84.0
757,186.18569390208336,188.38799462500003,70.0,90.0
758,187.76463990208336,188.38799462500003,70.0,91.0
759,187.76463990208336,188.4537840416667,66.0,90.0
760,187.76463990208336,188.46036298333337,63.0,88.0
761,188.55411290208338,189.00970461250003,70.0,90.0
762,188.55411290208338,189.04259932083338,66.0,98.0
763,186.18569390208336,189.07878350000001,58.0,78.0
764,186.18569390208336,189.08207297083337,62.0,87.0
765,186.18569390208336,189.09194138333336,65.0,90.0
766,186.18569390208336,189.15115185833335,46.0,83.0
767,188.55411290208338,189.16595447708337,63.0,89.0
768,187.76463990208336,189.34029643125004,51.0,89.0
769,189.34358590208336,189.83700652708336,68.0,93.0
770,189.34358590208336,189.87648017708335,63.0,96.0
771,189.34358590208336,189.96529588958336,60.0,87.0
772,189.34358590208336,190.6692426479167,44.0,80.0
773,190.13305890208335,190.68569000208336,68.0,91.0
774,190.13305890208335,190.69391367916668,60.0,89.0
775,190.13305890208335,190.69720315000004,63.0,102.0
776,189.34358590208336,190.7679267729167,56.0,80.0
777,190.92253190208336,191.4685840604167,68.0,89.0
778,190.92253190208336,191.49489982708337,60.0,88.0
779,190.92253190208336,191.49654456250002,63.0,91.0
780,190.92253190208336,192.24160970625002,44.0,88.0
781,191.71200490208335,192.29588597500003,68.0,91.0
782,191.71200490208335,192.3518069791667,60.0,90.0
783,191.71200490208335,192.40443851250004,63.0,96.0
784,191.31726840208336,192.54753049375003,51.0,70.0
785,192.10674140208337,192.55081996458335,56.0,81.0
786,192.50147790208337,193.08864844583337,68.0,89.0
787,192.50147790208337,193.09358265208337,60.0,88.0
788,192.50147790208337,193.1264773604167,63.0,89.0
789,193.09358265208337,193.47022706250002,56.0,92.0
790,192.50147790208337,193.71693737500004,44.0,84.0
791,193.29095090208335,193.74983208333336,60.0,104.0
792,192.89621440208336,193.7629899666667,51.0,73.0
793,193.29095090208335,193.8222004416667,68.0,98.0
794,193.29095090208335,193.9258187729167,63.0,113.0
795,193.68568740208337,194.01298975000003,56.0,84.0
796,194.08042390208337,194.5277919354167,68.0,91.0
797,194.08042390208337,194.56397611458337,61.0,94.0
798,194.08042390208337,194.57548926250004,65.0,104.0
799,194.47516040208336,194.93568631875002,56.0,77.0
800,194.08042390208337,195.2728570791667,49.0,86.0
801,194.86989690208335,195.32713334791669,68.0,91.0
802,194.86989690208335,195.35344911458336,65.0,93.0
803,194.86989690208335,195.36331752708335,61.0,94.0
804,195.26463340208338,195.66923831458337,56.0,85.0
805,195.65936990208337,196.1018037291667,60.0,89.0
806,195.65936990208337,196.1166063479167,68.0,87.0
807,195.65936990208337,196.14950105625002,63.0,93.0
808,196.05410640208336,196.58700067708335,56.0,81.0
809,195.65936990208337,196.5902901479167,48.0,84.0
810,196.44884290208336,196.87318463958337,60.0,96.0
811,196.44884290208336,196.9060793479167,68.0,100.0
812,196.44884290208336,197.0787765666667,63.0,110.0
813,196.84357940208335,197.22515801875002,48.0,81.0
814,197.23831590208337,197.7498286166667,70.0,100.0
815,197.23831590208337,197.75311808750004,65.0,91.0
816,197.23831590208337,197.76792070625004,61.0,89.0
817,197.63305240208336,198.05739413958335,53.0,71.0
818,198.02778890208336,198.41923593125003,58.0,80.0
819,198.02778890208336,198.46857799375002,70.0,92.0
820,197.23831590208337,198.49160428958336,46.0,86.0
821,198.02778890208336,198.49653849583336,61.0,93.0
822,198.02778890208336,198.6429199479167,65.0,94.0
823,198.42252540208335,198.8550908166667,53.0,81.0
824,198.81726190208337,199.23666943333336,68.0,91.0
825,198.81726190208337,199.3485114416667,60.0,88.0
826,198.81726190208337,199.35015617708336,63.0,100.0
827,199.21199840208337,199.73009005833336,53.0,74.0
828,198.81726190208337,199.77943212083338,44.0,86.0
829,199.60673490208336,200.06068187708337,60.0,93.0
830,199.60673490208336,200.17416862083337,68.0,100.0
831,199.60673490208336,200.21035280000004,63.0,108.0
832,200.00147140208335,200.37811581250003,44.0,84.0
833,200.39620790208338,200.87482590833338,70.0,94.0
834,200.39620790208338,200.9027864104167,61.0,100.0
835,200.39620790208338,200.90443114583337,66.0,107.0
836,200.79094440208337,201.1741677541667,49.0,72.0
837,201.18568090208336,201.5738384604167,70.0,96.0
838,201.18568090208336,201.61002263958338,54.0,83.0
839,201.18568090208336,201.61166737500002,66.0,107.0
840,201.18568090208336,201.62153578750002,61.0,100.0
841,200.39620790208338,201.6675883791667,42.0,89.0
842,201.58041740208336,201.92252236875004,49.0,85.0
843,201.97515390208338,202.4323903479167,68.0,91.0
844,201.97515390208338,202.45541664375003,60.0,94.0
845,201.97515390208338,202.46528505625002,65.0,94.0
846,202.76462690208336,203.16923181458336,60.0,96.0
847,201.97515390208338,203.18403443333335,41.0,87.0
848,202.76462690208336,203.2021265229167,68.0,102.0
849,202.76462690208336,203.20541599375002,65.0,107.0
850,202.36989040208337,203.20870546458337,48.0,71.0
851,203.15936340208336,203.46528418958337,53.0,87.0
852,203.55409990208335,204.00146793541668,70.0,100.0
853,203.55409990208335,204.09192838333337,66.0,104.0
854,203.55409990208335,204.10344153125004,63.0,100.0
855,203.55409990208335,204.4603491166667,51.0,88.0
856,203.94883640208337,204.51133591458336,58.0,78.0
857,204.34357290208337,204.81890143750002,70.0,94.0
858,204.34357290208337,204.82219090833337,66.0,108.0
859,204.73830940208336,204.86330929375004,51.0,88.0
860,204.34357290208337,205.00969074583335,63.0,100.0
861,205.13304590208335,205.73666380000003,68.0,102.0
862,205.13304590208335,205.7580453604167,60.0,100.0
863,205.13304590208335,205.76133483125002,63.0,110.0
864,205.92251890208337,206.13468977083338,58.0,102.0
865,206.11988715208335,206.25804492708338,60.0,96.0
866,205.13304590208335,206.3452159041667,44.0,96.0
867,205.52778240208337,206.3797553479167,51.0,79.0
868,206.31725540208336,206.45541317708336,61.0,96.0
869,206.51462365208337,206.63304460208337,63.0,94.0
870,205.72515065208336,206.63468933750002,56.0,104.0
871,206.71199190208335,207.05080739791669,61.0,107.0
872,206.71199190208335,207.05409686875004,65.0,107.0
873,207.10672840208338,207.54587275833336,56.0,77.0
874,207.50146490208337,207.8748198416667,65.0,98.0
875,207.50146490208337,207.88139878333337,73.0,94.0
876,207.50146490208337,207.8945566666667,61.0,86.0
877,207.50146490208337,207.8945566666667,68.0,110.0
878,206.71199190208335,207.9636355541667,49.0,98.0
879,207.89620140208336,208.34027996458337,56.0,77.0
880,208.29093790208336,208.73666120000004,72.0,100.0
881,208.29093790208336,208.79093746875003,63.0,104.0
882,208.29093790208336,208.8024506166667,68.0,113.0
883,208.68567440208338,209.11495034583336,56.0,80.0
884,209.08041090208337,209.44718690000002,60.0,86.0
885,209.08041090208337,209.54093681875003,63.0,107.0
886,209.08041090208337,209.58041046875005,72.0,94.0
887,209.08041090208337,209.66922618125002,68.0,108.0
888,208.29093790208336,209.73337086250004,48.0,85.0
889,209.86988390208336,210.35508085000004,70.0,100.0
890,209.86988390208336,210.37810714583335,61.0,98.0
891,209.86988390208336,210.43896235625004,65.0,108.0
892,210.26462040208335,210.65442269583338,53.0,81.0
893,210.65935690208337,211.05573813750004,58.0,83.0
894,210.65935690208337,211.08205390416668,61.0,98.0
895,210.65935690208337,211.1017907291667,65.0,108.0
896,210.65935690208337,211.1067249354167,70.0,104.0
897,209.86988390208336,211.13468543750002,46.0,88.0
898,211.05409340208337,211.41922466458337,53.0,87.0
899,211.44882990208336,211.9159347604167,68.0,96.0
900,211.44882990208336,211.9504742041667,60.0,91.0
901,211.44882990208336,211.9554084104167,63.0,104.0
902,211.84356640208335,212.22350028333338,53.0,84.0
903,212.23830290208338,212.64290781458337,60.0,100.0
904,212.23830290208338,212.6955393479167,56.0,86.0
905,212.63303940208337,212.7054077604167,53.0,88.0
906,211.44882990208336,212.76626297083337,44.0,86.0
907,212.23830290208338,212.77119717708337,63.0,113.0
908,212.23830290208338,212.78928926666669,68.0,100.0
909,213.02777590208336,213.5096833791667,70.0,94.0
910,213.02777590208336,213.53270967500004,66.0,102.0
911,213.02777590208336,213.54093335208336,61.0,91.0
912,213.42251240208336,213.81395943125003,49.0,81.0
913,213.02777590208336,214.30244585000003,42.0,93.0
914,213.81724890208338,214.3090247916667,70.0,93.0
915,213.81724890208338,214.3336958229167,66.0,104.0
916,213.81724890208338,214.34027476458337,61.0,100.0
917,213.81724890208338,214.36494579583336,54.0,85.0
918,214.21198540208337,214.42086680000003,49.0,85.0
919,214.60672190208336,215.05080046458338,68.0,98.0
920,214.60672190208336,215.08533990833337,63.0,113.0
921,214.60672190208336,215.1034319979167,60.0,96.0
922,215.00145840208336,215.3896159604167,51.0,85.0
923,214.60672190208336,215.8632997604167,44.0,94.0
924,215.39619490208338,215.87645764375003,60.0,102.0
925,215.39619490208338,215.8830365854167,68.0,102.0
926,215.79093140208337,215.95376020833336,51.0,82.0
927,215.39619490208338,215.95869441458336,63.0,110.0
928,215.39619490208338,216.0507995979167,56.0,87.0
929,216.18566790208337,216.73500953125003,70.0,100.0
930,216.18566790208337,216.75474635625002,66.0,108.0
931,216.18566790208337,216.86823310000003,63.0,100.0
932,216.18566790208337,216.9537593416667,51.0,88.0
933,216.97514090208335,217.4866536166667,44.0,86.0
934,216.97514090208335,217.49981150000002,60.0,100.0
935,216.97514090208335,217.52448253125004,68.0,102.0
936,216.97514090208335,217.62316665625002,63.0,104.0
937,216.97514090208335,217.6248113916667,56.0,87.0
938,217.76461390208337,218.23336349583337,68.0,91.0
939,217.76461390208337,218.2662582041667,65.0,98.0
940,217.76461390208337,218.3057318541667,61.0,88.0
941,218.15935040208336,218.68402100000003,56.0,77.0
942,218.55408690208336,219.02941543750003,68.0,89.0
943,217.76461390208337,219.03763911458336,49.0,80.0
944,218.55408690208336,219.1248100916667,65.0,91.0
945,218.55408690208336,219.13632323958336,61.0,89.0
946,218.94882340208338,219.37809934583336,56.0,78.0
947,219.34355990208337,219.7909279354167,68.0,91.0
948,219.34355990208337,219.82711211458337,61.0,94.0
949,219.34355990208337,219.83862526250005,65.0,104.0
950,219.73829640208336,220.19882231875005,56.0,77.0
951,219.34355990208337,220.5359930791667,49.0,86.0
952,220.13303290208336,220.5902693479167,68.0,91.0
953,220.13303290208336,220.61658511458336,65.0,93.0
954,220.13303290208336,220.62645352708336,61.0,94.0
955,220.52776940208338,220.93237431458337,56.0,85.0
956,220.92250590208337,221.3649397291667,60.0,89.0
957,220.92250590208337,221.3797423479167,68.0,87.0
958,220.92250590208337,221.41263705625002,63.0,93.0
959,221.31724240208337,221.85013667708336,56.0,81.0
960,220.92250590208337,221.8534261479167,48.0,84.0
961,221.71197890208336,222.13632063958337,60.0,96.0
962,221.71197890208336,222.1692153479167,68.0,100.0
963,221.71197890208336,222.3419125666667,63.0,110.0
964,222.10671540208335,222.48829401875003,48.0,81.0
965,222.50145190208337,223.0129646166667,70.0,100.0
966,222.50145190208337,223.01625408750004,65.0,91.0
967,222.50145190208337,223.03105670625004,61.0,89.0
968,222.89618840208337,223.32053013958335,53.0,71.0
969,223.29092490208336,223.68237193125003,58.0,80.0
970,223.29092490208336,223.73171399375002,70.0,92.0
971,222.50145190208337,223.75474028958337,46.0,86.0
972,223.29092490208336,223.75967449583337,61.0,93.0
973,223.29092490208336,223.9060559479167,65.0,94.0
974,223.68566140208335,224.1182268166667,53.0,81.0
975,224.08039790208338,224.49980543333336,68.0,91.0
976,224.08039790208338,224.6116474416667,60.0,88.0
977,224.08039790208338,224.61329217708337,63.0,100.0
978,224.47513440208337,224.99322605833336,53.0,74.0
979,224.08039790208338,225.04256812083338,44.0,86.0
980,224.86987090208336,225.32381787708337,60.0,93.0
981,224.86987090208336,225.43730462083337,68.0,100.0
982,224.86987090208336,225.47348880000004,63.0,108.0
983,225.26460740208336,225.64125181250003,44.0,84.0
984,225.65934390208338,226.13796190833338,70.0,94.0
985,225.65934390208338,226.1659224104167,61.0,100.0
986,225.65934390208338,226.16756714583337,66.0,107.0
987,226.05408040208337,226.4373037541667,49.0,72.0
988,226.44881690208337,226.8369744604167,70.0,96.0
989,226.44881690208337,226.87315863958338,54.0,83.0
990,226.44881690208337,226.87480337500003,66.0,107.0
991,226.44881690208337,226.88467178750003,61.0,100.0
992,225.65934390208338,226.9307243791667,42.0,89.0
993,226.84355340208336,227.18565836875004,49.0,85.0
994,227.23828990208338,227.6955263479167,68.0,91.0
995,227.23828990208338,227.71855264375003,60.0,94.0
996,227.23828990208338,227.72842105625003,65.0,94.0
997,228.02776290208337,228.43236781458336,60.0,96.0
998,227.23828990208338,228.44717043333335,41.0,87.0
999,228.02776290208337,228.4652625229167,68.0,102.0
1000,228.02776290208337,228.46855199375003,65.0,107.0
1001,227.63302640208337,228.47184146458338,48.0,71.0
1002,228.42249940208336,228.72842018958337,53.0,87.0
1003,228.81723590208335,229.2646039354167,70.0,100.0
1004,228.81723590208335,229.35506438333337,66.0,104.0
1005,228.81723590208335,229.36657753125004,63.0,100.0
1006,228.81723590208335,229.7234851166667,51.0,88.0
1007,229.21197240208338,229.77447191458336,58.0,78.0
1008,229.60670890208337,230.08203743750005,70.0,94.0
1009,229.60670890208337,230.08532690833337,66.0,108.0
1010,230.00144540208336,230.12644529375004,51.0,88.0
1011,229.60670890208337,230.27282674583336,63.0,100.0
1012,230.39618190208336,230.99979980000003,68.0,102.0
1013,230.39618190208336,231.0211813604167,60.0,100.0
1014,230.39618190208336,231.02447083125003,63.0,110.0
1015,231.18565490208337,231.39782577083338,58.0,102.0
1016,231.38302315208338,231.52118092708338,60.0,96.0
1017,230.39618190208336,231.6083519041667,44.0,96.0
1018,230.79091840208338,231.6428913479167,51.0,79.0
1019,231.58039140208336,231.71854917708336,61.0,96.0
1020,231.77775965208338,231.89618060208338,63.0,94.0
1021,230.98828665208336,231.89782533750002,56.0,104.0
1022,231.97512790208336,232.3139433979167,61.0,107.0
1023,231.97512790208336,232.31723286875004,65.0,107.0
1024,232.36986440208338,232.80900875833336,56.0,77.0
1025,232.76460090208337,233.1379558416667,65.0,98.0
1026,232.76460090208337,233.14453478333337,73.0,94.0
1027,232.76460090208337,233.1576926666667,61.0,86.0
1028,232.76460090208337,233.1576926666667,68.0,110.0
1029,231.97512790208336,233.2267715541667,49.0,98.0
1030,233.15933740208337,233.60341596458338,56.0,77.0
1031,233.55407390208336,233.99979720000005,72.0,100.0
1032,233.55407390208336,234.05407346875003,63.0,104.0
1033,233.55407390208336,234.0655866166667,68.0,113.0
1034,233.94881040208338,234.37808634583337,56.0,80.0
1035,234.34354690208338,234.71032290000002,60.0,86.0
1036,234.34354690208338,234.80407281875003,63.0,107.0
1037,234.34354690208338,234.84354646875005,72.0,94.0
1038,234.34354690208338,234.93236218125003,68.0,108.0
1039,233.55407390208336,234.99650686250004,48.0,85.0
1040,235.13301990208336,235.61821685000004,70.0,100.0
1041,235.13301990208336,235.64124314583336,61.0,98.0
1042,235.13301990208336,235.70209835625005,65.0,108.0
1043,235.52775640208336,235.91755869583338,53.0,81.0
1044,235.92249290208338,236.31887413750005,58.0,83.0
1045,235.92249290208338,236.34518990416672,61.0,98.0
1046,235.92249290208338,236.3649267291667,65.0,108.0
1047,235.92249290208338,236.3698609354167,70.0,104.0
1048,235.13301990208336,236.39782143750003,46.0,88.0
1049,236.31722940208337,236.68236066458337,53.0,87.0
1050,236.71196590208336,237.1790707604167,68.0,96.0
1051,236.71196590208336,237.2136102041667,60.0,91.0
1052,236.71196590208336,237.2185444104167,63.0,104.0
1053,237.10670240208336,237.48663628333338,53.0,84.0
1054,237.50143890208338,237.90604381458337,60.0,100.0
1055,237.50143890208338,237.9586753479167,56.0,86.0
1056,237.89617540208337,237.9685437604167,53.0,88.0
1057,236.71196590208336,238.02939897083337,44.0,86.0
1058,237.50143890208338,238.03433317708337,63.0,113.0
1059,237.50143890208338,238.05242526666672,68.0,100.0
1060,238.29091190208337,238.7728193791667,70.0,94.0
1061,238.29091190208337,238.79584567500004,66.0,102.0
1062,238.29091190208337,238.80406935208336,61.0,91.0
1063,238.68564840208336,239.07709543125003,49.0,81.0
1064,238.29091190208337,239.56558185000003,42.0,93.0
1065,239.08038490208338,239.5721607916667,70.0,93.0
1066,239.08038490208338,239.5968318229167,66.0,104.0
1067,239.08038490208338,239.60341076458337,61.0,100.0
1068,239.08038490208338,239.62808179583337,54.0,85.0
1069,239.47512140208337,239.68400280000003,49.0,85.0
1070,239.86985790208337,240.31393646458338,68.0,98.0
1071,239.86985790208337,240.34847590833337,63.0,113.0
1072,239.86985790208337,240.3665679979167,60.0,96.0
1073,240.26459440208336,240.6527519604167,51.0,85.0
1074,239.86985790208337,241.1264357604167,44.0,94.0
1075,240.65933090208338,241.13959364375003,60.0,102.0
1076,240.65933090208338,241.1461725854167,68.0,102.0
1077,241.05406740208338,241.21689620833337,51.0,82.0
1078,240.65933090208338,241.22183041458337,63.0,110.0
1079,240.65933090208338,241.3139355979167,56.0,87.0
1080,241.44880390208337,241.99814553125003,70.0,100.0
1081,241.44880390208337,242.01788235625003,66.0,108.0
1082,241.44880390208337,242.13136910000003,63.0,100.0
1083,241.44880390208337,242.2168953416667,51.0,88.0
1084,242.23827690208336,242.7497896166667,44.0,86.0
1085,242.23827690208336,242.76294750000002,60.0,100.0
1086,242.23827690208336,242.78761853125005,68.0,102.0
1087,242.23827690208336,242.88630265625002,63.0,104.0
1088,242.23827690208336,242.8879473916667,56.0,87.0
1089,243.02774990208337,243.49649949583338,68.0,91.0
1090,243.02774990208337,243.5293942041667,65.0,98.0
1091,243.02774990208337,243.5688678541667,61.0,88.0
1092,243.42248640208336,243.94715700000003,56.0,77.0
1093,243.81722290208336,244.29255143750004,68.0,89.0
1094,243.02774990208337,244.30077511458336,49.0,80.0
1095,243.81722290208336,244.3879460916667,65.0,91.0
1096,243.81722290208336,244.39945923958336,61.0,89.0
1097,244.21195940208338,244.64123534583337,56.0,78.0
1098,244.60669590208337,245.0540639354167,68.0,91.0
1099,244.60669590208337,245.09024811458337,61.0,94.0
1100,244.60669590208337,245.10176126250005,65.0,104.0
1101,245.00143240208337,245.46195831875005,56.0,77.0
1102,244.60669590208337,245.7991290791667,49.0,86.0
1103,245.39616890208336,245.8534053479167,68.0,91.0
1104,245.39616890208336,245.87972111458336,65.0,93.0
1105,245.39616890208336,245.88958952708336,61.0,94.0
1106,245.79090540208338,246.19551031458337,56.0,85.0
1107,246.18564190208338,246.6280757291667,60.0,89.0
1108,246.18564190208338,246.6428783479167,68.0,87.0
1109,246.18564190208338,246.67577305625005,63.0,93.0
1110,246.58037840208337,247.11327267708336,56.0,81.0
1111,246.18564190208338,247.1165621479167,48.0,84.0
1112,246.97511490208336,247.39945663958338,60.0,96.0
1113,246.97511490208336,247.4323513479167,68.0,100.0
1114,246.97511490208336,247.6050485666667,63.0,110.0
1115,247.36985140208338,247.75143001875003,48.0,81.0
1116,247.76458790208338,248.2761006166667,70.0,100.0
1117,247.76458790208338,248.27939008750005,65.0,91.0
1118,247.76458790208338,248.29419270625004,61.0,89.0
1119,248.15932440208337,248.58366613958336,53.0,71.0
1120,248.55406090208336,248.94550793125003,58.0,80.0
1121,248.55406090208336,248.99484999375005,70.0,92.0
1122,247.76458790208338,249.01787628958337,46.0,86.0
1123,248.55406090208336,249.02281049583337,61.0,93.0
1124,248.55406090208336,249.16919194791672,65.0,94.0
1125,248.94879740208336,249.3813628166667,53.0,81.0
1126,249.34353390208338,249.76294143333337,68.0,91.0
1127,249.34353390208338,249.8747834416667,60.0,88.0
1128,249.34353390208338,249.87642817708337,63.0,100.0
1129,249.73827040208337,250.25636205833337,53.0,74.0
1130,249.34353390208338,250.30570412083338,44.0,86.0
1131,250.13300690208337,250.58695387708337,60.0,93.0
1132,250.13300690208337,250.70044062083338,68.0,100.0
1133,250.13300690208337,250.73662480000004,63.0,108.0
1134,250.52774340208336,250.90438781250003,44.0,84.0
1135,250.92247990208338,251.40109790833338,70.0,94.0
1136,250.92247990208338,251.4290584104167,61.0,100.0
1137,250.92247990208338,251.43070314583338,66.0,107.0
1138,251.31721640208337,251.7004397541667,49.0,72.0
1139,251.71195290208337,252.10011046041672,70.0,96.0
1140,251.71195290208337,252.13629463958338,54.0,83.0
1141,251.71195290208337,252.13793937500003,66.0,107.0
1142,251.71195290208337,252.14780778750003,61.0,100.0
1143,250.92247990208338,252.1938603791667,42.0,89.0
1144,252.10668940208336,252.44879436875004,49.0,85.0
1145,252.50142590208338,252.95866234791671,68.0,91.0
1146,252.50142590208338,252.98168864375003,60.0,94.0
1147,252.50142590208338,252.99155705625003,65.0,94.0
1148,253.29089890208337,253.69550381458336,60.0,96.0
1149,252.50142590208338,253.71030643333336,41.0,87.0
1150,253.29089890208337,253.7283985229167,68.0,102.0
1151,253.29089890208337,253.73168799375003,65.0,107.0
1152,252.89616240208338,253.73497746458338,48.0,71.0
1153,253.68563540208336,253.99155618958338,53.0,87.0
1154,254.08037190208339,254.52773993541672,70.0,100.0
1155,254.08037190208339,254.61820038333337,66.0,104.0
1156,254.08037190208339,254.62971353125005,63.0,100.0
1157,254.08037190208339,254.9866211166667,51.0,88.0
1158,254.47510840208338,255.03760791458336,58.0,78.0
1159,254.86984490208337,255.34517343750005,70.0,94.0
1160,254.86984490208337,255.34846290833337,66.0,108.0
1161,255.26458140208337,255.38958129375004,51.0,88.0
1162,254.86984490208337,255.53596274583336,63.0,100.0
1163,255.65931790208336,256.26293580000004,68.0,102.0
1164,255.65931790208336,256.2843173604167,60.0,100.0
1165,255.65931790208336,256.28760683125006,63.0,110.0
1166,256.4487909020834,256.66096177083335,58.0,102.0
1167,256.6461591520834,256.78431692708335,60.0,96.0
1168,255.65931790208336,256.8714879041667,44.0,96.0
1169,256.05405440208335,256.90602734791673,51.0,79.0
1170,256.8435274020834,256.98168517708336,61.0,96.0
1171,257.04089565208335,257.1593166020834,63.0,94.0
1172,256.25142265208336,257.16096133750005,56.0,104.0
1173,257.23826390208336,257.5770793979167,61.0,107.0
1174,257.23826390208336,257.58036886875004,65.0,107.0
1175,257.6330004020834,258.07214475833337,56.0,77.0
1176,258.02773690208335,258.4010918416667,65.0,98.0
1177,258.02773690208335,258.40767078333334,73.0,94.0
1178,258.02773690208335,258.4208286666667,61.0,86.0
1179,258.02773690208335,258.4208286666667,68.0,110.0
1180,257.23826390208336,258.4899075541667,49.0,98.0
1181,258.42247340208337,258.8665519645834,56.0,77.0
1182,258.8172099020834,259.2629332,72.0,100.0
1183,258.8172099020834,259.31720946875004,63.0,104.0
1184,258.8172099020834,259.3287226166667,68.0,113.0
1185,259.21194640208336,259.6412223458334,56.0,80.0
1186,259.6066829020834,259.9734589,60.0,86.0
1187,259.6066829020834,260.06720881875003,63.0,107.0
1188,259.6066829020834,260.10668246875,72.0,94.0
1189,259.6066829020834,260.19549818125006,68.0,108.0
1190,258.8172099020834,260.2596428625,48.0,85.0
1191,260.39615590208336,260.88135285000004,70.0,100.0
1192,260.39615590208336,260.9043791458334,61.0,98.0
1193,260.39615590208336,260.96523435625005,65.0,108.0
1194,260.7908924020834,261.1806946958334,53.0,81.0
1195,261.18562890208335,261.58201013750005,58.0,83.0
1196,261.18562890208335,261.6083259041667,61.0,98.0
1197,261.18562890208335,261.6280627291667,65.0,108.0
1198,261.18562890208335,261.6329969354167,70.0,104.0
1199,260.39615590208336,261.66095743750003,46.0,88.0
1200,261.5803654020834,261.94549666458335,53.0,87.0
1201,261.9751019020834,262.4422067604167,68.0,96.0
1202,261.9751019020834,262.4767462041667,60.0,91.0
1203,261.9751019020834,262.4816804104167,63.0,104.0
1204,262.36983840208336,262.74977228333336,53.0,84.0
1205,262.7645749020834,263.1691798145834,60.0,100.0
1206,262.7645749020834,263.2218113479167,56.0,86.0
1207,263.15931140208335,263.2316797604167,53.0,88.0
1208,261.9751019020834,263.2925349708334,44.0,86.0
1209,262.7645749020834,263.29746917708337,63.0,113.0
1210,262.7645749020834,263.3155612666667,68.0,100.0
1211,263.55404790208337,264.0359553791667,70.0,94.0
1212,263.55404790208337,264.05898167500004,66.0,102.0
1213,263.55404790208337,264.06720535208336,61.0,91.0
1214,263.9487844020834,264.34023143125006,49.0,81.0
1215,263.55404790208337,264.82871785000003,42.0,93.0
1216,264.34352090208336,264.8352967916667,70.0,93.0
1217,264.34352090208336,264.8599678229167,66.0,104.0
1218,264.34352090208336,264.86654676458335,61.0,100.0
1219,264.34352090208336,264.89121779583337,54.0,85.0
1220,264.7382574020834,264.94713880000006,49.0,85.0
1221,265.1329939020834,265.57707246458335,68.0,98.0
1222,265.1329939020834,265.6116119083334,63.0,113.0
1223,265.1329939020834,265.6297039979167,60.0,96.0
1224,265.52773040208336,265.9158879604167,51.0,85.0
1225,265.1329939020834,266.3895717604167,44.0,94.0
1226,265.9224669020834,266.40272964375004,60.0,102.0
1227,265.9224669020834,266.4093085854167,68.0,102.0
1228,266.31720340208335,266.4800322083334,51.0,82.0
1229,265.9224669020834,266.48496641458337,63.0,110.0
1230,265.9224669020834,266.5770715979167,56.0,87.0
1231,266.7119399020834,267.26128153125006,70.0,100.0
1232,266.7119399020834,267.28101835625006,66.0,108.0
1233,266.7119399020834,267.39450510000006,63.0,100.0
1234,266.7119399020834,267.4800313416667,51.0,88.0
1235,267.50141290208336,268.01292561666673,44.0,86.0
1236,267.50141290208336,268.0260835,60.0,100.0
1237,267.50141290208336,268.05075453125005,68.0,102.0
1238,267.50141290208336,268.14943865625,63.0,104.0
1239,267.50141290208336,268.1510833916667,56.0,87.0
1240,268.29088590208335,268.7596354958334,68.0,91.0
1241,268.29088590208335,268.7925302041667,65.0,98.0
1242,268.29088590208335,268.8320038541667,61.0,88.0
1243,268.68562240208337,269.21029300000004,56.0,77.0
1244,269.0803589020834,269.55568743750007,68.0,89.0
1245,268.29088590208335,269.5639111145834,49.0,80.0
1246,269.0803589020834,269.6510820916667,65.0,91.0
1247,269.0803589020834,269.66259523958337,61.0,89.0
1248,269.47509540208335,269.9043713458334,56.0,78.0
1249,269.8698319020834,270.3171999354167,68.0,91.0
1250,269.8698319020834,270.3533841145834,61.0,94.0
1251,269.8698319020834,270.36489726250005,65.0,104.0
1252,270.2645684020834,270.72509431875005,56.0,77.0
1253,269.8698319020834,271.0622650791667,49.0,86.0
1254,270.65930490208336,271.1165413479167,68.0,91.0
1255,270.65930490208336,271.14285711458336,65.0,93.0
1256,270.65930490208336,271.15272552708336,61.0,94.0
1257,271.0540414020834,271.45864631458335,56.0,85.0
1258,271.44877790208335,271.8912117291667,60.0,89.0
1259,271.44877790208335,271.9060143479167,68.0,87.0
1260,271.44877790208335,271.93890905625005,63.0,93.0
1261,271.8435144020834,272.37640867708336,56.0,81.0
1262,271.44877790208335,272.3796981479167,48.0,84.0
1263,272.2382509020834,272.66259263958335,60.0,96.0
1264,272.2382509020834,272.6954873479167,68.0,100.0
1265,272.2382509020834,272.8681845666667,63.0,110.0
1266,272.63298740208336,273.01456601875003,48.0,81.0
1267,273.0277239020834,273.5392366166667,70.0,100.0
1268,273.0277239020834,273.54252608750005,65.0,91.0
1269,273.0277239020834,273.55732870625,61.0,89.0
1270,273.4224604020834,273.84680213958336,53.0,71.0
1271,273.81719690208337,274.20864393125004,58.0,80.0
1272,273.81719690208337,274.25798599375,70.0,92.0
1273,273.0277239020834,274.2810122895834,46.0,86.0
1274,273.81719690208337,274.2859464958334,61.0,93.0
1275,273.81719690208337,274.4323279479167,65.0,94.0
1276,274.2119334020834,274.6444988166667,53.0,81.0
1277,274.60666990208335,275.0260774333334,68.0,91.0
1278,274.60666990208335,275.1379194416667,60.0,88.0
1279,274.60666990208335,275.1395641770834,63.0,100.0
1280,275.0014064020834,275.5194980583334,53.0,74.0
1281,274.60666990208335,275.5688401208334,44.0,86.0
1282,275.3961429020834,275.85008987708335,60.0,93.0
1283,275.3961429020834,275.96357662083335,68.0,100.0
1284,275.3961429020834,275.99976080000005,63.0,108.0
1285,275.79087940208336,276.16752381250006,44.0,84.0
1286,276.1856159020834,276.66423390833336,70.0,94.0
1287,276.1856159020834,276.69219441041673,61.0,100.0
1288,276.1856159020834,276.69383914583335,66.0,107.0
1289,276.58035240208335,276.9635757541667,49.0,72.0
1290,276.97508890208337,277.3632464604167,70.0,96.0
1291,276.97508890208337,277.3994306395834,54.0,83.0
1292,276.97508890208337,277.40107537500006,66.0,107.0
1293,276.97508890208337,277.41094378750006,61.0,100.0
1294,276.1856159020834,277.4569963791667,42.0,89.0
1295,277.3698254020834,277.71193036875,49.0,85.0
1296,277.76456190208336,278.2217983479167,68.0,91.0
1297,277.76456190208336,278.24482464375006,60.0,94.0
1298,277.76456190208336,278.25469305625006,65.0,94.0
1299,278.5540349020834,278.95863981458336,60.0,96.0
1300,277.76456190208336,278.9734424333334,41.0,87.0
1301,278.5540349020834,278.9915345229167,68.0,102.0
1302,278.5540349020834,278.99482399375006,65.0,107.0
1303,278.1592984020834,278.99811346458335,48.0,71.0
1304,278.94877140208337,279.25469218958335,53.0,87.0
1305,279.3435079020834,279.7908759354167,70.0,100.0
1306,279.3435079020834,279.88133638333335,66.0,104.0
1307,279.3435079020834,279.89284953125,63.0,100.0
1308,279.3435079020834,280.24975711666673,51.0,88.0
1309,279.73824440208335,280.3007439145834,58.0,78.0
1310,280.1329809020834,280.60830943750005,70.0,94.0
1311,280.1329809020834,280.61159890833335,66.0,108.0
1312,280.5277174020834,280.65271729375,51.0,88.0
1313,280.1329809020834,280.79909874583336,63.0,100.0
1314,280.92245390208336,281.52607180000007,68.0,102.0
1315,280.92245390208336,281.5474533604167,60.0,100.0
1316,280.92245390208336,281.55074283125003,63.0,110.0
1317,281.71192690208335,281.9240977708334,58.0,102.0
1318,281.90929515208336,282.0474529270834,60.0,96.0
1319,280.92245390208336,282.1346239041667,44.0,96.0
1320,281.3171904020834,282.1691633479167,51.0,79.0
1321,282.10666340208337,282.2448211770834,61.0,96.0
1322,282.3040316520834,282.42245260208335,63.0,94.0
1323,281.5145586520834,282.42409733750003,56.0,104.0
1324,282.5013999020834,282.8402153979167,61.0,107.0
1325,282.5013999020834,282.84350486875,65.0,107.0
1326,282.89613640208336,283.3352807583334,56.0,77.0
1327,283.2908729020834,283.66422784166673,65.0,98.0
1328,283.2908729020834,283.6708067833334,73.0,94.0
1329,283.2908729020834,283.6839646666667,61.0,86.0
1330,283.2908729020834,283.6839646666667,68.0,110.0
1331,282.5013999020834,283.7530435541667,49.0,98.0
1332,283.6856094020834,284.12968796458335,56.0,77.0
1333,284.08034590208337,284.52606920000005,72.0,100.0
1334,284.08034590208337,284.58034546875007,63.0,104.0
1335,284.08034590208337,284.5918586166667,68.0,113.0
1336,284.4750824020834,284.9043583458334,56.0,80.0
1337,284.86981890208335,285.23659490000006,60.0,86.0
1338,284.86981890208335,285.33034481875006,63.0,107.0
1339,284.86981890208335,285.36981846875005,72.0,94.0
1340,284.86981890208335,285.45863418125003,68.0,108.0
1341,284.08034590208337,285.52277886250005,48.0,85.0
1342,285.6592919020834,286.14448885,70.0,100.0
1343,285.6592919020834,286.16751514583336,61.0,98.0
1344,285.6592919020834,286.22837035625,65.0,108.0
1345,286.05402840208336,286.44383069583336,53.0,81.0
1346,286.4487649020834,286.8451461375,58.0,83.0
1347,286.4487649020834,286.8714619041667,61.0,98.0
1348,286.4487649020834,286.8911987291667,65.0,108.0
1349,286.4487649020834,286.8961329354167,70.0,104.0
1350,285.6592919020834,286.92409343750006,46.0,88.0
1351,286.8435014020834,287.2086326645834,53.0,87.0
1352,287.23823790208337,287.7053427604167,68.0,96.0
1353,287.23823790208337,287.7398822041667,60.0,91.0
1354,287.23823790208337,287.7448164104167,63.0,104.0
1355,287.6329744020834,288.0129082833334,53.0,84.0
1356,288.02771090208336,288.4323158145834,60.0,100.0
1357,288.02771090208336,288.4849473479167,56.0,86.0
1358,288.4224474020834,288.4948157604167,53.0,88.0
1359,287.23823790208337,288.5556709708334,44.0,86.0
1360,288.02771090208336,288.5606051770834,63.0,113.0
1361,288.02771090208336,288.5786972666667,68.0,100.0
1362,288.8171839020834,289.2990913791667,70.0,94.0
1363,288.8171839020834,289.322117675,66.0,102.0
1364,288.8171839020834,289.3303413520834,61.0,91.0
1365,289.21192040208336,289.60336743125004,49.0,81.0
1366,288.8171839020834,290.09185385000006,42.0,93.0
1367,289.6066569020834,290.0984327916667,70.0,93.0
1368,289.6066569020834,290.12310382291673,66.0,104.0
1369,289.6066569020834,290.1296827645834,61.0,100.0
1370,289.6066569020834,290.1543537958334,54.0,85.0
1371,290.00139340208335,290.21027480000004,49.0,85.0
1372,290.3961299020834,290.8402084645834,68.0,98.0
1373,290.3961299020834,290.8747479083334,63.0,113.0
1374,290.3961299020834,290.8928399979167,60.0,96.0
1375,290.7908664020834,291.1790239604167,51.0,85.0
1376,290.3961299020834,291.6527077604167,44.0,94.0
1377,291.18560290208336,291.66586564375007,60.0,102.0
1378,291.18560290208336,291.6724445854167,68.0,102.0
1379,291.5803394020834,291.7431682083334,51.0,82.0
1380,291.18560290208336,291.7481024145834,63.0,110.0
1381,291.18560290208336,291.84020759791673,56.0,87.0
1382,291.9750759020834,292.52441753125004,70.0,100.0
1383,291.9750759020834,292.54415435625003,66.0,108.0
1384,291.9750759020834,292.65764110000003,63.0,100.0
1385,291.9750759020834,292.7431673416667,51.0,88.0
1386,292.7645489020834,293.2760616166667,44.0,86.0
1387,292.7645489020834,293.28921950000006,60.0,100.0
1388,292.7645489020834,293.31389053125,68.0,102.0
1389,292.7645489020834,293.41257465625006,63.0,104.0
1390,292.7645489020834,293.41421939166673,56.0,87.0
1391,293.5540219020834,294.02277149583335,68.0,91.0
1392,293.5540219020834,294.0556662041667,65.0,98.0
1393,293.5540219020834,294.0951398541667,61.0,88.0
1394,293.9487584020834,294.47342900000007,56.0,77.0
1395,294.34349490208336,294.81882343750004,68.0,89.0
1396,293.5540219020834,294.82704711458337,49.0,80.0
1397,294.34349490208336,294.9142180916667,65.0,91.0
1398,294.34349490208336,294.9257312395834,61.0,89.0
1399,294.7382314020834,295.16750734583337,56.0,78.0
1400,295.13296790208335,296.3402036979167,61.0,83.0
1401,295.13296790208335,296.3698089354167,68.0,82.0
1402,295.13296790208335,296.45697991250006,65.0,86.0
1403,295.13296790208335,296.5277035354167,49.0,82.0
1404,296.7119139020834,297.8862549895834,68.0,75.0
1405,296.7119139020834,297.91914969791674,60.0,74.0
1406,296.7119139020834,298.13954424375004,48.0,78.0
1407,296.7119139020834,298.16421527500006,63.0,74.0
1408,298.29085990208335,299.44710890000005,70.0,78.0
1409,298.29085990208335,299.5589509083334,61.0,72.0
1410,298.29085990208335,299.6576350333334,65.0,75.0
1411,298.29085990208335,299.66421397500005,46.0,76.0
1412,299.8698059020834,301.07539696250007,56.0,67.0
1413,299.8698059020834,301.0934890520834,60.0,71.0
1414,299.8698059020834,301.09842325833336,44.0,68.0
1415,299.8698059020834,301.1707916166667,68.0,75.0
1416,299.8698059020834,301.20039685416674,63.0,78.0
1417,301.44875190208336,302.7201323791667,54.0,69.0
1418,301.44875190208336,302.73822446875005,42.0,70.0
1419,301.44875190208336,302.743158675,70.0,78.0
1420,301.44875190208336,302.7546718229167,66.0,75.0
1421,301.44875190208336,302.7694744416667,61.0,70.0
1422,303.42243440208335,305.1230908229167,63.0,74.0
1423,303.42243440208335,305.1543407958334,60.0,36.0
1424,303.42243440208335,305.15598553125005,56.0,46.0
1425,303.42243440208335,305.1806565625,68.0,38.0
1426,303.42243440208335,305.2020381229167,44.0,36.0
1427,305.79085340208337,308.41914059791674,61.0,38.0
1428,305.79085340208337,308.42243006875003,65.0,46.0
1429,305.79085340208337,308.45203530625,49.0,38.0
1430,305.79085340208337,308.45696951250005,68.0,30.0
