,start,end,pitch,velocity
0,31.201450606250003,31.539237708333335,68.0,93.0
1,31.425397856250004,31.640013970833337,71.0,66.0
2,31.649345106250003,31.93861030416667,76.0,78.0
3,31.873292356250005,32.44249161666667,75.0,112.0
4,32.32118685625,33.49131123750001,76.0,97.0
5,33.88881760625,34.306852472916674,73.0,117.0
6,34.336712106250005,34.58678653541667,71.0,78.0
7,34.56065935625001,35.40419399791667,69.0,93.0
8,38.14381535625,38.27631747916667,68.0,78.0
9,38.367762606250004,38.61783703541667,68.0,92.0
10,38.591709856250006,38.85298164791667,71.0,65.0
11,38.81565710625001,39.125450802083336,76.0,69.0
12,39.03960435625,39.31953841875001,75.0,99.0
13,39.263551606250005,40.278779139583335,76.0,88.0
14,41.055129606250006,41.48436183541667,73.0,102.0
15,41.50302410625,41.78482439583334,71.0,66.0
16,41.726971356250004,43.03333031458334,73.0,102.0
17,45.31012735625001,45.50794742708334,71.0,81.0
18,45.53407460625,45.64978068541667,80.0,97.0
19,45.758021856250004,45.86626302708334,80.0,85.0
20,45.981969106250006,46.20031767500001,80.0,93.0
21,46.20591635625001,46.44852587708334,76.0,81.0
22,46.42986360625,46.607155179166675,78.0,102.0
23,46.653810856250004,47.91538036458334,71.0,89.0
24,49.117230606250004,49.20680950625,76.0,92.0
25,49.341177856250006,49.41769316666667,76.0,76.0
26,49.56512510625001,49.720021954166675,76.0,85.0
27,49.78907235625,50.02048451458334,73.0,85.0
28,50.013019606250005,50.48517505833334,75.0,90.0
29,50.68486135625,51.479874093750006,75.0,102.0
30,51.35670310625001,51.55638940416667,71.0,83.0
31,51.580650356250004,52.70038660625001,73.0,117.0
32,52.92433385625001,53.18747187500001,73.0,107.0
33,53.372228356250005,53.583112016666675,73.0,96.0
34,53.59617560625001,53.907835529166675,71.0,88.0
35,54.044070106250004,54.25868622083334,71.0,96.0
36,54.268017356250006,54.56101500833334,73.0,95.0
37,54.71591185625,55.66582144166667,64.0,85.0
38,55.835648106250005,55.91589587083334,66.0,96.0
39,56.05959535625001,56.14730802916667,66.0,86.0
40,56.28354260625001,56.47016531458334,66.0,95.0
41,56.507489856250004,56.690380110416676,68.0,82.0
42,56.731437106250006,57.02256853125001,69.0,90.0
43,56.95538435625001,57.30623504791667,76.0,95.0
44,57.403278856250004,57.91275885,75.0,88.0
45,57.85117335625001,58.10498023958334,71.0,93.0
46,58.07512060625,58.44276734166667,73.0,99.0
47,58.52301510625001,58.70590536041667,75.0,96.0
48,58.74696235625001,59.17806081250001,73.0,107.0
49,59.194856856250006,60.38924218958334,71.0,93.0
50,60.98643485625001,61.32608818541667,73.0,100.0
51,61.434329356250004,61.66760774166667,68.0,92.0
52,61.658276606250006,62.104304879166676,73.0,90.0
53,62.10617110625001,63.130729775000006,71.0,81.0
54,63.44985460625001,63.71112639791667,68.0,97.0
55,63.67380185625001,63.93134119375001,71.0,72.0
56,63.897749106250004,64.15715467083334,76.0,89.0
57,64.12169635625001,64.83086264791667,75.0,100.0
58,65.91327435625001,66.131622925,76.0,92.0
59,66.13722160625001,66.61870819375001,73.0,95.0
60,66.58511610625001,66.94156547916667,71.0,77.0
61,66.80906335625001,67.58541382291668,69.0,96.0
62,70.61616660625,70.92222784791667,68.0,89.0
63,70.84011385625001,71.08832205833335,71.0,60.0
64,71.06406110625001,71.33466403333334,76.0,70.0
65,71.28800835625,71.76389626250001,75.0,93.0
66,71.73590285625001,72.87243515,76.0,83.0
67,73.07958635625,73.3539217375,71.0,83.0
68,73.30353360625001,73.72903338125,73.0,112.0
69,73.75142810625,74.03509462291667,71.0,81.0
70,73.97537535625001,74.86743190208334,73.0,102.0
71,77.55853135625001,77.82353560208334,80.0,112.0
72,78.00642585625,78.090406075,80.0,107.0
73,78.23037310625001,78.41139713333334,80.0,107.0
74,78.45432035625001,78.66520401666668,76.0,89.0
75,78.67826760625,78.86115786041668,78.0,100.0
76,79.12616210625,80.01635242500001,71.0,102.0
77,81.36563460625001,81.45521350625,76.0,96.0
78,81.58958185625,81.66796339375001,76.0,76.0
79,81.81352910625002,81.97402463541668,76.0,93.0
80,82.03747635625001,82.15131620833334,73.0,95.0
81,82.26142360625,82.68878960833334,75.0,100.0
82,82.93326535625,83.78613113333334,80.0,117.0
83,83.60510710625,83.88130871458334,75.0,122.0
84,83.82905435625001,83.9914161125,71.0,101.0
85,84.05300160625,85.1335470875,73.0,122.0
86,85.17273785625001,85.25671807500001,75.0,107.0
87,85.39668510625,85.58330781458335,75.0,99.0
88,85.62063235625001,85.76433184166667,76.0,92.0
89,85.84457960625001,86.29247410625001,71.0,99.0
90,86.51642135625,86.96058340208334,76.0,100.0
91,88.08405210625001,88.26694236041668,76.0,99.0
92,88.30799935625001,88.48715715625,73.0,71.0
93,88.53194660625002,88.79508462500002,76.0,99.0
94,88.75589385625001,89.03209546458335,78.0,112.0
95,89.20378835625002,89.35495275000001,80.0,100.0
96,89.42773560625001,89.95587787083335,81.0,100.0
97,89.87563010625001,90.10890849166668,78.0,99.0
98,90.09957735625001,90.38697632708335,76.0,93.0
99,90.54747185625001,90.79381383125,78.0,107.0
100,90.99536635625002,91.48245162500001,78.0,112.0
101,91.44326085625,92.96236970208335,76.0,93.0
102,94.57852235625,94.82113187708335,76.0,95.0
103,94.80246960625001,94.95923268125001,80.0,127.0
104,95.02641685625001,95.1439891625,76.0,90.0
105,95.25036410625,95.35487282291668,76.0,82.0
106,95.47431135625001,95.56948893750001,76.0,92.0
107,95.69825860625001,95.83822563750002,76.0,112.0
108,95.92220585625002,96.10882856458335,73.0,117.0
109,96.37010035625,96.51566606875001,73.0,97.0
110,96.59404760625002,96.73961331875002,73.0,127.0
111,96.81799485625001,97.07180173958335,68.0,122.0
112,97.26588935625001,97.37972920833334,68.0,107.0
113,97.48983660625001,97.67645931458334,68.0,117.0
114,97.71378385625002,98.33710370208334,80.0,127.0
115,98.38562560625002,98.54052245416668,78.0,122.0
116,98.60957285625001,98.68235571250001,78.0,122.0
117,98.83352010625,98.92496523333334,78.0,95.0
118,99.05746735625002,99.13771512083335,78.0,100.0
119,99.28141460625001,99.43071277291668,78.0,107.0
120,99.50536185625,99.7349077875,75.0,112.0
121,99.95325635625001,100.17906983333334,75.0,127.0
122,100.40115085625001,100.49259598333335,71.0,100.0
123,100.62509810625001,100.71840946041668,71.0,89.0
124,100.84904535625002,100.92369443958334,71.0,92.0
125,101.07299260625001,101.21482586458335,71.0,100.0
126,101.29693985625,101.74483435625001,78.0,127.0
127,101.74483435625001,102.02850087291668,76.0,100.0
128,102.41667610625001,102.51558614166667,76.0,112.0
129,102.64062335625002,102.72646980208334,76.0,97.0
130,102.86457060625001,102.95414950625,76.0,99.0
131,103.08851785625001,103.25647829375,76.0,117.0
132,103.53641235625001,103.82007887291668,76.0,100.0
133,103.98430685625002,104.21571901458334,75.0,117.0
134,104.43220135625,104.51991402916669,73.0,122.0
135,104.65614860625001,104.83157395208335,73.0,117.0
136,105.10404310625002,105.40450566666668,76.0,107.0
137,105.55193760625001,106.06701628125,73.0,127.0
138,106.22377935625,107.03932059166668,71.0,107.0
139,109.13509360625001,109.29185668125001,80.0,127.0
140,109.35904085625002,109.47661316250002,76.0,90.0
141,109.58298810625001,109.68749682291669,76.0,82.0
142,109.80693535625001,109.90211293750001,76.0,92.0
143,110.03088260625002,110.17084963750001,76.0,112.0
144,110.25482985625001,110.44145256458334,73.0,117.0
145,110.47877710625,110.59634941250002,73.0,122.0
146,110.70272435625002,110.84829006875002,73.0,97.0
147,110.92667160625001,111.07223731875001,73.0,127.0
148,111.15061885625,111.40442573958335,68.0,122.0
149,111.59851335625001,111.71235320833334,68.0,107.0
150,111.82246060625002,112.00908331458335,68.0,117.0
151,112.04640785625001,112.66972770208335,80.0,127.0
152,113.16614410625002,113.25758923333335,78.0,95.0
153,113.39009135625001,113.47033912083334,78.0,100.0
154,113.61403860625,113.76333677291667,78.0,107.0
155,113.83798585625001,114.06753178750002,75.0,112.0
156,114.06193310625001,114.06753178750002,75.0,122.0
157,114.28588035625002,114.39598775416668,75.0,127.0
158,114.50982760625001,114.70578145000002,75.0,117.0
159,114.73377485625001,114.82521998333334,71.0,100.0
160,115.18166935625001,115.25631843958335,71.0,100.0
161,115.40561660625,115.54744986458334,71.0,100.0
162,115.62956385625002,116.07745835625002,78.0,127.0
163,116.07745835625002,116.36112487291668,76.0,100.0
164,116.74930010625002,116.84821014166668,76.0,112.0
165,116.97324735625001,117.05909380208335,76.0,97.0
166,117.19719460625001,117.28677350625001,76.0,99.0
167,117.42114185625002,117.58910229375002,76.0,117.0
168,117.86903635625,118.19562609583335,81.0,102.0
169,118.31693085625001,118.58940001041668,80.0,117.0
170,118.76482535625001,118.89359502500001,76.0,89.0
171,118.98877260625001,119.27617157708335,76.0,100.0
172,119.43666710625001,119.70913626041668,73.0,127.0
173,119.88456160625002,120.54520599375002,78.0,122.0
174,120.55640335625002,121.29729550833335,76.0,95.0
175,153.02875460625,153.29002639791668,68.0,97.0
176,153.25270185625,153.51024119375,71.0,72.0
177,153.47664910625002,153.73605467083334,76.0,89.0
178,153.70059635625,154.4097626479167,75.0,100.0
179,155.49217435625002,155.71052292500002,76.0,92.0
180,155.71612160625003,156.19760819375003,73.0,95.0
181,156.16401610625002,156.5204654791667,71.0,77.0
182,156.40102694583334,156.5204654791667,71.0,112.0
183,156.81532935833334,157.63273682083334,69.0,112.0
184,160.19506660625,160.50112784791668,68.0,89.0
185,160.41901385625002,160.66722205833335,71.0,60.0
186,160.64296110625003,160.91356403333336,76.0,70.0
187,160.86690835625,161.34279626250003,75.0,93.0
188,161.31480285625003,162.45133515,76.0,83.0
189,162.65848635625002,162.9328217375,71.0,83.0
190,162.88243360625003,163.30793338125002,73.0,112.0
191,163.33032810625002,163.6139946229167,71.0,81.0
192,163.55427535625003,164.44633190208336,73.0,102.0
193,167.13743135625,167.40243560208336,80.0,112.0
194,167.58532585625002,167.669306075,80.0,107.0
195,167.80927310625003,167.99029713333334,80.0,107.0
196,168.03322035625,168.24410401666668,76.0,89.0
197,168.25716760625002,168.4400578604167,78.0,100.0
198,168.70506210625,169.595252425,71.0,102.0
199,170.94453460625002,171.03411350625,76.0,96.0
200,171.16848185625003,171.24686339375003,76.0,76.0
201,171.39242910625,171.55292463541667,76.0,93.0
202,171.61637635625002,171.73021620833336,73.0,95.0
203,171.84032360625002,172.26768960833334,75.0,100.0
204,172.51216535625002,173.36503113333336,80.0,117.0
205,173.18400710625002,173.46020871458336,75.0,122.0
206,173.40795435625003,173.57031611250002,71.0,101.0
207,173.63190160625,174.7124470875,73.0,122.0
208,174.75163785625003,174.835618075,75.0,107.0
209,174.97558510625,175.16220781458335,75.0,99.0
210,175.19953235625002,175.3432318416667,76.0,92.0
211,175.42347960625003,175.87137410625002,71.0,99.0
212,176.09532135625003,176.53948340208336,76.0,100.0
213,177.66295210625003,177.8458423604167,76.0,99.0
214,177.88689935625,178.06605715625003,73.0,71.0
215,178.11084660625002,178.37398462500002,76.0,99.0
216,178.33479385625003,178.61099546458334,78.0,112.0
217,178.78268835625002,178.93385275000003,80.0,100.0
218,179.00663560625003,179.53477787083335,81.0,100.0
219,179.45453010625002,179.6878084916667,78.0,99.0
220,179.67847735625003,179.96587632708335,76.0,93.0
221,180.12637185625002,180.37271383125002,78.0,107.0
222,180.57426635625,181.06135162500001,78.0,112.0
223,181.02216085625003,182.54126970208335,76.0,93.0
224,184.15742235625,184.40003187708336,76.0,95.0
225,184.38136960625002,184.53813268125003,80.0,127.0
226,184.60531685625003,184.72288916250002,76.0,90.0
227,184.82926410625,184.9337728229167,76.0,82.0
228,185.05321135625002,185.14838893750002,76.0,92.0
229,185.27715860625003,185.41712563750002,76.0,112.0
230,185.50110585625,185.68772856458335,73.0,117.0
231,185.94900035625002,186.09456606875003,73.0,97.0
232,186.17294760625003,186.31851331875,73.0,127.0
233,186.39689485625001,186.65070173958335,68.0,122.0
234,186.84478935625003,186.95862920833335,68.0,107.0
235,187.06873660625,187.25535931458336,68.0,117.0
236,187.29268385625002,187.91600370208334,80.0,127.0
237,187.96452560625002,188.11942245416668,78.0,122.0
238,188.18847285625003,188.26125571250003,78.0,122.0
239,188.41242010625,188.50386523333336,78.0,95.0
240,188.63636735625002,188.71661512083335,78.0,100.0
241,188.86031460625003,189.00961277291668,78.0,107.0
242,189.08426185625,189.31380778750002,75.0,112.0
243,189.53215635625003,189.75796983333336,75.0,127.0
244,189.98005085625002,190.07149598333336,71.0,100.0
245,190.20399810625003,190.2973094604167,71.0,89.0
246,190.42794535625004,190.50259443958336,71.0,92.0
247,190.65189260625002,190.79372586458337,71.0,100.0
248,190.87583985625002,191.32373435625001,78.0,127.0
249,191.32373435625001,191.60740087291668,76.0,100.0
250,191.99557610625,192.0944861416667,76.0,112.0
251,192.21952335625002,192.30536980208336,76.0,97.0
252,192.44347060625003,192.53304950625002,76.0,99.0
253,192.66741785625,192.83537829375,76.0,117.0
254,193.11531235625003,193.3989788729167,76.0,100.0
255,193.56320685625002,193.79461901458336,75.0,117.0
256,194.01110135625,194.09881402916668,73.0,122.0
257,194.23504860625002,194.41047395208335,73.0,117.0
258,194.68294310625,194.9834056666667,76.0,107.0
259,195.13083760625003,195.64591628125,73.0,127.0
260,195.80267935625002,196.6182205916667,71.0,107.0
261,198.71399360625003,198.87075668125001,80.0,127.0
262,198.93794085625,199.05551316250003,76.0,90.0
263,199.16188810625002,199.26639682291668,76.0,82.0
264,199.38583535625003,199.48101293750003,76.0,92.0
265,199.60978260625004,199.74974963750003,76.0,112.0
266,199.83372985625002,200.02035256458336,73.0,117.0
267,200.05767710625003,200.17524941250002,73.0,122.0
268,200.28162435625003,200.42719006875004,73.0,97.0
269,200.50557160625002,200.65113731875002,73.0,127.0
270,200.72951885625002,200.98332573958336,68.0,122.0
271,201.17741335625,201.29125320833336,68.0,107.0
272,201.40136060625002,201.58798331458337,68.0,117.0
273,201.62530785625003,202.24862770208335,80.0,127.0
274,202.74504410625002,202.83648923333337,78.0,95.0
275,202.96899135625003,203.04923912083336,78.0,100.0
276,203.19293860625,203.3422367729167,78.0,107.0
277,203.41688585625002,203.64643178750003,75.0,112.0
278,203.64083310625003,203.64643178750003,75.0,122.0
279,203.86478035625,203.9748877541667,75.0,127.0
280,204.08872760625002,204.28468145000002,75.0,117.0
281,204.31267485625003,204.40411998333335,71.0,100.0
282,204.76056935625002,204.83521843958334,71.0,100.0
283,204.98451660625003,205.12634986458335,71.0,100.0
284,205.20846385625003,205.65635835625002,78.0,127.0
285,205.65635835625002,205.9400248729167,76.0,100.0
286,206.32820010625002,206.4271101416667,76.0,112.0
287,206.55214735625003,206.63799380208334,76.0,97.0
288,206.77609460625,206.86567350625003,76.0,99.0
289,207.00004185625002,207.16800229375002,76.0,117.0
290,207.44793635625,207.77452609583335,81.0,102.0
291,207.89583085625003,208.1683000104167,80.0,117.0
292,208.34372535625002,208.47249502500003,76.0,89.0
293,208.56767260625003,208.85507157708335,76.0,100.0
294,209.01556710625002,209.2880362604167,73.0,127.0
295,209.46346160625004,210.12410599375002,78.0,122.0
296,210.13530335625003,210.87619550833335,76.0,95.0
297,212.82267035625003,213.06527987708336,76.0,95.0
298,213.04661760625,213.20338068125002,80.0,127.0
299,213.27056485625002,213.38813716250002,76.0,90.0
300,213.49451210625003,213.59902082291669,76.0,82.0
301,213.71845935625004,213.81363693750004,76.0,92.0
302,213.94240660625002,214.0823736375,76.0,112.0
303,214.16635385625003,214.35297656458334,73.0,117.0
304,214.61424835625002,214.75981406875002,73.0,97.0
305,214.83819560625003,214.98376131875003,73.0,127.0
306,215.06214285625003,215.31594973958335,68.0,122.0
307,215.51003735625002,215.62387720833337,68.0,107.0
308,215.73398460625003,215.92060731458335,68.0,117.0
309,215.95793185625,216.58125170208336,80.0,127.0
310,216.62977360625,216.7846704541667,78.0,122.0
311,216.85372085625002,216.92650371250002,78.0,122.0
312,217.07766810625003,217.16911323333335,78.0,95.0
313,217.30161535625,217.38186312083334,78.0,100.0
314,217.52556260625002,217.6748607729167,78.0,107.0
315,217.74950985625003,217.97905578750002,75.0,112.0
316,218.19740435625002,218.42321783333335,75.0,127.0
317,218.64529885625004,218.73674398333335,71.0,100.0
318,218.86924610625002,218.9625574604167,71.0,89.0
319,219.09319335625003,219.16784243958335,71.0,92.0
320,219.31714060625004,219.45897386458336,71.0,100.0
321,219.54108785625002,219.98898235625003,78.0,127.0
322,219.98898235625003,220.2726488729167,76.0,100.0
323,220.66082410625003,220.75973414166668,76.0,112.0
324,220.88477135625,220.97061780208335,76.0,97.0
325,221.10871860625002,221.19829750625001,76.0,99.0
326,221.33266585625003,221.50062629375003,76.0,117.0
327,221.78056035625002,222.0642268729167,76.0,100.0
328,222.22845485625,222.45986701458335,75.0,117.0
329,222.67634935625003,222.7640620291667,73.0,122.0
330,222.90029660625004,223.07572195208337,73.0,117.0
331,223.34819110625003,223.6486536666667,76.0,107.0
332,223.79608560625002,224.31116428125003,73.0,127.0
333,224.46792735625002,225.2834685916667,71.0,107.0
334,227.37924160625002,227.53600468125003,80.0,127.0
335,227.60318885625003,227.72076116250003,76.0,90.0
336,227.82713610625004,227.9316448229167,76.0,82.0
337,228.05108335625002,228.14626093750002,76.0,92.0
338,228.27503060625003,228.41499763750002,76.0,112.0
339,228.49897785625004,228.68560056458335,73.0,117.0
340,228.72292510625002,228.8404974125,73.0,122.0
341,228.94687235625003,229.09243806875003,73.0,97.0
342,229.17081960625003,229.31638531875004,73.0,127.0
343,229.39476685625002,229.64857373958336,68.0,122.0
344,229.84266135625003,229.95650120833335,68.0,107.0
345,230.06660860625,230.25323131458336,68.0,117.0
346,230.29055585625002,230.91387570208335,80.0,127.0
347,231.41029210625,231.50173723333336,78.0,95.0
348,231.63423935625002,231.71448712083335,78.0,100.0
349,231.85818660625003,232.00748477291668,78.0,107.0
350,232.08213385625004,232.31167978750003,75.0,112.0
351,232.30608110625002,232.31167978750003,75.0,122.0
352,232.53002835625003,232.6401357541667,75.0,127.0
353,232.75397560625004,232.94992945,75.0,117.0
354,232.97792285625002,233.06936798333336,71.0,100.0
355,233.42581735625004,233.50046643958336,71.0,100.0
356,233.64976460625002,233.79159786458337,71.0,100.0
357,233.87371185625003,234.32160635625002,78.0,127.0
358,234.32160635625002,234.6052728729167,76.0,100.0
359,234.99344810625,235.0923581416667,76.0,112.0
360,235.21739535625002,235.30324180208336,76.0,97.0
361,235.44134260625003,235.53092150625002,76.0,99.0
362,235.66528985625,235.83325029375,76.0,117.0
363,236.11318435625003,236.43977409583337,81.0,102.0
364,236.56107885625002,236.8335480104167,80.0,117.0
365,237.00897335625004,237.13774302500002,76.0,89.0
366,237.23292060625002,237.52031957708337,76.0,100.0
367,237.68081510625004,237.9532842604167,73.0,127.0
368,238.12870960625003,238.78935399375,78.0,122.0
369,238.80055135625003,239.54144350833337,76.0,95.0
