,start,end,pitch,velocity
0,1.64041360625,2.937441429166667,40.0,75.0
1,2.0883081062500004,2.98409710625,47.0,53.0
2,2.5362026062500003,3.0755422333333335,52.0,69.0
3,2.98409710625,3.4711823750000006,64.0,61.0
4,3.8798861062500003,4.620778258333334,51.0,37.0
5,4.32778060625,4.684229979166667,56.0,42.0
6,3.4319916062500004,4.719688293750001,44.0,76.0
7,4.32778060625,5.275823964583334,68.0,63.0
8,4.32778060625,5.29075378125,63.0,64.0
9,4.7756751062500005,5.311282279166667,59.0,40.0
10,5.223569606250001,6.414222485416667,45.0,69.0
11,5.67146410625,6.498202704166667,52.0,63.0
12,6.1193586062500005,6.5765842416666676,64.0,81.0
13,7.4630421062500005,8.138616310416667,54.0,88.0
14,7.015147606250001,8.17967330625,48.0,72.0
15,7.910936606250001,8.86271241875,66.0,85.0
16,7.910936606250001,8.873909781250001,63.0,78.0
17,8.358831106250001,8.888839597916668,60.0,66.0
18,9.254620106250002,9.9432579,56.0,49.0
19,8.806725606250001,10.008575847916667,49.0,72.0
20,9.70251460625,10.6039022875,68.0,75.0
21,10.15040910625,10.631895693750002,61.0,75.0
22,11.046198106250001,11.58367150625,60.0,59.0
23,10.598303606250001,11.658320589583335,48.0,69.0
24,11.494092606250002,12.414142558333335,66.0,92.0
25,11.941987106250002,12.44586841875,60.0,53.0
26,11.494092606250002,12.494390322916669,63.0,63.0
27,12.389881606250002,13.334192510416669,47.0,79.0
28,12.83777610625,13.354721008333335,54.0,66.0
29,13.285670606250001,14.080683343750001,66.0,89.0
30,13.285670606250001,14.134803929166669,63.0,69.0
31,13.733565106250001,14.181459606250002,59.0,57.0
32,14.629354106250002,15.148165235416668,58.0,78.0
33,14.181459606250002,15.513945743750002,46.0,69.0
34,15.077248606250002,16.012228375000003,61.0,63.0
35,15.077248606250002,16.019693283333336,64.0,67.0
36,15.525143106250002,16.023425737500002,58.0,56.0
37,16.420932106250003,16.964004187500002,52.0,47.0
38,15.973037606250001,17.008793637500002,45.0,66.0
39,16.868826606250003,17.755284470833335,64.0,62.0
40,16.868826606250003,17.77394674166667,61.0,60.0
41,17.31672110625,17.99789399166667,57.0,58.0
42,18.21251010625,18.944071122916668,51.0,34.0
43,18.66040460625,18.992593027083334,56.0,38.0
44,17.76461560625,19.04484738541667,44.0,83.0
45,18.66040460625,19.67189968541667,68.0,53.0
46,18.66040460625,19.683097047916668,63.0,58.0
47,19.10829910625,19.712956681250002,59.0,59.0
48,20.004088106250002,20.73005044166667,49.0,73.0
49,20.451982606250002,20.812164433333336,54.0,63.0
50,19.55619360625,20.81962934166667,42.0,61.0
51,20.451982606250002,21.360835195833335,61.0,66.0
52,20.451982606250002,21.392561056250003,66.0,61.0
53,20.899877106250003,21.420554462500004,57.0,66.0
54,21.795666106250003,22.467507856250002,54.0,58.0
55,21.347771606250003,22.60187620625,47.0,66.0
56,22.243560606250004,23.139349606250004,63.0,50.0
57,22.243560606250004,23.139349606250004,66.0,65.0
58,23.58724410625,24.389721752083336,47.0,58.0
59,24.03513860625,24.57634446041667,66.0,46.0
60,24.03513860625,24.611802775,63.0,59.0
61,24.03513860625,24.61553522916667,52.0,60.0
62,23.139349606250004,24.65472599791667,40.0,81.0
63,24.48303310625,24.74990357916667,59.0,72.0
64,24.930927606250002,26.1682361625,60.0,69.0
65,24.930927606250002,26.420176818750004,48.0,61.0
66,24.930927606250002,26.722505606250003,63.0,67.0
67,24.930927606250002,26.722505606250003,66.0,69.0
68,27.618294606250004,28.015800975000005,68.0,59.0
69,27.170400106250003,28.088583831250002,47.0,56.0
70,27.618294606250004,28.10911232916667,64.0,66.0
71,28.066189106250004,28.32746089791667,59.0,74.0
72,27.618294606250004,28.47862529166667,52.0,66.0
73,26.722505606250003,28.52341474166667,40.0,83.0
74,28.514083606250004,29.686074214583336,48.0,53.0
75,28.514083606250004,30.328056331250004,66.0,73.0
76,28.514083606250004,30.361648418750004,60.0,65.0
77,28.514083606250004,30.49415054166667,63.0,66.0
78,30.305661606250002,31.69226832916667,40.0,72.0
79,30.753556106250002,31.716529281250004,47.0,49.0
80,31.201450606250003,31.84343272291667,52.0,56.0
81,31.201450606250003,32.1588251,68.0,85.0
82,31.649345106250003,32.28012986041667,59.0,72.0
83,32.99302860625,33.06954391666667,59.0,31.0
84,32.54513410625,33.218842083333335,56.0,72.0
85,32.09723960625001,33.28042757708334,44.0,93.0
86,32.99302860625,33.88135269791667,68.0,95.0
87,33.440923106250004,33.98586141458334,59.0,61.0
88,33.88881760625,35.53296366666667,45.0,73.0
89,34.336712106250005,35.55909084583334,52.0,66.0
90,34.78460660625,35.60201406875,64.0,65.0
91,35.232501106250005,35.75691091666667,57.0,63.0
92,34.78460660625,35.95846344166667,61.0,72.0
93,36.128290106250006,36.65083368958334,59.0,72.0
94,35.68039560625,37.0856646,47.0,85.0
95,36.57618460625,37.539157781250005,63.0,96.0
96,36.57618460625,37.555953825,66.0,92.0
97,37.02407910625001,37.68285726666667,59.0,69.0
98,37.47197360625,38.50959586458334,40.0,78.0
99,37.91986810625001,38.565582677083334,47.0,58.0
100,38.367762606250004,38.789529927083336,52.0,55.0
101,38.367762606250004,39.252354243750005,64.0,64.0
102,38.367762606250004,39.26541783333334,68.0,61.0
103,38.81565710625001,39.39232127500001,59.0,70.0
104,39.71144610625,40.51578997916667,51.0,35.0
105,40.159340606250005,40.573643018750005,56.0,53.0
106,39.263551606250005,40.63522851250001,44.0,71.0
107,40.159340606250005,41.13537737083334,63.0,68.0
108,40.60723510625,41.28094308333334,59.0,69.0
109,41.055129606250006,42.15060490416667,45.0,72.0
110,41.50302410625,42.23458512291667,52.0,67.0
111,41.950918606250006,42.844841379166674,64.0,69.0
112,42.39881310625,42.91389178125001,57.0,57.0
113,41.950918606250006,42.93255405208334,61.0,75.0
114,43.74249660625001,43.962711402083336,59.0,68.0
115,43.294602106250004,44.16986260833334,54.0,60.0
116,42.84670760625001,44.23518055625001,47.0,75.0
117,43.74249660625001,44.79318245416667,63.0,117.0
118,43.74249660625001,44.796914908333335,66.0,112.0
119,44.190391106250004,44.94994552916667,59.0,72.0
120,44.63828560625001,45.69457013541667,40.0,95.0
121,45.53407460625,45.74495826666667,52.0,86.0
122,45.086180106250005,45.75615562916667,47.0,55.0
123,45.981969106250006,46.42986360625,59.0,86.0
124,45.53407460625,46.42986360625,64.0,88.0
125,45.53407460625,46.42986360625,68.0,88.0
126,47.32565260625,47.37230828333334,54.0,38.0
127,46.877758106250006,47.784744468750006,51.0,51.0
128,46.42986360625,47.83699882708334,39.0,96.0
129,47.32565260625,48.17665215625001,63.0,65.0
130,47.32565260625,48.17851838333334,58.0,67.0
131,47.77354710625001,48.21770915208334,54.0,81.0
132,48.22144160625,49.28332481666667,37.0,90.0
133,48.66933610625001,49.30758576875001,49.0,52.0
134,49.56512510625001,49.96076524791667,52.0,67.0
135,49.117230606250004,49.98129374583334,56.0,75.0
136,49.117230606250004,50.013019606250005,61.0,72.0
137,50.46091410625001,51.19994003125001,54.0,62.0
138,50.013019606250005,51.328709700000005,47.0,71.0
139,50.908808606250005,51.86245064583334,63.0,59.0
140,50.908808606250005,51.86245064583334,66.0,90.0
141,51.35670310625001,51.894176506250005,59.0,66.0
142,51.804597606250006,52.987785577083336,45.0,68.0
143,52.25249210625,52.99151803125,52.0,65.0
144,52.70038660625001,53.53832256666667,64.0,75.0
145,52.70038660625001,53.54765370208334,61.0,81.0
146,53.14828110625,53.655894872916676,57.0,82.0
147,54.044070106250004,54.60207200416667,56.0,58.0
148,53.59617560625001,55.02197309791667,44.0,88.0
149,54.49196460625001,55.39521851458334,59.0,71.0
150,54.939859106250005,55.432543056250005,56.0,54.0
151,54.49196460625001,55.451205327083336,63.0,70.0
152,55.835648106250005,57.037498347916674,54.0,67.0
153,55.38775360625001,57.07668911666667,42.0,89.0
154,56.28354260625001,57.944484710416674,66.0,89.0
155,56.28354260625001,57.95568207291667,61.0,96.0
156,56.731437106250006,58.119910056250006,57.0,79.0
157,57.627226106250006,58.21882009166667,49.0,34.0
158,57.17933160625001,58.27667313125001,42.0,89.0
159,58.07512060625,58.39051298333334,54.0,59.0
160,58.52301510625001,58.93358506458334,57.0,69.0
161,58.07512060625,58.93731751875001,61.0,79.0
162,58.07512060625,58.985839422916676,66.0,88.0
163,59.866698606250004,60.38177728125001,59.0,78.0
164,58.970909606250004,60.643049072916675,47.0,70.0
165,59.41880410625001,60.710233247916676,54.0,53.0
166,60.31459310625001,60.71209947500001,66.0,89.0
167,60.762487606250005,61.55190166250001,66.0,59.0
168,60.762487606250005,61.58362752291667,63.0,68.0
169,60.762487606250005,62.078177700000005,59.0,78.0
170,60.762487606250005,62.26293418125001,54.0,45.0
171,60.762487606250005,62.38983762291667,47.0,71.0
172,62.10617110625001,62.56153051458334,59.0,61.0
173,61.658276606250006,62.59139014791668,66.0,90.0
174,61.658276606250006,62.602587510416676,63.0,69.0
175,62.554065606250006,63.69246412708334,40.0,92.0
176,63.00196010625001,63.718591306250005,47.0,61.0
177,63.44985460625001,63.86415701875001,52.0,88.0
178,63.44985460625001,64.38296814791667,64.0,88.0
179,63.44985460625001,64.38670060208334,68.0,92.0
180,63.897749106250004,64.42962382500001,59.0,85.0
181,65.24143260625,65.66133370000001,56.0,66.0
182,64.79353810625001,65.69679201458334,51.0,50.0
183,64.34564360625001,65.79570205,44.0,86.0
184,65.24143260625,66.12789047083334,68.0,75.0
185,65.24143260625,66.15215142291667,63.0,75.0
186,65.68932710625,66.24732900416667,59.0,76.0
187,67.03301060625,67.53129323750001,64.0,93.0
188,66.13722160625001,67.69178876666668,45.0,72.0
189,66.58511610625001,67.75337426041668,52.0,61.0
190,67.48090510625,67.77017030416667,57.0,81.0
191,67.03301060625,67.90267242708335,61.0,99.0
192,67.92879960625001,68.28711520625001,59.0,69.0
193,67.92879960625001,68.42148355625001,63.0,54.0
194,67.92879960625001,68.46440677916668,66.0,72.0
195,68.37669410625001,68.908568825,59.0,68.0
196,67.92879960625001,69.13064984791667,47.0,75.0
197,68.82458860625,69.83608368541667,63.0,90.0
198,68.82458860625,69.84168236666667,66.0,97.0
199,69.27248310625001,70.40528294583333,59.0,74.0
200,69.72037760625001,71.00060938541668,40.0,73.0
201,70.16827210625,71.04166638125001,47.0,54.0
202,70.61616660625,71.15364000625001,52.0,69.0
203,70.61616660625,71.52315296875001,64.0,75.0
204,70.61616660625,71.55861128333333,68.0,77.0
205,71.06406110625001,72.04942900625001,59.0,93.0
206,71.95985010625,72.62795940208333,51.0,27.0
207,72.40774460625,72.74179925416668,56.0,85.0
208,71.51195560625001,72.76606020625,44.0,89.0
209,72.40774460625,73.33525946666667,68.0,90.0
210,72.40774460625,73.34832305625001,63.0,99.0
211,72.85563910625001,73.38751382500001,59.0,89.0
212,73.75142810625,74.40087513125,52.0,64.0
213,73.30353360625001,74.61175879166667,45.0,77.0
214,74.19932260625,75.06338574583334,64.0,79.0
215,74.19932260625,75.06898442708334,61.0,85.0
216,74.64721710625001,75.08391424375,57.0,81.0
217,75.54300610625,76.14019877291668,54.0,78.0
218,75.09511160625001,76.298828075,47.0,86.0
219,75.99090060625001,76.84749883750001,63.0,96.0
220,75.99090060625001,76.86242865416668,66.0,96.0
221,76.43879510625001,77.00612813958334,59.0,83.0
222,76.88668960625,77.89071977708335,40.0,83.0
223,77.33458410625,77.95977017916668,47.0,68.0
224,77.78247860625001,77.97096754166668,52.0,85.0
225,77.78247860625001,78.63907683750001,68.0,93.0
226,77.78247860625001,78.64094306458334,64.0,88.0
227,78.23037310625001,78.70252855833334,59.0,83.0
228,79.57405660625001,79.81853235416668,51.0,54.0
229,79.12616210625,79.85585689583334,46.0,56.0
230,78.67826760625,79.92490729791668,39.0,95.0
231,79.57405660625001,80.48104296875,63.0,79.0
232,79.57405660625001,80.48477542291667,58.0,78.0
233,80.02195110625001,80.52209996458335,54.0,78.0
234,80.46984560625,81.72208397916667,37.0,88.0
235,80.91774010625001,81.75940852083335,49.0,85.0
236,81.36563460625001,82.15318243541668,56.0,93.0
237,81.81352910625002,82.16997847916667,52.0,81.0
238,81.36563460625001,82.17930961458335,61.0,92.0
239,82.70931810625001,83.43901289583334,54.0,69.0
240,83.15721260625001,83.44834403125,59.0,79.0
241,82.26142360625,83.59950842500001,47.0,74.0
242,83.15721260625001,84.07539633125,66.0,99.0
243,83.15721260625001,84.10152351041667,63.0,97.0
244,83.60510710625,84.12391823541668,59.0,83.0
245,84.50089610625001,85.08315895625,52.0,50.0
246,84.05300160625,85.09808877291668,45.0,81.0
247,84.94879060625001,85.82591733541668,61.0,93.0
248,84.94879060625001,85.83524847083335,64.0,86.0
249,85.39668510625,85.94162341458335,57.0,75.0
250,86.29247410625001,86.6339936625,56.0,77.0
251,85.84457960625001,87.05949343750001,44.0,82.0
252,86.74036860625002,87.54284625208334,59.0,95.0
253,87.18826310625,87.57643833958335,56.0,90.0
254,86.74036860625002,87.60256551875001,63.0,97.0
255,88.08405210625001,88.65511759375,54.0,93.0
256,88.75589385625001,88.83614162083335,54.0,33.0
257,87.63615760625001,88.92572052083334,42.0,97.0
258,89.20378835625002,89.26350762291668,54.0,25.0
259,88.53194660625002,89.31202952708334,66.0,102.0
260,88.53194660625002,89.33442425208334,61.0,112.0
261,88.97984110625,89.40347465416667,57.0,93.0
262,90.32352460625,91.2025175625,63.0,112.0
263,90.32352460625,91.213714925,66.0,99.0
264,89.87563010625001,91.23797587708334,54.0,81.0
265,90.77141910625001,91.23984210416668,59.0,85.0
266,89.42773560625001,91.25103946666668,47.0,89.0
267,91.21931360625001,91.78291418541667,60.0,95.0
268,91.21931360625001,91.94527594166668,64.0,90.0
269,91.21931360625001,91.96020575833334,55.0,89.0
270,91.21931360625001,92.51074274791668,36.0,89.0
271,92.11510260625,92.51634142916667,55.0,93.0
272,91.66720810625002,92.51820765625001,43.0,53.0
273,92.11510260625,92.51820765625001,64.0,89.0
274,92.11510260625,92.54060238125001,60.0,97.0
275,92.56299710625001,92.63204750833334,48.0,53.0
276,93.01089160625001,93.54463255208334,66.0,102.0
277,93.01089160625001,93.72379035208334,59.0,93.0
278,93.01089160625001,93.73685394166668,63.0,127.0
279,93.68273335625001,93.76857980208334,66.0,24.0
280,93.45878610625002,94.02238668541668,54.0,63.0
281,93.01089160625001,94.25566507083334,47.0,89.0
282,94.13062785625002,94.26686243333334,54.0,96.0
283,93.90668060625,94.35457510625001,66.0,127.0
284,93.90668060625,94.37137115000002,63.0,127.0
285,94.35457510625001,94.48707722916667,59.0,99.0
286,94.80246960625001,95.53776307708334,64.0,92.0
287,94.80246960625001,95.55269289375,57.0,100.0
288,94.80246960625001,95.57882007291667,61.0,112.0
289,95.69825860625001,96.24319691458335,64.0,100.0
290,95.69825860625001,96.25066182291668,61.0,127.0
291,94.80246960625001,96.47834152708334,45.0,86.0
292,95.25036410625,96.51939852291667,52.0,69.0
293,96.37010035625,97.32187616875001,64.0,97.0
294,96.37010035625,97.34800334791667,61.0,127.0
295,96.14615310625001,97.38159543541667,57.0,82.0
296,96.59404760625002,97.53649228333335,45.0,86.0
297,97.48983660625001,97.59994400416667,64.0,96.0
298,97.48983660625001,97.60367645833334,61.0,112.0
299,97.04194210625,97.63166986458334,52.0,78.0
300,97.71378385625002,97.99931660000001,64.0,97.0
301,97.71378385625002,98.08702927291668,45.0,102.0
302,97.71378385625002,98.10755777083334,61.0,122.0
303,97.71378385625002,98.21020026041668,57.0,112.0
304,98.38562560625002,98.93802882291668,63.0,127.0
305,98.38562560625002,99.13398266666668,59.0,100.0
306,99.05746735625002,99.15824361875,63.0,24.0
307,98.83352010625,99.37845841458335,56.0,90.0
308,99.28141460625001,99.79462705416668,63.0,122.0
309,99.28141460625001,99.81142309791667,68.0,117.0
310,98.38562560625002,100.02417298541668,44.0,112.0
311,99.72930910625001,100.03537034791668,59.0,85.0
312,99.50536185625,100.22385928333334,56.0,78.0
313,100.17720360625002,100.74453663958334,68.0,92.0
314,100.17720360625002,100.89196857916667,59.0,88.0
315,100.84904535625002,100.91249707708334,68.0,24.0
316,100.17720360625002,100.91436330416668,63.0,96.0
317,100.62509810625001,101.12897941875,56.0,75.0
318,100.17720360625002,101.44063934166668,44.0,83.0
319,101.29693985625,101.44063934166668,56.0,112.0
320,101.07299260625001,101.51902087916667,68.0,127.0
321,101.07299260625001,101.53581692291668,63.0,127.0
322,101.52088710625002,101.62912827708334,59.0,100.0
323,101.96878160625,102.49319141666668,66.0,95.0
324,101.96878160625,102.67794789791668,57.0,100.0
325,101.96878160625,102.69287771458335,61.0,117.0
326,102.41667610625001,102.95414950625,54.0,78.0
327,101.96878160625,103.16689939375001,42.0,100.0
328,103.08851785625001,103.28447170000001,54.0,83.0
329,102.86457060625001,103.35912078333334,66.0,112.0
330,103.31246510625002,103.530813675,57.0,81.0
331,102.86457060625001,103.66518202500001,61.0,117.0
332,103.76035960625,104.46019476250001,59.0,93.0
333,103.76035960625,104.46206098958335,66.0,96.0
334,103.76035960625,104.49378685,63.0,107.0
335,104.20825410625001,104.76625600416668,54.0,59.0
336,104.65614860625001,104.97527343750001,59.0,86.0
337,103.76035960625,105.13763519375001,47.0,76.0
338,104.88009585625001,105.18615709791668,54.0,93.0
339,105.10404310625002,105.35225130833335,59.0,99.0
340,104.65614860625001,105.38024471458334,63.0,117.0
341,104.65614860625001,105.38584339583335,66.0,107.0
342,105.55193760625001,106.33948543541668,59.0,96.0
343,105.55193760625001,106.34135166250002,68.0,102.0
344,105.55193760625001,106.35814770625001,64.0,97.0
345,106.44772660625001,106.73512557708335,59.0,95.0
346,106.67167385625001,106.93107942083334,52.0,88.0
347,106.44772660625001,107.14569553541668,68.0,112.0
348,105.55193760625001,107.14942798958334,40.0,88.0
349,106.89562110625002,107.16435780625001,59.0,99.0
350,106.44772660625001,107.20914725625,64.0,102.0
351,107.11956835625001,107.25207047916668,62.0,95.0
352,105.99983210625001,107.27446520416667,47.0,83.0
353,107.34351560625001,107.87725655208334,68.0,107.0
354,107.34351560625001,107.87912277916668,62.0,99.0
355,107.34351560625001,107.88658768750001,64.0,100.0
356,107.34351560625001,107.89218636875002,59.0,112.0
357,108.01535735625001,108.14039457083335,59.0,69.0
358,108.01535735625001,108.14972570625001,62.0,76.0
359,108.01535735625001,108.15345816041668,64.0,74.0
360,108.01535735625001,108.15345816041668,68.0,76.0
361,107.79141010625001,108.32141859791668,52.0,97.0
362,107.34351560625001,108.49311148958334,40.0,95.0
363,107.56746285625002,108.54349962083334,47.0,95.0
364,108.46325185625001,108.62001493125001,52.0,95.0
365,108.23930460625002,108.66667060833335,68.0,107.0
366,108.23930460625002,108.66853683541667,64.0,107.0
367,108.23930460625002,108.69093156041667,62.0,97.0
368,108.68719910625,109.03804979791668,59.0,100.0
369,109.13509360625001,109.90211293750001,64.0,92.0
370,109.13509360625001,109.9133103,61.0,107.0
371,109.13509360625001,109.91704275416667,57.0,107.0
372,109.58298810625001,110.29215439791668,52.0,59.0
373,110.03088260625002,110.58515205000002,61.0,117.0
374,110.03088260625002,110.58701827708335,64.0,96.0
375,110.03088260625002,110.58888450416669,57.0,83.0
376,110.70272435625002,110.83522647916668,57.0,52.0
377,110.70272435625002,110.84642384166668,61.0,59.0
378,110.47877710625,111.15248508333335,52.0,75.0
379,110.92667160625001,111.61717562708334,57.0,93.0
380,109.13509360625001,111.83365796875002,45.0,90.0
381,110.92667160625001,111.88591232708335,64.0,93.0
382,110.92667160625001,111.88964478125001,61.0,107.0
383,111.82246060625002,111.92323686875001,57.0,93.0
384,111.37456610625001,111.96056141041667,52.0,79.0
385,112.04640785625001,112.30581342083335,45.0,96.0
386,112.04640785625001,112.37486382291668,64.0,100.0
387,112.04640785625001,112.59694484583335,57.0,112.0
388,112.04640785625001,112.66786147500001,61.0,127.0
389,112.71824960625001,113.44421194166668,59.0,100.0
390,112.71824960625001,113.49460007291668,63.0,122.0
391,113.16614410625002,113.74094204791668,56.0,85.0
392,113.61403860625,114.10112387500001,59.0,97.0
393,113.61403860625,114.37732548333335,68.0,112.0
394,113.61403860625,114.40158643541668,63.0,117.0
395,114.28588035625002,114.41838247916668,59.0,92.0
396,114.06193310625001,114.70578145000002,56.0,90.0
397,114.50982760625001,115.18726803750002,59.0,85.0
398,114.50982760625001,115.43174378541669,68.0,107.0
399,114.50982760625001,115.45040605625002,63.0,122.0
400,112.71824960625001,115.47839946250001,44.0,107.0
401,114.95772210625002,115.49892796041668,56.0,93.0
402,115.40561660625,115.52318891250002,59.0,90.0
403,115.62956385625002,116.15770612083335,68.0,117.0
404,115.62956385625002,116.19316443541668,59.0,117.0
405,115.62956385625002,116.19689688958334,63.0,127.0
406,115.62956385625002,116.20622802500002,56.0,85.0
407,115.62956385625002,116.21182670625001,44.0,93.0
408,116.30140560625001,117.04229775833335,61.0,117.0
409,116.30140560625001,117.04416398541667,57.0,102.0
410,116.74930010625002,117.26624500833334,54.0,73.0
411,116.30140560625001,117.48086112291668,42.0,102.0
412,117.42114185625002,117.59283474791668,54.0,88.0
413,117.19719460625001,117.70854082708334,66.0,112.0
414,117.64508910625001,117.90636089791668,57.0,95.0
415,117.19719460625001,117.96421393750002,61.0,127.0
416,118.09298360625002,118.69577495416668,66.0,107.0
417,118.09298360625002,118.81148103333335,59.0,100.0
418,118.09298360625002,118.83947443958334,63.0,122.0
419,118.54087810625002,119.03729451041669,54.0,62.0
420,118.09298360625002,119.64195208541668,47.0,88.0
421,119.21271985625002,119.71100248750001,54.0,92.0
422,119.43666710625001,119.79871516041668,59.0,95.0
423,118.98877260625001,119.83230724791667,63.0,127.0
424,118.98877260625001,119.84910329166668,66.0,117.0
425,119.88456160625002,120.62172130416668,64.0,89.0
426,119.88456160625002,120.63105243958334,60.0,93.0
427,119.88456160625002,120.63291866666668,55.0,93.0
428,119.88456160625002,121.00616408333335,36.0,93.0
429,120.78035060625001,121.04348862500001,55.0,88.0
430,120.33245610625,121.05841844166667,43.0,50.0
431,121.00429785625002,121.14239866041667,48.0,73.0
432,120.78035060625001,121.25810473958335,64.0,99.0
433,120.78035060625001,121.26743587500002,60.0,112.0
434,121.22824510625001,121.34581741250001,55.0,93.0
435,121.67613960625002,122.42636289375001,66.0,107.0
436,121.67613960625002,122.44129271041668,59.0,93.0
437,121.67613960625002,122.44315893750002,63.0,117.0
438,122.12403410625001,122.68576845833334,54.0,66.0
439,122.57192860625001,123.10193709791668,66.0,122.0
440,122.57192860625001,123.11313446041667,63.0,127.0
441,121.67613960625002,123.48078119583334,47.0,89.0
442,123.24377035625001,123.50317592083334,63.0,127.0
443,123.01982310625002,123.50877460208335,59.0,112.0
444,122.79587585625,123.51250705625002,54.0,97.0
445,123.24377035625001,123.51250705625002,66.0,127.0
446,123.91561210625001,124.43815568958335,52.0,93.0
447,123.69166485625001,124.65090557708335,47.0,89.0
448,123.46771760625002,124.66210293958335,40.0,92.0
449,124.58745385625001,124.76474542916668,52.0,89.0
450,124.13955935625002,124.84312696666667,59.0,89.0
451,124.81140110625002,125.20890747500002,64.0,97.0
452,124.36350660625001,125.22383729166668,68.0,127.0
453,125.03534835625001,125.27049296875002,59.0,97.0
454,125.70719010625001,126.24839596041669,56.0,95.0
455,126.15508460625001,126.29691786458335,68.0,99.0
456,125.93113735625002,126.4854068,59.0,81.0
457,125.48324285625002,126.73361500208335,51.0,33.0
458,126.37903185625001,126.78213690625002,56.0,95.0
459,125.25929560625002,126.78960181458335,44.0,85.0
460,126.82692635625001,127.02474642708334,63.0,100.0
461,126.60297910625002,127.08073323958335,59.0,78.0
462,127.49876810625001,127.75817367083334,57.0,89.0
463,127.72271535625002,127.87201352291667,61.0,88.0
464,127.27482085625002,128.03437527916668,52.0,68.0
465,127.05087360625001,128.68755475833333,45.0,88.0
466,128.17060985625002,128.82192310833335,52.0,66.0
467,128.61850435625,128.82378933541668,57.0,88.0
468,128.39455710625,128.8629801041667,61.0,97.0
469,127.94666260625002,128.94509409583335,64.0,93.0
470,129.29034610625,129.54228676250003,57.0,86.0
471,129.51429335625002,129.68785247500003,61.0,95.0
472,129.06639885625,129.84461555000001,52.0,63.0
473,129.96218785625,130.07416148125,52.0,93.0
474,128.84245160625002,130.1469443375,45.0,93.0
475,129.73824060625,130.57244411250002,64.0,99.0
476,130.18613510625002,130.583641475,61.0,122.0
477,130.41008235625,130.63402960625,57.0,93.0
478,131.08192410625003,131.59327032708336,52.0,102.0
479,131.30587135625,131.64365845833333,59.0,96.0
480,130.85797685625002,131.80975266875,47.0,95.0
481,130.63402960625,131.83028116666668,40.0,99.0
482,131.75376585625003,131.91239515833334,52.0,102.0
483,131.52981860625002,132.3677545666667,68.0,122.0
484,131.97771310625,132.37708570208335,59.0,102.0
485,132.20166035625002,132.42560760625003,64.0,95.0
486,132.87350210625002,133.35872114791667,56.0,96.0
487,133.09744935625002,133.68157843333336,59.0,82.0
488,133.54534385625,133.73196656458336,56.0,90.0
489,132.64955485625,133.75622751666668,51.0,88.0
490,132.42560760625003,133.76742487916667,44.0,78.0
491,133.32139660625,134.13507161458335,68.0,107.0
492,133.76929110625002,134.17239615625002,63.0,100.0
493,133.99323835625,134.20785447083335,59.0,90.0
494,134.66508010625,134.93008435208336,57.0,95.0
495,134.88902735625,135.16896141875,61.0,96.0
496,134.44113285625002,135.22681445833334,52.0,74.0
497,134.21718560625,135.59072873958334,45.0,73.0
498,135.56086910625,135.85946543958335,57.0,93.0
499,135.33692185625,135.86693034791668,52.0,74.0
500,135.11297460625002,135.9005224354167,64.0,88.0
501,135.78481635625002,135.93224829583335,61.0,100.0
502,136.45665810625002,136.53877209791668,59.0,66.0
503,136.45665810625002,136.86162938333334,60.0,65.0
504,136.68060535625003,136.96240564583334,63.0,100.0
505,137.12849985625002,137.26473443333336,54.0,61.0
506,136.00876360625003,137.34871465208334,48.0,90.0
507,136.23271085625,137.34871465208334,51.0,93.0
508,137.57639435625,137.80034160625002,60.0,93.0
509,137.35244710625003,137.80034160625002,63.0,122.0
510,136.90455260625,137.80034160625002,66.0,112.0
511,138.24823610625,138.76891346250002,49.0,78.0
512,138.47218335625,139.06004488750003,52.0,82.0
513,138.02428885625002,139.16082115,44.0,59.0
514,138.92007785625,139.25786495833336,49.0,86.0
515,137.80034160625002,139.26906232083334,37.0,90.0
516,139.14402510625,139.48554466250002,56.0,86.0
517,139.36797235625002,139.56579242708335,52.0,92.0
518,138.69613060625002,139.57139110833336,61.0,102.0
519,140.03981410625002,140.2786911729167,51.0,78.0
520,140.26376135625003,140.42612311250002,54.0,90.0
521,139.81586685625,140.61087959375,48.0,86.0
522,139.59191960625,140.93373687916667,36.0,58.0
523,140.48770860625,141.00838596250003,54.0,97.0
524,140.71165585625002,141.05690786666668,48.0,82.0
525,140.93560310625003,141.17074771875002,51.0,97.0
526,141.15955035625,141.31631343125002,54.0,107.0
527,141.83139210625,142.07773408125001,59.0,95.0
528,142.05533935625002,142.3390058729167,63.0,96.0
529,141.60744485625003,142.41552118333334,54.0,93.0
530,142.50323385625,142.62267238958336,54.0,72.0
531,141.38349760625002,142.64506711458336,47.0,86.0
532,142.27928660625003,143.05563707291668,66.0,122.0
533,142.72718110625001,143.05936952708336,63.0,112.0
534,142.95112835625002,143.19933655833336,59.0,92.0
535,143.39902285625,143.69948541666668,58.0,66.0
536,143.84691735625,144.14551368958334,58.0,72.0
537,143.62297010625002,144.35639735,61.0,69.0
538,144.07086460625,144.61207046041667,64.0,61.0
539,143.17507560625,144.66059236458335,46.0,97.0
540,144.29481185625002,144.92932906458336,58.0,72.0
541,144.51875910625,144.97598474166668,61.0,66.0
542,144.74270635625,145.09728950208336,64.0,72.0
543,145.41454810625,145.72620802916668,57.0,88.0
544,145.19060085625003,145.88483733125003,52.0,66.0
545,145.63849535625002,145.89603469375,61.0,64.0
546,146.08638985625,146.20956084375,52.0,88.0
547,144.96665360625002,146.21142707083334,45.0,72.0
548,145.86244260625003,146.7675627416667,64.0,95.0
549,146.31033710625002,146.77129519583335,61.0,96.0
550,146.53428435625003,146.82168332708335,57.0,92.0
551,147.20612610625003,147.74359950625,56.0,63.0
552,147.87796785625002,148.03659715833334,56.0,96.0
553,146.98217885625002,148.10004887916668,51.0,42.0
554,147.43007335625,148.11497869583334,59.0,74.0
555,146.75823160625,148.1523032375,44.0,76.0
556,148.10191510625,148.57407055833335,63.0,99.0
557,147.65402060625001,148.57780301250003,68.0,107.0
558,148.32586235625,148.5871341479167,59.0,90.0
559,148.99770410625,149.51091655416667,54.0,88.0
560,149.22165135625002,149.78151948125003,57.0,81.0
561,148.77375685625,149.78338570833336,49.0,64.0
562,148.54980960625002,149.8132453416667,42.0,78.0
563,149.66954585625,149.93455010208336,54.0,117.0
564,149.44559860625003,150.13610262708335,66.0,122.0
565,150.11744035625003,150.2275477541667,57.0,97.0
566,149.89349310625002,150.22941398125002,61.0,122.0
567,150.34138760625,150.66984357291668,59.0,99.0
568,150.34138760625,150.86206496250003,63.0,112.0
569,150.34138760625,150.86766364375,66.0,102.0
570,151.01322935625,151.16625997708334,66.0,112.0
571,151.01322935625,151.17372488541668,63.0,107.0
572,150.78928210625003,151.17932356666668,59.0,76.0
573,150.56533485625002,151.34168532291667,54.0,82.0
574,151.23717660625002,151.49658217083336,59.0,97.0
575,151.23717660625002,151.7671850979167,66.0,122.0
576,151.23717660625002,151.7839811416667,63.0,127.0
577,151.46112385625003,152.11990201666669,54.0,107.0
578,151.90901835625002,152.12176824375,63.0,117.0
579,151.68507110625,152.14229674166668,59.0,96.0
580,151.90901835625002,152.14602919583336,66.0,117.0
581,150.34138760625,152.1945511,47.0,90.0
582,152.13296560625002,153.27136412708336,40.0,92.0
583,152.58086010625001,153.29749130625,47.0,61.0
584,153.02875460625,153.44305701875,52.0,88.0
585,153.02875460625,153.96186814791668,64.0,88.0
586,153.02875460625,153.96560060208336,68.0,92.0
587,153.47664910625002,154.00852382500003,59.0,85.0
588,154.82033260625002,155.2402337,56.0,66.0
589,154.37243810625003,155.27569201458334,51.0,50.0
590,153.92454360625,155.37460205000002,44.0,86.0
591,154.82033260625002,155.70679047083334,68.0,75.0
592,154.82033260625002,155.7310514229167,63.0,75.0
593,155.26822710625,155.8262290041667,59.0,76.0
594,156.61191060625,157.11019323750003,64.0,93.0
595,155.71612160625003,157.2706887666667,45.0,72.0
596,156.16401610625002,157.33227426041668,52.0,61.0
597,157.05980510625002,157.34907030416667,57.0,81.0
598,156.61191060625,157.48157242708336,61.0,99.0
599,157.50769960625001,157.86601520625,59.0,69.0
600,157.50769960625001,158.00038355625003,63.0,54.0
601,157.50769960625001,158.04330677916667,66.0,72.0
602,157.95559410625,158.487468825,59.0,68.0
603,157.50769960625001,158.7095498479167,47.0,75.0
604,158.40348860625002,159.41498368541667,63.0,90.0
605,158.40348860625002,159.42058236666668,66.0,97.0
606,158.85138310625,159.98418294583334,59.0,74.0
607,159.29927760625003,160.57950938541669,40.0,73.0
608,159.74717210625002,160.62056638125003,47.0,54.0
609,160.19506660625,160.73254000625002,52.0,69.0
610,160.19506660625,161.10205296875003,64.0,75.0
611,160.19506660625,161.13751128333334,68.0,77.0
612,160.64296110625003,161.62832900625003,59.0,93.0
613,161.53875010625,162.20685940208335,51.0,27.0
614,161.98664460625002,162.3206992541667,56.0,85.0
615,161.09085560625002,162.34496020625002,44.0,89.0
616,161.98664460625002,162.9141594666667,68.0,90.0
617,161.98664460625002,162.92722305625003,63.0,99.0
618,162.43453910625,162.96641382500002,59.0,89.0
619,163.33032810625002,163.97977513125002,52.0,64.0
620,162.88243360625003,164.1906587916667,45.0,77.0
621,163.77822260625,164.64228574583336,64.0,79.0
622,163.77822260625,164.64788442708334,61.0,85.0
623,164.22611710625003,164.66281424375,57.0,81.0
624,165.12190610625,165.71909877291668,54.0,78.0
625,164.67401160625002,165.87772807500002,47.0,86.0
626,165.56980060625003,166.42639883750002,63.0,96.0
627,165.56980060625003,166.44132865416668,66.0,96.0
628,166.01769510625002,166.58502813958336,59.0,83.0
629,166.46558960625,167.46961977708335,40.0,83.0
630,166.91348410625002,167.53867017916667,47.0,68.0
631,167.36137860625,167.54986754166669,52.0,85.0
632,167.36137860625,168.21797683750003,68.0,93.0
633,167.36137860625,168.21984306458336,64.0,88.0
634,167.80927310625003,168.28142855833335,59.0,83.0
635,169.15295660625003,169.39743235416668,51.0,54.0
636,168.70506210625,169.43475689583335,46.0,56.0
637,168.25716760625002,169.5038072979167,39.0,95.0
638,169.15295660625003,170.05994296875002,63.0,79.0
639,169.15295660625003,170.06367542291667,58.0,78.0
640,169.60085110625002,170.10099996458337,54.0,78.0
641,170.04874560625,171.3009839791667,37.0,88.0
642,170.49664010625003,171.33830852083335,49.0,85.0
643,170.94453460625002,171.7320824354167,56.0,93.0
644,171.39242910625,171.74887847916668,52.0,81.0
645,170.94453460625002,171.75820961458336,61.0,92.0
646,172.28821810625,173.01791289583335,54.0,69.0
647,172.73611260625003,173.02724403125,59.0,79.0
648,171.84032360625002,173.17840842500001,47.0,74.0
649,172.73611260625003,173.65429633125,66.0,99.0
650,172.73611260625003,173.6804235104167,63.0,97.0
651,173.18400710625002,173.7028182354167,59.0,83.0
652,174.07979610625003,174.66205895625,52.0,50.0
653,173.63190160625,174.67698877291667,45.0,81.0
654,174.52769060625002,175.40481733541668,61.0,93.0
655,174.52769060625002,175.41414847083334,64.0,86.0
656,174.97558510625,175.52052341458335,57.0,75.0
657,175.87137410625002,176.21289366250002,56.0,77.0
658,175.42347960625003,176.6383934375,44.0,82.0
659,176.31926860625,177.12174625208334,59.0,95.0
660,176.76716310625002,177.15533833958335,56.0,90.0
661,176.31926860625,177.18146551875003,63.0,97.0
662,177.66295210625003,178.23401759375002,54.0,93.0
663,178.33479385625003,178.41504162083336,54.0,33.0
664,177.21505760625,178.50462052083336,42.0,97.0
665,178.78268835625002,178.84240762291668,54.0,25.0
666,178.11084660625002,178.89092952708336,66.0,102.0
667,178.11084660625002,178.91332425208336,61.0,112.0
668,178.55874110625,178.98237465416668,57.0,93.0
669,179.90242460625,180.78141756250002,63.0,112.0
670,179.90242460625,180.792614925,66.0,99.0
671,179.45453010625002,180.81687587708336,54.0,81.0
672,180.35031910625003,180.8187421041667,59.0,85.0
673,179.00663560625003,180.82993946666667,47.0,89.0
674,180.79821360625002,181.36181418541668,60.0,95.0
675,180.79821360625002,181.5241759416667,64.0,90.0
676,180.79821360625002,181.53910575833336,55.0,89.0
677,180.79821360625002,182.08964274791668,36.0,89.0
678,181.69400260625002,182.0952414291667,55.0,93.0
679,181.24610810625003,182.09710765625002,43.0,53.0
680,181.69400260625002,182.09710765625002,64.0,89.0
681,181.69400260625002,182.11950238125002,60.0,97.0
682,182.14189710625,182.21094750833336,48.0,53.0
683,182.58979160625003,183.12353255208336,66.0,102.0
684,182.58979160625003,183.30269035208335,59.0,93.0
685,182.58979160625003,183.31575394166669,63.0,127.0
686,183.26163335625003,183.34747980208334,66.0,24.0
687,183.03768610625002,183.60128668541668,54.0,63.0
688,182.58979160625003,183.83456507083335,47.0,89.0
689,183.70952785625002,183.84576243333336,54.0,96.0
690,183.48558060625,183.93347510625003,66.0,127.0
691,183.48558060625,183.95027115000002,63.0,127.0
692,183.93347510625003,184.0659772291667,59.0,99.0
693,184.38136960625002,185.11666307708336,64.0,92.0
694,184.38136960625002,185.13159289375002,57.0,100.0
695,184.38136960625002,185.15772007291667,61.0,112.0
696,185.27715860625003,185.82209691458334,64.0,100.0
697,185.27715860625003,185.82956182291667,61.0,127.0
698,184.38136960625002,186.05724152708336,45.0,86.0
699,184.82926410625,186.09829852291668,52.0,69.0
700,185.94900035625002,186.90077616875,64.0,97.0
701,185.94900035625002,186.9269033479167,61.0,127.0
702,185.72505310625002,186.96049543541668,57.0,82.0
703,186.17294760625003,187.11539228333336,45.0,86.0
704,187.06873660625,187.17884400416668,64.0,96.0
705,187.06873660625,187.18257645833336,61.0,112.0
706,186.62084210625002,187.21056986458336,52.0,78.0
707,187.29268385625002,187.57821660000002,64.0,97.0
708,187.29268385625002,187.66592927291669,45.0,102.0
709,187.29268385625002,187.68645777083336,61.0,122.0
710,187.29268385625002,187.7891002604167,57.0,112.0
711,187.96452560625002,188.5169288229167,63.0,127.0
712,187.96452560625002,188.7128826666667,59.0,100.0
713,188.63636735625002,188.73714361875003,63.0,24.0
714,188.41242010625,188.95735841458335,56.0,90.0
715,188.86031460625003,189.3735270541667,63.0,122.0
716,188.86031460625003,189.39032309791668,68.0,117.0
717,187.96452560625002,189.60307298541667,44.0,112.0
718,189.30820910625002,189.6142703479167,59.0,85.0
719,189.08426185625,189.80275928333336,56.0,78.0
720,189.75610360625,190.32343663958335,68.0,92.0
721,189.75610360625,190.47086857916668,59.0,88.0
722,190.42794535625004,190.49139707708335,68.0,24.0
723,189.75610360625,190.49326330416667,63.0,96.0
724,190.20399810625003,190.70787941875003,56.0,75.0
725,189.75610360625,191.0195393416667,44.0,83.0
726,190.87583985625002,191.0195393416667,56.0,112.0
727,190.65189260625002,191.09792087916668,68.0,127.0
728,190.65189260625002,191.1147169229167,63.0,127.0
729,191.09978710625003,191.20802827708334,59.0,100.0
730,191.54768160625002,192.0720914166667,66.0,95.0
731,191.54768160625002,192.25684789791669,57.0,100.0
732,191.54768160625002,192.27177771458335,61.0,117.0
733,191.99557610625,192.53304950625002,54.0,78.0
734,191.54768160625002,192.74579939375002,42.0,100.0
735,192.66741785625,192.86337170000002,54.0,83.0
736,192.44347060625003,192.93802078333334,66.0,112.0
737,192.89136510625002,193.10971367500002,57.0,81.0
738,192.44347060625003,193.244082025,61.0,117.0
739,193.33925960625,194.0390947625,59.0,93.0
740,193.33925960625,194.04096098958337,66.0,96.0
741,193.33925960625,194.07268685000003,63.0,107.0
742,193.78715410625003,194.34515600416668,54.0,59.0
743,194.23504860625002,194.55417343750003,59.0,86.0
744,193.33925960625,194.71653519375002,47.0,76.0
745,194.45899585625003,194.7650570979167,54.0,93.0
746,194.68294310625,194.93115130833334,59.0,99.0
747,194.23504860625002,194.95914471458335,63.0,117.0
748,194.23504860625002,194.96474339583335,66.0,107.0
749,195.13083760625003,195.9183854354167,59.0,96.0
750,195.13083760625003,195.92025166250002,68.0,102.0
751,195.13083760625003,195.93704770625,64.0,97.0
752,196.02662660625003,196.31402557708336,59.0,95.0
753,196.25057385625,196.50997942083336,52.0,88.0
754,196.02662660625003,196.72459553541668,68.0,112.0
755,195.13083760625003,196.72832798958336,40.0,88.0
756,196.47452110625002,196.74325780625003,59.0,99.0
757,196.02662660625003,196.78804725625002,64.0,102.0
758,196.69846835625003,196.8309704791667,62.0,95.0
759,195.57873210625002,196.8533652041667,47.0,83.0
760,196.92241560625,197.45615655208334,68.0,107.0
761,196.92241560625,197.4580227791667,62.0,99.0
762,196.92241560625,197.46548768750003,64.0,100.0
763,196.92241560625,197.47108636875,59.0,112.0
764,197.59425735625,197.71929457083334,59.0,69.0
765,197.59425735625,197.72862570625003,62.0,76.0
766,197.59425735625,197.73235816041668,64.0,74.0
767,197.59425735625,197.73235816041668,68.0,76.0
768,197.37031010625003,197.90031859791668,52.0,97.0
769,196.92241560625,198.07201148958336,40.0,95.0
770,197.14636285625002,198.12239962083336,47.0,95.0
771,198.04215185625003,198.19891493125002,52.0,95.0
772,197.81820460625002,198.24557060833337,68.0,107.0
773,197.81820460625002,198.2474368354167,64.0,107.0
774,197.81820460625002,198.2698315604167,62.0,97.0
775,198.26609910625,198.61694979791667,59.0,100.0
776,198.71399360625003,199.48101293750003,64.0,92.0
777,198.71399360625003,199.4922103,61.0,107.0
778,198.71399360625003,199.4959427541667,57.0,107.0
779,199.16188810625002,199.87105439791668,52.0,59.0
780,199.60978260625004,200.16405205,61.0,117.0
781,199.60978260625004,200.16591827708336,64.0,96.0
782,199.60978260625004,200.1677845041667,57.0,83.0
783,200.28162435625003,200.4141264791667,57.0,52.0
784,200.28162435625003,200.42532384166668,61.0,59.0
785,200.05767710625003,200.73138508333335,52.0,75.0
786,200.50557160625002,201.19607562708336,57.0,93.0
787,198.71399360625003,201.41255796875004,45.0,90.0
788,200.50557160625002,201.46481232708337,64.0,93.0
789,200.50557160625002,201.46854478125002,61.0,107.0
790,201.40136060625002,201.50213686875003,57.0,93.0
791,200.95346610625003,201.5394614104167,52.0,79.0
792,201.62530785625003,201.88471342083335,45.0,96.0
793,201.62530785625003,201.9537638229167,64.0,100.0
794,201.62530785625003,202.17584484583335,57.0,112.0
795,201.62530785625003,202.24676147500003,61.0,127.0
796,202.29714960625003,203.02311194166668,59.0,100.0
797,202.29714960625003,203.0735000729167,63.0,122.0
798,202.74504410625002,203.3198420479167,56.0,85.0
799,203.19293860625,203.68002387500002,59.0,97.0
800,203.19293860625,203.95622548333336,68.0,112.0
801,203.19293860625,203.98048643541668,63.0,117.0
802,203.86478035625,203.9972824791667,59.0,92.0
803,203.64083310625003,204.28468145000002,56.0,90.0
804,204.08872760625002,204.76616803750002,59.0,85.0
805,204.08872760625002,205.01064378541668,68.0,107.0
806,204.08872760625002,205.02930605625002,63.0,122.0
807,202.29714960625003,205.05729946250003,44.0,107.0
808,204.53662210625004,205.0778279604167,56.0,93.0
809,204.98451660625003,205.10208891250002,59.0,90.0
810,205.20846385625003,205.73660612083336,68.0,117.0
811,205.20846385625003,205.7720644354167,59.0,117.0
812,205.20846385625003,205.77579688958335,63.0,127.0
813,205.20846385625003,205.78512802500003,56.0,85.0
814,205.20846385625003,205.79072670625,44.0,93.0
815,205.88030560625003,206.62119775833335,61.0,117.0
816,205.88030560625003,206.62306398541668,57.0,102.0
817,206.32820010625002,206.84514500833336,54.0,73.0
818,205.88030560625003,207.05976112291668,42.0,102.0
819,207.00004185625002,207.1717347479167,54.0,88.0
820,206.77609460625,207.28744082708334,66.0,112.0
821,207.22398910625003,207.4852608979167,57.0,95.0
822,206.77609460625,207.5431139375,61.0,127.0
823,207.67188360625002,208.2746749541667,66.0,107.0
824,207.67188360625002,208.39038103333337,59.0,100.0
825,207.67188360625002,208.41837443958335,63.0,122.0
826,208.11977810625,208.61619451041668,54.0,62.0
827,207.67188360625002,209.22085208541668,47.0,88.0
828,208.79161985625004,209.28990248750003,54.0,92.0
829,209.01556710625002,209.3776151604167,59.0,95.0
830,208.56767260625003,209.41120724791668,63.0,127.0
831,208.56767260625003,209.4280032916667,66.0,117.0
832,209.46346160625004,210.2006213041667,64.0,89.0
833,209.46346160625004,210.20995243958336,60.0,93.0
834,209.46346160625004,210.2118186666667,55.0,93.0
835,209.46346160625004,210.58506408333335,36.0,93.0
836,210.35925060625001,210.622388625,55.0,88.0
837,209.91135610625003,210.63731844166668,43.0,50.0
838,210.58319785625002,210.7212986604167,48.0,73.0
839,210.35925060625001,210.83700473958336,64.0,99.0
840,210.35925060625001,210.84633587500002,60.0,112.0
841,210.80714510625003,210.92471741250003,55.0,93.0
842,211.25503960625002,212.00526289375003,66.0,107.0
843,211.25503960625002,212.0201927104167,59.0,93.0
844,211.25503960625002,212.02205893750002,63.0,117.0
845,211.70293410625,212.26466845833335,54.0,66.0
846,212.15082860625003,212.68083709791668,66.0,122.0
847,212.15082860625003,212.6920344604167,63.0,127.0
848,211.25503960625002,213.04661760625,47.0,89.0
849,212.37477585625,213.04661760625,54.0,97.0
850,212.59872310625002,213.04661760625,59.0,112.0
851,212.82267035625003,213.04661760625,63.0,127.0
852,212.82267035625003,213.04661760625,66.0,127.0
853,213.04661760625,213.78191107708335,64.0,92.0
854,213.04661760625,213.79684089375002,57.0,100.0
855,213.04661760625,213.8229680729167,61.0,112.0
856,213.94240660625002,214.48734491458336,64.0,100.0
857,213.94240660625002,214.4948098229167,61.0,127.0
858,213.04661760625,214.72248952708335,45.0,86.0
859,213.49451210625003,214.7635465229167,52.0,69.0
860,214.61424835625002,215.56602416875003,64.0,97.0
861,214.61424835625002,215.59215134791668,61.0,127.0
862,214.39030110625004,215.6257434354167,57.0,82.0
863,214.83819560625003,215.78064028333336,45.0,86.0
864,215.73398460625003,215.8440920041667,64.0,96.0
865,215.73398460625003,215.84782445833335,61.0,112.0
866,215.28609010625001,215.87581786458335,52.0,78.0
867,215.95793185625,216.2434646,64.0,97.0
868,215.95793185625,216.3311772729167,45.0,102.0
869,215.95793185625,216.35170577083335,61.0,122.0
870,215.95793185625,216.45434826041668,57.0,112.0
871,216.62977360625,217.1821768229167,63.0,127.0
872,216.62977360625,217.3781306666667,59.0,100.0
873,217.30161535625,217.40239161875002,63.0,24.0
874,217.07766810625003,217.62260641458334,56.0,90.0
875,217.52556260625002,218.03877505416668,63.0,122.0
876,217.52556260625002,218.0555710979167,68.0,117.0
877,216.62977360625,218.2683209854167,44.0,112.0
878,217.97345710625004,218.27951834791668,59.0,85.0
879,217.74950985625003,218.46800728333335,56.0,78.0
880,218.42135160625003,218.98868463958337,68.0,92.0
881,218.42135160625003,219.1361165791667,59.0,88.0
882,219.09319335625003,219.15664507708337,68.0,24.0
883,218.42135160625003,219.1585113041667,63.0,96.0
884,218.86924610625002,219.37312741875002,56.0,75.0
885,218.42135160625003,219.6847873416667,44.0,83.0
886,219.54108785625002,219.6847873416667,56.0,112.0
887,219.31714060625004,219.7631688791667,68.0,127.0
888,219.31714060625004,219.7799649229167,63.0,127.0
889,219.76503510625002,219.87327627708336,59.0,100.0
890,220.21292960625001,220.73733941666669,66.0,95.0
891,220.21292960625001,220.9220958979167,57.0,100.0
892,220.21292960625001,220.93702571458337,61.0,117.0
893,220.66082410625003,221.19829750625001,54.0,78.0
894,220.21292960625001,221.41104739375,42.0,100.0
895,221.33266585625003,221.52861970000004,54.0,83.0
896,221.10871860625002,221.60326878333336,66.0,112.0
897,221.55661310625,221.77496167500001,57.0,81.0
898,221.10871860625002,221.90933002500003,61.0,117.0
899,222.00450760625003,222.70434276250003,59.0,93.0
900,222.00450760625003,222.70620898958336,66.0,96.0
901,222.00450760625003,222.73793485000002,63.0,107.0
902,222.45240210625002,223.0104040041667,54.0,59.0
903,222.90029660625004,223.21942143750002,59.0,86.0
904,222.00450760625003,223.38178319375004,47.0,76.0
905,223.12424385625002,223.4303050979167,54.0,93.0
906,223.34819110625003,223.59639930833336,59.0,99.0
907,222.90029660625004,223.62439271458337,63.0,117.0
908,222.90029660625004,223.62999139583337,66.0,107.0
909,223.79608560625002,224.5836334354167,59.0,96.0
910,223.79608560625002,224.5854996625,68.0,102.0
911,223.79608560625002,224.60229570625003,64.0,97.0
912,224.69187460625002,224.97927357708335,59.0,95.0
913,224.91582185625003,225.17522742083335,52.0,88.0
914,224.69187460625002,225.3898435354167,68.0,112.0
915,223.79608560625002,225.39357598958335,40.0,88.0
916,225.13976910625001,225.40850580625002,59.0,99.0
917,224.69187460625002,225.45329525625002,64.0,102.0
918,225.36371635625002,225.49621847916669,62.0,95.0
919,224.24398010625004,225.51861320416668,47.0,83.0
920,225.58766360625003,226.12140455208336,68.0,107.0
921,225.58766360625003,226.1232707791667,62.0,99.0
922,225.58766360625003,226.13073568750002,64.0,100.0
923,225.58766360625003,226.13633436875003,59.0,112.0
924,226.25950535625003,226.38454257083336,59.0,69.0
925,226.25950535625003,226.39387370625002,62.0,76.0
926,226.25950535625003,226.3976061604167,64.0,74.0
927,226.25950535625003,226.3976061604167,68.0,76.0
928,226.03555810625002,226.5655665979167,52.0,97.0
929,225.58766360625003,226.73725948958335,40.0,95.0
930,225.81161085625,226.78764762083335,47.0,95.0
931,226.70739985625002,226.86416293125004,52.0,95.0
932,226.48345260625,226.91081860833336,68.0,107.0
933,226.48345260625,226.91268483541668,64.0,107.0
934,226.48345260625,226.93507956041668,62.0,97.0
935,226.93134710625003,227.2821977979167,59.0,100.0
936,227.37924160625002,228.14626093750002,64.0,92.0
937,227.37924160625002,228.15745830000003,61.0,107.0
938,227.37924160625002,228.16119075416668,57.0,107.0
939,227.82713610625004,228.5363023979167,52.0,59.0
940,228.27503060625003,228.82930005000003,61.0,117.0
941,228.27503060625003,228.83116627708335,64.0,96.0
942,228.27503060625003,228.83303250416668,57.0,83.0
943,228.94687235625003,229.0793744791667,57.0,52.0
944,228.94687235625003,229.0905718416667,61.0,59.0
945,228.72292510625002,229.39663308333337,52.0,75.0
946,229.17081960625003,229.86132362708335,57.0,93.0
947,227.37924160625002,230.07780596875003,45.0,90.0
948,229.17081960625003,230.13006032708336,64.0,93.0
949,229.17081960625003,230.13379278125004,61.0,107.0
950,230.06660860625,230.16738486875002,57.0,93.0
951,229.61871410625002,230.20470941041668,52.0,79.0
952,230.29055585625002,230.54996142083337,45.0,96.0
953,230.29055585625002,230.6190118229167,64.0,100.0
954,230.29055585625002,230.84109284583337,57.0,112.0
955,230.29055585625002,230.91200947500002,61.0,127.0
956,230.96239760625002,231.6883599416667,59.0,100.0
957,230.96239760625002,231.73874807291668,63.0,122.0
958,231.41029210625,231.98509004791669,56.0,85.0
959,231.85818660625003,232.34527187500004,59.0,97.0
960,231.85818660625003,232.62147348333335,68.0,112.0
961,231.85818660625003,232.6457344354167,63.0,117.0
962,232.53002835625003,232.6625304791667,59.0,92.0
963,232.30608110625002,232.94992945,56.0,90.0
964,232.75397560625004,233.43141603750001,59.0,85.0
965,232.75397560625004,233.6758917854167,68.0,107.0
966,232.75397560625004,233.69455405625,63.0,122.0
967,230.96239760625002,233.72254746250002,44.0,107.0
968,233.20187010625003,233.7430759604167,56.0,93.0
969,233.64976460625002,233.7673369125,59.0,90.0
970,233.87371185625003,234.40185412083335,68.0,117.0
971,233.87371185625003,234.4373124354167,59.0,117.0
972,233.87371185625003,234.44104488958337,63.0,127.0
973,233.87371185625003,234.45037602500003,56.0,85.0
974,233.87371185625003,234.45597470625003,44.0,93.0
975,234.54555360625002,235.28644575833337,61.0,117.0
976,234.54555360625002,235.2883119854167,57.0,102.0
977,234.99344810625,235.51039300833335,54.0,73.0
978,234.54555360625002,235.7250091229167,42.0,102.0
979,235.66528985625,235.8369827479167,54.0,88.0
980,235.44134260625003,235.95268882708336,66.0,112.0
981,235.88923710625002,236.1505088979167,57.0,95.0
982,235.44134260625003,236.20836193750003,61.0,127.0
983,236.33713160625004,236.9399229541667,66.0,107.0
984,236.33713160625004,237.05562903333336,59.0,100.0
985,236.33713160625004,237.08362243958337,63.0,122.0
986,236.78502610625003,237.2814425104167,54.0,62.0
987,236.33713160625004,237.8861000854167,47.0,88.0
988,237.45686785625003,237.95515048750002,54.0,92.0
989,237.68081510625004,238.0428631604167,59.0,95.0
990,237.23292060625002,238.0764552479167,63.0,127.0
991,237.23292060625002,238.0932512916667,66.0,117.0
992,238.12870960625003,238.66058432500003,64.0,95.0
993,238.12870960625003,238.66618300625004,68.0,100.0
994,238.12870960625003,238.67178168750002,59.0,93.0
995,238.80055135625003,239.35108834583335,59.0,93.0
996,238.12870960625003,239.5657044604167,40.0,95.0
997,238.80055135625003,239.57690182291668,68.0,112.0
998,238.80055135625003,239.5880991854167,64.0,99.0
999,239.24844585625002,239.65714958750002,56.0,85.0
1000,239.47239310625002,239.79711661875004,59.0,96.0
1001,239.92028760625,240.4279013729167,64.0,99.0
1002,239.92028760625,240.4279013729167,67.0,93.0
1003,239.92028760625,240.61079162708336,60.0,102.0
1004,239.92028760625,240.6686446666667,55.0,93.0
1005,239.92028760625,240.72649770625003,48.0,97.0
1006,240.81607660625002,241.66894238333336,66.0,100.0
1007,240.81607660625002,241.67080861041669,63.0,122.0
1008,240.81607660625002,241.69320333541668,59.0,99.0
1009,240.81607660625002,241.72306296875,47.0,77.0
1010,241.71186560625003,242.53487175000004,64.0,88.0
1011,241.71186560625003,242.54047043125001,57.0,95.0
1012,241.71186560625003,242.54233665833337,61.0,97.0
1013,242.15976010625002,242.70469841458336,52.0,57.0
1014,242.60765460625004,243.12273328125002,57.0,93.0
1015,242.60765460625004,243.13206441666668,61.0,112.0
1016,242.60765460625004,243.13393064375003,64.0,95.0
1017,243.05554910625003,243.52583833125001,52.0,55.0
1018,243.27949635625004,243.61168477708335,57.0,92.0
1019,243.27949635625004,243.6247483666667,61.0,112.0
1020,243.27949635625004,243.62661459375002,64.0,89.0
1021,243.72739085625003,244.24060330416668,57.0,88.0
1022,243.72739085625003,244.24806821250002,61.0,102.0
1023,243.72739085625003,244.25926557500003,64.0,92.0
1024,244.39923260625002,244.48321282500004,61.0,95.0
1025,244.39923260625002,244.48321282500004,64.0,81.0
1026,244.17528535625001,244.51680491250002,52.0,37.0
1027,241.71186560625003,244.5205373666667,45.0,86.0
1028,244.62317985625003,244.95910073125003,45.0,90.0
1029,244.62317985625003,245.05054585833335,64.0,93.0
1030,244.62317985625003,245.12892739583336,57.0,96.0
1031,244.62317985625003,245.22410497708336,61.0,127.0
1032,245.29502160625003,245.66080211458336,63.0,107.0
1033,245.29502160625003,245.85675595833337,59.0,99.0
1034,245.74291610625002,246.31398159375001,56.0,56.0
1035,246.19081060625004,246.65550115000002,59.0,92.0
1036,246.19081060625004,246.6704309666667,63.0,112.0
1037,246.19081060625004,246.67976210208337,68.0,96.0
1038,246.86265235625004,247.17804473333337,59.0,93.0
1039,246.86265235625004,247.1911083229167,63.0,122.0
1040,246.86265235625004,247.19484077708336,68.0,100.0
1041,246.63870510625003,247.43558407083336,56.0,73.0
1042,247.31054685625003,247.82375930416669,59.0,81.0
1043,247.31054685625003,247.82375930416669,63.0,93.0
1044,247.31054685625003,247.82749175833337,68.0,89.0
1045,247.75844135625002,248.01598069375004,56.0,82.0
1046,245.29502160625003,248.06823505208337,44.0,117.0
1047,247.98238860625003,248.16714508750002,63.0,122.0
1048,247.98238860625003,248.1708775416667,68.0,112.0
1049,247.98238860625003,248.19140603958337,59.0,95.0
1050,248.20633585625004,248.76060530000004,43.0,99.0
1051,248.87817760625003,249.60227371458336,66.0,93.0
1052,248.87817760625003,249.62280221250003,57.0,93.0
1053,248.87817760625003,249.63586580208337,61.0,112.0
1054,249.32607210625002,249.82622096458337,54.0,77.0
1055,248.87817760625003,250.1248172979167,42.0,97.0
1056,249.99791385625002,250.29464396250003,54.0,95.0
1057,249.77396660625,250.30770755208337,66.0,102.0
1058,250.22186110625003,250.5055276229167,57.0,96.0
1059,249.77396660625,250.5895078416667,61.0,122.0
1060,250.66975560625002,251.37705567083336,66.0,99.0
1061,250.66975560625002,251.39385171458335,59.0,95.0
1062,250.66975560625002,251.40878153125,63.0,122.0
1063,251.11765010625004,251.6644546416667,54.0,82.0
1064,251.56554460625003,252.04329873958335,63.0,127.0
1065,250.66975560625002,252.20379426875002,47.0,76.0
1066,251.78949185625004,252.27284467083336,54.0,96.0
1067,252.01343910625002,252.40161433958338,59.0,99.0
1068,252.23738635625003,252.41841038333337,63.0,107.0
1069,251.56554460625003,252.44453756250002,66.0,117.0
1070,252.46133360625004,253.01373682291668,68.0,102.0
1071,252.46133360625004,253.04546268333337,64.0,97.0
1072,252.46133360625004,253.0809209979167,59.0,96.0
1073,253.13317535625004,253.20222575833336,64.0,28.0
1074,253.35712260625002,253.68184611875003,59.0,89.0
1075,253.58106985625002,253.84420787500002,52.0,81.0
1076,253.35712260625002,253.91325827708337,68.0,102.0
1077,253.35712260625002,253.9375192291667,64.0,100.0
1078,252.46133360625004,254.12414193750004,40.0,95.0
1079,253.80501710625003,254.15960025208335,59.0,85.0
1080,252.90922810625003,254.1782625229167,47.0,79.0
1081,254.02896435625001,254.19132611250004,64.0,75.0
1082,254.25291160625002,254.75119423750002,62.0,112.0
1083,254.25291160625002,254.75306046458337,68.0,102.0
1084,254.25291160625002,254.75865914583335,59.0,70.0
1085,254.25291160625002,254.78105387083338,64.0,92.0
1086,254.92475335625002,255.0740515229167,68.0,57.0
1087,254.92475335625002,255.08338265833336,62.0,66.0
1088,254.92475335625002,255.08898133958337,59.0,70.0
1089,254.92475335625002,255.09831247500003,64.0,68.0
1090,254.70080610625004,255.24761064166668,52.0,90.0
1091,254.25291160625002,255.46595921041668,40.0,90.0
1092,254.47685885625003,255.51821356875004,47.0,89.0
1093,255.37264785625004,255.5555381104167,52.0,79.0
1094,255.14870060625003,255.6059262416667,68.0,112.0
1095,255.14870060625003,255.62085605833337,64.0,102.0
1096,255.14870060625003,255.62458851250003,62.0,97.0
1097,255.59659510625002,255.89705766666668,59.0,97.0
1098,256.04448960625,256.8357698895834,64.0,81.0
1099,256.04448960625,256.8525659333334,61.0,92.0
1100,256.04448960625,256.85629838750003,57.0,97.0
1101,256.49238410625003,257.0335899604167,52.0,52.0
1102,256.94027860625005,257.4609559625,64.0,97.0
1103,256.94027860625005,257.47401955208335,61.0,122.0
1104,257.38817310625,257.7670172041667,57.0,88.0
1105,257.61212035625005,257.9536399125,64.0,93.0
1106,257.61212035625005,257.97230218333334,61.0,112.0
1107,257.83606760625,258.14586130208335,57.0,30.0
1108,257.16422585625,258.25596870000004,52.0,77.0
1109,258.06001485625,258.59748825625,64.0,89.0
1110,258.06001485625,258.6180167541667,61.0,97.0
1111,256.04448960625,258.78784341875,45.0,76.0
1112,258.73185660625,258.8233017333334,64.0,66.0
1113,258.73185660625,258.83263286875,61.0,73.0
1114,258.50790935625,258.84383023125,52.0,63.0
1115,258.95580385625004,259.21894187500004,45.0,86.0
1116,258.95580385625004,259.2450690541667,64.0,96.0
1117,258.95580385625004,259.2525339625,61.0,117.0
1118,258.95580385625004,259.45968516875,57.0,100.0
1119,259.62764560625004,260.18191505000004,63.0,92.0
1120,260.29948735625004,260.34614303333336,68.0,31.0
1121,260.29948735625004,260.3592066229167,63.0,34.0
1122,259.62764560625004,260.4039960729167,59.0,85.0
1123,260.07554010625,260.6111472791667,56.0,65.0
1124,260.52343460625,261.0478444166667,59.0,88.0
1125,260.52343460625,261.07397159583337,63.0,97.0
1126,260.52343460625,261.08330273125,68.0,93.0
1127,261.19527635625,261.3333771604167,68.0,75.0
1128,261.19527635625,261.33524338750004,63.0,74.0
1129,261.19527635625,261.3725679291667,59.0,83.0
1130,260.97132910625004,261.82419488333335,56.0,73.0
1131,261.64317085625004,262.12465744375004,59.0,64.0
1132,261.64317085625004,262.13585480625005,63.0,90.0
1133,261.64317085625004,262.14145348750003,68.0,92.0
1134,262.09106535625006,262.2851529729167,56.0,65.0
1135,259.62764560625004,262.2907516541667,44.0,96.0
1136,262.31501260625004,262.3691331916667,59.0,48.0
1137,262.31501260625004,262.42325377708335,68.0,93.0
1138,262.31501260625004,262.43258491250003,63.0,99.0
1139,262.53895985625,262.90847281875006,43.0,66.0
1140,262.53895985625,263.0689683479167,55.0,73.0
1141,263.21080160625,263.6997531020834,61.0,85.0
1142,263.21080160625,263.9628911208334,57.0,88.0
1143,263.65869610625003,264.1812396895834,54.0,39.0
1144,263.21080160625,264.4294478916667,42.0,97.0
1145,264.33053785625003,264.5694149229167,54.0,81.0
1146,264.10659060625005,264.5731473770834,66.0,96.0
1147,264.55448510625,264.81948935208334,57.0,79.0
1148,264.10659060625005,264.94079411250004,61.0,102.0
1149,265.00237960625003,265.7283419416667,66.0,90.0
1150,265.00237960625003,265.7675327104167,63.0,90.0
1151,265.00237960625003,265.7805963,59.0,88.0
1152,265.45027410625005,265.9709514625,54.0,35.0
1153,265.00237960625003,266.62226471458337,47.0,72.0
1154,266.12211585625005,266.66518793750004,54.0,55.0
1155,265.89816860625,266.72863965833335,63.0,100.0
1156,266.34606310625,266.7323721125,59.0,72.0
1157,265.89816860625,266.73797079375004,66.0,100.0
1158,266.79395760625005,268.17123319375,52.0,37.0
1159,266.79395760625005,268.1973603729167,47.0,26.0
1160,266.79395760625005,268.29440418125,40.0,39.0
1161,266.79395760625005,270.0617212291667,68.0,30.0
1162,266.79395760625005,270.0729185916667,64.0,32.0
