,start,end,pitch,velocity
0,18.16415095,18.610045781249998,63.0,79.0
1,18.611911449999997,19.05780628125,63.0,77.0
2,19.05967195,19.50556678125,63.0,74.0
3,19.50743245,19.97198396875,63.0,75.0
4,19.955192949999997,20.40108778125,66.0,67.0
5,20.40295345,20.85071395,66.0,77.0
6,20.85071395,21.298474449999997,59.0,74.0
7,21.298474449999997,21.522354699999998,63.0,77.0
8,21.522354699999998,22.19212978125,61.0,69.0
9,22.19399545,22.520487481249997,61.0,85.0
10,22.4178757,22.865636199999997,59.0,68.0
11,22.865636199999997,25.328318949999996,61.0,74.0
12,25.328318949999996,25.774213781249998,63.0,90.0
13,25.776079449999997,26.22197428125,63.0,83.0
14,26.22383995,26.669734781249996,63.0,81.0
15,26.671600449999996,27.119360949999997,63.0,100.0
16,27.119360949999997,27.56525578125,66.0,67.0
17,27.56712145,28.014881949999996,66.0,81.0
18,28.014881949999996,28.462642449999997,59.0,70.0
19,28.462642449999997,28.729433081249997,63.0,74.0
20,28.686522699999998,29.356297781249996,61.0,65.0
21,29.358163449999996,29.649207774999997,61.0,67.0
22,29.582043699999996,30.253684449999998,59.0,65.0
23,30.253684449999998,31.384279712499996,61.0,66.0
24,31.149205449999997,31.669727031249998,59.0,73.0
25,31.596965949999998,32.083905493749995,61.0,65.0
26,32.04472645,32.49248695,63.0,100.0
27,32.49248695,32.938381781249994,68.0,73.0
28,32.940247449999994,33.388007949999995,68.0,73.0
29,33.388007949999995,33.835768449999996,71.0,93.0
30,33.835768449999996,34.9551697,70.0,93.0
31,34.9551697,35.40852720625,68.0,76.0
32,35.4029302,35.626810449999994,66.0,68.0
33,35.626810449999994,36.01300388124999,68.0,86.0
34,35.850690699999994,36.520465781249996,66.0,64.0
35,36.522331449999996,36.798450425,66.0,85.0
36,36.746211699999996,37.1939722,64.0,73.0
37,37.1939722,38.3245674625,66.0,76.0
38,38.3245674625,38.671581849999995,63.0,87.0
39,38.6305371375,38.93837248125,61.0,64.0
40,38.921581462499994,39.199566106249996,59.0,67.0
41,39.199566106249996,41.895457449999995,61.0,75.0
42,41.895457449999995,42.119337699999996,63.0,74.0
43,42.119337699999996,42.79097845,66.0,83.0
44,42.79097845,46.82082294999999,61.0,81.0
45,46.82082294999999,47.266717781249994,63.0,79.0
46,47.268583449999994,47.714478281249995,63.0,77.0
47,47.716343949999995,48.16223878125,63.0,74.0
48,48.164104449999996,48.628655968749996,63.0,75.0
49,48.61186495,49.05775978125,66.0,67.0
50,49.05962545,49.50738594999999,66.0,77.0
51,49.50738594999999,49.955146449999994,59.0,74.0
52,49.955146449999994,50.179026699999994,63.0,77.0
53,50.179026699999994,50.848801781249996,61.0,69.0
54,50.850667449999996,51.177159481249994,61.0,85.0
55,51.0745477,51.5223082,59.0,68.0
56,51.5223082,53.98499095,61.0,74.0
57,53.98499095,54.43088578125,63.0,90.0
58,54.43275145,54.87864628124999,63.0,83.0
59,54.88051194999999,55.32640678124999,63.0,81.0
60,55.32827244999999,55.776032949999994,63.0,100.0
61,55.776032949999994,56.221927781249995,66.0,67.0
62,56.223793449999995,56.671553949999996,66.0,81.0
63,56.671553949999996,57.11931445,59.0,70.0
64,57.11931445,57.386105081249994,63.0,74.0
65,57.3431947,58.01296978124999,61.0,65.0
66,58.01483544999999,58.305879774999994,61.0,67.0
67,58.23871569999999,58.910356449999995,59.0,65.0
68,58.910356449999995,60.0409517125,61.0,66.0
69,59.80587745,60.32639903124999,59.0,73.0
70,60.25363795,60.740577493749996,61.0,65.0
71,60.70139844999999,61.14915894999999,63.0,100.0
72,61.14915894999999,61.595053781249995,68.0,73.0
73,61.596919449999994,62.044679949999995,68.0,73.0
74,62.044679949999995,62.49244045,71.0,93.0
75,62.49244045,63.61184169999999,70.0,93.0
76,63.61184169999999,64.06519920625,68.0,76.0
77,64.0596022,64.28348245,66.0,68.0
78,64.28348245,64.66967588125,68.0,86.0
79,64.50736269999999,65.17713778125,66.0,64.0
80,65.17900345,65.455122425,66.0,85.0
81,65.40288369999999,65.85064419999999,64.0,73.0
82,65.85064419999999,66.9812394625,66.0,76.0
83,66.9812394625,67.32825385,63.0,87.0
84,67.2872091375,67.59504448125,61.0,64.0
85,67.5782534625,67.85623810624999,59.0,67.0
86,67.85623810624999,70.26668213125,61.0,75.0
87,70.10436895,70.62489053124999,59.0,64.0
88,70.55212945,70.99988995,63.0,68.0
89,70.99988995,71.44578478125,66.0,79.0
90,71.44765045,72.35623113125,66.0,112.0
91,72.34317145,73.23869244999999,68.0,75.0
92,73.23869244999999,74.29839229999999,70.0,95.0
93,74.13421344999999,74.3580937,71.0,100.0
94,74.3580937,75.02786878124999,75.0,100.0
95,75.02973444999999,75.261077375,75.0,90.0
96,75.2536147,75.92338978125,76.0,100.0
97,75.92525545,76.37301595,76.0,111.0
98,76.37301595,76.59689619999999,75.0,71.0
99,76.59689619999999,77.26667128125,76.0,108.0
100,77.26853695,77.71629745,76.0,98.0
101,77.71629745,78.16405795,75.0,87.0
102,78.16405795,78.60995278124999,73.0,83.0
103,78.61181844999999,78.8356987,73.0,85.0
104,78.8356987,79.50547378124999,75.0,83.0
105,79.50733944999999,79.95509994999999,75.0,86.0
106,79.95509994999999,80.1789802,73.0,76.0
107,80.1789802,80.69577044374999,75.0,86.0
108,80.6267407,80.69577044374999,75.0,60.0
109,81.07450119999999,81.52226169999999,73.0,95.0
110,81.52226169999999,82.86367753124999,71.0,74.0
111,82.86554319999999,83.08755778125,71.0,77.0
112,83.08942345,83.34315439999999,71.0,83.0
113,83.31330369999999,83.75919853125,68.0,71.0
114,83.76106419999999,84.43270494999999,68.0,74.0
115,84.43270494999999,84.87859978124999,71.0,87.0
116,84.88046544999999,85.32822594999999,71.0,98.0
117,85.32822594999999,86.22374694999999,70.0,95.0
118,86.22374694999999,88.46254945,66.0,86.0
119,88.46254945,88.73680275624999,71.0,85.0
120,88.68642969999999,89.35620478124999,75.0,86.0
121,89.35807044999999,89.5819507,75.0,85.0
122,89.5819507,90.25172578124999,76.0,81.0
123,90.25359144999999,90.70135194999999,76.0,111.0
124,90.70135194999999,90.9252322,75.0,79.0
125,90.9252322,91.59500728124999,76.0,95.0
126,91.59687294999999,92.04463344999999,76.0,98.0
127,92.04463344999999,92.49239395,75.0,81.0
128,92.49239395,92.93828878125,73.0,86.0
129,92.94015445,93.16403469999999,73.0,90.0
130,93.16403469999999,93.83380978125,75.0,98.0
131,93.83567545,94.28343595,75.0,98.0
132,94.28343595,94.50731619999999,73.0,83.0
133,94.50731619999999,94.95321103124999,75.0,98.0
134,94.95507669999999,95.4028372,75.0,108.0
135,95.4028372,95.8505977,73.0,79.0
136,95.8505977,97.1938792,71.0,93.0
137,97.1938792,97.64163969999998,75.0,76.0
138,97.64163969999998,98.08753453124999,73.0,90.0
139,98.08940019999999,98.76104095,73.0,93.0
140,98.76104095,99.20880145,71.0,76.0
141,99.20880145,99.44947271874999,73.0,100.0
142,99.43268169999999,100.10432245,71.0,93.0
143,100.10432245,102.33006526874999,68.0,93.0
144,111.29833494999998,111.74422978124998,63.0,79.0
145,111.74609544999998,112.19199028124999,63.0,77.0
146,112.19385594999999,112.63975078124999,63.0,74.0
147,112.64161644999999,113.10616796874999,63.0,75.0
148,113.08937694999999,113.53527178124999,66.0,67.0
149,113.53713744999999,113.98489794999999,66.0,77.0
150,113.98489794999999,114.43265844999999,59.0,74.0
151,114.43265844999999,114.65653869999998,63.0,77.0
152,114.65653869999998,115.32631378125,61.0,69.0
153,115.32817945,115.65467148124999,61.0,85.0
154,115.55205969999999,115.99982019999999,59.0,68.0
155,115.99982019999999,118.46250294999999,61.0,74.0
156,118.46250294999999,118.90839778124999,63.0,90.0
157,118.91026344999999,119.35615828124999,63.0,83.0
158,119.35802394999999,119.80391878124999,63.0,81.0
159,119.80578444999999,120.25354494999999,63.0,100.0
160,120.25354494999999,120.69943978124999,66.0,67.0
161,120.70130544999999,121.14906595,66.0,81.0
162,121.14906595,121.59682645,59.0,70.0
163,121.59682645,121.86361708124998,63.0,74.0
164,121.82070669999999,122.49048178124998,61.0,65.0
165,122.49234744999998,122.78339177499998,61.0,67.0
166,122.71622769999999,123.38786844999998,59.0,65.0
167,123.38786844999998,124.5184637125,61.0,66.0
168,124.28338944999999,124.80391103125,59.0,73.0
169,124.73114994999999,125.21808949374999,61.0,65.0
170,125.17891044999999,125.62667094999999,63.0,100.0
171,125.62667094999999,126.07256578124999,68.0,73.0
172,126.07443144999999,126.52219194999999,68.0,73.0
173,126.52219194999999,126.96995245,71.0,93.0
174,126.96995245,128.08935369999998,70.0,93.0
175,128.08935369999998,128.54271120624998,68.0,76.0
176,128.5371142,128.76099445,66.0,68.0
177,128.76099445,129.14718788124998,68.0,86.0
178,128.98487469999998,129.65464978125,66.0,64.0
179,129.65651545,129.93263442499997,66.0,85.0
180,129.88039569999998,130.3281562,64.0,73.0
181,130.3281562,131.45875146249998,66.0,76.0
182,131.45875146249998,131.80576585,63.0,87.0
183,131.76472113749998,132.07255648125,61.0,64.0
184,132.05576546249998,132.33375010625,59.0,67.0
185,132.33375010625,134.74419413125,61.0,75.0
186,134.58188095,135.10240253125,59.0,64.0
187,135.02964144999999,135.47740195,63.0,68.0
188,135.47740195,135.92329678125,66.0,79.0
189,135.92516245,136.83374313124997,66.0,112.0
190,136.82068345,137.71620445,68.0,75.0
191,137.71620445,138.77590429999998,70.0,95.0
192,138.61172545,138.83560569999997,71.0,100.0
193,138.83560569999997,139.50538078124998,75.0,100.0
194,139.50724645,139.73858937499998,75.0,90.0
195,139.73112669999998,140.40090178124998,76.0,100.0
196,140.40276745,140.85052795,76.0,111.0
197,140.85052795,141.0744082,75.0,71.0
198,141.0744082,141.74418328124997,76.0,108.0
199,141.74604895,142.19380944999997,76.0,98.0
200,142.19380944999997,142.64156995,75.0,87.0
201,142.64156995,143.08746478125,73.0,83.0
202,143.08933044999998,143.31321069999998,73.0,85.0
203,143.31321069999998,143.98298578125,75.0,83.0
204,143.98485144999998,144.43261195,75.0,86.0
205,144.43261195,144.65649219999997,73.0,76.0
206,144.65649219999997,145.17328244375,75.0,86.0
207,145.1042527,145.17328244375,75.0,60.0
208,145.55201319999998,145.9997737,73.0,95.0
209,145.9997737,147.34118953125,71.0,74.0
210,147.34305519999998,147.56506978124997,71.0,77.0
211,147.56693545,147.8206664,71.0,83.0
212,147.7908157,148.23671053125,68.0,71.0
213,148.23857619999998,148.91021694999998,68.0,74.0
214,148.91021694999998,149.35611178124998,71.0,87.0
215,149.35797745,149.80573794999998,71.0,98.0
216,149.80573794999998,150.70125894999998,70.0,95.0
217,150.70125894999998,152.94006144999997,66.0,86.0
218,152.94006144999997,153.21431475625,71.0,85.0
219,153.16394169999998,153.83371678125,75.0,86.0
220,153.83558244999998,154.05946269999998,75.0,85.0
221,154.05946269999998,154.72923778125,76.0,81.0
222,154.73110344999998,155.17886395,76.0,111.0
223,155.17886395,155.40274419999997,75.0,79.0
224,155.40274419999997,156.07251928124998,76.0,95.0
225,156.07438495,156.52214544999998,76.0,98.0
226,156.52214544999998,156.96990595,75.0,81.0
227,156.96990595,157.41580078125,73.0,86.0
228,157.41766644999998,157.6415467,73.0,90.0
229,157.6415467,158.31132178124997,75.0,98.0
230,158.31318745,158.76094794999997,75.0,98.0
231,158.76094794999997,158.98482819999998,73.0,83.0
232,158.98482819999998,159.43072303124998,75.0,98.0
233,159.4325887,159.88034919999998,75.0,108.0
234,159.88034919999998,160.3281097,73.0,79.0
235,160.3281097,161.6713912,71.0,93.0
236,161.6713912,162.11915169999997,75.0,76.0
237,162.11915169999997,162.56504653124998,73.0,90.0
238,162.5669122,163.23855294999998,73.0,93.0
239,163.23855294999998,163.68631344999997,71.0,76.0
240,163.68631344999997,163.92698471875,73.0,100.0
241,163.91019369999998,164.58183444999997,71.0,93.0
242,164.58183444999997,169.65645345,68.0,93.0
243,195.92506945,196.18999441249997,71.0,98.0
244,196.14894969999997,196.81872478124998,75.0,83.0
245,196.82059044999997,197.07245573125,75.0,86.0
246,197.04447069999998,197.71424578124999,76.0,108.0
247,197.71611144999997,198.16387195,76.0,98.0
248,198.16387195,198.3877522,75.0,63.0
249,198.3877522,198.90267677499997,76.0,79.0
250,198.83551269999998,198.90267677499997,76.0,81.0
251,199.50715344999998,199.95491395,75.0,81.0
252,199.95491395,200.40080878125,73.0,93.0
253,200.40267444999998,200.63215170624997,73.0,86.0
254,200.62655469999999,201.08177787499997,75.0,76.0
255,201.07431519999997,201.08177787499997,75.0,72.0
256,201.74595595,201.96983619999997,73.0,85.0
257,201.96983619999997,202.41573103124998,75.0,86.0
258,202.4175967,202.86535719999998,75.0,90.0
259,202.86535719999998,203.3131177,73.0,95.0
260,203.3131177,204.65453353125,71.0,86.0
261,204.65639919999998,204.87841378124998,71.0,77.0
262,204.88027945,205.16945810624998,71.0,73.0
263,205.10415969999997,205.55005453124997,68.0,70.0
264,205.55192019999998,205.98662101875,68.0,74.0
265,205.98662101875,206.44557553124997,71.0,81.0
266,206.4474412,206.89520169999997,71.0,75.0
267,206.89520169999997,207.56684245,70.0,93.0
268,207.56684245,210.25340544999997,66.0,76.0
269,210.25340544999997,210.51833041249998,71.0,98.0
270,210.47728569999998,211.14706078125,75.0,83.0
271,211.14892644999998,211.40079173125,75.0,86.0
272,211.37280669999998,212.04258178125,76.0,108.0
273,212.04444744999998,212.49220795,76.0,98.0
274,212.49220795,212.71608819999997,75.0,63.0
275,212.71608819999997,213.23101277499998,76.0,79.0
276,213.19369939999999,213.83548944999998,78.0,81.0
277,213.83548944999998,214.28324994999997,75.0,81.0
278,214.28324994999997,214.72914478124997,73.0,93.0
279,214.73101044999999,214.96048770624998,73.0,86.0
280,214.9548907,215.41011387499998,75.0,76.0
281,215.40265119999998,215.41011387499998,75.0,72.0
282,216.07429194999997,216.29817219999998,73.0,85.0
283,216.29817219999998,216.74406703124998,75.0,86.0
284,216.74593269999997,217.19369319999998,75.0,90.0
285,217.19369319999998,217.64145369999997,73.0,95.0
286,217.64145369999997,218.76085494999998,71.0,86.0
287,218.76085494999998,219.20674978124998,75.0,98.0
288,219.20861544999997,219.47354041249997,75.0,98.0
289,219.43249569999998,219.87839053124998,73.0,71.0
290,219.8802562,220.55189694999999,73.0,93.0
291,220.55189694999999,220.99965744999997,71.0,79.0
292,220.99965744999997,221.22353769999998,73.0,83.0
293,221.22353769999998,221.89517844999997,71.0,87.0
294,221.89517844999997,224.58174144999998,68.0,98.0
295,224.58174144999998,224.84666641249999,71.0,98.0
296,224.8056217,225.47539678124997,75.0,83.0
297,225.47726244999998,225.72912773124997,75.0,86.0
298,225.7011427,226.37091778124997,76.0,108.0
299,226.37278345,226.82054394999997,76.0,98.0
300,226.82054394999997,227.04442419999998,75.0,63.0
301,227.04442419999998,227.49031903124998,76.0,79.0
302,227.49218469999997,228.16382545,76.0,81.0
303,228.16382545,228.61158594999998,75.0,81.0
304,228.61158594999998,229.05748078124998,73.0,93.0
305,229.05934645,229.28882370624999,73.0,86.0
306,229.28322669999997,229.72912153124997,75.0,76.0
307,229.7309872,230.40262794999998,75.0,72.0
308,230.40262794999998,230.6265082,73.0,85.0
309,230.6265082,231.07240303125,75.0,86.0
310,231.07426869999998,231.5220292,75.0,90.0
311,231.5220292,231.96978969999998,73.0,95.0
312,231.96978969999998,233.31120553124998,71.0,86.0
313,233.31307119999997,233.53508578125,71.0,77.0
314,233.53695144999998,233.82613010625,71.0,73.0
315,233.76083169999998,234.20672653124998,68.0,70.0
316,234.20859219999997,234.65635269999999,68.0,74.0
317,234.65635269999999,235.10411319999997,70.0,81.0
318,235.10411319999997,235.5518737,71.0,75.0
319,235.5518737,236.22351444999998,70.0,93.0
320,236.22351444999998,238.91007745,66.0,76.0
321,238.91007745,239.1750024125,71.0,98.0
322,239.13395769999997,239.80373278124998,75.0,83.0
323,239.80559845,240.05746373124998,75.0,86.0
324,240.02947869999997,240.69925378124998,76.0,108.0
325,240.70111944999996,241.14887994999998,76.0,98.0
326,241.14887994999998,241.3727602,75.0,63.0
327,241.3727602,241.88768477499997,76.0,79.0
328,241.85037139999997,242.49216144999997,78.0,81.0
329,242.49216144999997,242.93992194999998,75.0,81.0
330,242.93992194999998,243.38581678124999,73.0,93.0
331,243.38768244999997,243.61715970625,73.0,86.0
332,243.61156269999998,244.06678587499997,75.0,76.0
333,244.05932319999997,244.06678587499997,75.0,72.0
334,244.73096395,244.95484419999997,73.0,85.0
335,244.95484419999997,245.40073903124997,75.0,86.0
336,245.40260469999998,245.85036519999997,75.0,90.0
337,245.85036519999997,246.29812569999999,73.0,95.0
338,246.29812569999999,247.41752694999997,71.0,86.0
339,247.41752694999997,247.86342178124997,75.0,98.0
340,247.86528744999998,248.1302124125,75.0,98.0
341,248.0891677,248.53506253125,73.0,71.0
342,248.53692819999998,249.0257334125,73.0,93.0
343,248.98468869999996,249.43058353124997,71.0,79.0
344,249.43244919999998,249.65632945,71.0,73.0
345,249.65632945,249.88020969999997,73.0,104.0
346,249.88020969999997,250.32797019999998,71.0,98.0
347,250.32797019999998,255.141395575,68.0,104.0
