,start,end,pitch,velocity
0,3.38805445,3.6305913874999995,51.0,67.0
1,3.6119346999999995,3.83394928125,47.0,60.0
2,3.8358149499999996,4.07462055,51.0,61.0
3,4.059695199999999,4.289172456249999,47.0,57.0
4,4.28357545,4.5410377375,51.0,68.0
5,4.5074556999999995,4.777977668749999,47.0,58.0
6,4.731335949999999,4.968275881249999,51.0,60.0
7,4.9552162,5.180962118749999,47.0,59.0
8,5.179096449999999,5.457081093749999,51.0,64.0
9,5.4029767,5.6753643375,47.0,58.0
10,5.62685695,5.897378918749999,51.0,60.0
11,5.850737199999999,6.111930824999999,47.0,52.0
12,6.07461745,6.3246170625,51.0,67.0
13,6.2984976999999995,6.54663164375,47.0,62.0
14,6.522377949999999,6.807825268749999,51.0,68.0
15,6.7462582,6.9216310624999995,47.0,67.0
16,3.38805445,7.0839442437499995,35.0,75.0
17,6.970138449999999,7.22573506875,52.0,75.0
18,7.194018699999999,7.401107931249999,49.0,47.0
19,7.41789895,7.65670455,52.0,67.0
20,7.641779199999999,7.87871913125,49.0,59.0
21,7.865659449999999,8.14364409375,52.0,69.0
22,8.0895397,8.330210968749999,49.0,61.0
23,8.31341995,8.58767325625,52.0,66.0
24,8.537300199999999,8.78170280625,49.0,60.0
25,8.76118045,9.01304573125,52.0,66.0
26,8.9850607,9.251851331249998,49.0,63.0
27,9.208940949999999,9.457074893749999,52.0,66.0
28,9.4328212,9.6828208125,49.0,64.0
29,9.65670145,9.8917757125,52.0,74.0
30,9.880581699999999,10.126849974999999,49.0,71.0
31,10.10446195,10.374983918749999,52.0,71.0
32,10.3283422,10.46080468125,49.0,63.0
33,6.970138449999999,10.554088118749998,37.0,90.0
34,10.552222449999999,10.8059534,51.0,79.0
35,10.7761027,11.014908299999998,47.0,66.0
36,10.99998295,11.22946020625,51.0,67.0
37,11.223863199999998,11.453340456249999,47.0,59.0
38,11.447743449999999,11.6902803875,51.0,64.0
39,11.6716237,11.92348898125,47.0,63.0
40,11.895503949999998,12.098861843749999,51.0,65.0
41,12.119384199999999,12.34513011875,47.0,61.0
42,12.34326445,12.541025337499999,51.0,69.0
43,12.567144699999998,12.854457687499998,47.0,63.0
44,12.791024949999999,12.986920168749998,51.0,62.0
45,13.0149052,13.2649048125,47.0,63.0
46,13.238785449999998,13.451471687499998,51.0,65.0
47,13.462665699999999,13.72199365625,47.0,70.0
48,13.68654595,13.8992321875,51.0,64.0
49,13.910426199999998,14.139903456249998,47.0,74.0
50,10.552222449999999,14.179082499999998,35.0,95.0
51,14.134306449999999,14.352589693749998,52.0,76.0
52,14.3581867,14.598857968749998,49.0,72.0
53,14.582066949999998,14.81527554375,52.0,73.0
54,14.805947199999999,15.050349806249999,49.0,69.0
55,15.029827449999999,15.261170374999999,52.0,67.0
56,15.253707699999998,15.48691629375,49.0,66.0
57,15.477587949999998,15.708930874999998,52.0,65.0
58,15.701468199999999,15.942139468749998,49.0,62.0
59,15.925348449999998,16.156691374999998,52.0,84.0
60,16.1492287,16.39736264375,49.0,83.0
61,16.37310895,16.585795187499997,52.0,83.0
62,16.5969892,16.87497384375,49.0,83.0
63,16.82086945,17.082063074999997,52.0,83.0
64,17.044749699999997,17.31900300625,49.0,83.0
65,17.268629949999998,17.468256506249997,52.0,83.0
66,14.134306449999999,17.60258465625,37.0,87.0
67,19.06153761875,19.714521681249998,47.0,51.0
68,18.613777118749997,20.292878993749998,51.0,65.0
69,19.50929811875,20.445863831249998,54.0,74.0
70,19.957058618749997,20.537281599999996,47.0,58.0
71,17.71825611875,20.906684012499998,35.0,74.0
72,20.404819118749998,20.9663854125,51.0,68.0
73,20.85257961875,21.276086425,54.0,64.0
74,20.85257961875,21.289146106249998,47.0,54.0
75,18.16601661875,21.367504193749998,42.0,63.0
76,21.300340118749997,22.11750303125,52.0,74.0
77,22.19586111875,22.7648900875,56.0,74.0
78,22.867501868749997,23.007427025,56.0,45.0
79,22.19586111875,23.0335463875,52.0,64.0
80,22.643621618749997,23.251829631249997,49.0,53.0
81,23.091382118749998,23.87496299375,56.0,77.0
82,23.091382118749998,23.906679362499997,52.0,74.0
83,23.53914261875,24.203320693749998,49.0,57.0
84,23.986903118749996,24.404812918749997,52.0,73.0
85,23.986903118749996,24.49063368125,56.0,76.0
86,21.300340118749997,24.658543868749998,37.0,81.0
87,24.434663618749997,24.664140874999998,52.0,72.0
88,21.748100618749998,24.699588581249998,44.0,62.0
89,24.88242411875,25.6827960125,51.0,64.0
90,24.88242411875,25.699587031249997,54.0,72.0
91,25.777945118749997,26.595108031249996,51.0,63.0
92,26.22570561875,26.742495862499997,47.0,59.0
93,26.673466118749996,27.468241006249997,51.0,56.0
94,26.673466118749996,27.468241006249997,59.0,73.0
95,25.777945118749997,27.485032025,54.0,71.0
96,27.568987118749998,27.610031831249998,54.0,63.0
97,27.121226618749997,27.617494506249997,47.0,56.0
98,24.88242411875,28.13615041875,35.0,93.0
99,27.79286736875,28.25182188125,47.0,74.0
100,25.330184618749996,28.473836462499996,42.0,63.0
101,28.240627868749996,28.533537862499998,59.0,57.0
102,27.568987118749998,28.546597543749996,51.0,83.0
103,28.01674761875,28.552194549999996,54.0,70.0
104,29.807789618749997,30.675325587499998,49.0,58.0
105,30.255550118749998,31.58390626875,59.0,77.0
106,31.151071118749996,31.638010662499997,49.0,56.0
107,28.912268618749998,31.753682124999997,44.0,62.0
108,28.464508118749997,31.85629390625,37.0,87.0
109,29.36002911875,32.04286078125,52.0,70.0
110,32.04659211875,33.3320378875,32.0,43.0
111,32.49435261875,33.43464966875,39.0,66.0
112,32.942113118749994,33.5111420875,44.0,58.0
113,33.165993368749994,33.75554469375,47.0,63.0
114,33.389873618749995,33.777932718749994,51.0,63.0
115,34.28539461875,34.73688645625,51.0,63.0
116,34.95703536875,35.246214025,51.0,79.0
117,34.50927486875,35.296587081249996,54.0,74.0
118,33.837634118749996,35.4066615375,39.0,68.0
119,35.18091561875,35.43464656875,58.0,60.0
120,34.06151436875,35.57643739375,46.0,60.0
121,35.40479586875,35.699571531249994,54.0,67.0
122,36.076436618749995,36.43091368125,52.0,59.0
123,36.748077368749996,36.9365099125,52.0,56.0
124,36.300316868749995,36.998076981249994,56.0,76.0
125,35.852556368749994,37.005539656249994,47.0,60.0
126,35.62867611874999,37.054047043749996,40.0,72.0
127,36.97195761875,37.2051662125,59.0,65.0
128,37.19583786875,37.4812851875,56.0,70.0
129,38.09135886875,38.378671856249994,51.0,59.0
130,37.86747861875,38.38613453124999,47.0,59.0
131,38.31523911875,38.9551635,54.0,79.0
132,37.41971811875,39.04284993125,35.0,87.0
133,38.762999618749994,39.11747668125,47.0,56.0
134,38.986879868749995,39.171581075,51.0,62.0
135,37.64359836875,39.2499391625,42.0,66.0
136,39.210760118749995,40.88239931875,52.0,55.0
137,40.10628111875,40.886130656249996,56.0,76.0
138,40.55404161875,41.02045880625,49.0,47.0
139,41.00180211875,41.843218725,52.0,64.0
140,41.00180211875,41.84881573125,56.0,63.0
141,41.449562618749994,41.968218531249995,49.0,54.0
142,39.658520618749996,42.64172495,44.0,59.0
143,41.897323118749995,42.656650299999995,52.0,63.0
144,42.345083618749996,42.662247306249995,49.0,55.0
145,41.897323118749995,42.664112974999995,61.0,79.0
146,39.210760118749995,42.675306987499994,37.0,85.0
147,41.897323118749995,42.67903832499999,56.0,60.0
148,42.735008387499995,46.38985346875,54.0,83.0
149,42.7797844375,46.39731614375,61.0,83.0
150,42.7947097875,46.404778818749996,42.0,83.0
151,42.817097812499995,46.414107162499995,66.0,83.0
152,46.82268861874999,47.31149383125,47.0,52.0
153,47.494329368749995,47.957015218749994,47.0,54.0
154,47.270449118749994,48.04656731874999,51.0,67.0
155,47.718209618749995,48.940222649999995,54.0,67.0
156,48.165970118749996,48.96634201249999,51.0,63.0
157,48.61373061875,49.07268513125,47.0,52.0
158,46.37492811875,49.490594931249994,35.0,45.0
159,49.06149111875,49.57641569374999,51.0,66.0
160,49.06149111875,49.619326075,54.0,77.0
161,46.59880836875,49.902907725,42.0,64.0
162,49.50925161874999,49.934624093749996,47.0,47.0
163,50.852533118749996,51.67342736875,56.0,73.0
164,49.957012118749994,51.707009406249995,52.0,73.0
165,51.30029361875,51.88424793749999,49.0,39.0
166,51.74805411875,52.554023018749994,56.0,74.0
167,51.74805411875,52.57081403749999,52.0,68.0
168,52.19581461874999,52.73685855625,49.0,53.0
169,52.64357511874999,52.95514179999999,52.0,65.0
170,50.404772618749995,53.074544599999996,44.0,59.0
171,49.957012118749994,53.093201287499994,37.0,85.0
172,52.64357511874999,53.12864899375,56.0,72.0
173,53.091335618749994,53.320812874999994,52.0,79.0
174,53.539096118749995,54.322676993749994,51.0,69.0
175,53.539096118749995,54.324542662499994,54.0,77.0
176,54.43461711875,55.244317356249994,51.0,67.0
177,54.43461711875,55.26670538125,54.0,63.0
178,54.88237761874999,55.471928943749994,47.0,56.0
179,55.33013811874999,56.11745033125,59.0,71.0
180,55.33013811874999,56.12491300625,51.0,64.0
181,55.33013811874999,56.154763706249994,54.0,65.0
182,55.777898618749994,56.240584468749994,47.0,59.0
183,53.539096118749995,56.65849426875,35.0,87.0
184,56.225659118749995,56.71259866249999,59.0,69.0
185,56.225659118749995,56.72006133749999,54.0,74.0
186,56.225659118749995,56.72565834375,51.0,65.0
187,53.98685661875,56.8096134375,42.0,59.0
188,56.89729986875,56.990583306249995,52.0,11.0
189,56.673419618749996,57.072672731249995,47.0,59.0
190,57.12118011875,57.89543265,61.0,63.0
191,57.12118011875,57.93088035624999,56.0,64.0
192,57.12118011875,57.93461169374999,52.0,65.0
193,58.01670111874999,58.837595368749994,56.0,71.0
194,58.01670111874999,58.841326706249994,52.0,63.0
195,58.46446161874999,59.152893387499994,49.0,46.0
196,58.912222118749995,59.962593625,52.0,81.0
197,57.12118011875,60.214458906249995,37.0,81.0
198,59.359982618749996,60.27042896875,56.0,65.0
199,59.80774311875,60.31707068749999,49.0,65.0
200,57.56894061875,60.356249731249996,44.0,59.0
201,60.25550361875,60.70139844999999,52.0,81.0
202,60.47938386874999,60.723786475,56.0,67.0
203,61.15102461874999,61.511098687499995,56.0,60.0
204,61.598785118749994,61.99057555624999,56.0,71.0
205,60.92714436874999,62.115575362499996,51.0,67.0
206,61.374904868749994,62.123038037499995,59.0,79.0
207,60.70326411874999,62.201396124999995,44.0,69.0
208,62.046545618749995,62.287216887499994,63.0,68.0
209,62.270425868749996,62.524156818749994,59.0,75.0
210,62.94206661875,63.432737499999995,51.0,63.0
211,63.16594686874999,63.91034869999999,54.0,93.0
212,62.494306118749996,64.04840818749999,39.0,76.0
213,63.61370736874999,64.1006469125,51.0,74.0
214,62.71818636875,64.2275123875,46.0,59.0
215,63.83758761874999,64.26296009375,58.0,75.0
216,64.28534811875,65.09504835624999,56.0,79.0
217,64.73310861875,65.21631682499999,52.0,59.0
218,65.40474936874999,65.6454206375,52.0,81.0
219,64.95698886874999,65.68646534999999,59.0,69.0
220,64.50922836874999,65.72377872499999,47.0,67.0
221,64.28534811875,65.78907713125,40.0,74.0
222,65.62862961875,66.01482304999999,56.0,74.0
223,65.85250986874999,66.0894498,59.0,68.0
224,66.52415061875,67.0185528375,47.0,64.0
225,66.74803086874999,67.037209525,49.0,70.0
226,66.97191111875,67.34504486875,51.0,74.0
227,66.07639011875,67.71071594374999,35.0,85.0
228,67.19579136875,67.7498949875,47.0,74.0
229,66.30027036874999,67.83758141874999,42.0,66.0
230,67.64355186875,67.89541715,51.0,73.0
231,69.21071361874999,69.90101105625,49.0,59.0
232,70.10623461875,70.71071129375,49.0,58.0
233,70.77600969999999,70.97563625625,52.0,83.0
234,70.77787536874999,71.07265103124999,49.0,74.0
235,67.86743211874999,71.10436739999999,37.0,87.0
236,70.99988995,71.25735223749999,56.0,83.0
237,71.00175561875,71.25735223749999,56.0,67.0
238,68.31519261874999,71.36742669374999,44.0,61.0
239,71.22377019999999,71.40474006874999,52.0,83.0
240,71.44765045,72.25548501875,66.0,83.0
241,71.44765045,72.2573506875,58.0,83.0
242,71.44765045,72.26294769375,61.0,83.0
243,71.44765045,72.27787304374999,46.0,83.0
244,71.44765045,72.27973871249999,54.0,83.0
245,71.44765045,72.30585807499999,49.0,83.0
246,72.34317145,73.13608066875,66.0,83.0
247,72.34317145,73.1379463375,58.0,83.0
248,72.34317145,73.14727468125,61.0,83.0
249,72.34317145,73.16593136875,46.0,83.0
250,72.34317145,73.16966270625,54.0,83.0
251,72.34317145,73.18085671875,49.0,83.0
252,73.23869244999999,74.01481064999999,66.0,83.0
253,73.23869244999999,74.01854198749999,61.0,83.0
254,73.23869244999999,74.022273325,58.0,83.0
255,71.89541095,74.12675077499999,37.0,83.0
256,73.23869244999999,74.12675077499999,49.0,83.0
257,73.23869244999999,74.12675077499999,54.0,83.0
258,73.23869244999999,74.12861644374999,46.0,83.0
259,71.44765045,74.1789895,30.0,83.0
260,74.13421344999999,74.2088402,66.0,83.0
261,74.13421344999999,74.22189988125,61.0,83.0
262,74.13421344999999,74.22563121875,58.0,83.0
263,74.13421344999999,74.26667593124999,42.0,83.0
264,74.3580937,74.54279490625,66.0,83.0
265,74.3580937,74.5483919125,61.0,83.0
266,74.3580937,74.56518293124999,58.0,83.0
267,74.3580937,74.58383961874999,42.0,83.0
268,75.02973444999999,75.84130035624999,73.0,83.0
269,75.02973444999999,75.85249436874999,64.0,83.0
270,75.02973444999999,75.8618227125,68.0,83.0
271,75.92525545,76.8021197625,73.0,83.0
272,75.47749495,76.8095824375,56.0,83.0
273,75.92525545,76.8095824375,68.0,83.0
274,75.92525545,76.81517944375,64.0,83.0
275,75.02973444999999,76.87488084374999,49.0,83.0
276,76.82077645,77.58383496875,58.0,83.0
277,76.82077645,77.60249165625,66.0,83.0
278,76.82077645,77.6080886625,61.0,83.0
279,76.82077645,78.13234158124999,42.0,83.0
280,77.71629745,78.15846094374999,58.0,84.0
281,77.71629745,78.16965495625,61.0,84.0
282,77.71629745,78.17338629375,66.0,84.0
283,77.26853695,78.186445975,49.0,84.0
284,78.61181844999999,79.290921875,71.0,84.0
285,78.61181844999999,79.29838455,47.0,84.0
286,78.61181844999999,79.36741429374999,63.0,84.0
287,78.61181844999999,79.3916679875,66.0,84.0
288,79.05957894999999,79.48308575624999,54.0,84.0
289,79.50733944999999,79.98495064999999,61.0,84.0
290,79.50733944999999,79.99427899374999,46.0,84.0
291,80.40286044999999,81.2424113875,68.0,84.0
292,80.40286044999999,81.2536054,59.0,84.0
293,80.40286044999999,81.2573367375,63.0,84.0
294,80.85062094999999,81.84875373125,51.0,84.0
295,80.40286044999999,81.93830583124999,44.0,84.0
296,81.29838145,82.022260925,68.0,84.0
297,81.29838145,82.0483802875,63.0,84.0
298,81.29838145,82.06143996875,59.0,84.0
299,82.19390245,82.97934899375,64.0,84.0
300,82.19390245,82.98681166875,59.0,84.0
301,82.19390245,82.99054300625,56.0,84.0
302,83.08942345,83.78345222499999,64.0,84.0
303,83.08942345,83.81143725624999,56.0,84.0
304,83.08942345,83.81516859374999,59.0,84.0
305,82.19390245,83.85621330625,40.0,84.0
306,83.53718395,83.88606400625,52.0,84.0
307,82.64166295,83.96442209374999,47.0,84.0
308,83.98494444999999,84.775988,66.0,84.0
309,83.98494444999999,84.78531634375,58.0,84.0
310,83.98494444999999,84.78904768125,61.0,84.0
311,83.98494444999999,85.32636028124999,42.0,84.0
312,84.43270494999999,85.34874830624999,49.0,84.0
313,84.88046544999999,85.38979301875,58.0,84.0
314,84.88046544999999,85.395390025,66.0,84.0
315,84.88046544999999,85.39725569375,61.0,84.0
316,85.32822594999999,85.76479243749999,54.0,84.0
317,85.77598644999999,86.58008968124999,63.0,84.0
318,85.77598644999999,86.58008968124999,71.0,84.0
319,85.77598644999999,86.58755235624999,66.0,84.0
320,86.67150745,87.48867036249999,71.0,84.0
321,86.67150745,87.49799870624999,66.0,84.0
322,86.67150745,87.50173004374999,63.0,84.0
323,87.11926795,87.8319534125,59.0,84.0
324,87.56702845,88.37859435624999,71.0,84.0
325,87.56702845,88.38605703124999,63.0,84.0
326,87.56702845,88.39911671249999,66.0,84.0
327,88.01478895,88.42150473749999,59.0,84.0
328,86.22374694999999,88.60247460625,54.0,84.0
329,88.01478895,88.75172810625,51.0,84.0
330,85.77598644999999,88.83381753124999,47.0,84.0
331,88.46254945,88.86366823124999,71.0,84.0
332,88.46254945,88.87672791249999,66.0,84.0
333,88.46254945,88.88419058749999,63.0,84.0
334,89.35807044999999,90.23306909374999,64.0,84.0
335,89.35807044999999,90.23306909374999,73.0,84.0
336,89.35807044999999,90.23866609999999,68.0,84.0
337,89.80583094999999,90.51291940624999,56.0,84.0
338,90.25359144999999,90.64165055,73.0,84.0
339,89.35807044999999,90.65097889375,49.0,84.0
340,90.25359144999999,90.65471023125,68.0,84.0
341,90.25359144999999,90.67523258749999,64.0,84.0
342,90.9252322,91.01851563749999,58.0,84.0
343,91.14911244999999,91.95694701874999,66.0,84.0
344,91.14911244999999,91.96067835624999,61.0,84.0
345,91.14911244999999,91.96440969374999,58.0,84.0
346,91.14911244999999,92.51851331249999,42.0,84.0
347,91.59687294999999,92.52224464999999,49.0,84.0
348,92.04463344999999,92.52970732499999,61.0,84.0
349,92.04463344999999,92.53157299374999,58.0,84.0
350,92.04463344999999,92.53716999999999,66.0,84.0
351,92.49239395,92.97746782499999,54.0,84.0
352,92.94015445,93.49798940624999,63.0,84.0
353,92.94015445,93.678959275,47.0,84.0
354,93.61179519999999,93.79089939999999,49.0,84.0
355,92.94015445,94.3095553125,71.0,84.0
356,93.83567545,94.3319433375,46.0,84.0
357,92.94015445,94.33567467499999,66.0,84.0
358,93.83567545,94.41216709374999,61.0,84.0
359,94.73119644999998,95.55395636875,68.0,84.0
360,94.73119644999998,95.56141904374999,59.0,84.0
361,94.73119644999998,95.56888171874999,63.0,84.0
362,95.62671744999999,96.04276158124999,68.0,84.0
363,95.62671744999999,96.06141826874999,63.0,84.0
364,95.62671744999999,96.07820928749999,59.0,84.0
365,95.17895694999999,96.119254,51.0,84.0
366,94.73119644999998,96.13604501875,44.0,84.0
367,96.52223844999999,97.25917760624999,55.0,84.0
368,97.41775944999999,98.19574331874999,63.0,84.0
369,97.41775944999999,98.21999701249999,58.0,84.0
370,97.41775944999999,98.22559401874999,55.0,84.0
371,97.86551994999999,98.48305630624999,51.0,84.0
372,98.31328045,98.80581699999999,63.0,84.0
373,98.31328045,99.09499565624999,58.0,84.0
374,98.31328045,99.10618966874999,55.0,84.0
375,98.76104095,99.22559246875,51.0,84.0
376,96.52223844999999,99.63230825624998,39.0,84.0
377,99.20880145,99.6416366,63.0,84.0
378,99.20880145,99.6602932875,58.0,84.0
379,99.20880145,99.6901439875,55.0,84.0
380,96.96999894999999,99.69947233124999,46.0,84.0
381,97.64163969999998,99.70133799999999,43.0,84.0
382,99.65656195,100.09312843749998,51.0,84.0
383,100.10432245,100.5931276625,60.0,84.0
384,100.10432245,100.63603804374999,63.0,84.0
385,100.10432245,100.65469473124999,68.0,84.0
386,100.99984344999999,101.68827521875,68.0,84.0
387,100.99984344999999,101.73864827499999,60.0,84.0
388,100.99984344999999,101.74051394374999,63.0,84.0
389,101.44760394999999,102.43454271875,56.0,84.0
390,101.89536444999999,102.68827366874999,68.0,84.0
391,101.89536444999999,102.70693035624998,60.0,84.0
392,101.89536444999999,102.71439303125,63.0,84.0
393,100.10432245,103.33752639375,44.0,84.0
394,101.89536444999999,103.37483976875,48.0,84.0
395,102.79088544999999,103.41401881249999,68.0,84.0
396,100.55208294999998,103.42148148749999,51.0,84.0
397,102.79088544999999,103.56140664374999,63.0,84.0
398,102.79088544999999,103.59685434999999,60.0,84.0
399,103.23864594999999,103.75170485624999,56.0,84.0
400,103.91028669999999,104.08752523124998,47.0,84.0
401,104.13416695,104.36177853749999,51.0,84.0
402,104.35804719999999,104.60804681249999,47.0,84.0
403,104.58192745,104.78715101249999,51.0,84.0
404,104.80580769999999,105.09498635624999,47.0,84.0
405,105.02968795,105.24983686249999,51.0,84.0
406,105.25356819999999,105.5110304875,47.0,84.0
407,105.47744845,105.74423908124999,51.0,84.0
408,105.70132869999999,105.96811933125,47.0,84.0
409,105.92520894999998,106.12856684375,51.0,84.0
410,106.14908919999999,106.44759619999999,47.0,84.0
411,106.37296944999999,106.574461675,51.0,84.0
412,106.59684969999999,106.86364033125,47.0,84.0
413,106.82072994999999,107.06699822499999,51.0,84.0
414,103.68640644999999,107.27595312499999,35.0,84.0
415,107.0446102,107.31140083125,47.0,84.0
416,107.4923707,107.75356432499999,49.0,84.0
417,107.71625094999999,107.97557890624999,52.0,84.0
418,107.9401312,108.19199648124999,49.0,84.0
419,108.16401144999999,108.3916230375,52.0,84.0
420,108.3878917,108.66587634374999,49.0,84.0
421,108.61177194999999,108.85244321875,52.0,84.0
422,108.83565219999998,109.12296518749999,49.0,84.0
423,109.05953244999999,109.33751709375,52.0,84.0
424,109.28341269999999,109.53714364999999,49.0,84.0
425,109.50729295,109.77781491875,52.0,84.0
426,109.73117319999999,109.99982949999999,49.0,84.0
427,109.95505345,110.19385904999999,52.0,84.0
428,110.17893369999999,110.38602293125,49.0,84.0
429,110.40281395,110.6975896125,52.0,84.0
430,110.62669419999999,110.76102234999999,49.0,84.0
431,107.26849044999999,110.82445508749998,37.0,84.0
432,110.85057445,111.05766368124999,51.0,84.0
433,111.07445469999999,111.30766329375,47.0,84.0
434,111.29833494999998,111.50355851249999,51.0,84.0
435,111.52221519999999,111.69945373124999,47.0,84.0
436,111.74609544999998,111.99982639999999,51.0,84.0
437,111.96997569999999,112.20318429374998,47.0,84.0
438,112.19385594999999,112.44385556249999,51.0,84.0
439,112.4177362,112.66773581249998,47.0,84.0
440,112.64161644999999,112.88042204999999,51.0,84.0
441,112.8654967,113.10243663124999,47.0,84.0
442,113.08937694999999,113.335645225,51.0,85.0
443,113.3132572,113.57445082499999,47.0,85.0
444,113.53713744999999,113.783405725,51.0,85.0
445,113.7610177,114.00915164374999,47.0,85.0
446,113.98489794999999,114.25355425,51.0,85.0
447,114.20877819999998,114.39721074375,47.0,85.0
448,110.85057445,114.44758379999999,35.0,84.0
449,114.43265844999999,114.65467303124998,52.0,85.0
450,114.65653869999998,114.88788162499999,49.0,85.0
451,114.88041894999999,115.11735888124998,52.0,85.0
452,115.10429919999999,115.37482116874999,49.0,85.0
453,115.32817945,115.59683575,52.0,85.0
454,115.55205969999999,115.7722086125,49.0,85.0
455,115.77593995,116.03899924374998,52.0,85.0
456,115.99982019999999,116.24422280625,49.0,85.0
457,116.22370045,116.47370006249999,52.0,85.0
458,116.44758069999999,116.70317731875,49.0,85.0
459,116.67146095,116.90653521249999,52.0,85.0
460,116.89534119999999,117.13601246875,49.0,85.0
461,117.11922144999998,117.37295239999999,52.0,85.0
462,117.34310169999999,117.58563863749998,49.0,85.0
463,117.56698194999998,117.83190691249999,52.0,85.0
464,117.79086219999999,117.9289216875,49.0,85.0
465,114.43265844999999,118.09869754374999,37.0,85.0
466,118.01474244999999,118.27966741249999,51.0,85.0
467,118.46436861874999,118.9886215375,47.0,59.0
468,118.68824886875,119.50541178124999,51.0,61.0
469,118.91212911874999,119.68451598124999,54.0,61.0
470,119.13600936875,119.86921718749998,47.0,57.0
471,119.80765011874999,120.58563398749999,59.0,72.0
472,119.58376986874998,120.60988768124999,51.0,66.0
473,120.25541061874999,120.77033519374999,47.0,58.0
474,118.01660811874999,121.14720028125,35.0,60.0
475,120.70317111874999,121.17145397499999,51.0,71.0
476,120.70317111874999,121.19570766874999,54.0,73.0
477,120.70317111874999,121.25727473749998,59.0,71.0
478,121.15093161875,121.55391606874998,47.0,58.0
479,118.24048836875,121.6117518,42.0,61.0
480,121.59869211875,122.02779593124998,52.0,53.0
481,122.04645261875,122.55951152499999,49.0,64.0
482,122.27033286874999,123.24607762499998,52.0,81.0
483,122.49421311874998,123.35242074374999,56.0,65.0
484,122.71809336874999,123.48674889374999,49.0,64.0
485,123.38973411874998,124.15838964374998,52.0,54.0
486,123.38973411874998,124.18824034375,61.0,74.0
487,123.38973411874998,124.22182238124999,56.0,44.0
488,123.83749461874999,124.30018046874999,49.0,51.0
489,124.28525511874999,124.60801581249999,52.0,72.0
490,124.28525511874999,124.68823956874999,61.0,67.0
491,124.28525511874999,124.74234396249999,56.0,74.0
492,121.82257236874999,124.77406033124998,44.0,63.0
493,121.59869211875,124.8057767,37.0,90.0
494,124.73301561874999,125.22368649999999,52.0,74.0
495,124.95689586875,125.23114917499998,56.0,72.0
496,125.62853661874999,126.24980431249999,56.0,58.0
497,125.40465636874998,126.41398316249999,51.0,64.0
498,125.85241686874998,126.43077418124999,59.0,67.0
499,125.18077611874999,126.52778895624999,44.0,61.0
500,126.30017736874998,126.813236275,63.0,64.0
501,126.74793786874999,127.01659416874999,59.0,61.0
502,127.41957861875,127.90092115624999,51.0,60.0
503,126.97181811875,128.559502225,39.0,79.0
504,128.09121936875,128.59681559999999,51.0,65.0
505,127.64345886874999,128.60987528125,54.0,75.0
506,128.53897986874998,128.783382475,58.0,69.0
507,127.19569836874999,128.798307825,46.0,61.0
508,129.21062061875,129.60800806249998,52.0,71.0
509,128.76286011874998,130.007261175,56.0,75.0
510,129.88226136875,130.0893506,52.0,63.0
511,128.98674036875,130.19942505625,47.0,61.0
512,128.76286011874998,130.23860409999998,40.0,76.0
513,129.43450086874998,130.31323085,59.0,81.0
514,130.33002186874998,130.6154691875,56.0,71.0
515,131.00166261874998,131.49419916875,47.0,60.0
516,130.55390211875,132.18076526874998,35.0,93.0
517,131.22554286874998,132.1900936125,51.0,75.0
518,131.67330336875,132.30949641249998,47.0,65.0
519,130.77778236875,132.36360080625,42.0,61.0
520,132.12106386874999,132.37292914999998,54.0,61.0
521,132.34494411875,133.74606135,52.0,81.0
522,133.01658486875,133.9997923,56.0,74.0
523,133.91210586875,134.0594937,52.0,31.0
524,133.46434536874997,134.275911275,49.0,59.0
525,134.13598611875,134.932626675,61.0,76.0
526,134.13598611875,134.94568635624998,52.0,72.0
527,134.13598611875,134.94941769374998,56.0,64.0
528,134.58374661874998,135.19941730624998,49.0,58.0
529,135.2535217,135.45314825625,52.0,86.0
530,135.47740195,135.73486423749998,56.0,86.0
531,132.34494411875,135.76098359999997,37.0,83.0
532,135.47926761875,135.76098359999997,49.0,65.0
533,132.79270461874998,135.76471493749997,44.0,65.0
534,135.03150711875,135.77590895,61.0,74.0
535,135.70128219999998,135.88225206874998,52.0,86.0
536,135.92516245,136.73299701874998,66.0,86.0
537,135.92516245,136.7348626875,58.0,86.0
538,135.92516245,136.74045969374998,61.0,86.0
539,135.92516245,136.75538504374998,46.0,86.0
540,135.92516245,136.7572507125,54.0,86.0
541,135.92516245,136.783370075,49.0,86.0
542,136.82068345,137.61359266875,66.0,86.0
543,136.82068345,137.6154583375,58.0,86.0
544,136.82068345,137.62478668125,61.0,86.0
545,136.82068345,137.64344336874998,46.0,86.0
546,136.82068345,137.64717470624998,54.0,86.0
547,136.82068345,137.65836871874998,49.0,86.0
548,137.71620445,138.49232264999998,66.0,86.0
549,137.71620445,138.49605398749998,61.0,86.0
550,137.71620445,138.49978532499998,58.0,86.0
551,136.37292294999997,138.604262775,37.0,86.0
552,137.71620445,138.604262775,49.0,86.0
553,137.71620445,138.604262775,54.0,86.0
554,137.71620445,138.60612844374998,46.0,86.0
555,135.92516245,138.6565015,30.0,86.0
556,138.61172545,138.6863522,66.0,86.0
557,138.61172545,138.69941188125,61.0,86.0
558,138.61172545,138.70314321875,58.0,86.0
559,138.61172545,138.74418793125,42.0,86.0
560,138.83560569999997,139.02030690625,66.0,86.0
561,138.83560569999997,139.02590391249998,61.0,86.0
562,138.83560569999997,139.04269493125,58.0,86.0
563,138.83560569999997,139.06135161875,42.0,86.0
564,139.50724645,140.31881235625,73.0,86.0
565,139.50724645,140.33000636875,64.0,86.0
566,139.50724645,140.33933471249998,68.0,86.0
567,140.40276745,141.27963176249997,73.0,86.0
568,139.95500694999998,141.28709443749997,56.0,86.0
569,140.40276745,141.28709443749997,68.0,86.0
570,140.40276745,141.29269144375,64.0,86.0
571,139.50724645,141.35239284374998,49.0,86.0
572,141.29828845,142.06134696875,58.0,86.0
573,141.29828845,142.08000365625,66.0,86.0
574,141.29828845,142.08560066249998,61.0,86.0
575,141.29828845,142.60985358124998,42.0,86.0
576,142.19380944999997,142.63597294374998,58.0,86.0
577,142.19380944999997,142.64716695624998,61.0,86.0
578,142.19380944999997,142.65089829374998,66.0,86.0
579,141.74604895,142.663957975,49.0,86.0
580,143.08933044999998,143.768433875,71.0,86.0
581,143.08933044999998,143.77589655,47.0,86.0
582,143.08933044999998,143.84492629374998,63.0,86.0
583,143.08933044999998,143.8691799875,66.0,86.0
584,143.53709095,143.96059775625,54.0,86.0
585,143.98485144999998,144.46246265,61.0,86.0
586,143.98485144999998,144.47179099374998,46.0,86.0
587,144.88037244999998,145.7199233875,68.0,86.0
588,144.88037244999998,145.7311174,59.0,86.0
589,144.88037244999998,145.7348487375,63.0,86.0
590,145.32813295,146.32626573124998,51.0,86.0
591,144.88037244999998,146.41581783125,44.0,86.0
592,145.77589344999998,146.49977292499997,68.0,86.0
593,145.77589344999998,146.5258922875,63.0,86.0
594,145.77589344999998,146.53895196874998,59.0,86.0
595,146.67141445,147.45686099374998,64.0,86.0
596,146.67141445,147.46432366874998,59.0,86.0
597,146.67141445,147.46805500624998,56.0,86.0
598,147.56693545,148.26096422499998,64.0,86.0
599,147.56693545,148.28894925625,56.0,86.0
600,147.56693545,148.29268059375,59.0,86.0
601,146.67141445,148.33372530625,40.0,86.0
602,148.01469594999998,148.36357600624999,52.0,86.0
603,147.11917494999997,148.44193409374998,47.0,86.0
604,148.46245645,149.25349999999997,66.0,86.0
605,148.46245645,149.26282834375,58.0,86.0
606,148.46245645,149.26655968125,61.0,86.0
607,148.46245645,149.80387228125,42.0,86.0
608,148.91021694999998,149.82626030625,49.0,86.0
609,149.35797745,149.86730501875,58.0,86.0
610,149.35797745,149.87290202499997,66.0,86.0
611,149.35797745,149.87476769375,61.0,86.0
612,149.80573794999998,150.2423044375,54.0,86.0
613,150.25349845,151.05760168125,63.0,86.0
614,150.25349845,151.05760168125,71.0,86.0
615,150.25349845,151.06506435625,66.0,86.0
616,151.14901945,151.96618236249998,71.0,86.0
617,151.14901945,151.97551070625,66.0,86.0
618,151.14901945,151.97924204375,63.0,86.0
619,151.59677994999998,152.30946541249997,59.0,86.0
620,152.04454045,152.85610635625,71.0,86.0
621,152.04454045,152.86356903125,63.0,86.0
622,152.04454045,152.87662871249998,66.0,86.0
623,152.49230095,152.89901673749998,59.0,86.0
624,150.70125894999998,153.07998660624997,54.0,86.0
625,152.49230095,153.22924010625,51.0,86.0
626,150.25349845,153.31132953124998,47.0,86.0
627,152.94006144999997,153.34118023124998,71.0,86.0
628,152.94006144999997,153.3542399125,66.0,86.0
629,152.94006144999997,153.3617025875,63.0,86.0
630,153.83558244999998,154.71058109375,64.0,86.0
631,153.83558244999998,154.71058109375,73.0,86.0
632,153.83558244999998,154.71617809999998,68.0,86.0
633,154.28334295,154.99043140625,56.0,86.0
634,154.73110344999998,155.11916255,73.0,86.0
635,153.83558244999998,155.12849089374998,49.0,86.0
636,154.73110344999998,155.13222223124998,68.0,86.0
637,154.73110344999998,155.1527445875,64.0,86.0
638,155.40274419999997,155.4960276375,58.0,86.0
639,155.62662444999998,156.43445901874998,66.0,86.0
640,155.62662444999998,156.43819035624998,61.0,86.0
641,155.62662444999998,156.44192169374998,58.0,86.0
642,155.62662444999998,156.9960253125,42.0,86.0
643,156.07438495,156.99975665,49.0,86.0
644,156.52214544999998,157.007219325,61.0,86.0
645,156.52214544999998,157.00908499374998,58.0,86.0
646,156.52214544999998,157.014682,66.0,86.0
647,156.96990595,157.45497982499998,54.0,86.0
648,157.41766644999998,157.97550140624998,63.0,86.0
649,157.41766644999998,158.15647127499997,47.0,86.0
650,158.08930719999998,158.2684114,49.0,86.0
651,157.41766644999998,158.7870673125,71.0,86.0
652,158.31318745,158.8094553375,46.0,86.0
653,157.41766644999998,158.813186675,66.0,86.0
654,158.31318745,158.88967909374998,61.0,86.0
655,159.20870845,160.03146836874998,68.0,86.0
656,159.20870845,160.03893104374998,59.0,86.0
657,159.20870845,160.04639371874998,63.0,86.0
658,160.10422945,160.52027358125,68.0,86.0
659,160.10422945,160.53893026875,63.0,86.0
660,160.10422945,160.55572128749998,59.0,86.0
661,159.65646894999998,160.59676599999997,51.0,86.0
662,159.20870845,160.61355701875,44.0,86.0
663,160.99975045,161.73668960625,55.0,86.0
664,161.89527145,162.67325531875,63.0,86.0
665,161.89527145,162.69750901249998,58.0,86.0
666,161.89527145,162.70310601875,55.0,86.0
667,162.34303194999998,162.96056830625,51.0,86.0
668,162.79079245,163.28332899999998,63.0,86.0
669,162.79079245,163.57250765625,58.0,86.0
670,162.79079245,163.58370166875,55.0,86.0
671,163.23855294999998,163.70310446874998,51.0,86.0
672,160.99975045,164.10982025624998,39.0,86.0
673,163.68631344999997,164.1191486,63.0,86.0
674,163.68631344999997,164.1378052875,58.0,86.0
675,163.68631344999997,164.16765598749998,55.0,86.0
676,161.44751094999998,164.17698433125,46.0,86.0
677,162.11915169999997,164.17884999999998,43.0,86.0
678,164.13407395,164.57064043749997,51.0,86.0
679,164.58183444999997,165.07063966249999,60.0,86.0
680,164.58183444999997,165.11355004375,63.0,86.0
681,164.58183444999997,165.13220673125,68.0,86.0
682,165.47735544999998,166.16578721874998,68.0,86.0
683,165.47735544999998,166.216160275,60.0,86.0
684,165.47735544999998,166.21802594374998,63.0,86.0
685,165.92511595,166.91205471875,56.0,86.0
686,166.37287644999998,167.16578566874998,68.0,86.0
687,166.37287644999998,167.18444235624997,60.0,86.0
688,166.37287644999998,167.19190503124997,63.0,86.0
689,164.58183444999997,167.81503839374997,44.0,86.0
690,166.37287644999998,167.85235176875,48.0,86.0
691,167.26839744999998,167.89153081249998,68.0,86.0
692,165.02959495,167.89899348749998,51.0,86.0
693,167.26839744999998,168.03891864374998,63.0,86.0
694,167.26839744999998,168.07436635,60.0,86.0
695,167.71615795,168.22921685625,56.0,86.0
696,168.16391844999998,168.22921685625,56.0,86.0
697,168.16391844999998,168.96988735,64.0,86.0
698,168.16391844999998,168.99040970624998,59.0,86.0
699,169.05943944999999,169.8542143375,64.0,86.0
700,169.05943944999999,169.88219936874998,56.0,86.0
701,169.05943944999999,169.88219936874998,59.0,86.0
702,169.50719994999997,170.19376605,52.0,86.0
703,169.95496045,170.70122794999997,64.0,86.0
704,169.95496045,170.71988463749997,56.0,86.0
705,169.95496045,170.72361597499997,59.0,86.0
706,170.40272094999997,170.89339183124997,52.0,86.0
707,168.61167895,171.29077927499998,47.0,86.0
708,170.85048145,171.30570462499998,64.0,86.0
709,170.85048145,171.31316729999998,59.0,86.0
710,170.85048145,171.32249564375,56.0,86.0
711,168.16391844999998,171.41577908124998,40.0,86.0
712,171.29824194999998,171.46055513124998,52.0,86.0
713,171.74600245,172.52585198749998,63.0,86.0
714,171.74600245,172.52771765625,58.0,86.0
715,171.74600245,172.53144899375,54.0,86.0
716,172.64152345,173.43443266875,58.0,86.0
717,172.64152345,173.43629833749998,63.0,86.0
718,172.64152345,173.44749234999998,54.0,86.0
719,173.08928394999998,173.5930145125,51.0,86.0
720,173.53704445,174.30010296875,63.0,86.0
721,173.53704445,174.31316264999998,54.0,86.0
722,173.53704445,174.31316264999998,58.0,86.0
723,173.98480494999998,174.36726704375,51.0,86.0
724,174.43256545,174.90271397499998,63.0,86.0
725,171.74600245,174.91017664999998,39.0,86.0
726,174.43256545,174.91390798749998,58.0,86.0
727,174.43256545,174.91763932499998,54.0,86.0
728,172.19376294999998,175.27771339375,46.0,86.0
729,174.88032594999999,175.28144473125,51.0,85.0
730,175.32808644999997,176.10607031874997,56.0,85.0
731,175.32808644999997,176.10980165624997,64.0,85.0
732,175.32808644999997,176.12099566875,59.0,85.0
733,176.22360744999997,177.0183823375,64.0,85.0
734,176.22360744999997,177.03517335624997,56.0,85.0
735,176.22360744999997,177.04077036249998,59.0,85.0
736,176.67136795,177.29263564374997,52.0,85.0
737,177.11912844999998,177.84860493124998,64.0,85.0
738,177.11912844999998,177.86726161874998,59.0,85.0
739,177.11912844999998,177.872858625,56.0,85.0
740,177.56688895,178.05942549999997,52.0,85.0
741,178.01464944999998,178.52211135,64.0,85.0
742,178.01464944999998,178.5407680375,59.0,85.0
743,178.01464944999998,178.544499375,56.0,85.0
744,178.46240995,178.59487243125,52.0,85.0
745,175.77584695,178.63405147499998,47.0,85.0
746,175.32808644999997,178.7721109625,40.0,85.0
747,178.91017044999998,179.6713633,63.0,85.0
748,178.91017044999998,179.68069164374998,54.0,85.0
749,178.91017044999998,179.68069164374998,58.0,85.0
750,179.80569144999998,180.63591404374998,63.0,85.0
751,179.80569144999998,180.6452423875,54.0,85.0
752,179.80569144999998,180.648973725,58.0,85.0
753,180.25345194999997,180.82807792499997,51.0,85.0
754,180.70121244999999,181.42882326249998,63.0,85.0
755,180.70121244999999,181.44001727499997,54.0,85.0
756,180.70121244999999,181.44374861249997,58.0,85.0
757,181.59673345,182.484791775,63.0,85.0
758,181.59673345,182.4885231125,58.0,85.0
759,178.91017044999998,182.49225445,39.0,85.0
760,179.35793095,182.49225445,46.0,85.0
761,181.59673345,182.49225445,54.0,85.0
762,181.14897294999997,182.58180654999998,51.0,85.0
763,182.49225445,183.05755208124998,64.0,85.0
764,182.49225445,183.27770099375,61.0,85.0
765,182.49225445,183.28889500625,57.0,85.0
766,183.38777545,183.42322315624997,64.0,85.0
767,183.61165569999997,184.16949065625,64.0,85.0
768,183.38777545,184.20493836249997,57.0,85.0
769,183.38777545,184.21426670625,61.0,85.0
770,184.28329645,185.04075796249998,61.0,85.0
771,184.28329645,185.04822063749998,57.0,85.0
772,184.50717669999997,185.16016076249997,64.0,85.0
773,185.17881745,185.5706078875,64.0,85.0
774,185.17881745,185.61165259999999,61.0,85.0
775,185.17881745,185.64896597499998,57.0,85.0
776,182.49225445,185.71239871249998,45.0,85.0
777,186.07433844999997,186.83179996249999,68.0,85.0
778,186.07433844999997,186.84485964374997,61.0,85.0
779,186.07433844999997,186.85791932499998,65.0,85.0
780,186.96985944999997,187.80381338125,68.0,85.0
781,186.96985944999997,187.81127605625,61.0,85.0
782,186.96985944999997,187.83179841249998,65.0,85.0
783,187.86538044999998,188.66948368124997,61.0,85.0
784,187.86538044999998,188.67134934999999,68.0,85.0
785,187.86538044999998,188.69187170624997,65.0,85.0
786,188.76090144999998,189.52769130624998,68.0,85.0
787,188.76090144999998,189.55381066874997,65.0,85.0
788,188.76090144999998,189.559407675,61.0,85.0
789,186.07433844999997,189.65642244999998,49.0,85.0
790,189.65642244999998,190.37470491874998,64.0,85.0
791,189.65642244999998,190.410152625,57.0,85.0
792,189.65642244999998,190.410152625,61.0,85.0
793,190.55194344999998,190.93067420625,64.0,85.0
794,190.55194344999998,190.95492789999997,61.0,85.0
795,190.55194344999998,190.98850993749997,57.0,85.0
796,189.65642244999998,191.49410616875,45.0,85.0
797,191.44746444999998,192.19746328749997,68.0,85.0
798,191.44746444999998,192.20679163124998,61.0,85.0
799,191.44746444999998,192.21611997499997,65.0,85.0
800,192.34298545,192.74223856249998,68.0,85.0
801,192.34298545,192.76835792499998,61.0,85.0
802,192.34298545,192.77955193749997,65.0,85.0
803,191.44746444999998,192.97917849374997,49.0,85.0
804,193.23850645,193.94746057499998,62.0,85.0
805,193.23850645,193.95678891875,55.0,85.0
806,193.23850645,193.95865458749998,59.0,85.0
807,193.23850645,193.99596796249998,43.0,85.0
808,194.13402745,194.92133966249997,62.0,85.0
809,194.13402745,194.94186201875,55.0,85.0
810,194.13402745,194.94372768749997,59.0,85.0
811,194.13402745,194.9959664125,43.0,85.0
812,195.02954845,195.85790537499997,59.0,85.0
813,195.02954845,195.86536804999997,55.0,85.0
814,195.47730894999998,195.93812913124998,62.0,84.0
815,195.92506945,195.93812913124998,62.0,84.0
816,195.92506945,196.39521797499998,59.0,84.0
817,195.92506945,196.40081498125,55.0,84.0
818,195.02954845,196.47357606249997,43.0,85.0
819,196.82059044999997,197.64335036875,64.0,84.0
820,196.82059044999997,197.65454438125,68.0,84.0
821,196.82059044999997,198.24969271249998,49.0,84.0
822,198.3877522,198.58551308749998,46.0,83.0
823,197.71611144999997,198.61163244999997,64.0,84.0
824,197.71611144999997,198.61163244999997,68.0,84.0
825,198.61163244999997,200.46237584999997,45.0,83.0
826,200.40267444999998,201.08924054999997,59.0,82.0
827,200.40267444999998,201.10416589999997,63.0,82.0
828,201.29819544999998,202.141477725,59.0,82.0
829,201.29819544999998,202.15080606874997,63.0,82.0
830,200.40267444999998,202.35602963124998,44.0,82.0
831,202.19371644999998,202.98476,59.0,82.0
832,202.19371644999998,203.00155101874998,63.0,82.0
833,203.08923744999998,203.8989376875,63.0,82.0
834,203.08923744999998,203.9064003625,59.0,82.0
835,202.19371644999998,204.09296723749998,42.0,82.0
836,203.98475845,204.85229441874998,59.0,82.0
837,203.98475845,204.85229441874998,63.0,82.0
838,204.88027945,205.783263125,63.0,82.0
839,204.88027945,205.81497949374997,59.0,82.0
840,205.77580045,205.81497949374997,59.0,82.0
841,203.98475845,205.87654656249998,41.0,82.0
842,205.77580045,206.4362471875,56.0,82.0
843,205.77580045,207.43064863125,40.0,82.0
844,206.67132145,207.43251429999998,59.0,82.0
845,206.67132145,207.43997697499998,56.0,82.0
846,207.56684245,208.78698981249997,63.0,82.0
847,207.56684245,208.98101936249998,66.0,82.0
848,208.46236344999997,209.48288425624997,59.0,81.0
849,209.1340042,210.04445055,66.0,81.0
850,209.35788444999997,210.15639067499998,71.0,81.0
851,208.91012394999998,210.17504736249998,63.0,81.0
852,208.01460294999998,210.20116672499998,54.0,81.0
853,207.56684245,210.25340544999997,47.0,82.0
854,210.25340544999997,210.33736054374998,63.0,81.0
855,210.25340544999997,210.34295755,59.0,81.0
856,210.25340544999997,210.3840022625,44.0,81.0
857,210.47728569999998,210.56870346875,63.0,81.0
858,210.47728569999998,210.57989748125,59.0,81.0
859,210.47728569999998,210.60041983749997,44.0,81.0
860,211.14892644999998,211.902656625,68.0,81.0
861,211.14892644999998,211.90452229374998,64.0,81.0
862,211.14892644999998,212.31870075624997,49.0,81.0
863,212.04444744999998,212.65825246875,68.0,81.0
864,212.04444744999998,212.66198380625,64.0,81.0
865,212.93996844999998,213.7272806625,58.0,81.0
866,212.93996844999998,213.74407168124998,61.0,81.0
867,212.93996844999998,214.26086192499997,42.0,81.0
868,213.83548944999998,214.28884695624998,66.0,81.0
869,213.83548944999998,214.29071262499997,58.0,81.0
870,213.38772894999997,214.29817529999997,49.0,81.0
871,213.83548944999998,214.30563797499997,61.0,81.0
872,214.28324994999997,214.65824936874998,54.0,81.0
873,214.73101044999999,215.36906916249998,47.0,81.0
874,214.73101044999999,215.46608393749997,63.0,81.0
875,214.73101044999999,216.04070991249998,66.0,81.0
876,215.62653145,216.04257558125,46.0,81.0
877,215.62653145,216.04444124999998,61.0,81.0
878,216.52205245,217.30563332499997,59.0,81.0
879,216.52205245,217.33361835624999,63.0,81.0
880,217.41757345,217.87279662499998,68.0,81.0
881,217.41757345,217.89518464999998,63.0,81.0
882,217.41757345,217.90264732499998,59.0,81.0
883,216.96981294999998,217.91757267499997,51.0,81.0
884,216.52205245,217.94182636875,44.0,81.0
885,218.31309445,218.65451183124998,63.0,81.0
886,218.31309445,219.08548131249998,55.0,81.0
887,218.31309445,219.08548131249998,58.0,81.0
888,218.31309445,219.63212225624997,39.0,81.0
889,219.20861544999997,219.63212225624997,58.0,81.0
890,219.20861544999997,219.72727136249998,55.0,81.0
891,219.62465958124997,220.12092746874998,64.0,81.0
892,219.65637594999998,220.12092746874998,64.0,81.0
893,219.62465958124997,220.12652447499997,59.0,81.0
894,219.62465958124997,220.14331549374998,56.0,81.0
895,219.62465958124997,220.21794224374997,40.0,81.0
896,220.55189694999999,221.126522925,61.0,81.0
897,220.55189694999999,221.15450795624997,58.0,81.0
898,220.55189694999999,221.20861234999998,42.0,81.0
899,221.22353769999998,221.64331316874998,42.0,81.0
900,221.22353769999998,221.71420858124998,58.0,81.0
901,221.22353769999998,221.73659660624998,55.0,81.0
902,221.89517844999997,222.59666989999997,44.0,81.0
903,221.89517844999997,222.686222,59.0,81.0
904,221.89517844999997,222.69555034374997,68.0,81.0
905,221.89517844999997,222.69555034374997,68.0,81.0
906,221.89517844999997,222.69741601249999,63.0,81.0
907,222.79069944999998,223.47539988124998,42.0,81.0
908,222.79069944999998,223.6003996875,68.0,81.0
909,222.79069944999998,223.604131025,59.0,81.0
910,222.79069944999998,223.60972803124997,63.0,81.0
911,223.68622044999998,224.43435361874998,59.0,81.0
912,223.68622044999998,224.44181629374998,63.0,81.0
913,223.68622044999998,224.58174144999998,41.0,81.0
914,224.58174144999998,225.05375564374998,40.0,81.0
915,224.58174144999998,225.07614366874998,64.0,81.0
916,224.58174144999998,225.081740675,56.0,81.0
917,224.58174144999998,225.08920335,59.0,81.0
918,225.47726244999998,226.27950001249997,64.0,81.0
919,225.47726244999998,226.28323135,68.0,81.0
920,226.37278345,226.67315611874997,61.0,81.0
921,225.92502294999997,226.77203656249998,56.0,81.0
922,226.37278345,226.81308127499997,68.0,81.0
923,225.47726244999998,226.82054394999997,49.0,81.0
924,226.37278345,226.83360363124999,64.0,81.0
925,227.26830445,228.06681067499997,58.0,81.0
926,227.26830445,228.07987035624998,66.0,81.0
927,227.26830445,228.08173602499997,61.0,81.0
928,228.16382545,228.61904862499998,66.0,80.0
929,228.16382545,228.62651129999998,61.0,80.0
930,228.16382545,228.63583964375,58.0,80.0
931,227.26830445,228.63770531249997,42.0,81.0
932,227.71606494999997,228.68061569374998,49.0,80.0
933,228.61158594999998,229.01457039999997,54.0,80.0
934,229.05934645,229.61531573749997,63.0,80.0
935,229.05934645,229.74777821874997,47.0,80.0
936,229.05934645,229.84479299375,71.0,80.0
937,229.05934645,229.86158401249997,66.0,80.0
938,229.95486744999997,230.00150916874998,71.0,80.0
939,229.95486744999997,230.35225489374997,46.0,80.0
940,230.17874769999997,230.36531457499999,71.0,80.0
941,229.95486744999997,230.40449361874997,66.0,80.0
942,229.95486744999997,230.41941896874997,61.0,80.0
943,230.6265082,230.74031399375,63.0,80.0
944,230.6265082,230.77949303749998,59.0,80.0
945,230.85038844999997,231.64889467499998,68.0,80.0
946,230.85038844999997,231.66755136249998,59.0,80.0
947,230.85038844999997,231.66941703125,63.0,80.0
948,231.74590944999997,232.30561007499998,68.0,80.0
949,231.74590944999997,232.32986376875,63.0,80.0
950,231.74590944999997,232.36717714374998,59.0,80.0
951,232.19366995,232.39329650624998,56.0,80.0
952,231.29814894999998,232.45299790624998,51.0,80.0
953,232.4175502,232.484714275,59.0,80.0
954,230.85038844999997,232.57986338125,44.0,80.0
955,232.64143044999997,233.39702629374997,56.0,80.0
956,232.64143044999997,233.40448896874997,64.0,80.0
957,232.64143044999997,233.41941431874997,59.0,80.0
958,233.53695144999998,234.02389099374997,64.0,80.0
959,233.53695144999998,234.02762233124997,56.0,80.0
960,233.53695144999998,234.03695067499999,59.0,80.0
961,232.64143044999997,234.06866704374997,40.0,80.0
962,233.08919095,234.09478640624997,47.0,80.0
963,234.20859219999997,234.26269659374998,58.0,80.0
964,234.20859219999997,234.2720249375,66.0,80.0
965,234.20859219999997,234.30000996874998,61.0,80.0
966,233.98471195,234.35598003124997,52.0,80.0
967,234.20859219999997,234.50150219374999,47.0,80.0
968,234.43247244999998,235.216053325,66.0,80.0
969,234.43247244999998,235.223516,58.0,80.0
970,234.43247244999998,235.2272473375,61.0,80.0
971,234.43247244999998,235.75336592499997,42.0,80.0
972,235.32799344999998,235.81866433124998,61.0,79.0
973,235.32799344999998,235.81866433124998,66.0,79.0
974,235.32799344999998,235.82239566874998,58.0,79.0
975,234.88023295,235.85970904374997,49.0,79.0
976,235.77575394999997,236.21232043749998,54.0,79.0
977,236.22351444999998,236.7944090875,66.0,79.0
978,236.22351444999998,236.80187176249999,63.0,79.0
979,237.11903544999998,237.66194505624998,70.0,79.0
980,237.11903544999998,237.89888498749997,66.0,79.0
981,237.79067619999998,237.89888498749997,71.0,79.0
982,237.56679594999997,238.02761613124997,59.0,79.0
983,238.01455645,238.47724229999997,71.0,79.0
984,238.01455645,238.80000299374998,66.0,79.0
985,238.46231694999997,238.887689425,59.0,79.0
986,236.67127494999997,239.41753934999997,54.0,79.0
987,236.22351444999998,239.56679284999998,47.0,79.0
988,238.91007745,239.56679284999998,75.0,79.0
989,238.91007745,239.59291221249998,66.0,79.0
990,239.80559845,240.57985098125,64.0,79.0
991,239.80559845,240.59477633125,68.0,79.0
992,240.25335894999998,240.88955199375,56.0,79.0
993,239.80559845,241.05932785,49.0,79.0
994,240.70111944999996,241.16753663749998,68.0,79.0
995,240.70111944999996,241.17499931249998,64.0,79.0
996,241.59664044999997,242.43432571875,61.0,79.0
997,241.59664044999997,242.44178839375,58.0,79.0
998,241.59664044999997,242.95298163124997,42.0,79.0
999,242.49216144999997,242.96044430624997,66.0,79.0
1000,242.49216144999997,242.96977264999998,61.0,79.0
1001,242.04440094999998,242.97163831874997,49.0,79.0
1002,242.49216144999997,242.97163831874997,58.0,79.0
1003,242.93992194999998,243.27760799374997,54.0,79.0
1004,243.38768244999997,243.89701001874997,63.0,79.0
1005,243.38768244999997,243.95671141875,47.0,79.0
1006,243.38768244999997,244.17872599999998,66.0,79.0
1007,244.28320344999997,244.66566554374998,46.0,79.0
1008,244.28320344999997,244.69178490624998,66.0,79.0
1009,244.28320344999997,244.69551624374998,61.0,79.0
1010,245.17872444999998,245.977230675,59.0,79.0
1011,245.17872444999998,245.97909634374997,68.0,79.0
1012,245.17872444999998,245.99029035624997,63.0,79.0
1013,246.07424544999998,246.58170735,68.0,78.0
1014,246.07424544999998,246.59103569374997,63.0,78.0
1015,246.07424544999998,246.60596104374997,59.0,78.0
1016,246.52200594999996,246.62461773124997,56.0,78.0
1017,245.62648495,246.65260276249998,51.0,78.0
1018,245.17872444999998,246.72163250625,44.0,79.0
1019,246.96976644999998,247.75148165624998,58.0,78.0
1020,246.96976644999998,247.7794666875,55.0,78.0
1021,247.86528744999998,248.26827189999997,63.0,78.0
1022,247.86528744999998,248.41939106874997,58.0,78.0
1023,248.53692819999998,248.66752501249996,58.0,78.0
1024,247.86528744999998,248.67498768749996,55.0,78.0
1025,248.31304794999997,248.76453978749998,51.0,78.0
1026,248.76080844999998,249.13580786874996,63.0,78.0
1027,248.76080844999998,249.32610608124997,58.0,78.0
1028,249.43244919999998,249.48095658749997,58.0,78.0
1029,248.76080844999998,249.55371766874998,55.0,78.0
1030,249.20856894999997,249.59103104374998,51.0,78.0
1031,249.65632945,249.86901568749997,63.0,78.0
1032,247.86528744999998,250.03132886874997,43.0,78.0
1033,249.65632945,250.06677657499998,58.0,78.0
1034,249.65632945,250.10595561875,55.0,78.0
1035,246.96976644999998,250.12274663749997,39.0,78.0
1036,247.41752694999997,250.12834364375,46.0,78.0
1037,250.10408994999997,250.47162669374998,51.0,78.0
1038,250.55185045,251.91938564375,60.0,78.0
1039,250.55185045,251.92125131249998,68.0,78.0
1040,250.55185045,251.95110201249997,63.0,78.0
1041,251.89513194999998,254.11527776249997,48.0,78.0
1042,250.99961094999998,254.12833744374998,51.0,78.0
1043,252.34289244999997,254.13393444999997,63.0,78.0
1044,251.44737145,254.14885979999997,56.0,78.0
1045,252.34289244999997,254.18057616874998,60.0,78.0
1046,250.55185045,254.2496059125,44.0,78.0
1047,254.35781469999998,254.58542628749998,47.0,78.0
1048,254.58169494999999,254.77945583749997,51.0,78.0
1049,254.80557519999996,255.01079876249997,47.0,78.0
1050,255.02945544999997,255.22161933124997,51.0,78.0
1051,255.25333569999998,255.47721595,47.0,78.0
1052,255.47721595,255.66751416249997,51.0,78.0
1053,255.70109619999997,255.92124511249997,47.0,78.0
1054,255.92497644999997,256.1227373375,51.0,78.0
1055,256.14885669999995,256.38206529375,47.0,78.0
1056,256.37273695,256.57422917499997,51.0,78.0
1057,256.59661719999997,256.83728846875,47.0,78.0
1058,256.82049745,257.04064636249996,51.0,78.0
1059,257.0443777,257.25892960625,47.0,78.0
1060,257.26825794999996,257.54251125624995,51.0,78.0
1061,257.4921382,257.71601845,47.0,78.0
1062,254.13393444999997,257.77012284374996,35.0,78.0
1063,257.93989869999996,258.12459990624995,49.0,78.0
1064,258.16377895,258.37086818125,52.0,78.0
1065,258.3876592,258.6227334625,49.0,78.0
1066,258.61153944999995,258.82982269375,52.0,78.0
1067,258.8354197,259.0555686125,49.0,78.0
1068,259.05929994999997,259.27385185624996,52.0,78.0
1069,259.2831802,259.50706045,49.0,78.0
1070,259.50706045,259.71601534999996,52.0,78.0
1071,259.73094069999996,259.95108961249997,49.0,78.0
1072,259.95482095,260.19362655,52.0,78.0
1073,260.1787012,260.3913874375,49.0,78.0
1074,260.40258144999996,260.63765571249996,52.0,78.0
1075,260.6264617,260.8540732875,49.0,78.0
1076,260.85034195,261.111535575,52.0,78.0
1077,261.07422219999995,261.29250544375,49.0,78.0
1078,257.71601845,261.335415825,37.0,78.0
1079,261.52198269999997,261.74026594375,47.0,78.0
1080,261.74586295,261.97907154374997,51.0,78.0
1081,261.9697432,262.2048174625,47.0,78.0
1082,262.19362344999996,262.38951866875,51.0,78.0
1083,262.4175037,262.63578694374996,47.0,78.0
1084,262.64138395,262.83354783125,51.0,78.0
1085,262.86526419999996,263.14511451249996,47.0,78.0
1086,263.08914445,263.3092933625,51.0,78.0
1087,263.31302469999997,263.5480989625,47.0,78.0
1088,263.53690494999995,263.75518819375,51.0,78.0
1089,263.7607852,264.00705347499996,47.0,78.0
1090,263.98466544999997,264.20294869375,51.0,78.0
1091,264.2085457,264.45294830625,47.0,78.0
1092,264.43242595,264.63391817499996,51.0,78.0
1093,264.65630619999996,264.88018645,47.0,78.0
1094,261.29810245,264.917499825,35.0,78.0
1095,265.1040667,265.33540962499995,49.0,78.0
1096,265.32794694999995,265.5518272,52.0,78.0
1097,265.5518272,265.82048349999997,49.0,78.0
1098,265.77570744999997,265.97719967499995,52.0,78.0
1099,265.99958769999995,266.23466196249996,49.0,78.0
1100,266.22346795,266.43055718125,52.0,78.0
1101,266.44734819999996,266.69175080624996,49.0,78.0
1102,266.67122845,266.90816838125,52.0,78.0
1103,266.8951087,267.12085461875,49.0,78.0
1104,267.11898894999996,267.34660053749997,52.0,78.0
1105,267.3428692,267.5704807875,49.0,78.0
1106,267.56674945,267.78876403124997,52.0,78.0
1107,267.79062969999995,268.036897975,49.0,78.0
1108,268.01450995,268.21786784374996,52.0,78.0
1109,268.23839019999997,268.40816605624997,49.0,78.0
1110,264.88018645,268.50518083124996,37.0,78.0
1111,268.6861507,268.91562795625,47.0,78.0
1112,268.91003094999996,269.1152545125,51.0,78.0
1113,269.1339112,269.34846310625,47.0,78.0
1114,269.35779145,269.52943297499996,51.0,78.0
1115,269.58167169999996,269.81114895624995,47.0,78.0
1116,269.80555195,269.97346213749995,51.0,78.0
1117,270.0294322,270.25890945624997,47.0,78.0
1118,270.25331244999995,270.44547633124995,51.0,78.0
1119,270.4771927,270.69547594374995,47.0,78.0
1120,270.70107294999997,270.8540577875,51.0,78.0
1121,270.9249532,271.18054981874997,47.0,78.0
1122,271.14883345,271.33353465625,51.0,78.0
1123,271.37271369999996,271.618981975,47.0,78.0
1124,271.59659395,271.7309221,51.0,78.0
1125,271.8204742,272.0480857875,47.0,78.0
1126,268.46227044999995,272.09659317499995,35.0,78.0
1127,272.04435444999996,272.09659317499995,35.0,78.0
1128,272.2682347,272.49771195625,47.0,78.0
1129,272.49211495,272.67868182499996,51.0,78.0
1130,272.71599519999995,272.89883073749996,47.0,78.0
1131,272.93987545,273.1600243625,51.0,78.0
1132,273.16375569999997,273.36711359375,47.0,78.0
1133,273.38763595,273.58539683749996,51.0,78.0
1134,273.6115162,273.80554574999996,47.0,78.0
1135,273.83539644999996,274.03875434375,51.0,79.0
1136,274.0592767,274.29248529374996,47.0,79.0
1137,274.28315695,274.4436044625,51.0,79.0
1138,274.50703719999996,274.73651445624995,47.0,79.0
1139,274.73091745,274.90442464374996,51.0,79.0
1140,274.9547977,275.1525585875,47.0,79.0
1141,275.17867794999995,275.33725979375,51.0,79.0
1142,275.4025582,275.56860271874996,47.0,79.0
1143,275.41561788125,275.57233405625,66.0,79.0
1144,275.53128934374996,275.6152444375,63.0,79.0
1145,275.62643844999997,275.63203545625,35.0,79.0
1146,275.5704683875,275.66188615625,59.0,79.0
1147,275.62643844999997,275.85591570624996,54.0,79.0
1148,275.62643844999997,276.20852709999997,51.0,79.0
1149,275.8503187,278.07419584999997,47.0,79.0
