,start,end,pitch,velocity
0,34.472011699999996,34.73127105,67.0,122.0
1,34.842382199999996,35.053802027083336,67.0,102.0
2,35.212752699999996,35.3886786875,67.0,107.0
3,35.583123199999996,35.72818497916666,67.0,100.0
4,35.953493699999996,36.3979383,67.0,117.0
5,36.50904945,36.737444591666666,62.0,92.0
6,37.064605199999995,37.33621023333333,64.0,92.0
7,37.805346199999995,39.58621102083333,67.0,99.0
8,40.3979397,40.587754581249996,69.0,100.0
9,40.7683102,40.92108803125,69.0,102.0
10,41.1386807,41.272940006249996,69.0,107.0
11,41.5090512,41.649483347916664,69.0,102.0
12,41.8794217,42.356273718749996,69.0,112.0
13,42.43497745,42.55380465208333,65.0,90.0
14,42.9905332,43.495163006249996,64.0,90.0
15,43.54608895,45.936446325,62.0,83.0
16,45.9516902,46.18949465,60.0,95.0
17,46.3175432,46.466933175,71.0,107.0
18,46.6833962,46.844981275,71.0,82.0
19,47.0492492,47.1910172375,71.0,117.0
20,47.4151022,47.5492483,71.0,100.0
21,47.7809552,48.064491275,71.0,127.0
22,48.3297347,48.4760759,67.0,90.0
23,48.8785142,49.442537575,64.0,93.0
24,49.6102202,51.1269857625,60.0,93.0
25,51.8053382,52.0202768375,60.0,93.0
26,52.1711912,52.320581175,69.0,112.0
27,52.5370442,52.7092999875,69.0,100.0
28,52.9028972,53.05533595,69.0,112.0
29,53.2687502,53.418140175000005,69.0,96.0
30,53.6346032,53.8952734625,69.0,127.0
31,54.1833827,54.363260425,65.0,90.0
32,54.732162200000005,55.0141738875,69.0,95.0
33,55.4638682,57.125450575,71.0,112.0
34,57.6589862,58.00654655,67.0,83.0
35,58.0248392,58.756545200000005,72.0,100.0
36,58.9394717,59.537031600000006,72.0,122.0
37,60.2199572,60.619346725,64.0,96.0
38,60.585810200000004,62.3007461375,67.0,100.0
39,63.51263420000001,63.762633750000006,67.0,95.0
40,63.8784872,64.1544013375,69.0,100.0
41,64.24434020000001,64.5050104625,67.0,93.0
42,64.6101932,64.8053148,69.0,95.0
43,64.9760462,65.4684233625,72.0,107.0
44,65.7077522,66.02177602500001,60.0,93.0
45,66.4394582,67.710797375,67.0,99.0
46,69.3662822,69.5873183875,67.0,92.0
47,69.7321352,70.1117076875,72.0,112.0
48,70.8296942,71.3174982,72.0,122.0
49,71.9272532,72.22603315,64.0,99.0
50,72.29310620000001,73.21840941250001,69.0,117.0
51,73.3906652,74.84035771250001,67.0,107.0
52,75.21993020000001,75.375417725,67.0,107.0
53,75.58578320000001,75.85712417500001,69.0,122.0
54,75.95163620000001,76.171148,67.0,97.0
55,76.31748920000001,76.527854675,69.0,102.0
56,76.6833422,77.30224352500001,72.0,117.0
57,77.4150482,77.81901088750001,69.0,107.0
58,78.1467542,78.50498526250001,72.0,107.0
59,78.8784602,81.1940048125,74.0,127.0
60,84.0004022,84.259548075,67.0,107.0
61,84.36625520000001,84.6238766875,72.0,122.0
62,84.7321082,84.88454695000001,74.0,107.0
63,85.09796120000001,85.3342412625,74.0,127.0
64,85.4638142,85.66046018750001,76.0,117.0
65,85.82966720000002,86.1848494875,76.0,127.0
66,86.1955202,86.3068004875,74.0,122.0
67,86.5613732,86.80527520000001,74.0,127.0
68,86.9272262,87.05375036250001,72.0,107.0
69,87.29307920000001,87.67722485000002,71.0,93.0
70,87.65893220000001,87.67722485000002,71.0,117.0
71,88.39063820000001,88.64216213750001,72.0,107.0
72,89.12234420000001,89.4775264875,67.0,99.0
73,89.85405020000002,90.09185465000002,67.0,92.0
74,90.2199032,90.4683783625,72.0,122.0
75,90.5857562,90.76106076250001,74.0,127.0
76,90.95160920000001,91.20160875,74.0,117.0
77,91.31746220000001,91.51563257500001,76.0,117.0
78,91.68331520000001,91.9516074,76.0,127.0
79,92.04916820000001,92.21380205,74.0,107.0
80,92.41502120000001,92.58422821250001,74.0,117.0
81,92.7808742,93.0019103875,72.0,112.0
82,93.14672720000002,93.5262996875,71.0,112.0
83,93.69550670000001,94.009530525,69.0,102.0
84,94.2442862,94.838797325,71.0,112.0
85,94.97599220000001,95.26715021250001,64.0,100.0
86,96.07355120000001,96.42873348750001,69.0,102.0
87,96.43940420000001,96.6817818125,71.0,107.0
88,96.8052572,97.09336643750001,71.0,112.0
89,97.17111020000002,97.40281710000001,72.0,100.0
90,97.5369632,97.87537722500001,72.0,122.0
91,97.90281620000002,98.06287688750001,71.0,117.0
92,98.2686692,98.57811986250002,71.0,117.0
93,98.6345222,99.32659412500001,69.0,112.0
94,99.00037520000001,99.46683777500002,67.0,112.0
95,99.73208120000001,99.97750758750001,69.0,117.0
96,100.09793420000001,100.63299421250001,71.0,99.0
97,100.8296402,101.32049297500001,72.0,115.0
98,101.92719920000002,102.34030821250002,76.0,122.0
99,102.47597870000001,102.8006732375,74.0,122.0
100,103.02475820000001,103.40280630000001,72.0,112.0
101,103.75646420000001,104.1055489375,69.0,107.0
102,104.8540232,105.24121762500002,76.0,122.0
103,105.40280270000001,105.70920458750001,74.0,117.0
104,105.95158220000002,106.37078876250001,72.0,127.0
105,106.6832882,107.14822638750002,67.0,100.0
106,107.41499420000001,107.643652325,67.0,107.0
107,107.78084720000001,108.04304185000001,72.0,122.0
108,108.14670020000001,108.31438282500001,74.0,117.0
109,108.51255320000001,108.7564552,74.0,127.0
110,108.8784062,109.04456443750001,76.0,112.0
111,109.24425920000002,109.51102701250001,76.0,127.0
112,109.6101122,109.77931921250001,74.0,117.0
113,109.97596520000002,110.30370851250001,74.0,127.0
114,110.3418182,110.4957813375,72.0,122.0
115,110.70767120000002,111.14059725000001,71.0,117.0
116,111.25645070000002,111.53998677500002,71.0,117.0
117,111.80523020000001,112.07504678750001,71.0,93.0
118,112.53693620000001,112.98967928750002,67.0,100.0
119,113.26864220000002,113.588763575,67.0,102.0
120,113.6344952,113.95156780000002,72.0,122.0
121,114.00034820000002,114.22595755,74.0,102.0
122,114.3662012,114.65735921250001,74.0,127.0
123,114.73205420000002,114.9469928375,76.0,112.0
124,115.09790720000001,115.37839450000001,76.0,127.0
125,115.46376020000002,115.61315017500002,74.0,127.0
126,115.82961320000001,116.09028346250003,74.0,127.0
127,116.1954662,116.40888045,72.0,112.0
128,116.56131920000001,117.00644035000002,71.0,100.0
129,117.11009870000001,117.4134518125,69.0,117.0
130,117.6588782,118.0293043625,71.0,117.0
131,118.3905842,118.77320546250002,64.0,100.0
132,119.48814320000002,119.78234998750003,69.0,112.0
133,119.85399620000001,120.01253250000002,71.0,112.0
134,120.2198492,120.5110072125,71.0,117.0
135,120.58570220000001,120.759482375,72.0,102.0
136,120.9515552,121.41192022500002,72.0,127.0
137,121.31740820000002,121.48966398750002,71.0,127.0
138,121.6832612,121.9774679875,71.0,117.0
139,122.04911420000002,122.17563836250002,69.0,117.0
140,122.4149672,122.88905171250002,67.0,112.0
141,122.9637467,123.2686242,69.0,107.0
142,123.51252620000002,124.13142752500002,71.0,117.0
143,124.4271587,124.84788965000001,72.0,112.0
144,125.34179120000002,125.67940110833334,76.0,127.0
145,125.89259120000001,126.06743775000001,74.0,127.0
146,126.4447382,126.81436994166667,72.0,127.0
147,127.18093420000001,127.51528988333334,69.0,122.0
148,128.2852282,128.57171583958333,76.0,127.0
149,128.83575745000002,129.11811408541666,74.0,117.0
150,129.3852082,129.6507760625,72.0,127.0
151,129.75150870000002,130.15443925,69.0,112.0
152,130.30095945000002,130.73288878958334,67.0,100.0
153,131.21671070000002,131.70816387083335,69.0,102.0
154,131.76616145,132.93527054583333,72.0,117.0
155,160.64909219999998,160.90655865000002,67.0,122.0
156,161.01638160000002,161.22535026875002,67.0,102.0
157,161.3824581,161.5563444375,67.0,107.0
158,161.74853460000003,161.8919145625,67.0,100.0
159,162.11461110000002,162.55390290000003,67.0,117.0
160,162.66372585000002,162.889473025,62.0,92.0
161,163.21284060000002,163.4812967,64.0,92.0
162,163.9449936,165.70521143750003,67.0,99.0
163,166.5075291,166.69514330625,69.0,100.0
164,166.87360560000002,167.02461215625002,69.0,102.0
165,167.2396821,167.37238483125,69.0,107.0
166,167.6057586,167.74456260625,69.0,102.0
167,167.97183510000002,168.44315859375,69.0,112.0
168,168.52094985000002,168.63839939375,65.0,90.0
169,169.07006460000002,169.56884383125,64.0,90.0
170,169.61917935000002,171.9834234125,62.0,83.0
171,171.9986766,172.236626325,60.0,95.0
172,172.3647531,172.5142343375,71.0,107.0
173,172.73082960000002,172.8925133875,71.0,82.0
174,173.0969061,173.23876074375002,71.0,117.0
175,173.4629826,173.59721065000002,71.0,100.0
176,173.82905910000002,174.1127683875,71.0,127.0
177,174.37817385000002,174.52460445000003,67.0,90.0
178,174.9272886,175.4916565375,64.0,93.0
179,175.6594416,177.17713375625002,60.0,93.0
180,177.8559006,178.07097054375,60.0,93.0
181,178.2219771,178.3714583375,69.0,112.0
182,178.58805360000002,178.76041461875002,69.0,100.0
183,178.95413010000001,179.106661975,69.0,112.0
184,179.3202066,179.4696878375,69.0,96.0
185,179.68628310000003,179.94711260625002,69.0,127.0
186,180.23539785000003,180.4153854625,65.0,90.0
187,180.7845126,181.06669656875002,69.0,95.0
188,181.5166656,183.17926303750002,71.0,112.0
189,183.71312460000001,184.060897275,67.0,83.0
190,184.0792011,184.81135410000002,72.0,100.0
191,184.99439235,185.59231730000002,72.0,122.0
192,186.2756601,186.6752936125,64.0,96.0
193,186.6417366,188.35772019375,67.0,100.0
194,189.57034860000002,189.820500875,67.0,95.0
195,189.9364251,190.21250779375,69.0,100.0
196,190.3025016,190.56333110625002,67.0,93.0
197,190.66857810000002,190.8638189,69.0,95.0
198,191.0346546,191.52733255625,72.0,107.0
199,191.76680760000002,192.0810232625,60.0,93.0
200,192.4989606,193.77317737500002,67.0,99.0
201,195.4347438,195.6565919875,67.0,92.0
202,195.8019408,196.1829076875,72.0,112.0
203,196.90353180000002,197.3931278,72.0,122.0
204,198.0051228,198.30500035,64.0,99.0
205,198.3723198,199.30102221250002,69.0,117.0
206,199.4739108,200.9289289125,67.0,107.0
207,201.30989580000002,201.465954525,67.0,107.0
208,201.67709280000003,201.949430575,69.0,122.0
209,202.0442898,202.264608,67.0,97.0
210,202.4114868,202.622625075,69.0,102.0
211,202.7786838,203.399858725,72.0,117.0
212,203.51307780000002,203.9185244875,69.0,107.0
213,204.2474718,204.6070188625,72.0,107.0
214,204.9818658,207.30591681250002,74.0,127.0
215,210.1226238,210.38272167500003,67.0,107.0
216,210.48982080000002,210.7483886875,72.0,122.0
217,210.85701780000002,211.01001655000002,74.0,107.0
218,211.22421480000003,211.4613628625,74.0,127.0
219,211.5914118,211.7887801875,76.0,117.0
220,211.9586088,212.3150958875,76.0,127.0
221,212.3258058,212.4374948875,74.0,122.0
222,212.69300280000002,212.93780080000002,74.0,127.0
223,213.06019980000002,213.1871887625,72.0,107.0
224,213.4273968,213.81295365,71.0,93.0
225,213.7945938,213.81295365,71.0,117.0
226,214.5289878,214.7814357375,72.0,107.0
227,215.26338180000002,215.61986888750002,67.0,99.0
228,215.9977758,216.23645385,67.0,92.0
229,216.3649728,216.6143607625,72.0,122.0
230,216.7321698,216.9081183625,74.0,127.0
231,217.0993668,217.35028475000001,74.0,117.0
232,217.46656380000002,217.66546217500002,76.0,117.0
233,217.83376080000002,218.10303860000002,76.0,127.0
234,218.20095780000003,218.36619645000002,74.0,107.0
235,218.5681548,218.7379834125,74.0,117.0
236,218.9353518,219.1571999875,72.0,112.0
237,219.3025488,219.6835156875,71.0,112.0
238,219.8533443,220.168521725,69.0,102.0
239,220.40413980000002,221.00083492500002,71.0,112.0
240,221.1385338,221.4307614125,64.0,100.0
241,222.24012480000002,222.59661188750002,69.0,102.0
242,222.60732180000002,222.8505898125,71.0,107.0
243,222.9745188,223.2636864375,71.0,112.0
244,223.3417158,223.5742739,72.0,100.0
245,223.7089128,224.048570025,72.0,122.0
246,224.0761098,224.23675848750003,71.0,117.0
247,224.44330680000002,224.7538942625,71.0,117.0
248,224.81050380000002,225.50511812500002,69.0,112.0
249,225.17770080000003,225.64587697500002,67.0,112.0
250,225.9120948,226.1584227875,69.0,117.0
251,226.2792918,226.8163174125,71.0,99.0
252,227.01368580000002,227.506341775,72.0,115.0
253,228.1152768,228.5299034125,76.0,122.0
254,228.6660723,228.9919596375,74.0,122.0
255,229.21686780000002,229.59630470000002,72.0,112.0
256,229.9512618,230.30162893750003,69.0,107.0
257,231.0528528,231.44146962500002,76.0,122.0
258,231.6036483,231.9111757875,74.0,117.0
259,232.15444380000002,232.5751903625,72.0,127.0
260,232.8888378,233.3554839875,67.0,100.0
261,233.6232318,233.852729925,67.0,107.0
262,233.99042880000002,234.25358665000002,72.0,122.0
263,234.3576258,234.52592442500003,74.0,117.0
264,234.72482280000003,234.9696208,74.0,127.0
265,235.0920198,235.25878843750002,76.0,112.0
266,235.4592168,235.7269646125,76.0,127.0
267,235.8264138,235.9962424125,74.0,117.0
268,236.19361080000002,236.5225581125,74.0,127.0
269,236.56080780000002,236.7153365375,72.0,122.0
270,236.9280048,237.36252125000001,71.0,117.0
271,237.47880030000002,237.76337797500003,71.0,117.0
272,238.0295958,238.3004035875,71.0,93.0
273,238.76398980000002,239.21839608750003,67.0,100.0
274,239.4978462,239.817967575,67.0,102.0
275,239.8636992,240.1807718,72.0,122.0
276,240.2295522,240.45516155,74.0,102.0
277,240.59540520000002,240.8865632125,74.0,127.0
278,240.9612582,241.17619683750002,76.0,112.0
279,241.3271112,241.6075985,76.0,127.0
280,241.6929642,241.842354175,74.0,127.0
281,242.0588172,242.3194874625,74.0,127.0
282,242.4246702,242.63808445,72.0,112.0
283,242.7905232,243.23564435,71.0,100.0
284,243.3393027,243.6426558125,69.0,117.0
285,243.8880822,244.2585083625,71.0,117.0
286,244.61978820000002,245.0024094625,64.0,100.0
287,245.7173472,246.0115539875,69.0,112.0
288,246.0832002,246.2417365,71.0,112.0
289,246.4490532,246.74021121250001,71.0,117.0
290,246.8149062,246.98868637500001,72.0,102.0
291,247.1807592,247.641124225,72.0,127.0
292,247.5466122,247.7188679875,71.0,127.0
293,247.9124652,248.20667198750002,71.0,117.0
294,248.2783182,248.4048423625,69.0,117.0
295,248.64417120000002,249.1182557125,67.0,112.0
296,249.1929507,249.49782820000001,69.0,107.0
297,249.7417302,250.360631525,71.0,117.0
298,250.65636270000002,251.07709365,72.0,112.0
299,251.5709952,251.9078848375,76.0,127.0
300,252.1197747,252.293554875,74.0,127.0
301,252.66855420000002,253.03593158750002,72.0,127.0
302,253.4002602,253.73257667500002,69.0,122.0
303,254.4978192,254.7828796625,76.0,127.0
304,255.0465987,255.32861038750002,74.0,117.0
305,255.5953782,255.86062162500002,72.0,127.0
306,255.96123120000001,256.3636695,69.0,112.0
307,256.5100107,256.9414123625,67.0,100.0
308,257.4246432,257.915495975,69.0,102.0
309,257.9734227,259.141103525,72.0,117.0
310,263.2782912,263.5724979875,69.0,112.0
311,263.6441442,263.8026805,71.0,112.0
312,264.0099972,264.3011552125,71.0,117.0
313,264.3758502,264.549630375,72.0,102.0
314,264.7417032,265.202068225,72.0,127.0
315,265.10755620000003,265.2798119875,71.0,127.0
316,265.4734092,265.7676159875,71.0,117.0
317,265.8392622,265.9657863625,69.0,117.0
318,266.2051152,266.6791997125,67.0,112.0
319,266.7538947,267.0587722,69.0,107.0
320,267.3026742,267.921575525,71.0,117.0
321,268.2173067,268.63803765,72.0,112.0
322,269.13193920000003,269.4688288375,76.0,127.0
323,269.6807187,269.854498875,74.0,127.0
324,270.2294982,270.5968755875,72.0,127.0
325,270.9612042,271.293520675,69.0,122.0
326,272.0587632,272.34382366250003,76.0,127.0
327,272.6075427,272.8895543875,74.0,117.0
328,273.15632220000003,273.421565625,72.0,127.0
329,273.5221752,273.9246135,69.0,112.0
330,274.0709547,274.5023563625,67.0,100.0
331,275.5343667,275.9444269375,69.0,92.0
332,276.2660727,278.519117425,72.0,96.0
