,start,end,pitch,velocity
0,2.3500608,3.9672575875,56.0,45.0
1,1.9828638,4.0774166874999995,44.0,81.0
2,2.7172578,4.2732550875,60.0,56.0
3,3.0844548,4.9036099375,68.0,85.0
4,4.5532428,4.9342096875,60.0,42.0
5,4.1860458,4.96327945,63.0,72.0
6,6.0220308,6.9476732375,60.0,68.0
7,4.9204398,7.0670122625,36.0,64.0
8,5.2876368,7.0700722375,43.0,59.0
9,5.6548338,7.1220918125,48.0,74.0
10,6.0220308,7.8962654875,64.0,71.0
11,7.1236218,7.916155325,60.0,63.0
12,7.4908187999999996,7.946755075,55.0,56.0
13,8.5924098,9.2579543625,53.0,96.0
14,8.2252128,9.4660326625,48.0,56.0
15,8.9596068,9.8883092125,56.0,89.0
16,9.6940008,10.064257775,48.0,50.0
17,7.8580157999999996,10.099447487499999,41.0,77.0
18,10.0611978,10.804771725,56.0,96.0
19,10.4283948,10.81395165,53.0,42.0
20,8.9596068,10.8323115,60.0,85.0
21,11.5299858,12.440328362499999,48.0,82.0
22,11.8971828,12.6851263625,60.0,96.0
23,11.8971828,12.8809647625,64.0,93.0
24,11.8971828,12.9360443125,55.0,66.0
25,10.7955918,13.038553475,36.0,85.0
26,11.1627888,13.0492633875,43.0,47.0
27,12.6315768,13.4440001625,48.0,77.0
28,12.9987738,13.687268175,60.0,97.0
29,13.3659708,13.693388125,55.0,69.0
30,12.9987738,13.7102179875,64.0,92.0
31,14.4720047,15.39793095,53.0,99.0
32,15.2127457,15.862437285416666,65.0,95.0
33,15.2127457,15.862437285416666,69.0,97.0
34,14.8423752,15.891758283333333,60.0,96.0
35,15.5831162,16.16336331666667,53.0,71.0
36,15.9534867,16.172622579166667,60.0,52.0
37,14.1016342,16.26212878333333,48.0,83.0
38,13.7331678,16.518301712499998,41.0,86.0
39,16.3238572,16.61861038958333,60.0,71.0
40,15.9534867,16.68959806875,65.0,96.0
41,15.9534867,16.6942277,69.0,95.0
42,17.4349687,18.286820849999998,50.0,88.0
43,17.8053392,18.760586447916666,69.0,92.0
44,17.8053392,18.765216079166667,65.0,93.0
45,17.8053392,18.7775617625,62.0,93.0
46,16.6942277,19.167993997916668,38.0,97.0
47,17.0645982,19.172623629166665,45.0,47.0
48,18.5460802,19.678796645833334,50.0,59.0
49,18.9164507,19.683426277083335,62.0,95.0
50,18.9164507,19.700401591666665,69.0,95.0
51,18.9164507,19.705031222916666,65.0,97.0
52,20.3979327,21.28219226875,55.0,88.0
53,20.7683032,21.705031922916667,62.0,99.0
54,20.7683032,21.712747975,67.0,107.0
55,20.7683032,21.71737760625,71.0,100.0
56,19.6571917,22.0923777375,43.0,90.0
57,20.0275622,22.16182220625,50.0,66.0
58,21.509044199999998,22.22663704375,55.0,53.0
59,21.879414699999998,22.609353227083332,67.0,102.0
60,21.879414699999998,22.613982858333333,71.0,99.0
61,22.249785199999998,22.677254485416668,62.0,72.0
62,22.990526199999998,24.27293405625,56.0,92.0
63,23.731267199999998,24.71120581458333,63.0,112.0
64,23.731267199999998,24.723551497916667,68.0,117.0
65,23.360896699999998,24.748242864583332,60.0,92.0
66,24.472008199999998,25.016761477083335,56.0,89.0
67,22.620155699999998,25.093921997916667,44.0,107.0
68,24.842378699999998,25.447317183333332,68.0,117.0
69,24.842378699999998,25.45194681458333,63.0,122.0
70,25.583119699999997,26.544539789583332,64.0,95.0
71,25.76830495,26.735897881249997,67.0,83.0
72,26.694231199999997,26.735897881249997,67.0,67.0
73,25.583119699999997,27.86552790625,36.0,67.0
74,25.953490199999997,27.88404643125,43.0,57.0
75,26.323860699999997,27.9442316375,48.0,82.0
76,26.694231199999997,28.022935368749998,64.0,64.0
77,25.76830495,28.27602187708333,60.0,96.0
78,28.546083699999997,29.195775285416666,55.0,79.0
79,28.546083699999997,31.368615552083334,43.0,90.0
80,29.47200995,31.507504489583333,55.0,58.0
81,29.10163945,31.53373906666667,50.0,53.0
82,29.657195199999997,34.4812709625,67.0,63.0
83,31.509047699999996,34.490530225,55.0,56.0
84,31.509047699999996,34.50441911875,43.0,83.0
85,28.546083699999997,34.50441911875,59.0,78.0
86,28.546083699999997,34.51213517083333,62.0,81.0
87,35.212752699999996,36.17262957916667,48.0,69.0
88,34.472011699999996,36.71892606666667,36.0,83.0
89,34.842382199999996,36.74670385416667,43.0,57.0
90,36.323864199999996,36.95812368125,48.0,46.0
91,36.694234699999996,37.456580645833334,55.0,66.0
92,35.953493699999996,37.48281522291666,60.0,56.0
93,35.583123199999996,37.48898806458333,64.0,75.0
94,38.175716699999995,39.00750711458333,52.0,69.0
95,37.805346199999995,39.68806290833333,47.0,61.0
96,37.434975699999995,39.70503822291666,40.0,70.0
97,39.2868282,39.85781605416666,52.0,56.0
98,39.6571987,40.453495275,64.0,89.0
99,40.0275692,40.46584095833333,59.0,69.0
100,38.5460872,40.4720138,67.0,95.0
101,41.1386807,41.671088293749996,57.0,95.0
102,40.7683102,42.05843410833333,52.0,51.0
103,41.5090512,42.58929849166667,60.0,76.0
104,42.2497922,43.152570293749996,52.0,55.0
105,40.3979397,43.21738513125,45.0,89.0
106,41.8794217,43.4072000125,69.0,100.0
107,42.6201627,43.42726174791667,64.0,92.0
108,42.9905332,43.445780272916664,60.0,64.0
109,43.91645945,44.95349685,55.0,78.0
110,45.2127562,45.54763286041666,55.0,59.0
111,44.4720152,45.67880574583333,59.0,61.0
112,43.54608895,45.72047242708333,50.0,41.0
113,43.3609037,46.0477266125,43.0,88.0
114,45.9516902,46.3175432,59.0,64.0
115,45.5831267,46.3175432,62.0,93.0
116,44.8423857,46.3175432,67.0,95.0
117,47.0492492,48.0324791375,52.0,64.0
118,47.4151022,48.4638808,55.0,56.0
119,46.6833962,48.6422341375,47.0,42.0
120,46.3175432,48.6574780125,40.0,79.0
121,48.1468082,48.94558725,52.0,59.0
122,48.5126612,49.2519891375,59.0,89.0
123,48.8785142,49.264184237500004,55.0,66.0
124,47.7809552,49.3099158625,64.0,90.0
125,49.9760732,50.8525960125,57.0,72.0
126,49.6102202,50.918144675,52.0,46.0
127,50.3419262,51.415095,60.0,66.0
128,51.0736322,51.436436425000004,52.0,78.0
129,49.2443672,51.497411925,45.0,74.0
130,51.8053382,52.216922825,60.0,78.0
131,50.707779200000004,52.2306423125,69.0,100.0
132,51.4394852,52.2397886375,64.0,79.0
133,52.9028972,53.785517562500004,53.0,79.0
134,54.0004562,54.31143125,53.0,66.0
135,53.2687502,54.459296837500005,57.0,72.0
136,52.1711912,54.9196618625,41.0,81.0
137,54.3663092,55.1269785625,60.0,79.0
138,52.5370442,55.12850295,48.0,45.0
139,53.6346032,55.1788077375,65.0,100.0
140,54.732162200000005,55.186429675,57.0,79.0
141,55.8297212,56.684902587500005,55.0,82.0
142,56.1955742,56.783987775,59.0,75.0
143,56.9272802,57.2794137125,55.0,88.0
144,55.0980152,57.777888425,43.0,85.0
145,55.4638682,58.041607462500004,50.0,59.0
146,57.6589862,58.0599001125,59.0,90.0
147,56.5614272,58.0858147,67.0,99.0
148,57.2931332,58.093436637500005,62.0,107.0
149,58.756545200000005,59.387641625,57.0,83.0
150,58.390692200000004,59.6711777,52.0,51.0
151,58.9394717,59.7885555375,60.0,73.0
152,59.8541042,60.2214815875,52.0,66.0
153,58.0248392,60.241298625,45.0,82.0
154,60.585810200000004,60.98062656250001,60.0,90.0
155,60.2199572,60.988248500000005,64.0,96.0
156,59.4882512,61.005016762500006,69.0,127.0
157,61.6833692,62.657452812500004,52.0,71.0
158,61.8662957,63.06293988750001,59.0,73.0
159,62.780928200000005,63.195561600000005,52.0,68.0
160,60.9516632,63.3281833125,40.0,86.0
161,61.3175162,63.782450787500004,47.0,45.0
162,63.51263420000001,63.90897495,59.0,89.0
163,63.14678120000001,63.9379383125,64.0,99.0
164,62.415075200000004,63.99891381250001,67.0,99.0
165,64.6101932,65.5202525375,53.0,81.0
166,65.7077522,65.96994685,53.0,63.0
167,64.9760462,66.1955562,57.0,82.0
168,63.8784872,66.23823905,41.0,73.0
169,64.24434020000001,66.241287825,48.0,46.0
170,66.0736052,66.8708598625,60.0,107.0
171,66.4394582,66.9150671,57.0,92.0
172,65.3418992,66.9348841375,65.0,100.0
173,67.53701720000001,68.479088675,48.0,85.0
174,66.8053112,69.0019535875,36.0,72.0
175,67.9028702,69.00652675,55.0,67.0
176,67.1711642,69.0568315375,43.0,55.0
177,68.6345762,69.1757337625,48.0,56.0
178,69.3662822,69.69097673750001,55.0,42.0
179,69.0004292,69.72603765,60.0,102.0
180,68.26872320000001,69.74890346250001,64.0,97.0
181,70.4638412,70.90896235,57.0,90.0
182,70.8296942,71.15286435,60.0,93.0
183,70.0979882,71.4135346125,52.0,65.0
184,71.56140020000001,71.83121678750001,52.0,78.0
185,69.7321352,71.95011901250001,45.0,72.0
186,71.19554720000001,72.6787762375,64.0,100.0
187,71.9272532,72.6833494,60.0,107.0
188,72.29310620000001,72.7153615375,57.0,82.0
189,73.3906652,74.26109046250001,52.0,86.0
190,72.6589592,74.893711275,40.0,86.0
191,73.7565182,74.9028576,59.0,93.0
192,73.0248122,75.03090615,47.0,82.0
193,74.4882242,75.4714541375,52.0,93.0
194,74.8540772,75.60407585,64.0,102.0
195,74.1223712,75.619319725,67.0,107.0
196,75.21993020000001,75.67724645000001,59.0,95.0
197,76.31748920000001,77.21687782500001,53.0,93.0
198,76.6833422,77.85712057500001,60.0,79.0
199,77.4150482,77.85864496250001,53.0,85.0
200,75.58578320000001,78.42114395000002,41.0,77.0
201,78.1467542,78.4760219,60.0,93.0
202,77.7809012,78.5126072,65.0,102.0
203,77.0491952,78.5141315875,69.0,107.0
204,75.95163620000001,78.5476681125,48.0,67.0
205,79.24431320000001,80.11931162500001,55.0,93.0
206,79.61016620000001,80.79004212500001,62.0,88.0
207,79.9760192,80.79004212500001,71.0,107.0
208,78.5126072,81.2702241875,43.0,97.0
209,80.34187220000001,81.28699245000001,55.0,86.0
210,78.8784602,81.3068094875,50.0,68.0
211,80.7077252,81.3525411125,69.0,96.0
212,81.4394312,81.4775408875,50.0,55.0
213,81.4394312,83.4409519875,55.0,88.0
214,81.4394312,83.73211,43.0,70.0
215,81.4394312,84.3403406125,67.0,78.0
216,81.4394312,84.34491377500001,71.0,79.0
217,81.4394312,84.36625520000001,62.0,89.0
218,84.7321082,85.16808302500002,48.0,88.0
219,84.9150347,85.1939976125,55.0,70.0
220,84.36625520000001,85.70771620000001,36.0,92.0
221,84.5491817,85.8738744375,43.0,75.0
222,85.28088770000001,85.9226548375,48.0,73.0
223,85.64674070000001,86.13302031250001,55.0,73.0
224,85.09796120000001,86.1467398,64.0,85.0
225,85.4638142,86.30984926250001,60.0,75.0
226,86.1955202,86.643690125,48.0,66.0
227,86.37844670000001,86.6711291,55.0,66.0
228,85.82966720000002,86.844909275,36.0,81.0
229,86.0125937,86.8769214125,43.0,52.0
230,86.7442997,87.22295737500001,48.0,74.0
231,86.9272262,87.2488719625,60.0,78.0
232,87.11015270000001,87.28698165,55.0,81.0
233,86.5613732,87.28850603750001,64.0,97.0
234,87.65893220000001,88.0994801875,52.0,64.0
235,87.84185870000002,88.14368742500001,59.0,65.0
236,88.2077117,88.5324062375,52.0,70.0
237,87.29307920000001,88.61777193750001,40.0,71.0
238,87.4760057,88.7641131375,47.0,45.0
239,88.5735647,89.13758807500001,59.0,72.0
240,88.0247852,89.16045388750001,67.0,99.0
241,88.39063820000001,89.1665514375,64.0,57.0
242,89.12234420000001,89.5689897375,52.0,73.0
243,89.30527070000001,89.62386768750001,59.0,82.0
244,88.7564912,89.79459908750002,40.0,58.0
245,88.9394177,89.8067941875,47.0,41.0
246,89.67112370000001,90.17722035,52.0,85.0
247,89.85405020000002,90.18026912500001,64.0,74.0
248,89.4881972,90.18636667500002,67.0,100.0
249,90.0369767,90.21075687500002,59.0,83.0
250,90.5857562,91.04307245000001,57.0,82.0
251,90.7686827,91.058316325,60.0,66.0
252,91.13453570000001,91.3189865875,57.0,72.0
253,90.2199032,91.58270562500002,45.0,69.0
254,91.31746220000001,91.7244736625,64.0,65.0
255,91.5003887,91.75343702500001,60.0,73.0
256,90.40282970000001,91.75648580000001,52.0,63.0
257,90.95160920000001,91.8647173125,69.0,83.0
258,92.04916820000001,92.45313088750001,57.0,85.0
259,91.86624170000002,92.53392342500001,52.0,57.0
260,92.2320947,92.5735575,60.0,73.0
261,92.5979477,92.70617921250002,52.0,75.0
262,91.68331520000001,92.756484,45.0,63.0
263,92.7808742,93.0964224125,64.0,89.0
264,92.41502120000001,93.14672720000002,69.0,97.0
265,92.96380070000001,93.155873525,60.0,73.0
266,93.69550670000001,93.8403235125,55.0,59.0
267,93.5125802,93.9592257375,52.0,72.0
268,93.87843320000002,94.20465212500001,59.0,89.0
269,94.06135970000001,94.271725175,52.0,76.0
270,93.14672720000002,94.52629788750001,40.0,74.0
271,94.2442862,94.54763931250001,55.0,89.0
272,94.42721270000001,94.60404165,59.0,66.0
273,93.32965370000001,94.64062695000001,47.0,55.0
274,94.97599220000001,95.405869475,52.0,73.0
275,95.15891870000002,95.44855232500001,55.0,78.0
276,95.5247717,95.6573934125,52.0,85.0
277,94.6101392,95.82355165000001,40.0,81.0
278,94.7930657,95.96684407500001,47.0,67.0
279,95.70769820000001,95.97903917500001,59.0,90.0
280,95.34184520000001,96.0080025375,64.0,96.0
281,95.89062470000002,96.06288048750001,55.0,90.0
282,96.43940420000001,96.85708637500001,53.0,56.0
283,96.6223307,96.90129361250001,57.0,69.0
284,96.98818370000001,97.17111020000002,53.0,72.0
285,96.07355120000001,97.4272073,41.0,72.0
286,96.2564777,97.58879237500001,48.0,50.0
287,97.17111020000002,97.66501175000002,60.0,68.0
288,97.35403670000001,97.6665361375,57.0,66.0
289,96.8052572,97.69854827500001,65.0,90.0
290,97.90281620000002,98.29915695000001,53.0,59.0
291,98.08574270000001,98.36623,57.0,69.0
292,98.45159570000001,98.58574180000001,53.0,85.0
293,97.71988970000001,98.674156275,48.0,49.0
294,97.5369632,98.71836351250002,41.0,63.0
295,98.6345222,98.930253375,60.0,83.0
296,98.2686692,98.95159480000001,65.0,100.0
297,98.8174487,98.96378990000001,57.0,92.0
298,99.36622820000001,99.80982496250002,52.0,72.0
299,99.5491547,99.82049567500002,55.0,70.0
300,99.00037520000001,100.07506838750001,40.0,72.0
301,99.18330170000002,100.07964155000002,47.0,48.0
302,100.09793420000001,100.38147027500001,59.0,82.0
303,99.91500770000002,100.40586047500001,52.0,77.0
304,99.73208120000001,100.40738486250001,64.0,93.0
305,100.2808607,100.43329945,55.0,82.0
306,100.8296402,101.0750665875,57.0,89.0
307,101.01256670000001,101.18177371250002,60.0,93.0
308,100.6467137,101.29305400000001,52.0,60.0
309,101.37841970000001,101.491224375,52.0,66.0
310,100.46378720000001,101.53390722500001,45.0,65.0
311,101.19549320000002,101.8128701375,64.0,95.0
312,101.5613462,101.81439452500001,60.0,96.0
313,101.74427270000001,101.94701623750001,57.0,81.0
314,102.2930522,102.72597825000001,50.0,73.0
315,102.47597870000001,102.7549416125,57.0,77.0
316,102.8418317,103.08878247500002,50.0,85.0
317,101.92719920000002,103.28390407500001,38.0,66.0
318,102.6589052,103.3951843625,65.0,99.0
319,102.11012570000001,103.4043306875,45.0,51.0
320,103.02475820000001,103.43786721250001,62.0,81.0
321,103.20768470000002,103.45006231250001,57.0,88.0
322,103.75646420000001,104.16500005,50.0,77.0
323,103.93939070000002,104.24731697500002,57.0,76.0
324,103.39061120000001,104.39518256250001,38.0,77.0
325,103.5735377,104.4271947,45.0,48.0
326,104.3052437,104.68481618750002,50.0,92.0
327,104.12231720000001,104.79304770000002,65.0,107.0
328,104.48817020000001,104.8128647375,62.0,99.0
329,104.6710967,104.84487687500001,57.0,99.0
330,105.21987620000002,105.6588998,55.0,81.0
331,105.40280270000001,105.704631425,59.0,79.0
332,105.76865570000001,105.94700903750001,55.0,99.0
333,105.5857292,106.17566716250002,67.0,122.0
334,105.95158220000002,106.20310613750001,62.0,112.0
335,104.8540232,106.25950847500002,43.0,92.0
336,106.13450870000001,106.27017918750002,59.0,69.0
337,105.03694970000001,106.38603263750001,50.0,65.0
338,106.3174352,106.75645880000002,59.0,78.0
339,106.3174352,106.7793246125,62.0,100.0
340,106.3174352,106.911946325,67.0,95.0
341,106.8662147,106.95615356250002,59.0,85.0
342,106.6832882,106.960726725,55.0,89.0
343,106.50036170000001,107.15279955000001,50.0,88.0
344,107.23206770000002,107.34334798750001,50.0,86.0
345,106.3174352,107.40432348750001,43.0,93.0
346,107.04914120000001,107.430238075,62.0,112.0
347,107.04914120000001,107.66042058750001,67.0,107.0
348,107.41499420000001,107.70920098750001,59.0,100.0
349,108.14670020000001,108.50035810000001,48.0,89.0
350,108.3296267,108.59029696250002,55.0,72.0
351,108.6954797,108.90432078750001,48.0,89.0
352,107.78084720000001,109.10553993750001,36.0,92.0
353,107.96377370000002,109.19852757500001,43.0,88.0
354,109.06133270000001,109.73511197500001,55.0,89.0
355,108.51255320000001,109.7427339125,64.0,99.0
356,108.8784062,109.79456308750001,60.0,93.0
357,109.6101122,110.03846508750001,48.0,79.0
358,109.79303870000001,110.0750503875,55.0,79.0
359,109.24425920000002,110.31590361250002,36.0,73.0
360,109.42718570000001,110.36011085000001,43.0,63.0
361,109.97596520000002,110.58724458750001,64.0,97.0
362,110.1588917,110.61620795000002,48.0,86.0
363,110.3418182,110.62687866250002,60.0,90.0
364,110.52474470000001,110.69700048750002,55.0,90.0
365,111.07352420000001,111.4957795375,52.0,69.0
366,111.25645070000002,111.6390719625,59.0,77.0
367,111.6223037,111.88449835,52.0,76.0
368,110.70767120000002,112.02321761250002,40.0,76.0
369,110.8905977,112.16955881250001,47.0,48.0
370,111.98815670000002,112.5841922125,59.0,77.0
371,111.43937720000002,112.661935975,67.0,92.0
372,111.80523020000001,112.75797238750002,64.0,83.0
373,112.53693620000001,113.01711826250002,52.0,76.0
374,112.71986270000002,113.02016703750002,59.0,68.0
375,112.1710832,113.23053251250002,40.0,66.0
376,112.3540097,113.24120322500002,47.0,57.0
377,112.9027892,113.53541001250002,67.0,99.0
378,113.08571570000001,113.54455633750001,52.0,69.0
379,113.26864220000002,113.588763575,64.0,89.0
380,113.45156870000002,113.64211713750001,59.0,88.0
381,114.00034820000002,114.28388427500002,57.0,73.0
382,114.1832747,114.34028661250002,60.0,75.0
383,113.81742170000001,114.442420575,52.0,53.0
384,113.6344952,114.96528548750001,45.0,63.0
385,114.54912770000001,114.97290742500002,52.0,42.0
386,114.3662012,115.05369996250002,64.0,112.0
387,114.73205420000002,115.05522435,60.0,86.0
388,114.9149807,115.06741945000002,57.0,74.0
389,115.46376020000002,115.75034505000002,57.0,82.0
390,115.28083370000002,115.92412522500001,52.0,61.0
391,115.6466867,115.93174716250002,64.0,78.0
392,116.01253970000002,116.11772243750002,52.0,52.0
393,115.09790720000001,116.18327110000001,45.0,71.0
394,115.82961320000001,116.4378438125,72.0,100.0
395,116.1954662,116.44851452500001,69.0,81.0
396,116.3783927,116.521685125,64.0,83.0
397,116.9271722,117.35247631250002,52.0,65.0
398,117.11009870000001,117.4561346625,59.0,67.0
399,117.47595170000002,117.72442686250002,52.0,72.0
400,116.56131920000001,117.9347923375,40.0,83.0
401,116.74424570000002,118.039975075,47.0,73.0
402,117.6588782,118.05217017500001,64.0,81.0
403,117.29302520000002,118.05217017500001,67.0,93.0
404,117.84180470000001,118.08418231250002,59.0,68.0
405,118.3905842,118.80064443750001,52.0,77.0
406,118.57351070000001,118.82198586250001,59.0,79.0
407,118.9393637,119.09485122500001,52.0,82.0
408,118.02473120000002,119.25643630000002,40.0,72.0
409,118.75643720000002,119.39515556250001,67.0,102.0
410,118.2076577,119.40887505,47.0,52.0
411,119.12229020000001,119.41954576250001,64.0,95.0
412,119.30521670000002,119.52167972500001,59.0,79.0
413,120.03692270000002,120.26405643750002,60.0,68.0
414,119.85399620000001,120.2975929625,53.0,81.0
415,120.4027757,120.5353974125,53.0,72.0
416,120.2198492,120.668019125,65.0,83.0
417,119.48814320000002,120.74118972500003,41.0,76.0
418,119.6710697,120.89667725000001,48.0,85.0
419,120.58570220000001,121.34637156250002,60.0,76.0
420,120.2198492,121.42868848750001,69.0,93.0
421,120.76862870000002,121.43935920000001,65.0,51.0
422,121.31740820000002,121.7320416,53.0,55.0
423,121.50033470000002,121.81893168750003,60.0,66.0
424,121.86618770000001,121.98661431250002,53.0,65.0
425,121.13448170000001,122.10551653750002,48.0,58.0
426,120.9515552,122.12990673750002,41.0,51.0
427,121.6832612,122.31588201250003,69.0,97.0
428,122.04911420000002,122.32502833750002,65.0,76.0
429,122.2320407,122.35246731250001,60.0,43.0
430,122.9637467,123.20002676250002,59.0,52.0
431,122.4149672,123.55673343750001,40.0,85.0
432,122.59789370000001,123.55825782500003,47.0,53.0
433,122.78082020000002,123.81283053750002,52.0,74.0
434,123.51252620000002,123.863135325,64.0,95.0
435,123.14667320000001,123.863135325,67.0,67.0
436,124.24423220000003,124.45307328750002,57.0,82.0
437,124.4271587,124.59026816250002,60.0,88.0
438,124.06130570000002,124.7244142625,52.0,59.0
439,124.79301170000002,124.91953586250003,52.0,52.0
440,123.87837920000001,125.03691370000001,45.0,68.0
441,124.61008520000001,125.19087683750001,64.0,100.0
442,124.9759382,125.22898652500001,60.0,100.0
443,125.15886470000001,125.33569365000002,57.0,72.0
444,125.70854220000001,126.13952360833335,50.0,78.0
445,125.89259120000001,126.20394075833335,57.0,73.0
446,125.34179120000002,126.71774421666667,38.0,86.0
447,125.52471770000002,126.8128362,45.0,86.0
448,126.26068920000002,127.03522874166667,50.0,68.0
449,126.6287872,127.277559925,57.0,74.0
450,126.07664020000001,127.34964578333334,65.0,93.0
451,126.4447382,127.41406293333334,62.0,83.0
452,127.18093420000001,127.64105670000001,50.0,70.0
453,127.36498320000001,127.70854133333334,57.0,66.0
454,126.8128362,127.84657808333334,38.0,74.0
455,126.99688520000001,127.84657808333334,45.0,56.0
456,127.73308120000002,128.14412396666668,50.0,83.0
457,127.54903220000001,128.14872519166667,65.0,102.0
458,127.9171302,128.2116086,62.0,88.0
459,128.10117920000002,128.23921595000002,57.0,83.0
460,128.6526072,129.0631690104167,55.0,78.0
461,128.83575745000002,129.12421909375,59.0,79.0
462,129.20205795,129.32110561250002,55.0,81.0
463,128.2852282,129.54851717291666,43.0,68.0
464,128.46927720000002,129.73624617916667,50.0,72.0
465,129.3852082,130.31927447500001,62.0,81.0
466,129.0189077,130.32080072708334,67.0,100.0
467,129.56835845,130.42763837291668,59.0,82.0
468,130.1178092,130.58484233750002,50.0,47.0
469,130.66725995000002,130.758835075,50.0,56.0
470,129.75150870000002,130.82751641875,43.0,74.0
471,130.4841097,131.19686942291668,67.0,100.0
472,130.8504102,131.22434196041667,62.0,72.0
473,131.58301120000002,131.967626725,48.0,73.0
474,131.76616145,132.06988561458334,55.0,72.0
475,132.13246195000002,132.40108231666667,48.0,81.0
476,131.21671070000002,132.53081374375,36.0,77.0
477,131.39986095,132.70022772500002,43.0,77.0
478,131.9493117,133.2222059375,64.0,95.0
479,132.3156122,133.26799350000002,60.0,76.0
480,132.49876245000002,133.36262112916668,55.0,72.0
481,133.59766395,133.9166506354167,48.0,56.0
482,132.6819127,133.93954441666668,36.0,53.0
483,133.04821320000002,133.93954441666668,43.0,42.0
484,133.7808142,133.93954441666668,60.0,82.0
485,133.41451370000001,133.93954441666668,64.0,95.0
486,134.1471147,134.82395001666666,60.0,107.0
487,134.1471147,134.8270175,64.0,93.0
488,134.1471147,134.90983955,55.0,92.0
489,134.1471147,135.02180269166666,46.0,127.0
490,135.2503302,136.49419469166668,56.0,102.0
491,135.2503302,136.51413333333332,60.0,99.0
492,135.2503302,136.543274425,63.0,107.0
493,135.2503302,136.575483,44.0,99.0
494,137.0908202,137.39296730833334,57.0,93.0
495,137.0908202,137.54020650833334,60.0,100.0
496,137.0908202,137.57701630833333,64.0,95.0
497,137.8270162,138.11075840833334,57.0,112.0
498,137.4589182,138.761064875,52.0,93.0
499,138.1951142,139.14910151666666,64.0,97.0
500,138.5632122,139.17824260833333,60.0,117.0
501,138.9313102,139.32701555,52.0,89.0
502,139.4834572,139.58621789166668,52.0,86.0
503,137.0908202,139.60155530833333,45.0,97.0
504,139.6675062,139.91290486666668,60.0,99.0
505,139.2994082,139.91443860833334,64.0,117.0
506,139.8515552,140.03713794166666,57.0,96.0
507,140.5877512,140.96505165,56.0,95.0
508,140.7718002,141.59235199166667,60.0,86.0
509,141.1398982,141.61689185833333,56.0,85.0
510,141.5079962,142.055541975,68.0,100.0
511,141.5079962,142.08468306666666,63.0,97.0
512,141.8760942,142.2441922,56.0,102.0
513,140.4037022,142.534069375,51.0,66.0
514,142.4282412,142.56014298333332,56.0,96.0
515,140.0356042,142.598486525,44.0,82.0
516,142.4282412,142.635296325,63.0,82.0
517,142.6122902,142.85462138333332,60.0,99.0
518,142.2441922,142.8883637,68.0,127.0
519,142.7963392,142.97732071666667,63.0,92.0
520,143.5325352,143.67210569166667,59.0,90.0
521,143.3484862,143.70431426666667,55.0,92.0
522,143.1644372,143.794805025,50.0,89.0
523,143.9006332,144.7656635,50.0,72.0
524,143.7165842,145.1337615,62.0,107.0
525,144.0846822,145.138362725,59.0,90.0
526,144.4527802,145.14143020833333,55.0,97.0
527,144.8208782,145.25492709166667,50.0,76.0
528,145.1889762,145.60615393333333,59.0,92.0
529,145.1889762,145.77486551666667,62.0,97.0
530,145.5570742,145.800939125,55.0,79.0
531,145.3730252,145.85768756666667,50.0,71.0
532,142.9803882,145.8883624,43.0,70.0
533,145.9251722,146.46044804166667,55.0,100.0
534,145.9251722,146.54480383333333,62.0,92.0
535,145.9251722,146.55400628333334,59.0,95.0
536,146.6613682,146.90983435,59.0,51.0
537,146.6613682,146.9190368,55.0,69.0
538,146.6613682,146.92823925,62.0,66.0
539,147.0294662,147.05553980833332,55.0,38.0
540,147.0294662,147.08774838333332,59.0,86.0
541,147.0294662,147.10155205833334,62.0,74.0
542,146.2932702,147.72578491666667,50.0,66.0
543,147.3975642,147.935907525,55.0,82.0
544,147.3975642,147.97425106666665,62.0,107.0
545,147.3975642,147.98958848333334,67.0,122.0
546,147.3975642,147.98958848333334,71.0,107.0
547,147.7656622,148.11842278333333,50.0,69.0
548,145.9251722,148.239588375,43.0,92.0
549,148.1337602,148.55860664166667,67.0,127.0
550,148.5018582,148.70737958333333,62.0,99.0
551,148.1337602,148.73498693333335,71.0,117.0
552,148.8699562,148.99725675833332,71.0,97.0
553,148.8699562,149.00645920833333,67.0,102.0
554,148.8699562,149.05707268333333,64.0,93.0
555,149.6061522,149.90829930833334,52.0,100.0
556,148.8699562,150.01872870833333,40.0,86.0
557,149.9742502,150.04173483333332,55.0,90.0
558,149.2380542,150.34388194166667,47.0,64.0
559,150.3423482,150.563207,53.0,99.0
560,150.3423482,150.58161189999998,57.0,99.0
561,150.3423482,150.60155054166665,60.0,96.0
562,151.0785442,151.21658095,53.0,96.0
563,151.0785442,151.27179565,60.0,100.0
564,150.3423482,151.29633551666666,41.0,90.0
565,150.7104462,151.30553796666666,48.0,73.0
566,151.0785442,151.43437226666666,65.0,107.0
567,151.0785442,151.51105935,69.0,107.0
568,151.44664219999999,151.58161146666666,60.0,96.0
569,151.8147402,151.90523095833333,38.0,93.0
570,151.8147402,152.35154978333333,62.0,99.0
571,151.8147402,152.40216325833333,69.0,100.0
572,151.8147402,152.44357428333333,66.0,127.0
573,152.5509362,152.60921838333334,66.0,32.0
574,152.1828382,152.73651894166667,50.0,74.0
575,152.5509362,152.75952506666667,62.0,96.0
576,152.9190342,153.88682519166667,69.0,102.0
577,152.9190342,153.90216260833333,62.0,102.0
578,152.9190342,153.90369635,66.0,127.0
579,152.9190342,153.954309825,54.0,117.0
580,154.0233282,154.44050593333333,66.0,127.0
581,154.0233282,154.478849475,69.0,127.0
582,154.3914262,154.80400270833334,62.0,89.0
583,154.7595242,154.99572041666667,67.0,122.0
584,155.4957202,155.69203913333334,59.0,81.0
585,155.4957202,155.74265260833334,57.0,85.0
586,155.6797692,155.74725383333333,62.0,99.0
587,155.3116712,156.03099604166667,55.0,82.0
588,156.04786719999998,156.43743758333335,55.0,89.0
589,156.04786719999998,156.67976876666665,71.0,86.0
590,156.04786719999998,156.72731475833334,67.0,90.0
591,156.6000142,156.972713425,55.0,71.0
592,154.7595242,157.36688503333335,43.0,93.0
593,155.1276222,157.37915496666668,50.0,90.0
594,156.9681122,157.39449238333333,71.0,112.0
595,157.1521612,157.396026125,55.0,66.0
596,156.04786719999998,157.46351075833334,62.0,93.0
597,157.3362102,157.59848002500001,69.0,99.0
598,157.7043082,160.64909219999998,43.0,63.0
599,157.7043082,160.64909219999998,50.0,69.0
600,157.7043082,160.64909219999998,55.0,89.0
601,157.7043082,160.64909219999998,62.0,92.0
602,157.7043082,160.64909219999998,67.0,96.0
603,157.7043082,160.64909219999998,71.0,90.0
604,161.3824581,162.3312063625,48.0,69.0
605,160.64909219999998,162.87116920000003,36.0,83.0
606,161.01638160000002,162.89862493750002,43.0,57.0
607,162.4806876,163.10759360625002,48.0,46.0
608,162.8467641,163.6002715625,55.0,66.0
609,162.11461110000002,163.62620198125,60.0,56.0
610,161.74853460000003,163.63230325625003,64.0,75.0
611,164.31107010000002,165.13321690625003,52.0,69.0
612,163.9449936,165.805882475,47.0,61.0
613,163.5789171,165.82266098125,40.0,70.0
614,165.40929960000003,165.9736675375,52.0,56.0
615,165.77537610000002,166.562440575,64.0,89.0
616,166.1414526,166.57464312500002,59.0,69.0
617,164.67714660000001,166.58074440000001,67.0,95.0
618,167.2396821,167.76591706875,57.0,95.0
619,166.87360560000002,168.148772075,52.0,51.0
620,167.6057586,168.67348172500002,60.0,76.0
621,168.3379116,169.23022306875,52.0,55.0
622,166.5075291,169.29428645625,45.0,89.0
623,167.97183510000002,169.4819006625,69.0,100.0
624,168.7039881,169.50172980625,64.0,92.0
625,169.07006460000002,169.52003363125002,60.0,64.0
626,169.98525585000002,171.01027005,55.0,78.0
627,171.26652360000003,171.59751776875,55.0,59.0
628,170.53437060000002,171.7271698625,59.0,61.0
629,169.61917935000002,171.76835346875,50.0,41.0
630,169.43614110000001,172.09477168125002,43.0,88.0
631,171.9986766,172.3647531,59.0,64.0
632,171.63260010000002,172.3647531,62.0,93.0
633,170.9004471,172.3647531,67.0,95.0
634,173.0969061,174.08073669375,52.0,64.0
635,173.4629826,174.51240190000001,55.0,56.0
636,172.73082960000002,174.69086419375,47.0,42.0
637,172.3647531,174.70611738125,40.0,79.0
638,174.19513560000001,174.99440262500002,52.0,59.0
639,174.5612121,175.30099169375,59.0,89.0
640,174.9272886,175.31319424375002,55.0,66.0
641,173.82905910000002,175.35895380625,64.0,90.0
642,176.0255181,176.90257638125001,57.0,72.0
643,175.6594416,176.9681650875,52.0,46.0
644,176.39159460000002,177.465419,60.0,66.0
645,177.1237476,177.48677346250003,52.0,78.0
646,175.29336510000002,177.5477862125,45.0,74.0
647,177.8559006,178.2677366625,60.0,78.0
648,176.7576711,178.28146453125,69.0,100.0
649,177.48982410000002,178.29061644375003,64.0,79.0
650,178.95413010000001,179.83728965625002,53.0,79.0
651,180.05235960000002,180.36352462500003,53.0,66.0
652,179.3202066,180.51148054375,57.0,72.0
653,178.2219771,180.97212680625,41.0,81.0
654,180.4184361,181.17957015625,60.0,79.0
655,178.58805360000002,181.181095475,48.0,45.0
656,179.68628310000003,181.23143099375,65.0,100.0
657,180.7845126,181.2390575875,57.0,79.0
658,181.8827421,182.73844591875002,55.0,82.0
659,182.24881860000002,182.8375916375,59.0,75.0
660,182.9809716,183.33332023125,55.0,88.0
661,181.15058910000002,183.83209946250003,43.0,85.0
662,181.5166656,184.09597960625,50.0,59.0
663,183.71312460000001,184.11428343125002,59.0,90.0
664,182.6148951,184.14021385,67.0,99.0
665,183.3470481,184.14784044375,62.0,107.0
666,184.81135410000002,185.44283606250002,57.0,83.0
667,184.4452776,185.72654535,52.0,51.0
668,184.99439235,185.84399489375002,60.0,73.0
669,185.90958360000002,186.27718541875,52.0,66.0
670,184.0792011,186.2970145625,45.0,82.0
671,186.6417366,187.03679415625,60.0,90.0
672,186.2756601,187.04442075,64.0,96.0
673,185.5435071,187.06119925625,69.0,127.0
674,187.7399661,188.71464478125,52.0,71.0
675,187.92300435,189.12037956875002,59.0,73.0
676,188.8381956,189.25308230000002,52.0,68.0
677,187.00781310000002,189.38578503125,40.0,86.0
678,187.3738896,189.84033001875002,47.0,45.0
679,189.57034860000002,189.96693147500002,59.0,89.0
680,189.2042721,189.99591253125,64.0,99.0
681,188.47211910000001,190.05692528125002,67.0,99.0
682,190.66857810000002,191.57919339375002,53.0,81.0
683,191.76680760000002,192.029162425,53.0,63.0
684,191.0346546,192.25490960000002,57.0,82.0
685,189.9364251,192.29761852500002,41.0,73.0
686,190.3025016,192.30066916250001,48.0,46.0
687,192.1328841,192.93062580625002,60.0,107.0
688,192.4989606,192.97486005000002,57.0,92.0
689,191.4007311,192.99468919375,65.0,100.0
690,193.5987588,194.54429107500002,48.0,85.0
691,192.8650371,195.06907678750002,36.0,72.0
692,193.96595580000002,195.07366675,55.0,67.0
693,193.2315618,195.1241563375,43.0,55.0
694,194.70034980000003,195.2434953625,48.0,56.0
695,195.4347438,195.7606311375,55.0,42.0
696,195.0675468,195.79582085,60.0,102.0
697,194.33315280000002,195.81877066250001,64.0,97.0
698,196.53633480000002,196.98309115,57.0,90.0
699,196.90353180000002,197.22788915,60.0,93.0
700,196.16913780000002,197.48951701250002,52.0,65.0
701,197.6379258,197.90873358750002,52.0,78.0
702,195.8019408,198.0280726125,45.0,72.0
703,197.2707288,198.7594066375,64.0,100.0
704,198.0051228,198.7639966,60.0,107.0
705,198.3723198,198.7961263375,57.0,82.0
706,199.4739108,200.3475336625,52.0,86.0
707,198.73951680000002,200.98247847500002,40.0,86.0
708,199.8411078,200.9916584,59.0,93.0
709,199.10671380000002,201.12017735,47.0,82.0
710,200.5755018,201.56234373750002,52.0,93.0
711,200.94269880000002,201.69545265000002,64.0,102.0
712,200.2083048,201.710752525,67.0,107.0
713,201.30989580000002,201.76889205,59.0,95.0
714,202.4114868,203.31417942500002,53.0,93.0
715,202.7786838,203.95677417500002,60.0,79.0
716,203.51307780000002,203.9583041625,53.0,85.0
717,201.67709280000003,204.52286955000002,41.0,77.0
718,204.2474718,204.5779491,60.0,93.0
719,203.88027480000002,204.6146688,65.0,102.0
720,203.14588080000001,204.61619878750002,69.0,107.0
721,202.0442898,204.6498585125,48.0,67.0
722,205.3490628,206.227275625,55.0,93.0
723,205.71625980000002,206.90047012500003,62.0,88.0
724,206.08345680000002,206.90047012500003,71.0,107.0
725,204.6146688,207.3824161875,43.0,97.0
726,206.4506538,207.39924605000002,55.0,86.0
727,204.9818658,207.4191358875,50.0,68.0
728,206.8178508,207.4650355125,69.0,96.0
729,207.5522448,207.59049448750002,50.0,55.0
730,207.5522448,209.56111838750002,55.0,88.0
731,207.5522448,209.85334600000002,43.0,70.0
732,207.5522448,210.4638110125,67.0,78.0
733,207.5522448,210.468400975,71.0,79.0
734,207.5522448,210.48982080000002,62.0,89.0
735,210.85701780000002,211.29459422500003,48.0,88.0
736,211.0406163,211.3206040125,55.0,70.0
737,210.48982080000002,211.8362098,36.0,92.0
738,210.6734193,212.00297843750002,43.0,75.0
739,211.40781330000002,212.0519380375,48.0,73.0
740,211.77501030000002,212.2630763125,55.0,73.0
741,211.22421480000003,212.27684620000002,64.0,85.0
742,211.5914118,212.44055486250002,60.0,75.0
743,212.3258058,212.775622125,48.0,66.0
744,212.5094043,212.80316190000002,55.0,66.0
745,211.9586088,212.97758047500002,36.0,81.0
746,212.14220730000002,213.0097102125,43.0,52.0
747,212.8766013,213.357017375,48.0,74.0
748,213.06019980000002,213.3830271625,60.0,78.0
749,213.2437983,213.42127685000003,55.0,81.0
750,212.69300280000002,213.42280683750002,64.0,97.0
751,213.7945938,214.2367601875,52.0,64.0
752,213.97819230000002,214.28112982500002,59.0,65.0
753,214.34538930000002,214.6712766375,52.0,70.0
754,213.4273968,214.7569559375,40.0,71.0
755,213.6109953,214.9038347375,47.0,45.0
756,214.7125863,215.278681675,59.0,72.0
757,214.1617908,215.3016314875,67.0,99.0
758,214.5289878,215.3077514375,64.0,57.0
759,215.26338180000002,215.7116681375,52.0,73.0
760,215.4469803,215.76674768750001,59.0,82.0
761,214.89618480000001,215.9381062875,40.0,58.0
762,215.0797833,215.9503461875,47.0,41.0
763,215.8141773,216.32213315,52.0,85.0
764,215.9977758,216.325193125,64.0,74.0
765,215.63057880000002,216.33131307500003,67.0,100.0
766,216.18137430000002,216.35579287500002,59.0,83.0
767,216.7321698,217.19116605000002,57.0,82.0
768,216.91576830000002,217.206465925,60.0,66.0
769,217.2829653,217.4680937875,57.0,72.0
770,216.3649728,217.732781625,45.0,69.0
771,217.46656380000002,217.87507046250002,64.0,65.0
772,217.6501623,217.90414022500002,60.0,73.0
773,216.54857130000002,217.9072002,52.0,63.0
774,217.0993668,218.01582931250002,69.0,83.0
775,218.20095780000003,218.60640448750001,57.0,85.0
776,218.0173593,218.68749382500002,52.0,57.0
777,218.3845563,218.72727350000002,60.0,73.0
778,218.75175330000002,218.8603824125,52.0,75.0
779,217.83376080000002,218.910872,45.0,63.0
780,218.9353518,219.2520592125,64.0,89.0
781,218.5681548,219.3025488,69.0,97.0
782,219.11895030000002,219.31172872500002,60.0,73.0
783,219.8533443,219.9986931125,55.0,59.0
784,219.66974580000002,220.11803213750002,52.0,72.0
785,220.03694280000002,220.36436012500002,59.0,89.0
786,220.2205413,220.431679575,52.0,76.0
787,219.3025488,220.6871874875,40.0,74.0
788,220.40413980000002,220.70860731250002,55.0,89.0
789,220.5877383,220.76521685,59.0,66.0
790,219.48614730000003,220.80193655000002,47.0,55.0
791,221.1385338,221.569990275,52.0,73.0
792,221.32213230000002,221.612829925,55.0,78.0
793,221.6893293,221.8224382125,52.0,85.0
794,220.7713368,221.98920685000002,40.0,81.0
795,220.95493530000002,222.133025675,47.0,67.0
796,221.8729278,222.145265575,59.0,90.0
797,221.5057308,222.1743353375,64.0,96.0
798,222.0565263,222.2294148875,55.0,90.0
799,222.60732180000002,223.026538375,53.0,56.0
800,222.7909203,223.0709080125,57.0,69.0
801,223.15811730000001,223.3417158,53.0,72.0
802,222.24012480000002,223.5987537,41.0,72.0
803,222.4237233,223.760932375,48.0,50.0
804,223.3417158,223.83743175,60.0,68.0
805,223.52531430000002,223.8389617375,57.0,66.0
806,222.9745188,223.87109147500001,65.0,90.0
807,224.0761098,224.47390655,53.0,59.0
808,224.2597083,224.54122600000002,57.0,69.0
809,224.6269053,224.7615442,53.0,85.0
810,223.89251130000002,224.85028347500003,48.0,49.0
811,223.7089128,224.8946531125,41.0,63.0
812,224.81050380000002,225.10732137500003,60.0,83.0
813,224.44330680000002,225.1287412,65.0,100.0
814,224.9941023,225.1409811,57.0,92.0
815,225.5448978,225.99012416250002,52.0,72.0
816,225.72849630000002,226.000834075,55.0,70.0
817,225.17770080000003,226.2563419875,40.0,72.0
818,225.3612993,226.26093195,47.0,48.0
819,226.2792918,226.56386947500002,59.0,82.0
820,226.09569330000002,226.588349275,52.0,77.0
821,225.9120948,226.5898792625,64.0,93.0
822,226.46289030000003,226.61588905000002,55.0,82.0
823,227.01368580000002,227.26001378750001,57.0,89.0
824,227.1972843,227.3671129125,60.0,93.0
825,226.8300873,227.478802,52.0,60.0
826,227.5644813,227.67770037500003,52.0,66.0
827,226.64648880000001,227.72054002500002,45.0,65.0
828,227.3808828,228.00052773750002,64.0,95.0
829,227.74807980000003,228.00205772500001,60.0,96.0
830,227.93167830000002,228.13516663750002,57.0,81.0
831,228.4824738,228.91699025000003,50.0,73.0
832,228.6660723,228.94606001250003,57.0,77.0
833,229.03326930000003,229.28112727500002,50.0,85.0
834,228.1152768,229.476965675,38.0,66.0
835,228.8496708,229.58865476250003,65.0,99.0
836,228.29887530000002,229.5978346875,45.0,51.0
837,229.21686780000002,229.63149441250002,62.0,81.0
838,229.4004663,229.64373431250002,57.0,88.0
839,229.9512618,230.36129845000002,50.0,77.0
840,230.1348603,230.44391777500002,57.0,76.0
841,229.58406480000002,230.5923265625,38.0,77.0
842,229.7676633,230.62445630000002,45.0,48.0
843,230.50205730000002,230.8830241875,50.0,92.0
844,230.3184588,230.9916533,65.0,107.0
845,230.6856558,231.0115431375,62.0,99.0
846,230.86925430000002,231.04367287500003,57.0,99.0
847,231.42004980000002,231.8606862,55.0,81.0
848,231.6036483,231.906585825,59.0,79.0
849,231.9708453,232.14985383750002,55.0,99.0
850,231.78724680000002,232.3793519625,67.0,122.0
851,232.15444380000002,232.40689173750002,62.0,112.0
852,231.0528528,232.463501275,43.0,92.0
853,232.3380423,232.4742111875,59.0,69.0
854,231.2364513,232.5904902375,50.0,65.0
855,232.5216408,232.96227720000002,59.0,78.0
856,232.5216408,232.98522701250002,62.0,100.0
857,232.5216408,233.118335925,67.0,95.0
858,233.07243630000002,233.1627055625,59.0,85.0
859,232.8888378,233.16729552500001,55.0,89.0
860,232.70523930000002,233.36007395000001,50.0,88.0
861,233.43963330000003,233.55132238750002,50.0,86.0
862,232.5216408,233.6125218875,43.0,93.0
863,233.2560348,233.63853167500002,62.0,112.0
864,233.2560348,233.8695597875,67.0,107.0
865,233.6232318,233.9185193875,59.0,100.0
866,234.3576258,234.7125829,48.0,89.0
867,234.5412243,234.80285216250002,55.0,72.0
868,234.90842130000001,235.11802958750002,48.0,89.0
869,233.99042880000002,235.3199879375,36.0,92.0
870,234.1740273,235.413317175,43.0,88.0
871,235.27561830000002,235.95187277500003,55.0,89.0
872,234.72482280000003,235.95952271250002,64.0,99.0
873,235.0920198,236.01154228750002,60.0,93.0
874,235.8264138,236.2563402875,48.0,79.0
875,236.01001230000003,236.29305998750002,55.0,79.0
876,235.4592168,236.5347980125,36.0,73.0
877,235.6428153,236.57916765000002,43.0,63.0
878,236.19361080000002,236.80713578750002,64.0,97.0
879,236.3772093,236.83620555000002,48.0,86.0
880,236.56080780000002,236.84691546250002,60.0,90.0
881,236.7444063,236.91729488750002,55.0,90.0
882,237.2952018,237.71900833750001,52.0,69.0
883,237.47880030000002,237.86282716250003,59.0,77.0
884,237.84599730000002,238.10915515000002,52.0,76.0
885,236.9280048,238.24838401250003,40.0,76.0
886,237.1116033,238.39526281250002,47.0,48.0
887,238.2131943,238.81141941250002,59.0,77.0
888,237.6623988,238.889448775,67.0,92.0
889,238.0295958,238.98583798750002,64.0,83.0
890,238.76398980000002,239.2459358625,52.0,76.0
891,238.9475883,239.24899583750002,59.0,68.0
892,238.39679280000001,239.4597365125,40.0,66.0
893,238.5803913,239.470407225,47.0,57.0
894,239.13118680000002,239.7646140125,67.0,99.0
895,239.3147853,239.7737603375,52.0,69.0
896,239.4978462,239.817967575,64.0,89.0
897,239.6807727,239.8713211375,59.0,88.0
898,240.2295522,240.513088275,57.0,73.0
899,240.4124787,240.5694906125,60.0,75.0
900,240.0466257,240.671624575,52.0,53.0
901,239.8636992,241.1944894875,45.0,63.0
902,240.7783317,241.202111425,52.0,42.0
903,240.59540520000002,241.2829039625,64.0,112.0
904,240.9612582,241.28442835,60.0,86.0
905,241.1441847,241.29662345,57.0,74.0
906,241.6929642,241.97954905,57.0,82.0
907,241.5100377,242.153329225,52.0,61.0
908,241.8758907,242.1609511625,64.0,78.0
909,242.2417437,242.3469264375,52.0,52.0
910,241.3271112,242.4124751,45.0,71.0
911,242.0588172,242.66704781250002,72.0,100.0
912,242.4246702,242.67771852500002,69.0,81.0
913,242.60759670000002,242.75088912500001,64.0,83.0
914,243.1563762,243.5816803125,52.0,65.0
915,243.3393027,243.68533866250002,59.0,67.0
916,243.7051557,243.9536308625,52.0,72.0
917,242.7905232,244.1639963375,40.0,83.0
918,242.9734497,244.269179075,47.0,73.0
919,243.8880822,244.281374175,64.0,81.0
920,243.5222292,244.281374175,67.0,93.0
921,244.0710087,244.3133863125,59.0,68.0
922,244.61978820000002,245.0298484375,52.0,77.0
923,244.8027147,245.0511898625,59.0,79.0
924,245.1685677,245.324055225,52.0,82.0
925,244.2539352,245.4856403,40.0,72.0
926,244.9856412,245.6243595625,67.0,102.0
927,244.4368617,245.63807905000002,47.0,52.0
928,245.3514942,245.64874976250002,64.0,95.0
929,245.5344207,245.750883725,59.0,79.0
930,246.2661267,246.4932604375,60.0,68.0
931,246.0832002,246.52679696250001,53.0,81.0
932,246.63197970000002,246.7646014125,53.0,72.0
933,246.4490532,246.897223125,65.0,83.0
934,245.7173472,246.970393725,41.0,76.0
935,245.9002737,247.12588125,48.0,85.0
936,246.8149062,247.5755755625,60.0,76.0
937,246.4490532,247.6578924875,69.0,93.0
938,246.9978327,247.6685632,65.0,51.0
939,247.5466122,247.9612456,53.0,55.0
940,247.7295387,248.0481356875,60.0,66.0
941,248.0953917,248.2158183125,53.0,65.0
942,247.36368570000002,248.3347205375,48.0,58.0
943,247.1807592,248.3591107375,41.0,51.0
944,247.9124652,248.5450860125,69.0,97.0
945,248.2783182,248.5542323375,65.0,76.0
946,248.4612447,248.5816713125,60.0,43.0
947,249.1929507,249.4292307625,59.0,52.0
948,248.64417120000002,249.7859374375,40.0,85.0
949,248.8270977,249.787461825,47.0,53.0
950,249.0100242,250.0420345375,52.0,74.0
951,249.7417302,250.092339325,64.0,95.0
952,249.3758772,250.092339325,67.0,67.0
953,250.4734362,250.6822772875,57.0,82.0
954,250.65636270000002,250.8194721625,60.0,88.0
955,250.2905097,250.95361826250002,52.0,59.0
956,251.0222157,251.1487398625,52.0,52.0
957,250.1075832,251.2661177,45.0,68.0
958,250.8392892,251.4200808375,64.0,100.0
959,251.2051422,251.458190525,60.0,100.0
960,251.38806870000002,251.56489765,57.0,72.0
961,251.93684820000001,252.3652010875,50.0,78.0
962,252.1197747,252.4292253625,57.0,73.0
963,251.5709952,252.939895175,38.0,86.0
964,251.7539217,253.0344072,45.0,86.0
965,252.4856277,253.2554433875,50.0,68.0
966,252.8514807,253.4962966125,57.0,74.0
967,252.3027012,253.56794282500002,65.0,93.0
968,252.66855420000002,253.6319671,62.0,83.0
969,253.4002602,253.85757645,50.0,70.0
970,253.5831867,253.92464950000002,57.0,66.0
971,253.0344072,254.061844375,38.0,74.0
972,253.2173337,254.061844375,45.0,56.0
973,253.94903970000001,254.35757555,50.0,83.0
974,253.7661132,254.36214871250002,65.0,102.0
975,254.1319662,254.4246486,62.0,88.0
976,254.3148927,254.452087575,57.0,83.0
977,254.8636722,255.2737324375,55.0,78.0
978,255.0465987,255.3347079375,59.0,79.0
979,255.41245170000002,255.53135392500002,55.0,81.0
980,254.4978192,255.75848766250002,43.0,68.0
981,254.68074570000002,255.945987325,50.0,72.0
982,255.5953782,256.52830335,62.0,81.0
983,255.2295252,256.5298277375,67.0,100.0
984,255.7783047,256.6365348625,59.0,82.0
985,256.3270842,256.793546775,50.0,47.0
986,256.8758637,256.96732695000003,50.0,56.0
987,255.96123120000001,257.0359243875,43.0,74.0
988,256.6929372,257.4048261625,67.0,100.0
989,257.05879020000003,257.4246432,62.0,72.0
990,257.4246432,258.2767758125,55.0,97.0
991,257.4246432,260.2066503875,36.0,86.0
992,257.7904962,260.4353085125,43.0,45.0
993,258.1563492,260.885002825,48.0,52.0
994,257.4246432,261.287441125,64.0,96.0
995,257.4246432,261.36975805000003,60.0,99.0
996,260.3514672,262.891096775,36.0,70.0
997,260.7173202,262.9566454375,43.0,53.0
998,261.08317320000003,263.2218888625,48.0,61.0
999,258.5222022,263.2295108,55.0,76.0
1000,262.5465852,263.311827725,60.0,78.0
1001,261.4490262,263.3133521125,64.0,89.0
1002,264.0099972,265.29658025000003,53.0,83.0
1003,263.6441442,265.494750625,48.0,53.0
1004,263.2782912,265.58926265,41.0,71.0
1005,265.4734092,266.281334575,60.0,83.0
1006,264.3758502,266.3636515,57.0,65.0
1007,264.7417032,266.488651275,65.0,88.0
1008,266.2051152,267.202064625,40.0,67.0
1009,266.5709682,267.2157841125,47.0,45.0
1010,266.9368212,267.6365150625,52.0,60.0
1011,268.0343802,268.63803765,52.0,54.0
1012,267.6685272,268.7157814125,45.0,73.0
1013,268.7660862,269.1730976625,60.0,59.0
1014,268.4002332,269.1913903125,64.0,79.0
1015,269.13193920000003,271.8865074125,38.0,77.0
1016,269.4977922,271.96729995,45.0,58.0
1017,269.8636452,271.96729995,50.0,82.0
1018,270.5953512,272.0587632,57.0,79.0
1019,270.2294982,272.0587632,62.0,68.0
1020,272.0587632,272.9688225375,62.0,83.0
1021,272.7904692,274.2645519125,55.0,86.0
1022,272.4246162,274.2889421125,50.0,41.0
1023,272.0587632,274.4383320875,71.0,83.0
1024,272.0587632,274.4566247375,67.0,86.0
1025,273.15632220000003,274.4749173875,62.0,59.0
1026,272.0587632,274.488636875,43.0,74.0
1027,274.9855872,275.9383293875,55.0,59.0
1028,274.9855872,276.2188166875,64.0,66.0
1029,274.9855872,276.220341075,60.0,62.0
1030,275.71729320000003,276.6944255875,48.0,83.0
1031,276.0831462,277.226436825,55.0,55.0
1032,274.9855872,277.39107067500004,36.0,63.0
1033,275.3514402,277.4718632125,43.0,47.0
1034,276.8148522,277.6273507375,48.0,51.0
1035,277.5465582,277.897167325,55.0,68.0
1036,277.18070520000003,277.9124112,60.0,75.0
1037,276.4489992,277.9124112,64.0,97.0
1038,278.2980812375,279.909358825,43.0,36.0
1039,277.92308191250004,279.9352734125,55.0,63.0
1040,277.93680140000004,279.93832218750003,36.0,72.0
1041,278.98710438750004,279.9718587125,64.0,69.0
1042,277.9200331375,279.9749074875,60.0,73.0
1043,278.6456415875,280.067895125,48.0,56.0
1044,280.7767353125,281.36667327500004,54.0,76.0
1045,281.19899065000004,282.909353425,49.0,34.0
1046,280.781308475,282.95508505,61.0,68.0
1047,280.799601125,282.958133825,42.0,64.0
1048,281.8880138,282.9733777,66.0,57.0
1049,281.50539253750003,282.9779508625,54.0,40.0
1050,283.7188031875,284.573984575,60.0,72.0
1051,284.10904638750003,285.4444098375,43.0,40.0
1052,283.7279495125,285.47947075,36.0,75.0
1053,284.470326225,285.65020215000004,48.0,57.0
1054,283.7218519625,285.769104375,55.0,69.0
1055,284.8498987125,285.78434825,60.0,65.0
1056,283.726425125,285.8133116125,64.0,66.0
1057,287.43068675,288.82702570000004,49.0,33.0
1058,286.7096514625,288.8590378375,61.0,59.0
1059,286.7005051375,288.86970855000004,54.0,75.0
1060,286.7187977875,288.8925743625,42.0,59.0
1061,287.7782471,288.8986719125,66.0,57.0
1062,289.6029389375,292.5023239625,60.0,71.0
1063,289.604463325,292.50842151250004,55.0,72.0
1064,289.6151340375,292.52214100000003,48.0,72.0
1065,289.6075121,292.525189775,64.0,68.0
1066,289.616658425,292.53586048750003,43.0,65.0
1067,289.61056087500003,292.54043365,36.0,53.0
