,start,end,pitch,velocity
0,1.4306703375,1.53781305,65.0,88.0
1,1.6827708375000001,1.8214261125000002,65.0,82.0
2,1.9348713375000002,2.0609215875,67.0,98.0
3,2.1869718375000002,2.49579495,69.0,113.0
4,2.6911728375,3.0315085125000003,62.0,113.0
5,3.1953738375,3.315121575,62.0,108.0
6,3.4474743375,4.0399105125000006,69.0,113.0
7,4.2037758375,5.2121778375000005,67.0,113.0
8,5.464278337500001,5.5672193750000005,67.0,85.0
9,5.716378837500001,5.85713495,67.0,103.0
10,5.968479337500001,6.1491513625000005,69.0,113.0
11,6.2205798375,6.626041475,72.0,113.0
12,6.7247808375,6.9768813375,69.0,108.0
13,7.2289818375,7.3613346,60.0,103.0
14,7.4810823375,8.0399051125,67.0,113.0
15,8.237383837500001,9.256290025,65.0,113.0
16,9.4978863375,9.6029282125,62.0,88.0
17,9.7499868375,9.8655329,62.0,88.0
18,10.0020873375,10.136540937500001,64.0,98.0
19,10.2541878375,10.514691687500001,65.0,108.0
20,10.7583888375,10.84872485,58.0,113.0
21,11.010489337500001,11.4390601875,58.0,113.0
22,12.018891337500001,12.174353312500001,65.0,103.0
23,12.2709918375,12.651243425,67.0,113.0
24,12.7751928375,12.93275565,60.0,108.0
25,13.0272933375,13.7625864625,60.0,113.0
26,14.0356953375,14.1365355375,60.0,82.0
27,14.287795837500001,14.642837375000001,60.0,103.0
28,14.791996837500001,15.2751894625,60.0,93.0
29,15.296197837500001,15.520987450000002,57.0,85.0
30,15.5482983375,16.134432,65.0,78.0
31,16.3045998375,18.710058775,62.0,93.0
32,35.9684388375,36.0944890875,65.0,85.0
33,36.2205393375,36.32768205,65.0,61.0
34,36.472639837500004,36.754152062500005,65.0,86.0
35,36.9768408375,37.079781875,57.0,81.0
36,37.228941337500004,37.798268300000004,57.0,79.0
37,37.9852428375,38.151209,62.0,83.0
38,38.2373433375,38.37809945,65.0,72.0
39,38.489443837500005,38.8066703,64.0,98.0
40,38.9936448375,39.1869218875,62.0,83.0
41,39.245745337500004,40.016752700000005,60.0,72.0
42,40.506247837500005,40.632298087500004,62.0,108.0
43,40.7583483375,40.8907011,62.0,76.0
44,41.0104488375,41.1364990875,62.0,76.0
45,41.262549337500005,41.4474230375,62.0,79.0
46,41.5146498375,41.791960387500005,60.0,98.0
47,42.018850837500004,42.1280943875,62.0,93.0
48,42.2709513375,42.457925875,60.0,85.0
49,42.7751523375,43.911705425,57.0,81.0
50,44.035654837500005,44.216326862500004,55.0,79.0
51,44.2877553375,44.4264106125,57.0,79.0
52,44.5398558375,44.899099050000004,58.0,88.0
53,45.0440568375,45.195317137500005,57.0,68.0
54,45.2961573375,46.07556805,58.0,88.0
55,46.052458837500005,46.17640825,62.0,103.0
56,46.3045593375,46.426407912500004,65.0,88.0
57,46.5566598375,46.9011971875,64.0,108.0
58,47.0608608375,47.252037050000006,62.0,85.0
59,47.3129613375,48.1511955,60.0,79.0
60,48.5734638375,48.684808225000005,62.0,113.0
61,48.825564337500005,48.9306062125,62.0,83.0
62,49.0776648375,49.205815925,62.0,81.0
63,49.3297653375,49.4978323375,65.0,85.0
64,49.581865837500004,49.8654789,64.0,98.0
65,50.0860668375,50.2163187625,60.0,71.0
66,50.3381673375,50.4978309875,64.0,81.0
67,50.842368337500005,52.247828625000004,62.0,93.0
68,54.1196748375,54.24362425,65.0,81.0
69,54.371775337500004,54.5020272625,65.0,78.0
70,54.6238758375,54.836060425,65.0,98.0
71,55.128076837500004,55.239421225,57.0,82.0
72,55.3801773375,55.735218875,57.0,85.0
73,56.1364788375,56.287739137500004,62.0,98.0
74,56.388579337500005,56.523032937500005,65.0,88.0
75,56.6406798375,57.0692506875,64.0,108.0
76,57.144880837500004,57.2835361125,62.0,103.0
77,57.3969813375,58.191097912500005,60.0,93.0
78,58.6574838375,58.7562232,62.0,98.0
79,58.9095843375,59.0104245375,62.0,81.0
80,59.161684837500005,59.25202085,62.0,76.0
81,59.4137853375,59.567146475,62.0,85.0
82,59.6658858375,59.9347930375,60.0,93.0
83,60.1700868375,60.273027875000004,62.0,108.0
84,60.422187337500006,60.560842612500004,60.0,113.0
85,60.9263883375,62.1196640375,57.0,85.0
86,62.1868908375,62.3423528125,55.0,85.0
87,62.438991337500006,62.546134050000006,57.0,81.0
88,62.691091837500004,63.020923325000005,58.0,98.0
89,63.195292837500006,64.02092197500001,57.0,93.0
90,64.20369483750001,64.331845925,62.0,113.0
91,64.4557953375,64.617559825,65.0,86.0
92,64.7078958375,65.0440298375,64.0,108.0
93,65.2120968375,65.36965965,62.0,88.0
94,65.4641973375,66.18688543750001,60.0,93.0
95,66.7246998375,66.8339433875,62.0,86.0
96,66.97680033750001,67.0776405375,62.0,82.0
97,67.2289008375,67.3612536,62.0,98.0
98,67.4810013375,67.617555775,65.0,88.0
99,67.7331018375,68.012513225,67.0,98.0
100,68.23730283750001,68.39066397500001,64.0,98.0
101,68.48940333750001,68.60494940000001,60.0,86.0
102,68.7415038375,69.0104110375,64.0,108.0
103,69.2457048375,70.72259360000001,62.0,108.0
104,72.0188103375,72.10704551250001,65.0,108.0
105,72.2709108375,72.365448525,65.0,108.0
106,72.52301133750001,72.61334735,67.0,108.0
107,72.7751118375,73.14696007500001,69.0,113.0
108,73.2793128375,73.36964885,62.0,85.0
109,73.78351383750001,73.9830934,62.0,113.0
110,74.03561433750001,74.4347734625,69.0,98.0
111,74.7919158375,75.8003178375,67.0,113.0
112,76.0524183375,76.1511577,67.0,93.0
113,76.3045188375,76.4431741125,67.0,88.0
114,76.55661933750001,76.77090476250001,69.0,113.0
115,76.8087198375,77.12594630000001,72.0,113.0
116,77.3129208375,77.53771045,69.0,93.0
117,77.8171218375,78.00199553750001,60.0,98.0
118,78.06922233750001,78.6700618625,67.0,113.0
119,78.8255238375,79.60493455000001,65.0,108.0
120,80.0860263375,80.17636235,62.0,103.0
121,80.3381268375,80.4473703875,62.0,103.0
122,80.59022733750001,80.6994708875,64.0,98.0
123,80.84232783750001,81.1028316875,65.0,108.0
124,81.3465288375,81.43686485,58.0,113.0
125,81.5986293375,82.24988896250001,58.0,113.0
126,82.6070313375,82.74778745,65.0,108.0
127,82.8591318375,83.13434155,67.0,113.0
128,83.36333283750001,83.47467722500001,60.0,93.0
129,83.61543333750001,84.2372812375,60.0,98.0
130,84.6238353375,84.8297174125,60.0,98.0
131,84.87593583750001,85.28559915000001,70.0,113.0
132,85.3801368375,85.75198507500001,69.0,113.0
133,85.8843378375,86.054505675,69.0,113.0
134,86.13643833750001,86.59021923750001,67.0,113.0
135,86.6406393375,88.1007214,69.0,113.0
136,88.1532423375,88.26038505000001,65.0,88.0
137,88.4053428375,88.5439981125,65.0,82.0
138,88.6574433375,88.7834935875,67.0,98.0
139,88.90954383750001,89.21836695,69.0,113.0
140,89.4137448375,89.75408051250001,62.0,113.0
141,89.9179458375,90.037693575,62.0,108.0
142,90.17004633750001,90.7624825125,69.0,113.0
143,90.9263478375,91.93474983750001,67.0,113.0
144,92.1868503375,92.28979137500001,67.0,85.0
145,92.4389508375,92.57970695,67.0,103.0
146,92.6910513375,92.8717233625,69.0,113.0
147,92.94315183750001,93.34861347500001,72.0,113.0
148,93.4473528375,93.6994533375,69.0,108.0
149,93.9515538375,94.0839066,60.0,103.0
150,94.2036543375,94.76247711250001,67.0,113.0
151,94.9599558375,95.978862025,65.0,113.0
152,96.2204583375,96.3255002125,62.0,88.0
153,96.4725588375,96.5881049,62.0,88.0
154,96.7246593375,96.8591129375,64.0,98.0
155,96.9767598375,97.2372636875,65.0,108.0
156,97.4809608375,97.57129685000001,58.0,113.0
157,97.7330613375,98.1616321875,58.0,113.0
158,98.74146333750001,98.8969253125,65.0,103.0
159,98.9935638375,99.373815425,67.0,113.0
160,99.4977648375,99.65532765,60.0,108.0
161,99.74986533750001,100.48515846250001,60.0,113.0
162,101.0103678375,101.12171222500001,60.0,103.0
163,101.26246833750001,101.37381272500001,60.0,88.0
164,101.51456883750001,102.09439998750001,60.0,113.0
165,102.2708703375,102.47465157500001,57.0,108.0
166,102.52297083750001,103.09860031250001,65.0,113.0
167,103.2792723375,105.3843115125,62.0,113.0
168,120.67420683750001,120.79815625,65.0,81.0
169,120.9263073375,121.0565592625,65.0,78.0
170,121.1784078375,121.39059242500001,65.0,98.0
171,121.68260883750001,121.79395322500001,57.0,82.0
172,121.93470933750001,122.28975087500001,57.0,85.0
173,122.6910108375,122.8422711375,62.0,98.0
174,122.9431113375,123.0775649375,65.0,88.0
175,123.19521183750001,123.62378268750001,64.0,108.0
176,123.6994128375,123.83806811250001,62.0,103.0
177,123.9515133375,124.74562991250001,60.0,93.0
178,125.2120158375,125.3107552,62.0,98.0
179,125.4641163375,125.56495653750001,62.0,81.0
180,125.7162168375,125.80655285,62.0,76.0
181,125.96831733750001,126.12167847500001,62.0,85.0
182,126.22041783750001,126.48932503750001,60.0,93.0
183,126.7246188375,126.827559875,62.0,108.0
184,126.9767193375,127.1153746125,60.0,113.0
185,127.48092033750001,128.6741960375,57.0,85.0
186,128.7414228375,128.89688481250002,55.0,85.0
187,128.9935233375,129.10066605,57.0,81.0
188,129.2456238375,129.575455325,58.0,98.0
189,129.7498248375,130.57545397500002,57.0,93.0
190,130.75822683750002,130.886377925,62.0,113.0
191,131.0103273375,131.172091825,65.0,86.0
192,131.2624278375,131.5985618375,64.0,108.0
193,131.7666288375,131.92419165,62.0,88.0
194,132.01872933750002,132.74141743750002,60.0,93.0
195,133.2792318375,133.3884753875,62.0,86.0
196,133.5313323375,133.6321725375,62.0,82.0
197,133.78343283750002,133.9157856,62.0,98.0
198,134.0355333375,134.172087775,65.0,88.0
199,134.2876338375,134.56704522500002,67.0,98.0
200,134.7918348375,134.94519597500002,64.0,98.0
201,135.04393533750002,135.1594814,60.0,86.0
202,135.2960358375,135.5649430375,64.0,108.0
203,135.8002368375,137.2771256,62.0,108.0
204,138.5733423375,138.6615775125,65.0,108.0
205,138.82544283750002,138.919980525,65.0,108.0
206,139.0775433375,139.16787935,67.0,108.0
207,139.32964383750002,139.701492075,69.0,113.0
208,139.8338448375,139.92418085,62.0,85.0
209,140.3380458375,140.5376254,62.0,113.0
210,140.59014633750002,140.9893054625,69.0,98.0
211,141.3464478375,142.3548498375,67.0,113.0
212,142.6069503375,142.7056897,67.0,93.0
213,142.8590508375,142.9977061125,67.0,88.0
214,143.11115133750002,143.3254367625,69.0,113.0
215,143.3632518375,143.6804783,72.0,113.0
216,143.8674528375,144.09224245000001,69.0,93.0
217,144.37165383750002,144.55652753750002,60.0,98.0
218,144.6237543375,145.2245938625,67.0,113.0
219,145.3800558375,146.15946655000002,65.0,108.0
220,146.6405583375,146.73089435,62.0,103.0
221,146.8926588375,147.0019023875,62.0,103.0
222,147.1447593375,147.2540028875,64.0,98.0
223,147.39685983750002,147.6573636875,65.0,108.0
224,147.9010608375,147.99139685,58.0,113.0
225,148.1531613375,148.80442096250002,58.0,113.0
226,149.1615633375,149.30231945,65.0,108.0
227,149.4136638375,149.68887355,67.0,113.0
228,149.91786483750002,150.02920922500002,60.0,93.0
229,150.1699653375,150.7918132375,60.0,98.0
230,151.17836733750002,151.3842494125,60.0,98.0
231,151.4304678375,151.84013115000002,70.0,113.0
232,151.9346688375,152.30651707500002,69.0,113.0
233,152.4388698375,152.609037675,69.0,113.0
234,152.6909703375,153.1447512375,67.0,113.0
235,153.1951713375,154.65525340000002,69.0,113.0
236,154.7077743375,154.81491705000002,65.0,88.0
237,154.9598748375,155.09853011250001,65.0,82.0
238,155.2119753375,155.3380255875,67.0,98.0
239,155.46407583750002,155.77289895,69.0,113.0
240,155.9682768375,156.30861251250002,62.0,113.0
241,156.4724778375,156.59222557500001,62.0,108.0
242,156.72457833750002,157.3170145125,69.0,113.0
243,157.4808798375,158.48928183750002,67.0,113.0
244,158.7413823375,158.84432337500002,67.0,85.0
245,158.9934828375,159.13423895,67.0,103.0
246,159.2455833375,159.4262553625,69.0,113.0
247,159.4976838375,159.903145475,72.0,113.0
248,160.0018848375,160.2539853375,69.0,108.0
249,160.5060858375,160.6384386,60.0,103.0
250,160.7581863375,161.31700911250002,67.0,113.0
251,161.5144878375,162.533394025,65.0,113.0
252,162.77499033750001,162.8800322125,62.0,88.0
253,163.0270908375,163.1426369,62.0,88.0
254,163.2791913375,163.4136449375,64.0,98.0
255,163.53129183750002,163.7917956875,65.0,108.0
256,164.03549283750002,164.12582885,58.0,113.0
257,164.2875933375,164.7161641875,58.0,113.0
258,165.29599533750002,165.4514573125,65.0,103.0
259,165.5480958375,165.928347425,67.0,113.0
260,166.0522968375,166.20985965,60.0,108.0
261,166.3043973375,167.0396904625,60.0,113.0
262,167.5648998375,167.676244225,60.0,103.0
263,167.81700033750002,167.92834472500002,60.0,88.0
264,168.0691008375,168.64893198750002,60.0,113.0
265,168.8254023375,169.02918357500002,57.0,108.0
266,169.07750283750002,169.65313231250002,65.0,113.0
267,169.58170383750002,170.8253996375,62.0,113.0
268,171.0943068375,171.2875838875,62.0,98.0
269,171.3464073375,171.5354827125,64.0,103.0
270,171.5985078375,171.9262384875,65.0,108.0
271,172.10270883750002,172.2077507125,65.0,113.0
272,172.3548093375,172.61321235,65.0,113.0
273,172.8590103375,173.415732275,69.0,113.0
274,173.6153118375,174.3632099875,67.0,113.0
275,175.12791483750001,175.3548052875,64.0,113.0
276,175.3800153375,175.5522840125,62.0,83.0
277,175.6321158375,175.9514431375,60.0,113.0
278,176.1363168375,176.31488802500002,57.0,108.0
279,176.38841733750002,176.6615262125,60.0,103.0
280,176.8926183375,177.5606846625,67.0,113.0
281,177.64891983750002,178.802279625,65.0,113.0
282,179.1615228375,179.28967392500002,62.0,98.0
283,179.4136233375,179.55648028750002,64.0,113.0
284,179.6657238375,179.9661436,65.0,113.0
285,180.16992483750002,180.31068095,65.0,113.0
286,180.4220253375,180.810680275,65.0,113.0
287,180.9262263375,181.5312675375,69.0,98.0
288,181.6825278375,182.6951315125,67.0,108.0
289,183.19513083750002,183.4115171,67.0,113.0
290,183.4472313375,183.6131975,65.0,79.0
291,183.6993318375,184.0480708625,70.0,113.0
292,184.2035328375,184.4640366875,70.0,113.0
293,184.7077338375,184.80857403750002,69.0,113.0
294,184.9598343375,185.5354638125,67.0,113.0
295,185.4640353375,187.768654075,69.0,108.0
296,188.9934423375,189.08167751250002,65.0,108.0
297,189.2455428375,189.34008052500002,65.0,108.0
298,189.49764333750002,189.58797935,67.0,108.0
299,189.7497438375,190.121592075,69.0,113.0
300,190.2539448375,190.34428085000002,62.0,85.0
301,190.7581458375,190.95772540000002,62.0,113.0
302,191.0102463375,191.40940546250002,69.0,98.0
303,191.7665478375,192.7749498375,67.0,113.0
304,193.02705033750001,193.1257897,67.0,93.0
305,193.2791508375,193.41780611250002,67.0,88.0
306,193.5312513375,193.7455367625,69.0,113.0
307,193.78335183750002,194.1005783,72.0,113.0
308,194.28755283750002,194.51234245,69.0,93.0
309,194.7917538375,194.9766275375,60.0,98.0
310,195.04385433750002,195.64469386250002,67.0,113.0
311,195.8001558375,196.57956655,65.0,108.0
312,197.0606583375,197.15099435000002,62.0,103.0
313,197.3127588375,197.42200238750002,62.0,103.0
314,197.5648593375,197.6741028875,64.0,98.0
315,197.8169598375,198.0774636875,65.0,108.0
316,198.3211608375,198.41149685000002,58.0,113.0
317,198.5732613375,199.2245209625,58.0,113.0
318,199.5816633375,199.72241945000002,65.0,108.0
319,199.83376383750002,200.10897355,67.0,113.0
320,200.3379648375,200.449309225,60.0,93.0
321,200.59006533750002,201.2119132375,60.0,98.0
322,201.5984673375,201.80434941250002,60.0,98.0
323,201.85056783750002,202.26023115,70.0,113.0
324,202.35476883750002,202.726617075,69.0,113.0
325,202.8589698375,203.02913767500002,69.0,113.0
326,203.1110703375,203.56485123750002,67.0,113.0
327,203.61527133750002,205.0753534,69.0,113.0
328,205.1278743375,205.23501705,65.0,88.0
329,205.37997483750001,205.5186301125,65.0,82.0
330,205.6320753375,205.75812558750002,67.0,98.0
331,205.8841758375,206.19299895,69.0,113.0
332,206.3883768375,206.7287125125,62.0,113.0
333,206.8925778375,207.012325575,62.0,108.0
334,207.1446783375,207.7371145125,69.0,113.0
335,207.90097983750002,208.9093818375,67.0,113.0
336,209.16148233750002,209.264423375,67.0,85.0
337,209.4135828375,209.55433895000002,67.0,103.0
338,209.6656833375,209.84635536250002,69.0,113.0
339,209.9177838375,210.32324547500002,72.0,113.0
340,210.42198483750002,210.6740853375,69.0,108.0
341,210.92618583750001,211.05853860000002,60.0,103.0
342,211.1782863375,211.7371091125,67.0,113.0
343,211.9345878375,212.953494025,65.0,113.0
344,213.1950903375,213.30013221250002,62.0,88.0
345,213.44719083750002,213.5627369,62.0,88.0
346,213.6992913375,213.8337449375,64.0,98.0
347,213.9513918375,214.2118956875,65.0,108.0
348,214.4555928375,214.54592885000002,58.0,113.0
349,214.70769333750002,215.13626418750002,58.0,113.0
350,215.7160953375,215.87155731250002,65.0,103.0
351,215.96819583750002,216.34844742500002,67.0,113.0
352,216.4723968375,216.62995965000002,60.0,108.0
353,216.7244973375,217.45979046250002,60.0,113.0
354,217.9849998375,218.09634422500002,60.0,103.0
355,218.2371003375,218.348444725,60.0,88.0
356,218.48920083750002,219.0690319875,60.0,113.0
357,219.2455023375,219.449283575,57.0,108.0
358,219.4976028375,220.0732323125,65.0,113.0
359,220.0018038375,221.24549963750002,62.0,113.0
