,start,end,pitch,velocity
0,20.9775,21.26625,61.0,99.0
1,21.2775,21.51625,64.0,43.0
2,21.5775,21.66875,66.0,89.0
3,21.8775,22.01,66.0,102.0
4,22.177500000000002,22.31125,64.0,97.0
5,22.4775,22.80125,64.0,92.0
6,22.7775,23.02625,61.0,102.0
7,23.3775,23.62,61.0,102.0
8,23.677500000000002,23.903750000000002,64.0,97.0
9,23.9775,24.1375,68.0,107.0
10,24.2775,24.4575,68.0,99.0
11,24.5775,24.88875,68.0,112.0
12,24.8775,25.3825,66.0,112.0
13,25.7775,26.195,66.0,112.0
14,26.3775,26.51625,66.0,122.0
15,26.677500000000002,26.81375,66.0,117.0
16,26.9775,27.12,66.0,107.0
17,27.2775,27.4875,66.0,122.0
18,27.5775,27.7775,59.0,97.0
19,27.8775,28.05,59.0,92.0
20,28.177500000000002,28.44125,57.0,97.0
21,28.4775,28.73125,59.0,112.0
22,28.7775,28.9525,61.0,100.0
23,29.0775,29.26125,61.0,107.0
24,29.3775,29.59625,64.0,93.0
25,29.677500000000002,30.23375,61.0,107.0
26,30.5775,30.712500000000002,64.0,83.0
27,30.8775,31.12,64.0,90.0
28,31.177500000000002,31.306250000000002,66.0,107.0
29,31.4775,31.68625,66.0,99.0
30,31.7775,31.94875,61.0,96.0
31,32.0775,32.42,59.0,90.0
32,32.9775,33.24375,59.0,96.0
33,33.2775,33.5525,61.0,99.0
34,33.5775,33.725,64.0,92.0
35,33.8775,34.04875,64.0,93.0
36,34.1775,34.3575,68.0,97.0
37,34.4775,34.9325,66.0,99.0
38,35.3775,35.7775,66.0,100.0
39,35.9775,36.1025,66.0,112.0
40,36.2775,36.417500000000004,66.0,112.0
41,36.5775,36.7175,66.0,117.0
42,36.8775,37.05375,66.0,127.0
43,37.1775,37.275,59.0,88.0
44,37.4775,37.70375,59.0,96.0
45,37.7775,37.98625,57.0,76.0
46,38.0775,38.285000000000004,59.0,96.0
47,38.3775,38.5125,57.0,81.0
48,38.6775,38.9675,57.0,92.0
49,38.9775,39.09,56.0,88.0
50,39.2775,39.65,54.0,95.0
51,40.1775,40.46625,61.0,99.0
52,40.4775,40.71625,64.0,43.0
53,40.7775,40.86875,66.0,89.0
54,41.0775,41.21,66.0,102.0
55,41.3775,41.511250000000004,64.0,97.0
56,41.6775,42.00125,64.0,92.0
57,41.9775,42.22625,61.0,102.0
58,42.5775,42.82,61.0,102.0
59,42.8775,43.10375,64.0,97.0
60,43.1775,43.3375,68.0,107.0
61,43.4775,43.6575,68.0,99.0
62,43.7775,44.08875,68.0,112.0
63,44.0775,44.5825,66.0,112.0
64,44.9775,45.395,66.0,112.0
65,45.5775,45.71625,66.0,122.0
66,45.8775,46.01375,66.0,117.0
67,46.1775,46.32,66.0,107.0
68,46.4775,46.6875,66.0,122.0
69,46.7775,46.9775,66.0,97.0
70,47.0775,47.25,59.0,92.0
71,47.3775,47.64125,57.0,97.0
72,47.6775,47.93125,59.0,112.0
73,47.9775,48.1525,61.0,100.0
74,48.2775,48.46125,61.0,107.0
75,48.5775,48.79625,68.0,93.0
76,48.8775,49.43375,64.0,107.0
77,49.7775,49.9125,64.0,83.0
78,50.0775,50.32,64.0,90.0
79,50.3775,50.50625,66.0,107.0
80,50.6775,50.886250000000004,66.0,99.0
81,50.9775,51.14875,61.0,96.0
82,51.2775,51.620000000000005,59.0,90.0
83,52.1775,52.44375,59.0,96.0
84,52.4775,52.7525,61.0,99.0
85,52.7775,52.925000000000004,64.0,92.0
86,53.0775,53.24875,64.0,93.0
87,53.3775,53.557500000000005,68.0,97.0
88,53.6775,54.1325,66.0,99.0
89,54.5775,54.9775,66.0,100.0
90,55.1775,55.3025,66.0,112.0
91,55.4775,55.6175,66.0,112.0
92,55.7775,55.917500000000004,66.0,117.0
93,56.0775,56.253750000000004,66.0,127.0
94,56.3775,56.475,59.0,88.0
95,56.6775,56.90375,59.0,96.0
96,56.9775,57.18625,57.0,76.0
97,57.2775,57.485,59.0,96.0
98,57.5775,57.7125,57.0,81.0
99,57.8775,58.167500000000004,57.0,92.0
100,58.1775,58.335,61.0,117.0
101,58.4775,58.655,61.0,127.0
102,59.0775,59.2975,69.0,102.0
103,59.3775,59.5025,71.0,100.0
104,59.6775,60.025,73.0,127.0
105,60.2775,60.52125,66.0,127.0
106,60.5775,60.7825,73.0,127.0
107,60.8775,61.23625,71.0,117.0
108,61.4775,61.682500000000005,69.0,112.0
109,61.7775,61.93125,71.0,97.0
110,62.0775,62.24875,73.0,122.0
111,62.377500000000005,62.52125,66.0,122.0
112,62.6775,62.838750000000005,66.0,117.0
113,62.9775,63.221250000000005,69.0,95.0
114,63.2775,63.60875,66.0,107.0
115,64.1775,64.4525,66.0,127.0
116,64.4775,64.685,69.0,96.0
117,64.7775,64.92875000000001,71.0,112.0
118,65.0775,65.2075,71.0,117.0
119,65.3775,65.52875,71.0,112.0
120,65.6775,65.91625,71.0,117.0
121,65.9775,66.11125,64.0,107.0
122,66.2775,66.42625,64.0,97.0
123,66.5775,66.7525,61.0,117.0
124,66.8775,67.21625,66.0,117.0
125,67.3275,67.60375,66.0,117.0
126,67.7775,67.93875,68.0,127.0
127,68.0775,68.3275,68.0,127.0
128,68.6775,68.89750000000001,69.0,102.0
129,68.9775,69.1025,71.0,100.0
130,69.2775,69.625,73.0,127.0
131,69.8775,70.12125,66.0,127.0
132,70.1775,70.38250000000001,73.0,127.0
133,70.4775,70.83625,71.0,117.0
134,71.0775,71.2825,69.0,112.0
135,71.3775,71.53125,71.0,97.0
136,71.6775,71.84875,73.0,122.0
137,71.9775,72.12125,66.0,122.0
138,72.2775,72.43875,66.0,117.0
139,72.5775,72.82125,69.0,95.0
140,72.8775,73.20875,66.0,107.0
141,73.7775,74.0525,66.0,127.0
142,74.0775,74.285,69.0,96.0
143,74.3775,74.52875,71.0,112.0
144,74.6775,74.8075,71.0,117.0
145,74.9775,75.12875,71.0,112.0
146,75.2775,75.51625,71.0,117.0
147,75.8775,76.1675,71.0,127.0
148,76.1775,76.3375,69.0,112.0
149,76.4775,76.70625,69.0,117.0
150,76.7775,76.97875,69.0,112.0
151,77.0775,77.32625,71.0,117.0
152,77.3775,77.5175,73.0,117.0
153,77.6775,78.0575,73.0,127.0
154,78.2775,78.56875000000001,69.0,100.0
155,78.8775,79.875,66.0,102.0
156,100.17750000000001,100.46625,61.0,99.0
157,100.4775,100.71625,64.0,43.0
158,100.7775,100.86875,66.0,89.0
159,101.0775,101.21000000000001,66.0,102.0
160,101.3775,101.51125,64.0,97.0
161,101.67750000000001,102.00125,64.0,92.0
162,101.9775,102.22625000000001,61.0,102.0
163,102.5775,102.82000000000001,61.0,102.0
164,102.8775,103.10375,64.0,97.0
165,103.17750000000001,103.3375,68.0,107.0
166,103.4775,103.6575,68.0,99.0
167,103.7775,104.08875,68.0,112.0
168,104.0775,104.5825,66.0,112.0
169,104.9775,105.395,66.0,112.0
170,105.5775,105.71625,66.0,122.0
171,105.8775,106.01375,66.0,117.0
172,106.17750000000001,106.32000000000001,66.0,107.0
173,106.4775,106.6875,66.0,122.0
174,106.7775,106.9775,66.0,97.0
175,107.0775,107.25,59.0,92.0
176,107.3775,107.64125,57.0,97.0
177,107.67750000000001,107.93125,59.0,112.0
178,107.9775,108.1525,61.0,100.0
179,108.2775,108.46125,61.0,107.0
180,108.5775,108.79625,68.0,93.0
181,108.8775,109.43375,64.0,107.0
182,109.7775,109.91250000000001,64.0,83.0
183,110.0775,110.32000000000001,64.0,90.0
184,110.3775,110.50625000000001,66.0,107.0
185,110.67750000000001,110.88625,66.0,99.0
186,110.9775,111.14875,61.0,96.0
187,111.2775,111.62,59.0,90.0
188,112.17750000000001,112.44375000000001,59.0,96.0
189,112.4775,112.7525,61.0,99.0
190,112.7775,112.925,64.0,92.0
191,113.0775,113.24875,64.0,93.0
192,113.3775,113.5575,68.0,97.0
193,113.67750000000001,114.13250000000001,66.0,99.0
194,114.5775,114.9775,66.0,100.0
195,115.17750000000001,115.30250000000001,66.0,112.0
196,115.4775,115.6175,66.0,112.0
197,115.7775,115.9175,66.0,117.0
198,116.0775,116.25375,66.0,127.0
199,116.3775,116.47500000000001,59.0,88.0
200,116.67750000000001,116.90375,59.0,96.0
201,116.9775,117.18625,57.0,76.0
202,117.2775,117.485,59.0,96.0
203,117.5775,117.7125,57.0,81.0
204,117.8775,118.1675,57.0,92.0
205,118.17750000000001,118.33500000000001,61.0,117.0
206,118.4775,118.655,61.0,127.0
207,119.0775,119.2975,69.0,102.0
208,119.3775,119.5025,71.0,100.0
209,119.67750000000001,120.025,73.0,127.0
210,120.2775,120.52125000000001,66.0,127.0
211,120.5775,120.7825,73.0,127.0
212,120.8775,121.23625,71.0,117.0
213,121.4775,121.6825,69.0,112.0
214,121.7775,121.93125,71.0,97.0
215,122.0775,122.24875,73.0,122.0
216,122.3775,122.52125000000001,66.0,122.0
217,122.67750000000001,122.83875,66.0,117.0
218,122.9775,123.22125,69.0,95.0
219,123.2775,123.60875,66.0,107.0
220,124.17750000000001,124.4525,66.0,127.0
221,124.4775,124.685,69.0,96.0
222,124.7775,124.92875000000001,71.0,112.0
223,125.0775,125.2075,71.0,117.0
224,125.3775,125.52875,71.0,112.0
225,125.67750000000001,125.91625,71.0,117.0
226,125.9775,126.11125,64.0,107.0
227,126.2775,126.42625,64.0,97.0
228,126.5775,126.7525,61.0,117.0
229,126.8775,127.21625,66.0,117.0
230,127.3275,127.60375,66.0,117.0
231,127.7775,127.93875,68.0,127.0
232,128.07750000000001,128.32750000000001,68.0,127.0
233,128.6775,128.8975,69.0,102.0
234,128.9775,129.1025,71.0,100.0
235,129.2775,129.625,73.0,127.0
236,129.8775,130.12125,66.0,127.0
237,130.1775,130.3825,73.0,127.0
238,130.4775,130.83625,71.0,117.0
239,131.07750000000001,131.2825,69.0,112.0
240,131.3775,131.53125,71.0,97.0
241,131.6775,131.84875,73.0,122.0
242,131.9775,132.12125,66.0,122.0
243,132.2775,132.43875,66.0,117.0
244,132.57750000000001,132.82125,69.0,95.0
245,132.8775,133.20875,66.0,107.0
246,133.7775,134.0525,66.0,127.0
247,134.07750000000001,134.285,69.0,96.0
248,134.3775,134.52875,71.0,112.0
249,134.6775,134.8075,71.0,117.0
250,134.9775,135.12875,71.0,112.0
251,135.2775,135.51625,71.0,117.0
252,135.8775,136.1675,71.0,127.0
253,136.1775,136.3375,69.0,112.0
254,136.4775,136.70625,69.0,117.0
255,136.7775,136.97875,69.0,112.0
256,137.07750000000001,137.32625000000002,71.0,117.0
257,137.3775,137.5175,73.0,117.0
258,137.6775,138.0575,73.0,127.0
259,138.2775,138.56875,69.0,100.0
260,138.8775,139.875,66.0,102.0
261,143.5275,143.60125,59.0,89.0
262,143.6775,143.76625,61.0,127.0
263,143.82750000000001,143.92875,61.0,117.0
264,144.1275,144.23,59.0,89.0
265,144.2775,144.35625000000002,61.0,117.0
266,144.4275,144.52125,61.0,99.0
267,144.7275,144.815,59.0,93.0
268,144.8775,144.9475,61.0,117.0
269,145.0275,145.095,61.0,82.0
270,145.1775,145.2675,61.0,97.0
271,145.32750000000001,145.42875,59.0,82.0
272,145.4775,145.5325,61.0,127.0
273,145.6275,145.69625,61.0,112.0
274,145.7775,145.84375,61.0,88.0
275,145.9275,146.01375000000002,61.0,122.0
276,146.07750000000001,146.13875000000002,59.0,97.0
277,146.2275,146.29625000000001,59.0,93.0
278,146.3775,146.44625,59.0,79.0
279,146.5275,146.5925,59.0,89.0
280,146.6775,146.72875,59.0,117.0
281,146.82750000000001,146.88625,59.0,96.0
282,146.9775,147.0375,59.0,82.0
283,147.1275,147.1925,59.0,90.0
284,147.2775,147.335,59.0,112.0
285,147.2775,147.365,71.0,127.0
286,147.57750000000001,147.67375,71.0,127.0
287,147.8775,148.2575,69.0,117.0
288,148.1775,148.29,61.0,127.0
289,148.32750000000001,148.42125000000001,59.0,93.0
290,148.4775,148.56625,61.0,127.0
291,148.7775,148.92625,61.0,117.0
292,148.9275,149.03625,59.0,92.0
293,149.07750000000001,149.15875,61.0,127.0
294,149.3775,149.50625,61.0,127.0
295,149.5275,149.6275,59.0,89.0
296,149.6775,149.81875,61.0,112.0
297,149.82750000000001,149.92375,59.0,88.0
298,149.9775,150.10875000000001,61.0,117.0
299,150.1275,150.22625,59.0,92.0
300,150.2775,150.33375,61.0,127.0
301,150.57750000000001,150.6425,61.0,127.0
302,150.8775,150.94125,59.0,100.0
303,151.0275,151.0975,59.0,88.0
304,151.1775,151.24125,59.0,100.0
305,151.32750000000001,151.38750000000002,59.0,100.0
306,151.4775,151.52875,59.0,112.0
307,151.7775,151.8425,59.0,93.0
308,151.9275,151.99125,59.0,88.0
309,152.07750000000001,152.14625,59.0,107.0
310,152.3775,152.49875,71.0,117.0
311,152.3775,152.53125,59.0,102.0
312,152.6775,152.9625,69.0,112.0
313,152.6775,153.125,61.0,122.0
314,153.2775,153.3525,61.0,127.0
315,153.57750000000001,153.67000000000002,61.0,122.0
316,153.8775,153.97625,61.0,127.0
317,154.1775,154.3125,61.0,127.0
318,154.32750000000001,154.4325,59.0,96.0
319,154.4775,154.55125,61.0,127.0
320,154.6275,154.7275,59.0,99.0
321,154.7775,154.88875000000002,61.0,112.0
322,154.9275,155.00125,59.0,93.0
323,155.07750000000001,155.14375,61.0,127.0
324,155.3775,155.61,61.0,127.0
325,155.6775,155.7975,59.0,117.0
326,155.9775,156.07625000000002,59.0,122.0
327,156.2775,156.35750000000002,59.0,112.0
328,156.4275,156.4975,59.0,79.0
329,156.57750000000001,156.63875000000002,59.0,73.0
330,156.7275,156.79,59.0,88.0
331,156.8775,156.93,59.0,100.0
332,156.8775,156.94375,71.0,122.0
333,157.0275,157.0925,71.0,93.0
334,157.1775,157.25375,71.0,122.0
335,157.4775,157.83,69.0,127.0
336,157.7775,157.91,61.0,127.0
337,157.9275,158.02,59.0,92.0
338,158.07750000000001,158.175,61.0,122.0
339,158.3775,158.53125,61.0,127.0
340,158.5275,158.60875000000001,59.0,93.0
341,158.6775,158.7575,61.0,127.0
342,158.9775,159.11875,61.0,127.0
343,159.1275,159.21625,59.0,85.0
344,159.2775,159.3725,61.0,127.0
345,159.4275,159.5475,59.0,82.0
346,159.57750000000001,159.705,61.0,107.0
347,159.7275,159.8525,59.0,79.0
348,159.8775,159.93875,61.0,127.0
349,160.1775,160.23375000000001,61.0,127.0
350,160.32750000000001,160.4375,61.0,102.0
351,160.4775,160.5425,59.0,96.0
352,160.6275,160.69375,59.0,92.0
353,160.7775,160.83625,59.0,81.0
354,160.9275,160.98875,59.0,93.0
355,161.07750000000001,161.1325,59.0,102.0
356,161.3775,161.4325,59.0,99.0
357,161.5275,161.585,59.0,89.0
358,161.6775,161.755,59.0,112.0
359,161.9775,162.05,59.0,107.0
360,162.2775,162.4975,69.0,102.0
361,162.2775,162.5675,61.0,127.0
362,162.57750000000001,162.70250000000001,71.0,100.0
363,162.8775,163.225,73.0,127.0
364,163.4775,163.72125,66.0,127.0
365,163.7775,163.98250000000002,73.0,127.0
366,164.07750000000001,164.43625,71.0,117.0
367,164.6775,164.8825,69.0,112.0
368,164.9775,165.13125,71.0,97.0
369,165.2775,165.44875,73.0,122.0
370,165.57750000000001,165.72125,66.0,122.0
371,165.8775,166.03875,66.0,117.0
372,166.1775,166.42125000000001,69.0,95.0
373,166.4775,166.80875,66.0,107.0
374,167.3775,167.6525,66.0,127.0
375,167.6775,167.885,69.0,96.0
376,167.9775,168.12875,71.0,112.0
377,168.2775,168.4075,71.0,117.0
378,168.57750000000001,168.72875,71.0,112.0
379,168.8775,169.11625,71.0,117.0
380,169.1775,169.31125,64.0,107.0
381,169.4775,169.62625,64.0,97.0
382,169.7775,169.95250000000001,61.0,117.0
383,170.07750000000001,170.41625,66.0,117.0
384,170.5275,170.80375,66.0,117.0
385,170.9775,171.13875000000002,68.0,127.0
386,171.2775,171.5275,68.0,127.0
387,171.8775,172.0975,69.0,102.0
388,172.1775,172.3025,71.0,100.0
389,172.4775,172.82500000000002,73.0,127.0
390,173.07750000000001,173.32125,66.0,127.0
391,173.3775,173.5825,73.0,127.0
392,173.6775,174.03625,71.0,117.0
393,174.2775,174.48250000000002,69.0,112.0
394,174.57750000000001,174.73125000000002,71.0,97.0
395,174.8775,175.04875,73.0,122.0
396,175.1775,175.32125,66.0,122.0
397,175.4775,175.63875000000002,66.0,117.0
398,175.7775,176.02125,69.0,95.0
399,176.07750000000001,176.40875,66.0,107.0
400,176.9775,177.2525,66.0,127.0
401,177.2775,177.485,69.0,96.0
402,177.57750000000001,177.72875,71.0,112.0
403,177.8775,178.0075,71.0,117.0
404,178.1775,178.32875,71.0,112.0
405,178.4775,178.71625,71.0,117.0
406,179.07750000000001,179.3675,71.0,127.0
407,179.3775,179.5375,69.0,112.0
408,179.6775,179.90625,69.0,117.0
409,179.9775,180.17875,69.0,112.0
410,180.2775,180.52625,71.0,117.0
411,180.57750000000001,180.7175,73.0,117.0
412,180.8775,181.2575,73.0,127.0
413,181.4775,181.6975,69.0,100.0
414,181.4775,181.6975,69.0,102.0
415,181.7775,181.9025,71.0,100.0
416,182.07750000000001,182.425,73.0,127.0
417,182.6775,182.92125000000001,66.0,127.0
418,182.9775,183.1825,73.0,127.0
419,183.2775,183.63625,71.0,117.0
420,183.8775,184.0825,69.0,112.0
421,184.1775,184.33125,71.0,97.0
422,184.4775,184.64875,73.0,122.0
423,184.7775,184.92125000000001,66.0,122.0
424,185.07750000000001,185.23875,66.0,117.0
425,185.3775,185.62125,69.0,95.0
426,185.6775,186.00875,66.0,107.0
427,186.57750000000001,186.8525,66.0,127.0
428,186.8775,187.085,69.0,96.0
429,187.1775,187.32875,71.0,112.0
430,187.4775,187.60750000000002,71.0,117.0
431,187.7775,187.92875,71.0,112.0
432,188.07750000000001,188.31625,71.0,117.0
433,188.3775,188.51125,64.0,107.0
434,188.6775,188.82625000000002,64.0,97.0
435,188.9775,189.1525,61.0,117.0
436,189.2775,189.61625,66.0,117.0
437,189.7275,190.00375,66.0,117.0
438,190.1775,190.33875,68.0,127.0
439,190.4775,190.7275,68.0,127.0
440,191.07750000000001,191.2975,69.0,102.0
441,191.3775,191.5025,71.0,100.0
442,191.6775,192.025,73.0,127.0
443,192.2775,192.52125,66.0,127.0
444,192.57750000000001,192.7825,73.0,127.0
445,192.8775,193.23625,71.0,117.0
446,193.4775,193.6825,69.0,112.0
447,193.7775,193.93125,71.0,97.0
448,194.07750000000001,194.24875,73.0,122.0
449,194.3775,194.52125,66.0,122.0
450,194.6775,194.83875,66.0,117.0
451,194.9775,195.22125,69.0,95.0
452,195.2775,195.60875000000001,66.0,107.0
453,196.1775,196.45250000000001,66.0,127.0
454,196.4775,196.685,69.0,96.0
455,196.7775,196.92875,71.0,112.0
456,197.07750000000001,197.2075,71.0,117.0
457,197.3775,197.52875,71.0,112.0
458,197.6775,197.91625,71.0,117.0
459,198.2775,198.5675,71.0,127.0
460,198.57750000000001,198.7375,69.0,112.0
461,198.8775,199.10625000000002,69.0,117.0
462,199.1775,199.37875,69.0,112.0
463,199.4775,199.72625,71.0,117.0
464,199.7775,199.91750000000002,73.0,117.0
465,200.07750000000001,200.4575,73.0,127.0
466,200.6775,200.8975,69.0,100.0
467,200.6775,200.8975,69.0,102.0
468,200.9775,201.1025,71.0,100.0
469,201.2775,201.625,73.0,127.0
470,201.8775,202.12125,66.0,127.0
471,202.1775,202.3825,73.0,127.0
472,202.4775,202.83625,71.0,117.0
473,203.07750000000001,203.2825,69.0,112.0
474,203.3775,203.53125,71.0,97.0
475,203.6775,203.84875,73.0,122.0
476,203.9775,204.12125,66.0,122.0
477,204.2775,204.43875,66.0,117.0
478,204.57750000000001,204.82125,69.0,95.0
479,204.8775,205.20875,66.0,107.0
480,205.7775,206.0525,66.0,127.0
481,206.07750000000001,206.285,69.0,96.0
482,206.3775,206.52875,71.0,112.0
483,206.6775,206.8075,71.0,117.0
484,206.9775,207.12875,71.0,112.0
485,207.2775,207.51625,71.0,117.0
486,207.565,207.65125,71.0,127.0
487,207.8375,207.93375,71.0,117.0
488,208.12875,208.2375,69.0,102.0
489,208.43,208.65625,69.0,112.0
490,208.785,209.18375,69.0,112.0
491,209.35750000000002,209.53375,73.0,99.0
492,209.6625,209.98625,73.0,127.0
493,210.2775,210.4975,69.0,102.0
494,210.57750000000001,210.70250000000001,71.0,100.0
495,210.8775,211.225,73.0,127.0
496,211.4775,211.72125,66.0,127.0
497,211.7775,211.98250000000002,73.0,127.0
498,212.07750000000001,212.43625,71.0,117.0
499,212.6775,212.8825,69.0,112.0
500,212.9775,213.13125,71.0,97.0
501,213.2775,213.44875000000002,73.0,122.0
502,213.57750000000001,213.72125,66.0,122.0
503,213.8775,214.03875,66.0,117.0
504,214.1775,214.42125000000001,69.0,95.0
505,214.4775,214.80875,66.0,107.0
506,215.3775,215.6525,66.0,127.0
507,215.6775,215.885,69.0,96.0
508,215.9775,216.12875,71.0,112.0
509,216.2775,216.4075,71.0,117.0
510,216.57750000000001,216.72875,71.0,112.0
511,216.8775,217.11625,71.0,117.0
512,217.4775,217.7675,71.0,127.0
513,217.7775,217.9375,69.0,112.0
514,218.07750000000001,218.30625,69.0,117.0
515,218.3775,218.57875,69.0,112.0
516,218.6775,218.92625,71.0,117.0
517,218.9775,219.1175,73.0,117.0
518,219.2775,219.6575,73.0,127.0
519,219.8775,220.16875000000002,69.0,100.0
520,220.4775,221.475,66.0,102.0
