,start,end,pitch,velocity
0,8.099144666666666,8.601208991666667,61.0,90.0
1,8.595010666666667,9.180752379166666,70.0,93.0
2,9.338809666666666,9.4927347375,70.0,97.0
3,9.586742666666666,9.945212462499999,70.0,92.0
4,9.958642166666666,10.348103587499999,68.0,95.0
5,10.330541666666667,10.531987229166667,66.0,84.0
6,10.578474666666667,11.741693658333332,66.0,85.0
7,12.066072666666667,12.336732858333333,68.0,84.0
8,12.314005666666667,12.5454098,70.0,73.0
9,12.561938666666666,12.763384229166666,73.0,101.0
10,12.809871666666666,13.194167816666667,73.0,101.0
11,13.305737666666666,13.448299141666666,73.0,106.0
12,13.553670666666665,14.016478933333334,73.0,99.0
13,14.049536666666667,14.262345824999999,75.0,89.0
14,14.297469666666666,14.545402666666666,73.0,89.0
15,14.545402666666666,15.528870233333333,70.0,100.0
16,16.280933666666666,16.570188833333333,66.0,66.0
17,16.528866666666666,16.77266745,75.0,92.0
18,16.900766166666667,17.175558575,75.0,96.0
19,17.272665666666665,17.466879849999998,75.0,94.0
20,17.520598666666665,18.0712165375,75.0,95.0
21,18.016464666666668,18.273695154166667,73.0,89.0
22,18.264397666666667,18.503033179166668,75.0,86.0
23,18.512330666666667,19.001998341666667,73.0,95.0
24,19.008196666666667,19.82224335,70.0,91.0
25,19.999928666666666,20.2530269375,68.0,89.0
26,20.247861666666665,20.4947616125,70.0,77.0
27,20.495794666666665,20.670380820833334,71.0,78.0
28,20.743727666666665,20.896619683333334,71.0,76.0
29,20.991660666666665,21.246825045833333,71.0,74.0
30,21.239593666666664,21.481328341666664,70.0,66.0
31,21.487526666666668,21.86045922083333,66.0,61.0
32,21.859426166666665,22.485456991666666,63.0,54.0
33,22.231325666666667,22.81810043333333,66.0,64.0
34,22.479258666666666,23.236487370833334,68.0,64.0
35,24.214789666666665,24.450326016666665,61.0,65.0
36,24.462722666666664,25.020571916666665,70.0,94.0
37,25.206521666666667,25.374909495833332,70.0,105.0
38,25.454454666666667,25.832552491666664,70.0,97.0
39,25.826354166666665,26.258170808333333,68.0,97.0
40,26.198253666666666,26.39246785,66.0,87.0
41,26.446186666666666,27.664157529166665,66.0,87.0
42,27.809818166666666,28.1063047125,68.0,90.0
43,28.057751166666666,28.29122140833333,70.0,90.0
44,28.305684166666666,28.588741008333333,73.0,103.0
45,28.677583666666667,28.9058886375,73.0,99.0
46,29.049483166666665,29.2220032125,73.0,99.0
47,29.421382666666666,29.876959554166664,73.0,105.0
48,29.917248666666666,30.212702158333332,75.0,97.0
49,30.165181666666665,30.423445208333334,73.0,98.0
50,30.413114666666665,31.100095687499998,70.0,98.0
51,32.14864566666667,32.3831489625,66.0,76.0
52,32.39657866666666,32.677569399999996,75.0,95.0
53,32.76847816666667,33.010212841666664,75.0,98.0
54,33.140377666666666,33.266410275,75.0,100.0
55,33.38831066666666,33.73541686666667,75.0,96.0
56,33.88417666666667,34.140374099999995,73.0,103.0
57,34.132109666666665,34.448224241666665,75.0,93.0
58,34.38004266666667,34.742644679166666,73.0,97.0
59,34.751942166666666,35.67549259166667,70.0,87.0
60,35.86764066666667,36.15999499583333,68.0,90.0
61,36.11557366666666,36.415159375,70.0,90.0
62,36.363506666666666,36.706480649999996,71.0,93.0
63,36.735406166666664,36.836645475,71.0,89.0
64,36.859372666666665,37.084578475,71.0,68.0
65,37.10730566666667,37.345941179166665,70.0,87.0
66,37.355238666666665,37.705444029166664,66.0,84.0
67,37.72713816666666,38.23230165416666,63.0,64.0
68,38.22300416666666,38.51225933333333,65.0,81.0
69,38.470937166666666,39.143455429166664,66.0,86.0
70,39.83456866666666,39.98642762916666,61.0,90.0
71,40.082501666666666,40.273616687499995,61.0,89.0
72,40.33043466666666,40.600061804166664,70.0,97.0
73,40.70233416666667,40.924440812499995,70.0,97.0
74,41.074233666666665,41.214729033333334,70.0,96.0
75,41.32216666666667,41.62381848333333,70.0,99.0
76,41.694066166666666,42.030841824999996,68.0,97.0
77,42.06389955833333,42.315964775,66.0,83.0
78,42.31183255833333,43.293234016666666,73.0,100.0
79,43.801496666666665,44.06285937083333,70.0,90.0
80,44.04942966666666,44.33765177916666,73.0,97.0
81,44.297362666666665,44.88930270416667,75.0,99.0
82,45.04116166666667,45.17442565416666,75.0,96.0
83,45.289094666666664,45.59694480833333,75.0,95.0
84,45.66099416666666,46.01533174583333,78.0,97.0
85,46.032893666666666,46.33041326666667,75.0,103.0
86,46.28082666666666,47.25706285416666,73.0,105.0
87,47.76842466666667,48.018423774999995,70.0,94.0
88,48.016357666666664,48.28495175,73.0,97.0
89,48.26429066666667,48.5359839125,75.0,93.0
90,48.636190166666665,48.87999095,75.0,97.0
91,49.00808966666666,49.158915574999995,75.0,105.0
92,49.25602266666667,49.55147615833333,75.0,97.0
93,49.751888666666666,50.026681075,73.0,103.0
94,49.99982166666666,50.260151316666665,75.0,99.0
95,50.247754666666665,50.65787717083333,73.0,98.0
96,50.61965416666666,51.32626321666667,70.0,95.0
97,51.735352666666664,51.910971875,68.0,91.0
98,51.98328566666667,52.28080526666666,70.0,77.0
99,52.23121866666666,52.360350437499996,71.0,89.0
100,52.47915166666667,52.592787625,71.0,87.0
101,52.72708466666666,52.842786733333334,71.0,84.0
102,52.975017666666666,53.06902559583333,71.0,89.0
103,53.22295066666666,53.42233012083333,70.0,92.0
104,53.59485016666667,53.9006342,66.0,68.0
105,53.966749666666665,54.20951739583333,63.0,64.0
106,54.21468266666666,56.83347497916667,66.0,76.0
107,59.66920866666666,60.17127299166666,61.0,90.0
108,60.16507466666666,60.750816379166665,70.0,93.0
109,60.908873666666665,61.062798737499996,70.0,97.0
110,61.15680666666666,61.5152764625,70.0,92.0
111,61.528706166666666,61.91920064166666,68.0,95.0
112,61.77663916666666,61.977051675,66.0,84.0
113,62.14853866666667,63.3127907125,66.0,85.0
114,63.636136666666665,63.90679685833333,68.0,84.0
115,63.88406966666666,64.1154738,70.0,73.0
116,64.13200266666666,64.33344822916666,73.0,101.0
117,64.37993566666667,64.76423181666667,73.0,101.0
118,64.87580166666666,65.01836314166667,73.0,106.0
119,65.12373466666666,65.58654293333333,73.0,99.0
120,65.61960066666667,65.83137677083333,75.0,89.0
121,65.86753366666666,66.11546666666666,73.0,89.0
122,66.11546666666666,67.09790117916667,70.0,100.0
123,67.85099766666666,68.14025283333334,66.0,66.0
124,68.09893066666666,68.34273145,75.0,92.0
125,68.47083016666666,68.745622575,75.0,96.0
126,68.84272966666667,69.03797690416667,75.0,94.0
127,69.09066266666666,69.64231359166666,75.0,95.0
128,69.58652866666667,69.84375915416666,73.0,89.0
129,69.83446166666667,70.07413023333334,75.0,86.0
130,70.08239466666666,70.57206234166667,73.0,95.0
131,70.57826066666667,71.39334040416666,70.0,91.0
132,71.56999266666666,71.82205788333333,68.0,89.0
133,71.81792566666667,72.06585866666667,70.0,77.0
134,72.06585866666667,72.24044482083333,71.0,78.0
135,72.31379166666666,72.4677167375,71.0,76.0
136,72.56172466666666,72.81688904583334,71.0,74.0
137,72.80965766666667,73.05242539583332,70.0,66.0
138,73.05759066666667,73.42949016666667,66.0,61.0
139,73.42949016666667,73.87163735,63.0,54.0
140,73.80138966666667,74.05242182916666,66.0,64.0
141,74.04932266666667,74.80551831666666,68.0,64.0
142,75.78485366666666,76.02039001666667,61.0,65.0
143,76.03278666666667,76.5896028625,70.0,94.0
144,76.77658566666666,76.94394044166667,70.0,105.0
145,77.02451866666667,77.4015834375,70.0,97.0
146,77.39641816666666,77.8292678625,68.0,97.0
147,77.76831766666666,77.96253184999999,66.0,87.0
148,78.01625066666666,79.23422152916666,66.0,87.0
149,79.50384866666667,79.8003352125,68.0,90.0
150,79.75178166666666,79.98525190833332,70.0,90.0
151,79.99971466666666,80.2838045625,73.0,103.0
152,80.37161416666666,80.59888608333333,73.0,99.0
153,80.74351366666666,80.91706676666666,73.0,99.0
154,80.99144666666666,81.44702355416666,73.0,105.0
155,81.48731266666667,81.78276615833333,75.0,97.0
156,81.73524566666666,81.99454226249999,73.0,98.0
157,81.98317866666666,82.6701596875,70.0,98.0
158,83.71870966666667,83.95321296249999,66.0,76.0
159,83.96664266666666,84.2476334,75.0,95.0
160,84.33854216666667,84.58027684166666,75.0,98.0
161,84.71044166666667,84.83544122083333,75.0,100.0
162,84.95837466666666,85.30548086666667,75.0,96.0
163,85.45424066666666,85.71147115416666,73.0,103.0
164,85.70217366666667,86.01828824166667,75.0,93.0
165,85.95010666666667,86.31270867916666,73.0,97.0
166,86.32200616666667,87.24555659166667,70.0,87.0
167,87.43770466666666,87.72902594166666,68.0,90.0
168,87.68563766666666,87.88191795833333,70.0,90.0
169,87.93357066666667,88.28687519166667,71.0,93.0
170,88.30547016666667,88.41187474583333,71.0,89.0
171,88.42943666666666,88.7352207,71.0,68.0
172,88.67736966666666,89.02757502916667,70.0,87.0
173,88.92530266666667,89.38707787916667,66.0,84.0
174,89.29720216666666,89.88914220416666,63.0,64.0
175,89.66910166666666,90.09781914583333,65.0,81.0
176,89.91703466666667,90.73521356666666,66.0,86.0
177,91.40463266666666,91.55649162916666,61.0,90.0
178,91.65256566666666,91.84471374166667,61.0,89.0
179,91.90049866666666,92.17012580416666,70.0,97.0
180,92.27239816666666,92.49347175833333,70.0,97.0
181,92.64429766666666,92.78479303333333,70.0,96.0
182,92.89223066666666,93.19388248333333,70.0,99.0
183,93.26413016666666,93.600905825,68.0,97.0
184,93.63602966666666,93.88706182916667,66.0,83.0
185,93.88396266666666,94.865364125,73.0,100.0
186,95.37156066666667,95.63292337083332,70.0,90.0
187,95.61949366666666,95.906682725,73.0,97.0
188,95.86742666666666,96.45833365,75.0,99.0
189,96.61122566666667,96.74552270833333,75.0,96.0
190,96.85915866666666,97.16700880833334,75.0,95.0
191,97.23105816666666,97.58539574583332,78.0,97.0
192,97.60295766666667,97.8994442125,75.0,103.0
193,97.85089066666666,98.82712685416666,73.0,105.0
194,99.33848866666666,99.58848777499999,70.0,94.0
195,99.58642166666667,99.85501574999999,73.0,97.0
196,99.83435466666667,100.1060479125,75.0,93.0
197,100.20625416666667,100.45108800416666,75.0,97.0
198,100.57815366666667,100.728979575,75.0,105.0
199,100.82608666666667,101.1225732125,75.0,97.0
200,101.32195266666666,101.59777812916666,73.0,103.0
201,101.56988566666666,101.83021531666667,75.0,99.0
202,101.81781866666667,102.22794117083333,73.0,98.0
203,102.18971816666667,102.89632721666666,70.0,95.0
204,103.30541666666666,103.48103587499999,68.0,91.0
205,103.55334966666666,103.85190232083333,70.0,77.0
206,103.80128266666667,103.93041443749999,71.0,89.0
207,104.04921566666667,104.162851625,71.0,87.0
208,104.29714866666666,104.41285073333333,71.0,84.0
209,104.54508166666666,104.63908959583333,71.0,89.0
210,104.79301466666666,104.99239412083332,70.0,92.0
211,105.16491416666666,105.46966514583333,66.0,68.0
212,105.53681366666666,105.77958139583333,63.0,64.0
213,105.78474666666666,108.40353897916667,66.0,76.0
214,111.23927266666666,111.74133699166666,61.0,90.0
215,111.73513866666666,112.32088037916667,70.0,93.0
216,112.47893766666667,112.63286273749999,70.0,97.0
217,112.72687066666666,113.0853404625,70.0,92.0
218,113.09877016666667,113.4882315875,68.0,95.0
219,113.47066966666667,113.671082175,66.0,84.0
220,113.71860266666667,114.88182165833332,66.0,85.0
221,115.20620066666666,115.47686085833332,68.0,84.0
222,115.45413366666666,115.68553779999999,70.0,73.0
223,115.70206666666667,115.90351222916667,73.0,101.0
224,115.94999966666666,116.33429581666667,73.0,101.0
225,116.44586566666666,116.621484875,73.0,106.0
226,116.69379866666667,117.18243328749999,73.0,99.0
227,117.18966466666666,117.44172988333332,75.0,89.0
228,117.43759766666666,117.68553066666666,73.0,89.0
229,117.68553066666666,118.66899823333333,70.0,100.0
230,119.42106166666666,119.71031683333332,66.0,66.0
231,119.66899466666666,119.91176239583334,75.0,92.0
232,120.04089416666666,120.315686575,75.0,96.0
233,120.41279366666666,120.60700785,75.0,94.0
234,120.66072666666666,121.2113445375,75.0,95.0
235,121.15659266666667,121.41382315416666,73.0,89.0
236,121.40452566666666,121.8125820625,75.0,86.0
237,121.65245866666666,122.13696107083332,73.0,95.0
238,122.14832466666667,122.96237135,70.0,91.0
239,123.14005666666667,123.5047247875,68.0,89.0
240,123.38798966666666,123.67001345416666,70.0,77.0
241,123.63592266666666,123.81050882083333,71.0,78.0
242,123.88385566666666,124.03674768333333,71.0,76.0
243,124.13178866666667,124.38798609999999,71.0,74.0
244,124.37972166666667,124.62145634166666,70.0,66.0
245,124.62765466666666,125.00058722083332,66.0,61.0
246,124.99955416666666,125.48405657083333,63.0,54.0
247,125.49542016666666,126.08839325833333,65.0,64.0
248,125.99128616666667,126.54190403749999,66.0,64.0
249,158.84240866666667,158.968441275,73.0,82.0
250,159.09034166666666,159.32897717916666,73.0,87.0
251,159.33827466666665,159.5696788,82.0,95.0
252,159.71017416666666,159.9911649,82.0,93.0
253,160.08207366666667,160.25665982083333,82.0,93.0
254,160.33000666666666,160.69260867916665,82.0,90.0
255,160.70190616666667,161.07070650416665,80.0,84.0
256,161.07380566666666,161.36615999583333,78.0,71.0
257,161.32173866666665,162.23909076666666,85.0,76.0
258,162.80933666666667,163.0810299125,82.0,91.0
259,163.05726966666666,163.35169010416666,85.0,91.0
260,163.30520266666667,163.90334102916665,87.0,94.0
261,164.04900166666667,164.20086062916667,87.0,91.0
262,164.29693466666666,164.65643751666667,87.0,92.0
263,164.66883416666667,164.97565125416665,90.0,90.0
264,165.03866755833332,165.33825326666667,87.0,100.0
265,165.28660055833333,166.6357693,85.0,98.0
266,166.77419855833332,167.05002402083332,82.0,93.0
267,167.0221315583333,167.28969258749999,85.0,89.0
268,167.27006455833333,167.51076617916667,87.0,95.0
269,167.64196405833331,167.87646735416666,87.0,93.0
270,168.01386355833333,168.17502000833332,87.0,94.0
271,168.26179655833332,168.69877847083333,87.0,95.0
272,168.75766255833332,169.02109137083332,85.0,96.0
273,169.00559555833334,169.28555323749998,87.0,90.0
274,169.25352855833333,169.61613057083332,85.0,85.0
275,169.6254280583333,170.41054922499998,82.0,87.0
276,170.74319266666666,171.00662147916665,80.0,93.0
277,170.99112566666665,171.2183975833333,82.0,80.0
278,171.23905866666666,171.38471930416665,83.0,93.0
279,171.48699166666665,171.60269373333333,83.0,86.0
280,171.73492466666667,171.83823008333331,83.0,89.0
281,171.98285766666666,172.15537771249998,83.0,89.0
282,172.23079066666665,172.54690524166665,82.0,94.0
283,172.60269016666666,172.9363666625,78.0,87.0
284,172.97458966666667,173.22045655833332,75.0,57.0
285,173.22252266666666,173.82376019166665,78.0,91.0
286,178.67704866666665,179.17911299166667,61.0,90.0
287,179.17291466666666,179.75865637916667,70.0,93.0
288,179.91671366666665,180.0706387375,70.0,97.0
289,180.16464666666667,180.52311646249998,70.0,92.0
290,180.53654616666665,180.92704064166665,68.0,95.0
291,180.90844566666667,181.108858175,66.0,84.0
292,181.15637866666665,182.3206307125,66.0,85.0
293,182.64397666666665,182.91463685833332,68.0,84.0
294,182.89190966666666,183.1233138,70.0,73.0
295,183.13984266666665,183.34128822916665,73.0,101.0
296,183.38777566666667,183.77207181666665,73.0,101.0
297,183.88364166666665,184.059260875,73.0,106.0
298,184.13157466666667,184.61917623333332,73.0,99.0
299,184.62744066666667,184.8805389375,75.0,89.0
300,184.87537366666666,185.12330666666665,73.0,89.0
301,185.12330666666665,186.10574117916667,70.0,100.0
302,186.85883766666666,187.14809283333332,66.0,66.0
303,187.10677066666665,187.35057145,75.0,92.0
304,187.47867016666666,187.753462575,75.0,96.0
305,187.85056966666667,188.04581690416666,75.0,94.0
306,188.09850266666666,188.65015359166665,75.0,95.0
307,188.59436866666667,188.85159915416665,73.0,89.0
308,188.84230166666666,189.2503580625,75.0,86.0
309,189.09023466666665,189.57473707083332,73.0,95.0
310,189.58610066666665,190.40118040416667,70.0,91.0
311,190.57783266666667,190.8433275875,68.0,92.0
312,190.82576566666665,191.11088861666667,70.0,90.0
313,191.07369866666667,191.23278900833333,71.0,93.0
314,191.32163166666666,191.509647525,71.0,93.0
315,191.56956466666665,191.94869554583332,71.0,91.0
316,191.81749766666667,192.31749588333332,70.0,95.0
317,192.18939716666665,192.674932625,66.0,82.0
318,192.56129666666666,193.18216222083333,63.0,74.0
319,192.93319616666665,193.6108797,65.0,90.0
320,193.55302866666665,196.70487692916666,66.0,96.0
