,start,end,pitch,velocity
0,1.8223656875,2.1239003229166666,58.0,81.0
1,1.2960506875000002,2.8015308854166667,44.0,85.0
2,2.0855231875,3.3684160000000003,56.0,84.0
3,2.0855231875,3.3793808958333336,60.0,81.0
4,3.6644681875000003,3.928722177083334,55.0,75.0
5,3.9276256875000004,4.481352927083334,58.0,79.0
6,1.5592081875000001,4.515344104166667,51.0,80.0
7,4.1907831875,4.853062895833334,63.0,84.0
8,3.4013106875,4.8563523645833335,43.0,76.0
9,5.506570687500001,6.120604854166667,56.0,78.0
10,6.2960431875000005,6.497797270833334,56.0,79.0
11,6.0328856875,6.521920041666667,53.0,83.0
12,6.2960431875000005,6.5613936666666675,60.0,80.0
13,5.7697281875,6.629376020833334,48.0,74.0
14,5.506570687500001,6.740121468750001,41.0,85.0
15,7.6118306875,8.196259635416668,63.0,79.0
16,8.138145687500002,8.528495979166667,58.0,75.0
17,8.4013031875,8.964898833333335,67.0,86.0
18,7.8749881875000005,8.98353915625,46.0,72.0
19,7.6118306875,8.997793520833334,39.0,74.0
20,9.7170906875,10.280686333333334,65.0,85.0
21,10.243405687500001,10.57564203125,61.0,78.0
22,9.9802481875,10.603054270833335,56.0,80.0
23,10.506563187500001,10.794939947916667,63.0,83.0
24,9.7170906875,11.096474583333334,49.0,81.0
25,11.032878187500001,11.149106083333335,65.0,89.0
26,11.8223506875,12.123885322916667,60.0,79.0
27,11.8223506875,12.391428781250001,63.0,80.0
28,12.3486656875,12.520814552083335,60.0,80.0
29,12.0855081875,13.162260958333334,55.0,77.0
30,12.6118231875,13.310287052083334,63.0,82.0
31,11.8223506875,13.326734395833334,48.0,85.0
32,12.6118231875,13.334409822916667,60.0,84.0
33,13.927610687500001,14.231338302083335,54.0,79.0
34,13.927610687500001,14.406776635416668,61.0,83.0
35,14.190768187500002,15.118398375000002,49.0,75.0
36,13.927610687500001,15.130459760416668,42.0,85.0
37,14.453925687500002,15.293836708333334,54.0,84.0
38,14.717083187500002,15.308091072916667,58.0,81.0
39,15.243398187500002,15.478046958333335,66.0,88.0
40,16.0328706875,16.806992333333334,54.0,74.0
41,16.0328706875,16.80808882291667,58.0,77.0
42,16.0328706875,16.82563265625,61.0,75.0
43,16.0328706875,16.871685218750002,42.0,80.0
44,18.138130687500002,18.4012881875,51.0,80.0
45,18.138130687500002,18.645805364583335,58.0,77.0
46,18.664445687500002,19.412251583333337,51.0,85.0
47,18.9276031875,19.482426916666668,58.0,76.0
48,18.4012881875,19.66005822916667,46.0,72.0
49,18.138130687500002,19.848654437500002,39.0,86.0
50,19.717075687500003,20.005452447916667,63.0,78.0
51,19.9802331875,20.259838031250002,70.0,75.0
52,20.243390687500003,21.995581041666668,39.0,86.0
53,20.243390687500003,22.112905427083334,67.0,73.0
54,20.243390687500003,22.1512825625,63.0,72.0
55,20.276285375,22.172115864583336,75.0,73.0
56,22.3486506875,22.895798989583334,63.0,77.0
57,22.3486506875,22.923211229166668,56.0,77.0
58,23.4012806875,23.662245208333335,60.0,85.0
59,22.3486506875,23.849744927083336,44.0,82.0
60,23.4012806875,23.85193790625,63.0,85.0
61,22.8749656875,24.50325271875,51.0,73.0
62,24.453910687500002,24.816848739583335,63.0,77.0
63,24.453910687500002,25.009830906250002,58.0,71.0
64,25.506540687500003,25.657856250000002,58.0,32.0
65,25.506540687500003,25.98570663541667,67.0,79.0
66,24.980225687500003,26.054785479166668,51.0,75.0
67,25.506540687500003,26.0591714375,63.0,83.0
68,24.453910687500002,26.118381875,43.0,78.0
69,26.032855687500003,26.127153791666668,58.0,77.0
70,26.559170687500004,27.031757697916667,65.0,80.0
71,26.559170687500004,27.1381171875,60.0,75.0
72,27.611800687500004,27.804782854166668,60.0,84.0
73,27.611800687500004,27.987896614583335,65.0,91.0
74,27.611800687500004,28.149080583333337,68.0,86.0
75,27.085485687500004,28.18087878125,48.0,51.0
76,26.559170687500004,28.305878593750002,41.0,86.0
77,28.6644306875,29.010921395833336,58.0,74.0
78,28.6644306875,29.15346504166667,67.0,75.0
79,28.6644306875,29.187456218750004,63.0,81.0
80,29.717060687500002,29.98899010416667,58.0,85.0
81,29.1907456875,30.02188479166667,46.0,64.0
82,28.6644306875,30.032849687500004,39.0,81.0
83,29.717060687500002,30.13043726041667,63.0,86.0
84,30.243375687500002,30.54929628125,61.0,83.0
85,30.506533187500004,30.697322375000002,60.0,78.0
86,30.769690687500002,31.01530435416667,56.0,78.0
87,30.769690687500002,31.381531875000004,61.0,77.0
88,31.296005687500003,31.487891364583337,56.0,74.0
89,31.822320687500003,32.03503966666667,56.0,80.0
90,30.769690687500002,32.20280257291667,49.0,83.0
91,31.822320687500003,32.36508303125,61.0,81.0
92,32.3486356875,32.447319750000005,56.0,73.0
93,31.822320687500003,32.457188156250005,65.0,85.0
94,32.874950687500004,33.35850259375,58.0,77.0
95,32.874950687500004,33.478019958333334,63.0,80.0
96,33.927580687500004,34.152361052083336,60.0,79.0
97,33.4012656875,34.20937851041667,55.0,66.0
98,33.927580687500004,34.31025555208333,67.0,81.0
99,33.927580687500004,34.31902746875,63.0,81.0
100,32.874950687500004,34.355211625,48.0,85.0
101,34.980210687500005,35.43744684375,56.0,75.0
102,34.980210687500005,35.487885364583335,61.0,78.0
103,35.5065256875,36.121656343750004,53.0,71.0
104,36.032840687500006,36.29709467708334,58.0,80.0
105,36.032840687500006,36.311349041666666,61.0,86.0
106,36.032840687500006,36.328892875,65.0,86.0
107,34.980210687500005,36.39468225,46.0,84.0
108,36.295998187500004,36.45827864583334,53.0,81.0
109,36.5591556875,36.84095351041667,58.0,81.0
110,36.8223131875,37.15016357291667,61.0,78.0
111,37.085470687500006,37.230207312500006,39.0,88.0
112,37.085470687500006,37.58985589583334,63.0,78.0
113,37.8749431875,38.36507403125,58.0,80.0
114,38.13810068750001,38.415512552083335,67.0,88.0
115,37.6117856875,38.435249364583335,51.0,79.0
116,38.401258187500005,38.71156473958334,68.0,84.0
117,38.664415687500004,38.9933625625,70.0,85.0
118,38.9275731875,39.10959045833334,68.0,56.0
119,39.1907306875,39.77515963541667,72.0,86.0
120,40.2433606875,40.44401828125,63.0,80.0
121,40.2433606875,40.75322834375,68.0,81.0
122,39.1907306875,41.05147351041667,44.0,86.0
123,39.717045687500004,41.122745333333334,51.0,65.0
124,40.769675687500005,41.18524523958334,63.0,77.0
125,41.2959906875,41.65344629166667,61.0,76.0
126,41.2959906875,41.822305687500005,68.0,79.0
127,41.55914818750001,41.93963007291667,44.0,76.0
128,41.2959906875,41.940726562500004,37.0,82.0
129,41.822305687500005,42.11397191666667,61.0,85.0
130,42.085463187500004,42.27296290625,68.0,85.0
131,42.3486206875,42.7828305625,67.0,91.0
132,42.3486206875,42.853005895833334,39.0,87.0
133,42.3486206875,42.89357601041667,63.0,84.0
134,43.4012506875,43.97910069791667,68.0,78.0
135,43.4012506875,44.04379358333334,63.0,78.0
136,44.4538806875,44.66659966666667,63.0,87.0
137,43.92756568750001,44.6775645625,51.0,70.0
138,43.4012506875,44.77844160416667,44.0,85.0
139,44.4538806875,44.81133629166667,68.0,88.0
140,44.4538806875,44.953879937500005,72.0,88.0
141,44.98019568750001,45.38918630208334,63.0,85.0
142,45.506510687500004,46.10738697916667,72.0,84.0
143,45.506510687500004,46.129316770833334,67.0,78.0
144,46.559140687500005,46.736772,63.0,85.0
145,45.506510687500004,46.83764904166667,43.0,76.0
146,45.506510687500004,46.878219156250005,51.0,56.0
147,46.559140687500005,47.08106972916667,67.0,92.0
148,46.559140687500005,47.16330644791667,72.0,86.0
149,47.0854556875,47.27405189583334,63.0,87.0
150,47.0854556875,47.37821840625001,43.0,86.0
151,47.611770687500005,47.73896347916667,41.0,86.0
152,47.611770687500005,48.234576770833336,72.0,85.0
153,47.611770687500005,48.264181989583335,65.0,79.0
154,47.611770687500005,48.27295390625,68.0,77.0
155,48.1380856875,48.60190078125,53.0,86.0
156,48.664400687500006,48.88918105208334,68.0,84.0
157,48.664400687500006,48.89904945833334,60.0,81.0
158,48.664400687500006,48.903435416666674,65.0,86.0
159,48.664400687500006,49.19619813541667,72.0,86.0
160,49.71703068750001,50.02075830208334,63.0,79.0
161,49.71703068750001,50.200582593750006,72.0,85.0
162,49.71703068750001,50.224705364583336,67.0,76.0
163,50.76966068750001,50.99882701041667,63.0,86.0
164,50.76966068750001,51.01637084375,67.0,94.0
165,49.71703068750001,51.11505490625,39.0,88.0
166,50.76966068750001,51.146853104166674,72.0,90.0
167,51.032818187500006,51.16330044791667,46.0,82.0
168,51.295975687500004,51.49992275,63.0,85.0
169,51.295975687500004,51.79378195833334,70.0,90.0
170,51.82229068750001,52.05145701041667,65.0,81.0
171,51.82229068750001,52.2630795,68.0,75.0
172,51.82229068750001,53.037201145833336,49.0,87.0
173,52.8749206875,53.09860456250001,65.0,96.0
174,52.348605687500005,53.107376479166675,56.0,72.0
175,52.8749206875,53.12053435416667,68.0,86.0
176,52.8749206875,53.14246414583334,61.0,87.0
177,53.401235687500005,53.526235500000006,49.0,87.0
178,53.9275506875,54.253208093750004,67.0,78.0
179,53.9275506875,54.263076500000004,60.0,80.0
180,53.9275506875,54.27733086458334,63.0,80.0
181,54.453865687500006,55.10737347916667,55.0,62.0
182,53.9275506875,55.126013802083335,48.0,86.0
183,54.9801806875,55.21921541666667,60.0,84.0
184,54.9801806875,55.519653562500004,63.0,88.0
185,54.9801806875,55.520750052083336,67.0,86.0
186,54.9801806875,55.53829388541667,72.0,86.0
187,55.506495687500006,55.695091895833336,60.0,89.0
188,56.0328106875,56.33215234375,58.0,76.0
189,56.0328106875,56.49114333333334,70.0,85.0
190,56.0328106875,56.49552929166667,61.0,81.0
191,56.55912568750001,56.72140614583334,58.0,74.0
192,56.0328106875,57.27842285416667,46.0,86.0
193,57.085440687500004,57.35737010416667,58.0,85.0
194,57.085440687500004,57.36394904166667,61.0,88.0
195,57.085440687500004,57.39794021875001,65.0,89.0
196,57.61175568750001,57.72908007291667,46.0,87.0
197,58.138070687500004,58.23127230208334,39.0,87.0
198,58.138070687500004,58.592017375000005,63.0,86.0
199,58.138070687500004,58.67425409375001,67.0,81.0
200,59.190700687500005,59.38368285416667,67.0,94.0
201,58.92754318750001,59.38916530208334,58.0,88.0
202,58.66438568750001,59.440700312500006,51.0,86.0
203,59.4538581875,59.59640183333334,68.0,86.0
204,59.7170156875,60.18960269791667,70.0,86.0
205,60.243330687500006,60.895741989583335,68.0,81.0
206,60.243330687500006,60.92534720833334,63.0,85.0
207,60.7696456875,61.37381144791667,51.0,79.0
208,61.295960687500006,61.574469041666674,63.0,86.0
209,61.295960687500006,61.60736372916667,68.0,89.0
210,60.243330687500006,61.628197031250004,44.0,86.0
211,61.559118187500005,61.74442492708334,51.0,86.0
212,61.295960687500006,61.848591437500005,72.0,88.0
213,61.8222756875,62.12600330208334,70.0,87.0
214,62.08543318750001,62.36394154166667,68.0,70.0
215,62.34859068750001,62.437406343750006,39.0,92.0
216,62.34859068750001,62.99332656250001,70.0,86.0
217,63.13806318750001,63.315694500000006,63.0,86.0
218,62.611748187500005,63.34091376041667,51.0,86.0
219,62.874905687500004,63.34420322916667,58.0,87.0
220,63.40122068750001,64.0327986875,58.0,86.0
221,63.927535687500004,64.08433369791668,55.0,99.0
222,63.40122068750001,64.09529859375,51.0,94.0
223,63.40122068750001,64.15779850000001,67.0,90.0
224,63.40122068750001,64.16328094791668,75.0,90.0
225,63.40122068750001,64.31130704166667,63.0,87.0
226,63.40122068750001,64.40889461458335,70.0,91.0
227,64.45385068750001,65.01525335416667,63.0,86.0
228,64.45385068750001,65.02073580208334,68.0,85.0
229,65.5064806875,65.75976978125,63.0,89.0
230,65.5064806875,65.86503278125001,68.0,91.0
231,65.5064806875,66.08762016666667,72.0,89.0
232,64.45385068750001,66.24112870833333,44.0,86.0
233,66.03279568750001,66.52292653125001,63.0,86.0
234,66.55911068750001,66.881478625,63.0,79.0
235,66.55911068750001,67.15450453125001,67.0,86.0
236,66.55911068750001,67.19507464583334,70.0,85.0
237,67.0854256875,67.46590757291668,63.0,83.0
238,67.6117406875,67.90450340625,63.0,85.0
239,66.55911068750001,67.97467873958334,43.0,86.0
240,64.9801656875,68.05143301041667,51.0,78.0
241,67.6117406875,68.08103822916668,75.0,89.0
242,67.6117406875,68.13695919791667,67.0,83.0
243,67.6117406875,68.20713453125,70.0,86.0
244,68.1380556875,68.29266071875,63.0,87.0
245,68.66437068750001,69.07665077083334,65.0,84.0
246,68.66437068750001,69.14024716666667,68.0,77.0
247,69.19068568750001,69.81678123958334,48.0,78.0
248,69.7170006875,69.92643019791667,65.0,88.0
249,69.7170006875,69.93958807291668,68.0,90.0
250,68.66437068750001,70.02292128125,41.0,87.0
251,69.7170006875,70.02730723958334,72.0,90.0
252,69.98015818750001,70.10735097916667,48.0,85.0
253,70.2433156875,70.53169244791667,70.0,85.0
254,70.2433156875,70.54156085416668,65.0,81.0
255,70.5064731875,70.68849045833333,68.0,76.0
256,70.76963068750001,71.21590194791668,70.0,84.0
257,71.29594568750001,71.49769977083334,63.0,80.0
258,71.8222606875,72.09419010416667,63.0,88.0
259,71.8222606875,72.11392691666667,67.0,88.0
260,70.76963068750001,72.11611989583334,39.0,88.0
261,72.08541818750001,72.21151448958334,46.0,77.0
262,72.3485756875,72.65230330208334,65.0,78.0
263,72.3485756875,72.67313660416667,68.0,84.0
264,72.61173318750001,72.91436431250001,67.0,85.0
265,72.87489068750001,73.407784625,65.0,90.0
266,73.40120568750001,74.07773976041668,56.0,86.0
267,72.87489068750001,74.23453777083334,49.0,89.0
268,73.9275206875,74.28826576041668,65.0,89.0
269,73.9275206875,74.33322183333334,61.0,85.0
270,73.9275206875,74.47247601041667,68.0,82.0
271,74.4538356875,74.58870390625,56.0,85.0
272,74.9801506875,75.31019405208335,60.0,84.0
273,74.9801506875,75.50207972916667,63.0,85.0
274,74.9801506875,75.63256198958334,67.0,86.0
275,75.50646568750001,75.73782498958334,60.0,85.0
276,75.2433081875,76.118306875,55.0,77.0
277,76.03278068750001,76.32663989583334,60.0,87.0
278,74.9801506875,76.37269245833335,48.0,87.0
279,76.03278068750001,76.42203448958334,67.0,87.0
280,76.29593818750001,76.44177130208334,55.0,79.0
281,76.5590956875,76.65449028125,63.0,84.0
282,76.5590956875,76.68409550000001,60.0,80.0
283,77.0854106875,77.37598042708333,56.0,85.0
284,77.0854106875,77.63255898958334,61.0,85.0
285,77.61172568750001,77.96808480208334,56.0,85.0
286,77.8748831875,78.00097948958334,61.0,86.0
287,77.3485681875,78.20711953125,53.0,77.0
288,78.13804068750001,78.43957532291667,56.0,86.0
289,77.0854106875,78.45054021875,46.0,86.0
290,78.13804068750001,78.45054021875,61.0,94.0
291,78.13804068750001,78.46369809375001,65.0,94.0
292,78.4011981875,78.54812779166667,53.0,86.0
293,78.6643556875,78.7827765625,46.0,86.0
294,79.1906706875,79.29154772916668,39.0,91.0
295,79.1906706875,79.52948596875001,58.0,82.0
296,79.1906706875,79.65777525,63.0,85.0
297,80.24330068750001,80.43628285416668,67.0,96.0
298,80.24330068750001,80.44834423958334,63.0,87.0
299,79.9801431875,80.48562488541667,58.0,94.0
300,79.71698568750001,80.5788265,51.0,77.0
301,80.5064581875,80.63694044791667,68.0,89.0
302,80.7696156875,81.04812404166667,70.0,89.0
303,81.03277318750001,81.14680810416668,68.0,86.0
304,81.2959306875,81.565667125,63.0,78.0
305,81.2959306875,81.81785972916667,72.0,84.0
306,81.8222456875,82.16215745833334,63.0,84.0
307,81.55908818750001,82.18628022916667,51.0,75.0
308,82.0854031875,82.42970091666668,68.0,87.0
309,82.34856068750001,82.74439342708334,51.0,85.0
310,81.2959306875,82.78934950000001,44.0,86.0
311,82.6117181875,82.81347227083334,63.0,86.0
312,82.6117181875,82.85623536458334,68.0,87.0
313,82.6117181875,82.96588432291668,72.0,87.0
314,83.4011906875,83.90667238541667,70.0,85.0
315,83.4011906875,83.93847058333334,67.0,86.0
316,83.9275056875,84.05469847916667,63.0,81.0
317,84.19066318750001,84.54702230208333,63.0,87.0
318,84.19066318750001,84.55360123958334,67.0,96.0
319,84.19066318750001,84.55360123958334,70.0,90.0
320,83.4011906875,84.96259185416667,43.0,76.0
321,83.66434818750001,84.96368834375001,51.0,56.0
322,84.7169781875,84.97136377083334,67.0,96.0
323,84.98013568750001,85.20053009375,63.0,83.0
324,85.5064506875,85.78495904166667,65.0,86.0
325,85.5064506875,85.92092375000001,68.0,85.0
326,86.0327656875,86.17969529166668,65.0,86.0
327,86.29592318750001,86.41105459375001,67.0,89.0
328,85.76960818750001,86.7301330625,48.0,80.0
329,85.5064506875,86.77289615625001,41.0,87.0
330,86.55908068750001,86.79701892708334,68.0,89.0
331,86.8222381875,87.05359748958334,67.0,92.0
332,87.08539568750001,87.17530783333333,65.0,84.0
333,87.61171068750001,87.85951733333334,63.0,84.0
334,87.61171068750001,87.88583308333334,67.0,85.0
335,88.1380256875,88.25754305208334,63.0,86.0
336,87.87486818750001,88.46477958333334,58.0,81.0
337,88.40118318750001,88.57662152083334,75.0,88.0
338,88.40118318750001,88.65447228125001,63.0,88.0
339,87.61171068750001,88.91543680208333,51.0,87.0
340,88.6643406875,88.91982276041668,58.0,80.0
341,88.9274981875,89.01631384375001,63.0,79.0
342,88.9274981875,89.17859430208334,70.0,86.0
343,88.9274981875,89.18626972916667,67.0,86.0
344,89.19065568750001,89.28605028125001,63.0,82.0
345,89.71697068750001,90.25754005208334,65.0,85.0
346,89.71697068750001,90.31346102083334,61.0,84.0
347,90.2432856875,90.83319708333335,56.0,85.0
348,89.71697068750001,90.90227592708334,49.0,87.0
349,90.7696006875,91.04920553125001,61.0,90.0
350,90.7696006875,91.05139851041667,65.0,99.0
351,90.7696006875,91.08867915625001,68.0,87.0
352,91.03275818750001,91.14679310416668,56.0,91.0
353,91.5590731875,91.65227480208334,65.0,81.0
354,91.29591568750001,91.67310810416667,61.0,92.0
355,91.82223068750001,92.07003733333335,60.0,88.0
356,91.82223068750001,92.17858980208334,63.0,86.0
357,92.3485456875,92.59854531250001,55.0,85.0
358,91.82223068750001,92.74547491666668,48.0,90.0
359,92.61170318750001,92.75753630208334,60.0,94.0
360,92.8748606875,93.01192188541667,60.0,87.0
361,92.8748606875,93.14679010416667,65.0,89.0
362,93.13801818750001,93.25205310416668,60.0,87.0
363,92.8748606875,93.47464048958334,53.0,92.0
364,93.40117568750001,93.55358773958334,68.0,85.0
365,93.40117568750001,93.56235965625001,60.0,83.0
366,93.92749068750001,94.2630165,58.0,84.0
367,93.92749068750001,94.47683196875,61.0,85.0
368,94.45380568750001,94.79042798958334,56.0,87.0
369,94.71696318750001,94.8485419375,61.0,86.0
370,94.1906481875,95.03713814583334,53.0,87.0
371,94.9801206875,95.24876063541667,56.0,88.0
372,94.9801206875,95.32112894791668,61.0,89.0
373,94.9801206875,95.33319033333335,65.0,91.0
374,95.24327818750001,95.41433056250001,53.0,85.0
375,93.92749068750001,95.43626035416668,46.0,88.0
376,95.5064356875,95.61279517708334,56.0,80.0
377,96.03275068750001,96.2564345625,63.0,85.0
378,96.03275068750001,96.26301350000001,58.0,81.0
379,96.55906568750001,96.67967954166667,58.0,76.0
380,96.2959081875,96.86169681250001,46.0,80.0
381,96.82222318750001,97.16323144791667,58.0,87.0
382,96.82222318750001,97.23011731250001,67.0,87.0
383,96.03275068750001,97.24217869791667,39.0,89.0
384,97.0853806875,97.26520497916667,46.0,83.0
385,97.34853818750001,97.48669587500001,63.0,86.0
386,97.34853818750001,97.53603790625,58.0,87.0
387,98.13801068750001,98.46147511458334,56.0,80.0
388,98.66432568750001,98.84086051041668,56.0,72.0
389,98.13801068750001,98.86059732291668,63.0,82.0
390,98.9274831875,99.46476308333334,60.0,78.0
391,98.13801068750001,99.67309610416667,44.0,87.0
392,98.4011681875,100.32660389583334,51.0,71.0
393,100.24327068750002,100.53055095833334,58.0,76.0
394,100.24327068750002,100.85291889583334,63.0,84.0
395,101.0327431875,101.223532375,67.0,81.0
396,101.0327431875,101.22572535416667,63.0,85.0
397,100.76958568750001,101.24984812500001,58.0,81.0
398,100.24327068750002,102.10620648958334,43.0,80.0
399,100.5064281875,102.24326768750001,51.0,77.0
400,102.87484568750001,103.24655565625001,53.0,87.0
401,102.3485306875,103.27177491666667,41.0,79.0
402,103.1380031875,103.55137976041668,56.0,88.0
403,103.66431818750002,103.94063356250001,53.0,87.0
404,103.66431818750002,104.08756316666667,56.0,89.0
405,103.66431818750002,104.11058944791668,60.0,86.0
406,104.4537906875,105.07988623958335,37.0,89.0
407,104.71694818750001,105.09304411458334,44.0,88.0
408,104.98010568750001,105.30028064583334,49.0,91.0
409,105.2432631875,105.4208945,53.0,87.0
410,106.82220818750001,106.97681321875001,82.0,67.0
411,107.08536568750002,107.18843570833334,87.0,87.0
412,105.50642068750001,108.05685545833335,39.0,94.0
413,105.50642068750001,108.14676760416667,55.0,86.0
414,105.50642068750001,108.14786409375002,51.0,85.0
415,108.6643106875,109.24216069791667,68.0,78.0
416,108.6643106875,109.30685358333335,63.0,78.0
417,109.71694068750001,109.92965966666668,63.0,87.0
418,109.19062568750002,109.9406245625,51.0,70.0
419,108.6643106875,110.04150160416668,44.0,85.0
420,109.71694068750001,110.07439629166667,68.0,88.0
421,109.71694068750001,110.21693993750002,72.0,88.0
422,110.24325568750001,110.65224630208334,63.0,85.0
423,110.7695706875,111.37044697916667,72.0,84.0
424,110.7695706875,111.39237677083334,67.0,78.0
425,111.82220068750001,111.99983200000001,63.0,85.0
426,110.7695706875,112.10070904166668,43.0,76.0
427,110.7695706875,112.14127915625001,51.0,56.0
428,111.82220068750001,112.34412972916668,67.0,92.0
429,111.82220068750001,112.42636644791668,72.0,86.0
430,112.34851568750001,112.53711189583335,63.0,87.0
431,112.34851568750001,112.64127840625001,43.0,86.0
432,112.87483068750001,113.00202347916668,41.0,86.0
433,112.87483068750001,113.49763677083334,72.0,85.0
434,112.87483068750001,113.52724198958335,65.0,79.0
435,112.87483068750001,113.53601390625,68.0,77.0
436,113.4011456875,113.86496078125,53.0,86.0
437,113.92746068750002,114.15224105208334,68.0,84.0
438,113.92746068750002,114.16210945833335,60.0,81.0
439,113.92746068750002,114.16649541666668,65.0,86.0
440,113.92746068750002,114.45925813541668,72.0,86.0
441,114.98009068750001,115.28381830208335,63.0,79.0
442,114.98009068750001,115.46364259375001,72.0,85.0
443,114.98009068750001,115.48776536458334,67.0,76.0
444,116.03272068750002,116.26188701041667,63.0,86.0
445,116.03272068750002,116.27943084375,67.0,94.0
446,114.98009068750001,116.37811490625,39.0,88.0
447,116.03272068750002,116.40991310416668,72.0,90.0
448,116.29587818750001,116.42636044791668,46.0,82.0
449,116.55903568750001,116.76298275,63.0,85.0
450,116.55903568750001,117.05684195833335,70.0,90.0
451,117.08535068750001,117.31451701041668,65.0,81.0
452,117.08535068750001,117.52613950000001,68.0,75.0
453,117.08535068750001,118.30026114583335,49.0,87.0
454,118.1379806875,118.36166456250001,65.0,96.0
455,117.61166568750001,118.37043647916667,56.0,72.0
456,118.1379806875,118.38359435416668,68.0,86.0
457,118.1379806875,118.40552414583334,61.0,87.0
458,118.66429568750002,118.78929550000001,49.0,87.0
459,119.19061068750001,119.51626809375001,67.0,78.0
460,119.19061068750001,119.5261365,60.0,80.0
461,119.19061068750001,119.54039086458334,63.0,80.0
462,119.71692568750001,120.37043347916668,55.0,62.0
463,119.19061068750001,120.38907380208335,48.0,86.0
464,120.2432406875,120.48227541666668,60.0,84.0
465,120.2432406875,120.7827135625,63.0,88.0
466,120.2432406875,120.78381005208334,67.0,86.0
467,120.2432406875,120.80135388541667,72.0,86.0
468,120.76955568750002,120.95815189583334,60.0,89.0
469,121.29587068750001,121.59521234375,58.0,76.0
470,121.29587068750001,121.75420333333335,70.0,85.0
471,121.29587068750001,121.75858929166668,61.0,81.0
472,121.82218568750001,121.98446614583334,58.0,74.0
473,121.29587068750001,122.54148285416667,46.0,86.0
474,122.3485006875,122.62043010416667,58.0,85.0
475,122.3485006875,122.62700904166668,61.0,88.0
476,122.3485006875,122.66100021875,65.0,89.0
477,122.87481568750002,122.99214007291668,46.0,87.0
478,123.40113068750001,123.49433230208335,39.0,87.0
479,123.40113068750001,123.85507737500001,63.0,86.0
480,123.40113068750001,123.93731409375,67.0,81.0
481,124.45376068750001,124.64674285416667,67.0,94.0
482,124.19060318750002,124.65222530208334,58.0,88.0
483,123.92744568750001,124.70376031250001,51.0,86.0
484,124.71691818750001,124.85946183333334,68.0,86.0
485,124.9800756875,125.45266269791668,70.0,86.0
486,125.50639068750002,126.15880198958334,68.0,81.0
487,125.50639068750002,126.18840720833335,63.0,85.0
488,126.03270568750001,126.63687144791668,51.0,79.0
489,126.55902068750001,126.83752904166668,63.0,86.0
490,126.55902068750001,126.87042372916667,68.0,89.0
491,125.50639068750002,126.89125703125,44.0,86.0
492,126.82217818750001,127.00748492708334,51.0,86.0
493,126.55902068750001,127.11165143750002,72.0,88.0
494,127.0853356875,127.38906330208334,70.0,87.0
495,127.34849318750001,127.62700154166667,68.0,70.0
496,127.61165068750002,127.70046634375001,39.0,92.0
497,127.61165068750002,128.2563865625,70.0,86.0
498,128.40112318750002,128.5787545,63.0,86.0
499,127.87480818750001,128.60397376041666,51.0,86.0
500,128.1379656875,128.60726322916668,58.0,87.0
501,128.66428068750002,129.29585868750002,58.0,86.0
502,129.1905956875,129.3473936979167,55.0,99.0
503,128.66428068750002,129.35835859375,51.0,94.0
504,128.66428068750002,129.4208585,67.0,90.0
505,128.66428068750002,129.42634094791669,75.0,90.0
506,128.66428068750002,129.57436704166668,63.0,87.0
507,128.66428068750002,129.67195461458334,70.0,91.0
508,129.71691068750002,130.27831335416667,63.0,86.0
509,129.71691068750002,130.28379580208335,68.0,85.0
510,130.7695406875,131.02282978125,63.0,89.0
511,130.7695406875,131.12809278125002,68.0,91.0
512,130.7695406875,131.35068016666668,72.0,89.0
513,129.71691068750002,131.50418870833334,44.0,86.0
514,131.29585568750002,131.78598653125002,63.0,86.0
515,131.8221706875,132.14453862500002,63.0,79.0
516,131.8221706875,132.41756453125,67.0,86.0
517,131.8221706875,132.45813464583335,70.0,85.0
518,132.34848568750002,132.72896757291667,63.0,83.0
519,132.8748006875,133.16756340625003,63.0,85.0
520,131.8221706875,133.23773873958334,43.0,86.0
521,130.2432256875,133.31449301041667,51.0,78.0
522,132.8748006875,133.3440982291667,75.0,89.0
523,132.8748006875,133.4000191979167,67.0,83.0
524,132.8748006875,133.47019453125,70.0,86.0
525,133.4011156875,133.55572071875002,63.0,87.0
526,133.92743068750002,134.33971077083334,65.0,84.0
527,133.92743068750002,134.40330716666668,68.0,77.0
528,134.4537456875,135.07984123958335,48.0,78.0
529,134.9800606875,135.18949019791668,65.0,88.0
530,134.9800606875,135.20264807291667,68.0,90.0
531,133.92743068750002,135.28598128125,41.0,87.0
532,134.9800606875,135.29036723958333,72.0,90.0
533,135.24321818750002,135.37041097916668,48.0,85.0
534,135.50637568750003,135.79475244791666,70.0,85.0
535,135.50637568750003,135.80462085416667,65.0,81.0
536,135.7695331875,135.95155045833334,68.0,76.0
537,136.0326906875,136.47896194791667,70.0,84.0
538,136.55900568750002,136.76075977083335,63.0,80.0
539,137.0853206875,137.35725010416667,63.0,88.0
540,137.0853206875,137.37698691666668,67.0,88.0
541,136.0326906875,137.37917989583335,39.0,88.0
542,137.3484781875,137.47457448958335,46.0,77.0
543,137.6116356875,137.91536330208334,65.0,78.0
544,137.6116356875,137.93619660416667,68.0,84.0
545,137.87479318750002,138.17742431250002,67.0,85.0
546,138.13795068750002,138.670844625,65.0,90.0
547,138.6642656875,139.34079976041667,56.0,86.0
548,138.13795068750002,139.49759777083335,49.0,89.0
549,139.19058068750002,139.5513257604167,65.0,89.0
550,139.19058068750002,139.59628183333334,61.0,85.0
551,139.19058068750002,139.73553601041667,68.0,82.0
552,139.7168956875,139.85176390625,56.0,85.0
553,140.2432106875,140.57325405208334,60.0,84.0
554,140.2432106875,140.7651397291667,63.0,85.0
555,140.2432106875,140.89562198958333,67.0,86.0
556,140.76952568750002,141.00088498958334,60.0,85.0
557,140.50636818750002,141.38136687500003,55.0,77.0
558,141.2958406875,141.58969989583335,60.0,87.0
559,140.2432106875,141.63575245833334,48.0,87.0
560,141.2958406875,141.68509448958335,67.0,87.0
561,141.5589981875,141.70483130208333,55.0,79.0
562,141.82215568750001,141.91755028125002,63.0,84.0
563,141.82215568750001,141.9471555,60.0,80.0
564,142.34847068750003,142.63904042708336,56.0,85.0
565,142.34847068750003,142.89561898958334,61.0,85.0
566,142.8747856875,143.23114480208335,56.0,85.0
567,143.1379431875,143.26403948958335,61.0,86.0
568,142.6116281875,143.47017953125,53.0,77.0
569,143.40110068750002,143.70263532291668,56.0,86.0
570,142.34847068750003,143.71360021875,46.0,86.0
571,143.40110068750002,143.71360021875,61.0,94.0
572,143.40110068750002,143.72675809375002,65.0,94.0
573,143.66425818750002,143.81118779166667,53.0,86.0
574,143.9274156875,144.0458365625,46.0,86.0
575,144.4537306875,144.5546077291667,39.0,91.0
576,144.4537306875,144.79254596875,58.0,82.0
577,144.4537306875,144.92083525,63.0,85.0
578,145.5063606875,145.69934285416667,67.0,96.0
579,145.5063606875,145.71140423958335,63.0,87.0
580,145.2432031875,145.74868488541668,58.0,94.0
581,144.98004568750002,145.84188650000002,51.0,77.0
582,145.7695181875,145.90000044791668,68.0,89.0
583,146.03267568750002,146.31118404166668,70.0,89.0
584,146.29583318750002,146.4098681041667,68.0,86.0
585,146.5589906875,146.828727125,63.0,78.0
586,146.5589906875,147.08091972916668,72.0,84.0
587,147.0853056875,147.42521745833335,63.0,84.0
588,146.8221481875,147.4493402291667,51.0,75.0
589,147.34846318750002,147.69276091666669,68.0,87.0
590,147.61162068750002,148.00745342708333,51.0,85.0
591,146.5589906875,148.0524095,44.0,86.0
592,147.87477818750003,148.07653227083335,63.0,86.0
593,147.87477818750003,148.11929536458334,68.0,87.0
594,147.87477818750003,148.22894432291667,72.0,87.0
595,148.66425068750002,149.1697323854167,70.0,85.0
596,148.66425068750002,149.20153058333335,67.0,86.0
597,149.19056568750003,149.31775847916668,63.0,81.0
598,149.4537231875,149.81008230208334,63.0,87.0
599,149.4537231875,149.81666123958334,67.0,96.0
600,149.4537231875,149.81666123958334,70.0,90.0
601,148.66425068750002,150.22565185416667,43.0,76.0
602,148.92740818750002,150.22674834375002,51.0,56.0
603,149.9800381875,150.23442377083336,67.0,96.0
604,150.24319568750002,150.46359009375,63.0,83.0
605,150.7695106875,151.0480190416667,65.0,86.0
606,150.7695106875,151.18398375,68.0,85.0
607,151.2958256875,151.44275529166669,65.0,86.0
608,151.55898318750002,151.67411459375,67.0,89.0
609,151.0326681875,151.9931930625,48.0,80.0
610,150.7695106875,152.03595615625002,41.0,87.0
611,151.82214068750002,152.06007892708334,68.0,89.0
612,152.0852981875,152.31665748958335,67.0,92.0
613,152.3484556875,152.43836783333336,65.0,84.0
614,152.87477068750002,153.12257733333334,63.0,84.0
615,152.87477068750002,153.14889308333335,67.0,85.0
616,153.4010856875,153.52060305208335,63.0,86.0
617,153.13792818750002,153.72783958333335,58.0,81.0
618,153.6642431875,153.83968152083335,75.0,88.0
619,153.6642431875,153.91753228125,63.0,88.0
620,152.87477068750002,154.17849680208334,51.0,87.0
621,153.9274006875,154.18288276041667,58.0,80.0
622,154.19055818750002,154.27937384375002,63.0,79.0
623,154.19055818750002,154.44165430208335,70.0,86.0
624,154.19055818750002,154.4493297291667,67.0,86.0
625,154.45371568750002,154.54911028125002,63.0,82.0
626,154.9800306875,155.52060005208335,65.0,85.0
627,154.9800306875,155.57652102083335,61.0,84.0
628,155.50634568750002,156.09625708333334,56.0,85.0
629,154.9800306875,156.16533592708333,49.0,87.0
630,156.03266068750003,156.31226553125,61.0,90.0
631,156.03266068750003,156.31445851041667,65.0,99.0
632,156.03266068750003,156.35173915625,68.0,87.0
633,156.2958181875,156.40985310416667,56.0,91.0
634,156.82213318750001,156.91533480208335,65.0,81.0
635,156.5589756875,156.93616810416668,61.0,92.0
636,157.08529068750002,157.33309733333334,60.0,88.0
637,157.08529068750002,157.44164980208336,63.0,86.0
638,157.6116056875,157.86160531250002,55.0,85.0
639,157.08529068750002,158.0085349166667,48.0,90.0
640,157.8747631875,158.02059630208333,60.0,94.0
641,158.1379206875,158.27498188541668,60.0,87.0
642,158.1379206875,158.40985010416668,65.0,89.0
643,158.40107818750002,158.5151131041667,60.0,87.0
644,158.1379206875,158.73770048958335,53.0,92.0
645,158.66423568750002,158.81664773958335,68.0,85.0
646,158.66423568750002,158.82541965625,60.0,83.0
647,159.1905506875,159.52607650000002,58.0,84.0
648,159.1905506875,159.73989196875002,61.0,85.0
649,159.71686568750002,160.05348798958335,56.0,87.0
650,159.98002318750002,160.1116019375,61.0,86.0
651,159.4537081875,160.30019814583335,53.0,87.0
652,160.2431806875,160.51182063541668,56.0,88.0
653,160.2431806875,160.5841889479167,61.0,89.0
654,160.2431806875,160.59625033333336,65.0,91.0
655,160.5063381875,160.67739056250002,53.0,85.0
656,159.1905506875,160.69932035416667,46.0,88.0
657,160.7694956875,160.87585517708334,56.0,80.0
658,161.29581068750002,161.5194945625,63.0,85.0
659,161.29581068750002,161.52607350000002,58.0,81.0
660,161.8221256875,161.94273954166667,58.0,76.0
661,161.55896818750003,162.1247568125,46.0,80.0
662,162.0852831875,162.42629144791667,58.0,87.0
663,162.0852831875,162.49317731250002,67.0,87.0
664,161.29581068750002,162.50523869791667,39.0,89.0
665,162.34844068750002,162.5282649791667,46.0,83.0
666,162.61159818750002,162.749755875,63.0,86.0
667,162.61159818750002,162.79909790625,58.0,87.0
668,163.4010706875,163.72453511458335,56.0,80.0
669,163.92738568750002,164.10392051041669,56.0,72.0
670,163.4010706875,164.12365732291667,63.0,82.0
671,164.19054318750003,164.72782308333333,60.0,78.0
672,163.4010706875,164.93615610416668,44.0,87.0
673,163.66422818750002,165.58966389583335,51.0,71.0
674,165.50633068750003,165.79361095833335,58.0,76.0
675,165.50633068750003,166.11597889583334,63.0,84.0
676,166.2958031875,166.48659237500001,67.0,81.0
677,166.2958031875,166.48878535416668,63.0,85.0
678,166.0326456875,166.51290812500002,58.0,81.0
679,165.50633068750003,167.36926648958334,43.0,80.0
680,165.7694881875,167.5063276875,51.0,77.0
681,167.6115906875,167.9273796875,61.0,85.0
682,167.87474818750002,168.15325654166668,44.0,68.0
683,167.6115906875,168.15435303125003,68.0,83.0
684,167.6115906875,168.18505473958334,37.0,85.0
685,168.13790568750002,168.24974762500003,61.0,85.0
686,168.40106318750003,168.76619421875,61.0,85.0
687,168.40106318750003,168.78593103125002,65.0,86.0
688,168.9273781875,169.05018502083334,65.0,90.0
689,168.9273781875,169.05786044791668,68.0,86.0
690,168.9273781875,169.06663236458334,61.0,86.0
691,168.6642206875,169.06992183333335,49.0,83.0
692,169.71685068750003,170.05018352083334,60.0,80.0
693,169.71685068750003,170.06882384375,63.0,79.0
694,169.71685068750003,170.26948143750002,67.0,78.0
695,170.2431656875,170.35829709375002,60.0,80.0
696,169.9800081875,170.57540203125,55.0,72.0
697,170.50632318750002,170.8275946354167,60.0,85.0
698,170.50632318750002,170.84513846875,63.0,84.0
699,170.76948068750002,171.16640991666668,55.0,73.0
700,171.03263818750003,171.22123439583333,60.0,84.0
701,169.71685068750003,171.2650939791667,48.0,85.0
702,171.2957956875,171.51399711458336,63.0,72.0
703,171.5589531875,171.65873373958334,60.0,77.0
704,171.82211068750001,172.14557511458335,58.0,75.0
705,171.82211068750001,172.37035547916668,61.0,80.0
706,172.34842568750003,172.44272379166668,58.0,74.0
707,172.08526818750002,172.6993023541667,53.0,74.0
708,172.6115831875,172.99754752083334,58.0,81.0
709,172.6115831875,172.99864401041668,61.0,82.0
710,173.1378981875,173.38351185416667,58.0,85.0
711,173.1378981875,173.42846792708335,65.0,86.0
712,173.1378981875,173.4295644166667,61.0,89.0
713,173.40105568750002,173.49535379166667,53.0,77.0
714,171.82211068750001,173.52166954166668,46.0,85.0
715,173.66421318750002,173.76728320833334,58.0,78.0
716,173.9273706875,174.23987021875,60.0,77.0
717,173.9273706875,174.24096670833336,56.0,82.0
718,174.4536856875,174.5786855,63.0,80.0
719,174.71684318750002,175.08745666666667,56.0,86.0
720,174.71684318750002,175.08745666666667,63.0,85.0
721,174.1905281875,175.32210543750003,51.0,76.0
722,173.9273706875,175.39337726041668,44.0,85.0
723,175.24315818750003,175.45039471875,56.0,85.0
724,175.24315818750003,175.68833295833335,63.0,86.0
725,175.24315818750003,175.70258732291668,68.0,84.0
726,175.5063156875,175.8484204375,44.0,84.0
727,176.03263068750002,176.38021788541667,60.0,81.0
728,176.03263068750002,176.61486665625003,65.0,85.0
729,176.55894568750003,176.67188411458335,60.0,80.0
730,176.29578818750002,176.92188373958334,48.0,76.0
731,176.8221031875,177.41420756250002,60.0,87.0
732,176.8221031875,177.55236525,65.0,86.0
733,176.03263068750002,177.56113716666667,41.0,87.0
734,177.34841818750002,177.57210206250002,48.0,85.0
735,176.8221031875,177.67407559375002,68.0,81.0
736,177.61157568750002,177.95696990625,60.0,87.0
737,177.87473318750003,177.9788996979167,65.0,78.0
738,178.1378906875,178.37582892708335,60.0,85.0
739,178.1378906875,178.50411820833335,63.0,88.0
740,178.66420568750002,178.74753889583334,60.0,85.0
741,178.92736318750002,179.03701214583336,60.0,86.0
742,178.92736318750002,179.052363,67.0,82.0
743,178.1378906875,179.30345911458335,48.0,86.0
744,179.19052068750003,179.49973075000003,60.0,92.0
745,179.19052068750003,179.5249500104167,67.0,87.0
746,179.4536781875,179.6038972604167,55.0,86.0
747,179.7168356875,179.81661623958334,60.0,85.0
748,179.7168356875,179.8341600729167,63.0,86.0
749,179.9799931875,180.06332639583334,60.0,80.0
750,180.24315068750002,180.59950980208336,56.0,90.0
751,180.24315068750002,180.60718522916667,61.0,87.0
752,180.7694656875,180.81003580208335,61.0,68.0
753,180.7694656875,180.81661473958334,65.0,77.0
754,180.7694656875,180.82429016666669,56.0,73.0
755,181.0326231875,181.38349985416667,65.0,87.0
756,181.0326231875,181.41639454166668,61.0,89.0
757,181.0326231875,181.41858752083334,56.0,87.0
758,181.2957806875,181.66091171875001,53.0,83.0
759,180.24315068750002,181.66858714583336,46.0,88.0
760,181.55893818750002,181.70038534375,56.0,90.0
761,181.55893818750002,181.72121864583335,61.0,91.0
762,182.3484106875,182.43503336458335,39.0,89.0
763,182.3484106875,182.5775770104167,58.0,86.0
764,182.3484106875,182.60608573958336,63.0,86.0
765,182.3484106875,182.69380490625002,67.0,83.0
766,182.87472568750002,183.2683654479167,51.0,82.0
767,183.13788318750002,183.36047057291668,67.0,85.0
768,183.13788318750002,183.41639154166668,63.0,87.0
769,183.13788318750002,183.42187398958336,70.0,86.0
770,183.40104068750003,183.4887598541667,58.0,74.0
771,183.6641981875,183.80235587500002,75.0,86.0
772,183.6641981875,183.80345236458334,63.0,89.0
773,183.6641981875,183.81003130208336,67.0,88.0
774,183.6641981875,183.81003130208336,70.0,88.0
775,184.45367068750002,184.6861264791667,67.0,90.0
776,184.45367068750002,184.72779308333335,63.0,88.0
777,184.45367068750002,185.9953350416667,39.0,91.0
778,186.5589306875,187.1203333541667,63.0,86.0
779,186.5589306875,187.12581580208334,68.0,85.0
780,187.6115606875,187.86484978125003,63.0,89.0
781,187.6115606875,187.97011278125,68.0,91.0
782,187.6115606875,188.1927001666667,72.0,89.0
783,186.5589306875,188.34620870833334,44.0,86.0
784,188.1378756875,188.62800653125,63.0,86.0
785,188.66419068750002,188.98655862500001,63.0,79.0
786,188.66419068750002,189.25958453125003,67.0,86.0
787,188.66419068750002,189.30015464583335,70.0,85.0
788,189.1905056875,189.5709875729167,63.0,83.0
789,189.71682068750002,190.00958340625002,63.0,85.0
790,188.66419068750002,190.07975873958335,43.0,86.0
791,187.08524568750002,190.1565130104167,51.0,78.0
792,189.71682068750002,190.18611822916668,75.0,89.0
793,189.71682068750002,190.24203919791668,67.0,83.0
794,189.71682068750002,190.31221453125002,70.0,86.0
795,190.24313568750003,190.39774071875001,63.0,87.0
796,190.7694506875,191.18173077083335,65.0,84.0
797,190.7694506875,191.24532716666667,68.0,77.0
798,191.29576568750002,191.92186123958336,48.0,78.0
799,191.8220806875,192.03151019791667,65.0,88.0
800,191.8220806875,192.0446680729167,68.0,90.0
801,190.7694506875,192.12800128125002,41.0,87.0
802,191.8220806875,192.13238723958335,72.0,90.0
803,192.0852381875,192.2124309791667,48.0,85.0
804,192.34839568750002,192.63677244791668,70.0,85.0
805,192.34839568750002,192.6466408541667,65.0,81.0
806,192.61155318750002,192.79357045833336,68.0,76.0
807,192.87471068750003,193.3209819479167,70.0,84.0
808,193.4010256875,193.60277977083334,63.0,80.0
809,193.92734068750002,194.1992701041667,63.0,88.0
810,193.92734068750002,194.21900691666667,67.0,88.0
811,192.87471068750003,194.22119989583334,39.0,88.0
812,194.19049818750003,194.31659448958334,46.0,77.0
813,194.4536556875,194.75738330208335,65.0,78.0
814,194.4536556875,194.7782166041667,68.0,84.0
815,194.7168131875,195.0194443125,67.0,85.0
816,194.9799706875,195.51286462500002,65.0,90.0
817,195.50628568750003,196.1828197604167,56.0,86.0
818,194.9799706875,196.33961777083334,49.0,89.0
819,196.0326006875,196.39334576041668,65.0,89.0
820,196.0326006875,196.43830183333336,61.0,85.0
821,196.0326006875,196.57755601041669,68.0,82.0
822,196.55891568750002,196.69378390625002,56.0,85.0
823,197.08523068750003,197.41527405208336,60.0,84.0
824,197.08523068750003,197.60715972916668,63.0,85.0
825,197.08523068750003,197.73764198958335,67.0,86.0
826,197.6115456875,197.84290498958336,60.0,85.0
827,197.3483881875,198.22338687500002,55.0,77.0
828,198.13786068750002,198.43171989583334,60.0,87.0
829,197.08523068750003,198.47777245833336,48.0,87.0
830,198.13786068750002,198.52711448958334,67.0,87.0
831,198.40101818750003,198.54685130208335,55.0,79.0
832,198.6641756875,198.75957028125,63.0,84.0
833,198.6641756875,198.78917550000003,60.0,80.0
834,199.19049068750002,199.48106042708335,56.0,85.0
835,199.19049068750002,199.73763898958336,61.0,85.0
836,199.71680568750003,200.07316480208334,56.0,85.0
837,199.9799631875,200.10605948958334,61.0,86.0
838,199.45364818750002,200.31219953125003,53.0,77.0
839,200.2431206875,200.5446553229167,56.0,86.0
840,199.19049068750002,200.55562021875002,46.0,86.0
841,200.2431206875,200.55562021875002,61.0,94.0
842,200.2431206875,200.56877809375,65.0,94.0
843,200.50627818750002,200.6532077916667,53.0,86.0
844,200.76943568750002,200.88785656250002,46.0,86.0
845,201.29575068750003,201.39662772916668,39.0,91.0
846,201.29575068750003,201.63456596875002,58.0,82.0
847,201.29575068750003,201.76285525000003,63.0,85.0
848,202.34838068750003,202.5413628541667,67.0,96.0
849,202.34838068750003,202.55342423958336,63.0,87.0
850,202.08522318750002,202.5907048854167,58.0,94.0
851,201.82206568750001,202.6839065,51.0,77.0
852,202.61153818750003,202.74202044791667,68.0,89.0
853,202.8746956875,203.1532040416667,70.0,89.0
854,203.1378531875,203.25188810416668,68.0,86.0
855,203.40101068750002,203.67074712500002,63.0,78.0
856,203.40101068750002,203.92293972916667,72.0,84.0
857,203.92732568750003,204.26723745833334,63.0,84.0
858,203.66416818750002,204.29136022916668,51.0,75.0
859,204.1904831875,204.53478091666668,68.0,87.0
860,204.4536406875,204.84947342708335,51.0,85.0
861,203.40101068750002,204.89442950000003,44.0,86.0
862,204.71679818750002,204.91855227083335,63.0,86.0
863,204.71679818750002,204.96131536458336,68.0,87.0
864,204.71679818750002,205.0709643229167,72.0,87.0
865,205.5062706875,206.01175238541668,70.0,85.0
866,205.5062706875,206.04355058333334,67.0,86.0
867,206.03258568750002,206.15977847916668,63.0,81.0
868,206.29574318750002,206.65210230208336,63.0,87.0
869,206.29574318750002,206.65868123958336,67.0,96.0
870,206.29574318750002,206.65868123958336,70.0,90.0
871,205.5062706875,207.0676718541667,43.0,76.0
872,205.7694281875,207.06876834375,51.0,56.0
873,206.8220581875,207.07644377083335,67.0,96.0
874,207.0852156875,207.30561009375,63.0,83.0
875,207.61153068750002,207.89003904166668,65.0,86.0
876,207.61153068750002,208.02600375000003,68.0,85.0
877,208.13784568750003,208.28477529166668,65.0,86.0
878,208.4010031875,208.51613459375002,67.0,89.0
879,207.87468818750003,208.83521306250003,48.0,80.0
880,207.61153068750002,208.87797615625,41.0,87.0
881,208.66416068750002,208.90209892708336,68.0,89.0
882,208.92731818750002,209.15867748958334,67.0,92.0
883,209.19047568750003,209.28038783333335,65.0,84.0
884,209.7167906875,209.96459733333336,63.0,84.0
885,209.7167906875,209.99091308333334,67.0,85.0
886,210.24310568750002,210.36262305208336,63.0,86.0
887,209.9799481875,210.56985958333334,58.0,81.0
888,210.50626318750002,210.68170152083334,75.0,88.0
889,210.50626318750002,210.75955228125002,63.0,88.0
890,209.7167906875,211.02051680208336,51.0,87.0
891,210.76942068750003,211.0249027604167,58.0,80.0
892,211.0325781875,211.12139384375,63.0,79.0
893,211.0325781875,211.28367430208334,70.0,86.0
894,211.0325781875,211.29134972916668,67.0,86.0
895,211.2957356875,211.39113028125,63.0,82.0
896,211.82205068750002,212.36262005208334,65.0,85.0
897,211.82205068750002,212.41854102083335,61.0,84.0
898,212.3483656875,212.93827708333336,56.0,85.0
899,211.82205068750002,213.00735592708335,49.0,87.0
900,212.87468068750002,213.15428553125003,61.0,90.0
901,212.87468068750002,213.1564785104167,65.0,99.0
902,212.87468068750002,213.19375915625002,68.0,87.0
903,213.13783818750002,213.2518731041667,56.0,91.0
904,213.6641531875,213.75735480208334,65.0,81.0
905,213.40099568750003,213.77818810416667,61.0,92.0
906,213.9273106875,214.17511733333336,60.0,88.0
907,213.9273106875,214.28366980208335,63.0,86.0
908,214.45362568750002,214.7036253125,55.0,85.0
909,213.9273106875,214.85055491666668,48.0,90.0
910,214.71678318750003,214.86261630208335,60.0,94.0
911,214.97994068750003,215.1170018854167,60.0,87.0
912,214.97994068750003,215.2518701041667,65.0,89.0
913,215.2430981875,215.35713310416668,60.0,87.0
914,214.97994068750003,215.57972048958337,53.0,92.0
915,215.50625568750002,215.65866773958336,68.0,85.0
916,215.50625568750002,215.66743965625002,60.0,83.0
917,216.03257068750003,216.3680965,58.0,84.0
918,216.03257068750003,216.58191196875,61.0,85.0
919,216.5588856875,216.89550798958336,56.0,87.0
920,216.82204318750001,216.95362193750003,61.0,86.0
921,216.29572818750003,217.14221814583334,53.0,87.0
922,217.08520068750002,217.35384063541667,56.0,88.0
923,217.08520068750002,217.42620894791668,61.0,89.0
924,217.08520068750002,217.43827033333335,65.0,91.0
925,217.34835818750003,217.5194105625,53.0,85.0
926,216.03257068750003,217.5413403541667,46.0,88.0
927,217.61151568750003,217.71787517708336,56.0,80.0
928,218.1378306875,218.36151456250002,63.0,85.0
929,218.1378306875,218.36809350000001,58.0,81.0
930,218.66414568750002,218.7847595416667,58.0,76.0
931,218.40098818750002,218.96677681250003,46.0,80.0
932,218.92730318750003,219.2683114479167,58.0,87.0
933,218.92730318750003,219.33519731250001,67.0,87.0
934,218.1378306875,219.3472586979167,39.0,89.0
935,219.1904606875,219.37028497916668,46.0,83.0
936,219.4536181875,219.59177587500002,63.0,86.0
937,219.4536181875,219.64111790625003,58.0,87.0
938,220.24309068750003,220.56655511458337,56.0,80.0
939,220.7694056875,220.94594051041668,56.0,72.0
940,220.24309068750003,220.9656773229167,63.0,82.0
941,221.03256318750002,221.56984308333335,60.0,78.0
942,220.24309068750003,221.77817610416668,44.0,87.0
943,220.5062481875,222.43168389583334,51.0,71.0
944,222.87466568750003,223.19484064583335,54.0,85.0
945,223.13782318750003,223.4656735729167,56.0,86.0
946,223.4009806875,223.68277851041668,58.0,74.0
947,223.66413818750001,224.46676856250002,61.0,79.0
948,222.61150818750002,224.47554047916668,49.0,80.0
949,222.34835068750002,224.5248825104167,42.0,85.0
950,224.9799256875,225.85492437500002,53.0,79.0
951,225.24308318750002,225.89439800000002,60.0,73.0
952,224.45361068750003,225.89768746875,65.0,85.0
953,224.7167681875,225.96786280208335,48.0,75.0
954,224.45361068750003,226.0325556875,41.0,86.0
955,226.48211641666668,227.0215892916667,58.0,68.0
956,226.54571281250003,227.28365030208334,63.0,77.0
957,226.64001091666668,227.30667658333334,67.0,77.0
958,226.89110703125002,229.3011911354167,46.0,76.0
959,227.22115039583335,229.32750688541668,58.0,69.0
960,226.5150111041667,229.34943667708336,39.0,86.0
961,227.97224576041668,229.4952697916667,67.0,74.0
962,227.58299195833337,229.49965575000002,63.0,75.0
963,228.45689415625003,229.50184872916668,70.0,48.0
964,231.82202068750001,232.1235553229167,58.0,81.0
965,231.29570568750003,232.8011858854167,44.0,85.0
966,232.08517818750002,233.36807100000001,56.0,84.0
967,232.08517818750002,233.37903589583334,60.0,81.0
968,233.66412318750002,233.92837717708335,55.0,75.0
969,233.92728068750003,234.48100792708337,58.0,79.0
970,231.5588631875,234.5149991041667,51.0,80.0
971,234.1904381875,234.85271789583336,63.0,84.0
972,233.40096568750002,234.85600736458335,43.0,76.0
973,235.50622568750003,236.12025985416668,56.0,78.0
974,236.29569818750002,236.49745227083335,56.0,79.0
975,236.03254068750002,236.5215750416667,53.0,83.0
976,236.29569818750002,236.5610486666667,60.0,80.0
977,235.7693831875,236.62903102083337,48.0,74.0
978,235.50622568750003,236.73977646875002,41.0,85.0
979,237.61148568750002,238.1959146354167,63.0,79.0
980,238.13780068750003,238.5281509791667,58.0,75.0
981,238.4009581875,238.96455383333335,67.0,86.0
982,237.87464318750003,238.98319415625002,46.0,72.0
983,237.61148568750002,238.99744852083336,39.0,74.0
984,239.7167456875,240.28034133333335,65.0,85.0
985,240.24306068750002,240.57529703125002,61.0,78.0
986,239.9799031875,240.60270927083334,56.0,80.0
987,240.50621818750002,240.7945949479167,63.0,83.0
988,239.7167456875,241.09612958333335,49.0,81.0
989,241.0325331875,241.14876108333334,65.0,89.0
990,241.82200568750002,242.12354032291668,60.0,79.0
991,241.82200568750002,242.39108378125002,63.0,80.0
992,242.34832068750003,242.52046955208334,60.0,80.0
993,242.08516318750003,243.16191595833337,55.0,77.0
994,242.6114781875,243.30994205208336,63.0,82.0
995,241.82200568750002,243.32638939583336,48.0,85.0
996,242.6114781875,243.3340648229167,60.0,84.0
997,243.9272656875,244.23099330208336,54.0,79.0
998,243.9272656875,244.40643163541668,61.0,83.0
999,244.19042318750002,245.11805337500002,49.0,75.0
1000,243.9272656875,245.1301147604167,42.0,85.0
1001,244.45358068750002,245.29349170833336,54.0,84.0
1002,244.71673818750003,245.3077460729167,58.0,81.0
1003,245.2430531875,245.47770195833334,66.0,88.0
1004,246.03252568750003,246.80664733333336,54.0,74.0
1005,246.03252568750003,246.80774382291668,58.0,77.0
1006,246.03252568750003,246.82528765625003,61.0,75.0
1007,246.03252568750003,246.87134021875002,42.0,80.0
1008,248.40313616666668,249.83186209375003,46.0,77.0
1009,248.12353132291668,249.84282698958336,39.0,91.0
1010,248.7847145416667,250.08405469791668,51.0,81.0
1011,249.4535731875,250.0939231041667,55.0,74.0
1012,249.08295970833336,250.16848439583336,58.0,78.0
1013,250.59172937500003,250.7847115416667,56.0,77.0
1014,250.77922909375002,250.91629029166668,58.0,78.0
1015,250.9590533854167,251.21014950000003,60.0,81.0
1016,251.14107065625,251.43164039583337,63.0,71.0
1017,251.36914048958334,251.51935956250003,68.0,68.0
1018,251.5676051041667,251.7353680104167,70.0,52.0
1019,252.1235253229167,252.2847092916667,75.0,79.0
1020,251.84940292708336,252.54786679166668,72.0,79.0
1021,252.46891954166668,252.60269127083336,75.0,72.0
1022,252.54238434375003,252.67505958333336,80.0,54.0
1023,253.2123394791667,253.33953227083336,84.0,67.0
1024,253.25948853125,253.39106728125003,92.0,81.0
1025,250.41409806250002,254.32198693750001,51.0,80.0
1026,250.1662914166667,254.3702324791667,44.0,82.0
