,start,end,pitch,velocity
0,24.077595462499996,24.336805599999998,68.0,113.0
1,24.3933844625,24.582857862499996,75.0,108.0
2,24.709173462499997,24.947331,75.0,108.0
3,25.024962462499996,25.2486463375,73.0,113.0
4,25.3407514625,25.785487637499998,75.0,113.0
5,26.603907462499997,26.897328074999997,66.0,114.0
6,26.919696462499996,27.207853925,63.0,96.0
7,27.235485462499998,27.423643074999998,66.0,107.0
8,27.551274462499997,27.82627405,70.0,117.0
9,27.867063462499996,28.261799712499997,68.0,116.0
10,29.130219462499998,29.423640074999998,68.0,113.0
11,29.446008462499996,29.767060612499996,66.0,102.0
12,29.761797462499995,30.124954812499997,68.0,110.0
13,30.077586462499998,30.413112274999996,71.0,107.0
14,30.393375462499996,30.636796149999995,73.0,113.0
15,30.709164462499995,30.980216687499997,71.0,94.0
16,31.024953462499997,31.288110962499996,73.0,100.0
17,31.340742462499996,31.530215862499997,71.0,94.0
18,31.498636962499997,31.606531537499997,73.0,91.0
19,31.656531462499995,31.969688887499995,75.0,104.0
20,34.182843462499996,34.444685175,73.0,113.0
21,34.4986324625,34.778895199999994,75.0,98.0
22,34.81442146249999,35.095999987499994,73.0,110.0
23,35.130210462499996,35.46442048749999,71.0,100.0
24,35.4459994625,35.955209225,73.0,108.0
25,36.3933664625,36.495997887499996,71.0,96.0
26,36.551260962499995,36.653892387499994,73.0,91.0
27,36.70915546249999,36.9959971375,75.0,98.0
28,37.024944462499995,37.32099665,73.0,102.0
29,37.3407334625,37.577575212499994,73.0,93.0
30,37.65652246249999,37.94994307499999,75.0,94.0
31,37.972311462499995,38.3433635375,68.0,91.0
32,39.2354674625,39.530203862499995,68.0,110.0
33,39.55125646249999,39.849940225,66.0,96.0
34,39.867045462499995,40.1828344625,66.0,96.0
35,40.1828344625,40.418360424999996,71.0,102.0
36,40.49862346249999,40.79204407499999,73.0,108.0
37,40.97230696249999,41.118359375,75.0,90.0
38,41.1302014625,41.38414845,73.0,100.0
39,41.761779462499995,42.00914751249999,66.0,113.0
40,42.0775684625,42.2959891875,68.0,110.0
41,42.39335746249999,42.6012518875,71.0,108.0
42,42.709146462499994,42.901251437499994,68.0,108.0
43,43.0249354625,43.32493501249999,68.0,110.0
44,44.28809146249999,44.5473016,68.0,113.0
45,44.603880462499994,44.7933538625,75.0,108.0
46,44.919669462499996,45.157827,75.0,108.0
47,45.23545846249999,45.4591423375,73.0,113.0
48,45.551247462499994,45.9959836375,75.0,113.0
49,46.814403462499996,47.107824074999996,66.0,114.0
50,47.1301924625,47.418349924999994,63.0,96.0
51,47.445981462499994,47.63413907499999,66.0,107.0
52,47.761770462499996,48.036770049999994,70.0,117.0
53,48.0775594625,48.47229571249999,68.0,116.0
54,49.34071546249999,49.634136074999994,68.0,113.0
55,49.656504462499996,49.977556612499995,66.0,102.0
56,49.9722934625,50.33545081249999,68.0,110.0
57,50.28808246249999,50.623608274999995,71.0,107.0
58,50.603871462499995,50.847292149999994,73.0,113.0
59,50.9196604625,51.190712687499996,71.0,94.0
60,51.23544946249999,51.49860696249999,73.0,100.0
61,51.551238462499995,51.74071186249999,78.0,94.0
62,51.8670274625,52.1801848875,75.0,104.0
63,54.393339462499995,54.655181174999996,73.0,113.0
64,54.7091284625,54.98939119999999,75.0,98.0
65,55.02491746249999,55.30649598749999,73.0,110.0
66,55.340706462499995,55.67491648749999,71.0,100.0
67,55.6564954625,56.165705224999996,73.0,108.0
68,56.6038624625,56.706493887499995,71.0,96.0
69,56.761756962499994,56.86438838749999,73.0,91.0
70,56.91965146249999,57.2064931375,75.0,98.0
71,57.235440462499994,57.53149265,73.0,102.0
72,57.5512294625,57.78807121249999,73.0,93.0
73,57.86701846249999,58.16043907499999,75.0,94.0
74,58.182807462499994,58.553859537499996,68.0,91.0
75,59.445963462499996,59.740699862499994,68.0,110.0
76,59.76175246249999,60.060436225,66.0,96.0
77,60.077541462499994,60.393330462499996,66.0,96.0
78,60.393330462499996,60.628856424999995,71.0,102.0
79,60.70911946249999,61.00254007499999,73.0,108.0
80,61.024908462499994,61.322276437499994,73.0,108.0
81,61.340697462499996,61.595960237499995,75.0,108.0
82,61.65648646249999,61.84464407499999,78.0,108.0
83,61.972275462499994,62.22753823749999,78.0,114.0
84,62.288064462499996,62.50516939999999,75.0,107.0
85,62.60385346249999,62.81964261249999,78.0,114.0
86,62.91964246249999,63.11306322499999,80.0,113.0
87,63.235431462499996,63.528852074999996,80.0,119.0
88,64.4985874625,64.7196397625,75.0,117.0
89,64.8143764625,65.00779722499999,80.0,117.0
90,65.13016546249999,65.3577967,80.0,116.0
91,65.4459544625,65.66963833749999,78.0,114.0
92,65.7617434625,66.0525325,80.0,119.0
93,66.3933214625,66.63279478749999,78.0,117.0
94,66.70911046249999,66.96174166249999,75.0,102.0
95,67.02489946249999,67.36700421249999,73.0,110.0
96,67.4985829625,67.61174068749999,75.0,104.0
97,67.65647746249999,67.9117402375,78.0,110.0
98,67.97226646249999,68.260423925,73.0,107.0
99,68.2880554625,68.58410764999999,75.0,110.0
100,69.55121146249999,69.83542156249999,80.0,113.0
101,69.86700046249999,70.0564738625,78.0,108.0
102,70.1827894625,70.46963113749999,78.0,113.0
103,70.49857846249999,70.7577886,75.0,110.0
104,70.81436746249999,71.11963016249999,73.0,113.0
105,71.1301564625,71.3512087625,75.0,107.0
106,71.44594546249999,71.66305039999999,80.0,113.0
107,71.76173446249999,72.03541826249999,78.0,114.0
108,72.0775234625,72.4301545125,75.0,110.0
109,74.60383546249999,74.813045675,73.0,116.0
110,74.9196244625,75.1380451875,75.0,116.0
111,75.23541346249999,75.455149975,73.0,113.0
112,75.55120246249999,75.78672842499999,71.0,108.0
113,75.8669914625,76.18278046249999,73.0,114.0
114,76.49856946249999,76.770937475,71.0,110.0
115,76.8143584625,77.07093702499999,73.0,110.0
116,77.13014746249999,77.35119976249999,75.0,108.0
117,77.44593646249999,77.70119923749999,78.0,110.0
118,77.7617254625,78.0511987125,75.0,110.0
119,78.07751446249999,78.38146137499999,73.0,110.0
120,78.39330346249999,78.72093455,71.0,110.0
121,79.6564594625,79.84066971249999,71.0,110.0
122,79.97224846249999,80.14593241249999,71.0,100.0
123,80.28803746249999,80.449879325,71.0,96.0
124,80.6038264625,80.7985630125,75.0,108.0
125,80.91961546249999,81.20514134999999,73.0,113.0
126,81.23540446249999,81.47093042499999,75.0,114.0
127,81.5511934625,81.81961411249999,78.0,116.0
128,81.86698246249999,82.0985610625,75.0,114.0
129,82.18277146249999,82.37092907499999,78.0,110.0
130,82.4985604625,82.67092862499999,80.0,108.0
131,82.81434946249999,82.9788229,80.0,116.0
132,83.13013846249999,83.3354013125,82.0,117.0
133,83.4459274625,83.7156639,82.0,119.0
134,84.70908346249999,84.93013576249999,75.0,117.0
135,85.02487246249999,85.218293225,80.0,117.0
136,85.3406614625,85.56829269999999,80.0,116.0
137,85.65645046249999,85.8801343375,78.0,114.0
138,85.97223946249999,86.26302849999999,80.0,119.0
139,86.60381746249999,86.8432907875,78.0,117.0
140,86.91960646249998,87.1722376625,75.0,102.0
141,87.2353954625,87.57750021249998,73.0,110.0
142,87.70907896249999,87.8222366875,75.0,104.0
143,87.86697346249998,88.12223623749999,78.0,110.0
144,88.1827624625,88.47091992499999,73.0,107.0
145,88.49855146249999,88.79460364999998,75.0,110.0
146,89.76170746249998,90.0459175625,80.0,113.0
147,90.0774964625,90.26696986249999,78.0,108.0
148,90.39328546249999,90.6801271375,78.0,113.0
149,90.70907446249998,90.96828459999999,75.0,110.0
150,91.0248634625,91.3301261625,73.0,113.0
151,91.34065246249999,91.56170476249999,75.0,107.0
152,91.65644146249998,91.8735464,80.0,113.0
153,91.9722304625,92.2459142625,78.0,114.0
154,92.28801946249999,92.64065051249999,75.0,110.0
155,94.8143314625,95.02354167499999,73.0,116.0
156,95.13012046249999,95.34854118749999,75.0,116.0
157,95.44590946249998,95.66564597499999,73.0,113.0
158,95.7616984625,95.99722442499998,71.0,108.0
159,96.07748746249999,96.39327646249998,73.0,114.0
160,96.70906546249999,96.98143347499999,71.0,110.0
161,97.02485446249999,97.28143302499998,73.0,110.0
162,97.34064346249998,97.5616957625,75.0,108.0
163,97.65643246249999,97.91169523749998,78.0,110.0
164,97.97222146249999,98.26169471249999,78.0,110.0
165,98.28801046249998,98.59195737499999,75.0,110.0
166,98.60379946249999,98.93143054999999,80.0,110.0
167,99.86695546249999,100.18011288749999,80.0,116.0
168,100.18274446249998,100.4511651125,78.0,114.0
169,100.49853346249999,100.8722171125,80.0,113.0
170,100.81432246249999,101.09590098749999,83.0,108.0
171,101.13011146249998,101.39195317499998,85.0,116.0
172,101.44590046249999,101.73800528749999,83.0,107.0
173,101.76168946249999,102.06037322499999,82.0,108.0
174,102.07747846249998,102.32747808749998,80.0,117.0
175,102.39326746249999,102.67747756249999,78.0,114.0
176,102.70905646249999,102.97484553749999,75.0,107.0
177,103.02484546249998,103.2537924875,78.0,113.0
178,103.34063446249999,103.54194994999999,80.0,114.0
179,103.65642346249999,103.93800198749999,80.0,114.0
180,125.13007546249999,125.38928559999998,68.0,113.0
181,125.44586446249998,125.63533786249998,75.0,108.0
182,125.76165346249999,125.99981099999998,75.0,108.0
183,126.07744246249999,126.30112633749998,73.0,113.0
184,126.39323146249998,126.83796763749999,75.0,113.0
185,127.65638746249999,127.94980807499999,66.0,114.0
186,127.97217646249999,128.260333925,63.0,96.0
187,128.28796546249998,128.47612307499998,66.0,107.0
188,128.60375446249998,128.87875405,70.0,117.0
189,128.91954346249997,129.3142797125,68.0,116.0
190,130.18269946249998,130.47612007499998,68.0,113.0
191,130.49848846249998,130.8195406125,66.0,102.0
192,130.81427746249997,131.1774348125,68.0,110.0
193,131.1300664625,131.46559227499998,71.0,107.0
194,131.4458554625,131.68927614999998,73.0,113.0
195,131.7616444625,132.0326966875,71.0,94.0
196,132.07743346249998,132.3405909625,73.0,100.0
197,132.39322246249998,132.58269586249997,71.0,94.0
198,132.55111696249998,132.6590115375,73.0,91.0
199,132.70901146249997,133.0221688875,75.0,104.0
200,135.2353234625,135.497165175,73.0,113.0
201,135.5511124625,135.8313752,75.0,98.0
202,135.86690146249998,136.1484799875,73.0,110.0
203,136.18269046249998,136.51690048749998,71.0,100.0
204,136.49847946249997,137.00768922499998,73.0,108.0
205,137.4458464625,137.54847788749998,71.0,96.0
206,137.60374096249998,137.70637238749998,73.0,91.0
207,137.76163546249998,138.0484771375,75.0,98.0
208,138.07742446249998,138.37347665,73.0,102.0
209,138.39321346249997,138.6300552125,73.0,93.0
210,138.7090024625,139.002423075,75.0,94.0
211,139.0247914625,139.39584353749999,68.0,91.0
212,140.28794746249997,140.58268386249998,68.0,110.0
213,140.6037364625,140.902420225,66.0,96.0
214,140.9195254625,141.23531446249999,66.0,96.0
215,141.23531446249999,141.47084042499998,71.0,102.0
216,141.55110346249998,141.84452407499998,73.0,108.0
217,142.02478696249997,142.17083937499999,75.0,90.0
218,142.18268146249997,142.43662844999997,73.0,100.0
219,142.8142594625,143.0616275125,66.0,113.0
220,143.13004846249999,143.34846918749997,68.0,110.0
221,143.44583746249998,143.6537318875,71.0,108.0
222,143.76162646249998,143.95373143749998,68.0,108.0
223,144.07741546249997,144.3774150125,68.0,110.0
224,145.34057146249998,145.59978159999997,68.0,113.0
225,145.65636046249998,145.84583386249997,75.0,108.0
226,145.97214946249997,146.21030699999997,75.0,108.0
227,146.2879384625,146.51162233749997,73.0,113.0
228,146.6037274625,147.0484636375,75.0,113.0
229,147.86688346249997,148.16030407499997,66.0,114.0
230,148.1826724625,148.47082992499998,63.0,96.0
231,148.4984614625,148.68661907499998,66.0,107.0
232,148.81425046249998,149.08925004999998,70.0,117.0
233,149.13003946249998,149.52477571249997,68.0,116.0
234,150.3931954625,150.686616075,68.0,113.0
235,150.70898446249998,151.03003661249997,66.0,102.0
236,151.02477346249998,151.38793081249997,68.0,110.0
237,151.34056246249997,151.67608827499998,71.0,107.0
238,151.65635146249997,151.89977215,73.0,113.0
239,151.9721404625,152.24319268749997,71.0,94.0
240,152.2879294625,152.5510869625,73.0,100.0
241,152.60371846249998,152.79319186249998,78.0,94.0
242,152.91950746249998,153.2326648875,75.0,104.0
243,155.44581946249997,155.70766117499997,73.0,113.0
244,155.7616084625,156.04187119999997,75.0,98.0
245,156.0773974625,156.35897598749997,73.0,110.0
246,156.39318646249998,156.7273964875,71.0,100.0
247,156.70897546249998,157.21818522499998,73.0,108.0
248,157.6563424625,157.7589738875,71.0,96.0
249,157.8142369625,157.9168683875,73.0,91.0
250,157.9721314625,158.2589731375,75.0,98.0
251,158.28792046249998,158.58397265,73.0,102.0
252,158.60370946249998,158.84055121249997,73.0,93.0
253,158.91949846249997,159.21291907499997,75.0,94.0
254,159.23528746249997,159.6063395375,68.0,91.0
255,160.49844346249998,160.79317986249998,68.0,110.0
256,160.81423246249997,161.112916225,66.0,96.0
257,161.13002146249997,161.4458104625,66.0,96.0
258,161.4458104625,161.68133642499998,71.0,102.0
259,161.7615994625,162.055020075,73.0,108.0
260,162.07738846249998,162.37475643749997,73.0,108.0
261,162.39317746249998,162.64844023749998,75.0,108.0
262,162.70896646249997,162.897124075,78.0,108.0
263,163.0247554625,163.28001823749997,78.0,114.0
264,163.3405444625,163.55764939999997,75.0,107.0
265,163.6563334625,163.8721226125,78.0,114.0
266,163.97212246249998,164.165543225,80.0,113.0
267,164.28791146249998,164.58133207499998,80.0,119.0
268,165.5510674625,165.77211976249998,75.0,117.0
269,165.86685646249998,166.060277225,80.0,117.0
270,166.18264546249998,166.41027669999997,80.0,116.0
271,166.49843446249997,166.72211833749998,78.0,114.0
272,166.8142234625,167.1050125,80.0,119.0
273,167.4458014625,167.6852747875,78.0,117.0
274,167.76159046249998,168.01422166249998,75.0,102.0
275,168.07737946249998,168.41948421249998,73.0,110.0
276,168.55106296249997,168.66422068749998,75.0,104.0
277,168.7089574625,168.96422023749997,78.0,110.0
278,169.0247464625,169.31290392499997,73.0,107.0
279,169.3405354625,169.63658765,75.0,110.0
280,170.6036914625,170.8879015625,80.0,113.0
281,170.9194804625,171.1089538625,78.0,108.0
282,171.23526946249999,171.5221111375,78.0,113.0
283,171.55105846249998,171.81026859999997,75.0,110.0
284,171.86684746249998,172.1721101625,73.0,113.0
285,172.18263646249997,172.40368876249997,75.0,107.0
286,172.4984254625,172.71553039999998,80.0,113.0
287,172.8142144625,173.08789826249998,78.0,114.0
288,173.13000346249999,173.48263451249997,75.0,110.0
289,175.65631546249998,175.865525675,73.0,116.0
290,175.97210446249997,176.1905251875,75.0,116.0
291,176.2878934625,176.507629975,73.0,113.0
292,176.6036824625,176.83920842499998,71.0,108.0
293,176.91947146249998,177.23526046249998,73.0,114.0
294,177.55104946249998,177.82341747499999,71.0,110.0
295,177.86683846249997,178.12341702499998,73.0,110.0
296,178.1826274625,178.4036797625,75.0,108.0
297,178.4984164625,178.75367923749997,78.0,110.0
298,178.81420546249998,179.10367871249997,75.0,110.0
299,179.12999446249998,179.433941375,73.0,110.0
300,179.44578346249997,179.77341454999998,71.0,110.0
301,180.70893946249998,180.8931497125,71.0,110.0
302,181.02472846249998,181.19841241249998,71.0,100.0
303,181.34051746249997,181.502359325,71.0,96.0
304,181.65630646249997,181.85104301249999,75.0,108.0
305,181.9720954625,182.25762135,73.0,113.0
306,182.2878844625,182.52341042499998,75.0,114.0
307,182.60367346249998,182.87209411249998,78.0,116.0
308,182.91946246249998,183.15104106249998,75.0,114.0
309,183.23525146249997,183.42340907499997,78.0,110.0
310,183.55104046249997,183.723408625,80.0,108.0
311,183.8668294625,184.0313029,80.0,116.0
312,184.1826184625,184.38788131249999,82.0,117.0
313,184.49840746249998,184.76814389999998,82.0,119.0
314,185.7615634625,185.9826157625,75.0,117.0
315,186.0773524625,186.27077322499997,80.0,117.0
316,186.39314146249998,186.62077269999997,80.0,116.0
317,186.70893046249998,186.93261433749998,78.0,114.0
318,187.02471946249997,187.3155085,80.0,119.0
319,187.6562974625,187.89577078749997,78.0,117.0
320,187.9720864625,188.22471766249998,75.0,102.0
321,188.28787546249998,188.6299802125,73.0,110.0
322,188.76155896249998,188.87471668749998,75.0,104.0
323,188.91945346249997,189.17471623749998,78.0,110.0
324,189.23524246249997,189.52339992499998,73.0,107.0
325,189.5510314625,189.84708364999997,75.0,110.0
326,190.81418746249997,191.09839756249997,80.0,113.0
327,191.12997646249997,191.31944986249997,78.0,108.0
328,191.4457654625,191.73260713749997,78.0,113.0
329,191.7615544625,192.02076459999998,75.0,110.0
330,192.07734346249998,192.38260616249997,73.0,113.0
331,192.39313246249998,192.61418476249997,75.0,107.0
332,192.70892146249997,192.92602639999998,80.0,113.0
333,193.02471046249997,193.29839426249998,78.0,114.0
334,193.3404994625,193.69313051249998,75.0,110.0
335,195.86681146249998,196.076021675,73.0,116.0
336,196.18260046249998,196.4010211875,75.0,116.0
337,196.49838946249997,196.718125975,73.0,113.0
338,196.81417846249997,197.049704425,71.0,108.0
339,197.1299674625,197.4457564625,73.0,114.0
340,197.76154546249998,198.033913475,71.0,110.0
341,198.07733446249998,198.333913025,73.0,110.0
342,198.39312346249997,198.61417576249997,75.0,108.0
343,198.70891246249997,198.96417523749997,78.0,110.0
344,199.0247014625,199.31417471249998,78.0,110.0
345,199.3404904625,199.64443737499997,75.0,110.0
346,199.65627946249998,199.98391055,80.0,110.0
347,200.9194354625,201.23259288749998,80.0,116.0
348,201.23522446249999,201.50364511249998,78.0,114.0
349,201.55101346249998,201.92469711249998,80.0,113.0
350,201.86680246249998,202.1483809875,83.0,108.0
351,202.18259146249997,202.44443317499997,85.0,116.0
352,202.49838046249997,202.7904852875,83.0,107.0
353,202.8141694625,203.11285322499998,82.0,108.0
354,203.12995846249999,203.37995808749997,80.0,117.0
355,203.44574746249998,203.72995756249998,78.0,114.0
356,203.76153646249998,204.0273255375,75.0,107.0
357,204.07732546249997,204.30627248749997,78.0,113.0
358,204.39311446249997,204.59442994999998,80.0,114.0
359,204.7089034625,204.99048198749998,80.0,114.0
360,205.97205946249997,206.19311176249997,75.0,117.0
361,206.28784846249997,206.48126922499998,80.0,117.0
362,206.6036374625,206.83126869999998,80.0,116.0
363,206.91942646249998,207.1431103375,78.0,114.0
364,207.23521546249998,207.52600449999997,80.0,119.0
365,207.86679346249997,208.10626678749998,78.0,117.0
366,208.18258246249997,208.4352136625,75.0,102.0
367,208.4983714625,208.84047621249996,73.0,110.0
368,208.97205496249998,209.0852126875,75.0,104.0
369,209.12994946249998,209.38521223749999,78.0,110.0
370,209.44573846249997,209.73389592499998,73.0,107.0
371,209.76152746249997,210.05757964999998,75.0,110.0
372,211.02468346249998,211.30889356249997,80.0,113.0
373,211.34047246249997,211.52994586249997,78.0,108.0
374,211.65626146249997,211.94310313749997,78.0,113.0
375,211.97205046249996,212.23126059999998,75.0,110.0
376,212.2878394625,212.59310216249997,73.0,113.0
377,212.60362846249998,212.82468076249998,75.0,107.0
378,212.91941746249998,213.1365224,80.0,113.0
379,213.23520646249997,213.5088902625,78.0,114.0
380,213.55099546249997,213.90362651249998,75.0,110.0
381,216.0773074625,216.28651767499997,73.0,116.0
382,216.39309646249998,216.61151718749997,75.0,116.0
383,216.70888546249998,216.92862197499997,73.0,113.0
384,217.02467446249997,217.26020042499997,71.0,108.0
385,217.34046346249997,217.65625246249996,73.0,114.0
386,217.9720414625,218.24440947499997,71.0,110.0
387,218.28783046249998,218.54440902499996,73.0,110.0
388,218.60361946249998,218.82467176249997,75.0,108.0
389,218.91940846249997,219.17467123749998,78.0,110.0
390,219.23519746249997,219.52467071249998,75.0,110.0
391,219.55098646249996,219.85493337499997,73.0,110.0
392,219.8667754625,220.19440654999997,71.0,110.0
393,221.12993146249997,221.31414171249997,71.0,110.0
394,221.44572046249996,221.6194044125,71.0,100.0
395,221.7615094625,221.92335132499997,71.0,96.0
396,222.07729846249998,222.27203501249997,75.0,108.0
397,222.39308746249998,222.67861334999998,73.0,113.0
398,222.70887646249997,222.94440242499996,75.0,114.0
399,223.02466546249997,223.29308611249996,78.0,116.0
400,223.34045446249996,223.57203306249997,75.0,114.0
401,223.6562434625,223.84440107499998,78.0,110.0
402,223.97203246249998,224.14440062499997,80.0,108.0
403,224.28782146249998,224.45229489999997,80.0,116.0
404,224.60361046249997,224.80887331249997,82.0,117.0
405,224.91939946249997,225.18913589999997,82.0,119.0
406,226.18255546249998,226.40360776249997,75.0,117.0
407,226.49834446249997,226.69176522499998,80.0,117.0
408,226.81413346249997,227.0417647,80.0,116.0
409,227.12992246249996,227.35360633749997,78.0,114.0
410,227.4457114625,227.73650049999998,80.0,119.0
411,228.07728946249998,228.31676278749998,78.0,117.0
412,228.39307846249997,228.64570966249997,75.0,102.0
413,228.70886746249997,229.05097221249997,73.0,110.0
414,229.1825509625,229.29570868749997,75.0,104.0
415,229.34044546249999,229.59570823749996,78.0,110.0
416,229.65623446249998,229.94439192499996,73.0,107.0
417,229.97202346249998,230.26807565,75.0,110.0
418,231.23517946249999,231.51938956249998,80.0,113.0
419,231.55096846249998,231.74044186249998,78.0,108.0
420,231.86675746249998,232.15359913749998,78.0,113.0
421,232.18254646249997,232.44175659999996,75.0,110.0
422,232.49833546249997,232.80359816249998,73.0,113.0
423,232.81412446249996,233.0351767625,75.0,107.0
424,233.12991346249999,233.34701839999997,80.0,113.0
425,233.44570246249998,233.71938626249997,78.0,114.0
426,233.76149146249998,234.11412251249996,75.0,110.0
427,236.28780346249997,236.49701367499998,73.0,116.0
428,236.60359246249996,236.82201318749998,75.0,116.0
429,236.91938146249998,237.13911797499998,73.0,113.0
430,237.23517046249998,237.47069642499997,71.0,108.0
431,237.55095946249997,237.86674846249997,73.0,114.0
432,238.18253746249997,238.45490547499998,71.0,110.0
433,238.49832646249996,238.75490502499997,73.0,110.0
434,238.81411546249998,239.03516776249998,75.0,108.0
435,239.12990446249998,239.38516723749999,78.0,110.0
436,239.44569346249997,239.73516671249996,78.0,110.0
437,239.76148246249997,240.06542937499998,75.0,110.0
438,240.07727146249997,240.40490254999997,80.0,110.0
439,241.34042746249997,241.65358488749996,80.0,116.0
440,241.65621646249997,241.92463711249997,78.0,114.0
441,241.97200546249996,242.34568911249997,80.0,113.0
442,242.28779446249996,242.56937298749997,83.0,108.0
443,242.60358346249998,242.86542517499998,85.0,116.0
444,242.91937246249998,243.21147728749997,83.0,107.0
445,243.23516146249997,243.53384522499996,82.0,108.0
446,243.55095046249997,243.80095008749998,80.0,117.0
447,243.86673946249996,244.15094956249996,78.0,114.0
448,244.18252846249996,244.44831753749997,75.0,107.0
449,244.49831746249998,244.72726448749998,78.0,113.0
450,244.81410646249998,245.01542194999996,80.0,114.0
451,245.12989546249997,245.41147398749996,80.0,114.0
