,start,end,pitch,velocity
0,3.8670994624999997,4.4289407249999995,68.0,89.0
1,3.8670994624999997,4.4644669875,59.0,87.0
2,3.8670994624999997,4.471045924999999,63.0,91.0
3,4.4986774625,4.771045474999999,56.0,81.0
4,4.182888462499999,4.7723612625,51.0,79.0
5,4.4986774625,4.906571587499999,68.0,90.0
6,4.4986774625,4.92104525,59.0,88.0
7,4.4986774625,4.9460452125,63.0,92.0
8,3.8670994624999997,4.998676712499999,44.0,85.0
9,5.130255462499999,5.5381495874999995,68.0,88.0
10,5.130255462499999,5.565781124999999,59.0,87.0
11,5.130255462499999,5.571044274999999,64.0,89.0
12,5.761833462499999,6.098675062499999,59.0,87.0
13,5.761833462499999,6.111832937499999,68.0,87.0
14,5.130255462499999,6.153938137499999,40.0,84.0
15,5.761833462499999,6.160517075,64.0,88.0
16,5.4460444625,6.281569524999999,52.0,84.0
17,6.3934114625,6.819726612499999,58.0,88.0
18,6.3934114625,6.822358187499999,66.0,90.0
19,6.3934114625,6.869726537499999,61.0,94.0
20,6.3934114625,7.384199449999999,42.0,87.0
21,6.709200462499999,7.385515237499999,49.0,83.0
22,7.024989462499999,7.3960415374999995,58.0,87.0
23,7.024989462499999,7.482883512499999,66.0,88.0
24,7.024989462499999,7.528936074999999,54.0,83.0
25,7.024989462499999,7.557883399999999,61.0,89.0
26,7.656567462499999,7.9841985499999995,66.0,87.0
27,7.656567462499999,8.0697247375,63.0,90.0
28,7.656567462499999,8.094724699999999,59.0,84.0
29,7.656567462499999,8.660513324999998,47.0,87.0
30,8.2881454625,8.74209215,66.0,92.0
31,8.2881454625,8.8065657375,61.0,100.0
32,7.972356462499999,8.913144525,54.0,77.0
33,8.919723462499999,9.3039334125,64.0,89.0
34,8.919723462499999,9.318407075,56.0,88.0
35,8.919723462499999,9.327617587499999,59.0,100.0
36,9.2355124625,9.607880324999998,52.0,80.0
37,8.919723462499999,9.886827274999998,40.0,91.0
38,9.5513014625,9.905248299999998,64.0,91.0
39,9.5513014625,9.9302482625,56.0,88.0
40,9.5513014625,10.086826975,59.0,96.0
41,9.867090462499998,10.153932137499998,52.0,84.0
42,10.182879462499999,10.584194649999999,58.0,88.0
43,10.182879462499999,10.589457799999998,66.0,92.0
44,10.182879462499999,10.602615675,61.0,98.0
45,10.4986684625,11.1670885125,49.0,77.0
46,10.814457462499998,11.1670885125,58.0,89.0
47,10.814457462499998,11.171035875,66.0,88.0
48,10.182879462499999,11.188141112499999,42.0,86.0
49,10.814457462499998,11.339456675,61.0,104.0
50,10.814457462499998,11.371035574999999,54.0,83.0
51,11.4460354625,11.752613949999999,66.0,93.0
52,11.4460354625,11.84735065,59.0,89.0
53,11.4460354625,11.9276136875,63.0,100.0
54,12.077613462499999,12.402612974999998,61.0,104.0
55,12.077613462499999,12.446033962499998,66.0,92.0
56,12.3934024625,12.830243912499999,59.0,82.0
57,12.709191462499998,13.102611924999998,63.0,91.0
58,12.709191462499998,13.110506649999998,66.0,100.0
59,13.024980462499999,13.647347949999999,59.0,86.0
60,11.4460354625,13.731558349999998,47.0,87.0
61,13.340769462499999,13.802610875,66.0,110.0
62,11.761824462499998,13.830242412499999,54.0,81.0
63,13.340769462499999,13.888137062499998,63.0,102.0
64,13.972347462499998,14.607872824999998,64.0,98.0
65,13.972347462499998,14.614451762499998,68.0,91.0
66,14.603925462499998,15.368398,61.0,88.0
67,14.919714462499998,15.56313455,73.0,85.0
68,14.919714462499998,15.610502899999998,64.0,84.0
69,15.235503462499999,15.696029087499998,68.0,87.0
70,15.551292462499998,15.939449774999998,61.0,86.0
71,14.288136462499999,16.036818049999997,56.0,76.0
72,13.972347462499998,16.084186399999997,49.0,90.0
73,15.867081462499998,16.510501549999997,73.0,85.0
74,15.867081462499998,16.5118173375,64.0,86.0
75,16.1828704625,16.513133125,68.0,88.0
76,17.1302374625,17.643394587499998,68.0,87.0
77,17.446026462499997,17.699973449999998,63.0,78.0
78,17.1302374625,17.735499712499998,59.0,87.0
79,16.8144484625,17.828920625,56.0,87.0
80,17.7618154625,18.124972812499998,68.0,89.0
81,17.7618154625,18.132867537499997,63.0,87.0
82,18.0776044625,18.4960248875,56.0,88.0
83,16.498659462499997,18.576287925,44.0,87.0
84,18.393393462499997,18.744708725,68.0,96.0
85,18.393393462499997,18.7683929,59.0,91.0
86,18.7091824625,18.952603149999998,63.0,89.0
87,19.024971462499998,19.469707637499997,64.0,91.0
88,19.024971462499998,19.5197075625,61.0,96.0
89,19.024971462499998,19.546023312499997,56.0,88.0
90,19.6565494625,19.971022674999997,56.0,89.0
91,19.6565494625,20.043390987499997,64.0,91.0
92,19.6565494625,20.063127799999997,61.0,94.0
93,19.024971462499998,20.0776014625,49.0,88.0
94,20.288127462499997,20.697337374999996,66.0,84.0
95,20.288127462499997,20.75260045,58.0,87.0
96,20.288127462499997,20.757863599999997,63.0,93.0
97,20.919705462499998,21.373652149999998,66.0,89.0
98,20.919705462499998,21.403915262499996,58.0,88.0
99,20.919705462499998,21.427599437499996,63.0,91.0
100,20.288127462499997,21.524967712499997,51.0,91.0
101,21.5512834625,21.915756599999998,56.0,83.0
102,21.5512834625,22.192071974999998,63.0,86.0
103,21.5512834625,22.194703549999996,59.0,88.0
104,22.4986504625,22.721018549999997,63.0,87.0
105,22.4986504625,22.752597449999996,58.0,86.0
106,22.814439462499998,23.632859287499997,59.0,94.0
107,22.182861462499996,23.644701374999997,56.0,86.0
108,21.867072462499998,23.649964524999998,51.0,74.0
109,21.5512834625,23.652596099999997,44.0,83.0
110,22.814439462499998,23.6591750375,63.0,92.0
111,24.709173462499997,25.422330287499996,56.0,79.0
112,25.024962462499996,25.6302247125,58.0,77.0
113,25.656540462499997,26.038118837499997,56.0,83.0
114,25.3407514625,26.0433819875,59.0,85.0
115,24.3933844625,26.085487187499997,51.0,75.0
116,25.972329462499996,26.2644342875,63.0,81.0
117,24.077595462499996,26.293381612499996,44.0,88.0
118,26.288118462499998,26.372328862499998,66.0,40.0
119,26.288118462499998,26.413118275,64.0,68.0
120,26.603907462499997,26.801275587499997,63.0,81.0
121,26.603907462499997,27.581537575,39.0,87.0
122,27.235485462499998,27.681537425,56.0,87.0
123,26.919696462499996,27.855221374999996,51.0,84.0
124,27.551274462499997,27.8986423625,63.0,86.0
125,28.498641462499997,29.002588075,56.0,84.0
126,27.867063462499996,29.021009099999997,44.0,78.0
127,28.182852462499998,29.106535287499998,51.0,77.0
128,29.130219462499998,29.488113662499998,64.0,87.0
129,29.130219462499998,29.557850399999996,56.0,77.0
130,29.130219462499998,29.574955637499997,59.0,83.0
131,29.761797462499995,30.142060049999998,56.0,83.0
132,29.130219462499998,30.151270562499995,40.0,86.0
133,29.761797462499995,30.231533599999995,64.0,88.0
134,29.446008462499996,30.403901762499995,52.0,80.0
135,30.393375462499996,30.868374749999997,66.0,89.0
136,30.393375462499996,30.881532625,58.0,86.0
137,30.393375462499996,31.323637224999995,42.0,84.0
138,30.709164462499995,31.374952937499998,49.0,72.0
139,31.024953462499997,31.661794612499996,54.0,80.0
140,31.340742462499996,31.771004974999997,66.0,87.0
141,31.656531462499995,32.190741187499995,63.0,87.0
142,32.6038984625,32.914424312499996,64.0,88.0
143,32.288109462499996,33.063108299999996,59.0,83.0
144,31.972320462499997,33.7670546125,54.0,81.0
145,31.656531462499995,33.827580837499994,47.0,75.0
146,32.919687462499994,33.998633212499996,63.0,88.0
147,34.81442146249999,35.243368187499996,68.0,86.0
148,34.4986324625,35.528894075,56.0,82.0
149,36.077577462499995,36.3223139375,56.0,71.0
150,34.182843462499996,36.363103349999996,49.0,93.0
151,34.81442146249999,36.4249453625,61.0,85.0
152,35.4459994625,36.661787112499994,64.0,84.0
153,37.3407334625,38.105205999999995,56.0,84.0
154,37.65652246249999,38.7617839625,58.0,80.0
155,38.60388946249999,38.78809971249999,56.0,79.0
156,37.024944462499995,38.832836487499996,51.0,84.0
157,36.70915546249999,38.8907311375,44.0,86.0
158,37.972311462499995,39.21573065,59.0,83.0
159,39.2354674625,40.253886987499996,40.0,87.0
160,39.867045462499995,40.46836035,56.0,78.0
161,39.55125646249999,40.469676137499995,52.0,84.0
162,40.1828344625,41.0670436625,59.0,86.0
163,40.49862346249999,41.4933588125,42.0,82.0
164,40.814412462499995,41.785463637499994,54.0,84.0
165,41.1302014625,42.019673812499995,58.0,83.0
166,41.44599046249999,42.0459895625,61.0,84.0
167,42.709146462499994,43.088093262499996,58.0,86.0
168,42.39335746249999,43.10519849999999,56.0,87.0
169,43.0249354625,43.3644086375,59.0,87.0
170,43.34072446249999,44.047302349999995,56.0,83.0
171,41.761779462499995,44.06835494999999,44.0,84.0
172,42.0775684625,44.082828612499995,51.0,86.0
173,43.656513462499994,44.23282838749999,63.0,94.0
174,43.9723024625,44.243354687499995,70.0,100.0
175,44.28809146249999,44.5275647875,71.0,89.0
176,44.28809146249999,44.5512489625,68.0,92.0
177,44.28809146249999,44.638090937499996,63.0,80.0
178,45.23545846249999,45.607826325,63.0,87.0
179,44.919669462499996,45.62624734999999,56.0,83.0
180,45.23545846249999,45.884141699999994,58.0,88.0
181,45.551247462499994,45.926246899999995,59.0,89.0
182,45.867036462499996,46.28808846249999,56.0,88.0
183,44.603880462499994,46.345983112499994,51.0,76.0
184,44.28809146249999,46.419667212499995,44.0,86.0
185,46.18282546249999,46.48808816249999,63.0,108.0
186,46.498614462499994,46.822298187499996,66.0,91.0
187,46.814403462499996,47.194666049999995,63.0,88.0
188,46.814403462499996,47.222297587499995,58.0,84.0
189,47.1301924625,47.582823362499994,51.0,83.0
190,46.814403462499996,47.77098097499999,39.0,84.0
191,47.445981462499994,47.78282306249999,58.0,89.0
192,47.445981462499994,47.8275598375,63.0,91.0
193,47.761770462499996,48.067033162499996,51.0,86.0
194,48.0775594625,48.380190587499996,56.0,84.0
195,48.0775594625,48.53545351249999,63.0,78.0
196,48.0775594625,48.689400649999996,59.0,89.0
197,48.0775594625,49.155189424999996,44.0,82.0
198,48.709137462499996,49.159136787499996,56.0,85.0
199,48.39334846249999,49.37624172499999,51.0,86.0
200,49.0249264625,49.4407153125,58.0,77.0
201,49.34071546249999,50.28939825,40.0,91.0
202,49.9722934625,50.514397912499994,56.0,85.0
203,49.656504462499996,50.58281886249999,52.0,84.0
204,50.28808246249999,50.907818375,59.0,86.0
205,50.9196604625,51.5617647625,49.0,87.0
206,50.603871462499995,51.57229106249999,42.0,85.0
207,51.23544946249999,51.84992222499999,58.0,86.0
208,51.551238462499995,51.9222905375,66.0,89.0
209,51.8670274625,52.3999214,63.0,87.0
210,52.498605462499995,53.257814849999995,59.0,86.0
211,52.8143944625,53.442025099999995,61.0,88.0
212,53.13018346249999,53.51044604999999,66.0,104.0
213,53.445972462499995,53.9538664375,59.0,85.0
214,52.18281646249999,54.01439266249999,54.0,81.0
215,51.8670274625,54.0591294375,47.0,86.0
216,53.7617614625,54.3801815875,63.0,91.0
217,54.07755046249999,54.39465524999999,66.0,88.0
218,55.02491746249999,55.33412752499999,68.0,87.0
219,55.02491746249999,55.51439041249999,61.0,98.0
220,55.340706462499995,55.644653375,64.0,82.0
221,54.7091284625,55.709126962499994,56.0,87.0
222,55.6564954625,56.076231674999995,68.0,88.0
223,55.6564954625,56.107810574999995,61.0,91.0
224,56.288073462499995,56.353862837499996,61.0,75.0
225,55.97228446249999,56.51965206249999,56.0,81.0
226,54.393339462499995,56.56702041249999,49.0,98.0
227,56.288073462499995,56.63412557499999,64.0,91.0
228,56.6038624625,57.31438771249999,68.0,91.0
229,57.5512294625,58.25780734999999,56.0,90.0
230,57.86701846249999,58.45385968749999,58.0,91.0
231,57.86701846249999,58.56833319999999,63.0,91.0
232,58.182807462499994,58.72754348749999,59.0,88.0
233,58.4985964625,58.843332787499996,56.0,88.0
234,57.235440462499994,58.92096424999999,51.0,84.0
235,56.91965146249999,58.97096417499999,44.0,88.0
236,59.445963462499996,59.786752424999996,64.0,94.0
237,59.445963462499996,59.86833124999999,56.0,88.0
238,59.76175246249999,60.20385706249999,52.0,84.0
239,60.077541462499994,60.42227778749999,56.0,88.0
240,59.445963462499996,60.484119799999995,40.0,91.0
241,60.077541462499994,60.644645874999995,64.0,94.0
242,60.70911946249999,61.08806626249999,66.0,93.0
243,60.70911946249999,61.118329374999995,58.0,88.0
244,61.024908462499994,61.46438148749999,54.0,83.0
245,61.340697462499996,61.73543371249999,58.0,91.0
246,60.70911946249999,61.770959975,42.0,82.0
247,61.340697462499996,61.79727572499999,66.0,94.0
248,61.972275462499994,62.56437983749999,63.0,91.0
249,61.972275462499994,62.69727437499999,59.0,86.0
250,62.91964246249999,63.114379012499995,63.0,91.0
251,62.91964246249999,63.185431537499994,58.0,93.0
252,62.60385346249999,63.259115637499995,56.0,102.0
253,63.235431462499996,63.42490486249999,59.0,100.0
254,63.235431462499996,63.49201002499999,63.0,92.0
255,63.86700946249999,64.1459564125,70.0,110.0
256,63.86700946249999,64.213061575,63.0,107.0
257,63.55122046249999,64.21832472499999,56.0,94.0
258,61.972275462499994,64.2249036625,44.0,88.0
259,62.288064462499996,64.228851025,51.0,85.0
260,65.13016546249999,65.381480875,56.0,91.0
261,64.8143764625,65.42753343749999,51.0,80.0
262,64.4985874625,65.449901825,44.0,90.0
263,64.4985874625,65.4775333625,68.0,108.0
264,64.4985874625,65.52095435,59.0,104.0
265,65.4459544625,65.70911196249999,63.0,98.0
266,65.7617434625,66.12226923749999,68.0,92.0
267,65.7617434625,66.16042707499999,59.0,90.0
268,65.7617434625,66.16305865,64.0,104.0
269,66.07753246249999,66.40779512499999,52.0,88.0
270,65.7617434625,66.70779467499999,40.0,89.0
271,66.3933214625,66.73542621249999,68.0,108.0
272,66.3933214625,66.79858401249999,59.0,108.0
273,66.70911046249999,67.0433204875,52.0,89.0
274,67.02489946249999,67.48805666249999,66.0,100.0
275,67.02489946249999,68.00910851249999,42.0,89.0
276,67.02489946249999,68.02489796249999,58.0,100.0
277,67.3406884625,68.03147689999999,49.0,86.0
278,67.65647746249999,68.1801608875,54.0,108.0
279,67.97226646249999,68.2275292375,66.0,89.0
280,67.97226646249999,68.276213375,61.0,90.0
281,68.2880554625,69.26831714999999,47.0,96.0
282,68.91963346249999,69.3893696,61.0,98.0
283,68.91963346249999,69.39594853749999,59.0,86.0
284,68.91963346249999,69.41963271249999,66.0,107.0
285,68.60384446249999,69.54331673749999,54.0,86.0
286,69.55121146249999,69.8933162125,64.0,93.0
287,69.55121146249999,69.91436881249999,56.0,94.0
288,69.55121146249999,69.9248951125,59.0,98.0
289,69.86700046249999,70.25515777499999,52.0,87.0
290,70.1827894625,70.53278893749999,56.0,107.0
291,69.55121146249999,70.5354205125,40.0,100.0
292,70.1827894625,70.56305205,64.0,104.0
293,70.49857846249999,70.77620962499999,52.0,86.0
294,70.81436746249999,71.13541961249999,58.0,92.0
295,70.81436746249999,71.1775248125,61.0,108.0
296,70.81436746249999,71.1854195375,66.0,107.0
297,71.1301564625,71.5143664125,49.0,86.0
298,71.44594546249999,71.81436596249999,66.0,102.0
299,71.44594546249999,71.81831332499999,58.0,104.0
300,70.81436746249999,71.83410277499999,42.0,88.0
301,71.76173446249999,71.8985763625,49.0,88.0
302,71.44594546249999,72.04726034999999,54.0,88.0
303,72.0775234625,72.33147045,59.0,91.0
304,72.0775234625,72.42357557499999,63.0,107.0
305,72.0775234625,72.50383861249999,66.0,94.0
306,72.70910146249999,73.01041679999999,61.0,110.0
307,72.70910146249999,73.07357459999999,66.0,110.0
308,73.34067946249999,73.55252125,63.0,113.0
309,73.34067946249999,73.5748896375,71.0,104.0
310,73.65646846249999,73.72357362499999,63.0,89.0
311,73.65646846249999,73.73673149999999,70.0,92.0
312,73.0248904625,73.8222576875,59.0,88.0
313,73.8143629625,74.1262046,63.0,96.0
314,74.1301519625,74.24067811249999,59.0,88.0
315,73.8143629625,74.25120441249999,71.0,104.0
316,72.39331246249999,74.25646756249999,54.0,86.0
317,72.0775234625,74.32225693749999,47.0,89.0
318,74.9196244625,75.63936022499999,56.0,86.0
319,75.23541346249999,76.07093852499999,61.0,104.0
320,75.23541346249999,76.18146467499999,68.0,100.0
321,75.55120246249999,76.2827803125,64.0,87.0
322,76.18278046249999,76.67356919999999,56.0,86.0
323,74.60383546249999,76.72488491249999,49.0,102.0
324,76.49856946249999,77.12488431249999,68.0,104.0
325,76.49856946249999,77.13804218749999,61.0,110.0
326,76.8143584625,77.25646306249999,64.0,86.0
327,77.7617254625,78.1064617875,70.0,107.0
328,77.44593646249999,78.32093515,58.0,87.0
329,77.7617254625,78.526198,63.0,107.0
330,78.07751446249999,78.7051451,66.0,86.0
331,78.7090924625,79.15909178749999,58.0,87.0
332,77.13014746249999,79.2090917125,51.0,107.0
333,79.02488146249999,79.38935459999999,63.0,114.0
334,79.34067046249999,79.85645916249999,66.0,89.0
335,79.6564594625,80.16961658749999,64.0,93.0
336,79.6564594625,80.3538268375,56.0,92.0
337,79.97224846249999,80.98672062499999,52.0,84.0
338,80.28803746249999,81.27619387499999,59.0,86.0
339,80.6038264625,81.39987789999999,64.0,98.0
340,81.5511934625,81.82750883749999,64.0,42.0
341,79.6564594625,81.85119301249999,40.0,89.0
342,81.5511934625,81.8880350625,56.0,83.0
343,81.23540446249999,82.05250849999999,52.0,86.0
344,81.86698246249999,82.07356109999999,59.0,78.0
345,82.18277146249999,82.55645511249999,66.0,93.0
346,82.18277146249999,82.5617182625,58.0,87.0
347,82.18277146249999,82.5932971625,61.0,96.0
348,82.4985604625,82.8827704125,54.0,83.0
349,82.81434946249999,83.01566494999999,66.0,89.0
350,82.81434946249999,83.04461227499999,61.0,96.0
351,82.18277146249999,83.13408582499999,42.0,86.0
352,82.81434946249999,83.160401575,58.0,92.0
353,83.4459274625,83.79592693749998,63.0,108.0
354,83.4459274625,83.83276898749999,55.0,106.0
355,83.76171646249999,84.09855806249999,51.0,88.0
356,83.4459274625,84.41039969999999,39.0,88.0
357,84.07750546249999,84.43803123749998,55.0,116.0
358,84.07750546249999,84.43934702499999,63.0,114.0
359,84.3932944625,84.6946098,51.0,94.0
360,84.70908346249999,84.9643462375,56.0,89.0
361,84.70908346249999,85.0275040375,59.0,93.0
362,84.70908346249999,85.03803033749999,63.0,89.0
363,85.3406614625,85.62355577499999,56.0,91.0
364,85.02487246249999,85.649871525,51.0,83.0
365,84.70908346249999,85.681450425,44.0,90.0
366,85.3406614625,85.7932923625,63.0,113.0
367,85.3406614625,85.8406607125,59.0,110.0
368,85.97223946249999,86.30118633749998,56.0,91.0
369,85.97223946249999,86.30250212499999,64.0,98.0
370,85.97223946249999,86.3906598875,59.0,92.0
371,86.2880284625,86.61039639999998,52.0,86.0
372,85.97223946249999,86.94065906249999,40.0,91.0
373,86.60381746249999,86.949869575,56.0,113.0
374,86.60381746249999,87.0459220625,64.0,113.0
375,86.91960646249998,87.24197439999999,52.0,88.0
376,87.2353954625,87.56960548749998,66.0,98.0
377,87.2353954625,87.57881599999999,58.0,92.0
378,87.2353954625,87.57881599999999,61.0,100.0
379,87.2353954625,88.22092029999999,42.0,89.0
380,87.55118446249999,88.25513077499998,49.0,84.0
381,87.86697346249998,88.29986754999999,66.0,107.0
382,87.86697346249998,88.31170963749999,58.0,108.0
383,87.86697346249998,88.33144644999999,61.0,113.0
384,87.86697346249998,88.42355157499999,54.0,86.0
385,88.49855146249999,88.60644603749999,59.0,98.0
386,88.49855146249999,88.70513009999999,63.0,92.0
387,89.1301294625,89.36960278749999,61.0,104.0
388,89.28802396249999,89.4038132625,63.0,98.0
389,88.9722349625,89.53276043749999,59.0,90.0
390,88.49855146249999,89.57749721249999,47.0,88.0
391,88.81434046249998,89.61565504999999,54.0,83.0
392,89.44591846249999,89.67618127499999,63.0,87.0
393,89.44591846249999,89.7643390375,66.0,107.0
394,89.76170746249998,90.0853911875,64.0,100.0
395,89.76170746249998,90.09854906249998,56.0,104.0
396,90.0774964625,90.40118018749999,52.0,86.0
397,89.76170746249998,90.68539028749998,40.0,98.0
398,90.39328546249999,90.77617962499998,64.0,96.0
399,90.39328546249999,90.92091624999999,59.0,104.0
400,90.70907446249998,91.01960031249999,52.0,85.0
401,91.0248634625,91.34459982499999,58.0,90.0
402,91.0248634625,91.35644191249999,61.0,100.0
403,91.0248634625,91.36828399999999,66.0,98.0
404,91.65644146249998,92.01959881249999,58.0,102.0
405,91.0248634625,92.02354617499999,42.0,86.0
406,91.34065246249999,92.04196719999999,49.0,81.0
407,91.65644146249998,92.05775664999999,66.0,102.0
408,91.65644146249998,92.186703825,54.0,89.0
409,91.9722304625,92.26301949999998,61.0,88.0
410,92.28801946249999,92.61959791249998,66.0,87.0
411,92.28801946249999,92.64065051249999,59.0,86.0
412,92.28801946249999,92.73933457499999,63.0,89.0
413,92.9195974625,93.19854441249998,61.0,107.0
414,92.9195974625,93.25775484999998,66.0,98.0
415,93.23538646249999,93.6380174375,59.0,84.0
416,93.55117546249998,93.92354332499998,63.0,93.0
417,93.55117546249998,93.96170116249999,66.0,107.0
418,93.8669644625,94.43143729999998,59.0,84.0
419,92.60380846249998,94.513016125,54.0,81.0
420,92.28801946249999,94.54459502499999,47.0,84.0
421,94.18275346249999,94.7472263,66.0,108.0
422,94.18275346249999,94.78406834999998,63.0,104.0
423,95.44590946249998,95.7143301125,61.0,102.0
424,95.44590946249998,95.79196157499999,64.0,108.0
425,95.44590946249998,95.81038259999998,68.0,98.0
426,96.07748746249999,96.55643411249999,64.0,104.0
427,96.39327646249998,96.80643373749999,61.0,84.0
428,95.13012046249999,96.87880204999999,56.0,87.0
429,94.8143314625,96.97617032499998,49.0,107.0
430,96.70906546249999,97.33669609999998,68.0,98.0
431,97.02485446249999,97.35248554999998,64.0,86.0
432,96.07748746249999,97.38932759999999,73.0,104.0
433,98.28801046249998,98.54722059999999,63.0,93.0
434,97.97222146249999,98.63406257499999,56.0,92.0
435,98.28801046249998,98.63800993749999,58.0,96.0
436,98.60379946249999,98.93274633749999,63.0,84.0
437,98.60379946249999,98.96432523749999,59.0,90.0
438,98.91958846249999,99.32485101249999,56.0,89.0
439,97.65643246249999,99.36432463749999,51.0,87.0
440,97.34064346249998,99.46958763749998,44.0,98.0
441,99.23537746249998,99.56564012499999,63.0,108.0
442,99.23537746249998,99.61037689999999,58.0,108.0
443,99.55116646249999,99.86695546249999,59.0,100.0
444,99.86695546249999,100.2380075375,68.0,100.0
445,99.86695546249999,100.25774435,59.0,89.0
446,99.86695546249999,100.26037592499999,63.0,100.0
447,100.18274446249998,100.52090184999999,56.0,83.0
448,100.49853346249999,100.82353297499999,68.0,102.0
449,99.86695546249999,100.83274348749998,44.0,88.0
450,100.49853346249999,100.83932242499999,59.0,100.0
451,100.49853346249999,100.91037494999999,63.0,108.0
452,101.13011146249998,101.43668994999999,66.0,91.0
453,101.13011146249998,101.46695306249998,61.0,107.0
454,101.13011146249998,101.47353199999999,58.0,96.0
455,101.44590046249999,101.84853143749999,54.0,81.0
456,101.13011146249998,102.09195212499999,42.0,89.0
457,101.76168946249999,102.16695201249999,66.0,98.0
458,101.76168946249999,102.1801098875,58.0,102.0
459,101.76168946249999,102.20905721249999,61.0,113.0
460,102.39326746249999,103.00642443749999,63.0,100.0
461,102.39326746249999,103.02089809999998,66.0,90.0
462,102.39326746249999,103.02484546249998,59.0,88.0
463,103.34063446249999,103.48668687499999,63.0,88.0
464,103.34063446249999,103.51826577499999,58.0,96.0
465,103.02484546249998,104.46826434999998,56.0,98.0
466,102.70905646249999,104.470895925,51.0,84.0
467,103.65642346249999,104.50379061249998,59.0,100.0
468,102.39326746249999,104.51168533749998,44.0,88.0
469,103.65642346249999,104.53010636249999,63.0,91.0
470,105.55115746249999,106.3261563,56.0,87.0
471,105.86694646249998,106.51036654999999,58.0,86.0
472,105.86694646249998,106.5327349375,63.0,86.0
473,106.18273546249999,106.60641903749999,59.0,84.0
474,106.49852446249999,106.976155325,56.0,80.0
475,105.23536846249999,107.01957631249999,51.0,72.0
476,104.91957946249998,107.12615509999999,44.0,89.0
477,106.81431346249998,107.37878629999999,63.0,85.0
478,106.81431346249998,107.46036512499998,58.0,85.0
479,107.13010246249999,107.71562789999999,59.0,83.0
480,107.76168046249998,108.78141577499999,51.0,85.0
481,108.07746946249999,109.04720484999999,66.0,102.0
482,108.39325846249999,109.29720447499999,63.0,98.0
483,107.44589146249999,109.66694076249999,39.0,91.0
484,109.02483646249999,109.71825647499999,51.0,88.0
485,109.34062546249999,110.05509807499999,58.0,93.0
486,109.65641446249998,110.060361225,63.0,87.0
487,109.97220346249999,110.9879914125,40.0,93.0
488,110.60378146249998,110.9958861375,56.0,91.0
489,110.28799246249999,111.23272788749999,52.0,84.0
490,110.91957046249999,111.2537804875,59.0,88.0
491,111.23535946249999,112.197200125,42.0,84.0
492,111.23535946249999,112.21956851249999,66.0,89.0
493,111.55114846249998,112.2248316625,49.0,86.0
494,111.86693746249999,112.40246297499999,54.0,86.0
495,111.23535946249999,112.53930487499998,58.0,88.0
496,112.49851546249998,112.53930487499998,58.0,80.0
497,112.18272646249999,112.68535728749998,61.0,84.0
498,112.49851546249998,112.90772537499998,66.0,81.0
499,113.13009346249999,113.34456682499999,58.0,84.0
500,113.13009346249999,113.41825092499998,63.0,86.0
501,112.81430446249999,113.802460875,51.0,81.0
502,113.44588246249998,114.08930254999999,66.0,89.0
503,113.44588246249998,114.10903936249998,58.0,90.0
504,112.49851546249998,114.58403864999998,39.0,84.0
505,114.07746046249999,114.68535428749999,51.0,86.0
506,114.39324946249998,114.72351212499998,66.0,102.0
507,114.39324946249998,114.7695646875,58.0,100.0
508,114.70903846249999,114.97482753749999,63.0,78.0
509,115.02482746249999,115.62219498749998,59.0,89.0
510,115.02482746249999,115.66693176249998,63.0,90.0
511,115.65640546249999,116.28535188749998,56.0,83.0
512,115.97219446249998,116.63929872499999,63.0,89.0
513,115.97219446249998,116.78271956249999,58.0,88.0
514,116.60377246249999,116.981403475,56.0,82.0
515,115.34061646249998,117.01035079999998,51.0,83.0
516,115.02482746249999,117.08929804999998,44.0,88.0
517,116.91956146249998,117.22350837499998,59.0,100.0
518,117.2353504625,117.54982367499998,63.0,87.0
519,117.55113946249999,118.15245434999999,66.0,89.0
520,117.86692846249998,118.76166396249998,51.0,83.0
521,117.55113946249999,119.15245284999999,58.0,90.0
522,118.1827174625,119.22613694999998,63.0,87.0
523,118.97218996249998,119.61297847499999,51.0,86.0
524,117.55113946249999,119.63797843749998,39.0,87.0
525,119.44587346249999,120.01560944999999,58.0,98.0
526,119.44587346249999,120.11824087499998,66.0,94.0
527,120.0774514625,120.96034487499999,56.0,89.0
528,120.0774514625,121.14323933749999,64.0,91.0
529,120.0774514625,121.16297614999999,61.0,89.0
530,120.0774514625,121.31166013749998,49.0,83.0
531,121.34060746249999,121.71165953749998,66.0,88.0
532,121.34060746249999,121.72613319999999,61.0,88.0
533,121.34060746249999,121.75771209999999,58.0,84.0
534,121.9721854625,122.34850068749999,58.0,88.0
535,121.9721854625,122.36823749999999,66.0,88.0
536,121.34060746249999,122.38402694999999,42.0,83.0
537,121.9721854625,122.58139507499999,61.0,90.0
538,121.65639646249998,122.618237125,54.0,83.0
539,122.60376346249998,122.9432366375,68.0,86.0
540,122.60376346249998,123.04981542499999,63.0,84.0
541,122.60376346249998,123.39323596249999,59.0,85.0
542,123.55113046249998,123.79323536249998,63.0,86.0
543,123.55113046249998,123.84060371249998,58.0,88.0
544,122.9195524625,124.40770812499998,51.0,71.0
545,123.23534146249999,124.41297127499999,56.0,84.0
546,122.60376346249998,124.44586596249998,44.0,83.0
547,123.8669194625,124.52744478749999,59.0,88.0
548,123.8669194625,124.58402364999999,63.0,81.0
549,125.76165346249999,126.47481028749999,56.0,79.0
550,126.07744246249999,126.68270471249998,58.0,77.0
551,126.70902046249999,127.09059883749998,56.0,83.0
552,126.39323146249998,127.09586198749999,59.0,85.0
553,125.44586446249998,127.13796718749998,51.0,75.0
554,127.02480946249999,127.31691428749998,63.0,81.0
555,125.13007546249999,127.34586161249999,44.0,88.0
556,127.34059846249998,127.42480886249999,66.0,40.0
557,127.34059846249998,127.46559827499999,64.0,68.0
558,127.65638746249999,127.85375558749999,63.0,81.0
559,127.65638746249999,128.63401757499997,39.0,87.0
560,128.28796546249998,128.734017425,56.0,87.0
561,127.97217646249999,128.907701375,51.0,84.0
562,128.60375446249998,128.95112236249997,63.0,86.0
563,129.5511214625,130.05506807499998,56.0,84.0
564,128.91954346249997,130.0734891,44.0,78.0
565,129.2353324625,130.15901528749998,51.0,77.0
566,130.18269946249998,130.5405936625,64.0,87.0
567,130.18269946249998,130.61033039999998,56.0,77.0
568,130.18269946249998,130.62743563749999,59.0,83.0
569,130.81427746249997,131.19454004999997,56.0,83.0
570,130.18269946249998,131.20375056249998,40.0,86.0
571,130.81427746249997,131.28401359999998,64.0,88.0
572,130.49848846249998,131.45638176249997,52.0,80.0
573,131.4458554625,131.92085475,66.0,89.0
574,131.4458554625,131.93401262499998,58.0,86.0
575,131.4458554625,132.37611722499997,42.0,84.0
576,131.7616444625,132.4274329375,49.0,72.0
577,132.07743346249998,132.7142746125,54.0,80.0
578,132.39322246249998,132.82348497499999,66.0,87.0
579,132.70901146249997,133.24322118749998,63.0,87.0
580,133.6563784625,133.9669043125,64.0,88.0
581,133.3405894625,134.11558829999998,59.0,83.0
582,133.0248004625,134.81953461249998,54.0,81.0
583,132.70901146249997,134.8800608375,47.0,75.0
584,133.97216746249998,135.05111321249998,63.0,88.0
585,135.86690146249998,136.29584818749998,68.0,86.0
586,135.5511124625,136.58137407499999,56.0,82.0
587,137.1300574625,137.3747939375,56.0,71.0
588,135.2353234625,137.41558335,49.0,93.0
589,135.86690146249998,137.4774253625,61.0,85.0
590,136.49847946249997,137.71426711249998,64.0,84.0
591,138.39321346249997,139.15768599999998,56.0,84.0
592,138.7090024625,139.81426396249998,58.0,80.0
593,139.65636946249998,139.8405797125,56.0,79.0
594,138.07742446249998,139.88531648749998,51.0,84.0
595,137.76163546249998,139.9432111375,44.0,86.0
596,139.0247914625,140.26821065,59.0,83.0
597,140.28794746249997,141.30636698749998,40.0,87.0
598,140.9195254625,141.52084035,56.0,78.0
599,140.6037364625,141.5221561375,52.0,84.0
600,141.23531446249999,142.11952366249997,59.0,86.0
601,141.55110346249998,142.5458388125,42.0,82.0
602,141.86689246249998,142.8379436375,54.0,84.0
603,142.18268146249997,143.07215381249998,58.0,83.0
604,142.4984704625,143.0984695625,61.0,84.0
605,143.76162646249998,144.1405732625,58.0,86.0
606,143.44583746249998,144.15767849999997,56.0,87.0
607,144.07741546249997,144.4168886375,59.0,87.0
608,144.3932044625,145.09978235,56.0,83.0
609,142.8142594625,145.12083495,44.0,84.0
610,143.13004846249999,145.13530861249998,51.0,86.0
611,144.7089934625,145.28530838749998,63.0,94.0
612,145.02478246249999,145.2958346875,70.0,100.0
613,145.34057146249998,145.5800447875,71.0,89.0
614,145.34057146249998,145.60372896249999,68.0,92.0
615,145.34057146249998,145.69057093749998,63.0,80.0
616,146.2879384625,146.660306325,63.0,87.0
617,145.97214946249997,146.67872734999997,56.0,83.0
618,146.2879384625,146.9366217,58.0,88.0
619,146.6037274625,146.9787269,59.0,89.0
620,146.91951646249998,147.3405684625,56.0,88.0
621,145.65636046249998,147.3984631125,51.0,76.0
622,145.34057146249998,147.47214721249998,44.0,86.0
623,147.23530546249998,147.5405681625,63.0,108.0
624,147.55109446249998,147.87477818749997,66.0,91.0
625,147.86688346249997,148.24714605,63.0,88.0
626,147.86688346249997,148.27477758749998,58.0,84.0
627,148.1826724625,148.6353033625,51.0,83.0
628,147.86688346249997,148.823460975,39.0,84.0
629,148.4984614625,148.83530306249997,58.0,89.0
630,148.4984614625,148.8800398375,63.0,91.0
631,148.81425046249998,149.11951316249997,51.0,86.0
632,149.13003946249998,149.43267058749998,56.0,84.0
633,149.13003946249998,149.58793351249997,63.0,78.0
634,149.13003946249998,149.74188064999998,59.0,89.0
635,149.13003946249998,150.20766942499998,44.0,82.0
636,149.76161746249997,150.2116167875,56.0,85.0
637,149.44582846249997,150.42872172499997,51.0,86.0
638,150.0774064625,150.49319531249998,58.0,77.0
639,150.3931954625,151.34187824999998,40.0,91.0
640,151.02477346249998,151.5668779125,56.0,85.0
641,150.70898446249998,151.63529886249998,52.0,84.0
642,151.34056246249997,151.96029837499998,59.0,86.0
643,151.9721404625,152.6142447625,49.0,87.0
644,151.65635146249997,152.62477106249997,42.0,85.0
645,152.2879294625,152.90240222499997,58.0,86.0
646,152.60371846249998,152.97477053749998,66.0,89.0
647,152.91950746249998,153.45240139999999,63.0,87.0
648,153.55108546249997,154.31029485,59.0,86.0
649,153.8668744625,154.49450509999997,61.0,88.0
650,154.1826634625,154.56292605,66.0,104.0
651,154.49845246249998,155.00634643749999,59.0,85.0
652,153.23529646249997,155.06687266249997,54.0,81.0
653,152.91950746249998,155.1116094375,47.0,86.0
654,154.81424146249998,155.43266158749998,63.0,91.0
655,155.13003046249997,155.44713524999997,66.0,88.0
656,156.0773974625,156.386607525,68.0,87.0
657,156.0773974625,156.56687041249998,61.0,98.0
658,156.39318646249998,156.697133375,64.0,82.0
659,155.7616084625,156.7616069625,56.0,87.0
660,156.70897546249998,157.12871167499998,68.0,88.0
661,156.70897546249998,157.16029057499998,61.0,91.0
662,157.34055346249997,157.40634283749998,61.0,75.0
663,157.02476446249997,157.57213206249997,56.0,81.0
664,155.44581946249997,157.61950041249997,49.0,98.0
665,157.34055346249997,157.686605575,64.0,91.0
666,157.6563424625,158.36686771249998,68.0,91.0
667,158.60370946249998,159.31028734999998,56.0,90.0
668,158.91949846249997,159.50633968749997,58.0,91.0
669,158.91949846249997,159.6208132,63.0,91.0
670,159.23528746249997,159.7800234875,59.0,88.0
671,159.5510764625,159.89581278749998,56.0,88.0
672,158.28792046249998,159.97344424999997,51.0,84.0
673,157.9721314625,160.02344417499998,44.0,88.0
674,160.49844346249998,160.83923242499998,64.0,94.0
675,160.49844346249998,160.92081124999999,56.0,88.0
676,160.81423246249997,161.2563370625,52.0,84.0
677,161.13002146249997,161.47475778749998,56.0,88.0
678,160.49844346249998,161.53659979999998,40.0,91.0
679,161.13002146249997,161.69712587499998,64.0,94.0
680,161.7615994625,162.14054626249998,66.0,93.0
681,161.7615994625,162.17080937499998,58.0,88.0
682,162.07738846249998,162.5168614875,54.0,83.0
683,162.39317746249998,162.78791371249997,58.0,91.0
684,161.7615994625,162.82343997499999,42.0,82.0
685,162.39317746249998,162.849755725,66.0,94.0
686,163.0247554625,163.6168598375,63.0,91.0
687,163.0247554625,163.74975437499998,59.0,86.0
688,163.97212246249998,164.16685901249997,63.0,91.0
689,163.97212246249998,164.23791153749997,58.0,93.0
690,163.6563334625,164.31159563749998,56.0,102.0
691,164.28791146249998,164.47738486249997,59.0,100.0
692,164.28791146249998,164.544490025,63.0,92.0
693,164.9194894625,165.19843641249997,70.0,110.0
694,164.9194894625,165.265541575,63.0,107.0
695,164.60370046249997,165.27080472499998,56.0,94.0
696,163.0247554625,165.27738366249997,44.0,88.0
697,163.3405444625,165.281331025,51.0,85.0
698,166.18264546249998,166.43396087499997,56.0,91.0
699,165.86685646249998,166.4800134375,51.0,80.0
700,165.5510674625,166.502381825,44.0,90.0
701,165.5510674625,166.53001336249997,68.0,108.0
702,165.5510674625,166.57343434999999,59.0,104.0
703,166.49843446249997,166.76159196249998,63.0,98.0
704,166.8142234625,167.17474923749998,68.0,92.0
705,166.8142234625,167.21290707499998,59.0,90.0
706,166.8142234625,167.21553864999998,64.0,104.0
707,167.1300124625,167.46027512499998,52.0,88.0
708,166.8142234625,167.76027467499998,40.0,89.0
709,167.4458014625,167.7879062125,68.0,108.0
710,167.4458014625,167.8510640125,59.0,108.0
711,167.76159046249998,168.0958004875,52.0,89.0
712,168.07737946249998,168.5405366625,66.0,100.0
713,168.07737946249998,169.06158851249998,42.0,89.0
714,168.07737946249998,169.07737796249998,58.0,100.0
715,168.39316846249997,169.08395689999998,49.0,86.0
716,168.7089574625,169.23264088749997,54.0,108.0
717,169.0247464625,169.28000923749997,66.0,89.0
718,169.0247464625,169.32869337499997,61.0,90.0
719,169.3405354625,170.32079714999998,47.0,96.0
720,169.97211346249998,170.44184959999998,61.0,98.0
721,169.97211346249998,170.44842853749998,59.0,86.0
722,169.97211346249998,170.47211271249998,66.0,107.0
723,169.65632446249998,170.5957967375,54.0,86.0
724,170.6036914625,170.94579621249997,64.0,93.0
725,170.6036914625,170.9668488125,56.0,94.0
726,170.6036914625,170.97737511249997,59.0,98.0
727,170.9194804625,171.307637775,52.0,87.0
728,171.23526946249999,171.5852689375,56.0,107.0
729,170.6036914625,171.58790051249997,40.0,100.0
730,171.23526946249999,171.61553204999998,64.0,104.0
731,171.55105846249998,171.82868962499998,52.0,86.0
732,171.86684746249998,172.1878996125,58.0,92.0
733,171.86684746249998,172.23000481249997,61.0,108.0
734,171.86684746249998,172.23789953749997,66.0,107.0
735,172.18263646249997,172.56684641249998,49.0,86.0
736,172.4984254625,172.86684596249998,66.0,102.0
737,172.4984254625,172.870793325,58.0,104.0
738,171.86684746249998,172.886582775,42.0,88.0
739,172.8142144625,172.95105636249997,49.0,88.0
740,172.4984254625,173.09974035,54.0,88.0
741,173.13000346249999,173.38395045,59.0,91.0
742,173.13000346249999,173.47605557499998,63.0,107.0
743,173.13000346249999,173.55631861249998,66.0,94.0
744,173.76158146249998,174.06289679999998,61.0,110.0
745,173.76158146249998,174.12605459999997,66.0,110.0
746,174.3931594625,174.60500125,63.0,113.0
747,174.3931594625,174.62736963749998,71.0,104.0
748,174.7089484625,174.77605362499997,63.0,89.0
749,174.7089484625,174.7892115,70.0,92.0
750,174.07737046249997,174.8747376875,59.0,88.0
751,174.8668429625,175.17868459999997,63.0,96.0
752,175.18263196249998,175.29315811249998,59.0,88.0
753,174.8668429625,175.3036844125,71.0,104.0
754,173.44579246249998,175.30894756249998,54.0,86.0
755,173.13000346249999,175.3747369375,47.0,89.0
756,175.97210446249997,176.691840225,56.0,86.0
757,176.2878934625,177.12341852499998,61.0,104.0
758,176.2878934625,177.23394467499998,68.0,100.0
759,176.6036824625,177.33526031249997,64.0,87.0
760,177.23526046249998,177.72604919999998,56.0,86.0
761,175.65631546249998,177.7773649125,49.0,102.0
762,177.55104946249998,178.17736431249998,68.0,104.0
763,177.55104946249998,178.1905221875,61.0,110.0
764,177.86683846249997,178.3089430625,64.0,86.0
765,178.81420546249998,179.15894178749997,70.0,107.0
766,178.4984164625,179.37341514999997,58.0,87.0
767,178.81420546249998,179.57867799999997,63.0,107.0
768,179.12999446249998,179.75762509999998,66.0,86.0
769,179.76157246249997,180.2115717875,58.0,87.0
770,178.1826274625,180.26157171249997,51.0,107.0
771,180.0773614625,180.4418346,63.0,114.0
772,180.3931504625,180.9089391625,66.0,89.0
773,180.70893946249998,181.22209658749998,64.0,93.0
774,180.70893946249998,181.40630683749998,56.0,92.0
775,181.02472846249998,182.03920062499998,52.0,84.0
776,181.34051746249997,182.328673875,59.0,86.0
777,181.65630646249997,182.45235789999998,64.0,98.0
778,182.60367346249998,182.87998883749998,64.0,42.0
779,180.70893946249998,182.90367301249998,40.0,89.0
780,182.60367346249998,182.94051506249997,56.0,83.0
781,182.2878844625,183.1049885,52.0,86.0
782,182.91946246249998,183.12604109999998,59.0,78.0
783,183.23525146249997,183.60893511249998,66.0,93.0
784,183.23525146249997,183.61419826249997,58.0,87.0
785,183.23525146249997,183.64577716249997,61.0,96.0
786,183.55104046249997,183.93525041249998,54.0,83.0
787,183.8668294625,184.06814494999998,66.0,89.0
788,183.8668294625,184.09709227499997,61.0,96.0
789,183.23525146249997,184.18656582499997,42.0,86.0
790,183.8668294625,184.21288157499998,58.0,92.0
791,184.49840746249998,184.8484069375,63.0,108.0
792,184.49840746249998,184.88524898749998,55.0,106.0
793,184.81419646249998,185.1510380625,51.0,88.0
794,184.49840746249998,185.46287969999997,39.0,88.0
795,185.12998546249997,185.4905112375,55.0,116.0
796,185.12998546249997,185.491827025,63.0,114.0
797,185.44577446249997,185.74708979999997,51.0,94.0
798,185.7615634625,186.01682623749997,56.0,89.0
799,185.7615634625,186.07998403749997,59.0,93.0
800,185.7615634625,186.09051033749998,63.0,89.0
801,186.39314146249998,186.67603577499997,56.0,91.0
802,186.0773524625,186.70235152499998,51.0,83.0
803,185.7615634625,186.73393042499998,44.0,90.0
804,186.39314146249998,186.84577236249999,63.0,113.0
805,186.39314146249998,186.89314071249999,59.0,110.0
806,187.02471946249997,187.3536663375,56.0,91.0
807,187.02471946249997,187.354982125,64.0,98.0
808,187.02471946249997,187.44313988749997,59.0,92.0
809,187.34050846249997,187.6628764,52.0,86.0
810,187.02471946249997,187.99313906249998,40.0,91.0
811,187.6562974625,188.00234957499998,56.0,113.0
812,187.6562974625,188.09840206249999,64.0,113.0
813,187.9720864625,188.29445439999998,52.0,88.0
814,188.28787546249998,188.6220854875,66.0,98.0
815,188.28787546249998,188.631296,58.0,92.0
816,188.28787546249998,188.631296,61.0,100.0
817,188.28787546249998,189.2734003,42.0,89.0
818,188.60366446249998,189.30761077499997,49.0,84.0
819,188.91945346249997,189.35234755,66.0,107.0
820,188.91945346249997,189.36418963749998,58.0,108.0
821,188.91945346249997,189.38392645,61.0,113.0
822,188.91945346249997,189.47603157499998,54.0,86.0
823,189.5510314625,189.65892603749998,59.0,98.0
824,189.5510314625,189.75761009999997,63.0,92.0
825,190.18260946249998,190.4220827875,61.0,104.0
826,190.34050396249998,190.45629326249997,63.0,98.0
827,190.02471496249998,190.58524043749998,59.0,90.0
828,189.5510314625,190.62997721249997,47.0,88.0
829,189.8668204625,190.66813505,54.0,83.0
830,190.49839846249998,190.72866127499998,63.0,87.0
831,190.49839846249998,190.81681903749998,66.0,107.0
832,190.81418746249997,191.13787118749997,64.0,100.0
833,190.81418746249997,191.1510290625,56.0,104.0
834,191.12997646249997,191.4536601875,52.0,86.0
835,190.81418746249997,191.7378702875,40.0,98.0
836,191.4457654625,191.82865962499997,64.0,96.0
837,191.4457654625,191.97339624999998,59.0,104.0
838,191.7615544625,192.0720803125,52.0,85.0
839,192.07734346249998,192.397079825,58.0,90.0
840,192.07734346249998,192.40892191249998,61.0,100.0
841,192.07734346249998,192.420764,66.0,98.0
842,192.70892146249997,193.07207881249997,58.0,102.0
843,192.07734346249998,193.07602617499998,42.0,86.0
844,192.39313246249998,193.0944472,49.0,81.0
845,192.70892146249997,193.11023665,66.0,102.0
846,192.70892146249997,193.23918382499997,54.0,89.0
847,193.02471046249997,193.3154995,61.0,88.0
848,193.3404994625,193.6720779125,66.0,87.0
849,193.3404994625,193.69313051249998,59.0,86.0
850,193.3404994625,193.791814575,63.0,89.0
851,193.97207746249998,194.2510244125,61.0,107.0
852,193.97207746249998,194.31023484999997,66.0,98.0
853,194.28786646249998,194.69049743749997,59.0,84.0
854,194.60365546249997,194.97602332499997,63.0,93.0
855,194.60365546249997,195.01418116249997,66.0,107.0
856,194.91944446249997,195.48391729999997,59.0,84.0
857,193.6562884625,195.56549612499998,54.0,81.0
858,193.3404994625,195.59707502499998,47.0,84.0
859,195.2352334625,195.79970629999997,66.0,108.0
860,195.2352334625,195.83654835,63.0,104.0
861,196.49838946249997,196.76681011249997,61.0,102.0
862,196.49838946249997,196.844441575,64.0,108.0
863,196.49838946249997,196.86286259999997,68.0,98.0
864,197.1299674625,197.60891411249997,64.0,104.0
865,197.4457564625,197.8589137375,61.0,84.0
866,196.18260046249998,197.93128204999996,56.0,87.0
867,195.86681146249998,198.02865032499997,49.0,107.0
868,197.76154546249998,198.3891761,68.0,98.0
869,198.07733446249998,198.40496555,64.0,86.0
870,197.1299674625,198.44180759999998,73.0,104.0
871,199.3404904625,199.59970059999998,63.0,93.0
872,199.0247014625,199.68654257499998,56.0,92.0
873,199.3404904625,199.6904899375,58.0,96.0
874,199.65627946249998,199.98522633749997,63.0,84.0
875,199.65627946249998,200.01680523749997,59.0,90.0
876,199.97206846249998,200.37733101249998,56.0,89.0
877,198.70891246249997,200.41680463749998,51.0,87.0
878,198.39312346249997,200.5220676375,44.0,98.0
879,200.28785746249997,200.618120125,63.0,108.0
880,200.28785746249997,200.66285689999998,58.0,108.0
881,200.60364646249997,200.9194354625,59.0,100.0
882,200.9194354625,201.29048753749998,68.0,100.0
883,200.9194354625,201.31022434999997,59.0,89.0
884,200.9194354625,201.31285592499998,63.0,100.0
885,201.23522446249999,201.57338184999998,56.0,83.0
886,201.55101346249998,201.87601297499998,68.0,102.0
887,200.9194354625,201.88522348749999,44.0,88.0
888,201.55101346249998,201.89180242499998,59.0,100.0
889,201.55101346249998,201.96285494999998,63.0,108.0
890,202.18259146249997,202.48916995,66.0,91.0
891,202.18259146249997,202.51943306249998,61.0,107.0
892,202.18259146249997,202.52601199999998,58.0,96.0
893,202.49838046249997,202.9010114375,54.0,81.0
894,202.18259146249997,203.14443212499998,42.0,89.0
895,202.8141694625,203.21943201249996,66.0,98.0
896,202.8141694625,203.23258988749998,58.0,102.0
897,202.8141694625,203.26153721249997,61.0,113.0
898,203.44574746249998,204.0589044375,63.0,100.0
899,203.44574746249998,204.07337809999999,66.0,90.0
900,203.44574746249998,204.07732546249997,59.0,88.0
901,204.39311446249997,204.53916687499998,63.0,88.0
902,204.39311446249997,204.57074577499998,58.0,96.0
903,204.07732546249997,205.52074434999997,56.0,98.0
904,203.76153646249998,205.52337592499998,51.0,84.0
905,204.7089034625,205.5562706125,59.0,100.0
906,203.44574746249998,205.5641653375,44.0,88.0
907,204.7089034625,205.58258636249997,63.0,91.0
908,206.6036374625,206.85495287499998,56.0,91.0
909,206.28784846249997,206.90100543749998,51.0,80.0
910,205.97205946249997,206.92337382499997,44.0,90.0
911,205.97205946249997,206.95100536249998,68.0,108.0
912,205.97205946249997,206.99442634999997,59.0,104.0
913,206.91942646249998,207.1825839625,63.0,98.0
914,207.23521546249998,207.59574123749996,68.0,92.0
915,207.23521546249998,207.633899075,59.0,90.0
916,207.23521546249998,207.63653064999997,64.0,104.0
917,207.55100446249998,207.88126712499997,52.0,88.0
918,207.23521546249998,208.181266675,40.0,89.0
919,207.86679346249997,208.20889821249997,68.0,108.0
920,207.86679346249997,208.27205601249997,59.0,108.0
921,208.18258246249997,208.51679248749997,52.0,89.0
922,208.4983714625,208.96152866249997,66.0,100.0
923,208.4983714625,209.48258051249996,42.0,89.0
924,208.4983714625,209.49836996249996,58.0,100.0
925,208.81416046249998,209.5049489,49.0,86.0
926,209.12994946249998,209.65363288749998,54.0,108.0
927,209.44573846249997,209.70100123749998,66.0,89.0
928,209.44573846249997,209.74968537499998,61.0,90.0
929,209.76152746249997,210.74178915,47.0,96.0
930,210.3931054625,210.86284159999997,61.0,98.0
931,210.3931054625,210.8694205375,59.0,86.0
932,210.3931054625,210.8931047125,66.0,107.0
933,210.07731646249997,211.01678873749998,54.0,86.0
934,211.02468346249998,211.36678821249998,64.0,93.0
935,211.02468346249998,211.38784081249997,56.0,94.0
936,211.02468346249998,211.39836711249998,59.0,98.0
937,211.34047246249997,211.72862977499997,52.0,87.0
938,211.65626146249997,212.00626093749997,56.0,107.0
939,211.02468346249998,212.00889251249998,40.0,100.0
940,211.65626146249997,212.03652404999997,64.0,104.0
941,211.97205046249996,212.24968162499997,52.0,86.0
942,212.2878394625,212.60889161249997,58.0,92.0
943,212.2878394625,212.65099681249998,61.0,108.0
944,212.2878394625,212.65889153749998,66.0,107.0
945,212.60362846249998,212.98783841249997,49.0,86.0
946,212.91941746249998,213.28783796249996,66.0,102.0
947,212.91941746249998,213.29178532499998,58.0,104.0
948,212.2878394625,213.30757477499998,42.0,88.0
949,213.23520646249997,213.37204836249998,49.0,88.0
950,212.91941746249998,213.52073234999997,54.0,88.0
951,213.55099546249997,213.80494244999997,59.0,91.0
952,213.55099546249997,213.897047575,63.0,107.0
953,213.55099546249997,213.97731061249996,66.0,94.0
954,214.1825734625,214.4838888,61.0,110.0
955,214.1825734625,214.5470466,66.0,110.0
956,214.81415146249998,215.02599324999997,63.0,113.0
957,214.81415146249998,215.04836163749997,71.0,104.0
958,215.12994046249997,215.197045625,63.0,89.0
959,215.12994046249997,215.21020349999998,70.0,92.0
960,214.49836246249998,215.29572968749997,59.0,88.0
961,215.28783496249997,215.59967659999998,63.0,96.0
962,215.60362396249997,215.71415011249996,59.0,88.0
963,215.28783496249997,215.72467641249997,71.0,104.0
964,213.86678446249996,215.72993956249996,54.0,86.0
965,213.55099546249997,215.79572893749997,47.0,89.0
966,216.39309646249998,217.11283222499998,56.0,86.0
967,216.70888546249998,217.544410525,61.0,104.0
968,216.70888546249998,217.654936675,68.0,100.0
969,217.02467446249997,217.75625231249998,64.0,87.0
970,217.65625246249996,218.1470412,56.0,86.0
971,216.0773074625,218.19835691249997,49.0,102.0
972,217.9720414625,218.5983563125,68.0,104.0
973,217.9720414625,218.61151418749998,61.0,110.0
974,218.28783046249998,218.72993506249998,64.0,86.0
975,219.23519746249997,219.57993378749998,70.0,107.0
976,218.91940846249997,219.79440714999998,58.0,87.0
977,219.23519746249997,219.99966999999998,63.0,107.0
978,219.55098646249996,220.17861709999997,66.0,86.0
979,220.18256446249998,220.63256378749998,58.0,87.0
980,218.60361946249998,220.68256371249998,51.0,107.0
981,220.49835346249998,220.86282659999998,63.0,114.0
982,220.81414246249997,221.32993116249997,66.0,89.0
983,221.12993146249997,221.6430885875,64.0,93.0
984,221.12993146249997,221.82729883749997,56.0,92.0
985,221.44572046249996,222.46019262499996,52.0,84.0
986,221.7615094625,222.74966587499998,59.0,86.0
987,222.07729846249998,222.87334989999997,64.0,98.0
988,223.02466546249997,223.30098083749996,64.0,42.0
989,221.12993146249997,223.32466501249996,40.0,89.0
990,223.02466546249997,223.36150706249998,56.0,83.0
991,222.70887646249997,223.52598049999997,52.0,86.0
992,223.34045446249996,223.54703309999996,59.0,78.0
993,223.6562434625,224.02992711249996,66.0,93.0
994,223.6562434625,224.03519026249998,58.0,87.0
995,223.6562434625,224.06676916249998,61.0,96.0
996,223.97203246249998,224.35624241249997,54.0,83.0
997,224.28782146249998,224.48913695,66.0,89.0
998,224.28782146249998,224.51808427499998,61.0,96.0
999,223.6562434625,224.607557825,42.0,86.0
1000,224.28782146249998,224.63387357499997,58.0,92.0
1001,224.91939946249997,225.26939893749997,63.0,108.0
1002,224.91939946249997,225.30624098749996,55.0,106.0
1003,225.23518846249996,225.57203006249998,51.0,88.0
1004,224.91939946249997,225.8838717,39.0,88.0
1005,225.5509774625,225.91150323749997,55.0,116.0
1006,225.5509774625,225.91281902499998,63.0,114.0
1007,225.86676646249998,226.16808179999998,51.0,94.0
1008,226.18255546249998,226.43781823749998,56.0,89.0
1009,226.18255546249998,226.50097603749998,59.0,93.0
1010,226.18255546249998,226.51150233749996,63.0,89.0
1011,226.81413346249997,227.097027775,56.0,91.0
1012,226.49834446249997,227.12334352499997,51.0,83.0
1013,226.18255546249998,227.15492242499997,44.0,90.0
1014,226.81413346249997,227.26676436249997,63.0,113.0
1015,226.81413346249997,227.31413271249997,59.0,110.0
1016,227.4457114625,227.77465833749997,56.0,91.0
1017,227.4457114625,227.77597412499998,64.0,98.0
1018,227.4457114625,227.86413188749998,59.0,92.0
1019,227.76150046249998,228.08386839999997,52.0,86.0
1020,227.4457114625,228.41413106249996,40.0,91.0
1021,228.07728946249998,228.42334157499997,56.0,113.0
1022,228.07728946249998,228.51939406249997,64.0,113.0
1023,228.39307846249997,228.71544639999996,52.0,88.0
1024,228.70886746249997,229.04307748749997,66.0,98.0
1025,228.70886746249997,229.05228799999998,58.0,92.0
1026,228.70886746249997,229.05228799999998,61.0,100.0
1027,228.70886746249997,229.69439229999998,42.0,89.0
1028,229.02465646249996,229.72860277499998,49.0,84.0
1029,229.34044546249999,229.77333954999997,66.0,107.0
1030,229.34044546249999,229.7851816375,58.0,108.0
1031,229.34044546249999,229.80491844999997,61.0,113.0
1032,229.34044546249999,229.89702357499996,54.0,86.0
1033,229.97202346249998,230.07991803749997,59.0,98.0
1034,229.97202346249998,230.17860209999998,63.0,92.0
1035,230.60360146249997,230.84307478749997,61.0,104.0
1036,230.76149596249996,230.87728526249998,63.0,98.0
1037,230.44570696249997,231.0062324375,59.0,90.0
1038,229.97202346249998,231.05096921249998,47.0,88.0
1039,230.28781246249997,231.08912704999997,54.0,83.0
1040,230.91939046249996,231.14965327499996,63.0,87.0
1041,230.91939046249996,231.23781103749997,66.0,107.0
1042,231.23517946249999,231.55886318749998,64.0,100.0
1043,231.23517946249999,231.57202106249997,56.0,104.0
1044,231.55096846249998,231.87465218749998,52.0,86.0
1045,231.23517946249999,232.15886228749997,40.0,98.0
1046,231.86675746249998,232.24965162499998,64.0,96.0
1047,231.86675746249998,232.39438824999996,59.0,104.0
1048,232.18254646249997,232.49307231249998,52.0,85.0
1049,232.49833546249997,232.81807182499998,58.0,90.0
1050,232.49833546249997,232.82991391249996,61.0,100.0
1051,232.49833546249997,232.84175599999998,66.0,98.0
1052,233.12991346249999,233.49307081249998,58.0,102.0
1053,232.49833546249997,233.49701817499997,42.0,86.0
1054,232.81412446249996,233.51543919999997,49.0,81.0
1055,233.12991346249999,233.53122864999997,66.0,102.0
1056,233.12991346249999,233.66017582499998,54.0,89.0
1057,233.44570246249998,233.73649149999997,61.0,88.0
1058,233.76149146249998,234.09306991249997,66.0,87.0
1059,233.76149146249998,234.11412251249996,59.0,86.0
1060,233.76149146249998,234.21280657499997,63.0,89.0
1061,234.39306946249997,234.67201641249997,61.0,107.0
1062,234.39306946249997,234.73122684999998,66.0,98.0
1063,234.70885846249996,235.11148943749998,59.0,84.0
1064,235.02464746249998,235.39701532499998,63.0,93.0
1065,235.02464746249998,235.43517316249998,66.0,107.0
1066,235.34043646249998,235.90490929999999,59.0,84.0
1067,234.07728046249997,235.98648812499997,54.0,81.0
1068,233.76149146249998,236.01806702499997,47.0,84.0
1069,235.65622546249998,236.22069829999998,66.0,108.0
1070,235.65622546249998,236.25754034999997,63.0,104.0
1071,236.91938146249998,237.18780211249998,61.0,102.0
1072,236.91938146249998,237.26543357499997,64.0,108.0
1073,236.91938146249998,237.28385459999998,68.0,98.0
1074,237.55095946249997,238.0299061125,64.0,104.0
1075,237.86674846249997,238.27990573749997,61.0,84.0
1076,236.60359246249996,238.35227404999998,56.0,87.0
1077,236.28780346249997,238.44964232499999,49.0,107.0
1078,238.18253746249997,238.81016809999997,68.0,98.0
1079,238.49832646249996,238.82595754999997,64.0,86.0
1080,237.55095946249997,238.86279959999996,73.0,104.0
1081,239.76148246249997,240.02069259999996,63.0,93.0
1082,239.44569346249997,240.10753457499996,56.0,92.0
1083,239.76148246249997,240.11148193749997,58.0,96.0
1084,240.07727146249997,240.40621833749998,63.0,84.0
1085,240.07727146249997,240.43779723749998,59.0,90.0
1086,240.39306046249996,240.79832301249996,56.0,89.0
1087,239.12990446249998,240.83779663749996,51.0,87.0
1088,238.81411546249998,240.94305963749997,44.0,98.0
1089,240.70884946249998,241.03911212499997,63.0,108.0
1090,240.70884946249998,241.08384889999996,58.0,108.0
1091,241.02463846249998,241.34042746249997,59.0,100.0
1092,241.34042746249997,241.71147953749997,68.0,100.0
1093,241.34042746249997,241.73121634999998,59.0,89.0
1094,241.34042746249997,241.73384792499996,63.0,100.0
1095,241.65621646249997,241.99437384999996,56.0,83.0
1096,241.97200546249996,242.29700497499996,68.0,102.0
1097,241.34042746249997,242.30621548749997,44.0,88.0
1098,241.97200546249996,242.31279442499996,59.0,100.0
1099,241.97200546249996,242.38384694999996,63.0,108.0
1100,242.60358346249998,242.91016194999997,66.0,91.0
1101,242.60358346249998,242.94042506249997,61.0,107.0
1102,242.60358346249998,242.94700399999996,58.0,96.0
1103,242.91937246249998,243.32200343749997,54.0,81.0
1104,242.60358346249998,243.56542412499996,42.0,89.0
1105,243.23516146249997,243.64042401249998,66.0,98.0
1106,243.23516146249997,243.65358188749997,58.0,102.0
1107,243.23516146249997,243.6825292125,61.0,113.0
1108,243.86673946249996,244.47989643749997,63.0,100.0
1109,243.86673946249996,244.49437009999997,66.0,90.0
1110,243.86673946249996,244.49831746249998,59.0,88.0
1111,244.81410646249998,244.96015887499996,63.0,88.0
1112,244.81410646249998,244.99173777499996,58.0,96.0
1113,244.49831746249998,245.94173634999999,56.0,98.0
1114,244.18252846249996,245.94436792499997,51.0,84.0
1115,245.12989546249997,245.97726261249997,59.0,100.0
1116,243.86673946249996,245.98515733749997,44.0,88.0
1117,245.12989546249997,246.00357836249998,63.0,91.0
1118,247.02462946249997,247.69568108749996,56.0,81.0
1119,247.97199646249996,248.29831176249996,56.0,81.0
1120,246.70884046249998,248.31015384999998,51.0,81.0
1121,247.34041846249997,248.35752219999998,68.0,94.0
1122,246.39305146249998,248.40225897499997,44.0,87.0
1123,248.28778546249998,248.62594284999997,63.0,91.0
1124,248.60357446249998,248.84436357499996,68.0,96.0
1125,248.91936346249997,249.69436229999997,66.0,93.0
1126,249.86673046249996,250.58251886249997,66.0,88.0
1127,249.55094146249996,250.87857104999998,58.0,75.0
1128,249.23515246249997,250.90488679999999,51.0,77.0
1129,248.91936346249997,251.00883401249996,39.0,83.0
1130,250.81409746249997,251.26278099999996,66.0,91.0
1131,251.28778096249997,251.78383284999998,61.0,74.0
1132,251.44567546249996,251.82988541249998,64.0,91.0
1133,251.28778096249997,251.83514856249997,56.0,84.0
1134,251.44567546249996,252.26541107499997,37.0,88.0
1135,251.76146446249996,252.67856834999998,49.0,81.0
1136,252.07725346249998,252.79962079999999,64.0,89.0
1137,252.70883146249997,253.7035668125,42.0,88.0
1138,253.34040946249996,253.94435592499997,58.0,85.0
1139,253.02462046249997,253.96540852499996,54.0,83.0
1140,253.65619846249996,254.63646014999998,66.0,88.0
1141,254.91935446249997,255.29830126249996,58.0,78.0
1142,255.23514346249996,256.49698367499997,59.0,85.0
1143,254.28777646249998,256.52329942499995,51.0,79.0
1144,254.60356546249997,256.52329942499995,56.0,78.0
1145,253.97198746249998,256.5851414375,44.0,86.0
