,start,end,pitch,velocity
0,51.198163087500006,51.48566280000001,70.0,107.0
1,51.626734087500004,51.921376650000006,70.0,122.0
2,52.05530508750001,52.312447687500004,70.0,100.0
3,52.48387608750001,52.78566150000001,70.0,117.0
4,52.912447087500006,53.20351822500001,72.0,100.0
5,53.341018087500004,53.65708920000001,74.0,81.0
6,53.76958908750001,54.23566005000001,70.0,96.0
7,54.626731087500005,54.876730837500006,70.0,90.0
8,55.05530208750001,55.34815893750001,70.0,96.0
9,55.48387308750001,55.767801375000005,70.0,100.0
10,55.912444087500006,56.18208667500001,70.0,107.0
11,56.341015087500004,56.62672908750001,72.0,97.0
12,56.76958608750001,57.033871537500005,70.0,117.0
13,57.19815708750001,58.04815623750001,74.0,112.0
14,60.626725087500006,60.819582037500005,70.0,99.0
15,60.84101058750001,61.00351042500001,72.0,86.0
16,61.05529608750001,61.27672443750001,74.0,93.0
17,61.48386708750001,61.73208112500001,75.0,107.0
18,61.91243808750001,62.128509300000005,74.0,107.0
19,62.341009087500005,62.971365600000006,72.0,100.0
20,63.19815108750001,63.432079425000005,74.0,97.0
21,63.626722087500006,63.85529328750001,72.0,100.0
22,64.0552930875,64.610649675,70.0,92.0
23,64.91243508750001,65.17850625000001,70.0,112.0
24,65.3410060875,65.57850585000001,70.0,107.0
25,65.76957708750001,66.0124339875,70.0,117.0
26,66.1981480875,66.41957643750001,70.0,117.0
27,66.6267190875,66.89100453750001,72.0,90.0
28,67.05529008750001,67.32493267500001,74.0,97.0
29,67.4838610875,67.99636057500001,70.0,92.0
30,68.34100308750001,68.58207427500001,70.0,117.0
31,68.7695740875,69.01243098750001,70.0,107.0
32,69.19814508750001,69.42850200000001,70.0,117.0
33,69.62671608750001,69.94814433750001,69.0,102.0
34,70.0552870875,70.36778677500001,70.0,99.0
35,70.48385808750001,70.73207212500002,69.0,89.0
36,70.91242908750002,71.696356875,69.0,83.0
37,71.76957108750001,74.04278310000001,67.0,75.0
38,76.0552810875,76.34813793750001,74.0,97.0
39,76.48385208750001,76.78742321250002,82.0,117.0
40,76.91242308750002,77.21599421250001,81.0,100.0
41,77.34099408750001,77.64456521250001,79.0,97.0
42,77.76956508750001,78.1981360875,77.0,107.0
43,78.1981360875,78.853492575,79.0,107.0
44,79.05527808750001,79.67492032500002,79.0,107.0
45,79.91242008750001,80.2195626375,79.0,99.0
46,80.34099108750002,80.57313371250001,77.0,96.0
47,80.7695620875,81.09099033750002,74.0,107.0
48,81.19813308750001,82.48384608750001,77.0,102.0
49,83.1267025875,83.3017024125,74.0,92.0
50,83.34098808750001,83.7427734,72.0,93.0
51,83.76955908750001,83.99455886250001,77.0,75.0
52,84.1981300875,84.51955833750002,77.0,107.0
53,84.62670108750001,84.9731293125,74.0,93.0
54,85.05527208750001,85.8945569625,77.0,112.0
55,85.91241408750001,86.17669953750001,77.0,112.0
56,86.34098508750002,86.61062767500002,77.0,97.0
57,86.7695560875,87.09455576250001,74.0,99.0
58,87.19812708750001,87.47669823750002,77.0,112.0
59,87.62669808750002,87.92134065,77.0,112.0
60,88.05526908750001,88.496340075,84.0,117.0
61,88.48384008750001,89.97133860000001,82.0,107.0
62,90.1981240875,90.45705240000001,82.0,127.0
63,90.62669508750001,90.98026616250002,81.0,112.0
64,91.05526608750002,91.40348002500001,79.0,99.0
65,91.4838370875,91.86062242500002,77.0,97.0
66,91.91240808750001,92.77669293750002,79.0,107.0
67,92.76955008750001,92.77669293750002,79.0,117.0
68,93.19812108750001,93.44633512500002,79.0,117.0
69,93.62669208750002,93.91954893750001,79.0,102.0
70,94.05526308750001,94.30883426250001,77.0,97.0
71,94.48383408750001,94.8766908375,74.0,92.0
72,94.91240508750002,95.72311856250002,79.0,97.0
73,95.76954708750002,96.76061752500001,77.0,96.0
74,97.05526008750002,97.39454546250002,74.0,96.0
75,97.48383108750001,97.76418795000001,75.0,99.0
76,97.91240208750001,98.15704470000001,77.0,93.0
77,98.34097308750002,99.37132920000002,70.0,99.0
78,99.62668608750002,100.04454281250001,74.0,99.0
79,100.05525708750001,101.04989895000001,72.0,79.0
80,101.34097008750001,101.62668408750001,70.0,100.0
81,101.98382658750002,104.31775282500001,70.0,112.0
82,133.48379508750003,133.77129480000002,70.0,107.0
83,133.9123660875,134.20700865,70.0,122.0
84,134.3409370875,134.59807968750002,70.0,100.0
85,134.76950808750001,135.07129350000002,70.0,117.0
86,135.19807908750002,135.48915022500003,72.0,100.0
87,135.62665008750002,135.94272120000002,74.0,81.0
88,136.05522108750003,136.52129205000003,70.0,96.0
89,136.9123630875,137.1623628375,70.0,90.0
90,137.34093408750002,137.6337909375,70.0,96.0
91,137.76950508750002,138.05343337500003,70.0,100.0
92,138.19807608750003,138.46771867500001,70.0,107.0
93,138.62664708750003,138.91236108750002,72.0,97.0
94,139.0552180875,139.31950353750003,70.0,117.0
95,139.4837890875,139.90700295000002,75.0,112.0
96,140.34093108750002,142.2087863625,74.0,107.0
97,142.91235708750003,143.10521403750002,70.0,99.0
98,143.12664258750002,143.28914242500002,72.0,86.0
99,143.34092808750003,143.56235643750003,74.0,93.0
100,143.7694990875,144.01771312500003,75.0,107.0
101,144.1980700875,144.4141413,74.0,107.0
102,144.62664108750002,145.2569976,72.0,100.0
103,145.48378308750003,145.71771142500003,74.0,97.0
104,145.9123540875,146.1409252875,72.0,100.0
105,146.3409250875,146.896281675,70.0,92.0
106,147.19806708750002,147.46413825000002,70.0,112.0
107,147.62663808750003,147.86413785000002,70.0,107.0
108,148.05520908750003,148.29806598750002,70.0,117.0
109,148.4837800875,148.70520843750003,70.0,117.0
110,148.9123510875,149.17663653750003,72.0,90.0
111,149.34092208750002,149.610564675,74.0,97.0
112,149.76949308750002,150.28199257500003,70.0,92.0
113,150.6266350875,150.86770627500002,70.0,117.0
114,151.0552060875,151.29806298750003,70.0,107.0
115,151.48377708750002,151.71413400000003,70.0,117.0
116,151.91234808750002,152.23377633750002,69.0,102.0
117,152.34091908750003,152.653418775,70.0,99.0
118,152.76949008750003,153.01770412500002,69.0,89.0
119,153.1980610875,153.981988875,69.0,83.0
120,154.05520308750002,155.34091608750003,67.0,75.0
121,155.7694870875,156.12127245000002,67.0,95.0
122,156.19805808750002,156.53198632500002,70.0,107.0
123,156.62662908750002,157.44984255000003,72.0,107.0
124,157.48377108750003,158.6016271125,70.0,97.0
125,158.3409130875,158.63376993750003,74.0,97.0
126,158.76948408750002,159.0730552125,82.0,117.0
127,159.19805508750002,159.5016262125,81.0,100.0
128,159.62662608750003,159.93019721250002,79.0,97.0
129,160.05519708750003,160.4837680875,77.0,107.0
130,160.4837680875,161.139124575,79.0,107.0
131,161.34091008750002,161.960552325,79.0,107.0
132,162.19805208750003,162.5051946375,79.0,99.0
133,162.6266230875,162.85876571250003,77.0,96.0
134,163.0551940875,163.3766223375,74.0,107.0
135,163.48376508750002,165.31233468750003,77.0,102.0
136,165.62662008750002,166.02840540000003,74.0,93.0
137,166.05519108750002,166.28019086250004,77.0,75.0
138,166.48376208750003,166.80519033750002,77.0,107.0
139,166.91233308750003,167.2587613125,74.0,93.0
140,167.34090408750004,167.93733206250002,77.0,112.0
141,168.19804608750002,168.46233153750003,77.0,112.0
142,168.62661708750002,168.896259675,77.0,97.0
143,169.05518808750003,169.38018776250001,74.0,99.0
144,169.48375908750003,169.7623302375,77.0,112.0
145,169.9123300875,170.20697265,77.0,112.0
146,170.34090108750001,170.78197207500003,84.0,117.0
147,170.76947208750002,172.25697060000002,82.0,107.0
148,172.4837560875,172.74268440000003,82.0,127.0
149,172.91232708750002,173.26589816250004,81.0,112.0
150,173.34089808750002,173.68911202500001,79.0,99.0
151,173.76946908750003,174.14625442500002,77.0,97.0
152,174.19804008750003,175.06232493750002,79.0,107.0
153,175.05518208750001,175.06232493750002,79.0,117.0
154,175.48375308750002,175.731967125,79.0,117.0
155,175.91232408750002,176.20518093750002,79.0,102.0
156,176.34089508750003,176.59446626250002,77.0,97.0
157,176.76946608750004,177.16232283750003,74.0,92.0
158,177.1980370875,178.0087505625,79.0,97.0
159,178.05517908750002,179.04624952500004,77.0,96.0
160,179.34089208750004,179.6801774625,74.0,96.0
161,179.76946308750001,180.04981995000003,75.0,99.0
162,180.19803408750002,180.44267670000002,77.0,93.0
163,180.62660508750002,181.6569612,70.0,99.0
164,181.9123180875,182.33017481250002,74.0,99.0
165,182.34088908750002,183.33553095000002,72.0,79.0
166,183.62660208750003,183.91231608750002,70.0,100.0
167,184.05517308750004,185.34088608750002,70.0,112.0
168,185.76945708750003,186.1158853125,74.0,99.0
169,186.19802808750003,186.50159921250003,82.0,117.0
170,186.6265990875,186.93017021250003,81.0,100.0
171,187.05517008750002,187.35874121250004,79.0,97.0
172,187.48374108750002,187.91231208750003,77.0,107.0
173,187.91231208750003,188.56766857500003,79.0,107.0
174,188.76945408750004,189.38909632500003,79.0,107.0
175,189.62659608750002,189.93373863750003,79.0,99.0
176,190.05516708750002,190.28730971250002,77.0,96.0
177,190.48373808750003,190.80516633750003,74.0,107.0
178,190.91230908750003,192.74087868750001,77.0,102.0
179,193.05516408750003,193.4569494,74.0,93.0
180,193.48373508750004,193.70873486250002,77.0,75.0
181,193.9123060875,194.23373433750004,77.0,107.0
182,194.34087708750002,194.68730531250003,74.0,93.0
183,194.76944808750002,195.36587606250004,77.0,112.0
184,195.62659008750003,195.89087553750002,77.0,112.0
185,196.05516108750004,196.32480367500003,77.0,97.0
186,196.48373208750002,196.80873176250003,74.0,99.0
187,196.91230308750002,197.19087423750003,77.0,112.0
188,197.34087408750003,197.63551665000003,77.0,112.0
189,197.76944508750003,198.21051607500002,84.0,117.0
190,198.6265870875,199.41765772500003,82.0,107.0
191,199.91230008750003,200.17122840000002,82.0,127.0
192,200.34087108750003,200.69444216250002,81.0,112.0
193,200.76944208750004,201.11765602500003,79.0,99.0
194,201.19801308750002,201.57479842500004,77.0,97.0
195,201.62658408750002,202.49086893750004,79.0,107.0
196,202.48372608750003,202.49086893750004,79.0,117.0
197,202.91229708750004,203.16051112500003,79.0,117.0
198,203.3408680875,203.63372493750003,79.0,102.0
199,203.76943908750002,204.02301026250004,77.0,97.0
200,204.19801008750002,204.59086683750002,74.0,92.0
201,204.62658108750003,205.43729456250003,79.0,97.0
202,205.48372308750004,206.47479352500002,77.0,96.0
203,206.34086508750002,206.6283648,65.0,97.0
204,206.76943608750003,207.10872146250003,74.0,96.0
205,207.19800708750003,207.47836395000002,75.0,99.0
206,207.62657808750004,207.87122070000004,77.0,93.0
207,208.05514908750004,209.08550520000003,70.0,99.0
208,209.34086208750003,209.75871881250004,74.0,99.0
209,209.76943308750003,210.76407495000004,72.0,79.0
210,211.05514608750002,211.34086008750003,70.0,100.0
211,211.48371708750003,213.81764332500003,70.0,112.0
