,start,end,pitch,velocity
0,10.055347087500001,10.589275125000002,46.0,31.0
1,9.626776087500001,10.633917937500001,39.0,73.0
2,10.912489087500001,11.369631487500001,58.0,60.0
3,10.483918087500001,11.37856005,63.0,92.0
4,11.3410600875,12.342844800000002,41.0,68.0
5,11.769631087500002,12.389273325000001,48.0,55.0
6,12.198202087500002,13.082129775000002,60.0,63.0
7,12.626773087500002,13.096415475000002,57.0,49.0
8,12.198202087500002,13.105344037500002,65.0,62.0
9,14.341057087500001,14.908913662500002,62.0,52.0
10,13.912486087500001,14.930342212500001,58.0,82.0
11,15.198199087500003,15.691055737500003,58.0,52.0
12,13.483915087500002,15.721412850000002,53.0,48.0
13,13.055344087500002,15.807127050000002,46.0,63.0
14,15.626770087500002,16.546412025000002,62.0,66.0
15,14.769628087500003,16.5481977375,65.0,72.0
16,16.0553410875,16.569626287500004,60.0,43.0
17,16.912483087500004,17.674982325000002,46.0,28.0
18,16.483912087500002,17.696410875,39.0,76.0
19,17.3410540875,17.835696450000004,51.0,59.0
20,17.769625087500003,18.299981700000004,58.0,44.0
21,17.3410540875,18.314267400000002,63.0,85.0
22,18.1981960875,19.294623562500004,41.0,66.0
23,18.626767087500003,19.455337687500002,48.0,59.0
24,19.483909087500002,19.930337212500003,57.0,59.0
25,19.0553380875,19.951765762500003,60.0,83.0
26,21.1981930875,21.726763987500004,58.0,67.0
27,20.769622087500004,21.764263950000004,55.0,72.0
28,21.626764087500003,22.041049387500003,67.0,68.0
29,22.0553350875,22.460691825,55.0,68.0
30,20.341051087500002,22.655334487500003,50.0,66.0
31,19.912480087500004,22.716048712500005,43.0,70.0
32,23.126762587500004,23.389262325000004,55.0,41.0
33,22.912477087500005,23.416048012500003,58.0,83.0
34,22.483906087500003,23.458905112500002,62.0,88.0
35,23.769619087500004,24.505332637500004,46.0,57.0
36,23.341048087500003,24.508904062500005,39.0,85.0
37,24.198190087500002,24.608903962500005,51.0,82.0
38,24.198190087500002,25.051760662500005,63.0,107.0
39,24.626761087500004,25.091046337500003,58.0,71.0
40,25.055332087500002,26.042831100000004,41.0,67.0
41,25.483903087500003,26.053545375000002,48.0,65.0
42,26.341045087500003,26.766044662500004,57.0,57.0
43,25.912474087500005,26.807116050000005,60.0,89.0
44,28.055329087500002,28.544614312500002,62.0,70.0
45,27.626758087500004,28.596399975000004,58.0,79.0
46,28.912471087500005,29.285685000000004,58.0,78.0
47,27.198187087500003,29.362470637500003,53.0,56.0
48,28.483900087500004,29.374970625000003,65.0,95.0
49,26.769616087500005,29.432113425000004,46.0,63.0
50,29.769613087500005,30.198184087500003,65.0,60.0
51,29.341042087500004,30.226755487500004,62.0,78.0
52,30.626755087500005,31.328540100000005,46.0,32.0
53,30.198184087500003,31.355325787500004,39.0,72.0
54,31.055326087500003,31.362468637500005,51.0,45.0
55,31.055326087500003,31.894610962500003,58.0,89.0
56,31.483897087500004,32.0053251375,55.0,63.0
57,31.912468087500002,32.924967075000005,41.0,66.0
58,32.34103908750001,33.007109850000006,48.0,61.0
59,32.769610087500006,33.66425205,60.0,86.0
60,33.198181087500004,33.68746631250001,57.0,55.0
61,34.483894087500005,35.267821875,55.0,59.0
62,34.05532308750001,35.58925012500001,50.0,59.0
63,34.9124650875,35.967821175000005,58.0,66.0
64,35.769607087500006,36.36424935,50.0,55.0
65,33.6267520875,36.435677850000005,43.0,68.0
66,36.6267490875,36.983891587500004,55.0,64.0
67,35.34103608750001,36.998177287500006,62.0,86.0
68,36.198178087500004,37.02496297500001,58.0,88.0
69,37.483891087500005,38.32853310000001,46.0,29.0
70,37.05532008750001,38.412461587500005,39.0,69.0
71,37.9124620875,38.437461562500005,51.0,42.0
72,37.9124620875,38.76960408750001,63.0,89.0
73,38.34103308750001,38.78210407500001,58.0,60.0
74,39.198175087500005,39.758888812500004,54.0,67.0
75,38.76960408750001,39.878531550000005,42.0,88.0
76,40.05531708750001,40.439245275000005,60.0,59.0
77,39.6267460875,40.446388125000006,57.0,70.0
78,40.483888087500006,41.46424425000001,38.0,69.0
79,40.912459087500004,41.482101375000006,45.0,56.0
80,41.76960108750001,42.192814950000006,50.0,55.0
81,41.34103008750001,42.192814950000006,53.0,61.0
82,41.34103008750001,42.216029212500004,57.0,69.0
83,42.6267430875,43.2124567875,50.0,51.0
84,42.198172087500005,43.282099575000004,43.0,67.0
85,43.05531408750001,43.34995665,55.0,58.0
86,43.05531408750001,43.914241800000006,59.0,69.0
87,43.05531408750001,43.914241800000006,62.0,73.0
88,43.483885087500006,43.962456037500004,55.0,55.0
89,44.3410270875,44.82674088750001,43.0,58.0
90,43.912456087500004,44.878526550000004,36.0,72.0
91,45.198169087500006,45.566025862500005,48.0,54.0
92,44.76959808750001,45.58745441250001,51.0,78.0
93,44.76959808750001,45.61066867500001,55.0,77.0
94,45.6267400875,46.72316756250001,41.0,69.0
95,46.05531108750001,46.749953250000004,48.0,50.0
96,46.48388208750001,47.08388148750001,57.0,73.0
97,46.48388208750001,47.217809925000005,53.0,40.0
98,47.3410240875,48.035666250000006,63.0,69.0
99,47.3410240875,48.035666250000006,65.0,66.0
100,47.3410240875,48.44995155000001,46.0,62.0
101,48.198166087500006,48.696379875000005,65.0,62.0
102,48.198166087500006,48.741022687500006,63.0,67.0
103,48.626737087500004,48.994593862500004,46.0,50.0
104,49.05530808750001,50.592806550000006,46.0,68.0
105,49.05530808750001,50.61959223750001,65.0,62.0
106,49.05530808750001,50.630306512500006,58.0,58.0
107,49.05530808750001,50.642806500000006,62.0,73.0
108,50.76959208750001,51.496377075000005,62.0,60.0
109,50.76959208750001,51.521377050000005,58.0,57.0
110,50.76959208750001,51.53030561250001,53.0,60.0
111,51.626734087500004,52.151733562500006,62.0,63.0
112,51.626734087500004,52.16066212500001,58.0,59.0
113,51.626734087500004,52.35530478750001,53.0,57.0
114,52.05530508750001,52.617804525000004,51.0,47.0
115,52.48387608750001,53.22673248750001,62.0,66.0
116,52.48387608750001,53.24994675000001,53.0,56.0
117,52.48387608750001,53.25887531250001,58.0,63.0
118,53.341018087500004,53.430303712500006,53.0,34.0
119,50.76959208750001,53.63744636250001,39.0,68.0
120,53.341018087500004,54.05173166250001,62.0,73.0
121,53.341018087500004,54.06780307500001,58.0,72.0
122,54.19816008750001,54.85530228750001,58.0,61.0
123,54.19816008750001,54.94101648750001,62.0,74.0
124,53.76958908750001,54.96780217500001,53.0,45.0
125,55.05530208750001,55.66601576250001,58.0,62.0
126,55.05530208750001,55.87137270000001,62.0,68.0
127,55.912444087500006,56.68744331250001,62.0,53.0
128,55.05530208750001,56.710657575000006,53.0,59.0
129,56.76958608750001,57.11065717500001,53.0,54.0
130,56.76958608750001,57.358871212500006,58.0,83.0
131,54.19816008750001,57.376728337500005,41.0,37.0
132,56.76958608750001,57.45529968750001,62.0,82.0
133,57.19815708750001,57.551728162500005,53.0,48.0
134,57.626728087500005,58.382084475000006,57.0,69.0
135,57.626728087500005,58.382084475000006,62.0,64.0
136,57.626728087500005,58.39101303750001,58.0,64.0
137,57.626728087500005,58.394584462500006,53.0,58.0
138,58.48387008750001,59.21958363750001,57.0,64.0
139,58.48387008750001,59.223155062500005,53.0,52.0
140,58.48387008750001,59.22494077500001,58.0,56.0
141,58.48387008750001,59.228512200000004,62.0,59.0
142,59.341012087500005,60.026725687500004,57.0,58.0
143,59.341012087500005,60.03565425000001,53.0,51.0
144,59.341012087500005,60.046368525000005,62.0,48.0
145,59.341012087500005,60.05351137500001,58.0,47.0
146,57.626728087500005,60.55886801250001,45.0,54.0
147,60.19815408750001,61.03386753750001,57.0,65.0
148,60.626725087500006,61.04279610000001,53.0,56.0
149,60.19815408750001,61.044581812500006,58.0,59.0
150,60.19815408750001,61.06065322500001,62.0,62.0
151,61.91243808750001,62.01600941250001,55.0,40.0
152,61.48386708750001,62.341009087500005,50.0,61.0
153,61.05529608750001,62.35172336250001,43.0,76.0
154,61.91243808750001,62.846365725000005,62.0,99.0
155,62.341009087500005,62.93029421250001,55.0,74.0
156,63.626722087500006,63.85529328750001,53.0,69.0
157,62.76958008750001,63.86779327500001,41.0,77.0
158,63.19815108750001,63.924936075000005,48.0,59.0
159,63.626722087500006,64.474935525,60.0,97.0
160,64.0552930875,64.496364075,57.0,61.0
161,65.3410060875,66.4231478625,51.0,85.0
162,66.1981480875,66.932075925,63.0,96.0
163,66.1981480875,67.1088614625,58.0,67.0
164,64.91243508750001,67.24100418750001,46.0,56.0
165,64.48386408750001,67.29993270000001,39.0,97.0
166,66.6267190875,67.3231469625,51.0,52.0
167,67.4838610875,67.939217775,58.0,63.0
168,67.05529008750001,67.94100348750001,63.0,99.0
169,65.76957708750001,68.0285034,55.0,60.0
170,68.7695740875,69.69278745000001,60.0,97.0
171,69.19814508750001,69.83564445,53.0,66.0
172,70.0552870875,70.54457231250001,53.0,49.0
173,69.62671608750001,70.55350087500001,57.0,82.0
174,67.91243208750001,71.10528603750001,41.0,88.0
175,68.34100308750001,71.41064287500001,48.0,62.0
176,70.48385808750001,71.43921427500001,60.0,71.0
177,72.1981420875,73.11599831250001,55.0,88.0
178,72.62671308750001,73.1374268625,57.0,64.0
179,71.76957108750001,73.28742671250001,50.0,48.0
180,73.05528408750001,73.79278335000001,58.0,99.0
181,71.3410000875,74.2695685875,43.0,55.0
182,73.4838550875,74.38742561250001,50.0,86.0
183,74.34099708750001,74.75349667500001,55.0,85.0
184,73.91242608750001,74.7695680875,62.0,107.0
185,74.7695680875,76.0159954125,58.0,81.0
186,74.7695680875,76.02135255,50.0,64.0
187,74.7695680875,76.02849540000001,55.0,78.0
188,74.7695680875,76.03385253750001,62.0,72.0
189,74.7695680875,76.03563825,43.0,60.0
190,78.1981360875,78.63384993750002,55.0,79.0
191,78.1981360875,78.65527848750001,51.0,92.0
192,78.1981360875,78.94992105000001,63.0,122.0
193,78.1981360875,79.10170661250001,46.0,65.0
194,79.05527808750001,79.21956363750002,51.0,85.0
195,78.1981360875,79.39992060000002,39.0,99.0
196,79.05527808750001,79.49099193750001,55.0,79.0
197,79.05527808750001,79.80706305000001,63.0,122.0
198,79.4838490875,79.8142059,58.0,86.0
199,79.91242008750001,80.36063392500002,57.0,92.0
200,79.91242008750001,80.39813388750001,53.0,85.0
201,79.91242008750001,80.8052763375,65.0,97.0
202,80.7695620875,80.8052763375,65.0,97.0
203,79.91242008750001,80.86777627500001,48.0,62.0
204,79.91242008750001,81.06777607500001,41.0,66.0
205,80.7695620875,81.21777592500001,57.0,92.0
206,80.7695620875,81.2552758875,53.0,85.0
207,81.19813308750001,81.60348982500001,60.0,88.0
208,81.62670408750002,82.09813218750001,62.0,79.0
209,81.62670408750002,82.09991790000001,70.0,79.0
210,81.62670408750002,82.11777502500001,58.0,79.0
211,82.48384608750001,82.87313141250002,62.0,93.0
212,82.48384608750001,82.97491702500001,58.0,95.0
213,82.48384608750001,82.99455986250001,65.0,86.0
214,82.91241708750002,83.08741691250002,62.0,83.0
215,81.62670408750002,83.10884546250001,53.0,79.0
216,81.62670408750002,83.22848820000002,46.0,77.0
217,83.34098808750001,83.8124161875,62.0,83.0
218,83.34098808750001,83.832059025,58.0,83.0
219,83.76955908750001,83.832059025,58.0,81.0
220,83.34098808750001,83.85170186250001,65.0,83.0
221,83.34098808750001,83.87670183750001,70.0,83.0
222,84.20170151250001,84.26598716250001,58.0,95.0
223,83.34098808750001,84.2874157125,53.0,85.0
224,83.34098808750001,84.56955828750002,46.0,85.0
225,84.20170151250001,84.6731296125,62.0,93.0
226,84.20170151250001,84.71420100000002,65.0,86.0
227,84.62670108750001,84.71420100000002,65.0,85.0
228,84.84098658750001,85.04991495000002,62.0,92.0
229,85.05527208750001,85.50705735000001,55.0,81.0
230,85.05527208750001,85.52491447500002,51.0,82.0
231,85.05527208750001,85.82312846250001,63.0,112.0
232,85.05527208750001,85.98205687500001,46.0,58.0
233,85.91241408750001,86.07669963750001,51.0,92.0
234,85.05527208750001,86.27134230000001,39.0,83.0
235,85.91241408750001,86.36419935,55.0,81.0
236,85.91241408750001,86.6802704625,63.0,112.0
237,86.34098508750002,86.72669898750001,58.0,89.0
238,86.7695560875,87.0052701375,57.0,78.0
239,86.7695560875,87.06598436250002,53.0,83.0
240,86.7695560875,87.47134110000002,48.0,55.0
241,86.7695560875,87.59634097500002,60.0,97.0
242,87.62669808750002,87.86241213750002,57.0,78.0
243,87.62669808750002,87.92312636250001,53.0,83.0
244,86.7695560875,88.17491182500001,41.0,75.0
245,87.62669808750002,88.24991175000001,48.0,70.0
246,88.05526908750001,88.44455441250001,57.0,79.0
247,87.62669808750002,88.45348297500001,60.0,97.0
248,88.26955458750001,88.45526868750001,53.0,81.0
249,88.48384008750001,88.75526838750001,55.0,85.0
250,88.48384008750001,88.75883981250001,58.0,92.0
251,88.48384008750001,89.18026796250001,50.0,56.0
252,88.48384008750001,89.43919627500001,62.0,92.0
253,89.34098208750001,89.43919627500001,62.0,92.0
254,89.34098208750001,89.6124103875,55.0,85.0
255,89.34098208750001,89.61598181250001,58.0,92.0
256,89.76955308750001,90.00883856250002,58.0,86.0
257,88.48384008750001,90.05705280000001,43.0,83.0
258,89.98383858750002,90.16955268750002,57.0,77.0
259,89.55526758750001,90.18205267500001,50.0,69.0
260,90.20348122500002,90.39276675,58.0,96.0
261,90.20348122500002,90.43562385000001,55.0,86.0
262,90.1981240875,90.93740906250001,50.0,81.0
263,90.20348122500002,90.94633762500001,62.0,96.0
264,91.05526608750002,91.24455161250002,58.0,96.0
265,91.05526608750002,91.28740871250001,55.0,86.0
266,91.26955158750002,91.389194325,50.0,72.0
267,90.1981240875,91.43562285000002,43.0,82.0
268,91.05526608750002,91.79812248750001,62.0,96.0
269,91.4838370875,91.83205102500001,58.0,99.0
270,91.69812258750001,91.94633662500001,55.0,85.0
271,91.91240808750001,91.94633662500001,55.0,74.0
272,91.91240808750001,92.36419335000001,51.0,69.0
273,91.91240808750001,92.64812163750001,63.0,112.0
274,91.91240808750001,92.910621375,46.0,47.0
275,91.91240808750001,93.13919257500001,39.0,77.0
276,92.76955008750001,93.15883541250001,55.0,74.0
277,92.76955008750001,93.22133535000002,51.0,69.0
278,92.76955008750001,93.50526363750001,63.0,112.0
279,93.19812108750001,93.54454931250001,58.0,93.0
280,93.41240658750002,93.62669208750002,55.0,97.0
281,93.62669208750002,93.84454901250001,57.0,67.0
282,93.62669208750002,93.98919172500001,53.0,75.0
283,93.62669208750002,94.33740566250002,48.0,59.0
284,93.62669208750002,94.43383413750001,60.0,95.0
285,94.48383408750001,94.7016910125,57.0,67.0
286,93.62669208750002,94.81419090000001,41.0,74.0
287,94.48383408750001,94.84633372500001,53.0,75.0
288,94.69811958750002,94.84811943750002,48.0,58.0
289,94.48383408750001,95.29097613750001,60.0,95.0
290,94.91240508750002,95.29276185000002,57.0,85.0
291,95.12669058750001,95.30169041250001,53.0,73.0
292,95.34097608750001,95.56061872500001,62.0,79.0
293,95.34097608750001,95.80704705000001,58.0,93.0
294,95.34097608750001,95.86240413750001,65.0,100.0
295,96.1981180875,96.41776072500001,62.0,79.0
296,96.1981180875,96.66418905000002,58.0,93.0
297,96.1981180875,96.71954613750002,65.0,100.0
298,95.34097608750001,96.803474625,53.0,64.0
299,95.34097608750001,96.82133175000001,46.0,85.0
300,96.62668908750001,97.00168871250001,62.0,92.0
301,97.05526008750002,97.38740261250001,62.0,90.0
302,97.05526008750002,97.54990245000002,58.0,88.0
303,97.05526008750002,97.89811638750001,70.0,117.0
304,97.05526008750002,98.00525913750002,53.0,57.0
305,97.91240208750001,98.24454461250001,62.0,90.0
306,97.05526008750002,98.28561600000002,46.0,68.0
307,97.91240208750001,98.40704445000001,58.0,88.0
308,97.91240208750001,98.7552583875,70.0,74.0
309,98.76954408750001,99.23204362500002,55.0,77.0
310,98.76954408750001,99.24454361250001,51.0,67.0
311,98.76954408750001,99.58740041250002,63.0,102.0
312,98.76954408750001,99.70347172500001,46.0,56.0
313,98.76954408750001,99.97847145000001,39.0,69.0
314,99.62668608750002,100.08918562500001,55.0,77.0
315,99.62668608750002,100.1016856125,51.0,67.0
316,100.05525708750001,100.43382813750002,58.0,82.0
317,99.62668608750002,100.44454241250001,63.0,102.0
318,100.48382808750002,100.70882786250002,57.0,95.0
319,100.48382808750002,100.95347047500002,53.0,90.0
320,100.48382808750002,101.19454166250001,48.0,40.0
321,100.48382808750002,101.34989865000001,60.0,99.0
322,101.34097008750001,101.34989865000001,60.0,99.0
323,101.34097008750001,101.56596986250001,57.0,95.0
324,101.34097008750001,101.81061247500001,53.0,90.0
325,100.48382808750002,102.03918367500002,41.0,58.0
326,101.76954108750002,102.19275495000001,57.0,54.0
327,101.98382658750002,102.21418350000002,53.0,58.0
328,101.55525558750001,102.23918347500002,48.0,62.0
329,102.19811208750001,102.40525473750002,58.0,74.0
330,102.19811208750001,102.58204027500001,55.0,76.0
331,102.19811208750001,102.89275425000001,50.0,42.0
332,103.05525408750002,103.26239673750001,58.0,74.0
333,103.05525408750002,103.43918227500001,55.0,76.0
334,102.19811208750001,103.51596791250002,62.0,89.0
335,103.05525408750002,103.51596791250002,62.0,89.0
336,102.19811208750001,103.75168196250002,43.0,67.0
337,103.26953958750002,103.92846750000001,50.0,76.0
338,103.48382508750001,104.71418100000001,58.0,85.0
339,104.34096708750002,104.910609375,50.0,40.0
340,103.91239608750001,104.98918072500001,43.0,73.0
341,104.76953808750001,105.59989440000001,62.0,69.0
342,106.05525108750001,106.72310756250002,46.0,30.0
343,105.62668008750002,106.73917897500002,39.0,89.0
344,106.48382208750002,106.79275035000002,51.0,39.0
345,106.48382208750002,107.42489257500002,63.0,77.0
346,106.48382208750002,107.43739256250001,58.0,65.0
347,106.9123930875,107.44453541250002,55.0,55.0
348,107.34096408750001,108.33917737500002,41.0,58.0
349,107.76953508750002,108.46596296250002,48.0,56.0
350,108.62667708750001,109.03917667500001,53.0,63.0
351,108.19810608750001,109.04096238750002,60.0,82.0
352,109.48381908750001,110.14096128750002,53.0,52.0
353,109.05524808750002,110.59810368750001,46.0,66.0
354,110.34096108750002,110.70346072500001,53.0,27.0
355,109.91239008750001,111.20881736250001,58.0,63.0
356,109.91239008750001,111.38738861250002,65.0,57.0
357,109.91239008750001,111.51060277500001,62.0,53.0
358,111.19810308750002,111.86417385000001,53.0,34.0
359,111.62667408750002,111.87488812500001,58.0,67.0
360,110.76953208750001,111.95524518750001,46.0,69.0
361,112.05524508750001,112.51417320000002,62.0,59.0
362,111.62667408750002,112.51417320000002,65.0,85.0
363,112.48381608750002,113.64274350000001,39.0,73.0
364,112.91238708750001,113.65345777500002,46.0,38.0
365,113.34095808750001,113.67845775000002,51.0,38.0
366,113.76952908750002,114.25702860000001,55.0,25.0
367,113.34095808750001,114.33381423750002,63.0,79.0
368,113.34095808750001,114.34274280000001,58.0,66.0
369,114.19810008750001,115.16059912500002,41.0,67.0
370,114.62667108750001,115.18559910000002,48.0,39.0
371,115.05524208750002,115.88381268750001,57.0,73.0
372,115.48381308750001,115.88916982500001,53.0,47.0
373,115.05524208750002,115.90524123750002,60.0,72.0
374,116.34095508750002,116.90524023750001,53.0,43.0
375,115.91238408750002,117.37309691250002,46.0,58.0
376,117.19809708750002,117.62666808750002,53.0,36.0
377,116.76952608750001,118.04988195000001,58.0,72.0
378,116.76952608750001,118.28559600000001,65.0,44.0
379,116.76952608750001,118.33202452500001,62.0,63.0
380,118.05523908750001,118.56238143750002,53.0,33.0
381,118.48381008750002,118.61059567500001,58.0,59.0
382,117.62666808750002,118.64095278750001,46.0,69.0
383,118.48381008750002,119.28023786250002,65.0,102.0
384,118.91238108750001,119.31416640000002,62.0,47.0
385,119.76952308750002,120.61773652500001,46.0,37.0
386,119.34095208750001,120.66059362500002,39.0,90.0
387,120.19809408750001,120.67487932500002,51.0,47.0
388,120.19809408750001,121.02309326250001,55.0,70.0
389,120.19809408750001,121.05345037500001,58.0,61.0
390,121.48380708750001,121.97487802500001,45.0,50.0
391,121.05523608750002,122.02309226250001,42.0,67.0
392,121.91237808750002,122.80344862500002,54.0,68.0
393,121.91237808750002,122.83737716250002,60.0,60.0
394,121.91237808750002,122.84987715000001,57.0,63.0
395,122.76952008750001,123.74451911250002,38.0,71.0
396,123.19809108750002,123.81059047500001,45.0,44.0
397,124.05523308750001,124.43023271250001,50.0,55.0
398,123.62666208750002,124.44630412500001,53.0,72.0
399,123.62666208750002,124.46951838750002,57.0,77.0
400,124.91237508750001,125.41951743750002,50.0,71.0
401,124.48380408750002,125.48737451250001,43.0,85.0
402,125.34094608750001,126.24094518750002,59.0,90.0
403,125.34094608750001,126.24094518750002,62.0,95.0
404,125.76951708750002,126.27487372500002,55.0,86.0
405,126.84094458750002,127.12487287500002,51.0,85.0
406,126.62665908750002,127.17130140000002,48.0,68.0
407,126.41237358750001,127.21415850000001,43.0,63.0
408,126.19808808750001,127.25880131250001,36.0,86.0
409,127.48380108750001,127.86415785000001,51.0,81.0
410,127.05523008750002,127.87844355000001,55.0,92.0
411,128.34094308750002,128.94629962500002,48.0,63.0
412,127.91237208750002,128.982013875,41.0,89.0
413,128.76951408750003,129.38558490000003,53.0,69.0
414,128.76951408750003,129.460584825,57.0,90.0
415,130.05522708750001,130.62844080000002,58.0,75.0
416,130.48379808750002,130.98558330000003,65.0,63.0
417,130.48379808750002,131.05165466250003,63.0,66.0
418,129.6266560875,131.26058302500002,46.0,85.0
419,130.91236908750002,132.8141529,58.0,65.0
420,131.34094008750003,132.853438575,62.0,56.0
421,131.34094008750003,132.86593856250002,65.0,52.0
422,131.34094008750003,132.88200997500002,46.0,58.0
423,133.05522408750002,134.64450821250003,39.0,93.0
424,133.48379508750003,134.84272230000002,51.0,77.0
425,133.9123660875,135.43200742500002,63.0,99.0
426,133.9123660875,135.48915022500003,58.0,90.0
427,134.3409370875,135.72129285000003,55.0,72.0
428,134.76950808750001,135.89807838750002,39.0,73.0
429,135.19807908750002,135.98736401250002,51.0,70.0
430,135.62665008750002,136.53022061250002,63.0,112.0
431,136.05522108750003,136.57664913750003,55.0,78.0
432,136.4837920875,138.09629047500002,41.0,72.0
433,136.9123630875,138.21414750000002,48.0,63.0
434,137.76950508750002,138.95700390000002,53.0,93.0
435,138.19807608750003,139.27843215000001,41.0,79.0
436,138.62664708750003,139.37307491250002,48.0,93.0
437,139.4837890875,139.81771732500002,53.0,86.0
438,139.0552180875,139.84807443750003,57.0,96.0
439,137.34093408750002,139.90878866250003,60.0,100.0
440,140.5552165875,140.82128775,57.0,81.0
441,140.34093108750002,140.860573425,53.0,79.0
442,139.91236008750002,141.28914442500002,46.0,95.0
443,140.1266455875,141.682001175,50.0,55.0
444,141.1980730875,142.03557225000003,57.0,75.0
445,141.6266440875,142.11235788750002,65.0,72.0
446,141.6266440875,142.12307216250002,62.0,69.0
447,140.76950208750003,142.3141434,58.0,107.0
448,142.05521508750002,142.59092883750003,50.0,55.0
449,141.6266440875,142.96235703750003,46.0,74.0
450,142.6980715875,143.2802138625,50.0,62.0
451,142.91235708750003,143.32128525000002,58.0,88.0
452,142.48378608750002,143.34092808750003,62.0,102.0
453,143.7694990875,144.45164126250003,50.0,73.0
454,143.34092808750003,144.49806978750001,43.0,86.0
455,144.62664108750002,145.11235488750003,55.0,72.0
456,144.1980700875,145.13914057500003,58.0,89.0
457,144.1980700875,145.15342627500002,62.0,83.0
458,145.05521208750002,145.967711175,41.0,82.0
459,145.48378308750003,145.97128260000002,48.0,70.0
460,145.9123540875,146.6909247375,60.0,99.0
461,146.3409250875,146.74449611250003,53.0,76.0
462,147.62663808750003,148.51592291250003,51.0,70.0
463,148.05520908750003,149.02485097500002,55.0,83.0
464,147.62663808750003,149.10699375000002,63.0,102.0
465,148.4837800875,149.167707975,58.0,99.0
466,148.9123510875,149.44806483750003,51.0,89.0
467,147.19806708750002,149.6230646625,46.0,53.0
468,146.76949608750002,149.6730646125,39.0,88.0
469,149.34092208750002,150.20163551250002,58.0,96.0
470,149.76949308750002,150.20342122500003,55.0,83.0
471,149.34092208750002,150.2159212125,63.0,92.0
472,150.6266350875,151.981990875,48.0,61.0
473,151.91234808750002,152.57841885000002,57.0,100.0
474,151.0552060875,152.5873474125,60.0,92.0
475,151.48377708750002,152.86948998750003,53.0,83.0
476,152.34091908750003,152.881989975,48.0,89.0
477,150.19806408750003,153.5087750625,41.0,67.0
478,153.1980610875,153.58020356250003,53.0,82.0
479,152.98377558750002,153.61948923750003,48.0,74.0
480,153.41234658750002,153.62306066250002,57.0,73.0
481,152.76949008750003,153.67841775000002,60.0,102.0
482,154.05520308750002,154.59270255,50.0,74.0
483,154.91234508750003,155.66770147500003,50.0,58.0
484,154.48377408750002,156.05698680000003,62.0,95.0
485,155.34091608750003,156.10162961250003,55.0,90.0
486,154.48377408750002,156.10520103750002,58.0,97.0
487,155.7694870875,156.22305806250003,50.0,63.0
488,156.41234358750003,156.9569859,50.0,83.0
489,156.19805808750002,157.00698585,58.0,107.0
490,156.62662908750002,157.03912867500003,55.0,95.0
491,156.19805808750002,157.03912867500003,62.0,96.0
492,153.6266320875,157.0409143875,43.0,88.0
493,157.05520008750003,157.62484237500001,55.0,102.0
494,157.05520008750003,157.79984220000003,62.0,95.0
495,157.48377108750003,158.02662768750002,50.0,55.0
496,157.05520008750003,158.66055562500003,43.0,69.0
497,157.9123420875,158.66412705000002,62.0,78.0
498,157.9123420875,158.67126990000003,55.0,89.0
499,157.9123420875,158.67841275,58.0,76.0
500,158.76948408750002,159.38912632500003,55.0,93.0
501,158.76948408750002,159.40519773750003,58.0,95.0
502,158.76948408750002,159.40519773750003,62.0,92.0
503,158.76948408750002,159.42662628750003,43.0,85.0
504,159.62662608750003,159.9337686375,55.0,93.0
505,159.62662608750003,160.1230541625,43.0,99.0
506,160.05519708750003,160.31591111250003,55.0,77.0
507,159.62662608750003,160.38555390000002,58.0,127.0
508,159.62662608750003,160.39626817500002,62.0,100.0
509,160.91233908750002,161.36948148750002,51.0,92.0
510,161.12662458750003,161.56233843750002,55.0,79.0
511,160.69805358750003,161.60162411250002,46.0,65.0
512,160.4837680875,161.68555260000002,39.0,99.0
513,161.5551955875,161.71948113750003,51.0,85.0
514,161.34091008750002,162.09269505000003,63.0,122.0
515,161.76948108750003,162.0998379,58.0,86.0
516,161.9837665875,162.20698065000002,55.0,79.0
517,162.6266230875,163.11233688750002,53.0,85.0
518,162.84090858750002,163.28912242500002,57.0,92.0
519,162.19805208750003,163.35340807500003,41.0,66.0
520,162.41233758750002,163.36769377500002,48.0,62.0
521,163.26947958750003,163.52126505,53.0,90.0
522,163.48376508750002,163.88912182500002,60.0,88.0
523,163.69805058750003,163.89269325,57.0,93.0
524,163.0551940875,163.94805033750004,65.0,97.0
525,164.34090708750003,164.81590661250002,58.0,95.0
526,164.55519258750002,165.01054927500002,62.0,93.0
527,163.91233608750002,165.5141202,46.0,52.0
528,164.1266215875,165.6087629625,53.0,67.0
529,164.98376358750002,165.68197717500001,58.0,95.0
530,165.41233458750003,166.08019106250003,62.0,83.0
531,164.76947808750003,166.17661953750002,70.0,122.0
532,165.1980490875,166.2141195,65.0,86.0
533,166.05519108750002,166.55161916250003,58.0,81.0
534,165.84090558750003,166.78733321250002,53.0,38.0
535,166.6980475875,166.81590461250002,58.0,95.0
536,165.62662008750002,166.85519028750002,46.0,76.0
537,166.2694765875,166.93733306250002,62.0,86.0
538,167.12661858750002,167.33554695,62.0,92.0
539,166.91233308750003,167.34268980000002,65.0,85.0
540,166.48376208750003,167.35518978750002,70.0,127.0
541,167.7694750875,168.23911747500003,51.0,82.0
542,167.98376058750003,168.43554585,55.0,81.0
543,167.55518958750002,168.48197437500002,46.0,58.0
544,167.34090408750004,168.55697430000004,39.0,83.0
545,168.41233158750003,168.57661713750002,51.0,92.0
546,168.19804608750002,168.96590246250003,63.0,112.0
547,168.62661708750002,169.01233098750004,58.0,89.0
548,168.8409025875,169.03733096250002,55.0,82.0
549,169.48375908750003,169.78018736250002,53.0,83.0
550,169.69804458750002,169.93375863750003,57.0,78.0
551,169.26947358750002,169.97125860000003,48.0,55.0
552,169.05518808750003,170.46054382500003,41.0,75.0
553,170.34090108750001,170.73018641250002,57.0,79.0
554,169.9123300875,170.73911497500004,60.0,97.0
555,170.55518658750003,170.74090068750002,53.0,81.0
556,170.12661558750003,170.74982925000003,48.0,70.0
557,171.19804308750003,171.46947138750002,55.0,85.0
558,170.9837575875,171.68018546250002,50.0,56.0
559,171.4123285875,171.68732831250003,58.0,92.0
560,170.76947208750002,172.34268480000003,43.0,83.0
561,172.26947058750002,172.45518468750004,57.0,77.0
562,171.84089958750002,172.46768467500002,50.0,69.0
563,172.05518508750004,172.55161316250002,58.0,86.0
564,171.62661408750003,172.58197027500003,62.0,92.0
565,172.91232708750002,173.1444697125,55.0,86.0
566,173.12661258750003,173.31589811250004,58.0,96.0
567,172.69804158750003,173.43732656250003,50.0,81.0
568,173.5551835875,173.67482632500003,50.0,72.0
569,172.4837560875,173.72125485000004,43.0,82.0
570,173.34089808750002,174.08375448750002,62.0,96.0
571,173.76946908750003,174.11768302500002,58.0,99.0
572,173.98375458750002,174.23196862500004,55.0,85.0
573,174.6266110875,175.07839635000002,51.0,69.0
574,174.84089658750003,175.23018191250003,55.0,74.0
575,174.41232558750002,175.41053887500001,46.0,47.0
576,174.19804008750003,175.42482457500003,39.0,77.0
577,175.26946758750003,175.4712531,51.0,83.0
578,175.05518208750001,175.79089563750003,63.0,112.0
579,175.48375308750002,175.83018131250003,58.0,93.0
580,175.69803858750004,175.91232408750002,55.0,97.0
581,176.34089508750003,176.703394725,53.0,75.0
582,176.55518058750002,176.77303751250003,57.0,67.0
583,176.1266095875,176.8373231625,48.0,59.0
584,175.91232408750002,177.09982290000002,41.0,74.0
585,176.98375158750002,177.13375143750002,48.0,58.0
586,176.76946608750004,177.57660813750002,60.0,95.0
587,177.1980370875,177.57839385000003,57.0,85.0
588,177.41232258750003,177.58732241250001,53.0,73.0
589,178.2694645875,178.48910722500003,62.0,79.0
590,178.05517908750002,178.52125005000002,58.0,93.0
591,178.48375008750003,179.00517813750002,65.0,100.0
592,177.62660808750002,179.10696375000003,46.0,85.0
593,178.91232108750003,179.28732071250002,62.0,92.0
594,177.84089358750003,179.30339212500002,53.0,64.0
595,179.12660658750002,179.35517778750003,65.0,83.0
596,178.69803558750002,179.39267775000002,58.0,95.0
597,179.76946308750001,180.26410545000002,58.0,88.0
598,179.98374858750003,180.31589111250003,62.0,90.0
599,179.55517758750003,180.50517663750003,53.0,57.0
600,180.41231958750004,180.51410520000002,58.0,97.0
601,179.34089208750004,180.57124800000003,46.0,68.0
602,180.62660508750002,181.01767612500004,65.0,90.0
603,180.19803408750002,181.0408903875,70.0,117.0
604,180.8408905875,181.06053322500003,62.0,88.0
605,181.48374708750003,181.95874661250002,51.0,67.0
606,181.69803258750002,182.16053212500003,55.0,77.0
607,181.26946158750002,182.20338922500002,46.0,56.0
608,181.05517608750003,182.26410345000002,39.0,69.0
609,182.12660358750003,182.30874626250002,51.0,85.0
610,182.34088908750002,182.40517473750003,55.0,33.0
611,182.34088908750002,182.71946013750002,58.0,82.0
612,181.9123180875,182.73017441250002,63.0,102.0
613,182.55517458750003,182.75874581250002,55.0,75.0
614,183.41231658750002,183.63731636250003,57.0,95.0
615,183.19803108750003,183.66767347500002,53.0,90.0
616,182.9837455875,183.6944591625,48.0,40.0
617,182.76946008750002,184.32481567500002,41.0,58.0
618,184.05517308750004,184.47838695000002,57.0,54.0
619,183.84088758750002,184.4837440875,48.0,62.0
620,184.26945858750003,184.4837440875,53.0,58.0
621,183.62660208750003,184.4837440875,60.0,99.0
622,184.4837440875,184.73731526250003,62.0,89.0
623,184.4837440875,184.74088668750002,67.0,93.0
624,184.4837440875,184.74981525,70.0,99.0
625,184.4837440875,184.79088663750002,43.0,83.0
626,184.91231508750002,185.14802913750003,55.0,82.0
627,184.91231508750002,185.15160056250002,50.0,54.0
628,184.91231508750002,185.15874341250003,43.0,66.0
629,184.91231508750002,185.19088623750002,62.0,81.0
630,184.91231508750002,185.2051719375,70.0,89.0
631,184.91231508750002,185.20695765000002,67.0,86.0
632,185.34088608750002,185.61231438750002,55.0,86.0
633,185.34088608750002,185.61945723750003,50.0,59.0
634,185.34088608750002,185.62481437500003,43.0,69.0
635,185.34088608750002,185.62481437500003,62.0,90.0
636,185.34088608750002,185.63731436250004,70.0,97.0
637,185.34088608750002,185.64088578750003,67.0,93.0
638,185.76945708750003,186.04088538750003,55.0,69.0
639,185.76945708750003,186.05338537500003,43.0,66.0
640,185.76945708750003,186.05338537500003,50.0,85.0
641,185.76945708750003,186.05338537500003,62.0,88.0
642,185.76945708750003,186.0658853625,67.0,100.0
643,185.76945708750003,186.0658853625,70.0,100.0
644,186.19802808750003,186.94445591250002,70.0,107.0
645,186.19802808750003,186.95517018750002,67.0,97.0
646,186.19802808750003,186.97302731250002,62.0,99.0
647,186.19802808750003,187.08552720000003,55.0,99.0
648,187.05517008750002,187.10159861250003,62.0,35.0
649,187.26945558750003,187.50874106250004,55.0,95.0
650,186.19802808750003,187.56945528750003,50.0,85.0
651,187.05517008750002,187.61945523750003,67.0,99.0
652,186.19802808750003,187.62838380000002,43.0,74.0
653,187.69802658750004,187.87124070000002,67.0,85.0
654,187.48374108750002,187.88552640000003,62.0,112.0
655,187.05517008750002,187.90695495000003,70.0,127.0
656,188.34088308750003,188.7980254875,51.0,92.0
657,188.55516858750002,188.99088243750003,55.0,79.0
658,188.12659758750002,189.03016811250004,46.0,65.0
659,187.91231208750003,189.1140966,39.0,99.0
660,188.98373958750003,189.1480251375,51.0,85.0
661,188.76945408750004,189.52123905000002,63.0,122.0
662,189.1980250875,189.52838190000003,58.0,86.0
663,189.41231058750003,189.63552465000004,55.0,79.0
664,190.05516708750002,190.54088088750004,53.0,85.0
665,190.2694525875,190.71766642500003,57.0,92.0
666,189.62659608750002,190.78195207500002,41.0,66.0
667,189.84088158750004,190.79623777500004,48.0,62.0
668,190.69802358750002,190.94980905000003,53.0,90.0
669,190.91230908750003,191.31766582500003,60.0,88.0
670,191.12659458750002,191.32123725000002,57.0,93.0
671,190.48373808750003,191.37659433750002,65.0,97.0
672,191.76945108750002,192.24445061250003,58.0,95.0
673,191.98373658750003,192.43909327500003,62.0,93.0
674,191.3408800875,192.94266420000002,46.0,52.0
675,191.55516558750003,193.03730696250003,53.0,67.0
676,192.41230758750004,193.11052117500003,58.0,95.0
677,192.84087858750001,193.50873506250002,62.0,83.0
678,192.19802208750002,193.60516353750003,70.0,122.0
679,192.62659308750003,193.64266350000003,65.0,86.0
680,193.48373508750004,193.98016316250002,58.0,81.0
681,193.26944958750002,194.21587721250003,53.0,38.0
682,194.12659158750003,194.24444861250004,58.0,95.0
683,193.05516408750003,194.28373428750004,46.0,76.0
684,193.69802058750003,194.36587706250003,62.0,86.0
685,194.55516258750004,194.76409095000002,62.0,92.0
686,194.34087708750002,194.77123380000003,65.0,85.0
687,193.9123060875,194.7837337875,70.0,127.0
688,195.19801908750003,195.66766147500002,51.0,82.0
689,195.41230458750002,195.86408985000003,55.0,81.0
690,194.9837335875,195.91051837500004,46.0,58.0
691,194.76944808750002,195.98551830000002,39.0,83.0
692,195.84087558750002,196.00516113750004,51.0,92.0
693,195.62659008750003,196.3944464625,63.0,112.0
694,196.05516108750004,196.44087498750002,58.0,89.0
695,196.26944658750003,196.46587496250004,55.0,82.0
696,196.91230308750002,197.20873136250003,53.0,83.0
697,197.12658858750004,197.36230263750002,57.0,78.0
698,196.69801758750003,197.39980260000002,48.0,55.0
699,196.48373208750002,197.88908782500002,41.0,75.0
700,197.76944508750003,198.15873041250003,57.0,79.0
701,197.34087408750003,198.16765897500002,60.0,97.0
702,197.98373058750002,198.16944468750003,53.0,81.0
703,197.55515958750001,198.17837325000002,48.0,70.0
704,198.6265870875,198.89801538750004,55.0,85.0
705,198.41230158750002,199.10872946250004,50.0,56.0
706,198.84087258750003,199.11587231250002,58.0,92.0
707,198.19801608750004,199.77122880000002,43.0,83.0
708,199.69801458750004,199.88372868750002,57.0,77.0
709,199.26944358750004,199.89622867500003,50.0,69.0
710,199.48372908750002,199.98015716250003,58.0,86.0
711,199.05515808750002,200.01051427500002,62.0,92.0
712,200.34087108750003,200.57301371250003,55.0,86.0
713,200.55515658750002,200.74444211250002,58.0,96.0
714,200.12658558750002,200.86587056250002,50.0,81.0
715,200.98372758750003,201.10337032500001,50.0,72.0
716,199.91230008750003,201.14979885000002,43.0,82.0
717,200.76944208750004,201.51229848750003,62.0,96.0
718,201.19801308750002,201.54622702500004,58.0,99.0
719,201.41229858750003,201.66051262500002,55.0,85.0
720,202.05515508750003,202.50694035000004,51.0,69.0
721,202.26944058750001,202.65872591250002,55.0,74.0
722,201.84086958750004,202.83908287500003,46.0,47.0
723,201.62658408750002,202.85336857500002,39.0,77.0
724,202.69801158750002,202.89979710000003,51.0,83.0
725,202.48372608750003,203.21943963750002,63.0,112.0
726,202.91229708750004,203.25872531250002,58.0,93.0
727,203.12658258750002,203.3408680875,55.0,97.0
728,203.76943908750002,204.13193872500003,53.0,75.0
729,203.98372458750003,204.2015815125,57.0,67.0
730,203.55515358750003,204.26586716250003,48.0,59.0
731,203.3408680875,204.52836690000004,41.0,74.0
732,204.41229558750004,204.56229543750004,48.0,58.0
733,204.19801008750002,205.00515213750003,60.0,95.0
734,204.62658108750003,205.00693785,57.0,85.0
735,204.84086658750002,205.01586641250003,53.0,73.0
736,205.69800858750003,205.91765122500001,62.0,79.0
737,205.48372308750004,205.94979405000004,58.0,93.0
738,205.91229408750002,206.43372213750004,65.0,100.0
739,205.05515208750003,206.53550775000002,46.0,85.0
740,206.34086508750002,206.71586471250004,62.0,92.0
741,205.26943758750002,206.73193612500003,53.0,64.0
742,206.55515058750004,206.7837217875,65.0,83.0
743,206.12657958750003,206.82122175000003,58.0,95.0
744,207.19800708750003,207.69264945000003,58.0,88.0
745,207.41229258750002,207.7444351125,62.0,90.0
746,206.9837215875,207.93372063750002,53.0,57.0
747,207.84086358750002,207.94264920000003,58.0,97.0
748,206.76943608750003,207.999792,46.0,68.0
749,208.05514908750004,208.44622012500002,65.0,90.0
750,207.62657808750004,208.46943438750003,70.0,117.0
751,208.26943458750003,208.48907722500002,62.0,88.0
752,208.91229108750002,209.38729061250004,51.0,67.0
753,209.12657658750004,209.58907612500002,55.0,77.0
754,208.69800558750003,209.63193322500004,46.0,56.0
755,208.48372008750002,209.69264745000004,39.0,69.0
756,209.55514758750002,209.73729026250004,51.0,85.0
757,209.76943308750003,209.83371873750002,55.0,33.0
758,209.76943308750003,210.14800413750004,58.0,82.0
759,209.34086208750003,210.15871841250004,63.0,102.0
760,209.98371858750002,210.18728981250004,55.0,75.0
761,210.84086058750003,211.06586036250002,57.0,95.0
762,210.62657508750002,211.09621747500003,53.0,90.0
763,210.41228958750003,211.12300316250003,48.0,40.0
764,210.19800408750004,211.75335967500004,41.0,58.0
765,211.48371708750003,211.90693095000003,57.0,54.0
766,211.26943158750004,211.91228808750003,48.0,62.0
767,211.6980025875,211.91228808750003,53.0,58.0
768,211.05514608750002,211.91228808750003,60.0,99.0
769,211.91228808750003,212.21585921250002,62.0,83.0
770,211.91228808750003,212.21764492500003,43.0,58.0
771,211.91228808750003,212.22121635000002,55.0,88.0
772,211.91228808750003,212.22121635000002,67.0,93.0
773,211.91228808750003,212.22478777500004,70.0,97.0
774,212.34085908750004,212.64443021250003,55.0,81.0
775,212.34085908750004,212.64443021250003,62.0,85.0
776,212.34085908750004,212.65514448750002,43.0,58.0
777,212.34085908750004,212.6587159125,67.0,85.0
778,212.34085908750004,212.66943018750004,70.0,90.0
779,212.76943008750004,213.04442981250003,55.0,88.0
780,212.76943008750004,213.05157266250004,43.0,57.0
781,212.76943008750004,213.06585836250002,62.0,86.0
782,212.76943008750004,213.07835835000003,67.0,88.0
783,212.76943008750004,213.07835835000003,70.0,93.0
784,213.19800108750002,213.47657223750002,55.0,97.0
785,213.19800108750002,213.47657223750002,67.0,97.0
786,213.19800108750002,213.48014366250004,70.0,112.0
787,213.19800108750002,213.48907222500003,62.0,89.0
788,213.19800108750002,213.51050077500003,43.0,74.0
789,215.76942708750002,216.32121225000003,46.0,35.0
790,215.34085608750001,216.41228358750004,39.0,88.0
791,216.19799808750003,217.09085433750002,63.0,93.0
792,216.62656908750003,217.09978290000004,55.0,67.0
793,217.05514008750004,217.95513918750004,41.0,69.0
794,217.48371108750004,218.04085338750002,48.0,44.0
795,217.91228208750002,218.77299551250002,60.0,88.0
796,218.34085308750002,218.78370978750002,57.0,57.0
797,219.62656608750004,220.65692220000003,58.0,73.0
798,220.05513708750004,220.92477907500003,62.0,59.0
799,220.91227908750002,221.45334997500004,58.0,72.0
800,219.19799508750003,221.55513558750002,53.0,37.0
801,218.76942408750003,221.64799263750004,46.0,70.0
802,220.48370808750002,222.23549205000003,65.0,79.0
803,221.34085008750003,222.26049202500002,62.0,69.0
804,221.76942108750004,222.27656343750002,60.0,40.0
805,222.19799208750004,223.37656233750002,39.0,79.0
806,222.62656308750002,223.44084798750004,51.0,56.0
807,223.48370508750003,223.96049032500002,58.0,54.0
808,223.05513408750002,223.97120460000002,63.0,92.0
809,223.91227608750003,225.31763182500003,41.0,70.0
810,224.34084708750004,225.61941723750002,48.0,58.0
811,225.19798908750002,225.62656008750002,57.0,66.0
812,224.76941808750004,225.62656008750002,60.0,92.0
813,226.48370208750003,227.52477247500002,58.0,64.0
814,226.91227308750004,227.63370093750004,62.0,55.0
815,227.76941508750002,228.13191472500003,58.0,63.0
816,227.34084408750002,228.23905747500004,65.0,75.0
817,226.05513108750003,228.32477167500002,53.0,53.0
818,225.62656008750002,228.41048587500003,46.0,96.0
819,228.62655708750003,228.98905672500004,65.0,58.0
820,228.19798608750003,229.02119955000003,62.0,76.0
821,229.05512808750004,230.19441266250004,39.0,75.0
822,229.48369908750004,230.26941258750003,51.0,79.0
823,229.91227008750002,230.36226963750002,63.0,92.0
824,230.34084108750002,230.76941208750003,55.0,53.0
825,230.76941208750003,231.66583976250004,54.0,58.0
826,230.76941208750003,231.82298246250002,42.0,53.0
827,230.76941208750003,232.48369608750002,60.0,66.0
828,230.76941208750003,232.52119605000004,57.0,61.0
829,232.48369608750002,233.67298061250003,38.0,71.0
830,232.91226708750003,233.70333772500004,45.0,58.0
831,233.34083808750003,233.90333752500004,50.0,53.0
832,233.76940908750004,234.21048007500002,53.0,61.0
833,233.34083808750003,234.34619422500003,62.0,64.0
834,234.62655108750002,235.16405055000004,50.0,58.0
835,234.19798008750004,235.23012191250004,43.0,78.0
836,235.05512208750002,235.84797843750002,62.0,74.0
837,235.05512208750002,235.94083548750004,59.0,65.0
838,235.48369308750003,236.29976370000003,55.0,72.0
839,236.34083508750004,237.24440561250003,43.0,52.0
840,235.91226408750003,237.28547700000004,36.0,89.0
841,236.76940608750004,237.30869126250002,48.0,63.0
842,236.76940608750004,237.59976240000003,60.0,85.0
843,237.19797708750002,237.60333382500002,55.0,82.0
844,236.76940608750004,237.60690525000004,63.0,95.0
845,237.62119095000003,238.43011871250002,53.0,70.0
846,237.62297666250004,238.43726156250003,57.0,70.0
847,237.62297666250004,238.44083298750004,60.0,71.0
848,237.61940523750002,238.60154711250004,41.0,63.0
849,238.50333292500002,238.76047552500003,53.0,58.0
850,238.50511863750003,238.76583266250003,57.0,66.0
851,238.49797578750002,238.79618977500004,60.0,70.0
852,239.32118925000003,239.96761717500004,63.0,68.0
853,239.31583211250003,240.69618787500002,58.0,57.0
854,239.31940353750002,240.75868781250003,65.0,60.0
855,240.17475982500002,240.86761627500002,63.0,68.0
856,239.33011781250002,240.91583051250004,46.0,51.0
857,241.06225893750002,242.03904367500004,62.0,52.0
858,241.03904467500004,242.06225793750002,65.0,60.0
859,241.04261610000003,242.10690075000002,58.0,40.0
860,241.04083038750002,242.13725786250004,46.0,36.0
861,243.05689980000002,247.77475222500004,46.0,32.0
862,243.02118555000004,247.77832365000003,58.0,71.0
863,243.08189977500004,247.78725221250002,34.0,32.0
864,242.93725706250004,247.79618077500004,53.0,43.0
865,243.11047117500004,247.79796648750002,62.0,63.0
866,243.18725681250004,247.80153791250004,65.0,68.0
