,start,end,pitch,velocity
0,2.6342124791666666,2.71515196875,60.0,56.0
1,2.6342124791666666,2.72398173125,64.0,56.0
2,2.6342124791666666,2.74164125625,57.0,58.0
3,2.2810219791666664,2.879974202083333,45.0,82.0
4,2.810807729166666,2.9094067437499995,57.0,65.0
5,2.810807729166666,2.915293252083333,60.0,68.0
6,2.810807729166666,2.928537895833333,64.0,68.0
7,3.3405934791666665,3.43919249375,60.0,78.0
8,3.3405934791666665,3.458323645833333,64.0,73.0
9,2.9874029791666663,3.4789264249999996,43.0,77.0
10,4.046974479166666,4.1588181375,66.0,52.0
11,4.046974479166666,4.16323301875,62.0,58.0
12,3.6937839791666662,4.266246914583333,50.0,63.0
13,4.046974479166666,4.353072912499999,57.0,56.0
14,4.223569729166666,4.401636606249999,62.0,74.0
15,4.223569729166666,4.406051487499999,66.0,74.0
16,4.400164979166666,4.791617783333333,50.0,63.0
17,4.753355479166666,4.975571168749999,66.0,72.0
18,4.753355479166666,4.996173947916666,62.0,81.0
19,5.106545979166666,5.7452321333333325,41.0,65.0
20,5.636331729166666,5.7570051499999995,53.0,64.0
21,5.459736479166666,5.789380945833333,57.0,75.0
22,5.459736479166666,5.8335297583333325,60.0,78.0
23,5.812926979166666,6.39716293125,43.0,67.0
24,6.166117479166666,6.458971268749999,55.0,74.0
25,6.342712729166666,6.50312008125,57.0,63.0
26,6.872498479166666,7.283082435416666,52.0,63.0
27,7.049093729166666,7.359607043749999,57.0,63.0
28,6.5193079791666655,7.755474729166666,45.0,72.0
29,7.402284229166666,7.840829099999999,52.0,74.0
30,7.755474729166666,7.949729504166665,57.0,78.0
31,7.225688979166666,7.9747471645833325,64.0,92.0
32,7.578879479166666,7.992406689583333,60.0,82.0
33,8.285260479166666,8.592830539583332,57.0,78.0
34,8.461855729166667,8.607546810416666,60.0,63.0
35,8.815046229166665,8.985754970833332,52.0,47.0
36,7.932069979166665,9.038733545833333,45.0,72.0
37,8.991641479166665,9.280080387499998,60.0,86.0
38,8.638450979166665,9.309512929166665,64.0,89.0
39,9.168236729166665,9.344831979166665,57.0,68.0
40,9.698022479166665,10.121851079166666,50.0,53.0
41,9.874617729166665,10.127737587499999,59.0,66.0
42,10.227808229166666,10.349953277083332,50.0,63.0
43,9.344831979166665,10.402931852083332,43.0,68.0
44,10.404403479166666,10.625147541666665,59.0,70.0
45,10.051212979166666,10.660466591666665,62.0,92.0
46,10.580998729166666,10.787026520833333,55.0,73.0
47,11.110784479166666,11.484577758333332,47.0,58.0
48,10.757593979166666,11.773016666666665,40.0,63.0
49,11.287379729166666,11.775959920833332,52.0,68.0
50,11.640570229166665,11.790676191666666,47.0,55.0
51,11.817165479166665,12.096774624999998,55.0,81.0
52,11.993760729166665,12.111490895833333,52.0,67.0
53,11.463974979166665,12.127678793749999,59.0,83.0
54,12.523546479166665,12.923829045833331,52.0,65.0
55,12.700141729166665,12.978279247916666,57.0,69.0
56,13.053332229166665,13.390334831249998,52.0,64.0
57,12.170355979166665,13.458029677083331,45.0,63.0
58,13.229927479166665,13.491877099999998,60.0,68.0
59,12.876736979166665,13.506593370833333,64.0,82.0
60,13.406522729166666,13.533082658333331,57.0,74.0
61,13.936308479166666,14.004003324999998,64.0,74.0
62,13.936308479166666,14.005474952083333,57.0,78.0
63,13.936308479166666,14.005474952083333,60.0,86.0
64,14.112903729166666,14.190899964583332,60.0,83.0
65,14.112903729166666,14.202672981249998,57.0,76.0
66,14.112903729166666,14.211502743749998,64.0,79.0
67,13.583117979166666,14.282140843749998,45.0,81.0
68,14.642689479166664,14.730987104166665,64.0,88.0
69,14.642689479166664,14.730987104166665,72.0,86.0
70,14.642689479166664,14.745703374999998,69.0,95.0
71,14.289498979166664,14.928185133333331,52.0,67.0
72,15.349070479166665,15.430009968749998,60.0,86.0
73,15.349070479166665,15.434424849999997,57.0,79.0
74,15.349070479166665,15.434424849999997,64.0,83.0
75,15.525665729166665,15.613963354166664,60.0,85.0
76,15.525665729166665,15.619849862499999,64.0,79.0
77,15.525665729166665,15.621321489583332,57.0,72.0
78,14.995879979166665,15.743466537499998,45.0,61.0
79,15.702260979166665,16.052508224999997,52.0,68.0
80,16.055451479166663,16.1496356125,60.0,90.0
81,16.055451479166663,16.155522120833332,57.0,90.0
82,16.055451479166663,16.158465375,64.0,85.0
83,16.761832479166664,16.816282681249998,60.0,81.0
84,16.761832479166664,16.825112443749997,65.0,77.0
85,16.761832479166664,16.83099895208333,57.0,72.0
86,16.408641979166664,17.013480710416665,41.0,71.0
87,16.938427729166666,17.028196981249998,57.0,73.0
88,16.938427729166666,17.032611862499998,60.0,79.0
89,16.938427729166666,17.044384879166664,65.0,78.0
90,17.115022979166664,17.521192054166665,48.0,72.0
91,17.468213479166664,17.557982731249997,57.0,88.0
92,17.468213479166664,17.557982731249997,60.0,89.0
93,17.468213479166664,17.56681249375,65.0,86.0
94,18.174594479166664,18.24376095208333,64.0,72.0
95,18.174594479166664,18.245232579166665,60.0,85.0
96,18.174594479166664,18.249647460416664,57.0,86.0
97,18.351189729166663,18.430657591666666,57.0,63.0
98,18.351189729166663,18.438015727083332,60.0,71.0
99,18.351189729166663,18.446845489583332,64.0,69.0
100,17.821403979166664,18.580763554166666,45.0,76.0
101,18.880975479166665,19.03843957708333,69.0,81.0
102,18.880975479166665,19.044326085416664,72.0,77.0
103,18.880975479166665,19.050212593749997,64.0,82.0
104,18.527784979166665,19.248882249999998,52.0,71.0
105,19.587356479166665,19.67859735833333,60.0,92.0
106,19.587356479166665,19.685955493749997,64.0,78.0
107,19.587356479166665,19.693313629166664,57.0,77.0
108,19.763951729166664,19.853720981249996,57.0,66.0
109,19.763951729166664,19.861079116666666,60.0,78.0
110,19.763951729166664,19.8757953875,64.0,74.0
111,19.234165979166665,19.922887454166663,45.0,75.0
112,20.293737479166666,20.37909185,57.0,83.0
113,20.293737479166666,20.38497835833333,60.0,89.0
114,20.293737479166666,20.401166256249997,64.0,78.0
115,19.940546979166665,20.583648014583332,52.0,67.0
116,21.000118479166666,21.063398443749996,57.0,77.0
117,21.000118479166666,21.07222820625,64.0,76.0
118,21.000118479166666,21.0766430875,60.0,89.0
119,21.176713729166664,21.25470996458333,57.0,76.0
120,21.176713729166664,21.257653218749997,60.0,88.0
121,21.176713729166664,21.260596472916664,64.0,78.0
122,20.646927979166666,21.36802525,45.0,75.0
123,21.353308979166663,21.73446039375,52.0,63.0
124,21.706499479166663,21.822758018749997,57.0,88.0
125,21.706499479166663,21.822758018749997,60.0,92.0
126,21.706499479166663,21.834531035416664,64.0,82.0
127,22.412880479166663,22.448199529166665,65.0,52.0
128,22.412880479166663,22.479103697916663,60.0,83.0
129,22.412880479166663,22.487933460416663,57.0,78.0
130,22.059689979166663,22.643925931249996,41.0,83.0
131,22.589475729166665,22.668943591666665,65.0,78.0
132,22.589475729166665,22.679244981249997,57.0,66.0
133,22.589475729166665,22.683659862499997,60.0,83.0
134,23.119261479166664,23.181069816666664,66.0,75.0
135,23.119261479166664,23.21491723958333,60.0,92.0
136,23.119261479166664,23.216388866666662,65.0,75.0
137,23.119261479166664,23.21786049375,57.0,85.0
138,22.766070979166663,23.39151248958333,48.0,67.0
139,23.825642479166664,23.883035935416665,64.0,81.0
140,23.825642479166664,23.89039407083333,60.0,83.0
141,23.825642479166664,23.896280579166664,57.0,81.0
142,24.002237729166662,24.09347860833333,57.0,79.0
143,24.002237729166662,24.09789348958333,60.0,89.0
144,24.002237729166662,24.112609760416664,64.0,81.0
145,23.472451979166664,24.19060599583333,45.0,67.0
146,24.532023479166664,24.61443459583333,60.0,96.0
147,24.532023479166664,24.62326435833333,64.0,89.0
148,24.532023479166664,24.626207612499996,57.0,93.0
149,24.178832979166664,24.749824287499997,52.0,78.0
150,25.238404479166665,25.31640071458333,57.0,77.0
151,25.238404479166665,25.326702104166664,60.0,88.0
152,25.238404479166665,25.32964535833333,64.0,85.0
153,25.414999729166663,25.494467591666663,57.0,73.0
154,24.885213979166664,25.498882472916662,45.0,83.0
155,25.414999729166663,25.50182572708333,60.0,85.0
156,25.414999729166663,25.512127116666665,64.0,74.0
157,25.591594979166665,25.940370597916665,52.0,66.0
158,25.944785479166665,26.038969612499997,57.0,90.0
159,25.944785479166665,26.047799374999997,60.0,96.0
160,25.944785479166665,26.056629137499996,64.0,92.0
161,26.651166479166665,26.73357759583333,57.0,86.0
162,26.651166479166665,26.736520849999998,66.0,90.0
163,26.651166479166665,26.743878985416664,62.0,96.0
164,26.297975979166665,26.83953474583333,38.0,67.0
165,26.827761729166664,26.908701218749997,45.0,20.0
166,26.827761729166664,26.926360743749996,66.0,90.0
167,26.827761729166664,26.941077014583332,57.0,70.0
168,26.827761729166664,26.951378404166665,62.0,93.0
169,27.357547479166662,27.439958595833332,66.0,92.0
170,27.357547479166662,27.460561374999997,57.0,92.0
171,27.357547479166662,27.472334391666664,62.0,102.0
172,27.004356979166662,27.635684997916663,50.0,69.0
173,28.063928479166663,28.14192471458333,57.0,89.0
174,28.063928479166663,28.14633959583333,60.0,86.0
175,28.063928479166663,28.15075447708333,53.0,81.0
176,28.240523729166664,28.31851996458333,60.0,83.0
177,28.240523729166664,28.325878099999997,57.0,92.0
178,28.240523729166664,28.33176460833333,53.0,88.0
179,27.710737979166662,28.392101318749997,41.0,68.0
180,28.770309479166663,28.854192222916662,53.0,88.0
181,28.770309479166663,28.86155035833333,57.0,95.0
182,28.770309479166663,28.86155035833333,60.0,90.0
183,28.417118979166663,28.911585679166663,48.0,66.0
184,29.476690479166663,29.529669054166664,68.0,82.0
185,29.476690479166663,29.55027183333333,62.0,90.0
186,29.476690479166663,29.55468671458333,64.0,82.0
187,29.476690479166663,29.55910159583333,59.0,81.0
188,29.65328572916666,29.7298103375,68.0,89.0
189,29.123499979166663,29.73569684583333,40.0,72.0
190,29.65328572916666,29.751884743749997,62.0,86.0
191,29.65328572916666,29.75777125208333,64.0,90.0
192,29.65328572916666,29.76218613333333,59.0,73.0
193,30.183071479166664,30.26548259583333,68.0,90.0
194,30.183071479166664,30.280198866666662,59.0,86.0
195,30.183071479166664,30.280198866666662,62.0,95.0
196,30.183071479166664,30.280198866666662,64.0,93.0
197,29.829880979166663,30.45090760833333,52.0,69.0
198,30.889452479166664,30.96303383333333,64.0,82.0
199,30.889452479166664,30.970391968749997,57.0,83.0
200,30.889452479166664,30.970391968749997,60.0,90.0
201,31.066047729166662,31.15287372708333,60.0,89.0
202,31.066047729166662,31.157288608333328,64.0,83.0
203,31.066047729166662,31.16611837083333,57.0,77.0
204,30.536261979166664,31.23234158958333,45.0,70.0
205,31.242642979166664,31.65322693541666,52.0,67.0
206,31.595833479166664,31.69590412083333,60.0,97.0
207,31.595833479166664,31.70473388333333,57.0,95.0
208,31.595833479166664,31.70914876458333,64.0,93.0
209,32.302214479166665,32.378739087499994,66.0,90.0
210,32.302214479166665,32.383153968749994,57.0,82.0
211,32.302214479166665,32.39345535833333,62.0,97.0
212,32.47880972916666,32.58623850625,66.0,93.0
213,32.47880972916666,32.593596641666664,62.0,93.0
214,32.47880972916666,32.602426404166664,57.0,76.0
215,31.949023979166665,32.62744406458333,38.0,69.0
216,33.008595479166665,33.08217683333333,66.0,93.0
217,33.008595479166665,33.09983635833333,62.0,102.0
218,33.008595479166665,33.11160937499999,57.0,93.0
219,32.65540497916666,33.22345303333333,50.0,66.0
220,33.714976479166666,33.79297271458333,59.0,79.0
221,33.714976479166666,33.79444434166666,56.0,90.0
222,33.714976479166666,33.795915968749995,52.0,79.0
223,33.891571729166664,33.99164237083333,56.0,83.0
224,33.891571729166664,34.01224515,59.0,82.0
225,33.891571729166664,34.015188404166665,52.0,74.0
226,33.36178597916666,34.02548979375,40.0,71.0
227,34.421357479166666,34.52289974791666,52.0,90.0
228,34.421357479166666,34.52289974791666,56.0,95.0
229,34.421357479166666,34.54055927291666,59.0,92.0
230,34.06816697916666,34.63327177916666,47.0,67.0
231,35.12773847916666,35.19837657916666,64.0,86.0
232,35.12773847916666,35.204263087499996,60.0,95.0
233,35.12773847916666,35.21162122291666,57.0,95.0
234,35.304333729166665,35.39557460833333,60.0,88.0
235,35.304333729166665,35.40734762499999,57.0,76.0
236,35.304333729166665,35.40734762499999,64.0,78.0
237,34.77454797916666,35.463269454166664,45.0,64.0
238,35.83411947916666,35.923888731249995,60.0,97.0
239,35.83411947916666,35.92683198541666,57.0,95.0
240,35.83411947916666,35.932718493749995,64.0,90.0
241,35.48092897916666,36.08135282916666,52.0,67.0
242,36.18730997916666,36.475748887499996,45.0,93.0
243,36.54050047916666,36.60966695208333,64.0,85.0
244,36.54050047916666,36.61849671458333,60.0,93.0
245,36.54050047916666,36.621439968749996,57.0,92.0
246,36.717095729166665,36.80392172708333,60.0,89.0
247,36.717095729166665,36.811279862499994,57.0,75.0
248,36.717095729166665,36.81275148958333,64.0,81.0
249,36.36390522916666,36.82305287916666,52.0,78.0
250,37.24688147916666,37.32046283333333,60.0,92.0
251,37.24688147916666,37.321934460416664,64.0,78.0
252,37.24688147916666,37.332235849999996,57.0,88.0
253,36.893690979166664,37.482341812499996,45.0,82.0
254,37.423476729166666,37.522075743749994,60.0,77.0
255,37.423476729166666,37.52796225208333,57.0,72.0
256,37.423476729166666,37.53237713333333,64.0,76.0
257,37.95326247916666,38.019485697916664,60.0,86.0
258,37.95326247916666,38.028315460416664,57.0,76.0
259,37.95326247916666,38.0297870875,64.0,79.0
260,38.12985772916666,38.22698511666666,60.0,88.0
261,38.12985772916666,38.228456743749994,64.0,76.0
262,38.12985772916666,38.232871624999994,57.0,74.0
263,37.600071979166664,38.334413893749996,52.0,59.0
264,38.306452979166664,38.697905783333326,45.0,79.0
265,38.65964347916666,38.73322483333333,57.0,86.0
266,38.65964347916666,38.75529923958333,60.0,95.0
267,38.65964347916666,38.77001551041666,64.0,92.0
268,38.48304822916666,38.87450103333333,52.0,69.0
269,38.83623872916666,38.97310004791666,60.0,75.0
270,38.83623872916666,38.989287945833325,57.0,73.0
271,38.83623872916666,39.0010609625,64.0,71.0
272,39.012833979166665,39.2836133625,43.0,99.0
273,39.36602447916666,39.43813420625,62.0,81.0
274,39.36602447916666,39.445492341666665,55.0,61.0
275,39.36602447916666,39.445492341666665,59.0,82.0
276,39.54261972916666,39.632388981249996,59.0,93.0
277,39.54261972916666,39.641218743749995,55.0,83.0
278,39.54261972916666,39.641218743749995,62.0,93.0
279,39.18942922916666,39.68831081041666,50.0,86.0
280,40.07240547916666,40.15923147708333,59.0,90.0
281,40.07240547916666,40.173947747916664,55.0,89.0
282,39.719214979166665,40.175419375,43.0,82.0
283,40.07240547916666,40.175419375,62.0,85.0
284,40.602191229166664,40.86561247708333,55.0,88.0
285,40.77878647916666,40.875913866666664,60.0,93.0
286,40.77878647916666,40.875913866666664,64.0,88.0
287,40.425595979166665,41.05250911666666,48.0,74.0
288,40.95538172916666,41.080470031249995,60.0,93.0
289,40.95538172916666,41.09960118333333,55.0,95.0
290,40.95538172916666,41.10695931874999,64.0,86.0
291,41.13197697916666,41.563163714583325,48.0,85.0
292,41.48516747916666,41.59259625625,55.0,93.0
293,41.48516747916666,41.59259625625,60.0,100.0
294,41.48516747916666,41.619085543749996,64.0,92.0
295,41.83835797916666,42.16358756458333,45.0,82.0
296,42.19154847916666,42.26807308749999,57.0,92.0
297,42.19154847916666,42.27101634166666,60.0,93.0
298,42.19154847916666,42.28131773124999,64.0,92.0
299,42.36814372916666,42.479987387499996,60.0,75.0
300,42.36814372916666,42.488817149999996,64.0,76.0
301,42.36814372916666,42.49617528541666,57.0,63.0
302,42.014953229166665,42.51236318333333,52.0,35.0
303,42.54473897916666,42.830234633333326,45.0,83.0
304,42.721334229166665,42.94207829166666,52.0,100.0
305,42.89792947916666,42.97003920624999,60.0,96.0
306,42.89792947916666,42.971510833333326,64.0,95.0
307,42.89792947916666,42.97739734166666,57.0,81.0
308,43.07452472916666,43.18048187916666,57.0,62.0
309,43.07452472916666,43.18048187916666,60.0,81.0
310,43.07452472916666,43.18784001458333,64.0,78.0
311,43.604310479166664,43.67494857916666,62.0,96.0
312,43.604310479166664,43.67642020624999,66.0,95.0
313,43.604310479166664,43.68524996874999,57.0,76.0
314,43.25111997916666,43.86773172708333,38.0,88.0
315,43.78090572916666,43.88539125208333,45.0,23.0
316,43.78090572916666,43.88833450625,57.0,75.0
317,43.78090572916666,43.8927493875,66.0,93.0
318,43.78090572916666,43.89716426875,62.0,93.0
319,44.13409622916666,44.26801429374999,57.0,85.0
320,44.13409622916666,44.29156032708333,66.0,89.0
321,44.13409622916666,44.301861716666664,62.0,92.0
322,43.95750097916666,44.55939645624999,50.0,85.0
323,44.48728672916666,44.58294248958333,66.0,93.0
324,44.48728672916666,44.59471550625,62.0,97.0
325,44.48728672916666,44.616789912499996,57.0,92.0
326,45.017072479166664,45.07888081666666,59.0,78.0
327,45.017072479166664,45.08182407083333,56.0,90.0
328,45.017072479166664,45.09212546041666,52.0,74.0
329,44.66388197916666,45.27460721874999,40.0,82.0
330,45.19366772916666,45.280493727083325,56.0,82.0
331,45.19366772916666,45.28638023541666,59.0,77.0
332,45.19366772916666,45.29226674375,52.0,68.0
333,45.37026297916666,45.81469435833333,47.0,69.0
334,45.723453479166665,45.82058086666666,56.0,93.0
335,45.723453479166665,45.82205249374999,52.0,78.0
336,45.723453479166665,45.864729679166665,59.0,92.0
337,46.25323922916666,46.432777733333324,60.0,83.0
338,46.25323922916666,46.443079122916664,57.0,79.0
339,46.25323922916666,46.45926702083333,64.0,82.0
340,46.60642972916666,46.74770592916666,60.0,83.0
341,46.07664397916666,46.76978033541666,45.0,72.0
342,46.60642972916666,46.77272358958333,57.0,85.0
343,46.60642972916666,46.78155335208333,64.0,74.0
344,47.13621547916666,47.24217262916666,60.0,95.0
345,47.13621547916666,47.24658751041666,57.0,93.0
346,47.13621547916666,47.271605170833325,64.0,88.0
347,46.78302497916666,47.45703018333333,52.0,90.0
348,47.84259647916666,47.919121087499995,60.0,82.0
349,47.84259647916666,47.92206434166666,64.0,82.0
350,47.84259647916666,47.932365731249995,57.0,82.0
351,48.019191729166664,48.10013121874999,60.0,86.0
352,48.019191729166664,48.11190423541666,64.0,79.0
353,48.019191729166664,48.11631911666666,57.0,74.0
354,47.48940597916666,48.16782606458333,45.0,73.0
355,48.19578697916666,48.61814395208333,52.0,67.0
356,48.54897747916666,48.63580347708333,60.0,99.0
357,48.54897747916666,48.651991374999994,57.0,96.0
358,48.54897747916666,48.65493462916666,64.0,89.0
359,49.25535847916666,49.31569518958333,66.0,90.0
360,49.25535847916666,49.32893983333333,57.0,85.0
361,49.25535847916666,49.33776959583333,62.0,99.0
362,48.90216797916666,49.42459559374999,38.0,82.0
363,49.25535847916666,49.43195372916666,45.0,27.0
364,49.43195372916666,49.52319460833333,62.0,95.0
365,49.43195372916666,49.52760948958333,66.0,95.0
366,49.43195372916666,49.53202437083333,57.0,74.0
367,49.78514422916666,49.88374324375,62.0,100.0
368,49.78514422916666,49.888158125,57.0,92.0
369,49.78514422916666,49.90728927708333,66.0,100.0
370,50.13833472916666,50.251650014583326,66.0,88.0
371,50.13833472916666,50.26636628541666,62.0,96.0
372,49.60854897916666,50.286969064583324,50.0,83.0
373,50.13833472916666,50.29285557291666,57.0,83.0
374,50.66812047916666,50.74170183333333,57.0,96.0
375,50.66812047916666,50.75053159583333,53.0,73.0
376,50.66812047916666,50.75053159583333,60.0,81.0
377,50.84471572916666,50.94920125208333,57.0,82.0
378,50.84471572916666,50.95655938749999,60.0,78.0
379,50.84471572916666,50.95803101458333,53.0,69.0
380,50.31492997916666,51.01248121666666,41.0,75.0
381,51.021310979166664,51.46427073125,48.0,70.0
382,51.37450147916666,51.46574235833333,57.0,96.0
383,51.37450147916666,51.468685612499996,53.0,89.0
384,51.37450147916666,51.477515374999996,60.0,89.0
385,52.08088247916666,52.13974756249999,68.0,74.0
386,52.08088247916666,52.160350341666664,64.0,76.0
387,52.08088247916666,52.16329359583333,59.0,78.0
388,52.08088247916666,52.16329359583333,62.0,79.0
389,52.25747772916666,52.347246981249995,68.0,92.0
390,51.72769197916666,52.35460511666666,40.0,81.0
391,52.25747772916666,52.35901999791666,64.0,92.0
392,52.25747772916666,52.36343487916666,62.0,85.0
393,52.25747772916666,52.38550928541666,59.0,73.0
394,52.78726347916666,52.88880574791666,62.0,93.0
395,52.78726347916666,52.890277375,59.0,83.0
396,52.78726347916666,52.90057876458333,64.0,93.0
397,52.43407297916666,52.91529503541666,52.0,75.0
398,52.78726347916666,52.91823828958333,68.0,92.0
399,53.49364447916666,53.56133932499999,64.0,73.0
400,53.49364447916666,53.57016908749999,60.0,86.0
401,53.49364447916666,53.57458396874999,57.0,85.0
402,53.67023972916666,53.75706572708333,57.0,63.0
403,53.67023972916666,53.760008981249996,60.0,71.0
404,53.67023972916666,53.764423862499996,64.0,72.0
405,53.14045397916666,53.77178199791666,45.0,86.0
406,54.023430229166664,54.17206456458333,60.0,93.0
407,54.023430229166664,54.18089432708333,57.0,86.0
408,54.023430229166664,54.18678083541666,64.0,88.0
409,53.84683497916666,54.19413897083333,52.0,85.0
410,54.37662072916666,54.53997133541666,57.0,86.0
411,54.37662072916666,54.55763086041666,64.0,76.0
412,54.37662072916666,54.560574114583325,60.0,86.0
413,54.90640647916666,54.98587434166666,57.0,82.0
414,54.90640647916666,54.988817595833325,66.0,83.0
415,54.90640647916666,55.00353386666666,62.0,95.0
416,54.55321597916666,55.125678914583325,38.0,81.0
417,55.08300172916666,55.19337376041666,66.0,83.0
418,55.08300172916666,55.194845387499996,57.0,73.0
419,55.08300172916666,55.19778864166666,62.0,86.0
420,55.61278747916666,55.71432974791666,57.0,86.0
421,55.61278747916666,55.726102764583324,62.0,95.0
422,55.61278747916666,55.730517645833324,66.0,85.0
423,55.25959697916666,55.85266269374999,50.0,82.0
424,56.31916847916666,56.388334952083326,62.0,81.0
425,56.31916847916666,56.388334952083326,68.0,81.0
426,56.31916847916666,56.39127820624999,59.0,73.0
427,56.31916847916666,56.39863634166666,64.0,85.0
428,56.49576372916666,56.56787345624999,68.0,89.0
429,56.49576372916666,56.57670321874999,62.0,83.0
430,55.96597797916666,56.58111809999999,40.0,76.0
431,56.49576372916666,56.58847623541666,64.0,88.0
432,56.49576372916666,56.60024925208333,59.0,73.0
433,57.02554947916666,57.116790358333326,68.0,86.0
434,57.02554947916666,57.12267686666666,62.0,83.0
435,57.02554947916666,57.13150662916666,64.0,89.0
436,57.02554947916666,57.14622289999999,59.0,75.0
437,56.67235897916666,57.25070842291666,52.0,66.0
438,57.73193047916666,57.80698346041666,60.0,90.0
439,57.73193047916666,57.81139834166666,57.0,85.0
440,57.73193047916666,57.81139834166666,64.0,82.0
441,57.90852572916666,58.01448287916666,60.0,83.0
442,57.90852572916666,58.01889776041666,64.0,75.0
443,57.37873997916666,58.02625589583333,45.0,76.0
444,57.90852572916666,58.03214240416666,57.0,72.0
445,58.26171622916666,58.401520802083326,60.0,93.0
446,58.26171622916666,58.40740731041666,64.0,86.0
447,58.26171622916666,58.41329381874999,57.0,88.0
448,58.08512097916666,58.68260157499999,52.0,81.0
449,58.61490672916666,58.73263689583332,60.0,93.0
450,58.61490672916666,58.738523404166656,57.0,95.0
451,58.61490672916666,58.757654556249996,64.0,90.0
452,58.79150197916666,59.079940887499994,45.0,93.0
453,59.14469247916666,59.21385895208333,64.0,85.0
454,59.14469247916666,59.22268871458333,60.0,93.0
455,59.14469247916666,59.225631968749994,57.0,92.0
456,59.32128772916666,59.408113727083325,60.0,89.0
457,59.32128772916666,59.41547186249999,57.0,75.0
458,59.32128772916666,59.416943489583325,64.0,81.0
459,58.96809722916666,59.42724487916666,52.0,78.0
460,59.85107347916666,59.92465483333333,60.0,92.0
461,59.85107347916666,59.92612646041666,64.0,78.0
462,59.85107347916666,59.936427849999994,57.0,88.0
463,59.49788297916666,60.086533812499994,45.0,82.0
464,60.02766872916666,60.12626774374999,60.0,77.0
465,60.02766872916666,60.132154252083325,57.0,72.0
466,60.02766872916666,60.136569133333325,64.0,76.0
467,60.55745447916666,60.62367769791666,60.0,86.0
468,60.55745447916666,60.63250746041666,57.0,76.0
469,60.55745447916666,60.633979087499995,64.0,79.0
470,60.73404972916666,60.83117711666666,60.0,88.0
471,60.73404972916666,60.83264874374999,64.0,76.0
472,60.73404972916666,60.83706362499999,57.0,74.0
473,60.20426397916666,60.938605893749994,52.0,59.0
474,60.91064497916666,61.30209778333332,45.0,79.0
475,61.26383547916666,61.33741683333333,57.0,86.0
476,61.26383547916666,61.35949123958333,60.0,95.0
477,61.26383547916666,61.37420751041666,64.0,92.0
478,61.08724022916666,61.47869303333333,52.0,69.0
479,61.44043072916666,61.57729204791666,60.0,75.0
480,61.44043072916666,61.59347994583332,57.0,73.0
481,61.44043072916666,61.605252962499996,64.0,71.0
482,61.61702597916666,61.887805362499996,43.0,99.0
483,61.97021647916666,62.042326206249996,62.0,81.0
484,61.97021647916666,62.04968434166666,55.0,61.0
485,61.97021647916666,62.04968434166666,59.0,82.0
486,62.14681172916666,62.23658098124999,59.0,93.0
487,62.14681172916666,62.24541074374999,55.0,83.0
488,62.14681172916666,62.24541074374999,62.0,93.0
489,61.79362122916666,62.29250281041666,50.0,86.0
490,62.67659747916666,62.76342347708333,59.0,90.0
491,62.67659747916666,62.77813974791666,55.0,89.0
492,62.32340697916666,62.779611374999995,43.0,82.0
493,62.67659747916666,62.779611374999995,62.0,85.0
494,63.20638322916666,63.46980447708333,55.0,88.0
495,63.38297847916666,63.48010586666666,60.0,93.0
496,63.38297847916666,63.48010586666666,64.0,88.0
497,63.029787979166656,63.65670111666666,48.0,74.0
498,63.55957372916666,63.68466203124999,60.0,93.0
499,63.55957372916666,63.703793183333325,55.0,95.0
500,63.55957372916666,63.71115131874999,64.0,86.0
501,63.736168979166656,64.16735571458332,48.0,85.0
502,64.08935947916666,64.19678825624999,55.0,93.0
503,64.08935947916666,64.19678825624999,60.0,100.0
504,64.08935947916666,64.22327754374999,64.0,92.0
505,64.44254997916666,64.76777956458332,45.0,82.0
506,64.79574047916665,64.8722650875,57.0,92.0
507,64.79574047916665,64.87520834166666,60.0,93.0
508,64.79574047916665,64.88550973125,64.0,92.0
509,64.97233572916666,65.08417938749999,60.0,75.0
510,64.97233572916666,65.09300914999999,64.0,76.0
511,64.97233572916666,65.10036728541665,57.0,63.0
512,64.61914522916666,65.11655518333333,52.0,35.0
513,65.14893097916666,65.43442663333333,45.0,83.0
514,65.32552622916666,65.54627029166666,52.0,100.0
515,65.50212147916666,65.57423120624999,60.0,96.0
516,65.50212147916666,65.57570283333332,64.0,95.0
517,65.50212147916666,65.58158934166666,57.0,81.0
518,65.67871672916665,65.78467387916666,57.0,62.0
519,65.67871672916665,65.78467387916666,60.0,81.0
520,65.67871672916665,65.79203201458333,64.0,78.0
521,66.20850247916665,66.27914057916666,62.0,96.0
522,66.20850247916665,66.28061220625,66.0,95.0
523,66.20850247916665,66.28944196875,57.0,76.0
524,65.85531197916666,66.47192372708332,38.0,88.0
525,66.38509772916666,66.48958325208332,45.0,23.0
526,66.38509772916666,66.49252650624999,57.0,75.0
527,66.38509772916666,66.49694138749999,66.0,93.0
528,66.38509772916666,66.50135626874999,62.0,93.0
529,66.73828822916666,66.87220629375,57.0,85.0
530,66.73828822916666,66.89575232708333,66.0,89.0
531,66.73828822916666,66.90605371666666,62.0,92.0
532,66.56169297916666,67.16358845625,50.0,85.0
533,67.09147872916665,67.18713448958333,66.0,93.0
534,67.09147872916665,67.19890750625,62.0,97.0
535,67.09147872916665,67.2209819125,57.0,92.0
536,67.62126447916665,67.68307281666667,59.0,78.0
537,67.62126447916665,67.68601607083333,56.0,90.0
538,67.62126447916665,67.69631746041667,52.0,74.0
539,67.26807397916666,67.87879921874999,40.0,82.0
540,67.79785972916666,67.88468572708332,56.0,82.0
541,67.79785972916666,67.89057223541666,59.0,77.0
542,67.79785972916666,67.89645874374999,52.0,68.0
543,67.97445497916667,68.41888635833332,47.0,69.0
544,68.32764547916666,68.42477286666666,56.0,93.0
545,68.32764547916666,68.42624449374999,52.0,78.0
546,68.32764547916666,68.46892167916666,59.0,92.0
547,68.85743122916666,69.03696973333332,60.0,83.0
548,68.85743122916666,69.04727112291665,57.0,79.0
549,68.85743122916666,69.06345902083332,64.0,82.0
550,69.21062172916666,69.35189792916665,60.0,83.0
551,68.68083597916666,69.37397233541665,45.0,72.0
552,69.21062172916666,69.37691558958332,57.0,85.0
553,69.21062172916666,69.38574535208332,64.0,74.0
554,69.74040747916666,69.84636462916666,60.0,95.0
555,69.74040747916666,69.85077951041666,57.0,93.0
556,69.74040747916666,69.87579717083332,64.0,88.0
557,69.38721697916665,70.06122218333333,52.0,90.0
558,70.44678847916666,70.51448332499999,64.0,74.0
559,70.44678847916666,70.51595495208332,57.0,78.0
560,70.44678847916666,70.51595495208332,60.0,86.0
561,70.62338372916666,70.70137996458332,60.0,83.0
562,70.62338372916666,70.71315298124999,57.0,76.0
563,70.62338372916666,70.72198274374999,64.0,79.0
564,70.09359797916666,70.79262084374999,45.0,81.0
565,71.15316947916666,71.24146710416666,64.0,88.0
566,71.15316947916666,71.24146710416666,72.0,86.0
567,71.15316947916666,71.25618337499999,69.0,95.0
568,70.79997897916665,71.43866513333333,52.0,67.0
569,71.85955047916666,71.94048996874999,60.0,86.0
570,71.85955047916666,71.94490484999999,57.0,79.0
571,71.85955047916666,71.94490484999999,64.0,83.0
572,72.03614572916666,72.12444335416666,60.0,85.0
573,72.03614572916666,72.13032986249999,64.0,79.0
574,72.03614572916666,72.13180148958332,57.0,72.0
575,71.50635997916666,72.25394653749998,45.0,61.0
576,72.21274097916665,72.562988225,52.0,68.0
577,72.56593147916666,72.6601156125,60.0,90.0
578,72.56593147916666,72.66600212083333,57.0,90.0
579,72.56593147916666,72.66894537499999,64.0,85.0
580,73.27231247916666,73.32676268124999,60.0,81.0
581,73.27231247916666,73.33559244374999,65.0,77.0
582,73.27231247916666,73.34147895208332,57.0,72.0
583,72.91912197916666,73.52396071041666,41.0,71.0
584,73.44890772916666,73.53867698124999,57.0,73.0
585,73.44890772916666,73.54309186249999,60.0,79.0
586,73.44890772916666,73.55486487916666,65.0,78.0
587,73.62550297916665,74.03167205416666,48.0,72.0
588,73.97869347916665,74.06846273125,57.0,88.0
589,73.97869347916665,74.06846273125,60.0,89.0
590,73.97869347916665,74.07729249375,65.0,86.0
591,74.68507447916666,74.75424095208332,64.0,72.0
592,74.68507447916666,74.75571257916666,60.0,85.0
593,74.68507447916666,74.76012746041665,57.0,86.0
594,74.86166972916666,74.94113759166666,57.0,63.0
595,74.86166972916666,74.94849572708333,60.0,71.0
596,74.86166972916666,74.95732548958333,64.0,69.0
597,74.33188397916666,75.09124355416665,45.0,76.0
598,75.39145547916665,75.54891957708332,69.0,81.0
599,75.39145547916665,75.55480608541666,72.0,77.0
600,75.39145547916665,75.56069259374999,64.0,82.0
601,75.03826497916666,75.75936225,52.0,71.0
602,76.09783647916666,76.18907735833332,60.0,92.0
603,76.09783647916666,76.19643549374999,64.0,78.0
604,76.09783647916666,76.20379362916665,57.0,77.0
605,76.27443172916666,76.36420098125,57.0,66.0
606,76.27443172916666,76.37155911666666,60.0,78.0
607,76.27443172916666,76.38627538749999,64.0,74.0
608,75.74464597916666,76.43336745416666,45.0,75.0
609,76.80421747916665,76.88957185,57.0,83.0
610,76.80421747916665,76.89545835833333,60.0,89.0
611,76.80421747916665,76.91164625625,64.0,78.0
612,76.45102697916666,77.09412801458332,52.0,67.0
613,77.51059847916666,77.57387844374999,57.0,77.0
614,77.51059847916666,77.58270820624999,64.0,76.0
615,77.51059847916666,77.58712308749999,60.0,89.0
616,77.68719372916665,77.76518996458333,57.0,76.0
617,77.68719372916665,77.76813321875,60.0,88.0
618,77.68719372916665,77.77107647291666,64.0,78.0
619,77.15740797916666,77.87850524999999,45.0,75.0
620,77.86378897916666,78.24494039374999,52.0,63.0
621,78.21697947916665,78.33323801875,57.0,88.0
622,78.21697947916665,78.33323801875,60.0,92.0
623,78.21697947916665,78.34501103541666,64.0,82.0
624,78.92336047916666,78.95867952916666,65.0,52.0
625,78.92336047916666,78.98958369791666,60.0,83.0
626,78.92336047916666,78.99841346041666,57.0,78.0
627,78.57016997916666,79.15440593125,41.0,83.0
628,79.09995572916665,79.17942359166666,65.0,78.0
629,79.09995572916665,79.18972498125,57.0,66.0
630,79.09995572916665,79.1941398625,60.0,83.0
631,79.62974147916665,79.69154981666665,66.0,75.0
632,79.62974147916665,79.72539723958333,60.0,92.0
633,79.62974147916665,79.72686886666666,65.0,75.0
634,79.62974147916665,79.72834049375,57.0,85.0
635,79.27655097916666,79.90199248958332,48.0,67.0
636,80.33612247916666,80.39351593541666,64.0,81.0
637,80.33612247916666,80.40087407083332,60.0,83.0
638,80.33612247916666,80.40676057916666,57.0,81.0
639,80.51271772916665,80.60395860833333,57.0,79.0
640,80.51271772916665,80.60837348958333,60.0,89.0
641,80.51271772916665,80.62308976041666,64.0,81.0
642,79.98293197916665,80.70108599583332,45.0,67.0
643,81.04250347916665,81.12491459583332,60.0,96.0
644,81.04250347916665,81.13374435833333,64.0,89.0
645,81.04250347916665,81.1366876125,57.0,93.0
646,80.68931297916666,81.26030428749999,52.0,78.0
647,81.74888447916666,81.82688071458333,57.0,77.0
648,81.74888447916666,81.83718210416666,60.0,88.0
649,81.74888447916666,81.84012535833332,64.0,85.0
650,81.92547972916665,82.00494759166666,57.0,73.0
651,81.39569397916665,82.00936247291666,45.0,83.0
652,81.92547972916665,82.01230572708333,60.0,85.0
653,81.92547972916665,82.02260711666666,64.0,74.0
654,82.10207497916666,82.45085059791666,52.0,66.0
655,82.45526547916666,82.54944961249998,57.0,90.0
656,82.45526547916666,82.55827937499998,60.0,96.0
657,82.45526547916666,82.5671091375,64.0,92.0
658,83.16164647916666,83.24405759583333,57.0,86.0
659,83.16164647916666,83.24700084999999,66.0,90.0
660,83.16164647916666,83.25435898541666,62.0,96.0
661,82.80845597916665,83.35001474583332,38.0,67.0
662,83.33824172916665,83.41918121874998,45.0,20.0
663,83.33824172916665,83.43684074375,66.0,90.0
664,83.33824172916665,83.45155701458333,57.0,70.0
665,83.33824172916665,83.46185840416666,62.0,93.0
666,83.86802747916666,83.95043859583332,66.0,92.0
667,83.86802747916666,83.97104137499998,57.0,92.0
668,83.86802747916666,83.98281439166665,62.0,102.0
669,83.51483697916666,84.14616499791666,50.0,69.0
670,84.57440847916666,84.65240471458333,57.0,89.0
671,84.57440847916666,84.65681959583333,60.0,86.0
672,84.57440847916666,84.66123447708333,53.0,81.0
673,84.75100372916665,84.82899996458332,60.0,83.0
674,84.75100372916665,84.83635809999998,57.0,92.0
675,84.75100372916665,84.84224460833332,53.0,88.0
676,84.22121797916665,84.90258131875,41.0,68.0
677,85.28078947916666,85.36467222291665,53.0,88.0
678,85.28078947916666,85.37203035833332,57.0,95.0
679,85.28078947916666,85.37203035833332,60.0,90.0
680,84.92759897916666,85.42206567916665,48.0,66.0
681,85.98717047916665,86.04014905416666,68.0,82.0
682,85.98717047916665,86.06075183333333,62.0,90.0
683,85.98717047916665,86.06516671458333,64.0,82.0
684,85.98717047916665,86.06958159583333,59.0,81.0
685,86.16376572916666,86.24029033749999,68.0,89.0
686,85.63397997916665,86.24617684583332,40.0,72.0
687,86.16376572916666,86.26236474374998,62.0,86.0
688,86.16376572916666,86.26825125208332,64.0,90.0
689,86.16376572916666,86.27266613333332,59.0,73.0
690,86.69355147916666,86.77596259583332,68.0,90.0
691,86.69355147916666,86.79067886666665,59.0,86.0
692,86.69355147916666,86.79067886666665,62.0,95.0
693,86.69355147916666,86.79067886666665,64.0,93.0
694,86.34036097916666,86.96138760833333,52.0,69.0
695,87.39993247916665,87.47351383333333,64.0,82.0
696,87.39993247916665,87.48087196875,57.0,83.0
697,87.39993247916665,87.48087196875,60.0,90.0
698,87.57652772916666,87.66335372708332,60.0,89.0
699,87.57652772916666,87.66776860833332,64.0,83.0
700,87.57652772916666,87.67659837083332,57.0,77.0
701,87.04674197916665,87.74282158958333,45.0,70.0
702,87.75312297916666,88.16370693541666,52.0,67.0
703,88.10631347916666,88.20638412083332,60.0,97.0
704,88.10631347916666,88.21521388333332,57.0,95.0
705,88.10631347916666,88.21962876458332,64.0,93.0
706,88.81269447916665,88.88480420625,71.0,76.0
707,88.81269447916665,88.89804885,62.0,77.0
708,88.81269447916665,88.90246373125,67.0,92.0
709,88.45950397916666,89.02019389791666,43.0,77.0
710,88.98928972916666,89.09377525208332,62.0,62.0
711,88.98928972916666,89.09524687916665,71.0,69.0
712,88.98928972916666,89.10260501458332,67.0,73.0
713,88.98928972916666,89.10407664166665,50.0,23.0
714,89.51907547916666,89.58824195208332,71.0,69.0
715,89.51907547916666,89.63827727291665,67.0,86.0
716,89.51907547916666,89.65005028958332,62.0,78.0
717,89.16588497916666,89.76778045625,55.0,69.0
718,90.22545647916665,90.30345271458333,65.0,73.0
719,90.22545647916665,90.31522573125,58.0,93.0
720,90.22545647916665,90.31522573125,62.0,92.0
721,89.87226597916666,90.46974657499999,46.0,88.0
722,90.40205172916666,90.51242376041665,62.0,85.0
723,90.40205172916666,90.52714003124998,65.0,75.0
724,90.40205172916666,90.54185630208332,58.0,90.0
725,90.93183747916666,91.03190812083332,65.0,66.0
726,90.93183747916666,91.04515276458332,58.0,99.0
727,90.93183747916666,91.06281228958332,62.0,89.0
728,90.57864697916666,91.12020574583332,53.0,76.0
729,91.63821847916665,91.71474308749998,60.0,86.0
730,91.63821847916665,91.71768634166665,64.0,79.0
731,91.63821847916665,91.71915796874998,57.0,72.0
732,91.81481372916666,91.89722484583332,64.0,73.0
733,91.81481372916666,91.91046948958332,60.0,86.0
734,91.81481372916666,91.92077087916665,57.0,71.0
735,91.28502797916666,92.01642663958333,45.0,72.0
736,92.34459947916666,92.43878361249999,60.0,88.0
737,92.34459947916666,92.44614174791666,64.0,81.0
738,92.34459947916666,92.44761337499999,57.0,78.0
739,91.99140897916665,92.45349988333332,52.0,69.0
740,93.05098047916665,93.12603346041665,60.0,89.0
741,93.05098047916665,93.13633484999998,57.0,76.0
742,93.05098047916665,93.13633484999998,65.0,79.0
743,92.69778997916666,93.28202593124999,41.0,74.0
744,93.22757572916666,93.34677752291665,60.0,78.0
745,93.22757572916666,93.36296542083332,57.0,67.0
746,93.22757572916666,93.36296542083332,65.0,74.0
747,93.75736147916666,93.86037537499999,60.0,85.0
748,93.75736147916666,93.87803489999999,65.0,78.0
749,93.75736147916666,93.88392140833332,57.0,76.0
750,93.40417097916665,94.02666923541666,53.0,69.0
751,94.46374247916665,94.54468196874998,60.0,86.0
752,94.46374247916665,94.55056847708332,57.0,82.0
753,94.46374247916665,94.55056847708332,65.0,79.0
754,94.11055197916666,94.63150796666666,41.0,90.0
755,94.64033772916666,94.75806789583332,60.0,76.0
756,94.64033772916666,94.76689765833332,65.0,73.0
757,94.64033772916666,94.77867067499999,57.0,67.0
758,94.81693297916665,95.29226852708332,53.0,88.0
759,95.17012347916666,95.29521178124999,57.0,77.0
760,95.17012347916666,95.29668340833332,60.0,88.0
761,95.17012347916666,95.30109828958332,65.0,78.0
762,95.87650447916666,95.96921698541665,57.0,74.0
763,95.87650447916666,95.96921698541665,60.0,72.0
764,95.87650447916666,95.96921698541665,64.0,76.0
765,96.05309972916666,96.16788664166666,60.0,77.0
766,96.05309972916666,96.17230152291665,64.0,74.0
767,96.05309972916666,96.18260291249999,57.0,68.0
768,95.52331397916666,96.23999636874998,45.0,79.0
769,96.58288547916665,96.71533191666666,57.0,76.0
770,96.58288547916665,96.71680354374999,60.0,78.0
771,96.58288547916665,96.72563330624999,64.0,72.0
772,96.22969497916665,96.85219323541665,52.0,69.0
773,97.28926647916666,97.35548969791665,64.0,72.0
774,97.28926647916666,97.36431946041665,60.0,77.0
775,97.28926647916666,97.37903573124999,57.0,81.0
776,96.93607597916666,97.53649982916666,45.0,79.0
777,97.46586172916666,97.57623376041666,64.0,81.0
778,97.46586172916666,97.58064864166666,60.0,88.0
779,97.46586172916666,97.59242165833332,57.0,79.0
780,97.64245697916665,98.07364371458333,52.0,66.0
781,97.99564747916665,98.13398042499999,57.0,90.0
782,97.99564747916665,98.13692367916666,60.0,90.0
783,97.99564747916665,98.15016832291666,64.0,88.0
784,98.70202847916666,98.78443959583332,60.0,82.0
785,98.70202847916666,98.79768423958332,57.0,73.0
786,98.70202847916666,98.80504237499999,65.0,76.0
787,98.34883797916666,98.95367671041666,41.0,85.0
788,98.87862372916666,98.99635389583332,60.0,74.0
789,98.87862372916666,99.01107016666666,57.0,69.0
790,98.87862372916666,99.02284318333332,65.0,74.0
791,99.40840947916665,99.50700849374999,60.0,86.0
792,99.40840947916665,99.52466801874999,65.0,78.0
793,99.40840947916665,99.53202615416666,57.0,85.0
794,99.05521897916665,99.58647635624999,53.0,78.0
795,100.11479047916666,100.18248532499999,57.0,78.0
796,100.11479047916666,100.19278671458332,60.0,95.0
797,100.11479047916666,100.20897461249999,65.0,82.0
798,100.29138572916665,100.38556986249999,57.0,71.0
799,100.29138572916665,100.38556986249999,60.0,79.0
800,100.29138572916665,100.40322938749999,65.0,72.0
801,99.76159997916666,100.48564050416665,41.0,71.0
802,100.82117147916665,100.91977049375,57.0,77.0
803,100.82117147916665,100.92860025625,60.0,89.0
804,100.82117147916665,100.94920303541666,65.0,82.0
805,100.46798097916665,101.06987645624999,53.0,82.0
806,101.52755247916666,101.60849196874999,60.0,86.0
807,101.52755247916666,101.61143522291665,57.0,78.0
808,101.52755247916666,101.61143522291665,65.0,76.0
809,101.70414772916665,101.77625745625,65.0,61.0
810,101.70414772916665,101.79980348958333,60.0,78.0
811,101.70414772916665,101.82923603124999,57.0,74.0
812,101.17436197916666,101.83365091249999,41.0,89.0
813,102.23393347916665,102.35755015416666,59.0,79.0
814,101.88074297916666,102.36637991666666,43.0,83.0
815,102.23393347916665,102.36785154374999,55.0,77.0
816,102.23393347916665,102.37373805208333,62.0,86.0
817,102.94031447916666,103.01683908749999,64.0,83.0
818,102.94031447916666,103.01978234166666,60.0,90.0
819,102.94031447916666,103.02272559583332,57.0,88.0
820,103.11690972916665,103.21403711666666,60.0,81.0
821,103.11690972916665,103.21550874375,57.0,68.0
822,103.11690972916665,103.22139525208333,64.0,74.0
823,102.58712397916665,103.28614684374999,45.0,92.0
824,103.64669547916665,103.74235123958333,57.0,89.0
825,103.64669547916665,103.749709375,60.0,95.0
826,103.64669547916665,103.76295401875,64.0,89.0
827,103.29350497916666,103.77767028958333,52.0,86.0
828,104.35307647916666,104.43107271458332,57.0,77.0
829,104.35307647916666,104.44137410416666,60.0,88.0
830,104.35307647916666,104.44431735833332,64.0,85.0
831,104.52967172916665,104.60913959166666,57.0,73.0
832,103.99988597916665,104.61355447291666,45.0,83.0
833,104.52967172916665,104.61649772708333,60.0,85.0
834,104.52967172916665,104.62679911666666,64.0,74.0
835,104.70626697916666,105.05504259791665,52.0,66.0
836,105.05945747916665,105.15364161249998,57.0,90.0
837,105.05945747916665,105.16247137499998,60.0,96.0
838,105.05945747916665,105.17130113749998,64.0,92.0
839,105.76583847916666,105.84824959583332,57.0,86.0
840,105.76583847916666,105.85119284999999,66.0,90.0
841,105.76583847916666,105.85855098541666,62.0,96.0
842,105.41264797916665,105.95420674583332,38.0,67.0
843,105.94243372916665,106.02337321874998,45.0,20.0
844,105.94243372916665,106.04103274375,66.0,90.0
845,105.94243372916665,106.05574901458333,57.0,70.0
846,105.94243372916665,106.06605040416666,62.0,93.0
847,106.47221947916665,106.55463059583332,66.0,92.0
848,106.47221947916665,106.57523337499998,57.0,92.0
849,106.47221947916665,106.58700639166665,62.0,102.0
850,106.11902897916666,106.75035699791665,50.0,69.0
851,107.17860047916666,107.25659671458332,57.0,89.0
852,107.17860047916666,107.26101159583332,60.0,86.0
853,107.17860047916666,107.26542647708332,53.0,81.0
854,107.35519572916665,107.43319196458332,60.0,83.0
855,107.35519572916665,107.44055009999998,57.0,92.0
856,107.35519572916665,107.44643660833331,53.0,88.0
857,106.82540997916665,107.50677331874999,41.0,68.0
858,107.88498147916665,107.96886422291665,53.0,88.0
859,107.88498147916665,107.97622235833332,57.0,95.0
860,107.88498147916665,107.97622235833332,60.0,90.0
861,107.53179097916666,108.02625767916665,48.0,66.0
862,108.59136247916665,108.64434105416666,68.0,82.0
863,108.59136247916665,108.66494383333333,62.0,90.0
864,108.59136247916665,108.66935871458332,64.0,82.0
865,108.59136247916665,108.67377359583332,59.0,81.0
866,108.76795772916665,108.84448233749998,68.0,89.0
867,108.23817197916665,108.85036884583332,40.0,72.0
868,108.76795772916665,108.86655674374998,62.0,86.0
869,108.76795772916665,108.87244325208331,64.0,90.0
870,108.76795772916665,108.87685813333331,59.0,73.0
871,109.29774347916666,109.38015459583332,68.0,90.0
872,109.29774347916666,109.39487086666665,59.0,86.0
873,109.29774347916666,109.39487086666665,62.0,95.0
874,109.29774347916666,109.39487086666665,64.0,93.0
875,108.94455297916666,109.56557960833332,52.0,69.0
876,110.00412447916665,110.07770583333333,64.0,82.0
877,110.00412447916665,110.08506396874999,57.0,83.0
878,110.00412447916665,110.08506396874999,60.0,90.0
879,110.18071972916665,110.26754572708332,60.0,89.0
880,110.18071972916665,110.27196060833332,64.0,83.0
881,110.18071972916665,110.28079037083332,57.0,77.0
882,109.65093397916665,110.34701358958333,45.0,70.0
883,110.35731497916666,110.76789893541665,52.0,67.0
884,110.71050547916666,110.81057612083332,60.0,97.0
885,110.71050547916666,110.81940588333332,57.0,95.0
886,110.71050547916666,110.82382076458332,64.0,93.0
887,111.41688647916665,111.4934110875,66.0,90.0
888,111.41688647916665,111.49782596874999,57.0,82.0
889,111.41688647916665,111.50812735833333,62.0,97.0
890,111.59348172916665,111.70091050624998,66.0,93.0
891,111.59348172916665,111.70826864166665,62.0,93.0
892,111.59348172916665,111.71709840416665,57.0,76.0
893,111.06369597916665,111.74211606458331,38.0,69.0
894,112.12326747916666,112.19684883333332,66.0,93.0
895,112.12326747916666,112.21450835833332,62.0,102.0
896,112.12326747916666,112.22628137499999,57.0,93.0
897,111.77007697916666,112.33812503333333,50.0,66.0
898,112.82964847916665,112.90764471458333,59.0,79.0
899,112.82964847916665,112.90911634166666,56.0,90.0
900,112.82964847916665,112.91058796875,52.0,79.0
901,113.00624372916666,113.10631437083332,56.0,83.0
902,113.00624372916666,113.12691714999998,59.0,82.0
903,113.00624372916666,113.12986040416665,52.0,74.0
904,112.47645797916665,113.14016179374998,40.0,71.0
905,113.53602947916666,113.63757174791665,52.0,90.0
906,113.53602947916666,113.63757174791665,56.0,95.0
907,113.53602947916666,113.65523127291665,59.0,92.0
908,113.18283897916665,113.74794377916665,47.0,67.0
909,114.24241047916665,114.31304857916665,64.0,86.0
910,114.24241047916665,114.31893508749998,60.0,95.0
911,114.24241047916665,114.32629322291665,57.0,95.0
912,114.41900572916666,114.51024660833332,60.0,88.0
913,114.41900572916666,114.52201962499998,57.0,76.0
914,114.41900572916666,114.52201962499998,64.0,78.0
915,113.88921997916665,114.57794145416665,45.0,64.0
916,114.94879147916666,115.03856073124999,60.0,97.0
917,114.94879147916666,115.04150398541665,57.0,95.0
918,114.94879147916666,115.04739049374999,64.0,90.0
919,114.59560097916665,115.19602482916666,52.0,67.0
920,115.30198197916665,115.59042088749999,45.0,93.0
921,115.65517247916665,115.72433895208331,64.0,85.0
922,115.65517247916665,115.73316871458331,60.0,93.0
923,115.65517247916665,115.73611196874998,57.0,92.0
924,115.83176772916666,115.91859372708332,60.0,89.0
925,115.83176772916666,115.92595186249999,57.0,75.0
926,115.83176772916666,115.92742348958332,64.0,81.0
927,115.47857722916666,115.93772487916665,52.0,78.0
928,116.36155347916666,116.43513483333332,60.0,92.0
929,116.36155347916666,116.43660646041666,64.0,78.0
930,116.36155347916666,116.44690784999999,57.0,88.0
931,116.00836297916665,116.59701381249998,45.0,82.0
932,116.53814872916665,116.63674774374999,60.0,77.0
933,116.53814872916665,116.64263425208333,57.0,72.0
934,116.53814872916665,116.64704913333333,64.0,76.0
935,117.06793447916665,117.13415769791665,60.0,86.0
936,117.06793447916665,117.14298746041665,57.0,76.0
937,117.06793447916665,117.14445908749998,64.0,79.0
938,117.24452972916666,117.34165711666665,60.0,88.0
939,117.24452972916666,117.34312874374999,64.0,76.0
940,117.24452972916666,117.34754362499999,57.0,74.0
941,116.71474397916666,117.44908589374998,52.0,59.0
942,117.42112497916665,117.81257778333332,45.0,79.0
943,117.77431547916666,117.84789683333332,57.0,86.0
944,117.77431547916666,117.86997123958332,60.0,95.0
945,117.77431547916666,117.88468751041665,64.0,92.0
946,117.59772022916665,117.98917303333332,52.0,69.0
947,117.95091072916665,118.08777204791666,60.0,75.0
948,117.95091072916665,118.10395994583332,57.0,73.0
949,117.95091072916665,118.11573296249999,64.0,71.0
950,118.12750597916666,118.39828536249999,43.0,99.0
951,118.48069647916665,118.55280620624998,62.0,81.0
952,118.48069647916665,118.56016434166665,55.0,61.0
953,118.48069647916665,118.56016434166665,59.0,82.0
954,118.65729172916666,118.74706098124999,59.0,93.0
955,118.65729172916666,118.75589074374999,55.0,83.0
956,118.65729172916666,118.75589074374999,62.0,93.0
957,118.30410122916665,118.80298281041665,50.0,86.0
958,119.18707747916665,119.27390347708332,59.0,90.0
959,119.18707747916665,119.28861974791666,55.0,89.0
960,118.83388697916665,119.29009137499999,43.0,82.0
961,119.18707747916665,119.29009137499999,62.0,85.0
962,119.71686322916665,119.98028447708332,55.0,88.0
963,119.89345847916665,119.99058586666665,60.0,93.0
964,119.89345847916665,119.99058586666665,64.0,88.0
965,119.54026797916666,120.16718111666665,48.0,74.0
966,120.07005372916666,120.19514203124999,60.0,93.0
967,120.07005372916666,120.21427318333332,55.0,95.0
968,120.07005372916666,120.22163131874998,64.0,86.0
969,120.24664897916665,120.67783571458332,48.0,85.0
970,120.59983947916665,120.70726825624999,55.0,93.0
971,120.59983947916665,120.70726825624999,60.0,100.0
972,120.59983947916665,120.73375754374999,64.0,92.0
973,120.95302997916666,121.27825956458332,45.0,82.0
974,121.30622047916665,121.38274508749998,57.0,92.0
975,121.30622047916665,121.38568834166665,60.0,93.0
976,121.30622047916665,121.39598973124998,64.0,92.0
977,121.48281572916665,121.59465938749999,60.0,75.0
978,121.48281572916665,121.60348914999999,64.0,76.0
979,121.48281572916665,121.61084728541665,57.0,63.0
980,121.12962522916665,121.62703518333332,52.0,35.0
981,121.65941097916665,121.94490663333332,45.0,83.0
982,121.83600622916666,122.05675029166665,52.0,100.0
983,122.01260147916665,122.08471120624999,60.0,96.0
984,122.01260147916665,122.08618283333332,64.0,95.0
985,122.01260147916665,122.09206934166666,57.0,81.0
986,122.18919672916665,122.29515387916665,57.0,62.0
987,122.18919672916665,122.29515387916665,60.0,81.0
988,122.18919672916665,122.30251201458331,64.0,78.0
989,122.71898247916666,122.78962057916665,62.0,96.0
990,122.71898247916666,122.79109220624998,66.0,95.0
991,122.71898247916666,122.79992196874998,57.0,76.0
992,122.36579197916666,122.98240372708332,38.0,88.0
993,122.89557772916665,123.00006325208332,45.0,23.0
994,122.89557772916665,123.00300650624999,57.0,75.0
995,122.89557772916665,123.00742138749999,66.0,93.0
996,122.89557772916665,123.01183626874999,62.0,93.0
997,123.24876822916666,123.38268629374998,57.0,85.0
998,123.24876822916666,123.40623232708332,66.0,89.0
999,123.24876822916666,123.41653371666665,62.0,92.0
1000,123.07217297916665,123.67406845624998,50.0,85.0
1001,123.60195872916665,123.69761448958332,66.0,93.0
1002,123.60195872916665,123.70938750624998,62.0,97.0
1003,123.60195872916665,123.73146191249998,57.0,92.0
1004,124.13174447916666,124.19355281666665,59.0,78.0
1005,124.13174447916666,124.19649607083332,56.0,90.0
1006,124.13174447916666,124.20679746041665,52.0,74.0
1007,123.77855397916666,124.38927921874999,40.0,82.0
1008,124.30833972916665,124.39516572708332,56.0,82.0
1009,124.30833972916665,124.40105223541666,59.0,77.0
1010,124.30833972916665,124.40693874374999,52.0,68.0
1011,124.48493497916665,124.92936635833333,47.0,69.0
1012,124.83812547916665,124.93525286666666,56.0,93.0
1013,124.83812547916665,124.93672449374999,52.0,78.0
1014,124.83812547916665,124.97940167916666,59.0,92.0
1015,125.36791122916665,125.54744973333332,60.0,83.0
1016,125.36791122916665,125.55775112291666,57.0,79.0
1017,125.36791122916665,125.57393902083332,64.0,82.0
1018,125.72110172916665,125.86237792916666,60.0,83.0
1019,125.19131597916665,125.88445233541665,45.0,72.0
1020,125.72110172916665,125.88739558958332,57.0,85.0
1021,125.72110172916665,125.89622535208332,64.0,74.0
1022,126.25088747916665,126.35684462916666,60.0,95.0
1023,126.25088747916665,126.36125951041666,57.0,93.0
1024,126.25088747916665,126.38627717083332,64.0,88.0
1025,125.89769697916665,126.57170218333331,52.0,90.0
1026,126.95726847916666,127.03379308749999,60.0,82.0
1027,126.95726847916666,127.03673634166665,64.0,82.0
1028,126.95726847916666,127.04703773124999,57.0,82.0
1029,127.13386372916665,127.21480321874999,60.0,86.0
1030,127.13386372916665,127.22657623541666,64.0,79.0
1031,127.13386372916665,127.23099111666666,57.0,74.0
1032,126.60407797916665,127.28249806458332,45.0,73.0
1033,127.31045897916665,127.73281595208331,52.0,67.0
1034,127.66364947916665,127.75047547708331,60.0,99.0
1035,127.66364947916665,127.76666337499998,57.0,96.0
1036,127.66364947916665,127.76960662916665,64.0,89.0
1037,128.37003047916664,128.4303671895833,66.0,90.0
1038,128.37003047916664,128.4436118333333,57.0,85.0
1039,128.37003047916664,128.4524415958333,62.0,99.0
1040,128.01683997916666,128.53926759375,38.0,82.0
1041,128.37003047916664,128.54662572916666,45.0,27.0
1042,128.54662572916666,128.63786660833333,62.0,95.0
1043,128.54662572916666,128.64228148958333,66.0,95.0
1044,128.54662572916666,128.64669637083333,57.0,74.0
1045,128.89981622916665,128.99841524374997,62.0,100.0
1046,128.89981622916665,129.00283012499997,57.0,92.0
1047,128.89981622916665,129.0219612770833,66.0,100.0
1048,129.25300672916666,129.36632201458332,66.0,88.0
1049,129.25300672916666,129.38103828541665,62.0,96.0
1050,128.72322097916665,129.40164106458332,50.0,83.0
1051,129.25300672916666,129.40752757291665,57.0,83.0
1052,129.78279247916666,129.85637383333332,57.0,96.0
1053,129.78279247916666,129.86520359583332,53.0,73.0
1054,129.78279247916666,129.86520359583332,60.0,81.0
1055,129.95938772916665,130.0638732520833,57.0,82.0
1056,129.95938772916665,130.07123138749998,60.0,78.0
1057,129.95938772916665,130.0727030145833,53.0,69.0
1058,129.42960197916665,130.12715321666664,41.0,75.0
1059,130.13598297916664,130.57894273124998,48.0,70.0
1060,130.48917347916665,130.58041435833331,57.0,96.0
1061,130.48917347916665,130.58335761249998,53.0,89.0
1062,130.48917347916665,130.59218737499998,60.0,89.0
1063,131.19555447916665,131.25441956249998,68.0,74.0
1064,131.19555447916665,131.27502234166664,64.0,76.0
1065,131.19555447916665,131.2779655958333,59.0,78.0
1066,131.19555447916665,131.2779655958333,62.0,79.0
1067,131.37214972916667,131.46191898125,68.0,92.0
1068,130.84236397916666,131.46927711666666,40.0,81.0
1069,131.37214972916667,131.47369199791666,64.0,92.0
1070,131.37214972916667,131.47810687916666,62.0,85.0
1071,131.37214972916667,131.50018128541666,59.0,73.0
1072,131.90193547916664,132.00347774791666,62.0,93.0
1073,131.90193547916664,132.004949375,59.0,83.0
1074,131.90193547916664,132.01525076458333,64.0,93.0
1075,131.54874497916666,132.02996703541666,52.0,75.0
1076,131.90193547916664,132.03291028958333,68.0,92.0
1077,132.60831647916666,132.676011325,64.0,73.0
1078,132.60831647916666,132.6848410875,60.0,86.0
1079,132.60831647916666,132.68925596875,57.0,85.0
1080,132.78491172916665,132.8717377270833,57.0,63.0
1081,132.78491172916665,132.87468098124998,60.0,71.0
1082,132.78491172916665,132.87909586249998,64.0,72.0
1083,132.25512597916665,132.88645399791665,45.0,86.0
1084,133.13810222916666,133.28673656458332,60.0,93.0
1085,133.13810222916666,133.29556632708332,57.0,86.0
1086,133.13810222916666,133.30145283541665,64.0,88.0
1087,132.96150697916664,133.30881097083332,52.0,85.0
1088,133.49129272916664,133.65464333541667,57.0,86.0
1089,133.49129272916664,133.67230286041666,64.0,76.0
1090,133.49129272916664,133.67524611458333,60.0,86.0
1091,134.02107847916665,134.10054634166664,57.0,82.0
1092,134.02107847916665,134.1034895958333,66.0,83.0
1093,134.02107847916665,134.11820586666664,62.0,95.0
1094,133.66788797916666,134.24035091458333,38.0,81.0
1095,134.19767372916664,134.30804576041666,66.0,83.0
1096,134.19767372916664,134.3095173875,57.0,73.0
1097,134.19767372916664,134.31246064166666,62.0,86.0
1098,134.72745947916664,134.82900174791666,57.0,86.0
1099,134.72745947916664,134.84077476458333,62.0,95.0
1100,134.72745947916664,134.84518964583333,66.0,85.0
1101,134.37426897916666,134.96733469375,50.0,82.0
1102,135.43384047916666,135.50300695208333,62.0,81.0
1103,135.43384047916666,135.50300695208333,68.0,81.0
1104,135.43384047916666,135.50595020625,59.0,73.0
1105,135.43384047916666,135.51330834166666,64.0,85.0
1106,135.61043572916665,135.68254545624998,68.0,89.0
1107,135.61043572916665,135.69137521874998,62.0,83.0
1108,135.08064997916665,135.69579009999998,40.0,76.0
1109,135.61043572916665,135.70314823541665,64.0,88.0
1110,135.61043572916665,135.71492125208331,59.0,73.0
1111,136.14022147916666,136.23146235833332,68.0,86.0
1112,136.14022147916666,136.23734886666665,62.0,83.0
1113,136.14022147916666,136.24617862916665,64.0,89.0
1114,136.14022147916666,136.26089489999998,59.0,75.0
1115,135.78703097916664,136.36538042291664,52.0,66.0
1116,136.84660247916665,136.92165546041664,60.0,90.0
1117,136.84660247916665,136.92607034166664,57.0,85.0
1118,136.84660247916665,136.92607034166664,64.0,82.0
1119,137.02319772916664,137.12915487916666,60.0,83.0
1120,137.02319772916664,137.13356976041666,64.0,75.0
1121,136.49341197916664,137.14092789583333,45.0,76.0
1122,137.02319772916664,137.14681440416666,57.0,72.0
1123,137.37638822916665,137.5161928020833,60.0,93.0
1124,137.37638822916665,137.52207931041664,64.0,86.0
1125,137.37638822916665,137.52796581874998,57.0,88.0
1126,137.19979297916666,137.797273575,52.0,81.0
1127,137.72957872916666,137.84730889583332,60.0,93.0
1128,137.72957872916666,137.85319540416666,57.0,95.0
1129,137.72957872916666,137.87232655625,64.0,90.0
1130,137.90617397916665,138.19461288749997,45.0,93.0
1131,138.25936447916666,138.32853095208333,64.0,85.0
1132,138.25936447916666,138.33736071458333,60.0,93.0
1133,138.25936447916666,138.34030396875,57.0,92.0
1134,138.43595972916665,138.52278572708332,60.0,89.0
1135,138.43595972916665,138.53014386249998,57.0,75.0
1136,138.43595972916665,138.53161548958332,64.0,81.0
1137,138.08276922916664,138.54191687916665,52.0,78.0
1138,138.96574547916666,139.03932683333332,60.0,92.0
1139,138.96574547916666,139.04079846041665,64.0,78.0
1140,138.96574547916666,139.05109984999999,57.0,88.0
1141,138.61255497916665,139.20120581249998,45.0,82.0
1142,139.14234072916665,139.24093974374998,60.0,77.0
1143,139.14234072916665,139.2468262520833,57.0,72.0
1144,139.14234072916665,139.2512411333333,64.0,76.0
1145,139.67212647916665,139.73834969791665,60.0,86.0
1146,139.67212647916665,139.74717946041665,57.0,76.0
1147,139.67212647916665,139.74865108749998,64.0,79.0
1148,139.84872172916664,139.94584911666666,60.0,88.0
1149,139.84872172916664,139.94732074375,64.0,76.0
1150,139.84872172916664,139.951735625,57.0,74.0
1151,139.31893597916664,140.05327789375,52.0,59.0
1152,140.02531697916666,140.4167697833333,45.0,79.0
1153,140.37850747916664,140.4520888333333,57.0,86.0
1154,140.37850747916664,140.4741632395833,60.0,95.0
1155,140.37850747916664,140.48887951041664,64.0,92.0
1156,140.20191222916665,140.59336503333333,52.0,69.0
1157,140.55510272916666,140.69196404791666,60.0,75.0
1158,140.55510272916666,140.70815194583332,57.0,73.0
1159,140.55510272916666,140.7199249625,64.0,71.0
1160,140.73169797916665,141.00247736249997,43.0,99.0
1161,141.08488847916664,141.15699820625,62.0,81.0
1162,141.08488847916664,141.16435634166666,55.0,61.0
1163,141.08488847916664,141.16435634166666,59.0,82.0
1164,141.26148372916666,141.35125298124998,59.0,93.0
1165,141.26148372916666,141.36008274374998,55.0,83.0
1166,141.26148372916666,141.36008274374998,62.0,93.0
1167,140.90829322916665,141.40717481041665,50.0,86.0
1168,141.79126947916666,141.87809547708332,59.0,90.0
1169,141.79126947916666,141.89281174791665,55.0,89.0
1170,141.43807897916665,141.894283375,43.0,82.0
1171,141.79126947916666,141.894283375,62.0,85.0
1172,142.32105522916666,142.5844764770833,55.0,88.0
1173,142.49765047916665,142.59477786666665,60.0,93.0
1174,142.49765047916665,142.59477786666665,64.0,88.0
1175,142.14445997916664,142.77137311666664,48.0,74.0
1176,142.67424572916664,142.79933403124997,60.0,93.0
1177,142.67424572916664,142.81846518333333,55.0,95.0
1178,142.67424572916664,142.82582331875,64.0,86.0
1179,142.85084097916666,143.2820277145833,48.0,85.0
1180,143.20403147916664,143.31146025624997,55.0,93.0
1181,143.20403147916664,143.31146025624997,60.0,100.0
1182,143.20403147916664,143.33794954374997,64.0,92.0
1183,143.55722197916666,143.8824515645833,45.0,82.0
1184,143.91041247916664,143.9869370875,57.0,92.0
1185,143.91041247916664,143.98988034166666,60.0,93.0
1186,143.91041247916664,144.00018173125,64.0,92.0
1187,144.08700772916666,144.19885138749999,60.0,75.0
1188,144.08700772916666,144.20768114999998,64.0,76.0
1189,144.08700772916666,144.21503928541665,57.0,63.0
1190,143.73381722916665,144.23122718333332,52.0,35.0
1191,144.26360297916665,144.54909863333333,45.0,83.0
1192,144.44019822916664,144.66094229166666,52.0,100.0
1193,144.61679347916666,144.68890320625,60.0,96.0
1194,144.61679347916666,144.69037483333332,64.0,95.0
1195,144.61679347916666,144.69626134166666,57.0,81.0
1196,144.79338872916665,144.89934587916665,57.0,62.0
1197,144.79338872916665,144.89934587916665,60.0,81.0
1198,144.79338872916665,144.9067040145833,64.0,78.0
1199,145.32317447916665,145.39381257916665,62.0,96.0
1200,145.32317447916665,145.39528420624998,66.0,95.0
1201,145.32317447916665,145.40411396874998,57.0,76.0
1202,144.96998397916664,145.5865957270833,38.0,88.0
1203,145.49976972916664,145.6042552520833,45.0,23.0
1204,145.49976972916664,145.60719850624997,57.0,75.0
1205,145.49976972916664,145.61161338749997,66.0,93.0
1206,145.49976972916664,145.61602826874997,62.0,93.0
1207,145.85296022916665,145.98687829374998,57.0,85.0
1208,145.85296022916665,146.0104243270833,66.0,89.0
1209,145.85296022916665,146.02072571666665,62.0,92.0
1210,145.67636497916666,146.27826045625,50.0,85.0
1211,146.20615072916664,146.30180648958333,66.0,93.0
1212,146.20615072916664,146.31357950625,62.0,97.0
1213,146.20615072916664,146.3356539125,57.0,92.0
1214,146.73593647916664,146.79774481666664,59.0,78.0
1215,146.73593647916664,146.8006880708333,56.0,90.0
1216,146.73593647916664,146.81098946041664,52.0,74.0
1217,146.38274597916666,146.99347121875,40.0,82.0
1218,146.91253172916666,146.99935772708332,56.0,82.0
1219,146.91253172916666,147.00524423541665,59.0,77.0
1220,146.91253172916666,147.01113074375,52.0,68.0
1221,147.08912697916665,147.53355835833332,47.0,69.0
1222,147.44231747916666,147.53944486666666,56.0,93.0
1223,147.44231747916666,147.54091649375,52.0,78.0
1224,147.44231747916666,147.58359367916665,59.0,92.0
1225,147.97210322916666,148.15164173333332,60.0,83.0
1226,147.97210322916666,148.16194312291665,57.0,79.0
1227,147.97210322916666,148.17813102083332,64.0,82.0
1228,148.32529372916665,148.46656992916664,60.0,83.0
1229,147.79550797916664,148.48864433541664,45.0,72.0
1230,148.32529372916665,148.4915875895833,57.0,85.0
1231,148.32529372916665,148.5004173520833,64.0,74.0
1232,148.85507947916665,148.96103662916664,60.0,95.0
1233,148.85507947916665,148.96545151041664,57.0,93.0
1234,148.85507947916665,148.9904691708333,64.0,88.0
1235,148.50188897916664,149.17589418333333,52.0,90.0
1236,149.56146047916664,149.62915532499997,64.0,74.0
1237,149.56146047916664,149.6306269520833,57.0,78.0
1238,149.56146047916664,149.6306269520833,60.0,86.0
1239,149.73805572916666,149.81605196458332,60.0,83.0
1240,149.73805572916666,149.82782498125,57.0,76.0
1241,149.73805572916666,149.83665474375,64.0,79.0
1242,149.20826997916666,149.90729284374999,45.0,81.0
1243,150.26784147916666,150.35613910416666,64.0,88.0
1244,150.26784147916666,150.35613910416666,72.0,86.0
1245,150.26784147916666,150.370855375,69.0,95.0
1246,149.91465097916665,150.55333713333332,52.0,67.0
1247,150.97422247916666,151.05516196874999,60.0,86.0
1248,150.97422247916666,151.05957684999998,57.0,79.0
1249,150.97422247916666,151.05957684999998,64.0,83.0
1250,151.15081772916665,151.23911535416664,60.0,85.0
1251,151.15081772916665,151.24500186249998,64.0,79.0
1252,151.15081772916665,151.2464734895833,57.0,72.0
1253,150.62103197916664,151.36861853749997,45.0,61.0
1254,151.32741297916664,151.67766022499998,52.0,68.0
1255,151.68060347916665,151.77478761249998,60.0,90.0
1256,151.68060347916665,151.7806741208333,57.0,90.0
1257,151.68060347916665,151.78361737499998,64.0,85.0
1258,152.38698447916664,152.44143468124997,60.0,81.0
1259,152.38698447916664,152.45026444374997,65.0,77.0
1260,152.38698447916664,152.4561509520833,57.0,72.0
1261,152.03379397916666,152.63863271041666,41.0,71.0
1262,152.56357972916666,152.65334898125,57.0,73.0
1263,152.56357972916666,152.6577638625,60.0,79.0
1264,152.56357972916666,152.66953687916666,65.0,78.0
1265,152.74017497916665,153.14634405416666,48.0,72.0
1266,153.09336547916664,153.18313473125,57.0,88.0
1267,153.09336547916664,153.18313473125,60.0,89.0
1268,153.09336547916664,153.19196449375,65.0,86.0
1269,153.79974647916666,153.86891295208332,64.0,72.0
1270,153.79974647916666,153.87038457916665,60.0,85.0
1271,153.79974647916666,153.87479946041665,57.0,86.0
1272,153.97634172916665,154.05580959166664,57.0,63.0
1273,153.97634172916665,154.0631677270833,60.0,71.0
1274,153.97634172916665,154.0719974895833,64.0,69.0
1275,153.44655597916665,154.20591555416664,45.0,76.0
1276,154.50612747916665,154.6635915770833,69.0,81.0
1277,154.50612747916665,154.66947808541664,72.0,77.0
1278,154.50612747916665,154.67536459374998,64.0,82.0
1279,154.15293697916664,154.87403425,52.0,71.0
1280,155.21250847916664,155.3037493583333,60.0,92.0
1281,155.21250847916664,155.31110749374997,64.0,78.0
1282,155.21250847916664,155.31846562916664,57.0,77.0
1283,155.38910372916664,155.47887298125,57.0,66.0
1284,155.38910372916664,155.48623111666666,60.0,78.0
1285,155.38910372916664,155.5009473875,64.0,74.0
1286,154.85931797916666,155.54803945416666,45.0,75.0
1287,155.91888947916664,156.00424385,57.0,83.0
1288,155.91888947916664,156.01013035833333,60.0,89.0
1289,155.91888947916664,156.02631825625,64.0,78.0
1290,155.56569897916665,156.20880001458332,52.0,67.0
1291,156.62527047916666,156.68855044375,57.0,77.0
1292,156.62527047916666,156.69738020625,64.0,76.0
1293,156.62527047916666,156.7017950875,60.0,89.0
1294,156.80186572916665,156.8798619645833,57.0,76.0
1295,156.80186572916665,156.88280521874998,60.0,88.0
1296,156.80186572916665,156.88574847291665,64.0,78.0
1297,156.27207997916665,156.99317724999997,45.0,75.0
1298,156.97846097916664,157.35961239374998,52.0,63.0
1299,157.33165147916665,157.44791001874998,57.0,88.0
1300,157.33165147916665,157.44791001874998,60.0,92.0
1301,157.33165147916665,157.45968303541665,64.0,82.0
1302,158.03803247916665,158.07335152916664,65.0,52.0
1303,158.03803247916665,158.10425569791664,60.0,83.0
1304,158.03803247916665,158.11308546041664,57.0,78.0
1305,157.68484197916663,158.26907793125,41.0,83.0
1306,158.21462772916664,158.29409559166666,65.0,78.0
1307,158.21462772916664,158.30439698125,57.0,66.0
1308,158.21462772916664,158.3088118625,60.0,83.0
1309,158.74441347916664,158.80622181666664,66.0,75.0
1310,158.74441347916664,158.84006923958333,60.0,92.0
1311,158.74441347916664,158.84154086666666,65.0,75.0
1312,158.74441347916664,158.84301249375,57.0,85.0
1313,158.39122297916666,159.01666448958332,48.0,67.0
1314,159.45079447916666,159.50818793541666,64.0,81.0
1315,159.45079447916666,159.51554607083332,60.0,83.0
1316,159.45079447916666,159.52143257916666,57.0,81.0
1317,159.62738972916665,159.7186306083333,57.0,79.0
1318,159.62738972916665,159.7230454895833,60.0,89.0
1319,159.62738972916665,159.73776176041665,64.0,81.0
1320,159.09760397916665,159.8157579958333,45.0,67.0
1321,160.15717547916665,160.23958659583332,60.0,96.0
1322,160.15717547916665,160.24841635833332,64.0,89.0
1323,160.15717547916665,160.25135961249998,57.0,93.0
1324,159.80398497916664,160.37497628749998,52.0,78.0
1325,160.86355647916665,160.93125132499998,64.0,74.0
1326,160.86355647916665,160.9327229520833,57.0,78.0
1327,160.86355647916665,160.9327229520833,60.0,86.0
1328,161.04015172916664,161.1181479645833,60.0,83.0
1329,161.04015172916664,161.12992098125,57.0,76.0
1330,161.04015172916664,161.13875074375,64.0,79.0
1331,160.51036597916664,161.20938884375,45.0,81.0
1332,161.56993747916664,161.65823510416664,64.0,88.0
1333,161.56993747916664,161.65823510416664,72.0,86.0
1334,161.56993747916664,161.67295137499997,69.0,95.0
1335,161.21674697916666,161.85543313333332,52.0,67.0
1336,162.27631847916666,162.35725796875,60.0,86.0
1337,162.27631847916666,162.36167285,57.0,79.0
1338,162.27631847916666,162.36167285,64.0,83.0
1339,162.45291372916665,162.54121135416665,60.0,85.0
1340,162.45291372916665,162.54709786249998,64.0,79.0
1341,162.45291372916665,162.54856948958331,57.0,72.0
1342,161.92312797916665,162.67071453749998,45.0,61.0
1343,162.62950897916664,162.979756225,52.0,68.0
1344,162.98269947916666,163.07688361249998,60.0,90.0
1345,162.98269947916666,163.08277012083332,57.0,90.0
1346,162.98269947916666,163.08571337499998,64.0,85.0
1347,163.68908047916665,163.74353068124998,60.0,81.0
1348,163.68908047916665,163.75236044374998,65.0,77.0
1349,163.68908047916665,163.7582469520833,57.0,72.0
1350,163.33588997916664,163.94072871041664,41.0,71.0
1351,163.86567572916664,163.95544498124997,57.0,73.0
1352,163.86567572916664,163.95985986249997,60.0,79.0
1353,163.86567572916664,163.97163287916663,65.0,78.0
1354,164.04227097916666,164.44844005416664,48.0,72.0
1355,164.39546147916664,164.48523073124997,57.0,88.0
1356,164.39546147916664,164.48523073124997,60.0,89.0
1357,164.39546147916664,164.49406049374997,65.0,86.0
1358,165.10184247916663,165.17100895208333,64.0,72.0
1359,165.10184247916663,165.17248057916666,60.0,85.0
1360,165.10184247916663,165.17689546041666,57.0,86.0
1361,165.27843772916665,165.35790559166665,57.0,63.0
1362,165.27843772916665,165.36526372708332,60.0,71.0
1363,165.27843772916665,165.37409348958332,64.0,69.0
1364,164.74865197916665,165.50801155416664,45.0,76.0
1365,165.80822347916666,165.96568757708332,69.0,81.0
1366,165.80822347916666,165.97157408541665,72.0,77.0
1367,165.80822347916666,165.97746059374998,64.0,82.0
1368,165.45503297916665,166.17613024999997,52.0,71.0
1369,166.51460447916665,166.6058453583333,60.0,92.0
1370,166.51460447916665,166.61320349374998,64.0,78.0
1371,166.51460447916665,166.62056162916664,57.0,77.0
1372,166.69119972916664,166.78096898124997,57.0,66.0
1373,166.69119972916664,166.78832711666664,60.0,78.0
1374,166.69119972916664,166.80304338749997,64.0,74.0
1375,166.16141397916664,166.85013545416666,45.0,75.0
1376,167.22098547916664,167.30633984999997,57.0,83.0
1377,167.22098547916664,167.3122263583333,60.0,89.0
1378,167.22098547916664,167.32841425624997,64.0,78.0
1379,166.86779497916666,167.51089601458332,52.0,67.0
1380,167.92736647916664,167.99064644374997,57.0,77.0
1381,167.92736647916664,167.99947620625,64.0,76.0
1382,167.92736647916664,168.0038910875,60.0,89.0
1383,168.10396172916666,168.18195796458332,57.0,76.0
1384,168.10396172916666,168.18490121874999,60.0,88.0
1385,168.10396172916666,168.18784447291665,64.0,78.0
1386,167.57417597916665,168.29527324999998,45.0,75.0
1387,168.28055697916665,168.66170839375,52.0,63.0
1388,168.63374747916666,168.75000601874999,57.0,88.0
1389,168.63374747916666,168.75000601874999,60.0,92.0
1390,168.63374747916666,168.76177903541665,64.0,82.0
1391,169.34012847916665,169.37544752916665,65.0,52.0
1392,169.34012847916665,169.40635169791665,60.0,83.0
1393,169.34012847916665,169.41518146041665,57.0,78.0
1394,168.98693797916664,169.57117393124997,41.0,83.0
1395,169.51672372916664,169.59619159166664,65.0,78.0
1396,169.51672372916664,169.60649298124997,57.0,66.0
1397,169.51672372916664,169.61090786249997,60.0,83.0
1398,170.04650947916664,170.10831781666664,66.0,75.0
1399,170.04650947916664,170.1421652395833,60.0,92.0
1400,170.04650947916664,170.14363686666664,65.0,75.0
1401,170.04650947916664,170.14510849374997,57.0,85.0
1402,169.69331897916663,170.31876048958333,48.0,67.0
1403,170.75289047916664,170.81028393541663,64.0,81.0
1404,170.75289047916664,170.8176420708333,60.0,83.0
1405,170.75289047916664,170.82352857916663,57.0,81.0
1406,170.92948572916666,171.02072660833332,57.0,79.0
1407,170.92948572916666,171.02514148958332,60.0,89.0
1408,170.92948572916666,171.03985776041665,64.0,81.0
1409,170.39969997916666,171.11785399583331,45.0,67.0
1410,171.45927147916666,171.54168259583332,60.0,96.0
1411,171.45927147916666,171.55051235833332,64.0,89.0
1412,171.45927147916666,171.5534556125,57.0,93.0
1413,171.10608097916665,171.67707228749998,52.0,78.0
1414,172.16565247916665,172.23334732499998,64.0,74.0
1415,172.16565247916665,172.23481895208332,57.0,78.0
1416,172.16565247916665,172.23481895208332,60.0,86.0
1417,172.34224772916664,172.4202439645833,60.0,83.0
1418,172.34224772916664,172.43201698124997,57.0,76.0
1419,172.34224772916664,172.44084674374997,64.0,79.0
1420,171.81246197916664,172.51148484374997,45.0,81.0
1421,172.87203347916665,172.96033110416664,64.0,88.0
1422,172.87203347916665,172.96033110416664,72.0,86.0
1423,172.87203347916665,172.97504737499997,69.0,95.0
1424,172.51884297916664,173.15752913333333,52.0,67.0
1425,173.57841447916664,173.65935396874997,60.0,86.0
1426,173.57841447916664,173.66376884999997,57.0,79.0
1427,173.57841447916664,173.66376884999997,64.0,83.0
1428,173.75500972916666,173.84330735416665,60.0,85.0
1429,173.75500972916666,173.8491938625,64.0,79.0
1430,173.75500972916666,173.85066548958332,57.0,72.0
1431,173.22522397916666,173.97281053749998,45.0,61.0
1432,173.93160497916665,174.28185222499997,52.0,68.0
1433,174.28479547916663,174.3789796125,60.0,90.0
1434,174.28479547916663,174.38486612083332,57.0,90.0
1435,174.28479547916663,174.387809375,64.0,85.0
1436,174.99117647916665,175.04562668124998,60.0,81.0
1437,174.99117647916665,175.05445644374998,65.0,77.0
1438,174.99117647916665,175.06034295208332,57.0,72.0
1439,174.63798597916664,175.24282471041664,41.0,71.0
1440,175.16777172916665,175.25754098124997,57.0,73.0
1441,175.16777172916665,175.26195586249997,60.0,79.0
1442,175.16777172916665,175.27372887916664,65.0,78.0
