,start,end,pitch,velocity
0,2.9602926375,3.7249981374999996,76.0,99.0
1,3.8426451375,3.973527425,74.0,102.0
2,4.0191156375,4.1867626125,76.0,94.0
3,4.195586137499999,4.34705665,79.0,97.0
4,2.9602926375,4.3720566375,69.0,87.0
5,4.3720566375,5.2161738625,76.0,97.0
6,5.2544091375,5.355879675,74.0,99.0
7,5.4308796374999995,5.5941148499999995,76.0,94.0
8,5.6073501375,5.7411736,79.0,92.0
9,4.3720566375,5.7838206375,71.0,81.0
10,5.7838206375,6.591173175,76.0,97.0
11,6.6661731374999995,6.814702475,74.0,95.0
12,6.842643637499999,7.0102906124999995,76.0,90.0
13,7.0191141375,7.167643474999999,79.0,90.0
14,7.1955846375,7.754407887499999,76.0,99.0
15,5.7838206375,7.9014666375,72.0,85.0
16,7.9014666375,8.1308782875,84.0,94.0
17,8.0779371375,8.27646645,83.0,89.0
18,8.2544076375,8.395584037499999,81.0,90.0
19,8.430878137499999,8.551466312499999,79.0,95.0
20,8.6073486375,9.364701199999999,76.0,97.0
21,9.489701137499999,9.59411285,74.0,104.0
22,9.6661716375,9.7999951,76.0,94.0
23,8.6073486375,9.8779362375,60.0,74.0
24,8.6073486375,9.908818575,64.0,88.0
25,9.8426421375,9.9529362,79.0,95.0
26,10.0191126375,10.8426416375,76.0,99.0
27,10.901465137499999,11.017641549999999,74.0,92.0
28,10.0191126375,11.1999944,59.0,78.0
29,11.0779356375,11.214700275,76.0,92.0
30,10.0191126375,11.244112025,62.0,81.0
31,11.2544061375,11.3691119625,79.0,92.0
32,11.430876637499999,12.4896996375,76.0,97.0
33,11.430876637499999,13.720581375,55.0,80.0
34,11.430876637499999,13.7455813625,60.0,83.0
35,13.5485226375,13.7999931,72.0,90.0
36,13.9014636375,14.1646988,74.0,99.0
37,14.254404637499999,15.4485216875,76.0,91.0
38,14.254404637499999,15.670580399999999,45.0,84.0
39,15.666168637499998,16.9161680125,47.0,64.0
40,15.666168637499998,16.9176386,74.0,95.0
41,17.0779326375,17.3338148625,84.0,91.0
42,17.0779326375,17.579402975,45.0,82.0
43,17.4308736375,17.691167625,83.0,82.0
44,17.7838146375,18.079402724999998,81.0,93.0
45,17.7838146375,18.3838143375,43.0,82.0
46,18.1367556375,18.4161672625,79.0,91.0
47,18.4896966375,19.438225575,81.0,93.0
48,18.4896966375,19.864695949999998,42.0,82.0
49,19.5485196375,19.867637124999998,72.0,90.0
50,19.901460637499998,20.7176367,69.0,92.0
51,20.960283637499998,21.226459974999997,84.0,102.0
52,21.3132246375,21.885283174999998,81.0,92.0
53,22.0191066375,22.326459425,79.0,94.0
54,22.3720476375,22.732341575,84.0,102.0
55,22.724988637499997,25.3720461375,81.0,95.0
56,25.5485166375,26.29998685,76.0,88.0
57,26.4308691375,26.5514573125,74.0,89.0
58,26.607339637499997,26.741163099999998,76.0,89.0
59,26.783810137499998,26.9191041875,79.0,85.0
60,26.9602806375,27.749986125,76.0,90.0
61,27.8426331375,27.9485154375,74.0,89.0
62,28.0191036375,28.132338875,76.0,88.0
63,28.1955741375,28.326456425,79.0,76.0
64,29.2543971375,29.374985312499998,74.0,86.0
65,28.3720446375,29.538220525,76.0,92.0
66,29.430867637499997,29.538220525,76.0,88.0
67,29.607338137499998,29.7161616125,79.0,89.0
68,29.783808637499998,30.342631887499998,76.0,84.0
69,30.489690637499997,30.64116115,84.0,92.0
70,30.666161137499998,30.761749325,83.0,82.0
71,30.8426316375,31.0220433125,81.0,67.0
72,31.0191021375,31.114690324999998,79.0,87.0
73,31.1955726375,31.8588076,76.0,91.0
74,32.077925137499996,32.1985133125,74.0,91.0
75,32.2543956375,32.3720426375,76.0,90.0
76,32.4308661375,32.5396896125,81.0,86.0
77,32.6073366375,33.37057155,76.0,90.0
78,33.4896891375,33.5955714375,74.0,90.0
79,33.6661596375,33.8132183875,76.0,83.0
80,33.842630137499995,33.955865375,79.0,89.0
81,34.019100637499996,34.6926297125,76.0,94.0
82,36.8426286375,37.59409885,76.0,88.0
83,37.724981137499995,37.8455693125,74.0,89.0
84,37.901451637499996,38.0352751,76.0,89.0
85,38.077922137499996,38.213216187499995,81.0,85.0
86,38.2543926375,39.044098125,76.0,90.0
87,39.1367451375,39.2426274375,74.0,89.0
88,39.3132156375,39.426450875,76.0,88.0
89,39.4896861375,39.620568424999995,81.0,76.0
90,39.666156637499995,40.3720386375,76.0,92.0
91,40.3720386375,40.941156,74.0,89.0
92,41.0779206375,42.1367436375,72.0,80.0
93,43.3720371375,43.5764488,64.0,89.0
94,43.548507637499995,43.724978137499996,65.0,92.0
95,43.724978137499996,43.901448637499996,72.0,76.0
96,43.901448637499996,44.4543895375,74.0,83.0
97,44.9602716375,45.4661537375,71.0,83.0
98,45.666153637499995,46.364682699999996,62.0,76.0
99,46.0190946375,46.444094424999996,64.0,86.0
100,46.7249766375,47.097035274999996,61.0,75.0
101,46.3720356375,47.113211737499995,69.0,84.0
102,47.0779176375,47.749976124999996,62.0,81.0
103,47.430858637499995,47.783799637499996,64.0,77.0
104,47.783799637499996,48.1190935875,69.0,82.0
105,48.1367406375,48.3367405375,76.0,88.0
106,48.3132111375,48.470563999999996,74.0,88.0
107,48.4896816375,48.6661521375,76.0,81.0
108,48.6661521375,48.81762265,74.0,82.0
109,48.8426226375,48.9999755,76.0,80.0
110,49.0190931375,49.1720342375,74.0,78.0
111,49.1955636375,49.391151775,76.0,79.0
112,48.1367406375,49.52350465,57.0,78.0
113,49.372034137499995,49.561739925,74.0,83.0
114,49.548504637499995,49.7543868875,76.0,81.0
115,49.9014456375,50.024974987499995,71.0,84.0
116,50.0779161375,50.261739575,72.0,81.0
117,50.2543866375,50.3573277625,74.0,88.0
118,50.6073276375,50.7543863875,71.0,84.0
119,49.548504637499995,50.7955628375,59.0,69.0
120,50.7837981375,50.920562775,72.0,83.0
121,51.313209637499995,51.444091924999995,72.0,83.0
122,51.489680137499995,51.6352683,74.0,81.0
123,51.666150637499996,51.808797625,76.0,77.0
124,51.8426211375,52.005856349999995,74.0,81.0
125,52.0190916375,52.130856287499995,76.0,89.0
126,52.1955621375,52.317620899999994,79.0,84.0
127,52.3720326375,52.477914937499996,76.0,88.0
128,52.7249736375,52.861738275,71.0,88.0
129,52.9014441375,53.038208775,74.0,89.0
130,50.9602686375,53.1426204875,57.0,79.0
131,53.0779146375,53.2367380875,72.0,76.0
132,53.254385137499995,53.448502687499996,71.0,80.0
133,53.0779146375,53.4661497375,59.0,79.0
134,53.430855637499995,53.58232615,69.0,87.0
135,53.607326137499996,53.7279143125,67.0,79.0
136,53.430855637499995,53.805855449999996,60.0,79.0
137,53.7837966375,53.9837965375,76.0,88.0
138,53.9602671375,54.117619999999995,74.0,88.0
139,54.1367376375,54.3132081375,76.0,81.0
140,54.3132081375,54.464678649999996,74.0,82.0
141,54.4896786375,54.6470315,76.0,80.0
142,54.6661491375,54.8190902375,74.0,78.0
143,54.8426196375,55.038207775,76.0,79.0
144,53.7837966375,55.17056065,57.0,83.0
145,55.0190901375,55.208795925,74.0,83.0
146,55.195560637499995,55.4014428875,76.0,81.0
147,55.548501637499996,55.672030987499994,71.0,84.0
148,55.7249721375,55.908795575,72.0,81.0
149,55.9014426375,56.0043837625,74.0,88.0
150,56.2543836375,56.4014423875,71.0,84.0
151,56.4308541375,56.567618775,72.0,83.0
152,55.195560637499995,56.60585405,55.0,80.0
153,56.9602656375,57.108794974999995,72.0,84.0
154,57.313206637499995,57.502912425,74.0,86.0
155,57.666147637499996,57.823500499999994,72.0,82.0
156,56.6073246375,58.0190886375,60.0,81.0
157,57.8426181375,58.182323849999996,76.0,81.0
158,58.0190886375,58.6955588875,64.0,85.0
159,58.7249706375,59.147029249999996,62.0,88.0
160,59.077911637499994,59.470558499999996,60.0,81.0
161,59.430852637499996,60.779381375,57.0,79.0
162,60.842616637499994,62.1646748,59.0,81.0
163,62.2543806375,62.835262699999994,76.0,81.0
164,62.2543806375,62.989674387499996,60.0,74.0
165,62.960262637499994,63.5867329125,74.0,80.0
166,62.960262637499994,63.6955563875,59.0,77.0
167,63.6661446375,64.3632031125,72.0,77.0
168,63.6661446375,65.0779086375,57.0,78.0
169,68.2543776375,68.49996575,65.0,83.0
170,68.6073186375,68.926436125,67.0,81.0
171,68.9602596375,69.267612425,74.0,88.0
172,69.3132006375,70.7249646375,72.0,81.0
173,71.0779056375,71.51614071249999,55.0,75.0
174,71.4308466375,71.8279052625,60.0,83.0
175,71.7837876375,72.173493325,62.0,81.0
176,72.1367286375,72.5337872625,64.0,81.0
177,72.4896696375,72.88966943749999,65.0,88.0
178,72.8426106375,73.549963225,67.0,84.0
179,73.54849263749999,73.7631984125,76.0,54.0
180,73.7249631375,73.932315975,74.0,54.0
181,73.90143363749999,74.06025708749999,72.0,52.0
182,74.0779041375,74.22937465,74.0,51.0
183,74.25437463749999,74.4484921875,76.0,49.0
184,74.4308451375,74.6102568125,74.0,49.0
185,74.6073156375,74.7837861375,72.0,57.0
186,73.54849263749999,74.820550825,64.0,81.0
187,74.7837861375,74.9602566375,74.0,57.0
188,74.9602566375,75.1455506625,77.0,48.0
189,75.1367271375,75.379374075,72.0,50.0
190,75.3131976375,75.48966813749999,71.0,49.0
191,75.48966813749999,75.638197475,72.0,45.0
192,75.6661386375,75.87055029999999,77.0,46.0
193,75.84260913749999,76.0308443375,72.0,48.0
194,76.0190796375,76.197020725,71.0,44.0
195,74.9602566375,76.2720206875,65.0,84.0
196,76.19555013749999,76.3043736125,72.0,50.0
197,76.5484911375,76.69996164999999,71.0,53.0
198,76.7249616375,76.8940792,67.0,51.0
199,76.9014321375,77.06907911249999,71.0,46.0
200,77.0779026375,77.308784875,67.0,47.0
201,77.2543731375,77.408784825,71.0,48.0
202,76.3720206375,77.461725975,64.0,84.0
203,77.43084363749999,77.5999612,74.0,55.0
204,77.6073141375,77.749961125,71.0,57.0
205,77.43084363749999,77.81760815,62.0,81.0
206,77.9602551375,78.1073138875,72.0,53.0
207,78.13672563749999,78.320549075,71.0,44.0
208,78.3131961375,78.42937255,72.0,55.0
209,78.4896666375,78.6940783,72.0,52.0
210,78.6661371375,78.81760765,74.0,50.0
211,78.8426076375,78.973489925,76.0,53.0
212,77.78378463749999,78.991136975,60.0,81.0
213,79.0190781375,79.1514310125,72.0,36.0
214,79.1955486375,79.3529015,76.0,54.0
215,79.37201913749999,79.520548475,74.0,45.0
216,79.5484896375,79.6631954625,72.0,42.0
217,79.72496013749999,79.814665975,72.0,50.0
218,79.9014306375,80.05437173749999,76.0,47.0
219,80.07790113749999,80.214665775,74.0,52.0
220,80.2543716375,80.34407747499999,72.0,48.0
221,79.1955486375,80.41760685,57.0,74.0
222,80.4308421375,80.520547975,72.0,52.0
223,79.1955486375,80.5293715,60.0,80.0
224,80.6073126375,80.86025368749999,81.0,54.0
225,80.7837831375,81.0220183125,79.0,46.0
226,80.9602536375,81.1279006125,76.0,44.0
227,81.1367241375,81.2955475875,74.0,53.0
228,81.31319463749999,81.50290042499999,81.0,47.0
229,80.6073126375,81.697017975,59.0,83.0
230,81.4896651375,81.720547375,79.0,42.0
231,81.66613563749999,81.81760615,76.0,60.0
232,81.8426061375,81.94701785,74.0,51.0
233,81.66613563749999,81.9631943125,57.0,77.0
234,82.1955471375,82.36907646249999,76.0,54.0
235,82.3720176375,82.5455469625,74.0,53.0
236,82.5484881375,82.73378216249999,76.0,50.0
237,82.7249586375,82.9102526625,74.0,47.0
238,82.9014291375,83.09995845,76.0,49.0
239,83.0778996375,83.2573113125,77.0,41.0
240,82.01907663749999,83.326428925,55.0,83.0
241,83.25437013749999,83.38525242499999,76.0,45.0
242,83.4308406375,83.5764288,77.0,56.0
243,83.60731113749999,83.7573110625,76.0,47.0
244,83.7837816375,83.914663925,74.0,55.0
245,83.4308406375,84.0940756,60.0,80.0
246,83.4308406375,84.09995794999999,64.0,86.0
247,83.96025213749999,84.1220167625,76.0,49.0
248,84.1367226375,84.35731076249999,77.0,47.0
249,84.3131931375,84.48819304999999,76.0,56.0
250,84.4896636375,84.64113415,74.0,56.0
251,84.1367226375,84.7411341,67.0,84.0
252,84.6661341375,84.7999576,76.0,52.0
253,84.8426046375,84.991133975,76.0,53.0
254,85.0190751375,85.149957425,74.0,48.0
255,85.19554563749999,85.3573102625,72.0,42.0
256,85.3720161375,85.529369,74.0,48.0
257,85.54848663749999,85.7058395,76.0,44.0
258,85.7249571375,85.8926041125,74.0,48.0
259,85.90142763749999,86.0337805125,72.0,45.0
260,86.0778981375,86.15142751249999,81.0,53.0
261,86.2543686375,86.408780325,74.0,56.0
262,84.8426046375,86.48819205,69.0,89.0
263,86.4308391375,86.59995669999999,72.0,44.0
264,86.6073096375,86.7778977875,71.0,47.0
265,86.7837801375,86.9543682875,72.0,45.0
266,86.9602506375,87.11172115,74.0,48.0
267,87.13672113749999,87.26319166249999,72.0,47.0
268,86.2543686375,87.4396621625,67.0,80.0
269,87.3131916375,87.4720150875,71.0,48.0
270,87.48966213749999,87.5837797375,74.0,56.0
271,87.6661326375,87.81466197499999,76.0,54.0
272,87.84260313749999,87.9837795375,74.0,44.0
273,88.0190736375,88.1778970875,72.0,41.0
274,87.6661326375,88.2940735,56.0,76.0
275,88.1955441375,88.338191125,74.0,50.0
276,88.3720146375,88.5161322125,76.0,50.0
277,88.5484851375,88.69995564999999,74.0,47.0
278,88.7249556375,88.8367202875,72.0,54.0
279,88.3720146375,88.932308475,59.0,77.0
280,88.9014261375,88.9955437375,76.0,52.0
281,89.07789663749999,89.3102494625,76.0,52.0
282,89.43083763749999,89.5955434375,69.0,51.0
283,89.6073081375,89.808778625,71.0,46.0
284,89.78377863749999,90.279366625,72.0,51.0
285,89.07789663749999,90.397013625,60.0,89.0
286,90.4896606375,91.70142473749999,62.0,82.0
287,91.9014246375,92.95583587499999,55.0,79.0
288,91.9014246375,92.97201233749999,62.0,82.0
289,91.9014246375,93.1249534375,74.0,88.0
290,93.66612963749999,93.8396589625,74.0,72.0
291,93.8426001375,94.03524709999999,72.0,61.0
292,94.0190706375,94.21759995,79.0,68.0
293,94.1955411375,94.39407045,76.0,67.0
294,93.31318863749999,94.51612921249999,60.0,81.0
295,94.3720116375,94.57054095,74.0,67.0
296,93.31318863749999,94.573482125,65.0,82.0
297,94.5484821375,94.720540875,72.0,70.0
298,94.7249526375,95.0778936375,72.0,69.0
299,95.0778936375,95.2837758875,72.0,68.0
300,95.25436413749999,95.46465814999999,74.0,77.0
301,95.4308346375,95.5411287,79.0,64.0
302,95.60730513749999,95.71171685,81.0,72.0
303,95.7837756375,95.9043638125,84.0,95.0
304,95.9602461375,96.07201078749999,86.0,93.0
305,94.7249526375,96.1102460625,60.0,79.0
306,94.7249526375,96.1102460625,64.0,88.0
307,96.1367166375,96.9720103375,88.0,102.0
308,97.0190691375,97.197010225,86.0,89.0
309,97.19553963749999,97.3161278125,88.0,92.0
310,97.3720101375,97.52348065,91.0,93.0
311,97.54848063749999,98.149950925,88.0,88.0
312,98.4308331375,98.56171542499999,86.0,89.0
313,98.6073036375,98.75877415,88.0,89.0
314,98.78377413749999,98.91465642499999,93.0,95.0
315,98.9602446375,99.6940678,88.0,92.0
316,99.3131856375,99.76024423749999,57.0,82.0
317,99.6661266375,99.79995009999999,83.0,94.0
318,99.8425971375,100.0161264625,84.0,90.0
319,99.6661266375,100.0808323125,59.0,86.0
320,100.0190676375,100.12347935,86.0,89.0
321,100.1955381375,100.2896557375,91.0,89.0
322,100.0190676375,100.40583215,60.0,81.0
323,100.3720086375,101.07789063749999,88.0,84.0
324,101.07789063749999,101.39112577499999,76.0,90.0
325,101.43083163749999,101.5455374625,84.0,97.0
326,101.43083163749999,101.7073020875,79.0,88.0
327,101.6073021375,101.70877267499999,86.0,86.0
328,101.7837726375,102.438184075,81.0,83.0
329,101.7837726375,102.5396546125,88.0,95.0
330,102.66612513749999,102.7778897875,81.0,91.0
331,102.8425956375,102.985242625,88.0,90.0
332,103.01906613749999,103.13524255,81.0,89.0
333,102.4896546375,103.18230134999999,76.0,92.0
334,103.1955366375,103.80141868749999,74.0,92.0
335,103.1955366375,103.8396539625,86.0,92.0
336,103.9014186375,104.5411242,67.0,89.0
337,103.9014186375,104.94406517499999,84.0,90.0
338,104.60730063749999,105.31318263749999,72.0,76.0
339,105.31318263749999,105.6837706875,76.0,88.0
340,105.6661236375,105.96465289999999,77.0,84.0
341,105.31318263749999,106.00877052499999,67.0,88.0
342,106.0190646375,106.7249466375,79.0,86.0
343,106.7249466375,107.4234757,79.0,85.0
344,106.0190646375,107.4631815625,72.0,83.0
345,107.4308286375,108.18229885,64.0,88.0
346,108.3131811375,108.43376931249999,62.0,89.0
347,108.48965163749999,108.6234751,64.0,89.0
348,108.6661221375,108.8014161875,67.0,85.0
349,108.84259263749999,109.63229812499999,64.0,90.0
350,109.7249451375,109.83082743749999,62.0,89.0
351,109.9014156375,110.014650875,64.0,88.0
352,110.0778861375,110.20876842499999,67.0,76.0
353,111.13670913749999,111.2572973125,62.0,86.0
354,110.2543566375,111.420532525,64.0,92.0
355,111.3131796375,111.420532525,64.0,88.0
356,111.48965013749999,111.5984736125,67.0,89.0
357,111.6661206375,112.22494388749999,64.0,84.0
358,112.37200263749999,112.52347315,72.0,92.0
359,112.5484731375,112.644061325,71.0,82.0
360,112.72494363749999,112.9043553125,69.0,67.0
361,112.9014141375,112.997002325,67.0,87.0
362,113.07788463749999,113.74111959999999,64.0,91.0
363,113.9602371375,114.0808253125,62.0,91.0
364,114.1367076375,114.2543546375,64.0,90.0
365,114.31317813749999,114.4220016125,69.0,86.0
366,114.4896486375,115.25288354999999,64.0,90.0
367,115.37200113749999,115.4778834375,62.0,90.0
368,115.5484716375,115.6955303875,64.0,83.0
369,115.7249421375,115.838177375,67.0,89.0
370,115.9014126375,116.57494171249999,64.0,94.0
371,117.31317663749999,118.08376448749999,64.0,81.0
372,118.0190586375,118.45729371249999,62.0,80.0
373,118.3719996375,118.744058275,64.0,91.0
374,118.7249406375,118.744058275,64.0,88.0
375,119.6072931375,119.72788131249999,62.0,89.0
376,119.78376363749999,119.91758709999999,64.0,89.0
377,119.9602341375,120.0955281875,69.0,85.0
378,118.7249406375,120.12788111249999,57.0,82.0
379,120.13670463749999,120.92641012499999,64.0,90.0
380,121.0190571375,121.12493943749999,62.0,89.0
381,121.19552763749999,121.308762875,64.0,88.0
382,121.3719981375,121.502880425,69.0,76.0
383,121.5484686375,122.2543506375,64.0,92.0
384,122.2543506375,122.82346799999999,62.0,89.0
385,122.9602326375,124.01905563749999,60.0,80.0
386,124.72493763749999,125.1528786,52.0,84.0
387,125.2543491375,125.4587608,64.0,89.0
388,125.07787863749999,125.46317256249999,53.0,83.0
389,125.4308196375,125.60729013749999,65.0,92.0
390,125.60729013749999,125.7837606375,72.0,76.0
391,125.4308196375,125.81317238749999,60.0,88.0
392,125.7837606375,126.33670153749999,74.0,83.0
393,125.7837606375,126.538172025,59.0,88.0
394,126.4896426375,127.2072893375,55.0,82.0
395,126.8425836375,127.34846573749999,71.0,83.0
396,127.54846563749999,128.2469947,62.0,76.0
397,127.90140663749999,128.326406425,64.0,86.0
398,128.6072886375,128.97934727499998,61.0,75.0
399,128.2543476375,128.9955237375,69.0,84.0
400,128.9602296375,129.632288125,62.0,81.0
401,129.3131706375,129.6661116375,64.0,77.0
402,127.1955246375,129.855817425,57.0,83.0
403,129.6661116375,130.0014055875,69.0,82.0
404,130.01905263749998,130.2190525375,76.0,88.0
405,130.1955231375,130.35287599999998,74.0,88.0
406,130.3719936375,130.5484641375,76.0,81.0
407,130.5484641375,130.69993465,74.0,82.0
408,130.72493463749998,130.8822875,76.0,80.0
409,130.9014051375,131.0543462375,74.0,78.0
410,131.0778756375,131.27346377499998,76.0,79.0
411,130.01905263749998,131.40581665,57.0,78.0
412,131.2543461375,131.444051925,74.0,83.0
413,131.4308166375,131.6366988875,76.0,81.0
414,131.7837576375,131.9072869875,71.0,84.0
415,131.9602281375,132.144051575,72.0,81.0
416,132.1366986375,132.2396397625,74.0,88.0
417,132.4896396375,132.6366983875,71.0,84.0
418,131.4308166375,132.67787483749999,59.0,69.0
419,132.6661101375,132.802874775,72.0,83.0
420,133.1955216375,133.326403925,72.0,83.0
421,133.3719921375,133.5175803,74.0,81.0
422,133.5484626375,133.691109625,76.0,77.0
423,133.7249331375,133.88816835,74.0,81.0
424,133.90140363749998,134.0131682875,76.0,89.0
425,134.0778741375,134.1999329,79.0,84.0
426,134.2543446375,134.3602269375,76.0,88.0
427,134.60728563749998,134.744050275,71.0,88.0
428,134.7837561375,134.920520775,74.0,89.0
429,132.8425806375,135.0249324875,57.0,79.0
430,134.9602266375,135.1190500875,72.0,76.0
431,135.1366971375,135.33081468749998,71.0,80.0
432,134.9602266375,135.3484617375,59.0,79.0
433,135.3131676375,135.46463814999998,69.0,87.0
434,135.48963813749998,135.6102263125,67.0,79.0
435,135.3131676375,135.68816744999998,60.0,79.0
436,135.6661086375,135.8661085375,76.0,88.0
437,135.8425791375,135.999932,74.0,88.0
438,136.0190496375,136.19552013749998,76.0,81.0
439,136.19552013749998,136.34699064999998,74.0,82.0
440,136.3719906375,136.52934349999998,76.0,80.0
441,136.5484611375,136.7014022375,74.0,78.0
442,136.7249316375,136.920519775,76.0,79.0
443,135.6661086375,137.05287264999998,57.0,83.0
444,136.90140213749999,137.091107925,74.0,83.0
445,137.0778726375,137.28375488749998,76.0,81.0
446,137.4308136375,137.5543429875,71.0,84.0
447,137.6072841375,137.79110757499998,72.0,81.0
448,137.78375463749998,137.88669576249998,74.0,88.0
449,138.1366956375,138.28375438749998,71.0,84.0
450,138.3131661375,138.44993077499998,72.0,83.0
451,137.0778726375,138.48816605,55.0,80.0
452,138.8425776375,138.99110697499998,72.0,84.0
453,139.1955186375,139.385224425,74.0,86.0
454,139.5484596375,139.7058125,72.0,82.0
455,138.48963663749998,139.9014006375,60.0,81.0
456,139.7249301375,140.06463585,76.0,81.0
457,139.9014006375,140.57787088749998,64.0,85.0
458,140.6072826375,141.02934125,62.0,88.0
459,140.9602236375,141.3528705,60.0,81.0
460,141.3131646375,142.661693375,57.0,79.0
461,142.7249286375,144.04698679999998,59.0,81.0
462,144.1366926375,144.7175747,76.0,81.0
463,144.1366926375,144.8719863875,60.0,74.0
464,144.8425746375,145.46904491249998,74.0,80.0
465,144.8425746375,145.5778683875,59.0,77.0
466,145.54845663749998,146.2455151125,72.0,77.0
467,145.54845663749998,146.9602206375,57.0,78.0
468,146.9602206375,147.61757325,64.0,86.0
469,147.6661026375,148.04110244999998,62.0,76.0
470,148.0190436375,148.355808175,60.0,81.0
471,148.3719846375,149.0955136875,62.0,84.0
472,149.0778666375,149.70139573749998,59.0,80.0
473,150.13668963749998,150.38227775,65.0,83.0
474,150.4896306375,150.808748125,67.0,81.0
475,150.8425716375,151.149924425,74.0,88.0
476,151.1955126375,151.9013946375,72.0,81.0
477,151.5484536375,151.973453425,65.0,76.0
478,151.9013946375,152.314629725,67.0,82.0
479,152.2543356375,152.5925707625,74.0,84.0
480,149.7837486375,152.6366883875,60.0,83.0
481,152.9602176375,153.3984527125,55.0,75.0
482,153.31315863749998,153.71021726249998,60.0,83.0
483,152.6072766375,153.8102172125,72.0,90.0
484,153.6660996375,154.055805325,62.0,81.0
485,154.01904063749998,154.41609926249998,64.0,81.0
486,154.3719816375,154.7719814375,65.0,88.0
487,154.7249226375,155.43227522499998,67.0,84.0
488,155.4308046375,155.6455104125,76.0,52.0
489,155.60727513749998,155.81462797499998,74.0,52.0
490,155.7837456375,155.9425690875,72.0,50.0
491,155.9602161375,156.11168665,74.0,49.0
492,156.1366866375,156.33080418749998,76.0,47.0
493,156.31315713749999,156.4925688125,74.0,47.0
494,156.4896276375,156.6660981375,72.0,55.0
495,155.4308046375,156.70286282499998,100.0,81.0
496,156.6660981375,156.8425686375,74.0,55.0
497,156.8425686375,157.02786266249998,77.0,46.0
498,157.0190391375,157.261686075,72.0,48.0
499,157.19550963749998,157.3719801375,71.0,47.0
500,157.3719801375,157.52050947499998,72.0,43.0
501,157.5484506375,157.7528623,77.0,44.0
502,157.7249211375,157.9131563375,72.0,46.0
503,157.90139163749998,158.079332725,71.0,42.0
504,156.8425686375,158.1543326875,101.0,84.0
505,158.0778621375,158.18668561249999,72.0,48.0
506,158.4308031375,158.58227365,71.0,51.0
507,158.6072736375,158.7763912,67.0,49.0
508,158.78374413749998,158.9513911125,71.0,44.0
509,158.9602146375,159.191096875,67.0,45.0
510,159.1366851375,159.29109682499998,71.0,46.0
511,158.2543326375,159.344037975,100.0,84.0
512,159.3131556375,159.48227319999998,74.0,53.0
513,159.48962613749998,159.63227312499998,71.0,55.0
514,159.3131556375,159.69992015,98.0,81.0
515,159.8425671375,159.98962588749998,72.0,51.0
516,160.0190376375,160.202861075,71.0,42.0
517,160.19550813749998,160.31168455,72.0,53.0
518,160.37197863749998,160.57639029999999,72.0,50.0
519,160.5484491375,160.69991965,74.0,48.0
520,160.7249196375,160.85580192499998,76.0,51.0
521,159.6660966375,160.873448975,96.0,81.0
522,160.9013901375,161.0337430125,72.0,34.0
523,161.07786063749998,161.2352135,76.0,52.0
524,161.2543311375,161.40286047499998,74.0,43.0
525,161.4308016375,161.54550746249998,72.0,40.0
526,161.6072721375,161.69697797499998,72.0,48.0
527,161.78374263749998,161.9366837375,76.0,45.0
528,161.9602131375,162.096977775,74.0,50.0
529,162.1366836375,162.226389475,72.0,46.0
530,161.07786063749998,162.29991884999998,93.0,74.0
531,162.3131541375,162.40285997499998,72.0,50.0
532,161.07786063749998,162.41168349999998,96.0,80.0
533,162.4896246375,162.7425656875,81.0,52.0
534,162.66609513749998,162.90433031249998,79.0,44.0
535,162.8425656375,163.0102126125,76.0,42.0
536,163.0190361375,163.1778595875,74.0,51.0
537,163.1955066375,163.385212425,81.0,45.0
538,162.4896246375,163.57932997499998,95.0,83.0
539,163.37197713749998,163.60285937499998,79.0,40.0
540,163.5484476375,163.69991815,76.0,58.0
541,163.7249181375,163.82932985,74.0,49.0
542,163.5484476375,163.8455063125,93.0,77.0
543,164.07785913749998,164.2513884625,76.0,52.0
544,164.25432963749998,164.42785896249998,74.0,51.0
545,164.4308001375,164.6160941625,76.0,48.0
546,164.6072706375,164.79256466249998,74.0,45.0
547,164.7837411375,164.98227045,76.0,47.0
548,164.96021163749998,165.1396233125,77.0,39.0
549,163.9013886375,165.208740925,91.0,83.0
550,165.1366821375,165.267564425,76.0,43.0
551,165.3131526375,165.4587408,77.0,54.0
552,165.4896231375,165.6396230625,76.0,45.0
553,165.66609363749998,165.796975925,74.0,53.0
554,165.3131526375,165.97638759999998,96.0,80.0
555,165.3131526375,165.98226995,100.0,86.0
556,165.8425641375,166.0043287625,76.0,47.0
557,166.0190346375,166.2396227625,77.0,45.0
558,166.1955051375,166.37050505,76.0,54.0
559,166.3719756375,166.52344614999998,74.0,54.0
560,166.0190346375,166.6234461,103.0,84.0
561,166.54844613749998,166.68226959999998,76.0,50.0
562,166.7249166375,166.87344597499998,76.0,51.0
563,166.9013871375,167.03226942499998,74.0,46.0
564,167.0778576375,167.2396222625,72.0,40.0
565,167.25432813749998,167.411681,74.0,46.0
566,167.4307986375,167.58815149999998,76.0,42.0
567,167.6072691375,167.7749161125,74.0,46.0
568,167.7837396375,167.9160925125,72.0,43.0
569,167.96021013749998,168.0337395125,81.0,51.0
570,168.13668063749998,168.291092325,74.0,54.0
571,166.7249166375,168.37050405,105.0,89.0
572,168.3131511375,168.4822687,72.0,42.0
573,168.4896216375,168.66020978749998,71.0,45.0
574,168.6660921375,168.8366802875,72.0,43.0
575,168.84256263749998,168.99403314999998,74.0,46.0
576,169.0190331375,169.1455036625,72.0,45.0
577,168.13668063749998,169.3219741625,103.0,80.0
578,169.1955036375,169.3543270875,71.0,46.0
579,169.3719741375,169.4660917375,74.0,54.0
580,169.54844463749998,169.696973975,76.0,52.0
581,169.7249151375,169.86609153749998,74.0,42.0
582,169.9013856375,170.0602090875,72.0,39.0
583,169.54844463749998,170.17638549999998,92.0,76.0
584,170.0778561375,170.220503125,74.0,48.0
585,170.2543266375,170.39844421249998,76.0,48.0
586,170.43079713749998,170.58226765,74.0,45.0
587,170.6072676375,170.7190322875,72.0,52.0
588,170.2543266375,170.814620475,95.0,77.0
589,170.7837381375,170.8778557375,76.0,50.0
590,170.9602086375,171.19256146249998,76.0,50.0
591,171.3131496375,171.47785543749998,69.0,49.0
592,171.4896201375,171.691090625,71.0,44.0
593,171.6660906375,172.16167862499998,72.0,49.0
594,170.9602086375,172.27932562499998,96.0,89.0
595,172.3719726375,173.5837367375,98.0,82.0
596,173.7837366375,174.838147875,91.0,79.0
597,173.7837366375,174.8543243375,98.0,82.0
598,173.7837366375,175.0072654375,74.0,63.0
599,175.5484416375,175.7219709625,74.0,79.0
600,175.72491213749998,175.9175591,72.0,68.0
601,175.90138263749998,176.09991194999998,79.0,75.0
602,176.0778531375,176.27638245,76.0,74.0
603,175.1955006375,176.3984412125,96.0,81.0
604,176.2543236375,176.45285295,74.0,74.0
605,175.1955006375,176.45579412499998,101.0,82.0
606,176.4307941375,176.602852875,72.0,77.0
607,176.60726463749998,176.9602056375,72.0,76.0
608,176.9602056375,177.1660878875,72.0,75.0
609,177.1366761375,177.34697015,74.0,84.0
610,177.31314663749998,177.4234407,79.0,71.0
611,177.4896171375,177.59402885,81.0,79.0
612,176.60726463749998,177.9925580625,96.0,79.0
613,176.60726463749998,177.9925580625,100.0,88.0
614,178.01902863749999,178.23373441249998,76.0,52.0
615,178.19549913749998,178.402851975,74.0,52.0
616,178.3719696375,178.5307930875,72.0,50.0
617,178.5484401375,178.69991065,74.0,49.0
618,178.7249106375,178.9190281875,76.0,47.0
619,178.90138113749998,179.0807928125,74.0,47.0
620,179.0778516375,179.2543221375,72.0,55.0
621,178.01902863749999,179.29108682499998,100.0,81.0
622,179.2543221375,179.4307926375,74.0,55.0
623,179.4307926375,179.61608666249998,77.0,46.0
624,179.60726313749998,179.849910075,72.0,48.0
625,179.78373363749998,179.9602041375,71.0,47.0
626,179.9602041375,180.10873347499998,72.0,43.0
627,180.1366746375,180.3410863,77.0,44.0
628,180.3131451375,180.5013803375,72.0,46.0
629,180.48961563749998,180.667556725,71.0,42.0
630,179.4307926375,180.74255668749998,101.0,84.0
631,180.6660861375,180.77490961249998,72.0,48.0
632,181.0190271375,181.17049765,71.0,51.0
633,181.19549763749998,181.3646152,67.0,49.0
634,181.3719681375,181.5396151125,71.0,44.0
635,181.5484386375,181.779320875,67.0,45.0
636,181.7249091375,181.87932082499998,71.0,46.0
637,180.8425566375,181.932261975,100.0,84.0
638,181.90137963749999,182.0704972,74.0,53.0
639,182.07785013749998,182.22049712499998,71.0,55.0
640,181.90137963749999,182.28814415,98.0,81.0
641,182.4307911375,182.57784988749998,72.0,51.0
642,182.6072616375,182.79108507499998,71.0,42.0
643,182.78373213749998,182.89990855,72.0,53.0
644,182.9602026375,183.16461429999998,72.0,50.0
645,183.1366731375,183.28814365,74.0,48.0
646,183.3131436375,183.444025925,76.0,51.0
647,182.2543206375,183.461672975,96.0,81.0
648,183.48961413749998,183.6219670125,72.0,34.0
649,183.66608463749998,183.82343749999998,76.0,52.0
650,183.8425551375,183.99108447499998,74.0,43.0
651,184.0190256375,184.13373146249998,72.0,40.0
652,184.1954961375,184.28520197499998,72.0,48.0
653,184.37196663749998,184.5249077375,76.0,45.0
654,184.5484371375,184.685201775,74.0,50.0
655,184.7249076375,184.814613475,72.0,46.0
656,183.66608463749998,184.88814284999998,93.0,74.0
657,184.9013781375,184.99108397499998,72.0,50.0
658,183.66608463749998,184.99990749999998,96.0,80.0
659,185.07784863749998,185.3307896875,81.0,52.0
660,185.2543191375,185.4925543125,79.0,44.0
661,185.4307896375,185.5984366125,76.0,42.0
662,185.6072601375,185.7660835875,74.0,51.0
663,185.78373063749999,185.973436425,81.0,45.0
664,185.07784863749998,186.167553975,95.0,83.0
665,185.96020113749998,186.191083375,79.0,40.0
666,186.1366716375,186.28814215,76.0,58.0
667,186.3131421375,186.41755385,74.0,49.0
668,186.1366716375,186.4337303125,93.0,77.0
669,186.66608313749998,186.83961246249999,76.0,52.0
670,186.8425536375,187.01608296249998,74.0,51.0
671,187.0190241375,187.2043181625,76.0,48.0
672,187.1954946375,187.38078866249998,74.0,45.0
673,187.37196513749998,187.57049444999998,76.0,47.0
674,187.54843563749998,187.7278473125,77.0,39.0
675,186.4896126375,187.796964925,91.0,83.0
676,187.7249061375,187.855788425,76.0,43.0
677,187.9013766375,188.04696479999998,77.0,54.0
678,188.0778471375,188.2278470625,76.0,45.0
679,188.25431763749998,188.385199925,74.0,53.0
680,187.9013766375,188.56461159999998,96.0,80.0
681,187.9013766375,188.57049394999999,100.0,86.0
682,188.4307881375,188.5925527625,76.0,47.0
683,188.6072586375,188.8278467625,77.0,45.0
684,188.7837291375,188.95872905,76.0,54.0
685,188.96019963749998,189.11167014999998,74.0,54.0
686,188.6072586375,189.2116701,103.0,84.0
687,189.1366701375,189.27049359999998,76.0,50.0
688,189.3131406375,189.46166997499998,76.0,51.0
689,189.4896111375,189.62049342499998,74.0,46.0
690,189.66608163749999,189.8278462625,72.0,40.0
691,189.84255213749998,189.99990499999998,74.0,46.0
692,190.0190226375,190.17637549999998,76.0,42.0
693,190.1954931375,190.3631401125,74.0,46.0
694,190.3719636375,190.5043165125,72.0,43.0
695,190.54843413749998,190.6219635125,81.0,51.0
696,190.7249046375,190.879316325,74.0,54.0
697,189.3131406375,190.95872805,105.0,89.0
698,190.9013751375,191.0704927,72.0,42.0
699,191.0778456375,191.2484337875,71.0,45.0
700,191.25431613749998,191.4249042875,72.0,43.0
701,191.43078663749998,191.58225715,74.0,46.0
702,191.6072571375,191.7337276625,72.0,45.0
703,190.7249046375,191.9101981625,103.0,80.0
704,191.7837276375,191.9425510875,71.0,46.0
705,191.9601981375,192.0543157375,74.0,54.0
706,192.13666863749998,192.285197975,76.0,52.0
707,192.3131391375,192.45431553749998,74.0,42.0
708,192.4896096375,192.6484330875,72.0,39.0
709,192.13666863749998,192.76460949999998,92.0,76.0
710,192.6660801375,192.808727125,74.0,48.0
711,192.84255063749998,192.98666821249998,76.0,48.0
712,193.0190211375,193.17049165,74.0,45.0
713,193.1954916375,193.3072562875,72.0,52.0
714,192.84255063749998,193.402844475,95.0,77.0
715,193.3719621375,193.4660797375,76.0,50.0
716,193.54843263749999,193.78078546249998,76.0,50.0
717,193.9013736375,194.06607943749998,69.0,49.0
718,194.0778441375,194.27931462499998,71.0,44.0
719,194.2543146375,194.749902625,72.0,49.0
720,193.54843263749999,194.86754962499998,96.0,89.0
721,194.9601966375,196.1719607375,98.0,82.0
722,196.3719606375,197.426371875,91.0,79.0
723,196.3719606375,197.4425483375,98.0,82.0
724,196.3719606375,197.5954894375,74.0,63.0
725,198.1366656375,198.3101949625,74.0,79.0
726,198.31313613749998,198.5057831,72.0,68.0
727,198.4896066375,198.68813595,79.0,75.0
728,198.6660771375,198.86460645,76.0,74.0
729,197.7837246375,198.9866652125,96.0,81.0
730,198.8425476375,199.04107695,74.0,74.0
731,197.7837246375,199.04401812499998,101.0,82.0
732,199.01901813749998,199.191076875,72.0,77.0
733,199.19548863749998,199.5484296375,72.0,76.0
734,199.5484296375,199.7543118875,72.0,75.0
735,199.7249001375,199.93519415,74.0,84.0
736,199.90137063749998,200.01166469999998,79.0,71.0
737,200.0778411375,200.18225285,81.0,79.0
738,199.19548863749998,200.5807820625,96.0,79.0
739,199.19548863749998,200.5807820625,100.0,88.0
740,200.60725263749998,200.755781975,76.0,51.0
741,200.7837231375,200.914605425,74.0,46.0
742,200.9601936375,201.1219582625,72.0,40.0
743,201.1366641375,201.294017,74.0,46.0
744,201.31313463749999,201.4704875,76.0,42.0
745,201.48960513749998,201.6572521125,74.0,46.0
746,201.6660756375,201.79842851249998,72.0,43.0
747,201.8425461375,201.9160755125,81.0,51.0
748,202.0190166375,202.173428325,74.0,54.0
749,200.60725263749998,202.25284005,105.0,89.0
750,202.19548713749998,202.3646047,72.0,42.0
751,202.3719576375,202.5425457875,71.0,45.0
752,202.5484281375,202.71901628749998,72.0,43.0
753,202.7248986375,202.87636915,74.0,46.0
754,202.90136913749998,203.02783966249999,72.0,45.0
755,202.0190166375,203.20431016249998,103.0,80.0
756,203.07783963749998,203.23666308749998,71.0,46.0
757,203.2543101375,203.3484277375,74.0,54.0
758,203.4307806375,203.579309975,76.0,52.0
759,203.6072511375,203.7484275375,74.0,42.0
760,203.78372163749998,203.94254508749998,72.0,39.0
761,203.4307806375,204.0587215,92.0,76.0
762,203.9601921375,204.102839125,74.0,48.0
763,204.1366626375,204.2807802125,76.0,48.0
764,204.3131331375,204.46460365,74.0,45.0
765,204.48960363749998,204.60136828749998,72.0,52.0
766,204.1366626375,204.69695647499998,95.0,77.0
767,204.6660741375,204.76019173749998,76.0,50.0
768,204.8425446375,205.0748974625,76.0,50.0
769,205.19548563749998,205.3601914375,69.0,49.0
770,205.37195613749998,205.573426625,71.0,44.0
771,205.5484266375,206.044014625,72.0,49.0
772,204.8425446375,206.161661625,96.0,89.0
773,206.2543086375,207.46607273749999,98.0,82.0
774,207.66607263749998,208.72048387499999,91.0,79.0
775,207.66607263749998,208.73666033749998,98.0,82.0
776,207.66607263749998,208.88960143749998,74.0,63.0
777,209.4307776375,209.6043069625,74.0,79.0
778,209.6072481375,209.7998951,72.0,68.0
779,209.7837186375,209.98224795,79.0,75.0
780,209.96018913749998,210.15871844999998,76.0,74.0
781,209.07783663749998,210.2807772125,96.0,81.0
782,210.1366596375,210.33518895,74.0,74.0
783,209.07783663749998,210.338130125,101.0,82.0
784,210.3131301375,210.48518887499998,72.0,77.0
785,210.4896006375,210.84254163749998,72.0,76.0
786,210.4896006375,211.87489406249998,96.0,79.0
787,210.4896006375,211.87489406249998,100.0,88.0
788,211.9013646375,212.65283484999998,76.0,88.0
789,212.7837171375,212.9043053125,74.0,89.0
790,212.96018763749998,213.0940111,76.0,89.0
791,213.13665813749998,213.27195218749998,79.0,85.0
792,213.3131286375,214.102834125,76.0,90.0
793,214.1954811375,214.3013634375,74.0,89.0
794,214.3719516375,214.48518687499998,76.0,88.0
795,214.54842213749998,214.679304425,79.0,76.0
796,215.6072451375,215.7278333125,74.0,86.0
797,214.72489263749998,215.89106852499998,76.0,92.0
798,215.7837156375,215.89106852499998,76.0,88.0
799,215.9601861375,216.0690096125,79.0,89.0
800,216.13665663749998,216.6954798875,76.0,84.0
801,216.84253863749998,216.99400914999998,84.0,92.0
802,217.01900913749998,217.11459732499998,83.0,82.0
803,217.1954796375,217.37489131249998,81.0,67.0
804,217.3719501375,217.467538325,79.0,87.0
805,217.5484206375,218.2116556,76.0,91.0
806,218.43077313749998,218.55136131249998,74.0,91.0
807,218.60724363749998,218.72489063749998,76.0,90.0
808,218.7837141375,218.89253761249998,81.0,86.0
809,218.9601846375,219.72341955,76.0,90.0
810,219.8425371375,219.94841943749998,74.0,90.0
811,220.01900763749998,220.1660663875,76.0,83.0
812,220.1954781375,220.308713375,79.0,89.0
813,220.3719486375,221.0454777125,76.0,94.0
814,223.19547663749998,223.94694685,76.0,88.0
815,224.0778291375,224.1984173125,74.0,89.0
816,224.2542996375,224.3881231,76.0,89.0
817,224.4307701375,224.5660641875,81.0,85.0
818,224.60724063749998,225.396946125,76.0,90.0
819,225.48959313749998,225.5954754375,74.0,89.0
820,225.6660636375,225.779298875,76.0,88.0
821,225.8425341375,225.97341642499998,81.0,76.0
822,226.0190046375,226.7248866375,76.0,92.0
823,226.7248866375,227.294004,74.0,89.0
824,227.4307686375,228.48959163749998,72.0,80.0
825,229.7248851375,229.9292968,64.0,89.0
826,229.9013556375,230.07782613749998,65.0,92.0
827,230.07782613749998,230.25429663749998,72.0,76.0
828,230.25429663749998,230.8072375375,74.0,83.0
829,231.3131196375,231.8190017375,71.0,83.0
