,start,end,pitch,velocity
0,17.840070675,18.4329014625,70.0,90.0
1,18.575364675,18.8556955125,70.0,90.0
2,18.943011674999997,19.138324143749998,77.0,90.0
3,19.310658675,19.630052006249997,77.0,90.0
4,19.678305674999997,20.052846056249997,73.0,90.0
5,20.045952675,20.2711364625,75.0,90.0
6,20.413599674999997,20.7306952125,75.0,90.0
7,20.781246675,21.130511324999997,73.0,90.0
8,21.148893675,21.695768587499998,70.0,90.0
9,21.884187675,22.24494129375,70.0,90.0
10,22.251834674999998,22.920492656249998,68.0,90.0
11,22.987128674999997,23.152569824999997,65.0,90.0
12,23.354775675,23.85799250625,65.0,90.0
13,23.722422674999997,24.000455718749997,68.0,90.0
14,24.090069675,24.2692975875,73.0,90.0
15,24.457716674999997,25.404407699999997,70.0,90.0
16,26.663598675,27.4126794375,77.0,90.0
17,27.398892675,27.736668356249996,75.0,90.0
18,27.766539674999997,27.93427861875,77.0,90.0
19,28.134186675,28.405326337499996,77.0,90.0
20,28.501833674999997,28.91773434375,73.0,90.0
21,28.869480675,29.06019755625,75.0,90.0
22,29.237127674999996,29.627752612499997,75.0,90.0
23,29.604774674999998,29.94484815,73.0,90.0
24,29.972421674999996,30.698524499999998,75.0,90.0
25,30.707715675,31.08225605625,73.0,90.0
26,31.075362674999997,31.608450825,72.0,90.0
27,31.810656674999997,31.941630918749997,72.0,90.0
28,32.178303674999995,32.343744824999995,72.0,90.0
29,32.545950675,32.9411712,72.0,90.0
30,32.913597675,33.1479726375,68.0,90.0
31,33.281244674999996,34.349718768749995,77.0,90.0
32,34.751832674999996,34.949442937499995,70.0,90.0
33,35.119479675,35.450361975,70.0,90.0
34,35.487126675,36.2453986125,82.0,90.0
35,36.222420674999995,36.592365468749996,80.0,90.0
36,36.590067675,36.94163011875,82.0,90.0
37,36.957714675,37.173707287499994,77.0,90.0
38,37.325361674999996,37.704497643749995,77.0,90.0
39,37.693008674999994,37.92508584375,80.0,90.0
40,38.060655675,38.361666656249994,80.0,90.0
41,38.428302675,38.784460706249995,77.0,90.0
42,38.795949674999996,39.372695906249994,80.0,90.0
43,39.531243675,39.94714434375,73.0,90.0
44,39.898890675,40.0781185875,75.0,90.0
45,40.266537674999995,40.636482468749996,75.0,90.0
46,40.634184675,40.935195656249995,73.0,90.0
47,41.001831675,41.14199709375,75.0,90.0
48,41.369478674999996,41.6544051,75.0,90.0
49,41.737125674999994,41.902566824999994,73.0,90.0
50,42.104772675,42.42416600625,73.0,90.0
51,42.472419675,43.432897462499994,77.0,90.0
52,44.310654674999995,44.57949654375,70.0,90.0
53,44.678301675,44.850636206249995,70.0,90.0
54,45.045948675,45.305599368749995,70.0,90.0
55,45.413595674999996,46.1902499625,77.0,90.0
56,46.148889675,46.53721681875,73.0,90.0
57,46.516536675,46.71644473125,75.0,90.0
58,46.884183674999996,47.28170199375,75.0,90.0
59,47.251830674999994,47.63096664375,73.0,90.0
60,47.619477675,48.056058487499996,75.0,90.0
61,48.354771674999995,48.701738531249994,73.0,90.0
62,48.72241867499999,48.979771574999994,72.0,90.0
63,49.090065675,49.24631565,72.0,90.0
64,49.457712674999996,49.611664856249995,72.0,90.0
65,49.825359674999994,50.16543315,72.0,90.0
66,50.193006675,50.521591181249995,68.0,90.0
67,50.560653675,50.976554343749996,72.0,90.0
68,50.928300674999996,52.123153425,70.0,90.0
69,71.7968635125,72.31846269374999,70.0,90.0
70,72.53215751249999,72.83316849375,70.0,90.0
71,72.8998045125,73.12958388749999,77.0,90.0
72,73.26745151249999,73.5707602875,77.0,90.0
73,73.6350985125,73.97517198749999,73.0,90.0
74,74.0027455125,74.2279293,75.0,90.0
75,74.37039251249999,74.74033730625,75.0,90.0
76,74.72195495624999,75.02296593749999,73.0,90.0
77,75.10798430624999,75.69851729999999,70.0,90.0
78,75.8409805125,76.16726722499999,70.0,90.0
79,76.2086275125,76.89566784374999,68.0,90.0
80,76.9439215125,77.13234059999999,65.0,90.0
81,77.31156851249999,77.64474860624999,65.0,90.0
82,77.6792155125,77.9733331125,68.0,90.0
83,78.0468625125,78.42370068749999,72.0,90.0
84,78.41450951249999,79.65302034375,70.0,90.0
85,80.67339395625,80.85626430833332,77.0,90.0
86,81.04376428958332,81.46274572916666,77.0,90.0
87,81.41413462291666,81.7497827375,75.0,90.0
88,81.78450495624999,82.48357896041666,77.0,90.0
89,82.52524562291666,82.77987522708332,73.0,90.0
90,82.89561595625,83.12709741458333,75.0,90.0
91,83.26598628958332,83.66876402708333,75.0,90.0
92,83.63635662291667,84.01367139999999,73.0,90.0
93,84.00672695624999,84.81228243125,75.0,90.0
94,84.74746762291666,85.11552314166666,73.0,90.0
95,85.11783795624999,85.76135641041665,72.0,90.0
96,85.85857862291665,86.00441194166666,72.0,90.0
97,86.22894895625,86.38635634791666,72.0,90.0
98,86.59931928958332,86.95580073541666,72.0,90.0
99,86.96968962291666,87.29376366458332,68.0,90.0
100,87.34700439999999,88.36783763125,77.0,90.0
101,88.80302277291666,88.99746719791666,70.0,90.0
102,89.17339310624999,89.48820788958332,70.0,90.0
103,89.54376343958333,90.30765225208333,82.0,90.0
104,90.28450410625,90.68728184374999,80.0,90.0
105,90.65487443958332,90.95117070625,82.0,90.0
106,91.02524477291666,91.27061511874999,77.0,90.0
107,91.39561510624999,91.76830025416666,77.0,90.0
108,91.76598543958332,92.06922614999999,80.0,90.0
109,92.13635577291666,92.46505944375,80.0,90.0
110,92.50672610624999,92.90487421458333,77.0,90.0
111,92.87709643958333,93.24283714375,80.0,90.0
112,93.61783710625,94.02987410208333,73.0,90.0
113,93.98820743958332,94.18496667916666,75.0,90.0
114,94.35857777291666,94.68496662916665,75.0,90.0
115,94.72894810624999,95.09005918124998,73.0,90.0
116,95.09931843958333,95.41413322291666,75.0,90.0
117,95.46968877291665,95.76135541041666,75.0,90.0
118,95.84005910625,96.23126277083333,73.0,90.0
119,96.21042943958332,96.52061459375,80.0,90.0
120,96.58079977291666,97.50904042083332,77.0,90.0
121,98.43265143958332,99.07385507916666,70.0,90.0
122,99.17339210624999,99.48820688958332,70.0,90.0
123,99.54376243958333,99.77292908333332,77.0,90.0
124,99.91413277291666,100.29376236458333,77.0,90.0
125,100.28450310624999,100.65255862499998,73.0,90.0
126,100.65487343958333,100.92570674583332,75.0,90.0
127,101.02524377291665,101.38635484791666,75.0,90.0
128,101.39561410625,101.77987332708332,73.0,90.0
129,101.76598443958332,102.47663251666665,75.0,90.0
130,102.50672510624999,102.82153988958332,73.0,90.0
131,102.87709543958333,103.62015092083332,72.0,90.0
132,103.61783610625,103.78913238541665,65.0,90.0
133,103.98820643958332,104.27524344791667,65.0,90.0
134,104.35857677291665,104.51829897916666,72.0,90.0
135,104.72894710624999,104.88866931249999,72.0,90.0
136,105.09936111458332,105.48615340624998,72.0,90.0
137,105.47671944791665,106.33049267708333,70.0,90.0
138,106.64181330208332,106.86115283333332,70.0,90.0
139,107.01917163541665,107.40596392708332,70.0,90.0
140,107.46728465624999,108.25737866666665,82.0,90.0
141,108.22200132291665,108.60171814583332,80.0,90.0
142,108.59935965624999,108.98143496875,82.0,90.0
143,108.97671798958332,109.22200090624999,77.0,90.0
144,109.35407632291665,109.74558559375,77.0,90.0
145,109.73143465624999,109.96020814583332,80.0,90.0
146,110.10879298958332,110.42954757291665,80.0,90.0
147,110.48615132291665,110.88237757291665,77.0,90.0
148,110.86350965624999,111.38473585416665,80.0,90.0
149,111.61822632291666,111.99086767708332,73.0,90.0
150,111.99558465624999,112.16303741666665,75.0,90.0
151,112.37294298958332,112.68426361458332,75.0,90.0
152,112.75030132291666,113.11115022916665,73.0,90.0
153,113.12765965624999,113.31398033333332,75.0,90.0
154,113.50501798958332,113.81869710416666,75.0,90.0
155,113.88237632291666,114.03803663541666,73.0,90.0
156,114.25973465624999,114.59228168749999,73.0,90.0
157,114.63709298958332,116.13945085416665,77.0,90.0
158,116.51445069791666,116.73614871874999,70.0,90.0
159,116.89180903124999,117.07577121874999,70.0,90.0
160,117.26916736458332,117.52624272916665,70.0,90.0
161,117.64652569791666,118.40124236458333,77.0,90.0
162,118.40124236458333,118.78095918749999,73.0,90.0
163,118.77860069791666,119.02152512499998,75.0,90.0
164,119.15595903124999,119.54510981249999,75.0,90.0
165,119.54275132291666,119.93661908333331,73.0,90.0
166,119.91303418749999,120.50265658333332,75.0,90.0
167,120.66539236458331,121.01444882291665,73.0,90.0
168,121.04275069791666,121.27859965624998,72.0,90.0
169,121.42010903124998,121.58992028124999,72.0,90.0
170,121.79746736458333,121.95312767708332,72.0,90.0
171,122.17482569791665,122.51680668749998,72.0,90.0
172,122.55218403125,122.89888199999999,65.0,90.0
173,122.92954236458331,123.32812710416665,72.0,90.0
174,123.30690069791666,124.08991923958332,70.0,90.0
175,124.81633403125,124.98614528124999,70.0,90.0
176,125.19369236458331,125.45784319791665,70.0,90.0
177,125.57812616666665,126.32340887499998,82.0,90.0
178,126.33048434374999,126.71491814583332,80.0,90.0
179,126.70784267708332,127.05454064583333,82.0,90.0
180,127.08520101041665,127.33520090624998,77.0,90.0
181,127.46255934374999,127.82812522916666,77.0,90.0
182,127.83991767708332,128.13944585416664,80.0,90.0
183,128.21727601041664,128.530955125,80.0,90.0
184,128.59463434375,128.9696341875,77.0,90.0
185,128.9719926770833,129.46255851041664,80.0,90.0
186,129.72670934374997,130.11114314583332,73.0,90.0
187,130.10406767708332,130.33991663541664,75.0,90.0
188,130.48142601041664,130.83519944791664,75.0,90.0
189,130.85878434375,131.21255778124998,73.0,90.0
190,131.2361426770833,131.3776520520833,75.0,90.0
191,131.61350101041666,132.01444423958333,75.0,90.0
192,131.99085934374997,132.28802903124998,73.0,90.0
193,132.36821767708332,132.70312319791665,80.0,90.0
194,132.74557601041664,133.79982085416665,77.0,90.0
195,134.62765069791664,134.99557507291667,70.0,90.0
196,135.36585793749998,135.63944272916666,70.0,90.0
197,135.75265022916665,136.05217840625,77.0,90.0
198,136.1300085625,136.47906502083333,77.0,90.0
199,136.4979329375,136.89180069791666,73.0,90.0
200,136.89180069791666,137.17010246874997,75.0,90.0
201,137.26915903124998,137.63000793749998,75.0,90.0
202,137.6465173645833,138.0215172083333,73.0,90.0
203,138.02387569791665,138.8068942395833,75.0,90.0
204,138.77859236458332,139.13708278125,73.0,90.0
205,139.15595069791664,139.65595048958332,72.0,90.0
206,139.91066736458333,140.1205729375,65.0,90.0
207,140.28802569791665,140.63236517708333,65.0,90.0
208,140.66538403124997,140.85170470833333,72.0,90.0
209,141.04274236458332,141.2196290833333,72.0,90.0
210,141.42010069791667,141.8210439270833,72.0,90.0
211,141.79745903124999,142.59462851041664,70.0,90.0
