,start,end,pitch,velocity
0,27.020312500000003,27.346875,71.0,87.0
1,27.395312500000003,27.6875,76.0,89.0
2,27.770312500000003,28.0375,78.0,86.0
3,28.145312500000003,28.434375000000003,80.0,81.0
4,28.520312500000003,28.796875,78.0,83.0
5,28.895312500000003,29.4953125,76.0,85.0
6,29.645312500000003,30.278125000000003,80.0,86.0
7,30.395312500000003,31.431250000000002,78.0,85.0
8,31.520312500000003,31.8046875,71.0,86.0
9,31.895312500000003,32.7875,71.0,85.0
10,33.0203125,33.3828125,68.0,91.0
11,33.3953125,33.66875,73.0,92.0
12,33.7703125,34.040625,75.0,88.0
13,34.1453125,34.534375000000004,76.0,86.0
14,34.5203125,34.86875,75.0,89.0
15,34.8953125,35.5046875,73.0,90.0
16,35.6453125,36.296875,76.0,87.0
17,36.3953125,37.3671875,75.0,85.0
18,37.5203125,37.8375,68.0,87.0
19,37.8953125,38.775000000000006,71.0,86.0
20,39.3953125,39.6609375,73.0,88.0
21,39.7703125,40.059375,71.0,85.0
22,40.1453125,40.4421875,71.0,85.0
23,40.5203125,40.796875,69.0,89.0
24,40.8953125,41.1703125,71.0,87.0
25,41.2703125,41.7734375,76.0,81.0
26,42.0203125,42.296875,69.0,89.0
27,42.3953125,43.150000000000006,68.0,91.0
28,43.1453125,43.4609375,78.0,92.0
29,43.5203125,44.734375,76.0,86.0
30,45.0203125,45.134375000000006,78.0,91.0
31,45.2078125,45.3265625,80.0,85.0
32,45.3953125,45.69375,81.0,89.0
33,45.7703125,46.087500000000006,80.0,88.0
34,46.1453125,46.401562500000004,78.0,88.0
35,46.5203125,46.7578125,76.0,86.0
36,46.8953125,47.4359375,76.0,86.0
37,47.6453125,48.2578125,73.0,94.0
38,48.3953125,50.790625000000006,78.0,85.0
39,51.0203125,51.346875000000004,71.0,87.0
40,51.3953125,51.6875,76.0,89.0
41,51.7703125,52.0375,78.0,86.0
42,52.1453125,52.434375,80.0,81.0
43,52.5203125,52.796875,78.0,83.0
44,52.8953125,53.495312500000004,76.0,85.0
45,53.6453125,54.278125,80.0,86.0
46,54.3953125,55.431250000000006,78.0,85.0
47,55.5203125,55.8046875,75.0,86.0
48,55.8953125,56.7875,71.0,85.0
49,57.0203125,57.3828125,68.0,91.0
50,57.3953125,57.66875,73.0,92.0
51,57.7703125,58.040625000000006,75.0,88.0
52,58.1453125,58.534375000000004,76.0,86.0
53,58.5203125,58.868750000000006,75.0,89.0
54,58.8953125,59.5046875,73.0,90.0
55,59.6453125,60.296875,76.0,87.0
56,60.3953125,61.3671875,75.0,85.0
57,61.5203125,61.837500000000006,68.0,87.0
58,61.8953125,62.775000000000006,71.0,86.0
59,63.3953125,63.6609375,73.0,88.0
60,63.7703125,64.059375,71.0,85.0
61,64.1453125,64.4421875,71.0,85.0
62,64.5203125,64.796875,69.0,89.0
63,64.8953125,65.17031250000001,71.0,87.0
64,65.2703125,66.0203125,76.0,81.0
65,66.3953125,67.15,78.0,91.0
66,67.5203125,67.8359375,80.0,92.0
67,67.8953125,68.6453125,76.0,86.0
68,68.6453125,68.921875,73.0,85.0
69,69.0203125,69.259375,75.0,89.0
70,69.3953125,69.759375,76.0,89.0
71,69.7703125,69.940625,73.0,88.0
72,70.1453125,70.6921875,73.0,92.0
73,70.8953125,71.38906250000001,76.0,89.0
74,71.4578125,71.9109375,85.0,89.0
75,72.0203125,72.659375,83.0,92.0
76,72.7703125,75.2234375,83.0,90.0
77,77.6453125,78.0046875,78.0,89.0
78,78.0203125,78.35625,76.0,92.0
79,78.3953125,78.8515625,83.0,89.0
80,78.9578125,79.41718750000001,80.0,88.0
81,79.5203125,79.78437500000001,80.0,86.0
82,79.8953125,80.2,78.0,86.0
83,80.2703125,80.5953125,76.0,89.0
84,80.6453125,80.953125,75.0,94.0
85,81.0203125,81.13906250000001,76.0,87.0
86,81.2078125,81.31093750000001,75.0,89.0
87,81.3953125,81.890625,73.0,96.0
88,82.1453125,82.5203125,68.0,86.0
89,82.5203125,83.4890625,73.0,84.0
90,83.6453125,83.978125,76.0,96.0
91,84.0203125,84.24375,78.0,87.0
92,84.2078125,84.37812500000001,76.0,88.0
93,84.3953125,84.884375,85.0,80.0
94,84.9578125,85.05625,81.0,87.0
95,85.1453125,85.44843750000001,81.0,83.0
96,85.5203125,85.775,80.0,88.0
97,85.8953125,86.1875,81.0,87.0
98,86.2703125,86.58125000000001,73.0,88.0
99,86.6453125,86.94375000000001,75.0,96.0
100,87.0203125,87.31875000000001,76.0,87.0
101,87.3953125,89.2703125,78.0,89.0
102,90.0203125,90.21406250000001,80.0,91.0
103,90.2078125,90.3484375,81.0,86.0
104,90.3953125,90.68281250000001,83.0,92.0
105,90.7703125,91.01093750000001,83.0,90.0
106,91.1453125,91.36875,83.0,94.0
107,91.5203125,91.84375,85.0,87.0
108,91.8953125,92.8765625,76.0,87.0
109,93.7703125,94.140625,83.0,86.0
110,94.1453125,94.5625,75.0,90.0
111,94.5203125,94.9453125,78.0,86.0
112,94.8953125,95.7,76.0,85.0
113,96.0203125,96.13593750000001,78.0,89.0
114,96.2078125,96.34375,80.0,88.0
115,96.3953125,97.0359375,73.0,96.0
116,97.1453125,97.796875,76.0,88.0
117,97.8953125,98.275,81.0,92.0
118,98.2703125,98.446875,80.0,86.0
119,98.4578125,98.8921875,81.0,94.0
120,99.0203125,99.375,83.0,96.0
121,99.3953125,99.79531250000001,80.0,89.0
122,99.77968750000001,100.96875,78.0,97.0
123,101.6453125,102.0046875,78.0,89.0
124,102.0203125,102.35625,76.0,92.0
125,102.3953125,102.8515625,83.0,89.0
126,102.9578125,103.41718750000001,80.0,88.0
127,103.5203125,103.78437500000001,80.0,86.0
128,103.8953125,104.2,78.0,86.0
129,104.2703125,104.5953125,76.0,89.0
130,104.6453125,104.953125,75.0,94.0
131,105.0203125,105.13906250000001,76.0,87.0
132,105.2078125,105.31093750000001,75.0,89.0
133,105.3953125,105.890625,73.0,96.0
134,106.1453125,106.5203125,68.0,86.0
135,106.5203125,107.4890625,73.0,84.0
136,107.6453125,107.978125,76.0,96.0
137,108.0203125,108.24375,78.0,87.0
138,108.2078125,108.37812500000001,76.0,88.0
139,108.3953125,108.884375,85.0,80.0
140,108.9578125,109.05625,81.0,87.0
141,109.1453125,109.44843750000001,81.0,83.0
142,109.5203125,109.775,80.0,88.0
143,109.8953125,110.1875,81.0,87.0
144,110.2703125,110.58125000000001,73.0,88.0
145,110.6453125,110.94375000000001,75.0,96.0
146,111.0203125,111.31875000000001,76.0,87.0
147,111.3953125,113.2703125,78.0,89.0
148,114.0203125,114.21406250000001,80.0,91.0
149,114.2078125,114.3484375,81.0,86.0
150,114.3953125,114.68281250000001,83.0,92.0
151,114.7703125,115.01093750000001,83.0,90.0
152,115.1453125,115.36875,83.0,94.0
153,115.5203125,115.84375,85.0,87.0
154,115.8953125,116.8765625,76.0,87.0
155,118.15,118.5203125,83.0,86.0
156,118.525,118.7,75.0,90.0
157,118.7,118.87812500000001,78.0,86.0
158,118.9,119.7046875,76.0,85.0
159,120.0203125,120.13593750000001,78.0,89.0
160,120.2078125,120.34375,80.0,88.0
161,120.3953125,121.0359375,81.0,96.0
162,121.1453125,121.796875,73.0,88.0
163,121.8953125,122.275,81.0,92.0
164,122.2703125,122.6453125,80.0,86.0
165,122.6453125,123.0796875,76.0,94.0
166,123.0203125,123.375,78.0,96.0
167,123.3953125,125.6453125,76.0,89.0
168,144.02031250000002,144.346875,71.0,87.0
169,144.39531250000002,144.6875,76.0,89.0
170,144.77031250000002,145.0375,78.0,86.0
171,145.14531250000002,145.43437500000002,80.0,81.0
172,145.52031250000002,145.796875,78.0,83.0
173,145.89531250000002,146.4953125,76.0,85.0
174,146.64531250000002,147.27812500000002,80.0,86.0
175,147.39531250000002,148.43125,78.0,85.0
176,148.52031250000002,148.8046875,75.0,86.0
177,148.89531250000002,149.7875,71.0,85.0
178,150.02031250000002,150.3828125,68.0,91.0
179,150.39531250000002,150.66875000000002,73.0,92.0
180,150.77031250000002,151.040625,75.0,88.0
181,151.14531250000002,151.534375,76.0,86.0
182,151.52031250000002,151.86875,75.0,89.0
183,151.89531250000002,152.50468750000002,73.0,90.0
184,152.64531250000002,153.296875,76.0,87.0
185,153.39531250000002,154.3671875,75.0,85.0
186,154.52031250000002,154.8375,68.0,87.0
187,154.89531250000002,155.775,71.0,86.0
188,156.39531250000002,156.66093750000002,73.0,88.0
189,156.77031250000002,157.05937500000002,71.0,85.0
190,157.14531250000002,157.44218750000002,71.0,85.0
191,157.52031250000002,157.796875,69.0,89.0
192,157.89531250000002,158.17031250000002,71.0,87.0
193,158.27031250000002,159.02031250000002,76.0,81.0
194,159.39531250000002,160.15,78.0,91.0
195,160.52031250000002,160.8359375,83.0,92.0
196,160.90312500000002,161.1484375,80.0,97.0
197,161.078125,161.35625000000002,78.0,97.0
198,161.27968750000002,161.64531250000002,76.0,86.0
199,161.64531250000002,161.921875,73.0,85.0
200,162.02031250000002,162.259375,75.0,89.0
201,162.39531250000002,162.759375,76.0,89.0
202,162.77031250000002,162.940625,73.0,88.0
203,163.14531250000002,163.69218750000002,73.0,92.0
204,163.89531250000002,164.38906250000002,76.0,89.0
205,164.45781250000002,164.91093750000002,85.0,89.0
206,165.02031250000002,165.659375,83.0,92.0
207,165.77031250000002,168.22343750000002,83.0,90.0
208,170.64531250000002,171.00468750000002,78.0,89.0
209,171.02031250000002,171.35625000000002,76.0,92.0
210,171.39531250000002,171.8515625,83.0,89.0
211,171.95781250000002,172.4171875,80.0,88.0
212,172.52031250000002,172.784375,80.0,86.0
213,172.89531250000002,173.20000000000002,78.0,86.0
214,173.27031250000002,173.5953125,76.0,89.0
215,173.64531250000002,173.953125,75.0,94.0
216,174.02031250000002,174.13906250000002,76.0,87.0
217,174.20781250000002,174.31093750000002,75.0,89.0
218,174.39531250000002,174.890625,73.0,96.0
219,175.14531250000002,175.52031250000002,68.0,86.0
220,175.52031250000002,176.48906250000002,73.0,84.0
221,176.64531250000002,176.978125,76.0,96.0
222,177.02031250000002,177.24375,78.0,87.0
223,177.20781250000002,177.378125,76.0,88.0
224,177.39531250000002,177.884375,85.0,80.0
225,177.95781250000002,178.05625,81.0,87.0
226,178.14531250000002,178.4484375,81.0,83.0
227,178.52031250000002,178.775,80.0,88.0
228,178.89531250000002,179.1875,81.0,87.0
229,179.27031250000002,179.58125,73.0,88.0
230,179.64531250000002,179.94375000000002,75.0,96.0
231,180.02031250000002,180.31875000000002,76.0,87.0
232,180.39531250000002,182.27031250000002,78.0,89.0
233,183.02031250000002,183.2140625,80.0,91.0
234,183.20781250000002,183.34843750000002,81.0,86.0
235,183.39531250000002,183.6828125,83.0,92.0
236,183.77031250000002,184.0109375,83.0,90.0
237,184.14531250000002,184.36875,83.0,94.0
238,184.52031250000002,184.84375,85.0,87.0
239,184.89531250000002,185.8765625,76.0,87.0
240,186.77031250000002,187.140625,83.0,86.0
241,187.14531250000002,187.5625,75.0,90.0
242,187.52031250000002,187.9453125,78.0,86.0
243,187.89531250000002,188.70000000000002,76.0,85.0
244,189.02031250000002,189.1359375,78.0,89.0
245,189.20781250000002,189.34375,80.0,88.0
246,189.39531250000002,190.03593750000002,73.0,96.0
247,190.14531250000002,190.796875,76.0,88.0
248,190.89531250000002,191.275,81.0,92.0
249,191.27031250000002,191.446875,80.0,86.0
250,191.45781250000002,191.8921875,81.0,94.0
251,192.02031250000002,192.375,83.0,96.0
252,192.39531250000002,192.775,80.0,89.0
253,192.77031250000002,194.3765625,78.0,87.0
254,194.64531250000002,195.00468750000002,78.0,89.0
255,195.02031250000002,195.35625000000002,76.0,92.0
256,195.39531250000002,195.8515625,83.0,89.0
257,195.95781250000002,196.4171875,80.0,88.0
258,196.52031250000002,196.784375,80.0,86.0
259,196.89531250000002,197.20000000000002,78.0,86.0
260,197.27031250000002,197.5953125,76.0,89.0
261,197.64531250000002,197.953125,75.0,94.0
262,198.02031250000002,198.13906250000002,76.0,87.0
263,198.20781250000002,198.31093750000002,75.0,89.0
264,198.39531250000002,198.890625,73.0,96.0
265,199.14531250000002,199.52031250000002,68.0,86.0
266,199.52031250000002,200.48906250000002,73.0,84.0
267,200.64531250000002,200.978125,76.0,96.0
268,201.02031250000002,201.24375,78.0,87.0
269,201.20781250000002,201.378125,76.0,88.0
270,201.39531250000002,201.884375,85.0,80.0
271,201.95781250000002,202.05625,81.0,87.0
272,202.14531250000002,202.4484375,81.0,83.0
273,202.52031250000002,202.775,80.0,88.0
274,202.89531250000002,203.1875,81.0,87.0
275,203.27031250000002,203.58125,73.0,88.0
276,203.64531250000002,203.94375000000002,75.0,96.0
277,204.02031250000002,204.31875000000002,76.0,87.0
278,204.39531250000002,206.27031250000002,78.0,89.0
279,207.02031250000002,207.2140625,80.0,91.0
280,207.20781250000002,207.34843750000002,81.0,86.0
281,207.39531250000002,207.6828125,83.0,92.0
282,207.77031250000002,208.0109375,83.0,90.0
283,208.14531250000002,208.36875,83.0,94.0
284,208.52031250000002,208.84375,85.0,87.0
285,208.9015625,209.2421875,78.0,97.0
286,209.2734375,209.8765625,76.0,87.0
287,211.16093750000002,211.53125,83.0,86.0
288,211.53593750000002,211.7421875,75.0,90.0
289,211.71562500000002,211.95625,78.0,86.0
290,211.9015625,212.70625,76.0,85.0
291,213.02031250000002,213.1359375,78.0,89.0
292,213.20781250000002,213.34375,80.0,88.0
293,213.39531250000002,214.03593750000002,81.0,96.0
294,214.14531250000002,214.796875,73.0,88.0
295,214.89531250000002,215.275,81.0,92.0
296,215.27031250000002,215.64531250000002,80.0,86.0
297,215.64531250000002,216.0796875,76.0,94.0
298,216.02031250000002,216.375,78.0,96.0
299,216.39531250000002,218.64531250000002,76.0,89.0
300,219.02031250000002,219.2140625,80.0,91.0
301,219.20781250000002,219.34843750000002,81.0,86.0
302,219.39531250000002,219.6828125,83.0,92.0
303,219.77031250000002,220.0109375,83.0,90.0
304,220.14531250000002,220.36875,83.0,94.0
305,220.52031250000002,220.84375,85.0,87.0
306,220.89531250000002,221.8765625,76.0,87.0
307,222.77031250000002,223.140625,83.0,86.0
308,223.14531250000002,223.5625,75.0,90.0
309,223.52031250000002,223.9453125,78.0,86.0
310,223.89531250000002,224.70000000000002,76.0,85.0
311,225.02031250000002,225.1359375,78.0,89.0
312,225.20781250000002,225.34375,80.0,88.0
313,225.39531250000002,226.03593750000002,80.0,96.0
314,226.14531250000002,226.796875,73.0,88.0
315,226.89531250000002,227.275,81.0,92.0
316,227.27031250000002,227.64531250000002,80.0,86.0
317,227.64531250000002,228.0796875,76.0,94.0
318,228.02031250000002,228.375,78.0,96.0
319,228.39531250000002,230.64531250000002,76.0,89.0
