,start,end,pitch,velocity
0,0.9606277249999999,1.1411422833333333,69.0,112.0
1,1.3960397249999998,1.5230348916666665,69.0,100.0
2,1.6137457249999998,1.7225987249999999,67.0,77.0
3,1.831451725,2.0065236333333334,69.0,102.0
4,2.266863725,2.3847878083333334,69.0,97.0
5,2.4845697249999996,2.5843516416666663,67.0,89.0
6,2.702275725,2.7857296916666665,69.0,99.0
7,2.919981725,2.996178825,72.0,96.0
8,3.1376877249999997,3.2147919333333332,69.0,99.0
9,3.355393725,3.4696893749999997,67.0,93.0
10,3.5730997249999996,3.778106208333333,69.0,122.0
11,4.443923724999999,4.585432624999999,62.0,92.0
12,4.879335725,4.999981133333333,62.0,93.0
13,5.0970417249999995,5.20861605,64.0,96.0
14,5.314747724999999,5.463513491666666,67.0,107.0
15,5.750159725,5.8481274249999995,67.0,90.0
16,5.967865724999999,6.10121065,64.0,97.0
17,6.185571725,6.294424725,62.0,89.0
18,6.403277725,6.534808433333333,64.0,82.0
19,6.620983724999999,6.751607324999999,62.0,96.0
20,6.838689724999999,6.9339360999999995,60.0,89.0
21,7.056395725,7.3149216,57.0,100.0
22,10.104279725,10.323799941666666,72.0,117.0
23,10.321985725,10.614074608333333,71.0,70.0
24,10.539691724999999,10.767375916666666,72.0,102.0
25,13.587575724999999,13.833402083333333,69.0,112.0
26,13.805281724999999,14.071971575,67.0,86.0
27,14.022987724999998,14.540946583333332,69.0,93.0
28,19.683343725,19.81215310833333,72.0,107.0
29,20.554167725,20.644878558333332,72.0,112.0
30,20.771873725,20.86530588333333,72.0,97.0
31,20.989579725,21.173722716666664,72.0,127.0
32,21.424991724999998,21.60006363333333,72.0,122.0
33,21.860403724999998,22.730320616666663,69.0,112.0
34,23.166639725,23.495012941666666,64.0,107.0
35,23.602051725,24.058872864583332,72.0,127.0
36,24.038652343749998,24.216960572916665,69.0,127.0
37,24.25923984375,24.46144505208333,72.0,88.0
38,24.47982734375,24.903539166666665,69.0,127.0
39,25.362177343749998,25.6516984375,67.0,102.0
40,25.80335234375,26.078167604166666,67.0,96.0
41,26.02393984375,26.254637604166668,64.0,78.0
42,26.24452734375,26.56529833333333,62.0,96.0
43,26.465114843749998,26.620521158333332,60.0,102.0
44,26.68597088125,26.88508553125,62.0,96.0
45,26.90720938125,27.116464129166665,64.0,96.0
46,27.12844788125,28.069633333333332,57.0,100.0
47,28.898355881249998,29.36019125,60.0,112.0
48,29.56207138125,29.707720060416666,60.0,100.0
49,29.78330988125,30.197210241666667,57.0,89.0
50,30.22578688125,30.582533962499998,60.0,97.0
51,30.66826388125,30.930062772916664,62.0,96.0
52,31.11074088125,31.343963133333332,64.0,112.0
53,31.33197938125,31.560592497916666,67.0,89.0
54,31.55321788125,31.787361960416664,64.0,100.0
55,31.774456381249998,31.981867474999998,62.0,92.0
56,31.99569488125,32.230760787499996,60.0,99.0
57,32.21693338125,32.41973533958333,62.0,95.0
58,32.43817188125,34.28182604791667,64.0,100.0
59,35.97798788125,36.987388537499996,69.0,127.0
60,37.30541888125,37.54140661458333,69.0,127.0
61,37.52665738125,37.79583088958333,67.0,85.0
62,37.74789588125,38.14796883541666,69.0,122.0
63,38.19037288125,38.418985997916664,72.0,112.0
64,38.632849881249996,39.136167468749996,72.0,127.0
65,39.517803881249996,39.71415305,69.0,122.0
66,39.73904238125,39.940922512499995,72.0,88.0
67,39.96028088125,40.15939553125,69.0,99.0
68,40.18151938125,40.3999924,72.0,102.0
69,40.40275788125,40.68299331458333,69.0,112.0
70,40.84523488124999,41.28771188125,67.0,93.0
71,41.28771188125,41.83712082291667,64.0,99.0
72,43.05761988125,43.365510127083326,62.0,107.0
73,43.50009688125,43.791394239583326,64.0,117.0
74,43.94257388125,44.25876057083333,60.0,102.0
75,44.385050881249995,44.68925381875,62.0,112.0
76,44.71690863124999,45.302268829166664,59.0,99.0
77,45.71248188125,46.11532031666667,55.0,102.0
78,46.154958881249996,46.378962862499996,57.0,100.0
79,46.376197381249995,46.723726191666664,59.0,99.0
80,46.81867438125,48.33876724166666,57.0,127.0
81,50.12275321875,50.363628468749994,69.0,117.0
82,50.560708218749994,50.74136465625,69.0,122.0
83,50.779685718749995,50.955780125,67.0,93.0
84,50.998663218749996,51.34811481249999,64.0,100.0
85,51.43661821875,51.7404495,67.0,122.0
86,51.874573218749994,52.484060593749994,69.0,127.0
87,52.94391334375,53.07621225,69.0,92.0
88,53.066175781249996,53.18478859375,72.0,86.0
89,53.20668634374999,53.73588196874999,67.0,96.0
90,53.626393218749996,54.130041468749994,60.0,99.0
91,54.28332571875,54.474931031249994,64.0,97.0
92,54.502303218749994,54.81434615625,62.0,112.0
93,54.940258218749996,55.22675378125,60.0,96.0
94,55.37821321875,55.931131406249996,62.0,107.0
95,57.13003321875,57.465798718749994,62.0,127.0
96,57.567988218749996,57.854483781249996,64.0,127.0
97,58.00594321875,58.31616134375,67.0,122.0
98,58.44389821874999,58.663788124999996,67.0,117.0
99,58.881853218749995,59.13641456249999,62.0,117.0
100,59.10083071875,59.26453531666666,60.0,92.0
101,59.320808324999994,59.56619554166666,62.0,97.0
102,59.54221032499999,59.73962710833333,60.0,93.0
103,59.763612325,60.64829781666666,57.0,112.0
104,60.649220324999995,60.75992132499999,67.0,112.0
105,60.87062232499999,60.96010563333333,67.0,92.0
106,61.092024325,61.23778064166666,67.0,96.0
107,61.313426324999995,61.478555316666665,64.0,95.0
108,61.53482832499999,61.87615640833333,67.0,122.0
109,61.977632324999995,62.31619288333333,69.0,107.0
110,62.19903432499999,62.3955286,67.0,122.0
111,62.420436325,63.02560179166666,69.0,117.0
112,64.19165232499999,64.27560058333333,67.0,117.0
113,64.41305432499999,64.49054502499999,67.0,97.0
114,64.634456325,64.75807244166666,67.0,107.0
115,64.855858325,64.98593199999999,69.0,122.0
116,65.077260325,65.31895750833333,72.0,127.0
117,65.52006432499999,65.73131873333332,69.0,127.0
118,65.74146632499999,65.93611558333333,67.0,95.0
119,65.962868325,66.65659459166666,64.0,112.0
120,67.734084325,68.15290310833333,62.0,122.0
121,68.176888325,68.60677720833333,64.0,127.0
122,68.61969232499999,68.93980271666666,60.0,107.0
123,69.062496325,69.427809625,62.0,99.0
124,69.505300325,69.88814128333333,59.0,99.0
125,70.390908325,70.62707045833334,55.0,93.0
126,70.612310325,70.85585252499999,57.0,76.0
127,70.833712325,71.56710645,59.0,83.0
128,71.497918325,73.734078525,57.0,100.0
129,83.8972747875,84.11647737916667,72.0,117.0
130,84.1146657875,84.40633204583332,71.0,70.0
131,84.3320567875,84.55941154166666,72.0,102.0
132,87.3755307875,87.62100145833332,69.0,112.0
133,87.59292178749999,87.8592257625,67.0,86.0
134,87.8103127875,88.32752220833333,69.0,93.0
135,93.4624787875,93.59110179583334,72.0,107.0
136,94.332802725,94.42351355833333,72.0,112.0
137,94.550508725,94.64394088333333,72.0,97.0
138,94.76821472499999,94.95235771666667,72.0,127.0
139,95.20362672499999,95.37869863333333,72.0,122.0
140,95.63956321875,96.51843822916666,69.0,112.0
141,96.96053234375,97.29325182291666,64.0,107.0
142,97.40170734375,97.86310286458333,72.0,127.0
143,97.84288234374999,98.02119057291667,69.0,127.0
144,98.06346984375,98.26567505208334,72.0,88.0
145,98.28405734374999,98.70776916666667,69.0,127.0
146,99.16640734375,99.45592843749999,67.0,102.0
147,99.60758234375,99.88239760416667,67.0,96.0
148,99.82816984375,100.05886760416666,64.0,78.0
149,100.04875734375,100.36952833333334,62.0,96.0
150,100.26934484374999,100.42467520833333,60.0,102.0
151,100.48993234375,100.68846109374999,62.0,96.0
152,100.71051984374999,100.91915885416667,64.0,96.0
153,100.93110734375,101.86952333333333,57.0,100.0
154,102.69580734375,103.15628375,60.0,112.0
155,103.35756984375,103.50278994791667,60.0,100.0
156,103.57815734375,103.99083979166666,57.0,89.0
157,104.01933234375,104.3750296875,60.0,97.0
158,104.46050734375,104.72153588541667,62.0,96.0
159,104.90168234375,105.13421833333334,64.0,112.0
160,105.12226984374999,105.35021026041666,67.0,89.0
161,105.34285734375,105.57631244791666,64.0,100.0
162,105.56344484375,105.770245625,62.0,92.0
163,105.78403234375,106.01840656249999,60.0,99.0
164,106.00461984374999,106.20682505208333,62.0,95.0
165,106.22520734375,108.06343651041666,64.0,100.0
166,109.75460734375,110.76103781249999,69.0,127.0
167,111.07813234375,111.31342567708333,69.0,127.0
168,111.29871984374999,111.56710130208333,67.0,85.0
169,111.51930734375,111.91820307291667,69.0,122.0
170,111.96048234375,112.18842276041667,72.0,112.0
171,112.40165734375,112.90349390624999,72.0,127.0
172,113.28400734375,113.47977875,69.0,122.0
173,113.50459484375,113.7058809375,72.0,88.0
174,113.72518234374999,113.92371109375,69.0,99.0
175,113.94576984375,114.1636,72.0,102.0
176,114.16635734375,114.44576817708332,69.0,112.0
177,114.60753234375,115.04870734375,67.0,93.0
178,115.04870734375,115.59649963541666,64.0,99.0
179,116.81340734375,117.12039161458333,62.0,107.0
180,117.25458234375,117.54502255208334,64.0,117.0
181,117.69575734374999,118.01101364583333,60.0,102.0
182,118.13693234375,118.44024015625,62.0,112.0
183,118.46781359375,119.05145135416666,59.0,99.0
184,119.46045734375,119.86211041666667,55.0,102.0
185,119.90163234375,120.1249771875,57.0,100.0
186,120.12221984375,120.46872604166666,59.0,99.0
187,120.56339484374999,122.07901479166667,57.0,127.0
188,123.87220734375,124.11485359375,69.0,117.0
189,124.31338234374999,124.49536703125,69.0,122.0
190,124.53396984375,124.71135895833334,67.0,93.0
191,124.75455734375,125.10657822916667,64.0,100.0
192,125.19573234375,125.5017975,67.0,122.0
193,125.63690734375,126.25087588541666,69.0,127.0
194,126.71410963541666,126.84738125,69.0,92.0
195,126.83727098958333,126.95675588541667,72.0,86.0
196,126.97881463541667,127.51190109375,67.0,96.0
197,127.40160734375,127.90895859375,60.0,99.0
198,128.06336984375,128.25638390625,64.0,97.0
199,128.28395734375,128.59829453125,62.0,112.0
200,128.72513234375,129.01373432291666,60.0,96.0
201,129.16630734375,129.72329078125,62.0,107.0
202,130.93100734375,131.26924151041666,62.0,127.0
203,131.37218234375,131.66078432291667,64.0,127.0
204,131.81335734375,132.12585630208332,67.0,122.0
205,132.25453234375,132.47603895833333,67.0,117.0
206,132.69570734375,132.9521403125,62.0,117.0
207,132.91629484375,133.08081635416667,60.0,92.0
208,133.13688234375,133.38136682291668,62.0,97.0
209,133.35746984374998,133.55416036458334,60.0,93.0
210,133.57805734375,134.45948822916665,57.0,112.0
211,134.46040734375,134.57070109375,67.0,112.0
212,134.68099484375,134.77014895833332,67.0,92.0
213,134.90158234375,135.04680244791666,67.0,96.0
214,135.12216984375,135.28669135416666,64.0,95.0
215,135.34275734375,135.68282973958333,67.0,122.0
216,135.78393234375,136.12124739583334,69.0,107.0
217,136.00451984375,136.20029125,67.0,122.0
218,136.22510734374998,136.82804651041667,69.0,117.0
219,137.98980734375,138.07344677083333,67.0,117.0
220,138.21039484375,138.28760046875,67.0,97.0
221,138.43098234375,138.55414369791666,67.0,107.0
222,138.65156984375,138.781165,69.0,122.0
223,138.87215734375,139.11296536458332,72.0,127.0
224,139.31333234375,139.52380958333333,69.0,127.0
225,139.53391984375,139.72785302083332,67.0,95.0
226,139.75450734375,140.44568151041665,64.0,112.0
227,141.51920734375,141.93648536458335,62.0,122.0
228,141.96038234374998,142.38868973958333,64.0,127.0
229,142.40155734375,142.72049010416666,60.0,107.0
230,142.84273234375,143.20670171875,62.0,99.0
231,143.28390734375,143.6653398958333,59.0,99.0
232,144.16625734375,144.40155067708332,55.0,93.0
233,144.38684484375,144.62949109375,57.0,76.0
234,144.60743234375,145.3381284375,59.0,83.0
235,145.26919484375,147.49712859375,57.0,100.0
236,176.49061308125002,176.68473063125,69.0,117.0
237,176.86175234375,177.04373703125,69.0,122.0
238,177.08233984375,177.25972895833334,67.0,93.0
239,177.30292734374999,177.65494822916665,64.0,100.0
240,177.74410234375,178.0501675,67.0,122.0
241,178.18527734375,178.79924588541667,69.0,127.0
242,179.26247963541667,179.39575125,69.0,92.0
243,179.38564098958332,179.50512588541667,72.0,86.0
244,179.52718463541666,180.06027109375,67.0,96.0
245,179.94997734375,180.45732859375,60.0,99.0
246,180.61173984375,180.80475390625,64.0,97.0
247,180.83232734375,181.14666453125,62.0,112.0
248,181.27350234374998,181.56210432291667,60.0,96.0
249,181.71467734375,182.27166078125,62.0,107.0
250,183.47937734375,183.81761151041667,62.0,127.0
251,183.92055234375,184.20915432291667,64.0,127.0
252,184.36172734375,184.67422630208333,67.0,122.0
253,184.80290234375,185.02440895833334,67.0,117.0
254,185.24407734375,185.50051031249998,62.0,117.0
255,185.46466484375,185.62918635416668,60.0,92.0
256,185.68525234375,185.92973682291665,62.0,97.0
257,185.90583984375,186.10253036458332,60.0,93.0
258,186.12642734374998,187.00785822916666,57.0,112.0
259,187.00877734374998,187.11907109375,67.0,112.0
260,187.22936484375,187.31851895833333,67.0,92.0
261,187.44995234375,187.59517244791667,67.0,96.0
262,187.67053984375,187.83506135416667,64.0,95.0
263,187.89112734375,188.23119973958333,67.0,122.0
264,188.33230234375,188.66961739583334,69.0,107.0
265,188.55288984375,188.74866125,67.0,122.0
266,188.77347734375,189.37641651041668,69.0,117.0
267,190.53817734375,190.62181677083333,67.0,117.0
268,190.75876484375,190.83597046875,67.0,97.0
269,190.97935234375,191.10251369791666,67.0,107.0
270,191.19993984375,191.329535,69.0,122.0
271,191.42052734375,191.66133536458332,72.0,127.0
272,191.86170234374998,192.07217958333334,69.0,127.0
273,192.08228984375,192.27622302083333,67.0,95.0
274,192.30287734375,192.99405151041665,64.0,112.0
275,194.06757734375,194.48485536458332,62.0,122.0
276,194.50875234375,194.93705973958333,64.0,127.0
277,194.94992734375,195.26886010416666,60.0,107.0
278,195.39110234375,195.75507171875,62.0,99.0
279,195.83227734375,196.21370989583332,59.0,99.0
280,196.71462734375,196.94992067708333,55.0,93.0
281,196.93521484375,197.17786109374998,57.0,76.0
282,197.15580234375,197.8864984375,59.0,83.0
283,197.81756484375,200.04549859374998,57.0,100.0
284,201.12637734375,201.30928114583332,69.0,112.0
285,201.56755234374998,201.69622838541665,69.0,100.0
286,201.78813984375,201.89843359374998,67.0,77.0
287,202.00676384374998,202.180325125,69.0,102.0
288,202.43841884375,202.55532540625,69.0,97.0
289,202.65424634375,202.75316728125,67.0,89.0
290,202.87007384375,202.95280771875,69.0,99.0
291,203.08590134374998,203.16144096875,72.0,96.0
292,203.30172884375,203.37816775,69.0,99.0
293,203.51755634375,203.63086578124998,67.0,93.0
294,203.73338384375,203.93662140625,69.0,122.0
295,204.59669384375,204.73698171875,62.0,92.0
296,205.02834884375,205.14795325,62.0,93.0
297,205.24417634374998,205.3547879375,64.0,96.0
298,205.46000384375,205.60748596874998,67.0,107.0
299,205.89165884374998,205.98878121875,67.0,90.0
300,206.10748634375,206.2396806875,64.0,97.0
301,206.32331384375,206.43122759374998,62.0,89.0
302,206.53914134375,206.669537125,64.0,82.0
303,206.75496884375,206.88446534374998,62.0,96.0
304,206.97079634374998,207.065220875,60.0,89.0
305,207.18662384375,207.442919,57.0,100.0
