,start,end,pitch,velocity
0,1.3960397249999998,1.4958216416666665,72.0,72.0
1,1.3960397249999998,1.499450075,69.0,83.0
2,1.3960397249999998,1.5057998333333333,64.0,82.0
3,0.9606277249999999,1.6182812666666666,45.0,59.0
4,1.6137457249999998,1.7588830583333332,64.0,62.0
5,1.6137457249999998,1.7588830583333332,69.0,72.0
6,1.6137457249999998,1.7588830583333332,72.0,72.0
7,2.266863725,2.3612029916666666,69.0,78.0
8,2.266863725,2.368459858333333,64.0,69.0
9,2.266863725,2.3711811833333334,72.0,76.0
10,1.831451725,2.62879995,57.0,63.0
11,3.1376877249999997,3.2429122916666664,69.0,72.0
12,3.1376877249999997,3.2519833749999996,64.0,66.0
13,3.1376877249999997,3.261054458333333,72.0,69.0
14,2.702275725,3.4560827499999998,45.0,67.0
15,3.355393725,3.476039133333333,69.0,79.0
16,3.355393725,3.4778533499999997,72.0,76.0
17,3.355393725,3.4805746749999997,64.0,74.0
18,3.5730997249999996,4.051145816666667,57.0,66.0
19,4.008511725,4.133692675,69.0,90.0
20,4.008511725,4.149113516666667,72.0,83.0
21,4.008511725,4.164534358333333,64.0,82.0
22,4.879335725,4.9709536666666665,65.0,73.0
23,4.879335725,4.990910049999999,69.0,68.0
24,4.879335725,4.9927242666666665,62.0,72.0
25,4.443923724999999,5.144211358333333,38.0,57.0
26,5.0970417249999995,5.211337374999999,62.0,64.0
27,5.0970417249999995,5.222222674999999,69.0,62.0
28,5.0970417249999995,5.2285724333333325,65.0,72.0
29,5.750159725,5.859919833333333,64.0,75.0
30,5.750159725,5.866269591666666,67.0,79.0
31,5.750159725,5.8671767,71.0,79.0
32,5.314747724999999,6.064019208333333,40.0,58.0
33,5.967865724999999,6.080347158333333,64.0,63.0
34,5.967865724999999,6.0839755916666665,67.0,70.0
35,5.967865724999999,6.086696916666666,71.0,67.0
36,6.185571725,6.592863366666666,38.0,82.0
37,6.620983724999999,6.763399733333332,65.0,77.0
38,6.620983724999999,6.772470816666666,62.0,81.0
39,6.620983724999999,6.798776958333333,69.0,75.0
40,7.056395725,7.750333599999999,45.0,76.0
41,7.056395725,7.784803716666666,72.0,95.0
42,7.056395725,7.785710825,69.0,93.0
43,7.056395725,7.7893392583333325,64.0,77.0
44,7.927219725,8.444271474999999,36.0,83.0
45,8.362631725,8.4796487,60.0,81.0
46,8.362631725,8.484184241666666,55.0,78.0
47,8.362631725,8.487812674999999,64.0,77.0
48,8.580337725,8.64837085,36.0,58.0
49,8.580337725,8.668327233333333,48.0,79.0
50,8.798043725,9.143652,36.0,60.0
51,8.798043725,9.43211245,48.0,79.0
52,9.233455724999999,9.520101958333333,60.0,89.0
53,9.451161724999999,9.561828941666667,55.0,78.0
54,9.233455724999999,9.60627725,64.0,85.0
55,10.104279725,10.224018025,60.0,81.0
56,10.104279725,10.228553566666665,57.0,81.0
57,9.668867725,10.231274891666667,45.0,76.0
58,10.104279725,10.343756325,64.0,76.0
59,10.321985725,10.432652941666666,45.0,68.0
60,10.539691724999999,11.275356583333332,45.0,81.0
61,10.975103724999999,11.371510066666666,60.0,99.0
62,10.975103724999999,11.396001991666665,64.0,92.0
63,11.410515725,11.946616749999999,48.0,81.0
64,11.845927725,11.97383,55.0,82.0
65,11.845927725,11.993786383333333,60.0,89.0
66,11.845927725,12.003764575,64.0,82.0
67,12.063633724999999,12.164322749999998,48.0,73.0
68,12.281339724999999,12.932643508333332,48.0,66.0
69,12.716751725,13.065081325,60.0,97.0
70,12.934457725,13.091387466666665,55.0,75.0
71,12.716751725,13.097737225,64.0,92.0
72,13.152163725,13.684636316666666,45.0,70.0
73,13.587575724999999,13.767183175,57.0,75.0
74,13.587575724999999,13.842473166666666,60.0,79.0
75,13.805281724999999,13.911413399999999,45.0,78.0
76,13.587575724999999,14.018452183333332,64.0,76.0
77,14.022987724999998,14.521897308333333,45.0,78.0
78,14.458399725,14.857527391666666,64.0,88.0
79,14.458399725,14.929188949999999,60.0,97.0
80,14.676105725,14.942795574999998,57.0,78.0
81,14.893811724999999,15.401792391666666,38.0,78.0
82,15.546929724999998,15.643083208333332,45.0,72.0
83,15.329223724999999,15.849903908333332,57.0,88.0
84,15.329223724999999,15.867138966666666,62.0,95.0
85,15.329223724999999,15.889816674999999,65.0,88.0
86,15.982341725,16.269895066666667,57.0,95.0
87,16.200047724999997,16.5347707,65.0,95.0
88,16.200047724999997,16.552912866666667,62.0,92.0
89,15.764635725,16.589197199999997,45.0,95.0
90,16.417753724999997,16.639995266666666,57.0,82.0
91,16.635459725,17.173374966666664,40.0,77.0
92,17.070871725,17.248664958333332,52.0,71.0
93,17.070871725,17.2532005,55.0,79.0
94,17.070871725,17.287670616666666,59.0,77.0
95,17.288577725,17.3838241,40.0,74.0
96,17.506283725,17.963466325,40.0,72.0
97,17.723989725,18.381643266666664,67.0,70.0
98,17.723989725,18.39978543333333,64.0,73.0
99,17.941695725,18.432441333333333,59.0,88.0
100,18.377107725,18.91683718333333,45.0,77.0
101,19.030225724999998,19.132728966666665,45.0,67.0
102,18.812519724999998,19.247931724999997,57.0,71.0
103,18.812519724999998,19.247931724999997,60.0,78.0
104,18.812519724999998,19.247931724999997,64.0,81.0
105,19.247931724999997,19.8439019,45.0,93.0
106,19.683343725,19.85297298333333,69.0,86.0
107,19.683343725,19.8656725,64.0,78.0
108,19.683343725,19.875650691666664,72.0,81.0
109,20.554167725,20.633086149999997,69.0,96.0
110,20.554167725,20.643064341666665,64.0,92.0
111,20.554167725,20.64759988333333,72.0,93.0
112,20.554167725,20.651228316666664,45.0,96.0
113,20.771873725,20.847163716666664,69.0,89.0
114,20.771873725,20.858049016666666,64.0,73.0
115,20.771873725,20.858049016666666,72.0,78.0
116,20.771873725,20.867120099999998,45.0,86.0
117,20.989579725,21.10478248333333,69.0,89.0
118,20.989579725,21.117482,64.0,82.0
119,20.989579725,21.120203325,45.0,89.0
120,20.989579725,21.131995733333333,72.0,81.0
121,21.424991724999998,21.571943275,69.0,99.0
122,21.424991724999998,21.58101435833333,45.0,102.0
123,21.424991724999998,21.5964352,72.0,96.0
124,21.424991724999998,21.60278495833333,64.0,93.0
125,21.860403724999998,22.330285841666665,45.0,92.0
126,22.295815724999997,22.384712341666663,64.0,68.0
127,22.295815724999997,22.40013318333333,60.0,86.0
128,22.295815724999997,22.40739005,57.0,76.0
129,22.513521724999997,22.614210749999998,45.0,85.0
130,22.731227725,23.211088033333333,45.0,76.0
131,23.166639725,23.319941033333333,60.0,82.0
132,23.166639725,23.319941033333333,64.0,68.0
133,23.166639725,23.332640549999997,57.0,75.0
134,23.602051725,24.066225781249997,45.0,81.0
135,24.038652343749998,24.123210885416665,64.0,59.0
136,24.038652343749998,24.13332114583333,60.0,76.0
137,24.038652343749998,24.13883583333333,57.0,66.0
138,24.25923984375,24.348393958333332,45.0,71.0
139,24.92100234375,25.030376979166665,64.0,77.0
140,24.92100234375,25.032215208333334,60.0,88.0
141,24.92100234375,25.044163697916666,57.0,77.0
142,24.47982734375,25.063465104166667,45.0,83.0
143,25.362177343749998,25.890668229166664,48.0,76.0
144,25.80335234375,25.986256145833334,64.0,81.0
145,25.80335234375,26.00739578125,67.0,73.0
146,25.80335234375,26.008314895833333,60.0,74.0
147,26.68597088125,26.872179952083332,65.0,81.0
148,26.68597088125,26.881398222916665,69.0,73.0
149,26.24452734375,26.8878510125,50.0,90.0
150,26.68597088125,26.895225629166667,62.0,81.0
151,27.57092488125,27.684309612499998,69.0,68.0
152,27.57092488125,27.69813701875,72.0,68.0
153,27.57092488125,27.699980672916666,64.0,65.0
154,27.12844788125,27.746072027083333,45.0,77.0
155,27.79216338125,27.88618974375,69.0,79.0
156,27.79216338125,27.89540801458333,64.0,68.0
157,27.79216338125,27.908313593749998,72.0,72.0
158,28.013401881249997,28.400569256249998,57.0,86.0
159,28.455878881249998,28.61166765833333,69.0,96.0
160,28.455878881249998,28.640244297916666,72.0,89.0
161,28.455878881249998,28.662368147916666,64.0,89.0
162,27.79216338125,28.71583411875,52.0,14.0
163,29.340832881249998,29.444077514583334,64.0,79.0
164,29.340832881249998,29.457904920833332,60.0,79.0
165,29.340832881249998,29.463435883333332,67.0,77.0
166,28.898355881249998,29.5537749375,48.0,89.0
167,29.56207138125,29.660706879166664,64.0,82.0
168,29.56207138125,29.675456112499997,60.0,73.0
169,29.56207138125,29.67914342083333,67.0,76.0
170,29.78330988125,30.35668632708333,55.0,72.0
171,30.22578688125,30.369591906249997,64.0,86.0
172,30.22578688125,30.386184793749997,60.0,75.0
173,30.22578688125,30.392637583333332,67.0,89.0
174,31.11074088125,31.21859465,62.0,73.0
175,31.11074088125,31.21951647708333,71.0,77.0
176,31.11074088125,31.221360131249998,67.0,85.0
177,30.66826388125,31.340275825,43.0,73.0
178,31.33197938125,31.448129593749997,67.0,92.0
179,31.33197938125,31.458269691666665,71.0,89.0
180,31.33197938125,31.461956999999998,62.0,78.0
181,31.55321788125,31.961587279166665,55.0,85.0
182,31.99569488125,32.108157785416665,71.0,93.0
183,31.99569488125,32.129359808333334,67.0,99.0
184,31.99569488125,32.1643892375,62.0,89.0
185,32.880648881249996,32.98942447708333,55.0,79.0
186,32.880648881249996,32.993111785416666,60.0,90.0
187,32.880648881249996,32.99587726666667,64.0,82.0
188,32.43817188125,33.13507315625,36.0,85.0
189,33.101887381249995,33.22909951875,60.0,85.0
190,33.101887381249995,33.24200509791667,55.0,75.0
191,33.101887381249995,33.24200509791667,64.0,75.0
192,33.76560288125,33.87437847708333,55.0,97.0
193,33.76560288125,33.877143958333335,60.0,102.0
194,33.76560288125,33.899267808333335,64.0,93.0
195,33.32312588125,34.03016725416666,48.0,88.0
196,34.65055688125,34.75380151458333,55.0,88.0
197,34.65055688125,34.75380151458333,60.0,96.0
198,34.65055688125,34.76486343958333,64.0,90.0
199,34.871795381249996,34.98702376666667,60.0,95.0
200,34.20807988125,34.99900751875,36.0,81.0
201,34.871795381249996,35.001773,55.0,88.0
202,34.871795381249996,35.006382135416665,64.0,90.0
203,35.093033881249994,35.55947838541667,48.0,117.0
204,35.53551088125,35.837870164583336,60.0,107.0
205,35.53551088125,35.86091584166667,64.0,100.0
206,35.756749381249996,35.86736863125,55.0,74.0
207,36.42046488125,36.527396822916664,69.0,97.0
208,36.42046488125,36.53477143958333,64.0,86.0
209,36.42046488125,36.538458747916664,72.0,90.0
210,35.97798788125,36.69148204375,45.0,99.0
211,36.64170338125,36.7274333,52.0,30.0
212,36.64170338125,36.760619074999994,69.0,96.0
213,36.64170338125,36.786430233333334,64.0,89.0
214,36.64170338125,36.79103936875,72.0,89.0
215,36.862941881249995,37.33768282916667,57.0,100.0
216,37.30541888125,37.426178229166666,69.0,97.0
217,37.30541888125,37.43263101875,64.0,90.0
218,37.30541888125,37.448302079166666,72.0,95.0
219,36.862941881249995,37.58749796875,52.0,63.0
220,38.19037288125,38.287164725,69.0,93.0
221,38.19037288125,38.29638299583333,64.0,86.0
222,38.19037288125,38.308366747916665,72.0,85.0
223,37.74789588125,38.477061104166665,45.0,81.0
224,38.41161138125,38.53882351875,69.0,89.0
225,38.41161138125,38.54435448125,72.0,83.0
226,38.41161138125,38.554494579166665,64.0,75.0
227,39.07532688125,39.18778978541667,69.0,99.0
228,39.07532688125,39.193320747916665,64.0,90.0
229,38.632849881249996,39.19608622916667,57.0,81.0
230,39.07532688125,39.2053045,72.0,93.0
231,38.632849881249996,39.38321712708333,52.0,60.0
232,39.96028088125,40.057072725,69.0,92.0
233,39.96028088125,40.0626036875,64.0,85.0
234,39.96028088125,40.06813465,72.0,85.0
235,39.517803881249996,40.26356199166666,45.0,83.0
236,40.18151938125,40.288451322916664,69.0,95.0
237,40.18151938125,40.291216804166666,72.0,86.0
238,40.18151938125,40.29859142083333,64.0,92.0
239,40.40275788125,40.79637804583333,57.0,81.0
240,40.84523488124999,40.95401047708333,69.0,97.0
241,40.84523488124999,40.97060336458333,64.0,90.0
242,40.84523488124999,40.974290672916666,72.0,92.0
243,40.40275788125,41.138375893749995,52.0,54.0
244,41.73018888125,41.81960610833333,69.0,96.0
245,41.73018888125,41.82605889791667,72.0,93.0
246,41.73018888125,41.8325116875,64.0,85.0
247,41.28771188125,41.96433296041666,45.0,85.0
248,41.95142738125,42.05928115,69.0,93.0
249,41.95142738125,42.068499420833334,64.0,78.0
250,41.95142738125,42.07126490208333,72.0,86.0
251,42.17266588125,42.517429210416665,57.0,97.0
252,41.95142738125,42.53586575208333,52.0,25.0
253,42.615142881249994,42.743276845833336,69.0,102.0
254,42.615142881249994,42.76724435,72.0,97.0
255,42.615142881249994,42.806882914583326,64.0,81.0
256,43.50009688125,43.59596689791667,65.0,95.0
257,43.50009688125,43.604263341666666,62.0,85.0
258,43.50009688125,43.60795064999999,69.0,92.0
259,43.72133538125,43.791394239583326,45.0,18.0
260,43.72133538125,43.82089270624999,65.0,92.0
261,43.72133538125,43.83011097708333,69.0,89.0
262,43.05761988125,43.838407420833335,38.0,73.0
263,43.72133538125,43.84117290208333,62.0,85.0
264,44.385050881249995,44.51134119166666,69.0,90.0
265,44.385050881249995,44.51687215416666,65.0,95.0
266,44.385050881249995,44.52977773333333,62.0,86.0
267,43.94257388125,44.655146216666665,50.0,74.0
268,45.270004881249996,45.373249514583335,59.0,79.0
269,45.270004881249996,45.37601499583333,64.0,93.0
270,45.270004881249996,45.37785864999999,67.0,86.0
271,44.82752788125,45.58711339791667,40.0,62.0
272,45.49124338125,45.6156900375,64.0,88.0
273,45.49124338125,45.6156900375,67.0,85.0
274,45.49124338125,45.632282925,59.0,81.0
275,46.154958881249996,46.25082889791666,64.0,93.0
276,46.154958881249996,46.25820351458333,59.0,89.0
277,46.154958881249996,46.275718229166664,67.0,88.0
278,45.71248188125,46.491425766666666,52.0,77.0
279,47.03991288125,47.14407934166667,69.0,89.0
280,47.03991288125,47.149610304166664,64.0,79.0
281,47.03991288125,47.15606309374999,72.0,82.0
282,47.26115138125,47.36808332291666,69.0,95.0
283,46.59743588124999,47.373614285416664,45.0,76.0
284,47.26115138125,47.384676210416664,64.0,85.0
285,47.26115138125,47.386519864583335,72.0,85.0
286,47.48238988125,47.8501988875,57.0,96.0
287,47.92486688125,48.023502379166665,69.0,99.0
288,47.92486688125,48.03272065,64.0,90.0
289,47.92486688125,48.04286074791666,72.0,96.0
290,47.48238988125,48.2152424125,52.0,42.0
291,48.80888821875,48.893741999999996,69.0,93.0
292,48.80888821875,48.90104125,64.0,79.0
293,48.80888821875,48.908340499999994,72.0,83.0
294,48.367343881249994,49.09264656249999,45.0,85.0
295,49.02786571874999,49.139179281249994,69.0,95.0
296,49.02786571874999,49.1619894375,72.0,92.0
297,49.02786571874999,49.167463874999996,64.0,86.0
298,49.465820718749995,49.548849687499995,69.0,92.0
299,49.465820718749995,49.5597985625,64.0,82.0
300,49.465820718749995,49.564360593749996,72.0,85.0
301,49.246843218749994,49.590820375,57.0,96.0
302,49.68479821875,49.800673812499994,69.0,102.0
303,49.68479821875,49.822571562499995,64.0,102.0
304,49.68479821875,49.8298708125,72.0,100.0
305,49.246843218749994,49.94027196875,52.0,66.0
306,50.560708218749994,50.66198531249999,69.0,95.0
307,50.560708218749994,50.674758999999995,64.0,89.0
308,50.560708218749994,50.674758999999995,72.0,92.0
309,50.779685718749995,50.878225593749995,52.0,27.0
310,50.12275321875,50.88187521875,45.0,86.0
311,50.779685718749995,50.88643725,69.0,92.0
312,50.779685718749995,50.904685375,72.0,88.0
313,50.779685718749995,50.9101598125,64.0,88.0
314,50.998663218749996,51.28515878125,57.0,99.0
315,51.21764071875,51.30796893749999,69.0,102.0
316,51.21764071875,51.324392249999995,64.0,95.0
317,51.21764071875,51.328041875,72.0,97.0
318,51.65559571875,51.76052243749999,69.0,96.0
319,51.65559571875,51.784245,64.0,90.0
320,50.998663218749996,51.786069812499996,52.0,61.0
321,51.65559571875,51.795193874999995,72.0,93.0
322,52.093550718749995,52.2057766875,69.0,90.0
323,52.093550718749995,52.213988343749996,64.0,86.0
324,52.093550718749995,52.2203751875,72.0,89.0
325,51.874573218749994,52.228586843749994,45.0,88.0
326,52.53150571875,52.58989971875,45.0,43.0
327,52.53150571875,52.610885062499996,52.0,50.0
328,52.53150571875,52.6145346875,69.0,92.0
329,52.53150571875,52.62365875,57.0,78.0
330,52.53150571875,52.63004559375,64.0,83.0
331,52.53150571875,52.635520031249996,72.0,83.0
332,52.75048321875,52.822563312499994,45.0,56.0
333,52.75048321875,52.84354865624999,52.0,73.0
334,52.75048321875,52.8554099375,69.0,93.0
335,52.75048321875,52.856322343749994,57.0,92.0
336,52.75048321875,52.86727121875,64.0,89.0
337,52.75048321875,52.87639528125,72.0,83.0
338,53.188438218749994,53.28332846875,45.0,53.0
339,53.188438218749994,53.293364937499994,57.0,92.0
340,53.188438218749994,53.29518975,69.0,97.0
341,53.188438218749994,53.303401406249996,64.0,93.0
342,53.188438218749994,53.30522621874999,52.0,78.0
343,53.188438218749994,53.3189123125,72.0,95.0
344,54.06434821875,54.164712906249996,69.0,86.0
345,54.06434821875,54.1656253125,64.0,79.0
346,54.06434821875,54.173836968749995,72.0,76.0
347,53.626393218749996,54.22128209375,45.0,85.0
348,54.28332571875,54.361792656249996,52.0,24.0
349,54.28332571875,54.38734003125,69.0,95.0
350,54.28332571875,54.404675749999996,64.0,85.0
351,54.28332571875,54.4065005625,72.0,86.0
352,54.502303218749994,54.860878875,57.0,79.0
353,54.502303218749994,54.866353312499996,52.0,42.0
354,54.940258218749996,55.078943968749996,69.0,96.0
355,54.940258218749996,55.093542468749995,72.0,93.0
356,54.940258218749996,55.16379775,64.0,90.0
357,55.81616821874999,55.91653290625,65.0,89.0
358,55.81616821874999,55.92291975,62.0,88.0
359,55.81616821874999,55.930218999999994,69.0,82.0
360,55.37821321875,56.078028812499994,38.0,69.0
361,56.035145718749995,56.11726228125,65.0,88.0
362,56.035145718749995,56.138247625,69.0,81.0
363,56.035145718749995,56.13916003125,62.0,89.0
364,56.69207821875,56.81799028125,65.0,95.0
365,56.69207821875,56.83441359375,62.0,93.0
366,56.69207821875,56.841712843749995,69.0,93.0
367,56.254123218749996,56.87729668749999,50.0,74.0
368,57.13003321875,57.4393389375,65.0,96.0
369,57.13003321875,57.44937540625,62.0,92.0
370,57.13003321875,57.466711124999996,69.0,93.0
371,57.13003321875,57.549740093749996,38.0,89.0
372,58.00594321875,58.27966509375,67.0,96.0
373,58.00594321875,58.28057749999999,64.0,96.0
374,58.00594321875,58.30156284375,71.0,90.0
375,58.00594321875,58.308862093749994,40.0,95.0
376,58.881853218749995,59.18842171874999,50.0,102.0
377,58.881853218749995,59.19024653125,38.0,82.0
378,58.881853218749995,59.20393262499999,62.0,85.0
379,58.881853218749995,59.20393262499999,65.0,86.0
380,58.881853218749995,59.20393262499999,69.0,86.0
381,59.320808324999994,59.55697045833333,38.0,72.0
382,59.320808324999994,59.59848333333333,65.0,93.0
383,59.320808324999994,59.604018383333326,50.0,95.0
384,59.320808324999994,59.61785600833333,62.0,90.0
385,59.320808324999994,59.630771124999995,69.0,90.0
386,59.763612325,60.178741075,45.0,60.0
387,59.763612325,60.184276125,57.0,77.0
388,59.763612325,60.203648799999996,52.0,69.0
389,59.763612325,60.22763401666666,69.0,96.0
390,59.763612325,60.24054913333333,64.0,90.0
391,59.763612325,60.24331665833333,72.0,90.0
392,61.092024325,61.208260374999995,72.0,89.0
393,61.092024325,61.21010539166666,76.0,83.0
394,61.092024325,61.21287291666666,67.0,82.0
395,60.649220324999995,61.34479160833333,48.0,71.0
396,61.313426324999995,61.3881495,55.0,26.0
397,61.313426324999995,61.446267524999996,72.0,92.0
398,61.313426324999995,61.44995755833333,76.0,77.0
399,61.313426324999995,61.46195016666666,67.0,79.0
400,61.53482832499999,61.874311391666666,60.0,75.0
401,61.53482832499999,61.9416545,55.0,52.0
402,61.977632324999995,62.155676433333326,72.0,96.0
403,61.977632324999995,62.16121148333333,76.0,93.0
404,61.977632324999995,62.19995683333333,67.0,89.0
405,62.86324032499999,62.97209630833333,69.0,92.0
406,62.86324032499999,62.978553866666665,64.0,85.0
407,62.86324032499999,62.98039888333333,72.0,86.0
408,62.420436325,63.12062014999999,45.0,72.0
409,63.084642325,63.13999282499999,52.0,26.0
410,63.084642325,63.21194847499999,69.0,88.0
411,63.084642325,63.23039864166666,72.0,82.0
412,63.084642325,63.24331375833333,64.0,75.0
413,63.306044324999995,63.79220621666666,52.0,50.0
414,63.527446325,63.80327631666666,69.0,96.0
415,63.527446325,63.818036449999994,64.0,89.0
416,63.527446325,63.818036449999994,72.0,93.0
417,63.306044324999995,63.83740912499999,57.0,78.0
418,63.970250324999995,64.16397707499999,64.0,83.0
419,63.970250324999995,64.17873720833333,69.0,92.0
420,63.970250324999995,64.17873720833333,72.0,83.0
421,64.634456325,64.74976986666667,67.0,85.0
422,64.634456325,64.75161488333333,72.0,102.0
423,64.634456325,64.7534599,76.0,96.0
424,64.19165232499999,64.90106123333332,48.0,78.0
425,64.855858325,65.01176223333333,72.0,96.0
426,64.855858325,65.02098731666666,76.0,86.0
427,64.855858325,65.02928989166666,67.0,82.0
428,65.077260325,65.37154048333333,60.0,81.0
429,65.077260325,65.41582088333332,55.0,61.0
430,65.52006432499999,65.70917853333333,76.0,93.0
431,65.52006432499999,65.72301615833332,72.0,96.0
432,65.52006432499999,65.75530395,67.0,92.0
433,66.405672325,66.50622573333332,69.0,95.0
434,66.405672325,66.50991576666667,64.0,86.0
435,66.405672325,66.51821834166667,72.0,88.0
436,65.962868325,66.69810746666667,45.0,83.0
437,66.627074325,66.87430655833333,69.0,88.0
438,66.627074325,66.89367923333333,64.0,78.0
439,66.627074325,66.89552425,72.0,76.0
440,66.848476325,67.180579325,52.0,55.0
441,67.06987832499999,67.36600349999999,69.0,93.0
442,67.06987832499999,67.38445366666666,72.0,88.0
443,67.06987832499999,67.38537617499999,64.0,90.0
444,66.848476325,67.40659386666667,57.0,81.0
445,67.512682325,67.68334636666667,69.0,92.0
446,67.512682325,67.6981065,72.0,83.0
447,67.512682325,67.79773739999999,64.0,90.0
448,68.176888325,68.276519225,65.0,95.0
449,68.176888325,68.28943434166666,62.0,90.0
450,68.176888325,68.29496939166667,69.0,95.0
451,67.734084325,68.326334675,50.0,85.0
452,68.39829032499999,68.52190644166666,65.0,93.0
453,68.39829032499999,68.53758908333333,69.0,86.0
454,68.39829032499999,68.54496915,62.0,92.0
455,68.61969232499999,69.05327124166666,50.0,63.0
456,69.062496325,69.24423046666666,65.0,100.0
457,69.062496325,69.26544815833333,62.0,93.0
458,69.062496325,69.26821568333332,69.0,95.0
459,69.505300325,69.84386088333333,67.0,95.0
460,69.505300325,69.85216345833334,64.0,97.0
461,69.505300325,69.85769850833333,71.0,95.0
462,69.505300325,69.95732940833332,40.0,71.0
463,70.390908325,70.64736564166667,40.0,55.0
464,70.390908325,70.66120326666666,47.0,71.0
465,70.390908325,70.67135085833333,67.0,85.0
466,70.390908325,70.68518848333333,64.0,90.0
467,70.390908325,70.69718109166666,71.0,83.0
468,70.390908325,70.72670135833333,52.0,86.0
469,71.719320325,71.82264125833333,64.0,75.0
470,71.719320325,71.82633129166666,72.0,76.0
471,71.719320325,71.82817630833333,69.0,88.0
472,71.27651632499999,71.88629433333332,45.0,89.0
473,71.940722325,72.07540854166666,69.0,86.0
474,71.940722325,72.0818661,72.0,74.0
475,71.940722325,72.09201369166666,64.0,75.0
476,72.162124325,72.521902575,57.0,85.0
477,72.604928325,72.76544477499999,69.0,85.0
478,72.604928325,72.77190233333333,64.0,78.0
479,72.604928325,72.77374735,72.0,76.0
480,72.162124325,72.86138564166666,52.0,63.0
481,73.490536325,73.59201224166667,69.0,86.0
482,73.490536325,73.5984698,72.0,75.0
483,73.490536325,73.60031481666667,64.0,81.0
484,73.047732325,73.70732578333333,45.0,69.0
485,73.71193832499999,73.8510048125,69.0,83.0
486,73.71193832499999,73.85550121874999,72.0,78.0
487,73.71193832499999,73.867191875,64.0,73.0
488,73.93104084375,74.25658065625,57.0,78.0
489,74.36269584375,74.49758803125,69.0,96.0
490,74.36269584375,74.503883,64.0,89.0
491,74.36269584375,74.51737221875,72.0,93.0
492,73.93104084375,74.6423723125,52.0,39.0
493,75.22600584375,75.33122175,69.0,86.0
494,75.22600584375,75.338416,64.0,76.0
495,75.22600584375,75.34650953124999,72.0,81.0
496,74.79435084375,75.4661139375,45.0,82.0
497,75.44183334374999,75.5596391875,69.0,85.0
498,75.44183334374999,75.57132984375,64.0,76.0
499,75.44183334374999,75.57222912499999,72.0,75.0
500,75.65766084375,75.97960353124999,57.0,86.0
501,76.08931584375,76.22420803125,69.0,86.0
502,76.08931584375,76.2323015625,72.0,78.0
503,76.08931584375,76.2394958125,64.0,82.0
504,75.65766084375,76.4175535,52.0,63.0
505,76.95262584375,77.05514390625,69.0,85.0
506,76.95262584375,77.05694246875,64.0,74.0
507,76.95262584375,77.05874103125,72.0,75.0
508,76.52097084374999,77.26018003125,45.0,69.0
509,77.16845334375,77.27636709375,69.0,82.0
510,77.16845334375,77.2790649375,64.0,72.0
511,77.16845334375,77.27996421875,72.0,74.0
512,77.38428084374999,77.80334590625,57.0,74.0
513,77.38428084374999,77.81593584375,52.0,50.0
514,77.81593584375,77.97510862499999,69.0,95.0
515,77.81593584375,77.99759065625,72.0,93.0
516,78.6798907875,78.77047037083332,65.0,85.0
517,78.6798907875,78.77590514583333,69.0,83.0
518,78.6798907875,78.78224571666667,62.0,82.0
519,78.24759084375,78.80941959166667,38.0,63.0
520,78.89728178749999,78.99329614583333,65.0,90.0
521,78.89728178749999,79.00325989999999,62.0,85.0
522,78.89728178749999,79.00325989999999,69.0,85.0
523,79.1146727875,79.53315046249999,50.0,77.0
524,79.1146727875,79.60017935416666,45.0,47.0
525,79.5494547875,79.64546914583333,65.0,93.0
526,79.5494547875,79.65180971666666,62.0,86.0
527,79.5494547875,79.66449085833332,69.0,89.0
528,80.4190187875,80.51412735,65.0,83.0
529,80.4190187875,80.52318530833332,62.0,83.0
530,80.4190187875,80.52680849166666,69.0,79.0
531,80.6364097875,80.74148210416666,65.0,93.0
532,80.6364097875,80.75416324583333,62.0,86.0
533,80.6364097875,80.75416324583333,69.0,85.0
534,79.9842367875,80.75959802083332,38.0,78.0
535,80.85380078749999,81.38006816666666,50.0,69.0
536,81.28858278749999,81.49329264583334,65.0,90.0
537,81.28858278749999,81.5059737875,62.0,86.0
538,81.28858278749999,81.51412595,69.0,88.0
539,81.7233647875,82.2396684125,36.0,83.0
540,82.1581467875,82.27499445,60.0,81.0
541,82.1581467875,82.27952342916666,55.0,78.0
542,82.1581467875,82.28314661249999,64.0,77.0
543,82.3755377875,82.443472475,36.0,58.0
544,82.3755377875,82.46339998333333,48.0,79.0
545,82.5929287875,82.938037,36.0,60.0
546,82.5929287875,83.226080075,48.0,79.0
547,83.0277107875,83.31394227083334,60.0,89.0
548,83.24510178749999,83.35560887916667,55.0,78.0
549,83.0277107875,83.399992875,64.0,85.0
550,83.8972747875,84.0168398375,60.0,81.0
551,83.8972747875,84.02136881666667,57.0,81.0
552,83.4624927875,84.02408620416666,45.0,76.0
553,83.8972747875,84.13640488749999,64.0,76.0
554,84.1146657875,84.22517287916666,45.0,68.0
555,84.3320567875,85.06665720833333,45.0,81.0
556,84.76683878749999,85.16267156666666,60.0,99.0
557,84.76683878749999,85.18712805416666,64.0,92.0
558,85.20162078749999,85.736946125,48.0,81.0
559,85.6364027875,85.76411999999999,55.0,82.0
560,85.6364027875,85.78404750833333,60.0,89.0
561,85.6364027875,85.79401126249999,64.0,82.0
562,85.8537937875,85.954337125,48.0,73.0
563,86.0711847875,86.72154619583333,48.0,66.0
564,86.5059667875,86.8537923875,60.0,97.0
565,86.72335778749999,86.88006046666666,55.0,75.0
566,86.5059667875,86.8864010375,64.0,92.0
567,86.9407487875,87.47245094166666,45.0,70.0
568,87.3755307875,87.55487836249999,57.0,75.0
569,87.3755307875,87.63005941666667,60.0,79.0
570,87.59292178749999,87.6988999,45.0,78.0
571,87.3755307875,87.80578380833333,64.0,76.0
572,87.8103127875,88.30850049583333,45.0,78.0
573,88.2450947875,88.64364495416666,64.0,88.0
574,88.2450947875,88.71520282499999,60.0,97.0
575,88.4624857875,88.7287897625,57.0,78.0
576,88.67987678749999,89.18712245416667,38.0,78.0
577,89.3320497875,89.42806414583333,45.0,72.0
578,89.11465878749999,89.63458559583333,57.0,88.0
579,89.11465878749999,89.65179571666667,62.0,95.0
580,89.11465878749999,89.67444061249999,65.0,88.0
581,89.7668317875,90.05396906666667,57.0,95.0
582,89.9842227875,90.31846145,65.0,95.0
583,89.9842227875,90.33657736666666,62.0,92.0
584,89.5494407875,90.37280919999999,45.0,95.0
585,90.2016137875,90.42353376666667,57.0,82.0
586,90.4190047875,90.95614171666666,40.0,77.0
587,90.8537867875,91.03132277083333,52.0,71.0
588,90.8537867875,91.03585174999999,55.0,79.0
589,90.8537867875,91.07027199166666,59.0,77.0
590,91.0711777875,91.16628635,40.0,74.0
591,91.2885687875,91.7450898875,40.0,72.0
592,91.5059597875,92.16266176666666,67.0,70.0
593,91.5059597875,92.18077768333333,64.0,73.0
594,91.7233507875,92.21338633333333,59.0,88.0
595,92.1581327875,92.69708130833334,45.0,77.0
596,92.8103057875,92.91266071666666,45.0,67.0
597,92.59291478749999,93.02769678749999,57.0,71.0
598,92.59291478749999,93.02769678749999,60.0,78.0
599,92.59291478749999,93.02769678749999,64.0,81.0
600,93.02769678749999,93.62280464999999,45.0,93.0
601,93.4624787875,93.63186260833334,69.0,86.0
602,93.4624787875,93.64454375,64.0,78.0
603,93.4624787875,93.65450750416666,72.0,81.0
604,94.332802725,94.41172114999999,69.0,96.0
605,94.332802725,94.42169934166667,64.0,92.0
606,94.332802725,94.42623488333334,72.0,93.0
607,94.332802725,94.42986331666667,45.0,96.0
608,94.550508725,94.62579871666667,69.0,89.0
609,94.550508725,94.63668401666666,64.0,73.0
610,94.550508725,94.63668401666666,72.0,78.0
611,94.550508725,94.6457551,45.0,86.0
612,94.76821472499999,94.88341748333333,69.0,89.0
613,94.76821472499999,94.896117,64.0,82.0
614,94.76821472499999,94.898838325,45.0,89.0
615,94.76821472499999,94.91063073333333,72.0,81.0
616,95.20362672499999,95.350578275,69.0,99.0
617,95.20362672499999,95.35964935833333,45.0,102.0
618,95.20362672499999,95.3750702,72.0,96.0
619,95.20362672499999,95.38141995833332,64.0,93.0
620,95.63956321875,96.11310869791666,45.0,92.0
621,96.07818234375,96.16825557291666,64.0,68.0
622,96.07818234375,96.18388052083333,60.0,86.0
623,96.07818234375,96.1912334375,57.0,76.0
624,96.29876984375,96.4007915625,45.0,85.0
625,96.51935734375,97.00556895833333,45.0,76.0
626,96.96053234375,97.11586270833334,60.0,82.0
627,96.96053234375,97.11586270833334,64.0,68.0
628,96.96053234375,97.1287303125,57.0,75.0
629,97.40170734375,97.87045578125,45.0,81.0
630,97.84288234374999,97.92744088541666,64.0,59.0
631,97.84288234374999,97.93755114583332,60.0,76.0
632,97.84288234374999,97.94306583333334,57.0,66.0
633,98.06346984375,98.15262395833334,45.0,71.0
634,98.72523234375,98.83460697916667,64.0,77.0
635,98.72523234375,98.83644520833333,60.0,88.0
636,98.72523234375,98.84839369791666,57.0,77.0
637,98.28405734374999,98.86769510416667,45.0,83.0
638,99.16640734375,99.69489822916667,48.0,76.0
639,99.60758234375,99.79048614583333,64.0,81.0
640,99.60758234375,99.81162578125,67.0,73.0
641,99.60758234375,99.81254489583333,60.0,74.0
642,100.48993234375,100.67559348958333,65.0,81.0
643,100.48993234375,100.68478463541666,69.0,73.0
644,100.04875734375,100.6912184375,50.0,90.0
645,100.48993234375,100.69857135416666,62.0,81.0
646,101.37228234375,101.4853334375,69.0,68.0
647,101.37228234375,101.49912015625,72.0,68.0
648,101.37228234375,101.50095838541667,64.0,65.0
649,100.93110734375,101.54691411458333,45.0,77.0
650,101.59286984375,101.68661953125,69.0,79.0
651,101.59286984375,101.69581067708333,64.0,68.0
652,101.59286984375,101.70867828125,72.0,72.0
653,101.81345734375,102.19948546875,57.0,86.0
654,102.25463234375,102.40996270833332,69.0,96.0
655,102.25463234375,102.43845526041666,72.0,89.0
656,102.25463234375,102.46051401041666,64.0,89.0
657,101.59286984375,102.51382265625,52.0,14.0
658,103.13698234374999,103.23992317708333,64.0,79.0
659,103.13698234374999,103.25370989583334,60.0,79.0
660,103.13698234374999,103.25922458333334,67.0,77.0
661,102.69580734375,103.3492978125,48.0,89.0
662,103.35756984375,103.45591510416666,64.0,82.0
663,103.35756984375,103.4706209375,60.0,73.0
664,103.35756984375,103.47429739583333,67.0,76.0
665,103.57815734375,104.14984661458334,55.0,72.0
666,104.01933234375,104.16271421875,64.0,86.0
667,104.01933234375,104.17925828125,60.0,75.0
668,104.01933234375,104.18569208333334,67.0,89.0
669,104.90168234375,105.00921875,62.0,73.0
670,104.90168234375,105.01013786458333,71.0,77.0
671,104.90168234375,105.01197609375,67.0,85.0
672,104.46050734375,105.130541875,43.0,73.0
673,105.12226984374999,105.23807828125,67.0,92.0
674,105.12226984374999,105.24818854166666,71.0,89.0
675,105.12226984374999,105.251865,62.0,78.0
676,105.34285734375,105.75002510416667,55.0,85.0
677,105.78403234375,105.89616432291666,71.0,93.0
678,105.78403234375,105.91730395833333,67.0,99.0
679,105.78403234375,105.95223031249999,62.0,89.0
680,106.66638234375,106.77483786458333,55.0,79.0
681,106.66638234375,106.77851432291666,60.0,90.0
682,106.66638234375,106.78127166666667,64.0,82.0
683,106.22520734375,106.92005796875,36.0,85.0
684,106.88696984375,107.01380765625,60.0,85.0
685,106.88696984375,107.02667526041667,55.0,75.0
686,106.88696984375,107.02667526041667,64.0,75.0
687,107.54873234375,107.65718786458334,55.0,97.0
688,107.54873234375,107.65994520833333,60.0,102.0
689,107.54873234375,107.68200395833333,64.0,93.0
690,107.10755734375,107.81251822916667,48.0,88.0
691,108.43108234374999,108.53402317708333,55.0,88.0
692,108.43108234374999,108.53402317708333,60.0,96.0
693,108.43108234374999,108.54505255208333,64.0,90.0
694,108.65166984375,108.76655916666667,60.0,95.0
695,107.98990734374999,108.77850765625,36.0,81.0
696,108.65166984375,108.78126499999999,55.0,88.0
697,108.65166984375,108.78586057291666,64.0,90.0
698,108.87225734375,109.33732932291666,48.0,117.0
699,109.31343234375,109.61490192708334,60.0,107.0
700,109.31343234375,109.63787979166666,64.0,100.0
701,109.53401984375,109.64431359375,55.0,74.0
702,110.19578234375,110.30239963541666,69.0,97.0
703,110.19578234375,110.30975255208332,64.0,86.0
704,110.19578234375,110.31342901041667,72.0,90.0
705,109.75460734375,110.46600203125,45.0,99.0
706,110.41636984375,110.5018475,52.0,30.0
707,110.41636984375,110.534935625,69.0,96.0
708,110.41636984375,110.56067083333333,64.0,89.0
709,110.41636984375,110.56526640625,72.0,89.0
710,110.63695734375,111.11030135416667,57.0,100.0
711,111.07813234375,111.19853635416666,69.0,97.0
712,111.07813234375,111.20497015625,64.0,90.0
713,111.07813234375,111.22059510416666,72.0,95.0
714,110.63695734375,111.35938140625,52.0,63.0
715,111.96048234375,112.056989375,69.0,93.0
716,111.96048234375,112.06618052083333,64.0,86.0
717,111.96048234375,112.07812901041666,72.0,85.0
718,111.51930734375,112.24632697916667,45.0,81.0
719,112.18106984375,112.30790765625,69.0,89.0
720,112.18106984375,112.31342234375,72.0,83.0
721,112.18106984375,112.32353260416667,64.0,75.0
722,112.84283234374999,112.95496432291667,69.0,99.0
723,112.84283234374999,112.96047901041666,64.0,90.0
724,112.40165734375,112.96323635416667,57.0,81.0
725,112.84283234374999,112.9724275,72.0,93.0
726,112.40165734375,113.14981661458333,52.0,60.0
727,113.72518234374999,113.821689375,69.0,92.0
728,113.72518234374999,113.8272040625,64.0,85.0
729,113.72518234374999,113.83271875,72.0,85.0
730,113.28400734375,114.02757104166666,45.0,83.0
731,113.94576984375,114.05238713541667,69.0,95.0
732,113.94576984375,114.05514447916667,72.0,86.0
733,113.94576984375,114.06249739583333,64.0,92.0
734,114.16635734375,114.55881927083334,57.0,81.0
735,114.60753234375,114.71598786458333,69.0,97.0
736,114.60753234375,114.73253192708333,64.0,90.0
737,114.60753234375,114.73620838541666,72.0,92.0
738,114.16635734375,114.89981078125,52.0,54.0
739,115.48988234375,115.57903645833333,69.0,96.0
740,115.48988234375,115.58547026041666,72.0,93.0
741,115.48988234375,115.59190406249999,64.0,85.0
742,115.04870734375,115.72333744791666,45.0,85.0
743,115.71046984374999,115.81800625,69.0,93.0
744,115.71046984374999,115.82719739583334,64.0,78.0
745,115.71046984374999,115.82995473958333,72.0,86.0
746,115.93105734375,116.27480619791666,57.0,97.0
747,115.71046984374999,116.29318848958333,52.0,25.0
748,116.37223234375,116.49998927083334,69.0,102.0
749,116.37223234375,116.52388625,72.0,97.0
750,116.37223234375,116.56340817708333,64.0,81.0
751,117.25458234375,117.35017026041666,65.0,95.0
752,117.25458234375,117.35844229166666,62.0,85.0
753,117.25458234375,117.36211875,69.0,92.0
754,117.47516984375,117.54502255208334,45.0,18.0
755,117.47516984375,117.57443421875,65.0,92.0
756,117.47516984375,117.58362536458333,69.0,89.0
757,116.81340734375,117.59189739583333,38.0,73.0
758,117.47516984375,117.59465473958333,62.0,85.0
759,118.13693234375,118.26285104166666,69.0,90.0
760,118.13693234375,118.26836572916666,65.0,95.0
761,118.13693234375,118.28123333333333,62.0,86.0
762,117.69575734374999,118.40623291666667,50.0,74.0
763,119.01928234374999,119.12222317708333,59.0,79.0
764,119.01928234374999,119.12498052083333,64.0,93.0
765,119.01928234374999,119.12681875,67.0,86.0
766,118.57810734374999,119.33545776041666,40.0,62.0
767,119.23986984375,119.3639503125,64.0,88.0
768,119.23986984375,119.3639503125,67.0,85.0
769,119.23986984375,119.380494375,59.0,81.0
770,119.90163234375,119.99722026041667,64.0,93.0
771,119.90163234375,120.00457317708333,59.0,89.0
772,119.90163234375,120.02203635416666,67.0,88.0
773,119.46045734375,120.23710916666667,52.0,77.0
774,120.78398234375,120.88784229166666,69.0,89.0
775,120.78398234375,120.89335697916667,64.0,79.0
776,120.78398234375,120.89979078125,72.0,82.0
777,121.00456984375,121.11118713541666,69.0,95.0
778,120.34280734375,121.11670182291667,45.0,76.0
779,121.00456984375,121.12773119791666,64.0,85.0
780,121.00456984375,121.12956942708334,72.0,85.0
781,121.22515734375,121.5918840625,57.0,96.0
782,121.66633234375,121.76467760416666,69.0,99.0
783,121.66633234375,121.77386874999999,64.0,90.0
784,121.66633234375,121.78397901041666,72.0,96.0
785,121.22515734375,121.9558534375,52.0,42.0
786,122.54868234375,122.63416,69.0,93.0
787,122.54868234375,122.64151291666667,64.0,79.0
788,122.54868234375,122.64886583333333,72.0,83.0
789,122.10750734375,122.83452697916667,45.0,85.0
790,122.76926984375,122.88140182291667,69.0,95.0
791,122.76926984375,122.9043796875,72.0,92.0
792,122.76926984375,122.909894375,64.0,86.0
793,123.21044484375,123.29408427083334,69.0,92.0
794,123.21044484375,123.30511364583333,64.0,82.0
795,123.21044484375,123.30970921875,72.0,85.0
796,122.98985734375,123.33636354166666,57.0,96.0
797,123.43103234374999,123.54775989583334,69.0,102.0
798,123.43103234374999,123.56981864583332,64.0,102.0
799,123.43103234374999,123.5771715625,72.0,100.0
800,122.98985734375,123.68838442708334,52.0,66.0
801,124.31338234374999,124.4154040625,69.0,95.0
802,124.31338234374999,124.42827166666666,64.0,89.0
803,124.31338234374999,124.42827166666666,72.0,92.0
804,124.53396984375,124.63323421875,52.0,27.0
805,123.87220734375,124.63691067708334,45.0,86.0
806,124.53396984375,124.64150624999999,69.0,92.0
807,124.53396984375,124.65988854166666,72.0,88.0
808,124.53396984375,124.66540322916666,64.0,88.0
809,124.75455734375,125.04315932291667,57.0,99.0
810,124.97514484375,125.0661371875,69.0,102.0
811,124.97514484375,125.08268125,64.0,95.0
812,124.97514484375,125.08635770833334,72.0,97.0
813,125.41631984374999,125.52201802083333,69.0,96.0
814,125.41631984374999,125.545915,64.0,90.0
815,124.75455734375,125.54775322916666,52.0,61.0
816,125.41631984374999,125.556944375,72.0,93.0
817,125.85749484375,125.97054593749999,69.0,90.0
818,125.85749484375,125.97881796875,64.0,86.0
819,125.85749484375,125.98525177083333,72.0,89.0
820,125.63690734375,125.99352380208333,45.0,88.0
821,126.29866984374999,126.35749317708333,45.0,43.0
822,126.29866984374999,126.3786328125,52.0,50.0
823,126.29866984374999,126.38230927083333,69.0,92.0
824,126.29866984374999,126.39150041666666,57.0,78.0
825,126.29866984374999,126.39793421875,64.0,83.0
826,126.29866984374999,126.40344890624999,72.0,83.0
827,126.51925734375,126.59186739583333,45.0,56.0
828,126.51925734375,126.61300703124999,52.0,73.0
829,126.51925734375,126.62495552083334,69.0,93.0
830,126.51925734375,126.62587463541666,57.0,92.0
831,126.51925734375,126.63690401041666,64.0,89.0
832,126.51925734375,126.64609515625,72.0,83.0
833,126.96043234375,127.05602026041666,45.0,53.0
834,126.96043234375,127.06613052083333,57.0,92.0
835,126.96043234375,127.06796875,69.0,97.0
836,126.96043234375,127.07624078125,64.0,93.0
837,126.96043234375,127.07807901041667,52.0,78.0
838,126.96043234375,127.09186572916667,72.0,95.0
839,127.84278234375,127.94388494791667,69.0,86.0
840,127.84278234375,127.9448040625,64.0,79.0
841,127.84278234375,127.95307609375,72.0,76.0
842,127.40160734375,128.00087005208331,45.0,85.0
843,128.06336984375,128.14241369791665,52.0,24.0
844,128.06336984375,128.16814890625,69.0,95.0
845,128.06336984375,128.18561208333333,64.0,85.0
846,128.06336984375,128.1874503125,72.0,86.0
847,128.28395734375,128.645169375,57.0,79.0
848,128.28395734375,128.6506840625,52.0,42.0
849,128.72513234375,128.86483776041666,69.0,96.0
850,128.72513234375,128.87954359375,72.0,93.0
851,128.72513234375,128.95031541666665,64.0,90.0
852,129.60748234375,129.70858494791668,65.0,89.0
853,129.60748234375,129.71501875,62.0,88.0
854,129.60748234375,129.72237166666667,69.0,82.0
855,129.16630734375,129.87126822916667,38.0,69.0
856,129.82806984375,129.91079015625,65.0,88.0
857,129.82806984375,129.93192979166668,69.0,81.0
858,129.82806984375,129.93284890625,62.0,89.0
859,130.48983234374998,130.61667015625,65.0,95.0
860,130.48983234374998,130.63321421875,62.0,93.0
861,130.48983234374998,130.64056713541666,69.0,93.0
862,130.04865734375,130.67641260416667,50.0,74.0
863,130.93100734375,131.2425871875,65.0,96.0
864,130.93100734375,131.25269744791666,62.0,92.0
865,130.93100734375,131.270160625,69.0,93.0
866,130.93100734375,131.35380005208333,38.0,89.0
867,131.81335734375,132.08909171875,67.0,96.0
868,131.81335734375,132.09001083333334,64.0,96.0
869,131.81335734375,132.11115046875,71.0,90.0
870,131.81335734375,132.11850338541666,40.0,95.0
871,132.69570734375,133.00452984375,50.0,102.0
872,132.69570734375,133.00636807291667,38.0,82.0
873,132.69570734375,133.02015479166667,62.0,85.0
874,132.69570734375,133.02015479166667,65.0,86.0
875,132.69570734375,133.02015479166667,69.0,86.0
876,133.13688234375,133.37217567708333,38.0,72.0
877,133.13688234375,133.41353583333333,65.0,93.0
878,133.13688234375,133.41905052083334,50.0,95.0
879,133.13688234375,133.43283723958334,62.0,90.0
880,133.13688234375,133.44570484375,69.0,90.0
881,133.57805734375,133.99165890625,45.0,60.0
882,133.57805734375,133.99717359375,57.0,77.0
883,133.57805734375,134.016475,52.0,69.0
884,133.57805734375,134.04037197916665,69.0,96.0
885,133.57805734375,134.05323958333332,64.0,90.0
886,133.57805734375,134.05599692708333,72.0,90.0
887,134.90158234375,135.01739078125001,72.0,89.0
888,134.90158234375,135.01922901041667,76.0,83.0
889,134.90158234375,135.02198635416667,67.0,82.0
890,134.46040734375,135.15341973958334,48.0,71.0
891,135.12216984375,135.196618125,55.0,26.0
892,135.12216984375,135.25452234375,72.0,92.0
893,135.12216984375,135.2581988020833,76.0,77.0
894,135.12216984375,135.27014729166666,67.0,79.0
895,135.34275734375,135.68099151041667,60.0,75.0
896,135.34275734375,135.748086875,55.0,52.0
897,135.78393234375,135.96132145833332,72.0,96.0
898,135.78393234375,135.96683614583333,76.0,93.0
899,135.78393234375,136.00543895833334,67.0,89.0
900,136.66628234375,136.77473786458333,69.0,92.0
901,136.66628234375,136.78117166666667,64.0,85.0
902,136.66628234375,136.78300989583335,72.0,86.0
903,136.22510734374998,136.9227153125,45.0,72.0
904,136.88686984375,136.94201671874998,52.0,26.0
905,136.88686984375,137.01370765625,69.0,88.0
906,136.88686984375,137.03208994791666,72.0,82.0
907,136.88686984375,137.04495755208333,64.0,75.0
908,137.10745734375,137.59183072916667,52.0,50.0
909,137.32804484375,137.60286010416667,69.0,96.0
910,137.32804484375,137.6175659375,64.0,89.0
911,137.32804484375,137.6175659375,72.0,93.0
912,137.10745734375,137.63686734375,57.0,78.0
913,137.76921984375,137.96223390625,64.0,83.0
914,137.76921984375,137.97693973958332,69.0,92.0
915,137.76921984375,137.97693973958332,72.0,83.0
916,138.43098234375,138.54587166666667,67.0,85.0
917,138.43098234375,138.54770989583332,72.0,102.0
918,138.43098234375,138.549548125,76.0,96.0
919,137.98980734375,138.69660645833332,48.0,78.0
920,138.65156984375,138.80690020833333,72.0,96.0
921,138.65156984375,138.81609135416667,76.0,86.0
922,138.65156984375,138.82436338541666,67.0,82.0
923,138.87215734375,139.16535489583333,60.0,81.0
924,138.87215734375,139.20947239583333,55.0,61.0
925,139.31333234375,139.50175083333335,76.0,93.0
926,139.31333234375,139.51553755208334,72.0,96.0
927,139.31333234375,139.5477065625,67.0,92.0
928,140.19568234374998,140.29586583333332,69.0,95.0
929,140.19568234374998,140.29954229166665,64.0,86.0
930,140.19568234374998,140.30781432291667,72.0,88.0
931,139.75450734375,140.48704166666667,45.0,83.0
932,140.41626984375,140.66259255208334,69.0,88.0
933,140.41626984375,140.68189395833332,64.0,78.0
934,140.41626984375,140.6837321875,72.0,76.0
935,140.63685734375,140.96773859375,52.0,55.0
936,140.85744484375,141.152480625,69.0,93.0
937,140.85744484375,141.17086291666666,72.0,88.0
938,140.85744484375,141.17178203125,64.0,90.0
939,140.63685734375,141.19292166666668,57.0,81.0
940,141.29861984375,141.46865604166666,69.0,92.0
941,141.29861984375,141.483361875,72.0,83.0
942,141.29861984375,141.58262625,64.0,90.0
943,141.96038234374998,142.05964671875,65.0,95.0
944,141.96038234374998,142.07251432291667,62.0,90.0
945,141.96038234374998,142.07802901041666,69.0,95.0
946,141.51920734375,142.10927890624998,50.0,85.0
947,142.18096984375,142.30413119791666,65.0,93.0
948,142.18096984375,142.31975614583334,69.0,86.0
949,142.18096984375,142.3271090625,62.0,92.0
950,142.40155734375,142.83354119791667,50.0,63.0
951,142.84273234375,143.02379791666667,65.0,100.0
952,142.84273234375,143.04493755208333,62.0,93.0
953,142.84273234375,143.04769489583333,69.0,95.0
954,143.28390734375,143.62122239583334,67.0,95.0
955,143.28390734375,143.62949442708333,64.0,97.0
956,143.28390734375,143.63500911458334,71.0,95.0
957,143.28390734375,143.72508234375,40.0,71.0
958,144.16625734375,144.69290999999998,52.0,89.0
959,144.16625734375,144.770115625,71.0,89.0
960,144.16625734375,144.79033614583332,64.0,92.0
961,144.16625734375,144.80688020833333,67.0,88.0
962,145.48978234375,145.59639963541667,64.0,81.0
963,145.48978234375,145.59639963541667,72.0,90.0
964,145.48978234375,145.59915697916665,69.0,95.0
965,145.04860734375,145.652465625,45.0,85.0
966,145.71036984375,145.82434005208333,69.0,79.0
967,145.71036984375,145.82801651041666,72.0,79.0
968,145.71036984375,145.83261208333334,64.0,72.0
969,145.93095734374998,146.42727921875,57.0,82.0
970,145.93095734374998,146.45761,52.0,63.0
971,146.37213234375,146.56882286458332,69.0,86.0
972,146.37213234375,146.57617578125,72.0,83.0
973,146.37213234375,146.59363895833332,64.0,85.0
974,147.25448234375,147.34731291666668,64.0,69.0
975,147.25448234375,147.35282760416666,72.0,77.0
976,147.25448234375,147.35742317708332,69.0,86.0
977,146.81330734375,147.60650322916666,45.0,86.0
978,147.47506984375,147.62764286458332,72.0,93.0
979,147.47506984375,147.63131932291665,69.0,99.0
980,147.47506984375,147.637753125,64.0,83.0
981,147.69565734374999,148.17727338541667,52.0,78.0
982,148.13683234375,148.32800817708335,69.0,100.0
983,148.13683234375,148.33076552083332,64.0,86.0
984,148.13683234375,148.33995666666667,72.0,93.0
985,149.0178637875,149.1238419,69.0,79.0
986,149.0178637875,149.13471145,64.0,75.0
987,149.0178637875,149.13561724583334,72.0,72.0
988,148.57800734375,149.2107983,45.0,82.0
989,149.2352547875,149.36659518333335,72.0,71.0
990,149.2352547875,149.36750097916666,69.0,78.0
991,149.2352547875,149.39286326250001,64.0,69.0
992,149.4526457875,149.86750027916668,57.0,71.0
993,149.8874277875,150.03597830416666,69.0,83.0
994,149.8874277875,150.0450362625,72.0,79.0
995,149.8874277875,150.04594205833334,64.0,83.0
996,149.4526457875,150.21804326666665,52.0,42.0
997,150.7569917875,150.857535125,69.0,75.0
998,150.7569917875,150.86115830833333,64.0,66.0
999,150.7569917875,150.86115830833333,72.0,71.0
1000,150.32220978750001,151.05681020833333,45.0,66.0
1001,150.9743827875,151.08217249166665,69.0,82.0
1002,150.9743827875,151.09213624583333,64.0,72.0
1003,150.9743827875,151.0939478375,72.0,78.0
1004,151.1917737875,151.63017897083333,57.0,61.0
1005,151.1917737875,151.6645992125,52.0,28.0
1006,151.6265557875,151.792316425,69.0,90.0
1007,151.6265557875,151.79956279166666,72.0,86.0
1008,151.6265557875,151.83670042083332,64.0,79.0
1009,152.4961197875,152.5885109625,64.0,85.0
1010,152.4961197875,152.60390949166666,60.0,74.0
1011,152.4961197875,152.61477904166668,67.0,77.0
1012,152.0613377875,152.68814850416666,48.0,70.0
1013,152.7135107875,152.82854685833334,67.0,63.0
1014,152.7135107875,152.8385106125,60.0,66.0
1015,152.7135107875,152.84032220416668,64.0,79.0
1016,152.9309017875,153.35662582916666,50.0,66.0
1017,153.3656837875,153.58216899166666,65.0,96.0
1018,153.3656837875,153.60571968333335,62.0,79.0
1019,153.3656837875,153.6156834375,69.0,90.0
1020,154.23524778750001,154.35390704166667,69.0,89.0
1021,154.23524778750001,154.35662442916666,72.0,85.0
1022,154.23524778750001,154.36115340833334,64.0,73.0
1023,153.8004657875,154.4580735625,45.0,77.0
1024,154.4526387875,154.574921225,69.0,83.0
1025,154.4526387875,154.585790775,72.0,77.0
1026,154.4526387875,154.5885081625,64.0,70.0
1027,154.6700297875,155.13832623333334,57.0,65.0
1028,155.1048117875,155.30861585,72.0,85.0
1029,155.1048117875,155.32673176666668,69.0,92.0
1030,155.1048117875,155.35209405,64.0,81.0
1031,154.6700297875,155.39919543333335,52.0,42.0
1032,155.5395937875,155.987962725,48.0,76.0
1033,155.9743757875,156.06767275833334,64.0,86.0
1034,155.9743757875,156.07673071666667,60.0,79.0
1035,155.9743757875,156.08125969583332,67.0,82.0
1036,156.1917667875,156.30952024583334,64.0,83.0
1037,156.1917667875,156.32401297916667,67.0,74.0
1038,156.1917667875,156.3548100375,60.0,73.0
1039,156.4091577875,156.92364982083333,45.0,73.0
1040,156.8439397875,156.9254614125,60.0,89.0
1041,156.8439397875,156.93995414583333,57.0,78.0
1042,156.8439397875,156.93995414583333,64.0,79.0
1043,157.7135037875,157.81042394166667,59.0,71.0
1044,157.7135037875,157.81042394166667,59.0,77.0
1045,157.7135037875,157.81857610416668,62.0,72.0
1046,157.7135037875,157.81857610416668,62.0,76.0
1047,157.7135037875,157.82129349166667,55.0,67.0
1048,157.7135037875,157.82129349166667,55.0,68.0
1049,157.2787217875,157.90734409583334,43.0,79.0
1050,157.2787217875,157.90734409583334,43.0,81.0
1051,157.9308947875,158.01875698333333,59.0,73.0
1052,157.9308947875,158.01875698333333,59.0,79.0
1053,157.9308947875,158.0287207375,55.0,69.0
1054,157.9308947875,158.0287207375,55.0,73.0
1055,157.9308947875,158.03324971666666,62.0,72.0
1056,157.9308947875,158.03324971666666,62.0,73.0
1057,158.0395902875,158.4363288625,50.0,55.0
1058,158.5830677875,158.7189371625,59.0,83.0
1059,158.5830677875,158.72527773333334,55.0,77.0
1060,158.5830677875,158.73342989583332,62.0,76.0
1061,159.4526317875,159.564044675,64.0,78.0
1062,159.4526317875,159.56766785833332,55.0,73.0
1063,159.4526317875,159.56766785833332,60.0,85.0
1064,159.6700227875,159.7787182875,55.0,71.0
1065,159.6700227875,159.78324726666668,60.0,79.0
1066,159.0178497875,159.7841530625,36.0,68.0
1067,159.6700227875,159.7841530625,64.0,72.0
1068,160.3221957875,160.4798042625,55.0,77.0
1069,160.3221957875,160.48071005833333,60.0,85.0
1070,160.3221957875,160.4906738125,64.0,79.0
1071,159.8874137875,160.618391025,48.0,59.0
1072,161.1917597875,161.28505675833333,55.0,72.0
1073,161.1917597875,161.29139732916667,60.0,89.0
1074,161.1917597875,161.29139732916667,64.0,81.0
1075,160.7569777875,161.43451307083333,36.0,60.0
1076,161.4091507875,161.52146947083332,64.0,78.0
1077,161.4091507875,161.52599845,60.0,88.0
1078,161.4091507875,161.53052742916668,55.0,78.0
1079,161.6265417875,162.09755562083333,48.0,78.0
1080,162.06132378750002,162.24429454583333,55.0,90.0
1081,162.06132378750002,162.24972932083332,60.0,95.0
1082,162.06132378750002,162.2678452375,64.0,89.0
1083,162.93154221875,163.045593,69.0,75.0
1084,162.93154221875,163.04741781250002,64.0,72.0
1085,162.93154221875,163.05380465625,72.0,74.0
1086,162.4961057875,163.22351221875002,45.0,73.0
1087,163.15051971875002,163.28190621875,69.0,77.0
1088,163.15051971875002,163.2882930625,64.0,73.0
1089,163.15051971875002,163.29103028125002,72.0,73.0
1090,163.36949721875,163.78555446875,57.0,67.0
1091,163.80745221875,163.95343721875,64.0,82.0
1092,163.80745221875,163.95708684375,69.0,88.0
1093,163.80745221875,163.96529850000002,72.0,82.0
1094,163.36949721875,164.1861008125,52.0,45.0
1095,164.68336221875,164.79467578125002,69.0,75.0
1096,164.68336221875,164.797413,72.0,71.0
1097,164.68336221875,164.8065370625,64.0,69.0
1098,164.24540721875002,165.00452921875,45.0,72.0
1099,164.90233971875,165.03190140625,69.0,88.0
1100,164.90233971875,165.04649990625,72.0,83.0
1101,164.90233971875,165.04832471875,64.0,72.0
1102,165.12131721875,165.66146171875002,57.0,76.0
1103,165.55927221875,165.669673375,69.0,89.0
1104,165.55927221875,165.68153465625,72.0,79.0
1105,165.55927221875,165.6897463125,64.0,81.0
1106,165.12131721875,165.7481403125,52.0,39.0
1107,166.43518221875001,166.53007246875,69.0,83.0
1108,166.43518221875001,166.54102134375,64.0,75.0
1109,166.43518221875001,166.54375856250002,72.0,79.0
1110,165.99722721875,166.71711575,45.0,71.0
1111,166.65415971875,166.76091125000002,69.0,88.0
1112,166.65415971875,166.78007178125,64.0,74.0
1113,166.65415971875,166.7809841875,72.0,79.0
1114,166.87313721875,167.37313584375002,57.0,85.0
1115,167.31109221875002,167.42970503125,69.0,93.0
1116,167.31109221875002,167.4488655625,72.0,88.0
1117,167.31109221875002,167.45890203125,64.0,81.0
1118,166.76364846875,167.494485875,52.0,34.0
1119,168.18700221875,168.28645450000002,69.0,79.0
1120,168.18700221875,168.29740337500002,72.0,72.0
1121,168.18700221875,168.30196540625002,64.0,72.0
1122,168.40597971875002,168.516380875,69.0,89.0
1123,168.40597971875002,168.52459253125,64.0,75.0
1124,168.40597971875002,168.53006696875002,72.0,82.0
1125,167.74904721875,168.54557787500002,45.0,72.0
1126,168.62495721875,168.98991971875,57.0,78.0
1127,169.06291221875,169.43243675000002,69.0,95.0
1128,169.06291221875,169.44977246875,72.0,90.0
1129,169.06291221875,169.49174315625,64.0,93.0
1130,169.93882221875,170.04009931250002,65.0,88.0
1131,169.93882221875,170.04557375000002,62.0,81.0
1132,169.93882221875,170.0546978125,69.0,79.0
1133,170.15779971875,170.286449,65.0,85.0
1134,170.15779971875,170.2955730625,69.0,73.0
1135,169.50086721875002,170.29831028125,38.0,77.0
1136,170.15779971875,170.3065219375,62.0,78.0
1137,170.81473221875,171.00542512500002,62.0,79.0
1138,170.81473221875,171.0145491875,65.0,82.0
1139,170.81473221875,171.027322875,69.0,75.0
1140,170.37677721875002,171.13042478125,50.0,68.0
1141,171.69064221875,171.79465653125,67.0,85.0
1142,171.69064221875,171.80560540625,64.0,75.0
1143,171.69064221875,171.80834262500002,71.0,82.0
1144,171.14319846875,171.86673662500002,40.0,74.0
1145,171.90961971875,172.0437434375,67.0,86.0
1146,171.90961971875,172.0656411875,71.0,73.0
1147,171.90961971875,172.06655359375,64.0,74.0
1148,172.56655221875002,172.72804812500002,67.0,85.0
1149,172.56655221875002,172.74173421875,64.0,75.0
1150,172.56655221875002,172.75268309375002,71.0,77.0
1151,172.12859721875,172.81655153125,52.0,67.0
1152,173.44246221875,173.54921375,72.0,75.0
1153,173.44246221875,173.55286337500002,64.0,75.0
1154,173.44246221875,173.55377578125,69.0,86.0
1155,172.89501846875,173.6295055,45.0,82.0
1156,173.66143971875002,173.79282621875,69.0,90.0
1157,173.66143971875002,173.81107434375002,72.0,83.0
1158,173.66143971875002,173.81198675000002,64.0,78.0
1159,173.77092846875001,174.30012409375001,57.0,72.0
1160,174.20888346875,174.33662034375,64.0,79.0
1161,174.20888346875,174.33753275,72.0,82.0
1162,174.31837221875,174.4378974375,69.0,88.0
1163,173.77092846875001,174.516364375,52.0,33.0
1164,175.19428221875,175.2937345,69.0,89.0
1165,175.19428221875,175.2937345,72.0,78.0
1166,175.19428221875,175.29464690625002,64.0,75.0
1167,175.30377096875,175.43333265625,64.0,82.0
1168,175.30377096875,175.4342450625,72.0,83.0
1169,174.75632721875002,175.45340559375,45.0,70.0
1170,175.41325971875,175.530960125,69.0,90.0
1171,175.52274846875,175.9889880625,57.0,97.0
1172,175.96070346875,176.21252759375,64.0,88.0
1173,175.96070346875,176.21891443750002,69.0,99.0
1174,175.96070346875,176.22895090625002,72.0,93.0
1175,176.86175234375,176.9637740625,69.0,95.0
1176,176.86175234375,176.97664166666667,64.0,89.0
1177,176.86175234375,176.97664166666667,72.0,92.0
1178,177.08233984375,177.18160421874998,52.0,27.0
1179,176.49061308125002,177.18528067708334,45.0,86.0
1180,177.08233984375,177.18987625,69.0,92.0
1181,177.08233984375,177.20825854166665,72.0,88.0
1182,177.08233984375,177.21377322916666,64.0,88.0
1183,177.30292734374999,177.59152932291667,57.0,99.0
1184,177.52351484375,177.6145071875,69.0,102.0
1185,177.52351484375,177.63105124999998,64.0,95.0
1186,177.52351484375,177.63472770833332,72.0,97.0
1187,177.96468984375,178.07038802083332,69.0,96.0
1188,177.96468984375,178.09428499999999,64.0,90.0
1189,177.30292734374999,178.09612322916666,52.0,61.0
1190,177.96468984375,178.105314375,72.0,93.0
1191,178.40586484375,178.5189159375,69.0,90.0
1192,178.40586484375,178.52718796874998,64.0,86.0
1193,178.40586484375,178.53362177083332,72.0,89.0
1194,178.18527734375,178.54189380208334,45.0,88.0
1195,178.84703984375,178.90586317708332,45.0,43.0
1196,178.84703984375,178.9270028125,52.0,50.0
1197,178.84703984375,178.93067927083334,69.0,92.0
1198,178.84703984375,178.93987041666665,57.0,78.0
1199,178.84703984375,178.94630421875,64.0,83.0
1200,178.84703984375,178.95181890625,72.0,83.0
1201,179.06762734375,179.14023739583334,45.0,56.0
1202,179.06762734375,179.16137703125,52.0,73.0
1203,179.06762734375,179.17332552083332,69.0,93.0
1204,179.06762734375,179.17424463541667,57.0,92.0
1205,179.06762734375,179.18527401041666,64.0,89.0
1206,179.06762734375,179.19446515625,72.0,83.0
1207,179.50880234375,179.60439026041666,45.0,53.0
1208,179.50880234375,179.61450052083333,57.0,92.0
1209,179.50880234375,179.61633874999998,69.0,97.0
1210,179.50880234375,179.62461078125,64.0,93.0
1211,179.50880234375,179.62644901041665,52.0,78.0
1212,179.50880234375,179.64023572916668,72.0,95.0
1213,180.39115234375,180.49225494791665,69.0,86.0
1214,180.39115234375,180.4931740625,64.0,79.0
1215,180.39115234375,180.50144609375,72.0,76.0
1216,179.94997734375,180.54924005208332,45.0,85.0
1217,180.61173984375,180.69078369791666,52.0,24.0
1218,180.61173984375,180.71651890625,69.0,95.0
1219,180.61173984375,180.73398208333333,64.0,85.0
1220,180.61173984375,180.73582031249998,72.0,86.0
1221,180.83232734375,181.193539375,57.0,79.0
1222,180.83232734375,181.19905406249998,52.0,42.0
1223,181.27350234374998,181.41320776041667,69.0,96.0
1224,181.27350234374998,181.42791359375,72.0,93.0
1225,181.27350234374998,181.49868541666666,64.0,90.0
1226,182.15585234374998,182.25695494791665,65.0,89.0
1227,182.15585234374998,182.26338875,62.0,88.0
1228,182.15585234374998,182.27074166666665,69.0,82.0
1229,181.71467734375,182.41963822916665,38.0,69.0
1230,182.37643984375,182.45916015625,65.0,88.0
1231,182.37643984375,182.48029979166665,69.0,81.0
1232,182.37643984375,182.48121890625,62.0,89.0
1233,183.03820234375,183.16504015625,65.0,95.0
1234,183.03820234375,183.18158421875,62.0,93.0
1235,183.03820234375,183.18893713541667,69.0,93.0
1236,182.59702734375,183.22478260416665,50.0,74.0
1237,183.47937734375,183.7909571875,65.0,96.0
1238,183.47937734375,183.80106744791667,62.0,92.0
1239,183.47937734375,183.818530625,69.0,93.0
1240,183.47937734375,183.90217005208333,38.0,89.0
1241,184.36172734375,184.63746171875,67.0,96.0
1242,184.36172734375,184.63838083333331,64.0,96.0
1243,184.36172734375,184.65952046875,71.0,90.0
1244,184.36172734375,184.66687338541666,40.0,95.0
1245,185.24407734375,185.55289984375,50.0,102.0
1246,185.24407734375,185.55473807291665,38.0,82.0
1247,185.24407734375,185.56852479166668,62.0,85.0
1248,185.24407734375,185.56852479166668,65.0,86.0
1249,185.24407734375,185.56852479166668,69.0,86.0
1250,185.68525234375,185.92054567708334,38.0,72.0
1251,185.68525234375,185.96190583333333,65.0,93.0
1252,185.68525234375,185.96742052083334,50.0,95.0
1253,185.68525234375,185.98120723958334,62.0,90.0
1254,185.68525234375,185.99407484374998,69.0,90.0
1255,186.12642734374998,186.54002890625,45.0,60.0
1256,186.12642734374998,186.54554359374998,57.0,77.0
1257,186.12642734374998,186.564845,52.0,69.0
1258,186.12642734374998,186.58874197916666,69.0,96.0
1259,186.12642734374998,186.60160958333333,64.0,90.0
1260,186.12642734374998,186.60436692708333,72.0,90.0
1261,187.44995234375,187.56576078125,72.0,89.0
1262,187.44995234375,187.56759901041667,76.0,83.0
1263,187.44995234375,187.57035635416668,67.0,82.0
1264,187.00877734374998,187.70178973958332,48.0,71.0
1265,187.67053984375,187.744988125,55.0,26.0
1266,187.67053984375,187.80289234375,72.0,92.0
1267,187.67053984375,187.80656880208332,76.0,77.0
1268,187.67053984375,187.81851729166667,67.0,79.0
1269,187.89112734375,188.22936151041665,60.0,75.0
1270,187.89112734375,188.296456875,55.0,52.0
1271,188.33230234375,188.50969145833332,72.0,96.0
1272,188.33230234375,188.51520614583333,76.0,93.0
1273,188.33230234375,188.55380895833332,67.0,89.0
1274,189.21465234375,189.32310786458333,69.0,92.0
1275,189.21465234375,189.32954166666667,64.0,85.0
1276,189.21465234375,189.33137989583332,72.0,86.0
1277,188.77347734375,189.4710853125,45.0,72.0
1278,189.43523984375,189.49038671875,52.0,26.0
1279,189.43523984375,189.56207765624998,69.0,88.0
1280,189.43523984375,189.58045994791667,72.0,82.0
1281,189.43523984375,189.59332755208334,64.0,75.0
1282,189.65582734375,190.14020072916665,52.0,50.0
1283,189.87641484374998,190.15123010416667,69.0,96.0
1284,189.87641484374998,190.1659359375,64.0,89.0
1285,189.87641484374998,190.1659359375,72.0,93.0
1286,189.65582734375,190.18523734375,57.0,78.0
1287,190.31758984375,190.51060390625,64.0,83.0
1288,190.31758984375,190.52530973958332,69.0,92.0
1289,190.31758984375,190.52530973958332,72.0,83.0
1290,190.97935234375,191.09424166666668,67.0,85.0
1291,190.97935234375,191.09607989583333,72.0,102.0
1292,190.97935234375,191.097918125,76.0,96.0
1293,190.53817734375,191.24497645833333,48.0,78.0
1294,191.19993984375,191.35527020833334,72.0,96.0
1295,191.19993984375,191.36446135416665,76.0,86.0
1296,191.19993984375,191.37273338541667,67.0,82.0
1297,191.42052734375,191.71372489583334,60.0,81.0
1298,191.42052734375,191.75784239583334,55.0,61.0
1299,191.86170234374998,192.05012083333332,76.0,93.0
1300,191.86170234374998,192.06390755208332,72.0,96.0
1301,191.86170234374998,192.0960765625,67.0,92.0
1302,192.74405234374998,192.84423583333333,69.0,95.0
1303,192.74405234374998,192.84791229166666,64.0,86.0
1304,192.74405234374998,192.85618432291665,72.0,88.0
1305,192.30287734375,193.03541166666668,45.0,83.0
1306,192.96463984375,193.21096255208332,69.0,88.0
1307,192.96463984375,193.23026395833332,64.0,78.0
1308,192.96463984375,193.2321021875,72.0,76.0
1309,193.18522734375,193.51610859375,52.0,55.0
1310,193.40581484375,193.700850625,69.0,93.0
1311,193.40581484375,193.71923291666667,72.0,88.0
1312,193.40581484375,193.72015203125,64.0,90.0
1313,193.18522734375,193.74129166666665,57.0,81.0
1314,193.84698984375,194.01702604166667,69.0,92.0
1315,193.84698984375,194.031731875,72.0,83.0
1316,193.84698984375,194.13099625,64.0,90.0
1317,194.50875234375,194.60801671874998,65.0,95.0
1318,194.50875234375,194.62088432291665,62.0,90.0
1319,194.50875234375,194.62639901041666,69.0,95.0
1320,194.06757734375,194.65764890625,50.0,85.0
1321,194.72933984374998,194.85250119791667,65.0,93.0
1322,194.72933984374998,194.86812614583334,69.0,86.0
1323,194.72933984374998,194.8754790625,62.0,92.0
1324,194.94992734375,195.38191119791665,50.0,63.0
1325,195.39110234375,195.57216791666667,65.0,100.0
1326,195.39110234375,195.59330755208333,62.0,93.0
1327,195.39110234375,195.59606489583334,69.0,95.0
1328,195.83227734375,196.16959239583332,67.0,95.0
1329,195.83227734375,196.17786442708334,64.0,97.0
1330,195.83227734375,196.18337911458332,71.0,95.0
1331,195.83227734375,196.27345234375,40.0,71.0
1332,196.71462734375,197.24128,52.0,89.0
1333,196.71462734375,197.318485625,71.0,89.0
1334,196.71462734375,197.33870614583333,64.0,92.0
1335,196.71462734375,197.35525020833333,67.0,88.0
1336,198.03815234375,198.14476963541665,64.0,81.0
1337,198.03815234375,198.14476963541665,72.0,90.0
1338,198.03815234375,198.14752697916666,69.0,95.0
1339,197.59697734374998,198.200835625,45.0,85.0
1340,198.25873984375,198.37271005208333,69.0,79.0
1341,198.25873984375,198.37638651041667,72.0,79.0
1342,198.25873984375,198.38098208333332,64.0,72.0
1343,198.47932734375,198.97564921875,57.0,82.0
1344,198.47932734375,199.00598,52.0,63.0
1345,198.92050234375,199.11719286458333,69.0,86.0
1346,198.92050234375,199.12454578125,72.0,83.0
1347,198.92050234375,199.14200895833332,64.0,85.0
1348,199.80285234375,199.89568291666666,64.0,69.0
1349,199.80285234375,199.90119760416667,72.0,77.0
1350,199.80285234375,199.90579317708332,69.0,86.0
1351,199.36167734375,200.15487322916667,45.0,86.0
1352,200.02343984375,200.17601286458333,72.0,93.0
1353,200.02343984375,200.17968932291666,69.0,99.0
1354,200.02343984375,200.186123125,64.0,83.0
1355,200.24402734375,200.72564338541667,52.0,78.0
1356,200.68520234375,200.87637817708332,69.0,100.0
1357,200.68520234375,200.87913552083333,64.0,86.0
1358,200.68520234375,200.88832666666667,72.0,93.0
1359,201.56755234374998,201.6806034375,69.0,89.0
1360,201.56755234374998,201.686118125,64.0,88.0
1361,201.56755234374998,201.69439015625,72.0,86.0
1362,201.12637734375,201.71552979166665,45.0,88.0
1363,201.78813984375,201.90854385416665,69.0,79.0
1364,201.78813984375,201.9267278125,64.0,66.0
1365,201.78813984375,201.9267278125,72.0,75.0
1366,202.00676384374998,202.4375195625,57.0,79.0
1367,202.43841884375,202.6029873125,69.0,92.0
1368,202.43841884375,202.6065844375,64.0,82.0
1369,202.43841884375,202.6209729375,72.0,86.0
1370,203.30172884375,203.40964259375,69.0,89.0
1371,203.30172884375,203.417736125,64.0,81.0
1372,203.30172884375,203.42223253125,72.0,85.0
1373,202.87007384375,203.61827584374998,45.0,69.0
1374,203.51755634375,203.66683703125,69.0,88.0
1375,203.51755634375,203.68032625,64.0,74.0
1376,203.51755634375,203.75047018749999,72.0,82.0
1377,203.73338384375,204.01395959375,57.0,86.0
1378,203.94921134375,204.2756504375,69.0,96.0
1379,203.94921134375,204.2864418125,72.0,92.0
1380,203.94921134375,204.29453534375,64.0,86.0
1381,204.38086634375,204.55352834375,69.0,93.0
1382,204.38086634375,204.56701756249998,72.0,89.0
1383,204.38086634375,204.68482340625,64.0,78.0
1384,205.02834884375,205.1263705,65.0,93.0
1385,205.02834884375,205.13266546875,62.0,85.0
1386,205.02834884375,205.144356125,69.0,90.0
1387,204.59669384375,205.29183824999998,38.0,70.0
1388,205.24417634374998,205.36827715625,69.0,78.0
1389,205.24417634374998,205.37726996875,65.0,92.0
1390,205.24417634374998,205.38356493749998,62.0,82.0
1391,205.46000384375,205.89615525,40.0,81.0
1392,205.89165884374998,206.02475246875,64.0,78.0
1393,205.89165884374998,206.02565174999998,67.0,99.0
1394,205.89165884374998,206.02834959375,71.0,93.0
1395,206.10748634375,206.22799003125,71.0,83.0
1396,206.10748634375,206.2324864375,67.0,86.0
1397,206.10748634375,206.24237853124998,64.0,77.0
1398,206.32331384375,206.78374584374998,38.0,92.0
1399,206.75496884375,206.870976125,65.0,90.0
1400,206.75496884375,206.8763718125,62.0,79.0
1401,206.75496884375,206.885364625,69.0,90.0
1402,206.97079634374998,207.086803625,62.0,78.0
1403,206.97079634374998,207.08950146875,65.0,89.0
1404,206.97079634374998,207.09040075,69.0,76.0
1405,207.40245134375,207.70820696875,72.0,93.0
1406,207.40245134375,207.71000553125,69.0,99.0
1407,207.40245134375,207.7109048125,64.0,86.0
1408,207.18662384375,207.7468760625,45.0,58.0
1409,207.61827884375,207.8026315,57.0,59.0
1410,207.61827884375,207.95640859374998,52.0,48.0
1411,207.83410634375,208.0670201875,69.0,96.0
1412,207.83410634375,208.07691228125,72.0,96.0
1413,207.83410634375,208.09130078125,64.0,89.0
1414,208.07691228125,209.604791125,38.0,31.0
1415,208.09130078125,209.61108609375,45.0,58.0
1416,208.09849503125,209.63356812499998,50.0,56.0
1417,208.09489790625,209.66324440625,65.0,86.0
1418,208.17223609375,209.6731365,69.0,102.0
1419,208.05532953124998,209.85299275,62.0,82.0
1420,210.10389221875,211.4555119375,52.0,52.0
1421,210.0490360625,211.66504446874998,67.0,70.0
1422,209.99687774999998,211.676735125,64.0,85.0
1423,210.1281728125,211.6893250625,71.0,97.0
1424,210.09310084375,211.70461284375,47.0,46.0
1425,210.08500731249998,211.7432819375,40.0,31.0
1426,212.9015561875,213.3260169375,40.0,66.0
1427,212.9303331875,213.5634271875,71.0,69.0
1428,212.92223965624999,213.57691640625,64.0,67.0
1429,212.93213175,213.597599875,67.0,72.0
1430,214.15065784375,214.32871553125,67.0,57.0
1431,214.25857159375,214.85389578125,72.0,72.0
1432,214.205514,214.86918356249998,69.0,72.0
1433,214.0993988125,214.88806846875,64.0,72.0
1434,215.21900396875,215.5436445,60.0,58.0
1435,215.4015580625,215.57332078125,64.0,58.0
1436,215.5490401875,215.60659418749998,67.0,63.0
1437,215.73159428124998,216.15245790625,69.0,77.0
1438,215.97440021875,216.38087534375,71.0,76.0
1439,216.1857313125,216.42134299999998,72.0,69.0
1440,216.40065953125,216.4806955625,76.0,60.0
1441,217.4663078125,218.2396896875,93.0,69.0
1442,214.81702525,218.245085375,52.0,57.0
1443,217.18123565624998,218.2468839375,88.0,52.0
1444,216.9303361875,218.2540781875,84.0,54.0
1445,215.02116209374998,218.26397028124998,57.0,71.0
1446,216.67673887499998,218.273862375,81.0,40.0
1447,214.25587375,218.2792580625,45.0,85.0
