,start,end,pitch,velocity
0,2.4683333333333337,2.861666666666667,75.0,95.0
1,2.8683333333333336,3.2600000000000002,74.0,90.0
2,3.2683333333333335,3.8383333333333334,72.0,93.0
3,3.8683333333333336,4.741666666666667,79.0,86.0
4,4.468333333333334,4.806666666666667,75.0,82.0
5,4.868333333333334,5.668333333333334,74.0,96.0
6,5.668333333333334,6.001666666666667,75.0,82.0
7,6.068333333333333,6.401666666666667,74.0,95.0
8,6.468333333333334,7.2683333333333335,75.0,95.0
9,7.2683333333333335,7.668333333333334,74.0,95.0
10,7.668333333333334,7.876666666666667,75.0,86.0
11,7.868333333333334,8.018333333333334,74.0,82.0
12,8.068333333333333,8.835,72.0,83.0
13,9.268333333333334,9.450000000000001,67.0,86.0
14,9.468333333333334,9.610000000000001,70.0,83.0
15,9.668333333333335,10.226666666666667,72.0,82.0
16,10.268333333333334,10.728333333333333,79.0,86.0
17,10.868333333333334,11.258333333333335,75.0,85.0
18,11.268333333333334,11.773333333333333,74.0,90.0
19,11.868333333333334,12.091666666666667,70.0,85.0
20,12.068333333333333,12.441666666666668,67.0,85.0
21,12.468333333333334,12.870000000000001,65.0,83.0
22,12.868333333333334,14.956666666666667,67.0,81.0
23,15.268333333333334,15.668333333333335,67.0,93.0
24,15.268333333333334,15.700000000000001,58.0,79.0
25,15.668333333333335,16.085,70.0,83.0
26,15.668333333333335,16.130000000000003,60.0,79.0
27,16.068333333333335,17.69,67.0,75.0
28,16.068333333333335,18.068333333333335,72.0,88.0
29,18.290000000000003,18.358333333333334,74.0,69.0
30,18.326666666666668,18.53,72.0,75.0
31,18.473333333333336,18.895,70.0,100.0
32,18.868333333333336,19.191666666666666,72.0,83.0
33,17.668333333333333,19.268333333333334,65.0,80.0
34,19.268333333333334,20.07,75.0,86.0
35,19.268333333333334,20.111666666666668,55.0,75.0
36,20.068333333333335,20.42,77.0,85.0
37,20.468333333333334,20.80666666666667,79.0,85.0
38,20.068333333333335,20.885,58.0,77.0
39,20.868333333333336,22.456666666666667,60.0,75.0
40,20.868333333333336,22.468333333333334,75.0,93.0
41,22.468333333333334,23.921666666666667,72.0,95.0
42,22.468333333333334,24.110000000000003,63.0,74.0
43,24.068333333333335,24.833333333333336,74.0,96.0
44,24.868333333333336,25.186666666666667,75.0,90.0
45,25.268333333333334,25.601666666666667,70.0,88.0
46,24.068333333333335,25.695,62.0,70.0
47,25.668333333333337,28.75166666666667,60.0,73.0
48,25.668333333333337,28.756666666666668,72.0,88.0
49,52.468333333333334,52.975,67.0,66.0
50,52.86833333333334,53.685,75.0,79.0
51,53.26833333333334,53.83833333333334,67.0,60.0
52,53.66833333333334,54.45,74.0,75.0
53,54.468333333333334,55.998333333333335,72.0,77.0
54,56.068333333333335,57.515,70.0,63.0
55,56.068333333333335,57.545,74.0,75.0
56,57.66833333333334,58.89,72.0,79.0
57,58.86833333333334,59.29166666666667,74.0,73.0
58,59.26833333333334,60.66666666666667,75.0,75.0
59,60.86833333333334,62.19166666666667,72.0,75.0
60,62.46833333333334,63.25833333333334,74.0,80.0
61,63.26833333333334,64.095,70.0,69.0
62,64.06833333333334,65.25833333333334,67.0,71.0
63,65.26833333333333,65.71666666666667,65.0,75.0
64,65.66833333333334,67.30000000000001,67.0,75.0
65,67.26833333333333,68.76833333333333,72.0,77.0
66,68.86833333333334,69.74833333333333,70.0,77.0
67,70.46833333333333,72.165,70.0,71.0
68,70.46833333333333,72.205,67.0,66.0
69,72.06833333333334,72.55166666666668,75.0,80.0
70,72.46833333333333,73.35000000000001,67.0,73.0
71,72.86833333333334,73.68666666666667,74.0,80.0
72,73.66833333333334,74.955,72.0,74.0
73,75.26833333333335,76.62166666666667,70.0,67.0
74,75.26833333333335,76.78500000000001,74.0,79.0
75,76.86833333333334,79.76,67.0,70.0
76,76.86833333333334,79.795,72.0,72.0
77,80.06833333333334,81.68333333333334,79.0,80.0
78,81.66833333333334,83.13666666666667,77.0,82.0
79,83.26833333333335,84.52833333333334,79.0,88.0
80,84.46833333333333,84.88333333333334,82.0,83.0
81,84.86833333333334,85.72,84.0,82.0
82,85.66833333333334,86.08000000000001,79.0,79.0
83,86.06833333333334,86.53833333333334,77.0,73.0
84,86.46833333333333,87.29166666666667,75.0,80.0
85,87.26833333333335,88.0,72.0,80.0
86,88.06833333333334,89.23333333333333,74.0,86.0
87,89.26833333333335,89.72333333333334,77.0,79.0
88,89.66833333333334,90.49000000000001,75.0,88.0
89,90.46833333333333,90.90666666666667,77.0,80.0
90,90.86833333333334,91.27166666666668,75.0,85.0
91,91.26833333333335,92.915,79.0,82.0
92,92.86833333333334,93.69833333333334,75.0,81.0
93,93.66833333333334,94.09333333333333,72.0,80.0
94,94.06833333333334,94.44000000000001,75.0,81.0
95,94.46833333333333,96.105,77.0,81.0
96,96.06833333333334,96.87666666666668,82.0,81.0
97,96.86833333333334,97.30333333333334,79.0,81.0
98,97.26833333333335,97.69333333333334,82.0,81.0
99,97.66833333333334,99.01666666666668,84.0,83.0
100,100.06833333333334,100.80000000000001,75.0,80.0
101,100.86833333333334,101.655,77.0,75.0
102,101.66833333333334,102.35666666666667,74.0,85.0
103,102.46833333333333,105.38000000000001,72.0,80.0
104,105.66833333333334,106.01833333333335,67.0,83.0
105,106.06833333333334,106.27833333333334,68.0,83.0
106,106.26833333333335,106.72166666666668,67.0,83.0
107,106.86833333333334,107.19666666666667,72.0,85.0
108,107.26833333333335,107.56500000000001,67.0,80.0
109,107.66833333333334,107.84333333333333,65.0,85.0
110,107.86833333333334,108.32833333333335,67.0,83.0
111,108.46833333333333,108.805,75.0,86.0
112,108.86833333333334,109.17500000000001,67.0,90.0
113,109.26833333333335,109.39,65.0,85.0
114,109.46833333333333,109.91666666666667,67.0,83.0
115,110.06833333333334,110.23500000000001,75.0,86.0
116,110.26833333333335,110.42,74.0,84.0
117,110.46833333333333,111.06833333333334,72.0,90.0
118,111.06833333333334,111.23500000000001,65.0,80.0
119,111.26833333333335,111.41333333333334,63.0,84.0
120,111.46833333333333,111.58833333333334,65.0,78.0
121,111.66833333333334,111.80166666666668,67.0,80.0
122,111.86833333333334,111.995,70.0,83.0
123,112.06833333333334,112.46833333333333,72.0,80.0
124,112.46833333333333,112.60333333333334,67.0,78.0
125,112.66833333333334,113.15166666666667,65.0,82.0
126,113.26833333333335,113.59166666666667,67.0,83.0
127,113.66833333333334,113.97666666666667,75.0,85.0
128,114.06833333333334,114.22833333333334,74.0,88.0
129,114.26833333333335,114.75666666666667,70.0,90.0
130,114.86833333333334,114.98500000000001,72.0,80.0
131,115.06833333333334,115.26166666666667,70.0,83.0
132,115.26833333333335,117.66833333333334,67.0,81.0
133,118.46833333333335,120.61000000000001,84.0,95.0
134,120.66833333333334,120.87166666666667,79.0,81.0
135,120.86833333333334,121.25166666666668,82.0,86.0
136,121.26833333333335,121.66000000000001,77.0,86.0
137,121.66833333333334,122.88166666666667,82.0,100.0
138,122.86833333333334,123.25166666666668,79.0,86.0
139,123.26833333333335,124.46833333333335,75.0,86.0
140,124.26833333333335,124.50333333333334,77.0,81.0
141,124.46833333333335,124.68666666666668,79.0,84.0
142,124.66833333333334,124.79833333333335,82.0,86.0
143,124.86833333333334,125.66833333333334,84.0,85.0
144,125.86833333333334,126.06833333333334,79.0,81.0
145,126.06833333333334,126.28333333333335,77.0,84.0
146,126.26833333333335,126.48333333333335,79.0,85.0
147,126.46833333333335,127.38166666666667,86.0,86.0
148,127.46833333333335,127.67166666666668,77.0,85.0
149,127.66833333333334,127.86833333333334,79.0,88.0
150,127.86833333333334,128.06833333333333,87.0,81.0
151,128.06833333333333,130.45833333333334,84.0,80.0
152,131.26833333333335,132.79833333333335,72.0,77.0
153,132.86833333333334,134.315,70.0,63.0
154,132.86833333333334,134.345,74.0,75.0
155,134.46833333333333,135.69,72.0,79.0
156,135.66833333333335,136.09166666666667,74.0,73.0
157,136.06833333333333,137.46666666666667,75.0,75.0
158,137.66833333333335,138.99166666666667,72.0,75.0
159,139.26833333333335,140.05833333333334,74.0,80.0
160,140.06833333333336,140.895,70.0,69.0
161,140.86833333333334,142.05833333333334,67.0,71.0
162,142.06833333333336,142.51666666666668,65.0,75.0
163,142.46833333333333,144.10000000000002,67.0,75.0
164,144.06833333333336,145.56833333333336,72.0,77.0
165,145.66833333333335,146.54833333333335,70.0,77.0
166,147.26833333333335,148.965,70.0,71.0
167,147.26833333333335,149.005,67.0,66.0
168,148.86833333333334,149.3516666666667,75.0,80.0
169,149.26833333333335,150.15,67.0,73.0
170,149.66833333333335,150.48666666666668,74.0,80.0
171,150.46833333333333,151.75500000000002,72.0,74.0
172,152.06833333333336,153.42166666666668,70.0,67.0
173,152.06833333333336,153.585,74.0,79.0
174,153.66833333333335,156.56,67.0,70.0
175,153.66833333333335,156.595,72.0,72.0
176,156.86833333333334,158.48333333333335,79.0,80.0
177,158.46833333333333,159.93666666666667,77.0,82.0
178,160.06833333333336,161.32833333333335,79.0,88.0
179,161.26833333333335,161.68333333333334,82.0,83.0
180,161.66833333333335,162.52,84.0,82.0
181,162.46833333333333,162.88000000000002,79.0,79.0
182,162.86833333333334,163.33833333333334,77.0,73.0
183,163.26833333333335,164.09166666666667,75.0,80.0
184,164.06833333333336,164.8,72.0,80.0
185,164.86833333333334,166.03333333333333,74.0,86.0
186,166.06833333333336,166.52333333333334,77.0,79.0
187,166.46833333333333,167.29000000000002,75.0,88.0
188,167.26833333333335,167.70666666666668,77.0,80.0
189,167.66833333333335,168.0716666666667,75.0,85.0
190,168.06833333333336,169.715,79.0,82.0
191,169.66833333333335,170.49833333333333,75.0,81.0
192,170.46833333333333,170.89333333333335,72.0,80.0
193,170.86833333333334,171.24,75.0,81.0
194,171.26833333333335,172.905,77.0,81.0
195,172.86833333333334,173.67666666666668,82.0,81.0
196,173.66833333333335,174.10333333333335,79.0,81.0
197,174.06833333333336,174.49333333333334,82.0,81.0
198,174.46833333333333,175.8166666666667,84.0,83.0
199,176.86833333333334,177.60000000000002,75.0,80.0
200,177.66833333333335,178.455,77.0,75.0
201,178.46833333333333,179.15666666666667,74.0,85.0
202,179.26833333333335,182.18,72.0,80.0
203,182.46833333333333,182.81833333333336,67.0,83.0
204,182.86833333333334,183.07833333333335,68.0,83.0
205,183.06833333333336,183.52166666666668,67.0,83.0
206,183.66833333333335,183.99666666666667,72.0,85.0
207,184.06833333333336,184.365,67.0,80.0
208,184.46833333333333,184.64333333333335,65.0,85.0
209,184.66833333333335,185.12833333333336,67.0,83.0
210,185.26833333333335,185.60500000000002,75.0,86.0
211,185.66833333333335,185.97500000000002,67.0,90.0
212,186.06833333333336,186.19000000000003,65.0,85.0
213,186.26833333333335,186.71666666666667,67.0,83.0
214,186.86833333333334,187.03500000000003,75.0,86.0
215,187.06833333333336,187.22,74.0,84.0
216,187.26833333333335,187.86833333333334,72.0,90.0
217,187.86833333333334,188.03500000000003,65.0,80.0
218,188.06833333333336,188.21333333333334,63.0,84.0
219,188.26833333333335,188.38833333333335,65.0,78.0
220,188.46833333333333,188.6016666666667,67.0,80.0
221,188.66833333333335,188.79500000000002,70.0,83.0
222,188.86833333333334,189.26833333333335,72.0,80.0
223,189.26833333333335,189.40333333333334,67.0,78.0
224,189.46833333333333,189.95166666666668,65.0,82.0
225,190.06833333333336,190.39166666666668,67.0,83.0
226,190.46833333333333,190.77666666666667,75.0,85.0
227,190.86833333333334,191.02833333333334,74.0,88.0
228,191.06833333333336,191.55666666666667,70.0,90.0
229,191.66833333333335,191.78500000000003,72.0,80.0
230,191.86833333333334,192.06166666666667,70.0,83.0
231,192.06833333333336,194.46833333333333,67.0,81.0
232,195.26833333333335,197.41000000000003,84.0,95.0
233,197.46833333333333,197.67166666666668,79.0,81.0
234,197.66833333333335,198.05166666666668,82.0,86.0
235,198.06833333333336,198.46,77.0,86.0
236,198.46833333333333,199.68166666666667,82.0,100.0
237,199.66833333333335,200.05166666666668,79.0,86.0
238,200.06833333333336,201.26833333333335,75.0,86.0
239,201.06833333333336,201.30333333333334,77.0,81.0
240,201.26833333333335,201.48666666666668,79.0,84.0
241,201.46833333333333,201.59833333333336,82.0,86.0
242,201.66833333333335,202.46833333333333,84.0,85.0
243,202.66833333333335,202.86833333333334,79.0,81.0
244,202.86833333333334,203.08333333333334,77.0,84.0
245,203.06833333333336,203.28333333333336,79.0,85.0
246,203.26833333333335,204.18166666666667,86.0,86.0
247,204.26833333333335,204.4716666666667,77.0,85.0
248,204.46833333333333,204.66833333333335,79.0,88.0
249,204.66833333333335,204.86833333333334,87.0,81.0
250,204.86833333333334,207.25833333333335,84.0,80.0
251,208.06833333333336,208.91833333333335,75.0,75.0
252,208.86833333333334,209.3516666666667,72.0,80.0
253,209.26833333333335,209.71166666666667,79.0,78.0
254,209.66833333333335,210.4416666666667,77.0,79.0
255,210.46833333333333,211.26666666666668,74.0,79.0
256,213.66833333333335,214.06166666666667,75.0,95.0
257,211.26833333333335,214.38666666666668,72.0,76.0
258,214.06833333333336,214.46,74.0,90.0
259,214.46833333333333,215.03833333333336,72.0,93.0
260,215.06833333333336,215.9416666666667,79.0,86.0
261,215.66833333333335,216.0066666666667,75.0,82.0
262,216.06833333333336,216.86833333333334,74.0,96.0
263,216.86833333333334,217.20166666666668,75.0,82.0
264,217.26833333333335,217.6016666666667,74.0,95.0
265,217.66833333333335,218.46833333333333,75.0,95.0
266,218.46833333333333,218.86833333333334,74.0,95.0
267,218.86833333333334,219.07666666666668,75.0,86.0
268,219.06833333333336,219.21833333333333,74.0,82.0
269,219.26833333333335,220.03500000000003,72.0,83.0
270,220.46833333333333,220.65,67.0,86.0
271,220.66833333333335,220.81,70.0,83.0
272,220.86833333333334,221.42666666666668,72.0,82.0
273,221.46833333333333,221.92833333333334,79.0,86.0
274,222.06833333333336,222.45833333333334,75.0,85.0
275,222.46833333333333,222.97333333333336,74.0,90.0
276,223.06833333333336,223.31,75.0,81.0
277,223.26833333333335,223.53,74.0,90.0
278,223.66833333333335,225.39166666666668,70.0,84.0
279,225.66833333333335,229.19333333333336,72.0,79.0
