,start,end,pitch,velocity
0,32.769030658333335,33.38555538333333,69.0,83.0
1,33.53174165833334,33.72665669166667,76.0,80.0
2,33.785978658333335,34.023266525000004,76.0,80.0
3,34.04021565833334,34.332588208333334,74.0,80.0
4,34.294452658333334,34.728774200000004,72.0,80.0
5,34.802926658333334,36.20546744166667,74.0,84.0
6,36.83682265833334,37.53809305,71.0,79.0
7,37.599533658333335,37.773262275,71.0,79.0
8,37.85377065833334,38.36012601666667,71.0,79.0
9,38.36224465833334,38.783854350000006,67.0,76.0
10,38.87071865833334,40.19910698333334,69.0,81.0
11,40.88554688333334,41.22029226666667,72.0,79.0
12,41.28385151666667,41.58469863333334,72.0,79.0
13,41.684274791666674,41.85164748333334,72.0,80.0
14,41.949105,42.379189258333334,72.0,81.0
15,42.413087525,42.811392158333334,69.0,74.0
16,42.91308695833334,43.12706976666667,74.0,82.0
17,43.252069625000004,43.601645500000004,74.0,83.0
18,43.70545894166667,43.885543483333336,72.0,81.0
19,44.002068775000005,44.743593358333335,74.0,83.0
20,44.972406658333334,45.120711575,79.0,80.0
21,45.22664365833334,45.362236725,79.0,79.0
22,45.48088065833334,45.62282965000001,79.0,79.0
23,45.73511765833334,45.885541216666674,79.0,79.0
24,45.98935465833334,46.442743975000006,79.0,81.0
25,46.49782865833334,46.71816739166667,76.0,74.0
26,46.752065658333336,46.99994673333334,74.0,83.0
27,47.00630265833334,48.743588825,76.0,81.0
28,49.04019865833334,49.186384933333336,76.0,77.0
29,49.294435658333335,49.43850329166667,76.0,79.0
30,49.54867265833334,49.69909621666667,76.0,79.0
31,49.802909658333334,49.976638275000006,76.0,76.0
32,50.05714665833334,50.478756350000005,76.0,80.0
33,50.56562065833334,50.77960346666667,74.0,83.0
34,50.81985765833334,51.05290824166667,72.0,79.0
35,51.07409465833334,51.36858585,74.0,86.0
36,51.32833165833334,51.59104322500001,76.0,77.0
37,51.58256865833334,52.595279375000004,74.0,80.0
38,52.599516658333336,52.77324527500001,72.0,80.0
39,52.85375365833334,52.99993993333334,72.0,79.0
40,53.107990658333335,53.74358315833334,74.0,85.0
41,53.87070165833334,54.052904841666674,76.0,81.0
42,54.124938658333335,54.27112493333334,74.0,84.0
43,54.37917565833334,54.781717575,74.0,81.0
44,54.88764965833334,55.067734200000004,67.0,73.0
45,55.14188665833334,55.40459822500001,69.0,80.0
46,55.39612365833334,55.6524793,72.0,76.0
47,55.65036065833334,56.87069825833334,69.0,79.0
48,56.921545658333336,57.08044378333334,69.0,75.0
49,57.17578265833334,57.77323960833334,72.0,79.0
50,57.938493658333336,58.12069684166667,72.0,77.0
51,58.19273065833334,58.73722156666667,72.0,81.0
52,58.70120465833334,58.925780675000006,69.0,78.0
53,58.955441658333335,59.239339641666675,72.0,79.0
54,59.20967865833334,59.862220291666674,74.0,81.0
55,59.97238965833334,60.218152091666674,74.0,83.0
56,60.22662665833334,60.690609183333336,72.0,82.0
57,60.73510065833334,60.89823606666667,74.0,81.0
58,60.98933765833334,63.01899637500001,76.0,80.0
59,63.277470658333336,63.43425014166667,74.0,79.0
60,63.53170765833334,63.946961425000005,74.0,80.0
61,64.04018165833334,64.17789336666667,74.0,83.0
62,64.29441865833334,64.69272329166667,74.0,84.0
63,64.80289265833333,65.18212951666668,72.0,82.0
64,65.31136665833334,65.72662042500001,74.0,85.0
65,65.81984065833333,66.006281125,76.0,80.0
66,66.07407765833334,66.781703975,74.0,81.0
67,67.09102565833334,67.25839835000001,69.0,77.0
68,67.34526265833334,67.72873680000001,71.0,83.0
69,67.85373665833333,68.205431175,71.0,83.0
70,68.36221065833334,68.8728033,71.0,79.0
71,68.87068465833335,69.34314175,67.0,78.0
72,69.37915865833334,71.40669873333334,69.0,78.0
73,73.44695065833334,73.61008606666667,76.0,83.0
74,73.70118765833334,74.12067870833334,76.0,82.0
75,74.20966165833335,74.41516990000001,84.0,79.0
76,74.46389865833333,75.02322005833334,83.0,81.0
77,74.97237265833334,75.20330460000001,81.0,80.0
78,75.22660965833335,75.44059246666667,79.0,77.0
79,75.48084665833333,76.85796374166668,81.0,82.0
80,77.00626865833334,77.16940406666667,83.0,83.0
81,77.26050565833334,77.42364106666668,84.0,84.0
82,77.51474265833335,78.16516565,83.0,88.0
83,78.27745365833334,78.48084325833334,81.0,80.0
84,78.53169065833335,78.93846985833333,79.0,83.0
85,79.04016465833334,79.28804573333333,81.0,79.0
86,79.29440165833334,79.53592680833334,79.0,80.0
87,79.54863865833335,81.12490805833335,76.0,83.0
88,81.58253465833334,81.75626327500001,81.0,81.0
89,81.83677165833333,82.23507629166667,81.0,80.0
90,82.34524565833334,82.49143193333335,81.0,79.0
91,82.59948265833334,82.99990593333334,81.0,81.0
92,83.10795665833334,83.51261721666667,76.0,83.0
93,83.61643065833334,83.78592199166667,72.0,83.0
94,83.87066765833335,84.298633275,74.0,84.0
95,84.37914165833334,84.54227706666667,76.0,77.0
96,84.63337865833334,85.35159818333334,74.0,86.0
97,85.65032665833334,86.29227508333334,79.0,83.0
98,86.41303765833334,86.612189975,79.0,83.0
99,86.66727465833334,87.069816575,74.0,86.0
100,87.17574865833335,87.58252785833334,79.0,84.0
101,87.68422265833334,87.91727324166668,76.0,81.0
102,87.93845965833334,88.15456110833334,74.0,81.0
103,88.19269665833335,89.47447486666667,76.0,83.0
104,89.71811865833334,89.88125406666667,76.0,83.0
105,89.97235565833334,90.39184670833335,76.0,82.0
106,90.48082965833333,90.68633790000001,84.0,79.0
107,90.73506665833334,91.29438805833334,83.0,81.0
108,91.24354065833334,91.47447260000001,81.0,80.0
109,91.49777765833335,91.71176046666668,79.0,77.0
110,91.75201465833334,93.12913174166667,81.0,82.0
111,93.27743665833334,93.44057206666668,83.0,83.0
112,93.53167365833335,93.69480906666668,84.0,84.0
113,93.78591065833334,94.290147375,83.0,88.0
114,94.29438465833334,94.544384375,83.0,80.0
115,94.54862165833335,94.75201125833334,81.0,80.0
116,94.80285865833334,95.20963785833334,79.0,83.0
117,95.31133265833334,95.55921373333334,81.0,79.0
118,95.56556965833335,95.80709480833335,79.0,80.0
119,95.81980665833335,97.39607605833334,76.0,83.0
120,97.85370265833335,98.02743127500001,81.0,81.0
121,98.10793965833334,98.50624429166668,81.0,80.0
122,98.61641365833334,98.76259993333335,81.0,79.0
123,98.87065065833335,99.27107393333334,81.0,81.0
124,99.37912465833334,99.78378521666667,76.0,83.0
125,99.88759865833335,100.05708999166667,72.0,83.0
126,100.14183565833335,100.569801275,74.0,84.0
127,100.65030965833334,100.81344506666667,76.0,77.0
128,100.90454665833335,101.40878337500001,74.0,86.0
129,101.41302065833334,101.663020375,72.0,80.0
130,101.66725765833334,101.917257375,74.0,80.0
131,101.92149465833334,102.56344308333334,79.0,83.0
132,102.68420565833334,102.88335797500001,79.0,83.0
133,102.93844265833334,103.34098457500001,74.0,86.0
134,103.44691665833334,103.85369585833334,79.0,84.0
135,103.95539065833334,104.18844124166668,76.0,81.0
136,104.20962765833335,104.42572910833334,74.0,81.0
137,104.46386465833334,105.74564286666667,76.0,83.0
138,105.98928665833334,106.59521817500001,74.0,86.0
139,106.75199765833334,106.9066585,74.0,83.0
140,107.00623465833334,107.6947932,74.0,83.0
141,107.76894565833334,107.95750476666667,72.0,79.0
142,108.02318265833334,108.41936865000001,74.0,86.0
143,108.53165665833335,108.74140218333335,76.0,81.0
144,108.78589365833334,109.48080812500001,74.0,83.0
145,109.54860465833335,109.71809599166667,72.0,80.0
146,109.80284165833335,109.98504484166668,74.0,83.0
147,110.05707865833334,110.71173893333334,76.0,81.0
148,111.07402665833334,111.75199199166667,74.0,82.0
149,111.83673765833335,112.04224590000001,67.0,75.0
150,112.09097465833334,113.87275230000002,69.0,80.0
151,114.12487065833335,114.26893829166667,83.0,81.0
152,114.37910765833334,114.50198887500001,83.0,80.0
153,114.63334465833334,114.75410723333334,83.0,80.0
154,114.88758165833335,115.10792039166668,83.0,79.0
155,115.14181865833335,115.57825884166668,79.0,83.0
156,115.65029265833334,115.88546188333335,81.0,82.0
157,115.90452965833335,116.13122431666667,83.0,80.0
158,116.15876665833335,118.13334069166667,81.0,81.0
159,148.70110265833335,148.84728893333335,76.0,77.0
160,148.95533965833334,149.0994072916667,76.0,79.0
161,149.20957665833333,149.3600002166667,76.0,79.0
162,149.46381365833335,149.63754227500002,76.0,76.0
163,149.71805065833334,150.13966035,76.0,80.0
164,150.22652465833335,150.44050746666667,74.0,83.0
165,150.48076165833334,150.7138122416667,72.0,79.0
166,150.73499865833335,151.02948985,74.0,86.0
167,150.98923565833334,151.251947225,76.0,77.0
168,151.24347265833336,152.256183375,74.0,80.0
169,152.26042065833335,152.434149275,72.0,80.0
170,152.51465765833333,152.66084393333335,72.0,79.0
171,152.76889465833335,153.40448715833335,74.0,85.0
172,153.53160565833335,153.7138088416667,76.0,81.0
173,153.78584265833334,153.93202893333336,74.0,84.0
174,154.04007965833335,154.442621575,74.0,81.0
175,154.54855365833333,154.7286382,67.0,73.0
176,154.80279065833335,155.06550222500002,69.0,80.0
177,155.05702765833334,155.31338330000003,72.0,76.0
178,155.31126465833336,156.53160225833335,69.0,79.0
179,156.58244965833336,156.74134778333334,69.0,75.0
180,156.83668665833335,157.43414360833336,72.0,79.0
181,157.59939765833334,157.7816008416667,72.0,77.0
182,157.85363465833333,158.3981255666667,72.0,81.0
183,158.36210865833334,158.58668467500001,69.0,78.0
184,158.61634565833336,158.9002436416667,72.0,79.0
185,158.87058265833335,159.52312429166668,74.0,81.0
186,159.63329365833334,159.87905609166668,74.0,83.0
187,159.88753065833336,160.35151318333334,72.0,82.0
188,160.39600465833334,160.55914006666669,74.0,81.0
189,160.65024165833336,162.67990037500002,76.0,80.0
190,162.93837465833334,163.09515414166668,74.0,79.0
191,163.19261165833333,163.607865425,74.0,80.0
192,163.70108565833334,163.83879736666668,74.0,83.0
193,163.95532265833336,164.35362729166667,74.0,84.0
194,164.46379665833334,164.84303351666668,72.0,82.0
195,164.97227065833334,165.387524425,74.0,85.0
196,165.48074465833335,165.667185125,76.0,80.0
197,165.73498165833334,166.44260797500002,74.0,81.0
198,166.75192965833335,166.91930235,69.0,77.0
199,167.00616665833334,167.38964080000002,71.0,83.0
200,167.51464065833335,167.86633517500002,71.0,83.0
201,168.02311465833336,168.5337073,71.0,79.0
202,168.53158865833333,169.00404575000002,67.0,78.0
203,169.04006265833334,171.06760273333336,69.0,78.0
204,173.10785465833334,173.27099006666668,76.0,83.0
205,173.36209165833336,173.78158270833336,76.0,82.0
206,173.87056565833336,174.0760739,84.0,79.0
207,174.12480265833335,174.68412405833334,83.0,81.0
208,174.63327665833336,174.8642086,81.0,80.0
209,174.88751365833335,175.10149646666667,79.0,77.0
210,175.14175065833334,176.51886774166667,81.0,82.0
211,176.66717265833336,176.83030806666667,83.0,83.0
212,176.92140965833335,177.0845450666667,84.0,84.0
213,177.17564665833333,177.82606965000002,83.0,88.0
214,177.93835765833336,178.14174725833334,81.0,80.0
215,178.19259465833335,178.59937385833334,79.0,83.0
216,178.70106865833336,178.94894973333334,81.0,79.0
217,178.95530565833334,179.19683080833335,79.0,80.0
218,179.20954265833336,180.78581205833336,76.0,83.0
219,181.24343865833336,181.41716727500003,81.0,81.0
220,181.49767565833335,181.8959802916667,81.0,80.0
221,182.00614965833336,182.15233593333335,81.0,79.0
222,182.26038665833335,182.66080993333335,81.0,81.0
223,182.76886065833335,183.17352121666667,76.0,83.0
224,183.27733465833336,183.44682599166669,72.0,83.0
225,183.53157165833335,183.959537275,74.0,84.0
226,184.04004565833336,184.20318106666667,76.0,77.0
227,184.29428265833334,185.01250218333334,74.0,86.0
228,185.31123065833336,185.95317908333334,79.0,83.0
229,186.07394165833335,186.27309397500002,79.0,83.0
230,186.32817865833334,186.73072057500002,74.0,86.0
231,186.83665265833335,187.24343185833334,79.0,84.0
232,187.34512665833336,187.57817724166668,76.0,81.0
233,187.59936365833335,187.81546510833334,74.0,81.0
234,187.85360065833336,189.13537886666668,76.0,83.0
235,189.37902265833335,189.54215806666667,76.0,83.0
236,189.63325965833334,190.05275070833335,76.0,82.0
237,190.14173365833335,190.34724190000003,84.0,79.0
238,190.39597065833334,190.95529205833336,83.0,81.0
239,190.90444465833335,191.13537660000003,81.0,80.0
240,191.15868165833334,191.3726644666667,79.0,77.0
241,191.41291865833335,192.79003574166668,81.0,82.0
242,192.93834065833335,193.1014760666667,83.0,83.0
243,193.19257765833336,193.35571306666668,84.0,84.0
244,193.44681465833335,193.95105137500002,83.0,88.0
245,193.95528865833336,194.205288375,83.0,80.0
246,194.20952565833335,194.41291525833336,81.0,80.0
247,194.46376265833334,194.87054185833335,79.0,83.0
248,194.97223665833334,195.22011773333335,81.0,79.0
249,195.22647365833336,195.46799880833336,79.0,80.0
250,195.48071065833335,197.05698005833335,76.0,83.0
251,197.51460665833335,197.68833527500001,81.0,81.0
252,197.76884365833334,198.16714829166668,81.0,80.0
253,198.27731765833335,198.42350393333336,81.0,79.0
254,198.53155465833336,198.93197793333334,81.0,81.0
255,199.04002865833334,199.4446892166667,76.0,83.0
256,199.54850265833335,199.71799399166667,72.0,83.0
257,199.80273965833334,200.23070527500002,74.0,84.0
258,200.31121365833334,200.4743490666667,76.0,77.0
259,200.56545065833336,201.06968737500003,74.0,86.0
260,201.07392465833334,201.32392437500002,72.0,80.0
261,201.32816165833336,201.578161375,74.0,80.0
262,201.58239865833335,202.22434708333336,79.0,83.0
263,202.34510965833334,202.544261975,79.0,83.0
264,202.59934665833336,203.001888575,74.0,86.0
265,203.10782065833334,203.51459985833336,79.0,84.0
266,203.61629465833335,203.8493452416667,76.0,81.0
267,203.87053165833336,204.08663310833336,74.0,81.0
268,204.12476865833335,205.40654686666667,76.0,83.0
269,205.65019065833334,206.25612217500003,74.0,86.0
270,206.41290165833334,206.5675625,74.0,83.0
271,206.66713865833336,207.3556972,74.0,83.0
272,207.42984965833335,207.61840876666668,72.0,79.0
273,207.68408665833334,208.08027265,74.0,86.0
274,208.19256065833335,208.40230618333334,76.0,81.0
275,208.44679765833334,209.14171212500003,74.0,83.0
276,209.20950865833336,209.3789999916667,72.0,80.0
277,209.46374565833335,209.6459488416667,74.0,83.0
278,209.71798265833334,210.37264293333334,76.0,81.0
279,210.73493065833335,211.4128959916667,74.0,82.0
280,211.49764165833335,211.70314990000003,67.0,75.0
281,211.75187865833334,213.53365630000002,69.0,80.0
282,213.78577465833334,213.9298422916667,83.0,81.0
283,214.04001165833336,214.162892875,83.0,80.0
284,214.29424865833334,214.41501123333336,83.0,80.0
285,214.54848565833336,214.7688243916667,83.0,79.0
286,214.80272265833335,215.23916284166668,79.0,83.0
287,215.31119665833336,215.54636588333335,81.0,82.0
288,215.56543365833335,215.7921283166667,83.0,80.0
289,215.81967065833337,217.79424469166668,81.0,81.0
290,219.88746265833336,220.05059806666668,76.0,83.0
291,220.14169965833335,220.56119070833336,76.0,82.0
292,220.65017365833336,220.8556819,84.0,79.0
293,220.90441065833335,221.46373205833336,83.0,81.0
294,221.41288465833335,221.6438166,81.0,80.0
295,221.66712165833334,221.8811044666667,79.0,77.0
296,221.92135865833336,223.2984757416667,81.0,82.0
297,223.44678065833335,223.6099160666667,83.0,83.0
298,223.70101765833334,223.8641530666667,84.0,84.0
299,223.95525465833336,224.45949137500003,83.0,88.0
300,224.46372865833337,224.71372837500002,83.0,80.0
301,224.71796565833336,224.92135525833336,81.0,80.0
302,224.97220265833334,225.37898185833336,79.0,83.0
303,225.48067665833335,225.72855773333336,81.0,79.0
304,225.73491365833334,225.97643880833334,79.0,80.0
305,225.98915065833336,227.56542005833336,76.0,83.0
306,228.02304665833336,228.19677527500002,81.0,81.0
307,228.27728365833335,228.67558829166668,81.0,80.0
308,228.78575765833335,228.93194393333334,81.0,79.0
309,229.03999465833334,229.44041793333335,81.0,81.0
310,229.54846865833335,229.9531292166667,76.0,83.0
311,230.05694265833336,230.22643399166668,72.0,83.0
312,230.31117965833334,230.73914527500003,74.0,84.0
313,230.81965365833335,230.9827890666667,76.0,77.0
314,231.07389065833334,231.578127375,74.0,86.0
315,231.58236465833335,231.83236437500003,72.0,80.0
316,231.83660165833336,232.08660137500001,74.0,80.0
317,232.09083865833335,232.73278708333336,79.0,83.0
318,232.85354965833335,233.05270197500002,79.0,83.0
319,233.10778665833337,233.51032857500002,74.0,86.0
320,233.61626065833335,234.02303985833336,79.0,84.0
321,234.12473465833335,234.35778524166668,76.0,81.0
322,234.37897165833334,234.59507310833337,74.0,81.0
323,234.63320865833336,235.91498686666668,76.0,83.0
324,236.15863065833335,236.764562175,74.0,86.0
325,236.92134165833335,237.07600250000002,74.0,83.0
326,237.17557865833336,237.86413720000002,74.0,83.0
327,237.93828965833336,238.12684876666668,72.0,79.0
328,238.19252665833335,238.58871265000002,74.0,86.0
329,238.70100065833336,238.91074618333334,76.0,81.0
330,238.95523765833335,239.65015212500003,74.0,83.0
331,239.71794865833334,239.8874399916667,72.0,80.0
332,239.97218565833336,240.1543888416667,74.0,83.0
333,240.22642265833335,240.88108293333335,76.0,81.0
334,241.24337065833336,241.9213359916667,74.0,82.0
335,242.00608165833336,242.2115899,67.0,75.0
336,242.26031865833335,244.04209630000003,69.0,80.0
337,244.29421465833335,244.4382822916667,83.0,81.0
338,244.54845165833336,244.67133287500002,83.0,80.0
339,244.80268865833335,244.92345123333337,83.0,80.0
340,245.05692565833334,245.27726439166668,83.0,79.0
341,245.31116265833336,245.7476028416667,79.0,83.0
342,245.81963665833337,246.05480588333336,81.0,82.0
343,246.07387365833335,246.3005683166667,83.0,80.0
344,246.32811065833334,248.30268469166668,81.0,81.0
345,250.40437722500002,250.5463262166667,83.0,82.0
346,250.66073286666668,250.83869876666668,83.0,80.0
347,250.96793590833335,251.16285094166668,83.0,82.0
348,251.24971525,251.53785051666668,83.0,82.0
349,251.57174878333336,252.99971326666667,79.0,83.0
350,252.96157771666668,253.45945850833334,81.0,81.0
351,253.42344160000002,253.8556445,83.0,85.0
352,253.8196275916667,256.80903098333334,81.0,81.0
