,start,end,pitch,velocity
0,4.802960658333334,5.362282058333334,57.0,71.0
1,5.057197658333334,5.402536250000001,64.0,72.0
2,5.565671658333334,5.834739150000001,57.0,57.0
3,5.311434658333334,6.0444846750000005,69.0,78.0
4,4.5487236583333335,6.067789733333334,52.0,73.0
5,4.294486658333334,6.129230341666667,45.0,71.0
6,6.074145658333334,6.404653758333334,57.0,60.0
7,5.8199086583333335,6.631348416666667,64.0,64.0
8,6.582619658333334,6.862280358333334,57.0,71.0
9,6.836856658333334,7.120754641666667,62.0,75.0
10,7.091093658333334,7.305076466666668,57.0,48.0
11,7.599567658333334,7.917363908333334,57.0,67.0
12,7.345330658333334,8.184312758333334,65.0,79.0
13,7.853804658333334,8.241516083333334,62.0,73.0
14,6.328382658333334,8.296600766666668,50.0,78.0
15,8.108041658333335,8.516939500000001,57.0,67.0
16,9.124989658333334,9.406769,57.0,61.0
17,8.870752658333334,9.455497758333333,64.0,76.0
18,8.616515658333334,9.786005858333334,52.0,77.0
19,8.362278658333334,9.824141408333334,45.0,77.0
20,9.633463658333334,9.925836208333335,57.0,65.0
21,9.379226658333334,10.127107166666667,69.0,79.0
22,9.887700658333333,10.294479858333334,64.0,77.0
23,10.141937658333335,10.495750816666668,57.0,72.0
24,10.904648658333334,11.220326266666667,55.0,73.0
25,11.158885658333334,11.457614133333335,52.0,71.0
26,10.650411658333335,11.815664575000001,47.0,70.0
27,10.396174658333335,11.889817033333335,40.0,81.0
28,11.667359658333334,11.955494925000002,52.0,75.0
29,11.413122658333334,11.989393191666668,59.0,77.0
30,11.921596658333334,12.220325133333334,55.0,76.0
31,12.175833658333334,12.366511408333334,52.0,79.0
32,12.938544658333335,13.241510416666667,60.0,74.0
33,13.192781658333335,13.455493225000001,57.0,58.0
34,13.701255658333334,14.002102775000001,57.0,64.0
35,12.684307658333335,14.237272,52.0,72.0
36,13.955492658333334,14.258458416666668,60.0,62.0
37,12.430070658333335,14.298712608333334,45.0,80.0
38,13.447018658333334,14.332610875000002,64.0,79.0
39,14.209729658333334,14.499983566666668,57.0,70.0
40,14.718203658333335,14.995745716666669,57.0,73.0
41,14.972440658333335,15.480914658333335,62.0,72.0
42,15.226677658333335,15.489389225000002,57.0,68.0
43,14.463966658333334,15.896168425,50.0,80.0
44,15.735151658333335,16.055066550000003,57.0,63.0
45,15.480914658333335,16.055066550000003,65.0,72.0
46,15.989388658333334,16.27328664166667,62.0,64.0
47,16.497862658333336,17.091082325000002,64.0,79.0
48,17.006336658333336,17.497861525,59.0,70.0
49,17.260573658333335,17.542353000000002,64.0,77.0
50,17.514810658333335,17.866505175,67.0,76.0
51,17.769047658333335,18.112267608333333,64.0,78.0
52,16.752099658333336,18.26692845,47.0,66.0
53,16.497862658333336,18.311419925000003,40.0,80.0
54,18.023284658333335,18.39404695,59.0,72.0
55,18.277521658333335,18.595317908333335,64.0,68.0
56,19.040232658333334,19.368622116666668,52.0,80.0
57,18.785995658333334,19.39404581666667,47.0,69.0
58,19.548706658333334,20.065655225,47.0,80.0
59,19.802943658333334,20.08684164166667,52.0,81.0
60,18.531758658333334,20.135570400000002,40.0,83.0
61,19.294469658333334,20.16311274166667,59.0,80.0
62,20.311417658333337,20.48090899166667,52.0,84.0
63,20.057180658333333,20.915230533333336,64.0,80.0
64,21.074128658333336,21.389806266666668,57.0,80.0
65,21.328365658333336,21.59955179166667,60.0,77.0
66,20.819891658333336,21.69489066666667,52.0,74.0
67,21.836839658333336,22.360144150000004,52.0,73.0
68,21.582602658333336,22.370737358333336,64.0,80.0
69,20.565654658333337,22.42582204166667,45.0,79.0
70,22.091076658333336,22.44488981666667,57.0,72.0
71,22.345313658333335,22.62285571666667,60.0,72.0
72,23.108024658333335,23.440651400000004,55.0,77.0
73,23.362261658333335,23.650396925000003,52.0,77.0
74,23.616498658333335,24.139803150000002,59.0,80.0
75,23.870735658333334,24.169464133333335,52.0,77.0
76,24.124972658333334,24.423701133333335,55.0,79.0
77,22.853787658333335,24.44065026666667,47.0,71.0
78,22.599550658333335,24.472429891666668,40.0,81.0
79,24.379209658333334,24.718192325,52.0,80.0
80,25.141920658333337,25.42581864166667,55.0,73.0
81,25.396157658333337,25.694886133333334,52.0,66.0
82,25.650394658333337,26.205478775000003,59.0,79.0
83,25.904631658333336,26.209716058333335,52.0,79.0
84,24.887683658333337,26.3898006,47.0,66.0
85,24.633446658333334,26.463953058333335,40.0,82.0
86,26.158868658333336,26.618613900000003,55.0,78.0
87,26.413105658333336,26.802935725,52.0,80.0
88,27.175816658333336,27.489375625,52.0,79.0
89,27.430053658333335,27.90251075,59.0,76.0
90,27.684290658333335,27.995730983333335,52.0,81.0
91,27.938527658333335,28.218188358333336,55.0,74.0
92,26.921579658333336,28.398272900000002,47.0,67.0
93,26.667342658333336,28.438527091666668,40.0,83.0
94,28.447001658333335,28.635560766666668,52.0,81.0
95,28.192764658333335,28.88344184166667,64.0,81.0
96,29.209712658333334,29.51267841666667,57.0,73.0
97,28.955475658333334,29.616491858333337,52.0,72.0
98,29.463949658333338,29.999966000000004,64.0,79.0
99,29.972423658333337,30.25632164166667,57.0,71.0
100,28.701238658333335,30.538100983333337,45.0,79.0
101,29.718186658333337,30.538100983333337,52.0,74.0
102,30.480897658333337,31.031744491666668,69.0,73.0
103,30.226660658333337,31.249964583333337,64.0,74.0
104,31.243608658333336,31.631320083333335,57.0,62.0
105,30.989371658333337,31.974540033333337,52.0,68.0
106,30.735134658333337,32.59530204166667,45.0,78.0
107,31.497845658333336,32.891911875000005,64.0,75.0
108,33.277504658333335,33.62496189166667,57.0,65.0
109,33.02326765833334,33.97453776666667,52.0,68.0
110,34.294452658333334,34.59318113333334,52.0,62.0
111,32.769030658333335,34.66309630833334,45.0,80.0
112,33.53174165833334,34.684282725,60.0,67.0
113,34.54868965833334,34.83258764166667,57.0,66.0
114,35.05716365833334,35.38767175833333,57.0,73.0
115,35.31140065833333,35.605891850000006,62.0,68.0
116,34.802926658333334,36.540212825000005,50.0,75.0
117,35.56563765833334,36.540212825000005,65.0,78.0
118,36.582585658333336,36.87283956666667,57.0,69.0
119,36.32834865833334,36.91309375833334,62.0,72.0
120,37.091059658333336,37.71817759166667,47.0,67.0
121,37.34529665833334,37.887668925,59.0,74.0
122,38.108007658333335,38.370719225,59.0,70.0
123,37.599533658333335,38.40249885,64.0,79.0
124,37.85377065833334,38.43851575833334,47.0,58.0
125,36.83682265833334,38.48300723333334,40.0,82.0
126,38.616481658333335,38.917328775,59.0,71.0
127,38.36224465833334,39.069870975,67.0,74.0
128,39.37919265833334,39.919446283333336,60.0,74.0
129,39.633429658333334,40.141903658333334,57.0,67.0
130,38.87071865833334,40.59953025833334,45.0,80.0
131,39.124955658333334,40.63554716666667,52.0,72.0
132,40.39614065833334,41.205461775,57.0,67.0
133,40.141903658333334,41.453342850000006,64.0,79.0
134,41.15885165833334,42.076223500000005,52.0,65.0
135,41.413088658333336,42.24359619166667,57.0,71.0
136,41.66732565833334,42.52325689166667,64.0,78.0
137,42.17579965833334,42.72664649166667,52.0,70.0
138,40.90461465833334,42.80927351666667,45.0,80.0
139,42.430036658333336,42.99571398333334,60.0,72.0
140,42.68427365833334,43.00630719166667,57.0,61.0
141,43.446984658333335,43.90249261666667,57.0,62.0
142,43.19274765833334,44.01901790833334,62.0,68.0
143,43.955458658333335,44.24994985000001,65.0,77.0
144,44.20969565833334,44.54444104166667,62.0,73.0
145,42.938510658333335,44.586813875000004,50.0,77.0
146,44.463932658333334,44.90037284166667,57.0,69.0
147,44.71816965833334,45.17367761666667,62.0,64.0
148,45.48088065833334,46.004185150000005,59.0,70.0
149,45.73511765833334,46.040202058333335,52.0,72.0
150,45.22664365833334,46.10376130833334,47.0,66.0
151,45.98935465833334,46.514777791666674,55.0,79.0
152,44.972406658333334,46.80715034166667,40.0,80.0
153,46.24359165833334,46.830455400000005,47.0,65.0
154,46.49782865833334,47.02960771666667,52.0,72.0
155,46.752065658333336,47.262658300000005,59.0,70.0
156,47.51477665833334,47.90672536666667,52.0,79.0
157,47.769013658333336,48.09316583333334,59.0,72.0
158,47.260539658333336,48.49994503333334,47.0,66.0
159,47.00630265833334,48.557148358333336,40.0,82.0
160,48.277487658333335,48.60587711666667,59.0,75.0
161,48.53172465833334,48.824097208333335,52.0,80.0
162,48.785961658333335,49.04655458333334,59.0,73.0
163,48.02325065833334,49.13977481666667,64.0,82.0
164,49.04019865833334,49.13977481666667,64.0,82.0
165,49.04019865833334,49.35375762500001,57.0,77.0
166,49.54867265833334,49.72028263333334,57.0,86.0
167,49.802909658333334,50.45756993333334,64.0,87.0
168,49.294435658333335,50.521129183333336,52.0,75.0
169,49.802909658333334,50.56985794166667,57.0,85.0
170,49.04019865833334,50.591044358333335,45.0,84.0
171,50.56562065833334,51.04231503333334,69.0,84.0
172,50.56562065833334,51.04867095833334,64.0,71.0
173,50.81985765833334,51.133416625,57.0,83.0
174,51.58256865833334,52.205449308333336,50.0,76.0
175,51.83680565833334,52.37494064166667,57.0,84.0
176,52.599516658333336,52.93426204166667,50.0,84.0
177,51.32833165833334,52.951211175000005,45.0,76.0
178,51.07409465833334,52.96816030833334,38.0,87.0
179,52.34527965833334,53.00417721666667,62.0,85.0
180,53.107990658333335,53.41731234166667,50.0,80.0
181,53.107990658333335,53.66519341666667,57.0,77.0
182,53.616464658333335,54.06561669166667,50.0,79.0
183,53.87070165833334,54.20120975833334,57.0,78.0
184,54.37917565833334,54.485107741666674,50.0,79.0
185,53.36222765833334,54.50417551666667,45.0,72.0
186,53.107990658333335,54.53171785833334,38.0,86.0
187,54.37917565833334,54.70332783333334,57.0,79.0
188,54.63341265833334,54.883412375000006,50.0,84.0
189,54.88764965833334,55.080446050000006,57.0,74.0
190,54.37917565833334,55.188496775000004,62.0,80.0
191,55.65036065833334,55.760530025,57.0,79.0
192,55.90459765833334,56.18213971666667,57.0,82.0
193,55.90459765833334,56.205444775000004,64.0,84.0
194,56.41307165833334,56.55713929166667,57.0,80.0
195,56.41307165833334,56.713918775,60.0,79.0
196,56.66730865833334,56.955443925000004,57.0,84.0
197,55.14188665833334,56.999935400000005,45.0,85.0
198,55.39612365833334,57.06561329166667,52.0,75.0
199,56.921545658333336,57.45968064166667,64.0,84.0
200,57.68425665833334,57.84103614166667,57.0,83.0
201,57.938493658333336,58.55501838333334,69.0,84.0
202,57.938493658333336,58.58679800833334,57.0,79.0
203,57.430019658333336,58.63764540833334,52.0,77.0
204,57.17578265833334,58.68001824166667,45.0,86.0
205,58.70120465833334,59.00840770000001,60.0,83.0
206,58.955441658333335,59.315610741666674,57.0,80.0
207,58.70120465833334,59.32832259166667,64.0,83.0
208,59.71815265833334,60.334677383333336,57.0,85.0
209,59.97238965833334,60.46815180833334,62.0,83.0
210,60.73510065833334,60.847388666666674,57.0,84.0
211,60.48086365833334,60.91306655833334,65.0,84.0
212,59.20967865833334,60.94908346666667,38.0,89.0
213,59.46391565833334,61.074083325000004,45.0,72.0
214,61.24357465833334,61.521116716666675,59.0,77.0
215,61.24357465833334,61.73933680833334,64.0,80.0
216,61.75204865833334,62.491454600000004,59.0,83.0
217,62.00628565833334,62.52747150833334,64.0,85.0
218,62.51475965833334,62.968148975000005,67.0,84.0
219,62.768996658333336,63.10374204166667,59.0,84.0
220,61.49781165833334,63.13764030833334,47.0,71.0
221,61.24357465833334,63.15458944166667,40.0,85.0
222,63.277470658333336,63.30925028333334,36.0,79.0
223,63.277470658333336,63.591029625000004,57.0,74.0
224,63.277470658333336,63.80924971666667,62.0,78.0
225,63.78594465833334,64.34314741666667,57.0,83.0
226,64.04018165833334,64.40670666666668,62.0,84.0
227,64.54865565833335,65.0338246,65.0,84.0
228,63.277470658333336,65.17577359166667,38.0,86.0
229,64.80289265833333,65.18848544166667,57.0,84.0
230,63.53170765833334,65.20331593333334,45.0,69.0
231,65.31136665833334,65.58679007500001,57.0,83.0
232,65.31136665833334,65.68001030833334,62.0,75.0
233,65.81984065833333,65.917298175,57.0,78.0
234,66.07407765833334,66.36009428333334,57.0,84.0
235,66.07407765833334,66.39822983333335,65.0,82.0
236,66.58255165833334,66.70331423333334,57.0,84.0
237,66.58255165833334,66.84314458333334,62.0,84.0
238,66.83678865833333,66.95755123333333,57.0,83.0
239,65.31136665833334,67.04017825833334,38.0,86.0
240,65.56560365833334,67.18000860833334,45.0,75.0
241,67.34526265833334,67.61433015,59.0,79.0
242,67.34526265833334,67.87280443333334,64.0,83.0
243,67.85373665833333,68.61856630000001,59.0,84.0
244,68.10797365833334,68.69483740000001,64.0,81.0
245,67.34526265833334,68.84526095833334,40.0,85.0
246,67.59949965833334,68.84737960000001,47.0,75.0
247,68.61644765833334,69.05924376666667,67.0,82.0
248,68.87068465833335,69.08466746666667,59.0,84.0
249,69.37915865833334,69.70754811666667,64.0,82.0
250,69.37915865833334,69.73509045833335,57.0,78.0
251,69.37915865833334,69.73509045833335,60.0,77.0
252,69.88763265833335,70.10797139166667,60.0,74.0
253,69.88763265833335,70.112208675,57.0,69.0
254,70.39610665833334,70.85161461666667,57.0,84.0
255,70.39610665833334,70.8558519,60.0,92.0
256,70.90458065833334,71.13551260000001,57.0,83.0
257,70.90458065833334,71.18636000000001,60.0,85.0
258,69.37915865833334,71.31771578333334,45.0,82.0
259,71.41305465833334,71.70330856666668,57.0,80.0
260,71.41305465833334,71.76263053333334,60.0,82.0
261,71.92152865833334,72.05500308333335,57.0,83.0
262,72.17576565833333,72.26686725,60.0,79.0
263,71.66729165833334,72.50203647500001,52.0,75.0
264,72.43000265833334,72.71390064166667,57.0,85.0
265,72.43000265833334,72.72025656666668,64.0,89.0
266,72.43000265833334,72.72237520833335,60.0,89.0
267,72.93847665833334,73.41305239166667,57.0,84.0
268,73.19271365833335,73.43000152500001,60.0,79.0
269,71.41305465833334,73.44695065833334,45.0,85.0
270,72.68423965833334,73.47025571666667,52.0,85.0
271,73.95542465833334,74.29864460833333,60.0,68.0
272,73.70118765833334,74.3897462,52.0,72.0
273,74.20966165833335,74.59101715833334,69.0,83.0
274,74.71813565833334,74.80711860833334,57.0,68.0
275,74.46389865833333,74.88550835000001,52.0,68.0
276,74.71813565833334,75.01898277500001,60.0,79.0
277,74.71813565833334,75.05499968333334,64.0,80.0
278,73.44695065833334,75.10372844166668,45.0,81.0
279,74.97237265833334,75.19271139166668,57.0,67.0
280,75.48084665833333,75.7372023,57.0,68.0
281,75.48084665833333,75.91304955833334,60.0,72.0
282,75.98932065833334,76.05287990833334,57.0,55.0
283,75.73508365833334,76.33042196666668,52.0,69.0
284,76.24355765833334,76.46601503333333,64.0,79.0
285,76.24355765833334,76.47660824166667,57.0,74.0
286,76.75203165833334,76.862201025,57.0,74.0
287,76.49779465833333,76.91304842500001,52.0,67.0
288,75.48084665833333,77.03592964166667,45.0,80.0
289,76.75203165833334,77.05287877500001,60.0,76.0
290,77.00626865833334,77.11855666666668,57.0,78.0
291,77.51474265833335,77.79440335833334,59.0,70.0
292,77.51474265833335,78.03804715000001,64.0,76.0
293,78.02321665833334,78.36643660833334,59.0,71.0
294,78.27745365833334,78.40457215833334,64.0,63.0
295,78.53169065833335,78.97024948333333,67.0,81.0
296,78.78592765833334,79.035927375,59.0,74.0
297,77.76897965833334,79.05287650833334,47.0,63.0
298,77.51474265833335,79.16516451666668,40.0,82.0
299,79.04016465833334,79.40668966666668,64.0,73.0
300,79.29440165833334,79.4744862,59.0,74.0
301,79.54863865833335,79.77109603333334,59.0,75.0
302,79.54863865833335,79.99779069166668,64.0,75.0
303,79.54863865833335,80.10796005833335,40.0,81.0
304,79.80287565833333,80.15880745833334,47.0,65.0
305,80.05711265833334,80.39185804166668,59.0,73.0
306,80.31134965833334,80.60795949166668,64.0,72.0
307,80.56558665833334,80.84312871666667,67.0,80.0
308,80.81982365833333,81.0761793,64.0,78.0
309,81.07406065833334,81.19482323333334,59.0,81.0
310,81.58253465833334,81.83041573333334,57.0,67.0
311,81.58253465833334,82.08677137500001,60.0,74.0
312,82.09100865833334,82.40456762500001,57.0,69.0
313,82.34524565833334,82.44058453333334,60.0,61.0
314,82.59948265833334,82.7795672,64.0,82.0
315,82.85371965833335,83.12066850833334,57.0,75.0
316,83.10795665833334,83.36643094166668,60.0,72.0
317,81.83677165833333,83.459651175,52.0,69.0
318,81.58253465833334,83.50837993333334,45.0,79.0
319,83.36219365833334,83.51685450000001,57.0,70.0
320,83.61643065833334,84.16092156666667,62.0,78.0
321,84.12490465833334,84.44270090833334,57.0,68.0
322,84.37914165833334,84.65668371666668,62.0,67.0
323,84.63337865833334,84.89820886666668,65.0,80.0
324,83.61643065833334,84.94481898333333,50.0,78.0
325,84.88761565833335,85.17786956666667,62.0,73.0
326,85.14185265833333,85.23295425,57.0,68.0
327,85.65032665833334,86.040156725,64.0,84.0
328,85.65032665833334,86.04863129166668,52.0,84.0
329,85.65032665833334,86.05922450000001,59.0,83.0
330,86.15880065833333,86.36854618333334,64.0,70.0
331,86.15880065833333,86.44905456666667,52.0,83.0
332,86.15880065833333,86.47024098333334,59.0,78.0
333,86.66727465833334,86.94481671666668,64.0,86.0
334,86.66727465833334,86.97235905833334,52.0,83.0
335,86.66727465833334,86.980833625,59.0,83.0
336,85.65032665833334,87.52108725000001,40.0,87.0
337,87.17574865833335,87.55710415833335,64.0,85.0
338,87.17574865833335,87.57617193333334,52.0,85.0
339,87.17574865833335,87.58252785833334,59.0,84.0
340,87.68422265833334,88.04651038333334,64.0,84.0
341,87.68422265833334,88.07617136666667,52.0,83.0
342,87.68422265833334,88.08888321666667,59.0,83.0
343,88.19269665833335,88.49566241666668,64.0,84.0
344,88.19269665833335,88.51896747500001,52.0,85.0
345,88.19269665833335,88.52744204166667,59.0,83.0
346,88.44693365833334,88.78379768333335,47.0,83.0
347,88.70117065833334,88.96811950833334,52.0,92.0
348,88.70117065833334,89.24142428333334,59.0,87.0
349,88.70117065833334,89.26049205833334,64.0,87.0
350,89.20964465833335,89.68210175,52.0,94.0
351,89.46388165833334,89.69693224166667,59.0,83.0
352,87.68422265833334,89.71176273333334,40.0,85.0
353,88.95540765833334,89.72023730000001,47.0,88.0
354,90.22659265833335,90.56981260833334,60.0,68.0
355,89.97235565833334,90.66091420000001,52.0,72.0
356,90.48082965833333,90.86218515833335,69.0,83.0
357,90.98930365833334,91.07828660833334,57.0,68.0
358,90.73506665833334,91.15667635000001,52.0,68.0
359,90.98930365833334,91.29015077500001,60.0,79.0
360,90.98930365833334,91.32616768333334,64.0,80.0
361,89.71811865833334,91.37489644166668,45.0,81.0
362,91.24354065833334,91.46387939166668,57.0,67.0
363,91.75201465833334,92.00837030000001,57.0,68.0
364,91.75201465833334,92.18421755833334,60.0,72.0
365,92.26048865833334,92.32404790833334,57.0,55.0
366,92.00625165833334,92.60158996666668,52.0,69.0
367,92.51472565833335,92.73718303333334,64.0,79.0
368,92.51472565833335,92.74777624166667,57.0,74.0
369,93.02319965833334,93.13336902500001,57.0,74.0
370,92.76896265833334,93.184216425,52.0,67.0
371,91.75201465833334,93.30709764166667,45.0,80.0
372,93.02319965833334,93.32404677500001,60.0,76.0
373,93.27743665833334,93.38972466666668,57.0,78.0
374,93.78591065833334,94.06557135833334,59.0,70.0
375,93.78591065833334,94.30921515000001,64.0,76.0
376,94.29438465833334,94.63760460833335,59.0,71.0
377,94.54862165833335,94.67574015833334,64.0,63.0
378,94.80285865833334,95.24141748333334,67.0,81.0
379,95.05709565833334,95.307095375,59.0,74.0
380,94.04014765833334,95.32404450833334,47.0,63.0
381,93.78591065833334,95.43633251666668,40.0,82.0
382,95.31133265833334,95.67785766666667,64.0,73.0
383,95.56556965833335,95.7456542,59.0,74.0
384,95.81980665833335,96.04226403333334,59.0,75.0
385,95.81980665833335,96.26895869166667,64.0,75.0
386,95.81980665833335,96.37912805833334,40.0,81.0
387,96.07404365833334,96.42997545833335,47.0,65.0
388,96.32828065833334,96.66302604166667,59.0,73.0
389,96.58251765833334,96.87912749166668,64.0,72.0
390,96.83675465833335,97.11429671666667,67.0,80.0
391,97.09099165833334,97.34734730000001,64.0,78.0
392,97.34522865833334,97.46599123333334,59.0,81.0
393,97.85370265833335,98.10158373333334,57.0,67.0
394,97.85370265833335,98.35793937500002,60.0,74.0
395,98.36217665833334,98.675735625,57.0,69.0
396,98.61641365833334,98.71175253333334,60.0,61.0
397,98.87065065833335,99.0507352,64.0,82.0
398,99.12488765833334,99.39183650833334,57.0,75.0
399,99.37912465833334,99.63759894166668,60.0,72.0
400,98.10793965833334,99.73081917500001,52.0,69.0
401,97.85370265833335,99.77954793333335,45.0,79.0
402,99.63336165833334,99.78802250000001,57.0,70.0
403,99.88759865833335,100.43208956666668,62.0,78.0
404,100.39607265833334,100.71386890833334,57.0,68.0
405,100.65030965833334,100.92785171666668,62.0,67.0
406,100.90454665833335,101.16937686666668,65.0,80.0
407,99.88759865833335,101.21598698333334,50.0,78.0
408,101.15878365833335,101.44903756666668,62.0,73.0
409,101.41302065833334,101.50412225000001,57.0,68.0
410,101.92149465833334,102.18420622500001,59.0,70.0
411,101.92149465833334,102.45751100000001,64.0,75.0
412,102.42996865833334,102.75412083333335,59.0,68.0
413,102.68420565833334,102.81979872500001,64.0,67.0
414,102.93844265833334,103.16937460000001,59.0,79.0
415,102.93844265833334,103.21810335833334,67.0,74.0
416,103.19267965833335,103.480814925,64.0,70.0
417,102.17573165833335,103.5253064,47.0,67.0
418,103.44691665833334,103.58462836666668,59.0,79.0
419,101.92149465833334,103.61428935,40.0,81.0
420,103.95539065833334,104.20539037500001,59.0,79.0
421,103.95539065833334,104.36216985833335,64.0,80.0
422,104.46386465833334,104.55496625,59.0,35.0
423,104.71810165833334,104.81767781666667,64.0,78.0
424,104.71810165833334,104.82403374166668,59.0,71.0
425,104.20962765833335,105.15242320000002,47.0,62.0
426,104.97233865833334,105.20115195833334,59.0,80.0
427,104.97233865833334,105.31979589166667,64.0,83.0
428,105.22657565833335,105.32615181666668,59.0,63.0
429,105.22657565833335,105.47657537500001,69.0,79.0
430,103.95539065833334,105.70327003333334,40.0,82.0
431,105.48081265833335,105.7117446,59.0,75.0
432,105.48081265833335,105.86004951666668,64.0,83.0
433,105.48081265833335,105.89394778333335,71.0,88.0
434,105.98928665833334,106.315557475,57.0,73.0
435,105.98928665833334,106.544370775,62.0,75.0
436,106.49776065833335,106.96598046666668,57.0,67.0
437,106.75199765833334,107.16089550000001,62.0,79.0
438,107.26047165833334,107.40242065000001,65.0,85.0
439,106.24352365833334,107.70962369166668,45.0,64.0
440,105.98928665833334,107.891826875,38.0,80.0
441,107.76894565833334,107.90453872500001,57.0,73.0
442,108.02318265833334,108.31131792500001,57.0,72.0
443,108.02318265833334,108.51682616666668,62.0,79.0
444,108.53165665833335,108.63970738333335,57.0,64.0
445,108.78589365833334,108.99140190000001,57.0,80.0
446,108.78589365833334,109.11640175833334,65.0,76.0
447,109.29436765833334,109.47657084166667,57.0,77.0
448,109.29436765833334,109.53377416666667,62.0,77.0
449,108.27741965833334,109.67360451666667,45.0,60.0
450,108.02318265833334,109.70326550000001,38.0,81.0
451,110.05707865833334,110.37487490833334,59.0,73.0
452,110.05707865833334,110.54648488333335,64.0,79.0
453,110.56555265833335,110.87699298333334,59.0,70.0
454,110.81978965833335,111.33250094166668,67.0,80.0
455,110.31131565833334,111.48080585833334,47.0,64.0
456,110.05707865833334,111.57190745000001,40.0,81.0
457,111.32826365833334,111.61216164166667,64.0,81.0
458,111.58250065833334,111.959618875,59.0,72.0
459,111.83673765833335,112.25199142500001,64.0,76.0
460,112.59944865833334,112.69902481666668,57.0,67.0
461,112.85368565833335,113.04224476666667,57.0,79.0
462,112.85368565833335,113.04648205000001,64.0,81.0
463,113.36215965833334,113.47868495000002,57.0,71.0
464,112.34521165833334,113.66512541666668,52.0,70.0
465,112.09097465833334,113.73080330833335,45.0,80.0
466,113.36215965833334,113.91088785000001,60.0,73.0
467,113.61639665833334,114.06978597500002,57.0,68.0
468,114.12487065833335,114.59732775,59.0,75.0
469,114.63334465833334,114.946903625,55.0,75.0
470,114.88758165833335,115.07614076666668,59.0,79.0
471,115.14181865833335,115.429953925,64.0,88.0
472,114.37910765833334,115.47020811666668,47.0,65.0
473,114.12487065833335,115.51046230833335,40.0,81.0
474,115.39605565833334,115.69902141666668,59.0,81.0
475,115.65029265833334,115.86427546666668,55.0,79.0
476,116.15876665833335,116.45325785000001,57.0,73.0
477,116.15876665833335,116.66935930000001,60.0,74.0
478,116.41300365833334,116.99139283333335,52.0,72.0
479,116.92147765833334,117.24986711666668,57.0,75.0
480,116.92147765833334,117.31766365000001,64.0,81.0
481,117.42995165833334,117.83673085833334,57.0,73.0
482,117.42995165833334,117.87910369166667,60.0,75.0
483,116.15876665833335,118.02740860833335,45.0,80.0
484,117.17571465833335,118.06978144166668,52.0,76.0
485,117.93842565833334,118.20537450833335,59.0,75.0
486,118.19266265833335,118.46596743333335,57.0,71.0
487,118.70113665833334,118.80706874166668,57.0,65.0
488,118.44689965833335,119.05706845833335,52.0,73.0
489,118.95537365833334,119.29011904166667,57.0,79.0
490,118.95537365833334,119.34308508333335,64.0,82.0
491,119.46384765833335,119.59732208333334,57.0,74.0
492,119.46384765833335,119.80283032500002,60.0,79.0
493,118.19266265833335,120.02105041666668,45.0,80.0
494,119.20961065833335,120.02952498333335,52.0,79.0
495,119.71808465833334,120.27740605833334,57.0,72.0
496,120.22655865833335,120.27740605833334,57.0,76.0
497,120.22655865833335,120.76045635833334,60.0,79.0
498,120.73503265833334,121.074015325,57.0,74.0
499,120.48079565833335,121.31342183333335,52.0,75.0
500,121.24350665833335,121.53164192500002,57.0,79.0
501,121.24350665833335,121.61003166666667,60.0,82.0
502,121.24350665833335,121.61426895000001,64.0,82.0
503,121.49774365833335,121.82613311666668,52.0,73.0
504,120.22655865833335,121.87274323333334,45.0,74.0
505,121.75198065833334,122.06342098333334,57.0,74.0
506,122.00621765833334,122.25409873333335,60.0,67.0
507,122.26045465833334,122.68418299166667,64.0,75.0
508,122.26045465833334,122.69689484166668,59.0,72.0
509,123.02316565833334,123.11850453333335,59.0,76.0
510,122.76892865833334,123.37909745833335,47.0,72.0
511,123.27740265833334,123.76045295833335,59.0,81.0
512,122.26045465833334,123.82189356666667,40.0,81.0
513,123.27740265833334,123.82824949166668,64.0,81.0
514,123.27740265833334,123.87909689166668,67.0,79.0
515,123.78587665833335,123.91723244166668,47.0,74.0
516,124.04011365833334,124.1693508,59.0,61.0
517,124.29435065833334,124.78375688333334,57.0,73.0
518,124.29435065833334,124.8049433,60.0,75.0
519,125.05706165833334,125.11638362500001,57.0,68.0
520,124.80282465833335,125.396044325,52.0,64.0
521,125.31129865833334,125.55070516666667,57.0,80.0
522,125.31129865833334,125.57824750833335,64.0,80.0
523,125.56553565833335,125.88121326666668,52.0,72.0
524,125.81977265833335,125.92570474166668,57.0,74.0
525,124.29435065833334,125.92782338333335,45.0,80.0
526,125.81977265833335,126.12273841666668,60.0,79.0
527,126.07400965833334,126.17570445833334,57.0,67.0
528,126.32824665833334,126.63968698333335,59.0,72.0
529,126.32824665833334,126.67570389166667,64.0,79.0
530,126.83672065833335,127.13121185000001,59.0,71.0
531,127.09095765833334,127.17994060833334,64.0,70.0
532,126.58248365833335,127.41510983333335,47.0,61.0
533,127.34519465833334,127.53799105000002,59.0,79.0
534,127.34519465833334,127.70960102500001,67.0,79.0
535,127.59943165833334,127.80493990000001,47.0,70.0
536,126.32824665833334,127.84519409166668,40.0,80.0
537,127.85366865833335,128.01892270833335,59.0,79.0
538,127.85366865833335,128.0591769,64.0,78.0
539,128.36214265833334,128.64180335833333,59.0,75.0
540,128.36214265833334,128.713837175,64.0,79.0
541,128.87061665833335,129.15027735833334,59.0,73.0
542,129.12485365833334,129.22442981666669,64.0,69.0
543,128.61637965833336,129.46807360833336,47.0,69.0
544,129.37909065833335,129.58036161666666,59.0,79.0
545,129.37909065833335,129.915107,67.0,78.0
546,128.36214265833334,129.9299374916667,40.0,80.0
547,129.63332765833334,129.94476798333335,47.0,69.0
548,129.88756465833333,129.96171711666668,64.0,73.0
549,130.39603865833334,130.68841120833335,55.0,72.0
550,130.39603865833334,130.89603809166667,59.0,74.0
551,130.90451265833335,131.20959705833334,55.0,74.0
552,131.15874965833333,131.27951223333335,59.0,69.0
553,131.41298665833335,131.60366440833334,55.0,80.0
554,131.41298665833335,131.6333253916667,62.0,80.0
555,130.65027565833336,132.00408768333335,50.0,71.0
556,131.92146065833333,132.031630025,59.0,79.0
557,130.39603865833334,132.0718842166667,43.0,72.0
558,132.42993465833334,132.70323943333335,55.0,72.0
559,132.42993465833334,132.78586645833335,59.0,73.0
560,132.93840865833334,133.0125611166667,55.0,63.0
561,133.19264565833333,133.35578106666668,62.0,76.0
562,133.19264565833333,133.36849291666667,55.0,78.0
563,132.68417165833336,133.79222125,50.0,66.0
564,133.70111965833334,133.9977294916667,55.0,75.0
565,133.70111965833334,134.03162775833334,62.0,78.0
566,133.95535665833336,134.25408513333335,50.0,74.0
567,132.42993465833334,134.31764438333335,43.0,80.0
568,134.20959365833335,134.34306808333335,55.0,77.0
569,134.20959365833335,134.34942400833336,62.0,79.0
570,134.20959365833335,134.35154265,67.0,75.0
571,134.46383065833334,134.63120335000002,55.0,79.0
572,134.46383065833334,134.63967791666667,62.0,80.0
573,134.46383065833334,134.74772864166667,67.0,80.0
574,134.97230465833334,135.0718808166667,71.0,60.0
575,134.97230465833334,135.07823674166667,62.0,63.0
576,134.71806765833335,135.29433819166667,50.0,67.0
577,135.22654165833333,135.46171088333335,71.0,88.0
578,135.22654165833333,135.51255828333333,62.0,83.0
579,135.48077865833335,135.70747331666666,50.0,80.0
580,134.46383065833334,135.7456088666667,43.0,81.0
581,135.73501565833334,135.83035453333335,62.0,77.0
582,135.73501565833334,136.0125577166667,67.0,73.0
583,135.98925265833336,136.10365930833333,62.0,73.0
584,136.49772665833333,136.79645513333335,60.0,69.0
585,136.49772665833333,136.79857377500002,64.0,76.0
586,137.00620065833334,137.13755644166667,62.0,68.0
587,136.75196365833335,137.36001381666668,55.0,67.0
588,137.26043765833336,137.6184881,60.0,73.0
589,137.26043765833336,137.66721685833335,67.0,70.0
590,137.51467465833335,137.79857264166668,55.0,74.0
591,136.49772665833333,137.86425053333335,48.0,81.0
592,137.76891165833334,137.90026744166667,60.0,73.0
593,137.76891165833334,137.942640275,67.0,79.0
594,138.53162265833333,138.82187656666667,64.0,65.0
595,138.53162265833333,138.870605325,67.0,71.0
596,139.04009665833334,139.09729998333336,64.0,62.0
597,139.29433365833336,139.40662166666667,64.0,80.0
598,139.29433365833336,139.4701809166667,71.0,81.0
599,138.78585965833335,139.887553325,47.0,70.0
600,139.80280765833334,139.94899393333336,64.0,80.0
601,139.80280765833334,139.99560405000003,67.0,80.0
602,138.53162265833333,140.07823107500002,40.0,81.0
603,140.56551865833333,140.73924727500003,64.0,74.0
604,140.56551865833333,140.90238268333334,67.0,68.0
605,141.07399265833334,141.17992474166667,59.0,77.0
606,140.81975565833335,141.35365335833333,47.0,63.0
607,141.32822965833336,141.65238183333335,64.0,83.0
608,141.32822965833336,141.66933096666668,59.0,80.0
609,141.58246665833335,141.83458501666667,47.0,68.0
610,140.56551865833333,141.83670365833333,40.0,80.0
611,141.83670365833333,141.89602562500002,59.0,67.0
612,141.83670365833333,142.11000843333335,67.0,73.0
613,141.83670365833333,142.1142457166667,64.0,79.0
614,142.09094065833335,142.24348285833335,59.0,72.0
615,142.59941465833336,142.87907535833335,59.0,71.0
616,142.59941465833336,143.103651375,64.0,74.0
617,143.10788865833334,143.370600225,59.0,78.0
618,143.36212565833335,143.612125375,71.0,84.0
619,142.85365165833335,144.18627726666668,47.0,66.0
620,143.87059965833333,144.18627726666668,64.0,80.0
621,142.59941465833336,144.22017553333333,40.0,80.0
622,144.12483665833335,144.7201749666667,59.0,81.0
623,145.14178465833334,145.27949636666668,57.0,74.0
624,144.88754765833335,145.49771645833334,52.0,70.0
625,145.39602165833335,145.76466530833335,57.0,80.0
626,145.39602165833335,145.798563575,60.0,81.0
627,145.90449565833336,146.43627471666667,59.0,73.0
628,144.63331065833336,146.4934780416667,45.0,80.0
629,145.65025865833334,146.49983396666667,52.0,71.0
630,146.41296965833334,147.16508745000002,60.0,74.0
631,147.17568065833333,147.27101953333334,57.0,72.0
632,146.92144365833335,147.51466332500001,52.0,73.0
633,147.42991765833335,147.81551044166667,57.0,79.0
634,147.42991765833335,147.96169671666667,64.0,83.0
635,147.93839165833336,148.24559470000003,62.0,78.0
636,147.93839165833336,148.24771334166667,57.0,73.0
637,148.19262865833335,148.48711985,60.0,75.0
638,148.44686565833334,148.66508575,59.0,70.0
639,147.68415465833334,148.69686537500002,52.0,79.0
640,146.66720665833336,148.72652635833336,45.0,80.0
641,148.70110265833335,148.72652635833336,45.0,84.0
642,148.70110265833335,149.014661625,57.0,77.0
643,148.70110265833335,149.02101755,64.0,82.0
644,149.20957665833333,149.38118663333336,57.0,86.0
645,149.46381365833335,150.11847393333335,64.0,87.0
646,148.95533965833334,150.18203318333335,52.0,75.0
647,149.46381365833335,150.23076194166669,57.0,85.0
648,150.22652465833335,150.70321903333334,69.0,84.0
649,150.22652465833335,150.70957495833335,64.0,71.0
650,150.48076165833334,150.794320625,57.0,83.0
651,151.24347265833336,151.86635330833334,50.0,76.0
652,151.49770965833335,152.03584464166667,57.0,84.0
653,152.26042065833335,152.5951660416667,50.0,84.0
654,150.98923565833334,152.612115175,45.0,76.0
655,150.73499865833335,152.62906430833334,38.0,87.0
656,152.00618365833336,152.6650812166667,62.0,85.0
657,152.76889465833335,153.0782163416667,50.0,80.0
658,152.76889465833335,153.32609741666667,57.0,77.0
659,153.27736865833336,153.72652069166668,50.0,79.0
660,153.53160565833335,153.86211375833335,57.0,78.0
661,154.04007965833335,154.14601174166668,50.0,79.0
662,153.02313165833334,154.16507951666668,45.0,72.0
663,152.76889465833335,154.19262185833335,38.0,86.0
664,154.04007965833335,154.36423183333335,57.0,79.0
665,154.29431665833334,154.54431637500002,50.0,84.0
666,154.54855365833333,154.74135005000002,57.0,74.0
667,154.04007965833335,154.84940077500002,62.0,80.0
668,155.31126465833336,155.42143402500002,57.0,79.0
669,155.56550165833335,155.84304371666667,57.0,82.0
670,155.56550165833335,155.866348775,64.0,84.0
671,156.07397565833335,156.21804329166667,57.0,80.0
672,156.07397565833335,156.374822775,60.0,79.0
673,156.32821265833334,156.616347925,57.0,84.0
674,154.80279065833335,156.66083940000001,45.0,85.0
675,155.05702765833334,156.72651729166668,52.0,75.0
676,156.58244965833336,157.12058464166668,64.0,84.0
677,157.34516065833336,157.5019401416667,57.0,83.0
678,157.59939765833334,158.21592238333335,69.0,84.0
679,157.59939765833334,158.24770200833333,57.0,79.0
680,157.09092365833334,158.29854940833334,52.0,77.0
681,156.83668665833335,158.34092224166668,45.0,86.0
682,158.36210865833334,158.6693117,60.0,83.0
683,158.61634565833336,158.97651474166668,57.0,80.0
684,158.36210865833334,158.9892265916667,64.0,83.0
685,159.37905665833335,159.99558138333336,57.0,85.0
686,159.63329365833334,160.12905580833333,62.0,83.0
687,160.39600465833334,160.50829266666668,57.0,84.0
688,160.14176765833335,160.57397055833334,65.0,84.0
689,158.87058265833335,160.60998746666667,38.0,89.0
690,159.12481965833334,160.73498732500002,45.0,72.0
691,160.90447865833335,161.18202071666667,59.0,77.0
692,160.90447865833335,161.40024080833334,64.0,80.0
693,161.41295265833335,162.1523586,59.0,83.0
694,161.66718965833334,162.18837550833334,64.0,85.0
695,162.17566365833335,162.629052975,67.0,84.0
696,162.42990065833334,162.76464604166668,59.0,84.0
697,161.15871565833334,162.79854430833333,47.0,71.0
698,160.90447865833335,162.8154934416667,40.0,85.0
699,162.93837465833334,162.97015428333336,36.0,79.0
700,162.93837465833334,163.25193362500002,57.0,74.0
701,162.93837465833334,163.4701537166667,62.0,78.0
702,163.44684865833335,164.00405141666667,57.0,83.0
703,163.70108565833334,164.06761066666667,62.0,84.0
704,164.20955965833335,164.69472860000002,65.0,84.0
705,162.93837465833334,164.83667759166667,38.0,86.0
706,164.46379665833334,164.8493894416667,57.0,84.0
707,163.19261165833333,164.86421993333335,45.0,69.0
708,164.97227065833334,165.24769407500003,57.0,83.0
709,164.97227065833334,165.34091430833334,62.0,75.0
710,165.48074465833335,165.578202175,57.0,78.0
711,165.73498165833334,166.02099828333334,57.0,84.0
712,165.73498165833334,166.05913383333333,65.0,82.0
713,166.24345565833335,166.36421823333336,57.0,84.0
714,166.24345565833335,166.50404858333334,62.0,84.0
715,166.49769265833334,166.61845523333335,57.0,83.0
716,164.97227065833334,166.70108225833334,38.0,86.0
717,165.22650765833336,166.84091260833335,45.0,75.0
718,167.00616665833334,167.27523415000002,59.0,79.0
719,167.00616665833334,167.53370843333335,64.0,83.0
720,167.51464065833335,168.2794703,59.0,84.0
721,167.76887765833334,168.35574140000003,64.0,81.0
722,167.00616665833334,168.50616495833336,40.0,85.0
723,167.26040365833336,168.50828360000003,47.0,75.0
724,168.27735165833334,168.72014776666668,67.0,82.0
725,168.53158865833333,168.7455714666667,59.0,84.0
726,169.04006265833334,169.36845211666667,64.0,82.0
727,169.04006265833334,169.39599445833335,57.0,78.0
728,169.04006265833334,169.39599445833335,60.0,77.0
729,169.54853665833335,169.76887539166668,60.0,74.0
730,169.54853665833335,169.77311267500002,57.0,69.0
731,170.05701065833335,170.51251861666668,57.0,84.0
732,170.05701065833335,170.51675590000002,60.0,92.0
733,170.56548465833336,170.79641660000001,57.0,83.0
734,170.56548465833336,170.84726400000002,60.0,85.0
735,169.04006265833334,170.97861978333336,45.0,82.0
736,171.07395865833334,171.36421256666668,57.0,80.0
737,171.07395865833334,171.42353453333334,60.0,82.0
738,171.58243265833335,171.71590708333335,57.0,83.0
739,171.83666965833334,171.92777125,60.0,79.0
740,171.32819565833336,172.16294047500003,52.0,75.0
741,172.09090665833335,172.37480464166669,57.0,85.0
742,172.09090665833335,172.3811605666667,64.0,89.0
743,172.09090665833335,172.38327920833333,60.0,89.0
744,171.07395865833334,172.849380375,45.0,85.0
745,172.59938065833336,173.07395639166668,57.0,84.0
746,172.85361765833335,173.090905525,60.0,79.0
747,172.34514365833334,173.10361737500003,52.0,85.0
748,173.61632865833334,173.95954860833334,60.0,68.0
749,173.36209165833336,174.0506502,52.0,72.0
750,173.87056565833336,174.25192115833335,69.0,83.0
751,174.37903965833334,174.46802260833334,57.0,68.0
752,174.12480265833335,174.54641235000003,52.0,68.0
753,174.37903965833334,174.67988677500003,60.0,79.0
754,174.37903965833334,174.71590368333335,64.0,80.0
755,173.10785465833334,174.7646324416667,45.0,81.0
756,174.63327665833336,174.8536153916667,57.0,67.0
757,175.14175065833334,175.39810630000002,57.0,68.0
758,175.14175065833334,175.57395355833336,60.0,72.0
759,175.65022465833334,175.71378390833334,57.0,55.0
760,175.39598765833335,175.9913259666667,52.0,69.0
761,175.90446165833336,176.12691903333334,64.0,79.0
762,175.90446165833336,176.13751224166668,57.0,74.0
763,176.41293565833334,176.523105025,57.0,74.0
764,176.15869865833335,176.57395242500002,52.0,67.0
765,175.14175065833334,176.69683364166667,45.0,80.0
766,176.41293565833334,176.71378277500003,60.0,76.0
767,176.66717265833336,176.7794606666667,57.0,78.0
768,177.17564665833333,177.45530735833336,59.0,70.0
769,177.17564665833333,177.69895115000003,64.0,76.0
770,177.68412065833334,178.02734060833336,59.0,71.0
771,177.93835765833336,178.06547615833335,64.0,63.0
772,178.19259465833335,178.63115348333335,67.0,81.0
773,178.44683165833334,178.69683137500002,59.0,74.0
774,177.42988365833335,178.71378050833334,47.0,63.0
775,177.17564665833333,178.82606851666668,40.0,82.0
776,178.70106865833336,179.06759366666668,64.0,73.0
777,178.95530565833334,179.13539020000002,59.0,74.0
778,179.20954265833336,179.43200003333334,59.0,75.0
779,179.20954265833336,179.65869469166668,64.0,75.0
780,179.20954265833336,179.76886405833335,40.0,81.0
781,179.46377965833335,179.81971145833336,47.0,65.0
782,179.71801665833334,180.05276204166668,59.0,73.0
783,179.97225365833336,180.26886349166668,64.0,72.0
784,180.22649065833335,180.50403271666667,67.0,80.0
785,180.48072765833334,180.73708330000002,64.0,78.0
786,180.73496465833335,180.85572723333334,59.0,81.0
787,181.24343865833336,181.49131973333334,57.0,67.0
788,181.24343865833336,181.74767537500003,60.0,74.0
789,181.75191265833334,182.06547162500001,57.0,69.0
790,182.00614965833336,182.10148853333334,60.0,61.0
791,182.26038665833335,182.44047120000002,64.0,82.0
792,182.51462365833336,182.78157250833334,57.0,75.0
793,182.76886065833335,183.02733494166668,60.0,72.0
794,181.49767565833335,183.12055517500002,52.0,69.0
795,181.24343865833336,183.16928393333336,45.0,79.0
796,183.02309765833334,183.1777585,57.0,70.0
797,183.27733465833336,183.8218255666667,62.0,78.0
798,183.78580865833334,184.10360490833335,57.0,68.0
799,184.04004565833336,184.31758771666668,62.0,67.0
800,184.29428265833334,184.55911286666668,65.0,80.0
801,183.27733465833336,184.60572298333335,50.0,78.0
802,184.54851965833336,184.83877356666667,62.0,73.0
803,184.80275665833335,184.89385825000002,57.0,68.0
804,185.31123065833336,185.70106072500002,64.0,84.0
805,185.31123065833336,185.7095352916667,52.0,84.0
806,185.31123065833336,185.72012850000002,59.0,83.0
807,185.81970465833334,186.02945018333335,64.0,70.0
808,185.81970465833334,186.10995856666668,52.0,83.0
809,185.81970465833334,186.13114498333334,59.0,78.0
810,186.32817865833334,186.6057207166667,64.0,86.0
811,186.32817865833334,186.63326305833334,52.0,83.0
812,186.32817865833334,186.64173762500002,59.0,83.0
813,185.31123065833336,187.18199125,40.0,87.0
814,186.83665265833335,187.21800815833336,64.0,85.0
815,186.83665265833335,187.23707593333336,52.0,85.0
816,186.83665265833335,187.24343185833334,59.0,84.0
817,187.34512665833336,187.70741438333334,64.0,84.0
818,187.34512665833336,187.7370753666667,52.0,83.0
819,187.34512665833336,187.74978721666668,59.0,83.0
820,187.85360065833336,188.1565664166667,64.0,84.0
821,187.85360065833336,188.17987147500003,52.0,85.0
822,187.85360065833336,188.18834604166668,59.0,83.0
823,188.10783765833335,188.44470168333336,47.0,83.0
824,188.36207465833334,188.62902350833335,52.0,92.0
825,188.36207465833334,188.90232828333336,59.0,87.0
826,188.36207465833334,188.92139605833336,64.0,87.0
827,188.87054865833335,189.34300575,52.0,94.0
828,189.12478565833334,189.3578362416667,59.0,83.0
829,187.34512665833336,189.37266673333335,40.0,85.0
830,188.61631165833336,189.38114130000002,47.0,88.0
831,189.88749665833336,190.23071660833335,60.0,68.0
832,189.63325965833334,190.32181820000002,52.0,72.0
833,190.14173365833335,190.52308915833336,69.0,83.0
834,190.65020765833336,190.73919060833336,57.0,68.0
835,190.39597065833334,190.81758035000001,52.0,68.0
836,190.65020765833336,190.95105477500002,60.0,79.0
837,190.65020765833336,190.98707168333334,64.0,80.0
838,189.37902265833335,191.03580044166668,45.0,81.0
839,190.90444465833335,191.12478339166668,57.0,67.0
840,191.41291865833335,191.6692743,57.0,68.0
841,191.41291865833335,191.84512155833335,60.0,72.0
842,191.92139265833336,191.98495190833336,57.0,55.0
843,191.66715565833334,192.26249396666668,52.0,69.0
844,192.17562965833335,192.39808703333335,64.0,79.0
845,192.17562965833335,192.40868024166667,57.0,74.0
846,192.68410365833336,192.79427302500002,57.0,74.0
847,192.42986665833334,192.845120425,52.0,67.0
848,191.41291865833335,192.9680016416667,45.0,80.0
849,192.68410365833336,192.98495077500002,60.0,76.0
850,192.93834065833335,193.05062866666668,57.0,78.0
851,193.44681465833335,193.72647535833335,59.0,70.0
852,193.44681465833335,193.97011915000002,64.0,76.0
853,193.95528865833336,194.29850860833335,59.0,71.0
854,194.20952565833335,194.33664415833334,64.0,63.0
855,194.46376265833334,194.90232148333334,67.0,81.0
856,194.71799965833335,194.967999375,59.0,74.0
857,193.70105165833334,194.98494850833336,47.0,63.0
858,193.44681465833335,195.0972365166667,40.0,82.0
859,194.97223665833334,195.33876166666667,64.0,73.0
860,195.22647365833336,195.4065582,59.0,74.0
861,195.48071065833335,195.70316803333336,59.0,75.0
862,195.48071065833335,195.92986269166667,64.0,75.0
863,195.48071065833335,196.04003205833334,40.0,81.0
864,195.73494765833334,196.09087945833335,47.0,65.0
865,195.98918465833336,196.32393004166667,59.0,73.0
866,196.24342165833335,196.5400314916667,64.0,72.0
867,196.49765865833336,196.7752007166667,67.0,80.0
868,196.75189565833335,197.0082513,64.0,78.0
869,197.00613265833334,197.12689523333336,59.0,81.0
870,197.51460665833335,197.76248773333336,57.0,67.0
871,197.51460665833335,198.01884337500002,60.0,74.0
872,198.02308065833336,198.336639625,57.0,69.0
873,198.27731765833335,198.37265653333336,60.0,61.0
874,198.53155465833336,198.7116392,64.0,82.0
875,198.78579165833335,199.05274050833336,57.0,75.0
876,199.04002865833334,199.2985029416667,60.0,72.0
877,197.76884365833334,199.391723175,52.0,69.0
878,197.51460665833335,199.44045193333335,45.0,79.0
879,199.29426565833336,199.44892650000003,57.0,70.0
880,199.54850265833335,200.09299356666668,62.0,78.0
881,200.05697665833335,200.37477290833334,57.0,68.0
882,200.31121365833334,200.5887557166667,62.0,67.0
883,200.56545065833336,200.8302808666667,65.0,80.0
884,199.54850265833335,200.87689098333334,50.0,78.0
885,200.81968765833335,201.1099415666667,62.0,73.0
886,201.07392465833334,201.16502625,57.0,68.0
887,201.58239865833335,201.845110225,59.0,70.0
888,201.58239865833335,202.11841500000003,64.0,75.0
889,202.09087265833335,202.41502483333335,59.0,68.0
890,202.34510965833334,202.48070272500001,64.0,67.0
891,202.59934665833336,202.8302786,59.0,79.0
892,202.59934665833336,202.87900735833335,67.0,74.0
893,202.85358365833335,203.14171892500002,64.0,70.0
894,201.83663565833336,203.18621040000002,47.0,67.0
895,203.10782065833334,203.24553236666668,59.0,79.0
896,201.58239865833335,203.27519335000002,40.0,81.0
897,203.61629465833335,203.86629437500002,59.0,79.0
898,203.61629465833335,204.02307385833336,64.0,80.0
899,204.12476865833335,204.21587025000002,59.0,35.0
900,204.37900565833334,204.4785818166667,64.0,78.0
901,204.37900565833334,204.4849377416667,59.0,71.0
902,203.87053165833336,204.81332720000003,47.0,62.0
903,204.63324265833336,204.86205595833334,59.0,80.0
904,204.63324265833336,204.9806998916667,64.0,83.0
905,204.88747965833335,204.9870558166667,59.0,63.0
906,204.88747965833335,205.13747937500003,69.0,79.0
907,203.61629465833335,205.36417403333334,40.0,82.0
908,205.14171665833334,205.37264860000002,59.0,75.0
909,205.14171665833334,205.52095351666668,64.0,83.0
910,205.14171665833334,205.55485178333336,71.0,88.0
911,205.65019065833334,205.976461475,57.0,73.0
912,205.65019065833334,206.20527477500002,62.0,75.0
913,206.15866465833335,206.6268844666667,57.0,67.0
914,206.41290165833334,206.82179950000003,62.0,79.0
915,206.92137565833335,207.06332465000003,65.0,85.0
916,205.90442765833336,207.3705276916667,45.0,64.0
917,205.65019065833334,207.552730875,38.0,80.0
918,207.42984965833335,207.56544272500003,57.0,73.0
919,207.68408665833334,207.972221925,57.0,72.0
920,207.68408665833334,208.1777301666667,62.0,79.0
921,208.19256065833335,208.30061138333335,57.0,64.0
922,208.44679765833334,208.65230590000002,57.0,80.0
923,208.44679765833334,208.77730575833334,65.0,76.0
924,208.95527165833334,209.1374748416667,57.0,77.0
925,208.95527165833334,209.19467816666668,62.0,77.0
926,207.93832365833336,209.3345085166667,45.0,60.0
927,207.68408665833334,209.36416950000003,38.0,81.0
928,209.71798265833334,210.03577890833336,59.0,73.0
929,209.71798265833334,210.20738888333335,64.0,79.0
930,210.22645665833335,210.53789698333335,59.0,70.0
931,210.48069365833337,210.99340494166668,67.0,80.0
932,209.97221965833336,211.14170985833334,47.0,64.0
933,209.71798265833334,211.23281145,40.0,81.0
934,210.98916765833334,211.27306564166668,64.0,81.0
935,211.24340465833336,211.620522875,59.0,72.0
936,211.49764165833335,211.91289542500002,64.0,76.0
937,212.26035265833335,212.3599288166667,57.0,67.0
938,212.51458965833336,212.7031487666667,57.0,79.0
939,212.51458965833336,212.70738605000003,64.0,81.0
940,213.02306365833334,213.13958895000002,57.0,71.0
941,212.00611565833336,213.32602941666667,52.0,70.0
942,211.75187865833334,213.39170730833334,45.0,80.0
943,213.02306365833334,213.57179185,60.0,73.0
944,213.27730065833336,213.73068997500002,57.0,68.0
945,213.78577465833334,214.25823175000002,59.0,75.0
946,214.29424865833334,214.60780762500002,55.0,75.0
947,214.54848565833336,214.73704476666668,59.0,79.0
948,214.80272265833335,215.09085792500002,64.0,88.0
949,214.04001165833336,215.13111211666669,47.0,65.0
950,213.78577465833334,215.17136630833335,40.0,81.0
951,215.05695965833334,215.3599254166667,59.0,81.0
952,215.31119665833336,215.52517946666669,55.0,79.0
953,215.81967065833337,216.11416185000002,57.0,73.0
954,215.81967065833337,216.3302633,60.0,74.0
955,216.07390765833335,216.65229683333334,52.0,72.0
956,216.58238165833336,216.9107711166667,57.0,75.0
957,216.58238165833336,216.97856765000003,64.0,81.0
958,217.09085565833334,217.49763485833336,57.0,73.0
959,217.09085565833334,217.5400076916667,60.0,75.0
960,215.81967065833337,217.68831260833335,45.0,80.0
961,216.83661865833335,217.73068544166668,52.0,76.0
962,217.59932965833335,217.86627850833335,59.0,75.0
963,217.85356665833336,218.12687143333335,57.0,71.0
964,218.36204065833334,218.4679727416667,57.0,65.0
965,218.10780365833335,218.71797245833335,52.0,73.0
966,218.61627765833336,218.95102304166667,57.0,79.0
967,218.61627765833336,219.00398908333335,64.0,82.0
968,219.12475165833337,219.25822608333334,57.0,74.0
969,219.12475165833337,219.46373432500002,60.0,79.0
970,217.85356665833336,219.68195441666668,45.0,80.0
971,218.87051465833335,219.69042898333336,52.0,79.0
972,219.37898865833336,219.93831005833334,57.0,72.0
973,220.39593665833334,220.73915660833336,60.0,68.0
974,220.14169965833335,220.83025820000003,52.0,72.0
975,220.65017365833336,221.03152915833334,69.0,83.0
976,221.15864765833336,221.24763060833334,57.0,68.0
977,220.90441065833335,221.32602035000002,52.0,68.0
978,221.15864765833336,221.45949477500002,60.0,79.0
979,221.15864765833336,221.49551168333335,64.0,80.0
980,219.88746265833336,221.5442404416667,45.0,81.0
981,221.41288465833335,221.6332233916667,57.0,67.0
982,221.92135865833336,222.17771430000002,57.0,68.0
983,221.92135865833336,222.35356155833335,60.0,72.0
984,222.42983265833334,222.49339190833336,57.0,55.0
985,222.17559565833335,222.7709339666667,52.0,69.0
986,222.68406965833336,222.90652703333336,64.0,79.0
987,222.68406965833336,222.91712024166668,57.0,74.0
988,223.19254365833336,223.30271302500003,57.0,74.0
989,222.93830665833335,223.353560425,52.0,67.0
990,221.92135865833336,223.4764416416667,45.0,80.0
991,223.19254365833336,223.49339077500002,60.0,76.0
992,223.44678065833335,223.5590686666667,57.0,78.0
993,223.95525465833336,224.23491535833335,59.0,70.0
994,223.95525465833336,224.47855915000002,64.0,76.0
995,224.46372865833337,224.80694860833336,59.0,71.0
996,224.71796565833336,224.84508415833335,64.0,63.0
997,224.97220265833334,225.41076148333335,67.0,81.0
998,225.22643965833336,225.476439375,59.0,74.0
999,224.20949165833335,225.49338850833334,47.0,63.0
1000,223.95525465833336,225.60567651666668,40.0,82.0
1001,225.48067665833335,225.84720166666668,64.0,73.0
1002,225.73491365833334,225.9149982,59.0,74.0
1003,225.98915065833336,226.21160803333336,59.0,75.0
1004,225.98915065833336,226.43830269166668,64.0,75.0
1005,225.98915065833336,226.54847205833335,40.0,81.0
1006,226.24338765833335,226.59931945833335,47.0,65.0
1007,226.49762465833336,226.83237004166668,59.0,73.0
1008,226.75186165833335,227.04847149166667,64.0,72.0
1009,227.00609865833334,227.2836407166667,67.0,80.0
1010,227.26033565833336,227.51669130000002,64.0,78.0
1011,227.51457265833335,227.63533523333336,59.0,81.0
1012,228.02304665833336,228.27092773333337,57.0,67.0
1013,228.02304665833336,228.52728337500002,60.0,74.0
1014,228.53152065833336,228.845079625,57.0,69.0
1015,228.78575765833335,228.88109653333336,60.0,61.0
1016,229.03999465833334,229.22007920000001,64.0,82.0
1017,229.29423165833336,229.56118050833336,57.0,75.0
1018,229.54846865833335,229.80694294166668,60.0,72.0
1019,228.27728365833335,229.90016317500002,52.0,69.0
1020,228.02304665833336,229.94889193333336,45.0,79.0
1021,229.80270565833337,229.9573665,57.0,70.0
1022,230.05694265833336,230.60143356666669,62.0,78.0
1023,230.56541665833336,230.88321290833335,57.0,68.0
1024,230.81965365833335,231.09719571666668,62.0,67.0
1025,231.07389065833334,231.33872086666668,65.0,80.0
1026,230.05694265833336,231.38533098333335,50.0,78.0
1027,231.32812765833336,231.6183815666667,62.0,73.0
1028,231.58236465833335,231.67346625000002,57.0,68.0
1029,232.09083865833335,232.35355022500002,59.0,70.0
1030,232.09083865833335,232.626855,64.0,75.0
1031,232.59931265833336,232.92346483333336,59.0,68.0
1032,232.85354965833335,232.98914272500002,64.0,67.0
1033,233.10778665833337,233.33871860000002,59.0,79.0
1034,233.10778665833337,233.38744735833336,67.0,74.0
1035,233.36202365833336,233.65015892500003,64.0,70.0
1036,232.34507565833334,233.69465040000003,47.0,67.0
1037,233.61626065833335,233.7539723666667,59.0,79.0
1038,232.09083865833335,233.78363335000003,40.0,81.0
1039,234.12473465833335,234.37473437500003,59.0,79.0
1040,234.12473465833335,234.53151385833334,64.0,80.0
1041,234.63320865833336,234.72431025000003,59.0,35.0
1042,234.88744565833335,234.9870218166667,64.0,78.0
1043,234.88744565833335,234.99337774166668,59.0,71.0
1044,234.37897165833334,235.3217672,47.0,62.0
1045,235.14168265833337,235.37049595833335,59.0,80.0
1046,235.14168265833337,235.4891398916667,64.0,83.0
1047,235.39591965833336,235.49549581666668,59.0,63.0
1048,235.39591965833336,235.64591937500003,69.0,79.0
1049,234.12473465833335,235.87261403333335,40.0,82.0
1050,235.65015665833334,235.88108860000003,59.0,75.0
1051,235.65015665833334,236.0293935166667,64.0,83.0
1052,235.65015665833334,236.06329178333334,71.0,88.0
1053,236.15863065833335,236.48490147500002,57.0,73.0
1054,236.15863065833335,236.71371477500003,62.0,75.0
1055,236.66710465833336,237.13532446666667,57.0,67.0
1056,236.92134165833335,237.33023950000003,62.0,79.0
1057,237.42981565833335,237.57176465000003,65.0,85.0
1058,236.41286765833334,237.87896769166667,45.0,64.0
1059,236.15863065833335,238.06117087500002,38.0,80.0
1060,237.93828965833336,238.07388272500003,57.0,73.0
1061,238.19252665833335,238.48066192500002,57.0,72.0
1062,238.19252665833335,238.6861701666667,62.0,79.0
1063,238.70100065833336,238.80905138333335,57.0,64.0
1064,238.95523765833335,239.16074590000002,57.0,80.0
1065,238.95523765833335,239.28574575833335,65.0,76.0
1066,239.46371165833335,239.6459148416667,57.0,77.0
1067,239.46371165833335,239.70311816666668,62.0,77.0
1068,238.44676365833337,239.8429485166667,45.0,60.0
1069,238.19252665833335,239.8726095,38.0,81.0
1070,240.22642265833335,240.54421890833336,59.0,73.0
1071,240.22642265833335,240.71582888333336,64.0,79.0
1072,240.73489665833335,241.04633698333336,59.0,70.0
1073,240.98913365833334,241.5018449416667,67.0,80.0
1074,240.48065965833337,241.65014985833335,47.0,64.0
1075,240.22642265833335,241.74125145000002,40.0,81.0
1076,241.49760765833335,241.78150564166668,64.0,81.0
1077,241.75184465833337,242.128962875,59.0,72.0
1078,242.00608165833336,242.42133542500002,64.0,76.0
1079,242.76879265833335,242.86836881666667,57.0,67.0
1080,243.02302965833334,243.2115887666667,57.0,79.0
1081,243.02302965833334,243.21582605000003,64.0,81.0
1082,243.53150365833335,243.64802895000003,57.0,71.0
1083,242.51455565833336,243.83446941666668,52.0,70.0
1084,242.26031865833335,243.90014730833335,45.0,80.0
1085,243.53150365833335,244.08023185000002,60.0,73.0
1086,243.78574065833337,244.23912997500003,57.0,68.0
1087,244.29421465833335,244.76667175000003,59.0,75.0
1088,244.80268865833335,245.11624762500003,55.0,75.0
1089,245.05692565833334,245.2454847666667,59.0,79.0
1090,245.31116265833336,245.59929792500003,64.0,88.0
1091,244.54845165833336,245.6395521166667,47.0,65.0
1092,244.29421465833335,245.67980630833335,40.0,81.0
1093,245.56539965833335,245.86836541666668,59.0,81.0
1094,245.81963665833337,246.0336194666667,55.0,79.0
1095,246.32811065833334,246.62260185000002,57.0,73.0
1096,246.32811065833334,246.83870330000002,60.0,74.0
1097,246.58234765833336,247.16073683333335,52.0,72.0
1098,247.09082165833337,247.4192111166667,57.0,75.0
1099,247.09082165833337,247.48700765,64.0,81.0
1100,247.59929565833335,248.00607485833336,57.0,73.0
1101,247.59929565833335,248.0484476916667,60.0,75.0
1102,246.32811065833334,248.19675260833336,45.0,80.0
1103,247.34505865833336,248.2391254416667,52.0,76.0
1104,248.10776965833335,248.37471850833336,59.0,75.0
1105,248.36200665833334,248.63531143333336,57.0,71.0
1106,248.87048065833335,248.97641274166668,57.0,65.0
1107,248.61624365833336,249.22641245833336,52.0,73.0
1108,249.12471765833337,249.45946304166668,57.0,79.0
1109,249.12471765833337,249.51242908333336,64.0,82.0
1110,249.63319165833335,249.76666608333335,57.0,74.0
1111,249.63319165833335,249.97217432500003,60.0,79.0
1112,248.36200665833334,250.1903944166667,45.0,80.0
1113,249.37895465833336,250.19886898333334,52.0,79.0
1114,249.88742865833336,250.44675005833335,57.0,72.0
1115,250.3874280916667,250.66920743333336,52.0,73.0
1116,250.38107216666668,250.92980035833335,59.0,77.0
1117,251.19039328333335,251.53361323333334,55.0,75.0
1118,250.91285122500003,251.55903693333335,52.0,77.0
1119,251.78149430833335,252.2242904166667,55.0,70.0
1120,251.51030817500003,252.2242904166667,59.0,79.0
1121,250.64166509166668,252.3831885416667,47.0,74.0
1122,252.20310400000002,252.412849525,64.0,79.0
1123,250.37895352500001,252.83657785833336,40.0,83.0
1124,252.69462886666668,252.92132352500002,47.0,69.0
1125,253.86835635000003,254.31962702500002,57.0,80.0
1126,254.2391186416667,254.44038960000003,60.0,75.0
1127,253.52937368333335,254.7221689416667,52.0,77.0
1128,254.60140636666668,254.93191446666668,60.0,81.0
1129,254.60140636666668,255.01454149166668,64.0,82.0
1130,254.6077622916667,255.10564308333335,57.0,74.0
1131,253.21793335833337,255.476405375,45.0,82.0
1132,254.97640594166668,255.56962560833335,52.0,83.0
1133,255.37894785833336,255.74759150833336,60.0,71.0
1134,255.38106650000003,255.85776087500003,64.0,79.0
1135,255.79420162500003,255.92555740833336,57.0,68.0
1136,256.0505572666667,256.2158113166667,57.0,64.0
1137,256.124709725,256.28784513333335,60.0,76.0
1138,256.1967435416667,256.3047942666667,45.0,80.0
1139,256.22852316666666,256.3238620416667,64.0,72.0
1140,256.2963197,256.7264039583334,69.0,79.0
1141,257.11411538333334,257.2708948666667,69.0,53.0
1142,257.27936943333333,257.55903013333335,76.0,68.0
1143,257.4658099,257.66708085833335,69.0,68.0
1144,257.65648765000003,257.80902985,81.0,72.0
1145,256.9276749166667,258.81750328333334,64.0,62.0
1146,256.67343791666667,258.8280964916667,57.0,62.0
