,start,end,pitch,velocity
0,26.26716025,26.463725020833333,71.0,88.0
1,26.49616775,26.63357225,70.0,89.0
2,26.72517525,26.866396541666667,71.0,100.0
3,26.95418275,28.3339529375,63.0,90.0
4,28.78624275,28.9064716875,63.0,88.0
5,29.01525025,29.173647104166665,63.0,95.0
6,29.24425775,29.431280541666666,68.0,74.0
7,29.47326525,29.61448654166667,70.0,85.0
8,29.70227275,29.935097041666666,71.0,84.0
9,29.93128025,30.1831885,70.0,85.0
10,30.16028775,30.316776208333334,68.0,84.0
11,30.38929525,30.629753125,70.0,85.0
12,30.61830275,31.7118135625,63.0,84.0
13,32.450362750000004,32.58967564583333,63.0,91.0
14,32.67937025,32.84921747916667,63.0,85.0
15,32.90837775,33.02478989583334,68.0,85.0
16,33.13738525,33.290056916666664,70.0,85.0
17,33.36639275,33.492346875,71.0,85.0
18,33.59540025,33.736621541666665,68.0,85.0
19,33.82440775,33.954178666666664,66.0,84.0
20,34.05341525,34.16410220833333,68.0,88.0
21,34.28242275,35.343490833333334,59.0,88.0
22,36.11448275,36.25570404166667,58.0,91.0
23,36.34349025,36.55150539583333,59.0,91.0
24,36.572497750000004,36.89310825,68.0,88.0
25,37.03051275,37.16600885416667,68.0,86.0
26,37.25952025,37.473260583333335,68.0,87.0
27,37.71753525,37.85303135416667,66.0,80.0
28,37.94654275,38.078222062500004,66.0,85.0
29,38.17555025,38.549595833333335,66.0,86.0
30,38.63356525,38.952267354166665,63.0,91.0
31,39.09158025,40.23661775,61.0,89.0
32,40.92364025,41.12020502083333,71.0,88.0
33,41.15264775,41.29005225,70.0,89.0
34,41.38165525,41.52287654166667,71.0,100.0
35,41.61066275,42.9904329375,63.0,90.0
36,43.44272275,43.562951687500004,63.0,88.0
37,43.67173025,43.830127104166664,63.0,95.0
38,43.90073775,44.08776054166667,68.0,74.0
39,44.12974525,44.27096654166667,70.0,85.0
40,44.35875275,44.59157704166667,71.0,84.0
41,44.58776025,44.59157704166667,71.0,76.0
42,44.58776025,44.88547,73.0,80.0
43,45.04577525,45.18127135416667,73.0,89.0
44,45.27478275,45.404553666666665,73.0,91.0
45,45.50379025,45.85684347916667,73.0,95.0
46,45.96180525,46.11829370833333,73.0,85.0
47,46.19081275,46.582033895833334,71.0,87.0
48,46.64882775,47.47134635416667,70.0,90.0
49,48.02287275,48.221345916666664,59.0,88.0
50,48.25188025,48.57058235416667,66.0,85.0
51,48.70989525,49.57249016666667,68.0,80.0
52,49.62592525,49.72516183333333,71.0,86.0
53,49.85493275,49.990428854166666,71.0,84.0
54,50.08394025,50.48088658333333,70.0,91.0
55,50.54195525,50.916000833333335,68.0,86.0
56,50.99997025,51.3434815,70.0,86.0
57,51.45798525,51.662183604166664,68.0,86.0
58,51.68699275,52.3511145,66.0,85.0
59,52.37401525,54.66218185416667,68.0,85.0
60,55.12210525,55.26714333333334,73.0,101.0
61,55.35111275,55.4827920625,75.0,95.0
62,55.58012025,56.02477647916667,76.0,88.0
63,56.03813525,56.173631354166666,75.0,87.0
64,56.26714275,56.67172266666667,76.0,88.0
65,56.72515775,57.217523875,68.0,89.0
66,57.41218025,57.662180104166666,76.0,90.0
67,57.87019525,57.996149375,76.0,88.0
68,58.09920275,58.232790458333334,76.0,85.0
69,58.32821025,58.553400958333334,76.0,89.0
70,58.55721775,58.78622525,68.0,86.0
71,58.78622525,58.948438895833334,73.0,95.0
72,59.01523275,59.185079979166666,76.0,93.0
73,59.24424025,59.47324775,75.0,90.0
74,59.47324775,59.70225525,75.0,90.0
75,59.70225525,59.82057579166667,75.0,86.0
76,59.93126275,60.066758854166665,73.0,86.0
77,60.16027025,60.61828525,71.0,90.0
78,60.61828525,60.767140125,73.0,91.0
79,60.84729275,62.314849145833335,75.0,91.0
80,62.45034525,62.5591238125,73.0,101.0
81,62.67935275,62.82057404166667,75.0,90.0
82,62.90836025,63.309123375,76.0,87.0
83,63.36637525,63.47897060416667,75.0,90.0
84,63.59538275,63.94080239583333,76.0,89.0
85,64.05339775,64.53240510416667,68.0,88.0
86,64.74042025,65.06103075,76.0,93.0
87,65.19843525,65.312939,76.0,88.0
88,65.42744275,65.55148847916666,76.0,86.0
89,65.65645025,66.19843466666667,80.0,91.0
90,66.34347275,66.47896885416667,80.0,86.0
91,66.57248025,66.9789685625,78.0,86.0
92,67.03049525,69.18125735416666,75.0,91.0
93,69.77858525,69.92362333333334,73.0,101.0
94,70.00759275,70.1392720625,75.0,95.0
95,70.23660025,70.68125647916666,76.0,88.0
96,70.69461525,70.83011135416666,75.0,87.0
97,70.92362275,71.32820266666667,76.0,88.0
98,71.38163775,71.874003875,68.0,89.0
99,72.06866025,72.31866010416667,76.0,90.0
100,72.52667525,72.652629375,76.0,88.0
101,72.75568275,72.88927045833333,76.0,85.0
102,72.98469025,73.20988095833333,76.0,89.0
103,73.21369775,73.44270525,68.0,86.0
104,73.44270525,73.60491889583334,73.0,95.0
105,73.67171275,73.84155997916666,76.0,93.0
106,73.90072025,74.12972775,75.0,90.0
107,74.35873525,74.47705579166667,75.0,86.0
108,74.58774275,74.72323885416667,73.0,86.0
109,75.04575775,75.73278025,71.0,90.0
110,75.73278025,76.07819989583334,73.0,98.0
111,76.19079525,76.34728370833334,73.0,90.0
112,76.41980275,76.78239795833333,71.0,86.0
113,76.87781775,77.38354264583333,70.0,90.0
114,77.56484025,77.93506904166667,71.0,87.0
115,78.02285525,78.1888856875,71.0,85.0
116,78.25186275,78.65453427083334,70.0,88.0
117,78.70987775,79.49041164583333,68.0,88.0
118,79.62590775,79.76140385416667,70.0,78.0
119,79.85491525,79.969419,70.0,82.0
120,80.08392275,80.21751045833334,70.0,85.0
121,80.31293025,80.66598347916667,70.0,89.0
122,80.77094525,80.95224285416667,68.0,88.0
123,80.99995275,81.44842577083334,66.0,85.0
124,81.45796775,84.836417225,68.0,89.0
125,114.24295084166667,114.4395156125,71.0,88.0
126,114.47195834166666,114.60936284166667,70.0,89.0
127,114.70096584166666,114.84218713333334,71.0,100.0
128,114.92997334166667,116.30974352916667,63.0,90.0
129,116.76203334166667,116.88226227916667,63.0,88.0
130,116.99104084166666,117.14943769583333,63.0,95.0
131,117.22004834166667,117.40707113333333,68.0,74.0
132,117.44905584166666,117.59027713333333,70.0,85.0
133,117.67806334166667,117.91088763333333,71.0,84.0
134,117.90707084166667,118.15897909166667,70.0,85.0
135,118.13607834166666,118.2925668,68.0,84.0
136,118.36508584166667,118.60554371666666,70.0,85.0
137,118.59409334166666,119.68760415416666,63.0,84.0
138,120.42615334166666,120.5654662375,63.0,91.0
139,120.65516084166666,120.82500807083333,63.0,85.0
140,120.88416834166667,121.0005804875,68.0,85.0
141,121.11317584166666,121.26584750833334,70.0,85.0
142,121.34218334166667,121.46813746666666,71.0,85.0
143,121.57119084166666,121.71241213333333,68.0,85.0
144,121.80019834166666,121.92996925833333,66.0,84.0
145,122.02920584166667,122.1398928,68.0,88.0
146,122.25821334166666,123.319281425,59.0,88.0
147,124.09027334166666,124.23149463333333,58.0,91.0
148,124.31928084166667,124.5272959875,59.0,91.0
149,124.54828834166666,124.86889884166666,68.0,88.0
150,125.00630334166667,125.14179944583333,68.0,86.0
151,125.23531084166666,125.449051175,68.0,87.0
152,125.4662267375,125.60172284166666,66.0,80.0
153,125.92233334166667,126.05401265416666,66.0,85.0
154,126.15134084166667,126.525386425,66.0,86.0
155,126.60935584166666,126.92805794583333,71.0,91.0
156,126.90515719583334,128.05019469583334,73.0,89.0
157,128.89943084166666,129.0959956125,71.0,88.0
158,129.12843834166665,129.26584284166665,70.0,89.0
159,129.35744584166667,129.49866713333333,71.0,100.0
160,129.58645334166667,130.96622352916665,63.0,90.0
161,131.41851334166665,131.53874227916666,63.0,88.0
162,131.64752084166668,131.80591769583333,63.0,95.0
163,131.87652834166667,132.06355113333333,68.0,74.0
164,132.10553584166666,132.24675713333335,70.0,85.0
165,132.33454334166666,132.56736763333333,71.0,84.0
166,132.56355084166665,132.56736763333333,71.0,76.0
167,132.56355084166665,132.86126059166668,73.0,80.0
168,133.02156584166667,133.15706194583333,73.0,89.0
169,133.25057334166667,133.38034425833334,73.0,91.0
170,133.47958084166666,133.83263407083334,73.0,95.0
171,133.93759584166668,134.0940843,73.0,85.0
172,134.16660334166667,134.5578244875,71.0,87.0
173,134.62461834166666,135.44713694583334,70.0,90.0
174,135.99866334166666,136.19713650833333,59.0,88.0
175,136.22767084166668,136.54637294583333,66.0,85.0
176,136.68568584166667,137.54828075833333,68.0,80.0
177,137.60171584166667,137.700952425,71.0,86.0
178,137.83072334166667,137.96621944583333,71.0,84.0
179,138.05973084166666,138.45667717499998,70.0,91.0
180,138.51774584166668,138.891791425,68.0,86.0
181,138.97576084166667,139.31927209166668,70.0,86.0
182,139.43377584166666,139.63797419583332,68.0,86.0
183,139.66278334166668,140.32690509166667,66.0,85.0
184,140.34980584166667,142.63797244583333,68.0,85.0
185,143.09789584166666,143.242933925,73.0,101.0
186,143.32690334166665,143.45858265416666,75.0,95.0
187,143.55591084166667,144.00056707083334,76.0,88.0
188,144.01392584166666,144.14942194583332,75.0,87.0
189,144.24293334166666,144.64751325833333,76.0,88.0
190,144.70094834166667,145.19331446666666,68.0,89.0
191,145.38797084166666,145.63797069583333,76.0,90.0
192,145.84598584166667,145.97193996666667,76.0,88.0
193,146.07499334166667,146.20858105,76.0,85.0
194,146.30400084166666,146.52919155,76.0,89.0
195,146.53300834166666,146.76201584166665,68.0,86.0
196,146.76201584166665,146.92422948749999,73.0,95.0
197,146.99102334166668,147.16087057083334,76.0,93.0
198,147.22003084166667,147.44903834166666,75.0,90.0
199,147.44903834166666,147.67804584166666,75.0,90.0
200,147.67804584166666,147.79636638333332,75.0,86.0
201,147.90705334166665,148.04254944583334,73.0,86.0
202,148.13606084166668,148.59407584166667,71.0,90.0
203,148.59407584166667,148.74293071666665,73.0,91.0
204,148.82308334166666,150.2906397375,75.0,91.0
205,150.42613584166668,150.53491440416667,73.0,101.0
206,150.65514334166667,150.79636463333333,75.0,90.0
207,150.88415084166667,151.28491396666666,76.0,87.0
208,151.34216584166666,151.45476119583333,75.0,90.0
209,151.57117334166668,151.9165929875,76.0,89.0
210,152.02918834166667,152.50819569583334,68.0,88.0
211,152.71621084166668,153.03682134166667,76.0,93.0
212,153.17422584166667,153.28872959166665,76.0,88.0
213,153.40323334166666,153.52727907083334,76.0,86.0
214,153.63224084166666,154.17422525833334,80.0,91.0
215,154.31926334166667,154.45475944583333,80.0,86.0
216,154.54827084166666,154.95475915416665,78.0,86.0
217,155.00628584166668,157.15704794583334,75.0,91.0
218,157.75437584166667,157.899413925,73.0,101.0
219,157.98338334166667,158.11506265416665,75.0,95.0
220,158.21239084166666,158.65704707083333,76.0,88.0
221,158.67040584166665,158.80590194583334,75.0,87.0
222,158.89941334166667,159.30399325833332,76.0,88.0
223,159.35742834166666,159.84979446666665,68.0,89.0
224,160.04445084166667,160.29445069583335,76.0,90.0
225,160.50246584166666,160.62841996666668,76.0,88.0
226,160.73147334166669,160.86506105,76.0,85.0
227,160.96048084166665,161.18567155,76.0,89.0
228,161.18948834166667,161.41849584166667,68.0,86.0
229,161.41849584166667,161.5807094875,73.0,95.0
230,161.64750334166666,161.81735057083333,76.0,93.0
231,161.8765108416667,162.10551834166665,75.0,90.0
232,162.33452584166668,162.45284638333334,75.0,86.0
233,162.56353334166667,162.69902944583333,73.0,86.0
234,163.02154834166666,163.70857084166667,71.0,90.0
235,163.70857084166667,164.05399048750002,73.0,98.0
236,164.16658584166666,164.3230743,73.0,90.0
237,164.39559334166665,164.75818855,71.0,86.0
238,164.85360834166667,165.35933323749998,70.0,90.0
239,165.54063084166665,165.91085963333333,71.0,87.0
240,165.99864584166667,166.16467627916666,71.0,85.0
241,166.22765334166667,166.6303248625,70.0,88.0
242,166.68566834166666,167.4662022375,68.0,88.0
243,167.60169834166666,167.73719444583332,70.0,78.0
244,167.83070584166666,167.94520959166667,70.0,82.0
245,168.05971334166668,168.19330105,70.0,85.0
246,168.28872084166665,168.64177407083332,70.0,89.0
247,168.74673584166666,168.92803344583334,68.0,88.0
248,168.97574334166666,169.4242163625,66.0,85.0
249,169.43375834166665,171.03681084166666,68.0,89.0
250,172.41085584166666,172.555893925,74.0,101.0
251,172.63986334166668,172.77154265416667,76.0,95.0
252,172.86887084166665,173.31352707083335,77.0,88.0
253,173.32688584166667,173.46238194583333,76.0,87.0
254,173.55589334166666,173.96047325833334,77.0,88.0
255,174.01390834166665,174.50627446666667,69.0,89.0
256,174.70093084166666,174.95093069583334,77.0,90.0
257,175.15894584166665,175.28489996666667,77.0,88.0
258,175.38795334166667,175.52154105,77.0,85.0
259,175.61696084166667,175.84215154999998,77.0,89.0
260,175.84596834166666,176.07497584166669,69.0,86.0
261,176.07497584166669,176.23718948750002,74.0,95.0
262,176.30398334166665,176.47383057083334,77.0,93.0
263,176.53299084166667,176.76199834166667,76.0,90.0
264,176.76199834166667,176.99100584166666,76.0,90.0
265,176.99100584166666,177.10932638333333,76.0,86.0
266,177.2200133416667,177.35550944583332,74.0,86.0
267,177.44902084166665,177.90703584166667,72.0,90.0
268,177.90703584166667,178.05589071666668,74.0,91.0
269,178.13604334166666,179.60359973750002,76.0,91.0
270,179.73909584166665,179.84787440416665,74.0,101.0
271,179.96810334166668,180.10932463333333,76.0,90.0
272,180.19711084166667,180.59787396666667,77.0,87.0
273,180.65512584166666,180.76772119583333,76.0,90.0
274,180.88413334166665,181.2295529875,77.0,89.0
275,181.34214834166667,181.82115569583334,69.0,88.0
276,182.02917084166666,182.34978134166667,77.0,93.0
277,182.48718584166667,182.60168959166668,77.0,88.0
278,182.71619334166667,182.84023907083332,77.0,86.0
279,182.94520084166666,183.48718525833334,81.0,91.0
280,183.63222334166664,183.76771944583334,81.0,86.0
281,183.86123084166667,184.26771915416668,79.0,86.0
282,184.31924584166666,186.47000794583334,76.0,91.0
283,187.06733584166665,187.212373925,74.0,101.0
284,187.29634334166667,187.42802265416668,76.0,95.0
285,187.52535084166666,187.97000707083333,77.0,88.0
286,187.98336584166668,188.11886194583332,76.0,87.0
287,188.21237334166665,188.61695325833335,77.0,88.0
288,188.67038834166667,189.16275446666668,69.0,89.0
289,189.35741084166665,189.60741069583332,77.0,90.0
290,189.81542584166667,189.94137996666666,77.0,88.0
291,190.04443334166666,190.17802104999998,77.0,85.0
292,190.27344084166668,190.49863155,77.0,89.0
293,190.50244834166665,190.73145584166667,69.0,86.0
294,190.73145584166667,190.8936694875,74.0,95.0
295,190.96046334166667,191.13031057083333,77.0,93.0
296,191.18947084166666,191.41847834166668,76.0,90.0
297,191.64748584166665,191.7658063833333,76.0,86.0
298,191.87649334166667,192.01198944583334,74.0,86.0
299,192.33450834166666,193.02153084166667,72.0,90.0
300,193.02153084166667,193.3669504875,74.0,98.0
301,193.47954584166666,193.6360343,74.0,90.0
302,193.7085533416667,194.07114855,72.0,86.0
303,194.16656834166668,194.6722932375,71.0,90.0
304,194.85359084166666,195.22381963333333,72.0,87.0
305,195.31160584166668,195.47763627916666,72.0,85.0
306,195.54061334166667,195.94328486249998,71.0,88.0
307,195.99862834166666,196.7791622375,69.0,88.0
308,196.91465834166667,197.05015444583333,71.0,78.0
309,197.14366584166666,197.25816959166667,71.0,82.0
310,197.37267334166665,197.50626104999998,71.0,85.0
311,197.60168084166668,197.95473407083333,71.0,89.0
312,198.05969584166667,198.24099344583334,69.0,88.0
313,198.28870334166666,198.7371763625,67.0,85.0
314,198.74671834166668,201.49480834166667,69.0,89.0
315,201.75053338333333,201.93373938333332,67.0,84.0
316,202.03297596666667,202.23335752916665,69.0,83.0
317,202.31160175833332,202.79824269583332,74.0,90.0
318,202.82305184166665,203.0425173625,74.0,80.0
319,203.14175394583333,203.5692346125,72.0,83.0
320,203.63984525833334,204.3936616125,71.0,80.0
321,204.4909898,204.69518815416666,71.0,82.0
322,204.777249175,205.18755427916665,71.0,82.0
323,205.2867908625,205.50625638333332,71.0,80.0
324,205.59976777916665,206.05778277916667,69.0,82.0
325,206.07495834166667,206.4146528,67.0,79.0
326,206.53297334166666,208.59404084166667,69.0,84.0
