,start,end,pitch,velocity
0,9.77862025,10.440833604166667,59.0,86.0
1,9.77862025,10.479001520833334,56.0,84.0
2,10.23663525,10.843505125,51.0,76.0
3,9.77862025,10.910298979166667,44.0,87.0
4,10.69465025,11.103046958333334,56.0,88.0
5,10.69465025,11.213733916666667,59.0,101.0
6,11.15266525,11.286252958333334,44.0,83.0
7,10.69465025,11.333962854166666,63.0,93.0
8,11.38167275,11.475184145833333,56.0,85.0
9,11.61068025,12.1660234375,56.0,86.0
10,11.61068025,12.2118249375,52.0,85.0
11,12.06869525,12.708007854166667,47.0,75.0
12,11.61068025,12.7499925625,40.0,84.0
13,12.52671025,12.9904504375,52.0,88.0
14,12.52671025,12.996175625,56.0,91.0
15,12.52671025,13.020984770833333,59.0,88.0
16,12.98472525,13.284343395833334,40.0,85.0
17,13.44274025,14.045793333333334,54.0,84.0
18,13.44274025,14.047701729166667,58.0,85.0
19,13.90075525,14.425564104166666,49.0,72.0
20,14.35877025,14.6106785,54.0,90.0
21,13.44274025,14.631670854166666,42.0,86.0
22,14.35877025,14.667930375,61.0,90.0
23,14.35877025,14.669838770833334,58.0,98.0
24,14.58777775,14.740449416666667,49.0,88.0
25,14.81678525,14.9484645625,42.0,83.0
26,15.27480025,15.757624395833334,56.0,84.0
27,15.27480025,15.816784666666667,61.0,84.0
28,15.73281525,16.2309065625,44.0,68.0
29,16.19083025,16.431288125000002,56.0,84.0
30,16.19083025,16.490448395833333,61.0,90.0
31,15.27480025,16.4942651875,37.0,88.0
32,16.41983775,16.522891125,44.0,85.0
33,16.19083025,16.635486479166666,65.0,88.0
34,16.64884525,16.7576238125,56.0,93.0
35,17.10686025,17.389302833333332,56.0,86.0
36,17.10686025,17.599226375,59.0,88.0
37,17.56487525,17.8225086875,56.0,84.0
38,17.33586775,18.124035229166665,51.0,74.0
39,18.02289025,18.293882458333332,56.0,85.0
40,17.10686025,18.330141979166665,44.0,88.0
41,18.25189775,18.368309895833335,51.0,85.0
42,18.02289025,18.448462520833335,63.0,88.0
43,18.02289025,18.477088458333334,59.0,88.0
44,18.48090525,18.776706604166666,56.0,86.0
45,18.70991275,18.812966125,59.0,79.0
46,18.93892025,19.618309166666666,56.0,86.0
47,18.93892025,19.6431183125,52.0,86.0
48,19.39693525,19.94464485416667,47.0,76.0
49,18.93892025,20.127850854166667,40.0,86.0
50,19.85495025,20.148843208333332,52.0,86.0
51,20.08395775,20.204186687500002,47.0,85.0
52,19.85495025,20.253804979166667,56.0,93.0
53,19.85495025,20.2614385625,59.0,88.0
54,20.31296525,20.459911729166667,40.0,86.0
55,20.755713083333333,21.265254770833334,61.0,84.0
56,20.761438270833334,21.286247125,58.0,80.0
57,20.759529875,21.3034226875,54.0,81.0
58,21.454185958333333,21.683193458333335,54.0,87.0
59,21.448460770833332,21.683193458333335,58.0,87.0
60,21.2232700625,21.725178166666666,49.0,77.0
61,20.7767054375,21.7728880625,42.0,87.0
62,22.156475625,22.2767045625,37.0,90.0
63,22.143116854166667,22.702276833333332,56.0,84.0
64,22.14884204166667,22.7232691875,61.0,84.0
65,22.1507504375,22.7805210625,65.0,84.0
66,23.230902479166666,23.3644901875,56.0,79.0
67,23.65456635416667,23.78052047916667,65.0,87.0
68,23.44845960416667,23.896932625,61.0,85.0
69,23.851131125,23.933192145833335,65.0,62.0
70,23.881665458333334,24.032428729166668,68.0,81.0
71,24.402657520833333,25.498076729166666,49.0,86.0
72,24.410291104166667,25.669832354166665,73.0,84.0
73,24.414107895833332,25.868305520833335,68.0,70.0
74,24.393115541666667,25.879755895833334,65.0,78.0
75,24.3606728125,25.896931458333334,61.0,75.0
76,26.26716025,26.801511083333335,59.0,84.0
77,26.26716025,26.818686645833335,56.0,72.0
78,27.18319025,27.28433522916667,63.0,87.0
79,27.18319025,27.286243625,56.0,84.0
80,26.72517525,27.305327583333334,51.0,80.0
81,26.26716025,27.538151875,44.0,86.0
82,27.87021275,27.98280810416667,59.0,80.0
83,27.87021275,27.988533291666666,63.0,85.0
84,27.87021275,28.011434041666668,56.0,75.0
85,28.32822775,28.492349791666665,56.0,82.0
86,28.55723525,28.719448895833334,51.0,82.0
87,28.78624275,28.885479333333333,56.0,80.0
88,29.01525025,29.437005729166668,56.0,85.0
89,29.01525025,29.440822520833333,59.0,91.0
90,29.01525025,29.47326525,63.0,87.0
91,29.47326525,29.572501833333334,44.0,73.0
92,29.70227275,29.795784145833334,56.0,79.0
93,29.93128025,30.3148678125,54.0,81.0
94,29.93128025,30.322501395833335,58.0,78.0
95,29.93128025,30.927462875,42.0,83.0
96,30.84731025,30.986623145833335,58.0,85.0
97,30.84731025,30.99425672916667,54.0,86.0
98,30.84731025,30.99425672916667,61.0,85.0
99,31.53433275,31.788149395833333,61.0,81.0
100,31.53433275,31.793874583333334,58.0,80.0
101,31.53433275,31.801508166666668,54.0,77.0
102,31.99234775,32.11639347916667,58.0,76.0
103,31.99234775,32.148836208333336,63.0,84.0
104,31.99234775,32.156469791666666,54.0,76.0
105,32.450362750000004,32.561049708333336,54.0,77.0
106,32.22135525,32.77097325,49.0,75.0
107,31.76334025,32.8339503125,42.0,82.0
108,32.67937025,32.973263208333336,54.0,84.0
109,32.90837775,32.98471358333333,49.0,72.0
110,32.67937025,32.9942555625,58.0,84.0
111,33.13738525,33.242347020833336,54.0,80.0
112,33.13738525,33.307232479166665,42.0,83.0
113,33.59540025,34.00761375,56.0,74.0
114,33.59540025,34.057232041666666,52.0,79.0
115,34.511430250000004,34.62402560416667,56.0,80.0
116,34.511430250000004,34.625934,59.0,81.0
117,33.59540025,34.656468333333336,40.0,84.0
118,34.511430250000004,34.66410191666667,52.0,82.0
119,35.19845275,35.3129565,56.0,70.0
120,35.19845275,35.33204045833333,59.0,75.0
121,35.19845275,35.333948854166664,52.0,74.0
122,35.19845275,35.34921602083333,63.0,82.0
123,35.65646775,35.87020808333333,52.0,83.0
124,35.65646775,35.8912004375,56.0,82.0
125,35.65646775,35.90074241666667,59.0,85.0
126,36.11448275,36.21371933333333,52.0,69.0
127,35.88547525,36.47707795833333,47.0,77.0
128,36.34349025,36.547688604166666,56.0,86.0
129,36.34349025,36.5553221875,52.0,85.0
130,35.42746025,36.55913897916667,40.0,79.0
131,36.34349025,36.58203972916667,59.0,86.0
132,36.80150525,36.9446349375,40.0,84.0
133,37.25952025,37.35303164583333,35.0,83.0
134,37.25952025,37.57058877083333,54.0,79.0
135,37.25952025,37.62974904166666,63.0,85.0
136,37.25952025,37.6431078125,59.0,78.0
137,38.17555025,38.41791652083333,54.0,85.0
138,38.17555025,38.41791652083333,59.0,87.0
139,38.17555025,38.44272566666667,63.0,90.0
140,38.40455775,38.5247866875,47.0,75.0
141,38.63356525,38.895015479166666,54.0,84.0
142,39.09158025,39.32058775,54.0,80.0
143,39.09158025,39.354938875,58.0,85.0
144,39.54959525,39.719442479166666,54.0,83.0
145,39.32058775,40.062953729166665,49.0,82.0
146,39.09158025,40.1736406875,42.0,84.0
147,40.00761025,40.20035822916667,61.0,89.0
148,40.00761025,40.202266625,54.0,87.0
149,40.23661775,40.34348791666667,49.0,85.0
150,40.46562525,40.56486183333333,54.0,88.0
151,40.92364025,41.2671515,63.0,85.0
152,40.92364025,41.274785083333335,59.0,84.0
153,40.92364025,41.2843270625,56.0,78.0
154,41.83967025,41.946540416666664,56.0,85.0
155,41.83967025,41.956082395833334,63.0,86.0
156,42.29768525,42.375929479166665,56.0,80.0
157,42.06867775,42.57440264583333,51.0,79.0
158,40.92364025,42.620204145833334,44.0,85.0
159,42.52669275,42.652646875,59.0,90.0
160,42.52669275,42.6812728125,63.0,89.0
161,42.52669275,42.69081479166667,56.0,85.0
162,42.98470775,43.066768770833335,59.0,81.0
163,42.98470775,43.074402354166665,63.0,81.0
164,42.98470775,43.07631075,56.0,77.0
165,43.44272275,43.820585125,51.0,79.0
166,43.67173025,43.866386625,56.0,86.0
167,43.67173025,43.88737897916667,59.0,90.0
168,43.21371525,43.91982170833333,44.0,79.0
169,43.67173025,43.93699727083333,63.0,91.0
170,44.12974525,44.276691729166664,44.0,85.0
171,44.58776025,44.89501197916667,54.0,80.0
172,44.58776025,44.896920375,58.0,82.0
173,45.50379025,45.6469199375,58.0,84.0
174,44.58776025,45.65073672916667,42.0,85.0
175,45.50379025,45.65455352083333,54.0,83.0
176,45.50379025,45.65455352083333,61.0,84.0
177,45.96180525,46.07249220833334,54.0,75.0
178,46.41982025,46.6431025625,54.0,79.0
179,46.41982025,46.65646133333333,61.0,82.0
180,46.41982025,46.660278125,58.0,78.0
181,46.87783525,46.96752985416666,54.0,72.0
182,46.64882775,47.3988273125,49.0,73.0
183,47.33585025,47.635468395833335,54.0,89.0
184,46.41982025,47.63737679166667,42.0,84.0
185,47.33585025,47.669819520833336,58.0,95.0
186,47.56485775,47.675544708333334,49.0,86.0
187,47.33585025,47.83966675,61.0,87.0
188,47.79386525,47.96752927083333,42.0,86.0
189,48.02287275,48.316765708333335,54.0,86.0
190,48.70989525,48.8530249375,52.0,84.0
191,48.25188025,49.316765125,40.0,87.0
192,49.16791025,49.43890245833333,56.0,84.0
193,49.16791025,49.457986416666664,52.0,85.0
194,49.16791025,49.47325358333333,59.0,84.0
195,49.62592525,49.70989466666666,47.0,72.0
196,49.85493275,50.1011158125,56.0,88.0
197,49.85493275,50.118291375,52.0,85.0
198,49.85493275,50.17554325,59.0,85.0
199,50.54195525,50.715619270833336,51.0,88.0
200,50.99997025,51.125924375,54.0,89.0
201,50.31294775,51.13546635416667,46.0,78.0
202,50.99997025,51.1430999375,51.0,89.0
203,50.99997025,51.175542666666665,58.0,86.0
204,50.08394025,51.18126785416667,39.0,81.0
205,51.45798525,51.55722183333334,39.0,87.0
206,51.91600025,52.36447327083334,59.0,82.0
207,51.91600025,52.37210685416667,63.0,85.0
208,51.91600025,52.385465625,56.0,79.0
209,52.83203025,52.92363325,59.0,88.0
210,52.83203025,52.93890041666667,63.0,90.0
211,52.37401525,52.946534,51.0,77.0
212,52.83203025,52.946534,56.0,85.0
213,51.91600025,52.9866103125,44.0,87.0
214,53.51905275,53.791953354166665,56.0,84.0
215,53.51905275,53.79386175,63.0,87.0
216,53.51905275,53.79577014583333,59.0,86.0
217,54.20607525,54.295769854166664,56.0,83.0
218,53.97706775,54.507601791666666,51.0,79.0
219,54.43508275,54.721342125,59.0,95.0
220,54.43508275,54.72897570833334,63.0,93.0
221,54.43508275,54.7327925,56.0,86.0
222,53.74806025,55.06103658333333,44.0,84.0
223,54.66409025,55.07630375,51.0,86.0
224,54.89309775,55.1850823125,56.0,85.0
225,54.89309775,55.255692958333334,59.0,89.0
226,55.12210525,55.26905172916667,47.0,76.0
227,55.35111275,55.41790660416667,59.0,61.0
228,54.89309775,55.44653254166667,63.0,88.0
229,55.35111275,55.5285935625,56.0,87.0
230,55.58012025,55.843478875,64.0,86.0
231,55.58012025,55.887371979166666,61.0,85.0
232,56.03813525,56.13737183333333,64.0,85.0
233,56.03813525,56.148822208333335,61.0,82.0
234,56.03813525,56.15073060416667,68.0,84.0
235,55.80912775,56.37210452083333,44.0,56.0
236,56.26714275,56.48088308333333,68.0,88.0
237,56.26714275,56.51523420833333,64.0,90.0
238,56.26714275,56.52286779166667,61.0,86.0
239,55.58012025,56.6049288125,37.0,93.0
240,56.49615025,56.64691352083334,44.0,84.0
241,56.72515775,56.887371395833334,68.0,88.0
242,56.72515775,56.88927979166667,61.0,87.0
243,56.72515775,56.90073016666667,64.0,89.0
244,57.41218025,57.6125618125,61.0,85.0
245,57.41218025,57.629737375,64.0,86.0
246,57.41218025,57.728973958333334,49.0,87.0
247,57.64118775,57.744241125,56.0,79.0
248,57.87019525,57.97706541666667,61.0,84.0
249,58.09920275,58.427446833333335,64.0,93.0
250,58.09920275,58.431263625,68.0,91.0
251,58.09920275,58.442714,61.0,89.0
252,58.55721775,58.822484770833334,61.0,86.0
253,58.55721775,58.864469479166665,64.0,91.0
254,58.55721775,58.9064541875,68.0,88.0
255,58.78622525,58.915996166666666,37.0,88.0
256,59.01523275,59.11446933333333,64.0,62.0
257,59.01523275,59.26523260416667,61.0,86.0
258,59.70225525,59.80340022916667,56.0,89.0
259,59.47324775,60.032407729166664,51.0,73.0
260,59.93126275,60.11256035416667,59.0,93.0
261,59.93126275,60.1316443125,63.0,90.0
262,59.93126275,60.148819875,56.0,89.0
263,60.38927775,60.5095066875,59.0,87.0
264,60.38927775,60.53431583333333,63.0,86.0
265,60.16027025,60.549583,51.0,81.0
266,60.38927775,60.55149139583333,56.0,84.0
267,59.24424025,60.860651520833336,44.0,93.0
268,60.84729275,61.15454447916667,68.0,85.0
269,60.84729275,61.2995825625,56.0,86.0
270,61.53431525,61.624009854166665,56.0,80.0
271,61.30530775,61.8778265,51.0,76.0
272,61.76332275,61.92171960416667,59.0,91.0
273,61.76332275,61.9408035625,56.0,85.0
274,61.76332275,61.9408035625,63.0,93.0
275,61.99233025,62.324391125,51.0,77.0
276,61.07630025,62.3415666875,44.0,86.0
277,62.22133775,62.354925458333334,56.0,89.0
278,62.22133775,62.364467437500004,68.0,89.0
279,62.90836025,63.15836010416667,61.0,85.0
280,62.90836025,63.164085291666666,64.0,84.0
281,63.36637525,63.423627125,56.0,79.0
282,63.59538275,63.746146020833336,56.0,89.0
283,63.59538275,63.74805441666667,64.0,87.0
284,64.05339775,64.15454272916666,56.0,85.0
285,64.05339775,64.15835952083333,61.0,86.0
286,63.13736775,64.1965274375,44.0,73.0
287,62.90836025,64.29576402083333,37.0,88.0
288,64.51141275,64.843473625,56.0,85.0
289,64.51141275,64.935076625,68.0,86.0
290,65.19843525,65.2728626875,56.0,85.0
291,65.42744275,65.63736629166667,61.0,86.0
292,65.42744275,65.64309147916667,64.0,88.0
293,64.96942775,65.97896914583333,44.0,73.0
294,65.88545775,66.148816375,61.0,87.0
295,65.88545775,66.171717125,64.0,88.0
296,64.74042025,66.20606825,37.0,90.0
297,66.11446525,66.21942702083334,44.0,79.0
298,66.34347275,66.45988489583334,61.0,86.0
299,66.34347275,66.48469404166667,64.0,85.0
300,66.57248025,66.90835791666667,59.0,82.0
301,66.57248025,66.996144125,63.0,86.0
302,67.03049525,67.54957891666666,51.0,74.0
303,67.48851025,67.58202164583334,59.0,93.0
304,67.48851025,67.5972888125,56.0,87.0
305,67.48851025,67.62209795833333,63.0,101.0
306,66.57248025,67.64499870833333,44.0,85.0
307,67.71751775,67.78240320833333,51.0,85.0
308,67.94652525,68.0152275,56.0,84.0
309,68.17553275,68.2900365,59.0,89.0
310,68.17553275,68.29767008333333,56.0,85.0
311,68.40454025,68.62973095833334,56.0,79.0
312,68.40454025,68.66599047916667,59.0,84.0
313,68.86255525,68.9369826875,56.0,72.0
314,68.63354775,69.17553216666667,51.0,83.0
315,69.09156275,69.343471,59.0,95.0
316,69.09156275,69.34728779166667,56.0,86.0
317,69.09156275,69.34728779166667,63.0,93.0
318,68.40454025,69.63163877083333,44.0,86.0
319,69.32057025,69.69461583333333,51.0,85.0
320,69.54957775,69.75950129166667,59.0,90.0
321,69.54957775,69.7728600625,56.0,87.0
322,70.23660025,70.29576052083334,56.0,74.0
323,70.23660025,70.4885085,61.0,86.0
324,70.23660025,70.49805047916666,64.0,85.0
325,70.69461525,70.79385183333333,56.0,84.0
326,70.92362275,71.0782028125,68.0,89.0
327,70.92362275,71.08011120833334,61.0,95.0
328,70.92362275,71.09919516666666,56.0,85.0
329,71.38163775,71.47324075,56.0,85.0
330,71.38163775,71.49423310416667,64.0,85.0
331,70.23660025,71.89308783333334,37.0,93.0
332,70.46560775,71.9026298125,44.0,75.0
333,71.83965275,72.24232427083334,56.0,85.0
334,71.83965275,72.36827839583333,61.0,86.0
335,72.52667525,72.59919429166666,56.0,85.0
336,72.75568275,72.98850704166667,56.0,84.0
337,72.75568275,73.007591,61.0,87.0
338,72.75568275,73.041942125,68.0,84.0
339,72.29766775,73.33774347916666,44.0,71.0
340,72.06866025,73.41026252083333,37.0,89.0
341,73.21369775,73.41407931250001,56.0,85.0
342,73.21369775,73.43507166666667,61.0,85.0
343,73.21369775,73.74423179166666,68.0,85.0
344,73.90072025,74.18888802083333,68.0,85.0
345,74.35873525,74.4675138125,56.0,84.0
346,74.58774275,74.81484185416667,59.0,89.0
347,74.58774275,74.84919297916667,56.0,85.0
348,75.04575775,75.15644470833334,56.0,80.0
349,75.04575775,75.15835310416666,59.0,84.0
350,75.04575775,75.1659866875,63.0,85.0
351,74.12972775,75.62781847916666,51.0,73.0
352,73.90072025,75.629726875,44.0,88.0
353,75.73278025,75.99423047916666,54.0,85.0
354,75.73278025,76.29194022916667,66.0,84.0
355,76.19079525,76.32056616666667,54.0,85.0
356,76.41980275,76.44652029166667,66.0,69.0
357,76.41980275,76.73850485416666,54.0,91.0
358,76.41980275,76.74423004166667,61.0,88.0
359,75.96178775,77.0667489375,49.0,77.0
360,76.87781775,77.07056572916667,54.0,87.0
361,76.87781775,77.129726,66.0,85.0
362,75.73278025,77.141176375,42.0,85.0
363,77.56484025,77.83201566666666,52.0,84.0
364,77.56484025,77.92934385416666,59.0,86.0
365,78.25186275,78.4865954375,56.0,80.0
366,78.02285525,78.503771,52.0,82.0
367,77.79384775,78.83201508333333,47.0,80.0
368,78.70987775,78.84537385416667,52.0,87.0
369,78.70987775,78.86636620833333,64.0,85.0
370,77.56484025,78.8873585625,40.0,85.0
371,79.39690025,79.8835411875,51.0,80.0
372,79.39690025,79.90835033333333,58.0,84.0
373,79.85491525,80.209876875,46.0,78.0
374,80.08392275,80.62018197916667,51.0,89.0
375,79.39690025,80.69460941666667,39.0,86.0
376,80.54193775,80.71178497916667,46.0,85.0
377,80.08392275,80.83201391666667,58.0,85.0
378,80.77094525,81.09537254166666,51.0,90.0
379,80.99995275,81.29384570833334,58.0,85.0
380,81.68748968333333,81.77745904166666,56.0,83.0
381,81.91719868333334,82.12202254166667,63.0,89.0
382,81.91719868333334,82.137336475,56.0,86.0
383,82.37661668333334,82.4876427,56.0,84.0
384,82.14499344166667,82.53741298333333,68.0,80.0
385,82.37661668333334,82.53741298333333,68.0,85.0
386,82.14499344166667,82.59101174999999,75.0,80.0
387,82.14499344166667,82.71543745833333,71.0,80.0
388,81.22896025,82.93174676666666,44.0,86.0
389,81.45796775,82.94323221666667,51.0,75.0
390,82.82454923333333,83.10020003333334,68.0,87.0
391,82.82454923333333,83.12125669166666,75.0,87.0
392,82.82454923333333,83.14231335,71.0,87.0
393,83.06574368333334,83.14231335,71.0,84.0
394,83.06574368333334,83.27822450833334,63.0,86.0
395,83.28970995833333,83.32225206666666,71.0,86.0
396,83.52516168333334,83.60364559166666,63.0,84.0
397,83.28970995833333,83.641930425,68.0,86.0
398,83.28970995833333,83.68404374166667,75.0,86.0
399,83.75487068333334,83.87929639166667,63.0,86.0
400,83.75487068333334,83.88503911666666,70.0,88.0
401,83.29545268333334,84.26980169166667,51.0,86.0
402,84.21428868333334,84.4401692,63.0,88.0
403,83.9577803,84.45931161666667,68.0,89.0
404,84.21428868333334,84.45931161666667,68.0,85.0
405,83.9577803,84.47079706666666,75.0,89.0
406,83.9577803,84.480368275,71.0,89.0
407,84.67370668333334,84.79430390833333,63.0,85.0
408,83.06574368333334,84.84407419166666,44.0,86.0
409,84.44399768333334,84.90150144166667,51.0,86.0
410,84.90341568333334,85.11972499166667,52.0,85.0
411,84.90341568333334,85.43557486666667,59.0,87.0
412,85.13312468333334,85.64231296666667,47.0,78.0
413,84.90341568333334,85.64996993333334,40.0,87.0
414,85.36283368333333,85.90264983333333,52.0,85.0
415,85.59254268333333,85.93136345833334,56.0,80.0
416,85.82225168333333,86.25678454166666,59.0,83.0
417,85.82225168333333,86.50372171666666,40.0,85.0
418,86.05196068333333,86.79851493333334,52.0,79.0
419,86.51137868333333,86.8061719,59.0,80.0
420,86.28166968333333,86.84828521666667,56.0,79.0
421,86.74108768333333,87.33067411666667,64.0,86.0
422,86.74108768333333,87.55081190833333,40.0,86.0
423,87.43021468333333,87.61206764166667,59.0,78.0
424,86.97079668333333,87.730750625,52.0,85.0
425,87.20050568333333,87.76329273333333,56.0,80.0
426,87.65992368333333,88.37010734166667,40.0,86.0
427,87.88963268333333,88.373935825,52.0,86.0
428,88.11934168333333,88.41030641666667,56.0,83.0
429,87.65992368333333,88.47156215,64.0,85.0
430,88.34905068333333,88.51367546666667,59.0,75.0
431,88.57875968333333,89.31765696666666,42.0,86.0
432,88.57875968333333,89.327228175,54.0,85.0
433,88.80846868333333,89.43633995,58.0,84.0
434,89.03817768333333,89.740704375,61.0,76.0
435,89.26788668333333,89.82684525,66.0,84.0
436,89.49759568333333,90.26520659166667,54.0,89.0
437,89.72730468333333,90.28243476666667,58.0,83.0
438,89.95701368333333,90.292005975,61.0,82.0
439,89.49759568333333,90.30157718333334,42.0,85.0
440,90.18672268333333,90.30923415,66.0,85.0
441,90.41643168333333,90.45471651666666,58.0,76.0
442,90.41643168333333,90.70165369166666,54.0,84.0
443,90.41643168333333,90.91030603333333,66.0,84.0
444,90.41643168333333,91.16298593333333,42.0,85.0
445,90.64614068333333,91.176385625,61.0,86.0
446,90.87584968333333,91.1936138,58.0,85.0
447,91.10555868333333,91.27209770833333,54.0,86.0
448,91.33526768333333,91.60326151666666,54.0,77.0
449,91.33526768333333,91.84062748333334,61.0,89.0
450,91.56497668333333,91.86359838333334,58.0,84.0
451,91.33526768333333,91.88082655833333,42.0,86.0
452,91.79468568333333,91.94973925833334,54.0,86.0
453,92.25410368333334,92.40150029166666,52.0,84.0
454,92.25410368333334,92.53741145000001,56.0,79.0
455,92.25410368333334,93.06765639166667,40.0,85.0
456,92.48381268333333,93.186339375,52.0,84.0
457,92.94323068333333,93.24759510833333,59.0,84.0
458,92.71352168333334,93.255252075,56.0,81.0
459,93.40264868333334,93.685710925,59.0,89.0
460,93.17293968333334,93.70479488333334,40.0,85.0
461,93.17293968333334,93.71242846666667,64.0,85.0
462,93.63227584166667,93.90708484166666,56.0,84.0
463,93.86128334166666,93.97006190416667,52.0,85.0
464,94.09029084166667,94.23151213333333,54.0,84.0
465,94.09029084166667,94.38227540416666,58.0,85.0
466,94.09029084166667,94.81548125833334,42.0,86.0
467,94.31929834166667,94.89754227916667,54.0,87.0
468,94.54830584166666,94.91090104999999,58.0,82.0
469,94.77731334166667,95.02158800833334,61.0,82.0
470,95.00632084166666,95.48151140416667,66.0,85.0
471,95.00632084166666,95.4834198,42.0,86.0
472,95.23532834166666,95.55021365416667,61.0,85.0
473,95.46433584166667,95.69143494583334,58.0,86.0
474,95.69334334166666,95.8040303,54.0,86.0
475,95.92235084166667,96.01395384166666,35.0,84.0
476,95.92235084166667,96.0387629875,54.0,87.0
477,95.92235084166667,96.18952625833333,59.0,88.0
478,96.15135834166666,96.50059477916666,54.0,80.0
479,96.38036584166666,96.64754125833333,59.0,84.0
480,96.60937334166667,96.65135805,54.0,68.0
481,96.60937334166667,96.92998384166667,61.0,93.0
482,96.83838084166666,97.0921974875,59.0,85.0
483,97.06738834166667,97.37654846666666,54.0,89.0
484,96.83838084166666,97.59792238333333,47.0,77.0
485,97.29639584166667,97.6303651125,59.0,88.0
486,97.52540334166666,97.65517425833333,61.0,80.0
487,97.75441084166667,97.87845657083334,54.0,85.0
488,97.75441084166667,98.00441069583333,59.0,85.0
489,97.75441084166667,98.14754038333334,63.0,93.0
490,97.98341834166666,98.27921969583333,54.0,86.0
491,98.21242584166666,98.34219675833333,59.0,86.0
492,97.75441084166667,98.5349447375,47.0,85.0
493,98.44143334166667,98.7181507375,54.0,85.0
494,98.44143334166667,98.7353263,63.0,93.0
495,98.67044084166666,98.98341775833333,47.0,90.0
496,98.89944834166667,99.05402840416667,54.0,85.0
497,99.12845584166666,99.20288327916667,47.0,89.0
498,98.89944834166667,99.20860846666666,59.0,87.0
499,99.12845584166666,99.28112750833333,54.0,88.0
500,99.58647084166667,99.7601348625,52.0,75.0
501,99.58647084166667,99.8975393625,56.0,76.0
502,100.04448584166667,100.38608869583334,56.0,82.0
503,100.27349334166666,100.54257715416666,59.0,78.0
504,100.50250084166666,100.5673863,56.0,41.0
505,99.81547834166666,100.74295871666666,52.0,85.0
506,100.50250084166666,101.2601339875,47.0,84.0
507,100.96051584166666,101.265859175,56.0,82.0
508,100.73150834166667,101.27730955,59.0,86.0
509,99.58647084166667,101.29257671666666,40.0,87.0
510,101.18952334166667,101.35937057083333,52.0,84.0
511,100.50250084166666,101.36891255,64.0,86.0
512,101.41853084166667,101.53685138333333,52.0,77.0
513,101.41853084166667,101.70860700833333,56.0,86.0
514,101.41853084166667,101.89944659166666,59.0,86.0
515,101.64753834166666,102.10555334166666,52.0,82.0
516,101.87654584166667,102.1761639875,56.0,81.0
517,101.41853084166667,102.22005709166666,40.0,86.0
518,101.41853084166667,102.24486623749999,64.0,71.0
519,102.10555334166666,102.24868302916667,59.0,85.0
520,102.33456084166667,102.59601107083333,54.0,80.0
521,102.33456084166667,102.76967509166667,58.0,86.0
522,102.79257584166666,103.09410238333334,54.0,93.0
523,102.33456084166667,103.13036190416666,42.0,88.0
524,103.02158334166667,103.15326265416667,58.0,90.0
525,102.56356834166667,103.1780718,49.0,86.0
526,103.25059084166666,103.4528808,56.0,80.0
527,103.25059084166666,103.67616311249999,59.0,89.0
528,103.93761334166666,104.29066657083334,59.0,88.0
529,103.70860584166667,104.41852909166667,56.0,90.0
530,104.16662084166667,104.44142984166666,68.0,95.0
531,104.39562834166667,104.66280375833333,63.0,88.0
532,104.62463584166666,104.82501740416666,59.0,88.0
533,103.25059084166666,104.90326163333333,44.0,87.0
534,103.47959834166667,104.95478832083333,51.0,80.0
535,104.85364334166667,105.01204019583334,56.0,85.0
536,105.08265084166666,105.28112400833334,56.0,80.0
537,105.08265084166666,105.62081846666666,59.0,93.0
538,105.08265084166666,105.63799402916666,63.0,89.0
539,105.54066584166667,105.87654350833333,56.0,85.0
540,105.76967334166666,105.89562746666667,63.0,85.0
541,105.76967334166666,105.90135265416666,59.0,81.0
542,105.08265084166666,105.91852821666666,44.0,86.0
543,105.31165834166666,105.9261618,51.0,78.0
544,105.99868084166667,106.36890963333333,54.0,84.0
545,105.99868084166667,106.41661952916667,58.0,83.0
546,105.99868084166667,106.69715371666666,42.0,91.0
547,106.45669584166666,106.74104682083333,54.0,93.0
548,106.45669584166666,106.78684832083333,49.0,90.0
549,106.91471084166666,107.13226796666666,52.0,83.0
550,106.91471084166666,107.30784038333333,56.0,81.0
551,107.60173334166666,107.952878175,56.0,75.0
552,107.37272584166666,108.05974834166666,52.0,86.0
553,107.14371834166667,108.25058792499999,47.0,79.0
554,107.83074084166667,108.2906642375,64.0,90.0
555,106.91471084166666,108.32119857083333,40.0,85.0
556,108.05974834166666,108.37272525833333,59.0,85.0
557,108.28875584166667,108.56356484166666,56.0,81.0
558,108.51776334166667,108.63799227916667,52.0,82.0
559,108.74677084166666,108.9204348625,52.0,79.0
560,108.74677084166666,109.22196140416666,56.0,83.0
561,109.20478584166666,109.5444803,52.0,86.0
562,109.43379334166667,109.58837340416666,56.0,79.0
563,108.97577834166667,109.8250144875,44.0,78.0
564,109.66280084166667,109.830739675,56.0,85.0
565,109.66280084166667,109.83455646666667,52.0,82.0
566,108.74677084166666,110.03875482083333,37.0,86.0
567,109.66280084166667,110.05593038333333,61.0,87.0
568,109.89180834166666,110.14371659166666,56.0,84.0
569,110.12081584166667,110.174250925,61.0,51.0
570,110.12081584166667,110.25631194583333,52.0,85.0
571,110.57883084166667,110.85745663333333,51.0,86.0
572,110.57883084166667,110.85936502916667,58.0,84.0
573,110.57883084166667,110.86127342500001,55.0,84.0
574,111.03684584166666,111.20860146666666,51.0,69.0
575,111.03684584166666,111.24104419583333,55.0,73.0
576,111.03684584166666,111.250586175,58.0,73.0
577,111.49486084166666,111.62081496666667,51.0,91.0
578,111.49486084166666,111.66470807083333,63.0,89.0
579,110.57883084166667,111.79066219583333,39.0,90.0
580,111.72386834166667,111.8860819875,46.0,84.0
581,111.95287584166667,112.05211242499999,51.0,88.0
582,112.18188334166666,112.487226675,51.0,70.0
583,112.18188334166666,112.62844796666667,55.0,85.0
584,112.18188334166666,112.70860059166667,58.0,85.0
585,112.86890584166667,112.95860044583333,51.0,90.0
586,112.63989834166667,113.14562323749999,46.0,81.0
587,113.09791334166667,113.35554677916667,63.0,91.0
588,113.09791334166667,113.37272234166667,55.0,93.0
589,113.09791334166667,113.37844752916666,51.0,95.0
590,113.09791334166667,113.38226432083333,58.0,91.0
591,113.32692084166666,113.632264175,46.0,89.0
592,113.55592834166666,113.64371455,51.0,91.0
593,112.41089084166666,113.73913434166667,39.0,93.0
594,113.55592834166666,113.8097449875,55.0,98.0
595,113.55592834166666,113.81356177916666,58.0,93.0
596,113.55592834166666,113.82501215416667,63.0,90.0
597,113.78493584166667,113.9013479875,46.0,85.0
598,114.01394334166666,114.13798907083333,51.0,89.0
599,114.24295084166667,114.77730167499999,59.0,84.0
600,114.24295084166667,114.79447723749999,56.0,72.0
601,115.15898084166666,115.26012582083334,63.0,87.0
602,115.15898084166666,115.26203421666666,56.0,84.0
603,114.70096584166666,115.281118175,51.0,80.0
604,114.24295084166667,115.51394246666666,44.0,86.0
605,115.84600334166666,115.95859869583333,59.0,80.0
606,115.84600334166666,115.96432388333334,63.0,85.0
607,115.84600334166666,115.98722463333333,56.0,75.0
608,116.30401834166666,116.46814038333333,56.0,82.0
609,116.53302584166667,116.6952394875,51.0,82.0
610,116.76203334166667,116.861269925,56.0,80.0
611,116.99104084166666,117.41279632083334,56.0,85.0
612,116.99104084166666,117.4166131125,59.0,91.0
613,116.99104084166666,117.44905584166666,63.0,87.0
614,117.44905584166666,117.548292425,44.0,73.0
615,117.67806334166667,117.7715747375,56.0,79.0
616,117.90707084166667,118.29065840416666,54.0,81.0
617,117.90707084166667,118.2982919875,58.0,78.0
618,117.90707084166667,118.90325346666667,42.0,83.0
619,118.82310084166667,118.9624137375,58.0,85.0
620,118.82310084166667,118.97004732083333,54.0,86.0
621,118.82310084166667,118.97004732083333,61.0,85.0
622,119.51012334166667,119.7639399875,61.0,81.0
623,119.51012334166667,119.769665175,58.0,80.0
624,119.51012334166667,119.77729875833333,54.0,77.0
625,119.96813834166667,120.09218407083333,58.0,76.0
626,119.96813834166667,120.1246268,63.0,84.0
627,119.96813834166667,120.13226038333333,54.0,76.0
628,120.42615334166666,120.5368403,54.0,77.0
629,120.19714584166667,120.74676384166666,49.0,75.0
630,119.73913084166666,120.80974090416666,42.0,82.0
631,120.65516084166666,120.9490538,54.0,84.0
632,120.88416834166667,120.960504175,49.0,72.0
633,120.65516084166666,120.97004615416667,58.0,84.0
634,121.11317584166666,121.2181376125,54.0,80.0
635,121.11317584166666,121.28302307083334,42.0,83.0
636,121.57119084166666,121.98340434166667,56.0,74.0
637,121.57119084166666,122.03302263333333,52.0,79.0
638,122.48722084166667,122.59981619583333,56.0,80.0
639,122.48722084166667,122.60172459166667,59.0,81.0
640,121.57119084166666,122.632258925,40.0,84.0
641,122.48722084166667,122.63989250833333,52.0,82.0
642,123.17424334166667,123.28874709166666,56.0,70.0
643,123.17424334166667,123.30783105,59.0,75.0
644,123.17424334166667,123.30973944583333,52.0,74.0
645,123.17424334166667,123.3250066125,63.0,82.0
646,123.63225834166667,123.845998675,52.0,83.0
647,123.63225834166667,123.86699102916667,56.0,82.0
648,123.63225834166667,123.87653300833333,59.0,85.0
649,124.09027334166666,124.189509925,52.0,69.0
650,123.86126584166666,124.45286855,47.0,77.0
651,124.31928084166667,124.52347919583333,56.0,86.0
652,124.31928084166667,124.53111277916666,52.0,85.0
653,123.40325084166666,124.53492957083333,40.0,79.0
654,124.31928084166667,124.55783032083333,59.0,86.0
655,124.77729584166667,124.92042552916666,40.0,84.0
656,125.23531084166666,125.32882223749999,35.0,83.0
657,125.23531084166666,125.5463793625,54.0,79.0
658,125.23531084166666,125.60553963333334,63.0,85.0
659,125.23531084166666,125.61889840416666,59.0,78.0
660,126.15134084166667,126.3937071125,54.0,85.0
661,126.15134084166667,126.3937071125,59.0,87.0
662,126.15134084166667,126.41851625833334,63.0,90.0
663,126.38034834166666,126.50057727916666,47.0,75.0
664,126.60935584166666,126.87080607083334,54.0,84.0
665,127.06737084166667,127.29637834166667,54.0,80.0
666,127.06737084166667,127.33072946666667,58.0,85.0
667,127.52538584166666,127.69523307083332,54.0,83.0
668,127.29637834166667,128.03874432083333,49.0,82.0
669,127.06737084166667,128.14943127916666,42.0,84.0
670,127.98340084166666,128.17614882083333,61.0,89.0
671,127.98340084166666,128.17805721666667,54.0,87.0
672,128.21240834166667,128.31927850833333,49.0,85.0
673,128.44141584166667,128.540652425,54.0,88.0
674,128.89943084166666,129.24294209166666,63.0,85.0
675,128.89943084166666,129.250575675,59.0,84.0
676,128.89943084166666,129.26011765416666,56.0,78.0
677,129.81546084166666,129.92233100833334,56.0,85.0
678,129.81546084166666,129.93187298750001,63.0,86.0
679,130.27347584166665,130.35172007083332,56.0,80.0
680,130.04446834166666,130.5501932375,51.0,79.0
681,128.89943084166666,130.5959947375,44.0,85.0
682,130.50248334166668,130.62843746666667,59.0,90.0
683,130.50248334166668,130.65706340416665,63.0,89.0
684,130.50248334166668,130.66660538333332,56.0,85.0
685,130.96049834166666,131.04255936250001,59.0,81.0
686,130.96049834166666,131.05019294583332,63.0,81.0
687,130.96049834166666,131.05210134166666,56.0,77.0
688,131.41851334166665,131.79637571666666,51.0,79.0
689,131.64752084166668,131.84217721666667,56.0,86.0
690,131.64752084166668,131.86316957083335,59.0,90.0
691,131.18950584166666,131.89561229999998,44.0,79.0
692,131.64752084166668,131.9127878625,63.0,91.0
693,132.10553584166666,132.25248232083334,44.0,85.0
694,132.56355084166665,132.87080257083335,54.0,80.0
695,132.56355084166665,132.87271096666666,58.0,82.0
696,133.47958084166666,133.62271052916668,58.0,84.0
697,132.56355084166665,133.62652732083333,42.0,85.0
698,133.47958084166666,133.63034411249998,54.0,83.0
699,133.47958084166666,133.63034411249998,61.0,84.0
700,133.93759584166668,134.04828279999998,54.0,75.0
701,134.39561084166667,134.61889315416667,54.0,79.0
702,134.39561084166667,134.632251925,61.0,82.0
703,134.39561084166667,134.63606871666667,58.0,78.0
704,134.85362584166666,134.94332044583334,54.0,72.0
705,134.62461834166666,135.37461790416666,49.0,73.0
706,135.31164084166667,135.6112589875,54.0,89.0
707,134.39561084166667,135.61316738333335,42.0,84.0
708,135.31164084166667,135.6456101125,58.0,95.0
709,135.54064834166667,135.6513353,49.0,86.0
710,135.31164084166667,135.81545734166667,61.0,87.0
711,135.76965584166666,135.9433198625,42.0,86.0
712,135.99866334166666,136.2925563,54.0,86.0
713,136.68568584166667,136.82881552916666,52.0,84.0
714,136.22767084166668,137.29255571666667,40.0,87.0
715,137.14370084166666,137.41469304999998,56.0,84.0
716,137.14370084166666,137.43377700833332,52.0,85.0
717,137.14370084166666,137.44904417499998,59.0,84.0
718,137.60171584166667,137.68568525833334,47.0,72.0
719,137.83072334166667,138.07690640416666,56.0,88.0
720,137.83072334166667,138.09408196666666,52.0,85.0
721,137.83072334166667,138.15133384166666,59.0,85.0
722,138.51774584166668,138.6914098625,51.0,88.0
723,138.97576084166667,139.10171496666666,54.0,89.0
724,138.28873834166666,139.11125694583333,46.0,78.0
725,138.97576084166667,139.11889052916666,51.0,89.0
726,138.97576084166667,139.15133325833332,58.0,86.0
727,138.05973084166666,139.15705844583334,39.0,81.0
728,139.43377584166666,139.53301242499998,39.0,87.0
729,139.89179084166665,140.3402638625,59.0,82.0
730,139.89179084166665,140.34789744583333,63.0,85.0
731,139.89179084166665,140.36125621666667,56.0,79.0
732,140.80782084166668,140.89942384166667,59.0,88.0
733,140.80782084166668,140.91469100833334,63.0,90.0
734,140.34980584166667,140.92232459166667,51.0,77.0
735,140.80782084166668,140.92232459166667,56.0,85.0
736,139.89179084166665,140.96240090416666,44.0,87.0
737,141.49484334166667,141.76774394583333,56.0,84.0
738,141.49484334166667,141.76965234166667,63.0,87.0
739,141.49484334166667,141.7715607375,59.0,86.0
740,142.18186584166665,142.27156044583333,56.0,83.0
741,141.95285834166665,142.48339238333332,51.0,79.0
742,142.41087334166667,142.69713271666666,59.0,95.0
743,142.41087334166667,142.7047663,63.0,93.0
744,142.41087334166667,142.70858309166667,56.0,86.0
745,141.72385084166666,143.03682717499998,44.0,84.0
746,142.63988084166667,143.05209434166667,51.0,86.0
747,142.86888834166666,143.16087290416667,56.0,85.0
748,142.86888834166666,143.23148355,59.0,89.0
749,143.09789584166666,143.24484232083333,47.0,76.0
750,143.32690334166665,143.39369719583334,59.0,61.0
751,142.86888834166666,143.42232313333332,63.0,88.0
752,143.32690334166665,143.50438415416667,56.0,87.0
753,143.55591084166667,143.81926946666667,64.0,86.0
754,143.55591084166667,143.86316257083334,61.0,85.0
755,144.01392584166666,144.11316242499998,64.0,85.0
756,144.01392584166666,144.1246128,61.0,82.0
757,144.01392584166666,144.12652119583333,68.0,84.0
758,143.78491834166667,144.3478951125,44.0,56.0
759,144.24293334166666,144.456673675,68.0,88.0
760,144.24293334166666,144.4910248,64.0,90.0
761,144.24293334166666,144.49865838333332,61.0,86.0
762,143.55591084166667,144.58071940416667,37.0,93.0
763,144.47194084166665,144.6227041125,44.0,84.0
764,144.70094834166667,144.8631619875,68.0,88.0
765,144.70094834166667,144.86507038333332,61.0,87.0
766,144.70094834166667,144.87652075833333,64.0,89.0
767,145.38797084166666,145.58835240416667,61.0,85.0
768,145.38797084166666,145.60552796666667,64.0,86.0
769,145.38797084166666,145.70476455,49.0,87.0
770,145.61697834166665,145.72003171666665,56.0,79.0
771,145.84598584166667,145.95285600833333,61.0,84.0
772,146.07499334166667,146.403237425,64.0,93.0
773,146.07499334166667,146.40705421666667,68.0,91.0
774,146.07499334166667,146.41850459166668,61.0,89.0
775,146.53300834166666,146.7982753625,61.0,86.0
776,146.53300834166666,146.84026007083332,64.0,91.0
777,146.53300834166666,146.88224477916665,68.0,88.0
778,146.76201584166665,146.89178675833332,37.0,88.0
779,146.99102334166668,147.090259925,64.0,62.0
780,146.99102334166668,147.24102319583335,61.0,86.0
781,147.67804584166666,147.77919082083332,56.0,89.0
782,147.44903834166666,148.00819832083334,51.0,73.0
783,147.90705334166665,148.08835094583333,59.0,93.0
784,147.90705334166665,148.10743490416667,63.0,90.0
785,147.90705334166665,148.12461046666667,56.0,89.0
786,148.36506834166667,148.48529727916667,59.0,87.0
787,148.36506834166667,148.510106425,63.0,86.0
788,148.13606084166668,148.52537359166666,51.0,81.0
789,148.36506834166667,148.5272819875,56.0,84.0
790,147.22003084166667,148.8364421125,44.0,93.0
791,148.82308334166666,149.13033507083333,68.0,85.0
792,148.82308334166666,149.27537315416666,56.0,86.0
793,149.51010584166667,149.59980044583332,56.0,80.0
794,149.28109834166668,149.85361709166665,51.0,76.0
795,149.73911334166667,149.89751019583332,59.0,91.0
796,149.73911334166667,149.91659415416666,56.0,85.0
797,149.73911334166667,149.91659415416666,63.0,93.0
798,149.96812084166666,150.30018171666666,51.0,77.0
799,149.05209084166665,150.31735727916666,44.0,86.0
800,150.19712834166666,150.33071605,56.0,89.0
801,150.19712834166666,150.34025802916665,68.0,89.0
802,150.88415084166667,151.13415069583334,61.0,85.0
803,150.88415084166667,151.13987588333333,64.0,84.0
804,151.34216584166666,151.39941771666668,56.0,79.0
805,151.57117334166668,151.7219366125,56.0,89.0
806,151.57117334166668,151.72384500833334,64.0,87.0
807,152.02918834166667,152.13033332083333,56.0,85.0
808,152.02918834166667,152.1341501125,61.0,86.0
809,151.11315834166666,152.17231802916666,44.0,73.0
810,150.88415084166667,152.27155461249998,37.0,88.0
811,152.48720334166666,152.81926421666668,56.0,85.0
812,152.48720334166666,152.91086721666667,68.0,86.0
813,153.17422584166667,153.24865327916666,56.0,85.0
814,153.40323334166666,153.61315688333332,61.0,86.0
815,153.40323334166666,153.61888207083334,64.0,88.0
816,152.94521834166667,153.9547597375,44.0,73.0
817,153.86124834166668,154.12460696666668,61.0,87.0
818,153.86124834166668,154.14750771666667,64.0,88.0
819,152.71621084166668,154.18185884166667,37.0,90.0
820,154.09025584166667,154.19521761250002,44.0,79.0
821,154.31926334166667,154.4356754875,61.0,86.0
822,154.31926334166667,154.46048463333332,64.0,85.0
823,154.54827084166666,154.88414850833334,59.0,82.0
824,154.54827084166666,154.97193471666668,63.0,86.0
825,155.00628584166668,155.52536950833334,51.0,74.0
826,155.46430084166667,155.5578122375,59.0,93.0
827,155.46430084166667,155.57307940416666,56.0,87.0
828,155.46430084166667,155.59788855,63.0,101.0
829,154.54827084166666,155.6207893,44.0,85.0
830,155.69330834166666,155.75819380000002,51.0,85.0
831,155.92231584166666,155.99101809166666,56.0,84.0
832,156.15132334166668,156.26582709166667,59.0,89.0
833,156.15132334166668,156.273460675,56.0,85.0
834,156.38033084166665,156.60552155,56.0,79.0
835,156.38033084166665,156.64178107083333,59.0,84.0
836,156.83834584166667,156.91277327916666,56.0,72.0
837,156.60933834166667,157.15132275833332,51.0,83.0
838,157.06735334166666,157.31926159166667,59.0,95.0
839,157.06735334166666,157.32307838333332,56.0,86.0
840,157.06735334166666,157.32307838333332,63.0,93.0
841,156.38033084166665,157.6074293625,44.0,86.0
842,157.29636084166668,157.670406425,51.0,85.0
843,157.52536834166665,157.73529188333333,59.0,90.0
844,157.52536834166665,157.74865065416668,56.0,87.0
845,158.21239084166666,158.2715511125,56.0,74.0
846,158.21239084166666,158.46429909166665,61.0,86.0
847,158.21239084166666,158.47384107083332,64.0,85.0
848,158.67040584166665,158.769642425,56.0,84.0
849,158.89941334166667,159.05399340416665,68.0,89.0
850,158.89941334166667,159.05590180000002,61.0,95.0
851,158.89941334166667,159.07498575833333,56.0,85.0
852,159.35742834166666,159.44903134166668,56.0,85.0
853,159.35742834166666,159.47002369583333,64.0,85.0
854,158.21239084166666,159.868878425,37.0,93.0
855,158.44139834166668,159.87842040416666,44.0,75.0
856,159.81544334166665,160.2181148625,56.0,85.0
857,159.81544334166665,160.3440689875,61.0,86.0
858,160.50246584166666,160.57498488333334,56.0,85.0
859,160.73147334166669,160.96429763333333,56.0,84.0
860,160.73147334166669,160.98338159166667,61.0,87.0
861,160.73147334166669,161.01773271666667,68.0,84.0
862,160.27345834166667,161.31353407083333,44.0,71.0
863,160.04445084166667,161.3860531125,37.0,89.0
864,161.18948834166667,161.38986990416666,56.0,85.0
865,161.18948834166667,161.41086225833334,61.0,85.0
866,161.18948834166667,161.72002238333334,68.0,85.0
867,161.8765108416667,162.16467861249998,68.0,85.0
868,162.33452584166668,162.44330440416667,56.0,84.0
869,162.56353334166667,162.79063244583335,59.0,89.0
870,162.56353334166667,162.82498357083333,56.0,85.0
871,163.02154834166666,163.1322353,56.0,80.0
872,163.02154834166666,163.13414369583333,59.0,84.0
873,163.02154834166666,163.14177727916666,63.0,85.0
874,162.10551834166665,163.60360907083333,51.0,73.0
875,161.8765108416667,163.60551746666667,44.0,88.0
876,163.70857084166667,163.97002107083333,54.0,85.0
877,163.70857084166667,164.26773082083332,66.0,84.0
878,164.16658584166666,164.29635675833333,54.0,85.0
879,164.39559334166665,164.42231088333335,66.0,69.0
880,164.39559334166665,164.71429544583333,54.0,91.0
881,164.39559334166665,164.72002063333332,61.0,88.0
882,163.93757834166666,165.04253952916667,49.0,77.0
883,164.85360834166667,165.04635632083333,54.0,87.0
884,164.85360834166667,165.10551659166669,66.0,85.0
885,163.70857084166667,165.11696696666667,42.0,85.0
886,165.54063084166665,165.80780625833333,52.0,84.0
887,165.54063084166665,165.9051344458333,59.0,86.0
888,166.22765334166667,166.46238602916668,56.0,80.0
889,165.99864584166667,166.47956159166665,52.0,82.0
890,165.76963834166668,166.807805675,47.0,80.0
891,166.68566834166666,166.82116444583335,52.0,87.0
892,166.68566834166666,166.8421568,64.0,85.0
893,165.54063084166665,166.86314915416665,40.0,85.0
894,167.37269084166667,167.85933177916667,51.0,80.0
895,167.37269084166667,167.884140925,58.0,84.0
896,167.83070584166666,168.18566746666667,46.0,78.0
897,168.05971334166668,168.59597257083334,51.0,89.0
898,167.37269084166667,168.67040000833333,39.0,86.0
899,168.51772834166667,168.68757557083333,46.0,85.0
900,168.05971334166668,168.80780450833333,58.0,85.0
901,168.74673584166666,169.07116313333333,51.0,90.0
902,168.97574334166666,169.2696363,58.0,85.0
903,169.66276584166667,169.75246044583332,56.0,83.0
904,169.89177334166666,170.09597169583333,63.0,89.0
905,169.89177334166666,170.1112388625,56.0,86.0
906,170.34978834166668,170.46047529999998,56.0,84.0
907,170.34978834166668,170.5234523625,68.0,85.0
908,169.20475084166668,170.9032231333333,44.0,86.0
909,169.43375834166665,170.91467350833335,51.0,75.0
910,171.03681084166666,171.19520769583335,45.0,93.0
911,171.03681084166666,171.20284127916665,52.0,83.0
912,171.03681084166666,171.20474967500002,57.0,81.0
913,171.03681084166666,171.22383363333333,60.0,78.0
914,171.03681084166666,171.22955882083335,64.0,80.0
915,171.26581834166666,172.74291671666668,52.0,86.0
916,171.26581834166666,172.78680982083333,57.0,85.0
917,171.26581834166666,172.82116094583333,60.0,84.0
918,171.26581834166666,172.84406169583332,64.0,84.0
919,171.26581834166666,172.8803212166667,45.0,85.0
920,172.86887084166665,173.13222946666667,65.0,86.0
921,172.86887084166665,173.17612257083334,62.0,85.0
922,173.32688584166667,173.42612242500002,65.0,85.0
923,173.32688584166667,173.4375728,62.0,82.0
924,173.32688584166667,173.43948119583334,69.0,84.0
925,173.09787834166667,173.6608551125,45.0,56.0
926,173.55589334166666,173.769633675,69.0,88.0
927,173.55589334166666,173.8039848,65.0,90.0
928,173.55589334166666,173.81161838333333,62.0,86.0
929,172.86887084166665,173.89367940416668,38.0,93.0
930,173.78490084166668,173.93566411249998,45.0,84.0
931,174.01390834166665,174.17612198749998,69.0,88.0
932,174.01390834166665,174.17803038333335,62.0,87.0
933,174.01390834166665,174.18948075833333,65.0,89.0
934,174.70093084166666,174.90131240416667,62.0,85.0
935,174.70093084166666,174.91848796666665,65.0,86.0
936,174.70093084166666,175.01772455,50.0,87.0
937,174.92993834166668,175.0329917166667,57.0,79.0
938,175.15894584166665,175.26581600833333,62.0,84.0
939,175.38795334166667,175.71619742500002,65.0,93.0
940,175.38795334166667,175.72001421666667,69.0,91.0
941,175.38795334166667,175.73146459166668,62.0,89.0
942,175.84596834166666,176.1112353625,62.0,86.0
943,175.84596834166666,176.15322007083333,65.0,91.0
944,175.84596834166666,176.19520477916666,69.0,88.0
945,176.07497584166669,176.20474675833333,38.0,88.0
946,176.30398334166665,176.403219925,65.0,62.0
947,176.30398334166665,176.55398319583333,62.0,86.0
948,176.99100584166666,177.09215082083333,57.0,89.0
949,176.76199834166667,177.32115832083332,52.0,73.0
950,177.2200133416667,177.40131094583333,60.0,93.0
951,177.2200133416667,177.42039490416667,64.0,90.0
952,177.2200133416667,177.43757046666667,57.0,89.0
953,177.67802834166667,177.79825727916665,60.0,87.0
954,177.67802834166667,177.82306642499998,64.0,86.0
955,177.44902084166665,177.83833359166667,52.0,81.0
956,177.67802834166667,177.8402419875,57.0,84.0
957,176.53299084166667,178.1494021125,45.0,93.0
958,178.13604334166666,178.44329507083333,69.0,85.0
959,178.13604334166666,178.58833315416666,57.0,86.0
960,178.82306584166668,178.91276044583333,57.0,80.0
961,178.59405834166665,179.16657709166668,52.0,76.0
962,179.05207334166667,179.21047019583335,60.0,91.0
963,179.05207334166667,179.22955415416666,57.0,85.0
964,179.05207334166667,179.22955415416666,64.0,93.0
965,179.28108084166666,179.61314171666666,52.0,77.0
966,178.3650508416667,179.63031727916666,45.0,86.0
967,179.51008834166666,179.64367605,57.0,89.0
968,179.51008834166666,179.65321802916668,69.0,89.0
969,180.19711084166667,180.44711069583332,62.0,85.0
970,180.19711084166667,180.45283588333334,65.0,84.0
971,180.65512584166666,180.71237771666665,57.0,79.0
972,180.88413334166665,181.0348966125,57.0,89.0
973,180.88413334166665,181.03680500833332,65.0,87.0
974,181.34214834166667,181.44329332083333,57.0,85.0
975,181.34214834166667,181.4471101125,62.0,86.0
976,180.42611834166667,181.48527802916666,45.0,73.0
977,180.19711084166667,181.58451461250002,38.0,88.0
978,181.80016334166666,182.13222421666666,57.0,85.0
979,181.80016334166666,182.22382721666668,69.0,86.0
980,182.48718584166667,182.56161327916666,57.0,85.0
981,182.71619334166667,182.92611688333335,62.0,86.0
982,182.71619334166667,182.93184207083334,65.0,88.0
983,182.25817834166668,183.2677197375,45.0,73.0
984,183.17420834166666,183.43756696666668,62.0,87.0
985,183.17420834166666,183.46046771666667,65.0,88.0
986,182.02917084166666,183.49481884166667,38.0,90.0
987,183.40321584166668,183.5081776125,45.0,79.0
988,183.63222334166664,183.7486354875,62.0,86.0
989,183.63222334166664,183.77344463333333,65.0,85.0
990,183.86123084166667,184.19710850833332,60.0,82.0
991,183.86123084166667,184.28489471666666,64.0,86.0
992,184.31924584166666,184.83832950833335,52.0,74.0
993,184.77726084166665,184.87077223749998,60.0,93.0
994,184.77726084166665,184.88603940416667,57.0,87.0
995,184.77726084166665,184.91084855,64.0,101.0
996,183.86123084166667,184.9337493,45.0,85.0
997,185.00626834166667,185.0711538,52.0,85.0
998,185.23527584166666,185.30397809166666,57.0,84.0
999,185.46428334166666,185.57878709166667,60.0,89.0
1000,185.46428334166666,185.586420675,57.0,85.0
1001,185.69329084166668,185.91848155,57.0,79.0
1002,185.69329084166668,185.95474107083334,60.0,84.0
1003,186.15130584166667,186.22573327916666,57.0,72.0
1004,185.92229834166665,186.46428275833333,52.0,83.0
1005,186.38031334166666,186.63222159166668,60.0,95.0
1006,186.38031334166666,186.63603838333333,57.0,86.0
1007,186.38031334166666,186.63603838333333,64.0,93.0
1008,185.69329084166668,186.9203893625,45.0,86.0
1009,186.60932084166666,186.98336642499999,52.0,85.0
1010,186.83832834166668,187.04825188333334,60.0,90.0
1011,186.83832834166668,187.06161065416666,57.0,87.0
1012,187.52535084166666,187.5845111125,57.0,74.0
1013,187.52535084166666,187.77725909166668,62.0,86.0
1014,187.52535084166666,187.78680107083335,65.0,85.0
1015,187.98336584166668,188.082602425,57.0,84.0
1016,188.21237334166665,188.36695340416668,69.0,89.0
1017,188.21237334166665,188.3688618,62.0,95.0
1018,188.21237334166665,188.38794575833333,57.0,85.0
1019,188.67038834166667,188.76199134166666,57.0,85.0
1020,188.67038834166667,188.78298369583334,65.0,85.0
1021,187.52535084166666,189.181838425,38.0,93.0
1022,187.75435834166666,189.19138040416667,45.0,75.0
1023,189.12840334166668,189.53107486250002,57.0,85.0
1024,189.12840334166668,189.65702898749998,62.0,86.0
1025,189.81542584166667,189.88794488333332,57.0,85.0
1026,190.04443334166666,190.27725763333333,57.0,84.0
1027,190.04443334166666,190.29634159166665,62.0,87.0
1028,190.04443334166666,190.33069271666665,69.0,84.0
1029,189.58641834166667,190.62649407083333,45.0,71.0
1030,189.35741084166665,190.69901311249998,38.0,89.0
1031,190.50244834166665,190.70282990416666,57.0,85.0
1032,190.50244834166665,190.7238222583333,62.0,85.0
1033,190.50244834166665,191.03298238333332,69.0,85.0
1034,191.18947084166666,191.47763861250002,69.0,85.0
1035,191.64748584166665,191.75626440416667,57.0,84.0
1036,191.87649334166667,192.10359244583333,60.0,89.0
1037,191.87649334166667,192.13794357083333,57.0,85.0
1038,192.33450834166666,192.4451953,57.0,80.0
1039,192.33450834166666,192.44710369583333,60.0,84.0
1040,192.33450834166666,192.45473727916666,64.0,85.0
1041,191.41847834166668,192.91656907083333,52.0,73.0
1042,191.18947084166666,192.91847746666667,45.0,88.0
1043,193.02153084166667,193.28298107083333,55.0,85.0
1044,193.02153084166667,193.58069082083333,67.0,84.0
1045,193.47954584166666,193.60931675833334,55.0,85.0
1046,193.7085533416667,193.73527088333333,67.0,69.0
1047,193.7085533416667,194.02725544583333,55.0,91.0
1048,193.7085533416667,194.03298063333335,62.0,88.0
1049,193.25053834166667,194.35549952916665,50.0,77.0
1050,194.16656834166668,194.35931632083333,55.0,87.0
1051,194.16656834166668,194.41847659166666,67.0,85.0
1052,193.02153084166667,194.42992696666667,43.0,85.0
1053,194.85359084166666,195.12076625833333,53.0,84.0
1054,194.85359084166666,195.21809444583334,60.0,86.0
1055,195.54061334166667,195.77534602916666,57.0,80.0
1056,195.31160584166668,195.79252159166668,53.0,82.0
1057,195.08259834166665,196.120765675,48.0,80.0
1058,195.99862834166666,196.13412444583332,53.0,87.0
1059,195.99862834166666,196.1551168,65.0,85.0
1060,194.85359084166666,196.17610915416668,41.0,85.0
1061,196.68565084166667,197.17229177916667,52.0,80.0
1062,196.68565084166667,197.197100925,59.0,84.0
1063,197.14366584166666,197.49862746666668,47.0,78.0
1064,197.37267334166665,197.90893257083331,52.0,89.0
1065,196.68565084166667,197.98336000833334,40.0,86.0
1066,197.83068834166667,198.00053557083334,47.0,85.0
1067,197.37267334166665,198.12076450833334,59.0,85.0
1068,198.05969584166667,198.38412313333333,52.0,90.0
1069,198.28870334166666,198.5825963,59.0,85.0
1070,198.96045867499998,199.23145088333334,57.0,73.0
1071,199.19709975833334,199.55206138333335,59.0,79.0
1072,199.6417559875,199.86503829999998,60.0,73.0
1073,198.72381759166666,200.18755719583334,52.0,75.0
1074,198.52343602916665,200.2142747375,45.0,84.0
1075,200.12076334166665,200.39748073750002,64.0,79.0
1076,200.12458013333332,200.41656469583333,57.0,72.0
1077,200.998625425,201.6455716125,60.0,75.0
1078,200.77343471666666,202.02152559166666,57.0,71.0
1079,200.55396919583333,202.09976982083333,52.0,75.0
1080,200.32877848750002,202.13221255000002,45.0,82.0
1081,201.24099169583332,202.14175452916666,69.0,84.0
1082,203.01579982083334,203.39938738333333,65.0,75.0
1083,202.739082425,203.41656294583333,62.0,70.0
1084,203.32305155,203.68755515416666,74.0,95.0
1085,202.50625813333335,203.71999788333335,45.0,73.0
1086,202.25053309166668,203.97953971666666,38.0,85.0
1087,204.10549384166666,204.65129505,65.0,73.0
1088,203.57877659166667,204.66656221666665,69.0,77.0
1089,203.84786040416668,204.67228740416667,62.0,74.0
1090,205.65511125833333,206.04060721666667,55.0,68.0
1091,205.74289746666665,206.07114155,59.0,76.0
1092,205.82114169583332,206.07495834166667,62.0,73.0
1093,205.58068382083331,206.23335519583333,50.0,74.0
1094,205.89556913333334,206.2486223625,67.0,66.0
1095,205.4070198,206.27343150833332,43.0,72.0
1096,206.94137005,207.19136990416666,57.0,72.0
1097,207.19518669583334,207.60358340416667,59.0,80.0
1098,207.69327800833332,207.85549165416666,60.0,71.0
1099,206.70091217499998,208.26007157083333,52.0,69.0
1100,206.4776298625,208.3096898625,45.0,85.0
1101,208.18755252916668,208.43946077916667,64.0,83.0
1102,208.90129257083333,208.9967123625,57.0,63.0
1103,209.1169413,209.44327698749998,57.0,79.0
1104,209.11884969583332,209.44518538333335,60.0,80.0
1105,208.6722850708333,209.52724640416665,52.0,68.0
1106,209.57304790416669,209.66274250833334,64.0,79.0
1107,208.43755238333333,209.69709363333334,45.0,80.0
1108,210.70663502916665,211.02152034166667,53.0,72.0
1109,210.94136771666666,211.1322073,57.0,73.0
1110,211.43564223750002,211.55396277916668,60.0,76.0
1111,210.45854357083334,211.98335184166666,48.0,70.0
1112,210.24480323749998,212.04060371666668,41.0,84.0
1113,212.17609982083331,212.6627407583333,57.0,73.0
1114,212.17037463333332,212.70854225833335,53.0,78.0
1115,212.86503071666667,213.24670988333332,60.0,74.0
1116,213.27724421666665,213.5654119875,53.0,78.0
1117,213.5310608625,213.61884707083334,57.0,69.0
1118,212.17800821666668,213.62838905,41.0,84.0
1119,213.0730458625,213.62838905,48.0,69.0
1120,214.00243463333334,214.5711365916667,59.0,73.0
1121,214.46808321666668,214.73525863333333,62.0,78.0
1122,213.99098425833333,214.80396088333333,55.0,73.0
1123,214.70854109166666,215.2600674875,67.0,84.0
1124,215.19327363333332,215.50625055,62.0,77.0
1125,214.0005262375,215.77151757083334,43.0,85.0
1126,215.45281546666666,215.90128848749998,55.0,71.0
1127,215.678006175,216.01388384166665,59.0,80.0
1128,216.1703723,217.0864023,50.0,70.0
1129,215.92800602916668,217.15319615416666,43.0,80.0
1130,216.40319659166667,217.1951808625,55.0,77.0
1131,216.6570132375,217.22762359166666,59.0,82.0
1132,216.9337306333333,217.67800500833334,67.0,79.0
1133,218.18372990416668,218.52151596666667,45.0,87.0
1134,218.357393925,218.52914955,52.0,73.0
1135,218.44136334166666,218.59403500833332,57.0,67.0
1136,218.5463251125,218.70472196666668,59.0,76.0
1137,218.6894548,218.83449288333333,60.0,69.0
1138,219.19899648749998,219.30968344583334,69.0,59.0
1139,219.3249506125,219.48907265416665,71.0,49.0
1140,219.44517955,219.639835925,72.0,69.0
1141,219.67037025833332,219.81159155,76.0,71.0
1142,219.89937775833334,220.07113338333335,69.0,67.0
1143,220.143652425,220.27914852916666,81.0,67.0
1144,220.42609500833333,220.55204913333333,83.0,74.0
1145,220.72952994583335,220.83449171666666,84.0,73.0
1146,221.15319382083334,221.33067463333333,81.0,47.0
1147,221.12647627916667,221.33639982083332,88.0,70.0
1148,221.60930042500001,221.6913614458333,81.0,43.0
1149,221.64365155000002,221.75433850833332,84.0,70.0
1150,221.71617059166664,221.84212471666666,93.0,80.0
1151,219.10548509166665,222.10357494583332,64.0,60.0
1152,218.88220277916668,222.12456730000002,57.0,78.0
