,start,end,pitch,velocity
0,20.057461014583335,20.187501345833333,79.0,98.0
1,20.299396514583336,20.56048524166667,79.0,79.0
2,20.783267514583333,20.896170747916667,79.0,93.0
3,21.025203014583333,21.12399334375,86.0,93.0
4,21.267138514583333,21.36290465,84.0,90.0
5,21.509074014583334,21.616936925,82.0,87.0
6,21.751009514583334,21.835686939583333,84.0,95.0
7,21.992945014583334,22.782259583333335,86.0,112.0
8,23.928429014583333,24.056453216666668,89.0,120.0
9,24.170364514583333,24.255041939583336,86.0,79.0
10,24.412300014583334,24.536291958333333,86.0,104.0
11,24.654235514583334,24.76713874791667,84.0,87.0
12,24.896171014583334,25.184477485416668,82.0,87.0
13,25.380042014583335,25.686493647916667,86.0,111.0
14,25.863913014583336,26.384074339583336,84.0,114.0
15,27.799397014583334,28.314518016666668,79.0,104.0
16,28.525203514583335,28.658268039583334,82.0,108.0
17,28.767139014583336,29.077622906250003,79.0,104.0
18,29.251010014583336,29.57963906875,84.0,104.0
19,29.734881014583333,30.134074589583335,79.0,114.0
20,30.218752014583334,30.543348810416667,84.0,104.0
21,30.702623014583335,31.27217950416667,79.0,114.0
22,31.670365014583336,31.7721795375,81.0,108.0
23,31.912300514583336,32.00000213333333,81.0,95.0
24,32.15423601458333,32.2560505375,81.0,108.0
25,32.39617151458334,32.49395377916667,79.0,104.0
26,32.63810701458333,32.948590906250004,77.0,108.0
27,33.121978014583334,33.44959900416667,74.0,111.0
28,33.605849014583335,34.343752289583335,79.0,117.0
29,35.54133301458334,35.67137334583334,79.0,98.0
30,35.783268514583334,36.04435724166667,79.0,79.0
31,36.267139514583334,36.38004274791667,79.0,93.0
32,36.50907501458334,36.60786534375,86.0,93.0
33,36.751010514583335,36.84677665,84.0,90.0
34,36.99294601458333,37.100808925,82.0,87.0
35,37.234881514583336,37.31955893958334,84.0,95.0
36,37.47681701458333,38.76613161666667,86.0,112.0
37,39.412301014583335,39.540325216666666,89.0,120.0
38,39.65423651458334,39.738913939583334,86.0,79.0
39,39.896172014583335,40.020163958333335,86.0,104.0
40,40.13810751458333,40.251010747916666,84.0,87.0
41,40.380043014583336,40.66834948541667,82.0,87.0
42,40.86391401458334,41.17036564791667,86.0,111.0
43,41.34778501458334,41.867946339583334,84.0,114.0
44,43.28326901458333,43.798390016666666,79.0,104.0
45,44.00907551458334,44.14214003958334,82.0,108.0
46,44.251011014583334,44.561494906250005,79.0,104.0
47,44.734882014583334,45.06351106875,84.0,104.0
48,45.218753014583335,45.61794658958333,79.0,114.0
49,45.702624014583336,46.02722081041667,84.0,104.0
50,46.186495014583336,46.75605150416667,79.0,114.0
51,47.15423701458334,47.2560515375,81.0,108.0
52,47.396172514583334,47.48387413333334,81.0,95.0
53,47.63810801458334,47.7399225375,81.0,108.0
54,47.880043514583335,47.97782577916667,79.0,104.0
55,48.12197901458334,48.43246290625,77.0,108.0
56,48.60585001458334,48.93347100416667,74.0,111.0
57,49.08972101458333,49.82762428958333,79.0,117.0
58,58.76714101458334,58.89718134583334,79.0,98.0
59,58.76714101458334,58.89718134583334,79.0,98.0
60,59.009076514583334,59.27016524166667,79.0,79.0
61,59.009076514583334,59.27016524166667,79.0,79.0
62,59.492947514583335,59.60585074791667,79.0,93.0
63,59.492947514583335,59.60585074791667,79.0,93.0
64,59.73488301458334,59.83367334375,86.0,93.0
65,59.73488301458334,59.83367334375,86.0,93.0
66,59.976818514583336,60.07258465,84.0,90.0
67,59.976818514583336,60.07258465,84.0,90.0
68,60.21875401458334,60.326616925,82.0,87.0
69,60.21875401458334,60.326616925,82.0,87.0
70,60.460689514583336,60.54536693958334,84.0,95.0
71,60.460689514583336,60.54536693958334,84.0,95.0
72,60.70262501458333,61.491939583333334,86.0,112.0
73,60.70262501458333,61.491939583333334,86.0,112.0
74,62.638109014583335,62.76613321666667,89.0,120.0
75,62.638109014583335,62.76613321666667,89.0,120.0
76,62.88004451458334,62.964721939583335,86.0,79.0
77,62.88004451458334,62.964721939583335,86.0,79.0
78,63.121980014583336,63.245971958333335,86.0,104.0
79,63.121980014583336,63.245971958333335,86.0,104.0
80,63.36391551458334,63.47681874791667,84.0,87.0
81,63.36391551458334,63.47681874791667,84.0,87.0
82,63.60585101458334,63.89415748541667,82.0,87.0
83,63.60585101458334,63.89415748541667,82.0,87.0
84,64.08972201458333,64.39617364791667,86.0,111.0
85,64.08972201458333,64.39617364791667,86.0,111.0
86,64.57359301458334,65.09375433958334,84.0,114.0
87,64.57359301458334,65.09375433958334,84.0,114.0
88,66.50907701458334,67.02419801666667,79.0,104.0
89,66.50907701458334,67.02419801666667,79.0,104.0
90,67.23488351458333,67.36794803958334,82.0,108.0
91,67.23488351458333,67.36794803958334,82.0,108.0
92,67.47681901458334,67.78730290625,79.0,104.0
93,67.47681901458334,67.78730290625,79.0,104.0
94,67.96069001458334,68.28931906875,84.0,104.0
95,67.96069001458334,68.28931906875,84.0,104.0
96,68.44456101458334,68.84375458958334,79.0,114.0
97,68.44456101458334,68.84375458958334,79.0,114.0
98,68.92843201458334,69.25302881041667,84.0,104.0
99,68.92843201458334,69.25302881041667,84.0,104.0
100,69.41230301458333,69.98185950416666,79.0,114.0
101,69.41230301458333,69.98185950416666,79.0,114.0
102,70.38004501458333,70.4818595375,81.0,108.0
103,70.38004501458333,70.4818595375,81.0,108.0
104,70.62198051458334,70.70968213333333,81.0,95.0
105,70.62198051458334,70.70968213333333,81.0,95.0
106,70.86391601458334,70.96573053750001,81.0,108.0
107,70.86391601458334,70.96573053750001,81.0,108.0
108,71.10585151458334,71.20363377916667,79.0,104.0
109,71.10585151458334,71.20363377916667,79.0,104.0
110,71.34778701458333,71.65827090625001,77.0,108.0
111,71.34778701458333,71.65827090625001,77.0,108.0
112,71.83165801458334,72.15927900416666,74.0,111.0
113,71.83165801458334,72.15927900416666,74.0,111.0
114,72.31552901458333,73.05343228958334,79.0,117.0
115,72.31552901458333,73.05343228958334,79.0,117.0
116,74.25101301458334,74.38105334583334,79.0,98.0
117,74.25101301458334,74.38105334583334,79.0,98.0
118,74.49294851458333,74.65827110625,79.0,79.0
119,74.49294851458333,74.65827110625,79.0,93.0
120,74.97681951458334,75.08972274791667,79.0,93.0
121,74.97681951458334,75.08972274791667,79.0,93.0
122,75.21875501458334,75.31754534375,86.0,93.0
123,75.21875501458334,75.31754534375,86.0,93.0
124,75.46069051458333,75.55645665,84.0,90.0
125,75.46069051458333,75.55645665,84.0,90.0
126,75.70262601458333,75.810488925,82.0,87.0
127,75.70262601458333,75.810488925,82.0,87.0
128,75.94456151458334,76.02923893958334,84.0,95.0
129,75.94456151458334,76.02923893958334,84.0,95.0
130,76.18649701458334,76.97581158333334,86.0,112.0
131,76.18649701458334,76.97581158333334,86.0,112.0
132,78.12198101458334,78.25000521666666,89.0,120.0
133,78.12198101458334,78.25000521666666,89.0,120.0
134,78.36391651458334,78.44859393958333,86.0,79.0
135,78.36391651458334,78.44859393958333,86.0,79.0
136,78.60585201458333,78.72984395833333,86.0,104.0
137,78.60585201458333,78.72984395833333,86.0,104.0
138,78.84778751458333,78.96069074791667,84.0,87.0
139,78.84778751458333,78.96069074791667,84.0,87.0
140,79.08972301458334,79.37802948541668,82.0,87.0
141,79.08972301458334,79.37802948541668,82.0,87.0
142,79.57359401458334,79.88004564791667,86.0,111.0
143,79.57359401458334,79.88004564791667,86.0,111.0
144,80.05746501458334,80.57762633958333,84.0,114.0
145,80.05746501458334,80.57762633958333,84.0,114.0
146,81.99294901458333,82.50807001666666,79.0,104.0
147,81.99294901458333,82.50807001666666,79.0,104.0
148,82.71875551458334,82.85182003958333,82.0,108.0
149,82.71875551458334,82.85182003958333,82.0,108.0
150,82.96069101458333,83.27117490625001,79.0,104.0
151,82.96069101458333,83.27117490625001,79.0,104.0
152,83.44456201458334,83.77319106875001,84.0,104.0
153,83.44456201458334,83.77319106875001,84.0,104.0
154,83.92843301458333,84.14113464166667,79.0,90.0
155,83.92843301458333,84.14113464166667,79.0,114.0
156,84.17036851458333,84.27016690833334,82.0,95.0
157,84.41230401458334,84.73690081041667,84.0,104.0
158,84.41230401458334,84.73690081041667,84.0,104.0
159,84.89617501458333,85.46573150416667,79.0,114.0
160,84.89617501458333,85.46573150416667,79.0,114.0
161,85.86391701458334,85.9657315375,81.0,108.0
162,85.86391701458334,85.9657315375,81.0,108.0
163,86.10585251458333,86.19355413333334,81.0,95.0
164,86.10585251458333,86.19355413333334,81.0,95.0
165,86.34778801458334,86.4496025375,81.0,108.0
166,86.34778801458334,86.4496025375,81.0,108.0
167,86.58972351458334,86.70565094166668,82.0,79.0
168,86.83165901458334,87.157263875,84.0,120.0
169,87.31553001458333,87.64315100416667,74.0,111.0
170,87.31553001458333,87.64315100416667,74.0,111.0
171,87.79940101458334,88.53730428958333,79.0,117.0
172,87.79940101458334,88.53730428958333,79.0,117.0
173,105.21875701458333,105.34879734583333,79.0,98.0
174,105.21875701458333,105.34879734583333,79.0,98.0
175,105.46069251458334,105.72178124166668,79.0,79.0
176,105.46069251458334,105.72178124166668,79.0,79.0
177,105.94456351458334,106.05746674791668,79.0,93.0
178,105.94456351458334,106.05746674791668,79.0,93.0
179,106.18649901458333,106.28528934375001,86.0,93.0
180,106.18649901458333,106.28528934375001,86.0,93.0
181,106.42843451458334,106.52420065000001,84.0,90.0
182,106.42843451458334,106.52420065000001,84.0,90.0
183,106.67037001458334,106.77823292500001,82.0,87.0
184,106.67037001458334,106.77823292500001,82.0,87.0
185,106.91230551458334,106.99698293958333,84.0,95.0
186,106.91230551458334,106.99698293958333,84.0,95.0
187,107.15424101458333,107.94355558333334,86.0,112.0
188,107.15424101458333,107.94355558333334,86.0,112.0
189,109.08972501458334,109.21774921666668,89.0,120.0
190,109.08972501458334,109.21774921666668,89.0,120.0
191,109.33166051458333,109.41633793958334,86.0,79.0
192,109.33166051458333,109.41633793958334,86.0,79.0
193,109.57359601458334,109.69758795833334,86.0,104.0
194,109.57359601458334,109.69758795833334,86.0,104.0
195,109.81553151458334,109.92843474791667,84.0,87.0
196,109.81553151458334,109.92843474791667,84.0,87.0
197,110.05746701458334,110.34577348541667,82.0,87.0
198,110.05746701458334,110.34577348541667,82.0,87.0
199,110.54133801458335,110.84778964791667,86.0,111.0
200,110.54133801458335,110.84778964791667,86.0,111.0
201,111.02520901458334,111.54537033958334,84.0,114.0
202,111.02520901458334,111.54537033958334,84.0,114.0
203,112.96069301458334,113.47581401666667,79.0,104.0
204,112.96069301458334,113.47581401666667,79.0,104.0
205,113.68649951458333,113.81956403958334,82.0,108.0
206,113.68649951458333,113.81956403958334,82.0,108.0
207,113.92843501458334,114.23891890625,79.0,104.0
208,113.92843501458334,114.23891890625,79.0,104.0
209,114.41230601458334,114.74093506875,84.0,104.0
210,114.41230601458334,114.74093506875,84.0,104.0
211,114.89617701458334,115.29537058958334,79.0,114.0
212,114.89617701458334,115.29537058958334,79.0,114.0
213,115.38004801458334,115.70464481041667,84.0,104.0
214,115.38004801458334,115.70464481041667,84.0,104.0
215,115.86391901458335,116.43347550416667,79.0,114.0
216,115.86391901458335,116.43347550416667,79.0,114.0
217,116.83166101458333,116.9334755375,81.0,108.0
218,116.83166101458333,116.9334755375,81.0,108.0
219,117.07359651458334,117.16129813333333,81.0,95.0
220,117.07359651458334,117.16129813333333,81.0,95.0
221,117.31553201458334,117.41734653750001,81.0,108.0
222,117.31553201458334,117.41734653750001,81.0,108.0
223,117.55746751458334,117.65524977916667,79.0,104.0
224,117.55746751458334,117.65524977916667,79.0,104.0
225,117.79940301458333,118.10988690625001,77.0,108.0
226,117.79940301458333,118.10988690625001,77.0,108.0
227,118.28327401458334,118.61089500416668,74.0,111.0
228,118.28327401458334,118.61089500416668,74.0,111.0
229,118.76714501458333,119.50504828958334,79.0,117.0
230,118.76714501458333,119.50504828958334,79.0,117.0
231,120.70262901458334,120.83266934583334,79.0,98.0
232,120.70262901458334,120.83266934583334,79.0,98.0
233,120.94456451458333,121.10988710625,79.0,79.0
234,120.94456451458333,121.10988710625,79.0,93.0
235,121.42843551458334,121.54133874791667,79.0,93.0
236,121.42843551458334,121.54133874791667,79.0,93.0
237,121.67037101458334,121.76916134375,86.0,93.0
238,121.67037101458334,121.76916134375,86.0,93.0
239,121.91230651458334,122.00807265,84.0,90.0
240,121.91230651458334,122.00807265,84.0,90.0
241,122.15424201458335,122.262104925,82.0,87.0
242,122.15424201458335,122.262104925,82.0,87.0
243,122.39617751458334,122.48085493958334,84.0,95.0
244,122.39617751458334,122.48085493958334,84.0,95.0
245,122.63811301458334,123.42742758333334,86.0,112.0
246,122.63811301458334,123.42742758333334,86.0,112.0
247,124.57359701458334,124.70162121666667,89.0,120.0
248,124.57359701458334,124.70162121666667,89.0,120.0
249,124.81553251458334,124.90020993958333,86.0,79.0
250,124.81553251458334,124.90020993958333,86.0,79.0
251,125.05746801458334,125.18145995833333,86.0,104.0
252,125.05746801458334,125.18145995833333,86.0,104.0
253,125.29940351458335,125.41230674791667,84.0,87.0
254,125.29940351458335,125.41230674791667,84.0,87.0
255,125.54133901458334,125.82964548541668,82.0,87.0
256,125.54133901458334,125.82964548541668,82.0,87.0
257,126.02521001458334,126.33166164791668,86.0,111.0
258,126.02521001458334,126.33166164791668,86.0,111.0
259,126.50908101458334,127.02924233958333,84.0,114.0
260,126.50908101458334,127.02924233958333,84.0,114.0
261,128.44456501458333,128.95968601666667,79.0,104.0
262,128.44456501458333,128.95968601666667,79.0,104.0
263,129.17037151458334,129.30343603958335,82.0,108.0
264,129.17037151458334,129.30343603958335,82.0,108.0
265,129.41230701458335,129.72279090625,79.0,104.0
266,129.41230701458335,129.72279090625,79.0,104.0
267,129.89617801458334,130.22480706875,84.0,104.0
268,129.89617801458334,130.22480706875,84.0,104.0
269,130.38004901458334,130.59275064166667,79.0,90.0
270,130.38004901458334,130.59275064166667,79.0,114.0
271,130.62198451458335,130.72178290833335,82.0,95.0
272,130.86392001458333,131.18851681041667,84.0,104.0
273,130.86392001458333,131.18851681041667,84.0,104.0
274,131.34779101458335,131.91734750416668,79.0,114.0
275,131.34779101458335,131.91734750416668,79.0,114.0
276,132.31553301458334,132.4173475375,81.0,108.0
277,132.31553301458334,132.4173475375,81.0,108.0
278,132.55746851458335,132.64517013333335,81.0,95.0
279,132.55746851458335,132.64517013333335,81.0,95.0
280,132.79940401458333,132.9012185375,81.0,108.0
281,132.79940401458333,132.9012185375,81.0,108.0
282,133.04133951458334,133.15726694166668,82.0,79.0
283,133.28327501458335,133.608879875,84.0,120.0
284,133.76714601458335,134.09476700416667,74.0,111.0
285,133.76714601458335,134.09476700416667,74.0,111.0
286,134.25101701458334,134.98892028958335,79.0,117.0
287,134.25101701458334,134.98892028958335,79.0,117.0
288,143.92843701458335,144.05847734583335,79.0,98.0
289,143.92843701458335,144.05847734583335,79.0,98.0
290,144.17037251458333,144.43146124166668,79.0,79.0
291,144.17037251458333,144.43146124166668,79.0,79.0
292,144.65424351458333,144.76714674791668,79.0,93.0
293,144.65424351458333,144.76714674791668,79.0,93.0
294,144.89617901458334,144.99496934375,86.0,93.0
295,144.89617901458334,144.99496934375,86.0,93.0
296,145.13811451458335,145.23388065,84.0,90.0
297,145.13811451458335,145.23388065,84.0,90.0
298,145.38005001458333,145.48791292500002,82.0,87.0
299,145.38005001458333,145.48791292500002,82.0,87.0
300,145.62198551458334,145.70666293958334,84.0,95.0
301,145.62198551458334,145.70666293958334,84.0,95.0
302,145.86392101458335,146.65323558333333,86.0,112.0
303,145.86392101458335,146.65323558333333,86.0,112.0
304,147.79940501458333,147.92742921666667,89.0,120.0
305,147.79940501458333,147.92742921666667,89.0,120.0
306,148.04134051458334,148.12601793958333,86.0,79.0
307,148.04134051458334,148.12601793958333,86.0,79.0
308,148.28327601458335,148.40726795833334,86.0,104.0
309,148.28327601458335,148.40726795833334,86.0,104.0
310,148.52521151458333,148.63811474791666,84.0,87.0
311,148.52521151458333,148.63811474791666,84.0,87.0
312,148.76714701458334,149.05545348541668,82.0,87.0
313,148.76714701458334,149.05545348541668,82.0,87.0
314,149.25101801458334,149.55746964791666,86.0,111.0
315,149.25101801458334,149.55746964791666,86.0,111.0
316,149.73488901458333,150.25505033958333,84.0,114.0
317,149.73488901458333,150.25505033958333,84.0,114.0
318,151.67037301458333,152.18549401666667,79.0,104.0
319,151.67037301458333,152.18549401666667,79.0,104.0
320,152.39617951458334,152.52924403958335,82.0,108.0
321,152.39617951458334,152.52924403958335,82.0,108.0
322,152.63811501458335,152.94859890625,79.0,104.0
323,152.63811501458335,152.94859890625,79.0,104.0
324,153.12198601458334,153.45061506875,84.0,104.0
325,153.12198601458334,153.45061506875,84.0,104.0
326,153.60585701458334,154.00505058958333,79.0,114.0
327,153.60585701458334,154.00505058958333,79.0,114.0
328,154.08972801458333,154.41432481041667,84.0,104.0
329,154.08972801458333,154.41432481041667,84.0,104.0
330,154.57359901458335,155.14315550416669,79.0,114.0
331,154.57359901458335,155.14315550416669,79.0,114.0
332,155.54134101458334,155.6431555375,81.0,108.0
333,155.54134101458334,155.6431555375,81.0,108.0
334,155.78327651458335,155.87097813333335,81.0,95.0
335,155.78327651458335,155.87097813333335,81.0,95.0
336,156.02521201458333,156.1270265375,81.0,108.0
337,156.02521201458333,156.1270265375,81.0,108.0
338,156.26714751458334,156.3649297791667,79.0,104.0
339,156.26714751458334,156.3649297791667,79.0,104.0
340,156.50908301458335,156.81956690625,77.0,108.0
341,156.50908301458335,156.81956690625,77.0,108.0
342,156.99295401458335,157.32057500416667,74.0,111.0
343,156.99295401458335,157.32057500416667,74.0,111.0
344,157.47682501458334,158.21472828958335,79.0,117.0
345,157.47682501458334,158.21472828958335,79.0,117.0
346,159.41230901458334,159.54234934583334,79.0,98.0
347,159.41230901458334,159.54234934583334,79.0,98.0
348,159.65424451458335,159.81956710625002,79.0,79.0
349,159.65424451458335,159.81956710625002,79.0,93.0
350,160.13811551458335,160.25101874791667,79.0,93.0
351,160.13811551458335,160.25101874791667,79.0,93.0
352,160.38005101458333,160.47884134375002,86.0,93.0
353,160.38005101458333,160.47884134375002,86.0,93.0
354,160.62198651458334,160.71775265,84.0,90.0
355,160.62198651458334,160.71775265,84.0,90.0
356,160.86392201458335,160.971784925,82.0,87.0
357,160.86392201458335,160.971784925,82.0,87.0
358,161.10585751458333,161.19053493958333,84.0,95.0
359,161.10585751458333,161.19053493958333,84.0,95.0
360,161.34779301458335,162.13710758333335,86.0,112.0
361,161.34779301458335,162.13710758333335,86.0,112.0
362,163.28327701458335,163.4113012166667,89.0,120.0
363,163.28327701458335,163.4113012166667,89.0,120.0
364,163.52521251458333,163.60988993958335,86.0,79.0
365,163.52521251458333,163.60988993958335,86.0,79.0
366,163.76714801458334,163.89113995833335,86.0,104.0
367,163.76714801458334,163.89113995833335,86.0,104.0
368,164.00908351458335,164.12198674791668,84.0,87.0
369,164.00908351458335,164.12198674791668,84.0,87.0
370,164.25101901458333,164.53932548541667,82.0,87.0
371,164.25101901458333,164.53932548541667,82.0,87.0
372,164.73489001458333,165.04134164791668,86.0,111.0
373,164.73489001458333,165.04134164791668,86.0,111.0
374,165.21876101458335,165.73892233958335,84.0,114.0
375,165.21876101458335,165.73892233958335,84.0,114.0
376,167.15424501458335,167.6693660166667,79.0,104.0
377,167.15424501458335,167.6693660166667,79.0,104.0
378,167.88005151458333,168.01311603958334,82.0,108.0
379,167.88005151458333,168.01311603958334,82.0,108.0
380,168.12198701458334,168.43247090625002,79.0,104.0
381,168.12198701458334,168.43247090625002,79.0,104.0
382,168.60585801458333,168.93448706875,84.0,104.0
383,168.60585801458333,168.93448706875,84.0,104.0
384,169.08972901458336,169.3024306416667,79.0,90.0
385,169.08972901458336,169.3024306416667,79.0,114.0
386,169.33166451458334,169.43146290833334,82.0,95.0
387,169.57360001458335,169.89819681041666,84.0,104.0
388,169.57360001458335,169.89819681041666,84.0,104.0
389,170.05747101458334,170.62702750416668,79.0,114.0
390,170.05747101458334,170.62702750416668,79.0,114.0
391,171.02521301458333,171.1270275375,81.0,108.0
392,171.02521301458333,171.1270275375,81.0,108.0
393,171.26714851458334,171.35485013333334,81.0,95.0
394,171.26714851458334,171.35485013333334,81.0,95.0
395,171.50908401458335,171.61089853750002,81.0,108.0
396,171.50908401458335,171.61089853750002,81.0,108.0
397,171.75101951458333,171.86694694166667,82.0,79.0
398,171.99295501458334,172.318559875,84.0,120.0
399,172.47682601458334,172.80444700416666,74.0,111.0
400,172.47682601458334,172.80444700416666,74.0,111.0
401,172.96069701458333,173.69860028958334,79.0,117.0
402,172.96069701458333,173.69860028958334,79.0,117.0
403,174.89618101458333,175.41130201666667,79.0,104.0
404,174.89618101458333,175.41130201666667,79.0,104.0
405,175.62198751458334,175.75505203958335,82.0,108.0
406,175.62198751458334,175.75505203958335,82.0,108.0
407,175.86392301458335,176.17440690625,79.0,104.0
408,175.86392301458335,176.17440690625,79.0,104.0
409,176.34779401458334,176.67642306875,84.0,104.0
410,176.34779401458334,176.67642306875,84.0,104.0
411,176.83166501458334,177.04436664166667,79.0,90.0
412,176.83166501458334,177.04436664166667,79.0,114.0
413,177.07360051458335,177.17339890833335,82.0,95.0
414,177.31553601458333,177.64013281041667,84.0,104.0
415,177.31553601458333,177.64013281041667,84.0,104.0
416,177.79940701458335,178.3689635041667,79.0,114.0
417,177.79940701458335,178.3689635041667,79.0,114.0
418,178.76714901458334,178.8689635375,81.0,108.0
419,178.76714901458334,178.8689635375,81.0,108.0
420,179.00908451458335,179.09678613333335,81.0,95.0
421,179.00908451458335,179.09678613333335,81.0,95.0
422,179.25102001458333,179.3528345375,81.0,108.0
423,179.25102001458333,179.3528345375,81.0,108.0
424,179.49295551458334,179.60888294166668,82.0,79.0
425,179.73489101458335,180.06049587500002,84.0,120.0
426,180.21876201458335,180.54638300416667,89.0,111.0
427,180.70263301458334,181.44053628958335,91.0,117.0
