,start,end,pitch,velocity
0,0.7026210145833334,0.94657264375,62.0,68.0
1,0.7026210145833334,0.95866941875,58.0,66.0
2,0.7026210145833334,0.9717742583333334,43.0,83.0
3,0.7026210145833334,0.9727823229166667,55.0,61.0
4,1.4284275145833334,1.5241936500000002,55.0,59.0
5,1.4284275145833334,1.5272178437500001,62.0,67.0
6,1.4284275145833334,1.5302420375,58.0,64.0
7,1.4284275145833334,1.5655242979166668,43.0,77.0
8,1.6703630145833335,1.7752017312500001,62.0,74.0
9,1.6703630145833335,1.7903227000000002,55.0,70.0
10,1.6703630145833335,1.7903227000000002,58.0,74.0
11,1.6703630145833335,1.79939528125,43.0,68.0
12,2.6381050145833336,2.7298388916666667,62.0,70.0
13,2.6381050145833336,2.73689534375,58.0,64.0
14,2.6381050145833336,2.745967925,55.0,65.0
15,2.6381050145833336,2.7661292166666667,43.0,81.0
16,3.3639115145833336,3.434476035416667,62.0,69.0
17,3.3639115145833336,3.43850829375,55.0,63.0
18,3.3639115145833336,3.4516131333333333,58.0,67.0
19,3.3639115145833336,3.4949599104166666,43.0,79.0
20,3.6058470145833335,3.8528228375,62.0,85.0
21,3.6058470145833335,3.8598792895833336,58.0,83.0
22,3.6058470145833335,3.86794380625,55.0,73.0
23,3.6058470145833335,3.8991938083333335,43.0,74.0
24,4.573589014583334,5.157258408333334,55.0,72.0
25,4.573589014583334,5.160282602083334,58.0,71.0
26,4.573589014583334,5.160282602083334,62.0,72.0
27,4.573589014583334,5.247984220833334,43.0,70.0
28,5.299395514583334,5.357863260416667,62.0,77.0
29,5.299395514583334,5.370968100000001,55.0,71.0
30,5.299395514583334,5.376008422916667,58.0,77.0
31,5.299395514583334,5.4526213312500005,38.0,77.0
32,5.541331014583333,6.086693954166667,38.0,100.0
33,5.541331014583333,6.089718147916667,55.0,76.0
34,5.541331014583333,6.089718147916667,62.0,83.0
35,5.541331014583333,6.096774600000001,58.0,79.0
36,6.267137514583333,6.5322585,58.0,75.0
37,6.5090730145833335,6.5322585,58.0,76.0
38,6.267137514583333,6.534274629166667,62.0,81.0
39,6.5090730145833335,6.534274629166667,62.0,73.0
40,6.267137514583333,6.53528269375,55.0,75.0
41,6.5090730145833335,7.0463714375,65.0,79.0
42,7.234879514583334,7.308468229166667,58.0,73.0
43,7.234879514583334,7.313508552083333,62.0,79.0
44,7.234879514583334,7.313508552083333,65.0,79.0
45,7.234879514583334,7.340726295833334,41.0,93.0
46,7.476815014583334,8.013105372916668,41.0,87.0
47,7.476815014583334,8.015121502083334,62.0,87.0
48,7.476815014583334,8.015121502083334,65.0,87.0
49,7.476815014583334,8.022177954166667,58.0,79.0
50,6.5090730145833335,8.031250535416667,46.0,104.0
51,8.444557014583333,8.958669952083333,41.0,111.0
52,8.928428014583334,9.023186085416667,60.0,74.0
53,8.928428014583334,9.029234472916666,53.0,81.0
54,8.928428014583334,9.037298989583334,57.0,69.0
55,9.170363514583334,9.27520223125,36.0,100.0
56,9.412299014583335,9.85584743125,36.0,121.0
57,9.912299047916667,10.20060551875,60.0,90.0
58,9.912299047916667,10.2036297125,57.0,87.0
59,9.912299047916667,10.210686164583334,53.0,87.0
60,10.380041014583334,10.928428147916668,39.0,81.0
61,10.863912014583335,10.993952345833334,51.0,81.0
62,10.863912014583335,10.993952345833334,55.0,77.0
63,10.863912014583335,10.993952345833334,58.0,79.0
64,11.105847514583333,11.191533004166667,39.0,122.0
65,11.347783014583333,11.656250777083335,55.0,85.0
66,11.347783014583333,11.66431529375,58.0,90.0
67,11.347783014583333,11.683468520833333,51.0,86.0
68,11.347783014583333,11.78225885,39.0,123.0
69,12.315525014583335,12.857863760416667,43.0,104.0
70,13.041331514583334,13.13407345625,43.0,111.0
71,12.799396014583333,13.593750906250001,67.0,87.0
72,12.799396014583333,13.595767035416667,62.0,90.0
73,12.799396014583333,13.597783164583333,58.0,79.0
74,13.283267014583334,13.744960593750001,43.0,95.0
75,13.767138014583335,14.288307404166668,67.0,87.0
76,13.767138014583335,14.297379985416667,62.0,90.0
77,13.767138014583335,14.318549341666667,58.0,87.0
78,14.251009014583333,14.780242920833334,46.0,108.0
79,14.976815514583334,15.082662295833334,46.0,120.0
80,14.734880014583334,15.114920362500001,62.0,83.0
81,14.734880014583334,15.166331656250001,58.0,77.0
82,14.734880014583334,15.200605852083335,65.0,87.0
83,15.218751014583335,15.691533304166667,46.0,83.0
84,15.702622014583334,16.1915333375,62.0,87.0
85,15.702622014583334,16.193549466666667,58.0,85.0
86,15.702622014583334,16.195565595833333,65.0,90.0
87,16.186493014583334,16.74395272916667,41.0,100.0
88,16.670364014583335,16.931452741666668,53.0,74.0
89,16.670364014583335,16.93447693541667,60.0,73.0
90,16.670364014583335,16.939517258333336,57.0,73.0
91,16.912299514583335,17.015122102083335,41.0,108.0
92,17.154235014583335,17.74496086041667,41.0,108.0
93,17.638106014583336,18.122985079166668,60.0,85.0
94,17.638106014583336,18.123993143750003,57.0,90.0
95,17.638106014583336,18.1270173375,53.0,104.0
96,18.121977014583333,18.37802541875,58.0,87.0
97,18.121977014583333,18.3810496125,62.0,86.0
98,18.121977014583333,18.3931463875,55.0,86.0
99,18.121977014583333,18.414315743750002,43.0,100.0
100,18.605848014583334,18.845767385416668,60.0,81.0
101,18.605848014583334,18.856856095833333,53.0,93.0
102,18.605848014583334,18.862904483333335,57.0,86.0
103,18.605848014583334,18.903227066666666,41.0,98.0
104,19.089719014583334,19.57258195,62.0,85.0
105,19.089719014583334,19.580646466666668,43.0,87.0
106,19.089719014583334,19.581654531250003,58.0,83.0
107,19.089719014583334,19.593751306250002,55.0,76.0
108,20.057461014583335,20.557461047916668,43.0,93.0
109,20.783267514583333,20.873993327083333,43.0,104.0
110,20.541332014583336,21.31149335625,58.0,76.0
111,20.541332014583336,21.312501420833335,55.0,69.0
112,20.541332014583336,21.31451755,62.0,79.0
113,21.025203014583333,21.53729982291667,43.0,95.0
114,21.509074014583334,21.995969208333335,62.0,85.0
115,21.509074014583334,21.996977272916666,58.0,93.0
116,21.509074014583334,22.011090177083336,55.0,86.0
117,21.992945014583334,22.525203114583334,43.0,83.0
118,22.718751514583335,22.810485391666667,43.0,104.0
119,22.476816014583335,23.239920904166667,58.0,83.0
120,22.476816014583335,23.25302574375,55.0,81.0
121,22.476816014583335,23.254033808333336,62.0,86.0
122,22.960687014583335,23.511090277083333,43.0,98.0
123,23.444558014583336,23.942541918750003,62.0,90.0
124,23.444558014583336,23.943549983333334,58.0,86.0
125,23.444558014583336,23.946574177083335,55.0,85.0
126,23.928429014583333,24.43750162916667,46.0,95.0
127,24.654235514583334,24.75000165,46.0,98.0
128,24.412300014583334,25.196574260416668,62.0,90.0
129,24.412300014583334,25.19959845416667,58.0,86.0
130,24.412300014583334,25.20060651875,65.0,95.0
131,24.896171014583334,25.39314685416667,46.0,104.0
132,25.380042014583335,25.900203339583335,62.0,95.0
133,25.380042014583335,25.908267856250003,65.0,98.0
134,25.380042014583335,25.927421083333336,58.0,95.0
135,25.863913014583336,26.389114662500003,48.0,87.0
136,26.589719514583333,26.692542102083333,48.0,111.0
137,26.347784014583336,26.8729856625,63.0,87.0
138,26.347784014583336,26.886090502083334,60.0,81.0
139,26.347784014583336,26.886090502083334,67.0,77.0
140,26.831655014583333,27.4052437625,48.0,98.0
141,27.315526014583334,27.799397014583334,60.0,86.0
142,27.315526014583334,27.799397014583334,63.0,98.0
143,27.315526014583334,27.799397014583334,67.0,87.0
144,27.799397014583334,28.291332531250003,43.0,87.0
145,28.525203514583335,28.625001908333335,43.0,100.0
146,28.283268014583335,28.758066433333333,58.0,79.0
147,28.283268014583335,28.76310675625,55.0,73.0
148,28.283268014583335,28.767139014583336,62.0,74.0
149,28.767139014583336,29.247985820833335,43.0,90.0
150,29.251010014583336,29.757058435416667,62.0,93.0
151,29.251010014583336,29.7580665,58.0,90.0
152,29.251010014583336,29.760082629166668,55.0,83.0
153,29.734881014583333,30.281252018750003,39.0,108.0
154,30.460687514583334,30.563510102083335,39.0,108.0
155,30.218752014583334,30.965727870833334,55.0,76.0
156,30.218752014583334,30.979840775000003,51.0,81.0
157,30.218752014583334,30.979840775000003,58.0,77.0
158,30.702623014583335,31.3004053125,39.0,108.0
159,31.186494014583335,31.417340804166667,55.0,85.0
160,31.186494014583335,31.419356933333336,58.0,79.0
161,31.186494014583335,31.421373062500003,51.0,81.0
162,31.670365014583336,32.165324725000005,41.0,100.0
163,31.670365014583336,32.18145375833333,60.0,79.0
164,31.670365014583336,32.18246182291667,53.0,87.0
165,31.670365014583336,32.185486016666665,57.0,83.0
166,32.39617151458334,32.5100828125,41.0,90.0
167,32.63810701458333,33.012098975,53.0,93.0
168,32.63810701458333,33.01411510416667,60.0,87.0
169,32.63810701458333,33.01512316875,57.0,87.0
170,32.63810701458333,33.16734092083333,41.0,77.0
171,33.121978014583334,33.29838931666667,60.0,86.0
172,33.121978014583334,33.306453833333336,53.0,93.0
173,33.121978014583334,33.30746189791667,57.0,86.0
174,33.605849014583335,34.13306679166667,43.0,81.0
175,34.33165551458333,34.43548616666667,43.0,98.0
176,34.089720014583335,34.45665552291667,58.0,73.0
177,34.089720014583335,34.46270391041667,55.0,68.0
178,34.089720014583335,34.47177649166667,62.0,71.0
179,34.573591014583336,35.36088945416667,62.0,77.0
180,34.573591014583336,35.3649217125,58.0,74.0
181,34.573591014583336,35.36895397083334,43.0,57.0
182,34.573591014583336,35.37399429375,55.0,67.0
183,35.54133301458334,36.06351046875,43.0,93.0
184,36.267139514583334,36.36290565,43.0,95.0
185,36.02520401458334,36.470768560416666,58.0,74.0
186,36.02520401458334,36.48588952916667,55.0,72.0
187,36.02520401458334,36.4899217875,62.0,70.0
188,36.50907501458334,37.00000246666667,43.0,100.0
189,36.99294601458333,37.44355088333334,62.0,83.0
190,36.99294601458333,37.4455670125,58.0,85.0
191,36.99294601458333,37.45463959375,55.0,79.0
192,37.47681701458333,37.994962210416666,46.0,100.0
193,38.20262351458334,38.30040577916667,46.0,117.0
194,37.96068801458333,38.77520419791667,58.0,83.0
195,37.96068801458333,38.778228391666666,62.0,85.0
196,37.96068801458333,38.780244520833335,65.0,83.0
197,38.444559014583334,39.0544380875,46.0,114.0
198,38.928430014583334,39.43246230625,62.0,93.0
199,38.928430014583334,39.44455908125,65.0,95.0
200,38.928430014583334,39.44959940416667,58.0,83.0
201,39.412301014583335,39.91028491875,48.0,87.0
202,40.13810751458333,40.23588977916667,48.0,98.0
203,39.896172014583335,40.40726075833334,63.0,90.0
204,39.896172014583335,40.41734140416667,67.0,76.0
205,39.896172014583335,40.4334704375,60.0,81.0
206,40.380043014583336,40.83972046458334,48.0,104.0
207,40.86391401458334,41.3044382375,63.0,87.0
208,40.86391401458334,41.30746243125,60.0,86.0
209,40.86391401458334,41.312502754166665,67.0,79.0
210,41.34778501458334,41.88911569583333,41.0,86.0
211,41.83165601458334,42.126010872916666,60.0,76.0
212,41.83165601458334,42.133067325,57.0,76.0
213,41.83165601458334,42.151212487500004,53.0,83.0
214,42.073591514583335,42.179438295833336,41.0,104.0
215,42.31552701458334,42.82963995208333,41.0,95.0
216,42.79939801458333,43.28226095,60.0,79.0
217,42.79939801458333,43.28326901458333,57.0,87.0
218,42.79939801458333,43.294357725000005,53.0,100.0
219,43.28326901458333,43.77722066041667,43.0,108.0
220,44.00907551458334,44.092744875,43.0,111.0
221,43.76714001458333,44.59375297291667,55.0,63.0
222,43.76714001458333,44.59980136041667,58.0,79.0
223,43.76714001458333,44.61492232916667,62.0,79.0
224,44.251011014583334,44.65322878333333,43.0,93.0
225,44.734882014583334,45.172382043750005,62.0,79.0
226,44.734882014583334,45.1754062375,58.0,83.0
227,44.734882014583334,45.1875030125,55.0,77.0
228,45.218753014583335,45.626011106250004,39.0,85.0
229,45.94455951458333,46.0463740375,39.0,98.0
230,45.702624014583336,46.294357925,58.0,85.0
231,45.702624014583336,46.3245998625,55.0,83.0
232,45.702624014583336,46.386091802083335,51.0,79.0
233,46.186495014583336,46.69859182291667,39.0,100.0
234,46.67036601458334,46.79939828125,58.0,75.0
235,46.67036601458334,46.812503120833334,51.0,86.0
236,46.67036601458334,46.814519250000004,55.0,77.0
237,47.15423701458334,47.67137414583333,41.0,86.0
238,47.15423701458334,47.679438662500004,60.0,90.0
239,47.15423701458334,47.68447898541667,53.0,100.0
240,47.15423701458334,47.68951930833334,57.0,90.0
241,47.880043514583335,47.94959997083333,60.0,85.0
242,47.880043514583335,47.97883384375,57.0,86.0
243,47.880043514583335,47.99193868333334,53.0,100.0
244,47.880043514583335,48.03830965416667,41.0,85.0
245,48.12197901458334,48.520164525000006,60.0,87.0
246,48.12197901458334,48.52218065416667,53.0,95.0
247,48.12197901458334,48.5322613,57.0,86.0
248,48.12197901458334,48.65322905,41.0,76.0
249,48.60585001458334,48.6592774375,60.0,68.0
250,48.60585001458334,48.666333889583335,57.0,65.0
251,48.60585001458334,48.669358083333336,53.0,63.0
252,48.847785514583336,49.100809725000005,60.0,90.0
253,48.847785514583336,49.10484198333334,57.0,86.0
254,48.847785514583336,49.1068581125,53.0,95.0
255,49.08972101458333,49.5907291125,43.0,98.0
256,49.57359201458333,49.835688806250005,62.0,79.0
257,49.57359201458333,49.84072912916667,58.0,73.0
258,49.57359201458333,49.86996300208334,55.0,76.0
259,49.81552751458334,49.92641461875,43.0,87.0
260,50.057463014583334,50.65625337708334,43.0,81.0
261,50.541334014583335,51.026213079166666,62.0,90.0
262,50.541334014583335,51.03326953125,58.0,86.0
263,50.541334014583335,51.05947921041667,55.0,85.0
264,51.025205014583335,51.56754376041667,43.0,95.0
265,51.75101151458333,51.856858295833334,43.0,86.0
266,51.509076014583336,52.321576068750005,58.0,83.0
267,51.509076014583336,52.32560832708334,55.0,79.0
268,51.509076014583336,52.32560832708334,62.0,93.0
269,51.992947014583336,52.49899543541667,43.0,98.0
270,52.47681801458334,52.854842233333336,62.0,83.0
271,52.47681801458334,52.872987395833334,58.0,87.0
272,52.47681801458334,52.877019654166666,55.0,83.0
273,52.96068901458334,53.49294711458334,46.0,86.0
274,53.686495514583335,53.77117293958334,46.0,87.0
275,53.44456001458334,54.245971358333335,62.0,77.0
276,53.44456001458334,54.248995552083336,65.0,85.0
277,53.44456001458334,54.26210039166667,58.0,74.0
278,53.92843101458334,54.45766492083334,46.0,95.0
279,54.41230201458334,54.86996333541667,62.0,86.0
280,54.41230201458334,54.880043981250004,65.0,98.0
281,54.41230201458334,54.89718107916667,58.0,81.0
282,54.89617301458333,55.45665692291667,41.0,111.0
283,55.62197951458334,55.715729520833335,41.0,98.0
284,55.38004401458333,56.1592779375,60.0,81.0
285,55.38004401458333,56.16331019583333,57.0,83.0
286,55.38004401458333,56.16734245416667,53.0,87.0
287,55.863915014583334,56.5705682875,41.0,112.0
288,56.347786014583335,56.606858612500005,60.0,93.0
289,56.347786014583335,56.625003775,53.0,108.0
290,56.347786014583335,56.63004409791667,57.0,93.0
291,56.831657014583335,56.99193928333334,62.0,90.0
292,56.831657014583335,57.00302799375,58.0,87.0
293,56.831657014583335,57.00504412291667,55.0,85.0
294,56.831657014583335,57.01714089791667,43.0,79.0
295,57.315528014583336,57.512100608333334,60.0,90.0
296,57.315528014583336,57.52923770625,57.0,98.0
297,57.315528014583336,57.539318352083335,53.0,114.0
298,57.315528014583336,57.568552225000005,41.0,87.0
299,57.79939901458334,58.71371359166667,62.0,90.0
300,57.79939901458334,58.7237942375,58.0,86.0
301,57.79939901458334,58.73790714166667,43.0,83.0
302,57.79939901458334,58.74395552916667,55.0,77.0
303,58.76714101458334,59.26714104791667,43.0,93.0
304,59.492947514583335,59.58367332708334,43.0,104.0
305,59.25101201458334,60.02117335625,58.0,76.0
306,59.25101201458334,60.022181420833334,55.0,69.0
307,59.25101201458334,60.024197550000004,62.0,79.0
308,59.73488301458334,60.24697982291667,43.0,95.0
309,60.21875401458334,60.705649208333334,62.0,85.0
310,60.21875401458334,60.70665727291667,58.0,93.0
311,60.21875401458334,60.72077017708334,55.0,86.0
312,60.70262501458333,61.23891537291667,46.0,108.0
313,61.42843151458334,61.5302460375,41.0,76.0
314,61.186496014583334,61.971778325,58.0,79.0
315,61.186496014583334,61.972786389583334,62.0,83.0
316,61.186496014583334,61.99193961666667,65.0,85.0
317,61.670367014583334,62.20161705,41.0,81.0
318,62.154238014583335,62.48992352083334,65.0,79.0
319,62.154238014583335,62.49697997291667,62.0,83.0
320,62.154238014583335,62.50907674791667,58.0,75.0
321,62.638109014583335,63.197584858333336,48.0,79.0
322,63.36391551458334,63.46673810208333,48.0,87.0
323,63.121980014583336,63.4899235875,63.0,67.0
324,63.121980014583336,63.493955845833334,60.0,60.0
325,63.121980014583336,63.49496391041667,67.0,63.0
326,63.60585101458334,64.02016555833333,48.0,87.0
327,64.08972201458333,64.57359301458334,63.0,75.0
328,64.08972201458333,64.57560914375,67.0,74.0
329,64.08972201458333,64.57661720833333,60.0,74.0
330,64.57359301458334,65.13206079375,41.0,77.0
331,65.29939951458334,65.40927855416668,41.0,100.0
332,65.05746401458333,65.86391568125,53.0,75.0
333,65.05746401458333,65.866939875,57.0,64.0
334,65.05746401458333,65.87399632708333,60.0,67.0
335,65.54133501458334,66.108875375,41.0,87.0
336,66.02520601458333,66.50101249791668,57.0,86.0
337,66.02520601458333,66.50101249791668,60.0,83.0
338,66.02520601458333,66.50706088541666,53.0,98.0
339,66.50907701458334,67.00101253125,43.0,87.0
340,67.23488351458333,67.33468190833334,43.0,100.0
341,66.99294801458333,67.46774643333333,58.0,79.0
342,66.99294801458333,67.47278675625,55.0,73.0
343,66.99294801458333,67.47681901458334,62.0,74.0
344,67.47681901458334,67.95766582083334,43.0,90.0
345,67.96069001458334,68.46673843541667,62.0,93.0
346,67.96069001458334,68.4677465,58.0,90.0
347,67.96069001458334,68.46976262916667,55.0,83.0
348,68.44456101458334,68.99093201875,39.0,108.0
349,69.17036751458333,69.27319010208333,39.0,108.0
350,68.92843201458334,69.67540787083334,55.0,76.0
351,68.92843201458334,69.689520775,51.0,81.0
352,68.92843201458334,69.689520775,58.0,77.0
353,69.41230301458333,70.01008531250001,39.0,108.0
354,69.89617401458334,70.12702080416668,55.0,85.0
355,69.89617401458334,70.12903693333334,58.0,79.0
356,69.89617401458334,70.1310530625,51.0,81.0
357,70.38004501458333,70.875004725,41.0,100.0
358,70.38004501458333,70.89113375833334,60.0,79.0
359,70.38004501458333,70.89214182291667,53.0,87.0
360,70.38004501458333,70.89516601666666,57.0,83.0
361,71.10585151458334,71.21976281250001,41.0,90.0
362,71.34778701458333,71.721778975,53.0,93.0
363,71.34778701458333,71.72379510416667,60.0,87.0
364,71.34778701458333,71.72480316875,57.0,87.0
365,71.34778701458333,71.87702092083333,41.0,77.0
366,71.83165801458334,72.00806931666666,60.0,86.0
367,71.83165801458334,72.01613383333334,53.0,93.0
368,71.83165801458334,72.01714189791667,57.0,86.0
369,72.31552901458333,72.84274679166667,43.0,81.0
370,73.04133551458334,73.14516616666667,43.0,98.0
371,72.79940001458334,73.16633552291667,58.0,73.0
372,72.79940001458334,73.17238391041667,55.0,68.0
373,72.79940001458334,73.18145649166667,62.0,71.0
374,73.28327101458333,74.07056945416667,62.0,77.0
375,73.28327101458333,74.0746017125,58.0,74.0
376,73.28327101458333,74.07863397083334,43.0,57.0
377,73.28327101458333,74.08367429375001,55.0,67.0
378,74.25101301458334,74.77319046875,43.0,93.0
379,74.97681951458334,75.07258565000001,43.0,95.0
380,74.73488401458334,75.18044856041666,58.0,74.0
381,74.73488401458334,75.19556952916668,55.0,72.0
382,74.73488401458334,75.1996017875,62.0,70.0
383,75.21875501458334,75.70968246666666,43.0,100.0
384,75.70262601458333,76.15323088333334,62.0,83.0
385,75.70262601458333,76.1552470125,58.0,85.0
386,75.70262601458333,76.16431959375001,55.0,79.0
387,76.18649701458334,76.70464221041667,46.0,100.0
388,76.91230351458334,77.01008577916667,46.0,117.0
389,76.67036801458333,77.48488419791667,58.0,83.0
390,76.67036801458333,77.48790839166666,62.0,85.0
391,76.67036801458333,77.48992452083334,65.0,83.0
392,77.15423901458334,77.76411808750001,46.0,114.0
393,77.63811001458333,78.14214230625001,62.0,93.0
394,77.63811001458333,78.15423908125,65.0,95.0
395,77.63811001458333,78.15927940416667,58.0,83.0
396,78.12198101458334,78.61996491875,48.0,87.0
397,78.84778751458333,78.94556977916668,48.0,98.0
398,78.60585201458333,79.11694075833334,63.0,90.0
399,78.60585201458333,79.12702140416667,67.0,76.0
400,78.60585201458333,79.1431504375,60.0,81.0
401,79.08972301458334,79.54940046458334,48.0,104.0
402,79.57359401458334,80.0141182375,63.0,87.0
403,79.57359401458334,80.01714243125001,60.0,86.0
404,79.57359401458334,80.02218275416666,67.0,79.0
405,80.05746501458334,80.59879569583333,41.0,86.0
406,80.54133601458334,80.83569087291667,60.0,76.0
407,80.54133601458334,80.842747325,57.0,76.0
408,80.54133601458334,80.86089248750001,53.0,83.0
409,80.78327151458333,80.88911829583334,41.0,104.0
410,81.02520701458334,81.53931995208333,41.0,95.0
411,81.50907801458334,81.99194095,60.0,79.0
412,81.50907801458334,81.99294901458333,57.0,87.0
413,81.50907801458334,82.004037725,53.0,100.0
414,81.99294901458333,82.48690066041667,43.0,108.0
415,82.71875551458334,82.802424875,43.0,111.0
416,82.47682001458334,83.30343297291667,55.0,63.0
417,82.47682001458334,83.30948136041667,58.0,79.0
418,82.47682001458334,83.32460232916667,62.0,79.0
419,82.96069101458333,83.36290878333334,43.0,93.0
420,83.44456201458334,83.88206204375001,62.0,79.0
421,83.44456201458334,83.8850862375,58.0,83.0
422,83.44456201458334,83.89718301250001,55.0,77.0
423,83.92843301458333,84.33569110625001,39.0,85.0
424,84.65423951458334,84.75605403750001,39.0,98.0
425,84.41230401458334,85.004037925,58.0,85.0
426,84.41230401458334,85.0342798625,55.0,83.0
427,84.41230401458334,85.09577180208333,51.0,79.0
428,84.89617501458333,85.40827182291667,39.0,100.0
429,85.38004601458334,85.68851377708334,51.0,86.0
430,85.38004601458334,85.73488474791667,55.0,77.0
431,85.38004601458334,85.75907829791667,58.0,75.0
432,85.86391701458334,86.38105414583333,41.0,86.0
433,85.86391701458334,86.38911866250001,60.0,90.0
434,85.86391701458334,86.39415898541667,53.0,100.0
435,85.86391701458334,86.39919930833334,57.0,90.0
436,86.58972351458334,86.65927997083334,60.0,85.0
437,86.58972351458334,86.68851384375,57.0,86.0
438,86.58972351458334,86.70161868333334,53.0,100.0
439,86.58972351458334,86.74798965416667,41.0,85.0
440,86.83165901458334,87.229844525,60.0,87.0
441,86.83165901458334,87.23186065416667,53.0,95.0
442,86.83165901458334,87.24194130000001,57.0,86.0
443,86.83165901458334,87.36290905,41.0,76.0
444,87.31553001458333,87.3689574375,60.0,68.0
445,87.31553001458333,87.37601388958333,57.0,65.0
446,87.31553001458333,87.37903808333334,53.0,63.0
447,87.55746551458334,87.81048972500001,60.0,90.0
448,87.55746551458334,87.81452198333334,57.0,86.0
449,87.55746551458334,87.8165381125,53.0,95.0
450,87.79940101458334,88.34678008333334,43.0,79.0
451,88.28327201458333,88.56149783958334,58.0,75.0
452,88.28327201458333,88.58165913125,55.0,71.0
453,88.28327201458333,88.6028284875,62.0,77.0
454,88.52520751458334,88.63206236041667,43.0,86.0
455,89.00907851458334,89.08468335833334,62.0,81.0
456,89.00907851458334,89.0987962625,55.0,79.0
457,89.00907851458334,89.10081239166666,58.0,87.0
458,88.76714301458334,89.33770756875,43.0,87.0
459,89.25101401458333,89.73387695000001,62.0,85.0
460,89.25101401458333,89.73790920833333,58.0,85.0
461,89.25101401458333,89.74496566041667,55.0,81.0
462,89.73488501458334,90.2479898875,43.0,74.0
463,90.46069151458333,90.56149797291667,43.0,86.0
464,90.21875601458333,90.68649798125,58.0,75.0
465,90.21875601458333,90.72379637083334,62.0,74.0
466,90.21875601458333,90.7258125,55.0,72.0
467,90.70262701458334,91.24294963125,43.0,86.0
468,91.18649801458334,91.66331256250001,62.0,90.0
469,91.18649801458334,91.66734482083334,58.0,79.0
470,91.18649801458334,91.68347385416668,55.0,74.0
471,91.67036901458334,92.18549001666668,46.0,83.0
472,92.39617551458333,92.49496584375001,46.0,100.0
473,92.15424001458334,92.91633683958334,62.0,77.0
474,92.15424001458334,92.92137716250001,65.0,81.0
475,92.15424001458334,92.92641748541668,58.0,79.0
476,92.63811101458334,93.21371589166667,46.0,81.0
477,93.12198201458334,93.55645785,65.0,93.0
478,93.12198201458334,93.57157881875,62.0,87.0
479,93.12198201458334,93.57762720625,58.0,87.0
480,93.60585301458333,94.14919982500001,48.0,83.0
481,94.33165951458334,94.42742565,48.0,93.0
482,94.08972401458334,94.65625631041667,60.0,79.0
483,94.08972401458334,94.66028856875,63.0,81.0
484,94.08972401458334,94.66028856875,67.0,79.0
485,94.57359501458333,95.07258698333334,48.0,77.0
486,95.05746601458334,95.39113539166667,67.0,81.0
487,95.05746601458334,95.39819184375,63.0,86.0
488,95.05746601458334,95.40424023125,60.0,83.0
489,95.54133701458333,96.08569188958334,38.0,72.0
490,96.02520801458334,96.32157900208334,57.0,69.0
491,96.02520801458334,96.32258706666667,50.0,64.0
492,96.02520801458334,96.32359513125,53.0,81.0
493,96.50907901458334,96.86593387708334,50.0,74.0
494,96.50907901458334,96.86593387708334,57.0,74.0
495,96.50907901458334,96.86694194166667,53.0,90.0
496,96.26714351458334,96.96270807708333,38.0,95.0
497,96.99295001458334,97.33367584375,57.0,74.0
498,96.99295001458334,97.33770810208334,50.0,79.0
499,96.99295001458334,97.34274842500001,53.0,87.0
500,97.47682101458334,97.99496621041668,43.0,95.0
501,98.20262751458334,98.29839365000001,43.0,95.0
502,97.96069201458334,98.54839366666667,58.0,77.0
503,97.96069201458334,98.56049044166667,62.0,77.0
504,97.96069201458334,98.62299044583334,55.0,74.0
505,98.44456301458334,99.00202272916667,43.0,93.0
506,98.92843401458333,99.44053082291667,55.0,77.0
507,98.92843401458333,99.44254695208333,62.0,81.0
508,98.92843401458333,99.44657921041667,58.0,76.0
509,99.41230501458334,99.95262763125001,39.0,87.0
510,99.89617601458333,100.149200225,58.0,59.0
511,99.89617601458333,100.15222441875001,51.0,73.0
512,99.89617601458333,100.16532925833334,55.0,70.0
513,100.13811151458334,100.24496636041667,39.0,100.0
514,100.38004701458334,100.8084744625,39.0,104.0
515,100.86391801458333,101.32661965833334,58.0,83.0
516,100.86391801458333,101.3286357875,51.0,83.0
517,100.86391801458333,101.33065191666667,55.0,77.0
518,101.34778901458334,101.8729906625,41.0,90.0
519,102.07359551458333,102.16028906875,41.0,95.0
520,101.83166001458333,102.33972456458334,57.0,79.0
521,101.83166001458333,102.33972456458334,60.0,74.0
522,101.83166001458333,102.35081327500001,53.0,87.0
523,102.31553101458334,102.87097460000001,41.0,85.0
524,102.79940201458334,103.27520849791667,60.0,79.0
525,102.79940201458334,103.28327301458334,57.0,86.0
526,102.79940201458334,103.29637785416668,53.0,98.0
527,103.28327301458334,103.54032948333334,43.0,98.0
528,103.28327301458334,103.55545045208333,62.0,83.0
529,103.28327301458334,103.5665391625,58.0,90.0
530,103.28327301458334,103.57359561458334,55.0,90.0
531,103.76714401458334,104.05847467916666,60.0,77.0
532,103.76714401458334,104.068555325,53.0,112.0
533,103.76714401458334,104.06956338958334,57.0,95.0
534,103.76714401458334,104.092748875,41.0,93.0
535,104.25101501458334,104.81653924583334,62.0,87.0
536,104.25101501458334,104.82157956875001,43.0,85.0
537,104.25101501458334,104.82258763333334,58.0,95.0
538,104.25101501458334,104.83367634375,55.0,95.0
539,105.21875701458333,105.78327318125001,43.0,63.0
540,105.94456351458334,106.06149900625,38.0,77.0
541,106.18649901458333,106.70061195208334,38.0,81.0
542,105.21875701458333,106.71069259791668,62.0,68.0
543,105.23186185416667,106.81250712083335,58.0,74.0
544,105.23186185416667,106.85383776875001,55.0,49.0
545,107.12198294791668,107.63307169166667,43.0,62.0
546,107.84476525416667,107.93952332500001,38.0,83.0
547,108.1028297875,108.56049110833334,38.0,100.0
548,107.16129746666667,108.62399917708333,62.0,58.0
549,107.07863617083333,108.6290395,58.0,69.0
550,107.08569262291667,108.65020885625,55.0,51.0
551,109.076620175,109.73891860625001,46.0,79.0
552,109.81553151458334,109.92238636041667,46.0,98.0
553,110.05746701458334,110.50504768958334,46.0,108.0
554,108.99698307291668,110.55948317708334,58.0,59.0
555,109.12903953333334,110.56351543541668,65.0,64.0
556,109.01412017083334,110.57157995208334,62.0,71.0
557,110.98891868958334,111.59174131041667,48.0,66.0
558,111.75101551458334,111.8528300375,48.0,86.0
559,111.99295101458334,112.52117685625001,48.0,104.0
560,110.94758804166668,112.63811234791667,63.0,77.0
561,110.97480578541668,112.64315267083335,67.0,70.0
562,110.92037029791668,112.65726557500001,60.0,8.0
563,112.89617688125,113.44456401458334,43.0,61.0
564,113.68649951458333,113.8064592,43.0,79.0
565,112.98589462916667,114.34980601041667,62.0,60.0
566,112.88912042916667,114.36089472083334,55.0,58.0
567,112.8931526875,114.36089472083334,58.0,70.0
568,113.92843501458334,114.36593504375,43.0,87.0
569,114.86795120625001,115.46270931041667,39.0,69.0
570,115.62198351458333,115.73690287708334,39.0,83.0
571,114.84980604375001,116.30746743125,55.0,61.0
572,114.8528302375,116.3165400125,51.0,57.0
573,114.94053185625,116.31855614166668,58.0,15.0
574,115.86391901458335,116.33065291666668,39.0,104.0
575,116.77420133333334,117.41029008541668,41.0,63.0
576,117.55746751458334,117.66533042500001,41.0,86.0
577,117.79940301458333,118.20262884791667,41.0,104.0
578,116.721781975,118.294362725,53.0,54.0
579,116.87702392083334,118.29738691875001,60.0,59.0
580,116.75807230000001,118.30141917708333,57.0,61.0
581,118.71472565625001,119.25504827291667,43.0,63.0
582,118.76714501458333,119.25504827291667,43.0,81.0
583,118.72984662500001,119.26109666041667,62.0,63.0
584,119.25101601458334,119.26109666041667,62.0,71.0
585,118.69254823541667,119.26311278958335,58.0,59.0
586,119.25101601458334,119.26311278958335,58.0,73.0
587,118.69658049375,119.27117730625001,55.0,49.0
588,119.25101601458334,119.27117730625001,55.0,68.0
589,119.49295151458334,119.59678216666667,43.0,98.0
590,119.73488701458334,120.52218545416667,62.0,77.0
591,119.73488701458334,120.5262177125,58.0,74.0
592,119.73488701458334,120.53024997083334,43.0,57.0
593,119.73488701458334,120.53529029375001,55.0,67.0
594,120.70262901458334,121.22480646875,43.0,93.0
595,121.42843551458334,121.52420165000001,43.0,95.0
596,121.18650001458334,121.63206456041667,58.0,74.0
597,121.18650001458334,121.64718552916668,55.0,72.0
598,121.18650001458334,121.6512177875,62.0,70.0
599,121.67037101458334,122.16129846666668,43.0,100.0
600,122.15424201458335,122.60484688333334,62.0,83.0
601,122.15424201458335,122.6068630125,58.0,85.0
602,122.15424201458335,122.61593559375001,55.0,79.0
603,122.63811301458334,123.15625821041667,46.0,100.0
604,123.36391951458334,123.46170177916667,46.0,117.0
605,123.12198401458333,123.93650019791667,58.0,83.0
606,123.12198401458333,123.93952439166667,62.0,85.0
607,123.12198401458333,123.94154052083334,65.0,83.0
608,123.60585501458334,124.21573408750001,46.0,114.0
609,124.08972601458333,124.59375830625001,62.0,93.0
610,124.08972601458333,124.60585508125001,65.0,95.0
611,124.08972601458333,124.61089540416667,58.0,83.0
612,124.57359701458334,125.07158091875,48.0,87.0
613,125.29940351458335,125.39718577916668,48.0,98.0
614,125.05746801458334,125.56855675833334,63.0,90.0
615,125.05746801458334,125.57863740416667,67.0,76.0
616,125.05746801458334,125.59476643750001,60.0,81.0
617,125.54133901458334,126.00101646458334,48.0,104.0
618,126.02521001458334,126.4657342375,63.0,87.0
619,126.02521001458334,126.46875843125001,60.0,86.0
620,126.02521001458334,126.47379875416668,67.0,79.0
621,126.50908101458334,127.05041169583333,41.0,86.0
622,126.99295201458334,127.28730687291667,60.0,76.0
623,126.99295201458334,127.294363325,57.0,76.0
624,126.99295201458334,127.31250848750001,53.0,83.0
625,127.23488751458333,127.34073429583334,41.0,104.0
626,127.47682301458335,127.99093595208333,41.0,95.0
627,127.96069401458334,128.44355695000002,60.0,79.0
628,127.96069401458334,128.44456501458333,57.0,87.0
629,127.96069401458334,128.45565372500002,53.0,100.0
630,128.44456501458333,128.93851666041667,43.0,108.0
631,129.17037151458334,129.25404087500002,43.0,111.0
632,128.92843601458333,129.75504897291668,55.0,63.0
633,128.92843601458333,129.76109736041667,58.0,79.0
634,128.92843601458333,129.77621832916668,62.0,79.0
635,129.41230701458335,129.81452478333333,43.0,93.0
636,129.89617801458334,130.33367804375,62.0,79.0
637,129.89617801458334,130.33670223750002,58.0,83.0
638,129.89617801458334,130.3487990125,55.0,77.0
639,130.38004901458334,130.78730710625,39.0,85.0
640,131.10585551458334,131.2076700375,39.0,98.0
641,130.86392001458333,131.455653925,58.0,85.0
642,130.86392001458333,131.4858958625,55.0,83.0
643,130.86392001458333,131.54738780208334,51.0,79.0
644,131.34779101458335,131.85988782291668,39.0,100.0
645,131.83166201458334,131.96069428125,58.0,75.0
646,131.83166201458334,131.97379912083335,51.0,86.0
647,131.83166201458334,131.97581525,55.0,77.0
648,132.31553301458334,132.83267014583333,41.0,86.0
649,132.31553301458334,132.8407346625,60.0,90.0
650,132.31553301458334,132.84577498541668,53.0,100.0
651,132.31553301458334,132.85081530833335,57.0,90.0
652,133.04133951458334,133.11089597083333,60.0,85.0
653,133.04133951458334,133.14012984375,57.0,86.0
654,133.04133951458334,133.15323468333335,53.0,100.0
655,133.04133951458334,133.19960565416667,41.0,85.0
656,133.28327501458335,133.681460525,60.0,87.0
657,133.28327501458335,133.68347665416667,53.0,95.0
658,133.28327501458335,133.6935573,57.0,86.0
659,133.28327501458335,133.81452505000001,41.0,76.0
660,133.76714601458335,133.8205734375,60.0,68.0
661,133.76714601458335,133.82762988958333,57.0,65.0
662,133.76714601458335,133.83065408333334,53.0,63.0
663,134.00908151458333,134.262105725,60.0,90.0
664,134.00908151458333,134.26613798333335,57.0,86.0
665,134.00908151458333,134.2681541125,53.0,95.0
666,134.25101701458334,134.79839608333333,43.0,79.0
667,134.73488801458333,135.01311383958333,58.0,75.0
668,134.73488801458333,135.03327513125,55.0,71.0
669,134.73488801458333,135.0544444875,62.0,77.0
670,134.97682351458334,135.08367836041668,43.0,86.0
671,135.46069451458334,135.53629935833334,62.0,81.0
672,135.46069451458334,135.5504122625,55.0,79.0
673,135.46069451458334,135.55242839166667,58.0,87.0
674,135.21875901458333,135.78932356875,43.0,81.0
675,135.21875901458333,135.78932356875,43.0,87.0
676,135.70263001458335,136.18750907916666,62.0,90.0
677,135.70263001458335,136.19456553125002,58.0,86.0
678,135.70263001458335,136.22077521041666,55.0,85.0
679,136.18650101458334,136.72883976041666,43.0,95.0
680,136.91230751458335,137.01815429583334,43.0,86.0
681,136.67037201458334,137.48287206875,58.0,83.0
682,136.67037201458334,137.48690432708335,55.0,79.0
683,136.67037201458334,137.48690432708335,62.0,93.0
684,137.15424301458333,137.66029143541667,43.0,98.0
685,137.63811401458335,138.01613823333335,62.0,83.0
686,137.63811401458335,138.03428339583334,58.0,87.0
687,137.63811401458335,138.03831565416667,55.0,83.0
688,138.12198501458334,138.65424311458335,46.0,86.0
689,138.84779151458335,138.93246893958334,46.0,87.0
690,138.60585601458334,139.40726735833334,62.0,77.0
691,138.60585601458334,139.41029155208335,65.0,85.0
692,138.60585601458334,139.42339639166667,58.0,74.0
693,139.08972701458333,139.61896092083333,46.0,95.0
694,139.57359801458335,140.03125933541668,62.0,86.0
695,139.57359801458335,140.04133998125002,65.0,98.0
696,139.57359801458335,140.05847707916666,58.0,81.0
697,140.05746901458335,140.6179529229167,41.0,111.0
698,140.78327551458335,140.87702552083334,41.0,98.0
699,140.54134001458334,141.3205739375,60.0,81.0
700,140.54134001458334,141.32460619583335,57.0,83.0
701,140.54134001458334,141.32863845416668,53.0,87.0
702,141.02521101458333,141.7318642875,41.0,112.0
703,141.50908201458333,141.7681546125,60.0,93.0
704,141.50908201458333,141.786299775,53.0,108.0
705,141.50908201458333,141.79134009791667,57.0,93.0
706,141.99295301458335,142.15323528333334,62.0,90.0
707,141.99295301458335,142.16432399375,58.0,87.0
708,141.99295301458335,142.16634012291667,55.0,85.0
709,141.99295301458335,142.17843689791667,43.0,79.0
710,142.47682401458334,142.67339660833335,60.0,90.0
711,142.47682401458334,142.69053370625,57.0,98.0
712,142.47682401458334,142.70061435208333,53.0,114.0
713,142.47682401458334,142.729848225,41.0,87.0
714,142.96069501458334,143.87500959166667,62.0,90.0
715,142.96069501458334,143.8850902375,58.0,86.0
716,142.96069501458334,143.89920314166667,43.0,83.0
717,142.96069501458334,143.90525152916666,55.0,77.0
718,143.92843701458335,144.42843704791667,43.0,93.0
719,144.65424351458333,144.74496932708334,43.0,104.0
720,144.41230801458335,145.18246935625,58.0,76.0
721,144.41230801458335,145.18347742083333,55.0,69.0
722,144.41230801458335,145.18549355000002,62.0,79.0
723,144.89617901458334,145.40827582291666,43.0,95.0
724,145.38005001458333,145.86694520833333,62.0,85.0
725,145.38005001458333,145.86795327291668,58.0,93.0
726,145.38005001458333,145.88206617708335,55.0,86.0
727,145.86392101458335,146.4002113729167,46.0,108.0
728,146.58972751458333,146.6915420375,41.0,76.0
729,146.34779201458335,147.133074325,58.0,79.0
730,146.34779201458335,147.13408238958334,62.0,83.0
731,146.34779201458335,147.15323561666668,65.0,85.0
732,146.83166301458334,147.36291305,41.0,81.0
733,147.31553401458333,147.65121952083334,65.0,79.0
734,147.31553401458333,147.65827597291667,62.0,83.0
735,147.31553401458333,147.67037274791667,58.0,75.0
736,147.79940501458333,148.35888085833335,48.0,79.0
737,148.52521151458333,148.62803410208335,48.0,87.0
738,148.28327601458335,148.6512195875,63.0,67.0
739,148.28327601458335,148.65525184583333,60.0,60.0
740,148.28327601458335,148.65625991041668,67.0,63.0
741,148.76714701458334,149.18146155833335,48.0,87.0
742,149.25101801458334,149.73488901458333,63.0,75.0
743,149.25101801458334,149.73690514375,67.0,74.0
744,149.25101801458334,149.73791320833334,60.0,74.0
745,149.73488901458333,150.29335679375,41.0,77.0
746,150.46069551458334,150.57057455416668,41.0,100.0
747,150.21876001458335,151.02521168125,53.0,75.0
748,150.21876001458335,151.028235875,57.0,64.0
749,150.21876001458335,151.03529232708334,60.0,67.0
750,150.70263101458335,151.27017137500002,41.0,87.0
751,151.18650201458334,151.66230849791668,57.0,86.0
752,151.18650201458334,151.66230849791668,60.0,83.0
753,151.18650201458334,151.66835688541667,53.0,98.0
754,151.67037301458333,152.16230853125,43.0,87.0
755,152.39617951458334,152.49597790833334,43.0,100.0
756,152.15424401458333,152.62904243333335,58.0,79.0
757,152.15424401458333,152.63408275625,55.0,73.0
758,152.15424401458333,152.63811501458335,62.0,74.0
759,152.63811501458335,153.11896182083333,43.0,90.0
760,153.12198601458334,153.62803443541668,62.0,93.0
761,153.12198601458334,153.6290425,58.0,90.0
762,153.12198601458334,153.6310586291667,55.0,83.0
763,153.60585701458334,154.15222801875,39.0,108.0
764,154.33166351458334,154.43448610208335,39.0,108.0
765,154.08972801458333,154.83670387083333,55.0,76.0
766,154.08972801458333,154.850816775,51.0,81.0
767,154.08972801458333,154.850816775,58.0,77.0
768,154.57359901458335,155.17138131250002,39.0,108.0
769,155.05747001458334,155.28831680416667,55.0,85.0
770,155.05747001458334,155.29033293333333,58.0,79.0
771,155.05747001458334,155.2923490625,51.0,81.0
772,155.54134101458334,156.03630072500002,41.0,100.0
773,155.54134101458334,156.05242975833335,60.0,79.0
774,155.54134101458334,156.05343782291666,53.0,87.0
775,155.54134101458334,156.05646201666667,57.0,83.0
776,156.26714751458334,156.38105881250002,41.0,90.0
777,156.50908301458335,156.883074975,53.0,93.0
778,156.50908301458335,156.88509110416666,60.0,87.0
779,156.50908301458335,156.88609916875,57.0,87.0
780,156.50908301458335,157.03831692083335,41.0,77.0
781,156.99295401458335,157.16936531666667,60.0,86.0
782,156.99295401458335,157.17742983333335,53.0,93.0
783,156.99295401458335,157.17843789791667,57.0,86.0
784,157.47682501458334,158.00404279166668,43.0,81.0
785,158.20263151458335,158.30646216666668,43.0,98.0
786,157.96069601458333,158.32763152291668,58.0,73.0
787,157.96069601458333,158.33367991041666,55.0,68.0
788,157.96069601458333,158.3427524916667,62.0,71.0
789,158.68650251458334,158.73791380833333,62.0,74.0
790,158.68650251458334,158.75605897083335,55.0,75.0
791,158.68650251458334,158.76109929375002,58.0,79.0
792,158.44456701458333,159.23992997083334,43.0,57.0
793,159.17037351458333,159.2419461,62.0,75.0
794,159.17037351458333,159.26210739166666,55.0,76.0
795,159.17037351458333,159.26513158541667,58.0,85.0
796,159.41230901458334,159.93448646875,43.0,93.0
797,160.13811551458335,160.23388165,43.0,95.0
798,159.89618001458334,160.34174456041669,58.0,74.0
799,159.89618001458334,160.35686552916667,55.0,72.0
800,159.89618001458334,160.3608977875,62.0,70.0
801,160.38005101458333,160.87097846666668,43.0,100.0
802,160.86392201458335,161.31452688333334,62.0,83.0
803,160.86392201458335,161.3165430125,58.0,85.0
804,160.86392201458335,161.32561559375,55.0,79.0
805,161.34779301458335,161.8659382104167,46.0,100.0
806,162.07359951458335,162.17138177916667,46.0,117.0
807,161.83166401458334,162.64618019791666,58.0,83.0
808,161.83166401458334,162.64920439166667,62.0,85.0
809,161.83166401458334,162.65122052083333,65.0,83.0
810,162.31553501458333,162.9254140875,46.0,114.0
811,162.79940601458335,163.30343830625,62.0,93.0
812,162.79940601458335,163.31553508125,65.0,95.0
813,162.79940601458335,163.32057540416668,58.0,83.0
814,163.28327701458335,163.78126091875,48.0,87.0
815,164.00908351458335,164.10686577916667,48.0,98.0
816,163.76714801458334,164.27823675833335,63.0,90.0
817,163.76714801458334,164.28831740416666,67.0,76.0
818,163.76714801458334,164.30444643750002,60.0,81.0
819,164.25101901458333,164.71069646458335,48.0,104.0
820,164.73489001458333,165.1754142375,63.0,87.0
821,164.73489001458333,165.17843843125002,60.0,86.0
822,164.73489001458333,165.18347875416669,67.0,79.0
823,165.21876101458335,165.76009169583335,41.0,86.0
824,165.70263201458334,165.99698687291666,60.0,76.0
825,165.70263201458334,166.004043325,57.0,76.0
826,165.70263201458334,166.02218848750002,53.0,83.0
827,165.94456751458335,166.05041429583335,41.0,104.0
828,166.18650301458334,166.70061595208335,41.0,95.0
829,166.67037401458333,167.15323695,60.0,79.0
830,166.67037401458333,167.15424501458335,57.0,87.0
831,166.67037401458333,167.165333725,53.0,100.0
832,167.15424501458335,167.6481966604167,43.0,108.0
833,167.88005151458333,167.963720875,43.0,111.0
834,167.63811601458335,168.46472897291667,55.0,63.0
835,167.63811601458335,168.47077736041666,58.0,79.0
836,167.63811601458335,168.48589832916667,62.0,79.0
837,168.12198701458334,168.52420478333335,43.0,93.0
838,168.60585801458333,169.04335804375,62.0,79.0
839,168.60585801458333,169.0463822375,58.0,83.0
840,168.60585801458333,169.05847901250002,55.0,77.0
841,169.08972901458336,169.49698710625,39.0,85.0
842,169.81553551458333,169.9173500375,39.0,98.0
843,169.57360001458335,170.165333925,58.0,85.0
844,169.57360001458335,170.19557586250002,55.0,83.0
845,169.57360001458335,170.25706780208336,51.0,79.0
846,170.05747101458334,170.56956782291667,39.0,100.0
847,170.54134201458334,170.85686622916668,55.0,77.0
848,170.54134201458334,170.88105977916666,51.0,86.0
849,170.54134201458334,170.89214848958335,58.0,75.0
850,171.02521301458333,171.54235014583335,41.0,86.0
851,171.02521301458333,171.5504146625,60.0,90.0
852,171.02521301458333,171.55545498541667,53.0,100.0
853,171.02521301458333,171.56049530833334,57.0,90.0
854,171.75101951458333,171.82057597083335,60.0,85.0
855,171.75101951458333,171.84980984375,57.0,86.0
856,171.75101951458333,171.86291468333334,53.0,100.0
857,171.75101951458333,171.90928565416667,41.0,85.0
858,171.99295501458334,172.391140525,60.0,87.0
859,171.99295501458334,172.3931566541667,53.0,95.0
860,171.99295501458334,172.4032373,57.0,86.0
861,171.99295501458334,172.52420505,41.0,76.0
862,172.47682601458334,172.53025343750002,60.0,68.0
863,172.47682601458334,172.53730988958336,57.0,65.0
864,172.47682601458334,172.54033408333333,53.0,63.0
865,172.71876151458335,172.97178572500002,60.0,90.0
866,172.71876151458335,172.97581798333334,57.0,86.0
867,172.71876151458335,172.9778341125,53.0,95.0
868,172.96069701458333,173.50807608333335,43.0,79.0
869,173.44456801458335,173.72279383958335,58.0,75.0
870,173.44456801458335,173.74295513125,55.0,71.0
871,173.44456801458335,173.7641244875,62.0,77.0
872,173.68650351458334,173.79335836041668,43.0,86.0
873,174.17037451458333,174.24597935833333,62.0,81.0
874,174.17037451458333,174.2600922625,55.0,79.0
875,174.17037451458333,174.2621083916667,58.0,87.0
876,173.92843901458335,174.49900356875,43.0,87.0
877,174.41231001458334,174.89517295000002,62.0,85.0
878,174.41231001458334,174.89920520833334,58.0,85.0
879,174.41231001458334,174.90626166041667,55.0,81.0
880,174.89618101458333,175.39013266041667,43.0,108.0
881,175.62198751458334,175.70565687500002,43.0,111.0
882,175.38005201458336,176.20666497291668,55.0,63.0
883,175.38005201458336,176.21271336041667,58.0,79.0
884,175.38005201458336,176.22783432916668,62.0,79.0
885,175.86392301458335,176.26614078333336,43.0,93.0
886,176.34779401458334,176.78529404375,62.0,79.0
887,176.34779401458334,176.78831823750002,58.0,83.0
888,176.34779401458334,176.8004150125,55.0,77.0
889,176.83166501458334,177.23892310625,39.0,85.0
890,177.55747151458334,177.6592860375,39.0,98.0
891,177.31553601458333,177.907269925,58.0,85.0
892,177.31553601458333,177.9375118625,55.0,83.0
893,177.31553601458333,177.99900380208334,51.0,79.0
894,177.79940701458335,178.31150382291668,39.0,100.0
895,178.28327801458335,178.41231028125,58.0,75.0
896,178.28327801458335,178.42541512083335,51.0,86.0
897,178.28327801458335,178.42743125,55.0,77.0
898,178.76714901458334,179.28428614583333,41.0,86.0
899,178.76714901458334,179.2923506625,60.0,90.0
900,178.76714901458334,179.29739098541668,53.0,100.0
901,178.76714901458334,179.30243130833335,57.0,90.0
902,179.49295551458334,179.56251197083336,60.0,85.0
903,179.49295551458334,179.59174584375,57.0,86.0
904,179.49295551458334,179.60485068333335,53.0,100.0
905,179.49295551458334,179.65122165416668,41.0,85.0
906,179.73489101458335,180.133076525,60.0,87.0
907,179.73489101458335,180.13509265416667,53.0,95.0
908,179.73489101458335,180.1451733,57.0,86.0
909,179.73489101458335,180.26614105000002,41.0,76.0
910,180.21876201458335,180.2721894375,60.0,68.0
911,180.21876201458335,180.27924588958334,57.0,65.0
912,180.21876201458335,180.28227008333334,53.0,63.0
913,180.46069751458333,180.713721725,60.0,90.0
914,180.46069751458333,180.71775398333335,57.0,86.0
915,180.46069751458333,180.71977011250002,53.0,95.0
916,180.70263301458334,181.14114110833333,39.0,81.0
917,181.42843951458335,181.52319758541668,39.0,111.0
918,181.18650401458333,181.55243145833333,58.0,68.0
919,181.18650401458333,181.67037501458333,51.0,72.0
920,181.18650401458333,181.67037501458333,55.0,70.0
921,181.91231051458334,181.9778347125,60.0,75.0
922,181.91231051458334,181.9838831,53.0,72.0
923,181.91231051458334,181.98489116458333,57.0,74.0
924,181.67037501458333,182.24093956875,41.0,86.0
925,182.15424601458335,182.53327829791667,57.0,93.0
926,182.15424601458335,182.53529442708333,60.0,85.0
927,182.15424601458335,182.55646378333336,53.0,108.0
928,182.63811701458334,183.22178640833334,55.0,72.0
929,182.63811701458334,183.22481060208335,58.0,71.0
930,182.63811701458334,183.22481060208335,62.0,72.0
931,183.36392351458335,183.42239126041667,62.0,77.0
932,183.36392351458335,183.43549610000002,55.0,71.0
933,183.36392351458335,183.44053642291667,58.0,77.0
934,183.36392351458335,183.51714933125,38.0,77.0
935,182.63811701458334,183.60585901458333,43.0,70.0
936,183.60585901458333,184.1512219541667,38.0,100.0
937,183.60585901458333,184.15424614791667,55.0,76.0
938,183.60585901458333,184.15424614791667,62.0,83.0
939,183.60585901458333,184.1613026,58.0,79.0
940,184.33166551458334,184.68045586041669,58.0,75.0
941,184.33166551458334,184.73892360625,62.0,81.0
942,184.33166551458334,184.76311715625002,55.0,75.0
943,185.29940751458335,185.3729962291667,58.0,73.0
944,185.29940751458335,185.37803655208333,62.0,79.0
945,185.29940751458335,185.37803655208333,65.0,79.0
946,185.29940751458335,185.40525429583334,41.0,93.0
947,185.54134301458333,186.07763337291667,41.0,87.0
948,185.54134301458333,186.07964950208336,62.0,87.0
949,185.54134301458333,186.07964950208336,65.0,87.0
950,185.54134301458333,186.0867059541667,58.0,79.0
951,184.57360101458335,186.09577853541668,46.0,104.0
952,186.50908501458335,187.02319795208334,41.0,111.0
953,186.99295601458334,187.08771408541668,60.0,74.0
954,186.99295601458334,187.09376247291667,53.0,81.0
955,186.99295601458334,187.10182698958334,57.0,69.0
956,187.22279473958335,187.32763345625,41.0,100.0
957,187.47682701458334,187.76513348541667,60.0,90.0
958,187.47682701458334,187.76815767916668,57.0,87.0
959,187.47682701458334,187.77521413125,53.0,87.0
960,187.47682701458334,187.92037543125002,41.0,121.0
961,188.44456901458335,188.9929561479167,39.0,81.0
962,188.92844001458334,189.05848034583335,51.0,81.0
963,188.92844001458334,189.05848034583335,55.0,77.0
964,188.92844001458334,189.05848034583335,58.0,79.0
965,189.18247228958333,189.26815777916667,39.0,122.0
966,189.41231101458334,189.72077877708335,55.0,85.0
967,189.41231101458334,189.72884329375,58.0,90.0
968,189.41231101458334,189.74799652083334,51.0,86.0
969,189.41231101458334,189.84678685,39.0,123.0
970,190.38005301458335,190.92239176041667,43.0,104.0
971,191.10585951458333,191.19860145625,43.0,111.0
972,190.86392401458335,191.65827890625002,67.0,87.0
973,190.86392401458335,191.66029503541668,62.0,90.0
974,190.86392401458335,191.66231116458334,58.0,79.0
975,191.34779501458334,191.80948859375002,43.0,95.0
976,191.83166601458333,192.35283540416668,67.0,87.0
977,191.83166601458333,192.36190798541668,62.0,90.0
978,191.83166601458333,192.38307734166668,58.0,87.0
979,192.31553701458336,192.84477092083335,46.0,108.0
980,193.04134351458333,193.14719029583335,46.0,120.0
981,192.79940801458335,193.1794483625,62.0,83.0
982,192.79940801458335,193.23085965625,58.0,77.0
983,192.79940801458335,193.26513385208335,65.0,87.0
984,193.28327901458334,193.75606130416668,46.0,83.0
985,193.76715001458334,194.2560613375,62.0,87.0
986,193.76715001458334,194.25807746666666,58.0,85.0
987,193.76715001458334,194.26009359583335,65.0,90.0
988,194.25102101458333,194.8084807291667,41.0,100.0
989,194.73489201458335,194.99598074166667,53.0,74.0
990,194.73489201458335,194.99900493541668,60.0,73.0
991,194.73489201458335,195.00404525833335,57.0,73.0
992,194.97682751458333,195.07965010208335,41.0,108.0
993,195.21876301458335,195.80948886041668,41.0,108.0
994,195.70263401458334,196.18751307916668,60.0,85.0
995,195.70263401458334,196.18852114375002,57.0,90.0
996,195.70263401458334,196.1915453375,53.0,104.0
997,196.18650501458333,196.44255341875,58.0,87.0
998,196.18650501458333,196.44557761250002,62.0,86.0
999,196.18650501458333,196.45767438750002,55.0,86.0
1000,196.18650501458333,196.47884374375002,43.0,100.0
1001,196.67037601458335,196.91029538541667,60.0,81.0
1002,196.67037601458335,196.92138409583333,53.0,93.0
1003,196.67037601458335,196.92743248333335,57.0,86.0
1004,196.67037601458335,196.96775506666668,41.0,98.0
1005,197.15424701458335,197.53932768541668,43.0,87.0
1006,197.15424701458335,197.63811801458334,55.0,76.0
1007,197.15424701458335,197.63811801458334,58.0,83.0
1008,197.15424701458335,197.63811801458334,62.0,85.0
1009,197.88005351458335,197.94960997083334,60.0,74.0
1010,197.88005351458335,197.9516261,57.0,83.0
1011,197.88005351458335,197.96271481041668,53.0,85.0
1012,197.88005351458335,198.00706965208335,41.0,87.0
1013,198.12198901458333,198.1935616,58.0,85.0
1014,198.12198901458333,198.19658579375002,62.0,83.0
1015,198.12198901458333,198.20263418125,55.0,79.0
1016,198.12198901458333,198.21775515000002,43.0,93.0
1017,198.36392451458335,198.54235194583333,58.0,104.0
1018,198.36392451458335,198.54537613958334,62.0,98.0
1019,198.36392451458335,198.55545678541668,55.0,100.0
1020,198.36392451458335,198.57763420625,43.0,112.0
