,start,end,pitch,velocity
0,28.864836000000004,29.435781375,66.0,80.0
1,29.472943500000003,29.565848812500004,64.0,80.0
2,29.675646000000004,30.057402375000002,62.0,77.0
3,30.081051000000002,30.403685812500004,57.0,78.0
4,30.486456000000004,30.773617875000003,62.0,78.0
5,30.891861000000002,31.236455250000002,66.0,67.0
6,31.297266000000004,32.005035562500005,64.0,77.0
7,32.108076000000004,32.552332312500006,66.0,80.0
8,32.7161835,32.858075250000006,64.0,68.0
9,32.918886,33.172264125000005,62.0,78.0
10,33.324291,33.631723125,54.0,78.0
11,33.729696000000004,34.037128125,59.0,72.0
12,34.135101000000006,34.4611141875,62.0,63.0
13,34.540506,35.2296945,61.0,77.0
14,35.351316000000004,35.645234625,62.0,76.0
15,35.756721000000006,35.922261375000005,61.0,80.0
16,35.9594235,36.846246937500005,59.0,74.0
17,36.972936000000004,37.2955708125,61.0,77.0
18,37.378341000000006,37.520232750000005,59.0,76.0
19,37.5810435,38.564150625,57.0,74.0
20,38.999961000000006,39.119893312500004,62.0,77.0
21,39.20266350000001,39.3428660625,62.0,72.0
22,39.405366,39.697595437500006,67.0,70.0
23,39.810771,40.238135437500006,66.0,78.0
24,40.216176000000004,40.5861080625,64.0,77.0
25,40.621581000000006,40.753337625,62.0,77.0
26,40.82428350000001,41.016850875,66.0,77.0
27,41.026986,41.6908366875,64.0,81.0
28,41.837796000000004,42.408741375000005,66.0,80.0
29,42.44590350000001,42.5388088125,64.0,80.0
30,42.648606,43.030362375,62.0,77.0
31,43.054011,43.3766458125,57.0,78.0
32,43.459416000000004,43.74657787500001,62.0,78.0
33,43.864821000000006,44.209415250000006,66.0,67.0
34,44.270226,44.977995562500006,64.0,77.0
35,45.081036000000005,45.52529231250001,66.0,80.0
36,45.68914350000001,45.831035250000006,64.0,68.0
37,45.891846,46.145224125000006,62.0,78.0
38,46.297251,46.604683125,54.0,78.0
39,46.702656000000005,47.010088125,59.0,72.0
40,47.108061000000006,47.4340741875,62.0,63.0
41,47.513466,48.2026545,61.0,77.0
42,48.324276000000005,48.618194625,62.0,76.0
43,48.72968100000001,48.895221375000006,61.0,80.0
44,48.93238350000001,49.819206937500006,59.0,74.0
45,49.945896000000005,50.2685308125,61.0,77.0
46,50.35130100000001,50.493192750000006,59.0,76.0
47,50.55400350000001,51.537110625000004,57.0,74.0
48,51.97292100000001,52.092853312500004,62.0,77.0
49,52.17562350000001,52.3158260625,62.0,72.0
50,52.378326,52.670555437500006,67.0,70.0
51,52.783731,53.211095437500006,66.0,78.0
52,53.189136000000005,53.5590680625,64.0,77.0
53,53.59454100000001,53.72629762500001,62.0,77.0
54,53.79724350000001,53.989810875,66.0,77.0
55,53.999946,54.6637966875,64.0,81.0
56,55.21616100000001,55.62156600000001,66.0,80.0
57,55.62156600000001,56.68744331250001,62.0,78.0
58,56.83778100000001,57.15028068750001,64.0,78.0
59,57.24318600000001,58.217847187500006,62.0,77.0
60,58.45940100000001,58.6198738125,61.0,78.0
61,58.66210350000001,58.77696825,59.0,77.0
62,58.86480600000001,59.21108943750001,57.0,81.0
63,59.270211,59.550616125000005,62.0,80.0
64,59.675616000000005,59.99994,66.0,80.0
65,60.08102100000001,60.442507125000006,67.0,74.0
66,60.48642600000001,61.5590600625,64.0,81.0
67,61.70264100000001,62.10128925000001,66.0,76.0
68,62.10804600000001,62.9678424375,62.0,76.0
69,63.121558500000006,63.29892318750001,62.0,74.0
70,63.32426100000001,63.624936375000004,64.0,78.0
71,63.72966600000001,64.67730018750001,62.0,77.0
72,64.945881,65.070880875,61.0,78.0
73,65.1485835,65.29385362500001,59.0,80.0
74,65.351286,65.68067756250001,57.0,78.0
75,65.756691,66.070879875,62.0,77.0
76,66.162096,66.4745956875,66.0,77.0
77,66.56750100000001,66.881689875,67.0,76.0
78,66.97290600000001,67.543851375,64.0,80.0
79,67.78371600000001,68.266823625,71.0,78.0
80,68.3918235,68.54722875,69.0,77.0
81,68.594526,68.90702568750001,66.0,72.0
82,68.999931,69.30736312500001,69.0,78.0
83,69.405336,69.68743031250001,69.0,76.0
84,69.81074100000001,70.09621368750001,66.0,75.0
85,70.21614600000001,70.9239155625,64.0,82.0
86,71.02695600000001,71.523577125,71.0,76.0
87,71.6350635,71.7651309375,69.0,76.0
88,71.837766,72.13844137500001,66.0,75.0
89,72.243171,72.5354004375,69.0,76.0
90,72.648576,72.918846,69.0,78.0
91,73.05398100000001,73.16884575,66.0,77.0
92,73.25668350000001,73.36479150000001,64.0,79.0
93,73.45938600000001,74.1502636875,62.0,76.0
94,74.27019600000001,74.56749300000001,62.0,78.0
95,74.675601,74.814114375,64.0,77.0
96,74.8783035,75.7752620625,66.0,77.0
97,75.891816,76.192491375,69.0,77.0
98,76.29722100000001,76.44924787500001,66.0,74.0
99,76.49992350000001,77.334382125,64.0,78.0
100,77.51343600000001,78.02019225000001,69.0,77.0
101,78.1215435,78.30904331250001,66.0,76.0
102,78.324246,78.6570159375,62.0,71.0
103,78.729651,79.05566418750001,64.0,77.0
104,79.135056,79.4576908125,66.0,76.0
105,79.54046100000001,79.84282556250001,69.0,77.0
106,79.94586600000001,80.62660856250001,64.0,77.0
107,80.75667600000001,81.239783625,71.0,78.0
108,81.3647835,81.52018875,69.0,77.0
109,81.567486,81.87998568750001,66.0,72.0
110,81.972891,82.28032312500001,69.0,78.0
111,82.378296,82.66039031250001,69.0,76.0
112,82.78370100000001,83.06917368750001,66.0,75.0
113,83.18910600000001,83.89687556250001,64.0,82.0
114,83.99991600000001,84.496537125,71.0,76.0
115,84.6080235,84.7380909375,69.0,76.0
116,84.810726,85.11140137500001,66.0,75.0
117,85.216131,85.5083604375,69.0,76.0
118,85.621536,85.891806,69.0,78.0
119,86.02694100000001,86.14180575,66.0,77.0
120,86.22964350000001,86.33775150000001,64.0,79.0
121,86.43234600000001,87.1232236875,62.0,76.0
122,87.24315600000001,87.54045300000001,62.0,78.0
123,87.648561,87.787074375,64.0,77.0
124,87.8512635,88.7482220625,66.0,77.0
125,88.864776,89.165451375,69.0,77.0
126,89.27018100000001,89.42220787500001,66.0,74.0
127,89.47288350000001,90.307342125,64.0,78.0
128,90.48639600000001,90.99315225000001,69.0,77.0
129,91.0945035,91.28200331250001,66.0,76.0
130,91.297206,91.6299759375,62.0,71.0
131,91.702611,92.02862418750001,64.0,77.0
132,92.108016,92.4306508125,66.0,76.0
133,92.51342100000001,92.81578556250001,69.0,77.0
134,92.91882600000001,93.59956856250001,64.0,77.0
135,94.13504100000002,94.53031087500001,66.0,77.0
136,94.540446,96.30057937500001,62.0,77.0
137,107.513406,107.8157705625,62.0,76.0
138,107.918811,108.216108,66.0,71.0
139,108.324216,108.60124275000001,64.0,76.0
140,108.72962100000001,109.030296375,66.0,67.0
141,109.13502600000001,109.43739056250001,62.0,66.0
142,109.54043100000001,109.84279556250002,66.0,74.0
143,109.94583600000001,110.47455168750001,64.0,77.0
144,110.756646,111.06914568750001,62.0,73.0
145,111.162051,111.4036048125,66.0,67.0
146,111.567456,111.87488812500001,64.0,76.0
147,111.97286100000001,112.32590118750001,66.0,65.0
148,112.37826600000001,113.40867037500001,62.0,75.0
149,113.999886,114.36981806250002,62.0,65.0
150,114.405291,114.72285825000002,66.0,64.0
151,114.81069600000001,115.11306056250001,64.0,77.0
152,115.21610100000001,115.59954656250001,66.0,69.0
153,115.62150600000001,116.67386981250002,69.0,72.0
154,116.83772100000002,117.02691000000002,66.0,69.0
155,117.04042350000002,117.18400443750001,64.0,76.0
156,117.243126,118.86474600000001,62.0,74.0
157,119.67555600000001,120.24650137500001,66.0,80.0
158,120.28366350000002,120.37656881250001,64.0,80.0
159,120.486366,120.86812237500001,62.0,77.0
160,120.891771,121.2144058125,57.0,78.0
161,121.29717600000001,121.58433787500002,62.0,78.0
162,121.70258100000001,122.04717525000001,66.0,67.0
163,122.10798600000001,122.81575556250002,64.0,77.0
164,122.91879600000001,123.36305231250002,66.0,80.0
165,123.52690350000002,123.66879525000002,64.0,68.0
166,123.729606,123.98298412500002,62.0,78.0
167,124.135011,124.44244312500001,54.0,78.0
168,124.54041600000001,124.84784812500001,59.0,72.0
169,124.94582100000001,125.2718341875,62.0,63.0
170,125.35122600000001,126.04041450000001,61.0,77.0
171,126.16203600000001,126.45595462500002,62.0,76.0
172,126.56744100000002,126.73298137500001,61.0,80.0
173,126.77014350000002,127.65696693750002,59.0,74.0
174,127.78365600000001,128.10629081250002,61.0,77.0
175,128.189061,128.33095275000002,59.0,76.0
176,128.39176350000002,129.374870625,57.0,74.0
177,129.81068100000002,129.93061331250001,62.0,77.0
178,130.0133835,130.1535860625,62.0,72.0
179,130.21608600000002,130.50831543750002,67.0,70.0
180,130.62149100000002,131.0488554375,66.0,78.0
181,131.02689600000002,131.39682806250002,64.0,77.0
182,131.43230100000002,131.564057625,62.0,77.0
183,131.6350035,131.82757087500002,66.0,77.0
184,131.83770600000003,132.5015566875,64.0,81.0
185,132.648516,133.219461375,66.0,80.0
186,133.25662350000002,133.3495288125,64.0,80.0
187,133.459326,133.841082375,62.0,77.0
188,133.864731,134.18736581250002,57.0,78.0
189,134.270136,134.55729787500002,62.0,78.0
190,134.675541,135.02013525,66.0,67.0
191,135.080946,135.78871556250002,64.0,77.0
192,135.89175600000002,136.3360123125,66.0,80.0
193,136.4998635,136.64175525000002,64.0,68.0
194,136.70256600000002,136.955944125,62.0,78.0
195,137.10797100000002,137.415403125,54.0,78.0
196,137.51337600000002,137.820808125,59.0,72.0
197,137.91878100000002,138.24479418750002,62.0,63.0
198,138.32418600000003,139.01337450000003,61.0,77.0
199,139.134996,139.428914625,62.0,76.0
200,139.540401,139.705941375,61.0,80.0
201,139.74310350000002,140.62992693750002,59.0,74.0
202,140.756616,141.07925081250002,61.0,77.0
203,141.162021,141.30391275000002,59.0,76.0
204,141.36472350000003,142.347830625,57.0,74.0
205,142.78364100000002,142.90357331250001,62.0,77.0
206,142.9863435,143.1265460625,62.0,72.0
207,143.18904600000002,143.48127543750002,67.0,70.0
208,143.59445100000002,144.0218154375,66.0,78.0
209,143.99985600000002,144.36978806250002,64.0,77.0
210,144.40526100000002,144.537017625,62.0,77.0
211,144.6079635,144.80053087500002,66.0,77.0
212,144.81066600000003,145.4745166875,64.0,81.0
213,146.026881,146.432286,66.0,80.0
214,146.432286,147.49816331250003,62.0,78.0
215,147.648501,147.96100068750002,64.0,78.0
216,148.053906,149.02856718750002,62.0,77.0
217,149.27012100000002,149.4305938125,61.0,78.0
218,149.4728235,149.58768825,59.0,77.0
219,149.67552600000002,150.02180943750002,57.0,81.0
220,150.08093100000002,150.361336125,62.0,80.0
221,150.48633600000002,150.81066,66.0,80.0
222,150.89174100000002,151.25322712500002,67.0,74.0
223,151.29714600000003,152.3697800625,64.0,81.0
224,152.513361,152.91200925,66.0,76.0
225,152.918766,153.7785624375,62.0,76.0
226,153.93227850000002,154.1096431875,62.0,74.0
227,154.134981,154.435656375,64.0,78.0
228,154.540386,155.4880201875,62.0,77.0
229,155.75660100000002,155.881600875,61.0,78.0
230,155.9593035,156.104573625,59.0,80.0
231,156.16200600000002,156.49139756250003,57.0,78.0
232,156.56741100000002,156.881599875,62.0,77.0
233,156.97281600000002,157.2853156875,66.0,77.0
234,157.37822100000002,157.692409875,67.0,76.0
235,157.78362600000003,158.354571375,64.0,80.0
236,158.594436,159.077543625,71.0,78.0
237,159.20254350000002,159.35794875000002,69.0,77.0
238,159.405246,159.7177456875,66.0,72.0
239,159.810651,160.11808312500003,69.0,78.0
240,160.216056,160.4981503125,69.0,76.0
241,160.621461,160.90693368750001,66.0,75.0
242,161.026866,161.73463556250002,64.0,82.0
243,161.83767600000002,162.334297125,71.0,76.0
244,162.4457835,162.5758509375,69.0,76.0
245,162.64848600000002,162.94916137500002,66.0,75.0
246,163.05389100000002,163.34612043750002,69.0,76.0
247,163.45929600000002,163.729566,69.0,78.0
248,163.86470100000003,163.97956575,66.0,77.0
249,164.0674035,164.17551150000003,64.0,79.0
250,164.27010600000003,164.9609836875,62.0,76.0
251,165.080916,165.37821300000002,62.0,78.0
252,165.486321,165.624834375,64.0,77.0
253,165.68902350000002,166.58598206250002,66.0,77.0
254,166.702536,167.003211375,69.0,77.0
255,167.107941,167.259967875,66.0,74.0
256,167.31064350000003,168.14510212500002,64.0,78.0
257,168.32415600000002,168.83091225,69.0,77.0
258,168.9322635,169.11976331250003,66.0,76.0
259,169.13496600000002,169.4677359375,62.0,71.0
260,169.54037100000002,169.86638418750002,64.0,77.0
261,169.94577600000002,170.2684108125,66.0,76.0
262,170.35118100000003,170.65354556250003,69.0,77.0
263,170.75658600000003,171.43732856250003,64.0,77.0
264,171.567396,172.050503625,71.0,78.0
265,172.17550350000002,172.33090875000002,69.0,77.0
266,172.378206,172.6907056875,66.0,72.0
267,172.783611,173.09104312500003,69.0,78.0
268,173.189016,173.4711103125,69.0,76.0
269,173.594421,173.87989368750002,66.0,75.0
270,173.999826,174.70759556250002,64.0,82.0
271,174.81063600000002,175.307257125,71.0,76.0
272,175.4187435,175.5488109375,69.0,76.0
273,175.62144600000002,175.92212137500002,66.0,75.0
274,176.02685100000002,176.31908043750002,69.0,76.0
275,176.43225600000002,176.702526,69.0,78.0
276,176.83766100000003,176.95252575,66.0,77.0
277,177.0403635,177.14847150000003,64.0,79.0
278,177.24306600000003,177.9339436875,62.0,76.0
279,178.053876,178.35117300000002,62.0,78.0
280,178.459281,178.597794375,64.0,77.0
281,178.66198350000002,179.55894206250002,66.0,77.0
282,179.675496,179.976171375,69.0,77.0
283,180.080901,180.23292787500003,66.0,74.0
284,180.28360350000003,181.11806212500002,64.0,78.0
285,181.29711600000002,181.80387225,69.0,77.0
286,181.9052235,182.09272331250003,66.0,76.0
287,182.10792600000002,182.4406959375,62.0,71.0
288,182.51333100000002,182.83934418750002,64.0,77.0
289,182.91873600000002,183.2413708125,66.0,76.0
290,183.32414100000003,183.62650556250003,69.0,77.0
291,183.72954600000003,184.41028856250003,64.0,77.0
292,184.945761,185.34103087500003,66.0,77.0
293,185.351166,187.11129937500002,62.0,77.0
294,212.107896,212.591003625,71.0,78.0
295,212.71600350000003,212.87140875000003,69.0,77.0
296,212.91870600000001,213.23120568750002,66.0,72.0
297,213.32411100000002,213.631543125,69.0,78.0
298,213.72951600000002,214.0116103125,69.0,76.0
299,214.13492100000002,214.42039368750002,66.0,75.0
300,214.54032600000002,215.24809556250003,64.0,82.0
301,215.35113600000003,215.84775712500002,71.0,76.0
302,215.9592435,216.08931093750002,69.0,76.0
303,216.16194600000003,216.46262137500003,66.0,75.0
304,216.56735100000003,216.85958043750003,69.0,76.0
305,216.97275600000003,217.24302600000001,69.0,78.0
306,217.378161,217.49302575000002,66.0,77.0
307,217.58086350000002,217.6889715,64.0,79.0
308,217.783566,218.4744436875,62.0,76.0
309,218.594376,218.89167300000003,62.0,78.0
310,218.999781,219.13829437500002,64.0,77.0
311,219.20248350000003,220.09944206250003,66.0,77.0
312,220.21599600000002,220.51667137500002,69.0,77.0
313,220.62140100000002,220.773427875,66.0,74.0
314,220.8241035,221.65856212500003,64.0,78.0
315,221.83761600000003,222.34437225000002,69.0,77.0
316,222.4457235,222.6332233125,66.0,76.0
317,222.64842600000003,222.98119593750002,62.0,71.0
318,223.05383100000003,223.37984418750003,64.0,77.0
319,223.45923600000003,223.78187081250002,66.0,76.0
320,223.864641,224.1670055625,69.0,77.0
321,224.270046,224.9507885625,64.0,77.0
322,225.080856,225.563963625,71.0,78.0
323,225.68896350000003,225.84436875000003,69.0,77.0
324,225.89166600000001,226.20416568750002,66.0,72.0
325,226.29707100000002,226.604503125,69.0,78.0
326,226.70247600000002,226.9845703125,69.0,76.0
327,227.10788100000002,227.39335368750002,66.0,75.0
328,227.51328600000002,228.22105556250003,64.0,82.0
329,228.32409600000003,228.82071712500002,71.0,76.0
330,228.9322035,229.06227093750002,69.0,76.0
331,229.13490600000003,229.43558137500003,66.0,75.0
332,229.54031100000003,229.83254043750003,69.0,76.0
333,229.94571600000003,230.21598600000002,69.0,78.0
334,230.35112100000003,230.46598575000002,66.0,77.0
335,230.55382350000002,230.6619315,64.0,79.0
336,230.756526,231.4474036875,62.0,76.0
337,231.567336,231.86463300000003,62.0,78.0
338,231.972741,232.11125437500002,64.0,77.0
339,232.17544350000003,233.07240206250003,66.0,77.0
340,233.18895600000002,233.48963137500002,69.0,77.0
341,233.59436100000002,233.746387875,66.0,74.0
342,233.7970635,234.63152212500003,64.0,78.0
343,234.81057600000003,235.31733225000002,69.0,77.0
344,235.41868350000001,235.6061833125,66.0,76.0
345,235.62138600000003,235.95415593750002,62.0,71.0
346,236.02679100000003,236.35280418750003,64.0,77.0
347,236.43219600000003,236.75483081250002,66.0,76.0
348,236.83760100000003,237.1399655625,69.0,77.0
349,237.243006,237.9237485625,64.0,77.0
350,238.053816,238.53692362500001,71.0,78.0
351,238.66192350000003,238.81732875000003,69.0,77.0
352,238.86462600000002,239.17712568750002,66.0,72.0
353,239.27003100000002,239.577463125,69.0,78.0
354,239.67543600000002,239.9575303125,69.0,76.0
355,240.08084100000002,240.36631368750002,66.0,75.0
356,240.48624600000002,241.19401556250003,64.0,82.0
357,241.29705600000003,241.79367712500002,71.0,76.0
358,241.90516350000001,242.03523093750002,69.0,76.0
359,242.10786600000003,242.40854137500003,66.0,75.0
360,242.51327100000003,242.80550043750003,69.0,76.0
361,242.91867600000003,243.18894600000002,69.0,78.0
362,243.32408100000004,243.43894575000002,66.0,77.0
363,243.52678350000002,243.6348915,64.0,79.0
364,243.729486,244.42036368750001,62.0,76.0
365,244.540296,244.83759300000003,62.0,78.0
366,244.945701,245.08421437500002,64.0,77.0
367,245.14840350000003,246.04536206250003,66.0,77.0
368,246.16191600000002,246.46259137500002,69.0,77.0
369,246.56732100000002,246.719347875,66.0,74.0
370,246.77002350000004,247.60448212500003,64.0,78.0
371,247.78353600000003,248.29029225000002,69.0,77.0
372,248.39164350000001,248.5791433125,66.0,76.0
373,248.59434600000003,248.92711593750002,62.0,71.0
374,248.99975100000003,249.32576418750003,64.0,77.0
375,249.40515600000003,249.72779081250002,66.0,76.0
376,249.81056100000004,250.1129255625,69.0,77.0
377,250.215966,250.8967085625,64.0,77.0
378,251.026776,251.50988362500001,71.0,78.0
379,251.63488350000003,251.79028875000003,69.0,77.0
380,251.83758600000002,252.15008568750002,66.0,72.0
381,252.24299100000002,252.550423125,69.0,78.0
382,252.64839600000002,252.9304903125,69.0,76.0
383,253.05380100000002,253.33927368750003,66.0,75.0
384,253.45920600000002,254.16697556250003,64.0,82.0
385,254.27001600000003,254.76663712500002,71.0,76.0
386,254.87812350000002,255.00819093750002,69.0,76.0
387,255.08082600000003,255.38150137500003,66.0,75.0
388,255.48623100000003,255.77846043750003,69.0,76.0
389,255.89163600000003,256.16190600000004,69.0,78.0
390,256.29704100000004,256.41190575,66.0,77.0
391,256.4997435,256.60785150000004,64.0,79.0
392,256.702446,257.3933236875,62.0,76.0
393,257.513256,257.810553,62.0,78.0
394,257.91866100000004,258.05717437500005,64.0,77.0
395,258.12136350000003,259.01832206250003,66.0,77.0
396,259.134876,259.43555137500005,69.0,77.0
397,259.54028100000005,259.69230787500004,66.0,74.0
398,259.74298350000004,260.577442125,64.0,78.0
399,260.756496,261.26325225000005,69.0,77.0
400,261.36460350000004,261.55210331250004,66.0,76.0
401,261.56730600000003,261.90007593750005,62.0,71.0
402,261.972711,262.2987241875,64.0,77.0
403,262.37811600000003,262.7007508125,66.0,76.0
404,262.783521,263.08588556250004,69.0,77.0
405,263.18892600000004,263.8696685625,64.0,77.0
406,264.405141,264.800410875,66.0,77.0
407,264.81054600000004,266.570679375,62.0,77.0
