,start,end,pitch,velocity
0,3.7297260000000003,4.131752625000001,62.0,67.0
1,3.7297260000000003,4.1908741875,66.0,67.0
2,3.7297260000000003,4.8699275625,50.0,72.0
3,4.135131,4.881751875000001,57.0,61.0
4,4.540536,4.9526977500000005,66.0,77.0
5,4.945941,5.3699270625,62.0,71.0
6,5.351346,5.8192509375000006,64.0,72.0
7,5.756751,6.317561250000001,57.0,70.0
8,6.162156,6.4020206250000005,61.0,66.0
9,6.162156,6.442561125000001,64.0,76.0
10,5.756751,6.483101625000001,52.0,57.0
11,5.351346,6.5118178125,45.0,71.0
12,6.972966,7.484789812500001,62.0,65.0
13,6.972966,7.50674925,59.0,63.0
14,7.3783710000000005,7.834451625000001,54.0,55.0
15,6.972966,8.04728925,47.0,69.0
16,7.7837760000000005,8.163843187500001,66.0,74.0
17,8.189181000000001,8.405397,59.0,72.0
18,8.594586000000001,9.123301687500001,57.0,65.0
19,8.594586000000001,9.4003284375,61.0,54.0
20,8.999991000000001,9.5726255625,52.0,61.0
21,8.594586000000001,9.603030937500002,45.0,65.0
22,9.405396000000001,9.631747125,57.0,68.0
23,10.216206000000001,10.62836775,55.0,68.0
24,10.216206000000001,10.827691875000001,62.0,70.0
25,11.027016000000001,11.1908671875,55.0,70.0
26,10.216206000000001,11.260123875000001,43.0,72.0
27,10.621611000000001,11.27701575,50.0,62.0
28,11.027016000000001,11.449312875,59.0,71.0
29,11.837826000000002,12.241541812500001,57.0,67.0
30,11.837826000000002,12.4814064375,61.0,61.0
31,12.648636000000002,12.989851875000001,61.0,81.0
32,11.837826000000002,13.236473250000001,45.0,73.0
33,12.243231000000002,13.241540812500002,52.0,71.0
34,13.054041000000002,13.532081062500001,57.0,77.0
35,13.459446000000002,13.969580625,62.0,76.0
36,13.864851000000002,14.322620812500002,57.0,72.0
37,13.459446000000002,14.687485312500002,50.0,75.0
38,14.270256000000002,14.761809562500002,66.0,76.0
39,14.675661000000002,14.9645120625,57.0,72.0
40,15.081066000000002,15.557416875000001,57.0,68.0
41,15.081066000000002,15.572619562500002,61.0,63.0
42,15.891876000000002,15.981402937500002,57.0,65.0
43,15.891876000000002,16.435794375,61.0,77.0
44,15.891876000000002,16.633429312500002,64.0,77.0
45,16.297281,16.665523875,57.0,80.0
46,15.081066000000002,16.680726562500002,45.0,75.0
47,15.486471000000002,16.692550875000002,52.0,75.0
48,16.702686,17.104712625,62.0,67.0
49,16.702686,17.1638341875,66.0,67.0
50,16.702686,17.842887562500003,50.0,72.0
51,17.108091,17.854711875000003,57.0,61.0
52,17.513496,17.925657750000003,66.0,77.0
53,17.918901,18.3428870625,62.0,71.0
54,18.324306,18.792210937500002,64.0,72.0
55,18.729711,19.29052125,57.0,70.0
56,19.135116,19.374980625000003,61.0,66.0
57,19.135116,19.415521125,64.0,76.0
58,18.729711,19.456061625,52.0,57.0
59,18.324306,19.484777812500003,45.0,71.0
60,19.945926,20.4577498125,62.0,65.0
61,19.945926,20.479709250000003,59.0,63.0
62,20.351331000000002,20.807411625,54.0,55.0
63,19.945926,21.020249250000003,47.0,69.0
64,20.756736000000004,21.136803187500004,66.0,74.0
65,21.162141000000002,21.378357,59.0,72.0
66,21.567546000000004,22.096261687500004,57.0,65.0
67,21.567546000000004,22.3732884375,61.0,54.0
68,21.972951000000002,22.5455855625,52.0,61.0
69,21.567546000000004,22.575990937500002,45.0,65.0
70,22.378356000000004,22.604707125,57.0,68.0
71,23.189166000000004,23.601327750000003,55.0,68.0
72,23.189166000000004,23.800651875000003,62.0,70.0
73,23.999976000000004,24.1638271875,55.0,70.0
74,23.189166000000004,24.233083875000002,43.0,72.0
75,23.594571000000002,24.24997575,50.0,62.0
76,23.999976000000004,24.422272875,59.0,71.0
77,24.810786000000004,25.214501812500004,57.0,67.0
78,24.810786000000004,25.454366437500003,61.0,61.0
79,25.621596000000004,25.962811875000003,61.0,81.0
80,24.810786000000004,26.209433250000004,45.0,73.0
81,25.216191000000002,26.214500812500003,52.0,71.0
82,26.027001000000002,26.505041062500002,57.0,77.0
83,26.837811000000002,27.381729375000003,57.0,68.0
84,27.648621000000002,28.092877312500004,57.0,55.0
85,27.243216000000004,28.278687937500003,66.0,72.0
86,28.054026000000004,28.873281937500003,62.0,66.0
87,26.432406000000004,29.226322125000003,50.0,77.0
88,28.459431000000002,29.261795062500003,57.0,52.0
89,28.864836000000004,29.70942975,69.0,65.0
90,28.864836000000004,29.7212540625,66.0,60.0
91,30.486456000000004,30.903685312500002,66.0,78.0
92,29.675646000000004,30.922266375000003,50.0,78.0
93,30.081051000000002,31.2651714375,57.0,65.0
94,30.891861000000002,31.320914625000004,62.0,74.0
95,31.702671000000002,32.151994875,57.0,65.0
96,31.297266000000004,32.155373250000004,64.0,73.0
97,31.297266000000004,32.2026705,49.0,68.0
98,32.108076000000004,32.300643375,61.0,76.0
99,32.918886,33.768547312500004,62.0,72.0
100,33.324291,33.807398625000005,54.0,62.0
101,32.918886,33.940844437500004,47.0,68.0
102,33.729696000000004,34.162128,59.0,77.0
103,34.135101000000006,34.6198978125,62.0,69.0
104,34.540506,35.3378025,61.0,76.0
105,34.945911,35.48982937500001,52.0,70.0
106,34.540506,35.52023475,45.0,72.0
107,35.351316000000004,35.550640125,57.0,77.0
108,36.162126,36.5759769375,55.0,71.0
109,36.162126,36.97800356250001,59.0,71.0
110,36.162126,37.2111114375,43.0,72.0
111,36.567531,37.221246562500006,50.0,72.0
112,36.972936000000004,37.418881500000005,55.0,79.0
113,37.378341000000006,37.825975687500005,59.0,70.0
114,37.783746,38.692528875,57.0,72.0
115,37.783746,38.73644775,42.0,64.0
116,38.189151,38.743204500000004,49.0,62.0
117,38.594556000000004,39.3428660625,62.0,74.0
118,39.405366,39.7246224375,59.0,64.0
119,39.405366,40.224621937500004,64.0,76.0
120,39.810771,40.5557026875,47.0,65.0
121,39.405366,40.567527000000005,40.0,62.0
122,40.216176000000004,40.733067375000005,67.0,75.0
123,40.621581000000006,40.841175375000006,59.0,77.0
124,41.026986,41.8158365625,61.0,72.0
125,41.432391,42.31752525,52.0,68.0
126,41.837796000000004,42.331038750000005,57.0,75.0
127,41.026986,42.46955212500001,45.0,76.0
128,42.243201000000006,42.6874573125,61.0,76.0
129,42.648606,43.052321812500004,62.0,76.0
130,43.054011,43.53374025,57.0,77.0
131,43.459416000000004,43.8698885625,66.0,69.0
132,42.648606,44.023604625000004,50.0,75.0
133,43.864821000000006,44.361442125,57.0,77.0
134,44.270226,44.792184937500004,64.0,76.0
135,44.675631,45.160427812500004,57.0,71.0
136,44.270226,45.46954912500001,45.0,70.0
137,45.081036000000005,45.518535562500006,61.0,78.0
138,45.486441000000006,45.645224625000004,57.0,76.0
139,45.891846,46.69927762500001,62.0,72.0
140,46.297251,46.836101812500004,54.0,65.0
141,45.891846,46.9323855,47.0,74.0
142,46.702656000000005,47.141844750000004,59.0,72.0
143,47.108061000000006,47.5590740625,62.0,76.0
144,47.513466,47.96616825,57.0,70.0
145,47.513466,48.2026545,61.0,76.0
146,47.918871,48.679005375,52.0,77.0
147,48.324276000000005,48.70603237500001,57.0,80.0
148,47.513466,48.72123506250001,45.0,76.0
149,48.72968100000001,49.11988331250001,61.0,80.0
150,49.135086,49.72461243750001,59.0,72.0
151,49.135086,49.72968,55.0,76.0
152,49.540491,50.055693187500005,50.0,70.0
153,49.945896000000005,50.077652625000006,55.0,71.0
154,49.135086,50.11481475000001,43.0,72.0
155,49.945896000000005,50.3394766875,59.0,73.0
156,49.945896000000005,50.388463125,62.0,72.0
157,50.35130100000001,50.46616575,55.0,75.0
158,50.756706,51.347921625000005,61.0,67.0
159,51.162111,51.60298893750001,49.0,61.0
160,50.756706,51.60467812500001,42.0,72.0
161,50.756706,51.614813250000005,57.0,71.0
162,51.567516000000005,51.944204812500004,66.0,76.0
163,51.567516000000005,51.99319125,61.0,83.0
164,51.97292100000001,52.2921774375,57.0,76.0
165,52.378326,52.836095812500005,64.0,76.0
166,52.783731,53.27190618750001,59.0,75.0
167,52.378326,53.430689812500006,40.0,78.0
168,53.189136000000005,53.66886525,67.0,75.0
169,53.59454100000001,53.76683812500001,59.0,80.0
170,53.999946,54.6401480625,61.0,79.0
171,54.810756000000005,55.045553062500005,61.0,83.0
172,55.013458500000006,55.1806880625,62.0,77.0
173,54.405351,55.47967425,52.0,76.0
174,53.999946,55.5185255625,45.0,76.0
175,55.21616100000001,55.555687687500004,64.0,78.0
176,55.62156600000001,56.2313626875,62.0,58.0
177,56.026971,56.479673250000005,54.0,66.0
178,56.229673500000004,56.52021375,59.0,76.0
179,56.635078500000006,56.8512945,54.0,68.0
180,55.62156600000001,56.932375500000006,47.0,72.0
181,56.432376000000005,57.05737537500001,66.0,76.0
182,56.83778100000001,57.15028068750001,59.0,73.0
183,57.04048350000001,57.569199187500004,62.0,67.0
184,57.648591,57.91717181250001,55.0,69.0
185,57.851293500000004,58.060752750000006,59.0,77.0
186,57.4458885,58.1975769375,50.0,66.0
187,58.053996000000005,58.5810225,62.0,76.0
188,57.24318600000001,58.62325218750001,43.0,75.0
189,58.45940100000001,58.80399525000001,55.0,75.0
190,59.0675085,59.26514343750001,57.0,76.0
191,59.270211,59.494872937500006,62.0,70.0
192,59.472913500000004,59.738115937500005,57.0,70.0
193,59.675616000000005,59.935750875000004,66.0,77.0
194,59.878318500000006,60.108048000000004,57.0,76.0
195,58.86480600000001,60.33946668750001,50.0,68.0
196,60.08102100000001,60.34453425,62.0,69.0
197,60.28372350000001,60.5793313125,57.0,73.0
198,60.891831,61.16210100000001,57.0,74.0
199,61.094533500000004,61.34115487500001,59.0,78.0
200,61.297236000000005,61.743181500000006,61.0,80.0
201,60.48642600000001,61.96108668750001,45.0,74.0
202,61.70264100000001,61.977978562500006,62.0,77.0
203,60.6891285,62.001627187500006,52.0,64.0
204,62.10804600000001,62.53203206250001,59.0,71.0
205,62.10804600000001,62.5539915,62.0,73.0
206,62.716153500000004,62.925612750000006,59.0,77.0
207,62.513451,63.059058562500006,54.0,72.0
208,62.918856000000005,63.18912600000001,66.0,71.0
209,62.10804600000001,63.224598937500005,47.0,77.0
210,63.121558500000006,63.3529771875,59.0,76.0
211,63.32426100000001,63.562436437500004,62.0,69.0
212,63.52696350000001,63.837774,59.0,66.0
213,64.13507100000001,64.34453025,55.0,68.0
214,64.33777350000001,64.6333813125,57.0,59.0
215,63.9323685,64.6840569375,50.0,68.0
216,64.54047600000001,65.0675025,59.0,73.0
217,63.72966600000001,65.1063538125,43.0,76.0
218,64.945881,65.206015875,50.0,77.0
219,65.351286,65.5539885,57.0,72.0
220,65.756691,66.20939325,57.0,64.0
221,65.351286,66.27527156250001,62.0,72.0
222,66.162096,66.54723075000001,66.0,78.0
223,65.351286,66.638446875,50.0,77.0
224,66.56750100000001,66.77696025,57.0,76.0
225,66.97290600000001,67.1772976875,57.0,69.0
226,66.97290600000001,67.33945968750001,61.0,64.0
227,67.37831100000001,67.78709437500001,57.0,77.0
228,67.58101350000001,67.868175375,61.0,77.0
229,67.78371600000001,68.158715625,69.0,78.0
230,67.9864185,68.216148,61.0,76.0
231,67.17560850000001,68.2279723125,52.0,70.0
232,66.97290600000001,68.293850625,45.0,77.0
233,68.189121,68.34452625,57.0,78.0
234,68.594526,68.793850125,57.0,71.0
235,68.594526,69.03371475,62.0,74.0
236,68.999931,69.2921604375,57.0,74.0
237,69.2026335,69.41209275,62.0,71.0
238,69.405336,69.70770056250001,66.0,79.0
239,69.6080385,69.861416625,57.0,73.0
240,68.594526,69.91884900000001,50.0,76.0
241,69.81074100000001,70.003308375,62.0,70.0
242,70.01344350000001,70.2482405625,57.0,66.0
243,70.21614600000001,70.85465887500001,61.0,75.0
244,70.82425350000001,71.02695600000001,57.0,76.0
245,70.62155100000001,71.26682062500001,52.0,76.0
246,71.02695600000001,71.46614475000001,64.0,77.0
247,71.2296585,71.47965825,57.0,74.0
248,70.21614600000001,71.537090625,45.0,77.0
249,71.432361,71.58776625,61.0,75.0
250,71.837766,72.24148181250001,59.0,70.0
251,71.837766,72.483035625,62.0,74.0
252,72.4458735,72.648576,59.0,77.0
253,72.243171,72.75330562500001,54.0,64.0
254,71.837766,72.9408054375,47.0,75.0
255,72.648576,72.9408054375,66.0,79.0
256,72.8512785,73.0404675,59.0,77.0
257,73.05398100000001,73.280332125,62.0,68.0
258,73.25668350000001,73.5353994375,59.0,70.0
259,74.06749350000001,74.36816887500001,55.0,77.0
260,74.27019600000001,74.5117498125,59.0,77.0
261,73.45938600000001,74.685736125,43.0,76.0
262,73.86479100000001,74.68742531250001,50.0,74.0
263,74.47289850000001,74.746546875,62.0,76.0
264,74.675601,74.86816837500001,55.0,76.0
265,75.081006,75.30228956250001,57.0,69.0
266,75.081006,75.5286406875,62.0,76.0
267,75.486411,75.9509375625,57.0,72.0
268,75.891816,76.25499131250001,66.0,79.0
269,75.081006,76.4948559375,50.0,77.0
270,76.29722100000001,76.5320180625,57.0,77.0
271,76.70262600000001,76.90870687500001,57.0,70.0
272,76.70262600000001,77.13336881250001,61.0,74.0
273,77.10803100000001,77.489787375,57.0,76.0
274,77.31073350000001,77.5353954375,61.0,79.0
275,76.90532850000001,77.604652125,52.0,69.0
276,77.71613850000001,77.96613825,52.0,77.0
277,77.51343600000001,78.0134355,64.0,78.0
278,76.70262600000001,78.04215168750001,45.0,77.0
279,77.918841,78.1874218125,57.0,77.0
280,78.1215435,78.23134068750001,61.0,77.0
281,78.324246,78.71444831250001,55.0,72.0
282,78.324246,78.85127250000001,59.0,75.0
283,78.9323535,79.11478575000001,55.0,74.0
284,78.729651,79.233028875,50.0,73.0
285,79.135056,79.56242043750001,62.0,77.0
286,78.324246,79.66883925,43.0,76.0
287,79.3377585,79.719514875,50.0,75.0
288,79.54046100000001,79.77019050000001,55.0,77.0
289,79.94586600000001,80.1637711875,57.0,76.0
290,79.94586600000001,80.216136,61.0,74.0
291,80.35127100000001,80.61309506250001,57.0,78.0
292,80.55397350000001,80.638432875,61.0,78.0
293,80.14856850000001,80.79552731250001,52.0,76.0
294,80.75667600000001,80.98809468750001,57.0,78.0
295,80.75667600000001,81.1164729375,64.0,81.0
296,81.162081,81.3664726875,57.0,77.0
297,79.94586600000001,81.3833645625,45.0,77.0
298,80.95937850000001,81.4306618125,52.0,79.0
299,81.567486,81.6975534375,57.0,70.0
300,81.567486,81.81072900000001,62.0,75.0
301,81.7701885,81.9948504375,57.0,69.0
302,81.972891,82.15532325000001,62.0,69.0
303,82.1755935,82.42221487500001,57.0,70.0
304,82.378296,82.6705254375,66.0,78.0
305,82.5809985,82.76849831250001,57.0,74.0
306,81.567486,82.78032262500001,50.0,78.0
307,82.78370100000001,82.9543089375,62.0,69.0
308,83.18910600000001,83.60126775,57.0,70.0
309,83.18910600000001,83.756673,61.0,75.0
310,83.79721350000001,83.9070106875,57.0,76.0
311,83.59451100000001,84.0826861875,52.0,76.0
312,83.99991600000001,84.21782118750001,57.0,77.0
313,83.99991600000001,84.3107265,64.0,79.0
314,83.18910600000001,84.3766048125,45.0,76.0
315,84.20261850000001,84.45261825,52.0,76.0
316,84.405321,84.6130910625,57.0,77.0
317,84.810726,85.24484718750001,59.0,76.0
318,84.810726,85.37153625,62.0,76.0
319,85.4188335,85.530319875,59.0,76.0
320,85.216131,85.6891035,54.0,66.0
321,85.621536,85.8242385,59.0,80.0
322,85.8242385,85.9644410625,54.0,72.0
323,85.621536,85.97288700000001,66.0,72.0
324,84.810726,86.0421436875,47.0,77.0
325,86.02694100000001,86.28707587500001,59.0,77.0
326,86.22964350000001,86.71612950000001,62.0,73.0
327,86.83775100000001,87.14687231250001,55.0,73.0
328,87.04045350000001,87.1806560625,59.0,78.0
329,86.63504850000001,87.25160193750001,50.0,69.0
330,87.24315600000001,87.48302062500001,62.0,80.0
331,86.43234600000001,87.66883125000001,43.0,76.0
332,87.44585850000001,87.692479875,50.0,71.0
333,87.648561,87.76342575000001,55.0,77.0
334,88.053966,88.27187118750001,57.0,72.0
335,88.053966,88.5117358125,62.0,76.0
336,88.459371,88.74991125000001,57.0,76.0
337,88.864776,89.273559375,62.0,77.0
338,88.864776,89.30903231250001,66.0,76.0
339,89.27018100000001,89.5184915625,57.0,76.0
340,88.053966,89.5928158125,50.0,77.0
341,89.47288350000001,89.69585625,62.0,71.0
342,89.67558600000001,90.33943668750001,61.0,80.0
343,90.08099100000001,90.65362556250001,52.0,77.0
344,90.48639600000001,90.69585525000001,57.0,68.0
345,90.48639600000001,90.88673343750001,61.0,72.0
346,89.67558600000001,90.92389556250001,45.0,69.0
347,90.48639600000001,90.9272739375,64.0,77.0
348,90.89180100000002,91.07930081250001,57.0,76.0
349,91.297206,91.64517862500001,55.0,70.0
350,91.297206,91.8360568125,59.0,71.0
351,91.9053135,92.15362406250001,55.0,76.0
352,91.702611,92.3394346875,50.0,71.0
353,92.108016,92.3833535625,62.0,74.0
354,92.31071850000001,92.577610125,55.0,78.0
355,91.297206,92.73470456250001,43.0,76.0
356,92.51342100000001,92.76342075000001,59.0,70.0
357,92.71612350000001,92.88842062500001,55.0,77.0
358,92.91882600000001,93.31747425,61.0,78.0
359,93.32423100000001,93.58267668750001,57.0,80.0
360,93.52693350000001,93.68909550000001,61.0,80.0
361,93.72963600000001,93.9678114375,64.0,76.0
362,93.93233850000001,94.12490587500001,61.0,80.0
363,93.12152850000001,94.21443281250001,52.0,74.0
364,92.91882600000001,94.29382462500001,45.0,77.0
365,94.13504100000002,94.36645968750001,57.0,78.0
366,94.540446,94.94247262500001,62.0,67.0
367,94.540446,95.0015941875,66.0,67.0
368,94.540446,95.68064756250001,50.0,72.0
369,94.945851,95.69247187500001,57.0,61.0
370,95.351256,95.76341775,66.0,77.0
371,95.75666100000001,96.18064706250001,62.0,71.0
372,96.16206600000001,96.6299709375,64.0,72.0
373,96.56747100000001,97.12828125000001,57.0,70.0
374,96.97287600000001,97.21274062500001,61.0,66.0
375,96.97287600000001,97.25328112500002,64.0,76.0
376,96.56747100000001,97.293821625,52.0,57.0
377,96.16206600000001,97.3225378125,45.0,71.0
378,97.783686,98.29550981250001,62.0,65.0
379,97.783686,98.31746925,59.0,63.0
380,98.189091,98.645171625,54.0,55.0
381,97.783686,98.85800925000001,47.0,69.0
382,98.594496,98.97456318750001,66.0,74.0
383,98.99990100000001,99.21611700000001,59.0,72.0
384,99.40530600000001,99.9340216875,57.0,65.0
385,99.40530600000001,100.21104843750001,61.0,54.0
386,99.81071100000001,100.38334556250001,52.0,61.0
387,99.40530600000001,100.41375093750001,45.0,65.0
388,100.21611600000001,100.44246712500001,57.0,68.0
389,101.026926,101.43908775000001,55.0,68.0
390,101.026926,101.638411875,62.0,70.0
391,101.837736,102.00158718750001,55.0,70.0
392,101.026926,102.07084387500001,43.0,72.0
393,101.432331,102.08773575000001,50.0,62.0
394,101.837736,102.26003287500001,59.0,71.0
395,102.64854600000001,103.0522618125,57.0,67.0
396,102.64854600000001,103.2921264375,61.0,61.0
397,103.45935600000001,103.800571875,61.0,81.0
398,102.64854600000001,104.04719325,45.0,73.0
399,103.05395100000001,104.05226081250001,52.0,71.0
400,103.86476100000002,104.34280106250002,57.0,77.0
401,104.270166,104.78030062500001,62.0,76.0
402,104.675571,105.13334081250001,57.0,72.0
403,104.270166,105.4982053125,50.0,75.0
404,105.080976,105.57252956250001,66.0,76.0
405,105.48638100000001,105.77523206250001,57.0,72.0
406,105.89178600000001,106.368136875,57.0,68.0
407,105.89178600000001,106.38333956250001,61.0,63.0
408,106.70259600000001,106.79212293750001,57.0,65.0
409,106.70259600000001,107.246514375,61.0,77.0
410,106.70259600000001,107.44414931250002,64.0,77.0
411,107.10800100000002,107.47624387500001,57.0,80.0
412,105.89178600000001,107.49144656250002,45.0,75.0
413,106.29719100000001,107.50327087500001,52.0,75.0
414,107.513406,107.91543262500001,62.0,67.0
415,107.513406,107.9745541875,66.0,67.0
416,107.513406,108.65360756250001,50.0,72.0
417,107.918811,108.66543187500001,57.0,61.0
418,108.324216,108.73637775,66.0,77.0
419,108.72962100000001,109.15360706250001,62.0,71.0
420,109.13502600000001,109.6029309375,64.0,72.0
421,109.54043100000001,110.10124125000002,57.0,70.0
422,109.94583600000001,110.18570062500001,61.0,66.0
423,109.94583600000001,110.22624112500002,64.0,76.0
424,109.54043100000001,110.26678162500001,52.0,57.0
425,109.13502600000001,110.29549781250002,45.0,71.0
426,110.756646,111.26846981250002,62.0,65.0
427,110.756646,111.29042925000002,59.0,63.0
428,111.162051,111.618131625,54.0,55.0
429,110.756646,111.83096925000001,47.0,69.0
430,111.567456,111.94752318750001,66.0,74.0
431,111.97286100000001,112.18907700000001,59.0,72.0
432,112.37826600000001,112.90698168750001,57.0,65.0
433,112.37826600000001,113.18400843750001,61.0,54.0
434,112.78367100000001,113.35630556250001,52.0,61.0
435,112.37826600000001,113.38671093750001,45.0,65.0
436,113.18907600000001,113.41542712500001,57.0,68.0
437,113.999886,114.41204775000001,55.0,68.0
438,113.999886,114.611371875,62.0,70.0
439,114.81069600000001,114.97454718750001,55.0,70.0
440,113.999886,115.04380387500001,43.0,72.0
441,114.405291,115.06069575000001,50.0,62.0
442,114.81069600000001,115.23299287500001,59.0,71.0
443,115.62150600000001,116.0252218125,57.0,67.0
444,115.62150600000001,116.26508643750002,61.0,61.0
445,116.43231600000001,116.77353187500002,61.0,81.0
446,115.62150600000001,117.02015325,45.0,73.0
447,116.02691100000001,117.02522081250001,52.0,71.0
448,116.83772100000002,117.31576106250002,57.0,77.0
449,117.648531,118.19244937500001,57.0,68.0
450,118.45934100000001,118.90359731250001,57.0,55.0
451,118.05393600000001,119.08940793750001,66.0,72.0
452,118.86474600000001,119.68400193750001,62.0,66.0
453,117.243126,120.03704212500001,50.0,77.0
454,119.27015100000001,120.07251506250002,57.0,52.0
455,119.67555600000001,120.52014975000002,69.0,65.0
456,119.67555600000001,120.53197406250001,66.0,60.0
457,121.29717600000001,121.7144053125,66.0,78.0
458,120.486366,121.73298637500001,50.0,78.0
459,120.891771,122.0758914375,57.0,65.0
460,121.70258100000001,122.13163462500002,62.0,74.0
461,122.51339100000001,122.96271487500002,57.0,65.0
462,122.10798600000001,122.96609325000001,64.0,73.0
463,122.10798600000001,123.01339050000001,49.0,68.0
464,122.91879600000001,123.11136337500001,61.0,76.0
465,123.729606,124.57926731250001,62.0,72.0
466,124.135011,124.61811862500001,54.0,62.0
467,123.729606,124.75156443750001,47.0,68.0
468,124.54041600000001,124.97284800000001,59.0,77.0
469,124.94582100000001,125.43061781250002,62.0,69.0
470,125.35122600000001,126.14852250000001,61.0,76.0
471,125.75663100000001,126.30054937500002,52.0,70.0
472,125.35122600000001,126.33095475000002,45.0,72.0
473,126.16203600000001,126.361360125,57.0,77.0
474,126.97284600000002,127.3866969375,55.0,71.0
475,126.97284600000002,127.78872356250001,59.0,71.0
476,126.97284600000002,128.0218314375,43.0,72.0
477,127.378251,128.0319665625,50.0,72.0
478,127.78365600000001,128.2296015,55.0,79.0
479,128.189061,128.6366956875,59.0,70.0
480,128.594466,129.50324887500003,57.0,72.0
481,128.594466,129.54716775,42.0,64.0
482,128.999871,129.55392450000002,49.0,62.0
483,129.40527600000001,130.1535860625,62.0,74.0
484,130.21608600000002,130.53534243750002,59.0,64.0
485,130.21608600000002,131.03534193750002,64.0,76.0
486,130.62149100000002,131.3664226875,47.0,65.0
487,130.21608600000002,131.37824700000002,40.0,62.0
488,131.02689600000002,131.54378737500002,67.0,75.0
489,131.43230100000002,131.651895375,59.0,77.0
490,131.83770600000003,132.6265565625,61.0,72.0
491,132.243111,133.12824525000002,52.0,68.0
492,132.648516,133.14175875,57.0,75.0
493,131.83770600000003,133.280272125,45.0,76.0
494,133.053921,133.49817731250002,61.0,76.0
495,133.459326,133.8630418125,62.0,76.0
496,133.864731,134.34446025000003,57.0,77.0
497,134.270136,134.6806085625,66.0,69.0
498,133.459326,134.83432462500002,50.0,75.0
499,134.675541,135.172162125,57.0,77.0
500,135.080946,135.6029049375,64.0,76.0
501,135.486351,135.97114781250002,57.0,71.0
502,135.080946,136.28026912500002,45.0,70.0
503,135.89175600000002,136.3292555625,61.0,78.0
504,136.29716100000002,136.455944625,57.0,76.0
505,136.70256600000002,137.509997625,62.0,72.0
506,137.10797100000002,137.6468218125,54.0,65.0
507,136.70256600000002,137.7431055,47.0,74.0
508,137.51337600000002,137.95256475000002,59.0,72.0
509,137.91878100000002,138.3697940625,62.0,76.0
510,138.32418600000003,138.77688825,57.0,70.0
511,138.32418600000003,139.01337450000003,61.0,76.0
512,138.729591,139.489725375,52.0,77.0
513,139.134996,139.516752375,57.0,80.0
514,138.32418600000003,139.5319550625,45.0,76.0
515,139.540401,139.9306033125,61.0,80.0
516,139.945806,140.53533243750002,59.0,72.0
517,139.945806,140.5404,55.0,76.0
518,140.351211,140.8664131875,50.0,70.0
519,140.756616,140.88837262500002,55.0,71.0
520,139.945806,140.92553475000003,43.0,72.0
521,140.756616,141.1501966875,59.0,73.0
522,140.756616,141.19918312500002,62.0,72.0
523,141.162021,141.27688575000002,55.0,75.0
524,141.567426,142.158641625,61.0,67.0
525,141.972831,142.41370893750002,49.0,61.0
526,141.567426,142.41539812500002,42.0,72.0
527,141.567426,142.42553325,57.0,71.0
528,142.37823600000002,142.7549248125,66.0,76.0
529,142.37823600000002,142.80391125,61.0,83.0
530,142.78364100000002,143.10289743750002,57.0,76.0
531,143.18904600000002,143.64681581250002,64.0,76.0
532,143.59445100000002,144.0826261875,59.0,75.0
533,143.18904600000002,144.24140981250002,40.0,78.0
534,143.99985600000002,144.47958525,67.0,75.0
535,144.40526100000002,144.57755812500002,59.0,80.0
536,144.81066600000003,145.4508680625,61.0,79.0
537,145.621476,145.8562730625,61.0,83.0
538,145.82417850000002,145.9914080625,62.0,77.0
539,145.216071,146.29039425000002,52.0,76.0
540,144.81066600000003,146.3292455625,45.0,76.0
541,146.026881,146.36640768750001,64.0,78.0
542,146.432286,147.04208268750003,62.0,58.0
543,146.837691,147.29039325000002,54.0,66.0
544,147.04039350000002,147.33093375,59.0,76.0
545,147.44579850000002,147.66201450000003,54.0,68.0
546,146.432286,147.7430955,47.0,72.0
547,147.243096,147.86809537500002,66.0,76.0
548,147.648501,147.96100068750002,59.0,73.0
549,147.85120350000003,148.3799191875,62.0,67.0
550,148.459311,148.72789181250002,55.0,69.0
551,148.6620135,148.87147275,59.0,77.0
552,148.25660850000003,149.0082969375,50.0,66.0
553,148.86471600000002,149.39174250000002,62.0,76.0
554,148.053906,149.43397218750002,43.0,75.0
555,149.27012100000002,149.61471525000002,55.0,75.0
556,149.8782285,150.0758634375,57.0,76.0
557,150.08093100000002,150.30559293750002,62.0,70.0
558,150.2836335,150.5488359375,57.0,70.0
559,150.48633600000002,150.746470875,66.0,77.0
560,150.6890385,150.918768,57.0,76.0
561,149.67552600000002,151.15018668750002,50.0,68.0
562,150.89174100000002,151.15525425,62.0,69.0
563,151.0944435,151.39005131250002,57.0,73.0
564,151.702551,151.972821,57.0,74.0
565,151.90525350000001,152.151874875,59.0,78.0
566,152.107956,152.55390150000002,61.0,80.0
567,151.29714600000003,152.7718066875,45.0,74.0
568,152.513361,152.7886985625,62.0,77.0
569,151.4998485,152.81234718750002,52.0,64.0
570,152.918766,153.3427520625,59.0,71.0
571,152.918766,153.36471150000003,62.0,73.0
572,153.52687350000002,153.73633275,59.0,77.0
573,153.324171,153.86977856250002,54.0,72.0
574,153.729576,153.99984600000002,66.0,71.0
575,152.918766,154.03531893750002,47.0,77.0
576,153.93227850000002,154.16369718750002,59.0,76.0
577,154.134981,154.3731564375,62.0,69.0
578,154.33768350000003,154.64849400000003,59.0,66.0
579,154.945791,155.15525025000002,55.0,68.0
580,155.1484935,155.4441013125,57.0,59.0
581,154.74308850000003,155.4947769375,50.0,68.0
582,155.35119600000002,155.87822250000002,59.0,73.0
583,154.540386,155.9170738125,43.0,76.0
584,155.75660100000002,156.01673587500002,50.0,77.0
585,156.16200600000002,156.3647085,57.0,72.0
586,156.56741100000002,157.02011325,57.0,64.0
587,156.16200600000002,157.08599156250003,62.0,72.0
588,156.97281600000002,157.35795075000001,66.0,78.0
589,156.16200600000002,157.449166875,50.0,77.0
590,157.37822100000002,157.58768025,57.0,76.0
591,157.78362600000003,157.98801768750002,57.0,69.0
592,157.78362600000003,158.1501796875,61.0,64.0
593,158.189031,158.597814375,57.0,77.0
594,158.39173350000002,158.67889537500002,61.0,77.0
595,158.594436,158.96943562500002,69.0,78.0
596,158.79713850000002,159.026868,61.0,76.0
597,157.9863285,159.03869231250002,52.0,70.0
598,157.78362600000003,159.104570625,45.0,77.0
599,158.999841,159.15524625,57.0,78.0
600,159.405246,159.604570125,57.0,71.0
601,159.405246,159.84443475,62.0,74.0
602,159.810651,160.1028804375,57.0,74.0
603,160.01335350000002,160.22281275,62.0,71.0
604,160.216056,160.5184205625,66.0,79.0
605,160.41875850000002,160.672136625,57.0,73.0
606,159.405246,160.72956900000003,50.0,76.0
607,160.621461,160.81402837500002,62.0,70.0
608,160.82416350000003,161.0589605625,57.0,66.0
609,161.026866,161.66537887500002,61.0,75.0
610,161.6349735,161.83767600000002,57.0,76.0
611,161.43227100000001,162.077540625,52.0,76.0
612,161.83767600000002,162.27686475000002,64.0,77.0
613,162.0403785,162.29037825,57.0,74.0
614,161.026866,162.34781062500002,45.0,77.0
615,162.24308100000002,162.39848625000002,61.0,75.0
616,162.64848600000002,163.05220181250002,59.0,70.0
617,162.64848600000002,163.29375562500002,62.0,74.0
618,163.2565935,163.45929600000002,59.0,77.0
619,163.05389100000002,163.56402562500003,54.0,64.0
620,162.64848600000002,163.75152543750002,47.0,75.0
621,163.45929600000002,163.75152543750002,66.0,79.0
622,163.6619985,163.8511875,59.0,77.0
623,163.86470100000003,164.091052125,62.0,68.0
624,164.0674035,164.34611943750002,59.0,70.0
625,164.87821350000002,165.178888875,55.0,77.0
626,165.080916,165.3224698125,59.0,77.0
627,164.27010600000003,165.496456125,43.0,76.0
628,164.67551100000003,165.49814531250001,50.0,74.0
629,165.28361850000002,165.557266875,62.0,76.0
630,165.486321,165.678888375,55.0,76.0
631,165.891726,166.11300956250003,57.0,69.0
632,165.891726,166.3393606875,62.0,76.0
633,166.297131,166.7616575625,57.0,72.0
634,166.702536,167.0657113125,66.0,79.0
635,165.891726,167.3055759375,50.0,77.0
636,167.107941,167.34273806250002,57.0,77.0
637,167.513346,167.719426875,57.0,70.0
638,167.513346,167.9440888125,61.0,74.0
639,167.91875100000001,168.30050737500002,57.0,76.0
640,168.1214535,168.3461154375,61.0,79.0
641,167.71604850000003,168.415372125,52.0,69.0
642,168.5268585,168.77685825,52.0,77.0
643,168.32415600000002,168.82415550000002,64.0,78.0
644,167.513346,168.85287168750003,45.0,77.0
645,168.72956100000002,168.99814181250002,57.0,77.0
646,168.9322635,169.04206068750003,61.0,77.0
647,169.13496600000002,169.52516831250003,55.0,72.0
648,169.13496600000002,169.66199250000003,59.0,75.0
649,169.7430735,169.92550575,55.0,74.0
650,169.54037100000002,170.043748875,50.0,73.0
651,169.94577600000002,170.3731404375,62.0,77.0
652,169.13496600000002,170.47955925000002,43.0,76.0
653,170.1484785,170.53023487500002,50.0,75.0
654,170.35118100000003,170.58091050000002,55.0,77.0
655,170.75658600000003,170.9744911875,57.0,76.0
656,170.75658600000003,171.026856,61.0,74.0
657,171.16199100000003,171.4238150625,57.0,78.0
658,171.36469350000002,171.449152875,61.0,78.0
659,170.9592885,171.60624731250002,52.0,76.0
660,171.567396,171.79881468750003,57.0,78.0
661,171.567396,171.92719293750002,64.0,81.0
662,171.972801,172.17719268750002,57.0,77.0
663,170.75658600000003,172.19408456250002,45.0,77.0
664,171.77009850000002,172.2413818125,52.0,79.0
665,172.378206,172.5082734375,57.0,70.0
666,172.378206,172.621449,62.0,75.0
667,172.58090850000002,172.80557043750002,57.0,69.0
668,172.783611,172.96604325,62.0,69.0
669,172.98631350000002,173.232934875,57.0,70.0
670,173.189016,173.4812454375,66.0,78.0
671,173.39171850000002,173.57921831250002,57.0,74.0
672,172.378206,173.59104262500003,50.0,78.0
673,173.594421,173.7650289375,62.0,69.0
674,173.999826,174.41198775,57.0,70.0
675,173.999826,174.567393,61.0,75.0
676,174.6079335,174.71773068750002,57.0,76.0
677,174.40523100000001,174.8934061875,52.0,76.0
678,174.81063600000002,175.02854118750002,57.0,77.0
679,174.81063600000002,175.12144650000002,64.0,79.0
680,173.999826,175.1873248125,45.0,76.0
681,175.0133385,175.26333825,52.0,76.0
682,175.21604100000002,175.42381106250002,57.0,77.0
683,175.62144600000002,176.0555671875,59.0,76.0
684,175.62144600000002,176.18225625000002,62.0,76.0
685,176.2295535,176.341039875,59.0,76.0
686,176.02685100000002,176.49982350000002,54.0,66.0
687,176.43225600000002,176.6349585,59.0,80.0
688,176.6349585,176.77516106250002,54.0,72.0
689,176.43225600000002,176.78360700000002,66.0,72.0
690,175.62144600000002,176.85286368750002,47.0,77.0
691,176.83766100000003,177.097795875,59.0,77.0
692,177.0403635,177.52684950000003,62.0,73.0
693,177.64847100000003,177.95759231250003,55.0,73.0
694,177.85117350000002,177.99137606250002,59.0,78.0
695,177.4457685,178.0623219375,50.0,69.0
696,178.053876,178.29374062500003,62.0,80.0
697,177.24306600000003,178.47955125000001,43.0,76.0
698,178.25657850000002,178.503199875,50.0,71.0
699,178.459281,178.57414575,55.0,77.0
700,178.864686,179.08259118750001,57.0,72.0
701,178.864686,179.3224558125,62.0,76.0
702,179.270091,179.56063125000003,57.0,76.0
703,179.675496,180.08427937500002,62.0,77.0
704,179.675496,180.11975231250003,66.0,76.0
705,180.080901,180.3292115625,57.0,76.0
706,178.864686,180.40353581250002,50.0,77.0
707,180.28360350000003,180.50657625000002,62.0,71.0
708,180.486306,181.15015668750002,61.0,80.0
709,180.89171100000002,181.46434556250003,52.0,77.0
710,181.29711600000002,181.50657525000003,57.0,68.0
711,181.29711600000002,181.69745343750003,61.0,72.0
712,180.486306,181.7346155625,45.0,69.0
713,181.29711600000002,181.73799393750002,64.0,77.0
714,181.70252100000002,181.8900208125,57.0,76.0
715,182.10792600000002,182.455898625,55.0,70.0
716,182.10792600000002,182.6467768125,59.0,71.0
717,182.7160335,182.9643440625,55.0,76.0
718,182.51333100000002,183.15015468750002,50.0,71.0
719,182.91873600000002,183.19407356250002,62.0,74.0
720,183.1214385,183.388330125,55.0,78.0
721,182.10792600000002,183.54542456250002,43.0,76.0
722,183.32414100000003,183.57414075000003,59.0,70.0
723,183.5268435,183.699140625,55.0,77.0
724,183.72954600000003,184.12819425,61.0,78.0
725,184.13495100000003,184.39339668750003,57.0,80.0
726,184.33765350000002,184.4998155,61.0,80.0
727,184.540356,184.77853143750002,64.0,76.0
728,184.74305850000002,184.93562587500003,61.0,80.0
729,183.93224850000001,185.0251528125,52.0,74.0
730,183.72954600000003,185.10454462500002,45.0,77.0
731,184.945761,185.17717968750003,57.0,78.0
732,185.351166,186.2295435,62.0,75.0
733,186.161976,186.9710968125,57.0,77.0
734,186.567381,187.0217724375,62.0,73.0
735,186.972786,187.46602875000002,66.0,76.0
736,187.37819100000002,187.82920406250003,57.0,73.0
737,185.756571,188.0386633125,45.0,68.0
738,185.351166,188.080893,38.0,77.0
739,187.78359600000002,188.212649625,62.0,76.0
740,188.18900100000002,188.49812231250002,64.0,69.0
741,189.40521600000002,189.81062100000003,57.0,72.0
742,188.59440600000002,190.0133235,41.0,74.0
743,189.81062100000003,190.12987743750003,53.0,72.0
744,188.59440600000002,190.25994487500003,60.0,76.0
745,190.21602600000003,190.7177146875,55.0,71.0
746,190.62143100000003,191.08764675,52.0,76.0
747,188.99981100000002,191.35284918750003,48.0,68.0
748,191.026836,191.48291662500003,60.0,76.0
749,192.243051,192.6839289375,57.0,76.0
750,191.837646,192.71264512500002,62.0,65.0
751,191.837646,193.388320125,50.0,76.0
752,192.648456,193.516698375,65.0,77.0
753,193.053861,193.52852268750001,57.0,77.0
754,193.459266,193.90014393750002,60.0,68.0
755,193.86467100000002,194.3089273125,55.0,74.0
756,193.459266,194.35115700000003,48.0,72.0
757,194.27007600000002,194.7143323125,64.0,77.0
758,194.67548100000002,194.9406834375,55.0,69.0
759,195.08088600000002,195.60622331250002,58.0,75.0
760,195.48629100000002,195.92547975000002,53.0,76.0
761,195.08088600000002,196.19574975,46.0,73.0
762,195.89169600000002,196.4136549375,62.0,78.0
763,196.29710100000003,196.422100875,53.0,77.0
764,196.70250600000003,197.25993787500002,60.0,76.0
765,197.10791100000003,197.59608618750002,55.0,72.0
766,197.51331600000003,198.00824793750002,60.0,72.0
767,196.70250600000003,198.15520725000002,48.0,77.0
768,197.51331600000003,198.178855875,64.0,79.0
769,197.918721,198.428855625,55.0,75.0
770,198.324126,198.69912562500002,60.0,70.0
771,198.324126,198.70926075000003,48.0,73.0
772,199.134936,199.33932768750003,57.0,75.0
773,199.134936,199.58932743750003,61.0,78.0
774,199.540341,199.9541919375,57.0,80.0
775,199.134936,199.97615137500003,45.0,77.0
776,199.945746,200.347772625,62.0,67.0
777,199.945746,200.40689418750003,66.0,67.0
778,199.945746,201.08594756250002,50.0,72.0
779,200.35115100000002,201.097771875,57.0,61.0
780,200.75655600000002,201.16871775,66.0,77.0
781,201.16196100000002,201.58594706250003,62.0,71.0
782,201.56736600000002,202.03527093750003,64.0,72.0
783,201.97277100000002,202.53358125000003,57.0,70.0
784,202.37817600000002,202.61804062500002,61.0,66.0
785,202.37817600000002,202.658581125,64.0,76.0
786,201.97277100000002,202.69912162500003,52.0,57.0
787,201.56736600000002,202.7278378125,45.0,71.0
788,203.18898600000003,203.7008098125,62.0,65.0
789,203.18898600000003,203.72276925000003,59.0,63.0
790,203.59439100000003,204.05047162500003,54.0,55.0
791,203.18898600000003,204.26330925000002,47.0,69.0
792,203.99979600000003,204.3798631875,66.0,74.0
793,204.405201,204.621417,59.0,72.0
794,204.810606,205.33932168750002,57.0,65.0
795,204.810606,205.61634843750002,61.0,54.0
796,205.216011,205.78864556250002,52.0,61.0
797,204.810606,205.8190509375,45.0,65.0
798,205.621416,205.84776712500002,57.0,68.0
799,206.432226,206.84438775,55.0,68.0
800,206.432226,207.043711875,62.0,70.0
801,207.24303600000002,207.40688718750002,55.0,70.0
802,206.432226,207.47614387500002,43.0,72.0
803,206.83763100000002,207.49303575000002,50.0,62.0
804,207.24303600000002,207.66533287500002,59.0,71.0
805,208.05384600000002,208.45756181250002,57.0,67.0
806,208.05384600000002,208.6974264375,61.0,61.0
807,208.86465600000002,209.205871875,61.0,81.0
808,208.05384600000002,209.45249325000003,45.0,73.0
809,208.45925100000002,209.45756081250002,52.0,71.0
810,209.27006100000003,209.7481010625,57.0,77.0
811,210.08087100000003,210.624789375,57.0,68.0
812,210.891681,211.33593731250002,57.0,55.0
813,210.48627600000003,211.5217479375,66.0,72.0
814,211.297086,212.1163419375,62.0,66.0
815,209.67546600000003,212.469382125,50.0,77.0
816,211.702491,212.5048550625,57.0,52.0
817,212.107896,212.95248975,69.0,65.0
818,212.107896,212.96431406250002,66.0,60.0
819,212.91870600000001,213.11803012500002,57.0,71.0
820,212.91870600000001,213.35789475,62.0,74.0
821,213.32411100000002,213.6163404375,57.0,74.0
822,213.52681350000003,213.73627275,62.0,71.0
823,213.72951600000002,214.03188056250002,66.0,79.0
824,213.93221850000003,214.18559662500002,57.0,73.0
825,212.91870600000001,214.243029,50.0,76.0
826,214.13492100000002,214.32748837500003,62.0,70.0
827,214.3376235,214.5724205625,57.0,66.0
828,214.54032600000002,215.17883887500003,61.0,75.0
829,215.1484335,215.35113600000003,57.0,76.0
830,214.94573100000002,215.59100062500002,52.0,76.0
831,215.35113600000003,215.79032475000002,64.0,77.0
832,215.5538385,215.80383825,57.0,74.0
833,214.54032600000002,215.86127062500003,45.0,77.0
834,215.75654100000003,215.91194625000003,61.0,75.0
835,216.16194600000003,216.56566181250003,59.0,70.0
836,216.16194600000003,216.80721562500003,62.0,74.0
837,216.77005350000002,216.97275600000003,59.0,77.0
838,216.56735100000003,217.077485625,54.0,64.0
839,216.16194600000003,217.26498543750003,47.0,75.0
840,216.97275600000003,217.26498543750003,66.0,79.0
841,217.17545850000002,217.36464750000002,59.0,77.0
842,217.378161,217.604512125,62.0,68.0
843,217.58086350000002,217.85957943750003,59.0,70.0
844,218.39167350000002,218.69234887500002,55.0,77.0
845,218.594376,218.8359298125,59.0,77.0
846,217.783566,219.00991612500002,43.0,76.0
847,218.188971,219.01160531250002,50.0,74.0
848,218.79707850000003,219.07072687500002,62.0,76.0
849,218.999781,219.19234837500002,55.0,76.0
850,219.40518600000001,219.6264695625,57.0,69.0
851,219.40518600000001,219.8528206875,62.0,76.0
852,219.81059100000002,220.27511756250001,57.0,72.0
853,220.21599600000002,220.57917131250002,66.0,79.0
854,219.40518600000001,220.81903593750002,50.0,77.0
855,220.62140100000002,220.85619806250003,57.0,77.0
856,221.02680600000002,221.23288687500002,57.0,70.0
857,221.02680600000002,221.45754881250002,61.0,74.0
858,221.43221100000002,221.81396737500003,57.0,76.0
859,221.6349135,221.8595754375,61.0,79.0
860,221.2295085,221.928832125,52.0,69.0
861,222.0403185,222.29031825,52.0,77.0
862,221.83761600000003,222.33761550000003,64.0,78.0
863,221.02680600000002,222.3663316875,45.0,77.0
864,222.24302100000003,222.51160181250003,57.0,77.0
865,222.4457235,222.5555206875,61.0,77.0
866,222.64842600000003,223.0386283125,55.0,72.0
867,222.64842600000003,223.1754525,59.0,75.0
868,223.25653350000002,223.43896575000002,55.0,74.0
869,223.05383100000003,223.55720887500001,50.0,73.0
870,223.45923600000003,223.88660043750002,62.0,77.0
871,222.64842600000003,223.99301925000003,43.0,76.0
872,223.66193850000002,224.04369487500003,50.0,75.0
873,223.864641,224.09437050000003,55.0,77.0
874,224.270046,224.48795118750002,57.0,76.0
875,224.270046,224.54031600000002,61.0,74.0
876,224.675451,224.93727506250002,57.0,78.0
877,224.87815350000002,224.96261287500002,61.0,78.0
878,224.47274850000002,225.11970731250003,52.0,76.0
879,225.080856,225.3122746875,57.0,78.0
880,225.080856,225.44065293750003,64.0,81.0
881,225.486261,225.69065268750003,57.0,77.0
882,224.270046,225.70754456250003,45.0,77.0
883,225.28355850000003,225.75484181250002,52.0,79.0
884,225.89166600000001,226.02173343750002,57.0,70.0
885,225.89166600000001,226.13490900000002,62.0,75.0
886,226.09436850000003,226.31903043750003,57.0,69.0
887,226.29707100000002,226.47950325000002,62.0,69.0
888,226.49977350000003,226.74639487500002,57.0,70.0
889,226.70247600000002,226.99470543750002,66.0,78.0
890,226.90517850000003,227.09267831250003,57.0,74.0
891,225.89166600000001,227.104502625,50.0,78.0
892,227.10788100000002,227.27848893750001,62.0,69.0
893,227.51328600000002,227.92544775000002,57.0,70.0
894,227.51328600000002,228.08085300000002,61.0,75.0
895,228.1213935,228.23119068750003,57.0,76.0
896,227.91869100000002,228.40686618750001,52.0,76.0
897,228.32409600000003,228.54200118750003,57.0,77.0
898,228.32409600000003,228.63490650000003,64.0,79.0
899,227.51328600000002,228.70078481250002,45.0,76.0
900,228.5267985,228.77679825,52.0,76.0
901,228.72950100000003,228.93727106250003,57.0,77.0
902,229.13490600000003,229.5690271875,59.0,76.0
903,229.13490600000003,229.69571625000003,62.0,76.0
904,229.74301350000002,229.85449987500002,59.0,76.0
905,229.54031100000003,230.01328350000003,54.0,66.0
906,229.94571600000003,230.14841850000002,59.0,80.0
907,230.14841850000002,230.28862106250003,54.0,72.0
908,229.94571600000003,230.29706700000003,66.0,72.0
909,229.13490600000003,230.36632368750003,47.0,77.0
910,230.35112100000003,230.611255875,59.0,77.0
911,230.55382350000002,231.0403095,62.0,73.0
912,231.161931,231.4710523125,55.0,73.0
913,231.36463350000002,231.50483606250003,59.0,78.0
914,230.95922850000002,231.5757819375,50.0,69.0
915,231.567336,231.807200625,62.0,80.0
916,230.756526,231.99301125000002,43.0,76.0
917,231.77003850000003,232.01665987500002,50.0,71.0
918,231.972741,232.08760575000002,55.0,77.0
919,232.37814600000002,232.59605118750002,57.0,72.0
920,232.37814600000002,232.83591581250002,62.0,76.0
921,232.78355100000002,233.07409125,57.0,76.0
922,233.18895600000002,233.59773937500003,62.0,77.0
923,233.18895600000002,233.6332123125,66.0,76.0
924,233.59436100000002,233.84267156250002,57.0,76.0
925,232.37814600000002,233.91699581250003,50.0,77.0
926,233.7970635,234.02003625000003,62.0,71.0
927,233.99976600000002,234.66361668750002,61.0,80.0
928,234.40517100000002,234.9778055625,52.0,77.0
929,234.81057600000003,235.02003525000003,57.0,68.0
930,234.81057600000003,235.2109134375,61.0,72.0
931,233.99976600000002,235.24807556250002,45.0,69.0
932,234.81057600000003,235.25145393750003,64.0,77.0
933,235.21598100000003,235.40348081250002,57.0,76.0
934,235.62138600000003,235.969358625,55.0,70.0
935,235.62138600000003,236.16023681250002,59.0,71.0
936,236.22949350000002,236.4778040625,55.0,76.0
937,236.02679100000003,236.66361468750003,50.0,71.0
938,236.43219600000003,236.70753356250003,62.0,74.0
939,236.63489850000002,236.90179012500002,55.0,78.0
940,235.62138600000003,237.05888456250003,43.0,76.0
941,236.83760100000003,237.08760075,59.0,70.0
942,237.04030350000002,237.21260062500002,55.0,77.0
943,237.243006,237.64165425000002,61.0,78.0
944,237.648411,237.9068566875,57.0,80.0
945,237.85111350000003,238.01327550000002,61.0,80.0
946,238.053816,238.29199143750003,64.0,76.0
947,238.25651850000003,238.449085875,61.0,80.0
948,237.44570850000002,238.53861281250002,52.0,74.0
949,237.243006,238.61800462500003,45.0,77.0
950,238.459221,238.6906396875,57.0,78.0
951,238.86462600000002,239.06395012500002,57.0,71.0
952,238.86462600000002,239.30381475000002,62.0,74.0
953,239.27003100000002,239.56226043750002,57.0,74.0
954,239.47273350000003,239.68219275,62.0,71.0
955,239.67543600000002,239.97780056250002,66.0,79.0
956,239.87813850000003,240.13151662500002,57.0,73.0
957,238.86462600000002,240.188949,50.0,76.0
958,240.08084100000002,240.27340837500003,62.0,70.0
959,240.2835435,240.51834056250001,57.0,66.0
960,240.48624600000002,241.12475887500003,61.0,75.0
961,241.0943535,241.29705600000003,57.0,76.0
962,240.89165100000002,241.53692062500002,52.0,76.0
963,241.29705600000003,241.73624475000003,64.0,77.0
964,241.4997585,241.74975825,57.0,74.0
965,240.48624600000002,241.80719062500003,45.0,77.0
966,241.70246100000003,241.85786625000003,61.0,75.0
967,242.10786600000003,242.51158181250003,59.0,70.0
968,242.10786600000003,242.75313562500003,62.0,74.0
969,242.71597350000002,242.91867600000003,59.0,77.0
970,242.51327100000003,243.023405625,54.0,64.0
971,242.10786600000003,243.21090543750003,47.0,75.0
972,242.91867600000003,243.21090543750003,66.0,79.0
973,243.12137850000002,243.31056750000002,59.0,77.0
974,243.32408100000004,243.55043212500001,62.0,68.0
975,243.52678350000002,243.80549943750003,59.0,70.0
976,244.33759350000003,244.63826887500002,55.0,77.0
977,244.540296,244.7818498125,59.0,77.0
978,243.729486,244.95583612500002,43.0,76.0
979,244.134891,244.95752531250002,50.0,74.0
980,244.74299850000003,245.01664687500002,62.0,76.0
981,244.945701,245.13826837500002,55.0,76.0
982,245.35110600000002,245.57238956250004,57.0,69.0
983,245.35110600000002,245.79874068750001,62.0,76.0
984,245.75651100000002,246.22103756250002,57.0,72.0
985,246.16191600000002,246.52509131250002,66.0,79.0
986,245.35110600000002,246.76495593750002,50.0,77.0
987,246.56732100000002,246.80211806250003,57.0,77.0
988,246.97272600000002,247.17880687500002,57.0,70.0
989,246.97272600000002,247.40346881250002,61.0,74.0
990,247.37813100000002,247.75988737500003,57.0,76.0
991,247.5808335,247.8054954375,61.0,79.0
992,247.1754285,247.87475212500001,52.0,69.0
993,247.9862385,248.23623825,52.0,77.0
994,247.78353600000003,248.28353550000003,64.0,78.0
995,246.97272600000002,248.3122516875,45.0,77.0
996,248.18894100000003,248.45752181250003,57.0,77.0
997,248.39164350000001,248.50144068750004,61.0,77.0
998,248.59434600000003,248.9845483125,55.0,72.0
999,248.59434600000003,249.12137250000004,59.0,75.0
1000,249.20245350000002,249.38488575000002,55.0,74.0
1001,248.99975100000003,249.50312887500002,50.0,73.0
1002,249.40515600000003,249.83252043750002,62.0,77.0
1003,248.59434600000003,249.93893925000003,43.0,76.0
1004,249.60785850000002,249.98961487500003,50.0,75.0
1005,249.81056100000004,250.04029050000003,55.0,77.0
1006,250.215966,250.43387118750002,57.0,76.0
1007,250.215966,250.48623600000002,61.0,74.0
1008,250.621371,250.88319506250002,57.0,78.0
1009,250.82407350000003,250.90853287500002,61.0,78.0
1010,250.41866850000002,251.06562731250003,52.0,76.0
1011,251.026776,251.2581946875,57.0,78.0
1012,251.026776,251.38657293750003,64.0,81.0
1013,251.432181,251.63657268750003,57.0,77.0
1014,250.215966,251.65346456250003,45.0,77.0
1015,251.22947850000003,251.70076181250002,52.0,79.0
1016,251.83758600000002,251.96765343750002,57.0,70.0
1017,251.83758600000002,252.08082900000002,62.0,75.0
1018,252.04028850000003,252.26495043750003,57.0,69.0
1019,252.24299100000002,252.42542325000002,62.0,69.0
1020,252.44569350000003,252.69231487500002,57.0,70.0
1021,252.64839600000002,252.94062543750002,66.0,78.0
1022,252.85109850000003,253.03859831250003,57.0,74.0
1023,251.83758600000002,253.050422625,50.0,78.0
1024,253.05380100000002,253.22440893750002,62.0,69.0
1025,253.45920600000002,253.87136775000002,57.0,70.0
1026,253.45920600000002,254.02677300000002,61.0,75.0
1027,254.0673135,254.17711068750003,57.0,76.0
1028,253.86461100000002,254.35278618750002,52.0,76.0
1029,254.27001600000003,254.48792118750004,57.0,77.0
1030,254.27001600000003,254.58082650000003,64.0,79.0
1031,253.45920600000002,254.64670481250002,45.0,76.0
1032,254.4727185,254.72271825,52.0,76.0
1033,254.67542100000003,254.88319106250003,57.0,77.0
1034,255.08082600000003,255.5149471875,59.0,76.0
1035,255.08082600000003,255.64163625000003,62.0,76.0
1036,255.68893350000002,255.80041987500002,59.0,76.0
1037,255.48623100000003,255.95920350000003,54.0,66.0
1038,255.89163600000003,256.09433850000005,59.0,80.0
1039,256.09433850000005,256.2345410625,54.0,72.0
1040,255.89163600000003,256.242987,66.0,72.0
1041,255.08082600000003,256.31224368750003,47.0,77.0
1042,256.29704100000004,256.55717587500004,59.0,77.0
1043,256.4997435,256.98622950000004,62.0,73.0
1044,257.10785100000004,257.41697231250004,55.0,73.0
1045,257.3105535,257.45075606250003,59.0,78.0
1046,256.9051485,257.52170193750004,50.0,69.0
1047,257.513256,257.753120625,62.0,80.0
1048,256.702446,257.93893125,43.0,76.0
1049,257.7159585,257.962579875,50.0,71.0
1050,257.91866100000004,258.03352575,55.0,77.0
1051,258.324066,258.5419711875,57.0,72.0
1052,258.324066,258.78183581250005,62.0,76.0
1053,258.72947100000005,259.02001125000004,57.0,76.0
1054,259.134876,259.543659375,62.0,77.0
1055,259.134876,259.5791323125,66.0,76.0
1056,259.54028100000005,259.7885915625,57.0,76.0
1057,258.324066,259.86291581250003,50.0,77.0
1058,259.74298350000004,259.96595625000003,62.0,71.0
1059,259.945686,260.6095366875,61.0,80.0
1060,260.351091,260.9237255625,52.0,77.0
1061,260.756496,260.96595525000004,57.0,68.0
1062,260.756496,261.15683343750004,61.0,72.0
1063,259.945686,261.19399556250005,45.0,69.0
1064,260.756496,261.1973739375,64.0,77.0
1065,261.161901,261.34940081250005,57.0,76.0
1066,261.56730600000003,261.91527862500004,55.0,70.0
1067,261.56730600000003,262.10615681250005,59.0,71.0
1068,262.17541350000005,262.4237240625,55.0,76.0
1069,261.972711,262.6095346875,50.0,71.0
1070,262.37811600000003,262.65345356250003,62.0,74.0
1071,262.5808185,262.84771012500005,55.0,78.0
1072,261.56730600000003,263.0048045625,43.0,76.0
1073,262.783521,263.03352075000004,59.0,70.0
1074,262.98622350000005,263.15852062500005,55.0,77.0
1075,263.18892600000004,263.58757425000005,61.0,78.0
1076,263.594331,263.8527766875,57.0,80.0
1077,263.7970335,263.9591955,61.0,80.0
1078,263.99973600000004,264.23791143750003,64.0,76.0
1079,264.2024385,264.39500587500004,61.0,80.0
1080,263.3916285,264.48453281250005,52.0,74.0
1081,263.18892600000004,264.563924625,45.0,77.0
1082,264.405141,264.63655968750004,57.0,78.0
1083,264.81054600000004,265.212572625,62.0,67.0
1084,264.81054600000004,265.27169418750003,66.0,67.0
1085,264.81054600000004,265.9507475625,50.0,72.0
1086,265.215951,265.96257187500004,57.0,61.0
1087,265.62135600000005,266.03351775000004,66.0,77.0
1088,266.026761,266.4507470625,62.0,71.0
1089,266.43216600000005,266.9000709375,64.0,72.0
1090,266.837571,267.39838125,57.0,70.0
1091,267.242976,267.48284062500005,61.0,66.0
1092,267.242976,267.523381125,64.0,76.0
1093,266.837571,267.56392162500003,52.0,57.0
1094,266.43216600000005,267.5926378125,45.0,71.0
1095,268.053786,268.56560981250004,62.0,65.0
1096,268.053786,268.58756925,59.0,63.0
1097,268.45919100000003,268.915271625,54.0,55.0
1098,268.053786,269.12810925,47.0,69.0
1099,268.864596,269.2446631875,66.0,74.0
1100,269.27000100000004,269.486217,59.0,72.0
1101,269.675406,270.20412168750005,57.0,65.0
1102,269.675406,270.4811484375,61.0,54.0
1103,270.08081100000004,270.6534455625,52.0,61.0
1104,269.675406,270.68385093750004,45.0,65.0
1105,270.486216,270.712567125,57.0,68.0
1106,271.297026,271.70918775,55.0,68.0
1107,271.297026,271.90851187500004,62.0,70.0
1108,272.107836,272.27168718750005,55.0,70.0
1109,271.297026,272.34094387500005,43.0,72.0
1110,271.70243100000005,272.35783575000005,50.0,62.0
1111,272.107836,272.53013287500005,59.0,71.0
1112,272.918646,273.32236181250005,57.0,67.0
1113,272.918646,273.56222643750004,61.0,61.0
1114,273.729456,274.070671875,61.0,81.0
1115,272.918646,274.31729325000003,45.0,73.0
1116,273.324051,274.32236081250005,52.0,71.0
1117,274.134861,274.61290106250004,57.0,77.0
1118,275.30040037500004,275.7615485625,64.0,76.0
1119,275.73621075,275.8240485,66.0,90.0
1120,274.50648225000003,275.8460079375,50.0,80.0
1121,274.9169548125,275.88823762500004,57.0,67.0
1122,276.28012912500003,278.74972125000005,66.0,59.0
1123,276.20073731250005,278.7514104375,62.0,56.0
1124,276.03350775,278.7547888125,50.0,75.0
1125,276.19566975000004,278.756478,57.0,64.0
1126,276.3797911875,278.786883375,69.0,69.0
1127,276.48958837500004,278.807153625,74.0,75.0
