,start,end,pitch,velocity
0,0.25961484375,0.7288446354166667,64.0,111.0
1,0.7173061979166667,3.3326853645833334,76.0,92.0
2,3.4961465625,3.9499917708333334,76.0,117.0
3,3.948068697916667,4.198068177083333,74.0,105.0
4,4.190375885416667,4.444221510416667,72.0,111.0
5,4.444221510416667,6.840370364583333,76.0,114.0
6,7.6672917187500005,8.099983125,64.0,120.0
7,8.10575234375,10.705746927083334,76.0,114.0
8,10.861515833333334,11.349976354166667,76.0,114.0
9,11.317284114583334,11.536514427083333,74.0,108.0
10,11.513437552083333,11.76920625,72.0,100.0
11,11.755744739583333,12.263435989583334,74.0,111.0
12,12.251897552083333,14.496123645833334,71.0,114.0
13,14.559585052083333,14.888430520833333,69.0,120.0
14,15.007661041666667,15.29419890625,71.0,117.0
15,15.4268909375,18.00573171875,72.0,108.0
16,18.21342359375,18.68649953125,72.0,114.0
17,18.653807291666666,18.898037552083334,71.0,117.0
18,18.899960625,19.151883177083334,69.0,108.0
19,19.169190833333335,21.388416979166667,72.0,111.0
20,21.955723489583335,22.409568697916665,64.0,117.0
21,22.386491822916668,22.636491302083332,67.0,111.0
22,22.623029791666667,22.859567760416667,69.0,105.0
23,22.869183125,24.16725734375,65.0,114.0
24,24.240334114583334,24.47879515625,64.0,123.0
25,24.46341057291667,24.590333385416667,65.0,51.0
26,24.580718020833334,24.688410104166667,64.0,92.0
27,24.70956390625,25.67879265625,62.0,97.0
28,26.121099427083333,26.561483125,59.0,108.0
29,26.56725234375,29.284554375,64.0,108.0
30,59.827702718750004,60.55497471875,69.0,114.0
31,60.67618671875,61.15914078125,71.0,117.0
32,61.16292865625,61.31065578125,69.0,84.0
33,61.35232240625,61.47353440625,71.0,89.0
34,61.60989790625,61.79360984375,76.0,111.0
35,61.81823103125,61.93186728125,74.0,92.0
36,62.034139906250005,63.33833432291667,76.0,114.0
37,79.36137786458335,79.5248390625,72.0,87.0
38,79.58830046875,79.74406937500001,71.0,114.0
39,79.80560770833334,79.97099197916667,69.0,108.0
40,80.04983796875001,81.54021947916667,71.0,111.0
41,81.66329614583334,81.87483416666667,71.0,87.0
42,81.92098791666668,83.15367765625001,67.0,94.0
43,83.29406197916667,83.48829234375,72.0,102.0
44,83.52483072916667,83.6555996875,71.0,80.0
45,83.75559947916668,85.32675005208334,69.0,102.0
46,92.97673411458334,94.20942385416667,72.0,123.0
47,94.36134661458334,94.52288473958333,71.0,117.0
48,94.59211536458334,94.69980744791667,69.0,117.0
49,94.82288411458333,95.84595890625,72.0,114.0
50,96.20749661458333,96.3363425,69.0,120.0
51,96.43826536458334,96.55749588541667,71.0,117.0
52,96.66903411458334,97.09211015625002,72.0,120.0
53,97.13057161458335,97.24595598958334,71.0,114.0
54,97.36134036458334,97.66133973958334,69.0,117.0
55,97.82287786458335,98.07672348958334,71.0,120.0
56,98.28441536458334,99.20364421875001,64.0,114.0
57,99.18441348958333,99.20364421875001,64.0,120.0
58,99.42095145833335,99.74979692708334,69.0,120.0
59,99.83441213541667,100.051719375,71.0,117.0
60,100.097873125,100.28248812500001,72.0,111.0
61,100.38248791666666,101.42287036458333,74.0,120.0
62,101.28440911458334,101.65748526041668,76.0,117.0
63,101.73825432291667,101.944023125,74.0,108.0
64,101.95940770833334,102.14594578125,72.0,100.0
65,102.17286880208334,103.23055890625,69.0,114.0
66,103.36132786458333,103.54978901041667,69.0,111.0
67,103.59209661458334,103.71709635416667,72.0,105.0
68,103.82286536458334,103.95555739583334,74.0,111.0
69,104.05363411458333,107.39016562500001,76.0,108.0
70,121.82282786458333,121.96705833333334,64.0,120.0
71,122.05359661458334,122.20359630208334,69.0,114.0
72,122.28436536458334,122.39590359375,71.0,114.0
73,122.51513411458333,122.84397958333334,72.0,114.0
74,122.97667161458334,123.28244020833334,71.0,120.0
75,123.43820911458334,123.82666984375001,74.0,111.0
76,123.89974661458334,124.21705364583335,67.0,108.0
77,124.36128411458334,126.03435755208334,64.0,111.0
78,128.96704375000002,129.174735625,71.0,89.0
79,129.19973557291667,129.33435067708334,69.0,84.0
80,129.44973505208333,129.89011875,71.0,91.0
81,129.94204171875,130.72857854166668,67.0,92.0
82,134.48818609375002,134.69203182291668,72.0,89.0
83,134.70741640625,134.95164666666668,71.0,57.0
84,134.97087739583333,135.47856864583332,69.0,66.0
85,136.35356682291666,136.52664338541666,74.0,94.0
86,136.58818171875,136.73625833333335,72.0,73.0
87,136.80548895833334,136.974719375,71.0,84.0
88,137.04010385416666,137.2170265625,69.0,58.0
89,137.30356484375,138.50548541666666,71.0,64.0
90,138.65933125,138.80740786458335,72.0,78.0
91,138.89586921875002,139.01894588541666,74.0,82.0
92,139.13817640625,139.87279026041668,76.0,114.0
93,140.06894369791667,140.2824047916667,76.0,100.0
94,140.30548166666665,140.50740432291667,74.0,87.0
95,140.52855812500002,140.7477884375,72.0,60.0
96,140.73625,140.90163427083334,74.0,69.0
97,140.99586484374998,142.40355421875,76.0,100.0
98,142.59778458333335,142.73816890625,76.0,84.0
99,142.82855333333333,144.128550625,74.0,100.0
100,145.33047119791667,145.46893244791667,72.0,84.0
101,145.58816296875,145.76508567708333,71.0,105.0
102,145.7977779166667,146.020854375,69.0,71.0
103,146.0573927604167,146.39200744791668,67.0,80.0
104,146.52085333333332,147.78431223958336,69.0,87.0
105,155.74583411458335,155.943910625,69.0,114.0
106,155.97660286458336,156.17083322916667,64.0,97.0
107,156.20737161458334,156.35737130208332,69.0,114.0
108,156.43814036458332,156.89967786458334,71.0,114.0
109,156.89967786458334,157.02467760416667,69.0,111.0
110,157.13044661458332,157.58813796875,72.0,114.0
111,157.59198411458334,158.04967546875002,65.0,117.0
112,158.28429036458334,158.40736703125,65.0,105.0
113,158.51505911458332,159.5977491666667,64.0,120.0
114,162.65543510416666,162.80543479166667,72.0,100.0
115,162.86889619791668,162.99966515625,71.0,92.0
116,163.12851104166668,163.813125,67.0,105.0
117,164.02658609375,164.87658432291667,67.0,89.0
118,164.96696875,165.72658255208336,69.0,87.0
119,166.37850427083333,166.54196546875,84.0,97.0
120,166.59388843750003,166.74965734375002,83.0,80.0
121,166.82273411458334,168.08426994791665,81.0,100.0
122,168.19003895833333,168.47657682291668,84.0,100.0
123,168.66888411458334,169.41695947916668,83.0,89.0
124,169.59003604166668,170.2996499479167,81.0,82.0
125,171.44580140625,171.96695416666665,83.0,67.0
126,172.11503078125,172.25541510416667,81.0,67.0
127,172.36118411458335,173.96887307291667,83.0,97.0
128,175.13040911458336,175.27463958333334,84.0,102.0
129,175.34771635416666,175.48425453125,83.0,76.0
130,175.57463895833334,175.85156145833332,81.0,78.0
131,176.05733026041668,177.50732723958333,83.0,92.0
132,178.81886296875,179.56116911458332,79.0,94.0
133,179.7707840625,180.79962807291668,81.0,97.0
134,182.53616291666668,182.72270098958336,72.0,102.0
135,182.74385479166668,182.97846968750002,71.0,67.0
136,182.98616197916667,183.359238125,69.0,60.0
137,183.4746225,184.48423578125,69.0,87.0
138,184.82077354166665,185.17269588541666,74.0,82.0
139,185.30346484375002,186.34577036458336,74.0,84.0
140,186.67653890625002,186.80730786458332,72.0,94.0
141,186.89192307291665,187.02269203125002,74.0,97.0
142,187.13423026041667,188.04576682291668,76.0,111.0
143,190.36114661458333,190.52268473958333,71.0,117.0
144,190.59191536458334,190.69960744791666,69.0,117.0
145,190.82268411458335,191.84575890625,72.0,114.0
146,192.20729661458333,192.3361425,69.0,120.0
147,192.43806536458334,192.55729588541666,71.0,117.0
148,192.66883411458335,193.09191015625,72.0,120.0
149,193.13037161458334,193.24575598958333,71.0,114.0
150,193.36114036458335,193.66113973958335,69.0,117.0
151,193.82267786458334,194.07652348958334,71.0,120.0
152,194.28421536458333,195.20344421875,64.0,114.0
153,195.18421348958333,195.20344421875,64.0,120.0
154,195.42075145833334,195.74959692708333,69.0,120.0
155,195.83421213541666,196.051519375,71.0,117.0
156,196.097673125,196.282288125,72.0,111.0
157,196.38228791666668,197.42267036458333,74.0,120.0
158,197.28420911458335,197.65728526041667,76.0,117.0
159,197.73805432291667,197.943823125,74.0,108.0
160,197.95920770833334,198.14574578125,72.0,100.0
161,198.17266880208334,199.23035890625002,69.0,114.0
162,199.36112786458335,199.54958901041667,69.0,111.0
163,199.59189661458333,199.71689635416666,71.0,105.0
164,199.82266536458334,199.95535739583335,72.0,111.0
165,200.05343411458333,203.389965625,71.0,108.0
