,start,end,pitch,velocity
0,30.274936927083335,30.66339765625,72.0,105.0
1,30.736474427083333,30.838397291666666,64.0,111.0
2,30.967243177083333,31.109550572916667,64.0,102.0
3,31.198011927083332,31.49416515625,71.0,114.0
4,31.659549427083334,32.02685635416667,71.0,114.0
5,32.12108692708333,33.18454625,69.0,111.0
6,33.505699427083336,33.619160729166666,67.0,117.0
7,33.73646817708333,33.828775677083335,69.0,108.0
8,33.967236927083334,34.33839,71.0,114.0
9,34.42877442708333,34.746081458333336,69.0,117.0
10,34.89031192708333,35.02492703125,67.0,111.0
11,35.121080677083334,35.746079375,69.0,108.0
12,35.813386927083336,37.30761458333333,64.0,111.0
13,37.65953692708333,37.986459322916666,62.0,117.0
14,38.121074427083336,38.444150677083336,62.0,111.0
15,38.582611927083335,38.707611666666665,62.0,105.0
16,38.81338067708333,39.188379895833336,62.0,105.0
17,39.274918177083336,39.42107171875,64.0,100.0
18,39.50568692708333,39.85953234375,64.0,105.0
19,39.96722442708333,40.09991645833333,62.0,100.0
20,40.19799317708333,40.728761302083335,60.0,100.0
21,41.35183692708333,41.45952901041667,69.0,111.0
22,41.582605677083336,41.6883746875,69.0,108.0
23,41.81337442708333,41.95183567708333,69.0,111.0
24,42.044143177083335,42.205681302083335,72.0,105.0
25,42.27491192708333,42.74221864583333,71.0,120.0
26,42.736449427083336,42.976833541666664,67.0,108.0
27,42.96721817708333,43.11337171875,69.0,114.0
28,43.197986927083335,44.64606083333334,69.0,105.0
29,44.81336817708333,44.9652909375,64.0,114.0
30,45.044136927083336,45.371059322916665,72.0,108.0
31,45.505674427083335,45.61336651041667,71.0,105.0
32,45.73644317708333,45.915288958333335,71.0,105.0
33,45.96721192708333,46.34221114583333,69.0,117.0
34,46.42874942708333,46.81528708333333,71.0,114.0
35,46.89028692708333,48.05566911458333,69.0,105.0
36,48.274899427083334,48.392206875,67.0,108.0
37,48.505668177083336,48.60374489583334,69.0,114.0
38,48.73643692708333,49.07105161458333,71.0,114.0
39,49.19797442708333,49.563358281250004,69.0,114.0
40,49.65951192708334,50.00374197916667,67.0,111.0
41,50.121049427083335,50.54027932291667,69.0,102.0
42,50.582586927083334,51.8883534375,64.0,111.0
43,52.428736927083335,52.7421978125,62.0,117.0
44,52.890274427083334,53.1806584375,62.0,117.0
45,53.35181192708333,53.6421959375,62.0,108.0
46,53.81334942708333,53.957579895833334,62.0,111.0
47,54.044118177083334,54.15181026041667,64.0,100.0
48,54.27488692708334,54.624886197916666,64.0,117.0
49,54.736424427083335,54.84796265625,62.0,108.0
50,54.96719317708333,55.52680739583333,60.0,117.0
51,56.12103692708333,56.22295979166667,69.0,114.0
52,56.351805677083334,56.4575746875,69.0,108.0
53,56.58257442708334,56.70565109375,69.0,102.0
54,56.81334317708333,56.94795828125,72.0,108.0
55,57.044111927083335,57.23834229166667,71.0,120.0
56,57.27488067708333,57.38641890625,69.0,117.0
57,57.505649427083334,57.901802447916666,67.0,114.0
58,57.96718692708333,59.88452084375,69.0,108.0
59,63.43833411458334,63.55564156250001,69.0,117.0
60,63.66910286458334,63.79217953125001,69.0,105.0
61,63.89987161458334,64.0171790625,69.0,111.0
62,64.13064036458334,64.25564010416667,69.0,114.0
63,64.36140911458334,64.467178125,76.0,102.0
64,64.59217786458333,65.07102302083334,76.0,114.0
65,65.28448411458334,65.390253125,67.0,114.0
66,65.51525286458335,65.61332958333334,69.0,111.0
67,65.74602161458334,65.83832911458333,67.0,114.0
68,65.97679036458334,66.07486708333334,69.0,102.0
69,66.20755911458333,66.73063494791667,67.0,108.0
70,67.13063411458334,67.24409541666667,67.0,111.0
71,67.36140286458334,67.46332572916667,67.0,105.0
72,67.59217161458334,67.73255593750001,67.0,111.0
73,67.82294036458333,67.92486322916668,69.0,111.0
74,68.05370911458334,68.15563197916667,71.0,114.0
75,68.28447786458334,68.75755380208334,74.0,100.0
76,68.97678411458334,69.32678338541668,67.0,111.0
77,69.43832161458334,69.56139828125,69.0,102.0
78,69.66909036458334,70.50562708333334,69.0,108.0
79,70.82293411458333,70.928703125,72.0,108.0
80,71.05370286458334,71.16524109375001,72.0,105.0
81,71.28447161458334,71.4940865625,72.0,111.0
82,71.51524036458333,71.713316875,71.0,105.0
83,71.74600911458334,72.32677713541668,69.0,117.0
84,72.43831536458333,72.54600744791668,69.0,114.0
85,72.66908411458334,72.78831463541667,74.0,102.0
86,72.89985286458334,73.03254489583334,74.0,102.0
87,73.13062161458333,73.26908286458334,74.0,111.0
88,73.36139036458334,73.48446703125,72.0,105.0
89,73.59215911458334,74.18831171875,69.0,111.0
90,74.51523411458334,74.61715697916667,74.0,108.0
91,74.74600286458335,74.84215651041667,74.0,105.0
92,74.97677161458334,75.07677140625,74.0,105.0
93,75.20754036458334,75.31907859375,74.0,102.0
94,75.43830911458333,75.80561604166667,74.0,105.0
95,75.89984661458334,76.005615625,72.0,114.0
96,76.13061536458333,76.24407666666667,74.0,114.0
97,76.36138411458333,76.4786915625,76.0,102.0
98,76.59215286458334,76.72099875,79.0,105.0
99,76.82292161458334,76.93061369791667,76.0,87.0
100,77.05369036458333,77.14984401041667,74.0,114.0
101,77.28445911458334,78.03061140625,76.0,111.0
102,78.20753411458334,78.32484156250001,69.0,117.0
103,78.43830286458333,78.56137953125,69.0,105.0
104,78.66907161458334,78.7863790625,69.0,111.0
105,78.89984036458334,79.02484010416667,69.0,114.0
106,79.13060911458334,79.236378125,76.0,102.0
107,79.36137786458335,79.84022302083333,76.0,114.0
108,80.05368411458333,80.159453125,67.0,114.0
109,80.28445286458334,80.38252958333334,69.0,111.0
110,80.51522161458334,80.60752911458334,67.0,114.0
111,80.74599036458334,80.84406708333334,69.0,102.0
112,80.97675911458333,81.49983494791667,67.0,108.0
113,81.89983411458334,82.01329541666667,67.0,111.0
114,82.13060286458334,82.23252572916667,67.0,105.0
115,82.36137161458333,82.50175593750001,67.0,111.0
116,82.59214036458334,82.69406322916667,69.0,111.0
117,82.82290911458334,82.92483197916667,71.0,114.0
118,83.05367786458334,83.52675380208333,74.0,100.0
119,83.74598411458334,84.09598338541667,67.0,111.0
120,84.20752161458334,84.33059828125,69.0,102.0
121,84.43829036458334,85.27482708333334,69.0,108.0
122,85.59213411458333,85.69790312500001,72.0,108.0
123,85.82290286458334,85.93444109375001,72.0,105.0
124,86.05367161458334,86.26328656250001,72.0,111.0
125,86.28444036458333,86.482516875,71.0,105.0
126,86.51520911458334,87.09597713541667,69.0,117.0
127,87.20751536458334,87.31520744791668,69.0,114.0
128,87.43828411458334,87.55751463541668,74.0,102.0
129,87.66905286458334,87.80174489583334,74.0,102.0
130,87.89982161458335,88.03828286458334,74.0,111.0
131,88.13059036458334,88.25366703125,72.0,105.0
132,88.36135911458334,88.95751171875,69.0,111.0
133,89.28443411458333,89.38635697916666,74.0,108.0
134,89.51520286458333,89.61135651041667,74.0,105.0
135,89.74597161458334,89.84597140625,74.0,105.0
136,89.97674036458334,90.08827859375,74.0,102.0
137,90.20750911458333,90.43443171875,74.0,105.0
138,90.43827786458334,90.53250843750001,72.0,114.0
139,90.66904661458334,90.774815625,72.0,117.0
140,90.89981536458333,91.01519973958334,74.0,111.0
141,91.13058411458334,91.44212192708333,76.0,114.0
142,91.59212161458333,91.99596692708334,74.0,111.0
143,92.05365911458334,92.39404302083334,71.0,114.0
144,92.51519661458335,92.89788812500001,72.0,105.0
145,92.97673411458334,93.12288765625,71.0,108.0
146,93.20750286458335,96.06326614583334,69.0,111.0
147,107.51516536458334,107.74208796875001,64.0,100.0
148,107.74593411458335,108.07285651041667,72.0,108.0
149,108.20747161458334,108.31516369791667,71.0,105.0
150,108.43824036458334,108.61708614583334,71.0,105.0
151,108.66900911458333,109.04400833333334,69.0,117.0
152,109.13054661458334,109.51708427083334,71.0,114.0
153,109.59208411458334,110.75746630208334,69.0,105.0
154,110.97669661458335,111.0940040625,67.0,108.0
155,111.20746536458334,111.30554208333334,69.0,114.0
156,111.43823411458334,111.77284880208333,71.0,114.0
157,111.89977161458333,112.26515546875001,69.0,114.0
158,112.36130911458335,112.70553916666668,67.0,111.0
159,112.82284661458334,113.24207651041667,69.0,102.0
160,113.28438411458333,114.590150625,64.0,111.0
161,115.13053411458334,115.443995,62.0,117.0
162,115.59207161458335,115.882455625,62.0,117.0
163,116.05360911458334,116.343993125,62.0,108.0
164,116.51514661458333,116.65937708333334,62.0,111.0
165,116.74591536458334,116.85360744791667,64.0,100.0
166,116.97668411458334,117.32668338541667,64.0,117.0
167,117.43822161458334,117.54975984375,62.0,108.0
168,117.66899036458334,118.22860458333334,60.0,117.0
169,118.82283411458334,118.92475697916667,69.0,114.0
170,119.05360286458334,119.159371875,69.0,108.0
171,119.28437161458334,119.40744828125,69.0,102.0
172,119.51514036458335,119.64975546875002,72.0,108.0
173,119.74590911458334,119.94013947916667,71.0,120.0
174,119.97667786458334,120.08821609375,69.0,117.0
175,120.20744661458335,120.60359963541667,67.0,114.0
176,120.66898411458334,122.60359546875,69.0,108.0
177,126.20743411458334,126.32474156250001,69.0,117.0
178,126.43820286458333,126.56127953125001,69.0,105.0
179,126.66897161458334,126.7862790625,69.0,111.0
180,126.89974036458334,127.02474010416668,69.0,114.0
181,127.13050911458333,127.23627812500001,76.0,102.0
182,127.36127786458334,127.84012302083335,76.0,114.0
183,128.05358411458334,128.159353125,67.0,114.0
184,128.28435286458335,128.38242958333333,69.0,111.0
185,128.51512161458334,128.60742911458334,67.0,114.0
186,128.74589036458335,128.84396708333333,69.0,102.0
187,128.97665911458336,129.4997349479167,67.0,108.0
188,129.89973411458334,130.0131954166667,67.0,111.0
189,130.13050286458332,130.23242572916666,67.0,105.0
190,130.36127161458336,130.5016559375,67.0,111.0
191,130.59204036458334,130.69396322916668,69.0,111.0
192,130.82280911458332,130.92473197916667,71.0,114.0
193,131.05357786458333,131.52665380208333,74.0,100.0
194,131.74588411458333,132.09588338541667,67.0,111.0
195,132.20742161458332,132.33049828125002,69.0,102.0
196,132.43819036458333,133.27472708333335,69.0,108.0
197,133.59203411458333,133.697803125,72.0,108.0
198,133.82280286458334,133.93434109375,72.0,105.0
199,134.05357161458335,134.2631865625,72.0,111.0
200,134.28434036458333,134.482416875,71.0,105.0
201,134.51510911458334,135.09587713541669,69.0,117.0
202,135.20741536458334,135.31510744791666,69.0,114.0
203,135.43818411458335,135.55741463541668,74.0,102.0
204,135.66895286458333,135.80164489583333,74.0,102.0
205,135.89972161458334,136.03818286458335,74.0,111.0
206,136.13049036458335,136.25356703125,72.0,105.0
207,136.36125911458333,136.95741171875,69.0,111.0
208,137.28433411458334,137.38625697916666,74.0,108.0
209,137.51510286458335,137.61125651041667,74.0,105.0
210,137.74587161458334,137.84587140625,74.0,105.0
211,137.97664036458332,138.08817859375,74.0,102.0
212,138.20740911458336,138.57471604166668,74.0,105.0
213,138.66894661458332,138.774715625,72.0,114.0
214,138.89971536458336,139.01317666666665,74.0,114.0
215,139.13048411458334,139.24779156250003,76.0,102.0
216,139.36125286458332,139.49009875000002,79.0,105.0
217,139.59202161458336,139.69971369791668,76.0,87.0
218,139.82279036458334,139.91894401041668,74.0,114.0
219,140.05355911458332,140.79971140625003,76.0,111.0
220,140.97663411458333,141.0939415625,69.0,117.0
221,141.20740286458334,141.33047953125,69.0,105.0
222,141.43817161458333,141.5554790625,69.0,111.0
223,141.66894036458334,141.79394010416667,69.0,114.0
224,141.89970911458335,142.00547812500002,76.0,102.0
225,142.13047786458333,142.60932302083336,76.0,114.0
226,142.82278411458333,142.928553125,67.0,114.0
227,143.05355286458334,143.15162958333335,69.0,111.0
228,143.28432161458335,143.37662911458335,67.0,114.0
229,143.51509036458333,143.61316708333334,69.0,102.0
230,143.74585911458334,144.26893494791668,67.0,108.0
231,144.66893411458335,144.78239541666667,67.0,111.0
232,144.89970286458333,145.00162572916668,67.0,105.0
233,145.13047161458334,145.27085593750002,67.0,111.0
234,145.36124036458335,145.46316322916667,69.0,111.0
235,145.59200911458333,145.69393197916668,71.0,114.0
236,145.82277786458334,146.29585380208334,74.0,100.0
237,146.51508411458335,146.86508338541665,67.0,111.0
238,146.97662161458334,147.09969828125,69.0,102.0
239,147.20739036458332,148.04392708333336,69.0,108.0
240,148.36123411458334,148.46700312500002,72.0,108.0
241,148.59200286458332,148.70354109375,72.0,105.0
242,148.82277161458336,149.0323865625,72.0,111.0
243,149.05354036458334,149.25161687500002,71.0,105.0
244,149.28430911458332,149.86507713541667,69.0,117.0
245,149.97661536458332,150.08430744791667,69.0,114.0
246,150.20738411458333,150.32661463541666,74.0,102.0
247,150.43815286458334,150.57084489583332,74.0,102.0
248,150.66892161458333,150.80738286458336,74.0,111.0
249,150.89969036458334,151.02276703125,72.0,105.0
250,151.13045911458335,151.72661171875,69.0,111.0
251,152.05353411458333,152.15545697916667,74.0,108.0
252,152.28430286458334,152.38045651041668,74.0,105.0
253,152.51507161458335,152.61507140625002,74.0,105.0
254,152.74584036458333,152.85737859375,74.0,102.0
255,152.97660911458334,153.20353171875,74.0,105.0
256,153.20737786458335,153.30160843750002,72.0,114.0
257,153.43814661458333,153.543915625,72.0,117.0
258,153.66891536458334,153.78429973958333,74.0,111.0
259,153.89968411458335,154.21122192708333,76.0,114.0
260,154.36122161458334,154.76506692708335,74.0,111.0
261,154.82275911458333,155.16314302083333,71.0,114.0
262,155.28429661458335,155.666988125,72.0,105.0
263,155.74583411458335,155.89198765625002,71.0,108.0
264,155.97660286458336,158.83236614583333,69.0,111.0
265,159.43813411458333,159.5554415625,69.0,117.0
266,159.66890286458334,159.79197953125,69.0,105.0
267,159.89967161458333,160.0169790625,69.0,111.0
268,160.13044036458334,160.25544010416667,69.0,114.0
269,160.36120911458335,160.46697812500003,76.0,102.0
270,160.59197786458333,161.07082302083336,76.0,114.0
271,161.28428411458333,161.390053125,67.0,114.0
272,161.51505286458334,161.61312958333332,69.0,111.0
273,161.74582161458335,161.83812911458335,67.0,114.0
274,161.97659036458333,162.07466708333334,69.0,102.0
275,162.20735911458334,162.73043494791668,67.0,108.0
276,163.13043411458335,163.24389541666667,67.0,111.0
277,163.36120286458333,163.46312572916668,67.0,105.0
278,163.59197161458334,163.73235593750002,67.0,111.0
279,163.82274036458335,163.92466322916667,69.0,111.0
280,164.05350911458333,164.15543197916668,71.0,114.0
281,164.28427786458334,164.75735380208334,74.0,100.0
282,164.97658411458332,165.32658338541665,67.0,111.0
283,165.43812161458334,165.56119828125,69.0,102.0
284,165.66889036458332,166.50542708333336,69.0,108.0
285,166.82273411458334,166.92850312500002,72.0,108.0
286,167.05350286458332,167.16504109375,72.0,105.0
287,167.28427161458333,167.4938865625,72.0,111.0
288,167.51504036458334,167.71311687500003,71.0,105.0
289,167.74580911458332,168.32657713541667,69.0,117.0
290,168.43811536458333,168.54580744791667,69.0,114.0
291,168.66888411458334,168.78811463541666,74.0,102.0
292,168.89965286458335,169.03234489583332,74.0,102.0
293,169.13042161458333,169.26888286458333,74.0,111.0
294,169.36119036458334,169.48426703125,72.0,105.0
295,169.59195911458335,170.18811171875,69.0,111.0
296,170.51503411458333,170.61695697916667,74.0,108.0
297,170.74580286458334,170.84195651041668,74.0,105.0
298,170.97657161458335,171.07657140625003,74.0,105.0
299,171.20734036458333,171.31887859375001,74.0,102.0
300,171.43810911458334,171.80541604166666,74.0,105.0
301,171.89964661458333,172.005415625,72.0,114.0
302,172.13041536458334,172.24387666666667,74.0,114.0
303,172.36118411458335,172.4784915625,76.0,102.0
304,172.59195286458333,172.72079875,79.0,105.0
305,172.82272161458334,172.93041369791666,76.0,87.0
306,173.05349036458335,173.1496440104167,74.0,114.0
307,173.28425911458334,174.03041140625,76.0,111.0
308,174.20733411458332,174.3246415625,69.0,117.0
309,174.43810286458336,174.56117953125,69.0,105.0
310,174.66887161458334,174.78617906250003,69.0,111.0
311,174.89964036458332,175.02464010416668,69.0,114.0
312,175.13040911458336,175.236178125,76.0,102.0
313,175.36117786458334,175.84002302083334,76.0,114.0
314,176.05348411458334,176.15925312500002,67.0,114.0
315,176.28425286458332,176.38232958333333,69.0,111.0
316,176.51502161458333,176.60732911458334,67.0,114.0
317,176.74579036458334,176.84386708333335,69.0,102.0
318,176.97655911458332,177.49963494791666,67.0,108.0
319,177.89963411458334,178.01309541666666,67.0,111.0
320,178.13040286458335,178.2323257291667,67.0,105.0
321,178.36117161458333,178.5015559375,67.0,111.0
322,178.59194036458334,178.69386322916665,69.0,111.0
323,178.82270911458335,178.9246319791667,71.0,114.0
324,179.05347786458333,179.52655380208336,74.0,100.0
325,179.74578411458333,180.09578338541667,67.0,111.0
326,180.20732161458335,180.33039828125,69.0,102.0
327,180.43809036458333,181.27462708333334,69.0,108.0
328,181.59193411458335,181.697703125,72.0,108.0
329,181.82270286458333,181.93424109375002,72.0,105.0
330,182.05347161458334,182.2630865625,72.0,111.0
331,182.28424036458335,182.482316875,71.0,105.0
332,182.51500911458334,183.09577713541665,69.0,117.0
333,183.20731536458334,183.31500744791668,69.0,114.0
334,183.43808411458332,183.55731463541667,74.0,102.0
335,183.66885286458336,183.80154489583333,74.0,102.0
336,183.89962161458334,184.03808286458334,74.0,111.0
337,184.13039036458332,184.25346703125,72.0,105.0
338,184.36115911458336,184.95731171875002,69.0,111.0
339,185.28423411458334,185.38615697916669,74.0,108.0
340,185.51500286458332,185.61115651041666,74.0,105.0
341,185.74577161458333,185.84577140625,74.0,105.0
342,185.97654036458334,186.08807859375003,74.0,102.0
343,186.20730911458332,186.43423171875003,74.0,105.0
344,186.43807786458333,186.5323084375,72.0,114.0
345,186.66884661458334,186.77461562500002,72.0,117.0
346,186.89961536458333,187.01499973958335,74.0,111.0
347,187.13038411458334,187.44192192708334,76.0,114.0
348,187.59192161458333,187.99576692708334,74.0,111.0
349,188.05345911458335,188.39384302083334,71.0,114.0
350,188.51499661458334,188.897688125,72.0,105.0
351,188.97653411458333,189.12268765625,71.0,108.0
352,189.20730286458334,192.06306614583335,69.0,111.0
