,start,end,pitch,velocity
0,31.343762537499998,31.421887568749998,73.0,113.0
1,31.611619787499997,31.694209106249996,73.0,107.0
2,31.8794770375,32.1116199875,73.0,107.0
3,32.4151915375,32.6428702,75.0,102.0
4,32.6830487875,32.9776917625,72.0,107.0
5,34.2901922875,34.580370975,73.0,108.0
6,34.5580495375,34.837067506249994,72.0,98.0
7,34.825906787499996,35.12724619375,68.0,98.0
8,35.3616212875,35.66742498125,68.0,88.0
9,35.8973357875,36.2143002,68.0,89.0
10,39.647337287499994,39.738855181249995,73.0,90.0
11,39.9151945375,40.000015999999995,73.0,104.0
12,40.1830517875,40.27010539375,73.0,100.0
13,40.4509090375,40.66073055,73.0,107.0
14,40.718766287499996,40.888409212499994,73.0,90.0
15,40.986623537499995,41.287962943749996,77.0,107.0
16,41.5223380375,41.82144529999999,72.0,108.0
17,41.7901952875,41.82144529999999,72.0,91.0
18,42.0580525375,42.1473382875,72.0,91.0
19,42.325909787499995,42.4151955375,72.0,92.0
20,42.593767037499994,42.8794814375,73.0,104.0
21,42.8616242875,43.12724939375,72.0,93.0
22,43.3973387875,43.7098389125,68.0,100.0
23,43.665196037499996,43.7098389125,68.0,100.0
24,44.20091053749999,44.450910637499994,70.0,102.0
25,46.879483037499995,47.2143046,70.0,102.0
26,47.14734028749999,47.41073325,73.0,91.0
27,47.4151975375,47.649572631249995,77.0,98.0
28,47.6830547875,48.03796564375,75.0,107.0
29,49.558055537499996,49.772341337499995,72.0,104.0
30,49.825912787499995,50.01787715,73.0,102.0
31,50.09377003749999,50.40403801874999,75.0,110.0
32,51.70091353749999,52.02011009375,73.0,108.0
33,52.2366280375,52.80359255,70.0,108.0
34,57.058058537499996,57.169665724999994,73.0,110.0
35,57.325915787499994,57.428594399999994,73.0,107.0
36,57.59377303749999,57.80136240624999,73.0,104.0
37,57.8616302875,58.142880399999996,75.0,110.0
38,58.1294875375,58.3928805,77.0,93.0
39,58.665202037499995,58.9955593125,72.0,108.0
40,60.004488287499996,60.49332776874999,73.0,104.0
41,60.54020278749999,60.941988662499995,72.0,98.0
42,61.0759172875,61.3884174125,68.0,92.0
43,61.611631787499995,61.99556051249999,70.0,104.0
44,65.3616332875,65.46207975624999,73.0,93.0
45,65.62949053749999,65.72770486249999,73.0,91.0
46,65.8973477875,66.01118711875,73.0,91.0
47,66.1652050375,66.2634193625,73.0,93.0
48,66.4330622875,66.58931235,73.0,91.0
49,66.7009195375,67.0491339625,77.0,104.0
50,67.2366340375,67.37056266249999,72.0,108.0
51,67.50449128749999,67.6205627625,72.0,100.0
52,67.7723485375,67.8794914375,72.0,91.0
53,68.0402057875,68.20092013749999,72.0,96.0
54,68.30806303749999,68.5580631375,73.0,93.0
55,68.5759202875,68.83708110625,72.0,96.0
56,69.1116347875,69.223241975,68.0,93.0
57,69.3794920375,69.60047426874999,68.0,102.0
58,69.64734928749999,69.95984941249999,70.0,102.0
59,72.5937790375,72.9062791625,70.0,108.0
60,72.86163628749999,73.08485066249999,73.0,96.0
61,73.1294935375,73.3169936125,77.0,100.0
62,73.39735078749999,73.7500295,75.0,102.0
63,75.2723515375,75.54467307499999,72.0,110.0
64,75.54020878749999,75.705387425,73.0,100.0
65,75.8080660375,76.16297689375,75.0,113.0
66,77.41520953749999,77.776816825,72.0,113.0
67,77.95092403749999,78.35270991249999,70.0,107.0
68,80.3616392875,80.4643179,77.0,113.0
69,80.62949653749999,80.72324657499999,77.0,110.0
70,80.8973537875,80.9955681125,77.0,107.0
71,81.1652110375,81.3169968125,77.0,108.0
72,81.43306828749999,81.55583619375,80.0,113.0
73,81.7009255375,81.89958633124999,80.0,116.0
74,81.96878278749999,82.1071757,78.0,116.0
75,82.2366400375,82.57146159999999,82.0,117.0
76,82.7723545375,82.973247475,82.0,117.0
77,83.0402117875,83.1652118375,80.0,113.0
78,83.30806903749999,83.52012269375,82.0,116.0
79,83.84378353749999,84.0714622,82.0,110.0
80,84.1116407875,84.28351585624999,80.0,104.0
81,84.3794980375,84.63396242499999,84.0,110.0
82,85.18306978749999,85.27235553749999,84.0,116.0
83,85.4509270375,85.6473556875,84.0,113.0
84,85.7187842875,85.98664153749999,82.0,113.0
85,85.98664153749999,86.2455702125,80.0,110.0
86,86.2544987875,86.43976671875,75.0,107.0
87,86.52235603749999,86.77905256874999,77.0,116.0
88,87.5937850375,87.71655294374999,77.0,113.0
89,87.86164228749999,88.05137450625,77.0,107.0
90,88.1294995375,88.27682102499999,75.0,110.0
91,88.39735678749999,88.67191046875,77.0,114.0
92,89.73664303749999,89.95316098125,77.0,114.0
93,90.0045002875,90.24333966875,80.0,89.0
94,90.2723575375,90.50673263124999,78.0,100.0
95,90.54021478749999,90.81476846874999,77.0,102.0
96,90.8080720375,91.08262571875,75.0,113.0
97,91.3437865375,91.58932234999999,73.0,104.0
98,91.6116437875,91.88619746875,75.0,113.0
99,92.41521553749999,92.66075135,75.0,113.0
100,92.6830727875,92.84825142499999,73.0,102.0
101,92.95093003749999,93.2009301375,75.0,116.0
102,93.4866445375,93.705394625,73.0,110.0
103,93.75450178749999,93.98887688125,75.0,117.0
104,94.5580735375,94.78798434375,73.0,102.0
105,94.8259307875,95.11834161875,75.0,107.0
106,95.09378803749999,95.2634309625,77.0,104.0
107,95.3616452875,95.49780605625,77.0,100.0
108,95.62950253749999,95.74110972499999,77.0,102.0
109,95.8973597875,96.01789554999999,77.0,98.0
110,96.1652170375,96.3928957,77.0,113.0
111,96.43307428749999,96.65182437499999,77.0,92.0
112,96.7009315375,96.90405661874999,75.0,107.0
113,96.96878878749999,97.2098603125,77.0,114.0
114,97.50450328749999,97.60718189999999,77.0,113.0
115,97.77236053749999,97.866110575,77.0,110.0
116,98.0402177875,98.1384321125,77.0,107.0
117,98.30807503749999,98.4598608125,77.0,108.0
118,98.5759322875,98.69870019375,80.0,113.0
119,98.84378953749999,99.04245033125,80.0,116.0
120,99.11164678749999,99.25003969999999,78.0,116.0
121,99.3795040375,99.7143256,82.0,117.0
122,99.9152185375,100.116111475,82.0,117.0
123,100.18307578749999,100.3080758375,80.0,113.0
124,100.4509330375,100.66298669375,82.0,116.0
125,100.98664753749999,101.21432619999999,82.0,110.0
126,101.2545047875,101.42637985625,80.0,104.0
127,101.52236203749999,101.776826425,84.0,110.0
128,102.32593378749999,102.4152195375,84.0,116.0
129,102.5937910375,102.7902196875,84.0,113.0
130,102.86164828749999,103.1295055375,82.0,113.0
131,103.1295055375,103.38843421249999,80.0,110.0
132,103.39736278749999,103.58263071875,75.0,107.0
133,103.66522003749999,103.92191656874999,77.0,116.0
134,104.73664903749999,104.85941694374999,77.0,113.0
135,105.00450628749999,105.19423850624999,77.0,107.0
136,105.2723635375,105.41968502499999,75.0,110.0
137,105.54022078749999,105.81477446874999,77.0,114.0
138,106.87950703749999,107.09602498125,77.0,114.0
139,107.1473642875,107.38620366874999,80.0,89.0
140,107.41522153749999,107.64959663124999,78.0,100.0
141,107.6830787875,107.95763246874999,77.0,102.0
142,107.95093603749999,108.22548971875,75.0,113.0
143,108.4866505375,108.73218634999999,73.0,104.0
144,108.75450778749999,109.02906146874999,75.0,113.0
145,109.55807953749999,109.80361534999999,75.0,113.0
146,109.8259367875,109.99111542499999,73.0,102.0
147,110.09379403749999,110.3437941375,75.0,116.0
148,110.62950853749999,110.84825862499999,73.0,110.0
149,110.8973657875,111.13174088125,75.0,117.0
150,111.7009375375,111.93084834374999,73.0,102.0
151,111.96879478749999,112.26120561875,75.0,107.0
152,112.2366520375,112.4062949625,77.0,104.0
153,112.50450928749999,112.64067005624999,77.0,100.0
154,112.77236653749999,112.88397372499999,77.0,102.0
155,113.0402237875,113.16075955,77.0,98.0
156,113.30808103749999,113.53575969999999,77.0,113.0
157,113.5759382875,113.79468837499999,77.0,92.0
158,113.84379553749999,114.04692061875,75.0,107.0
159,114.11165278749999,114.35272431249999,77.0,114.0
160,134.2009465375,134.312553725,73.0,110.0
161,134.46880378749998,134.57148239999998,73.0,107.0
162,134.7366610375,134.94425040624998,73.0,104.0
163,135.0045182875,135.2857684,75.0,110.0
164,135.27237553749998,135.5357685,77.0,93.0
165,135.8080900375,136.13844731249998,72.0,108.0
166,137.14737628749998,137.63621576875,73.0,104.0
167,137.6830907875,138.0848766625,72.0,98.0
168,138.2188052875,138.5313054125,68.0,92.0
169,138.7545197875,139.1384485125,70.0,104.0
170,142.50452128749998,142.60496775624998,73.0,93.0
171,142.7723785375,142.8705928625,73.0,91.0
172,143.0402357875,143.15407511875,73.0,91.0
173,143.3080930375,143.4063073625,73.0,93.0
174,143.57595028749998,143.73220035,73.0,91.0
175,143.8438075375,144.19202196249998,77.0,104.0
176,144.37952203749998,144.5134506625,72.0,108.0
177,144.6473792875,144.76345076249999,72.0,100.0
178,144.9152365375,145.02237943749998,72.0,91.0
179,145.18309378749998,145.3438081375,72.0,96.0
180,145.45095103749998,145.7009511375,73.0,93.0
181,145.7188082875,145.97996910625,72.0,96.0
182,146.25452278749998,146.36612997499998,68.0,93.0
183,146.5223800375,146.74336226875,68.0,102.0
184,146.7902372875,147.10273741249998,70.0,102.0
185,149.73666703749998,150.0491671625,70.0,108.0
186,150.00452428749998,150.2277386625,73.0,96.0
187,150.2723815375,150.4598816125,77.0,100.0
188,150.5402387875,150.89291749999998,75.0,102.0
189,152.41523953749999,152.687561075,72.0,110.0
190,152.68309678749998,152.848275425,73.0,100.0
191,152.9509540375,153.30586489375,75.0,113.0
192,154.55809753749998,154.919704825,72.0,113.0
193,155.0938120375,155.4955979125,70.0,107.0
194,157.5045272875,157.6072059,77.0,113.0
195,157.7723845375,157.866134575,77.0,110.0
196,158.04024178749998,158.1384561125,77.0,107.0
197,158.3080990375,158.45988481249998,77.0,108.0
198,158.5759562875,158.69872419375,80.0,113.0
199,158.84381353749998,159.04247433125,80.0,116.0
200,159.11167078749997,159.2500637,78.0,116.0
201,159.3795280375,159.7143496,82.0,117.0
202,159.91524253749998,160.116135475,82.0,117.0
203,160.1830997875,160.30809983749998,80.0,113.0
204,160.4509570375,160.66301069374998,82.0,116.0
205,160.9866715375,161.21435019999998,82.0,110.0
206,161.2545287875,161.42640385624998,80.0,104.0
207,161.52238603749998,161.776850425,84.0,110.0
208,162.3259577875,162.41524353749998,84.0,116.0
209,162.59381503749998,162.79024368749998,84.0,113.0
210,162.8616722875,163.1295295375,82.0,113.0
211,163.1295295375,163.38845821249998,80.0,110.0
212,163.39738678749998,163.58265471874998,75.0,107.0
213,163.66524403749997,163.92194056875,77.0,116.0
214,164.7366730375,164.85944094375,77.0,113.0
215,165.0045302875,165.19426250625,77.0,107.0
216,165.27238753749998,165.41970902499997,75.0,110.0
217,165.5402447875,165.81479846874998,77.0,114.0
218,166.8795310375,167.09604898125,77.0,114.0
219,167.14738828749998,167.38622766875,80.0,89.0
220,167.4152455375,167.64962063125,78.0,100.0
221,167.6831027875,167.95765646874997,77.0,102.0
222,167.95096003749998,168.22551371875,75.0,113.0
223,168.4866745375,168.73221034999997,73.0,104.0
224,168.75453178749999,169.02908546875,75.0,113.0
225,169.5581035375,169.80363935,75.0,113.0
226,169.82596078749998,169.991139425,73.0,102.0
227,170.0938180375,170.3438181375,75.0,116.0
228,170.62953253749998,170.848282625,73.0,110.0
229,170.89738978749998,171.13176488124998,75.0,117.0
230,171.70096153749998,171.93087234375,73.0,102.0
231,171.9688187875,172.26122961874998,75.0,107.0
232,172.2366760375,172.4063189625,77.0,104.0
233,172.50453328749998,172.64069405625,77.0,100.0
234,172.7723905375,172.883997725,77.0,102.0
235,173.0402477875,173.16078355,77.0,98.0
236,173.30810503749998,173.5357837,77.0,113.0
237,173.57596228749998,173.794712375,77.0,92.0
238,173.8438195375,174.04694461875,75.0,107.0
239,174.1116767875,174.35274831249998,77.0,114.0
240,174.6473912875,174.7500699,77.0,113.0
241,174.9152485375,175.008998575,76.0,110.0
242,175.18310578749998,175.2813201125,77.0,107.0
243,175.45096303749997,175.60274881249998,77.0,108.0
244,175.7188202875,175.84158819375,80.0,113.0
245,175.9866775375,176.18533833125,80.0,116.0
246,176.25453478749998,176.3929277,78.0,116.0
247,176.5223920375,176.8572136,82.0,117.0
248,177.05810653749998,177.258999475,82.0,117.0
249,177.3259637875,177.45096383749998,80.0,113.0
250,177.5938210375,177.80587469374998,82.0,116.0
251,178.12953553749998,178.3572142,82.0,110.0
252,178.3973927875,178.56926785624998,80.0,104.0
253,178.6652500375,178.919714425,84.0,110.0
254,179.4688217875,179.55810753749998,84.0,116.0
255,179.73667903749998,179.93310768749998,84.0,113.0
256,180.00453628749997,180.2723935375,82.0,113.0
257,180.2723935375,180.5313222125,80.0,110.0
258,180.54025078749999,180.72551871874998,75.0,107.0
259,180.80810803749998,181.06480456875,77.0,116.0
260,181.8795370375,182.00230494374998,77.0,113.0
261,182.1473942875,182.33712650624997,77.0,107.0
262,182.41525153749998,182.56257302499998,75.0,110.0
263,182.68310878749998,182.95766246875,77.0,114.0
264,184.0223950375,184.23891298125,77.0,114.0
265,184.29025228749998,184.52909166875,80.0,89.0
266,184.55810953749997,184.79248463124998,78.0,100.0
267,184.8259667875,185.10052046874998,77.0,102.0
268,185.09382403749999,185.36837771875,75.0,113.0
269,185.6295385375,185.87507434999998,73.0,104.0
270,185.8973957875,186.17194946875,75.0,113.0
271,186.7009675375,186.94650335,75.0,113.0
272,186.96882478749998,187.13400342499997,73.0,102.0
273,187.23668203749997,187.4866821375,75.0,116.0
274,187.7723965375,187.991146625,73.0,110.0
275,188.04025378749998,188.27462888124998,75.0,117.0
276,188.84382553749998,189.07373634375,73.0,102.0
277,189.11168278749997,189.40409361874998,75.0,107.0
278,189.3795400375,190.11168318749998,77.0,104.0
279,190.1831117875,190.30364755,77.0,98.0
280,190.4509690375,190.6786477,77.0,113.0
281,190.71882628749998,190.937576375,77.0,92.0
282,190.9866835375,191.18980861875,75.0,107.0
283,191.2545407875,193.59382743749998,77.0,114.0
284,195.8081140375,197.55365045,82.0,120.0
285,197.95097203749998,199.00677603124998,80.0,119.0
286,201.1652590375,201.47999130624999,77.0,117.0
287,201.70097353749998,201.92418791249997,78.0,116.0
288,201.9688307875,202.31704521249998,77.0,113.0
289,202.50454528749998,202.90409901874997,75.0,114.0
290,204.6474032875,204.83713550624998,73.0,102.0
291,204.9152605375,205.20097493749998,72.0,93.0
292,206.25454678749998,206.44204686249998,70.0,88.0
293,206.3884754125,206.56258262499998,72.0,89.0
294,206.5224040375,207.29026148749998,73.0,89.0
