,start,end,pitch,velocity
0,5.5714308,7.4352708312499995,61.0,61.0
1,5.5714308,7.5312530125,53.0,61.0
2,5.5714308,7.6227709062499995,58.0,61.0
3,5.5714308,7.6941995062499995,46.0,61.0
4,7.714288799999999,9.56920025625,53.0,53.0
5,7.714288799999999,9.642861,60.0,53.0
6,7.714288799999999,9.7455396125,44.0,53.0
7,7.714288799999999,9.776789625,56.0,53.0
8,9.857146799999999,13.571433999999998,54.0,55.0
9,9.857146799999999,13.582594718749998,61.0,55.0
10,9.857146799999999,13.58929115,58.0,55.0
11,9.857146799999999,13.61384473125,42.0,55.0
12,14.19643425,14.513398662499998,60.0,63.0
13,14.464291499999998,15.000005999999999,61.0,92.0
14,15.000005999999999,15.301345406249999,60.0,71.0
15,13.928576999999999,15.379470437499998,53.0,68.0
16,13.660719749999998,15.41072045,46.0,97.0
17,15.26786325,15.832595618749998,58.0,91.0
18,15.26786325,15.854917056249999,61.0,90.0
19,16.33929225,16.665185237499998,55.0,63.0
20,16.071434999999997,16.8794710375,53.0,65.0
21,16.6071495,17.1919711625,56.0,102.0
22,15.803577749999999,17.573667743749997,44.0,95.0
23,17.142864,17.671882068749998,53.0,51.0
24,17.410721249999998,17.72991780625,55.0,90.0
25,17.6785785,18.031257212499998,56.0,88.0
26,17.6785785,18.04241793125,60.0,92.0
27,18.214292999999998,19.21206125625,49.0,67.0
28,18.7500075,19.38616846875,61.0,87.0
29,18.7500075,19.404025618749998,58.0,83.0
30,18.48215025,19.486614937499997,54.0,55.0
31,17.94643575,19.743311468749997,42.0,87.0
32,19.285722,19.790186487499998,49.0,53.0
33,19.821436499999997,20.285722399999997,54.0,75.0
34,19.821436499999997,20.4285796,61.0,81.0
35,19.821436499999997,20.455365325,58.0,83.0
36,20.625008249999997,20.779026168749997,54.0,56.0
37,20.357150999999998,20.926347656249998,49.0,62.0
38,20.8928655,21.348222824999997,58.0,102.0
39,20.8928655,21.38616926875,61.0,97.0
40,21.42858,21.5580443375,54.0,72.0
41,20.08929375,21.6384015125,42.0,87.0
42,21.160722749999998,21.734383693749997,49.0,67.0
43,21.69643725,21.890633756249997,60.0,94.0
44,21.964294499999998,22.274562481249998,61.0,91.0
45,22.767866249999997,23.09599138125,60.0,71.0
46,22.500009,23.363848631249997,53.0,51.0
47,23.0357235,23.6116165875,61.0,99.0
48,23.571437999999997,23.89063455625,60.0,79.0
49,22.23215175,23.91742028125,46.0,92.0
50,23.83929525,24.40849190625,58.0,84.0
51,23.83929525,24.4330454875,61.0,92.0
52,24.642867,25.44420660625,53.0,61.0
53,24.910724249999998,25.57813523125,56.0,56.0
54,25.1785815,25.714295999999997,60.0,92.0
55,25.714295999999997,25.895099643749997,55.0,59.0
56,24.375009749999997,26.09152829375,44.0,87.0
57,25.98215325,26.50670703125,60.0,95.0
58,25.98215325,26.53349275625,56.0,95.0
59,26.785725,27.61831461875,49.0,55.0
60,27.053582249999998,28.0580469375,54.0,58.0
61,27.321439499999997,28.15402911875,58.0,88.0
62,27.321439499999997,28.18081484375,61.0,97.0
63,26.517867749999997,28.2366184375,42.0,92.0
64,28.3928685,28.977690162499997,54.0,87.0
65,28.928582999999996,29.495547512499996,49.0,68.0
66,29.19644025,29.55135110625,54.0,85.0
67,28.660725749999997,29.562511824999998,42.0,94.0
68,29.464297499999997,29.948672693749998,58.0,100.0
69,29.73215475,30.0714406,49.0,65.0
70,29.464297499999997,30.236619237499998,61.0,106.0
71,30.267869249999997,30.321440699999997,42.0,84.0
72,30.000011999999998,30.493315768749998,54.0,87.0
73,30.805815893749998,31.252244643749997,58.0,62.0
74,31.0759052875,31.39510184375,60.0,76.0
75,31.343762537499998,31.662959093749997,61.0,69.0
76,31.611619787499997,31.93528063125,58.0,51.0
77,30.805815893749998,32.0714414,46.0,63.0
78,32.147334287499994,32.419655825,58.0,51.0
79,31.611619787499997,32.4241201125,68.0,99.0
80,32.4151915375,32.508941574999994,46.0,65.0
81,31.8794770375,32.5134058625,70.0,80.0
82,31.8794770375,32.51563800625,65.0,82.0
83,31.8794770375,32.5401915875,73.0,95.0
84,32.9509060375,33.51787055,56.0,62.0
85,33.218763287499996,33.5580491375,58.0,59.0
86,33.486620537499995,33.82367424375,60.0,72.0
87,33.7544777875,34.0848350625,56.0,72.0
88,32.9509060375,34.285728,44.0,63.0
89,33.7544777875,34.520103093749995,68.0,95.0
90,34.0223350375,34.520103093749995,68.0,92.0
91,34.2901922875,34.58706740625,56.0,71.0
92,34.0223350375,34.65849600625,65.0,96.0
93,34.0223350375,34.68528173125,72.0,100.0
94,34.5580495375,34.783496056249994,44.0,72.0
95,34.825906787499996,34.86831751875,56.0,76.0
96,35.3616212875,35.662960693749994,56.0,59.0
97,35.093764037499994,35.6919785625,54.0,63.0
98,35.6294785375,35.955371525,58.0,67.0
99,35.8973357875,36.2544787875,54.0,56.0
100,35.093764037499994,36.45313958125,42.0,63.0
101,35.8973357875,36.4687645875,65.0,95.0
102,36.433050287499995,36.52456818125,54.0,47.0
103,36.7009075375,36.7723361375,42.0,49.0
104,36.165193037499996,37.794657975,73.0,92.0
105,36.165193037499996,37.80581869375,70.0,91.0
106,36.165193037499996,37.81474726875,66.0,94.0
107,38.040193787499994,38.095997381249994,66.0,87.0
108,37.772336537499996,38.37278320625,54.0,84.0
109,37.5044792875,38.392872499999996,42.0,79.0
110,38.5759082875,38.89956913125,54.0,80.0
111,38.3080510375,39.0491227625,66.0,105.0
112,38.3080510375,39.066979912499995,73.0,105.0
113,38.3080510375,39.09599778125,70.0,101.0
114,38.8437655375,39.1026942125,42.0,79.0
115,39.379480037499995,39.82367664375,58.0,62.0
116,39.647337287499994,39.96653384375,60.0,76.0
117,39.9151945375,40.23439109375,61.0,69.0
118,40.1830517875,40.50671263125,58.0,51.0
119,39.379480037499995,40.6428734,46.0,63.0
120,40.718766287499996,40.991087824999994,58.0,51.0
121,40.1830517875,40.9955521125,68.0,99.0
122,40.986623537499995,41.080373574999996,46.0,65.0
123,40.4509090375,41.084837862499995,70.0,80.0
124,40.4509090375,41.087070006249995,65.0,82.0
125,40.4509090375,41.1116235875,73.0,95.0
126,41.5223380375,42.08930255,56.0,62.0
127,41.7901952875,42.129481137499994,58.0,59.0
128,42.0580525375,42.39510624375,60.0,72.0
129,42.325909787499995,42.6562670625,56.0,72.0
130,41.5223380375,42.85716,44.0,63.0
131,42.325909787499995,43.09153509375,68.0,95.0
132,42.593767037499994,43.09153509375,68.0,92.0
133,42.8616242875,43.158499406249994,56.0,71.0
134,42.593767037499994,43.22992800625,65.0,96.0
135,42.593767037499994,43.256713731249995,72.0,100.0
136,43.1294815375,43.354928056249996,44.0,72.0
137,43.3973387875,43.43974951875,56.0,76.0
138,43.933053287499995,44.234392693749996,56.0,59.0
139,43.665196037499996,44.2634105625,54.0,63.0
140,44.20091053749999,44.526803525,58.0,67.0
141,44.4687677875,44.8259107875,54.0,56.0
142,43.665196037499996,45.024571581249994,42.0,63.0
143,44.4687677875,45.0401965875,65.0,95.0
144,45.0044822875,45.09600018125,54.0,47.0
145,45.272339537499995,45.3437681375,42.0,49.0
146,44.7366250375,46.366089974999994,73.0,92.0
147,44.7366250375,46.37725069375,70.0,91.0
148,44.7366250375,46.38617926875,66.0,94.0
149,46.611625787499996,46.667429381249995,66.0,87.0
150,46.3437685375,46.94421520625,54.0,84.0
151,46.0759112875,46.9643045,42.0,79.0
152,47.14734028749999,47.47100113125,54.0,80.0
153,46.879483037499995,47.6205547625,66.0,105.0
154,46.879483037499995,47.6384119125,73.0,105.0
155,46.879483037499995,47.66742978125,70.0,101.0
156,47.4151975375,47.6741262125,42.0,79.0
157,47.6830547875,47.72546551875,54.0,67.0
158,47.9509120375,48.455376525,51.0,55.0
159,47.9509120375,48.642876599999994,63.0,68.0
160,47.9509120375,48.685287331249995,70.0,70.0
161,47.9509120375,48.691983762499994,66.0,70.0
162,48.7544837875,49.104930356249994,51.0,51.0
163,47.9509120375,49.198680393749996,39.0,53.0
164,49.0223410375,49.558055537499996,63.0,74.0
165,49.0223410375,49.59600198125,66.0,71.0
166,49.0223410375,49.607162699999996,70.0,74.0
167,49.558055537499996,49.616091274999995,39.0,64.0
168,49.2901982875,49.616091274999995,51.0,63.0
169,50.09377003749999,50.700913137499995,56.0,51.0
170,50.09377003749999,50.883948925,63.0,63.0
171,50.09377003749999,50.8884132125,68.0,68.0
172,50.09377003749999,50.89510964375,60.0,63.0
173,50.8973417875,51.28573479999999,56.0,76.0
174,50.09377003749999,51.419663424999996,44.0,50.0
175,51.70091353749999,51.7544849875,44.0,72.0
176,51.433056287499994,51.75671713125,56.0,84.0
177,51.165199037499995,51.76118141875,60.0,87.0
178,51.165199037499995,51.779038568749996,63.0,52.0
179,51.165199037499995,51.81921715625,68.0,83.0
180,52.2366280375,52.57814603124999,61.0,63.0
181,52.2366280375,52.80582469375,70.0,71.0
182,52.2366280375,52.8526997125,65.0,62.0
183,52.772342537499995,53.05582479375,60.0,53.0
184,52.504485287499996,53.3794856375,58.0,67.0
185,53.3080570375,53.66296789374999,70.0,76.0
186,53.3080570375,53.669664325,65.0,74.0
187,53.04019978749999,53.754485787499995,61.0,80.0
188,53.8437715375,54.125021649999994,60.0,59.0
189,53.5759142875,54.433057487499994,58.0,47.0
190,54.111628787499995,54.674129012499996,61.0,54.0
191,54.64734328749999,54.785736199999995,58.0,83.0
192,52.2366280375,54.95761126874999,46.0,72.0
193,54.9152005375,55.06028988124999,58.0,64.0
194,55.1830577875,55.508950774999995,60.0,74.0
195,55.450915037499996,55.7500223,61.0,68.0
196,55.450915037499996,55.763415162499996,65.0,83.0
197,55.450915037499996,55.770111593749995,70.0,86.0
198,55.450915037499996,55.88395092499999,46.0,84.0
199,55.718772287499995,55.975468818749995,60.0,76.0
200,55.986629537499994,56.238861781249994,58.0,63.0
201,56.2544867875,56.56252262499999,56.0,65.0
202,56.5223440375,56.966540643749994,58.0,62.0
203,56.7902012875,57.109397843749996,60.0,76.0
204,57.058058537499996,57.377255093749994,61.0,69.0
205,57.325915787499994,57.64957663124999,58.0,51.0
206,56.5223440375,57.785737399999995,46.0,63.0
207,57.8616302875,58.133951825,58.0,51.0
208,57.325915787499994,58.138416112499996,68.0,99.0
209,58.1294875375,58.223237575,46.0,65.0
210,57.59377303749999,58.2277018625,70.0,80.0
211,57.59377303749999,58.22993400625,65.0,82.0
212,57.59377303749999,58.254487587499995,73.0,95.0
213,58.665202037499995,59.232166549999995,56.0,62.0
214,58.933059287499994,59.2723451375,58.0,59.0
215,59.20091653749999,59.537970243749996,60.0,72.0
216,59.4687737875,59.799131062499995,56.0,72.0
217,58.665202037499995,60.000023999999996,44.0,63.0
218,59.4687737875,60.23439909374999,68.0,95.0
219,59.7366310375,60.23439909374999,68.0,92.0
220,60.004488287499996,60.30136340625,56.0,71.0
221,59.7366310375,60.372792006249995,65.0,96.0
222,59.7366310375,60.39957773125,72.0,100.0
223,60.272345537499994,60.49779205625,44.0,72.0
224,60.54020278749999,60.582613518749994,56.0,76.0
225,61.0759172875,61.37725669375,56.0,59.0
226,60.8080600375,61.406274562499995,54.0,63.0
227,61.343774537499996,61.669667524999994,58.0,67.0
228,61.611631787499995,61.968774787499996,54.0,56.0
229,60.8080600375,62.16743558125,42.0,63.0
230,61.611631787499995,62.183060587499995,65.0,95.0
231,62.14734628749999,62.238864181249994,54.0,47.0
232,62.4152035375,62.486632137499996,42.0,49.0
233,61.879489037499994,63.508953975,73.0,92.0
234,61.879489037499994,63.520114693749996,70.0,91.0
235,61.879489037499994,63.529043268749994,66.0,94.0
236,63.7544897875,63.81029338125,66.0,87.0
237,63.48663253749999,64.08707920625,54.0,84.0
238,63.218775287499994,64.1071685,42.0,79.0
239,64.29020428749999,64.61386513125,54.0,80.0
240,64.0223470375,64.7634187625,66.0,105.0
241,64.0223470375,64.78127591249999,73.0,105.0
242,64.0223470375,64.81029378125,70.0,101.0
243,64.5580615375,64.8169902125,42.0,79.0
244,65.09377603749999,65.53797264375,58.0,62.0
245,65.3616332875,65.68082984374999,60.0,76.0
246,65.62949053749999,65.94868709375,61.0,69.0
247,65.8973477875,66.22100863125,58.0,51.0
248,65.09377603749999,66.35716939999999,46.0,63.0
249,66.4330622875,66.705383825,58.0,51.0
250,65.8973477875,66.7098481125,68.0,99.0
251,66.7009195375,66.794669575,46.0,65.0
252,66.1652050375,66.7991338625,70.0,80.0
253,66.1652050375,66.80136600624999,65.0,82.0
254,66.1652050375,66.8259195875,73.0,95.0
255,67.2366340375,67.80359854999999,56.0,62.0
256,67.50449128749999,67.8437771375,58.0,59.0
257,67.7723485375,68.10940224375,60.0,72.0
258,68.0402057875,68.3705630625,56.0,72.0
259,67.2366340375,68.571456,44.0,63.0
260,68.0402057875,68.80583109375,68.0,95.0
261,68.30806303749999,68.80583109375,68.0,92.0
262,68.5759202875,68.87279540624999,56.0,71.0
263,68.30806303749999,68.94422400625,65.0,96.0
264,68.30806303749999,68.97100973124999,72.0,100.0
265,68.84377753749999,69.06922405625,44.0,72.0
266,69.1116347875,69.15404551875,56.0,76.0
267,69.64734928749999,69.94868869375,56.0,59.0
268,69.3794920375,69.97770656249999,54.0,63.0
269,69.9152065375,70.241099525,58.0,67.0
270,70.18306378749999,70.5402067875,54.0,56.0
271,69.3794920375,70.73886758124999,42.0,63.0
272,70.18306378749999,70.7544925875,65.0,95.0
273,70.7187782875,70.81029618125,54.0,47.0
274,70.98663553749999,71.0580641375,42.0,49.0
275,70.4509210375,72.080385975,73.0,92.0
276,70.4509210375,72.09154669374999,70.0,91.0
277,70.4509210375,72.10047526874999,66.0,94.0
278,72.3259217875,72.38172538124999,66.0,87.0
279,72.0580645375,72.65851120625,54.0,84.0
280,71.7902072875,72.6786005,42.0,79.0
281,72.86163628749999,73.18529713125,54.0,80.0
282,72.5937790375,73.3348507625,66.0,105.0
283,72.5937790375,73.3527079125,73.0,105.0
284,72.5937790375,73.38172578125,70.0,101.0
285,73.1294935375,73.38842221249999,42.0,79.0
286,73.39735078749999,73.43976151874999,54.0,67.0
287,73.6652080375,73.973243875,58.0,72.0
288,73.6652080375,74.12056536249999,63.0,69.0
289,73.6652080375,74.21877968749999,66.0,68.0
290,73.6652080375,74.23440469375,70.0,79.0
291,73.9330652875,74.63842271249999,51.0,58.0
292,74.20092253749999,74.9777085625,58.0,62.0
293,74.4687797875,75.14065505625,63.0,80.0
294,73.6652080375,75.25449438749999,39.0,61.0
295,75.0044942875,75.31029798124999,51.0,61.0
296,75.2723515375,75.48217305,58.0,61.0
297,74.4687797875,75.5937802375,66.0,82.0
298,74.4687797875,75.598244525,70.0,97.0
299,75.54020878749999,75.6116373875,63.0,53.0
300,75.8080660375,76.14511974375,60.0,67.0
301,75.8080660375,76.27904836875,68.0,74.0
302,75.8080660375,76.3259233875,63.0,50.0
303,76.3437805375,76.70315568125,60.0,85.0
304,76.07592328749999,76.741102125,56.0,72.0
305,76.6116377875,77.20538802499999,68.0,107.0
306,76.6116377875,77.26788805,63.0,97.0
307,75.8080660375,77.56476316874999,44.0,68.0
308,77.41520953749999,77.67190606874999,60.0,67.0
309,77.1473522875,77.72101323125,56.0,75.0
310,77.6830667875,77.93976331875,63.0,63.0
311,77.6830667875,77.97547761874999,68.0,79.0
312,77.95092403749999,78.23663843749999,61.0,63.0
313,77.95092403749999,78.401817075,65.0,56.0
314,77.95092403749999,78.40851350624999,70.0,71.0
315,78.4866385375,78.63619216875,61.0,77.0
316,78.2187812875,78.9330672875,58.0,76.0
317,78.75449578749999,79.27904956875,61.0,72.0
318,78.75449578749999,79.35047816875,65.0,86.0
319,78.75449578749999,79.36163888749999,70.0,101.0
320,77.95092403749999,79.73440689374999,46.0,68.0
321,79.5580675375,79.74333546874999,61.0,52.0
322,79.29021028749999,79.86387123124999,58.0,61.0
323,79.8259247875,80.30137140625,61.0,80.0
324,79.8259247875,80.3928893,65.0,83.0
325,79.8259247875,80.45762146874999,70.0,99.0
326,80.62949653749999,80.70538942499999,61.0,63.0
327,80.3616392875,80.96208595625,58.0,81.0
328,80.8973537875,81.00226454374999,61.0,72.0
329,80.8973537875,81.04467527499999,65.0,67.0
330,80.8973537875,81.05583599375,70.0,89.0
331,81.1652110375,81.40405041874999,61.0,90.0
332,81.1652110375,81.419675425,65.0,55.0
333,81.1652110375,81.419675425,72.0,93.0
334,80.09378203749999,81.67190766875,46.0,88.0
335,81.43306828749999,81.9419970625,58.0,65.0
336,81.7009255375,81.96431849999999,61.0,91.0
337,81.7009255375,81.98217564999999,65.0,76.0
338,81.96878278749999,82.00672923124999,46.0,80.0
339,81.7009255375,82.0223542375,70.0,89.0
340,82.2366400375,82.508961575,61.0,72.0
341,82.2366400375,82.72547951874999,70.0,83.0
342,82.2366400375,82.7277116625,66.0,76.0
343,82.7723545375,82.87949743749999,61.0,47.0
344,82.50449728749999,83.1652118375,54.0,51.0
345,83.0402117875,83.51789054999999,61.0,94.0
346,83.0402117875,83.5402119875,66.0,89.0
347,83.0402117875,83.5580691375,70.0,97.0
348,83.5759262875,83.8884264125,54.0,67.0
349,82.2366400375,83.9687835875,42.0,58.0
350,83.84378353749999,84.04021218749999,61.0,87.0
351,83.84378353749999,84.0759264875,66.0,78.0
352,83.84378353749999,84.09601578124999,70.0,94.0
353,84.1116407875,84.2098551125,54.0,63.0
354,84.3794980375,84.74333746875,60.0,83.0
355,84.3794980375,84.82369464374999,68.0,84.0
356,84.3794980375,84.8348553625,63.0,81.0
357,84.9152125375,84.99780185624999,60.0,71.0
358,84.64735528749999,85.44423060624999,56.0,63.0
359,85.18306978749999,85.74333786874999,60.0,100.0
360,85.18306978749999,85.76789145,68.0,99.0
361,85.18306978749999,85.78351645625,63.0,92.0
362,85.7187842875,86.02012369375,56.0,75.0
363,84.3794980375,86.10048086875,44.0,67.0
364,85.98664153749999,86.19646304999999,68.0,91.0
365,85.98664153749999,86.20985591249999,60.0,94.0
366,85.98664153749999,86.22548091875,63.0,87.0
367,86.2544987875,86.35048096874999,56.0,83.0
368,86.52235603749999,87.0000348,60.0,72.0
369,86.52235603749999,87.02235623749999,56.0,80.0
370,86.52235603749999,87.04021338749999,65.0,83.0
371,87.0580705375,87.5134278625,53.0,56.0
372,87.32592778749999,87.63619576875,65.0,89.0
373,87.32592778749999,87.68083864375,60.0,84.0
374,87.32592778749999,87.6919993625,56.0,102.0
375,86.52235603749999,88.26342816249999,41.0,72.0
376,88.1294995375,88.330392475,53.0,85.0
377,88.6652140375,88.955392725,61.0,75.0
378,88.6652140375,89.02012489375,65.0,58.0
379,88.6652140375,89.02235703749999,70.0,82.0
380,89.20092853749999,89.276821425,61.0,63.0
381,88.9330712875,89.63619656875,58.0,64.0
382,89.4687857875,89.8973573875,61.0,94.0
383,89.4687857875,89.9062859625,65.0,83.0
384,89.4687857875,89.98217885,70.0,95.0
385,88.6652140375,90.27012539374999,46.0,74.0
386,90.2723575375,90.4777147625,61.0,85.0
387,90.2723575375,90.491107625,65.0,78.0
388,90.0045002875,90.53351835625,58.0,84.0
389,90.2723575375,90.54021478749999,70.0,86.0
390,90.54021478749999,90.58708980624999,46.0,77.0
391,90.8080720375,91.0134292625,51.0,67.0
392,90.8080720375,91.2143222,63.0,87.0
393,90.8080720375,91.24780435625,70.0,86.0
394,90.8080720375,91.27012579375,66.0,84.0
395,91.3437865375,91.42637585624999,63.0,80.0
396,91.07592928749999,91.84155459374999,51.0,87.0
397,91.6116437875,92.05584039374999,63.0,100.0
398,91.6116437875,92.27012619374999,66.0,97.0
399,90.8080720375,92.44869769374999,39.0,81.0
400,92.41521553749999,92.50673343125,66.0,19.0
401,91.6116437875,92.56476916874999,70.0,95.0
402,92.41521553749999,92.57816203124999,63.0,75.0
403,92.1473582875,92.70985851249999,51.0,88.0
404,92.6830727875,92.72548351875,39.0,75.0
405,92.95093003749999,93.42637665625,56.0,71.0
406,92.95093003749999,93.62726959375,68.0,87.0
407,92.95093003749999,93.66521603749999,63.0,83.0
408,92.95093003749999,93.71655534374999,60.0,88.0
409,93.75450178749999,94.12726979374999,56.0,92.0
410,92.95093003749999,94.33262701874999,44.0,72.0
411,94.0223590375,94.5312878125,60.0,104.0
412,94.0223590375,94.6295021375,63.0,97.0
413,94.0223590375,94.64512714374999,68.0,105.0
414,94.5580735375,94.69646644999999,44.0,81.0
415,94.8259307875,94.88843081249999,44.0,35.0
416,94.29021628749999,94.88843081249999,56.0,83.0
417,95.09378803749999,95.56477036874999,68.0,91.0
418,95.09378803749999,95.580395375,63.0,71.0
419,95.09378803749999,95.62057396249999,61.0,92.0
420,95.62950253749999,96.18977061874999,58.0,59.0
421,95.8973597875,96.419681425,63.0,90.0
422,95.8973597875,96.42860999999999,61.0,92.0
423,95.8973597875,96.44200286249999,68.0,105.0
424,96.7009315375,96.90852090624999,61.0,80.0
425,96.7009315375,96.91298519374999,68.0,83.0
426,95.09378803749999,96.98441379375,46.0,90.0
427,96.43307428749999,96.98887808125,58.0,90.0
428,97.2366460375,97.70762836875,65.0,91.0
429,97.50450328749999,97.70762836875,65.0,78.0
430,97.2366460375,97.723253375,62.0,71.0
431,97.50450328749999,97.723253375,62.0,85.0
432,97.2366460375,97.7634319625,58.0,92.0
433,97.50450328749999,97.86834271874999,70.0,91.0
434,98.0402177875,98.1473606875,62.0,88.0
435,97.77236053749999,98.3527179125,58.0,92.0
436,97.2366460375,98.366110775,46.0,92.0
437,98.30807503749999,98.5670037125,62.0,110.0
438,98.30807503749999,98.571468,70.0,109.0
439,98.30807503749999,98.58709300624999,65.0,95.0
440,98.5759322875,98.96209315624999,58.0,92.0
441,98.84378953749999,99.0000396,46.0,81.0
442,98.84378953749999,99.06923605624999,65.0,71.0
443,98.84378953749999,99.0759324875,62.0,92.0
444,98.84378953749999,99.08262891874999,70.0,103.0
445,99.11164678749999,99.17191466874999,58.0,80.0
446,99.3795040375,99.85941494375,54.0,88.0
447,99.3795040375,99.97771856249999,66.0,91.0
448,99.3795040375,99.99334356874999,70.0,94.0
449,99.3795040375,100.0045042875,61.0,94.0
450,100.18307578749999,100.544683075,54.0,95.0
451,99.3795040375,100.67637955625,42.0,85.0
452,100.4509330375,100.81477246875,61.0,99.0
453,100.4509330375,101.02905826874999,70.0,105.0
454,100.98664753749999,101.0402189875,42.0,75.0
455,100.7187902875,101.0402189875,54.0,83.0
456,100.4509330375,101.05584399374999,66.0,97.0
457,101.2545047875,101.32146909999999,61.0,68.0
458,101.2545047875,101.32370124375,70.0,38.0
459,101.52236203749999,101.7500407,56.0,71.0
460,101.52236203749999,101.91521933749999,60.0,84.0
461,101.52236203749999,101.95316578125,68.0,83.0
462,101.52236203749999,101.9598622125,63.0,81.0
463,102.05807653749999,102.19423730624999,60.0,90.0
464,101.7902192875,102.66745178125,56.0,92.0
465,102.32593378749999,102.87504114999999,68.0,109.0
466,102.32593378749999,102.89066615624999,60.0,106.0
467,102.32593378749999,102.89959473124999,63.0,102.0
468,101.52236203749999,103.1295055375,44.0,68.0
469,103.1295055375,103.26566630625,60.0,95.0
470,103.1295055375,103.27236273749999,63.0,90.0
471,103.1295055375,103.27236273749999,68.0,95.0
472,102.86164828749999,103.37504134999999,56.0,90.0
473,103.39736278749999,103.4420056625,44.0,68.0
474,103.66522003749999,103.99557731249999,56.0,77.0
475,103.66522003749999,104.062541625,60.0,76.0
476,103.66522003749999,104.14066665624999,65.0,79.0
477,104.20093453749999,104.28575599999999,56.0,59.0
478,103.9330772875,104.776827625,53.0,65.0
479,104.4687917875,105.03575629999999,56.0,102.0
480,104.4687917875,105.07370274374999,60.0,88.0
481,103.66522003749999,105.21432779999999,41.0,63.0
482,105.00450628749999,105.27459568124999,53.0,56.0
483,105.2723635375,105.45763146875,56.0,59.0
484,104.4687917875,105.48888148124999,65.0,93.0
485,105.54022078749999,105.60048866874999,60.0,35.0
486,105.8080780375,106.08486386249999,61.0,85.0
487,105.8080780375,106.3214711,70.0,97.0
488,105.8080780375,106.33709610624999,65.0,58.0
489,106.3437925375,106.44870329374999,61.0,72.0
490,106.07593528749999,106.69423910625,58.0,71.0
491,106.6116497875,106.95316778124999,61.0,100.0
492,105.8080780375,107.1562928625,46.0,69.0
493,106.6116497875,107.19870359375,65.0,90.0
494,106.6116497875,107.33709650624999,70.0,105.0
495,107.1473642875,107.51120371875,61.0,79.0
496,107.41522153749999,107.55361445,68.0,87.0
497,106.87950703749999,107.5670073125,58.0,85.0
498,107.6830787875,107.72995380625,46.0,62.0
499,107.95093603749999,108.24781115625,58.0,80.0
500,107.95093603749999,108.35718619999999,63.0,75.0
501,107.95093603749999,108.41075765,66.0,84.0
502,108.4866505375,108.59156129374999,58.0,72.0
503,108.21879328749999,109.11388293124999,51.0,72.0
504,108.75450778749999,109.29245443125,58.0,106.0
505,108.75450778749999,109.5357581,63.0,94.0
506,107.95093603749999,109.57147239999999,39.0,76.0
507,109.55807953749999,109.7187938875,58.0,59.0
508,108.75450778749999,109.81924035624999,66.0,111.0
509,109.29022228749999,109.83709750624999,51.0,83.0
510,109.8259367875,109.87281180625,39.0,62.0
511,109.8259367875,109.88397252499999,63.0,49.0
512,110.09379403749999,110.455401325,60.0,85.0
513,110.09379403749999,110.5848656625,68.0,92.0
514,110.09379403749999,110.66745498124999,63.0,76.0
515,110.62950853749999,110.74781215624999,60.0,69.0
516,110.3616512875,111.21209805624999,56.0,84.0
517,110.8973657875,111.3705802625,63.0,99.0
518,110.8973657875,111.58263391874999,60.0,110.0
519,110.8973657875,111.65183037499999,68.0,111.0
520,111.7009375375,111.76790184999999,60.0,35.0
521,111.7009375375,111.77683042499999,68.0,47.0
522,111.43308028749999,111.8080804375,56.0,88.0
523,110.09379403749999,111.9955805125,44.0,84.0
524,111.96879478749999,112.06700911249999,68.0,18.0
525,111.96879478749999,112.06924125625,56.0,79.0
526,111.7009375375,112.07593768749999,63.0,108.0
527,112.50450928749999,112.857188,68.0,101.0
528,112.50450928749999,112.86611657499999,63.0,97.0
529,112.77236653749999,113.36388463124999,58.0,90.0
530,113.0402237875,113.63174188125,63.0,106.0
531,113.0402237875,113.7723669375,68.0,105.0
532,113.5759382875,113.92638485625,58.0,87.0
533,113.84379553749999,113.93977771875,68.0,44.0
534,114.11165278749999,114.14959923125,58.0,74.0
535,112.2366520375,114.15406351875,46.0,99.0
536,113.84379553749999,114.17638495624999,63.0,110.0
537,114.3795100375,114.53352795625,58.0,94.0
538,114.3795100375,114.58263511874999,62.0,84.0
539,114.3795100375,114.72102803124999,65.0,89.0
540,114.64736728749999,114.75227804375,58.0,72.0
541,114.3795100375,114.84602808125,34.0,59.0
542,114.3795100375,115.008974575,46.0,76.0
543,114.9152245375,115.18308178749999,65.0,63.0
544,114.9152245375,115.19870679374999,62.0,56.0
545,114.9152245375,115.2009389375,58.0,77.0
546,115.45093903749999,115.53352835624999,46.0,102.0
547,115.45093903749999,115.70986771249999,70.0,107.0
548,115.45093903749999,115.72549271874999,58.0,111.0
549,115.45093903749999,115.7455820125,65.0,93.0
550,115.45093903749999,115.7545105875,62.0,91.0
551,115.18308178749999,116.00897497499999,34.0,106.0
552,115.98665353749999,116.17861789999999,56.0,111.0
553,115.98665353749999,116.2500465,68.0,97.0
554,116.2545107875,116.28799294375,34.0,94.0
555,115.7187962875,116.29468937499999,46.0,116.0
556,116.52236803749999,117.09156469374999,53.0,56.0
557,116.52236803749999,117.2857612,61.0,80.0
558,116.52236803749999,117.29692191874999,65.0,70.0
559,116.52236803749999,117.2991540625,70.0,86.0
560,117.32593978749999,117.62951133749999,53.0,45.0
561,116.52236803749999,117.84156499375,46.0,62.0
562,117.5937970375,117.9286186,61.0,95.0
563,117.86165428749999,118.14290439999999,53.0,67.0
564,118.1295115375,118.2009401375,46.0,62.0
565,117.5937970375,118.44870809374999,65.0,89.0
566,117.5937970375,118.45094023749999,70.0,103.0
567,118.39736878749999,118.47326167499999,61.0,67.0
568,118.66522603749999,119.29245843125,56.0,63.0
569,118.66522603749999,119.45763706874999,63.0,64.0
570,118.66522603749999,119.46656564374999,68.0,74.0
571,118.66522603749999,119.50227994375,60.0,74.0
572,119.4687977875,119.80361934999999,56.0,79.0
573,118.66522603749999,120.01120871875,44.0,62.0
574,119.73665503749999,120.22549451875,60.0,102.0
575,120.00451228749999,120.29692311874999,56.0,81.0
576,120.2723695375,120.31924455625,44.0,77.0
577,119.73665503749999,120.35942314374999,63.0,92.0
578,119.73665503749999,120.46879818749998,68.0,107.0
579,120.54022678749999,120.60942324374999,60.0,43.0
580,120.8080840375,121.39513784374999,53.0,63.0
581,120.8080840375,121.49558431249999,60.0,67.0
582,120.8080840375,121.508977175,65.0,53.0
583,120.8080840375,121.51120931874999,56.0,79.0
584,121.61165578749998,121.94647735,53.0,63.0
585,120.8080840375,122.11612027499999,41.0,67.0
586,121.87951303749999,122.20763816875,56.0,100.0
587,121.87951303749999,122.34156679374999,60.0,81.0
588,121.87951303749999,122.47549541874999,63.0,83.0
589,121.87951303749999,122.56031688124999,65.0,92.0
590,122.41522753749999,122.69647764999999,41.0,62.0
591,122.1473702875,122.71210265625,53.0,77.0
592,122.6830847875,122.73888838124999,56.0,79.0
593,122.95094203749998,123.43531723125,53.0,50.0
594,122.95094203749998,123.43978151875,61.0,67.0
595,122.95094203749998,123.56701371249999,65.0,73.0
596,122.95094203749998,123.616120875,58.0,72.0
597,123.75451378749999,124.06478176875,53.0,67.0
598,122.95094203749998,124.35272831249999,46.0,63.0
599,124.0223710375,124.37504974999999,65.0,86.0
600,124.0223710375,124.616121275,58.0,90.0
601,124.29022828749999,124.61835341874999,53.0,84.0
602,124.29022828749999,124.62728199374999,68.0,94.0
603,124.55808553749999,124.6295141375,46.0,77.0
604,124.0223710375,124.64513914374999,61.0,84.0
605,125.09380003749999,125.56478236874999,58.0,75.0
606,125.09380003749999,125.62728239375,51.0,65.0
607,125.09380003749999,125.70094313749999,63.0,67.0
608,125.09380003749999,125.7857646,66.0,84.0
609,125.89737178749999,126.25005049999999,51.0,83.0
610,125.09380003749999,126.47549701874999,39.0,69.0
611,126.1652290375,126.74112212499999,58.0,108.0
612,126.7009435375,126.75451498749999,39.0,67.0
613,126.43308628749999,126.77683642499998,51.0,88.0
614,126.1652290375,126.8170150125,63.0,95.0
615,126.1652290375,126.83933644999999,66.0,99.0
616,127.23665803749999,127.95987261249999,60.0,63.0
617,127.23665803749999,127.96656904374998,68.0,71.0
618,127.23665803749999,127.98442619375,65.0,63.0
619,127.23665803749999,128.05362265,63.0,67.0
620,128.04022978749998,128.36835491875,51.0,52.0
621,127.23665803749999,128.65630146249998,41.0,59.0
622,128.3080870375,128.7723729375,56.0,88.0
623,128.3080870375,128.79692651874998,60.0,72.0
624,128.3080870375,128.84603368125,65.0,86.0
625,128.84380153749998,128.89514084375,41.0,63.0
626,128.3080870375,128.90406941875,63.0,84.0
627,128.5759442875,128.91076585,51.0,84.0
628,129.3795160375,129.973266275,61.0,62.0
629,129.3795160375,129.97549841875,58.0,67.0
630,129.3795160375,130.03353415625,53.0,52.0
631,129.3795160375,130.03353415625,65.0,64.0
632,130.1830877875,130.2813021125,61.0,39.0
633,130.1830877875,130.51567720625,65.0,30.0
634,130.1830877875,130.55585579375,58.0,77.0
635,130.1830877875,130.56478436875,70.0,95.0
636,130.71880228749998,131.205409625,53.0,69.0
637,130.9866595375,131.51567760625,61.0,76.0
638,130.9866595375,131.53130261249999,58.0,99.0
639,130.9866595375,131.544695475,68.0,99.0
640,130.9866595375,131.60049906875,65.0,75.0
641,131.79023128749998,132.31478506874998,70.0,87.0
642,131.79023128749998,132.330410075,58.0,84.0
643,131.79023128749998,132.3348743625,61.0,56.0
644,131.79023128749998,132.3348743625,65.0,39.0
645,132.3259457875,132.68755307499998,53.0,69.0
646,129.3795160375,132.8438031375,46.0,52.0
647,132.59380303749998,133.16746398125,58.0,99.0
648,132.59380303749998,133.1741604125,65.0,71.0
649,132.59380303749998,133.1786247,61.0,59.0
650,132.59380303749998,133.20987471249998,70.0,94.0
651,133.6652320375,134.10942864375,58.0,62.0
652,133.9330892875,134.25228584375,60.0,76.0
653,134.2009465375,134.52014309375,61.0,69.0
654,134.46880378749998,134.79246463125,58.0,51.0
655,133.6652320375,134.9286254,46.0,63.0
656,135.0045182875,135.276839825,58.0,51.0
657,134.46880378749998,135.28130411249998,68.0,99.0
658,135.27237553749998,135.36612557499998,46.0,65.0
659,134.7366610375,135.3705898625,70.0,80.0
660,134.7366610375,135.37282200625,65.0,82.0
661,134.7366610375,135.3973755875,73.0,95.0
662,135.8080900375,136.37505455,56.0,62.0
663,136.0759472875,136.4152331375,58.0,59.0
664,136.34380453749998,136.68085824374998,60.0,72.0
665,136.6116617875,136.94201906249998,56.0,72.0
666,135.8080900375,137.142912,44.0,63.0
667,136.6116617875,137.37728709375,68.0,95.0
668,136.8795190375,137.37728709375,68.0,92.0
669,137.14737628749998,137.44425140625,56.0,71.0
670,136.8795190375,137.51568000625,65.0,96.0
671,136.8795190375,137.54246573125,72.0,100.0
672,137.4152335375,137.64068005624998,44.0,72.0
673,137.6830907875,137.72550151874998,56.0,76.0
674,138.2188052875,138.52014469374998,56.0,59.0
675,137.95094803749998,138.5491625625,54.0,63.0
676,138.4866625375,138.812555525,58.0,67.0
677,138.7545197875,139.1116627875,54.0,56.0
678,137.95094803749998,139.31032358125,42.0,63.0
679,138.7545197875,139.3259485875,65.0,95.0
680,139.2902342875,139.38175218125,54.0,47.0
681,139.5580915375,139.62952013749998,42.0,49.0
682,139.02237703749998,140.651841975,73.0,92.0
683,139.02237703749998,140.66300269375,70.0,91.0
684,139.02237703749998,140.67193126875,66.0,94.0
685,140.89737778749998,140.95318138124998,66.0,87.0
686,140.62952053749999,141.22996720625,54.0,84.0
687,140.3616632875,141.2500565,42.0,79.0
688,141.4330922875,141.75675313124998,54.0,80.0
689,141.1652350375,141.90630676249998,66.0,105.0
690,141.1652350375,141.92416391249998,73.0,105.0
691,141.1652350375,141.95318178124998,70.0,101.0
692,141.70094953749998,141.9598782125,42.0,79.0
693,142.2366640375,142.68086064374998,58.0,62.0
694,142.50452128749998,142.82371784375,60.0,76.0
695,142.7723785375,143.09157509374998,61.0,69.0
696,143.0402357875,143.36389663125,58.0,51.0
697,142.2366640375,143.5000574,46.0,63.0
698,143.57595028749998,143.84827182499998,58.0,51.0
699,143.0402357875,143.8527361125,68.0,99.0
700,143.8438075375,143.937557575,46.0,65.0
701,143.3080930375,143.94202186249998,70.0,80.0
702,143.3080930375,143.94425400625,65.0,82.0
703,143.3080930375,143.96880758749998,73.0,95.0
704,144.37952203749998,144.94648655,56.0,62.0
705,144.6473792875,144.98666513749998,58.0,59.0
706,144.9152365375,145.25229024375,60.0,72.0
707,145.18309378749998,145.5134510625,56.0,72.0
708,144.37952203749998,145.71434399999998,44.0,63.0
709,145.18309378749998,145.94871909375,68.0,95.0
710,145.45095103749998,145.94871909375,68.0,92.0
711,145.7188082875,146.01568340625,56.0,71.0
712,145.45095103749998,146.08711200624998,65.0,96.0
713,145.45095103749998,146.11389773124998,72.0,100.0
714,145.9866655375,146.21211205625,44.0,72.0
715,146.25452278749998,146.29693351875,56.0,76.0
716,146.7902372875,147.09157669375,56.0,59.0
717,146.5223800375,147.1205945625,54.0,63.0
718,147.05809453749998,147.38398752499998,58.0,67.0
719,147.3259517875,147.68309478749998,54.0,56.0
720,146.5223800375,147.88175558125,42.0,63.0
721,147.3259517875,147.89738058749998,65.0,95.0
722,147.8616662875,147.95318418124998,54.0,47.0
723,148.12952353749998,148.2009521375,42.0,49.0
724,147.5938090375,149.22327397499998,73.0,92.0
725,147.5938090375,149.23443469375,70.0,91.0
726,147.5938090375,149.24336326875,66.0,94.0
727,149.4688097875,149.52461338125,66.0,87.0
728,149.2009525375,149.80139920624998,54.0,84.0
729,148.93309528749998,149.8214885,42.0,79.0
730,150.00452428749998,150.32818513125,54.0,80.0
731,149.73666703749998,150.4777387625,66.0,105.0
732,149.73666703749998,150.4955959125,73.0,105.0
733,149.73666703749998,150.52461378125,70.0,101.0
734,150.2723815375,150.5313102125,42.0,79.0
735,150.5402387875,150.58264951875,54.0,67.0
736,150.80809603749998,151.11613187499998,58.0,72.0
737,150.80809603749998,151.2634533625,63.0,69.0
738,150.80809603749998,151.3616676875,66.0,68.0
739,150.80809603749998,151.37729269374998,70.0,79.0
740,151.0759532875,151.7813107125,51.0,58.0
741,151.3438105375,152.1205965625,58.0,62.0
742,151.61166778749998,152.28354305624998,63.0,80.0
743,150.80809603749998,152.3973823875,39.0,61.0
744,152.1473822875,152.45318598125,51.0,61.0
745,152.41523953749999,152.62506105,58.0,61.0
746,151.61166778749998,152.7366682375,66.0,82.0
747,151.61166778749998,152.74113252499998,70.0,97.0
748,152.68309678749998,152.7545253875,63.0,53.0
749,152.9509540375,153.28800774375,60.0,67.0
750,152.9509540375,153.42193636874998,68.0,74.0
751,152.9509540375,153.46881138749998,63.0,50.0
752,153.48666853749998,153.84604368125,60.0,85.0
753,153.2188112875,153.883990125,56.0,72.0
754,153.7545257875,154.348276025,68.0,107.0
755,153.7545257875,154.41077604999998,63.0,97.0
756,152.9509540375,154.70765116874998,44.0,68.0
757,154.55809753749998,154.81479406875,60.0,67.0
758,154.29024028749998,154.86390123125,56.0,75.0
759,154.8259547875,155.08265131874998,63.0,63.0
760,154.8259547875,155.11836561874998,68.0,79.0
761,155.0938120375,155.37952643749998,61.0,63.0
762,155.0938120375,155.544705075,65.0,56.0
763,155.0938120375,155.55140150625,70.0,71.0
764,155.6295265375,155.77908016875,61.0,77.0
765,155.36166928749998,156.0759552875,58.0,76.0
766,155.8973837875,156.42193756875,61.0,72.0
767,155.8973837875,156.49336616875,65.0,86.0
768,155.8973837875,156.5045268875,70.0,101.0
769,155.0938120375,156.87729489375,46.0,68.0
770,156.7009555375,156.88622346875,61.0,52.0
771,156.4330982875,157.00675923125,58.0,61.0
772,156.96881278749999,157.44425940624998,61.0,80.0
773,156.96881278749999,157.53577729999998,65.0,83.0
774,156.96881278749999,157.60050946874998,70.0,99.0
775,157.7723845375,157.848277425,61.0,63.0
776,157.5045272875,158.10497395624998,58.0,81.0
777,158.04024178749998,158.14515254375,61.0,72.0
778,158.04024178749998,158.187563275,65.0,67.0
779,158.04024178749998,158.19872399374998,70.0,89.0
780,158.3080990375,158.54693841875,61.0,90.0
781,158.3080990375,158.56256342499998,65.0,55.0
782,158.3080990375,158.56256342499998,72.0,93.0
783,157.23667003749998,158.81479566874998,46.0,88.0
784,158.5759562875,159.08488506249998,58.0,65.0
785,158.84381353749998,159.1072065,61.0,91.0
786,158.84381353749998,159.12506365,65.0,76.0
787,159.11167078749997,159.14961723124998,46.0,80.0
788,158.84381353749998,159.1652422375,70.0,89.0
789,159.3795280375,159.651849575,61.0,72.0
790,159.3795280375,159.86836751874998,70.0,83.0
791,159.3795280375,159.87059966249998,66.0,76.0
792,159.91524253749998,160.0223854375,61.0,47.0
793,159.6473852875,160.30809983749998,54.0,51.0
794,160.1830997875,160.66077854999997,61.0,94.0
795,160.1830997875,160.6830999875,66.0,89.0
796,160.1830997875,160.70095713749998,70.0,97.0
797,160.71881428749998,161.0313144125,54.0,67.0
798,159.3795280375,161.11167158749998,42.0,58.0
799,160.9866715375,161.18310018749997,61.0,87.0
800,160.9866715375,161.2188144875,66.0,78.0
801,160.9866715375,161.23890378125,70.0,94.0
802,161.2545287875,161.35274311249998,54.0,63.0
803,161.52238603749998,161.88622546874998,60.0,83.0
804,161.52238603749998,161.96658264375,68.0,84.0
805,161.52238603749998,161.97774336249998,63.0,81.0
806,162.0581005375,162.14068985625,60.0,71.0
807,161.79024328749998,162.58711860625,56.0,63.0
808,162.3259577875,162.88622586875,60.0,100.0
809,162.3259577875,162.91077944999998,68.0,99.0
810,162.3259577875,162.92640445625,63.0,92.0
811,162.8616722875,163.16301169374998,56.0,75.0
812,161.52238603749998,163.24336886875,44.0,67.0
813,163.1295295375,163.33935104999998,68.0,91.0
814,163.1295295375,163.3527439125,60.0,94.0
815,163.1295295375,163.36836891874998,63.0,87.0
816,163.39738678749998,163.49336896875,56.0,83.0
817,163.66524403749997,164.14292279999998,60.0,72.0
818,163.66524403749997,164.1652442375,56.0,80.0
819,163.66524403749997,164.1831013875,65.0,83.0
820,164.2009585375,164.65631586249998,53.0,56.0
821,164.46881578749998,164.77908376874998,65.0,89.0
822,164.46881578749998,164.82372664374998,60.0,84.0
823,164.46881578749998,164.83488736249998,56.0,102.0
824,163.66524403749997,165.4063161625,41.0,72.0
825,165.27238753749998,165.473280475,53.0,85.0
826,165.8081020375,166.098280725,61.0,75.0
827,165.8081020375,166.16301289375,65.0,58.0
828,165.8081020375,166.1652450375,70.0,82.0
829,166.34381653749998,166.41970942499998,61.0,63.0
830,166.07595928749998,166.77908456875,58.0,64.0
831,166.6116737875,167.0402453875,61.0,94.0
832,166.6116737875,167.0491739625,65.0,83.0
833,166.6116737875,167.12506685,70.0,95.0
834,165.8081020375,167.41301339375,46.0,74.0
835,167.4152455375,167.6206027625,61.0,85.0
836,167.4152455375,167.63399562499998,65.0,78.0
837,167.14738828749998,167.67640635625,58.0,84.0
838,167.4152455375,167.6831027875,70.0,86.0
839,167.6831027875,167.72997780625,46.0,77.0
840,167.95096003749998,168.15631726249998,51.0,67.0
841,167.95096003749998,168.3572102,63.0,87.0
842,167.95096003749998,168.39069235624999,70.0,86.0
843,167.95096003749998,168.41301379375,66.0,84.0
844,168.4866745375,168.56926385625,63.0,80.0
845,168.2188172875,168.98444259374998,51.0,87.0
846,168.75453178749999,169.19872839374997,63.0,100.0
847,168.75453178749999,169.41301419375,66.0,97.0
848,167.95096003749998,169.59158569374998,39.0,81.0
849,169.5581035375,169.64962143124998,66.0,19.0
850,168.75453178749999,169.70765716875,70.0,95.0
851,169.5581035375,169.72105003125,63.0,75.0
852,169.2902462875,169.85274651249998,51.0,88.0
853,169.82596078749998,169.86837151875,39.0,75.0
854,170.0938180375,170.56926465625,56.0,71.0
855,170.0938180375,170.77015759374999,68.0,87.0
856,170.0938180375,170.8081040375,63.0,83.0
857,170.0938180375,170.85944334375,60.0,88.0
858,170.89738978749998,171.27015779374997,56.0,92.0
859,170.0938180375,171.47551501874997,44.0,72.0
860,171.1652470375,171.67417581249998,60.0,104.0
861,171.1652470375,171.7723901375,63.0,97.0
862,171.1652470375,171.78801514375,68.0,105.0
863,171.70096153749998,171.83935445,44.0,81.0
864,171.9688187875,172.0313188125,44.0,35.0
865,171.4331042875,172.0313188125,56.0,83.0
866,172.2366760375,172.70765836874997,68.0,91.0
867,172.2366760375,172.723283375,63.0,71.0
868,172.2366760375,172.76346196249997,61.0,92.0
869,172.7723905375,173.33265861874997,58.0,59.0
870,173.0402477875,173.562569425,63.0,90.0
871,173.0402477875,173.571498,61.0,92.0
872,173.0402477875,173.58489086249998,68.0,105.0
873,173.8438195375,174.05140890624997,61.0,80.0
874,173.8438195375,174.05587319375,68.0,83.0
875,172.2366760375,174.12730179374998,46.0,90.0
876,173.57596228749998,174.13176608125,58.0,90.0
877,174.37953403749998,174.85051636875,65.0,91.0
878,174.6473912875,174.85051636875,65.0,78.0
879,174.37953403749998,174.86614137499998,62.0,71.0
880,174.6473912875,174.86614137499998,62.0,85.0
881,174.37953403749998,174.9063199625,58.0,92.0
882,174.6473912875,175.01123071875,70.0,91.0
883,175.18310578749998,175.2902486875,62.0,88.0
884,174.9152485375,175.4956059125,58.0,92.0
885,174.37953403749998,175.50899877499998,46.0,92.0
886,175.45096303749997,175.7098917125,62.0,110.0
887,175.45096303749997,175.71435599999998,70.0,109.0
888,175.45096303749997,175.72998100625,65.0,95.0
889,175.7188202875,176.10498115624998,58.0,92.0
890,175.9866775375,176.14292759999998,46.0,81.0
891,175.9866775375,176.21212405625,65.0,71.0
892,175.9866775375,176.21882048749998,62.0,92.0
893,175.9866775375,176.22551691874997,70.0,103.0
894,176.25453478749998,176.31480266875,58.0,80.0
895,176.5223920375,177.00230294374998,54.0,88.0
896,176.5223920375,177.1206065625,66.0,91.0
897,176.5223920375,177.13623156875,70.0,94.0
898,176.5223920375,177.1473922875,61.0,94.0
899,177.3259637875,177.687571075,54.0,95.0
900,176.5223920375,177.81926755625,42.0,85.0
901,177.5938210375,177.95766046875,61.0,99.0
902,177.5938210375,178.17194626875,70.0,105.0
903,178.12953553749998,178.1831069875,42.0,75.0
904,177.86167828749998,178.1831069875,54.0,83.0
905,177.5938210375,178.19873199375,66.0,97.0
906,178.3973927875,178.4643571,61.0,68.0
907,178.3973927875,178.46658924374998,70.0,38.0
908,178.6652500375,178.8929287,56.0,71.0
909,178.6652500375,179.0581073375,60.0,84.0
910,178.6652500375,179.09605378125,68.0,83.0
911,178.6652500375,179.10275021249998,63.0,81.0
912,179.2009645375,179.33712530625,60.0,90.0
913,178.93310728749998,179.81033978124998,56.0,92.0
914,179.4688217875,180.01792915,68.0,109.0
915,179.4688217875,180.03355415624998,60.0,106.0
916,179.4688217875,180.04248273124998,63.0,102.0
917,178.6652500375,180.2723935375,44.0,68.0
918,180.2723935375,180.40855430624998,60.0,95.0
919,180.2723935375,180.41525073749997,63.0,90.0
920,180.2723935375,180.41525073749997,68.0,95.0
921,180.00453628749997,180.51792934999997,56.0,90.0
922,180.54025078749999,180.58489366249998,44.0,68.0
923,180.80810803749998,181.1384653125,56.0,77.0
924,180.80810803749998,181.205429625,60.0,76.0
925,180.80810803749998,181.28355465624998,65.0,79.0
926,181.3438225375,181.428644,56.0,59.0
927,181.0759652875,181.91971562499998,53.0,65.0
928,181.61167978749998,182.17864429999997,56.0,102.0
929,181.61167978749998,182.21659074374998,60.0,88.0
930,180.80810803749998,182.35721579999998,41.0,63.0
931,182.1473942875,182.41748368125,53.0,56.0
932,182.41525153749998,182.60051946874998,56.0,59.0
933,181.61167978749998,182.63176948125,65.0,93.0
934,182.68310878749998,182.74337666875,60.0,35.0
935,182.9509660375,183.22775186249999,61.0,85.0
936,182.9509660375,183.4643591,70.0,97.0
937,182.9509660375,183.47998410625,65.0,58.0
938,183.48668053749998,183.59159129374999,61.0,72.0
939,183.2188232875,183.83712710625,58.0,71.0
940,183.7545377875,184.09605578125,61.0,100.0
941,182.9509660375,184.29918086249998,46.0,69.0
942,183.7545377875,184.34159159375,65.0,90.0
943,183.7545377875,184.47998450625,70.0,105.0
944,184.29025228749998,184.65409171874998,61.0,79.0
945,184.55810953749997,184.69650245,68.0,87.0
946,184.0223950375,184.70989531249998,58.0,85.0
947,184.8259667875,184.87284180625,46.0,62.0
948,185.09382403749999,185.39069915624998,58.0,80.0
949,185.09382403749999,185.5000742,63.0,75.0
950,185.09382403749999,185.55364565,66.0,84.0
951,185.6295385375,185.73444929374998,58.0,72.0
952,185.36168128749998,186.25677093124997,51.0,72.0
953,185.8973957875,186.43534243124998,58.0,106.0
954,185.8973957875,186.67864609999998,63.0,94.0
955,185.09382403749999,186.71436039999998,39.0,76.0
956,186.7009675375,186.8616818875,58.0,59.0
957,185.8973957875,186.96212835625,66.0,111.0
958,186.4331102875,186.97998550625,51.0,83.0
959,186.96882478749998,187.01569980624998,39.0,62.0
960,186.96882478749998,187.026860525,63.0,49.0
961,187.23668203749997,187.598289325,60.0,85.0
962,187.23668203749997,187.7277536625,68.0,92.0
963,187.23668203749997,187.81034298125,63.0,76.0
964,187.7723965375,187.89070015624998,60.0,69.0
965,187.5045392875,188.35498605625,56.0,84.0
966,188.04025378749998,188.5134682625,63.0,99.0
967,188.04025378749998,188.72552191875,60.0,110.0
968,188.04025378749998,188.79471837499997,68.0,111.0
969,188.84382553749998,188.91078985,60.0,35.0
970,188.84382553749998,188.91971842499999,68.0,47.0
971,188.5759682875,188.9509684375,56.0,88.0
972,187.23668203749997,189.1384685125,44.0,84.0
973,189.11168278749997,189.2098971125,68.0,18.0
974,189.11168278749997,189.21212925625,56.0,79.0
975,188.84382553749998,189.2188256875,63.0,108.0
976,189.64739728749998,190.00007599999998,68.0,101.0
977,189.64739728749998,190.00900457499998,63.0,97.0
978,189.91525453749998,190.50677263125,58.0,90.0
979,190.1831117875,190.77462988124998,63.0,106.0
980,190.1831117875,190.91525493749998,68.0,105.0
981,190.71882628749998,191.06927285625,58.0,87.0
982,190.9866835375,191.08266571874998,68.0,44.0
983,191.2545407875,191.29248723125,58.0,74.0
984,189.3795400375,191.29695151874998,46.0,99.0
985,190.9866835375,191.31927295625,63.0,110.0
986,191.52239803749998,191.67641595625,58.0,94.0
987,191.52239803749998,191.72552311874998,62.0,84.0
988,191.52239803749998,191.86391603125,65.0,89.0
989,191.79025528749997,191.89516604374998,58.0,72.0
990,191.52239803749998,191.98891608124998,34.0,59.0
991,191.52239803749998,192.151862575,46.0,76.0
992,192.0581125375,192.3259697875,65.0,63.0
993,192.0581125375,192.34159479374998,62.0,56.0
994,192.0581125375,192.34382693749998,58.0,77.0
995,192.59382703749998,192.67641635624997,46.0,102.0
996,192.59382703749998,192.8527557125,70.0,107.0
997,192.59382703749998,192.86838071875,58.0,111.0
998,192.59382703749998,192.8884700125,65.0,93.0
999,192.59382703749998,192.8973985875,62.0,91.0
1000,192.3259697875,193.151862975,34.0,106.0
1001,193.1295415375,193.32150589999998,56.0,111.0
1002,193.1295415375,193.3929345,68.0,97.0
1003,193.39739878749998,193.43088094375,34.0,94.0
1004,192.8616842875,193.437577375,46.0,116.0
1005,193.66525603749997,193.88623826875,51.0,45.0
1006,193.66525603749997,194.05588119375,61.0,79.0
1007,193.66525603749997,194.19873839374998,63.0,76.0
1008,193.66525603749997,194.26570270624998,66.0,75.0
1009,193.66525603749997,194.285792,70.0,91.0
1010,193.9331132875,194.87284580624998,51.0,90.0
1011,194.20097053749998,195.02016729374998,61.0,71.0
1012,193.66525603749997,195.19427450625,39.0,55.0
1013,194.46882778749998,195.22998880625,63.0,84.0
1014,195.0045422875,195.28802454375,51.0,47.0
1015,194.46882778749998,195.35722099999998,66.0,80.0
1016,195.27239953749998,195.55588179375,61.0,51.0
1017,195.5402567875,195.6116853875,63.0,54.0
1018,194.46882778749998,195.68534613125,70.0,99.0
1019,195.5402567875,195.82373904374998,66.0,29.0
1020,195.8081140375,196.37507854999998,56.0,43.0
1021,195.8081140375,196.53356075624998,63.0,55.0
1022,195.8081140375,196.57373934375,60.0,64.0
1023,195.8081140375,196.5759714875,68.0,71.0
1024,196.6116857875,196.937578775,56.0,79.0
1025,195.8081140375,197.10945384374998,51.0,41.0
1026,195.8081140375,197.30811463749998,44.0,39.0
1027,196.87954303749999,197.42865039999998,68.0,103.0
1028,196.87954303749999,197.44427540624997,63.0,90.0
1029,197.14740028749998,197.4509718375,56.0,68.0
1030,196.87954303749999,197.509007575,60.0,100.0
1031,197.4152575375,197.6741862125,51.0,56.0
1032,197.6831147875,197.73222195,44.0,53.0
1033,197.95097203749998,198.2366864375,60.0,56.0
1034,197.95097203749998,198.49784725625,68.0,74.0
1035,197.95097203749998,198.5224008375,65.0,63.0
1036,197.95097203749998,198.53356155625,61.0,62.0
1037,198.4866865375,198.8438295375,60.0,87.0
1038,198.21882928749997,199.0491867625,49.0,69.0
1039,197.95097203749998,199.37954403749998,37.0,67.0
1040,199.2902582875,199.419722625,49.0,53.0
1041,198.75454378749998,199.56481196874998,61.0,83.0
1042,198.75454378749998,199.64516914375,65.0,84.0
1043,198.75454378749998,199.7188298875,68.0,95.0
1044,199.5581155375,199.77240133749999,60.0,59.0
1045,199.82597278749998,199.9063299625,61.0,43.0
1046,200.0938300375,200.71213385624998,61.0,39.0
1047,200.0938300375,200.75900887499998,66.0,70.0
1048,200.0938300375,200.78579459999997,58.0,63.0
1049,200.89740178749997,201.25677693125,54.0,75.0
1050,200.0938300375,201.41972342499997,42.0,47.0
1051,201.1652590375,201.7143664,66.0,86.0
1052,201.1652590375,201.72552711875,61.0,79.0
1053,201.1652590375,201.75231284375,58.0,94.0
1054,201.70097353749998,201.76570570624997,42.0,59.0
1055,201.43311628749998,201.76793784999998,54.0,72.0
1056,201.9688307875,202.03802724374998,42.0,53.0
1057,202.2366880375,202.80588469375,51.0,43.0
1058,202.2366880375,203.0313312125,54.0,77.0
1059,202.2366880375,203.03356335625,65.0,68.0
1060,202.2366880375,203.0491883625,58.0,67.0
1061,202.2366880375,203.1786527,61.0,57.0
1062,203.30811703749998,203.36838491875,61.0,32.0
1063,203.0402597875,203.4063313625,51.0,63.0
1064,202.2366880375,203.6206171625,39.0,61.0
1065,203.30811703749998,203.81258152499998,54.0,87.0
1066,203.8438315375,203.89963513125,39.0,63.0
1067,203.57597428749997,203.89963513125,51.0,63.0
1068,203.30811703749998,203.91749228125,58.0,72.0
1069,204.1116887875,204.17418881249998,54.0,49.0
1070,203.30811703749998,204.22552811875,63.0,92.0
1071,204.37954603749998,205.08043917499998,53.0,46.0
1072,204.37954603749998,205.17418921249998,60.0,63.0
1073,204.37954603749998,205.20990351249998,63.0,63.0
1074,204.37954603749998,205.22776066249997,57.0,75.0
1075,204.37954603749998,205.22776066249997,65.0,73.0
1076,205.18311778749998,205.56927865625,53.0,90.0
1077,204.37954603749998,205.7099037125,41.0,56.0
1078,205.45097503749997,206.02463598125,57.0,97.0
1079,205.7188322875,206.03356455624998,53.0,57.0
1080,205.45097503749997,206.062582425,63.0,95.0
1081,205.45097503749997,206.07597528749997,60.0,85.0
1082,205.45097503749997,206.07597528749997,65.0,86.0
1083,205.98668953749998,206.10945744375,41.0,56.0
1084,206.5224040375,207.17642215625,58.0,85.0
1085,206.5224040375,207.17642215625,61.0,80.0
1086,206.5224040375,207.33267221875,65.0,84.0
1087,207.3259757875,207.33267221875,65.0,28.0
1088,207.05811853749998,207.34160079375,60.0,57.0
1089,206.5224040375,207.437582975,53.0,58.0
1090,206.5224040375,207.92195816875,46.0,61.0
1091,207.3259757875,207.92195816875,61.0,88.0
1092,207.5938330375,208.13177968124998,53.0,85.0
1093,207.86169028749998,208.2099047125,60.0,85.0
1094,208.12954753749997,208.25677973125,46.0,69.0
1095,208.6474048875,208.71213705625,65.0,64.0
1096,208.63624416874998,208.74338706875,61.0,72.0
1097,208.63624416874998,208.77463708124998,70.0,75.0
1098,209.02463718124997,209.11392293125,65.0,71.0
1099,209.01570860624997,209.12954793749998,61.0,71.0
1100,209.01794074999998,209.12954793749998,70.0,80.0
1101,208.66526203749999,209.32374444374997,46.0,69.0
1102,209.46660164374998,209.78803034375,46.0,75.0
1103,208.66526203749999,209.94428040625,34.0,90.0
1104,210.00454828749997,210.18311978749998,46.0,95.0
1105,209.46660164374998,210.28579839999998,61.0,92.0
1106,209.47329807499997,210.2902626875,65.0,84.0
1107,209.47329807499997,210.2991912625,70.0,95.0
1108,210.2724055375,210.32374484374998,34.0,102.0
