,start,end,pitch,velocity
0,11.453617960416667,11.741924133333333,59.0,100.0
1,11.741924133333333,13.40321285,68.0,100.0
2,13.40321285,13.6814383875,64.0,100.0
3,13.6814383875,15.622968768749999,66.0,100.0
4,15.624984895833332,15.927403958333333,66.0,100.0
5,15.929420085416666,16.3669196625,66.0,100.0
6,16.3669196625,17.27417685,68.0,100.0
7,17.27417685,17.556434641666666,66.0,100.0
8,17.556434641666666,18.004014854166666,64.0,100.0
9,18.00603098125,19.9354646,64.0,100.0
10,19.9354646,20.433447989583332,66.0,100.0
11,20.435464116666665,20.919334616666667,66.0,100.0
12,20.919334616666667,21.183447264583332,68.0,100.0
13,21.183447264583332,21.91328526875,69.0,100.0
14,21.91328526875,22.407236404166664,68.0,100.0
15,22.407236404166664,22.85280048958333,66.0,100.0
16,22.85280048958333,23.34070324375,64.0,100.0
17,23.34070324375,23.836670506249998,68.0,100.0
18,23.83868663333333,26.961667485416665,68.0,100.0
19,26.961667485416665,27.24392527708333,59.0,100.0
20,27.24392527708333,28.897149485416666,68.0,100.0
21,28.897149485416666,29.17739115,64.0,100.0
22,29.17739115,31.558437235416665,66.0,100.0
23,31.558437235416665,32.0443238625,68.0,100.0
24,32.04633998958333,32.53222661666666,68.0,100.0
25,32.53222661666666,32.78827475625,64.0,100.0
26,32.78827475625,33.48182247291666,66.0,100.0
27,33.48182247291666,35.42940123541666,64.0,100.0
28,35.42940123541666,35.91730398958333,66.0,100.0
29,35.91932011666667,36.42940026875,66.0,100.0
30,36.42940026875,36.68544840833333,68.0,100.0
31,36.68544840833333,37.64109264583333,69.0,100.0
32,37.64109264583333,37.9233504375,68.0,100.0
33,37.9233504375,38.37294677708333,66.0,100.0
34,38.37294677708333,38.82859149791666,64.0,100.0
35,38.82859149791666,39.284236218749996,66.0,100.0
36,39.284236218749996,41.762056404166664,64.0,100.0
37,41.76407253125,42.11891089791666,64.0,100.0
38,42.11891089791666,42.43947510416666,66.0,100.0
39,42.43947510416666,42.75399092916666,68.0,100.0
40,42.75399092916666,44.1289896,71.0,100.0
41,44.131005727083334,44.647134260416664,71.0,100.0
42,44.647134260416664,45.65519780208333,69.0,100.0
43,45.657213929166666,46.104794141666666,69.0,100.0
44,46.104794141666666,46.59874527708333,64.0,100.0
45,46.59874527708333,47.04834161666666,68.0,100.0
46,47.04834161666666,47.256002706249994,66.0,100.0
47,47.23180918125,49.475758625,68.0,100.0
48,49.475758625,49.84470988125,66.0,100.0
49,49.84672600833333,50.18140310416666,66.0,100.0
50,50.18140310416666,50.46366089583333,68.0,100.0
51,50.46366089583333,52.13099799375,69.0,100.0
52,52.13099799375,52.39511064166666,61.0,100.0
53,52.39511064166666,52.92535206458333,73.0,100.0
54,52.92535206458333,53.19954534791666,76.0,100.0
55,53.19954534791666,54.078576756249994,75.0,100.0
56,54.078576756249994,54.38301194583333,68.0,100.0
57,54.38301194583333,54.88502758958333,73.0,100.0
58,54.88502758958333,59.14913637083333,71.0,100.0
59,59.14913637083333,59.63300687083333,73.0,100.0
60,59.63300687083333,60.11486124375,76.0,100.0
61,60.11687737083333,61.78623059583333,76.0,100.0
62,61.78623059583333,62.08058515,78.0,100.0
63,62.08058515,63.48582572708333,75.0,100.0
64,63.48582572708333,63.953567210416665,73.0,100.0
65,63.953567210416665,66.3870326,71.0,100.0
66,66.3870326,66.62896785,69.0,100.0
67,66.62896785,66.9071933875,68.0,100.0
68,66.9071933875,67.17130603541666,69.0,100.0
69,67.17130603541666,67.87896664166666,71.0,100.0
70,67.87896664166666,68.58259499374999,73.0,100.0
71,68.58259499374999,69.29832010833333,76.0,100.0
72,69.29832010833333,69.79227124375,73.0,100.0
73,69.79227124375,72.69146198958333,78.0,100.0
74,72.69146198958333,73.15315509166666,76.0,100.0
75,73.13500994791666,73.40920323124999,78.0,100.0
76,73.39710646875,73.69750940416667,76.0,100.0
77,73.69750940416667,76.61887754791667,80.0,100.0
78,76.61887754791667,76.94952238958334,76.0,100.0
79,76.94952238958334,77.24387694375,80.0,100.0
80,77.24387694375,77.54629600624999,76.0,100.0
81,77.54629600624999,78.03419876041666,78.0,100.0
82,78.0362148875,78.54427891249999,78.0,100.0
83,78.54629503958333,78.82855283125,78.0,100.0
84,78.82855283125,79.47169737083333,75.0,100.0
85,79.46564898958333,79.95556787083333,73.0,100.0
86,79.91726145624999,80.70556714583333,71.0,100.0
87,80.69145425625,80.93540563333333,68.0,100.0
88,80.93742176041667,81.16322799375,68.0,100.0
89,81.16322799375,81.4233083875,71.0,100.0
90,81.4233083875,81.86282409166667,73.0,100.0
91,81.86282409166667,82.12895286666667,78.0,100.0
92,82.12895286666667,83.07048421458333,76.0,100.0
93,83.07048421458333,83.33862911666667,64.0,100.0
94,83.33862911666667,83.8184673625,76.0,100.0
95,83.8184673625,84.77612772708333,75.0,100.0
96,84.77612772708333,85.27612724375,73.0,100.0
97,85.27612724375,85.76201387083333,75.0,100.0
98,85.76201387083333,86.02612651874999,73.0,100.0
99,86.02612651874999,87.17531895625,71.0,100.0
100,87.17531895625,87.72168939583332,81.0,100.0
101,87.6894313625,88.21765665833333,80.0,100.0
102,88.21765665833333,88.64305947291666,76.0,100.0
103,88.64305947291666,88.89104310416666,78.0,100.0
104,88.88902697708333,89.16926864166666,76.0,100.0
105,89.16926864166666,89.72571971666666,80.0,100.0
106,89.72571971666666,92.06039487916667,85.0,100.0
107,92.06241100624999,92.41724937291666,85.0,100.0
108,92.41724937291666,92.76200710416666,87.0,100.0
109,92.76200710416666,93.03418426041667,88.0,100.0
110,93.03418426041667,93.51805476041666,87.0,100.0
111,93.49789348958333,93.96966722708333,88.0,100.0
112,93.94144144791666,94.4394248375,87.0,100.0
113,94.4394248375,95.3829723125,83.0,100.0
114,95.3829723125,96.30837464375,80.0,100.0
115,96.31039077083332,96.88901924375,80.0,100.0
116,96.88901924375,97.12893836666666,78.0,100.0
117,97.12087385833333,97.36280910833332,76.0,100.0
118,97.36280910833332,98.5281305625,73.0,100.0
119,98.53014668958333,98.82248511666666,73.0,100.0
120,98.82248511666666,99.50191994375,76.0,100.0
121,99.50191994375,100.78417676875,75.0,100.0
122,100.78417676875,101.14506351666667,73.0,100.0
123,101.03619265416665,101.29627304791666,75.0,100.0
124,101.29627304791666,105.77812355416665,76.0,100.0
125,115.96964596041666,116.25795213333333,59.0,100.0
126,116.25795213333333,117.91924085,68.0,100.0
127,117.91924085,118.1974663875,64.0,100.0
128,118.1974663875,120.13899676874999,66.0,100.0
129,120.14101289583333,120.44343195833332,66.0,100.0
130,120.44544808541666,120.88294766249999,66.0,100.0
131,120.88294766249999,121.79020485,68.0,100.0
132,121.79020485,122.07246264166666,66.0,100.0
133,122.07246264166666,122.52004285416666,64.0,100.0
134,122.52205898125,124.4514926,64.0,100.0
135,124.4514926,124.94947598958332,66.0,100.0
136,124.95149211666666,125.43536261666667,66.0,100.0
137,125.43536261666667,125.69947526458333,68.0,100.0
138,125.69947526458333,126.42931326875,69.0,100.0
139,126.42931326875,126.92326440416666,68.0,100.0
140,126.92326440416666,127.36882848958332,66.0,100.0
141,127.36882848958332,127.85673124374999,64.0,100.0
142,127.85673124374999,128.35269850625,68.0,100.0
143,128.35471463333332,131.47769548541666,68.0,100.0
144,131.47769548541666,131.75995327708333,59.0,100.0
145,131.75995327708333,133.41317748541667,68.0,100.0
146,133.41317748541667,133.69341914999998,64.0,100.0
147,133.69341914999998,136.07446523541665,66.0,100.0
148,136.07446523541665,136.5603518625,68.0,100.0
149,136.56236798958332,137.04825461666667,68.0,100.0
150,137.04825461666667,137.30430275625,64.0,100.0
151,137.30430275625,137.99785047291667,66.0,100.0
152,137.99785047291667,139.94542923541667,64.0,100.0
153,139.94542923541667,140.43333198958334,66.0,100.0
154,140.43534811666666,140.94542826875,66.0,100.0
155,140.94542826875,141.20147640833332,68.0,100.0
156,141.20147640833332,142.15712064583332,69.0,100.0
157,142.15712064583332,142.43937843749998,68.0,100.0
158,142.43937843749998,142.88897477708332,66.0,100.0
159,142.88897477708332,143.34461949791665,64.0,100.0
160,143.34461949791665,143.80026421875,66.0,100.0
161,143.80026421875,146.27808440416666,64.0,100.0
162,146.28010053124999,146.63493889791667,64.0,100.0
163,146.63493889791667,146.95550310416667,66.0,100.0
164,146.95550310416667,147.27001892916667,68.0,100.0
165,147.27001892916667,148.6450176,71.0,100.0
166,148.6470337270833,149.16316226041667,71.0,100.0
167,149.16316226041667,150.1712258020833,69.0,100.0
168,150.17324192916666,150.62082214166665,69.0,100.0
169,150.62082214166665,151.11477327708332,64.0,100.0
170,151.11477327708332,151.56436961666665,68.0,100.0
171,151.56436961666665,151.77203070624998,66.0,100.0
172,151.74783718125,153.991786625,68.0,100.0
173,153.991786625,154.36073788125,66.0,100.0
174,154.36275400833333,154.69743110416667,66.0,100.0
175,154.69743110416667,154.97968889583333,68.0,100.0
176,154.97968889583333,156.64702599375,69.0,100.0
177,156.64702599375,156.91113864166667,61.0,100.0
178,156.91113864166667,157.4413800645833,73.0,100.0
179,157.4413800645833,157.71557334791666,76.0,100.0
180,157.71557334791666,158.59460475625,75.0,100.0
181,158.59460475625,158.89903994583332,68.0,100.0
182,158.89903994583332,159.40105558958334,73.0,100.0
183,159.40105558958334,163.66516437083334,71.0,100.0
184,163.66516437083334,164.14903487083333,73.0,100.0
185,164.14903487083333,164.63088924375,76.0,100.0
186,164.63290537083333,166.30225859583334,76.0,100.0
187,166.30225859583334,166.59661315,78.0,100.0
188,166.59661315,168.00185372708333,75.0,100.0
189,168.00185372708333,168.46959521041666,73.0,100.0
190,168.46959521041666,170.9030606,71.0,100.0
191,170.9030606,171.14499585,69.0,100.0
192,171.14499585,171.42322138749998,68.0,100.0
193,171.42322138749998,171.68733403541665,69.0,100.0
194,171.68733403541665,172.39499464166667,71.0,100.0
195,172.39499464166667,173.09862299374998,73.0,100.0
196,173.09862299374998,173.81434810833332,76.0,100.0
197,173.81434810833332,174.30829924374999,73.0,100.0
198,174.30829924374999,177.20748998958334,78.0,100.0
199,177.20748998958334,177.66918309166667,76.0,100.0
200,177.65103794791665,177.92523123125,78.0,100.0
201,177.91313446875,178.21353740416666,76.0,100.0
202,178.21353740416666,181.13490554791665,80.0,100.0
203,181.13490554791665,181.4655503895833,76.0,100.0
204,181.4655503895833,181.75990494375,80.0,100.0
205,181.75990494375,182.06232400624998,76.0,100.0
206,182.06232400624998,182.55022676041665,78.0,100.0
207,182.5522428875,183.06030691249998,78.0,100.0
208,183.06232303958333,183.34458083125,78.0,100.0
209,183.34458083125,183.98772537083332,75.0,100.0
210,183.98167698958332,184.4715958708333,73.0,100.0
211,184.43328945624998,185.22159514583333,71.0,100.0
212,185.20748225625,185.45143363333332,68.0,100.0
213,185.45344976041665,185.67925599375,68.0,100.0
214,185.67925599375,185.9393363875,71.0,100.0
215,185.9393363875,186.37885209166666,73.0,100.0
216,186.37885209166666,186.64498086666666,78.0,100.0
217,186.64498086666666,187.58651221458334,76.0,100.0
218,187.58651221458334,187.85465711666666,64.0,100.0
219,187.85465711666666,188.33449536249998,76.0,100.0
220,188.33449536249998,189.29215572708333,75.0,100.0
221,189.29215572708333,189.79215524375,73.0,100.0
222,189.79215524375,190.27804187083333,75.0,100.0
223,190.27804187083333,190.54215451874998,73.0,100.0
224,190.54215451874998,191.69134695625,71.0,100.0
225,191.69134695625,192.23771739583333,81.0,100.0
226,192.2054593625,192.73368465833332,80.0,100.0
227,192.73368465833332,193.15908747291667,76.0,100.0
228,193.15908747291667,193.40707110416665,78.0,100.0
229,193.40505497708332,193.68529664166667,76.0,100.0
230,193.68529664166667,194.24174771666665,80.0,100.0
231,194.24174771666665,196.57642287916664,85.0,100.0
232,196.57843900625,196.93327737291665,85.0,100.0
233,196.93327737291665,197.27803510416666,87.0,100.0
234,197.27803510416666,197.55021226041666,88.0,100.0
235,197.55021226041666,198.03408276041665,87.0,100.0
236,198.0139214895833,198.4856952270833,88.0,100.0
237,198.45746944791665,198.9554528375,87.0,100.0
238,198.9554528375,199.8990003125,83.0,100.0
239,199.8990003125,200.82440264374998,80.0,100.0
240,200.82641877083333,201.40504724374998,80.0,100.0
241,201.40504724374998,201.64496636666667,78.0,100.0
242,201.63690185833332,201.87883710833333,76.0,100.0
243,201.87883710833333,203.0441585625,73.0,100.0
244,203.04617468958332,203.33851311666666,73.0,100.0
245,203.33851311666666,204.01794794375,76.0,100.0
246,204.01794794375,205.30020476874998,75.0,100.0
247,205.30020476874998,205.66109151666666,73.0,100.0
248,205.55222065416666,205.81230104791666,75.0,100.0
249,205.81230104791666,208.1731858625,76.0,100.0
250,208.17520198958331,208.63689509166664,76.0,100.0
251,208.61874994791665,208.89294323125,78.0,100.0
252,208.88084646874998,209.18124940416666,76.0,100.0
253,209.18124940416666,212.10261754791665,80.0,100.0
254,212.10261754791665,212.43326238958332,76.0,100.0
255,212.43326238958332,212.72761694374998,80.0,100.0
256,212.72761694374998,213.03003600625,76.0,100.0
257,213.03003600625,213.51793876041665,78.0,100.0
258,213.51995488749998,214.0280189125,78.0,100.0
259,214.0300350395833,214.31229283124998,78.0,100.0
260,214.31229283124998,214.95543737083332,75.0,100.0
261,214.94938898958333,215.43930787083332,73.0,100.0
262,215.40100145625,216.1893071458333,71.0,100.0
263,216.17519425625,216.41914563333333,68.0,100.0
264,216.42116176041665,216.64696799375,68.0,100.0
265,216.64696799375,216.9070483875,71.0,100.0
266,216.9070483875,217.34656409166666,73.0,100.0
267,217.34656409166666,217.61269286666666,78.0,100.0
268,217.61269286666666,218.55422421458331,76.0,100.0
269,218.55422421458331,218.82236911666666,64.0,100.0
270,218.82236911666666,219.30220736249998,76.0,100.0
271,219.30220736249998,220.25986772708333,75.0,100.0
272,220.25986772708333,220.75986724375,73.0,100.0
273,220.75986724375,221.2457538708333,75.0,100.0
274,221.2457538708333,221.50986651875,73.0,100.0
275,221.50986651875,222.65905895625,71.0,100.0
276,222.65905895625,223.20542939583333,81.0,100.0
277,223.1731713625,223.70139665833332,80.0,100.0
278,223.70139665833332,224.12679947291664,76.0,100.0
279,224.12679947291664,224.37478310416665,78.0,100.0
280,224.37276697708333,224.65300864166664,76.0,100.0
281,224.65300864166664,225.20945971666666,80.0,100.0
282,225.20945971666666,227.54413487916665,85.0,100.0
283,227.54615100625,227.90098937291665,85.0,100.0
284,227.90098937291665,228.24574710416667,87.0,100.0
285,228.24574710416667,228.51792426041666,88.0,100.0
286,228.51792426041666,229.00179476041666,87.0,100.0
287,228.98163348958332,229.45340722708332,88.0,100.0
288,229.42518144791666,229.9231648375,87.0,100.0
289,229.9231648375,230.8667123125,83.0,100.0
290,230.8667123125,231.79211464374998,80.0,100.0
291,231.79413077083333,232.37275924374998,80.0,100.0
292,232.37275924374998,232.61267836666664,78.0,100.0
293,232.60461385833332,232.84654910833333,76.0,100.0
294,232.84654910833333,234.01187056249998,73.0,100.0
295,234.01388668958333,234.30622511666667,73.0,100.0
296,234.30622511666667,234.98565994375,76.0,100.0
297,234.98565994375,236.26791676874998,75.0,100.0
298,236.26791676874998,236.62880351666666,73.0,100.0
299,236.51993265416667,236.78001304791667,75.0,100.0
300,236.78001304791667,239.032027,76.0,100.0
