,start,end,pitch,velocity
0,0.8649185187499999,1.7379015458333333,83.0,83.0
1,0.62298326875,2.0544334979166665,66.0,83.0
2,0.8649185187499999,2.1209656916666666,95.0,83.0
3,0.8649185187499999,2.137094708333333,71.0,83.0
4,0.8649185187499999,2.2137075375,90.0,83.0
5,0.62298326875,2.2600784604166666,59.0,83.0
6,2.80040051875,3.921367177083333,69.0,79.0
7,3.0423357687499997,3.9838671166666666,73.0,78.0
8,2.80040051875,4.090721852083333,57.0,66.0
9,3.0423357687499997,4.262092654166667,76.0,82.0
10,3.0423357687499997,4.270157162499999,64.0,75.0
11,4.2520120187499995,5.814510508333333,66.0,56.0
12,4.2520120187499995,5.907252354166666,56.0,74.0
13,4.4939472687499995,5.96975229375,63.0,62.0
14,4.4939472687499995,5.991929691666666,71.0,51.0
15,5.94555876875,7.37297674375,55.0,85.0
16,5.94555876875,8.118943764583333,62.0,66.0
17,6.18749401875,8.360879014583332,67.0,85.0
18,8.12297601875,10.907247520833332,59.0,62.0
19,8.36491126875,11.008053875,66.0,82.0
20,8.36491126875,11.040311908333333,71.0,69.0
21,8.60684651875,11.133053754166665,78.0,58.0
22,11.99394001875,13.223777539583333,68.0,94.0
23,11.75200476875,13.284261352083332,64.0,89.0
24,11.75200476875,13.465712789583332,45.0,95.0
25,11.75200476875,13.467728916666665,61.0,94.0
26,11.75200476875,13.491922441666667,57.0,88.0
27,13.687486768749999,15.276194910416665,61.0,97.0
28,13.687486768749999,15.304420689583333,57.0,88.0
29,13.687486768749999,15.578613972916665,45.0,95.0
30,13.687486768749999,15.691517089583332,66.0,99.0
31,15.622968768749999,16.812483747916666,59.0,92.0
32,15.622968768749999,16.834661145833334,54.0,90.0
33,15.622968768749999,16.842725654166667,63.0,101.0
34,15.622968768749999,17.350789679166667,44.0,95.0
35,17.31651551875,18.11086958958333,56.0,84.0
36,17.55845076875,18.1330469875,61.0,92.0
37,17.55845076875,19.004013887499998,49.0,97.0
38,18.52619176875,19.00603001458333,59.0,97.0
39,18.52619176875,19.09675573333333,56.0,91.0
40,17.55845076875,19.497965022916667,64.0,91.0
41,19.49393276875,20.90925398125,54.0,94.0
42,19.49393276875,21.044334495833333,57.0,83.0
43,20.703609018749997,21.233850441666664,49.0,93.0
44,19.49393276875,21.280221364583333,61.0,98.0
45,20.945544268749998,21.28425361875,54.0,89.0
46,21.18747951875,21.334656795833332,57.0,98.0
47,19.49393276875,21.52820499583333,42.0,103.0
48,21.42941476875,22.830623091666666,59.0,102.0
49,21.42941476875,22.868929506249998,47.0,103.0
50,21.42941476875,22.957639097916665,54.0,90.0
51,22.88102626875,23.387074166666665,57.0,104.0
52,23.36489676875,24.05037997708333,52.0,87.0
53,23.36489676875,24.219734652083332,56.0,92.0
54,24.332637768749997,24.850782429166664,56.0,98.0
55,24.81650826875,25.135056347916667,54.0,103.0
56,25.300378768749997,26.13102312708333,52.0,102.0
57,25.300378768749997,26.161265033333333,57.0,93.0
58,23.84876726875,26.393119647916667,47.0,94.0
59,26.99392551875,27.072554474999997,68.0,70.0
60,26.268119768749997,27.14715117708333,56.0,97.0
61,26.268119768749997,27.15924793958333,52.0,97.0
62,26.75199026875,27.221747879166664,47.0,91.0
63,23.36489676875,27.22578013333333,40.0,102.0
64,27.235860768749998,28.080618016666666,68.0,92.0
65,27.235860768749998,28.129005066666664,64.0,97.0
66,26.99392551875,28.231827547916666,57.0,91.0
67,28.203601768749998,28.667310997916665,68.0,93.0
68,28.203601768749998,28.699569031249997,64.0,92.0
69,27.235860768749998,29.074568668749997,45.0,99.0
70,27.235860768749998,29.084649304166664,61.0,102.0
71,29.171342768749998,30.01811614375,66.0,97.0
72,29.171342768749998,30.09069671875,61.0,99.0
73,29.171342768749998,30.18948694583333,57.0,94.0
74,30.139083768749998,30.18948694583333,57.0,90.0
75,30.139083768749998,30.685454208333333,61.0,98.0
76,30.62295426875,30.766099291666666,57.0,84.0
77,29.171342768749998,30.97376038125,45.0,94.0
78,30.139083768749998,31.13101829375,66.0,95.0
79,31.10682476875,31.715695147916666,59.0,97.0
80,31.10682476875,31.860856297916666,54.0,94.0
81,32.07456576875,32.423355754166664,54.0,108.0
82,32.07456576875,32.52416210833333,63.0,105.0
83,31.590695268749997,32.683436147916666,51.0,81.0
84,31.10682476875,32.91327463541666,44.0,102.0
85,33.042306768749995,33.383032245833334,56.0,95.0
86,33.042306768749995,33.64311263958333,59.0,98.0
87,34.01004776875,34.56649884375,64.0,103.0
88,33.52617726875,34.64311167291667,56.0,90.0
89,33.042306768749995,35.02415969166667,49.0,103.0
90,34.49391826875,35.08061125,63.0,103.0
91,34.977788768749996,35.98585231041667,61.0,102.0
92,34.977788768749996,36.70560967916666,54.0,97.0
93,35.46165926875,36.81649666875,49.0,99.0
94,35.94552976875,36.860851464583334,57.0,105.0
95,34.977788768749996,36.87899660833333,42.0,104.0
96,36.913270768749996,37.77214090625,59.0,98.0
97,36.913270768749996,38.16931794166666,54.0,98.0
98,38.364882268749994,38.69552711041666,54.0,97.0
99,37.88101176875,38.79230121041667,59.0,102.0
100,36.913270768749996,38.824559243749995,47.0,102.0
101,37.88101176875,38.99794617291666,63.0,104.0
102,38.848752768749996,40.298348141666665,52.0,94.0
103,38.848752768749996,40.31447715833333,56.0,93.0
104,39.81649376875,40.362864208333335,59.0,100.0
105,40.300364268749995,40.76407349791666,63.0,102.0
106,40.78423476875,41.364879368749996,64.0,97.0
107,41.75197576875,42.68544260833333,68.0,102.0
108,41.75197576875,42.6894748625,64.0,102.0
109,38.848752768749996,42.70963613333333,40.0,103.0
110,41.26810526875,42.71971676875,59.0,87.0
111,39.33262326875,42.723749022916664,47.0,99.0
112,42.71971676875,44.14310248958333,72.0,84.0
113,42.71971676875,44.49794085625,57.0,97.0
114,42.71971676875,44.5039892375,69.0,96.0
115,42.71971676875,44.54632790625,64.0,92.0
116,44.65519876875,46.04431032916666,57.0,89.0
117,44.65519876875,46.22979402083333,64.0,89.0
118,44.65519876875,46.582616260416664,69.0,91.0
119,46.59068076875,46.71568064791666,40.0,88.0
120,46.59068076875,47.89914724583333,68.0,93.0
121,48.042292268749996,48.62495299583333,66.0,99.0
122,47.558421768749994,48.71567871458333,59.0,98.0
123,48.52616276875,49.370920016666666,68.0,94.0
124,48.52616276875,49.584629487499996,64.0,96.0
125,47.07455126875,49.77616156041666,52.0,94.0
126,49.493903768749995,49.92132271041666,71.0,98.0
127,50.46164476875,51.08059578333333,69.0,96.0
128,50.46164476875,51.16124086666667,66.0,92.0
129,50.94551526875,51.86083696458333,49.0,76.0
130,50.46164476875,51.95761106458333,42.0,92.0
131,51.429385768749995,52.03624002083333,69.0,102.0
132,51.429385768749995,52.191481806249996,66.0,96.0
133,51.429385768749995,52.35882035416667,73.0,102.0
134,52.39712676875,52.508013758333334,35.0,89.0
135,52.39712676875,52.79228767708333,66.0,87.0
136,52.39712676875,52.92131981041666,71.0,89.0
137,53.364867768749995,53.82051248958333,63.0,107.0
138,52.88099726875,53.8426898875,47.0,83.0
139,53.364867768749995,54.16527022083333,59.0,100.0
140,54.33260876875,54.43946350416666,40.0,96.0
141,54.33260876875,54.659221356249994,59.0,91.0
142,54.33260876875,54.79228574375,64.0,91.0
143,54.816479268749994,55.923333037499994,52.0,77.0
144,55.300349768749996,55.94147818125,64.0,91.0
145,55.300349768749996,56.05841355208333,68.0,91.0
146,55.78422026875,56.07655869583333,59.0,82.0
147,56.26809076875,56.83462247916666,59.0,84.0
148,56.26809076875,56.95155785,62.0,90.0
149,56.751961268749994,57.35276713958333,54.0,100.0
150,56.26809076875,57.475750891666664,47.0,97.0
151,57.235831768749996,58.237846929166665,59.0,98.0
152,57.235831768749996,58.62897558333333,64.0,101.0
153,58.687443268749995,59.09470093958333,57.0,97.0
154,58.44550801875,59.4313941625,52.0,85.0
155,58.20357276875,59.60276496458333,45.0,102.0
156,59.17131376875,59.973732347916666,61.0,89.0
157,59.17131376875,59.99389361874999,57.0,90.0
158,59.17131376875,60.005990381249994,64.0,93.0
159,60.13905476875,60.42534481458333,57.0,77.0
160,60.13905476875,60.48582862708333,61.0,84.0
161,60.13905476875,61.282198824999995,45.0,86.0
162,61.10679576875,61.28623107916666,69.0,103.0
163,61.10679576875,61.29026333333333,64.0,97.0
164,60.13905476875,61.38905356041666,52.0,82.0
165,62.074536768749994,62.70760067291666,66.0,92.0
166,62.074536768749994,62.73381032499999,71.0,96.0
167,63.04227776875,63.41324515208333,66.0,97.0
168,62.074536768749994,63.441470931249995,44.0,97.0
169,63.04227776875,64.03421229375,75.0,97.0
170,64.01001876875,64.09267997916666,37.0,97.0
171,64.01001876875,64.26203465416667,68.0,89.0
172,64.01001876875,64.44751834583333,73.0,97.0
173,64.97775976874999,65.540259225,49.0,96.0
174,64.97775976874999,65.59066240208332,59.0,96.0
175,64.97775976874999,65.63300107083333,56.0,86.0
176,64.97775976874999,65.9152588625,65.0,95.0
177,65.94550076875,66.28017786458334,61.0,87.0
178,65.94550076875,67.55033792708333,42.0,89.0
179,66.42937126875,67.63904751874999,49.0,81.0
180,66.91324176875,67.80033768541666,57.0,88.0
181,66.91324176875,67.83259571875,54.0,90.0
182,65.94550076875,67.89912791249999,66.0,94.0
183,67.88098276875,68.65920782291666,57.0,89.0
184,67.88098276875,68.71767550833333,61.0,96.0
185,67.88098276875,69.024126825,45.0,92.0
186,68.36485326875,69.04025584166666,52.0,92.0
187,68.84872376874999,69.1571912125,57.0,101.0
188,68.84872376874999,69.19549762708333,61.0,97.0
189,68.84872376874999,69.5684811375,64.0,98.0
190,69.81646476875,69.90114210624999,35.0,97.0
191,69.81646476875,70.9233185375,63.0,97.0
192,69.81646476875,71.08662483124999,59.0,82.0
193,70.78420576875,71.52412440833334,54.0,100.0
194,70.30033526874999,71.61686625416667,47.0,102.0
195,71.26807626875,71.62291463541666,59.0,101.0
196,71.26807626875,71.76202740416666,64.0,100.0
197,71.75194676875,72.05436583125,59.0,96.0
198,71.75194676875,72.29831720833333,63.0,98.0
199,72.23581726875,72.93742949375,59.0,95.0
200,71.75194676875,73.22170341249999,54.0,95.0
201,71.75194676875,73.233800175,47.0,99.0
202,72.71968776874999,73.33662265625,71.0,97.0
203,72.71968776874999,73.34871941875,63.0,107.0
204,72.71968776874999,73.37089681666666,66.0,100.0
205,73.68742876875,74.16323476041666,57.0,96.0
206,73.68742876875,74.46363769583333,61.0,99.0
207,74.17129926874999,74.85879860416667,52.0,91.0
208,74.65516976875,75.13702414166666,69.0,99.0
209,74.65516976875,75.2055724625,61.0,103.0
210,74.65516976875,75.50597539791666,57.0,98.0
211,75.13904026875,75.90920081458333,52.0,84.0
212,75.62291076874999,76.14508768333333,68.0,95.0
213,75.62291076874999,76.39911969583333,61.0,92.0
214,75.62291076874999,76.45355512708333,57.0,92.0
215,73.68742876875,76.74387742708333,45.0,100.0
216,76.10678126875,76.75395806249999,52.0,86.0
217,76.59065176874999,76.8749256875,57.0,97.0
218,76.59065176874999,76.90718372083333,61.0,98.0
219,76.59065176874999,77.15718347916666,66.0,96.0
220,77.07452226875,77.58258629375,64.0,96.0
221,78.04226326874999,78.61282723333333,51.0,97.0
222,77.55839276875,78.84064959375,44.0,98.0
223,79.01000426875,79.36887488958332,44.0,44.0
224,78.52613376875,79.40113292291666,54.0,99.0
225,78.52613376875,79.42532644791666,59.0,92.0
226,77.55839276875,79.44951997291666,66.0,96.0
227,79.01000426875,79.53419731041666,51.0,91.0
228,79.49387476874999,79.77210030625,54.0,92.0
229,79.49387476874999,80.02613231875,59.0,96.0
230,79.97774526875,80.55838986875,51.0,85.0
231,79.49387476874999,80.75798644999999,44.0,97.0
232,80.46161576875,80.96967979374999,56.0,97.0
233,80.46161576875,80.97169592083333,68.0,97.0
234,80.94548626875,81.07855065625,51.0,89.0
235,80.94548626875,81.11484094375,44.0,96.0
236,81.42935676875,81.51000185208333,42.0,95.0
237,81.42935676875,81.72774357708333,54.0,89.0
238,81.42935676875,81.77008224583332,57.0,86.0
239,81.42935676875,81.82451767708334,61.0,91.0
240,82.39709776875,82.66121041666666,61.0,98.0
241,81.91322726874999,82.68943619583332,54.0,95.0
242,82.63903301875,82.80435543958333,66.0,101.0
243,82.88096826875,83.13500028125,68.0,98.0
244,83.12290351875,83.29629044791666,69.0,103.0
245,83.36483876874999,83.66524170416666,66.0,93.0
246,83.36483876874999,83.70959649999999,69.0,91.0
247,83.84870926875,84.47572479166666,54.0,89.0
248,83.36483876874999,84.63298270416666,47.0,99.0
249,84.33257976875,84.83661153958333,63.0,113.0
250,84.33257976875,85.13499834791666,59.0,102.0
251,85.30032076875,85.38499810625,40.0,97.0
252,85.30032076875,85.61685272083334,59.0,97.0
253,85.30032076875,86.73177099791666,68.0,95.0
254,86.75193226875,86.99185139166666,66.0,112.0
255,86.26806176875,87.0362061875,59.0,102.0
256,85.78419126874999,87.06443196666666,52.0,96.0
257,86.99386751875,87.13701254166666,68.0,105.0
258,87.23580276874999,87.79225384374999,64.0,97.0
259,87.23580276874999,87.80031835208332,69.0,110.0
260,87.23580276874999,88.41725323958333,59.0,97.0
261,87.23580276874999,88.60072080416666,52.0,99.0
262,88.20354376875,88.80838189375,71.0,110.0
263,88.20354376875,88.99184945833333,64.0,102.0
264,89.17128476875,90.17934831041666,64.0,96.0
265,89.17128476875,90.35273523958332,69.0,97.0
266,89.17128476875,90.43539645,73.0,98.0
267,90.13902576874999,90.71362198749999,52.0,83.0
268,90.38096101875,90.71563811458333,64.0,96.0
269,89.17128476875,90.79023481666667,45.0,99.0
270,90.62289626875,90.90515406041666,69.0,110.0
271,91.10676676874999,91.65313720833333,64.0,91.0
272,91.10676676874999,91.71966940208333,69.0,90.0
273,91.10676676874999,92.30031400208333,45.0,92.0
274,92.07450776875,92.30233012916666,64.0,96.0
275,92.07450776875,92.36281394166666,69.0,103.0
276,92.07450776875,93.09466807291666,73.0,103.0
277,93.04224876875,93.40918389791666,66.0,86.0
278,93.04224876875,93.49789348958333,71.0,90.0
279,93.52611926875,94.12692513958334,51.0,97.0
280,94.00998976874999,94.42531194791667,63.0,113.0
281,94.00998976874999,94.4636183625,59.0,100.0
282,94.49386026875,94.80434383958332,51.0,88.0
283,93.04224876875,94.84063412708333,44.0,97.0
284,94.97773076874999,95.03821458124999,61.0,84.0
285,95.46160126875,95.8184557625,51.0,83.0
286,94.97773076874999,95.95756853124999,44.0,91.0
287,95.94547176875,96.55837440208333,56.0,98.0
288,95.94547176875,96.65514850208332,49.0,103.0
289,95.94547176875,96.66321301041665,61.0,102.0
290,96.91321276875,97.23780922916666,54.0,97.0
291,96.91321276875,97.29627691458333,61.0,96.0
292,96.91321276875,97.32853494791667,57.0,96.0
293,97.39708326875,98.02611491875,49.0,69.0
294,96.91321276875,98.05232457083333,42.0,97.0
295,97.88095376874999,98.18538895833333,52.0,102.0
296,97.88095376874999,98.21764699166665,57.0,103.0
297,98.84869476875,99.13095256041666,47.0,96.0
298,98.84869476875,99.18942024583333,54.0,94.0
299,98.84869476875,99.30232336249999,59.0,94.0
300,99.33256526874999,100.15716124583332,47.0,96.0
301,99.81643576875,100.53820926458333,59.0,101.0
302,99.81643576875,100.62490272916666,63.0,113.0
303,100.78417676875,101.25998276041666,69.0,105.0
304,100.78417676875,101.298289175,64.0,91.0
305,100.78417676875,101.44546645208332,73.0,111.0
306,101.50998251875,101.76603065833332,64.0,103.0
307,101.50998251875,101.81643383541666,71.0,105.0
308,100.78417676875,101.82248221666666,45.0,105.0
309,102.23578826875,102.31643335208332,68.0,102.0
310,102.71965876875,104.43941517083333,45.0,95.0
311,102.71965876875,104.51401187291665,64.0,95.0
312,102.71965876875,104.53417314375,72.0,97.0
313,102.71965876875,104.54425377916667,69.0,98.0
314,104.65514076874999,104.76401163125,44.0,105.0
315,104.65514076874999,104.89909214583332,54.0,89.0
316,104.65514076874999,104.9031244,59.0,100.0
317,105.38094651875,105.86078476458333,63.0,105.0
318,105.38094651875,105.91118794166665,56.0,100.0
319,105.38094651875,106.07852648958333,71.0,103.0
320,105.38094651875,106.09263937916666,66.0,99.0
321,106.59062276875,107.10473517499999,59.0,106.0
322,106.59062276875,107.23175118124999,65.0,99.0
323,106.59062276875,107.38900909374999,49.0,109.0
324,107.55836376875,107.95554080416666,56.0,101.0
325,107.55836376875,108.00594398125,49.0,109.0
326,107.55836376875,108.05231490416666,61.0,106.0
327,107.55836376875,108.06844392083333,65.0,106.0
328,107.55836376875,108.08860519166666,68.0,102.0
329,107.55836376875,108.1934438,71.0,105.0
330,108.28416951874999,108.49989511666666,54.0,94.0
331,108.52610476874999,108.68537880833333,57.0,91.0
332,108.52610476874999,108.96158821875,61.0,100.0
333,109.00997526875,109.05836231875,61.0,74.0
334,108.52610476874999,109.11481387708332,66.0,105.0
335,109.00997526875,109.32247496666666,54.0,116.0
336,108.52610476874999,109.38699103333333,42.0,106.0
337,108.76804001875,109.39505554166666,49.0,100.0
338,109.49384576874999,109.76803905208332,54.0,107.0
339,109.49384576874999,110.02005493749999,59.0,104.0
340,109.49384576874999,110.29223209374999,44.0,107.0
341,109.73578101874999,110.32852238125,51.0,105.0
342,109.97771626875,110.37287717708332,54.0,106.0
343,110.21965151875,110.46360289583333,59.0,99.0
344,110.70352201875,111.25795696666665,52.0,96.0
345,110.94545726874999,111.27610211041666,57.0,107.0
346,110.46158676875,111.72973070416666,45.0,107.0
347,111.42932776875,111.74585972083332,52.0,95.0
348,111.18739251874999,111.77206937291666,64.0,106.0
349,111.67126301875,111.77811775416666,57.0,90.0
350,111.67126301875,111.85674671041666,61.0,102.0
351,112.39706876874999,113.61480952708332,63.0,97.0
352,112.39706876874999,113.63295467083333,66.0,102.0
353,112.39706876874999,113.66521270416666,71.0,96.0
354,112.39706876874999,113.69948686458332,59.0,96.0
355,112.39706876874999,114.14505095,35.0,103.0
356,114.33255076875,115.41117875833332,35.0,99.0
357,114.09061551875,116.10674260208333,83.0,98.0
358,114.33255076875,116.19948444791666,71.0,98.0
359,114.33255076875,116.27408115,75.0,106.0
360,114.33255076875,116.28819403958333,78.0,103.0
361,116.26803276874999,116.50190351041665,57.0,87.0
362,116.26803276874999,116.80432257291666,64.0,91.0
363,116.26803276874999,116.83456447916666,61.0,96.0
364,116.75190326875,117.12287065208332,57.0,76.0
365,117.23577376875,117.4716606375,57.0,92.0
366,117.23577376875,117.63093467708333,61.0,96.0
367,117.23577376875,118.04827298333333,64.0,95.0
368,116.26803276874999,118.05835361874999,45.0,95.0
369,118.20351476875,118.50190157708333,57.0,88.0
370,118.20351476875,118.96964306041666,60.0,88.0
371,118.68738526874999,118.9716591875,57.0,70.0
372,119.17125576874999,119.68738430208333,57.0,92.0
373,119.17125576874999,119.68940042916665,60.0,97.0
374,119.17125576874999,119.79020678333333,64.0,92.0
375,118.20351476875,120.02206139791666,45.0,91.0
376,120.13899676874999,120.75391552916666,59.0,93.0
377,120.13899676874999,120.91923795,54.0,95.0
378,121.10673776875,121.37286654374999,54.0,97.0
379,121.59060826874999,121.74181779999999,54.0,92.0
380,120.62286726875,121.74786618124999,51.0,84.0
381,121.10673776875,121.93334987291666,63.0,96.0
382,120.13899676874999,121.9958498125,44.0,96.0
383,122.07447876875,122.28012373124999,56.0,95.0
384,122.07447876875,122.91721988958332,61.0,96.0
385,122.55834926874999,123.03415526041665,56.0,95.0
386,122.07447876875,123.48778385416666,49.0,100.0
387,123.04221976874999,123.55229992083332,64.0,102.0
388,123.52609026875,124.01802527708332,63.0,97.0
389,124.00996076874999,124.58254086041666,61.0,89.0
390,124.97770176875,125.18334673125,54.0,95.0
391,124.97770176875,125.45149163333333,57.0,97.0
392,124.49383126875,125.51197544583333,49.0,93.0
393,124.97770176875,125.61479792708333,61.0,96.0
394,124.00996076874999,125.71963653541665,42.0,96.0
395,125.46157226874999,125.82044288958333,54.0,91.0
396,125.94544276875,126.15915223958332,54.0,95.0
397,125.94544276875,126.49786158958332,59.0,95.0
398,126.42931326875,126.798264525,54.0,89.0
399,126.91318376874999,127.22366733958333,54.0,97.0
400,126.91318376874999,127.40310265,59.0,95.0
401,125.94544276875,127.46157033541667,47.0,96.0
402,127.39705426875,127.87084413333332,57.0,102.0
403,127.88092476874999,127.97568274166666,40.0,95.0
404,127.88092476874999,128.11277938333333,52.0,92.0
405,127.88092476874999,128.26197278749999,56.0,92.0
406,129.33253626875,129.59664891666665,64.0,87.0
407,128.84866576874998,129.69140688958333,59.0,102.0
408,128.36479526875,129.701487525,52.0,89.0
409,129.57447151875,129.77003584583332,66.0,91.0
410,129.81640676875,130.43334165624998,64.0,95.0
411,129.81640676875,130.4514868,68.0,94.0
412,130.30027726875,130.7297123375,59.0,82.0
413,130.78414776875,131.26600214166666,59.0,96.0
414,129.81640676875,131.26801826874998,52.0,100.0
415,131.26801826874998,131.66721143125,64.0,106.0
416,131.75188876875,132.50390417083332,64.0,93.0
417,131.75188876875,132.52809769583334,69.0,87.0
418,132.71962976875,133.49382256875,69.0,102.0
419,131.75188876875,133.50591933125,45.0,100.0
420,132.71962976875,133.50995158541667,64.0,97.0
421,132.23575926875,133.58253216041666,52.0,80.0
422,133.68737076875,134.07446716875,64.0,92.0
423,134.17124126874998,134.42325715416666,64.0,76.0
424,133.68737076875,134.43132166249998,69.0,93.0
425,133.68737076875,134.43333778958333,72.0,86.0
426,134.65511176875,135.01196626249998,64.0,90.0
427,133.68737076875,135.49785288958333,45.0,87.0
428,134.65511176875,135.63696565833334,72.0,95.0
429,135.62285276875,136.27607794374998,68.0,86.0
430,136.10672326875,136.73978717291666,51.0,88.0
431,136.59059376874998,136.94543213541667,56.0,93.0
432,136.59059376874998,137.0926094125,59.0,96.0
433,137.07446426875,137.39906072916665,51.0,95.0
434,135.62285276875,137.4212381270833,44.0,95.0
435,136.59059376874998,137.46962517708332,63.0,97.0
436,137.55833476875,137.82647967083332,56.0,93.0
437,137.55833476875,138.39502750833333,61.0,93.0
438,138.04220526875,138.4232532875,56.0,83.0
439,138.52607576875,138.72970460416667,56.0,96.0
440,138.52607576875,139.01196239583334,61.0,97.0
441,137.55833476875,139.02405915833333,49.0,91.0
442,138.52607576875,139.03212366666665,65.0,104.0
443,139.00994626874999,139.136962275,56.0,96.0
444,139.49381676874998,140.14905807083332,61.0,96.0
445,139.49381676874998,140.17526772291666,57.0,88.0
446,139.49381676874998,140.29220309375,54.0,94.0
447,140.46155776875,140.94139601458332,57.0,100.0
448,140.46155776875,141.21962155208334,61.0,97.0
449,139.97768726875,141.22163767916666,49.0,79.0
450,139.49381676874998,141.24986345833332,42.0,95.0
451,140.94542826875,141.265992475,54.0,92.0
452,141.42929876875,141.68333078125,54.0,96.0
453,141.42929876875,141.97566920833333,59.0,95.0
454,141.91316926874998,142.26599150833331,54.0,88.0
455,142.39703976875,142.72163622916665,54.0,98.0
456,142.39703976875,142.80631356666666,59.0,97.0
457,141.42929876875,143.07647459583333,47.0,95.0
458,142.88091026875,143.26800666875,57.0,104.0
459,143.36478076875,143.97163502083333,56.0,92.0
460,143.36478076875,144.42727974166667,52.0,90.0
461,144.33252176874998,144.6651827375,64.0,101.0
462,144.81639226874998,145.05832751875,56.0,83.0
463,144.57445701875,145.08453717083333,59.0,97.0
464,143.84865126875,145.08655329791665,47.0,85.0
465,143.36478076875,145.14098872916665,40.0,96.0
466,145.05832751875,145.18534352499998,52.0,84.0
467,145.30026276875,145.76397199791666,52.0,93.0
468,145.30026276875,145.83655257291664,56.0,95.0
469,145.30026276875,146.03010077291665,59.0,95.0
470,146.02606851874998,146.17526192291666,52.0,98.0
471,145.78413326875,146.34461659791666,47.0,96.0
472,146.26800376875,146.54622930624998,52.0,102.0
473,146.26800376875,146.66921305833333,56.0,109.0
474,146.26800376875,146.70550334583334,64.0,99.0
475,146.26800376875,146.733729125,59.0,111.0
476,146.75187426875,147.09259974583333,52.0,101.0
477,145.30026276875,147.14300292291665,40.0,99.0
478,146.99380951875,147.16316419375,56.0,88.0
479,146.50993901875,147.16518032083331,47.0,98.0
480,147.23574476874998,147.45550262083333,64.0,93.0
481,147.23574476874998,147.79219584375,72.0,86.0
482,147.23574476874998,147.85671191041666,69.0,88.0
483,147.71961526875,147.98372791666665,64.0,81.0
484,148.20348576875,148.42324362083332,64.0,100.0
485,147.23574476874998,148.61477569375,45.0,88.0
486,148.20348576875,148.69340465,72.0,100.0
487,148.20348576875,148.70953366666666,69.0,104.0
488,148.68735626875,148.78816262291667,64.0,92.0
489,149.17122676875,149.35066207916665,59.0,86.0
490,149.17122676875,149.67727466666665,61.0,92.0
491,149.65509726874998,149.84662934166667,58.0,84.0
492,149.65509726874998,149.89501639166667,59.0,84.0
493,149.17122676875,149.96154858541666,66.0,95.0
494,149.17122676875,149.98372598333333,47.0,98.0
495,150.13896776874998,150.41920943333332,59.0,96.0
496,150.13896776874998,150.63090277708332,63.0,100.0
497,150.13896776874998,150.67525757291665,54.0,95.0
498,150.13896776874998,150.71759624166666,47.0,97.0
499,150.62283826875,151.01396692291667,59.0,92.0
500,151.10670876875,151.20146674166665,40.0,95.0
501,151.10670876875,151.40711170416665,59.0,95.0
502,151.10670876875,151.58049863333332,64.0,91.0
503,151.10670876875,151.78614359583332,68.0,91.0
504,152.31638501875,152.60670731874998,64.0,102.0
505,152.55832026874998,152.82041678958333,66.0,101.0
506,152.07444976875,152.88090060208333,59.0,104.0
507,151.59057926875,152.93130377916665,52.0,91.0
508,152.80025551875,152.93130377916665,68.0,96.0
509,153.04219076875,153.50388387083333,69.0,94.0
510,153.04219076875,153.83049645833333,64.0,91.0
511,153.52606126875,154.51396353958333,59.0,96.0
512,153.04219076875,154.56638284375,52.0,97.0
513,154.00993176875,154.57847960625,68.0,100.0
514,154.00993176875,154.60065700416666,64.0,98.0
515,154.49380226875,154.79017295,66.0,102.0
516,154.73573751875,154.95146311666664,64.0,93.0
517,154.97767276874998,155.2821079583333,42.0,95.0
518,154.97767276874998,155.75186556875,69.0,96.0
519,154.97767276874998,155.75589782291667,66.0,93.0
520,155.94541376875,156.16718774791667,66.0,95.0
521,155.46154326874998,156.32242953333332,54.0,94.0
522,155.94541376875,156.90912251458332,73.0,99.0
523,156.91315476875,157.20347706875,66.0,91.0
524,156.91315476875,157.24581573749998,71.0,91.0
525,157.39702526874999,157.98371824999998,54.0,94.0
526,156.91315476875,158.34863725208334,47.0,98.0
527,157.88089576874998,158.34863725208334,63.0,111.0
528,157.88089576874998,158.42726620833332,59.0,102.0
529,158.36476626875,158.44944360625,54.0,90.0
530,158.84863676875,159.67323274583333,59.0,96.0
531,158.84863676875,159.67928112708333,64.0,96.0
532,159.33250726875,159.90105510625,47.0,96.0
533,159.81637776875,160.04218400208333,59.0,106.0
534,159.81637776875,160.29419988749999,64.0,109.0
535,160.05831301875,160.35669982708333,47.0,95.0
536,158.84863676875,160.36073208124998,40.0,96.0
537,160.30024826874998,160.57645767916665,59.0,97.0
538,160.54218351875,160.6812962875,64.0,89.0
539,160.78411876875,161.04218303541666,59.0,97.0
540,160.78411876875,161.26395701458333,62.0,111.0
541,161.26798926875,161.636940525,59.0,97.0
542,161.02605401875,161.66516630416666,54.0,90.0
543,161.50992451874998,161.67927919375,62.0,97.0
544,160.78411876875,161.72161786249998,47.0,102.0
545,161.75185976875,161.99379501874998,59.0,98.0
546,161.75185976875,162.17121420208332,52.0,111.0
547,161.75185976875,162.27403668333332,64.0,100.0
548,161.99379501874998,162.32040760625,56.0,97.0
549,162.23573026875,162.52000418749998,59.0,109.0
550,162.47766551875,163.2700034625,64.0,95.0
551,163.20347126874998,163.59661605,57.0,96.0
552,162.96153601875,163.959518925,52.0,88.0
553,163.68734176875,164.01395435625,57.0,102.0
554,162.71960076874998,164.04419626249998,45.0,101.0
555,163.68734176875,164.08048655,64.0,97.0
556,164.65508276875,165.36274337499998,60.0,87.0
557,164.65508276875,165.44137233125,57.0,89.0
558,165.13895326875,165.76798491875,52.0,76.0
559,164.65508276875,165.84258162083333,45.0,86.0
560,165.62282376874998,165.94943635625,57.0,104.0
561,166.10669426875,166.25588767291666,45.0,101.0
562,165.62282376874998,166.52201644791666,64.0,97.0
563,166.59056476875,167.22362867291665,59.0,97.0
564,166.59056476875,167.37483820416665,54.0,97.0
565,166.59056476875,167.83854743333333,44.0,96.0
566,167.07443526875,167.88088610208334,51.0,81.0
567,167.55830576875,167.91112800833332,54.0,101.0
568,167.55830576875,167.9837085833333,63.0,100.0
569,168.04217626874998,168.42524041458333,44.0,95.0
570,168.52604676874998,168.84257872083333,56.0,91.0
571,168.52604676874998,169.0361269208333,59.0,91.0
572,168.52604676874998,169.35669112708334,49.0,100.0
573,169.00991726875,169.36273950833333,56.0,88.0
574,169.49378776875,169.76798105208331,56.0,96.0
575,169.49378776875,169.92725509166667,49.0,102.0
576,169.49378776875,169.94943248958333,65.0,96.0
577,169.49378776875,169.95144861666665,59.0,91.0
578,169.97765826875,170.07846462291667,56.0,85.0
579,170.46152876875,171.09660879999998,57.0,83.0
580,170.46152876875,171.20547966249998,61.0,92.0
581,170.46152876875,171.24781833125,54.0,91.0
582,171.42926976875,171.60265669791667,54.0,96.0
583,170.46152876875,171.79418877083333,42.0,97.0
584,170.94539926874998,171.798221025,49.0,81.0
585,171.42926976875,171.89902737916665,57.0,102.0
586,171.42926976875,171.95951119166665,61.0,95.0
587,171.91314026875,172.01797887708332,54.0,100.0
588,172.39701076875,172.53410741041665,52.0,98.0
589,172.39701076875,172.5683815708333,57.0,101.0
590,172.39701076875,172.60063960416664,61.0,97.0
591,172.39701076875,173.08249397708332,45.0,112.0
592,172.88088126875,173.36878402291666,52.0,81.0
593,173.36475176874998,173.61878378125,57.0,97.0
594,173.36475176874998,173.62886441666666,61.0,102.0
595,173.36475176874998,173.72563851666666,64.0,98.0
596,173.84862226874998,173.92321897083332,45.0,102.0
597,174.33249276875,174.4474120125,35.0,97.0
598,174.33249276875,174.5925731625,59.0,101.0
599,174.33249276875,174.6187828145833,63.0,102.0
600,174.81636326875,174.93733089375,63.0,89.0
601,174.81636326875,174.97362118125,59.0,84.0
602,174.81636326875,174.97765343541667,66.0,88.0
603,174.81636326875,175.01192759583333,47.0,96.0
604,175.30023376875,175.42724977499998,71.0,96.0
605,175.30023376875,175.46152393541666,59.0,99.0
606,175.30023376875,175.52402387499998,47.0,101.0
607,175.30023376875,175.53208838333333,54.0,96.0
608,175.78410426874999,176.0925717125,47.0,96.0
609,176.26797476874998,176.45345846041667,35.0,91.0
610,176.26797476874998,176.45950684166667,63.0,94.0
611,176.26797476874998,176.46958747708334,66.0,91.0
612,176.26797476874998,176.48168423958333,71.0,95.0
613,176.50991001875,176.6127325,35.0,92.0
614,176.50991001875,176.63289377083333,63.0,103.0
615,176.50991001875,176.63289377083333,66.0,101.0
616,176.50991001875,176.63289377083333,71.0,104.0
617,177.23571576875,177.5159574333333,54.0,98.0
618,177.23571576875,177.55829610208332,63.0,103.0
619,177.23571576875,177.56232835625,47.0,99.0
620,177.23571576875,177.59660251666665,59.0,99.0
621,178.20345676875,178.95547217083333,61.0,98.0
622,178.20345676875,178.98168182291667,57.0,97.0
623,178.68732726874998,179.29014926666665,52.0,78.0
624,178.20345676875,179.37281047708333,45.0,108.0
625,179.17119776874998,179.47966521249998,57.0,98.0
626,179.17119776874998,179.5179716270833,61.0,102.0
627,179.17119776874998,179.55426191458332,64.0,99.0
628,179.65506826875,180.07039044791665,52.0,92.0
629,180.13893876875,180.6792608270833,57.0,88.0
630,180.13893876875,180.71958336875,61.0,101.0
631,180.86474451875,180.99780890625,57.0,88.0
632,180.62280926875,181.17321196249998,52.0,91.0
633,180.13893876875,181.3627279083333,45.0,103.0
634,181.10667976874998,181.37079241666666,57.0,97.0
635,181.10667976874998,181.40103432291664,61.0,100.0
636,181.10667976874998,181.45748588125,64.0,98.0
637,181.34861501875,181.53409871041666,52.0,99.0
638,181.59055026874998,181.9232112375,57.0,97.0
639,181.83248551875,181.95345314374998,61.0,87.0
640,182.07442076875,182.56030739583332,54.0,104.0
641,182.07442076875,182.79216201041666,59.0,106.0
642,182.80022651874998,182.92119414375,54.0,94.0
643,182.55829126875,183.07038754791665,51.0,96.0
644,183.04216176875,183.3103066708333,54.0,108.0
645,183.04216176875,183.3990162625,59.0,106.0
646,182.07442076875,183.8344997125,44.0,99.0
647,183.28409701875,183.84861260208334,51.0,98.0
648,183.52603226875,183.92724155833332,54.0,96.0
649,183.76796751875,183.93530606666667,59.0,92.0
650,184.00990276874998,184.30627345,54.0,98.0
651,184.00990276874998,184.37482177083334,59.0,98.0
652,184.49377326874998,184.5804667333333,63.0,87.0
653,184.25183801875,184.97764376875,51.0,90.0
654,184.73570851875,185.08449850416665,54.0,89.0
655,184.73570851875,185.11474041041666,63.0,99.0
656,184.73570851875,185.11877266458333,59.0,97.0
657,184.97764376875,185.30224022916667,51.0,108.0
658,185.21957901874998,185.46151426875,54.0,99.0
659,185.21957901874998,185.50990131875,59.0,92.0
660,185.46151426875,185.74578818749998,51.0,101.0
661,184.00990276874998,185.80425587291666,44.0,100.0
662,185.70344951874998,185.84659454166666,54.0,101.0
663,185.94538476875,186.64699699374998,57.0,90.0
664,185.94538476875,186.68328728125,54.0,90.0
665,186.42925526874998,186.96151281874998,49.0,97.0
666,186.91312576874998,187.12885136666665,54.0,103.0
667,186.91312576874998,187.21756095833334,61.0,101.0
668,187.39699626875,187.46151233541664,61.0,43.0
669,187.15506101875,187.6328831375,49.0,95.0
670,187.39699626875,187.70546371249998,54.0,103.0
671,185.94538476875,187.70949596666665,42.0,100.0
672,187.63893151874998,187.76796365208332,57.0,91.0
673,187.88086676875,188.10062462083332,54.0,100.0
674,187.88086676875,188.37481790416666,59.0,100.0
675,188.36473726875,188.51796292708332,54.0,90.0
676,187.88086676875,188.72360788958332,47.0,106.0
677,188.60667251875,188.93731736041664,54.0,104.0
678,188.60667251875,189.05828498541666,63.0,101.0
679,188.84860776874999,189.28207509166666,47.0,103.0
680,189.09054301875,189.3748169375,61.0,106.0
681,189.33247826874998,189.6893327625,59.0,94.0
682,189.81634876875,190.30223539583332,56.0,98.0
683,189.81634876875,190.33650955624998,59.0,102.0
684,190.54215451874998,190.66312214375,56.0,91.0
685,190.54215451874998,190.669170525,64.0,97.0
686,190.30021926875,190.86473485208333,47.0,82.0
687,190.78408976875,190.93328317291665,56.0,108.0
688,190.78408976875,191.08247657708333,64.0,104.0
689,191.26796026875,191.38489563958333,56.0,98.0
690,191.02602501874998,191.45949234166665,47.0,97.0
691,189.81634876875,191.56836320416664,40.0,98.0
692,191.50989551875,191.64699216041666,59.0,92.0
693,191.50989551875,191.65304054166666,56.0,92.0
694,191.75183076874998,192.11473364375,56.0,98.0
695,191.75183076874998,192.22562063333334,59.0,98.0
696,192.47763651875,192.60666865208333,62.0,89.0
697,192.47763651875,192.60868477916665,56.0,86.0
698,192.23570126874998,192.71957176875,47.0,98.0
699,192.71957176875,192.94134574791664,62.0,106.0
700,192.71957176875,193.03408759375,56.0,101.0
701,191.75183076874998,193.13489394791665,40.0,100.0
702,192.96150701874998,193.13892620208333,47.0,91.0
703,193.20344226875,193.35666792708332,59.0,98.0
704,193.68731276875,194.28610251249998,57.0,97.0
705,193.68731276875,194.39698950208333,61.0,97.0
706,194.17118326874999,194.7477956145833,52.0,81.0
707,194.65505376874998,194.92118254374998,57.0,100.0
708,194.65505376874998,194.97561797499998,61.0,98.0
709,194.65505376874998,194.97561797499998,64.0,92.0
710,193.68731276875,195.19537582708332,45.0,106.0
711,195.13892426875,195.21553709791667,57.0,85.0
712,194.89698901875,195.28610154583333,52.0,89.0
713,195.38085951875,195.51795616041665,61.0,95.0
714,195.38085951875,195.5199722875,57.0,97.0
715,195.62279476875,196.03610082083333,57.0,100.0
716,195.62279476875,196.20142324166665,61.0,98.0
717,195.62279476875,196.4352939833333,52.0,97.0
718,195.62279476875,196.48972941458334,45.0,101.0
719,196.34860051874998,196.60263253124998,57.0,101.0
720,196.34860051874998,196.9473902625,64.0,103.0
721,196.59053576875,197.02198696458333,52.0,101.0
722,196.83247101875,197.19739002083332,57.0,103.0
723,197.07440626874998,197.35464793333333,61.0,97.0
724,197.31634151875,197.52601873541667,64.0,92.0
725,197.55827676874998,198.02601825208333,54.0,102.0
726,197.55827676874998,198.2054535625,59.0,98.0
727,198.04214726875,198.35464696666665,51.0,103.0
728,198.28408251874998,198.5804532,54.0,113.0
729,197.55827676874998,198.74174336666667,44.0,100.0
730,198.52601776875,198.8828722625,51.0,97.0
731,198.76795301874998,199.02803341249998,54.0,108.0
732,198.76795301874998,199.13690427499998,59.0,104.0
733,199.00988826875,199.34658149166665,44.0,98.0
734,199.25182351875,199.378839525,54.0,98.0
735,199.49375876874998,199.72359725625,56.0,99.0
736,199.49375876874998,199.9473873625,61.0,103.0
737,199.49375876874998,200.10867752916667,49.0,103.0
738,199.97762926874998,200.30827411041665,56.0,98.0
739,200.46149976875,200.7457736875,56.0,104.0
740,200.46149976875,200.84658004166667,49.0,106.0
741,200.46149976875,200.91311223541666,65.0,98.0
742,200.46149976875,200.92319287083333,59.0,104.0
743,200.94537026875,201.06633789375,56.0,97.0
744,201.42924076875,201.69335341666667,54.0,97.0
745,201.42924076875,201.8344823125,61.0,98.0
746,201.42924076875,201.90101450625,57.0,95.0
747,201.67117601875,202.22561096666666,49.0,91.0
748,201.91311126875,202.4957719958333,54.0,94.0
749,202.15504651875,202.69536857708331,66.0,104.0
750,202.63891701875,202.70343308541666,54.0,82.0
751,202.39698176874998,202.74577175416667,49.0,91.0
752,202.63891701875,203.13891653541666,57.0,97.0
753,201.42924076875,203.20948098333332,42.0,99.0
754,203.12278751875,203.22964225416666,54.0,90.0
755,202.63891701875,203.27802930416667,61.0,100.0
756,203.36472276875,203.95141575,59.0,98.0
757,203.36472276875,203.95343187708332,54.0,99.0
758,204.09052851874998,204.42117336041665,54.0,102.0
759,204.09052851874998,204.51391520624998,63.0,102.0
760,204.57439901875,204.6550441020833,54.0,90.0
761,203.36472276875,204.67923762708332,47.0,103.0
762,204.57439901875,204.798189125,59.0,95.0
763,204.81633426874998,204.91310836875,54.0,86.0
764,205.30020476874998,205.53810776458332,57.0,94.0
765,205.30020476874998,205.54012389166667,61.0,98.0
766,205.30020476874998,205.5502045270833,64.0,98.0
767,205.30020476874998,205.56431741666665,45.0,108.0
768,206.02601051874998,206.24778449791665,56.0,103.0
769,206.02601051874998,206.25181675208333,68.0,99.0
770,206.02601051874998,206.35463923333333,44.0,100.0
771,206.50988101874998,206.64496153333332,45.0,102.0
772,206.50988101874998,206.67318731249998,57.0,100.0
773,206.50988101874998,206.70947759999999,69.0,99.0
774,206.99375151875,207.08246111041666,54.0,98.0
775,206.99375151875,207.08447723749998,47.0,101.0
776,206.99375151875,207.08447723749998,71.0,99.0
777,206.99375151875,207.10262238125,59.0,99.0
778,207.47762201875,207.55423484791666,63.0,98.0
779,207.47762201875,207.56834773749998,47.0,98.0
780,207.47762201875,207.57237999166665,71.0,94.0
781,207.47762201875,207.57439611875,54.0,97.0
782,207.47762201875,207.57439611875,59.0,91.0
783,207.47762201875,207.5804445,66.0,96.0
784,207.71955726874998,207.8122991145833,63.0,108.0
785,207.71955726874998,207.81834749583334,47.0,98.0
786,207.71955726874998,207.82237974999998,54.0,97.0
787,207.71955726874998,207.82842813124998,59.0,97.0
788,207.71955726874998,207.83649263958333,66.0,98.0
789,207.71955726874998,207.85665391041667,71.0,96.0
790,207.96149251875,208.19536326041666,54.0,103.0
791,207.96149251875,208.20544389583333,63.0,106.0
792,207.96149251875,208.21350840416665,47.0,108.0
793,207.96149251875,208.21350840416665,59.0,98.0
794,207.96149251875,208.2215729125,66.0,102.0
795,207.96149251875,208.2215729125,71.0,98.0
796,208.44536301875,208.56229838958333,47.0,99.0
797,208.44536301875,208.56431451666666,66.0,89.0
798,208.44536301875,208.56633064374998,63.0,93.0
799,208.44536301875,208.56834677083333,54.0,94.0
800,208.44536301875,208.58044353333332,59.0,88.0
801,208.68729826875,208.85463681666667,54.0,106.0
802,208.68729826875,208.93931415416665,66.0,106.0
803,208.68729826875,208.94334640833333,63.0,114.0
804,208.68729826875,208.94334640833333,71.0,103.0
805,208.68729826875,208.94536253541665,59.0,106.0
806,208.68729826875,208.99374958541665,47.0,106.0
807,209.17116876875,209.9231841708333,61.0,98.0
808,209.17116876875,209.94939382291665,57.0,97.0
809,209.65503926875,210.25786126666665,52.0,78.0
810,209.17116876875,210.3405224770833,45.0,108.0
811,210.13890976874998,210.4473772125,57.0,98.0
812,210.13890976874998,210.48568362708332,61.0,102.0
813,210.13890976874998,210.52197391458333,64.0,99.0
814,210.62278026874998,211.03810244791666,52.0,92.0
815,211.10665076875,211.64697282708332,57.0,88.0
816,211.10665076875,211.68729536875,61.0,101.0
817,211.83245651874998,211.96552090625,57.0,88.0
818,211.59052126875,212.14092396249998,52.0,91.0
819,211.10665076875,212.33043990833332,45.0,103.0
820,212.07439176875,212.33850441666667,57.0,97.0
821,212.07439176875,212.36874632291665,61.0,100.0
822,212.07439176875,212.42519788125,64.0,98.0
823,212.31632701875,212.50181071041666,52.0,99.0
824,212.55826226874998,212.89092323749998,57.0,97.0
825,212.80019751875,212.92116514375,61.0,87.0
826,213.04213276874998,213.52801939583333,54.0,104.0
827,213.04213276874998,213.75987401041667,59.0,106.0
828,213.76793851875,213.88890614374998,54.0,94.0
829,213.52600326874997,214.03809954791666,51.0,96.0
830,214.00987376875,214.27801867083332,54.0,108.0
831,214.00987376875,214.36672826249998,59.0,106.0
832,213.04213276874998,214.8022117125,44.0,99.0
833,214.25180901874998,214.8163246020833,51.0,98.0
834,214.49374426875,214.89495355833333,54.0,96.0
835,214.73567951874998,214.90301806666665,59.0,92.0
836,214.97761476875,215.27398545,54.0,98.0
837,214.97761476875,215.3425337708333,59.0,98.0
838,215.46148526874998,215.54817873333332,63.0,87.0
839,215.21955001875,215.94535576874998,51.0,90.0
840,215.70342051875,216.05221050416665,54.0,89.0
841,215.70342051875,216.08245241041666,63.0,99.0
842,215.70342051875,216.0864846645833,59.0,97.0
843,215.94535576874998,216.26995222916665,51.0,108.0
844,216.18729101875,216.42922626875,54.0,99.0
845,216.18729101875,216.47761331875,59.0,92.0
846,216.42922626875,216.7135001875,51.0,101.0
847,214.97761476875,216.77196787291666,44.0,100.0
848,216.67116151874998,216.81430654166667,54.0,101.0
849,216.91309676875,217.61470899374999,57.0,90.0
850,216.91309676875,217.65099928125,54.0,90.0
851,217.39696726875,217.92922481875,49.0,97.0
852,217.88083776874998,218.09656336666666,54.0,103.0
853,217.88083776874998,218.18527295833331,61.0,101.0
854,218.36470826874998,218.42922433541665,61.0,43.0
855,218.12277301875,218.6005951375,49.0,95.0
856,218.36470826874998,218.67317571249998,54.0,103.0
857,216.91309676875,218.67720796666666,42.0,100.0
858,218.60664351875,218.73567565208333,57.0,91.0
859,218.84857876875,219.06833662083332,54.0,100.0
860,218.84857876875,219.34252990416667,59.0,100.0
861,219.33244926875,219.48567492708332,54.0,90.0
862,218.84857876875,219.69131988958333,47.0,106.0
863,219.57438451874998,219.90502936041665,54.0,104.0
864,219.57438451874998,220.02599698541667,63.0,101.0
865,219.81631976875,220.24978709166666,47.0,103.0
866,220.05825501874997,220.3425289375,61.0,106.0
867,220.30019026875,220.6570447625,59.0,94.0
868,220.78406076874998,221.26994739583333,56.0,98.0
869,220.78406076874998,221.30422155624998,59.0,102.0
870,221.50986651875,221.63083414374998,56.0,91.0
871,221.50986651875,221.63688252499998,64.0,97.0
872,221.26793126874998,221.8324468520833,47.0,82.0
873,221.75180176875,221.90099517291665,56.0,108.0
874,221.75180176875,222.05018857708333,64.0,104.0
875,222.23567226875,222.3526076395833,56.0,98.0
876,221.99373701874998,222.42720434166665,47.0,97.0
877,220.78406076874998,222.53607520416665,40.0,98.0
878,222.47760751874998,222.61470416041666,59.0,92.0
879,222.47760751874998,222.62075254166666,56.0,92.0
880,222.71954276875,223.08244564375,56.0,98.0
881,222.71954276875,223.1933326333333,59.0,98.0
882,223.44534851875,223.57438065208333,62.0,89.0
883,223.44534851875,223.57639677916666,56.0,86.0
884,223.20341326874998,223.68728376874998,47.0,98.0
885,223.68728376874998,223.90905774791665,62.0,106.0
886,223.68728376874998,224.00179959374998,56.0,101.0
887,222.71954276875,224.10260594791666,40.0,100.0
888,223.92921901875,224.10663820208333,47.0,91.0
889,224.17115426875,224.32437992708333,59.0,98.0
890,224.65502476875,225.25381451249999,57.0,97.0
891,224.65502476875,225.36470150208334,61.0,97.0
892,225.13889526875,225.71550761458332,52.0,81.0
893,225.62276576874999,225.88889454374998,57.0,100.0
894,225.62276576874999,225.94332997499998,61.0,98.0
895,225.62276576874999,225.94332997499998,64.0,92.0
896,224.65502476875,226.16308782708333,45.0,106.0
897,226.10663626874998,226.18324909791664,57.0,85.0
898,225.86470101875,226.2538135458333,52.0,89.0
899,226.34857151875,226.48566816041665,61.0,95.0
900,226.34857151875,226.48768428749997,57.0,97.0
901,226.59050676874998,227.00381282083333,57.0,100.0
902,226.59050676874998,227.16913524166665,61.0,98.0
903,226.59050676874998,227.40300598333332,52.0,97.0
904,226.59050676874998,227.45744141458331,45.0,101.0
905,227.31631251874998,227.57034453125,57.0,101.0
906,227.31631251874998,227.9151022625,64.0,103.0
907,227.55824776875,227.9896989645833,52.0,101.0
908,227.80018301874998,228.16510202083333,57.0,103.0
909,228.04211826875,228.32235993333333,61.0,97.0
910,228.28405351875,228.49373073541665,64.0,92.0
911,228.52598876874998,228.9937302520833,54.0,102.0
912,228.52598876874998,229.17316556249997,59.0,98.0
913,229.00985926874998,229.32235896666666,51.0,103.0
914,229.25179451875,229.5481652,54.0,113.0
915,228.52598876874998,229.70945536666665,44.0,100.0
916,229.49372976875,229.85058426249998,51.0,97.0
917,229.73566501874998,229.99574541249999,54.0,108.0
918,229.73566501874998,230.10461627499998,59.0,104.0
919,229.97760026875,230.31429349166666,44.0,98.0
920,230.21953551874998,230.346551525,54.0,98.0
921,230.46147076875,230.69130925624998,56.0,99.0
922,230.46147076875,230.9150993625,61.0,103.0
923,230.46147076875,231.07638952916665,49.0,103.0
924,230.94534126874998,231.27598611041665,56.0,98.0
925,231.42921176874998,231.7134856875,56.0,104.0
926,231.42921176874998,231.81429204166665,49.0,106.0
927,231.42921176874998,231.88082423541667,65.0,98.0
928,231.42921176874998,231.8909048708333,59.0,104.0
929,231.91308226874997,232.03404989375,56.0,97.0
930,232.39695276875,232.66106541666664,54.0,97.0
931,232.39695276875,232.80219431249998,61.0,98.0
932,232.39695276875,232.86872650625,57.0,95.0
933,232.63888801874998,233.19332296666664,49.0,91.0
934,232.88082326875,233.46348399583331,54.0,94.0
935,233.12275851874998,233.66308057708332,66.0,104.0
936,233.60662901875,233.67114508541664,54.0,82.0
937,233.36469376875,233.71348375416665,49.0,91.0
938,233.60662901875,234.10662853541666,57.0,97.0
939,232.39695276875,234.17719298333333,42.0,99.0
940,234.09049951875,234.19735425416664,54.0,90.0
941,233.60662901875,234.24574130416664,61.0,100.0
942,234.33243476874998,236.93122257916664,54.0,55.0
943,234.33243476874998,236.99372251875,51.0,69.0
944,234.33243476874998,237.0017870270833,35.0,89.0
945,234.33243476874998,237.04815795,47.0,51.0
946,237.23565776874997,237.71146376041665,69.0,105.0
947,237.23565776874997,237.74977017499998,64.0,91.0
948,237.23565776874997,237.8969474520833,73.0,111.0
949,237.96146351874998,238.2175116583333,64.0,103.0
950,237.96146351874998,238.26791483541666,71.0,105.0
951,237.23565776874997,238.27396321666666,45.0,105.0
952,238.68726926875,238.76791435208332,68.0,102.0
953,239.17113976874998,240.89089617083332,45.0,95.0
954,239.17113976874998,240.96549287291666,64.0,95.0
955,239.17113976874998,240.98565414375,72.0,97.0
956,239.17113976874998,240.99573477916667,69.0,98.0
957,241.10662176875,241.21549263125,44.0,105.0
958,241.10662176875,241.35057314583332,54.0,89.0
959,241.10662176875,241.3546054,59.0,100.0
960,241.83242751875,242.31226576458332,63.0,105.0
961,241.83242751875,242.36266894166664,56.0,100.0
962,241.83242751875,242.5300074895833,71.0,103.0
963,241.83242751875,242.54412037916666,66.0,99.0
964,243.04210376875,243.55621617499997,59.0,106.0
965,243.04210376875,243.68323218125,65.0,99.0
966,243.04210376875,243.84049009375,49.0,109.0
967,244.00984476874999,244.40702180416665,56.0,101.0
968,244.00984476874999,244.45742498125,49.0,109.0
969,244.00984476874999,244.50379590416665,61.0,106.0
970,244.00984476874999,244.51992492083332,65.0,106.0
971,244.00984476874999,244.54008619166666,68.0,102.0
972,244.00984476874999,244.64492479999998,71.0,105.0
973,244.73565051875,244.95137611666667,54.0,94.0
974,244.97758576874998,245.13685980833333,57.0,91.0
975,244.97758576874998,245.41306921875,61.0,100.0
976,245.46145626875,245.50984331875,61.0,74.0
977,244.97758576874998,245.56629487708332,66.0,105.0
978,245.46145626875,245.77395596666665,54.0,116.0
979,244.97758576874998,245.83847203333332,42.0,106.0
980,245.21952101875,245.84653654166667,49.0,100.0
981,245.94532676875,246.2195200520833,54.0,107.0
982,245.94532676875,246.4715359375,59.0,104.0
983,245.94532676875,246.74371309375,44.0,107.0
984,246.18726201874998,246.78000338125,51.0,105.0
985,246.42919726875,246.82435817708333,54.0,106.0
986,246.67113251875,246.91508389583333,59.0,99.0
987,247.15500301875,247.70943796666666,52.0,96.0
988,247.39693826874998,247.72758311041665,57.0,107.0
989,246.91306776874998,248.18121170416666,45.0,107.0
990,247.88080876875,248.19734072083332,52.0,95.0
991,247.63887351875,248.22355037291666,64.0,106.0
992,248.12274401874998,248.22959875416666,57.0,90.0
993,248.12274401874998,248.30822771041665,61.0,102.0
994,248.84854976875,250.0662905270833,63.0,97.0
995,248.84854976875,250.08443567083333,66.0,102.0
996,248.84854976875,250.11669370416666,71.0,96.0
997,248.84854976875,250.15096786458332,59.0,96.0
998,248.84854976875,250.59653194999999,35.0,103.0
999,250.78403176875,251.8626597583333,35.0,99.0
1000,250.54209651875,252.55822360208333,83.0,98.0
1001,250.78403176875,252.65096544791666,71.0,98.0
1002,250.78403176875,252.72556214999997,75.0,106.0
1003,250.78403176875,252.73967503958332,78.0,103.0
1004,253.20338426875,253.29410998749998,54.0,96.0
1005,253.20338426875,253.34249703749998,52.0,93.0
1006,253.44531951874998,253.57838390625,56.0,92.0
1007,253.68725476875,253.79209337708332,64.0,92.0
1008,253.68725476875,253.89491585833332,59.0,97.0
1009,253.92919001874998,254.00378672083332,66.0,74.0
1010,254.17112526875,254.41709277291665,68.0,95.0
1011,254.41306051874997,254.6509635145833,71.0,91.0
1012,254.65499576874998,254.79612466458332,76.0,94.0
1013,254.89693101875,254.99370511875,78.0,90.0
1014,255.13886626874998,255.25983389375,80.0,86.0
1015,255.62273676874997,255.74168826666664,83.0,89.0
1016,256.10660726875,256.19330073333333,83.0,51.0
1017,256.10660726875,256.2134620041667,80.0,48.0
1018,256.10660726875,256.2295910208333,92.0,84.0
1019,252.96144901875,256.9251548645833,47.0,86.0
1020,252.71951376874998,256.9433000083333,40.0,92.0
