,start,end,pitch,velocity
0,29.67615235,29.989676125,75.0,88.0
1,30.16795435,30.521437037499997,75.0,88.0
2,30.65975635,31.431270737499997,75.0,83.0
3,31.64336035,31.8523762,75.0,93.0
4,31.889261349999998,32.0255314875,73.0,78.0
5,32.135162349999995,32.3185635125,73.0,79.0
6,32.38106335,33.199708762499995,70.0,81.0
7,33.61056835,33.7161008625,70.0,83.0
8,33.85646935,33.9865919625,70.0,79.0
9,34.10237035,34.2130258,70.0,82.0
10,34.34827135,34.747860474999996,70.0,84.0
11,34.84007335,34.95482715,70.0,78.0
12,35.08597435,35.2222444875,70.0,79.0
13,35.33187535,35.4753176,73.0,80.0
14,35.57777635,36.186381325,73.0,79.0
15,36.31547935,37.33187015,68.0,81.0
16,37.54498435,37.888221162499995,75.0,88.0
17,38.03678635,38.406662437499996,75.0,88.0
18,38.52858835,39.124898275,75.0,93.0
19,39.266291349999996,39.411782775,73.0,82.0
20,39.51219235,39.6638313,75.0,91.0
21,39.758093349999996,40.191493862499996,73.0,88.0
22,40.249895349999996,41.198663374999995,70.0,83.0
23,41.47940035,41.6074737875,70.0,81.0
24,41.725301349999995,41.8677190125,70.0,82.0
25,41.97120235,42.1136200125,70.0,79.0
26,42.217103349999995,42.380012762499994,70.0,81.0
27,42.46300435,42.7918969375,70.0,82.0
28,42.95480635,43.092101074999995,70.0,84.0
29,43.200707349999995,43.3523463,73.0,81.0
30,43.44660835,44.091073887499995,78.0,93.0
31,44.184311349999994,45.1218089125,77.0,81.0
32,45.41381635,45.659717349999994,78.0,88.0
33,45.659717349999994,45.90561835,75.0,88.0
34,46.151519349999994,46.88922235,75.0,83.0
35,47.13512334999999,47.2713934875,73.0,78.0
36,47.38102435,47.5900402,75.0,93.0
37,47.62692534999999,48.11872735,73.0,79.0
38,48.11872735,48.9373727625,70.0,81.0
39,49.348232349999996,49.453764862499995,70.0,83.0
40,49.59413335,49.724255962499996,70.0,79.0
41,49.840034349999996,49.9506898,70.0,82.0
42,50.08593535,50.331836349999996,70.0,84.0
43,50.331836349999996,50.57773735,70.0,78.0
44,50.823638349999996,50.959908487499995,70.0,79.0
45,51.06953935,51.2129816,73.0,80.0
46,51.315440349999996,51.924045324999994,73.0,79.0
47,52.05314335,53.069534149999996,68.0,81.0
48,53.282648349999995,53.6258851625,75.0,88.0
49,53.774450349999995,54.1443264375,75.0,88.0
50,54.266252349999995,54.862562274999995,75.0,93.0
51,55.249856349999995,55.40149529999999,75.0,91.0
52,55.49575735,55.9291578625,78.0,88.0
53,55.98755935,56.936327375,75.0,83.0
54,57.217064349999994,57.34513778749999,73.0,81.0
55,57.46296535,57.6053830125,73.0,82.0
56,57.708866349999994,57.851284012499995,73.0,79.0
57,57.95476735,58.1176767625,73.0,81.0
58,58.200668349999994,58.529560937499994,73.0,82.0
59,58.692470349999994,58.829765075,73.0,84.0
60,59.18427234999999,59.3359113,73.0,81.0
61,59.43017335,59.92197535,78.0,93.0
62,59.92197535,60.859472912499996,77.0,81.0
63,61.64328234999999,61.827708099999995,68.0,78.0
64,61.889183349999996,62.051068175,68.0,78.0
65,62.13508434999999,62.5111079625,72.0,83.0
66,62.62688635,62.768279424999996,72.0,78.0
67,62.872787349999996,63.05618851249999,72.0,83.0
68,63.11868835,63.499834899999996,75.0,86.0
69,63.61049035,63.731391675,75.0,88.0
70,63.856391349999996,64.0274974625,75.0,91.0
71,64.10229235,64.4885618375,78.0,80.0
72,64.59409434999999,64.7303644875,75.0,93.0
73,64.83999535,65.5131493375,78.0,81.0
74,65.57769834999999,65.95679572499999,75.0,94.0
75,66.06950035,66.62277759999999,78.0,79.0
76,66.56130234999999,66.7488018625,75.0,93.0
77,66.80720335,67.15966145,80.0,81.0
78,67.29900535,67.473185225,80.0,83.0
79,67.54490634999999,67.7139632875,78.0,83.0
80,67.79080735,67.9885527375,77.0,84.0
81,68.03670835,69.0746154875,75.0,88.0
82,69.538753625,69.6401877875,68.0,78.0
83,69.75801535,69.93731816249999,68.0,79.0
84,70.00391635,70.366620325,72.0,79.0
85,70.49571834999999,70.62789013749999,72.0,82.0
86,70.74161935,70.8942828875,72.0,84.0
87,70.98752035,71.31743752499999,75.0,91.0
88,71.47932234999999,71.608420375,75.0,88.0
89,71.72522335,71.87378853749999,75.0,93.0
90,71.97112435,72.378910175,78.0,86.0
91,72.46292634999999,72.6053440125,75.0,98.0
92,72.70882734999999,73.32255526249999,78.0,82.0
93,73.44653034999999,73.81845561249999,75.0,98.0
94,73.93833235,74.11968433749999,78.0,82.0
95,74.18423335,74.34509358749999,80.0,79.0
96,74.43013434999999,74.59099458749999,78.0,86.0
97,74.67603534999999,76.63607123749999,82.0,82.0
98,76.9209065625,77.350208725,78.0,79.0
99,77.38094635,77.7528716125,75.0,88.0
100,77.87274835,78.4342223,78.0,82.0
101,78.61045134999999,78.7620903,75.0,86.0
102,78.85635235,79.096105825,78.0,88.0
103,79.10225335,79.2036875125,75.0,83.0
104,79.34815435,79.4905720125,75.0,82.0
105,79.59405534999999,80.11966873749999,75.0,93.0
106,80.08585735,80.11966873749999,75.0,113.0
107,80.33175835,80.436266275,75.0,93.0
108,80.57765934999999,80.7036836125,75.0,93.0
109,80.82356035,81.22110029999999,82.0,86.0
110,81.31536235,81.4424112,80.0,83.0
111,81.56126334999999,82.0684341625,78.0,86.0
112,82.79076835,83.15654608749999,80.0,82.0
113,83.28257035,83.4290863625,78.0,79.0
114,83.52847134999999,84.58789482499999,77.0,88.0
115,84.75797634999999,85.19445062499999,78.0,83.0
116,85.24977835,85.6309249,75.0,91.0
117,85.74158034999999,86.1801038,78.0,81.0
118,86.23338235,86.3430132125,75.0,86.0
119,86.47928334999999,86.6073567875,75.0,88.0
120,86.72518434999999,86.9413723125,78.0,82.0
121,86.97108535,87.0766178625,75.0,93.0
122,87.21698635,87.32354344999999,75.0,86.0
123,87.46288734999999,87.70878834999999,75.0,94.0
124,87.95468935,88.08071361249999,75.0,93.0
125,88.20059035,88.32149167499999,75.0,91.0
126,88.44649134999999,88.571491025,75.0,94.0
127,88.69239234999999,89.34300541249999,82.0,84.0
128,89.43009534999999,90.245667,78.0,84.0
129,90.65960034999999,91.2815249625,80.0,86.0
130,91.39730334999999,91.989514925,77.0,83.0
131,92.65857056249999,93.087872725,78.0,79.0
132,93.11861035,93.4905356125,75.0,88.0
133,93.61041234999999,94.1718863,78.0,82.0
134,94.34811535,94.49975429999999,75.0,86.0
135,94.59401634999999,94.83376982499999,78.0,88.0
136,94.83991735,94.94135151249999,75.0,83.0
137,95.08581835,95.22823601249999,75.0,82.0
138,95.33171935,95.85733273749999,75.0,93.0
139,95.82352135,95.85733273749999,75.0,113.0
140,96.06942235,96.17393027499999,75.0,93.0
141,96.31532335,96.4413476125,75.0,93.0
142,96.56122434999999,96.9587643,82.0,86.0
143,97.05302635,97.18007519999999,80.0,83.0
144,97.29892735,97.80609816249999,78.0,86.0
145,98.52843234999999,98.8942100875,80.0,82.0
146,99.02023435,99.1667503625,78.0,79.0
147,99.26613535,100.32555882499999,77.0,88.0
148,100.49564034999999,100.932114625,78.0,83.0
149,100.98744235,101.36858889999999,75.0,91.0
150,101.47924434999999,101.9177678,78.0,81.0
151,101.97104635,102.08067721249999,75.0,86.0
152,102.21694735,102.34502078749999,75.0,88.0
153,102.46284834999999,102.67903631249999,78.0,82.0
154,102.70874934999999,102.8142818625,75.0,93.0
155,102.95465035,103.06120745,75.0,86.0
156,103.20055135,103.44645234999999,75.0,94.0
157,103.69235334999999,103.81837761249999,75.0,93.0
158,103.93825435,104.059155675,75.0,91.0
159,104.18415535,104.309155025,75.0,94.0
160,104.43005634999999,105.08066941249999,82.0,84.0
161,105.16775935,105.98333099999999,78.0,84.0
162,106.39726434999999,107.0191889625,80.0,86.0
163,107.13496735,107.72717892499999,77.0,83.0
164,108.38086575,109.94131251249999,78.0,97.0
165,126.06934435,126.31524535,78.0,88.0
166,126.31524535,126.56114634999999,75.0,88.0
167,126.80704734999999,127.54475034999999,75.0,83.0
168,127.79065134999999,127.9269214875,73.0,78.0
169,128.03655235,128.24556819999998,75.0,93.0
170,128.28245335,128.77425535,73.0,79.0
171,128.77425535,129.5929007625,70.0,81.0
172,130.00376035,130.10929286249998,70.0,83.0
173,130.24966135,130.3797839625,70.0,79.0
174,130.49556235,130.6062178,70.0,82.0
175,130.74146335,130.98736434999998,70.0,84.0
176,130.98736434999998,131.23326534999998,70.0,78.0
177,131.47916634999999,131.6154364875,70.0,79.0
178,131.72506735,131.86850959999998,73.0,80.0
179,131.97096835,132.57957332499998,73.0,79.0
180,132.70867135,133.72506214999999,68.0,81.0
181,133.93817635,134.2814131625,75.0,88.0
182,134.42997835,134.7998544375,75.0,88.0
183,134.92178034999998,135.518090275,75.0,93.0
184,135.90538435,136.0570233,75.0,91.0
185,136.15128535,136.58468586249998,78.0,88.0
186,136.64308735,137.591855375,75.0,83.0
187,137.87259235,138.0006657875,73.0,81.0
188,138.11849335,138.2609110125,73.0,82.0
189,138.36439435,138.50681201249998,73.0,79.0
190,138.61029535,138.7732047625,73.0,81.0
191,138.85619635,139.18508893749998,73.0,82.0
192,139.34799834999998,139.485293075,73.0,84.0
193,139.83980035,139.9914393,73.0,81.0
194,140.08570135,140.57750335,78.0,93.0
195,140.57750335,141.5150009125,77.0,81.0
196,142.29881035,142.4832361,68.0,78.0
197,142.54471135,142.706596175,68.0,78.0
198,142.79061235,143.16663596249998,72.0,83.0
199,143.28241434999998,143.42380742499998,72.0,78.0
200,143.52831534999999,143.7117165125,72.0,83.0
201,143.77421635,144.1553629,75.0,86.0
202,144.26601835,144.386919675,75.0,88.0
203,144.51191935,144.68302546249998,75.0,91.0
204,144.75782035,145.1440898375,78.0,80.0
205,145.24962234999998,145.3858924875,75.0,93.0
206,145.49552334999998,146.1686773375,78.0,81.0
207,146.23322635,146.61232372499998,75.0,94.0
208,146.72502835,147.27830559999998,78.0,79.0
209,147.21683034999998,147.4043298625,75.0,93.0
210,147.46273134999998,147.81518945,80.0,81.0
211,147.95453335,148.12871322499998,80.0,83.0
212,148.20043435,148.36949128749998,78.0,83.0
213,148.44633535,148.6440807375,77.0,84.0
214,148.69223635,149.7301434875,75.0,88.0
215,150.194281625,150.2957157875,68.0,78.0
216,150.41354335,150.5928461625,68.0,79.0
217,150.65944435,151.022148325,72.0,79.0
218,151.15124634999998,151.28341813749998,72.0,82.0
219,151.39714734999998,151.5498108875,72.0,84.0
220,151.64304835,151.97296552499998,75.0,91.0
221,152.13485035,152.26394837499998,75.0,88.0
222,152.38075135,152.5293165375,75.0,93.0
223,152.62665235,153.034438175,78.0,86.0
224,153.11845434999998,153.2608720125,75.0,98.0
225,153.36435534999998,153.97808326249998,78.0,82.0
226,154.10205835,154.47398361249998,75.0,98.0
227,154.59386035,154.7752123375,78.0,82.0
228,154.83976135,155.00062158749998,80.0,79.0
229,155.08566234999998,155.24652258749998,78.0,86.0
230,155.33156334999998,157.29159923749998,82.0,82.0
231,157.5764345625,158.005736725,78.0,79.0
232,158.03647435,158.40839961249998,75.0,88.0
233,158.52827635,159.0897503,78.0,82.0
234,159.26597934999998,159.4176183,75.0,86.0
235,159.51188034999998,159.751633825,78.0,88.0
236,159.75778135,159.8592155125,75.0,83.0
237,160.00368235,160.1461000125,75.0,82.0
238,160.24958335,160.77519673749998,75.0,93.0
239,160.74138535,160.77519673749998,75.0,113.0
240,160.98728634999998,161.09179427499998,75.0,93.0
241,161.23318734999998,161.3592116125,75.0,93.0
242,161.47908834999998,161.8766283,82.0,86.0
243,161.97089035,162.09793919999998,80.0,83.0
244,162.21679135,162.7239621625,78.0,86.0
245,163.44629634999998,163.81207408749998,80.0,82.0
246,163.93809835,164.0846143625,78.0,79.0
247,164.18399935,165.24342282499998,77.0,88.0
248,165.41350434999998,165.84997862499998,78.0,83.0
249,165.90530635,166.2864529,75.0,91.0
250,166.39710835,166.8356318,78.0,81.0
251,166.88891035,166.9985412125,75.0,86.0
252,167.13481134999998,167.26288478749998,75.0,88.0
253,167.38071234999998,167.5969003125,78.0,82.0
254,167.62661334999999,167.73214586249998,75.0,93.0
255,167.87251435,167.97907145,75.0,86.0
256,168.11841535,168.36431635,75.0,94.0
257,168.61021735,168.73624161249998,75.0,93.0
258,168.85611835,168.97701967499998,75.0,91.0
259,169.10201934999998,169.22701902499998,75.0,94.0
260,169.34792034999998,169.9985334125,82.0,84.0
261,170.08562335,170.901195,78.0,84.0
262,171.31512834999998,171.9370529625,80.0,86.0
263,172.05283135,172.64504292499998,77.0,83.0
264,173.3140985625,173.743400725,78.0,79.0
265,173.77413835,174.1460636125,75.0,88.0
266,174.26594035,174.8274143,78.0,82.0
267,175.00364334999998,175.15528229999998,75.0,86.0
268,175.24954434999998,175.489297825,78.0,88.0
269,175.49544534999998,175.59687951249998,75.0,83.0
270,175.74134635,175.8837640125,75.0,82.0
271,175.98724735,176.51286073749998,75.0,93.0
272,176.47904935,176.51286073749998,75.0,113.0
273,176.72495035,176.82945827499998,75.0,93.0
274,176.97085134999998,177.09687561249999,75.0,93.0
275,177.21675234999998,177.6142923,82.0,86.0
276,177.70855434999999,177.83560319999998,80.0,83.0
277,177.95445535,178.46162616249998,78.0,86.0
278,179.18396034999998,179.54973808749997,80.0,82.0
279,179.67576234999999,179.8222783625,78.0,79.0
280,179.92166335,180.98108682499998,77.0,88.0
281,181.15116834999998,181.587642625,78.0,83.0
282,181.64297034999998,182.0241169,75.0,91.0
283,182.13477235,182.57329579999998,78.0,81.0
284,182.62657435,182.73620521249998,75.0,86.0
285,182.87247535,183.00054878749998,75.0,88.0
286,183.11837634999998,183.3345643125,78.0,82.0
287,183.36427734999998,183.4698098625,75.0,93.0
288,183.61017834999998,183.71673545,75.0,86.0
289,183.85607935,184.10198035,75.0,94.0
290,184.34788135,184.47390561249998,75.0,93.0
291,184.59378235,184.71468367499997,75.0,91.0
292,184.83968335,184.964683025,75.0,94.0
293,185.08558434999998,185.7361974125,82.0,84.0
294,185.82328735,186.638859,78.0,84.0
295,187.05279234999998,187.67471696249999,80.0,86.0
296,187.79049535,189.02000034999998,77.0,83.0
297,189.02000034999998,190.49540635,78.0,83.0
