,start,end,pitch,velocity
0,2.1352403499999997,2.7264273374999997,63.0,78.0
1,2.1352403499999997,2.7325748625,58.0,75.0
2,3.11884435,3.19261465,63.0,79.0
3,3.11884435,3.1997867624999996,66.0,86.0
4,4.3483493499999994,4.480521137499999,58.0,54.0
5,4.594250349999999,4.6628977124999995,63.0,67.0
6,4.840151349999999,5.014331224999999,63.0,86.0
7,4.840151349999999,5.024577099999999,58.0,78.0
8,5.33195335,5.4774447749999995,63.0,78.0
9,5.33195335,5.479493949999999,58.0,78.0
10,5.33195335,5.481543125,66.0,79.0
11,2.1352403499999997,5.66801805,39.0,83.0
12,6.06965635,6.5174010875,58.0,77.0
13,6.06965635,6.520474849999999,63.0,77.0
14,7.0532603499999995,7.129079825,63.0,81.0
15,7.0532603499999995,7.1301044125,66.0,79.0
16,7.0532603499999995,7.131129,58.0,77.0
17,6.06965635,7.187481312499999,39.0,83.0
18,7.790963349999999,7.866782825,63.0,77.0
19,7.790963349999999,7.871905762499999,58.0,71.0
20,8.28276535,8.379076575,63.0,77.0
21,8.28276535,8.3903470375,58.0,73.0
22,9.26636935,9.3678035125,63.0,75.0
23,9.26636935,9.4425984,58.0,78.0
24,9.51227035,9.591163587499999,58.0,57.0
25,9.51227035,9.6567371875,63.0,83.0
26,10.00407235,10.1721047,51.0,72.0
27,10.00407235,10.1977193875,63.0,73.0
28,10.00407235,10.1997685625,58.0,71.0
29,10.00407235,10.202842324999999,39.0,72.0
30,10.24997335,10.4354236875,39.0,76.0
31,10.24997335,10.4415712125,51.0,69.0
32,10.24997335,10.506120225,63.0,79.0
33,10.24997335,10.518415274999999,58.0,78.0
34,10.98767635,11.151610349999999,63.0,79.0
35,10.98767635,11.1546841125,39.0,80.0
36,10.98767635,11.1557087,58.0,77.0
37,10.98767635,11.170052924999998,51.0,77.0
38,11.23357735,11.3841917125,39.0,78.0
39,11.23357735,11.3903392375,51.0,75.0
40,11.23357735,11.414929337499998,58.0,78.0
41,11.23357735,11.42210145,63.0,81.0
42,11.971280349999999,12.255091087499999,63.0,81.0
43,11.971280349999999,12.2591894375,58.0,79.0
44,11.971280349999999,12.303246699999999,39.0,79.0
45,11.971280349999999,12.3145171625,51.0,77.0
46,13.938488349999998,14.093201062499999,58.0,78.0
47,13.938488349999998,14.234594137499998,66.0,79.0
48,14.184389349999998,14.33192995,58.0,70.0
49,13.938488349999998,14.6403307875,51.0,82.0
50,14.67619135,14.846272874999999,58.0,78.0
51,14.67619135,14.881108849999999,66.0,83.0
52,15.16799335,15.268402924999998,58.0,77.0
53,15.41389435,15.490738412499999,58.0,78.0
54,15.41389435,15.549139899999998,51.0,83.0
55,15.41389435,15.592172575,63.0,83.0
56,15.41389435,15.7294673,66.0,80.0
57,15.65979535,15.778647499999998,58.0,72.0
58,15.90569635,16.0931958625,58.0,73.0
59,15.90569635,16.3780311875,66.0,78.0
60,15.90569635,16.407744225,61.0,79.0
61,16.39749835,16.496883337499998,58.0,70.0
62,15.90569635,16.51225215,42.0,78.0
63,16.64339935,16.801185824999997,58.0,79.0
64,16.64339935,16.9835624,61.0,84.0
65,16.64339935,17.0542589375,66.0,77.0
66,16.64339935,17.19257825,42.0,77.0
67,17.13520135,17.2304879875,58.0,62.0
68,17.38110235,17.477413575,61.0,80.0
69,17.38110235,17.4948315625,58.0,78.0
70,17.38110235,17.5112249625,42.0,78.0
71,17.38110235,17.5378642375,66.0,77.0
72,17.87290435,18.071674325,56.0,78.0
73,17.87290435,18.3698292875,63.0,76.0
74,18.36470635,18.4907306125,56.0,73.0
75,18.61060735,18.7919593375,56.0,81.0
76,18.61060735,18.914909837499998,68.0,77.0
77,18.61060735,19.1710567125,63.0,81.0
78,19.10240935,19.228433612499998,56.0,72.0
79,17.87290435,19.4169577125,44.0,78.0
80,19.34831035,19.47126085,63.0,81.0
81,19.34831035,19.51224435,68.0,76.0
82,19.34831035,19.5409328,56.0,83.0
83,19.84011235,19.9866283625,47.0,80.0
84,19.84011235,20.0501527875,59.0,78.0
85,19.84011235,20.080890412499997,63.0,81.0
86,20.577815349999998,20.772486975,70.0,78.0
87,20.577815349999998,20.8114213,46.0,82.0
88,20.577815349999998,20.8185934125,58.0,81.0
89,21.069617349999998,21.587034037499997,54.0,81.0
90,21.069617349999998,21.6341650625,66.0,79.0
91,21.069617349999998,21.6751485625,42.0,82.0
92,21.807320349999998,22.3524009,58.0,78.0
93,21.807320349999998,22.388261462499997,63.0,74.0
94,21.807320349999998,22.4087532125,51.0,79.0
95,22.545023349999997,22.7550637875,58.0,79.0
96,22.545023349999997,22.918997787499997,63.0,82.0
97,23.036825349999997,23.1321119875,58.0,71.0
98,22.545023349999997,23.1556775,51.0,91.0
99,23.282726349999997,23.406701437499997,51.0,84.0
100,23.282726349999997,23.4107997875,58.0,79.0
101,23.282726349999997,23.4128489625,63.0,83.0
102,23.774528349999997,24.247887775,66.0,77.0
103,23.774528349999997,24.295018799999998,61.0,80.0
104,23.774528349999997,24.3001417375,58.0,75.0
105,23.774528349999997,24.3933792,42.0,79.0
106,24.512231349999997,24.7079275625,58.0,78.0
107,24.512231349999997,24.847271462499997,66.0,79.0
108,24.512231349999997,24.8595665125,61.0,82.0
109,24.512231349999997,25.098295399999998,42.0,78.0
110,25.004033349999997,25.1095658625,58.0,66.0
111,25.249934349999997,25.346245574999998,61.0,81.0
112,25.249934349999997,25.3493193375,58.0,77.0
113,25.249934349999997,25.392352012499998,42.0,76.0
114,25.249934349999997,25.592146574999997,66.0,76.0
115,25.49583535,25.600343274999997,58.0,70.0
116,25.74173635,26.077801049999998,63.0,77.0
117,25.74173635,26.1956286125,56.0,81.0
118,25.74173635,26.306284062499998,44.0,78.0
119,26.47943935,26.6730863875,56.0,77.0
120,26.47943935,26.837020387499997,60.0,79.0
121,26.47943935,26.881077649999998,63.0,79.0
122,26.97124135,27.07779845,56.0,66.0
123,26.47943935,27.1034131375,44.0,78.0
124,27.21714235,27.2816913625,56.0,70.0
125,27.21714235,27.3144781625,60.0,80.0
126,27.21714235,27.317551924999997,63.0,79.0
127,27.21714235,27.340092849999998,44.0,79.0
128,27.21714235,27.362633775,68.0,77.0
129,27.70894435,27.960992875,59.0,79.0
130,27.70894435,27.962017462499997,47.0,86.0
131,27.70894435,27.992755087499997,71.0,73.0
132,28.44664735,28.59418795,46.0,78.0
133,28.44664735,28.6228764,70.0,78.0
134,28.44664735,28.662835312499997,58.0,78.0
135,28.93844935,29.034760574999996,66.0,74.0
136,28.93844935,29.038858925,54.0,71.0
137,28.93844935,29.043981862499997,42.0,78.0
138,29.18435035,29.6392672,54.0,73.0
139,29.18435035,29.655660599999997,66.0,78.0
140,29.18435035,29.657709774999997,42.0,78.0
141,29.67615235,29.780660275,58.0,77.0
142,29.67615235,29.91385665,63.0,78.0
143,29.92205335,30.049102199999997,58.0,76.0
144,29.67615235,30.180249399999997,51.0,80.0
145,30.16795435,30.2796343875,58.0,78.0
146,30.16795435,30.302175312499998,63.0,82.0
147,30.16795435,30.309347425,66.0,69.0
148,30.41385535,30.620822025,58.0,76.0
149,30.41385535,30.667953049999998,63.0,78.0
150,30.41385535,30.674100574999997,66.0,76.0
151,30.41385535,30.79090355,51.0,86.0
152,30.90565735,31.005042337499997,58.0,77.0
153,31.15155835,31.2345499375,58.0,74.0
154,31.15155835,31.2406974625,51.0,83.0
155,31.15155835,31.2673367375,63.0,84.0
156,31.15155835,31.455860837499998,66.0,77.0
157,31.39745935,31.501967275,58.0,78.0
158,31.64336035,31.766310849999996,59.0,75.0
159,31.64336035,31.9620070625,63.0,64.0
160,31.889261349999998,31.9835234,59.0,68.0
161,31.64336035,32.02860525,47.0,83.0
162,32.135162349999995,32.2038097125,59.0,63.0
163,32.135162349999995,32.224301462499994,63.0,72.0
164,32.38106335,32.467128699999996,59.0,78.0
165,32.38106335,32.485571275,47.0,81.0
166,32.38106335,32.4927433875,63.0,78.0
167,32.38106335,32.5009400875,66.0,73.0
168,32.87286535,32.9681519875,59.0,70.0
169,33.11876635,33.2140529875,59.0,79.0
170,33.11876635,33.226348037499996,47.0,84.0
171,33.11876635,33.2294218,63.0,78.0
172,33.11876635,33.3226592625,66.0,74.0
173,33.61056835,33.7406909625,58.0,71.0
174,33.61056835,33.842125124999995,66.0,75.0
175,33.61056835,33.8431497125,61.0,77.0
176,33.85646935,33.962001862499996,58.0,68.0
177,34.10237035,34.171017712499996,66.0,69.0
178,34.10237035,34.1720423,61.0,67.0
179,33.61056835,34.178189825,42.0,78.0
180,34.34827135,34.444582575,58.0,77.0
181,34.34827135,34.460975975,61.0,82.0
182,34.34827135,34.489664425,42.0,76.0
183,34.34827135,34.4947873625,66.0,77.0
184,34.84007335,34.9312616375,58.0,72.0
185,35.08597435,35.1689659375,58.0,77.0
186,35.08597435,35.2058510875,61.0,88.0
187,35.08597435,35.208924849999995,42.0,76.0
188,35.08597435,35.2529821125,66.0,77.0
189,35.33187535,35.429211162499996,58.0,78.0
190,35.57777635,35.682284275,56.0,77.0
191,35.57777635,35.8021610125,49.0,84.0
192,35.57777635,35.805234774999995,61.0,78.0
193,35.57777635,35.831874049999996,65.0,80.0
194,35.82367735,35.925111512499996,56.0,75.0
195,36.06957835,36.1443732375,61.0,66.0
196,36.31547935,36.4189626875,56.0,79.0
197,36.31547935,36.4230610375,49.0,83.0
198,36.31547935,36.456872425,61.0,83.0
199,36.31547935,36.473265825,65.0,83.0
200,36.80728135,36.907690925,56.0,77.0
201,37.05318235,37.095190437499994,56.0,67.0
202,37.05318235,37.369779887499995,65.0,82.0
203,37.05318235,37.370804475,61.0,83.0
204,37.05318235,37.396419162499996,49.0,86.0
205,37.29908335,37.3984683375,56.0,81.0
206,37.54498435,37.649492275,58.0,77.0
207,37.54498435,37.78268865,63.0,78.0
208,37.790885349999996,37.9179342,58.0,76.0
209,37.54498435,38.0490814,51.0,80.0
210,38.03678635,38.1484663875,58.0,78.0
211,38.03678635,38.171007312499995,63.0,82.0
212,38.03678635,38.178179424999996,66.0,69.0
213,38.282687349999996,38.489654025,58.0,76.0
214,38.282687349999996,38.53678505,63.0,78.0
215,38.282687349999996,38.542932574999995,66.0,76.0
216,38.282687349999996,38.65973555,51.0,86.0
217,38.774489349999996,38.8738743375,58.0,77.0
218,39.02039035,39.1033819375,58.0,74.0
219,39.02039035,39.1095294625,51.0,83.0
220,39.02039035,39.1361687375,63.0,84.0
221,39.02039035,39.324692837499995,66.0,77.0
222,39.266291349999996,39.370799274999996,58.0,78.0
223,39.51219235,39.635142849999994,59.0,75.0
224,39.51219235,39.8308390625,63.0,64.0
225,39.758093349999996,39.8523554,59.0,68.0
226,39.51219235,39.897437249999996,47.0,83.0
227,40.00399435,40.072641712499994,59.0,63.0
228,40.00399435,40.0931334625,63.0,72.0
229,40.249895349999996,40.335960699999994,59.0,78.0
230,40.249895349999996,40.354403274999996,47.0,81.0
231,40.249895349999996,40.3615753875,63.0,78.0
232,40.249895349999996,40.369772087499996,66.0,73.0
233,40.741697349999995,40.8369839875,59.0,70.0
234,40.98759835,41.082884987499995,59.0,79.0
235,40.98759835,41.0951800375,47.0,84.0
236,40.98759835,41.098253799999995,63.0,78.0
237,40.98759835,41.191491262499994,66.0,74.0
238,41.47940035,41.609522962499994,58.0,71.0
239,41.47940035,41.710957125,66.0,75.0
240,41.47940035,41.7119817125,61.0,77.0
241,41.725301349999995,41.8308338625,58.0,68.0
242,41.97120235,42.0398497125,66.0,69.0
243,41.97120235,42.0408743,61.0,67.0
244,41.47940035,42.047021824999995,42.0,78.0
245,42.217103349999995,42.313414574999996,58.0,77.0
246,42.217103349999995,42.329807974999994,61.0,82.0
247,42.217103349999995,42.358496425,42.0,76.0
248,42.217103349999995,42.363619362499996,66.0,77.0
249,42.708905349999995,42.8000936375,58.0,72.0
250,42.95480635,43.037797937499995,58.0,77.0
251,42.95480635,43.0746830875,61.0,88.0
252,42.95480635,43.07775685,42.0,76.0
253,42.95480635,43.1218141125,66.0,77.0
254,43.200707349999995,43.298043162499994,58.0,78.0
255,43.44660835,43.551116275,56.0,77.0
256,43.44660835,43.6709930125,49.0,84.0
257,43.44660835,43.674066775,61.0,78.0
258,43.44660835,43.700706049999994,65.0,80.0
259,43.692509349999995,43.7939435125,56.0,75.0
260,43.93841035,44.013205237499996,61.0,66.0
261,44.184311349999994,44.287794687499996,56.0,79.0
262,44.184311349999994,44.291893037499996,49.0,83.0
263,44.184311349999994,44.325704425,61.0,83.0
264,44.184311349999994,44.342097824999996,65.0,83.0
265,44.676113349999994,44.776522924999995,56.0,77.0
266,44.92201435,44.9640224375,56.0,67.0
267,44.92201435,45.2386118875,65.0,82.0
268,44.92201435,45.239636475,61.0,83.0
269,44.92201435,45.2652511625,49.0,86.0
270,45.167915349999994,45.2673003375,56.0,81.0
271,45.41381635,45.518324275,58.0,77.0
272,45.41381635,45.651520649999995,63.0,78.0
273,45.659717349999994,45.786766199999995,58.0,76.0
274,45.41381635,45.917913399999996,51.0,80.0
275,45.90561835,46.0172983875,58.0,78.0
276,45.90561835,46.0398393125,63.0,82.0
277,45.90561835,46.047011424999994,66.0,69.0
278,46.151519349999994,46.358486025,58.0,76.0
279,46.151519349999994,46.40561705,63.0,78.0
280,46.151519349999994,46.411764575,66.0,76.0
281,46.151519349999994,46.52856755,51.0,86.0
282,46.643321349999994,46.742706337499996,58.0,77.0
283,46.88922235,46.972213937499994,58.0,74.0
284,46.88922235,46.9783614625,51.0,83.0
285,46.88922235,47.0050007375,63.0,84.0
286,46.88922235,47.1935248375,66.0,77.0
287,47.13512334999999,47.239631274999994,58.0,78.0
288,47.38102435,47.50397485,59.0,75.0
289,47.38102435,47.699671062499995,63.0,64.0
290,47.62692534999999,47.7211874,59.0,68.0
291,47.38102435,47.76626924999999,47.0,83.0
292,47.87282635,47.9414737125,59.0,63.0
293,47.87282635,47.9619654625,63.0,72.0
294,48.11872735,48.2047927,59.0,78.0
295,48.11872735,48.223235275,47.0,81.0
296,48.11872735,48.230407387499994,63.0,78.0
297,48.11872735,48.23860408749999,66.0,73.0
298,48.61052935,48.705815987499996,59.0,70.0
299,48.85643035,48.9517169875,59.0,79.0
300,48.85643035,48.9640120375,47.0,84.0
301,48.85643035,48.9670858,63.0,78.0
302,48.85643035,49.0603232625,66.0,74.0
303,49.348232349999996,49.4783549625,58.0,71.0
304,49.348232349999996,49.579789125,66.0,75.0
305,49.348232349999996,49.580813712499996,61.0,77.0
306,49.59413335,49.6996658625,58.0,68.0
307,49.840034349999996,49.9086817125,66.0,69.0
308,49.840034349999996,49.909706299999996,61.0,67.0
309,49.348232349999996,49.915853825,42.0,78.0
310,50.08593535,50.18224657499999,58.0,77.0
311,50.08593535,50.198639975,61.0,82.0
312,50.08593535,50.227328424999996,42.0,76.0
313,50.08593535,50.232451362499994,66.0,77.0
314,50.57773735,50.668925637499996,58.0,72.0
315,50.823638349999996,50.9066299375,58.0,77.0
316,50.823638349999996,50.943515087499996,61.0,88.0
317,50.823638349999996,50.94658885,42.0,76.0
318,50.823638349999996,50.990646112499995,66.0,77.0
319,51.06953935,51.1668751625,58.0,78.0
320,51.315440349999996,51.419948274999996,56.0,77.0
321,51.315440349999996,51.539825012499996,49.0,84.0
322,51.315440349999996,51.542898775,61.0,78.0
323,51.315440349999996,51.56953805,65.0,80.0
324,51.56134135,51.6627755125,56.0,75.0
325,51.807242349999996,51.88203723749999,61.0,66.0
326,52.05314335,52.156626687499994,56.0,79.0
327,52.05314335,52.160725037499994,49.0,83.0
328,52.05314335,52.194536424999995,61.0,83.0
329,52.05314335,52.210929824999994,65.0,83.0
330,52.54494535,52.645354925,56.0,77.0
331,52.790846349999995,52.832854437499996,56.0,67.0
332,52.790846349999995,53.1074438875,65.0,82.0
333,52.790846349999995,53.108468474999995,61.0,83.0
334,52.790846349999995,53.1340831625,49.0,86.0
335,53.03674735,53.136132337499994,56.0,81.0
336,53.282648349999995,53.387156274999995,58.0,77.0
337,53.282648349999995,53.52035265,63.0,78.0
338,53.52854935,53.6555982,58.0,76.0
339,53.282648349999995,53.786745399999994,51.0,80.0
340,53.774450349999995,53.886130387499996,58.0,78.0
341,53.774450349999995,53.9086713125,63.0,82.0
342,53.774450349999995,53.915843425,66.0,69.0
343,54.02035135,54.227318024999995,58.0,76.0
344,54.02035135,54.274449049999994,63.0,78.0
345,54.02035135,54.280596575,66.0,76.0
346,54.02035135,54.397399549999996,51.0,86.0
347,54.51215335,54.611538337499994,58.0,77.0
348,54.758054349999995,54.8410459375,58.0,74.0
349,54.758054349999995,54.847193462499995,51.0,83.0
350,54.758054349999995,54.873832737499995,63.0,84.0
351,54.758054349999995,55.0623568375,66.0,77.0
352,55.00395535,55.108463275,58.0,78.0
353,55.249856349999995,55.372806849999996,59.0,75.0
354,55.249856349999995,55.5685030625,63.0,64.0
355,55.49575735,55.590019399999996,59.0,68.0
356,55.249856349999995,55.63510125,47.0,83.0
357,55.741658349999994,55.810305712499996,59.0,63.0
358,55.741658349999994,55.830797462499994,63.0,72.0
359,55.98755935,56.073624699999996,59.0,78.0
360,55.98755935,56.092067275,47.0,81.0
361,55.98755935,56.0992393875,63.0,78.0
362,55.98755935,56.1074360875,66.0,73.0
363,56.47936135,56.57464798749999,59.0,70.0
364,56.725262349999994,56.8205489875,59.0,79.0
365,56.725262349999994,56.832844037499996,47.0,84.0
366,56.725262349999994,56.8359178,63.0,78.0
367,56.725262349999994,56.9291552625,66.0,74.0
368,57.217064349999994,57.3471869625,58.0,71.0
369,57.217064349999994,57.448621124999995,66.0,75.0
370,57.217064349999994,57.44964571249999,61.0,77.0
371,57.46296535,57.568497862499996,58.0,68.0
372,57.708866349999994,57.777513712499996,66.0,69.0
373,57.708866349999994,57.778538299999994,61.0,67.0
374,57.217064349999994,57.784685825,42.0,78.0
375,57.95476735,58.051078575,58.0,77.0
376,57.95476735,58.067471975,61.0,82.0
377,57.95476735,58.096160424999994,42.0,76.0
378,57.95476735,58.1012833625,66.0,77.0
379,58.44656935,58.53775763749999,58.0,72.0
380,58.692470349999994,58.7754619375,58.0,77.0
381,58.692470349999994,58.812347087499994,61.0,88.0
382,58.692470349999994,58.815420849999995,42.0,76.0
383,58.692470349999994,58.8594781125,66.0,77.0
384,58.93837135,59.035707162499996,58.0,78.0
385,59.18427234999999,59.28878027499999,56.0,77.0
386,59.18427234999999,59.408657012499994,49.0,84.0
387,59.18427234999999,59.411730774999995,61.0,78.0
388,59.18427234999999,59.438370049999996,65.0,80.0
389,59.43017335,59.531607512499995,56.0,75.0
390,59.67607434999999,59.7508692375,61.0,66.0
391,59.92197535,60.0254586875,56.0,79.0
392,59.92197535,60.0295570375,49.0,83.0
393,59.92197535,60.06336842499999,61.0,83.0
394,59.92197535,60.079761825,65.0,83.0
395,60.41377735,60.514186925,56.0,77.0
396,60.65967834999999,60.701686437499994,56.0,67.0
397,60.65967834999999,60.976275887499995,65.0,82.0
398,60.65967834999999,60.97730047499999,61.0,83.0
399,60.65967834999999,61.002915162499995,49.0,86.0
400,60.90557935,61.0049643375,56.0,81.0
401,61.15148034999999,61.3430782125,56.0,79.0
402,61.15148034999999,61.428118975,68.0,77.0
403,61.15148034999999,61.5397990125,63.0,77.0
404,61.64328234999999,61.74369192499999,56.0,82.0
405,61.889183349999996,61.979347049999994,63.0,82.0
406,61.889183349999996,61.985494575,56.0,82.0
407,61.889183349999996,61.9967650375,68.0,78.0
408,62.380985349999996,62.485493274999996,56.0,80.0
409,62.380985349999996,62.49881291249999,63.0,81.0
410,61.397381349999996,62.525452187499994,51.0,73.0
411,61.15148034999999,62.591025787499994,44.0,78.0
412,63.11868835,63.28467152499999,58.0,74.0
413,63.11868835,63.466023512499994,66.0,74.0
414,63.364589349999996,63.616637874999995,58.0,75.0
415,63.61049035,63.6893835875,63.0,72.0
416,63.856391349999996,63.961923862499994,58.0,82.0
417,63.856391349999996,63.969095974999995,66.0,81.0
418,63.11868835,64.43220952499999,39.0,80.0
419,64.34819335,64.44655374999999,58.0,78.0
420,64.34819335,64.469094675,63.0,80.0
421,64.34819335,64.50085688749999,66.0,81.0
422,65.08589635,65.2549532875,56.0,78.0
423,65.08589635,65.5274935625,63.0,77.0
424,65.57769834999999,65.6729849875,56.0,74.0
425,65.82359935,65.952697375,63.0,81.0
426,65.82359935,65.96601701249999,56.0,81.0
427,65.82359935,65.9680661875,68.0,77.0
428,66.31540135,66.39941752499999,63.0,81.0
429,66.31540135,66.41376174999999,56.0,80.0
430,66.31540135,66.4393764375,68.0,78.0
431,65.08589635,66.8922441125,44.0,78.0
432,66.80720335,66.90248998749999,56.0,80.0
433,65.33179735,66.9373259625,51.0,76.0
434,67.05310435,67.19654659999999,58.0,74.0
435,67.05310435,67.35023472499999,63.0,78.0
436,67.29900535,67.45269347499999,58.0,78.0
437,67.54490634999999,67.608430775,63.0,68.0
438,67.79080735,67.89326609999999,58.0,82.0
439,67.79080735,67.92502831249999,66.0,86.0
440,67.05310435,67.9537167625,51.0,79.0
441,68.28260935,68.4178549,58.0,82.0
442,68.28260935,68.4701088625,63.0,84.0
443,68.77441135,68.87584551249999,58.0,77.0
444,69.02031235,69.31129519999999,56.0,79.0
445,69.02031235,69.5643683125,63.0,77.0
446,69.51211434999999,69.6063764,56.0,79.0
447,69.75801535,69.8655970375,63.0,82.0
448,69.75801535,69.90555595,68.0,77.0
449,69.75801535,69.92912146249999,56.0,80.0
450,70.24981735,70.37174326249999,56.0,78.0
451,70.24981735,70.39735795,63.0,78.0
452,69.26621335,70.6391606,51.0,72.0
453,69.02031235,70.7457177,44.0,78.0
454,70.74161935,70.83485681249999,56.0,78.0
455,70.98752035,71.1114954375,58.0,77.0
456,70.98752035,71.2590360375,63.0,79.0
457,71.23342135,71.5274779625,58.0,78.0
458,71.47932234999999,71.5684614625,63.0,73.0
459,71.72522335,71.825632925,58.0,83.0
460,71.72522335,71.8328050375,66.0,83.0
461,72.21702535,72.3184595125,63.0,82.0
462,72.21702535,72.3430496125,58.0,79.0
463,70.98752035,72.40042651249999,51.0,75.0
464,73.44653034999999,73.5868988375,59.0,76.0
465,73.20062935,73.77952128749999,54.0,62.0
466,73.69243134999999,73.98034043749999,66.0,79.0
467,73.69243134999999,73.9926354875,63.0,79.0
468,73.69243134999999,74.0151764125,59.0,79.0
469,72.95472835,74.07972542499999,47.0,88.0
470,73.93833235,74.194479225,54.0,77.0
471,74.18423335,74.2702987,63.0,77.0
472,74.18423335,74.28156916249999,59.0,78.0
473,74.18423335,74.28976586249999,66.0,79.0
474,74.92193635,75.6340246625,70.0,77.0
475,74.92193635,75.7672210375,65.0,79.0
476,74.92193635,75.7877127875,62.0,79.0
477,74.92193635,75.8061553625,58.0,77.0
478,75.90554035,76.1893510875,58.0,78.0
479,75.90554035,76.76107091249999,62.0,82.0
480,75.90554035,76.76721843749999,65.0,79.0
481,76.39734234999999,76.76824302499999,58.0,78.0
482,76.15144135,76.8041035875,53.0,78.0
483,74.92193635,76.83996415,46.0,81.0
484,76.88914435,77.0325866,58.0,77.0
485,76.88914435,77.2221352875,63.0,79.0
486,77.13504535,77.28668429999999,58.0,81.0
487,76.88914435,77.30717605,51.0,88.0
488,77.38094635,77.5602491625,51.0,84.0
489,77.38094635,77.67500296249999,66.0,84.0
490,77.38094635,77.69037177499999,63.0,80.0
491,77.62684734999999,77.919879375,58.0,78.0
492,77.87274835,78.21496057499999,63.0,77.0
493,77.87274835,78.2211081,66.0,77.0
494,77.87274835,78.2293048,51.0,82.0
495,78.11864935,78.3122963875,58.0,70.0
496,78.36455035,78.4926237875,51.0,80.0
497,78.36455035,78.669877425,63.0,84.0
498,78.36455035,78.67602495,66.0,81.0
499,78.61045134999999,78.7057379875,58.0,79.0
500,78.85635235,79.1719253,66.0,78.0
501,78.85635235,79.1934416375,63.0,79.0
502,78.85635235,79.2129088,47.0,82.0
503,79.10225335,79.42499841249999,59.0,69.0
504,79.34815435,79.66270271249999,66.0,79.0
505,79.34815435,79.673973175,63.0,79.0
506,79.34815435,79.75798934999999,47.0,78.0
507,79.59405534999999,79.8922103125,59.0,72.0
508,79.83995635,80.13503754999999,66.0,79.0
509,79.83995635,80.1708981125,63.0,79.0
510,79.83995635,80.18421774999999,47.0,79.0
511,80.08585735,80.22212748749999,59.0,65.0
512,80.33175835,80.4270449875,59.0,79.0
513,80.33175835,80.48442188749999,47.0,81.0
514,80.33175835,80.52028245,63.0,79.0
515,80.57765934999999,80.65655258749999,59.0,72.0
516,80.33175835,80.6606509375,66.0,78.0
517,80.82356035,80.94651085,58.0,77.0
518,80.82356035,81.11044485,61.0,78.0
519,81.06946135,81.2016331375,58.0,68.0
520,80.82356035,81.22110029999999,42.0,78.0
521,81.31536235,81.46905047499999,66.0,78.0
522,81.31536235,81.4782717625,61.0,83.0
523,81.31536235,81.551017475,42.0,78.0
524,81.56126334999999,81.682164675,58.0,77.0
525,81.80716435,82.0899505,66.0,78.0
526,81.80716435,82.12683564999999,42.0,76.0
527,81.80716435,82.14322904999999,61.0,78.0
528,82.05306535,82.178065025,58.0,77.0
529,82.29896635,82.432162725,61.0,81.0
530,82.29896635,82.4495807125,42.0,79.0
531,82.29896635,82.4618757625,66.0,79.0
532,82.54486734999999,82.6719162,58.0,77.0
533,82.79076835,83.07048073749999,61.0,77.0
534,82.79076835,83.0817512,65.0,79.0
535,82.79076835,83.1135134125,49.0,84.0
536,83.03666935,83.1606444375,56.0,78.0
537,83.28257035,83.3768324,56.0,79.0
538,83.28257035,83.43420929999999,49.0,88.0
539,83.28257035,83.5868728375,65.0,80.0
540,83.28257035,83.59814329999999,61.0,83.0
541,83.52847134999999,83.6708890125,56.0,78.0
542,83.77437235,83.83789677499999,56.0,68.0
543,83.77437235,83.9803144375,61.0,78.0
544,83.77437235,83.9987570125,65.0,78.0
545,84.02027335,84.0581830875,61.0,44.0
546,83.77437235,84.06125684999999,49.0,79.0
547,84.02027335,84.1421992625,56.0,78.0
548,84.26617435,84.354288875,49.0,91.0
549,84.26617435,84.35736263749999,56.0,80.0
550,84.26617435,84.3901494375,61.0,91.0
551,84.26617435,84.40346907499999,65.0,82.0
552,84.75797634999999,84.8389187625,58.0,69.0
553,84.75797634999999,85.06125424999999,66.0,73.0
554,84.75797634999999,85.0663771875,63.0,76.0
555,84.75797634999999,85.1196557375,39.0,86.0
556,85.00387735,85.14014748749999,58.0,73.0
557,85.24977835,85.41063858749999,63.0,79.0
558,85.24977835,85.4424008,39.0,86.0
559,85.24977835,85.5766217625,66.0,82.0
560,85.49567934999999,85.7876867875,58.0,80.0
561,85.74158034999999,86.0561287125,39.0,84.0
562,85.74158034999999,86.0571533,63.0,78.0
563,85.74158034999999,86.0643254125,66.0,78.0
564,85.98748135,86.15961204999999,58.0,77.0
565,86.23338235,86.3368656875,39.0,88.0
566,86.23338235,86.51002097499999,63.0,84.0
567,86.23338235,86.538709425,66.0,81.0
568,86.47928334999999,86.567397875,58.0,80.0
569,86.72518434999999,86.98747875,47.0,81.0
570,86.72518434999999,87.026413075,63.0,81.0
571,86.72518434999999,87.0335851875,66.0,75.0
572,86.97108535,87.10530631249999,59.0,72.0
573,87.21698635,87.34505978749999,47.0,93.0
574,87.21698635,87.36964988749999,66.0,79.0
575,87.21698635,87.38092035,63.0,86.0
576,87.46288734999999,87.6380918125,59.0,79.0
577,87.70878834999999,87.9833778,66.0,77.0
578,87.70878834999999,88.00386954999999,47.0,78.0
579,87.70878834999999,88.01821377499999,63.0,79.0
580,87.95468935,88.091984075,59.0,75.0
581,88.20059035,88.26001642499999,59.0,66.0
582,88.20059035,88.3030491,47.0,86.0
583,88.20059035,88.34403259999999,63.0,80.0
584,88.20059035,88.358376825,66.0,79.0
585,88.69239234999999,88.751818425,58.0,67.0
586,88.69239234999999,89.0048915375,66.0,77.0
587,88.69239234999999,89.0079653,61.0,77.0
588,88.69239234999999,89.0151374125,42.0,77.0
589,88.93829335,89.06431761249999,58.0,73.0
590,89.18419435,89.32046448749999,42.0,76.0
591,89.18419435,89.32353825,66.0,77.0
592,89.18419435,89.341980825,61.0,79.0
593,89.43009534999999,89.6749717625,58.0,78.0
594,89.67599634999999,89.85427457499999,66.0,78.0
595,89.67599634999999,89.97210213749999,61.0,78.0
596,89.67599634999999,89.97927424999999,42.0,76.0
597,89.92189735,90.091978875,58.0,71.0
598,90.16779835,90.2999701375,42.0,77.0
599,90.16779835,90.32865858749999,61.0,82.0
600,90.16779835,90.346076575,66.0,79.0
601,90.41369934999999,90.538699025,58.0,71.0
602,90.65960034999999,90.9423865,61.0,81.0
603,90.65960034999999,90.94750943749999,49.0,83.0
604,90.65960034999999,90.948534025,65.0,81.0
605,90.90550135,91.01615679999999,56.0,73.0
606,91.15140235,91.27127908749999,49.0,86.0
607,91.15140235,91.29484459999999,65.0,80.0
608,91.15140235,91.31533635,61.0,82.0
609,91.39730334999999,91.514106325,56.0,78.0
610,91.64320434999999,91.95262977499999,65.0,79.0
611,91.64320434999999,91.9557035375,61.0,80.0
612,91.64320434999999,92.0171787875,49.0,79.0
613,91.88910535,92.06943274999999,56.0,81.0
614,92.13500635,92.55816098749999,65.0,88.0
615,92.38090735,92.56943145,56.0,81.0
616,92.13500635,92.5827510875,61.0,84.0
617,92.13500635,92.61041494999999,49.0,93.0
618,92.62680834999999,92.7702506,58.0,77.0
619,92.62680834999999,92.95979928749999,63.0,79.0
620,92.87270935,93.0243483,58.0,81.0
621,92.62680834999999,93.04484004999999,51.0,88.0
622,93.11861035,93.2979131625,51.0,84.0
623,93.11861035,93.4126669625,66.0,84.0
624,93.11861035,93.428035775,63.0,80.0
625,93.36451135,93.65754337499999,58.0,78.0
626,93.61041234999999,93.95262457499999,63.0,77.0
627,93.61041234999999,93.95877209999999,66.0,77.0
628,93.61041234999999,93.96696879999999,51.0,82.0
629,93.85631335,94.0499603875,58.0,70.0
630,94.10221435,94.23028778749999,51.0,80.0
631,94.10221435,94.40754142499999,63.0,84.0
632,94.10221435,94.41368895,66.0,81.0
633,94.34811535,94.4434019875,58.0,79.0
634,94.59401634999999,94.9095893,66.0,78.0
635,94.59401634999999,94.9311056375,63.0,79.0
636,94.59401634999999,94.95057279999999,47.0,82.0
637,94.83991735,95.1626624125,59.0,69.0
638,95.08581835,95.40036671249999,66.0,79.0
639,95.08581835,95.411637175,63.0,79.0
640,95.08581835,95.49565335,47.0,78.0
641,95.33171935,95.6298743125,59.0,72.0
642,95.57762034999999,95.87270154999999,66.0,79.0
643,95.57762034999999,95.9085621125,63.0,79.0
644,95.57762034999999,95.92188175,47.0,79.0
645,95.82352135,95.9597914875,59.0,65.0
646,96.06942235,96.16470898749999,59.0,79.0
647,96.06942235,96.2220858875,47.0,81.0
648,96.06942235,96.25794644999999,63.0,79.0
649,96.31532335,96.3942165875,59.0,72.0
650,96.06942235,96.39831493749999,66.0,78.0
651,96.56122434999999,96.68417484999999,58.0,77.0
652,96.56122434999999,96.84810884999999,61.0,78.0
653,96.80712534999999,96.93929713749999,58.0,68.0
654,96.56122434999999,96.9587643,42.0,78.0
655,97.05302635,97.206714475,66.0,78.0
656,97.05302635,97.2159357625,61.0,83.0
657,97.05302635,97.28868147499999,42.0,78.0
658,97.29892735,97.41982867499999,58.0,77.0
659,97.54482834999999,97.8276145,66.0,78.0
660,97.54482834999999,97.86449965,42.0,76.0
661,97.54482834999999,97.88089305,61.0,78.0
662,97.79072934999999,97.91572902499999,58.0,77.0
663,98.03663035,98.169826725,61.0,81.0
664,98.03663035,98.18724471249999,42.0,79.0
665,98.03663035,98.1995397625,66.0,79.0
666,98.28253135,98.4095802,58.0,77.0
667,98.52843234999999,98.80814473749999,61.0,77.0
668,98.52843234999999,98.8194152,65.0,79.0
669,98.52843234999999,98.8511774125,49.0,84.0
670,98.77433334999999,98.89830843749999,56.0,78.0
671,99.02023435,99.1144964,56.0,79.0
672,99.02023435,99.17187329999999,49.0,88.0
673,99.02023435,99.32453683749999,65.0,80.0
674,99.02023435,99.3358073,61.0,83.0
675,99.26613535,99.4085530125,56.0,78.0
676,99.51203634999999,99.575560775,56.0,68.0
677,99.51203634999999,99.7179784375,61.0,78.0
678,99.51203634999999,99.73642101249999,65.0,78.0
679,99.75793734999999,99.7958470875,61.0,44.0
680,99.51203634999999,99.79892084999999,49.0,79.0
681,99.75793734999999,99.8798632625,56.0,78.0
682,100.00383835,100.09195287499999,49.0,91.0
683,100.00383835,100.0950266375,56.0,80.0
684,100.00383835,100.1278134375,61.0,91.0
685,100.00383835,100.141133075,65.0,82.0
686,100.49564034999999,100.5765827625,58.0,69.0
687,100.49564034999999,100.79891825,66.0,73.0
688,100.49564034999999,100.80404118749999,63.0,76.0
689,100.49564034999999,100.85731973749999,39.0,86.0
690,100.74154134999999,100.8778114875,58.0,73.0
691,100.98744235,101.1483025875,63.0,79.0
692,100.98744235,101.1800648,39.0,86.0
693,100.98744235,101.31428576249999,66.0,82.0
694,101.23334335,101.52535078749999,58.0,80.0
695,101.47924434999999,101.7937927125,39.0,84.0
696,101.47924434999999,101.79481729999999,63.0,78.0
697,101.47924434999999,101.80198941249999,66.0,78.0
698,101.72514534999999,101.89727604999999,58.0,77.0
699,101.97104635,102.07452968749999,39.0,88.0
700,101.97104635,102.247684975,63.0,84.0
701,101.97104635,102.27637342499999,66.0,81.0
702,102.21694735,102.30506187499999,58.0,80.0
703,102.46284834999999,102.72514274999999,47.0,81.0
704,102.46284834999999,102.76407707499999,63.0,81.0
705,102.46284834999999,102.77124918749999,66.0,75.0
706,102.70874934999999,102.8429703125,59.0,72.0
707,102.95465035,103.08272378749999,47.0,93.0
708,102.95465035,103.1073138875,66.0,79.0
709,102.95465035,103.11858434999999,63.0,86.0
710,103.20055135,103.37575581249999,59.0,79.0
711,103.44645234999999,103.7210418,66.0,77.0
712,103.44645234999999,103.74153355,47.0,78.0
713,103.44645234999999,103.75587777499999,63.0,79.0
714,103.69235334999999,103.829648075,59.0,75.0
715,103.93825435,103.997680425,59.0,66.0
716,103.93825435,104.04071309999999,47.0,86.0
717,103.93825435,104.08169659999999,63.0,80.0
718,103.93825435,104.09604082499999,66.0,79.0
719,104.43005634999999,104.48948242499999,58.0,67.0
720,104.43005634999999,104.7425555375,66.0,77.0
721,104.43005634999999,104.74562929999999,61.0,77.0
722,104.43005634999999,104.75280141249999,42.0,77.0
723,104.67595734999999,104.80198161249999,58.0,73.0
724,104.92185835,105.0581284875,42.0,76.0
725,104.92185835,105.06120225,66.0,77.0
726,104.92185835,105.07964482499999,61.0,79.0
727,105.16775935,105.41263576249999,58.0,78.0
728,105.41366034999999,105.59193857499999,66.0,78.0
729,105.41366034999999,105.7097661375,61.0,78.0
730,105.41366034999999,105.71693825,42.0,76.0
731,105.65956134999999,105.82964287499999,58.0,71.0
732,105.90546235,106.03763413749999,42.0,77.0
733,105.90546235,106.0663225875,61.0,82.0
734,105.90546235,106.083740575,66.0,79.0
735,106.15136335,106.276363025,58.0,71.0
736,106.39726434999999,106.6800505,61.0,81.0
737,106.39726434999999,106.6851734375,49.0,83.0
738,106.39726434999999,106.686198025,65.0,81.0
739,106.64316534999999,106.7538208,56.0,73.0
740,106.88906635,107.00894308749999,49.0,86.0
741,106.88906635,107.0325086,65.0,80.0
742,106.88906635,107.05300034999999,61.0,82.0
743,107.13496735,107.251770325,56.0,78.0
744,107.38086835,107.69029377499999,65.0,79.0
745,107.38086835,107.6933675375,61.0,80.0
746,107.38086835,107.7548427875,49.0,79.0
747,107.62676934999999,107.80709675,56.0,81.0
748,107.87267034999999,108.2958249875,65.0,88.0
749,108.11857135,108.30709544999999,56.0,81.0
750,107.87267034999999,108.3204150875,61.0,84.0
751,107.87267034999999,108.34807894999999,49.0,93.0
752,108.36447235,108.95873309999999,63.0,78.0
753,108.36447235,108.96692979999999,58.0,72.0
754,109.10217535,109.2118062125,58.0,83.0
755,109.10217535,109.2548388875,66.0,82.0
756,109.59397734999999,109.6892639875,58.0,78.0
757,108.36447235,109.87368973749999,51.0,83.0
758,109.83987834999999,109.9372141625,58.0,78.0
759,109.83987834999999,110.04377126249999,66.0,84.0
760,110.33168035,110.6728679875,59.0,78.0
761,110.33168035,110.80196601249999,66.0,77.0
762,110.33168035,110.80708895,63.0,79.0
763,110.33168035,110.813236475,47.0,84.0
764,111.06938335,111.2158993625,59.0,71.0
765,111.31528435,111.60729178749999,59.0,77.0
766,111.31528435,111.802988,47.0,79.0
767,111.31528435,111.81425846249999,63.0,77.0
768,111.31528435,111.88905335,66.0,78.0
769,111.80708634999999,111.91671721249999,59.0,82.0
770,112.29888835,112.624707175,58.0,79.0
771,112.29888835,112.825526325,61.0,78.0
772,112.79069034999999,112.874706525,58.0,69.0
773,113.03659135,113.1523697375,58.0,83.0
774,113.03659135,113.16978772499999,66.0,81.0
775,112.29888835,113.6093357625,42.0,75.0
776,113.52839334999999,113.69642569999999,58.0,79.0
777,113.52839334999999,113.8429417125,61.0,91.0
778,113.52839334999999,113.8552367625,66.0,79.0
779,113.77429434999999,113.96179386249999,42.0,77.0
780,114.02019535,114.13494915,58.0,78.0
781,114.26609635,114.45052209999999,56.0,79.0
782,114.26609635,114.85318498749999,61.0,79.0
783,114.26609635,115.034536975,49.0,86.0
784,115.00379935,115.12879902499999,56.0,78.0
785,115.24970035,115.39211801249999,56.0,81.0
786,115.24970035,115.49457676249999,61.0,80.0
787,115.24970035,115.57961752499999,65.0,83.0
788,115.49560134999999,115.608305975,56.0,79.0
789,115.24970035,115.71793683749999,49.0,84.0
790,115.74150234999999,115.85010862499999,56.0,79.0
791,115.74150234999999,115.956665725,61.0,84.0
792,115.98740335,116.0242885,61.0,61.0
793,115.98740335,116.07756705,56.0,81.0
794,116.23330435,116.40748422499999,58.0,77.0
795,116.23330435,117.02633507499999,63.0,77.0
796,116.97100735,117.09088408749999,58.0,66.0
797,116.23330435,117.1851461375,51.0,79.0
798,117.21690835,117.33985885,58.0,80.0
799,117.21690835,117.52940753749999,66.0,78.0
800,117.21690835,117.55297304999999,63.0,86.0
801,117.46280934999999,117.587809025,58.0,71.0
802,117.70871034999999,117.80194781249999,58.0,72.0
803,117.70871034999999,117.9003082125,46.0,71.0
804,117.70871034999999,117.91977537499999,66.0,77.0
805,117.70871034999999,117.93309501249999,63.0,77.0
806,117.95461135,118.1072748875,58.0,64.0
807,118.20051235,118.67797012499999,59.0,67.0
808,118.20051235,118.73329784999999,47.0,79.0
809,118.20051235,118.77940428749999,63.0,78.0
810,118.93821535,119.02837905,63.0,61.0
811,118.93821535,119.0457970375,59.0,63.0
812,119.18411635,119.31014061249999,59.0,77.0
813,119.18411635,119.4248944125,54.0,72.0
814,119.18411635,119.5089105875,66.0,78.0
815,119.18411635,119.53657444999999,63.0,80.0
816,119.43001734999999,119.555017025,59.0,75.0
817,119.67591834999999,119.76915581249999,47.0,86.0
818,119.67591834999999,119.79989343749999,59.0,80.0
819,119.92181934999999,120.07243371249999,59.0,73.0
820,119.67591834999999,120.0765320625,63.0,79.0
821,119.67591834999999,120.0888271125,66.0,77.0
822,120.16772035,120.64517812499999,54.0,79.0
823,120.16772035,120.6851370375,58.0,79.0
824,120.90542334999999,121.01607879999999,54.0,80.0
825,121.15132435,121.30808623749999,54.0,84.0
826,121.15132435,121.52529878749999,66.0,78.0
827,121.39722534999999,121.62058542499999,49.0,78.0
828,120.16772035,121.64927387499999,42.0,79.0
829,121.64312634999999,121.66566727499999,66.0,60.0
830,121.64312634999999,121.72099499999999,54.0,81.0
831,121.64312634999999,121.9013224,58.0,81.0
832,121.64312634999999,121.96996976249999,61.0,79.0
833,121.88902734999999,121.99353527499999,54.0,77.0
834,122.13492835,122.358288425,56.0,83.0
835,122.13492835,122.7158694625,61.0,80.0
836,122.87263134999999,122.97304092499999,56.0,74.0
837,123.11853235,123.2404582625,56.0,88.0
838,123.11853235,123.264023775,65.0,86.0
839,123.36443335,123.55603121249999,61.0,78.0
840,123.61033434999999,123.7834896375,56.0,79.0
841,122.13492835,123.97098915,49.0,81.0
842,123.85623534999999,123.98123502499999,61.0,72.0
843,124.10213635,125.1390189,37.0,78.0
844,124.10213635,125.19537121249999,56.0,75.0
845,124.10213635,125.2015187375,65.0,79.0
846,124.10213635,125.21278919999999,61.0,76.0
847,126.06934435,126.17385227499999,58.0,77.0
848,126.06934435,126.30704865,63.0,78.0
849,126.31524535,126.44229419999999,58.0,76.0
850,126.06934435,126.5734414,51.0,80.0
851,126.56114634999999,126.6728263875,58.0,78.0
852,126.56114634999999,126.6953673125,63.0,82.0
853,126.56114634999999,126.702539425,66.0,69.0
854,126.80704734999999,127.014014025,58.0,76.0
855,126.80704734999999,127.06114505,63.0,78.0
856,126.80704734999999,127.067292575,66.0,76.0
857,126.80704734999999,127.18409555,51.0,86.0
858,127.29884935,127.39823433749999,58.0,77.0
859,127.54475034999999,127.62774193749999,58.0,74.0
860,127.54475034999999,127.6338894625,51.0,83.0
861,127.54475034999999,127.66052873749999,63.0,84.0
862,127.54475034999999,127.8490528375,66.0,77.0
863,127.79065134999999,127.895159275,58.0,78.0
864,128.03655235,128.15950285,59.0,75.0
865,128.03655235,128.3551990625,63.0,64.0
866,128.28245335,128.3767154,59.0,68.0
867,128.03655235,128.42179725,47.0,83.0
868,128.52835435,128.5970017125,59.0,63.0
869,128.52835435,128.6174934625,63.0,72.0
870,128.77425535,128.8603207,59.0,78.0
871,128.77425535,128.87876327499998,47.0,81.0
872,128.77425535,128.88593538749998,63.0,78.0
873,128.77425535,128.8941320875,66.0,73.0
874,129.26605734999998,129.3613439875,59.0,70.0
875,129.51195835,129.6072449875,59.0,79.0
876,129.51195835,129.6195400375,47.0,84.0
877,129.51195835,129.62261379999998,63.0,78.0
878,129.51195835,129.7158512625,66.0,74.0
879,130.00376035,130.1338829625,58.0,71.0
880,130.00376035,130.235317125,66.0,75.0
881,130.00376035,130.23634171249998,61.0,77.0
882,130.24966135,130.3551938625,58.0,68.0
883,130.49556235,130.5642097125,66.0,69.0
884,130.49556235,130.5652343,61.0,67.0
885,130.00376035,130.571381825,42.0,78.0
886,130.74146335,130.837774575,58.0,77.0
887,130.74146335,130.854167975,61.0,82.0
888,130.74146335,130.882856425,42.0,76.0
889,130.74146335,130.8879793625,66.0,77.0
890,131.23326534999998,131.3244536375,58.0,72.0
891,131.47916634999999,131.5621579375,58.0,77.0
892,131.47916634999999,131.59904308749998,61.0,88.0
893,131.47916634999999,131.60211685,42.0,76.0
894,131.47916634999999,131.64617411249998,66.0,77.0
895,131.72506735,131.8224031625,58.0,78.0
896,131.97096835,132.075476275,56.0,77.0
897,131.97096835,132.1953530125,49.0,84.0
898,131.97096835,132.198426775,61.0,78.0
899,131.97096835,132.22506604999998,65.0,80.0
900,132.21686935,132.3183035125,56.0,75.0
901,132.46277035,132.5375652375,61.0,66.0
902,132.70867135,132.8121546875,56.0,79.0
903,132.70867135,132.8162530375,49.0,83.0
904,132.70867135,132.850064425,61.0,83.0
905,132.70867135,132.866457825,65.0,83.0
906,133.20047334999998,133.300882925,56.0,77.0
907,133.44637434999999,133.48838243749998,56.0,67.0
908,133.44637434999999,133.7629718875,65.0,82.0
909,133.44637434999999,133.763996475,61.0,83.0
910,133.44637434999999,133.7896111625,49.0,86.0
911,133.69227535,133.7916603375,56.0,81.0
912,133.93817635,134.042684275,58.0,77.0
913,133.93817635,134.17588064999998,63.0,78.0
914,134.18407735,134.3111262,58.0,76.0
915,133.93817635,134.4422734,51.0,80.0
916,134.42997835,134.54165838749998,58.0,78.0
917,134.42997835,134.5641993125,63.0,82.0
918,134.42997835,134.571371425,66.0,69.0
919,134.67587935,134.882846025,58.0,76.0
920,134.67587935,134.92997705,63.0,78.0
921,134.67587935,134.93612457499998,66.0,76.0
922,134.67587935,135.05292755,51.0,86.0
923,135.16768134999998,135.26706633749998,58.0,77.0
924,135.41358234999998,135.4965739375,58.0,74.0
925,135.41358234999998,135.50272146249998,51.0,83.0
926,135.41358234999998,135.52936073749999,63.0,84.0
927,135.41358234999998,135.71788483749998,66.0,77.0
928,135.65948335,135.763991275,58.0,78.0
929,135.90538435,136.02833485,59.0,75.0
930,135.90538435,136.2240310625,63.0,64.0
931,136.15128535,136.2455474,59.0,68.0
932,135.90538435,136.29062925,47.0,83.0
933,136.39718635,136.4658337125,59.0,63.0
934,136.39718635,136.4863254625,63.0,72.0
935,136.64308735,136.7291527,59.0,78.0
936,136.64308735,136.74759527499998,47.0,81.0
937,136.64308735,136.75476738749998,63.0,78.0
938,136.64308735,136.7629640875,66.0,73.0
939,137.13488934999998,137.2301759875,59.0,70.0
940,137.38079034999998,137.4760769875,59.0,79.0
941,137.38079034999998,137.4883720375,47.0,84.0
942,137.38079034999998,137.49144579999998,63.0,78.0
943,137.38079034999998,137.5846832625,66.0,74.0
944,137.87259235,138.0027149625,58.0,71.0
945,137.87259235,138.104149125,66.0,75.0
946,137.87259235,138.1051737125,61.0,77.0
947,138.11849335,138.22402586249999,58.0,68.0
948,138.36439435,138.4330417125,66.0,69.0
949,138.36439435,138.43406629999998,61.0,67.0
950,137.87259235,138.440213825,42.0,78.0
951,138.61029535,138.706606575,58.0,77.0
952,138.61029535,138.722999975,61.0,82.0
953,138.61029535,138.751688425,42.0,76.0
954,138.61029535,138.7568113625,66.0,77.0
955,139.10209734999998,139.1932856375,58.0,72.0
956,139.34799834999998,139.4309899375,58.0,77.0
957,139.34799834999998,139.4678750875,61.0,88.0
958,139.34799834999998,139.47094884999998,42.0,76.0
959,139.34799834999998,139.5150061125,66.0,77.0
960,139.59389935,139.6912351625,58.0,78.0
961,139.83980035,139.944308275,56.0,77.0
962,139.83980035,140.0641850125,49.0,84.0
963,139.83980035,140.067258775,61.0,78.0
964,139.83980035,140.09389804999998,65.0,80.0
965,140.08570135,140.1871355125,56.0,75.0
966,140.33160235,140.4063972375,61.0,66.0
967,140.57750335,140.6809866875,56.0,79.0
968,140.57750335,140.6850850375,49.0,83.0
969,140.57750335,140.718896425,61.0,83.0
970,140.57750335,140.735289825,65.0,83.0
971,141.06930534999998,141.169714925,56.0,77.0
972,141.31520634999998,141.3572144375,56.0,67.0
973,141.31520634999998,141.63180388749998,65.0,82.0
974,141.31520634999998,141.632828475,61.0,83.0
975,141.31520634999998,141.6584431625,49.0,86.0
976,141.56110735,141.6604923375,56.0,81.0
977,141.80700835,141.9986062125,56.0,79.0
978,141.80700835,142.083646975,68.0,77.0
979,141.80700835,142.1953270125,63.0,77.0
980,142.29881035,142.39921992499998,56.0,82.0
981,142.54471135,142.63487504999998,63.0,82.0
982,142.54471135,142.641022575,56.0,82.0
983,142.54471135,142.6522930375,68.0,78.0
984,143.03651334999998,143.14102127499999,56.0,80.0
985,143.03651334999998,143.1543409125,63.0,81.0
986,142.05290935,143.18098018749998,51.0,73.0
987,141.80700835,143.24655378749998,44.0,78.0
988,143.77421635,143.940199525,58.0,74.0
989,143.77421635,144.1215515125,66.0,74.0
990,144.02011735,144.27216587499998,58.0,75.0
991,144.26601835,144.34491158749998,63.0,72.0
992,144.51191935,144.6174518625,58.0,82.0
993,144.51191935,144.624623975,66.0,81.0
994,143.77421635,145.087737525,39.0,80.0
995,145.00372134999998,145.10208175,58.0,78.0
996,145.00372134999998,145.12462267499998,63.0,80.0
997,145.00372134999998,145.1563848875,66.0,81.0
998,145.74142435,145.91048128749998,56.0,78.0
999,145.74142435,146.1830215625,63.0,77.0
1000,146.23322635,146.32851298749998,56.0,74.0
1001,146.47912735,146.608225375,63.0,81.0
1002,146.47912735,146.62154501249998,56.0,81.0
1003,146.47912735,146.6235941875,68.0,77.0
1004,146.97092934999998,147.054945525,63.0,81.0
1005,146.97092934999998,147.06928975,56.0,80.0
1006,146.97092934999998,147.0949044375,68.0,78.0
1007,145.74142435,147.54777211249998,44.0,78.0
1008,147.46273134999998,147.5580179875,56.0,80.0
1009,145.98732535,147.5928539625,51.0,76.0
1010,147.70863235,147.85207459999998,58.0,74.0
1011,147.70863235,148.00576272499998,63.0,78.0
1012,147.95453335,148.108221475,58.0,78.0
1013,148.20043435,148.263958775,63.0,68.0
1014,148.44633535,148.54879409999998,58.0,82.0
1015,148.44633535,148.5805563125,66.0,86.0
1016,147.70863235,148.6092447625,51.0,79.0
1017,148.93813734999998,149.07338289999998,58.0,82.0
1018,148.93813734999998,149.1256368625,63.0,84.0
1019,149.42993934999998,149.53137351249998,58.0,77.0
1020,149.67584035,149.9668232,56.0,79.0
1021,149.67584035,150.2198963125,63.0,77.0
1022,150.16764235,150.2619044,56.0,79.0
1023,150.41354335,150.52112503749998,63.0,82.0
1024,150.41354335,150.56108394999998,68.0,77.0
1025,150.41354335,150.58464946249998,56.0,80.0
1026,150.90534534999998,151.0272712625,56.0,78.0
1027,150.90534534999998,151.05288595,63.0,78.0
1028,149.92174135,151.2946886,51.0,72.0
1029,149.67584035,151.4012457,44.0,78.0
1030,151.39714734999998,151.4903848125,56.0,78.0
1031,151.64304835,151.7670234375,58.0,77.0
1032,151.64304835,151.91456403749999,63.0,79.0
1033,151.88894935,152.18300596249998,58.0,78.0
1034,152.13485035,152.2239894625,63.0,73.0
1035,152.38075135,152.48116092499998,58.0,83.0
1036,152.38075135,152.48833303749998,66.0,83.0
1037,152.87255335,152.9739875125,63.0,82.0
1038,152.87255335,152.9985776125,58.0,79.0
1039,151.64304835,153.0559545125,51.0,75.0
1040,154.10205835,154.24242683749998,59.0,76.0
1041,153.85615735,154.4350492875,54.0,62.0
1042,154.34795935,154.6358684375,66.0,79.0
1043,154.34795935,154.6481634875,63.0,79.0
1044,154.34795935,154.6707044125,59.0,79.0
1045,153.61025635,154.735253425,47.0,88.0
1046,154.59386035,154.85000722499998,54.0,77.0
1047,154.83976135,154.9258267,63.0,77.0
1048,154.83976135,154.93709716249998,59.0,78.0
1049,154.83976135,154.9452938625,66.0,79.0
1050,155.57746434999999,156.2895526625,70.0,77.0
1051,155.57746434999999,156.42274903749998,65.0,79.0
1052,155.57746434999999,156.4432407875,62.0,79.0
1053,155.57746434999999,156.4616833625,58.0,77.0
1054,156.56106835,156.84487908749998,58.0,78.0
1055,156.56106835,157.41659891249998,62.0,82.0
1056,156.56106835,157.4227464375,65.0,79.0
1057,157.05287034999998,157.42377102499998,58.0,78.0
1058,156.80696935,157.45963158749998,53.0,78.0
1059,155.57746434999999,157.49549215,46.0,81.0
1060,157.54467234999998,157.68811459999998,58.0,77.0
1061,157.54467234999998,157.87766328749998,63.0,79.0
1062,157.79057335,157.9422123,58.0,81.0
1063,157.54467234999998,157.96270404999999,51.0,88.0
1064,158.03647435,158.2157771625,51.0,84.0
1065,158.03647435,158.33053096249998,66.0,84.0
1066,158.03647435,158.345899775,63.0,80.0
1067,158.28237535,158.575407375,58.0,78.0
1068,158.52827635,158.870488575,63.0,77.0
1069,158.52827635,158.87663609999998,66.0,77.0
1070,158.52827635,158.8848328,51.0,82.0
1071,158.77417735,158.9678243875,58.0,70.0
1072,159.02007834999998,159.14815178749998,51.0,80.0
1073,159.02007834999998,159.32540542499999,63.0,84.0
1074,159.02007834999998,159.33155295,66.0,81.0
1075,159.26597934999998,159.3612659875,58.0,79.0
1076,159.51188034999998,159.8274533,66.0,78.0
1077,159.51188034999998,159.84896963749998,63.0,79.0
1078,159.51188034999998,159.86843679999998,47.0,82.0
1079,159.75778135,160.08052641249998,59.0,69.0
1080,160.00368235,160.3182307125,66.0,79.0
1081,160.00368235,160.329501175,63.0,79.0
1082,160.00368235,160.41351734999998,47.0,78.0
1083,160.24958335,160.5477383125,59.0,72.0
1084,160.49548435,160.79056555,66.0,79.0
1085,160.49548435,160.8264261125,63.0,79.0
1086,160.49548435,160.83974575,47.0,79.0
1087,160.74138535,160.8776554875,59.0,65.0
1088,160.98728634999998,161.0825729875,59.0,79.0
1089,160.98728634999998,161.1399498875,47.0,81.0
1090,160.98728634999998,161.17581045,63.0,79.0
1091,161.23318734999998,161.3120805875,59.0,72.0
1092,160.98728634999998,161.31617893749998,66.0,78.0
1093,161.47908834999998,161.60203884999999,58.0,77.0
1094,161.47908834999998,161.76597285,61.0,78.0
1095,161.72498935,161.8571611375,58.0,68.0
1096,161.47908834999998,161.8766283,42.0,78.0
1097,161.97089035,162.124578475,66.0,78.0
1098,161.97089035,162.1337997625,61.0,83.0
1099,161.97089035,162.20654547499998,42.0,78.0
1100,162.21679135,162.337692675,58.0,77.0
1101,162.46269235,162.7454785,66.0,78.0
1102,162.46269235,162.78236364999998,42.0,76.0
1103,162.46269235,162.79875704999998,61.0,78.0
1104,162.70859335,162.833593025,58.0,77.0
1105,162.95449434999998,163.087690725,61.0,81.0
1106,162.95449434999998,163.1051087125,42.0,79.0
1107,162.95449434999998,163.11740376249998,66.0,79.0
1108,163.20039534999998,163.3274442,58.0,77.0
1109,163.44629634999998,163.7260087375,61.0,77.0
1110,163.44629634999998,163.7372792,65.0,79.0
1111,163.44629634999998,163.7690414125,49.0,84.0
1112,163.69219735,163.8161724375,56.0,78.0
1113,163.93809835,164.0323604,56.0,79.0
1114,163.93809835,164.0897373,49.0,88.0
1115,163.93809835,164.24240083749999,65.0,80.0
1116,163.93809835,164.25367129999998,61.0,83.0
1117,164.18399935,164.3264170125,56.0,78.0
1118,164.42990035,164.493424775,56.0,68.0
1119,164.42990035,164.6358424375,61.0,78.0
1120,164.42990035,164.6542850125,65.0,78.0
1121,164.67580135,164.7137110875,61.0,44.0
1122,164.42990035,164.71678484999998,49.0,79.0
1123,164.67580135,164.7977272625,56.0,78.0
1124,164.92170234999998,165.00981687499998,49.0,91.0
1125,164.92170234999998,165.0128906375,56.0,80.0
1126,164.92170234999998,165.0456774375,61.0,91.0
1127,164.92170234999998,165.05899707499998,65.0,82.0
1128,165.41350434999998,165.4944467625,58.0,69.0
1129,165.41350434999998,165.71678225,66.0,73.0
1130,165.41350434999998,165.7219051875,63.0,76.0
1131,165.41350434999998,165.7751837375,39.0,86.0
1132,165.65940535,165.79567548749998,58.0,73.0
1133,165.90530635,166.0661665875,63.0,79.0
1134,165.90530635,166.09792879999998,39.0,86.0
1135,165.90530635,166.2321497625,66.0,82.0
1136,166.15120735,166.44321478749998,58.0,80.0
1137,166.39710835,166.7116567125,39.0,84.0
1138,166.39710835,166.71268129999999,63.0,78.0
1139,166.39710835,166.7198534125,66.0,78.0
1140,166.64300935,166.81514005,58.0,77.0
1141,166.88891035,166.9923936875,39.0,88.0
1142,166.88891035,167.16554897499998,63.0,84.0
1143,166.88891035,167.19423742499998,66.0,81.0
1144,167.13481134999998,167.222925875,58.0,80.0
1145,167.38071234999998,167.64300674999998,47.0,81.0
1146,167.38071234999998,167.681941075,63.0,81.0
1147,167.38071234999998,167.6891131875,66.0,75.0
1148,167.62661334999999,167.76083431249998,59.0,72.0
1149,167.87251435,168.0005877875,47.0,93.0
1150,167.87251435,168.02517788749998,66.0,79.0
1151,167.87251435,168.03644835,63.0,86.0
1152,168.11841535,168.2936198125,59.0,79.0
1153,168.36431635,168.63890579999997,66.0,77.0
1154,168.36431635,168.65939755,47.0,78.0
1155,168.36431635,168.673741775,63.0,79.0
1156,168.61021735,168.747512075,59.0,75.0
1157,168.85611835,168.91554442499998,59.0,66.0
1158,168.85611835,168.95857709999999,47.0,86.0
1159,168.85611835,168.9995606,63.0,80.0
1160,168.85611835,169.013904825,66.0,79.0
1161,169.34792034999998,169.407346425,58.0,67.0
1162,169.34792034999998,169.6604195375,66.0,77.0
1163,169.34792034999998,169.6634933,61.0,77.0
1164,169.34792034999998,169.6706654125,42.0,77.0
1165,169.59382134999998,169.7198456125,58.0,73.0
1166,169.83972235,169.97599248749998,42.0,76.0
1167,169.83972235,169.97906625,66.0,77.0
1168,169.83972235,169.99750882499998,61.0,79.0
1169,170.08562335,170.33049976249998,58.0,78.0
1170,170.33152435,170.50980257499998,66.0,78.0
1171,170.33152435,170.62763013749998,61.0,78.0
1172,170.33152435,170.63480224999998,42.0,76.0
1173,170.57742535,170.747506875,58.0,71.0
1174,170.82332635,170.9554981375,42.0,77.0
1175,170.82332635,170.98418658749998,61.0,82.0
1176,170.82332635,171.001604575,66.0,79.0
1177,171.06922734999998,171.19422702499998,58.0,71.0
1178,171.31512834999998,171.5979145,61.0,81.0
1179,171.31512834999998,171.60303743749998,49.0,83.0
1180,171.31512834999998,171.604062025,65.0,81.0
1181,171.56102934999998,171.67168479999998,56.0,73.0
1182,171.80693035,171.92680708749998,49.0,86.0
1183,171.80693035,171.95037259999998,65.0,80.0
1184,171.80693035,171.97086435,61.0,82.0
1185,172.05283135,172.16963432499998,56.0,78.0
1186,172.29873235,172.608157775,65.0,79.0
1187,172.29873235,172.61123153749998,61.0,80.0
1188,172.29873235,172.67270678749998,49.0,79.0
1189,172.54463335,172.72496074999998,56.0,81.0
1190,172.79053435,173.21368898749998,65.0,88.0
1191,173.03643534999998,173.22495945,56.0,81.0
1192,172.79053435,173.2382790875,61.0,84.0
1193,172.79053435,173.26594294999998,49.0,93.0
1194,173.28233634999998,173.4257786,58.0,77.0
1195,173.28233634999998,173.61532728749998,63.0,79.0
1196,173.52823734999998,173.6798763,58.0,81.0
1197,173.28233634999998,173.70036804999998,51.0,88.0
1198,173.77413835,173.95344116249998,51.0,84.0
1199,173.77413835,174.0681949625,66.0,84.0
1200,173.77413835,174.083563775,63.0,80.0
1201,174.02003935,174.313071375,58.0,78.0
1202,174.26594035,174.608152575,63.0,77.0
1203,174.26594035,174.61430009999998,66.0,77.0
1204,174.26594035,174.6224968,51.0,82.0
1205,174.51184135,174.7054883875,58.0,70.0
1206,174.75774235,174.88581578749998,51.0,80.0
1207,174.75774235,175.06306942499998,63.0,84.0
1208,174.75774235,175.06921695,66.0,81.0
1209,175.00364334999998,175.0989299875,58.0,79.0
1210,175.24954434999998,175.5651173,66.0,78.0
1211,175.24954434999998,175.5866336375,63.0,79.0
1212,175.24954434999998,175.60610079999998,47.0,82.0
1213,175.49544534999998,175.8181904125,59.0,69.0
1214,175.74134635,176.0558947125,66.0,79.0
1215,175.74134635,176.06716517499999,63.0,79.0
1216,175.74134635,176.15118135,47.0,78.0
1217,175.98724735,176.2854023125,59.0,72.0
1218,176.23314835,176.52822955,66.0,79.0
1219,176.23314835,176.5640901125,63.0,79.0
1220,176.23314835,176.57740975,47.0,79.0
1221,176.47904935,176.6153194875,59.0,65.0
1222,176.72495035,176.82023698749998,59.0,79.0
1223,176.72495035,176.8776138875,47.0,81.0
1224,176.72495035,176.91347445,63.0,79.0
1225,176.97085134999998,177.0497445875,59.0,72.0
1226,176.72495035,177.05384293749998,66.0,78.0
1227,177.21675234999998,177.33970284999998,58.0,77.0
1228,177.21675234999998,177.50363685,61.0,78.0
1229,177.46265334999998,177.59482513749998,58.0,68.0
1230,177.21675234999998,177.6142923,42.0,78.0
1231,177.70855434999999,177.862242475,66.0,78.0
1232,177.70855434999999,177.87146376249999,61.0,83.0
1233,177.70855434999999,177.94420947499998,42.0,78.0
1234,177.95445535,178.075356675,58.0,77.0
1235,178.20035635,178.48314249999999,66.0,78.0
1236,178.20035635,178.52002764999997,42.0,76.0
1237,178.20035635,178.53642105,61.0,78.0
1238,178.44625735,178.571257025,58.0,77.0
1239,178.69215835,178.82535472499998,61.0,81.0
1240,178.69215835,178.8427727125,42.0,79.0
1241,178.69215835,178.8550677625,66.0,79.0
1242,178.93805934999997,179.0651082,58.0,77.0
1243,179.18396034999998,179.4636727375,61.0,77.0
1244,179.18396034999998,179.47494319999998,65.0,79.0
1245,179.18396034999998,179.5067054125,49.0,84.0
1246,179.42986134999998,179.5538364375,56.0,78.0
1247,179.67576234999999,179.77002439999998,56.0,79.0
1248,179.67576234999999,179.8274013,49.0,88.0
1249,179.67576234999999,179.98006483749998,65.0,80.0
1250,179.67576234999999,179.99133529999997,61.0,83.0
1251,179.92166335,180.0640810125,56.0,78.0
1252,180.16756435,180.231088775,56.0,68.0
1253,180.16756435,180.3735064375,61.0,78.0
1254,180.16756435,180.3919490125,65.0,78.0
1255,180.41346535,180.4513750875,61.0,44.0
1256,180.16756435,180.45444884999998,49.0,79.0
1257,180.41346535,180.53539126249999,56.0,78.0
1258,180.65936635,180.74748087499998,49.0,91.0
1259,180.65936635,180.7505546375,56.0,80.0
1260,180.65936635,180.78334143749998,61.0,91.0
1261,180.65936635,180.79666107499997,65.0,82.0
1262,181.15116834999998,181.23211076249999,58.0,69.0
1263,181.15116834999998,181.45444625,66.0,73.0
1264,181.15116834999998,181.4595691875,63.0,76.0
1265,181.15116834999998,181.51284773749998,39.0,86.0
1266,181.39706934999998,181.5333394875,58.0,73.0
1267,181.64297034999998,181.8038305875,63.0,79.0
1268,181.64297034999998,181.8355928,39.0,86.0
1269,181.64297034999998,181.9698137625,66.0,82.0
1270,181.88887135,182.18087878749998,58.0,80.0
1271,182.13477235,182.4493207125,39.0,84.0
1272,182.13477235,182.45034529999998,63.0,78.0
1273,182.13477235,182.45751741249998,66.0,78.0
1274,182.38067335,182.55280405,58.0,77.0
1275,182.62657435,182.7300576875,39.0,88.0
1276,182.62657435,182.903212975,63.0,84.0
1277,182.62657435,182.93190142499998,66.0,81.0
1278,182.87247535,182.96058987499998,58.0,80.0
1279,183.11837634999998,183.38067074999998,47.0,81.0
1280,183.11837634999998,183.419605075,63.0,81.0
1281,183.11837634999998,183.4267771875,66.0,75.0
1282,183.36427734999998,183.49849831249998,59.0,72.0
1283,183.61017834999998,183.7382517875,47.0,93.0
1284,183.61017834999998,183.7628418875,66.0,79.0
1285,183.61017834999998,183.77411235,63.0,86.0
1286,183.85607935,184.0312838125,59.0,79.0
1287,184.10198035,184.3765698,66.0,77.0
1288,184.10198035,184.39706155,47.0,78.0
1289,184.10198035,184.411405775,63.0,79.0
1290,184.34788135,184.485176075,59.0,75.0
1291,184.59378235,184.65320842499997,59.0,66.0
1292,184.59378235,184.69624109999998,47.0,86.0
1293,184.59378235,184.7372246,63.0,80.0
1294,184.59378235,184.751568825,66.0,79.0
1295,185.08558434999998,185.14501042499998,58.0,67.0
1296,185.08558434999998,185.39808353749999,66.0,77.0
1297,185.08558434999998,185.4011573,61.0,77.0
1298,185.08558434999998,185.4083294125,42.0,77.0
1299,185.33148534999998,185.4575096125,58.0,73.0
1300,185.57738634999998,185.71365648749997,42.0,76.0
1301,185.57738634999998,185.71673024999998,66.0,77.0
1302,185.57738634999998,185.73517282499998,61.0,79.0
1303,185.82328735,186.06816376249998,58.0,78.0
1304,186.06918835,186.24746657499998,66.0,78.0
1305,186.06918835,186.3652941375,61.0,78.0
1306,186.06918835,186.37246624999997,42.0,76.0
1307,186.31508935,186.485170875,58.0,71.0
1308,186.56099035,186.6931621375,42.0,77.0
1309,186.56099035,186.7218505875,61.0,82.0
1310,186.56099035,186.73926857499998,66.0,79.0
1311,186.80689135,186.931891025,58.0,71.0
1312,187.05279234999998,187.3355785,61.0,81.0
1313,187.05279234999998,187.3407014375,49.0,83.0
1314,187.05279234999998,187.34172602499999,65.0,81.0
1315,187.29869334999998,187.40934879999998,56.0,73.0
1316,187.54459434999998,187.66447108749998,49.0,86.0
1317,187.54459434999998,187.68803659999998,65.0,80.0
1318,187.54459434999998,187.70852835,61.0,82.0
1319,187.79049535,187.907298325,56.0,78.0
1320,188.03639635,188.345821775,65.0,79.0
1321,188.03639635,188.3488955375,61.0,80.0
1322,188.03639635,188.4103707875,49.0,79.0
1323,188.28229735,188.46262474999997,56.0,81.0
1324,188.52819835,188.9513529875,65.0,88.0
1325,188.77409935,188.96262345,56.0,81.0
1326,188.52819835,188.97594308749999,61.0,84.0
1327,188.52819835,189.00360694999998,49.0,93.0
1328,189.02000034999998,190.3601608,39.0,84.0
1329,189.02000034999998,190.72593853749999,58.0,72.0
1330,189.02000034999998,190.75360239999998,63.0,78.0
1331,189.02000034999998,190.7648728625,66.0,77.0
1332,190.98720834999997,191.1419210625,58.0,78.0
1333,190.98720834999997,191.28331413749999,66.0,79.0
1334,191.23310934999998,191.38064995,58.0,70.0
1335,190.98720834999997,191.68905078749998,51.0,82.0
1336,191.72491134999999,191.89499287499999,58.0,78.0
1337,191.72491134999999,191.92982884999998,66.0,83.0
1338,192.21671335,192.31712292499998,58.0,77.0
1339,192.46261435,192.53945841249998,58.0,78.0
1340,192.46261435,192.59785989999997,51.0,83.0
1341,192.46261435,192.64089257499998,63.0,83.0
1342,192.46261435,192.77818729999998,66.0,80.0
1343,192.70851535,192.82736749999998,58.0,72.0
1344,192.95441634999997,193.14191586249999,58.0,73.0
1345,192.95441634999997,193.42675118749997,66.0,78.0
1346,192.95441634999997,193.456464225,61.0,79.0
1347,193.44621834999998,193.54560333749998,58.0,70.0
1348,192.95441634999997,193.56097215,42.0,78.0
1349,193.69211934999998,193.84990582499998,58.0,79.0
1350,193.69211934999998,194.03228239999999,61.0,84.0
1351,193.69211934999998,194.10297893749998,66.0,77.0
1352,193.69211934999998,194.24129825,42.0,77.0
1353,194.18392135,194.2792079875,58.0,62.0
1354,194.42982235,194.526133575,61.0,80.0
1355,194.42982235,194.5435515625,58.0,78.0
1356,194.42982235,194.5599449625,42.0,78.0
1357,194.42982235,194.58658423749998,66.0,77.0
1358,194.92162434999997,195.12039432499998,56.0,78.0
1359,194.92162434999997,195.41854928749999,63.0,76.0
1360,195.41342634999998,195.5394506125,56.0,73.0
1361,195.65932734999998,195.84067933749998,56.0,81.0
1362,195.65932734999998,195.96362983749998,68.0,77.0
1363,195.65932734999998,196.2197767125,63.0,81.0
1364,196.15112935,196.2771536125,56.0,72.0
1365,194.92162434999997,196.4656777125,44.0,78.0
1366,196.39703035,196.51998085,63.0,81.0
1367,196.39703035,196.56096434999998,68.0,76.0
1368,196.39703035,196.58965279999998,56.0,83.0
1369,196.88883235,197.03534836249997,47.0,80.0
1370,196.88883235,197.0988727875,59.0,78.0
1371,196.88883235,197.1296104125,63.0,81.0
1372,197.62653534999998,197.821206975,70.0,78.0
1373,197.62653534999998,197.86014129999998,46.0,82.0
1374,197.62653534999998,197.86731341249998,58.0,81.0
1375,198.11833735,198.6357540375,54.0,81.0
1376,198.11833735,198.6828850625,66.0,79.0
1377,198.11833735,198.72386856249997,42.0,82.0
1378,198.85604035,199.4011209,58.0,78.0
1379,198.85604035,199.4369814625,63.0,74.0
1380,198.85604035,199.4574732125,51.0,79.0
1381,199.59374334999998,199.80378378749998,58.0,79.0
1382,199.59374334999998,199.9677177875,63.0,82.0
1383,200.08554535,200.1808319875,58.0,71.0
1384,199.59374334999998,200.2043975,51.0,91.0
1385,200.33144635,200.45542143749998,51.0,84.0
1386,200.33144635,200.4595197875,58.0,79.0
1387,200.33144635,200.4615689625,63.0,83.0
1388,200.82324835,201.29660777499998,66.0,77.0
1389,200.82324835,201.34373879999998,61.0,80.0
1390,200.82324835,201.3488617375,58.0,75.0
1391,200.82324835,201.44209919999997,42.0,79.0
1392,201.56095134999998,201.75664756249998,58.0,78.0
1393,201.56095134999998,201.89599146249998,66.0,79.0
1394,201.56095134999998,201.90828651249998,61.0,82.0
1395,201.56095134999998,202.1470154,42.0,78.0
1396,202.05275335,202.15828586249998,58.0,66.0
1397,202.29865435,202.394965575,61.0,81.0
1398,202.29865435,202.3980393375,58.0,77.0
1399,202.29865435,202.4410720125,42.0,76.0
1400,202.29865435,202.640866575,66.0,76.0
1401,202.54455535,202.64906327499997,58.0,70.0
1402,202.79045635,203.12652104999998,63.0,77.0
1403,202.79045635,203.24434861249998,56.0,81.0
1404,202.79045635,203.3550040625,44.0,78.0
1405,203.52815934999998,203.72180638749998,56.0,77.0
1406,203.52815934999998,203.8857403875,60.0,79.0
1407,203.52815934999998,203.92979764999998,63.0,79.0
1408,204.01996135,204.12651845,56.0,66.0
1409,203.52815934999998,204.1521331375,44.0,78.0
1410,204.26586235,204.33041136249997,56.0,70.0
1411,204.26586235,204.3631981625,60.0,80.0
1412,204.26586235,204.36627192499998,63.0,79.0
1413,204.26586235,204.38881285,44.0,79.0
1414,204.26586235,204.41135377499998,68.0,77.0
1415,204.75766435,205.009712875,59.0,79.0
1416,204.75766435,205.01073746249997,47.0,86.0
1417,204.75766435,205.04147508749998,71.0,73.0
1418,205.49536734999998,205.64290795,46.0,78.0
1419,205.49536734999998,205.6715964,70.0,78.0
1420,205.49536734999998,205.7115553125,58.0,78.0
1421,205.98716935,206.08348057499998,66.0,74.0
1422,205.98716935,206.08757892499997,54.0,71.0
1423,205.98716935,206.09270186249998,42.0,78.0
1424,206.23307035,206.68798719999998,54.0,73.0
1425,206.23307035,206.70438059999998,66.0,78.0
1426,206.23307035,206.70642977499998,42.0,78.0
1427,206.72487235,208.7832686375,58.0,75.0
1428,206.72487235,208.80888332499998,63.0,78.0
1429,206.72487235,208.8355226,66.0,77.0
1430,206.72487235,208.83654718749997,39.0,82.0
