,start,end,pitch,velocity
0,1.5835643541666666,1.8855300624999998,50.0,127.0
1,1.9329316562499999,2.366568458333333,53.0,127.0
2,2.4631272604166665,2.708913302083333,58.0,127.0
3,2.740514364583333,4.216986229166666,55.0,124.0
4,4.715580770833333,5.012279635416666,62.0,127.0
5,4.9789229583333325,5.333557104166666,60.0,127.0
6,5.279133052083333,5.579343145833333,58.0,127.0
7,5.558275770833333,5.85146340625,60.0,127.0
8,5.830396031249999,6.076182072916666,62.0,127.0
9,6.107783135416666,7.06283746875,55.0,120.0
10,8.344436114583333,8.621823218749999,50.0,111.0
11,8.64289059375,9.146751979166666,53.0,126.0
12,9.178353041666666,9.436428385416667,58.0,127.0
13,9.446962072916666,10.82336390625,55.0,124.0
14,16.271035958333332,16.55895675,79.0,127.0
15,16.525600072916664,16.846877541666665,77.0,101.0
16,16.815276479166666,17.062818135416666,74.0,107.0
17,17.083907839583333,17.38602707708333,77.0,124.0
18,17.364825727083332,17.672245302083333,74.0,117.0
19,17.642210056249997,17.87365812708333,72.0,111.0
20,17.92666150208333,18.227013960416667,74.0,127.0
21,18.182844481249997,18.506165068749997,72.0,117.0
22,18.465529147916666,18.73231280208333,70.0,127.0
23,18.762348047916664,19.07153440208333,72.0,123.0
24,19.029131702083333,19.327717381249997,70.0,127.0
25,19.317116706249998,19.583900360416663,67.0,84.0
26,19.615702385416665,19.891319935416664,70.0,127.0
27,19.891319935416664,20.189047804166666,67.0,90.0
28,20.169544277083332,20.423090129166667,65.0,111.0
29,20.465643279166667,20.74401180208333,67.0,120.0
30,20.722735227083334,21.024153372916665,65.0,116.0
31,20.990465462499998,21.247557410416665,62.0,113.0
32,21.279472272916667,21.577344322916666,65.0,127.0
33,21.545429460416667,21.843301510416666,62.0,114.0
34,21.811386647916667,21.962095720833332,60.0,120.0
35,22.111031745833333,22.430180370833334,62.0,124.0
36,22.39826550833333,22.611031258333334,60.0,108.0
37,22.66599574375,22.944364266666668,58.0,87.0
38,22.919541595833334,23.24932850833333,55.0,78.0
39,29.199945922916665,29.463931672916665,58.0,80.0
40,29.479665922916666,29.706938422916664,65.0,87.0
41,29.764630672916667,31.173720172916667,63.0,55.0
42,38.73347187708333,39.03628826875,62.0,69.0
43,39.02748546666666,39.26692168333333,60.0,85.0
44,39.29333008958333,39.57501975624999,58.0,61.0
45,39.57149863541666,39.735230754166665,55.0,68.0
46,39.865512224999996,41.26339719583333,58.0,69.0
47,47.96383078541666,48.235760524999996,55.0,74.0
48,48.26032192083333,48.34102365,61.0,39.0
49,48.293655243749996,48.55681305624999,62.0,72.0
50,48.53576043125,49.50242679583333,60.0,56.0
51,49.43751453541666,49.75505829583333,58.0,61.0
52,49.71295304583333,49.894447943749995,55.0,64.0
53,49.99868791458333,51.452747168749994,53.0,71.0
54,55.87157876666666,56.20666638124999,55.0,66.0
55,56.15754358958333,56.43298209999999,58.0,67.0
56,56.43298209999999,56.75929778749999,65.0,80.0
57,56.73824516249999,58.07684123541666,63.0,80.0
58,72.50477174999999,72.82519374583333,62.0,64.0
59,72.80758814166666,72.87977111875,66.0,72.0
60,72.8111092625,73.11920733541666,67.0,103.0
61,73.0857566875,73.33223514583332,65.0,87.0
62,73.34279850833333,73.5716713625,62.0,70.0
63,73.62096705416666,75.29173888958333,60.0,74.0
64,78.95546511666666,79.23539422291665,58.0,66.0
65,79.23011254166666,79.57166126249999,60.0,90.0
66,79.48187268125,79.61391471249999,61.0,66.0
67,79.57694294375,79.84278756666666,62.0,74.0
68,79.81109747916666,79.99595632291665,63.0,80.0
69,80.05229425625,80.41144858125,65.0,93.0
70,80.36215288958333,81.51003828124999,67.0,63.0
71,82.011798,83.06989481041666,70.0,66.0
72,82.01884024166665,83.08750041458333,67.0,58.0
73,83.69841487916666,85.6561580625,62.0,68.0
74,83.69489375833332,85.67376366666666,65.0,68.0
75,86.23538243958333,86.54171995208333,62.0,74.0
76,86.51355098541666,86.80228289374999,63.0,87.0
77,86.80228289374999,86.93608548541665,65.0,87.0
78,87.09805704374999,87.21249347083332,66.0,68.0
79,87.12798657083333,89.51002481458332,67.0,69.0
80,89.62974292291666,90.37622053958333,63.0,68.0
81,89.62798236249999,90.44136127499999,67.0,85.0
82,90.483614725,93.13853983333333,65.0,70.0
83,93.28818746875,93.57163769583333,65.0,85.0
84,93.56987713541666,93.87797520833332,62.0,80.0
85,93.86213016458333,93.96776378958333,66.0,69.0
86,93.90086249375,95.35860651875,67.0,80.0
87,95.54170480208333,96.62092833749999,65.0,70.0
88,95.54170480208333,96.66142122708332,69.0,90.0
89,96.72128028124999,97.00296994791665,67.0,83.0
90,97.00473050833332,97.22480056041667,65.0,87.0
91,97.25120896666667,97.89470957916666,70.0,74.0
92,98.11751652708332,98.85260401666666,69.0,93.0
93,98.95435837083332,99.75435812083332,67.0,74.0
94,100.63330521458332,103.40301392083332,63.0,65.0
95,100.63330521458332,103.48928138124998,67.0,69.0
96,103.99280166041666,104.96463101041665,65.0,80.0
97,105.14596873333332,105.39420775208332,65.0,90.0
98,105.39948943333331,105.69350302291666,67.0,80.0
99,105.68998190208332,105.85547458125,65.0,74.0
100,109.90996014166666,110.24504775624999,55.0,66.0
101,110.19592496458333,110.47136347499999,58.0,67.0
102,110.47136347499999,110.79767916249999,65.0,80.0
103,110.7766265375,112.11522261041665,63.0,80.0
104,126.55067427499998,126.87109627083332,62.0,64.0
105,126.85349066666664,126.92567364374999,66.0,72.0
106,126.85701178749999,127.16510986041665,67.0,103.0
107,127.13165921249998,127.37813767083331,65.0,87.0
108,127.38870103333332,127.61757388749999,62.0,70.0
109,127.66686957916664,129.33764141458332,60.0,74.0
110,133.50877496874998,134.2649150833333,65.0,68.0
111,133.51052935416666,134.3456168125,69.0,80.0
112,134.42456415625,134.98596748958332,67.0,68.0
113,134.42982731249998,134.99123064583333,62.0,71.0
114,135.24386214583333,135.450879625,67.0,93.0
115,135.55263397916664,135.69824796875,67.0,93.0
116,135.82982687499998,135.9596513958333,65.0,103.0
117,136.11579169791665,136.63508978124997,67.0,93.0
118,136.70000204166666,137.7964929270833,70.0,102.0
119,138.63158038541664,138.7912294583333,72.0,85.0
120,138.90526451041666,139.06491358333332,72.0,90.0
121,139.16315916666665,139.3385977083333,70.0,87.0
122,139.43158013541665,139.977194,72.0,95.0
123,140.00526416666665,140.63508853124998,67.0,87.0
124,140.6438604583333,140.74912358333333,70.0,102.0
125,140.90877265625,141.03157963541665,72.0,93.0
126,141.1877199375,141.58245665624997,74.0,102.0
127,141.72631626041664,141.86666709374998,74.0,93.0
128,142.00526354166666,142.4807019895833,74.0,102.0
129,142.56666687499998,142.70175455208332,74.0,90.0
130,142.84561415624998,143.25789472916665,72.0,95.0
131,143.37719293749998,143.6333332083333,72.0,87.0
132,143.7385963333333,144.12631551041665,72.0,85.0
133,144.25263126041665,144.39824524999997,70.0,93.0
134,144.52631538541664,144.97719243749998,72.0,87.0
135,145.06315732291665,145.50175367708331,67.0,87.0
136,145.6385957395833,145.86842022916665,67.0,85.0
137,145.92806933333333,146.08070086458332,65.0,95.0
138,146.22105169791666,146.85964798958332,67.0,93.0
139,147.37017414583332,147.53684076041665,70.0,83.0
140,147.63157757291665,147.78070033333333,72.0,93.0
141,147.92105116666664,148.3754369895833,74.0,70.0
142,148.47368257291666,148.7035070625,74.0,95.0
143,148.73333161458334,149.28771740624998,74.0,95.0
144,149.28420863541666,149.45087525,72.0,74.0
145,149.57719099999997,150.13157679166665,72.0,83.0
146,150.15262941666666,150.44385739583333,72.0,100.0
147,150.47719071875,150.9280677708333,72.0,95.0
148,150.99473441666666,151.16490980208332,77.0,93.0
149,151.27894485416664,151.83157626041665,79.0,93.0
150,151.84385695833333,152.25964630208333,74.0,80.0
151,152.41578660416664,152.62104969791665,74.0,95.0
152,152.671926875,152.8298215625,72.0,87.0
153,152.9771899375,153.56666343749998,74.0,95.0
154,153.8070142395833,154.01578610416666,74.0,102.0
155,154.10701414583332,154.2403474375,72.0,87.0
156,154.35789126041666,154.51929471875,70.0,87.0
157,154.64210169791664,155.07894366666665,74.0,93.0
158,155.19648748958332,156.37894326041666,72.0,90.0
159,157.21753948958332,157.35262716666665,70.0,102.0
160,157.47017098958332,157.62455690624998,70.0,102.0
161,157.72631126041665,157.87543402083332,67.0,90.0
162,158.0070129270833,158.48420576041664,72.0,80.0
163,158.54034609374997,159.38245109374998,70.0,90.0
164,159.96315266666664,160.24209994791664,58.0,66.0
165,160.23683679166666,160.5771875625,60.0,90.0
166,160.48771390624998,160.6192928125,61.0,66.0
167,160.58245071874998,160.84736291666667,62.0,74.0
168,160.81578397916667,160.99999444791666,63.0,80.0
169,161.05613478125,161.4129163625,65.0,93.0
170,161.36413604583333,162.5000205625,67.0,63.0
171,162.9965345,164.04731191666664,70.0,66.0
172,163.00350311666665,164.06485577083333,67.0,58.0
173,164.67362751041665,166.63448853125,62.0,68.0
174,164.67011873958333,166.65221901041667,65.0,68.0
175,167.21782129583335,167.52633163333334,62.0,74.0
176,167.49796286666668,167.788742725,63.0,87.0
177,167.788742725,167.92349436666666,65.0,87.0
178,168.08661477500002,168.20186288958334,66.0,68.0
179,168.11675658958333,170.51569042083335,67.0,69.0
180,170.63625767916668,171.38802999583334,63.0,68.0
181,170.63448463125002,171.45363276875,67.0,85.0
182,171.49618591875,174.16994217708333,65.0,70.0
183,174.32065125,174.60611196458333,65.0,85.0
184,174.60433891666668,174.91462230208333,62.0,80.0
185,174.89866487083333,175.00504774583334,66.0,69.0
186,174.93767192500002,176.4057556,67.0,80.0
187,176.59015258333335,177.67530768125002,65.0,70.0
188,176.59015258333335,177.71580057083335,69.0,90.0
189,177.775659625,178.0573492916667,67.0,83.0
190,178.05910985208334,178.27917990416668,65.0,87.0
191,178.30558831041668,178.94995342291668,70.0,74.0
192,179.17354459583336,179.9112194104167,69.0,93.0
193,180.01333191458335,180.81614746458334,67.0,74.0
194,181.69818823333335,184.47107088958336,63.0,65.0
195,181.69818823333335,184.55682297500002,67.0,69.0
196,185.05507906666668,186.01674816666667,65.0,80.0
197,186.19619004583336,186.44183378333335,65.0,90.0
198,186.44706024583334,186.7379999916667,67.0,80.0
199,186.73451568333334,186.89827817500003,65.0,74.0
200,190.94230756041668,191.2785746,55.0,66.0
201,191.22927890833336,191.50568689375,58.0,67.0
202,191.50568689375,191.83315113125002,65.0,80.0
203,191.81202440625003,193.1553320041667,63.0,80.0
204,207.55447466875003,207.87377281458336,62.0,64.0
205,207.8562289604167,207.92815876250003,66.0,72.0
206,207.85973773125002,208.1667551791667,67.0,103.0
207,208.13342185625004,208.37903581458337,65.0,87.0
208,208.38956212708337,208.61763223125004,62.0,70.0
209,208.6667550229167,210.3287708666667,60.0,74.0
210,216.84711528333335,216.90011865833335,73.0,95.0
211,216.85241562083337,217.09269758750003,74.0,95.0
212,217.14923452083337,218.44781720833336,72.0,68.0
213,221.05968274166668,221.18599849166668,70.0,51.0
214,221.33512125208335,221.53512118958335,72.0,74.0
215,221.66494571041667,221.78424391875,70.0,34.0
216,221.8947702,222.01582279375,72.0,69.0
217,222.19652449166668,222.25091043958335,73.0,63.0
218,222.21231396041668,222.5175770229167,74.0,87.0
219,222.7333664291667,223.69827840833335,72.0,80.0
220,223.85090993958335,224.75465257083337,65.0,65.0
221,223.85090993958335,224.77055358333337,69.0,72.0
222,225.56737098750003,226.83103271041668,70.0,61.0
223,225.5585370916667,226.87017854791668,74.0,74.0
224,231.76103895625002,232.0522669354167,67.0,74.0
225,232.04349500833337,232.20665285208335,65.0,80.0
226,232.32419667500002,234.2733188729167,67.0,80.0
227,234.44349425833337,234.59612578958337,65.0,90.0
228,234.6575292791667,234.79086257083335,67.0,74.0
229,234.88209061250004,235.16630105000004,69.0,87.0
230,235.32770450833337,235.4943711229167,69.0,102.0
231,235.4891079666667,235.6259500291667,67.0,65.0
232,235.65402019583337,235.74349385208336,65.0,71.0
233,235.7733184041667,237.31366880000002,62.0,69.0
234,237.71366867500004,237.8575282791667,60.0,80.0
235,237.95051070625004,238.08559838333338,62.0,68.0
236,238.2259492166667,238.48033510208336,65.0,74.0
237,238.49787895625002,238.67156311250002,60.0,74.0
238,238.7733174666667,239.89086097708338,62.0,70.0
239,241.8943691229167,242.0206848729167,77.0,80.0
240,242.03471995625003,242.18208833125004,79.0,74.0
241,242.17507078958337,243.50840370625002,81.0,93.0
242,243.5522633416667,243.72419311250002,77.0,93.0
243,243.75050889375004,243.94700006041668,79.0,87.0
244,243.95401760208335,245.04875410208336,74.0,72.0
245,245.2785785916667,245.59261358125002,72.0,83.0
246,245.55577148750004,245.75401703958337,79.0,80.0
247,245.8312099979167,246.34524492500003,72.0,93.0
248,247.79787605000004,247.91892864375004,70.0,66.0
249,248.05050755000002,248.17156014375004,72.0,72.0
250,246.32770107083337,248.17156014375004,74.0,85.0
251,248.34524430000002,248.49261267500003,74.0,90.0
252,248.63296350833338,248.77682311250004,70.0,70.0
253,248.90840201875002,249.0312089979167,72.0,71.0
254,249.2312089354167,249.39612116458335,74.0,61.0
255,249.40840186250003,249.53471761250003,72.0,80.0
256,249.53120884166668,249.65050705000004,70.0,47.0
257,249.66629651875002,251.29787495625004,67.0,54.0
258,252.0312080604167,252.21717291458336,65.0,74.0
259,252.28033078958336,252.45401494583336,67.0,71.0
260,252.56103245625002,254.29085647708337,67.0,72.0
261,254.5312072791667,254.62945286250005,73.0,102.0
262,254.54348797708337,254.85927735208335,74.0,105.0
263,254.82068087291668,254.94348785208336,72.0,83.0
264,255.08208430000002,255.38032982083337,70.0,65.0
265,255.34875088333337,255.51892626875002,67.0,65.0
266,255.66454025833337,255.78734723750003,74.0,95.0
267,255.63822447708336,255.85401388333335,65.0,66.0
268,255.92418930000002,256.0119085708334,78.0,93.0
269,255.94348753958337,256.18208395625004,79.0,105.0
270,256.20313658125,256.2926102375,77.0,93.0
271,256.4680487791667,256.5662943625,74.0,87.0
272,256.7575223729167,256.8206802479167,78.0,103.0
273,256.7575223729167,256.8785749666667,74.0,93.0
274,256.7627855291667,256.93296091458336,79.0,116.0
275,257.02945211250005,257.14875032083336,77.0,102.0
276,257.28032922708337,257.39787305000004,74.0,95.0
277,257.60839930000003,257.7575220604167,77.0,102.0
278,257.60839930000003,257.7943641541667,74.0,72.0
279,257.90138166458337,257.98559216458335,73.0,71.0
280,257.9136623625,258.1891008729167,74.0,110.0
281,258.1978728,258.33296047708336,72.0,70.0
282,258.47682008125,258.7101533416667,70.0,83.0
283,258.7434866645834,258.89787258125006,67.0,68.0
284,259.04524095625004,259.2487496645834,65.0,64.0
285,259.3469952479167,259.42418820625005,66.0,69.0
286,259.3522584041667,259.5469951854167,67.0,87.0
287,259.64348638333337,259.77155651875,65.0,80.0
288,259.9364687479167,260.0908546645834,62.0,83.0
289,260.2627844354167,260.4575212166667,60.0,80.0
290,260.5733106541667,260.82769653958337,58.0,83.0
291,260.9048894979167,261.16629292500005,53.0,93.0
292,261.3066437583334,263.3540115395834,55.0,83.0
