,start,end,pitch,velocity
0,27.217430422916667,27.423723922916665,65.0,93.0
1,27.525122422916667,27.670227172916665,67.0,93.0
2,27.801345922916667,27.930716422916667,65.0,103.0
3,28.086310672916667,28.603792672916665,67.0,93.0
4,28.668477922916665,29.761134172916666,70.0,102.0
5,30.593301172916664,30.752391922916665,72.0,85.0
6,30.866028172916664,31.025118922916665,72.0,90.0
7,31.123020922916666,31.297845922916665,70.0,87.0
8,31.390503172916667,31.934208922916667,72.0,95.0
9,31.962180922916666,32.58980267291667,67.0,87.0
10,32.59854392291667,32.70343892291667,70.0,102.0
11,32.862529672916665,32.984907172916664,72.0,93.0
12,33.140501422916664,33.53385767291667,74.0,102.0
13,33.67721417291666,33.81707417291666,74.0,93.0
14,33.95518592291667,34.428961672916664,74.0,102.0
15,34.514625922916665,34.64924117291667,74.0,90.0
16,34.79259767291666,35.20343642291667,74.0,95.0
17,35.32231742291667,35.577561922916665,72.0,87.0
18,35.913225922916666,36.068820172916666,72.0,85.0
19,36.19469417291667,36.339798922916664,70.0,93.0
20,36.467421172916666,36.91833408749999,72.0,87.0
21,37.004601547916664,37.44474165208333,67.0,87.0
22,37.58206536458333,37.81269877916666,67.0,85.0
23,37.87255783333333,38.02572658958333,65.0,95.0
24,38.16657142291666,38.80741541458333,67.0,93.0
25,39.31973849583333,39.486991735416666,70.0,83.0
26,39.58206199791666,39.73170963333333,72.0,93.0
27,39.872554466666664,40.32853961458333,74.0,70.0
28,40.42713099791666,40.83029933333333,74.0,95.0
29,40.96234136458333,41.244031031249996,74.0,95.0
30,41.24050991041666,41.407763149999994,72.0,74.0
31,41.53452349999999,42.17184637083333,72.0,83.0
32,42.437690993749996,42.890155020833326,72.0,95.0
33,42.957056316666666,43.12783067708333,77.0,93.0
34,43.242267104166665,43.79541103541666,79.0,93.0
35,43.80769173333333,44.22348107708333,74.0,80.0
36,44.37962137916666,44.58488447291666,74.0,95.0
37,44.63576164999999,44.793656337499996,72.0,87.0
38,44.941024712499996,45.53049821249999,74.0,95.0
39,45.77084901458333,45.97962087916666,74.0,102.0
40,46.07084892083333,46.204182212499994,72.0,87.0
41,46.32172603541666,46.48312949374999,70.0,87.0
42,46.60593647291666,47.04277844166666,74.0,93.0
43,47.16032226458333,48.34277803541666,72.0,90.0
44,49.181374264583326,49.31646194166666,70.0,102.0
45,49.434005764583326,49.588391681249995,70.0,102.0
46,49.69014603541666,49.83967778958333,67.0,90.0
47,49.96158555208333,50.258404452083326,70.0,95.0
48,50.23896988124999,50.364411202083325,67.0,71.0
49,50.49515286041666,51.87147383124999,65.0,87.0
50,54.18385999583332,54.39087747499999,67.0,93.0
51,54.492631829166655,54.63824581874999,67.0,93.0
52,54.76982472499999,54.899649245833324,65.0,103.0
53,55.05578954791666,55.57508763124999,67.0,93.0
54,55.639999891666655,56.736490777083326,70.0,102.0
55,57.57157823541666,57.731227308333324,72.0,85.0
56,57.845262360416655,58.004911433333326,72.0,90.0
57,58.10315701666666,58.27859555833332,70.0,87.0
58,58.37157798541666,58.917191849999995,72.0,95.0
59,58.94526201666666,59.57508638124999,67.0,87.0
60,59.583858308333326,59.68912143333333,70.0,102.0
61,59.84877050624999,59.97157748541666,72.0,93.0
62,60.12771778749999,60.52245450624999,74.0,102.0
63,60.66631411041666,60.80666494374999,74.0,93.0
64,60.945261391666655,61.42069983958332,74.0,102.0
65,61.50666472499999,61.64175240208333,74.0,90.0
66,61.78561200624999,62.197892579166655,72.0,95.0
67,62.31719078749999,62.57333105833332,72.0,87.0
68,62.678594183333324,63.06631336041666,72.0,85.0
69,63.19262911041666,63.33824309999999,70.0,93.0
70,63.466313235416656,63.91719028749999,72.0,87.0
71,64.00315517291666,64.44316560208333,67.0,87.0
72,64.58048931458333,64.81112272916666,67.0,85.0
73,64.87098178333332,65.02415053958333,65.0,95.0
74,65.16499537291666,65.80583936458332,67.0,93.0
75,66.31816244583332,66.48541568541665,70.0,83.0
76,66.58048594791666,66.73013358333333,72.0,93.0
77,66.87097841666666,67.32696356458332,74.0,70.0
78,67.42555494791667,67.65618836249999,74.0,95.0
79,67.68611788958333,68.24245498124999,74.0,95.0
80,68.23893386041667,68.4061871,72.0,74.0
81,68.53294745,69.08928454166666,72.0,83.0
82,69.11041126666666,69.40266429583333,72.0,100.0
83,69.43611494375,69.88857897083332,72.0,95.0
84,69.95548026666665,70.12625462708333,77.0,93.0
85,70.24069105416666,70.79526758541667,79.0,93.0
86,70.80759150833333,71.22484432708333,74.0,80.0
87,71.38153420416666,71.58751977291666,74.0,95.0
88,71.63857602499999,71.79702646249999,72.0,87.0
89,71.9449135375,72.5364618375,74.0,95.0
90,72.77765861458333,72.98716530416667,74.0,102.0
91,73.07871444583333,73.21251703749999,72.0,87.0
92,73.33047458541665,73.49244614374999,70.0,87.0
93,73.61568537291666,74.05406491666666,74.0,93.0
94,74.17202246458332,75.35864018541666,72.0,90.0
95,76.20018806458333,76.33575121666667,70.0,102.0
96,76.45370876458333,76.60863808124999,70.0,102.0
97,76.71075058541666,76.86039822083333,67.0,90.0
98,76.99244025208333,77.47131268541666,72.0,80.0
99,77.52765061874999,79.34807008958333,70.0,90.0
100,81.18961628541666,81.61567190624999,79.0,95.0
101,81.74419281666667,81.86919260625,79.0,93.0
102,82.02764304374999,82.45898034583333,79.0,103.0
103,82.59630405833333,82.76531785833333,79.0,93.0
104,83.15968339166666,83.342781675,77.0,102.0
105,83.43257025624999,83.64207694583332,74.0,93.0
106,83.71954160416666,84.1772873125,79.0,90.0
107,84.27059701458333,84.41144184791666,77.0,102.0
108,84.57517396666665,84.84982139166667,77.0,110.0
109,84.84982139166667,85.12270825625,77.0,110.0
110,85.16848282708332,85.33221494583333,74.0,85.0
111,85.44841193333332,85.89559427916666,79.0,83.0
112,85.98010117916667,87.0293951875,77.0,105.0
113,87.98361893333333,88.36742110416665,79.0,95.0
114,88.53643490416667,88.65791357291666,79.0,93.0
115,88.8040400875,89.23185626875,79.0,102.0
116,89.35861661874999,89.7864328,79.0,102.0
117,89.92023539166667,90.15438992708333,77.0,105.0
118,90.20192505833333,90.33748821041667,74.0,102.0
119,90.47129080208333,91.07692358541667,79.0,102.0
120,91.05931798124999,91.85157016874999,77.0,103.0
121,91.84276736666666,92.14734431874999,74.0,80.0
122,92.16142880208332,93.09980750416666,77.0,103.0
123,93.314595875,93.45896182916667,74.0,103.0
124,93.58748273958332,93.72480645208333,77.0,102.0
125,93.8533273625,94.56283321041666,79.0,95.0
126,94.68607243958333,95.17022655416666,79.0,87.0
127,95.28466298125,95.50825415416666,79.0,103.0
128,95.58747937291666,96.0399434,81.0,93.0
129,96.16318262916667,96.86388567499999,81.0,95.0
130,96.96247705833332,97.16494150624999,77.0,105.0
131,97.26177232916666,97.98769200624999,82.0,93.0
132,98.0771656625,98.86839348541666,81.0,103.0
133,98.94909521458332,99.62804237083333,79.0,105.0
134,99.81751599583332,99.97541068333332,74.0,102.0
135,100.09295450624998,100.26312989166665,72.0,95.0
136,100.35260354791666,100.52628770416665,70.0,93.0
137,100.63505959999999,101.11576120416666,72.0,90.0
138,101.22628748541665,101.82731234791666,72.0,93.0
139,102.05618520208333,102.23048068333333,70.0,87.0
140,102.34139598958332,102.75688824791665,72.0,93.0
141,102.89421196041665,103.06850744166665,65.0,103.0
142,103.18470442916666,103.32378870208332,79.0,102.0
143,103.45230961249999,103.61252061041665,79.0,93.0
144,103.73047815833333,103.91005532083332,74.0,93.0
145,104.01216782499999,104.44174456666666,79.0,102.0
146,104.62132172916665,105.16709545833332,77.0,105.0
147,105.14244761249999,105.43294008124998,79.0,87.0
148,105.41181335625,105.54737650833331,77.0,103.0
149,105.70758750625,107.24983843124998,77.0,102.0
150,108.21990722083332,108.42765334999999,67.0,93.0
151,108.52976585416666,108.67589236874998,67.0,93.0
152,108.8079344,108.93803062083332,65.0,103.0
153,109.09417092291665,109.61346900624999,67.0,93.0
154,109.67838126666665,110.77487215208332,70.0,102.0
155,111.60995961041665,111.76960868333332,72.0,85.0
156,111.88364373541665,112.04329280833332,72.0,90.0
157,112.14153839166666,112.31697693333332,70.0,87.0
158,112.40995936041665,112.95557322499998,72.0,95.0
159,112.98364339166665,113.61346775624999,67.0,87.0
160,113.62223968333332,113.72750280833333,70.0,102.0
161,113.88715188124999,114.00995886041666,72.0,93.0
162,114.16609916249999,114.56083588124999,74.0,102.0
163,114.70469548541665,114.84504631874998,74.0,93.0
164,114.98364276666665,115.45908121458332,74.0,102.0
165,115.5450461,115.68013377708331,74.0,90.0
166,115.82399338124999,116.23731135416665,72.0,95.0
167,116.35702946249998,116.61407128333332,72.0,87.0
168,116.71970490833331,117.10878876041664,72.0,85.0
169,117.23554911041666,117.38167562499999,70.0,93.0
170,117.51019653541665,117.96266056249998,72.0,87.0
171,118.04892802291666,118.48906812708331,67.0,87.0
172,118.62639183958332,118.85702525416664,67.0,85.0
173,118.91688430833332,119.07005306458332,65.0,95.0
174,119.21089789791665,119.85174188958332,67.0,93.0
175,120.36406497083331,120.53131821041666,70.0,83.0
176,120.62638847291664,120.77603610833332,72.0,93.0
177,120.91688094166665,121.37286608958331,74.0,70.0
178,121.47145747291665,121.70209088749998,74.0,95.0
179,121.73202041458332,122.28835750624998,74.0,95.0
180,122.28483638541665,122.45208962499999,72.0,74.0
181,122.57884997499998,123.13518706666665,72.0,83.0
182,123.15631379166665,123.44856682083332,72.0,100.0
183,123.48201746874999,123.93448149583331,72.0,95.0
184,124.00138279166666,124.17215715208332,77.0,93.0
185,124.28659357916665,124.84117011041666,79.0,93.0
186,124.85349403333332,125.27074685208332,74.0,80.0
187,125.42743672916666,125.63342229791665,74.0,95.0
188,125.68447854999998,125.84292898749999,72.0,87.0
189,125.99081606249999,126.58236436249999,74.0,95.0
190,126.82356113958332,127.03306782916665,74.0,102.0
191,127.12461697083332,127.25841956249998,72.0,87.0
192,127.37637711041666,127.53834866874999,70.0,87.0
193,127.66158789791665,128.09996744166665,74.0,93.0
194,128.2179249895833,129.40454271041665,72.0,90.0
195,130.24659008958332,130.38311477916665,70.0,102.0
196,130.5019089895833,130.65793720624998,70.0,102.0
197,130.76077398541665,130.91148305833332,67.0,90.0
198,131.04446165208333,131.52673068541665,72.0,80.0
199,131.58346821875,133.40702061458333,70.0,90.0
200,162.18294850416666,162.6045498125,79.0,95.0
201,162.73172706666665,162.8554200125,79.0,93.0
202,163.0122138875,163.43904165833334,79.0,103.0
203,163.57538223958332,163.74380323958331,79.0,93.0
204,164.13678557291666,164.31924165625,77.0,102.0
205,164.4087153125,164.61748717708332,74.0,93.0
206,164.69468013541666,165.15082034374998,79.0,90.0
207,165.24380277083333,165.38415360416667,77.0,102.0
208,165.54731144791666,165.82243258541666,77.0,110.0
209,165.82243258541666,166.0972550125,77.0,110.0
210,166.14335425833335,166.30824771458333,74.0,85.0
211,166.42526887708334,166.87562304791666,79.0,83.0
212,166.96072934791667,168.01746590625,77.0,105.0
213,168.97845787708334,169.36498232291666,79.0,95.0
214,169.53519492291667,169.65753522916668,79.0,93.0
215,169.80469820625,170.23554885000001,79.0,102.0
216,170.3632083,170.79405894375,79.0,102.0
217,170.92881058541667,171.16462595833335,77.0,105.0
218,171.21249825208335,171.34902294166668,74.0,102.0
219,171.48377458333334,172.09370306666668,79.0,102.0
220,172.07597258750002,172.87384415,77.0,103.0
221,172.86497891041668,173.1717162,74.0,80.0
222,173.18590058333334,174.13093512291667,77.0,103.0
223,174.34724696875,174.49263689791667,74.0,103.0
224,174.62206939583334,174.76036713333335,77.0,102.0
225,174.88979963125,175.60433794166667,79.0,95.0
226,175.72845129583334,176.21603947291666,79.0,87.0
227,176.33128758750001,176.55646467291666,79.0,103.0
228,176.63625182916667,177.09192514375002,81.0,93.0
229,177.21603849791668,177.91826501875002,81.0,95.0
230,178.01685640208336,178.21932085,77.0,105.0
231,178.31615167291667,179.043263125,82.0,93.0
232,179.13305170625003,179.9270644541667,81.0,103.0
233,180.00805023333334,180.68938711458335,79.0,105.0
234,180.87952763958336,181.03797807708335,74.0,102.0
235,181.155935625,181.32670998541667,72.0,95.0
236,181.4164985666667,181.5907940479167,70.0,93.0
237,181.69994879375002,182.1823423479167,72.0,90.0
238,182.2932576541667,182.8953693166667,72.0,93.0
239,183.12424217083336,183.29853765208335,70.0,87.0
240,183.40945295833336,183.8249452166667,72.0,93.0
241,183.96226892916667,184.1365644104167,65.0,103.0
242,184.2527613979167,184.39184567083336,79.0,102.0
243,184.52023773750003,184.6787737666667,79.0,93.0
244,184.79549809583335,184.97319782083335,74.0,93.0
245,185.0742427625,185.49932837916668,79.0,102.0
246,185.67702810416668,186.21709589583335,77.0,105.0
247,186.1927057375,186.480161175,79.0,87.0
248,186.45925532500002,186.59340119583337,77.0,103.0
249,186.751937225,188.27857965,77.0,102.0
250,189.24864843958335,189.45639456875003,67.0,93.0
251,189.55850707291668,189.7046335875,67.0,93.0
252,189.83667561875,189.96695708958336,65.0,103.0
253,190.12364696666668,190.64477285,67.0,93.0
254,190.7099135854167,191.81026384583336,70.0,102.0
255,192.64829060416668,192.80850160208337,72.0,85.0
256,192.9229380291667,193.08314902708335,72.0,90.0
257,193.1817404104167,193.35779645208336,70.0,87.0
258,193.4509703041667,193.99658416875002,72.0,95.0
259,194.0246543354167,194.65447870000003,67.0,87.0
260,194.66325062708336,194.76851375208338,70.0,102.0
261,194.92816282500004,195.0509698041667,72.0,93.0
262,195.20711010625004,195.60184682500002,74.0,102.0
263,195.7457064291667,195.88605726250003,74.0,93.0
264,196.0246537104167,196.50009215833336,74.0,102.0
265,196.58605704375003,196.72114472083337,74.0,90.0
266,196.86500432500003,197.2772848979167,72.0,95.0
267,197.39658310625003,197.65272337708336,72.0,87.0
268,197.75798650208336,198.1457056791667,72.0,85.0
269,198.2720214291667,198.41763541875002,70.0,93.0
270,198.5457055541667,198.99658260625003,72.0,87.0
271,199.0825474916667,199.52114384583336,67.0,87.0
272,199.65798590833336,199.8878103979167,67.0,85.0
273,199.94745950208338,200.10009103333337,65.0,95.0
274,200.24044186666669,200.87903815833337,67.0,93.0
275,201.38956431458337,201.5562309291667,70.0,83.0
276,201.6509677416667,201.80009050208338,72.0,93.0
277,201.9404413354167,202.39482715833336,74.0,70.0
278,202.4930727416667,202.72289723125004,74.0,95.0
279,202.75272178333336,203.30710757500003,74.0,95.0
280,203.3035988041667,203.47026541875005,72.0,74.0
281,203.59658116875002,204.1509669604167,72.0,83.0
282,204.1720195854167,204.46324756458336,72.0,100.0
283,204.49658088750004,204.94745793958336,72.0,95.0
284,205.0141245854167,205.18429997083337,77.0,93.0
285,205.2983350229167,205.8509664291667,79.0,93.0
286,205.86324712708335,206.27903647083338,74.0,80.0
287,206.4351767729167,206.6404398666667,74.0,95.0
288,206.69131704375002,206.84921173125002,72.0,87.0
289,206.99658010625004,207.58605360625003,74.0,95.0
290,207.82640440833336,208.0351762729167,74.0,102.0
291,208.12640431458337,208.25973760625004,72.0,87.0
292,208.3772814291667,208.53868488750004,70.0,87.0
293,208.6614918666667,209.0983338354167,74.0,93.0
294,209.21587765833337,210.3952043666667,72.0,90.0
295,211.2308678666667,211.3654831166667,70.0,102.0
296,211.4826158666667,211.6364618666667,70.0,102.0
297,211.7378603666667,211.8864616166667,67.0,90.0
298,212.0175803666667,212.4937714166667,72.0,80.0
299,212.55030835000002,214.37715800833337,70.0,90.0
300,214.58563795000003,214.7994182291667,74.0,83.0
301,214.86478905833337,215.02556596250002,72.0,90.0
302,215.11920525833335,215.25878081250002,70.0,87.0
303,215.40542348333335,215.8753867416667,74.0,93.0
304,215.96019214166668,217.73757198333337,72.0,83.0
305,217.9478187041667,218.1333305166667,70.0,93.0
306,218.24640438333336,218.41071484583335,70.0,87.0
307,218.51672159583336,218.72520153750003,67.0,80.0
308,218.81884083333335,219.25523528750003,72.0,93.0
309,219.3683091541667,221.14213885625003,70.0,93.0
310,221.3158230125,221.4859983979167,74.0,90.0
311,221.60003345,221.76845445,72.0,83.0
312,221.87898073125,222.04038418958336,70.0,90.0
313,222.16319116875002,222.63687523125003,74.0,95.0
314,222.75266466875001,224.54793940833335,72.0,87.0
315,224.75641935000002,224.89599490416668,70.0,95.0
316,225.00023487500002,225.2069480375,67.0,87.0
317,225.2617181916667,225.78468482500003,72.0,80.0
318,225.87302378333337,227.6370810916667,70.0,87.0
319,228.1086104979167,228.95558407291668,69.0,87.0
320,228.93779051041668,230.9943725291667,67.0,80.0
