,start,end,pitch,velocity
0,3.6112991979166664,3.7008355416666663,58.0,68.0
1,3.6130548124999997,3.7183916874999996,55.0,69.0
2,2.7545592812499997,4.3504129375,43.0,93.0
3,3.3286452499999997,4.626044427083333,50.0,22.0
4,4.164317791666666,4.819162031249999,55.0,87.0
5,4.1608065624999995,4.899920302083333,58.0,80.0
6,5.263332520833333,5.370425010416667,62.0,80.0
7,5.2598212916666665,5.391492385416666,67.0,74.0
8,5.25104321875,5.395003614583333,58.0,93.0
9,4.445216125,5.863752708333333,43.0,74.0
10,4.96663365625,5.888331312499999,50.0,39.0
11,6.049847854166666,6.766138604166666,62.0,67.0
12,6.058625927083333,6.7678942187499995,55.0,64.0
13,6.917121458333333,6.99963534375,55.0,87.0
14,6.915365843749999,7.004902187499999,62.0,90.0
15,6.659046114583333,7.059326239583333,50.0,33.0
16,6.0621371562499995,7.647457125,43.0,74.0
17,7.791417520833333,8.486640895833332,62.0,72.0
18,7.80019559375,8.5428205625,67.0,72.0
19,8.346191729166666,8.725404479166667,50.0,45.0
20,8.672736041666665,8.862342416666666,62.0,74.0
21,7.7949287499999995,9.246822010416667,43.0,87.0
22,8.907988395833332,9.294223604166666,50.0,64.0
23,8.658691124999999,9.297734833333333,67.0,87.0
24,9.199420416666666,9.489096822916666,62.0,85.0
25,10.3335474375,10.410794479166666,58.0,74.0
26,10.335303052083333,10.431861854166666,55.0,80.0
27,10.335303052083333,10.437128697916666,62.0,93.0
28,10.082494552083332,10.465218531249999,50.0,27.0
29,9.480318749999999,10.509108895833332,43.0,93.0
30,10.872521114583332,11.5133204375,55.0,83.0
31,10.886566031249998,11.557210802083333,62.0,74.0
32,11.718727343749999,11.820552989583332,55.0,49.0
33,11.188531739583333,12.164653447916665,50.0,68.0
34,12.041760427083332,12.282279625,55.0,85.0
35,11.186776125,12.326169989583333,43.0,80.0
36,12.0400048125,12.329681218749998,58.0,87.0
37,12.0400048125,12.524554437499999,62.0,87.0
38,12.296324541666666,12.584245333333332,50.0,64.0
39,12.559666729166667,13.0512388125,55.0,103.0
40,13.718372354166666,13.802641854166666,62.0,90.0
41,13.721883583333332,13.806153083333331,55.0,87.0
42,13.433962791666666,13.858821520833333,50.0,34.0
43,12.861632437499999,14.002781916666665,43.0,93.0
44,14.308258854166665,14.478553468749999,62.0,67.0
45,14.585645958333332,15.107063489583332,62.0,87.0
46,14.576867885416666,15.114085947916665,67.0,80.0
47,15.101796645833332,15.540700291666665,50.0,37.0
48,15.442385875,15.607413645833333,62.0,93.0
49,15.442385875,15.65832646875,70.0,80.0
50,14.580379114583332,16.03753921875,43.0,93.0
51,15.691683145833332,16.046317291666664,50.0,63.0
52,15.956780947916666,16.235923666666665,62.0,87.0
53,17.11570986458333,17.198748485416665,58.0,87.0
54,17.121010202083333,17.204048822916665,55.0,87.0
55,17.11570986458333,17.223483393749998,62.0,93.0
56,16.80298717708333,17.24998508125,50.0,54.0
57,16.26050227083333,17.859523893749998,43.0,93.0
58,17.642210056249997,18.087438406249998,55.0,93.0
59,17.642210056249997,18.142208560416666,58.0,93.0
60,17.638676497916666,18.354222060416664,62.0,95.0
61,18.41959288958333,18.560935222916665,55.0,72.0
62,17.92312794375,18.857754122916663,50.0,60.0
63,18.74291347708333,18.857754122916663,55.0,93.0
64,18.739379918749997,18.863054460416667,58.0,102.0
65,18.746447035416665,18.884255810416665,62.0,102.0
66,19.302982472916664,19.827715885416666,58.0,93.0
67,19.302982472916664,19.845383677083333,62.0,87.0
68,19.60156815208333,19.845383677083333,62.0,72.0
69,19.30651603125,19.88248603958333,55.0,87.0
70,19.60686848958333,19.88248603958333,55.0,74.0
71,20.435501464583332,20.552522627083334,55.0,74.0
72,20.435501464583332,20.593302729166666,58.0,93.0
73,20.43195536875,20.596848825,62.0,95.0
74,20.428409272916667,20.6181254,67.0,87.0
75,19.594501035416666,21.192592925,43.0,93.0
76,20.126991127083333,21.215642547916666,50.0,68.0
77,20.995784606249998,21.944365241666667,58.0,90.0
78,20.995784606249998,21.976280104166666,62.0,93.0
79,20.997557654166666,21.988691439583334,55.0,87.0
80,22.158904039583334,22.205003285416666,55.0,74.0
81,21.85748589375,22.332662735416665,50.0,65.0
82,21.306067991666666,22.53124410208333,43.0,93.0
83,22.45322999375,22.605712114583334,50.0,71.0
84,22.469187424999998,22.650038312499998,41.0,87.0
85,22.744009852083334,22.891172829166667,42.0,87.0
86,22.150038799999997,22.958548649999997,67.0,93.0
87,22.14471965625,22.988690464583332,58.0,103.0
88,22.14471965625,23.03124361458333,62.0,114.0
89,22.979825225,23.277697274999998,43.0,105.0
90,23.83469033125,24.23044886458333,55.0,93.0
91,23.832923552083333,24.53256810208333,58.0,90.0
92,23.831156772916664,24.594405372916665,62.0,95.0
93,24.103240764583333,24.714546356249997,50.0,61.0
94,24.709246018749997,26.179206285416665,58.0,90.0
95,24.396526106249997,26.189806960416664,55.0,83.0
96,24.709246018749997,26.189806960416664,62.0,102.0
97,24.709246018749997,26.207474752083332,67.0,93.0
98,24.696878564583333,26.214541868749997,43.0,93.0
99,26.375318772916664,26.979557247916667,62.0,68.0
100,26.37885233125,26.998899172916666,55.0,68.0
101,27.255891922916664,27.353793922916665,58.0,74.0
102,27.261136672916667,27.357290422916666,55.0,80.0
103,27.255891922916664,27.373024672916667,62.0,83.0
104,26.371785214583333,27.962184922916666,43.0,87.0
105,26.926553872916664,28.009387672916667,50.0,36.0
106,27.743653672916665,28.600296172916664,55.0,74.0
107,28.911484672916664,29.096799172916665,55.0,80.0
108,28.900995172916666,29.224421422916667,58.0,90.0
109,28.652743672916667,29.266379422916664,50.0,23.0
110,28.049597422916666,29.362533172916667,43.0,87.0
111,28.904491672916667,29.390505172916665,62.0,87.0
112,29.458686922916666,29.761134172916666,46.0,71.0
113,29.467428172916666,29.811833422916667,58.0,67.0
114,29.785609672916667,30.093301672916667,60.0,72.0
115,30.607287172916667,30.918475672916667,55.0,80.0
116,30.605538922916665,31.116027922916665,60.0,95.0
117,30.605538922916665,31.157985922916666,63.0,80.0
118,29.769875422916666,31.170223672916666,48.0,72.0
119,31.107286672916665,31.311831922916667,55.0,74.0
120,31.388754922916664,31.984908172916665,62.0,68.0
121,31.407985672916666,32.02162142291667,55.0,72.0
122,31.934208922916667,32.325816922916665,50.0,56.0
123,31.387006672916666,32.66148092291667,43.0,80.0
124,32.220921922916666,32.81707517291667,58.0,74.0
125,32.23315967291666,32.836305922916665,55.0,87.0
126,32.22791492291667,32.86427792291666,62.0,93.0
127,32.829312922916664,33.035606422916665,50.0,61.0
128,33.14574617291667,33.528612922916665,53.0,87.0
129,33.140501422916664,33.787353922916665,58.0,68.0
130,33.65448692291667,33.90623492291667,53.0,69.0
131,33.99714392291666,34.06882217291667,53.0,66.0
132,33.98140967291667,34.49364692291667,58.0,87.0
133,33.977913172916665,34.62826217291666,62.0,93.0
134,34.51112942291667,34.67546492291667,53.0,102.0
135,33.13350842291666,34.687702672916664,46.0,74.0
136,34.80133892291666,35.09854142291667,53.0,83.0
137,34.80483542291667,35.465673922916665,57.0,80.0
138,35.310079672916665,35.60903042291667,53.0,72.0
139,35.66672267291666,35.708680672916664,53.0,59.0
140,34.80308717291666,35.836302922916666,41.0,80.0
141,35.64924017291666,35.864274922916664,57.0,95.0
142,35.645743672916666,35.941197922916665,60.0,85.0
143,36.47441417291667,37.10495349166666,55.0,68.0
144,36.46567292291667,37.13136189791666,58.0,68.0
145,37.617276572916666,37.72995243958333,62.0,80.0
146,37.02748883333333,37.73347356041666,50.0,49.0
147,36.476162422916666,37.97290977708333,43.0,74.0
148,37.583825925,38.07678284166666,58.0,71.0
149,37.8690367125,38.11375461041666,50.0,74.0
150,38.134881335416665,38.66481002083333,58.0,50.0
151,38.13840245625,38.726429635416665,55.0,61.0
152,38.14016301666666,38.72995075625,62.0,87.0
153,38.68593674583333,39.06621779583333,50.0,60.0
154,38.995795379166665,39.26516112291666,58.0,103.0
155,39.00283762083333,39.33206241875,55.0,93.0
156,38.99931649999999,39.353189143749994,62.0,95.0
157,38.152486939583326,39.47290725208333,43.0,95.0
158,39.28628784791666,39.494033977083326,50.0,54.0
159,39.57149863541666,39.81445597291666,57.0,93.0
160,39.865512224999996,40.30389176875,53.0,80.0
161,39.86199110416666,40.37079306458333,58.0,68.0
162,40.46058164583333,40.55389134791666,53.0,36.0
163,39.86727278541666,40.909524552083326,46.0,74.0
164,40.705299543749994,41.00811593541666,58.0,90.0
165,40.71234178541666,41.131355164583326,62.0,90.0
166,41.53804462083333,42.16304356875,65.0,72.0
167,41.55036854375,42.214099820833326,57.0,70.0
168,41.54156574166666,42.252832149999996,60.0,69.0
169,42.40600090624999,42.55564854166666,57.0,93.0
170,42.400719224999996,42.722901781249995,60.0,102.0
171,41.53628406041666,42.76867635208333,41.0,80.0
172,42.09790283333333,42.77395803333333,48.0,47.0
173,42.4112825875,42.77747915416666,65.0,87.0
174,42.675366649999994,42.83733820833333,57.0,80.0
175,42.953535195833325,42.99402808541666,57.0,28.0
176,42.944732393749995,43.06797162291666,60.0,87.0
177,43.22642206041666,43.91120047291666,55.0,69.0
178,43.22818262083333,43.92874432708333,58.0,66.0
179,44.09365655625,44.186638983333324,55.0,93.0
180,44.09014778541666,44.18839336874999,62.0,93.0
181,43.77962156666666,44.80593703541666,50.0,41.0
182,43.242267104166665,44.83225281666666,43.0,87.0
183,44.95155102499999,45.17962112916666,55.0,71.0
184,44.94277909791666,45.32874388958333,67.0,80.0
185,45.470849108333326,45.86558582708333,50.0,51.0
186,45.793656025,46.023480514583326,62.0,103.0
187,45.793656025,46.06909453541666,70.0,102.0
188,44.95330541041666,46.155059420833325,43.0,93.0
189,46.05155068124999,46.22172606666666,50.0,74.0
190,46.625234712499996,47.20067312916666,63.0,74.0
191,46.62698909791666,47.21470821249999,60.0,71.0
192,47.10067316041666,47.52698881666666,55.0,50.0
193,47.43576077499999,47.53576074375,67.0,95.0
194,47.439269545833326,47.54102389999999,60.0,95.0
195,46.62874348333333,48.15856756666666,48.0,83.0
196,47.98137463958333,48.17962019166666,60.0,63.0
197,47.70593612916666,48.24804122291666,55.0,58.0
198,48.31119909791666,48.3726025875,63.0,43.0
199,48.83751472291666,49.16733918124999,55.0,53.0
200,49.125233931249994,49.37435666041666,60.0,87.0
201,49.118216389583324,49.40418121249999,63.0,102.0
202,48.277865774999995,49.42874260833333,48.0,64.0
203,49.40067244166666,49.514707493749995,55.0,95.0
204,49.66558463958333,49.84144456874999,60.0,93.0
205,49.97395300624999,50.327308839583324,65.0,83.0
206,49.97395300624999,50.376778656249996,60.0,74.0
207,50.46688439374999,51.17889639791666,48.0,41.0
208,51.081723543749995,51.29020348541666,53.0,87.0
209,51.074656427083326,51.32553906875,60.0,87.0
210,49.95805199375,51.431545818749996,41.0,80.0
211,51.35557431458333,51.61705763124999,48.0,69.0
212,51.659460331249996,52.64708988541666,53.0,85.0
213,51.65592677291666,52.65769056041666,57.0,83.0
214,51.64709287708333,52.70539359791666,41.0,85.0
215,53.36616900625,54.018947766666656,62.0,74.0
216,53.375002902083324,54.05578986041666,55.0,72.0
217,54.199649464583324,54.32245644374999,62.0,87.0
218,54.20140384999999,54.33122837083332,58.0,70.0
219,54.199649464583324,54.33298275624999,55.0,80.0
220,53.36793578541666,54.873333464583325,43.0,87.0
221,53.89964955833332,54.91192994374999,50.0,63.0
222,55.89614016249999,56.13824534999999,62.0,87.0
223,55.899648933333324,56.168069902083325,55.0,93.0
224,56.19789445416666,56.47333296458332,50.0,56.0
225,55.03473692291666,56.56105223541666,43.0,70.0
226,56.44701718333332,56.680350443749994,58.0,72.0
227,56.74350831874999,57.19789414166666,55.0,74.0
228,56.73999954791666,57.26456078749999,60.0,72.0
229,57.60315717291666,57.739999235416654,55.0,87.0
230,57.59087647499999,57.755788704166655,63.0,80.0
231,56.752280245833326,58.12245525624999,48.0,69.0
232,58.413683235416656,59.25403384999999,58.0,65.0
233,58.41894639166666,59.26280577708332,55.0,67.0
234,59.52420920416666,59.650524954166656,62.0,87.0
235,59.53298113124999,59.68561266249999,55.0,93.0
236,59.26982331874999,59.79087578749999,50.0,63.0
237,58.44350778749999,59.81017402708332,43.0,87.0
238,59.813682797916655,60.041752902083324,57.0,85.0
239,60.113682704166656,60.59789307916666,53.0,74.0
240,60.108419547916654,60.65578779791666,58.0,66.0
241,60.699647433333325,60.847015808333325,53.0,59.0
242,60.99087541249999,61.22245428749999,53.0,74.0
243,60.12596340208332,61.24175252708332,46.0,72.0
244,60.983857870833326,61.24877006874999,58.0,68.0
245,60.98210348541666,61.457541933333324,62.0,87.0
246,61.789120777083326,62.10315576666666,57.0,70.0
247,61.789120777083326,62.51368195416666,60.0,80.0
248,62.31368201666666,62.52069949583333,57.0,64.0
249,61.783857620833324,62.84876956874999,41.0,71.0
250,62.636488933333325,62.85227833958332,57.0,87.0
251,62.63473454791666,62.95052392291666,65.0,90.0
252,62.90841867291665,63.07333090208333,60.0,90.0
253,63.19613788124999,63.31017293333333,57.0,90.0
254,63.48736586041666,64.16147593541666,58.0,69.0
255,63.48912024583333,64.17908153958332,55.0,74.0
256,64.59809491875,64.80760160833333,55.0,93.0
257,64.59457379791667,64.97309428749999,62.0,90.0
258,63.492629016666655,65.00302381458333,43.0,87.0
259,64.85865786041666,65.14386864791666,50.0,66.0
260,65.14915032916666,65.73893806874999,58.0,68.0
261,65.15267145,65.77238871666665,55.0,69.0
262,65.99597988958332,66.12450079999999,55.0,93.0
263,65.14386864791666,66.14914864583332,43.0,83.0
264,65.70900854166666,66.15090920624999,50.0,49.0
265,65.99069820833333,66.17027537083332,58.0,87.0
266,65.99245876875,66.33400748958333,62.0,87.0
267,66.27766955624999,66.46604952083332,43.0,93.0
268,66.27766955624999,66.50830297083333,55.0,93.0
269,66.55583810208333,66.85161225208333,45.0,80.0
270,66.57168314583333,66.90266850416666,57.0,93.0
271,66.86041505416667,67.31992132291666,58.0,93.0
272,67.37273813541665,67.59104762708333,53.0,80.0
273,67.72661077916666,67.77062478958332,53.0,60.0
274,66.85865449375,68.11569463125,46.0,87.0
275,67.69316013125,68.19668041041666,58.0,80.0
276,68.22660993749999,68.32168019999999,53.0,93.0
277,67.70548405416666,68.385060375,62.0,85.0
278,68.52766576875,69.23717161666666,57.0,74.0
279,68.52590520833333,69.28822786875,60.0,80.0
280,69.40794597708333,69.56111473333333,57.0,80.0
281,68.53998969166666,69.61217098541665,41.0,74.0
282,69.07872117916666,69.63329771041666,48.0,33.0
283,69.40618541666666,69.6843539625,60.0,87.0
284,69.40794597708333,69.7582975,65.0,85.0
285,69.68083284166666,69.80583263125,57.0,72.0
286,70.22484601041666,71.06639388958332,58.0,66.0
287,70.22484601041666,71.09104173541667,55.0,68.0
288,71.35688635833333,71.49421007083333,55.0,95.0
289,71.35688635833333,71.55230856458333,62.0,95.0
290,70.21956432916666,71.81111094583332,43.0,87.0
291,71.09280229583332,71.82167430833333,50.0,68.0
292,71.64737882708333,71.82695598958333,58.0,80.0
293,71.93435017499999,72.38681420208333,67.0,87.0
294,71.94667409791666,72.46956054166665,55.0,90.0
295,72.48540558541666,72.86568663541667,50.0,41.0
296,71.93082905416667,72.88857392083332,43.0,90.0
297,72.75125020833333,73.06639052291666,58.0,90.0
298,72.75829245,73.09632004999999,55.0,87.0
299,72.75829245,73.36216467291666,62.0,93.0
300,73.03646099583332,73.42906596875,43.0,64.0
301,73.30230561875,73.44667157291666,55.0,95.0
302,73.58927696666666,73.87800887499999,55.0,83.0
303,73.58927696666666,74.21779703541667,63.0,72.0
304,74.15617742083333,74.38328971458333,55.0,64.0
305,74.46427549375,74.78117636875,60.0,95.0
306,74.7125145125,74.84455654374999,55.0,83.0
307,73.5927980875,75.0505421125,48.0,83.0
308,75.00476754166667,75.13680957291666,60.0,66.0
309,75.28997832916666,75.93082232083333,57.0,72.0
310,75.28645720833333,75.96955464999999,53.0,71.0
311,75.83575205833333,76.27413160208333,48.0,50.0
312,76.15441349375,76.35335682083333,53.0,95.0
313,76.15265293333333,76.37272298541666,60.0,87.0
314,75.29526001041665,76.46075100624999,41.0,85.0
315,76.99596137291667,77.27765103958333,53.0,80.0
316,76.98715857083333,77.52941117916666,58.0,71.0
317,77.50476333333333,77.6280025625,53.0,51.0
318,78.10687499583332,78.2195508625,53.0,85.0
319,78.103353875,78.47131100208333,62.0,87.0
320,76.99948249375,78.51884613333333,46.0,71.0
321,78.38504354166666,78.55229678124999,53.0,80.0
322,78.6632120875,78.84278925,53.0,74.0
323,78.65969096666666,78.98891576458333,58.0,80.0
324,78.9378595125,79.05581706041666,53.0,71.0
325,79.22307029999999,79.30933776041667,58.0,63.0
326,79.22835198125,79.32518280416666,62.0,66.0
327,79.22835198125,79.32694336458333,53.0,68.0
328,78.65969096666666,79.68433712916666,46.0,85.0
329,79.51708388958332,79.73187226041667,53.0,103.0
330,79.51356276874999,79.85687204999999,58.0,105.0
331,79.51708388958332,79.89560437916666,62.0,103.0
332,79.77940739166667,79.95370287291667,46.0,68.0
333,80.06461817916666,80.13680115624999,53.0,80.0
334,80.34102616458333,80.53468781041666,55.0,74.0
335,80.33398392291666,80.53644837083333,39.0,61.0
336,80.33574448333333,80.53644837083333,58.0,65.0
337,80.34454728541667,80.53996949166665,51.0,59.0
338,80.62095527083332,80.74595506041666,39.0,72.0
339,80.62975807291666,80.765321225,58.0,74.0
340,80.63327919374998,80.76708178541666,55.0,93.0
341,80.63680031458333,80.77412402708333,51.0,70.0
342,80.89384213541666,81.05581369375,58.0,66.0
343,80.90264493749999,81.061095375,51.0,59.0
344,80.89912381666666,81.061095375,55.0,71.0
345,80.88679989375,81.06637705624999,39.0,65.0
346,81.19489796666666,81.36391176666666,51.0,80.0
347,81.19489796666666,81.37799625,55.0,102.0
348,81.19313740624999,81.37799625,58.0,74.0
349,81.18433460416666,81.38503849166666,39.0,85.0
350,82.03644584583333,82.22306524999999,58.0,74.0
351,82.03996696666667,82.23362861249998,51.0,64.0
352,82.35158616041666,82.42729025833333,55.0,43.0
353,82.32165663333333,82.43081137916666,58.0,68.0
354,82.33045943541666,82.44841698333333,51.0,63.0
355,82.59630405833333,82.70193768333333,55.0,83.0
356,82.59278293749999,82.70721936458332,58.0,69.0
357,82.59630405833333,82.71250104583333,51.0,72.0
358,82.02764304374999,82.72834608958333,39.0,68.0
359,82.32693831458333,82.72834608958333,46.0,55.0
360,82.86919092291666,82.94841614166666,58.0,68.0
361,82.87271204375,82.95897950416666,55.0,72.0
362,82.877993725,82.97658510833332,46.0,72.0
363,82.877993725,82.9941907125,39.0,72.0
364,82.86919092291666,82.9941907125,51.0,68.0
365,82.87447260416666,83.01003575624999,63.0,93.0
366,83.7336260875,83.86214699791665,46.0,59.0
367,83.76003449375,83.86566811875,58.0,43.0
368,83.77235841666666,83.86566811875,62.0,36.0
369,83.77059785624999,83.87623148124999,53.0,44.0
370,83.98890734791667,84.10686489583333,46.0,47.0
371,83.99418902916666,84.11742825833332,58.0,53.0
372,83.99947071041666,84.12975218125,53.0,63.0
373,84.00651295208333,84.13151274166665,62.0,53.0
374,84.26707589374999,84.3779912,46.0,74.0
375,84.27939981666665,84.39559680416666,58.0,70.0
376,84.28468149791667,84.39911792499998,53.0,74.0
377,84.28116037708332,84.41848408958333,62.0,71.0
378,84.56637116458333,84.66496254791666,46.0,85.0
379,84.568131725,84.67024422916666,53.0,85.0
380,84.56285004374999,84.67376535,58.0,74.0
381,84.55932892291666,84.68256815208332,62.0,87.0
382,85.413200725,85.53115827291666,46.0,52.0
383,85.39735568124999,85.54172163541666,58.0,58.0
384,85.40967960416666,85.55404555833333,53.0,61.0
385,85.67728478749999,85.76883392916666,46.0,43.0
386,85.67728478749999,85.78467897291665,58.0,54.0
387,85.68784815,85.78643953333332,53.0,59.0
388,85.93960828958333,86.03996023333332,46.0,67.0
389,85.94312941041666,86.047002475,53.0,64.0
390,85.93608716874999,86.05052359583333,58.0,67.0
391,86.2477063625,86.36214278958333,46.0,93.0
392,86.2265796375,86.5223537875,53.0,93.0
393,86.22481907708332,86.55052275416666,58.0,95.0
394,86.53291714999999,86.61918461041665,46.0,71.0
395,86.79876177291666,86.9131982,53.0,95.0
396,87.10685984583333,87.35861998541665,58.0,64.0
397,87.21777515208333,87.36390166666666,55.0,25.0
398,87.12270488958333,87.38326783125,51.0,68.0
399,87.66143637708333,87.74418271666666,51.0,63.0
400,87.66319693749999,87.74418271666666,55.0,71.0
401,87.66319693749999,87.7477038375,58.0,64.0
402,87.948407725,88.02939350416666,55.0,102.0
403,87.95192884583332,88.03467518541666,51.0,85.0
404,87.94488660416665,88.04171742708333,58.0,87.0
405,87.11038096666667,88.09277367916665,39.0,71.0
406,87.35861998541665,88.09453423958333,46.0,39.0
407,88.81988513124999,88.87094138333333,55.0,49.0
408,88.81284288958332,88.89382866874999,51.0,41.0
409,88.78995560416666,88.89734978958333,58.0,55.0
410,89.07340583125,89.12974376458332,55.0,58.0
411,89.08220863333332,89.13326488541666,51.0,37.0
412,89.05932134791666,89.14910992916666,58.0,68.0
413,89.34101101458333,89.42375735416667,51.0,60.0
414,89.34101101458333,89.42375735416667,55.0,70.0
415,89.32868709166667,89.43960239791666,58.0,83.0
416,89.65086964791666,89.70192589999999,55.0,80.0
417,89.6491090875,89.73185542708333,51.0,68.0
418,89.64558796666665,89.74065822916666,63.0,95.0
419,88.77411056041666,89.84981297499999,39.0,56.0
420,90.47833304374998,90.63326236041667,58.0,66.0
421,90.483614725,90.63678348124999,53.0,65.0
422,90.74769878749998,90.8533324125,58.0,65.0
423,90.76530439166666,90.85861409374999,53.0,63.0
424,91.01706453124999,91.12974039791666,58.0,68.0
425,91.02586733333332,91.13326151874999,53.0,63.0
426,91.32164148333332,91.39558502083332,58.0,102.0
427,91.32516260416666,91.40614838333333,53.0,102.0
428,91.32516260416666,91.41671174583333,62.0,95.0
429,90.47129080208333,91.47657079999999,46.0,68.0
430,92.17727384583333,92.24593570208333,58.0,34.0
431,92.17199216458333,92.258259625,53.0,52.0
432,92.43431566666666,92.5434704125,53.0,80.0
433,92.43255510624999,92.5434704125,58.0,80.0
434,92.71424477291666,92.80931503541666,53.0,74.0
435,92.70720253124999,92.80931503541666,58.0,87.0
436,92.99241331875,93.09628638333332,53.0,95.0
437,92.99241331875,93.09980750416666,58.0,102.0
438,92.98889219791666,93.11741310833332,62.0,102.0
439,92.15438656041667,93.30931419375,46.0,56.0
440,93.25297626041666,93.36917324791666,58.0,102.0
441,93.51529976249999,93.60332778333333,53.0,102.0
442,93.84804568125,94.40438277291666,55.0,83.0
443,93.83924287916666,94.42550949791666,58.0,70.0
444,93.84452456041666,94.47128406875,51.0,70.0
445,94.44311510208333,94.71600196666665,46.0,25.0
446,94.65086123124999,94.78114270208333,51.0,90.0
447,94.64734011041666,94.80050886666666,55.0,105.0
448,94.65086123124999,94.81459335,58.0,102.0
449,93.84452456041666,94.83219895416666,39.0,72.0
450,94.93959313958332,95.1103675,46.0,55.0
451,95.23360672916667,95.36036707916666,39.0,52.0
452,95.57163432916666,95.91670417083333,53.0,87.0
453,95.56811320833333,95.95895762083333,57.0,87.0
454,96.10860525625,96.20895719999999,53.0,74.0
455,95.83219727083332,96.52409751458333,48.0,58.0
456,96.42726669166666,96.58395656874998,53.0,103.0
457,96.42198501041666,96.59275937083333,60.0,95.0
458,95.57515545,96.60156217291666,41.0,90.0
459,96.70719579791665,96.86564623541666,48.0,63.0
460,96.98184322291667,97.1279697375,41.0,87.0
461,97.26705401041666,97.39557492083333,53.0,90.0
462,97.26177232916666,97.57691264374999,58.0,87.0
463,97.27233569166665,97.61564497291667,62.0,87.0
464,97.26705401041666,97.72277980833333,46.0,102.0
465,97.53994087499998,97.84558678749998,53.0,102.0
466,97.78593768333332,97.89997273541665,58.0,80.0
467,98.0771656625,98.4350602875,57.0,80.0
468,98.07892004791665,98.47365676666665,60.0,90.0
469,98.08769197499998,98.48418307916666,45.0,93.0
470,98.95260398541666,99.27891967291666,55.0,83.0
471,98.95084959999998,99.39646349583332,58.0,80.0
472,99.53681432916666,99.67716516249999,55.0,51.0
473,99.24909512083332,99.90348088124999,50.0,41.0
474,99.81576161041666,100.01576154791665,58.0,83.0
475,99.81576161041666,100.02453347499998,55.0,93.0
476,99.81927038124999,100.09470889166666,62.0,85.0
477,98.95084959999998,100.17716500625,43.0,87.0
478,100.07891942291666,100.24383165208332,50.0,58.0
479,100.34909477708332,100.45786667291665,43.0,74.0
480,100.63505959999999,100.73681395416665,36.0,80.0
481,100.62979644374998,100.86839286041665,55.0,71.0
482,100.62277890208333,100.89295425625,60.0,72.0
483,100.62102451666665,100.91927003749998,63.0,69.0
484,101.18769100624999,101.66534078958333,48.0,58.0
485,101.49646283958332,101.70759423958332,55.0,102.0
486,101.74632656874999,101.84843907291665,60.0,83.0
487,101.74984768958332,101.86956579791665,63.0,105.0
488,101.75336881041666,101.99456558749999,67.0,90.0
489,102.01921343333332,102.10900201458333,60.0,71.0
490,102.32379038541666,103.05266239791665,53.0,87.0
491,102.32202982499999,103.06146519999999,57.0,80.0
492,103.15653546249999,103.85371738749998,53.0,93.0
493,103.15301434166665,103.90477363958333,60.0,93.0
494,102.32731150624998,103.91181588124999,41.0,80.0
495,103.15653546249999,103.91709756249999,57.0,102.0
496,103.17414106666665,103.95054821041666,48.0,66.0
497,104.05442127499998,104.28153356874999,53.0,87.0
498,104.04385791249999,104.33082926041665,57.0,93.0
499,104.37484327083332,104.476955775,53.0,67.0
500,104.36251934791666,104.49984306041665,57.0,58.0
501,104.04913959374998,104.55442043333332,41.0,102.0
502,104.63188509166665,104.73927927708333,53.0,68.0
503,104.63012453124999,104.74984263958332,57.0,83.0
504,104.64068789374998,104.75512432083332,41.0,80.0
505,104.89949027499999,105.02096894374999,41.0,80.0
506,104.91357475833333,105.02096894374999,53.0,66.0
507,104.90125083541665,105.02449006458332,57.0,74.0
508,105.16885601874999,105.28153188541665,41.0,93.0
509,105.16533489791665,105.29385580833332,57.0,87.0
510,105.17061657916665,105.29737692916666,53.0,74.0
511,105.42589783958331,105.56850323333332,41.0,93.0
512,105.42589783958331,105.57202435416666,53.0,80.0
513,105.42237671874999,105.57202435416666,57.0,87.0
514,105.68646078124999,105.85019289999998,41.0,102.0
515,105.68822134166665,105.85723514166665,57.0,102.0
516,105.69174246249999,105.86251682291666,53.0,87.0
517,107.40300718749998,108.05441454166666,62.0,74.0
518,107.41180998958332,108.09138631041665,55.0,72.0
519,108.23575226458333,108.35899149374998,62.0,87.0
520,108.23751282499998,108.36779429583332,58.0,70.0
521,108.23575226458333,108.36955485624999,55.0,80.0
522,107.40476774791665,108.91171483958333,43.0,87.0
523,107.93469643333331,108.95031131874998,50.0,63.0
524,109.93452153749999,110.17662672499999,62.0,87.0
525,109.93803030833332,110.20645127708332,55.0,93.0
526,110.23627582916666,110.51171433958332,50.0,56.0
527,109.07311829791665,110.59943361041665,43.0,70.0
528,110.48539855833332,110.71873181874999,58.0,72.0
529,110.78188969374999,111.23627551666665,55.0,74.0
530,110.77838092291665,111.30294216249999,60.0,72.0
531,111.64153854791665,111.77838061041665,55.0,87.0
532,111.62925784999999,111.79417007916665,63.0,80.0
533,110.79066162083332,112.16083663124999,48.0,69.0
534,112.45206461041666,113.29241522499998,58.0,65.0
535,112.45732776666665,113.30118715208332,55.0,67.0
536,113.56259057916665,113.68890632916666,62.0,87.0
537,113.57136250624998,113.72399403749999,55.0,93.0
538,113.30820469374999,113.82925716249999,50.0,63.0
539,112.48188916249998,113.84855540208332,43.0,87.0
540,113.85206417291666,114.08013427708332,57.0,85.0
541,114.15206407916665,114.63627445416665,53.0,74.0
542,114.14680092291665,114.69416917291666,58.0,66.0
543,114.73802880833333,114.88539718333332,53.0,59.0
544,115.02925678749999,115.26083566249999,53.0,74.0
545,114.16434477708331,115.28013390208332,46.0,72.0
546,115.02223924583332,115.28715144374999,58.0,68.0
547,115.02048486041666,115.49592330833332,62.0,87.0
548,115.82750215208333,116.14224109166665,57.0,70.0
549,115.82750215208333,116.55421222916665,60.0,80.0
550,116.35350834166665,116.56125447083332,57.0,64.0
551,115.82223899583332,116.89047926874998,41.0,71.0
552,116.67745145833332,116.89400038958331,57.0,87.0
553,116.67569089791665,116.99259177291665,65.0,90.0
554,116.95033832291665,117.11583100208331,60.0,90.0
555,117.23907023124998,117.35350665833332,57.0,90.0
556,117.53132326041666,118.20737846041665,58.0,69.0
557,117.53308382083331,118.22498406458331,55.0,74.0
558,118.64399744374998,118.85350413333332,55.0,93.0
559,118.64047632291665,119.01899681249998,62.0,90.0
560,117.53660494166665,119.04892633958332,43.0,87.0
561,118.90456038541664,119.18977117291665,50.0,66.0
562,119.19505285416665,119.78484059374998,58.0,68.0
563,119.19857397499999,119.81829124166666,55.0,69.0
564,120.04188241458331,120.17040332499998,55.0,93.0
565,119.18977117291665,120.19505117083332,43.0,83.0
566,119.75491106666665,120.19681173124998,50.0,49.0
567,120.03660073333332,120.21617789583331,58.0,87.0
568,120.03836129374999,120.37991001458332,62.0,87.0
569,120.32357208124998,120.51195204583331,43.0,93.0
570,120.32357208124998,120.55420549583332,55.0,93.0
571,120.60174062708332,120.89751477708332,45.0,80.0
572,120.61758567083332,120.94857102916664,57.0,93.0
573,120.90631757916665,121.36582384791664,58.0,93.0
574,121.41864066041666,121.63695015208332,53.0,80.0
575,121.77251330416665,121.81652731458331,53.0,60.0
576,120.90455701874998,122.16159715624998,46.0,87.0
577,121.73906265624998,122.24258293541665,58.0,80.0
578,122.27251246249999,122.36758272499998,53.0,93.0
579,121.75138657916665,122.43096289999998,62.0,85.0
580,122.57356829374999,123.28307414166665,57.0,74.0
581,122.57180773333332,123.33413039374999,60.0,80.0
582,123.45384850208332,123.60701725833331,57.0,80.0
583,122.58589221666665,123.65807351041666,41.0,74.0
584,123.12462370416665,123.67920023541664,48.0,33.0
585,123.45208794166665,123.73025648749999,60.0,87.0
586,123.45384850208332,123.80420002499999,65.0,85.0
587,123.72673536666665,123.85173515624999,57.0,72.0
588,124.27074853541666,125.11229641458331,58.0,66.0
589,124.27074853541666,125.13694426041666,55.0,68.0
590,125.40278888333332,125.54011259583332,55.0,95.0
591,125.40278888333332,125.59821108958332,62.0,95.0
592,124.26546685416665,125.85701347083332,43.0,87.0
593,125.13870482083331,125.86757683333332,50.0,68.0
594,125.69328135208332,125.87285851458331,58.0,80.0
595,125.98025269999998,126.43271672708332,67.0,87.0
596,125.99257662291664,126.51546306666665,55.0,90.0
597,126.53130811041665,126.91158916041665,50.0,41.0
598,125.97673157916665,126.93447644583331,43.0,90.0
599,126.79715273333332,127.11229304791665,58.0,90.0
600,126.80419497499999,127.14222257499998,55.0,87.0
601,126.80419497499999,127.40806719791665,62.0,93.0
602,127.08236352083331,127.47496849374998,43.0,64.0
603,127.34820814374999,127.49257409791664,55.0,95.0
604,127.63517949166665,127.92391139999998,55.0,83.0
605,127.63517949166665,128.26369956041665,63.0,72.0
606,128.2020799458333,128.42919223958333,55.0,64.0
607,128.51017801874997,128.82707889374998,60.0,95.0
608,128.75841703749998,128.89045906874998,55.0,83.0
609,127.63870061249999,129.09644463749999,48.0,83.0
610,129.05067006666664,129.18271209791664,60.0,66.0
611,129.33588085416665,129.9767248458333,57.0,72.0
612,129.3323597333333,130.015457175,53.0,71.0
613,129.88165458333333,130.32105810208333,48.0,50.0
614,130.20049084375,130.40084525833333,53.0,95.0
615,130.19871779583332,130.42034878541665,60.0,87.0
616,129.34116253541666,130.50900118125,41.0,85.0
617,131.04800774791667,131.33169541458332,53.0,80.0
618,131.03914250833333,131.58524126666666,58.0,71.0
619,131.5604185958333,131.68453194999998,53.0,51.0
620,132.16680098333333,132.28027605,53.0,85.0
621,132.1632548875,132.53333667708333,62.0,87.0
622,131.05155384374999,132.58070508333333,46.0,71.0
623,132.44694255416667,132.61403840625,53.0,80.0
624,132.7245646875,132.90351199999998,53.0,74.0
625,132.72105591666664,133.04912598958333,58.0,80.0
626,132.99824881249998,133.11579263541665,53.0,71.0
627,133.28245925,133.36842413541666,58.0,63.0
628,133.28772240625,133.38421360416666,62.0,66.0
629,133.28772240625,133.38596798958332,53.0,68.0
630,132.72105591666664,133.74210822916666,46.0,85.0
631,133.57544161458333,133.78947663541666,53.0,103.0
632,133.57193284374998,133.91403799999998,58.0,105.0
633,133.57544161458333,133.95263447916665,62.0,103.0
634,133.83684504166666,134.01052919791664,46.0,68.0
635,134.12105547916664,134.19298528124997,53.0,80.0
636,134.42982731249998,135.07894991666666,62.0,74.0
637,134.4385992395833,135.11579201041664,55.0,72.0
638,135.25965161458333,135.38245859375,62.0,87.0
639,135.261406,135.39123052083332,58.0,70.0
640,135.25965161458333,135.39298490624998,55.0,80.0
641,134.43158169791664,135.9333356145833,43.0,87.0
642,134.95965170833333,135.97193209374998,50.0,63.0
643,136.9561423125,137.19824749999998,62.0,87.0
644,136.9596510833333,137.22807205208332,55.0,93.0
645,137.25789660416666,137.5333351145833,50.0,56.0
646,136.09473907291664,137.62105438541664,43.0,70.0
647,137.50701933333332,137.74035259374998,58.0,72.0
648,137.80351046874998,138.25789629166664,55.0,74.0
649,137.80000169791666,138.3245629375,60.0,72.0
650,138.66315932291664,138.80000138541666,55.0,87.0
651,138.650878625,138.81579085416666,63.0,80.0
652,137.8122823958333,139.18245740625,48.0,69.0
653,139.47368538541664,140.314036,58.0,65.0
654,139.47894854166665,140.32280792708332,55.0,67.0
655,140.58421135416665,140.71052710416666,62.0,87.0
656,140.59298328124999,140.74561481249998,55.0,93.0
657,140.32982546875,140.85087793749997,50.0,63.0
658,139.50350993749998,140.87017617708332,43.0,87.0
659,140.87368494791664,141.10175505208332,57.0,85.0
660,141.17368485416665,141.65789522916666,53.0,74.0
661,141.16842169791664,141.71578994791665,58.0,66.0
662,141.75964958333333,141.9070179583333,53.0,59.0
663,142.05087756249998,142.28245643749997,53.0,74.0
664,141.18596555208333,142.30175467708332,46.0,72.0
665,142.0438600208333,142.30877221875,58.0,68.0
666,142.04210563541665,142.51754408333332,62.0,87.0
667,142.84912292708333,143.16315791666665,57.0,70.0
668,142.84912292708333,143.57368410416666,60.0,80.0
669,143.37368416666666,143.58070164583333,57.0,64.0
670,142.84385977083332,143.90877171875,41.0,71.0
671,143.6964910833333,143.9122804895833,57.0,87.0
672,143.69473669791665,144.01052607291666,65.0,90.0
673,143.96842082291664,144.13333305208332,60.0,90.0
674,144.25614003125,144.37017508333332,57.0,90.0
675,144.54736801041665,145.22105201041666,58.0,69.0
676,144.5491223958333,145.23859586458332,55.0,74.0
677,145.65613959375,145.86491145833332,55.0,93.0
678,145.65263082291665,146.0298236875,62.0,90.0
679,144.55263116666666,146.0596482395833,43.0,87.0
680,145.91578863541665,146.19999907291665,50.0,66.0
681,146.20526222916666,146.79298134375,58.0,68.0
682,146.20877099999998,146.82631466666666,55.0,69.0
683,147.04912161458333,147.17719175,55.0,93.0
684,146.19999907291665,147.20175314583332,43.0,83.0
685,146.76315679166666,147.20350753124998,50.0,49.0
686,147.04385845833332,147.22280577083333,58.0,87.0
687,147.04561284374998,147.38596361458332,62.0,87.0
688,147.32982328125,147.51754252083333,43.0,93.0
689,147.32982328125,147.55964777083332,55.0,93.0
690,147.60701617708332,147.90175292708332,45.0,80.0
691,147.62280564583332,147.95263010416664,57.0,93.0
692,147.91052485416665,148.36841944791666,58.0,93.0
693,148.42105101041665,148.63859480208333,53.0,80.0
694,148.77368247916667,148.81754211458332,53.0,60.0
695,147.90877046875,149.16140165624998,46.0,87.0
696,148.74034915624998,149.24210338541664,58.0,80.0
697,149.27192793749998,149.36666474999998,53.0,93.0
698,148.75262985416666,149.42982262499999,62.0,85.0
699,149.57192784375,150.27894516666666,57.0,74.0
700,149.57017345833333,150.32982234374998,60.0,80.0
701,150.44912055208331,150.6017520833333,57.0,80.0
702,149.58420854166664,150.65262926041666,41.0,74.0
703,150.12105047916666,150.67368188541664,48.0,33.0
704,150.44736616666665,150.7245590625,60.0,87.0
705,150.44912055208331,150.79824324999998,65.0,85.0
706,150.72105029166664,150.84561165625,57.0,72.0
707,151.26315538541667,152.10175161458332,58.0,66.0
708,151.26315538541667,152.12631301041665,55.0,68.0
709,152.3912252083333,152.52806727083333,55.0,95.0
710,152.3912252083333,152.58596198958332,62.0,95.0
711,151.25789222916666,152.8438566458333,43.0,87.0
712,152.1280673958333,152.8543829583333,50.0,68.0
713,152.68069880208333,152.8596461145833,58.0,80.0
714,152.966663625,153.4175406770833,67.0,87.0
715,152.97894432291665,153.49999679166666,55.0,90.0
716,153.51578626041666,153.89473351041664,50.0,41.0
717,152.96315485416665,153.9175405208333,43.0,90.0
718,153.78069845833332,154.09473344791667,58.0,90.0
719,153.787716,154.12455799999998,55.0,87.0
720,153.787716,154.38947019791664,62.0,93.0
721,154.06490889583333,154.45613684375,43.0,64.0
722,154.32982109374998,154.47368069791665,55.0,95.0
723,154.61578591666665,154.90350512499998,55.0,83.0
724,154.61578591666665,155.24210151041666,63.0,72.0
725,155.18069802083332,155.4070137395833,55.0,64.0
726,155.48771546875,155.80350484374998,60.0,95.0
727,155.7350838125,155.86666271874998,55.0,83.0
728,154.61929468749997,156.07192581249998,48.0,83.0
729,156.02631179166664,156.15789069791666,60.0,66.0
730,156.31052222916665,156.9491185208333,57.0,72.0
731,156.30701345833333,156.98771499999998,53.0,71.0
732,156.85438170833334,157.2912236770833,48.0,50.0
733,157.17192546874998,157.3701710208333,53.0,95.0
734,157.17017108333332,157.38946926041666,60.0,87.0
735,156.31578538541666,157.47718853125,41.0,85.0
736,158.01052169791666,158.29122336458332,53.0,80.0
737,158.00174977083333,158.54210047916666,58.0,71.0
738,158.5175390833333,158.6403460625,53.0,51.0
739,159.11753889583332,159.22981956249998,53.0,85.0
740,159.114030125,159.48069667708333,62.0,87.0
741,158.01403046874998,159.52806508333333,46.0,71.0
742,159.39473179166666,159.56139840625,53.0,80.0
743,159.6719246875,159.85087199999998,53.0,74.0
744,159.66841591666665,159.99648598958333,58.0,80.0
745,159.94560881249998,160.06315263541666,53.0,71.0
746,160.22981925,160.31578413541666,58.0,63.0
747,160.23508240625,160.33157360416666,62.0,66.0
748,160.23508240625,160.33332798958332,53.0,68.0
749,159.66841591666665,160.68946822916666,46.0,85.0
750,160.52280161458333,160.73683663541664,53.0,103.0
751,160.51929284374998,160.86139799999998,58.0,105.0
752,160.52280161458333,160.89999447916665,62.0,103.0
753,160.78420504166667,160.95788919791664,46.0,68.0
754,161.06841547916665,161.14034528124998,53.0,80.0
755,161.34323019583334,161.53486715416668,55.0,74.0
756,161.33626157916666,161.53660930833334,39.0,61.0
757,161.33800373333332,161.53660930833334,58.0,65.0
758,161.34671450416667,161.54009361666667,51.0,59.0
759,161.62023270833333,161.74392565416667,39.0,72.0
760,161.62894347916665,161.76308935,58.0,74.0
761,161.6324277875,161.76483150416666,55.0,93.0
762,161.63591209583333,161.77180012083332,51.0,70.0
763,161.89026660416667,162.0505447875,58.0,66.0
764,161.898977375,162.05577125,51.0,59.0
765,161.89549306666666,162.05577125,55.0,71.0
766,161.8832979875,162.06099771249998,39.0,65.0
767,162.18817496666665,162.35542176666667,51.0,80.0
768,162.18817496666665,162.369359,55.0,102.0
769,162.1864328125,162.369359,58.0,74.0
770,162.17772204166667,162.37632761666666,39.0,85.0
771,163.02092465833334,163.205593,58.0,74.0
772,163.02440896666667,163.216045925,51.0,64.0
773,163.33277025416666,163.40768288333334,55.0,43.0
774,163.30315363333332,163.41116719166666,58.0,68.0
775,163.31186440416667,163.42858873333333,51.0,63.0
776,163.57538223958332,163.6806453645833,55.0,83.0
777,163.57187346875,163.68590852083332,58.0,69.0
778,163.57538223958332,163.69117167708333,51.0,72.0
779,163.0122138875,163.70696114583333,39.0,68.0
780,163.30838009583334,163.70696114583333,46.0,55.0
781,163.84731197916665,163.92625932291665,58.0,68.0
782,163.85082075,163.93678563541667,55.0,72.0
783,163.85608390624998,163.95432948958333,46.0,72.0
784,163.85608390624998,163.97187334375,39.0,72.0
785,163.84731197916665,163.97187334375,51.0,68.0
786,163.85257513541666,163.9876628125,63.0,93.0
787,164.70871521875,164.83678535416666,46.0,59.0
788,164.735031,164.84029412499999,58.0,43.0
789,164.74731169791664,164.84029412499999,62.0,36.0
790,164.74555731249998,164.8508204375,53.0,44.0
791,164.96310110416667,165.0806449270833,46.0,47.0
792,164.96836426041665,165.09117123958333,58.0,53.0
793,164.97362741666666,165.10345193749998,53.0,63.0
794,164.98064495833333,165.10520632291664,62.0,53.0
795,165.24029399999998,165.35082028124998,46.0,74.0
796,165.25257469791666,165.36836413541667,58.0,70.0
797,165.25783785416667,165.37187290625,53.0,74.0
798,165.25432908333332,165.3911711458333,62.0,71.0
799,165.53853952083333,165.63678510416665,46.0,85.0
800,165.54029390624999,165.64204826041666,53.0,85.0
801,165.53503075,165.64555703124998,58.0,74.0
802,165.53152197916666,165.65432895833334,62.0,87.0
803,166.38980791875,166.50860212916666,46.0,52.0
804,166.3738504875,166.51924041666666,58.0,58.0
805,166.38626182291668,166.53165175208335,53.0,61.0
806,166.65576510625002,166.74796359791668,46.0,43.0
807,166.65576510625002,166.76392102916668,58.0,54.0
808,166.66640339375002,166.76569407708334,53.0,59.0
809,166.91994924583335,167.02101297708333,46.0,67.0
810,166.92349534166667,167.02810516875002,53.0,64.0
811,166.91640315,167.03165126458333,58.0,67.0
812,167.23023263125,167.34548074583333,46.0,93.0
813,167.20895605625,167.50682810625,53.0,93.0
814,167.20718300833335,167.53519687291669,58.0,95.0
815,167.51746639375,167.60434574166666,46.0,71.0
816,167.78519662916668,167.90044474375,53.0,95.0
817,168.09548001458333,168.34902586666666,58.0,64.0
818,168.20718203333334,168.35434501041667,55.0,25.0
819,168.11143744583333,168.3738485375,51.0,68.0
820,168.65399010833335,168.73732336041667,51.0,63.0
821,168.65576315625,168.73732336041667,55.0,71.0
822,168.65576315625,168.74086945625,58.0,64.0
823,168.94299691875,169.02455712291666,55.0,102.0
824,168.94654301458334,169.02987626666666,51.0,85.0
825,168.93945082291668,169.03696845833335,58.0,87.0
826,168.09902611041667,169.08838684791667,39.0,71.0
827,168.34902586666666,169.09015989583335,46.0,39.0
828,169.8206556375,169.87207402708333,55.0,49.0
829,169.81356344583332,169.89512365000002,51.0,41.0
830,169.79051382291667,169.89866974583333,58.0,55.0
831,170.0759745375,170.13271207083335,55.0,58.0
832,170.08483977708335,170.13625816666666,51.0,37.0
833,170.06179015416666,170.15221559791667,58.0,68.0
834,170.34547782083334,170.42881107291666,51.0,60.0
835,170.34547782083334,170.42881107291666,55.0,70.0
836,170.33306648541668,170.44476850416666,58.0,83.0
837,170.65753425416668,170.70895264375,55.0,80.0
838,170.65576120625,170.73909445833334,51.0,68.0
839,170.65221511041668,170.74795969791668,63.0,95.0
840,169.77455639166666,170.85788866875,39.0,56.0
841,171.490866775,171.64689499166667,58.0,66.0
842,171.49618591875,171.6504410875,53.0,65.0
843,171.76214310625,171.86852598125,58.0,65.0
844,171.77987358541668,171.873845125,53.0,63.0
845,172.03341943750002,172.14689450416668,58.0,68.0
846,172.04228467708333,172.1504406,53.0,63.0
847,172.34015672708333,172.41462473958333,58.0,102.0
848,172.34370282291667,172.42526302708333,53.0,102.0
849,172.34370282291667,172.43590131458333,62.0,95.0
850,171.48377458333334,172.49618494375,46.0,68.0
851,173.20185801458334,173.27100688333334,58.0,34.0
852,173.19653887083334,173.28341821875,53.0,52.0
853,173.46072301041667,173.57065198125,53.0,80.0
854,173.45894996250001,173.57065198125,58.0,80.0
855,173.74263762916667,173.83838221666667,53.0,74.0
856,173.7355454375,173.83838221666667,58.0,87.0
857,174.0227792,174.12738902708332,53.0,95.0
858,174.0227792,174.13093512291667,58.0,102.0
859,174.01923310416666,174.14866560208333,62.0,102.0
860,173.17880839166668,174.341927825,46.0,56.0
861,174.28519029166668,174.40221145416666,58.0,102.0
862,174.54937443125002,174.63802682708334,53.0,102.0
863,174.8844804875,175.4447636291667,55.0,83.0
864,174.87561524791667,175.46604020416666,58.0,70.0
865,174.88093439166667,175.51213945,51.0,70.0
866,175.48377068333335,175.75859311041668,46.0,25.0
867,175.6929903375,175.82419588333335,51.0,90.0
868,175.68944424166668,175.84369941041666,55.0,105.0
869,175.6929903375,175.85788379375,58.0,102.0
870,174.88093439166667,175.87561427291666,39.0,72.0
871,175.98377019583333,176.15575584375,46.0,55.0
872,176.27986919791667,176.40752864791668,39.0,52.0
873,176.62029439791667,176.96781178958335,53.0,87.0
874,176.61674830208335,177.01036493958333,57.0,87.0
875,177.1610740125,177.26213774375,53.0,74.0
876,176.88270548958334,177.57847685833335,48.0,58.0
877,177.48164603541667,177.63833591250003,53.0,103.0
878,177.4763643541667,177.64713871458335,60.0,95.0
879,176.62384049375,177.65594151666667,41.0,90.0
880,177.7615751416667,177.9200255791667,48.0,63.0
881,178.03622256666668,178.18234908125,41.0,87.0
882,178.3214333541667,178.44995426458334,53.0,90.0
883,178.31615167291667,178.63129198750002,58.0,87.0
884,178.3267150354167,178.67002431666668,62.0,87.0
885,178.3214333541667,178.77741850208335,46.0,102.0
886,178.59432021875003,178.90065773125002,53.0,102.0
887,178.84079867708334,178.9552351041667,58.0,80.0
888,179.13305170625003,179.49220603125002,57.0,80.0
889,179.13481226666667,179.53093836041668,60.0,90.0
890,179.14361506875002,179.54150172291668,45.0,93.0
891,180.01157135416668,180.3390355916667,55.0,83.0
892,180.00981079375,180.45699313958335,58.0,80.0
893,180.5978379729167,180.73868280625,55.0,51.0
894,180.30910606458335,180.9657951,50.0,41.0
895,180.8777670791667,181.07847096666669,58.0,83.0
896,180.8777670791667,181.08727376875,55.0,93.0
897,180.88128820000003,181.15769618541668,62.0,85.0
898,180.00981079375,181.24044252500002,43.0,87.0
899,181.14185114166668,181.30734382083335,50.0,58.0
900,181.41297744583335,181.52213219166669,43.0,74.0
901,181.69994879375002,181.80206129791668,36.0,80.0
902,181.6946671125,181.93410332916667,55.0,71.0
903,181.68762487083336,181.958751175,60.0,72.0
904,181.6858643104167,181.98515958125,63.0,69.0
905,182.254525325,182.73339775833335,48.0,58.0
906,182.56438395833334,182.77565120833336,55.0,102.0
907,182.81438353750002,182.91649604166668,60.0,83.0
908,182.81790465833336,182.9376227666667,63.0,105.0
909,182.82142577916667,183.06262255625,67.0,90.0
910,183.08727040208336,183.17705898333335,60.0,71.0
911,183.39184735416669,184.1207193666667,53.0,87.0
912,183.39008679375002,184.12952216875001,57.0,80.0
913,184.22459243125002,184.91744888750003,53.0,93.0
914,184.22107131041668,184.96797135833336,60.0,93.0
915,183.39536847500003,184.974939975,41.0,80.0
916,184.22459243125002,184.98016643750003,57.0,102.0
917,184.2421980354167,185.0132673666667,48.0,66.0
918,185.11605446250002,185.34079235000002,53.0,87.0
919,185.1056015375,185.38957266666668,57.0,93.0
920,185.43312652083335,185.5341714625,53.0,67.0
921,185.42093144166668,185.5568194666667,57.0,58.0
922,185.11082800000003,185.61082624583335,41.0,102.0
923,185.6874810291667,185.79375243333334,53.0,68.0
924,185.68573887500003,185.80420535833335,57.0,83.0
925,185.6961918,185.80943182083334,41.0,80.0
926,185.9522884625,186.07249710000002,41.0,80.0
927,185.96622569583334,186.07249710000002,53.0,66.0
928,185.95403061666667,186.07598140833335,57.0,74.0
929,186.21883805000002,186.33033591666668,41.0,93.0
930,186.2153537416667,186.34253099583336,57.0,87.0
931,186.22058020416668,186.34601530416668,53.0,74.0
932,186.47319255833335,186.61430704583336,41.0,93.0
933,186.47319255833335,186.61779135416668,53.0,80.0
934,186.46970825000002,186.61779135416668,57.0,87.0
935,186.73103137500001,186.8930517125,41.0,102.0
936,186.73277352916668,186.9000203291667,57.0,102.0
937,186.7362578375,186.90524679166668,53.0,87.0
938,188.43174840625002,189.0831557604167,62.0,74.0
939,188.44055120833335,189.1201275291667,55.0,72.0
940,189.26449348333335,189.38773271250002,62.0,87.0
941,189.26625404375002,189.39653551458335,58.0,70.0
942,189.26449348333335,189.39829607500002,55.0,80.0
943,188.4335089666667,189.94054868333336,43.0,87.0
944,188.96343765208334,189.97928101250002,50.0,63.0
945,190.96695540625,191.20991274375,62.0,87.0
946,190.97047652708335,191.23984227083335,55.0,93.0
947,191.2697717979167,191.54617978333334,50.0,56.0
948,190.1025202416667,191.6342078041667,43.0,70.0
949,191.51977137708334,191.75392591250002,58.0,72.0
950,191.81730608750001,192.27329123541668,55.0,74.0
951,191.81378496666667,192.34019253125,60.0,72.0
952,192.67998069166669,192.8173044041667,55.0,87.0
953,192.66765676875002,192.8331494479167,63.0,80.0
954,191.82610888958337,193.201106575,48.0,69.0
955,193.4930755541667,194.33342616875004,58.0,65.0
956,193.4983387104167,194.34219809583337,55.0,67.0
957,194.6036015229167,194.7299172729167,62.0,87.0
958,194.61237345000004,194.76500498125003,55.0,93.0
959,194.34921563750004,194.87026810625002,50.0,63.0
960,193.52290010625003,194.88956634583337,43.0,87.0
961,194.8930751166667,195.12114522083337,57.0,85.0
962,195.1930750229167,195.6772853979167,53.0,74.0
963,195.1878118666667,195.7351801166667,58.0,66.0
964,195.77903975208338,195.92640812708336,53.0,59.0
965,196.07026773125003,196.30184660625002,53.0,74.0
966,195.20535572083335,196.32114484583337,46.0,72.0
967,196.06325018958336,196.32816238750004,58.0,68.0
968,196.0614958041667,196.53693425208337,62.0,87.0
969,196.86851309583338,197.1825480854167,57.0,70.0
970,196.86851309583338,197.5930742729167,60.0,80.0
971,197.39307433541669,197.60009181458338,57.0,64.0
972,196.86324993958337,197.92816188750004,41.0,71.0
973,197.71588125208336,197.93167065833336,57.0,87.0
974,197.7141268666667,198.0299162416667,65.0,90.0
975,197.9878109916667,198.15272322083337,60.0,90.0
976,198.27553020000002,198.38956525208337,57.0,90.0
977,198.5667581791667,199.2404421791667,58.0,69.0
978,198.56851256458336,199.25798603333337,55.0,74.0
979,199.67552976250002,199.88430162708337,55.0,93.0
980,199.6720209916667,200.04921385625002,62.0,90.0
981,198.5720213354167,200.07903840833336,43.0,87.0
982,199.9351788041667,200.2193892416667,50.0,66.0
983,200.22465239791669,200.81237151250002,58.0,68.0
984,200.22816116875003,200.8457048354167,55.0,69.0
985,201.06851178333338,201.19658191875004,55.0,93.0
986,200.2193892416667,201.22114331458337,43.0,83.0
987,200.7825469604167,201.22289770000003,50.0,49.0
988,201.06324862708337,201.24219593958335,58.0,87.0
989,201.06500301250003,201.40535378333337,62.0,87.0
990,201.34921345000004,201.53693268958335,43.0,93.0
991,201.34921345000004,201.57903793958337,55.0,93.0
992,201.62640634583337,201.92114309583337,45.0,80.0
993,201.64219581458337,201.9720202729167,57.0,93.0
994,201.9299150229167,202.3878096166667,58.0,93.0
995,202.4404411791667,202.65798497083335,53.0,80.0
996,202.7930726479167,202.83693228333337,53.0,60.0
997,201.92816063750004,203.18079182500003,46.0,87.0
998,202.75973932500003,203.2614935541667,58.0,80.0
999,203.29131810625003,203.38605491875003,53.0,93.0
1000,202.7720200229167,203.44921279375004,62.0,85.0
1001,203.59131801250004,204.2983353354167,57.0,74.0
1002,203.58956362708335,204.34921251250003,60.0,80.0
1003,204.46851072083336,204.62114225208336,57.0,80.0
1004,203.6035987104167,204.6720194291667,41.0,74.0
1005,204.1404406479167,204.6930720541667,48.0,33.0
1006,204.4667563354167,204.74394923125004,60.0,87.0
1007,204.46851072083336,204.81763341875003,65.0,85.0
1008,204.7404404604167,204.86500182500004,57.0,72.0
1009,205.2825455541667,206.12114178333337,58.0,66.0
1010,205.2825455541667,206.1457031791667,55.0,68.0
1011,206.41061537708336,206.54745743958335,55.0,95.0
1012,206.41061537708336,206.60535215833337,62.0,95.0
1013,205.2772823979167,206.86324681458336,43.0,87.0
1014,206.14745756458336,206.87377312708335,50.0,68.0
1015,206.70008897083338,206.87903628333336,58.0,80.0
1016,206.98605379375005,207.43693084583336,67.0,87.0
1017,206.9983344916667,207.5193869604167,55.0,90.0
1018,207.5351764291667,207.9141236791667,50.0,41.0
1019,206.9825450229167,207.93693068958336,43.0,90.0
1020,207.80008862708337,208.1141236166667,58.0,90.0
1021,207.80710616875004,208.14394816875003,55.0,87.0
1022,207.80710616875004,208.4088603666667,62.0,93.0
1023,208.08429906458338,208.47552701250004,43.0,64.0
1024,208.34921126250003,208.4930708666667,55.0,95.0
1025,208.6351760854167,208.92289529375003,55.0,83.0
1026,208.6351760854167,209.2614916791667,63.0,72.0
1027,209.20008818958337,209.42640390833336,55.0,64.0
1028,209.5070933666667,209.8217783666667,60.0,95.0
1029,209.7535966166667,209.8847153666667,55.0,83.0
1030,208.63868485625002,210.0892606166667,48.0,83.0
1031,210.0438061166667,210.1749248666667,60.0,66.0
1032,210.3270226166667,210.9633856166667,57.0,72.0
1033,210.3235261166667,211.0018471166667,53.0,71.0
1034,210.8689801166667,211.3042943666667,48.0,50.0
1035,211.1854133666667,211.3829656166667,53.0,95.0
1036,211.1836651166667,211.4021963666667,60.0,87.0
1037,210.33226736666668,211.48960886666669,41.0,85.0
1038,212.0210768666667,212.3007968666667,53.0,80.0
1039,212.0123356166667,212.5520751291667,58.0,71.0
1040,212.52734022083337,212.65101476250004,53.0,51.0
1041,213.13157869583335,213.24465256250002,53.0,85.0
1042,213.12804513750004,213.49730198333336,62.0,87.0
1043,212.0245733666667,213.54500502083337,46.0,71.0
1044,213.4107298041667,213.57857382500003,53.0,80.0
1045,213.68988091250003,213.87009238750002,53.0,74.0
1046,213.68634735416668,214.01673505833335,58.0,80.0
1047,213.96549846250002,214.0838726666667,53.0,71.0
1048,214.25171668750002,214.3382888666667,58.0,63.0
1049,214.25701702500004,214.35418987916668,62.0,66.0
1050,214.25701702500004,214.35595665833335,53.0,68.0
1051,213.68634735416668,214.7146128291667,46.0,85.0
1052,214.54676880833335,214.76231586666668,53.0,103.0
1053,214.54323525000004,214.88775718750003,58.0,105.0
1054,214.54676880833335,214.92662632916668,62.0,103.0
1055,214.8100189041667,214.9849300416667,46.0,68.0
1056,215.0962371291667,215.16867507500004,53.0,80.0
1057,215.3930560291667,215.54323225833335,36.0,74.0
1058,215.38952247083336,215.76584643333337,55.0,70.0
1059,215.3930560291667,215.83828437916668,60.0,69.0
1060,215.92485655833337,216.32944898750003,48.0,36.0
1061,216.24817714583335,216.4107208291667,55.0,80.0
1062,216.50259334583336,216.62626788750003,63.0,93.0
1063,216.5061269041667,216.63156822500002,60.0,72.0
1064,216.50966046250002,216.65630313333335,67.0,85.0
1065,217.10859860000002,217.69516928333337,53.0,68.0
1066,217.12273283333337,217.72167097083337,57.0,69.0
1067,217.65276658333337,218.03615766250002,48.0,41.0
1068,217.97255361250004,218.14746475000004,53.0,90.0
1069,217.9637197166667,218.16159898333336,60.0,90.0
1070,218.22696981250002,218.4672517791667,48.0,50.0
1071,217.08916402916668,218.55735751666668,41.0,80.0
1072,218.47608567500004,218.65629715000003,53.0,74.0
1073,218.78350525000002,219.33827390833335,53.0,67.0
1074,218.78173847083337,219.3789098291667,58.0,66.0
1075,219.9407456041667,220.0467523541667,53.0,72.0
1076,219.66689483333337,220.38067361666668,50.0,60.0
1077,218.78173847083337,220.41056013750003,46.0,65.0
1078,219.93191170833336,220.50354256458334,58.0,83.0
1079,219.94427916250004,220.5702092104167,62.0,83.0
1080,220.20929603750002,220.64389339791668,53.0,87.0
1081,221.03336696041669,221.17371779375003,53.0,60.0
1082,220.5070513354167,221.51582295000003,46.0,69.0
1083,221.34740195,221.84740179375,53.0,90.0
1084,221.34213879375002,221.86845441875002,58.0,87.0
1085,221.35441949166668,221.91406843958336,62.0,83.0
1086,221.8596824916667,222.03862980416667,46.0,83.0
1087,222.1702087104167,222.42810336666668,55.0,70.0
1088,222.16494555416668,222.78424360625002,60.0,71.0
1089,222.66143662708336,222.80178746041668,55.0,49.0
1090,222.98775231458336,223.12810314791668,55.0,80.0
1091,222.17371748125,223.31933115833334,48.0,71.0
1092,222.98424354375,223.34038378333335,60.0,93.0
1093,222.98248915833335,223.3702083354167,63.0,83.0
1094,223.24564697083335,223.80354153333334,55.0,74.0
1095,223.5438924916667,223.8807344916667,63.0,93.0
1096,224.38362894583335,224.48963569583336,53.0,59.0
1097,224.6892817416667,224.89952846250003,57.0,74.0
1098,224.69281530000003,224.90836235833336,53.0,87.0
1099,224.68751496250002,224.9224965916667,60.0,83.0
1100,224.09476951250002,225.0126023291667,48.0,54.0
1101,223.82810292916668,225.07267282083336,41.0,74.0
1102,226.0672579479167,226.1851263916667,53.0,53.0
1103,226.3737381541667,226.54633571041668,53.0,93.0
1104,225.52496828750003,226.9146624541667,46.0,70.0
1105,226.9360147291667,227.2562988541667,41.0,74.0
1106,226.3701794416667,227.4182202729167,58.0,90.0
1107,227.27765112916668,227.4182202729167,58.0,70.0
1108,226.3737381541667,227.4306757666667,62.0,80.0
1109,227.26875434791668,227.4520280416667,46.0,80.0
1110,227.2829891979167,227.49295323541668,53.0,87.0
1111,228.09437564791668,228.78654522916668,57.0,68.0
1112,228.08547886666668,228.86483690416668,60.0,74.0
1113,228.08547886666668,228.8701749729167,45.0,87.0
1114,229.1993558791667,229.5392129229167,57.0,74.0
1115,229.5000670854167,229.83472376875002,55.0,80.0
1116,229.79261851875003,230.2522674979167,60.0,70.0
1117,230.0522675604167,230.34349553958336,55.0,72.0
1118,230.3364779979167,230.71717963333336,62.0,72.0
1119,230.94174096666669,231.1575303729167,58.0,66.0
1120,231.20139000833336,231.43296888333336,55.0,59.0
1121,231.48560044583337,231.9733195916667,60.0,70.0
1122,231.74349510208336,232.04349500833337,55.0,74.0
1123,228.9093208104167,232.2259510916667,43.0,87.0
1124,230.62946036250003,232.24875810208337,50.0,47.0
1125,232.0364774666667,232.54349485208337,62.0,80.0
1126,232.5996351854167,232.93823157083335,57.0,67.0
1127,232.87156492500003,233.16454728958337,55.0,56.0
1128,233.15402097708338,233.5101612166667,60.0,69.0
1129,233.4101612479167,233.7522664041667,55.0,68.0
1130,233.69788045625003,234.13823119583336,62.0,74.0
1131,234.28209080000002,234.6206871854167,58.0,63.0
1132,234.5575293104167,234.85402044583336,55.0,56.0
1133,234.83472220625004,235.18033613333336,60.0,80.0
1134,235.1048975604167,235.3891079979167,55.0,69.0
1135,232.3364773729167,235.5838447791667,43.0,87.0
1136,234.0154242166667,235.59261670625003,50.0,50.0
1137,235.9417394041667,236.27682701875003,57.0,74.0
1138,236.23823053958336,236.57156376875002,55.0,80.0
1139,236.52945851875003,236.9891074979167,60.0,70.0
1140,236.7891075604167,237.08033553958336,55.0,72.0
1141,237.0733179979167,237.45401963333336,62.0,72.0
1142,237.6785809666667,237.89437037291668,58.0,66.0
1143,237.93823000833336,238.16980888333336,55.0,59.0
1144,238.22244044583337,238.7101595916667,60.0,70.0
1145,238.48033510208336,238.78033500833337,55.0,74.0
1146,235.65577458125003,238.9627910916667,43.0,87.0
1147,237.36630036250003,238.98559810208337,50.0,47.0
1148,238.7733174666667,239.28033485208337,62.0,80.0
1149,239.3364751854167,239.67507157083335,57.0,67.0
1150,239.60840492500003,239.90138728958337,55.0,56.0
1151,239.89086097708338,240.2470012166667,60.0,69.0
1152,240.1470012479167,240.4891064041667,55.0,68.0
1153,240.43472045625003,240.87507119583336,62.0,74.0
1154,241.01893080000002,241.3575271854167,58.0,63.0
1155,241.2943693104167,241.59086044583336,55.0,56.0
1156,241.57156220625004,241.91717613333336,60.0,80.0
1157,241.8417375604167,242.12594799791668,55.0,69.0
1158,239.0733173729167,242.3206847791667,43.0,87.0
1159,240.7522642166667,242.32945670625003,50.0,50.0
1160,242.6785794041667,243.01366701875003,57.0,74.0
1161,242.97507053958336,243.30840376875003,55.0,80.0
1162,243.26629851875003,243.7259474979167,60.0,70.0
1163,243.52594756041668,243.81717553958336,55.0,72.0
1164,243.8101579979167,244.19085963333336,62.0,72.0
1165,244.4154209666667,244.6312103729167,58.0,66.0
1166,244.67507000833336,244.90664888333336,55.0,59.0
1167,244.95928044583337,245.4469995916667,60.0,70.0
1168,245.21717510208336,245.51717500833337,55.0,74.0
1169,242.39261458125003,245.6996310916667,43.0,87.0
1170,244.10314036250003,245.72243810208337,50.0,47.0
1171,245.5101574666667,246.01717485208337,62.0,80.0
1172,246.0733151854167,246.41191157083335,57.0,67.0
1173,246.34524492500003,246.63822728958337,55.0,56.0
1174,246.62770097708335,246.9838412166667,60.0,69.0
1175,246.8838412479167,247.2259464041667,55.0,68.0
1176,247.17156045625003,247.61191119583336,62.0,74.0
1177,247.75577080000002,248.0943671854167,58.0,63.0
1178,248.0312093104167,248.32770044583336,55.0,56.0
1179,248.30840220625004,248.65401613333336,60.0,80.0
1180,248.5785775604167,248.8627879979167,55.0,69.0
1181,245.8101573729167,249.0575247791667,43.0,87.0
1182,247.4891042166667,249.06629670625003,50.0,50.0
1183,249.4154194041667,249.75050701875003,57.0,74.0
1184,249.71191053958336,250.04524376875003,55.0,80.0
1185,250.00313851875003,250.4627874979167,60.0,70.0
1186,250.2627875604167,250.55401553958336,55.0,72.0
1187,250.5469979979167,250.92769963333336,62.0,72.0
1188,251.1522609666667,251.36805037291668,58.0,66.0
1189,251.41191000833336,251.64348888333336,55.0,59.0
1190,251.69612044583337,252.1838395916667,60.0,70.0
1191,251.95401510208336,252.25401500833337,55.0,74.0
1192,249.12945458125003,252.4364710916667,43.0,87.0
1193,250.83998036250003,252.45927810208337,50.0,47.0
1194,252.2469974666667,252.75401485208337,62.0,80.0
1195,252.8101551854167,253.14875157083335,57.0,67.0
1196,253.08208492500003,253.37506728958337,55.0,56.0
1197,253.36454097708338,253.7206812166667,60.0,69.0
1198,253.6206812479167,253.9627864041667,55.0,68.0
1199,253.90840045625004,254.34875119583336,62.0,74.0
1200,254.49261080000002,254.8312071854167,58.0,63.0
1201,254.7680493104167,255.06454044583336,55.0,56.0
1202,255.04524220625004,255.39085613333336,60.0,80.0
1203,255.3154175604167,255.59962799791668,55.0,69.0
1204,252.5469973729167,255.7943647791667,43.0,87.0
1205,254.2259442166667,255.80313670625003,50.0,50.0
1206,255.93471561250004,256.2417330604167,57.0,80.0
1207,256.1996278104167,256.52945226875005,55.0,72.0
1208,256.4838382479167,256.89787320625004,60.0,71.0
1209,256.74524167500005,257.0627854354167,55.0,61.0
1210,257.0259433416667,257.36103095625003,62.0,74.0
1211,255.93997876875002,257.52243441458336,43.0,87.0
1212,256.21190850833335,257.54348703958334,50.0,52.0
1213,257.30839939375005,257.55576773750005,55.0,80.0
1214,257.58032913333335,257.9364693729167,58.0,65.0
1215,257.86453957083336,258.1943640291667,55.0,70.0
1216,258.1540131645834,258.4961183208334,60.0,87.0
1217,258.4399779875,258.6364691541667,55.0,80.0
1218,258.7259428104167,259.0855918208334,62.0,95.0
1219,259.0312058729167,259.187346175,55.0,83.0
1220,257.6013817583334,259.1943637166667,43.0,74.0
1221,257.92769744583336,259.2048900291667,50.0,56.0
1222,259.33471455000006,259.51717063333336,55.0,87.0
1223,259.32243385208335,259.63997761250005,60.0,80.0
1224,259.6154162166667,259.79787230000005,58.0,80.0
1225,259.90839858125,260.0592757270834,55.0,95.0
1226,260.26103005000004,260.44524051875004,55.0,105.0
1227,260.25752127916667,260.6750650083334,58.0,103.0
1228,260.6119071333334,260.9627842166667,55.0,93.0
1229,259.31892508125003,261.09962627916667,43.0,95.0
1230,260.9627842166667,261.2434858833334,53.0,105.0
1231,261.3961174145834,263.67506407083334,55.0,95.0
1232,261.3733104041667,263.8627833104167,43.0,95.0
