,start,end,pitch,velocity
0,14.021875000000001,14.317187500000001,57.0,112.0
1,14.396875000000001,14.717187500000001,69.0,107.0
2,14.771875000000001,15.0859375,66.0,117.0
3,15.146875000000001,15.5171875,66.0,96.0
4,15.521875000000001,15.696875,64.0,96.0
5,15.896875000000001,16.175,64.0,93.0
6,16.271875,16.7390625,62.0,95.0
7,17.021875,17.689062500000002,64.0,93.0
8,20.021875,20.6984375,64.0,83.0
9,20.771875,21.126562500000002,66.0,92.0
10,21.146875,21.615625,64.0,78.0
11,21.521875,21.798437500000002,62.0,95.0
12,21.896875,22.2421875,62.0,86.0
13,22.271875,22.646875,59.0,90.0
14,22.646875,23.064062500000002,59.0,95.0
15,23.021875,25.0609375,66.0,96.0
16,26.021875,26.3109375,57.0,96.0
17,26.396875,26.7296875,71.0,102.0
18,26.771875,27.125,66.0,89.0
19,27.146875,27.426562500000003,66.0,93.0
20,27.521875,27.725,64.0,99.0
21,27.896875,28.190625,64.0,99.0
22,28.271875,28.676562500000003,62.0,102.0
23,29.021875,30.809375000000003,64.0,92.0
24,32.021875,32.3828125,62.0,85.0
25,32.396875,32.8046875,64.0,81.0
26,32.771875,33.1546875,66.0,93.0
27,33.146875,33.5953125,64.0,82.0
28,33.521875,33.8015625,62.0,100.0
29,33.896875,34.198437500000004,62.0,102.0
30,34.271875,34.646875,59.0,85.0
31,34.646875,34.7796875,62.0,93.0
32,34.834375,35.018750000000004,59.0,82.0
33,35.021875,37.284375000000004,62.0,93.0
34,38.021875,38.3171875,57.0,112.0
35,38.396875,38.7171875,69.0,107.0
36,38.771875,39.0859375,66.0,117.0
37,39.146875,39.517187500000006,66.0,96.0
38,39.521875,39.696875000000006,64.0,96.0
39,39.896875,40.175000000000004,64.0,93.0
40,40.271875,40.7390625,62.0,95.0
41,41.021875,41.689062500000006,64.0,93.0
42,44.021875,44.698437500000004,64.0,83.0
43,44.771875,45.126562500000006,66.0,92.0
44,45.146875,45.615625,64.0,78.0
45,45.521875,45.798437500000006,62.0,95.0
46,45.896875,46.2421875,62.0,86.0
47,46.271875,46.646875,59.0,90.0
48,46.646875,47.064062500000006,59.0,95.0
49,47.021875,49.0609375,66.0,96.0
50,50.021875,50.3109375,57.0,96.0
51,50.396875,50.729687500000004,71.0,102.0
52,50.771875,51.125,66.0,89.0
53,51.146875,51.4265625,66.0,93.0
54,51.521875,51.725,64.0,99.0
55,51.896875,52.190625000000004,64.0,99.0
56,52.271875,52.6765625,62.0,102.0
57,53.021875,54.809375,64.0,92.0
58,56.021875,56.3828125,62.0,85.0
59,56.396875,56.8046875,64.0,81.0
60,56.771875,57.1546875,66.0,93.0
61,57.146875,57.595312500000006,64.0,82.0
62,57.521875,57.8015625,62.0,100.0
63,57.896875,58.198437500000004,62.0,102.0
64,58.271875,58.646875,59.0,85.0
65,58.646875,58.7796875,62.0,93.0
66,58.834375,59.018750000000004,59.0,82.0
67,59.021875,60.146875,62.0,93.0
68,60.896875,61.190625000000004,66.0,127.0
69,61.271875,61.5296875,69.0,112.0
70,61.646875,63.4421875,71.0,117.0
71,63.896875,64.196875,66.0,127.0
72,64.27187500000001,64.7578125,71.0,122.0
73,64.64687500000001,66.5265625,69.0,127.0
74,66.89687500000001,67.19375000000001,66.0,117.0
75,67.27187500000001,67.5328125,69.0,112.0
76,67.64687500000001,68.346875,71.0,127.0
77,68.77187500000001,69.05312500000001,69.0,95.0
78,69.14687500000001,69.74843750000001,62.0,102.0
79,69.89687500000001,70.121875,64.0,96.0
80,70.08437500000001,70.2921875,66.0,73.0
81,70.27187500000001,70.6046875,69.0,95.0
82,71.02187500000001,71.8515625,66.0,102.0
83,72.89687500000001,73.18593750000001,66.0,112.0
84,73.27187500000001,73.52968750000001,69.0,102.0
85,73.64687500000001,74.253125,71.0,117.0
86,74.77187500000001,75.11562500000001,73.0,117.0
87,75.14687500000001,75.665625,71.0,99.0
88,75.89687500000001,76.215625,69.0,107.0
89,76.27187500000001,76.6328125,66.0,96.0
90,76.64687500000001,77.5671875,64.0,107.0
91,77.77187500000001,78.0703125,62.0,92.0
92,78.14687500000001,78.90937500000001,59.0,99.0
93,80.02187500000001,80.259375,57.0,102.0
94,80.39687500000001,80.75,71.0,102.0
95,80.77187500000001,81.07656250000001,66.0,117.0
96,81.14687500000001,81.4734375,69.0,107.0
97,81.52187500000001,81.778125,64.0,97.0
98,81.89687500000001,82.15156250000001,59.0,96.0
99,82.27187500000001,82.93125,66.0,117.0
100,83.02187500000001,84.63593750000001,62.0,95.0
101,84.89687500000001,85.19062500000001,66.0,127.0
102,85.27187500000001,85.52968750000001,69.0,112.0
103,85.64687500000001,87.4421875,71.0,117.0
104,87.89687500000001,88.196875,66.0,127.0
105,88.27187500000001,88.7578125,71.0,122.0
106,88.64687500000001,90.52656250000001,69.0,127.0
107,90.89687500000001,91.19375000000001,66.0,117.0
108,91.27187500000001,91.5328125,69.0,112.0
109,91.64687500000001,92.34687500000001,71.0,127.0
110,92.77187500000001,93.05312500000001,69.0,107.0
111,93.14687500000001,93.74843750000001,62.0,102.0
112,93.89687500000001,94.121875,64.0,96.0
113,94.08437500000001,94.29218750000001,66.0,73.0
114,94.27187500000001,94.60468750000001,69.0,95.0
115,95.02187500000001,95.8515625,66.0,102.0
116,96.89687500000001,97.18593750000001,66.0,112.0
117,97.27187500000001,97.52968750000001,69.0,102.0
118,97.64687500000001,98.25312500000001,71.0,117.0
119,98.77187500000001,99.11562500000001,73.0,117.0
120,99.14687500000001,99.665625,71.0,99.0
121,99.89687500000001,100.215625,69.0,107.0
122,100.27187500000001,100.6328125,66.0,96.0
123,100.64687500000001,101.5671875,64.0,107.0
124,101.77187500000001,102.0703125,62.0,92.0
125,102.14687500000001,102.90937500000001,59.0,99.0
126,104.02187500000001,104.259375,57.0,102.0
127,104.39687500000001,104.75,71.0,102.0
128,104.77187500000001,105.07656250000001,66.0,117.0
129,105.14687500000001,105.4734375,69.0,107.0
130,105.52187500000001,105.778125,64.0,97.0
131,105.89687500000001,106.15156250000001,59.0,96.0
132,106.27187500000001,106.93125,66.0,117.0
133,107.02187500000001,108.63593750000001,62.0,95.0
134,122.02187500000001,122.3171875,57.0,112.0
135,122.39687500000001,122.71718750000001,69.0,107.0
136,122.77187500000001,123.0859375,66.0,117.0
137,123.14687500000001,123.5171875,66.0,96.0
138,123.52187500000001,123.696875,64.0,96.0
139,123.89687500000001,124.17500000000001,64.0,93.0
140,124.27187500000001,124.7390625,62.0,95.0
141,125.02187500000001,125.6890625,64.0,93.0
142,128.021875,128.6984375,64.0,83.0
143,128.771875,129.1265625,66.0,92.0
144,129.146875,129.615625,64.0,78.0
145,129.521875,129.7984375,62.0,95.0
146,129.896875,130.2421875,62.0,86.0
147,130.271875,130.646875,59.0,90.0
148,130.646875,131.0640625,59.0,95.0
149,131.021875,133.0609375,66.0,96.0
150,134.021875,134.3109375,57.0,96.0
151,134.396875,134.7296875,71.0,102.0
152,134.771875,135.125,66.0,89.0
153,135.146875,135.42656250000002,66.0,93.0
154,135.521875,135.725,64.0,99.0
155,135.896875,136.190625,64.0,99.0
156,136.271875,136.67656250000002,62.0,102.0
157,137.021875,138.80937500000002,64.0,92.0
158,140.021875,140.3828125,62.0,85.0
159,140.396875,140.8046875,64.0,81.0
160,140.771875,141.1546875,66.0,93.0
161,141.146875,141.5953125,64.0,82.0
162,141.521875,141.80156250000002,62.0,100.0
163,141.896875,142.1984375,62.0,102.0
164,142.271875,142.646875,59.0,85.0
165,142.646875,142.7796875,62.0,93.0
166,142.834375,143.01875,59.0,82.0
167,143.021875,145.284375,62.0,93.0
168,146.021875,146.31718750000002,57.0,112.0
169,146.396875,146.7171875,69.0,107.0
170,146.771875,147.0859375,66.0,117.0
171,147.146875,147.5171875,66.0,96.0
172,147.521875,147.696875,64.0,96.0
173,147.896875,148.175,64.0,93.0
174,148.271875,148.73906250000002,62.0,95.0
175,149.021875,149.6890625,64.0,93.0
176,152.021875,152.6984375,64.0,83.0
177,152.771875,153.1265625,66.0,92.0
178,153.146875,153.61562500000002,64.0,78.0
179,153.521875,153.7984375,62.0,95.0
180,153.89687500000002,154.2421875,62.0,86.0
181,154.27187500000002,154.64687500000002,59.0,90.0
182,154.64687500000002,155.0640625,59.0,95.0
183,155.02187500000002,157.06093750000002,66.0,96.0
184,158.02187500000002,158.31093750000002,57.0,96.0
185,158.39687500000002,158.7296875,71.0,102.0
186,158.77187500000002,159.125,66.0,89.0
187,159.14687500000002,159.42656250000002,66.0,93.0
188,159.52187500000002,159.72500000000002,64.0,99.0
189,159.89687500000002,160.190625,64.0,99.0
190,160.27187500000002,160.67656250000002,62.0,102.0
191,161.02187500000002,162.80937500000002,64.0,92.0
192,164.02187500000002,164.3828125,62.0,85.0
193,164.39687500000002,164.8046875,64.0,81.0
194,164.77187500000002,165.15468750000002,66.0,93.0
195,165.14687500000002,165.5953125,64.0,82.0
196,165.52187500000002,165.80156250000002,62.0,100.0
197,165.89687500000002,166.1984375,62.0,102.0
198,166.27187500000002,166.64687500000002,59.0,85.0
199,166.64687500000002,166.77968750000002,62.0,93.0
200,166.83437500000002,167.01875,59.0,82.0
201,167.02187500000002,168.14687500000002,62.0,93.0
202,168.89687500000002,169.190625,66.0,127.0
203,169.27187500000002,169.52968750000002,69.0,112.0
204,169.64687500000002,171.44218750000002,71.0,117.0
205,171.89687500000002,172.196875,66.0,127.0
206,172.27187500000002,172.7578125,71.0,122.0
207,172.64687500000002,174.5265625,69.0,127.0
208,174.89687500000002,175.19375000000002,66.0,117.0
209,175.27187500000002,175.5328125,69.0,112.0
210,175.64687500000002,176.346875,71.0,127.0
211,176.77187500000002,177.05312500000002,69.0,95.0
212,177.14687500000002,177.74843750000002,62.0,102.0
213,177.89687500000002,178.12187500000002,64.0,96.0
214,178.08437500000002,178.2921875,66.0,73.0
215,178.27187500000002,178.6046875,69.0,95.0
216,179.02187500000002,179.8515625,66.0,102.0
217,180.89687500000002,181.18593750000002,66.0,112.0
218,181.27187500000002,181.52968750000002,69.0,102.0
219,181.64687500000002,182.253125,71.0,117.0
220,182.77187500000002,183.11562500000002,73.0,117.0
221,183.14687500000002,183.665625,71.0,99.0
222,183.89687500000002,184.21562500000002,69.0,107.0
223,184.27187500000002,184.6328125,66.0,96.0
224,184.64687500000002,185.56718750000002,64.0,107.0
225,185.77187500000002,186.0703125,62.0,92.0
226,186.14687500000002,186.909375,59.0,99.0
227,188.02187500000002,188.259375,57.0,102.0
228,188.39687500000002,188.75,71.0,102.0
229,188.77187500000002,189.07656250000002,66.0,117.0
230,189.14687500000002,189.47343750000002,69.0,107.0
231,189.52187500000002,189.77812500000002,64.0,97.0
232,189.89687500000002,190.1515625,59.0,96.0
233,190.27187500000002,190.93125,66.0,117.0
234,191.02187500000002,192.6359375,62.0,95.0
235,192.89687500000002,193.190625,66.0,127.0
236,193.27187500000002,193.52968750000002,69.0,112.0
237,193.64687500000002,195.44218750000002,71.0,117.0
238,195.89687500000002,196.196875,66.0,127.0
239,196.27187500000002,196.7578125,71.0,122.0
240,196.64687500000002,198.5265625,69.0,127.0
241,198.89687500000002,199.19375000000002,66.0,117.0
242,199.27187500000002,199.5328125,69.0,112.0
243,199.64687500000002,200.346875,71.0,127.0
244,200.77187500000002,201.05312500000002,69.0,107.0
245,201.14687500000002,201.74843750000002,62.0,102.0
246,201.89687500000002,202.12187500000002,64.0,96.0
247,202.08437500000002,202.2921875,66.0,73.0
248,202.27187500000002,202.6046875,69.0,95.0
249,203.02187500000002,203.8515625,66.0,102.0
250,204.89687500000002,205.18593750000002,66.0,112.0
251,205.27187500000002,205.52968750000002,69.0,102.0
252,205.64687500000002,206.253125,71.0,117.0
253,206.77187500000002,207.11562500000002,73.0,117.0
254,207.14687500000002,207.665625,71.0,99.0
255,207.89687500000002,208.21562500000002,69.0,107.0
256,208.27187500000002,208.6328125,66.0,96.0
257,208.64687500000002,209.56718750000002,64.0,107.0
258,209.77187500000002,210.0703125,62.0,92.0
259,210.14687500000002,210.909375,59.0,99.0
260,212.02187500000002,212.259375,57.0,102.0
261,212.39687500000002,212.75,71.0,102.0
262,212.77187500000002,213.07656250000002,66.0,117.0
263,213.14687500000002,213.47343750000002,69.0,107.0
264,213.52187500000002,213.77812500000002,64.0,97.0
265,213.89687500000002,214.1515625,59.0,96.0
266,214.27187500000002,214.93125,66.0,117.0
267,215.02187500000002,216.6359375,62.0,95.0
268,216.89687500000002,217.18593750000002,66.0,112.0
269,217.27187500000002,217.52968750000002,69.0,102.0
270,217.64687500000002,218.253125,71.0,117.0
271,218.77187500000002,219.11562500000002,73.0,117.0
272,219.14687500000002,219.665625,71.0,99.0
273,219.89687500000002,220.21562500000002,69.0,107.0
274,220.27187500000002,220.6328125,66.0,96.0
275,220.64687500000002,221.56718750000002,64.0,107.0
276,221.77187500000002,222.0703125,62.0,92.0
277,222.14687500000002,222.909375,59.0,99.0
278,224.02187500000002,224.259375,57.0,102.0
279,224.39687500000002,224.75,71.0,102.0
280,224.77187500000002,225.07656250000002,66.0,117.0
281,225.14687500000002,225.47343750000002,69.0,107.0
282,225.7203125,226.1484375,64.0,92.0
283,226.2609375,226.753125,59.0,89.0
284,226.82656250000002,229.52968750000002,66.0,97.0
285,229.72500000000002,230.39687500000002,66.0,117.0
286,230.49062500000002,230.8234375,64.0,96.0
287,230.775,231.07500000000002,66.0,99.0
288,231.0265625,231.359375,64.0,90.0
289,231.30937500000002,231.80625,66.0,102.0
290,231.7359375,234.70000000000002,62.0,96.0
