,start,end,pitch,velocity
0,2.021875,2.4859375000000004,54.0,67.0
1,1.646875,3.0171875000000004,47.0,69.0
2,2.959375,3.0328125000000004,59.0,50.0
3,2.584375,3.1203125000000003,54.0,72.0
4,2.396875,3.7359375000000004,66.0,112.0
5,2.771875,3.79375,62.0,63.0
6,3.521875,3.9265625,54.0,56.0
7,3.146875,3.953125,47.0,82.0
8,4.2718750000000005,4.6671875,59.0,74.0
9,3.896875,4.6796875,66.0,102.0
10,5.0218750000000005,5.665625,49.0,72.0
11,4.6468750000000005,5.7718750000000005,42.0,85.0
12,5.5843750000000005,5.78125,54.0,54.0
13,5.7718750000000005,6.1140625,61.0,72.0
14,5.3968750000000005,6.11875,66.0,107.0
15,5.9593750000000005,6.1328125,57.0,83.0
16,6.5218750000000005,6.8453125,55.0,90.0
17,6.3343750000000005,7.0062500000000005,50.0,69.0
18,6.8968750000000005,7.371875,59.0,77.0
19,7.0843750000000005,7.5125,50.0,65.0
20,6.1468750000000005,7.526562500000001,43.0,72.0
21,7.2718750000000005,7.5640625,55.0,62.0
22,7.4593750000000005,7.635937500000001,59.0,45.0
23,6.7093750000000005,7.6390625000000005,62.0,89.0
24,7.6468750000000005,9.043750000000001,45.0,93.0
25,8.021875,9.1515625,52.0,65.0
26,8.396875,9.753125,64.0,97.0
27,8.771875,9.790625,61.0,51.0
28,9.521875,10.040625,52.0,56.0
29,9.146875,10.165625,45.0,76.0
30,10.271875000000001,10.678125000000001,57.0,81.0
31,9.896875000000001,10.6796875,64.0,93.0
32,11.396875000000001,12.1265625,54.0,74.0
33,11.771875000000001,12.2671875,50.0,71.0
34,12.521875000000001,12.887500000000001,50.0,59.0
35,12.146875000000001,12.953125,57.0,85.0
36,11.021875000000001,12.990625000000001,45.0,50.0
37,10.646875000000001,13.3828125,38.0,76.0
38,12.896875000000001,13.4,54.0,92.0
39,13.271875000000001,13.6671875,45.0,68.0
40,13.646875000000001,14.5390625,50.0,69.0
41,13.646875000000001,14.553125000000001,38.0,72.0
42,13.646875000000001,14.559375000000001,54.0,63.0
43,13.646875000000001,14.5625,57.0,69.0
44,17.396875,18.2625,55.0,73.0
45,17.771875,18.325,52.0,64.0
46,18.146875,18.91875,59.0,78.0
47,18.521875,19.0265625,52.0,69.0
48,17.021875,19.178125,47.0,46.0
49,16.646875,19.1828125,40.0,78.0
50,19.271875,19.6796875,55.0,71.0
51,18.896875,19.7421875,64.0,79.0
52,20.021875,20.553125,52.0,59.0
53,20.771875,21.235937500000002,52.0,41.0
54,21.521875,21.94375,52.0,50.0
55,20.396875,21.95625,57.0,77.0
56,19.646875,22.0734375,45.0,74.0
57,21.896875,22.723437500000003,61.0,88.0
58,22.271875,22.7375,57.0,68.0
59,21.146875,22.784375,64.0,66.0
60,23.771875,24.2421875,50.0,48.0
61,23.396875,24.440625,54.0,70.0
62,24.146875,24.978125000000002,57.0,85.0
63,24.521875,25.207812500000003,50.0,54.0
64,24.896875,25.426562500000003,62.0,75.0
65,22.646875,25.5078125,38.0,76.0
66,23.021875,25.6546875,45.0,44.0
67,25.271875,25.9640625,54.0,66.0
68,26.771875,27.3890625,49.0,64.0
69,27.521875,28.001562500000002,49.0,59.0
70,25.646875,28.184375000000003,38.0,74.0
71,26.021875,28.228125000000002,45.0,59.0
72,27.896875,28.6046875,50.0,66.0
73,26.396875,28.673437500000002,54.0,70.0
74,27.146875,28.704687500000002,61.0,82.0
75,29.771875,30.329687500000002,52.0,60.0
76,29.396875,30.975,55.0,76.0
77,28.646875,31.056250000000002,40.0,70.0
78,29.021875,31.079687500000002,47.0,46.0
79,30.521875,31.271875,52.0,68.0
80,30.896875,31.675,59.0,92.0
81,31.271875,31.6859375,55.0,66.0
82,30.146875,31.767187500000002,64.0,79.0
83,32.021875,32.50625,52.0,49.0
84,32.771875,33.2828125,52.0,55.0
85,32.396875,33.8515625,57.0,82.0
86,33.521875,33.9375,52.0,42.0
87,31.646875,34.0140625,45.0,72.0
88,33.896875,34.603125,61.0,99.0
89,33.146875,34.6390625,64.0,81.0
90,34.271875,34.7875,57.0,70.0
91,35.396875,36.10625,62.0,70.0
92,35.771875,36.29375,50.0,55.0
93,36.521875,36.93125,50.0,70.0
94,36.146875,37.109375,66.0,97.0
95,36.896875,37.5125,64.0,86.0
96,34.646875,37.518750000000004,38.0,77.0
97,35.021875,37.550000000000004,45.0,39.0
98,37.271875,37.5640625,50.0,69.0
99,37.646875,38.057812500000004,50.0,62.0
100,37.646875,38.153125,57.0,64.0
101,37.646875,38.214062500000004,62.0,71.0
102,37.646875,38.325,38.0,59.0
103,37.646875,38.3359375,66.0,66.0
104,41.396875,42.2625,55.0,73.0
105,41.771875,42.325,52.0,64.0
106,42.146875,42.91875,59.0,78.0
107,42.521875,43.026562500000004,52.0,69.0
108,41.021875,43.178125,47.0,46.0
109,40.646875,43.182812500000004,40.0,78.0
110,43.271875,43.6796875,55.0,71.0
111,42.896875,43.7421875,64.0,79.0
112,44.021875,44.553125,52.0,59.0
113,44.771875,45.235937500000006,52.0,41.0
114,45.521875,45.94375,52.0,50.0
115,44.396875,45.956250000000004,57.0,77.0
116,43.646875,46.073437500000004,45.0,74.0
117,45.896875,46.7234375,61.0,88.0
118,46.271875,46.737500000000004,57.0,68.0
119,45.146875,46.784375000000004,64.0,66.0
120,47.771875,48.2421875,50.0,48.0
121,47.396875,48.440625000000004,54.0,70.0
122,48.146875,48.978125000000006,57.0,85.0
123,48.521875,49.2078125,50.0,54.0
124,48.896875,49.4265625,62.0,75.0
125,46.646875,49.5078125,38.0,76.0
126,47.021875,49.6546875,45.0,44.0
127,49.271875,49.964062500000004,54.0,66.0
128,50.771875,51.3890625,49.0,64.0
129,51.521875,52.001562500000006,49.0,59.0
130,49.646875,52.184375,38.0,74.0
131,50.021875,52.228125000000006,45.0,59.0
132,51.896875,52.604687500000004,50.0,66.0
133,50.396875,52.673437500000006,54.0,70.0
134,51.146875,52.704687500000006,61.0,82.0
135,53.771875,54.329687500000006,52.0,60.0
136,53.396875,54.975,55.0,76.0
137,52.646875,55.056250000000006,40.0,70.0
138,53.021875,55.079687500000006,47.0,46.0
139,54.521875,55.271875,52.0,68.0
140,54.896875,55.675000000000004,59.0,92.0
141,55.271875,55.6859375,55.0,66.0
142,54.146875,55.767187500000006,64.0,79.0
143,56.021875,56.50625,52.0,49.0
144,56.771875,57.282812500000006,52.0,55.0
145,56.396875,57.8515625,57.0,82.0
146,57.521875,57.9375,52.0,42.0
147,55.646875,58.0140625,45.0,72.0
148,57.896875,58.603125000000006,61.0,99.0
149,57.146875,58.6390625,64.0,81.0
150,58.271875,58.7875,57.0,70.0
151,59.396875,60.10625,62.0,70.0
152,59.771875,60.29375,50.0,55.0
153,60.521875,60.931250000000006,50.0,70.0
154,60.146875,61.109375,66.0,97.0
155,60.896875,61.5125,64.0,86.0
156,58.646875,61.518750000000004,38.0,77.0
157,59.021875,61.550000000000004,45.0,39.0
158,61.271875,61.564062500000006,50.0,69.0
159,61.834375,62.1390625,54.0,93.0
160,62.209375,62.423437500000006,54.0,67.0
161,62.021875,62.534375000000004,59.0,71.0
162,61.646875,63.0296875,47.0,88.0
163,62.584375,63.073437500000004,54.0,68.0
164,62.396875,63.225,66.0,93.0
165,62.771875,63.370312500000004,59.0,68.0
166,62.959375,63.4453125,62.0,65.0
167,63.709375,63.8828125,62.0,75.0
168,63.334375,63.9359375,54.0,66.0
169,63.521875,63.984375,59.0,64.0
170,63.146875,64.171875,47.0,70.0
171,64.08437500000001,64.1796875,54.0,83.0
172,64.27187500000001,64.49843750000001,62.0,96.0
173,63.896875,64.55312500000001,66.0,102.0
174,64.45937500000001,64.6640625,59.0,81.0
175,65.20937500000001,65.4078125,57.0,88.0
176,65.02187500000001,65.42812500000001,54.0,74.0
177,65.39687500000001,65.85781250000001,61.0,73.0
178,64.64687500000001,66.01406250000001,42.0,69.0
179,64.83437500000001,66.0421875,49.0,40.0
180,65.58437500000001,66.21718750000001,54.0,77.0
181,65.77187500000001,66.565625,57.0,71.0
182,65.95937500000001,66.6203125,66.0,81.0
183,66.52187500000001,66.95937500000001,54.0,73.0
184,66.70937500000001,67.0828125,57.0,75.0
185,66.33437500000001,67.1609375,49.0,65.0
186,66.14687500000001,67.228125,42.0,63.0
187,67.08437500000001,67.2296875,54.0,81.0
188,66.89687500000001,67.471875,66.0,89.0
189,67.27187500000001,67.5734375,61.0,99.0
190,67.45937500000001,67.6484375,57.0,82.0
191,68.02187500000001,68.42031250000001,55.0,72.0
192,68.20937500000001,68.4875,59.0,68.0
193,68.58437500000001,68.7734375,55.0,71.0
194,68.39687500000001,68.85625,62.0,61.0
195,67.64687500000001,68.99843750000001,43.0,65.0
196,67.83437500000001,69.11875,50.0,70.0
197,68.77187500000001,69.3609375,59.0,66.0
198,68.95937500000001,69.5796875,67.0,76.0
199,69.52187500000001,69.80312500000001,55.0,69.0
200,69.33437500000001,69.9734375,50.0,55.0
201,69.70937500000001,70.0390625,59.0,76.0
202,70.08437500000001,70.24062500000001,50.0,61.0
203,69.14687500000001,70.29531250000001,43.0,64.0
204,70.27187500000001,70.58437500000001,62.0,77.0
205,69.89687500000001,70.60625,67.0,82.0
206,70.45937500000001,70.63906250000001,59.0,83.0
207,71.02187500000001,71.4375,50.0,74.0
208,71.20937500000001,71.49062500000001,57.0,74.0
209,71.39687500000001,71.840625,62.0,66.0
210,71.58437500000001,71.878125,50.0,71.0
211,70.64687500000001,72.0078125,38.0,72.0
212,70.83437500000001,72.128125,45.0,45.0
213,71.77187500000001,72.5953125,57.0,70.0
214,71.95937500000001,72.6671875,66.0,89.0
215,72.52187500000001,72.946875,50.0,75.0
216,72.70937500000001,73.0734375,57.0,82.0
217,72.14687500000001,73.175,38.0,67.0
218,72.33437500000001,73.18125,45.0,68.0
219,73.08437500000001,73.29375,50.0,89.0
220,72.89687500000001,73.609375,66.0,102.0
221,73.27187500000001,73.61875,62.0,89.0
222,73.45937500000001,73.6671875,57.0,100.0
223,74.02187500000001,74.3359375,59.0,81.0
224,74.20937500000001,74.403125,62.0,69.0
225,73.83437500000001,74.45,54.0,68.0
226,73.64687500000001,75.040625,47.0,72.0
227,74.58437500000001,75.1640625,54.0,89.0
228,74.95937500000001,75.17812500000001,59.0,85.0
229,74.77187500000001,75.1921875,62.0,85.0
230,74.39687500000001,75.19375000000001,66.0,112.0
231,75.52187500000001,75.80312500000001,59.0,82.0
232,75.70937500000001,75.89687500000001,62.0,75.0
233,75.33437500000001,75.9546875,54.0,57.0
234,76.08437500000001,76.18593750000001,54.0,85.0
235,75.14687500000001,76.1875,47.0,79.0
236,76.27187500000001,76.4921875,62.0,81.0
237,75.89687500000001,76.534375,66.0,102.0
238,76.45937500000001,76.696875,59.0,85.0
239,77.02187500000001,77.49375,54.0,99.0
240,77.20937500000001,77.69062500000001,57.0,89.0
241,77.39687500000001,77.7671875,61.0,99.0
242,76.83437500000001,77.89687500000001,49.0,35.0
243,77.58437500000001,77.96875,54.0,93.0
244,76.64687500000001,77.97500000000001,42.0,68.0
245,77.77187500000001,78.0859375,66.0,99.0
246,77.95937500000001,78.125,57.0,85.0
247,78.52187500000001,78.7390625,55.0,86.0
248,78.70937500000001,78.91718750000001,59.0,82.0
249,78.33437500000001,78.9703125,50.0,77.0
250,78.14687500000001,79.4734375,43.0,67.0
251,79.27187500000001,79.575,59.0,90.0
252,79.08437500000001,79.58125000000001,50.0,88.0
253,78.89687500000001,79.609375,62.0,100.0
254,79.45937500000001,79.634375,55.0,86.0
255,80.02187500000001,80.2828125,57.0,83.0
256,80.20937500000001,80.3671875,61.0,86.0
257,79.83437500000001,80.45,52.0,74.0
258,79.64687500000001,81.00625000000001,45.0,82.0
259,80.58437500000001,81.1453125,52.0,65.0
260,80.95937500000001,81.3125,57.0,72.0
261,80.39687500000001,81.403125,64.0,88.0
262,80.77187500000001,81.43593750000001,61.0,92.0
263,81.33437500000001,81.90156250000001,52.0,79.0
264,81.70937500000001,81.915625,61.0,69.0
265,81.52187500000001,81.9421875,57.0,79.0
266,81.14687500000001,82.03125,45.0,72.0
267,82.27187500000001,82.62812500000001,61.0,69.0
268,81.89687500000001,82.6765625,64.0,79.0
269,82.45937500000001,82.67812500000001,57.0,55.0
270,83.02187500000001,83.42500000000001,50.0,73.0
271,83.20937500000001,83.484375,57.0,69.0
272,83.58437500000001,83.81093750000001,50.0,73.0
273,83.39687500000001,83.8828125,62.0,68.0
274,82.64687500000001,83.95937500000001,38.0,69.0
275,82.83437500000001,84.13906250000001,45.0,52.0
276,83.77187500000001,84.5953125,57.0,68.0
277,83.95937500000001,84.746875,66.0,85.0
278,84.52187500000001,84.94843750000001,50.0,90.0
279,85.08437500000001,85.2515625,50.0,90.0
280,84.33437500000001,85.621875,45.0,85.0
281,84.70937500000001,85.65625,57.0,85.0
282,84.14687500000001,85.6640625,38.0,67.0
283,84.89687500000001,85.68593750000001,66.0,122.0
284,85.45937500000001,85.6953125,62.0,82.0
285,85.27187500000001,85.70937500000001,64.0,96.0
286,85.85781250000001,86.16250000000001,54.0,93.0
287,86.23281250000001,86.446875,54.0,67.0
288,86.04531250000001,86.55781250000001,59.0,71.0
289,85.67031250000001,87.05312500000001,47.0,88.0
290,86.60781250000001,87.09687500000001,54.0,68.0
291,86.42031250000001,87.24843750000001,66.0,93.0
292,86.79531250000001,87.39375000000001,59.0,68.0
293,86.98281250000001,87.46875,62.0,65.0
294,87.73281250000001,87.90625,62.0,75.0
295,87.35781250000001,87.95937500000001,54.0,66.0
296,87.54531250000001,88.0078125,59.0,64.0
297,87.17031250000001,88.1953125,47.0,70.0
298,88.10781250000001,88.203125,54.0,83.0
299,88.29531250000001,88.52187500000001,62.0,96.0
300,87.92031250000001,88.57656250000001,66.0,102.0
301,88.48281250000001,88.6875,59.0,81.0
302,89.23281250000001,89.43125,57.0,88.0
303,89.04531250000001,89.45156250000001,54.0,74.0
304,89.42031250000001,89.88125000000001,61.0,73.0
305,88.67031250000001,90.03750000000001,42.0,69.0
306,88.85781250000001,90.06562500000001,49.0,40.0
307,89.60781250000001,90.24062500000001,54.0,77.0
308,89.79531250000001,90.58906250000001,57.0,71.0
309,89.98281250000001,90.64375000000001,66.0,81.0
310,90.54531250000001,90.98281250000001,54.0,73.0
311,90.73281250000001,91.10625,57.0,75.0
312,90.35781250000001,91.184375,49.0,65.0
313,90.17031250000001,91.2515625,42.0,63.0
314,91.10781250000001,91.25312500000001,54.0,81.0
315,90.92031250000001,91.49531250000001,66.0,89.0
316,91.29531250000001,91.59687500000001,61.0,99.0
317,91.48281250000001,91.671875,57.0,82.0
318,92.04531250000001,92.44375000000001,55.0,72.0
319,92.23281250000001,92.51093750000001,59.0,68.0
320,92.60781250000001,92.796875,55.0,71.0
321,92.42031250000001,92.8796875,62.0,61.0
322,91.67031250000001,93.02187500000001,43.0,65.0
323,91.85781250000001,93.1421875,50.0,70.0
324,92.79531250000001,93.384375,59.0,66.0
325,92.98281250000001,93.603125,67.0,76.0
326,93.54531250000001,93.82656250000001,55.0,69.0
327,93.35781250000001,93.996875,50.0,55.0
328,93.73281250000001,94.0625,59.0,76.0
329,94.10781250000001,94.26406250000001,50.0,61.0
330,93.17031250000001,94.31875000000001,43.0,64.0
331,94.29531250000001,94.60781250000001,62.0,77.0
332,93.92031250000001,94.6296875,67.0,82.0
333,94.48281250000001,94.66250000000001,59.0,83.0
334,95.04531250000001,95.4609375,50.0,74.0
335,95.23281250000001,95.51406250000001,57.0,74.0
336,95.42031250000001,95.8640625,62.0,66.0
337,95.60781250000001,95.90156250000001,50.0,71.0
338,94.67031250000001,96.03125,38.0,72.0
339,94.85781250000001,96.15156250000001,45.0,45.0
340,95.79531250000001,96.61875,57.0,70.0
341,95.98281250000001,96.69062500000001,66.0,89.0
342,96.54531250000001,96.9703125,50.0,75.0
343,96.73281250000001,97.09687500000001,57.0,82.0
344,96.17031250000001,97.19843750000001,38.0,67.0
345,96.35781250000001,97.2046875,45.0,68.0
346,97.10781250000001,97.3171875,50.0,89.0
347,96.92031250000001,97.6328125,66.0,102.0
348,97.29531250000001,97.6421875,62.0,89.0
349,97.48281250000001,97.69062500000001,57.0,100.0
350,98.04531250000001,98.359375,59.0,81.0
351,98.23281250000001,98.4265625,62.0,69.0
352,97.85781250000001,98.4734375,54.0,68.0
353,97.67031250000001,99.0640625,47.0,72.0
354,98.60781250000001,99.1875,54.0,89.0
355,98.98281250000001,99.20156250000001,59.0,85.0
356,98.79531250000001,99.215625,62.0,85.0
357,98.42031250000001,99.21718750000001,66.0,112.0
358,99.54531250000001,99.82656250000001,59.0,82.0
359,99.73281250000001,99.92031250000001,62.0,75.0
360,99.35781250000001,99.978125,54.0,57.0
361,100.10781250000001,100.20937500000001,54.0,85.0
362,99.17031250000001,100.2109375,47.0,79.0
363,100.29531250000001,100.515625,62.0,81.0
364,99.92031250000001,100.55781250000001,66.0,102.0
365,100.48281250000001,100.7203125,59.0,85.0
366,101.04531250000001,101.5171875,54.0,99.0
367,101.23281250000001,101.71406250000001,57.0,89.0
368,101.42031250000001,101.790625,61.0,99.0
369,100.85781250000001,101.92031250000001,49.0,35.0
370,101.60781250000001,101.9921875,54.0,93.0
371,100.67031250000001,101.99843750000001,42.0,68.0
372,101.79531250000001,102.109375,66.0,99.0
373,101.98281250000001,102.1484375,57.0,85.0
374,102.54531250000001,102.7625,55.0,86.0
375,102.73281250000001,102.94062500000001,59.0,82.0
376,102.35781250000001,102.99375,50.0,77.0
377,102.17031250000001,103.496875,43.0,67.0
378,103.29531250000001,103.5984375,59.0,90.0
379,103.10781250000001,103.60468750000001,50.0,88.0
380,102.92031250000001,103.6328125,62.0,100.0
381,103.48281250000001,103.6578125,55.0,86.0
382,104.04531250000001,104.30625,57.0,83.0
383,104.23281250000001,104.390625,61.0,86.0
384,103.85781250000001,104.4734375,52.0,74.0
385,103.67031250000001,105.02968750000001,45.0,82.0
386,104.60781250000001,105.16875,52.0,65.0
387,104.98281250000001,105.3359375,57.0,72.0
388,104.42031250000001,105.4265625,64.0,88.0
389,104.79531250000001,105.45937500000001,61.0,92.0
390,105.35781250000001,105.92500000000001,52.0,79.0
391,105.73281250000001,105.9390625,61.0,69.0
392,105.54531250000001,105.965625,57.0,79.0
393,105.17031250000001,106.0546875,45.0,72.0
394,106.29531250000001,106.65156250000001,61.0,69.0
395,105.92031250000001,106.7,64.0,79.0
396,106.48281250000001,106.70156250000001,57.0,55.0
397,107.04531250000001,107.44843750000001,50.0,73.0
398,107.23281250000001,107.5078125,57.0,69.0
399,107.60781250000001,107.83437500000001,50.0,73.0
400,107.42031250000001,107.90625,62.0,68.0
401,106.67031250000001,107.98281250000001,38.0,69.0
402,106.85781250000001,108.16250000000001,45.0,52.0
403,107.79531250000001,108.61875,57.0,68.0
404,107.98281250000001,108.7703125,66.0,85.0
405,108.54531250000001,108.97187500000001,50.0,90.0
406,109.10781250000001,109.275,50.0,90.0
407,108.35781250000001,109.6453125,45.0,85.0
408,108.73281250000001,109.6796875,57.0,85.0
409,108.17031250000001,109.6875,38.0,67.0
410,108.92031250000001,109.70937500000001,66.0,122.0
411,109.48281250000001,109.71875,62.0,82.0
412,109.29531250000001,109.73281250000001,64.0,96.0
413,110.02187500000001,110.4859375,54.0,67.0
414,109.64687500000001,111.0171875,47.0,69.0
415,110.95937500000001,111.0328125,59.0,50.0
416,110.58437500000001,111.12031250000001,54.0,72.0
417,110.39687500000001,111.7359375,66.0,112.0
418,110.77187500000001,111.79375,62.0,63.0
419,111.52187500000001,111.9265625,54.0,56.0
420,111.14687500000001,111.953125,47.0,82.0
421,112.27187500000001,112.66718750000001,59.0,74.0
422,111.89687500000001,112.6796875,66.0,102.0
423,113.02187500000001,113.665625,49.0,72.0
424,112.64687500000001,113.77187500000001,42.0,85.0
425,113.58437500000001,113.78125,54.0,54.0
426,113.77187500000001,114.1140625,61.0,72.0
427,113.39687500000001,114.11875,66.0,107.0
428,113.95937500000001,114.1328125,57.0,83.0
429,114.52187500000001,114.8453125,55.0,90.0
430,114.33437500000001,115.00625000000001,50.0,69.0
431,114.89687500000001,115.371875,59.0,77.0
432,115.08437500000001,115.5125,50.0,65.0
433,114.14687500000001,115.52656250000001,43.0,72.0
434,115.27187500000001,115.5640625,55.0,62.0
435,115.45937500000001,115.63593750000001,59.0,45.0
436,114.70937500000001,115.63906250000001,62.0,89.0
437,115.64687500000001,117.04375,45.0,93.0
438,116.02187500000001,117.15156250000001,52.0,65.0
439,116.39687500000001,117.75312500000001,64.0,97.0
440,116.77187500000001,117.790625,61.0,51.0
441,117.52187500000001,118.040625,52.0,56.0
442,117.14687500000001,118.165625,45.0,76.0
443,118.27187500000001,118.67812500000001,57.0,81.0
444,117.89687500000001,118.6796875,64.0,93.0
445,119.39687500000001,120.1265625,54.0,74.0
446,119.77187500000001,120.2671875,50.0,71.0
447,120.52187500000001,120.8875,50.0,59.0
448,120.14687500000001,120.953125,57.0,85.0
449,119.02187500000001,120.99062500000001,45.0,50.0
450,118.64687500000001,121.3828125,38.0,76.0
451,120.89687500000001,121.4,54.0,92.0
452,121.27187500000001,121.66718750000001,45.0,68.0
453,121.64687500000001,122.5390625,50.0,69.0
454,121.64687500000001,122.55312500000001,38.0,72.0
455,121.64687500000001,122.559375,54.0,63.0
456,121.64687500000001,122.5625,57.0,69.0
457,125.39687500000001,126.2625,55.0,73.0
458,125.77187500000001,126.325,52.0,64.0
459,126.14687500000001,126.91875,59.0,78.0
460,126.52187500000001,127.02656250000001,52.0,69.0
461,125.02187500000001,127.17812500000001,47.0,46.0
462,124.64687500000001,127.18281250000001,40.0,78.0
463,127.27187500000001,127.6796875,55.0,71.0
464,126.89687500000001,127.7421875,64.0,79.0
465,128.021875,128.553125,52.0,59.0
466,128.771875,129.2359375,52.0,41.0
467,129.521875,129.94375,52.0,50.0
468,128.396875,129.95625,57.0,77.0
469,127.64687500000001,130.0734375,45.0,74.0
470,129.896875,130.72343750000002,61.0,88.0
471,130.271875,130.7375,57.0,68.0
472,129.146875,130.784375,64.0,66.0
473,131.771875,132.2421875,50.0,48.0
474,131.396875,132.440625,54.0,70.0
475,132.146875,132.978125,57.0,85.0
476,132.521875,133.20781250000002,50.0,54.0
477,132.896875,133.42656250000002,62.0,75.0
478,130.646875,133.5078125,38.0,76.0
479,131.021875,133.6546875,45.0,44.0
480,133.271875,133.9640625,54.0,66.0
481,134.771875,135.3890625,49.0,64.0
482,135.521875,136.0015625,49.0,59.0
483,133.646875,136.18437500000002,38.0,74.0
484,134.021875,136.228125,45.0,59.0
485,135.896875,136.6046875,50.0,66.0
486,134.396875,136.6734375,54.0,70.0
487,135.146875,136.7046875,61.0,82.0
488,137.771875,138.3296875,52.0,60.0
489,137.396875,138.975,55.0,76.0
490,136.646875,139.05625,40.0,70.0
491,137.021875,139.0796875,47.0,46.0
492,138.521875,139.271875,52.0,68.0
493,138.896875,139.675,59.0,92.0
494,139.271875,139.6859375,55.0,66.0
495,138.146875,139.7671875,64.0,79.0
496,140.021875,140.50625,52.0,49.0
497,140.771875,141.2828125,52.0,55.0
498,140.396875,141.8515625,57.0,82.0
499,141.521875,141.9375,52.0,42.0
500,139.646875,142.0140625,45.0,72.0
501,141.896875,142.603125,61.0,99.0
502,141.146875,142.6390625,64.0,81.0
503,142.271875,142.7875,57.0,70.0
504,143.396875,144.10625000000002,62.0,70.0
505,143.771875,144.29375000000002,50.0,55.0
506,144.521875,144.93125,50.0,70.0
507,144.146875,145.109375,66.0,97.0
508,144.896875,145.51250000000002,64.0,86.0
509,142.646875,145.51875,38.0,77.0
510,143.021875,145.55,45.0,39.0
511,145.271875,145.5640625,50.0,69.0
512,145.646875,146.0578125,50.0,62.0
513,145.646875,146.15312500000002,57.0,64.0
514,145.646875,146.2140625,62.0,71.0
515,145.646875,146.32500000000002,38.0,59.0
516,145.646875,146.3359375,66.0,66.0
517,149.396875,150.26250000000002,55.0,73.0
518,149.771875,150.32500000000002,52.0,64.0
519,150.146875,150.91875000000002,59.0,78.0
520,150.521875,151.0265625,52.0,69.0
521,149.021875,151.178125,47.0,46.0
522,148.646875,151.1828125,40.0,78.0
523,151.271875,151.6796875,55.0,71.0
524,150.896875,151.7421875,64.0,79.0
525,152.021875,152.553125,52.0,59.0
526,152.771875,153.2359375,52.0,41.0
527,153.521875,153.94375000000002,52.0,50.0
528,152.396875,153.95625,57.0,77.0
529,151.646875,154.0734375,45.0,74.0
530,153.89687500000002,154.72343750000002,61.0,88.0
531,154.27187500000002,154.7375,57.0,68.0
532,153.146875,154.784375,64.0,66.0
533,155.77187500000002,156.2421875,50.0,48.0
534,155.39687500000002,156.440625,54.0,70.0
535,156.14687500000002,156.978125,57.0,85.0
536,156.52187500000002,157.20781250000002,50.0,54.0
537,156.89687500000002,157.42656250000002,62.0,75.0
538,154.64687500000002,157.5078125,38.0,76.0
539,155.02187500000002,157.65468750000002,45.0,44.0
540,157.27187500000002,157.9640625,54.0,66.0
541,158.77187500000002,159.38906250000002,49.0,64.0
542,159.52187500000002,160.0015625,49.0,59.0
543,157.64687500000002,160.18437500000002,38.0,74.0
544,158.02187500000002,160.228125,45.0,59.0
545,159.89687500000002,160.6046875,50.0,66.0
546,158.39687500000002,160.6734375,54.0,70.0
547,159.14687500000002,160.7046875,61.0,82.0
548,161.77187500000002,162.3296875,52.0,60.0
549,161.39687500000002,162.97500000000002,55.0,76.0
550,160.64687500000002,163.05625,40.0,70.0
551,161.02187500000002,163.0796875,47.0,46.0
552,162.52187500000002,163.27187500000002,52.0,68.0
553,162.89687500000002,163.675,59.0,92.0
554,163.27187500000002,163.68593750000002,55.0,66.0
555,162.14687500000002,163.7671875,64.0,79.0
556,164.02187500000002,164.50625000000002,52.0,49.0
557,164.77187500000002,165.2828125,52.0,55.0
558,164.39687500000002,165.8515625,57.0,82.0
559,165.52187500000002,165.9375,52.0,42.0
560,163.64687500000002,166.01406250000002,45.0,72.0
561,165.89687500000002,166.603125,61.0,99.0
562,165.14687500000002,166.63906250000002,64.0,81.0
563,166.27187500000002,166.78750000000002,57.0,70.0
564,167.39687500000002,168.10625000000002,62.0,70.0
565,167.77187500000002,168.29375000000002,50.0,55.0
566,168.52187500000002,168.93125,50.0,70.0
567,168.14687500000002,169.109375,66.0,97.0
568,168.89687500000002,169.51250000000002,64.0,86.0
569,166.64687500000002,169.51875,38.0,77.0
570,167.02187500000002,169.55,45.0,39.0
571,169.27187500000002,169.5640625,50.0,69.0
572,169.83437500000002,170.13906250000002,54.0,93.0
573,170.20937500000002,170.4234375,54.0,67.0
574,170.02187500000002,170.534375,59.0,71.0
575,169.64687500000002,171.02968750000002,47.0,88.0
576,170.58437500000002,171.0734375,54.0,68.0
577,170.39687500000002,171.22500000000002,66.0,93.0
578,170.77187500000002,171.3703125,59.0,68.0
579,170.95937500000002,171.4453125,62.0,65.0
580,171.70937500000002,171.8828125,62.0,75.0
581,171.33437500000002,171.93593750000002,54.0,66.0
582,171.52187500000002,171.984375,59.0,64.0
583,171.14687500000002,172.171875,47.0,70.0
584,172.08437500000002,172.1796875,54.0,83.0
585,172.27187500000002,172.49843750000002,62.0,96.0
586,171.89687500000002,172.55312500000002,66.0,102.0
587,172.45937500000002,172.6640625,59.0,81.0
588,173.20937500000002,173.4078125,57.0,88.0
589,173.02187500000002,173.42812500000002,54.0,74.0
590,173.39687500000002,173.85781250000002,61.0,73.0
591,172.64687500000002,174.01406250000002,42.0,69.0
592,172.83437500000002,174.0421875,49.0,40.0
593,173.58437500000002,174.21718750000002,54.0,77.0
594,173.77187500000002,174.565625,57.0,71.0
595,173.95937500000002,174.6203125,66.0,81.0
596,174.52187500000002,174.95937500000002,54.0,73.0
597,174.70937500000002,175.08281250000002,57.0,75.0
598,174.33437500000002,175.16093750000002,49.0,65.0
599,174.14687500000002,175.228125,42.0,63.0
600,175.08437500000002,175.2296875,54.0,81.0
601,174.89687500000002,175.471875,66.0,89.0
602,175.27187500000002,175.5734375,61.0,99.0
603,175.45937500000002,175.6484375,57.0,82.0
604,176.02187500000002,176.42031250000002,55.0,72.0
605,176.20937500000002,176.4875,59.0,68.0
606,176.58437500000002,176.7734375,55.0,71.0
607,176.39687500000002,176.85625000000002,62.0,61.0
608,175.64687500000002,176.99843750000002,43.0,65.0
609,175.83437500000002,177.11875,50.0,70.0
610,176.77187500000002,177.3609375,59.0,66.0
611,176.95937500000002,177.5796875,67.0,76.0
612,177.52187500000002,177.80312500000002,55.0,69.0
613,177.33437500000002,177.97343750000002,50.0,55.0
614,177.70937500000002,178.0390625,59.0,76.0
615,178.08437500000002,178.24062500000002,50.0,61.0
616,177.14687500000002,178.29531250000002,43.0,64.0
617,178.27187500000002,178.58437500000002,62.0,77.0
618,177.89687500000002,178.60625000000002,67.0,82.0
619,178.45937500000002,178.63906250000002,59.0,83.0
620,179.02187500000002,179.4375,50.0,74.0
621,179.20937500000002,179.49062500000002,57.0,74.0
622,179.39687500000002,179.84062500000002,62.0,66.0
623,179.58437500000002,179.878125,50.0,71.0
624,178.64687500000002,180.0078125,38.0,72.0
625,178.83437500000002,180.128125,45.0,45.0
626,179.77187500000002,180.5953125,57.0,70.0
627,179.95937500000002,180.6671875,66.0,89.0
628,180.52187500000002,180.946875,50.0,75.0
629,180.70937500000002,181.0734375,57.0,82.0
630,180.14687500000002,181.175,38.0,67.0
631,180.33437500000002,181.18125,45.0,68.0
632,181.08437500000002,181.29375000000002,50.0,89.0
633,180.89687500000002,181.609375,66.0,102.0
634,181.27187500000002,181.61875,62.0,89.0
635,181.45937500000002,181.6671875,57.0,100.0
636,182.02187500000002,182.3359375,59.0,81.0
637,182.20937500000002,182.40312500000002,62.0,69.0
638,181.83437500000002,182.45000000000002,54.0,68.0
639,181.64687500000002,183.040625,47.0,72.0
640,182.58437500000002,183.1640625,54.0,89.0
641,182.95937500000002,183.17812500000002,59.0,85.0
642,182.77187500000002,183.19218750000002,62.0,85.0
643,182.39687500000002,183.19375000000002,66.0,112.0
644,183.52187500000002,183.80312500000002,59.0,82.0
645,183.70937500000002,183.89687500000002,62.0,75.0
646,183.33437500000002,183.9546875,54.0,57.0
647,184.08437500000002,184.18593750000002,54.0,85.0
648,183.14687500000002,184.1875,47.0,79.0
649,184.27187500000002,184.4921875,62.0,81.0
650,183.89687500000002,184.534375,66.0,102.0
651,184.45937500000002,184.696875,59.0,85.0
652,185.02187500000002,185.49375,54.0,99.0
653,185.20937500000002,185.690625,57.0,89.0
654,185.39687500000002,185.7671875,61.0,99.0
655,184.83437500000002,185.89687500000002,49.0,35.0
656,185.58437500000002,185.96875,54.0,93.0
657,184.64687500000002,185.97500000000002,42.0,68.0
658,185.77187500000002,186.0859375,66.0,99.0
659,185.95937500000002,186.125,57.0,85.0
660,186.52187500000002,186.73906250000002,55.0,86.0
661,186.70937500000002,186.9171875,59.0,82.0
662,186.33437500000002,186.9703125,50.0,77.0
663,186.14687500000002,187.47343750000002,43.0,67.0
664,187.27187500000002,187.57500000000002,59.0,90.0
665,187.08437500000002,187.58125,50.0,88.0
666,186.89687500000002,187.609375,62.0,100.0
667,187.45937500000002,187.634375,55.0,86.0
668,188.02187500000002,188.2828125,57.0,83.0
669,188.20937500000002,188.3671875,61.0,86.0
670,187.83437500000002,188.45000000000002,52.0,74.0
671,187.64687500000002,189.00625000000002,45.0,82.0
672,188.58437500000002,189.14531250000002,52.0,65.0
673,188.95937500000002,189.3125,57.0,72.0
674,188.39687500000002,189.40312500000002,64.0,88.0
675,188.77187500000002,189.43593750000002,61.0,92.0
676,189.33437500000002,189.9015625,52.0,79.0
677,189.70937500000002,189.915625,61.0,69.0
678,189.52187500000002,189.94218750000002,57.0,79.0
679,189.14687500000002,190.03125,45.0,72.0
680,190.27187500000002,190.628125,61.0,69.0
681,189.89687500000002,190.67656250000002,64.0,79.0
682,190.45937500000002,190.67812500000002,57.0,55.0
683,191.02187500000002,191.425,50.0,73.0
684,191.20937500000002,191.484375,57.0,69.0
685,191.58437500000002,191.81093750000002,50.0,73.0
686,191.39687500000002,191.8828125,62.0,68.0
687,190.64687500000002,191.95937500000002,38.0,69.0
688,190.83437500000002,192.13906250000002,45.0,52.0
689,191.77187500000002,192.5953125,57.0,68.0
690,191.95937500000002,192.74687500000002,66.0,85.0
691,192.52187500000002,192.9484375,50.0,90.0
692,193.08437500000002,193.2515625,50.0,90.0
693,192.33437500000002,193.62187500000002,45.0,85.0
694,192.70937500000002,193.65625,57.0,85.0
695,192.14687500000002,193.6640625,38.0,67.0
696,192.89687500000002,193.68593750000002,66.0,122.0
697,193.45937500000002,193.6953125,62.0,82.0
698,193.27187500000002,193.70937500000002,64.0,96.0
699,193.85781250000002,194.16250000000002,54.0,93.0
700,194.23281250000002,194.446875,54.0,67.0
701,194.04531250000002,194.5578125,59.0,71.0
702,193.67031250000002,195.05312500000002,47.0,88.0
703,194.60781250000002,195.096875,54.0,68.0
704,194.42031250000002,195.24843750000002,66.0,93.0
705,194.79531250000002,195.39375,59.0,68.0
706,194.98281250000002,195.46875,62.0,65.0
707,195.73281250000002,195.90625,62.0,75.0
708,195.35781250000002,195.95937500000002,54.0,66.0
709,195.54531250000002,196.0078125,59.0,64.0
710,195.17031250000002,196.1953125,47.0,70.0
711,196.10781250000002,196.203125,54.0,83.0
712,196.29531250000002,196.52187500000002,62.0,96.0
713,195.92031250000002,196.57656250000002,66.0,102.0
714,196.48281250000002,196.6875,59.0,81.0
715,197.23281250000002,197.43125,57.0,88.0
716,197.04531250000002,197.45156250000002,54.0,74.0
717,197.42031250000002,197.88125000000002,61.0,73.0
718,196.67031250000002,198.03750000000002,42.0,69.0
719,196.85781250000002,198.065625,49.0,40.0
720,197.60781250000002,198.24062500000002,54.0,77.0
721,197.79531250000002,198.5890625,57.0,71.0
722,197.98281250000002,198.64375,66.0,81.0
723,198.54531250000002,198.98281250000002,54.0,73.0
724,198.73281250000002,199.10625000000002,57.0,75.0
725,198.35781250000002,199.18437500000002,49.0,65.0
726,198.17031250000002,199.2515625,42.0,63.0
727,199.10781250000002,199.253125,54.0,81.0
728,198.92031250000002,199.4953125,66.0,89.0
729,199.29531250000002,199.596875,61.0,99.0
730,199.48281250000002,199.671875,57.0,82.0
731,200.04531250000002,200.44375000000002,55.0,72.0
732,200.23281250000002,200.5109375,59.0,68.0
733,200.60781250000002,200.796875,55.0,71.0
734,200.42031250000002,200.87968750000002,62.0,61.0
735,199.67031250000002,201.02187500000002,43.0,65.0
736,199.85781250000002,201.1421875,50.0,70.0
737,200.79531250000002,201.384375,59.0,66.0
738,200.98281250000002,201.603125,67.0,76.0
739,201.54531250000002,201.82656250000002,55.0,69.0
740,201.35781250000002,201.99687500000002,50.0,55.0
741,201.73281250000002,202.0625,59.0,76.0
742,202.10781250000002,202.26406250000002,50.0,61.0
743,201.17031250000002,202.31875000000002,43.0,64.0
744,202.29531250000002,202.60781250000002,62.0,77.0
745,201.92031250000002,202.62968750000002,67.0,82.0
746,202.48281250000002,202.66250000000002,59.0,83.0
747,203.04531250000002,203.4609375,50.0,74.0
748,203.23281250000002,203.51406250000002,57.0,74.0
749,203.42031250000002,203.86406250000002,62.0,66.0
750,203.60781250000002,203.9015625,50.0,71.0
751,202.67031250000002,204.03125,38.0,72.0
752,202.85781250000002,204.1515625,45.0,45.0
753,203.79531250000002,204.61875,57.0,70.0
754,203.98281250000002,204.690625,66.0,89.0
755,204.54531250000002,204.9703125,50.0,75.0
756,204.73281250000002,205.096875,57.0,82.0
757,204.17031250000002,205.1984375,38.0,67.0
758,204.35781250000002,205.2046875,45.0,68.0
759,205.10781250000002,205.31718750000002,50.0,89.0
760,204.92031250000002,205.6328125,66.0,102.0
761,205.29531250000002,205.6421875,62.0,89.0
762,205.48281250000002,205.690625,57.0,100.0
763,206.04531250000002,206.359375,59.0,81.0
764,206.23281250000002,206.42656250000002,62.0,69.0
765,205.85781250000002,206.47343750000002,54.0,68.0
766,205.67031250000002,207.0640625,47.0,72.0
767,206.60781250000002,207.1875,54.0,89.0
768,206.98281250000002,207.20156250000002,59.0,85.0
769,206.79531250000002,207.21562500000002,62.0,85.0
770,206.42031250000002,207.21718750000002,66.0,112.0
771,207.54531250000002,207.82656250000002,59.0,82.0
772,207.73281250000002,207.92031250000002,62.0,75.0
773,207.35781250000002,207.978125,54.0,57.0
774,208.10781250000002,208.20937500000002,54.0,85.0
775,207.17031250000002,208.2109375,47.0,79.0
776,208.29531250000002,208.515625,62.0,81.0
777,207.92031250000002,208.5578125,66.0,102.0
778,208.48281250000002,208.7203125,59.0,85.0
779,209.04531250000002,209.5171875,54.0,99.0
780,209.23281250000002,209.7140625,57.0,89.0
781,209.42031250000002,209.790625,61.0,99.0
782,208.85781250000002,209.92031250000002,49.0,35.0
783,209.60781250000002,209.9921875,54.0,93.0
784,208.67031250000002,209.99843750000002,42.0,68.0
785,209.79531250000002,210.109375,66.0,99.0
786,209.98281250000002,210.1484375,57.0,85.0
787,210.54531250000002,210.76250000000002,55.0,86.0
788,210.73281250000002,210.940625,59.0,82.0
789,210.35781250000002,210.99375,50.0,77.0
790,210.17031250000002,211.49687500000002,43.0,67.0
791,211.29531250000002,211.59843750000002,59.0,90.0
792,211.10781250000002,211.6046875,50.0,88.0
793,210.92031250000002,211.6328125,62.0,100.0
794,211.48281250000002,211.6578125,55.0,86.0
795,212.04531250000002,212.30625,57.0,83.0
796,212.23281250000002,212.390625,61.0,86.0
797,211.85781250000002,212.47343750000002,52.0,74.0
798,211.67031250000002,213.02968750000002,45.0,82.0
799,212.60781250000002,213.16875000000002,52.0,65.0
800,212.98281250000002,213.3359375,57.0,72.0
801,212.42031250000002,213.42656250000002,64.0,88.0
802,212.79531250000002,213.45937500000002,61.0,92.0
803,213.35781250000002,213.925,52.0,79.0
804,213.73281250000002,213.9390625,61.0,69.0
805,213.54531250000002,213.96562500000002,57.0,79.0
806,213.17031250000002,214.0546875,45.0,72.0
807,214.29531250000002,214.6515625,61.0,69.0
808,213.92031250000002,214.70000000000002,64.0,79.0
809,214.48281250000002,214.70156250000002,57.0,55.0
810,215.04531250000002,215.4484375,50.0,73.0
811,215.23281250000002,215.5078125,57.0,69.0
812,215.60781250000002,215.83437500000002,50.0,73.0
813,215.42031250000002,215.90625,62.0,68.0
814,214.67031250000002,215.98281250000002,38.0,69.0
815,214.85781250000002,216.16250000000002,45.0,52.0
816,215.79531250000002,216.61875,57.0,68.0
817,215.98281250000002,216.77031250000002,66.0,85.0
818,216.54531250000002,216.971875,50.0,90.0
819,217.10781250000002,217.275,50.0,90.0
820,216.35781250000002,217.64531250000002,45.0,85.0
821,216.73281250000002,217.6796875,57.0,85.0
822,216.17031250000002,217.6875,38.0,67.0
823,216.92031250000002,217.70937500000002,66.0,122.0
824,217.48281250000002,217.71875,62.0,82.0
825,217.29531250000002,217.73281250000002,64.0,96.0
826,218.20937500000002,218.39531250000002,62.0,72.0
827,217.83437500000002,218.46718750000002,54.0,82.0
828,218.02187500000002,218.48125000000002,59.0,68.0
829,217.64687500000002,218.984375,47.0,81.0
830,218.58437500000002,219.06875000000002,54.0,73.0
831,218.39687500000002,219.165625,66.0,102.0
832,218.77187500000002,219.2109375,62.0,77.0
833,218.95937500000002,219.21718750000002,59.0,88.0
834,219.70937500000002,219.940625,62.0,71.0
835,219.52187500000002,219.946875,59.0,64.0
836,219.33437500000002,219.9859375,54.0,92.0
837,220.08437500000002,220.1796875,54.0,68.0
838,219.14687500000002,220.2203125,47.0,63.0
839,219.89687500000002,220.534375,66.0,102.0
840,220.27187500000002,220.5546875,62.0,78.0
841,220.45937500000002,220.68125,59.0,74.0
842,221.02187500000002,221.4390625,54.0,67.0
843,221.20937500000002,221.55937500000002,57.0,68.0
844,220.83437500000002,221.6171875,49.0,48.0
845,220.64687500000002,221.728125,42.0,70.0
846,221.58437500000002,221.73906250000002,54.0,78.0
847,221.39687500000002,222.02968750000002,66.0,95.0
848,221.77187500000002,222.05625,61.0,90.0
849,221.95937500000002,222.10625000000002,57.0,77.0
850,222.52187500000002,222.9171875,55.0,82.0
851,222.70937500000002,222.9328125,59.0,82.0
852,223.08437500000002,223.24062500000002,55.0,75.0
853,222.89687500000002,223.3125,62.0,95.0
854,221.95937500000002,223.52187500000002,43.0,63.0
855,222.33437500000002,223.603125,50.0,62.0
856,223.27187500000002,223.61562500000002,59.0,89.0
857,223.45937500000002,223.665625,62.0,65.0
858,223.60000000000002,224.04375000000002,61.0,86.0
859,223.60781250000002,224.06093750000002,52.0,69.0
860,223.603125,224.065625,57.0,83.0
861,223.6109375,224.06875000000002,64.0,83.0
862,223.6046875,224.11562500000002,45.0,69.0
863,229.63750000000002,230.1671875,50.0,52.0
864,229.5421875,230.228125,54.0,52.0
865,229.44375000000002,230.446875,57.0,51.0
866,230.571875,230.8125,54.0,66.0
867,230.78593750000002,230.8515625,57.0,62.0
868,231.00625000000002,231.47343750000002,62.0,66.0
869,231.2359375,231.5078125,66.0,62.0
870,231.4796875,231.546875,69.0,63.0
871,231.72343750000002,232.284375,74.0,69.0
872,231.9859375,232.28750000000002,78.0,59.0
873,232.26406250000002,232.353125,81.0,72.0
874,232.95781250000002,233.31718750000002,81.0,33.0
875,233.05312500000002,235.41875000000002,90.0,95.0
876,232.6171875,235.42031250000002,86.0,73.0
877,230.39687500000002,235.42812500000002,50.0,56.0
878,230.17031250000002,235.43437500000002,45.0,52.0
879,233.65625,235.47500000000002,81.0,41.0
880,229.70625,235.4953125,38.0,82.0
