,start,end,pitch,velocity
0,32.703125,33.294921875,59.0,93.0
1,33.40625,33.544921875,62.0,66.0
2,33.640625,33.958984375,62.0,85.0
3,34.109375,34.482421875,64.0,85.0
4,34.578125,35.126953125,62.0,83.0
5,35.984375,36.26953125,55.0,72.0
6,36.21875,36.44140625,57.0,61.0
7,36.453125,36.9453125,59.0,78.0
8,37.15625,37.392578125,64.0,92.0
9,37.390625,37.8359375,62.0,81.0
10,37.859375,38.283203125,59.0,90.0
11,38.328125,39.470703125,57.0,88.0
12,40.203125,40.810546875,55.0,86.0
13,40.90625,41.03515625,55.0,41.0
14,41.140625,41.419921875,55.0,85.0
15,41.609375,42.046875,67.0,90.0
16,42.078125,42.55078125,66.0,96.0
17,42.546875,43.0,64.0,82.0
18,43.015625,43.611328125,62.0,83.0
19,43.953125,44.3046875,64.0,93.0
20,44.65625,45.03515625,52.0,89.0
21,44.890625,45.22265625,55.0,99.0
22,45.359375,45.849609375,59.0,99.0
23,45.828125,47.12890625,57.0,97.0
24,47.703125,47.970703125,59.0,90.0
25,48.171875,48.544921875,62.0,88.0
26,49.109375,49.328125,55.0,92.0
27,49.34375,49.578125,57.0,74.0
28,49.578125,50.00390625,55.0,71.0
29,50.046875,50.76953125,52.0,83.0
30,51.453125,51.765625,52.0,65.0
31,51.921875,52.1640625,64.0,93.0
32,52.15625,52.39453125,62.0,63.0
33,52.390625,52.693359375,59.0,79.0
34,52.625,53.04296875,62.0,82.0
35,53.09375,53.390625,55.0,76.0
36,53.328125,53.62890625,59.0,72.0
37,53.5625,54.765625,57.0,72.0
38,55.203125,55.71875,57.0,77.0
39,55.90625,56.10546875,59.0,86.0
40,56.140625,56.548828125,62.0,89.0
41,56.609375,56.8515625,64.0,96.0
42,57.078125,57.3046875,59.0,83.0
43,57.3125,57.6015625,62.0,95.0
44,57.78125,58.025390625,59.0,79.0
45,58.015625,58.625,55.0,82.0
46,58.953125,59.31640625,52.0,89.0
47,59.421875,59.642578125,62.0,107.0
48,59.65625,59.888671875,59.0,89.0
49,59.890625,60.05859375,57.0,65.0
50,60.125,60.41796875,59.0,90.0
51,60.59375,60.83984375,52.0,85.0
52,60.828125,62.34375,55.0,69.0
53,64.109375,64.41796875,62.0,95.0
54,64.34375,64.55078125,64.0,89.0
55,64.578125,65.03125,71.0,90.0
56,65.046875,65.15625,71.0,100.0
57,65.28125,65.431640625,71.0,93.0
58,65.515625,65.7421875,69.0,96.0
59,66.21875,66.326171875,71.0,96.0
60,66.453125,66.94921875,59.0,95.0
61,66.921875,67.486328125,62.0,90.0
62,67.859375,68.064453125,62.0,99.0
63,68.09375,68.322265625,64.0,95.0
64,68.328125,68.67578125,67.0,95.0
65,68.796875,68.91796875,67.0,112.0
66,69.03125,69.17578125,69.0,88.0
67,69.265625,69.556640625,67.0,107.0
68,69.96875,70.1484375,64.0,99.0
69,70.203125,70.62109375,62.0,97.0
70,70.671875,71.255859375,59.0,85.0
71,71.609375,71.712890625,62.0,93.0
72,71.84375,71.990234375,62.0,81.0
73,72.078125,72.521484375,64.0,102.0
74,72.546875,72.880859375,67.0,95.0
75,73.015625,73.26953125,67.0,107.0
76,73.25,73.26953125,67.0,102.0
77,73.484375,73.578125,67.0,95.0
78,73.71875,73.833984375,64.0,102.0
79,73.953125,74.330078125,62.0,97.0
80,74.421875,75.158203125,71.0,127.0
81,75.828125,75.921875,69.0,122.0
82,76.0625,76.158203125,69.0,89.0
83,76.296875,76.396484375,69.0,100.0
84,76.53125,76.63671875,71.0,99.0
85,76.765625,76.87109375,69.0,112.0
86,77.0,77.255859375,67.0,107.0
87,77.46875,77.572265625,71.0,102.0
88,77.703125,78.181640625,71.0,122.0
89,78.171875,78.978515625,69.0,112.0
90,79.109375,79.333984375,62.0,99.0
91,79.34375,79.4921875,64.0,90.0
92,79.578125,79.810546875,71.0,102.0
93,80.046875,80.150390625,71.0,112.0
94,80.28125,80.416015625,71.0,99.0
95,80.515625,80.966796875,69.0,112.0
96,81.21875,81.30859375,71.0,117.0
97,81.453125,81.9453125,59.0,93.0
98,81.921875,82.54296875,62.0,96.0
99,82.859375,83.041015625,62.0,96.0
100,83.09375,83.26953125,64.0,95.0
101,83.328125,83.619140625,67.0,112.0
102,83.796875,83.921875,67.0,112.0
103,84.03125,84.1484375,69.0,97.0
104,84.265625,84.482421875,67.0,117.0
105,84.96875,85.181640625,64.0,95.0
106,85.203125,85.603515625,62.0,96.0
107,85.671875,86.25390625,59.0,95.0
108,86.609375,86.6953125,62.0,95.0
109,86.84375,87.00390625,62.0,93.0
110,87.078125,87.427734375,64.0,100.0
111,87.546875,87.638671875,67.0,97.0
112,87.78125,87.86328125,67.0,95.0
113,88.015625,88.2890625,67.0,127.0
114,88.71875,88.962890625,64.0,81.0
115,88.953125,89.41015625,62.0,102.0
116,89.421875,90.140625,71.0,102.0
117,90.828125,90.927734375,69.0,122.0
118,91.0625,91.1484375,69.0,95.0
119,91.296875,91.408203125,69.0,102.0
120,91.53125,91.716796875,71.0,117.0
121,91.765625,91.9921875,69.0,122.0
122,92.234375,92.376953125,67.0,112.0
123,92.46875,92.626953125,64.0,89.0
124,92.703125,93.3125,69.0,117.0
125,93.40625,93.87109375,67.0,112.0
126,143.328125,143.919921875,59.0,93.0
127,144.03125,144.169921875,62.0,66.0
128,144.265625,144.583984375,62.0,85.0
129,144.734375,145.107421875,64.0,85.0
130,145.203125,145.751953125,62.0,83.0
131,146.609375,146.89453125,55.0,72.0
132,146.84375,147.06640625,57.0,61.0
133,147.078125,147.5703125,59.0,78.0
134,147.78125,148.017578125,64.0,92.0
135,148.015625,148.4609375,62.0,81.0
136,148.484375,148.908203125,59.0,90.0
137,148.953125,150.095703125,57.0,88.0
138,150.828125,151.435546875,55.0,86.0
139,151.53125,151.66015625,55.0,41.0
140,151.765625,152.044921875,55.0,85.0
141,152.234375,152.671875,67.0,90.0
142,152.703125,153.17578125,66.0,96.0
143,153.171875,153.625,64.0,82.0
144,153.640625,154.236328125,62.0,83.0
145,154.578125,154.9296875,64.0,93.0
146,155.28125,155.66015625,52.0,89.0
147,155.515625,155.84765625,55.0,99.0
148,155.984375,156.474609375,59.0,99.0
149,156.453125,157.75390625,57.0,97.0
150,158.328125,158.595703125,59.0,90.0
151,158.796875,159.169921875,62.0,88.0
152,159.734375,159.953125,55.0,92.0
153,159.96875,160.203125,57.0,74.0
154,160.203125,160.62890625,55.0,71.0
155,160.671875,161.39453125,52.0,83.0
156,162.078125,162.390625,52.0,65.0
157,162.546875,162.7890625,64.0,93.0
158,162.78125,163.01953125,62.0,63.0
159,163.015625,163.318359375,59.0,79.0
160,163.25,163.66796875,62.0,82.0
161,163.71875,164.015625,55.0,76.0
162,163.953125,164.25390625,59.0,72.0
163,164.1875,165.390625,57.0,72.0
164,165.828125,166.34375,57.0,77.0
165,166.53125,166.73046875,59.0,86.0
166,166.765625,167.173828125,62.0,89.0
167,167.234375,167.4765625,64.0,96.0
168,167.703125,167.9296875,59.0,83.0
169,167.9375,168.2265625,62.0,95.0
170,168.40625,168.650390625,59.0,79.0
171,168.640625,169.25,55.0,82.0
172,169.578125,169.94140625,52.0,89.0
173,170.046875,170.267578125,62.0,107.0
174,170.28125,170.513671875,59.0,89.0
175,170.515625,170.68359375,57.0,65.0
176,170.75,171.04296875,59.0,90.0
177,171.21875,171.46484375,52.0,85.0
178,171.453125,172.96875,55.0,69.0
179,174.734375,175.04296875,62.0,95.0
180,174.96875,175.17578125,64.0,89.0
181,175.203125,175.65625,71.0,90.0
182,175.671875,175.78125,71.0,100.0
183,175.90625,176.056640625,71.0,93.0
184,176.140625,176.3671875,69.0,96.0
185,176.84375,176.951171875,71.0,96.0
186,177.078125,177.57421875,59.0,95.0
187,177.546875,178.111328125,62.0,90.0
188,178.484375,178.689453125,62.0,99.0
189,178.71875,178.947265625,64.0,95.0
190,178.953125,179.30078125,67.0,95.0
191,179.421875,179.54296875,67.0,112.0
192,179.65625,179.80078125,69.0,88.0
193,179.890625,180.181640625,67.0,107.0
194,180.59375,180.7734375,64.0,99.0
195,180.828125,181.24609375,62.0,97.0
196,181.296875,181.880859375,59.0,85.0
197,182.234375,182.337890625,62.0,93.0
198,182.46875,182.615234375,62.0,81.0
199,182.703125,183.146484375,64.0,102.0
200,183.171875,183.505859375,67.0,95.0
201,183.640625,183.89453125,67.0,107.0
202,183.875,183.89453125,67.0,102.0
203,184.109375,184.203125,67.0,95.0
204,184.34375,184.458984375,64.0,102.0
205,184.578125,184.955078125,62.0,97.0
206,185.046875,185.783203125,71.0,127.0
207,186.453125,186.546875,69.0,122.0
208,186.6875,186.783203125,69.0,89.0
209,186.921875,187.021484375,69.0,100.0
210,187.15625,187.26171875,71.0,99.0
211,187.390625,187.49609375,69.0,112.0
212,187.625,187.880859375,67.0,107.0
213,188.09375,188.197265625,71.0,102.0
214,188.328125,188.806640625,71.0,122.0
215,188.796875,189.603515625,69.0,112.0
216,189.734375,189.958984375,62.0,99.0
217,189.96875,190.1171875,64.0,90.0
218,190.203125,190.435546875,71.0,102.0
219,190.671875,190.775390625,71.0,112.0
220,190.90625,191.041015625,71.0,99.0
221,191.140625,191.591796875,69.0,112.0
222,191.84375,191.93359375,71.0,117.0
223,192.078125,192.5703125,59.0,93.0
224,192.546875,193.16796875,62.0,96.0
225,193.484375,193.666015625,62.0,96.0
226,193.71875,193.89453125,64.0,95.0
227,193.953125,194.244140625,67.0,112.0
228,194.421875,194.546875,67.0,112.0
229,194.65625,194.7734375,69.0,97.0
230,194.890625,195.107421875,67.0,117.0
231,195.59375,195.806640625,64.0,95.0
232,195.828125,196.228515625,62.0,96.0
233,196.296875,196.87890625,59.0,95.0
234,197.234375,197.3203125,62.0,95.0
235,197.46875,197.62890625,62.0,93.0
236,197.703125,198.052734375,64.0,100.0
237,198.171875,198.263671875,67.0,97.0
238,198.40625,198.48828125,67.0,95.0
239,198.640625,198.9140625,67.0,127.0
240,199.34375,199.587890625,64.0,81.0
241,199.578125,200.03515625,62.0,102.0
242,200.046875,200.765625,71.0,102.0
243,201.453125,201.552734375,69.0,122.0
244,201.6875,201.7734375,69.0,95.0
245,201.921875,202.033203125,69.0,102.0
246,202.15625,202.341796875,71.0,117.0
247,202.390625,202.6171875,69.0,122.0
248,202.859375,203.001953125,67.0,112.0
249,203.09375,203.251953125,64.0,89.0
250,203.328125,203.9375,69.0,117.0
251,204.03125,204.49609375,67.0,112.0
252,207.546875,207.646484375,66.0,122.0
253,207.78125,207.865234375,66.0,97.0
254,208.015625,208.33203125,66.0,107.0
255,208.484375,208.865234375,59.0,117.0
256,208.953125,209.37890625,69.0,127.0
257,209.421875,210.11328125,67.0,127.0
258,210.359375,210.580078125,66.0,117.0
259,210.59375,210.845703125,67.0,88.0
260,210.828125,212.24609375,64.0,99.0
261,213.875,214.123046875,62.0,96.0
262,214.34375,214.501953125,62.0,97.0
263,214.578125,214.927734375,64.0,117.0
264,215.046875,215.146484375,67.0,99.0
265,215.28125,215.607421875,67.0,117.0
266,215.984375,216.169921875,64.0,96.0
267,216.21875,216.326171875,67.0,96.0
268,216.453125,216.783203125,67.0,97.0
269,216.921875,217.228515625,64.0,107.0
270,217.390625,217.525390625,64.0,99.0
271,217.625,218.111328125,67.0,107.0
272,218.328125,219.271484375,69.0,122.0
273,219.265625,220.548828125,74.0,117.0
274,221.609375,221.8359375,62.0,97.0
275,221.84375,222.09765625,64.0,102.0
276,222.078125,222.53125,71.0,90.0
277,222.546875,222.65625,71.0,100.0
278,222.78125,222.931640625,71.0,93.0
279,223.015625,223.2421875,69.0,96.0
280,223.71875,223.826171875,71.0,96.0
281,223.953125,224.44921875,59.0,95.0
282,224.421875,224.986328125,62.0,90.0
283,225.359375,225.564453125,62.0,99.0
284,225.59375,225.822265625,64.0,95.0
285,225.828125,226.17578125,67.0,95.0
286,226.296875,226.41796875,67.0,112.0
287,226.53125,226.67578125,69.0,88.0
288,226.765625,227.056640625,67.0,107.0
289,227.46875,227.6484375,64.0,99.0
290,227.703125,228.12109375,62.0,97.0
291,228.171875,228.755859375,59.0,85.0
292,229.109375,229.212890625,62.0,93.0
293,229.34375,229.490234375,62.0,81.0
294,229.578125,230.021484375,64.0,102.0
295,230.046875,230.380859375,67.0,95.0
296,230.515625,230.76953125,67.0,107.0
297,230.75,230.76953125,67.0,102.0
298,230.984375,231.078125,67.0,95.0
299,231.21875,231.333984375,64.0,102.0
300,231.453125,231.830078125,62.0,97.0
301,231.921875,232.658203125,71.0,127.0
302,233.328125,233.421875,69.0,122.0
303,233.5625,233.658203125,69.0,89.0
304,233.796875,233.896484375,69.0,100.0
305,234.03125,234.13671875,71.0,99.0
306,234.265625,234.37109375,69.0,112.0
307,234.5,234.755859375,67.0,107.0
308,234.96875,235.072265625,71.0,102.0
309,235.203125,235.681640625,71.0,122.0
310,235.671875,236.478515625,69.0,112.0
311,236.609375,236.833984375,62.0,99.0
312,236.84375,236.9921875,64.0,90.0
313,237.078125,237.310546875,71.0,102.0
314,237.546875,237.650390625,71.0,112.0
315,237.78125,237.916015625,71.0,99.0
316,238.015625,238.466796875,69.0,112.0
317,238.71875,238.80859375,71.0,117.0
318,238.953125,239.4453125,59.0,93.0
319,239.421875,240.04296875,62.0,96.0
320,240.359375,240.541015625,62.0,96.0
321,240.59375,240.76953125,64.0,95.0
322,240.828125,241.119140625,67.0,112.0
323,241.296875,241.421875,67.0,112.0
324,241.53125,241.6484375,69.0,97.0
325,241.765625,241.982421875,67.0,117.0
326,242.46875,242.681640625,64.0,95.0
327,242.703125,243.103515625,62.0,96.0
328,243.171875,243.75390625,59.0,95.0
329,244.109375,244.1953125,62.0,95.0
330,244.34375,244.50390625,62.0,93.0
331,244.578125,244.927734375,64.0,100.0
332,245.046875,245.138671875,67.0,97.0
333,245.28125,245.36328125,67.0,95.0
334,245.515625,245.7890625,67.0,127.0
335,246.21875,246.462890625,64.0,81.0
336,246.453125,246.91015625,62.0,102.0
337,246.921875,247.640625,71.0,102.0
338,248.328125,248.427734375,69.0,122.0
339,248.5625,248.6484375,69.0,95.0
340,248.796875,248.908203125,69.0,102.0
341,249.03125,249.216796875,71.0,117.0
342,249.265625,249.4921875,69.0,122.0
343,249.734375,249.876953125,67.0,112.0
344,249.96875,250.126953125,64.0,89.0
345,250.203125,250.8125,69.0,117.0
346,250.90625,251.37109375,67.0,112.0
347,253.484375,253.6015625,62.0,112.0
348,253.71875,253.890625,62.0,82.0
349,253.953125,254.35546875,64.0,122.0
350,254.421875,254.541015625,67.0,107.0
351,254.65625,254.748046875,67.0,93.0
352,254.890625,255.419921875,67.0,100.0
353,255.59375,255.796875,64.0,93.0
354,255.828125,256.287109375,62.0,90.0
355,256.296875,257.091796875,71.0,117.0
356,257.794921875,258.015625,69.0,99.0
357,258.13671875,258.337890625,69.0,96.0
358,258.505859375,258.703125,69.0,112.0
359,258.861328125,259.46875,71.0,122.0
360,259.982421875,260.52734375,69.0,107.0
361,260.41015625,260.859375,67.0,96.0
362,260.86328125,262.013671875,64.0,89.0
363,262.341796875,263.169921875,69.0,122.0
364,263.337890625,269.341796875,67.0,122.0
