,start,end,pitch,velocity
0,32.196156529166664,33.263464310416666,62.0,100.0
1,33.58077202916667,33.82307974166667,62.0,90.0
2,34.04231052916666,34.58654134375,62.0,93.0
3,34.503849029166666,35.36731063958333,60.0,56.0
4,35.88846452916667,37.038464625,62.0,76.0
5,37.273080029166664,37.398080039583334,62.0,66.0
6,37.503849279166666,37.96538777916667,62.0,71.0
7,38.19615702916666,39.284618658333336,59.0,67.0
8,39.580772529166666,39.98269563958333,62.0,78.0
9,40.04231102916667,40.16154180833333,55.0,46.0
10,40.27308027916666,40.907695716666666,55.0,67.0
11,40.96538802916667,41.53269576875,62.0,65.0
12,41.426926529166664,41.89808041458333,60.0,72.0
13,41.88846502916667,42.57308047083333,59.0,69.0
14,43.04231127916667,43.29615745416667,55.0,42.0
15,43.27308052916667,43.69423441041667,57.0,73.0
16,43.734619029166666,46.498080797916664,59.0,71.0
17,46.96538852916667,48.05000400416667,62.0,97.0
18,48.35000402916667,48.45385019166667,62.0,75.0
19,48.580773279166664,49.038465625,62.0,85.0
20,49.04231177916667,50.490388822916664,60.0,85.0
21,50.657696529166664,51.72885046458333,69.0,93.0
22,52.042312029166666,52.157696654166664,69.0,92.0
23,52.27308127916667,52.65577361875,69.0,93.0
24,52.734619779166664,53.90961987708333,67.0,88.0
25,54.35000452916667,54.757696870833335,62.0,82.0
26,54.811543029166664,54.97115842708333,55.0,66.0
27,55.042312279166666,55.60192771041667,55.0,74.0
28,55.73462002916666,56.096158520833335,62.0,88.0
29,56.19615852916667,56.6884662625,60.0,74.0
30,56.65769702916667,57.1038509125,59.0,68.0
31,57.119235529166666,57.56731248958333,57.0,53.0
32,57.58077402916667,58.092312533333335,55.0,77.0
33,58.042312529166665,58.092312533333335,55.0,79.0
34,61.73462052916667,63.37500528125,67.0,90.0
35,63.58077452916667,63.85000532083333,66.0,99.0
36,63.81154377916667,64.06346687708333,67.0,69.0
37,64.04231302916666,64.30192843541667,66.0,96.0
38,64.27308227916667,65.34808236875,62.0,89.0
39,65.42692852916667,65.67308239583333,64.0,89.0
40,65.65769777916667,65.8500054875,62.0,73.0
41,65.88846702916666,66.15385166666667,59.0,67.0
42,66.11923627916667,66.37115937708333,64.0,73.0
43,66.35000552916667,66.65962093958333,62.0,73.0
44,66.81154402916667,67.02115943125,57.0,74.0
45,67.04231327916666,68.72500572708333,59.0,82.0
46,69.11923652916667,69.58462118333334,60.0,95.0
47,69.58077502916666,69.80577504791667,59.0,78.0
48,69.81154427916667,70.23077508333333,60.0,97.0
49,70.27308277916667,70.83077513333333,67.0,95.0
50,70.96539052916667,71.32692902083333,66.0,122.0
51,71.42692902916667,71.62692904583334,67.0,92.0
52,71.65769827916667,72.1269290875,66.0,100.0
53,72.35000602916666,72.70577528958333,62.0,95.0
54,72.81154452916667,74.62116006458334,59.0,95.0
55,76.50385252916666,78.03077573333333,67.0,83.0
56,78.35000652916666,78.62116039791667,66.0,112.0
57,78.58077577916667,78.80962195208333,67.0,81.0
58,78.81154502916667,79.03654504791666,66.0,102.0
59,79.04231427916666,79.59808355625,62.0,95.0
60,79.96539127916667,80.16923745,62.0,92.0
61,80.19616052916666,80.62885287291667,71.0,97.0
62,80.65769902916666,80.78269903958333,69.0,89.0
63,80.88846827916666,81.40577601458334,69.0,93.0
64,81.35000677916666,81.75769912083334,67.0,96.0
65,81.81154527916667,82.66539150416666,64.0,96.0
66,83.42693002916667,83.62308389166667,64.0,82.0
67,83.65769927916666,83.80962236875,66.0,89.0
68,83.88846852916667,84.53846858333333,67.0,83.0
69,84.58077627916667,85.315391725,64.0,90.0
70,85.27308402916667,85.315391725,64.0,81.0
71,85.50385327916666,85.65193021458333,66.0,73.0
72,85.73462252916667,86.33654565625,67.0,89.0
73,86.42693027916667,87.17885341875,62.0,97.0
74,87.11923802916667,87.17885341875,62.0,95.0
75,87.35000727916666,89.83462287083333,69.0,95.0
76,89.88846902916667,90.30193060208333,59.0,89.0
77,90.35000752916666,90.79808448958333,60.0,96.0
78,90.81154602916666,91.28269991458333,62.0,96.0
79,91.27308452916667,92.20962306875,64.0,86.0
80,92.19616152916667,92.95193082291667,71.0,102.0
81,93.11923852916667,93.42500778541667,69.0,100.0
82,93.58077702916667,93.74616165833334,67.0,92.0
83,93.81154627916666,94.49423864375,66.0,100.0
84,94.50385402916666,94.71346943125,64.0,100.0
85,94.73462327916667,95.02500791875,62.0,92.0
86,94.96539252916666,95.26923870833333,69.0,117.0
87,95.42693102916667,95.52885411458334,69.0,100.0
88,95.65770027916666,96.115392625,69.0,122.0
89,96.11923877916666,96.52500804375,62.0,95.0
90,96.58077727916667,97.42500811875,67.0,99.0
91,97.73462352916667,98.00962355208333,59.0,95.0
92,97.96539277916666,98.33462357916666,60.0,90.0
93,98.42693127916667,98.67885437708333,62.0,79.0
94,98.65770052916666,99.49423906041666,60.0,112.0
95,99.58077752916667,100.34231605416666,67.0,96.0
96,100.50385452916666,100.98846995416666,66.0,107.0
97,100.96539302916666,101.2038545875,67.0,75.0
98,101.19616227916667,101.7115469375,66.0,102.0
99,101.88847002916667,102.25577775208333,59.0,100.0
100,102.35000852916667,102.75577779375,69.0,122.0
101,102.81154702916666,102.97116242708333,67.0,112.0
102,103.04231627916667,104.607701025,67.0,102.0
103,105.11923952916666,105.41923955416667,59.0,102.0
104,105.35000877916667,105.64039341875,60.0,96.0
105,105.81154727916666,106.13654730625,62.0,97.0
106,106.04231652916667,106.99423968541667,64.0,100.0
107,106.96539352916666,107.47885511041666,71.0,112.0
108,107.88847052916667,108.15193208958333,69.0,102.0
109,108.35000902916667,108.47885519375,67.0,95.0
110,108.58077827916667,108.93654753958333,66.0,99.0
111,109.04231677916667,109.51731681875,64.0,107.0
112,109.50385527916667,109.75193222291666,62.0,92.0
113,109.73462452916667,110.05193224791667,69.0,100.0
114,110.19616302916667,110.31154765416666,69.0,112.0
115,110.42693227916666,110.73654768958333,69.0,85.0
116,110.88847077916667,111.30193235208333,62.0,100.0
117,111.35000927916667,111.86731701458334,67.0,79.0
118,112.51731706875,112.75962478125,59.0,90.0
119,112.84231709583334,113.03654788125,60.0,99.0
120,113.16731712291667,113.31154790416667,62.0,83.0
121,113.44808637708333,114.35193260625,60.0,112.0
122,114.35000952916667,115.04039420208333,67.0,112.0
123,115.27308652916666,115.5692404,66.0,112.0
124,115.73462502916666,115.91924042916666,67.0,88.0
125,115.96539427916666,116.5269327875,66.0,112.0
126,116.65770202916667,116.9192405125,62.0,96.0
127,116.88847127916667,119.71924074583333,64.0,97.0
128,135.58078052916667,136.64808831041665,62.0,104.0
129,136.96539602916667,137.20770374166668,62.0,110.0
130,137.20770374166668,137.75193455625,62.0,109.0
131,137.64424223958332,138.50962692708333,60.0,107.0
132,139.27308852916667,140.423088625,62.0,104.0
133,140.65770402916667,140.78270403958334,62.0,97.0
134,140.88847327916667,141.35001177916666,62.0,96.0
135,141.38655024375,142.47501187291667,59.0,93.0
136,142.96539652916667,143.36731963958334,62.0,97.0
137,143.42693502916666,143.54616580833334,55.0,100.0
138,143.65770427916667,144.29231971666667,55.0,100.0
139,144.15385816666665,144.72308898333333,62.0,102.0
140,144.81155052916665,145.28270441458332,60.0,101.0
141,145.27308902916667,145.95770447083333,59.0,99.0
142,146.42693527916666,146.68078145416666,55.0,94.0
143,146.65770452916666,147.07885841041667,57.0,93.0
144,147.11924302916665,148.50385852916668,59.0,92.0
145,148.50385852916668,148.95578164375,60.0,111.0
146,148.96539702916667,149.44424322291667,59.0,96.0
147,149.42693552916666,149.97116634374999,57.0,93.0
148,149.88847402916667,150.32501252708335,55.0,90.0
149,150.35001252916666,151.43462800416665,62.0,101.0
150,151.73462802916666,151.83847419166668,62.0,79.0
151,151.96539727916667,152.423089625,62.0,89.0
152,152.42693577916666,153.87501282291666,60.0,89.0
153,154.04232052916666,155.11347446458333,69.0,93.0
154,155.42693602916665,155.54232065416667,69.0,92.0
155,155.65770527916666,156.04039761875,69.0,93.0
156,156.11924377916665,157.29424387708335,67.0,86.0
157,157.73462852916666,158.14232087083334,62.0,96.0
158,158.19616702916667,158.35578242708334,55.0,98.0
159,158.42693627916665,158.98655171041668,55.0,98.0
160,159.11924402916668,159.48078252083334,62.0,100.0
161,159.58078252916667,160.0730902625,60.0,100.0
162,160.04232102916666,160.4884749125,59.0,100.0
163,160.50385952916668,160.95193648958335,57.0,100.0
164,160.96539802916666,161.47693653333334,59.0,100.0
165,161.42693652916665,161.93847503333333,57.0,100.0
166,161.88847502916667,164.22309060833334,55.0,79.0
167,165.11924452916668,166.75962928125,67.0,90.0
168,166.96539852916666,167.23462932083333,66.0,99.0
169,167.19616777916667,167.44809087708333,67.0,69.0
170,167.42693702916665,167.68655243541667,66.0,96.0
171,167.65770627916666,168.73270636875,62.0,89.0
172,168.81155252916668,169.05770639583332,64.0,89.0
173,169.04232177916666,169.2346294875,62.0,73.0
174,169.27309102916666,169.53847566666667,59.0,67.0
175,169.50386027916667,169.75578337708333,64.0,73.0
176,169.73462952916665,170.04424493958334,62.0,73.0
177,170.19616802916667,170.40578343125,57.0,74.0
178,170.42693727916668,172.50386052916667,59.0,82.0
179,172.50386052916667,172.96924518333333,60.0,95.0
180,172.96539902916666,173.19039904791666,59.0,78.0
181,173.19616827916667,173.61539908333333,60.0,97.0
182,173.65770677916666,174.21539913333334,67.0,95.0
183,174.35001452916666,174.71155302083332,66.0,122.0
184,174.81155302916667,175.01155304583332,67.0,92.0
185,175.04232227916665,175.5115530875,66.0,100.0
186,175.73463002916665,176.09039928958333,62.0,95.0
187,176.19616852916667,177.4153994,59.0,95.0
188,177.35001477916666,177.74424558125,64.0,92.0
189,177.81155327916667,178.05193791458333,64.0,96.0
190,178.04232252916665,179.25386109166666,62.0,97.0
191,179.88847652916667,181.41539973333335,67.0,83.0
192,181.73463052916668,182.00578439791667,66.0,112.0
193,181.96539977916666,182.19424595208332,67.0,81.0
194,182.19616902916667,182.42116904791666,66.0,102.0
195,182.42693827916668,182.98270755625,62.0,95.0
196,183.35001527916666,183.55386145,62.0,92.0
197,183.58078452916666,184.01347687291667,71.0,97.0
198,184.04232302916665,184.16732303958332,69.0,89.0
199,184.27309227916666,184.79040001458333,69.0,93.0
200,184.73463077916668,185.14232312083334,67.0,96.0
201,185.19616927916667,186.05001550416665,64.0,96.0
202,186.81155402916667,187.00770789166666,64.0,82.0
203,187.04232327916665,187.19424636875,66.0,89.0
204,187.27309252916666,187.92309258333333,67.0,83.0
205,187.96540027916666,188.700015725,64.0,90.0
206,188.65770802916666,188.700015725,64.0,81.0
207,188.88847727916666,189.03655421458333,66.0,73.0
208,189.11924652916667,189.72116965625,67.0,89.0
209,189.81155427916667,190.56347741875,62.0,97.0
210,190.50386202916667,190.56347741875,62.0,95.0
211,190.73463127916668,193.21924687083333,69.0,95.0
212,193.27309302916666,193.68655460208333,59.0,89.0
213,193.73463152916668,194.18270848958332,60.0,96.0
214,194.19617002916667,194.66732391458333,62.0,96.0
215,194.65770852916665,195.59424706875,64.0,86.0
216,195.58078552916666,196.33655482291667,71.0,102.0
217,196.50386252916667,196.80963178541666,69.0,100.0
218,196.96540102916666,197.13078565833334,67.0,92.0
219,197.19617027916667,197.87886264375,66.0,100.0
220,197.88847802916666,198.09809343125,64.0,100.0
221,198.11924727916667,198.40963191875,62.0,92.0
222,198.35001652916665,198.65386270833332,69.0,117.0
223,198.81155502916667,198.91347811458334,69.0,100.0
224,199.04232427916668,199.500016625,69.0,122.0
225,199.50386277916667,199.90963204375,62.0,95.0
226,199.96540127916666,200.80963211875,67.0,99.0
227,201.11924752916667,201.39424755208333,59.0,95.0
228,201.35001677916668,201.71924757916668,60.0,90.0
229,201.81155527916667,202.06347837708333,62.0,79.0
230,202.04232452916668,202.87886306041668,60.0,112.0
231,202.96540152916666,203.72694005416668,67.0,96.0
232,203.88847852916666,204.37309395416668,66.0,107.0
233,204.35001702916668,204.5884785875,67.0,75.0
234,204.58078627916666,205.0961709375,66.0,102.0
235,205.27309402916666,205.64040175208333,59.0,100.0
236,205.73463252916667,206.14040179375,69.0,122.0
237,206.19617102916666,206.35578642708333,67.0,112.0
238,206.42694027916667,207.99232502499999,67.0,102.0
239,208.50386352916667,208.80386355416667,59.0,102.0
240,208.73463277916667,209.02501741875,60.0,96.0
241,209.19617127916666,209.52117130625,62.0,97.0
242,209.42694052916667,210.37886368541666,64.0,100.0
243,210.35001752916668,210.86347911041668,71.0,112.0
244,211.27309452916666,211.53655608958334,69.0,102.0
245,211.73463302916667,211.86347919375,67.0,95.0
246,211.96540227916665,212.32117153958333,66.0,99.0
247,212.42694077916667,212.90194081875,64.0,107.0
248,212.88847927916666,213.13655622291665,62.0,92.0
249,213.11924852916667,213.43655624791666,69.0,100.0
250,213.58078702916666,213.69617165416668,69.0,112.0
251,213.81155627916667,214.12117168958332,69.0,85.0
252,214.27309477916666,214.68655635208333,62.0,100.0
253,214.73463327916667,215.25194101458334,67.0,79.0
254,215.90194106875,216.14424878124998,59.0,90.0
255,216.22694109583333,216.42117188125,60.0,99.0
256,216.55194112291667,216.69617190416668,62.0,83.0
257,216.83271037708334,217.73655660625,60.0,112.0
258,217.73463352916667,218.42501820208332,67.0,112.0
259,218.65771052916668,218.9538644,66.0,112.0
260,219.11924902916667,219.30386442916665,67.0,88.0
261,219.35001827916668,219.9115567875,66.0,112.0
262,220.04232602916667,220.30386451249998,62.0,96.0
263,220.27309527916665,223.10386474583333,64.0,97.0
264,243.11925102916666,243.53271260208334,59.0,89.0
265,243.58078952916665,244.02886648958332,60.0,96.0
266,244.04232802916667,244.51348191458334,62.0,96.0
267,244.50386652916666,245.44040506875,64.0,86.0
268,245.42694352916666,246.18271282291667,71.0,102.0
269,246.35002052916667,246.65578978541666,69.0,100.0
270,246.81155902916666,246.97694365833334,67.0,92.0
271,247.04232827916667,247.72502064374999,66.0,100.0
272,247.73463602916667,247.94425143125,64.0,100.0
273,247.96540527916667,248.25578991875,62.0,92.0
274,248.19617452916665,248.50002070833332,69.0,117.0
275,248.65771302916667,248.75963611458334,69.0,100.0
276,248.88848227916665,249.346174625,69.0,122.0
277,249.35002077916667,249.75579004375,62.0,95.0
278,249.81155927916666,250.65579011875,67.0,99.0
279,250.96540552916667,251.24040555208333,59.0,95.0
280,251.19617477916665,251.56540557916668,60.0,90.0
281,251.65771327916667,251.90963637708333,62.0,79.0
282,251.88848252916665,252.72502106041665,60.0,112.0
283,252.81155952916666,253.57309805416668,67.0,96.0
284,253.73463652916666,254.21925195416665,66.0,107.0
285,254.19617502916665,254.4346365875,67.0,75.0
286,254.42694427916666,254.9423289375,66.0,102.0
287,255.11925202916666,255.48655975208334,59.0,100.0
288,255.58079052916668,255.98655979375,69.0,122.0
289,256.04232902916664,256.20194442708333,67.0,112.0
290,256.2730982791667,257.838483025,67.0,102.0
291,258.35002152916667,258.65194463125,76.0,127.0
292,258.58079077916665,258.87117541875,74.0,117.0
293,259.04232927916667,259.2923293,69.0,112.0
294,259.27309852916665,260.0846370583333,67.0,100.0
295,260.1961755291667,260.7096371104167,71.0,112.0
296,260.65771402916664,260.99232944166664,69.0,112.0
297,261.11925252916666,261.50386794583335,74.0,107.0
298,261.5807910291667,261.75579104375,71.0,107.0
299,261.81156027916666,262.12502184375,69.0,97.0
300,262.2730987791667,262.64617573333334,67.0,112.0
301,262.96540652916667,263.28271424791666,69.0,100.0
302,263.4269450291667,263.5423296541667,69.0,112.0
303,263.65771427916667,263.9673296895833,69.0,85.0
304,264.1192527791667,264.4307912666667,71.0,122.0
305,264.58079127916665,265.52502212708333,67.0,79.0
306,265.74809906875,265.99040678125,59.0,90.0
307,266.07309909583336,266.26732988125,60.0,99.0
308,266.3980991229167,266.54232990416665,62.0,83.0
309,266.67886837708335,267.58271460625,60.0,112.0
310,267.5807915291667,268.2711762020833,67.0,112.0
311,268.50386852916665,268.8000224,66.0,112.0
312,268.96540702916667,269.15002242916665,67.0,88.0
313,269.19617627916665,269.7577147875,66.0,112.0
314,269.88848402916665,270.1500225125,62.0,96.0
315,270.1192532791667,272.95002274583334,64.0,97.0
