,start,end,pitch,velocity
0,2.657692529166667,6.315385141666667,60.0,83.0
1,5.426923529166666,6.644231322916666,74.0,82.0
2,6.350000529166667,10.042308529166666,59.0,86.0
3,10.042308529166666,13.676924216666666,57.0,90.0
4,14.196155029166666,14.653847375,71.0,74.0
5,14.657693529166666,15.590385914583333,62.0,77.0
6,13.734616529166667,16.507693683333333,55.0,70.0
7,15.580770529166667,16.546155225,67.0,63.0
8,16.503847529166666,17.553847616666665,71.0,63.0
9,17.888463029166665,20.469232475,55.0,41.0
10,17.426924529166666,20.594232485416665,48.0,75.0
11,20.196155529166667,21.119232529166666,60.0,53.0
12,20.196155529166667,21.119232529166666,64.0,64.0
13,18.350001529166665,21.119232529166666,67.0,86.0
14,21.580771029166666,22.253848008333332,54.0,52.0
15,22.042309529166666,22.7653865125,66.0,66.0
16,21.119232529166666,22.942309604166667,47.0,76.0
17,22.042309529166666,23.288463479166666,62.0,64.0
18,22.965386529166665,24.142309704166667,52.0,72.0
19,23.888463529166668,24.91730976875,67.0,63.0
20,23.888463529166668,24.9346174625,64.0,67.0
21,23.426925029166668,25.048079010416668,59.0,47.0
22,25.273079029166666,26.125002177083335,52.0,60.0
23,24.811540529166667,26.24615603333333,45.0,75.0
24,25.734617529166666,26.42884835625,64.0,61.0
25,25.734617529166666,26.663463760416665,60.0,66.0
26,26.196156029166666,26.725002227083333,57.0,57.0
27,26.657694529166665,27.736540772916666,50.0,76.0
28,27.580771529166668,28.596156229166667,57.0,49.0
29,27.580771529166668,28.613463922916665,62.0,55.0
30,27.580771529166668,28.623079308333335,66.0,53.0
31,28.965387029166667,32.16346421875,50.0,67.0
32,29.426925529166667,32.17692575833333,55.0,67.0
33,28.503848529166667,32.20769499166666,43.0,77.0
34,32.196156529166664,34.8346182875,55.0,54.0
35,32.196156529166664,34.961541375,48.0,42.0
36,32.196156529166664,34.97692599166667,64.0,60.0
37,32.196156529166664,34.980772145833335,67.0,59.0
38,32.196156529166664,34.9961567625,60.0,58.0
39,35.88846452916667,38.432695510416664,66.0,43.0
40,35.88846452916667,38.78654169375,54.0,50.0
41,35.88846452916667,38.817310927083334,59.0,37.0
42,35.88846452916667,38.830772466666666,47.0,45.0
43,38.657695529166666,39.04423402291667,66.0,76.0
44,35.88846452916667,39.06346479375,62.0,48.0
45,39.580772529166666,40.8346187875,52.0,59.0
46,39.580772529166666,40.87308032916667,45.0,50.0
47,39.580772529166666,41.02884957291667,64.0,53.0
48,39.580772529166666,41.20961881875,60.0,61.0
49,39.580772529166666,41.378849602083335,57.0,49.0
50,41.426926529166664,42.38654199375,50.0,65.0
51,42.35000352916666,43.33461899583333,66.0,42.0
52,42.35000352916666,43.34615745833333,62.0,52.0
53,41.88846502916667,43.461542083333335,57.0,54.0
54,44.19615752916667,46.088465379166664,55.0,40.0
55,43.734619029166666,46.2461577,50.0,36.0
56,43.27308052916667,46.30961924375,43.0,69.0
57,45.11923452916667,46.34615770833333,59.0,38.0
58,45.11923452916667,46.35961924791667,62.0,36.0
59,46.96538852916667,47.08269623125,71.0,58.0
60,47.42692702916666,47.49808088125,71.0,25.0
61,46.96538852916667,48.07115785208333,60.0,48.0
62,46.96538852916667,49.87885031041667,48.0,59.0
63,47.42692702916666,49.89808108125,55.0,38.0
64,47.888465529166666,49.97885031875,71.0,44.0
65,46.96538852916667,50.0192349375,64.0,53.0
66,46.96538852916667,50.032696477083334,67.0,46.0
67,48.35000402916667,50.15192725625,60.0,41.0
68,50.657696529166664,51.465388904166666,59.0,51.0
69,50.657696529166664,51.67500430625,47.0,61.0
70,50.657696529166664,52.09038895625,66.0,53.0
71,50.657696529166664,52.13269665208333,69.0,52.0
72,52.042312029166666,52.24231204583333,59.0,23.0
73,50.657696529166664,52.34231205416667,62.0,59.0
74,52.50385052916667,53.27115828541667,64.0,58.0
75,52.50385052916667,53.27885059375,67.0,63.0
76,52.50385052916667,53.6192352375,40.0,52.0
77,52.50385052916667,53.70769678333333,59.0,60.0
78,53.42692752916667,53.82308140833333,67.0,90.0
79,52.50385052916667,53.92885064791667,52.0,57.0
80,53.65769677916666,53.94808141875,66.0,95.0
81,53.888466029166665,54.42500453541667,59.0,67.0
82,54.35000452916667,55.36538922916667,45.0,69.0
83,54.811543029166664,55.394235385416664,52.0,47.0
84,54.35000452916667,55.684620025,64.0,65.0
85,54.35000452916667,56.0423123625,60.0,69.0
86,55.27308152916667,56.269235458333334,57.0,37.0
87,56.19615852916667,56.921158589583335,62.0,67.0
88,56.19615852916667,57.37500478125,50.0,59.0
89,57.58077402916667,58.067312531249996,57.0,53.0
90,57.119235529166666,58.09423561041667,62.0,77.0
91,56.19615852916667,58.1192356125,66.0,65.0
92,59.888466529166664,60.676928133333334,67.0,58.0
93,59.888466529166664,60.71154352083333,62.0,55.0
94,58.965389529166664,60.72885121458333,55.0,58.0
95,59.42692802916667,60.91538969166667,59.0,57.0
96,58.50385102916667,61.0269281625,50.0,63.0
97,58.042312529166665,61.167312789583335,43.0,68.0
98,60.81154352916666,61.407697425,67.0,99.0
99,61.273082029166666,61.68654360208333,62.0,58.0
100,61.73462052916667,61.953851316666665,36.0,72.0
101,61.73462052916667,62.26154365,64.0,74.0
102,61.73462052916667,62.611543679166665,67.0,73.0
103,61.73462052916667,62.81346677291667,60.0,75.0
104,62.65769752916667,64.05385149166666,55.0,96.0
105,62.196159029166665,64.08077457083333,48.0,55.0
106,63.58077452916667,64.43269767708334,67.0,64.0
107,63.58077452916667,64.44423613958334,64.0,63.0
108,63.119236029166665,64.4653899875,60.0,62.0
109,64.50385152916667,64.79039001458334,60.0,42.0
110,64.50385152916667,64.98269772291667,64.0,89.0
111,64.50385152916667,64.98654387708334,67.0,89.0
112,64.96539002916667,65.05577465208333,60.0,33.0
113,65.42692852916667,66.15192858958333,66.0,74.0
114,65.42692852916667,66.17692859166667,62.0,74.0
115,65.88846702916666,66.576928625,54.0,61.0
116,65.42692852916667,66.72885171458333,47.0,65.0
117,65.42692852916667,67.0500055875,59.0,74.0
118,66.35000552916667,68.007697975,66.0,97.0
119,66.81154402916667,68.10769798333334,62.0,60.0
120,67.27308252916667,68.32885184791667,59.0,37.0
121,68.19615952916666,68.68077495416667,66.0,112.0
122,68.65769802916667,69.19231345833333,59.0,69.0
123,69.58077502916666,70.15769815416667,52.0,66.0
124,69.11923652916667,70.25192893125,45.0,82.0
125,70.04231352916666,70.96539052916667,64.0,92.0
126,70.50385202916667,71.18462131666666,60.0,62.0
127,70.96539052916667,72.09423677708334,38.0,75.0
128,71.42692902916667,72.13077524166667,45.0,60.0
129,71.88846752916666,72.35962141458333,50.0,63.0
130,72.35000602916666,72.81154452916667,62.0,60.0
131,71.88846752916666,72.81154452916667,66.0,92.0
132,72.81154452916667,73.76731383958334,55.0,93.0
133,72.81154452916667,73.80192922708333,43.0,92.0
134,73.73462152916666,74.61539083333334,57.0,117.0
135,73.73462152916666,74.66346776041667,45.0,96.0
136,74.65769852916667,75.57308322083334,59.0,97.0
137,74.65769852916667,75.59039091458334,47.0,76.0
138,75.58077552916667,76.50385252916666,59.0,93.0
139,75.58077552916667,76.51346791458333,62.0,83.0
140,75.58077552916667,76.51539099166666,41.0,82.0
141,75.58077552916667,76.52116022291666,55.0,78.0
142,75.58077552916667,76.53846791666666,65.0,82.0
143,78.35000652916666,79.15769890416666,60.0,64.0
144,77.42692952916667,79.34231430416666,52.0,77.0
145,77.88846802916666,79.384622,48.0,40.0
146,76.50385252916666,79.42885277291667,36.0,90.0
147,76.96539102916667,79.4884681625,43.0,58.0
148,77.42692952916667,79.54808355208333,55.0,69.0
149,79.27308352916667,79.63462202083333,60.0,90.0
150,80.19616052916666,80.91154520416667,69.0,60.0
151,80.19616052916666,81.15962214791666,54.0,52.0
152,80.19616052916666,81.20962215208333,51.0,65.0
153,80.19616052916666,81.24423753958334,59.0,89.0
154,80.19616052916666,81.2653913875,47.0,52.0
155,80.19616052916666,81.72885296458334,66.0,81.0
156,81.11923752916667,81.73462219583334,69.0,75.0
157,80.19616052916666,81.90577605625,63.0,93.0
158,82.04231452916666,82.44616071666667,67.0,69.0
159,82.04231452916666,82.46346841041667,64.0,69.0
160,81.58077602916667,82.5346222625,59.0,52.0
161,82.50385302916666,83.34808386875,47.0,43.0
162,82.04231452916666,83.35193002291666,40.0,74.0
163,82.96539152916667,83.37500694791666,52.0,70.0
164,82.96539152916667,83.62116081458333,55.0,73.0
165,84.35000702916666,84.98846862083333,52.0,63.0
166,83.88846852916667,85.14616094166666,45.0,82.0
167,84.81154552916666,85.37885326875,64.0,90.0
168,85.27308402916667,85.5115455875,57.0,53.0
169,85.73462252916667,86.93654570625,36.0,72.0
170,85.73462252916667,87.18269957291666,63.0,76.0
171,85.73462252916667,87.18462265,55.0,69.0
172,85.73462252916667,87.4153919,60.0,72.0
173,87.58077652916667,88.10962272708333,62.0,65.0
174,87.58077652916667,88.1192381125,66.0,72.0
175,87.58077652916667,88.19808427291666,57.0,66.0
176,88.50385352916666,89.02885357291666,50.0,86.0
177,88.96539202916667,89.36731513958333,54.0,74.0
178,88.04231502916667,89.48462284166666,45.0,85.0
179,89.42693052916667,90.2769306,57.0,90.0
180,89.42693052916667,90.30769983333333,54.0,93.0
181,89.42693052916667,90.46539215416666,50.0,92.0
182,90.35000752916666,90.46539215416666,54.0,96.0
183,90.35000752916666,90.50193061875,57.0,86.0
184,87.58077652916667,90.54423831458334,38.0,73.0
185,91.27308452916667,91.76923841666667,60.0,97.0
186,91.27308452916667,92.0307769,64.0,90.0
187,91.73462302916667,92.28269999791667,43.0,61.0
188,91.27308452916667,92.3192384625,36.0,85.0
189,92.19616152916667,92.5730846375,60.0,112.0
190,92.19616152916667,92.59808463958333,64.0,97.0
191,91.27308452916667,92.65000772083333,55.0,95.0
192,93.11923852916667,93.95962321458333,62.0,100.0
193,93.11923852916667,93.98654629375,66.0,107.0
194,93.11923852916667,93.99616167916666,57.0,93.0
195,93.11923852916667,94.04423860625,38.0,36.0
196,94.04231552916667,94.59423865208333,66.0,89.0
197,94.50385402916666,94.68077712083333,57.0,32.0
198,95.42693102916667,96.01539261666666,54.0,107.0
199,94.96539252916666,96.10962339375,47.0,78.0
200,95.88846952916667,96.37693110833334,66.0,127.0
201,96.35000802916666,96.78077729583333,62.0,93.0
202,96.58077727916667,96.87116191875,59.0,60.0
203,97.27308502916667,97.915392775,52.0,96.0
204,96.81154652916666,98.24616203333333,40.0,79.0
205,97.04231577916667,98.28846972916666,47.0,75.0
206,97.50385427916666,98.31731588541666,55.0,81.0
207,98.19616202916667,98.69808514791667,59.0,62.0
208,97.73462352916667,98.7346236125,64.0,92.0
209,99.11923902916666,99.73077754166667,52.0,66.0
210,98.65770052916666,99.79039293125,45.0,78.0
211,99.58077752916667,100.52885453125,64.0,102.0
212,100.04231602916667,100.5346237625,57.0,86.0
213,100.50385452916666,101.79808540625,35.0,74.0
214,100.96539302916666,101.99616234583333,47.0,61.0
215,101.42693152916667,102.19808543958334,66.0,107.0
216,101.42693152916667,102.35577776041667,62.0,88.0
217,101.88847002916667,102.41347007291667,59.0,73.0
218,103.04231627916667,103.3730855375,55.0,69.0
219,102.81154702916666,103.38077784583334,52.0,82.0
220,103.50385477916667,103.86731634791667,52.0,85.0
221,102.35000852916667,104.11539329166666,40.0,73.0
222,102.58077777916667,104.26923945833333,47.0,65.0
223,103.73462402916667,104.72116257291667,55.0,75.0
224,103.27308552916666,104.90000874166667,64.0,99.0
225,103.96539327916666,104.92116258958333,59.0,82.0
226,104.65770102916666,105.00962413541667,52.0,81.0
227,104.42693177916667,105.21347030625,47.0,70.0
228,104.88847027916667,105.22308569166667,55.0,75.0
229,104.19616252916667,105.41923955416667,40.0,66.0
230,105.35000877916667,105.44616263333333,47.0,99.0
231,105.11923952916666,105.85962420625,64.0,107.0
232,105.58077802916667,105.88077805416667,59.0,99.0
233,106.96539352916666,107.24231662916667,48.0,92.0
234,106.04231652916667,107.25962432291666,60.0,97.0
235,105.81154727916666,107.39231664166667,55.0,73.0
236,106.04231652916667,107.46539357083333,64.0,89.0
237,107.42693202916666,107.50962434375,60.0,96.0
238,106.04231652916667,107.57116281041667,36.0,93.0
239,106.50385502916667,107.91154745416667,43.0,45.0
240,107.88847052916667,108.65577828541666,66.0,112.0
241,107.88847052916667,108.68270136458334,62.0,100.0
242,107.88847052916667,108.88077830416667,57.0,90.0
243,107.88847052916667,109.24808602708333,38.0,88.0
244,108.35000902916667,109.28847064583333,45.0,72.0
245,108.81154752916666,109.40962450208333,50.0,77.0
246,108.81154752916666,109.56154759166667,62.0,97.0
247,109.27308602916666,109.78654761041666,57.0,89.0
248,110.19616302916667,110.77308615416666,54.0,54.0
249,109.73462452916667,110.78847077083333,47.0,96.0
250,110.65770152916667,111.16731695625,66.0,107.0
251,110.65770152916667,111.52308621666667,62.0,66.0
252,111.11924002916666,112.38270167291667,59.0,63.0
253,111.58077852916666,112.86154786666667,40.0,81.0
254,112.04231702916667,112.89039402291667,47.0,62.0
255,112.50385552916667,113.05000942083333,52.0,79.0
256,112.50385552916667,113.50000945833334,67.0,90.0
257,112.50385552916667,113.50577868958334,64.0,83.0
258,112.96539402916666,113.53270176875,59.0,72.0
259,113.42693252916666,114.65577878541667,45.0,92.0
260,113.88847102916667,114.70193263541667,52.0,69.0
261,114.35000952916667,114.84424033958334,64.0,78.0
262,114.35000952916667,115.08270189791666,60.0,83.0
263,114.81154802916667,115.10193266875,57.0,74.0
264,115.27308652916666,116.39231739166667,47.0,74.0
265,115.27308652916666,116.49424047708334,59.0,82.0
266,115.27308652916666,116.62116356458333,63.0,70.0
267,115.27308652916666,116.62116356458333,66.0,74.0
268,117.58077902916666,118.2346252375,47.0,40.0
269,118.04231752916667,118.52693295416667,52.0,61.0
270,118.04231752916667,118.73270220208333,57.0,95.0
271,118.04231752916667,118.87116375208333,59.0,92.0
272,118.50385602916667,120.51731773541667,47.0,40.0
273,118.96539452916667,120.63077928333334,56.0,85.0
274,118.96539452916667,120.64039466875,52.0,81.0
275,117.11924052916666,120.6461639,40.0,86.0
276,118.96539452916667,120.72885621458333,59.0,76.0
277,120.81154852916667,124.46924114166667,60.0,83.0
278,123.58077952916666,124.79808732291667,74.0,82.0
279,124.50385652916667,128.19616452916668,59.0,86.0
280,128.19616452916668,131.83078021666665,57.0,90.0
281,132.35001102916667,132.807703375,71.0,74.0
282,132.81154952916665,133.74424191458334,62.0,77.0
283,131.88847252916668,134.66154968333333,55.0,70.0
284,133.73462652916666,134.700011225,67.0,63.0
285,134.65770352916667,135.58078052916667,71.0,63.0
286,136.50385752916665,137.6423191625,48.0,96.0
287,137.88847302916668,138.17501151458333,48.0,52.0
288,137.42693452916666,138.20193459375,63.0,83.0
289,137.42693452916666,138.39039614791668,60.0,81.0
290,135.58078052916667,138.47693461666665,36.0,97.0
291,136.04231902916666,138.49039615625,43.0,57.0
292,136.96539602916667,138.7500115625,55.0,89.0
293,138.81155002916665,139.27308852916667,60.0,78.0
294,138.35001152916666,139.27308852916667,63.0,93.0
295,139.73462702916666,140.41731939375,54.0,92.0
296,139.27308852916667,140.50001170833335,47.0,99.0
297,140.19616552916668,140.74039634375,66.0,122.0
298,140.65770402916667,141.18078099583335,59.0,93.0
299,141.11924252916666,142.14616569166665,40.0,95.0
300,141.58078102916667,142.17501184791666,47.0,61.0
301,142.50385802916668,143.00193499375,64.0,83.0
302,142.04231952916666,143.01731961041668,67.0,96.0
303,143.42693502916666,144.0346273875,52.0,66.0
304,142.96539652916667,144.11155047083332,45.0,78.0
305,143.88847352916667,144.7730889875,64.0,100.0
306,144.35001202916666,144.85578130208333,60.0,78.0
307,145.73462752916666,145.79424291875,57.0,27.0
308,145.27308902916667,145.89616600416667,45.0,55.0
309,144.81155052916665,145.91347369791666,38.0,90.0
310,146.19616602916668,146.68462760833333,62.0,63.0
311,145.73462752916666,146.73270453541667,66.0,122.0
312,147.11924302916665,148.55193545625,50.0,48.0
313,148.04232002916666,149.07308934583332,59.0,85.0
314,147.58078152916667,149.33847398333333,62.0,112.0
315,148.50385852916668,149.34424321458334,55.0,93.0
316,148.96539702916667,149.65962785625,50.0,77.0
317,149.42693552916666,149.88655095208333,55.0,82.0
318,146.65770452916666,149.9884740375,43.0,93.0
319,149.88847402916667,150.0346278875,50.0,81.0
320,149.42693552916666,150.03847404166666,59.0,89.0
321,149.42693552916666,150.03847404166666,62.0,82.0
322,149.42693552916666,150.03847404166666,65.0,86.0
323,150.81155102916668,151.55385878333334,48.0,71.0
324,151.27308952916667,151.80962803541667,64.0,90.0
325,151.27308952916667,152.12501267708333,60.0,95.0
326,151.73462802916666,152.238474225,48.0,77.0
327,152.19616652916667,153.0115512125,63.0,100.0
328,152.19616652916667,153.16732045625,60.0,71.0
329,150.35001252916666,153.207705075,36.0,93.0
330,152.65770502916666,153.27693585,48.0,57.0
331,153.11924352916665,153.72308973333332,63.0,99.0
332,153.58078202916667,154.07885899375,60.0,72.0
333,154.50385902916668,155.05770522916666,54.0,89.0
334,154.04232052916666,155.13078215833335,47.0,90.0
335,154.96539752916667,155.40001295,66.0,100.0
336,154.96539752916667,155.85193606458333,62.0,81.0
337,155.42693602916665,156.22885917291666,59.0,69.0
338,155.88847452916667,156.99616692916666,40.0,92.0
339,156.35001302916666,157.00193616041668,47.0,61.0
340,157.04232077916666,157.73655160625,64.0,88.0
341,156.81155152916668,157.75770545416665,67.0,100.0
342,157.27309002916667,157.92116700625,59.0,77.0
343,158.19616702916667,158.77309015416665,52.0,54.0
344,157.73462852916666,158.83078246666668,45.0,73.0
345,158.65770552916666,159.46155175,64.0,97.0
346,159.11924402916668,159.48655175208333,60.0,77.0
347,159.35001327916666,159.64809022708334,57.0,72.0
348,160.04232102916666,160.55385953333334,45.0,48.0
349,159.58078252916667,160.56347491875,38.0,79.0
350,160.96539802916666,161.51732115208333,62.0,64.0
351,160.50385952916668,161.54424423125,66.0,112.0
352,161.88847502916667,162.47693661666668,50.0,65.0
353,161.42693652916665,163.12309051666668,43.0,77.0
354,162.58078277916667,163.26347514375,50.0,72.0
355,162.35001352916666,164.09039828958333,62.0,107.0
356,162.81155202916668,164.09232136666665,59.0,92.0
357,163.73462902916665,164.3653983125,50.0,77.0
358,164.19616752916667,164.50578293958333,55.0,96.0
359,164.42693677916665,164.51924447916667,50.0,68.0
360,163.27309052916667,164.55962909791666,43.0,89.0
361,164.19616752916667,164.7115521875,59.0,93.0
362,164.19616752916667,164.88078297083334,62.0,88.0
363,164.88847527916667,165.02885990625,59.0,76.0
364,164.65770602916666,165.11924452916668,55.0,96.0
365,165.58078302916667,166.21924462083334,55.0,72.0
366,166.04232152916666,166.86347544375,64.0,112.0
367,166.50386002916667,166.89616775416667,60.0,89.0
368,166.96539852916666,167.75001397916665,67.0,72.0
369,166.96539852916666,167.83462937083334,55.0,76.0
370,166.96539852916666,167.86539860416667,60.0,74.0
371,165.11924452916668,168.18655247708332,48.0,102.0
372,167.88847552916667,168.67501405625,67.0,99.0
373,168.35001402916666,168.79232175833334,60.0,79.0
374,166.96539852916666,168.79424483541666,64.0,71.0
375,168.81155252916668,170.55962959791665,47.0,93.0
376,169.27309102916666,170.72501422708334,54.0,81.0
377,170.42693727916668,171.03847579166666,59.0,41.0
378,169.73462952916665,171.31924504583333,66.0,117.0
379,170.19616802916667,171.40770659166665,62.0,45.0
380,171.11924502916668,171.67693738333332,54.0,70.0
381,170.65770652916666,171.80193739375,47.0,78.0
382,171.81155277916668,172.54232207083334,62.0,90.0
383,171.58078352916667,172.57886053541665,66.0,122.0
384,172.04232202916666,172.61924515416666,59.0,75.0
385,172.96539902916666,173.4346298375,52.0,47.0
386,172.50386052916667,173.56539907916667,45.0,81.0
387,173.88847602916667,174.30770683333333,60.0,99.0
388,173.42693752916668,174.32886068125,64.0,112.0
389,174.81155302916667,175.61539925,57.0,73.0
390,174.35001452916666,175.66539925416666,50.0,99.0
391,175.27309152916666,176.18463006666667,66.0,112.0
392,175.73463002916665,176.20963006875,62.0,81.0
393,176.65770702916666,177.13270706875,55.0,83.0
394,176.42693777916668,177.28655323541668,50.0,74.0
395,176.19616852916667,177.89232251666667,43.0,88.0
396,177.58078402916667,177.97309175416666,62.0,90.0
397,176.88847627916667,178.01347637291667,59.0,117.0
398,177.35001477916666,178.05963022291667,50.0,63.0
399,178.04232252916665,178.71347643125,65.0,90.0
400,178.04232252916665,178.776937975,55.0,82.0
401,178.04232252916665,178.83270721041666,62.0,79.0
402,178.04232252916665,178.86347644375,59.0,64.0
403,178.50386102916667,179.03270722708334,50.0,89.0
404,179.19616877916667,179.3884764875,50.0,83.0
405,178.04232252916665,179.47693803333334,43.0,88.0
406,178.96539952916666,179.64039958541667,62.0,100.0
407,179.42693802916668,179.75193805625,59.0,95.0
408,179.88847652916667,180.35001502916666,60.0,99.0
409,179.88847652916667,180.44616888333334,64.0,93.0
410,179.65770727916666,180.70770736666665,55.0,78.0
411,180.35001502916666,180.99616892916666,43.0,42.0
412,180.81155352916667,181.730784375,64.0,90.0
413,180.81155352916667,182.07886132708333,60.0,96.0
414,182.19616902916667,182.64809214375,55.0,69.0
415,181.73463052916668,182.73655368958333,48.0,79.0
416,181.27309202916666,182.94424601458334,43.0,47.0
417,179.88847652916667,182.94616909166666,36.0,93.0
418,182.88847677916667,183.08655371875,48.0,83.0
419,182.65770752916666,183.21347680625,64.0,122.0
420,183.11924602916667,183.57886145208334,60.0,82.0
421,184.04232302916665,184.65963077291667,54.0,79.0
422,183.58078452916666,184.8000154,47.0,93.0
423,184.50386152916667,185.27116928541668,66.0,112.0
424,184.96540002916666,185.32886159791667,63.0,102.0
425,185.19616927916667,185.92116933958334,59.0,79.0
426,186.35001552916665,186.74424633125,52.0,88.0
427,185.42693852916668,186.76347710208333,40.0,89.0
428,185.88847702916667,186.77116941041666,47.0,59.0
429,186.58078477916666,187.33270791875,64.0,90.0
430,186.35001552916665,187.3500156125,67.0,100.0
431,186.81155402916667,187.38655407708333,59.0,82.0
432,187.73463102916668,188.84809266041665,52.0,86.0
433,188.19616952916667,188.9884772875,64.0,112.0
434,188.65770802916666,189.023092675,60.0,93.0
435,187.27309252916666,189.06155421666668,45.0,95.0
436,189.58078502916666,190.0730927625,55.0,68.0
437,189.11924652916667,190.19424661875,48.0,96.0
438,190.04232352916665,191.007708225,63.0,100.0
439,190.50386202916667,191.00963130208333,55.0,61.0
440,190.04232352916665,191.01540053333332,60.0,99.0
441,191.42693902916668,191.67886212708333,57.0,79.0
442,191.42693902916668,191.68078520416665,62.0,81.0
443,191.42693902916668,191.68270828125,66.0,76.0
444,191.42693902916668,192.04424677291667,45.0,69.0
445,191.88847752916666,192.0807852375,57.0,88.0
446,191.88847752916666,192.0923237,62.0,97.0
447,191.88847752916666,192.12501601041666,50.0,78.0
448,191.88847752916666,192.13463139583334,66.0,96.0
449,192.35001602916665,192.48270834791666,45.0,71.0
450,192.35001602916665,192.49040065625,57.0,97.0
451,192.35001602916665,192.4961698875,50.0,76.0
452,192.35001602916665,192.4961698875,62.0,117.0
453,192.35001602916665,192.59232374166666,66.0,117.0
454,190.96540052916666,192.69040067291667,38.0,97.0
455,192.81155452916667,193.04040070208333,50.0,100.0
456,192.81155452916667,193.05578531875,45.0,92.0
457,192.81155452916667,193.07116993541666,38.0,74.0
458,192.81155452916667,193.07116993541666,57.0,93.0
459,192.81155452916667,193.07886224375,62.0,99.0
460,192.81155452916667,193.10193916875,66.0,112.0
461,195.11924702916667,195.35193935625,60.0,100.0
462,195.35001627916665,195.59232399166666,64.0,112.0
463,194.88847777916666,195.69424707708333,55.0,92.0
464,194.65770852916665,195.86732401458335,48.0,90.0
465,195.81155477916667,195.91347786458334,55.0,97.0
466,196.04232402916668,196.38270867291666,64.0,100.0
467,195.58078552916666,196.41732406041666,67.0,100.0
468,196.27309327916666,196.52501637708332,60.0,93.0
469,196.73463177916668,197.05193949791666,57.0,89.0
470,196.96540102916666,197.27501643958334,62.0,70.0
471,197.19617027916667,197.52886261458335,57.0,68.0
472,196.50386252916667,197.67117031875,50.0,102.0
473,197.65770877916665,197.92309341666666,57.0,76.0
474,198.11924727916667,198.1846319,54.0,31.0
475,197.88847802916666,198.25193959791667,62.0,78.0
476,197.42693952916667,198.29424729375,66.0,112.0
477,198.11924727916667,198.34809345208333,57.0,97.0
478,198.81155502916667,199.24232429583333,59.0,83.0
479,199.04232427916668,199.28847814583332,62.0,96.0
480,198.58078577916666,199.42309354166667,54.0,100.0
481,198.35001652916665,199.6730935625,47.0,90.0
482,199.27309352916666,199.7654012625,66.0,117.0
483,199.73463202916668,200.13270898541666,62.0,74.0
484,199.50386277916667,200.22501668541668,59.0,66.0
485,199.96540127916666,200.25770899583333,66.0,100.0
486,200.88847827916666,201.20578599791668,59.0,81.0
487,200.42693977916667,201.50193986875,47.0,71.0
488,200.65770902916665,201.50193986875,52.0,89.0
489,200.19617052916666,201.5654014125,40.0,74.0
490,201.35001677916668,201.59040141458334,59.0,88.0
491,201.58078602916666,202.05193991458333,64.0,99.0
492,201.11924752916667,202.06732453125,67.0,107.0
493,201.81155527916667,202.10193991875,59.0,92.0
494,202.73463227916668,202.93078614166666,60.0,100.0
495,202.50386302916667,203.0654015375,57.0,85.0
496,202.27309377916666,203.0884784625,52.0,69.0
497,202.04232452916668,203.65194004791667,45.0,77.0
498,203.19617077916666,203.78655544375,52.0,65.0
499,203.42694002916667,203.79617082916667,57.0,95.0
500,202.96540152916666,203.83270929374999,64.0,100.0
501,203.65770927916665,203.8730939125,60.0,102.0
502,204.58078627916666,204.87886322708334,63.0,112.0
503,204.11924777916667,204.94424784791667,54.0,95.0
504,204.35001702916668,205.01347862291667,59.0,81.0
505,205.04232477916668,205.18270940625,54.0,100.0
506,203.88847852916666,205.25963248958334,47.0,99.0
507,204.81155552916667,205.60770944166666,66.0,112.0
508,205.27309402916666,205.64424790625,63.0,117.0
509,205.50386327916667,205.73463252916667,59.0,96.0
510,205.73463252916667,206.53847875,67.0,95.0
511,205.73463252916667,206.57117106041667,64.0,90.0
512,205.73463252916667,206.57694029166666,40.0,112.0
513,206.65770952916665,207.43078651666667,69.0,89.0
514,206.65770952916665,207.49232498333333,66.0,122.0
515,206.65770952916665,207.49809421458332,42.0,122.0
516,207.58078652916666,208.3961712125,67.0,96.0
517,207.58078652916666,208.47117121875,62.0,96.0
518,207.58078652916666,208.49424814374999,43.0,86.0
519,207.58078652916666,208.50386352916667,71.0,96.0
520,208.50386352916667,209.36732513958333,71.0,107.0
521,208.50386352916667,209.40770975833334,67.0,102.0
522,208.50386352916667,209.4115559125,53.0,86.0
523,208.50386352916667,209.4115559125,65.0,100.0
524,208.50386352916667,209.42117129791666,62.0,99.0
525,209.88847902916666,210.18078674583333,60.0,95.0
526,210.11924827916667,210.34809445208333,64.0,90.0
527,209.65770977916665,210.42886368958332,55.0,82.0
528,210.58078677916666,210.71924832916667,55.0,90.0
529,209.42694052916667,210.77694064166667,48.0,78.0
530,210.35001752916668,211.04424835625,67.0,122.0
531,210.81155602916667,211.10001759166667,64.0,100.0
532,211.04232527916668,211.28655606875,60.0,99.0
533,211.50386377916666,211.84232534583333,57.0,76.0
534,211.73463302916667,212.04809459375,62.0,79.0
535,211.96540227916665,212.29040230625,57.0,82.0
536,211.27309452916666,212.54232540416666,50.0,97.0
537,212.42694077916667,212.68463310833334,57.0,68.0
538,212.65771002916668,213.10194083541666,62.0,90.0
539,212.88847927916666,213.11347929791665,57.0,93.0
540,212.19617152916666,213.1269408375,66.0,117.0
541,213.58078702916666,214.0038639875,59.0,86.0
542,213.81155627916667,214.05386399166667,62.0,88.0
543,213.35001777916668,214.16732553958335,54.0,83.0
544,214.27309477916666,214.38655632708333,54.0,86.0
545,213.11924852916667,214.42309479166667,47.0,74.0
546,214.04232552916667,214.70963327708333,66.0,127.0
547,214.50386402916666,214.80194097708332,62.0,107.0
548,214.73463327916667,215.11347946458332,59.0,100.0
549,215.42694102916667,215.95963338125,52.0,95.0
550,215.65771027916668,216.0115564625,59.0,90.0
551,215.19617177916666,216.39617187916667,47.0,72.0
552,216.11924877916667,216.40578726458332,52.0,97.0
553,214.96540252916665,216.41924880416667,40.0,70.0
554,216.35001802916668,216.82309499166666,64.0,96.0
555,215.88847952916666,216.82694114583333,67.0,112.0
556,216.58078727916666,216.85963345625,59.0,99.0
557,217.27309502916665,217.56732582291667,57.0,78.0
558,217.04232577916667,217.79809507291665,52.0,97.0
559,217.50386427916666,218.25771049583332,64.0,112.0
560,217.73463352916667,218.48655666875,57.0,77.0
561,216.81155652916667,218.52501821041668,45.0,89.0
562,218.19617202916666,218.61347975625,60.0,102.0
563,217.96540277916665,218.65771052916668,52.0,66.0
564,218.42694127916667,218.69809514791666,64.0,78.0
565,219.11924902916667,219.89232601666666,59.0,90.0
566,218.65771052916668,220.19617219583333,47.0,82.0
567,219.58078752916666,220.47309529583333,66.0,112.0
568,220.04232602916667,220.49424914375,63.0,92.0
569,220.96540302916665,221.40578768125,52.0,88.0
570,221.19617227916666,221.42501845208332,57.0,93.0
571,220.73463377916667,221.55578769375,47.0,89.0
572,221.42694152916667,221.90963387708334,59.0,127.0
573,221.88848002916666,222.26155698333332,57.0,92.0
574,220.50386452916666,222.26348006041667,40.0,81.0
575,221.65771077916668,222.41155699583334,47.0,92.0
576,222.35001852916668,223.17501859791668,59.0,74.0
577,222.35001852916668,223.20578783125,56.0,73.0
578,222.35001852916668,223.23078783333332,52.0,76.0
579,223.50386477916666,223.87886481041667,47.0,86.0
580,222.35001852916668,223.95194173958333,40.0,76.0
581,223.27309552916665,224.16924945,56.0,97.0
582,223.73463402916667,224.17694175833333,52.0,73.0
583,223.27309552916665,224.19424945208334,59.0,93.0
584,224.19617252916666,224.45194178124999,71.0,78.0
585,224.42694177916667,224.70963411041666,73.0,66.0
586,224.65771102916668,224.92117258958334,71.0,59.0
587,224.88848027916666,225.16540337916666,73.0,48.0
588,224.1807879125,225.22501876875,52.0,97.0
589,225.11924952916667,225.37117262708333,71.0,55.0
590,225.35001877916667,225.65386495833334,73.0,57.0
591,225.58078802916665,225.84809574375,71.0,59.0
592,224.19424945208334,225.93078805833332,40.0,79.0
593,225.1384803,226.00194191041666,59.0,100.0
594,224.6654033375,226.00963421875,47.0,63.0
595,225.81155727916666,226.04232652916667,73.0,57.0
596,225.58078802916665,226.05578806875,52.0,79.0
597,226.04232652916667,226.28848039583332,71.0,82.0
598,226.27309577916665,226.56540349583332,76.0,56.0
599,226.50386502916666,226.77501889791665,71.0,66.0
600,226.02309575833334,226.99809583958333,54.0,112.0
601,226.73463427916667,227.01540353333334,76.0,65.0
602,226.96540352916668,227.24232662916666,71.0,64.0
603,227.19617277916666,227.48848049583333,76.0,58.0
604,226.94809583541667,227.52501896041667,52.0,74.0
605,227.42694202916667,227.71540359166667,71.0,63.0
606,227.65771127916668,227.88848052916666,76.0,81.0
607,226.02886498958333,227.90194206875,42.0,77.0
608,227.45578818541668,228.01348053958333,59.0,86.0
609,227.88848052916666,228.14232670416666,71.0,73.0
610,228.11924977916667,228.41732672708332,76.0,59.0
611,228.35001902916667,228.60771135833332,71.0,70.0
612,228.41540365,228.82694214583333,56.0,58.0
613,228.58078827916665,228.87309599583332,76.0,69.0
614,228.81155752916666,229.08078832083334,71.0,86.0
615,229.04232677916667,229.34809603541666,76.0,93.0
616,229.27309602916665,229.53848066666666,71.0,70.0
617,227.88078822083332,229.64232682916668,44.0,102.0
618,229.25578833541667,229.69809606458332,56.0,85.0
619,228.83271137708334,229.70963452708332,59.0,92.0
620,229.50386527916666,229.7884806875,76.0,63.0
621,229.73463452916667,229.94424993125,83.0,89.0
622,229.73463452916667,230.03271147708332,71.0,56.0
623,229.96540377916668,230.22309610833332,85.0,71.0
624,229.96540377916668,230.27694226666665,76.0,59.0
625,230.19617302916666,230.42117304791665,83.0,77.0
626,230.19617302916666,230.48463459166666,71.0,49.0
627,230.16540379583333,230.56924998333332,52.0,50.0
628,230.42694227916667,230.69617307083334,85.0,97.0
629,230.42694227916667,230.74232692083334,76.0,63.0
630,230.65771152916668,230.89232693333332,83.0,97.0
631,230.65771152916668,230.97501924791666,71.0,69.0
632,230.88848077916666,231.15771157083333,76.0,90.0
633,230.88848077916666,231.161557725,85.0,122.0
634,231.11925002916666,231.30771158333334,71.0,73.0
635,231.11925002916666,231.35001927916667,83.0,92.0
636,229.72886529791666,231.48655775208334,45.0,100.0
637,231.35001927916667,231.56925006666665,85.0,127.0
638,230.65001922083334,231.58078852916665,57.0,95.0
639,231.08655771875,231.69040392291666,52.0,64.0
640,231.58078852916665,231.80578854791668,71.0,78.0
641,231.81155777916666,232.09425011041665,72.0,60.0
642,232.04232702916667,232.31155782083334,71.0,57.0
643,232.04617318333334,232.42694244583333,52.0,43.0
644,232.27309627916665,232.54425014791667,72.0,61.0
645,232.50386552916666,232.75578862708332,71.0,66.0
646,232.73463477916667,233.00963480208333,72.0,93.0
647,232.96540402916668,233.22117328125,71.0,75.0
648,231.55963468125,233.3538656,40.0,92.0
649,233.19617327916666,233.45001945416666,72.0,63.0
650,232.53848091666666,233.50578868958334,52.0,93.0
651,233.42694252916667,233.69040408958332,71.0,48.0
652,233.65771177916668,233.90963487708333,72.0,44.0
653,233.65771177916668,233.95001949583335,76.0,76.0
654,233.88848102916666,234.11732720208335,71.0,55.0
655,234.11925027916666,234.35001952916667,72.0,47.0
656,234.11925027916666,234.48078877083333,76.0,85.0
657,234.35001952916667,234.60194262708333,71.0,46.0
658,234.58078877916665,234.84425033958334,72.0,50.0
659,234.58078877916665,234.95001957916668,76.0,79.0
660,234.81155802916666,235.08655805208332,71.0,63.0
661,233.42694252916667,235.18655806041667,39.0,99.0
662,235.04232727916667,235.21348113958334,72.0,82.0
663,234.79809648958334,235.24040421875,51.0,89.0
664,234.37501953125,235.28848114583334,59.0,79.0
665,235.04232727916667,235.35963499791666,76.0,67.0
666,235.27309652916668,235.50386577916666,79.0,79.0
667,235.27309652916668,235.51732731875,74.0,79.0
668,235.50386577916666,235.75001964583333,76.0,53.0
669,235.50386577916666,235.78655811041668,81.0,59.0
670,235.73463502916667,235.99232735833334,74.0,62.0
671,235.73463502916667,235.99809658958333,79.0,69.0
672,235.96540427916668,236.22501968541667,76.0,69.0
673,235.96540427916668,236.24232737916665,81.0,75.0
674,235.7654042625,236.26925045833335,50.0,59.0
675,236.19617352916666,236.43655816458335,79.0,79.0
676,236.19617352916666,236.46155816666666,74.0,77.0
677,236.42694277916667,236.68655818541666,81.0,92.0
678,236.42694277916667,236.70578895625,76.0,89.0
679,236.65771202916667,236.89425051041667,79.0,89.0
680,236.65771202916667,236.92501974375,74.0,81.0
681,235.26732729791667,236.9538659,38.0,96.0
682,236.65578895208333,237.0577120625,50.0,83.0
683,236.88848127916665,237.10194283541668,81.0,96.0
684,236.20194276041667,237.115404375,57.0,92.0
685,236.88848127916665,237.14809668541668,76.0,83.0
686,237.11925052916666,237.36925055,83.0,85.0
687,237.11925052916666,237.39040439791665,74.0,49.0
688,237.35001977916667,237.60578903125,84.0,69.0
689,237.35001977916667,237.6346351875,76.0,45.0
690,237.58078902916665,237.82694289583333,83.0,68.0
691,237.58078902916665,237.83655828125,74.0,55.0
692,237.81155827916666,238.08655830208332,76.0,45.0
693,237.81155827916666,238.08848137916667,84.0,93.0
694,238.04232752916667,238.29425062708333,74.0,58.0
695,238.04232752916667,238.30578908958333,83.0,86.0
696,238.27309677916668,238.50963526041667,76.0,64.0
697,238.27309677916668,238.53271218541667,84.0,112.0
698,238.50386602916666,238.7423275875,83.0,99.0
699,238.50386602916666,238.79040451458334,74.0,83.0
700,237.58463518333332,238.87694298333332,43.0,52.0
701,238.73463527916667,238.87694298333332,76.0,88.0
702,238.49232756666666,238.91155837083332,48.0,90.0
703,237.08655821874999,238.91732760208333,36.0,97.0
704,238.038481375,238.92309683333332,52.0,78.0
705,238.04425060625,238.93848145,55.0,93.0
706,238.73463527916667,238.9500199125,84.0,127.0
707,238.96540452916668,239.21155839583332,83.0,79.0
708,239.19617377916666,239.48848149583333,85.0,70.0
709,239.42694302916667,239.71732766875,83.0,39.0
710,239.65771227916667,239.95963538125,85.0,42.0
711,239.88848152916665,240.16732770625,83.0,55.0
712,240.11925077916666,240.36155849166667,85.0,72.0
713,240.35002002916667,240.59617389583335,83.0,74.0
714,240.58078927916665,240.81540468333333,85.0,90.0
715,240.81155852916666,241.08271239791665,83.0,70.0
716,241.04232777916667,241.31925087916667,85.0,83.0
717,241.27309702916668,241.53655858958334,83.0,66.0
718,238.96540452916668,242.607712525,47.0,88.0
719,238.96348145208333,242.62886637291666,35.0,82.0
720,238.96732760625,242.64425098958333,54.0,96.0
721,241.50386627916666,242.93848178333334,85.0,73.0
722,244.50386652916666,245.06155888333333,67.0,75.0
723,244.50386652916666,245.31540505833334,64.0,70.0
724,244.96540502916667,245.54040507708334,55.0,61.0
725,244.50386652916666,245.58655892708333,48.0,75.0
726,245.42694352916666,246.00194357708332,67.0,78.0
727,246.58078977916668,247.20578983125,57.0,60.0
728,246.81155902916666,247.22502060208333,62.0,43.0
729,246.35002052916667,247.26348214375,50.0,71.0
730,247.04232827916667,247.30771291666667,66.0,85.0
731,247.50386677916666,248.19425145208334,66.0,35.0
732,247.27309752916668,248.23271299375,69.0,99.0
733,248.88848227916665,249.13271306875,62.0,66.0
734,248.65771302916667,249.22694384583332,59.0,72.0
735,248.42694377916666,249.27694385,54.0,82.0
736,249.35002077916667,249.49232848333332,54.0,61.0
737,248.19617452916665,249.53848233333332,47.0,76.0
738,249.58079002916668,250.06540545416667,62.0,67.0
739,249.11925152916666,250.11155930416666,66.0,112.0
740,250.73463627916666,250.961559375,59.0,92.0
741,250.50386702916666,251.00963630208332,52.0,86.0
742,250.27309777916668,251.30194401875,47.0,59.0
743,250.04232852916667,251.32309786666667,40.0,74.0
744,251.19617477916665,251.37886710208332,52.0,89.0
745,250.96540552916667,251.46155941666666,67.0,127.0
746,251.65771327916667,251.72694405416667,45.0,34.0
747,251.42694402916666,251.7346363625,64.0,112.0
748,251.65771327916667,251.84425175625,67.0,97.0
749,252.35002102916667,252.80579029791667,57.0,79.0
750,253.04232877916667,253.21155956249999,57.0,70.0
751,252.81155952916666,253.31155957083334,72.0,79.0
752,251.88848252916665,253.58463651666668,45.0,82.0
753,253.27309802916668,253.592328825,69.0,95.0
754,252.58079027916668,253.70194421875,76.0,127.0
755,253.50386727916666,253.72886729791668,72.0,82.0
756,252.11925177916666,253.73848268333333,52.0,67.0
757,254.19617502916665,254.69232891666667,59.0,76.0
758,254.42694427916666,254.76732892291668,71.0,89.0
759,253.96540577916667,255.04232894583333,54.0,74.0
760,253.73463652916666,255.04809817708332,47.0,85.0
761,254.88848277916668,255.530790525,59.0,89.0
762,254.65771352916667,255.54232898749999,78.0,127.0
763,255.11925202916666,255.58079052916668,74.0,97.0
764,255.35002127916667,255.5884828375,71.0,77.0
765,256.04232902916664,256.35771367083333,64.0,96.0
766,256.2730982791667,256.59809830625,76.0,82.0
767,255.81155977916666,256.64232907916664,59.0,72.0
768,256.50386752916666,257.02117526458335,79.0,97.0
769,256.50386752916666,257.0288675729167,83.0,100.0
770,255.58079052916668,257.34617529166667,52.0,72.0
771,256.7346367791667,257.4269445291667,59.0,97.0
772,256.9654060291667,257.4269445291667,76.0,88.0
773,257.19617527916665,257.4269445291667,79.0,112.0
774,257.19617527916665,257.4269445291667,83.0,107.0
775,257.44040606875,257.75963686458334,66.0,112.0
776,257.44232914583336,257.7904060979167,72.0,78.0
777,257.44040606875,257.84617533333335,69.0,89.0
778,257.4365599145833,257.99425226875,62.0,93.0
779,257.43848299166666,258.04809842708335,38.0,93.0
780,258.11732920208334,258.89232926666665,43.0,86.0
781,258.11155997083335,258.9480985020833,71.0,99.0
782,258.10963689375,258.95579081041666,65.0,102.0
783,258.115406125,258.96540619583334,67.0,117.0
784,258.1192522791667,259.0404062020833,62.0,102.0
785,259.74425241458334,260.0404062854167,60.0,79.0
786,259.96732935625,260.22886783958336,64.0,77.0
787,259.5134831645833,260.3096370770833,55.0,82.0
788,260.40963708541665,260.65579095208335,55.0,97.0
789,259.2346369875,260.6769448,48.0,86.0
790,260.64809864375,261.04232944583333,64.0,112.0
791,260.20963706875,261.05386790833336,67.0,117.0
792,260.8692525083333,261.06348329375,60.0,100.0
793,261.8096372020833,262.07694491666666,66.0,90.0
794,261.59232949166665,262.12502184375,62.0,83.0
795,261.07694483333336,262.1346372291667,50.0,75.0
796,262.4884834125,262.97694499166664,66.0,127.0
797,262.038483375,262.97886806875,69.0,117.0
798,262.73656035625,263.04040653541665,62.0,102.0
799,263.6384835083333,263.9211758395833,62.0,97.0
800,263.1692527,263.97886815208335,54.0,93.0
801,263.40002195,264.04040661875,59.0,86.0
802,264.08656046875,264.20386817083335,54.0,95.0
803,262.95771422083334,264.24617586666665,47.0,92.0
804,263.86732968125,264.5730989708333,66.0,127.0
805,264.32309895,264.62694512916664,62.0,117.0
806,264.5634835854167,264.9346374625,59.0,102.0
807,265.2654067208333,265.82694522916665,52.0,92.0
808,265.49425289375,265.85194523125,59.0,96.0
809,264.76732975625,266.09809909791664,40.0,88.0
810,265.00963746875,266.1038683291667,47.0,90.0
811,265.9807913958333,266.25771449583334,52.0,74.0
812,265.74809906875,266.65771452916664,67.0,117.0
813,266.20194526041666,266.67886837708335,64.0,88.0
814,266.43656066458334,266.69425299375,59.0,102.0
815,267.14617610833335,267.6442530729167,57.0,95.0
816,267.346176125,267.69617615416666,60.0,92.0
817,267.8192530875,268.01925310416664,57.0,100.0
818,266.6423299125,268.1884838875,45.0,93.0
819,267.59425306875,268.38848390416666,69.0,112.0
820,266.89040685625,268.41733006041665,52.0,95.0
821,268.27502235625,268.4557916020833,64.0,97.0
822,268.04425310625,268.50963776041664,60.0,100.0
823,268.7423300875,269.36925321666666,51.0,77.0
824,268.49040698958333,269.4577147625,47.0,83.0
825,269.15963781458333,269.4730993791667,63.0,112.0
826,268.9038685625,269.51348399791664,59.0,92.0
827,269.65963785625,270.31733021875,63.0,112.0
828,269.42117629791665,270.33271483541665,66.0,127.0
829,269.88848402916665,270.36540714583333,59.0,85.0
830,270.7711764104167,271.14040721041664,52.0,93.0
831,271.04425335625,271.3500226125,57.0,122.0
832,270.52886869791666,271.3730995375,47.0,74.0
833,271.29617645416664,271.7692534166667,59.0,107.0
834,270.30386867916667,271.96733035625,40.0,82.0
835,271.73463802916666,272.0846380583333,57.0,96.0
836,271.5077149333333,272.2230996083333,47.0,72.0
837,272.1730996041667,272.9519458229167,59.0,77.0
838,272.1769457583333,272.99040736458335,56.0,90.0
839,272.61156117916664,273.17886891875,47.0,53.0
840,272.16733037291664,273.2192535375,52.0,93.0
841,273.30771508333333,273.81733051041664,47.0,88.0
842,272.18271498958336,273.8500228208333,40.0,79.0
843,273.5423304875,273.99040744791665,56.0,59.0
844,273.7865612770833,274.0423305291667,52.0,58.0
845,273.09809968125,274.04425360625,59.0,96.0
846,273.96156129166667,274.63079211666667,55.0,47.0
847,273.99617667916664,274.63656134791665,48.0,32.0
848,273.94040744375,274.7423305875,60.0,69.0
849,274.00771514166667,274.77502289791664,64.0,58.0
850,274.0923305333333,274.79809982291664,67.0,69.0
851,274.1442536145833,274.88463829166665,71.0,70.0
852,275.9673306895833,276.7692538333333,62.0,31.0
853,275.96156145833334,277.36348465208334,50.0,31.0
854,275.96925376666667,277.42310004166666,57.0,37.0
855,275.98271530625,277.63271544375,78.0,68.0
856,275.90579222291666,277.64810006041665,74.0,62.0
857,275.8711768354167,277.66540775416667,69.0,41.0
858,277.8577154625,278.87694631666665,66.0,63.0
859,277.730792375,279.0461771,59.0,57.0
860,278.02310009166666,279.0654078708333,81.0,47.0
861,277.94617700833334,279.0942540270833,78.0,58.0
862,277.86348469375,279.1038694125,74.0,47.0
863,277.79810007291667,279.12310018333335,71.0,39.0
864,279.91733101875,281.53079269166665,59.0,38.0
865,279.9365617895833,281.7384850166667,52.0,30.0
866,279.87502332291666,281.77694655833335,64.0,39.0
867,280.0923310333333,281.84233117916665,74.0,75.0
868,280.0481002604167,281.86348502708336,71.0,38.0
869,279.96348486875,281.8731004125,67.0,49.0
870,282.1288696645833,283.084638975,57.0,58.0
871,282.20002351666665,283.55963901458335,60.0,52.0
872,282.07117735208334,283.8192544208333,52.0,49.0
873,282.0577158125,283.84040826875,45.0,33.0
874,282.28271583125,283.8615621166667,64.0,59.0
875,282.31733121875,284.00579289791665,67.0,71.0
876,283.37694669166666,284.38656216041664,57.0,68.0
877,283.730792875,284.4807929375,60.0,71.0
878,284.15194675625,284.58656217708335,64.0,76.0
879,285.4731007125,286.63271619375,54.0,56.0
880,285.36156224166666,286.84617775,47.0,33.0
881,285.7365622729167,288.18079324583334,66.0,76.0
882,285.57117764375,288.1961778625,59.0,42.0
883,285.61540841666664,288.2115624791667,63.0,64.0
884,285.82117766458333,288.2192547875,69.0,52.0
885,289.6596395229167,290.07502417291664,52.0,40.0
886,290.0384857083333,290.4481011270833,57.0,68.0
887,290.4115626625,290.9519473229167,56.0,65.0
888,290.769255,291.18656272708336,59.0,97.0
889,291.15963964791666,292.12694742083335,64.0,97.0
890,291.92117817291665,292.56156284166667,69.0,79.0
891,292.52502437708335,293.6461783166667,68.0,76.0
892,289.0731010125,295.4884861625,28.0,95.0
893,293.18656289375,296.15964006458336,76.0,66.0
