,start,end,pitch,velocity
0,17.2459643125,17.622205172916665,70.0,96.0
1,17.7043288125,18.143594791666665,70.0,97.0
2,18.162693312499997,18.556122841666664,75.0,112.0
3,18.6210578125,19.0565040875,75.0,96.0
4,19.079422312499997,19.45184346875,77.0,97.0
5,19.5377868125,19.999971016666663,79.0,96.0
6,19.996151312499997,20.31318675833333,80.0,112.0
7,20.4545158125,21.09813596458333,80.0,102.0
8,21.829609312499997,21.94038073333333,77.0,100.0
9,22.058791562499998,23.37276979583333,77.0,99.0
10,24.579796312499997,24.8777332375,70.0,112.0
11,25.0381608125,25.408672116666665,70.0,127.0
12,25.496525312499998,25.832659279166663,75.0,112.0
13,25.954889812499996,26.30630259583333,75.0,112.0
14,26.413254312499998,26.694002568749998,77.0,90.0
15,26.871618812499996,27.25740893333333,79.0,93.0
16,27.329983312499998,27.627920237499996,80.0,102.0
17,27.788347812499996,29.006833441666664,79.0,102.0
18,29.163441312499998,29.453738829166664,82.0,90.0
19,29.621805812499996,31.28528697708333,82.0,127.0
20,32.3719928125,32.58589624583333,84.0,96.0
21,32.6011750625,32.79216027083333,86.0,97.0
22,32.8303573125,33.17604053958333,87.0,102.0
23,33.28872181249999,33.64968385625,86.0,102.0
24,33.747086312499995,34.11186806041666,84.0,96.0
25,34.2054508125,34.528215814583334,82.0,122.0
26,34.6638153125,34.977031054166666,80.0,117.0
27,35.12217981249999,35.46404333541666,79.0,97.0
28,35.580544312499995,35.91858813125,82.0,127.0
29,36.0389088125,36.37695263125,86.0,96.0
30,36.4972733125,37.89719488958333,87.0,122.0
31,37.8723668125,38.26961604583333,82.0,127.0
32,38.3307313125,38.708882024999994,79.0,96.0
33,38.789095812499994,39.075573625,82.0,127.0
34,39.247460312499996,39.53202827291666,82.0,122.0
35,39.7058248125,39.98275336458333,82.0,127.0
36,40.1641893125,40.931949849999995,80.0,127.0
37,41.080918312499996,41.43615079999999,79.0,122.0
38,41.5392828125,41.9518108625,80.0,112.0
39,41.99764731249999,44.04118904166666,77.0,100.0
40,46.5812923125,46.95753317291666,70.0,96.0
41,47.0396568125,47.47892279166666,70.0,97.0
42,47.49802131249999,47.89145084166666,75.0,112.0
43,47.956385812499995,48.39183208749999,75.0,96.0
44,48.4147503125,48.787171468749996,77.0,97.0
45,48.87311481249999,49.33529901666666,79.0,96.0
46,49.331479312499994,49.64851475833333,80.0,112.0
47,49.789843812499996,50.43346396458333,80.0,102.0
48,51.164937312499994,51.27570873333333,77.0,100.0
49,51.394119562499995,52.708097795833325,77.0,99.0
50,53.9151243125,54.21306123749999,70.0,112.0
51,54.37348881249999,54.74400011666666,70.0,127.0
52,54.831853312499995,55.16798727916666,75.0,112.0
53,55.290217812499996,55.64163059583333,75.0,112.0
54,55.7485823125,56.02933056875,77.0,90.0
55,56.20694681249999,56.59273693333333,79.0,93.0
56,56.665311312499995,56.9632482375,80.0,102.0
57,57.1236758125,58.34216144166666,79.0,102.0
58,58.498769312499995,58.789066829166664,82.0,90.0
59,58.9571338125,60.62061497708333,82.0,127.0
60,61.707320812499994,61.92122424583333,84.0,96.0
61,61.936503062499995,62.127488270833325,86.0,97.0
62,62.165685312499996,62.51136853958333,87.0,102.0
63,62.6240498125,62.98501185625,86.0,102.0
64,63.08241431249999,63.44719606041666,84.0,96.0
65,63.540778812499994,63.86354381458333,82.0,122.0
66,63.999143312499996,64.31235905416666,80.0,117.0
67,64.4575078125,64.79937133541667,79.0,97.0
68,64.9158723125,65.25391613125,82.0,127.0
69,65.37423681249999,65.71228063125,86.0,96.0
70,65.83260131249999,67.23252288958332,87.0,122.0
71,67.2076948125,67.60494404583332,82.0,127.0
72,67.6660593125,68.044210025,79.0,96.0
73,68.1244238125,68.410901625,82.0,127.0
74,68.5827883125,68.86735627291667,82.0,122.0
75,69.04115281249999,69.31808136458332,82.0,127.0
76,69.49951731249999,70.26727785,80.0,127.0
77,70.4162463125,70.7714788,79.0,122.0
78,70.8746108125,71.28713886249999,80.0,112.0
79,71.3329753125,73.37651704166666,77.0,100.0
80,74.0831623125,74.61601104374999,75.0,112.0
81,74.5415268125,75.00753072083333,87.0,107.0
82,74.9998913125,75.41241936249999,86.0,100.0
83,75.4582558125,76.05603951458333,82.0,97.0
84,75.91662031249999,76.20882768124999,84.0,122.0
85,76.37498481249999,77.61256896249999,84.0,127.0
86,77.97926056249999,78.14923739791666,75.0,97.0
87,78.2084428125,78.53311766666666,87.0,112.0
88,78.6668073125,79.07360580624999,86.0,122.0
89,79.12517181249999,79.52624074999999,84.0,127.0
90,79.58353631249999,79.82417767499999,82.0,117.0
91,80.04190081249999,81.20882043541665,82.0,127.0
92,81.64617656249999,81.7378494625,80.0,112.0
93,81.8753588125,82.24396026458332,80.0,117.0
94,82.3337233125,82.65075875833332,82.0,107.0
95,82.79208781249999,83.16641882083333,82.0,127.0
96,83.25045231249999,83.35358432499999,84.0,96.0
97,83.4796345625,84.29514140208333,84.0,122.0
98,84.6255458125,85.04189356666666,86.0,99.0
99,85.0839103125,85.26916596458332,87.0,102.0
100,85.31309256249999,85.73898957708333,89.0,117.0
101,85.77145706249999,86.13814866249999,92.0,127.0
102,86.45900381249999,87.25923183541666,92.0,127.0
103,87.83409731249999,87.92958991666666,91.0,102.0
104,88.06327956249999,88.62668592708333,91.0,112.0
105,89.2091908125,89.64845679166666,89.0,102.0
106,89.66755531249999,90.05143558124999,91.0,90.0
107,90.12591981249999,90.50789022916666,89.0,102.0
108,90.58428431249999,90.67977691666665,87.0,107.0
109,90.8134665625,91.7760320125,87.0,127.0
110,91.9593778125,92.29360192708333,86.0,102.0
111,92.4177423125,92.59535855624999,87.0,100.0
112,92.64692456249999,93.48534962708332,89.0,100.0
113,93.79283581249999,94.09077273749999,86.0,112.0
114,94.25120031249999,94.35051262083333,87.0,93.0
115,94.4803825625,95.02851011041666,89.0,96.0
116,95.1679293125,95.26342191666666,86.0,102.0
117,95.39711156249999,96.54493266458333,87.0,122.0
118,98.8348453125,99.05829800624998,91.0,97.0
119,99.06402756249999,99.25883247499999,92.0,96.0
120,99.2932098125,99.73438564374999,91.0,99.0
121,99.7515743125,99.86425558541666,87.0,95.0
122,99.98075656249999,100.58045011666665,87.0,95.0
123,100.66830331249999,100.93759245624999,89.0,127.0
124,100.8974855625,101.00634713125,91.0,72.0
125,101.12666781249999,101.49908896874999,91.0,90.0
126,101.58503231249999,101.70917269791666,87.0,92.0
127,101.81421456249998,102.32796477291666,87.0,100.0
128,102.5017613125,102.68128740833332,86.0,102.0
129,102.73094356249999,103.43758883333332,89.0,97.0
130,103.41849031249998,106.40549897083332,87.0,95.0
131,123.95730468749998,124.36999217291665,70.0,96.0
132,124.45211581249998,124.89138179166666,70.0,97.0
133,124.91048031249998,125.30390984166665,75.0,112.0
134,125.36884481249999,125.80429108749999,75.0,96.0
135,125.82720931249999,126.19963046874999,77.0,97.0
136,126.28557381249999,126.74775801666665,79.0,96.0
137,126.74393831249999,127.06097375833332,80.0,112.0
138,127.2023028125,127.84592296458332,80.0,102.0
139,128.57739631249999,128.68816773333333,77.0,100.0
140,128.8065785625,130.12055679583332,77.0,99.0
141,131.3275833125,131.62552023749998,70.0,112.0
142,131.78594781249998,132.15645911666667,70.0,127.0
143,132.24431231249997,132.58044627916667,75.0,112.0
144,132.7026768125,133.05408959583332,75.0,112.0
145,133.16104131249998,133.44178956874998,77.0,90.0
146,133.6194058125,134.0051959333333,79.0,93.0
147,134.07777031249998,134.3757072375,80.0,102.0
148,134.5361348125,135.75462044166665,79.0,102.0
149,135.9112283125,136.20152582916666,82.0,90.0
150,136.36959281249997,138.03307397708332,82.0,127.0
151,139.11977981249998,139.33368324583333,84.0,96.0
152,139.3489620625,139.53994727083332,86.0,97.0
153,139.57814431249997,139.92382753958333,87.0,102.0
154,140.0365088125,140.39747085624998,86.0,102.0
155,140.49487331249998,140.85965506041666,84.0,96.0
156,140.9532378125,141.2760028145833,82.0,122.0
157,141.41160231249998,141.72481805416666,80.0,117.0
158,141.8699668125,142.21183033541666,79.0,97.0
159,142.32833131249998,142.66637513125,82.0,127.0
160,142.7866958125,143.12473963124998,86.0,96.0
161,143.2450603125,144.6449818895833,87.0,122.0
162,144.62015381249998,145.0174030458333,82.0,127.0
163,145.0785183125,145.456669025,79.0,96.0
164,145.53688281249998,145.823360625,82.0,127.0
165,145.9952473125,146.27981527291666,82.0,122.0
166,146.4536118125,146.7305403645833,82.0,127.0
167,146.91197631249997,147.67973684999998,80.0,127.0
168,147.82870531249998,148.1839378,79.0,122.0
169,148.2870698125,148.69959786249999,80.0,112.0
170,148.74543431249998,150.78897604166664,77.0,100.0
171,151.4956213125,152.02847004375,75.0,112.0
172,151.95398581249998,152.4199897208333,87.0,107.0
173,152.4123503125,152.8248783625,86.0,100.0
174,152.87071481249998,153.4684985145833,82.0,97.0
175,153.32907931249997,153.62128668124998,84.0,122.0
176,153.7874438125,155.0250279625,84.0,127.0
177,155.3917195625,155.56169639791665,75.0,97.0
178,155.6209018125,155.94557666666665,87.0,112.0
179,156.07926631249998,156.48606480625,86.0,122.0
180,156.53763081249997,156.93869974999998,84.0,127.0
181,156.99599531249999,157.236636675,82.0,117.0
182,157.45435981249997,158.62127943541665,82.0,127.0
183,159.0586355625,159.1503084625,80.0,112.0
184,159.28781781249998,159.65641926458332,80.0,117.0
185,159.74618231249997,160.0632177583333,82.0,107.0
186,160.20454681249998,160.57887782083333,82.0,127.0
187,160.6629113125,160.766043325,84.0,96.0
188,160.89209356249998,161.7076004020833,84.0,122.0
189,162.0380048125,162.45435256666664,86.0,99.0
190,162.49636931249998,162.6816249645833,87.0,102.0
191,162.7255515625,163.15144857708333,89.0,117.0
192,163.18391606249997,163.5506076625,92.0,127.0
193,163.8714628125,164.67169083541665,92.0,127.0
194,165.2465563125,165.34204891666664,91.0,102.0
195,165.4757385625,166.03914492708333,91.0,112.0
196,166.62164981249998,167.06091579166664,89.0,102.0
197,167.0800143125,167.46389458124997,91.0,90.0
198,167.53837881249999,167.92034922916665,89.0,102.0
199,167.99674331249997,168.09223591666665,87.0,107.0
200,168.22592556249998,169.18849101249998,87.0,127.0
201,169.3718368125,169.7060609270833,86.0,102.0
202,169.83020131249998,170.00781755625,87.0,100.0
203,170.0593835625,170.89780862708332,89.0,100.0
204,171.20529481249997,171.5032317375,86.0,112.0
205,171.6636593125,171.76297162083333,87.0,93.0
206,171.8928415625,172.44096911041666,89.0,96.0
207,172.5803883125,172.67588091666664,86.0,102.0
208,172.80957056249997,173.95739166458333,87.0,122.0
209,176.24730431249998,176.47075700624998,91.0,97.0
210,176.47648656249999,176.67129147499998,92.0,96.0
211,176.7056688125,177.14684464374997,91.0,99.0
212,177.16403331249998,177.27671458541664,87.0,95.0
213,177.3932155625,177.99290911666665,87.0,95.0
214,178.08076231249999,178.35005145625,89.0,127.0
215,178.3099445625,178.41880613125,91.0,72.0
216,178.53912681249997,178.91154796874997,91.0,90.0
217,178.9974913125,179.12163169791665,87.0,92.0
218,179.22667356249997,179.74042377291664,87.0,100.0
219,179.9142203125,180.09374640833332,86.0,102.0
220,180.14340256249997,180.85004783333332,89.0,97.0
221,180.83094931249997,182.2060428125,87.0,95.0
222,183.58113631249998,183.85997471666664,82.0,127.0
223,184.03950081249997,184.33361803333332,84.0,127.0
224,184.49786531249998,184.6315549583333,82.0,127.0
225,184.7270475625,185.35156919374998,84.0,127.0
226,185.87295881249997,186.13651839999997,86.0,122.0
227,186.3313233125,186.434455325,84.0,117.0
228,186.5605055625,187.24041290416665,86.0,127.0
229,188.1647813125,188.31183992291665,86.0,99.0
230,188.39396356249998,188.50855468749998,87.0,117.0
231,188.62314581249998,188.87142658333332,89.0,112.0
232,189.08151031249997,189.17318321249996,86.0,97.0
233,189.31069256249998,190.18540481666665,87.0,127.0
234,190.45660381249996,190.63803976041663,87.0,127.0
235,190.68578606249997,190.92642742499999,89.0,122.0
236,191.1441505625,191.2434628708333,91.0,117.0
237,191.3733328125,191.6846387020833,91.0,127.0
238,192.7484263125,193.72818043125,87.0,117.0
239,194.12351981249998,194.30877546458333,87.0,127.0
240,194.3527020625,194.59907298124998,89.0,117.0
241,194.81106656249997,194.92374783541663,91.0,127.0
242,195.04024881249998,196.06965908541665,91.0,127.0
243,196.1861600625,196.82214080625,92.0,127.0
244,196.87370681249996,199.06621700416665,89.0,127.0
245,200.9989873125,201.53183604375,75.0,112.0
246,201.45735181249998,201.9233557208333,87.0,107.0
247,201.91571631249997,202.32824436249996,86.0,100.0
248,202.37408081249998,202.97186451458333,82.0,97.0
249,202.8324453125,203.12465268124998,84.0,122.0
250,203.29080981249996,204.5283939625,84.0,127.0
251,204.66590331249998,204.83588014791664,75.0,97.0
252,205.12426781249997,205.44894266666665,87.0,112.0
253,205.58263231249998,205.98943080624997,86.0,122.0
254,206.0409968125,206.44206574999998,84.0,127.0
255,206.49936131249999,206.74000267499997,82.0,117.0
256,206.95772581249997,208.12464543541665,82.0,127.0
257,208.56200156249997,208.65367446249996,80.0,112.0
258,208.79118381249998,209.15978526458332,80.0,117.0
259,209.2495483125,209.5665837583333,82.0,107.0
260,209.70791281249998,210.0822438208333,82.0,127.0
261,210.16627731249997,210.26940932499997,84.0,96.0
262,210.39545956249998,211.21096640208333,84.0,122.0
263,211.54137081249996,211.95771856666664,86.0,99.0
264,211.99973531249998,212.1849909645833,87.0,102.0
265,212.2289175625,212.6548145770833,89.0,117.0
266,212.68728206249997,213.05397366249997,92.0,127.0
267,213.37482881249997,214.17505683541663,92.0,127.0
268,214.74992231249996,214.84541491666664,91.0,102.0
269,214.97910456249997,215.5425109270833,91.0,112.0
270,216.12501581249998,216.56428179166664,89.0,102.0
271,216.58338031249997,216.96726058124997,91.0,90.0
272,217.04174481249999,217.42371522916665,89.0,102.0
273,217.50010931249997,217.59560191666662,87.0,107.0
274,217.72929156249998,218.69185701249998,87.0,127.0
275,218.8752028125,219.2094269270833,86.0,102.0
276,219.33356731249998,219.51118355625,87.0,100.0
277,219.56274956249996,220.40117462708332,89.0,100.0
278,221.16702531249996,221.32172333124998,86.0,97.0
279,221.39620756249997,221.54326617291665,87.0,112.0
280,221.62538981249998,222.15823854374997,89.0,127.0
281,222.0837543125,222.49055280624998,92.0,122.0
282,222.54211881249998,223.3289778708333,89.0,117.0
283,223.22966556249997,225.9301964083333,87.0,107.0
284,227.58412831249996,227.84004849166666,91.0,99.0
285,227.81331056249996,228.05395192499998,92.0,112.0
286,228.04249281249997,228.5008573125,91.0,117.0
287,228.5008573125,228.61926814166662,87.0,83.0
288,229.41758631249996,229.64363966666667,89.0,117.0
289,228.7300395625,229.69363966666666,87.0,122.0
290,229.651973,229.77905633333333,91.0,92.0
291,229.901973,230.37905633333332,91.0,107.0
292,230.401973,230.51863966666667,87.0,92.0
293,230.651973,232.8508366625,87.0,117.0
