,start,end,pitch,velocity
0,2.5783003124999997,4.717334645833333,60.0,42.0
1,2.1199358124999996,4.799458285416666,56.0,58.0
2,3.0366648124999998,4.854843995833333,63.0,44.0
3,3.9533938124999994,5.257822785416666,72.0,38.0
4,3.9533938124999994,5.572948379166666,75.0,37.0
5,3.4950293125,5.660801575,68.0,49.0
6,6.245216312499999,6.9213039499999995,62.0,48.0
7,7.161945312499999,7.901058068749999,62.0,35.0
8,5.786851812499999,8.15315854375,55.0,62.0
9,7.6203098124999995,8.62298215625,70.0,39.0
10,7.6203098124999995,8.655449641666666,74.0,46.0
11,6.703580812499999,8.707015647916666,67.0,66.0
12,9.453767812499999,10.255905687499999,67.0,88.0
13,9.453767812499999,10.259725391666665,64.0,77.0
14,9.453767812499999,10.275004208333332,70.0,86.0
15,9.453767812499999,10.498456902083332,58.0,81.0
16,9.6829500625,10.62832684375,55.0,26.0
17,9.453767812499999,10.68562240625,52.0,40.0
18,10.599679062499998,10.786844566666666,58.0,51.0
19,10.370496812499999,10.853689389583332,67.0,93.0
20,10.370496812499999,10.855599241666665,70.0,97.0
21,10.828861312499999,11.067592822916666,64.0,88.0
22,11.058043562499998,11.216561285416665,68.0,72.0
23,11.2872258125,11.371259304166665,68.0,58.0
24,11.2872258125,11.995780935416665,61.0,102.0
25,11.974772562499998,12.058806054166665,64.0,35.0
26,11.2872258125,12.299447416666666,56.0,76.0
27,11.2872258125,12.643220791666666,49.0,92.0
28,12.433137062499998,12.652770052083332,56.0,60.0
29,12.2039548125,12.654679904166665,64.0,96.0
30,12.2039548125,12.694786797916665,68.0,102.0
31,12.6623193125,12.784549845833332,61.0,90.0
32,13.1206838125,13.903723166666666,65.0,72.0
33,13.1206838125,13.938100504166666,62.0,78.0
34,13.5790483125,14.144364529166666,58.0,58.0
35,13.1206838125,14.673393556249998,46.0,89.0
36,14.0374128125,14.818542314583333,65.0,70.0
37,14.0374128125,14.837640835416666,62.0,67.0
38,14.954141812499998,16.08477424583333,58.0,52.0
39,14.954141812499998,16.14779936458333,62.0,60.0
40,14.954141812499998,16.18026685,46.0,58.0
41,14.954141812499998,16.18599640625,65.0,58.0
42,16.787599812499998,17.24214460833333,67.0,62.0
43,16.787599812499998,17.307079579166665,70.0,56.0
44,16.787599812499998,17.50570419583333,63.0,56.0
45,17.7043288125,18.14741449583333,67.0,59.0
46,17.7043288125,18.189431241666664,70.0,63.0
47,17.7043288125,18.258185916666665,63.0,56.0
48,18.162693312499997,18.567581954166666,58.0,29.0
49,18.6210578125,19.066053347916665,67.0,75.0
50,18.6210578125,19.10997994583333,70.0,34.0
51,18.6210578125,19.274227224999997,63.0,61.0
52,19.5377868125,19.684845422916666,63.0,62.0
53,16.787599812499998,20.024799093749998,51.0,58.0
54,19.996151312499997,20.099283325,63.0,32.0
55,19.5377868125,20.315096610416663,70.0,96.0
56,20.4545158125,20.99500395208333,67.0,73.0
57,20.4545158125,21.101955668749998,70.0,66.0
58,20.4545158125,21.273842356249997,62.0,65.0
59,21.3712448125,21.95183984583333,67.0,60.0
60,21.3712448125,21.953749697916663,70.0,61.0
61,21.829609312499997,22.343359522916664,62.0,42.0
62,22.2879738125,22.801724022916666,70.0,53.0
63,22.2879738125,22.855199881249998,67.0,44.0
64,20.4545158125,23.41287668958333,50.0,58.0
65,23.2047028125,23.603861897916666,70.0,112.0
66,23.433885062499996,23.687895389583332,67.0,64.0
67,23.663067312499997,24.194006191666663,62.0,69.0
68,24.1214318125,24.617993354166664,67.0,55.0
69,24.1214318125,24.93693865208333,63.0,61.0
70,24.579796312499997,25.232965724999996,55.0,36.0
71,25.0381608125,25.542361762499997,63.0,55.0
72,25.0381608125,25.548091318749997,67.0,56.0
73,25.0381608125,25.57291939583333,60.0,56.0
74,25.496525312499998,26.2069902875,55.0,31.0
75,25.954889812499996,26.41516416458333,67.0,40.0
76,25.954889812499996,26.417074016666664,63.0,43.0
77,25.954889812499996,26.434262685416662,60.0,48.0
78,24.1214318125,26.78758532083333,48.0,66.0
79,26.871618812499996,27.295605974999997,67.0,69.0
80,26.871618812499996,27.328073460416665,63.0,92.0
81,27.329983312499998,27.815085741666664,60.0,52.0
82,27.788347812499996,28.292548762499997,65.0,53.0
83,27.788347812499996,28.43196796458333,62.0,64.0
84,28.246712312499998,28.938078766666663,58.0,48.0
85,28.705076812499996,29.20545805833333,65.0,59.0
86,28.705076812499996,29.29713095833333,62.0,60.0
87,29.163441312499998,29.810881168749997,58.0,31.0
88,29.621805812499996,30.083990016666665,65.0,52.0
89,29.621805812499996,30.103088537499996,62.0,42.0
90,30.080170312499998,30.542354516666663,58.0,37.0
91,30.767717062499997,30.91859537708333,58.0,76.0
92,27.788347812499996,30.95870227083333,46.0,89.0
93,30.538534812499996,31.040825910416665,62.0,86.0
94,30.538534812499996,31.105760881249996,65.0,86.0
95,30.9968993125,31.31202490625,60.0,77.0
96,31.226081562499996,31.529748043749997,62.0,57.0
97,31.455263812499997,32.22684405416666,63.0,92.0
98,31.9136283125,32.58971595,56.0,41.0
99,32.3719928125,32.979325775,63.0,92.0
100,32.3719928125,32.996514443749994,60.0,59.0
101,32.8303573125,33.61148681458333,56.0,36.0
102,33.28872181249999,33.758545424999994,60.0,58.0
103,33.28872181249999,33.80247202291666,68.0,60.0
104,33.28872181249999,33.82348039583333,63.0,63.0
105,33.747086312499995,34.25892667083333,56.0,42.0
106,34.4346330625,34.56450300416666,56.0,48.0
107,31.455263812499997,34.577871968749996,44.0,88.0
108,34.2054508125,34.61033945416666,68.0,99.0
109,34.2054508125,34.64471679166666,63.0,92.0
110,34.6638153125,34.79368525416666,60.0,69.0
111,35.12217981249999,35.641659579166664,62.0,63.0
112,35.12217981249999,35.689405881249996,55.0,69.0
113,35.12217981249999,35.689405881249996,58.0,59.0
114,35.580544312499995,36.32729647708333,50.0,34.0
115,36.0389088125,36.55838857916666,62.0,59.0
116,36.0389088125,36.70926689375,58.0,70.0
117,36.0389088125,36.72454571041666,55.0,57.0
118,35.12217981249999,36.7493737875,43.0,64.0
119,36.4972733125,36.94799840416666,50.0,43.0
120,36.955637812499994,37.92775252291666,48.0,61.0
121,36.955637812499994,38.32118205208333,63.0,53.0
122,36.955637812499994,38.32882146041666,60.0,63.0
123,36.955637812499994,38.40712539583333,55.0,59.0
124,38.789095812499994,39.44035537291666,60.0,58.0
125,38.789095812499994,39.44990463333333,53.0,53.0
126,38.789095812499994,39.48237211874999,56.0,56.0
127,39.247460312499996,39.88344105625,48.0,38.0
128,39.7058248125,40.48695431458333,60.0,59.0
129,39.7058248125,40.49459372291666,56.0,63.0
130,40.622553812499994,41.3788552375,53.0,44.0
131,40.622553812499994,41.38649464583333,60.0,39.0
132,40.622553812499994,41.39222420208333,56.0,41.0
133,40.622553812499994,41.451429616666665,48.0,29.0
134,38.789095812499994,41.51445473541666,41.0,58.0
135,41.5392828125,41.96708967916666,60.0,69.0
136,41.5392828125,41.97090938333333,56.0,74.0
137,41.99764731249999,42.329961575,53.0,56.0
138,42.456011812499995,43.48351223333333,58.0,99.0
139,43.3727408125,44.140501349999994,48.0,40.0
140,43.3727408125,44.19015750416666,60.0,70.0
141,42.456011812499995,44.23981365833333,65.0,63.0
142,42.456011812499995,44.2436333625,46.0,69.0
143,42.456011812499995,44.247453066666665,62.0,74.0
144,44.289469812499995,45.57671011666666,65.0,49.0
145,44.289469812499995,45.590079081249996,46.0,58.0
146,44.289469812499995,45.601538193749995,62.0,52.0
147,44.289469812499995,45.6187268625,58.0,66.0
148,46.122927812499995,46.88877849791666,58.0,93.0
149,46.122927812499995,46.93079524375,55.0,79.0
150,46.5812923125,47.24783068958333,51.0,55.0
151,47.0396568125,47.585874508333326,58.0,99.0
152,47.49802131249999,48.166469541666665,51.0,57.0
153,47.956385812499995,48.41284046041666,55.0,58.0
154,47.956385812499995,48.44339809375,63.0,99.0
155,47.956385812499995,48.466316318749996,58.0,100.0
156,48.4147503125,49.0450015,51.0,58.0
157,46.122927812499995,49.41360295208333,39.0,96.0
158,49.331479312499994,49.451799993749994,51.0,52.0
159,48.87311481249999,49.459439402083326,63.0,107.0
160,48.87311481249999,49.71726943333333,58.0,112.0
161,49.789843812499996,50.273036389583325,62.0,92.0
162,49.789843812499996,50.30359402291666,55.0,93.0
163,49.789843812499996,50.50412849166666,58.0,99.0
164,50.70657281249999,51.16684716458333,62.0,79.0
165,50.70657281249999,51.18785553749999,55.0,74.0
166,50.70657281249999,51.21268361458333,58.0,95.0
167,51.164937312499994,51.83720524583333,43.0,37.0
168,51.623301812499996,52.13705202291666,62.0,77.0
169,51.623301812499996,52.17142936041666,55.0,75.0
170,51.623301812499996,52.322307675,58.0,90.0
171,49.789843812499996,52.717647056249994,38.0,71.0
172,52.76921306249999,52.84178744166666,43.0,45.0
173,52.54003081249999,53.04041205833333,58.0,112.0
174,52.54003081249999,53.08242880416666,62.0,89.0
175,53.227577562499995,53.42620217916666,58.0,99.0
176,52.998395312499994,54.18823316041666,55.0,107.0
177,53.456759812499996,54.20733168125,63.0,93.0
178,53.456759812499996,54.21306123749999,60.0,79.0
179,54.37348881249999,54.9693626625,63.0,82.0
180,54.37348881249999,55.01710896458333,60.0,82.0
181,54.37348881249999,55.032387781249994,55.0,86.0
182,54.831853312499995,55.584335033333325,48.0,36.0
183,55.290217812499996,55.86126358541666,55.0,74.0
184,55.290217812499996,55.87081284583333,63.0,67.0
185,55.290217812499996,55.9090098875,60.0,72.0
186,55.7485823125,56.25851281874999,48.0,47.0
187,53.456759812499996,56.46095713958333,36.0,70.0
188,53.9151243125,56.49151477291666,43.0,54.0
189,56.20694681249999,56.60610589791666,63.0,107.0
190,56.436129062499994,56.62902412291666,48.0,56.0
191,56.20694681249999,56.66149160833333,60.0,93.0
192,56.665311312499995,57.135134924999996,55.0,76.0
193,57.1236758125,57.53238415833333,65.0,73.0
194,57.1236758125,57.593499425,58.0,82.0
195,57.1236758125,57.60113883333333,62.0,72.0
196,57.1236758125,58.13589741666666,46.0,86.0
197,57.58204031249999,58.20465209166666,50.0,56.0
198,58.269587062499994,58.42428508124999,46.0,77.0
199,58.498769312499995,58.620999845833325,58.0,37.0
200,58.04040481249999,58.85591165208333,62.0,96.0
201,58.9571338125,59.65422982291666,62.0,72.0
202,58.9571338125,59.6790579,58.0,90.0
203,58.9571338125,60.00946231041666,46.0,52.0
204,60.103045062499994,60.26729234166666,46.0,58.0
205,59.87386281249999,60.28448101041666,65.0,96.0
206,60.332227312499995,60.41817065624999,58.0,99.0
207,60.7905918125,61.27569424166666,60.0,77.0
208,60.7905918125,61.31771098749999,63.0,63.0
209,60.7905918125,61.39410507083333,56.0,67.0
210,61.24895631249999,61.95369173125,51.0,48.0
211,61.707320812499994,62.20388235416666,60.0,93.0
212,61.707320812499994,62.23062028333333,63.0,79.0
213,61.707320812499994,62.29555525416666,56.0,73.0
214,62.6240498125,63.13398031874999,60.0,88.0
215,62.6240498125,63.13589017083333,63.0,68.0
216,62.6240498125,63.16644780416666,56.0,72.0
217,62.165685312499996,63.74322313333333,51.0,34.0
218,62.165685312499996,63.89410144791666,48.0,19.0
219,63.540778812499994,63.91701967291666,60.0,112.0
220,63.540778812499994,63.96476597499999,63.0,102.0
221,63.540778812499994,63.981954643749994,56.0,89.0
222,60.7905918125,64.0220615375,44.0,73.0
223,63.999143312499996,64.13474281041665,51.0,67.0
224,64.4575078125,65.24436687083333,55.0,83.0
225,64.4575078125,65.24818657499999,62.0,79.0
226,64.4575078125,65.26537524375,58.0,89.0
227,64.4575078125,65.66262447708333,43.0,67.0
228,65.37423681249999,65.71992003958333,55.0,83.0
229,65.37423681249999,65.90708554375,62.0,82.0
230,65.37423681249999,65.96056140208333,58.0,96.0
231,65.83260131249999,66.0617835625,55.0,34.0
232,66.29096581249999,66.60036185,60.0,88.0
233,66.29096581249999,66.61755051875,55.0,81.0
234,66.29096581249999,66.61946037083332,63.0,82.0
235,66.29096581249999,66.66911652499999,48.0,60.0
236,67.2076948125,67.60303419374999,69.0,72.0
237,67.2076948125,67.61067360208332,65.0,66.0
238,67.2076948125,67.61449330625,62.0,78.0
239,67.2076948125,67.64696079166666,59.0,85.0
240,67.2076948125,67.66223960833332,47.0,56.0
241,68.1244238125,68.67446121249999,60.0,72.0
242,68.1244238125,68.74703559166666,53.0,74.0
243,68.1244238125,68.87499568125,56.0,71.0
244,68.5827883125,69.13855526875,48.0,37.0
245,69.04115281249999,69.53771435416667,56.0,96.0
246,69.04115281249999,69.54344391041666,60.0,90.0
247,69.49951731249999,70.22144139999999,48.0,35.0
248,69.95788181249999,70.39523793958332,56.0,93.0
249,69.95788181249999,70.42388572083333,53.0,89.0
250,69.95788181249999,70.44298424166666,60.0,73.0
251,70.4162463125,70.74092116666667,48.0,38.0
252,68.1244238125,70.80394628541666,41.0,63.0
253,70.8746108125,71.29668812291666,56.0,117.0
254,70.8746108125,71.30050782708332,60.0,81.0
255,71.3329753125,71.45329599374999,53.0,72.0
256,71.7913398125,72.20959741875,65.0,93.0
257,71.7913398125,72.22678608749999,62.0,100.0
258,71.7913398125,72.24206490416665,58.0,117.0
259,72.70806881249999,72.857037275,65.0,77.0
260,72.70806881249999,72.86467668333333,62.0,85.0
261,72.70806881249999,72.87231609166666,58.0,107.0
262,73.16643331249999,73.30012295833333,53.0,24.0
263,71.7913398125,73.43954216041666,46.0,100.0
264,72.24970431249999,73.45100127291666,50.0,37.0
265,74.0831623125,74.15955639583332,70.0,100.0
266,74.0831623125,74.1977534375,58.0,102.0
267,74.5415268125,74.61028148749999,72.0,88.0
268,74.5415268125,74.82609477291666,60.0,107.0
269,73.62479781249999,74.84328344166666,50.0,70.0
270,73.62479781249999,74.87002137083333,53.0,72.0
271,73.62479781249999,74.87957063124999,46.0,83.0
272,74.9998913125,75.07246569166666,62.0,127.0
273,75.4582558125,76.17254049166667,60.0,117.0
274,75.4582558125,76.19736856875,63.0,97.0
275,75.4582558125,76.22028679374999,56.0,107.0
276,75.4582558125,76.62326558333332,51.0,97.0
277,76.37498481249999,76.84098872083332,60.0,78.0
278,76.37498481249999,76.86772665,56.0,89.0
279,76.37498481249999,77.05871185833333,63.0,83.0
280,76.83334931249999,77.56864236458333,51.0,37.0
281,77.29171381249999,77.73861919999999,60.0,66.0
282,77.29171381249999,77.81501328333333,68.0,79.0
283,77.29171381249999,77.990719675,56.0,77.0
284,77.29171381249999,78.0250970125,63.0,72.0
285,77.7500783125,78.37459994375,51.0,46.0
286,78.2084428125,78.60378219374999,60.0,122.0
287,78.2084428125,78.61333145416666,68.0,92.0
288,78.2084428125,78.64006938333333,63.0,96.0
289,75.4582558125,78.66107775625,44.0,70.0
290,78.2084428125,78.66298760833332,56.0,102.0
291,76.1458025625,78.73174228333333,48.0,32.0
292,78.6668073125,78.83105459166666,51.0,74.0
293,79.12517181249999,79.65038113541667,65.0,89.0
294,79.12517181249999,79.66375009999999,62.0,88.0
295,79.12517181249999,79.69812743749999,55.0,102.0
296,79.12517181249999,79.88529294166666,58.0,107.0
297,79.12517181249999,80.06290918541666,43.0,68.0
298,79.58353631249999,80.10110622708332,50.0,48.0
299,80.04190081249999,80.50790472083332,65.0,82.0
300,80.04190081249999,80.57283969166666,58.0,100.0
301,80.04190081249999,80.58429880416666,62.0,88.0
302,80.50026531249999,80.86122735625,55.0,72.0
303,80.95862981249999,81.69965242083333,55.0,67.0
304,80.95862981249999,81.70920168125,63.0,90.0
305,80.95862981249999,81.72639034999999,60.0,81.0
306,80.95862981249999,81.83334206666666,36.0,57.0
307,81.8753588125,82.38337946666665,63.0,102.0
308,81.8753588125,82.41584695208333,60.0,95.0
309,82.79208781249999,83.17214837708333,53.0,82.0
310,82.79208781249999,83.33257595208333,56.0,93.0
311,82.79208781249999,83.37077299375,60.0,81.0
312,83.25045231249999,83.72409562916665,48.0,58.0
313,82.79208781249999,83.75083355833333,41.0,69.0
314,83.70881681249999,84.10224634166666,55.0,83.0
315,84.16718131249999,84.24739509999999,56.0,82.0
316,84.6255458125,85.09345957291666,65.0,81.0
317,84.6255458125,85.12210735416666,62.0,88.0
318,84.6255458125,85.14693543124999,58.0,112.0
319,84.6255458125,85.8058344,46.0,92.0
320,85.5422748125,85.85740040625,62.0,96.0
321,85.5422748125,85.89559744791666,58.0,117.0
322,86.45900381249999,86.86389245416666,67.0,96.0
323,86.45900381249999,86.89445008749999,70.0,97.0
324,86.45900381249999,86.90399934791665,63.0,99.0
325,86.91736831249999,87.58581654166666,51.0,57.0
326,87.37573281249999,87.78253130625,67.0,122.0
327,87.37573281249999,87.82645790416666,70.0,107.0
328,87.37573281249999,87.90094213541666,63.0,102.0
329,87.83409731249999,88.12057512499999,51.0,47.0
330,86.45900381249999,88.20651846874999,39.0,107.0
331,88.2924618125,88.47580761249999,51.0,99.0
332,88.2924618125,88.54838199166666,39.0,37.0
333,88.2924618125,88.69735045416665,67.0,117.0
334,88.2924618125,88.77565438958332,63.0,107.0
335,88.2924618125,89.01629575208332,70.0,122.0
336,89.2091908125,89.93875430833333,62.0,112.0
337,89.2091908125,90.15265774166666,38.0,86.0
338,90.12591981249999,90.64157987499999,67.0,89.0
339,90.12591981249999,90.86885227291666,60.0,93.0
340,90.12591981249999,90.88031138541666,63.0,102.0
341,90.12591981249999,91.27183106249998,36.0,77.0
342,91.04264881249999,91.374963075,67.0,86.0
343,91.04264881249999,91.38642218749999,63.0,99.0
344,91.04264881249999,91.46281627083333,60.0,85.0
345,90.58428431249999,91.47045567916666,48.0,41.0
346,91.9593778125,92.41583246041665,65.0,90.0
347,91.9593778125,92.45784920624999,62.0,92.0
348,91.9593778125,92.47694772708333,58.0,102.0
349,91.9593778125,92.75196642708332,53.0,49.0
350,91.9593778125,93.34975012916665,50.0,67.0
351,91.9593778125,93.35356983333332,46.0,58.0
352,92.8761068125,93.35929938958333,65.0,76.0
353,92.8761068125,93.46816095833333,62.0,88.0
354,92.8761068125,93.47198066249999,58.0,117.0
355,93.79283581249999,93.95708309166666,65.0,73.0
356,93.79283581249999,94.35051262083333,62.0,81.0
357,93.79283581249999,94.47274315416666,55.0,90.0
358,93.79283581249999,94.54722738541666,58.0,99.0
359,94.25120031249999,94.73057318541666,50.0,36.0
360,93.79283581249999,94.85662342291666,43.0,69.0
361,94.70956481249999,95.22904457916665,62.0,89.0
362,94.70956481249999,95.45822682916666,58.0,97.0
363,95.6262938125,98.30008672916665,48.0,66.0
364,95.6262938125,98.35929214375,55.0,93.0
365,95.6262938125,98.37648081249999,60.0,93.0
366,95.6262938125,98.38412022083332,63.0,97.0
367,99.2932098125,99.85661617708332,60.0,77.0
368,99.2932098125,99.96547774583333,53.0,82.0
369,99.2932098125,100.0724294625,56.0,83.0
370,99.2932098125,100.19465999583332,41.0,65.0
371,99.7515743125,100.21948807291666,48.0,38.0
372,100.20993881249998,100.3932846125,56.0,83.0
373,101.12666781249999,102.29549728749998,46.0,55.0
374,101.12666781249999,102.40244900416666,65.0,32.0
375,101.12666781249999,102.44064604583332,58.0,96.0
376,101.12666781249999,102.45592486249998,62.0,78.0
377,102.9601258125,103.47578587499999,55.0,51.0
378,102.9601258125,103.76417353958333,58.0,63.0
379,103.41849031249998,104.06211046458333,51.0,45.0
380,102.9601258125,104.49182718333333,63.0,58.0
381,103.87685481249999,104.53957348541665,55.0,83.0
382,104.33521931249999,105.78097733958332,51.0,45.0
383,102.9601258125,105.88983890833332,39.0,95.0
384,104.79358381249999,105.91466698541666,58.0,65.0
385,104.79358381249999,105.98342166041665,63.0,61.0
386,104.79358381249999,106.01970884999999,55.0,61.0
387,106.85622406249999,106.98991370833332,72.0,74.0
388,106.6270418125,107.05484867916665,60.0,88.0
389,106.6270418125,107.05675853124998,63.0,95.0
390,106.6270418125,107.34132649166666,56.0,85.0
391,107.08540631249998,107.37761368124998,72.0,71.0
392,107.31458856249999,107.54568066458333,84.0,90.0
393,107.54377081249999,107.70801809166666,72.0,81.0
394,107.08540631249998,107.79205158333332,44.0,47.0
395,107.7729530625,107.92383137708332,72.0,72.0
396,107.54377081249999,108.10335747291666,60.0,67.0
397,107.54377081249999,108.12054614166665,63.0,61.0
398,108.00213531249999,108.29243282916666,72.0,71.0
399,108.00213531249999,108.34399883541666,44.0,23.0
400,107.54377081249999,108.35354809583332,56.0,47.0
401,108.2313175625,108.51779537499999,84.0,86.0
402,108.46049981249999,108.61710768333332,72.0,58.0
403,108.68968206249998,108.81955200416665,72.0,54.0
404,108.46049981249999,109.09832675833331,63.0,62.0
405,108.46049981249999,109.19302373749998,60.0,74.0
406,108.91886431249999,109.20059949583332,72.0,61.0
407,108.46049981249999,109.26878132083331,56.0,57.0
408,109.14756918749998,109.37105405833331,82.0,74.0
409,109.37484193749998,109.57181165416665,72.0,65.0
410,109.60211468749998,109.73658439791664,72.0,66.0
411,106.6270418125,109.84643289374998,32.0,72.0
412,108.46049981249999,109.99984199999999,44.0,54.0
413,109.37484193749998,110.06991776458332,63.0,54.0
414,109.82938743749999,110.10211473749999,72.0,66.0
415,109.37484193749998,110.14946322708332,60.0,64.0
416,110.51120568749998,110.71764510208331,72.0,81.0
417,110.28393293749998,110.80476632291665,60.0,95.0
418,110.28393293749998,110.80476632291665,63.0,89.0
419,110.73847843749998,110.97900876458331,70.0,88.0
420,110.28393293749998,111.01688755624998,56.0,90.0
421,110.51120568749998,111.17029666249998,44.0,38.0
422,110.96575118749999,111.22711484999998,72.0,95.0
423,111.42029668749998,111.67029671249998,72.0,90.0
424,111.19302393749999,111.81423612083331,60.0,72.0
425,111.19302393749999,111.81423612083331,63.0,52.0
426,111.64756943749998,111.93734219374998,70.0,81.0
427,111.19302393749999,112.03203917291665,56.0,67.0
428,111.87484218749998,112.08317554166665,72.0,82.0
429,112.10211493749998,112.37673617708332,75.0,100.0
430,112.32938768749999,112.56234225624998,72.0,74.0
431,112.10211493749998,112.62484226249998,63.0,38.0
432,112.10211493749998,112.67029681249998,60.0,52.0
433,112.10211493749998,112.82559985833332,56.0,36.0
434,112.55666043749999,112.83506955624998,70.0,93.0
435,111.87484218749998,113.01688775624999,44.0,27.0
436,112.78393318749998,113.10211503749998,72.0,76.0
437,113.23847868749998,113.44491810208332,72.0,90.0
438,113.01120593749998,113.53393326249999,63.0,46.0
439,113.01120593749998,113.56044841666665,60.0,75.0
440,113.46575143749999,113.66650903333331,70.0,78.0
441,113.01120593749998,113.72900903958332,56.0,69.0
442,110.28393293749998,113.77446358958332,32.0,63.0
443,113.69302418749999,113.86916056874998,72.0,86.0
444,113.46575143749999,113.92029693749998,44.0,41.0
445,113.92029693749998,114.28772121666665,70.0,50.0
446,114.14756968749998,114.36537273958332,72.0,89.0
447,114.37484243749998,114.65135761666664,70.0,82.0
448,113.92029693749998,114.70438792499998,55.0,96.0
449,113.92029693749998,114.72143338124998,63.0,99.0
450,113.92029693749998,114.73658489791666,60.0,93.0
451,114.60211518749998,114.96006976874999,72.0,89.0
452,113.92029693749998,114.99037280208331,48.0,90.0
453,115.05666068749998,115.27825161874998,72.0,70.0
454,114.82938793749999,115.49037285208331,63.0,90.0
455,114.82938793749999,115.50741830833331,60.0,90.0
456,115.28393343749998,115.54340316041664,70.0,72.0
457,114.82938793749999,115.61537286458332,55.0,86.0
458,115.51120618749998,115.78582742708332,72.0,96.0
459,115.73847893749998,115.93166077499998,75.0,122.0
460,115.96575168749999,116.28772141666666,72.0,90.0
461,116.19302443749999,116.47900931458332,75.0,95.0
462,115.73847893749998,116.53014568333332,55.0,73.0
463,115.73847893749998,116.53772144166665,63.0,81.0
464,115.73847893749998,116.54150932083331,60.0,77.0
465,116.42029718749998,116.57181235416665,77.0,85.0
466,116.64756993749998,116.94681239166665,75.0,99.0
467,115.28393343749998,117.03393361249998,48.0,29.0
468,113.92029693749998,117.03582755208332,36.0,60.0
469,113.92029693749998,117.07181240416665,43.0,64.0
470,116.64756993749998,117.14378210833331,63.0,102.0
471,116.64756993749998,117.15893362499999,60.0,102.0
472,116.87484268749998,117.26120636249999,72.0,86.0
473,117.10211543749998,117.35400940208332,55.0,72.0
474,117.10211543749998,117.36158516041665,75.0,100.0
475,117.32938818749999,117.59832760833332,79.0,100.0
476,117.55666093749998,117.81423672083332,77.0,97.0
477,117.55666093749998,118.02635795416666,60.0,90.0
478,117.55666093749998,118.03393371249999,53.0,90.0
479,117.78393368749998,118.09832765833332,72.0,79.0
480,117.55666093749998,118.25741858333332,56.0,102.0
481,118.01120643749998,118.27257009999998,75.0,92.0
482,118.01120643749998,118.66650953333331,48.0,31.0
483,118.23847918749999,118.77067621041665,77.0,97.0
484,117.55666093749998,118.90703986041665,41.0,85.0
485,118.46575193749999,119.00173683958332,56.0,117.0
486,118.46575193749999,119.01688835624998,60.0,95.0
487,118.69302468749999,119.05097926874998,72.0,81.0
488,118.46575193749999,119.05855502708332,53.0,95.0
489,118.92029743749998,119.18923685833332,75.0,117.0
490,119.14757018749998,119.26310050208332,77.0,96.0
491,119.37484293749998,119.91082783958332,62.0,93.0
492,119.37484293749998,120.14946422708331,53.0,95.0
493,119.37484293749998,120.14946422708331,58.0,102.0
494,119.82938843749999,120.24226726666664,46.0,31.0
495,120.28393393749998,120.77825216874999,62.0,93.0
496,119.37484293749998,120.80855520208331,34.0,82.0
497,120.28393393749998,121.04255459166666,53.0,66.0
498,120.28393393749998,121.07488215416666,58.0,95.0
499,119.37484293749998,122.36471225416665,82.0,122.0
500,121.23220962499998,123.33461956458332,46.0,67.0
501,121.23220962499998,123.34850845208332,58.0,83.0
502,121.23220962499998,123.34850845208332,62.0,74.0
503,121.23220962499998,123.35313808124998,53.0,66.0
504,121.23220962499998,123.36702696874998,34.0,66.0
505,123.56378620833331,124.30123749791666,58.0,93.0
506,123.56378620833331,124.34325424374998,55.0,79.0
507,123.95730468749998,124.66028968958332,51.0,55.0
508,124.45211581249998,124.99833350833332,58.0,99.0
509,124.91048031249998,125.57892854166666,51.0,57.0
510,125.36884481249999,125.82529946041666,55.0,58.0
511,125.36884481249999,125.85585709374999,63.0,99.0
512,125.36884481249999,125.87877531874999,58.0,100.0
513,125.82720931249999,126.45746049999998,51.0,58.0
514,123.55684176458333,126.82606195208332,39.0,96.0
515,126.74393831249999,126.86425899374998,51.0,52.0
516,126.28557381249999,126.87189840208332,63.0,107.0
517,126.28557381249999,127.12972843333333,58.0,112.0
518,127.2023028125,127.68549538958332,62.0,92.0
519,127.2023028125,127.71605302291665,55.0,93.0
520,127.2023028125,127.91658749166665,58.0,99.0
521,128.1190318125,128.57930616458333,62.0,79.0
522,128.1190318125,128.6003145375,55.0,74.0
523,128.1190318125,128.62514261458332,58.0,95.0
524,128.57739631249999,129.24966424583332,43.0,37.0
525,129.03576081249997,129.54951102291665,62.0,77.0
526,129.03576081249997,129.58388836041667,55.0,75.0
527,129.03576081249997,129.73476667499997,58.0,90.0
528,127.2023028125,130.13010605624999,38.0,71.0
529,130.18167206249998,130.25424644166665,43.0,45.0
530,129.95248981249998,130.45287105833333,58.0,112.0
531,129.95248981249998,130.49488780416667,62.0,89.0
532,130.64003656249997,130.83866117916665,58.0,99.0
533,130.4108543125,131.60069216041666,55.0,107.0
534,130.86921881249998,131.61979068124998,63.0,93.0
535,130.86921881249998,131.62552023749998,60.0,79.0
536,131.78594781249998,132.3818216625,63.0,82.0
537,131.78594781249998,132.42956796458333,60.0,82.0
538,131.78594781249998,132.44484678125,55.0,86.0
539,132.24431231249997,132.99679403333332,48.0,36.0
540,132.7026768125,133.27372258541666,55.0,74.0
541,132.7026768125,133.28327184583333,63.0,67.0
542,132.7026768125,133.32146888749998,60.0,72.0
543,133.16104131249998,133.67097181875,48.0,47.0
544,130.86921881249998,133.87341613958333,36.0,70.0
545,131.3275833125,133.90397377291666,43.0,54.0
546,133.6194058125,134.01856489791666,63.0,107.0
547,133.8485880625,134.04148312291665,48.0,56.0
548,133.6194058125,134.07395060833332,60.0,93.0
549,134.07777031249998,134.547593925,55.0,76.0
550,134.5361348125,134.94484315833333,65.0,73.0
551,134.5361348125,135.005958425,58.0,82.0
552,134.5361348125,135.0135978333333,62.0,72.0
553,134.5361348125,135.54835641666665,46.0,86.0
554,134.99449931249998,135.61711109166666,50.0,56.0
555,135.68204606249998,135.83674408124998,46.0,77.0
556,135.9112283125,136.0334588458333,58.0,37.0
557,135.4528638125,136.26837065208332,62.0,96.0
558,136.36959281249997,137.06668882291666,62.0,72.0
559,136.36959281249997,137.0915169,58.0,90.0
560,136.36959281249997,137.42192131041665,46.0,52.0
561,137.51550406249999,137.67975134166664,46.0,58.0
562,137.28632181249998,137.69694001041665,65.0,96.0
563,137.7446863125,137.83062965624998,58.0,99.0
564,138.20305081249998,138.68815324166664,60.0,77.0
565,138.20305081249998,138.73016998749998,63.0,63.0
566,138.20305081249998,138.80656407083333,56.0,67.0
567,138.6614153125,139.36615073124997,51.0,48.0
568,139.11977981249998,139.61634135416665,60.0,93.0
569,139.11977981249998,139.64307928333332,63.0,79.0
570,139.11977981249998,139.70801425416664,56.0,73.0
571,140.0365088125,140.54643931874998,60.0,88.0
572,140.0365088125,140.54834917083332,63.0,68.0
573,140.0365088125,140.57890680416665,56.0,72.0
574,139.57814431249997,141.15568213333333,51.0,34.0
575,139.57814431249997,141.30656044791664,48.0,19.0
576,140.9532378125,141.32947867291665,60.0,112.0
577,140.9532378125,141.377224975,63.0,102.0
578,140.9532378125,141.39441364375,56.0,89.0
579,138.20305081249998,141.4345205375,44.0,73.0
580,141.41160231249998,141.54720181041665,51.0,67.0
581,141.8699668125,142.65682587083333,55.0,83.0
582,141.8699668125,142.660645575,62.0,79.0
583,141.8699668125,142.67783424375,58.0,89.0
584,141.8699668125,143.07508347708333,43.0,67.0
585,142.7866958125,143.13237903958333,55.0,83.0
586,142.7866958125,143.31954454375,62.0,82.0
587,142.7866958125,143.3730204020833,58.0,96.0
588,143.2450603125,143.4742425625,55.0,34.0
589,143.70342481249997,144.01282085,60.0,88.0
590,143.70342481249997,144.03000951874998,55.0,81.0
591,143.70342481249997,144.03191937083332,63.0,82.0
592,143.70342481249997,144.08157552499998,48.0,60.0
593,144.62015381249998,145.01549319375,69.0,72.0
594,144.62015381249998,145.0231326020833,65.0,66.0
595,144.62015381249998,145.02695230625,62.0,78.0
596,144.62015381249998,145.05941979166664,59.0,85.0
597,144.62015381249998,145.0746986083333,47.0,56.0
598,145.53688281249998,146.0869202125,60.0,72.0
599,145.53688281249998,146.15949459166666,53.0,74.0
600,145.53688281249998,146.28745468124998,56.0,71.0
601,145.9952473125,146.55101426874998,48.0,37.0
602,146.4536118125,146.95017335416665,56.0,96.0
603,146.4536118125,146.95590291041665,60.0,90.0
604,146.91197631249997,147.6339004,48.0,35.0
605,147.3703408125,147.8076969395833,56.0,93.0
606,147.3703408125,147.83634472083332,53.0,89.0
607,147.3703408125,147.85544324166665,60.0,73.0
608,147.82870531249998,148.15338016666664,48.0,38.0
609,145.53688281249998,148.21640528541664,41.0,63.0
610,148.2870698125,148.70914712291665,56.0,117.0
611,148.2870698125,148.7129668270833,60.0,81.0
612,148.74543431249998,148.86575499375,53.0,72.0
613,149.2037988125,149.62205641875,65.0,93.0
614,149.2037988125,149.63924508749997,62.0,100.0
615,149.2037988125,149.65452390416664,58.0,117.0
616,150.12052781249997,150.269496275,65.0,77.0
617,150.12052781249997,150.2771356833333,62.0,85.0
618,150.12052781249997,150.28477509166666,58.0,107.0
619,150.5788923125,150.71258195833332,53.0,24.0
620,149.2037988125,150.85200116041665,46.0,100.0
621,149.66216331249998,150.86346027291665,50.0,37.0
622,151.4956213125,151.57201539583332,70.0,100.0
623,151.4956213125,151.6102124375,58.0,102.0
624,151.95398581249998,152.0227404875,72.0,88.0
625,151.95398581249998,152.23855377291665,60.0,107.0
626,151.03725681249998,152.25574244166665,50.0,70.0
627,151.03725681249998,152.28248037083333,53.0,72.0
628,151.03725681249998,152.29202963125,46.0,83.0
629,152.4123503125,152.48492469166666,62.0,127.0
630,152.87071481249998,153.58499949166665,60.0,117.0
631,152.87071481249998,153.60982756874998,63.0,97.0
632,152.87071481249998,153.63274579375,56.0,107.0
633,152.87071481249998,154.03572458333332,51.0,97.0
634,153.7874438125,154.25344772083332,60.0,78.0
635,153.7874438125,154.28018565,56.0,89.0
636,153.7874438125,154.47117085833332,63.0,83.0
637,154.24580831249997,154.9811013645833,51.0,37.0
638,154.7041728125,155.15107819999997,60.0,66.0
639,154.7041728125,155.22747228333333,68.0,79.0
640,154.7041728125,155.403178675,56.0,77.0
641,154.7041728125,155.43755601249998,63.0,72.0
642,155.16253731249998,155.78705894374997,51.0,46.0
643,155.6209018125,156.01624119374998,60.0,122.0
644,155.6209018125,156.02579045416664,68.0,92.0
645,155.6209018125,156.0525283833333,63.0,96.0
646,152.87071481249998,156.07353675624998,44.0,70.0
647,155.6209018125,156.07544660833332,56.0,102.0
648,153.55826156249998,156.1442012833333,48.0,32.0
649,156.07926631249998,156.24351359166664,51.0,74.0
650,156.53763081249997,157.06284013541665,65.0,89.0
651,156.53763081249997,157.07620909999997,62.0,88.0
652,156.53763081249997,157.1105864375,55.0,102.0
653,156.53763081249997,157.29775194166666,58.0,107.0
654,156.53763081249997,157.47536818541664,43.0,68.0
655,156.99599531249999,157.51356522708332,50.0,48.0
656,157.45435981249997,157.9203637208333,65.0,82.0
657,157.45435981249997,157.98529869166666,58.0,100.0
658,157.45435981249997,157.99675780416663,62.0,88.0
659,157.9127243125,158.27368635624998,55.0,72.0
660,158.37108881249998,159.11211142083332,55.0,67.0
661,158.37108881249998,159.12166068124998,63.0,90.0
662,158.37108881249998,159.13884935,60.0,81.0
663,158.37108881249998,159.24580106666664,36.0,57.0
664,159.28781781249998,159.79583846666665,63.0,102.0
665,159.28781781249998,159.82830595208333,60.0,95.0
666,160.20454681249998,160.58460737708333,53.0,82.0
667,160.20454681249998,160.7450349520833,56.0,93.0
668,160.20454681249998,160.78323199374998,60.0,81.0
669,160.6629113125,161.13655462916665,48.0,58.0
670,160.20454681249998,161.16329255833332,41.0,69.0
671,161.1212758125,161.51470534166666,55.0,83.0
672,161.57964031249998,161.6598541,56.0,82.0
673,162.0380048125,162.50591857291664,65.0,81.0
674,162.0380048125,162.53456635416666,62.0,88.0
675,162.0380048125,162.55939443124998,58.0,112.0
676,162.0380048125,163.2182934,46.0,92.0
677,162.95473381249997,163.26985940625,62.0,96.0
678,162.95473381249997,163.30805644791664,58.0,117.0
679,163.8714628125,164.27635145416664,67.0,96.0
680,163.8714628125,164.30690908749997,70.0,97.0
681,163.8714628125,164.31645834791664,63.0,99.0
682,164.3298273125,164.99827554166666,51.0,57.0
683,164.78819181249997,165.19499030625,67.0,122.0
684,164.78819181249997,165.23891690416664,70.0,107.0
685,164.78819181249997,165.31340113541665,63.0,102.0
686,165.2465563125,165.53303412499997,51.0,47.0
687,163.8714628125,165.61897746875,39.0,107.0
688,165.70492081249998,165.8882666125,51.0,99.0
689,165.70492081249998,165.96084099166666,39.0,37.0
690,165.70492081249998,166.10980945416665,67.0,117.0
691,165.70492081249998,166.18811338958332,63.0,107.0
692,165.70492081249998,166.4287547520833,70.0,122.0
693,166.62164981249998,167.3512133083333,62.0,112.0
694,166.62164981249998,167.56511674166666,38.0,86.0
695,167.53837881249999,168.05403887499997,67.0,89.0
696,167.53837881249999,168.28131127291664,60.0,93.0
697,167.53837881249999,168.29277038541665,63.0,102.0
698,167.53837881249999,168.6842900625,36.0,77.0
699,168.4551078125,168.787422075,67.0,86.0
700,168.4551078125,168.79888118749997,63.0,99.0
701,168.4551078125,168.8752752708333,60.0,85.0
702,167.99674331249997,168.88291467916665,48.0,41.0
703,169.3718368125,169.82829146041666,65.0,90.0
704,169.3718368125,169.87030820624997,62.0,92.0
705,169.3718368125,169.88940672708333,58.0,102.0
706,169.3718368125,170.1644254270833,53.0,49.0
707,169.3718368125,170.76220912916665,50.0,67.0
708,169.3718368125,170.7660288333333,46.0,58.0
709,170.2885658125,170.7717583895833,65.0,76.0
710,170.2885658125,170.8806199583333,62.0,88.0
711,170.2885658125,170.88443966249997,58.0,117.0
712,171.20529481249997,171.36954209166666,65.0,73.0
713,171.20529481249997,171.76297162083333,62.0,81.0
714,171.20529481249997,171.88520215416665,55.0,90.0
715,171.20529481249997,171.95968638541666,58.0,99.0
716,171.6636593125,172.14303218541664,50.0,36.0
717,171.20529481249997,172.26908242291665,43.0,69.0
718,172.12202381249998,172.64150357916665,62.0,89.0
719,172.12202381249998,172.87068582916663,58.0,97.0
720,173.03875281249998,175.71254572916666,48.0,66.0
721,173.03875281249998,175.77175114374998,55.0,93.0
722,173.03875281249998,175.7889398125,60.0,93.0
723,173.03875281249998,175.7965792208333,63.0,97.0
724,176.7056688125,177.26907517708332,60.0,77.0
725,176.7056688125,177.37793674583332,53.0,82.0
726,176.7056688125,177.48488846249998,56.0,83.0
727,176.7056688125,177.60711899583333,41.0,65.0
728,177.16403331249998,177.63194707291666,48.0,38.0
729,177.62239781249997,177.80574361249998,56.0,83.0
730,178.53912681249997,179.7079562875,46.0,55.0
731,178.53912681249997,179.81490800416665,65.0,32.0
732,178.53912681249997,179.85310504583333,58.0,96.0
733,178.53912681249997,179.86838386249997,62.0,78.0
734,180.37258481249998,180.7583749333333,58.0,112.0
735,180.37258481249998,180.9818276270833,55.0,92.0
736,180.83094931249997,180.99519659166666,58.0,76.0
737,180.83094931249997,181.00283599999997,63.0,73.0
738,181.06013156249998,181.12697638541664,63.0,31.0
739,181.06013156249998,181.14416505416665,58.0,35.0
740,180.83094931249997,181.5643325125,51.0,63.0
741,181.28931381249998,181.6292674833333,55.0,99.0
742,181.28931381249998,181.64263644791666,63.0,127.0
743,181.28931381249998,181.65409556041664,58.0,127.0
744,180.37258481249998,181.90619603541666,39.0,102.0
745,181.74767831249997,181.99786893541665,51.0,38.0
746,181.74767831249997,182.03415612499998,55.0,85.0
747,181.74767831249997,182.05516449791665,58.0,102.0
748,181.74767831249997,182.07235316666666,63.0,100.0
749,182.2060428125,182.52116840624998,51.0,88.0
750,182.2060428125,182.53262751875,55.0,100.0
751,182.2060428125,182.5459964833333,63.0,112.0
752,182.2060428125,182.55554574374997,58.0,127.0
753,182.2060428125,182.56509500416666,39.0,95.0
754,182.66440731249997,182.93942601249998,51.0,97.0
755,182.66440731249997,182.94897527291664,55.0,99.0
756,182.66440731249997,182.95661468125,39.0,99.0
757,182.66440731249997,182.96043438541665,63.0,127.0
758,182.66440731249997,182.9699836458333,58.0,127.0
759,183.1227718125,183.3939708083333,51.0,112.0
760,183.1227718125,183.43598755416664,55.0,107.0
761,183.1227718125,183.4398072583333,58.0,127.0
762,183.1227718125,183.4398072583333,63.0,127.0
763,183.1227718125,183.51811119374997,39.0,112.0
764,183.58113631249998,183.64798113541664,58.0,122.0
765,183.58113631249998,183.68808802916664,51.0,102.0
766,183.58113631249998,183.68808802916664,55.0,100.0
767,183.58113631249998,183.69954714166664,63.0,122.0
768,184.03950081249997,184.4195613770833,60.0,127.0
769,184.03950081249997,184.42147122916666,63.0,127.0
770,184.03950081249997,184.43293034166663,56.0,117.0
771,184.03950081249997,184.58762836041666,51.0,112.0
772,184.49786531249998,184.6258254020833,60.0,90.0
773,184.49786531249998,184.64683377499998,63.0,95.0
774,184.49786531249998,184.64874362708332,56.0,78.0
775,184.03950081249997,185.30000318749998,48.0,78.0
776,184.9562298125,185.30191303958333,63.0,112.0
777,184.9562298125,185.3114623,60.0,107.0
778,184.9562298125,185.32101156041665,56.0,102.0
779,184.9562298125,185.38403667916666,51.0,89.0
780,184.03950081249997,185.4336928333333,44.0,83.0
781,185.4145943125,185.48143913541665,63.0,99.0
782,185.4145943125,185.4833489875,60.0,100.0
783,185.4145943125,185.51008691666664,56.0,99.0
784,185.87295881249997,186.14988736458332,65.0,96.0
785,185.87295881249997,186.15561692083332,62.0,102.0
786,185.87295881249997,186.17662529374996,58.0,127.0
787,185.87295881249997,186.47647207083332,53.0,83.0
788,186.3313233125,186.58342378749998,65.0,78.0
789,186.3313233125,186.5948829,62.0,88.0
790,186.3313233125,186.61589127291666,58.0,112.0
791,185.87295881249997,186.91955775416665,50.0,75.0
792,186.78968781249998,186.9348365708333,53.0,72.0
793,185.87295881249997,187.02841932291665,46.0,99.0
794,186.78968781249998,187.12009222291664,62.0,100.0
795,186.78968781249998,187.12009222291664,65.0,99.0
796,186.78968781249998,187.1353710395833,58.0,127.0
797,187.24805231249996,187.5116119,65.0,86.0
798,187.24805231249996,187.60328479999998,62.0,99.0
799,187.24805231249996,187.60901435625,58.0,122.0
800,187.70641681249998,188.03682122291664,55.0,117.0
801,187.70641681249998,188.05591974375,58.0,127.0
802,187.70641681249998,188.06164929999997,62.0,99.0
803,188.1647813125,188.44743942083332,55.0,90.0
804,188.1647813125,188.4531689770833,62.0,93.0
805,188.1647813125,188.47226749791665,58.0,112.0
806,187.70641681249998,188.73200738124999,43.0,77.0
807,188.62314581249998,188.73391723333333,50.0,69.0
808,188.62314581249998,188.95546007499996,55.0,102.0
809,188.62314581249998,188.9630994833333,62.0,117.0
810,188.62314581249998,188.97646844791666,58.0,127.0
811,189.08151031249997,189.35652901249998,62.0,83.0
812,189.08151031249997,189.39472605416665,55.0,83.0
813,189.08151031249997,189.41955413124998,58.0,102.0
814,189.5398748125,189.88555803958332,55.0,100.0
815,189.5398748125,189.90274670833332,60.0,122.0
816,189.5398748125,189.90274670833332,63.0,122.0
817,189.99823931249998,190.2866269770833,55.0,83.0
818,189.99823931249998,190.2866269770833,63.0,99.0
819,189.99823931249998,190.30190579375,60.0,100.0
820,189.5398748125,190.36875061666666,48.0,72.0
821,190.45660381249996,190.6189412395833,48.0,117.0
822,190.45660381249996,190.74499147708332,55.0,96.0
823,190.45660381249996,190.91305846041666,63.0,127.0
824,190.45660381249996,190.94170624166665,60.0,122.0
825,190.91496831249998,191.22627420208332,55.0,117.0
826,191.3733328125,191.69800766666663,60.0,99.0
827,191.3733328125,191.71710618749998,53.0,102.0
828,191.3733328125,191.71901603958332,56.0,122.0
829,191.83169731249998,192.14682290624998,60.0,79.0
830,191.83169731249998,192.15828201875,53.0,71.0
831,191.83169731249998,192.16210172291665,56.0,96.0
832,192.29006181249997,192.61473666666666,56.0,127.0
833,192.29006181249997,192.61855637083332,60.0,100.0
834,192.29006181249997,192.62046622291666,53.0,99.0
835,191.83169731249998,192.81145143124996,48.0,39.0
836,192.7484263125,193.0769208708333,60.0,79.0
837,192.7484263125,193.08456027916665,56.0,102.0
838,192.7484263125,193.09028983541663,53.0,44.0
839,193.20679081249997,193.5639331520833,60.0,96.0
840,193.20679081249997,193.57730211666666,56.0,122.0
841,193.20679081249997,193.59449078541667,53.0,93.0
842,193.66515531249996,193.94590356875,60.0,76.0
843,193.66515531249996,193.95545282916663,56.0,92.0
844,193.66515531249996,193.96309223749998,53.0,60.0
845,193.20679081249997,194.40426806874999,48.0,92.0
846,191.3733328125,194.4692030395833,41.0,72.0
847,194.12351981249998,194.48257200416663,53.0,99.0
848,194.12351981249998,194.49021141249997,60.0,99.0
849,194.12351981249998,194.5131296375,56.0,127.0
850,194.5818843125,194.63727002291665,56.0,68.0
851,194.5818843125,194.64299957916666,60.0,47.0
852,194.5818843125,194.73276262708333,53.0,107.0
853,195.04024881249998,195.53872020625,53.0,73.0
854,195.49861331249997,195.53872020625,53.0,46.0
855,195.04024881249998,195.68195911249998,65.0,92.0
856,195.04024881249998,195.7125167458333,62.0,100.0
857,195.04024881249998,195.75453349166665,58.0,127.0
858,195.95697781249999,196.4802772833333,65.0,100.0
859,195.04024881249998,196.51274476875,46.0,102.0
860,195.95697781249999,196.54712210625,58.0,127.0
861,195.95697781249999,196.56431077499997,62.0,122.0
862,195.04024881249998,196.7724846520833,50.0,72.0
863,196.41534231249997,196.78203391249997,53.0,74.0
864,196.87370681249996,198.36912099374996,65.0,100.0
865,196.87370681249996,198.47798256249996,53.0,92.0
866,196.87370681249996,198.5467372375,62.0,107.0
867,196.87370681249996,198.56392590624998,46.0,102.0
868,196.87370681249996,198.57920472291664,50.0,97.0
869,196.87370681249996,198.57920472291664,58.0,127.0
870,198.70716481249997,201.3160227583333,65.0,81.0
871,198.70716481249997,201.331301575,62.0,95.0
872,198.70716481249997,201.33703113125,58.0,122.0
873,198.70716481249997,201.46308136874998,53.0,69.0
874,198.70716481249997,201.46881092499999,50.0,69.0
875,198.70716481249997,201.50509811458332,46.0,90.0
876,202.37408081249998,203.48943442916664,68.0,81.0
877,202.37408081249998,203.70906741874998,72.0,82.0
878,202.37408081249998,203.85039647291666,75.0,68.0
879,203.97835656249998,204.08530827916664,75.0,13.0
880,203.74917431249997,204.34886786666664,68.0,82.0
881,203.29080981249996,204.40807328124998,63.0,86.0
882,204.2075388125,205.16437470625,70.0,81.0
883,205.12426781249997,205.1777436708333,68.0,27.0
884,205.12426781249997,205.26177716249998,75.0,35.0
885,202.37408081249998,205.36490917499998,56.0,93.0
886,204.66590331249998,205.38018799166665,63.0,53.0
887,202.8324453125,205.3897372520833,60.0,37.0
888,205.12426781249997,205.4699510395833,72.0,72.0
889,206.0409968125,206.48408249583332,67.0,66.0
890,206.0409968125,206.7743800125,70.0,68.0
891,206.49936131249999,207.02266078333332,62.0,61.0
892,206.0409968125,207.0742267895833,55.0,69.0
893,206.0409968125,207.35115534166664,77.0,69.0
894,206.0409968125,207.37407356666665,74.0,61.0
895,206.95772581249997,207.6872893083333,70.0,90.0
896,207.4160903125,208.39966413541663,67.0,67.0
897,207.87445481249998,208.89240597291666,60.0,55.0
898,207.87445481249998,208.98407887291665,75.0,73.0
899,207.87445481249998,209.0165463583333,72.0,69.0
900,208.79118381249998,209.2514581645833,70.0,95.0
901,209.2495483125,209.5608542020833,67.0,82.0
902,209.70791281249998,210.46612408958333,72.0,86.0
903,209.70791281249998,210.4718536458333,68.0,112.0
904,209.70791281249998,210.49286201874997,65.0,92.0
905,209.70791281249998,210.95504622291665,53.0,75.0
906,211.08300631249998,211.1536708395833,53.0,85.0
907,210.6246418125,211.1594003958333,72.0,107.0
908,210.6246418125,211.1632201,68.0,127.0
909,210.6246418125,211.18804817708332,65.0,117.0
910,211.54137081249996,211.89087374374998,74.0,127.0
911,211.54137081249996,212.06848998749996,65.0,102.0
912,211.54137081249996,212.07039983958333,70.0,127.0
913,212.2289175625,212.3053116458333,70.0,47.0
914,211.99973531249998,212.32441016666667,58.0,127.0
915,211.54137081249996,212.35305794791662,46.0,127.0
916,212.4580998125,212.6490850208333,58.0,127.0
917,212.4580998125,212.6720032458333,65.0,117.0
918,212.4580998125,212.76558599791665,46.0,107.0
919,212.4580998125,212.87635741875,74.0,127.0
920,212.4580998125,212.91455446041664,70.0,127.0
921,212.91646431249998,213.03105543749996,65.0,107.0
922,213.37482881249997,213.88284946666664,39.0,112.0
923,213.37482881249997,213.89048887499996,67.0,117.0
924,213.37482881249997,213.9210465083333,70.0,112.0
925,213.37482881249997,213.94587458541665,63.0,102.0
926,214.29155781249997,214.78429964999998,38.0,95.0
927,214.29155781249997,214.9237188520833,62.0,127.0
928,215.20828681249998,215.7201271708333,67.0,97.0
929,215.20828681249998,215.7716931770833,63.0,112.0
930,215.20828681249998,215.7831522895833,60.0,102.0
931,215.6666513125,216.2816236833333,48.0,70.0
932,216.12501581249998,216.38093599166666,60.0,102.0
933,215.20828681249998,216.40003451249999,36.0,85.0
934,216.35419806249996,216.50125667291664,48.0,81.0
935,216.12501581249998,216.56810149583333,63.0,127.0
936,216.12501581249998,216.5738310520833,67.0,100.0
937,216.58338031249997,216.6826926208333,60.0,89.0
938,217.04174481249999,217.59560191666662,60.0,127.0
939,217.04174481249999,217.63379895833333,56.0,117.0
940,217.04174481249999,217.76557875208331,63.0,122.0
941,217.04174481249999,218.22012354791664,51.0,100.0
942,217.95847381249996,218.36909201041664,60.0,127.0
943,217.95847381249996,218.39964964374997,63.0,127.0
944,217.95847381249996,218.43211712916664,56.0,127.0
945,217.04174481249999,218.47031417083332,44.0,102.0
946,218.41683831249998,218.52569988124998,51.0,58.0
947,218.8752028125,219.55702000624996,65.0,92.0
948,218.8752028125,219.57802837916665,62.0,112.0
949,218.8752028125,219.59521704791666,58.0,127.0
950,218.8752028125,220.10132784999996,46.0,112.0
951,219.79193181249997,220.30186231874998,65.0,93.0
952,219.79193181249997,220.33051009999997,62.0,107.0
953,220.25029631249998,220.3553381770833,46.0,102.0
954,219.79193181249997,220.35915788124998,58.0,127.0
955,220.70866081249997,221.24914895208332,65.0,92.0
956,220.70866081249997,221.27206717708333,62.0,97.0
957,220.70866081249997,221.27779673333333,55.0,102.0
958,220.70866081249997,221.44013416041665,58.0,127.0
959,221.16702531249996,221.6483080375,50.0,42.0
960,221.62538981249998,221.7648090145833,65.0,99.0
961,221.62538981249998,221.81064546458333,62.0,117.0
962,221.62538981249998,221.86985087916665,55.0,112.0
963,221.62538981249998,221.8794001395833,58.0,127.0
964,220.70866081249997,221.93287599791665,43.0,73.0
965,222.54211881249998,226.65594019999997,63.0,99.0
966,222.54211881249998,226.6635796083333,58.0,117.0
967,222.54211881249998,226.66548946041664,61.0,107.0
968,222.54211881249998,226.678858425,54.0,107.0
969,222.54211881249998,226.72660472708333,42.0,97.0
970,228.04249281249997,228.38435633541664,65.0,83.0
971,228.04249281249997,229.03370604375,68.0,93.0
972,228.04249281249997,229.42904542499997,72.0,81.0
973,228.95922181249998,229.50734936041664,67.0,79.0
974,228.04249281249997,229.84988966666666,53.0,72.0
975,229.41758631249996,229.85613966666668,68.0,55.0
976,228.5008573125,229.883223,60.0,51.0
977,229.901973,229.97280633333332,68.0,49.0
978,229.901973,233.43795793333334,70.0,72.0
979,229.901973,233.4417458125,74.0,73.0
980,229.901973,233.45121551041666,58.0,56.0
981,229.901973,233.47962460416667,65.0,70.0
982,236.017219625,238.746301225,55.0,38.0
983,236.46498062499998,238.793176225,58.0,65.0
984,235.56945862499998,238.81667572916666,51.0,68.0
985,237.53117103749997,238.85834239791666,67.0,37.0
986,237.53117103749997,238.90596144791667,70.0,38.0
987,237.13662212499997,238.9198503375,63.0,58.0
988,241.0896045375,241.90210446666669,75.0,61.0
989,241.6350590375,242.23864288333334,72.0,36.0
990,240.5642691625,242.4213351666667,68.0,60.0
991,240.0724656625,242.56316207083336,63.0,66.0
992,239.1103265375,242.64489282916668,56.0,93.0
993,239.5865170375,242.64970052083333,60.0,37.0
994,242.20018135,242.77710435,75.0,67.0
995,243.345950475,243.748450475,58.0,63.0
996,243.365950475,243.773450475,62.0,58.0
997,243.360950475,245.120950475,43.0,57.0
998,243.888450475,245.123450475,50.0,32.0
999,244.79345047500001,245.245950475,67.0,53.0
1000,244.468450475,245.338450475,55.0,45.0
1001,245.183450475,245.553450475,62.0,68.0
1002,245.878450475,247.048450475,49.0,47.0
1003,245.890950475,247.32345047500002,61.0,60.0
1004,245.508450475,247.35595047500001,67.0,41.0
1005,247.29095047500002,247.970950475,48.0,38.0
1006,247.265950475,248.653450475,60.0,48.0
1007,249.188450475,249.79345047500001,53.0,33.0
1008,249.300950475,250.248450475,62.0,39.0
1009,249.25845047500002,250.25845047500002,58.0,35.0
1010,249.243450475,250.338450475,46.0,27.0
1011,250.935950475,251.148450475,51.0,35.0
1012,251.048450475,251.520950475,55.0,34.0
1013,251.110950475,251.600950475,58.0,38.0
1014,251.94845047500002,252.318450475,55.0,55.0
1015,252.170950475,252.415950475,58.0,46.0
1016,252.410950475,252.450950475,63.0,34.0
1017,252.655950475,253.030950475,67.0,44.0
1018,252.920950475,253.250950475,70.0,54.0
1019,253.205950475,253.310950475,75.0,59.0
1020,253.578450475,254.550950475,79.0,37.0
1021,253.94845047500002,254.565950475,82.0,32.0
1022,254.413450475,254.583450475,87.0,38.0
1023,255.238450475,255.35595047500001,99.0,50.0
1024,251.113450475,255.988450475,39.0,77.0
1025,251.663450475,255.995950475,51.0,58.0
