,start,end,pitch,velocity
0,1.938354258333333,3.0359559187499996,73.0,90.0
1,3.0342435916666664,3.9999960666666663,70.0,76.0
2,3.8561605916666664,5.640405412499999,75.0,78.0
3,6.047939258333333,6.455473104166666,70.0,127.0
4,6.595883924999999,6.755130343749999,70.0,107.0
5,6.869856258333332,7.297938029166666,68.0,122.0
6,7.417800924999999,7.534239166666666,70.0,107.0
7,7.691773258333332,8.99999115,65.0,112.0
8,9.335607258333333,9.458894808333332,70.0,127.0
9,9.609579591666666,9.773962991666666,70.0,97.0
10,9.883551924999999,9.998277839583332,68.0,96.0
11,10.157524258333332,10.393825395833332,70.0,127.0
12,10.431496591666665,10.599304645833332,68.0,93.0
13,10.705468924999998,10.909235847916666,63.0,100.0
14,10.979441258333331,11.904097883333332,65.0,117.0
15,12.623275258333331,12.897247591666664,61.0,122.0
16,12.633549220833332,12.907521554166665,73.0,122.0
17,12.897247591666664,13.059918664583332,58.0,93.0
18,12.907521554166665,13.070192627083332,70.0,93.0
19,13.171219924999999,13.291082820833331,58.0,93.0
20,13.181493887499999,13.30135678333333,70.0,93.0
21,13.445192258333332,13.582178424999999,58.0,102.0
22,13.455466220833332,13.592452387499998,70.0,102.0
23,13.719164591666665,13.861287739583332,56.0,99.0
24,13.729438554166665,13.871561702083332,68.0,99.0
25,13.993136924999998,14.123273783333332,58.0,97.0
26,14.003410887499998,14.133547745833331,70.0,97.0
27,14.267109258333331,14.356150266666665,56.0,102.0
28,14.27738322083333,14.366424229166665,68.0,102.0
29,14.541081591666664,14.589026749999999,53.0,76.0
30,14.541081591666664,14.589026749999999,53.0,88.0
31,14.551355554166665,14.599300712499998,65.0,76.0
32,14.551355554166665,14.599300712499998,65.0,88.0
33,14.815053924999997,14.895533297916664,53.0,92.0
34,14.825327887499999,14.905807260416665,65.0,92.0
35,15.089026258333332,15.347587647916665,53.0,102.0
36,15.099300220833332,15.357861610416665,65.0,102.0
37,15.362998591666665,15.561628533333332,56.0,100.0
38,15.373272554166665,15.571902495833331,68.0,100.0
39,15.636970924999998,15.828751558333332,53.0,89.0
40,15.647244887499998,15.839025520833331,65.0,89.0
41,15.910943258333331,17.205462533333332,58.0,117.0
42,15.92121722083333,17.21573649583333,70.0,117.0
43,20.020528258333332,20.27224033958333,85.0,122.0
44,20.294500591666665,20.52908940208333,82.0,79.0
45,20.568472925,20.799637081249998,77.0,93.0
46,20.84244525833333,21.085595704166664,84.0,99.0
47,21.116417591666664,21.380115962499996,80.0,93.0
48,21.390389924999997,21.703745781249996,75.0,96.0
49,23.30819625833333,23.623264441666663,85.0,112.0
50,23.582168591666665,23.840729981249996,82.0,89.0
51,23.856140925,24.09415438958333,77.0,102.0
52,24.13011325833333,24.424633516666663,84.0,112.0
53,24.404085591666664,24.67463327083333,80.0,81.0
54,24.678057924999997,25.335591524999998,75.0,99.0
55,103.04955620208332,103.41599419791665,70.0,127.0
56,103.58037759791665,103.76873357708332,70.0,112.0
57,103.86119923958331,104.23791119791666,68.0,107.0
58,104.38859598124999,104.54784239999998,70.0,117.0
59,104.65743133333332,106.15400520416665,65.0,112.0
60,106.34064885624998,106.43482684583331,70.0,122.0
61,106.59064861041665,106.74304572083332,70.0,102.0
62,106.86462094374998,106.96736056874998,68.0,96.0
63,107.14030560416666,107.35777114374999,70.0,122.0
64,107.40057932083332,107.58722297291665,68.0,92.0
65,107.66770234583332,107.88688021249999,63.0,100.0
66,107.96393493124998,109.35263219583332,65.0,107.0
67,109.65742641666665,109.87660428333332,61.0,122.0
68,109.89715220833332,110.01872743124999,58.0,122.0
69,110.16941221458332,110.28756278333331,58.0,102.0
70,110.42626127708331,110.64201448958332,58.0,102.0
71,110.67968568541666,110.92283613124998,56.0,96.0
72,110.95879499999998,111.19852079166665,58.0,100.0
73,111.22934267916665,111.51358897499999,56.0,102.0
74,111.51016432083331,111.57009576874998,53.0,96.0
75,111.65742444999998,111.72249287916665,53.0,72.0
76,111.80468457916665,111.87831464374999,53.0,95.0
77,112.07009527708333,112.19851980833332,53.0,100.0
78,112.36461553541665,112.50160170208332,56.0,96.0
79,112.61290296249999,112.81324523124998,53.0,85.0
80,112.91256020208331,113.52557329791665,58.0,102.0
81,114.00160022708332,114.21050413124999,56.0,93.0
82,114.26529859791665,114.45365457708331,58.0,100.0
83,114.55125722083332,114.98961295416665,60.0,99.0
84,114.95536641249998,115.11461283124999,61.0,86.0
85,115.09920188749999,115.23618805416665,63.0,97.0
86,115.38173585624999,115.60776303124999,63.0,122.0
87,115.63687259166664,115.80468064583332,68.0,112.0
88,115.92796819583332,116.08036530624999,68.0,97.0
89,116.17796794999998,116.49646078749998,70.0,127.0
90,116.68310443958332,116.87659739999998,70.0,112.0
91,116.98961098749999,117.37659690833331,68.0,112.0
92,117.53070634583332,117.75673352083332,70.0,122.0
93,117.82351427708332,118.08378799374998,65.0,100.0
94,118.10604824583332,119.28926626041665,77.0,117.0
95,119.50844412708332,119.64371796666666,70.0,107.0
96,119.76871784374998,119.93995055208332,70.0,97.0
97,120.01700527083332,120.24474477291665,68.0,107.0
98,120.28412829583331,120.54268968541665,63.0,100.0
99,120.54611433958331,120.77042918749999,68.0,99.0
100,120.82008667291664,121.08207271666664,63.0,112.0
101,121.09063435208331,121.59234618749998,65.0,100.0
102,121.73446933541665,122.51700281249998,58.0,99.0
103,122.79268747291665,123.03070093749999,61.0,122.0
104,123.03583791874999,123.18481037499998,58.0,93.0
105,123.31837188749998,123.44679641874998,58.0,102.0
106,123.57179629583332,123.79439881666666,58.0,97.0
107,123.82693303124998,124.08206976666665,56.0,90.0
108,124.11460398124999,124.36289140833331,58.0,96.0
109,124.39200096874998,124.66597330208332,56.0,102.0
110,124.66939795624998,124.73960336666666,53.0,99.0
111,124.80638412291665,124.87658953333332,53.0,66.0
112,124.95193192499998,125.04782224166665,53.0,95.0
113,125.20364400624999,125.59405458124998,53.0,96.0
114,125.48960262916665,125.73446540208332,56.0,93.0
115,125.75843798124998,125.99473911874999,53.0,92.0
116,126.05124591249998,127.37658707499999,58.0,112.0
117,127.40569663541665,127.69336758541665,58.0,100.0
118,127.71734016458332,129.43994121041666,56.0,107.0
119,168.8183271458333,168.91935444374997,70.0,88.0
120,168.8217518,168.9210667708333,65.0,79.0
121,169.0494913020833,169.15051859999997,70.0,79.0
122,169.04777897499997,169.1573679083333,65.0,76.0
123,169.32346363541666,169.41250464374997,68.0,77.0
124,169.32003898124998,169.4193539520833,63.0,82.0
125,169.60770993124999,169.69503861249999,70.0,86.0
126,169.6042852770833,169.70531257499997,65.0,81.0
127,169.86798364791665,169.95531232916665,70.0,79.0
128,169.8662713208333,169.96044931041664,65.0,76.0
129,170.13339434583332,170.21729837291664,68.0,76.0
130,170.13168201874998,170.2258600083333,63.0,86.0
131,170.41935296875,170.6813390125,65.0,90.0
132,170.4210652958333,170.68647599374998,70.0,93.0
133,177.79605804374998,177.97927704166665,89.0,117.0
134,177.93989351874998,178.08201666666665,85.0,90.0
135,178.07516735833332,178.19160559999997,82.0,92.0
136,178.23098912291664,178.37482459791664,85.0,99.0
137,178.3474273645833,178.48270120416663,82.0,82.0
138,178.5169477458333,178.61455038958331,77.0,102.0
139,184.68817455416664,184.8765305333333,77.0,100.0
140,184.82687304791665,185.05461254999997,82.0,92.0
141,184.95358525208331,185.15735217499997,84.0,83.0
142,185.05974953124996,185.25837947291663,85.0,77.0
143,185.20358500624997,185.40050262083332,89.0,117.0
