,start,end,pitch,velocity
0,24.95203025833333,25.448605112499997,68.0,102.0
1,25.77394725833333,26.063330535416664,70.0,127.0
2,26.198604374999995,26.63696010833333,65.0,97.0
3,28.23456127708333,28.744834747916663,65.0,99.0
4,28.840725064583328,29.065039912499998,63.0,97.0
5,29.06161525833333,29.38182042291666,65.0,95.0
6,29.47428608541666,30.398942710416662,61.0,96.0
7,31.52736625833333,32.02565343958333,56.0,93.0
8,32.075310925,32.414351687499995,58.0,74.0
9,32.34928325833333,32.748255468749996,68.0,93.0
10,32.897227924999996,34.08558292083333,65.0,99.0
11,34.541061924999994,34.72941790416666,65.0,96.0
12,34.81503425833333,35.191746216666665,68.0,92.0
13,35.36297892499999,35.505102072916664,65.0,99.0
14,35.636951258333326,36.0513344125,61.0,96.0
15,36.18489592499999,37.23968940833333,58.0,102.0
16,38.92461925833333,39.268797002083325,70.0,112.0
17,39.472563924999996,39.62667336249999,70.0,102.0
18,39.74653625833333,40.09242632916666,68.0,102.0
19,40.294480924999995,40.41948080208333,70.0,102.0
20,40.573590239583325,41.450301706249995,65.0,100.0
21,42.18831467916666,42.27393103333333,70.0,112.0
22,42.47598562916666,42.58214990833333,70.0,100.0
23,42.75851959791666,42.86125922291666,68.0,100.0
24,43.03249193124999,43.27393005,70.0,107.0
25,43.315025899999995,43.42975181458333,68.0,99.0
26,43.58043659791666,43.8081761,63.0,100.0
27,43.86297056666666,44.70886014583333,65.0,112.0
28,45.49310594999999,45.81331111458333,63.0,102.0
29,46.01022872916666,46.13694093333333,61.0,93.0
30,46.309885968749995,46.63009113333333,63.0,102.0
31,46.83557038333333,46.967419568749996,61.0,99.0
32,47.14036460416666,47.236254920833325,63.0,107.0
33,47.41604926458333,47.50680259999999,63.0,102.0
34,47.68488461666666,47.81844612916666,61.0,97.0
35,47.95885694999999,48.05645959374999,63.0,102.0
36,48.236253937499995,48.330431927083325,63.0,107.0
37,48.505089289583324,48.595842624999996,65.0,97.0
38,48.813308164583326,49.039335339583324,63.0,122.0
39,49.09070515208332,49.17632150624999,63.0,122.0
40,49.347554214583326,49.443444531249995,61.0,93.0
41,49.61467723958333,49.70200592083333,63.0,112.0
42,49.88351259166666,49.977690581249995,63.0,102.0
43,50.162621906249996,50.26878618541666,61.0,95.0
44,50.431457258333324,50.791045945833325,65.0,127.0
45,51.52734659166666,51.97940094166666,68.0,117.0
46,52.07529125833333,52.34412661041666,70.0,122.0
47,52.52392095416666,52.74138649374999,65.0,102.0
48,52.746523475,52.917756183333324,63.0,97.0
49,52.99481090208332,53.44001594374999,65.0,102.0
50,54.54789156666666,54.84583647916666,65.0,97.0
51,54.85611044166666,55.193438877083324,63.0,122.0
52,55.362959258333326,55.667753479166656,65.0,100.0
53,55.63693159166666,56.770492120833325,61.0,112.0
54,57.84412120208333,58.25850435624999,56.0,99.0
55,58.35781932708333,58.50336712916666,58.0,102.0
56,58.679736818749994,59.15576374791666,68.0,102.0
57,59.16775003749999,60.299598239583325,65.0,117.0
58,60.823570327083324,60.94172089583333,65.0,95.0
59,61.09925498749999,61.39719989999999,68.0,107.0
60,61.63178871041666,61.787610474999994,63.0,97.0
61,61.93315827708332,62.390349608333324,61.0,99.0
62,62.40233589791666,63.91089605833332,58.0,92.0
63,65.24308652916666,65.55301773125,70.0,127.0
64,65.74651069166666,65.92801736249999,70.0,117.0
65,66.03760629583333,66.40918127291665,68.0,127.0
66,66.54787976666665,66.69685222291666,70.0,122.0
67,66.84411235208333,67.7978785375,65.0,112.0
68,68.51363125833332,68.5992476125,70.0,112.0
69,68.773904975,68.89034321666665,70.0,102.0
70,69.04445265416666,69.13863064374999,68.0,102.0
71,69.32527429583332,69.48623304166665,70.0,122.0
72,69.60438361041666,69.68486298333332,68.0,102.0
73,69.86636965416666,69.99479418541665,63.0,99.0
74,70.13862966041665,71.03075207083333,65.0,122.0
75,71.80643623958332,72.09239486249999,63.0,107.0
76,72.30643574791665,72.46739449374999,61.0,100.0
77,72.60438066041665,72.90403789999999,63.0,117.0
78,73.16088696249999,73.29787312916666,61.0,97.0
79,73.46396885624999,73.57013313541665,63.0,107.0
80,73.72766722708333,73.83383150625,63.0,99.0
81,73.99992723333332,74.09581754999999,61.0,97.0
82,74.27218723958332,74.43828296666666,63.0,122.0
83,74.52218699374998,74.60780334791666,63.0,107.0
84,74.78588536458332,74.88348800833333,65.0,99.0
85,75.07355631458333,75.16088499583333,63.0,107.0
86,75.36293959166666,75.43828198333333,63.0,96.0
87,75.62663796249998,75.72252827916665,61.0,97.0
88,75.90232262291666,75.98965130416666,63.0,127.0
89,76.17629495624999,76.31156879583332,63.0,99.0
90,76.44684263541666,76.54615760624999,65.0,112.0
91,76.72252729583332,76.81499295833332,70.0,127.0
92,76.99478730208332,77.15917070208333,70.0,127.0
93,78.37321060416666,78.49649815416666,73.0,127.0
94,78.64375828333333,78.73108696458333,70.0,99.0
95,78.91088130833332,78.99649766249999,70.0,107.0
96,79.19341527708332,79.27903163124999,70.0,117.0
97,79.45197666666665,79.53930534791665,68.0,92.0
98,79.73451063541665,79.81327768124999,70.0,99.0
99,80.00334598749998,80.07868837916665,68.0,127.0
100,80.27389366666665,80.36464700208332,65.0,96.0
101,80.55642763541665,80.64204398958333,65.0,102.0
102,80.82868764166666,81.07868739583333,65.0,112.0
103,81.13519418958332,81.23793381458333,63.0,107.0
104,81.39375557916665,81.49649520416665,65.0,100.0
105,81.66601558541666,81.86122087291666,68.0,112.0
106,81.9451249,82.03245358125,68.0,127.0
107,82.20711094375,82.31156289583332,65.0,102.0
108,82.47423396874999,82.57012428541665,63.0,102.0
109,82.75334328333332,82.86293221666665,63.0,117.0
110,83.04101423333333,83.13861687708332,68.0,112.0
111,83.31669889374999,83.40402757499999,65.0,107.0
112,83.58724657291665,83.66601361874999,65.0,102.0
113,83.85779425208332,83.95368456874999,63.0,102.0
114,84.14717752916665,84.36121841458332,65.0,127.0
115,84.96395754791665,85.07012182708333,73.0,127.0
116,85.23279289999999,85.31669692708333,70.0,102.0
117,85.50162825208332,85.58895693333332,70.0,107.0
118,85.77046360416665,85.84580599583332,70.0,112.0
119,86.02560033958332,86.11292902083332,68.0,102.0
120,86.30299732708332,86.38347669999999,70.0,112.0
121,86.57868198749999,86.65231205208332,68.0,122.0
122,86.83724337708333,86.92970903958332,65.0,97.0
123,87.11292803749998,87.19854439166666,65.0,97.0
124,87.39717433333333,87.54957144374998,65.0,112.0
125,87.67114666666666,87.79957119791665,63.0,97.0
126,87.93484503749998,88.04614629791665,65.0,97.0
127,88.21566667916666,88.335529575,68.0,107.0
128,88.50162530208333,88.60950190833333,68.0,102.0
129,88.76018669166666,88.87491260624999,65.0,102.0
130,89.04443298749999,89.16772053749999,63.0,112.0
131,89.32011764791666,89.48107639374999,63.0,107.0
132,89.58381601874999,89.69340495208333,68.0,100.0
133,89.85093904374999,89.95025401458332,70.0,127.0
134,90.12833603124999,90.22422634791666,70.0,117.0
135,90.40230836458332,90.47765075624999,68.0,112.0
136,90.67970535208332,90.78073264999999,70.0,127.0
137,92.33210098749998,92.84066213124999,58.0,107.0
138,92.89545659791665,93.07182628749999,61.0,112.0
139,93.20881245416665,93.70709963541665,65.0,107.0
140,93.68312705624999,95.30298847708332,63.0,96.0
141,95.57011150208332,96.05983704791666,65.0,100.0
142,96.12833013124998,96.36976824999999,68.0,102.0
143,96.45880925833332,96.96052109374999,73.0,112.0
144,96.93997316874999,98.06497206249999,70.0,107.0
145,98.08723231458332,98.43141005833333,70.0,122.0
146,98.50675245,98.82182063333332,68.0,112.0
147,98.92627258541665,99.21565586249999,72.0,117.0
148,99.32866944999999,99.65572392291665,68.0,112.0
149,99.76360052916665,102.21222825833333,70.0,122.0
150,128.78754459166666,129.23959894166666,68.0,117.0
151,129.33548925833333,129.60432461041665,70.0,122.0
152,129.883433925,130.12144738958332,65.0,102.0
153,130.10603644583333,130.3046663875,63.0,97.0
154,130.3046663875,130.8098028770833,65.0,102.0
155,131.79267862291664,132.08891120833331,65.0,122.0
156,132.15226731041665,132.47760945624998,63.0,97.0
157,132.62315725833332,132.92795147916664,65.0,100.0
158,132.98445827291664,134.03069012083333,61.0,112.0
159,135.1043192020833,135.51870235624997,56.0,99.0
160,135.61801732708332,135.76356512916664,58.0,102.0
161,135.93993481874998,136.41596174791664,68.0,102.0
162,136.4279480375,137.5597962395833,65.0,117.0
163,138.0837683270833,138.2019188958333,65.0,95.0
164,138.3594529875,138.65739789999998,68.0,107.0
165,138.89198671041666,139.04780847499998,63.0,97.0
166,139.19335627708332,139.6505476083333,61.0,99.0
167,139.66253389791666,141.17109405833332,58.0,92.0
168,142.50328452916665,142.81321573124998,70.0,127.0
169,143.00670869166666,143.1882153625,70.0,117.0
170,143.29780429583332,143.66937927291664,68.0,127.0
171,143.80807776666666,143.95705022291665,70.0,122.0
172,144.1043103520833,145.05807653749997,65.0,112.0
173,145.7738292583333,145.85944561249997,70.0,112.0
174,146.03410297499997,146.15054121666665,70.0,102.0
175,146.30465065416664,146.39882864375,68.0,102.0
176,146.5854722958333,146.74643104166665,70.0,122.0
177,146.86458161041665,146.94506098333332,68.0,102.0
178,147.12656765416665,147.25499218541665,63.0,99.0
179,147.39882766041666,148.2909500708333,65.0,122.0
180,149.06663423958332,149.3525928625,63.0,107.0
181,149.56663374791665,149.72759249374997,61.0,100.0
182,149.86457866041664,150.1642359,63.0,117.0
183,150.42108496249998,150.55807112916665,61.0,97.0
184,150.72416685624998,150.83033113541666,63.0,107.0
185,150.98786522708332,151.09402950624997,63.0,99.0
186,151.26012523333333,151.35601554999997,61.0,97.0
187,151.5323852395833,151.69848096666664,63.0,122.0
188,151.78238499375,151.86800134791665,63.0,107.0
189,152.04608336458332,152.1436860083333,65.0,99.0
190,152.3337543145833,152.4210829958333,63.0,107.0
191,152.62313759166665,152.6984799833333,63.0,96.0
192,152.8868359625,152.98272627916666,61.0,97.0
193,153.16252062291665,153.24984930416664,63.0,127.0
194,153.43649295625,153.57176679583333,63.0,99.0
195,153.70704063541663,153.80635560624998,65.0,112.0
196,153.98272529583332,154.0751909583333,70.0,127.0
197,154.25498530208333,154.41936870208332,70.0,127.0
198,155.63683325833333,155.7601208083333,73.0,127.0
199,155.90395628333332,155.99128496458331,70.0,99.0
200,156.1710793083333,156.2566956625,70.0,107.0
201,156.45361327708332,156.53922963124998,70.0,117.0
202,156.71217466666664,156.79950334791664,68.0,92.0
203,156.99470863541666,157.07347568125,70.0,99.0
204,157.2635439875,157.33888637916664,68.0,127.0
205,157.53409166666665,157.6248450020833,65.0,96.0
206,157.81662563541664,157.9022419895833,65.0,102.0
207,158.08888564166665,158.3388853958333,65.0,112.0
208,158.3953921895833,158.4981318145833,63.0,107.0
209,158.65395357916665,158.75669320416665,65.0,100.0
210,158.92621358541663,159.12141887291665,68.0,112.0
211,159.20532289999997,159.29265158124997,68.0,127.0
212,159.46730894374997,159.5717608958333,65.0,102.0
213,159.73443196875,159.83032228541666,63.0,102.0
214,160.01354128333332,160.12313021666665,63.0,117.0
215,160.3012122333333,160.3988148770833,68.0,112.0
216,160.57689689375,160.664225575,65.0,107.0
217,160.84744457291666,160.92621161875,65.0,102.0
218,161.11799225208333,161.21388256874997,63.0,102.0
219,161.40737552916664,161.6214164145833,65.0,127.0
220,162.22415554791664,162.33031982708331,73.0,127.0
221,162.49299089999997,162.57689492708332,70.0,102.0
222,162.76182625208332,162.84915493333332,70.0,107.0
223,163.03066160416665,163.1060039958333,70.0,112.0
224,163.28579833958332,163.37312702083332,68.0,102.0
225,163.56319532708332,163.6436747,70.0,112.0
226,163.83887998749998,163.91251005208332,68.0,122.0
227,164.0974413770833,164.18990703958332,65.0,97.0
228,164.3731260375,164.45874239166665,65.0,97.0
229,164.6573723333333,164.80976944374999,65.0,112.0
230,164.93134466666663,165.05976919791664,63.0,97.0
231,165.19504303749997,165.30634429791664,65.0,97.0
232,165.47586467916665,165.59572757499998,68.0,107.0
233,165.76182330208331,165.8696999083333,68.0,102.0
234,166.02038469166664,166.13511060624998,65.0,102.0
235,166.3046309875,166.42791853749998,63.0,112.0
236,166.58031564791665,166.74127439375,63.0,107.0
237,166.84401401875,166.95360295208332,68.0,100.0
238,167.11113704374998,167.21045201458332,70.0,127.0
239,167.38853403124997,167.48442434791664,70.0,117.0
240,167.66250636458332,167.73784875624997,68.0,112.0
241,167.93990335208332,168.04093064999998,70.0,127.0
242,168.79949154791663,168.88853255624997,70.0,117.0
243,169.0375050125,169.13510765624997,70.0,95.0
244,169.30634036458332,169.38510741041665,68.0,102.0
245,169.57003873541663,169.6659290520833,70.0,117.0
246,169.84229874166664,169.93990138541665,70.0,102.0
247,170.11969572916664,170.20702441041664,68.0,102.0
248,170.39880504374997,170.70531159166666,70.0,127.0
249,172.0751732583333,172.19846080833332,73.0,127.0
250,172.3422962833333,172.4296249645833,70.0,99.0
251,172.60941930833332,172.69503566249998,70.0,107.0
252,172.8919532770833,172.97756963124996,70.0,117.0
253,173.15051466666665,173.23784334791665,68.0,92.0
254,173.43304863541664,173.51181568124997,70.0,99.0
255,173.70188398749997,173.77722637916665,68.0,127.0
256,173.97243166666664,174.06318500208332,65.0,96.0
257,174.25496563541665,174.3405819895833,65.0,102.0
258,174.52722564166663,174.7772253958333,65.0,112.0
259,174.83373218958332,174.9364718145833,63.0,107.0
260,175.09229357916664,175.19503320416663,65.0,100.0
261,175.36455358541664,175.55975887291663,68.0,112.0
262,175.64366289999998,175.73099158124998,68.0,127.0
263,175.90564894374998,176.01010089583332,65.0,102.0
264,176.17277196874997,176.26866228541664,63.0,102.0
265,176.4518812833333,176.56147021666663,63.0,117.0
266,176.7395522333333,176.83715487708332,68.0,112.0
267,177.01523689374997,177.10256557499997,65.0,107.0
268,177.28578457291664,177.36455161874997,65.0,102.0
269,177.5563322520833,177.65222256874998,63.0,102.0
270,177.84571552916665,178.05975641458332,65.0,127.0
271,178.66249554791665,178.7686598270833,73.0,127.0
272,178.93133089999998,179.0152349270833,70.0,102.0
273,179.2001662520833,179.2874949333333,70.0,107.0
274,179.46900160416664,179.54434399583332,70.0,112.0
275,179.7241383395833,179.8114670208333,68.0,102.0
276,180.0015353270833,180.08201469999997,70.0,112.0
277,180.2772199875,180.3508500520833,68.0,122.0
278,180.5357813770833,180.6282470395833,65.0,97.0
279,180.81146603749997,180.89708239166663,65.0,97.0
280,181.0957123333333,181.24810944374997,65.0,112.0
281,181.36968466666664,181.49810919791665,63.0,97.0
282,181.63338303749998,181.74468429791665,65.0,97.0
283,181.91420467916663,182.03406757499997,68.0,107.0
284,182.2001633020833,182.3080399083333,68.0,102.0
285,182.45872469166665,182.57345060624996,65.0,102.0
286,182.74297098749997,182.8662585375,63.0,112.0
287,183.01865564791663,183.17961439374997,63.0,107.0
288,183.28235401874997,183.3919429520833,68.0,100.0
289,183.54947704375,183.6487920145833,70.0,127.0
290,183.82687403125,183.92276434791665,70.0,117.0
291,184.1008463645833,184.17618875624999,68.0,112.0
292,184.3782433520833,184.47927065,70.0,127.0
293,185.22584525833332,185.3491328083333,73.0,127.0
294,185.4929682833333,185.5802969645833,70.0,99.0
295,185.7600913083333,185.84570766249996,70.0,107.0
296,186.04262527708332,186.12824163124998,70.0,117.0
297,186.30118666666664,186.38851534791664,68.0,92.0
298,186.58372063541665,186.66248768124998,70.0,99.0
299,186.85255598749998,186.92789837916663,68.0,127.0
300,187.12310366666665,187.2138570020833,65.0,96.0
301,187.40563763541664,187.4912539895833,65.0,102.0
302,187.67789764166665,187.9278973958333,65.0,112.0
303,187.9844041895833,188.0871438145833,63.0,107.0
304,188.24296557916665,188.34570520416665,65.0,100.0
305,188.51522558541663,188.71043087291665,68.0,112.0
306,188.79433489999997,188.88166358124997,68.0,127.0
307,189.05632094374997,189.1607728958333,65.0,102.0
308,189.32344396874998,189.41933428541665,63.0,102.0
309,189.60255328333332,189.71214221666665,63.0,117.0
310,189.8902242333333,189.9878268770833,68.0,112.0
311,190.16590889375,190.25323757499999,65.0,107.0
312,190.43645657291665,190.51522361874999,65.0,102.0
313,190.7070042520833,190.80289456874996,63.0,102.0
314,190.99638752916664,191.2104284145833,65.0,127.0
315,191.81316754791663,191.9193318270833,73.0,127.0
316,192.08200289999996,192.1659069270833,70.0,102.0
317,192.35083825208332,192.43816693333332,70.0,107.0
318,192.61967360416665,192.6950159958333,70.0,112.0
319,192.87481033958332,192.96213902083332,68.0,102.0
320,193.15220732708332,193.2326867,70.0,112.0
321,193.42789198749998,193.50152205208332,68.0,122.0
322,193.6864533770833,193.77891903958331,65.0,97.0
323,193.96213803749998,194.04775439166664,65.0,97.0
324,194.2463843333333,194.39878144374998,65.0,112.0
325,194.52035666666663,194.64878119791663,63.0,97.0
326,194.78405503749997,194.89535629791663,65.0,97.0
327,195.06487667916664,195.18473957499998,68.0,107.0
328,195.3508353020833,195.4587119083333,68.0,102.0
329,195.60939669166663,195.72412260624998,65.0,102.0
330,195.8936429875,196.01693053749997,63.0,112.0
331,196.16932764791665,196.33028639375,63.0,107.0
332,196.43302601874998,196.5426149520833,68.0,100.0
333,196.70014904374997,196.7994640145833,70.0,127.0
334,196.97754603124997,197.07343634791664,70.0,117.0
335,197.25151836458332,197.32686075624997,68.0,112.0
336,197.52891535208332,197.62994264999998,70.0,127.0
337,197.80288768541664,197.89364102083331,70.0,117.0
338,198.07686001874998,198.16247637291664,68.0,102.0
339,198.35425700624998,198.44329801458332,70.0,127.0
340,198.62994166666664,198.72754431041665,70.0,112.0
341,198.91418796249997,198.9929550083333,68.0,107.0
342,199.2035712395833,199.2908999208333,70.0,122.0
343,199.47240659166664,199.58199552499997,70.0,99.0
344,199.73781728958332,199.8200089895833,68.0,117.0
345,200.01350194999998,200.21898119999997,70.0,127.0
