,start,end,pitch,velocity
0,6.047939258333333,6.765404306249999,42.0,86.0
1,6.595883924999999,6.869856258333332,58.0,102.0
2,6.321911591666666,6.876705566666666,49.0,81.0
3,6.869856258333332,7.580471997916666,44.0,93.0
4,7.143828591666666,7.607869231249999,56.0,86.0
5,7.417800924999999,7.710608856249999,63.0,102.0
6,8.239717924999999,8.594169631249999,58.0,100.0
7,7.965745591666666,8.916087122916666,53.0,97.0
8,7.691773258333332,8.960607627083332,46.0,95.0
9,8.787662591666665,9.092456812499998,61.0,112.0
10,9.061634924999998,9.253415558333332,58.0,99.0
11,8.513690258333332,9.29279908125,65.0,127.0
12,9.198621091666665,9.342456566666666,61.0,86.0
13,9.746565758333332,9.958894316666665,54.0,97.0
14,9.335607258333333,10.011976456249998,42.0,86.0
15,9.883551924999999,10.029099727083333,58.0,86.0
16,9.609579591666666,10.102729791666665,49.0,93.0
17,10.020538091666666,10.178072183333333,61.0,79.0
18,10.157524258333332,10.842455091666665,44.0,97.0
19,10.705468924999998,10.976016604166665,56.0,77.0
20,10.431496591666665,11.006838491666665,51.0,63.0
21,11.390399758333333,11.666084418749998,58.0,86.0
22,11.527385924999999,11.792796622916665,61.0,83.0
23,11.253413591666666,11.904097883333332,53.0,81.0
24,10.979441258333331,12.155809964583332,46.0,89.0
25,12.075330591666665,12.491426072916665,61.0,107.0
26,11.801358258333332,12.571905445833332,65.0,100.0
27,12.349302924999998,12.712316266666665,58.0,92.0
28,13.171219924999999,13.539370247916665,51.0,92.0
29,13.719164591666665,13.849301449999999,51.0,93.0
30,12.623275258333331,14.164369633333331,39.0,89.0
31,12.897247591666664,14.203753156249999,46.0,73.0
32,13.445192258333332,14.217451772916665,63.0,99.0
33,13.445192258333332,14.251698314583331,66.0,112.0
34,13.993136924999998,14.299643472916665,58.0,95.0
35,14.815053924999997,15.183204247916665,53.0,92.0
36,15.362998591666665,15.476012179166664,53.0,93.0
37,14.267109258333331,15.777381745833331,41.0,92.0
38,15.089026258333332,15.869847408333332,60.0,107.0
39,14.541081591666664,15.885258352083332,48.0,66.0
40,15.089026258333332,15.886970679166664,65.0,102.0
41,15.636970924999998,15.900669295833332,56.0,95.0
42,16.458887925,16.842449191666663,54.0,90.0
43,17.006832591666665,17.222585804166663,54.0,82.0
44,16.732860258333332,17.419503418749997,58.0,99.0
45,15.910943258333331,17.448612979166665,42.0,93.0
46,16.184915591666666,17.54964027708333,49.0,67.0
47,17.280804924999998,17.60101008958333,61.0,95.0
48,17.55477725833333,19.0582004375,44.0,100.0
49,17.828749591666664,19.176351006249998,51.0,75.0
50,18.37669425833333,19.191761949999997,60.0,69.0
51,18.37669425833333,19.193474277083332,63.0,70.0
52,18.102721924999997,19.20717289375,56.0,82.0
53,19.472583591666663,20.22087052708333,53.0,35.0
54,19.19861125833333,20.77052752083333,46.0,90.0
55,20.294500591666665,20.871554818749996,53.0,54.0
56,20.020528258333332,21.542787035416662,65.0,89.0
57,20.568472925,21.55648565208333,61.0,55.0
58,19.746555925,21.57703357708333,58.0,52.0
59,20.84244525833333,22.390388941666664,46.0,63.0
60,21.390389924999997,22.49484089375,53.0,53.0
61,21.66436225833333,23.15408682083333,65.0,89.0
62,21.66436225833333,23.162648456249997,61.0,90.0
63,23.034223924999996,23.424634499999996,58.0,60.0
64,22.48627925833333,24.044496904166664,46.0,79.0
65,22.760251591666663,24.19689401458333,53.0,66.0
66,23.30819625833333,24.881824847916665,65.0,71.0
67,24.13011325833333,25.38353668333333,46.0,59.0
68,24.95203025833333,25.83216637916666,61.0,72.0
69,24.95203025833333,25.84072801458333,65.0,65.0
70,26.321891924999996,27.333877231249996,49.0,63.0
71,25.77394725833333,27.37154842708333,37.0,86.0
72,26.047919591666663,27.400657987499997,44.0,46.0
73,27.143808924999995,27.570178368749996,61.0,50.0
74,26.59586425833333,27.619835854166663,65.0,92.0
75,27.965725924999997,28.31675297708333,60.0,66.0
76,27.691753591666664,28.386958387499995,56.0,75.0
77,27.41778125833333,28.60956090833333,48.0,71.0
78,28.23969825833333,29.08730016458333,63.0,93.0
79,28.513670591666664,29.090724818749997,56.0,63.0
80,28.787642924999997,29.094149472916662,60.0,52.0
81,29.609559924999996,30.154079937499997,53.0,55.0
82,29.06161525833333,30.56846309166666,46.0,76.0
83,30.431476924999995,31.169489897916662,58.0,66.0
84,29.88353225833333,31.30647606458333,61.0,73.0
85,29.88353225833333,31.30647606458333,65.0,79.0
86,30.705449258333328,32.24483130625,46.0,77.0
87,30.97942159166666,32.30818740833333,53.0,40.0
88,31.253393924999997,32.34928325833333,58.0,61.0
89,32.075310925,32.34928325833333,61.0,50.0
90,31.52736625833333,32.34928325833333,65.0,95.0
91,32.34928325833333,33.43661095624999,37.0,86.0
92,32.897227924999996,33.48969309583333,49.0,92.0
93,32.62325559166666,33.50681636666666,44.0,46.0
94,33.17120025833333,33.94517209999999,65.0,96.0
95,33.44517259166666,33.97085700624999,61.0,72.0
96,33.719144924999995,34.03078845416666,56.0,72.0
97,33.99311725833333,35.06160935833333,41.0,81.0
98,34.541061924999994,35.18832156249999,48.0,55.0
99,35.36297892499999,35.63010195,56.0,63.0
100,34.81503425833333,35.63010195,60.0,76.0
101,34.81503425833333,35.65064987499999,65.0,79.0
102,36.18489592499999,36.62838863958333,53.0,51.0
103,35.636951258333326,37.17462097916666,46.0,82.0
104,36.73284059166666,37.27222362291666,53.0,56.0
105,36.458868258333325,37.95886678333333,61.0,86.0
106,37.006812925,38.01366125,58.0,56.0
107,37.828729925,38.210578864583326,53.0,37.0
108,37.28078525833333,38.362975975,46.0,60.0
109,38.10270225833333,38.88009875416666,65.0,107.0
110,38.376674591666664,38.90578366041666,61.0,77.0
111,38.650646925,38.93660554791666,58.0,74.0
112,38.92461925833333,39.62667336249999,42.0,81.0
113,39.472563924999996,39.741399277083325,61.0,96.0
114,39.19859159166666,39.74653625833333,54.0,65.0
115,39.74653625833333,40.41605614791666,44.0,73.0
116,40.02050859166666,40.53763137083333,56.0,74.0
117,40.294480924999995,40.57187791249999,63.0,90.0
118,40.84242559166666,41.37838396874999,53.0,54.0
119,40.56845325833333,41.503383845833326,46.0,79.0
120,41.39037025833333,42.17975304375,65.0,96.0
121,41.93831492499999,42.19173933333333,61.0,45.0
122,41.116397924999994,42.24482147291666,58.0,72.0
123,42.48625959166666,42.90577972708333,54.0,55.0
124,42.212287258333326,42.921190670833326,42.0,74.0
125,42.76023192499999,43.04105356666666,58.0,74.0
126,43.034204258333325,43.710573456249996,44.0,75.0
127,43.58214892499999,43.86810754791666,63.0,93.0
128,43.30817659166666,43.874956856249995,56.0,67.0
129,44.13009359166666,44.63180542708333,53.0,40.0
130,43.856121258333324,44.794476499999995,46.0,73.0
131,44.67803825833333,45.43146217499999,65.0,86.0
132,45.225982925,45.4622840625,61.0,55.0
133,44.404065925,45.53420179999999,58.0,73.0
134,46.047899924999996,46.39892697708333,51.0,54.0
135,45.49995525833333,46.68146094583333,39.0,72.0
136,46.59584459166666,47.07529617499999,63.0,58.0
137,45.77392759166666,47.09241944583333,46.0,54.0
138,46.32187225833333,47.10783038958333,66.0,100.0
139,46.869816924999995,47.15063856666666,58.0,73.0
140,47.691733924999994,48.032487014583324,53.0,75.0
141,47.41776159166666,48.14378827499999,48.0,48.0
142,47.14378925833333,48.67460967083333,41.0,63.0
143,48.51365092499999,48.74823973541666,56.0,90.0
144,48.23967859166666,48.767075333333324,48.0,65.0
145,47.96570625833333,48.77221231458333,65.0,97.0
146,49.33556792499999,49.71741686458333,54.0,83.0
147,49.609540258333325,49.96056731041666,58.0,95.0
148,49.88351259166666,50.056457627083326,54.0,112.0
149,49.609540258333325,50.15063561666666,66.0,92.0
150,49.609540258333325,50.16775888749999,61.0,95.0
151,48.787623258333326,50.29447109166666,42.0,79.0
152,50.15748492499999,50.308169708333324,58.0,107.0
153,49.06159559166666,50.38179977291666,49.0,52.0
154,50.44515587499999,50.590703677083326,44.0,69.0
155,50.43830656666666,50.599265312499995,51.0,79.0
156,50.45371751041666,50.60097763958333,68.0,100.0
157,50.441731220833326,50.60268996666666,56.0,93.0
158,50.450292856249995,50.606114620833324,63.0,102.0
159,50.45542983749999,50.61296392916666,72.0,97.0
160,50.71056657291666,50.88008695416666,51.0,79.0
161,50.70542959166666,50.89036091666666,44.0,69.0
162,50.713991227083326,50.90234720624999,68.0,93.0
163,50.713991227083326,50.904059533333324,56.0,100.0
164,50.712278899999994,50.90577186041666,63.0,92.0
165,50.70714191874999,50.92631978541666,72.0,79.0
166,52.07529125833333,52.81844121249999,49.0,96.0
167,52.34926359166666,52.90748222083332,56.0,72.0
168,52.623235924999996,53.17802989999999,65.0,93.0
169,53.17118059166666,53.53590626041666,60.0,82.0
170,52.89720825833333,53.645495193749994,48.0,93.0
171,53.445152924999995,53.77220739791666,65.0,82.0
172,53.71912525833333,54.44857659583332,46.0,82.0
173,54.267069924999994,54.52220666041666,65.0,93.0
174,53.99309759166666,54.592412070833326,58.0,70.0
175,54.54104225833333,55.284192212499995,44.0,85.0
176,54.81501459166666,55.31501409999999,56.0,68.0
177,55.08898692499999,55.361246931249994,63.0,93.0
178,55.362959258333326,56.885218035416656,46.0,86.0
179,55.63693159166666,56.998231622916656,53.0,58.0
180,55.91090392499999,57.66261453124999,58.0,65.0
181,56.73282092499999,57.67631314791666,61.0,52.0
182,56.184876258333325,57.72768296041666,65.0,96.0
183,57.55473792499999,57.962271770833325,53.0,59.0
184,58.10268259166666,58.22083316041666,53.0,76.0
185,57.006793258333325,58.260216683333326,46.0,77.0
186,58.37665492499999,58.63350398749999,58.0,88.0
187,57.828710258333324,58.65918889374999,65.0,90.0
188,57.828710258333324,58.671175183333325,61.0,95.0
189,59.19857192499999,59.52391407083333,49.0,67.0
190,58.65062725833332,59.59411948124999,37.0,92.0
191,58.924599591666656,59.62151671458332,44.0,55.0
192,59.47254425833332,60.26535169791666,61.0,89.0
193,59.47254425833332,60.27220100624999,65.0,90.0
194,60.020488924999995,60.41946113541666,56.0,81.0
195,60.842405924999994,61.219117883333325,56.0,76.0
196,60.29446125833333,61.35267939583333,41.0,77.0
197,60.56843359166666,61.393775245833325,48.0,52.0
198,61.11637825833333,61.90404871666666,60.0,79.0
199,61.11637825833333,61.936582931249994,65.0,89.0
200,61.66432292499999,61.946856893749995,56.0,88.0
201,62.21226759166666,62.88521213541666,53.0,56.0
202,62.48623992499999,62.917746349999994,58.0,79.0
203,61.938295258333326,63.484526614583324,46.0,78.0
204,63.03418459166666,63.530759445833326,53.0,48.0
205,62.760212258333326,64.2739094,65.0,97.0
206,63.30815692499999,64.28589568958333,61.0,72.0
207,64.13007392499999,64.50336122916666,53.0,48.0
208,63.582129258333325,64.76021029166665,46.0,73.0
209,64.67801859166666,64.7670596,53.0,76.0
210,64.40404625833332,65.17116879166666,65.0,97.0
211,64.40404625833332,65.18657973541666,61.0,100.0
212,64.95199092499999,65.27219608958332,58.0,86.0
213,65.22596325833332,65.92288038125,42.0,88.0
214,65.49993559166666,65.94514063333332,49.0,56.0
215,65.77390792499999,66.04959258541666,54.0,73.0
216,65.77390792499999,66.07870214583332,61.0,82.0
217,65.77390792499999,66.21226365833333,58.0,77.0
218,66.04788025833332,66.52733184166665,44.0,78.0
219,66.59582492499999,66.85952329583333,60.0,93.0
220,66.32185259166666,66.86808493125,56.0,85.0
221,67.41774192499999,67.77561828541666,58.0,61.0
222,67.14376959166665,67.78589224791666,53.0,60.0
223,66.86979725833332,67.8800702375,46.0,77.0
224,67.69171425833332,68.45883679166666,61.0,95.0
225,67.69171425833332,68.46568609999999,65.0,97.0
226,68.23965892499999,68.54274081874999,58.0,78.0
227,68.51363125833332,69.19684976458332,42.0,90.0
228,69.06157592499999,69.3184249875,61.0,100.0
229,68.78760359166665,69.34410989374999,54.0,73.0
230,69.33554825833332,69.82356147708333,44.0,92.0
231,69.88349292499998,70.15061594999999,63.0,100.0
232,69.60952059166665,70.18657481874999,56.0,76.0
233,70.43143759166665,70.97938225833333,53.0,47.0
234,70.70540992499998,71.09068351874998,58.0,67.0
235,70.15746525833332,71.10438213541666,46.0,70.0
236,70.97938225833333,71.78760064166666,61.0,72.0
237,70.97938225833333,71.79102529583332,65.0,99.0
238,71.527326925,71.84239510833332,58.0,82.0
239,72.349243925,72.72938053749999,51.0,63.0
240,72.89718859166666,73.047873375,51.0,65.0
241,71.80129925833333,73.20711979375,39.0,69.0
242,72.62321625833333,73.3971881,66.0,85.0
243,72.62321625833333,73.40403740833332,63.0,95.0
244,72.07527159166666,73.44684558541665,46.0,48.0
245,73.171160925,73.47424281874999,58.0,82.0
246,73.993077925,74.36465290208332,53.0,63.0
247,74.26705025833333,74.66602246874999,56.0,77.0
248,74.54102259166666,74.68999504791665,53.0,64.0
249,73.44513325833333,74.89718662499999,41.0,66.0
250,73.71910559166666,75.04444675416666,48.0,50.0
251,74.26705025833333,75.06841933333332,65.0,77.0
252,74.26705025833333,75.08211795,60.0,83.0
253,74.814994925,75.09581656666666,56.0,71.0
254,75.63691192499999,75.84067884791666,54.0,93.0
255,75.36293959166666,76.03417180833333,49.0,66.0
256,75.08896725833333,76.09581558333332,42.0,72.0
257,75.91088425833333,76.34067835625,61.0,112.0
258,75.91088425833333,76.34581533749999,58.0,107.0
259,76.18485659166666,76.57013018541666,49.0,100.0
260,76.18485659166666,76.58040414791665,42.0,36.0
261,76.45882892499999,76.61293836249999,58.0,76.0
262,76.45882892499999,76.61636301666665,54.0,93.0
263,76.45882892499999,76.62663697916666,61.0,77.0
264,76.73280125833332,76.80129434166666,63.0,85.0
265,76.73280125833332,76.82184226666665,60.0,95.0
266,76.73280125833332,76.82526692083333,56.0,90.0
267,76.73280125833332,76.83382855624998,44.0,95.0
268,77.00677359166666,77.09923925416666,63.0,88.0
269,77.00677359166666,77.11293787083332,60.0,86.0
270,77.00677359166666,77.11978717916665,44.0,93.0
271,77.00677359166666,77.11978717916665,56.0,85.0
272,78.78759375833333,79.04786747499999,61.0,82.0
273,78.65060759166666,79.07012772708332,54.0,81.0
274,78.92457992499999,79.14204546458332,66.0,85.0
275,78.513621425,79.54786698333332,49.0,72.0
276,78.37663525833332,79.59923679583332,42.0,92.0
277,79.19855225833332,79.92286661458333,70.0,122.0
278,79.47252459166666,79.94341453958333,66.0,95.0
279,79.74649692499999,80.05814045416666,61.0,90.0
280,80.43142775833333,80.79615342708333,53.0,83.0
281,80.56841392499999,80.81327669791665,60.0,78.0
282,80.70540009166666,80.86122185624998,65.0,81.0
283,80.02046925833332,81.04957783541666,41.0,85.0
284,80.29444159166665,81.07183808749998,48.0,74.0
285,80.84238625833332,81.57697457708332,68.0,107.0
286,81.11635859166665,81.60437181041665,65.0,88.0
287,81.39033092499999,81.63519369791666,60.0,90.0
288,82.07526175833333,82.41259019374999,56.0,73.0
289,82.34923409166666,82.45539837083332,63.0,77.0
290,82.21224792499999,82.47423396874999,60.0,85.0
291,81.93827559166665,82.81327473124999,51.0,66.0
292,81.66430325833332,82.84409661874999,44.0,81.0
293,82.76019259166665,83.24135650208332,63.0,90.0
294,82.48622025833332,83.26704140833333,68.0,96.0
295,83.03416492499998,83.30813725833332,60.0,96.0
296,83.2910139875,83.43142480833332,61.0,99.0
297,83.27217838958332,83.43313713541666,46.0,99.0
298,83.29615096874998,83.43827411666666,58.0,97.0
299,83.29786329583332,83.44169877083333,65.0,96.0
300,83.56669864791665,83.70368481458333,65.0,86.0
301,83.57012330208332,83.70882179583332,61.0,92.0
302,83.56841097499999,83.71909575833332,58.0,92.0
303,83.57868493749999,83.74135601041665,46.0,100.0
304,83.84238330833332,83.99306809166666,56.0,95.0
305,83.83724632708332,83.99820507291666,63.0,88.0
306,83.83895865416666,84.01190368958332,60.0,92.0
307,83.85608192499998,84.05299953958333,44.0,107.0
308,84.13176658541666,84.35779376041666,58.0,95.0
309,84.13861589374999,84.36293074166666,65.0,97.0
310,84.1334789125,84.37320470416665,61.0,99.0
311,84.13519123958332,84.38176633958332,46.0,122.0
312,85.49991592499998,85.74991567916666,58.0,77.0
313,85.63690209166666,85.79786083749998,61.0,86.0
314,85.36292975833332,85.83039505208332,54.0,73.0
315,85.22594359166665,86.11464134791666,49.0,73.0
316,84.95197125833332,86.14375090833332,42.0,93.0
317,85.77388825833332,86.55128475416666,66.0,99.0
318,86.04786059166665,86.59751758541665,61.0,99.0
319,86.321832925,86.62833947291665,58.0,82.0
320,87.143749925,87.35436615625,56.0,72.0
321,87.00676375833332,87.40744829583332,53.0,64.0
322,87.28073609166665,87.41087294999998,60.0,82.0
323,86.59580525833333,88.10094076458333,41.0,89.0
324,86.86977759166666,88.17285850208332,48.0,77.0
325,87.69169459166666,88.20196806249999,60.0,83.0
326,87.41772225833333,88.20710504374999,65.0,93.0
327,87.965666925,88.22936529583332,56.0,88.0
328,88.65059775833332,88.86463864374998,56.0,73.0
329,88.78758392499999,89.03929600624998,60.0,67.0
330,88.51361159166666,89.65230910208332,51.0,79.0
331,88.23963925833333,89.70367891458332,44.0,75.0
332,89.06155625833333,89.70367891458332,63.0,107.0
333,89.60950092499999,89.77559665208332,56.0,82.0
334,89.33552859166666,89.80813086666666,60.0,85.0
335,89.88347325833332,90.02559640624999,65.0,81.0
336,89.88347325833332,90.03587036874998,46.0,66.0
337,89.88347325833332,90.04100734999999,58.0,86.0
338,89.88347325833332,90.04443200416665,61.0,86.0
339,90.15744559166666,90.28244546874998,65.0,82.0
340,90.15744559166666,90.29956873958332,61.0,88.0
341,90.15744559166666,90.30128106666666,58.0,85.0
342,90.15744559166666,90.31326735625,46.0,70.0
343,90.43141792499999,90.55128082083333,63.0,85.0
344,90.43141792499999,90.56155478333332,60.0,90.0
345,90.43141792499999,90.56497943749999,56.0,89.0
346,90.43141792499999,90.62491088541665,44.0,93.0
347,90.70539025833332,90.91086950833332,61.0,97.0
348,90.70539025833332,90.93484208749999,58.0,95.0
349,90.70539025833332,90.93655441458333,65.0,96.0
350,90.70539025833332,90.96737630208332,46.0,102.0
351,91.52730725833332,92.79271697291665,39.0,88.0
352,91.80127959166666,92.81668955208332,46.0,59.0
353,92.07525192499999,93.11977144583332,51.0,63.0
354,92.62319659166666,93.19511383749999,63.0,64.0
355,92.34922425833332,93.21394943541665,66.0,93.0
356,92.89716892499999,93.24819597708333,58.0,77.0
357,93.44511359166665,94.01703083749999,51.0,68.0
358,93.17114125833332,94.03072945416666,44.0,75.0
359,93.99305825833332,94.81497525833332,63.0,90.0
360,93.99305825833332,94.83381085624998,60.0,83.0
361,93.71908592499999,94.89374230416665,56.0,68.0
362,95.36291992499999,95.89202899374999,53.0,82.0
363,94.81497525833332,96.10435755208331,41.0,66.0
364,95.08894759166665,96.12661780416666,48.0,51.0
365,95.63689225833332,96.47593252916666,60.0,74.0
366,95.63689225833332,96.51702837916666,65.0,86.0
367,97.00675392499998,97.34065770624998,58.0,74.0
368,96.73278159166665,97.43654802291665,53.0,58.0
369,97.55469859166665,97.75846551458332,53.0,54.0
370,96.45880925833332,97.79956136458333,46.0,76.0
371,97.28072625833332,98.06839671666665,61.0,86.0
372,97.28072625833332,98.07010904374998,65.0,85.0
373,97.82867092499998,98.10264325833332,58.0,71.0
374,98.10264325833332,98.40743747916666,61.0,97.0
375,98.10264325833332,98.41942376875,54.0,97.0
376,98.10264325833332,98.42284842291666,58.0,100.0
377,98.10264325833332,98.45024565624999,42.0,100.0
378,98.51360175833332,98.79956038124999,41.0,97.0
379,98.51360175833332,98.82010830624999,53.0,92.0
380,98.51360175833332,98.82010830624999,60.0,83.0
381,98.92456025833332,99.19510793749998,41.0,97.0
382,98.92456025833332,99.21565586249999,60.0,97.0
383,98.92456025833332,99.21908051666665,53.0,99.0
384,99.33551875833332,99.47592957916666,60.0,97.0
385,99.33551875833332,99.63517599791665,53.0,102.0
386,99.33551875833332,99.65058694166666,41.0,112.0
387,101.20195527916665,101.22250320416666,74.0,59.0
388,101.47592761249999,101.70024246041665,82.0,82.0
389,101.59921516249999,101.79442044999999,83.0,100.0
390,101.72592736666665,101.89544774791665,87.0,66.0
391,101.86976284166666,101.93140661666665,90.0,68.0
392,102.18825567916666,102.46222801249999,95.0,69.0
393,102.03414624166665,102.52215946041666,94.0,81.0
394,102.33722813541665,102.55298134791666,99.0,85.0
395,102.46565266666666,102.57352927291666,102.0,88.0
396,101.36291402499998,102.86804953124998,78.0,72.0
397,101.22592785833332,102.93483028749999,75.0,73.0
398,101.10092798124998,102.95537821249998,71.0,53.0
399,99.74647725833331,102.96051519374998,70.0,96.0
400,100.96907879583333,102.96051519374998,70.0,41.0
401,99.74647725833331,102.97592613749998,58.0,102.0
402,99.74647725833331,103.15229582708332,66.0,71.0
403,99.74647725833331,103.18825469583332,63.0,100.0
404,99.74647725833331,103.20024098541666,47.0,100.0
405,99.74647725833331,103.20024098541666,59.0,127.0
406,103.03414525833333,103.73791168958331,42.0,100.0
407,103.58208992499999,103.82010338958332,61.0,100.0
408,103.30811759166666,103.87832251041665,54.0,90.0
409,103.85606225833332,104.38345899999999,44.0,102.0
410,104.40400692499999,104.67626693124998,63.0,102.0
411,104.13003459166666,104.69852718333333,56.0,86.0
412,105.22592392499999,105.53243047291666,58.0,77.0
413,104.95195159166666,105.57695097708331,53.0,86.0
414,105.77386859166666,105.86290959999998,53.0,64.0
415,104.67797925833332,105.91427941249998,46.0,85.0
416,105.49989625833332,106.27044344583332,61.0,97.0
417,105.49989625833332,106.28585438958332,65.0,99.0
418,106.04784092499999,106.38516936041665,58.0,76.0
419,106.59578559166665,106.66770332916666,56.0,69.0
420,106.32181325833332,107.02215503541666,42.0,97.0
421,106.86975792499999,107.11975767916665,61.0,100.0
422,106.59578559166665,107.20537403333331,54.0,81.0
423,107.14373025833332,107.67112699999998,44.0,92.0
424,107.69167492499999,107.96222260416666,60.0,88.0
425,107.41770259166665,107.98961983749999,56.0,92.0
426,107.69167492499999,107.98961983749999,63.0,97.0
427,108.23961959166665,108.77729029583332,53.0,93.0
428,107.96564725833332,108.86804363124999,46.0,77.0
429,108.51359192499999,108.94852300416665,58.0,93.0
430,109.06153659166665,109.57009773541665,61.0,95.0
431,108.78756425833332,109.57352238958332,65.0,122.0
432,109.33550892499998,109.61804289374999,58.0,97.0
433,110.15742592499998,110.52215159374998,51.0,92.0
434,110.43139825833332,110.80639788958332,58.0,102.0
435,110.70537059166665,110.87317864583332,51.0,99.0
436,109.60948125833332,111.18482217499998,39.0,96.0
437,109.88345359166665,111.26530154791665,46.0,81.0
438,110.43139825833332,111.29269878124998,63.0,99.0
439,110.43139825833332,111.29954808958333,66.0,92.0
440,110.97934292499998,111.30982205208332,58.0,112.0
441,111.80125992499998,111.98447892291665,53.0,82.0
442,111.80125992499998,111.98790357708332,56.0,89.0
443,111.80125992499998,111.99475288541664,60.0,88.0
444,111.52728759166665,112.16427326666665,48.0,92.0
445,112.07523225833332,112.41256069374998,53.0,100.0
446,112.07523225833332,112.69167000833332,60.0,96.0
447,111.25331525833332,112.69338233541666,41.0,112.0
448,112.62317692499998,112.77728636249998,53.0,99.0
449,112.07523225833332,112.79440963333332,56.0,97.0
450,112.34920459166665,112.86803969791666,48.0,95.0
451,112.89714925833331,113.52899795208332,58.0,100.0
452,112.89714925833331,113.55810751249999,54.0,100.0
453,112.89714925833331,113.56495682083332,61.0,100.0
454,113.44509392499998,113.83550449999998,49.0,95.0
455,112.89714925833331,114.38858614791666,42.0,89.0
456,113.99303859166665,114.42796967083332,49.0,95.0
457,114.26701092499998,114.46050388541666,54.0,95.0
458,113.71906625833331,114.46050388541666,61.0,112.0
459,113.71906625833331,114.51187369791666,58.0,122.0
460,114.81495559166665,114.86461307708332,56.0,46.0
461,115.08892792499998,115.24303736249999,56.0,96.0
462,115.08892792499998,115.25502365208332,60.0,90.0
463,115.08892792499998,115.25844830624999,63.0,86.0
464,114.81495559166665,115.46735221041665,51.0,92.0
465,115.36290025833331,115.71392731041665,56.0,112.0
466,115.36290025833331,115.77728341249998,60.0,99.0
467,115.36290025833331,115.78242039374999,63.0,97.0
468,115.63687259166664,116.00331058749998,51.0,95.0
469,114.54098325833331,116.05810505416665,44.0,100.0
470,115.91084492499998,116.18310493124999,60.0,99.0
471,115.91084492499998,116.18310493124999,63.0,97.0
472,115.91084492499998,116.18652958541665,56.0,107.0
473,116.18481725833331,116.91769324999999,42.0,90.0
474,116.45878959166666,116.94851513749998,54.0,90.0
475,116.73276192499999,116.97591237083331,61.0,99.0
476,117.00673425833332,117.50330911249999,44.0,92.0
477,117.28070659166666,117.82351427708332,56.0,81.0
478,117.55467892499999,117.83721289374998,63.0,96.0
479,118.10262359166666,118.69680108958332,53.0,72.0
480,118.37659592499999,118.73960926666665,58.0,95.0
481,117.82865125833332,118.80467769583332,46.0,76.0
482,118.92454059166666,119.41940311874998,61.0,92.0
483,118.65056825833332,119.42796475416665,65.0,107.0
484,119.19851292499999,119.54782764999999,58.0,95.0
485,119.47248525833332,120.18995030624998,42.0,90.0
486,119.74645759166665,120.26358037083332,54.0,90.0
487,120.02042992499999,120.29268993124998,61.0,100.0
488,120.29440225833332,120.83549761666666,44.0,97.0
489,120.56837459166665,121.12145623958332,56.0,77.0
490,120.84234692499999,121.14371649166665,63.0,102.0
491,121.66426392499999,121.83720896041665,61.0,69.0
492,121.66426392499999,121.83892128749999,65.0,67.0
493,121.39029159166665,122.01015399583332,53.0,85.0
494,122.21220859166665,122.30467425416666,53.0,72.0
495,121.11631925833332,122.33549614166665,46.0,73.0
496,121.93823625833332,122.74474231458332,61.0,95.0
497,121.93823625833332,122.75501627708331,65.0,89.0
498,122.48618092499999,122.87830382708331,58.0,89.0
499,123.30809792499998,123.68309755624999,51.0,79.0
500,123.85604259166665,123.99645341249999,51.0,82.0
501,122.76015325833332,124.26186411041665,39.0,72.0
502,123.58207025833332,124.38172700624999,66.0,95.0
503,123.58207025833332,124.38857631458332,63.0,97.0
504,124.13001492499998,124.40569958541666,58.0,93.0
505,123.03412559166665,124.41254889374999,46.0,75.0
506,124.95193192499998,125.32521922916665,53.0,93.0
507,125.49987659166665,125.60775319791665,53.0,81.0
508,125.22590425833332,125.61289017916666,60.0,96.0
509,124.40398725833332,125.68994489791665,41.0,83.0
510,124.67795959166665,126.00158842708332,48.0,81.0
511,125.22590425833332,126.04268427708331,65.0,96.0
512,125.22590425833332,126.05124591249998,68.0,95.0
513,125.77384892499998,126.07521849166665,60.0,97.0
514,126.59576592499998,126.86973825833331,54.0,77.0
515,126.32179359166665,127.00843675208331,49.0,66.0
516,126.04782125833331,127.59918959583332,42.0,73.0
517,127.41768292499998,127.66597035208332,54.0,92.0
518,126.86973825833331,127.69336758541665,58.0,96.0
519,127.14371059166665,127.69507991249998,49.0,79.0
520,126.86973825833331,127.71391551041665,61.0,93.0
521,127.69165525833331,129.23788661458332,44.0,92.0
522,127.96562759166665,129.2584345395833,51.0,72.0
523,128.5135722583333,129.27555781041664,60.0,76.0
524,128.5135722583333,129.2892564270833,63.0,88.0
525,128.239599925,129.30466737083333,56.0,66.0
526,129.33548925833333,130.07863921249998,49.0,96.0
527,129.60946159166664,130.16768022083332,56.0,72.0
528,129.883433925,130.4382279,65.0,93.0
529,130.43137859166666,130.79610426041666,60.0,82.0
530,130.1574062583333,130.90569319374998,48.0,93.0
531,130.70535092499998,131.03240539791665,65.0,82.0
532,130.97932325833332,131.70877459583332,46.0,82.0
533,131.527267925,131.78240466041666,65.0,93.0
534,131.25329559166664,131.85261007083332,58.0,70.0
535,131.8012402583333,132.5443902125,44.0,85.0
536,132.07521259166666,132.5752121,56.0,68.0
537,132.34918492499997,132.62144493124998,63.0,93.0
538,132.62315725833332,134.14541603541664,46.0,86.0
539,132.89712959166664,134.25842962291665,53.0,58.0
540,133.171101925,134.92281253124997,58.0,65.0
541,133.99301892499997,134.93651114791666,61.0,52.0
542,133.4450742583333,134.98788096041665,65.0,96.0
543,134.814935925,135.22246977083333,53.0,59.0
544,135.36288059166665,135.48103116041665,53.0,76.0
545,134.26699125833332,135.5204146833333,46.0,77.0
546,135.63685292499997,135.89370198749998,58.0,88.0
547,135.0889082583333,135.91938689375,65.0,90.0
548,135.0889082583333,135.9313731833333,61.0,95.0
549,136.45876992499998,136.78411207083332,49.0,67.0
550,135.91082525833332,136.85431748124998,37.0,92.0
551,136.18479759166664,136.88171471458332,44.0,55.0
552,136.7327422583333,137.52554969791666,61.0,89.0
553,136.7327422583333,137.53239900625,65.0,90.0
554,137.28068692499997,137.67965913541664,56.0,81.0
555,138.10260392499998,138.47931588333333,56.0,76.0
556,137.55465925833332,138.61287739583332,41.0,77.0
557,137.82863159166664,138.65397324583333,48.0,52.0
558,138.3765762583333,139.16424671666664,60.0,79.0
559,138.3765762583333,139.19678093124998,65.0,89.0
560,138.92452092499997,139.20705489374998,56.0,88.0
561,139.47246559166666,140.14541013541665,53.0,56.0
562,139.74643792499998,140.17794435,58.0,79.0
563,139.19849325833331,140.7447246145833,46.0,78.0
564,140.29438259166665,140.79095744583333,53.0,48.0
565,140.02041025833333,141.53410739999998,65.0,97.0
566,140.568354925,141.5460936895833,61.0,72.0
567,141.39027192499998,141.76355922916665,53.0,48.0
568,140.8423272583333,142.02040829166666,46.0,73.0
569,141.93821659166665,142.02725759999998,53.0,76.0
570,141.66424425833333,142.43136679166665,65.0,97.0
571,141.66424425833333,142.44677773541665,61.0,100.0
572,142.212188925,142.5323940895833,58.0,86.0
573,142.4861612583333,143.18307838124997,42.0,88.0
574,142.76013359166666,143.20533863333333,49.0,56.0
575,143.03410592499998,143.30979058541664,54.0,73.0
576,143.03410592499998,143.33890014583332,61.0,82.0
577,143.03410592499998,143.47246165833332,58.0,77.0
578,143.30807825833332,143.78752984166664,44.0,78.0
579,143.856022925,144.1197212958333,60.0,93.0
580,143.58205059166664,144.12828293124997,56.0,85.0
581,144.67793992499998,145.03581628541664,58.0,61.0
582,144.40396759166666,145.04609024791665,53.0,60.0
583,144.1299952583333,145.14026823749998,46.0,77.0
584,144.95191225833332,145.71903479166664,61.0,95.0
585,144.95191225833332,145.72588409999997,65.0,97.0
586,145.499856925,145.80293881875,58.0,78.0
587,145.7738292583333,146.4570477645833,42.0,90.0
588,146.32177392499997,146.57862298749998,61.0,100.0
589,146.04780159166665,146.60430789375,54.0,73.0
590,146.59574625833332,147.0837594770833,44.0,92.0
591,147.143690925,147.41081394999998,63.0,100.0
592,146.86971859166664,147.44677281875,56.0,76.0
593,147.69163559166665,148.23958025833332,53.0,47.0
594,147.96560792499997,148.35088151875,58.0,67.0
595,147.4176632583333,148.36458013541665,46.0,70.0
596,148.23958025833332,149.04779864166665,61.0,72.0
597,148.23958025833332,149.05122329583332,65.0,99.0
598,148.78752492499999,149.1025931083333,58.0,82.0
599,149.60944192499997,149.98957853749997,51.0,63.0
600,150.15738659166664,150.30807137499997,51.0,65.0
601,149.0614972583333,150.46731779374997,39.0,69.0
602,149.88341425833332,150.65738609999997,66.0,85.0
603,149.88341425833332,150.66423540833333,63.0,95.0
604,149.33546959166665,150.70704358541664,46.0,48.0
605,150.43135892499998,150.73444081875,58.0,82.0
606,151.25327592499997,151.62485090208332,53.0,63.0
607,151.52724825833332,151.92622046875,56.0,77.0
608,151.80122059166663,151.95019304791666,53.0,64.0
609,150.7053312583333,152.157384625,41.0,66.0
610,150.97930359166665,152.30464475416665,48.0,50.0
611,151.52724825833332,152.3286173333333,65.0,77.0
612,151.52724825833332,152.34231594999997,60.0,83.0
613,152.07519292499998,152.35601456666666,56.0,71.0
614,152.89710992499997,153.10087684791665,54.0,93.0
615,152.62313759166665,153.2943698083333,49.0,66.0
616,152.3491652583333,153.35601358333332,42.0,72.0
617,153.1710822583333,153.60087635624998,61.0,112.0
618,153.1710822583333,153.60601333749997,58.0,107.0
619,153.44505459166663,153.83032818541665,49.0,100.0
620,153.44505459166663,153.84060214791666,42.0,36.0
621,153.71902692499998,153.8731363625,58.0,76.0
622,153.71902692499998,153.87656101666664,54.0,93.0
623,153.71902692499998,153.88683497916665,61.0,77.0
624,153.9929992583333,154.06149234166665,63.0,85.0
625,153.9929992583333,154.08204026666664,60.0,95.0
626,153.9929992583333,154.08546492083332,56.0,90.0
627,153.9929992583333,154.09402655625,44.0,95.0
628,154.26697159166665,154.35943725416664,63.0,88.0
629,154.26697159166665,154.37313587083332,60.0,86.0
630,154.26697159166665,154.37998517916665,44.0,93.0
631,154.26697159166665,154.37998517916665,56.0,85.0
632,156.04779175833332,156.30806547499998,61.0,82.0
633,155.91080559166664,156.3303257270833,54.0,81.0
634,156.184777925,156.4022434645833,66.0,85.0
635,155.77381942499997,156.8080649833333,49.0,72.0
636,155.63683325833333,156.85943479583332,42.0,92.0
637,156.4587502583333,157.18306461458332,70.0,122.0
638,156.73272259166666,157.2036125395833,66.0,95.0
639,157.00669492499998,157.31833845416665,61.0,90.0
640,157.69162575833332,158.0563514270833,53.0,83.0
641,157.828611925,158.07347469791665,60.0,78.0
642,157.96559809166664,158.12141985625,65.0,81.0
643,157.28066725833332,158.30977583541664,41.0,85.0
644,157.55463959166664,158.33203608749997,48.0,74.0
645,158.1025842583333,158.83717257708332,68.0,107.0
646,158.37655659166666,158.86456981041664,65.0,88.0
647,158.65052892499997,158.89539169791664,60.0,90.0
648,159.33545975833331,159.67278819374997,56.0,73.0
649,159.60943209166663,159.7155963708333,63.0,77.0
650,159.472445925,159.73443196875,60.0,85.0
651,159.19847359166664,160.07347273124998,51.0,66.0
652,158.92450125833332,160.10429461874998,44.0,81.0
653,160.02039059166665,160.5015545020833,63.0,90.0
654,159.7464182583333,160.52723940833332,68.0,96.0
655,160.29436292499997,160.56833525833332,60.0,96.0
656,160.55121198749998,160.6916228083333,61.0,99.0
657,160.5323763895833,160.69333513541665,46.0,99.0
658,160.55634896874997,160.69847211666664,58.0,97.0
659,160.5580612958333,160.70189677083332,65.0,96.0
660,160.82689664791664,160.96388281458331,65.0,86.0
661,160.83032130208332,160.9690197958333,61.0,92.0
662,160.82860897499998,160.9792937583333,58.0,92.0
663,160.8388829375,161.00155401041664,46.0,100.0
664,161.1025813083333,161.25326609166663,56.0,95.0
665,161.0974443270833,161.25840307291665,63.0,88.0
666,161.09915665416665,161.2721016895833,60.0,92.0
667,161.116279925,161.3131975395833,44.0,107.0
668,161.39196458541664,161.61799176041666,58.0,95.0
669,161.39881389374997,161.62312874166665,65.0,97.0
670,161.39367691249998,161.63340270416666,61.0,99.0
671,161.39538923958332,161.64196433958332,46.0,122.0
672,162.76011392499998,163.01011367916664,58.0,77.0
673,162.89710009166666,163.05805883749997,61.0,86.0
674,162.6231277583333,163.0905930520833,54.0,73.0
675,162.48614159166664,163.37483934791663,49.0,73.0
676,162.21216925833332,163.40394890833332,42.0,93.0
677,163.0340862583333,163.81148275416663,66.0,99.0
678,163.30805859166665,163.85771558541666,61.0,99.0
679,163.58203092499997,163.88853747291665,58.0,82.0
680,164.40394792499998,164.61456415624997,56.0,72.0
681,164.2669617583333,164.66764629583332,53.0,64.0
682,164.54093409166666,164.67107094999997,60.0,82.0
683,163.85600325833332,165.3611387645833,41.0,89.0
684,164.12997559166664,165.4330565020833,48.0,77.0
685,164.95189259166665,165.4621660625,60.0,83.0
686,164.6779202583333,165.46730304374998,65.0,93.0
687,165.22586492499997,165.4895632958333,56.0,88.0
688,165.9107957583333,166.12483664374997,56.0,73.0
689,166.04778192499998,166.29949400624997,60.0,67.0
690,165.77380959166663,166.9125071020833,51.0,79.0
691,165.49983725833332,166.96387691458332,44.0,75.0
692,166.3217542583333,166.96387691458332,63.0,107.0
693,166.86969892499997,167.03579465208333,56.0,82.0
694,166.59572659166665,167.06832886666663,60.0,85.0
695,167.1436712583333,167.28579440624998,65.0,81.0
696,167.1436712583333,167.29606836874999,46.0,66.0
697,167.1436712583333,167.30120534999998,58.0,86.0
698,167.1436712583333,167.30463000416665,61.0,86.0
699,167.41764359166663,167.54264346875,65.0,82.0
700,167.41764359166663,167.55976673958332,61.0,88.0
701,167.41764359166663,167.56147906666664,58.0,85.0
702,167.41764359166663,167.57346535624998,46.0,70.0
703,167.69161592499998,167.81147882083332,63.0,85.0
704,167.69161592499998,167.82175278333332,60.0,90.0
705,167.69161592499998,167.82517743749997,56.0,89.0
706,167.69161592499998,167.88510888541666,44.0,93.0
707,167.9655882583333,168.17106750833332,61.0,97.0
708,167.9655882583333,168.1950400875,58.0,95.0
709,167.9655882583333,168.1967524145833,65.0,96.0
710,167.9655882583333,168.2275743020833,46.0,102.0
711,168.7875052583333,168.87140928541663,61.0,90.0
712,168.7875052583333,168.8748339395833,65.0,79.0
713,168.7875052583333,168.88168324791664,58.0,86.0
714,168.7875052583333,168.89880651874998,46.0,112.0
715,169.06147759166663,169.16079256249998,61.0,76.0
716,169.06147759166663,169.16250488958332,65.0,66.0
717,169.06147759166663,169.16592954374997,58.0,73.0
718,169.06147759166663,169.17962816041666,46.0,100.0
719,169.33544992499998,169.42620326041666,63.0,79.0
720,169.33544992499998,169.42791558749997,56.0,83.0
721,169.33544992499998,169.43305256874999,60.0,92.0
722,169.33544992499998,169.46729911041663,44.0,92.0
723,169.60942225833332,169.68818930416666,65.0,81.0
724,169.60942225833332,169.70531257499997,46.0,102.0
725,169.60942225833332,169.71044955624998,58.0,86.0
726,169.60942225833332,169.71901119166665,61.0,90.0
727,169.88339459166664,169.92449044166665,65.0,61.0
728,169.88339459166664,169.97414792708332,58.0,83.0
729,169.88339459166664,169.97757258124997,61.0,88.0
730,169.88339459166664,170.00325748749998,46.0,100.0
731,170.157366925,170.21044906458332,63.0,74.0
732,170.157366925,170.2566818958333,56.0,85.0
733,170.157366925,170.2566818958333,60.0,90.0
734,170.157366925,170.30120239999997,44.0,96.0
735,170.4313392583333,170.63510618124997,46.0,122.0
736,170.4313392583333,170.64709247083331,65.0,96.0
737,170.4313392583333,170.65394177916664,61.0,112.0
738,170.4313392583333,170.65565410624998,58.0,92.0
739,172.0751732583333,172.18647451874998,42.0,63.0
740,172.0751732583333,172.19674848124998,54.0,93.0
741,172.0751732583333,172.2035977895833,66.0,92.0
742,172.0751732583333,172.2087347708333,49.0,86.0
743,172.0751732583333,172.2087347708333,61.0,92.0
744,172.0751732583333,172.21729640624997,70.0,82.0
745,172.34914559166666,172.45359754374996,42.0,61.0
746,172.34914559166666,172.46387150624997,54.0,90.0
747,172.34914559166666,172.47243314166664,66.0,76.0
748,172.34914559166666,172.47414546874998,49.0,81.0
749,172.34914559166666,172.48270710416665,70.0,72.0
750,172.34914559166666,172.4861317583333,61.0,85.0
751,172.62311792499997,172.76695339999998,54.0,93.0
752,172.62311792499997,172.77037805416666,66.0,96.0
753,172.62311792499997,172.77722736249999,61.0,93.0
754,172.62311792499997,172.78407667083331,70.0,86.0
755,172.62311792499997,172.79435063333332,49.0,89.0
756,172.62311792499997,172.79606296041663,42.0,70.0
757,173.7190072583333,173.84400713541663,65.0,92.0
758,173.7190072583333,173.84571946249997,53.0,90.0
759,173.7190072583333,173.8474317895833,41.0,63.0
760,173.7190072583333,173.8474317895833,48.0,83.0
761,173.7190072583333,173.8525687708333,68.0,85.0
762,173.7190072583333,173.85770575208332,60.0,85.0
763,173.99297959166665,174.08715758124998,53.0,81.0
764,173.99297959166665,174.09229456249997,48.0,82.0
765,173.99297959166665,174.09571921666665,41.0,61.0
766,173.99297959166665,174.09571921666665,65.0,86.0
767,173.99297959166665,174.10770550624997,60.0,82.0
768,173.99297959166665,174.1094178333333,68.0,79.0
769,174.26695192499997,174.41249972708331,48.0,97.0
770,174.26695192499997,174.41249972708331,65.0,92.0
771,174.26695192499997,174.42277368958332,53.0,96.0
772,174.26695192499997,174.42448601666663,68.0,88.0
773,174.26695192499997,174.42619834374997,60.0,92.0
774,174.26695192499997,174.43989696041663,41.0,75.0
775,175.3628412583333,175.52893698541664,44.0,70.0
776,175.3628412583333,175.53407396666665,51.0,82.0
777,175.3628412583333,175.54092327499998,68.0,96.0
778,175.3628412583333,175.54434792916663,63.0,97.0
779,175.3628412583333,175.55119723749996,56.0,96.0
780,175.3628412583333,175.56147119999997,72.0,92.0
781,177.0066752583333,177.07003136041664,53.0,47.0
782,177.0066752583333,177.07003136041664,54.0,50.0
783,177.0066752583333,177.12653815416664,70.0,95.0
784,177.0066752583333,177.12825048124998,73.0,86.0
785,177.0066752583333,177.1402367708333,65.0,86.0
786,177.0066752583333,177.14879840624997,46.0,85.0
787,177.28064759166665,177.37996256249997,53.0,82.0
788,177.28064759166665,177.39366117916666,73.0,77.0
789,177.28064759166665,177.3970858333333,70.0,93.0
790,177.28064759166665,177.40393514166664,46.0,76.0
791,177.28064759166665,177.40907212291665,65.0,90.0
792,177.55461992499997,177.66592118541664,63.0,92.0
793,177.55461992499997,177.67961980208332,68.0,95.0
794,177.55461992499997,177.68304445624997,72.0,86.0
795,177.55461992499997,177.71044168958332,44.0,93.0
796,177.82859225833332,177.96900307916664,70.0,107.0
797,177.82859225833332,177.96900307916664,73.0,107.0
798,177.82859225833332,177.97585238749997,65.0,92.0
799,177.82859225833332,178.01523591041664,46.0,97.0
800,178.6505092583333,178.75153655625,54.0,81.0
801,178.6505092583333,178.76009819166666,42.0,57.0
802,178.6505092583333,178.76181051874997,49.0,72.0
803,178.6505092583333,178.76523517291665,61.0,89.0
804,178.6505092583333,178.76523517291665,66.0,90.0
805,178.6505092583333,178.7789337895833,70.0,79.0
806,178.92448159166665,179.02037190833332,54.0,81.0
807,178.92448159166665,179.02379656249997,42.0,55.0
808,178.92448159166665,179.0255088895833,66.0,88.0
809,178.92448159166665,179.0306458708333,61.0,86.0
810,178.92448159166665,179.03407052499998,49.0,81.0
811,178.92448159166665,179.03920750624997,70.0,77.0
812,179.19845392499997,179.3285907833333,54.0,100.0
813,179.19845392499997,179.33030311041665,66.0,92.0
814,179.19845392499997,179.3440017270833,49.0,95.0
815,179.19845392499997,179.3440017270833,61.0,90.0
816,179.19845392499997,179.35427568958332,70.0,85.0
817,179.19845392499997,179.35598801666663,42.0,72.0
818,180.2943432583333,180.4073568458333,41.0,59.0
819,180.2943432583333,180.4124938270833,48.0,86.0
820,180.2943432583333,180.41591848124997,53.0,83.0
821,180.2943432583333,180.41591848124997,60.0,79.0
822,180.2943432583333,180.4176308083333,65.0,85.0
823,180.2943432583333,180.42790477083332,68.0,79.0
824,180.56831559166665,180.6590689270833,41.0,71.0
825,180.56831559166665,180.66078125416664,53.0,89.0
826,180.56831559166665,180.66078125416664,65.0,85.0
827,180.56831559166665,180.67105521666664,48.0,90.0
828,180.56831559166665,180.67276754374998,68.0,76.0
829,180.56831559166665,180.67447987083332,60.0,82.0
830,180.84228792499997,180.98098641874998,41.0,70.0
831,180.84228792499997,180.98098641874998,53.0,96.0
832,180.84228792499997,180.98098641874998,65.0,89.0
833,180.84228792499997,180.98269874583332,60.0,85.0
834,180.84228792499997,181.00153434374997,68.0,78.0
835,180.84228792499997,181.00667132499999,48.0,92.0
836,181.9381772583333,182.10256065833332,68.0,95.0
837,181.9381772583333,182.11454694791664,72.0,89.0
838,181.9381772583333,182.11968392916665,63.0,89.0
839,181.9381772583333,182.1333825458333,56.0,99.0
840,181.9381772583333,182.13509487291665,51.0,88.0
841,181.9381772583333,182.1487934895833,44.0,74.0
842,183.5820112583333,183.69331251874996,70.0,96.0
843,183.5820112583333,183.6950248458333,65.0,92.0
844,183.5820112583333,183.69673717291664,58.0,89.0
845,183.5820112583333,183.70701113541665,73.0,88.0
846,183.5820112583333,183.71728509791663,53.0,69.0
847,183.5820112583333,183.72242207916665,46.0,63.0
848,183.85598359166664,183.96214787083332,70.0,97.0
849,183.85598359166664,183.96899717916665,58.0,96.0
850,183.85598359166664,183.97070950625,46.0,65.0
851,183.85598359166664,183.97070950625,73.0,90.0
852,183.85598359166664,183.97413416041664,53.0,78.0
853,183.85598359166664,183.97584648749998,65.0,97.0
854,184.12995592499996,184.2600927833333,63.0,89.0
855,184.12995592499996,184.2600927833333,72.0,85.0
856,184.12995592499996,184.2652297645833,68.0,96.0
857,184.12995592499996,184.28064070833332,56.0,95.0
858,184.12995592499996,184.28920234374996,44.0,73.0
859,184.12995592499996,184.29605165208332,51.0,86.0
860,184.4039282583333,184.6556403395833,65.0,97.0
861,184.4039282583333,184.6556403395833,73.0,122.0
862,184.4039282583333,184.65906499374998,53.0,96.0
863,184.4039282583333,184.65906499374998,58.0,117.0
864,184.4039282583333,184.65906499374998,70.0,117.0
865,184.4039282583333,184.68817455416664,46.0,73.0
866,185.773789925,186.09570741666664,54.0,86.0
867,185.49981759166664,186.18988540624997,49.0,89.0
868,185.22584525833332,186.4176249083333,42.0,99.0
869,186.32173459166665,186.45700843125,49.0,88.0
870,186.0477622583333,186.86967925833332,66.0,97.0
871,186.0477622583333,186.87139158541663,70.0,96.0
872,186.59570692499997,186.9107751083333,61.0,90.0
873,187.417623925,187.7789249395833,53.0,79.0
874,186.86967925833332,188.07858217916663,41.0,82.0
875,187.14365159166664,188.1333766458333,48.0,82.0
876,187.96556859166665,188.43303388541665,53.0,92.0
877,188.23954092499997,188.47412973541665,60.0,73.0
878,187.6915962583333,188.47412973541665,65.0,95.0
879,187.6915962583333,188.5032392958333,68.0,93.0
880,189.06145792499998,189.4381698833333,56.0,82.0
881,189.3354302583333,189.73611479583332,63.0,90.0
882,189.60940259166665,189.79090926249998,56.0,97.0
883,189.3354302583333,189.79947089791665,68.0,96.0
884,188.51351325833332,189.8337174395833,44.0,73.0
885,188.78748559166664,189.83714209374997,51.0,68.0
886,189.3354302583333,189.99981316666666,72.0,89.0
887,189.88337492499997,190.0340597083333,63.0,100.0
888,189.88337492499997,190.05460763333332,68.0,56.0
889,190.15734725833332,190.2909087708333,65.0,95.0
890,190.15734725833332,190.29262109791665,46.0,86.0
891,190.15734725833332,190.2960457520833,73.0,102.0
892,190.15734725833332,190.30460738749997,70.0,99.0
893,190.43131959166664,190.53063456249998,73.0,82.0
894,190.43131959166664,190.56316877708332,70.0,95.0
895,190.43131959166664,190.5717304125,65.0,93.0
896,190.43131959166664,190.58200437499997,46.0,107.0
897,190.70529192499998,190.83200412916665,72.0,89.0
898,190.70529192499998,190.83371645625,63.0,97.0
899,190.70529192499998,190.84227809166663,68.0,96.0
900,190.70529192499998,190.86796299791664,44.0,95.0
901,190.9792642583333,191.21899004999997,73.0,112.0
902,190.9792642583333,191.22755168541664,65.0,97.0
903,190.9792642583333,191.22755168541664,70.0,107.0
904,190.9792642583333,191.24638728333332,46.0,122.0
905,192.34912592499998,192.67275574374997,54.0,89.0
906,192.07515359166663,192.8234405270833,49.0,89.0
907,191.80118125833332,193.07172795416665,42.0,93.0
908,192.89707059166665,193.08028958958332,49.0,75.0
909,192.6230982583333,193.43131664166665,66.0,90.0
910,193.17104292499997,193.43816594999998,61.0,93.0
911,192.6230982583333,193.4398782770833,70.0,96.0
912,193.99295992499998,194.3645349020833,53.0,88.0
913,194.2669322583333,194.63679490833331,65.0,88.0
914,194.54090459166665,194.88679466249997,53.0,88.0
915,193.4450152583333,194.95186309166664,41.0,90.0
916,193.71898759166663,194.9655617083333,48.0,78.0
917,194.2669322583333,194.99467126874998,68.0,97.0
918,194.81487692499996,195.00494523124996,65.0,92.0
919,194.2669322583333,195.01008221249998,72.0,93.0
920,195.63679392499998,196.00665657499997,56.0,95.0
921,195.36282159166663,196.06316336874997,51.0,71.0
922,195.9107662583333,196.33713570208332,63.0,89.0
923,195.9107662583333,196.3422726833333,68.0,96.0
924,195.9107662583333,196.3525466458333,72.0,89.0
925,195.0888492583333,196.4604232520833,44.0,102.0
926,196.18473859166664,196.58028614791664,51.0,90.0
927,196.45871092499996,196.6093957083333,63.0,69.0
928,196.45871092499996,196.6299436333333,72.0,67.0
929,196.45871092499996,196.64877923124996,68.0,85.0
930,196.7326832583333,196.83371055624997,46.0,89.0
931,196.7326832583333,196.84227219166664,58.0,86.0
932,196.7326832583333,196.84227219166664,73.0,95.0
933,196.7326832583333,196.84398451874998,65.0,76.0
934,196.7326832583333,196.84740917291663,53.0,83.0
935,196.7326832583333,196.8508338270833,61.0,82.0
936,196.7326832583333,196.8508338270833,70.0,89.0
937,196.7326832583333,196.85254615416665,77.0,90.0
938,197.00665559166663,197.10425823541664,65.0,78.0
939,197.00665559166663,197.10939521666663,73.0,96.0
940,197.00665559166663,197.10939521666663,77.0,83.0
941,197.00665559166663,197.11966917916664,61.0,83.0
942,197.00665559166663,197.12138150624997,53.0,82.0
943,197.00665559166663,197.12309383333331,58.0,89.0
944,197.00665559166663,197.12994314166664,70.0,90.0
945,197.00665559166663,197.14192943124996,46.0,95.0
946,197.28062792499998,197.38336754999997,56.0,82.0
947,197.28062792499998,197.3902168583333,72.0,97.0
948,197.28062792499998,197.3953538395833,51.0,86.0
949,197.28062792499998,197.3953538395833,68.0,93.0
950,197.28062792499998,197.3953538395833,75.0,93.0
951,197.28062792499998,197.40905245624998,63.0,83.0
952,197.28062792499998,197.4210387458333,44.0,97.0
953,197.28062792499998,197.42446339999998,60.0,85.0
954,197.5546002583333,197.65049057499996,58.0,85.0
955,197.5546002583333,197.66076453749997,77.0,96.0
956,197.5546002583333,197.66418919166665,53.0,90.0
957,197.5546002583333,197.67275082708332,70.0,89.0
958,197.5546002583333,197.67446315416663,65.0,81.0
959,197.5546002583333,197.67617548124997,73.0,100.0
960,197.5546002583333,197.68131246249996,61.0,83.0
961,197.5546002583333,197.68987409791663,46.0,100.0
962,197.82857259166664,197.91932592708332,77.0,86.0
963,197.82857259166664,197.93131221666664,65.0,81.0
964,197.82857259166664,197.93473687083332,58.0,93.0
965,197.82857259166664,197.94329850624996,53.0,90.0
966,197.82857259166664,197.94329850624996,73.0,95.0
967,197.82857259166664,197.94843548749998,61.0,81.0
968,197.82857259166664,197.94843548749998,70.0,86.0
969,197.82857259166664,197.9604217770833,46.0,102.0
970,198.10254492499996,198.19843524166663,75.0,89.0
971,198.10254492499996,198.20528455,51.0,95.0
972,198.10254492499996,198.21042153124998,56.0,95.0
973,198.10254492499996,198.21042153124998,72.0,97.0
974,198.10254492499996,198.21555851249997,68.0,92.0
975,198.10254492499996,198.2172708395833,63.0,95.0
976,198.10254492499996,198.23096945624997,60.0,92.0
977,198.10254492499996,198.2326817833333,44.0,100.0
978,198.3765172583333,198.4792568833333,77.0,96.0
979,198.3765172583333,198.49295549999997,53.0,96.0
980,198.3765172583333,198.49295549999997,73.0,100.0
981,198.3765172583333,198.4946678270833,58.0,99.0
982,198.3765172583333,198.49638015416664,46.0,102.0
983,198.3765172583333,198.50151713541663,61.0,89.0
984,198.3765172583333,198.50151713541663,65.0,92.0
985,198.3765172583333,198.50322946249997,70.0,95.0
986,198.65048959166663,198.73953059999997,77.0,93.0
987,198.65048959166663,198.7463799083333,65.0,90.0
988,198.65048959166663,198.75322921666665,73.0,99.0
989,198.65048959166663,198.75494154374996,58.0,95.0
990,198.65048959166663,198.75836619791664,61.0,89.0
991,198.65048959166663,198.76007852499998,53.0,89.0
992,198.65048959166663,198.76521550624997,46.0,100.0
993,198.65048959166663,198.76521550624997,70.0,92.0
994,198.92446192499997,199.0186399145833,75.0,96.0
995,198.92446192499997,199.02035224166664,56.0,92.0
996,198.92446192499997,199.02548922291663,51.0,96.0
997,198.92446192499997,199.02548922291663,72.0,99.0
998,198.92446192499997,199.02720154999997,63.0,93.0
999,198.92446192499997,199.03233853124996,68.0,95.0
1000,198.92446192499997,199.03576318541664,60.0,97.0
1001,198.92446192499997,199.0443248208333,44.0,107.0
1002,199.1984342583333,199.30459853749997,46.0,107.0
1003,199.1984342583333,199.30802319166665,58.0,100.0
1004,199.1984342583333,199.30973551874996,53.0,99.0
1005,199.1984342583333,199.42617376041665,65.0,100.0
1006,199.1984342583333,199.42788608749999,70.0,100.0
1007,199.1984342583333,199.43473539583331,73.0,122.0
1008,199.1984342583333,199.43816004999996,61.0,100.0
1009,199.1984342583333,199.43816004999996,77.0,127.0
1010,199.47240659166664,199.5682969083333,58.0,96.0
1011,199.47240659166664,199.57685854374998,53.0,96.0
1012,199.47240659166664,199.58199552499997,70.0,89.0
1013,199.47240659166664,199.5837078520833,46.0,100.0
1014,199.47240659166664,199.59055716041664,73.0,100.0
1015,199.47240659166664,199.59055716041664,77.0,93.0
1016,199.47240659166664,199.6093927583333,61.0,99.0
1017,199.74637892499996,199.83370760625,72.0,107.0
1018,199.74637892499996,199.83370760625,75.0,100.0
1019,199.74637892499996,199.84398156874997,56.0,96.0
1020,199.74637892499996,199.84911855,51.0,97.0
1021,199.74637892499996,199.85425553124998,44.0,99.0
1022,199.74637892499996,199.8611048395833,60.0,95.0
1023,200.0203512583333,200.2206935270833,46.0,127.0
1024,200.0203512583333,200.22925516249998,61.0,117.0
1025,200.0203512583333,200.22925516249998,77.0,117.0
1026,200.0203512583333,200.23267981666663,70.0,95.0
1027,200.0203512583333,200.23952912499996,73.0,100.0
1028,200.0203512583333,200.26350170416663,58.0,100.0
1029,200.0203512583333,200.2720633395833,53.0,102.0
