,start,end,pitch,velocity
0,6.265167377083333,6.752319383333333,57.0,96.0
1,6.693432877083334,7.091362904166667,59.0,100.0
2,7.121698377083333,7.566023833333333,61.0,95.0
3,7.549963877083333,8.679514133333333,54.0,81.0
4,13.117415377083333,13.524267602083333,52.0,92.0
5,13.545680877083333,13.904353233333334,54.0,95.0
6,13.973946377083333,14.3361876125,57.0,88.0
7,14.402211877083333,15.231976283333333,61.0,122.0
8,15.258742877083334,15.49785778125,59.0,107.0
9,15.472875627083333,15.619199672916666,61.0,78.0
10,15.579942002083333,15.678086179166666,59.0,66.0
11,15.687008377083334,15.9314766,57.0,72.0
12,15.901141127083333,16.127764954166665,59.0,85.0
13,16.115273877083332,17.956815527083332,57.0,92.0
14,19.541397877083334,19.830477089583333,52.0,93.0
15,19.969663377083332,20.087436389583335,52.0,88.0
16,20.183796127083333,20.376515602083334,52.0,79.0
17,20.397928877083334,20.8244099375,57.0,92.0
18,20.826194377083333,21.106351391666667,59.0,83.0
19,21.040327127083334,21.22590884375,61.0,79.0
20,21.254459877083335,22.09314648125,64.0,90.0
21,22.539256377083333,22.946108602083335,69.0,100.0
22,22.967521877083332,23.51712926875,66.0,93.0
23,23.395787377083334,23.51712926875,66.0,102.0
24,23.824052877083332,24.26659389375,61.0,100.0
25,24.252318377083334,24.685937195833333,59.0,78.0
26,24.680583877083333,25.483581689583332,57.0,74.0
27,26.393645877083333,26.629191902083335,61.0,100.0
28,26.82191137708333,27.182368172916668,61.0,97.0
29,27.250176877083334,27.758742158333334,64.0,93.0
30,27.678442377083332,28.044252491666665,69.0,99.0
31,28.106707877083334,28.92398120625,69.0,97.0
32,28.963238877083334,29.366522222916668,66.0,100.0
33,29.391504377083333,29.589577170833333,64.0,85.0
34,29.605637127083334,29.867949745833332,66.0,93.0
35,29.819769877083335,31.181297279166667,64.0,89.0
36,33.24589387708333,33.50999093541667,61.0,95.0
37,33.674159377083335,34.068520525,61.0,107.0
38,34.10242487708333,34.54139701458333,64.0,97.0
39,34.53069037708333,34.83226066666666,69.0,92.0
40,34.95895587708333,35.6423962375,69.0,100.0
41,36.24375237708333,36.47037620416667,66.0,112.0
42,36.45788512708333,36.70056891041666,64.0,74.0
43,36.672017877083334,37.12169665208333,66.0,102.0
44,37.52854887708333,37.91041894791667,66.0,97.0
45,37.95681437708333,38.14239609375,61.0,90.0
46,38.17094712708333,38.41006203125,64.0,81.0
47,38.385079877083335,39.04353808333333,61.0,107.0
48,40.098141877083336,40.40149660625,52.0,90.0
49,40.52640737708333,40.956457316666665,52.0,90.0
50,40.740540127083335,41.061739252083335,57.0,76.0
51,41.382938377083335,41.6595265125,59.0,86.0
52,41.59707112708333,41.81655719583333,61.0,96.0
53,41.81120387708334,42.548177425,64.0,89.0
54,42.66773487708333,43.06744934375,64.0,89.0
55,43.096000377083335,43.33868416041667,57.0,83.0
56,43.31013312708333,43.542110272916666,61.0,79.0
57,43.52426587708333,44.52176760416667,59.0,89.0
58,46.95038987708333,47.23233133125,61.0,97.0
59,47.378655377083334,47.72840553541667,61.0,93.0
60,47.806920877083336,48.294072883333335,64.0,88.0
61,48.23518637708333,48.477870160416664,66.0,117.0
62,48.449319127083335,48.5760143375,69.0,79.0
63,48.66345187708333,49.55031835,69.0,100.0
64,49.734115627083334,49.957170575,69.0,81.0
65,49.94824837708333,50.190932160416665,66.0,88.0
66,50.162381127083336,50.36937611875,64.0,83.0
67,50.37651387708333,51.002852170833336,66.0,100.0
68,51.23304487708333,51.627406025,66.0,99.0
69,51.66131037708333,51.87544312708334,61.0,85.0
70,51.87544312708334,52.14667794375,64.0,77.0
71,52.089575877083334,53.087077604166666,61.0,99.0
72,53.802637877083335,54.163094672916664,66.0,96.0
73,54.23090337708333,54.621695645833334,64.0,82.0
74,54.65916887708333,55.039254508333336,59.0,90.0
75,55.08743437708333,55.347962556249996,61.0,88.0
76,55.30156712708333,55.41577126041667,64.0,93.0
77,55.515699877083335,56.208062435416664,64.0,95.0
78,57.228761877083336,57.651674058333334,52.0,89.0
79,57.65702737708333,58.06031072291667,54.0,88.0
80,58.08529287708333,58.56173824583333,61.0,81.0
81,58.513558377083335,58.95253051458333,59.0,82.0
82,58.94182387708333,60.49071743541666,57.0,92.0
83,61.08315137708333,61.54175235,59.0,88.0
84,61.511416877083334,62.31263025,61.0,85.0
85,62.153815127083334,63.047819358333335,64.0,93.0
86,64.93754087708334,65.23197340833333,61.0,112.0
87,65.36580637708333,65.62276567708334,64.0,81.0
88,65.57993912708334,65.77622748125,66.0,96.0
89,65.79407187708334,66.54353650208333,69.0,100.0
90,67.07886837708334,67.18236587291666,71.0,99.0
91,67.50713387708333,68.14417880833334,71.0,117.0
92,68.36366487708334,68.75267270625,69.0,112.0
93,68.79193037708333,69.02033864375,66.0,102.0
94,69.00606312708334,69.21305811875,69.0,92.0
95,69.22019587708333,70.2676619125,66.0,127.0
96,71.78978887708334,72.23589877291667,64.0,102.0
97,72.21805437708333,72.45360040208334,66.0,93.0
98,72.43218712708334,72.655242075,69.0,82.0
99,72.64631987708333,73.69913923125,66.0,112.0
100,73.93111637708333,74.35938187708334,66.0,102.0
101,74.35938187708334,74.75731190416667,61.0,99.0
102,74.78764737708333,75.00891788541666,59.0,82.0
103,75.00178012708334,75.21591287708333,57.0,69.0
104,75.21591287708333,75.71912483958333,59.0,89.0
105,75.64417837708334,75.99749741458334,61.0,85.0
106,76.07244387708333,77.54103765416667,64.0,97.0
107,78.64203687708333,78.99000259583333,61.0,112.0
108,79.07030237708334,79.33975275416667,64.0,96.0
109,79.28443512708333,79.50392119583333,66.0,93.0
110,79.49856787708333,80.1177684125,69.0,97.0
111,80.78336437708333,81.00285044583333,71.0,102.0
112,81.21162987708334,81.70056632291667,71.0,112.0
113,82.06816087708333,82.46965978333333,69.0,99.0
114,82.49642637708334,82.72126576458334,66.0,93.0
115,82.71055912708333,82.93539851458333,69.0,85.0
116,82.92469187708333,83.81691166875,66.0,112.0
117,85.49428487708333,85.80477736458333,64.0,100.0
118,85.92255037708333,86.15095864375,64.0,95.0
119,86.13668312708333,86.3918579875,69.0,92.0
120,86.35081587708333,86.88971663125,66.0,117.0
121,87.63561237708333,87.8265474125,64.0,100.0
122,87.84974512708334,88.04603348124999,66.0,69.0
123,88.06387787708333,88.30477722083333,61.0,100.0
124,88.70627612708333,88.93646883333334,61.0,97.0
125,88.92040887708333,89.28978787083334,57.0,93.0
126,89.34867437708333,89.80013759166667,54.0,77.0
127,89.77693987708334,90.60670428333333,52.0,76.0
128,91.06173637708334,91.32226455625,64.0,90.0
129,91.49000187708333,92.06280698333333,61.0,92.0
130,92.34653287708333,92.72304962916667,59.0,86.0
131,92.77479837708333,92.98357780833334,57.0,72.0
132,92.98893112708333,93.23161491041667,59.0,72.0
133,93.20306387708334,94.88579040416667,57.0,86.0
134,100.48357737708334,100.97072938333334,57.0,96.0
135,100.91184287708333,101.30977290416666,59.0,100.0
136,101.34010837708334,101.78443383333334,61.0,95.0
137,101.76837387708333,102.89792413333333,54.0,81.0
138,107.33582537708334,107.74267760208333,52.0,92.0
139,107.76409087708333,108.12276323333333,54.0,95.0
140,108.19235637708333,108.5545976125,57.0,88.0
141,108.62062187708334,109.45038628333333,61.0,122.0
142,109.47715287708333,109.71626778125,59.0,107.0
143,109.69128562708333,109.83760967291667,61.0,78.0
144,109.79835200208333,109.89649617916666,59.0,66.0
145,109.90541837708334,110.1498866,57.0,72.0
146,110.11955112708333,110.34617495416667,59.0,85.0
147,110.33368387708333,112.17522552708333,57.0,92.0
148,113.75980787708333,114.04888708958333,52.0,93.0
149,114.18807337708333,114.30584638958334,52.0,88.0
150,114.40220612708333,114.59492560208334,52.0,79.0
151,114.61633887708334,115.0428199375,57.0,92.0
152,115.04460437708333,115.32476139166667,59.0,83.0
153,115.25873712708334,115.44431884375,61.0,79.0
154,115.47286987708333,116.31155648125,64.0,90.0
155,116.75766637708334,117.16451860208333,69.0,100.0
156,117.18593187708333,117.73553926875,66.0,93.0
157,117.61419737708333,117.73553926875,66.0,102.0
158,118.04246287708334,118.48500389375,61.0,100.0
159,118.47072837708333,118.90434719583334,59.0,78.0
160,118.89899387708333,119.70199168958334,57.0,74.0
161,120.61205587708334,120.84760190208333,61.0,100.0
162,121.04032137708333,121.40077817291666,61.0,97.0
163,121.46858687708334,121.97715215833333,64.0,93.0
164,121.89685237708333,122.26266249166666,69.0,99.0
165,122.32511787708333,123.14239120625,69.0,97.0
166,123.18164887708333,123.58493222291666,66.0,100.0
167,123.60991437708333,123.80798717083333,64.0,85.0
168,123.82404712708333,124.08635974583333,66.0,93.0
169,124.03817987708334,125.39970727916666,64.0,89.0
170,127.46430387708334,127.72840093541667,61.0,95.0
171,127.89256937708333,128.286930525,61.0,107.0
172,128.32083487708334,128.75980701458334,64.0,97.0
173,128.74910037708332,129.05067066666666,69.0,92.0
174,129.17736587708333,129.8608062375,69.0,100.0
175,130.46216237708333,130.68878620416666,66.0,112.0
176,130.67629512708334,130.91897891041666,64.0,74.0
177,130.89042787708334,131.34010665208334,66.0,102.0
178,131.74695887708333,132.12882894791667,66.0,97.0
179,132.17522437708334,132.36080609375,61.0,90.0
180,132.38935712708334,132.62847203125,64.0,81.0
181,132.60348987708332,133.26194808333332,61.0,107.0
182,134.31655187708333,134.61990660625,52.0,90.0
183,134.74481737708334,135.17486731666668,52.0,90.0
184,134.95895012708334,135.28014925208333,57.0,76.0
185,135.60134837708333,135.87793651249999,59.0,86.0
186,135.81548112708333,136.03496719583333,61.0,96.0
187,136.02961387708334,136.766587425,64.0,89.0
188,136.88614487708332,137.28585934375,64.0,89.0
189,137.31441037708333,137.55709416041665,57.0,83.0
190,137.52854312708334,137.76052027291666,61.0,79.0
191,137.74267587708334,138.74017760416666,59.0,89.0
192,141.16879987708333,141.45074133125,61.0,97.0
193,141.59706537708334,141.94681553541668,61.0,93.0
194,142.02533087708332,142.51248288333332,64.0,88.0
195,142.45359637708333,142.69628016041668,66.0,117.0
196,142.66772912708333,142.7944243375,69.0,79.0
197,142.88186187708334,143.76872835,69.0,100.0
198,143.95252562708333,144.175580575,69.0,81.0
199,144.16665837708334,144.40934216041666,66.0,88.0
200,144.38079112708334,144.58778611875,64.0,83.0
201,144.59492387708335,145.22126217083334,66.0,100.0
202,145.45145487708334,145.845816025,66.0,99.0
203,145.87972037708334,146.09385312708332,61.0,85.0
204,146.09385312708332,146.36508794375,64.0,77.0
205,146.30798587708333,147.30548760416667,61.0,99.0
206,148.02104787708333,148.38150467291666,66.0,96.0
207,148.44931337708334,148.84010564583332,64.0,82.0
208,148.87757887708332,149.25766450833333,59.0,90.0
209,149.30584437708333,149.56637255625,61.0,88.0
210,149.51997712708334,149.63418126041665,64.0,93.0
211,149.73410987708334,150.42647243541666,64.0,95.0
212,151.44717187708332,151.87008405833333,52.0,89.0
213,151.87543737708333,152.27872072291666,54.0,88.0
214,152.30370287708334,152.78014824583335,61.0,81.0
215,152.73196837708332,153.17094051458332,59.0,82.0
216,153.16023387708333,154.70912743541666,57.0,92.0
217,155.30156137708335,155.76016235,59.0,88.0
218,155.72982687708333,156.53104025,61.0,85.0
219,156.37222512708334,157.26622935833333,64.0,93.0
220,159.15595087708334,159.45038340833332,61.0,112.0
221,159.58421637708332,159.84117567708333,64.0,81.0
222,159.79834912708333,159.99463748125,66.0,96.0
223,160.01248187708333,160.76194650208333,69.0,100.0
224,161.29727837708333,161.40077587291665,71.0,99.0
225,161.72554387708334,162.36258880833333,71.0,117.0
226,162.58207487708333,162.97108270625,69.0,112.0
227,163.01034037708334,163.23874864375,66.0,102.0
228,163.22447312708334,163.43146811875,69.0,92.0
229,163.43860587708332,164.4860719125,66.0,127.0
230,166.00819887708334,166.45430877291668,64.0,102.0
231,166.43646437708333,166.67201040208334,66.0,93.0
232,166.65059712708333,166.873652075,69.0,82.0
233,166.86472987708333,167.91754923125,66.0,112.0
234,168.14952637708333,168.57779187708334,66.0,102.0
235,168.57779187708334,168.97572190416668,61.0,99.0
236,169.00605737708332,169.22732788541666,59.0,82.0
237,169.22019012708333,169.43432287708333,57.0,69.0
238,169.43432287708333,169.93753483958332,59.0,89.0
239,169.86258837708334,170.21590741458334,61.0,85.0
240,170.29085387708332,171.75944765416668,64.0,97.0
241,172.86044687708332,173.20841259583332,61.0,112.0
242,173.28871237708333,173.55816275416666,64.0,96.0
243,173.50284512708333,173.72233119583333,66.0,93.0
244,173.71697787708334,174.3361784125,69.0,97.0
245,175.00177437708334,175.22126044583334,71.0,102.0
246,175.43003987708335,175.91897632291668,71.0,112.0
247,176.28657087708334,176.68806978333333,69.0,99.0
248,176.71483637708334,176.93967576458334,66.0,93.0
249,176.92896912708332,177.15380851458332,69.0,85.0
250,177.14310187708332,178.03532166875,66.0,112.0
251,179.71269487708332,180.02318736458332,64.0,100.0
252,180.14096037708333,180.36936864375,64.0,95.0
253,180.35509312708334,180.6102679875,69.0,92.0
254,180.56922587708334,181.10812663125,66.0,117.0
255,181.85402237708334,182.0449574125,64.0,100.0
256,182.06815512708334,182.26444348125,66.0,69.0
257,182.28228787708332,182.52318722083334,61.0,100.0
258,182.92468612708333,183.15487883333333,61.0,97.0
259,183.13881887708334,183.50819787083333,57.0,93.0
260,183.56708437708332,184.01854759166667,54.0,77.0
261,183.99534987708333,184.82511428333333,52.0,76.0
262,185.28014637708333,185.54067455625,64.0,90.0
263,185.70841187708334,186.28121698333334,61.0,92.0
264,187.43574939375,188.37436461458333,64.0,107.0
265,188.3190469875,188.715192575,66.0,95.0
266,188.69199486041666,189.00248734791666,69.0,97.0
267,189.15594915208334,192.95858990416667,69.0,127.0
