,start,end,pitch,velocity
0,24.038530977083333,24.75395553125,68.0,87.0
1,24.99597647708333,25.2685824875,65.0,94.0
2,25.315124977083332,25.9068794875,63.0,92.0
3,25.953421977083334,27.764589714583334,65.0,94.0
4,29.144906977083334,29.61299144375,68.0,92.0
5,29.783203977083332,29.970703720833335,65.0,91.0
6,30.102352477083333,30.333735139583332,65.0,94.0
7,30.421500977083333,30.941447075,63.0,90.0
8,31.059797977083335,32.632934125,65.0,90.0
9,34.251282977083335,35.017239377083335,68.0,92.0
10,35.20872847708333,35.53319611875,61.0,94.0
11,35.52787697708333,36.12495062916667,58.0,89.0
12,36.16617397708333,36.51457775625,63.0,86.0
13,36.485322477083336,38.76324489583333,61.0,93.0
14,39.35765897708333,40.030530397916664,58.0,93.0
15,39.995955977083334,40.2685619875,61.0,94.0
16,40.31510447708333,40.538508427083336,61.0,93.0
17,40.634252977083335,41.09435873125,61.0,94.0
18,41.27254997708334,43.25127067708333,63.0,93.0
19,44.14488647708333,44.40552441875,56.0,87.0
20,44.46403497708333,45.00525764166667,61.0,92.0
21,45.10233197708333,45.441427258333334,63.0,92.0
22,45.421480477083335,45.813767175,61.0,86.0
23,45.74062897708333,48.204721354166665,65.0,91.0
24,49.570410977083334,50.13158042291666,68.0,92.0
25,50.208707977083336,50.45737785,70.0,94.0
26,50.52785647708333,50.769877422916665,73.0,91.0
27,50.84700497708333,51.67945064791667,75.0,96.0
28,51.804450477083336,54.03317083541667,73.0,89.0
29,54.357638477083334,54.56109564583333,73.0,94.0
30,54.67678697708333,55.29114783958333,73.0,92.0
31,55.63423247708333,55.89487041875,58.0,90.0
32,55.953380977083334,56.56375248333333,63.0,89.0
33,56.591677977083336,58.64486666041667,61.0,92.0
34,59.783162977083336,60.42810890416666,58.0,93.0
35,60.42145997708333,60.938746504166666,61.0,92.0
36,61.05975697708333,61.34433105625,61.0,92.0
37,61.378905477083336,64.2126782,63.0,92.0
38,64.88953897708333,65.44272971041667,73.0,94.0
39,65.52783597708333,65.99725022916667,72.0,94.0
40,66.16613297708334,66.335015725,73.0,93.0
41,66.48528147708333,66.62623873125,72.0,93.0
42,66.80442997708333,66.97597229583333,73.0,93.0
43,67.12357847708333,67.31107822083334,72.0,94.0
44,67.44272697708334,67.88288595,68.0,92.0
45,68.08102397708333,68.30442792708334,63.0,93.0
46,68.39219376458334,68.72995926041666,65.0,87.0
47,68.71932097708333,69.35761797708334,68.0,92.0
48,69.35761797708334,70.24857420625,65.0,93.0
49,70.31506347708333,70.48660579583333,73.0,95.0
50,70.63421197708334,70.82437129166667,73.0,94.0
51,70.95336047708334,71.14351979166666,72.0,93.0
52,71.27250897708333,71.47064700416666,73.0,94.0
53,71.59165747708333,71.75921043958333,72.0,91.0
54,71.91080597708333,72.09564615,73.0,92.0
55,72.22995447708334,72.41878400625,72.0,88.0
56,72.54910297708334,72.73394315,68.0,88.0
57,72.86825147708333,73.06372993333333,63.0,88.0
58,73.18739997708333,73.4440485625,65.0,85.0
59,73.50654847708333,74.04644135625,68.0,88.0
60,74.14484547708334,75.20202488333334,65.0,93.0
61,75.42143947708334,75.6621306375,68.0,85.0
62,75.74058797708334,75.96399192708333,70.0,94.0
63,76.05973647708333,76.27915107083334,68.0,94.0
64,76.37888497708333,76.9068097875,70.0,96.0
65,77.01718197708334,77.30175605625,68.0,92.0
66,77.33633047708334,77.87489357083334,77.0,94.0
67,77.97462747708333,78.17808464583334,68.0,92.0
68,78.29377597708333,78.46797786666667,70.0,93.0
69,78.61292447708334,78.83233907083333,68.0,94.0
70,78.93207297708334,79.51717856041667,70.0,91.0
71,79.57036997708333,79.86292276875,68.0,92.0
72,79.88951847708333,80.84696397708333,77.0,93.0
73,81.16611247708333,81.38552707083333,77.0,93.0
74,81.48526097708333,81.74456913333333,78.0,94.0
75,81.80440947708334,82.05041977916666,77.0,94.0
76,82.12355797708334,82.40547248541667,75.0,96.0
77,82.44270647708333,82.63286579166666,73.0,92.0
78,82.76185497708333,82.95334407708333,73.0,90.0
79,83.08100347708333,83.3536094875,70.0,93.0
80,83.40015197708334,83.62355592708333,73.0,89.0
81,83.71930047708334,85.42541516666667,75.0,94.0
82,85.63419147708333,85.95333997708333,68.0,94.0
83,85.95333997708333,86.27248847708333,73.0,94.0
84,86.27248847708333,86.59163697708334,72.0,94.0
85,86.59163697708334,86.760519725,73.0,93.0
86,86.91078547708334,87.05174273125,72.0,93.0
87,87.22993397708333,87.40147629583333,73.0,93.0
88,87.54908247708333,87.73658222083333,72.0,94.0
89,87.86823097708333,88.30838995,68.0,92.0
90,88.50652797708334,88.72993192708333,63.0,93.0
91,88.81769776458333,89.15546326041667,65.0,87.0
92,89.14482497708333,89.78312197708333,68.0,92.0
93,89.78312197708333,90.67407820625,65.0,93.0
94,90.74056747708333,90.91210979583333,73.0,95.0
95,91.05971597708333,91.24987529166667,73.0,94.0
96,91.37886447708333,91.56902379166667,72.0,93.0
97,91.69801297708334,91.89615100416667,73.0,94.0
98,92.01716147708333,92.18471443958333,72.0,91.0
99,92.33630997708333,92.52115015,73.0,92.0
100,92.65545847708333,92.84428800625,72.0,88.0
101,92.97460697708333,93.15944715,68.0,88.0
102,93.29375547708334,93.48923393333334,63.0,88.0
103,93.61290397708333,93.8695525625,65.0,85.0
104,93.93205247708333,94.47194535625,63.0,88.0
105,94.57034947708333,95.62752888333333,65.0,93.0
106,95.84694347708333,96.0876346375,68.0,85.0
107,96.16609197708333,96.38949592708333,70.0,94.0
108,96.48524047708334,96.70465507083333,68.0,94.0
109,96.80438897708333,97.3323137875,70.0,96.0
110,97.44268597708333,97.72726005625,68.0,92.0
111,97.76183447708333,98.30039757083333,77.0,94.0
112,98.40013147708333,98.60358864583333,68.0,92.0
113,98.71927997708333,98.89348186666666,70.0,93.0
114,99.03842847708333,99.25784307083333,68.0,94.0
115,99.35757697708333,99.94268256041667,70.0,91.0
116,99.99587397708333,100.28842676875,68.0,92.0
117,100.31502247708333,101.27246797708334,77.0,93.0
118,101.59161647708333,101.81103107083334,77.0,93.0
119,101.91076497708333,102.17007313333333,78.0,94.0
120,102.22991347708333,102.47592377916666,77.0,94.0
121,102.54906197708333,102.83097648541667,75.0,96.0
122,102.86821047708334,103.05836979166666,73.0,92.0
123,103.18735897708333,103.37884807708333,73.0,90.0
124,103.50650747708333,103.7791134875,70.0,93.0
125,103.82565597708333,104.04905992708333,73.0,89.0
126,104.14480447708333,105.74054697708333,75.0,94.0
127,105.74054697708333,106.33762062916666,73.0,92.0
128,106.37884397708333,106.68735419375,68.0,85.0
129,106.69799247708333,107.35889582916667,75.0,95.0
130,107.33628947708333,109.49453120833333,73.0,94.0
131,126.16605097708333,126.88147553125,68.0,87.0
132,127.12349647708334,127.3961024875,65.0,94.0
133,127.44264497708333,128.0343994875,63.0,92.0
134,128.08094197708334,129.89210971458334,65.0,94.0
135,131.27242697708334,131.74051144375,68.0,92.0
136,131.91072397708334,132.09822372083335,65.0,91.0
137,132.22987247708332,132.46125513958333,65.0,94.0
138,132.54902097708333,133.068967075,63.0,90.0
139,133.18731797708332,134.760454125,65.0,90.0
140,136.37880297708332,137.14475937708335,68.0,92.0
141,137.33624847708333,137.66071611875,61.0,94.0
142,137.65539697708334,138.25247062916665,58.0,89.0
143,138.29369397708334,138.64209775625,63.0,86.0
144,138.61284247708332,140.89076489583334,61.0,93.0
145,141.48517897708334,142.15805039791667,58.0,93.0
146,142.12347597708333,142.3960819875,61.0,94.0
147,142.44262447708334,142.66602842708332,61.0,93.0
148,142.76177297708333,143.22187873125,61.0,94.0
149,143.40006997708332,145.37879067708334,63.0,93.0
150,146.27240647708334,146.53304441875,56.0,87.0
151,146.59155497708332,147.13277764166668,61.0,92.0
152,147.22985197708334,147.56894725833334,63.0,92.0
153,147.54900047708333,147.94128717499999,61.0,86.0
154,147.86814897708334,150.33224135416665,65.0,91.0
155,151.69793097708333,152.25910042291667,68.0,92.0
156,152.33622797708333,152.58489785,70.0,94.0
157,152.65537647708334,152.89739742291667,73.0,91.0
158,152.97452497708332,153.80697064791667,75.0,96.0
159,153.93197047708333,156.16069083541666,73.0,89.0
160,156.48515847708333,156.68861564583332,73.0,94.0
161,156.80430697708334,157.28302972708335,73.0,92.0
162,157.28302972708335,157.76175247708332,73.0,92.0
163,157.76175247708332,158.02239041875,63.0,90.0
164,158.08090097708333,158.69127248333334,65.0,89.0
165,158.71919797708333,159.03834647708334,63.0,92.0
166,159.03834647708334,160.77238666041666,61.0,92.0
167,161.59153447708334,161.88940641041665,58.0,83.0
168,161.91068297708333,162.49046941875,70.0,93.0
169,162.54897997708332,163.24711732083333,68.0,91.0
170,163.18727697708334,164.17663732708334,61.0,94.0
171,164.14472247708332,166.39737897291667,63.0,92.0
172,167.01705897708334,167.57024971041668,73.0,94.0
173,167.65535597708333,168.12477022916667,72.0,94.0
174,168.29365297708333,168.462535725,73.0,93.0
175,168.61280147708334,168.75375873125,72.0,93.0
176,168.93194997708332,169.10349229583332,73.0,93.0
177,169.25109847708333,169.43859822083334,72.0,94.0
178,169.57024697708334,169.80428921041667,68.0,92.0
179,169.89338483333333,170.11678878333333,63.0,93.0
180,170.20455462083333,170.54232011666667,65.0,87.0
181,170.53168183333332,171.16997883333335,68.0,92.0
182,171.16997883333335,172.0609350625,65.0,93.0
183,172.44258347708333,172.61412579583333,73.0,95.0
184,172.76173197708334,172.95189129166667,73.0,94.0
185,173.08088047708333,173.27103979166665,72.0,93.0
186,173.40002897708334,173.59816700416667,73.0,94.0
187,173.71917747708332,173.88673043958335,72.0,91.0
188,174.03832597708333,174.22316615,73.0,92.0
189,174.35747447708334,174.54630400625,72.0,88.0
190,174.67662297708333,174.86146315,68.0,88.0
191,174.99577147708334,175.19124993333332,63.0,88.0
192,175.31491997708332,175.5715685625,65.0,85.0
193,175.63406847708333,176.17396135625,68.0,88.0
194,176.27236547708333,177.32954488333334,65.0,93.0
195,177.54895947708334,177.7896506375,68.0,85.0
196,177.86810797708333,178.09151192708333,70.0,94.0
197,178.18725647708334,178.40667107083334,68.0,94.0
198,178.50640497708332,178.94922352083333,70.0,96.0
199,178.96385116041665,179.24842523958333,68.0,92.0
200,179.46385047708333,180.00241357083334,77.0,94.0
201,180.10214747708332,180.30560464583334,68.0,92.0
202,180.42129597708333,180.59549786666668,70.0,93.0
203,180.74044447708334,180.95985907083335,68.0,94.0
204,181.05959297708333,181.64469856041666,70.0,91.0
205,181.5954965,181.88804929166668,68.0,92.0
206,182.01703847708333,182.97448397708334,77.0,93.0
207,183.29363247708332,183.51304707083332,77.0,93.0
208,183.61278097708333,183.87208913333333,78.0,94.0
209,183.93192947708334,184.17793977916668,77.0,94.0
210,184.25107797708333,184.53299248541666,75.0,96.0
211,184.57022647708334,184.76038579166666,73.0,92.0
212,184.88937497708332,185.08086407708333,73.0,90.0
213,185.20852347708333,185.4811294875,70.0,93.0
214,185.52767197708334,185.75107592708332,73.0,89.0
215,185.84549069166667,185.98112880416667,73.0,97.0
216,186.0077245125,187.55293516666666,75.0,94.0
217,187.76171147708334,188.08085997708332,68.0,94.0
218,188.08085997708332,188.40000847708333,73.0,94.0
219,188.40000847708333,188.71915697708334,72.0,94.0
220,188.71915697708334,188.888039725,73.0,93.0
221,189.03830547708333,189.17926273125,72.0,93.0
222,189.35745397708334,189.52899629583334,73.0,93.0
223,189.67660247708332,189.86410222083333,72.0,94.0
224,189.99575097708333,190.43590995,68.0,92.0
225,190.3162292625,190.5396332125,63.0,93.0
226,190.62739905,190.92527098333332,65.0,87.0
227,190.95718583333334,191.20053656458333,65.0,97.0
228,191.26037690833334,191.5928232625,68.0,92.0
229,191.76170601041667,192.48377949166667,65.0,93.0
230,192.86808747708332,193.03962979583332,73.0,95.0
231,193.18723597708333,193.37739529166666,73.0,94.0
232,193.50638447708334,193.69654379166667,72.0,93.0
233,193.82553297708333,194.02367100416666,73.0,94.0
234,194.14468147708334,194.31223443958334,72.0,91.0
235,194.46382997708332,194.64867015,73.0,92.0
236,194.78297847708333,194.97180800625,72.0,88.0
237,195.10212697708334,195.28696715,68.0,88.0
238,195.42127547708333,195.61675393333334,63.0,88.0
239,195.74042397708334,195.9970725625,65.0,85.0
240,196.05957247708332,196.59946535625,63.0,88.0
241,196.69786947708334,197.75504888333333,65.0,93.0
242,197.97446347708333,198.2151546375,68.0,85.0
243,198.29361197708334,198.51701592708332,70.0,94.0
244,198.61276047708333,198.83217507083333,68.0,94.0
245,198.93190897708334,199.4598337875,70.0,96.0
246,199.37605730625,199.66063138541668,68.0,92.0
247,199.88935447708334,200.42791757083333,77.0,94.0
248,200.52765147708334,200.73110864583333,68.0,92.0
249,200.84679997708332,201.02100186666667,70.0,93.0
250,201.16594847708333,201.38536307083334,68.0,94.0
251,201.48509697708334,202.07020256041667,70.0,91.0
252,201.93988358958333,202.23243638125,68.0,92.0
253,202.44254247708332,203.39998797708333,77.0,93.0
254,203.71913647708334,203.93855107083334,77.0,93.0
255,204.03828497708332,204.29759313333332,78.0,94.0
256,204.35743347708333,204.60344377916667,77.0,94.0
257,204.67658197708334,204.95849648541667,75.0,96.0
258,204.99573047708333,205.18588979166665,73.0,92.0
259,205.31487897708334,205.50636807708332,73.0,90.0
260,205.63402747708332,205.9066334875,70.0,93.0
261,205.95317597708333,206.17657992708334,73.0,89.0
262,206.27232447708334,207.86806697708334,75.0,94.0
263,207.86806697708334,208.46514062916665,73.0,92.0
264,208.50636397708334,208.81487419375,68.0,85.0
265,208.82551247708332,209.48641582916667,75.0,95.0
266,209.46380947708334,210.32152107083334,77.0,94.0
267,210.69253120208333,210.80955231875,77.0,91.0
268,210.99173292083333,211.23375386666666,77.0,91.0
269,211.29758356666667,212.00768897916666,75.0,96.0
270,220.95315547708333,221.27230397708334,70.0,94.0
271,221.27230397708334,221.59145247708332,75.0,94.0
272,221.59145247708332,221.91060097708333,74.0,94.0
273,221.91060097708333,222.079483725,75.0,93.0
274,222.22974947708335,222.37070673125,74.0,93.0
275,222.54889797708333,222.72044029583333,75.0,93.0
276,222.86804647708334,223.05554622083332,74.0,94.0
277,223.18719497708332,223.62735394999999,70.0,92.0
278,223.82549197708335,224.04889592708332,65.0,93.0
279,224.13666176458332,224.47442726041666,67.0,87.0
280,224.46378897708334,225.10208597708333,70.0,92.0
281,225.10208597708333,225.99304220625,67.0,93.0
282,226.05953147708334,226.23107379583334,70.0,95.0
283,226.37867997708332,226.56883929166668,75.0,94.0
284,226.69782847708333,226.88798779166666,74.0,93.0
285,227.01697697708335,227.21511500416668,75.0,94.0
286,227.33612547708333,227.50367843958333,74.0,91.0
287,227.65527397708334,227.84011415,75.0,92.0
288,227.97442247708332,228.16325200625,74.0,88.0
289,228.29357097708333,228.47841115,70.0,88.0
290,228.61271947708335,228.80819793333333,65.0,88.0
291,228.93186797708333,229.1885165625,67.0,85.0
292,229.25101647708334,229.79090935625,70.0,88.0
293,229.88931347708333,230.94649288333332,67.0,93.0
294,231.16590747708332,231.4065986375,70.0,85.0
295,231.48505597708333,231.70845992708334,72.0,94.0
296,231.80420447708335,232.02361907083332,70.0,94.0
297,232.12335297708333,232.6512777875,72.0,96.0
298,232.76164997708332,233.04622405625,70.0,92.0
299,233.08079847708333,233.61936157083332,79.0,94.0
300,233.71909547708333,233.92255264583332,70.0,92.0
301,234.03824397708334,234.21244586666666,72.0,93.0
302,234.35739247708332,234.57680707083333,70.0,94.0
303,234.67654097708333,235.26164656041666,72.0,91.0
304,235.31483797708333,235.60739076875,70.0,92.0
305,235.63398647708334,236.59143197708335,79.0,93.0
306,236.91058047708333,237.12999507083333,79.0,93.0
307,237.22972897708334,237.48903713333334,80.0,94.0
308,237.54887747708332,237.79488777916666,79.0,94.0
309,237.86802597708333,238.14994048541666,77.0,96.0
310,238.18717447708335,238.37733379166667,75.0,92.0
311,238.50632297708333,238.69781207708334,75.0,90.0
312,238.82547147708334,239.0980774875,72.0,93.0
313,239.14461997708332,239.36802392708333,75.0,89.0
314,239.46376847708333,241.16988316666666,77.0,94.0
315,241.37865947708335,241.56482943541667,75.0,94.0
316,241.69780797708333,242.01695647708334,75.0,94.0
317,242.01695647708334,242.33610497708332,74.0,94.0
318,242.33610497708332,242.504987725,75.0,93.0
319,242.65525347708333,242.79621073125,74.0,93.0
320,242.97440197708335,243.14594429583335,75.0,93.0
321,243.29355047708333,243.48105022083334,74.0,94.0
322,243.61269897708334,244.05285795,70.0,92.0
323,244.24434705,244.467751,65.0,93.0
324,244.56216576458334,245.12067563958334,67.0,87.0
325,245.20312233541665,245.52758997708332,65.0,92.0
326,245.52758997708332,246.41854620625,67.0,93.0
327,246.48503547708333,246.65657779583333,75.0,95.0
328,246.80418397708334,246.99434329166667,75.0,94.0
329,247.12333247708332,247.31349179166668,74.0,93.0
330,247.44248097708333,247.64061900416667,75.0,94.0
331,247.76162947708332,247.92918243958334,74.0,91.0
332,248.08077797708333,248.26561815,75.0,92.0
333,248.39992647708334,248.58875600625,74.0,88.0
334,248.71907497708332,248.90391515,70.0,88.0
335,249.03822347708333,249.23370193333332,65.0,88.0
336,249.35737197708332,249.6140205625,67.0,85.0
337,249.67652047708333,250.21641335625,65.0,88.0
338,250.31481747708332,251.37199688333334,67.0,93.0
339,251.59141147708334,251.8321026375,70.0,85.0
340,251.91055997708332,252.13396392708333,72.0,94.0
341,252.22970847708334,252.44912307083334,70.0,94.0
342,252.54885697708332,253.0767817875,72.0,96.0
343,253.18715397708334,253.47172805625,70.0,92.0
344,253.50630247708332,254.04486557083334,79.0,94.0
345,254.14459947708332,254.34805664583334,70.0,92.0
346,254.46374797708333,254.63794986666667,72.0,93.0
347,254.78289647708334,255.00231107083334,70.0,94.0
348,255.10204497708332,255.68715056041665,72.0,91.0
349,255.74034197708332,256.03289476875,70.0,92.0
350,256.05949047708333,257.01693597708334,79.0,93.0
351,257.3360844770833,257.5554990708333,79.0,93.0
352,257.65523297708336,257.91454113333333,80.0,94.0
353,257.97438147708334,258.2203917791667,79.0,94.0
354,258.2935299770833,258.57544448541665,77.0,96.0
355,258.6126784770833,258.80283779166666,75.0,92.0
356,258.93182697708335,259.12331607708336,82.0,90.0
357,259.5701239770833,259.8427299875,82.0,93.0
358,259.88927247708335,260.5275694770833,75.0,89.0
359,260.5275694770833,263.08075747708335,77.0,94.0
360,264.03820297708336,264.621978775,75.0,97.0
361,264.6764999770833,264.97969105208335,70.0,94.0
362,264.9956484770833,265.53421157083335,77.0,94.0
363,265.63394547708333,268.33075030208335,75.0,96.0
364,274.2509549770833,274.834730775,75.0,99.0
365,274.88925197708335,275.1512197041667,70.0,93.0
366,275.20840047708333,275.7522827125,77.0,96.0
367,275.84669747708335,279.03286333541666,79.0,93.0
368,279.35733097708334,279.85733029375,75.0,99.0
369,279.99562797708336,280.28818076875,70.0,93.0
370,280.31477647708334,281.57408326666666,77.0,96.0
371,281.59137047708333,284.23631367083334,75.0,96.0
