,start,end,pitch,velocity
0,4.889620977083333,7.2553092333333336,61.0,80.0
1,4.889620977083333,7.291213439583333,56.0,79.0
2,7.442808977083334,7.632968291666667,61.0,79.0
3,7.442808977083334,7.659564,65.0,82.0
4,4.889620977083333,8.1063719,49.0,87.0
5,9.357699977083334,9.525252939583334,56.0,81.0
6,9.357699977083334,9.54652950625,61.0,80.0
7,9.995996977083333,10.829772433333334,58.0,75.0
8,9.995996977083333,10.90291063125,61.0,80.0
9,12.549184977083334,12.660886952083333,61.0,86.0
10,12.549184977083334,12.668865664583333,58.0,80.0
11,12.230036477083333,13.20077983125,53.0,58.0
12,9.995996977083333,13.432162493749999,46.0,86.0
13,15.102372977083332,15.5505106625,54.0,78.0
14,15.740669977083334,15.890935729166667,54.0,72.0
15,15.102372977083332,15.988010064583333,61.0,85.0
16,15.421521477083333,17.132955308333333,49.0,75.0
17,17.176838227083334,17.313806125,54.0,74.0
18,15.102372977083332,17.32976355,42.0,88.0
19,17.655560977083333,18.6622085375,58.0,83.0
20,17.655560977083333,18.708751027083334,61.0,87.0
21,17.655560977083333,18.96938896875,42.0,84.0
22,20.20874897708333,22.48002246875,60.0,80.0
23,20.20874897708333,22.486671395833334,56.0,77.0
24,22.761936977083334,22.920181441666667,60.0,87.0
25,22.761936977083334,22.941458008333335,56.0,84.0
26,22.761936977083334,22.941458008333335,63.0,84.0
27,22.442788477083333,24.644913127083335,51.0,64.0
28,20.20874897708333,24.739327891666665,44.0,88.0
29,25.315124977083332,25.515922575,56.0,82.0
30,25.315124977083332,25.686135108333332,61.0,81.0
31,25.634273477083333,25.869645495833332,56.0,72.0
32,25.953421977083334,26.135602579166665,61.0,71.0
33,26.59171897708333,26.718048591666665,56.0,88.0
34,26.59171897708333,26.82310163958333,65.0,92.0
35,25.315124977083332,27.192781985416666,37.0,84.0
36,27.230015977083333,27.340388166666667,61.0,73.0
37,27.868312977083335,28.011929802083333,37.0,79.0
38,27.868312977083335,28.015919158333332,56.0,78.0
39,27.868312977083335,28.11299349375,61.0,79.0
40,28.506609977083333,28.674162939583333,61.0,76.0
41,29.144906977083334,29.296502514583334,56.0,88.0
42,29.464055477083335,29.579746808333333,56.0,76.0
43,29.144906977083334,29.63692758125,65.0,93.0
44,29.783203977083332,29.962725008333333,61.0,82.0
45,30.421500977083333,30.70607505625,58.0,77.0
46,30.421500977083333,30.7738941125,61.0,82.0
47,31.059797977083335,31.2127233,61.0,80.0
48,31.059797977083335,31.214053085416666,58.0,73.0
49,31.698094977083333,31.803148025,65.0,88.0
50,31.698094977083333,31.829743733333334,58.0,86.0
51,32.33639197708333,32.49995558333333,58.0,73.0
52,30.740649477083334,32.59038099166666,53.0,74.0
53,30.421500977083333,32.672827687499996,46.0,88.0
54,32.97468897708333,33.33772039583333,58.0,73.0
55,32.97468897708333,33.34170975208333,61.0,74.0
56,33.293837477083336,33.72202838125,53.0,77.0
57,33.61298597708333,33.82841121458333,58.0,79.0
58,34.251282977083335,34.45872950208334,58.0,85.0
59,34.251282977083335,34.486654995833334,65.0,89.0
60,34.57043147708333,34.780537572916664,53.0,77.0
61,32.97468897708333,34.87628212291666,46.0,84.0
62,34.889579977083336,35.0823988625,58.0,84.0
63,35.52787697708333,35.8483552625,54.0,80.0
64,35.52787697708333,35.96404659375,61.0,87.0
65,36.16617397708333,36.309790802083334,58.0,72.0
66,36.804470977083334,36.95207715833333,54.0,87.0
67,36.804470977083334,37.0451621375,61.0,84.0
68,37.12361947708333,37.22335338333333,54.0,75.0
69,37.442767977083335,37.57840608958333,58.0,74.0
70,35.847025477083335,37.585055016666665,49.0,77.0
71,35.52787697708333,37.64223578958333,42.0,90.0
72,38.08106497708334,38.46404317708333,54.0,81.0
73,38.08106497708334,38.898883008333335,61.0,87.0
74,38.71936197708333,39.05978704375,54.0,79.0
75,39.35765897708333,39.469360952083335,54.0,87.0
76,39.35765897708333,39.79116902291667,61.0,87.0
77,39.67680747708334,39.824413658333334,54.0,86.0
78,38.400213477083334,39.86297743541667,49.0,77.0
79,38.08106497708334,39.976009195833335,42.0,92.0
80,39.995955977083334,40.127604733333335,58.0,82.0
81,40.634252977083335,40.97334825833333,56.0,85.0
82,40.634252977083335,41.12627358125,61.0,85.0
83,41.27254997708334,41.52520920625,56.0,85.0
84,40.95340147708333,41.993293672916664,51.0,71.0
85,41.91084697708333,42.16483599166666,56.0,88.0
86,41.91084697708333,42.23531461875,61.0,86.0
87,42.229995477083335,42.63292045833333,51.0,78.0
88,40.634252977083335,42.69675015833333,44.0,91.0
89,42.54914397708333,42.69675015833333,56.0,93.0
90,43.187440977083334,43.5557915375,56.0,83.0
91,43.187440977083334,43.9387697375,63.0,88.0
92,43.825737977083335,43.99329093958333,56.0,78.0
93,43.50658947708333,44.71669420625,51.0,84.0
94,43.187440977083334,44.9600449375,44.0,86.0
95,44.46403497708333,44.96403429375,60.0,81.0
96,44.46403497708333,44.97201300625,56.0,80.0
97,45.74062897708333,46.037171125,56.0,87.0
98,45.74062897708333,46.08371361458333,61.0,88.0
99,46.378925977083334,46.49727687916667,56.0,79.0
100,46.378925977083334,46.54647893958333,65.0,87.0
101,47.017222977083335,47.13823345,56.0,91.0
102,47.017222977083335,47.284509845833334,61.0,92.0
103,47.33637147708333,47.45206280833333,56.0,59.0
104,46.05977747708333,47.969349335416666,44.0,70.0
105,47.65551997708333,48.02785989375,61.0,76.0
106,45.74062897708333,48.09035980833333,37.0,84.0
107,47.974668477083334,48.1674873625,56.0,74.0
108,48.29381697708333,48.45605079791667,56.0,80.0
109,48.612965477083335,48.72732702291667,56.0,70.0
110,48.29381697708333,48.787167366666665,65.0,88.0
111,48.93211397708333,49.07972015833333,61.0,78.0
112,49.570410977083334,49.68610230833333,56.0,93.0
113,48.29381697708333,49.929453039583336,37.0,83.0
114,49.88955947708333,49.99993166666667,56.0,73.0
115,49.570410977083334,50.01455930625,65.0,92.0
116,50.208707977083336,50.40418643333334,61.0,81.0
117,50.84700497708333,51.10764291875,58.0,77.0
118,50.84700497708333,51.14753648125,61.0,84.0
119,51.48530197708333,51.56109974583333,58.0,63.0
120,51.166153477083334,51.68211021875,53.0,61.0
121,51.48530197708333,51.78583348125,61.0,72.0
122,51.804450477083336,52.09966283958333,53.0,60.0
123,52.12359897708333,52.269875372916665,61.0,88.0
124,52.12359897708333,52.287162583333334,65.0,93.0
125,52.44274747708333,52.860300097916664,53.0,63.0
126,52.761895977083334,52.861629883333336,58.0,68.0
127,52.761895977083334,52.89753408958333,61.0,72.0
128,50.84700497708333,53.003916922916666,46.0,89.0
129,53.400192977083336,53.731309545833334,58.0,72.0
130,53.400192977083336,53.77652225,61.0,80.0
131,53.71934147708333,54.19407487083333,53.0,73.0
132,54.03848997708333,54.41082989375,58.0,83.0
133,54.357638477083334,54.756574102083334,53.0,80.0
134,54.67678697708333,54.973329125,58.0,91.0
135,54.67678697708333,54.98263762291667,65.0,93.0
136,54.67678697708333,54.986626979166665,61.0,91.0
137,54.995935477083336,55.255243633333336,53.0,61.0
138,53.400192977083336,55.350988183333335,46.0,88.0
139,55.31508397708333,55.405509385416664,61.0,81.0
140,55.31508397708333,55.43077530833333,58.0,77.0
141,55.953380977083334,56.53316741875,54.0,83.0
142,55.953380977083334,56.60497583125,61.0,88.0
143,56.591677977083336,56.858964845833334,58.0,72.0
144,57.22997497708333,57.345666308333335,54.0,84.0
145,56.27252947708333,57.380240729166665,49.0,66.0
146,57.22997497708333,57.47731506458333,61.0,86.0
147,57.549123477083334,57.60098510833333,61.0,63.0
148,57.549123477083334,57.686091375,54.0,84.0
149,57.86827197708333,58.014548372916664,58.0,69.0
150,55.953380977083334,58.037154725,42.0,91.0
151,58.187420477083336,58.36694150833333,54.0,69.0
152,58.50656897708333,58.839015331249996,54.0,77.0
153,58.82571747708333,59.313748724999996,49.0,66.0
154,58.50656897708333,59.44406769583333,61.0,85.0
155,59.144865977083334,59.50124846875,54.0,78.0
156,59.783162977083336,59.966673364583336,54.0,91.0
157,59.783162977083336,60.01454563958333,61.0,88.0
158,59.942737227083335,60.256566585416664,49.0,80.0
159,58.50656897708333,60.388215341666665,42.0,88.0
160,60.26188572708333,60.63156607291667,54.0,83.0
161,60.740608477083335,60.8297041,58.0,66.0
162,61.05975697708333,61.369596979166666,60.0,82.0
163,61.05975697708333,61.38555440416667,56.0,83.0
164,61.378905477083336,61.75922410625,51.0,69.0
165,61.69805397708333,61.9786387,56.0,79.0
166,62.01720247708333,62.37890411041666,51.0,66.0
167,62.336350977083335,62.566403854166666,56.0,86.0
168,62.336350977083335,62.60230806041667,63.0,87.0
169,62.65549947708333,62.9600203375,51.0,77.0
170,61.05975697708333,62.985286260416665,44.0,87.0
171,62.974647977083336,63.082360595833336,56.0,79.0
172,63.61294497708333,63.92943390625,56.0,81.0
173,63.61294497708333,63.9334232625,60.0,81.0
174,63.61294497708333,63.97464661041666,63.0,86.0
175,64.25124197708334,64.48528421041667,56.0,72.0
176,63.932093477083335,64.97464524375,51.0,71.0
177,64.88953897708333,65.18741091041666,56.0,87.0
178,64.88953897708333,65.26586825,63.0,84.0
179,63.61294497708333,65.38687872291666,44.0,89.0
180,65.20868747708333,65.39751700625,51.0,84.0
181,65.52783597708333,65.68741022708333,56.0,88.0
182,66.16613297708334,66.48262190625,56.0,92.0
183,66.16613297708334,66.53581332291667,61.0,92.0
184,66.80442997708333,67.16081246875,56.0,98.0
185,67.12357847708333,67.23926980833333,61.0,91.0
186,66.48528147708333,67.56373745,44.0,82.0
187,67.44272697708334,67.63155650624999,56.0,99.0
188,66.16613297708334,67.76187547708334,37.0,90.0
189,67.44272697708334,67.77517333125,65.0,96.0
190,68.08102397708333,68.45735325,56.0,92.0
191,68.71932097708333,68.824374025,37.0,92.0
192,68.40017247708333,69.11027788958333,61.0,88.0
193,69.03846947708334,69.40549025208334,56.0,81.0
194,69.35761797708334,69.7419259625,61.0,92.0
195,69.67676647708333,69.84830879583333,56.0,91.0
196,69.99591497708333,70.12756373333333,56.0,96.0
197,69.99591497708333,70.32570176041666,61.0,99.0
198,70.31506347708333,70.52915892916667,56.0,88.0
199,69.99591497708333,70.69671189166667,65.0,98.0
200,70.63421197708334,70.73527566875,48.0,103.0
201,70.63421197708334,71.16612614375,60.0,93.0
202,71.27250897708333,71.58500855,58.0,86.0
203,71.27250897708333,71.61559361458333,61.0,91.0
204,71.59165747708333,71.9999016,53.0,86.0
205,71.91080597708333,72.2153268375,58.0,93.0
206,72.22995447708334,72.54378383541666,53.0,74.0
207,71.27250897708333,72.59963482291667,46.0,93.0
208,72.54910297708334,72.78048563958333,65.0,99.0
209,72.54910297708334,72.78447499583334,58.0,92.0
210,72.54910297708334,72.78713456666667,61.0,94.0
211,72.86825147708333,73.28580409791667,53.0,78.0
212,73.18739997708333,73.36027208125,58.0,86.0
213,73.50654847708333,74.24059002708333,61.0,87.0
214,74.14484547708334,74.5610683125,53.0,80.0
215,74.46399397708333,74.856280675,58.0,89.0
216,74.78314247708333,75.207344025,53.0,86.0
217,75.10229097708333,75.32303535625,58.0,93.0
218,75.10229097708333,75.49324788958333,61.0,101.0
219,75.10229097708333,75.51452445625,65.0,99.0
220,75.26186522708333,75.76186454375,53.0,83.0
221,73.82569697708334,75.8057474625,46.0,95.0
222,75.74058797708334,75.90016222708333,61.0,93.0
223,75.74058797708334,75.90415158333333,58.0,92.0
224,75.74058797708334,75.90814093958333,65.0,94.0
225,76.05973647708333,76.196704375,60.0,88.0
226,76.05973647708333,76.20734265833333,44.0,79.0
227,76.05973647708333,76.21532137083334,56.0,83.0
228,76.37888497708333,76.97196927291667,54.0,92.0
229,76.37888497708333,77.0185117625,58.0,93.0
230,77.01718197708334,77.25920292291667,61.0,85.0
231,76.53845922708334,77.63420241041666,49.0,74.0
232,77.65547897708333,77.85095743333333,54.0,95.0
233,77.65547897708333,77.92409563125,66.0,93.0
234,77.81505322708334,78.2312760625,49.0,81.0
235,78.29377597708333,78.42542473333333,58.0,92.0
236,76.37888497708333,78.51319057083333,42.0,93.0
237,78.29377597708333,78.52382885416667,61.0,92.0
238,78.61292447708334,78.74457323333333,54.0,90.0
239,78.93207297708334,79.31771074791666,53.0,93.0
240,78.93207297708334,79.41079572708334,56.0,93.0
241,79.57036997708333,79.74457186666666,60.0,93.0
242,79.09164722708333,79.91079504375,48.0,76.0
243,79.88951847708333,79.97329495833333,56.0,79.0
244,78.93207297708334,80.05973101041667,41.0,94.0
245,80.20866697708334,80.57169839583334,58.0,87.0
246,80.20866697708334,80.57967710833333,61.0,93.0
247,80.84696397708333,80.94669788333333,58.0,93.0
248,80.52781547708334,80.99855951458333,53.0,84.0
249,80.84696397708333,81.08233599583333,65.0,96.0
250,80.20866697708334,81.1195699875,46.0,96.0
251,81.16611247708333,81.36956964583334,58.0,86.0
252,81.48526097708333,81.65148415416667,58.0,91.0
253,81.48526097708333,81.99057943541666,66.0,92.0
254,81.80440947708334,82.0451006375,58.0,87.0
255,82.12355797708334,82.52781274375,63.0,92.0
256,82.44270647708333,82.64749343125,58.0,92.0
257,82.76185497708333,82.86956759583333,58.0,93.0
258,82.76185497708333,83.04509927083333,63.0,101.0
259,83.08100347708333,83.30041807083333,58.0,86.0
260,81.48526097708333,83.41610940208334,51.0,98.0
261,82.76185497708333,83.50919438125,66.0,98.0
262,83.40015197708334,83.51717309375,49.0,93.0
263,83.40015197708334,83.72594940416667,61.0,97.0
264,83.71930047708334,83.83499180833333,58.0,84.0
265,84.03844897708333,84.30972520208333,56.0,93.0
266,84.03844897708333,84.41078889375,60.0,94.0
267,84.35759747708333,84.85759679375,51.0,87.0
268,84.03844897708333,85.02647954166666,44.0,94.0
269,84.67674597708333,85.0450965375,63.0,97.0
270,84.99589447708334,85.15812829791666,60.0,90.0
271,84.67674597708333,85.16876658125,56.0,98.0
272,85.31504297708334,85.65546804375,68.0,92.0
273,85.31504297708334,85.69137225,63.0,95.0
274,85.31504297708334,85.71929774375,60.0,99.0
275,85.31504297708334,85.74589345208334,56.0,93.0
276,85.95333997708333,86.07966959166667,56.0,92.0
277,85.63419147708333,86.08099937708333,51.0,75.0
278,85.95333997708333,86.11158444166666,60.0,94.0
279,85.31504297708334,86.12089293958333,44.0,95.0
280,86.59163697708334,86.6887113125,37.0,93.0
281,86.59163697708334,86.72727508958333,56.0,92.0
282,86.59163697708334,86.952008825,61.0,93.0
283,86.91078547708334,87.04642358958333,56.0,84.0
284,87.22993397708333,87.39748693958333,61.0,84.0
285,87.54908247708333,87.66078445208333,56.0,86.0
286,87.86823097708333,87.98392230833333,56.0,97.0
287,87.86823097708333,88.11823063541667,65.0,101.0
288,88.18737947708334,88.34163458541667,56.0,81.0
289,88.50652797708334,88.66078308541667,61.0,96.0
290,88.82567647708333,89.25120781041666,56.0,88.0
291,89.14482497708333,89.345622575,61.0,93.0
292,89.14482497708333,89.41211184583334,49.0,93.0
293,89.14482497708333,89.46929261875,65.0,92.0
294,89.46397347708333,89.664771075,56.0,80.0
295,89.62354772708333,89.760515625,61.0,83.0
296,89.94269622708333,90.1514725375,56.0,79.0
297,90.26184472708333,90.35359992083333,37.0,94.0
298,90.42141897708333,90.58365279791667,61.0,94.0
299,90.58099322708333,90.58365279791667,61.0,39.0
300,90.58099322708333,90.77647168333333,56.0,84.0
301,90.42141897708333,90.80040782083333,65.0,96.0
302,91.05971597708333,91.15413074166666,56.0,85.0
303,90.90014172708334,91.22593915416667,48.0,94.0
304,91.05971597708333,91.38551340416667,60.0,85.0
305,91.69801297708334,91.87620422291667,58.0,87.0
306,91.69801297708334,92.05173589791667,61.0,93.0
307,92.01716147708333,92.42939495625,53.0,89.0
308,92.33630997708333,92.51583100833334,58.0,80.0
309,91.69801297708334,92.53444800416666,46.0,92.0
310,92.33630997708333,92.55173521458333,61.0,82.0
311,92.65545847708333,92.7445541,53.0,51.0
312,92.97460697708333,93.15678757916666,58.0,93.0
313,92.97460697708333,93.16476629166667,61.0,99.0
314,92.97460697708333,93.17008543333333,65.0,94.0
315,93.29375547708334,93.41077659375,53.0,80.0
316,93.61290397708333,94.14215857291667,58.0,90.0
317,94.25120097708333,94.48258363958334,58.0,87.0
318,94.25120097708333,94.57566861875,61.0,85.0
319,94.57034947708333,94.95864681875,53.0,84.0
320,94.25120097708333,95.03843394375,46.0,94.0
321,94.88949797708334,95.05705093958333,58.0,80.0
322,94.88949797708334,95.08763600416667,61.0,86.0
323,95.52779497708333,95.64348630833334,58.0,92.0
324,95.20864647708333,95.66210330416666,53.0,87.0
325,95.52779497708333,95.88550725416667,61.0,98.0
326,95.84694347708333,95.97460287708333,58.0,85.0
327,95.52779497708333,96.13151755625,65.0,96.0
328,96.16609197708333,96.28178330833333,44.0,92.0
329,96.16609197708333,96.34428322291667,60.0,86.0
330,96.16609197708333,96.366889575,56.0,88.0
331,96.80438897708333,97.36688820833334,54.0,86.0
332,96.80438897708333,97.38417541875,58.0,86.0
333,97.44268597708333,97.61688786666667,61.0,85.0
334,97.12353747708333,97.64481336041666,49.0,75.0
335,97.76183447708333,97.87885559375,54.0,75.0
336,98.08098297708334,98.45332289375,58.0,95.0
337,98.08098297708334,98.45598246458333,54.0,92.0
338,98.08098297708334,98.45864203541666,66.0,93.0
339,98.08098297708334,98.46795053333334,61.0,95.0
340,98.71927997708333,98.75784375416667,54.0,69.0
341,98.71927997708333,98.86954572916666,58.0,89.0
342,98.71927997708333,98.94002435624999,61.0,90.0
343,98.40013147708333,99.0716731125,49.0,79.0
344,96.80438897708333,99.14747088125,42.0,93.0
345,99.03842847708333,99.15411980833333,54.0,84.0
346,99.35757697708333,99.52114058333333,60.0,92.0
347,99.35757697708333,99.73390625,65.0,95.0
348,99.35757697708333,99.75651260208333,53.0,106.0
349,99.35757697708333,99.76981045625,68.0,88.0
350,99.67672547708334,99.82433165833334,60.0,93.0
351,99.99587397708333,100.10358659583333,65.0,83.0
352,100.31502247708333,100.86422385416667,58.0,90.0
353,100.31502247708333,100.90810677291667,61.0,94.0
354,101.27246797708334,101.4014571625,58.0,91.0
355,100.95331947708333,101.49587192708333,53.0,87.0
356,101.27246797708334,101.52113785,61.0,97.0
357,100.31502247708333,101.52645699166666,46.0,95.0
358,101.59161647708333,101.68337167083334,58.0,62.0
359,101.27246797708334,101.70065888124999,65.0,98.0
360,101.91076497708333,102.22326455,59.0,83.0
361,101.91076497708333,102.6301788875,63.0,88.0
362,102.54906197708333,102.69533837291667,59.0,84.0
363,102.22991347708333,103.10491228125,54.0,84.0
364,101.91076497708333,103.15278455625,47.0,103.0
365,102.86821047708334,103.28842266875,59.0,92.0
366,102.86821047708334,103.31368859166666,63.0,93.0
367,102.86821047708334,103.32698644583333,66.0,93.0
368,103.50650747708333,103.83097511875,59.0,101.0
369,103.50650747708333,103.95331537708333,63.0,98.0
370,104.14480447708333,104.75783555416666,60.0,95.0
371,104.14480447708333,104.7844312625,56.0,91.0
372,104.14480447708333,104.78709083333334,63.0,93.0
373,105.10224997708333,105.26980293958333,68.0,82.0
374,105.10224997708333,105.49320688958333,56.0,88.0
375,105.42139847708333,105.55304723333333,63.0,87.0
376,104.14480447708333,106.49320552291667,44.0,94.0
377,104.78310147708333,106.50251402083333,51.0,74.0
378,105.74054697708333,106.85224758541666,68.0,85.0
379,105.74054697708333,106.85224758541666,72.0,94.0
380,107.01714097708333,107.45331059375,54.0,87.0
381,107.01714097708333,107.75650166875,58.0,86.0
382,107.65543797708334,108.36155403333333,54.0,88.0
383,107.97458647708334,108.37751145833333,61.0,92.0
384,108.61288347708333,108.717936525,58.0,88.0
385,108.77245772708334,108.94400004583333,66.0,93.0
386,107.33628947708333,109.14745721458333,49.0,88.0
387,107.01714097708333,109.33096760208333,42.0,94.0
388,109.25118047708334,109.4280419375,54.0,60.0
389,109.57032897708334,109.91075404375,54.0,79.0
390,109.57032897708334,110.30038117083333,58.0,82.0
391,109.88947747708333,110.54639147291667,49.0,74.0
392,109.57032897708334,110.57298718125,61.0,84.0
393,110.20862597708333,110.58229567916666,54.0,79.0
394,110.36820022708334,110.63016795416667,58.0,68.0
395,109.57032897708334,110.68202958541667,42.0,93.0
396,110.84692297708334,111.271124525,56.0,88.0
397,110.84692297708334,111.494528475,60.0,88.0
398,110.84692297708334,111.71660263958333,44.0,94.0
399,111.48521997708333,111.74053877708333,56.0,90.0
400,111.16607147708334,111.75383663125,51.0,84.0
401,112.12351697708333,112.771122475,58.0,87.0
402,112.12351697708333,112.79904796875,61.0,88.0
403,113.08096247708333,113.19266445208333,70.0,92.0
404,113.08096247708333,113.19665380833334,58.0,93.0
405,113.71925947708333,113.8003763875,65.0,92.0
406,113.71925947708333,113.8083551,58.0,87.0
407,114.35755647708334,114.48255630625,58.0,67.0
408,112.44266547708334,114.52510943958333,53.0,83.0
409,112.12351697708333,114.53308815208334,46.0,93.0
410,114.67670497708333,115.09159802708334,58.0,86.0
411,114.67670497708333,115.31234240625,61.0,90.0
412,114.99585347708333,115.75383116458333,53.0,83.0
413,115.63415047708334,116.01579889166666,58.0,90.0
414,115.63415047708334,116.31766018125,65.0,93.0
415,115.63415047708334,116.34957503125,61.0,93.0
416,116.27244747708333,116.39345795,58.0,77.0
417,115.95329897708334,116.58361726458334,53.0,54.0
418,116.59159597708333,116.67936181458333,61.0,75.0
419,116.59159597708333,116.68335117083333,65.0,86.0
420,114.67670497708333,116.70196816666666,46.0,92.0
421,116.59159597708333,116.70994687916667,58.0,77.0
422,116.91074447708333,117.08228679583333,56.0,90.0
423,116.91074447708333,117.111542075,44.0,85.0
424,117.22989297708334,117.92005160833334,58.0,92.0
425,117.22989297708334,117.97191323958333,54.0,93.0
426,117.86818997708333,117.97856216666666,61.0,89.0
427,118.18733847708333,118.30701916458334,54.0,93.0
428,118.18733847708333,118.31366809166667,66.0,94.0
429,118.82563547708334,118.92138002708333,61.0,86.0
430,118.82563547708334,118.92536938333333,54.0,86.0
431,117.54904147708334,119.64877265,49.0,85.0
432,117.22989297708334,119.65808114791666,42.0,94.0
433,119.78308097708333,120.13680389791666,54.0,83.0
434,119.78308097708333,120.50781402916667,61.0,86.0
435,120.42137797708334,120.7418562625,54.0,92.0
436,120.74052647708334,120.7418562625,54.0,58.0
437,120.74052647708334,121.07829197291666,58.0,95.0
438,120.10222947708333,121.44930210416666,49.0,80.0
439,121.37882347708333,121.67669541041667,54.0,94.0
440,121.37882347708333,121.73520596875,66.0,89.0
441,121.69797197708333,122.06898210833333,49.0,88.0
442,119.78308097708333,122.10887567083333,42.0,92.0
443,122.01712047708334,122.17270537083333,54.0,96.0
444,122.30701369791666,122.46658794791666,39.0,97.0
445,122.46658794791666,122.62616219791667,43.0,97.0
446,122.62616219791667,122.78573644791666,46.0,97.0
447,122.78573644791666,122.94531069791667,49.0,97.0
448,122.94531069791667,123.10488494791666,51.0,97.0
449,123.10488494791666,123.26445919791666,55.0,97.0
450,123.26445919791666,123.42403344791667,58.0,97.0
451,123.42403344791667,123.58360769791666,61.0,97.0
452,123.58360769791666,123.74318194791667,63.0,97.0
453,123.74318194791667,123.90275619791666,67.0,97.0
454,123.90275619791666,124.06233044791666,70.0,97.0
455,124.06233044791666,124.22190469791667,73.0,97.0
456,124.22190469791667,124.38147894791666,75.0,97.0
457,124.38147894791666,124.54105319791667,79.0,97.0
458,124.54105319791667,124.70062744791666,82.0,97.0
459,124.70062744791666,124.86020169791666,85.0,97.0
460,124.88945697708333,126.05700857291667,39.0,93.0
461,124.88945697708333,126.37615707291667,79.0,90.0
462,124.88945697708333,126.38812514166666,67.0,71.0
463,124.88945697708333,126.39211449791667,75.0,88.0
464,124.86020169791666,126.39211449791667,87.0,97.0
465,124.88945697708333,126.40009321041667,73.0,88.0
466,127.44264497708333,127.643442575,56.0,82.0
467,127.44264497708333,127.81365510833334,61.0,81.0
468,127.76179347708333,127.99716549583333,56.0,72.0
469,128.08094197708334,128.26312257916666,61.0,71.0
470,128.71923897708334,128.84556859166668,56.0,88.0
471,128.71923897708334,128.95062163958335,65.0,92.0
472,127.44264497708333,129.32030198541668,37.0,84.0
473,129.35753597708333,129.46790816666666,61.0,73.0
474,129.99583297708332,130.13944980208333,37.0,79.0
475,129.99583297708332,130.14343915833334,56.0,78.0
476,129.99583297708332,130.24051349375,61.0,79.0
477,130.63412997708332,130.80168293958334,61.0,76.0
478,131.27242697708334,131.42402251458333,56.0,88.0
479,131.59157547708332,131.70726680833334,56.0,76.0
480,131.27242697708334,131.76444758125,65.0,93.0
481,131.91072397708334,132.09024500833334,61.0,82.0
482,132.54902097708333,132.83359505625,58.0,77.0
483,132.54902097708333,132.9014141125,61.0,82.0
484,133.18731797708332,133.3402433,61.0,80.0
485,133.18731797708332,133.34157308541666,58.0,73.0
486,133.82561497708332,133.930668025,65.0,88.0
487,133.82561497708332,133.95726373333332,58.0,86.0
488,134.46391197708334,134.62747558333334,58.0,73.0
489,132.86816947708334,134.71790099166665,53.0,74.0
490,132.54902097708333,134.8003476875,46.0,88.0
491,135.10220897708334,135.46524039583332,58.0,73.0
492,135.10220897708334,135.46922975208332,61.0,74.0
493,135.42135747708332,135.84954838125,53.0,77.0
494,135.74050597708333,135.95593121458333,58.0,79.0
495,136.37880297708332,136.58624950208332,58.0,85.0
496,136.37880297708332,136.61417499583334,65.0,89.0
497,136.69795147708334,136.90805757291668,53.0,77.0
498,135.10220897708334,137.00380212291665,46.0,84.0
499,137.01709997708332,137.2099188625,58.0,84.0
500,137.65539697708334,137.9758752625,54.0,80.0
501,137.65539697708334,138.09156659375,61.0,87.0
502,138.29369397708334,138.43731080208335,58.0,72.0
503,138.93199097708333,139.07959715833334,54.0,87.0
504,138.93199097708333,139.1726821375,61.0,84.0
505,139.25113947708334,139.35087338333332,54.0,75.0
506,139.57028797708332,139.70592608958333,58.0,74.0
507,137.97454547708332,139.71257501666668,49.0,77.0
508,137.65539697708334,139.76975578958334,42.0,90.0
509,140.20858497708332,140.59156317708334,54.0,81.0
510,140.20858497708332,141.02640300833335,61.0,87.0
511,140.84688197708334,141.18730704375,54.0,79.0
512,141.48517897708334,141.59688095208332,54.0,87.0
513,141.48517897708334,141.91868902291665,61.0,87.0
514,141.80432747708332,141.95193365833333,54.0,86.0
515,140.52773347708333,141.99049743541667,49.0,77.0
516,140.20858497708332,142.10352919583335,42.0,92.0
517,142.12347597708333,142.25512473333333,58.0,82.0
518,142.76177297708333,143.10086825833332,56.0,85.0
519,142.76177297708333,143.25379358125,61.0,85.0
520,143.40006997708332,143.65272920625,56.0,85.0
521,143.08092147708334,144.12081367291665,51.0,71.0
522,144.03836697708334,144.29235599166665,56.0,88.0
523,144.03836697708334,144.36283461875,61.0,86.0
524,144.35751547708333,144.76044045833333,51.0,78.0
525,142.76177297708333,144.82427015833332,44.0,91.0
526,144.67666397708334,144.82427015833332,56.0,93.0
527,145.31496097708333,145.6833115375,56.0,83.0
528,145.31496097708333,146.0662897375,63.0,88.0
529,145.95325797708333,146.12081093958332,56.0,78.0
530,145.63410947708334,146.84421420625,51.0,84.0
531,145.31496097708333,147.0875649375,44.0,86.0
532,146.59155497708332,147.09155429375,60.0,81.0
533,146.59155497708332,147.09953300625,56.0,80.0
534,147.86814897708334,148.164691125,56.0,87.0
535,147.86814897708334,148.21123361458334,61.0,88.0
536,148.50644597708333,148.62479687916667,56.0,79.0
537,148.50644597708333,148.67399893958333,65.0,87.0
538,149.14474297708333,149.26575345,56.0,91.0
539,149.14474297708333,149.41202984583333,61.0,92.0
540,149.46389147708334,149.57958280833333,56.0,59.0
541,148.18729747708332,150.09686933541667,44.0,70.0
542,149.78303997708332,150.15537989375,61.0,76.0
543,147.86814897708334,150.21787980833332,37.0,84.0
544,150.10218847708333,150.2950073625,56.0,74.0
545,150.42133697708334,150.58357079791668,56.0,80.0
546,150.74048547708333,150.85484702291666,56.0,70.0
547,150.42133697708334,150.91468736666667,65.0,88.0
548,151.05963397708334,151.20724015833332,61.0,78.0
549,151.69793097708333,151.81362230833332,56.0,93.0
550,150.42133697708334,152.05697303958334,37.0,83.0
551,152.01707947708334,152.12745166666667,56.0,73.0
552,151.69793097708333,152.14207930625,65.0,92.0
553,152.33622797708333,152.53170643333334,61.0,81.0
554,152.97452497708332,153.23516291875,58.0,77.0
555,152.97452497708332,153.27505648125,61.0,84.0
556,153.61282197708334,153.68861974583334,58.0,63.0
557,153.29367347708333,153.80963021875,53.0,61.0
558,153.61282197708334,153.91335348125,61.0,72.0
559,153.93197047708333,154.22718283958332,53.0,60.0
560,154.25111897708334,154.39739537291666,61.0,88.0
561,154.25111897708334,154.41468258333333,65.0,93.0
562,154.57026747708332,154.98782009791665,53.0,63.0
563,154.88941597708333,154.98914988333334,58.0,68.0
564,154.88941597708333,155.02505408958334,61.0,72.0
565,152.97452497708332,155.13143692291666,46.0,89.0
566,155.52771297708333,155.85882954583334,58.0,72.0
567,155.52771297708333,155.90404225,61.0,80.0
568,155.84686147708334,156.32159487083334,53.0,73.0
569,156.16600997708332,156.53834989375,58.0,83.0
570,156.48515847708333,156.88409410208334,53.0,80.0
571,156.80430697708334,157.100849125,58.0,91.0
572,156.80430697708334,157.11015762291666,65.0,93.0
573,156.80430697708334,157.11414697916666,61.0,91.0
574,157.12345547708333,157.38276363333333,53.0,61.0
575,155.52771297708333,157.47850818333333,46.0,88.0
576,157.44260397708334,157.53302938541665,61.0,81.0
577,157.44260397708334,157.55829530833333,58.0,77.0
578,158.08090097708333,158.66068741875,54.0,83.0
579,158.08090097708333,158.73249583125,61.0,88.0
580,158.71919797708333,158.98648484583333,58.0,72.0
581,159.35749497708332,159.47318630833334,54.0,84.0
582,158.40004947708334,159.50776072916668,49.0,66.0
583,159.35749497708332,159.60483506458334,61.0,86.0
584,159.67664347708333,159.72850510833334,61.0,63.0
585,159.67664347708333,159.813611375,54.0,84.0
586,159.99579197708334,160.14206837291667,58.0,69.0
587,158.08090097708333,160.164674725,42.0,91.0
588,160.31494047708333,160.49446150833333,54.0,69.0
589,160.63408897708334,160.96653533125,54.0,77.0
590,160.95323747708332,161.441268725,49.0,66.0
591,160.63408897708334,161.57158769583333,61.0,85.0
592,161.27238597708333,161.62876846875,54.0,78.0
593,161.91068297708333,162.09419336458333,54.0,91.0
594,161.91068297708333,162.14206563958334,61.0,88.0
595,162.07025722708335,162.38408658541667,49.0,80.0
596,160.63408897708334,162.51573534166667,42.0,88.0
597,162.38940572708333,162.75908607291666,54.0,83.0
598,162.86812847708333,162.9572241,58.0,66.0
599,163.18727697708334,163.49711697916666,60.0,82.0
600,163.18727697708334,163.51307440416667,56.0,83.0
601,163.50642547708333,163.88674410625,51.0,69.0
602,163.82557397708334,164.1061587,56.0,79.0
603,164.14472247708332,164.50642411041667,51.0,66.0
604,164.46387097708333,164.69392385416666,56.0,86.0
605,164.46387097708333,164.72982806041668,63.0,87.0
606,164.78301947708334,165.0875403375,51.0,77.0
607,163.18727697708334,165.11280626041668,44.0,87.0
608,165.10216797708333,165.20988059583334,56.0,79.0
609,165.74046497708332,166.05695390625,56.0,81.0
610,165.74046497708332,166.0609432625,60.0,81.0
611,165.74046497708332,166.10216661041667,63.0,86.0
612,166.37876197708334,166.61280421041667,56.0,72.0
613,166.05961347708333,167.10216524375,51.0,71.0
614,167.01705897708334,167.31493091041668,56.0,87.0
615,167.01705897708334,167.39338825,63.0,84.0
616,165.74046497708332,167.51439872291667,44.0,89.0
617,167.33620747708332,167.52503700625,51.0,84.0
618,167.65535597708333,167.81493022708332,56.0,88.0
619,168.29365297708333,168.61014190625,56.0,92.0
620,168.29365297708333,168.66333332291666,61.0,92.0
621,168.93194997708332,169.28833246874999,56.0,98.0
622,169.25109847708333,169.36678980833332,61.0,91.0
623,168.61280147708334,169.69125745,44.0,82.0
624,169.57024697708334,169.75907650625,56.0,99.0
625,168.29365297708333,169.88939547708333,37.0,90.0
626,169.57024697708334,169.90269333125,65.0,96.0
627,170.20854397708334,170.58487325,56.0,92.0
628,170.84684097708333,170.951894025,37.0,92.0
629,170.52769247708332,171.23779788958333,61.0,88.0
630,171.16598947708334,171.53301025208333,56.0,81.0
631,171.48513797708333,171.8694459625,61.0,92.0
632,171.80428647708334,171.97582879583334,56.0,91.0
633,172.12343497708332,172.25508373333332,56.0,96.0
634,172.12343497708332,172.45322176041665,61.0,99.0
635,172.44258347708333,172.65667892916667,56.0,88.0
636,172.12343497708332,172.82423189166667,65.0,98.0
637,172.76173197708334,172.86279566875,48.0,103.0
638,172.76173197708334,173.29364614375,60.0,93.0
639,173.40002897708334,173.71252855,58.0,86.0
640,173.40002897708334,173.74311361458334,61.0,91.0
641,173.71917747708332,174.1274216,53.0,86.0
642,174.03832597708333,174.3428468375,58.0,93.0
643,174.35747447708334,174.67130383541667,53.0,74.0
644,173.40002897708334,174.72715482291667,46.0,93.0
645,174.67662297708333,174.90800563958334,65.0,99.0
646,174.67662297708333,174.91199499583334,58.0,92.0
647,174.67662297708333,174.91465456666666,61.0,94.0
648,174.99577147708334,175.41332409791667,53.0,78.0
649,175.31491997708332,175.48779208125,58.0,86.0
650,175.63406847708333,176.36811002708333,61.0,87.0
651,176.27236547708333,176.6885883125,53.0,80.0
652,176.59151397708334,176.983800675,58.0,89.0
653,176.91066247708332,177.334864025,53.0,86.0
654,177.22981097708333,177.45055535625,58.0,93.0
655,177.22981097708333,177.62076788958333,61.0,101.0
656,177.22981097708333,177.64204445625,65.0,99.0
657,177.38938522708332,177.88938454375,53.0,83.0
658,175.95321697708334,177.9332674625,46.0,95.0
659,177.86810797708333,178.02768222708335,61.0,93.0
660,177.86810797708333,178.03167158333332,58.0,92.0
661,177.86810797708333,178.03566093958332,65.0,94.0
662,178.18725647708334,178.324224375,60.0,88.0
663,178.18725647708334,178.33486265833332,44.0,79.0
664,178.18725647708334,178.34284137083333,56.0,83.0
665,178.50640497708332,179.09948927291666,54.0,92.0
666,178.50640497708332,179.1460317625,58.0,93.0
667,179.14470197708334,179.38672292291668,61.0,85.0
668,178.66597922708334,179.76172241041667,49.0,74.0
669,179.78299897708334,179.97847743333332,54.0,95.0
670,179.78299897708334,180.05161563125,66.0,93.0
671,179.94257322708333,180.3587960625,49.0,81.0
672,180.42129597708333,180.55294473333333,58.0,92.0
673,178.50640497708332,180.64071057083333,42.0,93.0
674,180.42129597708333,180.65134885416666,61.0,92.0
675,180.74044447708334,180.87209323333335,54.0,90.0
676,181.05959297708333,181.44523074791667,53.0,93.0
677,181.05959297708333,181.53831572708333,56.0,93.0
678,181.69788997708332,181.87209186666666,60.0,93.0
679,181.21916722708335,182.03831504375,48.0,76.0
680,182.01703847708333,182.10081495833333,56.0,79.0
681,181.05959297708333,182.18725101041667,41.0,94.0
682,182.33618697708334,182.69921839583333,58.0,87.0
683,182.33618697708334,182.70719710833333,61.0,93.0
684,182.97448397708334,183.07421788333332,58.0,93.0
685,182.65533547708333,183.12607951458332,53.0,84.0
686,182.97448397708334,183.20985599583332,65.0,96.0
687,182.33618697708334,183.2470899875,46.0,96.0
688,183.29363247708332,183.49708964583334,58.0,86.0
689,183.61278097708333,183.77900415416667,58.0,91.0
690,183.61278097708333,184.11809943541667,66.0,92.0
691,183.93192947708334,184.1726206375,58.0,87.0
692,184.25107797708333,184.65533274375,63.0,92.0
693,184.57022647708334,184.77501343125,58.0,92.0
694,184.88937497708332,184.99708759583334,58.0,93.0
695,184.88937497708332,185.17261927083334,63.0,101.0
696,185.20852347708333,185.42793807083333,58.0,86.0
697,183.61278097708333,185.54362940208333,51.0,98.0
698,184.88937497708332,185.63671438125,66.0,98.0
699,185.52767197708334,185.64469309375,49.0,93.0
700,185.52767197708334,185.85346940416667,61.0,97.0
701,185.84682047708333,185.96251180833335,58.0,84.0
702,186.16596897708334,186.43724520208335,56.0,93.0
703,186.16596897708334,186.53830889374998,60.0,94.0
704,186.48511747708332,186.98511679375,51.0,87.0
705,186.16596897708334,187.15399954166668,44.0,94.0
706,186.80426597708333,187.1726165375,63.0,97.0
707,187.12341447708334,187.28564829791665,60.0,90.0
708,186.80426597708333,187.29628658125,56.0,98.0
709,187.44256297708333,187.78298804375,68.0,92.0
710,187.44256297708333,187.81889225,63.0,95.0
711,187.44256297708333,187.84681774375,60.0,99.0
712,187.44256297708333,187.87341345208333,56.0,93.0
713,188.08085997708332,188.20718959166666,56.0,92.0
714,187.76171147708334,188.20851937708332,51.0,75.0
715,188.08085997708332,188.23910444166665,60.0,94.0
716,187.44256297708333,188.24841293958335,44.0,95.0
717,188.71915697708334,188.8162313125,37.0,93.0
718,188.71915697708334,188.85479508958332,56.0,92.0
719,188.71915697708334,189.079528825,61.0,93.0
720,189.03830547708333,189.17394358958333,56.0,84.0
721,189.35745397708334,189.52500693958333,61.0,84.0
722,189.67660247708332,189.78830445208334,56.0,86.0
723,189.99575097708333,190.11144230833332,56.0,97.0
724,189.99575097708333,190.24575063541667,65.0,101.0
725,190.31489947708334,190.46915458541667,56.0,81.0
726,190.63404797708333,190.78830308541666,61.0,96.0
727,190.95319647708334,191.37872781041668,56.0,88.0
728,191.27234497708332,191.473142575,61.0,93.0
729,191.27234497708332,191.53963184583333,49.0,93.0
730,191.27234497708332,191.59681261875,65.0,92.0
731,191.59149347708333,191.792291075,56.0,80.0
732,191.75106772708332,191.888035625,61.0,83.0
733,192.07021622708334,192.2789925375,56.0,79.0
734,192.38936472708332,192.48111992083332,37.0,94.0
735,192.54893897708334,192.71117279791667,61.0,94.0
736,192.70851322708333,192.71117279791667,61.0,39.0
737,192.70851322708333,192.90399168333335,56.0,84.0
738,192.54893897708334,192.92792782083333,65.0,96.0
739,193.18723597708333,193.28165074166665,56.0,85.0
740,193.02766172708334,193.35345915416667,48.0,94.0
741,193.18723597708333,193.51303340416666,60.0,85.0
742,193.82553297708333,194.00372422291667,58.0,87.0
743,193.82553297708333,194.17925589791668,61.0,93.0
744,194.14468147708334,194.55691495625,53.0,89.0
745,194.46382997708332,194.64335100833333,58.0,80.0
746,193.82553297708333,194.66196800416665,46.0,92.0
747,194.46382997708332,194.67925521458332,61.0,82.0
748,194.78297847708333,194.8720741,53.0,51.0
749,195.10212697708334,195.28430757916666,58.0,93.0
750,195.10212697708334,195.29228629166667,61.0,99.0
751,195.10212697708334,195.29760543333333,65.0,94.0
752,195.42127547708333,195.53829659375,53.0,80.0
753,195.74042397708334,196.26967857291666,58.0,90.0
754,196.37872097708333,196.61010363958334,58.0,87.0
755,196.37872097708333,196.70318861875,61.0,85.0
756,196.69786947708334,197.08616681875,53.0,84.0
757,196.37872097708333,197.16595394375,46.0,94.0
758,197.01701797708333,197.18457093958332,58.0,80.0
759,197.01701797708333,197.21515600416666,61.0,86.0
760,197.65531497708332,197.77100630833334,58.0,92.0
761,197.33616647708334,197.78962330416667,53.0,87.0
762,197.65531497708332,198.01302725416667,61.0,98.0
763,197.97446347708333,198.10212287708333,58.0,85.0
764,197.65531497708332,198.25903755625,65.0,96.0
765,198.29361197708334,198.40930330833334,44.0,92.0
766,198.29361197708334,198.47180322291666,60.0,86.0
767,198.29361197708334,198.494409575,56.0,88.0
768,198.93190897708334,199.49440820833334,54.0,86.0
769,198.93190897708334,199.51169541875,58.0,86.0
770,199.57020597708333,199.74440786666668,61.0,85.0
771,199.25105747708332,199.77233336041667,49.0,75.0
772,199.88935447708334,200.00637559375,54.0,75.0
773,200.20850297708333,200.58084289375,58.0,95.0
774,200.20850297708333,200.58350246458332,54.0,92.0
775,200.20850297708333,200.58616203541666,66.0,93.0
776,200.20850297708333,200.59547053333333,61.0,95.0
777,200.84679997708332,200.88536375416666,54.0,69.0
778,200.84679997708332,200.99706572916668,58.0,89.0
779,200.84679997708332,201.06754435625,61.0,90.0
780,200.52765147708334,201.1991931125,49.0,79.0
781,198.93190897708334,201.27499088125,42.0,93.0
782,201.16594847708333,201.28163980833332,54.0,84.0
783,201.48509697708334,201.64866058333334,60.0,92.0
784,201.48509697708334,201.86142625,65.0,95.0
785,201.48509697708334,201.88403260208332,53.0,106.0
786,201.48509697708334,201.89733045625,68.0,88.0
787,201.80424547708333,201.95185165833334,60.0,93.0
788,202.12339397708334,202.23110659583332,65.0,83.0
789,202.44254247708332,202.99174385416666,58.0,90.0
790,202.44254247708332,203.03562677291666,61.0,94.0
791,203.39998797708333,203.5289771625,58.0,91.0
792,203.08083947708334,203.62339192708333,53.0,87.0
793,203.39998797708333,203.64865785,61.0,97.0
794,202.44254247708332,203.65397699166667,46.0,95.0
795,203.71913647708334,203.81089167083334,58.0,62.0
796,203.39998797708333,203.82817888125,65.0,98.0
797,204.03828497708332,204.35078455,59.0,83.0
798,204.03828497708332,204.7576988875,63.0,88.0
799,204.67658197708334,204.82285837291667,59.0,84.0
800,204.35743347708333,205.23243228125,54.0,84.0
801,204.03828497708332,205.28030455625,47.0,103.0
802,204.99573047708333,205.41594266875,59.0,92.0
803,204.99573047708333,205.44120859166665,63.0,93.0
804,204.99573047708333,205.45450644583335,66.0,93.0
805,205.63402747708332,205.95849511875,59.0,101.0
806,205.63402747708332,206.08083537708333,63.0,98.0
807,206.27232447708334,206.88535555416667,60.0,95.0
808,206.27232447708334,206.9119512625,56.0,91.0
809,206.27232447708334,206.91461083333334,63.0,93.0
810,207.22976997708332,207.39732293958332,68.0,82.0
811,207.22976997708332,207.62072688958332,56.0,88.0
812,207.54891847708333,207.68056723333333,63.0,87.0
813,206.27232447708334,208.62072552291667,44.0,94.0
814,206.91062147708334,208.63003402083334,51.0,74.0
815,207.86806697708334,208.97976758541665,68.0,85.0
816,207.86806697708334,208.97976758541665,72.0,94.0
817,209.14466097708333,209.48242647291667,66.0,94.0
818,209.30423522708332,209.59944758958332,54.0,90.0
819,209.14466097708333,209.62338372708334,42.0,94.0
820,209.46380947708334,209.66327728958333,58.0,86.0
821,209.62338372708334,209.83348982291668,66.0,93.0
822,209.78295797708333,210.05689377291665,54.0,93.0
823,209.62338372708334,210.10210647708334,42.0,94.0
824,209.94253222708332,210.17391488958333,58.0,89.0
825,210.10210647708334,210.32551042708334,66.0,93.0
826,210.26168072708333,210.526308025,54.0,94.0
827,210.42125497708332,210.60077600833333,58.0,91.0
828,210.10210647708334,210.74040347708333,42.0,94.0
829,210.58082922708334,210.79093532291665,66.0,92.0
830,210.74040347708333,210.97178613958334,54.0,96.0
831,210.89997772708332,211.10343489583335,58.0,92.0
832,211.05955197708334,211.28561549791667,66.0,94.0
833,210.74040347708333,211.37870047708333,42.0,94.0
834,211.21912622708334,211.45582803125,54.0,96.0
835,211.37870047708333,211.57417893333334,58.0,92.0
836,211.37870047708333,211.59013635833333,42.0,94.0
837,211.53827472708332,211.69784897708334,66.0,93.0
838,211.69784897708334,211.94518906458333,53.0,101.0
839,211.85742322708333,212.05157189791666,56.0,94.0
840,211.69784897708334,212.17657172708334,41.0,96.0
841,212.01699747708332,212.19119936666667,65.0,93.0
842,212.17657172708334,212.39199696458334,53.0,98.0
843,212.33614597708333,212.46912451875,56.0,93.0
844,212.17657172708334,212.65529447708334,41.0,96.0
845,212.49572022708332,212.65795404791666,65.0,94.0
846,212.65529447708334,212.88667713958333,53.0,98.0
847,212.81486872708334,212.9917301875,56.0,92.0
848,212.65529447708334,213.13401722708332,41.0,96.0
849,212.97444297708333,213.17922993125,65.0,95.0
850,213.13401722708332,213.34811267916666,53.0,101.0
851,213.29359147708334,213.45715508333333,56.0,97.0
852,213.13401722708332,213.61273997708332,41.0,96.0
853,213.45316572708333,213.6938568875,65.0,96.0
854,213.61273997708332,213.82417585833332,53.0,101.0
855,213.61273997708332,213.93188847708333,41.0,96.0
856,213.77231422708334,213.99305860625,56.0,94.0
857,213.93188847708333,214.18454770625,65.0,94.0
858,214.09146272708333,214.23773912291668,53.0,99.0
859,213.93188847708333,214.28162204166668,41.0,96.0
860,214.25103697708334,214.54491955416665,66.0,93.0
861,214.41061122708334,214.63800453333334,58.0,88.0
862,214.25103697708334,214.72975972708332,39.0,92.0
863,214.57018547708333,214.7789617875,63.0,84.0
864,214.72975972708332,214.95582324791667,66.0,95.0
865,214.88933397708334,215.10475921458334,58.0,90.0
866,214.72975972708332,215.20848247708332,39.0,92.0
867,215.04890822708333,215.26832282083333,63.0,84.0
868,215.20848247708332,215.36805672708334,44.0,92.0
869,215.20848247708332,215.38268436666667,66.0,95.0
870,215.36805672708334,215.48374805833333,58.0,92.0
871,215.36805672708334,215.52763097708333,46.0,92.0
872,215.52763097708333,215.68720522708333,47.0,99.0
873,215.52763097708333,215.6885350125,59.0,93.0
874,215.52763097708333,215.70316265208334,71.0,90.0
875,215.84677947708335,216.03028986458332,70.0,93.0
876,215.84677947708335,216.03427922083333,46.0,94.0
877,215.84677947708335,216.04624728958333,58.0,95.0
878,216.16592797708333,216.31619372916666,68.0,90.0
879,216.16592797708333,216.31752351458334,56.0,98.0
880,216.16592797708333,216.32284265625,44.0,94.0
881,216.48507647708334,216.72576763749998,54.0,96.0
882,216.48507647708334,216.73773570625,66.0,93.0
883,216.48507647708334,216.749703775,42.0,94.0
884,216.96379922708334,217.13667133125,56.0,99.0
885,216.80422497708332,217.22975631041666,32.0,99.0
886,217.12337347708333,217.28693708333333,61.0,93.0
887,217.28294772708333,217.36140506666666,63.0,97.0
888,217.60209622708334,217.72975562708334,61.0,95.0
889,217.44252197708335,217.74039391041666,56.0,94.0
890,217.22975631041666,217.76167047708333,32.0,99.0
891,216.80422497708332,217.92124472708332,44.0,99.0
892,217.76167047708333,217.94917022083334,68.0,99.0
893,217.92124472708332,218.07682962083334,73.0,86.0
894,217.76167047708333,218.08081897708334,32.0,99.0
895,218.08081897708334,218.24039322708333,75.0,99.0
896,218.29358464375,218.44518018125,73.0,88.0
897,218.24039322708333,218.50236095416668,68.0,95.0
898,218.39996747708332,218.52629709166666,75.0,91.0
899,218.50635031041668,218.73906275833332,80.0,97.0
900,218.61273314375,218.80289245833333,85.0,97.0
901,218.71911597708333,218.90262636458334,87.0,99.0
902,218.82549881041666,218.93188164375,92.0,97.0
903,218.93188164375,219.03826447708335,87.0,93.0
904,218.08081897708334,219.14464731041667,32.0,99.0
905,219.03826447708335,219.14464731041667,80.0,93.0
906,219.14464731041667,219.25103014375,75.0,93.0
907,219.25103014375,219.35741297708333,68.0,93.0
908,219.35741297708333,219.75900817291665,70.0,92.0
909,219.35741297708333,219.8215080875,58.0,93.0
910,219.35741297708333,219.82549744375,62.0,91.0
911,219.99570997708332,220.16725229583332,58.0,93.0
912,219.99570997708332,220.19916714583334,62.0,89.0
913,219.99570997708332,220.20581607291666,65.0,98.0
914,219.99570997708332,220.22044371249999,70.0,93.0
915,219.35741297708333,220.41326259791666,46.0,96.0
916,220.31485847708333,220.44650723333334,62.0,90.0
917,220.31485847708333,220.45049658958334,58.0,91.0
918,220.31485847708333,220.47044337083332,65.0,92.0
919,220.31485847708333,220.48108165416667,70.0,83.0
920,220.63400697708335,221.90395205,62.0,87.0
921,220.63400697708335,221.90661162083333,58.0,90.0
922,220.63400697708335,221.91592011875,46.0,94.0
923,220.63400697708335,221.91592011875,65.0,94.0
924,220.63400697708335,221.92522861666666,70.0,92.0
925,222.22974947708335,222.57682347083332,58.0,84.0
926,222.54889797708333,222.87868476041666,63.0,92.0
927,222.86804647708334,222.96778038333332,58.0,59.0
928,223.18719497708332,223.49038605208332,65.0,85.0
929,221.91060097708333,224.11139584166668,51.0,91.0
930,224.14464047708333,224.53293781874999,58.0,58.0
931,224.46378897708334,224.9757563625,67.0,81.0
932,224.78293747708332,225.11671361666666,58.0,78.0
933,225.10208597708333,225.44251104375,65.0,91.0
934,225.42123447708335,225.73107447916667,58.0,91.0
935,225.74038297708333,226.03293576875,63.0,89.0
936,224.46378897708334,226.16591431041667,51.0,88.0
937,226.37867997708332,226.51963723125,62.0,78.0
938,227.01697697708335,227.38665732291668,60.0,81.0
939,227.01697697708335,227.39729560625,63.0,85.0
940,227.65527397708334,227.96511397916666,62.0,87.0
941,227.97442247708332,228.11670951666667,63.0,91.0
942,227.33612547708333,229.30420789375,55.0,78.0
943,227.01697697708335,229.38266523333334,48.0,85.0
944,229.57016497708332,230.249685325,67.0,81.0
945,230.20846197708335,230.60739760208332,60.0,93.0
946,230.52761047708333,230.70048258125,67.0,97.0
947,229.88931347708333,230.93984395625,55.0,74.0
948,230.84675897708334,231.08213099583332,65.0,87.0
949,231.16590747708332,231.43319434583333,55.0,67.0
950,229.57016497708332,231.5741516,48.0,92.0
951,231.48505597708333,231.66856636458334,63.0,75.0
952,231.80420447708335,232.1087253375,62.0,70.0
953,232.12335297708333,232.71643727291666,56.0,92.0
954,232.12335297708333,232.7629797625,60.0,93.0
955,232.76164997708332,233.00367092291665,63.0,85.0
956,232.28292722708332,233.37867041041667,51.0,74.0
957,233.39994697708335,233.59542543333333,56.0,95.0
958,233.39994697708335,233.66856363125,68.0,93.0
959,233.55952122708334,233.97574406249998,51.0,81.0
960,234.03824397708334,234.16989273333334,60.0,92.0
961,232.12335297708333,234.25765857083334,44.0,93.0
962,234.03824397708334,234.26829685416666,63.0,92.0
963,234.35739247708332,234.48904123333332,56.0,90.0
964,234.67654097708333,235.06217874791668,55.0,93.0
965,234.67654097708333,235.15526372708334,58.0,93.0
966,235.31483797708333,235.48903986666667,62.0,93.0
967,234.83611522708333,235.65526304375,50.0,76.0
968,235.63398647708334,235.71776295833334,58.0,79.0
969,234.67654097708333,235.80419901041665,43.0,94.0
970,235.95313497708332,236.31616639583333,60.0,87.0
971,235.95313497708332,236.32414510833334,63.0,93.0
972,236.59143197708335,236.69116588333333,60.0,93.0
973,236.27228347708333,236.74302751458333,55.0,84.0
974,236.59143197708335,236.82680399583333,67.0,96.0
975,235.95313497708332,236.8640379875,48.0,96.0
976,236.91058047708333,237.11403764583332,60.0,86.0
977,237.22972897708334,237.39595215416668,60.0,91.0
978,237.22972897708334,237.73504743541667,68.0,92.0
979,237.54887747708332,237.7895686375,60.0,87.0
980,237.86802597708333,238.27228074375,65.0,92.0
981,238.18717447708335,238.39196143125,60.0,92.0
982,238.50632297708333,238.61403559583334,60.0,93.0
983,238.50632297708333,238.78956727083334,65.0,101.0
984,238.82547147708334,239.04488607083334,60.0,86.0
985,237.22972897708334,239.16057740208333,53.0,98.0
986,238.50632297708333,239.25366238125,68.0,98.0
987,239.14461997708332,239.26164109375,51.0,93.0
988,239.14461997708332,239.47041740416665,63.0,97.0
989,239.46376847708333,239.57945980833333,60.0,84.0
990,239.78291697708335,240.05419320208333,58.0,93.0
991,239.78291697708335,240.15525689375,62.0,94.0
992,240.10206547708333,240.60206479375,53.0,87.0
993,239.78291697708335,240.77094754166666,46.0,94.0
994,240.42121397708334,240.78956453749998,65.0,97.0
995,240.74036247708332,240.90259629791666,62.0,90.0
996,240.42121397708334,240.91323458125,58.0,98.0
997,241.05951097708333,241.39993604375,70.0,92.0
998,241.05951097708333,241.43584025,65.0,95.0
999,241.05951097708333,241.46376574375,62.0,99.0
1000,241.05951097708333,241.49036145208333,58.0,93.0
1001,241.69780797708333,241.82413759166667,58.0,92.0
1002,241.37865947708335,241.82546737708333,53.0,75.0
1003,241.69780797708333,241.85605244166666,62.0,94.0
1004,241.05951097708333,241.86536093958333,46.0,95.0
1005,242.33610497708332,242.4331793125,39.0,93.0
1006,242.33610497708332,242.47174308958333,58.0,92.0
1007,242.33610497708332,242.696476825,63.0,93.0
1008,242.65525347708333,242.79089158958334,58.0,84.0
1009,242.97440197708335,243.14195493958334,63.0,84.0
1010,243.29355047708333,243.40525245208335,58.0,86.0
1011,243.61269897708334,243.72839030833333,58.0,97.0
1012,243.61269897708334,243.86269863541668,67.0,101.0
1013,243.93184747708332,244.08610258541665,58.0,81.0
1014,244.25099597708333,244.40525108541667,63.0,96.0
1015,244.57014447708332,244.99567581041666,58.0,88.0
1016,244.88929297708333,245.090090575,63.0,93.0
1017,244.88929297708333,245.15657984583333,51.0,93.0
1018,244.88929297708333,245.21376061875,67.0,92.0
1019,245.20844147708334,245.409239075,58.0,80.0
1020,245.36801572708333,245.504983625,63.0,83.0
1021,245.68716422708334,245.8959405375,58.0,79.0
1022,246.00631272708333,246.09806792083333,39.0,94.0
1023,246.16588697708332,246.32812079791665,63.0,94.0
1024,246.32546122708334,246.32812079791665,63.0,39.0
1025,246.32546122708334,246.52093968333332,58.0,84.0
1026,246.16588697708332,246.54487582083334,67.0,96.0
1027,246.80418397708334,246.89859874166666,58.0,85.0
1028,246.64460972708332,246.97040715416668,50.0,94.0
1029,246.80418397708334,247.12998140416667,62.0,85.0
1030,247.44248097708333,247.62067222291665,60.0,87.0
1031,247.44248097708333,247.79620389791666,63.0,93.0
1032,247.76162947708332,248.17386295625,55.0,89.0
1033,248.08077797708333,248.26029900833333,60.0,80.0
1034,247.44248097708333,248.27891600416666,48.0,92.0
1035,248.08077797708333,248.29620321458333,63.0,82.0
1036,248.39992647708334,248.4890221,55.0,51.0
1037,248.71907497708332,248.90125557916667,60.0,93.0
1038,248.71907497708332,248.90923429166668,63.0,99.0
1039,248.71907497708332,248.91455343333334,67.0,94.0
1040,249.03822347708333,249.15524459375,55.0,80.0
1041,249.35737197708332,249.88662657291667,60.0,90.0
1042,249.99566897708334,250.22705163958332,60.0,87.0
1043,249.99566897708334,250.32013661875,63.0,85.0
1044,250.31481747708332,250.70311481875,55.0,84.0
1045,249.99566897708334,250.78290194375,48.0,94.0
1046,250.63396597708334,250.80151893958333,60.0,80.0
1047,250.63396597708334,250.83210400416667,63.0,86.0
1048,251.27226297708333,251.38795430833332,60.0,92.0
1049,250.95311447708332,251.40657130416668,55.0,87.0
1050,251.27226297708333,251.62997525416665,63.0,98.0
1051,251.59141147708334,251.71907087708334,60.0,85.0
1052,251.27226297708333,251.87598555625,67.0,96.0
1053,251.91055997708332,252.02625130833334,46.0,92.0
1054,251.91055997708332,252.08875122291667,62.0,86.0
1055,251.91055997708332,252.111357575,58.0,88.0
1056,252.54885697708332,253.11135620833332,56.0,86.0
1057,252.54885697708332,253.12864341875,60.0,86.0
1058,253.18715397708334,253.36135586666666,63.0,85.0
1059,252.86800547708333,253.38928136041667,51.0,75.0
1060,253.50630247708332,253.62332359375,56.0,75.0
1061,253.82545097708334,254.19779089375,60.0,95.0
1062,253.82545097708334,254.20045046458333,56.0,92.0
1063,253.82545097708334,254.20311003541667,68.0,93.0
1064,253.82545097708334,254.21241853333333,63.0,95.0
1065,254.46374797708333,254.50231175416667,56.0,69.0
1066,254.46374797708333,254.61401372916666,60.0,89.0
1067,254.46374797708333,254.68449235625,63.0,90.0
1068,254.14459947708332,254.8161411125,51.0,79.0
1069,252.54885697708332,254.89193888124998,44.0,93.0
1070,254.78289647708334,254.89858780833333,56.0,84.0
1071,255.10204497708332,255.26560858333332,62.0,92.0
1072,255.10204497708332,255.47837425,67.0,95.0
1073,255.10204497708332,255.50098060208333,55.0,106.0
1074,255.10204497708332,255.51427845625,70.0,88.0
1075,255.42119347708334,255.56879965833332,62.0,93.0
1076,255.74034197708332,255.84805459583333,67.0,83.0
1077,256.05949047708333,256.6086918541667,60.0,90.0
1078,256.05949047708333,256.65257477291664,63.0,94.0
1079,257.01693597708334,257.1459251625,60.0,91.0
1080,256.69778747708335,257.2403399270833,55.0,87.0
1081,257.01693597708334,257.26560585,63.0,97.0
1082,256.05949047708333,257.2709249916667,48.0,95.0
1083,257.3360844770833,257.42783967083335,60.0,62.0
1084,257.01693597708334,257.44512688125,67.0,98.0
1085,257.65523297708336,257.96773255,61.0,83.0
1086,257.65523297708336,258.3746468875,65.0,88.0
1087,258.2935299770833,258.4398063729167,61.0,84.0
1088,257.97438147708334,258.84938028125,56.0,84.0
1089,257.65523297708336,258.89725255625,49.0,103.0
1090,258.6126784770833,259.03289066875,61.0,92.0
1091,258.6126784770833,259.05815659166666,65.0,93.0
1092,258.6126784770833,259.07145444583335,68.0,93.0
1093,259.25097547708333,259.57544311875,61.0,101.0
1094,259.25097547708333,259.69778337708334,65.0,98.0
1095,259.88927247708335,260.50230355416664,62.0,95.0
1096,259.88927247708335,260.5288992625,58.0,91.0
1097,259.88927247708335,260.53155883333335,65.0,93.0
1098,260.84671797708336,261.01427093958335,70.0,82.0
1099,260.84671797708336,261.23767488958333,58.0,88.0
1100,261.16586647708334,261.29751523333334,65.0,87.0
1101,259.88927247708335,262.2376735229167,46.0,94.0
1102,260.5275694770833,262.24698202083334,53.0,74.0
1103,261.4850149770833,262.5967155854167,70.0,85.0
1104,261.4850149770833,262.5967155854167,74.0,94.0
1105,265.31479697708335,267.68048523333334,63.0,80.0
1106,265.31479697708335,267.71638943958334,58.0,79.0
1107,267.8679849770833,268.0581442916667,63.0,79.0
1108,267.8679849770833,268.08474,67.0,82.0
1109,265.31479697708335,268.5315479,51.0,87.0
1110,269.78287597708334,269.95042893958333,58.0,81.0
1111,269.78287597708334,269.97170550625,63.0,80.0
1112,270.42117297708336,271.2549484333333,60.0,75.0
1113,270.42117297708336,271.32808663125,63.0,80.0
1114,272.97436097708334,273.08606295208335,63.0,86.0
1115,272.97436097708334,273.09404166458336,60.0,80.0
1116,272.65521247708335,273.62595583125,55.0,58.0
1117,270.42117297708336,273.85733849375,48.0,86.0
1118,275.5275489770833,275.9756866625,56.0,78.0
1119,276.16584597708334,276.31611172916666,56.0,72.0
1120,275.5275489770833,276.41318606458333,63.0,85.0
1121,275.84669747708335,277.5581313083333,51.0,75.0
1122,277.6020142270833,277.738982125,56.0,74.0
1123,275.5275489770833,277.75493955,44.0,88.0
1124,278.08073697708335,279.0873845375,60.0,83.0
1125,278.08073697708335,279.13392702708336,63.0,87.0
1126,278.08073697708335,279.39456496875,44.0,84.0
1127,281.24562626875,281.441104725,53.0,86.0
1128,281.5767428375,281.68179588541665,55.0,96.0
1129,281.9184976895833,282.0860506520833,58.0,91.0
1130,282.2256781208333,282.36397580416667,63.0,92.0
1131,280.9278075541667,282.82009220208334,46.0,63.0
1132,280.6099888395833,282.877272975,39.0,94.0
1133,282.5833903979167,282.96636859791664,65.0,93.0
1134,282.9038686833333,283.11264499375,67.0,93.0
1135,283.24429375,283.3347191583333,67.0,74.0
1136,283.2762086,283.4583892020833,70.0,81.0
1137,283.64056980416666,283.79881426875,75.0,92.0
1138,284.0820585625,284.2735476625,77.0,94.0
1139,284.53817496041665,284.69508963958333,79.0,92.0
1140,283.26557031666664,284.84535539166666,39.0,88.0
1141,285.4384396875,285.61929050416666,79.0,75.0
1142,285.53950337916666,285.6924287020833,82.0,50.0
1143,285.6285990020833,285.75093926041666,87.0,78.0
1144,285.31476964375,286.39189583125,46.0,63.0
1145,285.1538656083333,286.4543957458333,39.0,76.0
