,start,end,pitch,velocity
0,0.43039761249999997,1.0454542666666666,61.0,88.0
1,1.1122156125,1.7251415854166665,61.0,77.0
2,1.7940336124999998,2.3615050520833334,61.0,72.0
3,2.4758516125,3.15127756875,61.0,78.0
4,3.1576696125,3.7166183270833333,61.0,89.0
5,3.8394876124999997,4.42968631875,61.0,83.0
6,4.5213056125,5.133521358333333,61.0,81.0
7,5.2031236125,5.786930275,61.0,89.0
8,5.8849416125,6.4630664583333335,61.0,73.0
9,6.566759612499999,7.134941279166666,61.0,72.0
10,7.2485776125,7.838066091666667,61.0,90.0
11,7.9303956125,8.53337840625,61.0,82.0
12,8.6122136125,9.17684414375,61.0,86.0
13,9.2940316125,9.8139178375,60.0,79.0
14,9.9758496125,10.517752877083334,60.0,83.0
15,10.6576676125,11.364343560416666,60.0,90.0
16,11.339485612499999,12.621445497916666,61.0,78.0
17,12.021303612499999,12.621445497916666,61.0,76.0
18,12.703121612499999,12.872155658333332,61.0,74.0
19,13.3849396125,13.96022355,61.0,82.0
20,14.0667576125,14.645592685416666,61.0,67.0
21,14.7485756125,15.2855072875,61.0,65.0
22,15.4303936125,16.03976845,61.0,81.0
23,16.112211612499998,16.7343705375,61.0,86.0
24,16.7940296125,17.376415820833333,61.0,53.0
25,17.4758476125,18.052552004166667,61.0,73.0
26,18.1576656125,18.717324554166666,61.0,79.0
27,18.8394836125,19.423290275,61.0,81.0
28,19.5213016125,20.19317643333333,61.0,93.0
29,20.2031196125,20.764199008333332,60.0,81.0
30,20.8849376125,21.43962496458333,60.0,67.0
31,21.5667556125,22.3338008625,60.0,77.0
32,22.2485736125,22.912635935416667,61.0,78.0
33,22.9303916125,23.530533497916664,61.0,76.0
34,23.6122096125,24.174709462499997,61.0,74.0
35,24.2940276125,24.86931155,61.0,82.0
36,24.9758456125,25.554680685416667,61.0,67.0
37,25.6576636125,26.1945952875,61.0,65.0
38,26.3394816125,26.948856449999997,61.0,81.0
39,27.0212996125,27.6434585375,61.0,86.0
40,27.703117612499998,28.28550382083333,61.0,53.0
41,28.384935612499998,28.961640004166664,61.0,73.0
42,29.066753612499998,29.626412554166667,61.0,79.0
43,29.748571612499997,30.332378275,61.0,81.0
44,30.430389612499997,31.102264433333332,61.0,93.0
45,31.112207612499997,31.673287008333332,60.0,81.0
46,31.7940256125,32.348712964583335,60.0,67.0
47,32.4758436125,33.242888862499996,60.0,77.0
48,33.1576616125,33.821723935416664,61.0,78.0
49,33.8394796125,34.43962149791667,61.0,76.0
50,34.5212976125,35.0837974625,61.0,74.0
51,35.2031156125,35.778399549999996,61.0,82.0
52,35.8849336125,36.46376868541667,61.0,67.0
53,36.5667516125,37.1036832875,61.0,65.0
54,37.2485696125,37.85794445,61.0,81.0
55,37.9303876125,38.5525465375,61.0,86.0
56,38.6122056125,39.19459182083333,61.0,53.0
57,39.2940236125,39.870728004166665,61.0,73.0
58,39.9758416125,40.53550055416667,61.0,79.0
59,40.6576596125,41.241466275,61.0,81.0
60,41.3394776125,42.01135243333333,61.0,93.0
61,42.0212956125,42.58237500833333,60.0,81.0
62,42.7031136125,43.25780096458333,60.0,67.0
63,43.3849316125,44.1519768625,60.0,77.0
64,44.0667496125,44.73081193541667,61.0,78.0
65,44.7485676125,45.348709497916666,61.0,76.0
66,45.4303856125,45.9928854625,61.0,74.0
67,46.1122036125,46.68748755,61.0,82.0
68,46.794021612499996,47.372856685416664,61.0,67.0
69,47.475839612499996,48.0127712875,61.0,65.0
70,48.157657612499996,48.767032449999995,61.0,81.0
71,48.839475612499996,49.4616345375,61.0,86.0
72,49.521293612499996,50.10367982083333,61.0,53.0
73,50.203111612499995,50.77981600416666,61.0,73.0
74,50.884929612499995,51.444588554166664,61.0,79.0
75,51.566747612499995,52.150554275,61.0,81.0
76,106.7940056125,107.34940319166667,61.0,112.0
77,107.4758236125,107.81957352083333,61.0,96.0
78,107.81673261249999,108.707357375,63.0,102.0
79,108.4985506125,109.00849365833334,65.0,100.0
80,109.18036861249999,110.18107857291666,60.0,117.0
81,110.54400461249999,110.80749886041666,61.0,102.0
82,110.8849136125,111.23292488333333,63.0,107.0
83,111.2258226125,111.54116343749999,61.0,95.0
84,111.56673161249999,111.98718604583333,60.0,90.0
85,111.90764061249999,112.52269726666667,61.0,96.0
86,112.5894586125,113.75849239166666,58.0,99.0
87,113.9530946125,114.10437298125,56.0,95.0
88,114.1235491125,114.27482748125,58.0,82.0
89,114.29400361249999,114.46729902083332,61.0,97.0
90,114.4644581125,114.63065125,58.0,96.0
91,114.63491261249999,114.89130458958333,61.0,96.0
92,115.3167306125,115.59584985625,65.0,127.0
93,115.65763961249999,116.03405996666666,66.0,99.0
94,115.9985486125,116.51275302083333,65.0,107.0
95,116.6803666125,116.991446075,68.0,117.0
96,117.02127561249999,117.35082097916666,66.0,97.0
97,117.3621846125,117.6178663625,65.0,93.0
98,117.7030936125,118.21303665833332,65.0,100.0
99,118.0440026125,118.80607627291666,61.0,97.0
100,119.4076386125,119.59371810833333,72.0,99.0
101,119.74854761249999,119.92468392916666,73.0,99.0
102,120.0894566125,120.45806446875,75.0,117.0
103,120.7712746125,121.13846201458333,73.0,99.0
104,121.11218361249999,121.44599034166666,68.0,97.0
105,121.4530926125,122.26488216874999,65.0,97.0
106,122.47581961249999,122.63135934374999,65.0,92.0
107,122.6462741125,122.84797860416666,66.0,90.0
108,122.8167286125,122.99499561041667,68.0,100.0
109,123.1576376125,123.45167162499999,68.0,102.0
110,123.4985466125,123.83448402291666,66.0,100.0
111,123.83945561249999,124.18249529375,61.0,95.0
112,124.1803646125,124.49499521041666,68.0,99.0
113,124.5212736125,124.92681327708333,66.0,100.0
114,124.86218261249999,125.07809164583333,61.0,100.0
115,125.20309161249999,125.39201201666665,68.0,107.0
116,125.5440006125,127.05039225624999,75.0,127.0
117,147.7030856125,147.88277306458332,56.0,86.0
118,148.0439946125,148.26345478125,56.0,77.0
119,148.38490361249998,148.56103992916667,56.0,73.0
120,148.7258126125,148.9474034625,56.0,88.0
121,149.0667216125,149.28121019166667,56.0,89.0
122,149.4076306125,149.61927828333333,56.0,95.0
123,149.7485396125,149.93817024375,56.0,99.0
124,150.0894486125,150.46231783125,56.0,102.0
125,150.4303576125,150.68035754583332,57.0,127.0
126,150.7712666125,150.99853927916666,57.0,107.0
127,151.11217561249998,151.31245965,57.0,112.0
128,151.4530846125,151.65620955833333,57.0,117.0
129,172.24853361249998,172.45876082916666,57.0,61.0
130,172.24853361249998,172.46089151041667,64.0,55.0
131,172.5894426125,172.79895960208333,57.0,64.0
132,172.5894426125,172.81742550625,64.0,77.0
133,172.9303516125,173.1348970125,57.0,88.0
134,172.9303516125,173.13844814791665,64.0,89.0
135,173.2712606125,173.463021925,57.0,86.0
136,173.2712606125,173.46373215208334,64.0,92.0
137,173.6121696125,173.80180024375,57.0,100.0
138,173.6121696125,173.80535137916667,64.0,95.0
139,173.95307861249998,174.13702742708332,57.0,107.0
140,173.95307861249998,174.14697060625,64.0,97.0
141,174.2939876125,174.44881711666665,57.0,100.0
142,174.2939876125,174.45662961458333,64.0,93.0
143,174.6348966125,174.90478290416667,57.0,122.0
144,174.6348966125,174.94100448541667,64.0,112.0
145,179.582338475,180.09228152083332,74.0,127.0
146,180.315292825,180.85009381875,72.0,127.0
147,181.20591758749998,181.78901402291666,70.0,117.0
148,182.173246875,183.03617278125,68.0,102.0
149,183.40762154583334,188.72580194583333,67.0,127.0
