,start,end,pitch,velocity
0,12.021303612499999,12.242894462499999,65.0,107.0
1,12.362212612499999,12.5752807375,65.0,86.0
2,12.703121612499999,12.90553633125,65.0,100.0
3,13.0440306125,13.217326020833333,65.0,89.0
4,13.3849396125,13.63636,65.0,102.0
5,13.7258486125,14.776984695833333,66.0,112.0
6,15.0894846125,15.257098204166667,66.0,112.0
7,15.4303936125,15.776274202083332,66.0,102.0
8,16.112211612499998,16.33451268958333,66.0,112.0
9,16.453120612499998,16.831671647916664,68.0,99.0
10,17.1349386125,17.7400520875,65.0,97.0
11,17.8167566125,18.022722466666664,65.0,99.0
12,18.1576656125,18.614341627083334,65.0,112.0
13,18.8394836125,19.085932410416667,66.0,96.0
14,19.1803926125,19.603687954166666,68.0,112.0
15,19.8622106125,20.51917066458333,63.0,97.0
16,22.9303916125,23.166897231249997,65.0,93.0
17,23.2713006125,23.475135785416665,65.0,86.0
18,23.6122096125,23.813914104166667,65.0,93.0
19,23.9531186125,24.133516291666666,65.0,86.0
20,24.2940276125,24.471584383333333,65.0,96.0
21,24.6349366125,25.473714797916667,66.0,102.0
22,25.9985726125,26.193174833333334,66.0,107.0
23,26.3394816125,26.787634902083333,66.0,102.0
24,27.0212996125,27.279822270833332,66.0,107.0
25,27.362208612499998,27.828117579166666,68.0,99.0
26,28.044026612499998,28.64771963333333,65.0,100.0
27,28.725844612499998,28.810361635416665,58.0,102.0
28,29.066753612499998,29.55894098125,65.0,99.0
29,29.748571612499997,29.99644086458333,65.0,96.0
30,30.089480612499997,30.543315718749998,68.0,127.0
31,30.771298612499997,31.872150591666664,63.0,100.0
32,33.8394796125,34.15624089166666,73.0,122.0
33,34.180388612499996,34.31959312083333,70.0,102.0
34,34.5212976125,34.781950952083335,70.0,102.0
35,34.862206612499996,35.177547437499996,68.0,122.0
36,35.2031156125,35.553967791666665,65.0,90.0
37,35.544024612499996,36.02697902916667,68.0,97.0
38,36.5667516125,36.88280266458333,73.0,117.0
39,36.907660612499996,37.06675147916666,70.0,95.0
40,37.2485696125,37.50709227083333,70.0,99.0
41,37.589478612499995,37.82882513958333,68.0,93.0
42,37.9303876125,38.27839888333333,65.0,90.0
43,38.271296612499995,38.73436467083333,68.0,96.0
44,39.2940236125,39.544733772916665,73.0,112.0
45,39.6349326125,39.775557575,70.0,117.0
46,39.9758416125,40.27200630625,70.0,96.0
47,40.3167506125,40.469449435416664,68.0,92.0
48,40.6576596125,40.934648175,65.0,95.0
49,40.9985686125,41.3394776125,63.0,93.0
50,41.1690231125,41.35297192708333,65.0,88.0
51,41.3394776125,42.60297159375,63.0,99.0
52,44.7485676125,45.06532889166667,73.0,122.0
53,45.0894766125,45.22868112083333,70.0,102.0
54,45.4303856125,45.69103895208333,70.0,102.0
55,45.7712946125,46.0866354375,68.0,122.0
56,46.1122036125,46.46305579166666,65.0,90.0
57,46.4531126125,46.936067029166665,68.0,97.0
58,47.475839612499996,47.791890664583335,73.0,117.0
59,47.8167486125,47.975839479166666,70.0,95.0
60,48.157657612499996,48.41618027083333,70.0,99.0
61,48.4985666125,48.737913139583334,68.0,93.0
62,48.839475612499996,49.18748688333333,65.0,90.0
63,49.1803846125,49.643452670833334,68.0,96.0
64,50.203111612499995,50.45382177291666,73.0,112.0
65,50.5440206125,50.684645575,70.0,117.0
66,50.884929612499995,51.181094306249996,70.0,96.0
67,51.2258386125,51.37853743541667,68.0,92.0
68,51.566747612499995,51.843736175,65.0,95.0
69,52.0781111125,52.24643493125,65.0,107.0
70,51.9076566125,52.248565612499995,63.0,93.0
71,52.248565612499995,53.809644741666666,63.0,100.0
72,55.9985646125,56.28620658125,68.0,107.0
73,56.3394736125,56.6249849,77.0,117.0
74,56.6803826125,56.99643366458333,75.0,127.0
75,57.0212916125,57.237910872916665,73.0,112.0
76,57.3622006125,58.306092406249995,73.0,112.0
77,58.7258366125,58.970154729166666,68.0,102.0
78,59.0667456125,59.296148960416666,77.0,122.0
79,59.4076546125,59.639898868749995,75.0,117.0
80,59.7485636125,59.926830610416665,73.0,107.0
81,60.089472612499996,60.68393268125,75.0,122.0
82,60.771290612499996,61.00282464166666,72.0,127.0
83,61.453108612499996,61.58165971458333,68.0,96.0
84,61.7940176125,62.17043796666666,77.0,97.0
85,62.134926612499996,62.432511760416666,75.0,100.0
86,62.4758356125,62.599415125,73.0,85.0
87,62.816744612499996,63.334500156249995,73.0,117.0
88,63.498562612499995,63.6775398375,70.0,112.0
89,63.8394716125,63.957369308333334,73.0,117.0
90,64.1803806125,64.34089193333332,70.0,97.0
91,64.5212896125,64.72157365,73.0,112.0
92,64.8621986125,65.04046561041666,70.0,102.0
93,65.20310761249999,65.41262460208333,73.0,122.0
94,65.5440166125,65.735777925,75.0,100.0
95,65.8849256125,66.41901637916666,77.0,122.0
96,66.2258346125,66.52128907916666,75.0,117.0
97,66.56674361249999,66.69671516875,73.0,117.0
98,66.9076526125,67.29188546458333,73.0,112.0
99,67.5894706125,67.7940160125,77.0,107.0
100,67.93037961249999,68.17256704791666,78.0,117.0
101,68.2712886125,68.6974248625,77.0,112.0
102,68.9531066125,69.23577699166667,73.0,100.0
103,69.29401561249999,69.43606102916667,73.0,117.0
104,69.6349246125,69.79117457083333,73.0,107.0
105,69.9758336125,70.21162900416667,73.0,122.0
106,70.3167426125,70.52839028333334,75.0,107.0
107,70.9985606125,71.44955481041666,77.0,122.0
108,71.6803786125,71.89131605624999,78.0,122.0
109,72.0212876125,72.21091824375,77.0,112.0
110,72.3621966125,72.53194088541666,75.0,102.0
111,72.7031056125,73.11858845625,73.0,112.0
112,73.3849236125,73.65054854166667,70.0,99.0
113,73.7258326125,73.95523596041666,73.0,117.0
114,74.40765061249999,74.55111648333333,70.0,102.0
115,74.7485596125,74.89912775416667,73.0,127.0
116,75.0894686125,75.24855947916666,70.0,95.0
117,75.4303776125,75.63705369374999,73.0,117.0
118,75.77128661249999,75.95949678958333,75.0,107.0
119,76.1121956125,76.31390010416666,77.0,117.0
120,76.4531046125,77.05111581666667,75.0,127.0
121,77.8167406125,78.05040532291666,68.0,102.0
122,78.1576496125,78.4431609,77.0,117.0
123,78.49855861249999,78.81460966458333,75.0,127.0
124,78.8394676125,79.05608687291667,73.0,112.0
125,79.1803766125,80.12426840625,73.0,112.0
126,80.5440126125,80.78833072916666,68.0,102.0
127,80.8849216125,81.11432496041667,77.0,122.0
128,81.22583061249999,81.45807486875,75.0,117.0
129,81.5667396125,81.74500661041667,73.0,107.0
130,81.9076486125,82.50210868125,75.0,122.0
131,82.58946661249999,82.82100064166666,72.0,127.0
132,83.2712846125,83.39983571458333,68.0,96.0
133,83.6121936125,83.98861396666666,77.0,97.0
134,83.95310261249999,84.25068776041667,75.0,100.0
135,84.2940116125,84.417591125,73.0,85.0
136,84.6349206125,85.15267615625,73.0,117.0
137,85.3167386125,85.4957158375,70.0,112.0
138,85.6576476125,85.77554530833334,73.0,117.0
139,85.9985566125,86.15906793333333,70.0,97.0
140,86.33946561249999,86.53974964999999,73.0,112.0
141,86.6803746125,86.85864161041667,70.0,102.0
142,87.0212836125,87.23080060208333,73.0,122.0
143,87.3621926125,87.553953925,75.0,100.0
144,87.70310161249999,88.23719237916666,77.0,122.0
145,88.0440106125,88.33946507916666,75.0,117.0
146,88.3849196125,88.51489116875,73.0,117.0
147,88.7258286125,89.11006146458332,73.0,112.0
148,89.4076466125,89.6121920125,77.0,107.0
149,89.7485556125,89.99074304791667,78.0,117.0
150,90.0894646125,90.5156008625,77.0,112.0
151,90.7712826125,91.05395299166666,73.0,100.0
152,91.1121916125,91.25423702916666,73.0,117.0
153,91.4531006125,91.60935057083333,73.0,107.0
154,91.79400961249999,92.02980500416666,73.0,122.0
155,92.1349186125,92.34656628333333,75.0,107.0
156,92.8167366125,93.26773081041667,77.0,122.0
157,93.4985546125,93.70949205625,78.0,122.0
158,93.8394636125,94.02909424375,77.0,112.0
159,94.1803726125,94.35011688541667,75.0,102.0
160,94.52128161249999,94.93676445625,73.0,112.0
161,95.2030996125,95.46872454166666,70.0,99.0
162,95.5440086125,95.77341196041667,73.0,117.0
163,96.2258266125,96.36929248333333,70.0,102.0
164,96.5667356125,96.71730375416666,73.0,127.0
165,96.9076446125,97.06673547916667,70.0,95.0
166,97.24855361249999,97.45522969375,73.0,117.0
167,97.5894626125,97.77767278958333,75.0,107.0
168,97.9303716125,98.13207610416666,77.0,117.0
169,98.2712806125,98.86929181666666,75.0,127.0
170,99.63491661249999,99.91616653749999,68.0,102.0
171,99.97582561249999,100.29045621041666,77.0,112.0
172,100.3167346125,100.63136521041666,75.0,117.0
173,100.6576436125,100.84230265416666,73.0,99.0
174,100.99855261249999,102.945995275,73.0,117.0
175,126.9076366125,127.19527858125,68.0,107.0
176,127.2485456125,127.5340569,77.0,117.0
177,127.58945461249999,127.90550566458333,75.0,127.0
178,127.93036361249999,128.14698287291665,73.0,112.0
179,128.27127261249998,129.21516440624998,73.0,112.0
180,129.6349086125,129.87922672916667,68.0,102.0
181,129.97581761249998,130.20522096041665,77.0,122.0
182,130.3167266125,130.54897086875,75.0,117.0
183,130.6576356125,130.83590261041667,73.0,107.0
184,130.99854461249998,131.59300468125,75.0,122.0
185,131.6803626125,131.91189664166666,72.0,127.0
186,132.3621806125,132.49073171458332,68.0,96.0
187,132.7030896125,133.07950996666665,77.0,97.0
188,133.0439986125,133.34158376041665,75.0,100.0
189,133.3849076125,133.508487125,73.0,85.0
190,133.72581661249998,134.24357215625,73.0,117.0
191,134.4076346125,134.5866118375,70.0,112.0
192,134.7485436125,134.86644130833332,73.0,117.0
193,135.0894526125,135.24996393333333,70.0,97.0
194,135.4303616125,135.63064565,73.0,112.0
195,135.7712706125,135.94953761041666,70.0,102.0
196,136.1121796125,136.32169660208334,73.0,122.0
197,136.45308861249998,136.644849925,75.0,100.0
198,136.7939976125,137.32808837916667,77.0,122.0
199,137.1349066125,137.43036107916666,75.0,117.0
200,137.47581561249999,137.60578716875,73.0,117.0
201,137.8167246125,138.20095746458333,73.0,112.0
202,138.4985426125,138.7030880125,77.0,107.0
203,138.8394516125,139.08163904791667,78.0,117.0
204,139.18036061249998,139.6064968625,77.0,112.0
205,139.8621786125,140.14484899166666,73.0,100.0
206,140.20308761249998,140.34513302916667,73.0,117.0
207,140.5439966125,140.70024657083331,73.0,107.0
208,140.8849056125,141.12070100416665,73.0,122.0
209,141.2258146125,141.43746228333333,75.0,107.0
210,141.90763261249998,142.35862681041667,77.0,122.0
211,142.5894506125,142.80038805625,78.0,122.0
212,142.93035961249998,143.11999024374998,77.0,112.0
213,143.2712686125,143.44101288541665,75.0,102.0
214,143.6121776125,144.02766045625,73.0,112.0
215,144.2939956125,144.55962054166667,70.0,99.0
216,144.63490461249998,144.86430796041665,73.0,117.0
217,145.3167226125,145.46018848333333,70.0,102.0
218,145.65763161249998,145.80819975416665,73.0,127.0
219,145.9985406125,146.15763147916667,70.0,95.0
220,146.3394496125,146.54612569374999,73.0,117.0
221,146.6803586125,146.86856878958332,75.0,107.0
222,147.0212676125,147.22297210416667,77.0,117.0
223,147.3621766125,149.3053579125,75.0,127.0
224,150.4303576125,151.21728922083332,76.0,127.0
225,151.4530846125,151.68674932291665,69.0,102.0
226,151.7939936125,152.0795049,78.0,117.0
227,152.13490261249999,152.45095366458332,76.0,127.0
228,152.4758116125,152.69243087291667,74.0,112.0
229,152.8167206125,153.76061240625,74.0,112.0
230,154.1803566125,154.42467472916667,69.0,102.0
231,154.5212656125,154.75066896041665,78.0,122.0
232,154.86217461249998,155.09441886874998,76.0,117.0
233,155.2030836125,155.38135061041666,74.0,107.0
234,155.5439926125,156.13845268125,76.0,122.0
235,156.2258106125,156.45734464166665,73.0,127.0
236,156.9076286125,157.03617971458334,69.0,96.0
237,157.2485376125,157.62495796666667,78.0,97.0
238,157.58944661249998,157.88703176041665,76.0,100.0
239,157.9303556125,158.05393512499998,74.0,85.0
240,158.2712646125,158.78902015625,74.0,117.0
241,158.9530826125,159.13205983749998,71.0,112.0
242,159.29399161249998,159.41188930833331,74.0,117.0
243,159.6349006125,159.79541193333333,71.0,97.0
244,159.9758096125,160.17609364999998,74.0,112.0
245,160.31671861249998,160.49498561041665,71.0,102.0
246,160.6576276125,160.86714460208333,74.0,122.0
247,160.9985366125,161.19029792499998,76.0,100.0
248,161.3394456125,161.87353637916667,78.0,122.0
249,161.6803546125,161.97580907916665,76.0,117.0
250,162.0212636125,162.15123516875,74.0,117.0
251,162.3621726125,162.74640546458332,74.0,112.0
252,163.04399061249998,163.24853601249998,78.0,107.0
253,163.3848996125,163.62708704791666,79.0,117.0
254,163.7258086125,164.1519448625,78.0,112.0
255,164.4076266125,164.69029699166666,74.0,100.0
256,164.7485356125,164.89058102916667,74.0,117.0
257,165.0894446125,165.24569457083334,74.0,107.0
258,165.4303536125,165.66614900416667,74.0,122.0
259,165.77126261249998,165.98291028333333,76.0,107.0
260,166.4530806125,166.90407481041666,78.0,122.0
261,167.1348986125,167.34583605625,79.0,122.0
262,167.4758076125,167.66543824375,78.0,112.0
263,167.8167166125,167.98646088541665,76.0,102.0
264,168.1576256125,168.57310845625,74.0,112.0
265,168.8394436125,169.10506854166667,71.0,99.0
266,169.1803526125,169.40975596041665,74.0,117.0
267,169.8621706125,170.00563648333332,71.0,102.0
268,170.2030796125,170.35364775416667,74.0,127.0
269,170.5439886125,170.70307947916666,71.0,95.0
270,170.8848976125,171.09157369375,74.0,117.0
271,171.22580661249998,171.41401678958331,76.0,107.0
272,171.5667156125,171.76842010416667,78.0,117.0
273,171.9076246125,174.97580561249998,76.0,127.0
274,175.9985326125,176.22154391666666,69.0,117.0
275,176.3394416125,176.7059187875,78.0,102.0
276,176.85080511249998,177.2087595625,76.0,117.0
277,177.1917141125,177.40975382708334,74.0,122.0
278,177.70307761249998,181.63134361041665,74.0,127.0
