,start,end,pitch,velocity
0,0.43039761249999997,1.9630676583333333,46.0,54.0
1,0.43039761249999997,1.9680392479166666,53.0,63.0
2,0.43039761249999997,2.3622152791666666,61.0,65.0
3,0.43039761249999997,2.363635733333333,65.0,67.0
4,0.43039761249999997,2.395595952083333,58.0,63.0
5,3.1576696125,4.416192004166667,42.0,60.0
6,3.1576696125,4.495027210416667,54.0,66.0
7,3.1576696125,4.537640835416666,58.0,64.0
8,3.1576696125,4.5575271937499995,61.0,69.0
9,5.8849416125,7.345878722916666,37.0,56.0
10,5.8849416125,7.541191170833333,49.0,68.0
11,5.8849416125,8.00923081875,61.0,69.0
12,5.8849416125,8.021304679166667,65.0,66.0
13,5.8849416125,8.125708060416667,56.0,68.0
14,8.6122136125,10.599428991666667,44.0,63.0
15,8.6122136125,10.67684374375,51.0,58.0
16,8.6122136125,11.325991297916666,56.0,72.0
17,8.6122136125,11.35866174375,60.0,66.0
18,8.6122136125,11.37144583125,63.0,68.0
19,11.680394612499999,12.6775534375,53.0,54.0
20,13.0440306125,13.339485079166666,53.0,47.0
21,11.339485612499999,13.47655890625,46.0,88.0
22,12.362212612499999,13.477979360416667,61.0,75.0
23,13.7258486125,14.403405249999999,61.0,57.0
24,13.3849396125,14.408376839583333,58.0,79.0
25,12.021303612499999,14.4247120625,65.0,88.0
26,15.7713026125,16.078830939583334,54.0,59.0
27,14.4076666125,16.085933210416666,49.0,41.0
28,14.0667576125,16.14204115,42.0,73.0
29,14.7485756125,16.14417183125,58.0,73.0
30,15.0894846125,16.75567735,66.0,90.0
31,16.453120612499998,16.900563675,58.0,74.0
32,16.112211612499998,17.03763750208333,61.0,79.0
33,17.1349386125,18.82954043333333,44.0,48.0
34,16.7940296125,18.835222249999998,37.0,79.0
35,17.4758476125,18.917608591666667,56.0,88.0
36,18.4985746125,18.962352897916666,49.0,63.0
37,19.1803926125,19.585932277083334,56.0,73.0
38,18.8394836125,19.615051587499998,61.0,83.0
39,17.8167566125,19.647722033333334,65.0,96.0
40,20.2031196125,20.653403583333333,56.0,90.0
41,19.8622106125,21.061073929166668,51.0,47.0
42,20.5440286125,21.382096570833333,60.0,93.0
43,21.2258466125,21.597295377083334,51.0,86.0
44,19.5213016125,21.64843172708333,44.0,75.0
45,21.5667556125,22.254255429166665,63.0,93.0
46,20.8849376125,22.257806564583333,68.0,99.0
47,21.9076646125,22.390619029166665,60.0,68.0
48,22.5894826125,23.45524942708333,53.0,46.0
49,23.9531186125,24.26490830208333,53.0,69.0
50,22.9303916125,24.361499185416665,58.0,71.0
51,22.2485736125,24.40340258333333,46.0,73.0
52,23.2713006125,25.15127170208333,65.0,92.0
53,24.6349366125,25.3167546125,58.0,74.0
54,24.2940276125,25.91973740625,61.0,93.0
55,25.6576636125,26.3053907125,54.0,77.0
56,25.3167546125,26.4161861375,49.0,58.0
57,24.9758456125,27.0980041375,42.0,79.0
58,26.6803906125,27.0980041375,49.0,59.0
59,25.9985726125,27.757805097916666,66.0,86.0
60,27.362208612499998,27.7627766875,58.0,76.0
61,27.0212996125,27.870731204166667,61.0,88.0
62,28.384935612499998,29.147719499999997,49.0,73.0
63,28.044026612499998,29.703117079166667,44.0,46.0
64,27.703117612499998,29.738628433333332,37.0,74.0
65,29.407662612499998,29.909793160416665,49.0,56.0
66,30.089480612499997,30.458798695833334,56.0,51.0
67,29.748571612499997,30.507804364583333,61.0,82.0
68,28.725844612499998,30.524849814583334,65.0,90.0
69,31.112207612499997,31.60510520833333,56.0,86.0
70,30.771298612499997,31.9644801125,51.0,55.0
71,31.453116612499997,32.15269028958333,60.0,86.0
72,32.1349346125,32.539053822916664,51.0,92.0
73,30.430389612499997,32.60510494166667,44.0,70.0
74,31.7940256125,33.18891160416666,68.0,100.0
75,32.8167526125,33.213059324999996,60.0,92.0
76,32.4758436125,33.21661046041667,63.0,107.0
77,33.8394796125,34.240047687499995,58.0,89.0
78,33.4985706125,34.405530597916666,53.0,69.0
79,34.862206612499996,35.1519792625,53.0,53.0
80,33.1576616125,35.19885425,46.0,76.0
81,35.544024612499996,35.96803018125,58.0,79.0
82,35.2031156125,36.26277442083333,61.0,112.0
83,34.180388612499996,36.29047327708333,65.0,99.0
84,35.8849336125,37.12285941875,42.0,86.0
85,36.225842612499996,37.28195028541666,49.0,65.0
86,37.2485696125,37.387063893749996,42.0,83.0
87,36.907660612499996,37.71945016875,61.0,77.0
88,36.5667516125,37.794024012499996,65.0,95.0
89,37.589478612499995,38.1690239125,42.0,90.0
90,38.271296612499995,38.628540835416665,58.0,72.0
91,37.9303876125,38.66263173541667,65.0,99.0
92,38.6122056125,39.79544393333333,37.0,86.0
93,38.953114612499995,39.88422231875,44.0,41.0
94,39.9758416125,40.14842679375,37.0,82.0
95,39.2940236125,40.544023279166666,65.0,96.0
96,39.8053871125,40.54899486875,61.0,58.0
97,39.6349326125,40.746437997916665,56.0,78.0
98,40.3167506125,40.76916526458333,37.0,79.0
99,40.6576596125,41.4758412125,65.0,92.0
100,40.9985686125,41.632801397916666,56.0,67.0
101,41.3394776125,42.54331251875,44.0,72.0
102,41.6803866125,42.65765907916666,51.0,56.0
103,42.7031136125,42.84728971041667,44.0,79.0
104,42.0212956125,43.20666461458333,63.0,99.0
105,42.3622046125,43.22442029166667,60.0,51.0
106,43.0440226125,43.9303860125,44.0,95.0
107,43.3849316125,44.08166438125,63.0,99.0
108,43.7258406125,44.116465508333334,56.0,88.0
109,44.4076586125,45.26277202083333,58.0,72.0
110,44.0667496125,45.36433449375,46.0,93.0
111,45.0894766125,45.490754914583334,53.0,66.0
112,45.4303856125,45.570300347916664,46.0,71.0
113,44.7485676125,45.999987733333334,65.0,96.0
114,45.7712946125,46.32243082916666,46.0,89.0
115,46.1122036125,46.702402318749996,65.0,90.0
116,46.4531126125,46.874277272916665,58.0,73.0
117,46.794021612499996,47.9616349375,42.0,65.0
118,47.1349306125,48.0383394625,49.0,52.0
119,48.157657612499996,48.28407803333333,42.0,69.0
120,47.8167486125,48.69529951458333,54.0,66.0
121,47.475839612499996,48.70382223958333,61.0,97.0
122,48.4985666125,49.053964191666665,42.0,90.0
123,49.1803846125,49.521293612499996,58.0,73.0
124,48.839475612499996,49.521293612499996,61.0,93.0
125,49.8622026125,50.7400432875,44.0,42.0
126,49.521293612499996,50.76845237083333,37.0,74.0
127,50.5440206125,50.795441,49.0,38.0
128,50.884929612499995,51.03336707291666,37.0,74.0
129,51.566747612499995,51.70169075833333,61.0,96.0
130,50.203111612499995,51.728679387499994,65.0,97.0
131,51.2258386125,51.77768505625,37.0,78.0
132,51.9076566125,56.219445235416664,56.0,89.0
133,51.9076566125,56.23364977708333,60.0,95.0
134,51.9076566125,56.24004182083333,63.0,95.0
135,51.9076566125,56.29614976041666,44.0,75.0
136,58.0440186125,58.419018512499996,49.0,93.0
137,58.214473112499995,58.50282530833333,53.0,70.0
138,58.5553821125,58.7684502375,49.0,83.0
139,57.7031096125,58.93748428333333,37.0,75.0
140,57.8735641125,59.06745583958333,44.0,89.0
141,58.896291112499995,59.203109212499996,53.0,85.0
142,58.7258366125,59.45381937291666,56.0,71.0
143,58.3849276125,59.519160264583334,61.0,102.0
144,59.4076546125,59.78833632916666,49.0,82.0
145,59.578109112499995,59.84018290625,53.0,88.0
146,59.0667456125,60.01347831458333,37.0,78.0
147,59.2372001125,60.025552174999994,44.0,77.0
148,59.9190181125,60.22725666666666,49.0,86.0
149,60.089472612499996,60.36148958541666,56.0,89.0
150,60.259927112499994,60.39060889583333,53.0,92.0
151,59.7485636125,60.40126230208333,61.0,99.0
152,60.771290612499996,61.14273937708333,53.0,85.0
153,60.941745112499994,61.198137089583334,57.0,73.0
154,61.2826541125,61.48861996666666,53.0,79.0
155,60.4303816125,61.66972787291667,41.0,73.0
156,60.6008361125,61.77626193541666,48.0,70.0
157,61.623563112499994,61.88563690625,57.0,100.0
158,61.453108612499996,61.89273917708333,60.0,58.0
159,61.1121996125,62.124273206249995,65.0,76.0
160,62.3053811125,62.55609127291667,57.0,92.0
161,62.134926612499996,62.57526740416667,53.0,82.0
162,61.7940176125,62.77342076041666,41.0,72.0
163,61.9644721125,62.78975598333333,48.0,76.0
164,62.6462901125,62.90481277083333,53.0,88.0
165,62.816744612499996,63.05325023125,60.0,64.0
166,62.9871991125,63.12569339375,57.0,112.0
167,62.4758356125,63.12711384791666,65.0,96.0
168,63.498562612499995,63.732937549999995,58.0,90.0
169,63.6690171125,63.823846616666664,61.0,92.0
170,63.3281081125,63.906943185416665,53.0,73.0
171,63.1576536125,64.37427260625,46.0,69.0
172,64.0099261125,64.47938621458333,53.0,76.0
173,64.3508351125,64.49003962083333,58.0,90.0
174,64.1803806125,64.52484074791667,61.0,93.0
175,63.8394716125,64.54614756041667,65.0,97.0
176,64.8621986125,65.05609060625,58.0,86.0
177,65.0326531125,65.20026670416667,61.0,93.0
178,64.6917441125,65.28478372708334,53.0,69.0
179,65.3735621125,65.54827797499999,53.0,79.0
180,64.5212896125,65.55609047291667,46.0,88.0
181,65.5440166125,65.82171540208333,61.0,89.0
182,65.20310761249999,65.85225516666667,65.0,95.0
183,65.7144711125,65.86219834583333,58.0,97.0
184,66.2258346125,66.59799360416666,56.0,93.0
185,66.3962891125,66.66901631249999,60.0,81.0
186,66.7371981125,66.89699920625,56.0,88.0
187,65.8849256125,67.08307870208333,44.0,64.0
188,66.0553801125,67.2229934375,51.0,72.0
189,67.07810711249999,67.27057865208333,60.0,99.0
190,66.56674361249999,67.28904455624999,68.0,96.0
191,66.9076526125,67.2911752375,63.0,89.0
192,67.5894706125,67.84586258958333,56.0,89.0
193,67.7599251125,68.03407276666667,60.0,90.0
194,67.4190161125,68.0454364,51.0,89.0
195,68.1008341125,68.24714089166666,51.0,81.0
196,67.2485616125,68.275549975,44.0,77.0
197,68.2712886125,68.54969762916666,63.0,97.0
198,67.93037961249999,68.56745330625,68.0,107.0
199,68.44174311249999,68.60296466041666,60.0,95.0
200,68.9531066125,69.35296446041666,54.0,86.0
201,69.1235611125,69.37995308958332,58.0,90.0
202,69.4644701125,69.63137347708333,54.0,81.0
203,68.6121976125,69.81106092916666,42.0,63.0
204,69.6349246125,69.90196999583333,61.0,86.0
205,69.29401561249999,69.92327680833333,66.0,96.0
206,68.7826521125,69.9246972625,49.0,90.0
207,69.80537911249999,69.96020861666666,58.0,96.0
208,70.3167426125,70.74287886249999,56.0,86.0
209,70.4871971125,70.77483908125,60.0,96.0
210,70.8281061125,71.036912875,56.0,90.0
211,69.9758336125,71.19955487708333,44.0,77.0
212,70.9985606125,71.23364577708332,63.0,88.0
213,70.1462881125,71.23506623125,51.0,72.0
214,70.6576516125,71.27270826666667,68.0,96.0
215,71.16901511249999,71.33023666041666,60.0,86.0
216,71.5099241125,71.7954354,56.0,92.0
217,71.6803786125,71.97796376041667,65.0,97.0
218,71.3394696125,72.01347511458333,49.0,96.0
219,71.8508331125,72.05608873958333,61.0,100.0
220,72.1917421125,72.39415683125,60.0,86.0
221,72.0212876125,72.588048825,48.0,100.0
222,72.3621966125,72.61148631875,65.0,102.0
223,72.53265111249999,72.64557721874999,60.0,88.0
224,73.04401461249999,73.25566228333334,58.0,95.0
225,73.2144691125,73.37000884375,61.0,93.0
226,72.8735601125,73.37924179583334,53.0,90.0
227,72.7031056125,73.43748041666666,46.0,88.0
228,73.5553781125,73.70736670833332,61.0,93.0
229,73.3849236125,73.95736664166667,65.0,99.0
230,73.7258326125,73.95949732291666,58.0,96.0
231,73.89628711249999,74.00566208333333,61.0,102.0
232,74.5781051125,74.79614482708332,55.0,82.0
233,74.40765061249999,74.83946867916666,51.0,86.0
234,74.9190141125,75.13776405416667,51.0,74.0
235,74.0667416125,75.3067981,39.0,73.0
236,74.2371961125,75.45807646875,46.0,69.0
237,75.25992311249999,75.47654237291667,55.0,96.0
238,75.0894686125,75.48790600625,58.0,66.0
239,74.7485596125,75.56958212083333,63.0,68.0
240,75.9417411125,76.20523536041667,55.0,75.0
241,75.4303776125,76.3337864625,39.0,81.0
242,75.6008321125,76.36645690833333,46.0,69.0
243,76.2826501125,76.43961029791666,58.0,68.0
244,75.77128661249999,76.44600234166667,51.0,85.0
245,76.4531046125,76.64841706041666,55.0,100.0
246,76.62355911249999,76.73364431041666,58.0,71.0
247,76.1121956125,76.77980907083332,63.0,60.0
248,77.13492261249999,77.49145660833334,56.0,93.0
249,77.3053771125,77.53762136875,60.0,92.0
250,77.6462861125,77.83236560833333,56.0,96.0
251,77.4758316125,77.85864401041667,63.0,102.0
252,76.7940136125,78.05750759375,44.0,77.0
253,76.9644681125,78.12213825833334,51.0,86.0
254,77.8167406125,78.37284841875,60.0,95.0
255,77.9871951125,78.58449608958333,68.0,107.0
256,78.49855861249999,78.72441082499999,56.0,96.0
257,78.3281041125,78.91049032083333,51.0,99.0
258,78.6690131125,78.97228007708333,60.0,97.0
259,79.00992211249999,79.29827430833333,51.0,95.0
260,78.1576496125,79.32455271041667,44.0,95.0
261,79.1803766125,79.41120041458333,63.0,97.0
262,78.8394676125,79.44955267708333,68.0,102.0
263,79.3508311125,79.46872880833332,60.0,97.0
264,79.86219461249999,80.2371945125,49.0,93.0
265,80.0326491125,80.32100130833334,53.0,70.0
266,80.37355811249999,80.5866262375,49.0,83.0
267,79.5212856125,80.75566028333333,37.0,75.0
268,79.6917401125,80.88563183958333,44.0,89.0
269,80.7144671125,81.02128521249999,53.0,85.0
270,80.5440126125,81.27199537291666,56.0,71.0
271,80.2031036125,81.33733626458333,61.0,102.0
272,81.22583061249999,81.60651232916666,49.0,82.0
273,81.3962851125,81.65835890625,53.0,88.0
274,80.8849216125,81.83165431458333,37.0,78.0
275,81.0553761125,81.843728175,44.0,77.0
276,81.73719411249999,82.04543266666667,49.0,86.0
277,81.9076486125,82.17966558541666,56.0,89.0
278,82.0781031125,82.20878489583333,53.0,92.0
279,81.5667396125,82.21943830208333,61.0,99.0
280,82.58946661249999,82.96091537708332,53.0,85.0
281,82.7599211125,83.01631308958333,57.0,73.0
282,83.10083011249999,83.30679596666667,53.0,79.0
283,82.2485576125,83.48790387291666,41.0,73.0
284,82.4190121125,83.59443793541666,48.0,70.0
285,83.4417391125,83.70381290625,57.0,100.0
286,83.2712846125,83.71091517708334,60.0,58.0
287,82.9303756125,83.94244920625,65.0,76.0
288,84.1235571125,84.37426727291667,57.0,92.0
289,83.95310261249999,84.39344340416666,53.0,82.0
290,83.6121936125,84.59159676041666,41.0,72.0
291,83.7826481125,84.60793198333333,48.0,76.0
292,84.46446611249999,84.72298877083333,53.0,88.0
293,84.6349206125,84.87142623125,60.0,64.0
294,84.8053751125,84.94386939374999,57.0,112.0
295,84.2940116125,84.94528984791667,65.0,96.0
296,85.3167386125,85.55111355,58.0,90.0
297,85.4871931125,85.64202261666667,61.0,92.0
298,85.1462841125,85.72511918541666,53.0,73.0
299,84.9758296125,86.19244860625,46.0,69.0
300,85.82810211249999,86.29756221458334,53.0,76.0
301,86.1690111125,86.30821562083332,58.0,90.0
302,85.9985566125,86.34301674791666,61.0,93.0
303,85.6576476125,86.36432356041666,65.0,97.0
304,86.6803746125,86.87426660625,58.0,86.0
305,86.8508291125,87.01844270416666,61.0,93.0
306,86.5099201125,87.10295972708333,53.0,69.0
307,87.19173811249999,87.366453975,53.0,79.0
308,86.33946561249999,87.37426647291666,46.0,88.0
309,87.3621926125,87.63989140208334,61.0,89.0
310,87.0212836125,87.67043116666666,65.0,95.0
311,87.5326471125,87.68037434583333,58.0,97.0
312,88.0440106125,88.41616960416667,56.0,93.0
313,88.2144651125,88.4871923125,60.0,81.0
314,88.55537411249999,88.71517520625,56.0,88.0
315,87.70310161249999,88.90125470208334,44.0,64.0
316,87.8735561125,89.0411694375,51.0,72.0
317,88.8962831125,89.08875465208332,60.0,99.0
318,88.3849196125,89.10722055625,68.0,96.0
319,88.7258286125,89.1093512375,63.0,89.0
320,89.4076466125,89.66403858958333,56.0,89.0
321,89.5781011125,89.85224876666666,60.0,90.0
322,89.2371921125,89.8636124,51.0,89.0
323,89.91901011249999,90.06531689166667,51.0,81.0
324,89.06673761249999,90.093725975,44.0,77.0
325,90.0894646125,90.36787362916667,63.0,97.0
326,89.7485556125,90.38562930625,68.0,107.0
327,90.2599191125,90.42114066041667,60.0,95.0
328,90.7712826125,91.17114046041667,54.0,86.0
329,90.9417371125,91.19812908958333,58.0,90.0
330,91.28264611249999,91.44954947708332,54.0,81.0
331,90.43037361249999,91.62923692916667,42.0,63.0
332,91.4531006125,91.72014599583333,61.0,86.0
333,91.1121916125,91.74145280833334,66.0,96.0
334,90.6008281125,91.7428732625,49.0,90.0
335,91.6235551125,91.77838461666666,58.0,96.0
336,92.1349186125,92.5610548625,56.0,86.0
337,92.30537311249999,92.59301508125,60.0,96.0
338,92.6462821125,92.85508887499999,56.0,90.0
339,91.79400961249999,93.01773087708332,44.0,77.0
340,92.8167366125,93.05182177708333,63.0,88.0
341,91.9644641125,93.05324223125,51.0,72.0
342,92.4758276125,93.09088426666666,68.0,96.0
343,92.9871911125,93.14841266041667,60.0,86.0
344,93.3281001125,93.6136114,56.0,92.0
345,93.4985546125,93.79613976041666,65.0,97.0
346,93.15764561249999,93.83165111458332,49.0,96.0
347,93.66900911249999,93.87426473958332,61.0,100.0
348,94.0099181125,94.21233283125,60.0,86.0
349,93.8394636125,94.406224825,48.0,100.0
350,94.1803726125,94.42966231874999,65.0,102.0
351,94.3508271125,94.46375321875,60.0,88.0
352,94.8621906125,95.07383828333333,58.0,95.0
353,95.03264511249999,95.18818484375,61.0,93.0
354,94.6917361125,95.19741779583333,53.0,90.0
355,94.52128161249999,95.25565641666667,46.0,88.0
356,95.3735541125,95.52554270833333,61.0,93.0
357,95.2030996125,95.77554264166666,65.0,99.0
358,95.5440086125,95.77767332291667,58.0,96.0
359,95.7144631125,95.82383808333333,61.0,102.0
360,96.39628111249999,96.61432082708333,55.0,82.0
361,96.2258266125,96.65764467916667,51.0,86.0
362,96.7371901125,96.95594005416666,51.0,74.0
363,95.88491761249999,97.1249741,39.0,73.0
364,96.0553721125,97.27625246875,46.0,69.0
365,97.0780991125,97.29471837291666,55.0,96.0
366,96.9076446125,97.30608200625,58.0,66.0
367,96.5667356125,97.38775812083333,63.0,68.0
368,97.75991711249999,98.02341136041666,55.0,75.0
369,97.24855361249999,98.1519624625,39.0,81.0
370,97.4190081125,98.18463290833333,46.0,69.0
371,98.1008261125,98.25778629791667,58.0,68.0
372,97.5894626125,98.26417834166666,51.0,85.0
373,98.2712806125,98.46659306041666,55.0,100.0
374,98.4417351125,98.55182031041666,58.0,71.0
375,97.9303716125,98.59798507083333,63.0,60.0
376,98.61218961249999,98.87568386041666,60.0,83.0
377,98.61218961249999,98.87923499583333,63.0,89.0
378,98.61218961249999,98.87994522291666,56.0,77.0
379,98.61218961249999,98.89272931041667,44.0,79.0
380,98.9530986125,99.17326900833334,44.0,69.0
381,98.9530986125,99.20309854583333,56.0,77.0
382,98.9530986125,99.21020081666666,60.0,75.0
383,98.9530986125,99.21517240624999,63.0,75.0
384,99.2940076125,99.53619504791666,44.0,81.0
385,99.2940076125,99.54968936249999,56.0,76.0
386,99.2940076125,99.55537117916666,60.0,76.0
387,99.2940076125,99.55537117916666,63.0,79.0
388,99.63491661249999,99.86431996041667,56.0,81.0
389,99.63491661249999,99.86929155,60.0,81.0
390,99.63491661249999,99.87426313958333,63.0,85.0
391,99.63491661249999,99.88065518333333,44.0,90.0
392,99.97582561249999,100.1974164625,60.0,88.0
393,99.97582561249999,100.19954714375,44.0,81.0
394,99.97582561249999,100.20167782499999,56.0,90.0
395,99.97582561249999,100.21801304791666,63.0,92.0
396,100.3167346125,100.53974591666666,44.0,97.0
397,100.3167346125,100.55608113958333,56.0,86.0
398,100.3167346125,100.55608113958333,60.0,81.0
399,100.3167346125,100.58022886041667,63.0,82.0
400,100.6576436125,100.89414923125,44.0,97.0
401,100.6576436125,100.900541275,60.0,82.0
402,100.6576436125,100.90835377291667,56.0,86.0
403,100.6576436125,100.909064,63.0,81.0
404,100.99855261249999,101.31460366458333,56.0,90.0
405,100.99855261249999,101.31744457291666,60.0,86.0
406,100.99855261249999,101.32809797916666,63.0,89.0
407,100.99855261249999,101.37710364791667,44.0,95.0
408,106.7940056125,107.58803949166666,37.0,100.0
409,107.4758236125,107.67539742291666,49.0,88.0
410,107.1349146125,107.77482921458333,44.0,66.0
411,107.81673261249999,107.98505643125,37.0,82.0
412,107.4758236125,108.62284035208333,65.0,97.0
413,108.4985506125,109.10011295208334,56.0,75.0
414,108.1576416125,109.19599360833332,37.0,95.0
415,109.0099141125,109.46090831041666,49.0,69.0
416,109.18036861249999,109.4616185375,61.0,95.0
417,108.8394596125,109.48718671249999,65.0,99.0
418,109.3508231125,109.53974351666666,56.0,85.0
419,109.5212776125,110.38207283749999,41.0,66.0
420,109.8621866125,110.43249896041667,48.0,49.0
421,110.54400461249999,110.69031139166667,41.0,93.0
422,110.2030956125,111.11360673333333,60.0,100.0
423,111.2258226125,111.59514069583332,53.0,88.0
424,110.8849136125,111.73434520416666,41.0,97.0
425,111.90764061249999,112.14911782083333,53.0,86.0
426,111.56673161249999,112.17184508749999,57.0,97.0
427,111.56673161249999,112.17965758541666,60.0,97.0
428,112.2485496125,113.48292428333333,46.0,97.0
429,112.5894586125,113.514174275,53.0,102.0
430,112.93036761249999,113.65124810208333,61.0,99.0
431,113.27127661249999,113.6547992375,58.0,97.0
432,112.93036761249999,113.65835037291666,65.0,93.0
433,113.6121856125,113.84229918749999,46.0,81.0
434,113.9530946125,114.04542413333333,56.0,96.0
435,113.9530946125,114.06886162708332,44.0,92.0
436,114.1235491125,114.21658886041666,58.0,99.0
437,114.1235491125,114.24996953333333,46.0,93.0
438,114.29400361249999,114.40977062708333,61.0,102.0
439,114.29400361249999,114.42752630416666,49.0,93.0
440,114.4644581125,114.56602058541667,58.0,88.0
441,114.4644581125,114.622128525,46.0,89.0
442,114.63491261249999,114.80181597708332,49.0,107.0
443,114.63491261249999,114.83519665,61.0,112.0
444,115.3167306125,115.5212760125,66.0,42.0
445,115.3167306125,115.53406009999999,63.0,58.0
446,115.3167306125,115.55252600416667,56.0,68.0
447,115.3167306125,115.55820782083333,44.0,75.0
448,115.3167306125,115.56246918333333,59.0,72.0
449,115.65763961249999,115.89201455,66.0,68.0
450,115.65763961249999,115.89911682083333,63.0,78.0
451,115.65763961249999,115.90195772916667,56.0,76.0
452,115.65763961249999,115.91119068124999,59.0,85.0
453,115.65763961249999,115.93107703958333,44.0,75.0
454,115.9985486125,116.85721315625,66.0,73.0
455,115.9985486125,116.87567906041666,63.0,90.0
456,115.9985486125,116.89556541875,59.0,107.0
457,115.9985486125,116.90550859791666,56.0,93.0
458,115.9985486125,117.15550853124999,44.0,81.0
459,117.02127561249999,117.47369026458333,66.0,82.0
460,117.02127561249999,117.59442886875,63.0,99.0
461,117.02127561249999,117.60295159374999,56.0,92.0
462,117.02127561249999,117.60650272916666,59.0,102.0
463,117.3621846125,117.68107657291667,44.0,62.0
464,117.7030936125,118.32596276458332,61.0,92.0
465,117.7030936125,118.33661617083332,58.0,93.0
466,117.7030936125,118.50920135208332,54.0,96.0
467,118.2144571125,118.76985469166667,49.0,56.0
468,118.89627511249999,119.18107617291666,49.0,56.0
469,118.38491161249999,119.51062153958333,58.0,77.0
470,118.38491161249999,119.53050789791666,61.0,79.0
471,119.0667296125,119.65266695625,54.0,82.0
472,119.4076386125,119.73505329791666,49.0,85.0
473,117.7030936125,119.97084868958333,42.0,83.0
474,119.74854761249999,119.99215550208334,61.0,92.0
475,119.74854761249999,119.99357595625,54.0,65.0
476,119.74854761249999,119.99641686458332,58.0,93.0
477,120.0894566125,120.96942796875,56.0,95.0
478,120.0894566125,120.97226887708332,60.0,93.0
479,120.0894566125,120.99286546249999,53.0,95.0
480,120.0894566125,121.29400174583333,41.0,77.0
481,121.11218361249999,121.34513809583333,60.0,83.0
482,121.11218361249999,121.37709831458334,53.0,82.0
483,121.11218361249999,121.38704149374999,56.0,89.0
484,120.7712746125,121.42681421041667,48.0,77.0
485,121.4530926125,122.05678563333333,46.0,86.0
486,121.4530926125,122.37567759375,61.0,96.0
487,121.4530926125,122.3991150875,58.0,97.0
488,122.1349106125,122.55536504583333,46.0,92.0
489,121.4530926125,122.59584798958333,53.0,95.0
490,122.47581961249999,122.74073431458334,58.0,102.0
491,122.6462741125,122.75138772083334,46.0,97.0
492,122.47581961249999,122.9786603875,61.0,100.0
493,122.98718311249999,123.08590467708333,61.0,25.0
494,122.8167286125,123.15266602291666,58.0,83.0
495,123.1576376125,123.707353375,66.0,75.0
496,123.1576376125,123.71587609999999,63.0,92.0
497,123.1576376125,123.73860336666667,58.0,92.0
498,123.83945561249999,124.60294972708333,63.0,99.0
499,123.83945561249999,124.62851790208333,66.0,96.0
500,123.1576376125,124.91971100625,39.0,88.0
501,124.5212736125,124.99073371458333,58.0,100.0
502,123.4985466125,125.00990984583333,46.0,59.0
503,124.1803646125,125.20877342916665,51.0,66.0
504,124.86218261249999,125.2158757,63.0,100.0
505,124.86218261249999,125.22297797083333,66.0,100.0
506,125.20309161249999,125.30110295,58.0,112.0
507,125.5440006125,126.40266515625,61.0,99.0
508,125.5440006125,126.4218412875,57.0,127.0
509,125.5440006125,126.46090377708333,54.0,102.0
510,126.56672761249999,126.73860256666666,54.0,59.0
511,125.5440006125,127.1121820125,42.0,72.0
512,126.9076366125,127.11289223958333,54.0,71.0
513,126.56672761249999,127.12070473749999,61.0,92.0
514,126.56672761249999,127.1249661,57.0,112.0
515,126.22581861249999,127.25209674791667,49.0,55.0
516,127.2485456125,127.49712509166666,60.0,92.0
517,127.2485456125,127.49783531874999,63.0,90.0
518,127.2485456125,127.50493758958334,56.0,81.0
519,127.58945461249999,127.77908524374999,51.0,70.0
520,127.58945461249999,127.78405683333332,63.0,95.0
521,127.2485456125,127.79471023958332,44.0,97.0
522,127.58945461249999,127.80039205624999,56.0,73.0
523,127.58945461249999,127.81175568958332,60.0,96.0
524,127.93036361249999,128.11147151875,44.0,72.0
525,127.93036361249999,128.11147151875,51.0,74.0
526,127.93036361249999,128.11502265416667,63.0,100.0
527,127.93036361249999,128.12354537916667,56.0,95.0
528,127.93036361249999,128.1263862875,60.0,99.0
529,128.27127261249998,128.52979527083332,56.0,100.0
530,128.27127261249998,128.54471003958332,60.0,102.0
531,128.27127261249998,128.55252253749998,51.0,95.0
532,128.27127261249998,128.55323276458333,63.0,112.0
533,128.27127261249998,128.59371570833332,44.0,90.0
534,129.2939996125,130.11502212083332,49.0,82.0
535,128.6121816125,130.51914133124998,37.0,82.0
536,128.9530906125,130.53192541875,44.0,56.0
537,129.6349086125,130.68107310624998,56.0,78.0
538,130.3167266125,130.80820375416667,49.0,78.0
539,130.99854461249998,131.36360133333332,56.0,75.0
540,130.6576356125,131.39414109791667,61.0,93.0
541,129.97581761249998,131.40905586666665,65.0,99.0
542,132.0212716125,132.93604409583332,53.0,83.0
543,132.3621806125,133.26416900833334,60.0,72.0
544,131.3394536125,133.30465195208333,41.0,78.0
545,131.6803626125,133.33519171666666,48.0,48.0
546,133.0439986125,133.48433940416666,53.0,72.0
547,132.7030896125,134.08164038125,69.0,112.0
548,133.3849076125,134.10365742083331,65.0,81.0
549,133.72581661249998,134.29683918749998,60.0,77.0
550,135.0894526125,135.4303616125,61.0,82.0
551,134.7485436125,135.53689567499998,58.0,90.0
552,134.4076346125,135.56317407708332,53.0,81.0
553,135.7712706125,136.14982164791667,53.0,79.0
554,134.0667256125,136.15692391874998,46.0,63.0
555,136.45308861249998,136.7939976125,58.0,86.0
556,136.1121796125,136.7939976125,61.0,92.0
557,135.4303616125,136.7939976125,65.0,93.0
558,137.47581561249999,137.92396890208332,56.0,82.0
559,137.1349066125,138.00138365416666,51.0,76.0
560,136.7939976125,138.605076675,44.0,90.0
561,137.8167246125,138.61430962708332,63.0,85.0
562,137.8167246125,138.63561643958332,59.0,82.0
563,138.4985426125,138.87780387499998,56.0,86.0
564,138.8394516125,139.38348555833332,43.0,77.0
565,138.8394516125,139.42894009166668,55.0,86.0
566,139.8621786125,140.25777509791666,54.0,56.0
567,139.5212696125,140.52197957291665,42.0,75.0
568,140.20308761249998,140.86714993541665,58.0,76.0
569,140.5439966125,140.87922379583333,54.0,68.0
570,140.20308761249998,140.89200788333332,61.0,88.0
571,141.2258146125,141.70308721249998,51.0,76.0
572,140.8849056125,141.8699905770833,44.0,74.0
573,141.5667236125,142.09158142708333,63.0,93.0
574,141.5667236125,142.21018935,60.0,93.0
575,141.90763261249998,142.3678597625,56.0,73.0
576,142.2485416125,142.95521756041666,49.0,102.0
577,142.93035961249998,143.27766065625,65.0,5.0
578,142.5894506125,143.31175155625,56.0,96.0
579,142.93035961249998,143.62354124583334,48.0,86.0
580,143.2712686125,143.69030259166666,60.0,81.0
581,143.9530866125,144.38206377083333,53.0,89.0
582,143.6121776125,144.41402398958334,46.0,61.0
583,144.2939956125,144.98859769999999,61.0,96.0
584,144.2939956125,145.01913746458334,65.0,93.0
585,144.63490461249998,145.14910902083332,58.0,81.0
586,144.9758136125,146.15834170624998,42.0,83.0
587,145.3167226125,146.1689951125,49.0,82.0
588,145.65763161249998,146.32595529791666,58.0,89.0
589,145.9985406125,146.32879620625,54.0,76.0
590,145.65763161249998,146.35862574375,61.0,85.0
591,146.3394496125,147.48291521666667,44.0,96.0
592,146.6803586125,147.50635271041665,51.0,75.0
593,147.0212676125,147.5411538375,63.0,99.0
594,147.0212676125,147.60578450208334,60.0,96.0
595,147.3621766125,147.62567086041665,56.0,85.0
596,147.7030856125,147.90336965,56.0,52.0
597,147.7030856125,147.92538668958332,44.0,55.0
598,147.7030856125,147.92751737083333,51.0,61.0
599,147.7030856125,147.93106850625,63.0,63.0
600,147.7030856125,147.93959123125,60.0,58.0
601,148.0439946125,148.218710475,44.0,62.0
602,148.0439946125,148.2314945625,51.0,63.0
603,148.0439946125,148.26274455416666,56.0,77.0
604,148.0439946125,148.27268773333333,60.0,71.0
605,148.0439946125,148.27552864166665,63.0,69.0
606,148.38490361249998,148.56530129166666,51.0,85.0
607,148.38490361249998,148.5724035625,44.0,71.0
608,148.38490361249998,148.60294332708332,56.0,86.0
609,148.38490361249998,148.60436378125,60.0,83.0
610,148.38490361249998,148.61430696041666,63.0,85.0
611,148.7258126125,148.90763074583333,51.0,107.0
612,148.7258126125,148.91189210833332,44.0,89.0
613,148.7258126125,148.95024437083333,60.0,97.0
614,148.7258126125,148.9644489125,56.0,100.0
615,148.7258126125,148.96800004791666,63.0,99.0
616,149.0667216125,149.22226134375,51.0,122.0
617,149.0667216125,149.24285792916666,44.0,96.0
618,149.0667216125,149.25635224375,60.0,102.0
619,149.0667216125,149.26629542291667,56.0,112.0
620,149.0667216125,149.2883124625,63.0,107.0
621,149.4076306125,149.4246760625,62.0,82.0
622,149.4076306125,149.5780851125,51.0,96.0
623,149.4076306125,149.61004533125,44.0,90.0
624,149.4076306125,149.61714760208332,60.0,96.0
625,149.4076306125,149.62282941875,56.0,99.0
626,149.4076306125,149.63561350625,63.0,90.0
627,149.7485396125,149.90905093333333,51.0,95.0
628,149.7485396125,149.91757365833334,44.0,78.0
629,149.7485396125,149.957346375,56.0,100.0
630,149.7485396125,149.95876682916665,60.0,97.0
631,149.7485396125,149.974391825,63.0,100.0
632,150.0894486125,150.2939940125,51.0,117.0
633,150.0894486125,150.30038605625,44.0,85.0
634,150.0894486125,150.30890878124998,60.0,100.0
635,150.0894486125,150.32524400416665,56.0,100.0
636,150.0894486125,150.32595423125,63.0,100.0
637,150.4303576125,150.68319845416667,45.0,112.0
638,150.4303576125,150.70166435833332,61.0,89.0
639,150.4303576125,150.70947685625,64.0,88.0
640,150.4303576125,150.71302799166665,57.0,112.0
641,150.7712666125,150.97510178541665,45.0,93.0
642,150.7712666125,150.99001655416666,64.0,95.0
643,150.7712666125,150.99782905208332,57.0,93.0
644,150.7712666125,150.99782905208332,61.0,90.0
645,151.11217561249998,151.30251647083333,45.0,107.0
646,151.11217561249998,151.32311305624998,61.0,99.0
647,151.11217561249998,151.32666419166665,57.0,117.0
648,151.11217561249998,151.32737441875,64.0,99.0
649,151.4530846125,151.71444817916665,64.0,112.0
650,151.4530846125,151.72012999583333,57.0,127.0
651,151.4530846125,151.72510158541667,61.0,107.0
652,151.4530846125,151.730073175,45.0,122.0
653,153.4985386125,153.8735385125,50.0,93.0
654,153.6689931125,153.95734530833332,54.0,70.0
655,154.0099021125,154.2229702375,50.0,83.0
656,153.1576296125,154.39200428333334,38.0,75.0
657,153.3280841125,154.52197583958332,45.0,89.0
658,154.3508111125,154.65762921249998,54.0,85.0
659,154.1803566125,154.90833937291666,57.0,71.0
660,153.83944761249998,154.97368026458332,62.0,102.0
661,154.86217461249998,155.24285632916667,50.0,82.0
662,155.0326291125,155.29470290625,54.0,88.0
663,154.5212656125,155.46799831458333,38.0,78.0
664,154.6917201125,155.480072175,45.0,77.0
665,155.3735381125,155.68177666666665,50.0,86.0
666,155.5439926125,155.81600958541665,57.0,89.0
667,155.71444711249998,155.84512889583334,54.0,92.0
668,155.2030836125,155.85578230208333,62.0,99.0
669,156.2258106125,156.59725937708333,54.0,85.0
670,156.3962651125,156.65265708958333,58.0,73.0
671,156.73717411249999,156.94313996666665,54.0,79.0
672,155.8849016125,157.12424787291667,42.0,73.0
673,156.0553561125,157.23078193541667,49.0,70.0
674,157.0780831125,157.34015690625,58.0,100.0
675,156.9076286125,157.34725917708332,61.0,58.0
676,156.56671961249998,157.57879320625,66.0,76.0
677,157.7599011125,158.01061127291666,58.0,92.0
678,157.58944661249998,158.02978740416665,54.0,82.0
679,157.2485376125,158.22794076041666,42.0,72.0
680,157.4189921125,158.24427598333332,49.0,76.0
681,158.1008101125,158.35933277083333,54.0,88.0
682,158.2712646125,158.50777023125,61.0,64.0
683,158.44171911249998,158.58021339375,58.0,112.0
684,157.9303556125,158.58163384791666,66.0,96.0
685,158.9530826125,159.18745755,59.0,90.0
686,159.1235371125,159.27836661666666,62.0,92.0
687,158.7826281125,159.36146318541665,54.0,73.0
688,158.6121736125,159.82879260625,47.0,69.0
689,159.46444611249999,159.93390621458332,54.0,76.0
690,159.8053551125,159.94455962083333,59.0,90.0
691,159.6349006125,159.97936074791667,62.0,93.0
692,159.29399161249998,160.00066756041667,66.0,97.0
693,160.31671861249998,160.51061060625,59.0,86.0
694,160.4871731125,160.65478670416667,62.0,93.0
695,160.1462641125,160.73930372708332,54.0,69.0
696,160.8280821125,161.002797975,54.0,79.0
697,159.9758096125,161.01061047291665,47.0,88.0
698,160.9985366125,161.27623540208333,62.0,89.0
699,160.6576276125,161.30677516666665,66.0,95.0
700,161.16899111249998,161.31671834583332,59.0,97.0
701,161.6803546125,162.05251360416665,57.0,93.0
702,161.8508091125,162.1235363125,61.0,81.0
703,162.19171811249998,162.35151920625,57.0,88.0
704,161.3394456125,162.53759870208333,45.0,64.0
705,161.5099001125,162.67751343749998,52.0,72.0
706,162.5326271125,162.72509865208332,61.0,99.0
707,162.0212636125,162.74356455625,69.0,96.0
708,162.3621726125,162.7456952375,64.0,89.0
709,163.04399061249998,163.30038258958334,57.0,89.0
710,163.2144451125,163.48859276666667,61.0,90.0
711,162.8735361125,163.4999564,52.0,89.0
712,163.5553541125,163.70166089166665,52.0,81.0
713,162.7030816125,163.730069975,45.0,77.0
714,163.7258086125,164.00421762916665,64.0,97.0
715,163.3848996125,164.02197330625,69.0,107.0
716,163.89626311249998,164.05748466041666,61.0,95.0
717,164.4076266125,164.80748446041667,55.0,86.0
718,164.5780811125,164.83447308958333,59.0,90.0
719,164.91899011249998,165.08589347708332,55.0,81.0
720,164.06671761249999,165.26558092916667,43.0,63.0
721,165.0894446125,165.35648999583333,62.0,86.0
722,164.7485356125,165.37779680833333,67.0,96.0
723,164.2371721125,165.3792172625,50.0,90.0
724,165.2598991125,165.41472861666665,59.0,96.0
725,165.77126261249998,166.1973988625,57.0,86.0
726,165.9417171125,166.22935908124998,61.0,96.0
727,166.2826261125,166.491432875,57.0,90.0
728,165.4303536125,166.65407487708333,45.0,77.0
729,166.4530806125,166.68816577708333,64.0,88.0
730,165.6008081125,166.68958623125,52.0,72.0
731,166.1121716125,166.72722826666666,69.0,96.0
732,166.62353511249998,166.78475666041666,61.0,86.0
733,166.9644441125,167.2499554,57.0,92.0
734,167.1348986125,167.43248376041666,66.0,97.0
735,166.79398961249998,167.46799511458332,50.0,96.0
736,167.3053531125,167.51060873958332,62.0,100.0
737,167.64626211249998,167.84867683125,61.0,86.0
738,167.4758076125,168.042568825,49.0,100.0
739,167.8167166125,168.06600631875,66.0,102.0
740,167.9871711125,168.10009721875,61.0,88.0
741,168.49853461249998,168.71018228333332,59.0,95.0
742,168.6689891125,168.82452884375,62.0,93.0
743,168.3280801125,168.83376179583334,54.0,90.0
744,168.1576256125,168.89200041666666,47.0,88.0
745,169.0098981125,169.16188670833333,62.0,93.0
746,168.8394436125,169.41188664166665,66.0,99.0
747,169.1803526125,169.41401732291666,59.0,96.0
748,169.3508071125,169.46018208333334,62.0,102.0
749,170.0326251125,170.2506648270833,56.0,82.0
750,169.8621706125,170.29398867916666,52.0,86.0
751,170.37353411249998,170.59228405416667,52.0,74.0
752,169.52126161249998,170.76131809999998,40.0,73.0
753,169.6917161125,170.91259646875,47.0,69.0
754,170.7144431125,170.93106237291667,56.0,96.0
755,170.5439886125,170.94242600625,59.0,66.0
756,170.2030796125,171.02410212083333,64.0,68.0
757,171.39626111249999,171.65975536041665,56.0,75.0
758,170.8848976125,171.7883064625,40.0,81.0
759,171.0553521125,171.82097690833334,47.0,69.0
760,171.7371701125,171.89413029791666,59.0,68.0
761,171.22580661249998,171.90052234166666,52.0,85.0
762,171.9076246125,172.10293706041665,56.0,100.0
763,172.0780791125,172.18816431041665,59.0,71.0
764,171.5667156125,172.23432907083333,64.0,60.0
765,172.24853361249998,172.48077786874998,61.0,97.0
766,172.24853361249998,172.48716991249998,45.0,122.0
767,172.24853361249998,172.49711309166665,64.0,96.0
768,172.24853361249998,172.51131763333333,57.0,93.0
769,172.5894426125,172.79540846666666,61.0,83.0
770,172.5894426125,172.81387437083333,57.0,77.0
771,172.5894426125,172.82594823124998,64.0,76.0
772,172.5894426125,172.82878913958334,45.0,97.0
773,172.9303516125,173.14199928333332,61.0,59.0
774,172.9303516125,173.15691405208332,57.0,89.0
775,172.9303516125,173.16188564166666,64.0,64.0
776,172.9303516125,173.18390268125,45.0,89.0
777,173.2712606125,173.46160147083333,61.0,85.0
778,173.2712606125,173.47225487708332,57.0,97.0
779,173.2712606125,173.48290828333333,64.0,93.0
780,173.2712606125,173.49569237083332,45.0,100.0
781,173.6121696125,173.79824910833332,61.0,96.0
782,173.6121696125,173.8167150125,45.0,107.0
783,173.6121696125,173.81742523958332,57.0,100.0
784,173.6121696125,173.84583432291666,64.0,95.0
785,173.95307861249998,174.1746694625,61.0,112.0
786,173.95307861249998,174.17964105208333,64.0,100.0
787,173.95307861249998,174.1831921875,45.0,112.0
788,173.95307861249998,174.18958423125,57.0,102.0
789,174.2939876125,174.4772262,61.0,93.0
790,174.2939876125,174.485748925,57.0,96.0
791,174.2939876125,174.485748925,64.0,97.0
792,174.2939876125,174.49356142291666,45.0,99.0
793,174.6348966125,174.8735329125,61.0,117.0
794,174.6348966125,174.89270904375,57.0,102.0
795,174.6348966125,174.90407267708332,64.0,112.0
796,174.6348966125,174.92537948958332,45.0,117.0
797,179.582338475,180.09228152083332,50.0,127.0
798,179.582338475,180.09228152083332,57.0,127.0
799,179.582338475,180.09228152083332,62.0,127.0
800,180.315292825,180.85009381875,48.0,127.0
801,180.315292825,180.85009381875,55.0,127.0
802,180.315292825,180.85009381875,60.0,127.0
803,181.20591758749998,181.78901402291666,46.0,117.0
804,181.20591758749998,181.78901402291666,53.0,117.0
805,181.20591758749998,181.78901402291666,58.0,117.0
806,182.173246875,183.03617278125,44.0,102.0
807,182.173246875,183.03617278125,51.0,102.0
808,182.173246875,183.03617278125,56.0,102.0
809,183.40762154583334,188.72580194583333,43.0,127.0
810,183.40762154583334,188.72580194583333,50.0,127.0
811,183.40762154583334,188.72580194583333,55.0,127.0
