,start,end,pitch,velocity
0,9.297362420833332,9.685293170833333,62.0,100.0
1,9.683138,10.071068749999998,64.0,100.0
2,9.9740860625,10.4589995,66.0,100.0
3,10.491327062499998,10.7499475625,66.0,100.0
4,10.7499475625,11.0085680625,64.0,100.0
5,11.0085680625,11.547360770833333,62.0,100.0
6,11.581843504166667,12.615247918749999,66.0,100.0
7,12.616325504166666,12.983782131249999,66.0,100.0
8,12.874946004166667,13.133566504166666,59.0,100.0
9,13.239169874999998,13.757488460416667,62.0,100.0
10,13.780117754166666,14.29628116875,62.0,100.0
11,14.340462170833334,14.607703354166667,62.0,100.0
12,14.599082670833333,14.866323854166666,61.0,100.0
13,14.857703170833332,15.891107585416666,59.0,100.0
14,15.892185170833333,16.150805670833332,59.0,100.0
15,16.150805670833332,16.40942617083333,62.0,100.0
16,16.40942617083333,16.925589585416667,61.0,100.0
17,16.926667170833333,17.18636525625,61.0,100.0
18,17.185287670833333,17.443908170833332,59.0,100.0
19,17.443908170833332,17.96114917083333,57.0,100.0
20,17.96114917083333,18.994553585416668,61.0,100.0
21,18.995631170833335,19.254251670833334,61.0,100.0
22,19.254251670833334,19.534423879166667,57.0,100.0
23,19.512872170833333,20.029035585416665,59.0,100.0
24,20.03011317083333,20.28873367083333,59.0,100.0
25,20.28873367083333,20.547354170833334,62.0,100.0
26,20.547354170833334,21.096922733333333,61.0,100.0
27,21.064595170833332,22.099077170833333,59.0,100.0
28,22.099077170833333,22.357697670833332,62.0,100.0
29,22.357697670833332,22.61631817083333,64.0,100.0
30,22.61631817083333,23.132481585416667,66.0,100.0
31,23.133559170833333,23.392179670833332,66.0,100.0
32,23.392179670833332,23.64972258541667,69.0,100.0
33,23.650800170833335,23.909420670833335,69.0,100.0
34,23.909420670833335,24.168041170833334,64.0,100.0
35,24.168041170833334,24.856618252083333,66.0,100.0
36,24.685282170833332,25.202523170833334,64.0,100.0
37,25.202523170833334,25.461143670833334,61.0,100.0
38,25.461143670833334,25.719764170833333,62.0,100.0
39,25.719764170833333,26.235927585416665,64.0,100.0
40,26.23700517083333,26.495625670833334,64.0,100.0
41,26.495625670833334,26.819978881249998,66.0,100.0
42,26.754246170833333,27.012866670833333,64.0,100.0
43,27.012866670833333,27.271487170833332,62.0,100.0
44,27.271487170833332,27.555969720833332,61.0,100.0
45,27.530107670833335,27.811357464583335,62.0,100.0
46,27.788728170833334,28.304891585416666,59.0,100.0
47,28.305969170833333,28.564589670833332,59.0,100.0
48,28.564589670833332,28.823210170833335,61.0,100.0
49,28.823210170833335,29.339373585416666,62.0,100.0
50,29.340451170833333,29.599071670833332,62.0,100.0
51,29.599071670833332,29.882476635416666,61.0,100.0
52,29.85769217083333,30.38894178125,59.0,100.0
53,30.374933170833334,31.408337585416668,61.0,100.0
54,31.409415170833334,31.629242595833333,61.0,100.0
55,31.6658805,31.7887252375,57.0,100.0
56,31.924501,32.465448879166665,59.0,100.0
57,32.44389717083334,32.465448879166665,59.0,100.0
58,32.70251767083333,32.98268987916667,62.0,100.0
59,32.96113817083334,33.240232793749996,61.0,100.0
60,33.21975867083333,33.4826895125,62.0,100.0
61,33.478379170833335,34.51286117083333,59.0,100.0
62,34.51286117083333,34.77148167083333,62.0,100.0
63,34.77148167083333,35.03010217083333,64.0,100.0
64,35.03010217083333,36.064584170833335,66.0,100.0
65,36.064584170833335,36.323204670833334,67.0,100.0
66,36.323204670833334,36.58182517083333,66.0,100.0
67,36.58182517083333,37.611868754166665,64.0,100.0
68,37.611868754166665,37.868279254166666,61.0,100.0
69,37.868279254166666,38.13751027916666,62.0,100.0
70,38.12468975416667,39.14926337708333,64.0,100.0
71,39.150331754166665,39.406742254166666,64.0,100.0
72,39.406742254166666,39.66315275416667,66.0,100.0
73,39.66315275416667,40.688794754166665,62.0,100.0
74,40.688794754166665,40.953752270833334,59.0,100.0
75,40.945205254166666,41.20161575416667,61.0,100.0
76,41.20161575416667,41.713368377083334,62.0,100.0
77,41.71443675416667,41.970847254166664,62.0,100.0
78,41.970847254166664,42.227257754166665,61.0,100.0
79,42.227257754166665,42.483668254166666,59.0,100.0
80,42.483668254166666,42.74007875416667,62.0,100.0
81,42.74007875416667,43.470848679166664,61.0,100.0
82,43.25289975416666,43.470848679166664,61.0,100.0
83,43.765720754166665,44.27854175416667,57.0,100.0
84,44.27854175416667,46.842646754166665,66.0,100.0
85,46.842646754166665,47.09905725416667,62.0,100.0
86,47.09905725416667,47.35546775416667,64.0,100.0
87,47.35546775416667,48.38004137708333,66.0,100.0
88,48.381109754166665,48.63752025416667,66.0,100.0
89,48.63752025416667,48.89393075416667,69.0,100.0
90,48.89393075416667,49.919572754166666,64.0,100.0
91,49.919572754166666,50.17598325416667,61.0,100.0
92,50.17598325416667,50.43239375416667,62.0,100.0
93,50.43239375416667,51.45696737708333,64.0,100.0
94,51.458035754166666,51.71444625416667,64.0,100.0
95,51.71444625416667,51.97085675416667,66.0,100.0
96,51.97085675416667,52.996498754166666,62.0,100.0
97,52.996498754166666,53.25290925416667,59.0,100.0
98,53.25290925416667,53.50931975416667,61.0,100.0
99,53.50931975416667,54.02107237708333,62.0,100.0
100,54.02214075416667,54.222995645833336,62.0,100.0
101,54.2764145,54.54137201666667,61.0,100.0
102,54.534961754166666,54.775346597916666,59.0,100.0
103,54.789235500000004,55.084107575000004,62.0,100.0
104,55.04778275416667,55.82983477916667,61.0,100.0
105,55.560603754166664,55.82983477916667,61.0,100.0
106,56.073424754166666,56.58624575416667,57.0,100.0
107,56.584109,59.148213999999996,59.0,100.0
108,59.148213999999996,59.416376647916664,62.0,100.0
109,59.4046245,59.661035,64.0,100.0
110,59.661035,60.172787622916665,66.0,100.0
111,60.173856,60.4302665,66.0,100.0
112,60.4302665,60.686677,64.0,100.0
113,60.686677,61.21338690208333,62.0,100.0
114,61.199498000000006,62.225139999999996,66.0,100.0
115,62.225139999999996,62.4815505,64.0,100.0
116,62.4815505,62.737961,59.0,100.0
117,62.737961,63.249713622916666,62.0,100.0
118,63.250782,63.5071925,62.0,100.0
119,63.5071925,63.78069703333333,64.0,100.0
120,63.763603,64.276424,61.0,100.0
121,64.276424,65.30099762291667,59.0,100.0
122,65.302066,65.5584765,59.0,100.0
123,65.56061325416667,65.81916050833334,62.0,100.0
124,65.81702375416667,66.32877637708333,61.0,100.0
125,66.32984475416667,66.58625525416667,61.0,100.0
126,66.58625525416667,66.84266575416666,59.0,100.0
127,66.84266575416666,67.37364916458333,57.0,100.0
128,67.35548675416666,68.38006037708334,61.0,100.0
129,68.38112875416667,68.63753925416667,61.0,100.0
130,68.63753925416667,68.89394975416667,57.0,100.0
131,68.89394975416667,69.40570237708334,59.0,100.0
132,69.40677075416667,69.66318125416666,59.0,100.0
133,69.66318125416666,69.91959175416667,62.0,100.0
134,69.91959175416667,70.23369461666667,61.0,100.0
135,70.17600225416666,70.46809114999999,62.0,100.0
136,70.43237684166665,71.44078084166667,59.0,100.0
137,71.44078084166667,71.69288184166666,62.0,100.0
138,71.69288184166666,71.94498284166666,64.0,100.0
139,71.94498284166666,72.44813442083333,66.0,100.0
140,72.44918484166666,72.70128584166666,66.0,100.0
141,72.70128584166666,72.95233642083332,69.0,100.0
142,72.95338684166666,73.20548784166665,69.0,100.0
143,73.20548784166665,73.45758884166666,64.0,100.0
144,73.45758884166666,73.96179084166666,66.0,100.0
145,73.96179084166666,74.46599284166666,64.0,100.0
146,74.46599284166666,74.71809384166666,61.0,100.0
147,74.71809384166666,74.97019484166665,62.0,100.0
148,74.97019484166665,75.47334642083332,64.0,100.0
149,75.47439684166666,75.72649784166666,64.0,100.0
150,75.72649784166666,75.97859884166665,66.0,100.0
151,75.97859884166665,76.23069984166666,64.0,100.0
152,76.23069984166666,76.48280084166666,62.0,100.0
153,76.48280084166666,76.73490184166666,61.0,100.0
154,76.73490184166666,76.98700284166667,62.0,100.0
155,76.98700284166667,77.49015442083332,59.0,100.0
156,77.489104,77.49015442083332,59.0,100.0
157,77.741205,77.99540684166666,61.0,100.0
158,77.99540684166666,78.49857637708332,62.0,100.0
159,78.49964475416667,78.75605525416667,62.0,100.0
160,78.75605525416667,79.01246575416667,61.0,100.0
161,79.01246575416667,79.52528675416666,59.0,100.0
162,79.52528675416666,80.54986037708333,61.0,100.0
163,80.55092875416666,80.80733925416666,61.0,100.0
164,80.80733925416666,81.06374975416666,57.0,100.0
165,81.06374975416666,81.57550237708332,59.0,100.0
166,81.57657075416667,81.83298125416667,59.0,100.0
167,81.83298125416667,82.12144306666666,62.0,100.0
168,82.08939175416667,82.36182791041666,61.0,100.0
169,82.34580225416666,82.60434950833333,62.0,100.0
170,82.60221275416666,83.62785475416666,59.0,100.0
171,83.62785475416666,83.88426525416666,62.0,100.0
172,83.88426525416666,84.14067575416667,64.0,100.0
173,84.14067575416667,85.16631775416667,66.0,100.0
174,85.16631775416667,85.42272825416666,67.0,100.0
175,85.42272825416666,85.67913875416666,66.0,100.0
176,85.67913875416666,86.70478075416666,64.0,100.0
177,86.70478075416666,86.96119125416666,61.0,100.0
178,86.96119125416666,87.23042227916666,62.0,100.0
179,87.21760175416667,88.24217537708333,64.0,100.0
180,88.24324375416666,88.49965425416667,64.0,100.0
181,88.4975175,88.753928,66.0,100.0
182,88.753928,89.48802546666667,62.0,100.0
183,89.522068,89.78589763333333,59.0,100.0
184,89.777387,90.032706,61.0,100.0
185,90.032706,90.79015236666667,62.0,100.0
186,90.798663,91.053982,62.0,100.0
187,91.053982,91.35610948333334,61.0,100.0
188,91.309301,91.56462,59.0,100.0
189,91.56462,91.819939,62.0,100.0
190,91.819939,92.54759815,61.0,100.0
191,92.33270465833334,92.54759815,61.0,100.0
192,92.84334265833334,93.35398065833334,57.0,100.0
193,93.35398065833334,95.90717065833334,66.0,100.0
194,95.90717065833334,96.16248965833334,62.0,100.0
195,96.16248965833334,96.41780865833334,64.0,100.0
196,96.41780865833334,97.43802082916667,66.0,100.0
197,97.43908465833334,97.69440365833334,66.0,100.0
198,97.69440365833334,97.94972265833334,69.0,100.0
199,97.94972265833334,98.97099865833334,64.0,100.0
200,98.97099865833334,99.22631765833334,61.0,100.0
201,99.22419000000001,99.47950900000001,62.0,100.0
202,99.47950900000001,100.49972117083334,64.0,100.0
203,100.50078500000001,100.75610400000001,64.0,100.0
204,100.75610400000001,101.01142300000001,66.0,100.0
205,101.01142300000001,102.03269900000001,62.0,100.0
206,102.03269900000001,102.28801800000001,59.0,100.0
207,102.28801800000001,102.54333700000001,61.0,100.0
208,102.54333700000001,103.05291117083334,62.0,100.0
209,103.05397500000001,103.25397488333334,62.0,100.0
210,103.30929400000001,103.6922725,61.0,100.0
211,103.56461300000001,103.8039745625,59.0,100.0
212,103.81993200000001,104.2029105,62.0,100.0
213,104.07737865833334,104.85610160833333,61.0,100.0
214,104.58801665833334,104.85610160833333,61.0,100.0
215,105.09865465833334,105.60929265833335,57.0,100.0
216,105.60929265833335,108.67205682916668,59.0,100.0
217,108.67312065833335,108.92843965833333,59.0,100.0
218,108.92843965833333,109.18375865833335,61.0,100.0
219,109.18375865833335,109.43907765833333,62.0,100.0
220,109.43907765833333,109.69333282916668,59.0,100.0
221,109.69439665833335,109.94971565833333,59.0,100.0
222,109.94971565833333,110.20503465833333,62.0,100.0
223,110.20503465833333,110.85503427916667,66.0,100.0
224,110.71567265833333,110.85503427916667,66.0,100.0
225,111.22631065833333,111.73694865833333,67.0,100.0
226,111.73694865833333,112.32949266666668,64.0,100.0
227,112.24755984166667,112.32949266666668,64.0,100.0
228,113.00386284166667,113.25596384166668,66.0,100.0
229,113.25596384166668,113.63306492083335,62.0,100.0
230,113.63411534166667,114.01226684166667,62.0,100.0
231,114.01226684166667,114.26436784166668,61.0,100.0
232,114.26436784166668,114.76751942083334,59.0,100.0
233,114.76856984166668,115.02067084166667,59.0,100.0
234,115.02067084166667,115.27277184166668,61.0,100.0
235,115.27277184166668,115.52487284166668,62.0,100.0
236,115.52487284166668,115.77592342083335,59.0,100.0
237,115.77697384166667,116.02907484166668,59.0,100.0
238,116.02907484166668,116.28117584166668,62.0,100.0
239,116.28117584166668,116.78537784166667,59.0,100.0
240,116.78537784166667,117.03747884166668,66.0,100.0
241,117.03747884166668,117.28852942083334,64.0,100.0
242,117.28957984166668,117.79378184166667,64.0,100.0
243,117.79378184166667,120.31479184166668,66.0,100.0
244,120.31479184166668,120.56689284166669,62.0,100.0
245,120.56689284166669,120.81899384166668,64.0,100.0
246,120.81899384166668,121.82634742083334,66.0,100.0
247,121.82739784166668,122.33159984166667,66.0,100.0
248,122.33159984166667,122.83580184166668,67.0,100.0
249,122.83580184166668,123.34000384166669,64.0,100.0
250,123.34000384166669,123.84420584166668,57.0,100.0
251,123.84420584166668,124.85155942083334,64.0,100.0
252,124.85050900000002,124.85155942083334,64.0,100.0
253,125.10261000000001,125.35574405833334,59.0,100.0
254,125.35471100000001,125.35574405833334,59.0,100.0
255,125.85264511666668,126.10057911666668,59.0,100.0
256,126.10057911666668,126.34851311666668,62.0,100.0
257,126.34851311666668,126.603678525,59.0,100.0
258,126.59438100000001,126.84438111666668,61.0,100.0
259,126.84438111666668,127.33921605833335,62.0,100.0
260,127.34024911666667,127.58818311666667,62.0,100.0
261,127.58818311666667,127.83508405833334,64.0,100.0
262,127.83611711666667,128.08405111666667,64.0,100.0
263,128.08405111666667,128.3319851166667,62.0,100.0
264,128.3319851166667,128.82682005833334,61.0,100.0
265,128.8278531166667,129.07578711666667,61.0,100.0
266,129.07578711666667,129.3237211166667,62.0,100.0
267,129.3237211166667,129.57165511666668,64.0,100.0
268,129.57165511666668,129.81958911666666,57.0,100.0
269,129.81958911666666,130.82728037708335,62.0,100.0
270,130.82834875416668,131.0847592541667,62.0,100.0
271,131.0847592541667,131.34116975416669,64.0,100.0
272,131.34116975416669,132.3668117541667,66.0,100.0
273,132.3668117541667,132.62322225416668,62.0,100.0
274,132.62322225416668,132.8796327541667,64.0,100.0
275,132.8796327541667,133.90420637708337,66.0,100.0
276,133.9052747541667,134.4180957541667,66.0,100.0
277,134.4180957541667,134.9309167541667,67.0,100.0
278,134.9309167541667,135.4436671166667,64.0,100.0
279,135.4436671166667,135.9395351166667,57.0,100.0
280,135.9395351166667,136.93023805833334,64.0,100.0
281,136.9312711166667,137.17920511666668,64.0,100.0
282,137.17920511666668,137.42610605833335,59.0,100.0
283,137.4271391166667,137.92197405833335,59.0,100.0
284,137.9230071166667,138.1306518416667,59.0,100.0
285,138.168875,138.4188751166667,61.0,100.0
286,138.4188751166667,138.63685042500003,59.0,100.0
287,138.66474300000002,138.85275961666667,61.0,100.0
288,138.9147431166667,139.40957805833335,62.0,100.0
289,139.40854500000003,139.40957805833335,62.0,100.0
290,139.65647900000002,139.90337994166669,64.0,100.0
291,139.90441300000003,140.15234700000002,64.0,100.0
292,140.15234700000002,140.400281,62.0,100.0
293,140.40234711666668,141.017016825,61.0,100.0
294,140.89821511666668,141.017016825,61.0,100.0
295,141.1461491166667,141.39417217083334,62.0,100.0
296,141.39417217083334,141.65279267083335,64.0,100.0
297,141.65279267083335,141.91141317083336,57.0,100.0
298,141.91141317083336,142.94589517083335,62.0,100.0
299,142.94589517083335,143.215291525,61.0,100.0
300,143.20451567083333,143.46529134166667,62.0,100.0
301,143.46313617083334,144.49654058541668,59.0,100.0
302,144.49761817083333,144.75623867083334,59.0,100.0
303,144.75623867083334,145.01485917083335,61.0,100.0
304,145.01485917083335,145.68188454375002,62.0,100.0
305,145.53210017083333,145.68188454375002,62.0,100.0
306,145.79072067083334,146.04826358541666,64.0,100.0
307,146.04934117083334,146.30796167083335,64.0,100.0
308,146.30796167083335,146.56658217083336,62.0,100.0
309,146.56658217083336,147.20235756666668,61.0,100.0
310,147.08382317083334,147.20235756666668,61.0,100.0
311,147.34244367083335,147.60106417083335,62.0,100.0
312,147.60106417083335,147.85968467083333,64.0,100.0
313,147.85968467083333,148.15278790416667,57.0,100.0
314,148.11830517083334,150.70451017083334,62.0,100.0
315,150.70451017083334,151.01054442916669,61.0,100.0
316,150.96313067083335,151.22175117083333,62.0,100.0
317,151.22175117083333,155.357524,59.0,100.0
