,start,end,pitch,velocity
0,20.314715020833333,20.938207645833334,70.0,56.0
1,21.037605020833333,21.406580125,70.0,84.0
2,21.399050020833336,21.80718166666667,68.0,80.0
3,21.760495020833336,22.180674833333335,66.0,80.0
4,22.121940020833335,22.4863970625,68.0,81.0
5,22.483385020833335,23.781574979166667,70.0,80.0
6,23.929165020833334,24.290610020833334,70.0,85.0
7,24.290610020833334,24.584284083333333,75.0,87.0
8,24.652055020833334,25.299643979166667,73.0,85.0
9,25.374945020833334,25.765004416666667,70.0,85.0
10,25.736390020833333,26.085786854166667,68.0,80.0
11,26.097835020833333,26.4939185,66.0,81.0
12,26.459280020833333,26.861387583333336,68.0,83.0
13,26.820725020833333,28.38096260416667,70.0,81.0
14,28.989395020833335,29.624935812500002,68.0,81.0
15,29.712285020833335,29.98186275,68.0,84.0
16,30.073730020833334,30.362886020833333,70.0,84.0
17,30.435175020833334,30.769511645833333,71.0,87.0
18,30.796620020833334,31.11439041666667,75.0,89.0
19,31.158065020833334,32.60384502083333,70.0,83.0
20,33.32673502083333,33.93667345833333,70.0,86.0
21,34.04962502083333,34.352335208333336,70.0,85.0
22,34.411070020833336,34.69570795833334,75.0,87.0
23,34.77251502083333,35.033056625,77.0,85.0
24,35.133960020833335,35.44118827083334,78.0,77.0
25,35.49540502083333,37.415581583333335,77.0,85.0
26,37.66407502083334,38.287567645833334,70.0,56.0
27,38.38696502083334,38.755940125,70.0,84.0
28,38.74841002083333,39.15654166666667,68.0,80.0
29,39.109855020833336,39.53003483333333,66.0,80.0
30,39.47130002083333,39.8357570625,68.0,81.0
31,39.832745020833336,41.13093497916667,70.0,80.0
32,41.278525020833335,41.63997002083333,70.0,85.0
33,41.63997002083333,41.933644083333334,75.0,87.0
34,42.001415020833335,42.649003979166665,73.0,85.0
35,42.724305020833334,43.11436441666667,70.0,85.0
36,43.08575002083334,43.43514685416667,68.0,80.0
37,43.447195020833334,43.843278500000004,66.0,81.0
38,43.80864002083334,44.21074758333334,68.0,83.0
39,44.17008502083333,45.730322604166666,70.0,81.0
40,46.33875502083333,46.9742958125,68.0,81.0
41,47.06164502083333,47.33122275,68.0,84.0
42,47.423090020833335,47.712246020833334,70.0,84.0
43,47.78453502083333,48.11887164583334,71.0,87.0
44,48.145980020833335,48.46375041666667,75.0,89.0
45,48.50742502083334,49.95320502083334,70.0,83.0
46,50.67609502083334,51.286033458333335,70.0,86.0
47,51.39898502083334,51.701695208333334,70.0,85.0
48,51.76043002083333,52.045067958333334,75.0,87.0
49,52.121875020833336,52.382416625000005,77.0,85.0
50,52.48332002083333,52.790548270833334,78.0,77.0
51,52.844765020833336,54.76494158333333,75.0,85.0
52,56.82066002083334,57.15951470833333,70.0,89.0
53,57.18210502083333,57.817645812500004,78.0,85.0
54,57.90499502083333,58.1565005,78.0,85.0
55,58.266440020833336,58.526981625000005,80.0,83.0
56,58.62788502083333,58.90047479166667,78.0,86.0
57,58.989330020833336,59.2814980625,70.0,89.0
58,59.35077502083333,60.07366502083334,77.0,87.0
59,60.07366502083334,60.46673645833334,77.0,81.0
60,60.435110020833335,60.8447476875,78.0,86.0
61,60.79655502083334,61.42607172916667,77.0,83.0
62,61.51944502083334,62.11131120833333,75.0,87.0
63,62.24233502083334,62.46974416666667,75.0,89.0
64,62.603780020833334,62.92155041666667,75.0,87.0
65,62.96522502083334,63.673054812500006,78.0,83.0
66,63.68811502083334,65.28750914583334,75.0,89.0
67,65.85678502083334,66.46220539583334,71.0,81.0
68,66.57967502083333,66.84774672916667,71.0,80.0
69,66.94112002083334,67.237806125,73.0,85.0
70,67.30256502083334,67.92304560416667,71.0,88.0
71,68.02545502083333,68.69563429166666,70.0,86.0
72,68.74834502083334,69.4471386875,75.0,87.0
73,69.47123502083333,70.1429203125,78.0,84.0
74,70.19412502083334,70.76038885416666,80.0,85.0
75,70.91701502083333,71.20315897916667,80.0,85.0
76,71.27846002083334,71.52845947916667,82.0,86.0
77,71.63990502083334,72.27393979166666,80.0,86.0
78,72.36279502083333,74.032972125,77.0,88.0
79,74.17002002083333,74.50887470833334,70.0,89.0
80,74.53146502083334,75.16700581250001,78.0,85.0
81,75.25435502083333,75.5058605,78.0,85.0
82,75.61580002083333,75.87634162500001,80.0,83.0
83,75.97724502083334,76.70013502083333,78.0,86.0
84,76.70013502083333,77.42302502083334,77.0,87.0
85,77.42302502083334,77.81609645833333,77.0,81.0
86,77.78447002083334,78.19410768750001,78.0,86.0
87,78.14591502083334,78.77543172916667,77.0,83.0
88,78.86880502083334,79.46067120833334,75.0,87.0
89,79.59169502083334,79.81910416666668,75.0,89.0
90,79.95314002083333,80.27091041666667,75.0,87.0
91,80.31458502083333,81.0224148125,78.0,83.0
92,81.03747502083334,82.63686914583333,75.0,89.0
93,83.20614502083333,83.81156539583334,71.0,81.0
94,83.92903502083334,84.19710672916666,71.0,80.0
95,84.29048002083334,84.587166125,73.0,85.0
96,84.65192502083333,85.27240560416666,71.0,88.0
97,85.37481502083334,86.04499429166667,70.0,86.0
98,86.09770502083333,86.7964986875,75.0,87.0
99,86.82059502083334,87.4922803125,82.0,84.0
100,87.54348502083333,88.10974885416667,80.0,85.0
101,88.26637502083334,88.94709643750001,78.0,81.0
102,88.98926502083334,89.72570920833334,77.0,82.0
103,89.71215502083334,91.91847554166667,75.0,85.0
104,128.74821502083333,129.37170764583334,70.0,56.0
105,129.47110502083333,129.84008012500001,70.0,84.0
106,129.83255002083334,130.24068166666666,68.0,80.0
107,130.19399502083334,130.61417483333335,66.0,80.0
108,130.55544002083334,130.9198970625,68.0,81.0
109,130.91688502083335,132.21507497916667,70.0,80.0
110,132.36266502083333,132.72411002083334,70.0,85.0
111,132.72411002083334,133.01778408333334,75.0,87.0
112,133.08555502083334,133.73314397916667,73.0,85.0
113,133.80844502083335,134.19850441666668,70.0,85.0
114,134.16989002083335,134.51928685416667,68.0,80.0
115,134.53133502083332,134.92741850000002,66.0,81.0
116,134.89278002083333,135.29488758333335,68.0,83.0
117,135.25422502083333,136.81446260416666,70.0,81.0
118,137.42289502083335,138.0584358125,68.0,81.0
119,138.14578502083333,138.41536275,68.0,84.0
120,138.50723002083333,138.79638602083332,70.0,84.0
121,138.86867502083334,139.20301164583333,71.0,87.0
122,139.23012002083334,139.54789041666666,75.0,89.0
123,139.59156502083334,141.03734502083333,70.0,83.0
124,141.76023502083333,142.37017345833334,70.0,86.0
125,142.48312502083334,142.78583520833334,70.0,85.0
126,142.84457002083334,143.12920795833332,75.0,87.0
127,143.20601502083335,143.466556625,77.0,85.0
128,143.56746002083335,143.87468827083333,78.0,77.0
129,143.92890502083333,145.84908158333334,75.0,85.0
130,147.90480002083333,148.24365470833334,70.0,89.0
131,148.26624502083334,148.9017858125,78.0,85.0
132,148.98913502083334,149.2406405,78.0,85.0
133,149.35058002083335,149.611121625,80.0,83.0
134,149.71202502083335,149.98461479166667,78.0,86.0
135,150.07347002083333,150.3656380625,70.0,89.0
136,150.43491502083333,151.15780502083334,77.0,87.0
137,151.15780502083334,151.55087645833333,77.0,81.0
138,151.51925002083334,151.9288876875,78.0,86.0
139,151.88069502083334,152.51021172916668,77.0,83.0
140,152.60358502083335,153.19545120833334,75.0,87.0
141,153.32647502083333,153.55388416666668,75.0,89.0
142,153.68792002083333,154.00569041666668,75.0,87.0
143,154.04936502083333,154.75719481250002,78.0,83.0
144,154.77225502083334,156.37164914583335,75.0,89.0
145,156.94092502083333,157.54634539583333,71.0,81.0
146,157.66381502083334,157.93188672916668,71.0,80.0
147,158.02526002083334,158.321946125,73.0,85.0
148,158.38670502083335,159.00718560416666,71.0,88.0
149,159.10959502083332,159.77977429166668,70.0,86.0
150,159.83248502083333,160.5312786875,75.0,87.0
151,160.55537502083334,161.22706031250002,78.0,84.0
152,161.27826502083335,161.84452885416667,80.0,85.0
153,162.00115502083335,162.28729897916668,80.0,85.0
154,162.36260002083333,162.61259947916668,82.0,86.0
155,162.72404502083333,163.35807979166668,80.0,86.0
156,163.44693502083334,165.117112125,77.0,88.0
157,165.25416002083333,165.59301470833333,70.0,89.0
158,165.61560502083333,166.2511458125,78.0,85.0
159,166.33849502083334,166.5900005,78.0,85.0
160,166.69994002083334,166.960481625,80.0,83.0
161,167.06138502083334,167.78427502083335,78.0,86.0
162,167.78427502083335,168.50716502083333,77.0,87.0
163,168.50716502083333,168.90023645833335,77.0,81.0
164,168.86861002083333,169.2782476875,78.0,86.0
165,169.23005502083333,169.85957172916667,77.0,83.0
166,169.95294502083334,170.54481120833333,75.0,87.0
167,170.67583502083335,170.90324416666667,75.0,89.0
168,171.03728002083335,171.35505041666667,75.0,87.0
169,171.39872502083335,172.1065548125,78.0,83.0
170,172.12161502083333,173.72100914583334,75.0,89.0
171,174.29028502083335,174.89570539583335,71.0,81.0
172,175.01317502083333,175.28124672916667,71.0,80.0
173,175.37462002083333,175.671306125,73.0,85.0
174,175.73606502083334,176.35654560416668,71.0,88.0
175,176.45895502083334,177.12913429166667,70.0,86.0
176,177.18184502083335,177.8806386875,75.0,87.0
177,177.90473502083333,178.5764203125,82.0,84.0
178,178.62762502083334,179.1938888541667,80.0,85.0
179,179.35051502083334,180.0312364375,78.0,81.0
180,180.07340502083335,180.80984920833333,77.0,82.0
181,180.79629502083333,183.00261554166667,75.0,85.0
182,184.77219002083334,185.11104470833334,70.0,89.0
183,185.13363502083334,185.7691758125,78.0,85.0
184,185.85652502083335,186.1080305,78.0,85.0
185,186.21797002083335,186.478511625,80.0,83.0
186,186.57941502083335,186.85200479166667,78.0,86.0
187,186.94086002083333,187.2330280625,70.0,89.0
188,187.30230502083333,188.02519502083334,77.0,87.0
189,188.02519502083334,188.41826645833333,77.0,81.0
190,188.38664002083334,188.7962776875,78.0,86.0
191,188.74808502083334,189.37760172916668,77.0,83.0
192,189.47097502083335,190.06284120833334,75.0,87.0
193,190.19386502083333,190.42127416666668,75.0,89.0
194,190.55531002083333,190.87308041666668,75.0,87.0
195,190.91675502083334,191.62458481250002,78.0,83.0
196,191.63964502083334,193.23903914583335,75.0,89.0
197,193.80831502083333,194.41373539583333,71.0,81.0
198,194.53120502083334,194.79927672916668,71.0,80.0
199,194.89265002083334,195.189336125,73.0,85.0
200,195.25409502083335,195.87457560416667,71.0,88.0
201,195.97698502083335,196.64716429166668,70.0,86.0
202,196.69987502083333,197.39866868750002,75.0,87.0
203,197.42276502083334,198.09445031250002,78.0,84.0
204,198.14565502083335,198.71191885416667,80.0,85.0
205,198.86854502083335,199.15468897916668,80.0,85.0
206,199.22999002083333,199.47998947916668,82.0,86.0
207,199.59143502083333,200.22546979166668,80.0,86.0
208,200.31432502083334,201.984502125,77.0,88.0
209,202.12155002083335,202.46040470833333,70.0,89.0
210,202.48299502083333,203.1185358125,78.0,85.0
211,203.20588502083334,203.4573905,78.0,85.0
212,203.56733002083334,203.827871625,80.0,83.0
213,203.92877502083334,204.65166502083335,78.0,86.0
214,204.65166502083335,205.37455502083333,77.0,87.0
215,205.37455502083333,205.76762645833335,77.0,81.0
216,205.73600002083333,206.1456376875,78.0,86.0
217,206.09744502083333,206.72696172916667,77.0,83.0
218,206.82033502083334,207.41220120833333,75.0,87.0
219,207.54322502083335,207.77063416666667,75.0,89.0
220,207.90467002083335,208.22244041666667,75.0,87.0
221,208.26611502083335,208.9739448125,78.0,83.0
222,208.98900502083333,210.58839914583334,75.0,89.0
223,211.15767502083335,211.76309539583335,71.0,81.0
224,211.88056502083333,212.14863672916667,71.0,80.0
225,212.24201002083333,212.538696125,73.0,85.0
226,212.60345502083334,213.22393560416668,71.0,88.0
227,213.32634502083334,213.99652429166667,70.0,86.0
228,214.04923502083335,214.7480286875,75.0,87.0
229,214.77212502083333,215.4438103125,82.0,84.0
230,215.49501502083334,216.0612788541667,80.0,85.0
231,216.21790502083334,216.8986264375,78.0,81.0
232,216.94079502083335,217.67723920833333,77.0,82.0
233,217.66368502083333,219.10946502083334,75.0,85.0
234,219.83235502083335,220.43777539583334,71.0,81.0
235,220.55524502083335,220.82331672916666,71.0,80.0
236,220.91669002083333,221.213376125,73.0,85.0
237,221.27813502083333,221.89861560416668,71.0,88.0
238,222.00102502083334,222.67120429166667,70.0,86.0
239,222.72391502083335,223.4227086875,75.0,87.0
240,223.44680502083335,224.1184903125,82.0,84.0
241,224.16969502083333,224.73595885416668,80.0,85.0
242,225.08987375,225.97692002083335,78.0,81.0
243,226.06577525,228.29920414583333,77.0,86.0
244,228.31125231250002,231.8835337291667,75.0,86.0
