,start,end,pitch,velocity
0,4.049690020833333,4.453303604166667,66.0,79.0
1,3.6882450208333335,4.454809625,63.0,72.0
2,3.3268000208333333,4.814748604166667,58.0,53.0
3,2.9653550208333335,4.828302791666667,51.0,84.0
4,4.411135020833333,6.274082791666667,70.0,81.0
5,5.495470020833333,6.621973604166667,56.0,66.0
6,5.856915020833333,6.641551875,61.0,78.0
7,5.134025020833334,6.746973333333334,49.0,81.0
8,6.218360020833334,7.334321458333333,65.0,85.0
9,6.579805020833334,8.124982395833333,70.0,76.0
10,8.025585020833333,8.463837083333333,63.0,78.0
11,8.387030020833334,8.83733025,66.0,76.0
12,7.664140020833334,9.033112958333334,54.0,54.0
13,7.302695020833333,9.1445585,47.0,81.0
14,9.109920020833334,9.542148000000001,63.0,61.0
15,8.748475020833334,10.271062083333334,70.0,83.0
16,10.194255020833333,10.632507083333333,63.0,85.0
17,9.471365020833334,10.978891875,47.0,82.0
18,9.832810020833334,10.980397895833335,54.0,68.0
19,10.555700020833333,11.002988208333333,66.0,82.0
20,10.917145020833333,11.862926104166666,70.0,81.0
21,12.362925020833334,12.478888625,63.0,80.0
22,12.724370020833334,13.165634125,68.0,77.0
23,12.001480020833334,13.582801895833335,51.0,69.0
24,11.640035020833334,13.647560791666667,44.0,77.0
25,13.085815020833333,13.868945854166666,71.0,80.0
26,14.531595020833334,14.983401270833333,58.0,85.0
27,14.170150020833335,15.0225578125,46.0,67.0
28,13.808705020833333,15.090328750000001,39.0,85.0
29,14.893040020833334,15.2846054375,63.0,80.0
30,15.254485020833334,16.771048,66.0,84.0
31,16.700265020833335,17.445745333333335,59.0,83.0
32,17.061710020833335,17.463817583333334,63.0,76.0
33,15.977375020833334,17.942732208333332,47.0,85.0
34,17.423155020833335,18.0135151875,66.0,85.0
35,16.338820020833335,18.0496596875,54.0,66.0
36,18.146045020833334,19.5677286875,59.0,75.0
37,18.146045020833334,19.638511666666666,63.0,80.0
38,18.146045020833334,19.668632083333335,47.0,77.0
39,20.314715020833333,21.0948338125,66.0,77.0
40,21.037605020833333,21.433688500000002,63.0,80.0
41,20.314715020833333,22.358385291666668,51.0,84.0
42,20.676160020833333,22.636999145833332,58.0,76.0
43,21.399050020833336,22.71681825,66.0,81.0
44,21.760495020833336,23.338804854166668,70.0,81.0
45,23.206275020833335,23.627960854166666,63.0,80.0
46,23.567720020833335,24.010490145833334,65.0,87.0
47,22.483385020833335,24.442718125000003,51.0,81.0
48,22.844830020833335,24.552657645833335,58.0,70.0
49,23.929165020833334,24.701753708333335,66.0,86.0
50,24.652055020833334,25.4141015625,70.0,83.0
51,25.374945020833334,25.822233208333333,61.0,85.0
52,25.736390020833333,26.2454250625,66.0,79.0
53,26.097835020833333,26.409581333333335,70.0,81.0
54,25.013500020833334,26.4532559375,58.0,73.0
55,24.652055020833334,26.502954625,54.0,81.0
56,26.820725020833333,27.539096958333335,61.0,79.0
57,26.820725020833333,27.594819729166666,70.0,86.0
58,27.543615020833336,27.896023895833334,66.0,77.0
59,27.905060020833336,28.329757895833335,61.0,91.0
60,26.820725020833333,28.346324125000002,54.0,81.0
61,28.266505020833335,28.525540604166668,73.0,85.0
62,28.989395020833335,29.6746345,68.0,72.0
63,29.712285020833335,30.158067187500002,63.0,85.0
64,30.073730020833334,30.508970041666668,68.0,81.0
65,28.989395020833335,30.784571854166668,44.0,85.0
66,29.350840020833335,30.802644104166667,51.0,83.0
67,30.435175020833334,31.189691458333336,71.0,83.0
68,31.158065020833334,31.993906583333334,70.0,76.0
69,31.880955020833333,32.567700520833334,63.0,77.0
70,32.24240002083334,32.650531666666666,66.0,87.0
71,31.519510020833334,32.769507312500004,58.0,70.0
72,31.158065020833334,32.799627729166666,51.0,87.0
73,32.60384502083333,33.3929999375,70.0,80.0
74,33.32673502083333,34.03607083333333,66.0,81.0
75,34.04962502083333,34.44872054166667,63.0,85.0
76,33.688180020833336,34.7574548125,54.0,69.0
77,33.32673502083333,34.79209329166667,47.0,75.0
78,34.411070020833336,34.79510533333333,65.0,87.0
79,34.77251502083333,35.11287572916667,66.0,85.0
80,35.133960020833335,35.57221208333333,63.0,78.0
81,35.49540502083333,36.370403125,65.0,80.0
82,36.21829502083334,36.5466075625,56.0,85.0
83,36.579740020833334,36.95775125,62.0,86.0
84,35.49540502083333,37.2649795,46.0,75.0
85,35.856850020833335,37.317690229166665,53.0,78.0
86,36.94118502083334,37.45775016666667,63.0,85.0
87,37.66407502083334,37.70172554166667,63.0,73.0
88,37.302630020833334,37.74540014583334,65.0,90.0
89,37.66407502083334,38.430639625000005,66.0,85.0
90,38.38696502083334,38.8508194375,63.0,85.0
91,38.74841002083333,39.01497570833333,66.0,71.0
92,37.66407502083334,39.645998437500005,51.0,86.0
93,38.02552002083333,39.79660052083334,58.0,74.0
94,39.109855020833336,40.12641908333333,66.0,81.0
95,39.109855020833336,40.645996270833336,70.0,85.0
96,40.19419002083333,40.67912872916667,58.0,76.0
97,40.555635020833336,41.30563339583333,63.0,86.0
98,40.91708002083333,41.561656937500004,58.0,72.0
99,39.832745020833336,41.58575327083334,51.0,87.0
100,41.278525020833335,41.67611452083334,66.0,85.0
101,41.278525020833335,41.950210312500005,70.0,80.0
102,42.001415020833335,42.45924535416667,61.0,79.0
103,42.001415020833335,42.740871250000005,66.0,81.0
104,42.724305020833334,43.16255708333333,61.0,89.0
105,43.08575002083334,43.252918333333334,66.0,86.0
106,43.447195020833334,43.5586405625,61.0,86.0
107,43.447195020833334,43.56918270833334,70.0,81.0
108,42.36286002083334,43.8297243125,49.0,69.0
109,42.001415020833335,43.8568326875,42.0,83.0
110,44.17008502083333,44.61737320833333,61.0,78.0
111,44.17008502083333,44.89749308333334,66.0,80.0
112,44.89297502083333,45.430624458333334,61.0,86.0
113,45.25442002083334,45.715262395833335,66.0,85.0
114,44.17008502083333,45.97429797916667,42.0,82.0
115,44.53153002083334,46.0074304375,49.0,74.0
116,45.61586502083333,46.03002075,68.0,82.0
117,45.977310020833336,46.38393564583333,70.0,81.0
118,46.33875502083333,47.034536645833334,68.0,77.0
119,47.06164502083333,47.496885041666665,63.0,53.0
120,47.423090020833335,47.630920895833334,68.0,78.0
121,47.78453502083333,47.98031772916667,63.0,85.0
122,46.33875502083333,47.99387191666667,44.0,86.0
123,46.700200020833336,47.999896,51.0,78.0
124,47.78453502083333,48.3748951875,68.0,86.0
125,47.78453502083333,48.38242529166667,71.0,86.0
126,48.50742502083334,49.26796554166667,70.0,80.0
127,49.23031502083334,49.71525372916667,63.0,86.0
128,49.591760020833334,49.81013304166667,66.0,87.0
129,48.868870020833334,50.14296364583333,58.0,73.0
130,48.50742502083334,50.17157804166667,51.0,86.0
131,49.95320502083334,50.38392697916667,66.0,85.0
132,49.95320502083334,50.40199922916667,63.0,80.0
133,49.95320502083334,50.63091439583334,70.0,85.0
134,51.39898502083334,51.76494808333334,59.0,90.0
135,50.67609502083334,51.76645410416667,47.0,88.0
136,51.03754002083333,51.77398420833334,54.0,85.0
137,51.76043002083333,52.111332875,63.0,85.0
138,52.121875020833336,52.56615116666667,56.0,86.0
139,52.121875020833336,52.627898020833335,62.0,79.0
140,52.121875020833336,52.8025964375,46.0,84.0
141,52.844765020833336,53.01343935416667,58.0,78.0
142,52.844765020833336,53.2724749375,63.0,81.0
143,53.20621002083333,53.638438,58.0,77.0
144,53.567655020833335,54.0405455625,65.0,86.0
145,53.92910002083334,54.35530391666667,58.0,83.0
146,52.844765020833336,54.54958060416667,51.0,85.0
147,54.290545020833335,54.78000179166667,66.0,86.0
148,54.65199002083334,54.89144733333333,58.0,86.0
149,55.013435020833334,55.1971695625,58.0,86.0
150,55.013435020833334,55.46524127083334,63.0,86.0
151,55.37488002083334,55.6670480625,58.0,80.0
152,55.736325020833334,55.88090302083334,65.0,94.0
153,55.013435020833334,56.289034666666666,51.0,88.0
154,56.09777002083334,56.32819120833334,58.0,90.0
155,56.459215020833334,56.608311083333334,58.0,86.0
156,56.459215020833334,56.89746708333333,63.0,90.0
157,56.459215020833334,56.9321055625,66.0,87.0
158,56.459215020833334,57.05409325,51.0,92.0
159,56.82066002083334,57.09626183333334,58.0,86.0
160,57.18210502083333,57.38993589583333,58.0,86.0
161,57.18210502083333,57.5917426875,63.0,86.0
162,57.54355002083334,57.91553716666667,58.0,76.0
163,57.90499502083333,58.27698216666667,63.0,75.0
164,58.266440020833336,58.466740791666666,58.0,72.0
165,57.18210502083333,58.55409,51.0,89.0
166,58.62788502083333,58.71674025,51.0,94.0
167,58.62788502083333,58.75589679166667,58.0,84.0
168,58.62788502083333,59.0239685,63.0,88.0
169,58.62788502083333,59.042040750000005,66.0,87.0
170,58.989330020833336,59.13993210416667,58.0,82.0
171,59.35077502083333,59.5525818125,56.0,75.0
172,59.35077502083333,59.773966875,61.0,77.0
173,59.712220020833335,60.09324329166667,56.0,78.0
174,60.07366502083334,60.3929414375,61.0,74.0
175,60.435110020833335,60.823663395833336,56.0,68.0
176,59.35077502083333,61.023964166666666,49.0,79.0
177,60.79655502083334,61.03601233333333,61.0,85.0
178,60.79655502083334,61.21372279166667,65.0,86.0
179,61.158000020833335,61.28299975,56.0,75.0
180,61.51944502083334,61.680589250000004,59.0,74.0
181,61.51944502083334,61.889926145833336,63.0,77.0
182,61.880890020833334,62.2905276875,59.0,78.0
183,62.24233502083334,62.769442312500004,63.0,80.0
184,62.603780020833334,62.84474335416667,59.0,65.0
185,61.51944502083334,62.9772731875,47.0,85.0
186,62.96522502083334,63.16100772916667,59.0,82.0
187,62.96522502083334,63.20468233333334,63.0,85.0
188,62.96522502083334,63.2935375625,66.0,81.0
189,63.68811502083334,64.418535125,66.0,82.0
190,64.41100502083333,64.82516075000001,63.0,82.0
191,64.77245002083333,65.18660575,65.0,86.0
192,65.13389502083334,65.58419525000001,66.0,86.0
193,63.68811502083334,65.69112272916666,51.0,86.0
194,64.04956002083334,65.74985754166667,58.0,72.0
195,65.49534002083334,65.82064052083334,68.0,77.0
196,65.85678502083334,66.650458,56.0,78.0
197,66.57967502083333,66.99383075,59.0,84.0
198,65.85678502083334,67.07515587500001,63.0,81.0
199,66.94112002083334,67.40196239583334,56.0,77.0
200,67.30256502083334,67.50286579166666,59.0,75.0
201,67.30256502083334,67.526962125,63.0,81.0
202,66.21823002083333,67.55105845833333,51.0,75.0
203,65.85678502083334,67.57214275,44.0,86.0
204,67.30256502083334,67.61581735416667,68.0,82.0
205,68.02545502083333,68.25587620833333,58.0,77.0
206,68.02545502083333,68.53147802083333,63.0,80.0
207,68.38690002083334,68.819128,58.0,85.0
208,68.74834502083334,69.3838858125,66.0,84.0
209,69.10979002083333,69.52695779166667,58.0,83.0
210,68.02545502083333,69.532981875,51.0,85.0
211,69.47123502083333,69.64292139583334,63.0,87.0
212,70.19412502083334,70.64743729166666,59.0,74.0
213,70.19412502083334,70.91249695833334,63.0,81.0
214,70.91701502083333,71.37785739583333,59.0,84.0
215,71.27846002083334,71.52845947916667,63.0,81.0
216,70.19412502083334,71.82062752083334,47.0,83.0
217,70.55557002083333,71.82665160416667,54.0,68.0
218,71.63990502083334,71.86731416666667,59.0,77.0
219,71.63990502083334,72.03900054166667,66.0,83.0
220,72.36279502083333,73.65496089583334,46.0,87.0
221,73.08568502083334,73.67755120833334,58.0,85.0
222,72.72424002083334,73.69712947916666,53.0,81.0
223,73.44713002083334,73.74381612500001,62.0,91.0
224,73.80857502083333,74.13989960416667,63.0,89.0
225,73.80857502083333,74.30104383333334,53.0,89.0
226,73.80857502083333,74.39592314583334,46.0,85.0
227,74.17002002083333,74.46821214583333,65.0,87.0
228,74.53146502083334,74.88086185416667,66.0,86.0
229,74.89291002083334,75.2844754375,58.0,81.0
230,75.25435502083333,75.58869164583334,63.0,80.0
231,74.53146502083334,75.74682383333334,51.0,90.0
232,75.61580002083333,75.84923325,58.0,65.0
233,75.97724502083334,76.13688322916667,58.0,80.0
234,75.97724502083334,76.22724447916667,51.0,82.0
235,75.97724502083334,76.38236462500001,63.0,84.0
236,75.97724502083334,76.56308712500001,66.0,84.0
237,76.33869002083334,76.71067716666667,58.0,78.0
238,76.70013502083333,77.17904964583333,65.0,85.0
239,77.06158002083333,77.61730170833333,53.0,80.0
240,77.42302502083334,77.79953022916666,61.0,78.0
241,77.78447002083334,78.04651764583333,58.0,80.0
242,78.14591502083334,78.34470977083333,58.0,85.0
243,78.14591502083334,78.38085427083334,61.0,85.0
244,76.70013502083333,78.40344458333334,46.0,85.0
245,78.14591502083334,78.58416708333334,65.0,87.0
246,78.50736002083333,78.75284141666667,58.0,82.0
247,78.86880502083334,79.2332620625,59.0,74.0
248,78.86880502083334,79.6218154375,63.0,83.0
249,79.23025002083334,79.75133322916668,54.0,63.0
250,78.86880502083334,80.023923,47.0,83.0
251,79.59169502083334,80.1323565,59.0,89.0
252,80.31458502083333,80.50434364583333,59.0,86.0
253,79.95314002083333,80.50886170833334,54.0,70.0
254,80.31458502083333,80.61277714583333,66.0,85.0
255,81.03747502083334,81.53596791666666,63.0,81.0
256,81.39892002083333,81.84018412500001,58.0,80.0
257,81.03747502083334,81.85675035416666,66.0,80.0
258,81.76036502083333,82.21217127083334,63.0,81.0
259,82.12181002083334,82.5856644375,58.0,68.0
260,81.03747502083334,82.63385710416667,51.0,87.0
261,82.48325502083334,82.65192935416667,63.0,79.0
262,82.48325502083334,82.80855552083334,70.0,76.0
263,82.48325502083334,82.82210970833334,66.0,75.0
264,82.84470002083333,83.28897616666667,63.0,85.0
265,83.20614502083333,83.99831197916667,71.0,84.0
266,83.92903502083334,84.3477088125,63.0,83.0
267,84.29048002083334,84.72421402083333,68.0,79.0
268,83.56759002083334,84.85222579166667,51.0,74.0
269,83.20614502083333,85.10824933333333,44.0,83.0
270,85.01337002083334,85.28294775,63.0,72.0
271,84.65192502083333,85.291983875,71.0,89.0
272,85.37481502083334,85.79499483333333,63.0,81.0
273,85.73626002083334,86.51939085416667,58.0,86.0
274,86.09770502083333,86.6383665,63.0,80.0
275,85.37481502083334,86.64137854166667,51.0,86.0
276,86.45915002083333,86.65192068750001,66.0,76.0
277,86.82059502083334,87.207642375,61.0,73.0
278,86.82059502083334,87.28746147916667,49.0,86.0
279,87.54348502083333,88.0434839375,65.0,79.0
280,87.90493002083333,88.31607370833333,59.0,63.0
281,87.54348502083333,88.32962789583334,68.0,80.0
282,87.54348502083333,88.409447,53.0,87.0
283,88.26637502083334,88.80553047916666,65.0,88.0
284,88.62782002083334,89.03595166666668,68.0,85.0
285,89.35071002083333,89.62631183333333,53.0,77.0
286,88.98926502083334,89.68052858333334,46.0,85.0
287,88.98926502083334,89.72872125,70.0,85.0
288,89.71215502083334,90.16546729166667,63.0,81.0
289,90.07360002083334,90.496791875,58.0,78.0
290,90.43504502083334,90.91697168750001,63.0,77.0
291,90.79649002083333,91.2241999375,58.0,75.0
292,89.71215502083334,91.47118735416667,51.0,86.0
293,91.15793502083334,91.8296203125,66.0,85.0
294,91.88082502083334,92.34769147916667,63.0,80.0
295,92.24227002083333,93.36274952083333,58.0,75.0
296,92.60371502083333,93.5464840625,63.0,82.0
297,91.88082502083334,93.62178510416668,51.0,85.0
298,94.04949502083333,94.65039733333333,66.0,81.0
299,94.41094002083334,94.97268579166666,58.0,84.0
300,94.77238502083334,95.14738420833334,63.0,85.0
301,94.04949502083333,95.31756456250001,51.0,87.0
302,95.13383002083334,95.5886483125,66.0,80.0
303,96.21816502083334,96.6820194375,59.0,74.0
304,96.21816502083334,96.96364533333333,63.0,81.0
305,96.94105502083333,97.6217764375,59.0,81.0
306,96.21816502083334,97.8386434375,47.0,83.0
307,97.30250002083334,97.85520966666667,66.0,80.0
308,96.57961002083334,97.85972772916666,54.0,65.0
309,98.38683502083333,98.83562922916667,61.0,77.0
310,98.38683502083333,99.11876114583333,65.0,82.0
311,99.10972502083334,99.4380375625,61.0,87.0
312,99.47117002083334,99.90189197916666,63.0,85.0
313,98.74828002083333,99.90641004166667,56.0,77.0
314,98.38683502083333,99.96966291666666,49.0,87.0
315,99.83261502083333,100.04646997916667,65.0,76.0
316,100.55550502083334,100.95460054166666,61.0,78.0
317,100.55550502083334,101.3536960625,70.0,81.0
318,101.27839502083334,101.85218895833334,61.0,86.0
319,101.63984002083333,102.13080281250001,66.0,74.0
320,100.91695002083334,102.2527905,49.0,71.0
321,100.55550502083334,102.30550122916667,42.0,85.0
322,102.00128502083334,102.39134441666667,68.0,83.0
323,102.36273002083334,102.78290983333333,70.0,86.0
324,102.72417502083334,103.48320952083334,68.0,83.0
325,103.08562002083333,103.6036911875,58.0,75.0
326,103.44706502083334,104.19856941666667,66.0,86.0
327,103.80851002083334,104.21664166666667,58.0,73.0
328,102.72417502083334,104.22417177083334,51.0,87.0
329,104.16995502083334,104.93501360416667,65.0,90.0
330,104.89284502083333,105.6910360625,63.0,80.0
331,105.61573502083334,106.08109545833334,59.0,71.0
332,105.97718002083333,106.21663733333334,63.0,79.0
333,105.25429002083334,106.53290170833334,54.0,61.0
334,104.89284502083333,106.56603416666667,47.0,72.0
335,106.33862502083333,106.66392552083333,59.0,75.0
336,106.33862502083333,106.71061216666666,63.0,79.0
337,106.33862502083333,106.80850352083334,66.0,86.0
338,107.06151502083334,107.5524778125,56.0,77.0
339,107.06151502083334,107.85217595833333,62.0,74.0
340,107.78440502083333,108.18801860416667,56.0,88.0
341,108.14585002083334,108.53590941666667,62.0,85.0
342,108.50729502083334,108.948559125,63.0,85.0
343,107.06151502083334,109.08108895833334,46.0,84.0
344,107.42296002083334,109.093137125,53.0,81.0
345,108.86874002083334,109.24976329166667,65.0,87.0
346,109.23018502083333,109.63229258333334,67.0,85.0
347,109.23018502083333,109.64434075,79.0,81.0
348,109.23018502083333,110.01331585416668,58.0,85.0
349,109.23018502083333,110.05247239583333,51.0,87.0
350,109.59163002083334,110.08560485416668,55.0,86.0
351,109.95307502083334,110.43349566666667,68.0,87.0
352,109.95307502083334,110.45608597916667,80.0,87.0
353,110.31452002083334,110.75879616666667,58.0,70.0
354,110.31452002083334,110.8054828125,51.0,78.0
355,111.03741002083333,111.37626470833334,58.0,83.0
356,110.67596502083333,111.3837948125,70.0,90.0
357,110.67596502083333,111.39885502083334,82.0,86.0
358,111.39885502083334,112.14433533333333,71.0,91.0
359,112.12174502083333,112.66541854166667,63.0,90.0
360,112.48319002083333,112.91843004166667,68.0,86.0
361,111.76030002083334,113.11270672916667,51.0,77.0
362,111.39885502083334,113.15788735416668,44.0,85.0
363,112.84463502083334,113.22264625000001,71.0,90.0
364,113.20608002083334,113.60366952083334,63.0,92.0
365,113.56752502083334,114.71360687500001,70.0,86.0
366,114.29041502083334,114.867221,58.0,92.0
367,114.65186002083334,114.8807751875,65.0,86.0
368,113.92897002083333,115.41691860416667,53.0,79.0
369,115.01330502083334,115.454569125,70.0,83.0
370,113.56752502083334,115.48920760416667,46.0,85.0
371,115.01330502083334,115.53589425,58.0,86.0
372,115.01330502083334,115.62474947916667,65.0,90.0
373,115.73619502083334,116.18197718750001,63.0,86.0
374,116.09764002083334,116.520831875,58.0,84.0
375,115.73619502083334,116.61872322916668,51.0,86.0
376,116.45908502083334,116.68950620833334,63.0,86.0
377,116.45908502083334,116.85215645833334,66.0,86.0
378,117.18197502083333,117.41540825,49.0,87.0
379,117.18197502083333,117.52685379166667,65.0,87.0
380,117.18197502083333,117.76781712500001,61.0,82.0
381,117.90486502083334,118.35667127083333,59.0,74.0
382,117.90486502083334,118.671429625,63.0,83.0
383,118.26631002083333,119.755764625,54.0,70.0
384,118.62775502083333,119.83106566666667,59.0,86.0
385,117.90486502083334,119.91088477083333,47.0,79.0
386,118.98920002083334,119.92594497916667,63.0,79.0
387,120.79642502083334,121.55997758333334,56.0,86.0
388,119.35064502083334,121.61570035416668,66.0,85.0
389,121.51931502083333,121.85365164583334,62.0,86.0
390,120.07353502083333,122.00877179166667,46.0,86.0
391,120.43498002083334,122.05847047916667,53.0,68.0
392,122.96509502083333,123.47563608333334,62.0,85.0
393,122.24220502083334,123.53135885416667,65.0,80.0
394,121.88076002083334,123.71057533333334,58.0,80.0
395,123.68798502083334,123.98617714583334,62.0,74.0
396,123.68798502083334,124.1337671875,70.0,77.0
397,122.60365002083334,124.16388760416667,53.0,66.0
398,122.24220502083334,124.25274283333334,46.0,86.0
399,123.68798502083334,124.409369,65.0,80.0
400,124.41087502083334,124.88978964583333,63.0,81.0
401,124.77232002083333,125.22864433333334,58.0,81.0
402,125.13376502083334,125.60063147916667,65.0,84.0
403,125.49521002083334,125.92442595833334,58.0,74.0
404,125.85665502083334,126.40785864583334,66.0,82.0
405,124.41087502083334,126.42141283333333,51.0,85.0
406,126.21810002083333,128.10363810416666,58.0,81.0
407,126.57954502083334,128.68496214583334,63.0,78.0
408,126.57954502083334,128.7421909375,51.0,81.0
409,128.74821502083333,128.78586554166668,63.0,73.0
410,128.74821502083333,129.51477962500002,66.0,85.0
411,129.47110502083333,129.9349594375,63.0,85.0
412,129.83255002083334,130.09911570833333,66.0,71.0
413,128.74821502083333,130.73013843750002,51.0,86.0
414,129.10966002083333,130.88074052083334,58.0,74.0
415,130.19399502083334,131.21055908333335,66.0,81.0
416,130.19399502083334,131.73013627083333,70.0,85.0
417,131.27833002083335,131.76326872916667,58.0,76.0
418,131.63977502083333,132.38977339583334,63.0,86.0
419,132.00122002083333,132.6457969375,58.0,72.0
420,130.91688502083335,132.66989327083334,51.0,87.0
421,132.36266502083333,132.76025452083334,66.0,85.0
422,132.36266502083333,133.0343503125,70.0,80.0
423,133.08555502083334,133.54338535416667,61.0,79.0
424,133.08555502083334,133.82501125000002,66.0,81.0
425,133.80844502083335,134.24669708333334,61.0,89.0
426,134.16989002083335,134.33705833333335,66.0,86.0
427,134.53133502083332,134.6427805625,61.0,86.0
428,134.53133502083332,134.65332270833335,70.0,81.0
429,133.44700002083334,134.9138643125,49.0,69.0
430,133.08555502083334,134.9409726875,42.0,83.0
431,135.25422502083333,135.70151320833332,61.0,78.0
432,135.25422502083333,135.98163308333335,66.0,80.0
433,135.97711502083334,136.51476445833333,61.0,86.0
434,136.33856002083334,136.79940239583334,66.0,85.0
435,135.25422502083333,137.05843797916668,42.0,82.0
436,135.61567002083333,137.0915704375,49.0,74.0
437,136.70000502083334,137.11416075,68.0,82.0
438,137.06145002083335,137.46807564583335,70.0,81.0
439,137.42289502083335,138.11867664583335,68.0,77.0
440,138.14578502083333,138.58102504166666,63.0,53.0
441,138.50723002083333,138.71506089583335,68.0,78.0
442,138.86867502083334,139.06445772916666,63.0,85.0
443,137.42289502083335,139.07801191666667,44.0,86.0
444,137.78434002083333,139.084036,51.0,78.0
445,138.86867502083334,139.4590351875,68.0,86.0
446,138.86867502083334,139.46656529166668,71.0,86.0
447,139.59156502083334,140.35210554166667,70.0,80.0
448,140.31445502083335,140.79939372916667,63.0,86.0
449,140.67590002083332,140.89427304166668,66.0,87.0
450,139.95301002083335,141.22710364583332,58.0,73.0
451,139.59156502083334,141.25571804166668,51.0,86.0
452,141.03734502083333,141.46806697916668,66.0,85.0
453,141.03734502083333,141.48613922916667,63.0,80.0
454,141.03734502083333,141.71505439583333,70.0,85.0
455,142.48312502083334,142.84908808333333,59.0,90.0
456,141.76023502083333,142.85059410416667,47.0,88.0
457,142.12168002083334,142.85812420833335,54.0,85.0
458,142.84457002083334,143.195472875,63.0,85.0
459,143.20601502083335,143.65029116666668,56.0,86.0
460,143.20601502083335,143.71203802083335,62.0,79.0
461,143.20601502083335,143.88673643750002,46.0,84.0
462,143.92890502083333,144.09757935416667,58.0,78.0
463,143.92890502083333,144.3566149375,63.0,81.0
464,144.29035002083333,144.722578,58.0,77.0
465,144.65179502083333,145.1246855625,65.0,86.0
466,145.01324002083334,145.43944391666668,58.0,83.0
467,143.92890502083333,145.63372060416668,51.0,85.0
468,145.37468502083334,145.86414179166667,66.0,86.0
469,145.73613002083334,145.97558733333335,58.0,86.0
470,146.09757502083335,146.2813095625,58.0,86.0
471,146.09757502083335,146.54938127083335,63.0,86.0
472,146.45902002083335,146.7511880625,58.0,80.0
473,146.82046502083332,146.96504302083335,65.0,94.0
474,146.09757502083335,147.37317466666667,51.0,88.0
475,147.18191002083333,147.41233120833334,58.0,90.0
476,147.54335502083333,147.69245108333334,58.0,86.0
477,147.54335502083333,147.98160708333333,63.0,90.0
478,147.54335502083333,148.01624556250002,66.0,87.0
479,147.54335502083333,148.13823325,51.0,92.0
480,147.90480002083333,148.18040183333335,58.0,86.0
481,148.26624502083334,148.47407589583335,58.0,86.0
482,148.26624502083334,148.6758826875,63.0,86.0
483,148.62769002083334,148.9996771666667,58.0,76.0
484,148.98913502083334,149.36112216666666,63.0,75.0
485,149.35058002083335,149.55088079166669,58.0,72.0
486,148.26624502083334,149.63823,51.0,89.0
487,149.71202502083335,149.80088025,51.0,94.0
488,149.71202502083335,149.84003679166668,58.0,84.0
489,149.71202502083335,150.10810850000001,63.0,88.0
490,149.71202502083335,150.12618075,66.0,87.0
491,150.07347002083333,150.22407210416668,58.0,82.0
492,150.43491502083333,150.6367218125,56.0,75.0
493,150.43491502083333,150.858106875,61.0,77.0
494,150.79636002083333,151.17738329166667,56.0,78.0
495,151.15780502083334,151.4770814375,61.0,74.0
496,151.51925002083334,151.90780339583333,56.0,68.0
497,150.43491502083333,152.10810416666666,49.0,79.0
498,151.88069502083334,152.12015233333335,61.0,85.0
499,151.88069502083334,152.29786279166666,65.0,86.0
500,152.24214002083335,152.36713975,56.0,75.0
501,152.60358502083335,152.76472925000002,59.0,74.0
502,152.60358502083335,152.97406614583335,63.0,77.0
503,152.96503002083332,153.3746676875,59.0,78.0
504,153.32647502083333,153.8535823125,63.0,80.0
505,153.68792002083333,153.9288833541667,59.0,65.0
506,152.60358502083335,154.0614131875,47.0,85.0
507,154.04936502083333,154.24514772916666,59.0,82.0
508,154.04936502083333,154.28882233333334,63.0,85.0
509,154.04936502083333,154.3776775625,66.0,81.0
510,154.77225502083334,155.502675125,66.0,82.0
511,155.49514502083335,155.90930075,63.0,82.0
512,155.85659002083335,156.27074575,65.0,86.0
513,156.21803502083333,156.66833525,66.0,86.0
514,154.77225502083334,156.77526272916668,51.0,86.0
515,155.13370002083334,156.83399754166666,58.0,72.0
516,156.57948002083333,156.90478052083333,68.0,77.0
517,156.94092502083333,157.734598,56.0,78.0
518,157.66381502083334,158.07797075,59.0,84.0
519,156.94092502083333,158.159295875,63.0,81.0
520,158.02526002083334,158.48610239583334,56.0,77.0
521,158.38670502083335,158.58700579166668,59.0,75.0
522,158.38670502083335,158.611102125,63.0,81.0
523,157.30237002083334,158.63519845833335,51.0,75.0
524,156.94092502083333,158.65628275,44.0,86.0
525,158.38670502083335,158.69995735416668,68.0,82.0
526,159.10959502083332,159.34001620833334,58.0,77.0
527,159.10959502083332,159.61561802083335,63.0,80.0
528,159.47104002083333,159.903268,58.0,85.0
529,159.83248502083333,160.4680258125,66.0,84.0
530,160.19393002083333,160.61109779166668,58.0,83.0
531,159.10959502083332,160.617121875,51.0,85.0
532,160.55537502083334,160.72706139583335,63.0,87.0
533,161.27826502083335,161.73157729166667,59.0,74.0
534,161.27826502083335,161.99663695833334,63.0,81.0
535,162.00115502083335,162.46199739583335,59.0,84.0
536,162.36260002083333,162.61259947916668,63.0,81.0
537,161.27826502083335,162.90476752083333,47.0,83.0
538,161.63971002083335,162.91079160416666,54.0,68.0
539,162.72404502083333,162.95145416666668,59.0,77.0
540,162.72404502083333,163.1231405416667,66.0,83.0
541,163.44693502083334,164.73910089583333,46.0,87.0
542,164.16982502083334,164.76169120833333,58.0,85.0
543,163.80838002083334,164.78126947916667,53.0,81.0
544,164.53127002083335,164.82795612500001,62.0,91.0
545,164.89271502083335,165.22403960416668,63.0,89.0
546,164.89271502083335,165.38518383333334,53.0,89.0
547,164.89271502083335,165.48006314583333,46.0,85.0
548,165.25416002083333,165.55235214583334,65.0,87.0
549,165.61560502083333,165.96500185416667,66.0,86.0
550,165.97705002083333,166.3686154375,58.0,81.0
551,166.33849502083334,166.67283164583333,63.0,80.0
552,165.61560502083333,166.83096383333333,51.0,90.0
553,166.69994002083334,166.93337325000002,58.0,65.0
554,167.06138502083334,167.22102322916666,58.0,80.0
555,167.06138502083334,167.31138447916666,51.0,82.0
556,167.06138502083334,167.466504625,63.0,84.0
557,167.06138502083334,167.647227125,66.0,84.0
558,167.42283002083335,167.79481716666666,58.0,78.0
559,167.78427502083335,168.26318964583334,65.0,85.0
560,168.14572002083335,168.70144170833333,53.0,80.0
561,168.50716502083333,168.88367022916668,61.0,78.0
562,168.86861002083333,169.13065764583334,58.0,80.0
563,169.23005502083333,169.42884977083335,58.0,85.0
564,169.23005502083333,169.46499427083333,61.0,85.0
565,167.78427502083335,169.48758458333333,46.0,85.0
566,169.23005502083333,169.66830708333333,65.0,87.0
567,169.59150002083334,169.83698141666667,58.0,82.0
568,169.95294502083334,170.3174020625,59.0,74.0
569,169.95294502083334,170.7059554375,63.0,83.0
570,170.31439002083334,170.83547322916667,54.0,63.0
571,169.95294502083334,171.10806300000002,47.0,83.0
572,170.67583502083335,171.2164965,59.0,89.0
573,171.39872502083335,171.58848364583335,59.0,86.0
574,171.03728002083335,171.59300170833333,54.0,70.0
575,171.39872502083335,171.69691714583334,66.0,85.0
576,172.12161502083333,172.62010791666668,63.0,81.0
577,172.48306002083334,172.924324125,58.0,80.0
578,172.12161502083333,172.94089035416667,66.0,80.0
579,172.84450502083334,173.29631127083334,63.0,81.0
580,173.20595002083334,173.6698044375,58.0,68.0
581,172.12161502083333,173.71799710416667,51.0,87.0
582,173.56739502083335,173.73606935416666,63.0,79.0
583,173.56739502083335,173.89269552083334,70.0,76.0
584,173.56739502083335,173.90624970833335,66.0,75.0
585,173.92884002083335,174.37311616666668,63.0,85.0
586,174.29028502083335,175.08245197916668,71.0,84.0
587,175.01317502083333,175.4318488125,63.0,83.0
588,175.37462002083333,175.80835402083335,68.0,79.0
589,174.65173002083333,175.93636579166667,51.0,74.0
590,174.29028502083335,176.19238933333335,44.0,83.0
591,176.09751002083334,176.36708775,63.0,72.0
592,175.73606502083334,176.37612387500002,71.0,89.0
593,176.45895502083334,176.87913483333335,63.0,81.0
594,176.82040002083335,177.60353085416668,58.0,86.0
595,177.18184502083335,177.7225065,63.0,80.0
596,176.45895502083334,177.72551854166667,51.0,86.0
597,177.54329002083335,177.73606068750001,66.0,76.0
598,177.90473502083333,178.291782375,61.0,73.0
599,177.90473502083333,178.37160147916669,49.0,86.0
600,178.62762502083334,179.1276239375,65.0,79.0
601,178.98907002083334,179.40021370833335,59.0,63.0
602,178.62762502083334,179.41376789583333,68.0,80.0
603,178.62762502083334,179.49358700000002,53.0,87.0
604,179.35051502083334,179.88967047916668,65.0,88.0
605,179.71196002083335,180.12009166666667,68.0,85.0
606,180.43485002083335,180.71045183333334,53.0,77.0
607,180.07340502083335,180.76466858333333,46.0,85.0
608,180.07340502083335,180.81286125,70.0,85.0
609,180.79629502083333,180.97249945833335,58.0,85.0
610,180.79629502083333,181.19539054166668,63.0,85.0
611,181.15774002083333,181.60653422916667,58.0,85.0
612,181.51918502083333,181.960449125,63.0,85.0
613,181.51918502083333,181.9740033125,66.0,86.0
614,181.88063002083334,182.1758101041667,58.0,75.0
615,182.24207502083334,182.52219489583334,63.0,85.0
616,180.79629502083333,182.53273704166668,51.0,90.0
617,182.24207502083334,182.62309829166668,66.0,86.0
618,182.60352002083334,182.864061625,58.0,85.0
619,182.96496502083335,183.4378555625,62.0,84.0
620,182.96496502083335,183.44237362500002,70.0,86.0
621,182.96496502083335,183.44990372916666,58.0,85.0
622,183.32641002083335,183.8173728125,53.0,76.0
623,183.68785502083335,183.89568589583334,58.0,90.0
624,183.68785502083335,183.91526416666667,62.0,92.0
625,183.68785502083335,183.93785447916667,70.0,89.0
626,184.04930002083333,184.19990210416668,60.0,90.0
627,184.04930002083333,184.2239984375,72.0,87.0
628,184.41074502083333,185.1456831875,62.0,88.0
629,184.41074502083333,185.15622533333334,74.0,86.0
630,182.96496502083335,185.159237375,46.0,86.0
631,184.04930002083333,185.27369495833335,53.0,78.0
632,185.13363502083334,185.34146589583335,58.0,86.0
633,185.13363502083334,185.5432726875,63.0,86.0
634,185.49508002083334,185.8670671666667,58.0,76.0
635,185.85652502083335,186.22851216666666,63.0,75.0
636,186.21797002083335,186.41827079166669,58.0,72.0
637,185.13363502083334,186.50562,51.0,89.0
638,186.57941502083335,186.66827025,51.0,94.0
639,186.57941502083335,186.70742679166668,58.0,84.0
640,186.57941502083335,186.97549850000001,63.0,88.0
641,186.57941502083335,186.99357075,66.0,87.0
642,186.94086002083333,187.09146210416668,58.0,82.0
643,187.30230502083333,187.5041118125,56.0,75.0
644,187.30230502083333,187.725496875,61.0,77.0
645,187.66375002083333,188.04477329166667,56.0,78.0
646,188.02519502083334,188.3444714375,61.0,74.0
647,188.38664002083334,188.77519339583333,56.0,68.0
648,187.30230502083333,188.97549416666666,49.0,79.0
649,188.74808502083334,188.98754233333335,61.0,85.0
650,188.74808502083334,189.16525279166666,65.0,86.0
651,189.10953002083335,189.23452975,56.0,75.0
652,189.47097502083335,189.63211925000002,59.0,74.0
653,189.47097502083335,189.84145614583335,63.0,77.0
654,189.83242002083335,190.2420576875,59.0,78.0
655,190.19386502083333,190.7209723125,63.0,80.0
656,190.55531002083333,190.7962733541667,59.0,65.0
657,189.47097502083335,190.9288031875,47.0,85.0
658,190.91675502083334,191.11253772916666,59.0,82.0
659,190.91675502083334,191.15621233333334,63.0,85.0
660,190.91675502083334,191.2450675625,66.0,81.0
661,191.63964502083334,192.370065125,66.0,82.0
662,192.36253502083335,192.77669075,63.0,82.0
663,192.72398002083335,193.13813575,65.0,86.0
664,193.08542502083333,193.53572525,66.0,86.0
665,191.63964502083334,193.64265272916668,51.0,86.0
666,192.00109002083335,193.70138754166666,58.0,72.0
667,193.44687002083333,193.77217052083333,68.0,77.0
668,193.80831502083333,194.601988,56.0,78.0
669,194.53120502083334,194.94536075000002,59.0,84.0
670,193.80831502083333,195.026685875,63.0,81.0
671,194.89265002083334,195.35349239583334,56.0,77.0
672,195.25409502083335,195.45439579166668,59.0,75.0
673,195.25409502083335,195.478492125,63.0,81.0
674,194.16976002083334,195.50258845833335,51.0,75.0
675,193.80831502083333,195.52367275,44.0,86.0
676,195.25409502083335,195.56734735416669,68.0,82.0
677,195.97698502083335,196.20740620833334,58.0,77.0
678,195.97698502083335,196.48300802083335,63.0,80.0
679,196.33843002083333,196.770658,58.0,85.0
680,196.69987502083333,197.3354158125,66.0,84.0
681,197.06132002083334,197.47848779166668,58.0,83.0
682,195.97698502083335,197.484511875,51.0,85.0
683,197.42276502083334,197.59445139583335,63.0,87.0
684,198.14565502083335,198.59896729166667,59.0,74.0
685,198.14565502083335,198.86402695833334,63.0,81.0
686,198.86854502083335,199.32938739583335,59.0,84.0
687,199.22999002083333,199.47998947916668,63.0,81.0
688,198.14565502083335,199.77215752083333,47.0,83.0
689,198.50710002083335,199.77818160416666,54.0,68.0
690,199.59143502083333,199.81884416666668,59.0,77.0
691,199.59143502083333,199.9905305416667,66.0,83.0
692,200.31432502083334,201.60649089583333,46.0,87.0
693,201.03721502083334,201.62908120833333,58.0,85.0
694,200.67577002083334,201.64865947916667,53.0,81.0
695,201.39866002083335,201.69534612500001,62.0,91.0
696,201.76010502083335,202.09142960416668,63.0,89.0
697,201.76010502083335,202.25257383333334,53.0,89.0
698,201.76010502083335,202.34745314583333,46.0,85.0
699,202.12155002083335,202.41974214583334,65.0,87.0
700,202.48299502083333,202.83239185416667,66.0,86.0
701,202.84444002083333,203.2360054375,58.0,81.0
702,203.20588502083334,203.54022164583333,63.0,80.0
703,202.48299502083333,203.69835383333333,51.0,90.0
704,203.56733002083334,203.80076325000002,58.0,65.0
705,203.92877502083334,204.08841322916666,58.0,80.0
706,203.92877502083334,204.17877447916666,51.0,82.0
707,203.92877502083334,204.333894625,63.0,84.0
708,203.92877502083334,204.514617125,66.0,84.0
709,204.29022002083335,204.66220716666666,58.0,78.0
710,204.65166502083335,205.13057964583334,65.0,85.0
711,205.01311002083335,205.56883170833333,53.0,80.0
712,205.37455502083333,205.75106022916668,61.0,78.0
713,205.73600002083333,205.99804764583334,58.0,80.0
714,206.09744502083333,206.29623977083335,58.0,85.0
715,206.09744502083333,206.33238427083333,61.0,85.0
716,204.65166502083335,206.35497458333333,46.0,85.0
717,206.09744502083333,206.53569708333333,65.0,87.0
718,206.45889002083334,206.70437141666667,58.0,82.0
719,206.82033502083334,207.1847920625,59.0,74.0
720,206.82033502083334,207.5733454375,63.0,83.0
721,207.18178002083334,207.70286322916667,54.0,63.0
722,206.82033502083334,207.97545300000002,47.0,83.0
723,207.54322502083335,208.0838865,59.0,89.0
724,208.26611502083335,208.45587364583335,59.0,86.0
725,207.90467002083335,208.46039170833333,54.0,70.0
726,208.26611502083335,208.56430714583334,66.0,85.0
727,208.98900502083333,209.48749791666668,63.0,81.0
728,209.35045002083334,209.791714125,58.0,80.0
729,208.98900502083333,209.80828035416667,66.0,80.0
730,209.71189502083334,210.16370127083334,63.0,81.0
731,210.07334002083334,210.5371944375,58.0,68.0
732,208.98900502083333,210.58538710416667,51.0,87.0
733,210.43478502083335,210.6034593541667,63.0,79.0
734,210.43478502083335,210.76008552083334,70.0,76.0
735,210.43478502083335,210.77363970833335,66.0,75.0
736,210.79623002083335,211.24050616666668,63.0,85.0
737,211.15767502083335,211.94984197916668,71.0,84.0
738,211.88056502083333,212.2992388125,63.0,83.0
739,212.24201002083333,212.67574402083335,68.0,79.0
740,211.51912002083333,212.80375579166667,51.0,74.0
741,211.15767502083335,213.05977933333335,44.0,83.0
742,212.96490002083334,213.23447775,63.0,72.0
743,212.60345502083334,213.24351387500002,71.0,89.0
744,213.32634502083334,213.74652483333335,63.0,81.0
745,213.68779002083335,214.47092085416668,58.0,86.0
746,214.04923502083335,214.5898965,63.0,80.0
747,213.32634502083334,214.59290854166667,51.0,86.0
748,214.41068002083335,214.60345068750001,66.0,76.0
749,214.77212502083333,215.159172375,61.0,73.0
750,214.77212502083333,215.23899147916669,49.0,86.0
751,215.49501502083334,215.9950139375,65.0,79.0
752,215.85646002083334,216.26760370833335,59.0,63.0
753,215.49501502083334,216.28115789583333,68.0,80.0
754,215.49501502083334,216.36097700000002,53.0,87.0
755,216.21790502083334,216.75706047916668,65.0,88.0
756,216.57935002083335,216.98748166666667,68.0,85.0
757,217.30224002083335,217.57784183333334,53.0,77.0
758,216.94079502083335,217.63205858333333,46.0,85.0
759,216.94079502083335,217.68025125,70.0,85.0
760,217.66368502083333,218.11699729166668,63.0,81.0
761,218.02513002083333,218.448321875,58.0,78.0
762,218.38657502083333,218.86850168750001,63.0,77.0
763,218.74802002083334,219.1757299375,58.0,75.0
764,217.66368502083333,219.42271735416668,51.0,86.0
765,219.10946502083334,219.78115031250002,66.0,85.0
766,220.49199214583334,221.34590595833333,56.0,85.0
767,220.84138897916668,221.348918,59.0,86.0
768,221.09891854166668,221.46488160416666,63.0,79.0
769,219.80374062500002,221.47994181250002,44.0,85.0
770,220.183257875,221.484459875,51.0,76.0
771,221.26759287500002,221.5431946875,68.0,67.0
772,222.32632552083334,223.165179125,58.0,77.0
773,221.96488052083333,223.29017885416667,51.0,85.0
774,222.69530062500002,223.36698591666666,63.0,79.0
775,223.0702998125,224.54168216666667,66.0,79.0
776,224.26156229166668,225.77360720833335,53.0,72.0
777,224.32481516666667,225.93776347916668,56.0,77.0
778,224.18776727083335,225.9392695,41.0,77.0
779,224.37752589583334,225.94077552083334,59.0,65.0
780,224.50704368750002,225.94981164583334,63.0,76.0
781,226.201317125,227.08384533333333,58.0,72.0
782,226.28565429166667,227.1365560625,62.0,69.0
783,226.13204016666668,227.19378485416667,53.0,76.0
784,225.95432970833335,227.3172785625,46.0,73.0
785,226.44228045833333,227.62751885416668,70.0,72.0
786,226.3805336041667,227.64709712500002,65.0,74.0
787,228.69528762500002,229.0823349791667,51.0,71.0
788,229.02811822916667,229.30823810416666,53.0,86.0
789,229.38805720833335,229.78865875,54.0,76.0
790,229.72691189583335,229.90914041666667,58.0,78.0
791,229.9738993125,230.1094411875,54.0,69.0
792,230.0717906666667,230.1726940625,58.0,73.0
793,230.13504354166668,230.27359745833334,63.0,81.0
794,230.53865712500001,231.07480054166666,65.0,81.0
795,231.01757175,231.5356429166667,66.0,86.0
796,231.5130526041667,231.6184740625,70.0,85.0
797,232.16365360416668,232.264557,70.0,70.0
798,232.1967860625,232.34287008333334,75.0,85.0
799,228.40763764583335,235.35491175,46.0,72.0
800,228.14559002083334,235.3865381875,39.0,91.0
801,234.04015556250002,236.0461753125,75.0,59.0
802,234.116962625,236.06725960416668,78.0,72.0
803,234.24045633333336,236.10340410416669,87.0,62.0
