,start,end,pitch,velocity
0,36.25345772083333,36.468735412499996,62.0,88.0
1,36.461790970833334,36.7395686375,72.0,102.0
2,36.87845747083333,37.145818475,72.0,100.0
3,37.29512397083333,37.4687350125,72.0,112.0
4,37.71179047083333,37.89408206458333,72.0,93.0
5,38.128456970833334,38.411442968749995,72.0,112.0
6,38.54512347083333,38.65276231666667,71.0,93.0
7,38.753456720833334,39.01387328333333,71.0,95.0
8,39.79512297083333,40.07810896875,72.0,107.0
9,40.21178947083333,40.51387268333333,72.0,100.0
10,40.62845597083333,40.937483625,72.0,97.0
11,41.045122470833334,41.34026124166667,74.0,117.0
12,41.46178897083333,41.77776106666666,71.0,82.0
13,41.87845547083333,42.246510879166664,69.0,102.0
14,42.29512197083333,42.65449682708333,67.0,95.0
15,42.71178847083333,42.911441168749995,66.0,92.0
16,43.12845497083333,43.34894099375,66.0,102.0
17,43.336788220833334,44.444426666666665,67.0,93.0
18,49.58678572083333,49.80032730208333,64.0,90.0
19,49.79511897083333,50.109354956249994,74.0,95.0
20,50.211785470833334,50.5103964625,74.0,96.0
21,50.62845197083333,50.897549085416664,74.0,107.0
22,51.04511847083333,51.246507279166664,74.0,95.0
23,51.46178497083333,51.751715410416665,74.0,99.0
24,51.87845147083333,51.97220143333333,72.0,89.0
25,52.08678472083333,52.82810386875,72.0,96.0
26,53.12845097083333,53.407964747916665,74.0,100.0
27,53.54511747083333,53.80553403333333,74.0,99.0
28,53.96178397083333,54.19615887708333,74.0,99.0
29,54.37845047083333,54.58157538958333,74.0,102.0
30,54.795116970833334,55.04685298125,74.0,112.0
31,55.21178347083333,55.303797322916665,72.0,82.0
32,55.42011672083333,55.94615817708333,72.0,97.0
33,56.04511647083333,56.14928309583333,71.0,102.0
34,56.25344972083333,56.59025514166667,71.0,96.0
35,56.67011622083333,56.78469950833333,69.0,82.0
36,56.87844947083333,58.241296147916664,69.0,100.0
37,62.92011372083333,63.133655302083326,62.0,78.0
38,63.12844697083333,63.45136350833333,72.0,93.0
39,63.54511347083333,63.81941891666666,72.0,95.0
40,63.96177997083333,64.23434930625,72.0,107.0
41,64.37844647083332,64.57115472708333,72.0,90.0
42,64.79511297083333,65.16490448958334,72.0,112.0
43,65.21177947083333,65.30552943333333,71.0,76.0
44,65.42011272083333,66.06941801666666,71.0,99.0
45,66.46177897083334,66.729139975,72.0,112.0
46,66.87844547083333,67.15275091666666,72.0,100.0
47,67.29511197083333,67.58330629999999,72.0,107.0
48,67.71177847083332,67.95830615,74.0,97.0
49,68.12844497083333,68.41837541041666,71.0,107.0
50,68.54511147083333,68.66143086875,69.0,86.0
51,68.96177797083332,69.270805625,67.0,92.0
52,69.37844447083333,69.4687222125,66.0,90.0
53,69.58677772083333,70.01559699375,66.0,81.0
54,70.00344422083333,71.91316567916667,67.0,82.0
55,75.21177547083333,75.64580307499999,64.0,95.0
56,75.62844197083334,75.99476126875,67.0,97.0
57,76.04510847083333,76.71524709166667,74.0,99.0
58,76.87844147083332,77.44267735625,76.0,102.0
59,77.71177447083333,78.83156568958333,67.0,95.0
60,79.79510697083333,80.08156518958333,74.0,107.0
61,80.21177347083334,80.46698170208333,74.0,112.0
62,80.62843997083333,80.8437176625,74.0,127.0
63,81.04510647083333,81.13017588125,74.0,107.0
64,81.25343972083333,81.58850903125,74.0,122.0
65,81.87843947083333,82.13885603333333,72.0,112.0
66,82.29510597083333,82.59892529375,72.0,112.0
67,82.71177247083332,82.81941131666666,71.0,93.0
68,82.92010572083333,83.43225829375,71.0,107.0
69,83.33677222083332,86.07982667916666,69.0,73.0
70,87.71177047083333,87.99475646875,67.0,99.0
71,88.12843697083333,88.41836741041666,79.0,107.0
72,88.54510347083333,88.9062144375,78.0,122.0
73,88.96176997083333,89.24128374791667,79.0,96.0
74,89.37843647083334,90.00170011041666,79.0,117.0
75,90.21176947083333,90.74475536874999,74.0,107.0
76,90.62843597083332,90.74475536874999,74.0,117.0
77,91.04510247083333,91.30031070208332,74.0,122.0
78,91.46176897083333,91.71003276041667,74.0,122.0
79,91.87843547083332,92.09197705208332,72.0,89.0
80,92.29510197083333,92.54336576041666,72.0,112.0
81,92.71176847083333,92.9895461375,72.0,107.0
82,93.54510147083333,94.02600405624999,71.0,112.0
83,94.37843447083333,94.68398990416667,67.0,97.0
84,94.79510097083333,95.020795325,79.0,117.0
85,95.21176747083332,95.60586453541666,78.0,122.0
86,95.62843397083333,95.86107276666667,79.0,96.0
87,96.04510047083333,96.46523919166665,79.0,100.0
88,96.87843347083333,97.11107226666667,74.0,102.0
89,97.29509997083333,97.53121098749999,74.0,112.0
90,97.71176647083333,97.94614137708332,74.0,127.0
91,98.12843297083333,98.32808566874999,74.0,107.0
92,98.54509947083332,98.70308551875,72.0,93.0
93,98.96176597083333,99.1770436625,72.0,93.0
94,99.37843247083333,99.86107116666666,72.0,107.0
95,100.21176547083333,100.55377922291666,71.0,117.0
96,101.04509847083332,101.44266775624999,67.0,92.0
97,101.46176497083333,101.85238981458333,79.0,99.0
98,101.87843147083333,102.20655633958333,78.0,107.0
99,102.29509797083333,102.45134790833333,79.0,127.0
100,102.71176447083333,103.44440306666667,78.0,122.0
101,103.54509747083333,103.93225009375,76.0,107.0
102,104.37843047083332,104.66141646874999,67.0,99.0
103,104.79509697083333,105.12843017083333,78.0,117.0
104,105.21176347083333,105.54856889166666,76.0,86.0
105,105.62842997083332,105.83329099999999,78.0,127.0
106,106.04509647083333,106.80551283333332,76.0,127.0
107,106.87842947083332,107.50342922083333,74.0,122.0
108,107.71176247083332,108.0312067875,67.0,99.0
109,108.12842897083333,108.43051218333333,76.0,102.0
110,108.54509547083333,108.88190089166666,74.0,117.0
111,108.96176197083332,109.3020396125,76.0,107.0
112,109.37842847083333,110.18571981458332,74.0,112.0
113,110.21176147083332,110.61280297708333,72.0,112.0
114,110.62842797083333,110.89405286458333,72.0,112.0
115,111.04509447083333,111.35412212499999,71.0,117.0
116,111.46176097083332,111.70828865,72.0,122.0
117,111.87842747083333,112.229121775,74.0,122.0
118,112.29509397083332,112.53467720833332,76.0,117.0
119,112.71176047083333,113.53467680833333,76.0,112.0
120,113.54509347083332,114.25342652083333,74.0,102.0
121,114.37842647083333,114.61627359791666,67.0,96.0
122,114.79509297083332,115.11800950833333,79.0,102.0
123,115.21175947083333,115.57981487916666,78.0,112.0
124,115.62842597083333,115.93745362499999,79.0,107.0
125,116.04509247083332,116.45828675,79.0,127.0
126,116.87842547083332,117.09543927291666,74.0,107.0
127,117.29509197083333,117.60238351458332,74.0,127.0
128,117.71175847083333,118.03120278749999,74.0,122.0
129,118.12842497083332,118.50516093124999,74.0,127.0
130,118.54509147083333,118.80898025416666,72.0,102.0
131,118.96175797083333,119.24474396874999,72.0,117.0
132,119.37842447083332,119.65967435833333,72.0,117.0
133,120.21175747083333,120.63016008125,71.0,99.0
134,121.04509047083333,121.30029870208332,67.0,100.0
135,121.46175697083332,121.78293739791665,79.0,112.0
136,121.87842347083333,122.27425664583333,78.0,107.0
137,122.29508997083333,122.57460374791665,79.0,96.0
138,122.71175647083332,123.12321463958332,79.0,117.0
139,123.11453408749999,123.38710342291667,74.0,127.0
140,123.54508947083333,123.80724214374999,74.0,117.0
141,123.96175597083332,124.24474196874999,74.0,122.0
142,124.37842247083333,124.65967235833332,74.0,122.0
143,124.79508897083333,125.1666166,74.0,112.0
144,125.62842197083333,125.8645329875,81.0,99.0
145,126.04508847083332,126.62147712916666,81.0,127.0
146,126.87842147083333,127.11800470833333,79.0,127.0
147,127.71175447083333,127.99474046875,67.0,100.0
148,128.12842097083333,128.45307361874998,79.0,102.0
149,128.54508747083332,129.00168451041665,78.0,107.0
150,128.9617539708333,129.2499483,79.0,96.0
151,129.37842047083333,129.9200869208333,79.0,100.0
152,130.21175347083332,130.75689214166667,76.0,90.0
153,131.04508647083333,131.32633635833332,67.0,99.0
154,131.46175297083332,131.81939171666667,78.0,112.0
155,131.87841947083334,132.26904431458334,76.0,102.0
156,132.29508597083333,132.70133580833334,78.0,122.0
157,132.71175247083332,133.0867523208333,76.0,127.0
158,133.54508547083333,133.90966865833332,74.0,102.0
159,134.37841847083334,134.63709892291666,67.0,95.0
160,134.79508497083333,135.14404316458334,76.0,112.0
161,135.21175147083332,135.58675132083332,74.0,100.0
162,135.62841797083334,135.89230675416667,76.0,107.0
163,136.04508447083333,136.4895287375,74.0,127.0
164,136.8784174708333,137.14404236458333,72.0,127.0
165,137.29508397083333,137.729111575,72.0,102.0
166,137.71175047083332,138.08675032083332,71.0,93.0
167,138.1284169708333,138.43744462499998,72.0,107.0
168,138.54508347083333,138.9478610875,74.0,112.0
169,138.96174997083332,139.19612487708332,76.0,112.0
170,139.4166109,139.78119408749998,76.0,117.0
171,139.78119408749998,140.8645269875,74.0,117.0
172,141.04508247083334,141.31070736458332,71.0,112.0
173,141.46174897083333,141.94959599791665,71.0,112.0
174,142.29508197083334,142.68049848333334,62.0,109.0
175,142.71174847083333,143.57633145833333,69.0,112.0
176,143.54508147083334,146.16834431041667,67.0,99.0
177,169.58673772083333,169.8020154125,62.0,88.0
178,169.79507097083334,170.0728486375,72.0,102.0
179,170.21173747083333,170.479098475,72.0,100.0
180,170.62840397083332,170.8020150125,72.0,112.0
181,171.04507047083334,171.22736206458333,72.0,93.0
182,171.46173697083333,171.74472296874998,72.0,112.0
183,171.87840347083332,171.98604231666667,71.0,93.0
184,172.08673672083333,172.3471532833333,71.0,95.0
185,173.12840297083332,173.41138896875,72.0,107.0
186,173.5450694708333,173.84715268333332,72.0,100.0
187,173.96173597083333,174.270763625,72.0,97.0
188,174.37840247083332,174.67354124166667,74.0,117.0
189,174.7950689708333,175.11104106666664,71.0,82.0
190,175.21173547083333,175.57979087916667,69.0,102.0
191,175.62840197083332,175.98777682708334,67.0,95.0
192,176.04506847083331,176.24472116875,66.0,92.0
193,176.46173497083333,176.68222099374998,66.0,102.0
194,176.67006822083331,177.77770666666666,67.0,93.0
195,182.92006572083332,183.13360730208333,64.0,90.0
196,183.12839897083333,183.44263495625,74.0,95.0
197,183.54506547083332,183.84367646249999,74.0,96.0
198,183.9617319708333,184.23082908541664,74.0,107.0
199,184.37839847083333,184.57978727916665,74.0,95.0
200,184.79506497083332,185.08499541041667,74.0,99.0
201,185.2117314708333,185.3054814333333,72.0,89.0
202,185.42006472083332,186.16138386875,72.0,96.0
203,186.46173097083332,186.74124474791665,74.0,100.0
204,186.87839747083333,187.13881403333332,74.0,99.0
205,187.29506397083333,187.52943887708332,74.0,99.0
206,187.71173047083332,187.91485538958332,74.0,102.0
207,188.12839697083334,188.38013298125,74.0,112.0
208,188.54506347083333,188.63707732291667,72.0,82.0
209,188.75339672083334,189.27943817708334,72.0,97.0
210,189.37839647083334,189.4825630958333,71.0,102.0
211,189.58672972083332,189.92353514166666,71.0,96.0
212,190.0033962208333,190.11797950833332,69.0,82.0
213,190.21172947083332,191.57457614791664,69.0,100.0
214,196.25339372083332,196.46693530208333,62.0,78.0
215,196.46172697083333,196.78464350833332,72.0,93.0
216,196.87839347083332,197.15269891666665,72.0,95.0
217,197.29505997083334,197.56762930624998,72.0,107.0
218,197.71172647083333,197.90443472708333,72.0,90.0
219,198.12839297083332,198.4981844895833,72.0,112.0
220,198.54505947083334,198.63880943333334,71.0,76.0
221,198.75339272083332,199.40269801666665,71.0,99.0
222,199.7950589708333,200.06241997499998,72.0,112.0
223,200.21172547083333,200.48603091666666,72.0,100.0
224,200.62839197083332,200.91658629999998,72.0,107.0
225,201.0450584708333,201.29158615,74.0,97.0
226,201.46172497083333,201.75165541041665,71.0,107.0
227,201.87839147083332,201.99471086875,69.0,86.0
228,202.2950579708333,202.60408562499998,67.0,92.0
229,202.71172447083333,202.80200221249999,66.0,90.0
230,202.9200577208333,203.34887699375,66.0,81.0
231,203.33672422083333,205.24644567916667,67.0,82.0
232,206.04505647083332,207.63359750208332,79.0,127.0
233,208.54505547083332,208.97908307499998,64.0,95.0
234,208.9617219708333,209.32804126874998,67.0,97.0
235,209.37838847083333,210.04852709166664,74.0,99.0
236,210.2117214708333,210.77595735625,76.0,102.0
237,211.04505447083332,212.16484568958333,67.0,95.0
238,213.12838697083333,213.41484518958333,74.0,107.0
239,213.54505347083332,213.80026170208333,74.0,112.0
240,213.96171997083331,214.17699766249999,74.0,127.0
241,214.37838647083333,214.46345588124998,74.0,107.0
242,214.58671972083332,214.92178903125,74.0,122.0
243,215.21171947083332,215.47213603333333,72.0,112.0
244,215.62838597083334,215.93220529375,72.0,112.0
245,216.04505247083333,216.15269131666665,71.0,93.0
246,216.25338572083334,216.76553829374998,71.0,107.0
247,216.67005222083333,219.41310667916665,69.0,73.0
248,221.04505047083333,221.32803646874999,67.0,99.0
249,221.46171697083332,221.75164741041667,79.0,107.0
250,221.8783834708333,222.23949443749999,78.0,122.0
251,222.29504997083333,222.57456374791664,79.0,96.0
252,222.71171647083332,223.33498011041667,79.0,117.0
253,223.54504947083333,224.07803536875,74.0,107.0
254,223.96171597083332,224.07803536875,74.0,117.0
255,224.37838247083332,224.63359070208332,74.0,122.0
256,224.79504897083334,225.04331276041665,74.0,122.0
257,225.21171547083333,225.4252570520833,72.0,89.0
258,225.62838197083332,225.87664576041666,72.0,112.0
259,226.0450484708333,226.3228261375,72.0,107.0
260,226.87838147083332,227.35928405624998,71.0,112.0
261,227.71171447083333,228.01726990416665,67.0,97.0
262,228.12838097083332,228.354075325,79.0,117.0
263,228.5450474708333,228.93914453541666,78.0,122.0
264,228.96171397083333,229.19435276666667,79.0,96.0
265,229.37838047083332,229.79851919166666,79.0,100.0
266,230.21171347083333,230.44435226666664,74.0,102.0
267,230.62837997083332,230.86449098749998,74.0,112.0
268,231.0450464708333,231.2794213770833,74.0,127.0
269,231.46171297083333,231.66136566875,74.0,107.0
270,231.87837947083332,232.03636551875,72.0,93.0
271,232.2950459708333,232.51032366249999,72.0,93.0
272,232.71171247083333,233.19435116666665,72.0,107.0
273,233.54504547083332,233.88705922291666,71.0,117.0
274,234.37837847083333,234.77594775625,67.0,92.0
275,234.79504497083332,235.18566981458332,79.0,99.0
276,235.2117114708333,235.53983633958333,78.0,107.0
277,235.62837797083333,235.78462790833333,79.0,127.0
278,236.04504447083332,236.77768306666664,78.0,122.0
279,236.87837747083333,237.26553009375,76.0,107.0
280,237.7117104708333,237.99469646875,67.0,99.0
281,238.12837697083333,238.46171017083333,78.0,117.0
282,238.54504347083332,238.88184889166666,76.0,86.0
283,238.9617099708333,239.16657099999998,78.0,127.0
284,239.37837647083333,240.13879283333333,76.0,127.0
285,240.2117094708333,240.8367092208333,74.0,122.0
286,241.04504247083332,241.3644867875,67.0,99.0
287,241.4617089708333,241.76379218333332,76.0,102.0
288,241.87837547083333,242.21518089166665,74.0,117.0
289,242.29504197083332,242.63531961249998,76.0,107.0
290,242.71170847083332,243.5189998145833,74.0,112.0
291,243.54504147083333,243.9460829770833,72.0,112.0
292,243.96170797083332,244.22733286458333,72.0,112.0
293,244.3783744708333,244.68740212499998,71.0,117.0
294,244.79504097083333,245.04156865,72.0,122.0
295,245.21170747083332,245.56240177499998,74.0,122.0
296,245.6283739708333,245.8679572083333,76.0,117.0
297,246.04504047083333,246.86795680833333,76.0,112.0
298,246.8783734708333,247.58670652083333,74.0,102.0
299,247.71170647083332,247.94955359791666,67.0,96.0
300,248.1283729708333,248.45128950833333,79.0,102.0
301,248.54503947083333,248.91309487916666,78.0,112.0
302,248.96170597083332,249.270733625,79.0,107.0
303,249.3783724708333,249.79156675,79.0,127.0
304,250.21170547083332,250.42871927291665,74.0,107.0
305,250.6283719708333,250.93566351458333,74.0,127.0
306,251.04503847083333,251.36448278749998,74.0,122.0
307,251.46170497083332,251.83844093124998,74.0,127.0
308,251.87837147083332,252.14226025416664,72.0,102.0
309,252.2950379708333,252.57802396875,72.0,117.0
310,252.71170447083333,252.99295435833332,72.0,117.0
311,253.5450374708333,253.96344008124998,71.0,99.0
312,254.37837047083332,254.63357870208333,67.0,100.0
313,254.7950369708333,255.11621739791664,79.0,112.0
314,255.21170347083333,255.6075366458333,78.0,107.0
315,255.62836997083332,255.90788374791666,79.0,96.0
316,256.04503647083334,256.4564946395833,79.0,117.0
317,256.8783694708333,257.14052214375,74.0,117.0
318,257.29503597083334,257.57802196874997,74.0,122.0
319,257.7117024708333,257.9929523583333,74.0,122.0
320,258.1283689708333,258.4998966,74.0,112.0
321,258.9617019708333,259.19781298749996,81.0,99.0
322,259.3783684708333,259.95475712916664,81.0,127.0
323,260.2117014708333,260.45128470833333,79.0,127.0
324,261.04503447083334,261.32802046874997,67.0,100.0
325,261.4617009708333,261.78635361875,79.0,102.0
326,261.8783674708333,262.3349645104166,78.0,107.0
327,262.29503397083334,262.5832283,79.0,96.0
328,262.7117004708333,263.25336692083334,79.0,100.0
329,263.54503347083335,264.09017214166664,76.0,90.0
330,264.3783664708333,264.6596163583333,67.0,99.0
331,264.79503297083335,265.15267171666665,78.0,112.0
332,265.2116994708333,265.6023243145833,76.0,102.0
333,265.62836597083333,266.03461580833334,78.0,122.0
334,266.0450324708333,266.42003232083334,76.0,127.0
335,266.87836547083333,267.2429486583333,74.0,102.0
336,267.7116984708333,267.97037892291667,67.0,95.0
337,268.12836497083333,268.4773231645833,76.0,112.0
338,268.5450314708333,268.92003132083335,74.0,100.0
339,268.9616979708333,269.22558675416667,76.0,107.0
340,269.37836447083333,269.8228087375,74.0,127.0
341,270.2116974708333,270.4773223645833,72.0,127.0
342,270.62836397083333,271.062391575,72.0,102.0
343,271.0450304708333,271.4200303208333,71.0,93.0
344,271.4616969708333,271.770724625,72.0,107.0
345,271.87836347083334,272.2811410875,74.0,112.0
346,272.2950299708333,272.5294048770833,76.0,112.0
347,272.7116964708333,273.9616959708333,74.0,117.0
348,274.37836247083334,274.66482068958334,84.0,127.0
349,274.7950289708333,275.32280653749996,84.0,122.0
350,275.62836197083334,276.00509793124996,74.0,100.0
351,276.0450284708333,276.76204207291664,81.0,127.0
352,276.87836147083334,279.6960686770833,79.0,127.0
