,start,end,pitch,velocity
0,23.128462970833333,24.647559585416666,50.0,71.0
1,23.128462970833333,24.663184579166664,43.0,74.0
2,24.795128970833332,26.31769780625,43.0,60.0
3,24.795128970833332,26.324642247916664,50.0,59.0
4,26.46179497083333,27.954849929166667,43.0,66.0
5,26.46179497083333,28.00866935208333,50.0,72.0
6,28.12846097083333,29.75346032083333,50.0,67.0
7,28.12846097083333,29.769085314583332,43.0,65.0
8,29.795126970833334,31.314223585416666,50.0,71.0
9,29.795126970833334,31.329848579166665,43.0,74.0
10,31.461792970833333,32.98436180625,43.0,60.0
11,31.461792970833333,32.99130624791667,50.0,59.0
12,33.12845897083333,34.62151392916667,43.0,66.0
13,33.12845897083333,34.67533335208333,50.0,72.0
14,34.795124970833335,36.42012432083333,50.0,67.0
15,34.795124970833335,36.43574931458333,43.0,65.0
16,36.461790970833334,37.98088758541667,50.0,71.0
17,36.461790970833334,37.99651257916666,43.0,74.0
18,38.128456970833334,39.65102580625,43.0,60.0
19,38.128456970833334,39.657970247916666,50.0,59.0
20,39.79512297083333,41.288177929166665,43.0,66.0
21,39.79512297083333,41.34199735208333,50.0,72.0
22,41.46178897083333,43.08678832083333,50.0,67.0
23,41.46178897083333,43.10241331458333,43.0,65.0
24,43.12845497083333,44.6666488,40.0,66.0
25,43.12845497083333,44.69616267708333,47.0,71.0
26,43.12845497083333,44.70137100833333,52.0,65.0
27,44.79512097083333,46.32463424791666,47.0,59.0
28,44.79512097083333,46.329842579166666,52.0,62.0
29,44.79512097083333,46.34546757291666,40.0,59.0
30,46.46178697083333,47.999980799999996,40.0,66.0
31,46.46178697083333,48.02949467708333,47.0,71.0
32,46.46178697083333,48.03470300833333,52.0,65.0
33,48.12845297083333,49.65796624791666,47.0,59.0
34,48.12845297083333,49.663174579166665,52.0,62.0
35,48.12845297083333,49.67879957291667,40.0,59.0
36,49.79511897083333,51.329840579166664,36.0,57.0
37,49.79511897083333,51.34893779375,43.0,66.0
38,49.79511897083333,51.34893779375,48.0,76.0
39,49.79511897083333,51.359354456249996,55.0,58.0
40,49.79511897083333,51.37497945,60.0,71.0
41,51.46178497083333,52.93574271458333,36.0,53.0
42,51.46178497083333,52.9478954875,43.0,53.0
43,51.46178497083333,52.953103818749995,48.0,58.0
44,51.46178497083333,52.9687288125,55.0,50.0
45,51.46178497083333,52.97740936458333,60.0,58.0
46,53.12845097083333,54.70136700833333,55.0,57.0
47,53.12845097083333,54.70831145,48.0,63.0
48,53.12845097083333,54.72046422291666,60.0,63.0
49,53.12845097083333,54.72393644375,43.0,58.0
50,53.12845097083333,54.73261699583333,36.0,48.0
51,54.795116970833334,55.70831105,60.0,66.0
52,54.795116970833334,55.782963797916665,55.0,58.0
53,54.795116970833334,55.812477675,48.0,53.0
54,54.795116970833334,55.829838779166664,36.0,45.0
55,54.795116970833334,55.83678322083333,43.0,52.0
56,56.46178297083333,57.77428244583333,38.0,50.0
57,56.46178297083333,57.871504629166665,45.0,61.0
58,56.46178297083333,57.92532405208333,50.0,59.0
59,56.46178297083333,57.9270601625,57.0,57.0
60,56.46178297083333,57.93053238333333,54.0,56.0
61,58.12844897083333,59.39060124375,38.0,42.0
62,58.12844897083333,59.458309549999996,45.0,47.0
63,58.12844897083333,59.552059512499994,54.0,53.0
64,58.12844897083333,59.55726784375,57.0,52.0
65,58.12844897083333,59.57115672708333,50.0,51.0
66,59.79511497083333,60.6770590625,45.0,46.0
67,59.79511497083333,60.75865625208333,38.0,39.0
68,59.79511497083333,61.26560049375,54.0,59.0
69,59.79511497083333,61.27254493541666,57.0,53.0
70,59.79511497083333,61.277753266666664,50.0,51.0
71,61.46178097083333,61.96178077083333,45.0,47.0
72,61.46178097083333,61.989558537499995,38.0,40.0
73,61.46178097083333,62.15101680625,54.0,55.0
74,61.46178097083333,62.178794572916665,57.0,60.0
75,61.46178097083333,62.359350056249994,50.0,61.0
76,63.12844697083333,64.37671036041667,59.0,63.0
77,63.12844697083333,64.50518253125,55.0,66.0
78,63.12844697083333,64.6666408,50.0,66.0
79,63.12844697083333,64.69268245625,43.0,62.0
80,64.79511297083333,66.33504291041666,50.0,72.0
81,64.79511297083333,66.3437234625,43.0,55.0
82,64.79511297083333,66.35587623541666,55.0,66.0
83,66.46177897083334,67.97740336458332,50.0,67.0
84,66.46177897083334,67.98434780625,43.0,60.0
85,66.46177897083334,68.00518113125,55.0,69.0
86,68.12844497083333,69.44268055625,55.0,67.0
87,68.12844497083333,69.62323603958333,50.0,69.0
88,68.12844497083333,69.68399990416667,43.0,63.0
89,69.79511097083333,71.16837431041667,52.0,72.0
90,69.79511097083333,71.21524929166667,40.0,63.0
91,69.79511097083333,71.22219373333333,59.0,69.0
92,69.79511097083333,71.23087428541666,55.0,56.0
93,71.46177697083333,72.98087358541666,40.0,45.0
94,71.46177697083333,72.98087358541666,59.0,55.0
95,71.46177697083333,72.99302635833332,52.0,51.0
96,71.46177697083333,72.99476246875,55.0,52.0
97,71.46177697083333,73.02948467708333,47.0,54.0
98,73.12844297083333,74.52253963541666,40.0,55.0
99,73.12844297083333,74.58851183125,47.0,53.0
100,73.12844297083333,74.59545627291666,59.0,52.0
101,73.12844297083333,74.60587293541666,52.0,45.0
102,73.12844297083333,74.60587293541666,55.0,50.0
103,74.79510897083333,75.65101140624999,47.0,60.0
104,74.79510897083333,75.69788638749999,40.0,57.0
105,74.79510897083333,75.71698360208333,55.0,51.0
106,74.79510897083333,75.72566415416667,59.0,55.0
107,74.79510897083333,75.75344192083332,52.0,47.0
108,76.46177497083333,77.98434380625,48.0,60.0
109,76.46177497083333,77.98781602708333,36.0,56.0
110,76.46177497083333,78.02427434583333,52.0,63.0
111,76.46177497083333,78.02601045624999,43.0,58.0
112,76.46177497083333,78.02774656666666,55.0,64.0
113,78.12844097083332,79.59545427291667,36.0,56.0
114,78.12844097083332,79.60934315624999,48.0,72.0
115,78.12844097083332,79.62149592916666,43.0,53.0
116,78.12844097083332,79.62670426041666,52.0,66.0
117,78.12844097083332,79.62670426041666,55.0,66.0
118,79.79510697083333,81.270800825,43.0,52.0
119,79.79510697083333,81.27774526666666,36.0,61.0
120,79.79510697083333,81.30378692291666,55.0,59.0
121,79.79510697083333,81.30899525416666,48.0,55.0
122,79.79510697083333,81.31246747499999,52.0,53.0
123,81.46177297083332,82.86628629791666,55.0,61.0
124,81.46177297083332,82.93225849375,48.0,65.0
125,81.46177297083332,82.95656403958333,52.0,57.0
126,81.46177297083332,83.03816122916666,36.0,53.0
127,81.46177297083332,83.06246677499999,43.0,56.0
128,83.12843897083333,84.57288283749999,38.0,66.0
129,83.12843897083333,84.59545227291666,57.0,64.0
130,83.12843897083333,84.60586893541667,54.0,58.0
131,83.12843897083333,84.61281337708333,50.0,70.0
132,84.79510497083334,86.32982657916666,38.0,50.0
133,84.79510497083334,86.33850713125,50.0,61.0
134,84.79510497083334,86.33850713125,57.0,63.0
135,84.79510497083334,86.36628489791666,54.0,69.0
136,84.79510497083334,86.36802100833333,45.0,56.0
137,86.46177097083333,87.94614537708333,54.0,89.0
138,86.46177097083333,87.94614537708333,57.0,74.0
139,86.46177097083333,87.95135370833333,50.0,69.0
140,86.46177097083333,87.96177037083334,38.0,62.0
141,86.46177097083333,87.98260369583333,45.0,67.0
142,88.12843697083333,89.50517253125,38.0,63.0
143,88.12843697083333,89.52947807708333,54.0,67.0
144,88.12843697083333,89.54336696041666,57.0,68.0
145,88.12843697083333,89.55551973333333,50.0,73.0
146,89.79510297083333,90.11454728749999,62.0,70.0
147,89.79510297083333,90.11628339791666,55.0,81.0
148,89.79510297083333,90.11628339791666,59.0,74.0
149,90.21176947083333,90.5103804625,62.0,59.0
150,90.21176947083333,90.51732490416666,55.0,61.0
151,90.21176947083333,90.5312137875,59.0,65.0
152,90.62843597083332,90.92531085208333,55.0,92.0
153,90.62843597083332,90.93051918333333,62.0,90.0
154,90.62843597083332,90.94267195625,59.0,92.0
155,89.79510297083333,91.2395468375,43.0,78.0
156,90.62843597083332,91.34371346249999,50.0,53.0
157,91.04510247083333,91.34718568333332,55.0,67.0
158,91.04510247083333,91.34718568333332,62.0,63.0
159,91.04510247083333,91.35760234583333,59.0,71.0
160,91.46176897083333,91.77253273541666,55.0,89.0
161,91.46176897083333,91.77253273541666,59.0,86.0
162,91.46176897083333,91.7812132875,62.0,90.0
163,91.87843547083332,92.1978797875,55.0,69.0
164,91.87843547083332,92.20135200833333,59.0,71.0
165,91.87843547083332,92.20829644999999,62.0,68.0
166,92.29510197083333,92.57808796875,55.0,93.0
167,92.29510197083333,92.57808796875,59.0,99.0
168,92.29510197083333,92.58156018958333,62.0,96.0
169,92.71176847083333,92.97392114374999,55.0,83.0
170,92.71176847083333,92.98086558541667,62.0,79.0
171,91.46176897083333,92.9895461375,43.0,66.0
172,92.71176847083333,92.9895461375,59.0,85.0
173,93.12843497083333,93.46003206041667,62.0,90.0
174,93.12843497083333,93.46697650208333,59.0,88.0
175,93.12843497083333,93.47739316458333,55.0,89.0
176,93.54510147083333,93.84544857291667,55.0,64.0
177,93.54510147083333,93.85239301458333,59.0,69.0
178,93.54510147083333,93.85239301458333,62.0,66.0
179,93.96176797083332,94.26732340416666,55.0,97.0
180,93.96176797083332,94.27253173541666,62.0,95.0
181,93.96176797083332,94.27426784583332,59.0,96.0
182,93.12843497083333,94.64232325416666,43.0,72.0
183,94.37843447083333,94.65100380624999,59.0,85.0
184,94.37843447083333,94.65621213749999,55.0,77.0
185,94.37843447083333,94.66836491041666,62.0,72.0
186,93.96176797083332,94.70655933958332,50.0,44.0
187,94.79510097083333,95.11975361875,55.0,93.0
188,94.79510097083333,95.11975361875,59.0,100.0
189,94.79510097083333,95.12843417083333,62.0,90.0
190,95.21176747083332,95.51905901458333,55.0,71.0
191,95.21176747083332,95.54162844999999,59.0,74.0
192,95.21176747083332,95.54336456041666,62.0,72.0
193,95.62843397083333,95.72565615416666,50.0,67.0
194,94.79510097083333,95.7499617,43.0,67.0
195,95.62843397083333,96.09023934166666,59.0,107.0
196,95.62843397083333,96.10760044583333,62.0,100.0
197,96.04510047083333,96.38190589166666,55.0,107.0
198,96.46176697083332,96.52253083541666,59.0,36.0
199,96.46176697083332,96.52253083541666,59.0,92.0
200,96.46176697083332,96.8020446125,52.0,99.0
201,96.46176697083332,96.81072516458333,55.0,90.0
202,96.87843347083333,96.9895445375,52.0,59.0
203,96.87843347083333,97.16141946875,59.0,63.0
204,96.87843347083333,97.20135000833332,55.0,63.0
205,97.29509997083333,97.36628049791666,52.0,112.0
206,97.29509997083333,97.38190549166666,55.0,97.0
207,97.29509997083333,97.39405826458332,59.0,102.0
208,97.71176647083333,97.82114142708333,59.0,76.0
209,97.71176647083333,97.83850253125,55.0,74.0
210,98.12843297083333,98.44093284583333,59.0,89.0
211,98.12843297083333,98.44266895624999,55.0,90.0
212,98.12843297083333,98.44266895624999,64.0,86.0
213,98.12843297083333,98.69440496666667,52.0,67.0
214,98.54509947083332,98.84891879374999,55.0,64.0
215,98.54509947083332,98.86107156666667,59.0,59.0
216,98.54509947083332,98.86107156666667,64.0,62.0
217,98.96176597083333,99.27252973541667,59.0,100.0
218,98.96176597083333,99.27773806666666,64.0,100.0
219,98.96176597083333,99.42009912083333,52.0,65.0
220,96.46176697083332,99.64752958541666,40.0,75.0
221,99.37843247083333,99.68572401458333,64.0,66.0
222,99.37843247083333,99.687460125,55.0,76.0
223,99.37843247083333,99.69440456666666,59.0,72.0
224,97.29509997083333,99.88364060208333,47.0,63.0
225,99.79509897083332,100.14579327499999,64.0,79.0
226,99.79509897083332,100.14926549583333,55.0,88.0
227,99.79509897083332,100.15447382708332,59.0,88.0
228,100.21176547083333,100.47218203333333,55.0,59.0
229,100.21176547083333,100.49301535833332,59.0,66.0
230,100.21176547083333,100.49475146875,64.0,66.0
231,100.62843197083333,100.86801520833333,55.0,97.0
232,100.62843197083333,100.91836241041666,64.0,90.0
233,100.62843197083333,100.92357074166667,59.0,96.0
234,101.04509847083332,101.10586233541666,64.0,34.0
235,101.04509847083332,101.13190399166666,59.0,49.0
236,100.62843197083333,101.18398730416666,52.0,90.0
237,101.04509847083332,101.3332928,55.0,85.0
238,101.46176497083333,101.61975101875,62.0,72.0
239,101.46176497083333,101.78815372916667,52.0,76.0
240,100.21176547083333,101.98607031666666,47.0,63.0
241,101.46176497083333,101.98607031666666,59.0,95.0
242,99.79509897083332,102.062459175,40.0,83.0
243,101.46176497083333,102.1770424625,64.0,69.0
244,101.87843147083333,102.29162575,55.0,72.0
245,102.29509797083333,102.71697280208333,64.0,95.0
246,102.29509797083333,102.99475046875,59.0,97.0
247,102.71176447083333,103.00690324166666,55.0,70.0
248,103.12843097083332,103.26558369374999,43.0,65.0
249,103.12843097083332,103.41662529999999,64.0,93.0
250,103.12843097083332,103.43225029374999,60.0,96.0
251,103.54509747083333,103.83155568958333,64.0,66.0
252,103.54509747083333,103.84544457291666,60.0,71.0
253,103.12843097083332,103.85065290416667,55.0,95.0
254,103.96176397083333,104.28641661875,64.0,90.0
255,103.96176397083333,104.30204161249999,55.0,97.0
256,103.96176397083333,104.30204161249999,60.0,96.0
257,103.12843097083332,104.64926369583333,36.0,65.0
258,104.37843047083332,104.66488868958332,55.0,61.0
259,104.37843047083332,104.6770414625,64.0,71.0
260,104.37843047083332,104.69266645625,60.0,77.0
261,103.96176397083333,104.87843027083333,43.0,53.0
262,104.79509697083333,105.07113852708333,55.0,97.0
263,104.79509697083333,105.11280517708333,64.0,93.0
264,104.79509697083333,105.11627739791666,60.0,100.0
265,105.21176347083333,105.52947167708332,55.0,73.0
266,105.21176347083333,105.53641611875,64.0,58.0
267,105.21176347083333,105.53988833958333,60.0,63.0
268,103.12843097083332,105.75342992083333,48.0,92.0
269,104.79509697083333,105.90273541666666,36.0,59.0
270,105.62842997083332,105.9270409625,64.0,97.0
271,105.62842997083332,105.93398540416666,60.0,112.0
272,105.62842997083332,105.937457625,55.0,89.0
273,105.62842997083332,105.95829094999999,43.0,51.0
274,106.04509647083333,106.12148532916666,64.0,69.0
275,106.04509647083333,106.13016588125,60.0,88.0
276,106.04509647083333,106.16141586875,55.0,79.0
277,106.46176297083333,106.75169341041666,59.0,96.0
278,106.46176297083333,106.75863785208333,62.0,102.0
279,106.46176297083333,106.77947117708332,66.0,100.0
280,106.87842947083332,107.13710992291666,59.0,72.0
281,106.87842947083332,107.15273491666666,62.0,81.0
282,106.87842947083332,107.16315157916667,66.0,66.0
283,106.87842947083332,107.32113762708333,42.0,29.0
284,107.29509597083333,107.46349868124999,59.0,82.0
285,106.46176297083333,107.60585973541666,35.0,74.0
286,107.29509597083333,107.65794304791666,62.0,112.0
287,107.29509597083333,107.67009582083332,66.0,100.0
288,107.71176247083332,107.76905411458333,59.0,96.0
289,107.29509597083333,108.0520401125,47.0,66.0
290,108.12842897083333,108.48780382708333,52.0,89.0
291,108.12842897083333,108.49648437916666,59.0,83.0
292,108.12842897083333,108.51558159375,56.0,88.0
293,108.54509547083333,108.84717868333333,52.0,83.0
294,108.54509547083333,108.85585923541666,59.0,74.0
295,108.54509547083333,108.8645397875,56.0,85.0
296,108.96176197083332,109.01210917291667,52.0,62.0
297,108.12842897083333,109.05030360208333,40.0,76.0
298,108.96176197083332,109.25516463125,59.0,92.0
299,108.96176197083332,109.26731740416666,56.0,117.0
300,109.37842847083333,109.54509507083333,59.0,78.0
301,109.37842847083333,109.66488668958333,56.0,92.0
302,109.79509497083333,110.0520393125,52.0,100.0
303,109.79509497083333,110.14405316458333,57.0,96.0
304,109.79509497083333,110.14926149583333,60.0,97.0
305,110.21176147083332,110.46870581249999,52.0,81.0
306,110.21176147083332,110.48085858541666,60.0,66.0
307,110.21176147083332,110.49301135833333,57.0,72.0
308,110.62842797083333,110.92009452083333,52.0,96.0
309,110.62842797083333,111.145788875,57.0,100.0
310,110.62842797083333,111.145788875,60.0,99.0
311,111.04509447083333,111.312455475,52.0,78.0
312,111.46176097083332,111.78988583958333,52.0,100.0
313,111.46176097083332,112.13884403333333,60.0,92.0
314,111.87842747083333,112.17356624166666,52.0,73.0
315,111.46176097083332,112.1770384625,57.0,97.0
316,112.29509397083332,112.40620503749999,52.0,67.0
317,109.79509497083333,112.62669106041666,33.0,81.0
318,111.46176097083332,112.66141326875,40.0,25.0
319,112.29509397083332,112.70481602916666,60.0,97.0
320,112.29509397083332,112.71176047083333,57.0,100.0
321,112.71176047083333,112.86974651874999,52.0,92.0
322,110.62842797083333,113.01905201458332,45.0,65.0
323,113.12842697083333,113.4270379625,50.0,100.0
324,113.12842697083333,113.45655183958333,54.0,100.0
325,113.12842697083333,113.45655183958333,57.0,90.0
326,113.54509347083332,113.80551003333333,50.0,83.0
327,113.54509347083332,113.82460724791666,54.0,89.0
328,113.54509347083332,113.83155168958332,57.0,72.0
329,113.96175997083333,114.25342652083333,50.0,96.0
330,113.96175997083333,114.270787625,57.0,96.0
331,113.96175997083333,114.27946817708333,54.0,122.0
332,113.12842697083333,114.61106526666666,38.0,97.0
333,114.37842647083333,114.61800970833333,50.0,86.0
334,114.37842647083333,114.63363470208333,57.0,82.0
335,114.37842647083333,114.63884303333333,54.0,99.0
336,113.96175997083333,114.71175967083333,45.0,65.0
337,114.79509297083332,114.92009292083333,54.0,100.0
338,114.79509297083332,114.93919013541667,50.0,93.0
339,114.79509297083332,114.95481512916666,57.0,93.0
340,115.21175947083333,115.26905111458333,54.0,96.0
341,115.21175947083333,115.27252333541666,57.0,73.0
342,115.21175947083333,115.57634265833333,45.0,68.0
343,115.62842597083333,115.67703706249999,66.0,57.0
344,115.62842597083333,115.67703706249999,66.0,96.0
345,115.62842597083333,115.91835641041666,62.0,99.0
346,115.62842597083333,115.92182863125,57.0,92.0
347,114.79509297083332,115.93918973541666,38.0,88.0
348,115.62842597083333,115.9478702875,45.0,89.0
349,116.04509247083332,116.09717578333333,66.0,63.0
350,116.04509247083332,116.13189799166666,62.0,97.0
351,116.04509247083332,116.22912017499999,57.0,100.0
352,116.46175897083333,116.77599495624999,59.0,97.0
353,116.46175897083333,116.77946717708333,62.0,97.0
354,116.46175897083333,116.78120328749999,55.0,99.0
355,116.87842547083332,117.15793924791666,55.0,85.0
356,116.87842547083332,117.15793924791666,62.0,88.0
357,116.87842547083332,117.16314757916666,59.0,89.0
358,117.29509197083333,117.59370296249999,62.0,96.0
359,117.29509197083333,117.60585573541665,59.0,93.0
360,117.29509197083333,117.61974461874999,55.0,92.0
361,117.71175847083333,117.96523059166665,62.0,85.0
362,117.71175847083333,117.98259169583332,59.0,83.0
363,116.46175897083333,117.9895361375,43.0,77.0
364,117.71175847083333,117.99821668958333,55.0,63.0
365,117.29509197083333,118.10585553541667,50.0,63.0
366,118.12842497083332,118.40446652708333,62.0,92.0
367,118.12842497083332,118.40967485833333,55.0,78.0
368,118.12842497083332,118.41488318958332,59.0,86.0
369,118.54509147083333,118.78641081875,55.0,79.0
370,118.54509147083333,118.78641081875,62.0,82.0
371,118.54509147083333,118.79509137083333,59.0,83.0
372,118.96175797083333,119.00516073124999,55.0,61.0
373,118.96175797083333,119.24648007916666,62.0,97.0
374,118.96175797083333,119.25863285208332,59.0,99.0
375,119.37842447083332,119.64057714375,62.0,82.0
376,118.12842497083332,119.64752158541665,43.0,72.0
377,119.37842447083332,119.65272991666666,59.0,93.0
378,119.37842447083332,119.65620213749999,55.0,90.0
379,118.96175797083333,119.77425764583333,50.0,56.0
380,119.79509097083333,120.07807696875,55.0,81.0
381,119.79509097083333,120.09022974166666,62.0,90.0
382,119.79509097083333,120.09543807291666,59.0,92.0
383,120.21175747083333,120.48085458541667,62.0,81.0
384,120.21175747083333,120.48606291666665,55.0,77.0
385,120.21175747083333,120.4895351375,59.0,85.0
386,120.62842397083332,120.89752108541666,55.0,90.0
387,120.62842397083332,120.89752108541666,62.0,93.0
388,120.62842397083332,120.90793774791666,59.0,93.0
389,119.79509097083333,121.14231265416666,43.0,66.0
390,121.04509047083333,121.32807646875,62.0,86.0
391,121.04509047083333,121.33849313124999,55.0,78.0
392,121.04509047083333,121.33849313124999,59.0,86.0
393,120.62842397083332,121.4895347375,50.0,63.0
394,121.46175697083332,121.73432630625,55.0,86.0
395,121.46175697083332,121.74647907916666,62.0,90.0
396,121.46175697083332,121.75168741041666,59.0,89.0
397,121.87842347083333,122.16488168958332,62.0,82.0
398,121.87842347083333,122.1666178,55.0,81.0
399,121.87842347083333,122.17182613125,59.0,83.0
400,121.46175697083332,122.39057604374999,43.0,77.0
401,122.29508997083333,122.39578437499999,50.0,82.0
402,122.29508997083333,122.55897875416666,55.0,88.0
403,122.29508997083333,122.57981207916666,62.0,95.0
404,122.29508997083333,122.58154818958333,59.0,96.0
405,122.71175647083332,122.78120088749999,59.0,93.0
406,122.71175647083332,122.79508977083333,62.0,89.0
407,122.71175647083332,122.87147862916666,55.0,93.0
408,123.12842297083333,123.40967285833332,52.0,93.0
409,123.12842297083333,123.42703396249999,55.0,85.0
410,123.12842297083333,123.42703396249999,59.0,88.0
411,123.54508947083333,123.81245047499999,52.0,85.0
412,123.54508947083333,123.82633935833333,59.0,78.0
413,123.54508947083333,123.83328379999999,55.0,82.0
414,123.96175597083332,124.12668646041666,52.0,88.0
415,123.96175597083332,124.17182533124999,55.0,89.0
416,123.96175597083332,124.17876977291667,59.0,85.0
417,123.12842297083333,124.43745022499999,40.0,83.0
418,124.37842247083333,124.65793624791667,52.0,75.0
419,124.37842247083333,124.66835291041666,55.0,82.0
420,124.37842247083333,124.67182513124999,59.0,76.0
421,123.96175597083332,124.79682508124999,47.0,69.0
422,124.79508897083333,125.09022774166667,52.0,83.0
423,124.79508897083333,125.10064440416666,59.0,83.0
424,124.79508897083333,125.10411662499999,55.0,85.0
425,125.21175547083332,125.47217203333332,52.0,75.0
426,125.21175547083332,125.48432480624999,59.0,67.0
427,125.21175547083332,125.49474146875,55.0,74.0
428,125.62842197083333,125.87494964999999,52.0,90.0
429,125.62842197083333,125.8853663125,59.0,79.0
430,125.62842197083333,125.89404686458333,55.0,88.0
431,124.79508897083333,126.08154678958333,40.0,82.0
432,126.04508847083332,126.31939391666666,52.0,83.0
433,126.04508847083332,126.3228661375,59.0,77.0
434,126.04508847083332,126.34022724166665,55.0,77.0
435,125.62842197083333,126.48779662708333,47.0,79.0
436,126.46175497083333,126.75689374166666,52.0,89.0
437,126.46175497083333,126.76904651458332,59.0,82.0
438,126.46175497083333,126.77599095625,55.0,85.0
439,126.87842147083333,127.13710192291666,52.0,74.0
440,126.87842147083333,127.13883803333333,59.0,65.0
441,126.87842147083333,127.14751858541666,55.0,74.0
442,127.29508797083332,127.53467120833332,59.0,78.0
443,127.29508797083332,127.55376842291666,55.0,89.0
444,127.29508797083332,127.55550453333332,52.0,95.0
445,126.46175497083333,127.73606001666666,40.0,69.0
446,127.71175447083333,127.98085158541666,59.0,79.0
447,127.71175447083333,127.98432380624999,52.0,78.0
448,127.71175447083333,127.99474046875,55.0,82.0
449,127.29508797083332,128.12147652916667,47.0,54.0
450,128.12842097083333,128.40446252708333,52.0,89.0
451,128.12842097083333,128.42182363125,55.0,85.0
452,128.12842097083333,128.42355974166665,59.0,85.0
453,128.54508747083332,128.84022624166667,59.0,67.0
454,128.54508747083332,128.84717068333333,52.0,74.0
455,128.54508747083332,128.85585123541665,55.0,76.0
456,128.12842097083333,129.00342062083334,40.0,63.0
457,128.9617539708333,129.05897615416666,47.0,65.0
458,128.9617539708333,129.23779552708334,59.0,85.0
459,128.9617539708333,129.24126774791665,55.0,82.0
460,128.9617539708333,129.28467050833333,52.0,77.0
461,129.37842047083333,129.42355934166665,52.0,42.0
462,129.37842047083333,129.46001766041667,59.0,63.0
463,129.37842047083333,129.47564265416665,55.0,74.0
464,129.79508697083332,130.09717018333333,55.0,92.0
465,129.79508697083332,130.10064240416665,64.0,82.0
466,129.79508697083332,130.11105906666666,60.0,88.0
467,130.21175347083332,130.46175337083332,55.0,77.0
468,130.21175347083332,130.46175337083332,64.0,77.0
469,130.21175347083332,130.47043392291667,60.0,85.0
470,130.62841997083333,130.86626709791665,64.0,90.0
471,130.62841997083333,130.88362820208332,55.0,95.0
472,130.62841997083333,130.89404486458332,60.0,100.0
473,129.79508697083332,131.24647527916665,36.0,76.0
474,130.62841997083333,131.25341972083334,48.0,79.0
475,131.04508647083333,131.28293359791667,55.0,63.0
476,131.04508647083333,131.29335026041667,64.0,59.0
477,131.04508647083333,131.31418358541666,60.0,63.0
478,130.21175347083332,131.48085018541667,43.0,52.0
479,131.46175297083332,131.72737786458333,64.0,79.0
480,131.46175297083332,131.73085008541665,55.0,81.0
481,131.46175297083332,131.7395306375,60.0,89.0
482,131.87841947083334,132.14925269583333,55.0,67.0
483,131.87841947083334,132.15446102708333,64.0,72.0
484,131.87841947083334,132.16834991041665,60.0,88.0
485,132.29508597083333,132.58154418958333,55.0,83.0
486,132.29508597083333,132.58501641041667,64.0,92.0
487,132.29508597083333,132.59543307291665,60.0,95.0
488,132.71175247083332,132.98084958541665,55.0,74.0
489,131.46175297083332,132.98779402708334,36.0,75.0
490,132.71175247083332,132.9930023583333,64.0,71.0
491,132.71175247083332,133.01036346249998,60.0,77.0
492,132.29508597083333,133.01904401458333,48.0,67.0
493,131.87841947083334,133.11626619791667,43.0,35.0
494,133.12841897083334,133.42008552083334,62.0,97.0
495,133.12841897083334,133.4252938520833,59.0,78.0
496,133.12841897083334,133.4252938520833,66.0,96.0
497,133.54508547083333,133.79334926041665,59.0,83.0
498,133.54508547083333,133.81418258541666,62.0,97.0
499,133.54508547083333,133.82112702708332,66.0,99.0
500,133.96175197083332,134.22737686458333,59.0,93.0
501,133.96175197083332,134.22737686458333,62.0,102.0
502,133.96175197083332,134.23258519583334,66.0,117.0
503,133.12841897083334,134.39751568541666,35.0,72.0
504,133.54508547083333,134.43571011458332,42.0,71.0
505,134.37841847083334,134.45827955,66.0,96.0
506,134.37841847083334,134.46522399166665,62.0,102.0
507,134.37841847083334,134.50341842083333,59.0,90.0
508,133.96175197083332,134.78987663958333,47.0,82.0
509,134.79508497083333,135.10932095625,52.0,107.0
510,134.79508497083333,135.11279317708332,59.0,99.0
511,134.79508497083333,135.11800150833332,56.0,112.0
512,135.21175147083332,135.48605691666666,52.0,77.0
513,135.21175147083332,135.4999458,59.0,83.0
514,135.21175147083332,135.50862635208333,56.0,95.0
515,134.79508497083333,135.74820958958333,40.0,73.0
516,135.62841797083334,135.84716788333333,47.0,59.0
517,135.62841797083334,135.88015398125,52.0,90.0
518,135.62841797083334,135.88015398125,59.0,92.0
519,135.62841797083334,135.88883453333332,56.0,102.0
520,136.04508447083333,136.09543167291665,52.0,64.0
521,136.04508447083333,136.1127927770833,56.0,97.0
522,136.04508447083333,136.1127927770833,59.0,78.0
523,136.46175097083332,136.74300085833332,57.0,93.0
524,136.46175097083332,136.74300085833332,60.0,92.0
525,136.46175097083332,136.74820918958332,64.0,90.0
526,136.8784174708333,137.09890349375,60.0,85.0
527,136.8784174708333,137.1145284875,57.0,82.0
528,136.8784174708333,137.13015348125,64.0,76.0
529,137.29508397083333,137.52945887708333,57.0,96.0
530,137.29508397083333,137.54161165,60.0,96.0
531,137.29508397083333,137.55550053333332,64.0,86.0
532,136.46175097083332,137.72216713333333,45.0,72.0
533,137.71175047083332,137.9895281375,60.0,88.0
534,137.71175047083332,137.99820868958332,57.0,89.0
535,137.71175047083332,137.99820868958332,64.0,82.0
536,137.29508397083333,138.13188919166666,52.0,69.0
537,138.1284169708333,138.42008352083332,60.0,96.0
538,138.1284169708333,138.4270279625,57.0,89.0
539,138.1284169708333,138.4270279625,64.0,85.0
540,138.54508347083333,138.82980557916665,60.0,93.0
541,138.54508347083333,138.8332778,57.0,82.0
542,138.54508347083333,138.84195835208334,64.0,83.0
543,138.96174997083332,139.15098600624998,52.0,44.0
544,138.96174997083332,139.24647207916667,57.0,92.0
545,138.1284169708333,139.24994429999998,45.0,66.0
546,138.96174997083332,139.25341652083333,60.0,89.0
547,138.96174997083332,139.25862485208333,64.0,78.0
548,139.37841647083332,139.49126364791667,64.0,92.0
549,139.37841647083332,139.5190414145833,60.0,96.0
550,139.37841647083332,139.52424974583332,57.0,93.0
551,139.79508297083333,140.08501341041665,66.0,95.0
552,139.79508297083333,140.08674952083334,57.0,97.0
553,139.79508297083333,140.09890229375,62.0,96.0
554,140.21174947083333,140.49473546874998,66.0,95.0
555,140.21174947083333,140.49994379999998,57.0,88.0
556,140.21174947083333,140.50862435208333,62.0,96.0
557,140.21174947083333,140.78640201874998,45.0,45.0
558,140.62841597083332,140.92008252083332,66.0,102.0
559,140.62841597083332,140.93223529374998,57.0,88.0
560,140.62841597083332,140.93223529374998,62.0,99.0
561,141.04508247083334,141.3332768,66.0,97.0
562,139.79508297083333,141.3436934625,38.0,77.0
563,141.04508247083334,141.34542957291666,57.0,85.0
564,141.04508247083334,141.34890179375,62.0,97.0
565,141.04508247083334,141.46001286041667,45.0,57.0
566,141.46174897083333,142.19612367708334,66.0,100.0
567,141.46174897083333,142.20306811875,57.0,88.0
568,141.46174897083333,142.21522089166666,62.0,99.0
569,140.62841597083332,142.4478596875,50.0,57.0
570,141.46174897083333,142.47042912291667,38.0,59.0
571,142.29508197083334,142.53813742916665,45.0,64.0
572,142.29508197083334,142.6978595875,66.0,100.0
573,142.29508197083334,142.73605401666666,62.0,95.0
574,142.29508197083334,142.93049838333332,57.0,88.0
575,143.12841497083332,143.44612317708334,55.0,97.0
576,143.12841497083332,143.44612317708334,59.0,95.0
577,143.12841497083332,143.46174817083332,62.0,93.0
578,143.54508147083334,143.81765080625,55.0,75.0
579,143.54508147083334,143.82112302708333,59.0,78.0
580,143.54508147083334,143.83153968958334,62.0,72.0
581,143.96174797083333,144.25688674166665,62.0,96.0
582,143.96174797083333,144.2603589625,59.0,96.0
583,143.96174797083333,144.26209507291665,55.0,95.0
584,143.12841497083332,144.2690395145833,43.0,73.0
585,144.37841447083332,144.65271991666665,55.0,61.0
586,144.37841447083332,144.65966435833332,59.0,68.0
587,144.37841447083332,144.65966435833332,62.0,69.0
588,143.96174797083333,144.78987263958334,50.0,42.0
589,144.79508097083334,145.13015028125,55.0,92.0
590,144.79508097083334,145.1353586125,59.0,85.0
591,144.79508097083334,145.14403916458332,62.0,85.0
592,145.21174747083333,145.47737236458332,55.0,72.0
593,145.21174747083333,145.479108475,59.0,77.0
594,145.21174747083333,145.48605291666667,62.0,72.0
595,145.62841397083332,145.89056664375,55.0,95.0
596,145.62841397083332,145.90445552708331,59.0,95.0
597,145.62841397083332,145.90792774791666,62.0,90.0
598,144.79508097083334,145.99126104791665,43.0,64.0
599,146.0450804708333,146.32806646875,55.0,83.0
600,146.0450804708333,146.32806646875,59.0,82.0
601,146.0450804708333,146.32806646875,62.0,72.0
602,145.62841397083332,146.48258029583332,50.0,93.0
603,146.46174697083333,146.7499413,55.0,92.0
604,146.46174697083333,146.7638301833333,59.0,93.0
605,146.46174697083333,146.76730240416666,62.0,86.0
606,146.87841347083332,147.1492466958333,55.0,73.0
607,146.87841347083332,147.16139946875,62.0,71.0
608,146.87841347083332,147.16834391041667,59.0,78.0
609,147.2950799708333,147.54681598125,55.0,86.0
610,147.2950799708333,147.56591319583333,62.0,83.0
611,147.2950799708333,147.56764930625,59.0,90.0
612,146.46174697083333,147.60410762499998,43.0,69.0
613,147.71174647083333,148.0103574625,55.0,69.0
614,147.71174647083333,148.0103574625,62.0,66.0
615,147.71174647083333,148.02598245625,59.0,68.0
616,147.2950799708333,148.19959349791665,50.0,68.0
617,148.12841297083332,148.43396840416665,55.0,81.0
618,148.12841297083332,148.43396840416665,62.0,81.0
619,148.12841297083332,148.437440625,59.0,83.0
620,148.54507947083331,148.8332738,55.0,66.0
621,148.54507947083331,148.83674602083332,62.0,61.0
622,148.54507947083331,148.84195435208332,59.0,64.0
623,148.12841297083332,149.01382928333334,43.0,58.0
624,148.96174597083333,149.06417648541665,50.0,67.0
625,148.96174597083333,149.24473196875,62.0,70.0
626,148.96174597083333,149.2638291833333,55.0,90.0
627,148.96174597083333,149.2638291833333,59.0,92.0
628,149.37841247083333,149.47389854374998,62.0,73.0
629,149.37841247083333,149.51903741458332,59.0,79.0
630,149.37841247083333,149.66139846874998,55.0,85.0
631,149.79507897083332,150.09021774166666,55.0,89.0
632,149.79507897083332,150.09368996249998,59.0,85.0
633,149.79507897083332,150.09542607291667,64.0,88.0
634,150.21174547083334,150.44264815625,55.0,78.0
635,150.21174547083334,150.45132870833334,59.0,78.0
636,150.21174547083334,150.45132870833334,64.0,74.0
637,150.62841197083333,150.85237021458332,55.0,95.0
638,150.62841197083333,150.85757854583332,64.0,95.0
639,150.62841197083333,150.87320353958333,59.0,97.0
640,149.79507897083332,151.30723114375,40.0,77.0
641,151.04507847083332,151.34195335208332,64.0,75.0
642,151.04507847083332,151.34889779374998,59.0,73.0
643,151.04507847083332,151.35237001458333,55.0,85.0
644,150.62841197083333,151.4270227625,52.0,78.0
645,150.21174547083334,151.44438386666667,47.0,39.0
646,151.46174497083334,151.75688374166666,55.0,73.0
647,151.46174497083334,151.76903651458332,59.0,77.0
648,151.46174497083334,151.76903651458332,64.0,78.0
649,151.87841147083333,152.12667526041665,64.0,75.0
650,151.87841147083333,152.1353558125,55.0,78.0
651,151.87841147083333,152.14230025416666,59.0,78.0
652,152.29507797083332,152.56417508541665,55.0,86.0
653,152.29507797083332,152.56764730625,59.0,93.0
654,152.29507797083332,152.56938341666665,64.0,89.0
655,152.29507797083332,152.6978555875,52.0,75.0
656,151.46174497083334,152.98084158541667,40.0,64.0
657,152.71174447083334,152.98084158541667,55.0,82.0
658,152.71174447083334,152.98431380625,64.0,79.0
659,152.71174447083334,152.99125824791665,59.0,78.0
660,151.87841147083333,153.10063320416666,47.0,45.0
661,153.12841097083333,153.40618863749998,55.0,92.0
662,153.12841097083333,153.40618863749998,64.0,89.0
663,153.12841097083333,153.41313307916667,59.0,85.0
664,153.54507747083332,153.8020218125,55.0,71.0
665,153.54507747083332,153.80549403333333,64.0,72.0
666,153.54507747083332,153.81070236458334,59.0,79.0
667,153.96174397083334,154.2499383,59.0,92.0
668,153.96174397083334,154.2499383,64.0,89.0
669,153.96174397083334,154.25688274166666,55.0,92.0
670,153.54507747083332,154.26556329375,47.0,42.0
671,153.96174397083334,154.43570211458334,52.0,75.0
672,153.12841097083333,154.62320203958333,40.0,82.0
673,154.37841047083333,154.68917423541666,55.0,72.0
674,154.37841047083333,154.68917423541666,64.0,74.0
675,154.37841047083333,154.69611867708332,59.0,77.0
676,154.37841047083333,154.86972971875,47.0,63.0
677,154.79507697083332,155.05375742291665,59.0,86.0
678,154.79507697083332,155.05375742291665,64.0,85.0
679,154.79507697083332,155.05722964375,55.0,86.0
680,155.2117434708333,155.4999378,55.0,75.0
681,155.2117434708333,155.50514613125,64.0,75.0
682,155.2117434708333,155.50688224166666,59.0,79.0
683,155.62840997083333,155.73604881666665,52.0,77.0
684,155.2117434708333,155.75167381041666,47.0,63.0
685,154.79507697083332,155.770771025,40.0,85.0
686,155.62840997083333,156.04854869166667,64.0,96.0
687,155.62840997083333,156.07459034791665,59.0,97.0
688,156.04507647083332,156.354104125,55.0,100.0
689,156.4617429708333,156.62493734999998,52.0,95.0
690,156.4617429708333,156.7950761708333,59.0,88.0
691,156.4617429708333,156.80028450208331,55.0,82.0
692,156.87840947083333,157.14924269583332,59.0,67.0
693,156.87840947083333,157.17007602083333,52.0,89.0
694,156.87840947083333,157.17528435208334,55.0,68.0
695,156.87840947083333,157.53986753958333,43.0,55.0
696,157.29507597083332,157.62320083958332,52.0,95.0
697,157.29507597083332,157.62493695,55.0,86.0
698,157.29507597083332,157.78118688749998,48.0,85.0
699,156.4617429708333,157.96000626041666,36.0,71.0
700,157.71174247083331,158.00340902083332,52.0,77.0
701,157.71174247083331,158.04160345,55.0,77.0
702,157.71174247083331,158.19438116666666,43.0,53.0
703,158.12667286041665,158.44264495624998,60.0,76.0
704,158.12667286041665,158.44438106666666,52.0,89.0
705,158.12667286041665,158.45132550833333,55.0,73.0
706,158.54507547083332,158.84021424166667,52.0,69.0
707,158.54507547083332,158.85063090416665,55.0,73.0
708,158.54507547083332,158.85063090416665,60.0,72.0
709,158.54507547083332,159.25861685208332,43.0,66.0
710,158.96174197083332,159.26903351458333,60.0,83.0
711,158.96174197083332,159.27771406666665,55.0,88.0
712,158.96174197083332,159.2811862875,52.0,88.0
713,158.96174197083332,159.4357001145833,48.0,70.0
714,158.12667286041665,159.55375562291667,36.0,83.0
715,159.37840847083334,159.65792224791664,52.0,63.0
716,159.37840847083334,159.67354724166665,60.0,75.0
717,159.37840847083334,159.67875557291666,55.0,69.0
718,159.37840847083334,159.86104716666665,43.0,64.0
719,159.79507497083333,160.08847763125,52.0,90.0
720,159.79507497083333,160.104102625,55.0,78.0
721,159.79507497083333,160.104102625,60.0,77.0
722,160.21174147083332,160.4999358,52.0,70.0
723,160.21174147083332,160.4999358,60.0,66.0
724,160.21174147083332,160.50514413124998,55.0,65.0
725,160.62840797083334,160.91486618958334,52.0,90.0
726,160.62840797083334,160.9166023,60.0,90.0
727,160.62840797083334,160.9252828520833,55.0,88.0
728,160.62840797083334,161.06938001666666,48.0,85.0
729,159.79507497083333,161.1978521875,36.0,76.0
730,161.04507447083333,161.34542157291665,52.0,69.0
731,161.04507447083333,161.35062990416665,60.0,77.0
732,161.04507447083333,161.354102125,55.0,78.0
733,160.21174147083332,161.50167151041666,43.0,47.0
734,161.46174097083332,161.77424084583333,52.0,85.0
735,161.46174097083332,161.77424084583333,60.0,88.0
736,161.46174097083332,161.77944917708334,55.0,89.0
737,161.87840747083334,162.17354624166666,52.0,66.0
738,161.87840747083334,162.1770184625,60.0,69.0
739,161.87840747083334,162.18049068333332,55.0,69.0
740,161.87840747083334,162.45826835,43.0,56.0
741,162.29507397083333,162.67354604166667,52.0,88.0
742,162.29507397083333,162.68222659375,55.0,93.0
743,162.29507397083333,162.68569881458333,60.0,93.0
744,162.29507397083333,162.74125434791665,48.0,75.0
745,161.46174097083332,162.80028210208332,36.0,66.0
746,162.71174047083332,163.17180973125,43.0,85.0
747,163.1284069708333,163.45305961875,66.0,89.0
748,163.1284069708333,163.45653183958333,57.0,93.0
749,163.1284069708333,163.45653183958333,62.0,89.0
750,163.54507347083333,163.8332678,57.0,66.0
751,163.54507347083333,163.8436844625,66.0,77.0
752,163.54507347083333,163.85583723541666,62.0,85.0
753,163.54507347083333,164.22042042291665,45.0,66.0
754,163.96173997083332,164.28639261875,57.0,95.0
755,163.96173997083332,164.30375372291667,66.0,99.0
756,163.96173997083332,164.31417038541665,62.0,97.0
757,163.96173997083332,164.48604531666666,50.0,92.0
758,163.1284069708333,164.58847583124998,38.0,81.0
759,164.3784064708333,164.67875357291666,66.0,77.0
760,164.3784064708333,164.68396190416667,57.0,78.0
761,164.3784064708333,164.68917023541667,62.0,81.0
762,164.3784064708333,164.89750348541665,45.0,66.0
763,164.79333686041664,165.08673952083333,57.0,86.0
764,164.79333686041664,165.08673952083333,62.0,100.0
765,164.79333686041664,165.08673952083333,66.0,100.0
766,165.21173947083332,165.50340602083332,66.0,79.0
767,165.21173947083332,165.50514213124998,57.0,76.0
768,165.21173947083332,165.50861435208333,62.0,82.0
769,165.21173947083332,165.86278087708334,45.0,76.0
770,165.6284059708333,165.91833641041666,66.0,93.0
771,165.6284059708333,165.92354474166666,62.0,90.0
772,165.6284059708333,165.92528085208332,57.0,83.0
773,165.6284059708333,166.08153078958333,50.0,85.0
774,164.79333686041664,166.27423904583333,38.0,81.0
775,166.04507247083333,166.29333626041665,57.0,82.0
776,166.04507247083333,166.3020168125,66.0,92.0
777,166.04507247083333,166.31069736458332,62.0,95.0
778,166.04507247083333,166.53465560833334,45.0,58.0
779,166.46173897083332,166.81069716458333,66.0,100.0
780,166.46173897083332,166.82111382708334,57.0,96.0
781,166.46173897083332,166.82805826875,62.0,99.0
782,166.87840547083331,167.15791924791665,57.0,69.0
783,166.87840547083331,167.16312757916666,66.0,73.0
784,166.87840547083331,167.17701646249998,62.0,69.0
785,166.87840547083331,167.47736356458333,45.0,55.0
786,167.29507197083333,167.5919468520833,66.0,97.0
787,167.29507197083333,167.60062740416666,57.0,92.0
788,167.29507197083333,167.60062740416666,62.0,90.0
789,166.46173897083332,167.91139116875,38.0,74.0
790,167.71173847083332,168.01729390416665,57.0,83.0
791,167.71173847083332,168.01729390416665,62.0,90.0
792,167.71173847083332,168.02250223541665,66.0,90.0
793,167.71173847083332,168.19437716666667,45.0,62.0
794,168.12840497083332,168.41312707916666,57.0,99.0
795,168.12840497083332,168.43222429374998,66.0,107.0
796,168.12840497083332,168.895765775,62.0,100.0
797,168.54507147083334,168.95652963958332,66.0,42.0
798,168.54507147083334,168.96521019166667,57.0,38.0
799,168.96173797083333,168.96521019166667,57.0,90.0
800,168.96173797083333,169.79159875,62.0,90.0
801,168.96173797083333,169.79854319166665,66.0,96.0
802,168.96173797083333,169.812432075,45.0,50.0
803,167.29507197083333,169.81416818541666,50.0,79.0
804,169.79507097083334,169.81416818541666,50.0,71.0
805,168.12840497083332,169.84889039375,38.0,79.0
806,169.79507097083334,171.32979257916665,43.0,74.0
807,171.46173697083333,172.98430580624998,43.0,60.0
808,171.46173697083333,172.99125024791667,50.0,59.0
809,173.12840297083332,174.62145792916667,43.0,66.0
810,173.12840297083332,174.67527735208333,50.0,72.0
811,174.7950689708333,176.42006832083334,50.0,67.0
812,174.7950689708333,176.43569331458332,43.0,65.0
813,176.46173497083333,177.9999288,40.0,66.0
814,176.46173497083333,178.02944267708332,47.0,71.0
815,176.46173497083333,178.03465100833333,52.0,65.0
816,178.12840097083333,179.65791424791666,47.0,59.0
817,178.12840097083333,179.66312257916667,52.0,62.0
818,178.12840097083333,179.67874757291665,40.0,59.0
819,179.79506697083332,181.33326079999998,40.0,66.0
820,179.79506697083332,181.36277467708334,47.0,71.0
821,179.79506697083332,181.3679830083333,52.0,65.0
822,181.4617329708333,182.99124624791665,47.0,59.0
823,181.4617329708333,182.99645457916665,52.0,62.0
824,181.4617329708333,183.01207957291666,40.0,59.0
825,183.12839897083333,184.66312057916664,36.0,57.0
826,183.12839897083333,184.68221779375,43.0,66.0
827,183.12839897083333,184.68221779375,48.0,76.0
828,183.12839897083333,184.69263445624998,55.0,58.0
829,183.12839897083333,184.70825944999999,60.0,71.0
830,184.79506497083332,186.26902271458331,36.0,53.0
831,184.79506497083332,186.28117548749998,43.0,53.0
832,184.79506497083332,186.28638381874998,48.0,58.0
833,184.79506497083332,186.3020088125,55.0,50.0
834,184.79506497083332,186.3106893645833,60.0,58.0
835,186.46173097083332,188.03464700833334,55.0,57.0
836,186.46173097083332,188.04159145,48.0,63.0
837,186.46173097083332,188.05374422291666,60.0,63.0
838,186.46173097083332,188.05721644374998,43.0,58.0
839,186.46173097083332,188.06589699583333,36.0,48.0
840,188.12839697083334,189.04159105,60.0,66.0
841,188.12839697083334,189.11624379791667,55.0,58.0
842,188.12839697083334,189.145757675,48.0,53.0
843,188.12839697083334,189.16311877916667,36.0,45.0
844,188.12839697083334,189.17006322083333,43.0,52.0
845,189.79506297083333,191.1075624458333,38.0,50.0
846,189.79506297083333,191.20478462916665,45.0,61.0
847,189.79506297083333,191.2586040520833,50.0,59.0
848,189.79506297083333,191.2603401625,57.0,57.0
849,189.79506297083333,191.26381238333332,54.0,56.0
850,191.46172897083332,192.72388124375,38.0,42.0
851,191.46172897083332,192.79158955,45.0,47.0
852,191.46172897083332,192.8853395125,54.0,53.0
853,191.46172897083332,192.89054784375,57.0,52.0
854,191.46172897083332,192.90443672708332,50.0,51.0
855,193.1283949708333,194.01033906249998,45.0,46.0
856,193.1283949708333,194.09193625208331,38.0,39.0
857,193.1283949708333,194.59888049375,54.0,59.0
858,193.1283949708333,194.60582493541665,57.0,53.0
859,193.1283949708333,194.61103326666665,50.0,51.0
860,194.79506097083333,195.29506077083332,45.0,47.0
861,194.79506097083333,195.3228385375,38.0,40.0
862,194.79506097083333,195.48429680625,54.0,55.0
863,194.79506097083333,195.51207457291665,57.0,60.0
864,194.79506097083333,195.69263005624998,50.0,61.0
865,196.46172697083333,197.70999036041667,59.0,63.0
866,196.46172697083333,197.83846253125,55.0,66.0
867,196.46172697083333,197.99992079999998,50.0,66.0
868,196.46172697083333,198.02596245625,43.0,62.0
869,198.12839297083332,199.66832291041666,50.0,72.0
870,198.12839297083332,199.67700346249998,43.0,55.0
871,198.12839297083332,199.68915623541665,55.0,66.0
872,199.7950589708333,201.31068336458333,50.0,67.0
873,199.7950589708333,201.31762780625,43.0,60.0
874,199.7950589708333,201.33846113125,55.0,69.0
875,201.46172497083333,202.77596055625,55.0,67.0
876,201.46172497083333,202.95651603958333,50.0,69.0
877,201.46172497083333,203.01727990416666,43.0,63.0
878,203.12839097083332,204.50165431041665,52.0,72.0
879,203.12839097083332,204.54852929166665,40.0,63.0
880,203.12839097083332,204.55547373333332,59.0,69.0
881,203.12839097083332,204.56415428541666,55.0,56.0
882,204.79505697083331,206.31415358541665,40.0,45.0
883,204.79505697083331,206.31415358541665,59.0,55.0
884,204.79505697083331,206.3263063583333,52.0,51.0
885,204.79505697083331,206.32804246875,55.0,52.0
886,204.79505697083331,206.36276467708333,47.0,54.0
887,206.46172297083334,207.85581963541665,40.0,55.0
888,206.46172297083334,207.92179183124998,47.0,53.0
889,206.46172297083334,207.92873627291667,59.0,52.0
890,206.46172297083334,207.93915293541664,52.0,45.0
891,206.46172297083334,207.93915293541664,55.0,50.0
892,208.12838897083333,208.98429140624998,47.0,60.0
893,208.12838897083333,209.03116638749998,40.0,57.0
894,208.12838897083333,209.05026360208333,55.0,51.0
895,208.12838897083333,209.05894415416665,59.0,55.0
896,208.12838897083333,209.08672192083333,52.0,47.0
897,209.79505497083332,211.31762380625,48.0,60.0
898,209.79505497083332,211.3210960270833,36.0,56.0
899,209.79505497083332,211.35755434583334,52.0,63.0
900,209.79505497083332,211.35929045625,43.0,58.0
901,209.79505497083332,211.36102656666665,55.0,64.0
902,211.4617209708333,212.92873427291664,36.0,56.0
903,211.4617209708333,212.94262315625,48.0,72.0
904,211.4617209708333,212.95477592916666,43.0,53.0
905,211.4617209708333,212.95998426041666,52.0,66.0
906,211.4617209708333,212.95998426041666,55.0,66.0
907,213.12838697083333,214.60408082499998,43.0,52.0
908,213.12838697083333,214.61102526666664,36.0,61.0
909,213.12838697083333,214.63706692291666,55.0,59.0
910,213.12838697083333,214.64227525416666,48.0,55.0
911,213.12838697083333,214.64574747499998,52.0,53.0
912,214.79505297083332,216.19956629791665,55.0,61.0
913,214.79505297083332,216.26553849375,48.0,65.0
914,214.79505297083332,216.28984403958333,52.0,57.0
915,214.79505297083332,216.37144122916666,36.0,53.0
916,214.79505297083332,216.395746775,43.0,56.0
917,216.46171897083332,217.90616283749998,38.0,66.0
918,216.46171897083332,217.92873227291665,57.0,64.0
919,216.46171897083332,217.93914893541665,54.0,58.0
920,216.46171897083332,217.94609337708332,50.0,70.0
921,218.1283849708333,219.66310657916665,38.0,50.0
922,218.1283849708333,219.67178713125,50.0,61.0
923,218.1283849708333,219.67178713125,57.0,63.0
924,218.1283849708333,219.69956489791664,54.0,69.0
925,218.1283849708333,219.70130100833333,45.0,56.0
926,219.79505097083333,221.27942537708333,54.0,89.0
927,219.79505097083333,221.27942537708333,57.0,74.0
928,219.79505097083333,221.28463370833333,50.0,69.0
929,219.79505097083333,221.2950503708333,38.0,62.0
930,219.79505097083333,221.31588369583332,45.0,67.0
931,221.46171697083332,222.83845253125,38.0,63.0
932,221.46171697083332,222.86275807708333,54.0,67.0
933,221.46171697083332,222.87664696041665,57.0,68.0
934,221.46171697083332,222.88879973333331,50.0,73.0
935,223.12838297083331,223.4478272875,62.0,70.0
936,223.12838297083331,223.44956339791665,55.0,81.0
937,223.12838297083331,223.44956339791665,59.0,74.0
938,223.54504947083333,223.8436604625,62.0,59.0
939,223.54504947083333,223.85060490416666,55.0,61.0
940,223.54504947083333,223.86449378749998,59.0,65.0
941,223.96171597083332,224.25859085208333,55.0,92.0
942,223.96171597083332,224.26379918333333,62.0,90.0
943,223.96171597083332,224.27595195625,59.0,92.0
944,223.12838297083331,224.57282683749997,43.0,78.0
945,223.96171597083332,224.67699346249998,50.0,53.0
946,224.37838247083332,224.68046568333332,55.0,67.0
947,224.37838247083332,224.68046568333332,62.0,63.0
948,224.37838247083332,224.69088234583333,59.0,71.0
949,224.79504897083334,225.10581273541666,55.0,89.0
950,224.79504897083334,225.10581273541666,59.0,86.0
951,224.79504897083334,225.11449328749998,62.0,90.0
952,225.21171547083333,225.5311597875,55.0,69.0
953,225.21171547083333,225.53463200833332,59.0,71.0
954,225.21171547083333,225.54157644999998,62.0,68.0
955,225.62838197083332,225.91136796875,55.0,93.0
956,225.62838197083332,225.91136796875,59.0,99.0
957,225.62838197083332,225.91484018958332,62.0,96.0
958,226.0450484708333,226.30720114374998,55.0,83.0
959,226.0450484708333,226.31414558541667,62.0,79.0
960,224.79504897083334,226.3228261375,43.0,66.0
961,226.0450484708333,226.3228261375,59.0,85.0
962,226.46171497083333,226.79331206041667,62.0,90.0
963,226.46171497083333,226.80025650208333,59.0,88.0
964,226.46171497083333,226.81067316458333,55.0,89.0
965,226.87838147083332,227.17872857291667,55.0,64.0
966,226.87838147083332,227.18567301458333,59.0,69.0
967,226.87838147083332,227.18567301458333,62.0,66.0
968,227.2950479708333,227.60060340416666,55.0,97.0
969,227.2950479708333,227.60581173541667,62.0,95.0
970,227.2950479708333,227.60754784583332,59.0,96.0
971,226.46171497083333,227.97560325416666,43.0,72.0
972,227.71171447083333,227.98428380624998,59.0,85.0
973,227.71171447083333,227.98949213749998,55.0,77.0
974,227.71171447083333,228.00164491041664,62.0,72.0
975,227.2950479708333,228.03983933958332,50.0,44.0
976,228.12838097083332,228.45303361875,55.0,93.0
977,228.12838097083332,228.45303361875,59.0,100.0
978,228.12838097083332,228.46171417083332,62.0,90.0
979,228.5450474708333,228.85233901458332,55.0,71.0
980,228.5450474708333,228.87490845,59.0,74.0
981,228.5450474708333,228.87664456041665,62.0,72.0
982,228.96171397083333,229.05893615416664,50.0,67.0
983,228.12838097083332,229.08324169999997,43.0,67.0
984,228.96171397083333,229.42351934166666,59.0,107.0
985,228.96171397083333,229.44088044583333,62.0,100.0
986,229.37838047083332,229.71518589166666,55.0,107.0
987,229.7950469708333,229.85581083541666,59.0,36.0
988,229.7950469708333,229.85581083541666,59.0,92.0
989,229.7950469708333,230.1353246125,52.0,99.0
990,229.7950469708333,230.14400516458332,55.0,90.0
991,230.21171347083333,230.3228245375,52.0,59.0
992,230.21171347083333,230.49469946874999,59.0,63.0
993,230.21171347083333,230.53463000833332,55.0,63.0
994,230.62837997083332,230.69956049791665,52.0,112.0
995,230.62837997083332,230.71518549166666,55.0,97.0
996,230.62837997083332,230.72733826458332,59.0,102.0
997,231.0450464708333,231.15442142708332,59.0,76.0
998,231.0450464708333,231.17178253125,55.0,74.0
999,231.46171297083333,231.77421284583332,59.0,89.0
1000,231.46171297083333,231.77594895624998,55.0,90.0
1001,231.46171297083333,231.77594895624998,64.0,86.0
1002,231.46171297083333,232.02768496666664,52.0,67.0
1003,231.87837947083332,232.18219879375,55.0,64.0
1004,231.87837947083332,232.19435156666665,59.0,59.0
1005,231.87837947083332,232.19435156666665,64.0,62.0
1006,232.2950459708333,232.60580973541664,59.0,100.0
1007,232.2950459708333,232.61101806666665,64.0,100.0
1008,232.2950459708333,232.75337912083333,52.0,65.0
1009,229.7950469708333,232.98080958541667,40.0,75.0
1010,232.71171247083333,233.01900401458332,64.0,66.0
1011,232.71171247083333,233.02074012499997,55.0,76.0
1012,232.71171247083333,233.02768456666666,59.0,72.0
1013,230.62837997083332,233.21692060208332,47.0,63.0
1014,233.12837897083332,233.479073275,64.0,79.0
1015,233.12837897083332,233.4825454958333,55.0,88.0
1016,233.12837897083332,233.4877538270833,59.0,88.0
1017,233.54504547083332,233.80546203333333,55.0,59.0
1018,233.54504547083332,233.8262953583333,59.0,66.0
1019,233.54504547083332,233.82803146875,64.0,66.0
1020,233.96171197083333,234.20129520833333,55.0,97.0
1021,233.96171197083333,234.25164241041665,64.0,90.0
1022,233.96171197083333,234.25685074166665,59.0,96.0
1023,234.37837847083333,234.43914233541665,64.0,34.0
1024,234.37837847083333,234.46518399166666,59.0,49.0
1025,233.96171197083333,234.51726730416667,52.0,90.0
1026,234.37837847083333,234.66657279999998,55.0,85.0
1027,234.79504497083332,234.95303101874998,62.0,72.0
1028,234.79504497083332,235.12143372916665,52.0,76.0
1029,233.54504547083332,235.31935031666666,47.0,63.0
1030,234.79504497083332,235.31935031666666,59.0,95.0
1031,233.12837897083332,235.395739175,40.0,83.0
1032,234.79504497083332,235.5103224625,64.0,69.0
1033,235.2117114708333,235.62490574999998,55.0,72.0
1034,235.62837797083333,236.05025280208332,64.0,95.0
1035,235.62837797083333,236.32803046875,59.0,97.0
1036,236.04504447083332,236.34018324166667,55.0,70.0
1037,236.4617109708333,236.59886369375,43.0,65.0
1038,236.4617109708333,236.7499053,64.0,93.0
1039,236.4617109708333,236.76553029374998,60.0,96.0
1040,236.87837747083333,237.16483568958333,64.0,66.0
1041,236.87837747083333,237.17872457291665,60.0,71.0
1042,236.4617109708333,237.18393290416665,55.0,95.0
1043,237.29504397083332,237.61969661875,64.0,90.0
1044,237.29504397083332,237.63532161249998,55.0,97.0
1045,237.29504397083332,237.63532161249998,60.0,96.0
1046,236.4617109708333,237.98254369583333,36.0,65.0
1047,237.7117104708333,237.9981686895833,55.0,61.0
1048,237.7117104708333,238.01032146249997,64.0,71.0
1049,237.7117104708333,238.02594645624998,60.0,77.0
1050,237.29504397083332,238.21171027083332,43.0,53.0
1051,238.12837697083333,238.40441852708332,55.0,97.0
1052,238.12837697083333,238.44608517708332,64.0,93.0
1053,238.12837697083333,238.44955739791666,60.0,100.0
1054,238.54504347083332,238.8627516770833,55.0,73.0
1055,238.54504347083332,238.86969611875,64.0,58.0
1056,238.54504347083332,238.87316833958332,60.0,63.0
1057,236.4617109708333,239.08670992083333,48.0,92.0
1058,238.12837697083333,239.23601541666665,36.0,59.0
1059,238.9617099708333,239.26032096249997,64.0,97.0
1060,238.9617099708333,239.26726540416666,60.0,112.0
1061,238.9617099708333,239.27073762499998,55.0,89.0
1062,238.9617099708333,239.29157095,43.0,51.0
1063,239.37837647083333,239.45476532916666,64.0,69.0
1064,239.37837647083333,239.46344588124998,60.0,88.0
1065,239.37837647083333,239.49469586875,55.0,79.0
1066,239.79504297083332,240.08497341041667,59.0,96.0
1067,239.79504297083332,240.09191785208333,62.0,102.0
1068,239.79504297083332,240.1127511770833,66.0,100.0
1069,240.2117094708333,240.47038992291667,59.0,72.0
1070,240.2117094708333,240.48601491666665,62.0,81.0
1071,240.2117094708333,240.49643157916665,66.0,66.0
1072,240.2117094708333,240.65441762708332,42.0,29.0
1073,240.62837597083333,240.79677868124998,59.0,82.0
1074,239.79504297083332,240.93913973541666,35.0,74.0
1075,240.62837597083333,240.99122304791666,62.0,112.0
1076,240.62837597083333,241.00337582083333,66.0,100.0
1077,241.04504247083332,241.10233411458333,59.0,96.0
1078,240.62837597083333,241.38532011249998,47.0,66.0
1079,241.4617089708333,241.82108382708333,52.0,89.0
1080,241.4617089708333,241.82976437916665,59.0,83.0
1081,241.4617089708333,241.84886159374997,56.0,88.0
1082,241.87837547083333,242.1804586833333,52.0,83.0
1083,241.87837547083333,242.18913923541666,59.0,74.0
1084,241.87837547083333,242.19781978749998,56.0,85.0
1085,242.29504197083332,242.34538917291664,52.0,62.0
1086,241.4617089708333,242.38358360208332,40.0,76.0
1087,242.29504197083332,242.58844463124998,59.0,92.0
1088,242.29504197083332,242.60059740416665,56.0,117.0
1089,242.71170847083332,242.87837507083333,59.0,78.0
1090,242.71170847083332,242.99816668958331,56.0,92.0
1091,243.12837497083333,243.38531931249997,52.0,100.0
1092,243.12837497083333,243.4773331645833,57.0,96.0
1093,243.12837497083333,243.48254149583332,60.0,97.0
1094,243.54504147083333,243.8019858125,52.0,81.0
1095,243.54504147083333,243.81413858541666,60.0,66.0
1096,243.54504147083333,243.82629135833332,57.0,72.0
1097,243.96170797083332,244.25337452083332,52.0,96.0
1098,243.96170797083332,244.479068875,57.0,100.0
1099,243.96170797083332,244.479068875,60.0,99.0
1100,244.3783744708333,244.64573547499998,52.0,78.0
1101,244.79504097083333,244.895735375,61.0,76.0
1102,244.79504097083333,245.12316583958332,52.0,100.0
1103,244.79504097083333,245.47212403333333,60.0,92.0
1104,245.21170747083332,245.50684624166666,52.0,73.0
1105,244.79504097083333,245.51031846249998,57.0,97.0
1106,245.6283739708333,245.73948503749997,52.0,67.0
1107,243.12837497083333,245.95997106041665,33.0,81.0
1108,244.79504097083333,245.99469326874998,40.0,25.0
1109,245.6283739708333,246.03809602916667,60.0,97.0
1110,245.6283739708333,246.04504047083333,57.0,100.0
1111,246.04504047083333,246.20302651875,52.0,92.0
1112,243.96170797083332,246.3523320145833,45.0,65.0
1113,246.46170697083332,246.76031796249998,50.0,100.0
1114,246.46170697083332,246.78983183958331,54.0,100.0
1115,246.46170697083332,246.78983183958331,57.0,90.0
1116,246.8783734708333,247.13879003333332,50.0,83.0
1117,246.8783734708333,247.15788724791665,54.0,89.0
1118,246.8783734708333,247.1648316895833,57.0,72.0
1119,247.29503997083333,247.58670652083333,50.0,96.0
1120,247.29503997083333,247.604067625,57.0,96.0
1121,247.29503997083333,247.61274817708332,54.0,122.0
1122,246.46170697083332,247.94434526666666,38.0,97.0
1123,247.71170647083332,247.95128970833332,50.0,86.0
1124,247.71170647083332,247.96691470208333,57.0,82.0
1125,247.71170647083332,247.97212303333333,54.0,99.0
1126,247.29503997083333,248.04503967083332,45.0,65.0
1127,248.1283729708333,248.25337292083333,54.0,100.0
1128,248.1283729708333,248.27247013541665,50.0,93.0
1129,248.1283729708333,248.28809512916666,57.0,93.0
1130,248.54503947083333,248.6023311145833,54.0,96.0
1131,248.54503947083333,248.60580333541665,57.0,73.0
1132,248.54503947083333,248.90962265833332,45.0,68.0
1133,248.96170597083332,249.01031706249998,66.0,57.0
1134,248.96170597083332,249.01031706249998,66.0,96.0
1135,248.96170597083332,249.25163641041667,62.0,99.0
1136,248.96170597083332,249.25510863124998,57.0,92.0
1137,248.1283729708333,249.27246973541665,38.0,88.0
1138,248.96170597083332,249.2811502875,45.0,89.0
1139,249.3783724708333,249.43045578333331,66.0,63.0
1140,249.3783724708333,249.46517799166665,62.0,97.0
1141,249.3783724708333,249.562400175,57.0,100.0
1142,249.79503897083333,250.10927495624998,59.0,97.0
1143,249.79503897083333,250.11274717708332,62.0,97.0
1144,249.79503897083333,250.11448328749998,55.0,99.0
1145,250.21170547083332,250.49121924791666,55.0,85.0
1146,250.21170547083332,250.49121924791666,62.0,88.0
1147,250.21170547083332,250.49642757916666,59.0,89.0
1148,250.6283719708333,250.92698296249998,62.0,96.0
1149,250.6283719708333,250.93913573541664,59.0,93.0
1150,250.6283719708333,250.95302461875,55.0,92.0
1151,251.04503847083333,251.29851059166666,62.0,85.0
1152,251.04503847083333,251.31587169583332,59.0,83.0
1153,249.79503897083333,251.32281613749998,43.0,77.0
1154,251.04503847083333,251.33149668958333,55.0,63.0
1155,250.6283719708333,251.43913553541665,50.0,63.0
1156,251.46170497083332,251.73774652708332,62.0,92.0
1157,251.46170497083332,251.74295485833332,55.0,78.0
1158,251.46170497083332,251.74816318958332,59.0,86.0
1159,251.87837147083332,252.11969081874997,55.0,79.0
1160,251.87837147083332,252.11969081874997,62.0,82.0
1161,251.87837147083332,252.12837137083332,59.0,83.0
1162,252.2950379708333,252.33844073125,55.0,61.0
1163,252.2950379708333,252.57976007916665,62.0,97.0
1164,252.2950379708333,252.5919128520833,59.0,99.0
1165,252.71170447083333,252.97385714375,62.0,82.0
1166,251.46170497083332,252.98080158541666,43.0,72.0
1167,252.71170447083333,252.98600991666666,59.0,93.0
1168,252.71170447083333,252.98948213749998,55.0,90.0
1169,252.2950379708333,253.10753764583333,50.0,56.0
1170,253.12837097083332,253.41135696875,55.0,81.0
1171,253.12837097083332,253.42350974166666,62.0,90.0
1172,253.12837097083332,253.42871807291667,59.0,92.0
1173,253.5450374708333,253.81413458541667,62.0,81.0
1174,253.5450374708333,253.81934291666664,55.0,77.0
1175,253.5450374708333,253.8228151375,59.0,85.0
1176,253.96170397083333,254.23080108541666,55.0,90.0
1177,253.96170397083333,254.23080108541666,62.0,93.0
1178,253.96170397083333,254.24121774791666,59.0,93.0
1179,253.12837097083332,254.47559265416666,43.0,66.0
1180,254.37837047083332,254.66135646875,62.0,86.0
1181,254.37837047083332,254.67177313124998,55.0,78.0
1182,254.37837047083332,254.67177313124998,59.0,86.0
1183,253.96170397083333,254.82281473749998,50.0,63.0
1184,254.7950369708333,255.06760630624998,55.0,86.0
1185,254.7950369708333,255.07975907916665,62.0,90.0
1186,254.7950369708333,255.08496741041665,59.0,89.0
1187,255.21170347083333,255.49816168958333,62.0,82.0
1188,255.21170347083333,255.49989779999999,55.0,81.0
1189,255.21170347083333,255.50510613125,59.0,83.0
1190,254.7950369708333,255.72385604374998,43.0,77.0
1191,255.62836997083332,255.72906437499998,50.0,82.0
1192,255.62836997083332,255.89225875416665,55.0,88.0
1193,255.62836997083332,255.91309207916666,62.0,95.0
1194,255.62836997083332,255.91482818958332,59.0,96.0
1195,256.04503647083334,256.1144808875,59.0,93.0
1196,256.04503647083334,256.12836977083333,62.0,89.0
1197,256.04503647083334,256.20475862916663,55.0,93.0
1198,256.4617029708333,256.7429528583333,52.0,93.0
1199,256.4617029708333,256.7603139625,55.0,85.0
1200,256.4617029708333,256.7603139625,59.0,88.0
1201,256.8783694708333,257.145730475,52.0,85.0
1202,256.8783694708333,257.1596193583333,59.0,78.0
1203,256.8783694708333,257.1665638,55.0,82.0
1204,257.29503597083334,257.45996646041664,52.0,88.0
1205,257.29503597083334,257.50510533125,55.0,89.0
1206,257.29503597083334,257.51204977291667,59.0,85.0
1207,256.4617029708333,257.77073022499997,40.0,83.0
1208,257.7117024708333,257.99121624791667,52.0,75.0
1209,257.7117024708333,258.0016329104167,55.0,82.0
1210,257.7117024708333,258.00510513125,59.0,76.0
1211,257.29503597083334,258.13010508125,47.0,69.0
1212,258.1283689708333,258.42350774166664,52.0,83.0
1213,258.1283689708333,258.43392440416665,59.0,83.0
1214,258.1283689708333,258.43739662499996,55.0,85.0
1215,258.54503547083334,258.8054520333333,52.0,75.0
1216,258.54503547083334,258.81760480624996,59.0,67.0
1217,258.54503547083334,258.82802146874997,55.0,74.0
1218,258.9617019708333,259.20822964999996,52.0,90.0
1219,258.9617019708333,259.21864631249997,59.0,79.0
1220,258.9617019708333,259.22732686458335,55.0,88.0
1221,258.1283689708333,259.41482678958334,40.0,82.0
1222,259.3783684708333,259.65267391666663,52.0,83.0
1223,259.3783684708333,259.6561461375,59.0,77.0
1224,259.3783684708333,259.67350724166664,55.0,77.0
1225,258.9617019708333,259.8210766270833,47.0,79.0
1226,259.79503497083334,260.09017374166666,52.0,89.0
1227,259.79503497083334,260.1023265145833,59.0,82.0
1228,259.79503497083334,260.10927095625,55.0,85.0
1229,260.2117014708333,260.47038192291666,52.0,74.0
1230,260.2117014708333,260.47211803333335,59.0,65.0
1231,260.2117014708333,260.48079858541666,55.0,74.0
1232,260.6283679708333,260.8679512083333,59.0,78.0
1233,260.6283679708333,260.8870484229167,55.0,89.0
1234,260.6283679708333,260.8887845333333,52.0,95.0
1235,259.79503497083334,261.0693400166667,40.0,69.0
1236,261.04503447083334,261.31413158541665,59.0,79.0
1237,261.04503447083334,261.31760380624996,52.0,78.0
1238,261.04503447083334,261.32802046874997,55.0,82.0
1239,260.6283679708333,261.4547565291667,47.0,54.0
1240,261.4617009708333,261.7377425270833,52.0,89.0
1241,261.4617009708333,261.75510363125,55.0,85.0
1242,261.4617009708333,261.7568397416666,59.0,85.0
1243,261.8783674708333,262.17350624166664,59.0,67.0
1244,261.8783674708333,262.18045068333333,52.0,74.0
1245,261.8783674708333,262.18913123541665,55.0,76.0
1246,261.4617009708333,262.3367006208333,40.0,63.0
1247,262.29503397083334,262.39225615416666,47.0,65.0
1248,262.29503397083334,262.57107552708334,59.0,85.0
1249,262.29503397083334,262.57454774791665,55.0,82.0
1250,262.29503397083334,262.6179505083333,52.0,77.0
1251,262.7117004708333,262.75683934166665,52.0,42.0
1252,262.7117004708333,262.79329766041667,59.0,63.0
1253,262.7117004708333,262.8089226541667,55.0,74.0
1254,263.1283669708333,263.43045018333333,55.0,92.0
1255,263.1283669708333,263.43392240416665,64.0,82.0
1256,263.1283669708333,263.44433906666666,60.0,88.0
1257,263.54503347083335,263.7950333708333,55.0,77.0
1258,263.54503347083335,263.7950333708333,64.0,77.0
1259,263.54503347083335,263.80371392291664,60.0,85.0
1260,263.9616999708333,264.19954709791665,64.0,90.0
1261,263.9616999708333,264.21690820208335,55.0,95.0
1262,263.9616999708333,264.2273248645833,60.0,100.0
1263,263.1283669708333,264.57975527916665,36.0,76.0
1264,263.9616999708333,264.58669972083334,48.0,79.0
1265,264.3783664708333,264.61621359791667,55.0,63.0
1266,264.3783664708333,264.6266302604167,64.0,59.0
1267,264.3783664708333,264.64746358541663,60.0,63.0
1268,263.54503347083335,264.8141301854167,43.0,52.0
1269,264.79503297083335,265.06065786458333,64.0,79.0
1270,264.79503297083335,265.06413008541665,55.0,81.0
1271,264.79503297083335,265.07281063749997,60.0,89.0
1272,265.2116994708333,265.4825326958333,55.0,67.0
1273,265.2116994708333,265.4877410270833,64.0,72.0
1274,265.2116994708333,265.5016299104166,60.0,88.0
1275,265.62836597083333,265.9148241895833,55.0,83.0
1276,265.62836597083333,265.91829641041664,64.0,92.0
1277,265.62836597083333,265.92871307291665,60.0,95.0
1278,266.0450324708333,266.31412958541665,55.0,74.0
1279,264.79503297083335,266.32107402708334,36.0,75.0
1280,266.0450324708333,266.32628235833334,64.0,71.0
1281,266.0450324708333,266.3436434625,60.0,77.0
1282,265.62836597083333,266.3523240145833,48.0,67.0
1283,265.2116994708333,266.4495461979167,43.0,35.0
1284,266.4616989708333,266.7533655208333,62.0,97.0
1285,266.4616989708333,266.7585738520833,59.0,78.0
1286,266.4616989708333,266.7585738520833,66.0,96.0
1287,266.87836547083333,267.1266292604167,59.0,83.0
1288,266.87836547083333,267.14746258541663,62.0,97.0
1289,266.87836547083333,267.1544070270833,66.0,99.0
1290,267.2950319708333,267.56065686458334,59.0,93.0
1291,267.2950319708333,267.56065686458334,62.0,102.0
1292,267.2950319708333,267.56586519583334,66.0,117.0
1293,266.4616989708333,267.73079568541664,35.0,72.0
1294,266.87836547083333,267.76899011458335,42.0,71.0
1295,267.7116984708333,267.79155955,66.0,96.0
1296,267.7116984708333,267.7985039916667,62.0,102.0
1297,267.7116984708333,267.83669842083333,59.0,90.0
1298,267.2950319708333,268.1231566395833,47.0,82.0
1299,268.12836497083333,268.44260095625,52.0,107.0
1300,268.12836497083333,268.4460731770833,59.0,99.0
1301,268.12836497083333,268.4512815083333,56.0,112.0
1302,268.5450314708333,268.81933691666666,52.0,77.0
1303,268.5450314708333,268.8332258,59.0,83.0
1304,268.5450314708333,268.8419063520833,56.0,95.0
1305,268.12836497083333,269.0814895895833,40.0,73.0
1306,268.9616979708333,269.18044788333333,47.0,59.0
1307,268.9616979708333,269.21343398125,52.0,90.0
1308,268.9616979708333,269.21343398125,59.0,92.0
1309,268.9616979708333,269.2221145333333,56.0,102.0
1310,269.37836447083333,269.4287116729167,52.0,64.0
1311,269.37836447083333,269.4460727770833,56.0,97.0
1312,269.37836447083333,269.4460727770833,59.0,78.0
1313,269.7950309708333,270.0762808583333,57.0,93.0
1314,269.7950309708333,270.0762808583333,60.0,92.0
1315,269.7950309708333,270.0814891895833,64.0,90.0
1316,270.2116974708333,270.43218349374996,60.0,85.0
1317,270.2116974708333,270.44780848749997,57.0,82.0
1318,270.2116974708333,270.46343348125,64.0,76.0
1319,270.62836397083333,270.8627388770833,57.0,96.0
1320,270.62836397083333,270.87489165,60.0,96.0
1321,270.62836397083333,270.8887805333333,64.0,86.0
1322,269.7950309708333,271.0554471333333,45.0,72.0
1323,271.0450304708333,271.3228081375,60.0,88.0
1324,271.0450304708333,271.3314886895833,57.0,89.0
1325,271.0450304708333,271.3314886895833,64.0,82.0
1326,270.62836397083333,271.46516919166663,52.0,69.0
1327,271.4616969708333,271.7533635208333,60.0,96.0
1328,271.4616969708333,271.7603079625,57.0,89.0
1329,271.4616969708333,271.7603079625,64.0,85.0
1330,271.87836347083334,272.16308557916665,60.0,93.0
1331,271.87836347083334,272.16655779999996,57.0,82.0
1332,271.87836347083334,272.17523835208334,64.0,83.0
1333,272.2950299708333,272.48426600625,52.0,44.0
1334,272.2950299708333,272.57975207916667,57.0,92.0
1335,271.4616969708333,272.5832243,45.0,66.0
1336,272.2950299708333,272.5866965208333,60.0,89.0
1337,272.2950299708333,272.5919048520833,64.0,78.0
1338,272.7116964708333,272.82454364791664,64.0,92.0
1339,272.7116964708333,272.85232141458334,60.0,96.0
1340,272.7116964708333,272.85752974583335,57.0,93.0
1341,273.12836297083334,273.41829341041665,66.0,95.0
1342,273.12836297083334,273.42002952083334,57.0,97.0
1343,273.12836297083334,273.43218229375,62.0,96.0
1344,273.5450294708333,273.82801546875,66.0,95.0
1345,273.5450294708333,273.8332238,57.0,88.0
1346,273.5450294708333,273.8419043520833,62.0,96.0
1347,273.5450294708333,274.11968201875,45.0,45.0
1348,273.9616959708333,274.2533625208333,66.0,102.0
1349,273.9616959708333,274.26551529375,57.0,88.0
1350,273.9616959708333,274.26551529375,62.0,99.0
1351,274.37836247083334,274.66655679999997,66.0,97.0
1352,273.12836297083334,274.6769734625,38.0,77.0
1353,274.37836247083334,274.67870957291666,57.0,85.0
1354,274.37836247083334,274.68218179375,62.0,97.0
1355,274.37836247083334,274.79329286041667,45.0,57.0
1356,274.7950289708333,275.52940367708334,66.0,100.0
1357,274.7950289708333,275.53634811874997,57.0,88.0
1358,274.7950289708333,275.54850089166666,62.0,99.0
1359,273.9616959708333,275.7811396875,50.0,57.0
1360,274.7950289708333,275.80370912291664,38.0,59.0
1361,275.62836197083334,275.8714174291666,45.0,64.0
1362,275.62836197083334,276.0311395875,66.0,100.0
1363,275.62836197083334,276.06933401666663,62.0,95.0
1364,275.62836197083334,276.2637783833333,57.0,88.0
1365,276.4616949708333,276.77940317708334,55.0,97.0
1366,276.4616949708333,276.77940317708334,59.0,95.0
1367,276.4616949708333,276.7950281708333,62.0,93.0
1368,276.87836147083334,277.15093080624996,55.0,75.0
1369,276.87836147083334,277.15440302708333,59.0,78.0
1370,276.87836147083334,277.16481968958334,62.0,72.0
1371,277.2950279708333,277.5901667416667,62.0,96.0
1372,277.2950279708333,277.5936389625,59.0,96.0
1373,277.2950279708333,277.5953750729166,55.0,95.0
1374,276.4616949708333,277.6023195145833,43.0,73.0
1375,277.7116944708333,277.98599991666663,55.0,61.0
1376,277.7116944708333,277.9929443583333,59.0,68.0
1377,277.7116944708333,277.9929443583333,62.0,69.0
1378,277.2950279708333,278.12315263958334,50.0,42.0
1379,278.12836097083334,278.46343028125,55.0,92.0
1380,278.12836097083334,278.4686386125,59.0,85.0
1381,278.12836097083334,278.4773191645833,62.0,85.0
1382,278.5450274708333,278.8106523645833,55.0,72.0
1383,278.5450274708333,278.812388475,59.0,77.0
1384,278.5450274708333,278.81933291666667,62.0,72.0
1385,278.9616939708333,279.22384664375,55.0,95.0
1386,278.9616939708333,279.2377355270833,59.0,95.0
1387,278.9616939708333,279.24120774791663,62.0,90.0
1388,278.12836097083334,279.3245410479166,43.0,64.0
1389,279.37836047083334,279.66134646874997,55.0,83.0
1390,279.37836047083334,279.66134646874997,59.0,82.0
1391,279.37836047083334,279.66134646874997,62.0,72.0
1392,278.9616939708333,279.8158602958333,50.0,93.0
1393,279.7950269708333,280.0832213,55.0,92.0
1394,279.7950269708333,280.0971101833333,59.0,93.0
1395,279.7950269708333,280.10058240416663,62.0,86.0
1396,280.2116934708333,280.4825266958333,55.0,73.0
1397,280.2116934708333,280.49467946875,62.0,71.0
1398,280.2116934708333,280.50162391041664,59.0,78.0
1399,280.62835997083334,280.88009598125,55.0,86.0
1400,280.62835997083334,280.89919319583333,62.0,83.0
1401,280.62835997083334,280.90092930624996,59.0,90.0
1402,279.7950269708333,280.937387625,43.0,69.0
1403,281.0450264708333,281.3436374625,55.0,69.0
1404,281.0450264708333,281.3436374625,62.0,66.0
1405,281.0450264708333,281.35926245625,59.0,68.0
1406,280.62835997083334,281.5328734979166,50.0,68.0
1407,281.4616929708333,281.76724840416665,55.0,81.0
1408,281.4616929708333,281.76724840416665,62.0,81.0
1409,281.4616929708333,281.77072062499997,59.0,83.0
1410,281.87835947083335,282.1665538,55.0,66.0
1411,281.87835947083335,282.1700260208333,62.0,61.0
1412,281.87835947083335,282.1752343520833,59.0,64.0
1413,281.4616929708333,282.34710928333334,43.0,58.0
1414,282.2950259708333,282.3974564854166,50.0,67.0
1415,282.2950259708333,282.57801196875,62.0,70.0
1416,282.2950259708333,282.5971091833333,55.0,90.0
1417,282.2950259708333,282.5971091833333,59.0,92.0
1418,282.7116924708333,282.80717854375,62.0,73.0
1419,282.7116924708333,282.8523174145833,59.0,79.0
1420,282.7116924708333,282.99467846875,55.0,85.0
1421,283.12835897083335,283.42349774166667,55.0,89.0
1422,283.12835897083335,283.4269699625,59.0,85.0
1423,283.12835897083335,283.42870607291667,64.0,88.0
1424,283.5450254708333,283.77592815624996,55.0,78.0
1425,283.5450254708333,283.78460870833334,59.0,78.0
1426,283.5450254708333,283.78460870833334,64.0,74.0
1427,283.96169197083333,284.1856502145833,55.0,95.0
1428,283.96169197083333,284.1908585458333,64.0,95.0
1429,283.96169197083333,284.2064835395833,59.0,97.0
1430,283.12835897083335,284.64051114374996,40.0,77.0
1431,284.3783584708333,284.6752333520833,64.0,75.0
1432,284.3783584708333,284.68217779375,59.0,73.0
1433,284.3783584708333,284.6856500145833,55.0,85.0
1434,283.96169197083333,284.7603027625,52.0,78.0
1435,283.5450254708333,284.77766386666667,47.0,39.0
1436,284.7950249708333,285.09016374166663,55.0,73.0
1437,284.7950249708333,285.1023165145833,59.0,77.0
1438,284.7950249708333,285.1023165145833,64.0,78.0
1439,285.21169147083333,285.4599552604167,64.0,75.0
1440,285.21169147083333,285.4686358125,55.0,78.0
1441,285.21169147083333,285.47558025416663,59.0,78.0
1442,285.6283579708333,285.89745508541665,55.0,86.0
1443,285.6283579708333,285.90092730624997,59.0,93.0
1444,285.6283579708333,285.90266341666666,64.0,89.0
1445,285.6283579708333,286.0311355875,52.0,75.0
1446,284.7950249708333,286.3141215854167,40.0,64.0
1447,286.0450244708333,286.3141215854167,55.0,82.0
1448,286.0450244708333,286.31759380625,64.0,79.0
1449,286.0450244708333,286.3245382479167,59.0,78.0
1450,285.21169147083333,286.43391320416663,47.0,45.0
1451,286.46169097083333,286.7394686375,55.0,92.0
1452,286.46169097083333,286.7394686375,64.0,89.0
1453,286.46169097083333,286.74641307916664,59.0,85.0
1454,286.8783574708333,287.13530181249996,55.0,71.0
1455,286.8783574708333,287.13877403333333,64.0,72.0
1456,286.8783574708333,287.14398236458334,59.0,79.0
1457,287.2950239708333,287.5832183,59.0,92.0
1458,287.2950239708333,287.5832183,64.0,89.0
1459,287.2950239708333,287.59016274166663,55.0,92.0
1460,286.8783574708333,287.59884329375,47.0,42.0
1461,287.2950239708333,287.7689821145833,52.0,75.0
1462,286.46169097083333,287.9564820395833,40.0,82.0
1463,287.71169047083333,288.02245423541666,55.0,72.0
1464,287.71169047083333,288.02245423541666,64.0,74.0
1465,287.71169047083333,288.0293986770833,59.0,77.0
1466,287.71169047083333,288.20300971874997,47.0,63.0
1467,288.1283569708333,288.38703742291665,59.0,86.0
1468,288.1283569708333,288.38703742291665,64.0,85.0
1469,288.1283569708333,288.39050964374997,55.0,86.0
1470,288.5450234708333,288.8332178,55.0,75.0
1471,288.5450234708333,288.83842613125,64.0,75.0
1472,288.5450234708333,288.84016224166663,59.0,79.0
1473,288.96168997083333,289.06932881666665,52.0,77.0
1474,288.5450234708333,289.08495381041666,47.0,63.0
1475,288.1283569708333,289.104051025,40.0,85.0
1476,288.96168997083333,289.38182869166667,64.0,96.0
1477,288.96168997083333,289.4078703479166,59.0,97.0
1478,289.3783564708333,289.687384125,55.0,100.0
1479,289.7950229708333,289.95821735,52.0,95.0
1480,289.7950229708333,290.12835617083334,59.0,88.0
1481,289.7950229708333,290.13356450208335,55.0,82.0
1482,290.21168947083333,290.4825226958333,59.0,67.0
1483,290.21168947083333,290.50335602083334,52.0,89.0
1484,290.21168947083333,290.50856435208334,55.0,68.0
1485,290.21168947083333,290.87314753958333,43.0,55.0
1486,290.6283559708333,290.9564808395833,52.0,95.0
1487,290.6283559708333,290.95821695,55.0,86.0
1488,290.6283559708333,291.1144668875,48.0,85.0
1489,289.7950229708333,291.29328626041666,36.0,71.0
1490,291.0450224708333,291.3366890208333,52.0,77.0
1491,291.0450224708333,291.37488344999997,55.0,77.0
1492,291.0450224708333,291.52766116666663,43.0,53.0
1493,291.45995286041665,291.77592495625,60.0,76.0
1494,291.45995286041665,291.77766106666667,52.0,89.0
1495,291.45995286041665,291.7846055083333,55.0,73.0
1496,291.8783554708333,292.1734942416667,52.0,69.0
1497,291.8783554708333,292.1839109041666,55.0,73.0
1498,291.8783554708333,292.1839109041666,60.0,72.0
1499,291.8783554708333,292.5918968520833,43.0,66.0
1500,292.2950219708333,292.60231351458333,60.0,83.0
1501,292.2950219708333,292.61099406666665,55.0,88.0
1502,292.2950219708333,292.61446628749997,52.0,88.0
1503,292.2950219708333,292.7689801145833,48.0,70.0
1504,291.45995286041665,292.88703562291664,36.0,83.0
1505,292.71168847083334,292.99120224791665,52.0,63.0
1506,292.71168847083334,293.00682724166666,60.0,75.0
1507,292.71168847083334,293.01203557291666,55.0,69.0
1508,292.71168847083334,293.19432716666665,43.0,64.0
1509,293.1283549708333,293.42175763125,52.0,90.0
1510,293.1283549708333,293.437382625,55.0,78.0
1511,293.1283549708333,293.437382625,60.0,77.0
1512,293.5450214708333,293.8332158,52.0,70.0
1513,293.5450214708333,293.8332158,60.0,66.0
1514,293.5450214708333,293.83842413125,55.0,65.0
1515,293.96168797083334,294.24814618958334,52.0,90.0
1516,293.96168797083334,294.24988229999997,60.0,90.0
1517,293.96168797083334,294.25856285208334,55.0,88.0
1518,293.96168797083334,294.40266001666663,48.0,85.0
1519,293.1283549708333,294.53113218749996,36.0,76.0
1520,294.3783544708333,294.6787015729166,52.0,69.0
1521,294.3783544708333,294.6839099041666,60.0,77.0
1522,294.3783544708333,294.687382125,55.0,78.0
1523,293.5450214708333,294.83495151041666,43.0,47.0
1524,294.7950209708333,295.10752084583333,52.0,85.0
1525,294.7950209708333,295.10752084583333,60.0,88.0
1526,294.7950209708333,295.11272917708334,55.0,89.0
1527,295.21168747083334,295.50682624166666,52.0,66.0
1528,295.21168747083334,295.5102984625,60.0,69.0
1529,295.21168747083334,295.5137706833333,55.0,69.0
1530,295.21168747083334,295.79154834999997,43.0,56.0
1531,295.6283539708333,296.00682604166667,52.0,88.0
1532,295.6283539708333,296.01550659375,55.0,93.0
1533,295.6283539708333,296.0189788145833,60.0,93.0
1534,295.6283539708333,296.07453434791665,48.0,75.0
1535,294.7950209708333,296.1335621020833,36.0,66.0
1536,296.0450204708333,296.50508973125,43.0,85.0
1537,296.46168697083334,296.78633961875,66.0,89.0
1538,296.46168697083334,296.7898118395833,57.0,93.0
1539,296.46168697083334,296.7898118395833,62.0,89.0
1540,296.8783534708333,297.1665478,57.0,66.0
1541,296.8783534708333,297.1769644625,66.0,77.0
1542,296.8783534708333,297.18911723541663,62.0,85.0
1543,296.8783534708333,297.5537004229167,45.0,66.0
1544,297.2950199708333,297.61967261875,57.0,95.0
1545,297.2950199708333,297.63703372291667,66.0,99.0
1546,297.2950199708333,297.6474503854167,62.0,97.0
1547,297.2950199708333,297.81932531666666,50.0,92.0
1548,296.46168697083334,297.92175583125,38.0,81.0
1549,297.71168647083334,298.01203357291666,66.0,77.0
1550,297.71168647083334,298.01724190416667,57.0,78.0
1551,297.71168647083334,298.02245023541667,62.0,81.0
1552,297.71168647083334,298.2307834854166,45.0,66.0
1553,298.1266168604167,298.4200195208333,57.0,86.0
1554,298.1266168604167,298.4200195208333,62.0,100.0
1555,298.1266168604167,298.4200195208333,66.0,100.0
1556,298.5450194708333,298.8366860208333,66.0,79.0
1557,298.5450194708333,298.83842213124996,57.0,76.0
1558,298.5450194708333,298.84189435208333,62.0,82.0
1559,298.5450194708333,299.1960608770833,45.0,76.0
1560,298.96168597083334,299.25161641041666,66.0,93.0
1561,298.96168597083334,299.25682474166666,62.0,90.0
1562,298.96168597083334,299.2585608520833,57.0,83.0
1563,298.96168597083334,299.4148107895833,50.0,85.0
1564,298.1266168604167,299.6075190458333,38.0,81.0
1565,299.3783524708333,299.62661626041665,57.0,82.0
1566,299.3783524708333,299.6352968125,66.0,92.0
1567,299.3783524708333,299.6439773645833,62.0,95.0
1568,299.3783524708333,299.8679356083333,45.0,58.0
1569,299.7950189708333,300.1439771645833,66.0,100.0
1570,299.7950189708333,300.1543938270833,57.0,96.0
1571,299.7950189708333,300.16133826875,62.0,99.0
1572,300.21168547083334,300.49119924791665,57.0,69.0
1573,300.21168547083334,300.49640757916666,66.0,73.0
1574,300.21168547083334,300.5102964625,62.0,69.0
1575,300.21168547083334,300.8106435645833,45.0,55.0
1576,300.6283519708333,300.9252268520833,66.0,97.0
1577,300.6283519708333,300.93390740416663,57.0,92.0
1578,300.6283519708333,300.93390740416663,62.0,90.0
1579,299.7950189708333,301.24467116874996,38.0,74.0
1580,301.0450184708333,301.35057390416665,57.0,83.0
1581,301.0450184708333,301.35057390416665,62.0,90.0
1582,301.0450184708333,301.35578223541665,66.0,90.0
1583,301.0450184708333,301.4616849708333,45.0,62.0
1584,300.6283519708333,301.4616849708333,50.0,79.0
1585,301.4616849708333,302.40612903749997,50.0,92.0
1586,301.4616849708333,302.43911513541667,54.0,93.0
1587,301.4616849708333,302.4460595770833,57.0,85.0
1588,301.4616849708333,302.48599011666664,38.0,85.0
1589,303.1283509708333,304.71515589166665,50.0,74.0
1590,303.1283509708333,304.7325169958333,43.0,64.0
1591,303.1283509708333,304.7481419895833,55.0,69.0
1592,304.79501697083333,305.85404432499996,43.0,51.0
1593,304.79501697083333,305.85925265624996,50.0,55.0
1594,304.79501697083333,305.8783498708333,55.0,53.0
1595,306.4616829708333,307.48598811666665,50.0,53.0
1596,306.4616829708333,307.51202977291666,43.0,48.0
1597,306.4616829708333,307.5311269875,55.0,58.0
1598,308.1283489708333,309.03286249791665,43.0,52.0
1599,308.1283489708333,309.23077908541666,55.0,63.0
1600,308.1283489708333,309.2481401895833,50.0,56.0
1601,309.79501497083334,311.25681994166666,43.0,47.0
1602,309.79501497083334,311.3002227020833,55.0,58.0
1603,309.79501497083334,311.41133376874996,50.0,48.0
1604,311.4616809708333,312.67001382083333,43.0,52.0
1605,311.4616809708333,312.687374925,50.0,59.0
1606,311.4616809708333,312.687374925,55.0,59.0
1607,313.1283469708333,318.8470946833333,43.0,54.0
1608,313.1283469708333,318.85056690416667,50.0,56.0
1609,313.1283469708333,318.85924745625,55.0,63.0
