,start,end,pitch,velocity
0,24.337934756250004,24.599413537500002,61.0,89.0
1,24.644056256250003,25.117269075000003,68.0,80.0
2,25.256299256250003,25.5177780375,68.0,95.0
3,25.562420756250003,25.771603781250004,66.0,87.0
4,25.868542256250002,26.115990468750002,66.0,88.0
5,26.174663756250002,26.62364195625,68.0,92.0
6,26.78690675625,27.979505100000004,70.0,88.0
7,28.929757256250003,29.154246356250002,70.0,92.0
8,29.235878756250003,29.471847412500004,73.0,90.0
9,29.542000256250002,29.761387331250003,75.0,90.0
10,29.848121756250002,30.067508831250002,75.0,87.0
11,30.154243256250002,30.383834381250004,75.0,91.0
12,30.46036475625,30.67975183125,77.0,88.0
13,30.76648625625,31.302198881250003,75.0,97.0
14,31.378729256250004,31.974390675000002,73.0,93.0
15,31.990972256250004,32.724388350000005,70.0,90.0
16,33.82770125625,34.05729238125,70.0,88.0
17,34.133822756250005,34.38382198125,70.0,88.0
18,34.43994425625,35.260094775000006,68.0,87.0
19,35.358308756250004,36.155500162500005,66.0,89.0
20,36.27667325625001,36.453968625,70.0,95.0
21,36.58279475625,36.81493689375,70.0,88.0
22,36.888916256250006,37.717995318750006,68.0,90.0
23,37.80728075625,38.8340632875,66.0,92.0
24,39.337888256250004,39.539418243750006,68.0,82.0
25,39.64400975625001,39.83916221250001,68.0,82.0
26,39.95013125625,40.149110231250006,68.0,85.0
27,40.25625275625001,40.485843881250005,68.0,87.0
28,40.56237425625,40.80472044375001,70.0,88.0
29,40.868495756250006,41.07767878125,68.0,93.0
30,41.17461725625,41.432269518750005,63.0,97.0
31,41.480738756250005,43.173335550000004,68.0,88.0
32,43.62358925625001,43.885068037500005,61.0,89.0
33,43.92971075625,44.1911895375,61.0,89.0
34,44.235832256250006,44.709045075000006,68.0,80.0
35,44.848075256250006,45.109554037500004,68.0,95.0
36,45.15419675625,45.36337978125,66.0,87.0
37,45.460318256250005,45.70776646875,68.0,88.0
38,45.76643975625,46.21541795625001,73.0,92.0
39,46.37868275625001,47.57128110000001,70.0,88.0
40,48.52153325625,48.74602235625,70.0,92.0
41,48.827654756250006,49.06362341250001,73.0,90.0
42,49.13377625625,49.35316333125,75.0,90.0
43,49.439897756250005,49.659284831250005,75.0,87.0
44,49.74601925625,49.97561038125001,75.0,91.0
45,50.052140756250004,50.271527831250005,77.0,88.0
46,50.35826225625001,50.89397488125,75.0,97.0
47,50.97050525625001,51.566166675000005,73.0,93.0
48,51.58274825625001,52.807234256250005,70.0,90.0
49,53.419477256250005,53.649068381250004,70.0,88.0
50,53.72559875625001,53.975597981250004,70.0,88.0
51,54.031720256250004,54.851870775,68.0,87.0
52,54.95008475625001,55.74727616250001,66.0,89.0
53,55.86844925625,56.045744625000005,70.0,95.0
54,56.174570756250006,56.406712893750004,70.0,88.0
55,56.48069225625,57.30977131875,68.0,90.0
56,57.399056756250005,58.425839287500004,66.0,92.0
57,58.92966425625001,59.132469750000006,61.0,88.0
58,59.23578575625,59.42966270625001,61.0,88.0
59,59.541907256250006,59.73578420625,61.0,88.0
60,59.84802875625,60.06358931250001,61.0,88.0
61,60.154150256250006,60.35823125625001,65.0,87.0
62,60.46027175625001,60.983229318750006,65.0,87.0
63,61.07251475625001,63.11842678125001,66.0,87.0
64,65.05209425625,65.23959367500001,66.0,91.0
65,65.35821575625,65.59418441250001,68.0,92.0
66,65.66433725625001,65.88882635625001,66.0,88.0
67,65.97045875625001,66.4564266375,69.0,88.0
68,66.58270175625,67.02147590625,69.0,88.0
69,67.19494475625001,67.68473915625,69.0,87.0
70,67.80718775625,68.34290038125,69.0,90.0
71,68.41943075625001,69.56993739375001,68.0,88.0
72,69.95003825625001,70.14901723125001,66.0,87.0
73,70.25615975625,70.5125365125,64.0,88.0
74,70.56228125625,70.81865801250001,61.0,87.0
75,70.86840275625,73.0584469875,66.0,86.0
76,74.84798225625,75.03548167500001,66.0,87.0
77,75.15410375625001,75.38369488125001,68.0,91.0
78,75.46022525625001,75.68088783750001,66.0,90.0
79,75.76634675625,76.23190653750001,69.0,88.0
80,76.37858975625001,76.84542504375001,69.0,88.0
81,76.99083275625,77.40919880625,69.0,90.0
82,77.60307575625,78.0329213625,69.0,95.0
83,78.21531875625001,79.39388653125,68.0,95.0
84,79.74592625625,79.93852770000001,61.0,92.0
85,80.05204775625,80.2369961625,61.0,88.0
86,80.35816925625001,80.5839338625,61.0,87.0
87,80.66429075625001,81.1502586375,73.0,92.0
88,81.27653375625,81.65663461875,71.0,88.0
89,81.88877675625001,82.3747446375,69.0,88.0
90,82.50101975625,82.76249853750001,68.0,92.0
91,82.80714125625,83.03163035625,66.0,86.0
92,83.11326275625001,85.96784574375,68.0,92.0
93,87.09284225625001,87.55074900000001,66.0,92.0
94,87.70508525625002,88.12855333125,66.0,93.0
95,88.31732825625001,89.4104371125,73.0,97.0
96,89.54181425625,89.78926246875001,73.0,102.0
97,89.84793575625001,90.361964775,75.0,87.0
98,90.46017875625,90.72165753750001,75.0,91.0
99,90.76630025625,91.37854325625001,68.0,90.0
100,91.68466475625002,91.91425588125001,68.0,87.0
101,91.99078625625,92.54563147500001,70.0,90.0
102,92.60302925625001,92.85175297500001,68.0,86.0
103,92.90915075625001,93.42190426875001,68.0,90.0
104,93.52139375625,93.73057678125001,66.0,90.0
105,93.82751525625001,94.01884119375,66.0,87.0
106,94.13363675625001,94.33389123750001,66.0,87.0
107,94.43975825625,94.68082893750001,66.0,89.0
108,94.74587975625,94.97036885625,68.0,97.0
109,95.05200125625001,95.208888525,70.0,92.0
110,95.35812275625001,95.81985601875,77.0,90.0
111,95.97036575625,96.54051705,73.0,97.0
112,96.88873025625001,97.34153497500002,66.0,90.0
113,97.50097325625,97.974186075,66.0,95.0
114,98.11321625625001,99.12341720625001,75.0,95.0
115,99.33770225625001,99.525201675,66.0,88.0
116,99.64382375625001,100.17060783750001,66.0,88.0
117,100.25606675625001,101.25989017500001,73.0,93.0
118,101.78667425625001,102.300703275,73.0,102.0
119,102.39891725625002,102.85937501250001,70.0,100.0
120,103.01116025625001,103.51626073125001,71.0,91.0
121,103.62340325625001,103.84916786250001,73.0,90.0
122,103.92952475625,104.41549263750001,75.0,88.0
123,104.54176775625001,105.16038828750001,73.0,97.0
124,105.15401075625002,106.31089492500001,68.0,89.0
125,106.68461825625,106.95119906250001,66.0,88.0
126,106.99073975625001,107.18716771875,63.0,88.0
127,107.29686125625001,107.58512566875001,63.0,93.0
128,107.60298275625001,107.89634919375001,61.0,89.0
129,107.90910425625,110.43078011250002,66.0,86.0
130,117.39887075625,117.66034953750001,61.0,89.0
131,117.70499225625001,118.17820507500001,68.0,80.0
132,118.31723525625002,118.5787140375,68.0,95.0
133,118.62335675625,118.83253978125,66.0,87.0
134,118.92947825625001,119.17692646875001,66.0,88.0
135,119.23559975625001,119.68457795625001,68.0,92.0
136,119.84784275625002,121.04044110000001,70.0,88.0
137,121.99069325625001,122.21518235625001,70.0,92.0
138,122.29681475625001,122.53278341250001,73.0,90.0
139,122.60293625625002,122.82232333125002,75.0,90.0
140,122.90905775625001,123.12844483125001,75.0,87.0
141,123.21517925625001,123.44477038125001,75.0,91.0
142,123.52130075625001,123.74068783125001,77.0,88.0
143,123.82742225625002,124.36313488125,75.0,97.0
144,124.43966525625001,125.03532667500001,73.0,93.0
145,125.05190825625002,125.78532435000001,70.0,90.0
146,126.88863725625001,127.11822838125,70.0,88.0
147,127.19475875625001,127.44475798125,70.0,88.0
148,127.50088025625001,128.32103077500003,68.0,87.0
149,128.41924475625,129.2164361625,66.0,89.0
150,129.33760925625,129.514904625,70.0,95.0
151,129.64373075625002,129.87587289375,70.0,88.0
152,129.94985225625,130.77893131875,68.0,90.0
153,130.86821675625,131.8949992875,66.0,92.0
154,132.39882425625,132.60035424375002,68.0,82.0
155,132.70494575625003,132.9000982125,68.0,82.0
156,133.01106725625002,133.21004623125,68.0,85.0
157,133.31718875625,133.54677988125002,68.0,87.0
158,133.62331025625002,133.86565644375003,70.0,88.0
159,133.92943175625,134.13861478125003,68.0,93.0
160,134.23555325625,134.49320551875002,63.0,97.0
161,134.54167475625002,136.23427155000002,68.0,88.0
162,136.68452525625003,136.94600403750002,61.0,89.0
163,136.99064675625002,137.2521255375,61.0,89.0
164,137.29676825625,137.769981075,68.0,80.0
165,137.90901125625,138.1704900375,68.0,95.0
166,138.21513275625,138.42431578125002,66.0,87.0
167,138.52125425625002,138.76870246875,68.0,88.0
168,138.82737575625,139.27635395625,73.0,92.0
169,139.43961875625,140.63221710000002,70.0,88.0
170,141.58246925625002,141.80695835625002,70.0,92.0
171,141.88859075625,142.12455941250002,73.0,90.0
172,142.19471225625,142.41409933125001,75.0,90.0
173,142.50083375625002,142.72022083125,75.0,87.0
174,142.80695525625,143.03654638125002,75.0,91.0
175,143.11307675625002,143.33246383125,77.0,88.0
176,143.41919825625,143.95491088125002,75.0,97.0
177,144.03144125625002,144.627102675,73.0,93.0
178,144.64368425625003,145.86817025625,70.0,90.0
179,146.48041325625002,146.71000438125,70.0,88.0
180,146.78653475625,147.03653398125002,70.0,88.0
181,147.09265625625002,147.912806775,68.0,87.0
182,148.01102075625002,148.8082121625,66.0,89.0
183,148.92938525625001,149.10668062500002,70.0,95.0
184,149.23550675625,149.46764889375,70.0,88.0
185,149.54162825625002,150.37070731875002,68.0,90.0
186,150.45999275625002,151.48677528750002,66.0,92.0
187,151.99060025625002,152.19340575,61.0,88.0
188,152.29672175625,152.49059870625,61.0,88.0
189,152.60284325625003,152.79672020625,61.0,88.0
190,152.90896475625001,153.12452531250003,61.0,88.0
191,153.21508625625,153.41916725625,65.0,87.0
192,153.52120775625002,154.04416531875,65.0,87.0
193,154.13345075625003,156.17936278125,66.0,87.0
194,158.11303025625003,158.300529675,66.0,91.0
195,158.41915175625002,158.65512041250003,68.0,92.0
196,158.72527325625,158.94976235625,66.0,88.0
197,159.03139475625002,159.5173626375,69.0,88.0
198,159.64363775625,160.08241190625,69.0,88.0
199,160.25588075625,160.74567515625,69.0,87.0
200,160.86812375625001,161.40383638125002,69.0,90.0
201,161.48036675625002,162.63087339375002,68.0,88.0
202,163.01097425625002,163.20995323125,66.0,87.0
203,163.31709575625,163.57347251250002,64.0,88.0
204,163.62321725625003,163.8795940125,61.0,87.0
205,163.92933875625002,166.11938298750002,66.0,86.0
206,167.90891825625002,168.09641767500003,66.0,87.0
207,168.21503975625,168.44463088125002,68.0,91.0
208,168.52116125625002,168.74182383750002,66.0,90.0
209,168.82728275625,169.2928425375,69.0,88.0
210,169.43952575625002,169.90636104375002,69.0,88.0
211,170.05176875625003,170.47013480625003,69.0,90.0
212,170.66401175625,171.09385736250002,69.0,95.0
213,171.27625475625,172.45482253125002,68.0,95.0
214,172.80686225625,172.9994637,61.0,92.0
215,173.11298375625,173.29793216250002,61.0,88.0
216,173.41910525625002,173.64486986250003,61.0,87.0
217,173.72522675625,174.21119463750003,73.0,92.0
218,174.33746975625002,174.71757061875002,71.0,88.0
219,174.94971275625002,175.4356806375,69.0,88.0
220,175.56195575625003,175.82343453750002,68.0,92.0
221,175.86807725625002,176.09256635625002,66.0,86.0
222,176.17419875625,179.02878174375002,68.0,92.0
223,180.15377825625,180.61168500000002,66.0,92.0
224,180.76602125625,181.18948933125003,66.0,93.0
225,181.37826425625002,182.4713731125,73.0,97.0
226,182.60275025625,182.85019846875002,73.0,102.0
227,182.90887175625002,183.42290077500002,75.0,87.0
228,183.52111475625003,183.78259353750002,75.0,91.0
229,183.82723625625002,184.43947925625002,68.0,90.0
230,184.74560075625,184.97519188125003,68.0,87.0
231,185.05172225625003,185.60656747500002,70.0,90.0
232,185.66396525625,185.912688975,68.0,86.0
233,185.97008675625003,186.48284026875,68.0,90.0
234,186.58232975625,186.79151278125002,66.0,90.0
235,186.88845125625002,187.07977719375,66.0,87.0
236,187.19457275625,187.3948272375,66.0,87.0
237,187.50069425625003,187.74176493750002,66.0,89.0
238,187.80681575625002,188.03130485625002,68.0,97.0
239,188.11293725625,188.26982452500002,70.0,92.0
240,188.41905875625002,188.88079201875001,77.0,90.0
241,189.03130175625003,189.60145305000003,73.0,97.0
242,189.94966625625003,190.40247097500003,66.0,90.0
243,190.56190925625,191.03512207500003,66.0,95.0
244,191.17415225625,192.18435320625002,75.0,95.0
245,192.39863825625002,192.58613767500003,66.0,88.0
246,192.70475975625,193.23154383750003,66.0,88.0
247,193.31700275625002,194.320826175,73.0,93.0
248,194.84761025625002,195.36163927500002,73.0,102.0
249,195.45985325625003,195.9203110125,70.0,100.0
250,196.07209625625,196.57719673125,71.0,91.0
251,196.68433925625,196.91010386250002,73.0,90.0
252,196.99046075625003,197.47642863750002,75.0,88.0
253,197.60270375625,198.2213242875,73.0,97.0
254,198.21494675625001,199.371830925,68.0,89.0
255,199.74555425625002,200.20346100000003,66.0,92.0
256,200.35779725625002,200.78126533125,66.0,93.0
257,200.97004025625003,202.0631491125,73.0,97.0
258,202.19452625625001,202.44197446875003,73.0,102.0
259,202.50064775625003,203.01467677500003,75.0,87.0
260,203.11289075625,203.37436953750003,75.0,91.0
261,203.41901225625003,204.03125525625,68.0,90.0
262,204.33737675625002,204.56696788125,68.0,87.0
263,204.64349825625,205.19834347500003,70.0,90.0
264,205.25574125625002,205.50446497500002,68.0,86.0
265,205.56186275625,206.07461626875002,68.0,90.0
266,206.17410575625001,206.38328878125003,66.0,90.0
267,206.48022725625003,206.67155319375001,66.0,87.0
268,206.78634875625002,206.98660323750002,66.0,87.0
269,207.09247025625,207.33354093750003,66.0,89.0
270,207.39859175625003,207.62308085625003,68.0,97.0
271,207.70471325625002,207.86160052500003,70.0,92.0
272,208.01083475625,208.47256801875002,77.0,90.0
273,208.62307775625,209.19322905,73.0,97.0
274,209.54144225625,209.994246975,66.0,90.0
275,210.15368525625001,210.626898075,66.0,95.0
276,210.76592825625002,211.77612920625003,75.0,95.0
277,211.99041425625003,212.177913675,66.0,88.0
278,212.29653575625002,212.8233198375,66.0,88.0
279,212.90877875625003,213.91260217500002,73.0,93.0
280,214.43938625625003,214.95341527500003,73.0,102.0
281,215.05162925625,215.51208701250002,70.0,100.0
282,215.66387225625002,216.16897273125002,71.0,91.0
283,216.27611525625002,216.50187986250003,73.0,90.0
284,216.58223675625,217.06820463750003,75.0,88.0
285,217.19447975625002,217.81310028750002,73.0,97.0
286,217.80672275625002,218.96360692500002,68.0,89.0
287,219.33733025625003,219.60391106250003,66.0,88.0
288,219.64345175625002,219.83987971875,63.0,88.0
289,219.94957325625003,220.23783766875002,63.0,93.0
290,220.25569475625002,220.54906119375002,61.0,89.0
291,220.56181625625,223.0834921125,66.0,86.0
292,223.62303125625002,223.81690820625002,66.0,88.0
293,223.92915275625003,224.1753254625,66.0,90.0
294,224.23527425625002,224.72506865625002,70.0,87.0
295,224.84751725625003,225.31690355625003,68.0,90.0
296,225.45976025625,228.21357825,66.0,87.0
297,228.52097525625,228.68806657500002,66.0,82.0
298,228.82709675625003,229.05796338750002,66.0,88.0
299,229.13321825625002,230.44806841041668,70.0,90.0
300,230.35915098541668,231.61064270208334,68.0,93.0
301,231.62671982708335,234.23594499375,66.0,88.0
