,start,end,pitch,velocity
0,2.60330825625,3.0382558875,54.0,78.0
1,2.60330825625,3.2372348625000003,61.0,79.0
2,3.2155512562500004,3.3571324500000004,54.0,77.0
3,3.5216727562500005,4.0637629125000005,54.0,81.0
4,3.5216727562500005,4.1198851875,61.0,82.0
5,2.90942975625,4.21044613125,49.0,78.0
6,2.60330825625,4.926005137500001,42.0,86.0
7,4.44003725625,4.95789279375,49.0,64.0
8,4.746158756250001,5.4247280812500005,54.0,89.0
9,5.05228025625,5.433656625,58.0,86.0
10,5.664523256250001,6.113501456250001,54.0,78.0
11,5.9706447562500005,6.31630695,61.0,80.0
12,5.9706447562500005,6.3367150500000005,58.0,82.0
13,5.35840175625,6.733397493750001,49.0,69.0
14,6.582887756250001,6.900488812500001,61.0,77.0
15,6.582887756250001,6.908141850000001,66.0,79.0
16,6.582887756250001,6.925998937500001,58.0,79.0
17,7.195130756250001,7.40176276875,61.0,60.0
18,7.195130756250001,7.4362014375,58.0,69.0
19,5.05228025625,7.512731812500001,42.0,87.0
20,7.501252256250001,7.512731812500001,42.0,88.0
21,6.8890092562500005,7.522935862500001,49.0,75.0
22,7.195130756250001,7.550997000000001,54.0,85.0
23,8.113495256250001,8.514004218750001,54.0,97.0
24,8.41961675625,8.75379939375,58.0,89.0
25,8.41961675625,8.88135001875,61.0,90.0
26,7.8073737562500005,9.11349215625,49.0,81.0
27,9.03185975625,9.744867750000001,54.0,86.0
28,9.337981256250002,9.78951046875,49.0,75.0
29,9.644102756250001,10.43874315,61.0,82.0
30,9.644102756250001,10.49614093125,58.0,81.0
31,10.86858875625,11.124965512500001,66.0,87.0
32,10.56246725625,11.20022038125,54.0,88.0
33,11.480831756250002,11.52930099375,54.0,71.0
34,10.256345756250001,11.575219218750002,49.0,76.0
35,11.480831756250002,12.050983050000001,58.0,81.0
36,11.480831756250002,12.1657786125,61.0,82.0
37,9.950224256250001,12.202768293750001,42.0,88.0
38,11.786953256250001,12.230829431250001,49.0,79.0
39,12.093074756250001,12.307359806250002,54.0,86.0
40,12.39919625625,12.74358294375,54.0,86.0
41,12.39919625625,13.073939062500001,59.0,84.0
42,13.011439256250002,13.198938675,54.0,81.0
43,13.317560756250002,13.673427000000002,54.0,88.0
44,13.317560756250002,13.688733075000002,61.0,87.0
45,13.929803756250001,14.216792662500001,54.0,86.0
46,13.929803756250001,14.3468943,59.0,83.0
47,12.39919625625,14.644087256250002,47.0,88.0
48,12.70531775625,14.660668837500001,51.0,74.0
49,14.542046756250002,14.767811362500002,54.0,82.0
50,14.848168256250002,15.040769700000002,54.0,87.0
51,14.848168256250002,15.232095637500002,59.0,86.0
52,15.154289756250002,15.599441437500001,54.0,79.0
53,15.460411256250001,15.601992450000001,59.0,79.0
54,15.766532756250001,16.476989737500002,59.0,82.0
55,15.766532756250001,16.4871937875,54.0,85.0
56,16.68489725625,17.0331104625,59.0,87.0
57,16.68489725625,17.048416537500003,62.0,83.0
58,16.99101875625,17.14663051875,54.0,79.0
59,14.848168256250002,17.1810691875,47.0,88.0
60,17.297140256250003,17.48336416875,54.0,85.0
61,17.297140256250003,17.661935043750002,59.0,86.0
62,17.603261756250003,17.991015656250003,54.0,75.0
63,17.909383256250003,18.03438286875,59.0,77.0
64,18.215504756250002,18.75121738125,62.0,82.0
65,18.215504756250002,18.766523456250003,54.0,81.0
66,18.82774775625,19.214226150000002,59.0,87.0
67,17.297140256250003,19.24866481875,47.0,87.0
68,19.74611225625,19.979529900000003,56.0,77.0
69,20.35835525625,20.567538281250002,49.0,87.0
70,19.74611225625,21.118556981250002,61.0,85.0
71,20.664476756250004,21.12365900625,56.0,85.0
72,20.664476756250004,21.1504446375,49.0,86.0
73,21.276719756250003,21.331566525000003,49.0,71.0
74,21.276719756250003,21.826462950000003,53.0,87.0
75,20.05223375625,21.942534018750003,44.0,77.0
76,19.74611225625,21.98590123125,37.0,88.0
77,21.276719756250003,22.330287918750003,56.0,86.0
78,21.888962756250002,22.489726200000003,61.0,86.0
79,22.80732725625,22.92467383125,56.0,77.0
80,23.11344875625,23.22824431875,61.0,88.0
81,23.41957025625,23.607069675,65.0,86.0
82,23.72569175625,23.904262631250003,68.0,77.0
83,22.501205756250002,24.07773148125,44.0,74.0
84,22.195084256250002,24.1045171125,37.0,93.0
85,24.031813256250004,24.13640476875,73.0,90.0
86,24.950177756250003,25.26650330625,58.0,85.0
87,24.950177756250003,25.275431850000004,54.0,85.0
88,24.950177756250003,25.29583995,61.0,86.0
89,25.562420756250003,26.226959512500002,54.0,81.0
90,25.562420756250003,26.2371635625,58.0,86.0
91,25.562420756250003,26.244816600000004,61.0,83.0
92,26.48078525625,26.586652275000002,54.0,80.0
93,24.644056256250003,26.8698146625,42.0,86.0
94,26.174663756250002,26.876192193750004,49.0,78.0
95,26.48078525625,27.274150143750003,61.0,86.0
96,26.78690675625,27.275425650000003,54.0,70.0
97,26.48078525625,27.302211281250003,58.0,85.0
98,27.39914975625,27.549659493750003,61.0,80.0
99,27.39914975625,27.582822656250002,54.0,79.0
100,27.39914975625,27.58537366875,58.0,80.0
101,28.011392756250004,28.534350318750004,54.0,79.0
102,28.011392756250004,28.536901331250004,58.0,78.0
103,28.011392756250004,28.539452343750003,61.0,82.0
104,28.623635756250003,29.256286856250004,49.0,73.0
105,28.929757256250003,29.285623500000003,58.0,86.0
106,27.09302825625,29.335368243750004,42.0,87.0
107,29.235878756250003,29.442510768750005,54.0,88.0
108,28.929757256250003,29.442510768750005,61.0,85.0
109,29.848121756250002,30.200161481250003,59.0,83.0
110,29.848121756250002,30.235875656250002,54.0,85.0
111,30.46036475625,30.799649418750004,54.0,81.0
112,30.46036475625,30.832812581250003,59.0,82.0
113,29.542000256250002,31.017760987500004,47.0,86.0
114,30.46036475625,31.136383068750003,63.0,86.0
115,31.072607756250004,31.23587255625,54.0,80.0
116,31.378729256250004,31.447606593750002,63.0,77.0
117,31.684850756250004,31.943778525000003,47.0,86.0
118,31.378729256250004,32.02413541875001,59.0,86.0
119,31.378729256250004,32.07515566875,54.0,86.0
120,32.29709375625,32.649133481250004,54.0,88.0
121,32.60321525625,33.3595904625,49.0,85.0
122,32.909336756250006,33.360865968750005,61.0,86.0
123,32.909336756250006,33.38637609375,58.0,80.0
124,32.909336756250006,33.411886218750006,54.0,83.0
125,33.82770125625,34.0228537125,54.0,87.0
126,33.521579756250006,34.07132295,49.0,77.0
127,31.990972256250004,34.15933288125,42.0,87.0
128,33.82770125625,34.345556793750006,58.0,86.0
129,34.133822756250005,34.44504628125,54.0,81.0
130,34.746065756250005,34.97948340000001,54.0,83.0
131,34.746065756250005,35.024126118750004,63.0,86.0
132,34.746065756250005,35.03688118125,59.0,82.0
133,35.05218725625,35.121064593750006,54.0,66.0
134,34.43994425625,35.81493999375,47.0,86.0
135,35.358308756250004,35.99095985625,59.0,87.0
136,35.358308756250004,36.0075414375,54.0,87.0
137,35.97055175625,36.33279553125001,47.0,74.0
138,36.27667325625001,36.3952953375,54.0,89.0
139,36.27667325625001,36.711620887500004,63.0,92.0
140,36.27667325625001,36.831518475,59.0,91.0
141,36.58279475625,36.90804885,54.0,69.0
142,37.19503775625,37.530495900000005,59.0,82.0
143,37.19503775625,37.570036593750004,62.0,80.0
144,37.501159256250006,37.706515762500004,54.0,82.0
145,37.80728075625,38.308554712500005,54.0,87.0
146,38.41952375625,38.47564603125,54.0,63.0
147,37.80728075625,38.503707168750005,59.0,87.0
148,38.725645256250004,38.86084891875,54.0,86.0
149,36.888916256250006,39.030491250000004,47.0,95.0
150,38.725645256250004,39.100644093750006,59.0,89.0
151,39.03176675625,39.12360320625,54.0,67.0
152,38.725645256250004,39.137633775000005,62.0,87.0
153,39.337888256250004,39.73584620625,59.0,85.0
154,39.337888256250004,39.74349924375,56.0,81.0
155,39.95013125625,40.12360010625,56.0,81.0
156,39.64400975625001,40.715435006250004,51.0,79.0
157,40.25625275625001,40.974362775,63.0,87.0
158,40.25625275625001,41.01390346875,59.0,87.0
159,40.25625275625001,41.022832012500004,56.0,86.0
160,41.17461725625,41.378698256250004,56.0,87.0
161,39.337888256250004,41.423340975,44.0,86.0
162,40.868495756250006,41.437371543750004,51.0,73.0
163,41.17461725625,41.7473195625,59.0,89.0
164,41.480738756250005,41.93736999375,56.0,85.0
165,41.78686025625,42.249869025,49.0,86.0
166,42.092981756250005,42.249869025,56.0,88.0
167,42.092981756250005,42.249869025,61.0,87.0
168,42.39910325625,43.119764287500004,49.0,79.0
169,42.705224756250004,43.373590031250004,61.0,88.0
170,42.705224756250004,43.4105797125,56.0,86.0
171,43.317467756250004,43.670782987500004,49.0,81.0
172,43.62358925625001,43.7881295625,56.0,86.0
173,43.62358925625001,44.09807758125,61.0,87.0
174,43.92971075625,44.112108150000005,56.0,79.0
175,43.62358925625001,44.15164884375,65.0,85.0
176,44.54195375625,44.858279306250004,58.0,85.0
177,44.54195375625,44.86720785000001,54.0,85.0
178,44.54195375625,44.887615950000004,61.0,86.0
179,45.15419675625,45.818735512500005,54.0,81.0
180,45.15419675625,45.828939562500004,58.0,86.0
181,45.15419675625,45.8365926,61.0,83.0
182,46.072561256250005,46.178428275,54.0,80.0
183,44.235832256250006,46.46159066250001,42.0,86.0
184,45.76643975625,46.46796819375,49.0,78.0
185,46.072561256250005,46.86592614375,61.0,86.0
186,46.37868275625001,46.867201650000005,54.0,70.0
187,46.072561256250005,46.893987281250006,58.0,85.0
188,46.99092575625001,47.14143549375,61.0,80.0
189,46.99092575625001,47.174598656250005,54.0,79.0
190,46.99092575625001,47.177149668750005,58.0,80.0
191,47.60316875625001,48.12612631875,54.0,79.0
192,47.60316875625001,48.12867733125,58.0,78.0
193,47.60316875625001,48.13122834375,61.0,82.0
194,48.215411756250006,48.84806285625,49.0,73.0
195,48.52153325625,48.8773995,58.0,86.0
196,46.684804256250004,48.92714424375001,42.0,87.0
197,48.827654756250006,49.03428676875001,54.0,88.0
198,48.52153325625,49.03428676875001,61.0,85.0
199,49.439897756250005,49.79193748125,59.0,83.0
200,49.439897756250005,49.827651656250005,54.0,85.0
201,50.052140756250004,50.39142541875,54.0,81.0
202,50.052140756250004,50.424588581250006,59.0,82.0
203,49.13377625625,50.60953698750001,47.0,86.0
204,50.052140756250004,50.72815906875,63.0,86.0
205,50.664383756250004,50.827648556250004,54.0,80.0
206,50.97050525625001,51.039382593750005,63.0,77.0
207,51.27662675625,51.535554525,47.0,86.0
208,50.97050525625001,51.61591141875,59.0,86.0
209,50.97050525625001,51.66693166875,54.0,86.0
210,51.88886975625,52.24090948125001,54.0,88.0
211,52.194991256250006,52.951366462500005,49.0,85.0
212,52.50111275625,52.95264196875001,61.0,86.0
213,52.50111275625,52.978152093750005,58.0,80.0
214,52.50111275625,53.00366221875,54.0,83.0
215,53.419477256250005,53.614629712500005,54.0,87.0
216,53.11335575625,53.663098950000006,49.0,77.0
217,51.58274825625001,53.751108881250005,42.0,87.0
218,53.419477256250005,53.93733279375,58.0,86.0
219,53.72559875625001,54.036822281250004,54.0,81.0
220,54.33784175625001,54.5712594,54.0,83.0
221,54.33784175625001,54.61590211875001,63.0,86.0
222,54.33784175625001,54.628657181250006,59.0,82.0
223,54.643963256250004,54.71284059375,54.0,66.0
224,54.031720256250004,55.406715993750005,47.0,86.0
225,54.95008475625001,55.582735856250004,59.0,87.0
226,54.95008475625001,55.599317437500005,54.0,87.0
227,55.562327756250006,55.92457153125,47.0,74.0
228,55.86844925625,55.987071337500005,54.0,89.0
229,55.86844925625,56.30339688750001,63.0,92.0
230,55.86844925625,56.423294475000006,59.0,91.0
231,56.174570756250006,56.49982485,54.0,69.0
232,56.786813756250005,57.12227190000001,59.0,82.0
233,56.786813756250005,57.16181259375001,62.0,80.0
234,57.09293525625001,57.29829176250001,54.0,82.0
235,57.399056756250005,57.90033071250001,54.0,87.0
236,58.011299756250004,58.067422031250004,54.0,63.0
237,57.399056756250005,58.09548316875001,59.0,87.0
238,58.31742125625001,58.452624918750004,54.0,86.0
239,56.48069225625,58.62226725000001,47.0,95.0
240,58.31742125625001,58.69242009375001,59.0,89.0
241,58.62354275625,58.715379206250006,54.0,67.0
242,58.31742125625001,58.72940977500001,62.0,87.0
243,58.92966425625001,59.41690764375001,61.0,85.0
244,58.92966425625001,59.42200966875001,56.0,78.0
245,58.92966425625001,59.932212168750006,49.0,87.0
246,59.84802875625,60.210272531250006,65.0,81.0
247,59.84802875625,60.215374556250005,61.0,87.0
248,59.84802875625,60.249813225000004,56.0,82.0
249,60.46027175625001,60.785525850000006,56.0,87.0
250,60.46027175625001,60.922005018750006,61.0,87.0
251,60.46027175625001,61.258738668750006,65.0,85.0
252,61.07251475625001,61.34037106875,61.0,57.0
253,61.07251475625001,61.392666825000006,56.0,83.0
254,61.68475775625001,62.01383836875001,58.0,86.0
255,61.68475775625001,62.020215900000004,61.0,88.0
256,61.68475775625001,62.04955254375,54.0,86.0
257,61.990879256250004,62.74470345,49.0,80.0
258,62.29700075625001,62.895213187500005,58.0,80.0
259,62.29700075625001,62.902866225000004,54.0,82.0
260,62.29700075625001,62.932202868750004,61.0,86.0
261,63.21536525625,63.27914056875001,54.0,80.0
262,62.90924375625001,63.52786428750001,49.0,73.0
263,61.378636256250005,63.63500681250001,42.0,86.0
264,63.21536525625,63.948781350000004,58.0,89.0
265,63.21536525625,63.9564343875,61.0,87.0
266,63.521486756250006,63.970464956250005,54.0,84.0
267,64.13372975625,64.34163727500001,58.0,86.0
268,64.13372975625,64.35311683125,54.0,86.0
269,64.13372975625,64.36714740000001,61.0,87.0
270,64.43985125625001,65.07887988750001,49.0,77.0
271,64.74597275625001,65.168165325,54.0,90.0
272,64.74597275625001,65.19622646250001,58.0,88.0
273,64.74597275625001,65.24469570000001,61.0,88.0
274,65.35821575625,65.79443889375001,49.0,78.0
275,65.66433725625001,66.01127495625,61.0,84.0
276,65.66433725625001,66.03933609375001,54.0,87.0
277,63.82760825625001,66.28168228125,42.0,86.0
278,65.97045875625001,66.30209038125001,49.0,81.0
279,66.27658025625,66.62351795625001,59.0,86.0
280,66.27658025625,66.95132306250001,66.0,84.0
281,66.88882325625,67.055914575,59.0,89.0
282,66.58270175625,67.3671381,42.0,74.0
283,67.19494475625001,67.55208650625,62.0,87.0
284,67.19494475625001,67.59290270625,59.0,88.0
285,67.50106625625001,67.923258825,42.0,75.0
286,67.80718775625,68.14647241875001,59.0,87.0
287,67.80718775625,68.20259469375,62.0,87.0
288,67.80718775625,68.25744146250001,66.0,86.0
289,68.11330925625,68.27529855,42.0,70.0
290,66.27658025625,68.29953316875,35.0,86.0
291,68.41943075625001,68.47937955,59.0,77.0
292,68.72555225625001,69.01764318750001,65.0,79.0
293,68.72555225625001,69.03805128750001,61.0,85.0
294,69.33779525625,69.44748879375001,61.0,75.0
295,69.03167375625,70.33524114375001,44.0,75.0
296,68.72555225625001,70.38498588750001,37.0,87.0
297,70.86840275625,70.99595338125,37.0,88.0
298,71.17452425625001,71.55717613125,61.0,81.0
299,71.17452425625001,71.6400840375,66.0,82.0
300,71.78676725625,71.91431788125001,61.0,86.0
301,72.09288875625,72.5074282875,61.0,89.0
302,72.09288875625,72.56482606875001,70.0,85.0
303,72.70513175625001,72.96405952500001,61.0,88.0
304,72.70513175625001,73.07630407500001,66.0,86.0
305,71.48064575625001,73.3798745625,49.0,73.0
306,73.31737475625,73.46660898750001,61.0,82.0
307,71.17452425625001,73.55844543750001,42.0,87.0
308,73.62349625625001,73.99339306875001,61.0,83.0
309,73.62349625625001,74.28420849375,68.0,80.0
310,74.23573925625001,74.39262652500001,61.0,88.0
311,73.92961775625001,74.66303385,49.0,78.0
312,74.54186075625,74.93981870625001,66.0,86.0
313,74.54186075625,74.94364522500001,70.0,87.0
314,74.54186075625,74.9615023125,61.0,87.0
315,74.84798225625,75.32374608750001,49.0,79.0
316,75.15410375625001,75.33012361875001,66.0,86.0
317,73.62349625625001,75.36328678125001,42.0,87.0
318,75.15410375625001,75.4155825375,61.0,90.0
319,75.46022525625001,75.58777588125001,42.0,82.0
320,76.07246825625,76.16685571875001,35.0,86.0
321,76.07246825625,76.6298644875,59.0,85.0
322,76.07246825625,76.6298644875,62.0,85.0
323,76.07246825625,76.64006853750001,66.0,86.0
324,76.68471125625001,77.19236274375001,54.0,82.0
325,76.99083275625,77.34797450625001,66.0,87.0
326,76.99083275625,77.39899475625,59.0,87.0
327,77.29695425625,77.71404480000001,54.0,76.0
328,76.37858975625001,77.770167075,47.0,83.0
329,77.60307575625,77.79950371875,59.0,83.0
330,77.60307575625,77.81098327500001,62.0,87.0
331,77.60307575625,77.90537073750001,66.0,86.0
332,78.21531875625001,78.3058797,47.0,87.0
333,78.52144025625,78.63623581875001,37.0,87.0
334,78.52144025625,79.14898933125001,61.0,85.0
335,78.52144025625,79.17194844375001,65.0,82.0
336,79.13368325625001,79.64261025,56.0,79.0
337,79.43980475625001,79.88368093125001,68.0,85.0
338,79.43980475625001,79.88623194375,61.0,83.0
339,79.43980475625001,79.89260947500001,65.0,86.0
340,80.05204775625,80.39770995,65.0,88.0
341,80.05204775625,80.41939355625001,61.0,87.0
342,80.05204775625,80.433424125,68.0,87.0
343,78.82756175625,80.45255671875,49.0,74.0
344,80.35816925625001,80.48061785625,56.0,71.0
345,80.97041225625001,81.34030906875,59.0,85.0
346,80.97041225625001,81.64387955625001,66.0,81.0
347,81.58265525625,81.72423645,59.0,86.0
348,81.88877675625001,82.2369899625,59.0,87.0
349,81.88877675625001,82.2369899625,66.0,86.0
350,81.27653375625,82.58520316875001,54.0,77.0
351,82.50101975625,82.73316189375001,59.0,88.0
352,82.50101975625,82.76249853750001,63.0,91.0
353,80.97041225625001,82.84795745625001,47.0,87.0
354,82.80714125625,82.9385184,54.0,86.0
355,83.11326275625001,83.20254819375,47.0,86.0
356,83.41938425625001,83.525251275,37.0,87.0
357,83.41938425625001,84.05968839375001,61.0,86.0
358,83.41938425625001,84.11070864375,65.0,80.0
359,84.03162725625,84.48825849375001,56.0,87.0
360,84.33774875625001,84.51759513750001,68.0,85.0
361,84.33774875625001,84.63111519375,65.0,84.0
362,84.33774875625001,84.65407430625001,61.0,88.0
363,84.94999175625001,85.06988934375,61.0,89.0
364,84.94999175625001,85.08774643125001,73.0,89.0
365,84.64387025625001,85.63748962500001,56.0,76.0
366,83.72550575625,85.65407120625001,49.0,81.0
367,85.86835625625001,86.23825306875001,61.0,81.0
368,85.86835625625001,86.27651825625001,65.0,74.0
369,85.86835625625001,86.29309983750001,68.0,80.0
370,86.48059925625,86.63493551250001,61.0,86.0
371,86.17447775625001,86.87217967500001,56.0,72.0
372,86.78672075625,87.18467870625001,61.0,92.0
373,86.78672075625,87.23314794375001,65.0,89.0
374,86.78672075625,87.35942306250001,68.0,90.0
375,87.09284225625001,87.40661679375,56.0,82.0
376,85.86835625625001,87.46018805625,49.0,90.0
377,87.39896375625001,87.51375931875,61.0,93.0
378,87.70508525625002,87.83518689375,61.0,93.0
379,87.70508525625002,87.97804359375,65.0,90.0
380,88.01120675625,88.21401225000001,61.0,86.0
381,88.31732825625001,88.72038823125001,61.0,86.0
382,88.31732825625001,88.8160512,66.0,86.0
383,88.92957125625001,89.05074435,61.0,86.0
384,88.62344975625001,89.36324338125002,49.0,82.0
385,89.23569275625,89.66171184375001,61.0,91.0
386,89.23569275625,89.69232399375001,70.0,90.0
387,89.54181425625,89.9818639125,49.0,75.0
388,88.31732825625001,90.1221696,42.0,87.0
389,89.84793575625001,90.24334269375001,61.0,93.0
390,89.84793575625001,90.31094452500001,66.0,88.0
391,90.46017875625,90.63364760625001,61.0,90.0
392,90.76630025625,91.09027884375001,61.0,86.0
393,90.76630025625,91.11451346250001,68.0,90.0
394,91.37854325625001,91.53670603125,61.0,92.0
395,91.07242175625001,91.8492050625,56.0,86.0
396,90.76630025625,91.99843929375001,49.0,91.0
397,91.68466475625002,92.37216262500002,61.0,90.0
398,91.68466475625002,92.39257072500001,65.0,86.0
399,92.29690775625001,92.39767275000001,56.0,77.0
400,92.60302925625001,92.95251796875002,61.0,95.0
401,92.60302925625001,92.97547708125,65.0,93.0
402,92.29690775625001,92.98823214375001,49.0,86.0
403,92.90915075625001,93.01884429375,56.0,77.0
404,93.21527225625,93.4486899,63.0,89.0
405,93.21527225625,93.58516906875,66.0,87.0
406,93.82751525625001,93.9461373375,63.0,93.0
407,93.52139375625,94.27521795000001,46.0,74.0
408,94.13363675625001,94.30072807500001,63.0,103.0
409,94.13363675625001,94.43848275,70.0,93.0
410,94.43975825625,94.94358322500001,46.0,75.0
411,94.74587975625,95.0430727125,63.0,92.0
412,94.74587975625,95.14893973125001,66.0,88.0
413,93.21527225625,95.1757253625,39.0,87.0
414,95.05200125625001,95.26883731875,46.0,77.0
415,95.35812275625001,95.46398977500002,63.0,88.0
416,95.66424425625002,96.29179333125,65.0,74.0
417,96.27648725625001,96.46143566250001,58.0,93.0
418,95.97036575625,96.74459805000001,53.0,93.0
419,96.58260875625001,97.31602485,58.0,87.0
420,96.58260875625001,97.33770845625001,61.0,89.0
421,96.58260875625001,97.45633053750001,65.0,86.0
422,97.19485175625,97.50607528125,53.0,86.0
423,95.66424425625002,97.59153420000001,46.0,87.0
424,97.50097325625,97.87087006875001,58.0,100.0
425,97.80709475625001,98.0532674625,61.0,90.0
426,98.11321625625001,98.23056283125001,35.0,86.0
427,98.11321625625001,98.66295945,63.0,89.0
428,98.11321625625001,98.69739811875002,59.0,85.0
429,99.03158075625001,99.20632511250001,66.0,85.0
430,99.03158075625001,99.27520245000001,59.0,88.0
431,98.72545925625,99.72418065000001,54.0,80.0
432,98.41933775625002,99.80963956875001,47.0,81.0
433,99.64382375625001,100.00224101250001,59.0,87.0
434,99.64382375625001,100.08897543750001,63.0,92.0
435,100.25606675625001,100.41805605,59.0,93.0
436,99.94994525625,100.50606598125,54.0,86.0
437,100.56218825625001,100.67825932500001,58.0,89.0
438,100.56218825625001,101.23565555625001,61.0,89.0
439,101.17443125625,101.35300213125001,58.0,80.0
440,100.86830975625001,101.65402160625001,53.0,86.0
441,101.48055275625,102.19483625625001,58.0,90.0
442,101.48055275625,102.19611176250001,61.0,89.0
443,101.48055275625,102.23947897500001,65.0,87.0
444,102.09279575625001,102.34534599375002,53.0,85.0
445,100.56218825625001,102.40657029375001,46.0,87.0
446,102.39891725625002,102.51626383125001,58.0,87.0
447,102.39891725625002,102.74202843750001,61.0,88.0
448,102.39891725625002,102.77391609375,65.0,87.0
449,102.70503875625,102.87340558125001,58.0,89.0
450,103.01116025625001,103.37978156250001,56.0,87.0
451,103.01116025625001,103.69483160625,59.0,85.0
452,103.62340325625001,103.82875976250001,54.0,86.0
453,103.31728175625001,104.1195751875,51.0,79.0
454,103.92952475625,104.596614525,63.0,88.0
455,103.92952475625,104.61829813125001,54.0,86.0
456,103.92952475625,104.63998173750001,59.0,88.0
457,104.54176775625001,104.93079716250001,51.0,87.0
458,103.01116025625001,105.2114085375,44.0,87.0
459,104.84788925625001,105.23691866250002,56.0,88.0
460,105.15401075625002,105.24967372500001,51.0,90.0
461,104.84788925625001,105.36829580625,59.0,91.0
462,105.46013225625,105.55962174375001,37.0,89.0
463,105.46013225625,105.74839666875,56.0,87.0
464,105.46013225625,105.87212077500001,61.0,86.0
465,106.07237525625001,106.52900649375,56.0,91.0
466,106.37849675625002,106.76625065625001,61.0,92.0
467,106.37849675625002,106.83385248750001,65.0,92.0
468,106.99073975625001,107.270075625,65.0,86.0
469,106.68461825625,107.44737099375001,56.0,81.0
470,107.29686125625001,107.484360675,66.0,89.0
471,105.76625375625001,107.4894627,49.0,85.0
472,107.60298275625001,107.84532894375,68.0,90.0
473,107.90910425625,108.33639885000001,61.0,83.0
474,107.90910425625,108.61445921250001,70.0,89.0
475,108.52134725625001,108.68461205625,61.0,87.0
476,108.21522575625,109.23435525000001,49.0,79.0
477,108.82746875625001,109.54175225625,61.0,89.0
478,108.82746875625001,109.54940529375001,66.0,88.0
479,109.74583325625001,109.84659825000001,61.0,82.0
480,109.74583325625001,109.91930210625002,70.0,87.0
481,109.74583325625001,109.9664958375,66.0,81.0
482,110.05195475625001,110.13231165,61.0,59.0
483,109.43971175625,110.14506671250001,49.0,73.0
484,107.90910425625,110.19863797500001,42.0,87.0
485,110.35807625625002,110.7471056625,61.0,77.0
486,110.35807625625002,111.0634312125,66.0,79.0
487,110.97031925625001,111.15654316875,61.0,75.0
488,111.27644075625001,111.76878616875001,61.0,85.0
489,111.27644075625001,111.77261268750001,65.0,79.0
490,111.88868375625002,112.24072348125001,61.0,82.0
491,111.88868375625002,112.26113158125001,66.0,83.0
492,110.66419775625,112.34914151250001,49.0,70.0
493,110.35807625625002,112.65398750625,42.0,86.0
494,112.80704825625001,113.15526146250001,61.0,81.0
495,112.80704825625001,113.3899546125,70.0,84.0
496,112.80704825625001,113.48306656875,66.0,79.0
497,113.41929125625,113.58638257500002,61.0,86.0
498,113.72541275625001,114.18587051250002,61.0,87.0
499,113.72541275625001,114.23433975,65.0,85.0
500,113.11316975625002,115.02260261250001,49.0,74.0
501,112.80704825625001,115.08127590000001,42.0,86.0
502,114.33765575625002,115.12591861875,66.0,85.0
503,114.33765575625002,115.13867368125001,61.0,86.0
504,115.25602025625001,115.69479440625001,61.0,82.0
505,115.25602025625001,115.96902825000001,66.0,82.0
506,115.86826325625002,116.02004850000002,61.0,85.0
507,116.17438475625,116.67438320625001,70.0,87.0
508,116.17438475625,116.67565871250001,61.0,86.0
509,116.17438475625,116.6960668125,66.0,86.0
510,115.56214175625001,117.46009505625001,49.0,75.0
511,115.25602025625001,117.50983980000001,42.0,86.0
512,118.01111375625001,118.32743930625001,58.0,85.0
513,118.01111375625001,118.33636785000002,54.0,85.0
514,118.01111375625001,118.35677595000001,61.0,86.0
515,118.62335675625,119.28789551250001,54.0,81.0
516,118.62335675625,119.29809956250001,58.0,86.0
517,118.62335675625,119.3057526,61.0,83.0
518,119.54172125625001,119.64758827500002,54.0,80.0
519,117.70499225625001,119.93075066250002,42.0,86.0
520,119.23559975625001,119.93712819375001,49.0,78.0
521,119.54172125625001,120.33508614375,61.0,86.0
522,119.84784275625002,120.33636165000001,54.0,70.0
523,119.54172125625001,120.36314728125001,58.0,85.0
524,120.46008575625001,120.61059549375001,61.0,80.0
525,120.46008575625001,120.64375865625001,54.0,79.0
526,120.46008575625001,120.64630966875,58.0,80.0
527,121.07232875625002,121.59528631875001,54.0,79.0
528,121.07232875625002,121.59783733125,58.0,78.0
529,121.07232875625002,121.60038834375001,61.0,82.0
530,121.68457175625001,122.31722285625001,49.0,73.0
531,121.99069325625001,122.34655950000001,58.0,86.0
532,120.15396425625,122.39630424375001,42.0,87.0
533,122.29681475625001,122.50344676875001,54.0,88.0
534,121.99069325625001,122.50344676875001,61.0,85.0
535,122.90905775625001,123.26109748125,59.0,83.0
536,122.90905775625001,123.29681165625001,54.0,85.0
537,123.52130075625001,123.86058541875,54.0,81.0
538,123.52130075625001,123.89374858125001,59.0,82.0
539,122.60293625625002,124.07869698750001,47.0,86.0
540,123.52130075625001,124.19731906875,63.0,86.0
541,124.13354375625,124.29680855625001,54.0,80.0
542,124.43966525625001,124.50854259375001,63.0,77.0
543,124.74578675625001,125.00471452500001,47.0,86.0
544,124.43966525625001,125.08507141875002,59.0,86.0
545,124.43966525625001,125.13609166875001,54.0,86.0
546,125.35802975625,125.71006948125002,54.0,88.0
547,125.66415125625001,126.4205264625,49.0,85.0
548,125.97027275625001,126.42180196875002,61.0,86.0
549,125.97027275625001,126.44731209375001,58.0,80.0
550,125.97027275625001,126.47282221875001,54.0,83.0
551,126.88863725625001,127.0837897125,54.0,87.0
552,126.58251575625002,127.13225895000001,49.0,77.0
553,125.05190825625002,127.22026888125,42.0,87.0
554,126.88863725625001,127.40649279375002,58.0,86.0
555,127.19475875625001,127.50598228125001,54.0,81.0
556,127.80700175625002,128.04041940000002,54.0,83.0
557,127.80700175625002,128.08506211875002,63.0,86.0
558,127.80700175625002,128.09781718125,59.0,82.0
559,128.11312325625002,128.18200059375002,54.0,66.0
560,127.50088025625001,128.87587599375001,47.0,86.0
561,128.41924475625,129.05189585625,59.0,87.0
562,128.41924475625,129.0684774375,54.0,87.0
563,129.03148775625002,129.39373153125,47.0,74.0
564,129.33760925625,129.45623133750001,54.0,89.0
565,129.33760925625,129.7725568875,63.0,92.0
566,129.33760925625,129.89245447500002,59.0,91.0
567,129.64373075625002,129.96898485,54.0,69.0
568,130.25597375625,130.5914319,59.0,82.0
569,130.25597375625,130.63097259375002,62.0,80.0
570,130.56209525625002,130.7674517625,54.0,82.0
571,130.86821675625,131.3694907125,54.0,87.0
572,131.48045975625,131.53658203125002,54.0,63.0
573,130.86821675625,131.56464316875002,59.0,87.0
574,131.78658125625,131.92178491875,54.0,86.0
575,129.94985225625,132.09142725,47.0,95.0
576,131.78658125625,132.16158009375002,59.0,89.0
577,132.09270275625002,132.18453920625,54.0,67.0
578,131.78658125625,132.198569775,62.0,87.0
579,132.39882425625,132.79678220625001,59.0,85.0
580,132.39882425625,132.80443524375002,56.0,81.0
581,133.01106725625002,133.18453610625002,56.0,81.0
582,132.70494575625003,133.77637100625,51.0,79.0
583,133.31718875625,134.035298775,63.0,87.0
584,133.31718875625,134.07483946875,59.0,87.0
585,133.31718875625,134.0837680125,56.0,86.0
586,134.23555325625,134.43963425625,56.0,87.0
587,132.39882425625,134.484276975,44.0,86.0
588,133.92943175625,134.49830754375,51.0,73.0
589,134.23555325625,134.80825556250002,59.0,89.0
590,134.54167475625002,134.99830599375002,56.0,85.0
591,134.84779625625,135.310805025,49.0,86.0
592,135.15391775625002,135.310805025,56.0,88.0
593,135.15391775625002,135.310805025,61.0,87.0
594,135.46003925625,136.1807002875,49.0,79.0
595,135.76616075625,136.43452603125002,61.0,88.0
596,135.76616075625,136.4715157125,56.0,86.0
597,136.37840375625,136.73171898750002,49.0,81.0
598,136.68452525625003,136.84906556250002,56.0,86.0
599,136.68452525625003,137.15901358125,61.0,87.0
600,136.99064675625002,137.17304415,56.0,79.0
601,136.68452525625003,137.21258484375002,65.0,85.0
602,137.60288975625002,137.91921530625,58.0,85.0
603,137.60288975625002,137.92814385000003,54.0,85.0
604,137.60288975625002,137.94855195000002,61.0,86.0
605,138.21513275625,138.8796715125,54.0,81.0
606,138.21513275625,138.8898755625,58.0,86.0
607,138.21513275625,138.89752860000002,61.0,83.0
608,139.13349725625002,139.239364275,54.0,80.0
609,137.29676825625,139.5225266625,42.0,86.0
610,138.82737575625,139.52890419375,49.0,78.0
611,139.13349725625002,139.92686214375001,61.0,86.0
612,139.43961875625,139.92813765000002,54.0,70.0
613,139.13349725625002,139.95492328125002,58.0,85.0
614,140.05186175625002,140.20237149375,61.0,80.0
615,140.05186175625002,140.23553465625002,54.0,79.0
616,140.05186175625002,140.23808566875002,58.0,80.0
617,140.66410475625003,141.18706231875,54.0,79.0
618,140.66410475625003,141.18961333125,58.0,78.0
619,140.66410475625003,141.19216434375002,61.0,82.0
620,141.27634775625,141.90899885625,49.0,73.0
621,141.58246925625002,141.93833550000002,58.0,86.0
622,139.74574025625,141.98808024375,42.0,87.0
623,141.88859075625,142.09522276875,54.0,88.0
624,141.58246925625002,142.09522276875,61.0,85.0
625,142.50083375625002,142.85287348125001,59.0,83.0
626,142.50083375625002,142.88858765625002,54.0,85.0
627,143.11307675625002,143.45236141875,54.0,81.0
628,143.11307675625002,143.48552458125002,59.0,82.0
629,142.19471225625,143.6704729875,47.0,86.0
630,143.11307675625002,143.78909506875002,63.0,86.0
631,143.72531975625,143.88858455625,54.0,80.0
632,144.03144125625002,144.10031859375002,63.0,77.0
633,144.33756275625,144.596490525,47.0,86.0
634,144.03144125625002,144.67684741875001,59.0,86.0
635,144.03144125625002,144.72786766875,54.0,86.0
636,144.94980575625002,145.30184548125,54.0,88.0
637,145.25592725625,146.0123024625,49.0,85.0
638,145.56204875625002,146.01357796875,61.0,86.0
639,145.56204875625002,146.03908809375002,58.0,80.0
640,145.56204875625002,146.06459821875,54.0,83.0
641,146.48041325625002,146.6755657125,54.0,87.0
642,146.17429175625,146.72403495,49.0,77.0
643,144.64368425625003,146.81204488125002,42.0,87.0
644,146.48041325625002,146.99826879375001,58.0,86.0
645,146.78653475625,147.09775828125,54.0,81.0
646,147.39877775625,147.6321954,54.0,83.0
647,147.39877775625,147.67683811875003,63.0,86.0
648,147.39877775625,147.68959318125002,59.0,82.0
649,147.70489925625,147.77377659375,54.0,66.0
650,147.09265625625002,148.46765199375002,47.0,86.0
651,148.01102075625002,148.64367185625002,59.0,87.0
652,148.01102075625002,148.66025343750002,54.0,87.0
653,148.62326375625003,148.98550753125002,47.0,74.0
654,148.92938525625001,149.04800733750002,54.0,89.0
655,148.92938525625001,149.3643328875,63.0,92.0
656,148.92938525625001,149.484230475,59.0,91.0
657,149.23550675625,149.56076085,54.0,69.0
658,149.84774975625,150.1832079,59.0,82.0
659,149.84774975625,150.22274859375003,62.0,80.0
660,150.15387125625003,150.3592277625,54.0,82.0
661,150.45999275625002,150.96126671250002,54.0,87.0
662,151.07223575625002,151.12835803125,54.0,63.0
663,150.45999275625002,151.15641916875,59.0,87.0
664,151.37835725625,151.51356091875002,54.0,86.0
665,149.54162825625002,151.68320325000002,47.0,95.0
666,151.37835725625,151.75335609375003,59.0,89.0
667,151.68447875625,151.77631520625002,54.0,67.0
668,151.37835725625,151.79034577500002,62.0,87.0
669,151.99060025625002,152.47784364375002,61.0,85.0
670,151.99060025625002,152.48294566875,56.0,78.0
671,151.99060025625002,152.99314816875003,49.0,87.0
672,152.90896475625001,153.27120853125,65.0,81.0
673,152.90896475625001,153.27631055625002,61.0,87.0
674,152.90896475625001,153.31074922500002,56.0,82.0
675,153.52120775625002,153.84646185000003,56.0,87.0
676,153.52120775625002,153.98294101875,61.0,87.0
677,153.52120775625002,154.31967466875003,65.0,85.0
678,154.13345075625003,154.40130706875001,61.0,57.0
679,154.13345075625003,154.45360282500002,56.0,83.0
680,154.74569375625,155.07477436875,58.0,86.0
681,154.74569375625,155.0811519,61.0,88.0
682,154.74569375625,155.11048854375002,54.0,86.0
683,155.05181525625002,155.80563945,49.0,80.0
684,155.35793675625,155.95614918750002,58.0,80.0
685,155.35793675625,155.96380222500002,54.0,82.0
686,155.35793675625,155.99313886875,61.0,86.0
687,156.27630125625,156.34007656875002,54.0,80.0
688,155.97017975625002,156.58880028750002,49.0,73.0
689,154.43957225625002,156.69594281250002,42.0,86.0
690,156.27630125625,157.00971735000002,58.0,89.0
691,156.27630125625,157.01737038750002,61.0,87.0
692,156.58242275625003,157.03140095625002,54.0,84.0
693,157.19466575625,157.402573275,58.0,86.0
694,157.19466575625,157.41405283125002,54.0,86.0
695,157.19466575625,157.42808340000002,61.0,87.0
696,157.50078725625002,158.13981588750002,49.0,77.0
697,157.80690875625,158.22910132500002,54.0,90.0
698,157.80690875625,158.25716246250002,58.0,88.0
699,157.80690875625,158.30563170000002,61.0,88.0
700,158.41915175625002,158.85537489375002,49.0,78.0
701,158.72527325625,159.07221095625002,61.0,84.0
702,158.72527325625,159.10027209375002,54.0,87.0
703,156.88854425625001,159.34261828125003,42.0,86.0
704,159.03139475625002,159.36302638125002,49.0,81.0
705,159.33751625625,159.68445395625002,59.0,86.0
706,159.33751625625,160.01225906250002,66.0,84.0
707,159.94975925625002,160.11685057500003,59.0,89.0
708,159.64363775625,160.4280741,42.0,74.0
709,160.25588075625,160.61302250625002,62.0,87.0
710,160.25588075625,160.65383870625,59.0,88.0
711,160.56200225625003,160.984194825,42.0,75.0
712,160.86812375625001,161.20740841875002,59.0,87.0
713,160.86812375625001,161.26353069375003,62.0,87.0
714,160.86812375625001,161.31837746250002,66.0,86.0
715,161.17424525625,161.33623455000003,42.0,70.0
716,159.33751625625,161.36046916875003,35.0,86.0
717,161.48036675625002,161.54031555,59.0,77.0
718,161.78648825625,162.07857918750003,65.0,79.0
719,161.78648825625,162.09898728750002,61.0,85.0
720,162.39873125625002,162.50842479375,61.0,75.0
721,162.09260975625003,163.39617714375,44.0,75.0
722,161.78648825625,163.44592188750002,37.0,87.0
723,163.92933875625002,164.05688938125002,37.0,88.0
724,164.23546025625,164.61811213125003,61.0,81.0
725,164.23546025625,164.70102003750003,66.0,82.0
726,164.84770325625,164.97525388125,61.0,86.0
727,165.15382475625,165.5683642875,61.0,89.0
728,165.15382475625,165.62576206875002,70.0,85.0
729,165.76606775625,166.024995525,61.0,88.0
730,165.76606775625,166.13724007500002,66.0,86.0
731,164.54158175625003,166.44081056250002,49.0,73.0
732,166.37831075625002,166.52754498750002,61.0,82.0
733,164.23546025625,166.6193814375,42.0,87.0
734,166.68443225625,167.05432906875,61.0,83.0
735,166.68443225625,167.34514449375,68.0,80.0
736,167.29667525625,167.45356252500002,61.0,88.0
737,166.99055375625002,167.72396985,49.0,78.0
738,167.60279675625003,168.00075470625,66.0,86.0
739,167.60279675625003,168.004581225,70.0,87.0
740,167.60279675625003,168.02243831250001,61.0,87.0
741,167.90891825625002,168.3846820875,49.0,79.0
742,168.21503975625,168.39105961875,66.0,86.0
743,166.68443225625,168.42422278125002,42.0,87.0
744,168.21503975625,168.47651853750003,61.0,90.0
745,168.52116125625002,168.64871188125002,42.0,82.0
746,169.13340425625,169.22779171875,35.0,86.0
747,169.13340425625,169.6908004875,59.0,85.0
748,169.13340425625,169.6908004875,62.0,85.0
749,169.13340425625,169.7010045375,66.0,86.0
750,169.74564725625,170.25329874375,54.0,82.0
751,170.05176875625003,170.40891050625,66.0,87.0
752,170.05176875625003,170.45993075625,59.0,87.0
753,170.35789025625002,170.7749808,54.0,76.0
754,169.43952575625002,170.83110307500002,47.0,83.0
755,170.66401175625,170.86043971875003,59.0,83.0
756,170.66401175625,170.871919275,62.0,87.0
757,170.66401175625,170.96630673750002,66.0,86.0
758,171.27625475625,171.36681570000002,47.0,87.0
759,171.58237625625003,171.69717181875,37.0,87.0
760,171.58237625625003,172.20992533125002,61.0,85.0
761,171.58237625625003,172.23288444375,65.0,82.0
762,172.19461925625,172.70354625000002,56.0,79.0
763,172.50074075625002,172.94461693125,68.0,85.0
764,172.50074075625002,172.94716794375,61.0,83.0
765,172.50074075625002,172.95354547500003,65.0,86.0
766,173.11298375625,173.45864595,65.0,88.0
767,173.11298375625,173.48032955625,61.0,87.0
768,173.11298375625,173.49436012500001,68.0,87.0
769,171.88849775625002,173.51349271875003,49.0,74.0
770,173.41910525625002,173.54155385625,56.0,71.0
771,174.03134825625003,174.40124506875003,59.0,85.0
772,174.03134825625003,174.70481555625003,66.0,81.0
773,174.64359125625,174.78517245,59.0,86.0
774,174.94971275625002,175.29792596250002,59.0,87.0
775,174.94971275625002,175.29792596250002,66.0,86.0
776,174.33746975625002,175.64613916875,54.0,77.0
777,175.56195575625003,175.79409789375,59.0,88.0
778,175.56195575625003,175.82343453750002,63.0,91.0
779,174.03134825625003,175.90889345625,47.0,87.0
780,175.86807725625002,175.99945440000002,54.0,86.0
781,176.17419875625,176.26348419375,47.0,86.0
782,176.48032025625002,176.58618727500001,37.0,87.0
783,176.48032025625002,177.12062439375,61.0,86.0
784,176.48032025625002,177.17164464375003,65.0,80.0
785,177.09256325625,177.54919449375,56.0,87.0
786,177.39868475625002,177.57853113750002,68.0,85.0
787,177.39868475625002,177.69205119375002,65.0,84.0
788,177.39868475625002,177.71501030625,61.0,88.0
789,178.01092775625003,178.13082534375002,61.0,89.0
790,178.01092775625003,178.14868243125002,73.0,89.0
791,177.70480625625,178.69842562500003,56.0,76.0
792,176.78644175625,178.71500720625002,49.0,81.0
793,178.92929225625002,179.29918906875002,61.0,81.0
794,178.92929225625002,179.33745425625003,65.0,74.0
795,178.92929225625002,179.35403583750002,68.0,80.0
796,179.54153525625003,179.69587151250002,61.0,86.0
797,179.23541375625,179.933115675,56.0,72.0
798,179.84765675625002,180.24561470625002,61.0,92.0
799,179.84765675625002,180.29408394375002,65.0,89.0
800,179.84765675625002,180.4203590625,68.0,90.0
801,180.15377825625,180.46755279375003,56.0,82.0
802,178.92929225625002,180.52112405625002,49.0,90.0
803,180.45989975625002,180.57469531875003,61.0,93.0
804,180.76602125625,180.89612289375,61.0,93.0
805,180.76602125625,181.03897959375,65.0,90.0
806,181.07214275625003,181.27494825000002,61.0,86.0
807,181.37826425625002,181.78132423125,61.0,86.0
808,181.37826425625002,181.87698720000003,66.0,86.0
809,181.99050725625003,182.11168035000003,61.0,86.0
810,181.68438575625,182.42417938125,49.0,82.0
811,182.29662875625002,182.72264784375002,61.0,91.0
812,182.29662875625002,182.75325999375002,70.0,90.0
813,182.60275025625,183.04279991250002,49.0,75.0
814,181.37826425625002,183.1831056,42.0,87.0
815,182.90887175625002,183.30427869375,61.0,93.0
816,182.90887175625002,183.37188052500002,66.0,88.0
817,183.52111475625003,183.69458360625,61.0,90.0
818,183.82723625625002,184.15121484375,61.0,86.0
819,183.82723625625002,184.1754494625,68.0,90.0
820,184.43947925625002,184.59764203125002,61.0,92.0
821,184.13335775625,184.91014106250003,56.0,86.0
822,183.82723625625002,185.05937529375,49.0,91.0
823,184.74560075625,185.433098625,61.0,90.0
824,184.74560075625,185.453506725,65.0,86.0
825,185.35784375625002,185.45860875000002,56.0,77.0
826,185.66396525625,186.01345396875,61.0,95.0
827,185.66396525625,186.03641308125,65.0,93.0
828,185.35784375625002,186.04916814375002,49.0,86.0
829,185.97008675625003,186.07978029375002,56.0,77.0
830,186.27620825625002,186.50962590000003,63.0,89.0
831,186.27620825625002,186.64610506875002,66.0,87.0
832,186.88845125625002,187.00707333750003,63.0,93.0
833,186.58232975625,187.33615395,46.0,74.0
834,187.19457275625,187.36166407500002,63.0,103.0
835,187.19457275625,187.49941875000002,70.0,93.0
836,187.50069425625003,188.00451922500002,46.0,75.0
837,187.80681575625002,188.10400871250002,63.0,92.0
838,187.80681575625002,188.20987573125,66.0,88.0
839,186.27620825625002,188.23666136250003,39.0,87.0
840,188.11293725625,188.32977331875003,46.0,77.0
841,188.41905875625002,188.524925775,63.0,88.0
842,188.72518025625,189.35272933125003,65.0,74.0
843,189.33742325625002,189.5223716625,58.0,93.0
844,189.03130175625003,189.80553405,53.0,93.0
845,189.64354475625,190.37696085000002,58.0,87.0
846,189.64354475625,190.39864445625003,61.0,89.0
847,189.64354475625,190.5172665375,65.0,86.0
848,190.25578775625002,190.56701128125002,53.0,86.0
849,188.72518025625,190.6524702,46.0,87.0
850,190.56190925625,190.93180606875,58.0,100.0
851,190.86803075625002,191.11420346250003,61.0,90.0
852,191.17415225625,191.29149883125,35.0,86.0
853,191.17415225625,191.72389545000001,63.0,89.0
854,191.17415225625,191.75833411875,59.0,85.0
855,192.09251675625,192.26726111250002,66.0,85.0
856,192.09251675625,192.33613845000002,59.0,88.0
857,191.78639525625002,192.78511665000002,54.0,80.0
858,191.48027375625003,192.87057556875,47.0,81.0
859,192.70475975625,193.0631770125,59.0,87.0
860,192.70475975625,193.1499114375,63.0,92.0
861,193.31700275625002,193.47899205000002,59.0,93.0
862,193.01088125625003,193.56700198125003,54.0,86.0
863,193.62312425625,193.73919532500003,58.0,89.0
864,193.62312425625,194.29659155625,61.0,89.0
865,194.23536725625002,194.41393813125,58.0,80.0
866,193.92924575625003,194.71495760625,53.0,86.0
867,194.54148875625003,195.25577225625003,58.0,90.0
868,194.54148875625003,195.2570477625,61.0,89.0
869,194.54148875625003,195.30041497500002,65.0,87.0
870,195.15373175625,195.40628199375,53.0,85.0
871,193.62312425625,195.46750629375,46.0,87.0
872,195.45985325625003,195.57719983125003,58.0,87.0
873,195.45985325625003,195.8029644375,61.0,88.0
874,195.45985325625003,195.83485209375002,65.0,87.0
875,195.76597475625002,195.93434158125,58.0,89.0
876,196.07209625625,196.44071756250003,56.0,87.0
877,196.07209625625,196.75576760625003,59.0,85.0
878,196.68433925625,196.88969576250003,54.0,86.0
879,196.37821775625002,197.18051118750003,51.0,79.0
880,196.99046075625003,197.657550525,63.0,88.0
881,196.99046075625003,197.67923413125,54.0,86.0
882,196.99046075625003,197.70091773750002,59.0,88.0
883,197.60270375625,197.99173316250003,51.0,87.0
884,196.07209625625,198.27234453750003,44.0,87.0
885,197.90882525625003,198.29785466250001,56.0,88.0
886,198.21494675625001,198.310609725,51.0,90.0
887,197.90882525625003,198.42923180625002,59.0,91.0
888,198.52106825625003,198.62055774375003,37.0,89.0
889,198.52106825625003,198.80933266875002,56.0,87.0
890,198.52106825625003,198.933056775,61.0,86.0
891,199.13331125625,199.58994249375002,56.0,91.0
892,199.43943275625003,199.82718665625,61.0,92.0
893,199.43943275625003,199.89478848750002,65.0,92.0
894,200.05167575625,200.33101162500003,65.0,86.0
895,199.74555425625002,200.50830699375,56.0,81.0
896,200.35779725625002,200.54529667500003,66.0,89.0
897,198.82718975625002,200.55039870000002,49.0,85.0
898,200.66391875625,200.90626494375002,68.0,90.0
899,200.97004025625003,201.37310023125002,61.0,86.0
900,200.97004025625003,201.4687632,66.0,86.0
901,201.58228325625,201.70345635,61.0,86.0
902,201.27616175625002,202.01595538125002,49.0,82.0
903,201.88840475625003,202.31442384375,61.0,91.0
904,201.88840475625003,202.34503599375003,70.0,90.0
905,202.19452625625001,202.63457591250003,49.0,75.0
906,200.97004025625003,202.77488160000001,42.0,87.0
907,202.50064775625003,202.89605469375002,61.0,93.0
908,202.50064775625003,202.96365652500003,66.0,88.0
909,203.11289075625,203.28635960625002,61.0,90.0
910,203.41901225625003,203.74299084375002,61.0,86.0
911,203.41901225625003,203.76722546250002,68.0,90.0
912,204.03125525625,204.18941803125003,61.0,92.0
913,203.72513375625002,204.5019170625,56.0,86.0
914,203.41901225625003,204.65115129375002,49.0,91.0
915,204.33737675625002,205.02487462500002,61.0,90.0
916,204.33737675625002,205.04528272500002,65.0,86.0
917,204.94961975625003,205.05038475,56.0,77.0
918,205.25574125625002,205.60522996875002,61.0,95.0
919,205.25574125625002,205.62818908125,65.0,93.0
920,204.94961975625003,205.64094414375003,49.0,86.0
921,205.56186275625,205.67155629375003,56.0,77.0
922,205.86798425625003,206.1014019,63.0,89.0
923,205.86798425625003,206.23788106875003,66.0,87.0
924,206.48022725625003,206.5988493375,63.0,93.0
925,206.17410575625001,206.92792995000002,46.0,74.0
926,206.78634875625002,206.95344007500003,63.0,103.0
927,206.78634875625002,207.09119475000003,70.0,93.0
928,207.09247025625,207.596295225,46.0,75.0
929,207.39859175625003,207.69578471250003,63.0,92.0
930,207.39859175625003,207.80165173125002,66.0,88.0
931,205.86798425625003,207.8284373625,39.0,87.0
932,207.70471325625002,207.92154931875,46.0,77.0
933,208.01083475625,208.11670177500002,63.0,88.0
934,208.31695625625002,208.94450533125,65.0,74.0
935,208.92919925625003,209.11414766250002,58.0,93.0
936,208.62307775625,209.39731005000002,53.0,93.0
937,209.23532075625002,209.96873685000003,58.0,87.0
938,209.23532075625002,209.99042045625,61.0,89.0
939,209.23532075625002,210.10904253750002,65.0,86.0
940,209.84756375625003,210.15878728125003,53.0,86.0
941,208.31695625625002,210.24424620000002,46.0,87.0
942,210.15368525625001,210.52358206875002,58.0,100.0
943,210.45980675625003,210.7059794625,61.0,90.0
944,210.76592825625002,210.88327483125002,35.0,86.0
945,210.76592825625002,211.31567145000002,63.0,89.0
946,210.76592825625002,211.35011011875002,59.0,85.0
947,211.68429275625002,211.85903711250003,66.0,85.0
948,211.68429275625002,211.92791445000003,59.0,88.0
949,211.37817125625003,212.37689265000003,54.0,80.0
950,211.07204975625,212.46235156875002,47.0,81.0
951,212.29653575625002,212.65495301250002,59.0,87.0
952,212.29653575625002,212.74168743750002,63.0,92.0
953,212.90877875625003,213.07076805000003,59.0,93.0
954,212.60265725625,213.15877798125,54.0,86.0
955,213.21490025625002,213.330971325,58.0,89.0
956,213.21490025625002,213.88836755625002,61.0,89.0
957,213.82714325625003,214.00571413125002,58.0,80.0
958,213.52102175625,214.30673360625002,53.0,86.0
959,214.13326475625001,214.84754825625,58.0,90.0
960,214.13326475625001,214.84882376250002,61.0,89.0
961,214.13326475625001,214.89219097500003,65.0,87.0
962,214.74550775625002,214.99805799375002,53.0,85.0
963,213.21490025625002,215.05928229375002,46.0,87.0
964,215.05162925625,215.16897583125,58.0,87.0
965,215.05162925625,215.39474043750002,61.0,88.0
966,215.05162925625,215.42662809375003,65.0,87.0
967,215.35775075625003,215.52611758125002,58.0,89.0
968,215.66387225625002,216.0324935625,56.0,87.0
969,215.66387225625002,216.34754360625,59.0,85.0
970,216.27611525625002,216.4814717625,54.0,86.0
971,215.96999375625003,216.7722871875,51.0,79.0
972,216.58223675625,217.24932652500001,63.0,88.0
973,216.58223675625,217.27101013125002,54.0,86.0
974,216.58223675625,217.29269373750003,59.0,88.0
975,217.19447975625002,217.5835091625,51.0,87.0
976,215.66387225625002,217.8641205375,44.0,87.0
977,217.50060125625,217.88963066250002,56.0,88.0
978,217.80672275625002,217.90238572500002,51.0,90.0
979,217.50060125625,218.02100780625003,59.0,91.0
980,218.11284425625,218.21233374375,37.0,89.0
981,218.11284425625,218.40110866875003,56.0,87.0
982,218.11284425625,218.52483277500002,61.0,86.0
983,218.72508725625002,219.18171849375003,56.0,91.0
984,219.03120875625,219.41896265625002,61.0,92.0
985,219.03120875625,219.48656448750003,65.0,92.0
986,219.64345175625002,219.922787625,65.0,86.0
987,219.33733025625003,220.10008299375002,56.0,81.0
988,219.94957325625003,220.137072675,66.0,89.0
989,218.41896575625003,220.14217470000003,49.0,85.0
990,220.25569475625002,220.49804094375003,68.0,90.0
991,220.56181625625,220.73018308125003,54.0,86.0
992,220.56181625625,220.94574363750002,59.0,86.0
993,220.86793775625003,221.26334469375,54.0,81.0
994,221.17405925625002,221.35263013125,59.0,79.0
995,221.48018075625,221.84242453125003,63.0,89.0
996,221.48018075625,221.85517959375002,59.0,87.0
997,221.48018075625,221.8743121875,54.0,86.0
998,220.56181625625,222.27992317500002,47.0,91.0
999,222.09242375625,222.4686981,54.0,85.0
1000,222.09242375625,222.51461632500002,63.0,87.0
1001,222.09242375625,222.51589183125003,59.0,86.0
1002,223.01078825625,223.33094032500003,56.0,79.0
1003,223.01078825625,223.34497089375003,61.0,85.0
1004,223.62303125625002,223.73272479375,49.0,72.0
1005,223.31690975625003,223.9916525625,44.0,72.0
1006,223.92915275625003,224.15491736250002,56.0,84.0
1007,223.92915275625003,224.1957335625,49.0,86.0
1008,223.92915275625003,224.2646109,53.0,81.0
1009,224.23527425625002,224.60772208125002,44.0,79.0
1010,223.01078825625,224.62813018125001,37.0,91.0
1011,224.54139575625,224.8487927625,49.0,95.0
1012,224.84751725625003,225.41639304375002,53.0,91.0
1013,224.84751725625003,225.43935215625,56.0,93.0
1014,224.84751725625003,225.443178675,61.0,88.0
1015,225.15363875625002,225.45210721875003,49.0,84.0
1016,225.76588175625002,226.00567693125,42.0,74.0
1017,225.45976025625,226.01843199375003,35.0,87.0
1018,226.07200325625,226.44062456250003,47.0,88.0
1019,226.37812475625003,226.49292031875,51.0,91.0
1020,226.37812475625003,226.53501202500001,54.0,88.0
1021,226.68424625625002,227.30924431875002,47.0,86.0
1022,226.99036775625,227.32710140625002,59.0,88.0
1023,226.99036775625,227.36664210000004,63.0,95.0
1024,227.29648925625003,227.38960121250003,54.0,79.0
1025,227.60261075625002,227.73398790000002,59.0,86.0
1026,227.90873225625003,228.01459927500002,37.0,87.0
1027,227.90873225625003,228.46230196875,61.0,82.0
1028,227.90873225625003,228.48908760000003,65.0,85.0
1029,228.21485375625002,229.9788789,49.0,86.0
1030,228.52097525625,229.99163396250003,56.0,81.0
1031,229.13321825625002,230.01586858125003,53.0,73.0
1032,229.13321825625002,230.94210225416668,65.0,78.0
1033,229.13321825625002,231.04794332708335,68.0,84.0
1034,228.82709675625003,231.09483494166668,61.0,87.0
1035,231.62671982708335,232.14184186875,58.0,83.0
1036,231.62671982708335,232.5180048375,66.0,81.0
1037,232.57358905625,233.07513968125,63.0,92.0
1038,232.26335155625,233.08806624375,58.0,88.0
1039,233.19406405625,233.342719525,58.0,75.0
1040,231.94826232708334,233.41381561875,46.0,74.0
1041,231.62671982708335,233.61546999375,39.0,86.0
1042,233.19406405625,233.94897530625,66.0,85.0
1043,233.19406405625,233.9502679625,63.0,91.0
1044,234.12477655625,234.5810842125,63.0,87.0
1045,234.12477655625,234.61857124374998,66.0,84.0
1046,234.74525155625,234.92363811875,59.0,86.0
1047,235.05548905625,235.53894249375,59.0,88.0
1048,235.05548905625,235.54411311875,66.0,86.0
1049,234.43501405625,235.72249968124999,54.0,80.0
1050,234.12477655625,235.82591218125,47.0,90.0
1051,235.67596405625,236.24990343125,59.0,83.0
1052,235.67596405625,236.31453624374998,63.0,88.0
1053,235.67596405625,236.3235848375,66.0,85.0
1054,236.60667655625,237.3060035875,63.0,87.0
1055,236.60667655625,237.43914718125,66.0,86.0
1056,237.22715155625,237.95103905624998,58.0,85.0
1057,237.53738905625,237.96396561875,63.0,87.0
1058,236.91691405625,238.1850098375,46.0,67.0
1059,236.60667655625,238.24059405625,39.0,87.0
1060,238.15786405625,238.53919765,58.0,86.0
1061,238.15786405625,238.70336499375,66.0,84.0
1062,238.15786405625,238.78350968125,63.0,91.0
1063,239.08857655625,239.25662186875,35.0,84.0
1064,239.08857655625,239.84607311874998,59.0,81.0
1065,239.08857655625,240.0257523375,66.0,81.0
1066,240.01928905625,240.52342499374998,59.0,92.0
1067,239.70905155625,240.74963983749998,54.0,80.0
1068,239.39881405625,240.8659789,47.0,82.0
1069,240.63976405625,241.439918275,63.0,86.0
1070,240.63976405625,241.574354525,66.0,84.0
1071,241.66871843125,242.97817921249998,54.0,76.0
1072,241.76308233749998,243.13071265,58.0,79.0
1073,241.8561535875,243.15010249374998,61.0,73.0
1074,241.91044515,243.18112624375,66.0,73.0
1075,241.6105489,243.20697936874998,49.0,70.0
1076,241.42699171249998,243.27549015,42.0,86.0
