,start,end,pitch,velocity
0,15.439389525000001,15.677290800000002,56.0,73.0
1,15.681323025000001,15.919224300000002,58.0,66.0
2,15.923256525000001,16.4030913,60.0,90.0
3,16.407123525000003,16.886958300000003,60.0,94.0
4,16.890990525000003,17.3708253,58.0,83.0
5,17.374857525000003,17.854692300000004,60.0,77.0
6,17.858724525000003,18.0966258,58.0,79.0
7,18.100658025,18.3385593,56.0,66.0
8,18.342591525000003,18.580492800000002,56.0,63.0
9,18.584525025,19.3062933,53.0,66.0
10,19.310325525000003,19.548226800000002,48.0,86.0
11,19.552259025,19.790160300000004,53.0,84.0
12,19.794192525000003,20.515960800000002,51.0,82.0
13,20.519993025,20.757894300000004,53.0,87.0
14,20.761926525000003,21.120794550000003,55.0,79.0
15,21.124826775000002,21.483694800000002,53.0,86.0
16,21.487727025,21.725628300000004,51.0,85.0
17,21.729660525000003,22.693362300000004,53.0,94.0
18,22.697394525000004,22.935295800000002,56.0,100.0
19,22.939328025000002,23.1772293,55.0,87.0
20,23.181261525000004,23.419162800000002,53.0,86.0
21,23.423195025000002,23.661096300000004,55.0,85.0
22,23.665128525000004,26.322364800000003,53.0,90.0
23,26.568330525000004,26.806231800000003,56.0,76.0
24,26.810264025000002,27.0481653,55.0,67.0
25,27.052197525000004,27.290098800000003,53.0,66.0
26,27.294131025000002,27.773965800000003,55.0,80.0
27,27.777998025000002,30.9191013,53.0,76.0
28,30.923133525000004,31.161034800000003,56.0,95.0
29,31.165067025000003,31.402968300000005,58.0,84.0
30,31.407000525000004,32.370702300000005,60.0,97.0
31,32.374734525,32.8545693,58.0,93.0
32,32.858601525000005,33.338436300000005,60.0,91.0
33,33.342468525,33.5803698,58.0,92.0
34,33.584402025,33.8223033,60.0,76.0
35,33.826335525000005,34.0642368,63.0,87.0
36,34.068269025000006,35.0319708,56.0,89.0
37,35.03600302500001,35.273904300000005,60.0,99.0
38,35.277936525,35.7577713,58.0,97.0
39,35.761803525000005,36.241638300000005,58.0,96.0
40,36.245670525,36.48357180000001,58.0,93.0
41,36.487604025,36.7255053,56.0,73.0
42,36.729537525000005,37.092437775,55.0,66.0
43,36.951309900000005,37.915011675,56.0,73.0
44,37.93920502500001,38.177106300000005,56.0,97.0
45,38.181138525,38.41903980000001,56.0,91.0
46,38.423072025,38.6609733,55.0,90.0
47,38.665005525000005,38.902906800000004,53.0,72.0
48,38.90693902500001,39.144840300000006,55.0,79.0
49,39.148872525,39.6287073,56.0,91.0
50,39.632739525000005,41.806108800000004,53.0,86.0
51,41.81014102500001,42.048042300000006,44.0,53.0
52,42.052074525,42.28997580000001,55.0,66.0
53,42.294008025000004,42.5319093,55.0,66.0
54,42.535941525000005,42.773842800000004,53.0,74.0
55,42.77787502500001,43.015776300000006,51.0,79.0
56,43.019808525,43.2577098,53.0,93.0
57,43.261742025000004,43.741576800000004,55.0,85.0
58,43.74560902500001,47.612512800000005,53.0,91.0
59,47.61654502500001,47.854446300000006,51.0,65.0
60,47.858478525,48.3383133,60.0,72.0
61,48.342345525000006,48.580246800000005,58.0,91.0
62,48.58427902500001,48.82218030000001,56.0,81.0
63,48.826212525,49.3060473,58.0,92.0
64,49.310079525000006,49.547980800000005,60.0,82.0
65,49.55201302500001,50.03184780000001,58.0,91.0
66,50.035880025000004,50.9995818,51.0,87.0
67,51.003614025000005,51.2415153,56.0,62.0
68,51.245547525000006,51.483448800000005,53.0,65.0
69,51.48748102500001,51.72538230000001,55.0,61.0
70,51.729414525,51.96731580000001,56.0,61.0
71,51.971348025000005,52.2092493,65.0,47.0
72,52.213281525000006,52.451182800000005,63.0,68.0
73,52.45521502500001,52.69311630000001,56.0,63.0
74,52.697148525,53.90278380000001,60.0,92.0
75,53.906816025000005,54.1447173,60.0,98.0
76,54.14874952500001,54.386650800000005,58.0,90.0
77,54.39068302500001,54.62858430000001,60.0,93.0
78,54.632616525,56.56405230000001,61.0,92.0
79,56.568084525,57.289852800000006,58.0,94.0
80,57.29388502500001,58.015653300000004,60.0,91.0
81,58.01968552500001,58.49952030000001,61.0,95.0
82,58.503552525,61.160788800000006,60.0,100.0
83,61.16482102500001,61.40272230000001,56.0,91.0
84,61.406754525000004,61.64465580000001,58.0,87.0
85,61.648688025000006,62.37045630000001,63.0,91.0
86,62.374488525000004,63.096256800000006,60.0,101.0
87,63.10028902500001,63.58012380000001,60.0,98.0
88,63.584156025000006,63.822057300000004,61.0,95.0
89,63.82608952500001,64.0639908,63.0,91.0
90,64.068023025,64.3059243,65.0,87.0
91,64.309956525,65.0317248,58.0,91.0
92,65.03575702500001,65.51559180000001,58.0,91.0
93,65.51962402500001,65.75752530000001,61.0,99.0
94,65.761557525,65.99945880000001,60.0,90.0
95,66.003491025,66.2413923,58.0,86.0
96,66.245424525,66.9671928,56.0,93.0
97,66.97122502500001,67.45105980000001,48.0,79.0
98,67.45509202500001,67.69299330000001,58.0,81.0
99,67.697025525,67.9349268,56.0,92.0
100,67.938959025,68.1768603,55.0,82.0
101,68.180892525,68.6607273,55.0,94.0
102,68.66475952500001,69.38652780000001,53.0,85.0
103,69.39056002500001,69.62846130000001,56.0,97.0
104,69.632493525,69.87039480000001,55.0,92.0
105,69.874427025,70.1123283,53.0,73.0
106,70.116360525,70.5961953,55.0,91.0
107,70.60022752500001,70.8381288,61.0,100.0
108,70.84216102500001,71.08006230000001,60.0,85.0
109,71.08409452500001,71.56392930000001,58.0,90.0
110,71.567961525,71.8058628,55.0,79.0
111,71.809895025,73.25746380000001,56.0,94.0
112,73.26149602500001,73.49939730000001,56.0,91.0
113,73.503429525,73.74133080000001,58.0,84.0
114,73.745363025,73.9832643,60.0,92.0
115,73.987296525,74.70906480000001,65.0,91.0
116,74.71309702500001,74.95099830000001,60.0,92.0
117,74.95503052500001,75.43486530000001,61.0,101.0
118,75.438897525,75.6767988,63.0,87.0
119,75.680831025,76.1606658,60.0,79.0
120,76.164698025,76.64453280000001,58.0,85.0
121,76.64856502500001,76.88646630000001,56.0,94.0
122,76.89049852500001,77.12839980000001,58.0,86.0
123,77.13243202500001,77.8542003,63.0,87.0
124,77.858232525,78.58000080000001,60.0,105.0
125,78.58403302500001,78.96709440000001,60.0,98.0
126,79.06790002500001,79.45096140000001,61.0,98.0
127,79.309833525,79.66870155000001,63.0,95.0
128,79.551767025,79.82999055,65.0,95.0
129,79.793700525,80.39450205000001,58.0,96.0
130,80.51950102500001,80.99933580000001,58.0,99.0
131,81.00336802500001,81.24126930000001,61.0,97.0
132,81.245301525,81.48320280000002,60.0,90.0
133,81.487235025,81.7251363,58.0,87.0
134,81.729168525,82.57190355,56.0,97.0
135,82.45496902500001,82.81383705,48.0,83.0
136,82.69690252500001,83.05577055,58.0,84.0
137,83.180769525,83.4186708,56.0,95.0
138,83.422703025,83.6606043,55.0,91.0
139,83.664636525,84.02350455000001,56.0,91.0
140,84.027536775,84.87027180000001,53.0,91.0
141,84.87430402500001,85.11220530000001,56.0,101.0
142,85.116237525,85.35413880000002,55.0,90.0
143,85.358171025,85.5960723,53.0,76.0
144,85.600104525,86.0799393,55.0,91.0
145,86.08397152500001,86.32187280000001,61.0,91.0
146,86.32590502500001,86.56380630000001,60.0,87.0
147,86.56783852500001,87.04767330000001,58.0,99.0
148,87.051705525,87.2896068,60.0,95.0
149,87.293639025,87.7734738,58.0,95.0
150,87.77750602500001,88.74120780000001,56.0,87.0
151,88.74524002500002,88.98314130000001,56.0,84.0
152,88.987173525,89.22507480000002,58.0,87.0
153,89.229107025,89.4670083,60.0,91.0
154,89.471040525,90.07184205000001,65.0,90.0
155,90.19684102500001,90.43474230000001,63.0,95.0
156,90.43877452500001,90.91860930000001,60.0,90.0
157,90.922641525,91.28150955000001,56.0,87.0
158,91.164575025,92.85407730000001,58.0,93.0
159,92.858109525,93.09601080000002,56.0,101.0
160,93.100043025,93.3379443,55.0,90.0
161,93.341976525,96.124211775,56.0,103.0
162,117.29339302500001,117.53129430000001,51.0,65.0
163,117.53532652500002,118.01516130000002,60.0,72.0
164,118.019193525,118.2570948,58.0,91.0
165,118.26112702500001,118.4990283,56.0,81.0
166,118.50306052500001,118.98289530000001,58.0,92.0
167,118.98692752500001,119.22482880000001,60.0,82.0
168,119.22886102500001,119.70869580000002,58.0,91.0
169,119.71272802500002,120.67642980000001,51.0,87.0
170,120.68046202500001,120.79739655000002,56.0,62.0
171,120.92239552500001,121.16029680000001,53.0,65.0
172,121.16432902500001,121.40223030000001,55.0,61.0
173,121.40626252500002,121.64416380000002,56.0,61.0
174,121.64819602500002,121.88609730000002,65.0,47.0
175,121.890129525,122.1280308,63.0,68.0
176,122.13206302500001,122.3699643,56.0,63.0
177,122.37399652500001,123.70059855000001,60.0,92.0
178,123.58366402500002,123.70059855000001,60.0,98.0
179,123.825597525,124.06349880000002,58.0,90.0
180,124.06753102500001,124.3054323,60.0,93.0
181,124.30946452500001,126.2409003,61.0,92.0
182,126.24493252500001,126.96670080000001,58.0,94.0
183,126.97073302500002,127.57153455000001,60.0,91.0
184,127.696533525,128.1763683,61.0,95.0
185,130.84166902500002,130.95860355000002,56.0,91.0
186,128.180400525,130.95860355000002,60.0,100.0
187,131.083602525,131.32150380000002,58.0,87.0
188,131.32553602500002,132.0473043,63.0,91.0
189,132.051336525,132.89407155,60.0,101.0
190,132.777137025,132.89407155,60.0,98.0
191,133.261004025,133.49890530000002,61.0,95.0
192,133.50293752500002,133.7408388,63.0,91.0
193,133.744871025,133.98277230000002,65.0,87.0
194,133.98680452500003,134.7085728,58.0,91.0
195,134.71260502500002,135.19243980000002,58.0,91.0
196,135.19647202500002,135.4343733,61.0,99.0
197,135.438405525,135.55534005,60.0,90.0
198,135.68033902500002,135.9182403,58.0,86.0
199,135.922272525,136.64404080000003,56.0,93.0
200,136.648073025,137.1279078,48.0,79.0
201,137.131940025,137.36984130000002,58.0,81.0
202,137.37387352500002,137.6117748,56.0,92.0
203,137.615807025,137.85370830000002,55.0,82.0
204,137.85774052500003,138.33757530000003,55.0,94.0
205,138.341607525,139.06337580000002,53.0,85.0
206,139.06740802500002,139.3053093,56.0,97.0
207,139.309341525,139.54724280000002,55.0,92.0
208,139.55127502500002,139.7891763,53.0,73.0
209,139.793208525,140.2730433,55.0,91.0
210,140.27707552500001,140.5149768,61.0,100.0
211,140.519009025,140.75691030000002,60.0,85.0
212,140.76094252500002,141.24077730000002,58.0,90.0
213,141.24480952500002,141.4827108,55.0,79.0
214,141.486743025,143.05527855000003,56.0,94.0
215,142.93834402500002,143.05527855000003,56.0,91.0
216,143.180277525,143.41817880000002,58.0,84.0
217,143.42221102500002,143.6601123,60.0,92.0
218,143.664144525,144.38591280000003,65.0,91.0
219,144.389945025,144.74881305000002,60.0,92.0
220,144.63187852500002,145.11171330000002,61.0,101.0
221,145.11574552500002,145.3536468,63.0,87.0
222,145.357679025,145.8375138,60.0,79.0
223,145.841546025,146.32138080000001,58.0,85.0
224,146.32541302500002,146.5633143,56.0,94.0
225,146.567346525,146.80524780000002,58.0,86.0
226,146.80928002500002,147.5310483,63.0,87.0
227,147.535080525,148.2568488,60.0,105.0
228,148.260881025,148.61974905000002,60.0,98.0
229,148.744748025,148.98264930000002,61.0,95.0
230,148.98668152500002,149.2245828,63.0,84.0
231,149.228615025,149.46651630000002,65.0,87.0
232,149.47054852500003,150.19231680000001,58.0,96.0
233,150.19634902500002,150.67618380000002,58.0,99.0
234,150.68021602500002,150.9181173,61.0,97.0
235,150.922149525,151.16005080000002,60.0,90.0
236,151.16408302500002,151.4019843,58.0,87.0
237,151.406016525,152.12778480000003,56.0,97.0
238,152.131817025,152.6116518,48.0,83.0
239,152.615684025,152.85358530000002,58.0,84.0
240,152.85761752500002,153.0955188,56.0,95.0
241,153.099551025,153.33745230000002,55.0,91.0
242,153.34148452500003,153.82131930000003,56.0,91.0
243,153.825351525,154.66808655000003,53.0,91.0
244,154.55115202500002,154.7890533,56.0,101.0
245,154.793085525,155.03098680000002,55.0,90.0
246,155.03501902500003,155.2729203,53.0,76.0
247,155.276952525,155.7567873,55.0,91.0
248,155.76081952500002,155.9987208,61.0,91.0
249,156.002753025,156.24065430000002,60.0,87.0
250,156.24468652500002,156.72452130000002,58.0,99.0
251,156.72855352500002,156.9664548,60.0,95.0
252,156.970487025,157.4503218,58.0,95.0
253,157.45435402500001,158.41805580000002,56.0,87.0
254,158.42208802500002,158.6599893,56.0,84.0
255,158.664021525,158.90192280000002,58.0,87.0
256,158.90595502500003,159.1438563,60.0,91.0
257,159.147888525,159.74869005000002,65.0,90.0
258,159.873689025,160.11159030000002,63.0,95.0
259,160.11562252500002,160.59545730000002,60.0,90.0
260,160.59948952500002,160.8373908,56.0,87.0
261,160.841423025,162.5309253,58.0,93.0
262,162.534957525,162.77285880000002,56.0,101.0
263,162.77689102500003,163.0147923,55.0,90.0
264,163.018824525,166.889760525,56.0,103.0
265,168.34136152500002,168.5792628,56.0,72.0
266,168.583295025,168.82119630000003,58.0,75.0
267,168.82522852500003,169.30506330000003,60.0,82.0
268,169.309095525,169.7889303,60.0,87.0
269,169.792962525,170.2727973,58.0,77.0
270,170.276829525,170.7566643,60.0,87.0
271,170.76069652500001,170.99859780000003,58.0,71.0
272,171.00263002500003,171.24053130000001,60.0,81.0
273,171.24456352500002,171.4824648,63.0,83.0
274,171.486497025,172.32923205000003,56.0,66.0
275,172.454231025,172.69213230000003,60.0,99.0
276,172.69616452500003,173.29696605,58.0,95.0
277,173.180031525,173.29696605,58.0,91.0
278,173.663898525,173.90179980000002,58.0,93.0
279,173.90583202500002,174.1437333,56.0,71.0
280,174.147765525,174.38566680000002,55.0,72.0
281,174.38969902500003,175.35340080000003,56.0,86.0
282,175.357433025,175.59533430000002,48.0,60.0
283,175.59936652500002,175.8372678,56.0,66.0
284,175.841300025,176.07920130000002,55.0,59.0
285,176.08323352500003,176.3211348,53.0,68.0
286,176.325167025,176.56306830000003,55.0,69.0
287,176.56710052500003,179.2243368,53.0,80.0
288,179.228369025,179.46627030000002,51.0,66.0
289,179.47030252500002,179.7082038,60.0,75.0
290,179.712236025,179.95013730000002,58.0,62.0
291,179.95416952500003,180.1920708,56.0,80.0
292,180.196103025,180.43400430000003,58.0,82.0
293,180.43803652500003,184.30494030000003,56.0,95.0
