,start,end,pitch,velocity
0,0.43951252500000004,1.0786201875,44.0,73.0
1,0.9233795250000001,1.1028135375,56.0,75.0
2,0.6814460250000001,1.2197480625000001,51.0,58.0
3,1.1653130250000001,1.8457509937500003,63.0,72.0
4,1.8911135250000002,2.060466975,55.0,45.0
5,1.6491800250000002,2.0947408875000004,51.0,61.0
6,1.4072465250000001,2.12195840625,43.0,64.0
7,2.133047025,2.3749805250000002,63.0,70.0
8,3.1007810250000003,3.40823818125,56.0,63.0
9,2.8588475250000003,3.8497668187500005,53.0,64.0
10,2.6169140250000003,3.8880729562500003,48.0,62.0
11,2.3749805250000002,3.9223468687500005,41.0,73.0
12,3.3427145250000003,4.7499610500000005,60.0,70.0
13,5.036249025,5.3386659000000005,53.0,51.0
14,5.278182525,5.870919600000001,55.0,55.0
15,4.310448525,6.0019669125,39.0,67.0
16,5.278182525,6.175352587500001,58.0,63.0
17,4.794315525,6.213658725,51.0,54.0
18,4.552382025,6.2519648625,46.0,57.0
19,6.245916525,7.360826737500001,56.0,58.0
20,6.245916525,7.45457596875,41.0,63.0
21,6.245916525,7.473729037500001,60.0,53.0
22,8.181384525,8.81444385,44.0,72.0
23,8.665251525,8.850733875000001,56.0,57.0
24,8.423318025,8.9535556125,51.0,61.0
25,8.907185025,9.59367133125,63.0,72.0
26,9.632985525,9.797298693750001,55.0,61.0
27,9.149118525,9.81443565,43.0,66.0
28,9.391052025,9.82149204375,51.0,59.0
29,9.874919025,10.391043825,63.0,67.0
30,10.842653025,11.15615851875,56.0,66.0
31,10.600719525,11.587606593750001,53.0,59.0
32,10.116852525,11.606759662500002,41.0,63.0
33,10.358786025,11.628936900000001,48.0,57.0
34,11.084586525,12.461591362500002,60.0,62.0
35,12.778121025,13.119852093750001,53.0,48.0
36,12.052320525,13.408156181250002,39.0,69.0
37,12.294254025,13.45049454375,46.0,55.0
38,13.020054525,13.454526768750002,55.0,63.0
39,12.536187525,13.483760400000001,51.0,57.0
40,13.987788525000001,14.9091519375,53.0,53.0
41,13.987788525000001,14.94342585,41.0,61.0
42,13.987788525000001,14.944433906250001,56.0,55.0
43,13.987788525000001,14.996852831250001,60.0,55.0
44,16.407123525000003,16.616799225,56.0,52.0
45,15.923256525000001,16.62083145,44.0,64.0
46,16.165190025,16.70046789375,51.0,56.0
47,16.649057025,17.273043843750003,63.0,69.0
48,17.132924025,17.55630765,51.0,54.0
49,17.374857525000003,17.567396268750002,55.0,55.0
50,16.890990525000003,17.577476831250003,43.0,63.0
51,17.616791025,18.110738587500002,63.0,62.0
52,18.100658025,19.301253018750003,48.0,59.0
53,18.342591525000003,19.30326913125,53.0,56.0
54,17.858724525000003,19.3204060875,41.0,66.0
55,18.826458525000003,19.40004253125,60.0,62.0
56,18.584525025,19.416171431250003,56.0,57.0
57,19.794192525000003,20.29822065,55.0,52.0
58,19.794192525000003,20.301244818750003,58.0,51.0
59,20.519993025,21.209503500000004,55.0,34.0
60,19.794192525000003,21.27502715625,39.0,58.0
61,20.278059525000003,21.301236618750004,51.0,44.0
62,20.036126025,21.319381631250003,46.0,46.0
63,20.761926525000003,21.3808730625,58.0,45.0
64,21.729660525000003,22.23872893125,60.0,53.0
65,21.729660525000003,22.258890056250003,56.0,52.0
66,22.455461025,22.715539537500003,55.0,32.0
67,22.697394525000004,23.042149762500003,56.0,46.0
68,21.729660525000003,23.120778150000003,41.0,60.0
69,21.971594025,23.13589899375,48.0,44.0
70,22.213527525000003,23.163116512500004,53.0,44.0
71,23.665128525000004,24.198390281250003,60.0,58.0
72,23.665128525000004,24.268954218750004,53.0,46.0
73,24.390929025000002,24.745764825000002,56.0,50.0
74,24.632862525000004,25.148987325000004,61.0,67.0
75,23.665128525000004,25.156043718750002,37.0,53.0
76,24.148995525000004,25.16814039375,49.0,51.0
77,23.907062025000002,25.209470700000004,44.0,45.0
78,25.600596525000004,26.028012375000003,55.0,52.0
79,25.600596525000004,26.043133218750004,58.0,59.0
80,25.600596525000004,26.054221837500002,63.0,58.0
81,26.326397025000002,26.632846125000004,55.0,44.0
82,25.600596525000004,27.10461645,39.0,64.0
83,26.084463525000004,27.16409176875,51.0,57.0
84,25.842530025000002,27.189293175000003,46.0,57.0
85,26.568330525000004,27.350582175000003,60.0,59.0
86,28.019931525000004,28.340493412500003,67.0,47.0
87,28.261865025000002,28.52295159375,68.0,79.0
88,28.503798525000004,28.824360412500003,72.0,97.0
89,28.745732025000002,29.11770478125,67.0,33.0
90,27.536064525000004,29.204397618750004,53.0,78.0
91,28.987665525000004,29.24673598125,68.0,69.0
92,27.777998025000002,29.265889050000002,60.0,54.0
93,29.229599025000002,29.785038018750004,72.0,78.0
94,29.955399525000004,30.277977525000004,67.0,35.0
95,30.197333025000002,30.456403481250003,68.0,70.0
96,30.439266525000004,30.724546443750004,72.0,81.0
97,29.713466025000002,30.897932118750003,60.0,56.0
98,29.471532525000004,30.984624956250002,53.0,63.0
99,30.681200025000003,31.015874700000005,67.0,37.0
100,30.923133525000004,31.204381218750004,68.0,74.0
101,31.165067025000003,31.363654106250003,72.0,76.0
102,31.407000525000004,31.758812156250002,68.0,57.0
103,31.407000525000004,31.8364324875,60.0,58.0
104,31.407000525000004,31.843488881250003,63.0,58.0
105,31.407000525000004,32.0461081875,44.0,73.0
106,31.890867525000004,32.07937404375,56.0,53.0
107,32.132801025000006,32.2638483375,60.0,51.0
108,31.648934025000003,32.405984268750004,51.0,61.0
109,32.374734525,32.599531068750004,58.0,61.0
110,32.374734525,32.78299730625,63.0,57.0
111,32.858601525000005,33.0380355375,55.0,60.0
112,32.374734525,33.097510856250004,43.0,66.0
113,32.616668025,33.100535025000006,51.0,62.0
114,33.100535025000006,33.89488335,63.0,64.0
115,34.068269025000006,34.4291531625,56.0,53.0
116,33.826335525000005,34.58439382500001,53.0,56.0
117,33.584402025,34.88177041875,48.0,58.0
118,33.342468525,34.9170523875,41.0,69.0
119,34.310202525,35.054148037500006,60.0,73.0
120,35.277936525,35.771884087500005,55.0,67.0
121,35.277936525,35.771884087500005,58.0,64.0
122,36.00373702500001,36.34748420625,55.0,56.0
123,35.761803525000005,36.442241493750004,51.0,62.0
124,35.519870025,36.80110951875,46.0,51.0
125,35.277936525,36.8081659125,39.0,66.0
126,36.245670525,36.96441463125,56.0,72.0
127,37.213404525,37.679126512500005,60.0,50.0
128,37.213404525,37.743642112500005,56.0,51.0
129,37.93920502500001,38.239605787500004,55.0,40.0
130,37.455338025,38.608554375000004,48.0,44.0
131,37.697271525000005,38.608554375000004,53.0,51.0
132,37.213404525,38.61359465625,41.0,66.0
133,38.181138525,38.69827138125,56.0,52.0
134,39.148872525,39.594433387500004,60.0,56.0
135,39.148872525,39.641812031250005,56.0,55.0
136,39.148872525,39.66298121250001,53.0,51.0
137,39.632739525000005,40.413983118750004,49.0,61.0
138,39.87467302500001,40.4190234,53.0,54.0
139,39.148872525,40.73454500625,37.0,64.0
140,40.358540025,40.76881891875001,60.0,70.0
141,40.600473525000005,40.8363586875,49.0,41.0
142,39.390806025,40.86357620625,44.0,50.0
143,40.84240702500001,41.11861443750001,53.0,40.0
144,41.084340525,41.826269925000005,58.0,58.0
145,41.084340525,41.853487443750005,55.0,45.0
146,41.084340525,41.93917222500001,63.0,49.0
147,41.084340525,42.63069881250001,39.0,53.0
148,42.052074525,42.656908275000006,55.0,56.0
149,41.81014102500001,42.88976926875,51.0,39.0
150,42.535941525000005,42.959325150000005,58.0,63.0
151,43.503675525000006,43.842382425000004,67.0,48.0
152,43.74560902500001,43.99661503125,68.0,82.0
153,43.987542525,44.18814571875001,72.0,90.0
154,44.229476025000004,44.591368218750006,67.0,48.0
155,43.019808525,44.738544431250006,53.0,84.0
156,43.261742025000004,44.748624993750006,60.0,59.0
157,44.471409525000006,45.13773470625001,68.0,63.0
158,44.71334302500001,45.19216974375001,72.0,78.0
159,45.439143525000006,45.7193831625,67.0,47.0
160,45.68107702500001,45.89276883750001,68.0,79.0
161,45.197210025000004,46.4028453,60.0,59.0
162,45.923010525,46.444175606250006,75.0,56.0
163,44.955276525,46.44820783125,53.0,70.0
164,46.890744525,47.42199016875001,63.0,67.0
165,46.890744525,47.43207073125001,60.0,64.0
166,46.890744525,47.4814654875,68.0,70.0
167,47.132678025000004,47.659891443750006,51.0,53.0
168,47.61654502500001,47.741544000000005,58.0,78.0
169,47.61654502500001,47.80303543125,67.0,66.0
170,47.374611525000006,47.94819553125001,56.0,72.0
171,47.858478525,48.05807366250001,68.0,73.0
172,47.858478525,48.073194506250005,63.0,82.0
173,47.858478525,48.12561343125,60.0,88.0
174,48.342345525000006,48.44012698125,63.0,63.0
175,48.100412025000004,48.505650637500004,51.0,51.0
176,48.342345525000006,48.627625443750006,70.0,76.0
177,46.890744525,48.67601214375001,44.0,73.0
178,48.58427902500001,48.68407659375001,56.0,44.0
179,48.58427902500001,48.811091681250005,51.0,73.0
180,48.826212525,49.3040311875,58.0,62.0
181,48.826212525,49.308063412500005,67.0,73.0
182,48.826212525,49.327216481250005,63.0,69.0
183,49.068146025000004,49.80906736875001,51.0,60.0
184,49.310079525000006,50.072170050000004,55.0,67.0
185,49.55201302500001,50.11551646875,58.0,66.0
186,49.793946525,50.17902401250001,63.0,69.0
187,50.035880025000004,50.395756106250005,51.0,70.0
188,48.826212525,50.406844725000006,43.0,58.0
189,50.277813525000006,50.45523142500001,55.0,67.0
190,50.51974702500001,50.65180239375,43.0,69.0
191,50.761680525,51.24857169375,56.0,67.0
192,50.761680525,51.27377310000001,61.0,73.0
193,50.761680525,51.28284560625001,65.0,67.0
194,50.761680525,51.33022425000001,37.0,72.0
195,51.48748102500001,51.601391381250004,56.0,63.0
196,51.245547525000006,51.61550416875001,49.0,63.0
197,51.729414525,52.0338475125,63.0,63.0
198,51.729414525,52.043928075000004,67.0,70.0
199,51.971348025000005,52.12255646250001,58.0,47.0
200,51.003614025000005,52.231426537500006,44.0,56.0
201,52.213281525000006,52.52073868125,63.0,70.0
202,52.45521502500001,52.64674571250001,65.0,64.0
203,52.697148525,53.05702460625,60.0,67.0
204,52.697148525,53.09029046250001,68.0,70.0
205,52.697148525,53.105411306250005,63.0,73.0
206,53.42294902500001,53.610447487500004,63.0,64.0
207,53.664882525,53.922944925,72.0,75.0
208,53.18101552500001,53.93806576875001,56.0,64.0
209,52.939082025000005,53.93907382500001,51.0,44.0
210,52.697148525,54.01165387500001,44.0,72.0
211,53.906816025000005,54.06104863125,70.0,59.0
212,54.14874952500001,54.28786128750001,68.0,51.0
213,54.39068302500001,54.54693174375001,70.0,55.0
214,54.632616525,55.142692987500006,65.0,72.0
215,54.632616525,55.168902450000004,61.0,70.0
216,55.35841702500001,55.70821254375001,60.0,67.0
217,55.35841702500001,55.76466369375,63.0,73.0
218,54.874550025000005,55.785832875000004,53.0,56.0
219,55.842284025000005,55.916880187500006,61.0,70.0
220,55.842284025000005,55.96627494375001,65.0,70.0
221,55.11648352500001,56.007605250000005,58.0,54.0
222,54.632616525,56.230385681250006,46.0,70.0
223,56.08421752500001,56.52776227500001,53.0,57.0
224,56.568084525,57.059007918750005,58.0,69.0
225,56.568084525,57.08924960625001,66.0,69.0
226,56.568084525,57.141668531250005,61.0,72.0
227,57.29388502500001,57.686018906250006,58.0,99.0
228,57.05195152500001,57.82109844375,54.0,76.0
229,57.777752025000005,57.85638041250001,58.0,48.0
230,56.810018025000005,57.951137700000004,49.0,62.0
231,57.777752025000005,58.052951381250004,61.0,70.0
232,57.777752025000005,58.07916084375,66.0,88.0
233,58.01968552500001,58.08520918125001,49.0,55.0
234,58.01968552500001,58.11343475625001,54.0,85.0
235,56.568084525,58.146700612500005,42.0,85.0
236,58.503552525,58.870485,60.0,82.0
237,58.503552525,58.920887812500006,67.0,88.0
238,58.503552525,58.946089218750004,65.0,95.0
239,58.98741952500001,59.14568435625001,60.0,70.0
240,59.22935302500001,59.324110312500004,60.0,45.0
241,59.22935302500001,59.666849437500005,65.0,91.0
242,58.745486025000005,59.686002506250006,48.0,60.0
243,59.713220025000005,59.785800075000004,60.0,72.0
244,59.713220025000005,59.870476800000006,67.0,97.0
245,58.503552525,59.923903781250004,36.0,73.0
246,59.95515352500001,60.09728945625,48.0,67.0
247,60.439020525000004,60.725308500000004,48.0,72.0
248,60.439020525000004,60.88659750000001,36.0,73.0
249,60.439020525000004,60.920871412500006,64.0,95.0
250,60.439020525000004,60.95010504375001,67.0,78.0
251,60.439020525000004,60.97127422500001,60.0,70.0
252,60.92288752500001,61.04183816250001,48.0,61.0
253,61.406754525000004,61.8845731875,39.0,76.0
254,61.406754525000004,61.9672338,58.0,73.0
255,61.406754525000004,61.9672338,63.0,82.0
256,61.406754525000004,61.990419093750006,67.0,73.0
257,61.406754525000004,61.99243520625001,51.0,88.0
258,61.89062152500001,62.18699006250001,65.0,67.0
259,62.13255502500001,62.32408571250001,67.0,73.0
260,62.374488525000004,62.70210680625001,72.0,75.0
261,62.374488525000004,62.81400105000001,63.0,73.0
262,63.10028902500001,63.270650531250006,60.0,64.0
263,62.85835552500001,63.38254477500001,56.0,75.0
264,63.342222525000004,63.66984080625001,68.0,78.0
265,63.342222525000004,63.723267787500006,60.0,76.0
266,63.342222525000004,63.74443696875001,63.0,85.0
267,63.584156025000006,63.833145918750006,56.0,70.0
268,62.374488525000004,63.89060512500001,44.0,73.0
269,62.616422025000006,63.913790418750004,51.0,72.0
270,63.82608952500001,64.00552353750001,60.0,75.0
271,64.068023025,64.2393925875,70.0,73.0
272,64.309956525,64.82507326875,67.0,73.0
273,64.309956525,64.842210225,63.0,88.0
274,64.309956525,64.86337940625,58.0,91.0
275,65.03575702500001,65.18998963125,58.0,62.0
276,65.27769052500001,65.471237325,63.0,93.0
277,64.79382352500001,65.52668041875,55.0,60.0
278,65.51962402500001,65.5821235125,63.0,59.0
279,64.551890025,65.68796941875,51.0,60.0
280,65.51962402500001,65.72425944375,65.0,88.0
281,65.761557525,65.85530675625,55.0,70.0
282,65.761557525,65.87345176875,51.0,49.0
283,64.309956525,65.890588725,43.0,72.0
284,66.003491025,66.09724025625,70.0,66.0
285,65.761557525,66.16276391250001,67.0,78.0
286,66.245424525,66.54481723125001,60.0,88.0
287,66.245424525,66.64763896875,68.0,78.0
288,66.72929152500001,66.82304075625001,58.0,69.0
289,66.72929152500001,66.92082221250001,67.0,78.0
290,66.97122502500001,67.31295609375,60.0,91.0
291,66.97122502500001,67.37343946875001,68.0,67.0
292,66.487358025,67.41577783125001,48.0,59.0
293,67.45509202500001,67.53069624375,60.0,57.0
294,67.21315852500001,67.59722795625001,53.0,72.0
295,66.245424525,67.77666196875,41.0,75.0
296,67.45509202500001,67.8482339625,65.0,95.0
297,67.697025525,68.11335275625001,48.0,62.0
298,67.938959025,68.11738498125001,68.0,76.0
299,68.180892525,68.46617244375001,49.0,70.0
300,68.180892525,68.680888425,56.0,76.0
301,68.180892525,68.7312912375,37.0,73.0
302,68.180892525,68.7312912375,61.0,78.0
303,68.180892525,68.74338791250001,65.0,78.0
304,68.66475952500001,68.76858931875,49.0,59.0
305,69.14862652500001,69.34922971875001,49.0,88.0
306,69.14862652500001,69.73027498125,56.0,73.0
307,69.632493525,69.74237165625,49.0,91.0
308,69.14862652500001,69.74640388125,61.0,73.0
309,69.14862652500001,69.77160528750001,37.0,69.0
310,69.14862652500001,69.77261334375001,64.0,88.0
311,69.14862652500001,69.98228904375,68.0,73.0
312,70.116360525,70.84014491250001,68.0,80.0
313,70.116360525,70.874418825,58.0,78.0
314,70.116360525,70.90163634375001,63.0,82.0
315,70.116360525,71.21715795,48.0,88.0
316,71.08409452500001,71.5740098625,63.0,69.0
317,70.116360525,71.58711459375,36.0,72.0
318,71.08409452500001,71.59719515625001,58.0,69.0
319,71.08409452500001,71.6264287875,67.0,73.0
320,71.567961525,71.69497661250001,48.0,70.0
321,72.051828525,72.57904194375001,53.0,80.0
322,72.051828525,72.79678209375001,63.0,82.0
323,72.051828525,72.81492710625001,68.0,75.0
324,72.051828525,72.81895933125001,60.0,76.0
325,72.77762902500001,73.12036815,53.0,44.0
326,73.01956252500001,73.31693911875001,63.0,76.0
327,73.01956252500001,73.33911635625,60.0,72.0
328,73.01956252500001,73.36330970625,68.0,73.0
329,72.051828525,73.374398325,41.0,69.0
330,73.26149602500001,73.46109116250001,53.0,50.0
331,73.503429525,73.745363025,63.0,72.0
332,73.745363025,73.987296525,68.0,75.0
333,73.987296525,74.41672848750001,49.0,62.0
334,73.987296525,74.7191453625,61.0,73.0
335,73.987296525,74.74737093750001,65.0,76.0
336,73.987296525,74.75341927500001,56.0,75.0
337,74.71309702500001,75.07801338750001,49.0,50.0
338,74.95503052500001,75.26349573750001,56.0,73.0
339,74.95503052500001,75.29877770625001,61.0,73.0
340,74.95503052500001,75.30180187500001,65.0,72.0
341,73.987296525,75.31289049375,37.0,70.0
342,75.19696402500001,75.3864786,49.0,59.0
343,75.438897525,75.59615430000001,56.0,62.0
344,75.680831025,75.77962053750001,61.0,72.0
345,75.922764525,76.29272116875,51.0,59.0
346,75.922764525,76.47215518125,63.0,76.0
347,75.922764525,76.49030019375,58.0,70.0
348,75.922764525,76.52154993750001,67.0,72.0
349,76.40663152500001,76.68687116250001,51.0,46.0
350,76.64856502500001,76.78062039375001,56.0,88.0
351,76.64856502500001,76.8058218,61.0,76.0
352,76.64856502500001,77.01045721875,65.0,76.0
353,76.89049852500001,77.16368176875001,51.0,52.0
354,77.13243202500001,77.25541488750001,58.0,85.0
355,77.13243202500001,77.27759212500001,67.0,85.0
356,77.13243202500001,77.2836404625,63.0,76.0
357,75.922764525,77.39553470625,39.0,61.0
358,77.374365525,77.51650145625001,51.0,69.0
359,77.616299025,78.08101295625,63.0,59.0
360,77.858232525,78.08302906875001,60.0,69.0
361,77.858232525,78.15359300625,68.0,76.0
362,77.858232525,78.2070199875,44.0,70.0
363,78.10016602500001,78.30379338750001,51.0,61.0
364,78.34209952500001,78.64149223125001,56.0,50.0
365,78.58403302500001,78.7029836625,63.0,55.0
366,78.58403302500001,78.70600783125,68.0,63.0
367,78.58403302500001,78.73120923750001,75.0,69.0
368,78.82596652500001,79.07294030625,63.0,78.0
369,78.82596652500001,79.07697253125001,68.0,75.0
370,78.82596652500001,79.10318199375001,75.0,75.0
371,78.82596652500001,79.13443173750001,60.0,73.0
372,78.58403302500001,79.16568148125,58.0,69.0
373,79.18886677500001,79.44592111875001,63.0,72.0
374,79.18886677500001,79.48926753750001,72.0,82.0
375,79.551767025,79.73422520625,68.0,69.0
376,79.793700525,80.10115768125,70.0,76.0
377,79.793700525,80.15357660625001,63.0,75.0
378,80.51950102500001,80.71909616250001,58.0,72.0
379,80.27756752500001,80.87736099375,55.0,60.0
380,80.76143452500001,80.92373158125001,63.0,56.0
381,80.03563402500001,81.03965805000001,51.0,57.0
382,79.793700525,81.07494001875001,43.0,75.0
383,81.00336802500001,81.33501853125001,65.0,59.0
384,81.245301525,81.52352505,67.0,64.0
385,81.487235025,81.59912926875,70.0,72.0
386,81.729168525,82.01444844375001,60.0,70.0
387,81.729168525,82.26545445000001,68.0,73.0
388,82.21303552500001,82.31384115,58.0,57.0
389,82.21303552500001,82.39952593125001,67.0,62.0
390,81.97110202500001,82.74629728125001,48.0,44.0
391,82.45496902500001,82.78661953125001,60.0,76.0
392,82.45496902500001,82.78964370000001,68.0,62.0
393,82.69690252500001,82.99125495000001,53.0,48.0
394,82.93883602500001,83.06282694375001,60.0,73.0
395,82.93883602500001,83.08802835,67.0,78.0
396,81.729168525,83.24830929375001,41.0,69.0
397,83.180769525,83.27855098125,48.0,66.0
398,83.422703025,83.60919343125,63.0,67.0
399,83.664636525,84.10717321875,56.0,66.0
400,83.664636525,84.11725378125001,65.0,64.0
401,83.664636525,84.12027795,61.0,69.0
402,83.90657002500001,84.39346119375001,44.0,59.0
403,83.664636525,84.40555786875001,37.0,76.0
404,84.14850352500001,84.41563843125,49.0,48.0
405,84.39043702500001,84.53055684375,56.0,55.0
406,84.63237052500001,84.92974711875002,68.0,36.0
407,84.63237052500001,84.9509163,61.0,45.0
408,84.63237052500001,84.96200491875001,56.0,67.0
409,84.63237052500001,84.97410159375,64.0,42.0
410,84.87430402500001,85.25534928750001,49.0,48.0
411,85.116237525,85.27047013125001,56.0,61.0
412,84.63237052500001,85.29768765000001,37.0,70.0
413,85.358171025,85.45696053750001,61.0,66.0
414,85.600104525,85.94183559375001,48.0,64.0
415,85.600104525,86.02449620625,58.0,69.0
416,85.600104525,86.06381040000001,67.0,70.0
417,85.600104525,86.14143073125001,63.0,76.0
418,85.600104525,86.24828469375001,36.0,73.0
419,86.08397152500001,86.25634914375001,48.0,61.0
420,86.32590502500001,86.43981538125001,58.0,51.0
421,86.56783852500001,86.7412242,48.0,58.0
422,86.56783852500001,86.93779516875001,64.0,93.0
423,86.56783852500001,87.09706805625001,36.0,66.0
424,86.56783852500001,87.1101727875,58.0,80.0
425,86.56783852500001,87.12529363125,67.0,63.0
426,87.051705525,87.19081728750001,48.0,72.0
427,87.535572525,87.69282930000001,53.0,69.0
428,87.535572525,88.11419681250001,60.0,91.0
429,87.535572525,88.11419681250001,65.0,66.0
430,88.01943952500001,88.156535175,53.0,64.0
431,87.535572525,88.17367213125002,41.0,70.0
432,87.535572525,88.17770435625,68.0,85.0
433,88.26137302500001,88.3238725125,68.0,28.0
434,88.50330652500001,88.75532058750001,58.0,76.0
435,88.50330652500001,88.75834475625001,67.0,76.0
436,88.50330652500001,88.89544040625,41.0,55.0
437,88.74524002500002,88.90652902500001,53.0,47.0
438,88.987173525,89.22608285625,63.0,78.0
439,88.987173525,89.23213119375,58.0,85.0
440,89.229107025,89.33293681875001,53.0,66.0
441,89.229107025,89.43676661250001,63.0,67.0
442,89.471040525,89.8520857875,49.0,72.0
443,89.471040525,90.06276954375001,61.0,70.0
444,89.471040525,90.06881788125001,56.0,75.0
445,89.471040525,90.10813207500001,65.0,75.0
446,90.19684102500001,90.57990240000001,49.0,51.0
447,90.43877452500001,90.890383725,56.0,80.0
448,89.471040525,90.91356901875001,37.0,75.0
449,90.43877452500001,91.00731825000001,65.0,73.0
450,90.43877452500001,91.01840686875,61.0,73.0
451,90.922641525,91.06276134375001,49.0,57.0
452,91.406508525,91.77646516875001,51.0,75.0
453,91.406508525,91.88835941250001,63.0,72.0
454,91.406508525,91.92162526875,67.0,72.0
455,91.406508525,91.95085890000001,58.0,69.0
456,92.13230902500001,92.511338175,51.0,56.0
457,92.37424252500001,92.60105518125,56.0,75.0
458,92.37424252500001,92.69379635625,61.0,80.0
459,92.37424252500001,92.71698165000001,65.0,73.0
460,92.858109525,92.94177819375001,65.0,62.0
461,91.406508525,92.9488345875,39.0,72.0
462,92.858109525,92.95589098125001,63.0,56.0
463,92.858109525,92.97605210625001,58.0,64.0
464,92.858109525,92.97605210625001,67.0,70.0
465,93.341976525,93.81374685000002,68.0,76.0
466,93.341976525,93.817779075,63.0,72.0
467,93.341976525,93.84197242500001,60.0,73.0
468,94.06777702500001,94.40547586875,65.0,60.0
469,93.82584352500001,94.51636205625,51.0,44.0
470,94.06777702500001,94.54861985625001,61.0,62.0
471,94.55164402500002,94.90244760000002,56.0,57.0
472,93.341976525,94.9407537375,44.0,75.0
473,94.793577525,95.01131767500002,60.0,60.0
474,95.035511025,95.23006588125001,61.0,64.0
475,95.277444525,95.608086975,63.0,62.0
476,95.277444525,95.67764285625,60.0,67.0
477,95.277444525,95.70586843125001,68.0,57.0
478,96.00324502500001,96.34699220625001,58.0,60.0
479,96.24517852500001,96.40747558125001,60.0,59.0
480,95.76131152500001,96.66553798125001,56.0,57.0
481,96.48711202500002,96.72299718750001,63.0,53.0
482,95.51937802500001,96.74416636875002,51.0,54.0
483,95.277444525,96.8439639375,44.0,75.0
484,97.21291252500001,97.47702326250001,60.0,60.0
485,97.21291252500001,97.4850877125,64.0,66.0
486,97.21291252500001,97.5052488375,67.0,63.0
487,97.69677952500001,97.97298693750001,64.0,70.0
488,97.69677952500001,97.97903527500002,60.0,62.0
489,97.69677952500001,97.99617223125001,67.0,69.0
490,98.18064652500001,98.51532120000002,60.0,63.0
491,98.18064652500001,98.52741787500001,64.0,69.0
492,98.18064652500001,98.54253871875001,67.0,58.0
493,97.21291252500001,98.8520119875,36.0,60.0
494,97.21291252500001,98.86410866250002,48.0,67.0
495,98.664513525,98.93568065625001,60.0,73.0
496,98.664513525,98.94172899375,64.0,70.0
497,98.664513525,98.96491428750001,67.0,73.0
498,98.906447025,99.14838052500001,43.0,66.0
499,99.14838052500001,99.36108039375002,60.0,63.0
500,99.14838052500001,99.3842656875,64.0,64.0
501,99.14838052500001,99.40341875625,67.0,48.0
502,99.14838052500001,99.41954765625,36.0,70.0
503,99.14838052500001,99.4407168375,48.0,73.0
504,99.63224752500001,99.78345596250001,60.0,66.0
505,99.63224752500001,99.88627770000001,67.0,67.0
506,99.63224752500001,99.90543076875001,64.0,67.0
507,99.63224752500001,99.94373690625001,36.0,67.0
508,99.63224752500001,99.94474496250001,48.0,55.0
509,100.11611452500001,100.4326441875,60.0,66.0
510,100.11611452500001,100.43365224375,67.0,63.0
511,100.11611452500001,100.4528053125,64.0,70.0
512,100.11611452500001,100.470950325,36.0,63.0
513,100.11611452500001,100.47195838125,48.0,60.0
514,100.599981525,100.7673188625,60.0,58.0
515,100.599981525,100.81772167500002,36.0,58.0
516,100.599981525,100.82679418125001,67.0,67.0
517,100.599981525,100.858043925,64.0,73.0
518,100.599981525,100.88122921875001,48.0,69.0
519,100.841915025,100.9326400875,40.0,61.0
520,101.08384852500001,101.38424928750001,68.0,70.0
521,101.08384852500001,101.40037818750001,60.0,69.0
522,101.08384852500001,101.41953125625001,65.0,73.0
523,101.56771552500001,101.8560196125,68.0,69.0
524,101.56771552500001,101.86811628750002,53.0,54.0
525,101.56771552500001,101.87114045625,60.0,67.0
526,101.56771552500001,101.89130158125,65.0,70.0
527,102.05158252500001,102.29654019375,60.0,67.0
528,102.05158252500001,102.30964492500001,65.0,67.0
529,102.05158252500001,102.34089466875001,53.0,63.0
530,102.05158252500001,102.36206385000001,68.0,73.0
531,101.08384852500001,102.38625720000002,41.0,73.0
532,102.535449525,102.62315041875001,67.0,69.0
533,102.535449525,102.6261745875,51.0,62.0
534,102.535449525,102.6302068125,63.0,73.0
535,102.535449525,102.63524709375001,58.0,64.0
536,102.535449525,102.66952100625001,39.0,80.0
537,103.01931652500001,103.12213826250002,34.0,73.0
538,103.01931652500001,103.567699125,46.0,64.0
539,103.01931652500001,103.753181475,68.0,55.0
540,103.01931652500001,103.76427009375001,58.0,72.0
541,103.01931652500001,103.76628620625002,62.0,73.0
542,103.01931652500001,104.05862251875001,65.0,69.0
543,103.98705052500001,104.28644323125,58.0,69.0
544,103.74511702500001,104.33180576250001,53.0,61.0
545,103.50318352500001,104.43563555625,50.0,64.0
546,104.22898402500002,104.53442506875001,62.0,97.0
547,104.470917525,104.67756905625001,63.0,67.0
548,104.95478452500001,105.27433835625001,65.0,73.0
549,104.95478452500001,105.28744308750001,60.0,75.0
550,105.19671802500001,105.79651149375,46.0,59.0
551,105.68058502500001,105.99509857500001,63.0,75.0
552,105.43865152500001,106.01223553125001,51.0,66.0
553,105.68058502500001,106.03441276875002,55.0,72.0
554,105.68058502500001,106.03542082500002,58.0,72.0
555,104.95478452500001,106.14933118125,39.0,75.0
556,105.92251852500002,106.18158898125002,46.0,70.0
557,106.16445202500002,106.32775713750002,55.0,80.0
558,106.406385525,106.46182861875,55.0,41.0
559,106.406385525,106.57775508750001,58.0,73.0
560,106.648319025,106.72795546875001,63.0,45.0
561,106.648319025,106.72997158125001,38.0,64.0
562,106.89025252500001,107.09589600000001,32.0,80.0
563,106.89025252500001,107.40335315625,56.0,95.0
564,107.13218602500001,107.43157873125001,44.0,80.0
565,106.89025252500001,107.54145686250001,60.0,91.0
566,107.85798652500002,108.16745979375001,58.0,67.0
567,107.61605302500001,108.29850710625001,51.0,44.0
568,108.09992002500002,108.30959572500001,60.0,72.0
569,107.37411952500001,108.34790186250001,48.0,64.0
570,108.341853525,108.46987666875,63.0,75.0
571,108.82572052500001,109.09688765625,56.0,67.0
572,108.82572052500001,109.14930658125002,61.0,70.0
573,108.82572052500001,109.17551604375001,65.0,69.0
574,108.82572052500001,109.30857946875001,49.0,76.0
575,109.30958752500001,109.63317358125,56.0,66.0
576,109.30958752500001,109.69365695625001,63.0,58.0
577,109.55152102500001,109.89526820625001,49.0,48.0
578,109.79345452500002,110.08478278125001,56.0,78.0
579,109.79345452500002,110.10897613125002,61.0,82.0
580,109.79345452500002,110.1301453125,65.0,75.0
581,108.82572052500001,110.29042625625002,37.0,64.0
582,110.03538802500002,110.34385323750001,49.0,72.0
583,110.277321525,110.41340911875001,56.0,97.0
584,110.64022177500001,110.98598506875001,63.0,54.0
585,110.76118852500001,111.04949261250002,53.0,75.0
586,110.76118852500001,111.0535248375,60.0,67.0
587,110.76118852500001,111.09183097500001,56.0,72.0
588,110.76118852500001,111.34485309375,50.0,82.0
589,111.24505552500001,111.5696496375,63.0,41.0
590,111.24505552500001,111.60089938125002,53.0,67.0
591,111.48698902500001,111.825695925,50.0,66.0
592,111.72892252500002,112.06258914375002,60.0,76.0
593,111.72892252500002,112.067629425,56.0,80.0
594,111.72892252500002,112.06964553750001,53.0,75.0
595,110.76118852500001,112.325691825,38.0,80.0
596,111.97085602500002,112.34282878125,50.0,70.0
597,112.212789525,112.43960218125001,53.0,75.0
598,112.454723025,112.59786701250002,56.0,66.0
599,112.69665652500001,113.07467761875002,58.0,75.0
600,112.69665652500001,113.13012071250002,55.0,82.0
601,113.42245702500001,113.68555970625002,56.0,80.0
602,113.66439052500002,113.76519615000001,58.0,67.0
603,112.93859002500001,114.0736613625,46.0,64.0
604,113.90632402500002,114.18857977500001,63.0,75.0
605,114.148257525,114.3155948625,68.0,72.0
606,113.18052352500001,114.40732798125,51.0,70.0
607,112.69665652500001,114.45369856875001,39.0,67.0
608,114.39019102500001,114.57063309375,70.0,72.0
609,114.51115777500002,114.65329370625001,46.0,55.0
610,114.63212452500001,115.13615265000001,58.0,69.0
611,114.63212452500001,115.22788576875001,55.0,66.0
612,114.63212452500001,115.23998244375001,63.0,64.0
613,115.11599152500001,115.63816466250002,46.0,51.0
614,115.59985852500002,115.98392795625001,63.0,66.0
615,115.59985852500002,115.98896823750002,55.0,70.0
616,115.59985852500002,116.00005685625001,58.0,73.0
617,114.63212452500001,116.09178997500001,39.0,73.0
618,115.59985852500002,116.16638613750001,51.0,60.0
619,116.083725525,116.61295505625002,46.0,62.0
620,116.56759252500001,117.09883816875,63.0,67.0
621,116.56759252500001,117.09883816875,63.0,69.0
622,116.56759252500001,117.10891873125001,60.0,64.0
623,116.56759252500001,117.10891873125001,60.0,70.0
624,116.56759252500001,117.15831348750001,68.0,70.0
625,116.56759252500001,117.15831348750001,68.0,70.0
626,116.56759252500001,117.33673944375,51.0,70.0
627,116.80952602500001,117.33673944375,51.0,53.0
628,117.29339302500001,117.41839200000001,58.0,78.0
629,117.29339302500001,117.47988343125002,67.0,66.0
630,117.05145952500001,117.62504353125001,56.0,72.0
631,117.53532652500002,117.73492166250001,68.0,73.0
632,117.53532652500002,117.75004250625001,63.0,82.0
633,117.53532652500002,117.80246143125001,60.0,88.0
634,117.77726002500002,117.93552485625001,51.0,51.0
635,118.019193525,118.0574996625,63.0,63.0
636,116.56759252500001,118.16536168125,39.0,67.0
637,118.019193525,118.18249863750002,51.0,52.0
638,118.26112702500001,118.27826398125,51.0,73.0
639,118.019193525,118.30447344375001,70.0,76.0
640,116.56759252500001,118.35286014375001,44.0,73.0
641,118.26112702500001,118.36092459375001,56.0,44.0
642,118.26112702500001,118.37503738125001,68.0,67.0
643,118.50306052500001,118.98087918750001,58.0,62.0
644,118.50306052500001,118.98491141250001,67.0,73.0
645,118.50306052500001,119.00406448125001,63.0,69.0
646,118.74499402500001,119.48591536875001,51.0,60.0
647,118.98692752500001,119.74901805000002,55.0,67.0
648,119.22886102500001,119.79236446875001,58.0,66.0
649,119.47079452500002,119.85587201250001,63.0,69.0
650,119.71272802500002,120.07260410625001,51.0,70.0
651,118.50306052500001,120.083692725,43.0,58.0
652,119.954661525,120.13207942500001,55.0,67.0
653,120.19659502500001,120.32865039375001,43.0,69.0
654,120.43852852500001,120.92541969375002,56.0,67.0
655,120.43852852500001,120.9506211,61.0,73.0
656,120.43852852500001,120.95969360625001,65.0,67.0
657,120.43852852500001,121.00707225000001,37.0,72.0
658,121.16432902500001,121.27823938125002,56.0,63.0
659,120.92239552500001,121.29235216875001,49.0,63.0
660,121.40626252500002,121.71069551250001,63.0,63.0
661,121.40626252500002,121.72077607500002,67.0,70.0
662,121.64819602500002,121.79940446250001,58.0,47.0
663,120.68046202500001,121.9082745375,44.0,56.0
664,121.890129525,122.19758668125002,63.0,70.0
665,122.13206302500001,122.32359371250001,65.0,64.0
666,122.37399652500001,122.73387260625002,60.0,67.0
667,122.37399652500001,122.76713846250001,68.0,70.0
668,122.37399652500001,122.78225930625001,63.0,73.0
669,123.09979702500002,123.28729548750002,63.0,64.0
670,123.34173052500002,123.59979292500002,72.0,75.0
671,122.85786352500001,123.61491376875001,56.0,64.0
672,122.61593002500001,123.61592182500002,51.0,44.0
673,122.37399652500001,123.68850187500001,44.0,72.0
674,123.58366402500002,123.73789663125001,70.0,59.0
675,123.825597525,123.96470928750001,68.0,51.0
676,124.06753102500001,124.22377974375001,70.0,55.0
677,124.30946452500001,124.8195409875,65.0,72.0
678,124.30946452500001,124.84575045000001,61.0,70.0
679,125.03526502500002,125.38506054375001,60.0,67.0
680,125.03526502500002,125.44151169375002,63.0,73.0
681,124.55139802500001,125.46268087500002,53.0,56.0
682,125.51913202500002,125.5937281875,61.0,70.0
683,125.51913202500002,125.64312294375001,65.0,70.0
684,124.79333152500001,125.68445325000002,58.0,54.0
685,124.30946452500001,125.90723368125,46.0,70.0
686,125.761065525,126.20461027500001,53.0,57.0
687,126.24493252500001,126.73585591875002,58.0,69.0
688,126.24493252500001,126.76609760625001,66.0,69.0
689,126.24493252500001,126.81851653125001,61.0,72.0
690,126.97073302500002,127.36286690625002,58.0,99.0
691,126.72879952500001,127.49794644375001,54.0,76.0
692,127.45460002500002,127.53322841250001,58.0,48.0
693,126.48686602500001,127.62798570000001,49.0,62.0
694,127.45460002500002,127.72979938125002,61.0,70.0
695,127.45460002500002,127.75600884375001,66.0,88.0
696,127.696533525,127.76205718125001,49.0,55.0
697,127.696533525,127.79028275625001,54.0,85.0
698,126.24493252500001,127.82354861250002,42.0,85.0
699,128.180400525,128.547333,60.0,82.0
700,128.180400525,128.59773581250002,67.0,88.0
701,128.180400525,128.62293721875002,65.0,95.0
702,128.664267525,128.82253235625,60.0,70.0
703,128.906201025,129.00095831250002,60.0,45.0
704,128.906201025,129.34369743750003,65.0,91.0
705,128.42233402500003,129.36285050625003,48.0,60.0
706,129.390068025,129.462648075,60.0,72.0
707,129.390068025,129.5473248,67.0,97.0
708,128.180400525,129.60075178125,36.0,73.0
709,129.63200152500002,129.77413745625,48.0,67.0
710,130.11586852500002,130.40215650000002,48.0,72.0
711,130.11586852500002,130.5634455,36.0,73.0
712,130.11586852500002,130.59771941250003,64.0,95.0
713,130.11586852500002,130.62695304375,67.0,78.0
714,130.11586852500002,130.648122225,60.0,70.0
715,130.599735525,130.7186861625,48.0,61.0
716,131.083602525,131.5614211875,39.0,76.0
717,131.083602525,131.6440818,58.0,73.0
718,131.083602525,131.6440818,63.0,82.0
719,131.083602525,131.66726709375,67.0,73.0
720,131.083602525,131.66928320625001,51.0,88.0
721,131.567469525,131.8638380625,65.0,67.0
722,131.80940302500002,132.0009337125,67.0,73.0
723,132.051336525,132.37895480625002,72.0,75.0
724,132.051336525,132.49084905,63.0,73.0
725,132.777137025,132.94749853125,60.0,64.0
726,132.53520352500001,133.05939277500002,56.0,75.0
727,133.01907052500002,133.34668880625,68.0,78.0
728,133.01907052500002,133.4001157875,60.0,76.0
729,133.01907052500002,133.42128496875,63.0,85.0
730,133.261004025,133.50999391875,56.0,70.0
731,132.051336525,133.56745312500001,44.0,73.0
732,132.29327002500003,133.59063841875002,51.0,72.0
733,133.50293752500002,133.68237153750002,60.0,75.0
734,133.744871025,133.9162405875,70.0,73.0
735,133.98680452500003,134.50192126875,67.0,73.0
736,133.98680452500003,134.519058225,63.0,88.0
737,133.98680452500003,134.54022740625,58.0,91.0
738,134.71260502500002,134.86683763125,58.0,62.0
739,134.954538525,135.148085325,63.0,93.0
740,134.470671525,135.20352841875,55.0,60.0
741,135.19647202500002,135.2589715125,63.0,59.0
742,134.228738025,135.36481741875002,51.0,60.0
743,135.19647202500002,135.40110744375002,65.0,88.0
744,135.438405525,135.53215475625,55.0,70.0
745,135.438405525,135.55029976875002,51.0,49.0
746,133.98680452500003,135.56743672500002,43.0,72.0
747,135.68033902500002,135.77408825625002,70.0,66.0
748,135.438405525,135.8396119125,67.0,78.0
749,135.922272525,136.22166523125,60.0,88.0
750,135.922272525,136.32448696875002,68.0,78.0
751,136.40613952500001,136.49988875625002,58.0,69.0
752,136.40613952500001,136.59767021250002,67.0,78.0
753,136.648073025,136.98980409375002,60.0,91.0
754,136.648073025,137.05028746875,68.0,67.0
755,136.16420602500003,137.09262583125002,48.0,59.0
756,137.131940025,137.20754424375002,60.0,57.0
757,136.89000652500002,137.27407595625002,53.0,72.0
758,135.922272525,137.45350996875,41.0,75.0
759,137.131940025,137.52508196250002,65.0,95.0
760,137.37387352500002,137.79020075625002,48.0,62.0
761,137.615807025,137.79423298125002,68.0,76.0
762,137.85774052500003,138.14302044375,49.0,70.0
763,137.85774052500003,138.357736425,56.0,76.0
764,137.85774052500003,138.40813923750002,37.0,73.0
765,137.85774052500003,138.40813923750002,61.0,78.0
766,137.85774052500003,138.4202359125,65.0,78.0
767,138.341607525,138.44543731875,49.0,59.0
768,138.825474525,139.02607771875,49.0,88.0
769,138.825474525,139.40712298125,56.0,73.0
770,139.309341525,139.41921965625002,49.0,91.0
771,138.825474525,139.42325188125002,61.0,73.0
772,138.825474525,139.4484532875,37.0,69.0
773,138.825474525,139.44946134375002,64.0,88.0
774,138.825474525,139.65913704375,68.0,73.0
775,139.793208525,140.5169929125,68.0,80.0
776,139.793208525,140.55126682500003,58.0,78.0
777,139.793208525,140.57848434375,63.0,82.0
778,139.793208525,140.89400595,48.0,88.0
779,140.76094252500002,141.25085786250003,63.0,69.0
780,139.793208525,141.26396259375002,36.0,72.0
781,140.76094252500002,141.27404315625,58.0,69.0
782,140.76094252500002,141.3032767875,67.0,73.0
783,141.24480952500002,141.3718246125,48.0,70.0
784,141.72867652500003,142.25588994375002,53.0,80.0
785,141.72867652500003,142.47363009375002,63.0,82.0
786,141.72867652500003,142.49177510625,68.0,75.0
787,141.72867652500003,142.49580733125,60.0,76.0
788,142.45447702500002,142.79721615000003,53.0,44.0
789,142.696410525,142.99378711875002,63.0,76.0
790,142.696410525,143.01596435625,60.0,72.0
791,142.696410525,143.04015770625003,68.0,73.0
792,141.72867652500003,143.05124632500002,41.0,69.0
793,142.93834402500002,143.1379391625,53.0,50.0
794,143.180277525,143.42221102500002,63.0,72.0
795,143.42221102500002,143.664144525,68.0,75.0
796,143.664144525,144.0935764875,49.0,62.0
797,143.664144525,144.3959933625,61.0,73.0
798,143.664144525,144.4242189375,65.0,76.0
799,143.664144525,144.430267275,56.0,75.0
800,144.389945025,144.7548613875,49.0,50.0
801,144.63187852500002,144.9403437375,56.0,73.0
802,144.63187852500002,144.97562570625,61.0,73.0
803,144.63187852500002,144.978649875,65.0,72.0
804,143.664144525,144.98973849375002,37.0,70.0
805,144.873812025,145.0633266,49.0,59.0
806,145.11574552500002,145.2730023,56.0,62.0
807,145.357679025,145.4564685375,61.0,72.0
808,145.59961252500003,145.96956916875,51.0,59.0
809,145.59961252500003,146.14900318125,63.0,76.0
810,145.59961252500003,146.16714819375002,58.0,70.0
811,145.59961252500003,146.1983979375,67.0,72.0
812,146.083479525,146.36371916250002,51.0,46.0
813,146.32541302500002,146.45746839375002,56.0,88.0
814,146.32541302500002,146.48266980000002,61.0,76.0
815,146.32541302500002,146.68730521875003,65.0,76.0
816,146.567346525,146.84052976875,51.0,52.0
817,146.80928002500002,146.9322628875,58.0,85.0
818,146.80928002500002,146.95444012500002,67.0,85.0
819,146.80928002500002,146.96048846250002,63.0,76.0
820,145.59961252500003,147.07238270625,39.0,61.0
821,147.051213525,147.19334945625002,51.0,69.0
822,147.29314702500002,147.75786095625003,63.0,59.0
823,147.535080525,147.75987706875,60.0,69.0
824,147.535080525,147.83044100625003,68.0,76.0
825,147.535080525,147.88386798750003,44.0,70.0
826,147.77701402500003,147.98064138750001,51.0,61.0
827,148.01894752500002,148.31834023125,56.0,50.0
828,148.260881025,148.3798316625,63.0,55.0
829,148.260881025,148.38285583125003,68.0,63.0
830,148.260881025,148.4080572375,75.0,69.0
831,148.50281452500002,148.74978830625003,63.0,78.0
832,148.50281452500002,148.75382053125003,68.0,75.0
833,148.50281452500002,148.78002999375002,75.0,75.0
834,148.50281452500002,148.8112797375,60.0,73.0
835,148.260881025,148.84252948125,58.0,69.0
836,148.86571477500001,149.12276911875003,63.0,72.0
837,148.86571477500001,149.16611553750002,72.0,82.0
838,149.228615025,149.41107320625002,68.0,69.0
839,149.47054852500003,149.77800568125002,70.0,76.0
840,149.47054852500003,149.83042460625,63.0,75.0
841,150.19634902500002,150.3959441625,58.0,72.0
842,149.954415525,150.55420899375002,55.0,60.0
843,150.438282525,150.60057958125,63.0,56.0
844,149.712482025,150.71650605000002,51.0,57.0
845,149.47054852500003,150.75178801875,43.0,75.0
846,150.68021602500002,151.01186653125,65.0,59.0
847,150.922149525,151.20037305000002,67.0,64.0
848,151.16408302500002,151.27597726875,70.0,72.0
849,151.406016525,151.69129644375002,60.0,70.0
850,151.406016525,151.94230245000003,68.0,73.0
851,151.88988352500002,151.99068915,58.0,57.0
852,151.88988352500002,152.07637393125,67.0,62.0
853,151.64795002500003,152.42314528125002,48.0,44.0
854,152.131817025,152.46346753125002,60.0,76.0
855,152.131817025,152.4664917,68.0,62.0
856,152.37375052500002,152.66810295000002,53.0,48.0
857,152.615684025,152.73967494375,60.0,73.0
858,152.615684025,152.76487635,67.0,78.0
859,151.406016525,152.92515729375,41.0,69.0
860,152.85761752500002,152.95539898125003,48.0,66.0
861,153.099551025,153.28604143125003,63.0,67.0
862,153.34148452500003,153.78402121875,56.0,66.0
863,153.34148452500003,153.79410178125002,65.0,64.0
864,153.34148452500003,153.79712595,61.0,69.0
865,153.58341802500001,154.07030919375,44.0,59.0
866,153.34148452500003,154.08240586875002,37.0,76.0
867,153.825351525,154.09248643125002,49.0,48.0
868,154.06728502500002,154.20740484375003,56.0,55.0
869,154.309218525,154.60659511875002,68.0,36.0
870,154.309218525,154.62776430000002,61.0,45.0
871,154.309218525,154.63885291875002,56.0,67.0
872,154.309218525,154.65094959375003,64.0,42.0
873,154.55115202500002,154.9321972875,49.0,48.0
874,154.793085525,154.94731813125003,56.0,61.0
875,154.309218525,154.97453565,37.0,70.0
876,155.03501902500003,155.13380853750002,61.0,66.0
877,155.276952525,155.61868359375,48.0,64.0
878,155.276952525,155.70134420625,58.0,69.0
879,155.276952525,155.74065840000003,67.0,70.0
880,155.276952525,155.81827873125002,63.0,76.0
881,155.276952525,155.92513269375002,36.0,73.0
882,155.76081952500002,155.93319714375002,48.0,61.0
883,156.002753025,156.11666338125002,58.0,51.0
884,156.24468652500002,156.4180722,48.0,58.0
885,156.24468652500002,156.61464316875,64.0,93.0
886,156.24468652500002,156.77391605625002,36.0,66.0
887,156.24468652500002,156.7870207875,58.0,80.0
888,156.24468652500002,156.80214163125,67.0,63.0
889,156.72855352500002,156.86766528750002,48.0,72.0
890,157.21242052500003,157.3696773,53.0,69.0
891,157.21242052500003,157.79104481250002,60.0,91.0
892,157.21242052500003,157.79104481250002,65.0,66.0
893,157.696287525,157.83338317500002,53.0,64.0
894,157.21242052500003,157.85052013125002,41.0,70.0
895,157.21242052500003,157.85455235625003,68.0,85.0
896,157.93822102500002,158.0007205125,68.0,28.0
897,158.180154525,158.4321685875,58.0,76.0
898,158.180154525,158.43519275625002,67.0,76.0
899,158.180154525,158.57228840625,41.0,55.0
900,158.42208802500002,158.583377025,53.0,47.0
901,158.664021525,158.90293085625,63.0,78.0
902,158.664021525,158.90897919375,58.0,85.0
903,158.90595502500003,159.00978481875,53.0,66.0
904,158.90595502500003,159.11361461250002,63.0,67.0
905,159.147888525,159.52893378750002,49.0,72.0
906,159.147888525,159.73961754375003,61.0,70.0
907,159.147888525,159.74566588125,56.0,75.0
908,159.147888525,159.78498007500002,65.0,75.0
909,159.873689025,160.25675040000002,49.0,51.0
910,160.11562252500002,160.56723172500003,56.0,80.0
911,159.147888525,160.59041701875,37.0,75.0
912,160.11562252500002,160.68416625,65.0,73.0
913,160.11562252500002,160.69525486875003,61.0,73.0
914,160.59948952500002,160.73960934375,49.0,57.0
915,161.08335652500003,161.45331316875001,51.0,75.0
916,161.08335652500003,161.56520741250003,63.0,72.0
917,161.08335652500003,161.59847326875,67.0,72.0
918,161.08335652500003,161.62770690000002,58.0,69.0
919,161.80915702500002,162.18818617500003,51.0,56.0
920,162.051090525,162.27790318125002,56.0,75.0
921,162.051090525,162.37064435625,61.0,80.0
922,162.051090525,162.39382965000001,65.0,73.0
923,162.534957525,162.61862619375,65.0,62.0
924,161.08335652500003,162.62568258750002,39.0,72.0
925,162.534957525,162.63273898125001,63.0,56.0
926,162.534957525,162.65290010625003,58.0,64.0
927,162.534957525,162.65290010625003,67.0,70.0
928,163.018824525,163.49059485,68.0,76.0
929,163.018824525,163.494627075,63.0,72.0
930,163.018824525,163.51882042500003,60.0,73.0
931,163.744625025,164.08232386875002,65.0,60.0
932,163.50269152500002,164.19321005625002,51.0,44.0
933,163.744625025,164.22546785625002,61.0,62.0
934,164.228492025,164.57929560000002,56.0,57.0
935,163.018824525,164.61760173750002,44.0,75.0
936,164.47042552500002,164.68816567500002,60.0,60.0
937,164.712359025,164.90691388125,61.0,64.0
938,164.95429252500003,165.28493497500003,63.0,62.0
939,164.95429252500003,165.35449085625,60.0,67.0
940,164.95429252500003,165.38271643125,68.0,57.0
941,165.68009302500002,166.02384020625001,58.0,60.0
942,165.922026525,166.08432358125,60.0,59.0
943,165.438159525,166.34238598125,56.0,57.0
944,166.16396002500002,166.3998451875,63.0,53.0
945,165.19622602500002,166.42101436875,51.0,54.0
946,164.95429252500003,166.5208119375,44.0,75.0
947,166.405893525,166.54198111875002,68.0,63.0
948,166.64782702500003,166.74661653750002,70.0,60.0
949,166.889760525,167.95527598125003,58.0,52.0
950,166.889760525,167.98954989375002,60.0,55.0
951,166.889760525,168.01273518750003,63.0,61.0
952,166.889760525,168.03793659375,68.0,60.0
953,166.889760525,168.06011383125002,44.0,55.0
954,166.889760525,168.10245219375003,51.0,53.0
955,166.889760525,168.11555692500002,56.0,58.0
956,168.82522852500003,169.12865345625002,72.0,70.0
957,168.82522852500003,169.50969871875003,56.0,49.0
958,169.309095525,169.61050434375002,63.0,60.0
959,169.55102902500002,169.77582556875,72.0,61.0
960,169.06716202500002,169.837317,60.0,66.0
961,169.792962525,170.00163016875,63.0,52.0
962,169.792962525,170.12259691875002,70.0,70.0
963,169.792962525,170.41493323125002,55.0,62.0
964,170.03489602500002,170.421989625,60.0,57.0
965,170.276829525,170.4965857875,63.0,56.0
966,170.51876302500003,171.06412145625,75.0,62.0
967,170.76069652500001,171.21734600625,68.0,69.0
968,171.486497025,171.87560673750002,68.0,60.0
969,171.24456352500002,171.91290481875,65.0,56.0
970,170.76069652500001,172.15685443125003,53.0,69.0
971,171.00263002500003,172.20020085000002,60.0,58.0
972,171.72843052500002,172.478424375,72.0,67.0
973,172.69616452500003,173.17902346875002,67.0,62.0
974,172.69616452500003,173.18507180625002,70.0,61.0
975,173.42196502500002,173.74151885625002,65.0,56.0
976,173.180031525,173.82417946875,63.0,55.0
977,172.69616452500003,173.99554903125002,51.0,70.0
978,173.663898525,174.09433854375,67.0,73.0
979,172.93809802500002,174.11248355625003,58.0,46.0
980,174.63163252500001,174.88667075625003,68.0,57.0
981,174.63163252500001,174.92699300625003,72.0,59.0
982,175.59936652500002,175.72940578125002,72.0,49.0
983,175.59936652500002,175.79392138125002,80.0,63.0
984,175.59936652500002,175.90077534375,65.0,45.0
985,174.63163252500001,175.96025066250002,53.0,58.0
986,175.11549952500002,176.08222546875,60.0,37.0
987,176.08323352500003,176.18504720625,70.0,55.0
988,176.08323352500003,176.18504720625,79.0,58.0
989,176.56710052500003,176.77677622500002,77.0,62.0
990,176.56710052500003,176.84330793750001,68.0,66.0
991,177.29290102500002,177.8674930875,63.0,60.0
992,177.77676802500002,178.083217125,68.0,70.0
993,176.80903402500002,178.13866021875,56.0,58.0
994,177.050967525,178.14571661250002,61.0,53.0
995,176.56710052500003,179.5932853875,49.0,70.0
996,180.31706977500002,180.50053601250002,63.0,48.0
997,180.43803652500003,180.7727112,44.0,69.0
998,180.43803652500003,180.83823485625,68.0,59.0
999,180.67997002500002,180.8956940625,51.0,59.0
1000,180.43803652500003,181.16887730625,72.0,72.0
1001,180.921903525,181.252545975,56.0,61.0
1002,181.405770525,181.64770402500002,63.0,70.0
1003,181.405770525,181.69508266875002,72.0,78.0
1004,181.405770525,181.75254187500002,60.0,75.0
1005,181.16383702500002,181.7787513375,58.0,66.0
1006,181.768670775,181.8432669375,63.0,54.0
1007,181.768670775,182.03177345625002,70.0,91.0
1008,182.13157102500003,182.37652869375,68.0,69.0
1009,182.37350452500002,182.67995362500002,43.0,69.0
1010,182.61543802500003,182.81200899375003,51.0,55.0
1011,182.37350452500002,182.86241180625,63.0,64.0
1012,182.37350452500002,182.94507241875002,70.0,80.0
1013,182.85737152500002,183.2061589875,55.0,49.0
1014,183.099305025,183.22430400000002,68.0,69.0
1015,183.099305025,183.24950540625002,63.0,59.0
1016,183.099305025,183.55393839375003,58.0,61.0
1017,183.583172025,183.67087291875,67.0,80.0
1018,184.067039025,184.20010245000003,63.0,44.0
1019,184.30897252500003,184.58013965625003,60.0,64.0
1020,184.30897252500003,184.63054246875,68.0,73.0
1021,184.792839525,184.88558070000002,58.0,51.0
1022,184.792839525,184.92791906250002,67.0,67.0
1023,185.03477302500002,185.16078005625002,60.0,61.0
1024,185.03477302500002,185.17287673125003,65.0,72.0
1025,185.51864002500002,185.62851815625,58.0,62.0
1026,185.51864002500002,185.63456649375001,63.0,63.0
1027,184.55090602500002,185.65674373125003,48.0,55.0
1028,184.30897252500003,185.81601661875,41.0,67.0
1029,185.760573525,185.8633952625,48.0,58.0
1030,186.00250702500003,186.11641738125002,56.0,53.0
1031,186.24444052500002,186.48738208125002,65.0,67.0
1032,186.24444052500002,186.50451903750002,56.0,62.0
1033,186.24444052500002,186.51863182500003,61.0,63.0
1034,186.24444052500002,186.86237900625002,37.0,69.0
1035,186.72830752500002,186.88354818750003,56.0,54.0
1036,186.48637402500003,186.96419268750003,49.0,53.0
1037,186.970241025,187.13052196875003,61.0,69.0
1038,187.21217452500002,187.454108025,58.0,63.0
1039,187.21217452500002,187.454108025,67.0,72.0
1040,187.21217452500002,187.4883819375,63.0,66.0
1041,187.21217452500002,187.61539702500002,39.0,73.0
1042,187.454108025,187.81297605000003,51.0,51.0
1043,187.69604152500003,187.857330525,58.0,57.0
1044,187.93797502500001,188.10329625000003,63.0,66.0
1045,188.17990852500003,188.3028913875,63.0,54.0
1046,188.17990852500003,188.30793166875003,60.0,64.0
1047,188.17990852500003,188.34926197500002,68.0,73.0
1048,188.663775525,188.99038575000003,63.0,63.0
1049,188.90570902500002,189.31901208750003,72.0,75.0
1050,189.38957602500003,189.49642998750002,70.0,76.0
1051,189.38957602500003,189.49844610000002,63.0,67.0
1052,188.17990852500003,189.51961528125003,44.0,70.0
1053,188.42184202500002,189.52969584375,51.0,51.0
1054,189.87344302500003,190.05791731875001,68.0,73.0
1055,190.11537652500002,190.2565044,67.0,76.0
1056,190.59924352500002,190.78573393125,63.0,69.0
1057,190.841177025,190.9117409625,60.0,59.0
1058,190.59924352500002,190.913757075,51.0,56.0
1059,190.841177025,190.91879735625002,58.0,56.0
1060,190.841177025,191.04379633125,67.0,64.0
1061,191.325044025,191.41072880625,63.0,69.0
1062,191.325044025,191.41375297500002,60.0,60.0
1063,191.325044025,191.47322829375003,70.0,73.0
1064,190.35731002500003,191.53068750000003,46.0,59.0
1065,190.11537652500002,191.63552535000002,39.0,70.0
1066,191.56697752500003,191.69500066875003,51.0,54.0
1067,191.80891102500001,191.97423225000003,70.0,66.0
1068,192.05084452500003,192.34217278125,63.0,58.0
1069,192.05084452500003,192.40568032500002,68.0,69.0
1070,192.05084452500003,192.48330065625,72.0,56.0
1071,192.77664502500002,193.04982826875002,65.0,60.0
1072,192.77664502500002,193.06998939375,68.0,70.0
1073,192.77664502500002,193.06998939375,73.0,70.0
1074,193.26051202500003,193.60829143125002,56.0,48.0
1075,193.502445525,193.73329040625,65.0,49.0
1076,193.74437902500003,193.9439741625,73.0,70.0
1077,193.98631252500002,194.47925203125,63.0,50.0
1078,193.98631252500002,194.54275957500002,56.0,55.0
1079,193.98631252500002,194.63852491875002,68.0,52.0
1080,193.98631252500002,194.71916941875003,72.0,55.0
1081,194.95404652500002,195.25847951250003,56.0,53.0
1082,192.534711525,195.34618040625003,51.0,43.0
1083,195.195980025,195.37138181250003,75.0,59.0
1084,192.05084452500003,195.38751071250002,44.0,72.0
1085,195.43791352500003,195.65363756250002,80.0,66.0
1086,195.67984702500002,195.83811185625,82.0,39.0
1087,195.80081377500002,196.05887617500002,75.0,48.0
1088,195.92178052500003,196.12339177500002,80.0,34.0
1089,195.92178052500003,196.155649575,32.0,61.0
1090,196.042747275,196.29778550625002,87.0,56.0
