,start,end,pitch,velocity
0,0.19196409374999998,0.5029756875,71.0,93.0
1,0.46279715624999995,0.6205350937499999,73.0,89.0
2,0.5877970312499999,0.8437491562499999,75.0,86.0
3,0.80208253125,0.9523799999999999,76.0,78.0
4,1.30505821875,1.43601046875,83.0,82.0
5,1.6622007187499999,1.8229148437499998,85.0,71.0
6,2.0193432187499996,2.1711287812499998,87.0,74.0
7,0.9226181249999998,2.6309497499999996,78.0,85.0
8,2.3764857187499997,2.9121994687499995,87.0,78.0
9,3.0907707187499995,3.5818416562499995,85.0,75.0
10,3.0907707187499995,3.8377937812499994,76.0,86.0
11,3.8050557187499994,4.15624584375,83.0,74.0
12,3.8050557187499994,4.15922203125,80.0,64.0
13,4.87648321875,5.05951875,85.0,82.0
14,5.233625718749999,5.569934906249999,83.0,82.0
15,6.3050532187499995,6.5505886874999995,83.0,78.0
16,3.8050557187499994,6.66219571875,75.0,89.0
17,6.66219571875,7.409218781249999,83.0,82.0
18,6.66219571875,7.413683062499999,80.0,75.0
19,7.733623218749999,7.936003968749999,80.0,69.0
20,7.733623218749999,7.936003968749999,83.0,76.0
21,6.66219571875,7.995527718749999,68.0,82.0
22,6.66219571875,8.034218156249999,71.0,86.0
23,8.09076571875,8.60266996875,80.0,68.0
24,8.09076571875,8.61159853125,83.0,76.0
25,8.80505071875,9.340764468749999,78.0,75.0
26,8.09076571875,9.36159778125,66.0,81.0
27,8.09076571875,9.372014437499999,70.0,82.0
28,8.80505071875,9.380942999999998,82.0,80.0
29,9.519335718749998,11.726178749999999,83.0,75.0
30,9.519335718749998,11.732131124999999,78.0,70.0
31,9.519335718749998,12.31099959375,66.0,77.0
32,9.519335718749998,12.321416249999999,71.0,78.0
33,35.233595718749996,36.684487125,80.0,76.0
34,36.662165718749996,38.069902406249994,78.0,78.0
35,38.09073571875,39.5981746875,71.0,71.0
36,38.09073571875,39.76335309375,75.0,77.0
37,40.233590718749994,40.830316312499995,71.0,82.0
38,40.94787571875,41.9553151875,64.0,75.0
39,40.94787571875,42.16513640624999,68.0,65.0
40,42.37644571875,43.334778093749996,70.0,77.0
41,42.37644571875,43.41811134374999,66.0,72.0
42,43.80501571874999,44.889836062499995,66.0,70.0
43,43.80501571874999,44.946383624999996,71.0,69.0
44,44.87644321875,45.29013328124999,73.0,82.0
45,45.23358571874999,46.483584468749996,75.0,82.0
46,46.66215571874999,47.41661925,71.0,75.0
47,47.37644071875,48.1160233125,68.0,77.0
48,48.090725718749994,48.81989165624999,70.0,78.0
49,48.80501071875,49.462748156249994,66.0,64.0
50,49.519295718749994,50.252925937499995,71.0,77.0
51,50.23358071874999,50.965722843749994,70.0,78.0
52,50.947865718749995,52.01929321874999,68.0,72.0
53,50.947865718749995,52.02226940625,71.0,74.0
54,52.376435718749995,54.113041124999995,68.0,71.0
55,52.376435718749995,54.13833871874999,71.0,75.0
56,54.16214821874999,55.06095684374999,64.0,75.0
57,54.51929071874999,55.092206812499995,71.0,77.0
58,55.23357571875,55.468694531249994,66.0,74.0
59,55.23357571875,55.65173006249999,73.0,82.0
60,55.59071821874999,56.08030106249999,66.0,77.0
61,55.94786071874999,57.79309696874999,73.0,82.0
62,56.66214571875,57.818394562499996,78.0,73.0
63,56.305003218749995,57.82732312499999,66.0,81.0
64,58.09071571874999,58.46125106249999,82.0,83.0
65,58.44785821874999,58.845179249999994,78.0,79.0
66,58.805000718749994,59.208274124999996,75.0,76.0
67,59.162143218749996,61.013331843749995,78.0,78.0
68,60.94785571874999,62.64577068749999,82.0,82.0
69,62.733568218749994,63.11154403124999,80.0,76.0
70,63.090710718749996,63.52076981249999,78.0,81.0
71,63.44785321874999,63.82285284374999,75.0,79.0
72,63.80499571874999,65.86898174999999,80.0,76.0
73,65.94785071874999,66.02523159375,80.0,73.0
74,66.30499321875,66.6933856875,80.0,85.0
75,66.66213571875,68.49546721875,78.0,84.0
76,68.44784821875,68.81987165624999,75.0,82.0
77,68.80499071874999,69.18296653124999,73.0,83.0
78,69.16213321874999,70.65171506249999,71.0,73.0
79,70.59070321875,72.11153503124999,68.0,79.0
80,70.94784571874999,72.17105878125,71.0,67.0
81,72.37641571875,73.08474834375,78.0,84.0
82,73.09070071874999,73.83474759375,75.0,82.0
83,73.80498571874999,74.87492512499999,71.0,76.0
84,75.23355571875,75.91212646874999,80.0,84.0
85,75.94784071874999,76.6903995,76.0,78.0
86,76.66212571874999,77.42402971874999,71.0,77.0
87,77.37641071875,77.9671839375,68.0,79.0
88,78.09069571874998,78.78414740624999,66.0,73.0
89,78.09069571874998,78.8005164375,70.0,81.0
90,78.80498071874999,79.58474184375,73.0,83.0
91,79.51926571874999,80.72759784374999,78.0,77.0
92,80.94783571874999,81.72908493749999,71.0,76.0
93,80.94783571874999,81.74098968749999,75.0,84.0
94,81.66212071874999,82.74842915625,78.0,78.0
95,82.73354821874999,83.13384543749999,83.0,84.0
96,83.09069071875,83.49694031249999,82.0,86.0
97,83.44783321874999,83.71420199999999,78.0,77.0
98,83.80497571874999,85.81390228125,78.0,78.0
99,84.16211821875,85.92997359374999,75.0,71.0
100,85.94783071874998,86.6219371875,80.0,82.0
101,86.66211571874999,87.24544846874998,78.0,76.0
102,87.01925821875,87.54009103124999,75.0,73.0
103,87.37640071874999,87.75735271874998,80.0,82.0
104,87.73354321874999,89.41657724999999,78.0,80.0
105,89.51925571874999,90.27520734374998,82.0,83.0
106,90.23354071874999,90.6874093125,78.0,79.0
107,90.94782571875,92.11151503125,78.0,73.0
108,90.59068321874999,92.16955068749999,73.0,80.0
109,92.73353821874998,93.27222815625,71.0,75.0
110,92.37639571874999,93.30496621875,75.0,83.0
111,93.09068071875,94.63234584374999,68.0,67.0
112,93.44782321874999,94.71419099999999,71.0,73.0
113,95.23353571874999,96.743950875,75.0,78.0
114,96.66210571874998,97.83769978125,71.0,74.0
115,98.09067571874999,98.75138934374999,80.0,79.0
116,98.80496071875,100.32876871874998,76.0,73.0
117,100.23353071874999,100.61299462499998,73.0,82.0
118,100.59067321874998,100.97608949999999,71.0,81.0
119,103.04900409374999,103.3600156875,71.0,93.0
120,100.94781571875,103.47757509374999,73.0,83.0
121,103.31983715624999,103.47757509374999,73.0,89.0
122,103.44483703124999,103.70078915624998,75.0,86.0
123,103.65912253124999,103.80941999999999,76.0,78.0
124,103.77965812499998,105.48798974999998,78.0,85.0
125,105.56388253124999,106.16656049999999,83.0,103.0
126,106.28560799999998,106.99840490624999,82.0,98.0
127,106.970131125,108.39870112499999,78.0,84.0
128,108.38084399999998,108.7350103125,76.0,87.0
129,108.7350103125,109.14870037499999,75.0,91.0
130,109.09215281249999,109.51477143749999,76.0,93.0
131,109.48798574999999,110.96268665624999,78.0,93.0
132,111.2409601875,111.80941199999998,83.0,99.0
133,111.81090009374999,111.94334043749998,81.0,83.0
134,111.90464999999999,112.41208996874998,82.0,82.0
135,112.37042334374999,113.81536237499999,78.0,89.0
136,114.01923121875,114.08321924999998,78.0,51.0
137,114.05048118749998,114.14423109375,79.0,74.0
138,114.12488587499999,114.53708784374999,80.0,82.0
139,114.49095693749999,114.87042084374998,83.0,99.0
140,114.83619468749998,115.01774212499998,85.0,91.0
141,115.15167056249999,115.26625378124999,86.0,88.0
142,115.21268240624998,115.54750349999999,87.0,84.0
143,115.53559874999999,115.99095543749999,80.0,83.0
144,115.93291978124999,116.28410990624998,83.0,96.0
145,116.26922896874999,116.34660984374999,86.0,71.0
146,116.30494321874998,117.01922821874999,87.0,91.0
147,116.99690681249999,117.49988249999998,80.0,88.0
148,117.31833506249998,117.67250137499998,83.0,96.0
149,117.63678712499998,117.74244178124998,86.0,82.0
150,117.69482278124998,118.44631012499998,87.0,88.0
151,118.42994109374999,118.79898834374998,80.0,87.0
152,118.75285743749998,119.57726137499999,83.0,89.0
153,119.82726112499999,119.92249912499999,76.0,98.0
154,119.89571343749999,120.80791490624999,78.0,77.0
155,120.76476018749999,120.92249812499999,76.0,78.0
156,120.88083149999999,120.98350996874998,75.0,83.0
157,120.98053378124999,122.22755634374998,73.0,88.0
158,122.36892524999999,122.72160346874999,73.0,96.0
159,122.72606774999998,122.81535337499999,79.0,83.0
160,122.74243678124999,123.46267415624999,80.0,91.0
161,123.42547181249999,124.67547056249998,78.0,91.0
162,124.82427993749998,125.53856493749998,78.0,83.0
163,126.28856418749999,126.40761168749998,76.0,49.0
164,126.34511174999999,126.45969496874999,75.0,60.0
165,126.41356406249999,126.50731396874998,73.0,68.0
166,126.47159971874999,126.55046868749999,71.0,66.0
167,126.52963537499998,126.58171865624999,70.0,62.0
168,126.57130199999999,126.60255196874999,68.0,64.0
169,149.51919571874998,150.970087125,80.0,76.0
170,150.94776571875,152.35550240625,78.0,78.0
171,152.37633571874997,153.8837746875,71.0,71.0
172,152.37633571874997,154.04895309375,75.0,77.0
173,154.51919071875,155.1159163125,71.0,82.0
174,155.23347571875,156.24091518749998,64.0,75.0
175,155.23347571875,156.45073640624997,68.0,65.0
176,156.66204571875,157.62037809375,70.0,77.0
177,156.66204571875,157.70371134374997,66.0,72.0
178,158.09061571874997,159.17543606249998,66.0,70.0
179,158.09061571874997,159.23198362499997,71.0,69.0
180,159.16204321874997,159.57573328125,73.0,82.0
181,159.51918571874998,160.76918446874998,75.0,82.0
182,160.94775571875,161.70221924999998,71.0,75.0
183,161.66204071874998,162.4016233125,68.0,77.0
184,162.37632571875,163.10549165625,70.0,78.0
185,163.09061071874999,163.74834815625,66.0,64.0
186,163.80489571874998,164.53852593749997,71.0,77.0
187,164.51918071875,165.25132284375,70.0,78.0
188,165.23346571874998,166.30489321874998,68.0,72.0
189,165.23346571874998,166.30786940624998,71.0,74.0
190,166.66203571875,168.39864112499998,68.0,71.0
191,166.66203571875,168.42393871874998,71.0,75.0
192,168.44774821874998,169.34655684375,64.0,75.0
193,168.80489071875,169.37780681249998,71.0,77.0
194,169.51917571874998,169.75429453124997,66.0,74.0
195,169.51917571874998,169.93733006249997,73.0,82.0
196,169.87631821875,170.36590106249997,66.0,77.0
197,170.23346071874997,172.07869696875,73.0,82.0
198,170.94774571874999,172.1039945625,78.0,73.0
199,170.59060321874998,172.11292312499998,66.0,81.0
200,172.37631571875,172.74685106249999,82.0,83.0
201,172.73345821874997,173.13077925,78.0,79.0
202,173.09060071874998,173.493874125,75.0,76.0
203,173.44774321875,175.29893184374998,78.0,78.0
204,175.23345571874998,176.9313706875,82.0,82.0
205,177.01916821874997,177.39714403124998,80.0,76.0
206,177.37631071874998,177.80636981249998,78.0,81.0
207,177.73345321875,178.10845284374997,75.0,79.0
208,178.09059571874997,180.15458174999998,80.0,76.0
209,180.23345071875,180.31083159374998,80.0,73.0
210,180.59059321874997,180.97898568749997,80.0,85.0
211,180.94773571874998,182.78106721874997,78.0,84.0
212,182.73344821874997,183.10547165625,75.0,82.0
213,183.09059071874998,183.46856653125,73.0,83.0
214,183.44773321875,184.93731506249998,71.0,73.0
215,184.87630321874997,186.39713503124997,68.0,79.0
216,185.23344571874998,186.45665878124998,71.0,67.0
217,186.66201571874998,187.37034834374998,78.0,84.0
218,187.37630071874997,188.12034759374998,75.0,82.0
219,188.09058571875,189.160525125,71.0,76.0
220,189.51915571874997,190.19772646874998,80.0,84.0
221,190.23344071875,190.97599949999997,76.0,78.0
222,190.94772571874998,191.70962971874997,71.0,77.0
223,191.66201071874997,192.25278393749997,68.0,79.0
224,192.37629571875,193.06974740624997,66.0,73.0
225,192.37629571875,193.08611643749998,70.0,81.0
226,193.09058071874998,193.87034184374997,73.0,83.0
227,193.80486571874997,195.01319784374996,78.0,77.0
228,195.23343571874997,196.01468493749996,71.0,76.0
229,195.23343571874997,196.02658968749998,75.0,84.0
230,195.94772071875,197.03402915624997,78.0,78.0
231,197.01914821875,197.41944543749997,83.0,84.0
232,197.37629071874997,197.78254031249998,82.0,86.0
233,197.73343321874998,197.999802,78.0,77.0
234,198.09057571875,200.09950228124998,78.0,78.0
235,198.44771821874997,200.21557359374998,75.0,71.0
236,200.23343071875,200.90753718749997,80.0,82.0
237,200.94771571874998,201.53104846875,78.0,76.0
238,201.30485821874998,201.82569103125,75.0,73.0
239,201.66200071874997,202.04295271874997,80.0,82.0
240,202.01914321874997,203.70217724999998,78.0,80.0
241,203.80485571875,204.56080734374999,82.0,83.0
242,204.51914071874998,204.97300931249998,78.0,79.0
243,205.23342571874997,206.39711503124997,78.0,73.0
244,204.87628321875,206.45515068749998,73.0,80.0
245,207.01913821875,207.55782815624997,71.0,75.0
246,206.66199571874998,207.59056621874998,75.0,83.0
247,207.37628071874997,208.91794584374998,68.0,67.0
248,207.73342321874998,208.999791,71.0,73.0
249,209.51913571874996,211.02955087499998,75.0,78.0
250,210.94770571874997,212.12329978124998,71.0,74.0
251,212.37627571874998,213.03698934374998,80.0,79.0
252,213.09056071874997,214.61436871874997,76.0,73.0
253,214.51913071874998,214.898594625,73.0,82.0
254,214.87627321875,215.2616895,71.0,81.0
255,217.33906837499998,217.59055621874998,71.0,86.0
256,215.23341571874997,217.75722271874997,73.0,83.0
257,217.55335387499997,217.75722271874997,73.0,83.0
258,217.71555609374997,218.00424628124998,75.0,88.0
259,217.94472253124997,218.12924615624996,76.0,80.0
260,218.09204381249998,218.41049587499998,78.0,88.0
261,218.42091253124997,218.73787649999997,71.0,85.0
262,218.80484071874997,219.07716187499997,73.0,87.0
263,219.13966181249998,219.43728056249998,76.0,84.0
264,219.50573287499998,220.07716087499998,75.0,83.0
265,219.50870906249997,220.12329178124997,78.0,83.0
266,220.21852978124997,220.78102921874998,73.0,86.0
267,220.21257740624998,220.84352915624999,76.0,83.0
268,220.91644574999998,221.58013556249998,71.0,82.0
269,220.92239812499997,221.58013556249998,75.0,84.0
270,221.99680181249997,222.26019440624998,70.0,83.0
271,221.99084943749997,222.28549199999998,73.0,83.0
272,222.34501575,222.97596749999997,68.0,84.0
273,222.33757528124997,223.01316984374998,71.0,84.0
274,223.05483646874998,223.39858612499998,70.0,86.0
275,223.40156231249998,223.69174059374998,71.0,78.0
276,223.40007421874998,223.69620487499998,68.0,78.0
277,223.77060956249997,224.84203706249997,71.0,83.0
278,223.76912146874997,224.84650134374996,68.0,81.0
279,224.84203706249997,224.84650134374996,68.0,82.0
280,224.84501324999997,225.12031059374996,71.0,83.0
281,225.20364384374997,225.40751268749997,66.0,77.0
282,225.20959621874997,225.47150071874998,70.0,80.0
283,225.5563220625,225.79590515624997,71.0,83.0
284,225.55483396874996,225.82269084374997,68.0,82.0
285,225.90602409374998,226.23489281249996,70.0,82.0
286,225.91197646874997,226.23786899999996,73.0,86.0
287,226.26614278124998,226.70215424999998,66.0,87.0
288,226.60691624999998,228.74977124999998,75.0,86.0
289,226.60691624999998,228.75274743749998,71.0,87.0
290,228.767628375,229.01911621874999,71.0,86.0
291,228.98191387499998,229.18578271874998,73.0,83.0
292,229.14411609374997,229.43280628124998,75.0,88.0
293,229.37328253124997,229.55780615624997,76.0,80.0
294,229.52060381249998,229.83905587499999,78.0,88.0
295,229.84947253124997,230.16643649999997,71.0,85.0
296,230.23340071874998,230.50572187499998,73.0,87.0
297,230.56822181249998,230.86584056249998,76.0,84.0
298,230.93429287499998,231.50572087499998,75.0,83.0
299,230.93726906249998,231.55185178124998,78.0,83.0
300,231.64708978124997,232.20958921874998,73.0,86.0
301,231.64113740624998,232.27208915624996,76.0,83.0
302,232.34500574999998,233.00869556249998,71.0,82.0
303,232.35095812499998,233.00869556249998,75.0,84.0
304,233.42536181249997,233.68875440624998,70.0,83.0
305,233.41940943749998,233.71405199999998,73.0,83.0
306,233.77357574999996,234.40452749999997,68.0,84.0
307,233.76613528124997,234.44172984374998,71.0,84.0
308,234.58905112499997,235.1217886875,70.0,78.0
309,234.58161065624998,235.23637190624999,66.0,77.0
310,235.07565778125,235.51762162499998,71.0,82.0
311,235.49232403124998,236.70214424999998,64.0,75.0
312,235.50720496874996,236.73339421874996,68.0,73.0
313,236.85392981249998,237.56226243749998,64.0,75.0
314,236.85095362499996,237.71553609374996,71.0,79.0
315,237.62476237499996,238.13815471874997,70.0,75.0
316,237.62178618749996,238.2408331875,66.0,75.0
317,238.23041653124997,238.73785649999996,71.0,78.0
318,238.21999987499998,238.75273743749997,68.0,75.0
319,238.79886834374997,240.05481946874997,70.0,76.0
320,238.81077309375,240.16047412499998,73.0,82.0
321,240.30630731249997,243.69023249999998,66.0,66.0
322,240.42535481249996,243.69023249999998,71.0,65.0
323,240.4729738125,243.69023249999998,75.0,77.0
324,240.61880699999998,243.83606568749997,78.0,77.0
