,start,end,pitch,velocity
0,12.019333218749999,12.150285468749999,71.0,85.0
1,12.197904468749998,12.322904343749999,73.0,89.0
2,12.37647571875,13.639867312499998,75.0,86.0
3,13.805045718749998,14.220223874999999,73.0,93.0
4,14.340759468749999,14.809508999999998,71.0,84.0
5,14.876473218749998,15.194925281249999,70.0,87.0
6,15.233615718749999,16.4910549375,71.0,80.0
7,17.91218446875,18.026767687499998,66.0,75.0
8,18.09075571875,18.30206503125,71.0,84.0
9,18.447898218749998,18.61456471875,71.0,80.0
10,18.805040718749996,19.00742146875,71.0,83.0
11,19.16218321875,19.339266374999998,71.0,83.0
12,19.41218296875,19.6517660625,70.0,84.0
13,19.87646821875,20.147301281249998,70.0,83.0
14,20.233610718749997,20.59075321875,68.0,86.0
15,20.59075321875,21.30503821875,68.0,84.0
16,21.30503821875,22.438965656249998,66.0,78.0
17,23.447893218749996,23.571405,71.0,86.0
18,23.626464468749997,23.726166749999997,73.0,88.0
19,23.80503571875,25.062474937499996,75.0,86.0
20,25.23360571875,25.685986218749996,73.0,84.0
21,25.76931946875,26.227652343749998,71.0,83.0
22,26.305033218749998,26.599675781249996,70.0,83.0
23,26.662175718749996,28.626459468749996,71.0,82.0
24,29.162173218749995,29.261875499999995,78.0,85.0
25,29.340744468749996,29.425565812499997,75.0,89.0
26,29.519315718749997,29.830327312499996,73.0,91.0
27,29.876458218749995,30.763362093749997,71.0,86.0
28,30.947885718749998,31.163659312499995,73.0,84.0
29,31.305028218749996,31.535682749999996,73.0,83.0
30,31.662170718749998,31.909194281249995,73.0,82.0
31,32.01931321875,32.69044349999999,75.0,83.0
32,32.73359821875,33.98359696875,71.0,83.0
33,34.16216821875,34.428537,71.0,88.0
34,34.51931071875,34.76931046875,75.0,89.0
35,34.876453218749994,35.101155375,78.0,88.0
36,35.233595718749996,36.160678125,80.0,84.0
37,36.305023218749994,36.560975343749995,80.0,84.0
38,36.662165718749996,36.946391625,78.0,82.0
39,37.01930821875,37.254427031249996,73.0,87.0
40,37.37645071874999,37.6457956875,73.0,89.0
41,37.733593218749995,37.989545343749995,76.0,83.0
42,38.09073571875,39.784186406249994,75.0,85.0
43,39.87644821874999,40.12644796874999,71.0,85.0
44,40.233590718749994,40.494007124999996,75.0,88.0
45,40.590733218749996,40.84073296875,78.0,85.0
46,40.94787571875,41.238054,78.0,86.0
47,40.94787571875,41.238054,78.0,87.0
48,41.30501821874999,41.39281575,76.0,84.0
49,41.48358946875,41.8541248125,76.0,83.0
50,42.01930321875,42.27376725,75.0,83.0
51,42.37644571875,42.65620734375,76.0,84.0
52,42.73358821874999,42.97912368749999,75.0,89.0
53,43.090730718749995,43.31543287499999,73.0,89.0
54,43.44787321875,44.002932187499994,71.0,91.0
55,44.162158218749994,45.208288124999996,75.0,96.0
56,45.590728218749994,45.87197793749999,71.0,88.0
57,45.947870718749996,46.1636443125,75.0,87.0
58,46.30501321875,46.553524874999994,78.0,86.0
59,46.66215571874999,47.555011968749994,80.0,83.0
60,47.73358321874999,48.04608290624999,80.0,87.0
61,48.090725718749994,48.409177781249994,82.0,86.0
62,48.447868218749996,48.78715359374999,80.0,87.0
63,48.80501071875,49.092212812499994,82.0,84.0
64,49.16215321874999,49.38983156249999,83.0,87.0
65,49.519295718749994,49.877926312499994,83.0,87.0
66,49.86453346875,50.12494987499999,78.0,79.0
67,50.23358071874999,50.498461406249994,78.0,83.0
68,50.59072321874999,50.952329999999996,75.0,86.0
69,50.947865718749995,51.75887681249999,71.0,83.0
70,52.01929321874999,52.269292968749994,71.0,87.0
71,52.376435718749995,52.63982831249999,80.0,88.0
72,52.73357821875,52.82881621874999,78.0,83.0
73,52.912149468749995,53.25738721875,78.0,84.0
74,53.447863218749994,53.657684437499995,78.0,83.0
75,53.805005718749996,54.17256487499999,78.0,86.0
76,54.339231375,54.54905259374999,75.0,83.0
77,54.876433218749995,55.4553016875,75.0,86.0
78,55.59071821874999,57.148752374999994,73.0,89.0
79,57.376430718749994,57.68000184374999,78.0,86.0
80,57.733573218749996,57.985061062499994,75.0,83.0
81,58.09071571874999,58.29012028124999,73.0,87.0
82,58.44785821874999,59.15916703124999,71.0,86.0
83,59.162143218749996,60.154701749999994,75.0,84.0
84,60.233570718749995,60.511844249999996,78.0,85.0
85,60.59071321874999,60.83922487499999,75.0,86.0
86,60.94785571874999,61.23803399999999,73.0,84.0
87,61.304998218749994,61.93148568749999,71.0,83.0
88,62.01928321874999,62.55499696874999,73.0,88.0
89,62.733568218749994,62.95827037499999,73.0,84.0
90,63.090710718749996,63.336246187499995,73.0,86.0
91,63.44785321874999,63.70826962499999,75.0,82.0
92,63.80499571874999,64.05648356249999,73.0,84.0
93,64.16213821874999,64.33475709375,71.0,83.0
94,64.51928071875,64.76481618749999,71.0,84.0
95,64.87642321874999,65.13088724999999,83.0,87.0
96,65.23356571874999,65.47910118749999,83.0,84.0
97,65.59070821875,65.84814843749999,82.0,86.0
98,65.94785071874999,66.19189809375,80.0,83.0
99,66.30499321875,67.52820628125,78.0,83.0
100,67.73356321874999,67.97314631249999,71.0,84.0
101,68.09070571874999,68.40320540625,71.0,86.0
102,68.44784821875,68.708264625,70.0,82.0
103,68.80499071874999,69.05945474999999,71.0,86.0
104,69.16213321874999,69.380883,80.0,83.0
105,69.51927571875,70.28415590624999,80.0,82.0
106,70.59070321875,70.803500625,80.0,84.0
107,70.94784571874999,71.1933811875,80.0,84.0
108,71.30498821875,71.5802855625,78.0,82.0
109,71.66213071874999,71.922547125,75.0,85.0
110,72.01927321874999,72.26927296874999,78.0,83.0
111,72.37641571875,73.184450625,78.0,82.0
112,73.44784321875,73.67849774999999,75.0,86.0
113,73.80498571874999,74.0713545,75.0,88.0
114,74.16212821875,74.428497,76.0,85.0
115,74.51927071875,74.7112348125,78.0,83.0
116,74.87641321874999,75.52522209374999,75.0,88.0
117,75.59069821874999,75.80498371875,71.0,86.0
118,75.94784071874999,76.17254287499999,80.0,82.0
119,76.30498321875,76.85408981249999,78.0,86.0
120,77.01926821874999,77.24694656249999,75.0,84.0
121,77.37641071875,77.63236284374999,75.0,87.0
122,77.73355321874999,79.83771778124999,73.0,84.0
123,80.23355071875,80.53712184374999,78.0,86.0
124,80.59069321874999,80.84218106249999,75.0,83.0
125,80.94783571874999,81.14724028124999,73.0,87.0
126,81.30497821875,82.01628703124999,71.0,86.0
127,82.01926321874998,83.01182175,75.0,84.0
128,83.09069071875,83.36896424999999,78.0,85.0
129,83.44783321874999,83.696344875,75.0,86.0
130,83.80497571874999,84.095154,73.0,84.0
131,84.16211821875,84.7886056875,71.0,83.0
132,84.87640321874999,85.41211696874998,73.0,88.0
133,85.59068821874999,85.81539037499999,73.0,84.0
134,85.94783071874998,86.19336618749999,73.0,86.0
135,86.30497321874999,86.565389625,75.0,82.0
136,86.66211571874999,86.91360356249999,73.0,84.0
137,87.01925821875,87.19187709375,71.0,83.0
138,87.37640071874999,87.62193618749998,71.0,84.0
139,87.73354321874999,87.98800725,83.0,87.0
140,88.09068571875,88.33622118749999,83.0,84.0
141,88.44782821874999,88.7052684375,82.0,86.0
142,88.80497071874998,89.04901809374999,80.0,83.0
143,89.16211321875,90.38532628124999,78.0,83.0
144,90.59068321874999,90.83026631249999,71.0,84.0
145,90.94782571875,91.26032540624999,71.0,86.0
146,91.30496821874999,91.565384625,70.0,82.0
147,91.66211071874999,91.91657475,71.0,86.0
148,92.01925321875,92.23800299999999,80.0,83.0
149,92.37639571874999,93.14127590624999,80.0,82.0
150,93.44782321874999,93.66062062499999,80.0,84.0
151,93.80496571874998,94.05050118749999,80.0,84.0
152,94.16210821874999,94.43740556249999,78.0,82.0
153,94.51925071874999,94.77966712499999,75.0,85.0
154,94.87639321875,95.12639296874998,78.0,83.0
155,95.23353571874999,96.04157062499999,78.0,82.0
156,96.30496321874999,96.53561774999999,75.0,86.0
157,96.66210571874998,96.9284745,75.0,88.0
158,97.01924821875,97.28561699999999,76.0,85.0
159,97.37639071874999,97.56835481249999,78.0,83.0
160,97.73353321874998,98.38234209374998,75.0,88.0
161,98.44781821874999,98.66210371874999,71.0,86.0
162,98.80496071875,99.02966287499999,80.0,82.0
163,99.16210321874999,99.71120981249999,78.0,86.0
164,99.87638821875,100.1040665625,75.0,84.0
165,100.23353071874999,100.48948284374998,73.0,87.0
166,100.59067321874998,102.69483778124999,73.0,84.0
167,103.09067071874999,103.36894424999998,71.0,84.0
168,103.44781321874999,106.50584587499999,71.0,85.0
169,126.30493321874998,126.43588546874999,71.0,85.0
170,126.48350446874998,126.60850434374998,73.0,89.0
171,126.66207571874999,127.92546731249999,75.0,86.0
172,128.09064571874998,128.50582387499998,73.0,93.0
173,128.62635946875,129.09510899999998,71.0,84.0
174,129.16207321874998,129.48052528124998,70.0,87.0
175,129.51921571875,130.77665493749998,71.0,80.0
176,132.19778446874997,132.31236768749997,66.0,75.0
177,132.37635571874998,132.58766503125,71.0,84.0
178,132.73349821875,132.90016471874998,71.0,80.0
179,133.09064071875,133.29302146875,71.0,83.0
180,133.44778321874998,133.62486637499998,71.0,83.0
181,133.64421159375,133.88379468749997,70.0,84.0
182,134.16206821875,134.43290128125,70.0,83.0
183,134.51921071874997,134.87635321874998,68.0,86.0
184,134.88379368749997,135.5980786875,70.0,84.0
185,135.59063821874997,136.72456565624998,66.0,78.0
186,137.73349321875,137.857005,71.0,86.0
187,137.91206446874997,138.01176675,73.0,88.0
188,138.09063571874998,139.34807493749997,75.0,86.0
189,139.51920571875,139.97158621875,78.0,84.0
190,140.05491946874997,140.51325234375,73.0,83.0
191,140.59063321874999,141.16503740624998,75.0,83.0
192,141.2885491875,141.48944184374997,73.0,84.0
193,141.48944184374997,142.91205946875,71.0,82.0
194,143.44777321874997,143.5474755,78.0,85.0
195,143.62634446874998,143.71116581249998,75.0,89.0
196,143.80491571874998,144.1159273125,73.0,91.0
197,144.16205821875,145.04896209375,71.0,86.0
198,145.23348571875,145.44925931249998,73.0,84.0
199,145.59062821874997,145.82128275,73.0,83.0
200,145.94777071874998,146.19479428124998,73.0,82.0
201,146.30491321875,146.97604349999997,75.0,83.0
202,147.01919821874998,148.26919696874998,71.0,83.0
203,148.44776821874999,148.714137,71.0,88.0
204,148.80491071875,149.05491046875,75.0,89.0
205,149.16205321874997,149.38675537499998,78.0,88.0
206,149.51919571874998,150.446278125,80.0,84.0
207,150.59062321874998,150.84657534374998,80.0,84.0
208,150.94776571875,151.23199162499998,78.0,82.0
209,151.30490821874997,151.54002703125,73.0,87.0
210,151.66205071874998,151.9313956875,73.0,89.0
211,152.01919321875,152.27514534374998,76.0,83.0
212,152.37633571874997,154.06978640625,75.0,85.0
213,154.16204821875,154.41204796875,71.0,85.0
214,154.51919071875,154.77960712499998,75.0,88.0
215,154.87633321874998,155.12633296874998,78.0,85.0
216,155.23347571875,155.523654,78.0,86.0
217,155.23347571875,155.523654,78.0,87.0
218,155.59061821875,155.67841574999997,76.0,84.0
219,155.76918946874997,156.1397248125,76.0,83.0
220,156.30490321874998,156.55936724999998,75.0,83.0
221,156.66204571875,156.94180734374999,76.0,84.0
222,157.01918821874997,157.26472368749998,75.0,89.0
223,157.37633071874998,157.601032875,73.0,89.0
224,157.73347321875,158.28853218749998,71.0,91.0
225,158.44775821874998,159.49388812499998,75.0,96.0
226,159.87632821875,160.15757793749998,71.0,88.0
227,160.23347071874997,160.44924431249999,75.0,87.0
228,160.59061321874998,160.83912487499998,78.0,86.0
229,160.94775571875,161.84061196874998,80.0,83.0
230,162.01918321875,162.33168290625,80.0,87.0
231,162.37632571875,162.69477778124997,82.0,86.0
232,162.73346821874998,163.07275359374998,80.0,87.0
233,163.09061071874999,163.37781281249997,82.0,84.0
234,163.44775321875,163.6754315625,83.0,87.0
235,163.80489571874998,164.03852643749997,83.0,87.0
236,164.2290024375,164.50578787499998,78.0,80.0
237,164.51918071875,164.78406140624998,78.0,83.0
238,164.87632321874997,165.23792999999998,75.0,86.0
239,165.23346571874998,166.0444768125,71.0,83.0
240,166.30489321874998,166.55489296874998,71.0,87.0
241,166.66203571875,166.92542831249997,80.0,88.0
242,167.01917821874997,167.11441621875,78.0,83.0
243,167.19774946874998,167.54298721874997,78.0,84.0
244,167.73346321875,167.94328443749998,78.0,83.0
245,168.09060571874997,168.54745049999997,78.0,86.0
246,168.62036709375,168.83018831249998,75.0,83.0
247,169.16203321874997,169.74090168749998,75.0,86.0
248,169.87631821875,171.43435237499997,73.0,89.0
249,171.66203071874997,171.96560184375,78.0,86.0
250,172.01917321874998,172.27066106249998,75.0,83.0
251,172.37631571875,172.57572028124997,73.0,87.0
252,172.73345821874997,173.44476703124997,71.0,86.0
253,173.44774321875,174.44030174999997,75.0,84.0
254,174.51917071875,174.79744424999998,78.0,85.0
255,174.87631321874997,175.12482487499997,75.0,86.0
256,175.23345571874998,175.523634,73.0,84.0
257,175.59059821875,176.21708568749997,71.0,83.0
258,176.30488321874998,176.84059696875,73.0,88.0
259,177.01916821874997,177.24387037499997,73.0,84.0
260,177.37631071874998,177.62184618749998,73.0,86.0
261,177.73345321875,177.99386962499997,75.0,82.0
262,178.09059571874997,178.3420835625,73.0,84.0
263,178.44773821874998,178.62035709375,71.0,83.0
264,178.80488071874998,179.0504161875,71.0,84.0
265,179.16202321875,179.41648725,83.0,87.0
266,179.51916571874997,179.76470118749998,83.0,84.0
267,179.87630821874998,180.13374843749997,82.0,86.0
268,180.23345071875,180.47749809374997,80.0,83.0
269,180.59059321874997,181.81380628124998,78.0,83.0
270,182.01916321874998,182.25874631249997,71.0,84.0
271,182.37630571875,182.68880540624997,71.0,86.0
272,182.73344821874997,182.993864625,70.0,82.0
273,183.09059071874998,183.34505474999997,71.0,86.0
274,183.44773321875,183.66648299999997,80.0,83.0
275,183.80487571874997,184.56975590624998,80.0,82.0
276,184.87630321874997,185.089100625,80.0,84.0
277,185.23344571874998,185.47898118749998,80.0,84.0
278,185.59058821874999,185.86588556249998,78.0,82.0
279,185.94773071874997,186.20814712499998,75.0,85.0
280,186.30487321874998,186.55487296874998,78.0,83.0
281,186.66201571874998,187.47005062499997,78.0,82.0
282,187.73344321874998,187.96409774999998,75.0,86.0
283,188.09058571875,188.35695449999997,75.0,88.0
284,188.44772821874997,188.71409699999998,76.0,85.0
285,188.80487071874998,188.99683481249997,78.0,83.0
286,189.16201321875,189.81082209374998,75.0,88.0
287,189.87629821874998,190.09058371874997,71.0,86.0
288,190.23344071875,190.45814287499996,80.0,82.0
289,190.59058321874997,191.13968981249997,78.0,86.0
290,191.30486821875,191.5325465625,75.0,84.0
291,191.66201071874997,191.91796284375,75.0,87.0
292,192.01915321874998,194.12331778124997,73.0,84.0
293,194.51915071874998,194.82272184374997,78.0,86.0
294,194.87629321874996,195.1277810625,75.0,83.0
295,195.23343571874997,195.43284028124998,73.0,87.0
296,195.59057821874998,196.30188703124998,71.0,86.0
297,196.30486321874997,197.29742174999998,75.0,84.0
298,197.37629071874997,197.65456424999996,78.0,85.0
299,197.73343321874998,197.98194487499998,75.0,86.0
300,198.09057571875,198.38075399999997,73.0,84.0
301,198.44771821874997,199.07420568749998,71.0,83.0
302,199.16200321875,199.69771696874997,73.0,88.0
303,199.87628821874998,200.10099037499998,73.0,84.0
304,200.23343071875,200.47896618749996,73.0,86.0
305,200.59057321874997,200.85098962499998,75.0,82.0
306,200.94771571874998,201.19920356249997,73.0,84.0
307,201.30485821874998,201.47747709374997,71.0,83.0
308,201.66200071874997,201.90753618749997,71.0,84.0
309,202.01914321874997,202.27360724999997,83.0,87.0
310,202.37628571874998,202.6218211875,83.0,84.0
311,202.73342821874996,202.99086843749998,82.0,86.0
312,203.09057071874997,203.33461809374998,80.0,83.0
313,203.44771321874998,204.67092628125,78.0,83.0
314,204.87628321875,205.11586631249997,71.0,84.0
315,205.23342571874997,205.54592540624998,71.0,86.0
316,205.59056821874998,205.85098462499997,70.0,82.0
317,205.94771071875,206.20217474999998,71.0,86.0
318,206.30485321874997,206.52360299999998,80.0,83.0
319,206.66199571874998,207.42687590625,80.0,82.0
320,207.73342321874998,207.94622062499997,80.0,84.0
321,208.09056571874999,208.33610118749996,80.0,84.0
322,208.44770821874997,208.72300556249996,78.0,82.0
323,208.80485071874998,209.06526712499996,75.0,85.0
324,209.16199321874998,209.41199296874998,78.0,83.0
325,209.51913571874996,210.32717062499998,78.0,82.0
326,210.59056321874996,210.82121775,75.0,86.0
327,210.94770571874997,211.21407449999998,75.0,88.0
328,211.30484821874998,211.571217,76.0,85.0
329,211.66199071875,211.85395481249998,78.0,83.0
330,212.01913321874997,212.71556109374998,75.0,88.0
331,212.73341821875,212.94770371874998,71.0,86.0
332,213.09056071874997,213.31526287499997,80.0,82.0
333,213.44770321874998,213.99680981249998,78.0,86.0
334,214.16198821874997,214.38966656249997,75.0,84.0
335,214.51913071874998,214.77508284374997,73.0,87.0
336,214.87627321875,216.98043778124998,73.0,84.0
337,217.37627071874996,217.65454425,71.0,84.0
338,217.73341321874997,220.79144587499997,71.0,85.0
