,start,end,pitch,velocity
0,0.9479157187499999,1.8988076249999999,59.0,80.0
1,1.6622007187499999,2.0342241562499996,52.0,85.0
2,0.9479157187499999,2.0624979375,40.0,84.0
3,1.30505821875,2.1473192812499997,47.0,77.0
4,2.0193432187499996,2.20089065625,64.0,82.0
5,2.3764857187499997,3.1190444999999998,54.0,78.0
6,2.3764857187499997,3.1488063749999995,58.0,76.0
7,3.0907707187499995,3.2589253124999997,61.0,78.0
8,2.3764857187499997,3.2663657812499998,42.0,83.0
9,2.73362821875,3.3005919374999997,49.0,76.0
10,3.8050557187499994,4.5476145,59.0,78.0
11,3.8050557187499994,4.553566875,56.0,76.0
12,4.51934071875,4.666662,63.0,86.0
13,4.87648321875,5.3184470625,56.0,81.0
14,5.233625718749999,5.6458276875,68.0,84.0
15,5.590768218749999,5.857136999999999,56.0,78.0
16,4.1621982187499995,6.041660625,51.0,77.0
17,3.8050557187499994,6.150291468749999,44.0,83.0
18,5.947910718749999,6.1577319374999995,63.0,80.0
19,5.947910718749999,6.1874938125,56.0,76.0
20,6.3050532187499995,6.409219781249999,51.0,83.0
21,6.66219571875,7.162195218749999,56.0,76.0
22,6.66219571875,7.46427825,52.0,73.0
23,6.66219571875,7.830349312499999,40.0,82.0
24,7.733623218749999,7.882432593749999,52.0,83.0
25,7.019338218749999,7.883920687499999,47.0,75.0
26,7.376480718749999,7.910706374999999,59.0,84.0
27,8.09076571875,8.64433659375,54.0,82.0
28,8.09076571875,8.64433659375,58.0,79.0
29,8.09076571875,8.934514875,42.0,82.0
30,8.44790821875,8.950883906249999,49.0,76.0
31,8.80505071875,8.97171721875,54.0,82.0
32,8.80505071875,9.284216906249998,58.0,78.0
33,9.16219321875,9.550585687499998,54.0,82.0
34,9.519335718749998,9.624990375,35.0,82.0
35,9.519335718749998,9.927073406249999,59.0,78.0
36,10.233620718749998,10.433025281249998,61.0,78.0
37,10.590763218749998,11.081834156249998,54.0,82.0
38,10.947905718749999,11.418143343749998,59.0,76.0
39,10.947905718749999,11.55951225,66.0,74.0
40,11.305048218749999,11.638381218749998,54.0,75.0
41,9.876478218749998,11.677071656249998,47.0,83.0
42,11.662190718749999,11.741059687499998,63.0,75.0
43,11.662190718749999,11.779750124999998,59.0,72.0
44,12.37647571875,12.6041540625,54.0,78.0
45,12.37647571875,12.785701499999998,59.0,77.0
46,12.73361821875,13.154748749999998,54.0,83.0
47,13.090760718749998,13.281236718749998,59.0,83.0
48,13.090760718749998,13.476176999999998,63.0,84.0
49,12.37647571875,13.733617218749998,47.0,81.0
50,13.805045718749998,13.915164656249999,54.0,71.0
51,13.805045718749998,14.276771437499999,58.0,78.0
52,13.805045718749998,14.284211906249999,63.0,78.0
53,14.162188218749998,14.589271124999998,54.0,75.0
54,14.519330718749998,14.855639906249998,58.0,79.0
55,13.805045718749998,15.092246812499999,46.0,83.0
56,14.519330718749998,15.171115781249998,63.0,84.0
57,15.233615718749999,15.657722437499999,59.0,73.0
58,15.233615718749999,15.967245937499998,56.0,69.0
59,15.947900718749999,16.413674062499997,59.0,76.0
60,15.947900718749999,16.430043093749997,63.0,83.0
61,16.305043218749997,16.723197562499998,56.0,82.0
62,16.66218571875,16.98063778125,63.0,80.0
63,17.37647071875,17.497006312499998,56.0,80.0
64,15.590758218749999,17.520815812499997,51.0,70.0
65,15.233615718749999,17.574387187499998,44.0,78.0
66,17.37647071875,17.613077625,59.0,88.0
67,17.37647071875,17.8005774375,63.0,82.0
68,17.733613218749998,17.84373215625,56.0,83.0
69,18.09075571875,18.711290812499996,59.0,77.0
70,18.09075571875,18.75742171875,52.0,75.0
71,18.805040718749996,19.223195062499997,56.0,73.0
72,18.09075571875,19.302064031249998,40.0,80.0
73,19.16218321875,19.360099687499996,52.0,83.0
74,18.447898218749998,19.3720044375,47.0,70.0
75,19.519325718749997,19.982122874999998,54.0,78.0
76,19.519325718749997,20.212777406249998,58.0,80.0
77,20.233610718749997,20.379443906249996,54.0,82.0
78,19.519325718749997,20.482122375,42.0,81.0
79,19.87646821875,20.4910509375,49.0,73.0
80,20.947895718749997,21.656228343749998,63.0,82.0
81,21.30503821875,22.09968028125,51.0,74.0
82,20.947895718749997,22.132418343749997,47.0,78.0
83,22.019323218749996,22.275275343749996,54.0,76.0
84,21.662180718749998,22.313965781249998,61.0,83.0
85,22.376465718749998,22.7827153125,59.0,65.0
86,22.733608218749996,22.925572312499998,54.0,67.0
87,23.090750718749998,23.142833999999997,54.0,70.0
88,23.090750718749998,23.279738624999997,59.0,76.0
89,22.376465718749998,23.313964781249997,47.0,76.0
90,23.090750718749998,23.34372665625,63.0,83.0
91,23.80503571875,23.962773656249997,54.0,76.0
92,24.162178218749997,24.57884446875,54.0,71.0
93,23.80503571875,24.645808687499997,47.0,83.0
94,24.51932071875,24.879439406249997,59.0,78.0
95,23.80503571875,24.90920128125,63.0,82.0
96,24.876463218749997,25.089260624999998,54.0,79.0
97,25.23360571875,25.400272218749997,54.0,77.0
98,25.23360571875,25.657712437499995,58.0,76.0
99,25.23360571875,26.013366843749996,42.0,79.0
100,25.590748218749997,26.02824778125,54.0,77.0
101,25.947890718749996,26.135390531249996,58.0,84.0
102,25.947890718749996,26.226164249999997,61.0,83.0
103,26.662175718749996,27.383901187499998,56.0,70.0
104,26.662175718749996,27.409198781249998,59.0,73.0
105,27.376460718749996,27.739555593749998,63.0,83.0
106,27.733603218749998,28.187471812499997,56.0,82.0
107,28.090745718749996,28.455328687499996,68.0,82.0
108,28.44788821875,28.699376062499997,56.0,75.0
109,28.805030718749997,28.918125843749998,63.0,79.0
110,27.019318218749998,28.930030593749997,51.0,73.0
111,26.662175718749996,28.965744843749995,44.0,75.0
112,28.805030718749997,28.97169721875,56.0,74.0
113,29.519315718749997,30.282707812499996,59.0,74.0
114,30.233600718749997,30.633897937499995,56.0,80.0
115,29.519315718749997,30.651755062499998,40.0,75.0
116,29.876458218749995,30.694909781249997,47.0,72.0
117,30.590743218749996,30.754433531249997,52.0,86.0
118,30.947885718749998,31.401754312499996,58.0,83.0
119,31.305028218749996,31.720206374999997,54.0,82.0
120,30.947885718749998,32.068420312499995,42.0,80.0
121,32.01931321875,32.39133665625,54.0,83.0
122,31.662170718749998,32.410681874999995,61.0,79.0
123,32.376455718749995,33.12050259375,59.0,79.0
124,33.44788321874999,33.863061374999994,54.0,77.0
125,33.09074071875,34.20532293749999,63.0,83.0
126,33.805025718749995,34.22466815625,59.0,73.0
127,34.16216821875,34.312465687499994,54.0,71.0
128,32.376455718749995,34.619012999999995,47.0,77.0
129,34.51931071875,34.630917749999995,54.0,81.0
130,32.73359821875,34.6577034375,51.0,77.0
131,34.51931071875,34.7707985625,59.0,84.0
132,34.51931071875,34.933000781249994,63.0,84.0
133,34.876453218749994,34.95681028124999,54.0,77.0
134,35.233595718749996,35.473178812499995,52.0,76.0
135,35.59073821875,35.718714281249994,52.0,75.0
136,35.233595718749996,36.055023468749994,59.0,77.0
137,35.94788071874999,36.33478509374999,56.0,84.0
138,35.233595718749996,36.406213593749996,40.0,82.0
139,35.59073821875,36.464249249999995,47.0,84.0
140,36.305023218749994,36.47764209375,52.0,83.0
141,36.662165718749996,37.334784093749995,54.0,76.0
142,36.662165718749996,37.391331656249996,58.0,73.0
143,37.37645071874999,37.851152625,61.0,82.0
144,36.662165718749996,37.86008118749999,42.0,82.0
145,37.01930821875,37.87198593749999,49.0,73.0
146,37.733593218749995,38.06692621875,54.0,82.0
147,38.09073571875,38.65323515625,63.0,84.0
148,38.44787821875,39.30204403125,51.0,73.0
149,38.09073571875,39.3362701875,47.0,78.0
150,39.162163218749996,39.407698687499995,54.0,82.0
151,38.805020718749994,39.43150818749999,63.0,85.0
152,39.51930571875,39.64876987499999,54.0,74.0
153,39.51930571875,39.67704365624999,61.0,76.0
154,39.51930571875,39.947876718749995,59.0,71.0
155,39.87644821874999,40.10412656249999,54.0,75.0
156,40.233590718749994,40.35412631249999,54.0,82.0
157,40.233590718749994,40.403233406249996,59.0,82.0
158,40.233590718749994,40.54906659375,63.0,83.0
159,40.590733218749996,40.72466165624999,59.0,76.0
160,39.51930571875,40.78716159374999,47.0,80.0
161,40.94787571875,41.178530249999994,52.0,78.0
162,40.94787571875,41.44787521874999,56.0,79.0
163,41.30501821874999,41.7053154375,52.0,82.0
164,40.94787571875,42.06245793749999,40.0,81.0
165,41.662160718749995,42.24549346875,59.0,82.0
166,42.01930321875,42.30650531249999,47.0,82.0
167,42.37644571875,43.1398378125,54.0,78.0
168,42.37644571875,43.141325906249996,58.0,76.0
169,43.090730718749995,43.45233749999999,61.0,81.0
170,42.37644571875,43.552039781249995,42.0,82.0
171,42.73358821874999,43.5565040625,49.0,77.0
172,43.44787321875,43.921087031249996,54.0,76.0
173,43.80501571874999,44.541622124999996,63.0,82.0
174,44.162158218749994,44.92703840624999,51.0,79.0
175,44.519300718749996,44.94935981249999,61.0,82.0
176,43.80501571874999,44.974657406249996,47.0,82.0
177,44.87644321875,45.3094785,54.0,83.0
178,45.23358571874999,45.630906749999994,59.0,82.0
179,45.590728218749994,45.81989465624999,54.0,84.0
180,45.23358571874999,45.87793031249999,63.0,85.0
181,45.23358571874999,46.084775343749996,47.0,83.0
182,45.947870718749996,46.15025146874999,54.0,82.0
183,45.947870718749996,46.229120437499994,59.0,83.0
184,46.30501321875,46.44191784375,47.0,79.0
185,46.66215571874999,47.184476624999995,56.0,74.0
186,46.66215571874999,47.37048834375,52.0,77.0
187,46.66215571874999,47.805011718749995,40.0,82.0
188,47.37644071875,47.82584503125,59.0,85.0
189,47.019298218749995,47.8660235625,47.0,77.0
190,47.73358321874999,47.90620209375,52.0,88.0
191,48.090725718749994,48.60411806249999,58.0,82.0
192,48.090725718749994,48.66810609375,54.0,79.0
193,48.447868218749996,48.95233199999999,49.0,76.0
194,48.090725718749994,48.98060578124999,42.0,83.0
195,48.80501071875,49.0445938125,54.0,82.0
196,48.80501071875,49.10709375,58.0,82.0
197,49.16215321874999,49.42405771874999,42.0,84.0
198,49.519295718749994,49.672569374999995,54.0,83.0
199,49.519295718749994,49.912152468749994,59.0,82.0
200,49.876438218749996,50.10114037499999,54.0,82.0
201,49.519295718749994,50.406199593749996,47.0,89.0
202,50.23358071874999,50.44340193749999,54.0,77.0
203,50.23358071874999,50.531199468749996,58.0,87.0
204,50.59072321874999,50.809473,47.0,88.0
205,50.947865718749995,51.3838771875,59.0,77.0
206,50.947865718749995,51.46423425,56.0,76.0
207,51.30500821875,51.784174406249996,51.0,77.0
208,51.66215071874999,51.81691246875,56.0,73.0
209,50.947865718749995,51.830305312499995,44.0,81.0
210,51.66215071874999,51.834769593749996,59.0,78.0
211,51.66215071874999,51.9314956875,63.0,81.0
212,52.376435718749995,53.07881596874999,59.0,77.0
213,52.376435718749995,53.10262546874999,52.0,73.0
214,53.09072071874999,53.40024421875,56.0,83.0
215,53.447863218749994,53.91214846875,52.0,82.0
216,53.805005718749996,54.25143384374999,64.0,82.0
217,54.16214821874999,54.351136125,52.0,77.0
218,52.376435718749995,54.671076281249995,40.0,83.0
219,52.73357821875,54.681492937499996,47.0,75.0
220,54.51929071874999,54.688933406249994,56.0,83.0
221,54.51929071874999,54.70381434375,52.0,80.0
222,54.51929071874999,54.755897624999996,59.0,83.0
223,54.876433218749995,55.04309971874999,40.0,83.0
224,55.23357571875,55.63684912499999,58.0,78.0
225,55.23357571875,55.66958718749999,61.0,78.0
226,55.23357571875,55.68149193749999,54.0,74.0
227,55.59071821874999,56.00589637499999,49.0,82.0
228,55.23357571875,56.01333684375,42.0,83.0
229,55.94786071874999,56.10262246874999,54.0,83.0
230,55.94786071874999,56.315419874999996,66.0,79.0
231,55.94786071874999,56.391312656249994,58.0,86.0
232,55.94786071874999,56.435955468749995,61.0,84.0
233,56.305003218749995,56.52970537499999,54.0,83.0
234,56.66214571875,56.846669343749994,54.0,87.0
235,56.66214571875,57.107085749999996,58.0,93.0
236,56.66214571875,57.12791906249999,66.0,82.0
237,56.66214571875,57.147264281249996,61.0,88.0
238,57.376430718749994,57.563930531249994,58.0,82.0
239,57.376430718749994,57.61154953124999,66.0,80.0
240,57.376430718749994,57.642799499999995,61.0,82.0
241,58.09071571874999,58.190417999999994,35.0,83.0
242,58.09071571874999,58.36452496875,54.0,78.0
243,58.09071571874999,58.434465374999995,59.0,76.0
244,58.09071571874999,58.4672034375,63.0,78.0
245,58.805000718749994,59.038631437499994,54.0,82.0
246,58.805000718749994,59.08773853125,59.0,83.0
247,58.805000718749994,59.19339318749999,63.0,84.0
248,59.340714468749994,59.42851199999999,54.0,88.0
249,59.51928571874999,59.857082999999996,54.0,84.0
250,59.51928571874999,59.91065437499999,59.0,88.0
251,59.51928571874999,59.92999959374999,63.0,87.0
252,60.05499946874999,60.12791606249999,54.0,82.0
253,60.233570718749995,60.519284718749994,59.0,84.0
254,59.87642821874999,60.557975156249995,51.0,75.0
255,60.233570718749995,60.60559415624999,54.0,85.0
256,60.59071321874999,60.79309396874999,47.0,70.0
257,60.94785571874999,61.263331593749996,58.0,77.0
258,60.94785571874999,61.354105312499996,61.0,81.0
259,60.94785571874999,61.36452196874999,54.0,78.0
260,61.304998218749994,61.764819187499995,49.0,73.0
261,61.662140718749995,61.804997718749995,58.0,82.0
262,61.662140718749995,61.804997718749995,61.0,82.0
263,61.662140718749995,61.81987865624999,54.0,82.0
264,60.94785571874999,62.310949593749996,42.0,82.0
265,62.37642571874999,62.721663468749995,66.0,82.0
266,62.37642571874999,62.73654440624999,61.0,84.0
267,62.37642571874999,62.739520593749994,58.0,87.0
268,62.197854468749995,62.74547296874999,54.0,82.0
269,62.733568218749994,63.17850824999999,49.0,79.0
270,62.37642571874999,63.233567718749995,42.0,82.0
271,63.090710718749996,63.36303187499999,54.0,86.0
272,63.090710718749996,63.37493662499999,58.0,96.0
273,63.090710718749996,63.40767468749999,61.0,85.0
274,63.44785321874999,63.575829281249995,49.0,84.0
275,63.626424468749995,63.70975771874999,54.0,82.0
276,63.80499571874999,63.877912312499994,46.0,52.0
277,63.80499571874999,64.1874358125,59.0,75.0
278,63.80499571874999,64.21273340625,56.0,77.0
279,64.16213821874999,64.60856634375,51.0,75.0
280,64.51928071875,64.71719718749999,59.0,84.0
281,64.51928071875,64.72910193749999,56.0,83.0
282,63.80499571874999,64.74100668749999,44.0,77.0
283,64.51928071875,64.74100668749999,63.0,84.0
284,65.05499446875,65.14279199999999,56.0,84.0
285,65.23356571874999,65.54904159374999,68.0,83.0
286,65.23356571874999,65.55499396875,59.0,84.0
287,65.23356571874999,65.56987490624999,56.0,77.0
288,65.59070821875,66.02225540625,51.0,73.0
289,65.94785071874999,66.184457625,56.0,77.0
290,65.94785071874999,66.24844565625,59.0,82.0
291,65.94785071874999,66.25588612499999,63.0,83.0
292,65.23356571874999,66.31392178124999,44.0,82.0
293,66.30499321875,66.45231449999999,51.0,82.0
294,66.66213571875,67.04308771874999,58.0,77.0
295,66.66213571875,67.06094484375,54.0,80.0
296,67.01927821874999,67.49249203125,49.0,70.0
297,67.37642071875,67.56540862499999,54.0,83.0
298,66.66213571875,67.63386093749999,42.0,83.0
299,67.37642071875,67.65618234374999,58.0,89.0
300,67.37642071875,67.68147993749999,61.0,86.0
301,67.73356321874999,67.98951534374999,49.0,80.0
302,67.91213446875,68.16957468749999,54.0,86.0
303,68.44784821875,68.6517170625,54.0,87.0
304,68.09070571874999,68.65766943749999,66.0,87.0
305,68.26927696874999,68.8243359375,49.0,85.0
306,68.62641946874999,68.97463340624999,61.0,82.0
307,68.09070571874999,69.00885956249999,42.0,84.0
308,68.80499071874999,69.02522859374999,54.0,89.0
309,68.98356196875,69.14427609375,49.0,89.0
310,69.34070446874999,69.4255258125,58.0,81.0
311,69.16213321874999,69.43147818749999,54.0,84.0
312,69.51927571875,69.9076681875,56.0,83.0
313,69.51927571875,69.91362056249999,52.0,83.0
314,69.87641821874999,70.291596375,47.0,69.0
315,70.23356071875,70.44487003124999,64.0,76.0
316,70.23356071875,70.44635812499999,52.0,84.0
317,70.23356071875,70.4850485625,56.0,83.0
318,69.51927571875,70.73951259374999,40.0,83.0
319,70.76927446875,70.863024375,52.0,78.0
320,70.94784571874999,71.42998809375,56.0,78.0
321,70.94784571874999,71.45677378124999,52.0,78.0
322,70.94784571874999,71.46123806249999,59.0,81.0
323,71.30498821875,71.75588062499999,47.0,69.0
324,70.94784571874999,71.79010678124999,40.0,83.0
325,71.66213071874999,71.80052343749999,56.0,84.0
326,71.66213071874999,71.82284484374999,52.0,83.0
327,71.66213071874999,71.84963053124999,59.0,84.0
328,72.01927321874999,72.15468974999999,40.0,82.0
329,72.37641571875,72.77373675,63.0,83.0
330,72.37641571875,72.80796290625,66.0,80.0
331,72.37641571875,72.81242718749999,58.0,83.0
332,72.37641571875,73.21867678125,39.0,84.0
333,72.73355821874999,73.21867678125,46.0,68.0
334,73.09070071874999,73.21867678125,58.0,85.0
335,73.09070071874999,73.23653390624999,63.0,93.0
336,73.09070071874999,73.29010528124999,66.0,84.0
337,73.80498571874999,74.23802099999999,58.0,87.0
338,73.80498571874999,74.33474709375,39.0,98.0
339,73.80498571874999,74.37641371874999,63.0,85.0
340,74.51927071875,75.06391303125,58.0,83.0
341,74.51927071875,75.12790106249999,38.0,91.0
342,74.51927071875,75.14873437499999,62.0,82.0
343,75.23355571875,75.4731388125,56.0,83.0
344,75.23355571875,75.5326625625,61.0,82.0
345,75.59069821874999,75.72165046874998,56.0,84.0
346,75.23355571875,75.76629328124999,37.0,88.0
347,75.94784071874999,76.12045959374998,56.0,84.0
348,75.94784071874999,76.13534053125,61.0,84.0
349,75.94784071874999,76.17254287499999,64.0,85.0
350,76.48355446874999,76.58176865624999,56.0,83.0
351,76.66212571874999,76.86153028125,56.0,80.0
352,76.66212571874999,76.96272065624999,61.0,82.0
353,77.01926821874999,77.09367290624999,61.0,53.0
354,76.66212571874999,77.101113375,64.0,82.0
355,77.01926821874999,77.1576609375,56.0,82.0
356,76.66212571874999,77.16212521874999,49.0,84.0
357,77.37641071875,77.47313681249999,56.0,85.0
358,77.37641071875,77.54307721874999,61.0,88.0
359,77.37641071875,77.68295803125,64.0,86.0
360,77.73355321874999,77.80200553124999,56.0,79.0
361,78.09069571874998,78.48504056249999,58.0,84.0
362,78.09069571874998,78.5028976875,61.0,83.0
363,78.09069571874998,78.51182624999998,54.0,82.0
364,78.80498071874999,78.97462340624999,54.0,89.0
365,78.80498071874999,78.97759959374999,66.0,87.0
366,78.44783821875,79.4136110625,49.0,78.0
367,78.09069571874998,79.42849199999999,42.0,83.0
368,79.34069446874999,79.88384868749999,54.0,83.0
369,79.51926571874999,79.89872962499999,58.0,88.0
370,79.51926571874999,79.9374200625,61.0,85.0
371,80.05497946874999,80.17402696874998,54.0,84.0
372,80.23355071875,80.29753874999999,54.0,76.0
373,79.87640821874999,80.33027681249999,49.0,81.0
374,80.41212196874999,80.64575268749999,54.0,84.0
375,80.23355071875,80.67997884374999,58.0,93.0
376,80.23355071875,80.86747865624999,61.0,88.0
377,80.23355071875,80.88235959375,66.0,83.0
378,80.76926446875,80.90914528124999,54.0,86.0
379,80.59069321874999,80.92402621874999,49.0,87.0
380,79.51926571874999,80.92997859375,42.0,84.0
381,80.94783571874999,81.04753799999999,35.0,83.0
382,80.94783571874999,81.22164496874998,54.0,78.0
383,80.94783571874999,81.291585375,59.0,76.0
384,80.94783571874999,81.32432343749998,63.0,78.0
385,81.66212071874999,81.8957514375,54.0,82.0
386,81.66212071874999,81.94485853124999,59.0,83.0
387,81.66212071874999,82.05051318749999,63.0,84.0
388,82.19783446874999,82.28563199999999,54.0,88.0
389,82.37640571875,82.714203,54.0,84.0
390,82.37640571875,82.76777437499999,59.0,88.0
391,82.37640571875,82.78711959374999,63.0,87.0
392,82.91211946874999,82.98503606249999,54.0,82.0
393,83.09069071875,83.37640471875,59.0,84.0
394,82.73354821874999,83.41509515624999,51.0,75.0
395,83.09069071875,83.46271415624999,54.0,85.0
396,83.44783321874999,83.65021396875,47.0,70.0
397,83.80497571874999,84.12045159374999,58.0,77.0
398,83.80497571874999,84.21122531249999,61.0,81.0
399,83.80497571874999,84.22164196874999,54.0,78.0
400,84.16211821875,84.62193918749999,49.0,73.0
401,84.51926071874999,84.66211771875,58.0,82.0
402,84.51926071874999,84.66211771875,61.0,82.0
403,84.51926071874999,84.67699865624999,54.0,82.0
404,83.80497571874999,85.16806959374999,42.0,82.0
405,85.23354571875,85.57878346874999,66.0,82.0
406,85.23354571875,85.59366440624999,61.0,84.0
407,85.23354571875,85.59664059375,58.0,87.0
408,85.05497446874999,85.60259296874999,54.0,82.0
409,85.59068821874999,86.03562824999999,49.0,79.0
410,85.23354571875,86.09068771874999,42.0,82.0
411,85.94783071874998,86.22015187499998,54.0,86.0
412,85.94783071874998,86.23205662499998,58.0,96.0
413,85.94783071874998,86.26479468749999,61.0,85.0
414,86.30497321874999,86.43294928124999,49.0,84.0
415,86.48354446875,86.56687771874999,54.0,82.0
416,86.66211571874999,86.7350323125,46.0,52.0
417,86.66211571874999,87.0445558125,59.0,75.0
418,86.66211571874999,87.06985340624999,56.0,77.0
419,87.01925821875,87.46568634375,51.0,75.0
420,87.37640071874999,87.57431718749999,59.0,84.0
421,87.37640071874999,87.58622193749999,56.0,83.0
422,86.66211571874999,87.59812668749998,44.0,77.0
423,87.37640071874999,87.59812668749998,63.0,84.0
424,87.91211446874999,87.999912,56.0,84.0
425,88.09068571875,88.40616159374999,68.0,83.0
426,88.09068571875,88.41211396874999,59.0,84.0
427,88.09068571875,88.42699490624999,56.0,77.0
428,88.44782821874999,88.87937540624999,51.0,73.0
429,88.80497071874998,89.04157762499999,56.0,77.0
430,88.80497071874998,89.10556565625,59.0,82.0
431,88.80497071874998,89.11300612499998,63.0,83.0
432,88.09068571875,89.17104178125,44.0,82.0
433,89.16211321875,89.3094345,51.0,82.0
434,89.51925571874999,89.90020771875,58.0,77.0
435,89.51925571874999,89.91806484374999,54.0,80.0
436,89.87639821874998,90.34961203124999,49.0,70.0
437,90.23354071874999,90.42252862499998,54.0,83.0
438,89.51925571874999,90.49098093749998,42.0,83.0
439,90.23354071874999,90.51330234374998,58.0,89.0
440,90.23354071874999,90.5385999375,61.0,86.0
441,90.59068321874999,90.84663534375,49.0,80.0
442,90.76925446874999,91.02669468749998,54.0,86.0
443,91.30496821874999,91.50883706249999,54.0,87.0
444,90.94782571875,91.51478943749999,66.0,87.0
445,91.12639696874999,91.68145593749999,49.0,85.0
446,91.48353946875,91.83175340624999,61.0,82.0
447,90.94782571875,91.86597956249999,42.0,84.0
448,91.66211071874999,91.88234859375,54.0,89.0
449,91.84068196874999,92.00139609374999,49.0,89.0
450,92.19782446874999,92.2826458125,58.0,81.0
451,92.01925321875,92.28859818749999,54.0,84.0
452,92.37639571874999,92.76478818749999,56.0,83.0
453,92.37639571874999,92.7707405625,52.0,83.0
454,92.73353821874998,93.14871637499999,47.0,69.0
455,93.09068071875,93.30199003124999,64.0,76.0
456,93.09068071875,93.30347812499998,52.0,84.0
457,93.09068071875,93.34216856249999,56.0,83.0
458,92.37639571874999,93.59663259374999,40.0,83.0
459,93.62639446875,93.72014437499999,52.0,78.0
460,93.80496571874998,94.28710809374999,56.0,78.0
461,93.80496571874998,94.31389378124999,52.0,78.0
462,93.80496571874998,94.3183580625,59.0,81.0
463,94.16210821874999,94.61300062499998,47.0,69.0
464,93.80496571874998,94.64722678124998,40.0,83.0
465,94.51925071874999,94.65764343749998,56.0,84.0
466,94.51925071874999,94.67996484374999,52.0,83.0
467,94.51925071874999,94.70675053125,59.0,84.0
468,94.87639321875,95.01180974999998,40.0,82.0
469,95.23353571874999,95.63085674999999,63.0,83.0
470,95.23353571874999,95.66508290624999,66.0,80.0
471,95.23353571874999,95.66954718749999,58.0,83.0
472,95.23353571874999,96.07579678124999,39.0,84.0
473,95.59067821874999,96.07579678124999,46.0,68.0
474,95.94782071875,96.07579678124999,58.0,85.0
475,95.94782071875,96.09365390624998,63.0,93.0
476,95.94782071875,96.14722528124999,66.0,84.0
477,96.66210571874998,97.09514099999998,58.0,87.0
478,96.66210571874998,97.19186709374999,39.0,98.0
479,96.66210571874998,97.23353371875,63.0,85.0
480,97.37639071874999,97.92103303124999,58.0,83.0
481,97.37639071874999,97.9850210625,38.0,91.0
482,97.37639071874999,98.00585437499998,62.0,82.0
483,98.09067571874999,98.33025881249999,56.0,83.0
484,98.09067571874999,98.38978256249999,61.0,82.0
485,98.44781821874999,98.57877046875,56.0,84.0
486,98.09067571874999,98.62341328125,37.0,88.0
487,98.80496071875,98.97757959375,56.0,84.0
488,98.80496071875,98.99246053124999,61.0,84.0
489,98.80496071875,99.02966287499999,64.0,85.0
490,99.34067446875,99.43888865624999,56.0,83.0
491,99.51924571874999,99.71865028124999,56.0,80.0
492,99.51924571874999,99.81984065625,61.0,82.0
493,99.87638821875,99.95079290624999,61.0,53.0
494,99.51924571874999,99.95823337499999,64.0,82.0
495,99.87638821875,100.01478093749999,56.0,82.0
496,99.51924571874999,100.01924521874999,49.0,84.0
497,100.23353071874999,100.33025681249998,56.0,85.0
498,100.23353071874999,100.40019721875,61.0,88.0
499,100.23353071874999,100.54007803124999,64.0,86.0
500,100.59067321874998,100.65912553124998,56.0,79.0
501,100.94781571875,101.34216056249998,58.0,84.0
502,100.94781571875,101.36001768749999,61.0,83.0
503,100.94781571875,101.36894625,54.0,82.0
504,101.66210071874998,101.83174340624998,54.0,89.0
505,101.66210071874998,101.83471959375,66.0,87.0
506,101.30495821874999,102.27073106249999,49.0,78.0
507,100.94781571875,102.28561199999999,42.0,83.0
508,102.19781446874998,102.74096868749999,54.0,83.0
509,102.37638571874999,102.75584962499998,58.0,88.0
510,102.37638571874999,102.79454006249999,61.0,85.0
511,102.91209946874999,103.03114696875,54.0,84.0
512,103.09067071874999,103.15465874999998,54.0,76.0
513,102.73352821874998,103.18739681249998,49.0,81.0
514,103.26924196875,103.50287268749999,54.0,84.0
515,103.09067071874999,103.53709884374999,58.0,93.0
516,103.09067071874999,103.72459865625,61.0,88.0
517,103.09067071874999,103.73947959374999,66.0,83.0
518,103.62638446874999,103.76626528124999,54.0,86.0
519,103.44781321874999,103.78114621874998,49.0,87.0
520,102.37638571874999,103.78709859374999,42.0,84.0
521,103.80495571875,104.26031240625,63.0,82.0
522,103.80495571875,104.26775287499999,59.0,75.0
523,104.16209821874999,104.37043134374998,54.0,75.0
524,104.51924071874998,104.84662134374999,63.0,83.0
525,104.51924071874998,104.88084749999999,59.0,82.0
526,105.23352571874999,105.30644231249998,54.0,70.0
527,103.80495571875,105.43144218749998,47.0,86.0
528,105.23352571874999,105.71864428125,63.0,83.0
529,105.23352571874999,105.75435853124999,59.0,81.0
530,105.59066821874998,105.78709659375,54.0,70.0
531,105.94781071874999,106.09364390625,54.0,82.0
532,105.94781071874999,106.16060812499998,59.0,83.0
533,105.94781071874999,106.43590546875,63.0,83.0
534,106.30495321874999,106.571322,54.0,82.0
535,106.66209571874998,107.08322624999998,63.0,83.0
536,106.66209571874998,107.15911903124999,58.0,79.0
537,107.01923821874999,107.17697615624999,54.0,69.0
538,107.37638071874999,107.50882106249999,54.0,82.0
539,106.66209571874998,107.51626153124998,46.0,78.0
540,107.37638071874999,107.54899959374998,58.0,83.0
541,107.37638071874999,107.59513049999998,63.0,83.0
542,107.73352321875,107.88530878124999,54.0,75.0
543,108.09066571874999,108.2112013125,54.0,76.0
544,108.09066571874999,108.23352271874998,58.0,80.0
545,108.09066571874999,108.26923696875,63.0,80.0
546,108.44780821874998,108.58024856249999,54.0,60.0
547,108.80495071874999,108.91358156249999,61.0,81.0
548,108.80495071874999,108.93590296874999,63.0,83.0
549,108.80495071874999,108.93887915624998,54.0,82.0
550,108.80495071874999,108.95673628124999,58.0,86.0
551,109.51923571874998,109.79304496874998,63.0,82.0
552,109.51923571874998,109.84066396875,56.0,71.0
553,109.51923571874998,109.84215206249999,59.0,69.0
554,110.23352071874999,110.36744915624999,56.0,74.0
555,110.23352071874999,110.36744915624999,59.0,82.0
556,110.23352071874999,110.40613959374998,63.0,83.0
557,110.59066321874998,110.71566309374998,56.0,61.0
558,109.87637821874999,111.10256746874998,51.0,65.0
559,110.94780571874999,111.44185284374998,63.0,82.0
560,110.94780571874999,111.44780521874999,59.0,77.0
561,110.94780571874999,111.45375759374998,56.0,77.0
562,111.30494821874998,111.78857868749999,51.0,74.0
563,111.66209071875,111.80345962499999,56.0,83.0
564,111.66209071875,111.91357856249999,59.0,84.0
565,109.51923571874998,111.94185234374999,44.0,82.0
566,112.01923321874999,112.19631637499998,56.0,81.0
567,111.66209071875,112.29304246874999,63.0,83.0
568,112.37637571874998,112.64720878124999,58.0,61.0
569,112.37637571874998,112.69929206249999,61.0,72.0
570,112.37637571874998,112.73649440624999,54.0,66.0
571,112.73351821874999,113.19631537499998,49.0,66.0
572,112.37637571874998,113.32726762499999,42.0,81.0
573,113.09066071874999,113.37637471874999,54.0,79.0
574,113.09066071874999,113.37786281249998,58.0,86.0
575,113.09066071874999,113.41655324999999,61.0,83.0
576,113.80494571874999,113.98054078124999,54.0,86.0
577,113.44780321874998,114.00583837499998,49.0,75.0
578,113.80494571874999,114.08470734374998,66.0,79.0
579,114.16208821874999,114.27667143749999,54.0,56.0
580,114.51923071874998,114.60107587499999,54.0,78.0
581,114.51923071874998,114.65613534374998,58.0,86.0
582,114.16208821874999,114.65762343749999,42.0,83.0
583,114.51923071874998,114.70524243749999,61.0,83.0
584,114.87637321874999,114.99095643749999,49.0,78.0
585,115.23351571874998,115.57577728124998,56.0,71.0
586,115.23351571874998,115.63381293749998,52.0,73.0
587,115.94780071874999,116.06536012499998,52.0,85.0
588,115.94780071874999,116.10107437499998,59.0,83.0
589,116.30494321874998,116.39274074999999,56.0,77.0
590,116.30494321874998,116.48946684374998,52.0,71.0
591,115.23351571874998,116.53113346874999,40.0,82.0
592,115.59065821875,116.53559775,47.0,70.0
593,116.66208571874999,117.04303771874999,52.0,74.0
594,116.66208571874999,117.09958528124999,56.0,74.0
595,117.01922821874999,117.49095393749998,47.0,70.0
596,117.37637071874998,117.55196578124999,52.0,81.0
597,116.66208571874999,117.58619193749999,40.0,79.0
598,117.37637071874998,117.68738231249999,56.0,84.0
599,117.37637071874998,117.70077515624999,59.0,82.0
600,117.37637071874998,117.71119181249999,64.0,79.0
601,117.73351321874999,117.88827496874998,40.0,82.0
602,117.73351321874999,117.89571543749999,52.0,83.0
603,118.09065571874999,118.26178649999999,54.0,79.0
604,118.09065571874999,118.33023881249999,59.0,77.0
605,118.09065571874999,118.37190543749999,63.0,83.0
606,118.80494071874999,118.91208346874998,54.0,79.0
607,118.09065571874999,118.92994059374999,39.0,84.0
608,118.80494071874999,118.93886915625,59.0,85.0
609,118.80494071874999,118.95077390624999,63.0,85.0
610,119.16208321874998,119.41803534374999,54.0,76.0
611,119.51922571875,119.59511849999998,54.0,68.0
612,119.51922571875,119.92249912499999,63.0,80.0
613,119.51922571875,119.98946334374999,59.0,75.0
614,119.87636821874999,120.03857043749998,54.0,68.0
615,120.23351071874998,120.36743915624999,54.0,82.0
616,119.51922571875,120.41505815624998,39.0,82.0
617,120.23351071874998,120.42696290624998,59.0,83.0
618,120.23351071874998,120.48202237499999,63.0,83.0
619,120.94779571874999,121.24541446874998,37.0,85.0
620,120.94779571874999,121.28112871874998,64.0,81.0
621,120.94779571874999,121.34511674999999,61.0,80.0
622,121.30493821874998,121.42993809374998,56.0,76.0
623,121.66208071874999,121.77071156249998,56.0,82.0
624,121.66208071874999,121.78708059374999,61.0,85.0
625,121.66208071874999,121.82577103124999,64.0,85.0
626,122.01922321874999,122.30344912499999,56.0,71.0
627,122.37636571874998,122.42249662499998,56.0,53.0
628,122.37636571874998,122.75434153124999,61.0,77.0
629,122.37636571874998,122.76773437499999,64.0,77.0
630,122.73350821874999,122.91059137499998,56.0,70.0
631,123.09065071874998,123.22755534374998,56.0,83.0
632,122.37636571874998,123.33023381249998,49.0,82.0
633,123.09065071874998,123.42547181249999,61.0,86.0
634,123.44779321875,123.58023356249998,56.0,78.0
635,123.80493571874999,124.04154262499999,54.0,78.0
636,123.80493571874999,124.04451881249999,58.0,78.0
637,124.16207821874998,124.19332818749999,58.0,69.0
638,124.16207821874998,124.20820912499998,54.0,64.0
639,124.16207821874998,124.34064946874999,61.0,79.0
640,123.80493571874999,124.82130374999998,42.0,83.0
641,124.51922071874999,124.87785131249998,58.0,87.0
642,124.51922071874999,124.88231559374998,61.0,83.0
643,124.51922071874999,124.89124415624998,54.0,82.0
644,124.87636321874999,125.06386303124998,49.0,84.0
645,125.23350571874998,125.61296962499999,66.0,80.0
646,125.23350571874998,125.64273149999998,58.0,78.0
647,125.23350571874998,125.64570768749999,61.0,82.0
648,125.23350571874998,125.65761243749999,54.0,81.0
649,125.59064821874999,126.64124240624999,49.0,81.0
650,125.94779071874999,126.64124240624999,58.0,88.0
651,125.23350571874998,126.66058762499999,42.0,84.0
652,126.30493321874998,126.66207571874999,54.0,82.0
653,125.94779071874999,126.67249237499999,61.0,86.0
654,126.66207571874999,126.88975406249999,54.0,78.0
655,126.66207571874999,127.07130149999999,59.0,77.0
656,127.01921821874998,127.44034874999998,54.0,83.0
657,127.37636071874998,127.56683671874998,59.0,83.0
658,127.37636071874998,127.76177699999998,63.0,84.0
659,126.66207571874999,128.01921721875,47.0,81.0
660,128.09064571874998,128.20076465625,54.0,71.0
661,128.09064571874998,128.5623714375,58.0,78.0
662,128.09064571874998,128.56981190624998,63.0,78.0
663,128.44778821875,128.874871125,54.0,75.0
664,128.80493071874997,129.14123990624998,58.0,79.0
665,128.09064571874998,129.3778468125,46.0,83.0
666,128.80493071874997,129.45671578124998,63.0,84.0
667,129.51921571875,129.94332243749997,59.0,73.0
668,129.51921571875,130.25284593749998,56.0,69.0
669,130.23350071874998,130.6992740625,59.0,76.0
670,130.23350071874998,130.71564309374997,63.0,83.0
671,130.59064321875,131.00879756249998,56.0,82.0
672,130.94778571875,131.26623778125,63.0,80.0
673,131.66207071875,131.78260631249998,56.0,80.0
674,129.87635821875,131.80641581249998,51.0,70.0
675,129.51921571875,131.8599871875,44.0,78.0
676,131.66207071875,131.89867762499998,59.0,88.0
677,131.66207071875,132.0861774375,63.0,82.0
678,132.01921321875,132.12933215624997,56.0,83.0
679,132.37635571874998,132.9968908125,59.0,77.0
680,132.37635571874998,133.04302171875,52.0,75.0
681,133.09064071875,133.50879506249998,56.0,73.0
682,132.37635571874998,133.58766403124997,40.0,80.0
683,133.44778321874998,133.64569968749998,52.0,83.0
684,132.73349821875,133.6576044375,47.0,70.0
685,133.80492571874998,134.26772287499998,54.0,78.0
686,133.80492571874998,134.49837740624997,58.0,80.0
687,134.51921071874997,134.66504390625,54.0,82.0
688,133.80492571874998,134.76772237499998,42.0,81.0
689,134.16206821875,134.7766509375,49.0,73.0
690,135.23349571875,135.94182834375,63.0,82.0
691,135.59063821874997,136.38528028124998,51.0,74.0
692,135.23349571875,136.41801834375,47.0,78.0
693,136.30492321875,136.56087534374998,54.0,76.0
694,135.94778071874998,136.59956578125,61.0,83.0
695,136.66206571874997,137.06831531249998,59.0,65.0
696,137.01920821874998,137.2111723125,54.0,67.0
697,137.37635071875,137.42843399999998,54.0,70.0
698,137.37635071875,137.56533862499998,59.0,76.0
699,136.66206571874997,137.59956478125,47.0,76.0
700,137.37635071875,137.62932665625,63.0,83.0
701,138.09063571874998,138.24837365624998,54.0,76.0
702,138.44777821875,138.86444446874998,54.0,71.0
703,138.09063571874998,138.93140868749998,47.0,83.0
704,138.80492071875,139.16503940624997,59.0,78.0
705,138.09063571874998,139.19480128125,63.0,82.0
706,139.16206321874998,139.374860625,54.0,79.0
707,139.51920571875,139.68587221874998,54.0,77.0
708,139.51920571875,139.9433124375,58.0,76.0
709,139.51920571875,140.29896684374998,42.0,79.0
710,139.87634821875,140.31384778125,54.0,77.0
711,140.23349071874998,140.42099053125,58.0,84.0
712,140.23349071874998,140.51176424999997,61.0,83.0
713,140.94777571875,141.66950118749998,56.0,70.0
714,140.94777571875,141.69479878124997,59.0,73.0
715,141.66206071874998,142.02515559375,63.0,83.0
716,142.01920321875,142.4730718125,56.0,82.0
717,142.37634571874997,142.74092868749997,68.0,82.0
718,142.73348821874998,142.98497606249998,56.0,75.0
719,143.09063071875,143.20372584375,63.0,79.0
720,141.30491821874998,143.21563059374998,51.0,73.0
721,140.94777571875,143.25134484375,44.0,75.0
722,143.09063071875,143.25729721874998,56.0,74.0
723,143.80491571874998,144.5683078125,59.0,74.0
724,144.51920071874997,144.91949793749998,56.0,80.0
725,143.80491571874998,144.9373550625,40.0,75.0
726,144.16205821875,144.98050978125,47.0,72.0
727,144.87634321874998,145.04003353124997,52.0,86.0
728,145.23348571875,145.6873543125,58.0,83.0
729,145.59062821874997,146.005806375,54.0,82.0
730,145.23348571875,146.35402031249998,42.0,80.0
731,146.30491321875,146.67693665624998,54.0,83.0
732,145.94777071874998,146.69628187499998,61.0,79.0
733,146.66205571875,147.40610259374998,59.0,79.0
734,147.73348321875,148.148661375,54.0,77.0
735,147.37634071875,148.4909229375,63.0,83.0
736,148.09062571874998,148.51026815625,59.0,73.0
737,148.44776821874999,148.5980656875,54.0,71.0
738,146.66205571875,148.90461299999998,47.0,77.0
739,148.80491071875,148.91651775,54.0,81.0
740,147.01919821874998,148.9433034375,51.0,77.0
741,148.80491071875,149.0563985625,59.0,84.0
742,148.80491071875,149.21860078125,63.0,84.0
743,149.16205321874997,149.24241028125,54.0,77.0
744,149.51919571874998,149.75877881249997,52.0,76.0
745,149.87633821875,150.00431428124998,52.0,75.0
746,149.51919571874998,150.34062346874998,59.0,77.0
747,150.23348071874997,150.62038509374997,56.0,84.0
748,149.51919571874998,150.69181359374997,40.0,82.0
749,149.87633821875,150.74984924999998,47.0,84.0
750,150.59062321874998,150.76324209375,52.0,83.0
751,150.94776571875,151.62038409374998,54.0,76.0
752,150.94776571875,151.67693165625,58.0,73.0
753,151.66205071874998,152.13675262499999,61.0,82.0
754,150.94776571875,152.14568118749997,42.0,82.0
755,151.30490821874997,152.1575859375,49.0,73.0
756,152.01919321875,152.35252621874997,54.0,82.0
757,152.37633571874997,152.93883515624998,63.0,84.0
758,152.73347821874998,153.58764403125,51.0,73.0
759,152.37633571874997,153.62187018749998,47.0,78.0
760,153.44776321874997,153.69329868749998,54.0,82.0
761,153.09062071875,153.71710818749997,63.0,85.0
762,153.80490571874998,153.934369875,54.0,74.0
763,153.80490571874998,153.96264365624998,61.0,76.0
764,153.80490571874998,154.23347671874998,59.0,71.0
765,154.16204821875,154.3897265625,54.0,75.0
766,154.51919071875,154.6397263125,54.0,82.0
767,154.51919071875,154.68883340624998,59.0,82.0
768,154.51919071875,154.83466659374997,63.0,83.0
769,154.87633321874998,155.01026165624998,59.0,76.0
770,153.80490571874998,155.07276159375,47.0,80.0
771,155.23347571875,155.46413024999998,52.0,78.0
772,155.23347571875,155.73347521875,56.0,79.0
773,155.59061821875,155.99091543749998,52.0,82.0
774,155.23347571875,156.3480579375,40.0,81.0
775,155.94776071874998,156.53109346875,59.0,82.0
776,156.30490321874998,156.5921053125,47.0,82.0
777,156.66204571875,157.42543781249998,54.0,78.0
778,156.66204571875,157.42692590624998,58.0,76.0
779,157.37633071874998,157.7379375,61.0,81.0
780,156.66204571875,157.83763978124998,42.0,82.0
781,157.01918821874997,157.84210406249997,49.0,77.0
782,157.73347321875,158.20668703124997,54.0,76.0
783,158.09061571874997,158.827222125,63.0,82.0
784,158.44775821874998,159.21263840625,51.0,79.0
785,158.80490071875,159.2349598125,61.0,82.0
786,158.09061571874997,159.26025740625,47.0,82.0
787,159.16204321874997,159.59507849999997,54.0,83.0
788,159.51918571874998,159.91650674999997,59.0,82.0
789,159.87632821875,160.10549465625,54.0,84.0
790,159.51918571874998,160.16353031249997,63.0,85.0
791,159.51918571874998,160.37037534374997,47.0,83.0
792,160.23347071874997,160.43585146874997,54.0,82.0
793,160.23347071874997,160.5147204375,59.0,83.0
794,160.59061321874998,160.72751784374998,47.0,79.0
795,160.94775571875,161.470076625,56.0,74.0
796,160.94775571875,161.65608834374999,52.0,77.0
797,160.94775571875,162.09061171874998,40.0,82.0
798,161.66204071874998,162.11144503124999,59.0,85.0
799,161.30489821874997,162.1516235625,47.0,77.0
800,162.01918321875,162.19180209374997,52.0,88.0
801,162.37632571875,162.88971806249998,58.0,82.0
802,162.37632571875,162.95370609375,54.0,79.0
803,162.73346821874998,163.23793199999997,49.0,76.0
804,162.37632571875,163.26620578125,42.0,83.0
805,163.09061071874999,163.33019381249997,54.0,82.0
806,163.09061071874999,163.39269374999998,58.0,82.0
807,163.44775321875,163.70965771874998,42.0,84.0
808,163.80489571874998,163.95816937499998,54.0,83.0
809,163.80489571874998,164.19775246874997,59.0,82.0
810,164.16203821874998,164.386740375,54.0,82.0
811,163.80489571874998,164.69179959374998,47.0,89.0
812,164.51918071875,164.7290019375,54.0,77.0
813,164.51918071875,164.81679946875,58.0,87.0
814,164.87632321874997,165.09507299999999,47.0,88.0
815,165.23346571874998,165.66947718749998,59.0,77.0
816,165.23346571874998,165.74983425,56.0,76.0
817,165.59060821875,166.06977440625,51.0,77.0
818,165.94775071874997,166.10251246874998,56.0,73.0
819,165.23346571874998,166.1159053125,44.0,81.0
820,165.94775071874997,166.12036959374998,59.0,78.0
821,165.94775071874997,166.21709568749998,63.0,81.0
822,166.66203571875,167.36441596875,59.0,77.0
823,166.66203571875,167.38822546875,52.0,73.0
824,167.37632071874998,167.68584421875,56.0,83.0
825,167.73346321875,168.19774846874998,52.0,82.0
826,168.09060571874997,168.53703384374998,64.0,82.0
827,168.44774821874998,168.63673612499997,52.0,77.0
828,166.66203571875,168.95667628124997,40.0,83.0
829,167.01917821874997,168.96709293749998,47.0,75.0
830,168.80489071875,168.97453340624998,56.0,83.0
831,168.80489071875,168.98941434374998,52.0,80.0
832,168.80489071875,169.04149762499998,59.0,83.0
833,169.16203321874997,169.32869971875,40.0,83.0
834,169.51917571874998,169.92244912499999,58.0,78.0
835,169.51917571874998,169.95518718749997,61.0,78.0
836,169.51917571874998,169.9670919375,54.0,74.0
837,169.87631821875,170.29149637499998,49.0,82.0
838,169.51917571874998,170.29893684374997,42.0,83.0
839,170.23346071874997,170.38822246874997,54.0,83.0
840,170.23346071874997,170.601019875,66.0,79.0
841,170.23346071874997,170.67691265624998,58.0,86.0
842,170.23346071874997,170.72155546874998,61.0,84.0
843,170.59060321874998,170.81530537499998,54.0,83.0
844,170.94774571874999,171.13226934374998,54.0,87.0
845,170.94774571874999,171.39268574999997,58.0,93.0
846,170.94774571874999,171.41351906249997,66.0,82.0
847,170.94774571874999,171.43286428124998,61.0,88.0
848,171.66203071874997,171.84953053124997,58.0,82.0
849,171.66203071874997,171.89714953125,66.0,80.0
850,171.66203071874997,171.92839949999998,61.0,82.0
851,172.37631571875,172.47601799999998,35.0,83.0
852,172.37631571875,172.65012496875,54.0,78.0
853,172.37631571875,172.720065375,59.0,76.0
854,172.37631571875,172.75280343749998,63.0,78.0
855,173.09060071874998,173.32423143749998,54.0,82.0
856,173.09060071874998,173.37333853124997,59.0,83.0
857,173.09060071874998,173.47899318749998,63.0,84.0
858,173.62631446874997,173.71411199999997,54.0,88.0
859,173.80488571874997,174.14268299999998,54.0,84.0
860,173.80488571874997,174.19625437499997,59.0,88.0
861,173.80488571874997,174.21559959374997,63.0,87.0
862,174.34059946874999,174.41351606249998,54.0,82.0
863,174.51917071875,174.80488471874997,59.0,84.0
864,174.16202821874998,174.84357515624998,51.0,75.0
865,174.51917071875,174.89119415624998,54.0,85.0
866,174.87631321874997,175.07869396874997,47.0,70.0
867,175.23345571874998,175.54893159374998,58.0,77.0
868,175.23345571874998,175.63970531249998,61.0,81.0
869,175.23345571874998,175.65012196874997,54.0,78.0
870,175.59059821875,176.05041918749998,49.0,73.0
871,175.94774071874997,176.09059771875,58.0,82.0
872,175.94774071874997,176.09059771875,61.0,82.0
873,175.94774071874997,176.10547865624997,54.0,82.0
874,175.23345571874998,176.59654959374998,42.0,82.0
875,176.66202571875,177.00726346874998,66.0,82.0
876,176.66202571875,177.02214440625,61.0,84.0
877,176.66202571875,177.02512059375,58.0,87.0
878,176.48345446874998,177.03107296874998,54.0,82.0
879,177.01916821874997,177.46410824999998,49.0,79.0
880,176.66202571875,177.51916771874997,42.0,82.0
881,177.37631071874998,177.64863187499998,54.0,86.0
882,177.37631071874998,177.660536625,58.0,96.0
883,177.37631071874998,177.69327468749998,61.0,85.0
884,177.73345321875,177.86142928124997,49.0,84.0
885,177.91202446875,177.99535771874997,54.0,82.0
886,178.09059571874997,178.1635123125,46.0,52.0
887,178.09059571874997,178.47303581249997,59.0,75.0
888,178.09059571874997,178.49833340624997,56.0,77.0
889,178.44773821874998,178.89416634375,51.0,75.0
890,178.80488071874998,179.0027971875,59.0,84.0
891,178.80488071874998,179.01470193749998,56.0,83.0
892,178.09059571874997,179.0266066875,44.0,77.0
893,178.80488071874998,179.0266066875,63.0,84.0
894,179.34059446874997,179.42839199999997,56.0,84.0
895,179.51916571874997,179.83464159374998,68.0,83.0
896,179.51916571874997,179.84059396874997,59.0,84.0
897,179.51916571874997,179.85547490624998,56.0,77.0
898,179.87630821874998,180.30785540624998,51.0,73.0
899,180.23345071875,180.47005762499998,56.0,77.0
900,180.23345071875,180.53404565625,59.0,82.0
901,180.23345071875,180.54148612499998,63.0,83.0
902,179.51916571874997,180.59952178125,44.0,82.0
903,180.59059321874997,180.7379145,51.0,82.0
904,180.94773571874998,181.32868771875,58.0,77.0
905,180.94773571874998,181.34654484374997,54.0,80.0
906,181.30487821875,181.77809203124997,49.0,70.0
907,181.66202071874997,181.851008625,54.0,83.0
908,180.94773571874998,181.9194609375,42.0,83.0
909,181.66202071874997,181.94178234375,58.0,89.0
910,181.66202071874997,181.9670799375,61.0,86.0
911,182.01916321874998,182.27511534374997,49.0,80.0
912,182.19773446874999,182.45517468749998,54.0,86.0
913,182.73344821874997,182.93731706249997,54.0,87.0
914,182.37630571875,182.9432694375,66.0,87.0
915,182.55487696874997,183.10993593749998,49.0,85.0
916,182.91201946874997,183.26023340624997,61.0,82.0
917,182.37630571875,183.29445956249998,42.0,84.0
918,183.09059071874998,183.31082859375,54.0,89.0
919,183.26916196874998,183.42987609374998,49.0,89.0
920,183.62630446875,183.71112581249997,58.0,81.0
921,183.44773321875,183.7170781875,54.0,84.0
922,183.80487571874997,184.19326818749997,56.0,83.0
923,183.80487571874997,184.1992205625,52.0,83.0
924,184.16201821874998,184.57719637499997,47.0,69.0
925,184.51916071875,184.73047003124998,64.0,76.0
926,184.51916071875,184.73195812499998,52.0,84.0
927,184.51916071875,184.77064856249999,56.0,83.0
928,183.80487571874997,185.02511259374998,40.0,83.0
929,185.05487446874997,185.14862437499997,52.0,78.0
930,185.23344571874998,185.71558809374997,56.0,78.0
931,185.23344571874998,185.74237378124997,52.0,78.0
932,185.23344571874998,185.7468380625,59.0,81.0
933,185.59058821874999,186.041480625,47.0,69.0
934,185.23344571874998,186.07570678124998,40.0,83.0
935,185.94773071874997,186.0861234375,56.0,84.0
936,185.94773071874997,186.10844484375,52.0,83.0
937,185.94773071874997,186.13523053125,59.0,84.0
938,186.30487321874998,186.44028974999998,40.0,82.0
939,186.66201571874998,187.05933674999997,63.0,83.0
940,186.66201571874998,187.09356290624999,66.0,80.0
941,186.66201571874998,187.09802718749998,58.0,83.0
942,186.66201571874998,187.50427678124998,39.0,84.0
943,187.01915821875,187.50427678124998,46.0,68.0
944,187.37630071874997,187.50427678124998,58.0,85.0
945,187.37630071874997,187.52213390625,63.0,93.0
946,187.37630071874997,187.57570528124998,66.0,84.0
947,188.09058571875,188.523621,58.0,87.0
948,188.09058571875,188.62034709374998,39.0,98.0
949,188.09058571875,188.66201371875,63.0,85.0
950,188.80487071874998,189.34951303124998,58.0,83.0
951,188.80487071874998,189.4135010625,38.0,91.0
952,188.80487071874998,189.434334375,62.0,82.0
953,189.51915571874997,189.75873881249998,56.0,83.0
954,189.51915571874997,189.81826256249997,61.0,82.0
955,189.87629821874998,190.00725046875,56.0,84.0
956,189.51915571874997,190.05189328125,37.0,88.0
957,190.23344071875,190.40605959374997,56.0,84.0
958,190.23344071875,190.42094053124998,61.0,84.0
959,190.23344071875,190.45814287499996,64.0,85.0
960,190.76915446874997,190.86736865624997,56.0,83.0
961,190.94772571874998,191.14713028124999,56.0,80.0
962,190.94772571874998,191.24832065624997,61.0,82.0
963,191.30486821875,191.37927290624998,61.0,53.0
964,190.94772571874998,191.38671337499997,64.0,82.0
965,191.30486821875,191.44326093749999,56.0,82.0
966,190.94772571874998,191.44772521874998,49.0,84.0
967,191.66201071874997,191.7587368125,56.0,85.0
968,191.66201071874997,191.82867721875,61.0,88.0
969,191.66201071874997,191.96855803124998,64.0,86.0
970,192.01915321874998,192.08760553124998,56.0,79.0
971,192.37629571875,192.77064056249998,58.0,84.0
972,192.37629571875,192.78849768749998,61.0,83.0
973,192.37629571875,192.79742624999997,54.0,82.0
974,193.09058071874998,193.26022340625,54.0,89.0
975,193.09058071874998,193.26319959375,66.0,87.0
976,192.73343821874997,193.69921106249998,49.0,78.0
977,192.37629571875,193.71409199999997,42.0,83.0
978,193.62629446875,194.16944868749997,54.0,83.0
979,193.80486571874997,194.18432962499998,58.0,88.0
980,193.80486571874997,194.22302006249998,61.0,85.0
981,194.34057946874998,194.45962696874997,54.0,84.0
982,194.51915071874998,194.58313875,54.0,76.0
983,194.16200821874997,194.61587681249998,49.0,81.0
984,194.69772196875,194.93135268749998,54.0,84.0
985,194.51915071874998,194.96557884374997,58.0,93.0
986,194.51915071874998,195.15307865625,61.0,88.0
987,194.51915071874998,195.16795959374997,66.0,83.0
988,195.05486446874997,195.19474528124996,54.0,86.0
989,194.87629321874996,195.20962621874997,49.0,87.0
990,193.80486571874997,195.21557859374997,42.0,84.0
991,195.23343571874997,195.333138,35.0,83.0
992,195.23343571874997,195.50724496874997,54.0,78.0
993,195.23343571874997,195.57718537499997,59.0,76.0
994,195.23343571874997,195.6099234375,63.0,78.0
995,195.94772071875,196.18135143749998,54.0,82.0
996,195.94772071875,196.23045853124998,59.0,83.0
997,195.94772071875,196.3361131875,63.0,84.0
998,196.48343446874998,196.57123199999998,54.0,88.0
999,196.66200571874998,196.99980299999999,54.0,84.0
1000,196.66200571874998,197.05337437499998,59.0,88.0
1001,196.66200571874998,197.07271959374998,63.0,87.0
1002,197.19771946874997,197.2706360625,54.0,82.0
1003,197.37629071874997,197.66200471874998,59.0,84.0
1004,197.01914821875,197.70069515624996,51.0,75.0
1005,197.37629071874997,197.74831415625,54.0,85.0
1006,197.73343321874998,197.93581396874998,47.0,70.0
1007,198.09057571875,198.40605159374996,58.0,77.0
1008,198.09057571875,198.49682531249996,61.0,81.0
1009,198.09057571875,198.50724196874998,54.0,78.0
1010,198.44771821874997,198.90753918749996,49.0,73.0
1011,198.80486071874998,198.94771771874997,58.0,82.0
1012,198.80486071874998,198.94771771874997,61.0,82.0
1013,198.80486071874998,198.96259865624998,54.0,82.0
1014,198.09057571875,199.45366959374996,42.0,82.0
1015,199.51914571874997,199.86438346874996,66.0,82.0
1016,199.51914571874997,199.87926440624997,61.0,84.0
1017,199.51914571874997,199.88224059374997,58.0,87.0
1018,199.34057446875,199.88819296875,54.0,82.0
1019,199.87628821874998,200.32122825,49.0,79.0
1020,199.51914571874997,200.37628771874998,42.0,82.0
1021,200.23343071875,200.505751875,54.0,86.0
1022,200.23343071875,200.51765662499997,58.0,96.0
1023,200.23343071875,200.5503946875,61.0,85.0
1024,200.59057321874997,200.71854928124998,49.0,84.0
1025,200.76914446874997,200.85247771874998,54.0,82.0
1026,200.94771571874998,201.02063231249997,46.0,52.0
1027,200.94771571874998,201.33015581249998,59.0,75.0
1028,200.94771571874998,201.35545340624998,56.0,77.0
1029,201.30485821874998,201.75128634374997,51.0,75.0
1030,201.66200071874997,201.85991718749997,59.0,84.0
1031,201.66200071874997,201.8718219375,56.0,83.0
1032,200.94771571874998,201.88372668749997,44.0,77.0
1033,201.66200071874997,201.88372668749997,63.0,84.0
1034,202.19771446874998,202.28551199999998,56.0,84.0
1035,202.37628571874998,202.69176159375,68.0,83.0
1036,202.37628571874998,202.69771396874998,59.0,84.0
1037,202.37628571874998,202.71259490625,56.0,77.0
1038,202.73342821874996,203.16497540624997,51.0,73.0
1039,203.09057071874997,203.327177625,56.0,77.0
1040,203.09057071874997,203.39116565624997,59.0,82.0
1041,203.09057071874997,203.398606125,63.0,83.0
1042,202.37628571874998,203.45664178124997,44.0,82.0
1043,203.44771321874998,203.59503449999997,51.0,82.0
1044,203.80485571875,204.18580771874997,58.0,77.0
1045,203.80485571875,204.20366484374998,54.0,80.0
1046,204.16199821874997,204.63521203124998,49.0,70.0
1047,204.51914071874998,204.70812862499997,54.0,83.0
1048,203.80485571875,204.77658093749997,42.0,83.0
1049,204.51914071874998,204.79890234374997,58.0,89.0
1050,204.51914071874998,204.82419993749997,61.0,86.0
1051,204.87628321875,205.13223534374998,49.0,80.0
1052,205.05485446874997,205.31229468749999,54.0,86.0
1053,205.59056821874998,205.79443706249998,54.0,87.0
1054,205.23342571874997,205.80038943749997,66.0,87.0
1055,205.41199696874997,205.96705593749996,49.0,85.0
1056,205.76913946874998,206.11735340624998,61.0,82.0
1057,205.23342571874997,206.1515795625,42.0,84.0
1058,205.94771071875,206.16794859374997,54.0,89.0
1059,206.12628196874996,206.28699609374996,49.0,89.0
1060,206.48342446874997,206.56824581249998,58.0,81.0
1061,206.30485321874997,206.57419818749997,54.0,84.0
1062,206.66199571874998,207.05038818749998,56.0,83.0
1063,206.66199571874998,207.05634056249997,52.0,83.0
1064,207.01913821875,207.43431637499998,47.0,69.0
1065,207.37628071874997,207.58759003125,64.0,76.0
1066,207.37628071874997,207.589078125,52.0,84.0
1067,207.37628071874997,207.62776856249997,56.0,83.0
1068,206.66199571874998,207.88223259375,40.0,83.0
1069,207.91199446874998,208.00574437499998,52.0,78.0
1070,208.09056571874999,208.57270809374998,56.0,78.0
1071,208.09056571874999,208.59949378124998,52.0,78.0
1072,208.09056571874999,208.60395806249997,59.0,81.0
1073,208.44770821874997,208.89860062499997,47.0,69.0
1074,208.09056571874999,208.93282678125,40.0,83.0
1075,208.80485071874998,208.94324343749997,56.0,84.0
1076,208.80485071874998,208.96556484374997,52.0,83.0
1077,208.80485071874998,208.99235053124997,59.0,84.0
1078,209.16199321874998,209.29740974999999,40.0,82.0
1079,209.51913571874996,209.91645674999998,63.0,83.0
1080,209.51913571874996,209.95068290624997,66.0,80.0
1081,209.51913571874996,209.9551471875,58.0,83.0
1082,209.51913571874996,210.36139678124997,39.0,84.0
1083,209.87627821874997,210.36139678124997,46.0,68.0
1084,210.23342071874998,210.36139678124997,58.0,85.0
1085,210.23342071874998,210.37925390624997,63.0,93.0
1086,210.23342071874998,210.43282528125,66.0,84.0
1087,210.94770571874997,211.38074099999997,58.0,87.0
1088,210.94770571874997,211.47746709374996,39.0,98.0
1089,210.94770571874997,211.51913371874997,63.0,85.0
1090,211.66199071875,212.20663303124996,58.0,83.0
1091,211.66199071875,212.27062106249997,38.0,91.0
1092,211.66199071875,212.29145437499997,62.0,82.0
1093,212.37627571874998,212.61585881249997,56.0,83.0
1094,212.37627571874998,212.67538256249998,61.0,82.0
1095,212.73341821875,212.86437046874997,56.0,84.0
1096,212.37627571874998,212.90901328124997,37.0,88.0
1097,213.09056071874997,213.26317959374998,56.0,84.0
1098,213.09056071874997,213.27806053124996,61.0,84.0
1099,213.09056071874997,213.31526287499997,64.0,85.0
1100,213.62627446874998,213.72448865624997,56.0,83.0
1101,213.80484571875,214.00425028124997,56.0,80.0
1102,213.80484571875,214.10544065624998,61.0,82.0
1103,214.16198821874997,214.23639290625,61.0,53.0
1104,213.80484571875,214.24383337499998,64.0,82.0
1105,214.16198821874997,214.30038093749997,56.0,82.0
1106,213.80484571875,214.30484521875,49.0,84.0
1107,214.51913071874998,214.61585681249997,56.0,85.0
1108,214.51913071874998,214.68579721874997,61.0,88.0
1109,214.51913071874998,214.82567803124996,64.0,86.0
1110,214.87627321875,214.94472553125,56.0,79.0
1111,215.23341571874997,215.6277605625,58.0,84.0
1112,215.23341571874997,215.64561768749996,61.0,83.0
1113,215.23341571874997,215.65454624999998,54.0,82.0
1114,215.94770071874999,216.11734340624997,54.0,89.0
1115,215.94770071874999,216.12031959374997,66.0,87.0
1116,215.59055821874998,216.55633106249996,49.0,78.0
1117,215.23341571874997,216.57121199999997,42.0,83.0
1118,216.48341446874997,217.02656868749997,54.0,83.0
1119,216.66198571874997,217.04144962499998,58.0,88.0
1120,216.66198571874997,217.08014006249996,61.0,85.0
1121,217.19769946875,217.31674696874998,54.0,84.0
1122,217.37627071874996,217.44025874999997,54.0,76.0
1123,217.01912821874998,217.47299681249999,49.0,81.0
1124,217.55484196874997,217.78847268749996,54.0,84.0
1125,217.37627071874996,217.82269884374998,58.0,93.0
1126,217.37627071874996,218.01019865624997,61.0,88.0
1127,217.37627071874996,218.02507959374998,66.0,83.0
1128,217.91198446874998,218.05186528124997,54.0,86.0
1129,217.73341321874997,218.06674621874998,49.0,87.0
1130,216.66198571874997,218.07269859374998,42.0,84.0
1131,218.09055571874998,219.041447625,59.0,80.0
1132,218.80484071874997,219.17686415624996,52.0,85.0
1133,218.09055571874998,219.20513793749998,40.0,84.0
1134,218.44769821874996,219.28995928124996,47.0,77.0
1135,219.16198321874998,219.34353065624998,64.0,82.0
1136,219.51912571874996,220.26168449999997,54.0,78.0
1137,219.51912571874996,220.29144637499996,58.0,76.0
1138,220.23341071874998,220.40156531249997,61.0,78.0
1139,219.51912571874996,220.40900578125,42.0,83.0
1140,219.87626821874997,220.44323193749997,49.0,76.0
1141,220.94769571874997,221.69025449999998,59.0,78.0
1142,220.94769571874997,221.69620687499997,56.0,76.0
1143,221.66198071875,221.80930199999997,63.0,86.0
1144,222.01912321874997,222.46108706249998,56.0,81.0
1145,222.37626571874998,222.78846768749997,68.0,84.0
1146,222.73340821875,222.99977699999997,56.0,78.0
1147,221.30483821874998,223.18430062499996,51.0,77.0
1148,220.94769571874997,223.29293146874997,44.0,83.0
1149,223.09055071874997,223.3003719375,63.0,80.0
1150,223.09055071874997,223.33013381249998,56.0,76.0
1151,223.44769321874998,223.55185978125,51.0,83.0
1152,223.80483571874998,224.30483521875,56.0,76.0
1153,223.80483571874998,224.60691824999998,52.0,73.0
1154,223.80483571874998,224.97298931249998,40.0,82.0
1155,224.87626321874998,225.02507259374997,52.0,83.0
1156,224.16197821874997,225.02656068749997,47.0,75.0
1157,224.51912071874997,225.05334637499996,59.0,84.0
1158,225.23340571874996,225.78697659374998,54.0,82.0
1159,225.23340571874996,225.78697659374998,58.0,79.0
1160,225.23340571874996,226.07715487499996,42.0,82.0
1161,225.59054821874997,226.09352390624997,49.0,76.0
1162,225.94769071874998,226.11435721874997,54.0,82.0
1163,225.94769071874998,226.42685690624998,58.0,78.0
1164,226.30483321874996,226.69322568749996,54.0,82.0
1165,226.66197571874997,226.76763037499998,35.0,82.0
1166,226.66197571874997,227.06971340624997,59.0,78.0
1167,227.37626071874996,227.57566528124997,61.0,78.0
1168,227.73340321874997,228.22447415624998,54.0,82.0
1169,228.09054571874998,228.56078334374996,59.0,76.0
1170,228.09054571874998,228.70215224999998,66.0,74.0
1171,228.44768821875,228.78102121874997,54.0,75.0
1172,227.01911821874998,228.81971165624998,47.0,83.0
1173,228.80483071874997,228.88369968749998,63.0,75.0
1174,228.80483071874997,228.92239012499996,59.0,72.0
1175,229.51911571875,230.47000762499997,59.0,80.0
1176,230.23340071874998,230.60542415624997,52.0,85.0
1177,229.51911571875,230.63369793749996,40.0,84.0
1178,229.87625821874997,230.71851928124997,47.0,77.0
1179,230.59054321874999,230.77209065625,64.0,82.0
1180,230.94768571874997,231.69024449999998,54.0,78.0
1181,230.94768571874997,231.72000637499997,58.0,76.0
1182,231.66197071874998,231.83012531249997,61.0,78.0
1183,230.94768571874997,231.83756578124996,42.0,83.0
1184,231.30482821874998,231.87179193749998,49.0,76.0
1185,232.35691049999997,232.87327903124998,59.0,75.0
1186,232.34798193749998,233.05929074999997,56.0,71.0
1187,233.05333837499998,233.28994528124997,63.0,83.0
1188,233.40452849999997,233.80780190624998,56.0,82.0
1189,233.75274243749996,234.31077759374998,68.0,83.0
1190,234.13071824999997,234.53994403124997,56.0,74.0
1191,232.71107681249998,234.77357474999997,51.0,75.0
1192,234.505717875,234.83458659374998,63.0,82.0
1193,234.51018215624998,234.84500324999996,59.0,77.0
1194,232.35393431249997,234.85244371874998,44.0,81.0
1195,234.84053896874997,234.99678881249997,56.0,73.0
1196,235.24976474999997,236.38369218749997,56.0,75.0
1197,235.24827665624997,236.46553734375,52.0,73.0
1198,235.23190762499996,236.59648959374996,40.0,78.0
1199,236.28845418749998,236.6694061875,59.0,80.0
1200,235.76613328124998,236.70512043749997,47.0,76.0
1201,237.81821456249997,239.54291521874998,61.0,77.0
1202,237.62922665624998,239.54886759374997,54.0,71.0
1203,237.73488131249997,239.54886759374997,58.0,75.0
1204,237.62178618749996,239.74529596874999,49.0,75.0
1205,237.43428637499997,239.75422453124997,42.0,68.0
1206,240.3598786875,240.75868781249997,54.0,69.0
1207,240.38666437499998,241.14261599999998,47.0,76.0
1208,241.04440181249998,241.45065140624996,54.0,64.0
1209,240.42386671874996,241.56969890624998,59.0,74.0
1210,240.52356899999998,242.00868656249997,63.0,83.0
