,start,end,pitch,velocity
0,19.4569561875,19.620890520833335,68.0,92.0
1,19.702857687500003,19.885234633333337,67.0,94.0
2,19.948759187500002,20.231545912500003,65.0,98.0
3,20.440562187500003,20.602447341666668,65.0,95.0
4,20.6864636875,20.825807870833337,63.0,92.0
5,20.932365187500004,21.276627287500002,65.0,97.0
6,21.4241681875,21.698758195833335,63.0,95.0
7,21.915971187500002,22.260233287500004,65.0,95.0
8,22.407774187500003,22.579905237500004,67.0,91.0
9,22.6536756875,23.063511520833337,68.0,91.0
10,23.145478687500002,23.280724512500004,68.0,89.0
11,23.391380187500005,23.536871908333335,68.0,91.0
12,23.637281687500003,23.801216020833337,70.0,94.0
13,23.883183187500002,24.305314095833335,72.0,92.0
14,24.374986187500003,24.698756495833337,70.0,92.0
15,24.866789187500004,25.22539554166667,72.0,93.0
16,25.358592187500005,25.497936370833337,75.0,97.0
17,25.604493687500003,26.524575133333336,72.0,91.0
18,27.325804187500005,27.483590983333336,72.0,93.0
19,27.571705687500003,27.72129576666667,70.0,92.0
20,27.817607187500005,28.18850861666667,70.0,94.0
21,28.309410187500003,28.481541237500004,70.0,91.0
22,28.555311687500005,28.69875422916667,68.0,78.0
23,28.801213187500004,29.096294987500006,70.0,92.0
24,29.293016187500005,29.456950520833338,70.0,91.0
25,29.538917687500003,29.67006515416667,72.0,90.0
26,29.784819187500005,30.141376362500004,70.0,92.0
27,30.276622187500003,30.43850734166667,68.0,91.0
28,30.522523687500005,30.946703775000003,65.0,93.0
29,31.260228187500005,31.432359237500005,65.0,92.0
30,31.506129687500003,31.647523050000004,67.0,95.0
31,31.752031187500005,32.3298997125,68.0,91.0
32,32.4897356875,32.6126864375,68.0,90.0
33,32.735637187500004,33.2274401875,68.0,92.0
34,33.4733416875,33.719243187500005,65.0,96.0
35,33.719243187500005,35.194652187500004,63.0,94.0
36,35.194652187500004,35.35858652083334,68.0,92.0
37,35.44055368750001,35.62293063333334,67.0,94.0
38,35.6864551875,35.9692419125,65.0,98.0
39,36.178258187500006,36.340143341666675,65.0,95.0
40,36.42415968750001,36.56350387083334,63.0,92.0
41,36.6700611875,37.014323287500005,65.0,97.0
42,37.16186418750001,37.43645419583334,63.0,95.0
43,37.653667187500005,37.99792928750001,65.0,95.0
44,38.1454701875,38.31760123750001,67.0,91.0
45,38.391371687500005,38.80120752083334,68.0,91.0
46,38.8831746875,39.01842051250001,68.0,89.0
47,39.129076187500004,39.27456790833334,68.0,91.0
48,39.37497768750001,39.53891202083334,70.0,94.0
49,39.62087918750001,40.04301009583334,72.0,92.0
50,40.112682187500006,40.436452495833336,70.0,92.0
51,40.6044851875,40.96309154166667,72.0,93.0
52,41.09628818750001,41.235632370833336,75.0,97.0
53,41.3421896875,42.262271133333336,72.0,91.0
54,43.063500187500004,43.221286983333336,72.0,93.0
55,43.30940168750001,43.45899176666667,75.0,92.0
56,43.55530318750001,43.92620461666667,70.0,94.0
57,44.047106187500006,44.2192372375,70.0,91.0
58,44.29300768750001,44.436450229166674,68.0,78.0
59,44.5389091875,44.83399098750001,70.0,92.0
60,45.03071218750001,45.19464652083334,70.0,91.0
61,45.2766136875,45.40776115416667,72.0,90.0
62,45.522515187500005,45.879072362500004,70.0,92.0
63,46.01431818750001,46.17620334166667,68.0,91.0
64,46.260219687500005,46.684399775,65.0,93.0
65,46.997924187500004,47.17005523750001,65.0,92.0
66,47.243825687500006,47.38521905,67.0,95.0
67,47.48972718750001,48.06759571250001,68.0,91.0
68,48.22743168750001,48.35038243750001,67.0,90.0
69,48.4733331875,48.96513618750001,65.0,92.0
70,48.96513618750001,49.456939187500005,63.0,96.0
71,49.456939187500005,50.932348187500004,65.0,94.0
72,50.932348187500004,51.07783990833334,68.0,93.0
73,51.178249687500006,51.32988894583334,70.0,91.0
74,51.42415118750001,52.09218359583334,72.0,95.0
75,52.16185568750001,52.31964248333334,70.0,97.0
76,52.40775718750001,52.79505205000001,72.0,100.0
77,52.89956018750001,53.30119930416667,77.0,96.0
78,53.391363187500005,54.57578874583334,75.0,98.0
79,54.866772187500004,55.016362266666675,72.0,98.0
80,55.112673687500006,55.23972279583334,75.0,102.0
81,55.35857518750001,55.723329079166675,77.0,97.0
82,55.850378187500006,56.00201744583334,77.0,95.0
83,56.09627968750001,56.237673050000005,75.0,107.0
84,56.34218118750001,56.92414807083334,77.0,98.0
85,57.07988568750001,57.50406577500001,75.0,98.0
86,57.57168868750001,58.51840946250001,72.0,92.0
87,58.80119618750001,58.96717970000001,72.0,98.0
88,59.047097687500006,59.19463858750001,75.0,100.0
89,59.29299918750001,59.627015391666674,77.0,96.0
90,59.784802187500006,59.95693323750001,77.0,95.0
91,60.03070368750001,60.14750690000001,75.0,98.0
92,60.27660518750001,60.67209676666668,77.0,98.0
93,60.76840818750001,61.10857192916667,75.0,102.0
94,61.260211187500005,61.58603067500001,72.0,93.0
95,61.75201418750001,61.90775180416667,72.0,96.0
96,61.99791568750001,62.15775166250001,70.0,93.0
97,62.24381718750001,62.58398092916668,72.0,93.0
98,62.73562018750001,62.915947954166676,72.0,97.0
99,62.981521687500006,63.12701340833334,75.0,98.0
100,63.22742318750001,63.57373446666668,77.0,97.0
101,63.719226187500006,63.911849029166675,77.0,95.0
102,63.96512768750001,64.10652105000001,75.0,105.0
103,64.2110291875,64.60856994583334,77.0,97.0
104,64.70283218750001,65.10652048333334,80.0,95.0
105,65.19463518750001,66.33807716250001,79.0,95.0
106,66.42414268750001,66.62291306666667,72.0,97.0
107,66.67004418750001,66.82783098333334,80.0,91.0
108,66.91594568750001,67.0880767375,79.0,95.0
109,67.16184718750002,67.52250272083334,77.0,98.0
110,67.6536501875,67.97537131666668,75.0,107.0
111,68.14545318750001,68.45692842083334,72.0,102.0
112,68.63725618750001,68.8831576875,70.0,91.0
113,68.8831576875,69.95487839166668,72.0,95.0
114,70.35856668750002,70.49586169166668,72.0,102.0
115,70.6044681875,70.74176319166668,80.0,93.0
116,70.8503696875,71.01020566250001,79.0,97.0
117,71.09627118750001,71.44668082500002,77.0,102.0
118,71.58807418750001,71.85241830000001,75.0,102.0
119,72.0798771875,72.36676227083335,72.0,102.0
120,72.57168018750001,72.69872929583335,70.0,95.0
121,72.81758168750001,74.12700717500002,72.0,98.0
122,74.53889218750001,74.692580625,72.0,93.0
123,74.78479368750001,74.90979361666668,75.0,97.0
124,75.03069518750002,75.40569497500002,70.0,93.0
125,75.5224981875,75.6577440125,72.0,92.0
126,75.76839968750001,76.26839940416667,70.0,95.0
127,76.50610418750001,76.63315329583334,68.0,96.0
128,76.75200568750002,76.87290725833334,70.0,98.0
129,76.9979071875,77.36266107916667,72.0,93.0
130,77.48971018750001,77.65774287916668,75.0,97.0
131,77.73561168750001,78.31348021250001,72.0,95.0
132,78.4733161875,78.65569313333334,72.0,95.0
133,78.7192176875,78.8544635125,75.0,100.0
134,78.96511918750001,79.14749613333335,77.0,93.0
135,79.21102068750001,79.6167581625,77.0,93.0
136,79.70282368750001,79.82987279583334,75.0,102.0
137,79.94872518750002,80.35446266250001,77.0,98.0
138,80.44052818750001,80.58192155,80.0,96.0
139,80.68642968750001,82.07782234166667,79.0,97.0
140,82.16183868750001,82.36060906666668,72.0,97.0
141,82.40774018750001,82.56552698333334,80.0,91.0
142,82.65364168750001,82.82577273750002,79.0,95.0
143,82.89954318750002,83.26019872083334,77.0,98.0
144,83.3913461875,83.71306731666668,75.0,107.0
145,83.88314918750001,84.19462442083335,72.0,102.0
146,84.37495218750001,84.62085368750002,70.0,91.0
147,84.62085368750002,85.69257439166668,72.0,95.0
148,86.09626268750002,86.23355769166668,72.0,102.0
149,86.34216418750002,86.47945919166668,80.0,93.0
150,86.5880656875,86.74790166250001,79.0,97.0
151,86.83396718750001,87.18437682500002,77.0,102.0
152,87.32577018750001,87.59011430000001,75.0,102.0
153,87.81757318750002,88.10445827083335,72.0,102.0
154,88.3093761875,88.43642529583335,75.0,95.0
155,88.55527768750001,89.86470317500002,72.0,98.0
156,90.27658818750001,90.43027662500002,72.0,93.0
157,90.52248968750001,90.64748961666668,75.0,97.0
158,90.76839118750001,91.14339097500002,70.0,93.0
159,91.26019418750002,91.39544001250002,72.0,92.0
160,91.50609568750001,92.00609540416669,70.0,95.0
161,92.24380018750001,92.37084929583335,68.0,96.0
162,92.48970168750002,92.61060325833334,70.0,98.0
163,92.73560318750002,93.10035707916668,72.0,93.0
164,93.22740618750001,93.39543887916668,75.0,97.0
165,93.47330768750001,94.05117621250001,72.0,95.0
166,94.21101218750002,94.39338913333334,72.0,95.0
167,94.45691368750002,94.59215951250002,75.0,100.0
168,94.70281518750001,94.88519213333335,77.0,93.0
169,94.94871668750001,95.35445416250002,77.0,93.0
170,95.44051968750001,95.56756879583335,75.0,102.0
171,95.68642118750002,96.09215866250001,77.0,98.0
172,96.1782241875,96.31961755000002,80.0,96.0
173,96.42412568750001,97.65363318750002,79.0,97.0
174,97.65363318750002,98.32371477500001,80.0,93.0
175,98.39133768750001,99.10240285833335,79.0,91.0
176,99.12904218750002,102.43436818333335,77.0,94.0
177,133.55525218750003,133.71918652083335,68.0,92.0
178,133.8011536875,133.98353063333334,67.0,94.0
179,134.0470551875,134.32984191250003,65.0,98.0
180,134.5388581875,134.70074334166668,65.0,95.0
181,134.7847596875,134.92410387083336,63.0,92.0
182,135.03066118750002,135.37492328750002,65.0,97.0
183,135.52246418750002,135.79705419583334,63.0,95.0
184,136.01426718750002,136.3585292875,65.0,95.0
185,136.50607018750003,136.67820123750002,67.0,91.0
186,136.75197168750003,137.16180752083335,68.0,91.0
187,137.2437746875,137.3790205125,68.0,89.0
188,137.4896761875,137.63516790833336,68.0,91.0
189,137.7355776875,137.89951202083336,70.0,94.0
190,137.9814791875,138.40361009583336,72.0,92.0
191,138.47328218750002,138.79705249583336,70.0,92.0
192,138.96508518750002,139.32369154166668,72.0,93.0
193,139.45688818750003,139.59623237083335,75.0,97.0
194,139.70278968750003,140.62287113333335,72.0,91.0
195,141.42410018750002,141.58188698333336,72.0,93.0
196,141.67000168750002,141.8195917666667,75.0,92.0
197,141.91590318750002,142.2868046166667,70.0,94.0
198,142.40770618750003,142.57983723750002,70.0,91.0
199,142.65360768750003,142.79705022916667,68.0,78.0
200,142.89950918750003,143.19459098750002,70.0,92.0
201,143.3913121875,143.55524652083335,70.0,91.0
202,143.6372136875,143.76836115416668,72.0,90.0
203,143.8831151875,144.23967236250002,70.0,92.0
204,144.37491818750001,144.53680334166668,68.0,91.0
205,144.62081968750002,145.044999775,65.0,93.0
206,145.35852418750002,145.5306552375,65.0,92.0
207,145.60442568750003,145.74581905000002,67.0,95.0
208,145.85032718750003,146.4281957125,68.0,91.0
209,146.5880316875,146.7109824375,67.0,90.0
210,146.8339331875,147.3257361875,65.0,92.0
211,147.3257361875,147.81753918750002,63.0,96.0
212,147.81753918750002,149.29294818750003,65.0,94.0
213,149.29294818750003,149.43843990833335,68.0,93.0
214,149.53884968750003,149.69048894583335,70.0,91.0
215,149.7847511875,150.45278359583335,72.0,95.0
216,150.5224556875,150.68024248333336,70.0,97.0
217,150.76835718750002,151.15565205000001,72.0,100.0
218,151.26016018750002,151.6617993041667,77.0,96.0
219,151.75196318750002,152.93638874583334,75.0,98.0
220,153.2273721875,153.37696226666668,72.0,98.0
221,153.4732736875,153.60032279583336,75.0,102.0
222,153.7191751875,154.0839290791667,77.0,97.0
223,154.21097818750002,154.36261744583337,77.0,95.0
224,154.45687968750002,154.59827305000002,75.0,107.0
225,154.70278118750002,155.28474807083336,77.0,98.0
226,155.44048568750003,155.86466577500002,75.0,98.0
227,155.93228868750003,156.87900946250002,72.0,92.0
228,157.16179618750002,157.3277797,72.0,98.0
229,157.40769768750002,157.5552385875,75.0,100.0
230,157.65359918750002,157.98761539166668,77.0,96.0
231,158.14540218750003,158.31753323750002,77.0,95.0
232,158.39130368750003,158.50810690000003,75.0,98.0
233,158.63720518750003,159.03269676666667,77.0,98.0
234,159.12900818750003,159.4691719291667,75.0,102.0
235,159.6208111875,159.94663067500002,72.0,93.0
236,160.11261418750001,160.26835180416668,72.0,96.0
237,160.35851568750002,160.5183516625,70.0,93.0
238,160.60441718750002,160.94458092916668,72.0,93.0
239,161.09622018750002,161.2765479541667,72.0,97.0
240,161.34212168750003,161.48761340833335,75.0,98.0
241,161.58802318750003,161.93433446666668,77.0,97.0
242,162.07982618750003,162.2724490291667,77.0,95.0
243,162.32572768750003,162.46712105000003,75.0,105.0
244,162.5716291875,162.96916994583336,77.0,97.0
245,163.0634321875,163.46712048333336,80.0,95.0
246,163.55523518750002,164.69867716250002,79.0,95.0
247,164.78474268750003,164.9835130666667,72.0,97.0
248,165.03064418750003,165.18843098333335,80.0,91.0
249,165.27654568750003,165.44867673750002,79.0,95.0
250,165.52244718750003,165.88310272083336,77.0,98.0
251,166.0142501875,166.3359713166667,75.0,107.0
252,166.50605318750002,166.81752842083336,72.0,102.0
253,166.99785618750002,167.24375768750002,70.0,91.0
254,167.24375768750002,168.3154783916667,72.0,95.0
255,168.71916668750004,168.85646169166668,72.0,102.0
256,168.9650681875,169.10236319166668,80.0,93.0
257,169.2109696875,169.37080566250003,79.0,97.0
258,169.4568711875,169.80728082500002,77.0,102.0
259,169.94867418750002,170.21301830000002,75.0,102.0
260,170.44047718750002,170.72736227083337,72.0,102.0
261,170.93228018750003,171.05932929583335,70.0,95.0
262,171.17818168750003,172.48760717500002,72.0,98.0
263,172.89949218750002,173.053180625,72.0,93.0
264,173.14539368750002,173.2703936166667,75.0,97.0
265,173.39129518750002,173.76629497500002,70.0,93.0
266,173.88309818750002,174.01834401250002,72.0,92.0
267,174.12899968750003,174.62899940416668,70.0,95.0
268,174.86670418750003,174.99375329583336,68.0,96.0
269,175.11260568750004,175.23350725833336,70.0,98.0
270,175.3585071875,175.7232610791667,72.0,93.0
271,175.8503101875,176.01834287916668,75.0,97.0
272,176.09621168750002,176.67408021250003,72.0,95.0
273,176.83391618750002,177.01629313333336,72.0,95.0
274,177.07981768750003,177.21506351250002,75.0,100.0
275,177.32571918750003,177.50809613333337,77.0,93.0
276,177.57162068750003,177.97735816250002,77.0,93.0
277,178.06342368750003,178.19047279583336,75.0,102.0
278,178.30932518750004,178.71506266250003,77.0,98.0
279,178.8011281875,178.94252155000004,80.0,96.0
280,179.04702968750001,180.4384223416667,79.0,97.0
281,180.52243868750003,180.7212090666667,72.0,97.0
282,180.76834018750003,180.92612698333335,80.0,91.0
283,181.01424168750003,181.18637273750002,79.0,95.0
284,181.26014318750003,181.62079872083336,77.0,98.0
285,181.7519461875,182.0736673166667,75.0,107.0
286,182.24374918750001,182.55522442083335,72.0,102.0
287,182.73555218750002,182.98145368750002,70.0,91.0
288,182.98145368750002,184.0531743916667,72.0,95.0
289,184.45686268750003,184.59415769166668,72.0,102.0
290,184.70276418750004,184.84005919166668,80.0,93.0
291,184.94866568750004,185.10850166250003,79.0,97.0
292,185.1945671875,185.54497682500002,77.0,102.0
293,185.68637018750002,185.95071430000002,75.0,102.0
294,186.17817318750002,186.46505827083337,72.0,102.0
295,186.66997618750003,186.79702529583335,75.0,95.0
296,186.91587768750003,188.22530317500002,72.0,98.0
297,188.63718818750002,188.79087662500004,72.0,93.0
298,188.88308968750002,189.0080896166667,75.0,97.0
299,189.12899118750002,189.50399097500002,70.0,93.0
300,189.62079418750002,189.75604001250002,72.0,92.0
301,189.86669568750003,190.3666954041667,70.0,95.0
302,190.60440018750003,190.73144929583336,68.0,96.0
303,190.85030168750004,190.97120325833336,70.0,98.0
304,191.09620318750004,191.4609570791667,72.0,93.0
305,191.5880061875,191.75603887916668,75.0,97.0
306,191.83390768750002,192.41177621250003,72.0,95.0
307,192.57161218750002,192.75398913333336,72.0,95.0
308,192.81751368750002,192.95275951250002,75.0,100.0
309,193.06341518750003,193.24579213333337,77.0,93.0
310,193.30931668750003,193.71505416250002,77.0,93.0
311,193.80111968750003,193.92816879583336,75.0,102.0
312,194.04702118750004,194.45275866250003,77.0,98.0
313,194.53882418750004,194.68021755000004,80.0,96.0
314,194.7847256875,196.01423318750003,79.0,97.0
315,196.01423318750003,196.68431477500002,80.0,93.0
316,196.75193768750003,197.46300285833337,79.0,91.0
317,197.48964218750004,199.94865718750003,77.0,94.0
318,200.19455868750003,200.3933290666667,72.0,97.0
319,200.44046018750004,200.59824698333335,80.0,91.0
320,200.68636168750004,200.85849273750003,79.0,95.0
321,200.93226318750004,201.29291872083337,77.0,98.0
322,201.42406618750002,201.7457873166667,75.0,107.0
323,201.91586918750002,202.22734442083336,72.0,102.0
324,202.40767218750003,202.65357368750003,70.0,91.0
325,202.65357368750003,203.7252943916667,72.0,95.0
326,204.12898268750004,204.2662776916667,72.0,102.0
327,204.37488418750002,204.5121791916667,80.0,93.0
328,204.62078568750002,204.78062166250004,79.0,97.0
329,204.86668718750002,205.21709682500003,77.0,102.0
330,205.35849018750002,205.62283430000002,75.0,102.0
331,205.85029318750003,206.13717827083337,72.0,102.0
332,206.34209618750003,206.46914529583336,70.0,95.0
333,206.58799768750004,207.89742317500003,72.0,98.0
334,208.30930818750002,208.46299662500002,72.0,93.0
335,208.55520968750002,208.6802096166667,75.0,97.0
336,208.80111118750003,209.17611097500003,70.0,93.0
337,209.29291418750003,209.42816001250003,72.0,92.0
338,209.53881568750003,210.03881540416668,70.0,95.0
339,210.27652018750004,210.40356929583336,68.0,96.0
340,210.52242168750004,210.64332325833337,70.0,98.0
341,210.76832318750002,211.1330770791667,72.0,93.0
342,211.26012618750002,211.4281588791667,75.0,97.0
343,211.50602768750002,212.08389621250004,72.0,95.0
344,212.24373218750003,212.42610913333337,72.0,95.0
345,212.48963368750003,212.62487951250003,75.0,100.0
346,212.73553518750003,212.91791213333337,77.0,93.0
347,212.98143668750004,213.38717416250003,77.0,93.0
348,213.47323968750004,213.60028879583336,75.0,102.0
349,213.71914118750004,214.12487866250004,77.0,98.0
350,214.21094418750002,214.35233755000002,80.0,96.0
351,214.45684568750002,215.8482383416667,79.0,97.0
352,215.93225468750003,216.1310250666667,72.0,97.0
353,216.17815618750004,216.33594298333335,80.0,91.0
354,216.42405768750004,216.59618873750003,79.0,95.0
355,216.66995918750004,217.03061472083337,77.0,98.0
356,217.16176218750002,217.4834833166667,75.0,107.0
357,217.65356518750002,217.96504042083336,72.0,102.0
358,218.14536818750003,218.39126968750003,70.0,91.0
359,218.39126968750003,219.4629903916667,72.0,95.0
360,219.86667868750004,220.0039736916667,72.0,102.0
361,220.11258018750004,220.2498751916667,80.0,93.0
362,220.35848168750002,220.51831766250004,79.0,97.0
363,220.60438318750002,220.95479282500003,77.0,102.0
364,221.09618618750002,221.36053030000002,75.0,102.0
365,221.58798918750003,221.87487427083337,72.0,102.0
366,222.07979218750003,222.20684129583336,75.0,95.0
367,222.32569368750003,223.63511917500003,72.0,98.0
368,224.04700418750002,224.20069262500002,72.0,93.0
369,224.29290568750002,224.4179056166667,75.0,97.0
370,224.53880718750003,224.91380697500003,70.0,93.0
371,225.03061018750003,225.16585601250003,72.0,92.0
372,225.27651168750003,225.77651140416668,70.0,95.0
373,226.01421618750004,226.14126529583336,68.0,96.0
374,226.26011768750004,226.38101925833337,70.0,98.0
375,226.50601918750004,226.8707730791667,72.0,93.0
376,226.99782218750002,227.1658548791667,75.0,97.0
377,227.24372368750002,227.82159221250004,72.0,95.0
378,227.98142818750003,228.16380513333337,72.0,95.0
379,228.22732968750003,228.36257551250003,75.0,100.0
380,228.47323118750003,228.65560813333337,77.0,93.0
381,228.71913268750004,229.12487016250003,77.0,93.0
382,229.21093568750004,229.33798479583336,75.0,102.0
383,229.45683718750004,229.86257466250004,77.0,98.0
384,229.94864018750002,230.09003355000004,80.0,96.0
385,230.19454168750002,231.42404918750003,79.0,97.0
386,231.42404918750003,232.09413077500002,80.0,93.0
387,232.16175368750004,232.87281885833337,79.0,91.0
388,232.89945818750004,235.35847318750004,77.0,94.0
