,start,end,pitch,velocity
0,4.211063187500001,4.465161404166667,60.0,92.0
1,4.211063187500001,4.829915295833334,65.0,92.0
2,4.702866187500001,4.963111941666667,60.0,81.0
3,5.194669187500001,5.3790953125000005,60.0,93.0
4,5.194669187500001,5.479505091666668,65.0,100.0
5,5.194669187500001,5.522537854166667,68.0,93.0
6,5.440570687500001,5.553275541666667,60.0,80.0
7,4.211063187500001,5.692619725000001,53.0,100.0
8,5.686472187500001,5.776636070833334,60.0,76.0
9,5.686472187500001,5.938521225000001,65.0,98.0
10,5.932373687500001,6.124996529166667,68.0,82.0
11,6.178275187500001,6.526635645833334,63.0,79.0
12,6.178275187500001,6.563520870833334,67.0,84.0
13,6.670078187500001,7.303274550000001,46.0,70.0
14,7.161881187500001,7.434422016666668,63.0,94.0
15,7.161881187500001,7.442618733333334,70.0,93.0
16,7.407782687500001,7.7233562791666674,67.0,81.0
17,6.178275187500001,7.780733295833334,39.0,94.0
18,7.899585687500001,8.020487258333334,67.0,77.0
19,7.6536841875000015,8.028683975000002,63.0,88.0
20,8.1454871875,8.235651070833335,37.0,91.0
21,8.1454871875,8.340159208333334,61.0,89.0
22,8.1454871875,8.3545034625,68.0,84.0
23,8.1454871875,8.366798537500001,65.0,86.0
24,8.391388687500001,8.700814741666667,61.0,86.0
25,8.637290187500001,8.9200769125,65.0,91.0
26,8.883191687500002,9.6086011125,68.0,87.0
27,9.374994687500001,9.7438469375,61.0,89.0
28,9.1290931875,9.811469850000002,56.0,87.0
29,9.620896187500001,9.909830450000001,65.0,90.0
30,9.866797687500002,10.004092691666669,68.0,85.0
31,10.1126991875,10.374994120833335,63.0,86.0
32,10.1126991875,10.5922071125,68.0,85.0
33,10.604502187500001,10.930321675000002,63.0,88.0
34,10.850403687500002,10.981551154166668,68.0,81.0
35,10.358600687500001,11.227452654166669,51.0,82.0
36,11.096305187500002,11.374993554166668,72.0,93.0
37,11.096305187500002,11.389337808333336,63.0,96.0
38,10.1126991875,11.528681991666668,44.0,91.0
39,11.342206687500001,11.577862291666667,68.0,86.0
40,11.588108187500001,11.911878495833335,63.0,88.0
41,11.834009687500002,11.959009616666668,68.0,83.0
42,12.079911187500002,12.512287991666668,65.0,92.0
43,12.079911187500002,12.844255016666668,70.0,93.0
44,12.817615687500002,12.934418900000002,65.0,85.0
45,12.571714187500001,13.219254804166669,53.0,85.0
46,13.063517187500002,13.319664583333335,73.0,93.0
47,13.063517187500002,13.327861300000002,65.0,98.0
48,13.309418687500003,13.598352950000002,70.0,88.0
49,12.079911187500002,13.862697062500002,46.0,90.0
50,13.555320187500001,13.879090495833335,65.0,93.0
51,13.801221687500002,14.057369083333334,70.0,92.0
52,14.047123187500002,14.057369083333334,70.0,91.0
53,14.047123187500002,14.387286929166669,58.0,90.0
54,14.047123187500002,14.39958200416667,46.0,93.0
55,14.538926187500001,14.793024404166669,72.0,93.0
56,14.538926187500001,15.018434112500001,48.0,91.0
57,14.538926187500001,15.112696354166669,60.0,93.0
58,15.030729187500002,15.549171516666668,51.0,105.0
59,15.030729187500002,15.581958383333335,63.0,95.0
60,15.522532187500001,15.854499212500002,60.0,96.0
61,15.522532187500001,15.924171304166668,48.0,97.0
62,16.014335187500002,16.588105354166668,61.0,97.0
63,16.014335187500002,16.61269550416667,65.0,100.0
64,16.506138187500003,17.149580445833337,56.0,82.0
65,16.014335187500002,17.215154179166667,49.0,100.0
66,16.7520396875,17.284826270833335,61.0,105.0
67,17.4897441875,17.55326874166667,61.0,82.0
68,17.243842687500003,17.555317920833335,68.0,93.0
69,17.981547187500002,19.852447766666668,67.0,82.0
70,17.981547187500002,19.854496945833336,63.0,79.0
71,17.981547187500002,19.868841200000002,39.0,94.0
72,19.948759187500002,20.137283670833337,41.0,91.0
73,19.948759187500002,20.389332708333335,65.0,91.0
74,19.948759187500002,20.40572614166667,68.0,86.0
75,20.932365187500004,21.13728310416667,65.0,92.0
76,20.932365187500004,21.231545345833336,68.0,90.0
77,20.932365187500004,21.2458896,72.0,92.0
78,21.4241681875,21.741790958333336,65.0,77.0
79,21.915971187500002,22.10859402916667,53.0,86.0
80,21.915971187500002,22.13933171666667,68.0,88.0
81,21.915971187500002,22.178266120833335,65.0,92.0
82,21.915971187500002,22.21310216666667,72.0,91.0
83,22.899577187500004,23.102445925,39.0,81.0
84,22.899577187500004,23.161872120833337,67.0,82.0
85,22.899577187500004,23.274576975000002,63.0,91.0
86,22.899577187500004,23.346298245833335,70.0,88.0
87,23.883183187500002,24.11269125416667,72.0,90.0
88,23.883183187500002,24.151625658333337,68.0,81.0
89,24.866789187500004,25.057362850000004,68.0,91.0
90,24.866789187500004,25.05941202916667,63.0,91.0
91,24.866789187500004,25.081953000000002,72.0,90.0
92,25.850395187500002,26.008181983333337,63.0,92.0
93,25.850395187500002,26.49178826666667,72.0,91.0
94,26.342198187500003,26.586050508333336,63.0,88.0
95,23.883183187500002,27.059410895833338,44.0,91.0
96,26.834001187500004,27.14342724166667,63.0,93.0
97,26.834001187500004,27.16801739166667,68.0,90.0
98,27.817607187500005,28.401623250000004,70.0,90.0
99,27.817607187500005,28.473344520833336,65.0,92.0
100,28.801213187500004,29.075803195833338,65.0,93.0
101,28.801213187500004,29.252032604166672,70.0,94.0
102,28.801213187500004,29.340147308333336,73.0,91.0
103,28.309410187500003,29.397524325000003,53.0,66.0
104,27.817607187500005,29.477442312500003,46.0,91.0
105,29.784819187500005,30.534818762500006,68.0,76.0
106,29.784819187500005,30.559408912500004,65.0,87.0
107,30.768425187500004,30.952851312500005,65.0,92.0
108,29.784819187500005,31.043015195833338,41.0,92.0
109,30.768425187500004,31.20694952916667,68.0,93.0
110,30.768425187500004,31.272523262500005,72.0,95.0
111,31.260228187500005,31.383178937500006,65.0,93.0
112,31.752031187500005,32.33194889166667,65.0,90.0
113,31.752031187500005,32.49588322500001,61.0,86.0
114,32.243834187500006,32.90571905833334,56.0,78.0
115,31.752031187500005,32.94875182083334,49.0,92.0
116,32.735637187500004,33.02457145,61.0,93.0
117,32.735637187500004,33.04506324166667,65.0,97.0
118,32.735637187500004,33.06350585416667,68.0,92.0
119,33.2274401875,33.36473519166667,49.0,92.0
120,33.719243187500005,33.86473490833334,39.0,92.0
121,33.719243187500005,34.44465261250001,63.0,90.0
122,33.719243187500005,34.452849329166675,67.0,85.0
123,34.456947687500005,34.76842292083334,58.0,88.0
124,34.70284918750001,34.89752120833334,63.0,95.0
125,34.70284918750001,34.903668745833336,75.0,100.0
126,35.194652187500004,35.3298980125,63.0,82.0
127,35.194652187500004,35.56145525833334,67.0,80.0
128,34.9487506875,35.58604540833334,58.0,81.0
129,34.2110461875,35.60243884166667,51.0,86.0
130,35.44055368750001,35.618832275,63.0,93.0
131,35.194652187500004,35.643422425000004,70.0,83.0
132,35.6864551875,35.79096332500001,41.0,93.0
133,35.6864551875,36.42620886666667,68.0,91.0
134,35.6864551875,36.442602300000004,65.0,92.0
135,36.42415968750001,36.823749625000005,60.0,85.0
136,36.6700611875,36.88317582083334,65.0,100.0
137,36.6700611875,36.891372537500004,72.0,95.0
138,37.16186418750001,37.430306658333336,65.0,91.0
139,36.915962687500006,37.44260173333334,60.0,82.0
140,36.178258187500006,37.50202792916667,53.0,92.0
141,37.653667187500005,37.93235555416667,65.0,91.0
142,37.653667187500005,38.15161772500001,68.0,87.0
143,37.89956868750001,38.24997832500001,60.0,76.0
144,37.653667187500005,38.25202750416667,53.0,93.0
145,38.1454701875,38.27866683333334,65.0,93.0
146,38.63727318750001,38.89546976250001,63.0,92.0
147,38.63727318750001,38.99178118333334,67.0,92.0
148,38.8831746875,39.129076187500004,58.0,78.0
149,38.63727318750001,39.184404025000006,51.0,96.0
150,39.129076187500004,39.479485825000005,63.0,95.0
151,39.37497768750001,39.52661694583334,67.0,93.0
152,39.62087918750001,40.13317397916667,63.0,92.0
153,39.62087918750001,40.213091966666674,68.0,91.0
154,40.35858368750001,40.44874757083334,63.0,83.0
155,40.112682187500006,40.76637034166667,51.0,76.0
156,40.6044851875,40.77251787916667,63.0,96.0
157,40.6044851875,40.80735392500001,72.0,95.0
158,39.62087918750001,41.395468345833336,44.0,92.0
159,41.09628818750001,41.40776342083334,51.0,84.0
160,41.3421896875,41.45284536250001,63.0,93.0
161,41.588091187500005,42.131123666666674,68.0,85.0
162,41.588091187500005,42.15571381666667,63.0,91.0
163,42.57169718750001,42.803254433333336,72.0,95.0
164,42.57169718750001,42.81759868750001,63.0,96.0
165,42.0798941875,42.90776257083334,51.0,70.0
166,42.81759868750001,43.10653295000001,68.0,91.0
167,41.588091187500005,43.157762429166674,44.0,91.0
168,43.063500187500004,43.36677870416667,63.0,92.0
169,43.30940168750001,43.49587699166667,68.0,78.0
170,43.55530318750001,43.922106258333336,65.0,87.0
171,43.55530318750001,43.97743409583334,70.0,86.0
172,44.5389091875,44.717187775000006,65.0,98.0
173,44.047106187500006,44.82579427083334,53.0,85.0
174,43.55530318750001,44.94874502083334,46.0,92.0
175,44.5389091875,45.006122037500006,73.0,93.0
176,45.03071218750001,45.35038413750001,65.0,91.0
177,45.03071218750001,45.43849884166667,70.0,87.0
178,45.522515187500005,45.62497414583334,41.0,92.0
179,45.522515187500005,46.354481929166674,68.0,87.0
180,45.522515187500005,46.35653110833334,65.0,92.0
181,46.260219687500005,46.61472768333334,60.0,85.0
182,46.50612118750001,46.69259649166667,65.0,96.0
183,46.50612118750001,46.84013739166667,68.0,94.0
184,46.50612118750001,46.86677672083334,72.0,94.0
185,46.01431818750001,47.00612090416667,53.0,81.0
186,46.75202268750001,47.0348094125,60.0,85.0
187,46.997924187500004,47.14956344583334,65.0,100.0
188,47.48972718750001,47.78071062916667,61.0,87.0
189,47.48972718750001,47.81964503333334,65.0,93.0
190,47.735628687500004,47.93644824583334,56.0,79.0
191,47.48972718750001,47.94054660416667,49.0,94.0
192,47.981530187500006,48.27456280833334,61.0,97.0
193,48.22743168750001,48.40980863333334,65.0,92.0
194,48.4733331875,48.96308700833334,63.0,91.0
195,48.4733331875,49.17210328333334,67.0,94.0
196,48.4733331875,49.23972619583334,39.0,94.0
197,48.96513618750001,49.25407045000001,46.0,87.0
198,49.21103768750001,49.36267694583334,63.0,88.0
199,49.456939187500005,49.78070949583334,65.0,88.0
200,49.456939187500005,49.85038158750001,68.0,90.0
201,49.456939187500005,50.07784047500001,41.0,95.0
202,49.94874218750001,50.13521749166667,65.0,100.0
203,49.94874218750001,50.17210271666667,68.0,98.0
204,50.44054518750001,50.766364675000005,63.0,85.0
205,50.44054518750001,51.024561250000005,39.0,102.0
206,50.44054518750001,51.36882335000001,75.0,97.0
207,50.44054518750001,51.377020066666674,67.0,91.0
208,50.932348187500004,51.436446262500006,63.0,94.0
209,51.42415118750001,51.436446262500006,63.0,92.0
210,51.42415118750001,52.206937629166674,56.0,93.0
211,51.915954187500006,52.47538010000001,51.0,81.0
212,52.40775718750001,52.551199729166676,56.0,86.0
213,51.42415118750001,52.80324876666668,44.0,92.0
214,52.653658687500005,52.87906839583334,51.0,85.0
215,52.40775718750001,52.93644541250001,60.0,102.0
216,52.40775718750001,52.96513392083334,63.0,94.0
217,52.40775718750001,52.98767489166667,68.0,90.0
218,52.89956018750001,53.04505190833334,56.0,97.0
219,53.391363187500005,54.061444775000005,63.0,92.0
220,53.391363187500005,54.10447753750001,60.0,93.0
221,53.88316618750001,54.46103471250001,55.0,83.0
222,54.62087068750001,54.78480502083334,55.0,91.0
223,53.391363187500005,54.79095255833334,48.0,92.0
224,54.37496918750001,54.90980495000001,60.0,96.0
225,54.37496918750001,54.90980495000001,67.0,96.0
226,54.866772187500004,55.151608091666674,63.0,93.0
227,55.112673687500006,55.29709981250001,60.0,91.0
228,55.35857518750001,55.58398489583334,60.0,94.0
229,55.35857518750001,55.99586990833334,65.0,93.0
230,55.850378187500006,56.18439439166667,60.0,78.0
231,56.34218118750001,56.647508883333344,60.0,95.0
232,55.35857518750001,56.85857433750001,53.0,93.0
233,56.34218118750001,56.903656279166675,68.0,91.0
234,56.83398418750001,57.227426587500005,60.0,93.0
235,57.325787187500005,57.85857377083334,60.0,93.0
236,57.325787187500005,57.89136063750001,63.0,93.0
237,58.063491687500004,58.19463915416667,60.0,92.0
238,57.81759018750001,58.42824557916668,55.0,91.0
239,58.55529468750001,58.764310962500005,55.0,87.0
240,57.325787187500005,58.84217977083334,48.0,93.0
241,58.30939318750001,58.87701581666668,67.0,100.0
242,58.80119618750001,59.083982912500005,63.0,87.0
243,59.047097687500006,59.15775336250001,60.0,85.0
244,59.29299918750001,59.58603180833334,61.0,91.0
245,59.29299918750001,59.85447427916667,65.0,91.0
246,59.29299918750001,59.87496607083334,37.0,79.0
247,59.784802187500006,60.12906428750001,61.0,91.0
248,60.27660518750001,60.49791653750001,61.0,92.0
249,60.27660518750001,60.82168684583334,65.0,98.0
250,60.27660518750001,60.88521140000001,68.0,88.0
251,60.76840818750001,60.903654012500006,61.0,91.0
252,61.260211187500005,61.608571645833344,60.0,87.0
253,61.260211187500005,61.831932175000006,63.0,90.0
254,61.75201418750001,62.42004659583334,51.0,75.0
255,61.260211187500005,62.71922675416668,44.0,92.0
256,62.24381718750001,62.725374291666675,60.0,96.0
257,62.24381718750001,62.76430869583334,63.0,94.0
258,62.73562018750001,62.86676765416667,56.0,93.0
259,63.22742318750001,63.78479992083334,61.0,89.0
260,63.22742318750001,63.94873425416667,58.0,86.0
261,63.719226187500006,64.33193075833334,53.0,82.0
262,63.22742318750001,64.4569306875,46.0,92.0
263,64.2110291875,64.5245536,61.0,97.0
264,64.2110291875,64.536848675,58.0,92.0
265,64.2110291875,64.57783225833334,65.0,97.0
266,64.70283218750001,64.86676652083334,46.0,91.0
267,65.19463518750001,65.49791370416668,67.0,89.0
268,65.19463518750001,65.58193005000001,60.0,89.0
269,65.19463518750001,65.82373319166668,64.0,89.0
270,65.9323396875,66.0675855125,60.0,91.0
271,65.6864381875,66.2520116375,55.0,90.0
272,66.1782411875,66.46102791250001,60.0,102.0
273,66.1782411875,66.50201149583334,67.0,96.0
274,66.1782411875,66.504060675,64.0,102.0
275,66.1782411875,66.53274918333334,72.0,92.0
276,66.67004418750001,67.08602755833334,60.0,107.0
277,66.91594568750001,67.08602755833334,64.0,97.0
278,66.42414268750001,67.12086360416667,55.0,94.0
279,65.19463518750001,67.13930621666668,48.0,97.0
280,67.16184718750002,67.67824033750001,65.0,94.0
281,67.16184718750002,67.68233869583334,68.0,91.0
282,67.6536501875,68.20487938333335,48.0,76.0
283,68.14545318750001,68.42414155416668,65.0,100.0
284,68.14545318750001,68.46307595833335,68.0,105.0
285,68.14545318750001,68.47946939166668,72.0,98.0
286,67.16184718750002,68.53684640833335,41.0,96.0
287,68.39135468750001,68.55938737916668,48.0,83.0
288,68.63725618750001,68.79914134166668,65.0,98.0
289,69.1290591875,69.71512442916668,63.0,93.0
290,69.1290591875,69.71922278750002,67.0,92.0
291,69.62086218750001,70.19873071250001,58.0,80.0
292,69.1290591875,70.39340273333335,51.0,96.0
293,70.11266518750001,70.41594370416668,63.0,95.0
294,70.11266518750001,70.55938624583334,67.0,105.0
295,70.35856668750002,70.56758296250001,58.0,87.0
296,70.11266518750001,70.6659435625,70.0,95.0
297,70.6044681875,70.76635334166667,51.0,95.0
298,71.09627118750001,71.57987747083334,61.0,92.0
299,71.09627118750001,71.67618889166668,65.0,94.0
300,71.09627118750001,71.83192650833334,49.0,95.0
301,71.58807418750001,71.90159860000001,56.0,87.0
302,72.0798771875,72.40979503333334,63.0,92.0
303,72.0798771875,72.5102048125,51.0,102.0
304,72.0798771875,72.57577854583334,67.0,93.0
305,72.57168018750001,72.92823736250001,63.0,95.0
306,73.06348318750001,73.57577797916667,63.0,94.0
307,73.06348318750001,73.64545007083335,68.0,91.0
308,73.55528618750002,74.19872844583334,51.0,87.0
309,73.06348318750001,74.27249889583334,44.0,93.0
310,74.0470891875,74.73561338750001,68.0,100.0
311,74.0470891875,74.7479084625,72.0,98.0
312,74.0470891875,74.77864615000001,63.0,97.0
313,74.53889218750001,74.8831542875,44.0,92.0
314,75.03069518750002,75.62905550416667,61.0,92.0
315,75.03069518750002,75.75200625416667,58.0,93.0
316,75.03069518750002,76.12905522083334,46.0,95.0
317,75.5224981875,76.15569455,53.0,87.0
318,76.01430118750001,76.35036657083334,58.0,93.0
319,76.01430118750001,76.3585632875,61.0,96.0
320,76.01430118750001,76.39135015416667,65.0,97.0
321,76.50610418750001,76.65774344583335,46.0,93.0
322,76.9979071875,77.57782489166668,67.0,89.0
323,76.9979071875,77.64544780416668,63.0,91.0
324,76.9979071875,77.65364452083334,60.0,91.0
325,77.48971018750001,78.09421804166668,55.0,78.0
326,77.98151318750001,78.32167692916667,60.0,98.0
327,76.9979071875,78.32987364583335,48.0,96.0
328,78.22741468750002,78.37290640833335,55.0,93.0
329,77.98151318750001,78.41184081250002,63.0,107.0
330,77.98151318750001,78.69257835833335,67.0,97.0
331,78.4733161875,78.74380783750001,48.0,95.0
332,78.96511918750001,79.72741383750001,65.0,90.0
333,78.96511918750001,79.76634824166668,61.0,91.0
334,79.45692218750001,80.03888907083335,56.0,96.0
335,78.96511918750001,80.23765945000001,49.0,97.0
336,79.94872518750002,80.28069221250001,68.0,94.0
337,79.94872518750002,80.28274139166668,61.0,94.0
338,79.94872518750002,80.28274139166668,65.0,105.0
339,80.1946266875,80.32987251250002,56.0,91.0
340,80.44052818750001,80.60651170000001,49.0,97.0
341,80.93233118750001,81.18028186666668,60.0,92.0
342,80.93233118750001,81.25405231666667,64.0,91.0
343,80.93233118750001,81.27454410833334,67.0,91.0
344,81.42413418750002,81.78069136250001,60.0,96.0
345,81.6700356875,81.7868389,64.0,93.0
346,80.93233118750001,81.93847815833334,48.0,97.0
347,81.9159371875,82.2356091375,60.0,102.0
348,81.9159371875,82.25610092916668,64.0,112.0
349,82.16183868750001,82.28888779583335,55.0,96.0
350,81.9159371875,82.28888779583335,67.0,102.0
351,82.40774018750001,82.56552698333334,60.0,102.0
352,81.9159371875,82.56757616250002,72.0,96.0
353,82.89954318750002,83.08192013333334,41.0,100.0
354,82.89954318750002,83.19052662916668,60.0,95.0
355,82.89954318750002,83.2683954375,65.0,95.0
356,83.3913461875,83.86675575416668,53.0,91.0
357,83.88314918750001,84.47536196666668,68.0,100.0
358,83.88314918750001,84.47741114583334,65.0,98.0
359,83.88314918750001,84.52454226666667,72.0,96.0
360,84.37495218750001,84.5409357,43.0,92.0
361,84.86675518750002,85.44462371250002,60.0,95.0
362,84.86675518750002,85.68232849583335,56.0,92.0
363,85.35855818750001,85.96921357916668,51.0,87.0
364,84.86675518750002,86.18437739166667,44.0,92.0
365,85.85036118750001,86.31552485833335,60.0,107.0
366,85.85036118750001,86.32167239583335,56.0,95.0
367,85.85036118750001,86.37495105416667,63.0,98.0
368,85.85036118750001,86.43232807083335,68.0,91.0
369,86.34216418750002,86.56347553750001,44.0,94.0
370,86.83396718750001,87.19257354166668,61.0,92.0
371,86.83396718750001,87.34011444166669,65.0,102.0
372,86.83396718750001,87.56757332916668,49.0,97.0
373,87.32577018750001,87.62699952500002,56.0,88.0
374,87.57167168750001,87.70076997500001,61.0,93.0
375,87.81757318750002,87.82781908333334,49.0,91.0
376,87.81757318750002,88.15978610833335,63.0,93.0
377,87.81757318750002,88.35855648750001,67.0,95.0
378,88.06347468750002,88.38109745833334,58.0,86.0
379,87.81757318750002,88.42208104166667,51.0,95.0
380,88.3093761875,88.67003172083335,63.0,93.0
381,88.55527768750001,88.68437597500001,67.0,94.0
382,88.80117918750001,89.21921173750002,68.0,92.0
383,88.80117918750001,89.2683920375,63.0,91.0
384,89.29298218750002,89.89749004166669,51.0,87.0
385,88.80117918750001,90.03888340416668,44.0,93.0
386,89.7847851875,90.25609639583334,63.0,96.0
387,90.27658818750001,90.47126020833335,44.0,92.0
388,89.7847851875,90.62085028750002,68.0,96.0
389,89.7847851875,90.71511252916667,72.0,98.0
390,90.76839118750001,91.05322709166668,65.0,92.0
391,90.76839118750001,91.192571275,70.0,85.0
392,91.26019418750002,91.83601353333334,53.0,85.0
393,90.76839118750001,91.92822659583335,46.0,93.0
394,91.75199718750001,92.12494779583335,58.0,91.0
395,91.75199718750001,92.13314451250001,61.0,95.0
396,91.75199718750001,92.18027563333335,65.0,97.0
397,92.24380018750001,92.44461974583335,46.0,92.0
398,92.73560318750002,93.17002917083335,60.0,92.0
399,92.73560318750002,93.22330782916669,67.0,92.0
400,92.73560318750002,93.23765208333334,63.0,91.0
401,93.22740618750001,93.89134023750002,55.0,91.0
402,92.73560318750002,94.04093031666667,48.0,93.0
403,93.71920918750001,94.41593010416668,60.0,94.0
404,93.71920918750001,94.42412682083335,63.0,98.0
405,93.71920918750001,94.46920876250002,67.0,93.0
406,94.21101218750002,94.57371690000001,48.0,97.0
407,93.71920918750001,94.69461847083335,72.0,91.0
408,94.70281518750001,95.29092960833334,61.0,92.0
409,94.70281518750001,95.48765080833334,65.0,97.0
410,95.44051968750001,95.55937207916668,61.0,87.0
411,95.19461818750001,95.77248671250001,56.0,89.0
412,94.70281518750001,96.00609313750002,49.0,95.0
413,95.68642118750002,96.04297836250001,65.0,105.0
414,95.68642118750002,96.04502754166668,61.0,97.0
415,95.68642118750002,96.06961769166668,68.0,95.0
416,95.93232268750002,96.10855209583335,56.0,85.0
417,96.1782241875,96.35240441666667,49.0,97.0
418,96.67002718750001,97.18027280000001,60.0,93.0
419,96.67002718750001,97.45486280833335,64.0,92.0
420,96.67002718750001,97.49174803333335,67.0,87.0
421,97.40773168750002,97.54707587083335,60.0,91.0
422,97.16183018750002,97.69051841250001,55.0,85.0
423,97.65363318750002,97.91387894166668,60.0,96.0
424,97.65363318750002,97.92617401666668,64.0,100.0
425,97.65363318750002,97.93027237500002,67.0,94.0
426,96.67002718750001,97.95896088333335,48.0,97.0
427,97.65363318750002,98.01019036250001,72.0,93.0
428,97.89953468750001,98.04707558750002,55.0,87.0
429,98.14543618750001,98.28068201250001,48.0,92.0
430,98.63723918750001,98.74174732500002,41.0,96.0
431,98.63723918750001,99.01428815416668,60.0,92.0
432,98.63723918750001,99.15568151666668,65.0,92.0
433,99.62084518750001,99.87904176250001,60.0,100.0
434,99.86674668750001,100.15568095000002,65.0,100.0
435,99.86674668750001,100.18846781666667,68.0,95.0
436,100.11264818750001,100.43027095833335,60.0,92.0
437,99.12904218750002,100.44461521250001,53.0,92.0
438,100.35854968750002,100.70691014583335,65.0,92.0
439,100.35854968750002,100.70895932500001,67.0,92.0
440,101.09625418750001,101.40977860000001,65.0,91.0
441,100.85035268750002,101.67617189166668,60.0,81.0
442,101.58805718750001,101.93846682500002,65.0,97.0
443,100.60445118750002,101.95690943750002,53.0,97.0
444,101.83395868750002,102.05731921666668,60.0,91.0
445,101.58805718750001,102.26018795416668,68.0,95.0
446,101.58805718750001,102.37699116666668,72.0,97.0
447,102.07986018750002,102.52453206666668,53.0,93.0
448,102.57166318750001,102.86469580833335,63.0,94.0
449,102.57166318750001,103.12903992083335,72.0,91.0
450,103.06346618750001,103.39338403333335,63.0,92.0
451,103.30936768750001,103.43231843750002,68.0,92.0
452,103.55526918750002,103.83190837500001,72.0,97.0
453,103.55526918750002,103.83600673333335,63.0,96.0
454,102.81756468750001,103.97740009583335,51.0,79.0
455,103.80117068750002,104.03682629166669,68.0,91.0
456,102.57166318750001,104.11469510000002,44.0,91.0
457,104.29297368750001,104.43436705000002,68.0,89.0
458,104.04707218750002,104.45076048333335,63.0,90.0
459,104.53887518750001,104.67002265416669,39.0,93.0
460,104.53887518750001,104.93026840833335,70.0,92.0
461,104.78477668750001,105.21715349166668,63.0,87.0
462,105.03067818750002,105.33190752500002,67.0,89.0
463,105.27657968750002,105.83395642083335,70.0,91.0
464,105.52248118750002,105.84625149583334,58.0,94.0
465,105.03067818750002,105.88108754166669,51.0,84.0
466,106.01428418750001,106.25608732916668,67.0,95.0
467,105.76838268750001,106.31346434583335,63.0,90.0
468,106.26018568750001,106.39748069166669,70.0,81.0
469,106.50608718750001,106.73149689583335,65.0,76.0
470,106.50608718750001,106.81756242083335,70.0,77.0
471,106.99789018750002,107.30731624166668,65.0,102.0
472,107.24379168750002,107.37493915416668,70.0,93.0
473,107.48969318750001,107.76633237500002,73.0,107.0
474,106.75198868750002,107.84215200416668,53.0,92.0
475,106.50608718750001,107.93436506666669,46.0,91.0
476,107.73559468750001,108.00608633750001,70.0,96.0
477,108.22739768750002,108.37493858750001,70.0,86.0
478,107.98149618750001,108.44256150000001,65.0,93.0
479,108.47329918750002,108.83600390000001,68.0,73.0
480,108.96510218750001,109.27247906250001,65.0,96.0
481,109.21100368750001,109.32575772083335,68.0,91.0
482,109.45690518750001,109.69051161250002,65.0,97.0
483,109.45690518750001,109.71920012083335,72.0,97.0
484,108.47329918750002,109.80936400416668,41.0,92.0
485,108.71920068750002,109.81551154166668,48.0,86.0
486,109.70280668750001,109.85444594583335,68.0,91.0
487,109.94870818750002,110.13723267083334,65.0,97.0
488,110.19460968750002,110.25403588333334,65.0,59.0
489,110.19460968750002,110.29092110833335,68.0,90.0
490,110.44051118750002,110.73764216666669,61.0,91.0
491,110.44051118750002,110.95895351666668,65.0,94.0
492,110.93231418750001,111.23149434583335,61.0,92.0
493,111.17821568750001,111.26837957083335,65.0,94.0
494,110.68641268750001,111.48764174166668,56.0,86.0
495,110.44051118750002,111.55936301250001,49.0,96.0
496,111.42411718750002,111.71714980833335,61.0,95.0
497,111.42411718750002,111.72534652500002,68.0,93.0
498,111.67001868750002,111.76428092916669,56.0,95.0
499,111.91592018750002,112.17821512083334,65.0,95.0
500,112.16182168750001,112.27247736250001,61.0,86.0
501,112.40772318750001,112.65362468750001,63.0,88.0
502,112.40772318750001,112.72329677916669,68.0,86.0
503,112.65362468750001,113.10854246250001,51.0,88.0
504,112.89952618750002,113.18436209166669,63.0,100.0
505,112.40772318750001,113.22739485416668,44.0,92.0
506,113.14542768750002,113.27657515416668,68.0,86.0
507,113.39132918750002,113.55731270000001,63.0,92.0
508,113.39132918750002,113.64747658333334,72.0,93.0
509,113.63723068750002,113.82575517083335,68.0,79.0
510,113.39132918750002,113.87903382916669,44.0,90.0
511,113.88313218750001,114.07165667083335,63.0,92.0
512,114.37493518750001,114.50198429583335,65.0,79.0
513,114.37493518750001,114.68231206250002,58.0,76.0
514,114.37493518750001,114.86878736666668,61.0,80.0
515,114.86673818750002,115.19460685416668,58.0,91.0
516,115.11263968750002,115.23354125833335,61.0,90.0
517,114.62083668750002,115.57985253750002,53.0,93.0
518,115.35854118750001,115.62288530000002,70.0,93.0
519,115.35854118750001,115.65772134583335,58.0,92.0
520,114.37493518750001,115.79501635000001,46.0,92.0
521,115.60444268750001,115.90567202500002,65.0,93.0
522,115.85034418750001,116.13313091250002,61.0,94.0
523,116.09624568750002,116.20280300416668,58.0,94.0
524,116.34214718750002,116.64132734583335,60.0,93.0
525,116.58804868750002,116.71919615416668,52.0,91.0
526,116.34214718750002,116.92001571250002,64.0,92.0
527,117.07985168750001,117.25403191666668,60.0,88.0
528,116.83395018750002,117.38108102500001,55.0,91.0
529,116.34214718750002,117.61468745000002,48.0,93.0
530,117.32575318750001,117.62083498750002,60.0,97.0
531,117.32575318750001,117.67206446666668,64.0,102.0
532,117.57165468750001,117.71919558750001,55.0,98.0
533,117.32575318750001,117.77247424583335,67.0,95.0
534,117.32575318750001,117.82165454583335,72.0,94.0
535,117.81755618750002,117.96099872916669,48.0,93.0
536,117.81755618750002,118.02657246250001,60.0,93.0
537,118.30935918750002,118.57370330000002,65.0,95.0
538,118.30935918750002,118.62698195833335,68.0,96.0
539,118.80116218750001,119.09419480833336,65.0,91.0
540,119.04706368750001,119.14132592916668,68.0,92.0
541,118.55526068750001,119.39132578750002,48.0,92.0
542,119.29296518750002,119.49583392500001,65.0,100.0
543,118.30935918750002,119.53886668750002,41.0,92.0
544,119.29296518750002,119.58804698750002,72.0,100.0
545,119.78476818750002,120.03271886666668,68.0,105.0
546,120.03066968750002,120.11468603333336,65.0,94.0
547,120.27657118750001,120.58599724166669,60.0,92.0
548,120.27657118750001,120.76017747083336,63.0,92.0
549,120.76837418750002,121.11468546666669,60.0,92.0
550,120.52247268750001,121.27247226250002,55.0,79.0
551,121.01427568750002,121.49993115000002,67.0,82.0
552,121.26017718750002,121.54296391250001,63.0,100.0
553,120.27657118750001,121.75812772500002,48.0,93.0
554,121.50607868750002,121.79911130833335,60.0,97.0
555,121.75198018750001,121.85648832500002,55.0,95.0
556,121.99788168750001,122.12493079583335,60.0,97.0
557,122.24378318750001,122.53681580833334,61.0,93.0
558,122.24378318750001,122.75607797916669,65.0,92.0
559,122.73558618750002,123.06140567500002,61.0,93.0
560,122.98148768750002,123.07779910833335,65.0,91.0
561,122.48968468750002,123.26837277083335,56.0,90.0
562,123.22738918750002,123.46304479166669,61.0,97.0
563,122.24378318750001,123.50812673333336,49.0,93.0
564,123.22738918750002,123.52452016666669,68.0,97.0
565,123.47329068750001,123.57779882500002,56.0,97.0
566,123.71919218750001,123.99992973333335,65.0,96.0
567,123.96509368750002,124.09624115416668,61.0,84.0
568,124.21099518750002,124.45894586666668,60.0,90.0
569,124.21099518750002,124.71919162083336,63.0,86.0
570,124.94869968750001,125.04910946666668,63.0,92.0
571,124.70279818750002,125.07369961666669,60.0,92.0
572,124.45689668750002,125.26632245833335,51.0,88.0
573,125.19460118750001,125.43435515000002,60.0,97.0
574,125.19460118750001,125.50812560000001,68.0,93.0
575,124.21099518750002,125.62492881250002,44.0,90.0
576,125.44050268750001,125.70894515833335,51.0,93.0
577,125.68640418750002,125.92410897083334,63.0,92.0
578,125.93230568750002,126.05115807916668,60.0,87.0
579,126.67001018750001,127.03476407916668,65.0,84.0
580,126.17820718750002,127.04910833333335,58.0,93.0
581,126.17820718750002,127.06345258750002,61.0,94.0
582,126.42410868750002,127.25197707083335,53.0,87.0
583,127.16181318750002,127.46304252500002,58.0,94.0
584,127.16181318750002,127.70279648750002,61.0,92.0
585,127.16181318750002,127.73763253333335,65.0,95.0
586,127.16181318750002,127.96304224166668,70.0,94.0
587,127.89951768750002,127.97123895833334,65.0,58.0
588,126.17820718750002,127.98353403333336,46.0,87.0
589,127.40771468750002,127.98353403333336,53.0,92.0
590,127.65361618750002,128.03066515416668,58.0,94.0
591,127.89951768750002,128.03066515416668,61.0,89.0
592,128.1454191875,128.50197636250002,58.0,93.0
593,128.1454191875,128.53271405,70.0,93.0
594,128.1454191875,128.53681240833336,46.0,95.0
595,128.63722218750002,129.07984488750003,48.0,100.0
596,128.63722218750002,129.21304153333335,60.0,96.0
597,129.12902518750002,129.53886102083334,51.0,107.0
598,129.12902518750002,129.64336915833334,63.0,102.0
599,129.62082818750002,129.74992647500002,60.0,97.0
600,129.62082818750002,129.77451662500002,48.0,96.0
601,129.86672968750003,130.45279492916669,60.0,102.0
602,129.86672968750003,130.47123754166668,53.0,112.0
603,129.86672968750003,130.52861455833335,65.0,102.0
604,132.92205582500003,133.94664540833335,67.0,85.0
605,133.05935082916668,133.95484212500003,75.0,91.0
606,132.83394112083334,133.96713720000002,63.0,82.0
607,132.995826275,133.97123555833335,70.0,86.0
608,133.00812135,133.97738309583335,39.0,97.0
609,134.0470551875,134.151563325,41.0,93.0
610,134.0470551875,134.7868088666667,68.0,91.0
611,134.0470551875,134.8032023,65.0,92.0
612,134.7847596875,135.184349625,60.0,85.0
613,135.03066118750002,135.24377582083335,65.0,100.0
614,135.03066118750002,135.25197253750002,72.0,95.0
615,135.52246418750002,135.79090665833334,65.0,91.0
616,135.27656268750002,135.80320173333334,60.0,82.0
617,134.5388581875,135.86262792916668,53.0,92.0
618,136.01426718750002,136.2929555541667,65.0,91.0
619,136.01426718750002,136.51221772500003,68.0,87.0
620,136.26016868750003,136.610578325,60.0,76.0
621,136.01426718750002,136.61262750416668,53.0,93.0
622,136.50607018750003,136.63926683333335,65.0,93.0
623,136.9978731875,137.2560697625,63.0,92.0
624,136.9978731875,137.35238118333336,67.0,92.0
625,137.2437746875,137.4896761875,58.0,78.0
626,136.9978731875,137.54500402500003,51.0,96.0
627,137.4896761875,137.84008582500002,63.0,95.0
628,137.7355776875,137.88721694583336,67.0,93.0
629,137.9814791875,138.4937739791667,63.0,92.0
630,137.9814791875,138.57369196666667,68.0,91.0
631,138.71918368750002,138.80934757083335,63.0,83.0
632,138.47328218750002,139.1269703416667,51.0,76.0
633,138.96508518750002,139.1331178791667,63.0,96.0
634,138.96508518750002,139.167953925,72.0,95.0
635,137.9814791875,139.75606834583334,44.0,92.0
636,139.45688818750003,139.76836342083334,51.0,84.0
637,139.70278968750003,139.8134453625,63.0,93.0
638,139.94869118750003,140.49172366666667,68.0,85.0
639,139.94869118750003,140.5163138166667,63.0,91.0
640,140.9322971875,141.16385443333334,72.0,95.0
641,140.9322971875,141.17819868750001,63.0,96.0
642,140.4404941875,141.26836257083335,51.0,70.0
643,141.17819868750001,141.46713295,68.0,91.0
644,139.94869118750003,141.51836242916667,44.0,91.0
645,141.42410018750002,141.72737870416668,63.0,92.0
646,141.67000168750002,141.85647699166668,68.0,78.0
647,141.91590318750002,142.28270625833335,65.0,87.0
648,141.91590318750002,142.33803409583336,70.0,86.0
649,142.89950918750003,143.07778777500002,65.0,98.0
650,142.40770618750003,143.18639427083335,53.0,85.0
651,141.91590318750002,143.30934502083335,46.0,92.0
652,142.89950918750003,143.3667220375,73.0,93.0
653,143.3913121875,143.71098413750002,65.0,91.0
654,143.3913121875,143.79909884166668,70.0,87.0
655,143.8831151875,143.98557414583334,41.0,92.0
656,143.8831151875,144.71508192916667,68.0,87.0
657,143.8831151875,144.71713110833335,65.0,92.0
658,144.62081968750002,144.97532768333335,60.0,85.0
659,144.86672118750002,145.05319649166668,65.0,96.0
660,144.86672118750002,145.20073739166668,68.0,94.0
661,144.86672118750002,145.22737672083335,72.0,94.0
662,144.37491818750001,145.3667209041667,53.0,81.0
663,145.11262268750002,145.39540941250002,60.0,85.0
664,145.35852418750002,145.51016344583334,65.0,100.0
665,145.85032718750003,146.1413106291667,61.0,87.0
666,145.85032718750003,146.18024503333336,65.0,93.0
667,146.09622868750003,146.29704824583337,56.0,79.0
668,145.85032718750003,146.3011466041667,49.0,94.0
669,146.34213018750003,146.63516280833335,61.0,97.0
670,146.5880316875,146.77040863333335,65.0,92.0
671,146.8339331875,147.32368700833337,63.0,91.0
672,146.8339331875,147.53270328333335,67.0,94.0
673,146.8339331875,147.60032619583336,39.0,94.0
674,147.3257361875,147.61467045000003,46.0,87.0
675,147.57163768750002,147.72327694583336,63.0,88.0
676,147.81753918750002,148.14130949583335,65.0,88.0
677,147.81753918750002,148.21098158750002,68.0,90.0
678,147.81753918750002,148.43844047500002,41.0,95.0
679,148.30934218750002,148.49581749166668,65.0,100.0
680,148.30934218750002,148.53270271666668,68.0,98.0
681,148.80114518750003,149.126964675,63.0,85.0
682,148.80114518750003,149.38516125,39.0,102.0
683,148.80114518750003,149.72942335000002,75.0,97.0
684,148.80114518750003,149.7376200666667,67.0,91.0
685,149.29294818750003,149.79704626250003,63.0,94.0
686,149.7847511875,149.79704626250003,63.0,92.0
687,149.7847511875,150.56753762916668,56.0,93.0
688,150.2765541875,150.83598010000003,51.0,81.0
689,150.76835718750002,150.9117997291667,56.0,86.0
690,149.7847511875,151.1638487666667,44.0,92.0
691,151.01425868750002,151.23966839583335,51.0,85.0
692,150.76835718750002,151.2970454125,60.0,102.0
693,150.76835718750002,151.32573392083336,63.0,94.0
694,150.76835718750002,151.34827489166668,68.0,90.0
695,151.26016018750002,151.40565190833334,56.0,97.0
696,151.75196318750002,152.42204477500002,63.0,92.0
697,151.75196318750002,152.4650775375,60.0,93.0
698,152.24376618750003,152.8216347125,55.0,83.0
699,152.9814706875,153.14540502083335,55.0,91.0
700,151.75196318750002,153.15155255833335,48.0,92.0
701,152.73556918750003,153.27040495000003,60.0,96.0
702,152.73556918750003,153.27040495000003,67.0,96.0
703,153.2273721875,153.51220809166668,63.0,93.0
704,153.4732736875,153.65769981250003,60.0,91.0
705,153.7191751875,153.94458489583334,60.0,94.0
706,153.7191751875,154.35646990833337,65.0,93.0
707,154.21097818750002,154.54499439166668,60.0,78.0
708,154.70278118750002,155.00810888333336,60.0,95.0
709,153.7191751875,155.21917433750002,53.0,93.0
710,154.70278118750002,155.2642562791667,68.0,91.0
711,155.19458418750003,155.58802658750002,60.0,93.0
712,155.68638718750003,156.21917377083335,60.0,93.0
713,155.68638718750003,156.25196063750002,63.0,93.0
714,156.4240916875,156.55523915416669,60.0,92.0
715,156.1781901875,156.7888455791667,55.0,91.0
716,156.9158946875,157.12491096250002,55.0,87.0
717,155.68638718750003,157.20277977083336,48.0,93.0
718,156.6699931875,157.23761581666668,67.0,100.0
719,157.16179618750002,157.4445829125,63.0,87.0
720,157.40769768750002,157.51835336250002,60.0,85.0
721,157.65359918750002,157.94663180833336,61.0,91.0
722,157.65359918750002,158.21507427916669,65.0,91.0
723,157.65359918750002,158.23556607083336,37.0,79.0
724,158.14540218750003,158.48966428750003,61.0,91.0
725,158.63720518750003,158.8585165375,61.0,92.0
726,158.63720518750003,159.18228684583335,65.0,98.0
727,158.63720518750003,159.2458114,68.0,88.0
728,159.12900818750003,159.26425401250003,61.0,91.0
729,159.6208111875,159.96917164583334,60.0,87.0
730,159.6208111875,160.19253217500003,63.0,90.0
731,160.11261418750001,160.78064659583336,51.0,75.0
732,159.6208111875,161.07982675416667,44.0,92.0
733,160.60441718750002,161.0859742916667,60.0,96.0
734,160.60441718750002,161.12490869583337,63.0,94.0
735,161.09622018750002,161.2273676541667,56.0,93.0
736,161.58802318750003,162.14539992083334,61.0,89.0
737,161.58802318750003,162.30933425416669,58.0,86.0
738,162.07982618750003,162.69253075833336,53.0,82.0
739,161.58802318750003,162.8175306875,46.0,92.0
740,162.5716291875,162.88515360000002,61.0,97.0
741,162.5716291875,162.89744867500002,58.0,92.0
742,162.5716291875,162.93843225833336,65.0,97.0
743,163.0634321875,163.22736652083336,46.0,91.0
744,163.55523518750002,163.85851370416668,67.0,89.0
745,163.55523518750002,163.94253005000002,60.0,89.0
746,163.55523518750002,164.1843331916667,64.0,89.0
747,164.29293968750002,164.42818551250002,60.0,91.0
748,164.04703818750002,164.6126116375,55.0,90.0
749,164.53884118750003,164.82162791250002,60.0,102.0
750,164.53884118750003,164.86261149583336,67.0,96.0
751,164.53884118750003,164.864660675,64.0,102.0
752,164.53884118750003,164.89334918333336,72.0,92.0
753,165.03064418750003,165.44662755833335,60.0,107.0
754,165.27654568750003,165.44662755833335,64.0,97.0
755,164.78474268750003,165.4814636041667,55.0,94.0
756,163.55523518750002,165.4999062166667,48.0,97.0
757,165.52244718750003,166.03884033750003,65.0,94.0
758,165.52244718750003,166.04293869583336,68.0,91.0
759,166.0142501875,166.56547938333335,48.0,76.0
760,166.50605318750002,166.7847415541667,65.0,100.0
761,166.50605318750002,166.82367595833335,68.0,105.0
762,166.50605318750002,166.8400693916667,72.0,98.0
763,165.52244718750003,166.89744640833337,41.0,96.0
764,166.75195468750002,166.91998737916668,48.0,83.0
765,166.99785618750002,167.1597413416667,65.0,98.0
766,167.48965918750002,168.07572442916668,63.0,93.0
767,167.48965918750002,168.07982278750004,67.0,92.0
768,167.98146218750003,168.5593307125,58.0,80.0
769,167.48965918750002,168.75400273333335,51.0,96.0
770,168.47326518750003,168.7765437041667,63.0,95.0
771,168.47326518750003,168.91998624583334,67.0,105.0
772,168.71916668750004,168.92818296250002,58.0,87.0
773,168.47326518750003,169.02654356250002,70.0,95.0
774,168.9650681875,169.12695334166668,51.0,95.0
775,169.4568711875,169.94047747083334,61.0,92.0
776,169.4568711875,170.0367888916667,65.0,94.0
777,169.4568711875,170.19252650833334,49.0,95.0
778,169.94867418750002,170.26219860000003,56.0,87.0
779,170.44047718750002,170.77039503333336,63.0,92.0
780,170.44047718750002,170.8708048125,51.0,102.0
781,170.44047718750002,170.93637854583335,67.0,93.0
782,170.93228018750003,171.28883736250003,63.0,95.0
783,171.42408318750003,171.93637797916668,63.0,94.0
784,171.42408318750003,172.00605007083337,68.0,91.0
785,171.91588618750004,172.55932844583336,51.0,87.0
786,171.42408318750003,172.63309889583337,44.0,93.0
787,172.4076891875,173.09621338750003,68.0,100.0
788,172.4076891875,173.10850846250003,72.0,98.0
789,172.4076891875,173.13924615000002,63.0,97.0
790,172.89949218750002,173.24375428750002,44.0,92.0
791,173.39129518750002,173.98965550416668,61.0,92.0
792,173.39129518750002,174.11260625416668,58.0,93.0
793,173.39129518750002,174.48965522083336,46.0,95.0
794,173.88309818750002,174.51629455000003,53.0,87.0
795,174.37490118750003,174.71096657083336,58.0,93.0
796,174.37490118750003,174.7191632875,61.0,96.0
797,174.37490118750003,174.75195015416668,65.0,97.0
798,174.86670418750003,175.01834344583335,46.0,93.0
799,175.3585071875,175.9384248916667,67.0,89.0
800,175.3585071875,176.00604780416668,63.0,91.0
801,175.3585071875,176.01424452083336,60.0,91.0
802,175.8503101875,176.4548180416667,55.0,78.0
803,176.34211318750002,176.6822769291667,60.0,98.0
804,175.3585071875,176.69047364583335,48.0,96.0
805,176.58801468750002,176.73350640833337,55.0,93.0
806,176.34211318750002,176.77244081250004,63.0,107.0
807,176.34211318750002,177.05317835833335,67.0,97.0
808,176.83391618750002,177.10440783750002,48.0,95.0
809,177.32571918750003,178.08801383750003,65.0,90.0
810,177.32571918750003,178.1269482416667,61.0,91.0
811,177.81752218750003,178.39948907083337,56.0,96.0
812,177.32571918750003,178.59825945000003,49.0,97.0
813,178.30932518750004,178.64129221250002,68.0,94.0
814,178.30932518750004,178.6433413916667,61.0,94.0
815,178.30932518750004,178.6433413916667,65.0,105.0
816,178.5552266875,178.69047251250004,56.0,91.0
817,178.8011281875,178.96711170000003,49.0,97.0
818,179.29293118750002,179.5408818666667,60.0,92.0
819,179.29293118750002,179.61465231666668,64.0,91.0
820,179.29293118750002,179.63514410833335,67.0,91.0
821,179.78473418750002,180.14129136250003,60.0,96.0
822,180.03063568750002,180.14743890000003,64.0,93.0
823,179.29293118750002,180.29907815833334,48.0,97.0
824,180.27653718750003,180.5962091375,60.0,102.0
825,180.27653718750003,180.61670092916668,64.0,112.0
826,180.52243868750003,180.64948779583335,55.0,96.0
827,180.27653718750003,180.64948779583335,67.0,102.0
828,180.76834018750003,180.92612698333335,60.0,102.0
829,180.27653718750003,180.92817616250002,72.0,96.0
830,181.26014318750003,181.44252013333335,41.0,100.0
831,181.26014318750003,181.5511266291667,60.0,95.0
832,181.26014318750003,181.62899543750004,65.0,95.0
833,181.7519461875,182.2273557541667,53.0,91.0
834,182.24374918750001,182.8359619666667,68.0,100.0
835,182.24374918750001,182.83801114583335,65.0,98.0
836,182.24374918750001,182.8851422666667,72.0,96.0
837,182.73555218750002,182.9015357,43.0,92.0
838,183.22735518750002,183.80522371250004,60.0,95.0
839,183.22735518750002,184.04292849583337,56.0,92.0
840,183.71915818750003,184.32981357916668,51.0,87.0
841,183.22735518750002,184.5449773916667,44.0,92.0
842,184.21096118750003,184.67612485833337,60.0,107.0
843,184.21096118750003,184.68227239583337,56.0,95.0
844,184.21096118750003,184.7355510541667,63.0,98.0
845,184.21096118750003,184.79292807083337,68.0,91.0
846,184.70276418750004,184.92407553750002,44.0,94.0
847,185.1945671875,185.5531735416667,61.0,92.0
848,185.1945671875,185.7007144416667,65.0,102.0
849,185.1945671875,185.9281733291667,49.0,97.0
850,185.68637018750002,185.98759952500004,56.0,88.0
851,185.93227168750002,186.06136997500002,61.0,93.0
852,186.17817318750002,186.18841908333337,49.0,91.0
853,186.17817318750002,186.52038610833335,63.0,93.0
854,186.17817318750002,186.71915648750002,67.0,95.0
855,186.42407468750002,186.74169745833336,58.0,86.0
856,186.17817318750002,186.7826810416667,51.0,95.0
857,186.66997618750003,187.03063172083336,63.0,93.0
858,186.91587768750003,187.04497597500003,67.0,94.0
859,187.16177918750003,187.57981173750002,68.0,92.0
860,187.16177918750003,187.6289920375,63.0,91.0
861,187.65358218750004,188.2580900416667,51.0,87.0
862,187.16177918750003,188.3994834041667,44.0,93.0
863,188.14538518750004,188.61669639583337,63.0,96.0
864,188.63718818750002,188.83186020833335,44.0,92.0
865,188.14538518750004,188.98145028750002,68.0,96.0
866,188.14538518750004,189.07571252916668,72.0,98.0
867,189.12899118750002,189.4138270916667,65.0,92.0
868,189.12899118750002,189.55317127500004,70.0,85.0
869,189.62079418750002,190.19661353333336,53.0,85.0
870,189.12899118750002,190.28882659583337,46.0,93.0
871,190.11259718750003,190.48554779583336,58.0,91.0
872,190.11259718750003,190.49374451250003,61.0,95.0
873,190.11259718750003,190.54087563333337,65.0,97.0
874,190.60440018750003,190.80521974583337,46.0,92.0
875,191.09620318750004,191.53062917083335,60.0,92.0
876,191.09620318750004,191.5839078291667,67.0,92.0
877,191.09620318750004,191.59825208333336,63.0,91.0
878,191.5880061875,192.25194023750004,55.0,91.0
879,191.09620318750004,192.40153031666668,48.0,93.0
880,192.07980918750002,192.77653010416668,60.0,94.0
881,192.07980918750002,192.78472682083336,63.0,98.0
882,192.07980918750002,192.82980876250002,67.0,93.0
883,192.57161218750002,192.93431690000003,48.0,97.0
884,192.07980918750002,193.05521847083335,72.0,91.0
885,193.06341518750003,193.65152960833336,61.0,92.0
886,193.06341518750003,193.84825080833335,65.0,97.0
887,193.80111968750003,193.91997207916668,61.0,87.0
888,193.55521818750003,194.13308671250002,56.0,89.0
889,193.06341518750003,194.36669313750002,49.0,95.0
890,194.04702118750004,194.4035783625,65.0,105.0
891,194.04702118750004,194.4056275416667,61.0,97.0
892,194.04702118750004,194.43021769166668,68.0,95.0
893,194.29292268750004,194.46915209583335,56.0,85.0
894,194.53882418750004,194.7130044166667,49.0,97.0
895,195.03062718750002,195.54087280000002,60.0,93.0
896,195.03062718750002,195.81546280833336,64.0,92.0
897,195.03062718750002,195.85234803333336,67.0,87.0
898,195.76833168750002,195.90767587083337,60.0,91.0
899,195.52243018750002,196.05111841250002,55.0,85.0
900,196.01423318750003,196.2744789416667,60.0,96.0
901,196.01423318750003,196.2867740166667,64.0,100.0
902,196.01423318750003,196.29087237500002,67.0,94.0
903,195.03062718750002,196.31956088333337,48.0,97.0
904,196.01423318750003,196.37079036250003,72.0,93.0
905,196.26013468750003,196.40767558750002,55.0,87.0
906,196.50603618750003,196.64128201250003,48.0,92.0
907,196.99783918750003,197.10234732500004,41.0,96.0
908,196.99783918750003,197.37488815416668,60.0,92.0
909,196.99783918750003,197.51628151666668,65.0,92.0
910,197.98144518750001,198.2396417625,60.0,100.0
911,198.22734668750002,198.51628095000004,65.0,100.0
912,198.22734668750002,198.5490678166667,68.0,95.0
913,198.47324818750002,198.79087095833336,60.0,92.0
914,197.48964218750004,198.80521521250003,53.0,92.0
915,198.71914968750002,199.06751014583335,65.0,92.0
916,198.71914968750002,199.06955932500003,67.0,92.0
917,199.45685418750003,199.77037860000002,65.0,91.0
918,199.21095268750003,200.0367718916667,60.0,81.0
919,199.94865718750003,200.29906682500004,65.0,97.0
920,198.96505118750002,200.31750943750004,53.0,97.0
921,200.19455868750003,200.4179192166667,60.0,91.0
922,199.94865718750003,200.6207879541667,68.0,95.0
923,199.94865718750003,200.7375911666667,72.0,97.0
924,200.44046018750004,200.8851320666667,53.0,93.0
925,200.93226318750004,201.44865633750004,65.0,94.0
926,200.93226318750004,201.45275469583336,68.0,91.0
927,201.42406618750002,201.97529538333336,48.0,76.0
928,201.91586918750002,202.1945575541667,65.0,100.0
929,201.91586918750002,202.23349195833336,68.0,105.0
930,201.91586918750002,202.24988539166668,72.0,98.0
931,200.93226318750004,202.30726240833337,41.0,96.0
932,202.16177068750002,202.3298033791667,48.0,83.0
933,202.40767218750003,202.5695573416667,65.0,98.0
934,202.89947518750003,203.4855404291667,63.0,93.0
935,202.89947518750003,203.48963878750004,67.0,92.0
936,203.39127818750003,203.96914671250002,58.0,80.0
937,202.89947518750003,204.16381873333336,51.0,96.0
938,203.88308118750004,204.1863597041667,63.0,95.0
939,203.88308118750004,204.32980224583335,67.0,105.0
940,204.12898268750004,204.33799896250002,58.0,87.0
941,203.88308118750004,204.43635956250003,70.0,95.0
942,204.37488418750002,204.53676934166668,51.0,95.0
943,204.86668718750002,205.35029347083335,61.0,92.0
944,204.86668718750002,205.44660489166668,65.0,94.0
945,204.86668718750002,205.60234250833335,49.0,95.0
946,205.35849018750002,205.67201460000004,56.0,87.0
947,205.85029318750003,206.18021103333336,63.0,92.0
948,205.85029318750003,206.28062081250002,51.0,102.0
949,205.85029318750003,206.34619454583336,67.0,93.0
950,206.34209618750003,206.69865336250004,63.0,95.0
951,206.83389918750004,207.34619397916669,63.0,94.0
952,206.83389918750004,207.41586607083337,68.0,91.0
953,207.32570218750004,207.96914444583336,51.0,87.0
954,206.83389918750004,208.04291489583335,44.0,93.0
955,207.81750518750002,208.50602938750004,68.0,100.0
956,207.81750518750002,208.51832446250003,72.0,98.0
957,207.81750518750002,208.54906215000003,63.0,97.0
958,208.30930818750002,208.65357028750003,44.0,92.0
959,208.80111118750003,209.39947150416668,61.0,92.0
960,208.80111118750003,209.52242225416668,58.0,93.0
961,208.80111118750003,209.89947122083336,46.0,95.0
962,209.29291418750003,209.92611055000003,53.0,87.0
963,209.78471718750004,210.12078257083337,58.0,93.0
964,209.78471718750004,210.12897928750002,61.0,96.0
965,209.78471718750004,210.16176615416668,65.0,97.0
966,210.27652018750004,210.42815944583336,46.0,93.0
967,210.76832318750002,211.3482408916667,67.0,89.0
968,210.76832318750002,211.4158638041667,63.0,91.0
969,210.76832318750002,211.42406052083336,60.0,91.0
970,211.26012618750002,211.8646340416667,55.0,78.0
971,211.75192918750002,212.09209292916668,60.0,98.0
972,210.76832318750002,212.10028964583336,48.0,96.0
973,211.99783068750003,212.14332240833338,55.0,93.0
974,211.75192918750002,212.18225681250001,63.0,107.0
975,211.75192918750002,212.46299435833336,67.0,97.0
976,212.24373218750003,212.51422383750003,48.0,95.0
977,212.73553518750003,213.49782983750003,65.0,90.0
978,212.73553518750003,213.5367642416667,61.0,91.0
979,213.22733818750004,213.80930507083337,56.0,96.0
980,212.73553518750003,214.00807545000004,49.0,97.0
981,213.71914118750004,214.05110821250003,68.0,94.0
982,213.71914118750004,214.0531573916667,61.0,94.0
983,213.71914118750004,214.0531573916667,65.0,105.0
984,213.96504268750002,214.10028851250001,56.0,91.0
985,214.21094418750002,214.37692770000004,49.0,97.0
986,214.70274718750002,214.9506978666667,60.0,92.0
987,214.70274718750002,215.02446831666668,64.0,91.0
988,214.70274718750002,215.04496010833336,67.0,91.0
989,215.19455018750003,215.55110736250003,60.0,96.0
990,215.44045168750003,215.55725490000003,64.0,93.0
991,214.70274718750002,215.70889415833335,48.0,97.0
992,215.68635318750003,216.00602513750002,60.0,102.0
993,215.68635318750003,216.0265169291667,64.0,112.0
994,215.93225468750003,216.05930379583336,55.0,96.0
995,215.68635318750003,216.05930379583336,67.0,102.0
996,216.17815618750004,216.33594298333335,60.0,102.0
997,215.68635318750003,216.33799216250003,72.0,96.0
998,216.66995918750004,216.85233613333335,41.0,100.0
999,216.66995918750004,216.9609426291667,60.0,95.0
1000,216.66995918750004,217.03881143750002,65.0,95.0
1001,217.16176218750002,217.6371717541667,53.0,91.0
1002,217.65356518750002,218.2457779666667,68.0,100.0
1003,217.65356518750002,218.24782714583336,65.0,98.0
1004,217.65356518750002,218.2949582666667,72.0,96.0
1005,218.14536818750003,218.31135170000002,43.0,92.0
1006,218.63717118750003,219.21503971250004,60.0,95.0
1007,218.63717118750003,219.45274449583337,56.0,92.0
1008,219.12897418750003,219.7396295791667,51.0,87.0
1009,218.63717118750003,219.9547933916667,44.0,92.0
1010,219.62077718750004,220.08594085833337,60.0,107.0
1011,219.62077718750004,220.09208839583337,56.0,95.0
1012,219.62077718750004,220.14536705416668,63.0,98.0
1013,219.62077718750004,220.20274407083338,68.0,91.0
1014,220.11258018750004,220.33389153750002,44.0,94.0
1015,220.60438318750002,220.9629895416667,61.0,92.0
1016,220.60438318750002,221.1105304416667,65.0,102.0
1017,220.60438318750002,221.3379893291667,49.0,97.0
1018,221.09618618750002,221.39741552500004,56.0,88.0
1019,221.34208768750003,221.47118597500003,61.0,93.0
1020,221.58798918750003,221.59823508333335,49.0,91.0
1021,221.58798918750003,221.93020210833336,63.0,93.0
1022,221.58798918750003,222.12897248750002,67.0,95.0
1023,221.83389068750003,222.15151345833337,58.0,86.0
1024,221.58798918750003,222.19249704166668,51.0,95.0
1025,222.07979218750003,222.44044772083336,63.0,93.0
1026,222.32569368750003,222.45479197500003,67.0,94.0
1027,222.57159518750004,222.98962773750003,68.0,92.0
1028,222.57159518750004,223.03880803750002,63.0,91.0
1029,223.06339818750004,223.6679060416667,51.0,87.0
1030,222.57159518750004,223.8092994041667,44.0,93.0
1031,223.55520118750002,224.02651239583335,63.0,96.0
1032,224.04700418750002,224.24167620833336,44.0,92.0
1033,223.55520118750002,224.39126628750003,68.0,96.0
1034,223.55520118750002,224.4855285291667,72.0,98.0
1035,224.53880718750003,224.8236430916667,65.0,92.0
1036,224.53880718750003,224.96298727500002,70.0,85.0
1037,225.03061018750003,225.60642953333337,53.0,85.0
1038,224.53880718750003,225.69864259583338,46.0,93.0
1039,225.52241318750004,225.89536379583336,58.0,91.0
1040,225.52241318750004,225.90356051250004,61.0,95.0
1041,225.52241318750004,225.95069163333338,65.0,97.0
1042,226.01421618750004,226.21503574583338,46.0,92.0
1043,226.50601918750004,226.94044517083336,60.0,92.0
1044,226.50601918750004,226.9937238291667,67.0,92.0
1045,226.50601918750004,227.00806808333337,63.0,91.0
1046,226.99782218750002,227.66175623750004,55.0,91.0
1047,226.50601918750004,227.8113463166667,48.0,93.0
1048,227.48962518750002,228.1863461041667,60.0,94.0
1049,227.48962518750002,228.19454282083336,63.0,98.0
1050,227.48962518750002,228.23962476250003,67.0,93.0
1051,227.98142818750003,228.34413290000003,48.0,97.0
1052,227.48962518750002,228.46503447083336,72.0,91.0
1053,228.47323118750003,229.06134560833337,61.0,92.0
1054,228.47323118750003,229.25806680833335,65.0,97.0
1055,229.21093568750004,229.3297880791667,61.0,87.0
1056,228.96503418750004,229.54290271250002,56.0,89.0
1057,228.47323118750003,229.77650913750003,49.0,95.0
1058,229.45683718750004,229.81339436250002,65.0,105.0
1059,229.45683718750004,229.8154435416667,61.0,97.0
1060,229.45683718750004,229.8400336916667,68.0,95.0
1061,229.70273868750004,229.87896809583336,56.0,85.0
1062,229.94864018750002,230.12282041666668,49.0,97.0
1063,230.44044318750002,230.95068880000002,60.0,93.0
1064,230.44044318750002,231.22527880833337,64.0,92.0
1065,230.44044318750002,231.26216403333336,67.0,87.0
1066,231.17814768750003,231.31749187083335,60.0,91.0
1067,230.93224618750003,231.46093441250002,55.0,85.0
1068,231.42404918750003,231.6842949416667,60.0,96.0
1069,231.42404918750003,231.6965900166667,64.0,100.0
1070,231.42404918750003,231.70068837500003,67.0,94.0
1071,230.44044318750002,231.72937688333337,48.0,97.0
1072,231.42404918750003,231.78060636250004,72.0,93.0
1073,231.66995068750003,231.81749158750003,55.0,87.0
1074,231.91585218750004,232.05109801250003,48.0,92.0
1075,232.40765518750004,232.51216332500002,41.0,96.0
1076,232.40765518750004,232.7847041541667,60.0,92.0
1077,232.40765518750004,232.9260975166667,65.0,92.0
1078,233.39126118750002,233.64945776250002,60.0,100.0
1079,233.63716268750002,233.92609695000004,65.0,100.0
1080,233.63716268750002,233.95888381666668,68.0,95.0
1081,233.88306418750003,234.20068695833336,60.0,92.0
1082,232.89945818750004,234.21503121250004,53.0,92.0
1083,234.12896568750003,234.47732614583336,65.0,92.0
1084,234.27445740833338,234.47732614583336,65.0,85.0
1085,234.12896568750003,234.47937532500003,67.0,92.0
1086,234.37486718750003,235.5326534166667,41.0,94.0
1087,234.4383917416667,236.19453828750002,77.0,91.0
1088,234.3338836041667,236.2027350041667,68.0,83.0
1089,234.39126062083338,236.2027350041667,72.0,84.0
1090,236.4424889666667,237.0633902541667,61.0,81.0
1091,236.48347255000004,237.20068525833338,65.0,92.0
1092,237.17814428750003,237.47937362500002,61.0,86.0
1093,236.4855217291667,237.50396377500005,49.0,95.0
1094,236.94863622083338,237.5551932541667,56.0,80.0
1095,237.4199474291667,237.60847191250002,65.0,100.0
1096,237.9547831916667,238.72527455833335,63.0,85.0
1097,237.95683237083335,239.16379890000005,67.0,84.0
1098,239.12076613750003,239.6699461541667,63.0,90.0
1099,238.57363530000003,240.13920818333335,58.0,88.0
1100,239.82568377083336,240.1617491541667,65.0,92.0
1101,240.12896228750003,240.52650304583338,63.0,92.0
1102,237.9670782666667,240.72937178333336,51.0,93.0
1103,240.48347028333336,241.20887970833337,58.0,78.0
1104,242.52035437500004,242.66789527500003,53.0,84.0
1105,242.66584609583336,242.81338699583335,55.0,77.0
1106,242.83387878750003,243.11666551250002,56.0,79.0
1107,243.03674752500004,243.2416654416667,60.0,83.0
1108,243.22117365000003,243.36256701250002,65.0,85.0
1109,243.46707515000003,243.6351078416667,67.0,87.0
1110,243.73756680000002,244.0900256166667,68.0,82.0
1111,244.1822386791667,244.3482221916667,72.0,84.0
1112,242.36051840000005,245.15150042500002,48.0,69.0
1113,242.1105185416667,245.2088774416667,41.0,93.0
