,start,end,pitch,velocity
0,24.6787642625,25.56393815,65.0,90.0
1,25.7252752625,25.9869030125,64.0,86.0
2,26.0741122625,26.627891,60.0,90.0
3,26.7717862625,27.08719305,60.0,90.0
4,27.1206232625,27.3822510125,57.0,85.0
5,27.4694602625,27.912773950000002,60.0,87.0
6,27.9927157625,30.0232378,62.0,83.0
7,30.2601562625,31.287771925,77.0,88.0
8,31.3066672625,31.6118996375,76.0,88.0
9,31.6555042625,32.2601550625,72.0,87.0
10,32.3531782625,32.6380618125,72.0,87.0
11,32.7020152625,32.94765465,69.0,88.0
12,33.0508522625,33.4898054875,79.0,86.0
13,33.5741077625,35.0537580375,81.0,83.0
14,35.1438742625,35.4723624375,81.0,88.0
15,35.4927112625,35.7557925,84.0,97.0
16,35.8415482625,36.6438733625,79.0,88.0
17,36.8880592625,37.1148033125,81.0,82.0
18,37.2368962625,37.7834075625,79.0,87.0
19,37.9345702625,38.18020965,77.0,83.0
20,38.2834072625,38.5130582875,76.0,87.0
21,38.6322442625,38.9287557125,77.0,88.0
22,38.9810812625,39.3299182625,76.0,92.0
23,39.3299182625,39.68020875,77.0,85.0
24,39.6787552625,39.793580775,79.0,81.0
25,39.8531737625,40.4898012875,81.0,87.0
26,40.7252662625,41.043580025,79.0,87.0
27,41.0741032625,41.1787543625,81.0,85.0
28,41.2485217625,41.9636376125,74.0,92.0
29,42.1206142625,42.427300125,79.0,88.0
30,42.4694512625,42.558114,81.0,83.0
31,42.6438697625,43.3531716625,74.0,97.0
32,43.5159622625,44.1089851625,72.0,83.0
33,44.2136362625,46.148228125,74.0,97.0
34,47.0043322625,47.88950615,65.0,90.0
35,48.0508432625,48.3124710125,64.0,86.0
36,48.3996802625,48.953459,60.0,90.0
37,49.0973542625,49.41276105,60.0,90.0
38,49.4461912625,49.7078190125,57.0,85.0
39,49.7950282625,50.23834195,60.0,87.0
40,50.3182837625,52.3488058,62.0,83.0
41,52.5857242625,53.613339925,77.0,88.0
42,53.632235262500004,53.9374676375,76.0,88.0
43,53.9810722625,54.5857230625,72.0,87.0
44,54.6787462625,54.9636298125,72.0,87.0
45,55.0275832625,55.27322265,69.0,88.0
46,55.3764202625,55.8153734875,79.0,86.0
47,55.8996757625,57.3793260375,81.0,83.0
48,57.4694422625,57.7979304375,81.0,88.0
49,57.8182792625,58.0813605,84.0,97.0
50,58.1671162625,58.9694413625,79.0,88.0
51,59.2136272625,59.4403713125,81.0,82.0
52,59.5624642625,60.1089755625,79.0,87.0
53,60.2601382625,60.50577765,77.0,83.0
54,60.6089752625,60.8386262875,76.0,87.0
55,60.9578122625,61.2543237125,77.0,88.0
56,61.3066492625,61.6554862625,76.0,92.0
57,61.6554862625,62.00577675,77.0,85.0
58,62.0043232625,62.119148775,79.0,81.0
59,62.1787417625,62.8153692875,81.0,87.0
60,63.0508342625,63.369148025,79.0,87.0
61,63.3996712625,63.5043223625,81.0,85.0
62,63.5740897625,64.2892056125,74.0,92.0
63,64.4461822625,64.752868125,79.0,88.0
64,64.7950192625,64.883682,81.0,83.0
65,64.96943776250001,65.6787396625,74.0,97.0
66,65.8415302625,66.4345531625,72.0,83.0
67,66.53920426250001,68.473796125,74.0,97.0
68,68.6322262625,68.8938540125,74.0,97.0
69,68.9810632625,69.2688537875,77.0,85.0
70,69.3299002625,69.7892023125,79.0,88.0
71,69.8531557625,70.2310625125,81.0,87.0
72,70.3764112625,70.697632,74.0,88.0
73,70.7252482625,71.148213125,79.0,84.0
74,71.4229222625,71.6816430375,74.0,95.0
75,71.7717592625,72.0232126,77.0,85.0
76,72.1205962625,72.4694332625,76.0,90.0
77,72.6438517625,73.159839825,72.0,82.0
78,73.1671072625,73.4519908125,69.0,83.0
79,73.5159442625,74.1118741375,72.0,86.0
80,74.2136182625,74.44762975,74.0,83.0
81,74.5624552625,74.7979202375,77.0,81.0
82,74.9112922625,75.3822222125,79.0,82.0
83,75.4345477625,75.8211754375,81.0,81.0
84,75.9578032625,76.2543147125,74.0,88.0
85,76.3066402625,76.758674875,79.0,82.0
86,76.8298957625,77.2368722625,81.0,84.0
87,77.3531512625,77.6046046,84.0,85.0
88,77.7019882625,79.4461732625,81.0,84.0
89,79.7950102625,80.0566380125,74.0,97.0
90,80.1438472625,80.4316377875,77.0,85.0
91,80.4926842625,80.9519863125,79.0,88.0
92,81.0159397625,81.3938465125,81.0,87.0
93,81.5391952625,81.860416,74.0,88.0
94,81.8880322625,82.310997125,79.0,84.0
95,82.5857062625,82.8240782125,77.0,85.0
96,82.9345432625,83.1743687,76.0,84.0
97,83.2833802625,83.5537289375,77.0,85.0
98,83.6322172625,83.869135725,76.0,88.0
99,83.9810542625,84.270298275,77.0,83.0
100,84.3298912625,84.418554,79.0,84.0
101,84.5043097625,85.154018675,81.0,83.0
102,85.3764022625,85.7107043875,79.0,86.0
103,85.7252392625,85.8371578,81.0,82.0
104,85.8996577625,86.6293084875,74.0,92.0
105,86.7717502625,87.0653547375,79.0,83.0
106,87.1205872625,87.4185522,81.0,82.0
107,87.4694242625,88.1031448125,74.0,92.0
108,88.1670982625,88.810993225,72.0,85.0
109,88.8647722625,90.2601202625,74.0,85.0
110,90.6089572625,90.9345384625,81.0,83.0
111,90.9577942625,91.276108025,84.0,88.0
112,91.3066312625,91.6511078,81.0,85.0
113,91.6554682625,92.6409327875,79.0,83.0
114,92.7019792625,92.9999442,81.0,83.0
115,93.0508162625,93.7165135375,79.0,87.0
116,93.7484902625,94.072617975,77.0,86.0
117,94.0973272625,94.7950012625,74.0,87.0
118,94.7950012625,95.9984889125,81.0,85.0
119,96.1903492625,96.508663025,81.0,86.0
120,96.5391862625,96.81970935,84.0,83.0
121,96.8880232625,97.2019765625,81.0,85.0
122,97.2368602625,98.299359625,79.0,81.0
123,98.2833712625,98.5886036375,81.0,86.0
124,98.6322082625,99.3560450375,79.0,86.0
125,99.3298822625,99.549358875,84.0,87.0
126,99.6787192625,100.3967420875,86.0,85.0
127,100.3763932625,101.4897646875,81.0,83.0
128,101.7717412625,102.0420899375,79.0,85.0
129,102.1205782625,102.3502292875,81.0,83.0
130,102.46941526250001,102.7048802375,84.0,88.0
131,102.8182522625,103.0580777,86.0,87.0
132,103.1670892625,103.3967402875,84.0,87.0
133,103.5159262625,103.834240025,81.0,84.0
134,103.8647632625,104.18017005,84.0,88.0
135,104.2136002625,104.73830925,79.0,81.0
136,104.9112742625,105.1612741125,81.0,81.0
137,105.2601112625,105.5246459875,79.0,82.0
138,105.60894826250001,105.8589481125,77.0,82.0
139,105.9577852625,106.1510991,79.0,83.0
140,106.3066222625,106.5042965625,81.0,82.0
141,106.6554592625,106.9141800375,84.0,86.0
142,107.0042962625,107.5595284875,74.0,90.0
143,107.7019702625,107.9403422125,74.0,97.0
144,108.0508072625,108.2484815625,77.0,83.0
145,108.3996442625,108.59877205,79.0,82.0
146,108.74848126250001,108.90109745,81.0,81.0
147,109.0973182625,109.6263877125,74.0,92.0
148,109.7949922625,110.0449921125,79.0,83.0
149,110.1438292625,110.3356896125,81.0,82.0
150,110.4926662625,110.747026575,74.0,88.0
151,110.8415032625,111.08714265,72.0,81.0
152,111.1903402625,113.86621075,74.0,86.0
153,136.3066042625,137.19177815,65.0,90.0
154,137.3531152625,137.6147430125,64.0,86.0
155,137.7019522625,138.255731,60.0,90.0
156,138.3996262625,138.71503305,60.0,90.0
157,138.7484632625,139.0100910125,57.0,85.0
158,139.0973002625,139.54061395,60.0,87.0
159,139.6205557625,141.6510778,62.0,83.0
160,141.8879962625,142.915611925,77.0,88.0
161,142.9345072625,143.2397396375,76.0,88.0
162,143.2833442625,143.8879950625,72.0,87.0
163,143.9810182625,144.2659018125,72.0,87.0
164,144.3298552625,144.57549465,69.0,88.0
165,144.6786922625,145.1176454875,79.0,86.0
166,145.2019477625,146.6815980375,81.0,83.0
167,146.7717142625,147.1002024375,81.0,88.0
168,147.1205512625,147.3836325,84.0,97.0
169,147.4693882625,148.2717133625,79.0,88.0
170,148.5158992625,148.7426433125,81.0,82.0
171,148.8647362625,149.4112475625,79.0,87.0
172,149.5624102625,149.80804965,77.0,83.0
173,149.9112472625,150.1408982875,76.0,87.0
174,150.2600842625,150.5565957125,77.0,88.0
175,150.6089212625,150.9577582625,76.0,92.0
176,150.9577582625,151.30804875,77.0,85.0
177,151.3065952625,151.421420775,79.0,81.0
178,151.4810137625,152.1176412875,81.0,87.0
179,152.3531062625,152.671420025,79.0,87.0
180,152.7019432625,152.8065943625,81.0,85.0
181,152.8763617625,153.5914776125,74.0,92.0
182,153.7484542625,154.055140125,79.0,88.0
183,154.0972912625,154.185954,81.0,83.0
184,154.2717097625,154.9810116625,74.0,97.0
185,155.1438022625,155.7368251625,72.0,83.0
186,155.8414762625,157.776068125,74.0,97.0
187,157.9344982625,158.1961260125,74.0,97.0
188,158.2833352625,158.5711257875,77.0,85.0
189,158.6321722625,159.0914743125,79.0,88.0
190,159.1554277625,159.5333345125,81.0,87.0
191,159.6786832625,159.999904,74.0,88.0
192,160.0275202625,160.450485125,79.0,84.0
193,160.7251942625,160.9839150375,74.0,95.0
194,161.0740312625,161.3254846,77.0,85.0
195,161.4228682625,161.7717052625,76.0,90.0
196,161.9461237625,162.462111825,72.0,82.0
197,162.4693792625,162.7542628125,69.0,83.0
198,162.8182162625,163.4141461375,72.0,86.0
199,163.5158902625,163.74990175,74.0,83.0
200,163.8647272625,164.1001922375,77.0,81.0
201,164.2135642625,164.6844942125,79.0,82.0
202,164.7368197625,165.1234474375,81.0,81.0
203,165.2600752625,165.5565867125,74.0,88.0
204,165.6089122625,166.060946875,79.0,82.0
205,166.1321677625,166.5391442625,81.0,84.0
206,166.6554232625,166.9068766,84.0,85.0
207,167.0042602625,168.7484452625,81.0,84.0
208,169.0972822625,169.3589100125,74.0,97.0
209,169.4461192625,169.7339097875,77.0,85.0
210,169.7949562625,170.2542583125,79.0,88.0
211,170.3182117625,170.6961185125,81.0,87.0
212,170.8414672625,171.162688,74.0,88.0
213,171.1903042625,171.613269125,79.0,84.0
214,171.8879782625,172.1263502125,77.0,85.0
215,172.2368152625,172.4766407,76.0,84.0
216,172.5856522625,172.8560009375,77.0,85.0
217,172.9344892625,173.171407725,76.0,88.0
218,173.2833262625,173.572570275,77.0,83.0
219,173.6321632625,173.720826,79.0,84.0
220,173.8065817625,174.456290675,81.0,83.0
221,174.6786742625,175.0129763875,79.0,86.0
222,175.0275112625,175.1394298,81.0,82.0
223,175.2019297625,175.9315804875,74.0,92.0
224,176.0740222625,176.3676267375,79.0,83.0
225,176.4228592625,176.7208242,81.0,82.0
226,176.7716962625,177.4054168125,74.0,92.0
227,177.4693702625,178.113265225,72.0,85.0
228,178.1670442625,179.5623922625,74.0,85.0
229,179.9112292625,180.2368104625,81.0,83.0
230,180.2600662625,180.578380025,84.0,88.0
231,180.6089032625,180.9533798,81.0,85.0
232,180.9577402625,181.9432047875,79.0,83.0
233,182.0042512625,182.3022162,81.0,83.0
234,182.3530882625,183.0187855375,79.0,87.0
235,183.0507622625,183.374889975,77.0,86.0
236,183.3995992625,184.0972732625,74.0,87.0
237,184.0972732625,185.3007609125,81.0,85.0
238,185.4926212625,185.810935025,81.0,86.0
239,185.8414582625,186.12198135,84.0,83.0
240,186.1902952625,186.5042485625,81.0,85.0
241,186.5391322625,187.601631625,79.0,81.0
242,187.5856432625,187.8908756375,81.0,86.0
243,187.9344802625,188.6583170375,79.0,86.0
244,188.6321542625,188.851630875,84.0,87.0
245,188.9809912625,189.6990140875,86.0,85.0
246,189.6786652625,190.7920366875,81.0,83.0
247,191.0740132625,191.3443619375,79.0,85.0
248,191.4228502625,191.6525012875,81.0,83.0
249,191.7716872625,192.0071522375,84.0,88.0
250,192.1205242625,192.3603497,86.0,87.0
251,192.4693612625,192.6990122875,84.0,87.0
252,192.8181982625,193.136512025,81.0,84.0
253,193.1670352625,193.48244205,84.0,88.0
254,193.5158722625,194.04058125,79.0,81.0
255,194.2135462625,194.4635461125,81.0,81.0
256,194.5623832625,194.8269179875,79.0,82.0
257,194.9112202625,195.1612201125,77.0,82.0
258,195.2600572625,195.4533711,79.0,83.0
259,195.6088942625,195.8065685625,81.0,82.0
260,195.9577312625,196.2164520375,84.0,86.0
261,196.3065682625,196.8618004875,74.0,90.0
262,197.00424226250001,197.2426142125,74.0,97.0
263,197.3530792625,197.5507535625,77.0,83.0
264,197.7019162625,197.90104405,79.0,82.0
265,198.0507532625,198.20336945,81.0,81.0
266,198.3995902625,198.9286597125,74.0,92.0
267,199.0972642625,199.3472641125,79.0,83.0
268,199.4461012625,199.6379616125,81.0,82.0
269,199.7949382625,200.049298575,74.0,88.0
270,200.14377526250001,200.38941465,72.0,81.0
271,200.4926122625,201.8879602625,74.0,86.0
272,202.2367972625,202.5623784625,81.0,83.0
273,202.5856342625,202.903948025,84.0,88.0
274,202.9344712625,203.2789478,81.0,85.0
275,203.28330826250001,204.2687727875,79.0,83.0
276,204.3298192625,204.6277842,81.0,83.0
277,204.6786562625,205.3443535375,79.0,87.0
278,205.3763302625,205.700457975,77.0,86.0
279,205.7251672625,206.42284126250001,74.0,87.0
280,206.42284126250001,207.62632891250001,81.0,85.0
281,207.8181892625,208.136503025,81.0,86.0
282,208.1670262625,208.44754935,84.0,83.0
283,208.5158632625,208.8298165625,81.0,85.0
284,208.8647002625,209.92719962500001,79.0,81.0
285,209.9112112625,210.2164436375,81.0,86.0
286,210.2600482625,210.9838850375,79.0,86.0
287,210.9577222625,211.177198875,84.0,87.0
288,211.3065592625,212.0245820875,86.0,85.0
289,212.0042332625,213.1176046875,81.0,83.0
290,213.3995812625,213.6699299375,79.0,85.0
291,213.7484182625,213.9780692875,81.0,83.0
292,214.0972552625,214.3327202375,84.0,88.0
293,214.4460922625,214.6859177,86.0,87.0
294,214.7949292625,215.0245802875,84.0,87.0
295,215.1437662625,215.462080025,81.0,84.0
296,215.4926032625,215.80801005,84.0,88.0
297,215.8414402625,216.36614925,79.0,81.0
298,216.5391142625,216.7891141125,81.0,81.0
299,216.8879512625,217.1524859875,79.0,82.0
300,217.2367882625,217.4867881125,77.0,82.0
301,217.5856252625,217.7789391,79.0,83.0
302,217.9344622625,218.1321365625,81.0,82.0
303,218.2832992625,218.5420200375,84.0,86.0
304,218.6321362625,219.1873684875,74.0,90.0
305,219.3298102625,219.5681822125,74.0,97.0
306,219.6786472625,219.8763215625,77.0,83.0
307,220.0274842625,220.22661205,79.0,82.0
308,220.3763212625,220.52893745,81.0,81.0
309,220.7251582625,221.2542277125,74.0,92.0
310,221.4228322625,221.6728321125,79.0,83.0
311,221.7716692625,221.9635296125,81.0,82.0
312,222.1205062625,222.374866575,74.0,88.0
313,222.4693432625,222.71498265,72.0,81.0
314,222.8181802625,225.49405075,74.0,86.0
