,start,end,pitch,velocity
0,2.8764517625,3.4186026,58.0,79.0
1,2.3531962625,3.607555975,46.0,88.0
2,2.7020332625,3.6206373625,53.0,70.0
3,3.5741257625,3.72674195,58.0,85.0
4,3.2252887625,3.8677302375,65.0,82.0
5,4.2717997625,4.5857530625,64.0,97.0
6,4.0973812625,4.5944739875,60.0,76.0
7,3.7485442625,4.98255515,48.0,86.0
8,3.9229627625,5.0014504875,55.0,64.0
9,4.9694737625,5.1351713375,60.0,79.0
10,4.6206367625,5.1351713375,67.0,72.0
11,5.4927292625,5.8997057625,62.0,76.0
12,5.6671477625,5.9898219875,69.0,85.0
13,6.1904032625,6.3154031875,62.0,82.0
14,5.1438922625,6.4055194125,50.0,86.0
15,5.3183107625,6.409879875,57.0,70.0
16,6.1904032625,6.4316821875,65.0,82.0
17,6.3648217625,6.555228625,62.0,80.0
18,6.8880772625,6.997088825,62.0,83.0
19,7.0624957625,7.3328444375,62.0,83.0
20,7.0624957625,7.4069723,69.0,82.0
21,6.7136587625,7.4578443625,57.0,70.0
22,6.5392402625,7.4999955,50.0,83.0
23,7.5857512625,7.6729605125,62.0,76.0
24,7.5857512625,7.8124953125,65.0,82.0
25,7.7601697625,7.9520301125,62.0,81.0
26,8.2834252625,8.77325055,58.0,83.0
27,8.4578437625,8.8139482,62.0,79.0
28,7.9345882625,9.1060991875,46.0,88.0
29,8.1090067625,9.124994525,53.0,76.0
30,8.8066807625,9.2136572625,65.0,82.0
31,9.1555177625,9.3124944125,58.0,85.0
32,9.6787732625,10.1642380875,60.0,70.0
33,9.8531917625,10.3909821375,64.0,83.0
34,9.3299362625,10.555226225,48.0,83.0
35,9.5043547625,10.5624936625,55.0,65.0
36,10.3764472625,10.706388925,67.0,83.0
37,10.5508657625,10.712202875000001,60.0,83.0
38,11.0741212625,11.3095862375,62.0,82.0
39,11.2485397625,11.531969825000001,65.0,83.0
40,11.5973767625,11.7543534125,69.0,90.0
41,10.7252842625,12.008713725,50.0,84.0
42,10.8997027625,12.0247020875,57.0,73.0
43,11.9462137625,12.0508648625,62.0,83.0
44,12.120632262500001,12.26162055,62.0,70.0
45,12.6438877625,12.9142364375,62.0,85.0
46,12.4694692625,13.1293525875,57.0,79.0
47,12.9927247625,13.225282762500001,62.0,86.0
48,12.120632262500001,13.334294325,50.0,87.0
49,13.1671432625,13.5159802625,57.0,77.0
50,12.9927247625,13.520340725,69.0,83.0
51,14.0392357625,14.5813866,58.0,79.0
52,13.5159802625,14.770339975,46.0,88.0
53,13.8648172625,14.7834213625,53.0,70.0
54,14.7369097625,14.88952595,58.0,85.0
55,14.3880727625,15.0305142375,65.0,82.0
56,15.4345837625,15.7485370625,64.0,97.0
57,15.2601652625,15.7572579875,60.0,76.0
58,14.9113282625,16.14533915,48.0,86.0
59,15.0857467625,16.1642344875,55.0,64.0
60,16.1322577625,16.2979553375,60.0,79.0
61,15.7834207625,16.2979553375,67.0,72.0
62,16.6555132625,17.0624897625,62.0,76.0
63,16.8299317625,17.1526059875,69.0,85.0
64,17.3531872625,17.4781871875,62.0,82.0
65,16.3066762625,17.5683034125,50.0,86.0
66,16.4810947625,17.572663875,57.0,70.0
67,17.3531872625,17.5944661875,65.0,82.0
68,17.5276057625,17.718012625,62.0,80.0
69,18.0508612625,18.159872825,62.0,83.0
70,18.2252797625,18.4956284375,62.0,83.0
71,18.2252797625,18.5697563,69.0,82.0
72,17.8764427625,18.6206283625,57.0,70.0
73,17.7020242625,18.6627795,50.0,83.0
74,18.7485352625,18.8357445125,62.0,76.0
75,18.7485352625,18.9752793125,65.0,82.0
76,18.9229537625,19.1148141125,62.0,81.0
77,19.446209262500002,19.7441742,55.0,82.0
78,19.6206277625,20.0130693875,62.0,86.0
79,19.9694647625,20.21510415,55.0,83.0
80,19.0973722625,20.3066738625,43.0,83.0
81,19.2717907625,20.31975525,50.0,76.0
82,20.1438832625,20.6031853125,62.0,81.0
83,20.8415572625,21.218010525,57.0,76.0
84,21.0159757625,21.26161515,60.0,85.0
85,21.3648127625,21.6235335375,60.0,92.0
86,21.3648127625,21.648242825,57.0,81.0
87,21.3648127625,21.677312575,64.0,88.0
88,20.6671387625,21.7456264875,52.0,77.0
89,20.4927202625,21.811033425,45.0,83.0
90,21.8880682625,22.2325448,57.0,77.0
91,21.8880682625,22.2790564,62.0,82.0
92,22.4113237625,22.7194631125,57.0,92.0
93,22.7601607625,23.055218725,65.0,86.0
94,22.9345792625,23.165683775,57.0,82.0
95,21.8880682625,23.18021865,50.0,90.0
96,22.2369052625,23.2020209625,53.0,76.0
97,23.1089977625,23.444753375,62.0,80.0
98,23.6322532625,23.9142298375,57.0,82.0
99,23.8066717625,24.2092878,62.0,83.0
100,23.2834162625,24.6555084625,50.0,83.0
101,23.4578347625,24.6613224125,53.0,74.0
102,24.3299272625,24.6744038,57.0,82.0
103,24.3299272625,24.68021775,65.0,79.0
104,25.2020197625,25.7441706,58.0,79.0
105,24.6787642625,25.933123975,46.0,88.0
106,25.0276012625,25.9462053625,53.0,70.0
107,25.8996937625,26.05230995,58.0,85.0
108,25.5508567625,26.1932982375,65.0,82.0
109,26.5973677625,26.9113210625,64.0,97.0
110,26.4229492625,26.9200419875,60.0,76.0
111,26.0741122625,27.30812315,48.0,86.0
112,26.2485307625,27.3270184875,55.0,64.0
113,27.2950417625,27.4607393375,60.0,79.0
114,26.9462047625,27.4607393375,67.0,72.0
115,27.8182972625,28.2252737625,62.0,76.0
116,27.9927157625,28.3153899875,69.0,85.0
117,28.5159712625,28.6409711875,62.0,82.0
118,27.4694602625,28.7310874125,50.0,86.0
119,27.6438787625,28.735447875,57.0,70.0
120,28.5159712625,28.7572501875,65.0,82.0
121,28.6903897625,28.880796625,62.0,80.0
122,29.213645262500002,29.322656825,62.0,83.0
123,29.3880637625,29.6584124375,62.0,83.0
124,29.3880637625,29.7325403,69.0,82.0
125,29.0392267625,29.783412362500002,57.0,70.0
126,28.8648082625,29.8255635,50.0,83.0
127,29.9113192625,29.998528512500002,62.0,76.0
128,29.9113192625,30.1380633125,65.0,82.0
129,30.0857377625,30.2775981125,62.0,81.0
130,30.6089932625,31.09881855,58.0,83.0
131,30.783411762500002,31.1395162,62.0,79.0
132,30.2601562625,31.4316671875,46.0,88.0
133,30.4345747625,31.450562525,53.0,76.0
134,31.1322487625,31.5392252625,65.0,82.0
135,31.4810857625,31.638062412500002,58.0,85.0
136,32.0043412625,32.4898060875,60.0,70.0
137,32.1787597625,32.7165501375,64.0,83.0
138,31.6555042625,32.880794225,48.0,83.0
139,31.8299227625,32.8880616625,55.0,65.0
140,32.7020152625,33.031956925,67.0,83.0
141,32.8764337625,33.037770875,60.0,83.0
142,33.3996892625,33.635154237500004,62.0,82.0
143,33.5741077625,33.857537825,65.0,83.0
144,33.9229447625,34.0799214125,69.0,90.0
145,33.0508522625,34.334281725,50.0,84.0
146,33.2252707625,34.3502700875,57.0,73.0
147,34.2717817625,34.3764328625,62.0,83.0
148,34.4462002625,34.58718855,62.0,70.0
149,34.9694557625,35.2398044375,62.0,85.0
150,34.7950372625,35.4549205875,57.0,79.0
151,35.3182927625,35.5508507625,62.0,86.0
152,34.4462002625,35.659862325,50.0,87.0
153,35.4927112625,35.8415482625,57.0,77.0
154,35.3182927625,35.845908725,69.0,83.0
155,36.3648037625,36.9069546,58.0,79.0
156,35.8415482625,37.095907975,46.0,88.0
157,36.1903852625,37.1089893625,53.0,70.0
158,37.0624777625,37.21509395,58.0,85.0
159,36.7136407625,37.3560822375,65.0,82.0
160,37.7601517625,38.0741050625,64.0,97.0
161,37.5857332625,38.0828259875,60.0,76.0
162,37.2368962625,38.47090715,48.0,86.0
163,37.4113147625,38.4898024875,55.0,64.0
164,38.4578257625,38.6235233375,60.0,79.0
165,38.1089887625,38.6235233375,67.0,72.0
166,38.9810812625,39.3880577625,62.0,76.0
167,39.1554997625,39.4781739875,69.0,85.0
168,39.6787552625,39.8037551875,62.0,82.0
169,38.6322442625,39.8938714125,50.0,86.0
170,38.8066627625,39.898231875,57.0,70.0
171,39.6787552625,39.9200341875,65.0,82.0
172,39.8531737625,40.043580625,62.0,80.0
173,40.3764292625,40.485440825,62.0,83.0
174,40.5508477625,40.8211964375,62.0,83.0
175,40.5508477625,40.8953243,69.0,82.0
176,40.2020107625,40.9461963625,57.0,70.0
177,40.0275922625,40.9883475,50.0,83.0
178,41.0741032625,41.1613125125,62.0,76.0
179,41.0741032625,41.3008473125,65.0,82.0
180,41.2485217625,41.440382112500004,62.0,81.0
181,41.7717772625,42.0697422,55.0,82.0
182,41.9461957625,42.3386373875,62.0,86.0
183,42.2950327625,42.54067215,55.0,83.0
184,41.4229402625,42.6322418625,43.0,83.0
185,41.5973587625,42.64532325,50.0,76.0
186,42.4694512625,42.9287533125,62.0,81.0
187,43.1671252625,43.543578525,57.0,76.0
188,43.3415437625,43.58718315,60.0,85.0
189,43.6903807625,43.9491015375,60.0,92.0
190,43.6903807625,43.973810825,57.0,81.0
191,43.6903807625,44.002880575,64.0,88.0
192,42.9927067625,44.0711944875,52.0,77.0
193,42.8182882625,44.136601425,45.0,83.0
194,44.2136362625,44.5581128,57.0,77.0
195,44.2136362625,44.6046244,62.0,82.0
196,44.7368917625,45.0450311125,57.0,92.0
197,45.0857287625,45.380786725,65.0,86.0
198,45.2601472625,45.491251775,57.0,82.0
199,44.2136362625,45.50578665,50.0,90.0
200,44.5624732625,45.5275889625,53.0,76.0
201,45.4345657625,45.770321375,62.0,80.0
202,45.9578212625,46.2397978375,57.0,82.0
203,46.1322397625,46.5348558,62.0,83.0
204,45.6089842625,46.9810764625,50.0,83.0
205,45.7834027625,46.9868904125,53.0,74.0
206,46.6554952625,46.9999718,57.0,82.0
207,46.6554952625,47.00578575,65.0,79.0
208,47.5275877625,48.0697386,58.0,79.0
209,47.0043322625,48.258691975,46.0,88.0
210,47.3531692625,48.2717733625,53.0,70.0
211,48.2252617625,48.37787795,58.0,85.0
212,47.8764247625,48.5188662375,65.0,82.0
213,48.9229357625,49.2368890625,64.0,97.0
214,48.7485172625,49.2456099875,60.0,76.0
215,48.3996802625,49.63369115,48.0,86.0
216,48.5740987625,49.6525864875,55.0,64.0
217,49.6206097625,49.7863073375,60.0,79.0
218,49.2717727625,49.7863073375,67.0,72.0
219,50.1438652625,50.5508417625,62.0,76.0
220,50.3182837625,50.6409579875,69.0,85.0
221,50.8415392625,50.9665391875,62.0,82.0
222,49.7950282625,51.0566554125,50.0,86.0
223,49.9694467625,51.061015875,57.0,70.0
224,50.8415392625,51.0828181875,65.0,82.0
225,51.0159577625,51.206364625,62.0,80.0
226,51.5392132625,51.648224825,62.0,83.0
227,51.7136317625,51.9839804375,62.0,83.0
228,51.7136317625,52.0581083,69.0,82.0
229,51.3647947625,52.1089803625,57.0,70.0
230,51.1903762625,52.1511315,50.0,83.0
231,52.2368872625,52.3240965125,62.0,76.0
232,52.2368872625,52.4636313125,65.0,82.0
233,52.4113057625,52.6031661125,62.0,81.0
234,52.9345612625,53.42438655,58.0,83.0
235,53.1089797625,53.4650842,62.0,79.0
236,52.5857242625,53.7572351875,46.0,88.0
237,52.7601427625,53.776130525,53.0,76.0
238,53.4578167625,53.8647932625,65.0,82.0
239,53.8066537625,53.9636304125,58.0,85.0
240,54.3299092625,54.8153740875,60.0,70.0
241,54.5043277625,55.0421181375,64.0,83.0
242,53.9810722625,55.206362225,48.0,83.0
243,54.1554907625,55.2136296625,55.0,65.0
244,55.0275832625,55.357524925,67.0,83.0
245,55.202001762500004,55.363338875000004,60.0,83.0
246,55.7252572625,55.9607222375,62.0,82.0
247,55.8996757625,56.183105825,65.0,83.0
248,56.2485127625,56.4054894125,69.0,90.0
249,55.3764202625,56.659849725,50.0,84.0
250,55.5508387625,56.6758380875,57.0,73.0
251,56.5973497625,56.7020008625,62.0,83.0
252,56.771768262500004,56.91275655,62.0,70.0
253,57.2950237625,57.5653724375,62.0,85.0
254,57.1206052625,57.7804885875,57.0,79.0
255,57.6438607625,57.8764187625,62.0,86.0
256,56.771768262500004,57.985430325,50.0,87.0
257,57.8182792625,58.1671162625,57.0,77.0
258,57.6438607625,58.171476725,69.0,83.0
259,58.6903717625,59.2325226,58.0,79.0
260,58.1671162625,59.421475975,46.0,88.0
261,58.5159532625,59.4345573625,53.0,70.0
262,59.3880457625,59.54066195,58.0,85.0
263,59.0392087625,59.6816502375,65.0,82.0
264,60.0857197625,60.3996730625,64.0,97.0
265,59.9113012625,60.4083939875,60.0,76.0
266,59.5624642625,60.79647515,48.0,86.0
267,59.7368827625,60.8153704875,55.0,64.0
268,60.7833937625,60.9490913375,60.0,79.0
269,60.4345567625,60.9490913375,67.0,72.0
270,61.3066492625,61.7136257625,62.0,76.0
271,61.4810677625,61.8037419875,69.0,85.0
272,62.0043232625,62.1293231875,62.0,82.0
273,60.9578122625,62.2194394125,50.0,86.0
274,61.1322307625,62.223799875,57.0,70.0
275,62.0043232625,62.2456021875,65.0,82.0
276,62.1787417625,62.369148625,62.0,80.0
277,62.7019972625,62.811008825,62.0,83.0
278,62.8764157625,63.1467644375,62.0,83.0
279,62.8764157625,63.2208923,69.0,82.0
280,62.5275787625,63.2717643625,57.0,70.0
281,62.3531602625,63.3139155,50.0,83.0
282,63.3996712625,63.4868805125,62.0,76.0
283,63.3996712625,63.6264153125,65.0,82.0
284,63.5740897625,63.7659501125,62.0,81.0
285,64.0973452625,64.3953102,55.0,82.0
286,64.2717637625,64.6642053875,62.0,86.0
287,64.6206007625,64.86624015,55.0,83.0
288,63.7485082625,64.9578098625,43.0,83.0
289,63.9229267625,64.97089125,50.0,76.0
290,64.7950192625,65.2543213125,62.0,81.0
291,65.4926932625,65.869146525,57.0,76.0
292,65.6671117625,65.91275115,60.0,85.0
293,66.0159487625,66.2746695375,60.0,92.0
294,66.0159487625,66.299378825,57.0,81.0
295,66.0159487625,66.328448575,64.0,88.0
296,65.3182747625,66.3967624875,52.0,77.0
297,65.1438562625,66.462169425,45.0,83.0
298,66.53920426250001,66.8836808,57.0,77.0
299,66.53920426250001,66.9301924,62.0,82.0
300,67.0624597625,67.3705991125,57.0,92.0
301,67.4112967625,67.706354725,65.0,86.0
302,67.5857152625,67.816819775,57.0,82.0
303,66.53920426250001,67.83135465,50.0,90.0
304,66.8880412625,67.8531569625,53.0,76.0
305,67.7601337625,68.095889375,62.0,80.0
306,68.2833892625,68.5653658375,57.0,82.0
307,68.4578077625,68.8604238,62.0,83.0
308,67.9345522625,69.3066444625,50.0,83.0
309,68.1089707625,69.3124584125,53.0,74.0
310,68.9810632625,69.3255398,57.0,82.0
311,68.9810632625,69.33135375,65.0,79.0
312,69.3299002625,69.7572255875,58.0,77.0
313,69.3299002625,69.909841775,62.0,81.0
314,69.8531557625,70.281934575,58.0,83.0
315,69.3299002625,70.5348414,46.0,85.0
316,69.6787372625,70.5711785875,53.0,68.0
317,70.2019927625,70.68019015,62.0,81.0
318,70.5508297625,70.723794775,58.0,80.0
319,70.2019927625,70.8211784375,65.0,83.0
320,71.0740852625,71.6176895875,60.0,76.0
321,71.2485037625,71.63367795,64.0,95.0
322,70.8996667625,71.7572243875,55.0,70.0
323,70.7252482625,71.7906546,48.0,86.0
324,71.7717592625,72.12204975,60.0,81.0
325,71.7717592625,72.142398575,64.0,87.0
326,71.7717592625,72.188910175,67.0,81.0
327,72.6438517625,73.0304794375,57.0,83.0
328,72.9926887625,73.177281675,60.0,87.0
329,73.1671072625,73.3357118125,57.0,79.0
330,72.4694332625,73.3415257625,52.0,79.0
331,72.1205962625,73.4258280375,45.0,83.0
332,73.5159442625,73.9171068125,57.0,82.0
333,73.5159442625,74.0115835,62.0,82.0
334,74.0391997625,74.4607111375,57.0,87.0
335,73.8647812625,74.5275715625,53.0,72.0
336,73.5159442625,74.537745975,50.0,87.0
337,74.3880367625,74.8211760375,65.0,84.0
338,74.5624552625,74.883676,57.0,83.0
339,75.4345477625,76.002861375,55.0,90.0
340,75.7833847625,76.0130357875,58.0,92.0
341,75.9578032625,76.1816403375,62.0,83.0
342,75.2601292625,76.1961752125,50.0,81.0
343,74.9112922625,76.2136170625,43.0,83.0
344,76.1322217625,76.2426868125,55.0,82.0
345,76.3066402625,76.58716335,55.0,87.0
346,76.3066402625,76.688907475,60.0,82.0
347,76.3066402625,77.2543141125,48.0,92.0
348,76.8298957625,77.2630350375,55.0,95.0
349,76.6554772625,77.2862908375,52.0,82.0
350,77.1787327625,77.409837275,60.0,87.0
351,77.3531512625,77.5348372,55.0,85.0
352,77.7019882625,77.98251135,57.0,81.0
353,77.7019882625,78.1380345125,60.0,82.0
354,78.2252437625,78.4229180625,57.0,83.0
355,78.2252437625,78.5537319375,60.0,92.0
356,78.2252437625,78.6322202625,65.0,81.0
357,78.5740807625,78.7194295125,57.0,80.0
358,77.7019882625,78.898208475,41.0,82.0
359,78.0508252625,78.898208475,48.0,78.0
360,78.7484992625,79.11041765,57.0,72.0
361,78.7484992625,79.130766475,60.0,84.0
362,79.0973362625,79.6525684875,43.0,80.0
363,79.2717547625,79.6525684875,50.0,61.0
364,79.4461732625,79.66855685,55.0,88.0
365,79.6205917625,79.7368707625,58.0,95.0
366,80.1438472625,80.3909401375,57.0,90.0
367,80.3182657625,80.4316377875,61.0,92.0
368,79.7950102625,80.514486575,45.0,85.0
369,79.9694287625,80.51739355,52.0,88.0
370,80.4926842625,80.9200095875,58.0,77.0
371,80.4926842625,81.072625775,62.0,81.0
372,81.0159397625,81.444718575,58.0,83.0
373,80.4926842625,81.6976254,46.0,85.0
374,80.8415212625,81.7339625875,53.0,68.0
375,81.3647767625,81.84297415,62.0,81.0
376,81.7136137625,81.886578775,58.0,80.0
377,81.3647767625,81.9839624375,65.0,83.0
378,82.2368692625,82.7804735875,60.0,76.0
379,82.4112877625,82.79646195,64.0,95.0
380,82.0624507625,82.9200083875,55.0,70.0
381,81.8880322625,82.9534386,48.0,86.0
382,82.9345432625,83.28483375,60.0,81.0
383,82.9345432625,83.305182575,64.0,87.0
384,82.9345432625,83.351694175,67.0,81.0
385,83.8066357625,84.1932634375,57.0,83.0
386,84.1554727625,84.340065675,60.0,87.0
387,84.3298912625,84.4984958125,57.0,79.0
388,83.6322172625,84.5043097625,52.0,79.0
389,83.2833802625,84.5886120375,45.0,83.0
390,84.6787282625,85.0929722,62.0,80.0
391,85.2019837625,85.241227925,62.0,51.0
392,84.6787282625,85.5566347125,55.0,79.0
393,85.2019837625,85.6293090875,59.0,83.0
394,85.0275652625,85.8386112875,50.0,79.0
395,84.6787282625,85.8793089375,43.0,82.0
396,85.7252392625,86.07552975,55.0,85.0
397,85.5508207625,86.14529715,67.0,82.0
398,86.5973317625,86.950529225,58.0,87.0
399,86.4229132625,86.9534362,55.0,87.0
400,86.9461687625,87.200529075,62.0,83.0
401,86.2484947625,87.3182615625,50.0,81.0
402,86.0740762625,87.3327964375,43.0,84.0
403,87.1205872625,87.438901025,55.0,81.0
404,87.8182612625,88.1932610375,57.0,83.0
405,87.9926797625,88.212156375,60.0,86.0
406,87.6438427625,88.43599345,52.0,77.0
407,88.3415167625,88.560993375,57.0,82.0
408,88.3415167625,88.590063125,60.0,85.0
409,88.3415167625,88.613318925,64.0,85.0
410,88.5159352625,88.781923475,52.0,83.0
411,87.4694242625,88.81535368750001,45.0,83.0
412,88.8647722625,89.2208767,57.0,80.0
413,88.8647722625,89.26157435,62.0,81.0
414,89.3880277625,89.6874461875,57.0,90.0
415,89.7368647625,89.9636088125,65.0,84.0
416,88.8647722625,90.1031436125,50.0,90.0
417,89.9112832625,90.119131975,57.0,75.0
418,89.2136092625,90.1467482375,53.0,72.0
419,90.2601202625,90.6263991125,57.0,80.0
420,90.2601202625,90.642387475,62.0,79.0
421,90.7833757625,91.0682593125,57.0,82.0
422,90.7833757625,91.1147709125,65.0,82.0
423,91.1322127625,91.3604103,57.0,86.0
424,91.3066312625,91.4839567375,62.0,83.0
425,91.4810497625,91.6176775875,57.0,82.0
426,90.2601202625,91.7077938125,50.0,85.0
427,90.6089572625,91.7107007875,53.0,71.0
428,91.6554682625,92.0697122,58.0,80.0
429,91.6554682625,92.2194214125,62.0,83.0
430,92.1787237625,92.6060490875,58.0,88.0
431,91.6554682625,92.706339725,46.0,88.0
432,92.5275607625,92.7252350625,62.0,85.0
433,92.0043052625,92.7397699375,53.0,79.0
434,92.5275607625,92.8589559125,65.0,81.0
435,93.0508162625,93.3996532625,60.0,80.0
436,93.0508162625,93.427269525,64.0,83.0
437,93.5740717625,93.8298855625,60.0,90.0
438,93.0508162625,94.0115715,48.0,87.0
439,93.3996532625,94.01738545,55.0,81.0
440,93.9229087625,94.12639701250001,60.0,87.0
441,93.9229087625,94.136571425,64.0,88.0
442,94.4461642625,94.63366415,38.0,83.0
443,94.4461642625,95.026105775,62.0,83.0
444,94.4461642625,95.078431325,65.0,82.0
445,95.3182567625,95.5929659,62.0,82.0
446,94.9694197625,95.630756575,57.0,80.0
447,95.3182567625,95.69180305,65.0,82.0
448,94.7950012625,95.83133785,50.0,83.0
449,95.6670937625,95.8386052875,57.0,67.0
450,95.8415122625,96.217965525,62.0,83.0
451,95.8415122625,96.2601166625,65.0,85.0
452,96.3647677625,96.8705814125,57.0,78.0
453,96.1903492625,96.94761625,50.0,82.0
454,96.7136047625,96.9810464625,62.0,92.0
455,96.8880232625,97.1525579875,65.0,77.0
456,97.0624417625,97.258662575,62.0,83.0
457,97.7601157625,98.19034806250001,55.0,85.0
458,98.1089527625,98.3211619375,58.0,97.0
459,97.5856972625,98.398196775,50.0,82.0
460,97.2368602625,98.4752316125,43.0,82.0
461,98.2833712625,98.4868595125,62.0,79.0
462,98.6322082625,99.008661525,60.0,85.0
463,98.6322082625,99.0101150125,55.0,83.0
464,99.1554637625,99.3851147875,55.0,87.0
465,99.1554637625,99.49412635,60.0,88.0
466,99.1554637625,99.6729053125,64.0,86.0
467,98.9810452625,99.6787192625,52.0,76.0
468,98.6322082625,99.7048820375,48.0,84.0
469,99.5043007625,99.7455796875,55.0,83.0
470,99.6787192625,99.904009825,60.0,85.0
471,100.0275562625,100.3763932625,57.0,83.0
472,100.0275562625,100.4229048625,60.0,85.0
473,100.5508117625,100.74993955,57.0,84.0
474,100.5508117625,100.8022651,60.0,90.0
475,100.5508117625,100.9199975875,65.0,83.0
476,100.89964876250001,101.072613775,60.0,86.0
477,101.0740672625,101.3095322375,57.0,83.0
478,100.0275562625,101.31970665,41.0,82.0
479,100.3763932625,101.3371485,48.0,77.0
480,101.2484857625,101.374939175,60.0,81.0
481,101.4229042625,101.6874389875,55.0,84.0
482,101.4229042625,101.799357525,62.0,83.0
483,101.5973227625,101.8952877,50.0,82.0
484,101.4229042625,101.90110165,43.0,83.0
485,101.7717412625,101.9287179125,55.0,88.0
486,102.1205782625,102.3560432375,57.0,81.0
487,102.1205782625,102.4461594625,64.0,83.0
488,102.46941526250001,102.7208686,57.0,87.0
489,102.2949967625,102.79208948750001,52.0,83.0
490,102.1205782625,102.816798775,45.0,83.0
491,102.6438337625,102.83133365,64.0,92.0
492,102.8182522625,103.2165078375,58.0,79.0
493,102.8182522625,103.3589496125,62.0,83.0
494,102.8182522625,103.700519175,46.0,95.0
495,103.1670892625,103.747030775,53.0,81.0
496,103.3415077625,103.7557517,58.0,86.0
497,103.6903447625,103.93598415,62.0,81.0
498,103.8647632625,104.4083675875,65.0,81.0
499,104.7368557625,104.9548788875,64.0,87.0
500,104.5624372625,104.9577858625,60.0,81.0
501,104.3880187625,105.116216,55.0,80.0
502,104.2136002625,105.142378775,48.0,84.0
503,105.0856927625,105.3037158875,64.0,86.0
504,105.0856927625,105.3371461,67.0,80.0
505,105.0856927625,105.3589484125,60.0,82.0
506,105.60894826250001,105.6409249875,43.0,78.0
507,105.60894826250001,105.956331775,57.0,79.0
508,105.60894826250001,106.0420875375,60.0,79.0
509,106.1322037625,106.5973197625,57.0,87.0
510,106.4810407625,106.7165057375,60.0,85.0
511,105.60894826250001,106.834238225,45.0,76.0
512,106.6554592625,106.8371452,57.0,81.0
513,105.9577852625,106.8415056625,52.0,81.0
514,107.0042962625,107.3851099875,55.0,81.0
515,107.0042962625,107.3909239375,59.0,81.0
516,107.5275517625,107.7920864875,55.0,83.0
517,107.5275517625,107.799353925,62.0,84.0
518,107.8763887625,108.0130165875,55.0,85.0
519,107.8763887625,108.1118537375,59.0,83.0
520,107.0042962625,108.2339466875,43.0,82.0
521,108.0508072625,108.2513885375,55.0,82.0
522,107.3531332625,108.3095280375,50.0,74.0
523,108.3996442625,109.1205740625,58.0,75.0
524,108.3996442625,109.281911175,55.0,81.0
525,108.9228997625,109.3356902125,62.0,82.0
526,108.3996442625,109.514469175,43.0,84.0
527,108.74848126250001,109.5391784625,50.0,75.0
528,109.4461552625,109.6278412,55.0,84.0
529,109.2717367625,109.7790039,67.0,82.0
530,109.7949922625,110.1322013625,57.0,80.0
531,109.7949922625,110.2092362,60.0,79.0
532,110.3182477625,110.5595266875,57.0,87.0
533,110.4926662625,110.723770775,64.0,87.0
534,110.6670847625,110.880747425,57.0,82.0
535,110.8415032625,111.037724075,60.0,82.0
536,110.1438292625,111.0769682375,52.0,80.0
537,109.7949922625,111.1002240375,45.0,83.0
538,111.0159217625,111.1728984125,57.0,77.0
539,111.1903402625,111.4141773375,57.0,80.0
540,111.1903402625,111.5929563,62.0,84.0
541,111.7135957625,112.1322001625,65.0,84.0
542,112.0624327625,112.2324908,57.0,86.0
543,111.1903402625,112.4287116125,50.0,85.0
544,111.5391772625,112.4287116125,53.0,67.0
545,112.2368512625,112.4548743875,62.0,81.0
546,112.4112697625,112.51737435,57.0,81.0
547,112.5856882625,112.9417927,57.0,83.0
548,112.5856882625,112.9752229125,62.0,82.0
549,113.1089437625,113.3603971,57.0,86.0
550,113.1089437625,113.5071993375,62.0,87.0
551,113.1089437625,113.6845248125,65.0,88.0
552,113.4577807625,113.6903387625,57.0,85.0
553,113.6321992625,113.892373525,62.0,82.0
554,113.8066177625,113.9432455875,57.0,82.0
555,112.5856882625,114.0217339125,50.0,95.0
556,112.9345252625,114.0231874,53.0,75.0
557,113.9810362625,114.4083615875,58.0,77.0
558,113.9810362625,114.560977775,62.0,81.0
559,114.5042917625,114.933070575,58.0,83.0
560,113.9810362625,115.1859774,46.0,85.0
561,114.3298732625,115.2223145875,53.0,68.0
562,114.8531287625,115.33132615,62.0,81.0
563,115.2019657625,115.374930775,58.0,80.0
564,114.8531287625,115.4723144375,65.0,83.0
565,115.7252212625,116.2688255875,60.0,76.0
566,115.8996397625,116.28481395,64.0,95.0
567,115.5508027625,116.4083603875,55.0,70.0
568,115.3763842625,116.4417906,48.0,86.0
569,116.4228952625,116.77318575,60.0,81.0
570,116.4228952625,116.793534575,64.0,87.0
571,116.4228952625,116.840046175,67.0,81.0
572,116.7717322625,117.0130111875,57.0,81.0
573,116.7717322625,117.20341805,62.0,82.0
574,117.1205692625,117.3792900375,57.0,81.0
575,117.2949877625,117.6670805625,65.0,83.0
576,117.6438247625,117.8371386,57.0,79.0
577,117.8182432625,117.9897547875,62.0,81.0
578,116.7717322625,118.0304524375,50.0,86.0
579,117.9926617625,118.0696966,57.0,72.0
580,118.1670802625,118.3880103625,57.0,82.0
581,118.1670802625,118.4999289,62.0,83.0
582,118.1670802625,118.5478939875,65.0,82.0
583,118.5159172625,118.648184625,57.0,80.0
584,118.6903357625,118.87783565,57.0,87.0
585,118.6903357625,119.0813239,65.0,85.0
586,119.0391727625,119.1845215125,57.0,87.0
587,119.2135912625,119.4650446,64.0,85.0
588,119.3880097625,119.5391724625,57.0,82.0
589,118.1670802625,119.64963751250001,50.0,87.0
590,120.0856837625,120.653997375,55.0,90.0
591,120.4345207625,120.6641717875,58.0,92.0
592,120.6089392625,120.83277633750001,62.0,83.0
593,119.9112652625,120.8473112125,50.0,81.0
594,119.5624282625,120.8647530625,43.0,83.0
595,120.7833577625,120.8938228125,55.0,82.0
596,120.9577762625,121.23829935,55.0,87.0
597,120.9577762625,121.340043475,60.0,82.0
598,120.9577762625,121.9054501125,48.0,92.0
599,121.4810317625,121.9141710375,55.0,95.0
600,121.3066132625,121.9374268375,52.0,82.0
601,121.8298687625,122.060973275,60.0,87.0
602,122.0042872625,122.1859732,55.0,85.0
603,122.3531242625,122.63364735,57.0,81.0
604,122.3531242625,122.78917051250001,60.0,82.0
605,122.8763797625,123.0740540625,57.0,83.0
606,122.8763797625,123.2048679375,60.0,92.0
607,122.8763797625,123.2833562625,65.0,81.0
608,123.2252167625,123.3705655125,57.0,80.0
609,122.3531242625,123.549344475,41.0,82.0
610,122.7019612625,123.549344475,48.0,78.0
611,123.3996352625,123.76155365,57.0,72.0
612,123.3996352625,123.781902475,60.0,84.0
613,123.7484722625,124.3037044875,43.0,80.0
614,123.9228907625,124.3037044875,50.0,61.0
615,124.0973092625,124.31969285,55.0,88.0
616,124.2717277625,124.3880067625,58.0,95.0
617,124.7949832625,125.0420761375,57.0,90.0
618,124.9694017625,125.0827737875,61.0,92.0
619,124.4461462625,125.165622575,45.0,85.0
620,124.6205647625,125.16852955,52.0,88.0
621,125.1438202625,125.5711455875,58.0,77.0
622,125.1438202625,125.723761775,62.0,81.0
623,125.6670757625,126.095854575,58.0,83.0
624,125.1438202625,126.3487614,46.0,85.0
625,125.4926572625,126.3850985875,53.0,68.0
626,126.0159127625,126.49411015,62.0,81.0
627,126.3647497625,126.537714775,58.0,80.0
628,126.0159127625,126.6350984375,65.0,83.0
629,126.8880052625,127.4316095875,60.0,76.0
630,127.0624237625,127.44759795,64.0,95.0
631,126.7135867625,127.5711443875,55.0,70.0
632,126.5391682625,127.6045746,48.0,86.0
633,127.5856792625,127.93596975,60.0,81.0
634,127.5856792625,127.956318575,64.0,87.0
635,127.5856792625,128.002830175,67.0,81.0
636,128.4577717625,128.8443994375,57.0,83.0
637,128.8066087625,128.991201675,60.0,87.0
638,128.9810272625,129.1496318125,57.0,79.0
639,128.28335326250001,129.1554457625,52.0,79.0
640,127.9345162625,129.2397480375,45.0,83.0
641,129.3298642625,129.7441082,62.0,80.0
642,129.8531197625,129.892363925,62.0,51.0
643,129.3298642625,130.2077707125,55.0,79.0
644,129.8531197625,130.2804450875,59.0,83.0
645,129.6787012625,130.4897472875,50.0,79.0
646,129.3298642625,130.5304449375,43.0,82.0
647,130.3763752625,130.72666575,55.0,85.0
648,130.2019567625,130.79643315,67.0,82.0
649,131.2484677625,131.601665225,58.0,87.0
650,131.0740492625,131.6045722,55.0,87.0
651,131.5973047625,131.851665075,62.0,83.0
652,130.8996307625,131.9693975625,50.0,81.0
653,130.7252122625,131.9839324375,43.0,84.0
654,131.7717232625,132.090037025,55.0,81.0
655,132.4693972625,132.8443970375,57.0,83.0
656,132.6438157625,132.86329237500001,60.0,86.0
657,132.2949787625,133.08712945,52.0,77.0
658,132.9926527625,133.212129375,57.0,82.0
659,132.9926527625,133.241199125,60.0,85.0
660,132.9926527625,133.264454925,64.0,85.0
661,133.1670712625,133.433059475,52.0,83.0
662,132.1205602625,133.4664896875,45.0,83.0
663,133.5159082625,133.8720127,57.0,80.0
664,133.5159082625,133.91271035,62.0,81.0
665,134.0391637625,134.3385821875,57.0,90.0
666,134.3880007625,134.6147448125,65.0,84.0
667,133.5159082625,134.7542796125,50.0,90.0
668,134.5624192625,134.770267975,57.0,75.0
669,133.8647452625,134.7978842375,53.0,72.0
670,134.9112562625,135.2775351125,57.0,80.0
671,134.9112562625,135.293523475,62.0,79.0
672,135.4345117625,135.7193953125,57.0,82.0
673,135.4345117625,135.76590691250001,65.0,82.0
674,135.7833487625,136.0115463,57.0,86.0
675,135.9577672625,136.1350927375,62.0,83.0
676,136.1321857625,136.2688135875,57.0,82.0
677,134.9112562625,136.3589298125,50.0,85.0
678,135.2600932625,136.3618367875,53.0,71.0
679,136.8298597625,137.3720106,58.0,79.0
680,136.3066042625,137.560963975,46.0,88.0
681,136.6554412625,137.5740453625,53.0,70.0
682,137.5275337625,137.68014995,58.0,85.0
683,137.1786967625,137.8211382375,65.0,82.0
684,138.2252077625,138.5391610625,64.0,97.0
685,138.0507892625,138.5478819875,60.0,76.0
686,137.7019522625,138.93596315,48.0,86.0
687,137.8763707625,138.9548584875,55.0,64.0
688,138.9228817625,139.0885793375,60.0,79.0
689,138.5740447625,139.0885793375,67.0,72.0
690,139.4461372625,139.8531137625,62.0,76.0
691,139.6205557625,139.9432299875,69.0,85.0
692,140.1438112625,140.2688111875,62.0,82.0
693,139.0973002625,140.3589274125,50.0,86.0
694,139.2717187625,140.363287875,57.0,70.0
695,140.1438112625,140.3850901875,65.0,82.0
696,140.3182297625,140.508636625,62.0,80.0
697,140.8414852625,140.950496825,62.0,83.0
698,141.0159037625,141.2862524375,62.0,83.0
699,141.0159037625,141.3603803,69.0,82.0
700,140.6670667625,141.4112523625,57.0,70.0
701,140.4926482625,141.4534035,50.0,83.0
702,141.5391592625,141.6263685125,62.0,76.0
703,141.5391592625,141.7659033125,65.0,82.0
704,141.7135777625,141.9054381125,62.0,81.0
705,142.2368332625,142.72665855,58.0,83.0
706,142.4112517625,142.7673562,62.0,79.0
707,141.8879962625,143.0595071875,46.0,88.0
708,142.0624147625,143.078402525,53.0,76.0
709,142.7600887625,143.1670652625,65.0,82.0
710,143.1089257625,143.2659024125,58.0,85.0
711,143.6321812625,144.1176460875,60.0,70.0
712,143.8065997625,144.3443901375,64.0,83.0
713,143.2833442625,144.508634225,48.0,83.0
714,143.4577627625,144.5159016625,55.0,65.0
715,144.3298552625,144.659796925,67.0,83.0
716,144.5042737625,144.665610875,60.0,83.0
717,145.0275292625,145.2629942375,62.0,82.0
718,145.2019477625,145.485377825,65.0,83.0
719,145.5507847625,145.7077614125,69.0,90.0
720,144.6786922625,145.962121725,50.0,84.0
721,144.8531107625,145.9781100875,57.0,73.0
722,145.8996217625,146.0042728625,62.0,83.0
723,146.0740402625,146.21502855,62.0,70.0
724,146.5972957625,146.8676444375,62.0,85.0
725,146.4228772625,147.0827605875,57.0,79.0
726,146.9461327625,147.1786907625,62.0,86.0
727,146.0740402625,147.287702325,50.0,87.0
728,147.1205512625,147.4693882625,57.0,77.0
729,146.9461327625,147.473748725,69.0,83.0
730,147.9926437625,148.5347946,58.0,79.0
731,147.4693882625,148.723747975,46.0,88.0
732,147.8182252625,148.7368293625,53.0,70.0
733,148.6903177625,148.84293395,58.0,85.0
734,148.3414807625,148.9839222375,65.0,82.0
735,149.3879917625,149.7019450625,64.0,97.0
736,149.2135732625,149.7106659875,60.0,76.0
737,148.8647362625,150.09874715,48.0,86.0
738,149.0391547625,150.1176424875,55.0,64.0
739,150.0856657625,150.2513633375,60.0,79.0
740,149.7368287625,150.2513633375,67.0,72.0
741,150.6089212625,151.0158977625,62.0,76.0
742,150.7833397625,151.1060139875,69.0,85.0
743,151.3065952625,151.4315951875,62.0,82.0
744,150.2600842625,151.5217114125,50.0,86.0
745,150.4345027625,151.526071875,57.0,70.0
746,151.3065952625,151.5478741875,65.0,82.0
747,151.4810137625,151.671420625,62.0,80.0
748,152.0042692625,152.113280825,62.0,83.0
749,152.1786877625,152.4490364375,62.0,83.0
750,152.1786877625,152.5231643,69.0,82.0
751,151.8298507625,152.5740363625,57.0,70.0
752,151.6554322625,152.6161875,50.0,83.0
753,152.7019432625,152.7891525125,62.0,76.0
754,152.7019432625,152.9286873125,65.0,82.0
755,152.8763617625,153.0682221125,62.0,81.0
756,153.3996172625,153.6975822,55.0,82.0
757,153.5740357625,153.9664773875,62.0,86.0
758,153.9228727625,154.16851215,55.0,83.0
759,153.0507802625,154.2600818625,43.0,83.0
760,153.2251987625,154.27316325,50.0,76.0
761,154.0972912625,154.5565933125,62.0,81.0
762,154.7949652625,155.171418525,57.0,76.0
763,154.9693837625,155.21502315,60.0,85.0
764,155.3182207625,155.5769415375,60.0,92.0
765,155.3182207625,155.601650825,57.0,81.0
766,155.3182207625,155.630720575,64.0,88.0
767,154.6205467625,155.6990344875,52.0,77.0
768,154.4461282625,155.764441425,45.0,83.0
769,155.8414762625,156.1859528,57.0,77.0
770,155.8414762625,156.2324644,62.0,82.0
771,156.3647317625,156.6728711125,57.0,92.0
772,156.7135687625,157.008626725,65.0,86.0
773,156.8879872625,157.119091775,57.0,82.0
774,155.8414762625,157.13362665,50.0,90.0
775,156.1903132625,157.1554289625,53.0,76.0
776,157.0624057625,157.398161375,62.0,80.0
777,157.5856612625,157.8676378375,57.0,82.0
778,157.7600797625,158.1626958,62.0,83.0
779,157.2368242625,158.6089164625,50.0,83.0
780,157.4112427625,158.6147304125,53.0,74.0
781,158.2833352625,158.6278118,57.0,82.0
782,158.2833352625,158.63362575,65.0,79.0
783,158.6321722625,159.0594975875,58.0,77.0
784,158.6321722625,159.212113775,62.0,81.0
785,159.1554277625,159.584206575,58.0,83.0
786,158.6321722625,159.8371134,46.0,85.0
787,158.9810092625,159.8734505875,53.0,68.0
788,159.50426476250001,159.98246215,62.0,81.0
789,159.8531017625,160.026066775,58.0,80.0
790,159.50426476250001,160.1234504375,65.0,83.0
791,160.3763572625,160.9199615875,60.0,76.0
792,160.5507757625,160.93594995,64.0,95.0
793,160.2019387625,161.0594963875,55.0,70.0
794,160.0275202625,161.0929266,48.0,86.0
795,161.0740312625,161.42432175,60.0,81.0
796,161.0740312625,161.444670575,64.0,87.0
797,161.0740312625,161.491182175,67.0,81.0
798,161.9461237625,162.3327514375,57.0,83.0
799,162.2949607625,162.479553675,60.0,87.0
800,162.4693792625,162.6379838125,57.0,79.0
801,161.7717052625,162.64379776250001,52.0,79.0
802,161.4228682625,162.7281000375,45.0,83.0
803,162.8182162625,163.2193788125,57.0,82.0
804,162.8182162625,163.3138555,62.0,82.0
805,163.3414717625,163.7629831375,57.0,87.0
806,163.1670532625,163.8298435625,53.0,72.0
807,162.8182162625,163.840017975,50.0,87.0
808,163.6903087625,164.1234480375,65.0,84.0
809,163.8647272625,164.185948,57.0,83.0
810,164.7368197625,165.305133375,55.0,90.0
811,165.0856567625,165.3153077875,58.0,92.0
812,165.2600752625,165.4839123375,62.0,83.0
813,164.5624012625,165.4984472125,50.0,81.0
814,164.2135642625,165.5158890625,43.0,83.0
815,165.4344937625,165.5449588125,55.0,82.0
816,165.6089122625,165.88943535,55.0,87.0
817,165.6089122625,165.991179475,60.0,82.0
818,165.6089122625,166.5565861125,48.0,92.0
819,166.1321677625,166.5653070375,55.0,95.0
820,165.9577492625,166.5885628375,52.0,82.0
821,166.4810047625,166.712109275,60.0,87.0
822,166.6554232625,166.83710920000001,55.0,85.0
823,167.0042602625,167.28478335,57.0,81.0
824,167.0042602625,167.4403065125,60.0,82.0
825,167.5275157625,167.7251900625,57.0,83.0
826,167.5275157625,167.8560039375,60.0,92.0
827,167.5275157625,167.9344922625,65.0,81.0
828,167.8763527625,168.0217015125,57.0,80.0
829,167.0042602625,168.200480475,41.0,82.0
830,167.3530972625,168.200480475,48.0,78.0
831,168.0507712625,168.41268965,57.0,72.0
832,168.0507712625,168.433038475,60.0,84.0
833,168.3996082625,168.9548404875,43.0,80.0
834,168.5740267625,168.9548404875,50.0,61.0
835,168.7484452625,168.97082885,55.0,88.0
836,168.92286376250001,169.0391427625,58.0,95.0
837,169.4461192625,169.6932121375,57.0,90.0
838,169.6205377625,169.7339097875,61.0,92.0
839,169.0972822625,169.816758575,45.0,85.0
840,169.2717007625,169.81966555,52.0,88.0
841,169.7949562625,170.2222815875,58.0,77.0
842,169.7949562625,170.374897775,62.0,81.0
843,170.3182117625,170.746990575,58.0,83.0
844,169.7949562625,170.9998974,46.0,85.0
845,170.1437932625,171.0362345875,53.0,68.0
846,170.6670487625,171.14524615,62.0,81.0
847,171.0158857625,171.188850775,58.0,80.0
848,170.6670487625,171.2862344375,65.0,83.0
849,171.5391412625,172.0827455875,60.0,76.0
850,171.7135597625,172.09873395,64.0,95.0
851,171.3647227625,172.2222803875,55.0,70.0
852,171.1903042625,172.25571060000001,48.0,86.0
853,172.2368152625,172.58710575,60.0,81.0
854,172.2368152625,172.607454575,64.0,87.0
855,172.2368152625,172.653966175,67.0,81.0
856,173.1089077625,173.4955354375,57.0,83.0
857,173.4577447625,173.642337675,60.0,87.0
858,173.6321632625,173.8007678125,57.0,79.0
859,172.9344892625,173.8065817625,52.0,79.0
860,172.5856522625,173.8908840375,45.0,83.0
861,173.9810002625,174.3952442,62.0,80.0
862,174.5042557625,174.543499925,62.0,51.0
863,173.9810002625,174.8589067125,55.0,79.0
864,174.5042557625,174.9315810875,59.0,83.0
865,174.3298372625,175.1408832875,50.0,79.0
866,173.9810002625,175.1815809375,43.0,82.0
867,175.0275112625,175.37780175,55.0,85.0
868,174.8530927625,175.44756915,67.0,82.0
869,175.8996037625,176.252801225,58.0,87.0
870,175.7251852625,176.2557082,55.0,87.0
871,176.2484407625,176.502801075,62.0,83.0
872,175.5507667625,176.62053356250001,50.0,81.0
873,175.3763482625,176.6350684375,43.0,84.0
874,176.4228592625,176.741173025,55.0,81.0
875,177.1205332625,177.4955330375,57.0,83.0
876,177.2949517625,177.514428375,60.0,86.0
877,176.9461147625,177.73826545,52.0,77.0
878,177.6437887625,177.863265375,57.0,82.0
879,177.6437887625,177.892335125,60.0,85.0
880,177.6437887625,177.915590925,64.0,85.0
881,177.8182072625,178.084195475,52.0,83.0
882,176.7716962625,178.1176256875,45.0,83.0
883,178.1670442625,178.5231487,57.0,80.0
884,178.1670442625,178.56384635,62.0,81.0
885,178.6902997625,178.9897181875,57.0,90.0
886,179.0391367625,179.2658808125,65.0,84.0
887,178.1670442625,179.4054156125,50.0,90.0
888,179.2135552625,179.421403975,57.0,75.0
889,178.5158812625,179.4490202375,53.0,72.0
890,179.5623922625,179.9286711125,57.0,80.0
891,179.5623922625,179.944659475,62.0,79.0
892,180.0856477625,180.3705313125,57.0,82.0
893,180.0856477625,180.4170429125,65.0,82.0
894,180.4344847625,180.6626823,57.0,86.0
895,180.6089032625,180.7862287375,62.0,83.0
896,180.7833217625,180.9199495875,57.0,82.0
897,179.5623922625,181.0100658125,50.0,85.0
898,179.9112292625,181.0129727875,53.0,71.0
899,180.9577402625,181.3719842,58.0,80.0
900,180.9577402625,181.5216934125,62.0,83.0
901,181.4809957625,181.9083210875,58.0,88.0
902,180.9577402625,182.008611725,46.0,88.0
903,181.8298327625,182.0275070625,62.0,85.0
904,181.3065772625,182.0420419375,53.0,79.0
905,181.8298327625,182.1612279125,65.0,81.0
906,182.3530882625,182.7019252625,60.0,80.0
907,182.3530882625,182.729541525,64.0,83.0
908,182.8763437625,183.1321575625,60.0,90.0
909,182.3530882625,183.3138435,48.0,87.0
910,182.7019252625,183.31965745,55.0,81.0
911,183.2251807625,183.4286690125,60.0,87.0
912,183.2251807625,183.438843425,64.0,88.0
913,183.7484362625,183.93593615,38.0,83.0
914,183.7484362625,184.328377775,62.0,83.0
915,183.7484362625,184.380703325,65.0,82.0
916,184.6205287625,184.8952379,62.0,82.0
917,184.2716917625,184.933028575,57.0,80.0
918,184.6205287625,184.99407505,65.0,82.0
919,184.0972732625,185.13360985,50.0,83.0
920,184.9693657625,185.1408772875,57.0,67.0
921,185.1437842625,185.520237525,62.0,83.0
922,185.1437842625,185.5623886625,65.0,85.0
923,185.6670397625,186.1728534125,57.0,78.0
924,185.4926212625,186.24988825,50.0,82.0
925,186.0158767625,186.2833184625,62.0,92.0
926,186.1902952625,186.4548299875,65.0,77.0
927,186.3647137625,186.560934575,62.0,83.0
928,187.0623877625,187.4926200625,55.0,85.0
929,187.4112247625,187.6234339375,58.0,97.0
930,186.8879692625,187.700468775,50.0,82.0
931,186.5391322625,187.7775036125,43.0,82.0
932,187.5856432625,187.7891315125,62.0,79.0
933,187.9344802625,188.310933525,60.0,85.0
934,187.9344802625,188.3123870125,55.0,83.0
935,188.4577357625,188.6873867875,55.0,87.0
936,188.4577357625,188.79639835,60.0,88.0
937,188.4577357625,188.9751773125,64.0,86.0
938,188.2833172625,188.9809912625,52.0,76.0
939,187.9344802625,189.0071540375,48.0,84.0
940,188.8065727625,189.0478516875,55.0,83.0
941,188.9809912625,189.206281825,60.0,85.0
942,189.3298282625,189.6786652625,57.0,83.0
943,189.3298282625,189.7251768625,60.0,85.0
944,189.8530837625,190.05221155,57.0,84.0
945,189.8530837625,190.1045371,60.0,90.0
946,189.8530837625,190.2222695875,65.0,83.0
947,190.2019207625,190.374885775,60.0,86.0
948,190.3763392625,190.6118042375,57.0,83.0
949,189.3298282625,190.62197865,41.0,82.0
950,189.6786652625,190.6394205,48.0,77.0
951,190.5507577625,190.677211175,60.0,81.0
952,190.7251762625,190.9897109875,55.0,84.0
953,190.7251762625,191.101629525,62.0,83.0
954,190.8995947625,191.1975597,50.0,82.0
955,190.7251762625,191.20337365,43.0,83.0
956,191.0740132625,191.2309899125,55.0,88.0
957,191.4228502625,191.6583152375,57.0,81.0
958,191.4228502625,191.7484314625,64.0,83.0
959,191.7716872625,192.0231406,57.0,87.0
960,191.5972687625,192.0943614875,52.0,83.0
961,191.4228502625,192.119070775,45.0,83.0
962,191.9461057625,192.13360565,64.0,92.0
963,192.1205242625,192.5187798375,58.0,79.0
964,192.1205242625,192.66122161250001,62.0,83.0
965,192.1205242625,193.002791175,46.0,95.0
966,192.4693612625,193.049302775,53.0,81.0
967,192.6437797625,193.0580237,58.0,86.0
968,192.9926167625,193.23825615,62.0,81.0
969,193.1670352625,193.7106395875,65.0,81.0
970,194.0391277625,194.2571508875,64.0,87.0
971,193.8647092625,194.2600578625,60.0,81.0
972,193.6902907625,194.418488,55.0,80.0
973,193.5158722625,194.444650775,48.0,84.0
974,194.3879647625,194.6059878875,64.0,86.0
975,194.3879647625,194.6394181,67.0,80.0
976,194.3879647625,194.6612204125,60.0,82.0
977,194.9112202625,194.9431969875,43.0,78.0
978,194.9112202625,195.258603775,57.0,79.0
979,194.9112202625,195.3443595375,60.0,79.0
980,195.4344757625,195.8995917625,57.0,87.0
981,195.7833127625,196.0187777375,60.0,85.0
982,194.9112202625,196.136510225,45.0,76.0
983,195.9577312625,196.1394172,57.0,81.0
984,195.2600572625,196.1437776625,52.0,81.0
985,196.3065682625,196.6873819875,55.0,81.0
986,196.3065682625,196.6931959375,59.0,81.0
987,196.8298237625,197.0943584875,55.0,83.0
988,196.8298237625,197.101625925,62.0,84.0
989,197.1786607625,197.3152885875,55.0,85.0
990,197.1786607625,197.4141257375,59.0,83.0
991,196.3065682625,197.5362186875,43.0,82.0
992,197.3530792625,197.5536605375,55.0,82.0
993,196.6554052625,197.6118000375,50.0,74.0
994,197.7019162625,198.4228460625,58.0,75.0
995,197.7019162625,198.584183175,55.0,81.0
996,198.2251717625,198.6379622125,62.0,82.0
997,197.7019162625,198.816741175,43.0,84.0
998,198.0507532625,198.8414504625,50.0,75.0
999,198.7484272625,198.9301132,55.0,84.0
1000,198.5740087625,199.0812759,67.0,82.0
1001,199.0972642625,199.4344733625,57.0,80.0
1002,199.0972642625,199.5115082,60.0,79.0
1003,199.6205197625,199.8617986875,57.0,87.0
1004,199.7949382625,200.026042775,64.0,87.0
1005,199.9693567625,200.183019425,57.0,82.0
1006,200.14377526250001,200.339996075,60.0,82.0
1007,199.4461012625,200.3792402375,52.0,80.0
1008,199.0972642625,200.40249603750001,45.0,83.0
1009,200.3181937625,200.4751704125,57.0,77.0
1010,200.4926122625,200.7164493375,57.0,80.0
1011,200.4926122625,200.8952283,62.0,84.0
1012,201.0158677625,201.43447216250001,65.0,84.0
1013,201.3647047625,201.5347628,57.0,86.0
1014,200.4926122625,201.7309836125,50.0,85.0
1015,200.8414492625,201.7309836125,53.0,67.0
1016,201.5391232625,201.7571463875,62.0,81.0
1017,201.7135417625,201.81964635,57.0,81.0
1018,201.8879602625,202.2440647,57.0,83.0
1019,201.8879602625,202.2774949125,62.0,82.0
1020,202.4112157625,202.6626691,57.0,86.0
1021,202.4112157625,202.8094713375,62.0,87.0
1022,202.4112157625,202.9867968125,65.0,88.0
1023,202.7600527625,202.9926107625,57.0,85.0
1024,202.9344712625,203.194645525,62.0,82.0
1025,203.1088897625,203.2455175875,57.0,82.0
1026,201.8879602625,203.3240059125,50.0,95.0
1027,202.2367972625,203.3254594,53.0,75.0
1028,203.28330826250001,203.6975522,58.0,80.0
1029,203.28330826250001,203.8472614125,62.0,83.0
1030,203.8065637625,204.2338890875,58.0,88.0
1031,203.28330826250001,204.334179725,46.0,88.0
1032,204.1554007625,204.3530750625,62.0,85.0
1033,203.6321452625,204.3676099375,53.0,79.0
1034,204.1554007625,204.4867959125,65.0,81.0
1035,204.6786562625,205.0274932625,60.0,80.0
1036,204.6786562625,205.055109525,64.0,83.0
1037,205.2019117625,205.4577255625,60.0,90.0
1038,204.6786562625,205.6394115,48.0,87.0
1039,205.0274932625,205.64522545,55.0,81.0
1040,205.5507487625,205.7542370125,60.0,87.0
1041,205.5507487625,205.764411425,64.0,88.0
1042,206.0740042625,206.26150415,38.0,83.0
1043,206.0740042625,206.653945775,62.0,83.0
1044,206.0740042625,206.706271325,65.0,82.0
1045,206.9460967625,207.2208059,62.0,82.0
1046,206.5972597625,207.258596575,57.0,80.0
1047,206.9460967625,207.31964305,65.0,82.0
1048,206.42284126250001,207.45917785,50.0,83.0
1049,207.2949337625,207.4664452875,57.0,67.0
1050,207.4693522625,207.845805525,62.0,83.0
1051,207.4693522625,207.8879566625,65.0,85.0
1052,207.9926077625,208.4984214125,57.0,78.0
1053,207.8181892625,208.57545625,50.0,82.0
1054,208.3414447625,208.6088864625,62.0,92.0
1055,208.5158632625,208.7803979875,65.0,77.0
1056,208.6902817625,208.886502575,62.0,83.0
1057,209.3879557625,209.8181880625,55.0,85.0
1058,209.7367927625,209.94900193750001,58.0,97.0
1059,209.2135372625,210.026036775,50.0,82.0
1060,208.8647002625,210.1030716125,43.0,82.0
1061,209.9112112625,210.1146995125,62.0,79.0
1062,210.2600482625,210.636501525,60.0,85.0
1063,210.2600482625,210.6379550125,55.0,83.0
1064,210.7833037625,211.0129547875,55.0,87.0
1065,210.7833037625,211.12196635,60.0,88.0
1066,210.7833037625,211.3007453125,64.0,86.0
1067,210.6088852625,211.3065592625,52.0,76.0
1068,210.2600482625,211.3327220375,48.0,84.0
1069,211.1321407625,211.3734196875,55.0,83.0
1070,211.3065592625,211.531849825,60.0,85.0
1071,211.6553962625,212.0042332625,57.0,83.0
1072,211.6553962625,212.0507448625,60.0,85.0
1073,212.1786517625,212.37777955,57.0,84.0
1074,212.1786517625,212.4301051,60.0,90.0
1075,212.1786517625,212.5478375875,65.0,83.0
1076,212.5274887625,212.700453775,60.0,86.0
1077,212.70190726250001,212.9373722375,57.0,83.0
1078,211.6553962625,212.94754665,41.0,82.0
1079,212.0042332625,212.9649885,48.0,77.0
1080,212.8763257625,213.002779175,60.0,81.0
1081,213.0507442625,213.3152789875,55.0,84.0
1082,213.0507442625,213.427197525,62.0,83.0
1083,213.2251627625,213.5231277,50.0,82.0
1084,213.0507442625,213.52894165,43.0,83.0
1085,213.3995812625,213.5565579125,55.0,88.0
1086,213.7484182625,213.9838832375,57.0,81.0
1087,213.7484182625,214.0739994625,64.0,83.0
1088,214.0972552625,214.3487086,57.0,87.0
1089,213.9228367625,214.4199294875,52.0,83.0
1090,213.7484182625,214.444638775,45.0,83.0
1091,214.2716737625,214.45917365,64.0,92.0
1092,214.4460922625,214.8443478375,58.0,79.0
1093,214.4460922625,214.9867896125,62.0,83.0
1094,214.4460922625,215.328359175,46.0,95.0
1095,214.7949292625,215.374870775,53.0,81.0
1096,214.9693477625,215.3835917,58.0,86.0
1097,215.3181847625,215.56382415,62.0,81.0
1098,215.4926032625,216.0362075875,65.0,81.0
1099,216.3646957625,216.5827188875,64.0,87.0
1100,216.1902772625,216.5856258625,60.0,81.0
1101,216.0158587625,216.744056,55.0,80.0
1102,215.8414402625,216.770218775,48.0,84.0
1103,216.7135327625,216.9315558875,64.0,86.0
1104,216.7135327625,216.9649861,67.0,80.0
1105,216.7135327625,216.9867884125,60.0,82.0
1106,217.2367882625,217.2687649875,43.0,78.0
1107,217.2367882625,217.584171775,57.0,79.0
1108,217.2367882625,217.6699275375,60.0,79.0
1109,217.7600437625,218.2251597625,57.0,87.0
1110,218.1088807625,218.3443457375,60.0,85.0
1111,217.2367882625,218.462078225,45.0,76.0
1112,218.2832992625,218.4649852,57.0,81.0
1113,217.5856252625,218.4693456625,52.0,81.0
1114,218.6321362625,219.0129499875,55.0,81.0
1115,218.6321362625,219.0187639375,59.0,81.0
1116,219.1553917625,219.4199264875,55.0,83.0
1117,219.1553917625,219.427193925,62.0,84.0
1118,219.5042287625,219.6408565875,55.0,85.0
1119,219.5042287625,219.7396937375,59.0,83.0
1120,218.6321362625,219.8617866875,43.0,82.0
1121,219.6786472625,219.8792285375,55.0,82.0
1122,218.9809732625,219.9373680375,50.0,74.0
1123,220.0274842625,220.7484140625,58.0,75.0
1124,220.0274842625,220.909751175,55.0,81.0
1125,220.5507397625,220.9635302125,62.0,82.0
1126,220.0274842625,221.142309175,43.0,84.0
1127,220.3763212625,221.1670184625,50.0,75.0
1128,221.0739952625,221.2556812,55.0,84.0
1129,220.8995767625,221.4068439,67.0,82.0
1130,221.4228322625,221.7600413625,57.0,80.0
1131,221.4228322625,221.8370762,60.0,79.0
1132,221.9460877625,222.1873666875,57.0,87.0
1133,222.1205062625,222.351610775,64.0,87.0
1134,222.2949247625,222.508587425,57.0,82.0
1135,222.4693432625,222.665564075,60.0,82.0
1136,221.7716692625,222.7048082375,52.0,80.0
1137,221.4228322625,222.7280640375,45.0,83.0
1138,222.6437617625,222.8007384125,57.0,77.0
1139,222.8181802625,223.0420173375,57.0,80.0
1140,222.8181802625,223.2207963,62.0,84.0
1141,223.3414357625,223.7600401625,65.0,84.0
1142,223.6902727625,223.8603308,57.0,86.0
1143,222.8181802625,224.0565516125,50.0,85.0
1144,223.1670172625,224.0565516125,53.0,67.0
1145,223.8646912625,224.0827143875,62.0,81.0
1146,224.0391097625,224.14521435,57.0,81.0
1147,224.2135282625,224.5696327,57.0,83.0
1148,224.2135282625,224.6030629125,62.0,82.0
1149,224.7367837625,224.9882371,57.0,86.0
1150,224.7367837625,225.1350393375,62.0,87.0
1151,224.7367837625,225.3123648125,65.0,88.0
1152,225.0856207625,225.3181787625,57.0,85.0
1153,225.2600392625,225.520213525,62.0,82.0
1154,225.4344577625,225.5710855875,57.0,82.0
1155,224.2135282625,225.6495739125,50.0,95.0
1156,224.5623652625,225.6510274,53.0,75.0
1157,226.1321317625,226.6742826,58.0,79.0
1158,225.6088762625,226.863235975,46.0,88.0
1159,225.9577132625,226.8763173625,53.0,70.0
1160,226.8298057625,226.98242195,58.0,85.0
1161,226.4809687625,227.1234102375,65.0,82.0
1162,227.5274797625,227.8414330625,64.0,97.0
1163,227.3530612625,227.8501539875,60.0,76.0
1164,227.0042242625,228.23823515,48.0,86.0
1165,227.1786427625,228.2571304875,55.0,64.0
1166,228.2251537625,228.3908513375,60.0,79.0
1167,227.8763167625,228.3908513375,67.0,72.0
1168,228.7484092625,229.1553857625,62.0,76.0
1169,228.9228277625,229.2455019875,69.0,85.0
1170,229.4460832625,229.5710831875,62.0,82.0
1171,228.3995722625,229.6611994125,50.0,86.0
1172,228.5739907625,229.665559875,57.0,70.0
1173,229.4460832625,229.6873621875,65.0,82.0
1174,229.6205017625,229.810908625,62.0,80.0
1175,230.1437572625,230.252768825,62.0,83.0
1176,230.3181757625,230.5885244375,62.0,83.0
1177,230.3181757625,230.6626523,69.0,82.0
1178,229.9693387625,230.7135243625,57.0,70.0
1179,229.7949202625,230.7556755,50.0,83.0
1180,230.8414312625,230.9286405125,62.0,76.0
1181,230.8414312625,231.0681753125,65.0,82.0
1182,231.0158497625,231.2077101125,62.0,81.0
1183,231.5391052625,231.8370702,55.0,82.0
1184,231.7135237625,232.1059653875,62.0,86.0
1185,232.0623607625,232.30800015,55.0,83.0
1186,231.1902682625,232.3995698625,43.0,83.0
1187,231.3646867625,232.41265125,50.0,76.0
1188,232.2367792625,232.6960813125,62.0,81.0
1189,232.9344532625,233.310906525,57.0,76.0
1190,233.1088717625,233.35451115,60.0,85.0
1191,233.4577087625,233.7164295375,60.0,92.0
1192,233.4577087625,233.741138825,57.0,81.0
1193,233.4577087625,233.770208575,64.0,88.0
1194,232.7600347625,233.8385224875,52.0,77.0
1195,232.5856162625,233.903929425,45.0,83.0
1196,233.9809642625,234.3254408,57.0,77.0
1197,233.9809642625,234.3719524,62.0,82.0
1198,234.50421976250001,234.8123591125,57.0,92.0
1199,234.8530567625,235.148114725,65.0,86.0
1200,235.0274752625,235.258579775,57.0,82.0
1201,233.9809642625,235.27311465,50.0,90.0
1202,234.3298012625,235.2949169625,53.0,76.0
1203,235.2018937625,235.537649375,62.0,80.0
1204,235.7251492625,236.0071258375,57.0,82.0
1205,235.8995677625,236.3021838,62.0,83.0
1206,235.3763122625,236.7484044625,50.0,83.0
1207,235.5507307625,236.7542184125,53.0,74.0
1208,236.4228232625,236.7672998,57.0,82.0
1209,236.66846265,236.7672998,57.0,69.0
1210,236.4228232625,236.77311375,65.0,79.0
1211,236.7091603,237.700438775,38.0,67.0
1212,236.799276525,237.9300898,65.0,71.0
1213,236.7309626125,237.9489851375,62.0,74.0
