,start,end,pitch,velocity
0,38.071216631249996,38.2499547375,65.0,86.0
1,38.35159013125,38.52682356875,63.0,88.0
2,38.631963631249995,38.821215743749995,65.0,90.0
3,38.91233713125,39.07588833958333,63.0,90.0
4,39.19271063125,39.86794347708333,65.0,95.0
5,40.03383113125,40.191541225,63.0,84.0
6,40.31420463125,40.466073610416665,65.0,86.0
7,40.594578131249996,40.758129339583334,63.0,86.0
8,40.87495163125,41.0466804,65.0,88.0
9,41.155325131249995,41.359764141666666,63.0,83.0
10,41.43569863125,42.126118375,65.0,88.0
11,42.55719263125,42.723080285416664,65.0,85.0
12,42.83756613125,43.031491135416665,63.0,86.0
13,43.117939631249996,43.2966777375,65.0,87.0
14,43.39831313125,43.58756524375,63.0,85.0
15,43.678686631249995,44.100415104166665,65.0,86.0
16,44.23943363125,44.46490065416666,61.0,85.0
17,44.51980713125,44.72190969583333,63.0,85.0
18,44.80018063125,44.978918737499995,65.0,84.0
19,45.08055413125,45.26046046041667,63.0,85.0
20,45.36092763125,45.52681528541667,65.0,85.0
21,45.641301131249996,45.831721466666664,63.0,86.0
22,45.92167463125,46.51279542708333,65.0,85.0
23,47.04316863125,47.295504781249996,63.0,82.0
24,47.32354213125,47.55485026875,61.0,79.0
25,47.60391563125,47.89129846875,63.0,85.0
26,47.88428913125,48.09340103333333,61.0,81.0
27,48.164662631249996,48.47190525833333,63.0,86.0
28,48.44503613125,48.63312002083333,61.0,85.0
29,48.725409631249995,49.01279246875,63.0,86.0
30,49.00578313125,49.18335301458333,61.0,83.0
31,49.28615663125,49.54199745,63.0,88.0
32,49.56653013125,49.7873242625,61.0,87.0
33,49.84690363125,50.26980032708333,65.0,86.0
34,50.40765063125,50.59807096666667,58.0,85.0
35,50.688024131249996,51.57236887916667,61.0,88.0
36,52.08989163125,52.48241453125,65.0,88.0
37,52.65063863125,52.849236527083335,58.0,84.0
38,52.93101213125,54.28147782291666,61.0,85.0
39,56.01512063125,56.1938587375,65.0,86.0
40,56.295494131249995,56.47072756875,63.0,88.0
41,56.57586763125,56.76511974375,65.0,90.0
42,56.856241131249995,57.01979233958333,63.0,90.0
43,57.13661463125,57.81184747708333,65.0,95.0
44,57.97773513125,58.135445225,63.0,84.0
45,58.258108631249996,58.40997761041667,65.0,86.0
46,58.53848213125,58.70203333958333,63.0,86.0
47,58.818855631249995,58.990584399999996,65.0,88.0
48,59.09922913125,59.30366814166666,63.0,83.0
49,59.379602631249995,60.070022375,65.0,88.0
50,60.50109663125,60.66698428541667,65.0,85.0
51,60.781470131249996,60.97539513541666,63.0,86.0
52,61.06184363125,61.2405817375,65.0,87.0
53,61.342217131249996,61.531469243749996,63.0,85.0
54,61.62259063125,62.04431910416667,65.0,86.0
55,62.18333763125,62.408804654166666,61.0,85.0
56,62.46371113125,62.66581369583333,63.0,85.0
57,62.74408463125,62.9228227375,65.0,84.0
58,63.02445813125,63.20436446041666,63.0,85.0
59,63.304831631249996,63.47071928541666,65.0,85.0
60,63.58520513125,63.77562546666667,63.0,86.0
61,63.865578631249996,64.45669942708334,65.0,85.0
62,64.98707263125,65.23940878124999,63.0,82.0
63,65.26744613125,65.49875426874999,61.0,79.0
64,65.54781963125,65.83520246875,63.0,85.0
65,65.82819313125,66.03730503333333,61.0,81.0
66,66.10856663125,66.41580925833333,63.0,86.0
67,66.38894013125,66.57702402083333,61.0,85.0
68,66.66931363124999,66.95669646875,63.0,86.0
69,66.94968713125,67.12725701458334,61.0,83.0
70,67.23006063125,67.48590145,63.0,88.0
71,67.51043413125,67.7312282625,61.0,87.0
72,67.79080763125,68.21370432708333,65.0,86.0
73,68.35155463125,68.54197496666666,58.0,85.0
74,68.63192813124999,69.51627287916666,61.0,88.0
75,70.03379563125,70.42631853125,65.0,88.0
76,70.59454263125,70.79314052708334,58.0,84.0
77,70.87491613125,72.22538182291666,61.0,85.0
78,73.95902463125,74.18332343125,73.0,84.0
79,74.23939813125,74.48005205208334,72.0,86.0
80,74.51977163125,74.7405657625,73.0,86.0
81,74.80014513124999,74.9648645625,72.0,88.0
82,75.08051863125,75.26392962916667,73.0,89.0
83,75.36089213125,75.50224710416667,72.0,90.0
84,75.64126563125,75.82934952083333,73.0,90.0
85,75.92163913125,76.06416232708334,72.0,88.0
86,76.20201263125,76.37023673125,73.0,89.0
87,76.48238613125,76.66579712916666,72.0,91.0
88,76.76275963124999,77.19266566458333,75.0,93.0
89,77.32350663125,77.49757184583333,72.0,90.0
90,77.60388013125,78.25574851875,73.0,88.0
91,78.44500063125,78.66112187083333,73.0,86.0
92,78.72537413124999,78.89243000833333,72.0,85.0
93,79.00574763125,79.2545791125,73.0,91.0
94,79.28612113125,79.46953212916667,72.0,86.0
95,79.56649463125,79.83401767916666,73.0,89.0
96,79.84686813124999,80.060652925,72.0,86.0
97,80.12724163125,80.37373666666666,73.0,88.0
98,80.40761513125,80.62139992499999,72.0,85.0
99,80.68798863125,80.85037161666666,73.0,88.0
100,80.96836213125,81.16228713541666,75.0,91.0
101,81.24873563125,81.66228654375,77.0,91.0
102,81.80948263124999,82.02209920208333,73.0,86.0
103,82.08985613125,84.68447922916667,80.0,88.0
104,85.17396463125,85.63658090625,73.0,90.0
105,85.73471163125,86.1938232375,80.0,86.0
106,86.29545863125,86.46601917708333,82.0,86.0
107,86.57583213125,87.1611118125,77.0,85.0
108,87.13657913125,89.55480056875,75.0,90.0
109,89.94031413124999,90.13540735833332,68.0,84.0
110,90.22068763125,90.45900510625,77.0,91.0
111,90.50106113125,90.65526655625,75.0,95.0
112,90.78143463125,90.95433162291667,73.0,90.0
113,91.06180813125,91.55830287083333,77.0,91.0
114,91.62255513125,92.3199842125,70.0,90.0
115,92.46367563125,92.68914265416666,77.0,91.0
116,92.74404913125,92.86437609166666,75.0,93.0
117,93.02442263124999,93.24404853958333,73.0,90.0
118,93.30479613125,93.66460878958333,77.0,91.0
119,93.86554313124999,94.50572928958333,75.0,98.0
120,94.70666363125,94.98937357708333,75.0,95.0
121,94.98703713124999,95.23820505833334,73.0,85.0
122,95.26741063125,95.49871876875,72.0,88.0
123,95.54778413125,96.02558730416666,75.0,98.0
124,96.10853113125,96.35853083541666,73.0,91.0
125,96.38890463125,96.62021276875,72.0,88.0
126,96.66927813125,97.13306262916666,75.0,95.0
127,97.23002513125,97.37722121875,80.0,86.0
128,97.51039863125,97.68446384583333,80.0,90.0
129,97.79077213125,98.31296777499999,75.0,91.0
130,98.35151913125,98.95432215625,73.0,85.0
131,98.91226613125,98.95432215625,73.0,76.0
132,99.19263963125,99.39707864166667,73.0,86.0
133,99.47301313125,99.71833994375,72.0,88.0
134,99.75338663125,99.97184431666666,70.0,85.0
135,100.03376013124999,100.56179688958333,73.0,88.0
136,101.15525413124999,101.33282401458332,73.0,85.0
137,101.43562763125,101.67511332916666,73.0,89.0
138,101.71600113125,101.97067372708332,72.0,91.0
139,101.99637463124999,102.23819677499999,70.0,86.0
140,102.27674813125,103.01740146041666,73.0,88.0
141,103.39824213125,103.61553159374999,73.0,90.0
142,103.67861563125,103.89240042499999,73.0,91.0
143,103.95898913125,104.1657645875,72.0,86.0
144,104.23936263125,104.38655871875,73.0,86.0
145,104.51973613125,104.73585737083333,75.0,88.0
146,104.80010963125,105.3152959375,78.0,85.0
147,105.36085663125,105.54426762916667,77.0,88.0
148,105.64123013125,106.12604264166666,77.0,88.0
149,106.20197713124999,106.40641614166667,75.0,89.0
150,106.48235063125,106.65758406875,73.0,91.0
151,106.76272413125,107.7124893625,77.0,91.0
152,107.88421813125,108.07931135833333,77.0,84.0
153,108.16459163124999,108.40290910625,77.0,91.0
154,108.44496513125,108.59917055625,75.0,95.0
155,108.72533863125,108.89823562291666,73.0,90.0
156,109.00571213125,109.50220687083333,77.0,91.0
157,109.56645913125,110.26388821249999,70.0,90.0
158,110.40757963125,110.63304665416666,77.0,91.0
159,110.68795313125,110.80828009166666,75.0,93.0
160,110.96832663125,111.18795253958334,73.0,90.0
161,111.24870013124999,111.60851278958333,77.0,91.0
162,111.80944713125,112.44963328958333,75.0,98.0
163,112.65056763125,112.93327757708333,75.0,95.0
164,112.93094113125,113.18210905833332,73.0,85.0
165,113.21131463124999,113.44262276875,72.0,88.0
166,113.49168813125,113.96949130416667,75.0,98.0
167,114.05243513125,114.30243483541666,73.0,91.0
168,114.33280863124999,114.56411676875,72.0,88.0
169,114.61318213125,115.07696662916666,75.0,95.0
170,115.17392913124999,115.32112521875,80.0,86.0
171,115.45430263125,115.62836784583332,80.0,90.0
172,115.73467613125,116.256871775,75.0,91.0
173,116.29542313124999,116.85617013125,73.0,85.0
174,116.85617013125,116.98233820624999,68.0,76.0
175,117.13654363124999,117.34098264166666,80.0,86.0
176,117.41691713125,117.66224394375,80.0,88.0
177,117.69729063125,117.91574831666667,80.0,85.0
178,117.97766413125,118.19612181666666,80.0,85.0
179,118.25803763124999,118.78607438958333,80.0,88.0
180,118.81878463125,118.99635451458333,78.0,85.0
181,119.09915813125,119.65990513125,78.0,89.0
182,119.94027863125,120.19495122708332,73.0,91.0
183,120.22065213124999,120.46247427499999,75.0,86.0
184,120.50102563125,121.24167896041666,77.0,88.0
185,121.34214613124999,121.55943559375,78.0,90.0
186,121.62251963125,121.90289313125,77.0,91.0
187,121.90289313125,122.1096685875,75.0,86.0
188,122.18326663124999,122.39938787083332,73.0,88.0
189,122.46364013125,122.97882643749999,75.0,85.0
190,123.02438713125,124.98700163125,73.0,88.0
191,141.24866463125,141.4274027375,65.0,86.0
192,141.52903813125,141.70427156875,63.0,88.0
193,141.80941163125,141.99866374375,65.0,90.0
194,142.08978513124998,142.25333633958334,63.0,90.0
195,142.37015863125,143.04539147708334,65.0,95.0
196,143.21127913125,143.368989225,63.0,84.0
197,143.49165263125,143.64352161041666,65.0,86.0
198,143.77202613125,143.93557733958332,63.0,86.0
199,144.05239963124998,144.22412839999998,65.0,88.0
200,144.33277313125,144.53721214166666,63.0,83.0
201,144.61314663125,145.303566375,65.0,88.0
202,145.73464063125,145.90052828541667,65.0,85.0
203,146.01501413124998,146.20893913541667,63.0,86.0
204,146.29538763125,146.4741257375,65.0,87.0
205,146.57576113125,146.76501324375,63.0,85.0
206,146.85613463125,147.27786310416667,65.0,86.0
207,147.41688163125,147.64234865416665,61.0,85.0
208,147.69725513125,147.89935769583332,63.0,85.0
209,147.97762863124998,148.1563667375,65.0,84.0
210,148.25800213124998,148.43790846041665,63.0,85.0
211,148.53837563125,148.70426328541666,65.0,85.0
212,148.81874913125,149.00916946666666,63.0,86.0
213,149.09912263125,149.69024342708332,65.0,85.0
214,150.22061663124998,150.47295278125,63.0,82.0
215,150.50099013125,150.73229826875,61.0,79.0
216,150.78136363125,151.06874646875,63.0,85.0
217,151.06173713125,151.27084903333332,61.0,81.0
218,151.34211063125,151.64935325833332,63.0,86.0
219,151.62248413125,151.81056802083333,61.0,85.0
220,151.90285763125,152.19024046875,63.0,86.0
221,152.18323113124998,152.36080101458333,61.0,83.0
222,152.46360463125,152.71944545,63.0,88.0
223,152.74397813125,152.9647722625,61.0,87.0
224,153.02435163125,153.44724832708332,65.0,86.0
225,153.58509863125,153.77551896666665,58.0,85.0
226,153.86547213125,154.74981687916667,61.0,88.0
227,155.26733963125,155.65986253124998,65.0,88.0
228,155.82808663125,156.02668452708332,58.0,84.0
229,156.10846013124998,157.45892582291665,61.0,85.0
230,159.19256863125,159.3713067375,65.0,86.0
231,159.47294213125,159.64817556875,63.0,88.0
232,159.75331563125,159.94256774375,65.0,90.0
233,160.03368913125,160.19724033958332,63.0,90.0
234,160.31406263124998,160.98929547708332,65.0,95.0
235,161.15518313125,161.31289322499998,63.0,84.0
236,161.43555663125,161.58742561041666,65.0,86.0
237,161.71593013125,161.87948133958332,63.0,86.0
238,161.99630363125,162.1680324,65.0,88.0
239,162.27667713124998,162.48111614166666,63.0,83.0
240,162.55705063125,163.247470375,65.0,88.0
241,163.67854463125,163.84443228541667,65.0,85.0
242,163.95891813125,164.15284313541667,63.0,86.0
243,164.23929163124998,164.4180297375,65.0,87.0
244,164.51966513125,164.70891724375,63.0,85.0
245,164.80003863125,165.22176710416667,65.0,86.0
246,165.36078563125,165.58625265416666,61.0,85.0
247,165.64115913125,165.84326169583332,63.0,85.0
248,165.92153263125,166.10027073749998,65.0,84.0
249,166.20190613124998,166.38181246041665,63.0,85.0
250,166.48227963124998,166.64816728541666,65.0,85.0
251,166.76265313125,166.95307346666667,63.0,86.0
252,167.04302663125,167.63414742708332,65.0,85.0
253,168.16452063124999,168.41685678125,63.0,82.0
254,168.44489413124998,168.67620226875,61.0,79.0
255,168.72526763125,169.01265046875,63.0,85.0
256,169.00564113125,169.21475303333332,61.0,81.0
257,169.28601463125,169.59325725833332,63.0,86.0
258,169.56638813125,169.75447202083333,61.0,85.0
259,169.84676163125,170.13414446874998,63.0,86.0
260,170.12713513125,170.30470501458333,61.0,83.0
261,170.40750863124998,170.66334945,63.0,88.0
262,170.68788213125,170.9086762625,61.0,87.0
263,170.96825563125,171.39115232708332,65.0,86.0
264,171.52900263125,171.71942296666666,58.0,85.0
265,171.80937613125,172.69372087916665,61.0,88.0
266,173.21124363125,173.60376653125,65.0,88.0
267,173.77199063125,173.97058852708332,58.0,84.0
268,174.05236413125,175.40282982291666,61.0,85.0
269,177.13647263125,177.36077143125,73.0,84.0
270,177.41684613125,177.65750005208332,72.0,86.0
271,177.69721963125,177.91801376249998,73.0,86.0
272,177.97759313125,178.1423125625,72.0,88.0
273,178.25796663124999,178.44137762916665,73.0,89.0
274,178.53834013124998,178.67969510416665,72.0,90.0
275,178.81871363125,179.00679752083332,73.0,90.0
276,179.09908713125,179.24161032708332,72.0,88.0
277,179.37946063125,179.54768473125,73.0,89.0
278,179.65983413125,179.84324512916666,72.0,91.0
279,179.94020763125,180.37011366458333,75.0,93.0
280,180.50095463124998,180.67501984583333,72.0,90.0
281,180.78132813125,181.43319651874998,73.0,88.0
282,181.62244863125,181.83856987083334,73.0,86.0
283,181.90282213125,182.06987800833332,72.0,85.0
284,182.18319563125,182.43202711249998,73.0,91.0
285,182.46356913124998,182.64698012916665,72.0,86.0
286,182.74394263125,183.01146567916666,73.0,89.0
287,183.02431613125,183.238100925,72.0,86.0
288,183.30468963125,183.55118466666667,73.0,88.0
289,183.58506313125,183.798847925,72.0,85.0
290,183.86543663125,184.02781961666665,73.0,88.0
291,184.14581013125,184.33973513541667,75.0,91.0
292,184.42618363124998,184.83973454374998,77.0,91.0
293,184.98693063125,185.19954720208332,73.0,86.0
294,185.26730413125,187.86192722916667,80.0,88.0
295,188.35141263124999,188.81402890625,73.0,90.0
296,188.91215963125,189.3712712375,80.0,86.0
297,189.47290663125,189.64346717708332,82.0,86.0
298,189.75328013125,190.3385598125,77.0,85.0
299,190.31402713125,192.73224856874998,75.0,90.0
300,193.11776213125,193.31285535833334,68.0,84.0
301,193.39813563125,193.63645310625,77.0,91.0
302,193.67850913125,193.83271455624998,75.0,95.0
303,193.95888263125,194.13177962291667,73.0,90.0
304,194.23925613125,194.73575087083333,77.0,91.0
305,194.80000313124998,195.4974322125,70.0,90.0
306,195.64112363125,195.86659065416666,77.0,91.0
307,195.92149713125,196.04182409166665,75.0,93.0
308,196.20187063125,196.42149653958333,73.0,90.0
309,196.48224413124998,196.84205678958332,77.0,91.0
310,197.04299113125,197.68317728958334,75.0,98.0
311,197.88411163125,198.16682157708334,75.0,95.0
312,198.16448513125,198.41565305833333,73.0,85.0
313,198.44485863124999,198.67616676875,72.0,88.0
314,198.72523213124998,199.20303530416666,75.0,98.0
315,199.28597913125,199.53597883541667,73.0,91.0
316,199.56635263125,199.79766076875,72.0,88.0
317,199.84672613125,200.31051062916666,75.0,95.0
318,200.40747313125,200.55466921875,80.0,86.0
319,200.68784663124998,200.86191184583333,80.0,90.0
320,200.96822013125,201.490415775,75.0,91.0
321,201.52896713125,202.13177015624998,73.0,85.0
322,202.08971413125,202.13177015624998,73.0,76.0
323,202.37008763125,202.57452664166667,73.0,86.0
324,202.65046113124998,202.89578794374998,72.0,88.0
325,202.93083463124998,203.14929231666667,70.0,85.0
326,203.21120813125,203.73924488958332,73.0,88.0
327,204.33270213125,204.51027201458334,73.0,85.0
328,204.61307563124998,204.85256132916666,73.0,89.0
329,204.89344913124998,205.14812172708332,72.0,91.0
330,205.17382263125,205.415644775,70.0,86.0
331,205.45419613125,206.19484946041666,73.0,88.0
332,206.57569013124998,206.79297959375,73.0,90.0
333,206.85606363124998,207.069848425,73.0,91.0
334,207.13643713125,207.3432125875,72.0,86.0
335,207.41681063125,207.56400671875,73.0,86.0
336,207.69718413125,207.9133053708333,75.0,88.0
337,207.97755763125,208.4927439375,78.0,85.0
338,208.53830463124999,208.72171562916665,77.0,88.0
339,208.81867813124998,209.30349064166666,77.0,88.0
340,209.37942513125,209.58386414166665,75.0,89.0
341,209.65979863125,209.83503206875,73.0,91.0
342,209.94017213125,210.8899373625,77.0,91.0
343,211.06166613125,211.25675935833334,77.0,84.0
344,211.34203963125,211.58035710625,77.0,91.0
345,211.62241313125,211.77661855624999,75.0,95.0
346,211.90278663125,212.07568362291667,73.0,90.0
347,212.18316013125,212.67965487083333,77.0,91.0
348,212.74390713124998,213.4413362125,70.0,90.0
349,213.58502763125,213.81049465416666,77.0,91.0
350,213.86540113125,213.98572809166666,75.0,93.0
351,214.14577463125,214.36540053958333,73.0,90.0
352,214.42614813125,214.78596078958333,77.0,91.0
353,214.98689513124998,215.62708128958332,75.0,98.0
354,215.82801563125,216.11072557708331,75.0,95.0
355,216.10838913125,216.35955705833334,73.0,85.0
356,216.38876263125,216.62007076875,72.0,88.0
357,216.66913613124999,217.14693930416666,75.0,98.0
358,217.22988313125,217.47988283541665,73.0,91.0
359,217.51025663125,217.74156476874998,72.0,88.0
360,217.79063013125,218.25441462916666,75.0,95.0
361,218.35137713125,218.49857321874998,80.0,86.0
362,218.63175063125,218.80581584583334,80.0,90.0
363,218.91212413124998,219.434319775,75.0,91.0
364,219.47287113125,220.03361813125,73.0,85.0
365,220.03361813125,220.15978620625,68.0,76.0
366,220.31399163125,220.51843064166667,80.0,86.0
367,220.59436513125,220.83969194374998,80.0,88.0
368,220.87473863124998,221.09319631666665,80.0,85.0
369,221.15511213124998,221.37356981666665,80.0,85.0
370,221.43548563125,221.96352238958332,80.0,88.0
371,221.99623263125,222.17380251458331,78.0,85.0
372,222.27660613125,222.83735313124998,78.0,89.0
373,223.11772663124998,223.37239922708332,73.0,91.0
374,223.39810013125,223.639922275,75.0,86.0
375,223.67847363125,224.41912696041666,77.0,88.0
376,224.51959413125,224.73688359374998,78.0,90.0
377,224.79996763124998,225.08034113124998,77.0,91.0
378,225.08034113124998,225.28711658749998,75.0,86.0
379,225.36071463125,225.57683587083332,73.0,88.0
380,225.64108813125,226.1562744375,75.0,85.0
381,226.20183513125,228.16444963125,73.0,88.0
382,229.00557013124998,229.20066335833332,68.0,84.0
383,229.28594363125,229.52426110624998,77.0,91.0
384,229.56631713125,229.72052255625,75.0,95.0
385,229.84669063125,230.01958762291665,73.0,90.0
386,230.12706413125,230.62355887083334,77.0,91.0
387,230.68781113125,231.38524021249998,70.0,90.0
388,231.52893163125,231.75439865416666,77.0,91.0
389,231.80930513125,231.92963209166666,75.0,93.0
390,232.08967863125,232.30930453958334,73.0,90.0
391,232.37005213125,232.72986478958333,77.0,91.0
392,232.93079913124998,233.57098528958332,75.0,98.0
393,233.77191963125,234.05462957708332,75.0,95.0
394,234.05229313125,234.3034610583333,73.0,85.0
395,234.33266663125,234.56397476875,72.0,88.0
396,234.61304013125,235.09084330416667,75.0,98.0
397,235.17378713124998,235.42378683541665,73.0,91.0
398,235.45416063125,235.68546876874998,72.0,88.0
399,235.73453413125,236.19831862916666,75.0,95.0
400,236.29528113125,236.44247721874999,80.0,86.0
401,236.57565463125,236.7497198458333,80.0,90.0
402,236.85602813124999,237.37822377499998,75.0,91.0
403,237.41677513125,238.01957815625,73.0,85.0
404,237.97752213125,238.01957815625,73.0,76.0
405,238.25789563125,238.46233464166667,73.0,86.0
406,238.53826913125,238.78359594375,72.0,88.0
407,238.81864263125,239.03710031666665,70.0,85.0
408,239.09901613124998,239.62705288958333,73.0,88.0
409,240.22051013125,240.39808001458331,73.0,85.0
410,240.50088363125,240.74036932916667,73.0,89.0
411,240.78125713125,241.03592972708333,72.0,91.0
412,241.06163063124998,241.30345277499998,70.0,86.0
413,241.34200413124998,242.08265746041667,73.0,88.0
414,242.46349813125,242.68078759374998,73.0,90.0
415,242.74387163125,242.95765642499998,73.0,91.0
416,243.02424513124998,243.23102058749998,72.0,86.0
417,243.30461863124998,243.45181471875,73.0,86.0
418,243.58499213125,243.80111337083332,75.0,88.0
419,243.86536563125,244.3805519375,78.0,85.0
420,244.42611263125,244.60952362916666,77.0,88.0
421,244.70648613125,245.19129864166666,77.0,88.0
422,245.26723313124998,245.47167214166666,75.0,89.0
423,245.54760663125,245.72284006875,73.0,91.0
424,245.82798013125,246.77774536249999,77.0,91.0
425,246.94947413124999,247.14456735833332,77.0,84.0
426,247.22984763124998,247.46816510624998,77.0,91.0
427,247.51022113125,247.66442655625,75.0,95.0
428,247.79059463125,247.96349162291665,73.0,90.0
429,248.07096813125,248.56746287083334,77.0,91.0
430,248.63171513125,249.32914421249998,70.0,90.0
431,249.47283563124998,249.69830265416667,77.0,91.0
432,249.75320913125,249.87353609166667,75.0,93.0
433,250.03358263125,250.2532085395833,73.0,90.0
434,250.31395613125,250.67376878958333,77.0,91.0
435,250.87470313125,251.51488928958332,75.0,98.0
436,251.71582363125,251.99853357708332,75.0,95.0
437,251.99619713125,252.24736505833332,73.0,85.0
438,252.27657063125,252.50787876875,72.0,88.0
439,252.55694413125,253.03474730416667,75.0,98.0
440,253.11769113124998,253.36769083541665,73.0,91.0
441,253.39806463124998,253.62937276875,72.0,88.0
442,253.67843813125,254.14222262916667,75.0,95.0
443,254.23918513125,254.38638121875,80.0,86.0
444,254.51955863125,254.69362384583332,80.0,90.0
445,254.79993213125,255.32212777499998,75.0,91.0
446,255.36067913124998,255.92142613125,73.0,85.0
447,255.92142613125,256.04759420625,68.0,76.0
448,256.20179963124997,256.4062386416667,80.0,86.0
449,256.48217313124997,256.72749994375,80.0,88.0
450,256.76254663125,256.98100431666666,80.0,85.0
451,257.04292013125,257.26137781666665,80.0,85.0
452,257.32329363125,257.8513303895833,80.0,88.0
453,257.88404063125,258.0616105145833,78.0,85.0
454,258.16441413125,258.72516113125,78.0,89.0
455,259.00553463125,259.2602072270833,73.0,91.0
456,259.28590813125,259.527730275,75.0,86.0
457,259.56628163125,260.30693496041664,77.0,88.0
458,260.40740213124997,260.62469159375,78.0,90.0
459,260.68777563125,260.96814913125,77.0,91.0
460,260.96814913125,261.1749245875,75.0,86.0
461,261.24852263125,261.4646438708333,73.0,88.0
462,261.52889613125,262.0440824375,75.0,85.0
463,262.08964313125,264.05225763125,73.0,88.0
