,start,end,pitch,velocity
0,1.62266163125,2.00817519375,56.0,78.0
1,1.62266163125,2.3107449291666664,61.0,77.0
2,2.18340863125,2.517520385416667,56.0,81.0
3,2.74415563125,3.0163515708333333,56.0,84.0
4,2.74415563125,3.3925193499999997,63.0,79.0
5,1.62266163125,3.5221920937499998,49.0,84.0
6,3.30490263125,3.6285003791666663,56.0,74.0
7,3.8656496312499997,4.16004180625,56.0,78.0
8,3.8656496312499997,4.245322079166667,65.0,81.0
9,3.8656496312499997,4.247658525,61.0,75.0
10,4.9871436312499995,5.202096647916666,56.0,82.0
11,3.8656496312499997,5.2511620104166665,49.0,79.0
12,4.9871436312499995,5.4883112625,61.0,85.0
13,4.9871436312499995,5.54789063125,65.0,86.0
14,5.54789063125,5.690413827083333,56.0,80.0
15,6.10863763125,6.538543664583333,58.0,81.0
16,6.10863763125,6.783870477083333,63.0,80.0
17,7.23013163125,7.365645489583333,63.0,77.0
18,7.23013163125,7.372654827083333,58.0,77.0
19,7.23013163125,7.434570641666666,67.0,73.0
20,7.79087863125,8.088775475,58.0,64.0
21,8.35162563125,8.52685906875,58.0,80.0
22,8.35162563125,8.550223527083332,63.0,85.0
23,6.66938463125,8.593447775,46.0,64.0
24,6.10863763125,8.713774735416667,39.0,86.0
25,8.91237263125,9.141344322916666,58.0,69.0
26,9.47311963125,10.032698408333333,67.0,83.0
27,9.47311963125,10.0373713,63.0,85.0
28,9.47311963125,10.080595547916666,58.0,82.0
29,10.03386663125,10.134333802083333,39.0,88.0
30,10.594613631249999,11.072416804166666,54.0,79.0
31,10.594613631249999,11.09227659375,61.0,80.0
32,10.594613631249999,11.117977497916666,57.0,74.0
33,11.716107631249999,11.885499954166667,54.0,78.0
34,11.716107631249999,12.051387608333332,57.0,84.0
35,11.716107631249999,12.210265925,61.0,82.0
36,11.15536063125,12.663536416666666,49.0,62.0
37,10.594613631249999,12.664704639583332,42.0,83.0
38,12.27685463125,12.95676036875,54.0,82.0
39,12.83760163125,13.434563541666666,57.0,70.0
40,12.83760163125,13.593441858333334,63.0,80.0
41,13.39834863125,13.828254664583334,54.0,74.0
42,12.83760163125,14.27101115,42.0,84.0
43,13.95909563125,14.408861454166667,57.0,77.0
44,13.95909563125,14.536197752083332,61.0,81.0
45,14.51984263125,14.64601070625,54.0,80.0
46,15.08058963125,15.245309062499999,37.0,80.0
47,15.08058963125,15.339935118749999,56.0,77.0
48,15.08058963125,15.533860122916666,65.0,85.0
49,15.08058963125,15.850448533333333,61.0,77.0
50,15.641336631249999,15.945074589583333,56.0,63.0
51,16.202083631249998,16.365634839583333,65.0,80.0
52,16.202083631249998,16.374980622916667,61.0,77.0
53,16.76283063125,17.370306547916666,56.0,78.0
54,17.32357763125,17.727782760416666,65.0,84.0
55,17.32357763125,17.980118910416667,61.0,76.0
56,17.88432463125,18.12965144375,56.0,68.0
57,17.32357763125,18.592267718749998,49.0,81.0
58,18.44507163125,18.607454616666665,56.0,84.0
59,18.44507163125,18.62731440625,61.0,84.0
60,18.44507163125,18.630819074999998,65.0,85.0
61,19.56656563125,19.6822197,37.0,79.0
62,19.56656563125,19.851612022916665,56.0,81.0
63,19.56656563125,20.205583566666665,65.0,85.0
64,20.12731263125,20.46259260833333,56.0,85.0
65,20.68805963125,20.949741564583334,56.0,80.0
66,20.68805963125,21.263993529166665,63.0,78.0
67,20.68805963125,21.467264316666665,49.0,82.0
68,21.248806631249998,21.584086608333333,56.0,81.0
69,21.80955363125,22.40534731875,61.0,79.0
70,21.80955363125,22.42170243958333,65.0,84.0
71,22.37030063125,23.035019470833333,56.0,85.0
72,21.80955363125,23.283850952083334,49.0,85.0
73,22.93104763125,23.51983198125,61.0,85.0
74,22.93104763125,23.525673095833334,65.0,85.0
75,23.49179463125,23.601607585416666,56.0,89.0
76,24.052541631249998,24.338756245833334,58.0,74.0
77,24.052541631249998,24.51515790625,63.0,77.0
78,24.052541631249998,24.614456854166665,67.0,73.0
79,24.61328863125,24.863288335416666,58.0,77.0
80,24.052541631249998,25.15183939583333,39.0,86.0
81,25.17403563125,25.32123171875,63.0,79.0
82,25.17403563125,25.331745724999998,58.0,77.0
83,25.17403563125,25.41468955208333,67.0,75.0
84,25.73478263125,26.381978127083332,58.0,84.0
85,26.295529631249998,26.862117745833334,51.0,84.0
86,26.295529631249998,26.924033560416667,67.0,74.0
87,26.295529631249998,26.928706452083333,63.0,79.0
88,26.856276631249997,27.2452948625,58.0,84.0
89,27.41702363125,28.190387202083333,63.0,84.0
90,27.41702363125,28.196228316666666,67.0,82.0
91,27.97777063125,28.34926551875,58.0,72.0
92,28.53851763125,28.8434238125,54.0,59.0
93,28.53851763125,29.198563579166667,57.0,65.0
94,28.53851763125,29.241787827083332,61.0,69.0
95,29.099264631249998,29.36795590208333,54.0,78.0
96,29.66001163125,29.83758151458333,54.0,82.0
97,28.53851763125,29.987114047916666,42.0,84.0
98,29.66001163125,30.074730766666665,57.0,87.0
99,29.66001163125,30.158842816666667,61.0,84.0
100,30.22075863125,30.709075810416664,54.0,84.0
101,30.78150563125,31.56888787708333,54.0,82.0
102,30.78150563125,31.6471588125,61.0,81.0
103,31.34225263125,32.05486861041667,49.0,76.0
104,30.78150563125,32.181036685416665,42.0,84.0
105,31.902999631249997,32.18570957708333,54.0,80.0
106,31.902999631249997,32.249961837499995,61.0,81.0
107,31.902999631249997,32.30253186875,66.0,80.0
108,32.46374663125,32.5794007,42.0,83.0
109,33.024493631249996,33.13080191666666,37.0,82.0
110,33.024493631249996,33.25112887708333,56.0,78.0
111,33.024493631249996,33.61327798125,65.0,85.0
112,33.58524063125,33.855100125,56.0,83.0
113,34.14598763125,34.325893960416664,56.0,78.0
114,34.14598763125,34.65883749166667,65.0,84.0
115,34.70673463125,35.34458434375,56.0,82.0
116,35.26748163125,35.88897622291667,65.0,84.0
117,35.26748163125,35.89364911458333,61.0,75.0
118,35.26748163125,37.08406826666666,49.0,74.0
119,36.38897563125,37.41934824375,61.0,73.0
120,36.38897563125,37.41934824375,65.0,78.0
121,36.94972263125,37.48360050416667,56.0,72.0
122,37.51046963125,37.86677762083333,56.0,77.0
123,37.51046963125,38.16000157291666,61.0,77.0
124,38.071216631249996,38.68102899375,56.0,80.0
125,38.631963631249995,38.759299929166666,65.0,86.0
126,38.631963631249995,38.769813935416664,61.0,81.0
127,39.19271063125,39.33990671875,56.0,80.0
128,37.51046963125,39.440373889583334,49.0,84.0
129,39.75345763125,40.03149468541667,58.0,74.0
130,39.75345763125,40.3527559875,63.0,79.0
131,40.31420463125,40.58873701666666,58.0,78.0
132,40.87495163125,41.101586877083335,58.0,83.0
133,39.75345763125,41.35509125,51.0,84.0
134,40.87495163125,41.44387619166667,63.0,85.0
135,40.87495163125,41.47074531875,67.0,84.0
136,41.43569863125,41.64013764166666,58.0,78.0
137,41.99644563125,42.2452771125,58.0,74.0
138,41.99644563125,42.55485618541667,66.0,78.0
139,41.99644563125,42.63429534375,61.0,73.0
140,42.55719263125,42.677519591666666,58.0,57.0
141,43.117939631249996,43.323546864583335,58.0,84.0
142,43.117939631249996,43.41233180625,61.0,85.0
143,41.99644563125,43.677518408333334,42.0,84.0
144,43.117939631249996,43.6821913,66.0,83.0
145,44.23943363125,44.985928075,54.0,77.0
146,44.23943363125,44.987096297916665,61.0,79.0
147,44.80018063125,44.99877852708333,57.0,73.0
148,45.36092763125,45.519805947916666,54.0,82.0
149,45.36092763125,45.7779832125,57.0,86.0
150,44.23943363125,45.90765595625,42.0,85.0
151,45.36092763125,46.00929135,61.0,85.0
152,45.92167463125,46.15298276875,54.0,81.0
153,46.48242163125,47.096906885416665,65.0,84.0
154,46.48242163125,47.10041155416666,60.0,80.0
155,47.04316863125,47.34223369791666,56.0,73.0
156,46.48242163125,47.794335966666665,41.0,85.0
157,47.60391563125,48.14363461875,56.0,85.0
158,47.60391563125,48.198541095833335,60.0,88.0
159,48.164662631249996,48.28615781458333,41.0,85.0
160,47.60391563125,48.30952227291667,65.0,85.0
161,48.725409631249995,49.079381175,58.0,76.0
162,48.725409631249995,49.14129698958333,61.0,77.0
163,48.725409631249995,49.15765211041666,65.0,83.0
164,49.28615663125,49.60624971041666,58.0,79.0
165,49.28615663125,50.068865985416664,53.0,77.0
166,49.84690363125,50.07353887708333,58.0,82.0
167,49.84690363125,50.266295658333334,61.0,84.0
168,49.84690363125,50.28966011666667,65.0,84.0
169,48.725409631249995,50.33054791875,46.0,83.0
170,50.40765063125,51.006948987499996,58.0,82.0
171,50.96839763125,51.402976556249996,63.0,75.0
172,50.96839763125,51.601574452083334,66.0,81.0
173,51.52914463125,51.697368731249995,58.0,74.0
174,50.96839763125,52.29549886458333,39.0,85.0
175,52.08989163125,52.3106857625,58.0,81.0
176,52.08989163125,52.471900524999995,63.0,86.0
177,52.08989163125,52.69152643333333,66.0,84.0
178,52.65063863125,52.78498426666666,58.0,84.0
179,53.211385631249996,53.65531033958333,56.0,79.0
180,53.211385631249996,53.762786847916665,63.0,79.0
181,54.33287963125,54.56886066041667,56.0,84.0
182,54.33287963125,55.32703733333333,60.0,86.0
183,53.772132631249995,55.329373779166666,51.0,78.0
184,54.33287963125,55.34222423125,63.0,84.0
185,53.211385631249996,55.34339245416666,44.0,84.0
186,54.89362663125,55.37610269583333,56.0,86.0
187,55.45437363125,55.81068162083333,56.0,77.0
188,55.45437363125,56.103905572916666,61.0,77.0
189,56.01512063125,56.62493299375,56.0,80.0
190,56.57586763125,56.70320392916666,65.0,86.0
191,56.57586763125,56.71371793541667,61.0,81.0
192,57.13661463125,57.28381071875,56.0,80.0
193,55.45437363125,57.38427788958333,49.0,84.0
194,57.69736163125,57.975398685416664,58.0,74.0
195,57.69736163125,58.2966599875,63.0,79.0
196,58.258108631249996,58.532641016666666,58.0,78.0
197,58.818855631249995,59.04549087708333,58.0,83.0
198,57.69736163125,59.29899525,51.0,84.0
199,58.818855631249995,59.387780191666664,63.0,85.0
200,58.818855631249995,59.41464931875,67.0,84.0
201,59.379602631249995,59.584041641666666,58.0,78.0
202,59.94034963125,60.189181112499995,58.0,74.0
203,59.94034963125,60.498760185416664,66.0,78.0
204,59.94034963125,60.57819934375,61.0,73.0
205,60.50109663125,60.62142359166666,58.0,57.0
206,61.06184363125,61.26745086458333,58.0,84.0
207,61.06184363125,61.35623580625,61.0,85.0
208,59.94034963125,61.62142240833333,42.0,84.0
209,61.06184363125,61.626095299999996,66.0,83.0
210,62.18333763125,62.929832075,54.0,77.0
211,62.18333763125,62.93100029791666,61.0,79.0
212,62.74408463125,62.942682527083335,57.0,73.0
213,63.304831631249996,63.46370994791666,54.0,82.0
214,63.304831631249996,63.7218872125,57.0,86.0
215,62.18333763125,63.85155995625,42.0,85.0
216,63.304831631249996,63.95319535,61.0,85.0
217,63.865578631249996,64.09688676875,54.0,81.0
218,64.42632563125,65.04081088541666,65.0,84.0
219,64.42632563125,65.04431555416666,60.0,80.0
220,64.98707263125,65.28613769791666,56.0,73.0
221,64.42632563125,65.73823996666667,41.0,85.0
222,65.54781963125,66.08753861875,56.0,85.0
223,65.54781963125,66.14244509583334,60.0,88.0
224,66.10856663125,66.23006181458334,41.0,85.0
225,65.54781963125,66.25342627291667,65.0,85.0
226,66.66931363124999,67.023285175,58.0,76.0
227,66.66931363124999,67.08520098958333,61.0,77.0
228,66.66931363124999,67.10155611041667,65.0,83.0
229,67.23006063125,67.55015371041667,58.0,79.0
230,67.23006063125,68.01276998541667,53.0,77.0
231,67.79080763125,68.01744287708333,58.0,82.0
232,67.79080763125,68.21019965833334,61.0,84.0
233,67.79080763125,68.23356411666667,65.0,84.0
234,66.66931363124999,68.27445191875,46.0,83.0
235,68.35155463125,68.9508529875,58.0,82.0
236,68.91230163125,69.34688055625,63.0,75.0
237,68.91230163125,69.54547845208333,66.0,81.0
238,69.47304863125,69.64127273125,58.0,74.0
239,68.91230163125,70.23940286458333,39.0,85.0
240,70.03379563125,70.2545897625,58.0,81.0
241,70.03379563125,70.415804525,63.0,86.0
242,70.03379563125,70.63543043333333,66.0,84.0
243,70.59454263125,70.72888826666666,58.0,84.0
244,71.15528963125,71.69617684166667,56.0,80.0
245,71.15528963125,71.78613000624999,63.0,80.0
246,71.15528963125,71.82584958541666,44.0,85.0
247,71.71603663124999,71.89711118333334,51.0,85.0
248,72.27678363125,72.58402625833332,57.0,77.0
249,72.27678363125,72.79781105208333,45.0,85.0
250,72.27678363125,72.81416617291667,63.0,84.0
251,72.27678363125,72.82351195625,60.0,85.0
252,72.83753063125,72.967203375,57.0,85.0
253,73.39827763125,74.14243562916667,65.0,83.0
254,73.39827763125,74.15061318958332,61.0,81.0
255,73.39827763125,74.15762252708333,58.0,78.0
256,74.51977163125,74.72537886458333,58.0,85.0
257,74.51977163125,75.05715417291667,61.0,91.0
258,73.95902463125,75.10037842083334,53.0,73.0
259,73.39827763125,75.12023821041666,46.0,85.0
260,74.51977163125,75.14944378333333,65.0,88.0
261,75.08051863125,75.21135959791667,58.0,90.0
262,75.64126563125,76.25575088541666,63.0,84.0
263,75.64126563125,76.29430224166667,56.0,82.0
264,76.20201263125,76.88075014583333,51.0,79.0
265,76.76275963124999,77.15294608541666,56.0,86.0
266,76.76275963124999,77.22654412916667,68.0,82.0
267,77.32350663125,77.72654353749999,63.0,84.0
268,77.04313313125,77.733552875,51.0,70.0
269,75.64126563125,77.74873977291666,44.0,85.0
270,77.88425363125,78.41112216666666,58.0,80.0
271,77.88425363125,78.60855183958333,54.0,82.0
272,78.44500063125,79.08518678958333,49.0,73.0
273,79.00574763125,79.37724251875,58.0,86.0
274,79.00574763125,79.62373755416667,61.0,85.0
275,79.28612113125,79.79079343125,49.0,77.0
276,79.56649463125,79.85270924583332,54.0,86.0
277,77.88425363125,79.8714008125,42.0,84.0
278,80.12724163125,80.79780158541666,53.0,81.0
279,80.12724163125,80.80831559166667,56.0,78.0
280,80.68798863125,81.01509104791667,60.0,76.0
281,81.24873563125,81.55013714374999,53.0,87.0
282,80.12724163125,81.60270717499999,41.0,86.0
283,81.24873563125,81.6517725375,56.0,86.0
284,81.52910913125,81.68798744791667,48.0,80.0
285,81.24873563125,81.73237991875,65.0,86.0
286,81.24873563125,81.75691259999999,60.0,86.0
287,81.80948263124999,81.95667871875,53.0,95.0
288,82.37022963125,82.4928930375,39.0,86.0
289,82.37022963125,82.54429484583333,58.0,80.0
290,82.65060313125,82.71836006041666,58.0,68.0
291,82.37022963125,82.84102346666667,66.0,84.0
292,82.93097663124999,83.19733145625,63.0,76.0
293,83.49172363125,83.6143870375,58.0,84.0
294,83.77209713124999,83.8877512,58.0,76.0
295,83.49172363125,83.89476053749999,66.0,82.0
296,84.05247063125,84.24055452083333,63.0,84.0
297,84.61321763125,84.80130152083333,58.0,86.0
298,84.61321763125,84.96602095208333,66.0,84.0
299,85.17396463125,85.41228210625,63.0,74.0
300,83.49172363125,85.44148767916667,51.0,88.0
301,85.45433813125,85.57466509166666,58.0,78.0
302,85.73471163125,85.86672082083334,58.0,84.0
303,85.73471163125,86.09101962083334,51.0,91.0
304,85.73471163125,86.1097111875,66.0,85.0
305,86.01508513125,86.1307392,58.0,84.0
306,86.29545863125,86.55480411875,63.0,84.0
307,86.57583213125,86.71134598958334,58.0,72.0
308,86.85620563124999,87.19849494583333,56.0,80.0
309,86.85620563124999,87.23704630208333,63.0,79.0
310,87.41695263125,87.62840097916667,60.0,85.0
311,87.97769963124999,88.1564377375,56.0,84.0
312,87.97769963124999,88.25690490833333,63.0,85.0
313,88.25807313125,88.44615702083333,56.0,84.0
314,88.53844663125,88.70783895416666,60.0,86.0
315,87.13657913125,88.85620326458333,51.0,78.0
316,86.85620563124999,88.86905371666667,44.0,84.0
317,88.81882013124999,88.98470778541666,56.0,88.0
318,89.09919363125,89.17512812083334,56.0,77.0
319,89.09919363125,89.4321371625,60.0,88.0
320,89.09919363125,89.46952029583333,63.0,86.0
321,89.09919363125,89.47185674166667,68.0,84.0
322,89.94031413124999,90.07115509791666,56.0,85.0
323,89.09919363125,90.08634199583334,44.0,87.0
324,89.65994063125,90.11437934583333,51.0,71.0
325,90.22068763125,90.52793025833333,60.0,93.0
326,90.22068763125,90.54078071041667,56.0,86.0
327,90.22068763125,90.58050028958333,63.0,87.0
328,90.78143463125,91.12606039166667,56.0,91.0
329,90.50106113125,91.20199488125,51.0,86.0
330,90.22068763125,91.20433132708332,44.0,89.0
331,91.34218163125,91.49521883333333,58.0,80.0
332,91.34218163125,91.752227875,66.0,84.0
333,91.62255513125,91.76507832708333,58.0,76.0
334,91.90292863124999,92.0956854125,61.0,84.0
335,91.34218163125,92.19147969166666,42.0,85.0
336,92.18330213125,92.32816177291666,58.0,80.0
337,92.46367563125,92.60503060416666,58.0,85.0
338,92.46367563125,92.60970349583333,42.0,85.0
339,92.46367563125,92.85269386249999,66.0,85.0
340,92.74404913125,92.92161901458333,58.0,72.0
341,93.02442263124999,93.31297369166667,61.0,90.0
342,93.30479613125,93.47185200833333,58.0,80.0
343,93.58516963125,93.73236571875,56.0,84.0
344,93.58516963125,93.82465532916666,60.0,85.0
345,93.86554313124999,93.98236542291666,56.0,82.0
346,93.58516963125,94.42862657708334,44.0,85.0
347,94.14591663125,94.48002838541666,63.0,81.0
348,94.42629013125,94.60386001458333,56.0,83.0
349,94.70666363125,94.78026167499999,56.0,79.0
350,94.70666363125,94.97185023333333,68.0,80.0
351,94.70666363125,95.01390625833334,60.0,95.0
352,94.70666363125,95.03026137916666,63.0,85.0
353,94.98703713124999,95.11320520625,56.0,79.0
354,94.70666363125,95.26857885416666,51.0,83.0
355,94.70666363125,95.3339993375,44.0,82.0
356,95.26741063125,95.40642915833332,60.0,85.0
357,95.26741063125,95.43680295416667,63.0,82.0
358,95.54778413125,95.64241018749999,56.0,85.0
359,95.82815763125,96.0068957375,53.0,79.0
360,95.82815763125,96.15876471666667,56.0,78.0
361,96.10853113125,96.29077390625,53.0,84.0
362,96.38890463125,96.72418460833333,60.0,80.0
363,96.66927813125,96.77909108541667,56.0,84.0
364,95.82815763125,96.82932467083333,41.0,87.0
365,96.94965163124999,97.14474485833333,53.0,90.0
366,96.94965163124999,97.31063251249999,65.0,85.0
367,96.94965163124999,97.50923040833332,41.0,88.0
368,97.23002513125,97.55479110208333,60.0,77.0
369,97.51039863125,97.8433421625,53.0,86.0
370,97.79077213125,97.92628598958333,56.0,85.0
371,98.07114563124999,98.34217334791667,58.0,78.0
372,98.07114563124999,98.37488358958333,61.0,86.0
373,98.63189263125,98.89123811875,58.0,76.0
374,98.35151913125,99.26039656041667,53.0,76.0
375,98.07114563124999,99.29544324791667,46.0,84.0
376,99.19263963125,99.47885424583333,61.0,89.0
377,99.19263963125,99.48703180625,58.0,84.0
378,99.19263963125,99.50338692708333,65.0,91.0
379,99.47301313125,99.6657699125,53.0,85.0
380,99.75338663125,100.12721796458332,58.0,88.0
381,100.03376013124999,100.21717112916666,61.0,85.0
382,100.31413363125,100.49520818333333,58.0,80.0
383,100.31413363125,100.63773137916667,63.0,83.0
384,100.59450713125,100.72184342916667,58.0,71.0
385,100.87488063125,101.19847837916666,63.0,83.0
386,101.15525413124999,101.28609509791666,58.0,78.0
387,100.31413363125,101.40058094375,39.0,86.0
388,101.43562763125,101.593337725,58.0,86.0
389,101.43562763125,101.62721618958334,46.0,84.0
390,101.43562763125,101.72534691458333,66.0,84.0
391,101.71600113125,101.8386645375,58.0,84.0
392,101.99637463124999,102.22184165416667,63.0,86.0
393,102.27674813125,102.42628066458333,58.0,79.0
394,102.55712163125,102.75338308124999,56.0,84.0
395,102.55712163125,102.81296245,60.0,82.0
396,102.83749513125,102.97184076666666,56.0,83.0
397,103.11786863124999,103.275578725,63.0,84.0
398,102.55712163125,103.28842917708333,44.0,85.0
399,103.39824213125,103.56529800833333,56.0,84.0
400,103.67861563125,103.82113882708333,56.0,86.0
401,103.67861563125,104.04543762708333,68.0,83.0
402,103.95898913125,104.09099832083334,56.0,85.0
403,103.67861563125,104.09216654375,51.0,79.0
404,104.23936263125,104.55361459583332,63.0,86.0
405,104.51973613125,104.64473598333333,56.0,86.0
406,104.80010963125,104.9227730375,56.0,85.0
407,104.80010963125,105.0769784625,61.0,85.0
408,105.08048313124999,105.21599698958333,56.0,78.0
409,105.36085663125,105.68094971041667,61.0,81.0
410,105.64123013125,105.78959444166667,56.0,77.0
411,105.92160363125,106.04777170625,56.0,86.0
412,104.80010963125,106.29426674166666,49.0,90.0
413,105.92160363125,106.31879942291667,65.0,95.0
414,106.20197713124999,106.39239746666667,56.0,83.0
415,106.48235063125,106.66576162916667,61.0,84.0
416,106.76272413125,106.91225666458332,56.0,82.0
417,107.04309763124999,107.21248995416666,56.0,85.0
418,107.04309763124999,107.40524673541667,59.0,86.0
419,107.32347113125,107.51272324375,56.0,76.0
420,107.60384463125,107.74636782708333,59.0,85.0
421,107.04309763124999,107.93211527083334,49.0,93.0
422,107.88421813125,108.04076000208333,56.0,86.0
423,108.16459163124999,108.31412416458333,56.0,85.0
424,108.16459163124999,108.47417070416667,49.0,95.0
425,108.16459163124999,108.55594630833333,65.0,91.0
426,108.44496513125,108.58748832708334,56.0,76.0
427,108.72533863125,108.83515158541667,56.0,84.0
428,108.72533863125,108.99636634791666,61.0,86.0
429,109.00571213125,109.13188020625,56.0,75.0
430,109.28608563125,109.4508050625,54.0,84.0
431,109.28608563125,109.55944979374999,58.0,82.0
432,109.56645913125,109.71949633333332,54.0,77.0
433,109.84683263125,110.07814076874999,61.0,82.0
434,110.12720613124999,110.24753309166667,54.0,82.0
435,109.28608563125,110.30944890625,42.0,85.0
436,110.40757963125,110.467159,54.0,79.0
437,110.40757963125,110.56178505625,42.0,85.0
438,110.40757963125,110.71365403541667,58.0,87.0
439,110.40757963125,110.72884093333333,61.0,88.0
440,110.40757963125,110.73701849375,66.0,82.0
441,110.68795313125,110.84916789374999,54.0,78.0
442,110.96832663125,111.23234501041667,58.0,75.0
443,110.96832663125,111.33631685,61.0,73.0
444,111.24870013124999,111.37486820625,54.0,83.0
445,111.52907363125,111.86084893958333,56.0,84.0
446,111.52907363125,111.90056851874999,60.0,84.0
447,112.08982063124999,112.3947268125,63.0,83.0
448,112.37019413125,112.49636220625,56.0,85.0
449,111.80944713125,112.7872497125,51.0,79.0
450,112.65056763125,112.7872497125,56.0,90.0
451,112.65056763125,112.86084775625,68.0,84.0
452,112.93094113125,113.08397833333333,51.0,80.0
453,111.52907363125,113.16224926875,44.0,85.0
454,113.21131463124999,113.37486583958334,60.0,82.0
455,113.21131463124999,113.37486583958334,63.0,84.0
456,113.49168813125,113.59565997083332,56.0,82.0
457,113.77206163125,114.16458453125,56.0,84.0
458,113.77206163125,114.16575275416666,53.0,86.0
459,114.33280863124999,114.62603258333333,60.0,80.0
460,114.61318213125,114.71832219375,56.0,82.0
461,114.89355563125,115.02439659791666,53.0,90.0
462,114.05243513125,115.06762084583333,48.0,71.0
463,114.89355563125,115.22065804791666,65.0,87.0
464,115.17392913124999,115.37252702708334,48.0,76.0
465,113.77206163125,115.41925594375,41.0,86.0
466,115.45430263125,115.59799405,56.0,86.0
467,115.45430263125,115.62719962291666,60.0,85.0
468,115.73467613125,115.82930218749999,53.0,91.0
469,116.01504963125,116.45897433958334,61.0,84.0
470,116.01504963125,116.47649768333333,58.0,84.0
471,116.29542313124999,116.72065627291666,53.0,79.0
472,116.57579663125,116.74402073124999,61.0,84.0
473,116.57579663125,116.86084302291667,65.0,85.0
474,116.85617013125,116.95430085625,58.0,72.0
475,116.85617013125,117.18327254791666,53.0,80.0
476,117.13654363124999,117.41341246249999,58.0,87.0
477,117.13654363124999,117.43911336666666,70.0,83.0
478,117.13654363124999,117.45430026458332,61.0,91.0
479,116.01504963125,117.49869273541667,46.0,86.0
480,117.41691713125,117.55710388125,53.0,86.0
481,117.69729063125,117.80827180833333,58.0,85.0
482,117.69729063125,117.92275765416666,61.0,86.0
483,117.97766413125,118.10266398333333,58.0,75.0
484,118.25803763124999,118.40990661041667,58.0,80.0
485,118.25803763124999,118.64238297083332,66.0,85.0
486,118.53841113125,118.70780345416667,58.0,75.0
487,118.81878463125,118.96598071874999,63.0,86.0
488,118.25803763124999,119.23116732083334,39.0,88.0
489,119.09915813125,119.25686822499999,58.0,82.0
490,119.37953163124999,119.51154082083333,58.0,85.0
491,119.37953163124999,119.56761552083333,46.0,76.0
492,119.37953163124999,119.74168073541667,66.0,87.0
493,119.65990513125,119.80242832708333,58.0,85.0
494,119.94027863125,120.041914025,58.0,80.0
495,119.94027863125,120.20663345624999,63.0,90.0
496,120.22065213124999,120.34798842916666,58.0,82.0
497,120.50102563125,120.77672623958333,56.0,84.0
498,120.50102563125,120.83630560833333,60.0,82.0
499,121.06177263125,121.3806974875,63.0,81.0
500,121.34214613124999,121.4648095375,56.0,84.0
501,120.78139913125,121.73817369999999,51.0,73.0
502,121.62251963125,121.74985592916666,56.0,85.0
503,121.62251963125,121.94378093333333,63.0,89.0
504,121.62251963125,121.94611737916667,60.0,95.0
505,120.50102563125,121.96364072291667,44.0,85.0
506,121.62251963125,121.99050985,68.0,84.0
507,121.90289313125,122.02438831458333,51.0,84.0
508,122.18326663124999,122.40289253958333,56.0,85.0
509,122.74401363125,122.87134992916667,56.0,84.0
510,122.74401363125,123.02321890833333,61.0,86.0
511,122.74401363125,123.02321890833333,65.0,87.0
512,123.02438713125,123.14588231458333,56.0,74.0
513,123.30476063124999,123.41691003125,56.0,61.0
514,123.30476063124999,123.63069482499999,61.0,83.0
515,123.58513413125,123.6797601875,56.0,75.0
516,123.86550763125,123.967143025,56.0,91.0
517,123.86550763125,124.04658218333333,65.0,90.0
518,124.14588113125,124.26503986875,56.0,85.0
519,122.74401363125,124.51153490416667,49.0,95.0
520,124.42625463124999,124.53139469375,61.0,93.0
521,124.70662813125,124.87368400833333,56.0,86.0
522,124.98700163125,125.09798280833333,49.0,93.0
523,124.98700163125,125.11316970624999,56.0,85.0
524,124.98700163125,125.19844997916667,61.0,85.0
525,125.26737513124999,125.41457121875,56.0,84.0
526,125.54774863125,125.72531851458334,61.0,85.0
527,125.82812213125,126.05358915416666,56.0,81.0
528,126.10849563125,126.14587876458333,56.0,70.0
529,126.10849563125,126.210131025,37.0,85.0
530,126.10849563125,126.41457003541666,61.0,87.0
531,126.10849563125,126.45428961458333,65.0,87.0
532,126.38886913124999,126.74868178958333,56.0,85.0
533,126.66924263125,126.78489669999999,61.0,90.0
534,127.22998963124999,127.359662375,58.0,85.0
535,127.22998963124999,127.51970891458333,63.0,86.0
536,127.51036313125,127.6049891875,58.0,73.0
537,127.22998963124999,127.84097021666666,39.0,89.0
538,127.79073663125,127.99050274999999,63.0,85.0
539,128.07111013125,128.18910064583332,58.0,81.0
540,128.35148363125,128.45662369375,58.0,88.0
541,128.35148363125,128.67624960208332,67.0,88.0
542,128.63185713125,128.7405018625,58.0,80.0
543,128.91223063125,129.1049874125,63.0,85.0
544,129.19260413125,129.36082823125,63.0,64.0
545,129.19260413125,129.39353847291667,58.0,83.0
546,129.47297763125,129.62951950208333,58.0,86.0
547,129.47297763125,129.78255670416667,63.0,86.0
548,129.75335113124999,130.00451905833333,58.0,77.0
549,130.03372463125,130.15989270625,63.0,79.0
550,129.47297763125,130.46363066458332,39.0,88.0
551,130.31409813125,130.47648111666666,58.0,83.0
552,130.59447163125,130.73933127291667,58.0,89.0
553,130.59447163125,130.89236847499998,63.0,98.0
554,130.87484513125,131.05825612916667,58.0,77.0
555,130.59447163125,131.17391019791665,67.0,88.0
556,131.15521863125,131.42274167916665,63.0,85.0
557,131.43559213125,131.54657330833334,58.0,85.0
558,131.71596563125,132.04540449375,57.0,83.0
559,131.71596563125,132.126011875,54.0,78.0
560,132.27671263125,132.58745992708333,61.0,80.0
561,132.27671263125,132.61199260833334,54.0,85.0
562,132.55708613125,132.64703929583334,57.0,86.0
563,132.83745963125,133.00568373125,54.0,95.0
564,132.83745963125,133.22414141666667,66.0,86.0
565,133.11783313125,133.24867409791665,54.0,82.0
566,133.39820663125,133.55241205625,61.0,84.0
567,131.99633913124998,133.65287922708333,49.0,78.0
568,131.71596563125,133.69493525208333,42.0,88.0
569,133.67858013125,133.90988826875,54.0,86.0
570,133.95895363124998,134.27554204166665,57.0,84.0
571,133.95895363124998,134.32577562708332,61.0,86.0
572,134.51970063125,134.74399943125,57.0,75.0
573,134.80007413125,134.8947001875,54.0,82.0
574,134.23932713125,134.97530756875,49.0,77.0
575,133.95895363124998,134.99399913541666,42.0,86.0
576,135.08044763125,135.18675591666667,54.0,86.0
577,135.08044763125,135.20194281458333,42.0,85.0
578,135.08044763125,135.41455938541665,57.0,91.0
579,135.08044763125,135.43909206666666,61.0,90.0
580,135.36082113125,135.49633498958332,54.0,80.0
581,135.08044763125,135.50334432708334,66.0,82.0
582,135.64119463125,135.75217580833333,57.0,86.0
583,136.20194163125,136.28955835,37.0,85.0
584,136.20194163125,136.33044615208334,56.0,85.0
585,136.20194163125,136.56058606666667,65.0,86.0
586,136.48231513125,136.65170745416665,56.0,77.0
587,136.76268863125,136.98231453958334,61.0,84.0
588,137.04306213125,137.14937041666667,56.0,82.0
589,137.32343563125,137.47063171874998,56.0,86.0
590,137.32343563125,137.79072479791665,65.0,86.0
591,137.60380913125,137.83511726875,56.0,84.0
592,137.32343563125,137.9507713375,49.0,87.0
593,137.88418263124998,138.0348833875,61.0,88.0
594,138.16455613125,138.33278023124998,56.0,85.0
595,138.41806050416668,140.51268419375,57.0,79.0
596,138.36665869583334,140.51852530833332,54.0,73.0
597,138.47063053541666,140.51852530833332,61.0,80.0
598,138.44025673958333,140.52086175416667,42.0,85.0
599,138.50801366874998,140.53955332083333,66.0,75.0
600,140.68791763125,141.04422562083332,56.0,77.0
601,140.68791763125,141.33744957291665,61.0,77.0
602,141.24866463125,141.85847699375,56.0,80.0
603,141.80941163125,141.93674792916667,65.0,86.0
604,141.80941163125,141.94726193541666,61.0,81.0
605,142.37015863125,142.51735471875,56.0,80.0
606,140.68791763125,142.61782188958333,49.0,84.0
607,142.93090563125,143.20894268541667,58.0,74.0
608,142.93090563125,143.5302039875,63.0,79.0
609,143.49165263125,143.76618501666667,58.0,78.0
610,144.05239963124998,144.27903487708332,58.0,83.0
611,142.93090563125,144.53253924999999,51.0,84.0
612,144.05239963124998,144.62132419166667,63.0,85.0
613,144.05239963124998,144.64819331875,67.0,84.0
614,144.61314663125,144.81758564166665,58.0,78.0
615,145.17389363125,145.4227251125,58.0,74.0
616,145.17389363125,145.73230418541667,66.0,78.0
617,145.17389363125,145.81174334374998,61.0,73.0
618,145.73464063125,145.85496759166665,58.0,57.0
619,146.29538763125,146.50099486458333,58.0,84.0
620,146.29538763125,146.58977980625,61.0,85.0
621,145.17389363125,146.85496640833333,42.0,84.0
622,146.29538763125,146.8596393,66.0,83.0
623,147.41688163125,148.163376075,54.0,77.0
624,147.41688163125,148.16454429791665,61.0,79.0
625,147.97762863124998,148.17622652708332,57.0,73.0
626,148.53837563125,148.69725394791666,54.0,82.0
627,148.53837563125,148.9554312125,57.0,86.0
628,147.41688163125,149.08510395625,42.0,85.0
629,148.53837563125,149.18673934999998,61.0,85.0
630,149.09912263125,149.33043076875,54.0,81.0
631,149.65986963125,150.27435488541667,65.0,84.0
632,149.65986963125,150.27785955416667,60.0,80.0
633,150.22061663124998,150.51968169791667,56.0,73.0
634,149.65986963125,150.97178396666666,41.0,85.0
635,150.78136363125,151.32108261874998,56.0,85.0
636,150.78136363125,151.37598909583332,60.0,88.0
637,151.34211063125,151.46360581458333,41.0,85.0
638,150.78136363125,151.48697027291666,65.0,85.0
639,151.90285763125,152.256829175,58.0,76.0
640,151.90285763125,152.31874498958334,61.0,77.0
641,151.90285763125,152.33510011041668,65.0,83.0
642,152.46360463125,152.78369771041667,58.0,79.0
643,152.46360463125,153.24631398541666,53.0,77.0
644,153.02435163125,153.25098687708334,58.0,82.0
645,153.02435163125,153.44374365833332,61.0,84.0
646,153.02435163125,153.46710811666665,65.0,84.0
647,151.90285763125,153.50799591875,46.0,83.0
648,153.58509863125,154.1843969875,58.0,82.0
649,154.14584563124998,154.58042455625,63.0,75.0
650,154.14584563124998,154.77902245208332,66.0,81.0
651,154.70659263125,154.87481673125,58.0,74.0
652,154.14584563124998,155.47294686458332,39.0,85.0
653,155.26733963125,155.48813376249998,58.0,81.0
654,155.26733963125,155.649348525,63.0,86.0
655,155.26733963125,155.86897443333334,66.0,84.0
656,155.82808663125,155.96243226666667,58.0,84.0
657,156.38883363125,156.83275833958334,56.0,79.0
658,156.38883363125,156.94023484791666,63.0,79.0
659,157.51032763125,157.74630866041667,56.0,84.0
660,157.51032763125,158.50448533333332,60.0,86.0
661,156.94958063125,158.50682177916667,51.0,78.0
662,157.51032763125,158.51967223124998,63.0,84.0
663,156.38883363125,158.52084045416666,44.0,84.0
664,158.07107463124999,158.55355069583334,56.0,86.0
665,158.63182163125,158.98812962083332,56.0,77.0
666,158.63182163125,159.28135357291666,61.0,77.0
667,159.19256863125,159.80238099375,56.0,80.0
668,159.75331563125,159.88065192916667,65.0,86.0
669,159.75331563125,159.89116593541667,61.0,81.0
670,160.31406263124998,160.46125871875,56.0,80.0
671,158.63182163125,160.56172588958333,49.0,84.0
672,160.87480963125,161.15284668541665,58.0,74.0
673,160.87480963125,161.4741079875,63.0,79.0
674,161.43555663125,161.71008901666667,58.0,78.0
675,161.99630363125,162.22293887708332,58.0,83.0
676,160.87480963125,162.47644325,51.0,84.0
677,161.99630363125,162.56522819166665,63.0,85.0
678,161.99630363125,162.59209731875,67.0,84.0
679,162.55705063125,162.76148964166666,58.0,78.0
680,163.11779763125,163.3666291125,58.0,74.0
681,163.11779763125,163.67620818541667,66.0,78.0
682,163.11779763125,163.75564734374998,61.0,73.0
683,163.67854463125,163.79887159166665,58.0,57.0
684,164.23929163124998,164.44489886458334,58.0,84.0
685,164.23929163124998,164.53368380625,61.0,85.0
686,163.11779763125,164.79887040833333,42.0,84.0
687,164.23929163124998,164.8035433,66.0,83.0
688,165.36078563125,166.107280075,54.0,77.0
689,165.36078563125,166.10844829791665,61.0,79.0
690,165.92153263125,166.12013052708332,57.0,73.0
691,166.48227963124998,166.64115794791667,54.0,82.0
692,166.48227963124998,166.8993352125,57.0,86.0
693,165.36078563125,167.02900795624998,42.0,85.0
694,166.48227963124998,167.13064334999999,61.0,85.0
695,167.04302663125,167.27433476874998,54.0,81.0
696,167.60377363125,168.21825888541667,65.0,84.0
697,167.60377363125,168.22176355416667,60.0,80.0
698,168.16452063124999,168.46358569791667,56.0,73.0
699,167.60377363125,168.91568796666667,41.0,85.0
700,168.72526763125,169.26498661875,56.0,85.0
701,168.72526763125,169.31989309583332,60.0,88.0
702,169.28601463125,169.40750981458334,41.0,85.0
703,168.72526763125,169.43087427291667,65.0,85.0
704,169.84676163125,170.20073317499998,58.0,76.0
705,169.84676163125,170.26264898958334,61.0,77.0
706,169.84676163125,170.27900411041665,65.0,83.0
707,170.40750863124998,170.72760171041665,58.0,79.0
708,170.40750863124998,171.19021798541667,53.0,77.0
709,170.96825563125,171.19489087708334,58.0,82.0
710,170.96825563125,171.38764765833332,61.0,84.0
711,170.96825563125,171.41101211666665,65.0,84.0
712,169.84676163125,171.45189991875,46.0,83.0
713,171.52900263125,172.12830098749998,58.0,82.0
714,172.08974963125,172.52432855625,63.0,75.0
715,172.08974963125,172.72292645208333,66.0,81.0
716,172.65049663125,172.81872073124998,58.0,74.0
717,172.08974963125,173.41685086458332,39.0,85.0
718,173.21124363125,173.4320377625,58.0,81.0
719,173.21124363125,173.593252525,63.0,86.0
720,173.21124363125,173.81287843333334,66.0,84.0
721,173.77199063125,173.90633626666667,58.0,84.0
722,174.33273763124998,174.87362484166667,56.0,80.0
723,174.33273763124998,174.96357800625,63.0,80.0
724,174.33273763124998,175.00329758541668,44.0,85.0
725,174.89348463125,175.07455918333332,51.0,85.0
726,175.45423163125,175.76147425833332,57.0,77.0
727,175.45423163125,175.97525905208332,45.0,85.0
728,175.45423163125,175.99161417291666,63.0,84.0
729,175.45423163125,176.00095995625,60.0,85.0
730,176.01497863125,176.144651375,57.0,85.0
731,176.57572563124998,177.31988362916667,65.0,83.0
732,176.57572563124998,177.32806118958334,61.0,81.0
733,176.57572563124998,177.33507052708333,58.0,78.0
734,177.69721963125,177.90282686458332,58.0,85.0
735,177.69721963125,178.23460217291665,61.0,91.0
736,177.13647263125,178.27782642083332,53.0,73.0
737,176.57572563124998,178.29768621041666,46.0,85.0
738,177.69721963125,178.32689178333334,65.0,88.0
739,178.25796663124999,178.38880759791667,58.0,90.0
740,178.81871363125,179.43319888541666,63.0,84.0
741,178.81871363125,179.47175024166665,56.0,82.0
742,179.37946063125,180.05819814583333,51.0,79.0
743,179.94020763125,180.33039408541666,56.0,86.0
744,179.94020763125,180.40399212916665,68.0,82.0
745,180.50095463124998,180.9039915375,63.0,84.0
746,180.22058113125,180.91100087499998,51.0,70.0
747,178.81871363125,180.92618777291665,44.0,85.0
748,181.06170163125,181.58857016666667,58.0,80.0
749,181.06170163125,181.78599983958333,54.0,82.0
750,181.62244863125,182.26263478958333,49.0,73.0
751,182.18319563125,182.55469051875,58.0,86.0
752,182.18319563125,182.80118555416666,61.0,85.0
753,182.46356913124998,182.96824143125,49.0,77.0
754,182.74394263125,183.03015724583332,54.0,86.0
755,181.06170163125,183.04884881249998,42.0,84.0
756,183.30468963125,183.97524958541666,53.0,81.0
757,183.30468963125,183.98576359166665,56.0,78.0
758,183.86543663125,184.19253904791665,60.0,76.0
759,184.42618363124998,184.72758514375,53.0,87.0
760,183.30468963125,184.780155175,41.0,86.0
761,184.42618363124998,184.8292205375,56.0,86.0
762,184.70655713124998,184.86543544791667,48.0,80.0
763,184.42618363124998,184.90982791874998,65.0,86.0
764,184.42618363124998,184.9343606,60.0,86.0
765,184.98693063125,185.13412671875,53.0,95.0
766,185.54767763125,185.67034103749998,39.0,86.0
767,185.54767763125,185.72174284583332,58.0,80.0
768,185.82805113125,185.89580806041667,58.0,68.0
769,185.54767763125,186.01847146666665,66.0,84.0
770,186.10842463125,186.37477945625,63.0,76.0
771,186.66917163124998,186.7918350375,58.0,84.0
772,186.94954513125,187.0651992,58.0,76.0
773,186.66917163124998,187.0722085375,66.0,82.0
774,187.22991863125,187.41800252083334,63.0,84.0
775,187.79066563125,187.97874952083333,58.0,86.0
776,187.79066563125,188.14346895208334,66.0,84.0
777,188.35141263124999,188.58973010625,63.0,74.0
778,186.66917163124998,188.61893567916667,51.0,88.0
779,188.63178613124998,188.75211309166667,58.0,78.0
780,188.91215963125,189.04416882083333,58.0,84.0
781,188.91215963125,189.26846762083332,51.0,91.0
782,188.91215963125,189.28715918749998,66.0,85.0
783,189.19253313125,189.3081872,58.0,84.0
784,189.47290663125,189.73225211874998,63.0,84.0
785,189.75328013125,189.88879398958332,58.0,72.0
786,190.03365363125,190.37594294583332,56.0,80.0
787,190.03365363125,190.41449430208334,63.0,79.0
788,190.59440063124998,190.80584897916665,60.0,85.0
789,191.15514763125,191.3338857375,56.0,84.0
790,191.15514763125,191.43435290833332,63.0,85.0
791,191.43552113125,191.62360502083334,56.0,84.0
792,191.71589463125,191.88528695416667,60.0,86.0
793,190.31402713125,192.03365126458334,51.0,78.0
794,190.03365363125,192.04650171666665,44.0,84.0
795,191.99626813125,192.16215578541667,56.0,88.0
796,192.27664163125,192.35257612083333,56.0,77.0
797,192.27664163125,192.6095851625,60.0,88.0
798,192.27664163125,192.64696829583332,63.0,86.0
799,192.27664163125,192.64930474166667,68.0,84.0
800,193.11776213125,193.24860309791666,56.0,85.0
801,192.27664163125,193.26378999583332,44.0,87.0
802,192.83738863125,193.29182734583333,51.0,71.0
803,193.39813563125,193.70537825833333,60.0,93.0
804,193.39813563125,193.71822871041667,56.0,86.0
805,193.39813563125,193.75794828958334,63.0,87.0
806,193.95888263125,194.30350839166667,56.0,91.0
807,193.67850913125,194.37944288125,51.0,86.0
808,193.39813563125,194.38177932708334,44.0,89.0
809,194.51962963124998,194.67266683333332,58.0,80.0
810,194.51962963124998,194.929675875,66.0,84.0
811,194.80000313124998,194.94252632708333,58.0,76.0
812,195.08037663125,195.2731334125,61.0,84.0
813,194.51962963124998,195.36892769166667,42.0,85.0
814,195.36075013125,195.50560977291667,58.0,80.0
815,195.64112363125,195.78247860416667,58.0,85.0
816,195.64112363125,195.7871514958333,42.0,85.0
817,195.64112363125,196.0301418625,66.0,85.0
818,195.92149713125,196.09906701458334,58.0,72.0
819,196.20187063125,196.49042169166665,61.0,90.0
820,196.48224413124998,196.6493000083333,58.0,80.0
821,196.76261763124998,196.90981371875,56.0,84.0
822,196.76261763124998,197.00210332916666,60.0,85.0
823,197.04299113125,197.15981342291667,56.0,82.0
824,196.76261763124998,197.60607457708332,44.0,85.0
825,197.32336463125,197.65747638541666,63.0,81.0
826,197.60373813125,197.78130801458332,56.0,83.0
827,197.88411163125,197.957709675,56.0,79.0
828,197.88411163125,198.14929823333333,68.0,80.0
829,197.88411163125,198.19135425833332,60.0,95.0
830,197.88411163125,198.20770937916666,63.0,85.0
831,198.16448513125,198.29065320625,56.0,79.0
832,197.88411163125,198.44602685416666,51.0,83.0
833,197.88411163125,198.5114473375,44.0,82.0
834,198.44485863124999,198.58387715833334,60.0,85.0
835,198.44485863124999,198.61425095416666,63.0,82.0
836,198.72523213124998,198.8198581875,56.0,85.0
837,199.00560563125,199.1843437375,53.0,79.0
838,199.00560563125,199.33621271666667,56.0,78.0
839,199.28597913125,199.46822190625,53.0,84.0
840,199.56635263125,199.90163260833333,60.0,80.0
841,199.84672613125,199.95653908541667,56.0,84.0
842,199.00560563125,200.00677267083333,41.0,87.0
843,200.12709963125,200.32219285833332,53.0,90.0
844,200.12709963125,200.4880805125,65.0,85.0
845,200.12709963125,200.68667840833334,41.0,88.0
846,200.40747313125,200.73223910208333,60.0,77.0
847,200.68784663124998,201.0207901625,53.0,86.0
848,200.96822013125,201.10373398958333,56.0,85.0
849,201.24859363125,201.51962134791665,58.0,78.0
850,201.24859363125,201.55233158958333,61.0,86.0
851,201.80934063125,202.06868611874998,58.0,76.0
852,201.52896713125,202.43784456041666,53.0,76.0
853,201.24859363125,202.47289124791666,46.0,84.0
854,202.37008763125,202.65630224583333,61.0,89.0
855,202.37008763125,202.66447980625,58.0,84.0
856,202.37008763125,202.68083492708334,65.0,91.0
857,202.65046113124998,202.8432179125,53.0,85.0
858,202.93083463124998,203.30466596458334,58.0,88.0
859,203.21120813125,203.39461912916667,61.0,85.0
860,203.49158163125,203.67265618333332,58.0,80.0
861,203.49158163125,203.81517937916666,63.0,83.0
862,203.77195513125,203.89929142916665,58.0,71.0
863,204.05232863125,204.37592637916666,63.0,83.0
864,204.33270213125,204.46354309791667,58.0,78.0
865,203.49158163125,204.57802894374998,39.0,86.0
866,204.61307563124998,204.770785725,58.0,86.0
867,204.61307563124998,204.80466418958332,46.0,84.0
868,204.61307563124998,204.90279491458332,66.0,84.0
869,204.89344913124998,205.0161125375,58.0,84.0
870,205.17382263125,205.39928965416667,63.0,86.0
871,205.45419613125,205.60372866458331,58.0,79.0
872,205.73456963125,205.93083108125,56.0,84.0
873,205.73456963125,205.99041044999998,60.0,82.0
874,206.01494313125,206.14928876666667,56.0,83.0
875,206.29531663125,206.453026725,63.0,84.0
876,205.73456963125,206.4658771770833,44.0,85.0
877,206.57569013124998,206.7427460083333,56.0,84.0
878,206.85606363124998,206.99858682708333,56.0,86.0
879,206.85606363124998,207.22288562708331,68.0,83.0
880,207.13643713125,207.26844632083333,56.0,85.0
881,206.85606363124998,207.26961454374998,51.0,79.0
882,207.41681063125,207.73106259583332,63.0,86.0
883,207.69718413125,207.82218398333333,56.0,86.0
884,207.97755763125,208.1002210375,56.0,85.0
885,207.97755763125,208.2544264625,61.0,85.0
886,208.25793113125,208.39344498958332,56.0,78.0
887,208.53830463124999,208.85839771041665,61.0,81.0
888,208.81867813124998,208.96704244166665,56.0,77.0
889,209.09905163125,209.22521970625,56.0,86.0
890,207.97755763125,209.47171474166666,49.0,90.0
891,209.09905163125,209.49624742291667,65.0,95.0
892,209.37942513125,209.56984546666666,56.0,83.0
893,209.65979863125,209.84320962916667,61.0,84.0
894,209.94017213125,210.08970466458334,56.0,82.0
895,210.22054563125,210.38993795416667,56.0,85.0
896,210.22054563125,210.58269473541665,59.0,86.0
897,210.50091913125,210.69017124375,56.0,76.0
898,210.78129263124998,210.92381582708333,59.0,85.0
899,210.22054563125,211.10956327083332,49.0,93.0
900,211.06166613125,211.21820800208332,56.0,86.0
901,211.34203963125,211.49157216458332,56.0,85.0
902,211.34203963125,211.65161870416665,49.0,95.0
903,211.34203963125,211.73339430833332,65.0,91.0
904,211.62241313125,211.76493632708332,56.0,76.0
905,211.90278663125,212.01259958541667,56.0,84.0
906,211.90278663125,212.17381434791665,61.0,86.0
907,212.18316013125,212.30932820625,56.0,75.0
908,212.46353363125,212.6282530625,54.0,84.0
909,212.46353363125,212.73689779375,58.0,82.0
910,212.74390713124998,212.89694433333332,54.0,77.0
911,213.02428063124998,213.25558876875,61.0,82.0
912,213.30465413125,213.42498109166667,54.0,82.0
913,212.46353363125,213.48689690625,42.0,85.0
914,213.58502763125,213.64460699999998,54.0,79.0
915,213.58502763125,213.73923305625,42.0,85.0
916,213.58502763125,213.89110203541665,58.0,87.0
917,213.58502763125,213.90628893333331,61.0,88.0
918,213.58502763125,213.91446649374998,66.0,82.0
919,213.86540113125,214.02661589375,54.0,78.0
920,214.14577463125,214.40979301041665,58.0,75.0
921,214.14577463125,214.51376485,61.0,73.0
922,214.42614813125,214.55231620625,54.0,83.0
923,214.70652163124998,215.03829693958332,56.0,84.0
924,214.70652163124998,215.07801651875,60.0,84.0
925,215.26726863125,215.57217481249998,63.0,83.0
926,215.54764213125,215.67381020624998,56.0,85.0
927,214.98689513124998,215.9646977125,51.0,79.0
928,215.82801563125,215.9646977125,56.0,90.0
929,215.82801563125,216.03829575625,68.0,84.0
930,216.10838913125,216.26142633333333,51.0,80.0
931,214.70652163124998,216.33969726875,44.0,85.0
932,216.38876263125,216.55231383958332,60.0,82.0
933,216.38876263125,216.55231383958332,63.0,84.0
934,216.66913613124999,216.77310797083334,56.0,82.0
935,216.94950963124998,217.34203253125,56.0,84.0
936,216.94950963124998,217.34320075416667,53.0,86.0
937,217.51025663125,217.80348058333334,60.0,80.0
938,217.79063013125,217.89577019375,56.0,82.0
939,218.07100363125,218.20184459791665,53.0,90.0
940,217.22988313125,218.24506884583332,48.0,71.0
941,218.07100363125,218.39810604791666,65.0,87.0
942,218.35137713125,218.54997502708332,48.0,76.0
943,216.94950963124998,218.59670394375,41.0,86.0
944,218.63175063125,218.77544204999998,56.0,86.0
945,218.63175063125,218.80464762291666,60.0,85.0
946,218.91212413124998,219.0067501875,53.0,91.0
947,219.19249763125,219.63642233958333,61.0,84.0
948,219.19249763125,219.65394568333332,58.0,84.0
949,219.47287113125,219.89810427291667,53.0,79.0
950,219.75324463125,219.92146873125,61.0,84.0
951,219.75324463125,220.03829102291667,65.0,85.0
952,220.03361813125,220.13174885625,58.0,72.0
953,220.03361813125,220.36072054791666,53.0,80.0
954,220.31399163125,220.5908604625,58.0,87.0
955,220.31399163125,220.61656136666667,70.0,83.0
956,220.31399163125,220.63174826458334,61.0,91.0
957,219.19249763125,220.67614073541665,46.0,86.0
958,220.59436513125,220.73455188124998,53.0,86.0
959,220.87473863124998,220.98571980833333,58.0,85.0
960,220.87473863124998,221.10020565416667,61.0,86.0
961,221.15511213124998,221.2801119833333,58.0,75.0
962,221.43548563125,221.58735461041667,58.0,80.0
963,221.43548563125,221.81983097083332,66.0,85.0
964,221.71585913125,221.88525145416665,58.0,75.0
965,221.99623263125,222.14342871875,63.0,86.0
966,221.43548563125,222.40861532083332,39.0,88.0
967,222.27660613125,222.434316225,58.0,82.0
968,222.55697963125,222.68898882083332,58.0,85.0
969,222.55697963125,222.74506352083333,46.0,76.0
970,222.55697963125,222.91912873541665,66.0,87.0
971,222.83735313124998,222.97987632708333,58.0,85.0
972,223.11772663124998,223.21936202499998,58.0,80.0
973,223.11772663124998,223.38408145625,63.0,90.0
974,223.39810013125,223.52543642916666,58.0,82.0
975,223.67847363125,223.95417423958332,56.0,84.0
976,223.67847363125,224.01375360833333,60.0,82.0
977,224.23922063125,224.55814548749998,63.0,81.0
978,224.51959413125,224.6422575375,56.0,84.0
979,223.95884713125,224.9156217,51.0,73.0
980,224.79996763124998,224.92730392916667,56.0,85.0
981,224.79996763124998,225.12122893333333,63.0,89.0
982,224.79996763124998,225.12356537916665,60.0,95.0
983,223.67847363125,225.14108872291666,44.0,85.0
984,224.79996763124998,225.16795785,68.0,84.0
985,225.08034113124998,225.20183631458332,51.0,84.0
986,225.36071463125,225.58034053958332,56.0,85.0
987,225.92146163125,226.06398482708332,56.0,84.0
988,225.92146163125,226.35370411041666,65.0,86.0
989,226.20183513125,226.53244221666665,56.0,75.0
990,226.48220863125,226.78244192083332,61.0,84.0
991,226.76258213124999,226.83968484374998,56.0,66.0
992,227.04295563124998,227.18664705,56.0,90.0
993,227.04295563124998,227.41795518749998,63.0,88.0
994,227.32332913125,227.55463726874999,56.0,84.0
995,227.60370263125,227.89108546875,61.0,90.0
996,225.92146163125,228.04061800208333,49.0,88.0
997,227.88407613125,228.04178622499998,56.0,81.0
998,228.16444963125,228.31047749583334,56.0,86.0
999,228.16444963125,228.50907539166667,61.0,89.0
1000,228.16444963125,228.52192584374998,65.0,90.0
1001,228.44482313125,228.58500988125,56.0,84.0
1002,228.72519663125,228.79879467499998,56.0,85.0
1003,228.16444963125,228.82099091041667,49.0,95.0
1004,228.72519663125,228.88057027916665,61.0,91.0
1005,228.72519663125,228.91912163541667,65.0,87.0
1006,229.00557013124998,229.16094377916667,56.0,85.0
1007,229.28594363125,229.60603671041665,60.0,87.0
1008,229.28594363125,229.62122360833334,56.0,88.0
1009,229.28594363125,229.65977496458333,63.0,85.0
1010,229.56631713125,230.30346579166667,51.0,84.0
1011,229.84669063125,230.32332558125,56.0,91.0
1012,229.28594363125,230.32449380416665,44.0,90.0
1013,230.12706413125,230.34785826249998,60.0,87.0
1014,230.40743763125,231.02542755416667,61.0,83.0
1015,230.40743763125,232.443650175,42.0,84.0
1016,230.68781113125,232.49855665208332,49.0,72.0
1017,230.96818463124998,232.56748180416665,54.0,76.0
1018,231.24855813124998,232.72869656666666,61.0,80.0
1019,231.52893163125,232.948322475,66.0,76.0
1020,233.21117263124998,234.3011246125,56.0,79.0
1021,233.49154613125,234.30813394999998,63.0,81.0
1022,232.93079913124998,234.35953575833332,51.0,74.0
1023,232.65042563125,234.40860112083334,44.0,83.0
1024,234.89341363124998,235.21701137916665,56.0,78.0
1025,234.89341363124998,235.46350641458332,60.0,81.0
1026,235.45416063125,236.35018760833333,56.0,80.0
1027,235.17378713124998,236.44715011041666,48.0,71.0
1028,234.89341363124998,236.49621547291665,41.0,85.0
1029,235.73453413125,236.60135553541667,60.0,85.0
1030,236.57565463125,236.75322451458334,56.0,78.0
1031,236.29528113125,236.84785057083332,65.0,86.0
1032,237.13640163124998,237.49971895833332,58.0,79.0
1033,237.13640163124998,237.76957845208332,61.0,80.0
1034,237.69714863125,238.0219146020833,65.0,80.0
1035,237.97752213125,238.62588585,70.0,86.0
1036,238.53826913125,238.83499775208332,61.0,84.0
1037,237.41677513125,238.84434353541667,53.0,75.0
1038,237.13640163124998,238.90275468125,46.0,85.0
1039,238.53826913125,238.99504429166666,65.0,84.0
1040,238.81864263125,239.04060498541665,58.0,72.0
1041,239.37938963124998,239.53242683333332,58.0,79.0
1042,239.37938963124998,239.69130515,63.0,85.0
1043,239.37938963124998,239.88172548541667,51.0,90.0
1044,239.65976313125,240.07331404375,58.0,83.0
1045,239.94013663125,240.10836073125,63.0,84.0
1046,240.22051013125,240.8758831875,66.0,84.0
1047,240.22051013125,240.8817243020833,63.0,86.0
1048,240.22051013125,240.88639719374999,58.0,80.0
1049,241.62237763125,241.94247071041667,56.0,79.0
1050,241.62237763125,242.22985354791666,63.0,81.0
1051,242.46349813125,242.87120792916667,63.0,85.0
1052,242.18312463125,242.88989949583333,56.0,85.0
1053,241.90275113125,243.11770296458332,51.0,82.0
1054,241.62237763125,243.20181501458333,44.0,84.0
1055,243.02424513124998,243.32447842083332,56.0,89.0
1056,243.02424513124998,243.71116020624999,68.0,83.0
1057,243.02424513124998,243.71700132083333,63.0,90.0
1058,243.30461863124998,243.78008535833334,44.0,80.0
1059,243.30461863124998,243.78475824999998,51.0,100.0
1060,243.58499213125,243.81630026874998,56.0,91.0
1061,243.86536563125,243.98802903749998,56.0,85.0
1062,243.86536563125,244.1422344625,61.0,85.0
1063,244.14573913125,244.28125298958332,56.0,78.0
1064,244.42611263125,244.74620571041666,61.0,81.0
1065,244.70648613125,244.85485044166666,56.0,77.0
1066,244.98685963124998,245.11302770625,56.0,86.0
1067,243.86536563125,245.35952274166667,49.0,90.0
1068,244.98685963124998,245.38405542291665,65.0,95.0
1069,245.26723313124998,245.45765346666667,56.0,83.0
1070,245.54760663125,245.73101762916667,61.0,84.0
1071,245.82798013125,245.97751266458332,56.0,82.0
1072,246.10835363125,246.27774595416665,56.0,85.0
1073,246.10835363125,246.47050273541666,59.0,86.0
1074,246.38872713125,246.57797924374998,56.0,76.0
1075,246.66910063125,246.81162382708334,59.0,85.0
1076,246.10835363125,246.99737127083333,49.0,93.0
1077,246.94947413124999,247.10601600208332,56.0,86.0
1078,247.22984763124998,247.37938016458332,56.0,85.0
1079,247.22984763124998,247.53942670416666,49.0,95.0
1080,247.22984763124998,247.62120230833332,65.0,91.0
1081,247.51022113125,247.65274432708333,56.0,76.0
1082,247.79059463125,247.90040758541664,56.0,84.0
1083,247.79059463125,248.06162234791665,61.0,86.0
1084,248.07096813125,248.19713620624998,56.0,75.0
1085,248.35134163125,248.5160610625,54.0,84.0
1086,248.35134163125,248.62470579375,58.0,82.0
1087,248.63171513125,248.78475233333333,54.0,77.0
1088,248.91208863125,249.14339676875,61.0,82.0
1089,249.19246213124998,249.31278909166664,54.0,82.0
1090,248.35134163125,249.37470490625,42.0,85.0
1091,249.47283563124998,249.532415,54.0,79.0
1092,249.47283563124998,249.62704105625,42.0,85.0
1093,249.47283563124998,249.77891003541666,58.0,87.0
1094,249.47283563124998,249.79409693333332,61.0,88.0
1095,249.47283563124998,249.80227449375,66.0,82.0
1096,249.75320913125,249.91442389374998,54.0,78.0
1097,250.03358263125,250.29760101041666,58.0,75.0
1098,250.03358263125,250.40157284999998,61.0,73.0
1099,250.31395613125,250.44012420625,54.0,83.0
1100,250.59432963125,250.92610493958333,56.0,84.0
1101,250.59432963125,250.96582451875,60.0,84.0
1102,251.15507663124998,251.4599828125,63.0,83.0
1103,251.43545013124998,251.56161820625,56.0,85.0
1104,250.87470313125,251.8525057125,51.0,79.0
1105,251.71582363125,251.8525057125,56.0,90.0
1106,251.71582363125,251.92610375625,68.0,84.0
1107,251.99619713125,252.1492343333333,51.0,80.0
1108,250.59432963125,252.22750526874998,44.0,85.0
1109,252.27657063125,252.44012183958333,60.0,82.0
1110,252.27657063125,252.44012183958333,63.0,84.0
1111,252.55694413125,252.66091597083332,56.0,82.0
1112,252.83731763125,253.22984053125,56.0,84.0
1113,252.83731763125,253.23100875416665,53.0,86.0
1114,253.39806463124998,253.69128858333332,60.0,80.0
1115,253.67843813125,253.78357819375,56.0,82.0
1116,253.95881163125,254.08965259791665,53.0,90.0
1117,253.11769113124998,254.13287684583332,48.0,71.0
1118,253.95881163125,254.28591404791666,65.0,87.0
1119,254.23918513125,254.43778302708333,48.0,76.0
1120,252.83731763125,254.48451194375,41.0,86.0
1121,254.51955863125,254.66325005,56.0,86.0
1122,254.51955863125,254.69245562291667,60.0,85.0
1123,254.79993213125,254.8945581875,53.0,91.0
1124,255.08030563124998,255.5242303395833,61.0,84.0
1125,255.08030563124998,255.54175368333333,58.0,84.0
1126,255.36067913124998,255.78591227291665,53.0,79.0
1127,255.64105263125,255.80927673124998,61.0,84.0
1128,255.64105263125,255.92609902291665,65.0,85.0
1129,255.92142613125,256.01955685625,58.0,72.0
1130,255.92142613125,256.24852854791664,53.0,80.0
1131,256.20179963124997,256.47866846249997,58.0,87.0
1132,256.20179963124997,256.50436936666665,70.0,83.0
1133,256.20179963124997,256.51955626458334,61.0,91.0
1134,255.08030563124998,256.56394873541666,46.0,86.0
1135,256.48217313124997,256.62235988125,53.0,86.0
1136,256.76254663125,256.87352780833334,58.0,85.0
1137,256.76254663125,256.98801365416665,61.0,86.0
1138,257.04292013125,257.1679199833333,58.0,75.0
1139,257.32329363125,257.47516261041665,58.0,80.0
1140,257.32329363125,257.70763897083333,66.0,85.0
1141,257.60366713125,257.7730594541667,58.0,75.0
1142,257.88404063125,258.03123671875,63.0,86.0
1143,257.32329363125,258.2964233208333,39.0,88.0
1144,258.16441413125,258.322124225,58.0,82.0
1145,258.44478763125,258.57679682083335,58.0,85.0
1146,258.44478763125,258.6328715208333,46.0,76.0
1147,258.44478763125,258.8069367354167,66.0,87.0
1148,258.72516113125,258.86768432708334,58.0,85.0
1149,259.00553463125,259.107170025,58.0,80.0
1150,259.00553463125,259.27188945625,63.0,90.0
1151,259.28590813125,259.41324442916664,58.0,82.0
1152,259.56628163125,259.84198223958333,56.0,84.0
1153,259.56628163125,259.90156160833334,60.0,82.0
1154,260.12702863124997,260.4459534875,63.0,81.0
1155,260.40740213124997,260.5300655375,56.0,84.0
1156,259.84665513125,260.8034297,51.0,73.0
1157,260.68777563125,260.8151119291667,56.0,85.0
1158,260.68777563125,261.00903693333333,63.0,89.0
1159,260.68777563125,261.0113733791667,60.0,95.0
1160,259.56628163125,261.02889672291667,44.0,85.0
1161,260.68777563125,261.05576585,68.0,84.0
1162,260.96814913125,261.0896443145833,51.0,84.0
1163,261.24852263125,261.4681485395833,56.0,85.0
1164,261.80926963125,261.92492369999997,37.0,79.0
1165,261.80926963125,262.09431602291664,56.0,81.0
1166,261.80926963125,262.44828756666664,65.0,85.0
1167,262.37001663125,262.7052966083333,56.0,85.0
1168,262.93076363125,263.19244556458335,56.0,80.0
1169,262.93076363125,263.5066975291667,63.0,78.0
1170,262.93076363125,263.7099683166667,49.0,82.0
1171,263.49151063125,263.82679060833334,56.0,81.0
1172,264.05225763125,264.64805131875,61.0,79.0
1173,264.05225763125,264.66440643958333,65.0,84.0
1174,264.61300463124996,265.27772347083334,56.0,85.0
1175,264.05225763125,265.5265549520833,49.0,85.0
1176,265.17375163125,265.76253598125,61.0,85.0
1177,265.17375163125,265.76837709583333,65.0,85.0
1178,265.73449863125,265.8443115854167,56.0,89.0
1179,266.29524563125,266.58146024583334,58.0,74.0
1180,266.29524563125,266.75786190625,63.0,77.0
1181,266.29524563125,266.85716085416664,67.0,73.0
1182,266.85599263125,267.10599233541666,58.0,77.0
1183,266.29524563125,267.39454339583335,39.0,86.0
1184,267.41673963125,267.56393571875,63.0,79.0
1185,267.41673963125,267.57444972499997,58.0,77.0
1186,267.41673963125,267.6573935520833,67.0,75.0
1187,267.97748663125,268.6246821270833,58.0,84.0
1188,268.53823363124997,269.1048217458333,51.0,84.0
1189,268.53823363124997,269.16673756041666,67.0,74.0
1190,268.53823363124997,269.1714104520833,63.0,79.0
1191,269.09898063125,269.4879988625,58.0,84.0
1192,269.65972763125,270.43309120208335,63.0,84.0
1193,269.65972763125,270.43893231666664,67.0,82.0
1194,270.22047463125,270.59196951875,58.0,72.0
1195,270.78122163125,271.08612781249997,54.0,59.0
1196,270.78122163125,271.44126757916666,57.0,65.0
1197,270.78122163125,271.48449182708333,61.0,69.0
1198,271.34196863125,271.61065990208334,54.0,78.0
1199,271.90271563125,272.08028551458335,54.0,82.0
1200,270.78122163125,272.22981804791664,42.0,84.0
1201,271.90271563125,272.3174347666667,57.0,87.0
1202,271.90271563125,272.40154681666667,61.0,84.0
1203,272.46346263124997,272.95177981041667,54.0,84.0
1204,273.02420963125,273.81159187708334,54.0,82.0
1205,273.02420963125,273.8898628125,61.0,81.0
1206,273.58495663125,274.29757261041664,49.0,76.0
1207,273.02420963125,274.42374068541665,42.0,84.0
1208,274.14570363125,274.42841357708335,54.0,80.0
1209,274.14570363125,274.4926658375,61.0,81.0
1210,274.14570363125,274.54523586875,66.0,80.0
1211,274.70645063125,274.8221047,42.0,83.0
1212,275.228646275,275.36532835625,37.0,84.0
1213,275.09196419375,275.6935989958333,56.0,65.0
1214,275.18191735833335,275.8291128541667,61.0,72.0
1215,275.2450013958333,276.01252385208335,65.0,74.0
1216,276.350140275,276.89803682291665,63.0,85.0
1217,276.8816817020833,277.05341047083334,65.0,88.0
1218,277.42607358124997,277.60948457916663,65.0,78.0
1219,277.38168111041665,277.64102659791666,61.0,69.0
1220,277.5160267458333,278.1515400125,68.0,75.0
1221,278.09312886666663,279.1421930458333,61.0,75.0
1222,279.04523054375,279.17957617916665,68.0,42.0
1223,279.12466970208334,279.26836112083333,73.0,81.0
1224,277.45177448541665,279.73681851041664,56.0,61.0
1225,275.75084191875,279.7578465229167,49.0,85.0
