,start,end,pitch,velocity
0,21.65398609791667,22.18969959791667,71.0,119.0
1,22.18969959791667,22.991037708333337,70.0,119.0
2,22.993269847916668,23.258894458333337,70.0,116.0
3,23.261126597916668,23.528983347916668,70.0,116.0
4,23.528983347916668,23.796840097916668,71.0,113.0
5,23.796840097916668,24.062464708333337,73.0,110.0
6,24.06469684791667,24.86826709791667,73.0,113.0
7,24.86826709791667,25.133891708333337,68.0,98.0
8,25.13612384791667,25.67183734791667,68.0,100.0
9,25.67183734791667,26.20755084791667,73.0,116.0
10,26.20755084791667,27.276745708333337,71.0,114.0
11,27.27897784791667,27.544602458333337,71.0,100.0
12,27.54683459791667,27.81469134791667,71.0,107.0
13,27.81469134791667,28.08254809791667,73.0,108.0
14,28.08254809791667,28.348172708333337,71.0,93.0
15,28.35040484791667,28.88611834791667,71.0,107.0
16,28.88611834791667,30.22540209791667,70.0,110.0
17,30.22540209791667,30.76111559791667,66.0,113.0
18,30.76111559791667,31.562453708333337,75.0,110.0
19,31.56468584791667,31.830310458333336,75.0,114.0
20,31.83254259791667,32.10039934791667,75.0,113.0
21,32.10039934791667,32.36825609791667,73.0,108.0
22,32.36825609791667,32.63611284791667,71.0,96.0
23,32.63611284791667,33.437450958333336,73.0,116.0
24,33.43968309791667,33.70753984791667,73.0,108.0
25,33.70753984791667,34.24325334791667,66.0,96.0
26,34.24325334791667,34.51111009791667,68.0,100.0
27,34.51111009791667,34.77896684791667,70.0,98.0
28,34.77896684791667,36.116018458333336,71.0,108.0
29,36.11825059791667,36.38610734791667,71.0,114.0
30,36.38610734791667,36.92182084791667,73.0,114.0
31,36.92182084791667,37.18967759791667,71.0,102.0
32,37.18967759791667,37.72539109791667,70.0,114.0
33,37.72539109791667,38.79681809791667,68.0,107.0
34,38.79681809791667,39.33253159791667,71.0,113.0
35,39.33253159791667,40.133869708333336,70.0,110.0
36,40.13610184791667,40.401726458333336,70.0,108.0
37,40.40395859791667,40.67181534791667,70.0,113.0
38,40.67181534791667,40.93967209791667,71.0,102.0
39,40.93967209791667,41.205296708333336,73.0,107.0
40,41.20752884791667,42.01109909791667,73.0,107.0
41,42.01109909791667,42.276723708333336,68.0,96.0
42,42.27895584791667,42.81466934791667,68.0,102.0
43,42.81466934791667,43.35038284791667,73.0,107.0
44,43.35038284791667,44.41957770833334,71.0,108.0
45,44.42180984791667,44.68743445833334,71.0,104.0
46,44.68966659791667,44.95752334791667,71.0,107.0
47,44.95752334791667,45.22538009791667,73.0,108.0
48,45.22538009791667,45.49100470833334,71.0,92.0
49,45.49323684791667,46.02895034791667,71.0,114.0
50,46.02895034791667,47.36823409791667,70.0,108.0
51,47.36823409791667,47.90394759791667,66.0,108.0
52,47.90394759791667,48.70528570833334,75.0,110.0
53,48.70751784791668,48.97314245833334,75.0,104.0
54,48.97537459791668,49.24323134791668,75.0,104.0
55,49.24323134791668,49.51108809791668,73.0,91.0
56,49.51108809791668,49.77894484791668,71.0,94.0
57,49.77894484791668,50.31465834791668,73.0,113.0
58,50.31465834791668,50.582515097916676,75.0,113.0
59,50.582515097916676,50.850371847916676,77.0,116.0
60,50.850371847916676,51.386085347916676,78.0,119.0
61,51.386085347916676,51.653942097916676,80.0,114.0
62,51.653942097916676,51.921798847916676,82.0,116.0
63,51.921798847916676,52.99099370833334,83.0,120.0
64,52.993225847916676,53.25885045833334,83.0,117.0
65,53.261082597916676,53.528939347916676,83.0,116.0
66,53.528939347916676,54.064652847916676,82.0,114.0
67,54.064652847916676,54.332509597916676,78.0,114.0
68,54.332509597916676,57.011077097916676,80.0,117.0
69,57.011077097916676,57.546790597916676,73.0,119.0
70,57.546790597916676,58.082504097916676,83.0,117.0
71,58.082504097916676,58.34812870833334,82.0,110.0
72,58.350360847916676,58.886074347916676,82.0,116.0
73,58.886074347916676,59.41955570833334,73.0,117.0
74,59.421787847916676,59.68741245833334,73.0,114.0
75,59.689644597916676,59.957501347916676,73.0,117.0
76,59.957501347916676,60.225358097916676,70.0,114.0
77,60.225358097916676,60.493214847916676,73.0,117.0
78,60.493214847916676,61.028928347916676,80.0,114.0
79,61.028928347916676,61.564641847916675,78.0,108.0
80,61.564641847916675,62.368212097916675,83.0,107.0
81,62.368212097916675,62.63383670833334,82.0,114.0
82,62.636068847916675,63.439639097916675,82.0,114.0
83,63.439639097916675,63.70526370833334,73.0,108.0
84,63.707495847916675,64.24320934791668,73.0,110.0
85,64.24320934791668,64.51106609791668,70.0,110.0
86,64.51106609791668,64.77892284791668,73.0,108.0
87,64.77892284791668,65.31463634791668,80.0,116.0
88,65.31463634791668,65.84811770833335,78.0,117.0
89,65.85034984791668,66.38606334791668,78.0,116.0
90,66.38606334791668,66.92177684791668,73.0,116.0
91,66.92177684791668,67.99097170833335,75.0,114.0
92,67.99320384791667,68.25882845833334,75.0,107.0
93,68.26106059791668,68.53338162708334,75.0,107.0
94,68.52891734791667,68.79677409791668,77.0,106.0
95,68.79677409791668,69.06463084791667,78.0,108.0
96,69.06463084791667,69.60034434791667,80.0,114.0
97,69.60034434791667,69.86820109791668,73.0,110.0
98,69.86820109791668,70.13605784791667,80.0,116.0
99,70.13605784791667,70.66953920833335,78.0,116.0
100,70.67177134791667,70.93962809791668,78.0,114.0
101,70.93962809791668,71.20748484791667,80.0,113.0
102,71.20748484791667,71.47310945833334,82.0,113.0
103,71.47534159791668,72.01105509791668,82.0,117.0
104,72.01105509791668,72.27667970833335,80.0,116.0
105,72.27891184791667,72.81462534791667,80.0,116.0
106,72.81462534791667,73.35033884791667,78.0,113.0
107,73.35033884791667,73.88605234791667,82.0,114.0
108,73.88605234791667,74.15390909791668,83.0,117.0
109,74.15390909791668,74.42176584791667,82.0,108.0
110,74.42176584791667,75.22533609791668,80.0,117.0
111,75.22533609791668,75.76104959791668,83.0,117.0
112,75.76104959791668,76.29676309791668,82.0,119.0
113,76.29676309791668,76.56238770833335,73.0,116.0
114,76.56461984791667,77.10033334791667,73.0,116.0
115,77.10033334791667,77.36819009791668,70.0,107.0
116,77.36819009791668,77.63604684791667,73.0,110.0
117,77.63604684791667,78.17176034791667,80.0,116.0
118,78.17176034791667,78.70747384791667,78.0,114.0
119,78.70747384791667,79.51104409791668,83.0,117.0
120,79.51104409791668,79.77666870833335,82.0,116.0
121,79.77890084791667,80.58247109791668,82.0,119.0
122,80.58247109791668,80.84809570833335,73.0,116.0
123,80.85032784791667,81.38604134791667,73.0,116.0
124,81.38604134791667,81.65389809791668,70.0,114.0
125,81.65389809791668,81.92175484791667,73.0,114.0
126,81.92175484791667,82.45746834791667,80.0,116.0
127,82.45746834791667,82.72309295833334,78.0,102.0
128,82.72532509791668,82.99094970833335,78.0,110.0
129,82.99318184791667,83.25880645833334,78.0,114.0
130,83.26103859791668,83.79675209791668,78.0,114.0
131,83.79675209791668,84.06460884791667,73.0,110.0
132,84.06460884791667,85.13380370833335,75.0,116.0
133,85.13603584791667,85.40166045833334,75.0,108.0
134,85.40389259791668,85.67174934791667,75.0,113.0
135,85.67174934791667,85.93960609791668,77.0,109.0
136,85.93960609791668,86.20746284791667,78.0,114.0
137,86.20746284791667,86.74317634791667,80.0,119.0
138,86.74317634791667,87.27888984791667,73.0,114.0
139,87.27888984791667,87.81460334791667,83.0,117.0
140,87.81460334791667,88.34808470833335,82.0,117.0
141,88.35031684791667,88.61817359791668,82.0,100.0
142,88.61817359791668,89.15388709791668,80.0,113.0
143,89.15388709791668,91.72531189791668,75.0,114.0
144,91.72531189791668,92.36816809791668,78.0,114.0
145,92.36816809791668,92.90388159791668,77.0,113.0
146,92.90388159791668,93.4953985875,78.0,114.0
147,115.93956209791668,116.47527559791668,71.0,119.0
148,116.47527559791668,117.27661370833334,70.0,119.0
149,117.27884584791668,117.54447045833335,70.0,116.0
150,117.54670259791668,117.81455934791668,70.0,116.0
151,117.81455934791668,118.08241609791668,71.0,113.0
152,118.08241609791668,118.34804070833334,73.0,110.0
153,118.35027284791668,119.15384309791668,73.0,113.0
154,119.15384309791668,119.41946770833334,68.0,98.0
155,119.42169984791668,119.95741334791668,68.0,100.0
156,119.95741334791668,120.49312684791668,73.0,116.0
157,120.49312684791668,121.56232170833334,71.0,114.0
158,121.56455384791668,121.83017845833335,71.0,100.0
159,121.83241059791668,122.10026734791668,71.0,107.0
160,122.10026734791668,122.36812409791668,73.0,108.0
161,122.36812409791668,122.63374870833334,71.0,93.0
162,122.63598084791668,123.17169434791668,71.0,107.0
163,123.17169434791668,124.51097809791668,70.0,110.0
164,124.51097809791668,125.04669159791668,66.0,113.0
165,125.04669159791668,125.84802970833336,75.0,110.0
166,125.85026184791668,126.11588645833335,75.0,114.0
167,126.11811859791668,126.38597534791668,75.0,113.0
168,126.38597534791668,126.65383209791668,73.0,108.0
169,126.65383209791668,126.92168884791668,71.0,96.0
170,126.92168884791668,127.72302695833335,73.0,116.0
171,127.72525909791668,127.99311584791668,73.0,108.0
172,127.99311584791668,128.52882934791668,66.0,96.0
173,128.52882934791668,128.79668609791668,68.0,100.0
174,128.79668609791668,129.0645428479167,70.0,98.0
175,129.0645428479167,130.40159445833336,71.0,108.0
176,130.4038265979167,130.67168334791668,71.0,114.0
177,130.67168334791668,131.2073968479167,73.0,114.0
178,131.2073968479167,131.4752535979167,71.0,102.0
179,131.4752535979167,132.01096709791668,70.0,114.0
180,132.01096709791668,133.08239409791668,68.0,107.0
181,133.08239409791668,133.6181075979167,71.0,113.0
182,133.6181075979167,134.41944570833334,70.0,110.0
183,134.4216778479167,134.68730245833336,70.0,108.0
184,134.6895345979167,134.95739134791668,70.0,113.0
185,134.95739134791668,135.22524809791668,71.0,102.0
186,135.22524809791668,135.49087270833334,73.0,107.0
187,135.4931048479167,136.29667509791668,73.0,107.0
188,136.29667509791668,136.56229970833334,68.0,96.0
189,136.5645318479167,137.10024534791668,68.0,102.0
190,137.10024534791668,137.6359588479167,73.0,107.0
191,137.6359588479167,138.70515370833334,71.0,108.0
192,138.7073858479167,138.97301045833336,71.0,104.0
193,138.9752425979167,139.24309934791668,71.0,107.0
194,139.24309934791668,139.51095609791668,73.0,108.0
195,139.51095609791668,139.77658070833334,71.0,92.0
196,139.7788128479167,140.31452634791668,71.0,114.0
197,140.31452634791668,141.65381009791668,70.0,108.0
198,141.65381009791668,142.1895235979167,66.0,108.0
199,142.1895235979167,142.99086170833334,75.0,110.0
200,142.9930938479167,143.25871845833336,75.0,104.0
201,143.2609505979167,143.52880734791668,75.0,104.0
202,143.52880734791668,143.79666409791668,73.0,91.0
203,143.79666409791668,144.0645208479167,71.0,94.0
204,144.0645208479167,144.60023434791668,73.0,113.0
205,144.60023434791668,144.86809109791668,75.0,113.0
206,144.86809109791668,145.1359478479167,77.0,116.0
207,145.1359478479167,145.67166134791668,78.0,119.0
208,145.67166134791668,145.93951809791668,80.0,114.0
209,145.93951809791668,146.2073748479167,82.0,116.0
210,146.2073748479167,147.27656970833334,83.0,120.0
211,147.2788018479167,147.54442645833336,83.0,117.0
212,147.5466585979167,147.81451534791668,83.0,116.0
213,147.81451534791668,148.3502288479167,82.0,114.0
214,148.3502288479167,148.6180855979167,78.0,114.0
215,148.6180855979167,149.15379909791668,80.0,117.0
216,149.15379909791668,149.6895125979167,73.0,119.0
217,149.6895125979167,150.22522609791667,83.0,117.0
218,150.22522609791667,150.49085070833334,82.0,110.0
219,150.4930828479167,151.02879634791668,82.0,116.0
220,151.02879634791668,151.56227770833334,73.0,117.0
221,151.5645098479167,151.83013445833336,73.0,114.0
222,151.8323665979167,152.10022334791668,73.0,117.0
223,152.10022334791668,152.36808009791667,70.0,114.0
224,152.36808009791667,152.6359368479167,73.0,117.0
225,152.6359368479167,153.17165034791668,80.0,114.0
226,153.17165034791668,153.7073638479167,78.0,108.0
227,153.7073638479167,154.51093409791667,83.0,107.0
228,154.51093409791667,154.77655870833334,82.0,114.0
229,154.7787908479167,155.58236109791667,82.0,114.0
230,155.58236109791667,155.84798570833334,73.0,108.0
231,155.8502178479167,156.38593134791668,73.0,110.0
232,156.38593134791668,156.65378809791667,70.0,110.0
233,156.65378809791667,156.9216448479167,73.0,108.0
234,156.9216448479167,157.45735834791668,80.0,116.0
235,157.45735834791668,157.99083970833337,78.0,117.0
236,157.9930718479167,158.52878534791668,78.0,116.0
237,158.52878534791668,159.0644988479167,73.0,116.0
238,159.0644988479167,160.13369370833337,75.0,114.0
239,160.1359258479167,160.40155045833336,75.0,107.0
240,160.4037825979167,160.67610362708336,75.0,107.0
241,160.67163934791668,160.93949609791667,77.0,106.0
242,160.93949609791667,161.2073528479167,78.0,108.0
243,161.2073528479167,161.74306634791668,80.0,114.0
244,161.74306634791668,162.0109230979167,73.0,110.0
245,162.0109230979167,162.2787798479167,80.0,116.0
246,162.2787798479167,162.81226120833335,78.0,116.0
247,162.81449334791668,163.0823500979167,78.0,114.0
248,163.0823500979167,163.3502068479167,80.0,113.0
249,163.3502068479167,163.61583145833336,82.0,113.0
250,163.6180635979167,164.1537770979167,82.0,117.0
251,164.1537770979167,164.41940170833337,80.0,116.0
252,164.4216338479167,164.95734734791668,80.0,116.0
253,164.95734734791668,165.4930608479167,78.0,113.0
254,165.4930608479167,166.02877434791668,82.0,114.0
255,166.02877434791668,166.2966310979167,83.0,117.0
256,166.2966310979167,166.5644878479167,82.0,108.0
257,166.5644878479167,167.3680580979167,80.0,117.0
258,167.3680580979167,167.9037715979167,83.0,117.0
259,167.9037715979167,168.4394850979167,82.0,119.0
260,168.4394850979167,168.70510970833337,73.0,116.0
261,168.7073418479167,169.24305534791668,73.0,116.0
262,169.24305534791668,169.5109120979167,70.0,107.0
263,169.5109120979167,169.7787688479167,73.0,110.0
264,169.7787688479167,170.31448234791668,80.0,116.0
265,170.31448234791668,170.8501958479167,78.0,114.0
266,170.8501958479167,171.6537660979167,83.0,117.0
267,171.6537660979167,171.91939070833337,82.0,116.0
268,171.9216228479167,172.7251930979167,82.0,119.0
269,172.7251930979167,172.99081770833337,73.0,116.0
270,172.9930498479167,173.52876334791668,73.0,116.0
271,173.52876334791668,173.7966200979167,70.0,114.0
272,173.7966200979167,174.0644768479167,73.0,114.0
273,174.0644768479167,174.60019034791668,80.0,116.0
274,174.60019034791668,174.86581495833335,78.0,102.0
275,174.8680470979167,175.13367170833337,78.0,110.0
276,175.1359038479167,175.40152845833336,78.0,114.0
277,175.4037605979167,175.9394740979167,78.0,114.0
278,175.9394740979167,176.2073308479167,73.0,110.0
279,176.2073308479167,177.27652570833337,75.0,116.0
280,177.2787578479167,177.54438245833336,75.0,108.0
281,177.5466145979167,177.81447134791668,75.0,113.0
282,177.81447134791668,178.0823280979167,77.0,109.0
283,178.0823280979167,178.3501848479167,78.0,114.0
284,178.3501848479167,178.88589834791668,80.0,119.0
285,178.88589834791668,179.4216118479167,73.0,114.0
286,179.4216118479167,179.95732534791668,83.0,117.0
287,179.95732534791668,180.49080670833337,82.0,117.0
288,180.4930388479167,180.7608955979167,82.0,100.0
289,180.7608955979167,181.2966090979167,80.0,113.0
290,181.2966090979167,181.8323225979167,75.0,114.0
291,181.8323225979167,182.3680360979167,78.0,116.0
292,182.3680360979167,182.6358928479167,77.0,106.0
293,182.6358928479167,184.5108900979167,78.0,117.0
294,184.5108900979167,184.7787468479167,77.0,116.0
295,184.7787468479167,185.0466035979167,78.0,110.0
296,185.0466035979167,185.58008495833334,80.0,117.0
297,185.5823170979167,185.84794170833337,80.0,116.0
298,185.8501738479167,187.1894575979167,80.0,117.0
299,187.1894575979167,187.72293895833334,78.0,117.0
300,187.7251710979167,187.9930278479167,78.0,116.0
301,187.9930278479167,188.52874134791668,80.0,114.0
302,188.52874134791668,190.9394520979167,82.0,116.0
303,190.9394520979167,191.2073088479167,78.0,116.0
304,191.2073088479167,191.47516559791669,77.0,113.0
305,191.47516559791669,192.00864695833337,78.0,116.0
306,192.0108790979167,192.27650370833337,78.0,114.0
307,192.2787358479167,193.61801959791669,78.0,117.0
308,193.61801959791669,194.15150095833337,80.0,116.0
309,194.1537330979167,194.41935770833337,80.0,113.0
310,194.4215898479167,194.68721445833336,80.0,116.0
311,194.68944659791669,195.2251600979167,80.0,116.0
312,195.2251600979167,195.4930168479167,78.0,113.0
313,195.4930168479167,196.0287303479167,85.0,120.0
314,196.0287303479167,199.5108680979167,82.0,119.0
315,199.5108680979167,199.7787248479167,78.0,114.0
316,199.7787248479167,200.04658159791668,80.0,114.0
317,200.04658159791668,200.5822950979167,81.0,119.0
318,200.5822950979167,200.84791970833336,76.0,116.0
319,200.8501518479167,201.9215788479167,76.0,116.0
320,201.9215788479167,202.18943559791668,81.0,116.0
321,202.18943559791668,202.7251490979167,83.0,119.0
322,202.7251490979167,202.99077370833336,76.0,116.0
323,202.9930058479167,203.7965760979167,76.0,113.0
324,203.7965760979167,204.0644328479167,83.0,114.0
325,204.0644328479167,204.33228959791668,85.0,108.0
326,204.33228959791668,204.86577095833337,86.0,119.0
327,204.8680030979167,205.1358598479167,86.0,116.0
328,205.1358598479167,205.6715733479167,85.0,116.0
329,205.6715733479167,206.2072868479167,83.0,117.0
330,206.2072868479167,206.7430003479167,85.0,113.0
331,206.7430003479167,207.54657059791668,81.0,116.0
332,207.54657059791668,208.0822840979167,80.0,114.0
333,208.0822840979167,208.3501408479167,81.0,116.0
334,208.3501408479167,211.56218970833336,78.0,117.0
335,211.5644218479167,211.83227859791668,78.0,102.0
336,211.83227859791668,212.1537066979167,85.0,120.0
337,212.1001353479167,212.6358488479167,83.0,116.0
338,212.6358488479167,212.90370559791668,81.0,113.0
339,212.90370559791668,214.2429893479167,85.0,117.0
340,214.2429893479167,214.5108460979167,83.0,114.0
341,214.5108460979167,214.7787028479167,85.0,116.0
342,214.7787028479167,215.41709476875002,86.0,123.0
343,217.7251270979167,218.26084059791668,74.0,119.0
344,218.26084059791668,218.7965540979167,84.0,117.0
345,218.7965540979167,219.06217870833336,83.0,110.0
346,219.0644108479167,219.6001243479167,83.0,116.0
347,219.6001243479167,220.13360570833336,74.0,117.0
348,220.1358378479167,220.40146245833336,74.0,114.0
349,220.40369459791668,220.6715513479167,74.0,117.0
350,220.6715513479167,220.9394080979167,71.0,114.0
351,220.9394080979167,221.2072648479167,74.0,117.0
352,221.2072648479167,221.7429783479167,81.0,114.0
353,221.7429783479167,222.2786918479167,79.0,108.0
354,222.2786918479167,223.0822620979167,84.0,107.0
355,223.0822620979167,223.34788670833336,83.0,114.0
356,223.3501188479167,224.1536890979167,83.0,114.0
357,224.1536890979167,224.41931370833336,74.0,108.0
358,224.4215458479167,224.9572593479167,74.0,110.0
359,224.9572593479167,225.2251160979167,71.0,110.0
360,225.2251160979167,225.4929728479167,74.0,108.0
361,225.4929728479167,226.0286863479167,81.0,116.0
362,226.0286863479167,226.56216770833336,79.0,117.0
363,226.5643998479167,227.1001133479167,79.0,116.0
364,227.1001133479167,227.6358268479167,74.0,116.0
365,227.6358268479167,228.70502170833336,76.0,114.0
366,228.7072538479167,228.97287845833335,76.0,107.0
367,228.9751105979167,229.24743162708336,76.0,107.0
368,229.2429673479167,229.5108240979167,78.0,106.0
369,229.5108240979167,229.7786808479167,79.0,108.0
370,229.7786808479167,230.3143943479167,81.0,114.0
371,230.3143943479167,230.5822510979167,74.0,110.0
372,230.5822510979167,230.8501078479167,81.0,116.0
373,230.8501078479167,231.38358920833338,79.0,116.0
374,231.3858213479167,231.6536780979167,79.0,114.0
375,231.6536780979167,231.9215348479167,81.0,113.0
376,231.9215348479167,232.18715945833335,83.0,113.0
377,232.1893915979167,232.7251050979167,83.0,117.0
378,232.7251050979167,232.99072970833336,81.0,116.0
379,232.9929618479167,233.5286753479167,81.0,116.0
380,233.5286753479167,234.0643888479167,79.0,113.0
381,234.0643888479167,234.6001023479167,83.0,114.0
382,234.6001023479167,234.8679590979167,84.0,117.0
383,234.8679590979167,235.1358158479167,83.0,108.0
384,235.1358158479167,235.9393860979167,81.0,117.0
385,235.9393860979167,236.4750995979167,84.0,117.0
386,236.4750995979167,237.0108130979167,83.0,119.0
387,237.0108130979167,237.27643770833336,74.0,116.0
388,237.2786698479167,237.8143833479167,74.0,116.0
389,237.8143833479167,238.0822400979167,71.0,107.0
390,238.0822400979167,238.3500968479167,74.0,110.0
391,238.3500968479167,238.8858103479167,81.0,116.0
392,238.8858103479167,239.4215238479167,79.0,114.0
393,239.4215238479167,240.2250940979167,84.0,117.0
394,240.2250940979167,240.49071870833336,83.0,116.0
395,240.4929508479167,241.2965210979167,83.0,119.0
396,241.2965210979167,241.56214570833336,74.0,116.0
397,241.5643778479167,242.1000913479167,74.0,116.0
398,242.1000913479167,242.3679480979167,71.0,114.0
399,242.3679480979167,242.6358048479167,74.0,114.0
400,242.6358048479167,243.1715183479167,81.0,116.0
401,243.1715183479167,243.43714295833337,79.0,102.0
402,243.4393750979167,243.70499970833336,79.0,110.0
403,243.7072318479167,243.97285645833335,79.0,114.0
404,243.9750885979167,244.5108020979167,79.0,114.0
405,244.5108020979167,244.7786588479167,74.0,110.0
406,244.7786588479167,245.84785370833336,76.0,116.0
407,245.8500858479167,246.11571045833335,76.0,108.0
408,246.1179425979167,246.3857993479167,76.0,113.0
409,246.3857993479167,246.6536560979167,78.0,109.0
410,246.6536560979167,246.9215128479167,79.0,114.0
411,246.9215128479167,247.4572263479167,81.0,119.0
412,247.4572263479167,247.9929398479167,74.0,114.0
413,247.9929398479167,248.5286533479167,84.0,117.0
414,248.5286533479167,249.06213470833336,83.0,117.0
415,249.0643668479167,249.3322235979167,83.0,100.0
416,249.3322235979167,249.8679370979167,81.0,113.0
417,249.8679370979167,253.8857883479167,76.0,114.0
418,253.8857883479167,255.2250720979167,79.0,119.0
419,255.2250720979167,256.5643558479167,78.0,117.0
