,start,end,pitch,velocity
0,0.7611595979166668,2.435264285416667,66.0,79.0
1,0.7611595979166668,2.4575856812500003,58.0,77.0
2,0.7611595979166668,2.4642821,42.0,70.0
3,0.7611595979166668,2.502228472916667,54.0,76.0
4,0.7611595979166668,2.575889079166667,61.0,88.0
5,2.9040135979166672,4.703118102083334,68.0,87.0
6,2.9040135979166672,4.752225172916667,65.0,76.0
7,2.9040135979166672,4.814725081250001,49.0,81.0
8,2.9040135979166672,4.953117735416667,61.0,83.0
9,5.046867597916667,8.841504889583334,66.0,77.0
10,5.046867597916667,8.866058425,59.0,74.0
11,5.046867597916667,8.904004797916668,47.0,82.0
12,5.046867597916667,8.928558333333335,63.0,79.0
13,9.332575597916668,11.024537402083334,58.0,88.0
14,9.332575597916668,11.042394518750001,66.0,88.0
15,9.332575597916668,11.095965868750001,63.0,88.0
16,9.332575597916668,11.328108385416668,51.0,88.0
17,11.475429597916667,13.080337958333335,58.0,84.0
18,11.475429597916667,13.120516470833335,61.0,88.0
19,11.475429597916667,13.127212889583335,65.0,82.0
20,11.475429597916667,13.194177077083335,46.0,82.0
21,13.618283597916669,15.270066889583335,49.0,88.0
22,13.618283597916669,15.294620425000002,56.0,88.0
23,13.618283597916669,15.321406100000003,61.0,93.0
24,13.618283597916669,15.325870379166668,64.0,91.0
25,15.761137597916669,17.613813452083335,59.0,78.0
26,15.761137597916669,17.633902708333334,54.0,79.0
27,15.761137597916669,17.645063406250003,63.0,81.0
28,15.761137597916669,17.69863475625,47.0,81.0
29,17.90399159791667,18.6428298,58.0,82.0
30,17.90399159791667,18.678544033333335,66.0,86.0
31,17.90399159791667,18.709793987500003,61.0,84.0
32,18.97541859791667,19.86604229166667,59.0,86.0
33,18.97541859791667,19.86604229166667,66.0,86.0
34,17.90399159791667,21.832557264583336,42.0,78.0
35,17.90399159791667,21.83478940416667,54.0,79.0
36,20.04684559791667,22.013360570833335,58.0,83.0
37,20.04684559791667,22.08255689791667,66.0,83.0
38,22.725413097916668,23.915143495833338,49.0,63.0
39,22.18969959791667,23.939697031250002,42.0,84.0
40,23.261126597916668,24.357107133333336,54.0,70.0
41,24.33255359791667,25.359337806250004,65.0,78.0
42,24.33255359791667,25.42406985416667,61.0,80.0
43,25.40398059791667,25.696390883333336,73.0,107.0
44,24.33255359791667,26.169604475000003,49.0,77.0
45,25.93969409791667,26.169604475000003,77.0,100.0
46,26.20755084791667,26.58255029791667,78.0,110.0
47,26.47540759791667,28.185226518750003,51.0,76.0
48,26.47540759791667,28.185226518750003,75.0,78.0
49,26.47540759791667,28.187458658333338,66.0,78.0
50,26.47540759791667,28.196387216666672,71.0,82.0
51,29.15397509791667,29.386117614583338,61.0,87.0
52,29.42183184791667,29.667367202083337,66.0,116.0
53,28.61826159791667,30.334776937500003,49.0,89.0
54,28.88611834791667,30.361562612500006,58.0,83.0
55,29.68968859791667,30.573615872916672,68.0,96.0
56,29.68968859791667,30.589240850000003,61.0,72.0
57,30.76111559791667,31.87048897083334,66.0,83.0
58,30.76111559791667,31.903971064583338,59.0,79.0
59,30.76111559791667,31.915131762500003,63.0,82.0
60,32.10039934791667,32.33254186458334,59.0,83.0
61,31.83254259791667,32.41736316875001,54.0,78.0
62,30.76111559791667,32.4508452625,47.0,85.0
63,32.36825609791667,32.61825573125,63.0,91.0
64,32.63611284791667,32.928523133333336,66.0,87.0
65,32.90396959791667,33.562450775,61.0,64.0
66,32.90396959791667,33.595932868750005,58.0,83.0
67,32.90396959791667,33.80798612916667,65.0,78.0
68,32.90396959791667,33.92405738750001,46.0,78.0
69,33.97539659791667,34.59593140208334,63.0,82.0
70,33.97539659791667,34.61825279791667,51.0,82.0
71,33.97539659791667,34.65619917083334,58.0,80.0
72,33.97539659791667,34.69860982291667,66.0,82.0
73,35.04682359791667,35.78342966041667,56.0,79.0
74,35.04682359791667,36.12271487708334,63.0,82.0
75,35.04682359791667,36.129411295833336,59.0,81.0
76,35.04682359791667,36.68967833125001,44.0,81.0
77,36.11825059791667,36.70530330833334,51.0,77.0
78,36.65396409791667,37.16735620208334,63.0,86.0
79,37.18967759791667,37.75664105208334,65.0,82.0
80,38.26110459791667,38.74324674791667,61.0,92.0
81,37.99324784791667,38.75440744583334,56.0,69.0
82,37.18967759791667,38.78342526041667,49.0,78.0
83,38.79681809791667,39.23654959583334,68.0,104.0
84,39.33253159791667,39.870477237500005,66.0,87.0
85,39.33253159791667,40.47538706458334,58.0,87.0
86,39.33253159791667,40.937439958333336,42.0,77.0
87,40.13610184791667,40.937439958333336,49.0,62.0
88,40.67181534791667,40.99101130833334,58.0,83.0
89,40.40395859791667,41.042350518750006,54.0,80.0
90,40.93967209791667,41.19860028958334,61.0,83.0
91,41.20752884791667,41.51333197083334,66.0,88.0
92,41.47538559791667,42.03788477291667,65.0,84.0
93,41.47538559791667,42.276723708333336,61.0,88.0
94,42.54681259791667,43.05127614375001,61.0,89.0
95,41.47538559791667,43.12940102916667,49.0,85.0
96,42.27895584791667,43.13386530833334,56.0,77.0
97,43.08252609791667,43.51332903750001,65.0,91.0
98,43.61823959791667,45.314665681250005,47.0,98.0
99,44.15395309791667,45.319129960416674,54.0,74.0
100,44.68966659791667,45.79903997083334,59.0,87.0
101,44.68966659791667,45.90841481041667,66.0,89.0
102,46.83252059791667,47.10037734791667,61.0,110.0
103,46.83252059791667,47.16064511666667,56.0,104.0
104,46.29680709791667,47.395019772916676,49.0,67.0
105,47.10037734791667,47.395019772916676,58.0,87.0
106,45.76109359791667,47.39948405208334,42.0,87.0
107,47.36823409791667,47.61823373125001,61.0,87.0
108,46.56466384791667,47.78117992083334,54.0,77.0
109,47.90394759791667,48.35037551458334,59.0,89.0
110,47.90394759791667,48.44635751666667,66.0,91.0
111,48.97537459791668,49.41287395625001,63.0,96.0
112,49.24323134791668,49.55573088958334,66.0,86.0
113,48.70751784791668,49.60930223958334,54.0,77.0
114,47.90394759791667,49.63162363541667,47.0,86.0
115,49.51108809791668,49.908408943750004,71.0,86.0
116,50.04680159791668,50.803496916666674,61.0,83.0
117,50.04680159791668,50.98876450208334,46.0,81.0
118,50.04680159791668,51.08697864375001,68.0,88.0
119,51.118228597916676,51.37938892916667,70.0,89.0
120,51.118228597916676,52.02224512916667,51.0,87.0
121,51.118228597916676,52.04456652500001,63.0,90.0
122,52.189655597916676,52.38608388125001,68.0,91.0
123,52.189655597916676,52.805726122916674,59.0,90.0
124,52.725369097916676,53.34813604166667,56.0,81.0
125,52.189655597916676,53.82581391250001,44.0,86.0
126,52.457512347916676,53.88831382083334,51.0,77.0
127,53.261082597916676,53.912867356250004,63.0,91.0
128,53.261082597916676,53.94411731041667,59.0,90.0
129,53.796796097916676,54.26108113125001,56.0,77.0
130,54.332509597916676,54.60259848750001,61.0,88.0
131,54.332509597916676,54.62045560416667,65.0,90.0
132,55.136079847916676,55.27447250208334,65.0,87.0
133,54.868223097916676,55.49768646041667,61.0,87.0
134,55.403936597916676,55.81688242083334,66.0,89.0
135,55.671793347916676,55.975364331250006,61.0,87.0
136,55.939650097916676,56.17625689375001,66.0,114.0
137,54.332509597916676,56.247685360416675,49.0,87.0
138,54.600366347916676,56.370453037500006,56.0,83.0
139,56.475363597916676,56.74098820833334,61.0,91.0
140,56.475363597916676,56.901702258333344,65.0,100.0
141,56.207506847916676,56.93964863125001,68.0,91.0
142,57.278933847916676,57.687415391666676,61.0,88.0
143,56.475363597916676,57.79902237083334,49.0,86.0
144,57.011077097916676,57.93741502500001,56.0,74.0
145,57.546790597916676,58.07803981875001,65.0,113.0
146,58.082504097916676,58.17848610000001,49.0,87.0
147,57.546790597916676,58.19187893750001,73.0,107.0
148,58.082504097916676,58.21196819375001,68.0,86.0
149,58.618217597916676,59.330270125000006,66.0,102.0
150,58.618217597916676,59.395002172916676,58.0,102.0
151,59.421787847916676,59.92848353333334,54.0,81.0
152,59.689644597916676,60.55125047708334,66.0,102.0
153,59.689644597916676,60.555714756250005,58.0,110.0
154,60.493214847916676,61.14499960625001,54.0,82.0
155,61.028928347916676,61.50660621875001,66.0,85.0
156,60.761071597916676,61.53562403333334,61.0,93.0
157,60.761071597916676,61.54008831250001,58.0,86.0
158,58.618217597916676,61.87714138958334,42.0,88.0
159,59.153931097916676,61.91731990208334,49.0,66.0
160,61.832498597916675,62.30124791041668,66.0,94.0
161,61.564641847916675,62.37044423750001,54.0,86.0
162,61.832498597916675,62.43071200625001,58.0,107.0
163,62.368212097916675,62.85258638750001,65.0,95.0
164,62.368212097916675,62.94187197083334,53.0,90.0
165,62.903925597916675,63.44633551666667,63.0,96.0
166,62.903925597916675,63.73874580208334,66.0,91.0
167,63.707495847916675,64.34142348958335,58.0,87.0
168,63.975352597916675,64.60035168125,66.0,107.0
169,63.975352597916675,64.64053019375001,61.0,94.0
170,64.77892284791668,64.85481559375,61.0,91.0
171,64.77892284791668,64.86374415208334,66.0,92.0
172,64.51106609791668,65.544546725,58.0,76.0
173,65.31463634791668,65.88383194166667,63.0,102.0
174,65.31463634791668,65.90392119791667,66.0,102.0
175,66.11820659791668,66.44856325625001,66.0,107.0
176,66.11820659791668,66.66284865625,61.0,107.0
177,65.85034984791668,66.67177721458334,58.0,88.0
178,62.903925597916675,66.72534856458334,51.0,88.0
179,66.38606334791668,66.73204498333334,63.0,83.0
180,66.65392009791668,66.91954470833335,66.0,76.0
181,67.18963359791668,67.68070430625001,59.0,92.0
182,67.18963359791668,67.89945398541667,63.0,104.0
183,67.18963359791668,67.89945398541667,66.0,102.0
184,67.99320384791667,68.55793516250002,54.0,80.0
185,68.26106059791668,68.83472047083335,59.0,107.0
186,67.18963359791668,69.01775591666667,47.0,93.0
187,68.26106059791668,69.13829145416668,66.0,116.0
188,68.79677409791668,69.14498787291667,54.0,77.0
189,68.26106059791668,69.14722001250001,63.0,114.0
190,69.33248759791668,70.17177208125001,46.0,94.0
191,69.86820109791668,70.23203985,53.0,69.0
192,70.93962809791668,71.40614527083335,63.0,104.0
193,70.40391459791668,71.50659155208335,51.0,94.0
194,71.47534159791668,72.23650119583334,68.0,104.0
195,71.47534159791668,72.24542975416668,59.0,88.0
196,71.47534159791668,72.27891184791667,63.0,92.0
197,72.27891184791667,72.58917925000002,56.0,88.0
198,71.47534159791668,73.10033921458334,44.0,89.0
199,72.01105509791668,73.14498200625,51.0,77.0
200,72.54676859791668,73.39721377916668,59.0,100.0
201,72.54676859791668,73.46417796666668,68.0,107.0
202,73.35033884791667,73.54899927083335,63.0,86.0
203,73.08248209791668,73.61149917916667,56.0,83.0
204,73.61819559791668,74.00658788541668,61.0,88.0
205,73.61819559791668,74.008820025,68.0,88.0
206,73.61819559791668,74.03783783958335,65.0,90.0
207,74.15390909791668,74.28560533333334,61.0,84.0
208,73.88605234791667,74.50658715208334,56.0,84.0
209,74.42176584791667,74.79453315833334,61.0,107.0
210,74.42176584791667,74.83471167083334,66.0,117.0
211,74.95747934791667,75.09587200208334,65.0,103.0
212,74.68962259791668,75.19855042291668,56.0,98.0
213,74.95747934791667,75.26551461041667,61.0,96.0
214,73.61819559791668,75.30122884375001,49.0,88.0
215,75.22533609791668,75.43738935833335,65.0,109.0
216,75.76104959791668,76.25435244583335,58.0,107.0
217,75.76104959791668,76.48872710208335,66.0,98.0
218,76.29676309791668,76.62935189583334,61.0,67.0
219,76.56461984791667,77.16506539583334,54.0,79.0
220,76.83247659791668,77.20524390833334,58.0,102.0
221,76.83247659791668,77.39720791250001,66.0,93.0
222,76.83247659791668,77.47310065833334,61.0,110.0
223,77.63604684791667,77.72086815208334,58.0,98.0
224,77.63604684791667,77.72086815208334,66.0,89.0
225,77.36819009791668,78.41506356250001,54.0,75.0
226,78.17176034791667,78.72979524375,61.0,110.0
227,78.17176034791667,78.73649166250001,66.0,100.0
228,75.76104959791668,79.22979451041668,42.0,87.0
229,78.97533059791668,79.26774088333335,58.0,110.0
230,78.70747384791667,79.46193702708334,54.0,82.0
231,78.97533059791668,79.62265107708335,66.0,98.0
232,79.24318734791667,79.81461508125001,61.0,84.0
233,79.51104409791668,80.05568615625,53.0,93.0
234,80.04675759791668,80.80568505625001,58.0,91.0
235,80.04675759791668,80.82354217291667,66.0,88.0
236,80.04675759791668,80.83916715000001,63.0,100.0
237,81.11818459791668,81.7632729375,66.0,93.0
238,81.11818459791668,81.76773721666667,58.0,96.0
239,81.11818459791668,81.77666577500001,63.0,104.0
240,81.92175484791667,81.98648689583334,58.0,88.0
241,81.92175484791667,81.990951175,63.0,94.0
242,81.92175484791667,81.990951175,66.0,89.0
243,80.04675759791668,82.59586100208334,51.0,86.0
244,82.45746834791667,83.03782463958335,58.0,90.0
245,82.45746834791667,83.04228891875002,66.0,91.0
246,82.45746834791667,83.04675319791667,63.0,102.0
247,82.99318184791667,83.58469883750001,51.0,91.0
248,83.26103859791668,83.79675209791668,58.0,107.0
249,83.26103859791668,83.97978754375,66.0,100.0
250,83.26103859791668,84.133805175,63.0,110.0
251,83.79675209791668,84.32800131875001,49.0,90.0
252,84.33246559791668,84.76996495625,59.0,90.0
253,84.33246559791668,84.94853612291668,63.0,96.0
254,84.33246559791668,85.00210747291668,66.0,91.0
255,85.13603584791667,85.66282078958335,54.0,86.0
256,84.33246559791668,86.01996312291668,47.0,89.0
257,85.40389259791668,86.28558773333334,66.0,108.0
258,85.40389259791668,86.32799838541668,63.0,110.0
259,85.93960609791668,86.42844466666668,54.0,82.0
260,86.47531959791668,87.01996165625002,65.0,100.0
261,86.47531959791668,87.26772915000001,68.0,94.0
262,86.47531959791668,87.48201455000002,61.0,89.0
263,86.47531959791668,87.51549664375001,46.0,79.0
264,87.54674659791668,88.15612070416668,58.0,98.0
265,87.54674659791668,88.32799545208334,66.0,91.0
266,87.54674659791668,88.46862024583335,63.0,100.0
267,87.54674659791668,88.47978094375001,51.0,88.0
268,88.61817359791668,89.35701180000001,59.0,89.0
269,88.61817359791668,89.43513668541668,68.0,93.0
270,88.61817359791668,89.44629738333335,63.0,91.0
271,89.42174384791667,89.81460041458334,56.0,84.0
272,88.61817359791668,90.22084981875001,44.0,86.0
273,89.68960059791668,90.26995688958334,59.0,104.0
274,89.68960059791668,90.55343861666668,68.0,96.0
275,89.68960059791668,90.61817066458335,63.0,110.0
276,90.22531409791668,90.79897397083334,56.0,84.0
277,90.76102759791668,91.52441933541668,68.0,91.0
278,90.76102759791668,91.55566928958335,61.0,89.0
279,90.76102759791668,91.61370491875002,65.0,97.0
280,91.56459784791667,92.31459674791668,56.0,86.0
281,90.76102759791668,92.35700740000001,49.0,83.0
282,91.83245459791668,92.40165019166668,61.0,104.0
283,92.36816809791668,92.84361382916669,66.0,107.0
284,92.90388159791668,93.51995212291668,61.0,93.0
285,92.90388159791668,93.55343421666667,58.0,86.0
286,92.90388159791668,93.77441603541668,66.0,86.0
287,94.24316534791667,95.00878922500002,59.0,91.0
288,93.70745184791667,95.19852108958335,54.0,86.0
289,95.04673559791668,95.87485938333334,66.0,79.0
290,95.04673559791668,95.89718077916667,58.0,83.0
291,95.04673559791668,95.91950217500002,61.0,83.0
292,96.11816259791668,96.43735855833334,58.0,98.0
293,96.38601934791667,96.60253688750001,59.0,88.0
294,92.90388159791668,96.72084028541668,42.0,84.0
295,93.43959509791668,96.75432237916668,49.0,74.0
296,95.85030584791667,96.80119731041668,54.0,83.0
297,96.65387609791668,96.90610787083335,61.0,89.0
298,97.18958959791668,97.69405314375001,56.0,88.0
299,97.18958959791668,97.75208877291668,64.0,87.0
300,97.18958959791668,97.79673156458334,61.0,90.0
301,97.18958959791668,97.89048142708334,49.0,104.0
302,97.99315984791669,98.36369501875001,54.0,87.0
303,97.99315984791669,98.73423018958334,63.0,87.0
304,97.99315984791669,98.74315874791668,59.0,83.0
305,97.99315984791669,98.84137288958334,47.0,90.0
306,99.06458684791669,100.11592459166668,58.0,86.0
307,99.06458684791669,100.12485315,45.0,86.0
308,99.06458684791669,100.12485315,61.0,92.0
309,99.06458684791669,100.15387096458335,64.0,88.0
310,101.47529759791668,101.86145774583335,69.0,109.0
311,101.47529759791668,101.90833267708335,66.0,114.0
312,101.47529759791668,101.94181477083335,61.0,94.0
313,101.47529759791668,102.04672533125002,54.0,90.0
314,102.27886784791669,102.61145664583334,68.0,104.0
315,102.27886784791669,102.62261734375001,64.0,113.0
316,102.27886784791669,102.64717087916668,59.0,100.0
317,102.27886784791669,102.68958153125001,52.0,107.0
318,103.35029484791669,105.08913158333334,51.0,100.0
319,103.35029484791669,105.10922083958334,66.0,104.0
320,103.35029484791669,105.13600651458334,57.0,106.0
321,103.35029484791669,105.16502432916668,63.0,104.0
322,106.56457584791669,106.79448622500001,65.0,95.0
323,106.29671909791668,106.85252185416668,61.0,91.0
324,106.83243259791668,107.23198558333334,73.0,102.0
325,107.10028934791669,107.43957456458335,61.0,96.0
326,106.02886234791669,107.50430661250002,56.0,84.0
327,105.76100559791668,107.52886014791667,49.0,88.0
328,107.36814609791668,107.67841350000002,65.0,90.0
329,107.63600284791669,107.91502029583334,68.0,87.0
330,108.43957309791668,108.83466180416669,58.0,94.0
331,109.24314334791669,109.26323260416667,67.0,88.0
332,108.70742984791669,109.33466107083335,61.0,108.0
333,107.90385959791668,109.49983940000001,46.0,91.0
334,108.17171634791669,109.62483921666669,53.0,85.0
335,109.24314334791669,109.70296410208334,65.0,119.0
336,109.77885684791669,109.92841020000002,61.0,86.0
337,109.51100009791668,109.96858871250001,68.0,91.0
338,108.97528659791668,110.03108862083334,58.0,104.0
339,110.04671359791668,110.73867686875002,70.0,94.0
340,110.04671359791668,110.81233747500002,63.0,96.0
341,110.04671359791668,110.82349817291669,66.0,98.0
342,111.11814059791668,111.42840800000002,63.0,114.0
343,110.85028384791669,111.63376484166668,58.0,87.0
344,110.04671359791668,111.65385409791668,51.0,89.0
345,111.38599734791669,111.70072902916668,66.0,114.0
346,111.65385409791668,112.08688917708335,70.0,104.0
347,112.18956759791668,112.28778173958335,61.0,86.0
348,112.18956759791668,112.30117457708334,66.0,87.0
349,112.72528109791668,113.38376227500001,59.0,84.0
350,112.99313784791669,114.01768991666668,66.0,87.0
351,112.99313784791669,114.08688624375002,61.0,86.0
352,114.06456484791669,114.20742178125002,63.0,42.0
353,114.33242159791668,114.42840360000001,63.0,87.0
354,113.52885134791669,114.70742104791668,59.0,70.0
355,114.33242159791668,115.49090204166669,66.0,92.0
356,115.67170534791669,115.84581223541669,61.0,92.0
357,115.40384859791668,116.12482968333335,59.0,82.0
358,112.45742434791669,116.16277605625001,54.0,84.0
359,112.18956759791668,116.20741884791668,47.0,98.0
360,115.93956209791668,116.41500782916668,66.0,114.0
361,117.01098909791668,118.20071949583335,49.0,63.0
362,116.47527559791668,118.22527303125001,42.0,84.0
363,117.54670259791668,118.64268313333335,54.0,70.0
364,118.61812959791668,119.64491380625002,65.0,78.0
365,118.61812959791668,119.70964585416668,61.0,80.0
366,118.61812959791668,120.45518047500002,49.0,77.0
367,120.76098359791668,122.47080251875002,51.0,76.0
368,120.76098359791668,122.47080251875002,75.0,78.0
369,120.76098359791668,122.47303465833335,66.0,78.0
370,120.76098359791668,122.48196321666668,71.0,82.0
371,123.43955109791668,123.67169361458335,61.0,87.0
372,123.70740784791668,123.95294320208335,66.0,116.0
373,122.90383759791668,124.62035293750002,49.0,89.0
374,123.17169434791668,124.64713861250002,58.0,83.0
375,123.97526459791668,124.85919187291668,68.0,96.0
376,123.97526459791668,124.87481685000002,61.0,72.0
377,125.04669159791668,126.15606497083336,66.0,83.0
378,125.04669159791668,126.18954706458335,59.0,79.0
379,125.04669159791668,126.20070776250002,63.0,82.0
380,126.38597534791668,126.61811786458335,59.0,83.0
381,126.11811859791668,126.70293916875002,54.0,78.0
382,125.04669159791668,126.73642126250002,47.0,85.0
383,126.65383209791668,126.90383173125002,63.0,91.0
384,126.92168884791668,127.21409913333335,66.0,87.0
385,127.18954559791668,127.84802677500002,61.0,64.0
386,127.18954559791668,127.88150886875002,58.0,83.0
387,127.18954559791668,128.09356212916668,65.0,78.0
388,127.18954559791668,128.20963338750002,46.0,78.0
389,128.2609725979167,128.88150740208334,63.0,82.0
390,128.2609725979167,128.90382879791667,51.0,82.0
391,128.2609725979167,128.94177517083335,58.0,80.0
392,128.2609725979167,128.9841858229167,66.0,82.0
393,129.3323995979167,130.06900566041668,56.0,79.0
394,129.3323995979167,130.40829087708335,63.0,82.0
395,129.3323995979167,130.41498729583336,59.0,81.0
396,129.3323995979167,130.97525433125003,44.0,81.0
397,130.4038265979167,130.99087930833335,51.0,77.0
398,130.93954009791668,131.45293220208336,63.0,86.0
399,131.4752535979167,132.04221705208334,65.0,82.0
400,132.5466805979167,133.02882274791668,61.0,92.0
401,132.2788238479167,133.03998344583334,56.0,69.0
402,131.4752535979167,133.06900126041668,49.0,78.0
403,133.08239409791668,133.52212559583336,68.0,104.0
404,133.6181075979167,134.15605323750003,66.0,87.0
405,133.6181075979167,134.76096306458336,58.0,87.0
406,133.6181075979167,135.22301595833335,42.0,77.0
407,134.4216778479167,135.22301595833335,49.0,62.0
408,134.95739134791668,135.27658730833335,58.0,83.0
409,134.6895345979167,135.32792651875002,54.0,80.0
410,135.22524809791668,135.48417628958336,61.0,83.0
411,135.4931048479167,135.79890797083334,66.0,88.0
412,135.7609615979167,136.3234607729167,65.0,84.0
413,135.7609615979167,136.56229970833334,61.0,88.0
414,136.8323885979167,137.33685214375,61.0,89.0
415,135.7609615979167,137.4149770291667,49.0,85.0
416,136.5645318479167,137.41944130833335,56.0,77.0
417,137.36810209791668,137.79890503750002,65.0,91.0
418,137.9038155979167,139.60024168125003,47.0,98.0
419,138.43952909791668,139.60470596041668,54.0,74.0
420,138.9752425979167,140.08461597083334,59.0,87.0
421,138.9752425979167,140.1939908104167,66.0,89.0
422,141.1180965979167,141.38595334791668,61.0,110.0
423,141.1180965979167,141.4462211166667,56.0,104.0
424,140.58238309791668,141.6805957729167,49.0,67.0
425,141.38595334791668,141.6805957729167,58.0,87.0
426,140.0466695979167,141.68506005208334,42.0,87.0
427,141.65381009791668,141.90380973125002,61.0,87.0
428,140.8502398479167,142.06675592083334,54.0,77.0
429,142.1895235979167,142.63595151458335,59.0,89.0
430,142.1895235979167,142.7319335166667,66.0,91.0
431,143.2609505979167,143.69844995625002,63.0,96.0
432,143.52880734791668,143.84130688958336,66.0,86.0
433,142.9930938479167,143.89487823958336,54.0,77.0
434,142.1895235979167,143.9171996354167,47.0,86.0
435,143.79666409791668,144.19398494375002,71.0,86.0
436,144.3323775979167,145.08907291666668,61.0,83.0
437,144.3323775979167,145.27434050208336,46.0,81.0
438,144.3323775979167,145.37255464375002,68.0,88.0
439,145.4038045979167,145.66496492916667,70.0,89.0
440,145.4038045979167,146.30782112916668,51.0,87.0
441,145.4038045979167,146.330142525,63.0,90.0
442,146.4752315979167,146.67165988125,68.0,91.0
443,146.4752315979167,147.0913021229167,59.0,90.0
444,147.01094509791668,147.63371204166668,56.0,81.0
445,146.4752315979167,148.11138991250002,44.0,86.0
446,146.74308834791668,148.17388982083335,51.0,77.0
447,147.5466585979167,148.19844335625,63.0,91.0
448,147.5466585979167,148.22969331041668,59.0,90.0
449,148.08237209791668,148.54665713125002,56.0,77.0
450,148.6180855979167,148.8881744875,61.0,88.0
451,148.6180855979167,148.90603160416669,65.0,90.0
452,149.4216558479167,149.56004850208336,65.0,87.0
453,149.15379909791668,149.7832624604167,61.0,87.0
454,149.6895125979167,150.10245842083336,66.0,89.0
455,149.95736934791668,150.26094033125003,61.0,87.0
456,150.22522609791667,150.46183289375003,66.0,114.0
457,148.6180855979167,150.53326136041667,49.0,87.0
458,148.88594234791668,150.65602903750002,56.0,83.0
459,150.4930828479167,151.22522463125003,68.0,91.0
460,150.7609395979167,151.47299212500002,66.0,102.0
461,150.7609395979167,151.53772417291668,58.0,102.0
462,151.5645098479167,152.07120553333334,54.0,81.0
463,151.8323665979167,152.69397247708335,66.0,102.0
464,151.8323665979167,152.69843675625003,58.0,110.0
465,152.6359368479167,153.28772160625002,54.0,82.0
466,153.17165034791668,153.64932821875001,66.0,85.0
467,152.9037935979167,153.67834603333336,61.0,93.0
468,152.9037935979167,153.6828103125,58.0,86.0
469,150.7609395979167,154.01986338958335,42.0,88.0
470,151.29665309791667,154.06004190208336,49.0,66.0
471,153.9752205979167,154.44396991041668,66.0,94.0
472,153.7073638479167,154.51316623750003,54.0,86.0
473,153.9752205979167,154.57343400625,58.0,107.0
474,154.51093409791667,154.99530838750002,65.0,95.0
475,154.51093409791667,155.08459397083337,53.0,90.0
476,155.0466475979167,155.58905751666668,63.0,96.0
477,155.0466475979167,155.88146780208336,66.0,91.0
478,155.8502178479167,156.48414548958334,58.0,87.0
479,156.1180745979167,156.74307368125002,66.0,107.0
480,156.1180745979167,156.78325219375003,61.0,94.0
481,156.9216448479167,156.99753759375002,61.0,91.0
482,156.9216448479167,157.00646615208336,66.0,92.0
483,156.65378809791667,157.68726872500002,58.0,76.0
484,157.45735834791668,158.0265539416667,63.0,102.0
485,157.45735834791668,158.0466431979167,66.0,102.0
486,158.2609285979167,158.59128525625002,66.0,107.0
487,158.2609285979167,158.80557065625,61.0,107.0
488,157.9930718479167,158.81449921458335,58.0,88.0
489,155.0466475979167,158.86807056458335,51.0,88.0
490,158.52878534791668,158.87476698333336,63.0,83.0
491,158.79664209791667,159.06226670833337,66.0,76.0
492,159.3323555979167,159.82342630625,59.0,92.0
493,159.3323555979167,160.0421759854167,63.0,104.0
494,159.3323555979167,160.0421759854167,66.0,102.0
495,160.1359258479167,160.70065716250002,54.0,80.0
496,160.4037825979167,160.97744247083335,59.0,107.0
497,159.3323555979167,161.16047791666668,47.0,93.0
498,160.4037825979167,161.2810134541667,66.0,116.0
499,160.93949609791667,161.28770987291668,54.0,77.0
500,160.4037825979167,161.28994201250003,63.0,114.0
501,161.4752095979167,162.31449408125002,46.0,94.0
502,162.0109230979167,162.37476185000003,53.0,69.0
503,163.0823500979167,163.54886727083334,63.0,104.0
504,162.5466365979167,163.64931355208336,51.0,94.0
505,163.6180635979167,164.37922319583336,68.0,104.0
506,163.6180635979167,164.3881517541667,59.0,88.0
507,163.6180635979167,164.4216338479167,63.0,92.0
508,164.4216338479167,164.73190125000002,56.0,88.0
509,163.6180635979167,165.24306121458335,44.0,89.0
510,164.1537770979167,165.28770400625,51.0,77.0
511,164.6894905979167,165.53993577916668,59.0,100.0
512,164.6894905979167,165.6068999666667,68.0,107.0
513,165.4930608479167,165.69172127083337,63.0,86.0
514,165.2252040979167,165.75422117916668,56.0,83.0
515,165.7609175979167,166.1493098854167,61.0,88.0
516,165.7609175979167,166.15154202500003,68.0,88.0
517,165.7609175979167,166.18055983958337,65.0,90.0
518,166.2966310979167,166.42832733333336,61.0,84.0
519,166.02877434791668,166.64930915208336,56.0,84.0
520,166.5644878479167,166.93725515833336,61.0,107.0
521,166.5644878479167,166.97743367083336,66.0,117.0
522,167.10020134791668,167.23859400208335,65.0,103.0
523,166.8323445979167,167.3412724229167,56.0,98.0
524,167.10020134791668,167.40823661041668,61.0,96.0
525,165.7609175979167,167.44395084375003,49.0,88.0
526,167.3680580979167,167.58011135833337,65.0,109.0
527,167.9037715979167,168.39707444583337,58.0,107.0
528,167.9037715979167,168.63144910208337,66.0,98.0
529,168.4394850979167,168.77207389583336,61.0,67.0
530,168.7073418479167,169.30778739583334,54.0,79.0
531,168.9751985979167,169.34796590833335,58.0,102.0
532,168.9751985979167,169.5399299125,66.0,93.0
533,168.9751985979167,169.61582265833334,61.0,110.0
534,169.7787688479167,169.86359015208336,58.0,98.0
535,169.7787688479167,169.86359015208336,66.0,89.0
536,169.5109120979167,170.55778556250002,54.0,75.0
537,170.31448234791668,170.87251724375002,61.0,110.0
538,170.31448234791668,170.87921366250004,66.0,100.0
539,167.9037715979167,171.3725165104167,42.0,87.0
540,171.1180525979167,171.41046288333337,58.0,110.0
541,170.8501958479167,171.60465902708336,54.0,82.0
542,171.1180525979167,171.76537307708335,66.0,98.0
543,171.38590934791668,171.95733708125002,61.0,84.0
544,171.6537660979167,172.19840815625003,53.0,93.0
545,172.1894795979167,172.94840705625003,58.0,91.0
546,172.1894795979167,172.96626417291668,66.0,88.0
547,172.1894795979167,172.98188915000003,63.0,100.0
548,173.2609065979167,173.90599493750003,66.0,93.0
549,173.2609065979167,173.91045921666668,58.0,96.0
550,173.2609065979167,173.91938777500002,63.0,104.0
551,174.0644768479167,174.12920889583336,58.0,88.0
552,174.0644768479167,174.133673175,63.0,94.0
553,174.0644768479167,174.133673175,66.0,89.0
554,172.1894795979167,174.73858300208335,51.0,86.0
555,174.60019034791668,175.18054663958335,58.0,90.0
556,174.60019034791668,175.18501091875,66.0,91.0
557,174.60019034791668,175.1894751979167,63.0,102.0
558,175.1359038479167,175.72742083750003,51.0,91.0
559,175.4037605979167,175.9394740979167,58.0,107.0
560,175.4037605979167,176.12250954375003,66.0,100.0
561,175.4037605979167,176.276527175,63.0,110.0
562,175.9394740979167,176.47072331875003,49.0,90.0
563,176.4751875979167,176.91268695625,59.0,90.0
564,176.4751875979167,177.09125812291668,63.0,96.0
565,176.4751875979167,177.14482947291668,66.0,91.0
566,177.2787578479167,177.80554278958337,54.0,86.0
567,176.4751875979167,178.16268512291668,47.0,89.0
568,177.5466145979167,178.42830973333335,66.0,108.0
569,177.5466145979167,178.47072038541668,63.0,110.0
570,178.0823280979167,178.5711666666667,54.0,82.0
571,178.6180415979167,179.16268365625,65.0,100.0
572,178.6180415979167,179.41045115000003,68.0,94.0
573,178.6180415979167,179.62473655000002,61.0,89.0
574,178.6180415979167,179.65821864375002,46.0,79.0
575,179.6894685979167,180.2988427041667,58.0,98.0
576,179.6894685979167,180.47071745208336,66.0,91.0
577,179.6894685979167,180.61134224583336,63.0,100.0
578,179.6894685979167,180.62250294375002,51.0,88.0
579,180.7608955979167,181.5778586854167,59.0,96.0
580,180.7608955979167,181.70285850208336,63.0,108.0
581,180.7608955979167,181.7452691541667,66.0,96.0
582,180.7608955979167,181.75642985208336,47.0,91.0
583,181.8323225979167,182.5957143354167,61.0,89.0
584,181.8323225979167,182.60464289375003,68.0,93.0
585,181.8323225979167,182.65821424375002,65.0,103.0
586,182.6358928479167,182.74749982708335,61.0,38.0
587,181.8323225979167,182.75196410625003,49.0,88.0
588,182.9037495979167,183.72964124375002,61.0,98.0
589,182.9037495979167,183.73633766250003,66.0,98.0
590,182.9037495979167,183.73856980208336,58.0,88.0
591,183.7073198479167,184.18499771875003,54.0,82.0
592,183.9751765979167,184.70285410208336,58.0,102.0
593,182.9037495979167,184.72740763750002,42.0,87.0
594,183.9751765979167,184.80330038333335,66.0,104.0
595,183.9751765979167,184.8658002916667,61.0,114.0
596,184.5108900979167,184.8925859666667,54.0,80.0
597,185.0466035979167,185.7028526354167,65.0,103.0
598,185.0466035979167,185.71401333333336,61.0,114.0
599,185.0466035979167,185.7296383104167,56.0,100.0
600,185.5823170979167,186.06892352708337,53.0,83.0
601,185.8501738479167,186.40597660416668,61.0,116.0
602,185.8501738479167,186.41044088333337,56.0,98.0
603,185.8501738479167,186.41490516250002,65.0,109.0
604,185.0466035979167,186.7363332625,41.0,90.0
605,186.38588734791668,186.8278509854167,53.0,86.0
606,186.6537440979167,186.89035089375002,56.0,100.0
607,186.6537440979167,187.0287435479167,65.0,103.0
608,186.6537440979167,187.05329708333335,61.0,114.0
609,187.1894575979167,187.74079607500002,66.0,89.0
610,187.1894575979167,187.79436742500002,63.0,92.0
611,187.1894575979167,187.80106384375003,59.0,91.0
612,187.1894575979167,188.24079534166668,47.0,91.0
613,187.9930278479167,189.05775842916668,59.0,96.0
614,187.9930278479167,189.07561554583336,66.0,94.0
615,188.52874134791668,189.26311527083337,47.0,86.0
616,187.9930278479167,189.26311527083337,63.0,107.0
617,189.33231159791669,189.85686440000003,54.0,88.0
618,189.33231159791669,190.1693639416667,61.0,104.0
619,189.33231159791669,190.17159608125002,58.0,92.0
620,189.33231159791669,190.17159608125002,66.0,91.0
621,190.1358818479167,190.6046311604167,54.0,88.0
622,190.40373859791669,191.12248754375003,58.0,108.0
623,190.40373859791669,191.19838028958335,66.0,102.0
624,189.33231159791669,191.22516596458337,42.0,85.0
625,190.40373859791669,191.25195163958335,61.0,114.0
626,190.9394520979167,191.3010587104167,54.0,92.0
627,191.47516559791669,192.22070021875004,63.0,102.0
628,191.47516559791669,192.22293235833337,66.0,110.0
629,191.47516559791669,192.2251644979167,71.0,94.0
630,192.2787358479167,192.6068603666667,59.0,87.0
631,192.54659259791669,193.21623447291668,63.0,107.0
632,191.47516559791669,193.36132354583336,47.0,102.0
633,193.0823060979167,193.40819847708335,59.0,83.0
634,192.54659259791669,193.42828773333335,71.0,98.0
635,192.0108790979167,193.47069838541668,54.0,66.0
636,192.54659259791669,193.4840912229167,66.0,114.0
637,193.61801959791669,194.4015005916667,68.0,100.0
638,193.61801959791669,194.41266128958335,61.0,98.0
639,193.61801959791669,194.4215898479167,65.0,109.0
640,194.4215898479167,194.85016064791668,56.0,88.0
641,194.68944659791669,195.41489196250004,61.0,108.0
642,193.61801959791669,195.43721335833337,49.0,96.0
643,194.68944659791669,195.52426680208336,68.0,113.0
644,194.68944659791669,195.5331953604167,65.0,119.0
645,195.2251600979167,195.54435605833336,56.0,86.0
646,195.76087359791669,196.47515826458337,58.0,96.0
647,195.76087359791669,196.49301538125002,61.0,110.0
648,195.76087359791669,196.51310463750002,66.0,98.0
649,196.5644438479167,196.91935404166668,54.0,88.0
650,196.83230059791669,197.45729968125002,66.0,108.0
651,196.83230059791669,197.46622823958336,61.0,116.0
652,196.83230059791669,197.49078177500002,58.0,104.0
653,197.6358708479167,197.69837075625003,61.0,107.0
654,197.6358708479167,197.70506717500004,66.0,96.0
655,197.6358708479167,197.71176359375002,58.0,92.0
656,197.3680140979167,198.22292355833335,54.0,80.0
657,198.1715843479167,198.77649417500004,66.0,107.0
658,198.1715843479167,198.78319059375002,61.0,113.0
659,198.1715843479167,198.78542273333335,58.0,102.0
660,198.7072978479167,199.04435092500003,54.0,102.0
661,198.97515459791668,199.57336800625004,58.0,114.0
662,196.2965870979167,199.60015368125002,49.0,36.0
663,195.76087359791669,199.66935000833337,42.0,93.0
664,198.97515459791668,199.70059996250004,66.0,110.0
665,198.97515459791668,199.72961777708335,61.0,119.0
666,199.5108680979167,199.79211768541668,54.0,100.0
667,200.04658159791668,200.76756268333335,69.0,102.0
668,200.04658159791668,200.81890189375002,64.0,113.0
669,200.04658159791668,200.82559831250003,61.0,107.0
670,200.3144383479167,201.25640125208335,52.0,76.0
671,200.8501518479167,201.25640125208335,57.0,86.0
672,200.04658159791668,201.36800823125003,45.0,104.0
673,201.11800859791668,201.91265028958335,61.0,108.0
674,201.11800859791668,201.91488242916668,69.0,107.0
675,201.11800859791668,201.98407875625003,64.0,114.0
676,201.6537220979167,202.1291678291667,45.0,87.0
677,202.18943559791668,202.6380956541667,64.0,110.0
678,202.18943559791668,202.6514884916667,68.0,104.0
679,202.18943559791668,202.75639905208337,59.0,104.0
680,202.9930058479167,203.3345232041667,52.0,85.0
681,203.26086259791668,203.58452283750003,64.0,100.0
682,203.26086259791668,203.63362990833335,56.0,108.0
683,203.26086259791668,203.64032632708336,59.0,113.0
684,203.7965760979167,203.99300438125002,56.0,90.0
685,203.7965760979167,204.03987931250003,64.0,93.0
686,202.18943559791668,204.04211145208336,40.0,94.0
687,203.5287193479167,204.11577205833336,52.0,91.0
688,203.7965760979167,204.16041485000002,59.0,98.0
689,202.7251490979167,204.20728978125004,47.0,73.0
690,204.33228959791668,205.12023487083337,57.0,100.0
691,204.33228959791668,205.1894311979167,66.0,102.0
692,204.33228959791668,205.21175259375002,62.0,108.0
693,204.33228959791668,205.30773459583335,50.0,96.0
694,205.40371659791668,206.1403226604167,56.0,92.0
695,205.40371659791668,206.34344736250003,61.0,104.0
696,205.40371659791668,206.38362587500004,64.0,100.0
697,205.40371659791668,206.39925085208336,49.0,93.0
698,206.47514359791668,206.96621430625004,66.0,93.0
699,206.47514359791668,207.0242499354167,61.0,108.0
700,206.47514359791668,207.0845177041667,57.0,102.0
701,207.0108570979167,207.48183855000002,54.0,85.0
702,207.2787138479167,207.91710576875002,56.0,91.0
703,207.2787138479167,207.93719502500002,61.0,92.0
704,206.47514359791668,208.25415884583336,42.0,88.0
705,207.8144273479167,208.26531954375002,54.0,88.0
706,206.7430003479167,208.34567656875004,49.0,83.0
707,208.0822840979167,208.41933717500004,56.0,87.0
708,208.0822840979167,208.47960494375002,61.0,87.0
709,208.3501408479167,208.56219410833336,57.0,86.0
710,208.61799759791668,209.3746929166667,62.0,91.0
711,208.61799759791668,209.40371073125002,57.0,93.0
712,209.4215678479167,209.9773706041667,50.0,87.0
713,209.68942459791668,210.2653166104167,62.0,110.0
714,209.68942459791668,210.33451293750002,57.0,117.0
715,210.4929948479167,210.56442331458337,62.0,88.0
716,210.4929948479167,210.59120898958335,54.0,93.0
717,210.2251380979167,211.19165453750003,50.0,83.0
718,211.0287083479167,211.55326115000003,62.0,104.0
719,211.0287083479167,211.58897538333335,57.0,113.0
720,211.5644218479167,212.07781395208337,50.0,90.0
721,211.83227859791668,212.45727768125002,62.0,110.0
722,211.83227859791668,212.46397410000003,54.0,108.0
723,208.61799759791668,212.64700954583336,38.0,94.0
724,211.83227859791668,212.75861652500004,57.0,116.0
725,212.3679920979167,212.76084866458336,50.0,87.0
726,212.90370559791668,213.69611515000003,56.0,90.0
727,212.90370559791668,213.7407579416667,61.0,107.0
728,212.90370559791668,213.75191863958335,65.0,95.0
729,213.97513259791668,214.45950688750003,56.0,92.0
730,213.97513259791668,214.5309353541667,65.0,100.0
731,213.97513259791668,214.58673884375003,61.0,108.0
732,212.90370559791668,214.64031019375003,49.0,90.0
733,214.7787028479167,215.04655959791668,50.0,93.0
734,214.7787028479167,215.04655959791668,62.0,110.0
735,214.7787028479167,215.04655959791668,66.0,104.0
736,214.7787028479167,215.3144163479167,57.0,93.0
737,215.04655959791668,215.3144163479167,66.0,97.0
738,215.3144163479167,215.5822730979167,57.0,97.0
739,215.5822730979167,215.8501298479167,62.0,97.0
740,215.04655959791668,216.11798659791668,38.0,97.0
741,215.8501298479167,216.11798659791668,66.0,97.0
742,216.11798659791668,216.3858433479167,69.0,97.0
743,216.11798659791668,216.6537000979167,50.0,97.0
744,216.3858433479167,216.6537000979167,62.0,97.0
745,216.6537000979167,216.9215568479167,66.0,97.0
746,216.6537000979167,217.18941359791668,38.0,97.0
747,216.9215568479167,217.18941359791668,69.0,97.0
748,217.18941359791668,218.5286973479167,38.0,97.0
749,217.18941359791668,218.5286973479167,50.0,97.0
750,217.18941359791668,219.0644108479167,57.0,97.0
751,217.18941359791668,219.0644108479167,66.0,97.0
752,217.18941359791668,219.0644108479167,74.0,97.0
753,219.33226759791668,219.98405235625003,59.0,108.0
754,219.33226759791668,219.9885166354167,67.0,102.0
755,219.33226759791668,220.0019094729167,62.0,113.0
756,220.40369459791668,220.94164023750002,59.0,110.0
757,220.40369459791668,220.94164023750002,67.0,102.0
758,220.40369459791668,220.98181875000003,62.0,113.0
759,221.2072648479167,221.2742290354167,62.0,100.0
760,221.2072648479167,221.27869331458336,59.0,91.0
761,221.2072648479167,221.28538973333337,67.0,87.0
762,220.9394080979167,221.8902995604167,55.0,71.0
763,219.33226759791668,222.00190653958336,43.0,98.0
764,219.8679810979167,222.0041386791667,50.0,75.0
765,221.7429783479167,222.28762040625003,67.0,100.0
766,221.7429783479167,222.28985254583336,62.0,114.0
767,221.7429783479167,222.29431682500004,59.0,110.0
768,222.54654859791668,222.97288725833337,67.0,104.0
769,222.54654859791668,222.99967293333336,59.0,113.0
770,222.54654859791668,223.00190507291668,62.0,116.0
771,223.0822620979167,223.22065475208336,67.0,91.0
772,223.0822620979167,223.22735117083337,62.0,91.0
773,222.2786918479167,223.5309221541667,42.0,100.0
774,223.61797559791668,224.41931370833336,64.0,100.0
775,223.61797559791668,224.46395650000002,59.0,113.0
776,223.61797559791668,224.4684207791667,55.0,100.0
777,224.4215458479167,224.78538460000004,52.0,98.0
778,224.68940259791668,225.30993740208336,64.0,110.0
779,224.68940259791668,225.3456516354167,59.0,117.0
780,224.68940259791668,225.36350875208336,55.0,113.0
781,225.4929728479167,225.57779415208336,55.0,108.0
782,225.4929728479167,225.76529387708337,64.0,104.0
783,225.4929728479167,225.79207955208335,59.0,116.0
784,225.2251160979167,226.1023469541667,52.0,87.0
785,226.0286863479167,226.56663198750002,55.0,110.0
786,226.0286863479167,226.56663198750002,64.0,107.0
787,226.0286863479167,226.5911855229167,59.0,116.0
788,226.5643998479167,226.89698864583337,52.0,110.0
789,223.61797559791668,226.96395283333337,40.0,87.0
790,224.1536890979167,226.97734567083336,47.0,78.0
791,226.8322565979167,227.13136330208337,64.0,113.0
792,226.8322565979167,227.1737739541667,55.0,116.0
793,226.8322565979167,227.17600609375003,59.0,120.0
794,227.1001133479167,227.4617199604167,40.0,102.0
795,227.3679700979167,227.64475540625003,55.0,108.0
796,227.3679700979167,227.7094874541667,64.0,107.0
797,227.3679700979167,227.7697552229167,59.0,116.0
798,227.6358268479167,227.90814787708337,38.0,102.0
799,227.9036835979167,228.36350435208337,64.0,107.0
800,227.9036835979167,228.4460935166667,60.0,113.0
801,227.9036835979167,228.74296808125004,55.0,108.0
802,228.7072538479167,229.22064595208337,48.0,107.0
803,228.9751105979167,229.66037745000003,52.0,114.0
804,229.5108240979167,229.77644870833336,48.0,91.0
805,228.9751105979167,229.8255557791667,55.0,117.0
806,228.9751105979167,229.91484136250003,60.0,107.0
807,227.9036835979167,229.9862698291667,36.0,107.0
808,230.0465375979167,230.8300185916667,54.0,92.0
809,230.0465375979167,230.9974290604167,59.0,108.0
810,230.0465375979167,231.00189333958338,62.0,98.0
811,230.0465375979167,231.07332180625002,35.0,107.0
812,231.1179645979167,231.72957084375003,64.0,98.0
813,231.1179645979167,231.75189223958336,55.0,107.0
814,231.1179645979167,231.77867791458337,59.0,113.0
815,231.1179645979167,231.92376698750004,40.0,100.0
816,231.9215348479167,232.08001675833336,55.0,100.0
817,231.9215348479167,232.10010601458336,64.0,100.0
818,231.9215348479167,232.13805238750004,59.0,110.0
819,232.1893915979167,233.01081896458336,57.0,108.0
820,232.1893915979167,233.02867608125004,60.0,114.0
821,232.1893915979167,233.06215817500004,64.0,94.0
822,232.9929618479167,233.33671134375004,52.0,98.0
823,233.5286753479167,233.7697464229167,52.0,87.0
824,232.1893915979167,233.87465698333335,45.0,92.0
825,233.2608185979167,234.0041210791667,60.0,117.0
826,233.2608185979167,234.02197819583336,64.0,113.0
827,233.2608185979167,234.18715652500003,57.0,117.0
828,234.3322455979167,234.92599472708338,57.0,107.0
829,234.3322455979167,234.96394110000003,62.0,98.0
830,234.3322455979167,235.0554588229167,54.0,93.0
831,235.1358158479167,235.1759943604167,62.0,84.0
832,235.1358158479167,235.3835833416667,55.0,110.0
833,234.8679590979167,235.4505475291667,50.0,114.0
834,235.4036725979167,235.80992200208337,54.0,107.0
835,235.4036725979167,235.83670767708335,57.0,108.0
836,235.4036725979167,235.8389398166667,62.0,94.0
837,234.3322455979167,236.09563586875004,38.0,94.0
838,234.6001023479167,236.13581438125004,45.0,85.0
839,235.9393860979167,236.2005464291667,62.0,91.0
840,235.9393860979167,236.2675106166667,54.0,104.0
841,236.2072428479167,236.45277820208335,57.0,94.0
842,235.6715293479167,236.45724248125003,50.0,116.0
843,236.4750995979167,236.87688472291669,55.0,96.0
844,236.4750995979167,237.11349151875004,59.0,110.0
845,236.4750995979167,237.2117056604167,62.0,102.0
846,237.2786698479167,237.6402764604167,55.0,98.0
847,237.5465265979167,238.13134716875004,59.0,110.0
848,237.5465265979167,238.1893827979167,67.0,104.0
849,237.5465265979167,238.21393633333338,62.0,117.0
850,238.0822400979167,238.54206085208335,55.0,86.0
851,238.3500968479167,238.68045350625002,59.0,100.0
852,238.3500968479167,238.69384634375004,67.0,100.0
853,238.3500968479167,238.7050070416667,62.0,113.0
854,238.8858103479167,239.1737563541667,57.0,108.0
855,238.8858103479167,239.2407205416667,67.0,90.0
856,238.8858103479167,239.25857765833337,62.0,108.0
857,238.6179535979167,239.38357747500004,55.0,83.0
858,239.4215238479167,239.7831304604167,67.0,108.0
859,239.4215238479167,239.7898268791667,59.0,114.0
860,239.4215238479167,239.7965232979167,62.0,117.0
861,239.6893805979167,239.9438445104167,55.0,113.0
862,236.4750995979167,240.0041122791667,43.0,107.0
863,237.0108130979167,240.07554074583337,50.0,83.0
864,239.9572373479167,240.32777251875004,59.0,110.0
865,239.9572373479167,240.33670107708338,62.0,108.0
866,239.9572373479167,240.34116535625003,67.0,96.0
867,240.4929508479167,240.63803992083336,59.0,102.0
868,240.4929508479167,240.6536648979167,62.0,98.0
869,240.4929508479167,240.65589703750004,67.0,89.0
870,240.2250940979167,240.73178978333337,42.0,98.0
871,240.7608075979167,241.5509850104167,59.0,108.0
872,240.7608075979167,241.5576814291667,64.0,110.0
873,241.5643778479167,242.01750218333336,52.0,98.0
874,241.8322345979167,242.4148230291667,55.0,114.0
875,241.8322345979167,242.42598372708338,64.0,108.0
876,242.1000913479167,242.46393010000003,59.0,84.0
877,242.6358048479167,242.69830475625002,59.0,116.0
878,242.6358048479167,242.71169759375005,55.0,108.0
879,242.6358048479167,242.73178685000002,64.0,100.0
880,242.3679480979167,243.27642890833337,52.0,88.0
881,243.1715183479167,243.52866068125005,55.0,110.0
882,243.1715183479167,243.7273211041667,64.0,104.0
883,243.1715183479167,243.76526747708337,59.0,117.0
884,243.9750885979167,243.99071357500003,61.0,97.0
885,243.7072318479167,244.01749925000004,52.0,116.0
886,241.2965210979167,244.1358026479167,47.0,77.0
887,240.7608075979167,244.14696334583337,40.0,93.0
888,243.9750885979167,244.24740962708336,55.0,114.0
889,243.9750885979167,244.25187390625004,64.0,108.0
890,243.9750885979167,244.26080246458338,59.0,117.0
891,244.5108020979167,244.75410531250003,55.0,104.0
892,244.5108020979167,244.8255337791667,64.0,100.0
893,244.5108020979167,244.90142652500003,59.0,114.0
894,244.2429453479167,244.95723001458336,38.0,113.0
895,245.0465155979167,245.31883662708336,64.0,88.0
896,245.0465155979167,245.32330090625004,60.0,110.0
897,245.0465155979167,245.8299965916667,55.0,102.0
898,245.8500858479167,246.2317817166667,48.0,92.0
899,246.1179425979167,246.63133470208336,52.0,114.0
900,246.1179425979167,246.8478522416667,55.0,116.0
901,246.6536560979167,246.9549949416667,48.0,88.0
902,246.1179425979167,247.01972698958338,60.0,110.0
903,245.0465155979167,247.03981624583338,36.0,96.0
904,245.5822290979167,247.04651266458336,43.0,84.0
905,247.1893695979167,247.83669007708338,54.0,104.0
906,247.1893695979167,248.01749338333337,59.0,108.0
907,247.1893695979167,248.11570752500003,62.0,93.0
908,247.1893695979167,248.15811817708337,35.0,108.0
909,248.2607965979167,248.93936703125004,62.0,87.0
910,248.2607965979167,249.0174919166667,52.0,88.0
911,248.2607965979167,249.02865261458336,59.0,90.0
912,248.2607965979167,249.1581167104167,55.0,94.0
913,248.2607965979167,249.2853486666667,40.0,89.0
914,249.3322235979167,253.26078926458337,60.0,88.0
915,249.3322235979167,253.47953894375004,57.0,80.0
916,249.3322235979167,253.5710566666667,52.0,79.0
917,249.3322235979167,253.88355620833337,45.0,87.0
918,249.3322235979167,253.99739532708335,55.0,87.0
919,253.8857883479167,255.73846420208338,38.0,76.0
920,253.8857883479167,255.86346401875002,57.0,74.0
921,253.8857883479167,256.0755172791667,54.0,68.0
922,254.1536450979167,256.45944528750005,62.0,87.0
923,256.2964990979167,256.7317663166667,55.0,38.0
924,256.5643558479167,256.9438195770834,59.0,71.0
925,256.5643558479167,257.3612296791667,62.0,85.0
926,257.6357828479167,258.1045321604167,57.0,88.0
927,257.3679260979167,258.2652462104167,55.0,73.0
928,257.6357828479167,259.6156906583334,62.0,91.0
929,256.5643558479167,260.6558677041667,43.0,72.0
930,258.17149634791673,260.71167119375,59.0,86.0
931,257.1000693479167,260.83220673125004,50.0,68.0
932,260.5822070979167,262.2853296,60.0,67.0
933,260.5822070979167,262.3433652291667,55.0,50.0
934,260.8500638479167,262.44604365000004,64.0,83.0
935,260.8500638479167,263.1134533854167,48.0,40.0
936,262.7250610979167,264.92371858750005,54.0,36.0
937,262.9929178479167,265.0531826833334,62.0,64.0
938,262.9929178479167,265.1938074770834,38.0,44.0
939,262.9929178479167,265.2719323625,57.0,67.0
940,265.1357718479167,267.0241619354167,55.0,70.0
941,265.4036285979167,267.187108125,62.0,78.0
942,265.4036285979167,267.2563044520834,59.0,67.0
943,265.4036285979167,267.2920186854167,43.0,40.0
