,start,end,pitch,velocity
0,16.47810121875,16.978483349999998,67.0,76.0
1,16.938222718749998,17.39834421875,76.0,55.0
2,17.39834421875,17.856548545833334,74.0,66.0
3,17.85846571875,18.31858721875,74.0,77.0
4,18.31858721875,19.23883021875,76.0,81.0
5,19.23883021875,20.15907321875,74.0,75.0
6,20.15907321875,20.646035139583333,67.0,74.0
7,20.61919471875,21.159837481249998,76.0,86.0
8,21.079316218749998,21.543272064583334,74.0,74.0
9,21.539437718749998,21.543272064583334,74.0,63.0
10,22.014896602083333,22.45968071875,76.0,65.0
11,22.45968071875,25.21849254583333,72.0,76.0
12,25.22040971875,25.77255551875,72.0,70.0
13,25.680531218749998,26.177079004166664,74.0,68.0
14,26.140652718749998,26.64103485,76.0,77.0
15,26.60077421875,27.058978545833334,72.0,67.0
16,27.06089571875,27.563195022916666,72.0,69.0
17,27.52101721875,28.004144793749997,74.0,68.0
18,27.98113871875,28.44126021875,76.0,71.0
19,28.44126021875,28.90138171875,72.0,64.0
20,28.90138171875,29.36150321875,77.0,85.0
21,29.36150321875,31.20198921875,76.0,67.0
22,31.20198921875,31.717708733333332,67.0,68.0
23,31.66211071875,32.152906985416664,76.0,65.0
24,32.12223221875,32.58043654583333,74.0,60.0
25,32.58235371875,33.06739846666667,74.0,70.0
26,33.04247521875,33.96271821875,76.0,74.0
27,33.96271821875,34.88296121875,74.0,66.0
28,34.88296121875,35.34308271875,67.0,64.0
29,35.34308271875,35.90481438333333,76.0,74.0
30,35.80320421875,36.26524289166667,74.0,67.0
31,36.263325718749996,36.26524289166667,74.0,68.0
32,36.723447218749996,37.643690218749995,76.0,74.0
33,37.643690218749995,39.94238054583333,72.0,67.0
34,39.94429771875,40.50794655625,72.0,73.0
35,40.40441921875,40.86454071875,74.0,73.0
36,40.86454071875,41.32657939166666,76.0,71.0
37,41.32466221875,41.78286654583333,72.0,65.0
38,41.78478371875,42.30625475208333,72.0,71.0
39,42.24490521875,42.7107782375,74.0,67.0
40,42.70502671875,43.17856842916667,76.0,73.0
41,43.16514821875,43.69428794375,72.0,64.0
42,43.62526971875,44.11606598541667,74.0,85.0
43,44.08539121875,45.01330291041666,72.0,85.0
44,45.00563421875,45.01330291041666,72.0,71.0
45,45.465755718749996,45.925877218749996,72.0,75.0
46,45.925877218749996,46.399418929166664,71.0,74.0
47,46.385998718749995,46.876794985416666,67.0,74.0
48,46.846120218749995,47.306241718749995,72.0,70.0
49,47.306241718749995,47.77978342916666,71.0,64.0
50,47.76636321875,48.68660621875,67.0,68.0
51,48.68660621875,49.14481054583333,72.0,70.0
52,49.14672771875,49.60684921875,72.0,74.0
53,49.60684921875,50.084225275,71.0,68.0
54,50.06697071875,50.57693871458333,67.0,67.0
55,50.52709221875,51.077320845833334,72.0,74.0
56,50.98721371875,51.44733521875,71.0,70.0
57,51.44733521875,52.36757821875,67.0,69.0
58,52.36757821875,52.82769971875,72.0,67.0
59,52.82769971875,53.28782121875,71.0,74.0
60,53.28782121875,53.74794271875,72.0,67.0
61,53.74794271875,54.259827887499995,67.0,71.0
62,54.208064218749996,54.668185718749996,72.0,74.0
63,54.668185718749996,55.14939612083333,71.0,68.0
64,55.128307218749995,55.628689349999995,72.0,75.0
65,55.588428718749995,56.04663304583333,74.0,72.0
66,56.048550218749995,56.50675454583333,74.0,76.0
67,56.508671718749994,56.96687604583333,74.0,76.0
68,56.96879321875,57.42699754583333,74.0,83.0
69,57.42891471875,57.88903621875,74.0,93.0
70,57.88903621875,58.34915771875,72.0,68.0
71,58.34915771875,58.80927921875,76.0,90.0
72,58.80927921875,59.72952221875,74.0,79.0
73,59.72952221875,60.18772654583333,77.0,85.0
74,60.18964371875,60.64976521875,77.0,85.0
75,60.64976521875,61.10988671875,76.0,74.0
76,61.10988671875,61.57000821875,77.0,77.0
77,61.57000821875,62.03012971875,79.0,85.0
78,62.03012971875,62.49025121875,76.0,85.0
79,62.49025121875,63.410494218749996,74.0,87.0
80,63.410494218749996,63.86869854583333,76.0,64.0
81,63.870615718749995,64.33073721875,76.0,70.0
82,64.33073721875,64.79085871875,74.0,67.0
83,64.79085871875,65.25098021875,76.0,67.0
84,65.25098021875,65.71110171875,74.0,63.0
85,65.71110171875,65.96416854374999,72.0,64.0
86,65.94116246875,66.24215861666666,69.0,49.0
87,66.17122321875,67.42121996041666,72.0,66.0
88,67.09146621875,67.54967054583334,77.0,77.0
89,67.55158771875,68.01170921875,77.0,95.0
90,68.01170921875,68.47183071875,76.0,73.0
91,68.47183071875,68.93195221875,77.0,87.0
92,68.93195221875,69.41699696666666,76.0,67.0
93,69.39207371875,69.99790036041666,74.0,85.0
94,69.85219521875,70.31231671875,72.0,71.0
95,70.31231671875,70.77052104583333,74.0,87.0
96,70.77243821875,71.23064254583333,74.0,83.0
97,71.23255971875,71.69076404583333,74.0,93.0
98,71.69268121875,72.15088554583333,74.0,86.0
99,72.15280271875,72.61292421875,74.0,104.0
100,72.61292421875,72.84298496875,72.0,68.0
101,72.84298496875,73.30310646875,81.0,98.0
102,73.30310646875,73.99137154583333,79.0,108.0
103,73.99328871875,74.45341021875,79.0,93.0
104,74.45341021875,74.68155379583332,77.0,65.0
105,74.68347096875,75.14359246875,77.0,83.0
106,75.14359246875,75.60179679583334,76.0,87.0
107,75.60371396875,76.06383546875,76.0,81.0
108,76.06383546875,76.52395696875,74.0,74.0
109,76.52395696875,76.98407846875,77.0,90.0
110,76.98407846875,77.67426071874999,76.0,81.0
111,77.67426071874999,78.13438221874999,79.0,104.0
112,78.13438221874999,78.36252579583333,77.0,90.0
113,78.36444296875,78.82456446875,77.0,93.0
114,78.82456446875,79.28276879583333,76.0,86.0
115,79.28468596875,79.74480746875,76.0,75.0
116,79.74480746875,80.20301179583333,74.0,75.0
117,80.20492896875,80.66505046875,74.0,86.0
118,80.66505046875,81.37440444791666,72.0,74.0
119,81.35523271875,81.81535421875,77.0,95.0
120,81.81535421875,82.04541496875,76.0,71.0
121,82.04541496875,82.50553646875,77.0,85.0
122,82.50553646875,82.96374079583333,79.0,100.0
123,82.96565796875,83.42577946875,79.0,98.0
124,83.42577946875,83.70376954166666,77.0,79.0
125,83.65584021875,83.88590096875,76.0,69.0
126,83.88590096875,85.03620471875,77.0,100.0
127,85.03620471875,85.49440904583334,80.0,100.0
128,85.49632621875,85.72446979583333,80.0,87.0
129,85.72638696874999,86.18650846874999,80.0,85.0
130,86.18650846874999,86.64471279583333,82.0,67.0
131,86.64662996874999,87.10675146874999,82.0,112.0
132,87.10675146874999,87.37132133125,80.0,83.0
133,87.33681221875,87.56687296874999,79.0,77.0
134,87.56687296874999,88.71717671875,80.0,95.0
135,88.71717671875,89.17729821875,79.0,93.0
136,89.17729821875,89.40544179583333,77.0,65.0
137,89.40735896875,89.86748046875,77.0,83.0
138,89.86748046875,90.32568479583333,76.0,87.0
139,90.32760196875,90.78772346875,76.0,81.0
140,90.78772346875,91.24784496875,74.0,74.0
141,91.24784496875,91.70796646875,77.0,90.0
142,91.70796646875,92.39814871875,76.0,81.0
143,92.39814871875,92.85827021875,79.0,104.0
144,92.85827021875,93.08641379583332,77.0,90.0
145,93.08833096875,93.54845246875,77.0,93.0
146,93.54845246875,94.00665679583334,76.0,86.0
147,94.00857396875,94.46869546875,76.0,75.0
148,94.46869546875,94.92689979583334,74.0,75.0
149,94.92881696875,95.38893846875,74.0,86.0
150,95.38893846875,96.09829244791666,72.0,74.0
151,96.07912071874999,96.53924221874999,77.0,95.0
152,96.53924221874999,96.76930296875,76.0,71.0
153,96.76930296875,97.22942446875,77.0,85.0
154,97.22942446875,97.68762879583333,79.0,100.0
155,97.68954596875,98.14966746875,79.0,98.0
156,98.14966746875,98.42765754166666,77.0,79.0
157,98.37972821875,98.60978896875,76.0,69.0
158,98.60978896875,99.53003196875,77.0,100.0
159,99.53003196875,99.76009271875,76.0,70.0
160,99.76009271875,100.22021421875,77.0,95.0
161,100.22021421875,100.45027496875,76.0,68.0
162,100.45027496875,100.91039646875,77.0,100.0
163,100.91039646875,101.60057871875,79.0,93.0
164,101.60057871875,101.88815465625,77.0,86.0
165,101.83063946875,102.08178912083334,76.0,53.0
166,102.06070021875,102.61668036458333,72.0,69.0
167,102.52082171875,102.97902604583332,74.0,74.0
168,102.98094321875,103.44106471875,74.0,90.0
169,103.44106471875,119.54531721875,72.0,77.0
170,119.54531721875,120.04569934999999,67.0,76.0
171,120.00543871875,120.46556021875,76.0,55.0
172,120.46556021875,120.92376454583332,74.0,66.0
173,120.92568171875,121.38580321875,74.0,77.0
174,121.38580321875,122.30604621875,76.0,81.0
175,122.30604621875,123.22628921875,74.0,75.0
176,123.22628921875,123.71325113958333,67.0,74.0
177,123.68641071875,124.22705348125,76.0,86.0
178,124.14653221875,124.61048806458332,74.0,74.0
179,124.60665371875,124.61048806458332,74.0,63.0
180,125.08211260208333,125.52689671875,76.0,65.0
181,125.52689671875,128.28570854583333,72.0,76.0
182,128.28762571875,128.83977151874998,72.0,70.0
183,128.74774721875,129.24429500416667,74.0,68.0
184,129.20786871875,129.70825084999998,76.0,77.0
185,129.66799021875,130.12619454583333,72.0,67.0
186,130.12811171875,130.63041102291666,72.0,69.0
187,130.58823321875,131.07136079375,74.0,68.0
188,131.04835471875,131.50847621875,76.0,71.0
189,131.50847621875,131.96859771875,72.0,64.0
190,131.96859771875,132.42871921875,77.0,85.0
191,132.42871921875,134.26920521875,76.0,67.0
192,134.26920521875,134.78492473333333,67.0,68.0
193,134.72932671875,135.22012298541665,76.0,65.0
194,135.18944821875,135.64765254583332,74.0,60.0
195,135.64956971875,136.13461446666665,74.0,70.0
196,136.10969121875,137.02993421875,76.0,74.0
197,137.02993421875,137.95017721874999,74.0,66.0
198,137.95017721874999,138.41029871875,67.0,64.0
199,138.41029871875,138.97203038333333,76.0,74.0
200,138.87042021874998,139.33245889166665,74.0,67.0
201,139.33054171875,139.33245889166665,74.0,68.0
202,139.79066321874998,140.71090621874998,76.0,74.0
203,140.71090621874998,143.00959654583332,72.0,67.0
204,143.01151371875,143.57516255625,72.0,73.0
205,143.47163521874998,143.93175671875,74.0,73.0
206,143.93175671875,144.39379539166666,76.0,71.0
207,144.39187821875,144.85008254583332,72.0,65.0
208,144.85199971875,145.37347075208334,72.0,71.0
209,145.31212121875,145.7779942375,74.0,67.0
210,145.77224271875,146.24578442916666,76.0,73.0
211,146.23236421875,146.76150394375,72.0,64.0
212,146.69248571875,147.18328198541667,74.0,85.0
213,147.15260721875,148.08051891041666,72.0,85.0
214,148.07285021875,148.08051891041666,72.0,71.0
215,148.53297171875,148.99309321875,72.0,75.0
216,148.99309321875,149.46663492916667,71.0,74.0
217,149.45321471875,149.94401098541667,67.0,74.0
218,149.91333621875,150.37345771875,72.0,70.0
219,150.37345771875,150.84699942916666,71.0,64.0
220,150.83357921875,151.75382221875,67.0,68.0
221,151.75382221875,152.21202654583334,72.0,70.0
222,152.21394371875,152.67406521875,72.0,74.0
223,152.67406521875,153.151441275,71.0,68.0
224,153.13418671875,153.64415471458332,67.0,67.0
225,153.59430821875,154.14453684583333,72.0,74.0
226,154.05442971875,154.51455121875,71.0,70.0
227,154.51455121875,155.43479421875,67.0,69.0
228,155.43479421875,155.89491571874998,72.0,67.0
229,155.89491571874998,156.35503721875,71.0,74.0
230,156.35503721875,156.81515871874998,72.0,67.0
231,156.81515871874998,157.3270438875,67.0,71.0
232,157.27528021875,157.73540171874998,72.0,74.0
233,157.73540171874998,158.21661212083333,71.0,68.0
234,158.19552321875,158.69590535,72.0,75.0
235,158.65564471874998,159.11384904583332,74.0,72.0
236,159.11576621875,159.57397054583333,74.0,76.0
237,159.57588771874998,160.03409204583332,74.0,76.0
238,160.03600921875,160.49421354583333,74.0,83.0
239,160.49613071874998,160.95625221875,74.0,93.0
240,160.95625221875,161.41637371874998,72.0,68.0
241,161.41637371874998,161.87649521875,76.0,90.0
242,161.87649521875,162.79673821875,74.0,79.0
243,162.79673821875,163.25494254583333,77.0,85.0
244,163.25685971875,163.71698121875,77.0,85.0
245,163.71698121875,164.17710271875,76.0,74.0
246,164.17710271875,164.63722421875,77.0,77.0
247,164.63722421875,165.09734571875,79.0,85.0
248,165.09734571875,165.55746721875,76.0,85.0
249,165.55746721875,166.47771021875,74.0,87.0
250,166.47771021875,166.93591454583333,76.0,64.0
251,166.93783171875,167.39795321875,76.0,70.0
252,167.39795321875,167.85807471875,74.0,67.0
253,167.85807471875,168.31819621875,76.0,67.0
254,168.31819621875,168.77831771875,74.0,63.0
255,168.77831771875,169.03138454375,72.0,64.0
256,169.00837846874998,169.30937461666667,69.0,49.0
257,169.23843921875,170.48843596041667,72.0,66.0
258,170.15868221875,170.61688654583332,77.0,77.0
259,170.61880371875,171.07892521875,77.0,95.0
260,171.07892521875,171.53904671875,76.0,73.0
261,171.53904671875,171.99916821875,77.0,87.0
262,171.99916821875,172.48421296666666,76.0,67.0
263,172.45928971875,173.06511636041665,74.0,85.0
264,172.91941121874999,173.37953271875,72.0,71.0
265,173.37953271875,173.83773704583334,74.0,87.0
266,173.83965421874998,174.29785854583332,74.0,83.0
267,174.29977571875,174.75798004583334,74.0,93.0
268,174.75989721874998,175.21810154583332,74.0,86.0
269,175.22001871875,175.68014021874998,74.0,104.0
270,175.68014021874998,175.91020096875,72.0,68.0
271,175.91020096875,176.37032246875,81.0,98.0
272,176.37032246875,177.05858754583332,79.0,108.0
273,177.06050471875,177.52062621874998,79.0,93.0
274,177.52062621874998,177.74876979583334,77.0,65.0
275,177.75068696875,178.21080846875,77.0,83.0
276,178.21080846875,178.66901279583334,76.0,87.0
277,178.67092996875,179.13105146875,76.0,81.0
278,179.13105146875,179.59117296875,74.0,74.0
279,179.59117296875,180.05129446875,77.0,90.0
280,180.05129446875,180.74147671875,76.0,81.0
281,180.74147671875,181.20159821874998,79.0,104.0
282,181.20159821874998,181.42974179583334,77.0,90.0
283,181.43165896874999,181.89178046875,77.0,93.0
284,181.89178046875,182.34998479583334,76.0,86.0
285,182.35190196874998,182.81202346875,76.0,75.0
286,182.81202346875,183.27022779583334,74.0,75.0
287,183.27214496874998,183.73226646875,74.0,86.0
288,183.73226646875,184.44162044791665,72.0,74.0
289,184.42244871875,184.88257021875,77.0,95.0
290,184.88257021875,185.11263096874998,76.0,71.0
291,185.11263096874998,185.57275246875,77.0,85.0
292,185.57275246875,186.03095679583333,79.0,100.0
293,186.03287396874998,186.49299546875,79.0,98.0
294,186.49299546875,186.77098554166665,77.0,79.0
295,186.72305621875,186.95311696874998,76.0,69.0
296,186.95311696874998,188.10342071875,77.0,100.0
297,188.10342071875,188.56162504583332,80.0,100.0
298,188.56354221875,188.79168579583333,80.0,87.0
299,188.79360296874998,189.25372446875,80.0,85.0
300,189.25372446875,189.71192879583333,82.0,67.0
301,189.71384596874998,190.17396746875,82.0,112.0
302,190.17396746875,190.43853733125,80.0,83.0
303,190.40402821875,190.63408896875,79.0,77.0
304,190.63408896875,191.78439271874998,80.0,95.0
305,191.78439271874998,192.24451421875,79.0,93.0
306,192.24451421875,192.47265779583333,77.0,65.0
307,192.47457496875,192.93469646875,77.0,83.0
308,192.93469646875,193.39290079583333,76.0,87.0
309,193.39481796875,193.85493946875,76.0,81.0
310,193.85493946875,194.31506096875,74.0,74.0
311,194.31506096875,194.77518246875,77.0,90.0
312,194.77518246875,195.46536471874998,76.0,81.0
313,195.46536471874998,195.92548621875,79.0,104.0
314,195.92548621875,196.15362979583333,77.0,90.0
315,196.15554696875,196.61566846875,77.0,93.0
316,196.61566846875,197.07387279583332,76.0,86.0
317,197.07578996875,197.53591146875,76.0,75.0
318,197.53591146875,197.99411579583332,74.0,75.0
319,197.99603296875,198.45615446875,74.0,86.0
320,198.45615446875,199.16550844791666,72.0,74.0
321,199.14633671874998,199.60645821875,77.0,95.0
322,199.60645821875,199.83651896875,76.0,71.0
323,199.83651896875,200.29664046874998,77.0,85.0
324,200.29664046874998,200.75484479583332,79.0,100.0
325,200.75676196875,201.21688346874998,79.0,98.0
326,201.21688346874998,201.49487354166666,77.0,79.0
327,201.44694421875,201.67700496875,76.0,69.0
328,201.67700496875,202.59724796875,77.0,100.0
329,202.59724796875,202.82730871875,76.0,70.0
330,202.82730871875,203.28743021875,77.0,95.0
331,203.28743021875,203.51749096875,76.0,68.0
332,203.51749096875,203.97761246874998,77.0,100.0
333,203.97761246874998,204.66779471875,79.0,93.0
334,204.66779471875,204.95537065624998,77.0,86.0
335,204.89785546874998,205.14900512083332,76.0,53.0
336,205.12791621875,205.68389636458332,72.0,69.0
337,205.58803771875,206.04624204583334,74.0,74.0
338,206.04815921875,206.50828071875,74.0,90.0
339,206.50828071875,210.21992748541666,72.0,77.0
340,210.18925271875,210.64937421874998,80.0,93.0
341,210.64937421874998,210.8775177958333,78.0,65.0
342,210.87943496875,211.33955646875,78.0,83.0
343,211.33955646875,211.7977607958333,77.0,87.0
344,211.79967796875,212.25979946875,77.0,81.0
345,212.25979946875,212.71992096875,75.0,74.0
346,212.71992096875,213.18004246875,78.0,90.0
347,213.18004246875,213.87022471875,77.0,81.0
348,213.87022471875,214.33034621874998,80.0,104.0
349,214.33034621874998,214.55848979583334,78.0,90.0
350,214.56040696875,215.02052846875,78.0,93.0
351,215.02052846875,215.47873279583334,77.0,86.0
352,215.48064996875,215.94077146875,77.0,75.0
353,215.94077146875,216.39897579583334,75.0,75.0
354,216.40089296875,216.86101446875,75.0,86.0
355,216.86101446875,217.57036844791665,73.0,74.0
356,217.55119671875,218.01131821874998,78.0,95.0
357,218.01131821874998,218.24137896874998,77.0,71.0
358,218.24137896874998,218.70150046875,78.0,85.0
359,218.70150046875,219.15970479583333,80.0,100.0
360,219.16162196874998,219.62174346875,80.0,98.0
361,219.62174346875,219.89973354166665,78.0,79.0
362,219.85180421875,220.08186496874998,77.0,69.0
363,220.08186496874998,221.23216871875,78.0,100.0
364,221.23216871875,221.69037304583333,81.0,100.0
365,221.69229021875,221.92043379583333,81.0,87.0
366,221.92235096874998,222.38247246875,81.0,85.0
367,222.38247246875,222.84067679583333,83.0,67.0
368,222.84259396874998,223.30271546875,83.0,112.0
369,223.30271546875,223.56728533125,81.0,83.0
370,223.53277621875,223.76283696874998,80.0,77.0
371,223.76283696874998,224.91314071875,81.0,95.0
372,224.91314071875,225.37326221875,80.0,93.0
373,225.37326221875,225.60140579583333,78.0,65.0
374,225.60332296874998,226.06344446875,78.0,83.0
375,226.06344446875,226.52164879583333,77.0,87.0
376,226.52356596874998,226.98368746875,77.0,81.0
377,226.98368746875,227.44380896874998,75.0,74.0
378,227.44380896874998,227.90393046875,78.0,90.0
379,227.90393046875,228.59411271874998,77.0,81.0
380,228.59411271874998,229.05423421875,80.0,104.0
381,229.05423421875,229.28237779583333,78.0,90.0
382,229.28429496875,229.74441646875,78.0,93.0
383,229.74441646875,230.20262079583333,77.0,86.0
384,230.20453796875,230.66465946875,77.0,75.0
385,230.66465946875,231.12286379583333,75.0,75.0
386,231.12478096875,231.58490246875,75.0,86.0
387,231.58490246875,232.29425644791667,73.0,74.0
388,232.27508471874998,232.73520621875,78.0,95.0
389,232.73520621875,232.96526696875,77.0,71.0
390,232.96526696875,233.42538846875,78.0,85.0
391,233.42538846875,233.88359279583332,80.0,100.0
392,233.88550996875,234.34563146874999,80.0,98.0
393,234.34563146874999,234.62362154166667,78.0,79.0
394,234.57569221875,234.80575296875,77.0,69.0
395,234.80575296875,235.72599596875,78.0,100.0
396,235.72599596875,235.95605671874998,77.0,70.0
397,235.95605671874998,236.41617821875,78.0,95.0
398,236.41617821875,236.64623896875,77.0,68.0
399,236.64623896875,237.10636046874998,78.0,100.0
400,237.10636046874998,237.79654271875,80.0,93.0
401,237.79654271875,238.08411865624998,78.0,86.0
402,238.02660346874998,238.27775312083332,77.0,53.0
403,238.25666421875,238.81264436458332,73.0,69.0
404,238.71678571875,239.1749900458333,75.0,74.0
405,239.17690721875,239.63702871875,75.0,90.0
406,239.63702871875,242.94606917291665,73.0,77.0
