,start,end,pitch,velocity
0,1.2940917187499998,2.068629577083333,69.0,67.0
1,1.2940917187499998,2.1299791104166665,64.0,63.0
2,2.21433471875,2.9812038854166665,69.0,66.0
3,1.2940917187499998,3.006127133333333,60.0,60.0
4,2.21433471875,3.03105038125,64.0,58.0
5,1.75421321875,3.1077372979166666,57.0,46.0
6,0.83397021875,3.427905175,52.0,58.0
7,0.37384871875,3.4489940770833334,45.0,83.0
8,3.1345777187499997,3.6023679104166666,69.0,70.0
9,3.1345777187499997,3.6234568124999997,60.0,57.0
10,3.1345777187499997,3.6387941958333334,64.0,61.0
11,4.05482071875,4.871536381249999,57.0,43.0
12,4.05482071875,4.875370727083333,65.0,58.0
13,4.05482071875,4.909879839583333,60.0,59.0
14,4.9750637187499995,5.761104614583333,65.0,59.0
15,4.9750637187499995,5.782193516666666,57.0,59.0
16,4.9750637187499995,5.793696554166666,60.0,56.0
17,5.66524596875,5.793696554166666,60.0,58.0
18,5.43518521875,6.249983708333333,53.0,41.0
19,5.89530671875,6.754200185416666,65.0,64.0
20,5.89530671875,6.763786049999999,57.0,59.0
21,6.35542821875,6.917159883333333,53.0,50.0
22,4.05482071875,7.0513619875,41.0,76.0
23,6.81554971875,7.292925775,65.0,72.0
24,6.81554971875,7.2967601208333335,57.0,61.0
25,6.81554971875,7.312097504166666,60.0,64.0
26,4.51494221875,7.335103579166667,48.0,63.0
27,7.2756712187499994,7.714703816666666,53.0,53.0
28,7.73579271875,8.560177072916666,72.0,62.0
29,7.73579271875,8.564011418749999,64.0,64.0
30,7.73579271875,8.57551445625,67.0,61.0
31,8.65603571875,9.4785029,72.0,65.0
32,8.65603571875,9.497674629166667,64.0,65.0
33,8.65603571875,9.513012012499999,67.0,66.0
34,9.57627871875,10.371905479166665,72.0,64.0
35,9.57627871875,10.391077208333332,64.0,64.0
36,9.57627871875,10.396828727083333,67.0,61.0
37,10.03640021875,10.538699522916666,60.0,52.0
38,9.116157218749999,10.789849174999999,55.0,55.0
39,7.73579271875,10.856950227083333,48.0,81.0
40,10.49652171875,10.95664321875,72.0,67.0
41,10.49652171875,10.970063429166666,64.0,64.0
42,10.49652171875,10.971980602083333,67.0,71.0
43,11.416764718749999,12.28524405,59.0,61.0
44,11.416764718749999,12.294829914583334,62.0,58.0
45,11.416764718749999,12.2967470875,67.0,66.0
46,12.33700771875,13.151806208333333,67.0,67.0
47,12.33700771875,13.1594749,59.0,59.0
48,12.33700771875,13.163309245833332,62.0,62.0
49,12.79712921875,13.299428522916665,55.0,45.0
50,11.416764718749999,14.503413114583333,43.0,68.0
51,11.87688621875,14.746894075,50.0,58.0
52,13.257250718749999,14.771817322916666,67.0,68.0
53,13.257250718749999,14.806326435416667,62.0,62.0
54,13.257250718749999,14.813995127083333,59.0,60.0
55,15.09773671875,15.851185675,64.0,63.0
56,15.09773671875,15.885694787499999,67.0,75.0
57,16.01797971875,16.830861035416667,64.0,68.0
58,16.01797971875,16.844281245833333,67.0,75.0
59,16.47810121875,17.032164191666666,60.0,51.0
60,16.938222718749998,17.69550602083333,64.0,75.0
61,16.938222718749998,17.70125753958333,67.0,77.0
62,17.39834421875,18.013756725,60.0,58.0
63,15.09773671875,18.207391189583333,48.0,81.0
64,15.557858218749999,18.211225535416666,55.0,54.0
65,17.85846571875,18.257237685416666,64.0,68.0
66,17.85846571875,18.266823549999998,67.0,74.0
67,18.77870871875,19.59925872708333,62.0,75.0
68,18.77870871875,19.622264802083333,65.0,81.0
69,19.69895171875,20.50416434375,62.0,60.0
70,19.69895171875,20.534839110416666,65.0,74.0
71,20.61919471875,21.38798105833333,62.0,69.0
72,20.61919471875,21.416738652083332,65.0,76.0
73,18.77870871875,21.744575220833333,46.0,69.0
74,19.23883021875,22.01106225625,50.0,79.0
75,21.539437718749998,22.062825925,62.0,83.0
76,21.539437718749998,22.068577443749998,65.0,85.0
77,19.69895171875,22.135678495833332,53.0,68.0
78,22.45968071875,23.274479208333332,60.0,65.0
79,22.45968071875,23.29173376458333,64.0,76.0
80,23.37992371875,24.171716133333334,60.0,67.0
81,23.37992371875,24.18513634375,64.0,73.0
82,23.84004521875,24.28866368125,57.0,50.0
83,24.30016671875,25.084290441666667,60.0,63.0
84,24.30016671875,25.10537934375,64.0,60.0
85,24.76028821875,25.3181855375,57.0,51.0
86,22.91980221875,25.647939279166664,52.0,58.0
87,25.22040971875,25.688199910416667,64.0,83.0
88,25.22040971875,25.699702947916666,60.0,76.0
89,22.45968071875,25.72462619583333,45.0,64.0
90,26.140652718749998,26.930527960416665,56.0,60.0
91,26.140652718749998,26.949699689583333,60.0,73.0
92,27.06089571875,27.858439652083334,56.0,61.0
93,27.06089571875,27.875694208333332,60.0,73.0
94,27.52101721875,28.1249266875,53.0,50.0
95,27.98113871875,28.82086045625,56.0,64.0
96,27.98113871875,28.838115012499998,60.0,73.0
97,28.44126021875,28.95697973333333,53.0,54.0
98,26.83083496875,29.357668872916665,48.0,51.0
99,28.90138171875,29.388343639583333,65.0,83.0
100,28.90138171875,29.392177985416666,56.0,63.0
101,26.140652718749998,29.403681022916665,41.0,73.0
102,28.90138171875,29.403681022916665,60.0,79.0
103,29.36150321875,29.821624718749998,53.0,58.0
104,29.821624718749998,30.60383126875,64.0,75.0
105,29.821624718749998,30.605748441666666,67.0,74.0
106,30.741867718749997,31.295930691666666,72.0,74.0
107,30.741867718749997,31.541328824999997,64.0,64.0
108,30.741867718749997,31.583506629166667,67.0,74.0
109,31.20198921875,31.71962590625,60.0,59.0
110,32.12223221875,32.492246591666664,60.0,57.0
111,31.66211071875,32.50183245625,67.0,79.0
112,31.66211071875,32.50374962916666,64.0,69.0
113,29.821624718749998,32.929362016666666,48.0,79.0
114,30.281746218749998,33.333885502083334,55.0,56.0
115,32.58235371875,33.416323937499996,64.0,74.0
116,32.58235371875,33.45083305,67.0,76.0
117,34.42283971875,35.20121192291666,65.0,76.0
118,34.42283971875,35.20312909583333,62.0,64.0
119,35.34308271875,35.6019010625,53.0,60.0
120,35.34308271875,36.17513576458333,62.0,67.0
121,35.34308271875,36.188555975,65.0,75.0
122,33.96271821875,36.51639254375,50.0,69.0
123,33.50259671875,36.740701775,46.0,75.0
124,36.263325718749996,36.76945936875,62.0,77.0
125,36.263325718749996,36.76945936875,65.0,83.0
126,35.80320421875,36.805885654166666,53.0,69.0
127,37.183568718749996,37.97536113333333,64.0,74.0
128,37.183568718749996,37.98111265208333,60.0,67.0
129,38.103811718749995,38.84384046458333,69.0,69.0
130,38.103811718749995,38.8687637125,64.0,76.0
131,38.103811718749995,38.87451523125,60.0,67.0
132,38.56393321875,39.19851745416666,57.0,54.0
133,39.02405471875,39.80817844166666,69.0,74.0
134,39.02405471875,39.82159865208333,64.0,79.0
135,39.02405471875,39.823515825,60.0,70.0
136,39.48417621875,40.03440484583333,57.0,48.0
137,37.643690218749995,40.33540099375,52.0,59.0
138,39.94429771875,40.37757879791666,69.0,85.0
139,39.94429771875,40.39291618125,64.0,86.0
140,37.183568718749996,40.394833354166664,45.0,73.0
141,39.94429771875,40.410170737499996,60.0,77.0
142,40.86454071875,41.67358768958333,65.0,72.0
143,40.86454071875,41.67933920833333,56.0,63.0
144,40.86454071875,41.68892507291667,60.0,67.0
145,41.78478371875,42.524812464583334,65.0,83.0
146,41.78478371875,42.54781853958333,56.0,74.0
147,41.78478371875,42.551652885416665,60.0,83.0
148,42.24490521875,43.0328632875,53.0,55.0
149,42.70502671875,43.46231002083333,65.0,85.0
150,42.70502671875,43.48339892291666,56.0,65.0
151,42.70502671875,43.48339892291666,60.0,83.0
152,43.16514821875,43.72496271041666,53.0,57.0
153,43.62526971875,44.096894256249996,65.0,95.0
154,43.62526971875,44.108397293749995,60.0,86.0
155,40.86454071875,44.11606598541667,41.0,73.0
156,43.62526971875,44.11990033125,56.0,85.0
157,41.32466221875,44.13332054166666,48.0,69.0
158,44.08539121875,44.54742989166667,53.0,54.0
159,44.54551271875,45.27212125416666,60.0,61.0
160,44.54551271875,45.27403842708333,64.0,65.0
161,45.465755718749996,46.2997259375,69.0,73.0
162,45.465755718749996,46.3227320125,60.0,73.0
163,45.465755718749996,46.3227320125,64.0,86.0
164,45.925877218749996,46.541289725,57.0,58.0
165,46.385998718749995,47.16820526875,69.0,79.0
166,46.385998718749995,47.17970830625,64.0,79.0
167,46.385998718749995,47.18162547916666,60.0,67.0
168,46.846120218749995,47.26214674166666,57.0,52.0
169,45.00563421875,47.63982980625,52.0,55.0
170,44.54551271875,47.699262166666664,45.0,74.0
171,47.306241718749995,47.74719148958333,69.0,90.0
172,47.306241718749995,47.7606117,64.0,90.0
173,47.306241718749995,47.770197564583334,60.0,79.0
174,48.22648471875,49.0489519,65.0,87.0
175,48.22648471875,49.070040802083334,60.0,81.0
176,48.22648471875,49.071957975,57.0,67.0
177,49.14672771875,49.925099922916665,65.0,86.0
178,49.14672771875,49.94810599791666,57.0,68.0
179,49.14672771875,49.94810599791666,60.0,85.0
180,49.60684921875,50.23184758958333,53.0,54.0
181,50.06697071875,50.8779348625,65.0,83.0
182,50.06697071875,50.8894379,57.0,64.0
183,50.06697071875,50.89902376458333,60.0,79.0
184,50.52709221875,51.004468275,53.0,54.0
185,48.22648471875,51.39173720416667,41.0,76.0
186,50.98721371875,51.42624631666666,65.0,83.0
187,50.98721371875,51.430080662499996,57.0,75.0
188,50.98721371875,51.43966652708333,60.0,85.0
189,48.68660621875,51.455003910416664,48.0,70.0
190,51.44733521875,51.861444568749995,53.0,58.0
191,51.90745671875,52.729923899999996,60.0,67.0
192,51.90745671875,52.731841072916666,69.0,72.0
193,51.90745671875,52.73759259166666,64.0,70.0
194,52.82769971875,53.67125580208333,69.0,77.0
195,52.82769971875,53.67700732083333,64.0,81.0
196,52.82769971875,53.68659318541666,60.0,74.0
197,53.28782121875,53.857221575,57.0,47.0
198,53.74794271875,54.51481188541666,60.0,69.0
199,53.74794271875,54.51481188541666,64.0,74.0
200,53.74794271875,54.51672905833333,69.0,72.0
201,51.90745671875,54.90591516041666,45.0,74.0
202,52.36757821875,54.91741819791667,52.0,58.0
203,54.208064218749996,54.92316971666666,57.0,51.0
204,54.668185718749996,55.061206166666665,60.0,74.0
205,54.668185718749996,55.06695768541667,64.0,86.0
206,54.668185718749996,55.09379810625,69.0,77.0
207,55.588428718749995,56.403227208333334,62.0,79.0
208,55.588428718749995,56.40897872708333,65.0,90.0
209,56.048550218749995,56.848011324999995,58.0,47.0
210,56.508671718749994,57.37331670416666,65.0,77.0
211,56.508671718749994,57.377151049999995,62.0,79.0
212,56.96879321875,57.6187148375,58.0,53.0
213,57.42891471875,58.257133418749994,62.0,83.0
214,57.42891471875,58.259050591666664,65.0,87.0
215,57.88903621875,58.544709356249996,58.0,59.0
216,56.508671718749994,58.94539849583333,53.0,60.0
217,55.588428718749995,59.03933996875,46.0,64.0
218,58.80927921875,59.116026885416666,58.0,59.0
219,58.34915771875,59.14286730625,65.0,87.0
220,58.34915771875,59.14478447916667,62.0,86.0
221,59.26940071875,60.09378507291667,65.0,71.0
222,59.26940071875,60.09570224583333,69.0,75.0
223,60.18964371875,61.023613937499995,69.0,76.0
224,60.18964371875,61.03319980208333,65.0,73.0
225,60.64976521875,61.22299992083333,62.0,58.0
226,61.10988671875,61.5987658125,74.0,86.0
227,61.10988671875,61.903596306249995,69.0,83.0
228,61.10988671875,61.909347825,65.0,75.0
229,61.57000821875,61.91893368958333,62.0,58.0
230,59.72952221875,62.23718439375,57.0,59.0
231,59.26940071875,62.34838042291666,50.0,85.0
232,62.03012971875,62.48066535416667,74.0,93.0
233,62.03012971875,62.4960027375,69.0,86.0
234,62.03012971875,62.503671429166666,65.0,87.0
235,62.950372718749996,63.732579268749994,69.0,71.0
236,62.950372718749996,63.74216513333333,60.0,64.0
237,62.950372718749996,63.74791665208333,64.0,73.0
238,63.870615718749995,64.63940205833333,60.0,79.0
239,63.870615718749995,64.63940205833333,64.0,85.0
240,63.870615718749995,64.64323640416666,69.0,74.0
241,64.33073721875,64.9691558,57.0,56.0
242,64.79085871875,65.58073396041667,64.0,79.0
243,64.79085871875,65.58265113333333,60.0,76.0
244,64.79085871875,65.58456830624999,69.0,74.0
245,65.25098021875,65.82421492083333,57.0,58.0
246,63.410494218749996,66.03126959583334,52.0,41.0
247,65.71110171875,66.11179085833334,69.0,86.0
248,62.950372718749996,66.12712824166667,45.0,64.0
249,65.71110171875,66.12712824166667,64.0,86.0
250,65.71110171875,66.13671410625,60.0,77.0
251,66.63134471875,67.46148059166667,62.0,73.0
252,66.63134471875,67.47106645625,65.0,86.0
253,66.63134471875,67.77397977708333,58.0,60.0
254,67.55158771875,68.37980641875,62.0,85.0
255,67.55158771875,68.38172359166667,65.0,93.0
256,66.63134471875,68.40472966666667,53.0,67.0
257,68.01170921875,68.54084894374999,58.0,58.0
258,68.47183071875,69.27896051666666,65.0,93.0
259,68.47183071875,69.2827948625,62.0,85.0
260,68.93195221875,69.44958890625,58.0,57.0
261,68.93195221875,69.63747185208334,53.0,52.0
262,66.63134471875,69.77934264791666,46.0,58.0
263,69.39207371875,69.81001741458333,65.0,86.0
264,69.39207371875,69.81193458749999,62.0,93.0
265,70.31231671875,71.15012128333333,59.0,85.0
266,70.31231671875,71.157789975,62.0,83.0
267,71.23255971875,72.03777234374999,67.0,81.0
268,71.23255971875,72.05119255416666,59.0,67.0
269,71.23255971875,72.06077841874999,62.0,77.0
270,71.69268121875,72.19114617708333,55.0,54.0
271,72.15280271875,72.9637668625,59.0,68.0
272,72.15280271875,72.96568403541666,67.0,86.0
273,72.15280271875,72.96951838125,62.0,85.0
274,72.61292421875,73.09221744791667,55.0,53.0
275,73.07304571875,73.55617329374999,62.0,93.0
276,73.07304571875,73.55617329374999,67.0,93.0
277,73.07304571875,73.5619248125,59.0,86.0
278,70.31231671875,73.5849308875,43.0,74.0
279,70.77243821875,73.59259957916666,50.0,63.0
280,73.53316721875,73.94344222291666,55.0,52.0
281,73.99328871875,74.75440636666666,72.0,77.0
282,73.99328871875,74.76590940416666,64.0,81.0
283,73.99328871875,74.76590940416666,67.0,85.0
284,74.91353171875,75.72257868958333,72.0,85.0
285,74.91353171875,75.73408172708334,64.0,86.0
286,74.91353171875,75.7359989,67.0,93.0
287,75.37365321875,75.93730205624999,60.0,58.0
288,76.29389621874999,76.50670241249999,60.0,53.0
289,73.99328871875,76.57380346458334,48.0,95.0
290,75.83377471874999,76.60831257708332,64.0,93.0
291,75.83377471874999,76.62748430625,72.0,90.0
292,75.83377471874999,76.633235825,67.0,93.0
293,76.75401771874999,77.01858758125,67.0,76.0
294,74.45341021875,77.23714529375,55.0,60.0
295,76.75401771874999,77.25631702291666,47.0,100.0
296,76.75401771874999,77.26015136875,72.0,83.0
297,76.75401771874999,77.26590288749999,65.0,95.0
298,76.75401771874999,77.277405925,62.0,93.0
299,77.67426071874999,78.48330768958333,64.0,100.0
300,77.67426071874999,78.48330768958333,69.0,93.0
301,77.67426071874999,78.48522486249999,60.0,86.0
302,78.59450371874999,79.38629613333333,64.0,93.0
303,78.59450371874999,79.38821330625,69.0,85.0
304,78.59450371874999,79.39588199791666,60.0,75.0
305,79.05462521874999,79.99403994791666,57.0,58.0
306,79.51474671874999,79.99595712083332,69.0,86.0
307,79.51474671874999,80.00170863958333,64.0,90.0
308,79.51474671874999,80.01321167708333,60.0,81.0
309,78.13438221874999,80.08414707499999,52.0,65.0
310,77.67426071874999,80.12824205208334,45.0,86.0
311,80.43498971875,81.18460432916666,67.0,95.0
312,80.43498971875,81.19035584791666,62.0,98.0
313,80.43498971875,81.19610736666667,59.0,86.0
314,80.43498971875,81.22103061458333,43.0,65.0
315,81.35523271875,82.17194838124999,69.0,72.0
316,81.35523271875,82.1776999,65.0,87.0
317,82.27547571875,82.86596497708334,74.0,85.0
318,82.96565796875,83.08068834375,74.0,59.0
319,82.27547571875,83.12861766666666,69.0,83.0
320,82.27547571875,83.13436918541666,65.0,72.0
321,82.73559721875,83.36442993541667,62.0,46.0
322,83.19571871875,83.98175961458332,74.0,83.0
323,83.19571871875,83.99901417083333,69.0,87.0
324,83.19571871875,84.00476568958334,65.0,83.0
325,83.65584021875,84.21757188333333,62.0,60.0
326,81.81535421875,84.48405891875,57.0,56.0
327,81.35523271875,84.53773976041667,50.0,85.0
328,84.11596171875,84.53965693333333,74.0,95.0
329,84.11596171875,84.55691148958333,69.0,87.0
330,84.11596171875,84.5703317,65.0,85.0
331,85.03620471875,85.32761500208333,60.0,69.0
332,85.03620471875,85.44264537708332,65.0,72.0
333,85.03620471875,85.82224561458332,56.0,77.0
334,85.03620471875,86.08489830416666,53.0,60.0
335,85.95644771875,86.79233511041666,60.0,95.0
336,85.95644771875,86.80383814791666,56.0,93.0
337,86.41656921875,87.00322413125,53.0,60.0
338,86.87669071875,87.66273161458334,60.0,87.0
339,86.87669071875,87.68957203541666,56.0,98.0
340,87.33681221875,87.860200425,53.0,59.0
341,87.79693371875,88.16694809166667,65.0,73.0
342,87.79693371875,88.228297625,60.0,98.0
343,85.03620471875,88.23404914375,41.0,74.0
344,87.79693371875,88.25705521875,56.0,104.0
345,85.03620471875,88.27814412083333,48.0,90.0
346,88.25705521875,88.68266760624999,53.0,60.0
347,88.71717671875,89.51663782499999,72.0,71.0
348,88.71717671875,89.52430651666667,64.0,98.0
349,88.71717671875,89.53005803541666,67.0,90.0
350,89.63741971875,90.47522428333333,64.0,87.0
351,89.63741971875,90.47522428333333,72.0,79.0
352,89.63741971875,90.47905862916666,67.0,87.0
353,90.09754121875,90.67269309375,60.0,44.0
354,90.78772346875,91.01778421875,60.0,56.0
355,90.55766271875,91.29769146458332,64.0,87.0
356,88.71717671875,91.32069753958334,48.0,85.0
357,90.55766271875,91.33411774999999,67.0,87.0
358,90.55766271875,91.33986926875,72.0,87.0
359,91.47790571875,91.81341097916666,67.0,85.0
360,89.17729821875,91.9437787375,55.0,54.0
361,91.47790571875,91.94761308333332,47.0,79.0
362,91.47790571875,91.97061915833334,72.0,83.0
363,91.47790571875,91.99362523333333,65.0,98.0
364,91.47790571875,91.99554240625,62.0,79.0
365,92.39814871875,93.18418961458333,69.0,77.0
366,92.39814871875,93.18802396041666,60.0,83.0
367,92.39814871875,93.18994113333333,64.0,86.0
368,93.31839171875,94.11976999791666,69.0,90.0
369,93.31839171875,94.12743868958333,60.0,83.0
370,93.31839171875,94.12935586249999,64.0,87.0
371,93.77851321874999,94.301901425,57.0,56.0
372,94.46869546875,94.76585727083334,57.0,58.0
373,94.23863471874999,95.038095825,69.0,100.0
374,94.23863471874999,95.05343320833333,64.0,100.0
375,94.23863471874999,95.05918472708333,60.0,93.0
376,92.39814871875,95.08219080208333,45.0,79.0
377,92.85827021875,95.08602514791666,52.0,66.0
378,95.15887771874999,95.70718917291666,62.0,81.0
379,95.15887771874999,95.70910634583333,59.0,73.0
380,95.15887771874999,95.71102351875,67.0,87.0
381,95.15887771874999,95.7397811125,43.0,79.0
382,96.07912071874999,96.89967072708333,53.0,65.0
383,96.07912071874999,96.90925659166666,57.0,73.0
384,96.99936371874999,97.59368732291667,62.0,74.0
385,96.99936371874999,97.84100262916667,53.0,67.0
386,96.99936371874999,97.85442283958334,57.0,76.0
387,97.45948521874999,98.04230578541666,50.0,60.0
388,97.91960671874999,98.66346981041666,53.0,65.0
389,97.91960671874999,98.66538698333333,62.0,73.0
390,97.91960671874999,98.67497284791666,57.0,77.0
391,98.37972821875,98.78616887708333,50.0,60.0
392,96.07912071874999,99.57220977291666,38.0,72.0
393,96.53924221874999,99.59138150208332,45.0,60.0
394,98.83984971875,99.63164213333333,62.0,77.0
395,98.83984971875,99.63739365208333,57.0,77.0
396,98.83984971875,99.64506234375,53.0,74.0
397,99.29997121875,99.71216339583333,50.0,66.0
398,99.76009271875,100.17803641458333,53.0,62.0
399,99.76009271875,100.39084260833333,65.0,70.0
400,99.76009271875,100.55763665208333,60.0,81.0
401,99.76009271875,100.58831141875,56.0,71.0
402,100.22021421875,100.69567310208333,53.0,59.0
403,100.68033571875,101.1347057,65.0,81.0
404,100.68033571875,101.13854004583332,60.0,76.0
405,100.68033571875,101.19988957916667,56.0,100.0
406,99.76009271875,101.28807953333333,41.0,63.0
407,101.14045721875,101.50663724583333,53.0,58.0
408,99.76009271875,101.56415243333333,48.0,100.0
409,101.60057871875,102.41346003541666,59.0,83.0
410,101.60057871875,102.41729438125,62.0,81.0
411,102.06070021875,103.00586646666666,50.0,67.0
412,101.60057871875,103.00778363958332,43.0,81.0
413,102.52082171875,103.01353515833333,67.0,79.0
414,102.52082171875,103.02312102291667,59.0,69.0
415,102.52082171875,103.03462406041666,62.0,70.0
416,102.98094321875,103.46023644791666,55.0,52.0
417,103.44106471875,103.99704486458333,72.0,60.0
418,103.44106471875,104.23669147916667,64.0,67.0
419,103.44106471875,104.25969755416666,67.0,73.0
420,104.36130771875,105.21253249374999,64.0,73.0
421,104.82142921875,105.41766999583334,60.0,55.0
422,105.28155071875,106.09634920833332,64.0,67.0
423,105.28155071875,106.09634920833332,67.0,66.0
424,105.74167221875,106.15194722291666,60.0,54.0
425,103.44106471875,106.6561637,48.0,90.0
426,106.20179371875,106.68492129375,64.0,64.0
427,103.90118621875,106.7366849625,55.0,64.0
428,106.20179371875,106.81912339791666,67.0,81.0
429,107.12203671875,107.90232609583333,62.0,67.0
430,107.12203671875,107.91382913333332,65.0,83.0
431,108.04227971875,108.91842774166666,62.0,72.0
432,108.04227971875,108.92993077916667,65.0,79.0
433,108.96252271875,109.80224445625,62.0,72.0
434,108.96252271875,109.807995975,65.0,85.0
435,109.42264421875,110.09173756666667,58.0,58.0
436,109.88276571875,110.72440462916666,65.0,81.0
437,109.88276571875,110.74165918541667,62.0,75.0
438,110.34288721875,110.78767133541666,58.0,57.0
439,108.04227971875,110.81259458333332,53.0,2.0
440,107.12203671875,110.82409762083333,46.0,73.0
441,110.80300871875,111.602469825,60.0,70.0
442,110.80300871875,111.62739307291666,64.0,79.0
443,111.72325171874999,112.56297345624999,60.0,86.0
444,111.72325171874999,112.57639366666666,64.0,83.0
445,112.18337321874999,112.64541189166667,57.0,52.0
446,112.64349471874999,113.4084467125,69.0,69.0
447,112.64349471874999,113.41994975,60.0,67.0
448,112.64349471874999,113.44103865208334,64.0,71.0
449,113.10361621874999,113.62317007916666,57.0,54.0
450,113.56373771874999,114.04686529375,69.0,77.0
451,113.56373771874999,114.06603702291666,64.0,95.0
452,113.56373771874999,114.08329157916666,60.0,74.0
453,111.26313021874999,114.1216350375,52.0,55.0
454,114.02385921874999,114.17148153333333,57.0,53.0
455,110.80300871875,114.179150225,45.0,70.0
456,114.48398071874999,114.83674053541667,53.0,58.0
457,114.48398071874999,115.01312044375,65.0,74.0
458,114.48398071874999,115.05146390208333,60.0,85.0
459,114.48398071874999,115.31411659166666,56.0,69.0
460,114.94410221874999,115.43873283125,53.0,58.0
461,115.40422371874999,115.83750479791667,60.0,86.0
462,115.40422371874999,115.91419171458332,65.0,75.0
463,114.48398071874999,116.14808681041666,48.0,79.0
464,115.86434521874999,116.38389907916667,53.0,60.0
465,116.32446671874999,118.02499909583332,65.0,71.0
466,115.40422371874999,118.06334255416667,56.0,74.0
467,116.32446671874999,118.0786799375,48.0,98.0
468,116.55452746875,118.0786799375,53.0,43.0
469,116.32446671874999,118.1016860125,60.0,85.0
470,114.48398071874999,118.10360318541666,41.0,74.0
471,119.08519571875,119.89807703541666,64.0,68.0
472,119.08519571875,119.91149724583333,67.0,75.0
473,119.54531721875,120.09938019166667,60.0,51.0
474,120.00543871875,120.76272202083332,64.0,75.0
475,120.00543871875,120.76847353958333,67.0,77.0
476,120.46556021875,121.080972725,60.0,58.0
477,120.92568171875,121.32445368541666,64.0,68.0
478,120.92568171875,121.33403955,67.0,74.0
479,121.84592471875,122.66647472708333,62.0,75.0
480,121.84592471875,122.68948080208332,65.0,81.0
481,122.76616771875,123.57138034375,62.0,60.0
482,122.76616771875,123.60205511041666,65.0,74.0
483,123.68641071875,124.45519705833333,62.0,69.0
484,123.68641071875,124.48395465208333,65.0,76.0
485,121.84592471875,124.81179122083333,46.0,69.0
486,122.30604621875,125.07827825625,50.0,79.0
487,124.60665371875,125.130041925,62.0,83.0
488,124.60665371875,125.13579344374999,65.0,85.0
489,122.76616771875,125.20289449583333,53.0,68.0
490,125.52689671875,126.34169520833333,60.0,65.0
491,125.52689671875,126.35894976458333,64.0,76.0
492,126.44713971875,127.23893213333332,60.0,67.0
493,126.44713971875,127.25235234374999,64.0,73.0
494,126.90726121875,127.35587968125,57.0,50.0
495,127.36738271875,128.15150644166667,60.0,63.0
496,127.36738271875,128.17259534375,64.0,60.0
497,127.82750421875,128.3854015375,57.0,51.0
498,125.98701821875,128.71515527916665,52.0,58.0
499,128.28762571875,128.75541591041667,64.0,83.0
500,128.28762571875,128.76691894791665,60.0,76.0
501,125.52689671875,128.79184219583334,45.0,64.0
502,129.20786871875,129.99774396041667,56.0,60.0
503,129.20786871875,130.01691568958333,60.0,73.0
504,130.12811171875,130.92565565208332,56.0,61.0
505,130.12811171875,130.94291020833333,60.0,73.0
506,130.58823321875,131.1921426875,53.0,50.0
507,131.04835471875,131.88807645625,56.0,64.0
508,131.04835471875,131.9053310125,60.0,73.0
509,131.50847621875,132.02419573333333,53.0,54.0
510,129.89805096875,132.42488487291666,48.0,51.0
511,131.96859771875,132.45555963958333,65.0,83.0
512,131.96859771875,132.45939398541665,56.0,63.0
513,129.20786871875,132.47089702291666,41.0,73.0
514,131.96859771875,132.47089702291666,60.0,79.0
515,132.42871921875,132.88884071875,53.0,58.0
516,132.88884071875,133.67104726875,64.0,75.0
517,132.88884071875,133.67296444166666,67.0,74.0
518,133.80908371875,134.36314669166666,72.0,74.0
519,133.80908371875,134.608544825,64.0,64.0
520,133.80908371875,134.65072262916667,67.0,74.0
521,134.26920521875,134.78684190625,60.0,59.0
522,135.18944821875,135.55946259166666,60.0,57.0
523,134.72932671875,135.56904845625,67.0,79.0
524,134.72932671875,135.57096562916666,64.0,69.0
525,132.88884071875,135.99657801666666,48.0,79.0
526,133.34896221875,136.40110150208332,55.0,56.0
527,135.64956971875,136.48353993749998,64.0,74.0
528,135.64956971875,136.51804905,67.0,76.0
529,137.49005571875,138.26842792291666,65.0,76.0
530,137.49005571875,138.27034509583333,62.0,64.0
531,138.41029871875,138.6691170625,53.0,60.0
532,138.41029871875,139.24235176458333,62.0,67.0
533,138.41029871875,139.255771975,65.0,75.0
534,137.02993421875,139.58360854375,50.0,69.0
535,136.56981271875,139.807917775,46.0,75.0
536,139.33054171875,139.83667536875,62.0,77.0
537,139.33054171875,139.83667536875,65.0,83.0
538,138.87042021874998,139.87310165416667,53.0,69.0
539,140.25078471875,141.04257713333334,64.0,74.0
540,140.25078471875,141.04832865208334,60.0,67.0
541,141.17102771875,141.91105646458334,69.0,69.0
542,141.17102771875,141.9359797125,64.0,76.0
543,141.17102771875,141.94173123125,60.0,67.0
544,141.63114921874998,142.26573345416665,57.0,54.0
545,142.09127071875,142.87539444166666,69.0,74.0
546,142.09127071875,142.88881465208334,64.0,79.0
547,142.09127071875,142.890731825,60.0,70.0
548,142.55139221874998,143.10162084583334,57.0,48.0
549,140.71090621874998,143.40261699375,52.0,59.0
550,143.01151371875,143.44479479791667,69.0,85.0
551,143.01151371875,143.46013218125,64.0,86.0
552,140.25078471875,143.46204935416665,45.0,73.0
553,143.01151371875,143.47738673749998,60.0,77.0
554,143.93175671875,144.74080368958332,65.0,72.0
555,143.93175671875,144.74655520833332,56.0,63.0
556,143.93175671875,144.75614107291665,60.0,67.0
557,144.85199971875,145.59202846458334,65.0,83.0
558,144.85199971875,145.61503453958332,56.0,74.0
559,144.85199971875,145.61886888541667,60.0,83.0
560,145.31212121875,146.1000792875,53.0,55.0
561,145.77224271875,146.52952602083332,65.0,85.0
562,145.77224271875,146.55061492291665,56.0,65.0
563,145.77224271875,146.55061492291665,60.0,83.0
564,146.23236421875,146.79217871041666,53.0,57.0
565,146.69248571875,147.16411025624998,65.0,95.0
566,146.69248571875,147.17561329375,60.0,86.0
567,143.93175671875,147.18328198541667,41.0,73.0
568,146.69248571875,147.18711633125,56.0,85.0
569,144.39187821875,147.20053654166665,48.0,69.0
570,147.15260721875,147.61464589166667,53.0,54.0
571,147.61272871875,148.33933725416665,60.0,61.0
572,147.61272871875,148.34125442708333,64.0,65.0
573,148.53297171875,149.3669419375,69.0,73.0
574,148.53297171875,149.38994801249999,60.0,73.0
575,148.53297171875,149.38994801249999,64.0,86.0
576,148.99309321875,149.608505725,57.0,58.0
577,149.45321471875,150.23542126875,69.0,79.0
578,149.45321471875,150.24692430624998,64.0,79.0
579,149.45321471875,150.24884147916666,60.0,67.0
580,149.91333621875,150.32936274166667,57.0,52.0
581,148.07285021875,150.70704580625,52.0,55.0
582,147.61272871875,150.76647816666667,45.0,74.0
583,150.37345771875,150.81440748958332,69.0,90.0
584,150.37345771875,150.8278277,64.0,90.0
585,150.37345771875,150.83741356458333,60.0,79.0
586,151.29370071875,152.1161679,65.0,87.0
587,151.29370071875,152.13725680208333,60.0,81.0
588,151.29370071875,152.139173975,57.0,67.0
589,152.21394371875,152.99231592291667,65.0,86.0
590,152.21394371875,153.01532199791666,57.0,68.0
591,152.21394371875,153.01532199791666,60.0,85.0
592,152.67406521875,153.29906358958334,53.0,54.0
593,153.13418671875,153.9451508625,65.0,83.0
594,153.13418671875,153.9566539,57.0,64.0
595,153.13418671875,153.96623976458332,60.0,79.0
596,153.59430821875,154.071684275,53.0,54.0
597,151.29370071875,154.45895320416665,41.0,76.0
598,154.05442971875,154.49346231666667,65.0,83.0
599,154.05442971875,154.4972966625,57.0,75.0
600,154.05442971875,154.50688252708332,60.0,85.0
601,151.75382221875,154.52221991041665,48.0,70.0
602,154.51455121875,154.92866056875,53.0,58.0
603,154.97467271874999,155.7971399,60.0,67.0
604,154.97467271874999,155.79905707291667,69.0,72.0
605,154.97467271874999,155.80480859166667,64.0,70.0
606,155.89491571874998,156.73847180208332,69.0,77.0
607,155.89491571874998,156.74422332083333,64.0,81.0
608,155.89491571874998,156.75380918541666,60.0,74.0
609,156.35503721875,156.92443757499998,57.0,47.0
610,156.81515871874998,157.58202788541666,60.0,69.0
611,156.81515871874998,157.58202788541666,64.0,74.0
612,156.81515871874998,157.5839450583333,69.0,72.0
613,154.97467271874999,157.97313116041667,45.0,74.0
614,155.43479421875,157.98463419791665,52.0,58.0
615,157.27528021875,157.99038571666665,57.0,51.0
616,157.73540171874998,158.12842216666667,60.0,74.0
617,157.73540171874998,158.13417368541667,64.0,86.0
618,157.73540171874998,158.16101410625,69.0,77.0
619,158.65564471874998,159.47044320833334,62.0,79.0
620,158.65564471874998,159.47619472708334,65.0,90.0
621,159.11576621875,159.915227325,58.0,47.0
622,159.57588771874998,160.44053270416666,65.0,77.0
623,159.57588771874998,160.44436704999998,62.0,79.0
624,160.03600921875,160.6859308375,58.0,53.0
625,160.49613071874998,161.32434941875,62.0,83.0
626,160.49613071874998,161.32626659166667,65.0,87.0
627,160.95625221875,161.61192535625,58.0,59.0
628,159.57588771874998,162.01261449583333,53.0,60.0
629,158.65564471874998,162.10655596875,46.0,64.0
630,161.87649521875,162.18324288541666,58.0,59.0
631,161.41637371874998,162.21008330625,65.0,87.0
632,161.41637371874998,162.21200047916665,62.0,86.0
633,162.33661671874998,163.16100107291666,65.0,71.0
634,162.33661671874998,163.16291824583334,69.0,75.0
635,163.25685971875,164.0908299375,69.0,76.0
636,163.25685971875,164.10041580208332,65.0,73.0
637,163.71698121875,164.29021592083333,62.0,58.0
638,164.17710271875,164.6659818125,74.0,86.0
639,164.17710271875,164.97081230625,69.0,83.0
640,164.17710271875,164.976563825,65.0,75.0
641,164.63722421875,164.98614968958333,62.0,58.0
642,162.79673821875,165.30440039375,57.0,59.0
643,162.33661671874998,165.41559642291665,50.0,85.0
644,165.09734571875,165.54788135416666,74.0,93.0
645,165.09734571875,165.5632187375,69.0,86.0
646,165.09734571875,165.57088742916665,65.0,87.0
647,166.01758871875,166.79979526875,69.0,71.0
648,166.01758871875,166.80938113333332,60.0,64.0
649,166.01758871875,166.81513265208332,64.0,73.0
650,166.93783171875,167.70661805833333,60.0,79.0
651,166.93783171875,167.70661805833333,64.0,85.0
652,166.93783171875,167.71045240416666,69.0,74.0
653,167.39795321875,168.03637179999998,57.0,56.0
654,167.85807471875,168.64794996041667,64.0,79.0
655,167.85807471875,168.64986713333332,60.0,76.0
656,167.85807471875,168.65178430625,69.0,74.0
657,168.31819621875,168.89143092083333,57.0,58.0
658,166.47771021875,169.09848559583332,52.0,41.0
659,168.77831771875,169.17900685833334,69.0,86.0
660,166.01758871875,169.19434424166667,45.0,64.0
661,168.77831771875,169.19434424166667,64.0,86.0
662,168.77831771875,169.20393010625,60.0,77.0
663,169.69856071875,170.52869659166666,62.0,73.0
664,169.69856071875,170.53828245625,65.0,86.0
665,169.69856071875,170.84119577708333,58.0,60.0
666,170.61880371875,171.44702241874998,62.0,85.0
667,170.61880371875,171.44893959166666,65.0,93.0
668,169.69856071875,171.47194566666667,53.0,67.0
669,171.07892521875,171.60806494374998,58.0,58.0
670,171.53904671875,172.34617651666667,65.0,93.0
671,171.53904671875,172.3500108625,62.0,85.0
672,171.99916821875,172.51680490625,58.0,57.0
673,171.99916821875,172.70468785208334,53.0,52.0
674,169.69856071875,172.84655864791665,46.0,58.0
675,172.45928971875,172.87723341458332,65.0,86.0
676,172.45928971875,172.8791505875,62.0,93.0
677,173.37953271875,173.70353494166665,59.0,63.0
678,173.37953271875,173.72270667083333,67.0,72.0
679,173.37953271875,173.73037536249998,62.0,69.0
680,173.83965421874998,174.15982209583333,67.0,85.0
681,173.83965421874998,174.1674907875,62.0,85.0
682,173.83965421874998,174.16940796041666,59.0,71.0
683,174.29977571875,174.60268903958334,62.0,90.0
684,174.29977571875,174.61035773125,67.0,95.0
685,174.29977571875,174.61227490416667,59.0,76.0
686,174.75989721874998,175.05514184791667,62.0,81.0
687,174.75989721874998,175.06281053958332,59.0,71.0
688,174.75989721874998,175.06856205833333,67.0,90.0
689,175.22001871875,175.43090773958332,62.0,71.0
690,175.22001871875,175.43857643125,67.0,69.0
691,175.22001871875,175.45199664166665,59.0,66.0
692,175.68014021874998,175.76833017291665,62.0,79.0
693,175.68014021874998,175.76833017291665,67.0,74.0
694,175.68014021874998,175.77216451875,59.0,66.0
695,175.91020096875,175.98688788541665,62.0,79.0
696,175.91020096875,175.98880505833333,67.0,79.0
697,175.91020096875,175.99263940416665,59.0,67.0
698,176.14026171875,176.22270015416666,67.0,86.0
699,176.14026171875,176.22461732708334,62.0,86.0
700,176.14026171875,176.23036884583334,59.0,72.0
701,176.37032246875,176.45084373125,67.0,93.0
702,176.37032246875,176.45276090416667,62.0,93.0
703,176.37032246875,176.45851242291667,59.0,77.0
704,176.60038321874998,176.68090448125,67.0,112.0
705,176.60038321874998,176.68282165416667,62.0,112.0
706,176.60038321874998,176.69432469166665,59.0,100.0
707,173.37953271875,176.78634899166667,43.0,76.0
708,177.06050471875,177.82162236666667,72.0,77.0
709,177.06050471875,177.83312540416665,64.0,81.0
710,177.06050471875,177.83312540416665,67.0,85.0
711,177.98074771875,178.78979468958332,72.0,85.0
712,177.98074771875,178.80129772708332,64.0,86.0
713,177.98074771875,178.8032149,67.0,93.0
714,178.44086921874998,179.00451805625,60.0,58.0
715,179.36111221874998,179.5739184125,60.0,53.0
716,177.06050471875,179.64101946458334,48.0,95.0
717,178.90099071875,179.67552857708333,64.0,93.0
718,178.90099071875,179.69470030624998,72.0,90.0
719,178.90099071875,179.700451825,67.0,93.0
720,177.52062621874998,179.82123371875,55.0,60.0
721,179.82123371875,180.08580358125,67.0,76.0
722,179.82123371875,180.32353302291665,47.0,100.0
723,179.82123371875,180.32736736875,72.0,83.0
724,179.82123371875,180.3331188875,65.0,95.0
725,179.82123371875,180.34462192499998,62.0,93.0
726,180.74147671875,181.55052368958331,64.0,100.0
727,180.74147671875,181.55052368958331,69.0,93.0
728,180.74147671875,181.5524408625,60.0,86.0
729,181.66171971875,182.45351213333333,64.0,93.0
730,181.66171971875,182.45542930624998,69.0,85.0
731,181.66171971875,182.46309799791666,60.0,75.0
732,182.12184121875,183.06125594791666,57.0,58.0
733,182.58196271875,183.0631731208333,69.0,86.0
734,182.58196271875,183.06892463958332,64.0,90.0
735,182.58196271875,183.08042767708332,60.0,81.0
736,181.20159821874998,183.151363075,52.0,65.0
737,180.74147671875,183.19545805208332,45.0,86.0
738,183.50220571875,184.25182032916666,67.0,95.0
739,183.50220571875,184.25757184791667,62.0,98.0
740,183.50220571875,184.26332336666667,59.0,86.0
741,183.50220571875,184.28824661458333,43.0,65.0
742,184.42244871875,185.23916438125,69.0,72.0
743,184.42244871875,185.2449159,65.0,87.0
744,185.34269171875,185.93318097708334,74.0,85.0
745,186.03287396874998,186.14790434374999,74.0,59.0
746,185.34269171875,186.19583366666666,69.0,83.0
747,185.34269171875,186.20158518541666,65.0,72.0
748,185.80281321875,186.43164593541667,62.0,46.0
749,186.26293471875,187.04897561458333,74.0,83.0
750,186.26293471875,187.06623017083334,69.0,87.0
751,186.26293471875,187.07198168958334,65.0,83.0
752,186.72305621875,187.28478788333334,62.0,60.0
753,184.88257021875,187.55127491874998,57.0,56.0
754,184.42244871875,187.60495576041666,50.0,85.0
755,187.18317771875,187.60687293333334,74.0,95.0
756,187.18317771875,187.62412748958332,69.0,87.0
757,187.18317771875,187.6375477,65.0,85.0
758,188.10342071875,188.39483100208332,60.0,69.0
759,188.10342071875,188.50986137708333,65.0,72.0
760,188.10342071875,188.88946161458333,56.0,77.0
761,188.10342071875,189.15211430416667,53.0,60.0
762,189.02366371875,189.85955111041665,60.0,95.0
763,189.02366371875,189.87105414791665,56.0,93.0
764,189.48378521875,190.07044013125,53.0,60.0
765,189.94390671875,190.72994761458332,60.0,87.0
766,189.94390671875,190.75678803541666,56.0,98.0
767,190.40402821875,190.927416425,53.0,59.0
768,190.86414971874999,191.23416409166666,65.0,73.0
769,190.86414971874999,191.29551362499998,60.0,98.0
770,188.10342071875,191.30126514375,41.0,74.0
771,190.86414971874999,191.32427121875,56.0,104.0
772,188.10342071875,191.34536012083333,48.0,90.0
773,191.32427121875,191.74988360625,53.0,60.0
774,191.78439271874998,192.583853825,72.0,71.0
775,191.78439271874998,192.59152251666666,64.0,98.0
776,191.78439271874998,192.59727403541666,67.0,90.0
777,192.70463571874998,193.54244028333332,64.0,87.0
778,192.70463571874998,193.54244028333332,72.0,79.0
779,192.70463571874998,193.54627462916665,67.0,87.0
780,193.16475721875,193.73990909375,60.0,44.0
781,193.85493946875,194.08500021875,60.0,56.0
782,193.62487871874998,194.36490746458333,64.0,87.0
783,191.78439271874998,194.38791353958334,48.0,85.0
784,193.62487871874998,194.40133375,67.0,87.0
785,193.62487871874998,194.40708526875,72.0,87.0
786,194.54512171874998,194.88062697916666,67.0,85.0
787,192.24451421875,195.0109947375,55.0,54.0
788,194.54512171874998,195.01482908333332,47.0,79.0
789,194.54512171874998,195.03783515833334,72.0,83.0
790,194.54512171874998,195.06084123333332,65.0,98.0
791,194.54512171874998,195.06275840625,62.0,79.0
792,195.46536471874998,196.25140561458332,69.0,77.0
793,195.46536471874998,196.25523996041665,60.0,83.0
794,195.46536471874998,196.25715713333332,64.0,86.0
795,196.38560771874998,197.18698599791665,69.0,90.0
796,196.38560771874998,197.19465468958333,60.0,83.0
797,196.38560771874998,197.19657186249998,64.0,87.0
798,196.84572921875,197.36911742499998,57.0,56.0
799,197.53591146875,197.83307327083332,57.0,58.0
800,197.30585071874998,198.105311825,69.0,100.0
801,197.30585071874998,198.12064920833333,64.0,100.0
802,197.30585071874998,198.12640072708334,60.0,93.0
803,195.46536471874998,198.14940680208332,45.0,79.0
804,195.92548621875,198.15324114791665,52.0,66.0
805,198.22609371874998,198.77440517291666,62.0,81.0
806,198.22609371874998,198.77632234583334,59.0,73.0
807,198.22609371874998,198.77823951874998,67.0,87.0
808,198.22609371874998,198.8069971125,43.0,79.0
809,199.14633671874998,199.96688672708333,53.0,65.0
810,199.14633671874998,199.97647259166666,57.0,73.0
811,200.06657971875,200.66090332291665,62.0,74.0
812,200.06657971875,200.90821862916667,53.0,67.0
813,200.06657971875,200.92163883958332,57.0,76.0
814,200.52670121875,201.10952178541666,50.0,60.0
815,200.98682271875,201.73068581041665,53.0,65.0
816,200.98682271875,201.73260298333332,62.0,73.0
817,200.98682271875,201.74218884791665,57.0,77.0
818,201.44694421875,201.85338487708333,50.0,60.0
819,199.14633671874998,202.63942577291667,38.0,72.0
820,199.60645821875,202.65859750208332,45.0,60.0
821,201.90706571875,202.69885813333332,62.0,77.0
822,201.90706571875,202.70460965208332,57.0,77.0
823,201.90706571875,202.71227834375,53.0,74.0
824,202.36718721875,202.77937939583333,50.0,66.0
825,202.82730871875,203.24525241458332,53.0,62.0
826,202.82730871875,203.45805860833332,65.0,70.0
827,202.82730871875,203.62485265208332,60.0,81.0
828,202.82730871875,203.65552741874998,56.0,71.0
829,203.28743021875,203.76288910208334,53.0,59.0
830,203.74755171875,204.20192169999999,65.0,81.0
831,203.74755171875,204.2057560458333,60.0,76.0
832,203.74755171875,204.26710557916667,56.0,100.0
833,202.82730871875,204.35529553333333,41.0,63.0
834,204.20767321875,204.57385324583333,53.0,58.0
835,202.82730871875,204.63136843333334,48.0,100.0
836,204.66779471875,205.48067603541665,59.0,83.0
837,204.66779471875,205.48451038125,62.0,81.0
838,205.12791621875,206.07308246666665,50.0,67.0
839,204.66779471875,206.07499963958333,43.0,81.0
840,205.58803771875,206.08075115833333,67.0,79.0
841,205.58803771875,206.09033702291666,59.0,69.0
842,205.58803771875,206.10184006041666,62.0,70.0
843,206.04815921875,206.52745244791666,55.0,52.0
844,206.50828071875,207.06426086458333,72.0,60.0
845,206.50828071875,207.30390747916667,64.0,67.0
846,206.50828071875,207.32691355416665,67.0,73.0
847,207.42852371875,208.27974849375,64.0,73.0
848,207.88864521874999,208.48488599583334,60.0,55.0
849,208.34876671875,209.16356520833332,64.0,67.0
850,208.34876671875,209.16356520833332,67.0,66.0
851,208.80888821874998,209.21916322291665,60.0,54.0
852,206.50828071875,209.72337969999998,48.0,90.0
853,209.26900971875,209.75213729375,64.0,64.0
854,206.96840221875,209.8039009625,55.0,64.0
855,209.26900971875,209.88633939791666,67.0,81.0
856,210.18925271875,210.95037036666665,73.0,77.0
857,210.18925271875,210.96187340416665,65.0,81.0
858,210.18925271875,210.96187340416665,68.0,85.0
859,211.10949571875,211.91854268958332,73.0,85.0
860,211.10949571875,211.93004572708332,65.0,86.0
861,211.10949571875,211.9319629,68.0,93.0
862,211.56961721874998,212.13326605625,61.0,58.0
863,212.48986021874998,212.70266641249998,61.0,53.0
864,210.18925271875,212.76976746458334,49.0,95.0
865,212.02973871875,212.80427657708333,65.0,93.0
866,212.02973871875,212.82344830625,73.0,90.0
867,212.02973871875,212.829199825,68.0,93.0
868,210.64937421874998,212.94998171875,56.0,60.0
869,212.94998171875,213.21455158125,68.0,76.0
870,212.94998171875,213.45228102291665,48.0,100.0
871,212.94998171875,213.45611536875,73.0,83.0
872,212.94998171875,213.46186688749998,66.0,95.0
873,212.94998171875,213.473369925,63.0,93.0
874,213.87022471875,214.67927168958332,65.0,100.0
875,213.87022471875,214.67927168958332,70.0,93.0
876,213.87022471875,214.6811888625,61.0,86.0
877,214.79046771875,215.58226013333334,65.0,93.0
878,214.79046771875,215.58417730624998,70.0,85.0
879,214.79046771875,215.59184599791666,61.0,75.0
880,215.25058921874998,216.19000394791667,58.0,58.0
881,215.71071071875,216.1919211208333,70.0,86.0
882,215.71071071875,216.19767263958332,65.0,90.0
883,215.71071071875,216.20917567708332,61.0,81.0
884,214.33034621874998,216.28011107499998,53.0,65.0
885,213.87022471875,216.32420605208333,46.0,86.0
886,216.63095371875,217.38056832916666,68.0,95.0
887,216.63095371875,217.38631984791667,63.0,98.0
888,216.63095371875,217.39207136666667,60.0,86.0
889,216.63095371875,217.41699461458333,44.0,65.0
890,217.55119671875,218.36791238125,70.0,72.0
891,217.55119671875,218.3736639,66.0,87.0
892,218.47143971875,219.0619289770833,75.0,85.0
893,219.16162196874998,219.27665234375,75.0,59.0
894,218.47143971875,219.32458166666666,70.0,83.0
895,218.47143971875,219.33033318541666,66.0,72.0
896,218.93156121875,219.56039393541667,63.0,46.0
897,219.39168271875,220.17772361458333,75.0,83.0
898,219.39168271875,220.19497817083334,70.0,87.0
899,219.39168271875,220.2007296895833,66.0,83.0
900,219.85180421875,220.41353588333334,63.0,60.0
901,218.01131821874998,220.68002291874998,58.0,56.0
902,217.55119671875,220.73370376041666,51.0,85.0
903,220.31192571875,220.73562093333334,75.0,95.0
904,220.31192571875,220.75287548958332,70.0,87.0
905,220.31192571875,220.7662957,66.0,85.0
906,221.23216871875,221.52357900208332,61.0,69.0
907,221.23216871875,221.63860937708333,66.0,72.0
908,221.23216871875,222.01820961458333,57.0,77.0
909,221.23216871875,222.28086230416665,54.0,60.0
910,222.15241171875,222.98829911041665,61.0,95.0
911,222.15241171875,222.99980214791665,57.0,93.0
912,222.61253321875,223.19918813125,54.0,60.0
913,223.07265471875,223.85869561458333,61.0,87.0
914,223.07265471875,223.88553603541666,57.0,98.0
915,223.53277621875,224.056164425,54.0,59.0
916,223.99289771875,224.36291209166666,66.0,73.0
917,223.99289771875,224.42426162499999,61.0,98.0
918,221.23216871875,224.43001314375,42.0,74.0
919,223.99289771875,224.45301921875,57.0,104.0
920,221.23216871875,224.47410812083334,49.0,90.0
921,224.45301921875,224.87863160625,54.0,60.0
922,224.91314071875,225.71260182499998,73.0,71.0
923,224.91314071875,225.72027051666666,65.0,98.0
924,224.91314071875,225.72602203541666,68.0,90.0
925,225.83338371874999,226.67118828333332,65.0,87.0
926,225.83338371874999,226.67118828333332,73.0,79.0
927,225.83338371874999,226.67502262916665,68.0,87.0
928,226.29350521875,226.86865709375,61.0,44.0
929,226.98368746875,227.21374821875,61.0,56.0
930,226.75362671874998,227.49365546458333,65.0,87.0
931,224.91314071875,227.5166615395833,49.0,85.0
932,226.75362671874998,227.53008175,68.0,87.0
933,226.75362671874998,227.53583326875,73.0,87.0
934,227.67386971874998,228.00937497916667,68.0,85.0
935,225.37326221875,228.1397427375,56.0,54.0
936,227.67386971874998,228.14357708333333,48.0,79.0
937,227.67386971874998,228.1665831583333,73.0,83.0
938,227.67386971874998,228.18958923333332,66.0,98.0
939,227.67386971874998,228.19150640625,63.0,79.0
940,228.59411271874998,229.38015361458332,70.0,77.0
941,228.59411271874998,229.38398796041665,61.0,83.0
942,228.59411271874998,229.38590513333332,65.0,86.0
943,229.51435571874998,230.31573399791665,70.0,90.0
944,229.51435571874998,230.32340268958333,61.0,83.0
945,229.51435571874998,230.32531986249998,65.0,87.0
946,229.97447721875,230.497865425,58.0,56.0
947,230.66465946875,230.96182127083333,58.0,58.0
948,230.43459871874998,231.234059825,70.0,100.0
949,230.43459871874998,231.24939720833333,65.0,100.0
950,230.43459871874998,231.25514872708334,61.0,93.0
951,228.59411271874998,231.27815480208332,46.0,79.0
952,229.05423421875,231.28198914791665,53.0,66.0
953,231.35484171874998,231.90315317291666,63.0,81.0
954,231.35484171874998,231.90507034583334,60.0,73.0
955,231.35484171874998,231.90698751875,68.0,87.0
956,231.35484171874998,231.9357451125,44.0,79.0
957,232.27508471874998,233.09563472708334,54.0,65.0
958,232.27508471874998,233.10522059166667,58.0,73.0
959,233.19532771874998,233.78965132291665,63.0,74.0
960,233.19532771874998,234.03696662916667,54.0,67.0
961,233.19532771874998,234.05038683958333,58.0,76.0
962,233.65544921875,234.23826978541666,51.0,60.0
963,234.11557071874998,234.85943381041665,54.0,65.0
964,234.11557071874998,234.86135098333332,63.0,73.0
965,234.11557071874998,234.87093684791665,58.0,77.0
966,234.57569221875,234.98213287708333,51.0,60.0
967,232.27508471874998,235.76817377291667,39.0,72.0
968,232.73520621875,235.78734550208333,46.0,60.0
969,235.03581371874998,235.82760613333332,63.0,77.0
970,235.03581371874998,235.83335765208332,58.0,77.0
971,235.03581371874998,235.84102634375,54.0,74.0
972,235.49593521875,235.90812739583333,51.0,66.0
973,235.95605671874998,236.37400041458332,54.0,62.0
974,235.95605671874998,236.58680660833332,66.0,70.0
975,235.95605671874998,236.75360065208332,61.0,81.0
976,235.95605671874998,236.78427541874998,57.0,71.0
977,236.41617821875,236.89163710208334,54.0,59.0
978,236.87629971875,237.3306697,66.0,81.0
979,236.87629971875,237.3345040458333,61.0,76.0
980,236.87629971875,237.39585357916667,57.0,100.0
981,235.95605671874998,237.48404353333333,42.0,63.0
982,237.33642121875,237.70260124583334,54.0,58.0
983,235.95605671874998,237.76011643333334,49.0,100.0
984,237.79654271875,238.60942403541665,60.0,83.0
985,237.79654271875,238.61325838124998,63.0,81.0
986,238.25666421875,239.20183046666665,51.0,67.0
987,237.79654271875,239.20374763958333,44.0,81.0
988,238.71678571875,239.20949915833333,68.0,79.0
989,238.71678571875,239.21908502291666,60.0,69.0
990,238.71678571875,239.23058806041666,63.0,70.0
991,239.17690721875,239.63702871875,56.0,52.0
992,239.63702871875,240.41540092291666,68.0,58.0
993,239.63702871875,240.4249867875,65.0,67.0
994,239.63702871875,240.72214858958333,61.0,67.0
995,240.55727171875,241.3452297875,68.0,73.0
996,240.55727171875,241.35864999791664,65.0,75.0
997,241.01739321875,241.52544404166665,61.0,67.0
998,241.47751471875,242.29039603541665,68.0,76.0
999,241.47751471875,242.31915362916666,65.0,68.0
1000,241.93763621875,242.42843248541666,61.0,74.0
1001,242.39775771875,242.98824697708332,68.0,98.0
1002,242.39775771875,243.00358436041665,65.0,72.0
1003,239.63702871875,243.0476793375,56.0,64.0
1004,239.63702871875,243.11669756249998,49.0,56.0
1005,242.85787921874999,243.16654405833333,61.0,90.0
1006,243.31800071875,243.77428787291666,59.0,53.0
1007,243.31800071875,243.93341322499998,71.0,58.0
1008,243.31800071875,244.14621941874998,63.0,61.0
1009,243.31800071875,244.14621941874998,66.0,68.0
1010,243.77812221874998,244.30917911666666,59.0,59.0
1011,244.23824371875,244.75204606041666,71.0,81.0
1012,244.23824371875,245.11822608749998,66.0,69.0
1013,244.23824371875,245.12206043333333,63.0,59.0
1014,244.69836521874998,245.26584840208332,59.0,52.0
1015,245.15848671875,245.61860821874998,71.0,79.0
1016,245.15848671875,245.97328520833332,63.0,63.0
1017,245.15848671875,245.99053976458333,66.0,74.0
1018,245.61860821874998,246.11323883125,59.0,54.0
1019,243.31800071875,246.602117925,47.0,60.0
1020,246.07872971875,246.71139678125,71.0,83.0
1021,246.07872971875,246.7286513375,63.0,67.0
1022,246.07872971875,246.73248568333332,66.0,87.0
1023,246.53885121874998,246.77849783333332,59.0,60.0
1024,243.31800071875,246.8705221333333,51.0,59.0
1025,243.31800071875,246.8705221333333,54.0,63.0
1026,246.99897271875,247.82335707291665,73.0,62.0
1027,246.99897271875,247.82719141875,65.0,64.0
1028,246.99897271875,247.83869445624998,68.0,61.0
1029,247.91921571875,248.7416829,73.0,65.0
1030,247.91921571875,248.76085462916666,65.0,65.0
1031,247.91921571875,248.7761920125,68.0,66.0
1032,248.83945871875,249.63508547916666,73.0,64.0
1033,248.83945871875,249.65425720833332,65.0,64.0
1034,248.83945871875,249.66000872708332,68.0,61.0
1035,249.29958021874998,249.80187952291666,61.0,52.0
1036,248.37933721874998,250.05302917499998,56.0,55.0
1037,246.99897271875,250.12013022708334,49.0,81.0
1038,249.75970171875,250.21982321874998,73.0,67.0
1039,249.75970171875,250.23324342916666,65.0,64.0
1040,249.75970171875,250.2351606020833,68.0,71.0
1041,250.67994471875,257.21558719166666,61.0,90.0
1042,250.67994471875,257.230924575,66.0,69.0
1043,250.67994471875,257.24242761249997,54.0,57.0
1044,250.67994471875,257.25393065,49.0,71.0
1045,250.67994471875,257.2577649958333,45.0,76.0
1046,250.67994471875,257.28077107083334,42.0,60.0
