,start,end,pitch,velocity
0,25.4937931875,25.770578625000002,73.0,127.0
1,25.8234631875,26.100935437500002,76.0,99.0
2,26.1531331875,26.3948911875,78.0,122.0
3,26.4828031875,26.768517187500002,69.0,96.0
4,26.8124731875,27.0858245625,68.0,102.0
5,27.1421431875,27.439533,66.0,99.0
6,27.4718131875,28.1229114375,64.0,100.0
7,29.4498331875,29.697085687500003,66.0,102.0
8,29.7795031875,30.2039533125,69.0,88.0
9,30.1091731875,30.412744312500003,78.0,112.0
10,30.4388431875,30.901754812500002,76.0,99.0
11,31.098183187500002,31.441589437500003,69.0,99.0
12,31.427853187500002,32.7588958125,76.0,99.0
13,33.4058731875,33.66754875,76.0,107.0
14,33.7355431875,33.979361625,78.0,107.0
15,34.0652131875,34.289800875000005,81.0,100.0
16,34.3948831875,34.8426849375,80.0,127.0
17,35.0542231875,35.2396625625,78.0,122.0
18,35.3838931875,35.9333431875,76.0,112.0
19,36.0432331875,36.3687823125,69.0,102.0
20,36.3729031875,37.204633125,73.0,127.0
21,37.3619131875,37.80490725,71.0,107.0
22,38.0212531875,38.295978187500005,71.0,99.0
23,38.3509231875,38.6462525625,73.0,112.0
24,38.6805931875,38.90380725,69.0,95.0
25,39.0102631875,39.2836145625,66.0,112.0
26,39.3399331875,40.370838750000004,71.0,97.0
27,41.3179531875,41.56863975,73.0,127.0
28,41.6476231875,41.8591614375,76.0,102.0
29,41.9772931875,42.2369083125,78.0,117.0
30,42.3069631875,42.756825375000005,69.0,112.0
31,42.8014681875,42.976605375000005,69.0,93.0
32,42.9663031875,43.230726000000004,66.0,96.0
33,43.2959731875,44.3014666875,64.0,100.0
34,45.2684986875,45.5308610625,66.0,99.0
35,45.585806062500005,45.7822344375,69.0,100.0
36,45.921657375,46.1654758125,78.0,117.0
37,46.2204208125,46.513689750000005,76.0,112.0
38,46.7575081875,46.91478825,76.0,107.0
39,46.922343187500005,47.203936312500005,69.0,99.0
40,47.252013187500005,48.506819625000006,76.0,99.0
41,49.230033187500005,49.498576875000005,76.0,100.0
42,49.559703187500006,49.795966687500005,78.0,107.0
43,49.889373187500006,50.124949875000006,81.0,97.0
44,50.219043187500006,50.6998119375,80.0,122.0
45,50.8783831875,51.1723389375,78.0,127.0
46,51.2080531875,51.4855254375,76.0,117.0
47,51.5377231875,51.82137675,78.0,102.0
48,51.8673931875,52.1929423125,69.0,102.0
49,52.1970631875,52.972474500000004,73.0,112.0
50,53.1860731875,53.6366221875,71.0,99.0
51,53.8454131875,54.098847,71.0,97.0
52,54.1750831875,54.668901375000004,73.0,122.0
53,54.8344231875,55.144175625,66.0,127.0
54,55.1640931875,56.208048187500005,69.0,100.0
55,57.1421131875,57.578239125,81.0,102.0
56,57.8014531875,57.995821125000006,83.0,112.0
57,58.1311231875,58.61807325,85.0,127.0
58,59.1201331875,59.3426604375,85.0,127.0
59,59.4498031875,59.6105173125,83.0,100.0
60,59.7794731875,59.9724675,81.0,107.0
61,60.1091431875,60.701862375000005,83.0,122.0
62,61.1805706875,61.6324933125,81.0,127.0
63,61.7574931875,61.9333171875,83.0,117.0
64,62.0871631875,62.2629871875,80.0,122.0
65,62.4168331875,62.57411325,78.0,117.0
66,62.746503187500004,62.964909562500004,76.0,112.0
67,63.076173187500004,64.3907323125,78.0,127.0
68,65.0541931875,65.549385,81.0,112.0
69,65.7135331875,65.918890125,83.0,107.0
70,66.0432031875,66.798010125,85.0,127.0
71,67.0322131875,67.2519931875,85.0,127.0
72,67.3618831875,67.57960275,83.0,107.0
73,67.6915531875,67.88729475000001,81.0,102.0
74,68.0212231875,68.7066620625,78.0,122.0
75,69.0102331875,69.504051375,81.0,127.0
76,69.6695731875,69.85501256250001,83.0,102.0
77,69.9992431875,70.31586375,80.0,117.0
78,70.3289131875,70.57959975,73.0,112.0
79,70.6585831875,70.955973,78.0,127.0
80,70.9882531875,72.252675,76.0,99.0
81,72.96627318750001,73.47520125,76.0,117.0
82,73.62561318750001,73.869431625,78.0,127.0
83,73.9552831875,74.59539243750001,81.0,102.0
84,74.94429318750001,75.17986987500001,80.0,127.0
85,75.2739631875,75.4855014375,78.0,100.0
86,75.60363318750001,75.83646262500001,76.0,107.0
87,75.9333031875,76.773274875,78.0,127.0
88,76.92231318750001,77.3824775625,76.0,117.0
89,77.58165318750001,77.81722987500001,78.0,127.0
90,77.9113231875,78.1297295625,78.0,112.0
91,78.24099318750001,78.4882456875,69.0,100.0
92,78.5706631875,78.7876959375,71.0,99.0
93,78.90033318750001,80.296623,73.0,112.0
94,80.87835318750001,81.35500106250001,71.0,100.0
95,81.5376931875,81.7863193125,73.0,102.0
96,81.8673631875,82.61255475,76.0,100.0
97,82.8563731875,83.07409275,78.0,117.0
98,83.1860431875,83.391400125,76.0,96.0
99,83.5157131875,83.7025261875,73.0,117.0
100,83.8453831875,84.5665363125,71.0,112.0
101,84.8343931875,85.27464,76.0,122.0
102,85.4937331875,85.721068125,78.0,127.0
103,85.8234031875,86.0418095625,66.0,127.0
104,86.1530731875,86.358430125,64.0,96.0
105,86.4827431875,86.655133125,66.0,117.0
106,86.8124131875,88.13933493750001,69.0,127.0
107,105.6036031875,105.88038862500001,73.0,127.0
108,105.9332731875,106.21074543750001,76.0,99.0
109,106.2629431875,106.5047011875,78.0,122.0
110,106.5926131875,106.8783271875,69.0,96.0
111,106.9222831875,107.1956345625,68.0,102.0
112,107.2519531875,107.54934300000001,66.0,99.0
113,107.5816231875,108.2327214375,64.0,100.0
114,109.5596431875,109.8068956875,66.0,102.0
115,109.88931318750001,110.3137633125,69.0,88.0
116,110.2189831875,110.5225543125,78.0,112.0
117,110.54865318750001,111.01156481250001,76.0,99.0
118,111.20799318750001,111.55139943750001,69.0,99.0
119,111.5376631875,112.86870581250001,76.0,99.0
120,113.5156831875,113.77735875,76.0,107.0
121,113.84535318750001,114.089171625,78.0,107.0
122,114.1750231875,114.39961087500001,81.0,100.0
123,114.50469318750001,114.9524949375,80.0,127.0
124,115.16403318750001,115.34947256250001,78.0,122.0
125,115.4937031875,116.04315318750001,76.0,112.0
126,116.1530431875,116.47859231250001,69.0,102.0
127,116.48271318750001,117.31444312500001,73.0,127.0
128,117.4717231875,117.91471725000001,71.0,107.0
129,118.1310631875,118.40578818750001,71.0,99.0
130,118.46073318750001,118.7560625625,73.0,112.0
131,118.7904031875,119.01361725000001,69.0,95.0
132,119.12007318750001,119.3934245625,66.0,112.0
133,119.4497431875,120.48064875,71.0,97.0
134,121.4277631875,121.67844975,73.0,127.0
135,121.75743318750001,121.9689714375,76.0,102.0
136,122.0871031875,122.3467183125,78.0,117.0
137,122.4167731875,122.866635375,69.0,112.0
138,122.9112781875,123.086415375,69.0,93.0
139,123.0761131875,123.340536,66.0,96.0
140,123.4057831875,124.4112766875,64.0,100.0
141,125.37830868750001,125.6406710625,66.0,99.0
142,125.69561606250001,125.8920444375,69.0,100.0
143,126.031467375,126.2752858125,78.0,117.0
144,126.3302308125,126.62349975000001,76.0,112.0
145,126.8673181875,127.02459825000001,76.0,107.0
146,127.0321531875,127.3137463125,69.0,99.0
147,127.36182318750001,128.616629625,76.0,99.0
148,129.3398431875,129.608386875,76.0,100.0
149,129.6695131875,129.9057766875,78.0,107.0
150,129.9991831875,130.234759875,81.0,97.0
151,130.32885318750002,130.8096219375,80.0,122.0
152,130.9881931875,131.2821489375,78.0,127.0
153,131.3178631875,131.5953354375,76.0,117.0
154,131.64753318750002,131.93118675,78.0,102.0
155,131.9772031875,132.30275231250002,69.0,102.0
156,132.3068731875,133.08228450000001,73.0,112.0
157,133.2958831875,133.7464321875,71.0,99.0
158,133.9552231875,134.20865700000002,71.0,97.0
159,134.28489318750002,134.778711375,73.0,122.0
160,134.9442331875,135.253985625,66.0,127.0
161,135.2739031875,136.3178581875,69.0,100.0
162,137.2519231875,137.68804912500002,81.0,102.0
163,137.9112631875,138.105631125,83.0,112.0
164,138.24093318750002,138.72788325000002,85.0,127.0
165,139.2299431875,139.4524704375,85.0,127.0
166,139.55961318750002,139.72032731250002,83.0,100.0
167,139.8892831875,140.0822775,81.0,107.0
168,140.2189531875,140.811672375,83.0,122.0
169,141.2903806875,141.7423033125,81.0,127.0
170,141.8673031875,142.0431271875,83.0,117.0
171,142.19697318750002,142.3727971875,80.0,122.0
172,142.5266431875,142.68392325000002,78.0,117.0
173,142.8563131875,143.0747195625,76.0,112.0
174,143.1859831875,144.50054231250002,78.0,127.0
175,145.16400318750001,145.659195,81.0,112.0
176,145.8233431875,146.028700125,83.0,107.0
177,146.1530131875,146.907820125,85.0,127.0
178,147.1420231875,147.36180318750002,85.0,127.0
179,147.4716931875,147.68941275,83.0,107.0
180,147.80136318750002,147.99710475,81.0,102.0
181,148.1310331875,148.8164720625,78.0,122.0
182,149.12004318750002,149.613861375,81.0,127.0
183,149.7793831875,149.96482256250002,83.0,102.0
184,150.1090531875,150.42567375000002,80.0,117.0
185,150.43872318750002,150.68940975,73.0,112.0
186,150.7683931875,151.065783,78.0,127.0
187,151.0980631875,152.36248500000002,76.0,99.0
188,153.07608318750002,153.58501125,76.0,117.0
189,153.7354231875,153.97924162500001,78.0,127.0
190,154.0650931875,154.70520243750002,81.0,102.0
191,155.0541031875,155.28967987500002,80.0,127.0
192,155.3837731875,155.59531143750002,78.0,100.0
193,155.71344318750002,155.946272625,76.0,107.0
194,156.0431131875,156.883084875,78.0,127.0
195,157.03212318750002,157.4922875625,76.0,117.0
196,157.6914631875,157.92703987500002,78.0,127.0
197,158.0211331875,158.2395395625,78.0,112.0
198,158.35080318750002,158.5980556875,69.0,100.0
199,158.6804731875,158.8975059375,71.0,99.0
200,159.0101431875,160.40643300000002,73.0,112.0
201,160.98816318750002,161.46481106250002,71.0,100.0
202,161.6475031875,161.8961293125,73.0,102.0
203,161.9771731875,162.72236475,76.0,100.0
204,162.9661831875,163.18390275000002,78.0,117.0
205,163.2958531875,163.501210125,76.0,96.0
206,163.6255231875,163.8123361875,73.0,117.0
207,163.95519318750002,164.67634631250002,71.0,112.0
208,164.9442031875,165.38445000000002,76.0,122.0
209,165.6035431875,165.830878125,78.0,127.0
210,165.9332131875,166.1516195625,66.0,127.0
211,166.263486725,166.46997861666668,64.0,96.0
212,166.594978725,166.76832141666668,66.0,117.0
213,166.926470725,168.260726025,69.0,127.0
214,168.915422725,169.19373788333334,73.0,127.0
215,169.246914725,169.52592049166668,76.0,99.0
216,169.578406725,169.82150085833334,78.0,122.0
217,169.909898725,170.19719179166668,69.0,96.0
218,170.241390725,170.51625284166667,68.0,102.0
219,170.572882725,170.87191613333334,66.0,99.0
220,170.904374725,171.559071425,64.0,100.0
221,173.887802725,174.21376985833334,66.0,112.0
222,174.219294725,174.36708490833334,69.0,97.0
223,174.55078672500002,174.81667093333334,78.0,112.0
224,174.88227872500002,175.34215820625002,76.0,117.0
225,175.54771355625002,175.84285215000003,69.0,107.0
226,175.88104655625003,177.7109058375,76.0,100.0
227,178.88104355625,179.15465439375,76.0,102.0
228,179.21437655625002,179.42548745625,78.0,117.0
229,179.54770955625003,179.76784822500002,81.0,99.0
230,179.88104255625,180.50534748750002,80.0,127.0
231,180.54770855625003,180.77548610625,78.0,127.0
232,180.88104155625,181.09076356875002,76.0,99.0
233,181.21437455625002,181.44423543750003,78.0,122.0
234,181.54770755625003,181.8303461625,69.0,99.0
235,181.88104055625,182.72131749375,73.0,122.0
236,182.88103955625002,183.11645598750002,76.0,112.0
237,183.21437255625003,183.46576119375,78.0,122.0
238,183.54770555625,183.73103870625002,81.0,117.0
239,183.88103855625002,187.4631549375,83.0,127.0
240,187.8505171875,188.108071875,81.0,112.0
241,188.18018718750002,188.45834625,83.0,97.0
242,188.50985718750002,188.7268899375,85.0,122.0
243,188.8395271875,189.08265881250003,78.0,127.0
244,189.1691971875,189.41782331250002,76.0,100.0
245,189.49886718750003,189.71727356250003,78.0,122.0
246,189.82853718750002,191.84982637500002,81.0,122.0
