,start,end,pitch,velocity
0,8.0212831875,8.2850191875,49.0,127.0
1,8.0212831875,8.3152389375,61.0,127.0
2,8.3509531875,8.6215573125,47.0,78.0
3,8.3509531875,8.6648265,59.0,107.0
4,8.6806231875,9.781583625,52.0,81.0
5,8.6806231875,9.8069956875,49.0,100.0
6,8.6806231875,9.8303473125,64.0,89.0
7,8.6806231875,9.853012125000001,61.0,107.0
8,8.6806231875,10.1490283125,57.0,107.0
9,9.9993031875,10.1490283125,57.0,102.0
10,8.6806231875,10.1737535625,45.0,102.0
11,9.9993031875,10.1737535625,45.0,102.0
12,10.3289731875,10.4471049375,56.0,117.0
13,10.3289731875,10.6284234375,44.0,82.0
14,10.658643187500001,11.802186,54.0,95.0
15,10.658643187500001,11.820043125,57.0,107.0
16,10.658643187500001,11.8221035625,61.0,102.0
17,10.658643187500001,11.842021125,42.0,96.0
18,11.9773231875,12.1366636875,69.0,96.0
19,11.9773231875,12.2506745625,54.0,92.0
20,11.9773231875,12.280207500000001,66.0,122.0
21,12.3069931875,12.56866875,64.0,100.0
22,12.3069931875,12.5927071875,52.0,68.0
23,12.6366631875,13.927183875,62.0,99.0
24,12.6366631875,13.934052000000001,66.0,107.0
25,12.6366631875,13.93679925,69.0,90.0
26,12.6366631875,13.958090437500001,50.0,90.0
27,13.9553431875,13.958090437500001,50.0,102.0
28,13.9553431875,14.127733125,66.0,99.0
29,13.9553431875,14.182678125,62.0,99.0
30,14.2850131875,14.5295184375,49.0,107.0
31,14.2850131875,14.5693535625,61.0,99.0
32,14.6146831875,14.96427075,59.0,93.0
33,14.6146831875,15.0034190625,47.0,90.0
34,14.9443531875,15.179243062500001,57.0,122.0
35,15.274023187500001,15.5157811875,54.0,122.0
36,15.603693187500001,15.870176437500001,66.0,127.0
37,15.933363187500001,16.168939875,64.0,112.0
38,16.2630331875,16.494489,61.0,127.0
39,16.5927031875,16.8564391875,59.0,117.0
40,20.8784131875,21.157945875,59.0,117.0
41,21.2080831875,21.5267641875,57.0,96.0
42,21.5377531875,22.23898875,56.0,112.0
43,22.526763187500002,23.320031625000002,57.0,92.0
44,22.526763187500002,23.3262129375,45.0,37.0
45,22.526763187500002,23.334454687500003,64.0,92.0
46,22.526763187500002,23.35437225,62.0,99.0
47,23.515773187500002,25.506842625,45.0,53.0
48,25.4937931875,25.506842625,45.0,79.0
49,23.515773187500002,25.542556875000002,57.0,83.0
50,23.515773187500002,25.5473645625,64.0,79.0
51,23.515773187500002,25.551485437500002,61.0,95.0
52,25.8234631875,25.877721375,64.0,83.0
53,25.8234631875,25.8948916875,57.0,88.0
54,25.8234631875,25.9058806875,61.0,107.0
55,26.1531331875,26.2451660625,57.0,86.0
56,26.1531331875,26.248600125000003,61.0,96.0
57,26.1531331875,26.249973750000002,64.0,86.0
58,26.8124731875,26.9065665,57.0,78.0
59,26.8124731875,26.907940125,64.0,77.0
60,26.8124731875,26.92030275,61.0,93.0
61,26.4828031875,26.9237368125,45.0,68.0
62,27.1421431875,27.215632125000003,64.0,85.0
63,27.1421431875,27.2204398125,57.0,92.0
64,27.1421431875,27.2204398125,61.0,100.0
65,27.8014831875,27.891455625000003,64.0,81.0
66,27.8014831875,27.8935160625,57.0,82.0
67,27.8014831875,27.8948896875,61.0,97.0
68,27.4718131875,28.034312625000002,45.0,55.0
69,28.1311531875,28.210136625,61.0,102.0
70,28.1311531875,28.220438812500003,57.0,92.0
71,28.1311531875,28.2231860625,64.0,89.0
72,28.7904931875,28.883212875,61.0,92.0
73,28.7904931875,28.8921414375,57.0,78.0
74,28.7904931875,28.8921414375,64.0,79.0
75,28.4608231875,28.9031304375,45.0,66.0
76,29.1201631875,29.197086187500002,61.0,99.0
77,29.1201631875,29.2094488125,57.0,88.0
78,29.1201631875,29.211509250000002,64.0,90.0
79,29.7795031875,29.872222875000002,57.0,81.0
80,29.7795031875,29.879091000000003,66.0,83.0
81,29.7795031875,29.8852723125,62.0,90.0
82,29.4498331875,29.9045030625,50.0,66.0
83,30.1091731875,30.199145625,57.0,90.0
84,30.1091731875,30.204640125,66.0,95.0
85,30.1091731875,30.209447812500002,62.0,97.0
86,30.4388431875,30.8797768125,50.0,66.0
87,30.7685131875,30.883897687500003,66.0,89.0
88,30.7685131875,30.885271312500002,57.0,79.0
89,30.7685131875,30.8893921875,62.0,92.0
90,31.098183187500002,31.189529250000003,66.0,85.0
91,31.098183187500002,31.1943369375,62.0,96.0
92,31.098183187500002,31.2012050625,57.0,85.0
93,31.757523187500002,31.8385670625,57.0,75.0
94,31.757523187500002,31.868100000000002,64.0,78.0
95,31.757523187500002,31.8701604375,61.0,95.0
96,31.427853187500002,31.8880175625,45.0,57.0
97,32.0871931875,32.17853925,64.0,86.0
98,32.0871931875,32.1792260625,57.0,93.0
99,32.0871931875,32.186781,61.0,112.0
100,32.7465331875,32.824143,64.0,88.0
101,32.7465331875,32.828950687500004,61.0,102.0
102,32.7465331875,32.836505625,57.0,86.0
103,32.4168631875,32.8495550625,45.0,60.0
104,33.0762031875,33.159307500000004,64.0,85.0
105,33.0762031875,33.164802,61.0,102.0
106,33.0762031875,33.175104187500004,57.0,90.0
107,33.7355431875,33.8296365,61.0,102.0
108,33.7355431875,33.834444187500004,57.0,90.0
109,33.7355431875,33.835817812500004,64.0,86.0
110,33.4058731875,33.8468068125,45.0,68.0
111,34.0652131875,34.1407625625,61.0,117.0
112,34.0652131875,34.1613669375,64.0,88.0
113,34.0652131875,34.1627405625,57.0,93.0
114,34.3948831875,34.714251000000004,44.0,89.0
115,34.7245531875,34.8110915625,61.0,95.0
116,34.7245531875,34.814525625,64.0,85.0
117,34.7245531875,34.8186465,56.0,99.0
118,35.0542231875,35.15106375,61.0,100.0
119,35.0542231875,35.1586186875,64.0,89.0
120,35.0542231875,35.166173625,56.0,99.0
121,35.3838931875,35.6860906875,42.0,76.0
122,35.7135631875,35.8165850625,57.0,78.0
123,35.7135631875,35.822766375,66.0,72.0
124,35.7135631875,35.8275740625,61.0,88.0
125,36.0432331875,36.152436375,61.0,112.0
126,36.0432331875,36.155183625,57.0,93.0
127,36.0432331875,36.166172625,66.0,92.0
128,36.3729031875,36.710814937500004,45.0,71.0
129,36.7025731875,36.7918588125,61.0,99.0
130,36.7025731875,36.7946060625,64.0,82.0
131,36.7025731875,36.7966665,57.0,85.0
132,37.0322431875,37.1201551875,57.0,95.0
133,37.0322431875,37.1215288125,61.0,107.0
134,37.0322431875,37.141446375,64.0,88.0
135,37.6915831875,37.7863633125,59.0,89.0
136,37.6915831875,37.787050125,63.0,112.0
137,37.6915831875,37.793231437500005,66.0,107.0
138,37.3619131875,37.809714937500004,47.0,68.0
139,38.0212531875,38.108478375000004,59.0,93.0
140,38.0212531875,38.1153465,63.0,122.0
141,38.0212531875,38.119467375,66.0,112.0
142,38.6805931875,38.7712524375,59.0,85.0
143,38.6805931875,38.780181,66.0,99.0
144,38.6805931875,38.781554625,63.0,112.0
145,38.3509231875,38.7877359375,51.0,99.0
146,39.0102631875,39.1064169375,59.0,93.0
147,39.0102631875,39.111911437500005,66.0,100.0
148,39.0102631875,39.112598250000005,63.0,117.0
149,39.3399331875,39.685399875,52.0,69.0
150,39.6696031875,39.7657569375,64.0,89.0
151,39.6696031875,39.7698778125,68.0,89.0
152,39.6696031875,39.773998687500004,59.0,85.0
153,39.9992731875,40.087185187500005,68.0,93.0
154,39.9992731875,40.0926796875,64.0,96.0
155,39.9992731875,40.0933665,59.0,96.0
156,40.3289431875,40.605728625000005,62.0,117.0
157,40.3289431875,40.6297670625,50.0,122.0
158,40.6586131875,40.90929975,49.0,107.0
159,40.6586131875,40.979354625,61.0,127.0
160,40.9882831875,41.2712499375,47.0,85.0
161,40.9882831875,41.2767444375,59.0,107.0
162,41.3179531875,41.7327879375,45.0,90.0
163,41.6476231875,41.737595625000004,64.0,90.0
164,41.6476231875,41.7465241875,57.0,90.0
165,41.6476231875,41.752018687500005,61.0,107.0
166,41.9772931875,42.065205187500005,61.0,122.0
167,41.9772931875,42.066578812500005,57.0,95.0
168,41.9772931875,42.0706996875,64.0,97.0
169,42.3069631875,42.699133125,45.0,66.0
170,42.6366331875,42.7197375,64.0,95.0
171,42.6366331875,42.727979250000004,57.0,95.0
172,42.6366331875,42.729352875000004,61.0,117.0
173,42.9663031875,43.054902,61.0,117.0
174,42.9663031875,43.06314375,64.0,95.0
175,42.9663031875,43.0638305625,57.0,97.0
176,43.2959731875,43.69501125,45.0,61.0
177,43.6256431875,43.714242,57.0,95.0
178,43.6256431875,43.72248375,61.0,107.0
179,43.6256431875,43.7231705625,64.0,89.0
180,43.9553131875,44.0253680625,61.0,117.0
181,43.9553131875,44.0432251875,57.0,97.0
182,43.9553131875,44.048032875000004,64.0,93.0
183,44.2849831875,44.692949812500004,45.0,73.0
184,44.614653187500004,44.7011915625,57.0,93.0
185,44.614653187500004,44.703252,61.0,107.0
186,44.614653187500004,44.7094333125,64.0,90.0
187,44.944323187500004,45.0267406875,61.0,112.0
188,44.944323187500004,45.036356062500005,57.0,90.0
189,44.944323187500004,45.04665825,64.0,86.0
190,45.273993187500004,45.6091576875,50.0,78.0
191,45.603663187500004,45.6847070625,62.0,97.0
192,45.603663187500004,45.6867675,66.0,96.0
193,45.603663187500004,45.699130125,57.0,86.0
194,45.933333187500004,46.012316625000004,62.0,100.0
195,45.933333187500004,46.026739687500005,57.0,90.0
196,45.933333187500004,46.043910000000004,66.0,100.0
197,46.263003187500004,46.6201456875,50.0,81.0
198,46.592673187500004,46.6805851875,62.0,112.0
199,46.592673187500004,46.685392875000005,66.0,96.0
200,46.592673187500004,46.686079687500005,57.0,86.0
201,46.922343187500005,46.986216750000004,62.0,107.0
202,46.922343187500005,47.0047606875,57.0,96.0
203,46.922343187500005,47.0226178125,66.0,107.0
204,47.252013187500005,47.624952375,45.0,72.0
205,47.581683187500005,47.662040250000004,57.0,96.0
206,47.581683187500005,47.662040250000004,64.0,95.0
207,47.581683187500005,47.6641006875,61.0,122.0
208,47.911353187500005,47.987589375,61.0,127.0
209,47.911353187500005,47.989649812500005,57.0,96.0
210,47.911353187500005,47.9992651875,64.0,97.0
211,48.241023187500005,48.5967920625,52.0,73.0
212,48.570693187500005,48.6544843125,57.0,93.0
213,48.570693187500005,48.6558579375,61.0,112.0
214,48.570693187500005,48.65654475,64.0,90.0
215,48.900363187500005,48.9704180625,61.0,117.0
216,48.900363187500005,48.980720250000005,57.0,96.0
217,48.900363187500005,48.9896488125,64.0,95.0
218,49.230033187500005,49.578247125000004,45.0,75.0
219,49.559703187500006,49.640747062500004,61.0,112.0
220,49.559703187500006,49.6428075,57.0,95.0
221,49.559703187500006,49.646928375,64.0,92.0
222,49.889373187500006,49.960114875,61.0,122.0
223,49.889373187500006,49.971103875000004,57.0,99.0
224,49.889373187500006,49.977972,64.0,95.0
225,50.219043187500006,50.560389,49.0,92.0
226,50.5487131875,50.6098395,64.0,88.0
227,50.5487131875,50.61808125,68.0,95.0
228,50.5487131875,50.629070250000005,61.0,97.0
229,50.8783831875,50.9347018125,68.0,100.0
230,50.8783831875,50.942943562500005,64.0,107.0
231,50.8783831875,50.975223750000005,61.0,122.0
232,51.2080531875,51.593355,50.0,63.0
233,51.5377231875,51.6270088125,62.0,97.0
234,51.5377231875,51.637997812500004,57.0,95.0
235,51.5377231875,51.637997812500004,66.0,96.0
236,51.8673931875,51.9388216875,62.0,97.0
237,51.8673931875,51.9614865,57.0,97.0
238,51.8673931875,51.968354625,66.0,97.0
239,52.1970631875,52.563821062500004,51.0,72.0
240,52.5267331875,52.642804500000004,69.0,86.0
241,52.5267331875,52.6448649375,63.0,112.0
242,52.5267331875,52.646925375,66.0,107.0
243,52.8564031875,52.939507500000005,69.0,85.0
244,52.8564031875,52.9511833125,63.0,117.0
245,52.8564031875,52.965606375,66.0,107.0
246,53.5157431875,53.6050288125,59.0,95.0
247,53.5157431875,53.6077760625,68.0,100.0
248,53.5157431875,53.6201386875,64.0,99.0
249,53.1860731875,53.644863937500006,52.0,76.0
250,53.8454131875,53.931264750000004,68.0,102.0
251,53.8454131875,53.931951562500004,59.0,96.0
252,53.8454131875,53.9415669375,64.0,100.0
253,54.1750831875,54.5528300625,52.0,76.0
254,54.5047531875,54.5926651875,59.0,89.0
255,54.5047531875,54.5988465,68.0,100.0
256,54.5047531875,54.605027812500005,64.0,97.0
257,54.8344231875,54.917527500000006,68.0,100.0
258,54.8344231875,54.919587937500005,59.0,96.0
259,54.8344231875,54.92576925,64.0,97.0
260,55.1640931875,55.406538000000005,57.0,112.0
261,55.1640931875,55.4140929375,45.0,100.0
262,55.4937631875,55.7307135,52.0,102.0
263,55.4937631875,55.736208000000005,64.0,99.0
264,55.8234331875,56.050768125000005,49.0,93.0
265,55.8234331875,56.083048312500004,61.0,112.0
266,56.1531031875,56.4621688125,57.0,122.0
267,56.1531031875,56.4951358125,45.0,93.0
268,57.1421131875,57.543211687500005,45.0,74.0
269,57.4717831875,57.591975375000004,57.0,86.0
270,57.4717831875,57.60159075,61.0,93.0
271,57.4717831875,57.602964375,64.0,85.0
272,57.8014531875,57.8948596875,61.0,112.0
273,57.8014531875,57.896920125,57.0,96.0
274,57.8014531875,57.9113431875,64.0,93.0
275,58.1311231875,58.565875500000004,45.0,70.0
276,58.4607931875,58.565875500000004,64.0,93.0
277,58.4607931875,58.57137,57.0,93.0
278,58.4607931875,58.5768645,61.0,117.0
279,58.4607931875,58.580985375000004,67.0,89.0
280,58.7904631875,58.910655375000005,57.0,100.0
281,58.7904631875,58.918897125,67.0,92.0
282,58.7904631875,58.923704812500006,64.0,93.0
283,58.7904631875,58.924391625000005,61.0,122.0
284,59.1201331875,59.5610668125,50.0,85.0
285,59.4498031875,59.571369000000004,57.0,95.0
286,59.4498031875,59.5940338125,62.0,100.0
287,59.4498031875,59.601588750000005,66.0,99.0
288,59.7794731875,59.897604937500006,57.0,90.0
289,59.7794731875,59.905159875,62.0,97.0
290,59.7794731875,59.910654375,66.0,97.0
291,60.1091431875,60.510241687500006,50.0,74.0
292,60.4388131875,60.564499875,57.0,88.0
293,60.4388131875,60.5720548125,62.0,97.0
294,60.4388131875,60.57960975,66.0,92.0
295,60.7684831875,60.8646369375,57.0,100.0
296,60.7684831875,60.8687578125,62.0,102.0
297,60.7684831875,60.875625937500004,66.0,107.0
298,61.4278231875,61.5280978125,64.0,107.0
299,61.0981531875,61.5390868125,49.0,86.0
300,61.4278231875,61.5404604375,61.0,117.0
301,61.4278231875,61.547328562500006,68.0,117.0
302,61.7574931875,61.872190875,64.0,100.0
303,61.7574931875,61.892108437500006,61.0,107.0
304,61.7574931875,61.896916125000004,68.0,112.0
305,62.4168331875,62.517794625,64.0,102.0
306,62.4168331875,62.5184814375,61.0,112.0
307,62.4168331875,62.523975937500005,68.0,107.0
308,62.0871631875,62.552822062500006,49.0,100.0
309,62.746503187500004,62.8261734375,64.0,112.0
310,62.746503187500004,62.8440305625,68.0,117.0
311,62.746503187500004,62.858453625,61.0,117.0
312,63.405843187500004,63.51023868750001,61.0,127.0
313,63.405843187500004,63.5198540625,66.0,99.0
314,63.405843187500004,63.5239749375,57.0,96.0
315,63.076173187500004,63.574799062500006,42.0,96.0
316,63.735513187500004,63.8399086875,61.0,127.0
317,63.735513187500004,63.844029562500005,57.0,100.0
318,63.735513187500004,63.850210875,66.0,112.0
319,64.3948531875,64.51298493750001,61.0,122.0
320,64.3948531875,64.523287125,66.0,99.0
321,64.3948531875,64.52603437500001,57.0,96.0
322,64.0651831875,64.545265125,54.0,81.0
323,64.7245231875,64.8206769375,66.0,100.0
324,64.7245231875,64.8344131875,61.0,127.0
325,64.7245231875,64.84334175000001,57.0,99.0
326,65.3838631875,65.48688506250001,64.0,93.0
327,65.3838631875,65.4910059375,57.0,93.0
328,65.3838631875,65.5019949375,61.0,117.0
329,65.0541931875,65.79869793750001,45.0,78.0
330,65.7135331875,65.8069396875,61.0,117.0
331,65.7135331875,65.8179286875,57.0,97.0
332,65.7135331875,65.828230875,64.0,97.0
333,66.3728731875,66.49375218750001,57.0,90.0
334,66.3728731875,66.5006203125,61.0,107.0
335,66.3728731875,66.501307125,64.0,92.0
336,66.7025431875,66.800757375,61.0,117.0
337,66.7025431875,66.80487825,57.0,93.0
338,66.7025431875,66.8179276875,64.0,89.0
339,66.0432031875,66.8247958125,52.0,67.0
340,67.3618831875,67.476580875,57.0,93.0
341,67.3618831875,67.48619625,62.0,107.0
342,67.3618831875,67.487569875,66.0,102.0
343,67.0322131875,67.5857840625,50.0,95.0
344,67.6915531875,67.8000695625,57.0,96.0
345,67.6915531875,67.8076245,62.0,117.0
346,67.6915531875,67.811745375,66.0,117.0
347,68.3508931875,68.46765131250001,57.0,92.0
348,68.3508931875,68.48344800000001,66.0,96.0
349,68.3508931875,68.4882556875,62.0,97.0
350,68.0212231875,68.523283125,50.0,73.0
351,68.6805631875,68.77740375,62.0,102.0
352,68.6805631875,68.7856455,57.0,99.0
353,68.6805631875,68.792513625,66.0,102.0
354,69.3399031875,69.465589875,59.0,95.0
355,69.3399031875,69.468337125,63.0,112.0
356,69.0102331875,69.46971075,47.0,90.0
357,69.3399031875,69.4841338125,66.0,99.0
358,69.6695731875,69.77190825000001,63.0,117.0
359,69.6695731875,69.77602912500001,69.0,93.0
360,69.6695731875,69.7822104375,59.0,100.0
361,69.6695731875,69.7835840625,66.0,107.0
362,70.3289131875,70.4319350625,63.0,122.0
363,70.3289131875,70.4333086875,69.0,85.0
364,70.3289131875,70.438116375,66.0,99.0
365,70.3289131875,70.4388031875,59.0,97.0
366,69.9992431875,70.50817125,54.0,63.0
367,70.6585831875,70.7087205,69.0,65.0
368,70.6585831875,70.762291875,63.0,117.0
369,70.6585831875,70.77190725,59.0,97.0
370,70.6585831875,70.784269875,66.0,99.0
371,70.9882531875,71.3824835625,52.0,83.0
372,71.3179231875,71.418884625,59.0,99.0
373,71.3179231875,71.4291868125,68.0,102.0
374,71.3179231875,71.43674175000001,64.0,100.0
375,71.64759318750001,71.74443375,59.0,97.0
376,71.64759318750001,71.75679637500001,68.0,122.0
377,71.64759318750001,71.759543625,64.0,100.0
378,71.9772631875,72.2149003125,62.0,107.0
379,71.9772631875,72.2657244375,50.0,85.0
380,72.30693318750001,72.5651746875,49.0,100.0
381,72.30693318750001,72.60157575000001,61.0,122.0
382,72.6366031875,72.8934710625,59.0,100.0
383,72.6366031875,72.894157875,47.0,92.0
384,72.96627318750001,73.38454200000001,45.0,89.0
385,73.2959431875,73.4010255,57.0,93.0
386,73.2959431875,73.40583318750001,64.0,95.0
387,73.2959431875,73.413388125,61.0,122.0
388,73.62561318750001,73.7272614375,57.0,90.0
389,73.62561318750001,73.73893725,61.0,117.0
390,73.62561318750001,73.747179,64.0,96.0
391,74.28495318750001,74.3962168125,57.0,92.0
392,74.28495318750001,74.40377175,61.0,102.0
393,73.9552831875,74.40857943750001,45.0,73.0
394,74.28495318750001,74.40995306250001,64.0,88.0
395,74.6146231875,74.7039088125,61.0,117.0
396,74.6146231875,74.712837375,64.0,93.0
397,74.6146231875,74.721079125,57.0,96.0
398,74.94429318750001,75.3687433125,49.0,75.0
399,75.2739631875,75.3783586875,64.0,66.0
400,75.2739631875,75.3790455,61.0,88.0
401,75.2739631875,75.38728725,56.0,99.0
402,75.60363318750001,75.6929188125,61.0,88.0
403,75.60363318750001,75.7080286875,64.0,85.0
404,75.60363318750001,75.7217649375,56.0,99.0
405,76.26297318750001,76.380418125,61.0,107.0
406,76.26297318750001,76.388659875,57.0,90.0
407,75.9333031875,76.4470389375,42.0,83.0
408,76.5926431875,76.66201125,66.0,102.0
409,76.5926431875,76.682615625,61.0,127.0
410,76.5926431875,76.701846375,57.0,95.0
411,76.92231318750001,77.319977625,50.0,92.0
412,77.2519831875,77.366680875,66.0,93.0
413,77.2519831875,77.3714885625,57.0,90.0
414,77.2519831875,77.3783566875,62.0,97.0
415,77.58165318750001,77.6867355,57.0,95.0
416,77.58165318750001,77.68948275000001,62.0,100.0
417,77.58165318750001,77.68948275000001,66.0,100.0
418,77.9113231875,78.3192898125,50.0,76.0
419,78.24099318750001,78.344701875,57.0,92.0
420,78.24099318750001,78.344701875,62.0,100.0
421,78.24099318750001,78.3508831875,66.0,97.0
422,78.5706631875,78.6613224375,66.0,97.0
423,78.5706631875,78.67025100000001,57.0,95.0
424,78.5706631875,78.674371875,62.0,99.0
425,79.2300031875,79.3289041875,61.0,107.0
426,79.2300031875,79.3302778125,57.0,95.0
427,79.2300031875,79.33096462500001,64.0,93.0
428,78.90033318750001,79.635909375,45.0,71.0
429,79.55967318750001,79.652392875,61.0,122.0
430,79.55967318750001,79.657887375,57.0,100.0
431,79.55967318750001,79.659261,64.0,97.0
432,79.8893431875,80.314480125,52.0,65.0
433,80.21901318750001,80.317227375,61.0,107.0
434,80.21901318750001,80.3220350625,57.0,96.0
435,80.21901318750001,80.3220350625,64.0,93.0
436,80.5486831875,80.6159908125,61.0,117.0
437,80.5486831875,80.6420896875,64.0,99.0
438,80.5486831875,80.6503314375,57.0,95.0
439,80.87835318750001,81.254039625,52.0,69.0
440,81.2080231875,81.3082978125,59.0,92.0
441,81.2080231875,81.3240945,68.0,95.0
442,81.2080231875,81.3289021875,64.0,97.0
443,81.5376931875,81.63247331250001,59.0,95.0
444,81.5376931875,81.6434623125,68.0,99.0
445,81.5376931875,81.64552275,64.0,96.0
446,81.8673631875,82.262280375,52.0,64.0
447,82.1970331875,82.297994625,59.0,92.0
448,82.1970331875,82.3124176875,64.0,99.0
449,82.1970331875,82.317225375,68.0,99.0
450,82.5267031875,82.60156575,68.0,97.0
451,82.5267031875,82.61461518750001,64.0,97.0
452,82.5267031875,82.6338459375,59.0,92.0
453,82.8563731875,83.2574716875,42.0,72.0
454,83.1860431875,83.28288375000001,58.0,95.0
455,83.1860431875,83.30005406250001,54.0,90.0
456,83.1860431875,83.3021145,61.0,92.0
457,83.5157131875,83.6091196875,58.0,122.0
458,83.5157131875,83.61804825,54.0,99.0
459,83.5157131875,83.6420866875,61.0,100.0
460,83.8453831875,84.1640641875,47.0,92.0
461,84.1750531875,84.2670860625,66.0,102.0
462,84.1750531875,84.2684596875,59.0,90.0
463,84.1750531875,84.27189375,63.0,127.0
464,84.5047231875,84.6008769375,59.0,89.0
465,84.5047231875,84.6063714375,63.0,127.0
466,84.8343931875,85.3021125,59.0,92.0
467,84.8343931875,85.3234036875,52.0,82.0
468,84.8343931875,85.3247773125,64.0,97.0
469,84.8343931875,85.3302718125,68.0,107.0
470,85.8234031875,86.6750506875,59.0,85.0
471,85.8234031875,86.692221,52.0,90.0
472,85.8234031875,86.7203803125,40.0,76.0
473,85.8234031875,86.7203803125,56.0,93.0
474,86.8124131875,87.830956125,61.0,112.0
475,86.8124131875,87.833703375,57.0,95.0
476,86.8124131875,87.835077,52.0,97.0
477,86.97724818750001,87.993043875,45.0,97.0
478,88.1310931875,88.4099390625,54.0,127.0
479,88.1310931875,88.413373125,66.0,127.0
480,88.4607631875,88.7244991875,64.0,117.0
481,88.4607631875,88.72518600000001,52.0,100.0
482,88.7904331875,89.89757493750001,62.0,107.0
483,88.7904331875,89.90444306250001,50.0,95.0
484,88.7904331875,89.9126848125,57.0,97.0
485,88.7904331875,89.91474525000001,66.0,102.0
486,90.1091131875,90.2959261875,66.0,107.0
487,90.1091131875,90.311722875,62.0,112.0
488,90.1091131875,90.37559643750001,50.0,127.0
489,90.1091131875,90.38177775,57.0,100.0
490,90.43878318750001,90.616667625,64.0,92.0
491,90.43878318750001,90.6867225,61.0,127.0
492,90.43878318750001,90.70320600000001,49.0,107.0
493,90.7684531875,91.8185895,66.0,122.0
494,90.7684531875,91.83232575000001,62.0,127.0
495,90.7684531875,91.87628175,47.0,99.0
496,90.7684531875,91.8865839375,59.0,99.0
497,92.0871331875,92.344687875,47.0,127.0
498,92.0871331875,92.388643875,59.0,127.0
499,92.41680318750001,92.6722974375,57.0,117.0
500,92.41680318750001,92.68946775,45.0,100.0
501,92.7464731875,93.836444625,55.0,107.0
502,92.7464731875,93.84193912500001,59.0,127.0
503,92.7464731875,93.84331275000001,62.0,122.0
504,92.7464731875,93.894136875,43.0,99.0
505,94.0651531875,94.08301031250001,58.0,75.0
506,94.0651531875,94.29866943750001,43.0,127.0
507,94.0651531875,94.3439990625,55.0,127.0
508,94.39482318750001,94.637268,54.0,112.0
509,94.39482318750001,94.70045475,42.0,97.0
510,94.7244931875,94.927102875,56.0,96.0
511,94.7244931875,94.92916331250001,59.0,95.0
512,94.7244931875,94.9360314375,40.0,112.0
513,94.7244931875,94.9360314375,52.0,89.0
514,95.05416318750001,95.33300906250001,38.0,86.0
515,95.05416318750001,95.33300906250001,50.0,86.0
516,95.3838331875,95.5953714375,35.0,117.0
517,95.3838331875,95.5953714375,47.0,117.0
518,95.71350318750001,95.94495900000001,47.0,107.0
519,95.71350318750001,95.94495900000001,59.0,107.0
520,96.0431731875,96.23479387500001,45.0,102.0
521,96.0431731875,96.23479387500001,57.0,102.0
522,96.37284318750001,96.55828256250001,42.0,117.0
523,96.37284318750001,96.55828256250001,54.0,117.0
524,96.7025131875,96.9635019375,40.0,117.0
525,96.7025131875,96.9635019375,52.0,117.0
526,100.98822318750001,101.267755875,59.0,117.0
527,101.3178931875,101.6365741875,57.0,96.0
528,101.6475631875,102.34879875,56.0,112.0
529,102.6365731875,103.42984162500001,57.0,92.0
530,102.6365731875,103.4360229375,45.0,37.0
531,102.6365731875,103.44426468750001,64.0,92.0
532,102.6365731875,103.46418225000001,62.0,99.0
533,103.6255831875,105.616652625,45.0,53.0
534,105.6036031875,105.616652625,45.0,79.0
535,103.6255831875,105.652366875,57.0,83.0
536,103.6255831875,105.6571745625,64.0,79.0
537,103.6255831875,105.6612954375,61.0,95.0
538,105.9332731875,105.987531375,64.0,83.0
539,105.9332731875,106.0047016875,57.0,88.0
540,105.9332731875,106.01569068750001,61.0,107.0
541,106.2629431875,106.3549760625,57.0,86.0
542,106.2629431875,106.358410125,61.0,96.0
543,106.2629431875,106.35978375,64.0,86.0
544,106.9222831875,107.0163765,57.0,78.0
545,106.9222831875,107.017750125,64.0,77.0
546,106.9222831875,107.03011275,61.0,93.0
547,106.5926131875,107.0335468125,45.0,68.0
548,107.2519531875,107.32544212500001,64.0,85.0
549,107.2519531875,107.3302498125,57.0,92.0
550,107.2519531875,107.3302498125,61.0,100.0
551,107.91129318750001,108.001265625,64.0,81.0
552,107.91129318750001,108.00332606250001,57.0,82.0
553,107.91129318750001,108.00469968750001,61.0,97.0
554,107.5816231875,108.14412262500001,45.0,55.0
555,108.2409631875,108.319946625,61.0,102.0
556,108.2409631875,108.3302488125,57.0,92.0
557,108.2409631875,108.3329960625,64.0,89.0
558,108.9003031875,108.99302287500001,61.0,92.0
559,108.9003031875,109.00195143750001,57.0,78.0
560,108.9003031875,109.00195143750001,64.0,79.0
561,108.57063318750001,109.0129404375,45.0,66.0
562,109.22997318750001,109.3068961875,61.0,99.0
563,109.22997318750001,109.31925881250001,57.0,88.0
564,109.22997318750001,109.32131925,64.0,90.0
565,109.88931318750001,109.982032875,57.0,81.0
566,109.88931318750001,109.988901,66.0,83.0
567,109.88931318750001,109.9950823125,62.0,90.0
568,109.5596431875,110.01431306250001,50.0,66.0
569,110.2189831875,110.30895562500001,57.0,90.0
570,110.2189831875,110.31445012500001,66.0,95.0
571,110.2189831875,110.3192578125,62.0,97.0
572,110.54865318750001,110.98958681250001,50.0,66.0
573,110.8783231875,110.9937076875,66.0,89.0
574,110.8783231875,110.9950813125,57.0,79.0
575,110.8783231875,110.9992021875,62.0,92.0
576,111.20799318750001,111.29933925,66.0,85.0
577,111.20799318750001,111.30414693750001,62.0,96.0
578,111.20799318750001,111.3110150625,57.0,85.0
579,111.86733318750001,111.9483770625,57.0,75.0
580,111.86733318750001,111.97791000000001,64.0,78.0
581,111.86733318750001,111.9799704375,61.0,95.0
582,111.5376631875,111.9978275625,45.0,57.0
583,112.1970031875,112.28834925000001,64.0,86.0
584,112.1970031875,112.2890360625,57.0,93.0
585,112.1970031875,112.296591,61.0,112.0
586,112.8563431875,112.933953,64.0,88.0
587,112.8563431875,112.93876068750001,61.0,102.0
588,112.8563431875,112.94631562500001,57.0,86.0
589,112.52667318750001,112.9593650625,45.0,60.0
590,113.18601318750001,113.26911750000001,64.0,85.0
591,113.18601318750001,113.274612,61.0,102.0
592,113.18601318750001,113.28491418750001,57.0,90.0
593,113.84535318750001,113.9394465,61.0,102.0
594,113.84535318750001,113.94425418750001,57.0,90.0
595,113.84535318750001,113.9456278125,64.0,86.0
596,113.5156831875,113.9566168125,45.0,68.0
597,114.1750231875,114.25057256250001,61.0,117.0
598,114.1750231875,114.2711769375,64.0,88.0
599,114.1750231875,114.2725505625,57.0,93.0
600,114.50469318750001,114.824061,44.0,89.0
601,114.8343631875,114.9209015625,61.0,95.0
602,114.8343631875,114.92433562500001,64.0,85.0
603,114.8343631875,114.92845650000001,56.0,99.0
604,115.16403318750001,115.26087375,61.0,100.0
605,115.16403318750001,115.2684286875,64.0,89.0
606,115.16403318750001,115.27598362500001,56.0,99.0
607,115.4937031875,115.79590068750001,42.0,76.0
608,115.82337318750001,115.9263950625,57.0,78.0
609,115.82337318750001,115.93257637500001,66.0,72.0
610,115.82337318750001,115.9373840625,61.0,88.0
611,116.1530431875,116.262246375,61.0,112.0
612,116.1530431875,116.264993625,57.0,93.0
613,116.1530431875,116.27598262500001,66.0,92.0
614,116.48271318750001,116.8206249375,45.0,71.0
615,116.8123831875,116.9016688125,61.0,99.0
616,116.8123831875,116.9044160625,64.0,82.0
617,116.8123831875,116.90647650000001,57.0,85.0
618,117.14205318750001,117.2299651875,57.0,95.0
619,117.14205318750001,117.2313388125,61.0,107.0
620,117.14205318750001,117.25125637500001,64.0,88.0
621,117.80139318750001,117.89617331250001,59.0,89.0
622,117.80139318750001,117.896860125,63.0,112.0
623,117.80139318750001,117.90304143750001,66.0,107.0
624,117.4717231875,117.9195249375,47.0,68.0
625,118.1310631875,118.218288375,59.0,93.0
626,118.1310631875,118.22515650000001,63.0,122.0
627,118.1310631875,118.22927737500001,66.0,112.0
628,118.7904031875,118.8810624375,59.0,85.0
629,118.7904031875,118.88999100000001,66.0,99.0
630,118.7904031875,118.89136462500001,63.0,112.0
631,118.46073318750001,118.8975459375,51.0,99.0
632,119.12007318750001,119.21622693750001,59.0,93.0
633,119.12007318750001,119.22172143750001,66.0,100.0
634,119.12007318750001,119.22240825,63.0,117.0
635,119.4497431875,119.79520987500001,52.0,69.0
636,119.77941318750001,119.87556693750001,64.0,89.0
637,119.77941318750001,119.87968781250001,68.0,89.0
638,119.77941318750001,119.88380868750001,59.0,85.0
639,120.1090831875,120.19699518750001,68.0,93.0
640,120.1090831875,120.2024896875,64.0,96.0
641,120.1090831875,120.20317650000001,59.0,96.0
642,120.43875318750001,120.71553862500001,62.0,117.0
643,120.43875318750001,120.7395770625,50.0,122.0
644,120.7684231875,121.01910975000001,49.0,107.0
645,120.7684231875,121.08916462500001,61.0,127.0
646,121.09809318750001,121.38105993750001,47.0,85.0
647,121.09809318750001,121.38655443750001,59.0,107.0
648,121.4277631875,121.8425979375,45.0,90.0
649,121.75743318750001,121.84740562500001,64.0,90.0
650,121.75743318750001,121.85633418750001,57.0,90.0
651,121.75743318750001,121.86182868750001,61.0,107.0
652,122.0871031875,122.17501518750001,61.0,122.0
653,122.0871031875,122.17638881250001,57.0,95.0
654,122.0871031875,122.1805096875,64.0,97.0
655,122.4167731875,122.808943125,45.0,66.0
656,122.7464431875,122.8295475,64.0,95.0
657,122.7464431875,122.83778925,57.0,95.0
658,122.7464431875,122.839162875,61.0,117.0
659,123.0761131875,123.16471200000001,61.0,117.0
660,123.0761131875,123.17295375,64.0,95.0
661,123.0761131875,123.17364056250001,57.0,97.0
662,123.4057831875,123.80482125,45.0,61.0
663,123.7354531875,123.82405200000001,57.0,95.0
664,123.7354531875,123.83229375,61.0,107.0
665,123.7354531875,123.83298056250001,64.0,89.0
666,124.0651231875,124.1351780625,61.0,117.0
667,124.0651231875,124.15303518750001,57.0,97.0
668,124.0651231875,124.157842875,64.0,93.0
669,124.3947931875,124.8027598125,45.0,73.0
670,124.7244631875,124.81100156250001,57.0,93.0
671,124.7244631875,124.813062,61.0,107.0
672,124.7244631875,124.8192433125,64.0,90.0
673,125.0541331875,125.1365506875,61.0,112.0
674,125.0541331875,125.1461660625,57.0,90.0
675,125.0541331875,125.15646825,64.0,86.0
676,125.3838031875,125.71896768750001,50.0,78.0
677,125.7134731875,125.7945170625,62.0,97.0
678,125.7134731875,125.79657750000001,66.0,96.0
679,125.7134731875,125.808940125,57.0,86.0
680,126.04314318750001,126.122126625,62.0,100.0
681,126.04314318750001,126.13654968750001,57.0,90.0
682,126.04314318750001,126.15372,66.0,100.0
683,126.3728131875,126.72995568750001,50.0,81.0
684,126.70248318750001,126.79039518750001,62.0,112.0
685,126.70248318750001,126.795202875,66.0,96.0
686,126.70248318750001,126.79588968750001,57.0,86.0
687,127.0321531875,127.09602675000001,62.0,107.0
688,127.0321531875,127.1145706875,57.0,96.0
689,127.0321531875,127.13242781250001,66.0,107.0
690,127.36182318750001,127.734762375,45.0,72.0
691,127.6914931875,127.77185025,57.0,96.0
692,127.6914931875,127.77185025,64.0,95.0
693,127.6914931875,127.7739106875,61.0,122.0
694,128.0211631875,128.097399375,61.0,127.0
695,128.0211631875,128.09945981250002,57.0,96.0
696,128.0211631875,128.1090751875,64.0,97.0
697,128.3508331875,128.7066020625,52.0,73.0
698,128.6805031875,128.7642943125,57.0,93.0
699,128.6805031875,128.7656679375,61.0,112.0
700,128.6805031875,128.76635475,64.0,90.0
701,129.01017318750002,129.0802280625,61.0,117.0
702,129.01017318750002,129.09053025,57.0,96.0
703,129.01017318750002,129.09945881250002,64.0,95.0
704,129.3398431875,129.688057125,45.0,75.0
705,129.6695131875,129.7505570625,61.0,112.0
706,129.6695131875,129.7526175,57.0,95.0
707,129.6695131875,129.756738375,64.0,92.0
708,129.9991831875,130.069924875,61.0,122.0
709,129.9991831875,130.080913875,57.0,99.0
710,129.9991831875,130.087782,64.0,95.0
711,130.32885318750002,130.670199,49.0,92.0
712,130.6585231875,130.7196495,64.0,88.0
713,130.6585231875,130.72789125,68.0,95.0
714,130.6585231875,130.73888025,61.0,97.0
715,130.9881931875,131.04451181250002,68.0,100.0
716,130.9881931875,131.05275356250002,64.0,107.0
717,130.9881931875,131.08503375,61.0,122.0
718,131.3178631875,131.703165,50.0,63.0
719,131.64753318750002,131.73681881250002,62.0,97.0
720,131.64753318750002,131.7478078125,57.0,95.0
721,131.64753318750002,131.7478078125,66.0,96.0
722,131.9772031875,132.0486316875,62.0,97.0
723,131.9772031875,132.07129650000002,57.0,97.0
724,131.9772031875,132.078164625,66.0,97.0
725,132.3068731875,132.6736310625,51.0,72.0
726,132.6365431875,132.7526145,69.0,86.0
727,132.6365431875,132.7546749375,63.0,112.0
728,132.6365431875,132.756735375,66.0,107.0
729,132.96621318750002,133.0493175,69.0,85.0
730,132.96621318750002,133.06099331250002,63.0,117.0
731,132.96621318750002,133.075416375,66.0,107.0
732,133.6255531875,133.7148388125,59.0,95.0
733,133.6255531875,133.7175860625,68.0,100.0
734,133.6255531875,133.7299486875,64.0,99.0
735,133.2958831875,133.7546739375,52.0,76.0
736,133.9552231875,134.04107475,68.0,102.0
737,133.9552231875,134.0417615625,59.0,96.0
738,133.9552231875,134.0513769375,64.0,100.0
739,134.28489318750002,134.6626400625,52.0,76.0
740,134.6145631875,134.7024751875,59.0,89.0
741,134.6145631875,134.70865650000002,68.0,100.0
742,134.6145631875,134.7148378125,64.0,97.0
743,134.9442331875,135.02733750000002,68.0,100.0
744,134.9442331875,135.0293979375,59.0,96.0
745,134.9442331875,135.03557925,64.0,97.0
746,135.2739031875,135.516348,57.0,112.0
747,135.2739031875,135.5239029375,45.0,100.0
748,135.60357318750002,135.84052350000002,52.0,102.0
749,135.60357318750002,135.84601800000002,64.0,99.0
750,135.9332431875,136.160578125,49.0,93.0
751,135.9332431875,136.1928583125,61.0,112.0
752,136.2629131875,136.5719788125,57.0,122.0
753,136.2629131875,136.6049458125,45.0,93.0
754,137.2519231875,137.6530216875,45.0,74.0
755,137.5815931875,137.70178537500001,57.0,86.0
756,137.5815931875,137.71140075,61.0,93.0
757,137.5815931875,137.712774375,64.0,85.0
758,137.9112631875,138.0046696875,61.0,112.0
759,137.9112631875,138.00673012500002,57.0,96.0
760,137.9112631875,138.0211531875,64.0,93.0
761,138.24093318750002,138.67568550000001,45.0,70.0
762,138.5706031875,138.67568550000001,64.0,93.0
763,138.5706031875,138.68118,57.0,93.0
764,138.5706031875,138.6866745,61.0,117.0
765,138.5706031875,138.690795375,67.0,89.0
766,138.9002731875,139.02046537500001,57.0,100.0
767,138.9002731875,139.028707125,67.0,92.0
768,138.9002731875,139.03351481250002,64.0,93.0
769,138.9002731875,139.034201625,61.0,122.0
770,139.2299431875,139.6708768125,50.0,85.0
771,139.55961318750002,139.68117900000001,57.0,95.0
772,139.55961318750002,139.7038438125,62.0,100.0
773,139.55961318750002,139.71139875,66.0,99.0
774,139.8892831875,140.00741493750002,57.0,90.0
775,139.8892831875,140.01496987500002,62.0,97.0
776,139.8892831875,140.02046437500002,66.0,97.0
777,140.2189531875,140.6200516875,50.0,74.0
778,140.5486231875,140.674309875,57.0,88.0
779,140.5486231875,140.6818648125,62.0,97.0
780,140.5486231875,140.68941975,66.0,92.0
781,140.87829318750002,140.9744469375,57.0,100.0
782,140.87829318750002,140.97856781250002,62.0,102.0
783,140.87829318750002,140.9854359375,66.0,107.0
784,141.5376331875,141.6379078125,64.0,107.0
785,141.2079631875,141.6488968125,49.0,86.0
786,141.5376331875,141.6502704375,61.0,117.0
787,141.5376331875,141.6571385625,68.0,117.0
788,141.8673031875,141.982000875,64.0,100.0
789,141.8673031875,142.0019184375,61.0,107.0
790,141.8673031875,142.006726125,68.0,112.0
791,142.5266431875,142.627604625,64.0,102.0
792,142.5266431875,142.6282914375,61.0,112.0
793,142.5266431875,142.6337859375,68.0,107.0
794,142.19697318750002,142.6626320625,49.0,100.0
795,142.8563131875,142.9359834375,64.0,112.0
796,142.8563131875,142.9538405625,68.0,117.0
797,142.8563131875,142.96826362500002,61.0,117.0
798,143.5156531875,143.6200486875,61.0,127.0
799,143.5156531875,143.6296640625,66.0,99.0
800,143.5156531875,143.6337849375,57.0,96.0
801,143.1859831875,143.68460906250002,42.0,96.0
802,143.84532318750001,143.9497186875,61.0,127.0
803,143.84532318750001,143.9538395625,57.0,100.0
804,143.84532318750001,143.960020875,66.0,112.0
805,144.5046631875,144.6227949375,61.0,122.0
806,144.5046631875,144.633097125,66.0,99.0
807,144.5046631875,144.635844375,57.0,96.0
808,144.1749931875,144.655075125,54.0,81.0
809,144.8343331875,144.9304869375,66.0,100.0
810,144.8343331875,144.9442231875,61.0,127.0
811,144.8343331875,144.95315175000002,57.0,99.0
812,145.4936731875,145.5966950625,64.0,93.0
813,145.4936731875,145.60081593750002,57.0,93.0
814,145.4936731875,145.6118049375,61.0,117.0
815,145.16400318750001,145.90850793750002,45.0,78.0
816,145.8233431875,145.91674968750002,61.0,117.0
817,145.8233431875,145.9277386875,57.0,97.0
818,145.8233431875,145.938040875,64.0,97.0
819,146.48268318750002,146.60356218750002,57.0,90.0
820,146.48268318750002,146.6104303125,61.0,107.0
821,146.48268318750002,146.611117125,64.0,92.0
822,146.8123531875,146.910567375,61.0,117.0
823,146.8123531875,146.91468825,57.0,93.0
824,146.8123531875,146.9277376875,64.0,89.0
825,146.1530131875,146.9346058125,52.0,67.0
826,147.4716931875,147.586390875,57.0,93.0
827,147.4716931875,147.59600625000002,62.0,107.0
828,147.4716931875,147.597379875,66.0,102.0
829,147.1420231875,147.6955940625,50.0,95.0
830,147.80136318750002,147.9098795625,57.0,96.0
831,147.80136318750002,147.9174345,62.0,117.0
832,147.80136318750002,147.921555375,66.0,117.0
833,148.4607031875,148.57746131250002,57.0,92.0
834,148.4607031875,148.59325800000002,66.0,96.0
835,148.4607031875,148.5980656875,62.0,97.0
836,148.1310331875,148.63309312500002,50.0,73.0
837,148.7903731875,148.88721375,62.0,102.0
838,148.7903731875,148.8954555,57.0,99.0
839,148.7903731875,148.902323625,66.0,102.0
840,149.4497131875,149.57539987500002,59.0,95.0
841,149.4497131875,149.57814712500002,63.0,112.0
842,149.12004318750002,149.57952075,47.0,90.0
843,149.4497131875,149.59394381250002,66.0,99.0
844,149.7793831875,149.88171825,63.0,117.0
845,149.7793831875,149.88583912500002,69.0,93.0
846,149.7793831875,149.8920204375,59.0,100.0
847,149.7793831875,149.8933940625,66.0,107.0
848,150.43872318750002,150.5417450625,63.0,122.0
849,150.43872318750002,150.5431186875,69.0,85.0
850,150.43872318750002,150.547926375,66.0,99.0
851,150.43872318750002,150.5486131875,59.0,97.0
852,150.1090531875,150.61798125,54.0,63.0
853,150.7683931875,150.8185305,69.0,65.0
854,150.7683931875,150.872101875,63.0,117.0
855,150.7683931875,150.88171725,59.0,97.0
856,150.7683931875,150.89407987500002,66.0,99.0
857,151.0980631875,151.4922935625,52.0,83.0
858,151.4277331875,151.528694625,59.0,99.0
859,151.4277331875,151.53899681250002,68.0,102.0
860,151.4277331875,151.54655175000002,64.0,100.0
861,151.75740318750002,151.85424375,59.0,97.0
862,151.75740318750002,151.866606375,68.0,122.0
863,151.75740318750002,151.869353625,64.0,100.0
864,152.0870731875,152.3247103125,62.0,107.0
865,152.0870731875,152.3755344375,50.0,85.0
866,152.4167431875,152.6749846875,49.0,100.0
867,152.4167431875,152.71138575,61.0,122.0
868,152.7464131875,153.0032810625,59.0,100.0
869,152.7464131875,153.003967875,47.0,92.0
870,153.07608318750002,153.49435200000002,45.0,89.0
871,153.4057531875,153.5108355,57.0,93.0
872,153.4057531875,153.51564318750002,64.0,95.0
873,153.4057531875,153.523198125,61.0,122.0
874,153.7354231875,153.83707143750001,57.0,90.0
875,153.7354231875,153.84874725,61.0,117.0
876,153.7354231875,153.856989,64.0,96.0
877,154.39476318750002,154.5060268125,57.0,92.0
878,154.39476318750002,154.51358175000001,61.0,102.0
879,154.0650931875,154.51838943750002,45.0,73.0
880,154.39476318750002,154.5197630625,64.0,88.0
881,154.7244331875,154.8137188125,61.0,117.0
882,154.7244331875,154.822647375,64.0,93.0
883,154.7244331875,154.830889125,57.0,96.0
884,155.0541031875,155.4785533125,49.0,75.0
885,155.3837731875,155.4881686875,64.0,66.0
886,155.3837731875,155.4888555,61.0,88.0
887,155.3837731875,155.49709725,56.0,99.0
888,155.71344318750002,155.80272881250002,61.0,88.0
889,155.71344318750002,155.8178386875,64.0,85.0
890,155.71344318750002,155.8315749375,56.0,99.0
891,156.3727831875,156.49022812500002,61.0,107.0
892,156.3727831875,156.498469875,57.0,90.0
893,156.0431131875,156.5568489375,42.0,83.0
894,156.7024531875,156.77182125000002,66.0,102.0
895,156.7024531875,156.79242562500002,61.0,127.0
896,156.7024531875,156.811656375,57.0,95.0
897,157.03212318750002,157.42978762500002,50.0,92.0
898,157.3617931875,157.476490875,66.0,93.0
899,157.3617931875,157.4812985625,57.0,90.0
900,157.3617931875,157.4881666875,62.0,97.0
901,157.6914631875,157.7965455,57.0,95.0
902,157.6914631875,157.79929275,62.0,100.0
903,157.6914631875,157.79929275,66.0,100.0
904,158.0211331875,158.4290998125,50.0,76.0
905,158.35080318750002,158.454511875,57.0,92.0
906,158.35080318750002,158.454511875,62.0,100.0
907,158.35080318750002,158.4606931875,66.0,97.0
908,158.6804731875,158.7711324375,66.0,97.0
909,158.6804731875,158.78006100000002,57.0,95.0
910,158.6804731875,158.784181875,62.0,99.0
911,159.3398131875,159.4387141875,61.0,107.0
912,159.3398131875,159.4400878125,57.0,95.0
913,159.3398131875,159.44077462500002,64.0,93.0
914,159.0101431875,159.74571937500002,45.0,71.0
915,159.66948318750002,159.762202875,61.0,122.0
916,159.66948318750002,159.767697375,57.0,100.0
917,159.66948318750002,159.769071,64.0,97.0
918,159.9991531875,160.424290125,52.0,65.0
919,160.3288231875,160.427037375,61.0,107.0
920,160.3288231875,160.4318450625,57.0,96.0
921,160.3288231875,160.4318450625,64.0,93.0
922,160.6584931875,160.7258008125,61.0,117.0
923,160.6584931875,160.7518996875,64.0,99.0
924,160.6584931875,160.7601414375,57.0,95.0
925,160.98816318750002,161.363849625,52.0,69.0
926,161.3178331875,161.4181078125,59.0,92.0
927,161.3178331875,161.4339045,68.0,95.0
928,161.3178331875,161.43871218750002,64.0,97.0
929,161.6475031875,161.7422833125,59.0,95.0
930,161.6475031875,161.7532723125,68.0,99.0
931,161.6475031875,161.75533275,64.0,96.0
932,161.9771731875,162.372090375,52.0,64.0
933,162.30684318750002,162.407804625,59.0,92.0
934,162.30684318750002,162.4222276875,64.0,99.0
935,162.30684318750002,162.427035375,68.0,99.0
936,162.63651318750001,162.71137575,68.0,97.0
937,162.63651318750001,162.7244251875,64.0,97.0
938,162.63651318750001,162.7436559375,59.0,92.0
939,162.9661831875,163.3672816875,42.0,72.0
940,163.2958531875,163.39269375,58.0,95.0
941,163.2958531875,163.40986406250002,54.0,90.0
942,163.2958531875,163.4119245,61.0,92.0
943,163.6255231875,163.7189296875,58.0,122.0
944,163.6255231875,163.72785825,54.0,99.0
945,163.6255231875,163.75189668750002,61.0,100.0
946,163.95519318750002,164.2738741875,47.0,92.0
947,164.2848631875,164.3768960625,66.0,102.0
948,164.2848631875,164.3782696875,59.0,90.0
949,164.2848631875,164.38170375,63.0,127.0
950,164.6145331875,164.71068693750001,59.0,89.0
951,164.6145331875,164.7161814375,63.0,127.0
952,164.9442031875,166.60188480833335,52.0,96.0
953,164.9442031875,166.63986826666667,59.0,96.0
954,164.9442031875,166.65782408333334,64.0,95.0
955,164.9442031875,166.68130476666667,68.0,95.0
956,164.9442031875,166.681995375,40.0,86.0
957,166.926470725,167.09428855000002,57.0,102.0
958,166.926470725,167.11017254166669,45.0,97.0
959,167.257962725,167.43337724166668,40.0,100.0
960,167.257962725,167.45892975,52.0,107.0
961,167.589454725,167.784206275,37.0,127.0
962,167.589454725,167.784206275,49.0,117.0
963,167.92094672500002,168.23033925833334,33.0,102.0
964,167.92094672500002,168.28282549166667,45.0,112.0
965,168.915422725,169.24553350833335,45.0,99.0
966,169.246914725,169.33531259166668,64.0,79.0
967,169.246914725,169.34359989166668,57.0,86.0
968,169.246914725,169.35188719166666,61.0,95.0
969,169.578406725,169.68821345,61.0,99.0
970,169.578406725,169.6923571,57.0,93.0
971,169.578406725,169.6923571,64.0,89.0
972,169.909898725,170.24346255,45.0,86.0
973,170.241390725,170.34221954166668,64.0,82.0
974,170.241390725,170.34567258333334,57.0,83.0
975,170.241390725,170.3505068416667,61.0,99.0
976,170.572882725,170.66266180833335,61.0,100.0
977,170.572882725,170.6785458,64.0,92.0
978,170.572882725,170.67923640833334,57.0,90.0
979,170.904374725,171.21238604166666,45.0,88.0
980,171.23586672500002,171.3221927666667,64.0,88.0
981,171.23586672500002,171.33048006666667,61.0,107.0
982,171.23586672500002,171.335314325,57.0,89.0
983,171.56735872500002,171.65092233333334,61.0,107.0
984,171.56735872500002,171.65299415833334,57.0,93.0
985,171.56735872500002,171.65299415833334,64.0,89.0
986,171.89885072500002,172.213768125,45.0,90.0
987,172.230342725,172.3194312,57.0,89.0
988,172.230342725,172.32357485,64.0,88.0
989,172.230342725,172.329790325,61.0,107.0
990,172.561834725,172.64539833333333,61.0,107.0
991,172.561834725,172.661282325,64.0,96.0
992,172.561834725,172.6626635416667,57.0,97.0
993,172.893326725,173.16749823333333,45.0,89.0
994,173.224818725,173.32357571666668,64.0,76.0
995,173.224818725,173.328409975,57.0,85.0
996,173.224818725,173.33945970833335,61.0,92.0
997,173.556310725,173.64263676666667,61.0,112.0
998,173.556310725,173.6453992,64.0,89.0
999,173.556310725,173.64608980833333,57.0,93.0
1000,173.887802725,174.14678085,50.0,100.0
1001,174.219294725,174.306311375,62.0,93.0
1002,174.219294725,174.31252685,66.0,92.0
1003,174.219294725,174.31943293333333,57.0,85.0
1004,174.55078672500002,174.6350409416667,62.0,100.0
1005,174.55078672500002,174.6481625,57.0,92.0
1006,174.55078672500002,174.65644980000002,66.0,99.0
1007,174.88227872500002,175.12271398125003,45.0,88.0
1008,175.21438055625,175.31576934375002,64.0,79.0
1009,175.21438055625,175.326186,57.0,83.0
1010,175.21438055625,175.32757488750002,61.0,93.0
1011,175.54771355625002,175.65674122500002,57.0,86.0
1012,175.54771355625002,175.65674122500002,64.0,86.0
1013,175.54771355625002,175.65813011250003,61.0,99.0
1014,175.88104655625003,176.05604638125,45.0,93.0
1015,176.21437955625,176.31299056875002,64.0,82.0
1016,176.21437955625,176.31993500625,61.0,97.0
1017,176.21437955625,176.32410166875002,57.0,82.0
1018,176.54771255625002,176.6609068875,61.0,107.0
1019,176.54771255625002,176.66299021875002,57.0,93.0
1020,176.54771255625002,176.66924021250003,64.0,93.0
1021,176.88104555625003,177.06160093125,45.0,76.0
1022,177.21437855625,177.30882290625001,64.0,90.0
1023,177.21437855625,177.31298956875003,61.0,107.0
1024,177.21437855625,177.31507290000002,57.0,93.0
1025,177.54771155625002,177.65465589375003,57.0,95.0
1026,177.54771155625002,177.65743366875003,61.0,112.0
1027,177.54771155625002,177.66437810625,64.0,95.0
1028,177.88104455625003,178.12340542500002,45.0,82.0
1029,178.21437755625,178.32409966875002,64.0,79.0
1030,178.21437755625,178.33937743125003,61.0,93.0
1031,178.21437755625,178.34146076250002,57.0,85.0
1032,178.54771055625002,178.67201598750003,61.0,117.0
1033,178.54771055625002,178.68312708750003,64.0,93.0
1034,178.54771055625002,178.68382153125003,57.0,99.0
1035,178.88104355625,179.63034836250003,57.0,107.0
1036,178.88104355625,179.65395945000003,64.0,112.0
1037,178.88104355625,179.68590386250003,45.0,95.0
1038,178.88104355625,179.75465379375,61.0,127.0
1039,179.88104255625,180.87062490000002,56.0,102.0
1040,179.88104255625,180.89909709375002,61.0,112.0
1041,180.88104155625,180.89909709375002,61.0,102.0
1042,179.88104255625,180.90604153125003,64.0,95.0
1043,180.88104155625,180.90604153125003,64.0,89.0
1044,180.54770855625003,180.91854151875003,50.0,117.0
1045,179.88104255625,180.92826373125,44.0,100.0
1046,180.88104155625,181.82965171875003,56.0,99.0
1047,180.88104155625,181.85465169375001,49.0,90.0
1048,181.88104055625,182.82895627500002,52.0,83.0
1049,181.88104055625,182.84076181875002,57.0,92.0
1050,181.88104055625,182.85048403125,45.0,86.0
1051,181.88104055625,182.85603958125003,61.0,82.0
1052,183.21437255625003,183.47201118750002,62.0,107.0
1053,183.21437255625003,183.49006672500002,50.0,100.0
1054,183.54770555625,183.77826088125002,49.0,92.0
1055,183.54770555625,183.81714973125003,61.0,107.0
1056,183.88103855625002,186.76191937500002,59.0,99.0
1057,183.88103855625002,186.7735951875,47.0,96.0
1058,186.86150718750002,187.05381468750002,47.0,112.0
1059,186.86150718750002,187.0606828125,35.0,107.0
1060,187.8505171875,188.0180994375,61.0,122.0
1061,187.8505171875,188.07785212500002,57.0,107.0
1062,188.18018718750002,188.3477694375,62.0,92.0
1063,188.18018718750002,188.38073643750002,59.0,99.0
1064,188.50985718750002,188.71796137500002,64.0,96.0
1065,188.50985718750002,188.76947231250003,61.0,127.0
1066,188.8395271875,189.0105435,64.0,122.0
1067,188.8395271875,189.06823575,61.0,127.0
1068,188.8395271875,189.08815331250003,49.0,127.0
1069,189.1691971875,189.38554312500003,59.0,99.0
1070,189.1691971875,189.389664,62.0,99.0
1071,189.1691971875,189.41026837500002,47.0,96.0
1072,189.49886718750003,191.053123875,57.0,97.0
1073,189.49886718750003,191.0538106875,61.0,112.0
1074,189.49886718750003,191.069607375,45.0,95.0
1075,191.14721718750002,191.29694231250002,61.0,122.0
1076,191.14721718750002,191.334717,57.0,99.0
1077,191.14721718750002,191.385541125,45.0,117.0
1078,191.4768871875,191.62867275000002,59.0,92.0
1079,191.4768871875,191.65271118750002,56.0,127.0
1080,191.4768871875,191.70971662500003,44.0,102.0
1081,191.8065571875,193.02427575000002,54.0,112.0
1082,191.8065571875,193.03526475,42.0,117.0
1083,191.8065571875,193.04075925,57.0,97.0
1084,193.1252371875,193.356693,57.0,100.0
1085,193.1252371875,193.3587534375,42.0,117.0
1086,193.1252371875,193.3697424375,54.0,127.0
1087,193.45490718750003,193.66713225,52.0,93.0
1088,193.45490718750003,193.66850587500002,56.0,122.0
1089,193.45490718750003,193.69735200000002,40.0,100.0
1090,193.78457718750002,194.92193868750002,50.0,99.0
1091,193.78457718750002,194.9466639375,54.0,102.0
1092,193.78457718750002,194.94803756250002,57.0,97.0
1093,193.78457718750002,194.97963093750002,38.0,95.0
1094,195.10325718750002,195.2941910625,54.0,127.0
1095,195.10325718750002,195.31822950000003,50.0,97.0
1096,195.10325718750002,195.33952068750003,38.0,122.0
1097,195.4329271875,195.63965775000003,52.0,90.0
1098,195.4329271875,195.66850387500003,49.0,107.0
1099,195.4329271875,195.69048187500002,37.0,112.0
1100,195.7625971875,195.96177281250002,59.0,122.0
1101,195.7625971875,195.962459625,47.0,127.0
1102,196.09226718750003,196.27427250000002,57.0,112.0
1103,196.09226718750003,196.30380543750002,45.0,117.0
1104,196.42193718750002,196.63416225000003,42.0,122.0
1105,196.42193718750002,196.6362226875,54.0,127.0
1106,196.7516071875,196.95009600000003,57.0,102.0
1107,196.7516071875,196.96451906250002,45.0,99.0
1108,197.0812771875,197.3051780625,54.0,127.0
1109,197.0812771875,197.32166156250003,42.0,117.0
1110,197.41094718750003,197.58745800000003,62.0,117.0
1111,197.41094718750003,197.63759531250003,50.0,102.0
1112,197.74061718750002,198.00229275,45.0,107.0
1113,197.74061718750002,198.03045206250002,57.0,107.0
1114,198.0702871875,198.14789700000003,45.0,127.0
1115,198.0702871875,198.14789700000003,57.0,127.0
1116,198.18017718750002,198.25435293750002,45.0,102.0
1117,198.18017718750002,198.25435293750002,57.0,102.0
1118,198.29006718750003,198.3601220625,45.0,107.0
1119,198.29006718750003,198.3601220625,57.0,107.0
1120,198.3999571875,198.47001206250002,45.0,127.0
1121,198.3999571875,198.47001206250002,57.0,127.0
1122,198.50984718750001,198.57715481250003,45.0,127.0
1123,198.50984718750001,198.57715481250003,57.0,127.0
1124,198.61973718750002,198.66231956250002,45.0,97.0
1125,198.61973718750002,198.66231956250002,57.0,97.0
1126,198.72962718750003,198.80998425,45.0,127.0
1127,198.72962718750003,198.80998425,57.0,127.0
