,start,end,pitch,velocity
0,8.961694145833334,9.441532887500001,70.0,92.0
1,9.445565145833333,9.9254038875,73.0,98.0
2,9.929436145833334,10.6512103875,73.0,94.0
3,10.655242645833335,10.893145887500001,73.0,80.0
4,10.897178145833333,11.3770168875,73.0,91.0
5,11.381049145833334,11.8608878875,75.0,80.0
6,11.864920145833334,12.1028233875,73.0,83.0
7,12.106855645833335,12.8286298875,70.0,83.0
8,12.832662145833334,13.3125008875,70.0,91.0
9,13.316533145833334,13.796371887500001,68.0,85.0
10,13.800404145833333,14.5221783875,66.0,66.0
11,14.526210645833334,14.7641138875,66.0,77.0
12,14.768146145833335,15.247984887500001,68.0,70.0
13,15.252017145833333,15.7318558875,63.0,70.0
14,15.735888145833334,16.6995978875,61.0,63.0
15,16.703630145833333,17.183468887500002,61.0,78.0
16,17.187501145833334,17.667339887500003,63.0,78.0
17,17.671372145833335,18.3931463875,66.0,70.0
18,18.397178645833336,18.6350818875,66.0,67.0
19,18.639114145833336,19.1189528875,66.0,83.0
20,19.122985145833333,19.6028238875,68.0,82.0
21,19.606856145833333,20.086694887500002,70.0,82.0
22,20.090727145833334,20.328630387500002,70.0,86.0
23,20.332662645833334,20.570565887500003,70.0,99.0
24,20.574598145833335,21.0544368875,68.0,87.0
25,21.058469145833335,21.5383078875,70.0,78.0
26,21.542340145833336,23.473791887500003,68.0,82.0
27,24.445566145833336,24.93649359791667,70.0,80.0
28,24.929437145833333,25.317542010416666,73.0,86.0
29,25.413308145833334,26.22782432916667,73.0,77.0
30,26.381050145833335,26.868953404166668,73.0,84.0
31,26.864921145833335,27.417340537500003,75.0,77.0
32,27.348792145833336,27.692542168750002,73.0,79.0
33,27.590727645833336,28.163308329166668,70.0,82.0
34,28.316534145833334,28.7903245,70.0,81.0
35,28.800405145833334,29.314518083333336,68.0,81.0
36,29.284276145833335,29.388106797916667,66.0,66.0
37,30.010082645833336,30.316534279166667,66.0,77.0
38,30.252018145833336,30.748993985416668,68.0,83.0
39,30.735889145833333,31.226816597916667,63.0,70.0
40,31.219760145833334,32.00403439166667,61.0,76.0
41,32.187502145833335,32.72984089166667,61.0,80.0
42,32.671373145833336,33.18548608333334,63.0,70.0
43,33.155244145833336,34.04939743125,66.0,77.0
44,34.60685714583334,34.826615225000005,68.0,82.0
45,35.09072814583333,35.356857195833335,70.0,86.0
46,35.57459914583333,35.69859108958334,70.0,81.0
47,35.816534645833336,35.990929818750004,70.0,78.0
48,36.05847014583333,36.45463952708334,68.0,80.0
49,36.54234114583333,36.786292775,66.0,67.0
50,36.78427664583334,37.07459924583333,68.0,74.0
51,37.026212145833334,38.08467995833333,66.0,70.0
52,39.92943814583334,40.4455672125,70.0,80.0
53,40.41330914583334,40.95564789166667,73.0,87.0
54,40.89718014583334,41.213712425000004,75.0,79.0
55,41.38105114583333,41.48488179791667,75.0,80.0
56,41.622986645833336,41.72883342708334,75.0,80.0
57,41.86492214583333,42.381051212500005,75.0,80.0
58,42.34879314583333,42.913309312500004,73.0,83.0
59,42.832664145833334,43.64113194166667,70.0,84.0
60,43.800406145833335,44.3286319875,68.0,85.0
61,44.284277145833336,44.69859168958334,70.0,84.0
62,44.76814814583334,44.88205944375,66.0,66.0
63,45.01008364583333,45.12298687916667,66.0,69.0
64,45.25201914583334,45.35584979791667,66.0,65.0
65,45.493954645833334,45.60786594375,66.0,69.0
66,45.73589014583334,46.288309537500005,66.0,77.0
67,46.21976114583334,46.69758375833334,68.0,81.0
68,46.70363214583334,47.302422508333336,70.0,86.0
69,47.67137414583333,48.07560804375,70.0,77.0
70,48.155245145833334,48.568551625000005,73.0,82.0
71,48.639116145833334,48.75907583125,75.0,77.0
72,48.88105164583334,48.98689842708333,75.0,69.0
73,49.122987145833335,49.21774521666667,75.0,65.0
74,49.36492264583334,49.47177749166667,75.0,65.0
75,49.606858145833336,50.06955978958334,75.0,66.0
76,50.090729145833336,50.62701950416667,73.0,77.0
77,50.57460014583334,50.694559831250004,70.0,67.0
78,50.81653564583333,50.899196941666666,70.0,56.0
79,51.05847114583334,51.133067925000006,70.0,48.0
80,51.300406645833334,51.37701955416667,70.0,36.0
81,51.54234214583334,51.78830990416667,68.0,90.0
82,51.784277645833335,52.0463744375,66.0,66.0
83,52.02621314583334,52.521172856250004,70.0,81.0
84,52.51008414583334,54.41028588541667,68.0,83.0
85,55.413310145833336,55.83468114166667,70.0,83.0
86,55.897181145833336,56.275205364583336,73.0,83.0
87,56.38105214583334,56.955648958333335,73.0,84.0
88,57.106858645833334,57.21371349166667,73.0,88.0
89,57.34879414583334,57.86693934166667,73.0,83.0
90,57.83266514583334,58.342745825,75.0,77.0
91,58.31653614583334,58.56855229166667,73.0,77.0
92,58.558471645833336,59.090729745833336,70.0,74.0
93,59.28427814583333,59.7399233375,70.0,84.0
94,59.768149145833334,60.24395562916667,68.0,76.0
95,60.252020145833335,60.8044395375,66.0,64.0
96,60.97782664583334,61.091737943750005,66.0,69.0
97,61.219762145833336,61.723794437500004,66.0,70.0
98,61.70363314583334,62.1955686625,63.0,67.0
99,62.18750414583334,62.9818590375,61.0,69.0
100,63.15524614583334,63.65524617916667,61.0,73.0
101,63.63911714583334,64.16835105208334,63.0,67.0
102,64.12298814583333,65.61089147083334,66.0,79.0
103,65.57460114583334,66.07661730833334,68.0,86.0
104,66.05847214583333,66.3447624875,70.0,81.0
105,66.54234314583334,66.65423831458334,70.0,77.0
106,66.78427864583334,66.90222220208334,70.0,78.0
107,67.02621414583334,67.45262546458333,68.0,72.0
108,67.51008514583333,67.78024645416667,66.0,61.0
109,67.75202064583334,68.04032711666667,68.0,64.0
110,67.99395614583334,70.03629499166667,66.0,66.0
111,78.63911814583334,79.1189568875,70.0,92.0
112,79.12298914583334,79.6028278875,73.0,98.0
113,79.60686014583334,80.3286343875,73.0,94.0
114,80.33266664583334,80.5705698875,73.0,80.0
115,80.57460214583334,81.05444088750001,73.0,91.0
116,81.05847314583333,81.5383118875,75.0,80.0
117,81.54234414583334,81.7802473875,73.0,83.0
118,81.78427964583334,82.5060538875,70.0,83.0
119,82.51008614583334,82.98992488750001,70.0,91.0
120,82.99395714583333,83.4737958875,68.0,85.0
121,83.47782814583334,84.19960238750001,66.0,66.0
122,84.20363464583333,84.4415378875,66.0,77.0
123,84.44557014583334,84.9254088875,68.0,70.0
124,84.92944114583334,85.4092798875,63.0,70.0
125,85.41331214583333,86.3770218875,61.0,63.0
126,86.38105414583333,86.8608928875,61.0,78.0
127,86.86492514583334,87.34476388750001,63.0,78.0
128,87.34879614583333,88.0705703875,66.0,70.0
129,88.07460264583334,88.31250588750001,66.0,67.0
130,88.31653814583333,88.7963768875,66.0,83.0
131,88.80040914583334,89.28024788750001,68.0,82.0
132,89.28428014583334,89.7641188875,70.0,82.0
133,89.76815114583334,90.0060543875,70.0,86.0
134,90.01008664583334,90.2479898875,70.0,99.0
135,90.25202214583334,90.7318608875,68.0,87.0
136,90.73589314583334,91.2157318875,70.0,78.0
137,91.21976414583334,93.1512158875,68.0,82.0
138,94.12299014583334,94.61391759791667,70.0,80.0
139,94.60686114583334,94.99496601041668,73.0,86.0
140,95.09073214583334,95.90524832916667,73.0,77.0
141,96.05847414583334,96.54637740416668,73.0,84.0
142,96.54234514583334,97.0947645375,75.0,77.0
143,97.02621614583333,97.36996616875001,73.0,79.0
144,97.26815164583334,97.84073232916667,70.0,82.0
145,97.99395814583333,98.4677485,70.0,81.0
146,98.47782914583334,98.99194208333334,68.0,81.0
147,98.96170014583333,99.06553079791667,66.0,66.0
148,99.68750664583334,99.99395827916668,66.0,77.0
149,99.92944214583333,100.42641798541668,68.0,83.0
150,100.41331314583334,100.90424059791667,63.0,70.0
151,100.89718414583334,101.68145839166667,61.0,76.0
152,101.86492614583334,102.40726489166667,61.0,80.0
153,102.34879714583334,102.86291008333333,63.0,70.0
154,102.83266814583334,103.72682143125,66.0,77.0
155,104.28428114583333,104.504039225,68.0,82.0
156,104.76815214583334,105.03428119583334,70.0,86.0
157,105.25202314583333,105.37601508958333,70.0,81.0
158,105.49395864583335,105.66835381875,70.0,78.0
159,105.73589414583334,106.13206352708333,68.0,80.0
160,106.21976514583334,106.46371677500001,66.0,67.0
161,106.46170064583333,106.75202324583334,68.0,74.0
162,106.70363614583334,107.76210395833334,66.0,70.0
163,109.60686214583333,109.60787021041668,70.0,80.0
164,110.09174121041667,110.63307189166667,73.0,87.0
165,110.57561221041666,110.891136425,75.0,79.0
166,111.05847514583334,111.16230579791667,75.0,80.0
167,111.30041064583334,111.40625742708333,75.0,80.0
168,111.54234614583333,112.0584752125,75.0,80.0
169,112.02621714583334,112.5907333125,73.0,83.0
170,112.51008814583334,113.31855594166667,70.0,84.0
171,113.47783014583334,114.0060559875,68.0,85.0
172,113.96170114583335,114.37601568958334,70.0,84.0
173,114.44557214583334,114.55948344375001,66.0,66.0
174,114.68750764583334,114.80041087916668,66.0,69.0
175,114.92944314583333,115.03327379791668,66.0,65.0
176,115.17137864583334,115.28528994375,66.0,69.0
177,115.41331414583334,115.9657335375,66.0,77.0
178,115.89718514583333,116.37500775833334,68.0,81.0
179,116.38105614583334,116.97984650833334,70.0,86.0
180,117.34879814583334,117.75303204375001,70.0,77.0
181,117.83266914583334,118.245975625,73.0,82.0
182,118.31654014583334,118.43649983125,75.0,77.0
183,118.55847564583334,118.66432242708333,75.0,69.0
184,118.80041114583334,118.89516921666667,75.0,65.0
185,119.04234664583333,119.14920149166667,75.0,65.0
186,119.28428214583334,119.74698378958334,75.0,66.0
187,119.76815314583334,120.30444350416667,73.0,77.0
188,120.25202414583335,120.37198383125,70.0,67.0
189,120.49395964583334,120.57662094166668,70.0,56.0
190,120.73589514583334,120.81049192500001,70.0,48.0
191,120.97783064583334,121.05444355416667,70.0,36.0
192,121.21976614583333,121.46573390416667,68.0,90.0
193,121.46170164583334,121.72379843750001,66.0,66.0
194,121.70363714583334,122.19859685625,70.0,81.0
195,122.18750814583333,124.08770988541667,68.0,83.0
196,125.09073414583334,125.51210514166667,70.0,83.0
197,125.57460514583335,125.95262936458334,73.0,83.0
198,126.05847614583334,126.63307295833334,73.0,84.0
199,126.78428264583334,126.89113749166667,73.0,88.0
200,127.02621814583334,127.54436334166667,73.0,83.0
201,127.51008914583333,128.020169825,75.0,77.0
202,127.99396014583334,128.24597629166666,73.0,77.0
203,128.23589564583335,128.76815374583333,70.0,74.0
204,128.96170214583333,129.41734733750002,70.0,84.0
205,129.44557314583335,129.92137962916667,68.0,76.0
206,129.92944414583334,130.4818635375,66.0,64.0
207,130.65525064583335,130.76916194375,66.0,69.0
208,130.89718614583333,131.4012184375,66.0,70.0
209,131.38105714583335,131.8729926625,63.0,67.0
210,131.86492814583335,132.65928303750002,61.0,69.0
211,132.83267014583333,133.33267017916668,61.0,73.0
212,133.31654114583333,133.84577505208333,63.0,67.0
213,133.80041214583335,135.28831547083334,66.0,79.0
214,135.25202514583333,135.75404130833334,68.0,86.0
215,135.73589614583335,136.0221864875,70.0,81.0
216,136.21976714583334,136.33166231458333,70.0,77.0
217,136.46170264583333,136.57964620208335,70.0,78.0
218,136.70363814583334,137.13004946458335,68.0,72.0
219,137.18750914583333,137.45767045416667,66.0,61.0
220,137.42944464583334,137.71775111666668,68.0,64.0
221,137.67138014583335,139.60686414583333,66.0,66.0
222,140.57561421041666,140.91129971666666,70.0,80.0
223,141.05847714583334,141.60081589166668,73.0,87.0
224,141.54234814583333,141.858880425,75.0,79.0
225,142.02621914583335,142.13004979791668,75.0,80.0
226,142.26815464583333,142.37400142708333,75.0,80.0
227,142.51009014583335,143.0262192125,75.0,80.0
228,142.99396114583334,143.5584773125,73.0,83.0
229,143.47783214583333,144.28629994166667,70.0,84.0
230,144.44557414583335,144.9737999875,68.0,85.0
231,144.92944514583334,145.34375968958335,70.0,84.0
232,145.41331614583333,145.52722744375,66.0,66.0
233,145.65525164583335,145.76815487916667,66.0,69.0
234,145.89718714583333,146.00101779791666,66.0,65.0
235,146.13912264583334,146.25303394375,66.0,69.0
236,146.38105814583335,146.9334775375,66.0,77.0
237,146.86492914583334,147.34275175833335,68.0,81.0
238,147.34880014583334,147.94759050833335,70.0,86.0
239,148.31654214583335,148.72077604375002,70.0,77.0
240,148.80041314583335,149.213719625,73.0,82.0
241,149.28428414583334,149.40424383125,75.0,77.0
242,149.52621964583335,149.63206642708334,75.0,69.0
243,149.76815514583333,149.86291321666667,75.0,65.0
244,150.01009064583334,150.11694549166668,75.0,65.0
245,150.25202614583333,150.71472778958335,75.0,66.0
246,150.73589714583335,151.27218750416668,73.0,77.0
247,151.21976814583334,151.33972783125,70.0,67.0
248,151.46170364583335,151.5443649416667,70.0,56.0
249,151.70363914583334,151.77823592500002,70.0,48.0
250,151.94557464583335,152.02218755416666,70.0,36.0
251,152.18751014583333,152.43347790416666,68.0,90.0
252,152.42944564583334,152.6915424375,66.0,66.0
253,152.67138114583335,153.16634085625,70.0,81.0
254,153.15525214583334,155.05545388541668,68.0,83.0
255,156.05847814583333,156.47984914166668,70.0,83.0
256,156.54234914583333,156.92037336458333,73.0,83.0
257,157.02622014583335,157.60081695833335,73.0,84.0
258,157.75202664583335,157.85888149166666,73.0,88.0
259,157.99396214583334,158.51210734166668,73.0,83.0
260,158.47783314583333,158.98791382500002,75.0,77.0
261,158.96170414583335,159.21372029166668,73.0,77.0
262,159.20363964583333,159.73589774583334,70.0,74.0
263,159.92944614583334,160.3850913375,70.0,84.0
264,160.41331714583333,160.88912362916668,68.0,76.0
265,160.89718814583335,161.44960753750001,66.0,64.0
266,161.62299464583333,161.73690594375,66.0,69.0
267,161.86493014583334,162.36896243750002,66.0,70.0
268,162.34880114583333,162.8407366625,63.0,67.0
269,162.83267214583333,163.6270270375,61.0,69.0
270,163.80041414583334,164.30041417916667,61.0,73.0
271,164.28428514583334,164.81351905208334,63.0,67.0
272,164.76815614583333,166.25605947083335,66.0,79.0
273,166.21976914583334,166.72178530833335,68.0,86.0
274,166.70364014583333,166.9899304875,70.0,81.0
275,167.18751114583335,167.29940631458334,70.0,77.0
276,167.42944664583334,167.54739020208333,70.0,78.0
277,167.67138214583335,168.09779346458333,68.0,72.0
278,168.15525314583334,168.42541445416668,66.0,61.0
279,168.39718864583335,168.6854951166667,68.0,64.0
280,168.63912414583334,170.57460814583334,66.0,66.0
281,171.54335821041667,172.11896308750002,61.0,82.0
282,172.02722921041666,172.50202762916666,63.0,78.0
283,172.51009214583334,172.80847926250001,61.0,74.0
284,172.51009214583334,172.87601958958334,66.0,69.0
285,173.23589864583334,173.30847929583334,66.0,76.0
286,173.47783414583336,173.98589869583333,66.0,78.0
287,173.96170514583335,174.47581808333334,68.0,86.0
288,174.44557614583334,174.7742052,70.0,90.0
289,174.92944714583334,175.47581815,70.0,84.0
290,175.41331814583333,175.6875117125,68.0,83.0
291,175.65525364583334,176.03327786458334,66.0,69.0
292,175.89718914583335,176.34476982083333,68.0,59.0
293,176.38106014583335,179.13610065208334,66.0,80.0
