,start,end,pitch,velocity
0,2.1875001458333334,2.34677435,61.0,72.0
1,2.1875001458333334,2.3598791895833333,58.0,58.0
2,2.1875001458333334,2.3598791895833333,66.0,66.0
3,2.1875001458333334,2.7137098583333334,42.0,64.0
4,2.1875001458333334,2.7348792145833336,54.0,63.0
5,2.6713711458333336,2.97278245625,66.0,69.0
6,2.6713711458333336,2.97580665,61.0,73.0
7,2.6713711458333336,2.986895360416667,58.0,64.0
8,2.9133066458333334,3.0282260083333337,54.0,60.0
9,2.9133066458333334,3.0433469770833335,42.0,66.0
10,3.1552421458333333,3.5060486208333335,54.0,72.0
11,3.1552421458333333,3.7026212145833335,66.0,66.0
12,3.1552421458333333,3.7137099250000003,58.0,62.0
13,3.1552421458333333,3.7187502479166668,61.0,69.0
14,3.6391131458333335,3.9112905833333333,54.0,48.0
15,3.1552421458333333,3.9546373604166667,42.0,67.0
16,3.8810486458333333,3.9929438145833336,58.0,66.0
17,3.8810486458333333,4.00100833125,61.0,75.0
18,3.8810486458333333,4.017137364583333,66.0,73.0
19,4.122984145833334,4.3991938416666665,54.0,64.0
20,4.122984145833334,4.66633095625,66.0,70.0
21,4.122984145833334,4.670363214583333,61.0,73.0
22,4.122984145833334,4.6935487,58.0,66.0
23,4.122984145833334,4.803427739583333,42.0,72.0
24,4.606855145833333,4.826613225,54.0,67.0
25,4.848790645833334,4.951613233333333,66.0,73.0
26,4.848790645833334,4.95665355625,58.0,64.0
27,4.848790645833334,4.95665355625,61.0,72.0
28,5.090726145833334,5.20161325,61.0,73.0
29,5.090726145833334,5.21673421875,58.0,64.0
30,5.090726145833334,5.252016479166667,66.0,73.0
31,5.090726145833334,5.272177770833333,54.0,67.0
32,5.332661645833333,5.412298747916667,58.0,44.0
33,5.332661645833333,5.418347135416667,61.0,53.0
34,5.332661645833333,5.442540685416667,66.0,46.0
35,5.332661645833333,5.524193916666667,54.0,49.0
36,5.574597145833334,5.828629420833334,61.0,75.0
37,5.574597145833334,5.866935875,68.0,80.0
38,5.090726145833334,5.941532654166667,42.0,75.0
39,5.816532645833334,5.96068588125,54.0,72.0
40,5.574597145833334,5.970766527083334,58.0,67.0
41,6.058468145833333,6.33568590625,54.0,95.0
42,6.058468145833333,6.5715730187500005,66.0,78.0
43,6.058468145833333,6.5987907625,58.0,69.0
44,6.058468145833333,6.599798827083333,61.0,72.0
45,6.058468145833333,6.622984312500001,42.0,73.0
46,6.542339145833334,6.6834681875,54.0,57.0
47,6.784274645833333,6.891129491666667,58.0,69.0
48,6.784274645833333,6.895161750000001,61.0,73.0
49,6.784274645833333,6.895161750000001,66.0,73.0
50,6.784274645833333,6.9072585250000005,54.0,73.0
51,6.784274645833333,6.91633110625,42.0,73.0
52,7.027218210416667,7.258065,54.0,67.0
53,7.027218210416667,7.555444052083334,66.0,76.0
54,7.027218210416667,7.576613408333333,61.0,76.0
55,7.027218210416667,7.579637602083333,58.0,69.0
56,7.511089210416667,7.683468254166667,54.0,73.0
57,7.027218210416667,7.757056968750001,42.0,66.0
58,7.752016645833334,7.855847297916667,58.0,63.0
59,7.752016645833334,7.869960202083334,61.0,72.0
60,7.752016645833334,7.878024718750001,66.0,76.0
61,7.993952145833334,8.167339254166667,58.0,66.0
62,7.993952145833334,8.172379577083333,61.0,76.0
63,7.993952145833334,8.1774199,66.0,78.0
64,7.993952145833334,8.178427964583333,54.0,76.0
65,7.993952145833334,8.20463764375,42.0,73.0
66,8.477823145833334,8.585686056250001,42.0,75.0
67,8.477823145833334,8.729839291666668,66.0,72.0
68,8.477823145833334,8.737903808333334,61.0,73.0
69,8.477823145833334,8.740928002083333,58.0,67.0
70,8.477823145833334,8.756048970833334,54.0,91.0
71,9.929436145833334,9.971774858333333,61.0,68.0
72,9.929436145833334,10.063508735416667,58.0,61.0
73,9.929436145833334,10.10987970625,66.0,66.0
74,9.929436145833334,10.449597470833334,42.0,58.0
75,9.929436145833334,10.5181458625,54.0,63.0
76,10.655242645833335,10.71774265,54.0,40.0
77,10.655242645833335,10.779234589583334,42.0,58.0
78,10.413307145833334,10.981855570833334,61.0,63.0
79,10.413307145833334,10.985887829166668,66.0,62.0
80,10.413307145833334,10.996976539583335,58.0,64.0
81,10.897178145833333,11.1955652625,49.0,72.0
82,11.139113645833334,11.459678183333335,58.0,55.0
83,11.139113645833334,11.490928185416667,61.0,74.0
84,11.381049145833334,11.71270239375,49.0,64.0
85,11.622984645833334,11.748992718750001,58.0,53.0
86,11.139113645833334,11.761089493750001,66.0,64.0
87,11.622984645833334,11.761089493750001,66.0,24.0
88,11.622984645833334,11.805444335416666,61.0,51.0
89,11.864920145833334,12.4173395375,42.0,63.0
90,11.864920145833334,12.451613733333334,54.0,70.0
91,12.590726645833334,12.706654072916667,54.0,54.0
92,12.590726645833334,12.71673471875,42.0,68.0
93,12.348791145833333,12.881049245833333,66.0,59.0
94,12.348791145833333,12.915323441666667,58.0,63.0
95,12.348791145833333,12.917339570833335,61.0,72.0
96,12.832662145833334,13.102823454166668,49.0,78.0
97,13.074597645833334,13.281250885416668,58.0,58.0
98,13.074597645833334,13.307460564583334,66.0,57.0
99,13.074597645833334,13.332662179166668,61.0,62.0
100,13.316533145833334,13.419355733333333,49.0,76.0
101,13.558468645833335,13.79334769375,58.0,56.0
102,13.558468645833335,13.93850899375,61.0,67.0
103,13.558468645833335,13.980847706250001,66.0,51.0
104,13.800404145833333,14.2802428875,35.0,58.0
105,13.800404145833333,14.379033216666667,47.0,73.0
106,14.526210645833334,14.606855812500001,35.0,52.0
107,14.526210645833334,14.648186460416667,47.0,61.0
108,14.284275145833334,14.870968733333335,59.0,69.0
109,14.284275145833334,14.871976797916668,66.0,65.0
110,14.284275145833334,14.8971784125,63.0,61.0
111,14.768146145833335,15.060484875,42.0,73.0
112,15.252017145833333,15.3084687625,42.0,62.0
113,15.010081645833335,15.336694570833334,59.0,50.0
114,15.010081645833335,15.36592844375,66.0,53.0
115,15.010081645833335,15.615928460416667,63.0,48.0
116,15.735888145833334,15.869960735416667,61.0,65.0
117,15.735888145833334,15.876009122916667,58.0,60.0
118,15.735888145833334,15.890122027083335,66.0,57.0
119,15.735888145833334,16.194557531250002,42.0,54.0
120,15.735888145833334,16.278226891666666,54.0,59.0
121,16.461694645833333,16.520162391666666,42.0,42.0
122,16.461694645833333,16.559476910416667,54.0,55.0
123,16.219759145833333,16.716734985416668,66.0,56.0
124,16.219759145833333,16.74395272916667,58.0,55.0
125,16.219759145833333,16.752017245833333,61.0,71.0
126,16.703630145833333,16.927420483333336,49.0,70.0
127,16.945565645833334,17.233872116666667,58.0,62.0
128,16.945565645833334,17.23992050416667,66.0,69.0
129,16.945565645833334,17.262097925,61.0,72.0
130,17.187501145833334,17.284275345833333,53.0,55.0
131,17.187501145833334,17.31350921875,41.0,67.0
132,17.671372145833335,17.723791504166666,61.0,60.0
133,17.671372145833335,17.7520173125,58.0,56.0
134,17.671372145833335,17.807460864583334,66.0,52.0
135,17.671372145833335,18.227823795833334,39.0,64.0
136,17.671372145833335,18.273186702083333,51.0,62.0
137,18.397178645833336,18.449598004166667,39.0,66.0
138,18.397178645833336,18.461694779166667,51.0,39.0
139,18.156251210416666,18.521170589583335,58.0,28.0
140,18.156251210416666,18.639114145833336,61.0,59.0
141,18.156251210416666,18.6774206,66.0,58.0
142,18.639114145833336,18.9012109375,46.0,70.0
143,18.881049645833333,19.173388375000002,61.0,60.0
144,18.881049645833333,19.187501279166668,66.0,49.0
145,18.881049645833333,19.210686764583333,58.0,55.0
146,19.122985145833333,19.265122252083334,51.0,61.0
147,19.364920645833333,19.511090010416666,61.0,58.0
148,19.606856145833333,19.689517441666666,68.0,36.0
149,19.606856145833333,19.728831960416667,63.0,60.0
150,19.606856145833333,19.732864218750002,60.0,60.0
151,19.606856145833333,20.11895295416667,44.0,52.0
152,19.606856145833333,20.14314650416667,56.0,56.0
153,20.332662645833334,20.393146520833334,56.0,40.0
154,20.332662645833334,20.454638460416668,44.0,57.0
155,20.090727145833334,20.629033633333336,68.0,65.0
156,20.090727145833334,20.647178795833334,60.0,62.0
157,20.090727145833334,20.659275570833334,63.0,64.0
158,20.574598145833335,20.821573968750002,51.0,66.0
159,21.058469145833335,21.098791729166667,51.0,66.0
160,20.816533645833335,21.137098183333336,63.0,64.0
161,20.816533645833335,21.155243345833334,60.0,65.0
162,20.816533645833335,21.182461089583335,68.0,64.0
163,21.542340145833336,21.670364347916667,56.0,55.0
164,21.542340145833336,21.710686931250002,65.0,62.0
165,21.542340145833336,21.714719189583334,61.0,55.0
166,21.542340145833336,22.08871115,37.0,61.0
167,21.542340145833336,22.098791795833336,49.0,65.0
168,22.268146645833333,22.318549875000002,37.0,56.0
169,22.268146645833333,22.332662779166668,49.0,64.0
170,22.026211145833333,22.544356341666667,65.0,63.0
171,22.026211145833333,22.584678925000002,56.0,64.0
172,22.026211145833333,22.608872475000002,61.0,66.0
173,22.510082145833334,22.741937,44.0,62.0
174,22.752017645833334,23.23387251666667,61.0,82.0
175,22.993953145833334,23.302420908333335,44.0,55.0
176,23.235888645833334,23.306453166666667,56.0,50.0
177,23.477824145833335,23.548388666666668,61.0,63.0
178,23.477824145833335,23.593751572916666,56.0,70.0
179,23.477824145833335,23.601816089583334,37.0,67.0
180,23.477824145833335,23.613912864583334,65.0,67.0
181,23.477824145833335,23.623993510416668,49.0,63.0
182,23.961695145833335,24.012098375,61.0,52.0
183,23.961695145833335,24.022179020833335,37.0,63.0
184,23.961695145833335,24.079638702083333,49.0,74.0
185,23.961695145833335,24.081654831250003,56.0,69.0
186,23.961695145833335,24.081654831250003,65.0,58.0
187,24.445566145833336,24.50403389166667,58.0,57.0
188,24.445566145833336,24.506050020833335,39.0,54.0
189,24.445566145833336,24.518146795833335,61.0,74.0
190,24.445566145833336,24.539316152083334,66.0,59.0
191,24.445566145833336,24.560485508333336,51.0,62.0
192,24.929437145833333,24.969759729166668,53.0,73.0
193,24.929437145833333,24.969759729166668,61.0,73.0
194,24.929437145833333,24.975808116666666,41.0,25.0
195,24.929437145833333,25.020162958333334,68.0,82.0
196,25.413308145833334,25.455646858333335,70.0,74.0
197,25.413308145833334,25.459679116666667,61.0,73.0
198,25.413308145833334,25.475808150000002,66.0,69.0
199,25.413308145833334,25.955646891666667,54.0,56.0
200,26.139114645833335,26.21572755416667,54.0,50.0
201,25.897179145833334,26.425404987500002,66.0,60.0
202,25.897179145833334,26.431453375,61.0,69.0
203,25.897179145833334,26.449598537500002,70.0,77.0
204,26.381050145833335,26.635082420833335,49.0,72.0
205,26.622985645833335,26.687501779166666,70.0,66.0
206,26.622985645833335,26.757058235416668,66.0,67.0
207,26.622985645833335,26.795364689583334,61.0,61.0
208,26.864921145833335,27.238913106250003,49.0,59.0
209,27.348792145833336,27.41935666666667,66.0,39.0
210,27.348792145833336,27.423388925,61.0,61.0
211,27.348792145833336,27.452622797916668,58.0,51.0
212,27.348792145833336,27.858872825000002,42.0,65.0
213,27.348792145833336,27.907259925,54.0,60.0
214,28.074598645833333,28.147179295833336,42.0,44.0
215,28.074598645833333,28.19052607291667,54.0,55.0
216,27.832663145833333,28.4092760875,66.0,52.0
217,27.832663145833333,28.443550283333334,61.0,59.0
218,27.832663145833333,28.4455664125,58.0,57.0
219,28.316534145833334,28.592743841666667,49.0,75.0
220,28.558469645833334,28.862905150000003,58.0,55.0
221,28.558469645833334,28.875001925000003,61.0,58.0
222,28.558469645833334,28.883066441666667,66.0,62.0
223,28.800405145833334,29.14415516875,54.0,69.0
224,29.042340645833335,29.296372920833335,58.0,54.0
225,29.042340645833335,29.492945514583333,61.0,68.0
226,29.042340645833335,29.58871165,66.0,49.0
227,29.284276145833335,29.824598762500003,47.0,74.0
228,30.010082645833336,30.152219752083333,47.0,62.0
229,29.768147145833336,30.344760087500003,66.0,51.0
230,29.768147145833336,30.36592944375,59.0,68.0
231,29.768147145833336,30.39012299375,63.0,59.0
232,30.252018145833336,30.51008267916667,54.0,55.0
233,30.493953645833336,30.810485925000002,66.0,51.0
234,30.493953645833336,30.81855044166667,59.0,64.0
235,30.493953645833336,30.979840775000003,63.0,45.0
236,30.735889145833333,31.03024400416667,54.0,58.0
237,31.219760145833334,31.29637305416667,66.0,49.0
238,31.219760145833334,31.333671443750003,58.0,61.0
239,30.977824645833334,31.367945639583336,61.0,61.0
240,31.219760145833334,31.632058560416667,42.0,53.0
241,31.219760145833334,31.810485991666667,54.0,58.0
242,31.945566645833335,32.01310697291667,42.0,48.0
243,31.945566645833335,32.034276329166666,54.0,41.0
244,31.703631145833334,32.19758279166667,61.0,81.0
245,31.703631145833334,32.22177634166667,66.0,56.0
246,31.703631145833334,32.2318569875,58.0,70.0
247,32.187502145833335,32.46976022916667,49.0,66.0
248,32.42943764583333,32.689518308333334,58.0,57.0
249,32.42943764583333,32.72984089166667,61.0,66.0
250,32.42943764583333,32.72984089166667,66.0,77.0
251,32.671373145833336,32.78730057291667,53.0,67.0
252,32.671373145833336,32.79939734791667,41.0,67.0
253,32.91330864583333,33.157260275,65.0,59.0
254,33.155244145833336,33.23790544166667,61.0,57.0
255,33.155244145833336,33.28326834791667,58.0,42.0
256,33.155244145833336,33.305445768750005,66.0,40.0
257,33.155244145833336,33.5020183625,39.0,52.0
258,33.155244145833336,33.7197603125,51.0,53.0
259,33.881050645833334,33.92742161666667,39.0,64.0
260,33.881050645833334,33.93951839166667,51.0,32.0
261,33.63911514583334,34.15726034166667,61.0,55.0
262,33.63911514583334,34.15927647083333,58.0,55.0
263,33.63911514583334,34.187502279166665,66.0,74.0
264,34.12298614583334,34.37701842083334,46.0,70.0
265,34.364921645833334,34.649195858333336,58.0,61.0
266,34.60685714583334,34.65927650416667,46.0,71.0
267,34.364921645833334,34.746978122916666,61.0,67.0
268,34.364921645833334,34.75302651041667,66.0,72.0
269,35.09072814583333,35.20665557291667,66.0,43.0
270,35.09072814583333,35.232865252083336,59.0,59.0
271,35.09072814583333,35.232865252083336,63.0,60.0
272,35.09072814583333,35.580647533333334,47.0,65.0
273,35.69556689583334,35.78528464375,47.0,52.0
274,35.09072814583333,35.811494322916666,35.0,60.0
275,35.57459914583333,36.05242175833334,59.0,66.0
276,35.57459914583333,36.05242175833334,63.0,55.0
277,35.57459914583333,36.065526597916666,66.0,41.0
278,36.05947821041667,36.33367177708333,49.0,74.0
279,36.05947821041667,36.50705888541667,37.0,60.0
280,36.30141371041667,36.5625024375,61.0,61.0
281,36.30141371041667,36.598792762500004,56.0,67.0
282,36.30141371041667,36.65625244375,65.0,54.0
283,36.54234114583333,36.68649438125,49.0,59.0
284,36.78427664583334,37.034276662500005,63.0,59.0
285,37.026212145833334,37.13709925,58.0,55.0
286,37.026212145833334,37.15222021875,61.0,66.0
287,37.026212145833334,37.17641376875,66.0,65.0
288,37.026212145833334,37.47681701458333,42.0,62.0
289,37.026212145833334,37.5483896,54.0,61.0
290,37.75201864583334,37.80645413333333,54.0,57.0
291,37.75201864583334,37.82258316666667,42.0,56.0
292,37.510083145833335,38.020163825000004,58.0,58.0
293,37.510083145833335,38.03024447083334,61.0,62.0
294,37.510083145833335,38.03629285833333,66.0,61.0
295,37.993954145833335,38.20060738541667,49.0,75.0
296,38.23588964583333,38.2923412625,58.0,55.0
297,38.23588964583333,38.323591264583335,61.0,61.0
298,38.23588964583333,38.371978364583335,66.0,61.0
299,38.477825145833336,38.524196116666666,49.0,62.0
300,38.71976064583333,38.780244520833335,63.0,53.0
301,38.71976064583333,38.79536548958333,54.0,64.0
302,38.71976064583333,38.829639685416666,59.0,60.0
303,38.71976064583333,38.84173646041667,42.0,70.0
304,39.20363164583333,39.34375262291667,54.0,61.0
305,39.20363164583333,39.37399456041667,42.0,60.0
306,39.20363164583333,39.66230103125,66.0,67.0
307,39.20363164583333,39.677422,61.0,69.0
308,39.20363164583333,39.68145425833333,58.0,65.0
309,39.687502645833334,39.737905875,54.0,57.0
310,39.687502645833334,39.75806716666667,42.0,47.0
311,39.92943814583334,39.97782524583334,61.0,57.0
312,39.92943814583334,39.99193815,58.0,48.0
313,39.92943814583334,40.18246235625,66.0,72.0
314,39.92943814583334,40.1915349375,53.0,74.0
315,40.171373645833334,40.219760745833334,65.0,22.0
316,40.41330914583334,40.45968011666667,53.0,60.0
317,39.92943814583334,40.5000027,41.0,65.0
318,40.41330914583334,40.51109141041667,56.0,56.0
319,40.41330914583334,40.579639802083335,65.0,55.0
320,40.655244645833335,40.79536562291667,61.0,69.0
321,40.89718014583334,40.94959950416667,66.0,66.0
322,40.89718014583334,41.01915596041667,61.0,73.0
323,40.89718014583334,41.05544628541667,70.0,70.0
324,40.89718014583334,41.289317268750004,39.0,41.0
325,40.89718014583334,41.45363179583334,51.0,39.0
326,41.622986645833336,41.68951890833333,51.0,29.0
327,41.622986645833336,41.75302697708334,39.0,56.0
328,41.38105114583333,41.943551183333334,61.0,73.0
329,41.38105114583333,41.971776991666665,70.0,78.0
330,41.38105114583333,41.97782537916667,66.0,66.0
331,42.10685764583334,42.38911572916667,61.0,72.0
332,41.86492214583333,42.41129315,46.0,67.0
333,42.10685764583334,42.47681734791667,70.0,78.0
334,42.10685764583334,42.49294638125,66.0,66.0
335,42.34879314583333,42.50101089791667,51.0,59.0
336,42.59072864583334,42.706656072916665,61.0,56.0
337,42.832664145833334,42.986898027083335,65.0,68.0
338,42.832664145833334,43.07863190416667,68.0,70.0
339,42.832664145833334,43.092744808333336,61.0,66.0
340,42.832664145833334,43.340728695833334,46.0,62.0
341,42.832664145833334,43.39919644166667,58.0,60.0
342,43.55847064583334,43.61693839166667,46.0,65.0
343,43.55847064583334,43.622986779166666,58.0,42.0
344,43.316535145833335,43.821575502083334,61.0,65.0
345,43.316535145833335,43.82863195416667,65.0,68.0
346,43.316535145833335,43.8447609875,68.0,71.0
347,43.800406145833335,44.0625029375,53.0,80.0
348,44.04234164583333,44.21068843125,61.0,66.0
349,44.04234164583333,44.259075531250005,65.0,68.0
350,44.04234164583333,44.306454566666666,68.0,79.0
351,44.284277145833336,44.33669650416667,58.0,61.0
352,44.76814814583334,44.87601105625,63.0,48.0
353,44.76814814583334,44.886091702083334,66.0,62.0
354,44.76814814583334,44.93044654375,71.0,65.0
355,44.76814814583334,45.218753014583335,47.0,75.0
356,44.76814814583334,45.220769143750005,59.0,67.0
357,45.493954645833334,45.5806482,59.0,39.0
358,45.493954645833334,45.60988207291667,47.0,60.0
359,45.25201914583334,45.616938525,63.0,61.0
360,45.25201914583334,45.648188527083335,66.0,57.0
361,45.25201914583334,45.84576918541667,71.0,67.0
362,45.73589014583334,46.04234177916667,49.0,71.0
363,45.977825645833335,46.29839018333334,61.0,71.0
364,45.977825645833335,46.32560792708333,65.0,73.0
365,46.21976114583334,46.34778534791667,49.0,65.0
366,45.977825645833335,46.39617244791667,68.0,74.0
367,46.461696645833335,46.59576923541667,61.0,44.0
368,46.70363214583334,46.75000311666667,66.0,59.0
369,46.70363214583334,46.815527314583335,61.0,69.0
370,46.70363214583334,46.82359183125,70.0,77.0
371,46.70363214583334,47.170366047916666,42.0,71.0
372,46.82459989583334,47.271172506250004,54.0,21.0
373,47.429438645833336,47.475809616666666,42.0,60.0
374,47.429438645833336,47.49395477916667,54.0,35.0
375,47.18750314583333,47.68951930833334,70.0,72.0
376,47.18750314583333,47.69657576041667,61.0,71.0
377,47.18750314583333,47.701616083333334,66.0,61.0
378,47.67137414583333,47.90222093541667,42.0,64.0
379,47.67137414583333,47.94758384166667,54.0,65.0
380,48.155245145833334,48.20363224583333,49.0,62.0
381,48.39718064583334,48.439519358333335,41.0,62.0
382,48.39718064583334,48.44556774583334,53.0,48.0
383,47.91330964583334,48.47379355416667,66.0,60.0
384,47.91330964583334,48.5020193625,61.0,73.0
385,47.91330964583334,48.55141452708334,70.0,80.0
386,48.639116145833334,49.13710005,39.0,58.0
387,48.639116145833334,49.173390375000004,51.0,61.0
388,49.36492264583334,49.41734200416667,51.0,42.0
389,49.36492264583334,49.4455678125,39.0,59.0
390,49.122987145833335,49.711696862500006,61.0,69.0
391,49.122987145833335,49.71774525,66.0,59.0
392,49.122987145833335,49.71976137916667,70.0,75.0
393,49.606858145833336,49.854842033333334,46.0,70.0
394,49.84879364583333,50.14314850416667,61.0,63.0
395,50.090729145833336,50.1471807625,51.0,31.0
396,49.84879364583333,50.1713743125,70.0,70.0
397,49.84879364583333,50.17540657083334,66.0,64.0
398,50.090729145833336,50.20262431458334,46.0,72.0
399,50.33266464583333,50.446575943750005,61.0,69.0
400,50.33266464583333,50.48085013958334,70.0,72.0
401,50.33266464583333,50.50705981875,66.0,62.0
402,50.57460014583334,51.181455025000005,47.0,61.0
403,50.57460014583334,51.36290665,35.0,62.0
404,51.300406645833334,51.3689550375,47.0,59.0
405,51.05847114583334,51.49093085208334,66.0,60.0
406,51.05847114583334,51.51512440208334,71.0,75.0
407,51.05847114583334,51.59072924583334,63.0,64.0
408,51.54234214583334,51.834680875000004,48.0,70.0
409,51.784277645833335,52.07863250416667,63.0,72.0
410,51.784277645833335,52.086697020833334,72.0,80.0
411,51.54234214583334,52.10484218333334,36.0,70.0
412,51.784277645833335,52.17238251041667,68.0,80.0
413,52.02621314583334,52.194559931250005,48.0,49.0
414,52.268148645833335,52.34980187708334,63.0,49.0
415,52.51109221041667,52.5665357625,65.0,58.0
416,52.51109221041667,52.5665357625,68.0,69.0
417,52.51109221041667,52.62802770208334,73.0,65.0
418,52.51109221041667,52.98891482291667,37.0,59.0
419,52.51109221041667,53.006051920833336,49.0,66.0
420,53.23589064583334,53.282261616666666,37.0,60.0
421,53.23589064583334,53.2923422625,49.0,52.0
422,52.99395514583333,53.49395517916667,73.0,71.0
423,52.99395514583333,53.50201969583333,68.0,77.0
424,52.99395514583333,53.504035825,66.0,59.0
425,53.47782614583333,53.69657616041667,44.0,66.0
426,53.71976164583334,53.764116487500004,68.0,80.0
427,53.71976164583334,53.77419713333334,73.0,59.0
428,53.71976164583334,53.80343100625,66.0,74.0
429,53.961697145833334,54.00806811666667,44.0,57.0
430,54.445568145833334,54.48589072916667,65.0,67.0
431,54.445568145833334,54.48790685833334,49.0,73.0
432,54.445568145833334,54.4899229875,37.0,75.0
433,54.445568145833334,54.502019762500005,61.0,75.0
434,54.445568145833334,54.502019762500005,68.0,77.0
435,54.929439145833335,54.9677456,65.0,64.0
436,54.929439145833335,54.97177785833333,61.0,71.0
437,54.929439145833335,55.00000366666667,37.0,75.0
438,54.929439145833335,55.04133431458334,49.0,75.0
439,54.929439145833335,55.04335044375,68.0,82.0
440,55.413310145833336,55.823592431250006,61.0,66.0
441,55.413310145833336,55.86189888541667,70.0,69.0
442,55.413310145833336,55.88004404791667,39.0,73.0
443,55.413310145833336,55.93145534166667,66.0,65.0
444,55.413310145833336,55.98589082916667,51.0,65.0
445,55.897181145833336,56.01109244375,41.0,77.0
446,55.897181145833336,56.03528599375,61.0,67.0
447,55.897181145833336,56.06149567291667,68.0,84.0
448,56.38105214583334,56.431455375000006,61.0,47.0
449,56.38105214583334,56.4616973125,58.0,55.0
450,56.38105214583334,56.49697957291667,66.0,58.0
451,56.38105214583334,56.745971525,42.0,51.0
452,56.38105214583334,56.9032296,54.0,53.0
453,57.106858645833334,57.17137477916667,42.0,42.0
454,57.106858645833334,57.19758445833334,54.0,36.0
455,56.86492314583334,57.32560866041667,66.0,62.0
456,56.86492314583334,57.34778608125,58.0,65.0
457,56.86492314583334,57.40121350416667,61.0,64.0
458,57.34879414583334,57.58871351666667,49.0,68.0
459,57.590729645833335,57.63306835833334,58.0,64.0
460,57.590729645833335,57.65121352083334,66.0,64.0
461,57.590729645833335,57.68246352291667,61.0,76.0
462,58.074600645833335,58.13911677916667,58.0,61.0
463,57.83266514583334,58.21270549375,49.0,55.0
464,58.074600645833335,58.22077001041667,61.0,70.0
465,58.074600645833335,58.24496356041667,66.0,51.0
466,58.31653614583334,58.72278617291667,42.0,45.0
467,58.31653614583334,58.812503920833336,54.0,49.0
468,58.80040714583333,58.986899093750004,58.0,63.0
469,58.80040714583333,59.044358775000006,61.0,70.0
470,59.04234264583334,59.090729745833336,42.0,46.0
471,58.80040714583333,59.10282652083334,66.0,47.0
472,59.28427814583333,59.48689912708333,49.0,70.0
473,59.52621364583334,59.65020558958334,58.0,74.0
474,59.52621364583334,59.69052817291667,61.0,78.0
475,59.52621364583334,59.70262494791667,66.0,75.0
476,59.768149145833334,59.8125039875,49.0,59.0
477,60.252020145833335,60.31250402083334,63.0,58.0
478,60.252020145833335,60.36593144375,66.0,49.0
479,60.252020145833335,60.36996370208334,58.0,64.0
480,60.252020145833335,60.64012501041667,39.0,47.0
481,60.252020145833335,60.75000405,51.0,44.0
482,60.735891145833335,61.064520200000004,63.0,45.0
483,60.735891145833335,61.091737943750005,58.0,50.0
484,60.735891145833335,61.094762137500005,66.0,47.0
485,61.219762145833336,61.47984280833334,47.0,51.0
486,61.219762145833336,61.6935525,35.0,45.0
487,61.46169764583334,61.721778308333334,59.0,61.0
488,61.46169764583334,61.750004116666666,66.0,48.0
489,61.70363314583334,61.823592831250004,47.0,57.0
490,61.46169764583334,61.83165734791667,63.0,58.0
491,61.94556864583333,62.008068650000006,61.0,55.0
492,62.18750414583334,62.256052537500004,61.0,58.0
493,62.18750414583334,62.27621382916667,58.0,47.0
494,62.18750414583334,62.62197998125,42.0,57.0
495,62.913310645833334,62.96573000416667,54.0,47.0
496,62.913310645833334,62.97177839166667,42.0,43.0
497,62.67137514583334,63.123996143750006,61.0,72.0
498,62.67137514583334,63.12601227291667,66.0,50.0
499,62.67137514583334,63.14415743541667,58.0,70.0
500,63.15524614583334,63.39516551666667,49.0,76.0
501,63.63911714583334,63.683471987500006,49.0,69.0
502,63.881052645833336,63.92742361666667,53.0,23.0
503,63.881052645833336,63.931455875000005,41.0,66.0
504,63.397181645833335,64.10988330625,66.0,66.0
505,63.397181645833335,64.18548815,61.0,62.0
506,63.397181645833335,64.22984299166667,58.0,64.0
507,64.12298814583333,64.58871398333334,39.0,52.0
508,64.12298814583333,64.60685914583334,51.0,53.0
509,64.84879464583334,64.90726239166666,51.0,36.0
510,64.84879464583334,64.95766562083334,39.0,66.0
511,64.60685914583334,65.116939825,66.0,50.0
512,64.60685914583334,65.11895595416667,61.0,57.0
513,64.60685914583334,65.14314950416667,58.0,60.0
514,65.09073014583333,65.32460112916667,46.0,71.0
515,65.33266564583333,65.54536727291666,58.0,62.0
516,65.33266564583333,65.59879469583333,61.0,73.0
517,65.57460114583334,65.61492372916668,46.0,71.0
518,65.33266564583333,65.99294794791668,66.0,64.0
519,65.93750439583334,66.12198021458333,61.0,34.0
520,66.05847214583333,66.60282702083333,47.0,63.0
521,66.05847214583333,66.65524637916667,35.0,61.0
522,66.78427864583334,66.83266574583334,35.0,37.0
523,66.78427864583334,66.92439962291667,47.0,65.0
524,66.54234314583334,66.97883511041667,59.0,66.0
525,66.54234314583334,67.14718189583334,63.0,64.0
526,66.54234314583334,67.16028673541668,66.0,50.0
527,67.02621414583334,67.29234319583334,49.0,69.0
528,67.02621414583334,67.47480288541666,37.0,68.0
529,67.26814964583333,67.48589159583334,56.0,72.0
530,67.51008514583333,67.57460127916667,49.0,58.0
531,67.26814964583333,67.6149238625,65.0,51.0
532,67.26814964583333,67.71774645,61.0,68.0
533,67.99395614583334,68.04637550416668,61.0,49.0
534,67.99395614583334,68.10081099166668,58.0,57.0
535,67.99395614583334,68.15423841458333,66.0,64.0
536,67.99395614583334,68.37601262291668,42.0,52.0
537,67.99395614583334,68.51210134166666,54.0,62.0
538,68.71976264583334,68.78024652083333,54.0,60.0
539,68.47782714583333,68.93649653125,61.0,58.0
540,68.47782714583333,68.9576658875,66.0,61.0
541,68.47782714583333,69.03831105416667,58.0,55.0
542,68.96169814583334,69.13004493125,49.0,76.0
543,69.20363364583334,69.26411752083334,61.0,60.0
544,69.20363364583334,69.27016590833334,58.0,45.0
545,69.20363364583334,69.35988365625,66.0,72.0
546,69.44556914583333,69.52520624791667,49.0,61.0
547,69.68750464583334,69.7439562625,54.0,36.0
548,69.68750464583334,69.86794820625,58.0,58.0
549,69.92944014583334,69.979843375,61.0,71.0
550,69.92944014583334,69.9858917625,58.0,59.0
551,69.92944014583334,69.9858917625,66.0,66.0
552,69.92944014583334,70.03024660416666,42.0,66.0
553,69.92944014583334,70.03629499166667,54.0,68.0
554,70.41331114583333,70.46371437500001,54.0,63.0
555,70.41331114583333,70.46573050416667,58.0,57.0
556,70.41331114583333,70.46774663333333,42.0,67.0
557,70.41331114583333,70.47177889166667,61.0,33.0
558,70.41331114583333,70.51714179791666,66.0,72.0
559,70.89718214583334,70.947585375,61.0,47.0
560,70.89718214583334,70.99093215208333,54.0,54.0
561,70.89718214583334,71.00101279791667,68.0,73.0
562,70.89718214583334,71.01915796041666,42.0,62.0
563,71.38105314583333,71.43548863333334,70.0,67.0
564,71.38105314583333,71.43952089166667,42.0,59.0
565,71.38105314583333,71.46976282916667,54.0,69.0
566,79.60686014583334,79.64919885833334,61.0,68.0
567,79.60686014583334,79.74093273541666,58.0,61.0
568,79.60686014583334,79.78730370625,66.0,66.0
569,79.60686014583334,80.12702147083334,42.0,58.0
570,79.60686014583334,80.19556986250001,54.0,63.0
571,80.33266664583334,80.39516665000001,54.0,40.0
572,80.33266664583334,80.45665858958334,42.0,58.0
573,80.09073114583333,80.65927957083333,61.0,63.0
574,80.09073114583333,80.66331182916667,66.0,62.0
575,80.09073114583333,80.67440053958333,58.0,64.0
576,80.57460214583334,80.8729892625,49.0,72.0
577,80.81653764583334,81.13710218333334,58.0,55.0
578,80.81653764583334,81.16835218541667,61.0,74.0
579,81.05847314583333,81.39012639375001,49.0,64.0
580,81.30040864583334,81.42641671875,58.0,53.0
581,80.81653764583334,81.43851349375001,66.0,64.0
582,81.30040864583334,81.43851349375001,66.0,24.0
583,81.30040864583334,81.48286833541667,61.0,51.0
584,81.54234414583334,82.0947635375,42.0,63.0
585,81.54234414583334,82.12903773333333,54.0,70.0
586,82.26815064583333,82.38407807291667,54.0,54.0
587,82.26815064583333,82.39415871875,42.0,68.0
588,82.02621514583333,82.55847324583334,66.0,59.0
589,82.02621514583333,82.59274744166667,58.0,63.0
590,82.02621514583333,82.59476357083334,61.0,72.0
591,82.51008614583334,82.78024745416667,49.0,78.0
592,82.75202164583334,82.95867488541667,58.0,58.0
593,82.75202164583334,82.98488456458334,66.0,57.0
594,82.75202164583334,83.01008617916668,61.0,62.0
595,82.99395714583333,83.09677973333334,49.0,76.0
596,83.23589264583333,83.47077169375001,58.0,56.0
597,83.23589264583333,83.61593299375001,61.0,67.0
598,83.23589264583333,83.65827170625,66.0,51.0
599,83.47782814583334,83.95766688750001,35.0,58.0
600,83.47782814583334,84.05645721666667,47.0,73.0
601,84.20363464583333,84.2842798125,35.0,52.0
602,84.20363464583333,84.32561046041667,47.0,61.0
603,83.96169914583334,84.54839273333334,59.0,69.0
604,83.96169914583334,84.54940079791668,66.0,65.0
605,83.96169914583334,84.5746024125,63.0,61.0
606,84.44557014583334,84.737908875,42.0,73.0
607,84.92944114583334,84.9858927625,42.0,62.0
608,84.68750564583334,85.01411857083333,59.0,50.0
609,84.68750564583334,85.04335244375001,66.0,53.0
610,84.68750564583334,85.29335246041667,63.0,48.0
611,85.41331214583333,85.54738473541667,61.0,65.0
612,85.41331214583333,85.55343312291667,58.0,60.0
613,85.41331214583333,85.56754602708334,66.0,57.0
614,85.41331214583333,85.87198153125,42.0,54.0
615,85.41331214583333,85.95565089166666,54.0,59.0
616,86.13911864583334,86.19758639166668,42.0,42.0
617,86.13911864583334,86.23690091041667,54.0,55.0
618,85.89718314583334,86.39415898541667,66.0,56.0
619,85.89718314583334,86.42137672916667,58.0,55.0
620,85.89718314583334,86.42944124583333,61.0,71.0
621,86.38105414583333,86.60484448333334,49.0,70.0
622,86.62298964583334,86.91129611666668,58.0,62.0
623,86.62298964583334,86.91734450416666,66.0,69.0
624,86.62298964583334,86.93952192500001,61.0,72.0
625,86.86492514583334,86.96169934583334,53.0,55.0
626,86.86492514583334,86.99093321875,41.0,67.0
627,87.34879614583333,87.40121550416667,61.0,60.0
628,87.34879614583333,87.4294413125,58.0,56.0
629,87.34879614583333,87.48488486458334,66.0,52.0
630,87.34879614583333,87.90524779583333,39.0,64.0
631,87.34879614583333,87.95061070208334,51.0,62.0
632,88.07460264583334,88.12702200416668,39.0,66.0
633,88.07460264583334,88.13911877916667,51.0,39.0
634,87.83266714583334,88.19859458958334,58.0,28.0
635,87.83266714583334,88.31653814583333,61.0,59.0
636,87.83266714583334,88.3548446,66.0,58.0
637,88.31653814583333,88.5786349375,46.0,70.0
638,88.55847364583333,88.850812375,61.0,60.0
639,88.55847364583333,88.86492527916667,66.0,49.0
640,88.55847364583333,88.88811076458333,58.0,55.0
641,88.80040914583334,88.94254625208333,51.0,61.0
642,89.04234464583334,89.18851401041667,61.0,58.0
643,89.28428014583334,89.36694144166667,68.0,36.0
644,89.28428014583334,89.40625596041667,63.0,60.0
645,89.28428014583334,89.41028821875,60.0,60.0
646,89.28428014583334,89.79637695416667,44.0,52.0
647,89.28428014583334,89.82057050416667,56.0,56.0
648,90.01008664583334,90.07057052083334,56.0,40.0
649,90.01008664583334,90.13307052500001,44.0,57.0
650,89.76815114583334,90.30645763333334,68.0,65.0
651,89.76815114583334,90.32460279583334,60.0,62.0
652,89.76815114583334,90.33669957083333,63.0,64.0
653,90.25202214583334,90.49899796875,51.0,66.0
654,90.73589314583334,90.77621572916667,51.0,66.0
655,90.49395764583333,90.81452218333334,63.0,64.0
656,90.49395764583333,90.83266734583334,60.0,65.0
657,90.49395764583333,90.85988508958334,68.0,64.0
658,91.21976414583334,91.34778834791668,56.0,55.0
659,91.21976414583334,91.38811093125001,65.0,62.0
660,91.21976414583334,91.39214318958334,61.0,55.0
661,91.21976414583334,91.76613515000001,37.0,61.0
662,91.21976414583334,91.77621579583334,49.0,65.0
663,91.94557064583334,91.995973875,37.0,56.0
664,91.94557064583334,92.01008677916667,49.0,64.0
665,91.70363514583333,92.22178034166667,65.0,63.0
666,91.70363514583333,92.26210292500001,56.0,64.0
667,91.70363514583333,92.286296475,61.0,66.0
668,92.18750614583334,92.41936100000001,44.0,62.0
669,92.42944164583334,92.91129651666667,61.0,82.0
670,92.67137714583333,92.97984490833333,44.0,55.0
671,92.91331264583334,92.98387716666667,56.0,50.0
672,93.15524814583334,93.22581266666667,61.0,63.0
673,93.15524814583334,93.27117557291668,56.0,70.0
674,93.15524814583334,93.27924008958334,37.0,67.0
675,93.15524814583334,93.29133686458334,65.0,67.0
676,93.15524814583334,93.30141751041667,49.0,63.0
677,93.63911914583333,93.68952237500001,61.0,52.0
678,93.63911914583333,93.69960302083334,37.0,63.0
679,93.63911914583333,93.75706270208333,49.0,74.0
680,93.63911914583333,93.75907883125001,56.0,69.0
681,93.63911914583333,93.75907883125001,65.0,58.0
682,94.12299014583334,94.18145789166667,58.0,57.0
683,94.12299014583334,94.18347402083334,39.0,54.0
684,94.12299014583334,94.19557079583333,61.0,74.0
685,94.12299014583334,94.21674015208333,66.0,59.0
686,94.12299014583334,94.23790950833333,51.0,62.0
687,94.60686114583334,94.64718372916667,53.0,73.0
688,94.60686114583334,94.64718372916667,61.0,73.0
689,94.60686114583334,94.65323211666667,41.0,25.0
690,94.60686114583334,94.69758695833333,68.0,82.0
691,95.09174021041667,95.13307085833334,70.0,74.0
692,95.09174021041667,95.13710311666667,61.0,73.0
693,95.09174021041667,95.15323215000001,66.0,69.0
694,95.09174021041667,95.61895798750001,42.0,47.0
695,95.09174021041667,95.63307089166668,54.0,56.0
696,95.81653864583333,95.87903865,42.0,59.0
697,95.81653864583333,95.89315155416668,54.0,50.0
698,95.57460314583334,96.1028289875,66.0,60.0
699,95.57460314583334,96.108877375,61.0,69.0
700,95.57460314583334,96.12702253750001,70.0,77.0
701,96.05847414583334,96.31250642083334,49.0,72.0
702,96.30040964583334,96.36492577916667,70.0,66.0
703,96.30040964583334,96.43448223541667,66.0,67.0
704,96.30040964583334,96.47178062500001,61.0,61.0
705,96.54335321041667,96.91734517083334,49.0,59.0
706,97.02621614583333,97.09678066666667,66.0,39.0
707,97.02621614583333,97.100812925,61.0,61.0
708,97.02621614583333,97.13004679791668,58.0,51.0
709,97.02621614583333,97.53629682500001,42.0,65.0
710,97.02621614583333,97.58468392500001,54.0,60.0
711,97.75202264583334,97.82460329583334,42.0,44.0
712,97.75202264583334,97.86795007291667,54.0,55.0
713,97.51008714583334,98.0867000875,66.0,52.0
714,97.51008714583334,98.12097428333334,61.0,59.0
715,97.51008714583334,98.1229904125,58.0,57.0
716,97.99395814583333,98.27016784166668,49.0,75.0
717,98.23589364583334,98.54032915,58.0,55.0
718,98.23589364583334,98.55242592500001,61.0,58.0
719,98.23589364583334,98.56049044166667,66.0,62.0
720,98.47782914583334,98.82157916875,54.0,69.0
721,98.71976464583334,98.97379692083334,58.0,54.0
722,98.71976464583334,99.17036951458334,61.0,68.0
723,98.71976464583334,99.26613565000001,66.0,49.0
724,98.96170014583333,99.5020227625,47.0,74.0
725,99.68750664583334,99.82964375208334,47.0,62.0
726,99.44557114583334,100.02218408750001,66.0,51.0
727,99.44557114583334,100.04335344375001,59.0,68.0
728,99.44557114583334,100.06754699375,63.0,59.0
729,99.92944214583333,100.18750667916667,54.0,55.0
730,100.17137764583333,100.48790992500001,66.0,51.0
731,100.17137764583333,100.49597444166668,59.0,64.0
732,100.17137764583333,100.657264775,63.0,45.0
733,100.41331314583334,100.70766800416668,54.0,58.0
734,100.89718414583334,100.97379705416667,66.0,49.0
735,100.89718414583334,101.01109544375001,58.0,61.0
736,100.65524864583334,101.04536963958334,61.0,61.0
737,100.89718414583334,101.30948256041667,42.0,53.0
738,100.89718414583334,101.48790999166667,54.0,58.0
739,101.62299064583334,101.69053097291668,42.0,48.0
740,101.62299064583334,101.71170032916667,54.0,41.0
741,101.38105514583334,101.87500679166668,61.0,81.0
742,101.38105514583334,101.89920034166667,66.0,56.0
743,101.38105514583334,101.90928098750001,58.0,70.0
744,101.86492614583334,102.14718422916667,49.0,66.0
745,102.10686164583333,102.36694230833334,58.0,57.0
746,102.10686164583333,102.40726489166667,61.0,66.0
747,102.10686164583333,102.40726489166667,66.0,77.0
748,102.34879714583334,102.46472457291667,53.0,67.0
749,102.34879714583334,102.47682134791667,41.0,67.0
750,102.59073264583334,102.834684275,65.0,59.0
751,102.83266814583334,102.91532944166667,61.0,57.0
752,102.83266814583334,102.96069234791668,58.0,42.0
753,102.83266814583334,102.98286976875,66.0,40.0
754,102.83266814583334,103.1794423625,39.0,52.0
755,102.83266814583334,103.3971843125,51.0,53.0
756,103.55847464583334,103.60484561666667,39.0,64.0
757,103.55847464583334,103.61694239166667,51.0,32.0
758,103.31653914583333,103.83468434166667,61.0,55.0
759,103.31653914583333,103.83670047083334,58.0,55.0
760,103.31653914583333,103.86492627916667,66.0,74.0
761,103.80041014583334,104.05444242083334,46.0,70.0
762,104.04234564583334,104.32661985833334,58.0,61.0
763,104.28428114583333,104.33670050416667,46.0,71.0
764,104.04234564583334,104.42440212291667,61.0,67.0
765,104.04234564583334,104.43045051041668,66.0,72.0
766,104.76815214583334,104.88407957291668,66.0,43.0
767,104.76815214583334,104.91028925208334,59.0,59.0
768,104.76815214583334,104.91028925208334,63.0,60.0
769,104.76815214583334,105.25807153333334,47.0,65.0
770,104.76815214583334,105.48891832291667,35.0,60.0
771,105.25202314583333,105.72984575833334,59.0,66.0
772,105.25202314583333,105.72984575833334,63.0,55.0
773,105.25202314583333,105.74295059791667,66.0,41.0
774,105.73690221041667,106.01109577708334,49.0,74.0
775,105.73690221041667,106.18448288541667,37.0,60.0
776,105.97883771041667,106.2399264375,61.0,61.0
777,105.97883771041667,106.2762167625,56.0,67.0
778,105.97883771041667,106.33367644375001,65.0,54.0
779,106.21976514583334,106.36391838125,49.0,59.0
780,106.46170064583333,106.71170066250001,63.0,59.0
781,106.70363614583334,106.81452325000001,58.0,55.0
782,106.70363614583334,106.82964421875,61.0,66.0
783,106.70363614583334,106.85383776875001,66.0,65.0
784,106.70363614583334,107.15424101458333,42.0,62.0
785,106.70363614583334,107.22581360000001,54.0,61.0
786,107.42944264583333,107.48387813333333,54.0,57.0
787,107.42944264583333,107.50000716666668,42.0,56.0
788,107.18750714583334,107.697587825,58.0,58.0
789,107.18750714583334,107.70766847083334,61.0,62.0
790,107.18750714583334,107.71371685833334,66.0,61.0
791,107.67137814583334,107.87803138541668,49.0,75.0
792,107.91331364583334,107.9697652625,58.0,55.0
793,107.91331364583334,108.00101526458334,61.0,61.0
794,107.91331364583334,108.04940236458334,66.0,61.0
795,108.15524914583334,108.20162011666667,49.0,62.0
796,108.39718464583333,108.45766852083334,63.0,53.0
797,108.39718464583333,108.47278948958333,54.0,64.0
798,108.39718464583333,108.50706368541667,59.0,60.0
799,108.39718464583333,108.51916046041667,42.0,70.0
800,108.88206371041667,109.0221846875,54.0,61.0
801,108.88206371041667,109.05141856041668,42.0,60.0
802,108.88206371041667,109.33972503125001,66.0,67.0
803,108.88206371041667,109.35484600000001,61.0,69.0
804,108.88206371041667,109.35887825833333,58.0,65.0
805,109.36492664583334,109.41532987500001,54.0,57.0
806,109.36492664583334,109.43549116666667,42.0,47.0
807,109.60686214583333,109.71371699166667,61.0,57.0
808,109.60686214583333,109.72278957291667,66.0,72.0
809,109.60686214583333,109.72782989583334,41.0,65.0
810,109.60686214583333,109.72782989583334,53.0,74.0
811,109.60686214583333,109.72782989583334,58.0,48.0
812,109.84879764583334,109.89718474583334,65.0,22.0
813,110.09073314583334,110.13710411666668,53.0,60.0
814,110.09073314583334,110.18851541041667,56.0,56.0
815,110.09073314583334,110.25706380208334,65.0,55.0
816,110.33266864583334,110.47278962291668,61.0,69.0
817,110.57460414583333,110.62702350416667,66.0,66.0
818,110.57460414583333,110.69657996041667,61.0,73.0
819,110.57460414583333,110.73287028541667,70.0,70.0
820,110.57460414583333,110.96674126875,39.0,41.0
821,110.57460414583333,111.13105579583333,51.0,39.0
822,111.30041064583334,111.36694290833334,51.0,29.0
823,111.30041064583334,111.43045097708334,39.0,56.0
824,111.05847514583334,111.62097518333334,61.0,73.0
825,111.05847514583334,111.64920099166667,70.0,78.0
826,111.05847514583334,111.65524937916668,66.0,66.0
827,111.78428164583333,112.06653972916668,61.0,72.0
828,111.54234614583333,112.08871715000001,46.0,67.0
829,111.78428164583333,112.15424134791667,70.0,78.0
830,111.78428164583333,112.17037038125001,66.0,66.0
831,112.02722521041667,112.17843489791667,51.0,59.0
832,112.26815264583334,112.38408007291667,61.0,56.0
833,112.51008814583334,112.66533009166668,65.0,68.0
834,112.51008814583334,112.75605590416667,68.0,70.0
835,112.51008814583334,112.77016880833334,61.0,66.0
836,112.51008814583334,113.01916076041667,46.0,62.0
837,112.51008814583334,113.07662044166668,58.0,60.0
838,113.23589464583334,113.29436239166667,46.0,65.0
839,113.23589464583334,113.30041077916667,58.0,42.0
840,112.99395914583334,113.49899950208334,61.0,65.0
841,112.99395914583334,113.50605595416667,65.0,68.0
842,112.99395914583334,113.52218498750001,68.0,71.0
843,113.47783014583334,113.7399269375,53.0,80.0
844,113.71976564583333,113.88811243125001,61.0,66.0
845,113.71976564583333,113.93649953125,65.0,68.0
846,113.71976564583333,113.98387856666668,68.0,79.0
847,113.96170114583335,114.01412050416667,58.0,61.0
848,114.44557214583334,114.55343505625001,63.0,48.0
849,114.44557214583334,114.56351570208334,66.0,62.0
850,114.44557214583334,114.60787054375001,71.0,65.0
851,114.44557214583334,114.89617701458334,47.0,75.0
852,114.44557214583334,114.89819314375,59.0,67.0
853,115.17137864583334,115.2580722,59.0,39.0
854,115.17137864583334,115.28730607291668,47.0,60.0
855,114.92944314583333,115.29436252500001,63.0,61.0
856,114.92944314583333,115.32561252708334,66.0,57.0
857,114.92944314583333,115.52319318541667,71.0,67.0
858,115.41331414583334,115.71976577916668,49.0,71.0
859,115.65625771041667,115.97581418333334,61.0,71.0
860,115.65625771041667,116.00303192708334,65.0,73.0
861,115.89718514583333,116.02520934791667,49.0,65.0
862,115.65625771041667,116.07359644791667,68.0,74.0
863,116.13912064583334,116.27319323541667,61.0,44.0
864,116.38105614583334,116.42742711666668,66.0,59.0
865,116.38105614583334,116.49295131458334,61.0,69.0
866,116.38105614583334,116.50101583125,70.0,77.0
867,116.38105614583334,116.84779004791667,42.0,71.0
868,116.50202389583333,116.94859650625,54.0,21.0
869,117.10686264583335,117.15323361666667,42.0,60.0
870,117.10686264583335,117.17137877916667,54.0,35.0
871,116.86492714583333,117.36694330833333,70.0,72.0
872,116.86492714583333,117.37399976041667,61.0,71.0
873,116.86492714583333,117.37904008333334,66.0,61.0
874,117.34879814583334,117.57964493541667,42.0,64.0
875,117.34879814583334,117.62500784166667,54.0,65.0
876,117.83266914583334,117.88105624583334,49.0,62.0
877,118.07460464583333,118.11694335833334,41.0,62.0
878,118.07460464583333,118.12299174583335,53.0,48.0
879,117.59073364583334,118.15121755416668,66.0,60.0
880,117.59073364583334,118.17944336250001,61.0,73.0
881,117.59073364583334,118.22883852708334,70.0,80.0
882,118.31654014583334,118.81553211458333,39.0,58.0
883,118.31654014583334,118.85182243958334,51.0,61.0
884,119.04335471041668,119.09476600416667,51.0,42.0
885,119.04335471041668,119.1229918125,39.0,59.0
886,118.80141921041667,119.38912086250001,61.0,69.0
887,118.80141921041667,119.39516925000001,66.0,59.0
888,118.80141921041667,119.39718537916667,70.0,75.0
889,119.28428214583334,119.53226603333334,46.0,70.0
890,119.52621764583334,119.82057250416668,61.0,63.0
891,119.76815314583334,119.8246047625,51.0,31.0
892,119.52621764583334,119.84879831250001,70.0,70.0
893,119.52621764583334,119.85283057083333,66.0,64.0
894,119.76815314583334,119.88004831458333,46.0,72.0
895,120.01008864583333,120.12399994375001,61.0,69.0
896,120.01008864583333,120.15827413958334,70.0,72.0
897,120.01008864583333,120.18448381875001,66.0,62.0
898,120.25202414583335,120.85887902500001,47.0,61.0
899,120.25202414583335,121.04133871458333,35.0,62.0
900,120.97783064583334,121.04537097291667,47.0,59.0
901,120.73589514583334,121.16835485208334,66.0,60.0
902,120.73589514583334,121.19254840208333,71.0,75.0
903,120.73589514583334,121.26815324583333,63.0,64.0
904,121.21976614583333,121.512104875,48.0,70.0
905,121.46170164583334,121.75605650416668,63.0,72.0
906,121.46170164583334,121.76412102083334,72.0,80.0
907,121.21976614583333,121.78226618333333,36.0,70.0
908,121.46170164583334,121.84980651041667,68.0,80.0
909,121.70363714583334,121.87198393125,48.0,49.0
910,121.94557264583334,122.02722587708334,63.0,49.0
911,122.18750814583333,122.24395976250001,65.0,58.0
912,122.18750814583333,122.24395976250001,68.0,69.0
913,122.18750814583333,122.30545170208335,73.0,65.0
914,122.18750814583333,122.66633882291667,37.0,59.0
915,122.18750814583333,122.68347592083335,49.0,66.0
916,122.91331464583334,122.95968561666668,37.0,60.0
917,122.91331464583334,122.9697662625,49.0,52.0
918,122.67137914583334,123.17137917916668,73.0,71.0
919,122.67137914583334,123.17944369583334,68.0,77.0
920,122.67137914583334,123.181459825,66.0,59.0
921,123.15525014583334,123.37400016041667,44.0,66.0
922,123.39718564583335,123.4415404875,68.0,80.0
923,123.39718564583335,123.45162113333333,73.0,59.0
924,123.39718564583335,123.48085500625001,66.0,74.0
925,123.88105664583334,123.92742761666668,44.0,57.0
926,124.12299214583334,124.16331472916667,65.0,67.0
927,124.12299214583334,124.16533085833333,49.0,73.0
928,124.12299214583334,124.16734698750001,37.0,75.0
929,124.12299214583334,124.1794437625,61.0,75.0
930,124.12299214583334,124.1794437625,68.0,77.0
931,124.60686314583334,124.6451696,65.0,64.0
932,124.60686314583334,124.64920185833334,61.0,71.0
933,124.60686314583334,124.67742766666667,37.0,75.0
934,124.60686314583334,124.71875831458334,49.0,75.0
935,124.60686314583334,124.72077444375,68.0,82.0
936,125.09073414583334,125.50101643125001,61.0,66.0
937,125.09073414583334,125.53932288541667,70.0,69.0
938,125.09073414583334,125.55746804791667,39.0,73.0
939,125.09073414583334,125.60887934166668,66.0,65.0
940,125.09073414583334,125.66331482916667,51.0,65.0
941,125.57460514583335,125.68851644375,41.0,77.0
942,125.57460514583335,125.71270999375001,61.0,67.0
943,125.57460514583335,125.73891967291668,68.0,84.0
944,126.05948421041667,126.108879375,61.0,47.0
945,126.05948421041667,126.13912131250001,58.0,55.0
946,126.05948421041667,126.17440357291667,66.0,58.0
947,126.05948421041667,126.423395525,42.0,51.0
948,126.05948421041667,126.5806536,54.0,53.0
949,126.78428264583334,126.84879877916667,42.0,42.0
950,126.78428264583334,126.87500845833334,54.0,36.0
951,126.54234714583333,127.00303266041668,66.0,62.0
952,126.54234714583333,127.02521008125001,58.0,65.0
953,126.54234714583333,127.07863750416668,61.0,64.0
954,127.02521008125001,127.26613751666667,49.0,68.0
955,127.26815364583334,127.31049235833333,58.0,64.0
956,127.26815364583334,127.32863752083334,66.0,64.0
957,127.26815364583334,127.35988752291668,61.0,76.0
958,127.75202464583334,127.81654077916667,58.0,61.0
959,127.51008914583333,127.89012949375001,49.0,55.0
960,127.75202464583334,127.89819401041667,61.0,70.0
961,127.75202464583334,127.92238756041667,66.0,51.0
962,127.99396014583334,128.40021017291667,42.0,45.0
963,127.99396014583334,128.49093598541668,54.0,49.0
964,128.47783114583333,128.66432309375,58.0,63.0
965,128.47783114583333,128.721782775,61.0,70.0
966,128.71976664583335,128.76815374583333,42.0,46.0
967,128.47783114583333,128.78025052083333,66.0,47.0
968,128.96170214583333,129.16432312708335,49.0,70.0
969,129.20363764583334,129.32762958958335,58.0,74.0
970,129.20363764583334,129.36795217291666,61.0,78.0
971,129.20363764583334,129.38004894791666,66.0,75.0
972,129.44557314583335,129.4899279875,49.0,59.0
973,129.93045221041666,129.98992802083333,63.0,58.0
974,129.93045221041666,130.04335544375002,66.0,49.0
975,129.93045221041666,130.04738770208334,58.0,64.0
976,129.93045221041666,130.31754901041668,39.0,47.0
977,129.93045221041666,130.42742805,51.0,44.0
978,130.41331514583334,130.7419442,63.0,45.0
979,130.41331514583334,130.76916194375,58.0,50.0
980,130.41331514583334,130.7721861375,66.0,47.0
981,130.89718614583333,131.15827487291668,47.0,51.0
982,130.89718614583333,131.3709765,35.0,45.0
983,131.13912164583334,131.39920230833334,59.0,61.0
984,131.13912164583334,131.42742811666668,66.0,48.0
985,131.38105714583335,131.50101683125,47.0,57.0
986,131.13912164583334,131.50908134791666,63.0,58.0
987,131.62299264583334,131.68549265000001,61.0,55.0
988,131.86492814583335,131.9334765375,61.0,58.0
989,131.86492814583335,131.95363782916667,58.0,47.0
990,131.86492814583335,132.29940398125,42.0,57.0
991,132.59073464583335,132.64315400416666,54.0,47.0
992,132.59073464583335,132.64920239166668,42.0,43.0
993,132.34879914583334,132.80142014375,61.0,72.0
994,132.34879914583334,132.80343627291668,66.0,50.0
995,132.34879914583334,132.82158143541668,58.0,70.0
996,132.83267014583333,133.07258951666668,49.0,76.0
997,133.31654114583333,133.36089598750002,49.0,69.0
998,133.55847664583334,133.60484761666666,53.0,23.0
999,133.55847664583334,133.608879875,41.0,66.0
1000,133.07460564583334,133.78629924166668,66.0,66.0
1001,133.07460564583334,133.86291215,61.0,62.0
1002,133.07460564583334,133.90726699166666,58.0,64.0
1003,133.80142021041667,134.26613798333335,39.0,52.0
1004,133.80142021041667,134.28428314583334,51.0,53.0
1005,134.52621864583335,134.58468639166668,51.0,36.0
1006,134.52621864583335,134.63508962083333,39.0,66.0
1007,134.28428314583334,134.794363825,66.0,50.0
1008,134.28428314583334,134.79637995416667,61.0,57.0
1009,134.28428314583334,134.82057350416667,58.0,60.0
1010,134.76815414583334,135.00202512916667,46.0,71.0
1011,135.01008964583335,135.22279127291668,58.0,62.0
1012,135.01008964583335,135.27621869583334,61.0,73.0
1013,135.25202514583333,135.29234772916666,46.0,71.0
1014,135.01008964583335,135.67037194791666,66.0,64.0
1015,135.61492839583335,135.79940421458335,61.0,34.0
1016,135.73589614583335,136.28025102083333,47.0,63.0
1017,135.73589614583335,136.33267037916667,35.0,61.0
1018,136.46170264583333,136.51008974583334,35.0,37.0
1019,136.46170264583333,136.60182362291667,47.0,65.0
1020,136.21976714583334,136.65625911041667,59.0,66.0
1021,136.21976714583334,136.82460589583334,63.0,64.0
1022,136.21976714583334,136.83771073541666,66.0,50.0
1023,136.70363814583334,136.96976719583333,49.0,69.0
1024,136.70363814583334,137.15222688541667,37.0,68.0
1025,136.94557364583335,137.16331559583335,56.0,72.0
1026,137.18750914583333,137.25202527916667,49.0,58.0
1027,136.94557364583335,137.2923478625,65.0,51.0
1028,136.94557364583335,137.39517045,61.0,68.0
1029,137.67138014583335,137.72379950416666,61.0,49.0
1030,137.67138014583335,137.77823499166666,58.0,57.0
1031,137.67138014583335,137.83166241458335,66.0,64.0
1032,137.67138014583335,138.05343662291668,42.0,52.0
1033,137.67138014583335,138.18952534166667,54.0,62.0
1034,138.39718664583333,138.45767052083335,54.0,60.0
1035,138.15525114583335,138.61392053125002,61.0,58.0
1036,138.15525114583335,138.63508988750002,66.0,61.0
1037,138.15525114583335,138.7157350541667,58.0,55.0
1038,138.63912214583334,138.80746893125,49.0,76.0
1039,138.88105764583335,138.94154152083334,61.0,60.0
1040,138.88105764583335,138.94758990833333,58.0,45.0
1041,138.88105764583335,139.03730765625,66.0,72.0
1042,139.12299314583333,139.2026302479167,49.0,61.0
1043,139.36492864583334,139.4213802625,54.0,36.0
1044,139.36492864583334,139.54537220625,58.0,58.0
1045,139.60686414583333,139.70767060416668,61.0,76.0
1046,139.60686414583333,139.73085608958334,58.0,70.0
1047,139.60686414583333,139.77621899583335,66.0,73.0
1048,139.60686414583333,140.19355773333334,42.0,67.0
1049,139.60686414583333,140.21371902500002,54.0,66.0
1050,140.33267064583333,140.45666258958335,54.0,80.0
1051,140.33267064583333,140.48488839791668,42.0,67.0
1052,140.09073514583335,140.48892065625,61.0,73.0
1053,140.09073514583335,140.50908194791668,58.0,73.0
1054,140.09073514583335,140.50908194791668,66.0,80.0
1055,140.57460614583334,140.57561421041666,41.0,65.0
1056,140.57460614583334,140.57561421041666,53.0,74.0
1057,140.57460614583334,140.57561421041666,66.0,72.0
1058,140.57460614583334,140.62299324583333,61.0,57.0
1059,140.57460614583334,140.63710615,58.0,48.0
1060,140.57460614583334,140.67037228125,49.0,85.0
1061,140.81654164583335,140.86492874583334,65.0,22.0
1062,141.05847714583334,141.1048481166667,53.0,60.0
1063,141.05847714583334,141.15625941041668,56.0,56.0
1064,141.05847714583334,141.22480780208335,65.0,55.0
1065,141.30041264583335,141.44053362291666,61.0,69.0
1066,141.54234814583333,141.59476750416667,66.0,66.0
1067,141.54234814583333,141.66432396041668,61.0,73.0
1068,141.54234814583333,141.70061428541666,70.0,70.0
1069,141.54234814583333,141.93448526875,39.0,41.0
1070,141.54234814583333,142.09879979583334,51.0,39.0
1071,142.26815464583333,142.33468690833334,51.0,29.0
1072,142.26815464583333,142.39819497708334,39.0,56.0
1073,142.02621914583335,142.58871918333335,61.0,73.0
1074,142.02621914583335,142.61694499166668,70.0,78.0
1075,142.02621914583335,142.62299337916667,66.0,66.0
1076,142.75202564583333,143.03428372916667,61.0,72.0
1077,142.51009014583335,143.05646115000002,46.0,67.0
1078,142.75202564583333,143.12198534791668,70.0,78.0
1079,142.75202564583333,143.13811438125,66.0,66.0
1080,142.99496921041668,143.14617889791668,51.0,59.0
1081,143.23589664583335,143.35182407291668,61.0,56.0
1082,143.47783214583333,143.63307409166669,65.0,68.0
1083,143.47783214583333,143.72379990416667,68.0,70.0
1084,143.47783214583333,143.73791280833333,61.0,66.0
1085,143.47783214583333,143.98690476041668,46.0,62.0
1086,143.47783214583333,144.0443644416667,58.0,60.0
1087,144.20363864583334,144.26210639166666,46.0,65.0
1088,144.20363864583334,144.26815477916668,58.0,42.0
1089,143.96170314583335,144.46674350208335,61.0,65.0
1090,143.96170314583335,144.47379995416668,65.0,68.0
1091,143.96170314583335,144.4899289875,68.0,71.0
1092,144.44557414583335,144.7076709375,53.0,80.0
1093,144.68750964583333,144.85585643125,61.0,66.0
1094,144.68750964583333,144.90424353125002,65.0,68.0
1095,144.68750964583333,144.95162256666669,68.0,79.0
1096,144.92944514583334,144.98186450416668,58.0,61.0
1097,145.41331614583333,145.52117905625002,63.0,48.0
1098,145.41331614583333,145.53125970208333,66.0,62.0
1099,145.41331614583333,145.57561454375002,71.0,65.0
1100,145.41331614583333,145.86392101458335,47.0,75.0
1101,145.41331614583333,145.86593714375002,59.0,67.0
1102,146.13912264583334,146.2258162,59.0,39.0
1103,146.13912264583334,146.25505007291667,47.0,60.0
1104,145.89718714583333,146.262106525,63.0,61.0
1105,145.89718714583333,146.29335652708335,66.0,57.0
1106,145.89718714583333,146.49093718541667,71.0,67.0
1107,146.38105814583335,146.68750977916667,49.0,71.0
1108,146.62400171041668,146.94355818333335,61.0,71.0
1109,146.62400171041668,146.97077592708334,65.0,73.0
1110,146.86492914583334,146.99295334791668,49.0,65.0
1111,146.62400171041668,147.04134044791667,68.0,74.0
1112,147.10686464583333,147.24093723541668,61.0,44.0
1113,147.34880014583334,147.39517111666666,66.0,59.0
1114,147.34880014583334,147.46069531458335,61.0,69.0
1115,147.34880014583334,147.46875983125,70.0,77.0
1116,147.34880014583334,147.81553404791669,42.0,71.0
1117,147.46976789583334,147.91634050625,54.0,21.0
1118,148.07460664583334,148.12097761666666,42.0,60.0
1119,148.07460664583334,148.13912277916668,54.0,35.0
1120,147.83267114583333,148.33468730833334,70.0,72.0
1121,147.83267114583333,148.34174376041668,61.0,71.0
1122,147.83267114583333,148.34678408333335,66.0,61.0
1123,148.31654214583335,148.54738893541668,42.0,64.0
1124,148.31654214583335,148.59275184166668,54.0,65.0
1125,148.80041314583335,148.84880024583333,49.0,62.0
1126,149.04234864583333,149.08468735833335,41.0,62.0
1127,149.04234864583333,149.09073574583334,53.0,48.0
1128,148.55847764583334,149.11896155416667,66.0,60.0
1129,148.55847764583334,149.1471873625,61.0,73.0
1130,148.55847764583334,149.19658252708334,70.0,80.0
1131,149.28428414583334,149.78226805,39.0,58.0
1132,149.28428414583334,149.818558375,51.0,61.0
1133,150.01009064583334,150.06251000416668,51.0,42.0
1134,150.01009064583334,150.09073581250001,39.0,59.0
1135,149.76815514583333,150.3568648625,61.0,69.0
1136,149.76815514583333,150.36291325000002,66.0,59.0
1137,149.76815514583333,150.36492937916668,70.0,75.0
1138,150.25202614583333,150.50001003333335,46.0,70.0
1139,150.49396164583334,150.7883165041667,61.0,63.0
1140,150.73589714583335,150.7923487625,51.0,31.0
1141,150.49396164583334,150.81654231250002,70.0,70.0
1142,150.49396164583334,150.82057457083334,66.0,64.0
1143,150.73589714583335,150.84779231458333,46.0,72.0
1144,150.97783264583333,151.09174394375,61.0,69.0
1145,150.97783264583333,151.12601813958335,70.0,72.0
1146,150.97783264583333,151.15222781875002,66.0,62.0
1147,151.21976814583334,151.826623025,47.0,61.0
1148,151.21976814583334,152.00908271458334,35.0,62.0
1149,151.94557464583335,152.01311497291667,47.0,59.0
1150,151.70363914583334,152.13609885208334,66.0,60.0
1151,151.70363914583334,152.16029240208334,71.0,75.0
1152,151.70363914583334,152.23589724583334,63.0,64.0
1153,152.18751014583333,152.47984887500002,48.0,70.0
1154,152.42944564583334,152.72380050416666,63.0,72.0
1155,152.42944564583334,152.73186502083334,72.0,80.0
1156,152.18751014583333,152.75001018333333,36.0,70.0
1157,152.42944564583334,152.81755051041668,68.0,80.0
1158,152.67138114583335,152.83972793125,48.0,49.0
1159,152.91331664583333,152.99496987708335,63.0,49.0
1160,153.15525214583334,153.2117037625,65.0,58.0
1161,153.15525214583334,153.2117037625,68.0,69.0
1162,153.15525214583334,153.27319570208334,73.0,65.0
1163,153.15525214583334,153.63408282291667,37.0,59.0
1164,153.15525214583334,153.65121992083334,49.0,66.0
1165,153.88105864583335,153.92742961666667,37.0,60.0
1166,153.88105864583335,153.9375102625,49.0,52.0
1167,153.63912314583334,154.1391231791667,73.0,71.0
1168,153.63912314583334,154.14718769583334,68.0,77.0
1169,153.63912314583334,154.149203825,66.0,59.0
1170,154.12299414583333,154.34174416041668,44.0,66.0
1171,154.36492964583334,154.4092844875,68.0,80.0
1172,154.36492964583334,154.41936513333334,73.0,59.0
1173,154.36492964583334,154.44859900625002,66.0,74.0
1174,154.84880064583334,154.8951716166667,44.0,57.0
1175,155.09073614583335,155.13105872916668,65.0,67.0
1176,155.09073614583335,155.13307485833334,49.0,73.0
1177,155.09073614583335,155.1350909875,37.0,75.0
1178,155.09073614583335,155.1471877625,61.0,75.0
1179,155.09073614583335,155.1471877625,68.0,77.0
1180,155.57460714583334,155.6129136,65.0,64.0
1181,155.57460714583334,155.61694585833334,61.0,71.0
1182,155.57460714583334,155.64517166666667,37.0,75.0
1183,155.57460714583334,155.68650231458335,49.0,75.0
1184,155.57460714583334,155.68851844375,68.0,82.0
1185,156.05847814583333,156.46876043125002,61.0,66.0
1186,156.05847814583333,156.50706688541666,70.0,69.0
1187,156.05847814583333,156.52521204791668,39.0,73.0
1188,156.05847814583333,156.57662334166668,66.0,65.0
1189,156.05847814583333,156.63105882916668,51.0,65.0
1190,156.54234914583333,156.65626044375,41.0,77.0
1191,156.54234914583333,156.68045399375,61.0,67.0
1192,156.54234914583333,156.70666367291668,68.0,84.0
1193,157.02722821041667,157.076623375,61.0,47.0
1194,157.02722821041667,157.10686531250002,58.0,55.0
1195,157.02722821041667,157.14214757291668,66.0,58.0
1196,157.02722821041667,157.391139525,42.0,51.0
1197,157.02722821041667,157.54839760000002,54.0,53.0
1198,157.75202664583335,157.81654277916667,42.0,42.0
1199,157.75202664583335,157.84275245833334,54.0,36.0
1200,157.51009114583334,157.97077666041667,66.0,62.0
1201,157.51009114583334,157.99295408125002,58.0,65.0
1202,157.51009114583334,158.04638150416667,61.0,64.0
1203,157.99295408125002,158.23388151666668,49.0,68.0
1204,158.23589764583335,158.27823635833334,58.0,64.0
1205,158.23589764583335,158.29638152083334,66.0,64.0
1206,158.23589764583335,158.32763152291668,61.0,76.0
1207,158.71976864583334,158.78428477916668,58.0,61.0
1208,158.47783314583333,158.85787349375002,49.0,55.0
1209,158.71976864583334,158.86593801041667,61.0,70.0
1210,158.71976864583334,158.89013156041668,66.0,51.0
1211,158.96170414583335,159.36795417291668,42.0,45.0
1212,158.96170414583335,159.45867998541667,54.0,49.0
1213,159.44557514583335,159.63206709375,58.0,63.0
1214,159.44557514583335,159.68952677500002,61.0,70.0
1215,159.68751064583333,159.73589774583334,42.0,46.0
1216,159.44557514583335,159.74799452083334,66.0,47.0
1217,159.92944614583334,160.13206712708333,49.0,70.0
1218,160.17138164583335,160.29537358958333,58.0,74.0
1219,160.17138164583335,160.33569617291667,61.0,78.0
1220,160.17138164583335,160.34779294791667,66.0,75.0
1221,160.41331714583333,160.45767198750002,49.0,59.0
1222,160.89819621041667,160.95767202083334,63.0,58.0
1223,160.89819621041667,161.01109944375,66.0,49.0
1224,160.89819621041667,161.01513170208335,58.0,64.0
1225,160.89819621041667,161.28529301041667,39.0,47.0
1226,160.89819621041667,161.39517205,51.0,44.0
1227,161.38105914583335,161.70968820000002,63.0,45.0
1228,161.38105914583335,161.73690594375,58.0,50.0
1229,161.38105914583335,161.7399301375,66.0,47.0
1230,161.86493014583334,162.1260188729167,47.0,51.0
1231,161.86493014583334,162.3387205,35.0,45.0
1232,162.10686564583335,162.36694630833335,59.0,61.0
1233,162.10686564583335,162.39517211666669,66.0,48.0
1234,162.34880114583333,162.46876083125,47.0,57.0
1235,162.10686564583335,162.47682534791667,63.0,58.0
1236,162.59073664583335,162.65323665,61.0,55.0
1237,162.83267214583333,162.9012205375,61.0,58.0
1238,162.83267214583333,162.92138182916668,58.0,47.0
1239,162.83267214583333,163.26714798125002,42.0,57.0
1240,163.55847864583333,163.61089800416667,54.0,47.0
1241,163.55847864583333,163.6169463916667,42.0,43.0
1242,163.31654314583335,163.76916414375,61.0,72.0
1243,163.31654314583335,163.77118027291667,66.0,50.0
1244,163.31654314583335,163.78932543541669,58.0,70.0
1245,163.80041414583334,164.04033351666666,49.0,76.0
1246,164.28428514583334,164.3286399875,49.0,69.0
1247,164.52622064583335,164.57259161666667,53.0,23.0
1248,164.52622064583335,164.576623875,41.0,66.0
1249,164.04234964583335,164.75404324166666,66.0,66.0
1250,164.04234964583335,164.83065615,61.0,62.0
1251,164.04234964583335,164.87501099166667,58.0,64.0
1252,164.76916421041668,165.23388198333333,39.0,52.0
1253,164.76916421041668,165.25202714583335,51.0,53.0
1254,165.49396264583334,165.55243039166666,51.0,36.0
1255,165.49396264583334,165.60283362083334,39.0,66.0
1256,165.25202714583335,165.76210782500002,66.0,50.0
1257,165.25202714583335,165.76412395416668,61.0,57.0
1258,165.25202714583335,165.78831750416668,58.0,60.0
1259,165.73589814583335,165.96976912916668,46.0,71.0
1260,165.97783364583333,166.19053527291666,58.0,62.0
1261,165.97783364583333,166.24396269583335,61.0,73.0
1262,166.21976914583334,166.26009172916667,46.0,71.0
1263,165.97783364583333,166.63811594791667,66.0,64.0
1264,166.58267239583333,166.76714821458333,61.0,34.0
1265,166.70364014583333,167.24799502083334,47.0,63.0
1266,166.70364014583333,167.30041437916668,35.0,61.0
1267,167.42944664583334,167.47783374583335,35.0,37.0
1268,167.42944664583334,167.56956762291668,47.0,65.0
1269,167.18751114583335,167.62400311041668,59.0,66.0
1270,167.18751114583335,167.79234989583335,63.0,64.0
1271,167.18751114583335,167.80545473541667,66.0,50.0
1272,167.67138214583335,167.93751119583334,49.0,69.0
1273,167.67138214583335,168.11997088541668,37.0,68.0
1274,167.91331764583333,168.13105959583334,56.0,72.0
1275,168.15525314583334,168.21976927916668,49.0,58.0
1276,167.91331764583333,168.26009186250002,65.0,51.0
1277,167.91331764583333,168.36291445,61.0,68.0
1278,168.63912414583334,168.69154350416667,61.0,49.0
1279,168.63912414583334,168.74597899166668,58.0,57.0
1280,168.63912414583334,168.79940641458333,66.0,64.0
1281,168.63912414583334,169.0211806229167,42.0,52.0
1282,168.63912414583334,169.15726934166668,54.0,62.0
1283,169.36493064583334,169.42541452083333,54.0,60.0
1284,169.12299514583333,169.58166453125,61.0,58.0
1285,169.12299514583333,169.6028338875,66.0,61.0
1286,169.12299514583333,169.68347905416667,58.0,55.0
1287,169.60686614583335,169.77521293125,49.0,76.0
1288,169.84880164583333,169.90928552083335,61.0,60.0
1289,169.84880164583333,169.91533390833334,58.0,45.0
1290,169.84880164583333,170.00505165625,66.0,72.0
1291,170.09073714583334,170.17037424791667,49.0,61.0
1292,170.33267264583336,170.38912426250002,54.0,36.0
1293,170.33267264583336,170.51311620625,58.0,58.0
1294,170.57460814583334,170.625011375,61.0,71.0
1295,170.57460814583334,170.6310597625,58.0,59.0
1296,170.57460814583334,170.6310597625,66.0,66.0
1297,170.57460814583334,170.67541460416666,42.0,66.0
1298,170.57460814583334,170.68146299166668,54.0,68.0
1299,171.05847914583333,171.108882375,54.0,63.0
1300,171.05847914583333,171.11089850416667,58.0,57.0
1301,171.05847914583333,171.11291463333333,42.0,67.0
1302,171.05847914583333,171.1169468916667,61.0,33.0
1303,171.05847914583333,171.16230979791666,66.0,72.0
1304,171.54235014583335,171.592753375,61.0,47.0
1305,171.54235014583335,171.63610015208334,54.0,54.0
1306,171.54235014583335,171.64618079791668,68.0,73.0
1307,171.54235014583335,171.66432596041668,42.0,62.0
1308,172.02622114583335,172.08065663333335,70.0,67.0
1309,172.02622114583335,172.08468889166667,42.0,59.0
1310,172.02622114583335,172.11493082916667,54.0,69.0
1311,172.51009214583334,172.58972924791667,66.0,69.0
1312,172.51009214583334,172.62198731458335,61.0,72.0
1313,172.51009214583334,172.65827763958333,70.0,78.0
1314,172.51009214583334,173.04839863333333,39.0,57.0
1315,172.51009214583334,173.10787444375,51.0,60.0
1316,173.23589864583334,173.29638252083333,51.0,37.0
1317,173.23589864583334,173.36190671875002,39.0,70.0
1318,172.99396314583333,173.56654382916668,70.0,79.0
1319,172.99396314583333,173.57460834583335,66.0,69.0
1320,172.99396314583333,173.59880189583333,61.0,73.0
1321,173.47783414583336,173.94456804791668,46.0,74.0
1322,173.71976964583334,173.9596890166667,70.0,64.0
1323,173.71976964583334,173.963721275,61.0,74.0
1324,173.71976964583334,174.04033418333333,66.0,73.0
1325,173.96170514583335,174.08267289583335,51.0,61.0
1326,174.44557614583334,174.62400357708333,63.0,59.0
1327,174.44557614583334,174.64618099791667,66.0,59.0
1328,174.44557614583334,174.65626164375,71.0,69.0
1329,174.44557614583334,174.9758181166667,59.0,60.0
1330,174.44557614583334,175.00807618333334,47.0,66.0
1331,174.92944714583334,175.27319716875002,66.0,66.0
1332,174.92944714583334,175.30343910625,71.0,78.0
1333,175.17138264583335,175.32964878541668,59.0,55.0
1334,174.92944714583334,175.34981007708333,63.0,76.0
1335,175.17138264583335,175.35585846458335,47.0,58.0
1336,175.41331814583333,175.71775365000002,49.0,78.0
1337,175.65525364583334,175.77924558958335,61.0,76.0
1338,175.65525364583334,175.77924558958335,65.0,74.0
1339,175.65525364583334,175.78327784791668,68.0,82.0
1340,175.89718914583335,175.98085850625,49.0,62.0
1341,176.13912464583333,176.25404400833335,58.0,54.0
1342,176.38106014583335,176.42138272916668,61.0,74.0
1343,176.38106014583335,176.48589886250002,58.0,57.0
1344,176.38106014583335,176.49396337916667,66.0,75.0
1345,176.38106014583335,176.8971892125,42.0,69.0
1346,176.38106014583335,176.8992053416667,54.0,73.0
1347,176.86493114583334,177.02319728541667,58.0,72.0
1348,176.86493114583334,177.04537470625002,61.0,85.0
1349,176.86493114583334,177.06251180416666,66.0,69.0
1350,177.10686664583335,177.157269875,54.0,58.0
1351,177.10686664583335,177.22682633125,42.0,66.0
1352,177.34880214583333,177.59981022708334,49.0,79.0
1353,177.59073764583334,177.6350924875,66.0,73.0
1354,177.59073764583334,177.67843926458335,63.0,77.0
1355,177.59073764583334,177.71876184791668,71.0,77.0
1356,177.83267314583335,178.01714896458336,49.0,64.0
1357,178.07460864583334,178.27118123958334,61.0,70.0
1358,178.07460864583334,178.29134253125,66.0,84.0
1359,178.07460864583334,178.29134253125,70.0,86.0
1360,178.32057640416667,178.43650383125,61.0,76.0
1361,178.31755221041666,178.4445683479167,66.0,78.0
1362,178.32158446875002,178.45364092916668,70.0,76.0
1363,178.3246086625,178.46674576875,42.0,82.0
1364,178.32864092083335,178.46876189791666,54.0,93.0
1365,178.80444740416667,178.91432644375,61.0,91.0
1366,178.8014232104167,178.91432644375,66.0,97.0
1367,178.80948772708334,178.91735063750002,54.0,91.0
1368,178.81452805,178.91936676666668,42.0,95.0
1369,178.79940708125,178.93045547708334,70.0,85.0
