,start,end,pitch,velocity
0,22.219768333333334,22.443366875,66.0,87.0
1,22.543043333333333,22.994281354166667,68.0,97.0
2,23.189593333333335,23.626014583333333,69.0,93.0
3,23.836143333333332,24.089375416666666,69.0,82.0
4,24.159418333333335,24.502898020833335,68.0,87.0
5,24.805968333333333,25.044383645833335,68.0,97.0
6,25.129243333333335,25.754241666666665,73.0,92.0
7,26.422343333333334,26.643247916666667,71.0,105.0
8,26.745618333333333,27.20359125,73.0,92.0
9,27.392168333333334,27.615766875000002,66.0,60.0
10,27.715443333333333,28.553264375,66.0,92.0
11,29.978368333333332,30.266621875000002,65.0,70.0
12,30.301643333333335,30.447117083333335,66.0,84.0
13,30.624918333333333,30.762310208333332,66.0,82.0
14,30.948193333333332,31.11521875,66.0,76.0
15,31.271468333333335,31.548946041666667,68.0,92.0
16,31.594743333333334,31.7415640625,66.0,80.0
17,31.918018333333332,32.40831875,68.0,94.0
18,32.564568333333334,34.021999791666666,69.0,96.0
19,36.12059333333333,36.3643965625,66.0,87.0
20,36.443868333333334,36.6230165625,69.0,96.0
21,36.76714333333334,36.958414375000004,66.0,100.0
22,37.09041833333333,37.26283166666667,78.0,108.0
23,37.413693333333335,37.5685959375,78.0,84.0
24,37.73696833333334,37.88917697916667,78.0,97.0
25,38.06024333333333,38.24882041666667,78.0,89.0
26,38.383518333333335,38.660996041666664,78.0,100.0
27,39.03006833333333,39.172848125,76.0,100.0
28,39.353343333333335,39.61869822916667,71.0,89.0
29,39.67661833333333,40.67742385416667,73.0,76.0
30,41.292993333333335,41.41826239583333,73.0,89.0
31,41.61626833333333,41.744231354166665,73.0,94.0
32,41.93954333333333,42.085017083333334,73.0,94.0
33,42.262818333333335,42.405598125,74.0,102.0
34,42.58609333333333,42.784757470833334,74.0,99.0
35,42.90808174583333,43.10111104583333,73.0,87.0
36,43.22979724583333,43.44025280208333,66.0,102.0
37,44.51665924583333,44.724433839583334,69.0,77.0
38,44.83837474583333,45.09038522083333,73.0,97.0
39,45.16009024583333,45.35580050833333,71.0,89.0
40,45.48180574583333,46.35445903958333,68.0,97.0
41,47.41209874583333,47.69762125208333,69.0,79.0
42,47.73381424583333,49.16586124791666,66.0,60.0
43,51.25940471249999,51.490071379166665,70.0,111.0
44,51.57940471249999,51.77376271041666,71.0,105.0
45,51.89876253958333,52.098230352083334,73.0,102.0
46,52.21791103958333,52.41737885208333,66.0,108.0
47,52.53705953958333,53.08647530625,76.0,108.0
48,53.17787297291667,53.544807722916666,74.0,102.0
49,53.823032972916664,54.052871222916664,74.0,90.0
50,54.145612972916666,54.35260180625,74.0,108.0
51,54.46819297291667,54.70340755625,73.0,102.0
52,54.79077297291666,55.693996972916665,74.0,105.0
53,56.40367297291667,56.628134889583336,64.0,105.0
54,56.72625297291667,56.91711280625,66.0,102.0
55,57.048832972916664,57.23969280625,68.0,105.0
56,57.371412972916666,57.58915447291667,64.0,100.0
57,57.69399297291667,57.92383122291667,74.0,102.0
58,58.01657297291666,58.496410722916664,73.0,102.0
59,58.66173297291667,58.98431297291667,73.0,94.0
60,58.98431297291667,59.18189322291667,71.0,102.0
61,59.306892972916664,59.54613980625,69.0,105.0
62,59.629472972916666,59.86199938958333,71.0,105.0
63,59.95205297291667,60.93861013958333,73.0,94.0
64,61.564952972916664,61.78538263958333,70.0,105.0
65,61.88753297291667,62.07301647291666,71.0,108.0
66,62.21011297291667,62.43995122291667,73.0,108.0
67,62.532692972916664,62.762531222916664,66.0,102.0
68,62.855272972916666,63.10661655625,76.0,111.0
69,63.17785297291667,63.37140097291667,74.0,96.0
70,63.50043297291667,63.67919605625,74.0,99.0
71,63.823012972916665,64.14559297291666,74.0,99.0
72,64.14559297291666,64.46817297291666,74.0,99.0
73,64.79075297291666,64.99639772291667,78.0,105.0
74,65.11333297291667,65.62811688958334,78.0,100.0
75,65.75849297291667,66.25042747291667,76.0,100.0
76,66.72623297291666,66.94128630625,76.0,97.0
77,67.04881297291666,67.22757605625,78.0,97.0
78,67.37139297291667,67.51386580625,80.0,102.0
79,67.69397297291667,67.87945647291667,76.0,102.0
80,68.01655297291667,68.51924013958333,73.0,92.0
81,68.66171297291666,68.80418580625,73.0,97.0
82,68.98429297291666,69.13617438958333,73.0,89.0
83,69.30687297291666,69.61735622291667,73.0,108.0
84,69.95203297291667,70.16036588958333,71.0,108.0
85,70.27461297291667,70.49101038958334,69.0,109.0
86,70.59719297291667,70.80955813958333,71.0,97.0
87,70.91977297291666,73.82299297291667,73.0,100.0
88,75.75847297291666,76.04476272291667,81.0,102.0
89,76.08105297291667,76.21814947291666,80.0,89.0
90,76.40363297291667,76.68454638958333,80.0,105.0
91,76.72621297291667,76.89287930625,78.0,100.0
92,77.04879297291667,77.26922263958333,73.0,108.0
93,77.37137297291667,77.51787805625,78.0,111.0
94,77.69395297291666,77.84314622291667,80.0,100.0
95,78.01653297291666,78.18588747291668,81.0,109.0
96,78.33911297291667,78.55685447291667,85.0,114.0
97,78.66169297291667,78.80819805625,83.0,108.0
98,78.98427297291667,79.16572422291667,83.0,90.0
99,79.30685297291667,79.54206755625,81.0,87.0
100,79.62943297291667,80.53265697291667,74.0,80.0
101,80.91975297291667,81.15227938958333,85.0,100.0
102,81.24233297291667,81.39421438958334,83.0,92.0
103,81.56491297291667,81.76249322291667,83.0,105.0
104,81.88749297291668,82.08507322291666,80.0,100.0
105,82.21007297291666,82.42512630625001,76.0,100.0
106,82.53265297291667,82.73023322291667,78.0,66.0
107,82.85523297291667,83.03130788958333,80.0,97.0
108,83.17781297291667,83.47351130625,76.0,100.0
109,83.50039297291667,85.09850805625001,73.0,84.0
110,85.75845297291667,86.02995780625,73.0,108.0
111,86.08103297291666,86.60119322291666,71.0,100.0
112,86.72619297291666,86.96812797291668,73.0,94.0
113,87.04877297291667,88.02995380625,74.0,112.0
114,88.33909297291666,88.57833980625,74.0,112.0
115,88.66167297291668,89.42780047291666,73.0,100.0
116,89.62941297291667,89.85656305625,77.0,105.0
117,89.95199297291667,90.66704530625,78.0,100.0
118,90.91973297291668,91.12806588958333,78.0,97.0
119,91.24231297291666,91.48693613958334,85.0,108.0
120,91.56489297291667,91.69392497291668,83.0,97.0
121,91.88747297291667,92.03397805624999,83.0,108.0
122,92.21005297291667,92.41300955625,81.0,109.0
123,92.53263297291667,92.92644938958333,75.0,105.0
124,93.17779297291668,93.50037297291667,77.0,102.0
125,93.50037297291667,93.69123280625,78.0,94.0
126,93.82295297291667,95.76784155625,80.0,111.0
127,96.40359297291667,96.68988272291668,81.0,102.0
128,96.72617297291667,96.86326947291667,80.0,89.0
129,97.04875297291667,97.32966638958334,80.0,105.0
130,97.37133297291666,97.53799930625,78.0,100.0
131,97.69391297291668,97.91434263958334,73.0,108.0
132,98.01649297291667,98.16299805625,78.0,111.0
133,98.33907297291667,98.48826622291668,80.0,100.0
134,98.66165297291667,98.83100747291667,81.0,109.0
135,98.98423297291667,99.20197447291667,85.0,114.0
136,99.30681297291667,99.45331805625,83.0,108.0
137,99.62939297291666,99.81084422291667,83.0,90.0
138,99.95197297291668,100.18718755625,81.0,87.0
139,100.27455297291667,101.17777697291666,74.0,80.0
140,101.56487297291667,101.79739938958333,85.0,100.0
141,101.88745297291666,102.03933438958333,83.0,92.0
142,102.21003297291668,102.40761322291667,83.0,105.0
143,102.53261297291667,102.73019322291667,80.0,100.0
144,102.85519297291667,103.07024630625,76.0,100.0
145,103.17777297291667,103.37535322291667,78.0,66.0
146,103.50035297291667,104.14013663958335,80.0,97.0
147,104.40357697291667,104.57965188958335,73.0,92.0
148,104.71809247291667,104.94255438958334,74.0,105.0
149,105.03798430625,106.04067047291667,73.0,100.0
150,106.40357297291666,106.67507780625,73.0,108.0
151,106.72615297291668,107.24631322291667,71.0,100.0
152,107.37131297291667,107.61324797291667,73.0,94.0
153,107.69389297291667,108.67507380625,74.0,112.0
154,108.98421297291668,109.22345980625,74.0,112.0
155,109.30679297291667,110.07292047291668,73.0,100.0
156,110.27453297291666,110.50168305625,77.0,105.0
157,110.59711297291668,111.31216530625,78.0,100.0
158,111.56485297291667,111.77318588958335,78.0,97.0
159,111.88743297291667,112.13205613958334,85.0,108.0
160,112.21001297291667,112.33904497291667,83.0,97.0
161,112.53259297291666,112.67909805625001,83.0,108.0
162,112.85517297291668,113.05812955625001,81.0,109.0
163,113.17775297291666,113.57156938958335,75.0,105.0
164,113.82291297291667,114.14549297291667,77.0,102.0
165,114.14549297291667,114.33635280625,78.0,94.0
166,114.46807297291667,116.41296155625,80.0,111.0
167,138.98415297291666,139.21667938958333,70.0,111.0
168,139.30673297291668,139.50296913958334,71.0,105.0
169,139.62931297291667,139.83092547291668,73.0,102.0
170,139.95189297291668,140.15350547291666,66.0,108.0
171,140.27447297291667,140.82823530625,76.0,108.0
172,140.91963297291667,141.28656772291666,74.0,102.0
173,141.56479297291668,141.79463122291668,74.0,90.0
174,141.88737297291667,142.09436180625,74.0,108.0
175,142.20995297291668,142.44516755625,73.0,102.0
176,142.53253297291667,143.43575697291666,74.0,105.0
177,144.14543297291667,144.36989488958335,64.0,105.0
178,144.46801297291668,144.65887280625,66.0,102.0
179,144.79059297291667,144.98145280625002,68.0,105.0
180,145.11317297291666,145.33091447291667,64.0,100.0
181,145.43575297291667,145.66559122291667,74.0,102.0
182,145.75833297291666,146.23817072291666,73.0,102.0
183,146.40349297291667,146.72607297291668,73.0,94.0
184,146.72607297291668,146.92365322291667,71.0,102.0
185,147.04865297291667,147.28789980625,69.0,105.0
186,147.37123297291666,147.60375938958333,71.0,105.0
187,147.69381297291667,148.68037013958335,73.0,94.0
188,149.30671297291667,149.52714263958333,70.0,105.0
189,149.62929297291666,149.81477647291666,71.0,108.0
190,149.95187297291668,150.18171122291668,73.0,108.0
191,150.27445297291666,150.50429122291666,66.0,102.0
192,150.59703297291668,150.84837655625,76.0,111.0
193,150.91961297291667,151.11316097291666,74.0,96.0
194,151.24219297291668,151.42095605625,74.0,99.0
195,151.56477297291667,151.88735297291666,74.0,99.0
196,151.88735297291666,152.20993297291668,74.0,99.0
197,152.53251297291666,152.73815772291667,78.0,105.0
198,152.85509297291668,153.36987688958334,78.0,100.0
199,153.50025297291668,153.99218747291667,76.0,100.0
200,154.46799297291668,154.68304630625002,76.0,97.0
201,154.79057297291666,154.96933605625,78.0,97.0
202,155.11315297291668,155.25562580625,80.0,102.0
203,155.43573297291667,155.62121647291667,76.0,102.0
204,155.75831297291668,156.26100013958333,73.0,92.0
205,156.40347297291666,156.54594580625002,73.0,97.0
206,156.72605297291668,156.87793438958334,73.0,89.0
207,157.04863297291666,157.35911622291667,73.0,108.0
208,157.69379297291667,157.90212588958335,71.0,108.0
209,158.01637297291668,158.23277038958335,69.0,109.0
210,158.33895297291667,158.55131813958334,71.0,97.0
211,158.66153297291666,161.56475297291666,73.0,100.0
212,163.50023297291668,163.7865227229167,81.0,102.0
213,163.82281297291667,163.95990947291668,80.0,89.0
214,164.14539297291668,164.42630638958335,80.0,105.0
215,164.46797297291667,164.63463930625,78.0,100.0
216,164.7905529729167,165.01098263958335,73.0,108.0
217,165.11313297291667,165.25963805625,78.0,111.0
218,165.43571297291666,165.5849062229167,80.0,100.0
219,165.75829297291668,165.92764747291668,81.0,109.0
220,166.08087297291667,166.29861447291668,85.0,114.0
221,166.40345297291668,166.54995805625,83.0,108.0
222,166.72603297291667,166.90748422291668,83.0,90.0
223,167.0486129729167,167.28382755625,81.0,87.0
224,167.37119297291667,168.27441697291667,74.0,80.0
225,168.66151297291668,168.89403938958333,85.0,100.0
226,168.98409297291667,169.13597438958334,83.0,92.0
227,169.3066729729167,169.50425322291667,83.0,105.0
228,169.62925297291667,169.82683322291666,80.0,100.0
229,169.95183297291666,170.16688630625,76.0,100.0
230,170.27441297291668,170.47199322291667,78.0,66.0
231,170.59699297291667,170.77306788958333,80.0,97.0
232,170.91957297291668,171.21527130625,76.0,100.0
233,171.24215297291667,172.84026805625,73.0,84.0
234,173.50021297291667,173.77171780625,73.0,108.0
235,173.8227929729167,174.34295322291666,71.0,100.0
236,174.46795297291666,174.70988797291668,73.0,94.0
237,174.79053297291668,175.77171380625,74.0,112.0
238,176.0808529729167,176.32009980625,74.0,112.0
239,176.40343297291668,177.1695604729167,73.0,100.0
240,177.37117297291667,177.59832305625,77.0,105.0
241,177.69375297291668,178.40880530625,78.0,100.0
242,178.66149297291668,178.86982588958335,78.0,97.0
243,178.98407297291666,179.22869613958335,85.0,108.0
244,179.30665297291668,179.43568497291668,83.0,97.0
245,179.62923297291667,179.77573805625002,83.0,108.0
246,179.95181297291668,180.15476955625002,81.0,109.0
247,180.27439297291667,180.66820938958335,75.0,105.0
248,180.91955297291668,181.2421329729167,77.0,102.0
249,181.2421329729167,181.43299280625,78.0,94.0
250,181.56471297291668,183.50960155625,80.0,111.0
251,184.14535297291667,184.43164272291668,81.0,102.0
252,184.46793297291669,184.60502947291667,80.0,89.0
253,184.79051297291667,185.07142638958334,80.0,105.0
254,185.1130929729167,185.27975930625,78.0,100.0
255,185.43567297291668,185.65610263958334,73.0,108.0
256,185.7582529729167,185.90475805625002,78.0,111.0
257,186.08083297291668,186.23002622291668,80.0,100.0
258,186.40341297291667,186.5727674729167,81.0,109.0
259,186.72599297291669,186.94373447291667,85.0,114.0
260,187.04857297291667,187.19507805625003,83.0,108.0
261,187.3711529729167,187.55260422291667,83.0,90.0
262,187.69373297291668,187.92894755625002,81.0,87.0
263,188.0163129729167,188.9195369729167,74.0,80.0
264,189.30663297291667,189.53915938958335,85.0,100.0
265,189.6292129729167,189.78109438958336,83.0,92.0
266,189.95179297291668,190.1493732229167,83.0,105.0
267,190.2743729729167,190.47195322291668,80.0,100.0
268,190.59695297291668,190.81200630625003,76.0,100.0
269,190.91953297291667,191.1171132229167,78.0,66.0
270,191.2421129729167,191.88189663958335,80.0,97.0
271,192.14533697291668,192.32141188958335,73.0,92.0
272,192.45985247291668,192.68431438958334,74.0,105.0
273,192.77974430625002,193.78243047291667,73.0,100.0
274,194.1453329729167,194.41683780625002,73.0,108.0
275,194.46791297291668,194.98807322291668,71.0,100.0
276,195.11307297291668,195.3550079729167,73.0,94.0
277,195.43565297291667,196.41683380625003,74.0,112.0
278,196.72597297291668,196.96521980625002,74.0,112.0
279,197.0485529729167,197.81468047291668,73.0,100.0
280,198.0162929729167,198.24344305625002,77.0,105.0
281,198.33887297291668,199.05392530625002,78.0,100.0
282,199.3066129729167,199.51494588958334,78.0,97.0
283,199.62919297291668,199.87381613958334,85.0,108.0
284,199.95177297291667,200.0808049729167,83.0,97.0
285,200.2743529729167,200.42085805625,83.0,108.0
286,200.59693297291668,200.79988955625,81.0,109.0
287,200.9195129729167,201.31332938958334,75.0,105.0
288,201.5646729729167,201.88725297291668,77.0,102.0
289,201.88725297291668,202.07811280625,78.0,94.0
290,202.20983297291667,204.15472155625002,80.0,111.0
291,205.4356329729167,205.65875080625003,66.0,87.0
292,205.75821297291668,206.20848088958334,68.0,97.0
293,206.40337297291669,207.30659697291668,69.0,93.0
294,208.01627297291668,208.25417572291667,68.0,97.0
295,208.33885297291667,209.58347413958336,73.0,92.0
296,209.94100030625,210.17487080625003,71.0,102.0
297,210.27702113958335,210.66814938958336,71.0,97.0
298,210.8751382229167,211.80255572291668,66.0,96.0
299,214.89394738958336,215.01088263958334,66.0,102.0
300,215.12378563958336,215.36303247291667,68.0,96.0
301,215.42351622291667,215.52566655625003,69.0,87.0
302,215.59421480625002,217.5001249729167,69.0,97.0
303,219.30657297291668,219.54985205625002,66.0,87.0
304,219.62915297291667,219.80791605625,69.0,96.0
305,219.9517329729167,220.14259280625,66.0,100.0
306,220.27431297291668,220.44635563958335,78.0,108.0
307,220.5968929729167,220.75146255625,78.0,84.0
308,220.91947297291668,221.07135438958335,78.0,97.0
309,221.2420529729167,221.43022463958334,78.0,89.0
310,221.56463297291668,221.84151413958335,78.0,100.0
311,222.2097929729167,222.35226580625002,76.0,100.0
312,222.53237297291668,222.79715738958336,71.0,89.0
313,222.8549529729167,223.85360688958335,73.0,76.0
314,224.79043297291668,224.91812088958335,73.0,94.0
315,225.1130129729167,225.2581739729167,73.0,94.0
316,225.43559297291668,225.57806580625,74.0,102.0
317,225.7581729729167,225.95709730625,74.0,99.0
318,226.08075297291668,226.27430097291668,73.0,87.0
319,226.40333297291667,226.61435405625002,66.0,102.0
320,227.69365297291668,227.90198588958336,69.0,77.0
321,228.0162329729167,228.26892063958334,73.0,97.0
322,228.33881297291668,228.53504913958335,71.0,89.0
323,228.66139297291667,229.53639122291668,68.0,97.0
324,231.51353780625,232.78907288958334,68.0,96.0
325,232.77697613958335,233.65063030625,69.0,92.0
326,233.57939388958334,235.61164788958334,73.0,72.0
