,start,end,pitch,velocity
0,29.625,30.365624999999998,68.0,84.0
1,30.375,31.285416666666666,75.0,94.0
2,31.625,31.870833333333334,73.0,89.0
3,31.875,32.1,75.0,84.0
4,32.13645833333333,32.416666666666664,73.0,79.0
5,32.40208333333333,33.296875,71.0,89.0
6,33.90208333333333,34.03125,71.0,87.0
7,34.15208333333333,34.26875,71.0,84.0
8,34.40208333333333,34.704166666666666,71.0,64.0
9,34.65208333333333,35.157291666666666,70.0,68.0
10,35.15208333333333,35.64895833333333,68.0,57.0
11,35.65208333333333,35.922916666666666,66.0,64.0
12,35.90208333333333,37.24791666666667,68.0,82.0
13,37.65208333333333,38.463541666666664,68.0,90.0
14,38.40208333333333,39.465625,80.0,101.0
15,39.65208333333333,39.94375,78.0,90.0
16,39.90208333333333,40.166666666666664,80.0,66.0
17,40.15208333333333,40.35729166666667,78.0,72.0
18,40.40208333333333,41.3,75.0,85.0
19,41.90208333333333,42.0125,73.0,86.0
20,42.15208333333333,42.286458333333336,73.0,84.0
21,42.40208333333333,42.516666666666666,73.0,80.0
22,42.65208333333333,43.104166666666664,73.0,84.0
23,43.15208333333333,43.39270833333333,71.0,90.0
24,43.40208333333333,43.92395833333333,68.0,79.0
25,43.90208333333333,45.23020833333333,70.0,87.0
26,45.65208333333333,46.41041666666666,68.0,97.0
27,46.40208333333333,47.453125,75.0,105.0
28,47.65208333333333,47.932291666666664,73.0,105.0
29,47.90208333333333,48.182291666666664,75.0,93.0
30,48.15208333333333,48.440625,73.0,90.0
31,48.40208333333333,49.291666666666664,71.0,96.0
32,49.90208333333333,50.032291666666666,71.0,94.0
33,50.15208333333333,50.296875,71.0,84.0
34,50.40208333333333,50.68125,71.0,80.0
35,50.65208333333333,51.155208333333334,70.0,87.0
36,51.15208333333333,51.5,68.0,71.0
37,51.40208333333333,51.921875,66.0,66.0
38,51.90208333333333,53.219791666666666,68.0,84.0
39,53.65208333333333,54.19895833333333,68.0,96.0
40,54.15208333333333,55.440625,80.0,72.0
41,55.65208333333333,55.918749999999996,78.0,91.0
42,55.90208333333333,56.190625,80.0,84.0
43,56.15208333333333,56.378125,78.0,64.0
44,56.40208333333333,57.06875,75.0,96.0
45,57.90208333333333,58.030208333333334,80.0,91.0
46,58.15208333333333,58.30104166666666,80.0,77.0
47,58.40208333333333,58.594791666666666,80.0,79.0
48,58.65208333333333,59.161458333333336,82.0,86.0
49,59.15208333333333,59.498958333333334,80.0,90.0
50,59.416666666666664,60.25,78.0,79.0
51,60.25,64.35208333333333,80.0,95.0
52,65.65208333333334,66.009375,80.0,96.0
53,66.02708333333334,66.15208333333334,78.0,73.0
54,66.15416666666667,66.32916666666667,75.0,82.0
55,66.40208333333334,66.57708333333333,75.0,82.0
56,66.65208333333334,66.97395833333333,80.0,94.0
57,67.02708333333334,67.19270833333333,78.0,66.0
58,67.15208333333334,67.375,80.0,82.0
59,67.40208333333334,67.63020833333333,83.0,83.0
60,67.65208333333334,67.96875,78.0,90.0
61,68.02708333333334,68.23125,75.0,65.0
62,68.15208333333334,68.39375,78.0,82.0
63,68.40208333333334,68.68645833333333,80.0,91.0
64,68.65208333333334,69.32708333333333,78.0,90.0
65,69.65208333333334,69.990625,73.0,93.0
66,70.02708333333334,70.17708333333333,71.0,75.0
67,70.15208333333334,70.28645833333333,68.0,77.0
68,70.40208333333334,70.634375,68.0,66.0
69,70.65208333333334,71.02708333333334,73.0,90.0
70,71.02708333333334,71.20625,71.0,77.0
71,71.15208333333334,71.37291666666667,73.0,74.0
72,71.40208333333334,71.69375,75.0,85.0
73,71.65208333333334,71.990625,71.0,90.0
74,72.02708333333334,72.20625,68.0,64.0
75,72.15208333333334,72.38125,71.0,87.0
76,72.40208333333334,72.64479166666666,68.0,66.0
77,72.65208333333334,73.26458333333333,66.0,83.0
78,73.65208333333334,73.90416666666667,80.0,96.0
79,73.90208333333334,74.19583333333333,78.0,95.0
80,74.14583333333333,74.31770833333333,75.0,92.0
81,74.40208333333334,74.57395833333334,75.0,92.0
82,74.65208333333334,74.79791666666667,80.0,100.0
83,74.90625,75.04166666666667,78.0,100.0
84,75.0,75.27291666666666,80.0,97.0
85,75.40208333333334,75.64583333333333,80.0,99.0
86,75.65208333333334,75.91354166666666,83.0,95.0
87,75.90208333333334,76.228125,80.0,105.0
88,76.15833333333333,76.28645833333333,78.0,106.0
89,76.4375,76.628125,78.0,106.0
90,76.65208333333334,76.79583333333333,83.0,101.0
91,76.90416666666667,77.04791666666667,80.0,101.0
92,77.14583333333333,77.32708333333333,83.0,100.0
93,77.40208333333334,77.67291666666667,83.0,114.0
94,77.90208333333334,78.0125,83.0,99.0
95,78.15208333333334,78.26770833333333,83.0,98.0
96,78.40208333333334,78.60208333333333,83.0,95.0
97,78.65208333333334,79.13020833333333,82.0,93.0
98,79.15208333333334,79.42604166666666,80.0,94.0
99,79.40208333333334,79.91458333333333,78.0,101.0
100,79.90208333333334,81.2375,80.0,101.0
101,81.65208333333334,82.00833333333333,80.0,101.0
102,82.02708333333334,82.15625,78.0,76.0
103,82.14583333333333,82.296875,75.0,81.0
104,82.40208333333334,82.553125,75.0,81.0
105,82.65208333333334,83.00104166666667,80.0,94.0
106,83.02708333333334,83.20104166666667,78.0,75.0
107,83.15208333333334,83.35833333333333,80.0,84.0
108,83.40208333333334,83.7,83.0,85.0
109,83.65208333333334,84.00833333333333,78.0,91.0
110,84.02708333333334,84.22395833333333,75.0,64.0
111,84.15208333333334,84.415625,78.0,86.0
112,84.40208333333334,84.653125,80.0,90.0
113,84.66666666666667,85.375,78.0,91.0
114,85.65208333333334,86.025,73.0,97.0
115,86.02708333333334,86.15625,71.0,80.0
116,86.15208333333334,86.26875,68.0,66.0
117,86.40208333333334,86.55520833333333,68.0,68.0
118,86.65208333333334,86.959375,73.0,87.0
119,87.02708333333334,87.203125,71.0,68.0
120,87.15208333333334,87.38229166666666,73.0,72.0
121,87.40208333333334,87.67604166666666,75.0,74.0
122,87.65208333333334,87.975,71.0,87.0
123,88.02708333333334,88.22916666666667,68.0,65.0
124,88.15208333333334,88.38645833333334,71.0,85.0
125,88.40208333333334,88.65208333333334,68.0,79.0
126,88.65208333333334,89.31770833333333,66.0,98.0
127,89.65208333333334,89.85,80.0,100.0
128,89.90208333333334,90.29375,78.0,87.0
129,90.40208333333334,90.60520833333334,75.0,82.0
130,90.65208333333334,90.80625,80.0,99.0
131,90.89583333333333,91.05,78.0,99.0
132,91.14583333333333,91.24479166666667,80.0,98.0
133,91.40208333333334,91.66875,80.0,90.0
134,91.65208333333334,91.915625,83.0,89.0
135,91.90208333333334,92.125,80.0,101.0
136,92.15416666666667,92.32083333333333,78.0,101.0
137,92.40208333333334,92.66354166666666,78.0,97.0
138,92.65208333333334,92.78645833333333,83.0,100.0
139,92.90625,93.040625,80.0,100.0
140,93.14583333333333,93.28645833333333,83.0,97.0
141,93.40208333333334,93.68854166666667,83.0,108.0
142,93.90208333333334,94.003125,83.0,103.0
143,94.15208333333334,94.24895833333333,83.0,100.0
144,94.40208333333334,94.51770833333333,83.0,105.0
145,94.65208333333334,94.9125,82.0,100.0
146,95.15208333333334,95.30104166666666,80.0,108.0
147,95.40208333333334,95.74375,78.0,105.0
148,95.90208333333334,97.52708333333334,80.0,109.0
149,113.65208333333334,114.45625,68.0,97.0
150,114.41666666666667,115.51875,75.0,95.0
151,115.65208333333334,115.94895833333334,73.0,93.0
152,115.90208333333334,116.20104166666667,75.0,90.0
153,116.15208333333334,116.41875,73.0,86.0
154,116.40208333333334,117.29583333333333,71.0,89.0
155,117.90208333333334,118.05833333333334,71.0,87.0
156,118.15208333333334,118.28020833333333,71.0,84.0
157,118.40208333333334,118.703125,71.0,64.0
158,118.65208333333334,119.15625,70.0,68.0
159,119.15208333333334,119.64791666666666,68.0,57.0
160,119.65208333333334,119.92291666666667,66.0,64.0
161,119.90208333333334,121.24895833333333,68.0,82.0
162,121.65208333333334,122.09791666666666,68.0,90.0
163,122.15208333333334,123.515625,80.0,121.0
164,123.65208333333334,123.94375,78.0,90.0
165,123.90208333333334,124.1875,80.0,66.0
166,124.15208333333334,124.35833333333333,78.0,72.0
167,124.40208333333334,125.30104166666666,75.0,85.0
168,125.90208333333334,126.05,73.0,86.0
169,126.15208333333334,126.31875,73.0,84.0
170,126.40208333333334,126.54270833333334,73.0,80.0
171,126.65208333333334,127.10416666666667,73.0,84.0
172,127.15208333333334,127.39270833333333,71.0,90.0
173,127.40208333333334,127.92395833333333,68.0,79.0
174,127.90208333333334,129.23125,70.0,87.0
175,129.65208333333334,130.41041666666666,68.0,97.0
176,130.40208333333334,131.45416666666665,75.0,105.0
177,131.65208333333334,131.93125,73.0,105.0
178,131.90208333333334,132.18229166666666,75.0,93.0
179,132.15208333333334,132.440625,73.0,90.0
180,132.40208333333334,133.29270833333334,71.0,96.0
181,133.90208333333334,134.03229166666665,71.0,94.0
182,134.15208333333334,134.296875,71.0,84.0
183,134.40208333333334,134.68125,71.0,80.0
184,134.65208333333334,135.15520833333332,70.0,87.0
185,135.15208333333334,135.54166666666666,68.0,71.0
186,135.40208333333334,135.921875,66.0,66.0
187,135.90208333333334,137.21979166666665,68.0,84.0
188,137.65208333333334,138.19895833333334,68.0,96.0
189,138.15208333333334,139.44166666666666,80.0,72.0
190,139.65208333333334,139.91875,78.0,91.0
191,139.90208333333334,140.18958333333333,80.0,84.0
192,140.15208333333334,140.378125,78.0,64.0
193,140.40208333333334,141.06770833333334,75.0,96.0
194,141.90208333333334,142.03125,80.0,91.0
195,142.15208333333334,142.30104166666666,80.0,77.0
196,142.40208333333334,142.59375,80.0,79.0
197,142.65208333333334,143.16041666666666,82.0,86.0
198,143.15208333333334,143.49895833333332,80.0,90.0
199,143.54166666666666,144.12708333333333,78.0,79.0
200,144.125,148.22708333333333,80.0,95.0
201,149.65208333333334,150.009375,80.0,96.0
202,150.02708333333334,150.15208333333334,78.0,73.0
203,150.16666666666666,150.34166666666667,75.0,82.0
204,150.40208333333334,150.57708333333332,75.0,82.0
205,150.65208333333334,150.97291666666666,80.0,94.0
206,151.02708333333334,151.19270833333334,78.0,66.0
207,151.15208333333334,151.375,80.0,82.0
208,151.40208333333334,151.63125,83.0,83.0
209,151.65208333333334,151.96875,78.0,90.0
210,152.02708333333334,152.23229166666667,75.0,65.0
211,152.15208333333334,152.39375,78.0,82.0
212,152.40208333333334,152.68645833333332,80.0,91.0
213,152.65208333333334,153.328125,78.0,90.0
214,153.65208333333334,153.98958333333334,73.0,93.0
215,154.02708333333334,154.17604166666666,71.0,75.0
216,154.15208333333334,154.28645833333334,68.0,77.0
217,154.40208333333334,154.634375,68.0,66.0
218,154.65208333333334,155.02708333333334,73.0,90.0
219,155.02708333333334,155.20729166666666,71.0,77.0
220,155.15208333333334,155.371875,73.0,74.0
221,155.40208333333334,155.69270833333334,75.0,85.0
222,155.65208333333334,155.98958333333334,71.0,90.0
223,156.02708333333334,156.20729166666666,68.0,64.0
224,156.15208333333334,156.38020833333334,71.0,87.0
225,156.40208333333334,156.64583333333334,68.0,66.0
226,156.65208333333334,157.26458333333332,66.0,83.0
227,157.65833333333333,157.91145833333334,80.0,96.0
228,157.91666666666666,158.21041666666667,78.0,95.0
229,158.16666666666666,158.33854166666666,75.0,92.0
230,158.41666666666666,158.58854166666666,75.0,92.0
231,158.66666666666666,158.8125,80.0,100.0
232,158.92083333333332,159.06666666666666,78.0,100.0
233,159.16666666666666,159.31458333333333,80.0,97.0
234,159.40208333333334,159.64583333333334,80.0,99.0
235,159.65208333333334,159.91354166666667,83.0,95.0
236,159.90208333333334,160.10416666666666,80.0,105.0
237,160.15416666666667,160.35625,78.0,105.0
238,160.40208333333334,160.628125,78.0,106.0
239,160.65208333333334,160.79583333333332,83.0,101.0
240,160.90625,161.05,80.0,101.0
241,161.16666666666666,161.36875,83.0,100.0
242,161.40208333333334,161.67291666666665,83.0,114.0
243,161.90208333333334,162.0125,83.0,99.0
244,162.15208333333334,162.26770833333333,83.0,98.0
245,162.40208333333334,162.60104166666667,83.0,95.0
246,162.65208333333334,163.13125,82.0,93.0
247,163.15208333333334,163.42604166666666,80.0,94.0
248,163.40208333333334,163.91354166666667,78.0,101.0
249,163.90208333333334,165.23645833333333,80.0,101.0
250,165.65208333333334,166.009375,80.0,101.0
251,166.02708333333334,166.15729166666665,78.0,76.0
252,166.15208333333334,166.28020833333332,75.0,57.0
253,166.40208333333334,166.553125,75.0,81.0
254,166.65208333333334,167.00104166666665,80.0,94.0
255,167.02708333333334,167.20104166666667,78.0,75.0
256,167.15208333333334,167.35833333333332,80.0,84.0
257,167.40208333333334,167.70104166666667,83.0,85.0
258,167.65208333333334,168.00833333333333,78.0,91.0
259,168.02708333333334,168.22395833333334,75.0,64.0
260,168.15208333333334,168.415625,78.0,86.0
261,168.40208333333334,168.65416666666667,80.0,90.0
262,168.65208333333334,169.39479166666666,78.0,91.0
263,169.65208333333334,170.025,73.0,97.0
264,170.02708333333334,170.15729166666665,71.0,80.0
265,170.15208333333334,170.26875,68.0,66.0
266,170.40208333333334,170.55520833333333,68.0,68.0
267,170.65208333333334,170.959375,73.0,87.0
268,171.02708333333334,171.20416666666665,71.0,68.0
269,171.15208333333334,171.38229166666667,73.0,72.0
270,171.40208333333334,171.67708333333334,75.0,74.0
271,171.65208333333334,172.01458333333332,71.0,87.0
272,172.02708333333334,172.140625,68.0,65.0
273,172.15208333333334,172.4375,71.0,85.0
274,172.40208333333334,172.60520833333334,68.0,79.0
275,172.65208333333334,173.36979166666666,66.0,98.0
276,173.65208333333334,173.915625,80.0,100.0
277,173.90208333333334,174.1875,78.0,87.0
278,174.16666666666666,174.36979166666666,75.0,82.0
279,174.40208333333334,174.60520833333334,75.0,82.0
280,174.65208333333334,174.80625,80.0,99.0
281,174.90625,175.06041666666667,78.0,99.0
282,175.14583333333334,175.36979166666666,80.0,98.0
283,175.40208333333334,175.66875,80.0,90.0
284,175.65208333333334,175.915625,83.0,89.0
285,175.90208333333334,176.17916666666667,80.0,101.0
286,176.15416666666667,176.30833333333334,78.0,101.0
287,176.40208333333334,176.66354166666667,78.0,97.0
288,176.65208333333334,176.78645833333334,83.0,100.0
289,176.90416666666667,177.03854166666667,80.0,100.0
290,177.15416666666667,177.265625,83.0,97.0
291,177.40208333333334,177.68958333333333,83.0,108.0
292,177.90208333333334,178.003125,83.0,103.0
293,178.15208333333334,178.24895833333332,83.0,100.0
294,178.40208333333334,178.51666666666665,83.0,105.0
295,178.65208333333334,178.91354166666667,82.0,100.0
296,179.15208333333334,179.30104166666666,80.0,108.0
297,179.40208333333334,179.74375,78.0,105.0
298,179.90208333333334,181.52604166666666,80.0,109.0
299,181.65208333333334,182.009375,80.0,101.0
300,182.02708333333334,182.15625,78.0,76.0
301,182.15208333333334,182.28020833333332,75.0,85.0
302,182.40208333333334,182.553125,75.0,81.0
303,182.65208333333334,183.00104166666665,80.0,94.0
304,183.02708333333334,183.20104166666667,78.0,75.0
305,183.15208333333334,183.35833333333332,80.0,84.0
306,183.40208333333334,183.7,83.0,85.0
307,183.65208333333334,184.00833333333333,78.0,91.0
308,184.02708333333334,184.22395833333334,75.0,64.0
309,184.15208333333334,184.415625,78.0,86.0
310,184.40208333333334,184.61354166666666,80.0,90.0
311,184.65208333333334,184.86666666666667,80.0,91.0
312,184.90208333333334,185.403125,78.0,91.0
313,185.65208333333334,186.025,73.0,97.0
314,186.02708333333334,186.15729166666665,71.0,80.0
315,186.15208333333334,186.26875,68.0,66.0
316,186.40208333333334,186.55520833333333,68.0,68.0
317,186.65208333333334,186.96041666666667,73.0,87.0
318,187.02708333333334,187.20416666666665,71.0,68.0
319,187.15208333333334,187.38229166666667,73.0,72.0
320,187.40208333333334,187.67604166666666,75.0,74.0
321,187.65208333333334,187.975,71.0,87.0
322,188.02708333333334,188.22916666666666,68.0,65.0
323,188.15208333333334,188.38541666666666,71.0,85.0
324,188.40208333333334,188.65104166666666,68.0,79.0
325,188.65208333333334,189.31770833333334,66.0,98.0
326,189.65208333333334,189.85,80.0,100.0
327,189.90208333333334,190.29375,78.0,87.0
328,190.15416666666667,190.35729166666667,75.0,82.0
329,190.40208333333334,190.60520833333334,75.0,82.0
330,190.65208333333334,190.80625,80.0,99.0
331,190.90833333333333,191.0625,78.0,99.0
332,191.15416666666667,191.325,80.0,98.0
333,191.40208333333334,191.66875,80.0,90.0
334,191.65208333333334,191.915625,83.0,89.0
335,191.90208333333334,192.08333333333334,80.0,101.0
336,192.14583333333334,192.32708333333332,78.0,101.0
337,192.40208333333334,192.66354166666667,78.0,97.0
338,192.65208333333334,192.78645833333334,83.0,100.0
339,192.90833333333333,193.04270833333334,80.0,100.0
340,193.15833333333333,193.265625,83.0,97.0
341,193.40208333333334,193.68854166666665,83.0,108.0
342,193.90208333333334,194.003125,83.0,103.0
343,194.15208333333334,194.24895833333332,83.0,100.0
344,194.40208333333334,194.51666666666665,83.0,105.0
345,194.65208333333334,194.91354166666667,82.0,100.0
346,195.15208333333334,195.30104166666666,80.0,108.0
347,195.40208333333334,195.74375,78.0,105.0
348,195.91666666666666,197.52708333333334,80.0,109.0
349,197.90208333333334,198.03541666666666,83.0,84.0
350,198.15208333333334,198.275,83.0,89.0
351,198.40208333333334,198.69479166666667,83.0,83.0
352,198.65208333333334,199.19375,85.0,93.0
353,199.15208333333334,199.64479166666666,82.0,93.0
354,199.65208333333334,200.14270833333333,78.0,93.0
355,200.15208333333334,203.99375,80.0,76.0
