,start,end,pitch,velocity
0,1.5697665,1.9418593,60.0,83.0
1,1.5697665,1.9534872,63.0,88.0
2,1.5697665,1.9840104375,56.0,84.0
3,1.2209295,2.4316845875,44.0,88.0
4,2.2674405,2.6031961125,56.0,83.0
5,2.2674405,2.61046355,60.0,85.0
6,2.6162775,3.1845911125,41.0,89.0
7,2.2674405,3.468021175,63.0,87.0
8,2.9651145,3.48255605,60.0,77.0
9,2.9651145,3.48837,56.0,80.0
10,2.9651145,3.5043583625,53.0,80.0
11,3.3139515,3.5944745875,48.0,68.0
12,3.6627885,3.898253475,53.0,84.0
13,3.6627885,3.9607534375,56.0,88.0
14,3.6627885,3.962206925,60.0,82.0
15,3.6627885,4.084299875,63.0,87.0
16,4.3604625,4.793601775,63.0,72.0
17,4.3604625,4.8502877875,67.0,77.0
18,4.0116255,5.1409852875,51.0,90.0
19,5.0581365,5.47092695,70.0,83.0
20,5.4069735,5.4956362375,55.0,63.0
21,5.0581365,5.51743855,67.0,84.0
22,5.0581365,5.5348804,63.0,85.0
23,5.4069735,6.19185675,58.0,76.0
24,5.7558105,6.1991241875,75.0,85.0
25,5.7558105,6.24999625,63.0,80.0
26,6.1046475000000004,6.2659846125,55.0,87.0
27,5.7558105,6.2747055375,70.0,86.0
28,5.7558105,6.279066,67.0,79.0
29,6.4534845,6.578484425,63.0,84.0
30,6.8023215,7.0624957625,60.0,80.0
31,6.8023215,7.0654027375,56.0,82.0
32,7.1511585,7.531972225,63.0,89.0
33,7.1511585,7.578483825,56.0,85.0
34,7.1511585,7.5886582375,60.0,86.0
35,6.8023215,7.9462161625,44.0,88.0
36,7.8488325,8.1627858,63.0,85.0
37,7.8488325,8.1976695,60.0,88.0
38,7.8488325,8.2049369375,56.0,83.0
39,8.5465065,9.06394805,56.0,87.0
40,8.5465065,9.066855025,53.0,87.0
41,8.1976695,9.1787735625,41.0,84.0
42,8.8953435,9.2558084,48.0,75.0
43,9.2441805,9.4491222375,53.0,88.0
44,9.2441805,9.4636571125,56.0,85.0
45,9.5930175,10.392435625,46.0,89.0
46,9.9418545,10.438947225,61.0,88.0
47,9.9418545,10.4433076875,58.0,85.0
48,10.6395285,10.9869120125,61.0,89.0
49,10.6395285,11.165690975,58.0,88.0
50,10.9883655,11.543597725,51.0,88.0
51,11.3372025,11.7398185375,58.0,84.0
52,11.3372025,11.8183068625,67.0,84.0
53,11.3372025,11.8648184625,63.0,89.0
54,11.6860395,12.08720205,51.0,83.0
55,12.0348765,12.1090043625,63.0,63.0
56,12.0348765,12.433132075,58.0,92.0
57,12.3837135,13.0697596,44.0,88.0
58,12.7325505,13.1933060375,63.0,87.0
59,12.7325505,13.2369106625,60.0,86.0
60,12.7325505,13.270340875,56.0,86.0
61,13.4302245,13.729642925,60.0,89.0
62,13.4302245,13.7659801125,56.0,86.0
63,13.4302245,14.1293519875,63.0,86.0
64,13.7790615,14.3183053625,41.0,90.0
65,14.1278985,14.6976656,56.0,85.0
66,14.1278985,14.7078400125,53.0,85.0
67,14.1278985,14.718014425,60.0,83.0
68,14.4767355,14.863363175,48.0,84.0
69,14.8255725,15.008711925,53.0,90.0
70,14.8255725,15.020339825,56.0,88.0
71,14.8255725,15.0595839875,60.0,88.0
72,15.1744095,15.899699762500001,44.0,89.0
73,15.5232465,15.9549322875,60.0,88.0
74,15.5232465,15.956385775,63.0,88.0
75,15.5232465,15.991269475,56.0,87.0
76,16.2209205,16.5944667875,60.0,90.0
77,16.2209205,16.6235365375,56.0,89.0
78,16.5697575,17.1351641375,41.0,89.0
79,16.2209205,17.374989575,63.0,89.0
80,16.9185945,17.4665592875,56.0,85.0
81,16.9185945,17.4840011375,60.0,87.0
82,16.9185945,17.4869081125,53.0,88.0
83,17.2674315,17.694756825,48.0,79.0
84,17.6162685,17.8822567125,53.0,89.0
85,17.6162685,17.8967915875,56.0,88.0
86,17.6162685,17.927314825,60.0,88.0
87,17.9651055,18.4694656625,49.0,89.0
88,18.3139425,18.7630701375,68.0,83.0
89,18.3139425,18.776151525,65.0,88.0
90,18.3139425,18.79650035,61.0,84.0
91,19.0116165,19.3720814,65.0,84.0
92,19.0116165,19.3953372,61.0,83.0
93,19.0116165,19.4767325,68.0,81.0
94,19.3604535,19.8938834125,39.0,88.0
95,19.7092905,20.177313475000002,67.0,90.0
96,19.7092905,20.2049297375,63.0,87.0
97,20.0581275,20.2776041125,46.0,80.0
98,20.4069645,20.8837084,63.0,81.0
99,20.4069645,20.886615375,70.0,82.0
100,21.1046385,21.2950453625,63.0,83.0
101,21.1046385,21.4810917625,72.0,87.0
102,21.4534755,21.8560915375,70.0,89.0
103,20.7558015,21.9665565875,44.0,84.0
104,21.8023125,22.06394025,65.0,84.0
105,22.1511495,22.2543471125,63.0,77.0
106,22.1511495,22.9549280875,68.0,80.0
107,22.1511495,23.305218575,44.0,87.0
108,22.4999865,23.30812555,51.0,82.0
109,22.8488235,23.34300925,63.0,85.0
110,23.8953345,24.142427375,56.0,78.0
111,24.069753,24.16859015,60.0,80.0
112,24.2441715,24.3851597875,56.0,83.0
113,24.2441715,24.392427225,63.0,88.0
114,23.5464975,24.7398107375,44.0,88.0
115,24.5930085,24.8560897375,56.0,92.0
116,24.5930085,25.183124425,63.0,88.0
117,25.2906825,25.4636475125,63.0,68.0
118,25.2906825,25.7339961875,56.0,89.0
119,25.2906825,25.741263625,53.0,89.0
120,24.9418455,25.773240350000002,41.0,81.0
121,25.6395195,25.8473682125,48.0,71.0
122,25.988356500000002,26.1496936125,53.0,88.0
123,25.988356500000002,26.183123825,56.0,88.0
124,25.988356500000002,26.3037632875,63.0,87.0
125,26.860449,26.9636466125,67.0,76.0
126,26.6860305,27.00579775,63.0,75.0
127,27.0348675,27.1322511625,67.0,83.0
128,27.0348675,27.13370465,63.0,77.0
129,27.0348675,27.200565075,70.0,88.0
130,26.3371935,27.4491114375,51.0,91.0
131,27.3837045,27.677308975,70.0,89.0
132,27.3837045,27.7223670875,63.0,89.0
133,27.3837045,27.723820575,67.0,89.0
134,28.0813785,28.3604481,75.0,89.0
135,28.0813785,28.363355075,67.0,87.0
136,28.0813785,28.4113201625,63.0,88.0
137,27.7325415,28.5799247125,58.0,77.0
138,28.4302155,28.5915526125,55.0,76.0
139,28.7790525,28.84300595,67.0,73.0
140,28.7790525,28.9200407875,63.0,74.0
141,28.7790525,28.9578314625,70.0,81.0
142,29.1278895,29.3619009875,68.0,82.0
143,29.1278895,29.374982375000002,63.0,82.0
144,29.651145,29.8938774125,56.0,89.0
145,29.8255635,29.9534704,60.0,88.0
146,29.4767265,30.20347025,51.0,66.0
147,29.1278895,30.2717841625,44.0,89.0
148,30.1744005,30.4302143,60.0,93.0
149,30.1744005,30.433121275,63.0,93.0
150,30.1744005,30.44765615,56.0,89.0
151,30.5232375,31.078469725,41.0,92.0
152,30.8720745,31.3502718875,56.0,85.0
153,30.8720745,31.3720742,53.0,85.0
154,31.2209115,31.409864875,48.0,79.0
155,31.5697485,31.7906786,53.0,90.0
156,31.5697485,31.81974835,56.0,88.0
157,32.2674225,32.5334107125,58.0,77.0
158,32.441841,32.566840925,61.0,80.0
159,31.9185855,32.6613176125,46.0,89.0
160,32.6162595,32.6845734125,58.0,81.0
161,32.6162595,32.790678,65.0,90.0
162,32.9650965,33.2688753875,58.0,88.0
163,32.9650965,33.328468375,65.0,92.0
164,33.3139335,33.8023053,51.0,90.0
165,33.6627705,34.1002702375,67.0,84.0
166,33.6627705,34.1322469625,63.0,89.0
167,34.0116075,34.1395144,58.0,83.0
168,34.3604445,34.6235257375,70.0,87.0
169,34.3604445,34.6438745625,63.0,87.0
170,35.0581185,35.3604439,56.0,79.0
171,35.232537,35.5072461375,60.0,77.0
172,35.4069555,35.5421298375,63.0,85.0
173,34.7092815,35.6380600125,44.0,88.0
174,35.7557925,36.00579235,56.0,90.0
175,35.7557925,36.01742025,60.0,92.0
176,35.7557925,36.0653853375,63.0,92.0
177,36.1046295,36.601722225,53.0,92.0
178,36.8023035,36.9055011125,60.0,86.0
179,36.4534665,36.9418383,68.0,88.0
180,36.4534665,36.9549196875,65.0,88.0
181,37.1511405,37.4549193875,65.0,92.0
182,37.8488145,38.113349225,56.0,81.0
183,38.1976515,38.2441631,56.0,56.0
184,38.023233,38.2906747,60.0,79.0
185,38.1976515,38.334279325,63.0,81.0
186,37.4999775,38.5348606,44.0,90.0
187,38.5464885,38.822651125,56.0,88.0
188,38.5464885,38.83137205,60.0,89.0
189,38.5464885,38.892418525000004,63.0,88.0
190,39.2441625,39.7485226625,68.0,89.0
191,39.2441625,39.7543366125,65.0,90.0
192,39.5929995,40.008696925,60.0,82.0
193,38.8953255,40.020324825,53.0,90.0
194,39.9418365,40.2209061,65.0,89.0
195,39.9418365,40.223813075,68.0,88.0
196,39.9418365,40.2281735375,72.0,88.0
197,40.6395105,40.8953243,65.0,84.0
198,40.813929,41.049393975,68.0,77.0
199,40.9883475,41.14532415,72.0,88.0
200,40.2906735,41.2601496625,41.0,89.0
201,41.3371845,41.590091325,68.0,88.0
202,41.3371845,41.59881225,65.0,88.0
203,41.3371845,41.6002657375,72.0,89.0
204,41.6860215,42.1496840125,51.0,90.0
205,42.3836955,42.4767187,58.0,87.0
206,42.0348585,42.5232303,63.0,84.0
207,42.0348585,42.5363116875,67.0,88.0
208,42.0348585,42.584276775,70.0,89.0
209,42.7325325,42.9316602875,63.0,88.0
210,43.0813695,43.194741525,44.0,87.0
211,43.0813695,43.2688693875,63.0,86.0
212,43.0813695,43.43602045,68.0,83.0
213,43.4302065,43.6860203,63.0,82.0
214,43.604625,43.687473787500004,68.0,73.0
215,43.7790435,43.8473574125,68.0,67.0
216,43.7790435,43.9374736375,72.0,83.0
217,44.1278805,44.5915430125,63.0,85.0
218,44.1278805,44.654042975,68.0,87.0
219,44.1278805,44.6613104125,72.0,89.0
220,44.4767175,44.956368375,56.0,74.0
221,44.4767175,45.2281705375,60.0,72.0
222,44.8255545,45.252879825,63.0,89.0
223,45.1743915,45.805205075,56.0,82.0
224,45.5232285,45.8182864625,63.0,88.0
225,46.2209025,46.467995375,56.0,78.0
226,46.395321,46.49415815,60.0,80.0
227,46.5697395,46.7107277875,56.0,83.0
228,46.5697395,46.717995225,63.0,88.0
229,45.8720655,47.0653787375,44.0,88.0
230,46.9185765,47.181657737500004,56.0,92.0
231,46.9185765,47.508692425,63.0,88.0
232,47.6162505,47.7892155125,63.0,68.0
233,47.6162505,48.0595641875,56.0,89.0
234,47.6162505,48.066831625,53.0,89.0
235,47.2674135,48.09880835,41.0,81.0
236,47.9650875,48.1729362125,48.0,71.0
237,48.3139245,48.4752616125,53.0,88.0
238,48.3139245,48.508691825,56.0,88.0
239,48.3139245,48.6293312875,63.0,87.0
240,49.186017,49.2892146125,67.0,76.0
241,49.0115985,49.33136575,63.0,75.0
242,49.3604355,49.4578191625,67.0,83.0
243,49.3604355,49.45927265,63.0,77.0
244,49.3604355,49.526133075,70.0,88.0
245,48.6627615,49.7746794375,51.0,91.0
246,49.7092725,50.002876975,70.0,89.0
247,49.7092725,50.0479350875,63.0,89.0
248,49.7092725,50.049388575,67.0,89.0
249,50.406946500000004,50.6860161,75.0,89.0
250,50.406946500000004,50.688923075,67.0,87.0
251,50.406946500000004,50.7368881625,63.0,88.0
252,50.0581095,50.9054927125,58.0,77.0
253,50.7557835,50.9171206125,55.0,76.0
254,51.1046205,51.16857395,67.0,73.0
255,51.1046205,51.245608787500004,63.0,74.0
256,51.1046205,51.2833994625,70.0,81.0
257,51.4534575,51.6874689875,68.0,82.0
258,51.4534575,51.700550375,63.0,82.0
259,51.976713000000004,52.2194454125,56.0,89.0
260,52.1511315,52.2790384,60.0,88.0
261,51.8022945,52.52903825,51.0,66.0
262,51.4534575,52.5973521625,44.0,89.0
263,52.4999685,52.7557823,60.0,93.0
264,52.4999685,52.758689275,63.0,93.0
265,52.4999685,52.77322415,56.0,89.0
266,52.8488055,53.404037725,41.0,92.0
267,53.1976425,53.6758398875,56.0,85.0
268,53.1976425,53.6976422,53.0,85.0
269,53.5464795,53.735432875,48.0,79.0
270,53.8953165,54.1162466,53.0,90.0
271,53.8953165,54.14531635,56.0,88.0
272,54.5929905,54.8589787125,58.0,77.0
273,54.767409,54.892408925,61.0,80.0
274,54.2441535,54.986885612500004,46.0,89.0
275,54.9418275,55.0101414125,58.0,81.0
276,54.9418275,55.116246,65.0,90.0
277,55.2906645,55.5944433875,58.0,88.0
278,55.2906645,55.654036375,65.0,92.0
279,55.6395015,56.1278733,51.0,90.0
280,55.9883385,56.4258382375,67.0,84.0
281,55.9883385,56.4578149625,63.0,89.0
282,56.3371755,56.4650824,58.0,83.0
283,56.6860125,56.9490937375,70.0,87.0
284,56.6860125,56.9694425625,63.0,87.0
285,57.3836865,57.671477025,63.0,82.0
286,57.558105,57.7979304375,68.0,79.0
287,57.7325235,57.8764187625,72.0,86.0
288,57.0348495,58.2136278625,44.0,89.0
289,58.0813605,58.40112775,68.0,89.0
290,58.0813605,58.4113021625,72.0,89.0
291,58.0813605,58.5711857875,63.0,88.0
292,58.7790345,59.276127225,68.0,80.0
293,58.7790345,59.2906621,63.0,87.0
294,59.1278715,59.415662025,51.0,76.0
295,58.4301975,59.4258364375,44.0,88.0
296,59.4767085,59.7746734375,68.0,83.0
297,59.4767085,59.811010625,63.0,88.0
298,60.348801,60.4578125625,67.0,86.0
299,60.1743825,60.462173025,63.0,80.0
300,60.5232195,60.6554868625,63.0,81.0
301,60.5232195,60.665661275,67.0,84.0
302,60.5232195,60.6903705625,70.0,84.0
303,59.8255455,60.712172875,51.0,90.0
304,60.8720565,61.08717265,67.0,86.0
305,60.8720565,61.124963325,70.0,89.0
306,60.8720565,61.13368425,63.0,89.0
307,61.2208935,61.6206025625,49.0,90.0
308,61.5697305,61.8037419875,65.0,90.0
309,61.5697305,61.8124629125,61.0,88.0
310,61.5697305,61.8851372875,68.0,86.0
311,61.9185675,62.2804858875,51.0,90.0
312,62.2674045,62.4200206875,67.0,84.0
313,62.2674045,62.4665322875,63.0,86.0
314,63.139497,63.4171131125,61.0,76.0
315,62.9650785,63.4287410125,58.0,74.0
316,63.3139155,63.47089215,65.0,89.0
317,62.6162415,63.7833919625,46.0,89.0
318,63.6627525,63.9418221,58.0,82.0
319,63.6627525,63.9461825625,61.0,85.0
320,63.6627525,63.94763605,65.0,89.0
321,64.0115895,64.56391475,48.0,89.0
322,64.3604265,64.8706006125,60.0,86.0
323,64.3604265,64.886588975,67.0,84.0
324,64.3604265,64.8938564125,63.0,87.0
325,64.7092635,65.07699583750001,55.0,77.0
326,65.0581005,65.3328096375,58.0,79.0
327,65.0581005,65.398216575,63.0,88.0
328,65.930193,66.0246696875,68.0,77.0
329,65.7557745,66.0275766625,65.0,87.0
330,66.1046115,66.2092626,68.0,79.0
331,66.1046115,66.2368788625,72.0,77.0
332,65.4069375,66.36623925,53.0,91.0
333,66.4534485,66.80809945,68.0,90.0
334,66.4534485,66.8182738625,72.0,90.0
335,66.4534485,66.834262225,65.0,92.0
336,66.8022855,67.2659480125,41.0,90.0
337,67.1511225,67.5115874,53.0,90.0
338,67.1511225,67.5246687875,56.0,91.0
339,67.1511225,67.6511222,60.0,89.0
340,67.8487965,67.906936,60.0,71.0
341,67.8487965,68.0857149625,51.0,94.0
342,67.4999595,68.1467614375,39.0,93.0
343,68.5464705,68.793563375,56.0,78.0
344,68.720889,68.81972615,60.0,80.0
345,68.8953075,69.0362957875,56.0,83.0
346,68.8953075,69.043563225,63.0,88.0
347,68.1976335,69.3909467375,44.0,88.0
348,69.2441445,69.5072257375,56.0,92.0
349,69.2441445,69.834260425,63.0,88.0
350,69.9418185,70.1147835125,63.0,68.0
351,69.9418185,70.3851321875,56.0,89.0
352,69.9418185,70.392399625,53.0,89.0
353,69.5929815,70.42437635,41.0,81.0
354,70.2906555,70.4985042125,48.0,71.0
355,70.6394925,70.8008296125,53.0,88.0
356,70.6394925,70.834259825,56.0,88.0
357,70.6394925,70.9548992875,63.0,87.0
358,71.511585,71.6147826125,67.0,76.0
359,71.3371665,71.65693375,63.0,75.0
360,71.6860035,71.7833871625,67.0,83.0
361,71.6860035,71.78484065,63.0,77.0
362,71.6860035,71.851701075,70.0,88.0
363,70.9883295,72.1002474375,51.0,91.0
364,72.0348405,72.328444975,70.0,89.0
365,72.0348405,72.3735030875,63.0,89.0
366,72.0348405,72.374956575,67.0,89.0
367,72.7325145,73.0115841,75.0,89.0
368,72.7325145,73.014491075,67.0,87.0
369,72.7325145,73.0624561625,63.0,88.0
370,72.3836775,73.2310607125,58.0,77.0
371,73.0813515,73.2426886125,55.0,76.0
372,73.4301885,73.49414195,67.0,73.0
373,73.4301885,73.5711767875,63.0,74.0
374,73.4301885,73.6089674625,70.0,81.0
375,73.7790255,74.0130369875,68.0,82.0
376,73.7790255,74.026118375,63.0,82.0
377,74.302281,74.5450134125,56.0,89.0
378,74.4766995,74.6046064,60.0,88.0
379,74.1278625,74.85460625,51.0,66.0
380,73.7790255,74.9229201625,44.0,89.0
381,74.8255365,75.0813503,60.0,93.0
382,74.8255365,75.084257275,63.0,93.0
383,74.8255365,75.09879215,56.0,89.0
384,75.1743735,75.729605725,41.0,92.0
385,75.5232105,76.0014078875,56.0,85.0
386,75.5232105,76.0232102,53.0,85.0
387,75.8720475,76.061000875,48.0,79.0
388,76.2208845,76.4418146,53.0,90.0
389,76.2208845,76.47088435,56.0,88.0
390,76.9185585,77.1845467125,58.0,77.0
391,77.092977,77.217976925,61.0,80.0
392,76.5697215,77.3124536125,46.0,89.0
393,77.2673955,77.3357094125,58.0,81.0
394,77.2673955,77.441814,65.0,90.0
395,77.6162325,77.9200113875,58.0,88.0
396,77.6162325,77.979604375,65.0,92.0
397,77.9650695,78.4534413,51.0,90.0
398,78.3139065,78.7514062375,67.0,84.0
399,78.3139065,78.7833829625,63.0,89.0
400,78.6627435,78.7906504,58.0,83.0
401,79.0115805,79.2746617375,70.0,87.0
402,79.0115805,79.2950105625,63.0,87.0
403,79.7092545,79.997045025,63.0,82.0
404,79.883673,80.1234984375,68.0,79.0
405,80.0580915,80.2019867625,72.0,86.0
406,79.3604175,80.5391958625,44.0,89.0
407,80.4069285,80.72669575,68.0,89.0
408,80.4069285,80.7368701625,72.0,89.0
409,80.4069285,80.8967537875,63.0,88.0
410,81.1046025,81.601695225,68.0,80.0
411,81.1046025,81.6162301,63.0,87.0
412,81.4534395,81.74123002500001,51.0,76.0
413,80.7557655,81.7514044375,44.0,88.0
414,81.8022765,82.1002414375,68.0,83.0
415,81.8022765,82.136578625,63.0,88.0
416,82.674369,82.7833805625,67.0,86.0
417,82.4999505,82.787741025,63.0,80.0
418,82.8487875,82.9810548625,63.0,81.0
419,82.8487875,82.991229275,67.0,84.0
420,82.8487875,83.0159385625,70.0,84.0
421,82.1511135,83.037740875,51.0,90.0
422,83.1976245,83.41274065,67.0,86.0
423,83.1976245,83.450531325,70.0,89.0
424,83.1976245,83.45925225,63.0,89.0
425,83.5464615,83.9461705625,49.0,90.0
426,83.8952985,84.1293099875,65.0,90.0
427,83.8952985,84.1380309125,61.0,88.0
428,83.8952985,84.2107052875,68.0,86.0
429,84.2441355,84.6060538875,51.0,90.0
430,84.5929725,84.7455886875,67.0,84.0
431,84.5929725,84.7921002875,63.0,86.0
432,85.465065,85.7426811125,61.0,76.0
433,85.2906465,85.7543090125,58.0,74.0
434,85.6394835,85.79646015,65.0,89.0
435,84.9418095,86.1089599625,46.0,89.0
436,85.9883205,86.2673901,58.0,82.0
437,85.9883205,86.2717505625,61.0,85.0
438,85.9883205,86.27320405,65.0,89.0
439,86.3371575,86.88948275,48.0,89.0
440,86.6859945,87.1961686125,60.0,86.0
441,86.6859945,87.212156975,67.0,84.0
442,86.6859945,87.2194244125,63.0,87.0
443,87.0348315,87.4025638375,55.0,77.0
444,87.3836685,87.6583776375,58.0,79.0
445,87.3836685,87.723784575,63.0,88.0
446,88.255761,88.3502376875,68.0,77.0
447,88.0813425,88.3531446625,65.0,87.0
448,88.4301795,88.5348306,68.0,79.0
449,88.4301795,88.5624468625,72.0,77.0
450,87.7325055,88.69180725,41.0,91.0
451,87.7325055,88.69180725,53.0,91.0
452,88.7790165,89.13366745,68.0,90.0
453,88.7790165,89.1438418625,72.0,90.0
454,88.7790165,89.159830225,65.0,92.0
455,89.1278535,89.5915160125,41.0,90.0
456,89.4766905,89.8371554,53.0,90.0
457,89.4766905,89.8502367875,56.0,91.0
458,89.4766905,89.97669020000001,60.0,89.0
459,90.1743645,90.232504,60.0,71.0
460,90.1743645,90.4112829625,51.0,94.0
461,89.8255275,90.4723294375,39.0,93.0
462,90.8720385,91.119131375,56.0,78.0
463,91.046457,91.14529415,60.0,80.0
464,91.2208755,91.3618637875,56.0,83.0
465,91.2208755,91.369131225,63.0,88.0
466,90.5232015,91.7165147375,44.0,88.0
467,91.5697125,91.8327937375,56.0,92.0
468,91.5697125,92.159828425,63.0,88.0
469,92.2673865,92.4403515125,63.0,68.0
470,92.2673865,92.7107001875,56.0,89.0
471,92.2673865,92.717967625,53.0,89.0
472,91.9185495,92.74994435,41.0,81.0
473,92.6162235,92.8240722125,48.0,71.0
474,92.9650605,93.1263976125,53.0,88.0
475,92.9650605,93.159827825,56.0,88.0
476,92.9650605,93.2804672875,63.0,87.0
477,93.837153,93.9403506125,67.0,76.0
478,93.6627345,93.98250175,63.0,75.0
479,94.0115715,94.1089551625,67.0,83.0
480,94.0115715,94.11040865,63.0,77.0
481,94.0115715,94.177269075,70.0,88.0
482,93.3138975,94.4258154375,51.0,91.0
483,94.3604085,94.654012975,70.0,89.0
484,94.3604085,94.6990710875,63.0,89.0
485,94.3604085,94.700524575,67.0,89.0
486,95.0580825,95.3371521,75.0,89.0
487,95.0580825,95.340059075,67.0,87.0
488,95.0580825,95.3880241625,63.0,88.0
489,94.7092455,95.5566287125,58.0,77.0
490,95.4069195,95.5682566125,55.0,76.0
491,95.7557565,95.81970995,67.0,73.0
492,95.7557565,95.8967447875,63.0,74.0
493,95.7557565,95.9345354625,70.0,81.0
494,96.10459350000001,96.3386049875,68.0,82.0
495,96.10459350000001,96.351686375,63.0,82.0
496,96.627849,96.8705814125,56.0,89.0
497,96.8022675,96.9301744,60.0,88.0
498,96.4534305,97.18017425000001,51.0,66.0
499,96.10459350000001,97.2484881625,44.0,89.0
500,97.1511045,97.4069183,60.0,93.0
501,97.1511045,97.409825275,63.0,93.0
502,97.1511045,97.42436015,56.0,89.0
503,97.4999415,98.055173725,41.0,92.0
504,97.8487785,98.3269758875,56.0,85.0
505,97.8487785,98.3487782,53.0,85.0
506,98.1976155,98.386568875,48.0,79.0
507,98.5464525,98.7673826,53.0,90.0
508,98.5464525,98.79645235,56.0,88.0
509,99.24412650000001,99.5101147125,58.0,77.0
510,99.418545,99.543544925,61.0,80.0
511,98.8952895,99.6380216125,46.0,89.0
512,99.5929635,99.6612774125,58.0,81.0
513,99.5929635,99.767382,65.0,90.0
514,99.9418005,100.2455793875,58.0,88.0
515,99.9418005,100.305172375,65.0,92.0
516,100.2906375,100.7790093,51.0,90.0
517,100.6394745,101.0769742375,67.0,84.0
518,100.6394745,101.1089509625,63.0,89.0
519,100.9883115,101.1162184,58.0,83.0
520,101.3371485,101.6002297375,70.0,87.0
521,101.3371485,101.6205785625,63.0,87.0
522,102.0348225,102.322613025,63.0,82.0
523,102.209241,102.4490664375,68.0,79.0
524,102.38365950000001,102.5275547625,72.0,86.0
525,101.6859855,102.8647638625,44.0,89.0
526,102.7324965,103.05226375,68.0,89.0
527,102.7324965,103.0624381625,72.0,89.0
528,102.7324965,103.22232178750001,63.0,88.0
529,103.4301705,103.927263225,68.0,80.0
530,103.4301705,103.9417981,63.0,87.0
531,103.7790075,104.066798025,51.0,76.0
532,103.0813335,104.0769724375,44.0,88.0
533,104.1278445,104.4258094375,68.0,83.0
534,104.1278445,104.462146625,63.0,88.0
535,104.999937,105.1089485625,67.0,86.0
536,104.8255185,105.113309025,63.0,80.0
537,105.1743555,105.3066228625,63.0,81.0
538,105.1743555,105.316797275,67.0,84.0
539,105.1743555,105.3415065625,70.0,84.0
540,104.4766815,105.363308875,51.0,90.0
541,105.5231925,105.73830865,67.0,86.0
542,105.5231925,105.776099325,70.0,89.0
543,105.5231925,105.78482025,63.0,89.0
544,105.8720295,106.2717385625,49.0,90.0
545,106.2208665,106.4548779875,65.0,90.0
546,106.2208665,106.4635989125,61.0,88.0
547,106.2208665,106.5362732875,68.0,86.0
548,106.5697035,106.9316218875,51.0,90.0
549,106.9185405,107.07115668750001,67.0,84.0
550,106.9185405,107.1176682875,63.0,86.0
551,107.790633,108.0682491125,61.0,76.0
552,107.6162145,108.0798770125,58.0,74.0
553,107.9650515,108.12202815,65.0,89.0
554,107.2673775,108.4345279625,46.0,89.0
555,108.3138885,108.5929581,58.0,82.0
556,108.3138885,108.5973185625,61.0,85.0
557,108.3138885,108.59877205,65.0,89.0
558,108.6627255,109.21505075,48.0,89.0
559,109.0115625,109.5217366125,60.0,86.0
560,109.0115625,109.537724975,67.0,84.0
561,109.0115625,109.5449924125,63.0,87.0
562,109.3603995,109.7281318375,55.0,77.0
563,109.7092365,109.9839456375,58.0,79.0
564,109.7092365,110.049352575,63.0,88.0
565,110.581329,110.6758056875,68.0,77.0
566,110.4069105,110.6787126625,65.0,87.0
567,110.7557475,110.8603986,68.0,79.0
568,110.7557475,110.8880148625,72.0,77.0
569,110.0580735,111.01737525,41.0,91.0
570,110.0580735,111.01737525,53.0,91.0
571,111.1045845,111.45923545,68.0,90.0
572,111.1045845,111.4694098625,72.0,90.0
573,111.1045845,111.485398225,65.0,92.0
574,111.4534215,111.9170840125,41.0,90.0
575,111.8022585,112.1627234,53.0,90.0
576,111.8022585,112.1758047875,56.0,91.0
577,111.8022585,112.3022582,60.0,89.0
578,112.4999325,112.558072,60.0,71.0
579,112.4999325,112.7368509625,51.0,94.0
580,112.1510955,112.7978974375,39.0,93.0
581,113.372025,113.6380132125,60.0,77.0
582,113.1976065,113.65690855,56.0,81.0
583,113.5464435,113.6976062,63.0,81.0
584,112.8487695,114.020280425,44.0,89.0
585,113.8952805,114.21504775,60.0,89.0
586,113.8952805,114.235396575,56.0,87.0
587,113.8952805,114.316791875,63.0,89.0
588,114.2441175,114.8356869125,41.0,90.0
589,114.5929545,114.98248915,56.0,83.0
590,114.5929545,114.9926635625,60.0,80.0
591,114.5929545,115.04062865,53.0,90.0
592,114.9417915,115.2397564375,48.0,81.0
593,115.2906285,115.5130120875,53.0,89.0
594,115.2906285,115.5740585625,56.0,89.0
595,115.2906285,115.6205701625,60.0,88.0
596,115.9883025,116.3502208875,60.0,76.0
597,115.6394655,116.3851045875,53.0,94.0
598,116.162721,116.444697575,65.0,90.0
599,116.3371395,116.467953375,68.0,89.0
600,116.6859765,116.874929875,68.0,89.0
601,116.6859765,116.8851042875,65.0,90.0
602,117.0348135,117.6002201375,48.0,80.0
603,117.3836505,117.8938246125,67.0,78.0
604,117.3836505,117.903999025,60.0,88.0
605,117.7324875,118.1583593375,55.0,88.0
606,118.0813245,118.4112661625,60.0,88.0
607,118.0813245,118.41271965,63.0,85.0
608,118.4301615,118.6641729875,68.0,82.0
609,118.4301615,118.677254375,63.0,82.0
610,118.953417,119.1961494125,56.0,89.0
611,119.1278355,119.2557424,60.0,88.0
612,118.7789985,119.50574225,51.0,66.0
613,118.4301615,119.5740561625,44.0,89.0
614,119.4766725,119.7324863,60.0,93.0
615,119.4766725,119.735393275,63.0,93.0
616,119.4766725,119.74992815,56.0,89.0
617,119.8255095,120.38074172500001,41.0,92.0
618,120.1743465,120.6525438875,56.0,85.0
619,120.1743465,120.6743462,53.0,85.0
620,120.5231835,120.712136875,48.0,79.0
621,120.8720205,121.0929506,53.0,90.0
622,120.8720205,121.12202035,56.0,88.0
623,121.5696945,121.8356827125,58.0,77.0
624,121.744113,121.869112925,61.0,80.0
625,121.2208575,121.9635896125,46.0,89.0
626,121.9185315,121.9868454125,58.0,81.0
627,121.9185315,122.09295,65.0,90.0
628,122.2673685,122.5711473875,58.0,88.0
629,122.2673685,122.630740375,65.0,92.0
630,122.6162055,123.1045773,51.0,90.0
631,122.9650425,123.4025422375,67.0,84.0
632,122.9650425,123.43451896250001,63.0,89.0
633,123.3138795,123.4417864,58.0,83.0
634,123.6627165,123.9257977375,70.0,87.0
635,123.6627165,123.9461465625,63.0,87.0
636,124.3603905,124.648181025,63.0,82.0
637,124.534809,124.7746344375,68.0,79.0
638,124.7092275,124.8531227625,72.0,86.0
639,124.0115535,125.1903318625,44.0,89.0
640,125.0580645,125.37783175,68.0,89.0
641,125.0580645,125.3880061625,72.0,89.0
642,125.0580645,125.5478897875,63.0,88.0
643,125.4069015,126.1205638625,53.0,88.0
644,125.7557385,126.2600986625,68.0,87.0
645,125.7557385,126.270273075,65.0,89.0
646,126.1045755,126.619110075,60.0,84.0
647,126.4534125,126.7106797875,68.0,88.0
648,126.4534125,126.7164937375,65.0,90.0
649,127.1510865,127.5885862375,68.0,84.0
650,127.1510865,127.61038855,63.0,82.0
651,126.8022495,127.793527975,44.0,85.0
652,127.8487605,128.1627138,68.0,86.0
653,127.8487605,128.16852775,72.0,88.0
654,127.8487605,128.171434725,63.0,87.0
655,128.1975975,128.7310274125,53.0,91.0
656,128.5464345,128.938876125,72.0,89.0
657,128.5464345,128.979573775,68.0,87.0
658,128.5464345,128.99410865,65.0,89.0
659,128.8952715,129.5159106625,60.0,86.0
660,129.2441085,129.526085075,65.0,89.0
661,129.2441085,129.534806,68.0,85.0
662,129.5929455,129.9287011125,61.0,85.0
663,129.5929455,129.973759225,65.0,88.0
664,129.9417825,130.409805475,56.0,79.0
665,130.116201,130.4301543,61.0,88.0
666,130.2906195,130.4635845125,68.0,85.0
667,129.5929455,130.4693984625,49.0,90.0
668,130.6394565,130.8836424,61.0,90.0
669,130.6394565,130.91271215,68.0,86.0
670,130.9882935,131.4490490375,51.0,89.0
671,131.6859675,131.7906186,58.0,79.0
672,131.3371305,131.793525575,63.0,86.0
673,131.3371305,131.79643255,67.0,87.0
674,131.3371305,131.805153475,70.0,88.0
675,132.0353850375,132.5076879375,63.0,88.0
676,132.7350930375,132.9945680875,63.0,77.0
677,132.9100200375,133.1009820125,68.0,77.0
678,133.0849470375,133.2219731875,72.0,82.0
679,132.3852390375,133.5601653875,44.0,88.0
680,133.4348010375,134.01206013750001,63.0,89.0
681,133.4348010375,134.1884448625,68.0,89.0
682,133.4348010375,134.2350920625,72.0,89.0
683,134.1345090375,134.5572492875,63.0,86.0
684,134.8342170375,135.1199311375,63.0,83.0
685,134.4843630375,135.1520010875,51.0,77.0
686,133.78465503750002,135.1563742625,44.0,83.0
687,135.5339250375,135.9071026375,60.0,83.0
688,135.5339250375,135.91876443750002,63.0,88.0
689,135.5339250375,135.94937666250001,56.0,84.0
690,135.1840710375,136.3983559625,44.0,88.0
691,136.2336330375,136.5703675125,56.0,83.0
692,136.2336330375,136.5776561375,60.0,85.0
693,136.5834870375,137.1534575125,41.0,89.0
694,136.2336330375,137.4377138875,63.0,87.0
695,136.9333410375,137.4522911375,60.0,77.0
696,136.9333410375,137.4581220375,56.0,80.0
697,136.9333410375,137.4741570125,53.0,80.0
698,137.2831950375,137.5645359625,48.0,68.0
699,137.6330490375,137.8692004875,53.0,84.0
700,137.6330490375,137.93188266250002,56.0,88.0
701,137.6330490375,137.9333403875,60.0,82.0
702,137.6330490375,138.0557892875,63.0,87.0
703,138.33275703750002,138.7671590875,63.0,72.0
704,138.33275703750002,138.8240103625,67.0,77.0
705,137.9829030375,139.1155553625,51.0,90.0
706,139.0324650375,139.4464589375,70.0,83.0
707,139.3823190375,139.4712402625,55.0,63.0
708,139.0324650375,139.4931061375,67.0,84.0
709,139.0324650375,139.5105988375,63.0,85.0
710,139.3823190375,140.1694905375,58.0,76.0
711,139.7321730375,140.1767791625,75.0,85.0
712,139.7321730375,140.2277995375,63.0,80.0
713,140.0820270375,140.2438345125,55.0,87.0
714,139.7321730375,140.2525808625,70.0,86.0
715,139.7321730375,140.2569540375,67.0,79.0
716,140.4318810375,140.55724538750002,63.0,84.0
717,140.7817350375,141.0426678125,60.0,80.0
718,140.7817350375,141.0455832625,56.0,82.0
719,141.1315890375,141.5135129875,63.0,89.0
720,141.1315890375,141.5601601875,56.0,85.0
721,141.1315890375,141.5703642625,60.0,86.0
722,140.7817350375,141.9289646125,44.0,88.0
723,141.8312970375,142.1461656375,63.0,85.0
724,141.8312970375,142.1811510375,60.0,88.0
725,141.8312970375,142.1884396625,56.0,83.0
726,142.5310050375,143.0494551125,56.0,87.0
727,142.5310050375,143.0523620875,53.0,87.0
728,142.1811510375,143.164280625,41.0,84.0
729,142.8808505625,143.2413154625,48.0,75.0
730,143.2296875625,143.4346293,53.0,88.0
731,143.2296875625,143.449164175,56.0,85.0
732,143.5785245625,144.3779426875,46.0,89.0
733,143.9273615625,144.4244542875,61.0,88.0
734,143.9273615625,144.42881475,58.0,85.0
735,144.6250355625,144.972419075,61.0,89.0
736,144.6250355625,145.1511980375,58.0,88.0
737,144.9738725625,145.5291047875,51.0,88.0
738,145.3227095625,145.7253256,58.0,84.0
739,145.3227095625,145.803813925,67.0,84.0
740,145.3227095625,145.850325525,63.0,89.0
741,145.6715465625,146.0727091125,51.0,83.0
742,146.0203835625,146.094511425,63.0,63.0
743,146.0203835625,146.4186391375,58.0,92.0
744,146.3692205625,147.0552666625,44.0,88.0
745,146.7180575625,147.1788131,63.0,87.0
746,146.7180575625,147.22241772499999,60.0,86.0
747,146.7180575625,147.2558479375,56.0,86.0
748,147.41573156249999,147.7151499875,60.0,89.0
749,147.41573156249999,147.751487175,56.0,86.0
750,147.41573156249999,148.11485905,63.0,86.0
751,147.7645685625,148.303812425,41.0,90.0
752,148.1134055625,148.6831726625,56.0,85.0
753,148.1134055625,148.693347075,53.0,85.0
754,148.1134055625,148.7035214875,60.0,83.0
755,148.4622425625,148.8488702375,48.0,84.0
756,148.8110795625,148.9942189875,53.0,90.0
757,148.8110795625,149.0058468875,56.0,88.0
758,148.8110795625,149.04509105,60.0,88.0
759,149.1599165625,149.885206825,44.0,89.0
760,149.5087535625,149.94043935,60.0,88.0
761,149.5087535625,149.9418928375,63.0,88.0
762,149.5087535625,149.9767765375,56.0,87.0
763,150.2064275625,150.57997385,60.0,90.0
764,150.2064275625,150.6090436,56.0,89.0
765,150.55526456249999,151.1206712,41.0,89.0
766,150.2064275625,151.3604966375,63.0,89.0
767,150.9041015625,151.45206635,56.0,85.0
768,150.9041015625,151.4695082,60.0,87.0
769,150.9041015625,151.472415175,53.0,88.0
770,151.2529385625,151.6802638875,48.0,79.0
771,151.6017755625,151.867763775,53.0,89.0
772,151.6017755625,151.88229865,56.0,88.0
773,151.6017755625,151.9128218875,60.0,88.0
774,151.9506125625,152.454972725,49.0,89.0
775,152.2994495625,152.7485772,68.0,83.0
776,152.2994495625,152.7616585875,65.0,88.0
777,152.2994495625,152.7820074125,61.0,84.0
778,152.9971235625,153.3575884625,65.0,84.0
779,152.9971235625,153.3808442625,61.0,83.0
780,152.9971235625,153.4622395625,68.0,81.0
781,153.3459605625,153.879390475,39.0,88.0
782,153.6947975625,154.1628205375,67.0,90.0
783,153.6947975625,154.1904368,63.0,87.0
784,154.0436345625,154.263111175,46.0,80.0
785,154.3924715625,154.8692154625,63.0,81.0
786,154.3924715625,154.8721224375,70.0,82.0
787,155.0901455625,155.280552425,63.0,83.0
788,155.0901455625,155.466598825,72.0,87.0
789,155.4389825625,155.8415986,70.0,89.0
790,154.7413085625,155.95206365,44.0,84.0
791,155.7878195625,156.0494473125,65.0,84.0
792,156.1366565625,156.239854175,63.0,77.0
793,156.1366565625,156.94043514999998,68.0,80.0
794,156.1366565625,157.2907256375,44.0,87.0
795,156.4854935625,157.2936326125,51.0,82.0
796,156.83433056249999,157.3285163125,63.0,85.0
797,157.8808415625,158.1279344375,56.0,78.0
798,158.0552600625,158.1540972125,60.0,80.0
799,158.2296785625,158.37066685,56.0,83.0
800,158.2296785625,158.3779342875,63.0,88.0
801,157.5320045625,158.7253178,44.0,88.0
802,158.5785155625,158.8415968,56.0,92.0
803,158.5785155625,159.1686314875,63.0,88.0
804,159.2761895625,159.449154575,63.0,68.0
805,159.2761895625,159.71950325,56.0,89.0
806,159.2761895625,159.7267706875,53.0,89.0
807,158.9273525625,159.75874741249999,41.0,81.0
808,159.6250265625,159.832875275,48.0,71.0
809,159.97386356250001,160.135200675,53.0,88.0
810,159.97386356250001,160.1686308875,56.0,88.0
811,159.97386356250001,160.28927035,63.0,87.0
812,160.8459560625,160.949153675,67.0,76.0
813,160.6715375625,160.9913048125,63.0,75.0
814,161.0203745625,161.117758225,67.0,83.0
815,161.0203745625,161.1192117125,63.0,77.0
816,161.0203745625,161.1860721375,70.0,88.0
817,160.3227005625,161.4346185,51.0,91.0
818,161.3692115625,161.6628160375,70.0,89.0
819,161.3692115625,161.70787415,63.0,89.0
820,161.3692115625,161.7093276375,67.0,89.0
821,162.0668855625,162.3459551625,75.0,89.0
822,162.0668855625,162.3488621375,67.0,87.0
823,162.0668855625,162.396827225,63.0,88.0
824,161.7180485625,162.565431775,58.0,77.0
825,162.4157225625,162.577059675,55.0,76.0
826,162.7645595625,162.8285130125,67.0,73.0
827,162.7645595625,162.90554785,63.0,74.0
828,162.7645595625,162.943338525,70.0,81.0
829,163.1133965625,163.34740805,68.0,82.0
830,163.1133965625,163.3604894375,63.0,82.0
831,163.6366520625,163.879384475,56.0,89.0
832,163.8110705625,163.9389774625,60.0,88.0
833,163.4622335625,164.18897731250001,51.0,66.0
834,163.1133965625,164.257291225,44.0,89.0
835,164.1599075625,164.4157213625,60.0,93.0
836,164.1599075625,164.4186283375,63.0,93.0
837,164.1599075625,164.4331632125,56.0,89.0
838,164.5087445625,165.0639767875,41.0,92.0
839,164.8575815625,165.33577895,56.0,85.0
840,164.8575815625,165.3575812625,53.0,85.0
841,165.2064185625,165.3953719375,48.0,79.0
842,165.5552555625,165.77618566249998,53.0,90.0
843,165.5552555625,165.8052554125,56.0,88.0
844,166.25292956250001,166.518917775,58.0,77.0
845,166.4273480625,166.5523479875,61.0,80.0
846,165.9040925625,166.646824675,46.0,89.0
847,166.6017665625,166.670080475,58.0,81.0
848,166.6017665625,166.7761850625,65.0,90.0
849,166.9506035625,167.25438245,58.0,88.0
850,166.9506035625,167.3139754375,65.0,92.0
851,167.2994405625,167.7878123625,51.0,90.0
852,167.6482775625,168.0857773,67.0,84.0
853,167.6482775625,168.117754025,63.0,89.0
854,167.9971145625,168.1250214625,58.0,83.0
855,168.3459515625,168.6090328,70.0,87.0
856,168.3459515625,168.629381625,63.0,87.0
857,169.0436255625,169.3459509625,56.0,79.0
858,169.21804406249998,169.4927532,60.0,77.0
859,169.3924625625,169.5276369,63.0,85.0
860,168.6947885625,169.623567075,44.0,88.0
861,169.7412995625,169.99129941249998,56.0,90.0
862,169.7412995625,170.0029273125,60.0,92.0
863,169.7412995625,170.0508924,63.0,92.0
864,170.0901365625,170.5872292875,53.0,92.0
865,170.7878105625,170.891008175,60.0,86.0
866,170.4389735625,170.9273453625,68.0,88.0
867,170.4389735625,170.94042675,65.0,88.0
868,171.1366475625,171.44042645,65.0,92.0
869,171.8343215625,172.09885628749998,56.0,81.0
870,172.1831585625,172.22967016249999,56.0,56.0
871,172.0087400625,172.2761817625,60.0,79.0
872,172.1831585625,172.3197863875,63.0,81.0
873,171.4854845625,172.5203676625,44.0,90.0
874,172.53199556250001,172.8081581875,56.0,88.0
875,172.53199556250001,172.8168791125,60.0,89.0
876,172.53199556250001,172.8779255875,63.0,88.0
877,173.2296695625,173.734029725,68.0,89.0
878,173.2296695625,173.739843675,65.0,90.0
879,173.5785065625,173.9942039875,60.0,82.0
880,172.8808325625,174.0058318875,53.0,90.0
881,173.9273435625,174.20641316249998,65.0,89.0
882,173.9273435625,174.20932013750001,68.0,88.0
883,173.9273435625,174.2136806,72.0,88.0
884,174.6250175625,174.8808313625,65.0,84.0
885,174.7994360625,175.0349010375,68.0,77.0
886,174.9738545625,175.1308312125,72.0,88.0
887,174.2761805625,175.245656725,41.0,89.0
888,175.32269156249998,175.5755983875,68.0,88.0
889,175.32269156249998,175.58431931249999,65.0,88.0
890,175.32269156249998,175.5857728,72.0,89.0
891,175.6715285625,176.135191075,51.0,90.0
892,176.3692025625,176.4622257625,58.0,87.0
893,176.0203655625,176.5087373625,63.0,84.0
894,176.0203655625,176.52181875,67.0,88.0
895,176.0203655625,176.56978383749998,70.0,89.0
896,176.7180395625,176.91716735,63.0,88.0
897,177.0668765625,177.1802485875,44.0,87.0
898,177.0668765625,177.25437645,63.0,86.0
899,177.0668765625,177.4215275125,68.0,83.0
900,177.4157135625,177.6715273625,63.0,82.0
901,177.5901320625,177.67298085,68.0,73.0
902,177.7645505625,177.832864475,68.0,67.0
903,177.7645505625,177.92298069999998,72.0,83.0
904,178.1133875625,178.577050075,63.0,85.0
905,178.1133875625,178.6395500375,68.0,87.0
906,178.1133875625,178.646817475,72.0,89.0
907,178.4622245625,178.94187543750002,56.0,74.0
908,178.4622245625,179.21367759999998,60.0,72.0
909,178.81106156250002,179.23838688749998,63.0,89.0
910,179.1598985625,179.7907121375,56.0,82.0
911,179.5087355625,179.803793525,63.0,88.0
912,180.2064095625,180.4535024375,56.0,78.0
913,180.3808280625,180.4796652125,60.0,80.0
914,180.5552465625,180.69623485,56.0,83.0
915,180.5552465625,180.7035022875,63.0,88.0
916,179.8575725625,181.0508858,44.0,88.0
917,180.9040835625,181.1671648,56.0,92.0
918,180.9040835625,181.4941994875,63.0,88.0
919,181.60175756249998,181.774722575,63.0,68.0
920,181.60175756249998,182.04507125,56.0,89.0
921,181.60175756249998,182.0523386875,53.0,89.0
922,181.2529205625,182.0843154125,41.0,81.0
923,181.9505945625,182.158443275,48.0,71.0
924,182.2994315625,182.460768675,53.0,88.0
925,182.2994315625,182.4941988875,56.0,88.0
926,182.2994315625,182.61483835,63.0,87.0
927,183.1715240625,183.274721675,67.0,76.0
928,182.9971055625,183.3168728125,63.0,75.0
929,183.3459425625,183.443326225,67.0,83.0
930,183.3459425625,183.4447797125,63.0,77.0
931,183.3459425625,183.5116401375,70.0,88.0
932,182.6482685625,183.7601865,51.0,91.0
933,183.6947795625,183.9883840375,70.0,89.0
934,183.6947795625,184.03344214999998,63.0,89.0
935,183.6947795625,184.0348956375,67.0,89.0
936,184.3924535625,184.6715231625,75.0,89.0
937,184.3924535625,184.6744301375,67.0,87.0
938,184.3924535625,184.722395225,63.0,88.0
939,184.0436165625,184.890999775,58.0,77.0
940,184.7412905625,184.902627675,55.0,76.0
941,185.09012756250002,185.1540810125,67.0,73.0
942,185.09012756250002,185.23111585,63.0,74.0
943,185.09012756250002,185.268906525,70.0,81.0
944,185.4389645625,185.67297605,68.0,82.0
945,185.4389645625,185.68605743749998,63.0,82.0
946,185.9622200625,186.204952475,56.0,89.0
947,186.1366385625,186.2645454625,60.0,88.0
948,185.7878015625,186.5145453125,51.0,66.0
949,185.4389645625,186.582859225,44.0,89.0
950,186.4854755625,186.7412893625,60.0,93.0
951,186.4854755625,186.7441963375,63.0,93.0
952,186.4854755625,186.7587312125,56.0,89.0
953,186.8343125625,187.3895447875,41.0,92.0
954,187.1831495625,187.66134695,56.0,85.0
955,187.1831495625,187.6831492625,53.0,85.0
956,187.5319865625,187.7209399375,48.0,79.0
957,187.88082356249998,188.10175366250002,53.0,90.0
958,187.88082356249998,188.1308234125,56.0,88.0
959,188.5784975625,188.844485775,58.0,77.0
960,188.7529160625,188.8779159875,61.0,80.0
961,188.2296605625,188.972392675,46.0,89.0
962,188.9273345625,188.995648475,58.0,81.0
963,188.9273345625,189.1017530625,65.0,90.0
964,189.2761715625,189.57995045,58.0,88.0
965,189.2761715625,189.6395434375,65.0,92.0
966,189.6250085625,190.1133803625,51.0,90.0
967,189.9738455625,190.4113453,67.0,84.0
968,189.9738455625,190.443322025,63.0,89.0
969,190.3226825625,190.4505894625,58.0,83.0
970,190.6715195625,190.9346008,70.0,87.0
971,190.6715195625,190.95494962499998,63.0,87.0
972,191.36919356250002,191.6569840875,63.0,82.0
973,191.5436120625,191.7834375,68.0,79.0
974,191.7180305625,191.86192582500001,72.0,86.0
975,191.0203565625,192.199134925,44.0,89.0
976,192.0668675625,192.3866348125,68.0,89.0
977,192.0668675625,192.396809225,72.0,89.0
978,192.0668675625,192.55669285,63.0,88.0
979,192.7645415625,193.2616342875,68.0,80.0
980,192.7645415625,193.2761691625,63.0,87.0
981,193.1133785625,193.4011690875,51.0,76.0
982,192.4157045625,193.4113435,44.0,88.0
983,193.4622155625,193.7601805,68.0,83.0
984,193.4622155625,193.7965176875,63.0,88.0
985,194.33430806249999,194.44331962500002,67.0,86.0
986,194.15988956249998,194.4476800875,63.0,80.0
987,194.5087265625,194.640993925,63.0,81.0
988,194.5087265625,194.6511683375,67.0,84.0
989,194.5087265625,194.675877625,70.0,84.0
990,193.8110525625,194.6976799375,51.0,90.0
991,194.8575635625,195.0726797125,67.0,86.0
992,194.8575635625,195.11047038750002,70.0,89.0
993,194.8575635625,195.1191913125,63.0,89.0
994,195.2064005625,195.606109625,49.0,90.0
995,195.5552375625,195.78924905,65.0,90.0
996,195.5552375625,195.797969975,61.0,88.0
997,195.5552375625,195.87064435,68.0,86.0
998,195.9040745625,196.26599295,51.0,90.0
999,196.2529115625,196.40552775,67.0,84.0
1000,196.2529115625,196.45203935,63.0,86.0
1001,197.1250040625,197.402620175,61.0,76.0
1002,196.9505855625,197.414248075,58.0,74.0
1003,197.2994225625,197.4563992125,65.0,89.0
1004,196.6017485625,197.768899025,46.0,89.0
1005,197.64825956250002,197.9273291625,58.0,82.0
1006,197.64825956250002,197.931689625,61.0,85.0
1007,197.64825956250002,197.9331431125,65.0,89.0
1008,197.9970965625,198.5494218125,48.0,89.0
1009,198.3459335625,198.856107675,60.0,86.0
1010,198.3459335625,198.8720960375,67.0,84.0
1011,198.3459335625,198.879363475,63.0,87.0
1012,198.6947705625,199.0625029,55.0,77.0
1013,199.0436075625,199.3183167,58.0,79.0
1014,199.0436075625,199.3837236375,63.0,88.0
1015,199.9157000625,200.01017675,68.0,77.0
1016,199.7412815625,200.013083725,65.0,87.0
1017,200.0901185625,200.1947696625,68.0,79.0
1018,200.0901185625,200.222385925,72.0,77.0
1019,199.3924445625,200.35174631249998,53.0,91.0
1020,200.43895556249998,200.7936065125,68.0,90.0
1021,200.43895556249998,200.803780925,72.0,90.0
1022,200.43895556249998,200.8197692875,65.0,92.0
1023,200.7877925625,201.251455075,41.0,90.0
1024,201.1366295625,201.4970944625,53.0,90.0
1025,201.1366295625,201.51017585,56.0,91.0
1026,201.1366295625,201.6366292625,60.0,89.0
1027,201.8343035625,201.8924430625,60.0,71.0
1028,201.8343035625,202.071222025,51.0,94.0
1029,201.4854665625,202.1322685,39.0,93.0
1030,202.5319775625,202.7790704375,56.0,78.0
1031,202.7063960625,202.8052332125,60.0,80.0
1032,202.8808145625,203.02180285,56.0,83.0
1033,202.8808145625,203.0290702875,63.0,88.0
1034,202.1831405625,203.3764538,44.0,88.0
1035,203.2296515625,203.4927328,56.0,92.0
1036,203.2296515625,203.8197674875,63.0,88.0
1037,203.92732556250002,204.100290575,63.0,68.0
1038,203.92732556250002,204.37063925,56.0,89.0
1039,203.92732556250002,204.3779066875,53.0,89.0
1040,203.5784885625,204.4098834125,41.0,81.0
1041,204.2761625625,204.484011275,48.0,71.0
1042,204.6249995625,204.786336675,53.0,88.0
1043,204.6249995625,204.8197668875,56.0,88.0
1044,204.6249995625,204.94040635,63.0,87.0
1045,205.4970920625,205.600289675,67.0,76.0
1046,205.3226735625,205.6424408125,63.0,75.0
1047,205.6715105625,205.768894225,67.0,83.0
1048,205.6715105625,205.77034771249998,63.0,77.0
1049,205.6715105625,205.8372081375,70.0,88.0
1050,204.9738365625,206.0857545,51.0,91.0
1051,206.0203475625,206.3139520375,70.0,89.0
1052,206.0203475625,206.35901015,63.0,89.0
1053,206.0203475625,206.3604636375,67.0,89.0
1054,206.71802156249998,206.9970911625,75.0,89.0
1055,206.71802156249998,206.9999981375,67.0,87.0
1056,206.71802156249998,207.047963225,63.0,88.0
1057,206.3691845625,207.216567775,58.0,77.0
1058,207.0668585625,207.228195675,55.0,76.0
1059,207.4156955625,207.4796490125,67.0,73.0
1060,207.4156955625,207.55668385,63.0,74.0
1061,207.4156955625,207.594474525,70.0,81.0
1062,207.7645325625,207.99854405,68.0,82.0
1063,207.7645325625,208.01162543750002,63.0,82.0
1064,208.2877880625,208.530520475,56.0,89.0
1065,208.4622065625,208.5901134625,60.0,88.0
1066,208.1133695625,208.8401133125,51.0,66.0
1067,207.7645325625,208.908427225,44.0,89.0
1068,208.8110435625,209.0668573625,60.0,93.0
1069,208.8110435625,209.0697643375,63.0,93.0
1070,208.8110435625,209.0842992125,56.0,89.0
1071,209.1598805625,209.7151127875,41.0,92.0
1072,209.5087175625,209.98691495,56.0,85.0
1073,209.5087175625,210.0087172625,53.0,85.0
1074,209.8575545625,210.0465079375,48.0,79.0
1075,210.20639156250002,210.4273216625,53.0,90.0
1076,210.20639156250002,210.4563914125,56.0,88.0
1077,210.9040655625,211.17005377499999,58.0,77.0
1078,211.0784840625,211.2034839875,61.0,80.0
1079,210.55522856250002,211.297960675,46.0,89.0
1080,211.2529025625,211.321216475,58.0,81.0
1081,211.2529025625,211.4273210625,65.0,90.0
1082,211.6017395625,211.90551845,58.0,88.0
1083,211.6017395625,211.9651114375,65.0,92.0
1084,211.9505765625,212.4389483625,51.0,90.0
1085,212.29941356249998,212.7369133,67.0,84.0
1086,212.29941356249998,212.76889002500002,63.0,89.0
1087,212.64825056249998,212.7761574625,58.0,83.0
1088,212.99708756249998,213.2601688,70.0,87.0
1089,212.99708756249998,213.28051762500002,63.0,87.0
1090,213.6947615625,213.98255208749998,63.0,82.0
1091,213.8691800625,214.1090055,68.0,79.0
1092,214.0435985625,214.187493825,72.0,86.0
1093,213.3459245625,214.52470292499999,44.0,89.0
1094,214.3924355625,214.71220281249998,68.0,89.0
1095,214.3924355625,214.722377225,72.0,89.0
1096,214.3924355625,214.88226085,63.0,88.0
1097,215.0901095625,215.58720228750002,68.0,80.0
1098,215.0901095625,215.6017371625,63.0,87.0
1099,215.4389465625,215.7267370875,51.0,76.0
1100,214.7412725625,215.73691150000002,44.0,88.0
1101,215.7877835625,216.0857485,68.0,83.0
1102,215.7877835625,216.1220856875,63.0,88.0
1103,216.65987606250002,216.768887625,67.0,86.0
1104,216.48545756250002,216.7732480875,63.0,80.0
1105,216.83429456250002,216.966561925,63.0,81.0
1106,216.83429456250002,216.9767363375,67.0,84.0
1107,216.83429456250002,217.001445625,70.0,84.0
1108,216.1366205625,217.0232479375,51.0,90.0
1109,217.1831315625,217.3982477125,67.0,86.0
1110,217.1831315625,217.4360383875,70.0,89.0
1111,217.1831315625,217.4447593125,63.0,89.0
1112,217.5319685625,217.93167762500002,49.0,90.0
1113,217.8808055625,218.11481705,65.0,90.0
1114,217.8808055625,218.123537975,61.0,88.0
1115,217.8808055625,218.19621235,68.0,86.0
1116,218.2296425625,218.59156095,51.0,90.0
1117,218.57847956249998,218.73109575,67.0,84.0
1118,218.57847956249998,218.77760734999998,63.0,86.0
1119,219.4505720625,219.728188175,61.0,76.0
1120,219.27615356249999,219.739816075,58.0,74.0
1121,219.6249905625,219.78196721249998,65.0,89.0
1122,218.92731656249998,220.094467025,46.0,89.0
1123,219.9738275625,220.2528971625,58.0,82.0
1124,219.9738275625,220.257257625,61.0,85.0
1125,219.9738275625,220.2587111125,65.0,89.0
1126,220.3226645625,220.87498981250002,48.0,89.0
1127,220.6715015625,221.181675675,60.0,86.0
1128,220.6715015625,221.1976640375,67.0,84.0
1129,220.6715015625,221.204931475,63.0,87.0
1130,221.0203385625,221.3880709,55.0,77.0
1131,221.3691755625,221.6438847,58.0,79.0
1132,221.3691755625,221.7092916375,63.0,88.0
1133,222.2412680625,222.33574475,68.0,77.0
1134,222.0668495625,222.338651725,65.0,87.0
1135,222.4156865625,222.5203376625,68.0,79.0
1136,222.4156865625,222.547953925,72.0,77.0
1137,221.7180125625,222.67731431250002,41.0,91.0
1138,221.7180125625,222.67731431250002,53.0,91.0
1139,222.76452356250002,223.1191745125,68.0,90.0
1140,222.76452356250002,223.129348925,72.0,90.0
1141,222.76452356250002,223.1453372875,65.0,92.0
1142,223.11336056250002,223.577023075,41.0,90.0
1143,223.4621975625,223.8226624625,53.0,90.0
1144,223.4621975625,223.83574385,56.0,91.0
1145,223.4621975625,223.9621972625,60.0,89.0
1146,224.1598715625,224.2180110625,60.0,71.0
1147,224.1598715625,224.396790025,51.0,94.0
1148,223.8110345625,224.45783649999998,39.0,93.0
1149,224.85754556249998,225.1046384375,56.0,78.0
1150,225.03196406249998,225.1308012125,60.0,80.0
1151,225.20638256249998,225.34737085,56.0,83.0
1152,225.20638256249998,225.3546382875,63.0,88.0
1153,224.5087085625,225.7020218,44.0,88.0
1154,225.55521956249999,225.8183008,56.0,92.0
1155,225.55521956249999,226.1453354875,63.0,88.0
1156,226.2528935625,226.425858575,63.0,68.0
1157,226.2528935625,226.69620725,56.0,89.0
1158,226.2528935625,226.7034746875,53.0,89.0
1159,225.9040565625,226.7354514125,41.0,81.0
1160,226.6017305625,226.809579275,48.0,71.0
1161,226.9505675625,227.111904675,53.0,88.0
1162,226.9505675625,227.14533488749998,56.0,88.0
1163,226.9505675625,227.26597435,63.0,87.0
1164,227.8226600625,227.925857675,67.0,76.0
1165,227.6482415625,227.9680088125,63.0,75.0
1166,227.9970785625,228.094462225,67.0,83.0
1167,227.9970785625,228.09591571250002,63.0,77.0
1168,227.9970785625,228.1627761375,70.0,88.0
1169,227.2994045625,228.41132249999998,51.0,91.0
1170,228.3459155625,228.6395200375,70.0,89.0
1171,228.3459155625,228.68457815,63.0,89.0
1172,228.3459155625,228.68603163749998,67.0,89.0
1173,229.04358956250002,229.3226591625,75.0,89.0
1174,229.04358956250002,229.3255661375,67.0,87.0
1175,229.04358956250002,229.373531225,63.0,88.0
1176,228.6947525625,229.54213577500002,58.0,77.0
1177,229.39242656250002,229.553763675,55.0,76.0
1178,229.7412635625,229.8052170125,67.0,73.0
1179,229.7412635625,229.88225185,63.0,74.0
1180,229.7412635625,229.92004252499999,70.0,81.0
1181,230.0901005625,230.32411205,68.0,82.0
1182,230.0901005625,230.3371934375,63.0,82.0
1183,230.6133560625,230.85608847499998,56.0,89.0
1184,230.7877745625,230.9156814625,60.0,88.0
1185,230.4389375625,231.1656813125,51.0,66.0
1186,230.0901005625,231.233995225,44.0,89.0
1187,231.13661156249998,231.3924253625,60.0,93.0
1188,231.13661156249998,231.3953323375,63.0,93.0
1189,231.13661156249998,231.4098672125,56.0,89.0
1190,231.48544856249998,232.04068078749998,41.0,92.0
1191,231.83428556249999,232.31248295,56.0,85.0
1192,231.83428556249999,232.3342852625,53.0,85.0
1193,232.1831225625,232.3720759375,48.0,79.0
1194,232.5319595625,232.7528896625,53.0,90.0
1195,232.5319595625,232.7819594125,56.0,88.0
1196,233.2296335625,233.49562177500002,58.0,77.0
1197,233.4040520625,233.5290519875,61.0,80.0
1198,232.8807965625,233.623528675,46.0,89.0
1199,233.5784705625,233.646784475,58.0,81.0
1200,233.5784705625,233.7528890625,65.0,90.0
1201,233.9273075625,234.23108645,58.0,88.0
1202,233.9273075625,234.2906794375,65.0,92.0
1203,234.2761445625,234.7645163625,51.0,90.0
1204,234.6249815625,235.0624813,67.0,84.0
1205,234.6249815625,235.094458025,63.0,89.0
1206,234.9738185625,235.10172546249999,58.0,83.0
1207,235.32265556250002,235.5857368,70.0,87.0
1208,235.32265556250002,235.606085625,63.0,87.0
1209,236.0203295625,236.30812008750001,63.0,82.0
1210,236.1947480625,236.4345735,68.0,79.0
1211,236.3691665625,236.513061825,72.0,86.0
1212,235.67149256250002,236.85027092500002,44.0,89.0
1213,236.7180035625,237.0377708125,68.0,89.0
1214,236.7180035625,237.04794522499998,72.0,89.0
1215,236.7180035625,237.20782885,63.0,88.0
1216,237.41567756249998,237.9127702875,68.0,80.0
1217,237.41567756249998,237.9273051625,63.0,87.0
1218,237.76451456249998,238.0523050875,51.0,76.0
1219,237.0668405625,238.0624795,44.0,88.0
1220,238.1133515625,238.4113165,68.0,83.0
1221,238.1133515625,238.4476536875,63.0,88.0
1222,238.9854440625,239.094455625,67.0,86.0
1223,238.8110255625,239.09881608749998,63.0,80.0
1224,239.1598625625,239.29212992499998,63.0,81.0
1225,239.1598625625,239.3023043375,67.0,84.0
1226,239.1598625625,239.327013625,70.0,84.0
1227,238.4621885625,239.34881593749998,51.0,90.0
1228,239.5086995625,239.7238157125,67.0,86.0
1229,239.5086995625,239.7616063875,70.0,89.0
1230,239.5086995625,239.7703273125,63.0,89.0
1231,239.8575365625,240.257245625,49.0,90.0
1232,240.2063735625,240.44038505,65.0,90.0
1233,240.2063735625,240.449105975,61.0,88.0
1234,240.2063735625,240.52178035,68.0,86.0
1235,240.5552105625,240.91712895,51.0,90.0
1236,240.9040475625,241.05666374999998,67.0,84.0
1237,240.9040475625,241.10317535000001,63.0,86.0
1238,241.77614006250002,242.053756175,61.0,76.0
1239,241.60172156250002,242.065384075,58.0,74.0
1240,241.9505585625,242.1075352125,65.0,89.0
1241,241.25288456250001,242.420035025,46.0,89.0
1242,242.2993955625,242.57846516249998,58.0,82.0
1243,242.2993955625,242.582825625,61.0,85.0
1244,242.2993955625,242.58427911249998,65.0,89.0
1245,242.6482325625,243.2005578125,48.0,89.0
1246,242.9970695625,243.50724367499998,60.0,86.0
1247,242.9970695625,243.5232320375,67.0,84.0
1248,242.9970695625,243.530499475,63.0,87.0
1249,243.3459065625,243.71363889999998,55.0,77.0
1250,243.69474356249998,243.9694527,58.0,79.0
1251,243.69474356249998,244.0348596375,63.0,88.0
1252,244.5668360625,244.66131274999998,68.0,77.0
1253,244.3924175625,244.664219725,65.0,87.0
1254,244.7412545625,244.8459056625,68.0,79.0
1255,244.7412545625,244.873521925,72.0,77.0
1256,244.04358056249998,245.0028823125,41.0,91.0
1257,244.04358056249998,245.0028823125,53.0,91.0
1258,245.0900915625,245.4447425125,68.0,90.0
1259,245.4040448625,245.4447425125,68.0,77.0
1260,245.0900915625,245.45491692500002,72.0,90.0
1261,245.0900915625,245.4709052875,65.0,92.0
1262,245.3371844375,245.4709052875,65.0,80.0
1263,245.38224255,246.61479995000002,41.0,88.0
1264,245.48398667499998,247.0406717875,72.0,76.0
