,start,end,pitch,velocity
0,0.45895451249999997,0.7164168,69.0,85.0
1,0.6902974374999999,0.9347000437499999,71.0,88.0
2,0.9253716999999999,1.3955202249999998,72.0,88.0
3,1.36380385625,1.5652960812499999,71.0,92.0
4,1.5652960812499999,1.7220122562499998,69.0,83.0
5,1.8208927,2.28171288125,69.0,88.0
6,2.276115875,2.5223841499999997,71.0,88.0
7,2.50186179375,3.81902393125,69.0,92.0
8,4.0764862187499995,4.32275449375,72.0,88.0
9,4.2947694625,4.514918375,74.0,95.0
10,4.50185869375,4.951484862499999,76.0,95.0
11,4.921634162499999,5.141783074999999,74.0,110.0
12,5.1305890624999995,5.4067080375,72.0,86.0
13,5.365663325,5.84514019375,71.0,98.0
14,5.833946181249999,6.01678171875,72.0,84.0
15,5.97946834375,6.110065156249999,71.0,85.0
16,6.111930824999999,6.3656617749999995,69.0,84.0
17,6.330214068749999,7.52424206875,67.0,92.0
18,8.078345687499999,8.410434725,69.0,87.0
19,8.406703387499999,8.62125529375,64.0,95.0
20,8.7201357375,8.981329362499999,64.0,92.0
21,9.007448725,9.283567699999999,69.0,92.0
22,9.2947617125,9.611925399999999,64.0,95.0
23,9.58394036875,9.899238387499999,62.0,88.0
24,9.902969724999998,10.798490724999999,64.0,85.0
25,10.99998295,11.21453485625,62.0,85.0
26,11.21080351875,11.471997143749999,60.0,84.0
27,11.440280775,11.677220706249999,62.0,86.0
28,11.6753550375,12.69214450625,64.0,88.0
29,13.020502206249999,13.136173668749999,64.0,110.0
30,13.136173668749999,13.246248125,65.0,81.0
31,13.220128762499998,13.330203218749999,64.0,85.0
32,13.345128568749999,13.47199404375,62.0,82.0
33,13.4925164,15.14363324375,64.0,82.0
34,30.28540081875,31.697712062499996,64.0,73.0
35,30.061520568749998,32.13614421875,69.0,66.0
36,30.509281068749996,32.233158993749996,72.0,78.0
37,32.076442818749996,32.290994725,64.0,72.0
38,32.30032306875,32.990620506249996,71.0,81.0
39,33.86748481875,34.843229574999995,76.0,76.0
40,33.64360456875,34.87494594375,67.0,59.0
41,33.19584406875,34.96822938125,72.0,76.0
42,35.65852681875,36.19210808125,72.0,76.0
43,35.88240706875,36.757405712499995,69.0,70.0
44,36.10628731875,36.87121150625,76.0,81.0
45,36.77792806874999,37.818971231249996,74.0,81.0
46,37.225688568749995,37.830165243749995,69.0,72.0
47,37.673449068749996,38.65105949375,77.0,74.0
48,39.01673056875,39.5559088375,69.0,68.0
49,39.46449106874999,39.95702761875,74.0,80.0
50,39.912251568749994,40.430907481249996,69.0,83.0
51,40.360012068749995,41.26299574375,77.0,81.0
52,40.807772568749996,41.75926363124999,69.0,66.0
53,41.25553306875,41.78165165625,74.0,81.0
54,42.822694818749994,43.07269443125,64.0,82.0
55,43.046575068749995,43.289112006249994,67.0,82.0
56,43.270455318749995,43.55776830625,64.0,83.0
57,43.494335568749996,43.975678106249994,67.0,82.0
58,43.94209606875,45.729406731249995,69.0,83.0
59,45.733138068749994,47.39358325625,74.0,88.0
60,47.52418006875,48.90477494375,74.0,84.0
61,48.867461568749995,49.111864174999994,72.0,76.0
62,49.091341818749996,49.290968375,74.0,81.0
63,49.315222068749996,50.783503374999995,76.0,80.0
64,51.106264068749994,52.68461983125,69.0,83.0
65,52.89730606875,54.55588558749999,67.0,75.0
66,52.89730606875,54.589467625,71.0,81.0
67,54.688348068749995,55.5185706625,74.0,85.0
68,55.58386906875,56.2648381625,71.0,82.0
69,55.13610856875,56.292823193749996,67.0,75.0
70,56.47939006874999,57.42341845625,72.0,76.0
71,56.927150568749994,57.71259711249999,67.0,58.0
72,57.374911068749995,58.141700924999995,76.0,82.0
73,58.27043206875,58.7200582375,74.0,83.0
74,58.71819256875,59.895429549999996,69.0,78.0
75,59.16595306874999,59.899160887499995,77.0,75.0
76,60.061474068749995,61.602516456249994,76.0,81.0
77,60.061474068749995,61.62117314374999,72.0,74.0
78,61.85251606874999,62.356246631249995,74.0,83.0
79,62.748037068749994,63.290946674999994,74.0,79.0
80,62.30027656874999,63.320797375,69.0,72.0
81,63.643558068749996,64.02228882499999,76.0,83.0
82,63.643558068749996,64.02788583124999,71.0,82.0
83,64.09131856875,64.290945125,71.0,79.0
84,64.09131856875,64.30587047499999,76.0,82.0
85,64.53907906875,64.73310861875,71.0,81.0
86,64.53907906875,64.73683995625,76.0,82.0
87,64.98683956875,65.2051228125,71.0,78.0
88,64.98683956875,65.22564516874999,76.0,82.0
89,65.43460006875,66.89355303125,71.0,81.0
90,65.43460006875,66.91967239374999,76.0,82.0
91,67.22564206874999,67.98123791249999,69.0,85.0
92,68.12116306875,68.93272897499999,69.0,81.0
93,68.12116306875,68.99056470625,72.0,81.0
94,69.01668406875,70.46444301874999,71.0,74.0
95,69.01668406875,70.47750269999999,67.0,72.0
96,70.80772606875,71.56332191249999,72.0,75.0
97,70.80772606875,71.56518758124999,69.0,66.0
98,71.70324706874999,72.4140668625,69.0,76.0
99,71.70324706874999,72.47003692499999,72.0,76.0
100,72.59876806874999,73.85809447499999,71.0,74.0
101,72.59876806874999,73.89727351875,67.0,74.0
102,73.94204956875,74.16592981874999,72.0,81.0
103,74.16592981874999,74.42339210624999,71.0,74.0
104,74.38981006875,77.26667128125,69.0,79.0
105,77.97189406874999,81.39353055625,69.0,70.0
106,77.97189406874999,81.42338125625,72.0,73.0
107,81.55397806875,84.22001871249999,69.0,70.0
108,81.55397806875,84.22375004999999,72.0,72.0
109,84.68830156874999,84.93830118125,69.0,92.0
110,84.91218181874999,85.16777843749999,71.0,90.0
111,85.13606206875,85.559568875,72.0,92.0
112,85.58382256875,86.05397109375,71.0,98.0
113,86.03158306875,86.455089875,69.0,88.0
114,86.47934356875,86.69389547499999,71.0,86.0
115,86.70322381874999,87.98493825,69.0,90.0
116,88.04650531875,88.24799754374999,72.0,92.0
117,88.27038556874999,88.5035941625,74.0,98.0
118,88.49426581875,88.70881772499999,72.0,90.0
119,88.71814606874999,90.10806928749999,76.0,95.0
120,90.06142756874999,90.290904825,74.0,98.0
121,90.28530781875,90.50918806874999,72.0,88.0
122,90.50918806874999,90.72933698124999,74.0,95.0
123,90.73306831874999,90.9588142375,72.0,88.0
124,90.95694856875,91.76291746874999,69.0,87.0
125,91.85246956875,92.08008115624999,76.0,97.0
126,92.07634981874999,93.69575029375,74.0,92.0
127,93.77597404999999,94.05769003124999,69.0,88.0
128,94.06328703749999,94.38231639374999,74.0,102.0
129,94.36179403749999,94.70134574999999,76.0,90.0
130,94.64724135624999,95.02410644374999,77.0,87.0
131,94.97746472499999,95.34127013124998,76.0,95.0
132,95.28903140624999,95.55022503125,74.0,97.0
133,95.5558220375,95.8543290375,72.0,88.0
134,95.8543290375,96.52596978749999,76.0,92.0
135,96.55395481874999,96.79462608749999,76.0,95.0
136,96.77783506875,97.08380474375,81.0,92.0
137,97.13044646249999,97.43081913124999,83.0,97.0
138,97.37484906875,97.6901470875,84.0,92.0
139,97.67335606875,98.60992178125,83.0,98.0
140,98.79275731874999,99.03529425625,76.0,92.0
141,99.01663756874999,99.22559246875,79.0,92.0
142,99.24051781874999,99.44014437499999,76.0,90.0
143,99.46439806874999,100.98678376874999,81.0,92.0
144,101.03155981875,101.31887280624998,76.0,92.0
145,101.25544006874999,101.60245445624999,81.0,90.0
146,101.56887241874999,101.89909578749999,83.0,90.0
147,101.83006604375,102.16588641874999,84.0,88.0
148,102.15096106875,102.47931876874999,83.0,98.0
149,102.47745309999999,102.74797506875,81.0,88.0
150,102.738646725,103.0558104125,79.0,86.0
151,103.04648206875,103.4886455625,81.0,87.0
152,103.49424256875,103.63976473125,76.0,88.0
153,103.71812281874999,104.38230089374998,76.0,107.0
154,104.38976356874998,104.61924082499999,74.0,95.0
155,104.61364381874999,104.887897125,72.0,81.0
156,104.83752406874999,105.09312068749999,74.0,88.0
157,105.06140431875,106.30953671249999,76.0,86.0
158,106.63416307499999,107.07819223749999,81.0,90.0
159,107.06326688749999,107.31513216875,76.0,90.0
160,107.28341579999999,107.51289305625,74.0,98.0
161,107.51849006249999,107.81140005625,79.0,90.0
162,107.8169970625,108.14162342499999,76.0,92.0
163,108.1155040625,108.37483201874998,74.0,95.0
164,108.36923501249998,108.75169710624999,77.0,92.0
165,108.72930908125,109.00169671875,71.0,95.0
166,109.01289073125,109.21811429374999,69.0,87.0
167,109.3169947375,109.63229275625,76.0,88.0
168,109.62669575,109.88229236874999,74.0,86.0
169,109.89348638124999,110.14721733124999,72.0,92.0
170,110.17333669374999,111.619229975,76.0,97.0
171,111.50728984999999,111.619229975,76.0,98.0
172,111.98676671874999,113.69012228749999,88.0,95.0
173,128.79271081874998,130.20502206249998,64.0,73.0
174,128.56883056875,130.64345421874998,69.0,66.0
175,129.01659106875,130.74046899375,72.0,78.0
176,130.58375281874999,130.79830472499998,64.0,72.0
177,130.80763306875,131.49793050625,71.0,81.0
178,132.37479481875,133.350539575,76.0,76.0
179,132.15091456874998,133.38225594374998,67.0,59.0
180,131.70315406875,133.47553938125,72.0,76.0
181,134.16583681875,134.69941808125,72.0,76.0
182,134.38971706875,135.2647157125,69.0,70.0
183,134.61359731874998,135.37852150625,76.0,81.0
184,135.28523806874998,136.32628123125,74.0,81.0
185,135.73299856875,136.33747524375,69.0,72.0
186,136.18075906874998,137.15836949375,77.0,74.0
187,137.52404056875,138.0632188375,69.0,68.0
188,137.97180106874998,138.46433761875,74.0,80.0
189,138.41956156875,138.93821748124998,69.0,83.0
190,138.86732206874998,139.77030574375,77.0,81.0
191,139.31508256875,140.26657363125,69.0,66.0
192,139.76284306875,140.28896165625,74.0,81.0
193,141.33000481874998,141.58000443125,64.0,82.0
194,141.55388506875,141.79642200625,67.0,82.0
195,141.77776531875,142.06507830625,64.0,83.0
196,142.00164556874998,142.48298810625,67.0,82.0
197,142.44940606875,144.23671673125,69.0,83.0
198,144.24044806875,145.90089325625,74.0,88.0
199,146.03149006874997,147.41208494375,74.0,84.0
200,147.37477156875,147.61917417499998,72.0,76.0
201,147.59865181875,147.798278375,74.0,81.0
202,147.82253206874998,149.290813375,76.0,80.0
203,149.61357406874998,151.19192983124998,69.0,83.0
204,151.40461606875,153.0631955875,67.0,75.0
205,151.40461606875,153.096777625,71.0,81.0
206,153.19565806875,154.0258806625,74.0,85.0
207,154.09117906875,154.77214816249997,71.0,82.0
208,153.64341856874998,154.80013319374999,67.0,75.0
209,154.98670006875,155.93072845625,72.0,76.0
210,155.43446056874998,156.21990711249998,67.0,58.0
211,155.88222106875,156.649010925,76.0,82.0
212,156.77774206874997,157.22736823749997,74.0,83.0
213,157.22550256875,158.40273954999998,69.0,78.0
214,157.67326306874997,158.40647088749998,77.0,75.0
215,158.56878406874998,160.10982645624998,76.0,81.0
216,158.56878406874998,160.12848314374997,72.0,74.0
217,160.35982606874998,160.86355663125,74.0,83.0
218,161.25534706874998,161.79825667499998,74.0,79.0
219,160.80758656875,161.82810737499997,69.0,72.0
220,162.15086806875,162.529598825,76.0,83.0
221,162.15086806875,162.53519583124998,71.0,82.0
222,162.59862856874997,162.798255125,71.0,79.0
223,162.59862856874997,162.813180475,76.0,82.0
224,163.04638906875,163.24041861875,71.0,81.0
225,163.04638906875,163.24414995625,76.0,82.0
226,163.49414956874998,163.7124328125,71.0,78.0
227,163.49414956874998,163.73295516874998,76.0,82.0
228,163.94191006875,165.40086303125,71.0,81.0
229,163.94191006875,165.42698239375,76.0,82.0
230,165.73295206875,167.45682999374998,80.0,87.0
231,165.73295206875,167.4586956625,76.0,87.0
232,167.52399406874997,169.11727518125,76.0,78.0
233,167.52399406874997,169.14339454375,83.0,81.0
234,167.52399406874997,169.14526021249998,80.0,82.0
235,169.31503606874998,170.07063191249998,72.0,75.0
236,169.31503606874998,170.07249758125,69.0,66.0
237,170.21055706874998,170.92137686249998,69.0,76.0
238,170.21055706874998,170.97734692499998,72.0,76.0
239,171.10607806874998,172.365404475,71.0,74.0
240,171.10607806874998,172.40458351874997,67.0,74.0
241,172.44935956875,172.67323981874998,72.0,81.0
242,172.67323981874998,172.93070210624998,71.0,74.0
243,172.89712006874998,175.77398128124997,69.0,79.0
244,176.47920406875,179.90084055625,69.0,70.0
245,176.47920406875,179.93069125625,72.0,73.0
246,180.06128806874997,182.7273287125,69.0,70.0
247,180.06128806874997,182.73106005,72.0,72.0
248,183.19561156875,183.47173054374997,74.0,88.0
249,183.41949181874998,183.68628245,76.0,90.0
250,183.64337206874998,185.02956394999998,77.0,92.0
251,184.98665356874997,185.21799649374998,76.0,75.0
252,185.21053381874998,185.42881706249997,74.0,82.0
253,185.43441406875,187.0444862,76.0,82.0
254,185.43441406875,187.05008320624998,72.0,81.0
255,187.22545606875,188.12097706875,74.0,88.0
256,188.12097706875,188.9511996625,77.0,83.0
257,189.01649806875,189.27396035624997,71.0,79.0
258,189.01649806875,189.28142303124997,76.0,82.0
259,189.46425856874998,189.64149709999998,71.0,76.0
260,189.46425856874998,189.64336276875,76.0,78.0
261,189.91201906874997,190.10977995624998,71.0,77.0
262,189.91201906874997,190.11724263124998,76.0,81.0
263,190.35977956874999,190.55007778125,71.0,77.0
264,190.35977956874999,190.55380911875,76.0,81.0
265,190.80754006874997,191.95492635,71.0,81.0
266,190.80754006874997,192.245970675,76.0,82.0
267,192.59858206874998,193.81126675624998,69.0,75.0
268,192.59858206874998,193.82246076874998,72.0,77.0
269,193.94186356875,194.27208693749998,69.0,76.0
270,193.94186356875,194.36723604374998,72.0,80.0
271,194.38962406874998,195.648950475,67.0,76.0
272,194.38962406874998,195.663875825,71.0,78.0
273,195.73290556874997,195.98477085,72.0,83.0
274,195.95678581874998,196.17693473125,71.0,79.0
275,196.18066606874999,197.60230565625,69.0,82.0
276,197.52394756874997,197.92506634999998,72.0,82.0
277,197.97170806875,199.3914819875,67.0,77.0
278,197.97170806875,199.57058618749997,71.0,80.0
279,199.76275006875,202.454910075,72.0,80.0
280,199.76275006875,202.47543243124997,69.0,74.0
281,203.34483406874998,205.88960624375,69.0,74.0
282,203.34483406874998,205.97915834375,72.0,80.0
283,206.03139706874998,206.76833622499998,67.0,76.0
284,206.03139706874998,206.9660971125,71.0,82.0
285,206.92691806874998,210.21609207499998,69.0,71.0
286,210.00527150624998,210.21609207499998,69.0,98.0
287,206.92691806874998,210.22728608749998,72.0,75.0
288,210.24221143749998,210.48288270625,71.0,98.0
289,210.47728569999998,210.95303123124998,72.0,92.0
290,210.91571785624998,211.12094141875,71.0,95.0
291,211.13213543125,211.28885160624998,69.0,86.0
292,211.38213504374997,211.78138815625,69.0,90.0
293,211.81123885625,212.04631311875,71.0,85.0
294,212.04071611249998,213.32243054375,69.0,92.0
295,213.59295251249998,213.753400025,69.0,86.0
296,213.80563874999999,214.00899664374998,71.0,88.0
297,214.04631001874998,214.48101083749998,69.0,97.0
298,214.49220484999998,214.6451896875,67.0,82.0
299,214.73474178749998,215.39332285625,67.0,85.0
300,215.39145718749998,215.60600909374998,69.0,87.0
301,215.60974043124997,216.57615684374997,67.0,88.0
302,216.75339537499997,216.99966364999997,69.0,92.0
303,216.97727562499998,217.1675738375,67.0,83.0
304,217.19369319999998,217.4511554875,64.0,90.0
305,217.4063794375,217.55190159999998,62.0,86.0
306,217.64518503749997,217.99033375624998,62.0,85.0
307,218.10413954999999,218.27204973749997,64.0,87.0
308,218.3242884625,219.52764480624998,60.0,85.0
309,220.28697198749998,220.53510593124997,62.0,83.0
310,220.53137459374997,220.7869712125,60.0,88.0
311,220.76644885624998,221.02764248124998,62.0,88.0
312,220.96607541249998,221.20488101249998,60.0,86.0
313,221.21047801874997,221.32055247499997,62.0,82.0
314,221.30003011875,223.97726477499998,64.0,81.0
