,start,end,pitch,velocity
0,14.83766356875,14.979454393749998,69.0,85.0
1,15.061543818749998,15.2201256625,71.0,92.0
2,15.285424068749998,15.649229474999999,72.0,83.0
3,15.733184568749998,15.901094756249998,71.0,92.0
4,15.957064818749998,16.1081839875,69.0,81.0
5,16.18094506875,16.52795945625,69.0,87.0
6,16.62870556875,16.774227731249997,71.0,82.0
7,16.852585818749997,18.0596735,69.0,88.0
8,18.419747568749997,18.5484787125,72.0,90.0
9,18.643627818749998,18.78168730625,74.0,95.0
10,18.86750806875,19.21079111875,76.0,86.0
11,19.31526856875,19.4813130875,74.0,98.0
12,19.539148818749997,19.69586499375,72.0,85.0
13,19.763029068749997,20.12496880625,71.0,82.0
14,20.21078956875,20.3581774,72.0,69.0
15,20.43466981875,21.08019120625,71.0,95.0
16,21.106310568749997,21.7051902375,69.0,85.0
17,22.22571181875,22.408547356249997,69.0,83.0
18,22.449592068749997,23.693993125,71.0,86.0
19,23.792873568749997,24.29660413125,69.0,87.0
20,24.240634068749998,24.662275206249998,67.0,77.0
21,24.68839456875,24.822722718749997,69.0,85.0
22,24.91227481875,25.544736524999998,71.0,82.0
23,25.583915568749998,26.054064093749997,67.0,83.0
24,26.03167606875,26.927197068749997,64.0,82.0
25,26.927197068749997,27.315256168749997,62.0,83.0
26,27.37495756875,27.589509474999996,64.0,83.0
27,27.822718068749996,28.897343268749996,64.0,82.0
28,29.165999568749996,29.307790393749997,69.0,85.0
29,29.389879818749996,29.548461662499996,71.0,92.0
30,29.613760068749997,29.977565475,72.0,83.0
31,30.061520568749998,30.229430756249997,71.0,92.0
32,30.28540081875,30.4365199875,69.0,81.0
33,30.509281068749996,30.85629545625,69.0,87.0
34,30.957041568749997,31.102563731249997,71.0,82.0
35,31.180921818749997,32.388009499999995,69.0,88.0
36,32.74808356875,32.8768147125,72.0,90.0
37,32.97196381875,33.11002330625,74.0,95.0
38,33.19584406875,33.539127118749995,76.0,86.0
39,33.64360456875,33.8096490875,74.0,98.0
40,33.86748481875,34.02420099375,72.0,85.0
41,34.091365068749994,34.453304806249996,71.0,82.0
42,34.539125568749995,34.686513399999995,72.0,69.0
43,34.763005818749996,35.40852720625,71.0,95.0
44,35.43464656875,36.0335262375,69.0,85.0
45,36.77792806874999,37.08576341249999,74.0,98.0
46,37.225688568749995,37.4812851875,74.0,98.0
47,37.673449068749996,38.0111351125,74.0,98.0
48,38.12120956875,38.4290449125,76.0,90.0
49,38.56897006875,38.985014199999995,77.0,86.0
50,39.01673056875,39.410386675,76.0,86.0
51,39.46449106874999,39.815236793749996,74.0,95.0
52,39.912251568749994,40.31896735625,72.0,83.0
53,40.360012068749995,40.682772762499994,77.0,84.0
54,40.807772568749996,41.17717498125,76.0,88.0
55,41.25553306875,41.61187579999999,74.0,97.0
56,41.70329356875,41.843218725,77.0,83.0
57,41.92717381875,43.427171493749995,76.0,97.0
58,43.71821581875,43.884260337499995,76.0,92.0
59,43.94209606875,44.2350060625,81.0,87.0
60,44.38985656875,44.654781531249995,81.0,86.0
61,44.83761706875,45.192094131249995,81.0,88.0
62,45.28537756874999,45.62866061875,76.0,92.0
63,45.733138068749994,46.710748493749996,74.0,95.0
64,47.30029981875,47.46074733125,74.0,95.0
65,47.52418006875,47.796567706249995,79.0,83.0
66,47.97194056874999,48.190223812499994,79.0,87.0
67,48.419701068749994,48.716342399999995,79.0,92.0
68,48.867461568749995,49.024177743749995,74.0,90.0
69,49.091341818749996,50.19581771874999,76.0,86.0
70,50.21074306875,50.3581309,74.0,97.0
71,50.43462331875,50.99805528125,72.0,88.0
72,51.106264068749994,51.42156208749999,81.0,87.0
73,51.554024568749995,51.81335252499999,81.0,85.0
74,52.001785068749996,52.34693378749999,81.0,88.0
75,52.44954556875,52.80775396874999,76.0,88.0
76,52.89730606875,53.88984184375,74.0,95.0
77,54.464467818749995,54.6529003625,74.0,92.0
78,54.688348068749995,54.990586406249996,79.0,87.0
79,55.13610856875,55.391705187499994,79.0,85.0
80,55.58386906875,55.94394313749999,79.0,85.0
81,56.03162956874999,56.374912618749995,74.0,90.0
82,56.47939006874999,57.436478137499996,76.0,85.0
83,57.822671568749996,57.9514027125,74.0,88.0
84,58.04655181875,58.17341729374999,76.0,88.0
85,58.27043206875,58.58386441875,77.0,83.0
86,58.71819256875,59.00550555624999,76.0,90.0
87,59.16595306874999,59.899160887499995,74.0,92.0
88,60.061474068749995,60.374906418749994,76.0,85.0
89,60.509234568749996,60.91968169374999,74.0,85.0
90,60.95699506875,61.41594958125,72.0,85.0
91,61.40475556875,61.524158368749994,74.0,90.0
92,61.62863581874999,61.755501293749994,76.0,88.0
93,61.85251606874999,62.18087376875,77.0,85.0
94,62.30027656874999,62.581992549999995,76.0,97.0
95,62.748037068749994,63.195797568749995,74.0,98.0
96,63.195797568749995,63.518558262499994,77.0,81.0
97,63.643558068749996,63.951393412499996,76.0,88.0
98,64.09131856875,64.38609423125,76.0,86.0
99,64.53907906875,64.8245263875,76.0,85.0
100,64.98683956875,65.31146593125,76.0,83.0
101,65.43460006875,65.77042044375,76.0,86.0
102,65.88236056874999,66.2573599875,74.0,24.0
103,66.33012106874999,66.664075775,72.0,85.0
104,66.77788156874999,67.21258238749999,71.0,83.0
105,67.22564206874999,68.02974529999999,69.0,82.0
106,68.12116306875,68.88049025,76.0,87.0
107,69.01668406875,69.98310048124999,74.0,87.0
108,69.91220506875,70.29839849999999,71.0,80.0
109,70.35996556875,70.72190530625,67.0,84.0
110,70.80772606875,71.5782472625,69.0,85.0
111,71.70324706874999,72.44764889999999,76.0,88.0
112,72.59876806874999,73.44205034375,74.0,92.0
113,73.49428906874999,73.86555714999999,71.0,83.0
114,73.94204956875,74.30398930624999,67.0,84.0
115,74.38981006875,76.11928499999999,69.0,86.0
116,77.07637306874999,77.48868586249999,67.0,86.0
117,77.52413356874999,77.910327,64.0,92.0
118,77.97189406874999,80.65845706875,69.0,82.0
119,80.65845706875,81.1342026,72.0,87.0
120,81.10621756875,81.55770940625,71.0,82.0
121,81.55397806875,83.7274821625,69.0,82.0
122,113.34497356874999,113.48676439375,69.0,85.0
123,113.56885381874999,113.72743566249999,71.0,92.0
124,113.79273406875,114.15653947499999,72.0,83.0
125,114.24049456875,114.40840475625,71.0,92.0
126,114.46437481874999,114.61549398749999,69.0,81.0
127,114.68825506875,115.03526945624999,69.0,87.0
128,115.13601556875,115.28153773124998,71.0,82.0
129,115.35989581874999,116.56698349999999,69.0,88.0
130,116.92705756874999,117.05578871249999,72.0,90.0
131,117.15093781875,117.28899730625,74.0,95.0
132,117.37481806874999,117.71810111874998,76.0,86.0
133,117.82257856874999,117.98862308749999,74.0,98.0
134,118.04645881874998,118.20317499375,72.0,85.0
135,118.27033906874999,118.63227880624999,71.0,82.0
136,118.71809956874999,118.86548739999999,72.0,69.0
137,118.94197981874999,119.58750120625,71.0,95.0
138,119.61362056875,120.2125002375,69.0,85.0
139,120.73302181874999,120.91585735624999,69.0,83.0
140,120.95690206874998,122.201303125,71.0,86.0
141,122.30018356874999,122.80391413124998,69.0,87.0
142,122.74794406874999,123.16958520624999,67.0,77.0
143,123.19570456874999,123.33003271874999,69.0,85.0
144,123.41958481875,124.052046525,71.0,82.0
145,124.09122556874999,124.56137409374999,67.0,83.0
146,124.53898606874999,125.43450706875,64.0,82.0
147,125.43450706875,125.82256616874999,62.0,83.0
148,125.88226756875,126.09681947499999,64.0,83.0
149,126.33002806874998,127.40465326874998,64.0,82.0
150,127.67330956874999,127.81510039374999,69.0,85.0
151,127.89718981875,128.05577166249998,71.0,92.0
152,128.12107006875,128.484875475,72.0,83.0
153,128.56883056875,128.73674075625,71.0,92.0
154,128.79271081874998,128.94382998749998,69.0,81.0
155,129.01659106875,129.36360545624999,69.0,87.0
156,129.46435156874998,129.60987373125,71.0,82.0
157,129.68823181874998,130.8953195,69.0,88.0
158,131.25539356874998,131.38412471249998,72.0,90.0
159,131.47927381875,131.61733330624998,74.0,95.0
160,131.70315406875,132.04643711875,76.0,86.0
161,132.15091456874998,132.31695908749998,74.0,98.0
162,132.37479481875,132.53151099374998,72.0,85.0
163,132.59867506875,132.96061480625,71.0,82.0
164,133.04643556874998,133.19382339999999,72.0,69.0
165,133.27031581875,133.91583720625,71.0,95.0
166,133.94195656875,134.54083623749997,69.0,85.0
167,135.28523806874998,135.5930734125,74.0,98.0
168,135.73299856875,135.98859518749998,74.0,98.0
169,136.18075906874998,136.5184451125,74.0,98.0
170,136.62851956875,136.93635491249998,76.0,90.0
171,137.07628006874998,137.49232419999998,77.0,86.0
172,137.52404056875,137.917696675,76.0,86.0
173,137.97180106874998,138.32254679374998,74.0,95.0
174,138.41956156875,138.82627735625,72.0,83.0
175,138.86732206874998,139.1900827625,77.0,84.0
176,139.31508256875,139.68448498125,76.0,88.0
177,139.76284306875,140.1191858,74.0,97.0
178,140.21060356874997,140.35052872499998,77.0,83.0
179,140.43448381874998,141.93448149374998,76.0,97.0
180,142.22552581875,142.39157033749999,76.0,92.0
181,142.44940606875,142.74231606249998,81.0,87.0
182,142.89716656874998,143.16209153124998,81.0,86.0
183,143.34492706875,143.69940413125,81.0,88.0
184,143.79268756874998,144.13597061874998,76.0,92.0
185,144.24044806875,145.21805849375,74.0,95.0
186,145.80760981875,145.96805733124998,74.0,95.0
187,146.03149006874997,146.30387770624998,79.0,83.0
188,146.47925056875,146.69753381249998,79.0,87.0
189,146.92701106874998,147.2236524,79.0,92.0
190,147.37477156875,147.53148774374998,74.0,90.0
191,147.59865181875,148.70312771874998,76.0,86.0
192,148.71805306874998,148.86544089999998,74.0,97.0
193,148.94193331875,149.50536528125,72.0,88.0
194,149.61357406874998,149.9288720875,81.0,87.0
195,150.06133456875,150.320662525,81.0,85.0
196,150.50909506874999,150.8542437875,81.0,88.0
197,150.95685556875,151.31506396875,76.0,88.0
198,151.40461606875,152.39715184374998,74.0,95.0
199,152.97177781874998,153.16021036249998,74.0,92.0
200,153.19565806875,153.49789640625,79.0,87.0
201,153.64341856874998,153.8990151875,79.0,85.0
202,154.09117906875,154.45125313749998,79.0,85.0
203,154.53893956874998,154.88222261874998,74.0,90.0
204,154.98670006875,155.94378813749998,76.0,85.0
205,156.32998156875,156.4587127125,74.0,88.0
206,156.55386181875,156.68072729374998,76.0,88.0
207,156.77774206874997,157.09117441874997,77.0,83.0
208,157.22550256875,157.51281555625,76.0,90.0
209,157.67326306874997,158.40647088749998,74.0,92.0
210,158.56878406874998,158.88221641874998,76.0,85.0
211,159.01654456875,159.42699169374998,74.0,85.0
212,159.46430506874998,159.92325958125,72.0,85.0
213,159.91206556875,160.03146836874998,74.0,90.0
214,160.13594581874997,160.26281129375,76.0,88.0
215,160.35982606874998,160.68818376874998,77.0,85.0
216,160.80758656875,161.08930254999999,76.0,97.0
217,161.25534706874998,161.70310756875,74.0,98.0
218,161.70310756875,162.02586826249998,77.0,81.0
219,162.15086806875,162.45870341249997,76.0,88.0
220,162.59862856874997,162.89340423124997,76.0,86.0
221,163.04638906875,163.33183638749998,76.0,85.0
222,163.49414956874998,163.81877593124997,76.0,83.0
223,163.94191006875,164.27773044375,76.0,86.0
224,166.62847306875,167.38780025,76.0,87.0
225,167.52399406874997,168.49041048125,74.0,87.0
226,169.09115581875,169.2572003375,76.0,92.0
227,169.31503606874998,169.6079460625,81.0,87.0
228,169.76279656875,170.02772153125,81.0,86.0
229,170.21055706874998,170.56503413124997,81.0,88.0
230,170.65831756875,171.00160061875,76.0,92.0
231,171.10607806874998,172.08368849374997,74.0,95.0
232,172.67323981874998,172.83368733125,74.0,95.0
233,172.89712006874998,173.16950770625,79.0,83.0
234,173.34488056874997,173.5631638125,79.0,87.0
235,173.79264106875,174.08928239999997,79.0,92.0
236,174.24040156874997,174.39711774375,74.0,90.0
237,174.46428181874998,175.56875771875,76.0,86.0
238,175.58368306875,175.7310709,74.0,97.0
239,175.80756331874997,176.37099528124998,72.0,88.0
240,176.47920406875,176.79450208749998,81.0,87.0
241,176.92696456874998,177.18629252499997,81.0,85.0
242,177.37472506875,177.71987378749998,81.0,88.0
243,177.82248556874998,178.18069396874998,76.0,88.0
244,178.27024606875,179.26278184375,74.0,95.0
245,179.83740781875,180.0258403625,74.0,92.0
246,180.06128806874997,180.36352640624997,79.0,87.0
247,180.50904856875,180.76464518749998,79.0,85.0
248,180.95680906874998,181.31688313749999,79.0,85.0
249,181.40456956875,181.74785261875,74.0,90.0
250,181.85233006874998,182.8094181375,76.0,85.0
251,183.19561156875,183.32434271249997,74.0,88.0
252,183.41949181874998,183.54635729375,76.0,88.0
253,183.64337206874998,183.95680441874998,77.0,83.0
254,184.09113256874997,184.37844555624997,76.0,90.0
255,184.53889306874999,185.2721008875,74.0,92.0
256,185.43441406875,185.74784641875,76.0,85.0
257,185.88217456874997,186.29262169375,74.0,85.0
258,186.32993506875,186.78888958124998,72.0,85.0
259,186.77769556874998,186.89709836875,74.0,90.0
260,187.00157581874998,187.12844129374997,76.0,88.0
261,187.22545606875,187.55381376875,77.0,85.0
262,187.67321656874998,187.95493255,76.0,97.0
263,188.12097706875,188.56873756874998,74.0,98.0
264,188.56873756874998,188.8914982625,77.0,81.0
265,189.01649806875,189.32433341249998,76.0,88.0
266,189.46425856874998,189.75903423124998,76.0,86.0
267,189.91201906874997,190.1974663875,76.0,85.0
268,190.35977956874999,190.68440593124998,76.0,83.0
269,190.80754006874997,191.14336044374997,76.0,86.0
270,191.25530056875,191.6302999875,74.0,24.0
271,191.70306106874997,192.037015775,72.0,85.0
272,192.15082156875,192.5855223875,71.0,83.0
273,192.59858206874998,193.40268529999997,69.0,82.0
274,193.49410306874998,194.25343024999998,76.0,87.0
275,194.38962406874998,195.35604048124998,74.0,87.0
276,195.28514506874998,195.6713385,71.0,80.0
277,195.73290556874997,196.09484530625,67.0,84.0
278,196.18066606874999,196.95118726249999,69.0,85.0
279,197.07618706875,197.8205889,76.0,88.0
280,197.97170806875,198.81499034374997,74.0,92.0
281,198.86722906875,199.23849714999997,71.0,83.0
282,199.31498956874998,199.67692930624997,67.0,84.0
283,199.76275006875,201.492225,69.0,86.0
284,202.44931306874997,202.86162586249998,67.0,86.0
285,202.89707356875,203.283267,64.0,92.0
286,203.34483406874998,206.03139706874998,69.0,82.0
287,206.03139706874998,206.50714259999998,72.0,87.0
288,206.47915756874997,206.93064940624998,71.0,82.0
289,206.92691806874998,209.1004221625,69.0,82.0
