,start,end,pitch,velocity
0,1.8320867124999998,2.2649218624999996,60.0,84.0
1,2.2555935187499996,2.3917873375,57.0,75.0
2,1.3936545562499998,2.4477574,52.0,77.0
3,0.9253716999999999,2.4962647875,45.0,83.0
4,2.5652945312499997,2.947756625,57.0,62.0
5,2.6529809624999996,3.1660398687499995,60.0,78.0
6,2.7574584124999997,3.1753682124999996,69.0,81.0
7,2.7238763749999997,3.18096521875,64.0,76.0
8,3.1604428624999996,3.7537255249999997,52.0,59.0
9,3.63245705625,3.7798448874999995,60.0,74.0
10,3.6305913874999995,3.78544189375,64.0,77.0
11,2.7294733812499996,3.8637999812499997,45.0,66.0
12,4.49439601875,5.4085737062499994,59.0,77.0
13,4.4887990124999995,5.4141707125,55.0,70.0
14,5.3768573375,5.861931212499999,62.0,81.0
15,5.811558156249999,5.968274331249999,55.0,76.0
16,6.11379649375,6.225736618749999,55.0,61.0
17,6.188423243749999,6.261184324999999,59.0,72.0
18,6.2201396125,6.3246170625,62.0,73.0
19,6.29663203125,6.40297515,67.0,77.0
20,6.735064187499999,6.9962578125,55.0,75.0
21,7.17909335,7.382451243749999,62.0,79.0
22,7.184690356249999,7.3992422625,55.0,83.0
23,4.923499831249999,7.4197646187499995,50.0,55.0
24,4.49253035,7.49439136875,43.0,78.0
25,8.12125606875,8.694016374999999,60.0,78.0
26,8.119390399999999,8.710807393749999,57.0,73.0
27,8.998120381249999,9.14364254375,57.0,82.0
28,8.99438904375,9.16603056875,65.0,77.0
29,9.9104324,10.1156559625,60.0,71.0
30,9.90856673125,10.13990965625,57.0,69.0
31,10.802222062499999,10.90856518125,60.0,80.0
32,10.802222062499999,10.91043085,57.0,80.0
33,10.804087731249998,10.9850576,65.0,80.0
34,8.578344912499999,11.0186396375,48.0,66.0
35,8.119390399999999,11.093266387499998,41.0,81.0
36,11.639907331249999,11.7499817875,40.0,83.0
37,11.6380416625,12.05408579375,59.0,81.0
38,11.63617599375,12.13430955,64.0,81.0
39,12.999979849999999,13.291024174999999,64.0,77.0
40,13.001845518749999,13.317143537499998,71.0,74.0
41,13.447740349999998,13.641769899999998,64.0,79.0
42,13.432814999999998,13.690277287499999,76.0,82.0
43,12.61378641875,13.910426199999998,59.0,84.0
44,12.11751853125,13.919754543749999,52.0,79.0
45,13.8992321875,14.102590081249998,64.0,50.0
46,14.3171419875,14.468261156249998,68.0,66.0
47,14.320873324999999,14.50930586875,64.0,76.0
48,14.31900765625,14.52796255625,71.0,76.0
49,15.285424068749998,15.712662212499998,64.0,81.0
50,15.285424068749998,15.912288768749999,57.0,70.0
51,16.18094506875,16.572735506249998,69.0,84.0
52,16.62870556875,16.884302187499998,57.0,80.0
53,17.076466068749998,17.559674275,60.0,82.0
54,15.733184568749998,17.634301025,52.0,74.0
55,17.076466068749998,17.652957712499997,64.0,82.0
56,15.285424068749998,17.7014651,45.0,81.0
57,17.97198706875,18.440269925,43.0,77.0
58,17.97198706875,18.50929966875,59.0,81.0
59,17.97198706875,18.559672725,62.0,81.0
60,18.86750806875,19.104447999999998,36.0,79.0
61,18.86750806875,19.2425074875,55.0,77.0
62,18.86750806875,19.449596718749998,64.0,81.0
63,19.763029068749997,20.2387746,64.0,86.0
64,19.763029068749997,20.2425059375,55.0,77.0
65,19.763029068749997,20.263028293749997,60.0,81.0
66,19.31526856875,20.296610331249997,48.0,78.0
67,20.65855006875,21.31526546875,60.0,77.0
68,20.65855006875,21.3171311375,57.0,63.0
69,21.106310568749997,22.0111599125,52.0,70.0
70,21.554071068749998,22.145488062499997,60.0,83.0
71,21.554071068749998,22.23317449375,57.0,81.0
72,20.65855006875,22.23690583125,45.0,81.0
73,22.449592068749997,23.201456574999998,59.0,75.0
74,22.449592068749997,23.34884440625,55.0,75.0
75,23.792873568749997,24.330186168749997,55.0,74.0
76,23.34511306875,24.335783175,62.0,82.0
77,24.240634068749998,24.443991962499997,67.0,79.0
78,24.68839456875,24.9589165375,55.0,73.0
79,25.136155068749996,25.272348887499998,55.0,83.0
80,25.136155068749996,25.292871243749996,62.0,81.0
81,22.897352568749998,25.30779659375,50.0,65.0
82,22.449592068749997,25.34137863125,43.0,81.0
83,26.03167606875,26.268615999999998,59.0,76.0
84,26.542869306249997,26.746227199999996,52.0,75.0
85,26.746227199999996,27.013017831249996,57.0,75.0
86,26.03167606875,27.32831585,64.0,81.0
87,26.94958509375,27.4141366125,59.0,75.0
88,27.37495756875,27.4141366125,59.0,76.0
89,27.171599674999996,27.4141366125,62.0,76.0
90,26.927197068749997,27.471972343749997,52.0,75.0
91,27.4141366125,27.695852593749997,64.0,80.0
92,27.822718068749996,27.895479149999996,52.0,81.0
93,27.818986731249996,28.772343462499997,57.0,81.0
94,27.861897112499996,28.79286581875,59.0,81.0
95,28.009284943749996,28.79286581875,64.0,96.0
96,26.479436568749996,28.929059637499996,47.0,67.0
97,26.03167606875,28.957044668749997,40.0,82.0
98,29.613760068749997,30.067117574999997,60.0,83.0
99,29.613760068749997,30.098833943749998,57.0,79.0
100,30.509281068749996,30.845101443749996,64.0,83.0
101,30.509281068749996,30.910399849999997,60.0,83.0
102,30.061520568749998,31.113757743749996,52.0,66.0
103,29.613760068749997,31.134280099999998,45.0,82.0
104,30.957041568749997,31.24062321875,57.0,77.0
105,31.404802068749998,31.828308874999998,64.0,78.0
106,31.404802068749998,31.876816262499997,60.0,75.0
107,31.85256256875,32.5036809625,52.0,60.0
108,31.404802068749998,32.8320386625,45.0,77.0
109,32.30032306875,32.962635475,57.0,82.0
110,32.30032306875,32.97196381875,60.0,87.0
111,32.74808356875,33.052187575,52.0,76.0
112,33.19584406875,33.4439780125,55.0,82.0
113,33.19584406875,33.7275596625,60.0,82.0
114,33.64360456875,33.914126537499996,55.0,81.0
115,34.091365068749994,34.27793194375,55.0,86.0
116,34.091365068749994,34.58017028125,64.0,82.0
117,34.091365068749994,34.602558306249996,60.0,84.0
118,33.19584406875,34.606289643749996,48.0,82.0
119,34.539125568749995,34.71076709375,55.0,76.0
120,34.986886068749996,35.4141242125,60.0,77.0
121,34.986886068749996,35.43091523125,57.0,77.0
122,35.88240706875,36.11001865625,57.0,81.0
123,35.88240706875,36.119347,60.0,83.0
124,35.88240706875,36.12867534375,64.0,83.0
125,35.43464656875,36.132406681249996,52.0,72.0
126,34.986886068749996,36.154794706249994,45.0,82.0
127,36.77792806874999,37.12121111875,57.0,80.0
128,36.77792806874999,37.1939722,65.0,81.0
129,36.77792806874999,37.2051662125,62.0,83.0
130,37.225688568749995,37.813374225,45.0,66.0
131,37.673449068749996,37.820836899999996,62.0,85.0
132,37.673449068749996,37.841359256249994,65.0,87.0
133,36.77792806874999,37.85628460625,38.0,84.0
134,38.12120956875,38.4215822375,57.0,87.0
135,38.56897006875,38.757402612499995,57.0,82.0
136,38.56897006875,39.15479005624999,62.0,82.0
137,39.01673056875,39.218222793749995,57.0,68.0
138,38.56897006875,39.4066553375,50.0,79.0
139,39.46449106874999,39.669714631249995,57.0,78.0
140,39.46449106874999,40.0111320125,65.0,79.0
141,39.46449106874999,40.1753108625,62.0,82.0
142,39.912251568749994,40.197698887499996,57.0,78.0
143,40.360012068749995,40.582026649999996,57.0,81.0
144,40.360012068749995,40.873070975,62.0,82.0
145,40.807772568749996,41.07269753124999,57.0,81.0
146,40.360012068749995,41.363741856249995,50.0,85.0
147,41.25553306875,41.423443256249996,62.0,88.0
148,41.25553306875,41.499935674999996,57.0,82.0
149,41.25553306875,41.56896541875,65.0,83.0
150,41.70329356875,41.9439648375,62.0,85.0
151,42.15105406875,42.33388960625,64.0,85.0
152,42.15105406875,42.345083618749996,59.0,81.0
153,42.598814568749994,42.79284411875,52.0,80.0
154,42.598814568749994,42.817097812499995,56.0,69.0
155,43.046575068749995,43.261126974999996,56.0,92.0
156,43.046575068749995,43.30403735625,52.0,88.0
157,43.046575068749995,43.32829105,59.0,90.0
158,43.494335568749996,43.585753337499995,59.0,77.0
159,42.15105406875,43.60067868749999,40.0,87.0
160,43.494335568749996,43.61373836875,62.0,82.0
161,43.71821581875,43.811499256249995,52.0,85.0
162,43.94209606875,44.188364343749996,57.0,81.0
163,43.94209606875,44.285379118749994,60.0,87.0
164,44.38985656875,44.63612484375,57.0,77.0
165,44.61373681875,44.6864979,60.0,70.0
166,44.16597631875,44.94022885,52.0,74.0
167,44.83761706875,45.113736043749995,57.0,83.0
168,44.83761706875,45.20701948124999,60.0,88.0
169,44.83761706875,45.24433285625,64.0,95.0
170,45.28537756874999,45.561496543749996,57.0,86.0
171,43.94209606875,45.572690556249995,45.0,82.0
172,45.06149731874999,45.580153231249994,52.0,81.0
173,45.509257818749994,45.62492928125,60.0,75.0
174,45.733138068749994,46.231271625,55.0,86.0
175,45.733138068749994,46.248062643749996,59.0,95.0
176,46.180898568749996,46.720076837499995,50.0,78.0
177,46.62865906875,46.89544969999999,55.0,86.0
178,46.62865906875,46.92343473125,62.0,90.0
179,46.62865906875,46.9290317375,59.0,95.0
180,45.733138068749994,46.957016768749995,43.0,81.0
181,46.85253931875,47.040971862499994,50.0,81.0
182,47.07641956875,47.35626988124999,55.0,85.0
183,47.52418006875,47.725672293749994,55.0,80.0
184,47.52418006875,47.729403631249994,59.0,83.0
185,47.52418006875,47.75552299375,62.0,81.0
186,47.97194056874999,48.483133806249995,55.0,87.0
187,48.19582081874999,48.494327818749994,59.0,76.0
188,48.419701068749994,48.936491312499996,62.0,76.0
189,47.74806031874999,48.97567035624999,50.0,76.0
190,47.52418006875,49.0782821375,43.0,83.0
191,48.867461568749995,49.164102899999996,55.0,82.0
192,49.091341818749996,49.184625256249994,59.0,81.0
193,49.315222068749996,49.53910231875,55.0,83.0
194,49.315222068749996,49.74059454374999,60.0,87.0
195,49.315222068749996,49.792833268749995,48.0,97.0
196,49.76298256875,50.05029555624999,55.0,82.0
197,49.98686281875,50.13238498125,60.0,77.0
198,50.21074306875,50.628652868749995,64.0,86.0
199,50.21074306875,50.7648466875,40.0,82.0
200,50.43462331875,50.783503374999995,47.0,82.0
201,50.65850356874999,50.80962273749999,59.0,90.0
202,50.88238381874999,50.9961896125,64.0,88.0
203,51.106264068749994,51.57641259374999,57.0,82.0
204,51.106264068749994,51.57827826249999,60.0,90.0
205,51.554024568749995,52.095068506249994,52.0,74.0
206,52.001785068749996,52.216336975,57.0,82.0
207,52.001785068749996,52.2200683125,60.0,95.0
208,52.001785068749996,52.27417270624999,64.0,87.0
209,51.106264068749994,52.391709837499995,45.0,83.0
210,52.225665318749996,52.408500856249994,52.0,81.0
211,52.44954556875,52.664097475,57.0,84.0
212,52.89730606875,53.13611166875,55.0,81.0
213,52.89730606875,53.25551446874999,59.0,81.0
214,53.34506656874999,53.82640910625,55.0,86.0
215,53.12118631875,53.90476719375,50.0,70.0
216,53.79282706874999,54.35999036875,62.0,86.0
217,54.016707318749994,54.40476641874999,50.0,86.0
218,52.89730606875,54.499915525,43.0,82.0
219,54.240587568749994,54.56894526874999,55.0,88.0
220,54.688348068749995,55.20886965,62.0,81.0
221,54.688348068749995,55.238720349999994,55.0,83.0
222,55.13610856875,55.608122762499995,50.0,83.0
223,55.58386906875,55.80028664374999,55.0,86.0
224,55.58386906875,55.8245403375,59.0,88.0
225,54.688348068749995,55.850659699999994,43.0,87.0
226,55.58386906875,55.8917044125,62.0,86.0
227,55.80774931875,56.059614599999996,50.0,83.0
228,56.03162956874999,56.350658925,55.0,88.0
229,56.25550981874999,56.386106631249994,59.0,79.0
230,56.47939006874999,56.95140426249999,55.0,82.0
231,56.47939006874999,57.037225025,60.0,82.0
232,57.151030818749994,57.26670228125,55.0,83.0
233,56.927150568749994,57.442075143749996,52.0,71.0
234,56.47939006874999,57.48685119374999,48.0,90.0
235,57.374911068749995,57.600656987499995,55.0,87.0
236,57.374911068749995,57.619313674999994,60.0,90.0
237,57.374911068749995,57.682746412499995,64.0,86.0
238,57.598791318749996,57.78162685624999,52.0,82.0
239,57.822671568749996,57.912223668749995,48.0,92.0
240,58.27043206875,58.5670734,57.0,79.0
241,58.27043206875,58.6454314875,62.0,82.0
242,58.27043206875,58.66222250625,65.0,81.0
243,58.71819256875,58.84692371249999,57.0,60.0
244,58.71819256875,59.305878224999994,45.0,69.0
245,59.16595306874999,59.356251281249996,57.0,83.0
246,58.27043206875,59.442072043749995,38.0,84.0
247,59.16595306874999,59.63610159374999,62.0,85.0
248,59.16595306874999,59.669683631249995,65.0,88.0
249,59.61371356874999,59.77416108124999,57.0,86.0
250,60.061474068749995,60.47565253124999,64.0,82.0
251,60.061474068749995,60.49057788125,60.0,78.0
252,60.061474068749995,60.49244355,57.0,75.0
253,60.509234568749996,61.137964937499994,52.0,71.0
254,60.061474068749995,61.195800668749996,45.0,81.0
255,60.95699506875,61.26669608125,57.0,82.0
256,60.95699506875,61.287218437499995,60.0,85.0
257,60.95699506875,61.31147213124999,64.0,83.0
258,61.40475556875,61.52975537499999,45.0,82.0
259,61.85251606874999,61.9513965125,38.0,83.0
260,61.85251606874999,62.06706797499999,57.0,81.0
261,61.85251606874999,62.41221669375,65.0,81.0
262,61.85251606874999,62.443933062499994,62.0,81.0
263,62.30027656874999,62.498037456249996,57.0,74.0
264,62.748037068749994,62.973782987499995,57.0,85.0
265,62.748037068749994,63.054006743749994,62.0,87.0
266,62.748037068749994,63.289081006249994,65.0,85.0
267,63.195797568749995,63.30960336249999,57.0,82.0
268,63.643558068749996,63.889826343749995,59.0,81.0
269,63.643558068749996,63.901020356249994,40.0,83.0
270,63.643558068749996,63.901020356249994,64.0,81.0
271,64.09131856875,64.19579601874999,40.0,74.0
272,64.09131856875,64.2349750625,64.0,73.0
273,64.09131856875,64.23684073125,59.0,70.0
274,64.53907906875,64.738705625,40.0,85.0
275,64.53907906875,64.79094434999999,59.0,84.0
276,64.53907906875,64.79281001874999,64.0,85.0
277,64.98683956875,65.31146593125,59.0,87.0
278,64.98683956875,65.31892860625,64.0,87.0
279,65.43460006875,65.72564439374999,59.0,83.0
280,65.43460006875,66.03347973749999,68.0,87.0
281,65.43460006875,66.15661387499999,64.0,86.0
282,65.88236056874999,66.18646457499999,59.0,76.0
283,66.33012106874999,66.5073596,59.0,88.0
284,65.88236056874999,66.50922526875,47.0,66.0
285,65.43460006875,66.57265800625,40.0,83.0
286,66.33012106874999,66.75922488124999,64.0,92.0
287,66.77788156874999,66.8767620125,59.0,90.0
288,67.22564206874999,67.63608919375,60.0,82.0
289,67.22564206874999,67.6603428875,57.0,81.0
290,67.67340256874999,68.23683453125,52.0,71.0
291,68.12116306875,68.35250599375,57.0,83.0
292,68.12116306875,68.42713274375,60.0,87.0
293,68.12116306875,68.52414751875,64.0,90.0
294,67.22564206874999,68.56892356875,45.0,83.0
295,68.56892356875,68.74616209999999,57.0,83.0
296,68.79280381874999,68.97190801875,60.0,82.0
297,69.01668406875,69.56332501249999,59.0,87.0
298,69.01668406875,69.69205615624999,55.0,84.0
299,69.46444456875,70.00175716874999,50.0,75.0
300,69.91220506875,70.15287633749999,59.0,85.0
301,69.91220506875,70.19392105,55.0,83.0
302,69.91220506875,70.28347314999999,62.0,82.0
303,69.01668406875,70.32451786249999,43.0,81.0
304,70.35996556875,70.59690549999999,60.0,82.0
305,70.58384581874999,70.79466638749999,59.0,85.0
306,70.80772606875,71.23682988124999,57.0,83.0
307,71.25548656874999,71.768545475,52.0,77.0
308,71.70324706874999,71.917798975,57.0,82.0
309,71.70324706874999,71.917798975,60.0,84.0
310,71.70324706874999,72.0707838125,64.0,87.0
311,71.92712731875,72.11369419374999,52.0,74.0
312,70.80772606875,72.16966425624999,45.0,82.0
313,72.15100756874999,72.40100718125,62.0,84.0
314,72.37488781875,72.5558576875,60.0,83.0
315,72.59876806874999,72.97936449375,62.0,83.0
316,73.04652856874999,73.55399046874999,50.0,74.0
317,73.49428906874999,73.74802001875,55.0,82.0
318,73.49428906874999,73.917795875,62.0,84.0
319,73.71816931875,73.9439152375,50.0,81.0
320,72.59876806874999,73.97936294374999,43.0,81.0
321,73.94204956875,74.15473580624999,55.0,76.0
322,73.94204956875,74.23682523125,60.0,82.0
323,74.38981006875,74.87674961249999,53.0,80.0
324,74.38981006875,75.0148091,60.0,78.0
325,75.06145081874999,75.35249514374999,53.0,81.0
326,75.28533106875,75.49988297499999,57.0,83.0
327,75.50921131874999,75.64167379999999,60.0,97.0
328,75.73309156875,75.98309118124999,53.0,86.0
329,74.83757056875,76.01294188124999,48.0,80.0
330,74.38981006875,76.04465825,41.0,83.0
331,76.18085206875,76.58943352499999,53.0,80.0
332,76.18085206875,76.59689619999999,57.0,80.0
333,76.18085206875,76.65473193125,60.0,80.0
334,76.18085206875,76.693910975,41.0,83.0
335,77.07637306874999,77.56144694375,55.0,81.0
336,77.07637306874999,77.66779006249999,43.0,82.0
337,77.07637306874999,77.67338706874999,59.0,81.0
338,77.97189406874999,78.3319681375,60.0,82.0
339,77.97189406874999,78.38607253125,57.0,76.0
340,78.41965456874999,79.06331028749999,52.0,79.0
341,78.86741506874999,79.26666818125,57.0,84.0
342,78.86741506874999,79.290921875,60.0,95.0
343,78.86741506874999,79.305847225,64.0,95.0
344,77.97189406874999,79.59129454375,45.0,83.0
345,79.31517556874999,79.59129454375,52.0,77.0
346,79.53905581874999,79.69017498749999,57.0,76.0
347,79.76293606875,80.24614427499999,57.0,81.0
348,79.76293606875,80.28345764999999,60.0,80.0
349,80.43457681874999,80.51666624375,57.0,80.0
350,80.21069656875,80.71629279999999,52.0,78.0
351,80.65845706875,80.87860598124999,57.0,84.0
352,80.65845706875,80.91405368749999,64.0,88.0
353,79.76293606875,80.98681476875,45.0,83.0
354,80.88233731874999,81.01293413124999,52.0,97.0
355,81.10621756875,81.2871874375,57.0,85.0
356,81.55397806875,81.97935054374999,57.0,82.0
357,81.55397806875,81.98308188124999,60.0,83.0
358,82.00173856875,82.57076753749999,52.0,78.0
359,82.44949906874999,82.8021104625,57.0,83.0
360,82.44949906874999,82.81890148125,60.0,95.0
361,82.44949906874999,82.82636415625,64.0,95.0
362,81.55397806875,83.17151287499999,45.0,83.0
363,82.89725956874999,83.19763223749999,52.0,73.0
364,83.12113981875,83.25546796875,57.0,81.0
365,83.34502006874999,83.74613885,57.0,79.0
366,83.34502006874999,83.78718356249999,60.0,83.0
367,83.34502006874999,83.81889993124999,64.0,82.0
368,83.34502006874999,84.12673527499999,45.0,83.0
369,83.79278056874999,84.1752426625,52.0,70.0
370,84.24054106874999,84.49427201875,57.0,86.0
371,84.24054106874999,84.75733131249999,60.0,92.0
372,84.68830156874999,84.917778825,57.0,74.0
373,85.13606206875,85.66218065624999,57.0,85.0
374,85.13606206875,85.6901656875,60.0,85.0
375,85.58382256875,86.21255293749999,52.0,74.0
376,85.13606206875,86.2983737,45.0,84.0
377,86.03158306875,86.37113478124999,57.0,84.0
378,86.03158306875,86.40098548124999,60.0,98.0
379,86.03158306875,86.41591083124999,64.0,90.0
380,86.47934356875,86.67897012499999,52.0,78.0
381,86.70322381874999,86.813298275,57.0,87.0
382,86.92710406875,87.19949170624999,57.0,86.0
383,86.92710406875,87.2498647625,60.0,84.0
384,87.37486456875,87.52038673124999,57.0,77.0
385,87.82262506874999,88.02411729375,60.0,97.0
386,87.15098431874999,88.03157996875,52.0,77.0
387,86.92710406875,88.04463965,45.0,83.0
388,87.82262506874999,88.1379230875,57.0,87.0
389,87.82262506874999,88.141654425,64.0,88.0
390,88.27038556874999,88.55023588124999,47.0,78.0
391,88.27038556874999,88.62859396875,59.0,90.0
392,88.71814606874999,88.97560835624999,55.0,81.0
393,88.71814606874999,89.20508561249999,60.0,82.0
394,89.16590656874999,89.33941376249999,55.0,73.0
395,89.61366706874999,89.82635330625,55.0,86.0
396,88.71814606874999,89.8319503125,48.0,102.0
397,89.61366706874999,89.94202476874999,60.0,88.0
398,89.61366706874999,89.96627846249999,64.0,86.0
399,90.28530781875,90.41963596874999,55.0,81.0
400,90.50918806874999,90.649113225,55.0,82.0
401,90.50918806874999,90.93082920625,64.0,83.0
402,90.50918806874999,91.02970964999999,60.0,81.0
403,90.95694856875,91.11739608124999,55.0,82.0
404,90.50918806874999,91.50172384374999,48.0,97.0
405,91.40470906875,91.64724600624999,55.0,85.0
406,91.40470906875,91.7050817375,60.0,92.0
407,91.62858931874999,91.87858893125,48.0,86.0
408,91.40470906875,91.92896198749999,64.0,90.0
409,91.85246956875,92.10433484999999,55.0,86.0
410,92.07634981874999,92.19015561249999,60.0,84.0
411,92.30023006875,92.54836401249999,57.0,75.0
412,92.30023006875,92.66403547499999,62.0,81.0
413,92.74799056875,93.05955725,57.0,84.0
414,93.19575106874998,93.45507902499999,57.0,83.0
415,92.30023006875,93.52410876875,50.0,86.0
416,93.19575106874998,93.57261615624999,62.0,83.0
417,93.19575106874998,93.61739220624999,65.0,81.0
418,93.64351156874999,93.92709321874999,57.0,85.0
419,94.09127206874999,94.305823975,57.0,82.0
420,94.09127206874999,94.604330975,62.0,81.0
421,94.53903256874999,94.71627109999999,57.0,75.0
422,94.98679306874999,95.18268828749999,57.0,83.0
423,94.09127206874999,95.21813599375,38.0,83.0
424,94.98679306874999,95.30582242499999,62.0,86.0
425,94.98679306874999,95.47559828124999,65.0,83.0
426,95.43455356874999,95.49238929999999,57.0,83.0
427,95.88231406874999,96.0185078875,67.0,77.0
428,95.88231406874999,96.37485061874999,64.0,82.0
429,95.88231406874999,96.4289550125,69.0,71.0
430,96.55395481874999,96.64164124999999,64.0,82.0
431,96.33007456874999,96.86552149999999,47.0,82.0
432,96.77783506875,97.03902869375,64.0,98.0
433,95.88231406874999,97.05022270625,40.0,87.0
434,96.77783506875,97.10432709999999,69.0,95.0
435,97.00171531874999,97.12671512499999,47.0,82.0
436,97.22559556875,97.36738639375,64.0,88.0
437,97.44947581874999,97.58566963749999,69.0,75.0
438,97.67335606875,97.74984848749999,40.0,84.0
439,97.67335606875,98.02223612499999,64.0,85.0
440,97.67335606875,98.19760898749999,68.0,90.0
441,98.34499681874999,98.44947426875,64.0,90.0
442,98.12111656875,98.58380241875,59.0,90.0
443,97.89723631874999,98.68641419999999,52.0,80.0
444,98.56887706875,98.83007069374999,64.0,98.0
445,98.56887706875,98.87298107499998,68.0,102.0
446,98.79275731874999,98.887906425,59.0,92.0
447,98.56887706875,98.90096610625,76.0,86.0
448,98.56887706875,99.01104056249999,71.0,90.0
449,99.01663756874999,99.052085275,71.0,64.0
450,99.24051781874999,99.33380125625,68.0,86.0
451,99.01663756874999,99.350592275,64.0,95.0
452,99.46439806874999,99.9811883125,57.0,81.0
453,99.46439806874999,99.992382325,60.0,83.0
454,99.91215856874999,100.45693384375,52.0,83.0
455,100.35991906874999,100.6005903375,57.0,83.0
456,100.35991906874999,100.604321675,60.0,92.0
457,100.35991906874999,100.61365001875,64.0,90.0
458,100.58379931875,101.06141051875,52.0,83.0
459,99.46439806874999,101.0744702,45.0,84.0
460,100.80767956874999,101.11738058124999,57.0,81.0
461,101.03155981875,101.16215663124999,60.0,78.0
462,101.25544006874999,101.72931993124999,57.0,75.0
463,101.25544006874999,101.99424489375,60.0,84.0
464,101.25544006874999,101.99984189999999,64.0,84.0
465,101.92708081874999,102.02969259999999,57.0,83.0
466,101.70320056874999,102.03715527499999,52.0,87.0
467,101.25544006874999,102.04088661249999,45.0,86.0
468,102.15096106875,102.44946806875,59.0,90.0
469,102.15096106875,102.63976628124999,62.0,84.0
470,102.15096106875,102.64163194999999,47.0,87.0
471,102.59872156875,102.708796025,59.0,87.0
472,103.04648206875,103.27782499374999,55.0,83.0
473,103.04648206875,103.46998887499998,64.0,83.0
474,103.04648206875,103.52782460625,60.0,82.0
475,103.49424256875,103.6714811,55.0,73.0
476,103.94200306875,104.04274918124999,55.0,85.0
477,103.94200306875,104.18267433749999,64.0,88.0
478,103.94200306875,104.18827134374999,60.0,88.0
479,104.16588331874999,104.31327114999999,55.0,81.0
480,104.38976356874998,104.66215120624999,60.0,83.0
481,103.04648206875,104.66961388124999,48.0,102.0
482,104.61364381874999,104.75170330625,55.0,81.0
483,104.83752406874999,105.06140431875,55.0,83.0
484,104.83752406874999,105.26662788124999,64.0,83.0
485,104.83752406874999,105.33006061875,60.0,84.0
486,105.28528456874999,105.46812010624998,55.0,83.0
487,104.83752406874999,105.813268825,48.0,87.0
488,105.73304506874999,105.9364029625,55.0,87.0
489,105.73304506874999,106.01849238749999,60.0,95.0
490,105.73304506874999,106.02035805624999,64.0,95.0
491,105.95692531875,106.06699977499999,48.0,90.0
492,106.18080556874999,106.46252154999999,55.0,88.0
493,106.40468581875,106.57259600625,60.0,83.0
494,106.62856606874999,106.7125211625,38.0,86.0
495,106.62856606874999,106.99050580624998,57.0,81.0
496,106.62856606874999,107.10617726874999,62.0,81.0
497,107.74796731874999,107.92707151875,62.0,95.0
498,107.97184756875,108.275951575,65.0,87.0
499,107.52408706874999,108.27781724375,57.0,90.0
500,107.07632656874999,108.2796829125,50.0,82.0
501,108.19572781874999,108.33005596874999,62.0,81.0
502,108.41960806875,108.93453264374999,69.0,84.0
503,108.41960806875,108.95505499999999,65.0,83.0
504,108.41960806875,108.96811468124999,62.0,83.0
505,108.86736856875,109.35990511874999,57.0,83.0
506,109.31512906875,109.50169594375,62.0,84.0
507,109.31512906875,109.56326301249999,65.0,95.0
508,108.41960806875,109.56886001874999,50.0,87.0
509,109.31512906875,109.59311371249999,69.0,87.0
510,109.53900931874999,109.6602777875,57.0,83.0
511,109.76288956874998,109.84684466249999,50.0,85.0
512,110.21065006874998,110.29460516249999,40.0,87.0
513,110.21065006874998,110.708783625,64.0,86.0
514,110.21065006874998,110.8654998,69.0,87.0
515,110.88229081875,110.99423094375,64.0,95.0
516,110.65841056874999,111.17706648125,59.0,86.0
517,111.10617106874999,111.32631998125,64.0,98.0
518,111.10617106874999,111.42520042499999,69.0,92.0
519,110.43453031874999,111.6154986375,52.0,70.0
520,111.33005131875,111.64348366875,59.0,85.0
521,111.55393156874999,111.68452838124999,64.0,95.0
522,111.77781181875,111.88788627499999,64.0,81.0
523,111.77781181875,111.92333398125,69.0,82.0
524,112.00169206874999,112.49795995624999,64.0,87.0
525,112.00169206874999,112.55019868125,68.0,86.0
526,112.44945256874999,112.96810848124998,59.0,83.0
527,112.89721306874999,113.10616796874999,64.0,83.0
528,112.89721306874999,113.14907835,68.0,90.0
529,112.89721306874999,113.15840669375,71.0,83.0
530,112.00169206874999,113.20131707499999,52.0,87.0
531,113.12109331874998,113.24609312499999,59.0,81.0
532,113.34497356874999,113.619226875,64.0,85.0
533,113.79273406875,114.2199722125,64.0,81.0
534,113.79273406875,114.41959876874999,57.0,70.0
535,114.68825506875,115.08004550624999,69.0,84.0
536,115.13601556875,115.39161218749999,57.0,80.0
537,115.58377606874998,116.066984275,60.0,82.0
538,114.24049456875,116.14161102499999,52.0,74.0
539,115.58377606874998,116.16026771249999,64.0,82.0
540,113.79273406875,116.2087751,45.0,81.0
541,116.47929706874999,116.94757992499999,43.0,77.0
542,116.47929706874999,117.01660966875,59.0,81.0
543,116.47929706874999,117.06698272499999,62.0,81.0
544,117.37481806874999,117.611758,36.0,79.0
545,117.37481806874999,117.7498174875,55.0,77.0
546,117.37481806874999,117.95690671874999,64.0,81.0
547,118.27033906874999,118.74608459999999,64.0,86.0
548,118.27033906874999,118.74981593749999,55.0,77.0
549,118.27033906874999,118.77033829374999,60.0,81.0
550,117.82257856874999,118.80392033124998,48.0,78.0
551,119.16586006874999,119.82257546874999,60.0,77.0
552,119.16586006874999,119.82444113749999,57.0,63.0
553,119.61362056875,120.5184699125,52.0,70.0
554,120.06138106875,120.65279806249998,60.0,83.0
555,120.06138106875,120.74048449374999,57.0,81.0
556,119.16586006874999,120.74421583124999,45.0,81.0
557,120.95690206874998,121.70876657499998,59.0,75.0
558,120.95690206874998,121.85615440624998,55.0,75.0
559,122.30018356874999,122.83749616875,55.0,74.0
560,121.85242306874999,122.84309317499999,62.0,82.0
561,122.74794406874999,122.95130196249998,67.0,79.0
562,123.19570456874999,123.46622653749999,55.0,73.0
563,123.64346506874999,123.77965888749999,55.0,83.0
564,123.64346506874999,123.80018124374999,62.0,81.0
565,121.40466256874998,123.81510659374999,50.0,65.0
566,120.95690206874998,123.84868863124998,43.0,81.0
567,124.53898606874999,124.77592599999998,59.0,76.0
568,124.53898606874999,125.83562584999999,64.0,81.0
569,125.43450706875,125.97928234374999,52.0,86.0
570,125.88226756875,126.13786418749999,59.0,80.0
571,126.33002806874998,126.40278914999999,52.0,75.0
572,126.33002806874998,127.01099716249999,64.0,82.0
573,126.77778856874998,127.1080119375,52.0,74.0
574,124.98674656875,127.4363696375,47.0,67.0
575,124.53898606874999,127.46435466874999,40.0,82.0
576,127.22554906874998,127.49607103749999,52.0,84.0
577,127.22554906874998,127.52592173749998,56.0,81.0
578,127.22554906874998,127.59681714999999,59.0,82.0
579,128.12107006875,128.574427575,60.0,83.0
580,128.12107006875,128.60614394375,57.0,79.0
581,129.01659106875,129.35241144375,64.0,83.0
582,129.01659106875,129.41770985,60.0,83.0
583,128.56883056875,129.62106774375,52.0,66.0
584,128.12107006875,129.6415901,45.0,82.0
585,129.46435156874998,129.74793321874998,57.0,77.0
586,129.91211206875,130.335618875,64.0,78.0
587,129.91211206875,130.3841262625,60.0,75.0
588,130.35987256874998,131.0109909625,52.0,60.0
589,129.91211206875,131.3393486625,45.0,77.0
590,130.80763306875,131.46994547499997,57.0,82.0
591,130.80763306875,131.47927381875,60.0,87.0
592,131.25539356874998,131.559497575,52.0,76.0
593,131.70315406875,131.9512880125,55.0,82.0
594,131.70315406875,132.2348696625,60.0,82.0
595,132.15091456874998,132.4214365375,55.0,81.0
596,132.59867506875,132.78524194374998,55.0,86.0
597,132.59867506875,133.08748028124998,64.0,82.0
598,132.59867506875,133.10986830624998,60.0,84.0
599,131.70315406875,133.11359964374998,48.0,82.0
600,133.04643556874998,133.21807709375,55.0,76.0
601,133.49419606875,133.92143421249997,60.0,77.0
602,133.49419606875,133.93822523125,57.0,77.0
603,134.38971706875,134.61732865624998,57.0,81.0
604,134.38971706875,134.626657,60.0,83.0
605,134.38971706875,134.63598534374998,64.0,83.0
606,133.94195656875,134.63971668124998,52.0,72.0
607,133.49419606875,134.66210470624998,45.0,82.0
608,135.28523806874998,135.62852111875,57.0,80.0
609,135.28523806874998,135.70128219999998,65.0,81.0
610,135.28523806874998,135.71247621249998,62.0,83.0
611,135.73299856875,136.32068422499998,45.0,66.0
612,136.18075906874998,136.32814689999998,62.0,85.0
613,136.18075906874998,136.34866925625,65.0,87.0
614,135.28523806874998,136.36359460625,38.0,84.0
615,136.62851956875,136.92889223749998,57.0,87.0
616,137.07628006874998,137.26471261249998,57.0,82.0
617,137.07628006874998,137.66210005624998,62.0,82.0
618,137.52404056875,137.72553279374998,57.0,68.0
619,137.07628006874998,137.91396533749997,50.0,79.0
620,137.97180106874998,138.17702463125,57.0,78.0
621,137.97180106874998,138.51844201249997,65.0,79.0
622,137.97180106874998,138.6826208625,62.0,82.0
623,138.41956156875,138.7050088875,57.0,78.0
624,138.86732206874998,139.08933664999998,57.0,81.0
625,138.86732206874998,139.38038097499998,62.0,82.0
626,139.31508256875,139.58000753124998,57.0,81.0
627,138.86732206874998,139.87105185624998,50.0,85.0
628,139.76284306875,139.93075325625,62.0,88.0
629,139.76284306875,140.00724567499998,57.0,82.0
630,139.76284306875,140.07627541875,65.0,83.0
631,140.21060356874997,140.4512748375,62.0,85.0
632,140.65836406875,140.84119960625,64.0,85.0
633,140.65836406875,140.85239361875,59.0,81.0
634,141.10612456874998,141.30015411875,52.0,80.0
635,141.10612456874998,141.3244078125,56.0,69.0
636,141.55388506875,141.768436975,56.0,92.0
637,141.55388506875,141.81134735625,52.0,88.0
638,141.55388506875,141.83560104999998,59.0,90.0
639,142.00164556874998,142.09306333749998,59.0,77.0
640,140.65836406875,142.10798868749998,40.0,87.0
641,142.00164556874998,142.12104836875,62.0,82.0
642,142.22552581875,142.31880925624998,52.0,85.0
643,142.44940606875,142.69567434375,57.0,81.0
644,142.44940606875,142.79268911875,60.0,87.0
645,142.89716656874998,143.14343484375,57.0,77.0
646,143.12104681875,143.1938079,60.0,70.0
647,142.67328631875,143.44753885,52.0,74.0
648,143.34492706875,143.62104604375,57.0,83.0
649,143.34492706875,143.71432948125,60.0,88.0
650,143.34492706875,143.75164285625,64.0,95.0
651,143.79268756874998,144.06880654375,57.0,86.0
652,142.44940606875,144.08000055624998,45.0,82.0
653,143.56880731874998,144.08746323124998,52.0,81.0
654,144.01656781875,144.13223928124998,60.0,75.0
655,144.24044806875,144.738581625,55.0,86.0
656,144.24044806875,144.75537264374998,59.0,95.0
657,144.68820856874999,145.22738683749998,50.0,78.0
658,145.13596906875,145.4027597,55.0,86.0
659,145.13596906875,145.43074473124997,62.0,90.0
660,145.13596906875,145.4363417375,59.0,95.0
661,144.24044806875,145.46432676875,43.0,81.0
662,145.35984931874998,145.54828186249998,50.0,81.0
663,145.58372956875,145.86357988125,55.0,85.0
664,146.03149006874997,146.23298229374998,55.0,80.0
665,146.03149006874997,146.23671363124998,59.0,83.0
666,146.03149006874997,146.26283299374998,62.0,81.0
667,146.47925056875,146.99044380625,55.0,87.0
668,146.70313081875,147.00163781875,59.0,76.0
669,146.92701106874998,147.4438013125,62.0,76.0
670,146.25537031874998,147.48298035624998,50.0,76.0
671,146.03149006874997,147.5855921375,43.0,83.0
672,147.37477156875,147.67141289999998,55.0,82.0
673,147.59865181875,147.69193525625,59.0,81.0
674,147.82253206874998,148.04641231875,55.0,83.0
675,147.82253206874998,148.24790454375,60.0,87.0
676,147.82253206874998,148.30014326875,48.0,97.0
677,148.27029256875,148.55760555625,55.0,82.0
678,148.49417281874997,148.63969498125,60.0,77.0
679,148.71805306874998,149.13596286875,64.0,86.0
680,148.71805306874998,149.2721566875,40.0,82.0
681,148.94193331875,149.290813375,47.0,82.0
682,149.16581356875,149.3169327375,59.0,90.0
683,149.38969381874998,149.50349961249998,64.0,88.0
684,149.61357406874998,150.08372259375,57.0,82.0
685,149.61357406874998,150.08558826249998,60.0,90.0
686,150.06133456875,150.60237850624998,52.0,74.0
687,150.50909506874999,150.72364697499998,57.0,82.0
688,150.50909506874999,150.72737831249998,60.0,95.0
689,150.50909506874999,150.78148270625,64.0,87.0
690,149.61357406874998,150.8990198375,45.0,83.0
691,150.73297531875,150.91581085624998,52.0,81.0
692,150.95685556875,151.171407475,57.0,84.0
693,151.40461606875,151.64342166875,55.0,81.0
694,151.40461606875,151.76282446874998,59.0,81.0
695,151.85237656874997,152.33371910625,55.0,86.0
696,151.62849631875,152.41207719374998,50.0,70.0
697,152.30013706875,152.86730036875,62.0,86.0
698,152.52401731875,152.91207641875,50.0,86.0
699,151.40461606875,153.007225525,43.0,82.0
700,152.74789756874998,153.07625526874997,55.0,88.0
701,153.19565806875,153.71617965,62.0,81.0
702,153.19565806875,153.74603034999998,55.0,83.0
703,153.64341856874998,154.11543276249998,50.0,83.0
704,154.09117906875,154.30759664374997,55.0,86.0
705,154.09117906875,154.3318503375,59.0,88.0
706,153.19565806875,154.35796969999998,43.0,87.0
707,154.09117906875,154.39901441249998,62.0,86.0
708,154.31505931874997,154.5669246,50.0,83.0
709,154.53893956874998,154.857968925,55.0,88.0
710,154.76281981875,154.89341663124998,59.0,79.0
711,154.98670006875,155.4587142625,55.0,82.0
712,154.98670006875,155.544535025,60.0,82.0
713,155.65834081875,155.77401228124998,55.0,83.0
714,155.43446056874998,155.94938514375,52.0,71.0
715,154.98670006875,155.99416119375,48.0,90.0
716,155.88222106875,156.1079669875,55.0,87.0
717,155.88222106875,156.126623675,60.0,90.0
718,155.88222106875,156.19005641249998,64.0,86.0
719,156.10610131874998,156.28893685625,52.0,82.0
720,156.32998156875,156.41953366874998,48.0,92.0
721,156.77774206874997,157.0743834,57.0,79.0
722,156.77774206874997,157.15274148749998,62.0,82.0
723,156.77774206874997,157.16953250625,65.0,81.0
724,157.22550256875,157.3542337125,57.0,60.0
725,157.22550256875,157.81318822499998,45.0,69.0
726,157.67326306874997,157.86356128124999,57.0,83.0
727,156.77774206874997,157.94938204374998,38.0,84.0
728,157.67326306874997,158.14341159375,62.0,85.0
729,157.67326306874997,158.17699363124999,65.0,88.0
730,158.12102356875,158.28147108124998,57.0,86.0
731,158.56878406874998,158.98296253125,64.0,82.0
732,158.56878406874998,158.99788788125,60.0,78.0
733,158.56878406874998,158.99975354999998,57.0,75.0
734,159.01654456875,159.64527493749998,52.0,71.0
735,158.56878406874998,159.70311066874999,45.0,81.0
736,159.46430506874998,159.77400608124998,57.0,82.0
737,159.46430506874998,159.7945284375,60.0,85.0
738,159.46430506874998,159.81878213124998,64.0,83.0
739,159.91206556875,160.037065375,45.0,82.0
740,160.35982606874998,160.4587065125,38.0,83.0
741,160.35982606874998,160.57437797499998,57.0,81.0
742,160.35982606874998,160.91952669375,65.0,81.0
743,160.35982606874998,160.9512430625,62.0,81.0
744,160.80758656875,161.00534745624998,57.0,74.0
745,161.25534706874998,161.48109298749998,57.0,85.0
746,161.25534706874998,161.56131674374998,62.0,87.0
747,161.25534706874998,161.79639100625,65.0,85.0
748,161.70310756875,161.81691336249997,57.0,82.0
749,162.15086806875,162.39713634375,59.0,81.0
750,162.15086806875,162.40833035625,40.0,83.0
751,162.15086806875,162.40833035625,64.0,81.0
752,162.59862856874997,162.70310601875,40.0,74.0
753,162.59862856874997,162.74228506249997,64.0,73.0
754,162.59862856874997,162.74415073125,59.0,70.0
755,163.04638906875,163.24601562499998,40.0,85.0
756,163.04638906875,163.29825434999998,59.0,84.0
757,163.04638906875,163.30012001875,64.0,85.0
758,163.49414956874998,163.81877593124997,59.0,87.0
759,163.49414956874998,163.82623860624997,64.0,87.0
760,163.94191006875,164.19564101875,56.0,74.0
761,163.94191006875,164.21243203749998,52.0,83.0
762,163.94191006875,164.23108872499998,59.0,81.0
763,164.38967056874998,164.56317776249998,56.0,74.0
764,164.38967056874998,164.58183444999997,52.0,76.0
765,164.38967056874998,164.723625275,59.0,78.0
766,163.94191006875,165.08369934375,40.0,88.0
767,164.83743106875,165.2348185125,52.0,92.0
768,164.83743106875,165.29825125,56.0,95.0
769,164.83743106875,165.3131766,64.0,85.0
770,164.83743106875,165.40646003749998,59.0,88.0
771,165.28519156874998,165.45123608749998,47.0,82.0
772,165.50907181875,165.66205665624997,52.0,92.0
773,165.73295206875,165.99041435624997,52.0,98.0
774,165.73295206875,166.02213072499998,56.0,97.0
775,165.73295206875,166.03145906875,59.0,87.0
776,166.18071256874998,166.34862275625,52.0,84.0
777,166.18071256874998,166.35048842499998,56.0,83.0
778,166.18071256874998,166.35795109999998,64.0,80.0
779,166.18071256874998,166.37287644999998,59.0,81.0
780,165.73295206875,166.49041358124998,40.0,87.0
781,166.62847306875,166.71989083749997,52.0,95.0
782,166.62847306875,166.72362217499997,56.0,95.0
783,166.62847306875,166.73668185625,59.0,86.0
784,166.62847306875,166.74601019999997,40.0,86.0
785,166.62847306875,166.74601019999997,47.0,95.0
786,166.62847306875,166.83742796874998,64.0,87.0
787,166.85235331874998,166.96802478125,40.0,86.0
788,167.07623356874998,167.201233375,47.0,88.0
789,167.07623356874998,167.21802439375,40.0,60.0
790,167.30011381875,167.4139196125,64.0,97.0
791,167.52399406874997,167.7497399875,64.0,90.0
792,167.52399406874997,167.7795906875,68.0,81.0
793,167.97175456875,168.07996335624998,64.0,92.0
794,168.19563481875,168.28518691875,64.0,88.0
795,168.19563481875,168.2982466,71.0,81.0
796,167.74787431874998,168.48854481249998,47.0,90.0
797,168.41951506874997,168.66205200624998,64.0,102.0
798,168.41951506874997,168.67138035,71.0,97.0
799,168.86727556875,168.97175301874998,64.0,86.0
800,169.09115581875,169.11354384375,72.0,71.0
801,168.86727556875,169.19376759999997,68.0,88.0
802,169.09115581875,169.3019763875,64.0,97.0
803,167.52399406874997,169.3392897625,40.0,85.0
804,168.64339531874998,169.35981211874997,47.0,102.0
805,169.3019763875,169.5482446625,57.0,81.0
806,169.3019763875,169.6452594375,60.0,87.0
807,169.74973688749998,169.99600516249998,57.0,77.0
808,169.97361713749999,170.04637821875,60.0,70.0
809,169.5258566375,170.30010916875,52.0,74.0
810,170.1974973875,170.4736163625,57.0,83.0
811,170.1974973875,170.56503413124997,60.0,88.0
812,170.1974973875,170.60421317499998,64.0,95.0
813,170.64525788749998,170.92137686249998,57.0,86.0
814,169.3019763875,170.93070520625,45.0,82.0
815,170.42137763749997,170.94003354999998,52.0,81.0
816,170.8691381375,170.98480959999998,60.0,75.0
817,171.0930183875,171.59115194375,55.0,86.0
818,171.0930183875,171.60794296249998,59.0,95.0
819,171.54077888749998,172.07995715624998,50.0,78.0
820,171.9885393875,172.25533001875,55.0,86.0
821,171.9885393875,172.28144938124998,62.0,90.0
822,171.9885393875,172.28891205624998,59.0,95.0
823,171.0930183875,172.3168970875,43.0,81.0
824,172.21241963749998,172.40085218124997,50.0,81.0
825,172.43629988749998,172.7161502,55.0,85.0
826,172.88406038749997,173.08555261249998,55.0,80.0
827,172.88406038749997,173.08928394999998,59.0,83.0
828,172.88406038749997,173.11540331249998,62.0,81.0
829,173.3318208875,173.843014125,55.0,87.0
830,173.5557011375,173.8542081375,59.0,76.0
831,173.77958138749997,174.29637163125,62.0,76.0
832,173.10794063749998,174.33555067499998,50.0,76.0
833,172.88406038749997,174.43816245624998,43.0,83.0
834,174.2273418875,174.52211755,55.0,82.0
835,174.4512221375,174.544505575,59.0,81.0
836,174.67510238749998,174.89898263749998,55.0,83.0
837,174.67510238749998,175.09860919374998,60.0,87.0
838,174.67510238749998,175.1527135875,48.0,97.0
839,175.1228628875,175.410175875,55.0,82.0
840,175.34674313749997,175.49226529999999,60.0,77.0
841,175.57062338749998,175.9885331875,64.0,86.0
842,175.57062338749998,176.12472700625,40.0,82.0
843,175.7945036375,176.14338369375,47.0,82.0
844,176.0183838875,176.16950305625,59.0,90.0
845,176.24226413749997,176.35606993124998,64.0,88.0
846,176.46614438749998,176.9362929125,57.0,82.0
847,176.46614438749998,176.93815858124998,60.0,90.0
848,176.9139048875,177.45494882499997,52.0,74.0
849,177.36166538749998,177.57621729374998,57.0,82.0
850,177.36166538749998,177.57994863124998,60.0,95.0
851,177.36166538749998,177.634053025,64.0,87.0
852,176.46614438749998,177.74972448749998,45.0,83.0
853,177.5855456375,177.76651550625,52.0,81.0
854,177.8094258875,178.02397779375,57.0,84.0
855,178.25718638749998,178.4959919875,55.0,81.0
856,178.25718638749998,178.61539478749998,59.0,81.0
857,178.70494688749997,179.18442375625,55.0,86.0
858,178.4810666375,179.26464751249998,50.0,70.0
859,179.1527073875,179.71800501874998,62.0,86.0
860,179.3765876375,179.7646467375,50.0,86.0
861,178.25718638749998,179.85979584375,43.0,82.0
862,179.60046788749997,179.92882558749997,55.0,88.0
863,180.0482283875,180.56874996874998,62.0,81.0
864,180.0482283875,180.59860066874998,55.0,83.0
865,180.49598888749998,180.96800308124998,50.0,83.0
866,180.9437493875,181.16016696249997,55.0,86.0
867,180.9437493875,181.1825549875,59.0,88.0
868,180.0482283875,181.21054001874998,43.0,87.0
869,180.9437493875,181.25158473124998,62.0,86.0
870,181.16762963749997,181.41949491875,50.0,83.0
871,181.39150988749998,181.71053924375,55.0,88.0
872,181.6153901375,181.74598694999997,59.0,79.0
873,181.8392703875,182.31128458125,55.0,82.0
874,181.8392703875,182.39710534374998,60.0,82.0
875,182.5109111375,182.62658259999998,55.0,83.0
876,182.28703088749998,182.8019554625,52.0,71.0
877,181.8392703875,182.84673151249999,48.0,90.0
878,182.7347913875,182.96053730625,55.0,87.0
879,182.7347913875,182.97919399375,60.0,90.0
880,182.7347913875,183.04262673124998,64.0,86.0
881,182.95867163749998,183.141507175,52.0,82.0
882,183.18255188749998,183.27210398749997,48.0,92.0
883,183.63031238749997,183.92508804999997,57.0,79.0
884,183.63031238749997,184.00531180624998,62.0,82.0
885,183.63031238749997,184.022102825,65.0,81.0
886,184.07807288749999,184.20680403125,57.0,60.0
887,184.07807288749999,184.66575854374997,45.0,69.0
888,184.52583338749997,184.71613159999998,57.0,83.0
889,183.63031238749997,184.80008669375,38.0,84.0
890,184.52583338749997,184.99411624374997,62.0,85.0
891,184.52583338749997,185.02956394999998,65.0,88.0
892,184.9735938875,185.13404139999997,57.0,86.0
893,185.42135438749997,185.83553285,64.0,82.0
894,185.42135438749997,185.8504582,60.0,78.0
895,185.42135438749997,185.85232386874998,57.0,75.0
896,185.8691148875,186.49784525624997,52.0,71.0
897,185.42135438749997,186.55568098749998,45.0,81.0
898,186.31687538749998,186.62657639999998,57.0,82.0
899,186.31687538749998,186.64709875625,60.0,85.0
900,186.31687538749998,186.67135244999997,64.0,83.0
901,186.7646358875,186.88963569375,45.0,82.0
902,187.21239638749998,187.31127683124998,38.0,83.0
903,187.21239638749998,187.42694829374997,57.0,81.0
904,187.21239638749998,187.77209701249998,65.0,81.0
905,187.21239638749998,187.80381338125,62.0,81.0
906,187.6601568875,187.85605210625,57.0,74.0
907,188.10791738749998,188.3317976375,57.0,85.0
908,188.10791738749998,188.41388706249998,62.0,87.0
909,188.10791738749998,188.648961325,65.0,85.0
910,188.5556778875,188.66948368124997,57.0,82.0
911,189.00343838749998,189.2497066625,59.0,81.0
912,189.00343838749998,189.260900675,40.0,83.0
913,189.00343838749998,189.260900675,64.0,81.0
914,189.45119888749997,189.5556763375,40.0,74.0
915,189.45119888749997,189.59485538124997,64.0,73.0
916,189.45119888749997,189.59672104999999,59.0,70.0
917,189.89895938749999,190.09858594374998,40.0,85.0
918,189.89895938749999,190.15082466874998,59.0,84.0
919,189.89895938749999,190.15082466874998,64.0,85.0
920,190.34671988749997,190.67134624999997,59.0,87.0
921,190.34671988749997,190.67880892499997,64.0,87.0
922,190.7944803875,191.0855247125,59.0,83.0
923,190.7944803875,191.3914943875,68.0,87.0
924,190.7944803875,191.51649419375,64.0,86.0
925,191.24224088749997,191.54634489375,59.0,76.0
926,191.24224088749997,191.86723991875,47.0,66.0
927,191.6900013875,191.86723991875,59.0,88.0
928,190.7944803875,191.932538325,40.0,83.0
929,191.6900013875,192.11910519999998,64.0,92.0
930,192.13776188749998,192.23664233124998,59.0,90.0
931,192.5855223875,192.99596951249998,60.0,82.0
932,192.5855223875,193.02022320625,57.0,81.0
933,193.03328288749998,193.59671484999998,52.0,71.0
934,193.4810433875,193.71238631249997,57.0,83.0
935,193.4810433875,193.7870130625,60.0,87.0
936,193.4810433875,193.88402783749999,64.0,90.0
937,192.5855223875,193.92693821875,45.0,83.0
938,193.92880388749998,194.10604241874998,57.0,83.0
939,194.1526841375,194.33178833749997,60.0,82.0
940,194.3765643875,194.92320533125,59.0,87.0
941,194.3765643875,195.051936475,55.0,84.0
942,194.82432488749998,195.3616374875,50.0,75.0
943,195.27208538749997,195.51089098749998,59.0,85.0
944,195.27208538749997,195.55193569999997,55.0,83.0
945,195.27208538749997,195.64335346874998,62.0,82.0
946,194.3765643875,195.68439818124997,43.0,81.0
947,195.7198458875,195.95678581874998,60.0,82.0
948,195.9437261375,196.15268103749997,59.0,85.0
949,196.16760638749997,196.5967102,57.0,83.0
950,196.6153668875,197.12656012499997,52.0,77.0
951,197.06312738749997,197.27767929374997,57.0,82.0
952,197.06312738749997,197.27767929374997,60.0,84.0
953,197.06312738749997,197.42879846249997,64.0,87.0
954,197.28700763749998,197.4735745125,52.0,74.0
955,196.16760638749997,197.529544575,45.0,82.0
956,197.5108878875,197.7608875,62.0,84.0
957,197.73476813749997,197.91573800625,60.0,83.0
958,197.95864838749998,198.33924481249997,62.0,83.0
959,198.4064088875,198.91387078749997,50.0,74.0
960,198.85416938749998,199.10603466874997,55.0,82.0
961,198.85416938749998,199.27767619374998,62.0,84.0
962,199.0780496375,199.30379555624998,50.0,81.0
963,197.95864838749998,199.3392432625,43.0,81.0
964,199.3019298875,199.51275045625,55.0,76.0
965,199.3019298875,199.59670555,60.0,82.0
966,199.74969038749998,200.23662993124998,53.0,80.0
967,199.74969038749998,200.37282374999998,60.0,78.0
968,200.42133113749998,200.71237546249998,53.0,81.0
969,200.64521138749998,200.85976329374998,57.0,83.0
970,200.8690916375,201.00155411875,60.0,97.0
971,201.09297188749997,201.34297149999998,53.0,86.0
972,200.19745088749997,201.37282219999997,48.0,80.0
973,199.74969038749998,201.40453856874998,41.0,83.0
974,201.5407323875,201.94931384375,53.0,80.0
975,201.5407323875,201.95677651875,57.0,80.0
976,201.5407323875,202.01461224999997,60.0,80.0
977,201.5407323875,202.05379129374998,41.0,83.0
978,202.4362533875,202.91946159375,55.0,81.0
979,202.4362533875,203.02767038124998,43.0,82.0
980,202.4362533875,203.0332673875,59.0,81.0
981,203.3317743875,203.69184845624997,60.0,82.0
982,203.3317743875,203.74595284999998,57.0,76.0
983,203.77953488749998,204.42319060625,52.0,79.0
984,204.2272953875,204.62654849999998,57.0,84.0
985,204.2272953875,204.64893652499998,60.0,95.0
986,204.2272953875,204.66386187499998,64.0,95.0
987,203.3317743875,204.95117486249998,45.0,83.0
988,204.67505588749998,204.95117486249998,52.0,77.0
989,204.8989361375,205.04818963749997,57.0,76.0
990,205.1228163875,205.60415892499998,57.0,81.0
991,205.1228163875,205.64333796875,60.0,80.0
992,205.7944571375,205.87468089374997,57.0,80.0
993,205.57057688749998,206.07617311874998,52.0,78.0
994,206.01833738749997,206.23848629999998,57.0,84.0
995,206.01833738749997,206.27393400625,64.0,88.0
996,205.1228163875,206.3466950875,45.0,83.0
997,206.24221763749998,206.37281445,52.0,97.0
998,206.46609788749998,206.6452020875,57.0,85.0
999,206.91385838749997,207.3392308625,57.0,82.0
1000,206.91385838749997,207.3429622,60.0,83.0
1001,207.3616188875,207.9287821875,52.0,78.0
1002,207.80937938749997,208.16012511249997,57.0,83.0
1003,207.80937938749997,208.17691613124998,60.0,95.0
1004,207.80937938749997,208.186244475,64.0,95.0
1005,206.91385838749997,208.529527525,45.0,83.0
1006,208.2571398875,208.55751255624997,52.0,73.0
1007,208.48102013749997,208.61534828749998,57.0,81.0
1008,208.70490038749998,209.10601916874998,57.0,79.0
1009,208.70490038749998,209.14706388124998,60.0,83.0
1010,208.70490038749998,209.17878025,64.0,82.0
1011,208.70490038749998,209.48661559374997,45.0,83.0
1012,209.1526608875,209.53325731249998,52.0,70.0
1013,209.60042138749998,209.85415233749998,57.0,86.0
1014,209.60042138749998,210.11721163124997,60.0,92.0
1015,210.0481818875,210.27765914375,57.0,74.0
1016,210.50900206875,211.10788173749998,60.0,75.0
1017,210.50900206875,211.45116478749998,57.0,76.0
1018,211.40452306875,211.61720930624998,60.0,82.0
1019,211.40452306875,211.634000325,64.0,87.0
1020,212.30004406874997,212.44183489374998,60.0,77.0
1021,212.30004406874997,212.52392431874998,64.0,78.0
1022,212.74780456874998,212.93810278125,57.0,67.0
1023,210.50900206875,213.26646048125,45.0,81.0
1024,210.95676256874998,213.27578882499998,52.0,69.0
1025,213.19556506874997,213.37840060624998,57.0,79.0
1026,213.19556506874997,213.57802716249998,60.0,83.0
1027,213.19556506874997,213.63399722499997,64.0,81.0
1028,214.09108606874997,214.60787631249997,59.0,76.0
1029,214.09108606874997,214.83548789999998,55.0,74.0
1030,214.98660706874998,215.3168304375,62.0,76.0
1031,214.98660706874998,215.32802445,59.0,81.0
1032,215.88212806874998,216.43809735624998,59.0,81.0
1033,215.88212806874998,216.48287340624998,62.0,79.0
1034,216.32988856875,216.58548518749998,55.0,71.0
1035,216.77764906874998,216.89332053124997,59.0,86.0
1036,216.77764906874998,216.89705186874997,62.0,81.0
1037,216.77764906874998,216.92876823749998,55.0,82.0
1038,214.53884656875,216.93623091249998,50.0,62.0
1039,214.09108606874997,217.03324568749997,43.0,81.0
1040,217.67317006874998,218.18063196875,52.0,80.0
1041,217.67317006874998,218.19742298749998,59.0,80.0
1042,218.12093056874997,218.69555654374997,47.0,63.0
1043,217.67317006874998,218.72913858124997,40.0,82.0
1044,218.56869106874998,218.78697431249998,52.0,79.0
1045,218.56869106874998,219.37092863124997,59.0,81.0
1046,219.01645156874997,219.8504055,52.0,72.0
1047,219.46421206875,219.85227116874998,59.0,81.0
1048,219.46421206875,219.8615995125,64.0,82.0
1049,222.19928245625,222.77390843125,57.0,69.0
1050,222.72726671249998,222.83920683749997,59.0,81.0
1051,221.6824922125,222.984729,52.0,77.0
1052,221.23846304999998,223.03696772499998,45.0,82.0
1053,223.60972803124997,224.42502527499997,52.0,71.0
1054,223.43622083749997,224.44554763124998,45.0,52.0
1055,223.68248911249998,224.55002508124997,57.0,67.0
1056,223.85599630624998,224.56121909374997,64.0,69.0
1057,223.76644420625,224.56495043124997,60.0,72.0
1058,223.92875738749999,224.58174144999998,69.0,75.0
