,start,end,pitch,velocity
0,43.5625,43.802083333333336,57.0,75.0
1,43.8125,44.098958333333336,59.0,76.0
2,44.0625,44.24791666666667,62.0,72.0
3,44.3125,44.44375,62.0,76.0
4,44.5625,44.69375,62.0,76.0
5,44.8125,44.932291666666664,62.0,76.0
6,45.0625,45.53541666666666,62.0,76.0
7,45.5625,45.697916666666664,62.0,72.0
8,45.8125,45.96875,64.0,76.0
9,46.0625,46.516666666666666,66.0,77.0
10,46.5625,46.80416666666667,64.0,77.0
11,46.8125,47.284375,62.0,77.0
12,47.3125,47.471875,62.0,76.0
13,47.5625,47.765625,62.0,77.0
14,47.8125,47.98020833333333,74.0,85.0
15,48.0625,48.43125,71.0,77.0
16,48.5625,48.75833333333333,71.0,74.0
17,48.8125,49.0,69.0,77.0
18,49.0625,49.46041666666667,71.0,75.0
19,49.5625,49.729166666666664,69.0,68.0
20,49.8125,50.32083333333333,69.0,75.0
21,50.3125,51.280208333333334,66.0,76.0
22,51.5625,51.8,66.0,68.0
23,51.8125,52.06875,69.0,77.0
24,52.0625,52.44895833333333,64.0,79.0
25,52.5625,52.75625,64.0,78.0
26,52.8125,52.994791666666664,66.0,76.0
27,53.0625,53.401041666666664,64.0,78.0
28,53.5625,53.735416666666666,64.0,77.0
29,53.8125,54.021875,66.0,72.0
30,54.0625,54.55625,64.0,78.0
31,54.5625,54.864583333333336,62.0,77.0
32,54.8125,55.38229166666667,59.0,76.0
33,55.5625,55.782291666666666,59.0,77.0
34,55.8125,55.996874999999996,62.0,77.0
35,56.0625,56.44375,66.0,72.0
36,56.5625,56.725,64.0,79.0
37,56.8125,56.990625,64.0,79.0
38,57.0625,57.521875,66.0,79.0
39,57.5625,57.765625,64.0,80.0
40,57.8125,58.04479166666667,66.0,78.0
41,58.0625,59.059374999999996,69.0,77.0
42,59.5625,59.740625,57.0,76.0
43,59.8125,60.02708333333333,59.0,77.0
44,60.0625,60.440625,62.0,76.0
45,60.5625,60.734375,62.0,74.0
46,60.8125,60.96875,62.0,76.0
47,61.0625,61.418749999999996,62.0,76.0
48,61.5625,61.73645833333333,62.0,76.0
49,61.8125,61.963541666666664,64.0,78.0
50,62.0625,62.438541666666666,66.0,76.0
51,62.5625,62.734375,64.0,78.0
52,62.8125,63.39479166666666,62.0,77.0
53,63.3125,63.39479166666666,62.0,76.0
54,63.5625,63.744791666666664,62.0,77.0
55,63.80416666666667,63.98645833333333,74.0,87.0
56,64.05416666666666,64.39270833333333,71.0,76.0
57,64.5625,64.77291666666666,71.0,76.0
58,64.9375,65.13854166666667,69.0,73.0
59,65.4375,65.56666666666666,71.0,77.0
60,65.9375,66.09479166666667,69.0,77.0
61,66.3125,67.13645833333334,66.0,76.0
62,67.5625,67.71979166666667,66.0,79.0
63,67.8125,68.02291666666666,69.0,76.0
64,68.0625,68.35416666666667,64.0,72.0
65,68.4375,68.6125,64.0,76.0
66,68.8125,69.02083333333333,66.0,72.0
67,69.0625,69.28541666666666,64.0,80.0
68,69.4375,69.59375,64.0,77.0
69,69.8125,70.03958333333333,66.0,72.0
70,70.0625,70.37395833333333,64.0,79.0
71,70.4375,70.71979166666667,62.0,80.0
72,70.8125,71.25729166666666,59.0,78.0
73,71.3125,71.45833333333333,59.0,77.0
74,71.5625,71.765625,59.0,78.0
75,71.8125,71.9875,62.0,76.0
76,72.0625,72.41041666666666,66.0,78.0
77,72.4375,72.57291666666667,64.0,76.0
78,72.8125,72.97395833333333,64.0,76.0
79,73.0625,73.39895833333333,66.0,60.0
80,73.4375,73.72083333333333,64.0,77.0
81,73.8125,74.028125,59.0,76.0
82,74.0625,75.63541666666667,62.0,78.0
83,75.8125,76.028125,62.0,77.0
84,76.0625,76.20833333333333,74.0,87.0
85,76.3125,76.453125,74.0,83.0
86,76.5625,76.69895833333334,74.0,82.0
87,76.8125,77.21145833333333,74.0,87.0
88,77.3125,77.496875,73.0,77.0
89,77.5625,77.70833333333333,71.0,76.0
90,77.8125,79.15833333333333,66.0,74.0
91,79.8125,79.97604166666666,69.0,77.0
92,80.0625,80.19791666666667,71.0,77.0
93,80.3125,80.45729166666666,71.0,74.0
94,80.5625,80.70833333333333,71.0,75.0
95,80.8125,81.20729166666666,71.0,77.0
96,81.3125,81.484375,62.0,78.0
97,81.5625,81.73958333333333,64.0,76.0
98,81.8125,83.15729166666667,66.0,74.0
99,83.5625,83.71875,66.0,76.0
100,83.8125,83.98333333333333,66.0,76.0
101,84.0625,84.28541666666666,67.0,78.0
102,84.4375,84.58854166666667,67.0,76.0
103,84.8125,84.959375,67.0,76.0
104,85.0625,85.46666666666667,67.0,77.0
105,85.4375,85.653125,66.0,76.0
106,85.8125,85.99583333333334,64.0,76.0
107,86.0625,86.49479166666667,66.0,78.0
108,86.3125,87.19270833333333,69.0,76.0
109,87.5625,87.70416666666667,69.0,76.0
110,87.8125,88.0,69.0,77.0
111,88.0625,88.38645833333334,71.0,78.0
112,88.4375,88.59375,71.0,80.0
113,88.8125,88.95416666666667,71.0,78.0
114,89.0625,89.43229166666667,71.0,82.0
115,89.4375,89.584375,71.0,78.0
116,89.8125,89.96458333333334,71.0,76.0
117,90.0625,90.56770833333333,71.0,80.0
118,90.8125,91.73541666666667,69.0,80.0
119,91.8125,91.97291666666666,69.0,78.0
120,92.0625,92.20833333333333,74.0,82.0
121,92.3125,92.44791666666667,74.0,82.0
122,92.5625,92.69270833333333,74.0,80.0
123,92.8125,93.18958333333333,74.0,87.0
124,93.3125,93.50104166666667,73.0,77.0
125,93.5625,93.70416666666667,71.0,77.0
126,93.8125,95.18645833333333,66.0,77.0
127,95.5625,95.74479166666667,71.0,77.0
128,95.8125,95.96666666666667,69.0,78.0
129,96.0625,96.21770833333333,71.0,78.0
130,96.3125,96.45729166666666,71.0,76.0
131,96.5625,96.740625,71.0,76.0
132,96.8125,97.24270833333333,69.0,81.0
133,97.3125,97.5,62.0,76.0
134,97.5625,97.72291666666666,64.0,80.0
135,97.8125,99.146875,66.0,72.0
136,99.5625,99.73020833333334,66.0,76.0
137,99.8125,100.0,66.0,72.0
138,100.0625,100.32604166666667,67.0,79.0
139,100.4375,100.71875,67.0,77.0
140,100.8125,100.984375,67.0,77.0
141,101.0625,101.48020833333334,67.0,77.0
142,101.5625,101.790625,66.0,82.0
143,101.8125,102.00625,64.0,73.0
144,102.0625,102.41875,66.0,78.0
145,102.3125,103.24374999999999,69.0,79.0
146,103.3125,103.4375,69.0,79.0
147,103.5625,103.69895833333334,69.0,79.0
148,103.8125,103.96458333333334,69.0,78.0
149,104.0625,104.41979166666667,71.0,83.0
150,104.5625,104.70729166666666,71.0,77.0
151,104.8125,104.95833333333333,71.0,77.0
152,105.0625,105.45208333333333,71.0,80.0
153,105.5625,105.72708333333333,71.0,79.0
154,105.8125,106.271875,71.0,77.0
155,106.5625,109.146875,69.0,80.0
156,109.5625,109.740625,57.0,76.0
157,109.8125,110.02708333333334,59.0,77.0
158,110.0625,110.440625,62.0,76.0
159,110.5625,110.734375,62.0,74.0
160,110.8125,110.96875,62.0,76.0
161,111.0625,111.41875,62.0,76.0
162,111.4375,111.61145833333333,62.0,76.0
163,111.8125,111.96354166666667,64.0,78.0
164,112.0625,112.43854166666667,66.0,76.0
165,112.5625,112.734375,64.0,78.0
166,112.8125,113.39479166666666,62.0,77.0
167,113.3125,113.39479166666666,62.0,76.0
168,113.5625,113.74479166666667,62.0,77.0
169,113.8125,113.99479166666667,74.0,87.0
170,114.0625,114.40104166666667,71.0,76.0
171,114.5625,114.77291666666666,71.0,76.0
172,114.9375,115.17604166666666,69.0,73.0
173,115.3125,115.57083333333333,71.0,77.0
174,115.8125,116.06145833333333,69.0,77.0
175,116.0625,116.26041666666667,69.0,100.0
176,116.3125,117.121875,66.0,76.0
177,117.5625,117.71979166666667,69.0,79.0
178,117.8125,118.02291666666666,66.0,76.0
179,118.0625,118.40208333333334,64.0,72.0
180,118.4375,118.6125,64.0,76.0
181,118.8125,119.02083333333333,66.0,72.0
182,119.0625,119.39166666666667,64.0,80.0
183,119.8125,120.03958333333333,66.0,72.0
184,120.0625,120.52291666666666,64.0,79.0
185,120.5625,120.84479166666667,62.0,80.0
186,120.8125,121.25729166666666,59.0,78.0
187,121.3125,121.45833333333333,59.0,77.0
188,121.5625,121.765625,59.0,78.0
189,121.8125,121.9875,62.0,76.0
190,122.0625,122.47916666666667,66.0,78.0
191,122.4375,122.57291666666667,64.0,76.0
192,122.8125,122.97395833333333,64.0,76.0
193,123.0625,123.39895833333333,64.0,60.0
194,123.4375,123.72083333333333,64.0,77.0
195,123.8125,124.028125,59.0,76.0
196,124.0625,125.63541666666667,62.0,78.0
197,157.5625,157.80208333333334,57.0,75.0
198,157.8125,158.09895833333334,59.0,76.0
199,158.0625,158.24791666666667,62.0,72.0
200,158.3125,158.44375,62.0,76.0
201,158.5625,158.69375,62.0,76.0
202,158.8125,158.93229166666666,62.0,76.0
203,159.0625,159.53541666666666,62.0,76.0
204,159.5625,159.69791666666666,62.0,72.0
205,159.8125,159.96875,64.0,76.0
206,160.0625,160.51666666666665,66.0,77.0
207,160.5625,160.80416666666667,64.0,77.0
208,160.8125,161.284375,62.0,77.0
209,161.3125,161.471875,62.0,76.0
210,161.5625,161.765625,62.0,77.0
211,161.8125,161.98020833333334,74.0,85.0
212,162.0625,162.43125,71.0,77.0
213,162.5625,162.75833333333333,71.0,74.0
214,162.8125,163.0,69.0,77.0
215,163.0625,163.46041666666667,71.0,75.0
216,163.5625,163.72916666666666,69.0,68.0
217,163.8125,164.32083333333333,69.0,75.0
218,164.3125,165.28020833333332,66.0,76.0
219,165.5625,165.8,66.0,68.0
220,165.8125,166.06875,69.0,77.0
221,166.0625,166.44895833333334,64.0,79.0
222,166.5625,166.75625,64.0,78.0
223,166.8125,166.99479166666666,66.0,76.0
224,167.0625,167.40104166666666,64.0,78.0
225,167.5625,167.73541666666665,64.0,77.0
226,167.8125,168.021875,66.0,72.0
227,168.0625,168.55625,64.0,78.0
228,168.5625,168.86458333333334,62.0,77.0
229,168.8125,169.38229166666667,59.0,76.0
230,169.5625,169.78229166666665,59.0,77.0
231,169.8125,169.996875,62.0,77.0
232,170.0625,170.44375,66.0,72.0
233,170.4375,170.6,64.0,79.0
234,170.8125,170.990625,64.0,79.0
235,171.0625,171.521875,66.0,79.0
236,171.4375,171.640625,64.0,80.0
237,171.8125,172.27604166666666,66.0,78.0
238,172.0625,173.059375,69.0,77.0
239,173.5625,173.740625,57.0,76.0
240,173.8125,174.02708333333334,59.0,77.0
241,174.0625,174.440625,62.0,76.0
242,174.5625,174.734375,62.0,74.0
243,174.8125,174.96875,62.0,76.0
244,175.0625,175.41875,62.0,76.0
245,175.4375,175.61145833333333,62.0,76.0
246,175.8125,175.96354166666666,64.0,78.0
247,176.0625,176.43854166666665,66.0,76.0
248,176.5625,176.734375,64.0,78.0
249,176.8125,177.39479166666666,62.0,77.0
250,177.3125,177.39479166666666,62.0,76.0
251,177.5625,177.74479166666666,62.0,77.0
252,177.8125,177.99479166666666,74.0,87.0
253,178.0625,178.40104166666666,71.0,76.0
254,178.5625,178.77291666666667,71.0,76.0
255,178.8125,179.05104166666666,69.0,73.0
256,179.3125,179.58333333333334,71.0,77.0
257,179.8125,180.31145833333332,69.0,77.0
258,180.4375,181.421875,66.0,76.0
259,181.5625,181.71979166666665,66.0,79.0
260,181.8125,182.02291666666667,69.0,76.0
261,182.0625,182.40208333333334,64.0,72.0
262,182.4375,182.6125,64.0,76.0
263,182.8125,183.02083333333334,66.0,72.0
264,183.0625,183.39166666666665,64.0,80.0
265,183.4375,183.59375,64.0,77.0
266,183.8125,184.03958333333333,66.0,72.0
267,184.0625,184.52291666666667,64.0,79.0
268,184.5625,184.84479166666665,62.0,80.0
269,184.8125,185.25729166666667,59.0,78.0
270,185.3125,185.45833333333334,59.0,77.0
271,185.5625,185.765625,59.0,78.0
272,185.8125,185.9875,62.0,76.0
273,186.0625,186.47916666666666,66.0,78.0
274,186.4375,186.57291666666666,64.0,76.0
275,186.8125,186.97395833333334,64.0,76.0
276,187.0625,187.39895833333333,64.0,60.0
277,187.5625,187.84583333333333,64.0,77.0
278,187.8125,188.028125,59.0,76.0
279,188.0625,189.63541666666666,62.0,78.0
280,189.8125,190.028125,62.0,77.0
281,190.0625,190.20833333333334,74.0,87.0
282,190.3125,190.453125,74.0,83.0
283,190.5625,190.69895833333334,74.0,82.0
284,190.8125,191.21145833333333,74.0,87.0
285,191.3125,191.496875,73.0,77.0
286,191.5625,191.70833333333334,71.0,76.0
287,191.8125,193.15833333333333,66.0,74.0
288,193.8125,193.97604166666667,69.0,77.0
289,194.0625,194.19791666666666,71.0,77.0
290,194.3125,194.45729166666666,71.0,74.0
291,194.5625,194.70833333333334,71.0,75.0
292,194.8125,195.20729166666666,71.0,77.0
293,195.3125,195.484375,62.0,78.0
294,195.5625,195.73958333333334,64.0,76.0
295,195.8125,197.15729166666665,66.0,74.0
296,197.5625,197.71875,66.0,76.0
297,197.8125,197.98333333333332,66.0,76.0
298,198.0625,198.43333333333334,67.0,78.0
299,198.4375,198.58854166666666,67.0,76.0
300,198.8125,198.959375,67.0,76.0
301,199.0625,199.46666666666667,67.0,77.0
302,199.5625,199.778125,66.0,76.0
303,199.8125,199.99583333333334,64.0,76.0
304,200.0625,200.4,66.0,78.0
305,200.3125,201.05625,69.0,76.0
306,201.3125,201.43125,69.0,81.0
307,201.5625,201.70416666666665,69.0,76.0
308,201.8125,202.0,69.0,77.0
309,202.0625,202.44270833333334,71.0,78.0
310,202.5625,202.71875,71.0,80.0
311,202.8125,202.95416666666665,71.0,78.0
312,203.0625,203.43229166666666,71.0,82.0
313,203.4375,203.584375,71.0,78.0
314,203.8125,203.96458333333334,71.0,76.0
315,204.0625,204.56770833333334,71.0,80.0
316,204.8125,205.73854166666666,69.0,80.0
317,205.8125,205.97291666666666,69.0,78.0
318,206.0625,206.20833333333334,74.0,82.0
319,206.3125,206.44791666666666,74.0,82.0
320,206.5625,206.69270833333334,74.0,80.0
321,206.8125,207.18958333333333,74.0,87.0
322,207.3125,207.50104166666665,73.0,77.0
323,207.5625,207.70416666666665,71.0,77.0
324,207.8125,209.18645833333332,66.0,77.0
325,209.5625,209.74479166666666,71.0,77.0
326,209.8125,209.96666666666667,69.0,78.0
327,210.0625,210.21770833333332,71.0,78.0
328,210.3125,210.45729166666666,71.0,76.0
329,210.5625,210.740625,71.0,76.0
330,210.8125,211.24270833333333,69.0,81.0
331,211.3125,211.5,62.0,76.0
332,211.5625,211.72291666666666,64.0,80.0
333,211.8125,213.146875,66.0,72.0
334,213.5625,213.73020833333334,66.0,76.0
335,213.8125,214.0,66.0,72.0
336,214.0625,214.32604166666667,67.0,79.0
337,214.4375,214.71875,67.0,77.0
338,214.8125,214.984375,67.0,77.0
339,215.0625,215.48020833333334,67.0,77.0
340,215.5625,215.790625,66.0,82.0
341,215.8125,216.00625,64.0,73.0
342,216.0625,216.41875,66.0,78.0
343,216.3125,217.24375,69.0,79.0
344,217.3125,217.4375,69.0,79.0
345,217.5625,217.69895833333334,69.0,79.0
346,217.8125,217.96458333333334,69.0,78.0
347,218.0625,218.41979166666667,71.0,83.0
348,218.5625,218.70729166666666,71.0,77.0
349,218.8125,218.95833333333334,71.0,77.0
350,219.0625,219.45208333333332,71.0,80.0
351,219.5625,219.72708333333333,71.0,79.0
352,219.8125,220.271875,71.0,77.0
353,220.5625,223.13645833333334,69.0,80.0
354,223.5625,223.740625,57.0,76.0
355,223.8125,224.02708333333334,59.0,77.0
356,224.0625,224.44062499999998,62.0,76.0
357,224.5625,224.734375,62.0,74.0
358,224.8125,224.96875,62.0,76.0
359,225.0625,225.41875,62.0,76.0
360,225.4375,225.61145833333333,62.0,76.0
361,225.8125,225.96354166666666,64.0,78.0
362,226.0625,226.43854166666665,66.0,76.0
363,226.5625,226.734375,64.0,78.0
364,226.8125,227.39479166666666,62.0,77.0
365,227.3125,227.39479166666666,62.0,76.0
366,227.5625,227.74479166666666,62.0,77.0
367,227.8125,227.99479166666666,74.0,87.0
368,228.0625,228.40104166666666,71.0,76.0
369,228.5625,228.77291666666667,71.0,76.0
370,228.8125,229.05104166666666,69.0,73.0
371,229.0625,229.54375,71.0,77.0
372,229.5625,229.834375,69.0,77.0
373,229.8125,229.834375,69.0,79.0
374,230.3125,231.36354166666666,66.0,76.0
375,231.5625,231.71979166666665,69.0,79.0
376,231.8125,232.02291666666667,66.0,76.0
377,232.0625,232.40208333333334,64.0,72.0
378,232.5625,232.73749999999998,64.0,76.0
379,232.8125,233.02083333333334,66.0,72.0
380,233.0625,233.39166666666665,64.0,80.0
381,233.5625,233.71875,64.0,77.0
382,233.8125,234.03958333333333,66.0,72.0
383,234.0625,234.52291666666667,64.0,79.0
384,234.5625,234.84479166666665,62.0,80.0
385,234.8125,235.25729166666667,59.0,78.0
386,235.3125,235.45833333333334,59.0,77.0
387,235.5625,235.765625,59.0,78.0
388,235.8125,235.98749999999998,62.0,76.0
389,236.0625,236.47916666666666,66.0,78.0
390,236.4375,236.57291666666666,64.0,76.0
391,236.8125,236.97395833333334,64.0,76.0
392,237.0625,237.39895833333333,64.0,60.0
393,237.5625,239.3125,64.0,77.0
394,239.5625,240.11875,59.0,78.0
395,240.3125,241.84375,62.0,76.0
