,start,end,pitch,velocity
0,22.665694383333335,23.25808395,81.0,119.0
1,23.643952383333335,23.91025595,72.0,110.0
2,23.970038383333335,24.275744008333334,74.0,110.0
3,24.296124383333336,24.590960475000003,77.0,110.0
4,24.622210383333336,24.945579000000002,79.0,108.0
5,24.948296383333336,25.191502191666668,77.0,110.0
6,25.274382383333336,25.703728950000002,77.0,117.0
7,27.230898383333333,27.56241915,74.0,116.0
8,27.556984383333333,27.70915785,77.0,114.0
9,27.883070383333333,28.245841058333333,79.0,116.0
10,28.535242383333333,28.7933938,77.0,113.0
11,28.861328383333333,29.109968958333333,79.0,113.0
12,29.187414383333333,29.470022250000003,81.0,116.0
13,29.513500383333334,29.737684508333334,84.0,98.0
14,30.165672383333334,30.43741071666667,74.0,107.0
15,30.491758383333334,30.899365883333335,72.0,107.0
16,33.100446383333335,33.71049894166667,74.0,113.0
17,34.07870438333333,34.34772533333334,79.0,113.0
18,34.404790383333335,34.88169115833333,74.0,108.0
19,35.056962383333335,35.47272203333333,72.0,116.0
20,35.709134383333335,36.167013475000005,77.0,114.0
21,36.361306383333336,36.608588266666665,77.0,114.0
22,36.68739238333333,37.06103259166667,79.0,102.0
23,37.013478383333336,37.31239055,81.0,116.0
24,38.317822383333336,38.84227736666667,84.0,116.0
25,38.969994383333336,39.52977535,89.0,117.0
26,39.62216638333334,40.20776249166667,86.0,116.0
27,40.27433838333334,40.51890288333333,84.0,114.0
28,40.60042438333333,40.844988883333336,81.0,114.0
29,40.92651038333334,41.36265040833334,79.0,114.0
30,43.53519838333334,43.88981690833334,81.0,114.0
31,44.024327383333336,44.1031315,81.0,102.0
32,44.18737038333334,44.43465226666667,81.0,113.0
33,44.513456383333335,44.811009858333335,72.0,116.0
34,44.83954238333334,45.07595473333333,74.0,116.0
35,45.165628383333335,45.37214951666667,77.0,114.0
36,45.49171438333334,45.80693085,79.0,108.0
37,45.817800383333335,46.039267125,77.0,96.0
38,46.14388638333334,46.6792109,77.0,113.0
39,48.10040238333333,48.39387978333333,74.0,113.0
40,48.426488383333336,48.664259425000004,77.0,113.0
41,48.75257438333333,49.08409515,79.0,116.0
42,49.24170338333334,49.332735725,79.0,107.0
43,49.40474638333333,49.5487677,81.0,107.0
44,49.730832383333336,49.922407908333334,84.0,113.0
45,50.05691838333333,50.305558958333336,81.0,114.0
46,50.383004383333336,50.574579908333334,79.0,98.0
47,50.70909038333333,51.03517638333334,79.0,100.0
48,51.03517638333334,51.334088550000004,76.0,98.0
49,51.36126238333333,51.78381549166667,74.0,98.0
50,53.969950383333334,54.53652480833333,77.0,116.0
51,54.94820838333334,55.27293569166667,74.0,117.0
52,55.274294383333334,55.584076083333336,72.0,116.0
53,55.926466383333334,56.384345475,84.0,113.0
54,56.578638383333335,57.022930558333336,86.0,110.0
55,57.230810383333335,57.48624441666667,86.0,113.0
56,57.55689638333334,57.855808550000006,89.0,114.0
57,57.882982383333335,58.24031829166667,86.0,117.0
58,58.535154383333335,58.69819738333334,81.0,117.0
59,58.86124038333334,59.14248955833334,81.0,114.0
60,59.187326383333335,59.52971668333333,79.0,113.0
61,60.16558438333334,60.491670383333336,81.0,113.0
62,60.491670383333336,60.82862591666667,79.0,110.0
63,60.81775638333334,61.109875091666666,81.0,104.0
64,61.143842383333336,61.51340651666667,72.0,116.0
65,61.46992838333334,61.78514485,74.0,102.0
66,61.796014383333336,62.416936475,77.0,114.0
67,64.40470238333333,65.06910260833334,89.0,116.0
68,65.38296038333334,65.63295965,89.0,117.0
69,65.70904638333333,66.13024080000001,88.0,117.0
70,66.36121838333334,66.65061970833334,86.0,119.0
71,66.68730438333334,66.949531875,84.0,114.0
72,67.01339038333333,67.52561714166667,86.0,117.0
73,67.99164838333334,68.32316915,84.0,119.0
74,68.31773438333333,68.81365684166667,81.0,119.0
75,69.62207838333333,69.90604494166666,84.0,117.0
76,69.94816438333334,70.35577188333333,86.0,116.0
77,70.60033638333334,70.78783583333333,84.0,119.0
78,70.92642238333333,71.221258475,84.0,120.0
79,71.57859438333334,71.88973477500001,81.0,113.0
80,71.90468038333334,72.10848413333333,79.0,114.0
81,72.23076638333333,72.74299314166667,79.0,117.0
82,74.83945438333333,75.126138325,81.0,117.0
83,75.16554038333334,75.53918059166666,84.0,116.0
84,76.14379838333333,76.43999316666667,81.0,114.0
85,76.46988438333334,76.79461169166667,79.0,104.0
86,76.79597038333334,77.17368666666667,77.0,114.0
87,77.44814238333333,77.710369875,77.0,116.0
88,77.77422838333334,78.20629233333334,79.0,114.0
89,78.42640038333333,78.74705161666667,77.0,116.0
90,78.75248638333333,79.05683331666667,74.0,116.0
91,80.05683038333333,80.62340480833333,76.0,117.0
92,81.03508838333333,81.256555125,79.0,113.0
93,81.36117438333333,81.65736916666667,74.0,114.0
94,81.68726038333334,81.95084656666667,76.0,94.0
95,82.01334638333334,82.31225855000001,74.0,113.0
96,82.33943238333333,82.50926884166667,72.0,104.0
97,82.66551838333334,83.12475616666667,84.0,117.0
98,85.27420638333334,85.51877088333333,86.0,116.0
99,85.60029238333334,85.84485688333334,89.0,116.0
100,86.25246438333333,86.50246365000001,89.0,117.0
101,86.57855038333334,86.9997448,88.0,117.0
102,87.23072238333334,87.52012370833334,86.0,119.0
103,87.55680838333333,87.819035875,84.0,114.0
104,87.88289438333334,88.12745888333333,86.0,117.0
105,88.20898038333334,88.45354488333334,86.0,117.0
106,88.86115238333333,89.19267315,84.0,119.0
107,89.18723838333334,89.68316084166668,81.0,119.0
108,90.49158238333334,90.737505575,84.0,116.0
109,90.81766838333334,91.194025975,84.0,117.0
110,91.46984038333333,91.78233946666667,81.0,116.0
111,91.79592638333334,92.01331705,84.0,110.0
112,92.12201238333334,92.35027258333334,86.0,113.0
113,92.44809838333333,92.69673895833334,88.0,117.0
114,92.77418438333333,92.98070551666667,89.0,108.0
115,92.93722738333334,93.05135748333333,88.0,104.0
116,93.10027038333334,93.48070405,86.0,116.0
117,95.70895838333334,95.995642325,81.0,117.0
118,96.03504438333334,96.40868459166667,84.0,116.0
119,96.68721638333334,96.96303079166667,81.0,114.0
120,97.01330238333334,97.30677978333334,79.0,113.0
121,97.33938838333334,97.60840933333334,81.0,113.0
122,97.66547438333333,97.97797346666667,84.0,117.0
123,98.31764638333334,98.67905836666667,81.0,117.0
124,98.80677538333333,98.971177075,79.0,94.0
125,98.96981838333333,99.24291540833333,77.0,102.0
126,99.29590438333334,99.53095804166666,79.0,107.0
127,99.62199038333334,99.94807638333334,79.0,110.0
128,99.94807638333334,100.259216775,76.0,110.0
129,100.92633438333334,101.21030094166667,74.0,116.0
130,101.41546338333333,101.73747330833334,74.0,114.0
131,101.90459238333334,102.13828735,77.0,108.0
132,102.23067838333334,102.582579525,72.0,116.0
133,102.88285038333333,103.21165376666667,72.0,108.0
134,103.20893638333334,103.51735939166667,74.0,98.0
135,103.53502238333334,104.184477,77.0,107.0
136,126.97245363333334,127.56484320000001,81.0,119.0
137,127.95071163333334,128.2170152,72.0,110.0
138,128.27679763333333,128.58250325833333,74.0,110.0
139,128.60288363333333,128.897719725,77.0,110.0
140,128.92896963333334,129.25233825,79.0,108.0
141,129.25505563333334,129.49826144166667,77.0,110.0
142,129.58114163333335,130.0104882,77.0,117.0
143,131.53765763333334,131.8691784,74.0,116.0
144,131.86374363333334,132.0159171,77.0,114.0
145,132.18982963333335,132.55260030833335,79.0,116.0
146,132.84200163333335,133.10015305000002,77.0,113.0
147,133.16808763333333,133.41672820833335,79.0,113.0
148,133.49417363333333,133.7767815,81.0,116.0
149,133.82025963333334,134.04444375833333,84.0,98.0
150,134.47243163333334,134.74416996666668,74.0,107.0
151,134.79851763333335,135.20612513333333,72.0,107.0
152,137.40720563333335,138.01725819166668,74.0,113.0
153,138.38546363333333,138.65448458333333,79.0,113.0
154,138.71154963333333,139.18845040833335,74.0,108.0
155,139.36372163333334,139.77948128333335,72.0,116.0
156,140.01589363333335,140.473772725,77.0,114.0
157,140.66806563333333,140.91534751666669,77.0,114.0
158,140.99415163333333,141.36779184166667,79.0,102.0
159,141.32023763333333,141.6191498,81.0,116.0
160,142.62458163333335,143.14903661666668,84.0,116.0
161,143.27675363333333,143.8365346,89.0,117.0
162,143.92892563333334,144.51452174166667,86.0,116.0
163,144.58109763333334,144.82566213333334,84.0,114.0
164,144.90718363333335,145.15174813333334,81.0,114.0
165,145.23326963333335,145.66940965833334,79.0,114.0
166,147.84195763333335,148.19657615833333,81.0,114.0
167,148.33108663333334,148.40989075000002,81.0,102.0
168,148.49412963333333,148.7414115166667,81.0,113.0
169,148.82021563333333,149.11776910833333,72.0,116.0
170,149.14630163333334,149.38271398333333,74.0,116.0
171,149.47238763333334,149.67890876666667,77.0,114.0
172,149.79847363333334,150.1136901,79.0,108.0
173,150.12455963333335,150.346026375,77.0,96.0
174,150.45064563333335,150.98597015,77.0,113.0
175,152.40716163333335,152.70063903333335,74.0,113.0
176,152.73324763333335,152.971018675,77.0,113.0
177,153.05933363333335,153.3908544,79.0,116.0
178,153.54846263333334,153.63949497500002,79.0,107.0
179,153.71150563333333,153.85552695,81.0,107.0
180,154.03759163333334,154.22916715833335,84.0,113.0
181,154.36367763333334,154.61231820833333,81.0,114.0
182,154.68976363333334,154.88133915833333,79.0,98.0
183,155.01584963333335,155.34193563333335,79.0,100.0
184,155.34193563333335,155.64084780000002,76.0,98.0
185,155.66802163333335,156.09057474166667,74.0,98.0
186,158.27670963333335,158.84328405833335,77.0,116.0
187,159.25496763333334,159.57969494166667,74.0,117.0
188,159.58105363333334,159.89083533333334,72.0,116.0
189,160.23322563333335,160.691104725,84.0,113.0
190,160.88539763333333,161.32968980833334,86.0,110.0
191,161.53756963333333,161.79300366666666,86.0,113.0
192,161.86365563333334,162.1625678,89.0,114.0
193,162.18974163333334,162.54707754166668,86.0,117.0
194,162.84191363333335,163.00495663333334,81.0,117.0
195,163.16799963333335,163.44924880833335,81.0,114.0
196,163.49408563333333,163.83647593333333,79.0,113.0
197,164.47234363333334,164.79842963333334,81.0,113.0
198,164.79842963333334,165.13538516666668,79.0,110.0
199,165.12451563333335,165.41663434166668,81.0,104.0
200,165.45060163333335,165.82016576666666,72.0,116.0
201,165.77668763333335,166.0919041,74.0,102.0
202,166.10277363333333,166.723695725,77.0,114.0
203,168.71146163333333,169.37586185833334,89.0,116.0
204,169.68971963333334,169.9397189,89.0,117.0
205,170.01580563333334,170.43700005,88.0,117.0
206,170.66797763333335,170.95737895833335,86.0,119.0
207,170.99406363333335,171.25629112500002,84.0,114.0
208,171.32014963333333,171.83237639166668,86.0,117.0
209,172.29840763333334,172.6299284,84.0,119.0
210,172.62449363333334,173.12041609166667,81.0,119.0
211,173.92883763333333,174.21280419166666,84.0,117.0
212,174.25492363333333,174.66253113333335,86.0,116.0
213,174.90709563333334,175.09459508333333,84.0,119.0
214,175.23318163333334,175.528017725,84.0,120.0
215,175.88535363333335,176.19649402500002,81.0,113.0
216,176.21143963333333,176.41524338333335,79.0,114.0
217,176.53752563333333,177.0497523916667,79.0,117.0
218,179.14621363333333,179.432897575,81.0,117.0
219,179.47229963333334,179.84593984166668,84.0,116.0
220,180.45055763333335,180.74675241666668,81.0,114.0
221,180.77664363333335,181.1013709416667,79.0,104.0
222,181.10272963333335,181.48044591666667,77.0,114.0
223,181.75490163333333,182.017129125,77.0,116.0
224,182.08098763333334,182.51305158333335,79.0,114.0
225,182.73315963333334,183.05381086666668,77.0,116.0
226,183.05924563333335,183.36359256666668,74.0,116.0
227,184.36358963333333,184.93016405833333,76.0,117.0
228,185.34184763333334,185.563314375,79.0,113.0
229,185.66793363333335,185.96412841666668,74.0,114.0
230,185.99401963333335,186.25760581666668,76.0,94.0
231,186.32010563333336,186.6190178,74.0,113.0
232,186.64619163333333,186.81602809166668,72.0,104.0
233,186.97227763333333,187.43151541666668,84.0,117.0
234,189.58096563333334,189.82553013333333,86.0,116.0
235,189.90705163333334,190.15161613333333,89.0,116.0
236,190.55922363333335,190.8092229,89.0,117.0
237,190.88530963333335,191.30650405,88.0,117.0
238,191.53748163333333,191.82688295833333,86.0,119.0
239,191.86356763333333,192.125795125,84.0,114.0
240,192.18965363333334,192.43421813333333,86.0,117.0
241,192.51573963333334,192.76030413333334,86.0,117.0
242,193.16791163333335,193.49943240000002,84.0,119.0
243,193.49399763333335,193.98992009166668,81.0,119.0
244,194.79834163333334,195.044264825,84.0,116.0
245,195.12442763333334,195.50078522500002,84.0,117.0
246,195.77659963333335,196.08909871666668,81.0,116.0
247,196.10268563333335,196.3200763,84.0,110.0
248,196.42877163333335,196.65703183333335,86.0,113.0
249,196.75485763333333,197.00349820833335,88.0,117.0
250,197.08094363333333,197.2874647666667,89.0,108.0
251,197.24398663333335,197.35811673333333,88.0,104.0
252,197.40702963333334,197.7874633,86.0,116.0
253,200.01571763333334,200.302401575,81.0,117.0
254,200.34180363333334,200.71544384166668,84.0,116.0
255,200.99397563333335,201.26979004166668,81.0,114.0
256,201.32006163333335,201.61353903333335,79.0,113.0
257,201.64614763333336,201.91516858333335,81.0,113.0
258,201.97223363333333,202.28473271666667,84.0,117.0
259,202.62440563333334,202.98581761666668,81.0,117.0
260,203.11353463333333,203.277936325,79.0,94.0
261,203.27657763333335,203.54967465833334,77.0,102.0
262,203.60266363333335,203.83771729166668,79.0,107.0
263,203.92874963333335,204.25483563333333,79.0,110.0
264,204.25483563333333,204.565976025,76.0,110.0
265,205.23309363333334,205.51706019166667,74.0,116.0
266,205.72222263333333,206.04423255833333,74.0,114.0
267,206.21135163333335,206.4450466,77.0,108.0
268,206.53743763333335,206.889338775,72.0,116.0
269,207.18960963333333,207.51841301666667,72.0,108.0
270,207.51569563333334,207.82411864166667,74.0,98.0
271,207.84178163333334,208.49123625000001,77.0,107.0
272,210.45046963333334,210.64068646666666,74.0,116.0
273,210.77655563333334,211.14340238333335,74.0,110.0
274,211.42872763333335,211.69503120000002,77.0,110.0
275,211.75481363333336,212.114866925,72.0,113.0
276,212.40698563333333,212.709973875,72.0,113.0
277,212.73307163333334,212.99801650833334,74.0,113.0
278,213.05915763333334,213.64339505,77.0,116.0
