,start,end,pitch,velocity
0,17.94695175,18.40149675,67.0,116.0
1,18.40149675,18.85604175,69.0,114.0
2,18.85604175,19.3086928125,72.0,117.0
3,19.31058675,19.7632378125,72.0,116.0
4,19.76513175,20.21967675,72.0,117.0
5,20.21967675,20.67422175,74.0,114.0
6,20.67422175,22.0359628125,76.0,117.0
7,22.03785675,22.26512925,76.0,108.0
8,22.26512925,22.49240175,79.0,104.0
9,22.49240175,22.9450528125,81.0,116.0
10,22.94694675,23.40149175,81.0,114.0
11,23.40149175,23.85603675,84.0,110.0
12,23.85603675,24.31058175,81.0,104.0
13,24.31058175,24.76512675,79.0,114.0
14,24.76512675,25.6723228125,76.0,116.0
15,25.67421675,26.12876175,76.0,108.0
16,26.12876175,27.0359578125,74.0,113.0
17,27.03785175,27.2935333125,74.0,110.0
18,27.26512425,27.503760375,72.0,96.0
19,27.49239675,27.71966925,69.0,110.0
20,27.71966925,28.17421425,67.0,107.0
21,28.17421425,29.31057675,69.0,110.0
22,29.31057675,29.76512175,67.0,110.0
23,29.76512175,30.2177728125,72.0,114.0
24,30.219666750000002,30.6723178125,72.0,110.0
25,30.67421175,31.1268628125,72.0,107.0
26,31.12875675,31.58330175,72.0,108.0
27,31.58330175,32.94693675,74.0,113.0
28,32.94693675,33.1969365,67.0,107.0
29,33.17420925,33.40148175,69.0,102.0
30,33.40148175,33.8541328125,72.0,116.0
31,33.85602675,34.3086778125,72.0,110.0
32,34.31057175,34.76511675,72.0,110.0
33,34.76511675,35.21966175,74.0,110.0
34,35.21966175,36.5814028125,76.0,114.0
35,36.58329675,36.81056925,76.0,110.0
36,36.81056925,37.03784175,79.0,108.0
37,37.03784175,37.4904928125,81.0,116.0
38,37.49238675,37.94693175,81.0,114.0
39,37.94693175,38.40147675,83.0,108.0
40,38.40147675,38.856021750000004,81.0,114.0
41,38.856021750000004,39.31056675,79.0,117.0
42,39.31056675,40.2177628125,76.0,116.0
43,40.21965675,40.67420175,76.0,113.0
44,40.67420175,41.5813978125,74.0,114.0
45,41.58329175,41.8332915,74.0,114.0
46,41.81056425,42.03783675,72.0,108.0
47,42.03783675,42.291624375,69.0,110.0
48,42.26510925,42.71965425,67.0,107.0
49,42.71965425,43.85601675,69.0,110.0
50,43.85601675,44.31056175,72.0,108.0
51,44.31056175,45.21965175,71.0,114.0
52,45.21965175,45.67419675,69.0,114.0
53,45.67419675,46.12874175,67.0,108.0
54,46.12874175,47.03783175,69.0,114.0
55,47.03783175,47.49237675,72.0,116.0
56,47.49237675,47.94692175,74.0,117.0
57,47.94692175,48.40146675,76.0,117.0
58,48.40146675,48.85601175,79.0,113.0
59,48.85601175,49.08328425,76.0,113.0
60,49.08328425,49.3162385625,74.0,100.0
61,49.31055675,49.53782925,72.0,107.0
62,49.53782925,49.76510175,74.0,104.0
63,49.76510175,50.21964675,76.0,116.0
64,50.21964675,50.67419175,81.0,110.0
65,50.67419175,50.901464250000004,76.0,113.0
66,50.901464250000004,51.12873675,74.0,93.0
67,51.12873675,51.35600925,72.0,93.0
68,51.35600925,51.58328175,74.0,107.0
69,51.58328175,52.03782675,76.0,114.0
70,52.03782675,52.4904778125,83.0,113.0
71,52.49237175,52.94691675,83.0,113.0
72,52.94691675,53.40146175,79.0,116.0
73,53.40146175,54.3086578125,81.0,117.0
74,54.31055175,54.76509675,81.0,114.0
75,54.76509675,55.21964175,79.0,116.0
76,55.21964175,55.67418675,81.0,116.0
77,55.67418675,56.12873175,79.0,117.0
78,56.12873175,56.359792125,81.0,113.0
79,56.35600425,56.58327675,79.0,104.0
80,56.58327675,56.81054925,76.0,110.0
81,56.81054925,57.03782175,74.0,108.0
82,57.03782175,57.49236675,76.0,113.0
83,57.49236675,57.94691175,79.0,107.0
84,57.94691175,58.3995628125,76.0,110.0
85,58.40145675,58.85600175,76.0,108.0
86,58.85600175,59.76509175,74.0,110.0
87,59.76509175,60.21963675,72.0,110.0
88,60.21963675,60.67418175,74.0,113.0
89,60.67418175,61.58327175,76.0,114.0
90,61.58327175,62.03781675,72.0,110.0
91,62.03781675,62.49236175,74.0,110.0
92,62.49236175,62.946906750000004,76.0,116.0
93,62.946906750000004,63.40145175,79.0,114.0
94,63.40145175,63.62872425,76.0,114.0
95,63.62872425,63.85599675,74.0,102.0
96,63.85599675,64.08326925,72.0,108.0
97,64.08326925,64.31054175,74.0,104.0
98,64.31054175,64.76508675,76.0,114.0
99,64.76508675,65.21963175,81.0,116.0
100,65.21963175,65.44690425,76.0,113.0
101,65.44690425,65.67417675,74.0,87.0
102,65.67417675,65.90144925,72.0,107.0
103,65.90144925,66.12872175,74.0,96.0
104,66.12872175,66.58326675,76.0,107.0
105,66.58326675,67.0359178125,83.0,114.0
106,67.03781175,67.49235675,83.0,110.0
107,67.49235675,67.94690175,79.0,116.0
108,67.94690175,68.8540978125,81.0,119.0
109,68.85599175,69.31053675,81.0,116.0
110,69.31053675,69.76508175,79.0,117.0
111,69.76508175,71.12871675,81.0,119.0
112,71.12871675,71.58326175,79.0,116.0
113,71.58326175,72.03780675,81.0,116.0
114,72.03780675,72.94689675,84.0,114.0
115,72.94689675,73.40144175,81.0,110.0
116,73.40144175,74.08325925,76.0,117.0
117,74.08325925,76.58325675,79.0,117.0
118,76.58325675,76.8351504375,67.0,104.0
119,76.81052925,77.03780175,69.0,107.0
120,77.03780175,77.4904528125,72.0,113.0
121,77.49234675,77.9449978125,72.0,107.0
122,77.94689175,78.40143675,72.0,110.0
123,78.40143675,78.85598175,74.0,113.0
124,78.85598175,80.2177228125,76.0,114.0
125,80.21961675,80.44688925,76.0,114.0
126,80.44688925,80.67416175,79.0,102.0
127,80.67416175,81.1268128125,81.0,114.0
128,81.12870675,81.58325175,81.0,116.0
129,81.58325175,82.03779675,83.0,114.0
130,82.03779675,82.49234175,81.0,114.0
131,82.49234175,82.94688675,79.0,117.0
132,82.94688675,83.8540828125,76.0,116.0
133,83.85597675,84.31052175,76.0,116.0
134,84.31052175,85.2177178125,74.0,116.0
135,85.21961175,85.515066,74.0,114.0
136,85.44688425,85.67415675,72.0,108.0
137,85.67415675,85.90142925,69.0,114.0
138,85.90142925,86.35597425,67.0,108.0
139,86.35597425,87.49233675,69.0,116.0
140,87.49233675,87.94688175,72.0,116.0
141,87.94688175,88.85597175,71.0,116.0
142,88.85597175,89.31051675,69.0,114.0
143,89.31051675,89.76506175,67.0,108.0
144,89.76506175,90.3805914375,69.0,116.0
145,119.76503175,120.21957675,67.0,116.0
146,120.21957675,120.67412175,69.0,114.0
147,120.67412175,121.1267728125,72.0,117.0
148,121.12866675,121.5813178125,72.0,116.0
149,121.58321175,122.03775675,72.0,117.0
150,122.03775675,122.49230175,74.0,114.0
151,122.49230175,123.8540428125,76.0,117.0
152,123.85593675,124.08320925,76.0,108.0
153,124.08320925,124.31048175,79.0,104.0
154,124.31048175,124.7631328125,81.0,116.0
155,124.76502675,125.21957175,81.0,114.0
156,125.21957175,125.67411675,84.0,110.0
157,125.67411675,126.12866175,81.0,104.0
158,126.12866175,126.58320675,79.0,114.0
159,126.58320675,127.4904028125,76.0,116.0
160,127.49229675,127.94684175,76.0,108.0
161,127.94684175,128.8540378125,74.0,113.0
162,128.85593175,129.1116133125,74.0,110.0
163,129.08320425,129.321840375,72.0,96.0
164,129.31047675,129.53774925,69.0,110.0
165,129.53774925,129.99229425,67.0,107.0
166,129.99229425,131.12865675,69.0,110.0
167,131.12865675,131.58320175,67.0,110.0
168,131.58320175,132.0358528125,72.0,114.0
169,132.03774675,132.4903978125,72.0,110.0
170,132.49229175,132.9449428125,72.0,107.0
171,132.94683675,133.40138175,72.0,108.0
172,133.40138175,134.76501675,74.0,113.0
173,134.76501675,135.0150165,67.0,107.0
174,134.99228925,135.21956175,69.0,102.0
175,135.21956175,135.6722128125,72.0,116.0
176,135.67410675,136.1267578125,72.0,110.0
177,136.12865175,136.58319675,72.0,110.0
178,136.58319675,137.03774175,74.0,110.0
179,137.03774175,138.3994828125,76.0,114.0
180,138.40137675,138.62864925,76.0,110.0
181,138.62864925,138.85592175,79.0,108.0
182,138.85592175,139.3085728125,81.0,116.0
183,139.31046675,139.76501175,81.0,114.0
184,139.76501175,140.21955675,83.0,108.0
185,140.21955675,140.67410175,81.0,114.0
186,140.67410175,141.12864675,79.0,117.0
187,141.12864675,142.0358428125,76.0,116.0
188,142.03773675,142.49228175,76.0,113.0
189,142.49228175,143.3994778125,74.0,114.0
190,143.40137175,143.6513715,74.0,114.0
191,143.62864425,143.85591675,72.0,108.0
192,143.85591675,144.109704375,69.0,110.0
193,144.08318925,144.53773425,67.0,107.0
194,144.53773425,145.67409675,69.0,110.0
195,145.67409675,146.12864175,72.0,108.0
196,146.12864175,147.03773175,71.0,114.0
197,147.03773175,147.49227675,69.0,114.0
198,147.49227675,147.94682175,67.0,108.0
199,147.94682175,148.85591175,69.0,114.0
200,148.85591175,149.31045675000001,72.0,116.0
201,149.31045675000001,149.76500175,74.0,117.0
202,149.76500175,150.21954675,76.0,117.0
203,150.21954675,150.67409175,79.0,113.0
204,150.67409175,150.90136425,76.0,113.0
205,150.90136425,151.1343185625,74.0,100.0
206,151.12863675,151.35590925,72.0,107.0
207,151.35590925,151.58318175,74.0,104.0
208,151.58318175,152.03772675,76.0,116.0
209,152.03772675,152.49227175,81.0,110.0
210,152.49227175,152.71954425,76.0,113.0
211,152.71954425,152.94681675,74.0,93.0
212,152.94681675,153.17408925,72.0,93.0
213,153.17408925,153.40136175,74.0,107.0
214,153.40136175,153.85590675,76.0,114.0
215,153.85590675,154.3085578125,83.0,113.0
216,154.31045175,154.76499675,83.0,113.0
217,154.76499675,155.21954175,79.0,116.0
218,155.21954175,156.1267378125,81.0,117.0
219,156.12863175,156.58317675,81.0,114.0
220,156.58317675,157.03772175,79.0,116.0
221,157.03772175,157.49226675,81.0,116.0
222,157.49226675,157.94681175,79.0,117.0
223,157.94681175,158.177872125,81.0,113.0
224,158.17408425,158.40135675,79.0,104.0
225,158.40135675,158.62862925,76.0,110.0
226,158.62862925,158.85590175,74.0,108.0
227,158.85590175,159.31044675,76.0,113.0
228,159.31044675,159.76499175,79.0,107.0
229,159.76499175,160.2176428125,76.0,110.0
230,160.21953675,160.67408175,76.0,108.0
231,160.67408175,161.58317175,74.0,110.0
232,161.58317175,162.03771675,72.0,110.0
233,162.03771675,162.49226175,74.0,113.0
234,162.49226175,163.40135175,76.0,114.0
235,163.40135175,163.85589675,72.0,110.0
236,163.85589675,164.31044175,74.0,110.0
237,164.31044175,164.76498675,76.0,116.0
238,164.76498675,165.21953175,79.0,114.0
239,165.21953175,165.44680425,76.0,114.0
240,165.44680425,165.67407675,74.0,102.0
241,165.67407675,165.90134925,72.0,108.0
242,165.90134925,166.12862175,74.0,104.0
243,166.12862175,166.58316675,76.0,114.0
244,166.58316675,167.03771175,81.0,116.0
245,167.03771175,167.26498425,76.0,113.0
246,167.26498425,167.49225675,74.0,87.0
247,167.49225675,167.71952925,72.0,107.0
248,167.71952925,167.94680175,74.0,96.0
249,167.94680175,168.40134675,76.0,107.0
250,168.40134675,168.8539978125,83.0,114.0
251,168.85589175,169.31043675,83.0,110.0
252,169.31043675,169.76498175,79.0,116.0
253,169.76498175,170.6721778125,81.0,119.0
254,170.67407175,171.12861675,81.0,116.0
255,171.12861675,171.58316175,79.0,117.0
256,171.58316175,172.94679675,81.0,119.0
257,172.94679675,173.40134175,79.0,116.0
258,173.40134175,173.85588675,81.0,116.0
259,173.85588675,174.76497675,84.0,114.0
260,174.76497675,175.21952175,81.0,110.0
261,175.21952175,175.90133925,76.0,117.0
262,175.90133925,178.40133675,79.0,117.0
263,178.40133675,178.6532304375,67.0,104.0
264,178.62860925,178.85588175,69.0,107.0
265,178.85588175,179.3085328125,72.0,113.0
266,179.31042675,179.7630778125,72.0,107.0
267,179.76497175,180.21951675,72.0,110.0
268,180.21951675,180.67406175,74.0,113.0
269,180.67406175,182.0358028125,76.0,114.0
270,182.03769675,182.26496925,76.0,114.0
271,182.26496925,182.49224175,79.0,102.0
272,182.49224175,182.9448928125,81.0,114.0
273,182.94678675,183.40133175,81.0,116.0
274,183.40133175,183.85587675,83.0,114.0
275,183.85587675,184.31042175,81.0,114.0
276,184.31042175,184.76496675,79.0,117.0
277,184.76496675,185.6721628125,76.0,116.0
278,185.67405675,186.12860175,76.0,116.0
279,186.12860175,187.0357978125,74.0,116.0
280,187.03769175,187.333146,74.0,114.0
281,187.26496425,187.49223675,72.0,108.0
282,187.49223675,187.71950925,69.0,114.0
283,187.71950925,188.17405425,67.0,108.0
284,188.17405425,189.31041675,69.0,116.0
285,189.31041675,189.76496175,72.0,116.0
286,189.76496175,190.67405175,71.0,116.0
287,190.67405175,191.12859675,69.0,114.0
288,191.12859675,191.58314175,67.0,108.0
289,191.58314175,192.1986714375,69.0,116.0
290,192.49223175,192.94677675,72.0,116.0
291,192.94677675,193.40132175,74.0,117.0
292,193.40132175,193.85586675,76.0,117.0
293,193.85586675,194.31041175000001,79.0,113.0
294,194.31041175000001,194.53768425,76.0,113.0
295,194.53768425,194.7706385625,74.0,100.0
296,194.76495675,194.99222925,72.0,107.0
297,194.99222925,195.21950175,74.0,104.0
298,195.21950175,195.67404675,76.0,116.0
299,195.67404675,196.12859175,81.0,110.0
300,196.12859175,196.35586425,76.0,113.0
301,196.35586425,196.58313675,74.0,93.0
302,196.58313675,196.81040925,72.0,93.0
303,196.81040925,197.03768175,74.0,107.0
304,197.03768175,197.49222675000001,76.0,114.0
305,197.49222675000001,197.9448778125,83.0,113.0
306,197.94677175,198.40131675,83.0,113.0
307,198.40131675,198.85586175,79.0,116.0
308,198.85586175,199.7630578125,81.0,117.0
309,199.76495175,200.21949675,81.0,114.0
310,200.21949675,200.67404175,79.0,116.0
311,200.67404175,201.12858675,81.0,116.0
312,201.12858675,201.58313175,79.0,117.0
313,201.58313175,201.814192125,81.0,113.0
314,201.81040425,202.03767675,79.0,104.0
315,202.03767675,202.26494925,76.0,110.0
316,202.26494925,202.49222175,74.0,108.0
317,202.49222175,202.94676675,76.0,113.0
318,202.94676675,203.40131175,79.0,107.0
319,203.40131175,203.8539628125,76.0,110.0
320,203.85585675,204.31040175,76.0,108.0
321,204.31040175,205.21949175,74.0,110.0
322,205.21949175,205.67403675,72.0,110.0
323,205.67403675,206.12858175,74.0,113.0
324,206.12858175,207.03767175,76.0,114.0
325,207.03767175,207.49221675,72.0,110.0
326,207.49221675,207.94676175,74.0,110.0
327,207.94676175,208.40130675,76.0,116.0
328,208.40130675,208.85585175,79.0,114.0
329,208.85585175,209.08312425,76.0,114.0
330,209.08312425,209.31039675,74.0,102.0
331,209.31039675,209.53766925,72.0,108.0
332,209.53766925,209.76494175,74.0,104.0
333,209.76494175,210.21948675,76.0,114.0
334,210.21948675,210.67403175,81.0,116.0
335,210.67403175,210.90130425,76.0,113.0
336,210.90130425,211.12857675,74.0,87.0
337,211.12857675,211.35584925,72.0,107.0
338,211.35584925,211.58312175,74.0,96.0
339,211.58312175,212.03766675,76.0,107.0
340,212.03766675,212.4903178125,83.0,114.0
341,212.49221175,212.94675675,83.0,110.0
342,212.94675675,213.40130175,79.0,116.0
343,213.40130175,214.3084978125,81.0,119.0
344,214.31039175,214.76493675,81.0,116.0
345,214.76493675,215.21948175,79.0,117.0
346,215.21948175,216.58311675,81.0,119.0
347,216.58311675,217.0357678125,84.0,116.0
348,217.03766175,217.4903128125,84.0,116.0
349,217.49220675,218.40129675,84.0,114.0
350,218.40129675,218.85584175,81.0,110.0
351,218.85584175,219.53765925,76.0,117.0
352,219.53765925,222.03765675,79.0,117.0
353,222.03765675,222.2895504375,67.0,104.0
354,222.26492925,222.49220175,69.0,107.0
355,222.49220175,222.9448528125,72.0,113.0
356,222.94674675,223.3993978125,72.0,107.0
357,223.40129175,223.85583675,72.0,110.0
358,223.85583675,224.31038175,74.0,113.0
359,224.31038175,225.6721228125,76.0,114.0
360,225.67401675,225.90128925,76.0,114.0
361,225.90128925,226.12856175,79.0,102.0
362,226.12856175,226.5812128125,81.0,114.0
363,226.58310675,227.03765175,81.0,116.0
364,227.03765175,227.49219675,83.0,114.0
365,227.49219675,227.94674175,81.0,114.0
366,227.94674175,228.40128675,79.0,117.0
367,228.40128675,229.3084828125,76.0,116.0
368,229.31037675,229.76492175,76.0,116.0
369,229.76492175,230.6721178125,74.0,116.0
370,230.67401175,230.969466,74.0,114.0
371,230.90128425,231.12855675,72.0,108.0
372,231.12855675,231.35582925,69.0,114.0
373,231.35582925,231.81037425,67.0,108.0
374,231.81037425,232.94673675,69.0,116.0
375,232.94673675,233.40128175,72.0,116.0
376,233.40128175,234.31037175,71.0,116.0
377,234.31037175,234.76491675,69.0,114.0
378,234.76491675,235.21946175,67.0,108.0
379,235.21946175,235.8349914375,69.0,116.0
