,start,end,pitch,velocity
0,12.03786675,12.518926875,55.0,74.0
1,12.49241175,12.996199125,60.0,87.0
2,13.40150175,13.9640011875,67.0,87.0
3,12.94695675,14.2405160625,55.0,73.0
4,11.58332175,14.8200609375,48.0,87.0
5,13.85604675,14.8333185,60.0,72.0
6,14.76513675,15.253772625,55.0,76.0
7,14.31059175,15.323848312500001,64.0,81.0
8,16.58331675,17.06816475,64.0,79.0
9,16.12877175,17.1685434375,60.0,78.0
10,17.03786175,17.58331575,67.0,84.0
11,15.67422675,18.064375875,55.0,74.0
12,17.49240675,18.382557375,60.0,73.0
13,15.21968175,18.3958149375,48.0,78.0
14,17.94695175,18.4980875625,64.0,88.0
15,18.40149675,18.9450568125,67.0,81.0
16,19.31058675,19.761343875,55.0,68.0
17,19.76513175,20.185585875,60.0,77.0
18,18.85604175,20.28028275,48.0,87.0
19,20.21967675,20.534070375,55.0,46.0
20,19.76513175,20.6211915,67.0,87.0
21,19.76513175,20.6514945,64.0,87.0
22,20.67422175,21.17422125,71.0,87.0
23,20.67422175,21.2121,64.0,86.0
24,21.12876675,21.8844478125,59.0,64.0
25,20.67422175,21.9980840625,52.0,84.0
26,21.58331175,22.0738415625,71.0,93.0
27,21.58331175,22.1533869375,64.0,96.0
28,22.03785675,22.4299018125,67.0,87.0
29,22.49240175,23.056795125,60.0,83.0
30,22.49240175,23.0586890625,69.0,88.0
31,22.49240175,23.1155071875,64.0,89.0
32,23.40149175,23.920430625,57.0,76.0
33,23.40149175,23.9299003125,69.0,85.0
34,23.40149175,23.943157875,64.0,84.0
35,22.94694675,23.950733625,52.0,72.0
36,22.49240175,23.9753548125,45.0,82.0
37,23.40149175,23.981036625,60.0,84.0
38,24.31058175,24.7594449375,64.0,79.0
39,24.31058175,24.761338875,67.0,84.0
40,24.31058175,24.768914625,59.0,84.0
41,24.76512675,25.3484595,52.0,73.0
42,25.21967175,25.6874743125,64.0,90.0
43,25.21967175,25.68936825,59.0,88.0
44,25.21967175,25.71967125,67.0,93.0
45,24.31058175,25.723459125,40.0,85.0
46,25.67421675,25.7480803125,52.0,79.0
47,26.12876175,26.4223220625,60.0,84.0
48,26.12876175,26.7291399375,65.0,86.0
49,26.12876175,26.87118525,62.0,89.0
50,26.58330675,27.1306546875,50.0,80.0
51,26.12876175,27.4677755625,38.0,86.0
52,27.03785175,27.52269975,57.0,85.0
53,27.03785175,27.5700481875,65.0,87.0
54,27.49239675,27.7708055625,50.0,83.0
55,27.03785175,27.78027525,62.0,87.0
56,27.94694175,28.53785025,67.0,83.0
57,27.94694175,28.59845625,64.0,84.0
58,27.94694175,28.6211835,60.0,79.0
59,28.85603175,29.3806524375,67.0,87.0
60,28.85603175,29.46209175,64.0,91.0
61,27.94694175,29.58330375,48.0,84.0
62,28.85603175,29.6798945625,60.0,85.0
63,29.76512175,30.337090875,65.0,86.0
64,29.76512175,30.3958029375,57.0,83.0
65,29.76512175,30.49239375,60.0,86.0
66,30.67421175,31.1420143125,57.0,84.0
67,30.67421175,31.1647415625,65.0,88.0
68,29.76512175,31.185574875,41.0,82.0
69,29.76512175,31.253756625,53.0,76.0
70,30.67421175,31.359817125,60.0,85.0
71,31.35602925,32.1420133125,62.0,76.0
72,31.35602925,32.1950435625,59.0,78.0
73,31.58330175,32.2404980625,67.0,85.0
74,32.49239175,32.806785375,59.0,93.0
75,31.58330175,33.0245881875,43.0,83.0
76,32.03784675,33.049209375,50.0,67.0
77,32.26511925,33.367390875,55.0,84.0
78,32.71966425,33.3692848125,62.0,93.0
79,33.40148175,33.640117875,60.0,87.0
80,33.40148175,33.791632875,64.0,89.0
81,32.94693675,33.8636025,67.0,87.0
82,33.40148175,34.4261019375,48.0,85.0
83,34.31057175,34.609813875,60.0,81.0
84,33.85602675,34.632541125,55.0,70.0
85,34.31057175,34.973449875,62.0,89.0
86,34.31057175,35.1798890625,67.0,89.0
87,35.21966175,35.4696615,64.0,90.0
88,35.21966175,35.677994625,71.0,91.0
89,36.12875175,36.52269075,74.0,102.0
90,35.67420675,36.5435240625,59.0,72.0
91,35.21966175,36.6003421875,52.0,82.0
92,36.12875175,36.6457966875,67.0,96.0
93,36.58329675,37.0359478125,71.0,89.0
94,37.03784175,37.2821596875,72.0,91.0
95,37.03784175,37.9185226875,64.0,87.0
96,37.94693175,38.3276131875,57.0,81.0
97,37.49238675,38.38632525,52.0,67.0
98,37.94693175,38.3995828125,69.0,88.0
99,37.03784175,38.4223100625,45.0,79.0
100,37.94693175,38.5321584375,60.0,86.0
101,38.856021750000004,38.93177925,64.0,85.0
102,38.856021750000004,39.3389758125,67.0,88.0
103,38.856021750000004,39.484809,59.0,86.0
104,39.31056675,39.87117225,52.0,75.0
105,38.856021750000004,40.2272325,40.0,82.0
106,39.76511175,40.28026275,67.0,96.0
107,39.76511175,40.321929375,59.0,94.0
108,40.21965675,40.333293,52.0,82.0
109,40.67420175,41.05298925,57.0,85.0
110,40.67420175,41.0889740625,65.0,87.0
111,40.67420175,41.1836709375,60.0,86.0
112,41.12874675,41.7215491875,50.0,77.0
113,41.58329175,41.965867125,57.0,90.0
114,40.67420175,42.0018519375,38.0,84.0
115,41.58329175,42.0851851875,65.0,89.0
116,42.03783675,42.208291125,50.0,79.0
117,41.58329175,42.306775875,60.0,90.0
118,42.49238175,42.935563125,67.0,84.0
119,42.49238175,43.056775125,60.0,81.0
120,42.94692675,43.7783653125,55.0,68.0
121,42.49238175,43.79541075,48.0,86.0
122,43.40147175,44.0851831875,60.0,87.0
123,43.40147175,44.1079104375,67.0,88.0
124,44.31056175,44.897682375,67.0,86.0
125,44.31056175,44.958288375,62.0,86.0
126,44.31056175,44.9848035,59.0,81.0
127,44.31056175,45.7423785,43.0,76.0
128,44.76510675,45.746166375,50.0,65.0
129,45.21965175,45.7973026875,59.0,86.0
130,45.21965175,45.8124541875,67.0,87.0
131,45.21965175,45.9601813125,55.0,76.0
132,45.21965175,46.06056,62.0,88.0
133,47.03783175,47.3200284375,59.0,88.0
134,47.26510425,47.443134375,60.0,91.0
135,46.81055925,47.821921875,57.0,88.0
136,46.58328675,47.8730581875,52.0,65.0
137,47.49237675,47.8882096875,64.0,110.0
138,46.12874175,47.9223005625,45.0,88.0
139,47.94692175,48.3124516875,60.0,87.0
140,47.94692175,48.3692698125,67.0,88.0
141,47.94692175,48.4033606875,64.0,88.0
142,47.94692175,48.9847995,48.0,87.0
143,48.62873925,49.102223625,55.0,78.0
144,48.85601175,49.4185111875,67.0,100.0
145,48.85601175,49.4298748125,60.0,89.0
146,49.31055675,49.4677535625,48.0,84.0
147,48.85601175,49.4904808125,64.0,104.0
148,49.76510175,50.2821466875,69.0,91.0
149,49.76510175,50.291616375,60.0,89.0
150,49.76510175,50.32570725,64.0,96.0
151,50.21964675,50.727222,57.0,74.0
152,51.12873675,51.2632063125,57.0,86.0
153,50.67419175,51.284039625,60.0,88.0
154,50.67419175,51.299191125,69.0,94.0
155,49.76510175,51.3200244375,45.0,86.0
156,50.67419175,51.3351759375,64.0,100.0
157,51.58328175,52.011311625,59.0,87.0
158,51.58328175,52.0359328125,64.0,102.0
159,51.58328175,52.0359328125,67.0,91.0
160,52.03782675,52.5738110625,52.0,80.0
161,51.58328175,52.882522875,40.0,87.0
162,52.49237175,52.9942651875,59.0,107.0
163,52.49237175,52.9942651875,67.0,104.0
164,52.49237175,53.049189375,64.0,110.0
165,52.94691675,53.35600725,52.0,87.0
166,53.40146175,53.848431,69.0,102.0
167,53.40146175,54.056764125,64.0,107.0
168,53.40146175,54.0813853125,60.0,91.0
169,54.31055175,54.715854375,69.0,110.0
170,54.31055175,54.7556270625,64.0,113.0
171,53.85600675,54.8275966875,52.0,80.0
172,54.76509675,54.84843,57.0,86.0
173,53.40146175,54.8541118125,45.0,86.0
174,54.31055175,55.0965358125,60.0,102.0
175,55.21964175,55.7859290625,65.0,98.0
176,55.21964175,55.8029745,57.0,92.0
177,55.21964175,55.806762375,60.0,94.0
178,55.67418675,56.2253225625,53.0,81.0
179,56.12873175,56.5889585625,57.0,102.0
180,55.21964175,56.5965343125,41.0,87.0
181,56.12873175,56.602216125,65.0,92.0
182,56.12873175,56.8654734375,60.0,98.0
183,56.58327675,57.03782175,53.0,84.0
184,57.03782175,57.473427375,64.0,98.0
185,57.03782175,57.5056243125,67.0,100.0
186,57.03782175,57.55297275,60.0,89.0
187,57.49236675,58.0094116875,55.0,76.0
188,57.94691175,58.43175975,64.0,108.0
189,58.40145675,58.49236575,55.0,86.0
190,57.03782175,58.5169869375,48.0,87.0
191,57.94691175,58.526456625,67.0,98.0
192,57.94691175,58.594638375,60.0,96.0
193,58.85600175,59.465849625,65.0,93.0
194,58.85600175,59.481001125,62.0,98.0
195,58.85600175,59.496152625,57.0,90.0
196,59.76509175,60.2366821875,57.0,91.0
197,59.76509175,60.37115175,65.0,94.0
198,59.76509175,60.3957729375,62.0,100.0
199,58.85600175,60.473424375,50.0,85.0
200,60.67418175,61.14387825,59.0,89.0
201,60.67418175,61.238575125,67.0,100.0
202,60.67418175,61.2707720625,62.0,102.0
203,60.67418175,61.9866804375,43.0,81.0
204,61.58327175,62.0889530625,59.0,98.0
205,61.58327175,62.2025893125,67.0,102.0
206,61.58327175,62.272665,62.0,113.0
207,62.03781675,62.5207708125,55.0,87.0
208,62.49236175,62.93175525,60.0,91.0
209,62.49236175,62.9866794375,64.0,104.0
210,62.49236175,62.9942551875,67.0,94.0
211,62.946906750000004,63.50751225,55.0,78.0
212,62.49236175,63.9601633125,48.0,84.0
213,63.85599675,63.980996625,55.0,82.0
214,63.40145175,64.079481375,60.0,102.0
215,63.40145175,64.094632875,67.0,110.0
216,63.40145175,64.124935875,64.0,113.0
217,64.31054175,64.909026,69.0,102.0
218,64.31054175,64.93175325,60.0,94.0
219,64.31054175,64.94690475,64.0,110.0
220,64.76508675,65.31054075,52.0,74.0
221,64.31054175,65.3995558125,45.0,85.0
222,65.21963175,65.7063736875,69.0,102.0
223,65.21963175,65.78023725,64.0,108.0
224,65.21963175,66.06811575,60.0,100.0
225,65.67417675,66.0756915,45.0,81.0
226,66.12872175,66.7253120625,67.0,88.0
227,66.12872175,66.7442514375,64.0,91.0
228,66.12872175,66.7631908125,59.0,91.0
229,66.81053925,67.147660125,52.0,83.0
230,66.12872175,67.420387125,40.0,90.0
231,66.58326675,67.4828870625,47.0,69.0
232,67.03781175,67.50750825,59.0,102.0
233,67.03781175,67.518871875,67.0,102.0
234,67.03781175,67.7328868125,64.0,108.0
235,67.49235675,67.905235125,52.0,78.0
236,67.94690175,68.4033406875,69.0,92.0
237,67.94690175,68.4563709375,64.0,91.0
238,67.94690175,68.4828860625,60.0,88.0
239,68.62871925,68.8124311875,59.0,89.0
240,68.40144675,68.939325,57.0,87.0
241,69.31053675,69.39765787500001,57.0,83.0
242,68.17417425000001,69.4109154375,52.0,75.0
243,67.94690175,69.44690025,45.0,84.0
244,68.85599175,69.6230364375,60.0,110.0
245,68.85599175,69.6230364375,64.0,114.0
246,69.76508175,70.4109144375,57.0,93.0
247,69.76508175,70.4109144375,62.0,113.0
248,69.76508175,70.4336416875,66.0,95.0
249,70.67417175,71.3957619375,62.0,114.0
250,70.67417175,71.405231625,57.0,100.0
251,70.67417175,71.41659525,66.0,100.0
252,71.12871675,71.8010645625,54.0,81.0
253,71.58326175,72.261291375,66.0,109.0
254,71.58326175,72.3010640625,57.0,93.0
255,71.58326175,72.314321625,62.0,113.0
256,72.26507925,72.6343970625,54.0,88.0
257,72.71962425,72.9639421875,54.0,86.0
258,72.49235175,72.99235125,57.0,104.0
259,69.76508175,73.0150785,42.0,87.0
260,72.49235175,73.246138875,66.0,97.0
261,72.94689675,73.276441875,62.0,107.0
262,73.40144175,74.124925875,59.0,92.0
263,73.40144175,74.3730316875,67.0,100.0
264,73.40144175,74.4639406875,62.0,102.0
265,74.76507675,75.09840975,57.0,91.0
266,75.21962175,76.21962075,59.0,102.0
267,75.21962175,76.2480298125,62.0,107.0
268,73.40144175,76.3957569375,43.0,87.0
269,73.85598675,76.4260599375,50.0,71.0
270,74.31053175,76.5321204375,55.0,88.0
271,77.03780175,77.363559,60.0,88.0
272,77.03780175,77.496134625,67.0,88.0
273,77.49234675,78.1874218125,55.0,74.0
274,77.94689175,78.435527625,60.0,80.0
275,77.03780175,78.443103375,48.0,84.0
276,77.94689175,78.5245426875,62.0,94.0
277,78.40143675,78.541588125,55.0,80.0
278,77.94689175,78.549163875,67.0,91.0
279,78.85598175,79.2215116875,59.0,87.0
280,78.85598175,79.5775719375,67.0,86.0
281,78.85598175,79.6306021875,64.0,88.0
282,79.76507175,80.0586320625,64.0,89.0
283,79.76507175,80.30295,59.0,91.0
284,79.76507175,80.4715104375,67.0,88.0
285,80.21961675,80.5321164375,64.0,36.0
286,78.85598175,80.685525375,52.0,84.0
287,80.67416175,81.1230249375,69.0,86.0
288,80.67416175,81.200676375,64.0,83.0
289,80.67416175,81.2101460625,60.0,86.0
290,81.12870675,81.6684789375,52.0,71.0
291,81.58325175,82.0093876875,57.0,82.0
292,80.67416175,82.0813573125,45.0,79.0
293,81.58325175,82.1192360625,59.0,86.0
294,81.58325175,82.1230239375,64.0,87.0
295,82.03779675,82.435523625,60.0,82.0
296,82.49234175,83.1362805,67.0,87.0
297,82.49234175,83.151432,64.0,86.0
298,82.49234175,83.230977375,59.0,87.0
299,82.49234175,83.696886,40.0,82.0
300,83.40143175,83.7252950625,59.0,88.0
301,83.17415925,83.8465070625,52.0,85.0
302,83.62870425,83.878704,64.0,94.0
303,83.85597675,84.056734125,67.0,98.0
304,84.31052175,84.9563544375,62.0,86.0
305,84.31052175,84.965824125,60.0,84.0
306,84.31052175,84.9715059375,57.0,81.0
307,84.31052175,84.973399875,65.0,81.0
308,84.31052175,85.306732875,50.0,84.0
309,85.21961175,85.6154446875,57.0,87.0
310,85.21961175,85.6211265,60.0,86.0
311,85.21961175,85.6268083125,65.0,87.0
312,85.21961175,85.647641625,62.0,87.0
313,86.12870175,86.700670875,64.0,87.0
314,86.12870175,86.79536775,60.0,84.0
315,86.12870175,86.818095,57.0,84.0
316,87.03779175,87.5548366875,64.0,88.0
317,87.03779175,87.5965033125,57.0,87.0
318,86.12870175,87.837033375,45.0,84.0
319,87.03779175,87.8692303125,60.0,89.0
320,87.94688175,88.59650231250001,67.0,86.0
321,87.94688175,88.6343810625,62.0,88.0
322,87.94688175,88.6684719375,59.0,85.0
323,88.85597175,89.473395375,67.0,87.0
324,87.94688175,89.4828650625,55.0,77.0
325,87.94688175,89.4866529375,43.0,83.0
326,88.85597175,89.52263775,62.0,89.0
327,88.85597175,89.5321074375,59.0,88.0
328,89.76506175,90.4601368125,59.0,85.0
329,89.76506175,90.484758,64.0,86.0
330,90.67415175000001,91.0434695625,60.0,90.0
331,90.44687925,91.4980145625,57.0,82.0
332,91.12869675,91.5586205625,64.0,116.0
333,90.21960675,91.56809025,52.0,68.0
334,89.76506175,91.5927114375,45.0,79.0
335,91.58324175,92.31051375,65.0,88.0
336,91.58324175,92.435513625,57.0,87.0
337,91.58324175,92.458240875,62.0,91.0
338,91.58324175,92.670361875,50.0,81.0
339,91.58324175,92.965816125,38.0,82.0
340,92.49233175,92.9866494375,65.0,91.0
341,92.49233175,93.238543125,57.0,89.0
342,92.49233175,93.2404370625,62.0,94.0
343,92.94687675,93.390058125,50.0,87.0
344,93.40142175,94.030209,60.0,93.0
345,93.40142175,94.033996875,64.0,88.0
346,93.40142175,94.056724125,57.0,87.0
347,94.08323925,94.4374055625,52.0,38.0
348,94.31051175,94.7745264375,57.0,91.0
349,93.40142175,94.844602125,45.0,84.0
350,94.76505675,94.8502839375,52.0,82.0
351,94.31051175,94.9184656875,64.0,91.0
352,94.31051175,95.094601875,60.0,96.0
353,95.21960175,95.818086,67.0,89.0
354,95.21960175,95.8635405,62.0,94.0
355,95.21960175,95.897631375,59.0,88.0
356,95.21960175,96.571873125,43.0,85.0
357,96.12869175,96.6116458125,59.0,98.0
358,96.12869175,96.6267973125,67.0,91.0
359,95.67414675,96.6457366875,50.0,71.0
360,96.12869175,96.647630625,62.0,100.0
361,96.58323675,96.950660625,55.0,81.0
362,97.03778175,97.6874023125,67.0,91.0
363,97.03778175,97.7328568125,60.0,88.0
364,97.03778175,97.76694768750001,64.0,91.0
365,97.71959925,98.033992875,55.0,78.0
366,97.94687175,98.3692198125,64.0,113.0
367,97.94687175,98.397628875,67.0,102.0
368,97.94687175,98.424144,60.0,107.0
369,98.40141675,98.4677045625,55.0,88.0
370,97.03778175,98.4695985,48.0,87.0
371,98.85596175,99.49232475,65.0,96.0
372,98.85596175,99.5661883125,57.0,91.0
373,98.85596175,99.5927034375,62.0,110.0
374,99.53777925,99.8995213125,50.0,89.0
375,98.85596175,100.21202100000001,38.0,88.0
376,99.76505175,100.420354125,65.0,98.0
377,99.76505175,100.4695965,57.0,107.0
378,99.76505175,100.545354,62.0,113.0
379,100.21959675,100.609747875,50.0,93.0
380,100.67414175,101.208232125,57.0,94.0
381,100.67414175,101.3389138125,64.0,91.0
382,100.67414175,101.3692168125,60.0,110.0
383,101.35595925,101.696868,52.0,88.0
384,101.58323175,102.0737615625,57.0,102.0
385,100.67414175,102.117322125,45.0,90.0
386,102.03777675,102.12868575,52.0,87.0
387,101.58323175,102.17035237500001,64.0,104.0
388,101.58323175,102.352170375,60.0,107.0
389,102.49232175,103.060503,67.0,102.0
390,102.49232175,103.0964878125,62.0,110.0
391,102.49232175,103.102169625,59.0,94.0
392,102.49232175,103.90141125,43.0,88.0
393,103.40141175,104.0017899375,67.0,108.0
394,103.85595675,104.030199,55.0,83.0
395,103.40141175,104.0756535,62.0,114.0
396,103.40141175,104.1362595,59.0,108.0
397,102.94686675,104.1684564375,50.0,76.0
398,104.31050175,104.8692133125,67.0,102.0
399,104.31050175,104.90141025,62.0,110.0
400,104.31050175,104.9070920625,59.0,100.0
401,104.76504675,105.22716750000001,50.0,74.0
402,104.31050175,105.7593639375,43.0,86.0
403,105.67413675,105.7745154375,50.0,81.0
404,105.21959175,105.791560875,62.0,114.0
405,105.21959175,105.79534875,59.0,108.0
406,105.21959175,105.806712375,67.0,108.0
407,105.21959175,105.996106125,55.0,88.0
408,106.12868175,106.40140875,60.0,86.0
409,106.12868175,106.70443875,67.0,88.0
410,106.58322675,107.0964838125,60.0,85.0
411,107.03777175,107.121105,64.0,88.0
412,106.35595425,107.124892875,55.0,76.0
413,107.03777175,107.1267868125,72.0,89.0
414,106.12868175,107.15898375,48.0,87.0
415,107.49231675,108.4146643125,62.0,88.0
416,107.49231675,108.4752703125,71.0,87.0
417,107.49231675,109.1968605,43.0,86.0
418,108.85595175,109.299133125,62.0,100.0
419,108.40140675,109.3313300625,55.0,86.0
420,109.31049675,109.6381479375,71.0,96.0
421,109.76504175,110.44685925,60.0,89.0
422,109.76504175,110.488525875,64.0,100.0
423,109.76504175,110.515041,67.0,92.0
424,110.21958675,110.6836014375,55.0,68.0
425,109.76504175,110.700646875,48.0,87.0
426,110.67413175,110.7442074375,64.0,90.0
427,110.67413175,110.761252875,60.0,88.0
428,110.67413175,110.7820861875,67.0,88.0
429,111.12867675,112.208221125,53.0,88.0
430,111.12867675,112.5851146875,60.0,87.0
431,111.12867675,112.5889025625,69.0,90.0
432,111.12867675,112.662766125,65.0,90.0
433,112.71958425,113.0055688125,60.0,83.0
434,112.49231175,113.2669321875,53.0,91.0
435,113.17412925000001,113.3483715,69.0,87.0
436,112.94685675,113.352159375,65.0,87.0
437,113.40140175,114.1381434375,67.0,90.0
438,113.40140175,114.1722343125,64.0,100.0
439,113.40140175,114.177916125,60.0,89.0
440,113.40140175,114.31049175,48.0,87.0
441,114.31049175,114.3692038125,60.0,86.0
442,114.31049175,114.3767795625,64.0,91.0
443,114.31049175,114.3957189375,67.0,92.0
444,114.76503675000001,116.587004625,43.0,81.0
445,114.76503675000001,116.61351975,69.0,91.0
446,114.76503675000001,116.6835954375,55.0,88.0
447,114.76503675000001,116.700640875,62.0,90.0
448,114.76503675000001,116.72147418750001,65.0,93.0
449,117.03776175,117.6911701875,67.0,89.0
450,117.03776175,117.7063216875,60.0,88.0
451,117.03776175,117.7479883125,64.0,94.0
452,117.49230675,117.882457875,55.0,65.0
453,117.03776175,117.969579,48.0,86.0
454,117.94685175,118.011245625,64.0,93.0
455,117.94685175,118.0245031875,60.0,88.0
456,117.94685175,118.030185,67.0,89.0
457,118.40139675,120.30291,41.0,86.0
458,118.40139675,120.3199554375,60.0,88.0
459,118.40139675,120.35594025,69.0,94.0
460,118.40139675,120.359728125,65.0,96.0
461,118.40139675,120.3729856875,53.0,85.0
462,121.12866675,121.579423875,55.0,68.0
463,121.58321175,122.003665875,60.0,77.0
464,120.67412175,122.09836275,48.0,87.0
465,122.03775675,122.352150375,55.0,46.0
466,121.58321175,122.4392715,67.0,87.0
467,121.58321175,122.46957450000001,64.0,87.0
468,122.49230175,122.99230125,71.0,87.0
469,122.49230175,123.03018,64.0,86.0
470,122.94684675,123.7025278125,59.0,64.0
471,122.49230175,123.8161640625,52.0,84.0
472,123.40139175,123.8919215625,71.0,93.0
473,123.40139175,123.9714669375,64.0,96.0
474,123.85593675,124.2479818125,67.0,87.0
475,124.31048175,124.874875125,60.0,83.0
476,124.31048175,124.8767690625,69.0,88.0
477,124.31048175,124.9335871875,64.0,89.0
478,125.21957175,125.738510625,57.0,76.0
479,125.21957175,125.7479803125,69.0,85.0
480,125.21957175,125.761237875,64.0,84.0
481,124.76502675,125.768813625,52.0,72.0
482,124.31048175,125.7934348125,45.0,82.0
483,125.21957175,125.799116625,60.0,84.0
484,126.12866175,126.5775249375,64.0,79.0
485,126.12866175,126.579418875,67.0,84.0
486,126.12866175,126.586994625,59.0,84.0
487,126.58320675,127.1665395,52.0,73.0
488,127.03775175,127.5055543125,64.0,90.0
489,127.03775175,127.50744825,59.0,88.0
490,127.03775175,127.53775125,67.0,93.0
491,126.12866175,127.541539125,40.0,85.0
492,127.49229675,127.5661603125,52.0,79.0
493,127.94684175,128.2404020625,60.0,84.0
494,127.94684175,128.5472199375,65.0,86.0
495,127.94684175,128.68926525,62.0,89.0
496,128.40138675,128.9487346875,50.0,80.0
497,127.94684175,129.2858555625,38.0,86.0
498,128.85593175,129.34077975,57.0,85.0
499,128.85593175,129.3881281875,65.0,87.0
500,129.31047675,129.5888855625,50.0,83.0
501,128.85593175,129.59835525,62.0,87.0
502,129.76502175,130.35593025,67.0,83.0
503,129.76502175,130.41653625,64.0,84.0
504,129.76502175,130.4392635,60.0,79.0
505,130.67411175,131.1987324375,67.0,87.0
506,130.67411175,131.28017175,64.0,91.0
507,129.76502175,131.40138375,48.0,84.0
508,130.67411175,131.4979745625,60.0,85.0
509,131.58320175,132.155170875,65.0,86.0
510,131.58320175,132.2138829375,57.0,83.0
511,131.58320175,132.31047375,60.0,86.0
512,132.49229175,132.9600943125,57.0,84.0
513,132.49229175,132.9828215625,65.0,88.0
514,131.58320175,133.003654875,41.0,82.0
515,131.58320175,133.071836625,53.0,76.0
516,132.49229175,133.177897125,60.0,85.0
517,133.17410925,133.9600933125,62.0,76.0
518,133.17410925,134.0131235625,59.0,78.0
519,133.40138175,134.0585780625,67.0,85.0
520,134.31047175,134.624865375,59.0,93.0
521,133.40138175,134.8426681875,43.0,83.0
522,133.85592675,134.867289375,50.0,67.0
523,134.08319925,135.185470875,55.0,84.0
524,134.53774425,135.1873648125,62.0,93.0
525,135.21956175,135.458197875,60.0,87.0
526,135.21956175,135.609712875,64.0,89.0
527,134.76501675,135.6816825,67.0,87.0
528,135.21956175,136.2441819375,48.0,85.0
529,136.12865175,136.427893875,60.0,81.0
530,135.67410675,136.450621125,55.0,70.0
531,136.12865175,136.791529875,62.0,89.0
532,136.12865175,136.9979690625,67.0,89.0
533,137.03774175,137.2877415,64.0,90.0
534,137.03774175,137.496074625,71.0,91.0
535,137.94683175,138.34077075,74.0,102.0
536,137.49228675,138.3616040625,59.0,72.0
537,137.03774175,138.4184221875,52.0,82.0
538,137.94683175,138.4638766875,67.0,96.0
539,138.40137675,138.8540278125,71.0,89.0
540,138.85592175,139.1002396875,72.0,91.0
541,138.85592175,139.7366026875,64.0,87.0
542,139.76501175,140.1456931875,57.0,81.0
543,139.31046675,140.20440525,52.0,67.0
544,139.76501175,140.2176628125,69.0,88.0
545,138.85592175,140.2403900625,45.0,79.0
546,139.76501175,140.3502384375,60.0,86.0
547,140.67410175,140.74985925000001,64.0,85.0
548,140.67410175,141.1570558125,67.0,88.0
549,140.67410175,141.302889,59.0,86.0
550,141.12864675,141.68925225,52.0,75.0
551,140.67410175,142.0453125,40.0,82.0
552,141.58319175,142.09834275,67.0,96.0
553,141.58319175,142.140009375,59.0,94.0
554,142.03773675,142.151373,52.0,82.0
555,142.49228175,142.87106925,57.0,85.0
556,142.49228175,142.9070540625,65.0,87.0
557,142.49228175,143.0017509375,60.0,86.0
558,142.94682675,143.5396291875,50.0,77.0
559,143.40137175,143.783947125,57.0,90.0
560,142.49228175,143.8199319375,38.0,84.0
561,143.40137175,143.9032651875,65.0,89.0
562,143.85591675,144.026371125,50.0,79.0
563,143.40137175,144.124855875,60.0,90.0
564,144.31046175,144.753643125,67.0,84.0
565,144.31046175,144.874855125,60.0,81.0
566,144.76500675,145.5964453125,55.0,68.0
567,144.31046175,145.61349075,48.0,86.0
568,145.21955175,145.9032631875,60.0,87.0
569,145.21955175,145.9259904375,67.0,88.0
570,146.12864175,146.715762375,67.0,86.0
571,146.12864175,146.776368375,62.0,86.0
572,146.12864175,146.8028835,59.0,81.0
573,146.12864175,147.5604585,43.0,76.0
574,146.58318675,147.564246375,50.0,65.0
575,147.03773175,147.6153826875,59.0,86.0
576,147.03773175,147.6305341875,67.0,87.0
577,147.03773175,147.7782613125,55.0,76.0
578,147.03773175,147.87864,62.0,88.0
579,148.40136675,149.0585630625,52.0,70.0
580,147.94682175,149.38621425,45.0,77.0
581,148.85591175,149.38621425,59.0,87.0
582,149.31045675000001,149.81045625,60.0,88.0
583,149.76500175,149.81045625,60.0,87.0
584,148.85591175,149.829395625,64.0,88.0
585,149.76500175,149.829395625,64.0,88.0
586,149.76500175,150.1873498125,67.0,88.0
587,149.76500175,150.8028795,48.0,87.0
588,150.44681925,150.920303625,55.0,78.0
589,150.67409175,151.2365911875,67.0,100.0
590,150.67409175,151.2479548125,60.0,89.0
591,151.12863675,151.2858335625,48.0,84.0
592,150.67409175,151.3085608125,64.0,104.0
593,151.58318175,152.1002266875,69.0,91.0
594,151.58318175,152.109696375,60.0,89.0
595,151.58318175,152.14378725,64.0,96.0
596,152.03772675,152.545302,57.0,74.0
597,152.94681675,153.0812863125,57.0,86.0
598,152.49227175,153.102119625,60.0,88.0
599,152.49227175,153.117271125,69.0,94.0
600,151.58318175,153.1381044375,45.0,86.0
601,152.49227175,153.1532559375,64.0,100.0
602,153.40136175,153.829391625,59.0,87.0
603,153.40136175,153.8540128125,64.0,102.0
604,153.40136175,153.8540128125,67.0,91.0
605,153.85590675,154.3918910625,52.0,80.0
606,153.40136175,154.700602875,40.0,87.0
607,154.31045175,154.8123451875,59.0,107.0
608,154.31045175,154.8123451875,67.0,104.0
609,154.31045175,154.867269375,64.0,110.0
610,154.76499675,155.17408725,52.0,87.0
611,155.21954175,155.666511,69.0,102.0
612,155.21954175,155.874844125,64.0,107.0
613,155.21954175,155.8994653125,60.0,91.0
614,156.12863175,156.533934375,69.0,110.0
615,156.12863175,156.5737070625,64.0,113.0
616,155.67408675,156.6456766875,52.0,80.0
617,156.58317675,156.66651,57.0,86.0
618,155.21954175,156.6721918125,45.0,86.0
619,156.12863175,156.9146158125,60.0,102.0
620,157.03772175,157.6040090625,65.0,98.0
621,157.03772175,157.6210545,57.0,92.0
622,157.03772175,157.62484237500001,60.0,94.0
623,157.49226675,158.0434025625,53.0,81.0
624,157.94681175,158.4070385625,57.0,102.0
625,157.03772175,158.4146143125,41.0,87.0
626,157.94681175,158.420296125,65.0,92.0
627,157.94681175,158.6835534375,60.0,98.0
628,158.40135675,158.85590175,53.0,84.0
629,158.85590175,159.291507375,64.0,98.0
630,158.85590175,159.3237043125,67.0,100.0
631,158.85590175,159.37105275,60.0,89.0
632,159.31044675,159.82749168750001,55.0,76.0
633,159.76499175,160.24983975,64.0,108.0
634,160.21953675,160.31044575,55.0,86.0
635,158.85590175,160.3350669375,48.0,87.0
636,159.76499175,160.344536625,67.0,98.0
637,159.76499175,160.412718375,60.0,96.0
638,160.67408175,161.283929625,65.0,93.0
639,160.67408175,161.299081125,62.0,98.0
640,160.67408175,161.314232625,57.0,90.0
641,161.58317175,162.0547621875,57.0,91.0
642,161.58317175,162.18923175,65.0,94.0
643,161.58317175,162.2138529375,62.0,100.0
644,160.67408175,162.291504375,50.0,85.0
645,162.49226175,162.96195825,59.0,89.0
646,162.49226175,163.056655125,67.0,100.0
647,162.49226175,163.0888520625,62.0,102.0
648,162.49226175,163.8047604375,43.0,81.0
649,163.40135175,163.9070330625,59.0,98.0
650,163.40135175,164.0206693125,67.0,102.0
651,163.40135175,164.090745,62.0,113.0
652,163.85589675,164.3388508125,55.0,87.0
653,164.31044175,164.74983525,60.0,91.0
654,164.31044175,164.8047594375,64.0,104.0
655,164.31044175,164.8123351875,67.0,94.0
656,164.76498675,165.32559225,55.0,78.0
657,164.31044175,165.7782433125,48.0,84.0
658,165.67407675,165.799076625,55.0,82.0
659,165.21953175,165.897561375,60.0,102.0
660,165.21953175,165.912712875,67.0,110.0
661,165.21953175,165.94301587500001,64.0,113.0
662,166.12862175,166.727106,69.0,102.0
663,166.12862175,166.74983325,60.0,94.0
664,166.12862175,166.76498475,64.0,110.0
665,166.58316675,167.12862075,52.0,74.0
666,166.12862175,167.2176358125,45.0,85.0
667,167.03771175,167.5244536875,69.0,102.0
668,167.03771175,167.59831725,64.0,108.0
669,167.03771175,167.88619575,60.0,100.0
670,167.49225675,167.8937715,45.0,81.0
671,167.94680175,168.5433920625,67.0,88.0
672,167.94680175,168.5623314375,64.0,91.0
673,167.94680175,168.5812708125,59.0,91.0
674,168.62861925,168.965740125,52.0,83.0
675,167.94680175,169.238467125,40.0,90.0
676,168.40134675,169.3009670625,47.0,69.0
677,168.85589175,169.32558825,59.0,102.0
678,168.85589175,169.336951875,67.0,102.0
679,168.85589175,169.5509668125,64.0,108.0
680,169.31043675,169.723315125,52.0,78.0
681,169.76498175,170.2214206875,69.0,92.0
682,169.76498175,170.2744509375,64.0,91.0
683,169.76498175,170.3009660625,60.0,88.0
684,170.44679925,170.6305111875,59.0,89.0
685,170.21952675,170.757405,57.0,87.0
686,171.12861675,171.215737875,57.0,83.0
687,169.99225425,171.2289954375,52.0,75.0
688,169.76498175,171.26498025,45.0,84.0
689,170.67407175,171.4411164375,60.0,110.0
690,170.67407175,171.4411164375,64.0,114.0
691,171.58316175,172.2289944375,57.0,93.0
692,171.58316175,172.2289944375,62.0,113.0
693,171.58316175,172.2517216875,66.0,95.0
694,172.49225175,173.2138419375,62.0,114.0
695,172.49225175,173.223311625,57.0,100.0
696,172.49225175,173.23467525,66.0,100.0
697,172.94679675,173.6191445625,54.0,81.0
698,173.40134175,174.079371375,66.0,109.0
699,173.40134175,174.1191440625,57.0,93.0
700,173.40134175,174.132401625,62.0,113.0
701,174.08315925,174.4524770625,54.0,88.0
702,174.53770425,174.7820221875,54.0,86.0
703,174.31043175,174.81043125,57.0,104.0
704,171.58316175,174.8331585,42.0,87.0
705,174.31043175,175.064218875,66.0,97.0
706,174.76497675,175.094521875,62.0,107.0
707,175.21952175,175.943005875,59.0,92.0
708,175.21952175,176.1911116875,67.0,100.0
709,175.21952175,176.2820206875,62.0,102.0
710,176.58315675,176.91648975,57.0,91.0
711,177.03770175,178.03770075,59.0,102.0
712,177.03770175,178.0661098125,62.0,107.0
713,175.21952175,178.2138369375,43.0,87.0
714,175.67406675,178.2441399375,50.0,71.0
715,176.12861175,178.3502004375,55.0,88.0
716,178.85588175,179.181639,60.0,88.0
717,178.85588175,179.314214625,67.0,88.0
718,179.31042675,180.0055018125,55.0,74.0
719,179.76497175,180.253607625,60.0,80.0
720,178.85588175,180.261183375,48.0,84.0
721,179.76497175,180.3426226875,62.0,94.0
722,180.21951675,180.359668125,55.0,80.0
723,179.76497175,180.367243875,67.0,91.0
724,180.67406175,181.0395916875,59.0,87.0
725,180.67406175,181.3956519375,67.0,86.0
726,180.67406175,181.4486821875,64.0,88.0
727,181.58315175,181.8767120625,64.0,89.0
728,181.58315175,182.12103,59.0,91.0
729,181.58315175,182.2895904375,67.0,88.0
730,182.03769675,182.3501964375,64.0,36.0
731,180.67406175,182.503605375,52.0,84.0
732,182.49224175,182.9411049375,69.0,86.0
733,182.49224175,183.018756375,64.0,83.0
734,182.49224175,183.0282260625,60.0,86.0
735,182.94678675,183.4865589375,52.0,71.0
736,183.40133175,183.8274676875,57.0,82.0
737,182.49224175,183.8994373125,45.0,79.0
738,183.40133175,183.9373160625,59.0,86.0
739,183.40133175,183.9411039375,64.0,87.0
740,183.85587675,184.253603625,60.0,82.0
741,184.31042175,184.9543605,67.0,87.0
742,184.31042175,184.969512,64.0,86.0
743,184.31042175,185.049057375,59.0,87.0
744,184.31042175,185.514966,40.0,82.0
745,185.21951175,185.5433750625,59.0,88.0
746,184.99223925,185.6645870625,52.0,85.0
747,185.44678425,185.696784,64.0,94.0
748,185.67405675,185.874814125,67.0,98.0
749,186.12860175,186.7744344375,62.0,86.0
750,186.12860175,186.783904125,60.0,84.0
751,186.12860175,186.7895859375,57.0,81.0
752,186.12860175,186.791479875,65.0,81.0
753,186.12860175,187.124812875,50.0,84.0
754,187.03769175,187.4335246875,57.0,87.0
755,187.03769175,187.4392065,60.0,86.0
756,187.03769175,187.4448883125,65.0,87.0
757,187.03769175,187.465721625,62.0,87.0
758,187.94678175,188.518750875,64.0,87.0
759,187.94678175,188.61344775,60.0,84.0
760,187.94678175,188.636175,57.0,84.0
761,188.85587175,189.3729166875,64.0,88.0
762,188.85587175,189.4145833125,57.0,87.0
763,187.94678175,189.655113375,45.0,84.0
764,188.85587175,189.6873103125,60.0,89.0
765,189.76496175,190.4145823125,67.0,86.0
766,189.76496175,190.4524610625,62.0,88.0
767,189.76496175,190.4865519375,59.0,85.0
768,190.67405175,191.291475375,67.0,87.0
769,189.76496175,191.3009450625,55.0,77.0
770,189.76496175,191.3047329375,43.0,83.0
771,190.67405175,191.34071775,62.0,89.0
772,190.67405175,191.3501874375,59.0,88.0
773,191.58314175,192.1058685,64.0,81.0
774,191.58314175,192.1304896875,60.0,81.0
775,192.49223175,192.9846555,64.0,84.0
776,192.49223175,193.02253425,60.0,87.0
777,192.94677675,193.465715625,57.0,74.0
778,191.58314175,193.480867125,45.0,77.0
779,192.03768675,193.484655,52.0,69.0
780,193.40132175,193.7668516875,60.0,87.0
781,193.40132175,193.82366981250001,67.0,88.0
782,193.40132175,193.8577606875,64.0,88.0
783,193.40132175,194.4391995,48.0,87.0
784,194.08313925,194.55662362500001,55.0,78.0
785,194.31041175000001,194.8729111875,67.0,100.0
786,194.31041175000001,194.8842748125,60.0,89.0
787,194.76495675,194.9221535625,48.0,84.0
788,194.31041175000001,194.9448808125,64.0,104.0
789,195.21950175,195.7365466875,69.0,91.0
790,195.21950175,195.746016375,60.0,89.0
791,195.21950175,195.78010725000001,64.0,96.0
792,195.67404675,196.181622,57.0,74.0
793,196.58313675,196.7176063125,57.0,86.0
794,196.12859175,196.738439625,60.0,88.0
795,196.12859175,196.753591125,69.0,94.0
796,195.21950175,196.7744244375,45.0,86.0
797,196.12859175,196.7895759375,64.0,100.0
798,197.03768175,197.465711625,59.0,87.0
799,197.03768175,197.49033281250001,64.0,102.0
800,197.03768175,197.49033281250001,67.0,91.0
801,197.49222675000001,198.0282110625,52.0,80.0
802,197.03768175,198.336922875,40.0,87.0
803,197.94677175,198.4486651875,59.0,107.0
804,197.94677175,198.4486651875,67.0,104.0
805,197.94677175,198.503589375,64.0,110.0
806,198.40131675,198.81040725,52.0,87.0
807,198.85586175,199.302831,69.0,102.0
808,198.85586175,199.511164125,64.0,107.0
809,198.85586175,199.5357853125,60.0,91.0
810,199.76495175,200.170254375,69.0,110.0
811,199.76495175,200.2100270625,64.0,113.0
812,199.31040675,200.2819966875,52.0,80.0
813,200.21949675,200.30283,57.0,86.0
814,198.85586175,200.3085118125,45.0,86.0
815,199.76495175,200.5509358125,60.0,102.0
816,200.67404175,201.2403290625,65.0,98.0
817,200.67404175,201.2573745,57.0,92.0
818,200.67404175,201.261162375,60.0,94.0
819,201.12858675,201.6797225625,53.0,81.0
820,201.58313175,202.0433585625,57.0,102.0
821,200.67404175,202.0509343125,41.0,87.0
822,201.58313175,202.056616125,65.0,92.0
823,201.58313175,202.3198734375,60.0,98.0
824,202.03767675,202.49222175,53.0,84.0
825,202.49222175,202.927827375,64.0,98.0
826,202.49222175,202.9600243125,67.0,100.0
827,202.49222175,203.00737275,60.0,89.0
828,202.94676675,203.4638116875,55.0,76.0
829,203.40131175,203.88615975,64.0,108.0
830,203.85585675,203.94676575,55.0,86.0
831,202.49222175,203.9713869375,48.0,87.0
832,203.40131175,203.980856625,67.0,98.0
833,203.40131175,204.049038375,60.0,96.0
834,204.31040175,204.920249625,65.0,93.0
835,204.31040175,204.935401125,62.0,98.0
836,204.31040175,204.950552625,57.0,90.0
837,205.21949175,205.6910821875,57.0,91.0
838,205.21949175,205.82555175,65.0,94.0
839,205.21949175,205.8501729375,62.0,100.0
840,204.31040175,205.927824375,50.0,85.0
841,206.12858175,206.59827825,59.0,89.0
842,206.12858175,206.692975125,67.0,100.0
843,206.12858175,206.7251720625,62.0,102.0
844,206.12858175,207.4410804375,43.0,81.0
845,207.03767175,207.5433530625,59.0,98.0
846,207.03767175,207.6569893125,67.0,102.0
847,207.03767175,207.727065,62.0,113.0
848,207.49221675,207.9751708125,55.0,87.0
849,207.94676175,208.38615525,60.0,91.0
850,207.94676175,208.4410794375,64.0,104.0
851,207.94676175,208.4486551875,67.0,94.0
852,208.40130675,208.96191225,55.0,78.0
853,207.94676175,209.4145633125,48.0,84.0
854,209.31039675,209.435396625,55.0,82.0
855,208.85585175,209.533881375,60.0,102.0
856,208.85585175,209.549032875,67.0,110.0
857,208.85585175,209.579335875,64.0,113.0
858,209.76494175,210.363426,69.0,102.0
859,209.76494175,210.38615325,60.0,94.0
860,209.76494175,210.40130475,64.0,110.0
861,210.21948675,210.76494075,52.0,74.0
862,209.76494175,210.8539558125,45.0,85.0
863,210.67403175,211.1607736875,69.0,102.0
864,210.67403175,211.23463725,64.0,108.0
865,210.67403175,211.52251575,60.0,100.0
866,211.12857675,211.5300915,45.0,81.0
867,211.58312175,212.1797120625,67.0,88.0
868,211.58312175,212.1986514375,64.0,91.0
869,211.58312175,212.2175908125,59.0,91.0
870,212.26493925,212.602060125,52.0,83.0
871,211.58312175,212.874787125,40.0,90.0
872,212.03766675,212.9372870625,47.0,69.0
873,212.49221175,212.96190825,59.0,102.0
874,212.49221175,212.973271875,67.0,102.0
875,212.49221175,213.1872868125,64.0,108.0
876,212.94675675,213.359635125,52.0,78.0
877,213.40130175,213.8577406875,69.0,92.0
878,213.40130175,213.9107709375,64.0,91.0
879,213.40130175,213.9372860625,60.0,88.0
880,214.08311925,214.2668311875,59.0,89.0
881,213.85584675,214.393725,57.0,87.0
882,214.76493675,214.852057875,57.0,83.0
883,213.62857425,214.8653154375,52.0,75.0
884,213.40130175,214.90130025,45.0,84.0
885,214.31039175,215.0774364375,60.0,110.0
886,214.31039175,215.0774364375,64.0,114.0
887,215.21948175,215.8653144375,57.0,93.0
888,215.21948175,215.8653144375,62.0,113.0
889,215.21948175,215.8880416875,66.0,95.0
890,216.12857175,216.8501619375,62.0,114.0
891,216.12857175,216.859631625,57.0,100.0
892,216.12857175,216.87099525,66.0,100.0
893,216.58311675,217.2554645625,54.0,81.0
894,217.03766175,217.715691375,66.0,109.0
895,217.03766175,217.7554640625,57.0,93.0
896,217.03766175,217.768721625,62.0,113.0
897,217.71947925,218.0887970625,54.0,88.0
898,218.17402425,218.4183421875,54.0,86.0
899,217.94675175,218.44675125,57.0,104.0
900,215.21948175,218.4694785,42.0,87.0
901,217.94675175,218.700538875,66.0,97.0
902,218.40129675,218.730841875,62.0,107.0
903,218.85584175,219.579325875,59.0,92.0
904,218.85584175,219.8274316875,67.0,100.0
905,218.85584175,219.9183406875,62.0,102.0
906,220.21947675,220.55280975,57.0,91.0
907,220.67402175,221.67402075,59.0,102.0
908,220.67402175,221.70242981250001,62.0,107.0
909,218.85584175,221.8501569375,43.0,87.0
910,219.31038675,221.8804599375,50.0,71.0
911,219.76493175,221.9865204375,55.0,88.0
912,222.49220175,222.817959,60.0,88.0
913,222.49220175,222.950534625,67.0,88.0
914,222.94674675,223.6418218125,55.0,74.0
915,223.40129175,223.889927625,60.0,80.0
916,222.49220175,223.897503375,48.0,84.0
917,223.40129175,223.9789426875,62.0,94.0
918,223.85583675,223.995988125,55.0,80.0
919,223.40129175,224.003563875,67.0,91.0
920,224.31038175,224.6759116875,59.0,87.0
921,224.31038175,225.0319719375,67.0,86.0
922,224.31038175,225.0850021875,64.0,88.0
923,225.21947175,225.5130320625,64.0,89.0
924,225.21947175,225.75735,59.0,91.0
925,225.21947175,225.9259104375,67.0,88.0
926,225.67401675,225.9865164375,64.0,36.0
927,224.31038175,226.139925375,52.0,84.0
928,226.12856175,226.5774249375,69.0,86.0
929,226.12856175,226.655076375,64.0,83.0
930,226.12856175,226.6645460625,60.0,86.0
931,226.58310675,227.1228789375,52.0,71.0
932,227.03765175,227.4637876875,57.0,82.0
933,226.12856175,227.5357573125,45.0,79.0
934,227.03765175,227.57363606250001,59.0,86.0
935,227.03765175,227.5774239375,64.0,87.0
936,227.49219675,227.889923625,60.0,82.0
937,227.94674175,228.5906805,67.0,87.0
938,227.94674175,228.605832,64.0,86.0
939,227.94674175,228.685377375,59.0,87.0
940,227.94674175,229.151286,40.0,82.0
941,228.85583175,229.1796950625,59.0,88.0
942,228.62855925,229.3009070625,52.0,85.0
943,229.08310425,229.333104,64.0,94.0
944,229.31037675,229.511134125,67.0,98.0
945,229.76492175,230.4107544375,62.0,86.0
946,229.76492175,230.420224125,60.0,84.0
947,229.76492175,230.4259059375,57.0,81.0
948,229.76492175,230.427799875,65.0,81.0
949,229.76492175,230.761132875,50.0,84.0
950,230.67401175,231.0698446875,57.0,87.0
951,230.67401175,231.0755265,60.0,86.0
952,230.67401175,231.0812083125,65.0,87.0
953,230.67401175,231.102041625,62.0,87.0
954,231.58310175,232.155070875,64.0,87.0
955,231.58310175,232.24976775,60.0,84.0
956,231.58310175,232.272495,57.0,84.0
957,232.49219175,233.0092366875,64.0,88.0
958,232.49219175,233.0509033125,57.0,87.0
959,231.58310175,233.291433375,45.0,84.0
960,232.49219175,233.3236303125,60.0,89.0
961,233.40128175,234.0509023125,67.0,86.0
962,233.40128175,234.0887810625,62.0,88.0
963,233.40128175,234.1228719375,59.0,85.0
964,234.31037175,234.927795375,67.0,87.0
965,233.40128175,234.9372650625,55.0,77.0
966,233.40128175,234.9410529375,43.0,83.0
967,234.31037175,234.97703775,62.0,89.0
968,234.31037175,234.9865074375,59.0,88.0
969,235.21946175,235.6948400625,64.0,83.0
970,235.21946175,235.700521875,69.0,83.0
971,235.21946175,235.723249125,60.0,80.0
972,235.67400675,236.1948395625,52.0,46.0
973,235.21946175,236.636127,45.0,78.0
974,236.58309675,236.6455966875,52.0,65.0
975,236.12855175,236.670217875,69.0,86.0
976,236.12855175,236.6815815,60.0,82.0
977,236.12855175,236.942944875,64.0,85.0
978,236.12855175,237.086884125,57.0,78.0
979,237.03764175,237.4827170625,69.0,84.0
980,237.03764175,237.5546866875,62.0,81.0
981,237.03764175,237.56794425,65.0,86.0
982,237.49218675,238.02248925,57.0,76.0
983,237.94673175,238.3804434375,65.0,94.0
984,237.03764175,238.4107464375,50.0,78.0
985,237.94673175,238.458094875,69.0,91.0
986,238.40127675,238.495973625,57.0,86.0
987,237.94673175,238.723246125,62.0,90.0
988,238.85582175,239.4827150625,57.0,85.0
989,238.85582175,239.5660483125,65.0,87.0
990,238.85582175,239.5963513125,60.0,87.0
991,239.76491175,240.0811993125,57.0,84.0
992,238.85582175,240.253547625,41.0,84.0
993,240.21945675,240.5205928125,65.0,89.0
994,239.99218425,240.6342290625,60.0,87.0
995,239.53763925,240.692941125,53.0,84.0
996,240.67400175,241.23460725,62.0,82.0
997,240.67400175,241.242183,59.0,83.0
998,240.67400175,241.242183,67.0,88.0
999,241.12854675,241.6607431875,55.0,73.0
1000,240.67400175,242.041424625,43.0,80.0
1001,241.58309175,242.15884875,59.0,87.0
1002,241.58309175,242.2099850625,67.0,86.0
1003,241.58309175,242.291424375,62.0,87.0
1004,242.03763675,242.514909,55.0,80.0
1005,242.950514625,244.011119625,52.0,75.0
1006,242.458090875,244.0130135625,45.0,87.0
1007,243.4088475,244.162634625,59.0,81.0
1008,243.423999,244.272483,64.0,78.0
1009,243.8614985625,244.367179875,60.0,74.0
1010,244.3236193125,244.7402855625,62.0,80.0
1011,244.3179375,244.7743764375,65.0,78.0
1012,244.7819521875,245.4751333125,57.0,63.0
1013,244.3349829375,245.533845375,50.0,76.0
1014,245.2213456875,245.6834664375,69.0,88.0
1015,245.223239625,245.8160420625,62.0,86.0
1016,246.0811933125,246.5508898125,65.0,82.0
1017,246.0811933125,246.655056375,57.0,80.0
1018,246.11339025,247.5167979375,41.0,73.0
1019,247.0357378125,247.571722125,57.0,82.0
1020,247.048995375,247.5811918125,65.0,80.0
1021,246.5736170625,247.9561914375,53.0,70.0
1022,247.9448278125,248.450509125,67.0,81.0
1023,247.939146,248.50732725,59.0,79.0
1024,247.9486156875,249.7667956875,43.0,75.0
1025,248.4486151875,250.0811893125,55.0,75.0
1026,248.9069480625,250.624749375,59.0,86.0
1027,248.91641775,250.62853725,67.0,85.0
1028,251.230809375,251.81035425,59.0,74.0
1029,251.480809125,251.8463390625,60.0,78.0
1030,251.78383912500001,251.9069450625,67.0,80.0
1031,250.9675520625,253.3880041875,57.0,81.0
1032,250.60581,253.3955799375,52.0,42.0
1033,252.0963388125,253.397473875,69.0,87.0
1034,250.109598375,253.412625375,45.0,81.0
1035,252.4713384375,253.4145193125,71.0,69.0
1036,252.9220955625,253.427776875,79.0,81.0
