,start,end,pitch,velocity
0,20.483728199999998,20.626306324999998,75.0,105.0
1,20.718103199999998,20.837243824999998,73.0,66.0
2,20.952478199999998,21.050134449999998,75.0,105.0
3,21.186853199999998,21.294275074999998,73.0,92.0
4,21.421228199999998,21.798181324999998,75.0,111.0
5,21.889978199999998,22.198571949999998,71.0,111.0
6,22.358728199999998,22.700525074999998,70.0,114.0
7,22.827478199999998,22.946618824999998,71.0,108.0
8,23.061853199999998,23.657556324999998,73.0,105.0
9,24.233728199999998,24.389978199999998,71.0,89.0
10,24.468103199999998,24.579431324999998,70.0,87.0
11,24.702478199999998,24.821618824999998,71.0,100.0
12,24.936853199999998,25.048181324999998,70.0,102.0
13,25.171228199999998,25.852868824999998,71.0,114.0
14,26.108728199999998,26.436853199999998,71.0,108.0
15,26.577478199999998,26.876306324999998,70.0,108.0
16,27.046228199999998,27.163415699999998,68.0,102.0
17,27.280603199999998,27.866540699999998,70.0,111.0
18,27.983728199999998,28.087243824999998,75.0,108.0
19,28.218103199999998,28.315759449999998,73.0,89.0
20,28.452478199999998,28.554040699999998,75.0,102.0
21,28.686853199999998,28.794275074999998,73.0,105.0
22,28.921228199999998,29.204431324999998,75.0,111.0
23,29.389978199999998,29.686853199999998,80.0,102.0
24,29.858728199999998,30.186853199999998,78.0,108.0
25,30.327478199999998,30.639978199999998,73.0,94.0
26,30.796228199999998,31.651696949999998,73.0,105.0
27,31.733728199999998,32.067712575,71.0,102.0
28,32.2024782,32.3118532,70.0,114.0
29,32.4368532,33.196618825,71.0,97.0
30,33.3743532,33.4915407,73.0,100.0
31,33.6087282,33.946618825,75.0,105.0
32,34.0774782,34.3743532,73.0,108.0
33,34.5462282,34.653650075,71.0,105.0
34,34.7806032,35.37825945,73.0,108.0
35,35.4837282,35.591150075,75.0,102.0
36,35.7181032,35.813806325,73.0,92.0
37,35.9524782,36.071618825,75.0,108.0
38,36.1868532,36.294275075,73.0,94.0
39,36.4212282,36.7024782,75.0,114.0
40,36.8899782,37.19857195,71.0,114.0
41,37.3587282,37.6634157,70.0,114.0
42,37.8274782,37.92513445,71.0,105.0
43,38.0618532,38.8040407,73.0,111.0
44,39.2337282,39.3509157,71.0,105.0
45,39.4681032,39.5540407,70.0,76.0
46,39.7024782,39.80013445,71.0,108.0
47,39.9368532,40.028650075,70.0,108.0
48,40.1712282,40.86263445,71.0,111.0
49,41.1087282,41.4368532,71.0,105.0
50,41.5774782,41.8743532,70.0,114.0
51,42.0462282,42.14388445,68.0,111.0
52,42.2806032,42.8040407,70.0,117.0
53,42.9837282,43.11263445,75.0,80.0
54,43.2181032,43.3196657,73.0,102.0
55,43.4524782,43.559900075,75.0,102.0
56,43.6868532,43.794275075,73.0,102.0
57,43.9212282,44.231775075,75.0,114.0
58,44.3899782,44.665368825,80.0,111.0
59,44.8587282,45.1634157,82.0,111.0
60,45.3274782,45.638025075,80.0,111.0
61,45.7962282,46.3040407,78.0,114.0
62,46.7337282,46.86263445,76.0,108.0
63,46.9681032,47.0540407,75.0,105.0
64,47.2024782,47.294275075,76.0,117.0
65,47.4368532,47.53450945,75.0,89.0
66,47.6712282,47.94857195,76.0,111.0
67,48.1399782,48.45638445,83.0,108.0
68,48.6087282,49.6946657,78.0,108.0
69,50.0149782,50.149743825,78.0,108.0
70,50.2493532,50.36263445,76.0,108.0
71,50.4837282,50.7649782,75.0,114.0
72,50.9524782,51.204431325,75.0,108.0
73,51.4212282,51.915368825,75.0,114.0
74,52.3587282,52.477868825,73.0,111.0
75,52.5931032,52.9134157,73.0,108.0
76,53.0618532,53.583337575,73.0,111.0
77,53.7649782,53.884118825,75.0,108.0
78,53.9993532,54.11263445,73.0,105.0
79,54.2337282,54.516931325,71.0,114.0
80,54.7024782,54.977868825,73.0,105.0
81,55.1712282,55.4681032,75.0,108.0
82,55.6399782,55.9134157,83.0,120.0
83,56.1087282,56.3977907,82.0,105.0
84,56.5774782,56.735681325,80.0,105.0
85,56.8118532,57.313806325,78.0,114.0
86,57.9837282,58.31575945,80.0,102.0
87,58.4524782,58.56575945,76.0,97.0
88,58.6868532,58.790368825,76.0,100.0
89,58.9212282,59.2415407,76.0,102.0
90,59.3899782,59.6790407,75.0,108.0
91,59.8587282,60.6868532,76.0,102.0
92,61.2649782,61.3821657,73.0,108.0
93,61.4993532,61.610681325,75.0,105.0
94,61.7337282,61.993493825,76.0,108.0
95,62.2024782,62.5227907,83.0,105.0
96,62.6712282,62.94075945,82.0,111.0
97,63.1399782,63.4368532,78.0,114.0
98,63.6087282,63.720056325,80.0,105.0
99,63.8431032,64.184900075,78.0,117.0
100,64.3118532,64.74544695,78.0,117.0
101,65.0149782,65.149743825,78.0,108.0
102,65.2493532,65.36263445,76.0,108.0
103,65.4837282,65.7649782,75.0,114.0
104,65.9524782,66.204431325,75.0,108.0
105,66.4212282,66.915368825,75.0,114.0
106,67.3587282,67.477868825,73.0,111.0
107,67.5931032,67.9134157,78.0,108.0
108,68.0618532,68.583337575,82.0,111.0
109,68.7649782,68.884118825,80.0,108.0
110,68.9993532,69.11263445,82.0,105.0
111,69.2337282,69.516931325,83.0,114.0
112,69.7024782,69.977868825,82.0,105.0
113,70.1712282,70.4681032,78.0,108.0
114,70.6399782,70.9134157,75.0,120.0
115,71.1087282,71.33919695,80.0,105.0
116,71.3431032,71.80794695,82.0,105.0
117,71.8118532,72.313806325,78.0,114.0
118,72.9837282,73.69075945,76.0,111.0
119,73.9212282,74.235681325,85.0,114.0
120,74.3899782,74.509118825,83.0,105.0
121,74.6243532,75.77669695,78.0,92.0
122,76.2649782,76.3821657,73.0,105.0
123,76.4993532,76.6165407,75.0,105.0
124,76.7337282,77.0618532,76.0,108.0
125,77.2024782,77.33138445,76.0,105.0
126,77.4368532,77.53450945,75.0,100.0
127,77.6712282,77.973962575,76.0,105.0
128,78.1399782,78.44857195,78.0,108.0
129,78.6087282,79.278650075,75.0,111.0
130,79.5462282,80.2884157,73.0,108.0
131,80.4837282,83.19027950625001,71.0,105.0
132,99.26840450625001,99.37582638125001,75.0,102.0
133,99.50277950625001,99.59848263125001,73.0,92.0
134,99.73715450625001,99.85629513125001,75.0,108.0
135,99.97152950625001,100.07895138125001,73.0,94.0
136,100.20590450625001,100.48715450625001,75.0,114.0
137,100.67465450625001,100.98324825625001,71.0,114.0
138,101.14340450625001,101.44809200625001,70.0,114.0
139,101.61215450625001,101.70981075625001,71.0,105.0
140,101.84652950625001,102.58871700625001,73.0,111.0
141,103.01840450625001,103.13559200625001,71.0,105.0
142,103.25277950625001,103.33871700625001,70.0,76.0
143,103.48715450625001,103.58481075625001,71.0,108.0
144,103.72152950625001,103.81332638125001,70.0,108.0
145,103.95590450625001,104.64731075625001,71.0,111.0
146,104.89340450625001,105.22152950625001,71.0,105.0
147,105.36215450625001,105.65902950625001,70.0,114.0
148,105.83090450625001,105.92856075625001,68.0,111.0
149,106.06527950625001,106.58871700625001,70.0,117.0
150,106.76840450625001,106.89731075625001,75.0,80.0
151,107.00277950625001,107.10434200625001,73.0,102.0
152,107.23715450625001,107.34457638125001,75.0,102.0
153,107.47152950625001,107.57895138125001,73.0,102.0
154,107.70590450625001,108.01645138125001,75.0,114.0
155,108.17465450625001,108.45004513125001,80.0,111.0
156,108.64340450625001,108.94809200625001,82.0,111.0
157,109.11215450625001,109.42270138125001,80.0,111.0
158,109.58090450625001,110.08871700625001,78.0,114.0
159,110.51840450625001,110.64731075625001,76.0,108.0
160,110.75277950625001,110.83871700625001,75.0,105.0
161,110.98715450625001,111.07895138125001,76.0,117.0
162,111.22152950625001,111.31918575625001,75.0,89.0
163,111.45590450625001,111.73324825625001,76.0,111.0
164,111.92465450625001,112.24106075625001,83.0,108.0
165,112.39340450625001,113.47934200625001,78.0,108.0
166,113.79965450625001,113.93442013125001,78.0,108.0
167,114.03402950625001,114.14731075625001,76.0,108.0
168,114.26840450625001,114.54965450625001,75.0,114.0
169,114.73715450625001,114.98910763125001,75.0,108.0
170,115.20590450625001,115.70004513125001,75.0,114.0
171,116.14340450625001,116.26254513125001,73.0,111.0
172,116.37777950625001,116.69809200625001,73.0,108.0
173,116.84652950625001,117.36801388125001,73.0,111.0
174,117.54965450625001,117.66879513125001,75.0,108.0
175,117.78402950625001,117.89731075625001,73.0,105.0
176,118.01840450625001,118.30160763125001,71.0,114.0
177,118.48715450625001,118.76254513125001,73.0,105.0
178,118.95590450625001,119.25277950625001,75.0,108.0
179,119.42465450625001,119.69809200625001,83.0,120.0
180,119.89340450625001,120.18246700625001,82.0,105.0
181,120.36215450625001,120.52035763125001,80.0,105.0
182,120.59652950625001,121.09848263125001,78.0,114.0
183,121.76840450625001,122.10043575625001,80.0,102.0
184,122.23715450625001,122.35043575625001,76.0,97.0
185,122.47152950625001,122.57504513125001,76.0,100.0
186,122.70590450625001,123.02621700625001,76.0,102.0
187,123.17465450625001,123.46371700625001,75.0,108.0
188,123.64340450625001,124.47152950625001,76.0,102.0
189,125.04965450625001,125.16684200625001,73.0,108.0
190,125.28402950625001,125.39535763125001,75.0,105.0
191,125.51840450625001,125.77817013125001,76.0,108.0
192,125.98715450625001,126.30746700625001,83.0,105.0
193,126.45590450625001,126.72543575625001,82.0,111.0
194,126.92465450625001,127.22152950625001,78.0,114.0
195,127.39340450625001,127.50473263125001,80.0,105.0
196,127.62777950625001,127.96957638125001,78.0,117.0
197,128.09652950625002,128.53012325625002,78.0,117.0
198,128.79965450625002,128.93442013125002,78.0,108.0
199,129.03402950625002,129.14731075625002,76.0,108.0
200,129.26840450625002,129.54965450625002,75.0,114.0
201,129.73715450625002,129.98910763125002,75.0,108.0
202,130.20590450625002,130.70004513125002,75.0,114.0
203,131.14340450625002,131.26254513125002,73.0,111.0
204,131.37777950625002,131.69809200625002,78.0,108.0
205,131.84652950625002,132.36801388125002,82.0,111.0
206,132.54965450625002,132.66879513125002,80.0,108.0
207,132.78402950625002,132.89731075625002,82.0,105.0
208,133.01840450625002,133.30160763125002,83.0,114.0
209,133.48715450625002,133.76254513125002,82.0,105.0
210,133.95590450625002,134.25277950625002,78.0,108.0
211,134.42465450625002,134.69809200625002,75.0,120.0
212,134.89340450625002,135.12387325625002,80.0,105.0
213,135.12777950625002,135.59262325625002,82.0,105.0
214,135.59652950625002,136.09848263125002,78.0,114.0
215,136.76840450625002,137.47543575625002,76.0,111.0
216,137.70590450625002,138.02035763125002,85.0,114.0
217,138.17465450625002,138.29379513125002,83.0,105.0
218,138.40902950625002,139.56137325625002,78.0,92.0
219,140.04965450625002,140.16684200625002,73.0,105.0
220,140.28402950625002,140.40121700625002,75.0,105.0
221,140.51840450625002,140.84652950625002,76.0,108.0
222,140.98715450625002,141.11606075625002,76.0,105.0
223,141.22152950625002,141.31918575625002,75.0,100.0
224,141.45590450625002,141.75863888125002,76.0,105.0
225,141.92465450625002,142.23324825625002,78.0,108.0
226,142.39340450625002,143.06332638125002,80.0,111.0
227,143.33090450625002,144.07309200625002,82.0,108.0
228,144.26840450625002,147.78012325625002,83.0,105.0
229,163.01840450625002,163.29965450625002,75.0,114.0
230,163.48715450625002,163.73910763125002,75.0,108.0
231,163.95590450625002,164.45004513125002,75.0,114.0
232,164.89340450625002,165.01254513125002,73.0,111.0
233,165.12777950625002,165.44809200625002,73.0,108.0
234,165.59652950625002,166.11801388125002,73.0,111.0
235,166.29965450625002,166.41879513125002,75.0,108.0
236,166.53402950625002,166.64731075625002,73.0,105.0
237,166.76840450625002,167.05160763125002,71.0,114.0
238,167.23715450625002,167.51254513125002,73.0,105.0
239,167.70590450625002,168.00277950625002,75.0,108.0
240,168.17465450625002,168.44809200625002,83.0,120.0
241,168.64340450625002,168.93246700625002,82.0,105.0
242,169.11215450625002,169.27035763125002,80.0,105.0
243,169.34652950625002,169.84848263125002,78.0,114.0
244,170.51840450625002,170.85043575625002,80.0,102.0
245,170.98715450625002,171.10043575625002,76.0,97.0
246,171.22152950625002,171.32504513125002,76.0,100.0
247,171.45590450625002,171.77621700625002,76.0,102.0
248,171.92465450625002,172.21371700625002,75.0,108.0
249,172.39340450625002,173.22152950625002,76.0,102.0
250,173.79965450625002,173.91684200625002,73.0,108.0
251,174.03402950625002,174.14535763125002,75.0,105.0
252,174.26840450625002,174.52817013125002,76.0,108.0
253,174.73715450625002,175.05746700625002,83.0,105.0
254,175.20590450625002,175.47543575625002,82.0,111.0
255,175.67465450625002,175.97152950625002,78.0,114.0
256,176.14340450625002,176.25473263125002,80.0,105.0
257,176.37777950625002,176.71957638125002,78.0,117.0
258,176.84652950625002,177.28012325625002,78.0,117.0
259,177.54965450625002,177.68442013125002,78.0,108.0
260,177.78402950625002,177.89731075625002,76.0,108.0
261,178.01840450625002,178.29965450625002,75.0,114.0
262,178.48715450625002,178.73910763125002,75.0,108.0
263,178.95590450625002,179.45004513125002,75.0,114.0
264,179.89340450625002,180.01254513125002,73.0,111.0
265,180.12777950625002,180.44809200625002,78.0,108.0
266,180.59652950625002,181.11801388125002,82.0,111.0
267,181.29965450625002,181.41879513125002,80.0,108.0
268,181.53402950625002,181.64731075625002,82.0,105.0
269,181.76840450625002,182.05160763125002,83.0,114.0
270,182.23715450625002,182.51254513125002,82.0,105.0
271,182.70590450625002,183.00277950625002,78.0,108.0
272,183.17465450625002,183.44809200625002,75.0,120.0
273,183.64340450625002,183.87387325625002,80.0,105.0
274,183.87777950625002,184.34262325625002,82.0,105.0
275,184.34652950625002,184.84848263125002,78.0,114.0
276,185.51840450625002,186.22543575625002,76.0,111.0
277,186.45590450625002,186.77035763125002,85.0,114.0
278,186.92465450625002,187.04379513125002,83.0,105.0
279,187.15902950625002,188.31137325625002,78.0,92.0
280,188.79965450625002,188.91684200625002,73.0,105.0
281,189.03402950625002,189.15121700625002,75.0,105.0
282,189.26840450625002,189.59652950625002,76.0,108.0
283,189.73715450625002,189.86606075625002,76.0,105.0
284,189.97152950625002,190.06918575625002,75.0,100.0
285,190.20590450625002,190.50863888125002,76.0,105.0
286,190.67465450625002,190.98324825625002,78.0,108.0
287,191.14340450625002,191.81332638125002,80.0,111.0
288,192.08090450625002,192.82309200625002,82.0,108.0
289,193.01840450625002,196.06137325625002,83.0,105.0
290,196.29965450625002,196.42074825625002,73.0,105.0
291,196.53402950625002,196.66293575625002,75.0,100.0
292,196.76840450625002,197.08481075625002,76.0,102.0
293,197.23715450625002,197.37192013125002,76.0,100.0
294,197.47152950625002,197.58285763125002,75.0,102.0
295,197.70590450625002,198.00863888125002,76.0,108.0
296,198.17465450625002,198.45785763125002,78.0,108.0
297,198.64340450625002,199.38754513125002,75.0,111.0
298,199.58090450625002,200.32309200625002,73.0,105.0
299,200.51840450625002,203.49496700625002,71.0,102.0
300,203.83090450625002,203.96762325625002,73.0,94.0
301,204.05551388125002,204.18442013125002,75.0,108.0
302,204.27035763125002,204.57699825625002,76.0,108.0
303,204.81332638125002,205.00082638125002,76.0,105.0
304,205.07113888125002,205.20785763125002,75.0,108.0
305,205.29770138125002,205.66879513125002,76.0,114.0
306,205.81527950625002,206.55160763125002,78.0,114.0
307,206.44613888125002,207.64145138125002,80.0,108.0
308,207.51059200625002,208.47543575625002,82.0,120.0
309,208.56137325625002,213.24136225625003,83.0,114.0
