,start,end,pitch,velocity
0,4.274193833333333,4.947580975,63.0,89.0
1,4.274193833333333,4.9536293625,59.0,78.0
2,5.241935833333334,5.756048770833334,59.0,82.0
3,4.274193833333333,5.762097158333334,47.0,80.0
4,5.241935833333334,6.231855254166667,63.0,87.0
5,6.2721778375,7.028226275000001,58.0,71.0
6,5.7883068375,7.0443553083333335,54.0,92.0
7,6.2721778375,7.088710150000001,61.0,80.0
8,7.2399198375000005,7.71774245,58.0,100.0
9,7.2399198375000005,7.727823095833334,54.0,87.0
10,6.2721778375,7.9637102083333335,42.0,92.0
11,7.7237908375,8.189516675,49.0,80.0
12,7.2399198375000005,8.247984420833333,61.0,92.0
13,8.252016679166667,8.832661879166666,56.0,80.0
14,8.252016679166667,9.0181457625,52.0,69.0
15,8.735887679166668,9.446543533333335,47.0,40.0
16,9.231855304166666,9.759043491666668,59.0,87.0
17,9.231855304166666,9.773466566666668,56.0,100.0
18,9.231855304166666,9.785485795833335,52.0,82.0
19,8.252016679166667,10.236611045833333,40.0,84.0
20,9.795101179166668,10.425381685416665,47.0,67.0
21,10.38383323125,11.154467014583332,64.0,64.0
22,10.38383323125,11.380273481249999,56.0,78.0
23,10.38383323125,11.406483160416666,52.0,71.0
24,11.033499260416667,11.650434789583333,47.0,37.0
25,10.38383323125,11.71293479375,40.0,66.0
26,11.565757364583332,12.079870302083332,52.0,78.0
27,11.565757364583332,12.085918689583332,56.0,92.0
28,11.565757364583332,12.140354177083333,59.0,82.0
29,12.533499364583333,13.098015531249999,59.0,87.0
30,12.533499364583333,13.216967152083333,56.0,84.0
31,13.017370364583332,13.58793491875,51.0,52.0
32,13.501241364583333,13.84196719375,56.0,102.0
33,13.501241364583333,14.071805918749998,59.0,111.0
34,13.501241364583333,14.311725289583332,63.0,92.0
35,12.533499364583333,14.335918839583332,44.0,97.0
36,13.985112364583333,14.34398335625,56.0,94.0
37,13.743176864583333,14.44680594375,51.0,31.0
38,14.468983364583332,15.19075760625,58.0,69.0
39,14.468983364583332,15.501241497916666,54.0,69.0
40,15.436725364583332,15.973015722916667,58.0,105.0
41,14.468983364583332,16.19478993125,42.0,64.0
42,15.920596364583332,16.24317703125,54.0,102.0
43,15.436725364583332,16.307693164583334,63.0,105.0
44,14.952854364583333,16.325838327083332,51.0,87.0
45,16.404467364583333,17.434836247916664,52.0,87.0
46,16.888338364583333,17.461621972916664,47.0,52.0
47,16.404467364583333,17.466086260416667,56.0,92.0
48,17.396889804166666,18.187068691666664,59.0,97.0
49,16.404467364583333,18.338854466666664,40.0,84.0
50,17.664747054166664,18.370104479166663,47.0,60.0
51,18.468318804166664,20.338566899999996,40.0,82.0
52,18.468318804166664,20.386953999999996,64.0,100.0
53,17.932604304166667,20.395018516666664,52.0,87.0
54,18.200461554166665,20.39703464583333,56.0,87.0
55,20.483728199999998,21.165368824999998,63.0,78.0
56,20.483728199999998,21.247400074999998,59.0,71.0
57,20.952478199999998,21.684900074999998,54.0,42.0
58,21.421228199999998,21.852868824999998,63.0,102.0
59,21.421228199999998,21.903650074999998,59.0,92.0
60,20.483728199999998,22.192712574999998,47.0,97.0
61,21.421228199999998,22.339196949999998,66.0,94.0
62,21.889978199999998,22.628259449999998,54.0,64.0
63,22.358728199999998,22.987634449999998,61.0,82.0
64,22.358728199999998,23.083337574999998,58.0,76.0
65,22.366540699999998,23.528650074999998,42.0,80.0
66,23.296228199999998,23.538415699999998,58.0,92.0
67,22.827478199999998,23.571618824999998,54.0,42.0
68,23.296228199999998,23.809900074999998,61.0,100.0
69,23.764978199999998,23.985681324999998,58.0,100.0
70,23.296228199999998,24.284509449999998,66.0,92.0
71,24.233728199999998,24.716150074999998,59.0,71.0
72,24.233728199999998,24.936853199999998,56.0,89.0
73,24.702478199999998,25.415368824999998,51.0,29.0
74,25.171228199999998,25.430993824999998,56.0,97.0
75,24.233728199999998,25.595056324999998,44.0,87.0
76,25.171228199999998,25.684900074999998,59.0,100.0
77,25.639978199999998,25.917321949999998,56.0,87.0
78,25.171228199999998,26.116540699999998,63.0,84.0
79,26.108728199999998,26.634118824999998,58.0,71.0
80,26.108728199999998,26.716150074999998,54.0,76.0
81,26.108728199999998,27.305993824999998,42.0,80.0
82,26.577478199999998,27.315759449999998,49.0,19.0
83,27.046228199999998,27.485681324999998,54.0,89.0
84,27.046228199999998,27.485681324999998,58.0,105.0
85,27.046228199999998,27.559900074999998,61.0,89.0
86,27.514978199999998,27.811853199999998,42.0,97.0
87,27.983728199999998,28.563806324999998,59.0,78.0
88,27.983728199999998,28.663415699999998,56.0,82.0
89,27.983728199999998,29.169275074999998,44.0,89.0
90,28.452478199999998,29.243493824999998,51.0,25.0
91,28.921228199999998,29.309900074999998,59.0,102.0
92,28.921228199999998,29.388025074999998,56.0,97.0
93,29.389978199999998,29.739587574999998,44.0,97.0
94,28.921228199999998,29.770837574999998,63.0,87.0
95,29.858728199999998,30.364587574999998,58.0,76.0
96,29.858728199999998,30.579431324999998,54.0,69.0
97,30.796228199999998,30.999353199999998,54.0,84.0
98,30.327478199999998,31.155603199999998,49.0,22.0
99,29.858728199999998,31.157556324999998,42.0,94.0
100,30.796228199999998,31.360681324999998,61.0,87.0
101,30.796228199999998,31.364587574999998,58.0,102.0
102,31.264978199999998,31.399743824999998,54.0,80.0
103,31.733728199999998,32.00325945,56.0,84.0
104,31.733728199999998,32.3118532,61.0,49.0
105,31.733728199999998,32.337243825,64.0,64.0
106,32.2024782,32.505212575,56.0,73.0
107,32.6712282,32.8587282,56.0,102.0
108,31.733728199999998,33.2181032,49.0,76.0
109,32.6712282,33.266931325,61.0,94.0
110,33.1399782,33.403650075,56.0,97.0
111,32.6712282,33.4915407,64.0,94.0
112,33.6087282,34.298181325,54.0,87.0
113,33.6087282,34.298181325,61.0,76.0
114,34.0774782,34.684900075,49.0,46.0
115,33.6087282,35.0774782,42.0,94.0
116,34.5462282,35.102868825,61.0,87.0
117,34.5462282,35.12044695,54.0,97.0
118,35.0149782,35.348962575,49.0,102.0
119,35.4837282,35.7415407,54.0,73.0
120,35.4837282,36.00325945,59.0,84.0
121,35.9524782,36.3118532,54.0,87.0
122,36.4212282,36.6087282,54.0,94.0
123,36.4212282,36.92513445,59.0,108.0
124,36.8899782,37.2102907,54.0,105.0
125,35.4837282,37.270837575,47.0,80.0
126,36.4212282,37.29232195,63.0,97.0
127,37.3587282,37.837243825,58.0,89.0
128,37.3587282,38.087243825,54.0,87.0
129,37.8274782,38.450525075,49.0,37.0
130,38.2962282,38.7806032,61.0,97.0
131,38.2962282,38.8352907,54.0,105.0
132,37.3587282,38.8431032,42.0,92.0
133,38.7649782,39.1868532,49.0,108.0
134,39.2337282,39.74544695,56.0,92.0
135,39.2337282,39.99544695,52.0,78.0
136,39.7024782,40.3118532,47.0,34.0
137,39.2337282,40.395837575,40.0,89.0
138,40.1712282,40.56575945,52.0,92.0
139,40.1712282,40.6009157,56.0,120.0
140,40.1712282,40.735681325,59.0,105.0
141,40.6399782,40.97982195,40.0,92.0
142,41.1087282,41.63607195,58.0,89.0
143,41.1087282,41.704431325,54.0,80.0
144,41.5774782,42.169275075,49.0,41.0
145,42.0462282,42.3040407,54.0,94.0
146,42.0462282,42.372400075,58.0,111.0
147,42.0462282,42.43294695,61.0,94.0
148,41.1087282,42.54232195,42.0,100.0
149,42.2806032,42.763025075,49.0,80.0
150,42.5149782,42.8118532,54.0,105.0
151,42.7493532,42.895837575,58.0,97.0
152,42.9837282,43.446618825,59.0,102.0
153,42.9837282,43.54232195,56.0,92.0
154,43.4524782,43.9993532,51.0,37.0
155,43.9212282,44.4446657,56.0,97.0
156,43.9212282,44.524743825,59.0,108.0
157,42.9837282,44.591150075,44.0,100.0
158,43.9212282,44.73763445,63.0,97.0
159,44.3899782,44.852868825,51.0,92.0
160,44.8587282,45.134118825,54.0,94.0
161,44.8587282,45.411462575,58.0,102.0
162,45.3274782,45.669275075,54.0,73.0
163,45.7962282,45.997400075,54.0,89.0
164,45.7962282,46.33138445,58.0,105.0
165,46.2649782,46.434900075,54.0,94.0
166,45.7962282,46.50325945,63.0,105.0
167,46.7337282,46.966150075,56.0,97.0
168,46.7337282,47.317712575,61.0,97.0
169,47.2024782,47.489587575,56.0,69.0
170,47.6712282,47.8509157,56.0,108.0
171,46.7337282,48.110681325,49.0,84.0
172,47.6712282,48.18294695,61.0,108.0
173,48.1399782,48.3040407,56.0,105.0
174,47.6712282,48.3743532,64.0,94.0
175,48.6087282,49.08138445,54.0,84.0
176,48.6087282,49.114587575,58.0,92.0
177,48.6087282,49.114587575,61.0,87.0
178,49.3118532,49.4524782,54.0,82.0
179,49.0774782,49.669275075,49.0,66.0
180,48.6087282,50.153650075,42.0,102.0
181,49.5462282,50.28450945,58.0,108.0
182,49.5462282,50.3040407,54.0,94.0
183,49.5462282,50.321618825,61.0,97.0
184,50.0149782,50.3431032,49.0,64.0
185,50.4837282,50.743493825,54.0,80.0
186,50.4837282,50.9837282,63.0,92.0
187,50.4837282,51.0227907,59.0,94.0
188,50.9524782,51.1790407,54.0,46.0
189,51.4212282,51.595056325,54.0,97.0
190,50.4837282,52.192712575,47.0,92.0
191,51.4212282,52.2102907,63.0,92.0
192,51.8899782,52.212243825,54.0,108.0
193,52.3587282,52.848962575,61.0,84.0
194,52.3587282,52.860681325,54.0,89.0
195,53.2962282,53.6399782,61.0,100.0
196,53.2962282,53.66732195,54.0,105.0
197,52.3587282,53.825525075,42.0,100.0
198,52.8274782,54.0540407,49.0,49.0
199,53.7649782,54.09700945,58.0,111.0
200,54.2337282,54.62825945,59.0,97.0
201,54.2337282,54.946618825,56.0,92.0
202,54.7024782,55.231775075,51.0,55.0
203,55.1712282,55.419275075,56.0,89.0
204,55.1712282,55.44075945,59.0,100.0
205,55.1712282,55.497400075,63.0,94.0
206,54.2337282,55.790368825,44.0,97.0
207,55.6399782,55.81575945,56.0,108.0
208,55.4056032,55.997400075,51.0,78.0
209,56.1087282,56.345056325,58.0,94.0
210,56.1087282,56.7337282,63.0,92.0
211,56.5774782,56.8665407,58.0,82.0
212,57.0462282,57.19857195,58.0,102.0
213,57.0462282,57.3431032,63.0,108.0
214,56.1087282,57.3587282,51.0,102.0
215,57.0462282,57.37825945,66.0,100.0
216,57.2806032,57.555993825,58.0,94.0
217,57.5149782,57.7415407,63.0,87.0
218,57.9837282,58.680993825,56.0,97.0
219,57.9837282,58.68294695,59.0,100.0
220,57.9837282,59.1243532,40.0,94.0
221,58.4524782,59.149743825,47.0,60.0
222,58.9212282,59.177087575,56.0,97.0
223,58.9212282,59.3899782,59.0,105.0
224,58.9212282,59.47982195,64.0,97.0
225,59.3899782,59.5384157,40.0,92.0
226,59.8587282,60.1399782,56.0,89.0
227,59.8587282,60.454431325,61.0,84.0
228,60.3274782,60.692712575,56.0,94.0
229,59.8587282,60.696618825,37.0,78.0
230,60.7962282,61.0227907,56.0,105.0
231,59.8587282,61.02669695,49.0,67.0
232,60.7962282,61.376306325,61.0,105.0
233,61.2649782,61.53450945,49.0,78.0
234,60.7962282,61.55013445,64.0,97.0
235,61.4993532,61.610681325,56.0,94.0
236,61.7337282,62.290368825,56.0,97.0
237,61.7337282,62.44857195,52.0,80.0
238,62.2024782,62.680993825,47.0,55.0
239,62.6712282,62.92513445,52.0,105.0
240,61.7337282,62.938806325,40.0,102.0
241,62.6712282,63.044275075,59.0,97.0
242,62.9056032,63.345056325,47.0,100.0
243,63.1399782,63.450525075,52.0,102.0
244,63.3743532,63.536462575,56.0,102.0
245,63.6087282,63.8274782,56.0,92.0
246,63.6087282,64.3899782,54.0,89.0
247,64.0774782,64.673181325,49.0,80.0
248,63.6087282,64.747400075,42.0,100.0
249,64.5462282,65.1477907,58.0,117.0
250,64.5462282,65.255212575,54.0,108.0
251,65.0149782,65.36263445,49.0,84.0
252,65.4837282,65.766931325,54.0,80.0
253,65.4837282,66.0071657,59.0,82.0
254,65.4837282,66.0462282,63.0,92.0
255,65.9524782,66.24544695,54.0,78.0
256,65.4837282,66.567712575,47.0,89.0
257,66.4212282,66.65950945,54.0,102.0
258,66.6556032,66.864587575,47.0,97.0
259,66.4212282,67.075525075,63.0,89.0
260,66.8899782,67.22200945,54.0,100.0
261,67.3587282,67.930993825,58.0,89.0
262,67.3587282,68.001306325,54.0,87.0
263,67.8274782,68.360681325,49.0,55.0
264,68.2962282,68.56575945,54.0,100.0
265,67.3587282,68.595056325,42.0,102.0
266,68.2962282,68.7493532,58.0,111.0
267,68.2962282,68.99544695,61.0,97.0
268,68.7649782,69.0618532,54.0,84.0
269,68.5306032,69.106775075,49.0,87.0
270,69.2337282,69.649743825,59.0,97.0
271,69.2337282,69.7571657,56.0,97.0
272,69.9368532,70.048181325,56.0,89.0
273,69.7024782,70.212243825,51.0,57.0
274,70.1712282,70.462243825,56.0,111.0
275,70.1712282,70.47982195,63.0,100.0
276,70.6399782,70.81575945,56.0,97.0
277,69.2337282,70.829431325,44.0,97.0
278,70.6399782,70.903650075,61.0,97.0
279,70.4056032,70.9446657,51.0,94.0
280,70.8743532,71.0227907,59.0,73.0
281,71.1087282,71.38607195,58.0,87.0
282,71.1087282,71.661462575,63.0,76.0
283,71.5774782,71.87044695,58.0,84.0
284,72.0462282,72.259118825,58.0,108.0
285,71.1087282,72.313806325,51.0,100.0
286,72.0462282,72.575525075,63.0,105.0
287,72.5149782,72.6321657,58.0,97.0
288,72.0462282,72.6712282,66.0,100.0
289,72.9837282,73.247400075,59.0,92.0
290,72.9837282,73.5227907,64.0,76.0
291,73.4524782,73.7181032,59.0,97.0
292,72.9837282,73.895837575,40.0,84.0
293,73.9212282,74.153650075,59.0,102.0
294,74.3899782,74.622400075,59.0,82.0
295,73.9212282,74.634118825,64.0,102.0
296,73.9212282,74.708337575,68.0,100.0
297,74.8587282,75.169275075,63.0,84.0
298,75.3274782,75.68294695,63.0,67.0
299,74.8587282,75.69075945,66.0,82.0
300,75.7962282,76.059900075,63.0,108.0
301,74.8587282,76.15169695,51.0,80.0
302,75.7962282,76.37044695,66.0,108.0
303,75.7962282,76.3977907,70.0,100.0
304,76.2649782,76.47982195,63.0,67.0
305,76.7337282,77.251306325,61.0,80.0
306,76.7337282,77.48763445,64.0,87.0
307,77.2024782,77.5227907,56.0,66.0
308,77.4368532,77.8821657,59.0,114.0
309,76.7337282,77.9759157,49.0,97.0
310,77.6712282,77.981775075,56.0,100.0
311,77.9056032,78.19857195,64.0,114.0
312,78.1399782,78.45638445,61.0,69.0
313,78.3743532,78.4602907,64.0,78.0
314,78.6087282,78.891931325,54.0,82.0
315,78.6087282,79.0696657,58.0,102.0
316,78.8431032,79.388025075,49.0,58.0
317,79.0774782,79.6556032,54.0,62.0
318,79.3118532,79.790368825,61.0,100.0
319,79.5462282,79.884118825,49.0,80.0
320,78.6087282,79.8977907,42.0,94.0
321,80.0149782,80.2415407,54.0,92.0
322,79.7806032,80.3196657,66.0,111.0
323,80.4837282,80.731775075,54.0,92.0
324,80.4837282,81.231775075,59.0,92.0
325,80.9524782,81.290368825,54.0,40.0
326,81.4212282,81.6165407,54.0,94.0
327,81.4212282,81.7024782,61.0,89.0
328,81.6556032,81.915368825,59.0,80.0
329,80.4837282,82.2088499125,47.0,92.0
330,81.8899782,82.221145,54.0,82.0
331,82.37073523125,82.6678665125,54.0,73.0
332,82.37073523125,83.15317013125001,59.0,69.0
333,82.37073523125,83.16684200625001,63.0,80.0
334,82.86215450625001,83.22152950625001,54.0,46.0
335,82.37073523125,83.50668575625001,47.0,89.0
336,83.33090450625001,84.06332638125001,54.0,64.0
337,83.33090450625001,84.06332638125001,59.0,73.0
338,83.33090450625001,84.06332638125001,63.0,69.0
339,84.26840450625001,84.57113888125001,59.0,73.0
340,84.26840450625001,84.81527950625001,63.0,78.0
341,84.50277950625001,86.45981075625001,54.0,78.0
342,84.73715450625001,86.90707638125001,59.0,92.0
343,84.97152950625001,87.11410763125001,63.0,102.0
344,84.97152950625001,87.23324825625001,66.0,97.0
345,86.84652950625001,87.42465450625001,54.0,52.0
346,87.08090450625001,87.49887325625001,59.0,82.0
347,87.31527950625001,87.50668575625001,63.0,97.0
348,84.26840450625001,87.53012325625001,47.0,97.0
349,88.01840450625001,88.53988888125001,56.0,78.0
350,88.01840450625001,88.76059200625001,59.0,92.0
351,88.48715450625001,89.03402950625001,51.0,23.0
352,88.95590450625001,89.18637325625001,59.0,73.0
353,88.01840450625001,89.20981075625001,44.0,92.0
354,88.72152950625001,89.20981075625001,56.0,82.0
355,89.19027950625001,89.28793575625001,63.0,100.0
356,89.89340450625001,91.05356075625001,52.0,67.0
357,89.89340450625001,91.06918575625001,56.0,73.0
358,89.89340450625001,91.10824825625001,59.0,82.0
359,89.89340450625001,91.21371700625001,40.0,89.0
360,91.76840450625001,92.04574825625001,56.0,40.0
361,91.76840450625001,92.31332638125001,59.0,78.0
362,92.23715450625001,92.40121700625001,56.0,105.0
363,92.00277950625001,92.53012325625001,51.0,58.0
364,92.47152950625001,93.17270138125001,56.0,94.0
365,91.76840450625001,93.44418575625001,44.0,84.0
366,92.47152950625001,93.44613888125001,59.0,97.0
367,92.47152950625001,93.49496700625001,63.0,100.0
368,93.40902950625001,93.53402950625001,56.0,82.0
369,93.17465450625001,93.56137325625001,51.0,73.0
370,93.64340450625001,93.94809200625001,54.0,84.0
371,93.64340450625001,94.22348263125001,58.0,89.0
372,93.87777950625001,94.46762325625001,51.0,58.0
373,93.64340450625001,94.63363888125001,42.0,92.0
374,94.11215450625001,94.69027950625001,54.0,84.0
375,94.34652950625001,94.84652950625001,58.0,105.0
376,94.34652950625001,95.08481075625001,63.0,100.0
377,94.58090450625001,95.12387325625001,51.0,89.0
378,94.81527950625001,95.12582638125001,54.0,92.0
379,95.04965450625001,95.19027950625001,58.0,87.0
380,95.51840450625001,95.60238888125001,40.0,97.0
381,95.51840450625001,95.86606075625001,52.0,78.0
382,95.51840450625001,95.92660763125001,56.0,89.0
383,96.45590450625001,96.63559200625001,64.0,111.0
384,96.22152950625001,96.73324825625001,59.0,87.0
385,96.69027950625001,96.76254513125001,64.0,23.0
386,95.98715450625001,97.19027950625001,52.0,87.0
387,96.92465450625001,97.24106075625001,59.0,73.0
388,97.15902950625001,97.30160763125001,64.0,76.0
389,96.69027950625001,97.32113888125001,71.0,102.0
390,97.39340450625001,98.15317013125001,68.0,84.0
391,97.39340450625001,98.18051388125001,64.0,78.0
392,97.39340450625001,98.26840450625001,52.0,89.0
393,97.39340450625001,98.28012325625001,59.0,89.0
394,98.33090450625001,98.45004513125001,52.0,111.0
395,98.33090450625001,98.45981075625001,64.0,92.0
396,98.33090450625001,98.46567013125001,56.0,84.0
397,98.56527950625001,98.67660763125001,51.0,89.0
398,98.56527950625001,98.69027950625001,63.0,89.0
399,98.56527950625001,98.70004513125001,54.0,82.0
400,98.79965450625001,99.14340450625001,49.0,94.0
401,98.79965450625001,99.17074825625001,52.0,92.0
402,98.79965450625001,99.17660763125001,61.0,94.0
403,99.26840450625001,99.52621700625001,54.0,73.0
404,99.26840450625001,99.78793575625001,59.0,84.0
405,99.73715450625001,100.09652950625001,54.0,87.0
406,100.20590450625001,100.39340450625001,54.0,94.0
407,100.20590450625001,100.70981075625001,59.0,108.0
408,100.67465450625001,100.99496700625001,54.0,105.0
409,99.26840450625001,101.05551388125001,47.0,80.0
410,100.20590450625001,101.07699825625001,63.0,97.0
411,101.14340450625001,101.62192013125001,58.0,89.0
412,101.14340450625001,101.87192013125001,54.0,87.0
413,101.61215450625001,102.23520138125001,49.0,37.0
414,102.08090450625001,102.56527950625001,61.0,97.0
415,102.08090450625001,102.61996700625001,54.0,105.0
416,101.14340450625001,102.62777950625001,42.0,92.0
417,102.54965450625001,102.97152950625001,49.0,108.0
418,103.01840450625001,103.53012325625001,56.0,92.0
419,103.01840450625001,103.78012325625001,52.0,78.0
420,103.48715450625001,104.09652950625001,47.0,34.0
421,103.01840450625001,104.18051388125001,40.0,89.0
422,103.95590450625001,104.35043575625001,52.0,92.0
423,103.95590450625001,104.38559200625001,56.0,120.0
424,103.95590450625001,104.52035763125001,59.0,105.0
425,104.42465450625001,104.76449825625001,40.0,92.0
426,104.89340450625001,105.42074825625001,58.0,89.0
427,104.89340450625001,105.48910763125001,54.0,80.0
428,105.36215450625001,105.95395138125001,49.0,41.0
429,105.83090450625001,106.08871700625001,54.0,94.0
430,105.83090450625001,106.15707638125001,58.0,111.0
431,105.83090450625001,106.21762325625001,61.0,94.0
432,104.89340450625001,106.32699825625001,42.0,100.0
433,106.06527950625001,106.54770138125001,49.0,80.0
434,106.29965450625001,106.59652950625001,54.0,105.0
435,106.53402950625001,106.68051388125001,58.0,97.0
436,106.76840450625001,107.23129513125001,59.0,102.0
437,106.76840450625001,107.32699825625001,56.0,92.0
438,107.23715450625001,107.78402950625001,51.0,37.0
439,107.70590450625001,108.22934200625001,56.0,97.0
440,107.70590450625001,108.30942013125001,59.0,108.0
441,106.76840450625001,108.37582638125001,44.0,100.0
442,107.70590450625001,108.52231075625001,63.0,97.0
443,108.17465450625001,108.63754513125001,51.0,92.0
444,108.64340450625001,108.91879513125001,54.0,94.0
445,108.64340450625001,109.19613888125001,58.0,102.0
446,109.11215450625001,109.45395138125001,54.0,73.0
447,109.58090450625001,109.78207638125001,54.0,89.0
448,109.58090450625001,110.11606075625001,58.0,105.0
449,110.04965450625001,110.21957638125001,54.0,94.0
450,109.58090450625001,110.28793575625001,63.0,105.0
451,110.51840450625001,110.75082638125001,56.0,97.0
452,110.51840450625001,111.10238888125001,61.0,97.0
453,110.98715450625001,111.27426388125001,56.0,69.0
454,111.45590450625001,111.63559200625001,56.0,108.0
455,110.51840450625001,111.89535763125001,49.0,84.0
456,111.45590450625001,111.96762325625001,61.0,108.0
457,111.92465450625001,112.08871700625001,56.0,105.0
458,111.45590450625001,112.15902950625001,64.0,94.0
459,112.39340450625001,112.86606075625001,54.0,84.0
460,112.39340450625001,112.89926388125001,58.0,92.0
461,112.39340450625001,112.89926388125001,61.0,87.0
462,113.09652950625001,113.23715450625001,54.0,82.0
463,112.86215450625001,113.45395138125001,49.0,66.0
464,112.39340450625001,113.93832638125001,42.0,102.0
465,113.33090450625001,114.06918575625001,58.0,108.0
466,113.33090450625001,114.08871700625001,54.0,94.0
467,113.33090450625001,114.10629513125001,61.0,97.0
468,113.79965450625001,114.12777950625001,49.0,64.0
469,114.26840450625001,114.52817013125001,54.0,80.0
470,114.26840450625001,114.76840450625001,63.0,92.0
471,114.26840450625001,114.80746700625001,59.0,94.0
472,114.73715450625001,114.96371700625001,54.0,46.0
473,115.20590450625001,115.37973263125001,54.0,97.0
474,114.26840450625001,115.97738888125001,47.0,92.0
475,115.20590450625001,115.99496700625001,63.0,92.0
476,115.67465450625001,115.99692013125001,54.0,108.0
477,116.14340450625001,116.63363888125001,61.0,84.0
478,116.14340450625001,116.64535763125001,54.0,89.0
479,117.08090450625001,117.42465450625001,61.0,100.0
480,117.08090450625001,117.45199825625001,54.0,105.0
481,116.14340450625001,117.61020138125001,42.0,100.0
482,116.61215450625001,117.83871700625001,49.0,49.0
483,117.54965450625001,117.88168575625001,58.0,111.0
484,118.01840450625001,118.41293575625001,59.0,97.0
485,118.01840450625001,118.73129513125001,56.0,92.0
486,118.48715450625001,119.01645138125001,51.0,55.0
487,118.95590450625001,119.20395138125001,56.0,89.0
488,118.95590450625001,119.22543575625001,59.0,100.0
489,118.95590450625001,119.28207638125001,63.0,94.0
490,118.01840450625001,119.57504513125001,44.0,97.0
491,119.42465450625001,119.60043575625001,56.0,108.0
492,119.19027950625001,119.78207638125001,51.0,78.0
493,119.89340450625001,120.12973263125001,58.0,94.0
494,119.89340450625001,120.51840450625001,63.0,92.0
495,120.36215450625001,120.65121700625001,58.0,82.0
496,120.83090450625001,120.98324825625001,58.0,102.0
497,120.83090450625001,121.12777950625001,63.0,108.0
498,119.89340450625001,121.14340450625001,51.0,102.0
499,120.83090450625001,121.16293575625001,66.0,100.0
500,121.06527950625001,121.34067013125001,58.0,94.0
501,121.29965450625001,121.52621700625001,63.0,87.0
502,121.76840450625001,122.46567013125001,56.0,97.0
503,121.76840450625001,122.46762325625001,59.0,100.0
504,121.76840450625001,122.90902950625001,40.0,94.0
505,122.23715450625001,122.93442013125001,47.0,60.0
506,122.70590450625001,122.96176388125001,56.0,97.0
507,122.70590450625001,123.17465450625001,59.0,105.0
508,122.70590450625001,123.26449825625001,64.0,97.0
509,123.17465450625001,123.32309200625001,40.0,92.0
510,123.64340450625001,123.92465450625001,56.0,89.0
511,123.64340450625001,124.23910763125001,61.0,84.0
512,124.11215450625001,124.47738888125001,56.0,94.0
513,123.64340450625001,124.48129513125001,37.0,78.0
514,124.58090450625001,124.80746700625001,56.0,105.0
515,123.64340450625001,124.81137325625001,49.0,67.0
516,124.58090450625001,125.16098263125001,61.0,105.0
517,125.04965450625001,125.31918575625001,49.0,78.0
518,124.58090450625001,125.33481075625001,64.0,97.0
519,125.28402950625001,125.39535763125001,56.0,94.0
520,125.51840450625001,126.07504513125001,56.0,97.0
521,125.51840450625001,126.23324825625001,52.0,80.0
522,125.98715450625001,126.46567013125001,47.0,55.0
523,126.45590450625001,126.70981075625001,52.0,105.0
524,125.51840450625001,126.72348263125001,40.0,102.0
525,126.45590450625001,126.82895138125001,59.0,97.0
526,126.69027950625001,127.12973263125001,47.0,100.0
527,126.92465450625001,127.23520138125001,52.0,102.0
528,127.15902950625001,127.32113888125001,56.0,102.0
529,127.39340450625001,127.61215450625001,56.0,92.0
530,127.39340450625001,128.17465450625002,54.0,89.0
531,127.86215450625001,128.45785763125002,49.0,80.0
532,127.39340450625001,128.53207638125002,42.0,100.0
533,128.33090450625002,128.93246700625002,58.0,117.0
534,128.33090450625002,129.03988888125002,54.0,108.0
535,128.79965450625002,129.14731075625002,49.0,84.0
536,129.26840450625002,129.55160763125002,54.0,80.0
537,129.26840450625002,129.79184200625002,59.0,82.0
538,129.26840450625002,129.83090450625002,63.0,92.0
539,129.73715450625002,130.03012325625002,54.0,78.0
540,129.26840450625002,130.35238888125002,47.0,89.0
541,130.20590450625002,130.44418575625002,54.0,102.0
542,130.44027950625002,130.64926388125002,47.0,97.0
543,130.20590450625002,130.86020138125002,63.0,89.0
544,130.67465450625002,131.00668575625002,54.0,100.0
545,131.14340450625002,131.71567013125002,58.0,89.0
546,131.14340450625002,131.78598263125002,54.0,87.0
547,131.61215450625002,132.14535763125002,49.0,55.0
548,132.08090450625002,132.35043575625002,54.0,100.0
549,131.14340450625002,132.37973263125002,42.0,102.0
550,132.08090450625002,132.53402950625002,58.0,111.0
551,132.08090450625002,132.78012325625002,61.0,97.0
552,132.54965450625002,132.84652950625002,54.0,84.0
553,132.31527950625002,132.89145138125002,49.0,87.0
554,133.01840450625002,133.43442013125002,59.0,97.0
555,133.01840450625002,133.54184200625002,56.0,97.0
556,133.72152950625002,133.83285763125002,56.0,89.0
557,133.48715450625002,133.99692013125002,51.0,57.0
558,133.95590450625002,134.24692013125002,56.0,111.0
559,133.95590450625002,134.26449825625002,63.0,100.0
560,134.42465450625002,134.60043575625002,56.0,97.0
561,133.01840450625002,134.61410763125002,44.0,97.0
562,134.42465450625002,134.68832638125002,61.0,97.0
563,134.19027950625002,134.72934200625002,51.0,94.0
564,134.65902950625002,134.80746700625002,59.0,73.0
565,134.89340450625002,135.17074825625002,58.0,87.0
566,134.89340450625002,135.44613888125002,63.0,76.0
567,135.36215450625002,135.65512325625002,58.0,84.0
568,135.83090450625002,136.04379513125002,58.0,108.0
569,134.89340450625002,136.09848263125002,51.0,100.0
570,135.83090450625002,136.36020138125002,63.0,105.0
571,136.29965450625002,136.41684200625002,58.0,97.0
572,135.83090450625002,136.45590450625002,66.0,100.0
573,136.76840450625002,137.03207638125002,59.0,92.0
574,136.76840450625002,137.30746700625002,64.0,76.0
575,137.23715450625002,137.50277950625002,59.0,97.0
576,136.76840450625002,137.68051388125002,40.0,84.0
577,137.70590450625002,137.93832638125002,59.0,102.0
578,138.17465450625002,138.40707638125002,59.0,82.0
579,137.70590450625002,138.41879513125002,64.0,102.0
580,137.70590450625002,138.49301388125002,68.0,100.0
581,138.64340450625002,138.95395138125002,63.0,84.0
582,139.11215450625002,139.46762325625002,63.0,67.0
583,138.64340450625002,139.47543575625002,66.0,82.0
584,139.58090450625002,139.84457638125002,63.0,108.0
585,138.64340450625002,139.93637325625002,51.0,80.0
586,139.58090450625002,140.15512325625002,66.0,108.0
587,139.58090450625002,140.18246700625002,70.0,100.0
588,140.04965450625002,140.26449825625002,63.0,67.0
589,140.51840450625002,141.03598263125002,61.0,80.0
590,140.51840450625002,141.27231075625002,64.0,87.0
591,140.98715450625002,141.30746700625002,56.0,66.0
592,141.22152950625002,141.66684200625002,59.0,114.0
593,140.51840450625002,141.76059200625002,49.0,97.0
594,141.45590450625002,141.76645138125002,56.0,100.0
595,141.69027950625002,141.98324825625002,64.0,114.0
596,141.92465450625002,142.24106075625002,61.0,69.0
597,142.15902950625002,142.24496700625002,64.0,78.0
598,142.39340450625002,142.67660763125002,54.0,82.0
599,142.39340450625002,142.85434200625002,58.0,102.0
600,142.62777950625002,143.17270138125002,49.0,58.0
601,142.86215450625002,143.44027950625002,54.0,62.0
602,143.09652950625002,143.57504513125002,61.0,100.0
603,143.33090450625002,143.66879513125002,49.0,80.0
604,142.39340450625002,143.68246700625002,42.0,94.0
605,143.79965450625002,144.02621700625002,54.0,92.0
606,143.56527950625002,144.10434200625002,66.0,111.0
607,144.26840450625002,144.51645138125002,54.0,92.0
608,144.26840450625002,145.01645138125002,59.0,92.0
609,144.73715450625002,145.07504513125002,54.0,40.0
610,145.20590450625002,145.40121700625002,54.0,94.0
611,145.20590450625002,145.48715450625002,61.0,89.0
612,145.44027950625002,145.70004513125002,59.0,80.0
613,144.26840450625002,145.98910763125002,47.0,92.0
614,145.67465450625002,146.00082638125002,54.0,82.0
615,146.14340450625002,146.42660763125002,54.0,73.0
616,146.14340450625002,146.90317013125002,59.0,69.0
617,146.14340450625002,146.91684200625002,63.0,80.0
618,146.61215450625002,146.97152950625002,54.0,46.0
619,146.14340450625002,147.25668575625002,47.0,89.0
620,147.08090450625002,147.81137325625002,54.0,64.0
621,147.08090450625002,147.81137325625002,59.0,73.0
622,147.08090450625002,147.81137325625002,63.0,69.0
623,148.01840450625002,148.11606075625002,40.0,97.0
624,148.01840450625002,148.49496700625002,59.0,97.0
625,148.01840450625002,148.74887325625002,64.0,100.0
626,148.01840450625002,148.87387325625002,68.0,94.0
627,148.95590450625002,149.13168575625002,64.0,108.0
628,148.72152950625002,149.27817013125002,59.0,111.0
629,149.19027950625002,149.36606075625002,68.0,117.0
630,148.48715450625002,149.70785763125002,52.0,84.0
631,149.65902950625002,149.77035763125002,64.0,84.0
632,149.89340450625002,150.11215450625002,64.0,100.0
633,149.89340450625002,150.17074825625002,59.0,89.0
634,149.89340450625002,150.23520138125002,68.0,100.0
635,149.89340450625002,150.25668575625002,52.0,92.0
636,150.36215450625002,150.44809200625002,64.0,92.0
637,150.59652950625002,150.70981075625002,68.0,108.0
638,150.59652950625002,150.72738888125002,64.0,105.0
639,150.83090450625002,150.90512325625002,42.0,76.0
640,151.06527950625002,151.39731075625002,54.0,100.0
641,151.06527950625002,151.44223263125002,58.0,111.0
642,151.06527950625002,151.49887325625002,42.0,105.0
643,151.76840450625002,152.26840450625002,59.0,102.0
644,151.76840450625002,152.28793575625002,56.0,97.0
645,152.23715450625002,152.53598263125002,51.0,66.0
646,152.47152950625002,152.70981075625002,59.0,114.0
647,152.47152950625002,152.72543575625002,56.0,102.0
648,152.47152950625002,152.74106075625002,63.0,108.0
649,152.94027950625002,152.99692013125002,68.0,66.0
650,151.76840450625002,153.01254513125002,44.0,102.0
651,152.70590450625002,153.05746700625002,51.0,66.0
652,153.17465450625002,153.26449825625002,51.0,78.0
653,152.94027950625002,153.31137325625002,56.0,108.0
654,153.17465450625002,153.47934200625002,44.0,102.0
655,153.40902950625002,153.72348263125002,68.0,102.0
656,154.11215450625002,154.22348263125002,54.0,82.0
657,153.87777950625002,154.41098263125002,49.0,44.0
658,154.34652950625002,154.71762325625002,58.0,117.0
659,154.34652950625002,154.71957638125002,54.0,100.0
660,154.34652950625002,154.73520138125002,61.0,100.0
661,153.64340450625002,154.81332638125002,42.0,108.0
662,154.81527950625002,155.01840450625002,54.0,105.0
663,154.81527950625002,155.03207638125002,58.0,102.0
664,154.58090450625002,155.04379513125002,49.0,84.0
665,155.04965450625002,155.18442013125002,42.0,94.0
666,155.51840450625002,155.78988888125002,61.0,97.0
667,155.51840450625002,156.02035763125002,64.0,108.0
668,155.51840450625002,156.09652950625002,49.0,100.0
669,155.75277950625002,156.10238888125002,56.0,87.0
670,155.98715450625002,156.10434200625002,61.0,100.0
671,156.22152950625002,156.68246700625002,63.0,97.0
672,156.22152950625002,156.69027950625002,66.0,92.0
673,156.22152950625002,156.70395138125002,51.0,105.0
674,156.92465450625002,157.69418575625002,64.0,94.0
675,156.92465450625002,157.93637325625002,68.0,102.0
676,157.86215450625002,157.97348263125002,64.0,76.0
677,157.62777950625002,158.18637325625002,59.0,100.0
678,158.09652950625002,158.39340450625002,71.0,92.0
679,158.09652950625002,158.41098263125002,64.0,94.0
680,158.33090450625002,158.52231075625002,59.0,82.0
681,156.92465450625002,158.57895138125002,52.0,105.0
682,158.56527950625002,158.70785763125002,64.0,97.0
683,158.56527950625002,158.84262325625002,68.0,102.0
684,158.79965450625002,158.93051388125002,64.0,84.0
685,159.26840450625002,159.51645138125002,54.0,97.0
686,159.26840450625002,159.77621700625002,58.0,102.0
687,159.73715450625002,160.05160763125002,54.0,84.0
688,159.50277950625002,160.13168575625002,49.0,57.0
689,159.97152950625002,160.49887325625002,61.0,108.0
690,160.20590450625002,160.55942013125002,49.0,45.0
691,160.67465450625002,160.79184200625002,54.0,92.0
692,159.26840450625002,160.85238888125002,42.0,97.0
693,160.44027950625002,160.85238888125002,66.0,105.0
694,161.14340450625002,162.92074825625002,42.0,94.0
695,161.14340450625002,162.92074825625002,70.0,52.0
696,161.14340450625002,162.93246700625002,66.0,58.0
697,163.01840450625002,163.27817013125002,54.0,80.0
698,163.01840450625002,163.51840450625002,63.0,92.0
699,163.01840450625002,163.55746700625002,59.0,94.0
700,163.48715450625002,163.71371700625002,54.0,46.0
701,163.95590450625002,164.12973263125002,54.0,97.0
702,163.01840450625002,164.72738888125002,47.0,92.0
703,163.95590450625002,164.74496700625002,63.0,92.0
704,164.42465450625002,164.74692013125002,54.0,108.0
705,164.89340450625002,165.38363888125002,61.0,84.0
706,164.89340450625002,165.39535763125002,54.0,89.0
707,165.83090450625002,166.17465450625002,61.0,100.0
708,165.83090450625002,166.20199825625002,54.0,105.0
709,164.89340450625002,166.36020138125002,42.0,100.0
710,165.36215450625002,166.58871700625002,49.0,49.0
711,166.29965450625002,166.63168575625002,58.0,111.0
712,166.76840450625002,167.16293575625002,59.0,97.0
713,166.76840450625002,167.48129513125002,56.0,92.0
714,167.23715450625002,167.76645138125002,51.0,55.0
715,167.70590450625002,167.95395138125002,56.0,89.0
716,167.70590450625002,167.97543575625002,59.0,100.0
717,167.70590450625002,168.03207638125002,63.0,94.0
718,166.76840450625002,168.32504513125002,44.0,97.0
719,168.17465450625002,168.35043575625002,56.0,108.0
720,167.94027950625002,168.53207638125002,51.0,78.0
721,168.64340450625002,168.87973263125002,58.0,94.0
722,168.64340450625002,169.26840450625002,63.0,92.0
723,169.11215450625002,169.40121700625002,58.0,82.0
724,169.58090450625002,169.73324825625002,58.0,102.0
725,169.58090450625002,169.87777950625002,63.0,108.0
726,168.64340450625002,169.89340450625002,51.0,102.0
727,169.58090450625002,169.91293575625002,66.0,100.0
728,169.81527950625002,170.09067013125002,58.0,94.0
729,170.04965450625002,170.27621700625002,63.0,87.0
730,170.51840450625002,171.21567013125002,56.0,97.0
731,170.51840450625002,171.21762325625002,59.0,100.0
732,170.51840450625002,171.65902950625002,40.0,94.0
733,170.98715450625002,171.68442013125002,47.0,60.0
734,171.45590450625002,171.71176388125002,56.0,97.0
735,171.45590450625002,171.92465450625002,59.0,105.0
736,171.45590450625002,172.01449825625002,64.0,97.0
737,171.92465450625002,172.07309200625002,40.0,92.0
738,172.39340450625002,172.67465450625002,56.0,89.0
739,172.39340450625002,172.98910763125002,61.0,84.0
740,172.86215450625002,173.22738888125002,56.0,94.0
741,172.39340450625002,173.23129513125002,37.0,78.0
742,173.33090450625002,173.55746700625002,56.0,105.0
743,172.39340450625002,173.56137325625002,49.0,67.0
744,173.33090450625002,173.91098263125002,61.0,105.0
745,173.79965450625002,174.06918575625002,49.0,78.0
746,173.33090450625002,174.08481075625002,64.0,97.0
747,174.03402950625002,174.14535763125002,56.0,94.0
748,174.26840450625002,174.82504513125002,56.0,97.0
749,174.26840450625002,174.98324825625002,52.0,80.0
750,174.73715450625002,175.21567013125002,47.0,55.0
751,175.20590450625002,175.45981075625002,52.0,105.0
752,174.26840450625002,175.47348263125002,40.0,102.0
753,175.20590450625002,175.57895138125002,59.0,97.0
754,175.44027950625002,175.87973263125002,47.0,100.0
755,175.67465450625002,175.98520138125002,52.0,102.0
756,175.90902950625002,176.07113888125002,56.0,102.0
757,176.14340450625002,176.36215450625002,56.0,92.0
758,176.14340450625002,176.92465450625002,54.0,89.0
759,176.61215450625002,177.20785763125002,49.0,80.0
760,176.14340450625002,177.28207638125002,42.0,100.0
761,177.08090450625002,177.68246700625002,58.0,117.0
762,177.08090450625002,177.78988888125002,54.0,108.0
763,177.54965450625002,177.89731075625002,49.0,84.0
764,178.01840450625002,178.30160763125002,54.0,80.0
765,178.01840450625002,178.54184200625002,59.0,82.0
766,178.01840450625002,178.58090450625002,63.0,92.0
767,178.48715450625002,178.78012325625002,54.0,78.0
768,178.01840450625002,179.10238888125002,47.0,89.0
769,178.95590450625002,179.19418575625002,54.0,102.0
770,179.19027950625002,179.39926388125002,47.0,97.0
771,178.95590450625002,179.61020138125002,63.0,89.0
772,179.42465450625002,179.75668575625002,54.0,100.0
773,179.89340450625002,180.46567013125002,58.0,89.0
774,179.89340450625002,180.53598263125002,54.0,87.0
775,180.36215450625002,180.89535763125002,49.0,55.0
776,180.83090450625002,181.10043575625002,54.0,100.0
777,179.89340450625002,181.12973263125002,42.0,102.0
778,180.83090450625002,181.28402950625002,58.0,111.0
779,180.83090450625002,181.53012325625002,61.0,97.0
780,181.29965450625002,181.59652950625002,54.0,84.0
781,181.06527950625002,181.64145138125002,49.0,87.0
782,181.76840450625002,182.18442013125002,59.0,97.0
783,181.76840450625002,182.29184200625002,56.0,97.0
784,182.47152950625002,182.58285763125002,56.0,89.0
785,182.23715450625002,182.74692013125002,51.0,57.0
786,182.70590450625002,182.99692013125002,56.0,111.0
787,182.70590450625002,183.01449825625002,63.0,100.0
788,183.17465450625002,183.35043575625002,56.0,97.0
789,181.76840450625002,183.36410763125002,44.0,97.0
790,183.17465450625002,183.43832638125002,61.0,97.0
791,182.94027950625002,183.47934200625002,51.0,94.0
792,183.40902950625002,183.55746700625002,59.0,73.0
793,183.64340450625002,183.92074825625002,58.0,87.0
794,183.64340450625002,184.19613888125002,63.0,76.0
795,184.11215450625002,184.40512325625002,58.0,84.0
796,184.58090450625002,184.79379513125002,58.0,108.0
797,183.64340450625002,184.84848263125002,51.0,100.0
798,184.58090450625002,185.11020138125002,63.0,105.0
799,185.04965450625002,185.16684200625002,58.0,97.0
800,184.58090450625002,185.20590450625002,66.0,100.0
801,185.51840450625002,185.78207638125002,59.0,92.0
802,185.51840450625002,186.05746700625002,64.0,76.0
803,185.98715450625002,186.25277950625002,59.0,97.0
804,185.51840450625002,186.43051388125002,40.0,84.0
805,186.45590450625002,186.68832638125002,59.0,102.0
806,186.92465450625002,187.15707638125002,59.0,82.0
807,186.45590450625002,187.16879513125002,64.0,102.0
808,186.45590450625002,187.24301388125002,68.0,100.0
809,187.39340450625002,187.70395138125002,63.0,84.0
810,187.86215450625002,188.21762325625002,63.0,67.0
811,187.39340450625002,188.22543575625002,66.0,82.0
812,188.33090450625002,188.59457638125002,63.0,108.0
813,187.39340450625002,188.68637325625002,51.0,80.0
814,188.33090450625002,188.90512325625002,66.0,108.0
815,188.33090450625002,188.93246700625002,70.0,100.0
816,188.79965450625002,189.01449825625002,63.0,67.0
817,189.26840450625002,189.78598263125002,61.0,80.0
818,189.26840450625002,190.02231075625002,64.0,87.0
819,189.73715450625002,190.05746700625002,56.0,66.0
820,189.97152950625002,190.41684200625002,59.0,114.0
821,189.26840450625002,190.51059200625002,49.0,97.0
822,190.20590450625002,190.51645138125002,56.0,100.0
823,190.44027950625002,190.73324825625002,64.0,114.0
824,190.67465450625002,190.99106075625002,61.0,69.0
825,190.90902950625002,190.99496700625002,64.0,78.0
826,191.14340450625002,191.42660763125002,54.0,82.0
827,191.14340450625002,191.60434200625002,58.0,102.0
828,191.37777950625002,191.92270138125002,49.0,58.0
829,191.61215450625002,192.19027950625002,54.0,62.0
830,191.84652950625002,192.32504513125002,61.0,100.0
831,192.08090450625002,192.41879513125002,49.0,80.0
832,191.14340450625002,192.43246700625002,42.0,94.0
833,192.54965450625002,192.77621700625002,54.0,92.0
834,192.31527950625002,192.85434200625002,66.0,111.0
835,193.01840450625002,193.26645138125002,51.0,92.0
836,193.01840450625002,193.76645138125002,59.0,92.0
837,193.48715450625002,193.82504513125002,51.0,40.0
838,193.95590450625002,194.15121700625002,51.0,94.0
839,193.95590450625002,194.23715450625002,59.0,89.0
840,194.19027950625002,194.45004513125002,58.0,80.0
841,193.01840450625002,194.73910763125002,44.0,92.0
842,194.42465450625002,194.75082638125002,51.0,82.0
843,194.89340450625002,195.65317013125002,59.0,69.0
844,194.89340450625002,195.66684200625002,68.0,80.0
845,194.89340450625002,196.39731075625002,51.0,73.0
846,196.76840450625002,197.46567013125002,64.0,80.0
847,196.76840450625002,197.46957638125002,61.0,76.0
848,197.23715450625002,197.72738888125002,56.0,66.0
849,196.76840450625002,197.73520138125002,49.0,100.0
850,197.70590450625002,197.90902950625002,61.0,89.0
851,197.70590450625002,198.17465450625002,64.0,87.0
852,198.17465450625002,198.32113888125002,61.0,87.0
853,198.64340450625002,199.44223263125002,61.0,92.0
854,198.64340450625002,199.44613888125002,54.0,71.0
855,198.64340450625002,199.81137325625002,42.0,89.0
856,199.11215450625002,199.86606075625002,49.0,43.0
857,199.58090450625002,200.35629513125002,54.0,80.0
858,199.58090450625002,200.36996700625002,61.0,80.0
859,200.04965450625002,200.42074825625002,42.0,84.0
860,200.51840450625002,200.74887325625002,54.0,76.0
861,200.98715450625002,201.32504513125002,54.0,60.0
862,200.51840450625002,201.40121700625002,61.0,78.0
863,200.51840450625002,201.64145138125002,47.0,84.0
864,201.45590450625002,201.72152950625002,54.0,82.0
865,201.45590450625002,202.00082638125002,59.0,87.0
866,201.92465450625002,202.32504513125002,54.0,84.0
867,202.39340450625002,202.60238888125002,54.0,60.0
868,202.39340450625002,203.01059200625002,63.0,80.0
869,202.39340450625002,203.14535763125002,59.0,82.0
870,202.86215450625002,203.16293575625002,54.0,52.0
871,202.39340450625002,203.53012325625002,47.0,76.0
872,203.33090450625002,203.68442013125002,54.0,105.0
873,203.33090450625002,203.73520138125002,59.0,100.0
874,203.79965450625002,203.91098263125002,47.0,89.0
875,204.27621700625002,204.90317013125002,59.0,71.0
876,204.28012325625002,204.91488888125002,64.0,84.0
877,204.74692013125002,205.35238888125002,56.0,69.0
878,204.27621700625002,206.00473263125002,49.0,97.0
879,205.77621700625002,206.02621700625002,56.0,66.0
880,205.24301388125002,206.36996700625002,64.0,94.0
881,205.24301388125002,206.40121700625002,61.0,92.0
882,206.62192013125002,208.43051388125002,49.0,48.0
883,206.98715450625002,208.43442013125002,54.0,102.0
884,206.30942013125002,208.47543575625002,42.0,97.0
885,207.35824825625002,208.56918575625002,61.0,84.0
886,207.77621700625002,208.58676388125002,66.0,47.0
887,208.59262325625002,209.30057869375003,59.0,93.0
888,208.57504513125002,209.32250848541668,63.0,97.0
889,208.58285763125002,209.32250848541668,71.0,97.0
890,208.54379513125002,209.70408686041668,47.0,93.0
891,209.56812215208336,210.19531419375002,71.0,97.0
892,209.5790870479167,210.2172439854167,59.0,97.0
893,209.54838533958335,210.23917377708335,63.0,97.0
894,210.60101533958334,211.4343474229167,58.0,99.0
895,210.60101533958334,211.45627721458337,66.0,99.0
896,210.60101533958334,211.50890871458336,61.0,99.0
897,210.62952406875002,211.9211887979167,46.0,99.0
898,211.60539979791668,212.33127590208335,58.0,101.0
899,211.59443490208335,212.3422407979167,61.0,101.0
900,211.60539979791668,212.35320569375003,66.0,101.0
901,212.6514508604167,213.56153721458335,68.0,103.0
902,212.66241575625003,213.57250211041668,56.0,103.0
903,212.64048596458335,213.6251336104167,63.0,103.0
904,212.60539829791668,213.97601027708336,44.0,103.0
905,213.76109831875002,214.38390440208335,68.0,100.0
906,213.76109831875002,214.3948692979167,56.0,100.0
907,213.7501334229167,214.42557100625,63.0,102.0
908,214.82469321458336,215.6448674229167,64.0,98.0
909,214.84443002708335,215.66679721458337,52.0,98.0
910,214.8356581104167,215.70627083958337,56.0,96.0
911,214.91021940208336,216.2106560479167,40.0,98.0
912,215.7961829854167,216.33784883958336,52.0,96.0
913,215.80714788125002,216.39048033958335,56.0,96.0
914,215.7961829854167,216.4014452354167,64.0,96.0
915,216.8685497979167,217.72161869375003,71.0,96.0
916,216.85758490208335,217.73258358958336,59.0,96.0
917,216.8685497979167,217.76547827708336,63.0,96.0
918,216.88609363125002,218.22161794375003,47.0,96.0
919,217.92337277708336,218.47819650625001,71.0,97.0
920,217.92337277708336,218.48916140208337,59.0,97.0
921,217.90144298541668,218.5330209854167,63.0,97.0
922,219.01547640208335,219.85100146458336,66.0,97.0
923,219.01547640208335,219.8619663604167,54.0,97.0
924,218.99573958958337,219.90363296458335,61.0,97.0
925,220.05494852708335,220.7895965479167,54.0,97.0
926,220.04398363125003,220.7895965479167,66.0,97.0
927,220.04398363125003,220.8093333604167,61.0,97.0
928,221.12073640208337,223.67994308958336,52.0,97.0
929,221.12073640208337,223.7106447979167,64.0,97.0
930,221.12073640208337,223.7435394854167,56.0,97.0
931,225.81809777708335,226.62950006875002,61.0,94.0
932,226.58783346458335,229.25449613125002,59.0,88.0
933,226.6448509229167,229.28739081875003,63.0,88.0
934,226.60976325625003,230.47598552708337,47.0,88.0
