,start,end,pitch,velocity
0,16.3019670125,16.512194075,71.0,90.0
1,16.5746940125,16.7724210875,69.0,89.0
2,16.8474210125,17.0474208125,68.0,89.0
3,17.1201480125,18.0724197875,68.0,89.0
4,18.211056012500002,18.4156012625,68.0,83.0
5,18.483783012499998,18.6769646375,66.0,89.0
6,18.7565100125,18.9792370625,68.0,87.0
7,19.0292370125,20.440444518750002,64.0,91.0
8,20.663294612500003,20.84994570625,73.0,89.0
9,20.9347871125,21.122569425000002,75.0,87.0
10,21.2062796125,21.37483120625,76.0,84.0
11,21.477772112500002,22.5026563,76.0,89.0
12,22.5637421125,22.74699955,75.0,85.0
13,22.835234612500003,23.013967175,73.0,91.0
14,23.106727112500003,23.274147487500002,75.0,87.0
15,23.3782196125,24.570524175000003,71.0,89.0
16,25.007174612500002,25.202875456250002,73.0,90.0
17,25.278667112500003,25.430250425,75.0,89.0
18,25.550159612500003,26.0931446125,76.0,86.0
19,26.0931446125,26.840880206250002,76.0,91.0
20,26.9076221125,27.450607112500002,75.0,89.0
21,27.450607112500002,27.722099612500003,73.0,90.0
22,27.722099612500003,28.215310987500004,71.0,88.0
23,28.265084612500004,28.47436008125,73.0,84.0
24,28.5365771125,29.227751768750004,64.0,92.0
25,29.3510546125,29.502180537500003,61.0,92.0
26,29.623771325,29.810134775,64.0,87.0
27,29.896498325,30.091952675,66.0,87.0
28,30.169225325000003,30.714679325000002,66.0,86.0
29,30.714679325000002,30.9453609125,68.0,89.0
30,30.987406325000002,31.463542212500002,66.0,88.0
31,31.532860325,31.7226328625,64.0,92.0
32,31.805587325,33.4635402125,66.0,87.0
33,33.714676325,33.8453580125,71.0,79.0
34,33.987403325,34.1760395,69.0,86.0
35,34.260130325,34.42641948125,68.0,85.0
36,34.531622825,35.4433851375,68.0,87.0
37,35.617592824999996,35.8732482625,68.0,86.0
38,35.889085324999996,36.07799885625,66.0,85.0
39,36.160577825,36.34722891875,68.0,86.0
40,36.432070325,36.6605765125,66.0,86.0
41,36.703562825,37.88342398125,64.0,88.0
42,38.061025324999996,38.25898860625,73.0,87.0
43,38.332517825,38.489757231249996,75.0,87.0
44,38.604010325,38.76577460625,76.0,85.0
45,38.875502825,39.88568116875,76.0,91.0
46,39.961472825,40.160567325,78.0,90.0
47,40.232965324999995,40.40377935625,75.0,82.0
48,40.504457825,40.694502575,73.0,87.0
49,40.775950325,40.9954067625,73.0,89.0
50,41.047442825,42.2804712625,71.0,87.0
51,42.404905325,42.57798179375,73.0,90.0
52,42.676397824999995,42.85399916875,75.0,89.0
53,42.947890325,43.376622231249996,76.0,87.0
54,43.490875325,43.66395179375,76.0,90.0
55,43.762367825,44.266891387499996,76.0,89.0
56,44.576845325,44.8166637,75.0,86.0
57,44.848337825,45.0677942625,73.0,76.0
58,45.119830324999995,45.391322825,71.0,86.0
59,45.662815325,45.90376491875,73.0,87.0
60,45.934307825,46.6062517625,64.0,96.0
61,46.748785325,46.942223731249996,61.0,91.0
62,47.020277825,47.1876982,64.0,89.0
63,47.291888631249996,47.46575209375,68.0,81.0
64,47.56461563125,48.12938779375,66.0,80.0
65,48.382796631249995,48.828250731249994,71.0,86.0
66,48.928250631249995,49.11688680625,66.0,87.0
67,49.20097763125,50.80211239375,64.0,89.0
68,51.382793631249996,51.57597525625,64.0,96.0
69,51.65552063125,52.32029269375,76.0,89.0
70,52.473701631249995,53.18961000625,76.0,89.0
71,53.29188263125,53.46006428125,78.0,96.0
72,53.56460963125,53.71574584375,76.0,87.0
73,53.83733663125,54.32938159375,75.0,91.0
74,54.382790631249996,54.55097228125,71.0,90.0
75,54.65551763125,54.88847194375,68.0,87.0
76,54.928244631249996,55.13165351875,71.0,86.0
77,55.20097163125,55.629380293749996,73.0,73.0
78,56.019152631249995,56.22369788125,69.0,86.0
79,56.29187963125,56.46460673125,69.0,83.0
80,56.56460663125,56.73051555625,69.0,85.0
81,56.83733363125,57.00892436875,69.0,85.0
82,57.11006063125,57.521423856249996,69.0,89.0
83,57.65551463125,57.82255991875,71.0,87.0
84,57.928241631249996,58.36574119375,73.0,87.0
85,58.473695631249996,58.68846814375,71.0,87.0
86,58.74642263125,59.67823988125,71.0,87.0
87,59.83733063125,60.02483044375,64.0,89.0
88,60.11005763125,60.302102893749996,64.0,88.0
89,60.38278463125,60.546420831249996,76.0,90.0
90,60.65551163125,61.085056656249996,76.0,90.0
91,61.20096563125,61.74641963125,76.0,92.0
92,61.74641963125,61.919146731249995,76.0,92.0
93,62.019146631249995,62.19641918125,78.0,96.0
94,62.29187363125,62.42255531875,76.0,87.0
95,62.56460063125,63.00096383125,75.0,87.0
96,63.11005463125,63.29869080625,71.0,91.0
97,63.38278163125,64.15209904375,73.0,87.0
98,64.47368963125,64.55096228125,73.0,94.0
99,64.61005313125,64.71118939375,75.0,99.0
100,64.74641663125,64.87141650625,76.0,91.0
101,65.01668663125,65.14168650625,73.0,88.0
102,65.28695663125,65.42659613125,76.0,87.0
103,65.55722663125,65.93447850625,73.0,89.0
104,66.09776663125,66.26893763125,76.0,87.0
105,66.36803663124999,66.52006350625,73.0,90.0
106,66.63830663125,66.81398213125,76.0,89.0
107,66.90857663125,67.58988225625,71.0,79.0
108,68.53019663124999,68.65970100625,71.0,79.0
109,68.80046663125,68.98740338125,69.0,86.0
110,69.07073663125,69.2370257875,68.0,85.0
111,69.34222913125,70.25399144375,68.0,87.0
112,70.42819913125,70.68385456875,68.0,86.0
113,70.69969163125,70.8886051625,66.0,85.0
114,70.97118413125,71.157835225,68.0,86.0
115,71.24267663125,71.47118281875,66.0,86.0
116,71.51416913125,72.6940302875,64.0,88.0
117,72.87163163125,73.0695949125,73.0,87.0
118,73.14312413125,73.3003635375,75.0,87.0
119,73.41461663125,73.5763809125,76.0,85.0
120,73.68610913125,74.696287475,76.0,91.0
121,74.77207913125,74.97117363125,78.0,90.0
122,75.04357163125,75.2143856625,75.0,82.0
123,75.31506413125,75.50510888125,73.0,87.0
124,75.58655663125,75.80601306875,73.0,89.0
125,75.85804913125,77.09107756875,71.0,87.0
126,77.21551163125,77.38858809999999,73.0,90.0
127,77.48700413125,77.664605475,75.0,89.0
128,77.75849663125,78.1872285375,76.0,87.0
129,78.30148163125,78.4745581,76.0,90.0
130,78.57297413124999,79.07749769375,76.0,89.0
131,79.38745163125,79.62727000625,75.0,86.0
132,79.65894413125,79.87840056875,73.0,76.0
133,79.93043663125,80.20192913125,71.0,86.0
134,80.47342163125,80.71437122500001,73.0,87.0
135,80.74491413125,81.41685806875,64.0,96.0
136,81.55939163125001,81.7528300375,61.0,91.0
137,81.83088413125,81.99830450625001,64.0,89.0
138,82.10237663125,82.2754531,68.0,81.0
139,82.37386913125,82.93608485,66.0,80.0
140,83.18834663125,83.63178438125,71.0,86.0
141,83.73133163125,83.91911394375,66.0,87.0
142,84.00282413125001,85.59671134999999,64.0,89.0
143,107.68693764375,107.89716470625001,71.0,90.0
144,107.95966464375,108.15739171875,69.0,89.0
145,108.23239164375,108.43193787708334,68.0,89.0
146,108.50450014375001,109.45461232291667,68.0,89.0
147,109.59293414375,109.79701551875,68.0,83.0
148,109.86504264375,110.05778616458333,66.0,89.0
149,110.13715114375,110.35937308541668,68.0,87.0
150,110.40925964375,111.81855491666667,64.0,91.0
151,112.04191064375,112.22898523750001,73.0,89.0
152,112.31401914375,112.50222752291667,75.0,87.0
153,112.58612764375,112.75506167083334,76.0,84.0
154,112.85823614375,113.88544573125,76.0,89.0
155,113.94667014375001,114.13034338125001,75.0,85.0
156,114.21877864375001,114.39791673958334,73.0,91.0
157,114.49088714375,114.65868738541667,75.0,87.0
158,114.76299564375,115.95800547291667,71.0,89.0
159,116.39564664375001,116.59179152083334,73.0,90.0
160,116.66775514375001,116.81968238958333,75.0,89.0
161,116.93986364375,117.48408064375,76.0,86.0
162,117.48408064375,118.23351280416668,76.0,91.0
163,118.30040614375001,118.84462314375001,75.0,89.0
164,118.84462314375001,119.11673164375,73.0,90.0
165,119.11673164375,119.61106208541668,71.0,88.0
166,119.66094864375,119.87069894583334,73.0,84.0
167,119.93305714375,120.62580003333335,64.0,92.0
168,120.74938264375001,120.89915726875002,61.0,92.0
169,121.01965264375,121.20433714375001,64.0,87.0
170,121.28992264375,121.48361614375001,66.0,87.0
171,121.56019264375001,122.10073264375,66.0,86.0
172,122.10073264375,122.32933601875001,68.0,89.0
173,122.37100264375,122.84284901875002,66.0,88.0
174,122.91154264375001,123.09960551875001,64.0,92.0
175,123.18181264375,124.82482901875001,66.0,87.0
176,125.07370264375001,125.20320701875,71.0,79.0
177,125.34397264375,125.53090939375001,69.0,86.0
178,125.61424264375,125.77978301875001,68.0,85.0
179,125.88451264375001,126.79216939375002,68.0,87.0
180,126.96559264375001,127.22009689375001,68.0,86.0
181,127.2359315875,127.42527375208334,66.0,85.0
182,127.5080400875,127.69511468125,68.0,86.0
183,127.78014858750001,128.00917324166667,66.0,86.0
184,128.0522570875,129.23479527708335,64.0,88.0
185,129.41279958750002,129.61121203541668,73.0,87.0
186,129.68490808750002,129.84250426041666,75.0,87.0
187,129.9570165875,130.11914790208334,76.0,85.0
188,130.2291250875,131.24159546458333,76.0,91.0
189,131.3175590875,131.51710532083334,78.0,90.0
190,131.5896675875,131.76086918541668,75.0,82.0
191,131.8617760875,132.0522520375,73.0,87.0
192,132.1338845875,132.35383895833334,73.0,89.0
193,132.4059930875,133.64181919166668,71.0,87.0
194,133.76653558750002,133.94000475625,73.0,90.0
195,134.03864408750002,134.21664839791669,75.0,89.0
196,134.31075258750002,134.74045726041666,76.0,87.0
197,134.8549695875,135.02843875625,76.0,90.0
198,135.1270780875,135.63274638333334,76.0,89.0
199,135.9434035875,136.18376609583333,75.0,86.0
200,136.2155120875,136.43546645833334,73.0,76.0
201,136.4876205875,136.7597290875,71.0,86.0
202,137.0318375875,137.27333388125,73.0,87.0
203,137.3039460875,137.977414625,64.0,96.0
204,138.1202715875,138.31414889375,61.0,91.0
205,138.39238008750002,138.56018032916668,64.0,89.0
206,138.66448858750002,138.83795775625,68.0,81.0
207,138.93659708750002,139.50008843958335,66.0,80.0
208,139.7529225875,140.19736647083334,71.0,86.0
209,140.2971395875,140.48534796666667,66.0,87.0
210,140.5692480875,142.16675173958333,64.0,89.0
211,142.7461160875,142.93885960833333,64.0,96.0
212,143.01822458750001,143.68148905625,76.0,89.0
213,143.83455008750002,144.5488349,76.0,89.0
214,144.65087558750002,144.81867582916666,78.0,96.0
215,144.9229840875,145.07377754791668,76.0,87.0
216,145.1950925875,145.68602167291667,75.0,91.0
217,145.7393095875,145.90710982916667,71.0,90.0
218,146.0114180875,146.24384409791668,68.0,87.0
219,146.2835265875,146.48647417708335,71.0,86.0
220,146.5556350875,146.98307218958334,73.0,73.0
221,147.3719605875,147.5760419625,69.0,86.0
222,147.64406908750001,147.81640447083333,69.0,83.0
223,147.91617758750002,148.08171025833335,69.0,85.0
224,148.18828608750002,148.35948768541667,69.0,85.0
225,148.46039458750002,148.87082490833333,69.0,89.0
226,149.0046115875,149.17127804375002,71.0,87.0
227,149.2767200875,149.71322747291669,73.0,87.0
228,149.8209370875,150.03522253125,71.0,87.0
229,150.0930455875,151.02274962916667,71.0,87.0
230,151.1814795875,151.36855418125,64.0,89.0
231,151.4535880875,151.64519782291669,64.0,88.0
232,151.7256965875,151.8889616875,76.0,90.0
233,151.9978050875,152.426375975,76.0,90.0
234,152.54202208750002,153.08623908750002,76.0,92.0
235,153.08623908750002,153.25857447083334,76.0,92.0
236,153.35834758750002,153.53521811250002,78.0,96.0
237,153.63045608750002,153.76084141041667,76.0,87.0
238,153.90256458750002,154.33793818750001,75.0,87.0
239,154.4467815875,154.63498996666667,71.0,91.0
240,154.7188900875,155.48646281458335,73.0,87.0
241,155.8073240875,155.88442149583335,73.0,94.0
242,155.9433783375,156.04428523958336,75.0,99.0
243,156.0794325875,156.20528276875,76.0,91.0
244,156.3515410875,156.47739126875,73.0,88.0
245,156.6236495875,156.7642389791667,76.0,87.0
246,156.8957580875,157.27557620208336,73.0,89.0
247,157.43997508750002,157.61231047083334,76.0,87.0
248,157.71208358750002,157.86514461875,73.0,90.0
249,157.98419208750002,158.16106261250002,76.0,89.0
250,158.25630058750002,158.94224076458335,71.0,79.0
251,159.8889515875,160.01933691041668,71.0,79.0
252,160.1610600875,160.34926846666667,69.0,86.0
253,160.4331685875,160.59983504375,68.0,85.0
254,160.7052770875,161.61910813333336,68.0,87.0
255,161.79371108750001,162.0499465916667,68.0,86.0
256,162.06581958750002,162.25516175208335,66.0,85.0
257,162.33792808750002,162.52500268125002,68.0,86.0
258,162.61003658750002,162.83906124166668,66.0,86.0
259,162.88214508750002,164.06468327708336,64.0,88.0
260,164.24268758750003,164.4411000354167,73.0,87.0
261,164.5147960875,164.67239226041667,75.0,87.0
262,164.7869045875,164.94903590208335,76.0,85.0
263,165.0590130875,166.07148346458334,76.0,91.0
264,166.1474470875,166.34699332083335,78.0,90.0
265,166.4195555875,166.5907571854167,75.0,82.0
266,166.69166408750002,166.88214003750002,73.0,87.0
267,166.96377258750002,167.18372695833335,73.0,89.0
268,167.23588108750002,168.47170719166667,71.0,87.0
269,168.5964235875,168.76989275625002,73.0,90.0
270,168.8685320875,169.04653639791667,75.0,89.0
271,169.1406405875,169.57034526041667,76.0,87.0
272,169.68448049583333,169.85639033958333,76.0,90.0
273,169.95414299583334,170.45526580833334,76.0,89.0
274,170.76313049583334,171.00133237083332,75.0,86.0
275,171.03279299583335,171.25077018333334,73.0,76.0
276,171.30245549583333,171.57211799583334,71.0,86.0
277,171.84178049583335,172.08110596458334,73.0,87.0
278,172.11144299583333,172.77885768333334,64.0,96.0
279,172.92043049583333,173.11256502708335,61.0,91.0
280,173.19009299583334,173.35638487083332,64.0,89.0
281,173.45975549583335,173.63166533958335,68.0,81.0
282,173.72941799583333,174.28784408958333,66.0,80.0
283,174.53840549583333,174.97885424583333,71.0,86.0
284,175.07773049583335,175.26424705833332,66.0,87.0
285,175.34739299583333,176.93053658958334,64.0,89.0
286,177.50469299583332,177.69570393333333,64.0,96.0
287,177.77441649583335,178.43617946458335,76.0,89.0
288,178.58889399583336,179.30156180833336,76.0,89.0
289,179.40337149583334,179.57079187083335,78.0,96.0
290,179.67486399583333,179.82531608958334,76.0,87.0
291,179.94635649583336,180.43617421458336,75.0,91.0
292,180.48934149583334,180.65676187083335,71.0,90.0
293,180.76083399583334,180.99273383958334,68.0,87.0
294,181.03232649583336,181.23481465208334,71.0,86.0
295,181.30381899583335,181.73028846458334,73.0,73.0
296,182.11829649583333,182.32191587083335,69.0,86.0
297,182.38978899583336,182.56173424583335,69.0,83.0
298,182.66128149583335,182.82643943333335,69.0,85.0
299,182.93277399583334,183.10358802708333,69.0,85.0
300,183.20426649583334,183.61376768333335,69.0,89.0
301,183.74725149583335,183.91354065208336,71.0,87.0
302,184.01874399583335,184.45426321458334,73.0,87.0
303,184.56172899583333,184.77552933958336,71.0,87.0
304,184.83322149583336,185.76082087083336,71.0,87.0
305,185.91919149583336,186.10584258958335,64.0,89.0
306,186.19068399583335,186.38187539583333,64.0,88.0
307,186.46255713333335,186.62619333333333,76.0,90.0
308,186.73528413333335,187.16482915833333,76.0,90.0
309,187.28073813333336,187.82619213333334,76.0,92.0
310,187.82619213333334,187.99891923333334,76.0,92.0
311,188.09891913333334,188.27619168333334,78.0,96.0
312,188.37164613333334,188.50232782083336,76.0,87.0
313,188.64437313333335,189.08073633333333,75.0,87.0
314,189.18982713333335,189.37846330833335,71.0,91.0
315,189.46255413333336,190.23187154583334,73.0,87.0
316,190.55346213333334,190.63073478333334,73.0,94.0
317,190.68982563333336,190.79096189583333,75.0,99.0
318,190.82618913333334,190.95232537083334,76.0,91.0
319,191.09891613333335,191.22505237083334,73.0,88.0
320,191.37164313333335,191.51255208333333,76.0,87.0
321,191.64437013333335,192.02505157083334,73.0,89.0
322,192.18982413333333,192.36255123333333,76.0,87.0
323,192.46255113333333,192.61596007083335,73.0,90.0
324,192.73527813333334,192.91255068333334,76.0,89.0
325,193.00800513333334,193.69550444583334,71.0,79.0
326,194.64436713333333,194.77504882083335,71.0,79.0
327,194.91709413333334,195.10573030833334,69.0,86.0
328,195.18982113333334,195.35686642083334,68.0,85.0
329,195.46254813333334,196.37845630833334,68.0,87.0
330,196.55345613333336,196.81027405833333,68.0,86.0
331,196.82618313333336,197.01595567083334,66.0,85.0
332,197.09891013333333,197.28640994583336,68.0,86.0
333,197.37163713333334,197.60118235833335,66.0,86.0
334,197.64436413333334,198.82959022083335,64.0,88.0
335,199.00799913333336,199.20686257083335,73.0,87.0
336,199.28072613333336,199.43868052083334,75.0,87.0
337,199.55345313333333,199.71595297083334,76.0,85.0
338,199.82618013333334,200.84095184583333,76.0,91.0
339,200.91708813333335,201.11708793333335,78.0,90.0
340,201.18981513333335,201.36140587083335,75.0,82.0
341,201.46254213333336,201.65345103333334,73.0,87.0
342,201.73526913333333,201.95572345833335,73.0,89.0
343,202.00799613333334,203.24663125833334,71.0,87.0
344,203.37163113333335,203.54549459583336,73.0,90.0
345,203.64435813333336,203.82276704583336,75.0,89.0
346,203.91708513333333,204.34776652083335,76.0,87.0
347,204.46253913333334,204.63640259583335,76.0,90.0
348,204.73526613333334,205.24208380833335,76.0,89.0
349,205.55344713333335,205.79435598333333,75.0,86.0
350,205.82617413333335,206.04662845833334,73.0,76.0
351,206.09890113333336,206.37162813333333,71.0,86.0
352,206.64435513333333,206.88640034583335,73.0,87.0
353,206.91708213333334,207.59208145833335,64.0,96.0
354,207.73526313333335,207.92958112083335,61.0,91.0
355,208.00799013333335,208.17617178333336,64.0,89.0
356,208.28071713333335,208.45458059583333,68.0,81.0
357,208.55344413333336,209.11821629583335,66.0,80.0
358,209.37162513333334,209.81707923333335,71.0,86.0
359,209.91707913333335,210.10571530833334,66.0,87.0
360,210.18980613333335,211.79094089583336,64.0,89.0
361,212.09889513333334,212.27275859583335,73.0,90.0
362,212.37162213333335,212.55003104583335,75.0,89.0
363,212.64434913333335,213.07503052083334,76.0,87.0
364,213.18980313333336,213.36366659583334,76.0,90.0
365,213.46253013333336,213.96934780833334,76.0,89.0
366,214.28071113333334,214.52161998333335,75.0,86.0
367,214.55343813333334,214.77389245833334,73.0,76.0
368,214.82616513333335,215.09889213333335,71.0,86.0
369,215.37161913333335,215.61366434583334,73.0,87.0
370,215.64434613333336,216.31934545833334,64.0,96.0
371,216.46252713333334,216.65684512083334,61.0,91.0
372,216.73525413333334,216.90343578333335,64.0,89.0
373,217.00798113333335,217.18184459583335,68.0,81.0
374,217.28070813333335,217.84548029583334,66.0,80.0
375,218.09888913333336,218.54434323333334,71.0,86.0
376,218.64434313333334,218.83297930833334,66.0,87.0
377,218.91707013333334,220.28070513333336,68.0,89.0
378,220.28070513333336,221.37161313333334,71.0,89.0
379,221.37161313333334,222.46252113333335,69.0,89.0
380,222.46252113333335,223.55342913333334,73.0,89.0
381,223.55342913333334,224.64433713333335,76.0,89.0
