,start,end,pitch,velocity
0,0.34615293750000004,0.447962625,60.0,32.0
1,0.3076915,1.230766,52.0,76.0
2,0.303166625,1.2318972187500001,56.0,67.0
3,0.24999934375000002,1.25678403125,40.0,79.0
4,1.6221676875000002,2.1889082812500003,52.0,87.0
5,1.6108555,2.2669623750000003,49.0,76.0
6,2.131216125,2.5361924375,44.0,49.0
7,1.615380375,2.5769163125000003,37.0,76.0
8,2.4094959375,2.7432054687500003,56.0,81.0
9,2.4196769062500003,2.86311465625,52.0,90.0
10,2.4140208125,2.9615306875000003,49.0,78.0
11,3.8122071875000003,4.268088343750001,61.0,80.0
12,3.77940184375,4.29750003125,57.0,80.0
13,3.705872625,4.339355125,54.0,67.0
14,4.339355125,4.742069,49.0,50.0
15,3.787320375,4.76808703125,42.0,86.0
16,4.61424128125,4.8257791875,61.0,85.0
17,4.59840421875,4.887996218750001,57.0,85.0
18,4.59614178125,4.9298513125,54.0,85.0
19,4.5904856875,5.0497605000000005,66.0,82.0
20,5.86084434375,6.26355821875,59.0,71.0
21,5.956997937500001,6.30654453125,66.0,78.0
22,5.8981745625,6.4253225,63.0,74.0
23,6.45586540625,6.8529231875,54.0,70.0
24,6.754507156250001,7.26808046875,71.0,87.0
25,6.76129446875,7.334822375000001,59.0,86.0
26,6.760163250000001,7.334822375000001,66.0,78.0
27,6.754507156250001,7.340478468750001,63.0,87.0
28,7.29975459375,7.4275823125,54.0,76.0
29,5.94002965625,7.4377632812500005,47.0,86.0
30,7.5599349062500005,7.65948215625,59.0,99.0
31,8.11649453125,8.49658403125,52.0,85.0
32,8.115363312500001,8.6673980625,56.0,78.0
33,8.121019406250001,8.75223946875,59.0,81.0
34,8.64364246875,8.7940945625,52.0,83.0
35,8.3868558125,9.305405437500001,47.0,80.0
36,8.12328184375,9.311061531250001,40.0,91.0
37,8.904954,9.3574415,56.0,89.0
38,8.9072164375,9.35857271875,52.0,85.0
39,8.91287253125,9.36309759375,64.0,85.0
40,8.902691562500001,9.3687536875,59.0,86.0
41,10.31558378125,10.72395375,61.0,84.0
42,10.2737286875,10.7443156875,52.0,86.0
43,10.2262175,10.78617078125,49.0,68.0
44,11.126667625000001,11.257889,52.0,87.0
45,11.119880312500001,11.260151437500001,49.0,86.0
46,11.125536406250001,11.285038250000001,56.0,85.0
47,10.828025875,11.755625250000001,44.0,60.0
48,10.289565750000001,11.75675646875,37.0,86.0
49,12.335940468750001,12.537297406250001,57.0,70.0
50,12.38797653125,12.68661828125,61.0,70.0
51,12.488655000000001,12.800871375,69.0,80.0
52,12.445668687500001,12.806527468750001,64.0,79.0
53,12.994309781250001,13.09498825,57.0,78.0
54,12.727342156250002,13.545213312500001,52.0,76.0
55,12.47394915625,13.5610606625,45.0,86.0
56,13.26580228125,13.5656061125,61.0,88.0
57,13.2669335,13.5724242875,57.0,85.0
58,13.2737208125,13.6292424125,64.0,89.0
59,14.5042415375,14.6633322875,59.0,64.0
60,14.562196025,14.7053777,64.0,82.0
61,14.6474232125,14.8133321375,68.0,80.0
62,15.1474227125,15.303104375,64.0,87.0
63,15.4292406125,15.578104100000001,68.0,86.0
64,15.43719515,15.5837859125,64.0,87.0
65,15.434922425,15.6144677,71.0,87.0
66,14.9019684125,16.421285075,47.0,78.0
67,14.625832325000001,16.457648675,40.0,86.0
68,15.959921900000001,16.748557475,68.0,78.0
69,15.966740075,16.7633301875,64.0,83.0
70,15.9656037125,16.7781029,76.0,86.0
71,16.8474210125,17.1871934,59.0,80.0
72,16.8474210125,17.398556825,68.0,79.0
73,17.3928750125,17.5996929875,59.0,85.0
74,17.6656020125,17.7406019375,59.0,74.0
75,17.6656020125,18.054237987500002,64.0,90.0
76,17.1201480125,18.3201468125,47.0,74.0
77,16.8474210125,18.3871922,40.0,86.0
78,18.211056012500002,18.434919425,59.0,85.0
79,18.211056012500002,18.475828475,64.0,87.0
80,18.211056012500002,18.517873887500002,68.0,87.0
81,19.0292370125,19.3724184875,61.0,81.0
82,19.0292370125,19.498554725,68.0,79.0
83,19.5746910125,19.725827225,61.0,87.0
84,19.8474180125,20.2153319875,64.0,90.0
85,19.8474180125,20.247006112500003,61.0,87.0
86,19.0292370125,20.441575737500003,49.0,91.0
87,19.3019640125,20.45854401875,56.0,72.0
88,20.391802112500002,20.58071564375,64.0,91.0
89,20.391802112500002,20.602208800000003,68.0,81.0
90,20.391802112500002,20.61465220625,61.0,86.0
91,21.2062796125,21.5365954875,57.0,80.0
92,21.2062796125,21.75152705,61.0,78.0
93,21.749264612500003,21.895191831250003,57.0,87.0
94,22.0207571125,22.33071105,57.0,87.0
95,22.0207571125,22.345416893750002,64.0,88.0
96,22.5637421125,22.75491808125,57.0,85.0
97,22.5637421125,22.80242926875,69.0,82.0
98,21.477772112500002,22.883877018750002,52.0,83.0
99,21.2062796125,22.91328870625,45.0,85.0
100,22.835234612500003,23.179125112500003,61.0,85.0
101,23.106727112500003,23.311477706250002,57.0,85.0
102,23.6497121125,24.030932831250002,59.0,86.0
103,23.921204612500002,24.06486939375,63.0,79.0
104,23.3782196125,24.5275378625,47.0,87.0
105,24.192697112500003,24.555818331250002,63.0,90.0
106,24.192697112500003,24.5773114875,66.0,80.0
107,24.192697112500003,24.579573925000002,59.0,85.0
108,24.7356821125,24.9279893,59.0,86.0
109,24.7356821125,25.11237795625,63.0,89.0
110,24.7356821125,25.118034050000002,66.0,85.0
111,24.7356821125,25.181382300000003,71.0,85.0
112,25.007174612500002,25.1994818,59.0,81.0
113,25.550159612500003,26.09201339375,57.0,80.0
114,25.550159612500003,26.1248187375,61.0,76.0
115,26.0931446125,26.260564987500004,64.0,83.0
116,26.364637112500002,26.679115925,64.0,86.0
117,26.364637112500002,26.707396393750003,61.0,84.0
118,26.364637112500002,26.7356768625,57.0,85.0
119,26.364637112500002,26.7356768625,69.0,85.0
120,25.8216521125,27.0094318,52.0,78.0
121,25.550159612500003,27.02187520625,45.0,85.0
122,26.9076221125,27.059205425000002,57.0,81.0
123,26.9076221125,27.072780050000002,61.0,81.0
124,27.722099612500003,27.989067237500002,59.0,81.0
125,27.722099612500003,28.217573425,40.0,87.0
126,27.993592112500004,28.23114805,47.0,78.0
127,28.1293383625,28.260559737500003,59.0,87.0
128,27.722099612500003,28.265084612500004,64.0,86.0
129,28.808069612500002,29.103317706250003,61.0,78.0
130,28.808069612500002,29.233407862500002,68.0,79.0
131,28.808069612500002,29.2515073625,37.0,88.0
132,29.0795621125,29.32956145625,44.0,76.0
133,28.808069612500002,29.32956145625,64.0,85.0
134,29.3510546125,29.660134925,61.0,90.0
135,29.623771325,29.937407375,68.0,89.0
136,30.441952325000003,31.1021789375,54.0,86.0
137,30.714679325000002,31.1044516625,61.0,78.0
138,31.260133325,31.324905987500003,61.0,72.0
139,30.169225325000003,31.4112695375,49.0,72.0
140,29.896498325,31.497633087500002,42.0,91.0
141,31.260133325,31.579451187500002,57.0,81.0
142,31.532860325,31.6430874875,49.0,89.0
143,32.078314325,32.39876855,59.0,83.0
144,32.351041325000004,32.487404825,51.0,81.0
145,32.078314325,33.205585925,63.0,82.0
146,32.896495325000004,33.273767675,66.0,94.0
147,32.623768325,33.5089947125,54.0,81.0
148,33.441949325,33.778312625,59.0,83.0
149,33.441949325,33.7953580625,71.0,85.0
150,33.441949325,33.923767025000004,66.0,85.0
151,33.851039825,34.0839941375,59.0,86.0
152,33.441949325,34.110130475000005,63.0,86.0
153,32.078314325,34.1180850125,47.0,87.0
154,33.714676325,34.193084937500004,54.0,79.0
155,34.260130325,34.59836473125,59.0,80.0
156,34.260130325,34.80877141875,68.0,79.0
157,34.803115325,35.008997137499996,59.0,85.0
158,35.074607825,35.1492682625,59.0,74.0
159,35.074607825,35.4614846375,64.0,90.0
160,34.531622825,35.726189825,47.0,74.0
161,34.260130325,35.79293173125,40.0,86.0
162,35.617592824999996,35.84044291875,59.0,85.0
163,35.617592824999996,35.88116679375,64.0,87.0
164,35.617592824999996,35.9230218875,68.0,87.0
165,36.432070325,36.7736983875,61.0,81.0
166,36.432070325,36.899263668749995,68.0,79.0
167,36.975055325,37.12550741875,61.0,87.0
168,37.246547825,37.6130627,64.0,90.0
169,37.246547825,37.644736824999995,61.0,87.0
170,36.432070325,37.839306449999995,49.0,91.0
171,36.703562825,37.85627473125,56.0,72.0
172,37.789532825,37.97844635625,64.0,91.0
173,37.789532825,37.9999395125,68.0,81.0
174,37.789532825,38.01238291875,61.0,86.0
175,38.604010325,38.9343262,57.0,80.0
176,38.604010325,39.1492577625,61.0,78.0
177,39.146995325,39.292922543749995,57.0,87.0
178,39.418487825,39.7284417625,57.0,87.0
179,39.418487825,39.74314760625,64.0,88.0
180,39.961472825,40.15264879375,57.0,85.0
181,39.961472825,40.200159981249996,69.0,82.0
182,38.875502825,40.28160773125,52.0,83.0
183,38.604010325,40.31101941875,45.0,85.0
184,40.232965324999995,40.576855824999996,61.0,85.0
185,40.504457825,40.70920841875,57.0,85.0
186,41.047442825,41.42866354375,59.0,86.0
187,41.318935325,41.46260010625,63.0,79.0
188,40.775950325,41.925268575,47.0,87.0
189,41.590427825,41.95354904375,63.0,90.0
190,41.590427825,41.9750422,66.0,80.0
191,41.590427825,41.9773046375,59.0,85.0
192,42.133412825,42.3257200125,59.0,86.0
193,42.133412825,42.51010866875,63.0,89.0
194,42.133412825,42.5157647625,66.0,85.0
195,42.133412825,42.5791130125,71.0,85.0
196,42.404905325,42.5972125125,59.0,81.0
197,42.947890325,43.48974410625,57.0,80.0
198,42.947890325,43.52254945,61.0,76.0
199,43.490875325,43.6582957,64.0,83.0
200,43.762367825,44.0768466375,64.0,86.0
201,43.762367825,44.105127106249995,61.0,84.0
202,43.762367825,44.133407575,57.0,85.0
203,43.762367825,44.133407575,69.0,85.0
204,43.219382825,44.4071625125,52.0,78.0
205,42.947890325,44.41960591875,45.0,85.0
206,44.305352825,44.4569361375,57.0,81.0
207,44.305352825,44.4705107625,61.0,81.0
208,45.119830324999995,45.38679795,59.0,81.0
209,45.119830324999995,45.6153041375,40.0,87.0
210,45.391322825,45.6288787625,47.0,78.0
211,45.527069075,45.658290449999996,59.0,87.0
212,45.119830324999995,45.662815325,64.0,86.0
213,46.205800325,46.50104841875,61.0,78.0
214,46.205800325,46.631138575,68.0,79.0
215,46.205800325,46.649238075,37.0,88.0
216,46.477292825,46.72729216875,44.0,76.0
217,46.205800325,46.72729216875,64.0,85.0
218,46.748785325,47.056476825,61.0,90.0
219,47.020277825,47.33279768125,68.0,89.0
220,47.291888631249996,47.506661143749994,61.0,80.0
221,47.291888631249996,47.962342506249996,42.0,87.0
222,47.56461563125,48.04188788125,49.0,75.0
223,47.837342631249996,48.19756954375,57.0,84.0
224,47.291888631249996,48.37370573125,54.0,80.0
225,48.11006963125,48.42143295625,61.0,83.0
226,48.382796631249995,48.552114643749995,66.0,79.0
227,48.928250631249995,49.133932243749996,47.0,86.0
228,48.928250631249995,49.27370483125,63.0,78.0
229,48.928250631249995,49.397568343749995,59.0,85.0
230,49.47370463125,49.56915908125,40.0,85.0
231,49.47370463125,49.75324980625,59.0,81.0
232,49.47370463125,49.804386118749996,64.0,86.0
233,50.29188563125,50.637339831249996,64.0,99.0
234,50.56461263125,50.71688520625,68.0,99.0
235,50.01915863125,50.73279428125,59.0,82.0
236,51.11006663125,51.22256651875,64.0,87.0
237,49.74643163125,51.67256606875,52.0,86.0
238,51.11006663125,51.68733878125,68.0,89.0
239,51.382793631249996,51.689611506249996,64.0,87.0
240,51.65552063125,51.689611506249996,64.0,86.0
241,50.837339631249996,51.69870240625,59.0,85.0
242,51.11006663125,51.72029329375,71.0,87.0
243,52.20097463125,52.28052000625,61.0,96.0
244,51.65552063125,52.28847454375,57.0,85.0
245,51.928247631249995,52.59529241875,52.0,82.0
246,52.473701631249995,52.837337631249994,57.0,87.0
247,52.473701631249995,52.84756489375,61.0,86.0
248,52.473701631249995,52.86574669375,69.0,86.0
249,53.01915563125,53.16347366875,57.0,87.0
250,52.74642863125,53.19415545625,52.0,87.0
251,51.65552063125,53.255519031249996,45.0,87.0
252,53.01915563125,53.318018968749996,61.0,92.0
253,53.01915563125,53.33506440625,64.0,92.0
254,53.29188263125,53.42710976875,57.0,89.0
255,53.83733663125,54.13165451875,56.0,86.0
256,53.83733663125,54.17369993125,44.0,91.0
257,53.83733663125,54.22369988125,59.0,87.0
258,54.11006363125,54.26347256875,51.0,73.0
259,53.83733663125,54.33619976875,63.0,85.0
260,54.382790631249996,54.49301779375,56.0,92.0
261,54.928244631249996,55.26574429375,61.0,86.0
262,54.928244631249996,55.27938064375,64.0,87.0
263,54.928244631249996,55.31460788125,49.0,89.0
264,55.20097163125,55.40778960625,56.0,87.0
265,54.928244631249996,55.44074411875,68.0,82.0
266,55.47369863125,55.823698281249996,61.0,92.0
267,55.74642563125,56.11233435625,68.0,90.0
268,56.56460663125,56.76574279375,54.0,75.0
269,56.83733363125,57.08846974375,57.0,85.0
270,56.83733363125,57.08846974375,61.0,80.0
271,56.83733363125,57.13051515625,54.0,86.0
272,56.019152631249995,57.38392399375,42.0,96.0
273,56.29187963125,57.47483299375,49.0,73.0
274,57.38278763125,57.67256006875,54.0,89.0
275,57.65551463125,57.760059981249995,42.0,83.0
276,57.928241631249996,58.09983236875,54.0,92.0
277,57.38278763125,58.19415045625,66.0,85.0
278,58.473695631249996,58.656649993749994,59.0,86.0
279,58.20096863125,58.77142260625,47.0,86.0
280,58.74642263125,58.87710431875,59.0,87.0
281,58.74642263125,58.93505880625,63.0,94.0
282,59.01914963125,59.250967581249995,59.0,81.0
283,59.29187663125,59.44187648125,59.0,78.0
284,59.29187663125,59.63278538125,64.0,87.0
285,59.564603631249994,59.72255801875,59.0,89.0
286,59.29187663125,59.74642163125,68.0,79.0
287,59.83733063125,59.97483049375,59.0,88.0
288,59.29187663125,60.29869380625,40.0,91.0
289,59.83733063125,60.322557418749994,62.0,90.0
290,59.83733063125,60.34528466875,68.0,86.0
291,60.11005763125,60.35096648125,59.0,87.0
292,60.38278463125,60.93960225625,64.0,86.0
293,60.92823863125,61.00778400625,61.0,96.0
294,60.38278463125,61.01573854375,57.0,85.0
295,60.65551163125,61.32255641875,52.0,82.0
296,61.20096563125,61.56460163125,57.0,87.0
297,61.20096563125,61.574828893749995,61.0,86.0
298,61.20096563125,61.59301069375,69.0,86.0
299,61.74641963125,61.89073766875,57.0,87.0
300,61.47369263125,61.92141945625,52.0,87.0
301,60.38278463125,61.98278303125,45.0,87.0
302,61.74641963125,62.04528296875,61.0,92.0
303,61.74641963125,62.062328406249996,64.0,92.0
304,62.019146631249995,62.15437376875,57.0,89.0
305,62.56460063125,62.85096398125,56.0,84.0
306,62.56460063125,62.895282118749996,59.0,87.0
307,62.56460063125,62.915736643749995,63.0,79.0
308,62.56460063125,63.08050920625,44.0,91.0
309,62.83732763125,63.10323645625,51.0,70.0
310,63.11005463125,63.22028179375,56.0,86.0
311,63.38278163125,63.73732673125,56.0,85.0
312,63.38278163125,63.98391739375,64.0,86.0
313,63.38278163125,64.00891736874999,61.0,79.0
314,63.928235631250004,64.09641728125,56.0,86.0
315,63.38278163125,64.16232630625,49.0,91.0
316,64.20096263125001,64.31687160625,56.0,91.0
317,64.20096263125001,64.41800786875,61.0,86.0
318,64.20096263125001,64.54414410625,64.0,91.0
319,64.47368963125,64.57028044375,56.0,75.0
320,64.74641663125,64.92884888125,57.0,73.0
321,64.74641663125,64.95925425625,61.0,80.0
322,65.01668663125,65.28695663125,57.0,79.0
323,65.28695663125,65.44348800624999,61.0,88.0
324,64.74641663125,65.47164113125,45.0,86.0
325,65.55722663125,65.63380313125,61.0,71.0
326,65.55722663125,65.66195625625,45.0,82.0
327,65.55722663125,65.66871300625,52.0,81.0
328,65.55722663125,65.67096525625,57.0,80.0
329,65.82749663125,65.90632538125,57.0,63.0
330,65.82749663125,65.91082988125,52.0,79.0
331,65.82749663125,65.91983888125,61.0,71.0
332,65.82749663125,65.92546950625,45.0,74.0
333,66.09776663125,66.21375750625,52.0,78.0
334,66.09776663125,66.21713588125,57.0,80.0
335,66.09776663125,66.22839713125,61.0,80.0
336,66.09776663125,66.23965838125,45.0,76.0
337,66.36803663124999,66.46037888125,61.0,85.0
338,66.36803663124999,66.47276625625,57.0,79.0
339,66.36803663124999,66.47952300625,52.0,86.0
340,66.36803663124999,66.49528875625,64.0,88.0
341,66.36803663124999,66.50655000625,45.0,85.0
342,66.63830663125,66.75880200625,45.0,81.0
343,66.63830663125,66.75992813125,57.0,85.0
344,66.63830663125,66.76443263125,61.0,86.0
345,66.63830663125,66.77006325625,52.0,86.0
346,66.63830663125,66.77907225625,64.0,86.0
347,66.90857663125,67.12254038125,63.0,86.0
348,66.90857663125,67.13042325625,59.0,86.0
349,66.90857663125,67.13380163125,47.0,94.0
350,67.71938663125,68.45699850625,47.0,86.0
351,67.71938663125,68.68222350625,66.0,78.0
352,67.71938663125,68.70361988125,59.0,84.0
353,67.71938663125,68.71150275625,63.0,80.0
354,69.07073663125,69.4089710375,59.0,80.0
355,69.07073663125,69.619377725,68.0,79.0
356,69.61372163125,69.81960344375,59.0,85.0
357,69.88521413125,69.95987456875,59.0,74.0
358,69.88521413125,70.27209094375,64.0,90.0
359,69.34222913125,70.53679613125,47.0,74.0
360,69.07073663125,70.6035380375,40.0,86.0
361,70.42819913125,70.651049225,59.0,85.0
362,70.42819913125,70.6917731,64.0,87.0
363,70.42819913125,70.73362819375,68.0,87.0
364,71.24267663125,71.58430469375,61.0,81.0
365,71.24267663125,71.709869975,68.0,79.0
366,71.78566163125,71.936113725,61.0,87.0
367,72.05715413125,72.42366900625,64.0,90.0
368,72.05715413125,72.45534313125,61.0,87.0
369,71.24267663125,72.64991275625,49.0,91.0
370,71.51416913125,72.6668810375,56.0,72.0
371,72.60013913125,72.7890526625,64.0,91.0
372,72.60013913125,72.81054581875,68.0,81.0
373,72.60013913125,72.822989225,61.0,86.0
374,73.41461663125,73.74493250625,57.0,80.0
375,73.41461663125,73.95986406875,61.0,78.0
376,73.95760163125,74.10352885,57.0,87.0
377,74.22909413125,74.53904806875,57.0,87.0
378,74.22909413125,74.5537539125,64.0,88.0
379,74.77207913125,74.9632551,57.0,85.0
380,74.77207913125,75.0107662875,69.0,82.0
381,73.68610913125,75.0922140375,52.0,83.0
382,73.41461663125,75.121625725,45.0,85.0
383,75.04357163125,75.38746213125,61.0,85.0
384,75.31506413125,75.519814725,57.0,85.0
385,75.85804913125,76.23926985,59.0,86.0
386,76.12954163125,76.2732064125,63.0,79.0
387,75.58655663125,76.73587488125,47.0,87.0
388,76.40103413125,76.76415535,63.0,90.0
389,76.40103413125,76.78564850625,66.0,80.0
390,76.40103413125,76.78791094375,59.0,85.0
391,76.94401913125,77.13632631875001,59.0,86.0
392,76.94401913125,77.320714975,63.0,89.0
393,76.94401913125,77.32637106875,66.0,85.0
394,76.94401913125,77.38971931875,71.0,85.0
395,77.21551163125,77.40781881875,59.0,81.0
396,77.75849663125,78.3003504125,57.0,80.0
397,77.75849663125,78.33315575625,61.0,76.0
398,78.30148163125,78.46890200625,64.0,83.0
399,78.57297413124999,78.88745294375,64.0,86.0
400,78.57297413124999,78.9157334125,61.0,84.0
401,78.57297413124999,78.94401388125,57.0,85.0
402,78.57297413124999,78.94401388125,69.0,85.0
403,78.02998913125,79.21776881875,52.0,78.0
404,77.75849663125,79.230212225,45.0,85.0
405,79.11595913125001,79.26754244375,57.0,81.0
406,79.11595913125001,79.28111706875,61.0,81.0
407,79.93043663125,80.19740425625,59.0,81.0
408,79.93043663125,80.42591044375,40.0,87.0
409,80.20192913125,80.43948506875,47.0,78.0
410,80.33767538125,80.46889675625,59.0,87.0
411,79.93043663125,80.47342163125,64.0,86.0
412,81.01640663124999,81.311654725,61.0,78.0
413,81.01640663124999,81.44174488125,68.0,79.0
414,81.01640663124999,81.45984438125001,37.0,88.0
415,81.28789913125,81.537898475,44.0,76.0
416,81.01640663124999,81.537898475,64.0,85.0
417,81.55939163125001,81.86708313125,61.0,90.0
418,81.83088413125,82.14310050625,68.0,89.0
419,82.10237663125,82.316176975,61.0,80.0
420,82.10237663125,82.76979569375,42.0,87.0
421,82.37386913125,82.84898100625,49.0,75.0
422,82.64536163125,83.003957975,57.0,84.0
423,82.10237663125,83.17929688125,54.0,80.0
424,82.91685413125,83.22680806875,61.0,83.0
425,83.18834663125,83.356898225,66.0,79.0
426,83.73133163125,83.936082225,47.0,86.0
427,83.73133163125,84.07522213125,63.0,78.0
428,83.73133163125,84.198524975,59.0,85.0
429,84.27431663125,84.36933900625,40.0,85.0
430,84.27431663125,84.55259644375,59.0,81.0
431,84.27431663125,84.6035012875,64.0,86.0
432,85.08879413125,85.43268463125,64.0,99.0
433,85.36028663125,85.51186994375,68.0,99.0
434,84.81730163125,85.52770700625,59.0,82.0
435,85.90327163124999,86.01526228750001,64.0,87.0
436,84.54580913125,86.4632249125,52.0,86.0
437,85.90327163124999,86.47793075625,68.0,89.0
438,86.17476413125,86.48019319375,64.0,87.0
439,85.63177913125,86.48924294375,59.0,85.0
440,85.90327163124999,86.5107361,71.0,87.0
441,86.98924163125,87.57747538125,52.0,87.0
442,87.26073413125,87.64534850625,56.0,89.0
443,86.71774913125,87.81729375625,47.0,79.0
444,86.44625663125001,87.8342620375,40.0,88.0
445,87.80371913125,88.14760963125,52.0,81.0
446,88.07521163125,88.5740791,56.0,81.0
447,88.34670413125,88.5808664125,52.0,85.0
448,87.53222663125,88.76525506875001,64.0,90.0
449,89.43267413125,89.6057506,64.0,89.0
450,89.16118163125,89.65213056875,60.0,80.0
451,88.88968913125001,90.36027350625,55.0,80.0
452,88.61819663125,90.49828219375,48.0,89.0
453,89.70416663125,90.74036300624999,60.0,78.0
454,89.70416663125,90.77769322500001,64.0,87.0
455,89.70416663125,90.87724047500001,67.0,85.0
456,91.60461413125,92.0129841,66.0,94.0
457,91.33312163125001,92.044658225,62.0,82.0
458,91.06162913125,92.25619613125,57.0,73.0
459,90.79013663125,92.3500872875,50.0,86.0
460,91.87610663125,92.36931800625,74.0,92.0
461,92.14759913125,92.7211270375,69.0,82.0
462,92.69058413125,92.80596844375,66.0,73.0
463,92.41909163125,92.8206742875,62.0,78.0
464,92.96207663125,93.55854268125,64.0,87.0
465,92.96207663125,93.56422449375,60.0,82.0
466,93.50513364375,94.13013301875,67.0,85.0
467,94.05058764375,94.55740531875,72.0,87.0
468,93.23356913125,94.63013251875,55.0,83.0
469,92.96207663125,94.70285971875,48.0,86.0
470,94.32331464375001,94.72672333125,67.0,77.0
471,94.59604164375,95.04376846875,64.0,83.0
472,94.86876864375,95.22331374375,60.0,79.0
473,95.68694964375,96.07331289375,55.0,79.0
474,95.95967664375,96.12672193125,59.0,77.0
475,96.23240364375,96.29490358125,55.0,77.0
476,96.23240364375,96.57899420625,59.0,86.0
477,96.23240364375,96.60740326875,62.0,86.0
478,95.41422264375001,96.76308493125,50.0,80.0
479,95.14149564375,96.83240304375,43.0,85.0
480,96.50513064375001,96.83808485625,55.0,86.0
481,96.77785764375001,97.27672078125,59.0,87.0
482,97.05058464375,97.28581168125001,55.0,85.0
483,96.77785764375001,97.30626620625,62.0,86.0
484,96.77785764375001,97.50172055625,67.0,85.0
485,97.32331164375,97.66194766875,53.0,76.0
486,97.32331164375,97.67103856875,60.0,83.0
487,97.86876564375001,98.19603804375001,57.0,77.0
488,98.14149264375,98.47217413125,60.0,86.0
489,97.59603864375,99.29717330625,48.0,80.0
490,97.32331164375,99.30740056875,41.0,86.0
491,98.41421964375,99.56308213125,65.0,90.0
492,98.95967364375001,99.57444575625,57.0,86.0
493,98.68694664375,99.57444575625,60.0,86.0
494,99.23240064375,99.59603664375001,53.0,85.0
495,100.32330864375001,100.91308078125,55.0,86.0
496,100.05058164375001,100.91648986875,52.0,87.0
497,101.41421664375001,101.69035273125,52.0,81.0
498,101.14148964375,101.70057999375001,55.0,87.0
499,100.86876264375,101.70057999375001,59.0,87.0
500,100.59603564375,101.70171635625,64.0,90.0
501,101.65626185625001,101.70171635625,64.0,82.0
502,99.50512764375,101.70398908125,40.0,86.0
503,101.55512559375,101.70853453125001,57.0,67.0
504,99.77785464375,101.70967089375,47.0,80.0
505,101.60398918125,101.89717070625001,60.0,79.0
506,101.68012546875,102.24148854375001,69.0,86.0
507,102.14717045625001,102.33694299375,57.0,86.0
508,101.91194341875,102.34035208125,52.0,80.0
509,101.67444365625,102.34148844375001,45.0,86.0
510,102.66762448125,102.87898790625,58.0,71.0
511,102.76307893125,102.96876054375001,61.0,81.0
512,102.80626070625,103.30398748125,70.0,85.0
513,102.75739711875,103.39716920625,46.0,87.0
514,103.03580593125001,103.44830551875,58.0,89.0
515,103.28126023125,103.59035083125,61.0,82.0
516,103.54262360625,103.85285056875,70.0,72.0
517,104.33012281875,104.74830421875001,63.0,91.0
518,104.08012306875,104.76421329375,59.0,77.0
519,104.61307708125,104.78466781875001,66.0,96.0
520,104.87557681875,105.23353100625,59.0,85.0
521,104.87671318125001,105.50512164375,63.0,86.0
522,104.87330409375001,105.72784869375,66.0,80.0
523,104.86762228125001,105.83807585625,71.0,86.0
524,105.68580328125,105.85284856875,63.0,83.0
525,105.41875809375,105.86307583125,59.0,80.0
526,105.98807570625,106.30171175625,59.0,81.0
527,105.99034843125,106.34262080625001,63.0,80.0
528,105.99262115625001,106.36421169375001,66.0,79.0
529,106.92443840625,107.06307463125,71.0,73.0
530,106.98239289375,107.14148364375,75.0,71.0
531,107.06080190625,107.15739271875,78.0,53.0
532,107.11989275625001,107.22898355625,83.0,73.0
533,105.13694019375001,107.31761983125,54.0,65.0
534,103.80057789375,107.34943798125,47.0,88.0
535,108.23239164375,108.57139348333334,59.0,80.0
536,108.23239164375,108.78227757083334,68.0,79.0
537,108.77660864375001,108.98295758958334,59.0,85.0
538,109.04871714375001,109.12354698125,59.0,74.0
539,109.04871714375001,109.43647175625,64.0,90.0
540,108.50450014375001,109.70177754375001,47.0,74.0
541,108.23239164375,109.76867088333334,40.0,86.0
542,109.59293414375,109.81628987083334,59.0,85.0
543,109.59293414375,109.85710614583334,64.0,87.0
544,109.59293414375,109.89905620625001,68.0,87.0
545,110.40925964375,110.75166283958335,61.0,81.0
546,110.40925964375,110.87751302083333,68.0,79.0
547,110.95347664375001,111.10427010416667,61.0,87.0
548,111.22558514375001,111.59293161875,64.0,90.0
549,111.22558514375001,111.62467761041667,61.0,87.0
550,110.40925964375,111.81968870208334,49.0,91.0
551,110.68136814375,111.83669548333334,56.0,72.0
552,111.76980214375001,111.95914430833334,64.0,91.0
553,111.76980214375001,111.98068623125,68.0,81.0
554,111.76980214375001,111.99315787083334,61.0,86.0
555,112.58612764375,112.91719298541668,57.0,80.0
556,112.58612764375,113.13261221458335,61.0,78.0
557,113.13034464375,113.27660296250001,57.0,87.0
558,113.40245314375001,113.71311034791667,57.0,87.0
559,113.40245314375001,113.72784955833335,64.0,88.0
560,113.94667014375001,114.13827987916667,57.0,85.0
561,113.94667014375001,114.18589886666668,69.0,82.0
562,112.85823614375,114.26753141666667,52.0,83.0
563,112.58612764375,114.29700983750001,45.0,85.0
564,114.21877864375001,114.56344941041668,61.0,85.0
565,114.49088714375,114.69610230416667,57.0,85.0
566,115.03510414375,115.41718982916667,59.0,86.0
567,115.30721264375,115.45120339166667,63.0,79.0
568,114.76299564375,115.91492162708334,47.0,87.0
569,115.57932114375001,115.9432662625,63.0,90.0
570,115.57932114375001,115.96480818541667,66.0,80.0
571,115.57932114375001,115.96707575625001,59.0,85.0
572,116.12353814375001,116.31628166458334,59.0,86.0
573,116.12353814375001,116.50108868750002,63.0,89.0
574,116.12353814375001,116.50675761458334,66.0,85.0
575,116.12353814375001,116.57024959791667,71.0,85.0
576,116.39564664375001,116.58839016458334,59.0,81.0
577,116.93986364375,117.48294685833334,57.0,80.0
578,116.93986364375,117.51582663541667,61.0,76.0
579,117.48408064375,117.65188088541667,64.0,83.0
580,117.75618914375,118.07138148958335,64.0,86.0
581,117.75618914375,118.099726125,61.0,84.0
582,117.75618914375,118.12807076041668,57.0,85.0
583,117.75618914375,118.12807076041668,69.0,85.0
584,117.21197214375,118.40244683125,52.0,78.0
585,116.93986364375,118.41491847083334,45.0,85.0
586,118.30040614375001,118.45233338958334,57.0,81.0
587,118.30040614375001,118.46593881458334,61.0,81.0
588,119.11673164375,119.38430500208334,59.0,81.0
589,119.11673164375,119.61332965625,40.0,87.0
590,119.38884014375,119.62693508125001,47.0,78.0
591,119.52489439375,119.65641350208334,59.0,87.0
592,119.11673164375,119.66094864375,64.0,86.0
593,120.20516564375001,120.5010836375,61.0,78.0
594,120.20516564375001,120.63146896041667,68.0,79.0
595,120.20516564375001,120.64960952708334,37.0,88.0
596,120.47727414375001,120.72784072083334,44.0,76.0
597,120.20516564375001,120.72784072083334,64.0,85.0
598,120.74938264375001,121.05568864375002,61.0,90.0
599,121.01965264375,121.33046314375001,68.0,89.0
600,121.83046264375001,122.48474126875001,54.0,86.0
601,122.10073264375,122.48699351875001,61.0,78.0
602,122.64127264375001,122.70546176875001,61.0,72.0
603,121.56019264375001,122.79104726875,49.0,72.0
604,121.28992264375,122.87663276875001,42.0,91.0
605,122.64127264375001,122.95771376875001,57.0,81.0
606,122.91154264375001,123.02077676875001,49.0,89.0
607,123.45208264375,123.76964989375001,59.0,83.0
608,123.72235264375001,123.85748764375,51.0,81.0
609,123.45208264375,124.56919864375001,63.0,82.0
610,124.26289264375,124.63676614375001,66.0,94.0
611,123.99262264375001,124.86987401875001,54.0,81.0
612,124.80343264375001,125.13676564375001,59.0,83.0
613,124.80343264375001,125.15365751875001,71.0,85.0
614,124.80343264375001,125.28090964375001,66.0,85.0
615,125.20883764375002,125.43969326875,59.0,86.0
616,124.80343264375001,125.46559414375001,63.0,86.0
617,123.45208264375,125.47347701875,47.0,87.0
618,125.07370264375001,125.54780126875,54.0,79.0
619,125.61424264375,125.95095401875001,59.0,80.0
620,125.61424264375,126.16041326875,68.0,79.0
621,126.15478264375001,126.35973739375001,59.0,85.0
622,126.42505264375,126.49937689375001,59.0,74.0
623,126.42505264375,126.81018739375001,64.0,90.0
624,125.88451264375001,127.07370064375002,47.0,74.0
625,125.61424264375,127.14014201875001,40.0,86.0
626,126.96559264375001,127.18743926875001,59.0,85.0
627,126.96559264375001,127.22799508958335,64.0,87.0
628,126.96559264375001,127.26994515000001,68.0,87.0
629,127.78014858750001,128.12255178333334,61.0,81.0
630,127.78014858750001,128.24840196458334,68.0,79.0
631,128.3243655875,128.47515904791666,61.0,87.0
632,128.5964740875,128.96382056250002,64.0,90.0
633,128.5964740875,128.9955665541667,61.0,87.0
634,127.78014858750001,129.19057764583334,49.0,91.0
635,128.0522570875,129.20758442708333,56.0,72.0
636,129.14069108750002,129.33003325208335,64.0,91.0
637,129.14069108750002,129.351575175,68.0,81.0
638,129.14069108750002,129.36404681458333,61.0,86.0
639,129.9570165875,130.28808192916668,57.0,80.0
640,129.9570165875,130.50350115833334,61.0,78.0
641,130.5012335875,130.64749190625,57.0,87.0
642,130.7733420875,131.0839992916667,57.0,87.0
643,130.7733420875,131.09873850208334,64.0,88.0
644,131.3175590875,131.50916882291668,57.0,85.0
645,131.3175590875,131.55678781041667,69.0,82.0
646,130.2291250875,131.63842036041666,52.0,83.0
647,129.9570165875,131.66789878125002,45.0,85.0
648,131.5896675875,131.93433835416667,61.0,85.0
649,131.8617760875,132.06699124791666,57.0,85.0
650,132.4059930875,132.78807877291666,59.0,86.0
651,132.6781015875,132.82209233541667,63.0,79.0
652,132.1338845875,133.28581057083335,47.0,87.0
653,132.9502100875,133.31415520625,63.0,90.0
654,132.9502100875,133.33569712916668,66.0,80.0
655,132.9502100875,133.33796470000001,59.0,85.0
656,133.49442708750001,133.68717060833333,59.0,86.0
657,133.49442708750001,133.87197763125002,63.0,89.0
658,133.49442708750001,133.87764655833334,66.0,85.0
659,133.49442708750001,133.94113854166667,71.0,85.0
660,133.76653558750002,133.95927910833333,59.0,81.0
661,134.31075258750002,134.85383580208335,57.0,80.0
662,134.31075258750002,134.88671557916666,61.0,76.0
663,134.8549695875,135.02276982916666,64.0,83.0
664,135.1270780875,135.44227043333333,64.0,86.0
665,135.1270780875,135.47061506875002,61.0,84.0
666,135.1270780875,135.49895970416668,57.0,85.0
667,135.1270780875,135.49895970416668,69.0,85.0
668,134.58286108750002,135.77333577500002,52.0,78.0
669,134.31075258750002,135.78580741458333,45.0,85.0
670,135.6712950875,135.82322233333335,57.0,81.0
671,135.6712950875,135.83682775833333,61.0,81.0
672,136.4876205875,136.75519394583335,59.0,81.0
673,136.4876205875,136.98421860000002,40.0,87.0
674,136.7597290875,136.997824025,47.0,78.0
675,136.8957833375,137.02730244583333,59.0,87.0
676,136.4876205875,137.0318375875,64.0,86.0
677,137.5760545875,137.87197258125002,61.0,78.0
678,137.5760545875,138.00235790416667,68.0,79.0
679,137.5760545875,138.02049847083333,37.0,88.0
680,137.8481630875,138.09872966458335,44.0,76.0
681,137.5760545875,138.09872966458335,64.0,85.0
682,138.1202715875,138.42866122083333,61.0,90.0
683,138.39238008750002,138.70530486250001,68.0,89.0
684,138.66448858750002,138.87877403125,61.0,80.0
685,138.66448858750002,139.33342198333335,42.0,87.0
686,138.93659708750002,139.4127869625,49.0,75.0
687,139.20870558750002,139.56811556458334,57.0,84.0
688,138.66448858750002,139.74385230416667,54.0,80.0
689,139.4808140875,139.79147129166668,61.0,83.0
690,139.7529225875,139.92185661458333,66.0,79.0
691,140.2971395875,140.50235474791668,47.0,86.0
692,140.2971395875,140.64181035416667,63.0,78.0
693,140.2971395875,140.76539296458333,59.0,85.0
694,140.8413565875,140.9365945625,40.0,85.0
695,140.8413565875,141.12026780000002,59.0,81.0
696,140.8413565875,141.17128814375002,64.0,86.0
697,141.6576820875,142.00235285416667,64.0,99.0
698,141.9297905875,142.08171783333333,68.0,99.0
699,141.3855735875,142.09759082916668,59.0,82.0
700,142.4740075875,142.58625234375,64.0,87.0
701,141.1134650875,143.03523136875,52.0,86.0
702,142.4740075875,143.04997057916668,68.0,89.0
703,142.7461160875,143.05223815,64.0,87.0
704,143.01822458750001,143.05223815,64.0,86.0
705,142.2018990875,143.06130843333335,59.0,85.0
706,142.4740075875,143.08285035625002,71.0,87.0
707,143.56244158750002,143.64180656666667,61.0,96.0
708,143.01822458750001,143.64974306458333,57.0,85.0
709,143.29033308750002,143.95586512708334,52.0,82.0
710,143.83455008750002,144.19736142083335,57.0,87.0
711,143.83455008750002,144.20756548958335,61.0,86.0
712,143.83455008750002,144.22570605625,69.0,86.0
713,144.37876708750002,144.52275783541668,57.0,87.0
714,144.10665858750002,144.55337004166668,52.0,87.0
715,143.01822458750001,144.61459445416668,45.0,87.0
716,144.37876708750002,144.67695265208334,61.0,92.0
717,144.37876708750002,144.69395943333333,64.0,92.0
718,144.65087558750002,144.78579605208336,57.0,89.0
719,145.1950925875,145.48874301041667,56.0,86.0
720,145.1950925875,145.53069307083334,44.0,91.0
721,145.1950925875,145.58057962916666,59.0,87.0
722,145.4672010875,145.62026211875002,51.0,73.0
723,145.1950925875,145.69282438541669,63.0,85.0
724,145.7393095875,145.84928677291668,56.0,92.0
725,146.2835265875,146.62026085625,61.0,86.0
726,146.2835265875,146.63386628125,64.0,87.0
727,146.2835265875,146.66901362916667,49.0,89.0
728,146.5556350875,146.76198403333333,56.0,87.0
729,146.2835265875,146.79486381041667,68.0,82.0
730,146.8277435875,147.17694949583336,61.0,92.0
731,147.0998520875,147.46493099166668,68.0,90.0
732,147.91617758750002,148.11685760625,54.0,75.0
733,148.18828608750002,148.43885266458335,57.0,85.0
734,148.18828608750002,148.43885266458335,61.0,80.0
735,148.18828608750002,148.48080272500002,54.0,86.0
736,147.3719605875,148.7336368729167,42.0,96.0
737,147.64406908750001,148.82433970625002,49.0,73.0
738,148.73250308750002,149.02161836875,54.0,89.0
739,149.0046115875,149.10891984583333,42.0,83.0
740,149.2767200875,149.44792168541667,54.0,92.0
741,148.73250308750002,149.542025875,66.0,85.0
742,149.8209370875,150.00347653958335,59.0,86.0
743,149.5488285875,150.11798886666668,47.0,86.0
744,150.0930455875,150.22343091041668,59.0,87.0
745,150.0930455875,150.28125396666667,63.0,94.0
746,150.3651540875,150.5964463125,59.0,81.0
747,150.6372625875,150.7869222625,59.0,78.0
748,150.6372625875,150.97739821250002,64.0,87.0
749,150.9093710875,151.06696726041667,59.0,89.0
750,150.6372625875,151.09077675416668,68.0,79.0
751,151.1814795875,151.31866762291668,59.0,88.0
752,150.6372625875,151.64179646666668,40.0,91.0
753,151.1814795875,151.66560596041668,62.0,90.0
754,151.1814795875,151.68828166875002,68.0,86.0
755,151.4535880875,151.69395059583334,59.0,87.0
756,151.7256965875,152.28125144166668,64.0,86.0
757,152.2699135875,152.34927856666667,61.0,96.0
758,151.7256965875,152.35721506458333,57.0,85.0
759,151.9978050875,152.66333712708334,52.0,82.0
760,152.54202208750002,152.90483342083334,57.0,87.0
761,152.54202208750002,152.91503748958334,61.0,86.0
762,152.54202208750002,152.93317805625,69.0,86.0
763,153.08623908750002,153.23022983541668,57.0,87.0
764,152.81413058750002,153.26084204166668,52.0,87.0
765,151.7256965875,153.32206645416667,45.0,87.0
766,153.08623908750002,153.38442465208334,61.0,92.0
767,153.08623908750002,153.40143143333336,64.0,92.0
768,153.35834758750002,153.49326805208335,57.0,89.0
769,153.90256458750002,154.1882785125,56.0,84.0
770,153.90256458750002,154.23249614375,59.0,87.0
771,153.90256458750002,154.25290428125,63.0,79.0
772,153.90256458750002,154.41730316666667,44.0,91.0
773,154.17467308750003,154.439978875,51.0,70.0
774,154.4467815875,154.55675877291668,56.0,86.0
775,154.7188900875,155.07263113750003,56.0,85.0
776,154.7188900875,155.31866257291668,64.0,86.0
777,154.7188900875,155.34360585208333,61.0,79.0
778,155.2631070875,155.43090732916667,56.0,86.0
779,154.7188900875,155.49666688333335,49.0,91.0
780,155.5352155875,155.6508617,56.0,91.0
781,155.5352155875,155.75176860208336,61.0,86.0
782,155.5352155875,155.87761878333333,64.0,91.0
783,155.8073240875,155.90369584791668,56.0,75.0
784,156.0794325875,156.26310582500003,57.0,73.0
785,156.0794325875,156.29371803125002,61.0,80.0
786,156.3515410875,156.6236495875,57.0,79.0
787,156.6236495875,156.78124576041668,61.0,88.0
788,156.0794325875,156.80959039583334,45.0,86.0
789,156.8957580875,156.97285549583336,61.0,71.0
790,156.8957580875,157.00120013125002,45.0,82.0
791,156.8957580875,157.00800284375,52.0,81.0
792,156.8957580875,157.01027041458335,57.0,80.0
793,157.16786658750001,157.24723156666667,57.0,63.0
794,157.16786658750001,157.25176670833335,52.0,79.0
795,157.16786658750001,157.26083699166668,61.0,71.0
796,157.16786658750001,157.26650591875,45.0,74.0
797,157.43997508750002,157.5567549854167,52.0,78.0
798,157.43997508750002,157.56015634166667,57.0,80.0
799,157.43997508750002,157.57149419583334,61.0,80.0
800,157.43997508750002,157.58283205,45.0,76.0
801,157.71208358750002,157.80505399166668,61.0,85.0
802,157.71208358750002,157.81752563125002,57.0,79.0
803,157.71208358750002,157.82432834375,52.0,86.0
804,157.71208358750002,157.84020133958336,64.0,88.0
805,157.71208358750002,157.85153919375,45.0,85.0
806,157.98419208750002,158.10550712708334,45.0,81.0
807,157.98419208750002,158.1066409125,57.0,85.0
808,157.98419208750002,158.11117605416666,61.0,86.0
809,157.98419208750002,158.11684498125,52.0,86.0
810,157.98419208750002,158.12591526458334,64.0,86.0
811,158.25630058750002,158.47171981666668,63.0,86.0
812,158.25630058750002,158.47965631458334,59.0,86.0
813,158.25630058750002,158.48305767083335,47.0,94.0
814,159.0726260875,159.81525553541667,47.0,86.0
815,159.0726260875,160.04201261875002,66.0,78.0
816,159.0726260875,160.0635545416667,59.0,84.0
817,159.0726260875,160.07149103958335,63.0,80.0
818,160.4331685875,160.77217042708335,59.0,80.0
819,160.4331685875,160.98305451458333,68.0,79.0
820,160.9773855875,161.18373453333334,59.0,85.0
821,161.2494940875,161.32432392500002,59.0,74.0
822,161.2494940875,161.63724870000001,64.0,90.0
823,160.7052770875,161.90255448750003,47.0,74.0
824,160.4331685875,161.96944782708334,40.0,86.0
825,161.79371108750001,162.01706681458336,59.0,85.0
826,161.79371108750001,162.05788308958336,64.0,87.0
827,161.79371108750001,162.09983315,68.0,87.0
828,162.61003658750002,162.95243978333335,61.0,81.0
829,162.61003658750002,163.07828996458335,68.0,79.0
830,163.15425358750002,163.30504704791667,61.0,87.0
831,163.42636208750002,163.7937085625,64.0,90.0
832,163.42636208750002,163.82545455416667,61.0,87.0
833,162.61003658750002,164.02046564583335,49.0,91.0
834,162.88214508750002,164.03747242708334,56.0,72.0
835,163.97057908750003,164.15992125208334,64.0,91.0
836,163.97057908750003,164.181463175,68.0,81.0
837,163.97057908750003,164.19393481458334,61.0,86.0
838,164.7869045875,165.1179699291667,57.0,80.0
839,164.7869045875,165.33338915833335,61.0,78.0
840,165.3311215875,165.47737990625,57.0,87.0
841,165.6032300875,165.9138872916667,57.0,87.0
842,165.6032300875,165.92862650208335,64.0,88.0
843,166.1474470875,166.3390568229167,57.0,85.0
844,166.1474470875,166.38667581041668,69.0,82.0
845,165.0590130875,166.46830836041667,52.0,83.0
846,164.7869045875,166.49778678125,45.0,85.0
847,166.4195555875,166.76422635416668,61.0,85.0
848,166.69166408750002,166.89687924791667,57.0,85.0
849,167.23588108750002,167.61796677291667,59.0,86.0
850,167.50798958750002,167.65198033541668,63.0,79.0
851,166.96377258750002,168.11569857083333,47.0,87.0
852,167.78009808750002,168.14404320625002,63.0,90.0
853,167.78009808750002,168.1655851291667,66.0,80.0
854,167.78009808750002,168.16785270000003,59.0,85.0
855,168.3243150875,168.51705860833334,59.0,86.0
856,168.3243150875,168.70186563125003,63.0,89.0
857,168.3243150875,168.70753455833335,66.0,85.0
858,168.3243150875,168.77102654166669,71.0,85.0
859,168.5964235875,168.78916710833334,59.0,81.0
860,169.1406405875,169.68335690208335,57.0,80.0
861,169.1406405875,169.71594112083335,61.0,76.0
862,169.68448049583333,169.85077237083334,64.0,83.0
863,169.95414299583334,170.26650205833334,64.0,86.0
864,169.95414299583334,170.29459190208334,61.0,84.0
865,169.95414299583334,170.32268174583334,57.0,85.0
866,169.95414299583334,170.32268174583334,69.0,85.0
867,169.4127490875,170.59459143333333,52.0,78.0
868,169.1406405875,170.60695096458335,45.0,85.0
869,170.49346799583333,170.64402955833333,57.0,81.0
870,170.49346799583333,170.65751268333335,61.0,81.0
871,171.30245549583333,171.56762362083333,59.0,81.0
872,171.30245549583333,171.79458955833334,40.0,87.0
873,171.57211799583334,171.80807268333334,47.0,78.0
874,171.70694924583333,171.83728612083334,59.0,87.0
875,171.30245549583333,171.84178049583335,64.0,86.0
876,172.38110549583334,172.67436346458334,61.0,78.0
877,172.38110549583334,172.80357674583334,68.0,79.0
878,172.38110549583334,172.82155424583334,37.0,88.0
879,172.65076799583335,172.89908221458333,44.0,76.0
880,172.38110549583334,172.89908221458333,64.0,85.0
881,172.92043049583333,173.22604799583334,61.0,90.0
882,173.19009299583334,173.50020487083333,68.0,89.0
883,173.45975549583335,173.67211471458333,61.0,80.0
884,173.45975549583335,174.12267580833333,42.0,87.0
885,173.72941799583333,174.20132737083333,49.0,75.0
886,173.99908049583334,174.35525971458333,57.0,84.0
887,173.45975549583335,174.52941674583334,54.0,80.0
888,174.26874299583335,174.57660768333335,61.0,83.0
889,174.53840549583333,174.70582096458332,66.0,79.0
890,175.07773049583335,175.28110096458335,47.0,86.0
891,175.07773049583335,175.41930299583333,63.0,78.0
892,175.07773049583335,175.54177471458334,59.0,85.0
893,175.61705549583334,175.71143737083332,40.0,85.0
894,175.61705549583334,175.89345955833335,59.0,81.0
895,175.61705549583334,175.94402127708332,64.0,86.0
896,176.42604299583334,176.76761549583333,64.0,99.0
897,176.69570549583332,176.84626705833332,68.0,99.0
898,176.15638049583333,176.86199737083334,59.0,82.0
899,177.23503049583334,177.34626627708334,64.0,87.0
900,175.88671799583335,177.79138477708335,52.0,86.0
901,177.23503049583334,177.80609062083334,68.0,89.0
902,177.50469299583332,177.80835305833335,64.0,87.0
903,177.77441649583335,177.80835305833335,64.0,86.0
904,176.96536799583333,177.81740280833336,59.0,85.0
905,177.23503049583334,177.83889596458334,71.0,87.0
906,178.31740149583334,178.39658680833335,61.0,96.0
907,177.77441649583335,178.40450533958335,57.0,85.0
908,178.04590899583334,178.70993440208335,52.0,82.0
909,178.58889399583336,178.95088399583335,57.0,87.0
910,178.58889399583336,178.96106496458336,61.0,86.0
911,178.58889399583336,178.97916446458333,69.0,86.0
912,179.13187899583335,179.27554377708336,57.0,87.0
913,178.86038649583335,179.30608668333335,52.0,87.0
914,177.77441649583335,179.36717249583336,45.0,87.0
915,179.13187899583335,179.42938952708334,61.0,92.0
916,179.13187899583335,179.44635780833335,64.0,92.0
917,179.40337149583334,179.53798652708335,57.0,89.0
918,179.94635649583336,180.23934215208334,56.0,86.0
919,179.94635649583336,180.28119724583334,44.0,91.0
920,179.94635649583336,180.33097087083334,59.0,87.0
921,180.21784899583335,180.37056352708333,51.0,73.0
922,179.94635649583336,180.44296152708336,63.0,85.0
923,180.48934149583334,180.59906971458335,56.0,92.0
924,181.03232649583336,181.36829846458335,61.0,86.0
925,181.03232649583336,181.38187308958334,64.0,87.0
926,181.03232649583336,181.41694087083334,49.0,89.0
927,181.30381899583335,181.50970080833335,56.0,87.0
928,181.03232649583336,181.54250615208335,68.0,82.0
929,181.57531149583335,181.92372687083335,61.0,92.0
930,181.84680399583334,182.21105643333334,68.0,90.0
931,182.66128149583335,182.86150721458336,54.0,75.0
932,182.93277399583334,183.18277333958335,57.0,85.0
933,182.93277399583334,183.18277333958335,61.0,80.0
934,182.93277399583334,183.22462843333335,54.0,86.0
935,182.11829649583333,183.47689021458334,42.0,96.0
936,182.38978899583336,183.56738771458333,49.0,73.0
937,183.47575899583336,183.76421977708335,54.0,89.0
938,183.74725149583335,183.85132362083334,42.0,83.0
939,184.01874399583335,184.18955802708334,54.0,92.0
940,183.47575899583336,184.28344918333335,66.0,85.0
941,184.56172899583333,184.74385521458333,59.0,86.0
942,184.29023649583334,184.85810830833336,47.0,86.0
943,184.83322149583336,184.96331165208335,59.0,87.0
944,184.83322149583336,185.02100380833335,63.0,94.0
945,185.10471399583335,185.33548262083335,59.0,81.0
946,185.37620649583334,185.52552737083334,59.0,78.0
947,185.37620649583334,185.71557212083334,64.0,87.0
948,185.64769899583334,185.80493840208334,59.0,89.0
949,185.37620649583334,185.82869399583336,68.0,79.0
950,185.91919149583336,186.05606896458335,59.0,88.0
951,185.37620649583334,186.37846630833334,40.0,91.0
952,185.91919149583336,186.40232992083335,62.0,90.0
953,185.91919149583336,186.42505717083336,68.0,86.0
954,186.19068399583335,186.43073898333336,59.0,87.0
955,186.46255713333335,187.01937475833336,64.0,86.0
956,187.00801113333335,187.08755650833334,61.0,96.0
957,186.46255713333335,187.09551104583335,57.0,85.0
958,186.73528413333335,187.40232892083336,52.0,82.0
959,187.28073813333336,187.64437413333334,57.0,87.0
960,187.28073813333336,187.65460139583334,61.0,86.0
961,187.28073813333336,187.67278319583335,69.0,86.0
962,187.82619213333334,187.97051017083334,57.0,87.0
963,187.55346513333333,188.00119195833335,52.0,87.0
964,186.46255713333335,188.06255553333335,45.0,87.0
965,187.82619213333334,188.12505547083333,61.0,92.0
966,187.82619213333334,188.14210090833333,64.0,92.0
967,188.09891913333334,188.23414627083335,57.0,89.0
968,188.64437313333335,188.93073648333333,56.0,84.0
969,188.64437313333335,188.97505462083333,59.0,87.0
970,188.64437313333335,188.99550914583335,63.0,79.0
971,188.64437313333335,189.16028170833334,44.0,91.0
972,188.91710013333335,189.18300895833335,51.0,70.0
973,189.18982713333335,189.30005429583335,56.0,86.0
974,189.46255413333336,189.81709923333335,56.0,85.0
975,189.46255413333336,190.06368989583333,64.0,86.0
976,189.46255413333336,190.08868987083335,61.0,79.0
977,190.00800813333333,190.17618978333334,56.0,86.0
978,189.46255413333336,190.24209880833334,49.0,91.0
979,190.28073513333334,190.39664410833333,56.0,91.0
980,190.28073513333334,190.49778037083334,61.0,86.0
981,190.28073513333334,190.62391660833333,64.0,91.0
982,190.55346213333334,190.65005294583335,56.0,75.0
983,190.82618913333334,191.01027985833335,57.0,73.0
984,190.82618913333334,191.04096164583333,61.0,80.0
985,191.09891613333335,191.37164313333335,57.0,79.0
986,191.37164313333335,191.52959752083333,61.0,88.0
987,190.82618913333334,191.55800658333334,45.0,86.0
988,191.64437013333335,191.72164278333335,61.0,71.0
989,191.64437013333335,191.75005184583335,45.0,82.0
990,191.64437013333335,191.75687002083333,52.0,81.0
991,191.64437013333335,191.75914274583334,57.0,80.0
992,191.91709713333336,191.99664250833334,57.0,63.0
993,191.91709713333336,192.00118795833333,52.0,79.0
994,191.91709713333336,192.01027885833335,61.0,71.0
995,191.91709713333336,192.01596067083335,45.0,74.0
996,192.18982413333333,192.30686947083333,52.0,78.0
997,192.18982413333333,192.31027855833335,57.0,80.0
998,192.18982413333333,192.32164218333335,61.0,80.0
999,192.18982413333333,192.33300580833335,45.0,76.0
1000,192.46255113333333,192.55573285833336,61.0,85.0
1001,192.46255113333333,192.56823284583334,57.0,79.0
1002,192.46255113333333,192.57505102083334,52.0,86.0
1003,192.46255113333333,192.59096009583334,64.0,88.0
1004,192.46255113333333,192.60232372083334,45.0,85.0
1005,192.73527813333334,192.85686892083334,45.0,81.0
1006,192.73527813333334,192.85800528333334,57.0,85.0
1007,192.73527813333334,192.86255073333334,61.0,86.0
1008,192.73527813333334,192.86823254583334,52.0,86.0
1009,192.73527813333334,192.87732344583335,64.0,86.0
1010,193.00800513333334,193.22391400833334,63.0,86.0
1011,193.00800513333334,193.23186854583335,59.0,86.0
1012,193.00800513333334,193.23527763333334,47.0,94.0
1013,193.82618613333335,194.57050357083335,47.0,86.0
1014,193.82618613333335,194.79777607083335,66.0,78.0
1015,193.82618613333335,194.81936695833335,59.0,84.0
1016,193.82618613333335,194.82732149583336,63.0,80.0
1017,195.18982113333334,195.52959352083334,59.0,80.0
1018,195.18982113333334,195.74095694583335,68.0,79.0
1019,195.73527513333335,195.94209310833335,59.0,85.0
1020,196.00800213333335,196.08300205833334,59.0,74.0
1021,196.00800213333335,196.39663810833335,64.0,90.0
1022,195.46254813333334,196.66254693333335,47.0,74.0
1023,195.18982113333334,196.72959232083335,40.0,86.0
1024,196.55345613333336,196.77731954583334,59.0,85.0
1025,196.55345613333336,196.81822859583335,64.0,87.0
1026,196.55345613333336,196.86027400833333,68.0,87.0
1027,197.37163713333334,197.71481860833336,61.0,81.0
1028,197.37163713333334,197.84095484583335,68.0,79.0
1029,197.91709113333334,198.06822734583335,61.0,87.0
1030,198.18981813333335,198.55799958333336,64.0,90.0
1031,198.18981813333335,198.58981773333335,61.0,87.0
1032,197.37163713333334,198.78527208333335,49.0,91.0
1033,197.64436413333334,198.80231752083336,56.0,72.0
1034,198.73527213333335,198.92504467083336,64.0,91.0
1035,198.73527213333335,198.94663555833336,68.0,81.0
1036,198.73527213333335,198.95913554583333,61.0,86.0
1037,199.55345313333333,199.88527098333336,57.0,80.0
1038,199.55345313333333,200.10117985833335,61.0,78.0
1039,200.09890713333334,200.24549789583335,57.0,87.0
1040,200.37163413333334,200.68299745833335,57.0,87.0
1041,200.37163413333334,200.69777017083334,64.0,88.0
1042,200.91708813333335,201.10913339583334,57.0,85.0
1043,200.91708813333335,201.15686062083336,69.0,82.0
1044,199.82618013333334,201.23867872083335,52.0,83.0
1045,199.55345313333333,201.26822414583336,45.0,85.0
1046,201.18981513333335,201.53526933333333,61.0,85.0
1047,201.46254213333336,201.66822374583336,57.0,85.0
1048,202.00799613333334,202.39095029583333,59.0,86.0
1049,202.28072313333334,202.42504117083334,63.0,79.0
1050,201.73526913333333,202.88981343333336,47.0,87.0
1051,202.55345013333334,202.91822249583333,63.0,90.0
1052,202.55345013333334,202.93981338333333,66.0,80.0
1053,202.55345013333334,202.94208610833334,59.0,85.0
1054,203.09890413333335,203.29208575833334,59.0,86.0
1055,203.09890413333335,203.47731284583335,63.0,89.0
1056,203.09890413333335,203.48299465833335,66.0,85.0
1057,203.09890413333335,203.54663095833334,71.0,85.0
1058,203.37163113333335,203.56481275833335,59.0,81.0
1059,203.91708513333333,204.46140277083333,57.0,80.0
1060,203.91708513333333,204.49435728333336,61.0,76.0
1061,204.46253913333334,204.63072078333335,64.0,83.0
1062,204.73526613333334,205.05117490833334,64.0,86.0
1063,204.73526613333334,205.07958397083334,61.0,84.0
1064,204.73526613333334,205.10799303333334,57.0,85.0
1065,204.73526613333334,205.10799303333334,69.0,85.0
1066,204.18981213333333,205.38299275833333,52.0,78.0
1067,203.91708513333333,205.39549274583334,45.0,85.0
1068,205.28072013333335,205.43299270833336,57.0,81.0
1069,205.28072013333335,205.44662905833334,61.0,81.0
1070,206.09890113333336,206.36708268333334,59.0,81.0
1071,206.09890113333336,206.59662790833335,40.0,87.0
1072,206.37162813333333,206.61026425833336,47.0,78.0
1073,206.50799163333335,206.63980968333334,59.0,87.0
1074,206.09890113333336,206.64435513333333,64.0,86.0
1075,207.18980913333334,207.48639974583335,61.0,78.0
1076,207.18980913333334,207.61708143333334,68.0,79.0
1077,207.18980913333334,207.63526323333335,37.0,88.0
1078,207.46253613333334,207.71367224583335,44.0,76.0
1079,207.18980913333334,207.71367224583335,64.0,85.0
1080,207.73526313333335,208.04435373333334,61.0,90.0
1081,208.00799013333335,208.32162618333334,68.0,89.0
1082,208.28071713333335,208.49548964583335,61.0,80.0
1083,208.28071713333335,208.95117100833335,42.0,87.0
1084,208.55344413333336,209.03071638333336,49.0,75.0
1085,208.82617113333333,209.18639804583336,57.0,84.0
1086,208.28071713333335,209.36253423333335,54.0,80.0
1087,209.09889813333334,209.41026145833334,61.0,83.0
1088,209.37162513333334,209.54094314583335,66.0,79.0
1089,209.91707913333335,210.12276074583335,47.0,86.0
1090,209.91707913333335,210.26253333333335,63.0,78.0
1091,209.91707913333335,210.38639684583336,59.0,85.0
1092,210.46253313333335,210.55798758333336,40.0,85.0
1093,210.46253313333335,210.74207830833336,59.0,81.0
1094,210.46253313333335,210.79321462083334,64.0,86.0
1095,211.28071413333333,211.62616833333334,64.0,99.0
1096,211.55344113333334,211.70571370833335,68.0,99.0
1097,211.00798713333336,211.72162278333334,59.0,82.0
1098,212.09889513333334,212.21139502083335,64.0,87.0
1099,210.73526013333336,212.66139457083335,52.0,86.0
1100,212.09889513333334,212.67616728333334,68.0,89.0
1101,212.37162213333335,212.67844000833335,64.0,87.0
1102,212.64434913333335,212.67844000833335,64.0,84.0
1103,211.82616813333334,212.68753090833334,59.0,85.0
1104,212.09889513333334,212.70912179583334,71.0,87.0
1105,213.18980313333336,213.55684822083333,61.0,89.0
1106,212.64434913333335,213.58412092083336,57.0,77.0
1107,212.91707613333335,214.05912044583334,52.0,85.0
1108,212.64434913333335,214.06593862083335,45.0,85.0
1109,213.46253013333336,214.14093854583334,69.0,89.0
1110,214.00798413333334,214.26366569583334,64.0,86.0
1111,214.28071113333334,214.36480195833335,57.0,87.0
1112,214.82616513333335,215.16366479583334,56.0,73.0
1113,214.82616513333335,215.29661920833334,44.0,87.0
1114,215.09889213333335,215.29661920833334,51.0,75.0
1115,214.82616513333335,215.35911914583335,59.0,79.0
1116,214.82616513333335,215.36139187083336,63.0,79.0
1117,215.37161913333335,215.49320992083335,56.0,86.0
1118,215.91707313333336,216.70570870833336,37.0,89.0
1119,216.18980013333334,216.76366319583335,44.0,81.0
1120,216.46252713333334,216.88525398333334,49.0,88.0
1121,216.73525413333334,216.93979938333334,52.0,82.0
1122,217.00798113333335,217.86934390833335,42.0,91.0
1123,217.28070813333335,217.90116205833334,49.0,72.0
1124,217.55343513333335,218.05229827083335,54.0,77.0
1125,217.82616213333336,218.09661640833335,57.0,72.0
1126,218.09888913333336,218.81138842083334,47.0,83.0
1127,218.91707013333334,219.20684257083335,63.0,65.0
1128,218.64434313333334,219.35570605833334,59.0,83.0
1129,219.18979713333334,219.42502417083335,64.0,85.0
1130,219.73525113333335,219.96820544583335,52.0,80.0
1131,220.00797813333335,220.12388710833335,56.0,86.0
1132,220.28070513333336,220.60343208333336,59.0,86.0
1133,220.55343213333333,220.85343183333333,64.0,86.0
1134,219.46252413333335,221.15229517083336,47.0,71.0
1135,219.18979713333334,221.16593152083334,40.0,86.0
1136,220.82615913333336,221.27161323333334,68.0,90.0
1137,221.09888613333334,221.45911304583336,64.0,85.0
1138,221.91706713333335,222.53411197083335,57.0,82.0
1139,222.18979413333335,222.59433918333335,61.0,85.0
1140,222.46252113333335,222.76706628333335,64.0,81.0
1141,221.64434013333334,223.30002029583335,52.0,79.0
1142,221.37161313333334,223.31365664583336,45.0,86.0
1143,223.00797513333333,223.53979278333335,64.0,87.0
1144,223.28070213333336,223.54433823333335,57.0,79.0
1145,222.73524813333336,223.65001994583335,69.0,85.0
1146,223.82615613333334,224.18751940833334,59.0,86.0
1147,224.09888313333335,224.44661005833336,63.0,88.0
1148,224.37161013333335,224.68638254583334,66.0,88.0
1149,223.55342913333334,224.97160953333335,47.0,90.0
1150,224.64433713333335,225.63979068333333,71.0,89.0
1151,224.91706413333335,225.66138157083336,66.0,76.0
1152,225.18979113333336,225.71138152083336,59.0,79.0
1153,225.46251813333333,225.71138152083336,63.0,64.0
1154,226.55342613333335,226.90001669583336,56.0,87.0
1155,226.00797213333334,226.91024395833335,47.0,77.0
1156,226.28069913333334,226.93638029583335,52.0,86.0
1157,225.73524513333336,226.95001664583333,40.0,88.0
1158,227.09888013333335,227.42842525833333,56.0,81.0
1159,226.82615313333335,227.50342518333335,59.0,81.0
1160,227.37160713333336,227.76819764583334,64.0,86.0
1161,227.64433413333336,227.81251578333334,52.0,82.0
1162,227.89774297083335,230.03183174583336,52.0,85.0
1163,227.97501562083335,230.22955882083335,56.0,75.0
1164,228.15228817083334,230.39319502083333,64.0,85.0
1165,228.07842460833336,230.39774047083336,59.0,75.0
1166,230.11478620833336,231.12728519583334,47.0,75.0
1167,229.94774092083335,231.15342153333336,40.0,75.0
1168,230.25114970833334,231.43637579583336,52.0,77.0
1169,230.35114960833334,231.45001214583334,56.0,72.0
1170,230.51364944583335,231.47842120833334,59.0,44.0
