,start,end,pitch,velocity
0,0.5421875,0.909375,77.0,107.0
1,0.9171875,1.2984375000000001,79.0,93.0
2,1.2921875,3.0718750000000004,81.0,112.0
3,3.1671875000000003,3.4140625,88.0,89.0
4,3.3546875000000003,3.528125,89.0,92.0
5,3.5421875000000003,5.7703125,96.0,95.0
6,5.417187500000001,5.776562500000001,72.0,92.0
7,5.792187500000001,6.214062500000001,74.0,95.0
8,6.917187500000001,7.3265625000000005,79.0,90.0
9,6.167187500000001,7.401562500000001,77.0,90.0
10,7.292187500000001,7.6546875000000005,81.0,93.0
11,9.1671875,9.4875,84.0,90.0
12,7.667187500000001,9.9015625,74.0,95.0
13,9.5421875,11.3546875,76.0,86.0
14,12.5421875,12.978125,77.0,92.0
15,12.9171875,13.326562500000001,79.0,77.0
16,13.2921875,13.654687500000001,81.0,85.0
17,13.6671875,14.9453125,74.0,70.0
18,15.1671875,15.55,81.0,97.0
19,15.5421875,16.1296875,82.0,99.0
20,16.1046875,16.659375,84.0,92.0
21,16.6671875,17.7921875,81.0,92.0
22,18.1671875,18.368750000000002,79.0,89.0
23,18.3546875,18.5078125,81.0,73.0
24,18.5421875,19.34375,82.0,102.0
25,20.0421875,21.0703125,74.0,92.0
26,20.7921875,21.1234375,82.0,117.0
27,21.1671875,21.3421875,81.0,92.0
28,21.3546875,21.5734375,79.0,82.0
29,21.5421875,23.6546875,81.0,97.0
30,24.1671875,24.4984375,74.0,95.0
31,24.5421875,24.9765625,77.0,99.0
32,24.9171875,25.293750000000003,79.0,88.0
33,25.2921875,25.6953125,81.0,89.0
34,25.6671875,26.4046875,74.0,82.0
35,26.0421875,26.879687500000003,69.0,75.0
36,26.7921875,27.204687500000002,81.0,97.0
37,27.1671875,27.5109375,82.0,107.0
38,27.5421875,28.584375,81.0,99.0
39,30.1671875,30.3421875,82.0,102.0
40,30.3546875,30.553125,81.0,85.0
41,30.5421875,30.909375,82.0,102.0
42,30.9171875,31.306250000000002,77.0,89.0
43,31.6671875,32.146875,82.0,100.0
44,32.042187500000004,33.45,84.0,107.0
45,33.167187500000004,33.526562500000004,77.0,90.0
46,33.542187500000004,35.06875,86.0,97.0
47,41.042187500000004,41.4890625,84.0,89.0
48,41.417187500000004,41.792187500000004,76.0,82.0
49,41.792187500000004,42.7109375,72.0,86.0
50,45.917187500000004,46.45,72.0,90.0
51,46.667187500000004,47.875,81.0,100.0
52,47.417187500000004,48.182812500000004,72.0,71.0
53,48.167187500000004,50.0671875,69.0,75.0
54,50.792187500000004,51.595312500000006,81.0,78.0
55,62.417187500000004,62.8171875,79.0,85.0
56,62.792187500000004,63.1796875,81.0,86.0
57,63.167187500000004,64.275,84.0,107.0
58,63.542187500000004,64.94375000000001,76.0,76.0
59,77.04218750000001,77.69375000000001,84.0,69.0
60,77.60468750000001,79.58906250000001,81.0,79.0
61,80.41718750000001,80.80781250000001,72.0,89.0
62,80.79218750000001,81.15,79.0,100.0
63,81.16718750000001,81.5515625,81.0,77.0
64,81.54218750000001,82.99531250000001,74.0,81.0
65,90.54218750000001,91.0515625,88.0,112.0
66,91.10468750000001,91.63906250000001,84.0,107.0
67,91.66718750000001,92.01875000000001,81.0,97.0
68,92.04218750000001,92.61875,77.0,83.0
69,92.60468750000001,93.16875,76.0,66.0
70,93.16718750000001,93.871875,72.0,92.0
71,93.54218750000001,94.484375,84.0,97.0
72,118.29218750000001,118.46718750000001,89.0,127.0
73,118.47968750000001,118.6921875,88.0,79.0
74,118.66718750000001,118.8640625,89.0,93.0
75,118.85468750000001,119.040625,88.0,93.0
76,119.04218750000001,119.22500000000001,84.0,102.0
77,119.22968750000001,119.43593750000001,79.0,95.0
78,119.41718750000001,119.61875,76.0,93.0
79,119.60468750000001,119.77968750000001,74.0,90.0
80,119.79218750000001,120.42500000000001,72.0,89.0
81,131.4171875,131.60625000000002,88.0,107.0
82,131.7921875,132.290625,88.0,127.0
83,141.5421875,141.665625,83.0,117.0
84,141.9171875,142.0765625,83.0,127.0
85,142.2921875,142.4984375,71.0,127.0
86,142.4796875,142.6828125,72.0,96.0
87,142.6671875,142.946875,71.0,127.0
88,143.0421875,143.221875,71.0,127.0
89,143.2296875,143.4359375,72.0,96.0
90,143.4171875,143.7484375,71.0,93.0
91,144.1671875,144.35625000000002,59.0,85.0
92,144.1671875,144.425,71.0,112.0
93,144.3546875,144.4953125,60.0,86.0
94,144.3546875,144.5453125,72.0,89.0
95,144.5421875,144.6578125,74.0,93.0
96,144.5421875,144.678125,67.0,97.0
97,145.1046875,145.2109375,74.0,90.0
98,145.1046875,145.2203125,67.0,99.0
99,145.6671875,145.7875,67.0,96.0
100,145.6671875,145.790625,74.0,100.0
101,146.2296875,146.4296875,76.0,99.0
102,146.2296875,146.43437500000002,69.0,90.0
103,146.7921875,146.959375,76.0,102.0
104,146.7921875,146.9640625,69.0,93.0
105,171.9171875,172.13906250000002,76.0,39.0
106,172.1046875,172.23281250000002,77.0,73.0
107,172.2921875,172.6265625,77.0,102.0
108,172.6671875,172.7765625,76.0,79.0
109,172.8546875,172.984375,76.0,73.0
110,173.0421875,173.4875,69.0,99.0
111,173.4171875,173.628125,76.0,112.0
112,173.6046875,173.784375,77.0,82.0
113,173.7921875,174.0578125,76.0,107.0
114,174.1671875,174.265625,72.0,96.0
115,174.3546875,174.54531250000002,72.0,81.0
116,174.5421875,174.92031250000002,69.0,100.0
117,174.9171875,175.128125,67.0,112.0
118,175.1046875,175.275,69.0,85.0
119,175.2921875,176.06718750000002,65.0,81.0
120,175.8546875,177.05,69.0,102.0
121,177.5421875,177.77187500000002,69.0,96.0
122,177.7296875,177.95156250000002,72.0,96.0
123,177.9171875,178.00468750000002,76.0,77.0
124,178.1046875,178.3984375,81.0,117.0
125,178.4796875,178.66875000000002,79.0,122.0
126,178.8546875,179.1578125,76.0,112.0
127,179.2296875,179.4375,72.0,107.0
128,179.6046875,179.89375,69.0,95.0
129,180.1671875,180.3859375,74.0,127.0
130,180.3546875,180.52812500000002,76.0,90.0
131,180.5421875,180.890625,77.0,127.0
132,180.9171875,181.14531250000002,76.0,96.0
133,181.1046875,181.35000000000002,77.0,122.0
134,181.4796875,181.8375,79.0,127.0
135,181.8546875,182.37968750000002,76.0,102.0
136,182.4171875,182.6328125,74.0,112.0
137,182.6046875,182.8234375,72.0,95.0
138,182.7921875,183.09062500000002,69.0,97.0
139,182.9796875,183.103125,72.0,88.0
140,183.1671875,183.4015625,77.0,93.0
141,183.3546875,183.55,76.0,93.0
142,183.5421875,183.765625,74.0,107.0
143,183.7296875,183.96875,76.0,97.0
144,183.9171875,184.0390625,77.0,122.0
145,184.1046875,184.35781250000002,76.0,112.0
146,184.2921875,184.53125,77.0,122.0
147,184.4796875,184.70781250000002,79.0,96.0
148,184.6671875,184.80156250000002,81.0,127.0
149,184.8546875,185.1203125,79.0,117.0
150,185.0421875,185.21718750000002,81.0,107.0
151,185.2296875,185.38125000000002,84.0,122.0
152,185.4171875,185.67031250000002,81.0,102.0
153,185.6046875,185.84843750000002,84.0,127.0
154,185.7921875,186.0328125,86.0,122.0
155,185.9796875,186.2203125,88.0,122.0
156,186.1671875,186.32656250000002,86.0,112.0
157,186.3546875,186.4640625,84.0,100.0
158,186.5421875,186.88906250000002,84.0,127.0
159,186.9171875,187.0,81.0,88.0
160,187.1046875,187.49687500000002,81.0,127.0
161,187.4796875,187.753125,79.0,122.0
162,187.8546875,188.1671875,79.0,112.0
163,188.2296875,188.49375,76.0,100.0
164,188.6046875,188.9171875,76.0,95.0
165,188.9796875,189.20156250000002,79.0,117.0
166,189.5421875,189.734375,77.0,127.0
167,189.7296875,189.915625,76.0,93.0
168,189.9171875,190.10000000000002,74.0,99.0
169,190.1046875,190.43125,77.0,117.0
170,190.4796875,190.82656250000002,76.0,122.0
171,190.8546875,191.05937500000002,74.0,92.0
172,191.0421875,191.446875,76.0,112.0
173,191.4171875,191.62968750000002,74.0,112.0
174,191.6046875,191.80937500000002,72.0,117.0
175,191.7921875,192.00625000000002,69.0,99.0
176,191.9796875,192.1953125,67.0,99.0
177,192.1671875,192.5234375,65.0,97.0
178,192.5421875,192.76875,62.0,112.0
179,192.7296875,192.98906250000002,64.0,85.0
180,192.9171875,193.08281250000002,65.0,66.0
181,193.1046875,193.34062500000002,64.0,67.0
182,193.2921875,193.55156250000002,65.0,79.0
183,193.4796875,193.6796875,67.0,78.0
184,193.6671875,193.77968750000002,69.0,99.0
185,193.89687500000002,194.0484375,88.0,81.0
186,193.97500000000002,194.07656250000002,93.0,92.0
187,193.8546875,195.578125,74.0,97.0
188,194.05625,195.78125,96.0,100.0
189,206.0421875,206.69375000000002,84.0,69.0
190,206.6046875,208.5890625,81.0,79.0
191,209.4171875,209.8078125,72.0,89.0
192,209.7921875,210.15,79.0,100.0
193,210.1671875,210.55156250000002,81.0,77.0
194,210.5421875,211.9953125,74.0,81.0
195,219.5421875,220.05156250000002,88.0,112.0
196,220.1046875,220.63906250000002,84.0,107.0
197,220.6671875,221.01875,81.0,97.0
198,221.0421875,221.61875,77.0,83.0
199,221.6046875,222.16875000000002,76.0,66.0
200,222.1671875,222.87187500000002,72.0,92.0
201,222.5421875,223.484375,84.0,97.0
202,247.2921875,247.46718750000002,89.0,127.0
203,247.4796875,247.69218750000002,88.0,79.0
204,247.6671875,247.86406250000002,89.0,93.0
205,247.8546875,248.040625,88.0,93.0
206,248.0421875,248.22500000000002,84.0,102.0
207,248.2296875,248.43593750000002,79.0,95.0
208,248.4171875,248.61875,76.0,93.0
209,248.6046875,248.77968750000002,74.0,90.0
210,248.7921875,249.425,72.0,89.0
211,260.4171875,260.60625,88.0,107.0
212,260.7921875,261.29062500000003,88.0,127.0
213,270.5421875,270.66562500000003,83.0,117.0
214,270.9171875,271.0765625,83.0,127.0
215,271.2921875,271.4984375,71.0,127.0
216,271.4796875,271.6828125,72.0,96.0
217,271.6671875,271.94687500000003,71.0,127.0
218,272.0421875,272.221875,71.0,127.0
219,272.2296875,272.4359375,72.0,96.0
220,272.4171875,272.7484375,71.0,93.0
221,273.1671875,273.35625,59.0,85.0
222,273.1671875,273.425,71.0,112.0
223,273.3546875,273.4953125,60.0,86.0
224,273.3546875,273.5453125,72.0,89.0
225,273.5421875,273.65781250000003,74.0,93.0
226,273.5421875,273.678125,67.0,97.0
227,274.1046875,274.2109375,74.0,90.0
228,274.1046875,274.22031250000003,67.0,99.0
229,274.6671875,274.7875,67.0,96.0
230,274.6671875,274.79062500000003,74.0,100.0
231,275.2296875,275.4296875,76.0,99.0
232,275.2296875,275.434375,69.0,90.0
233,275.7921875,275.959375,76.0,102.0
234,275.7921875,275.9640625,69.0,93.0
235,300.9171875,301.1390625,76.0,39.0
236,301.1046875,301.2328125,77.0,73.0
237,301.2921875,301.62656250000003,77.0,102.0
238,301.6671875,301.7765625,76.0,79.0
239,301.8546875,301.984375,76.0,73.0
240,302.0421875,302.4875,69.0,99.0
241,302.4171875,302.628125,76.0,112.0
242,302.6046875,302.784375,77.0,82.0
243,302.7921875,303.0578125,76.0,107.0
244,303.1671875,303.265625,72.0,96.0
245,303.3546875,303.5453125,72.0,81.0
246,303.5421875,303.9203125,69.0,100.0
247,303.9171875,304.128125,67.0,112.0
248,304.1046875,304.27500000000003,69.0,85.0
249,304.2921875,305.0671875,65.0,81.0
250,304.8546875,306.05,69.0,102.0
251,306.5421875,306.771875,69.0,96.0
252,306.7296875,306.9515625,72.0,96.0
253,306.9171875,307.0046875,76.0,77.0
254,307.1046875,307.3984375,81.0,117.0
255,307.4796875,307.66875000000005,79.0,122.0
256,307.8546875,308.15781250000003,76.0,112.0
257,308.2296875,308.4375,72.0,107.0
258,308.6046875,308.89375,69.0,95.0
259,309.1671875,309.3859375,74.0,127.0
260,309.3546875,309.52812500000005,76.0,90.0
261,309.5421875,309.890625,77.0,127.0
262,309.9171875,310.14531250000005,76.0,96.0
263,310.1046875,310.35,77.0,122.0
264,310.4796875,310.83750000000003,79.0,127.0
265,310.8546875,311.37968750000005,76.0,102.0
266,311.4171875,311.6328125,74.0,112.0
267,311.6046875,311.8234375,72.0,95.0
268,311.7921875,312.09062500000005,69.0,97.0
269,311.9796875,312.10312500000003,72.0,88.0
270,312.1671875,312.4015625,77.0,93.0
271,312.3546875,312.55,76.0,93.0
272,312.5421875,312.765625,74.0,107.0
273,312.7296875,312.96875,76.0,97.0
274,312.9171875,313.0390625,77.0,122.0
275,313.1046875,313.3578125,76.0,112.0
276,313.2921875,313.53125,77.0,122.0
277,313.4796875,313.70781250000005,79.0,96.0
278,313.6671875,313.80156250000005,81.0,127.0
279,313.8546875,314.1203125,79.0,117.0
280,314.0421875,314.2171875,81.0,107.0
281,314.2296875,314.38125,84.0,122.0
282,314.4171875,314.6703125,81.0,102.0
283,314.6046875,314.84843750000005,84.0,127.0
284,314.7921875,315.03281250000003,86.0,122.0
285,314.9796875,315.22031250000003,88.0,122.0
286,315.1671875,315.3265625,86.0,112.0
287,315.3546875,315.4640625,84.0,100.0
288,315.5421875,315.8890625,84.0,127.0
289,315.9171875,316.0,81.0,88.0
290,316.1046875,316.49687500000005,81.0,127.0
291,316.4796875,316.753125,79.0,122.0
292,316.8546875,317.1671875,79.0,112.0
293,317.2296875,317.49375000000003,76.0,100.0
294,317.6046875,317.9171875,76.0,95.0
295,317.9796875,318.2015625,79.0,117.0
296,318.5421875,318.734375,77.0,127.0
297,318.7296875,318.91562500000003,76.0,93.0
298,318.9171875,319.1,74.0,99.0
299,319.1046875,319.43125000000003,77.0,117.0
300,319.4796875,319.8265625,76.0,122.0
301,319.8546875,320.05937500000005,74.0,92.0
302,320.0421875,320.44687500000003,76.0,112.0
303,320.4171875,320.62968750000005,74.0,112.0
304,320.6046875,320.80937500000005,72.0,117.0
305,320.7921875,321.00625,69.0,99.0
306,320.9796875,321.1953125,67.0,99.0
307,321.1671875,321.5234375,65.0,97.0
308,321.5421875,321.9296875,77.0,127.0
309,321.9171875,322.2875,72.0,82.0
310,322.2921875,322.68906250000003,74.0,66.0
311,322.6671875,323.0703125,72.0,58.0
312,323.0421875,323.546875,74.0,52.0
313,323.4171875,323.5890625,77.0,100.0
314,323.6046875,323.78593750000005,79.0,82.0
315,323.7921875,324.01250000000005,77.0,102.0
316,323.9796875,324.1546875,76.0,81.0
317,324.1671875,325.3078125,72.0,82.0
