,start,end,pitch,velocity
0,35.792187500000004,36.073437500000004,57.0,93.0
1,36.167187500000004,36.521875,57.0,90.0
2,36.542187500000004,36.84375,65.0,100.0
3,36.917187500000004,37.196875,65.0,95.0
4,37.292187500000004,37.55625,65.0,99.0
5,37.667187500000004,37.946875,65.0,93.0
6,38.042187500000004,38.321875,62.0,97.0
7,38.417187500000004,38.6296875,62.0,93.0
8,38.792187500000004,39.0078125,62.0,93.0
9,39.167187500000004,41.2734375,60.0,97.0
10,41.792187500000004,42.0390625,57.0,97.0
11,42.167187500000004,42.479687500000004,57.0,93.0
12,42.542187500000004,42.800000000000004,62.0,97.0
13,42.917187500000004,43.171875,62.0,95.0
14,43.292187500000004,43.54375,62.0,99.0
15,43.667187500000004,43.90625,62.0,86.0
16,44.042187500000004,44.328125,60.0,112.0
17,44.604687500000004,44.9109375,57.0,73.0
18,50.792187500000004,51.017187500000006,57.0,83.0
19,51.167187500000004,51.456250000000004,57.0,81.0
20,51.542187500000004,52.1953125,65.0,95.0
21,52.292187500000004,52.834375,65.0,107.0
22,53.042187500000004,53.334375,65.0,89.0
23,53.417187500000004,53.7015625,67.0,97.0
24,53.792187500000004,54.1171875,67.0,93.0
25,54.167187500000004,54.479687500000004,69.0,97.0
26,54.542187500000004,54.903125,67.0,97.0
27,54.917187500000004,55.1609375,67.0,100.0
28,55.292187500000004,55.5453125,67.0,96.0
29,55.667187500000004,56.78125,65.0,100.0
30,56.792187500000004,57.1140625,60.0,100.0
31,57.167187500000004,57.4921875,57.0,81.0
32,57.542187500000004,57.8109375,62.0,96.0
33,57.917187500000004,58.135937500000004,62.0,92.0
34,58.292187500000004,58.5046875,62.0,100.0
35,58.667187500000004,58.828125,62.0,97.0
36,59.042187500000004,59.2953125,60.0,107.0
37,59.417187500000004,59.6328125,62.0,89.0
38,59.792187500000004,60.081250000000004,60.0,92.0
39,60.167187500000004,61.73125,57.0,79.0
40,65.7921875,66.0359375,57.0,81.0
41,66.1671875,66.4578125,57.0,89.0
42,66.5421875,66.80312500000001,65.0,89.0
43,66.9171875,67.1453125,65.0,82.0
44,67.2921875,67.45625,65.0,95.0
45,67.6671875,67.921875,65.0,96.0
46,68.0421875,68.278125,62.0,89.0
47,68.4171875,68.6265625,62.0,90.0
48,68.7921875,69.1171875,62.0,99.0
49,69.3546875,70.8296875,60.0,97.0
50,71.7921875,72.13125000000001,60.0,117.0
51,72.1671875,72.5515625,57.0,89.0
52,72.5421875,72.8125,62.0,102.0
53,72.9171875,73.203125,62.0,102.0
54,73.2921875,73.56093750000001,62.0,99.0
55,73.6671875,74.0421875,62.0,122.0
56,74.0421875,74.41875,62.0,99.0
57,74.4171875,74.6609375,65.0,99.0
58,74.7921875,75.13906250000001,60.0,112.0
59,75.1671875,76.440625,57.0,100.0
60,80.79218750000001,81.0015625,57.0,102.0
61,81.16718750000001,81.54531250000001,57.0,100.0
62,81.54218750000001,82.075,65.0,117.0
63,82.29218750000001,82.746875,65.0,127.0
64,83.04218750000001,83.36250000000001,65.0,107.0
65,83.41718750000001,83.97187500000001,67.0,102.0
66,84.16718750000001,84.52656250000001,69.0,102.0
67,84.54218750000001,84.859375,67.0,122.0
68,84.91718750000001,85.1375,67.0,122.0
69,85.29218750000001,85.5328125,67.0,112.0
70,85.66718750000001,86.6796875,65.0,100.0
71,86.79218750000001,87.0796875,60.0,99.0
72,87.16718750000001,87.5328125,57.0,96.0
73,87.54218750000001,87.796875,62.0,100.0
74,87.91718750000001,88.153125,62.0,96.0
75,88.29218750000001,88.5125,62.0,102.0
76,88.66718750000001,88.88125000000001,62.0,102.0
77,89.04218750000001,89.44062500000001,60.0,112.0
78,89.41718750000001,89.8515625,62.0,112.0
79,89.79218750000001,90.49843750000001,60.0,117.0
80,90.54218750000001,92.47968750000001,57.0,97.0
81,95.79218750000001,96.103125,65.0,112.0
82,96.16718750000001,96.5328125,67.0,122.0
83,96.54218750000001,96.8015625,69.0,117.0
84,96.91718750000001,97.21718750000001,69.0,117.0
85,97.29218750000001,97.5234375,69.0,100.0
86,97.66718750000001,97.8828125,69.0,102.0
87,98.04218750000001,98.27968750000001,69.0,122.0
88,98.41718750000001,98.6734375,69.0,112.0
89,98.79218750000001,99.02656250000001,67.0,122.0
90,99.16718750000001,99.384375,65.0,112.0
91,99.54218750000001,99.79531250000001,67.0,122.0
92,99.91718750000001,100.18593750000001,67.0,122.0
93,100.29218750000001,100.53750000000001,69.0,127.0
94,100.66718750000001,101.42031250000001,67.0,127.0
95,101.79218750000001,101.996875,65.0,112.0
96,102.16718750000001,102.43281250000001,67.0,122.0
97,102.54218750000001,102.82656250000001,69.0,117.0
98,102.91718750000001,103.16718750000001,72.0,122.0
99,103.29218750000001,103.5234375,72.0,127.0
100,103.66718750000001,103.91250000000001,72.0,117.0
101,104.04218750000001,104.2703125,72.0,127.0
102,104.41718750000001,104.6328125,72.0,127.0
103,104.79218750000001,105.01406250000001,72.0,127.0
104,105.16718750000001,105.36250000000001,74.0,122.0
105,105.54218750000001,105.696875,74.0,127.0
106,105.91718750000001,106.28437500000001,72.0,127.0
107,106.29218750000001,106.5015625,69.0,95.0
108,106.66718750000001,107.41875,69.0,112.0
109,107.79218750000001,108.31875000000001,65.0,117.0
110,108.54218750000001,108.77656250000001,72.0,122.0
111,108.91718750000001,109.12031250000001,74.0,112.0
112,109.29218750000001,109.5,74.0,127.0
113,109.66718750000001,109.90156250000001,74.0,122.0
114,110.04218750000001,110.32656250000001,74.0,127.0
115,110.41718750000001,110.8984375,72.0,127.0
116,111.16718750000001,111.375,69.0,122.0
117,111.54218750000001,111.8453125,69.0,117.0
118,112.10468750000001,112.6890625,67.0,95.0
119,112.66718750000001,113.015625,65.0,102.0
120,113.04218750000001,113.6015625,62.0,102.0
121,113.79218750000001,114.10000000000001,62.0,117.0
122,114.16718750000001,114.50625000000001,65.0,127.0
123,114.54218750000001,114.7859375,67.0,127.0
124,114.91718750000001,115.17812500000001,67.0,117.0
125,115.29218750000001,115.5203125,67.0,122.0
126,115.66718750000001,116.21406250000001,67.0,127.0
127,116.41718750000001,117.140625,65.0,112.0
128,117.16718750000001,117.5515625,62.0,112.0
129,117.54218750000001,119.040625,60.0,97.0
130,119.79218750000001,120.025,65.0,112.0
131,120.16718750000001,120.45937500000001,67.0,127.0
132,120.54218750000001,120.775,69.0,127.0
133,120.91718750000001,121.16250000000001,69.0,127.0
134,121.29218750000001,121.5125,69.0,127.0
135,121.66718750000001,121.87343750000001,69.0,122.0
136,122.04218750000001,122.25312500000001,69.0,127.0
137,122.41718750000001,122.62031250000001,72.0,127.0
138,122.79218750000001,123.028125,72.0,127.0
139,123.16718750000001,123.4921875,69.0,122.0
140,123.54218750000001,123.790625,67.0,127.0
141,123.91718750000001,124.140625,67.0,117.0
142,124.29218750000001,124.62812500000001,69.0,112.0
143,124.66718750000001,125.434375,65.0,127.0
144,125.79218750000001,126.04218750000001,65.0,122.0
145,126.16718750000001,126.4859375,67.0,122.0
146,126.54218750000001,126.828125,69.0,107.0
147,126.91718750000001,127.1453125,72.0,122.0
148,127.29218750000001,127.5125,72.0,127.0
149,127.66718750000001,127.88125000000001,72.0,127.0
150,128.0421875,128.2484375,72.0,127.0
151,128.4171875,128.6515625,74.0,127.0
152,128.7921875,128.9953125,74.0,127.0
153,129.1671875,129.3546875,74.0,122.0
154,129.5421875,129.740625,74.0,127.0
155,129.9171875,130.421875,72.0,122.0
156,130.6671875,130.990625,69.0,102.0
157,131.7921875,132.3703125,65.0,117.0
158,132.5421875,132.7984375,74.0,127.0
159,132.9171875,133.16093750000002,74.0,127.0
160,133.2921875,133.53593750000002,74.0,127.0
161,133.6671875,133.9328125,74.0,117.0
162,134.0421875,134.275,74.0,127.0
163,134.6046875,135.0265625,72.0,127.0
164,135.1671875,135.415625,69.0,112.0
165,135.5421875,135.990625,69.0,127.0
166,136.2921875,136.6578125,67.0,122.0
167,136.6671875,137.0296875,65.0,102.0
168,137.0421875,137.725,62.0,102.0
169,137.7921875,138.05,65.0,127.0
170,138.1671875,138.415625,62.0,112.0
171,138.5421875,138.83281250000002,67.0,127.0
172,138.9171875,139.1546875,69.0,127.0
173,139.2921875,139.5234375,69.0,122.0
174,139.6671875,139.921875,69.0,127.0
175,140.4171875,140.828125,72.0,127.0
176,140.7921875,141.1734375,74.0,122.0
177,141.1671875,141.521875,72.0,117.0
178,141.5421875,144.703125,69.0,117.0
179,146.7921875,147.08125,72.0,97.0
180,147.1671875,147.53125,74.0,127.0
181,147.5421875,147.77031250000002,77.0,127.0
182,147.9171875,148.159375,77.0,127.0
183,148.2921875,148.55937500000002,77.0,127.0
184,148.6671875,148.92656250000002,77.0,117.0
185,149.0421875,149.421875,77.0,127.0
186,149.7921875,150.38750000000002,74.0,127.0
187,150.5421875,150.9,72.0,127.0
188,150.9171875,151.171875,74.0,127.0
189,151.2921875,151.51875,74.0,127.0
190,151.6671875,151.940625,72.0,127.0
191,152.0421875,152.49375,74.0,127.0
192,152.7921875,153.0453125,72.0,112.0
193,153.1671875,153.4390625,74.0,127.0
194,153.5421875,153.790625,77.0,127.0
195,153.9171875,154.1734375,77.0,127.0
196,154.2921875,154.525,77.0,122.0
197,154.6671875,154.90468750000002,77.0,127.0
198,155.0421875,155.30312500000002,77.0,127.0
199,155.4171875,155.61562500000002,77.0,127.0
200,155.7921875,156.034375,74.0,127.0
201,156.1671875,156.3921875,72.0,127.0
202,156.5421875,156.74687500000002,72.0,127.0
203,156.9171875,157.359375,72.0,127.0
204,157.2921875,157.634375,74.0,107.0
205,157.6671875,158.61406250000002,69.0,107.0
206,158.7921875,159.05312500000002,62.0,112.0
207,159.1671875,159.4625,65.0,127.0
208,159.5421875,159.8140625,67.0,127.0
209,159.9171875,160.18125,67.0,112.0
210,160.2921875,160.5078125,67.0,112.0
211,160.6671875,160.90312500000002,67.0,112.0
212,161.0421875,161.2609375,65.0,127.0
213,161.4171875,161.70156250000002,62.0,112.0
214,161.7921875,162.096875,62.0,122.0
215,162.1671875,162.4953125,65.0,127.0
216,162.5421875,163.84062500000002,67.0,127.0
217,164.7921875,165.0859375,65.0,112.0
218,165.1671875,165.471875,67.0,127.0
219,165.5421875,166.1484375,69.0,127.0
220,166.2921875,166.8921875,72.0,127.0
221,170.0421875,170.378125,67.0,127.0
222,170.4171875,170.7609375,69.0,107.0
223,170.7921875,171.175,67.0,127.0
224,171.1671875,171.509375,65.0,112.0
225,171.5421875,174.71718750000002,62.0,122.0
226,194.7921875,195.03593750000002,57.0,81.0
227,195.1671875,195.45781250000002,57.0,89.0
228,195.5421875,195.80312500000002,65.0,89.0
229,195.9171875,196.14531250000002,65.0,82.0
230,196.2921875,196.45625,65.0,95.0
231,196.6671875,196.921875,65.0,96.0
232,197.0421875,197.27812500000002,62.0,89.0
233,197.4171875,197.6265625,62.0,90.0
234,197.7921875,198.1171875,62.0,99.0
235,198.3546875,199.8296875,60.0,97.0
236,200.7921875,201.13125000000002,60.0,117.0
237,201.1671875,201.55156250000002,57.0,89.0
238,201.5421875,201.8125,62.0,102.0
239,201.9171875,202.203125,62.0,102.0
240,202.2921875,202.56093750000002,62.0,99.0
241,202.6671875,203.0421875,62.0,122.0
242,203.0421875,203.41875000000002,62.0,99.0
243,203.4171875,203.66093750000002,65.0,99.0
244,203.7921875,204.13906250000002,60.0,112.0
245,204.1671875,205.440625,57.0,100.0
246,209.7921875,210.0015625,57.0,102.0
247,210.1671875,210.54531250000002,57.0,100.0
248,210.5421875,211.07500000000002,65.0,117.0
249,211.2921875,211.74687500000002,65.0,127.0
250,212.0421875,212.3625,65.0,107.0
251,212.4171875,212.971875,67.0,102.0
252,213.1671875,213.5265625,69.0,102.0
253,213.5421875,213.859375,67.0,122.0
254,213.9171875,214.13750000000002,67.0,122.0
255,214.2921875,214.5328125,67.0,112.0
256,214.6671875,215.6796875,65.0,100.0
257,215.7921875,216.0796875,60.0,99.0
258,216.1671875,216.5328125,57.0,96.0
259,216.5421875,216.796875,62.0,100.0
260,216.9171875,217.15312500000002,62.0,96.0
261,217.2921875,217.51250000000002,62.0,102.0
262,217.6671875,217.88125000000002,62.0,102.0
263,218.0421875,218.440625,60.0,112.0
264,218.4171875,218.8515625,62.0,112.0
265,218.7921875,219.49843750000002,60.0,117.0
266,219.5421875,221.4796875,57.0,97.0
267,224.7921875,225.103125,65.0,112.0
268,225.1671875,225.5328125,67.0,122.0
269,225.5421875,225.80156250000002,69.0,117.0
270,225.9171875,226.21718750000002,69.0,117.0
271,226.2921875,226.5234375,69.0,100.0
272,226.6671875,226.8828125,69.0,102.0
273,227.0421875,227.27968750000002,69.0,122.0
274,227.4171875,227.6734375,69.0,112.0
275,227.7921875,228.0265625,67.0,122.0
276,228.1671875,228.384375,65.0,112.0
277,228.5421875,228.79531250000002,67.0,122.0
278,228.9171875,229.18593750000002,67.0,122.0
279,229.2921875,229.53750000000002,69.0,127.0
280,229.6671875,230.42031250000002,67.0,127.0
281,230.7921875,230.99687500000002,65.0,112.0
282,231.1671875,231.4328125,67.0,122.0
283,231.5421875,231.82656250000002,69.0,117.0
284,231.9171875,232.1671875,72.0,122.0
285,232.2921875,232.5234375,72.0,127.0
286,232.6671875,232.91250000000002,72.0,117.0
287,233.0421875,233.27031250000002,72.0,127.0
288,233.4171875,233.6328125,72.0,127.0
289,233.7921875,234.01406250000002,72.0,127.0
290,234.1671875,234.3625,74.0,122.0
291,234.5421875,234.696875,74.0,127.0
292,234.9171875,235.284375,72.0,127.0
293,235.2921875,235.5015625,69.0,95.0
294,235.6671875,236.41875000000002,69.0,112.0
295,236.7921875,237.31875000000002,65.0,117.0
296,237.5421875,237.7765625,72.0,122.0
297,237.9171875,238.1203125,74.0,112.0
298,238.2921875,238.5,74.0,127.0
299,238.6671875,238.9015625,74.0,122.0
300,239.0421875,239.32656250000002,74.0,127.0
301,239.4171875,239.8984375,72.0,127.0
302,240.1671875,240.375,69.0,122.0
303,240.5421875,240.8453125,69.0,117.0
304,241.1046875,241.6890625,67.0,95.0
305,241.6671875,242.015625,65.0,102.0
306,242.0421875,242.6015625,62.0,102.0
307,242.7921875,243.10000000000002,62.0,117.0
308,243.1671875,243.50625000000002,65.0,127.0
309,243.5421875,243.78593750000002,67.0,127.0
310,243.9171875,244.17812500000002,67.0,117.0
311,244.2921875,244.52031250000002,67.0,122.0
312,244.6671875,245.2140625,67.0,127.0
313,245.4171875,246.140625,65.0,112.0
314,246.1671875,246.55156250000002,62.0,112.0
315,246.5421875,248.040625,60.0,97.0
316,248.7921875,249.025,65.0,112.0
317,249.1671875,249.45937500000002,67.0,127.0
318,249.5421875,249.775,69.0,127.0
319,249.9171875,250.16250000000002,69.0,127.0
320,250.2921875,250.51250000000002,69.0,127.0
321,250.6671875,250.87343750000002,69.0,122.0
322,251.0421875,251.253125,69.0,127.0
323,251.4171875,251.6203125,72.0,127.0
324,251.7921875,252.02812500000002,72.0,127.0
325,252.1671875,252.4921875,69.0,122.0
326,252.5421875,252.790625,67.0,127.0
327,252.9171875,253.140625,67.0,117.0
328,253.2921875,253.628125,69.0,112.0
329,253.6671875,254.43437500000002,65.0,127.0
330,254.7921875,255.0421875,65.0,122.0
331,255.1671875,255.4859375,67.0,122.0
332,255.5421875,255.828125,69.0,107.0
333,255.9171875,256.1453125,72.0,122.0
334,256.2921875,256.5125,72.0,127.0
335,256.6671875,256.88125,72.0,127.0
336,257.0421875,257.2484375,72.0,127.0
337,257.4171875,257.6515625,74.0,127.0
338,257.7921875,257.9953125,74.0,127.0
339,258.1671875,258.3546875,74.0,122.0
340,258.5421875,258.740625,74.0,127.0
341,258.9171875,259.421875,72.0,122.0
342,259.6671875,259.990625,69.0,102.0
343,260.7921875,261.3703125,65.0,117.0
344,261.5421875,261.79843750000003,74.0,127.0
345,261.9171875,262.1609375,74.0,127.0
346,262.2921875,262.5359375,74.0,127.0
347,262.6671875,262.9328125,74.0,117.0
348,263.0421875,263.27500000000003,74.0,127.0
349,263.6046875,264.0265625,72.0,127.0
350,264.1671875,264.41562500000003,69.0,112.0
351,264.5421875,264.990625,69.0,127.0
352,265.2921875,265.65781250000003,67.0,122.0
353,265.6671875,266.0296875,65.0,102.0
354,266.0421875,266.725,62.0,102.0
355,266.7921875,267.05,65.0,127.0
356,267.1671875,267.41562500000003,62.0,112.0
357,267.5421875,267.8328125,67.0,127.0
358,267.9171875,268.1546875,69.0,127.0
359,268.2921875,268.5234375,69.0,122.0
360,268.6671875,268.921875,69.0,127.0
361,269.4171875,269.828125,72.0,127.0
362,269.7921875,270.17343750000003,74.0,122.0
363,270.1671875,270.521875,72.0,117.0
364,270.5421875,273.703125,69.0,117.0
365,275.7921875,276.08125,72.0,97.0
366,276.1671875,276.53125,74.0,127.0
367,276.5421875,276.7703125,77.0,127.0
368,276.9171875,277.159375,77.0,127.0
369,277.2921875,277.559375,77.0,127.0
370,277.6671875,277.9265625,77.0,117.0
371,278.0421875,278.421875,77.0,127.0
372,278.7921875,279.3875,74.0,127.0
373,279.5421875,279.90000000000003,72.0,127.0
374,279.9171875,280.171875,74.0,127.0
375,280.2921875,280.51875,74.0,127.0
376,280.6671875,280.940625,72.0,127.0
377,281.0421875,281.49375000000003,74.0,127.0
378,281.7921875,282.0453125,72.0,112.0
379,282.1671875,282.43906250000003,74.0,127.0
380,282.5421875,282.79062500000003,77.0,127.0
381,282.9171875,283.17343750000003,77.0,127.0
382,283.2921875,283.52500000000003,77.0,122.0
383,283.6671875,283.9046875,77.0,127.0
384,284.0421875,284.303125,77.0,127.0
385,284.4171875,284.615625,77.0,127.0
386,284.7921875,285.034375,74.0,127.0
387,285.1671875,285.39218750000003,72.0,127.0
388,285.5421875,285.746875,72.0,127.0
389,285.9171875,286.359375,72.0,127.0
390,286.2921875,286.63437500000003,74.0,107.0
391,286.6671875,287.6140625,69.0,107.0
392,287.7921875,288.053125,62.0,112.0
393,288.1671875,288.46250000000003,65.0,127.0
394,288.5421875,288.81406250000003,67.0,127.0
395,288.9171875,289.18125000000003,67.0,112.0
396,289.2921875,289.5078125,67.0,112.0
397,289.6671875,289.903125,67.0,112.0
398,290.0421875,290.2609375,65.0,127.0
399,290.4171875,290.7015625,62.0,112.0
400,290.7921875,291.096875,62.0,122.0
401,291.1671875,291.4953125,65.0,127.0
402,291.5421875,292.840625,67.0,127.0
403,293.7921875,294.0859375,65.0,112.0
404,294.1671875,294.471875,67.0,127.0
405,294.5421875,295.1484375,69.0,127.0
406,295.2921875,298.60312500000003,72.0,127.0
407,299.0421875,299.378125,67.0,127.0
408,299.4171875,299.7609375,69.0,107.0
409,299.7921875,300.175,67.0,127.0
410,300.1671875,300.50937500000003,65.0,112.0
411,300.5421875,303.7171875,62.0,122.0
