,start,end,pitch,velocity
0,0.5421875,6.4375,38.0,75.0
1,1.2921875,6.5046875,50.0,43.0
2,0.9171875,6.60625,45.0,36.0
3,1.6671875,7.5843750000000005,57.0,55.0
4,2.0421875000000003,7.6375,65.0,34.0
5,6.542187500000001,8.801562500000001,38.0,69.0
6,6.917187500000001,8.80625,45.0,40.0
7,7.292187500000001,8.9171875,50.0,39.0
8,8.7921875,9.503125,65.0,78.0
9,7.667187500000001,9.640625,57.0,68.0
10,9.9171875,11.6328125,52.0,63.0
11,9.5421875,11.853125,45.0,69.0
12,11.0421875,12.5484375,60.0,69.0
13,10.6671875,12.5953125,64.0,90.0
14,10.2921875,12.6015625,57.0,62.0
15,12.9171875,14.7734375,45.0,56.0
16,12.5421875,14.787500000000001,38.0,72.0
17,13.2921875,14.8453125,50.0,72.0
18,14.7921875,15.560937500000001,62.0,50.0
19,13.6671875,15.6125,65.0,89.0
20,16.2921875,17.684375,58.0,78.0
21,15.9171875,17.7171875,53.0,47.0
22,15.5421875,17.806250000000002,46.0,73.0
23,16.6671875,18.44375,65.0,78.0
24,17.7921875,18.6046875,62.0,65.0
25,19.2921875,20.428125,55.0,78.0
26,18.3546875,20.7171875,43.0,81.0
27,18.9171875,20.782812500000002,50.0,59.0
28,19.6671875,21.4046875,70.0,107.0
29,20.7921875,21.501562500000002,67.0,75.0
30,21.1671875,21.567187500000003,62.0,53.0
31,21.5421875,24.439062500000002,38.0,79.0
32,21.9171875,24.626562500000002,45.0,53.0
33,22.2921875,25.01875,50.0,78.0
34,23.0421875,25.859375,65.0,83.0
35,25.2921875,25.9296875,50.0,69.0
36,24.5421875,25.939062500000002,38.0,59.0
37,24.9171875,25.9515625,45.0,56.0
38,22.6671875,26.782812500000002,57.0,79.0
39,26.0421875,27.048437500000002,65.0,74.0
40,26.7921875,27.579687500000002,57.0,42.0
41,25.6671875,27.640625,62.0,59.0
42,27.1671875,27.673437500000002,65.0,53.0
43,28.2921875,29.087500000000002,57.0,63.0
44,27.9171875,29.325000000000003,52.0,62.0
45,27.5421875,29.4984375,45.0,69.0
46,29.0421875,30.5265625,64.0,66.0
47,28.6671875,30.5421875,60.0,57.0
48,29.0421875,30.56875,69.0,63.0
49,30.5421875,31.6875,46.0,90.0
50,30.9171875,31.69375,53.0,45.0
51,31.2921875,31.78125,58.0,90.0
52,31.6671875,32.1078125,70.0,90.0
53,32.417187500000004,33.0328125,55.0,65.0
54,32.042187500000004,33.0875,48.0,73.0
55,32.792187500000004,33.5953125,67.0,75.0
56,33.167187500000004,33.628125000000004,64.0,46.0
57,33.542187500000004,36.432812500000004,38.0,68.0
58,34.292187500000004,36.4703125,50.0,56.0
59,33.917187500000004,36.5921875,45.0,53.0
60,35.042187500000004,36.5953125,62.0,63.0
61,35.042187500000004,36.60625,65.0,61.0
62,34.667187500000004,36.621875,57.0,55.0
63,37.667187500000004,38.15625,57.0,58.0
64,36.542187500000004,38.71875,38.0,69.0
65,37.292187500000004,38.73125,50.0,50.0
66,36.917187500000004,38.7890625,45.0,56.0
67,38.042187500000004,39.603125000000006,62.0,69.0
68,38.792187500000004,39.618750000000006,57.0,62.0
69,38.042187500000004,39.621875,65.0,78.0
70,40.292187500000004,41.425000000000004,57.0,71.0
71,40.667187500000004,41.548437500000006,60.0,42.0
72,39.917187500000004,41.806250000000006,52.0,41.0
73,39.542187500000004,41.893750000000004,45.0,70.0
74,41.042187500000004,41.9609375,64.0,59.0
75,41.042187500000004,42.643750000000004,69.0,60.0
76,41.792187500000004,42.6703125,60.0,72.0
77,42.167187500000004,42.6953125,64.0,53.0
78,42.542187500000004,44.8984375,38.0,75.0
79,43.292187500000004,44.903125,50.0,67.0
80,42.917187500000004,44.909375000000004,45.0,47.0
81,43.667187500000004,45.5515625,57.0,60.0
82,44.792187500000004,45.564062500000006,62.0,63.0
83,44.042187500000004,45.595312500000006,65.0,72.0
84,46.667187500000004,47.121875,60.0,65.0
85,46.292187500000004,47.2015625,57.0,73.0
86,45.917187500000004,47.2484375,52.0,64.0
87,45.542187500000004,48.396875,45.0,53.0
88,47.792187500000004,49.314062500000006,60.0,51.0
89,47.042187500000004,49.610937500000006,69.0,69.0
90,47.042187500000004,49.6953125,64.0,67.0
91,49.667187500000004,50.1328125,60.0,59.0
92,49.292187500000004,50.1796875,57.0,76.0
93,48.917187500000004,50.21875,52.0,50.0
94,48.542187500000004,50.5375,45.0,58.0
95,50.417187500000004,50.5671875,52.0,32.0
96,50.042187500000004,51.581250000000004,69.0,82.0
97,50.042187500000004,51.615625,64.0,69.0
98,50.792187500000004,51.657812500000006,60.0,65.0
99,51.542187500000004,53.042187500000004,38.0,61.0
100,51.917187500000004,53.042187500000004,45.0,38.0
101,52.292187500000004,53.042187500000004,50.0,70.0
102,52.667187500000004,53.042187500000004,57.0,64.0
103,54.542187500000004,54.91875,36.0,73.0
104,54.917187500000004,55.3421875,55.0,75.0
105,55.292187500000004,55.5390625,60.0,78.0
106,55.667187500000004,56.90625,53.0,59.0
107,55.667187500000004,56.9515625,48.0,56.0
108,55.667187500000004,56.985937500000006,41.0,58.0
109,55.667187500000004,57.5359375,69.0,79.0
110,55.667187500000004,57.5546875,65.0,78.0
111,55.667187500000004,57.565625000000004,60.0,58.0
112,58.292187500000004,59.421875,50.0,73.0
113,57.542187500000004,59.4453125,38.0,71.0
114,57.917187500000004,59.453125,45.0,59.0
115,58.667187500000004,59.778125,57.0,74.0
116,59.042187500000004,60.534375000000004,65.0,88.0
117,60.167187500000004,60.564062500000006,57.0,51.0
118,59.792187500000004,60.581250000000004,62.0,61.0
119,61.292187500000004,62.2265625,57.0,65.0
120,61.667187500000004,62.6,60.0,64.0
121,60.917187500000004,62.7640625,52.0,55.0
122,60.542187500000004,62.8359375,45.0,85.0
123,62.042187500000004,62.996875,64.0,59.0
124,62.792187500000004,63.579687500000006,60.0,78.0
125,63.167187500000004,63.628125000000004,64.0,63.0
126,62.042187500000004,63.635937500000004,69.0,48.0
127,64.6671875,65.1453125,60.0,55.0
128,64.2921875,65.15468750000001,57.0,81.0
129,63.917187500000004,65.425,52.0,54.0
130,63.542187500000004,65.51875,45.0,71.0
131,65.0421875,65.884375,64.0,61.0
132,65.0421875,66.5203125,69.0,62.0
133,66.1671875,66.56093750000001,64.0,48.0
134,65.7921875,66.59375,60.0,57.0
135,67.2921875,68.21875,50.0,88.0
136,66.5421875,68.653125,38.0,73.0
137,66.9171875,68.7296875,45.0,56.0
138,68.4171875,68.8171875,50.0,57.0
139,67.6671875,68.85000000000001,57.0,66.0
140,68.0421875,69.54531250000001,65.0,100.0
141,69.1671875,69.5484375,57.0,60.0
142,68.7921875,69.5515625,62.0,77.0
143,70.6671875,71.1203125,60.0,71.0
144,69.9171875,71.2359375,52.0,42.0
145,70.2921875,71.4703125,57.0,88.0
146,71.4171875,71.7890625,52.0,63.0
147,71.0421875,71.8453125,64.0,76.0
148,69.5421875,71.8515625,45.0,81.0
149,71.0421875,72.5515625,69.0,89.0
150,72.1671875,72.6015625,64.0,99.0
151,71.7921875,72.603125,60.0,93.0
152,73.6671875,74.1421875,57.0,70.0
153,73.2921875,74.23125,50.0,81.0
154,72.5421875,74.784375,38.0,74.0
155,72.9171875,74.8328125,45.0,48.0
156,74.0421875,74.8546875,62.0,83.0
157,74.4171875,74.9765625,50.0,27.0
158,74.7921875,75.52968750000001,57.0,83.0
159,75.1671875,75.58437500000001,62.0,85.0
160,74.0421875,75.5890625,65.0,83.0
161,76.6671875,77.1296875,60.0,82.0
162,76.2921875,77.15,57.0,99.0
163,75.9171875,77.16875,52.0,55.0
164,77.04218750000001,77.94843750000001,64.0,73.0
165,75.5421875,78.2734375,45.0,76.0
166,77.41718750000001,78.6171875,52.0,47.0
167,77.79218750000001,78.61875,60.0,78.0
168,78.16718750000001,78.67031250000001,64.0,58.0
169,77.04218750000001,78.684375,69.0,89.0
170,79.66718750000001,80.14687500000001,60.0,66.0
171,79.29218750000001,80.44375000000001,57.0,92.0
172,78.91718750000001,80.6640625,52.0,52.0
173,78.54218750000001,80.6875,45.0,88.0
174,80.04218750000001,80.86562500000001,64.0,77.0
175,80.04218750000001,81.53125,69.0,88.0
176,80.79218750000001,81.54218750000001,60.0,79.0
177,81.16718750000001,81.54218750000001,64.0,77.0
178,82.66718750000001,83.15156250000001,57.0,56.0
179,82.29218750000001,83.22187500000001,50.0,82.0
180,83.79218750000001,83.9609375,50.0,23.0
181,81.91718750000001,83.98125,45.0,39.0
182,81.54218750000001,84.04375,38.0,67.0
183,83.04218750000001,84.4375,62.0,76.0
184,83.79218750000001,84.54375,57.0,38.0
185,84.54218750000001,84.95937500000001,36.0,66.0
186,85.29218750000001,85.42812500000001,60.0,65.0
187,84.91718750000001,85.53125,55.0,72.0
188,85.66718750000001,86.671875,57.0,73.0
189,85.66718750000001,86.8609375,53.0,88.0
190,85.66718750000001,86.98281250000001,41.0,63.0
191,87.16718750000001,87.5359375,53.0,50.0
192,86.79218750000001,87.55000000000001,57.0,63.0
193,85.66718750000001,87.55625,60.0,69.0
194,88.29218750000001,89.13906250000001,50.0,81.0
195,87.54218750000001,89.8375,38.0,59.0
196,88.66718750000001,89.85000000000001,57.0,58.0
197,87.91718750000001,89.88906250000001,45.0,52.0
198,89.04218750000001,90.5203125,65.0,90.0
199,89.79218750000001,90.52656250000001,62.0,69.0
200,90.16718750000001,90.578125,57.0,58.0
201,90.91718750000001,92.3375,52.0,55.0
202,91.66718750000001,92.7,64.0,85.0
203,92.04218750000001,92.734375,60.0,60.0
204,92.41718750000001,93.02968750000001,52.0,51.0
205,90.54218750000001,93.15156250000001,45.0,68.0
206,91.29218750000001,93.54218750000001,57.0,58.0
207,93.16718750000001,93.54218750000001,60.0,55.0
208,92.79218750000001,93.54218750000001,64.0,63.0
209,93.91718750000001,95.2078125,52.0,66.0
210,94.29218750000001,95.3171875,57.0,72.0
211,95.41718750000001,95.76406250000001,52.0,54.0
212,93.54218750000001,95.790625,45.0,88.0
213,95.04218750000001,95.83906250000001,60.0,69.0
214,94.66718750000001,96.2265625,64.0,96.0
215,95.79218750000001,96.42500000000001,57.0,127.0
216,96.16718750000001,96.44375000000001,60.0,112.0
217,96.35468750000001,96.5015625,64.0,92.0
218,96.91718750000001,97.27968750000001,53.0,96.0
219,97.10468750000001,97.403125,60.0,88.0
220,97.47968750000001,97.6765625,53.0,93.0
221,96.54218750000001,97.90468750000001,41.0,92.0
222,97.29218750000001,97.97968750000001,69.0,117.0
223,96.72968750000001,98.03750000000001,48.0,83.0
224,97.66718750000001,98.07656250000001,65.0,95.0
225,97.85468750000001,98.10468750000001,60.0,97.0
226,98.41718750000001,98.671875,53.0,72.0
227,98.22968750000001,98.8609375,48.0,52.0
228,98.97968750000001,99.09687500000001,48.0,78.0
229,98.04218750000001,99.15468750000001,41.0,79.0
230,98.60468750000001,99.1578125,60.0,66.0
231,98.79218750000001,99.3609375,69.0,100.0
232,99.16718750000001,99.39687500000001,65.0,93.0
233,99.35468750000001,99.63593750000001,60.0,82.0
234,99.91718750000001,100.2828125,48.0,88.0
235,100.10468750000001,100.384375,60.0,76.0
236,100.47968750000001,100.6609375,48.0,99.0
237,99.54218750000001,100.9453125,36.0,63.0
238,100.29218750000001,101.0484375,67.0,127.0
239,99.72968750000001,101.0859375,43.0,63.0
240,100.66718750000001,101.12812500000001,64.0,97.0
241,100.85468750000001,101.1296875,60.0,99.0
242,101.41718750000001,101.8203125,48.0,85.0
243,101.60468750000001,101.90156250000001,60.0,85.0
244,101.04218750000001,102.05000000000001,36.0,71.0
245,101.22968750000001,102.07343750000001,43.0,73.0
246,101.79218750000001,102.2421875,67.0,127.0
247,101.97968750000001,102.24531250000001,48.0,100.0
248,102.16718750000001,102.384375,64.0,107.0
249,102.35468750000001,102.6328125,60.0,97.0
250,102.91718750000001,103.340625,53.0,96.0
251,103.10468750000001,103.3921875,60.0,96.0
252,103.47968750000001,103.62343750000001,53.0,97.0
253,102.54218750000001,103.94062500000001,41.0,83.0
254,102.72968750000001,104.0625,48.0,77.0
255,103.29218750000001,104.228125,69.0,127.0
256,103.85468750000001,104.51093750000001,60.0,95.0
257,103.66718750000001,104.5359375,65.0,83.0
258,104.60468750000001,104.75625000000001,60.0,81.0
259,104.41718750000001,104.8046875,53.0,92.0
260,104.22968750000001,105.0828125,48.0,82.0
261,104.97968750000001,105.1109375,53.0,99.0
262,104.04218750000001,105.17500000000001,41.0,71.0
263,104.79218750000001,105.1953125,65.0,90.0
264,104.79218750000001,105.27656250000001,69.0,122.0
265,105.16718750000001,105.43125,60.0,100.0
266,105.35468750000001,105.625,65.0,107.0
267,105.91718750000001,106.3125,50.0,97.0
268,106.10468750000001,106.3796875,62.0,89.0
269,106.47968750000001,106.68593750000001,50.0,93.0
270,105.54218750000001,106.87031250000001,38.0,76.0
271,106.29218750000001,106.9234375,69.0,117.0
272,105.72968750000001,106.99531250000001,45.0,86.0
273,106.66718750000001,107.075,65.0,95.0
274,106.85468750000001,107.3015625,62.0,99.0
275,107.41718750000001,107.80625,50.0,83.0
276,107.60468750000001,107.825,62.0,90.0
277,107.04218750000001,107.97187500000001,38.0,66.0
278,107.22968750000001,107.9890625,45.0,68.0
279,107.97968750000001,108.1265625,50.0,92.0
280,107.79218750000001,108.23125,69.0,112.0
281,108.16718750000001,108.39375000000001,65.0,96.0
282,108.35468750000001,108.55312500000001,62.0,99.0
283,108.91718750000001,109.30312500000001,58.0,112.0
284,109.10468750000001,109.3984375,62.0,89.0
285,108.54218750000001,109.825,46.0,76.0
286,109.29218750000001,109.8515625,70.0,127.0
287,108.72968750000001,109.9703125,53.0,61.0
288,109.66718750000001,109.97968750000001,65.0,100.0
289,109.47968750000001,110.1765625,58.0,102.0
290,109.85468750000001,110.1890625,62.0,95.0
291,110.60468750000001,110.88125000000001,62.0,69.0
292,110.41718750000001,110.8984375,58.0,99.0
293,110.22968750000001,111.0625,53.0,67.0
294,110.97968750000001,111.0953125,58.0,96.0
295,110.04218750000001,111.1296875,46.0,88.0
296,110.79218750000001,111.36250000000001,70.0,127.0
297,111.16718750000001,111.4375,65.0,97.0
298,111.35468750000001,111.525,62.0,99.0
299,111.91718750000001,112.3375,50.0,89.0
300,112.10468750000001,112.35000000000001,57.0,99.0
301,112.47968750000001,112.7421875,50.0,86.0
302,111.54218750000001,112.88593750000001,38.0,52.0
303,112.29218750000001,112.934375,65.0,102.0
304,112.66718750000001,113.009375,62.0,100.0
305,111.72968750000001,113.1015625,45.0,79.0
306,112.85468750000001,113.1265625,57.0,97.0
307,113.41718750000001,113.796875,50.0,95.0
308,113.60468750000001,113.85625,57.0,107.0
309,113.04218750000001,113.99531250000001,38.0,72.0
310,113.22968750000001,114.04531250000001,45.0,88.0
311,113.97968750000001,114.121875,50.0,97.0
312,113.79218750000001,114.484375,65.0,100.0
313,114.16718750000001,114.5,62.0,100.0
314,114.35468750000001,114.51875000000001,57.0,100.0
315,114.91718750000001,115.32343750000001,55.0,95.0
316,115.10468750000001,115.3921875,62.0,97.0
317,115.47968750000001,115.67031250000001,55.0,92.0
318,114.54218750000001,115.9,43.0,86.0
319,114.72968750000001,116.01875000000001,50.0,76.0
320,115.29218750000001,116.08906250000001,71.0,117.0
321,115.85468750000001,116.20156250000001,62.0,92.0
322,115.66718750000001,116.446875,67.0,88.0
323,116.41718750000001,116.79531250000001,55.0,92.0
324,116.60468750000001,116.8203125,62.0,86.0
325,116.22968750000001,116.90156250000001,50.0,73.0
326,116.97968750000001,117.0859375,50.0,79.0
327,116.04218750000001,117.11875,43.0,48.0
328,116.79218750000001,117.43593750000001,71.0,117.0
329,117.16718750000001,117.453125,67.0,97.0
330,117.35468750000001,117.53750000000001,62.0,102.0
331,117.91718750000001,118.321875,48.0,93.0
332,118.10468750000001,118.38593750000001,60.0,97.0
333,118.47968750000001,118.696875,48.0,100.0
334,117.54218750000001,118.7890625,36.0,72.0
335,117.72968750000001,119.0,43.0,88.0
336,118.66718750000001,119.05625,64.0,127.0
337,118.29218750000001,119.0640625,67.0,127.0
338,118.85468750000001,119.30000000000001,60.0,102.0
339,119.60468750000001,119.71718750000001,64.0,95.0
340,119.60468750000001,119.728125,67.0,93.0
341,119.60468750000001,119.75,60.0,93.0
342,119.41718750000001,119.80625,48.0,117.0
343,119.79218750000001,119.84687500000001,60.0,64.0
344,119.04218750000001,120.0234375,36.0,85.0
345,119.22968750000001,120.04218750000001,43.0,102.0
346,119.79218750000001,120.09218750000001,64.0,100.0
347,119.97968750000001,120.134375,48.0,92.0
348,119.79218750000001,120.33437500000001,67.0,112.0
349,120.35468750000001,120.50312500000001,64.0,127.0
350,120.16718750000001,120.5875,60.0,127.0
351,120.91718750000001,121.31875000000001,53.0,96.0
352,121.10468750000001,121.38906250000001,60.0,100.0
353,121.47968750000001,121.64687500000001,53.0,93.0
354,120.54218750000001,121.884375,41.0,82.0
355,121.29218750000001,121.93125,69.0,112.0
356,120.72968750000001,122.05312500000001,48.0,92.0
357,121.85468750000001,122.14375000000001,60.0,99.0
358,121.66718750000001,122.1796875,65.0,100.0
359,122.41718750000001,122.809375,53.0,102.0
360,122.60468750000001,122.87343750000001,60.0,92.0
361,122.22968750000001,123.0703125,48.0,86.0
362,122.97968750000001,123.071875,53.0,93.0
363,122.04218750000001,123.10625,41.0,66.0
364,122.79218750000001,123.375,69.0,127.0
365,123.16718750000001,123.3875,65.0,127.0
366,123.35468750000001,123.54218750000001,60.0,107.0
367,123.54218750000001,123.96718750000001,36.0,99.0
368,123.91718750000001,124.125,60.0,97.0
369,123.72968750000001,124.15937500000001,55.0,89.0
370,124.10468750000001,124.34218750000001,64.0,93.0
371,124.29218750000001,124.41718750000001,60.0,122.0
372,124.66718750000001,125.55781250000001,60.0,102.0
373,124.66718750000001,125.60468750000001,69.0,112.0
374,124.66718750000001,125.6171875,65.0,102.0
375,125.60468750000001,125.875,53.0,93.0
376,124.66718750000001,126.08906250000001,41.0,76.0
377,125.41718750000001,126.17031250000001,48.0,83.0
378,125.79218750000001,126.4375,69.0,112.0
379,125.97968750000001,126.46875,53.0,95.0
380,126.16718750000001,126.48125,65.0,102.0
381,126.35468750000001,126.57656250000001,60.0,96.0
382,126.91718750000001,127.1640625,57.0,93.0
383,127.10468750000001,127.26406250000001,60.0,95.0
384,126.72968750000001,127.3328125,52.0,63.0
385,126.54218750000001,127.903125,45.0,72.0
386,127.85468750000001,128.03593750000002,57.0,92.0
387,127.29218750000001,128.0453125,64.0,102.0
388,127.47968750000001,128.053125,52.0,82.0
389,127.66718750000001,128.0578125,60.0,97.0
390,128.4171875,128.8203125,57.0,88.0
391,128.6046875,128.8890625,60.0,89.0
392,128.2296875,129.0734375,52.0,69.0
393,128.9796875,129.0796875,57.0,89.0
394,128.0421875,129.1046875,45.0,76.0
395,128.7921875,129.4296875,69.0,100.0
396,129.1671875,129.47343750000002,64.0,97.0
397,129.3546875,129.52031250000002,60.0,93.0
398,130.1046875,130.31875,62.0,73.0
399,129.7296875,130.546875,45.0,78.0
400,129.5421875,130.55625,38.0,67.0
401,129.9171875,130.7046875,50.0,92.0
402,130.2921875,130.9453125,69.0,122.0
403,130.6671875,130.975,65.0,102.0
404,130.8546875,131.08125,62.0,95.0
405,131.4171875,131.6515625,57.0,93.0
406,131.6046875,131.77812500000002,60.0,97.0
407,131.2296875,131.85625000000002,52.0,75.0
408,131.0421875,132.0703125,45.0,71.0
409,131.9796875,132.0921875,52.0,92.0
410,131.7921875,132.440625,64.0,112.0
411,132.1671875,132.45625,60.0,117.0
412,132.3546875,132.509375,57.0,107.0
413,133.1046875,133.275,62.0,93.0
414,132.9171875,133.3390625,58.0,107.0
415,132.5421875,133.91093750000002,46.0,83.0
416,132.7296875,134.0078125,53.0,66.0
417,133.2921875,134.034375,70.0,117.0
418,133.4796875,134.1578125,58.0,102.0
419,133.8546875,134.33125,62.0,97.0
420,133.6671875,134.525,65.0,89.0
421,134.6046875,134.84843750000002,62.0,95.0
422,134.4171875,134.8578125,58.0,100.0
423,134.2296875,135.05625,53.0,36.0
424,134.0421875,135.140625,46.0,89.0
425,134.9796875,135.15312500000002,58.0,102.0
426,134.7921875,135.42656250000002,70.0,127.0
427,135.1671875,135.4609375,65.0,99.0
428,135.3546875,135.53125,62.0,102.0
429,135.9171875,136.33281250000002,50.0,85.0
430,136.1046875,136.378125,57.0,88.0
431,136.4796875,136.6546875,50.0,93.0
432,135.5421875,136.884375,38.0,76.0
433,135.7296875,137.05156250000002,45.0,85.0
434,136.2921875,137.134375,65.0,100.0
435,136.6671875,137.1703125,62.0,99.0
436,136.8546875,137.19218750000002,57.0,88.0
437,137.6046875,137.80625,57.0,93.0
438,137.4171875,137.828125,50.0,93.0
439,137.0421875,138.025,38.0,59.0
440,137.2296875,138.03125,45.0,57.0
441,137.9796875,138.2875,50.0,92.0
442,137.7921875,138.49687500000002,65.0,117.0
443,138.1671875,138.5015625,62.0,100.0
444,138.3546875,138.51250000000002,57.0,93.0
445,138.9171875,139.3296875,55.0,96.0
446,139.1046875,139.390625,62.0,97.0
447,138.5421875,139.9046875,43.0,79.0
448,139.2921875,139.96562500000002,71.0,107.0
449,138.7296875,139.975,50.0,88.0
450,139.6671875,139.9875,67.0,107.0
451,139.8546875,140.04375000000002,62.0,97.0
452,139.4796875,140.0625,55.0,97.0
453,140.4171875,140.853125,57.0,93.0
454,140.6046875,140.884375,60.0,92.0
455,140.9796875,141.15,57.0,93.0
456,140.0421875,141.4046875,45.0,89.0
457,140.7921875,141.4234375,69.0,102.0
458,141.1671875,141.4875,64.0,85.0
459,140.2296875,141.540625,52.0,77.0
460,141.3546875,141.540625,60.0,102.0
461,141.9171875,142.3296875,57.0,93.0
462,142.1046875,142.3828125,60.0,75.0
463,141.5421875,142.89531250000002,45.0,79.0
464,141.7296875,143.04375000000002,52.0,71.0
465,142.6671875,143.1234375,64.0,93.0
466,142.4796875,143.1390625,57.0,90.0
467,142.2921875,143.1703125,69.0,99.0
468,142.8546875,143.2921875,60.0,100.0
469,143.6046875,143.7125,69.0,96.0
470,143.6046875,143.7203125,64.0,88.0
471,143.4171875,143.80937500000002,57.0,99.0
472,143.7921875,144.1125,64.0,93.0
473,143.9796875,144.14531250000002,57.0,99.0
474,143.7921875,144.2359375,69.0,112.0
475,143.0421875,144.34062500000002,45.0,78.0
476,144.3546875,144.41875000000002,69.0,56.0
477,144.1671875,144.45000000000002,60.0,93.0
478,144.3546875,144.453125,64.0,75.0
479,143.2296875,144.54375000000002,52.0,67.0
480,144.5421875,144.9484375,64.0,100.0
481,144.5421875,145.0390625,60.0,93.0
482,144.5421875,145.053125,69.0,99.0
483,145.1046875,145.40625,57.0,72.0
484,145.2921875,145.728125,64.0,107.0
485,145.2921875,145.7296875,69.0,107.0
486,145.2921875,145.73906250000002,60.0,107.0
487,145.8546875,146.109375,69.0,102.0
488,145.8546875,146.11875,64.0,100.0
489,145.8546875,146.13125,60.0,117.0
490,145.6671875,146.171875,57.0,100.0
491,144.9171875,146.4,52.0,82.0
492,146.2296875,146.6125,64.0,95.0
493,146.2296875,146.61406250000002,69.0,100.0
494,146.6046875,146.6578125,60.0,27.0
495,146.6046875,146.8625,52.0,96.0
496,146.7921875,147.01250000000002,64.0,102.0
497,144.5421875,147.0390625,45.0,96.0
498,146.7921875,147.0609375,69.0,117.0
499,146.9796875,147.078125,52.0,92.0
500,146.7921875,147.08281250000002,60.0,83.0
501,147.1671875,147.221875,69.0,82.0
502,147.1671875,147.2734375,60.0,63.0
503,147.1671875,147.2796875,64.0,107.0
504,147.5421875,147.690625,70.0,117.0
505,147.5421875,148.03125,65.0,93.0
506,148.1046875,148.2484375,62.0,117.0
507,147.9171875,148.3203125,58.0,122.0
508,148.2921875,148.61406250000002,65.0,102.0
509,148.2921875,148.69218750000002,70.0,127.0
510,148.6671875,148.70625,65.0,35.0
511,148.6671875,148.790625,62.0,95.0
512,147.5421875,148.9609375,46.0,122.0
513,147.7296875,149.103125,53.0,35.0
514,148.8546875,149.3109375,65.0,96.0
515,148.8546875,149.3578125,70.0,127.0
516,148.4796875,149.45625,58.0,117.0
517,149.4171875,149.6484375,70.0,127.0
518,149.4171875,149.6625,65.0,97.0
519,149.6046875,149.8546875,58.0,117.0
520,149.2296875,150.00468750000002,53.0,71.0
521,149.7921875,150.0453125,65.0,97.0
522,149.0421875,150.05156250000002,46.0,62.0
523,149.7921875,150.0546875,70.0,127.0
524,149.9796875,150.08281250000002,58.0,122.0
525,150.1671875,150.2828125,65.0,107.0
526,150.1671875,150.3890625,70.0,127.0
527,150.3546875,150.46875,65.0,66.0
528,150.5421875,150.796875,69.0,127.0
529,150.5421875,150.80625,65.0,112.0
530,150.5421875,150.88125,62.0,117.0
531,151.1046875,151.3984375,50.0,96.0
532,151.2921875,151.6796875,65.0,112.0
533,151.2921875,151.69218750000002,62.0,112.0
534,151.6671875,151.9640625,50.0,97.0
535,151.8546875,152.3109375,65.0,97.0
536,151.8546875,152.3203125,62.0,102.0
537,151.8546875,152.32500000000002,57.0,96.0
538,150.5421875,152.453125,38.0,95.0
539,152.2296875,152.5140625,50.0,107.0
540,150.9171875,152.628125,45.0,83.0
541,152.4171875,152.646875,65.0,96.0
542,152.4171875,152.6625,62.0,107.0
543,152.7921875,153.0546875,65.0,102.0
544,152.7921875,153.0609375,62.0,102.0
545,152.9796875,153.1625,45.0,83.0
546,152.6046875,153.1796875,38.0,102.0
547,152.9796875,153.26250000000002,50.0,100.0
548,153.1671875,153.4140625,62.0,107.0
549,153.1671875,153.4390625,65.0,112.0
550,153.3546875,153.4640625,57.0,100.0
551,154.1046875,154.2515625,62.0,95.0
552,153.9171875,154.2765625,58.0,122.0
553,154.2921875,154.5421875,65.0,97.0
554,154.2921875,154.58437500000002,70.0,127.0
555,153.5421875,154.7828125,46.0,107.0
556,153.7296875,155.0015625,53.0,56.0
557,154.6671875,155.10781250000002,62.0,100.0
558,154.4796875,155.13750000000002,58.0,127.0
559,154.8546875,155.175,65.0,96.0
560,154.8546875,155.32500000000002,70.0,127.0
561,155.6046875,155.6359375,65.0,39.0
562,155.6046875,155.79375000000002,62.0,97.0
563,155.4171875,155.8515625,58.0,127.0
564,155.2296875,156.0578125,53.0,72.0
565,155.7921875,156.0953125,65.0,97.0
566,155.9796875,156.1015625,58.0,122.0
567,155.0421875,156.140625,46.0,99.0
568,155.7921875,156.41093750000002,70.0,127.0
569,156.1671875,156.48281250000002,62.0,117.0
570,156.3546875,156.5015625,65.0,100.0
571,157.1046875,157.228125,57.0,112.0
572,156.9171875,157.359375,50.0,107.0
573,157.2921875,157.721875,65.0,117.0
574,157.4796875,157.72500000000002,50.0,92.0
575,157.2921875,157.72500000000002,62.0,107.0
576,157.6671875,157.84062500000002,57.0,88.0
577,156.5421875,157.95000000000002,38.0,77.0
578,156.7296875,158.0890625,45.0,85.0
579,157.8546875,158.11406250000002,57.0,66.0
580,157.8546875,158.4859375,65.0,100.0
581,157.8546875,158.49375,62.0,102.0
582,158.6046875,158.66093750000002,62.0,44.0
583,158.4171875,158.8359375,50.0,112.0
584,158.6046875,158.875,57.0,99.0
585,158.0421875,159.03750000000002,38.0,82.0
586,158.2296875,159.0625,45.0,90.0
587,158.7921875,159.11875,65.0,127.0
588,158.7921875,159.140625,62.0,107.0
589,159.1671875,159.19375000000002,62.0,34.0
590,159.1671875,159.44218750000002,57.0,77.0
591,158.9796875,159.4546875,50.0,117.0
592,159.3546875,159.49687500000002,62.0,102.0
593,159.3546875,159.5328125,65.0,102.0
594,159.9171875,160.346875,53.0,90.0
595,160.1046875,160.35625000000002,60.0,89.0
596,160.4796875,160.6515625,53.0,97.0
597,160.2921875,160.66875000000002,69.0,112.0
598,160.2921875,160.6796875,65.0,102.0
599,159.5421875,160.9234375,41.0,83.0
600,159.7296875,161.0875,48.0,93.0
601,160.8546875,161.27812500000002,69.0,117.0
602,160.6671875,161.43437500000002,60.0,92.0
603,160.8546875,161.484375,65.0,99.0
604,161.4171875,161.8390625,53.0,96.0
605,161.6046875,161.859375,60.0,96.0
606,161.7921875,162.06875000000002,65.0,107.0
607,161.7921875,162.08281250000002,69.0,112.0
608,161.9796875,162.190625,53.0,102.0
609,161.0421875,162.390625,41.0,72.0
610,162.1671875,162.45156250000002,60.0,100.0
611,161.2296875,162.5109375,48.0,82.0
612,162.3546875,162.515625,69.0,100.0
613,162.3546875,162.53593750000002,65.0,107.0
614,162.9171875,163.284375,55.0,97.0
615,163.1046875,163.38125000000002,62.0,79.0
616,163.4796875,163.67656250000002,55.0,102.0
617,163.2921875,163.73125000000002,67.0,122.0
618,163.2921875,163.73125000000002,70.0,127.0
619,162.5421875,163.88750000000002,43.0,83.0
620,162.7296875,164.034375,50.0,89.0
621,163.6671875,164.4921875,62.0,97.0
622,163.8546875,164.55937500000002,67.0,99.0
623,163.8546875,164.56718750000002,70.0,117.0
624,164.4171875,164.8359375,55.0,102.0
625,164.6046875,164.84062500000002,62.0,107.0
626,164.7921875,165.19375000000002,70.0,117.0
627,164.7921875,165.2046875,67.0,97.0
628,164.0421875,165.378125,43.0,86.0
629,164.2296875,165.4859375,50.0,95.0
630,165.1671875,165.4875,62.0,100.0
631,165.3546875,165.50625000000002,70.0,117.0
632,165.3546875,165.51406250000002,67.0,100.0
633,164.9796875,165.5171875,55.0,97.0
634,166.1046875,166.2609375,64.0,82.0
635,165.9171875,166.3046875,57.0,99.0
636,166.4796875,166.68125,57.0,100.0
637,166.2921875,166.690625,69.0,95.0
638,166.2921875,166.690625,72.0,112.0
639,165.5421875,166.91875000000002,45.0,92.0
640,165.7296875,167.05937500000002,52.0,90.0
641,166.8546875,167.18593750000002,69.0,100.0
642,166.6671875,167.21562500000002,64.0,99.0
643,166.8546875,167.5171875,72.0,100.0
644,167.6046875,167.7453125,64.0,93.0
645,167.4171875,167.79375000000002,57.0,107.0
646,167.2296875,168.06093750000002,52.0,96.0
647,167.7921875,168.07656250000002,69.0,112.0
648,167.0421875,168.103125,45.0,85.0
649,167.9796875,168.103125,57.0,97.0
650,167.7921875,168.16875000000002,72.0,117.0
651,168.3546875,168.49843750000002,72.0,107.0
652,168.3546875,168.5078125,69.0,107.0
653,168.1671875,168.52968750000002,64.0,102.0
654,169.1046875,169.25468750000002,60.0,85.0
655,168.9171875,169.3140625,48.0,96.0
656,169.2921875,169.63906250000002,67.0,102.0
657,169.2921875,169.65312500000002,64.0,100.0
658,169.4796875,169.90625,48.0,96.0
659,168.5421875,169.921875,36.0,74.0
660,169.6671875,169.98125000000002,60.0,90.0
661,168.7296875,169.9953125,43.0,89.0
662,169.8546875,170.46718750000002,64.0,99.0
663,169.8546875,170.47343750000002,67.0,99.0
664,170.4171875,170.815625,48.0,102.0
665,170.6046875,170.8671875,60.0,96.0
666,170.9796875,171.165625,48.0,96.0
667,170.7921875,171.32656250000002,67.0,127.0
668,170.0421875,171.35781250000002,36.0,76.0
669,170.2296875,171.3921875,43.0,95.0
670,171.1671875,171.40468750000002,64.0,117.0
671,171.3546875,171.5390625,60.0,112.0
672,172.1046875,172.234375,60.0,72.0
673,172.1046875,172.24062500000002,62.0,69.0
674,171.9171875,172.30156250000002,50.0,96.0
675,172.4796875,172.66875000000002,50.0,100.0
676,171.5421875,172.915625,38.0,85.0
677,172.2921875,172.9765625,69.0,122.0
678,171.7296875,173.009375,45.0,97.0
679,172.6671875,173.20625,65.0,117.0
680,172.8546875,173.4796875,62.0,112.0
681,173.6046875,173.7203125,65.0,97.0
682,173.6046875,173.73281250000002,69.0,112.0
683,173.4171875,173.828125,50.0,107.0
684,173.7921875,174.103125,65.0,107.0
685,173.7921875,174.140625,69.0,117.0
686,173.9796875,174.26875,50.0,102.0
687,173.0421875,174.3765625,38.0,61.0
688,174.1671875,174.41875000000002,62.0,117.0
689,174.3546875,174.5,65.0,100.0
690,174.3546875,174.51406250000002,69.0,102.0
691,173.2296875,174.5390625,45.0,100.0
692,175.1046875,175.36562500000002,50.0,102.0
693,175.2921875,175.571875,69.0,112.0
694,175.2921875,175.59062500000002,65.0,112.0
695,175.4796875,175.70625,50.0,99.0
696,174.5421875,175.909375,38.0,100.0
697,175.6671875,175.953125,62.0,92.0
698,174.9171875,176.0171875,45.0,88.0
699,175.8546875,176.5546875,69.0,107.0
700,175.8546875,176.59062500000002,65.0,112.0
701,176.6046875,176.83437500000002,62.0,85.0
702,176.4171875,176.8453125,50.0,99.0
703,176.0421875,177.01250000000002,38.0,60.0
704,176.2296875,177.05937500000002,45.0,102.0
705,176.9796875,177.171875,50.0,99.0
706,176.7921875,177.20937500000002,69.0,127.0
707,176.7921875,177.21718750000002,65.0,97.0
708,177.3546875,177.49687500000002,65.0,99.0
709,177.1671875,177.5109375,62.0,100.0
710,177.3546875,177.5171875,69.0,100.0
711,178.1046875,178.2765625,64.0,92.0
712,177.9171875,178.3359375,57.0,107.0
713,178.2921875,178.390625,64.0,51.0
714,178.4796875,178.71562500000002,57.0,107.0
715,178.2921875,178.73281250000002,72.0,112.0
716,178.2921875,178.7375,69.0,100.0
717,177.5421875,178.93125,45.0,81.0
718,177.7296875,179.065625,52.0,96.0
719,178.6671875,179.18593750000002,64.0,83.0
720,178.8546875,179.2984375,72.0,102.0
721,178.8546875,179.42812500000002,69.0,100.0
722,179.4171875,179.815625,57.0,127.0
723,179.6046875,179.95781250000002,64.0,100.0
724,179.0421875,180.05156250000002,45.0,96.0
725,179.2296875,180.07500000000002,52.0,122.0
726,179.9796875,180.09375,57.0,112.0
727,180.1671875,180.43437500000002,69.0,127.0
728,179.7921875,180.46562500000002,72.0,127.0
729,180.3546875,180.5328125,64.0,112.0
730,181.1046875,181.2828125,62.0,100.0
731,180.9171875,181.32656250000002,58.0,122.0
732,180.7296875,181.534375,53.0,79.0
733,180.5421875,181.7109375,46.0,73.0
734,181.4796875,181.7265625,58.0,127.0
735,181.2921875,181.9484375,70.0,127.0
736,181.6671875,181.9609375,65.0,127.0
737,181.8546875,182.02968750000002,62.0,112.0
738,182.4171875,182.628125,60.0,107.0
739,182.2296875,182.83437500000002,55.0,107.0
740,182.6046875,182.83437500000002,64.0,117.0
741,182.9796875,183.109375,55.0,97.0
742,182.0421875,183.1109375,48.0,86.0
743,182.7921875,183.36406250000002,67.0,117.0
744,183.1671875,183.4390625,64.0,117.0
745,183.3546875,183.55625,60.0,117.0
746,183.9171875,184.284375,50.0,99.0
747,184.1046875,184.41875000000002,57.0,97.0
748,184.4796875,184.65625,50.0,107.0
749,184.2921875,184.7109375,65.0,122.0
750,184.6671875,184.9015625,64.0,102.0
751,183.5421875,184.953125,38.0,78.0
752,183.7296875,185.0578125,45.0,99.0
753,184.8546875,185.4234375,57.0,93.0
754,184.8546875,185.5234375,62.0,89.0
755,184.8546875,185.52812500000002,65.0,60.0
756,185.4171875,185.85625000000002,50.0,107.0
757,185.6046875,185.884375,57.0,107.0
758,185.7921875,186.06093750000002,62.0,107.0
759,185.7921875,186.0625,65.0,117.0
760,185.0421875,186.09062500000002,38.0,92.0
761,185.2296875,186.10625000000002,45.0,107.0
762,185.9796875,186.1890625,50.0,112.0
763,186.1671875,186.4375,62.0,107.0
764,186.1671875,186.45625,65.0,107.0
765,186.3546875,186.48281250000002,57.0,107.0
766,186.9171875,187.31718750000002,57.0,100.0
767,187.1046875,187.41250000000002,64.0,97.0
768,187.4796875,187.703125,57.0,107.0
769,187.2921875,187.71562500000002,69.0,97.0
770,187.2921875,187.71562500000002,72.0,100.0
771,186.5421875,187.8921875,45.0,69.0
772,186.7296875,188.0328125,52.0,99.0
773,187.6671875,188.4921875,64.0,92.0
774,187.8546875,188.5265625,69.0,102.0
775,187.8546875,188.5265625,72.0,107.0
776,188.6046875,188.7265625,64.0,107.0
777,188.4171875,188.796875,57.0,102.0
778,188.7921875,189.04531250000002,72.0,127.0
779,188.7921875,189.05312500000002,69.0,112.0
780,188.7921875,189.0640625,64.0,88.0
781,188.9796875,189.07500000000002,57.0,102.0
782,188.2296875,189.0796875,52.0,96.0
783,188.0421875,189.08125,45.0,75.0
784,189.1671875,189.30625,69.0,117.0
785,189.3546875,189.425,69.0,45.0
786,189.1671875,189.44375000000002,72.0,127.0
787,189.3546875,189.5734375,64.0,107.0
788,190.1046875,190.2421875,62.0,88.0
789,189.9171875,190.3390625,58.0,127.0
790,190.2921875,190.571875,65.0,96.0
791,189.5421875,190.61562500000002,46.0,92.0
792,189.7296875,190.61562500000002,53.0,64.0
793,190.4796875,190.68125,58.0,107.0
794,190.2921875,190.7375,70.0,127.0
795,190.8546875,191.015625,65.0,93.0
796,190.6671875,191.0265625,62.0,107.0
797,190.8546875,191.0390625,70.0,117.0
798,191.4171875,191.62343750000002,60.0,99.0
799,191.6046875,191.71562500000002,67.0,96.0
800,191.6046875,191.721875,64.0,89.0
801,191.2296875,191.878125,55.0,97.0
802,191.7921875,192.0625,67.0,100.0
803,191.7921875,192.0640625,64.0,97.0
804,191.9796875,192.08125,55.0,85.0
805,191.0421875,192.10000000000002,48.0,81.0
806,192.1671875,192.21718750000002,64.0,42.0
807,192.1671875,192.47500000000002,60.0,102.0
808,192.3546875,192.4921875,67.0,93.0
809,192.3546875,192.5078125,64.0,89.0
810,192.9171875,193.3359375,50.0,86.0
811,192.5421875,193.95625,38.0,73.0
812,193.4796875,194.02812500000002,50.0,78.0
813,192.7296875,194.11875,45.0,85.0
814,193.6671875,194.51406250000002,64.0,71.0
815,193.2921875,194.51875,65.0,89.0
816,193.8546875,194.71718750000002,62.0,64.0
817,194.0421875,195.509375,38.0,64.0
818,194.6046875,195.5328125,45.0,48.0
819,193.1046875,195.6328125,57.0,66.0
820,195.1671875,195.634375,62.0,49.0
821,194.7921875,195.6359375,65.0,69.0
822,196.2921875,197.21875,50.0,88.0
823,195.5421875,197.65312500000002,38.0,73.0
824,195.9171875,197.7296875,45.0,56.0
825,197.4171875,197.81718750000002,50.0,57.0
826,196.6671875,197.85000000000002,57.0,66.0
827,197.0421875,198.54531250000002,65.0,100.0
828,198.1671875,198.5484375,57.0,60.0
829,197.7921875,198.55156250000002,62.0,77.0
830,199.6671875,200.1203125,60.0,71.0
831,198.9171875,200.2359375,52.0,42.0
832,199.2921875,200.4703125,57.0,88.0
833,200.4171875,200.7890625,52.0,63.0
834,200.0421875,200.8453125,64.0,76.0
835,198.5421875,200.8515625,45.0,81.0
836,200.0421875,201.55156250000002,69.0,89.0
837,201.1671875,201.6015625,64.0,99.0
838,200.7921875,201.603125,60.0,93.0
839,202.6671875,203.1421875,57.0,70.0
840,202.2921875,203.23125000000002,50.0,81.0
841,201.5421875,203.784375,38.0,74.0
842,201.9171875,203.83281250000002,45.0,48.0
843,203.0421875,203.8546875,62.0,83.0
844,203.4171875,203.9765625,50.0,27.0
845,203.7921875,204.52968750000002,57.0,83.0
846,204.1671875,204.58437500000002,62.0,85.0
847,203.0421875,204.5890625,65.0,83.0
848,205.6671875,206.12968750000002,60.0,82.0
849,205.2921875,206.15,57.0,99.0
850,204.9171875,206.16875000000002,52.0,55.0
851,206.0421875,206.9484375,64.0,73.0
852,204.5421875,207.2734375,45.0,76.0
853,206.4171875,207.6171875,52.0,47.0
854,206.7921875,207.61875,60.0,78.0
855,207.1671875,207.67031250000002,64.0,58.0
856,206.0421875,207.68437500000002,69.0,89.0
857,208.6671875,209.14687500000002,60.0,66.0
858,208.2921875,209.44375000000002,57.0,92.0
859,207.9171875,209.6640625,52.0,52.0
860,207.5421875,209.6875,45.0,88.0
861,209.0421875,209.86562500000002,64.0,77.0
862,209.0421875,210.53125,69.0,88.0
863,209.7921875,210.5421875,60.0,79.0
864,210.1671875,210.5421875,64.0,77.0
865,211.6671875,212.1515625,57.0,56.0
866,211.2921875,212.221875,50.0,82.0
867,212.7921875,212.9609375,50.0,23.0
868,210.9171875,212.98125000000002,45.0,39.0
869,210.5421875,213.04375000000002,38.0,67.0
870,212.0421875,213.4375,62.0,76.0
871,212.7921875,213.54375000000002,57.0,38.0
872,213.5421875,213.95937500000002,36.0,66.0
873,214.2921875,214.42812500000002,60.0,65.0
874,213.9171875,214.53125,55.0,72.0
875,214.6671875,215.671875,57.0,73.0
876,214.6671875,215.8609375,53.0,88.0
877,214.6671875,215.98281250000002,41.0,63.0
878,216.1671875,216.53593750000002,53.0,50.0
879,215.7921875,216.55,57.0,63.0
880,214.6671875,216.55625,60.0,69.0
881,217.2921875,218.13906250000002,50.0,81.0
882,216.5421875,218.8375,38.0,59.0
883,217.6671875,218.85000000000002,57.0,58.0
884,216.9171875,218.88906250000002,45.0,52.0
885,218.0421875,219.52031250000002,65.0,90.0
886,218.7921875,219.5265625,62.0,69.0
887,219.1671875,219.578125,57.0,58.0
888,219.9171875,221.3375,52.0,55.0
889,220.6671875,221.70000000000002,64.0,85.0
890,221.0421875,221.734375,60.0,60.0
891,221.4171875,222.02968750000002,52.0,51.0
892,219.5421875,222.1515625,45.0,68.0
893,220.2921875,222.5421875,57.0,58.0
894,222.1671875,222.5421875,60.0,55.0
895,221.7921875,222.5421875,64.0,63.0
896,222.9171875,224.20781250000002,52.0,66.0
897,223.2921875,224.31718750000002,57.0,72.0
898,224.4171875,224.76406250000002,52.0,54.0
899,222.5421875,224.790625,45.0,88.0
900,224.0421875,224.8390625,60.0,69.0
901,223.6671875,225.2265625,64.0,96.0
902,224.7921875,225.425,57.0,127.0
903,225.1671875,225.44375000000002,60.0,112.0
904,225.3546875,225.5015625,64.0,92.0
905,225.9171875,226.27968750000002,53.0,96.0
906,226.1046875,226.40312500000002,60.0,88.0
907,226.4796875,226.67656250000002,53.0,93.0
908,225.5421875,226.90468750000002,41.0,92.0
909,226.2921875,226.9796875,69.0,117.0
910,225.7296875,227.03750000000002,48.0,83.0
911,226.6671875,227.07656250000002,65.0,95.0
912,226.8546875,227.1046875,60.0,97.0
913,227.4171875,227.671875,53.0,72.0
914,227.2296875,227.8609375,48.0,52.0
915,227.9796875,228.096875,48.0,78.0
916,227.0421875,228.15468750000002,41.0,79.0
917,227.6046875,228.1578125,60.0,66.0
918,227.7921875,228.3609375,69.0,100.0
919,228.1671875,228.39687500000002,65.0,93.0
920,228.3546875,228.6359375,60.0,82.0
921,228.9171875,229.2828125,48.0,88.0
922,229.1046875,229.384375,60.0,76.0
923,229.4796875,229.66093750000002,48.0,99.0
924,228.5421875,229.9453125,36.0,63.0
925,229.2921875,230.0484375,67.0,127.0
926,228.7296875,230.0859375,43.0,63.0
927,229.6671875,230.128125,64.0,97.0
928,229.8546875,230.12968750000002,60.0,99.0
929,230.4171875,230.8203125,48.0,85.0
930,230.6046875,230.9015625,60.0,85.0
931,230.0421875,231.05,36.0,71.0
932,230.2296875,231.0734375,43.0,73.0
933,230.7921875,231.2421875,67.0,127.0
934,230.9796875,231.2453125,48.0,100.0
935,231.1671875,231.384375,64.0,107.0
936,231.3546875,231.6328125,60.0,97.0
937,231.9171875,232.34062500000002,53.0,96.0
938,232.1046875,232.3921875,60.0,96.0
939,232.4796875,232.62343750000002,53.0,97.0
940,231.5421875,232.940625,41.0,83.0
941,231.7296875,233.0625,48.0,77.0
942,232.2921875,233.228125,69.0,127.0
943,232.8546875,233.5109375,60.0,95.0
944,232.6671875,233.53593750000002,65.0,83.0
945,233.6046875,233.75625000000002,60.0,81.0
946,233.4171875,233.8046875,53.0,92.0
947,233.2296875,234.08281250000002,48.0,82.0
948,233.9796875,234.1109375,53.0,99.0
949,233.0421875,234.175,41.0,71.0
950,233.7921875,234.1953125,65.0,90.0
951,233.7921875,234.2765625,69.0,122.0
952,234.1671875,234.43125,60.0,100.0
953,234.3546875,234.625,65.0,107.0
954,234.9171875,235.3125,50.0,97.0
955,235.1046875,235.37968750000002,62.0,89.0
956,235.4796875,235.68593750000002,50.0,93.0
957,234.5421875,235.8703125,38.0,76.0
958,235.2921875,235.9234375,69.0,117.0
959,234.7296875,235.9953125,45.0,86.0
960,235.6671875,236.07500000000002,65.0,95.0
961,235.8546875,236.30156250000002,62.0,99.0
962,236.4171875,236.80625,50.0,83.0
963,236.6046875,236.82500000000002,62.0,90.0
964,236.0421875,236.971875,38.0,66.0
965,236.2296875,236.98906250000002,45.0,68.0
966,236.9796875,237.1265625,50.0,92.0
967,236.7921875,237.23125000000002,69.0,112.0
968,237.1671875,237.39375,65.0,96.0
969,237.3546875,237.55312500000002,62.0,99.0
970,237.9171875,238.30312500000002,58.0,112.0
971,238.1046875,238.3984375,62.0,89.0
972,237.5421875,238.82500000000002,46.0,76.0
973,238.2921875,238.8515625,70.0,127.0
974,237.7296875,238.9703125,53.0,61.0
975,238.6671875,238.9796875,65.0,100.0
976,238.4796875,239.17656250000002,58.0,102.0
977,238.8546875,239.1890625,62.0,95.0
978,239.6046875,239.88125000000002,62.0,69.0
979,239.4171875,239.8984375,58.0,99.0
980,239.2296875,240.0625,53.0,67.0
981,239.9796875,240.0953125,58.0,96.0
982,239.0421875,240.12968750000002,46.0,88.0
983,239.7921875,240.3625,70.0,127.0
984,240.1671875,240.4375,65.0,97.0
985,240.3546875,240.525,62.0,99.0
986,240.9171875,241.3375,50.0,89.0
987,241.1046875,241.35000000000002,57.0,99.0
988,241.4796875,241.7421875,50.0,86.0
989,240.5421875,241.8859375,38.0,52.0
990,241.2921875,241.93437500000002,65.0,102.0
991,241.6671875,242.009375,62.0,100.0
992,240.7296875,242.1015625,45.0,79.0
993,241.8546875,242.1265625,57.0,97.0
994,242.4171875,242.796875,50.0,95.0
995,242.6046875,242.85625000000002,57.0,107.0
996,242.0421875,242.9953125,38.0,72.0
997,242.2296875,243.04531250000002,45.0,88.0
998,242.9796875,243.12187500000002,50.0,97.0
999,242.7921875,243.484375,65.0,100.0
1000,243.1671875,243.5,62.0,100.0
1001,243.3546875,243.51875,57.0,100.0
1002,243.9171875,244.3234375,55.0,95.0
1003,244.1046875,244.3921875,62.0,97.0
1004,244.4796875,244.67031250000002,55.0,92.0
1005,243.5421875,244.9,43.0,86.0
1006,243.7296875,245.01875,50.0,76.0
1007,244.2921875,245.0890625,71.0,117.0
1008,244.8546875,245.20156250000002,62.0,92.0
1009,244.6671875,245.446875,67.0,88.0
1010,245.4171875,245.79531250000002,55.0,92.0
1011,245.6046875,245.8203125,62.0,86.0
1012,245.2296875,245.9015625,50.0,73.0
1013,245.9796875,246.0859375,50.0,79.0
1014,245.0421875,246.11875,43.0,48.0
1015,245.7921875,246.43593750000002,71.0,117.0
1016,246.1671875,246.453125,67.0,97.0
1017,246.3546875,246.53750000000002,62.0,102.0
1018,246.9171875,247.321875,48.0,93.0
1019,247.1046875,247.3859375,60.0,97.0
1020,247.4796875,247.696875,48.0,100.0
1021,246.5421875,247.7890625,36.0,72.0
1022,246.7296875,248.0,43.0,88.0
1023,247.6671875,248.05625,64.0,127.0
1024,247.2921875,248.0640625,67.0,127.0
1025,247.8546875,248.3,60.0,102.0
1026,248.6046875,248.71718750000002,64.0,95.0
1027,248.6046875,248.728125,67.0,93.0
1028,248.6046875,248.75,60.0,93.0
1029,248.4171875,248.80625,48.0,117.0
1030,248.7921875,248.846875,60.0,64.0
1031,248.0421875,249.0234375,36.0,85.0
1032,248.2296875,249.0421875,43.0,102.0
1033,248.7921875,249.09218750000002,64.0,100.0
1034,248.9796875,249.134375,48.0,92.0
1035,248.7921875,249.33437500000002,67.0,112.0
1036,249.3546875,249.503125,64.0,127.0
1037,249.1671875,249.5875,60.0,127.0
1038,249.9171875,250.31875000000002,53.0,96.0
1039,250.1046875,250.38906250000002,60.0,100.0
1040,250.4796875,250.64687500000002,53.0,93.0
1041,249.5421875,250.884375,41.0,82.0
1042,250.2921875,250.93125,69.0,112.0
1043,249.7296875,251.05312500000002,48.0,92.0
1044,250.8546875,251.14375,60.0,99.0
1045,250.6671875,251.1796875,65.0,100.0
1046,251.4171875,251.80937500000002,53.0,102.0
1047,251.6046875,251.87343750000002,60.0,92.0
1048,251.2296875,252.0703125,48.0,86.0
1049,251.9796875,252.071875,53.0,93.0
1050,251.0421875,252.10625000000002,41.0,66.0
1051,251.7921875,252.375,69.0,127.0
1052,252.1671875,252.38750000000002,65.0,127.0
1053,252.3546875,252.5421875,60.0,107.0
1054,252.5421875,252.96718750000002,36.0,99.0
1055,252.9171875,253.125,60.0,97.0
1056,252.7296875,253.159375,55.0,89.0
1057,253.1046875,253.34218750000002,64.0,93.0
1058,253.2921875,253.4171875,60.0,122.0
1059,253.6671875,254.5578125,60.0,102.0
1060,253.6671875,254.6046875,69.0,112.0
1061,253.6671875,254.6171875,65.0,102.0
1062,254.6046875,254.875,53.0,93.0
1063,253.6671875,255.0890625,41.0,76.0
1064,254.4171875,255.17031250000002,48.0,83.0
1065,254.7921875,255.4375,69.0,112.0
1066,254.9796875,255.46875,53.0,95.0
1067,255.1671875,255.48125000000002,65.0,102.0
1068,255.3546875,255.57656250000002,60.0,96.0
1069,255.9171875,256.1640625,57.0,93.0
1070,256.1046875,256.2640625,60.0,95.0
1071,255.7296875,256.3328125,52.0,63.0
1072,255.5421875,256.903125,45.0,72.0
1073,256.8546875,257.0359375,57.0,92.0
1074,256.2921875,257.0453125,64.0,102.0
1075,256.4796875,257.053125,52.0,82.0
1076,256.6671875,257.0578125,60.0,97.0
1077,257.4171875,257.8203125,57.0,88.0
1078,257.6046875,257.8890625,60.0,89.0
1079,257.2296875,258.0734375,52.0,69.0
1080,257.9796875,258.07968750000003,57.0,89.0
1081,257.0421875,258.1046875,45.0,76.0
1082,257.7921875,258.4296875,69.0,100.0
1083,258.1671875,258.4734375,64.0,97.0
1084,258.3546875,258.5203125,60.0,93.0
1085,259.1046875,259.31875,62.0,73.0
1086,258.7296875,259.546875,45.0,78.0
1087,258.5421875,259.55625000000003,38.0,67.0
1088,258.9171875,259.70468750000003,50.0,92.0
1089,259.2921875,259.9453125,69.0,122.0
1090,259.6671875,259.975,65.0,102.0
1091,259.8546875,260.08125,62.0,95.0
1092,260.4171875,260.6515625,57.0,93.0
1093,260.6046875,260.778125,60.0,97.0
1094,260.2296875,260.85625,52.0,75.0
1095,260.0421875,261.0703125,45.0,71.0
1096,260.9796875,261.0921875,52.0,92.0
1097,260.7921875,261.440625,64.0,112.0
1098,261.1671875,261.45625,60.0,117.0
1099,261.3546875,261.50937500000003,57.0,107.0
1100,262.1046875,262.27500000000003,62.0,93.0
1101,261.9171875,262.3390625,58.0,107.0
1102,261.5421875,262.9109375,46.0,83.0
1103,261.7296875,263.0078125,53.0,66.0
1104,262.2921875,263.034375,70.0,117.0
1105,262.4796875,263.15781250000003,58.0,102.0
1106,262.8546875,263.33125,62.0,97.0
1107,262.6671875,263.52500000000003,65.0,89.0
1108,263.6046875,263.8484375,62.0,95.0
1109,263.4171875,263.8578125,58.0,100.0
1110,263.2296875,264.05625000000003,53.0,36.0
1111,263.0421875,264.140625,46.0,89.0
1112,263.9796875,264.153125,58.0,102.0
1113,263.7921875,264.4265625,70.0,127.0
1114,264.1671875,264.4609375,65.0,99.0
1115,264.3546875,264.53125,62.0,102.0
1116,264.9171875,265.3328125,50.0,85.0
1117,265.1046875,265.378125,57.0,88.0
1118,265.4796875,265.6546875,50.0,93.0
1119,264.5421875,265.88437500000003,38.0,76.0
1120,264.7296875,266.0515625,45.0,85.0
1121,265.2921875,266.13437500000003,65.0,100.0
1122,265.6671875,266.1703125,62.0,99.0
1123,265.8546875,266.1921875,57.0,88.0
1124,266.6046875,266.80625000000003,57.0,93.0
1125,266.4171875,266.828125,50.0,93.0
1126,266.0421875,267.02500000000003,38.0,59.0
1127,266.2296875,267.03125,45.0,57.0
1128,266.9796875,267.2875,50.0,92.0
1129,266.7921875,267.496875,65.0,117.0
1130,267.1671875,267.50156250000003,62.0,100.0
1131,267.3546875,267.5125,57.0,93.0
1132,267.9171875,268.32968750000003,55.0,96.0
1133,268.1046875,268.390625,62.0,97.0
1134,267.5421875,268.9046875,43.0,79.0
1135,268.2921875,268.965625,71.0,107.0
1136,267.7296875,268.975,50.0,88.0
1137,268.6671875,268.9875,67.0,107.0
1138,268.8546875,269.04375,62.0,97.0
1139,268.4796875,269.0625,55.0,97.0
1140,269.4171875,269.85312500000003,57.0,93.0
1141,269.6046875,269.88437500000003,60.0,92.0
1142,269.9796875,270.15000000000003,57.0,93.0
1143,269.0421875,270.4046875,45.0,89.0
1144,269.7921875,270.42343750000003,69.0,102.0
1145,270.1671875,270.4875,64.0,85.0
1146,269.2296875,270.54062500000003,52.0,77.0
1147,270.3546875,270.54062500000003,60.0,102.0
1148,270.9171875,271.32968750000003,57.0,93.0
1149,271.1046875,271.3828125,60.0,75.0
1150,270.5421875,271.8953125,45.0,79.0
1151,270.7296875,272.04375,52.0,71.0
1152,271.6671875,272.1234375,64.0,93.0
1153,271.4796875,272.1390625,57.0,90.0
1154,271.2921875,272.1703125,69.0,99.0
1155,271.8546875,272.2921875,60.0,100.0
1156,272.6046875,272.71250000000003,69.0,96.0
1157,272.6046875,272.72031250000003,64.0,88.0
1158,272.4171875,272.809375,57.0,99.0
1159,272.7921875,273.1125,64.0,93.0
1160,272.9796875,273.1453125,57.0,99.0
1161,272.7921875,273.23593750000003,69.0,112.0
1162,272.0421875,273.340625,45.0,78.0
1163,273.3546875,273.41875,69.0,56.0
1164,273.1671875,273.45,60.0,93.0
1165,273.3546875,273.453125,64.0,75.0
1166,272.2296875,273.54375,52.0,67.0
1167,273.5421875,273.9484375,64.0,100.0
1168,273.5421875,274.0390625,60.0,93.0
1169,273.5421875,274.053125,69.0,99.0
1170,274.1046875,274.40625,57.0,72.0
1171,274.2921875,274.72812500000003,64.0,107.0
1172,274.2921875,274.7296875,69.0,107.0
1173,274.2921875,274.7390625,60.0,107.0
1174,274.8546875,275.109375,69.0,102.0
1175,274.8546875,275.11875000000003,64.0,100.0
1176,274.8546875,275.13125,60.0,117.0
1177,274.6671875,275.171875,57.0,100.0
1178,273.9171875,275.40000000000003,52.0,82.0
1179,275.2296875,275.6125,64.0,95.0
1180,275.2296875,275.6140625,69.0,100.0
1181,275.6046875,275.65781250000003,60.0,27.0
1182,275.6046875,275.8625,52.0,96.0
1183,275.7921875,276.0125,64.0,102.0
1184,273.5421875,276.0390625,45.0,96.0
1185,275.7921875,276.0609375,69.0,117.0
1186,275.9796875,276.078125,52.0,92.0
1187,275.7921875,276.0828125,60.0,83.0
1188,276.1671875,276.221875,69.0,82.0
1189,276.1671875,276.2734375,60.0,63.0
1190,276.1671875,276.2796875,64.0,107.0
1191,276.5421875,276.690625,70.0,117.0
1192,276.5421875,277.03125,65.0,93.0
1193,277.1046875,277.2484375,62.0,117.0
1194,276.9171875,277.3203125,58.0,122.0
1195,277.2921875,277.6140625,65.0,102.0
1196,277.2921875,277.6921875,70.0,127.0
1197,277.6671875,277.70625,65.0,35.0
1198,277.6671875,277.79062500000003,62.0,95.0
1199,276.5421875,277.9609375,46.0,122.0
1200,276.7296875,278.10312500000003,53.0,35.0
1201,277.8546875,278.3109375,65.0,96.0
1202,277.8546875,278.3578125,70.0,127.0
1203,277.4796875,278.45625,58.0,117.0
1204,278.4171875,278.6484375,70.0,127.0
1205,278.4171875,278.6625,65.0,97.0
1206,278.6046875,278.8546875,58.0,117.0
1207,278.2296875,279.0046875,53.0,71.0
1208,278.7921875,279.0453125,65.0,97.0
1209,278.0421875,279.0515625,46.0,62.0
1210,278.7921875,279.0546875,70.0,127.0
1211,278.9796875,279.0828125,58.0,122.0
1212,279.1671875,279.28281250000003,65.0,107.0
1213,279.1671875,279.3890625,70.0,127.0
1214,279.3546875,279.46875,65.0,66.0
1215,279.5421875,279.796875,69.0,127.0
1216,279.5421875,279.80625000000003,65.0,112.0
1217,279.5421875,279.88125,62.0,117.0
1218,280.1046875,280.3984375,50.0,96.0
1219,280.2921875,280.6796875,65.0,112.0
1220,280.2921875,280.6921875,62.0,112.0
1221,280.6671875,280.9640625,50.0,97.0
1222,280.8546875,281.3109375,65.0,97.0
1223,280.8546875,281.3203125,62.0,102.0
1224,280.8546875,281.325,57.0,96.0
1225,279.5421875,281.453125,38.0,95.0
1226,281.2296875,281.5140625,50.0,107.0
1227,279.9171875,281.628125,45.0,83.0
1228,281.4171875,281.646875,65.0,96.0
1229,281.4171875,281.6625,62.0,107.0
1230,281.7921875,282.0546875,65.0,102.0
1231,281.7921875,282.0609375,62.0,102.0
1232,281.9796875,282.1625,45.0,83.0
1233,281.6046875,282.1796875,38.0,102.0
1234,281.9796875,282.2625,50.0,100.0
1235,282.1671875,282.4140625,62.0,107.0
1236,282.1671875,282.43906250000003,65.0,112.0
1237,282.3546875,282.4640625,57.0,100.0
1238,283.1046875,283.25156250000003,62.0,95.0
1239,282.9171875,283.2765625,58.0,122.0
1240,283.2921875,283.5421875,65.0,97.0
1241,283.2921875,283.584375,70.0,127.0
1242,282.5421875,283.78281250000003,46.0,107.0
1243,282.7296875,284.00156250000003,53.0,56.0
1244,283.6671875,284.1078125,62.0,100.0
1245,283.4796875,284.1375,58.0,127.0
1246,283.8546875,284.175,65.0,96.0
1247,283.8546875,284.325,70.0,127.0
1248,284.6046875,284.6359375,65.0,39.0
1249,284.6046875,284.79375,62.0,97.0
1250,284.4171875,284.8515625,58.0,127.0
1251,284.2296875,285.0578125,53.0,72.0
1252,284.7921875,285.09531250000003,65.0,97.0
1253,284.9796875,285.1015625,58.0,122.0
1254,284.0421875,285.140625,46.0,99.0
1255,284.7921875,285.4109375,70.0,127.0
1256,285.1671875,285.4828125,62.0,117.0
1257,285.3546875,285.50156250000003,65.0,100.0
1258,286.1046875,286.22812500000003,57.0,112.0
1259,285.9171875,286.359375,50.0,107.0
1260,286.2921875,286.721875,65.0,117.0
1261,286.4796875,286.725,50.0,92.0
1262,286.2921875,286.725,62.0,107.0
1263,286.6671875,286.840625,57.0,88.0
1264,285.5421875,286.95,38.0,77.0
1265,285.7296875,287.0890625,45.0,85.0
1266,286.8546875,287.1140625,57.0,66.0
1267,286.8546875,287.48593750000003,65.0,100.0
1268,286.8546875,287.49375000000003,62.0,102.0
1269,287.6046875,287.6609375,62.0,44.0
1270,287.4171875,287.8359375,50.0,112.0
1271,287.6046875,287.875,57.0,99.0
1272,287.0421875,288.0375,38.0,82.0
1273,287.2296875,288.0625,45.0,90.0
1274,287.7921875,288.11875000000003,65.0,127.0
1275,287.7921875,288.140625,62.0,107.0
1276,288.1671875,288.19375,62.0,34.0
1277,288.1671875,288.4421875,57.0,77.0
1278,287.9796875,288.45468750000003,50.0,117.0
1279,288.3546875,288.496875,62.0,102.0
1280,288.3546875,288.53281250000003,65.0,102.0
1281,288.9171875,289.346875,53.0,90.0
1282,289.1046875,289.35625,60.0,89.0
1283,289.4796875,289.6515625,53.0,97.0
1284,289.2921875,289.66875,69.0,112.0
1285,289.2921875,289.6796875,65.0,102.0
1286,288.5421875,289.92343750000003,41.0,83.0
1287,288.7296875,290.08750000000003,48.0,93.0
1288,289.8546875,290.278125,69.0,117.0
1289,289.6671875,290.434375,60.0,92.0
1290,289.8546875,290.484375,65.0,99.0
1291,290.4171875,290.8390625,53.0,96.0
1292,290.6046875,290.859375,60.0,96.0
1293,290.7921875,291.06875,65.0,107.0
1294,290.7921875,291.0828125,69.0,112.0
1295,290.9796875,291.190625,53.0,102.0
1296,290.0421875,291.390625,41.0,72.0
1297,291.1671875,291.4515625,60.0,100.0
1298,290.2296875,291.5109375,48.0,82.0
1299,291.3546875,291.515625,69.0,100.0
1300,291.3546875,291.5359375,65.0,107.0
1301,291.9171875,292.284375,55.0,97.0
1302,292.1046875,292.38125,62.0,79.0
1303,292.4796875,292.6765625,55.0,102.0
1304,292.2921875,292.73125,67.0,122.0
1305,292.2921875,292.73125,70.0,127.0
1306,291.5421875,292.8875,43.0,83.0
1307,291.7296875,293.034375,50.0,89.0
1308,292.6671875,293.4921875,62.0,97.0
1309,292.8546875,293.559375,67.0,99.0
1310,292.8546875,293.5671875,70.0,117.0
1311,293.4171875,293.8359375,55.0,102.0
1312,293.6046875,293.840625,62.0,107.0
1313,293.7921875,294.19375,70.0,117.0
1314,293.7921875,294.20468750000003,67.0,97.0
1315,293.0421875,294.378125,43.0,86.0
1316,293.2296875,294.48593750000003,50.0,95.0
1317,294.1671875,294.4875,62.0,100.0
1318,294.3546875,294.50625,70.0,117.0
1319,294.3546875,294.5140625,67.0,100.0
1320,293.9796875,294.51718750000003,55.0,97.0
1321,295.1046875,295.2609375,64.0,82.0
1322,294.9171875,295.3046875,57.0,99.0
1323,295.4796875,295.68125000000003,57.0,100.0
1324,295.2921875,295.690625,69.0,95.0
1325,295.2921875,295.690625,72.0,112.0
1326,294.5421875,295.91875,45.0,92.0
1327,294.7296875,296.059375,52.0,90.0
1328,295.8546875,296.1859375,69.0,100.0
1329,295.6671875,296.215625,64.0,99.0
1330,295.8546875,296.51718750000003,72.0,100.0
1331,296.6046875,296.7453125,64.0,93.0
1332,296.4171875,296.79375,57.0,107.0
1333,296.2296875,297.0609375,52.0,96.0
1334,296.7921875,297.0765625,69.0,112.0
1335,296.0421875,297.10312500000003,45.0,85.0
1336,296.9796875,297.10312500000003,57.0,97.0
1337,296.7921875,297.16875,72.0,117.0
1338,297.3546875,297.4984375,72.0,107.0
1339,297.3546875,297.5078125,69.0,107.0
1340,297.1671875,297.5296875,64.0,102.0
1341,298.1046875,298.2546875,60.0,85.0
1342,297.9171875,298.31406250000003,48.0,96.0
1343,298.2921875,298.6390625,67.0,102.0
1344,298.2921875,298.653125,64.0,100.0
1345,298.4796875,298.90625,48.0,96.0
1346,297.5421875,298.921875,36.0,74.0
1347,298.6671875,298.98125,60.0,90.0
1348,297.7296875,298.9953125,43.0,89.0
1349,298.8546875,299.4671875,64.0,99.0
1350,298.8546875,299.4734375,67.0,99.0
1351,299.4171875,299.815625,48.0,102.0
1352,299.6046875,299.8671875,60.0,96.0
1353,299.9796875,300.16562500000003,48.0,96.0
1354,299.7921875,300.3265625,67.0,127.0
1355,299.0421875,300.3578125,36.0,76.0
1356,299.2296875,300.39218750000003,43.0,95.0
1357,300.1671875,300.4046875,64.0,117.0
1358,300.3546875,300.5390625,60.0,112.0
1359,301.1046875,301.234375,60.0,72.0
1360,301.1046875,301.240625,62.0,69.0
1361,300.9171875,301.3015625,50.0,96.0
1362,301.4796875,301.66875,50.0,100.0
1363,300.5421875,301.91562500000003,38.0,85.0
1364,301.2921875,301.9765625,69.0,122.0
1365,300.7296875,302.00937500000003,45.0,97.0
1366,301.6671875,302.20625,65.0,117.0
1367,301.8546875,302.4796875,62.0,112.0
1368,302.6046875,302.72031250000003,65.0,97.0
1369,302.6046875,302.7328125,69.0,112.0
1370,302.4171875,302.828125,50.0,107.0
1371,302.7921875,303.10312500000003,65.0,107.0
1372,302.7921875,303.140625,69.0,117.0
1373,302.9796875,303.26875,50.0,102.0
1374,302.0421875,303.37656250000003,38.0,61.0
1375,303.1671875,303.41875,62.0,117.0
1376,303.3546875,303.5,65.0,100.0
1377,303.3546875,303.5140625,69.0,102.0
1378,302.2296875,303.5390625,45.0,100.0
1379,304.1046875,304.365625,50.0,102.0
1380,304.2921875,304.57187500000003,69.0,112.0
1381,304.2921875,304.590625,65.0,112.0
1382,304.4796875,304.70625,50.0,99.0
1383,303.5421875,304.909375,38.0,100.0
1384,304.6671875,304.953125,62.0,92.0
1385,303.9171875,305.01718750000003,45.0,88.0
1386,304.8546875,305.5546875,69.0,107.0
1387,304.8546875,305.590625,65.0,112.0
1388,305.6046875,305.834375,62.0,85.0
1389,305.4171875,305.84531250000003,50.0,99.0
1390,305.0421875,306.0125,38.0,60.0
1391,305.2296875,306.059375,45.0,102.0
1392,305.9796875,306.171875,50.0,99.0
1393,305.7921875,306.209375,69.0,127.0
1394,305.7921875,306.2171875,65.0,97.0
1395,306.3546875,306.496875,65.0,99.0
1396,306.1671875,306.5109375,62.0,100.0
1397,306.3546875,306.51718750000003,69.0,100.0
1398,307.1046875,307.2765625,64.0,92.0
1399,306.9171875,307.3359375,57.0,107.0
1400,307.2921875,307.390625,64.0,51.0
1401,307.4796875,307.71562500000005,57.0,107.0
1402,307.2921875,307.7328125,72.0,112.0
1403,307.2921875,307.7375,69.0,100.0
1404,306.5421875,307.93125000000003,45.0,81.0
1405,306.7296875,308.065625,52.0,96.0
1406,307.6671875,308.1859375,64.0,83.0
1407,307.8546875,308.29843750000003,72.0,102.0
1408,307.8546875,308.428125,69.0,100.0
1409,308.4171875,308.815625,57.0,127.0
1410,308.6046875,308.95781250000005,64.0,100.0
1411,308.0421875,309.05156250000005,45.0,96.0
1412,308.2296875,309.07500000000005,52.0,122.0
1413,308.9796875,309.09375,57.0,112.0
1414,309.1671875,309.43437500000005,69.0,127.0
1415,308.7921875,309.46562500000005,72.0,127.0
1416,309.3546875,309.53281250000003,64.0,112.0
1417,310.1046875,310.28281250000003,62.0,100.0
1418,309.9171875,310.3265625,58.0,122.0
1419,309.7296875,310.534375,53.0,79.0
1420,309.5421875,310.7109375,46.0,73.0
1421,310.4796875,310.7265625,58.0,127.0
1422,310.2921875,310.9484375,70.0,127.0
1423,310.6671875,310.9609375,65.0,127.0
1424,310.8546875,311.0296875,62.0,112.0
1425,311.4171875,311.628125,60.0,107.0
1426,311.2296875,311.834375,55.0,107.0
1427,311.6046875,311.834375,64.0,117.0
1428,311.9796875,312.109375,55.0,97.0
1429,311.0421875,312.11093750000003,48.0,86.0
1430,311.7921875,312.36406250000005,67.0,117.0
1431,312.1671875,312.43906250000003,64.0,117.0
1432,312.3546875,312.55625000000003,60.0,117.0
1433,312.9171875,313.284375,50.0,99.0
1434,313.1046875,313.41875000000005,57.0,97.0
1435,313.4796875,313.65625,50.0,107.0
1436,313.2921875,313.7109375,65.0,122.0
1437,313.6671875,313.9015625,64.0,102.0
1438,312.5421875,313.953125,38.0,78.0
1439,312.7296875,314.0578125,45.0,99.0
1440,313.8546875,314.42343750000003,57.0,93.0
1441,313.8546875,314.5234375,62.0,89.0
1442,313.8546875,314.52812500000005,65.0,60.0
1443,314.4171875,314.85625000000005,50.0,107.0
1444,314.6046875,314.88437500000003,57.0,107.0
1445,314.7921875,315.0609375,62.0,107.0
1446,314.7921875,315.0625,65.0,117.0
1447,314.0421875,315.09062500000005,38.0,92.0
1448,314.2296875,315.10625000000005,45.0,107.0
1449,314.9796875,315.18906250000003,50.0,112.0
1450,315.1671875,315.4375,62.0,107.0
1451,315.1671875,315.45625,65.0,107.0
1452,315.3546875,315.4828125,57.0,107.0
1453,315.9171875,316.31718750000005,57.0,100.0
1454,316.1046875,316.4125,64.0,97.0
1455,316.4796875,316.703125,57.0,107.0
1456,316.2921875,316.71562500000005,69.0,97.0
1457,316.2921875,316.71562500000005,72.0,100.0
1458,315.5421875,316.89218750000003,45.0,69.0
1459,315.7296875,317.03281250000003,52.0,99.0
1460,316.6671875,317.4921875,64.0,92.0
1461,316.8546875,317.5265625,69.0,102.0
1462,316.8546875,317.5265625,72.0,107.0
1463,317.6046875,317.7265625,64.0,107.0
1464,317.4171875,317.796875,57.0,102.0
1465,317.7921875,318.0453125,72.0,127.0
1466,317.7921875,318.053125,69.0,112.0
1467,317.7921875,318.06406250000003,64.0,88.0
1468,317.9796875,318.07500000000005,57.0,102.0
1469,317.2296875,318.07968750000003,52.0,96.0
1470,317.0421875,318.08125,45.0,75.0
1471,318.1671875,318.30625000000003,69.0,117.0
1472,318.3546875,318.425,69.0,45.0
1473,318.1671875,318.44375,72.0,127.0
1474,318.3546875,318.5734375,64.0,107.0
1475,319.1046875,319.2421875,62.0,88.0
1476,318.9171875,319.3390625,58.0,127.0
1477,319.2921875,319.57187500000003,65.0,96.0
1478,318.5421875,319.615625,46.0,92.0
1479,318.7296875,319.615625,53.0,64.0
1480,319.4796875,319.68125000000003,58.0,107.0
1481,319.2921875,319.7375,70.0,127.0
1482,319.8546875,320.015625,65.0,93.0
1483,319.6671875,320.0265625,62.0,107.0
1484,319.8546875,320.0390625,70.0,117.0
1485,320.4171875,320.6234375,60.0,99.0
1486,320.6046875,320.71562500000005,67.0,96.0
1487,320.6046875,320.721875,64.0,89.0
1488,320.2296875,320.878125,55.0,97.0
1489,320.7921875,321.0625,67.0,100.0
1490,320.7921875,321.06406250000003,64.0,97.0
1491,320.9796875,321.08125,55.0,85.0
1492,320.0421875,321.1,48.0,81.0
1493,321.1671875,321.2171875,64.0,42.0
1494,321.1671875,321.475,60.0,102.0
1495,321.3546875,321.4921875,67.0,93.0
1496,321.3546875,321.5078125,64.0,89.0
1497,322.2921875,323.11093750000003,50.0,90.0
1498,323.0421875,323.6796875,65.0,81.0
1499,323.0421875,323.70000000000005,62.0,76.0
1500,321.5421875,323.703125,38.0,95.0
1501,323.4171875,323.765625,50.0,42.0
1502,322.6671875,323.77500000000003,57.0,62.0
1503,323.7921875,325.515625,50.0,73.0
1504,323.7921875,325.52031250000005,62.0,89.0
1505,323.7921875,325.52500000000003,57.0,76.0
1506,321.9171875,325.54843750000003,45.0,59.0
1507,323.7921875,325.55,65.0,81.0
1508,323.7921875,325.5703125,38.0,59.0
