,start,end,pitch,velocity
0,9.306591675,9.38560100625,81.0,78.0
1,9.306591675,9.39739344375,76.0,78.0
2,9.872628675,9.95635498125,81.0,74.0
3,9.872628675,9.9622512,76.0,70.0
4,10.438665675,10.5282882,76.0,67.0
5,10.438665675,10.53182593125,81.0,68.0
6,10.721684175,10.81012745625,76.0,71.0
7,10.721684175,10.81248594375,81.0,70.0
8,11.570739675,11.66154144375,81.0,73.0
9,11.570739675,11.66861690625,76.0,71.0
10,12.136776675,12.2146067625,81.0,78.0
11,12.136776675,12.2263992,76.0,73.0
12,12.419795175,12.74408720625,72.0,87.0
13,12.702813675,12.97757746875,74.0,95.0
14,12.985832175,13.3042279875,76.0,80.0
15,13.268850675,13.5730955625,79.0,87.0
16,13.551869175,14.13087785625,81.0,87.0
17,14.117906175,14.41625484375,76.0,82.0
18,14.400924675,14.71342426875,84.0,82.0
19,14.683943175,15.64502683125,81.0,80.0
20,15.816017175,16.14502618125,86.0,85.0
21,16.099035675,16.6296953625,88.0,85.0
22,16.665072675,16.94691193125,79.0,89.0
23,17.231109675,17.5542224625,88.0,89.0
24,17.514128175,17.785354237499998,86.0,85.0
25,17.797146675,18.07426895625,84.0,92.0
26,16.948091175,18.080165175,81.0,83.0
27,18.080165175,18.6957304125,86.0,84.0
28,18.646202175,18.92568294375,84.0,92.0
29,18.929220675,19.2523334625,81.0,82.0
30,19.212239175,19.50351238125,84.0,92.0
31,19.495257675,20.061294675,86.0,84.0
32,20.061294675,20.37143578125,88.0,79.0
33,20.344313175,20.63558638125,91.0,83.0
34,20.627331675,20.97520858125,93.0,80.0
35,20.910350175,21.23935918125,95.0,89.0
36,21.193368675,21.476387175,91.0,92.0
37,22.325442675,22.452801,76.0,85.0
38,21.476387175,22.608461175,88.0,82.0
39,22.466951925,22.61907436875,79.0,78.0
40,22.608461175,23.18275288125,81.0,84.0
41,23.174498175,23.45869591875,76.0,83.0
42,23.457516675,23.7428936625,84.0,78.0
43,23.740535175,24.7004395875,81.0,83.0
44,24.872609175,25.1485522125,86.0,87.0
45,25.155627675,25.3042123875,84.0,80.0
46,25.297136925,25.48463668125,86.0,81.0
47,25.438646175,25.7004382875,84.0,94.0
48,25.721664675,26.004683175,83.0,79.0
49,26.004683175,26.287701675,81.0,81.0
50,26.287701675,26.570720174999998,79.0,81.0
51,26.570720174999998,26.853738675,76.0,79.0
52,26.853738675,27.136757175,79.0,79.0
53,27.136757175,27.3136437375,69.0,89.0
54,27.419775675,27.51765290625,74.0,92.0
55,27.561284925,27.6910017375,72.0,81.0
56,27.702794175,27.844303425,74.0,95.0
57,27.985812675,28.1108125125,74.0,81.0
58,28.127321925,28.2523217625,76.0,81.0
59,28.268831175,28.410340425,79.0,79.0
60,28.551849675,28.693358925,81.0,79.0
61,28.834868175,28.976377425,86.0,79.0
62,29.09548104375,29.2004337375,84.0,89.0
63,29.20868844375,29.28887701875,86.0,80.0
64,29.28416004375,29.3773203,84.0,87.0
65,29.400905175,29.54359366875,69.0,79.0
66,29.683923675,29.88085738125,69.0,79.0
67,30.249960675,30.4079793375,64.0,82.0
68,29.38793349375,31.08604449375,81.0,78.0
69,30.49642261875,31.13321424375,69.0,80.0
70,33.080145675,33.20396626875,69.0,71.0
71,33.363164175,33.68038074375,72.0,78.0
72,33.646182675,33.8490126,69.0,70.0
73,35.344293675,35.636746125,64.0,81.0
74,35.627312175,35.95278345,72.0,75.0
75,35.910330675,36.2145755625,69.0,76.0
76,39.023534175,39.45395814375,62.0,70.0
77,39.589571175,39.92801413125,64.0,79.0
78,39.872589675,40.12848556875,67.0,73.0
79,40.155608175,40.44452289375,72.0,79.0
80,40.438626675,40.7806073625,71.0,69.0
81,40.721645175,41.853719175,69.0,78.0
82,44.400885675,44.712206025,69.0,66.0
83,44.683904175,45.0022999875,74.0,80.0
84,44.966922675,45.146167725,77.0,67.0
85,45.249941175,45.82069515,79.0,70.0
86,47.797107675,47.93272070625,76.0,73.0
87,47.797107675,47.93743768125,81.0,72.0
88,48.080126175,48.24168256875,81.0,79.0
89,48.080126175,48.27470139375,76.0,78.0
90,48.646163175,48.95158730625,74.0,79.0
91,48.929181675,49.136728575,76.0,79.0
92,49.212200175,49.363143375,79.0,79.0
93,49.495218675,49.70866179375,80.0,76.0
94,49.778237175,50.27705728125,81.0,74.0
95,51.476348175,51.84073449375,76.0,70.0
96,51.476348175,51.85016844375,81.0,73.0
97,53.457477675,53.712194325,76.0,79.0
98,53.740496175,54.05535425625,84.0,78.0
99,54.023514675,54.31007090625,83.0,79.0
100,54.306533175,55.42091851875,81.0,75.0
101,57.985773675,58.12374519375,74.0,87.0
102,58.268792175,58.4150184,76.0,80.0
103,58.551810675,58.7003953875,79.0,79.0
104,58.834829175,59.61430929375,81.0,79.0
105,62.231051175,62.5400130375,69.0,78.0
106,62.514069675,62.8418994375,72.0,79.0
107,62.797088175,63.1296349125,74.0,81.0
108,63.080106675,63.41383265625,76.0,78.0
109,63.363125175,64.4503879125,74.0,85.0
110,65.910291675,66.0400084875,76.0,78.0
111,66.051800925,66.22279126875,74.0,75.0
112,66.193310175,66.476328675,76.0,84.0
113,66.476328675,66.603687,79.0,78.0
114,66.759347175,67.01996004375,86.0,79.0
115,67.042365675,67.2664219875,84.0,80.0
116,67.325384175,67.60014796875,81.0,79.0
117,67.608402675,67.81712881875,79.0,80.0
118,67.891421175,68.032930425,72.0,79.0
119,68.032930425,68.174439675,69.0,79.0
120,68.174439675,68.315948925,72.0,79.0
121,68.315948925,68.457458175,74.0,79.0
122,68.457458175,68.598967425,76.0,79.0
123,68.598967425,68.740476675,74.0,79.0
124,68.740476675,68.881985925,76.0,79.0
125,68.881985925,69.023495175,79.0,79.0
126,69.023495175,69.165004425,81.0,79.0
127,69.165004425,69.306513675,84.0,79.0
128,69.306513675,69.448022925,86.0,79.0
129,69.448022925,69.589532175,84.0,79.0
130,69.589532175,70.014059925,81.0,79.0
131,70.155569175,71.84306698125,76.0,73.0
132,70.155569175,71.9079253875,81.0,69.0
133,71.853680175,72.40202851875,88.0,80.0
134,72.419717175,73.44447999375,86.0,79.0
135,73.551791175,74.117828175,81.0,78.0
136,74.117828175,74.683865175,84.0,79.0
137,74.683865175,76.948013175,81.0,79.0
138,76.948013175,78.080087175,74.0,79.0
139,78.363105675,78.48220929375,76.0,80.0
140,78.504614925,78.65909585625,74.0,79.0
141,78.646124175,78.95390679375,76.0,79.0
142,78.929142675,79.1956517625,79.0,76.0
143,79.212161175,80.910272175,81.0,79.0
144,80.910272175,81.476309175,81.0,79.0
145,81.476309175,82.608383175,84.0,79.0
146,82.608383175,83.174420175,83.0,79.0
147,83.174420175,83.740457175,88.0,79.0
148,83.740457175,85.438568175,86.0,79.0
149,86.004605175,86.21804829375,76.0,80.0
150,86.287623675,86.4550762875,79.0,79.0
151,86.570642175,86.74634949375,81.0,77.0
152,86.853660675,87.04705665,83.0,79.0
153,87.136679175,87.5281881,81.0,79.0
154,87.702716175,87.84304618125,72.0,81.0
155,87.844225425,87.9550743375,74.0,80.0
156,87.985734675,88.1107345125,76.0,79.0
157,88.127243925,88.24163056875,79.0,79.0
158,88.268753175,90.532901175,81.0,79.0
159,90.532901175,91.664975175,74.0,79.0
160,91.664975175,92.231012175,76.0,79.0
161,92.231012175,92.797049175,72.0,79.0
162,92.797049175,95.061197175,69.0,79.0
163,95.061197175,96.193271175,67.0,79.0
164,96.193271175,96.5352518625,72.0,77.0
165,96.476289675,96.81944960625,74.0,79.0
166,96.759308175,97.07652474375,76.0,74.0
167,97.042326675,97.36661870625,79.0,75.0
168,97.325345175,99.06708819375,76.0,78.0
169,99.02345617499999,99.589493175,69.0,70.0
170,99.589493175,100.721567175,72.0,79.0
171,101.004585675,101.164962825,71.0,82.0
172,101.287604175,101.43736813125,72.0,80.0
173,101.570622675,101.71566965625,76.0,82.0
174,101.85364117499999,102.278168925,74.0,85.0
175,102.702696675,102.89019643125,74.0,85.0
176,102.985715175,103.2097714875,76.0,84.0
177,104.117789175,104.268732375,72.0,73.0
178,104.117789175,104.26991161875,69.0,78.0
179,104.400807675,104.55528860625,72.0,77.0
180,104.400807675,104.57179801875,69.0,78.0
181,104.966844675,105.12368409375,64.0,78.0
182,105.249863175,105.44325915,72.0,73.0
183,105.249863175,105.44443839375,69.0,77.0
184,114.589473675,114.730982925,67.0,79.0
185,114.730982925,114.872492175,69.0,79.0
186,114.872492175,115.014001425,72.0,79.0
187,115.014001425,115.155510675,74.0,79.0
188,115.155510675,115.297019925,76.0,79.0
189,115.297019925,115.438529175,79.0,79.0
190,115.438529175,115.721547675,81.0,79.0
191,121.664936175,121.80644542499999,69.0,79.0
192,121.80644542499999,121.947954675,71.0,79.0
193,121.947954675,122.089463925,72.0,79.0
194,122.089463925,122.230973175,74.0,79.0
195,122.230973175,122.513991675,76.0,79.0
196,122.513991675,122.6602179,74.0,81.0
197,122.797010175,122.97153825,76.0,79.0
198,123.080028675,123.23568885,79.0,81.0
199,123.363047175,123.93026341875,81.0,78.0
200,124.495121175,124.99394128125,81.0,74.0
201,126.193232175,126.55761849375,76.0,70.0
202,126.193232175,126.56705244375,81.0,73.0
203,128.174361675,128.429078325,76.0,79.0
204,128.457380175,128.77223825625,84.0,78.0
205,128.740398675,129.02695490625,83.0,79.0
206,129.023417175,130.13780251875,81.0,75.0
207,132.702657675,132.84062919375,74.0,87.0
208,132.985676175,133.1319024,76.0,80.0
209,133.268694675,133.4172793875,79.0,79.0
210,133.551713175,134.33119329375,81.0,79.0
211,136.947935175,137.2568970375,69.0,78.0
212,137.230953675,137.5587834375,72.0,79.0
213,137.513972175,137.8465189125,74.0,81.0
214,137.796990675,138.13071665625,76.0,78.0
215,138.080009175,139.1672719125,74.0,85.0
216,140.627175675,140.7568924875,76.0,78.0
217,140.768684925,140.93967526875,74.0,75.0
218,140.910194175,141.193212675,76.0,84.0
219,141.193212675,141.320571,79.0,78.0
220,141.476231175,141.73684404375,86.0,79.0
221,141.759249675,141.9833059875,84.0,80.0
222,142.042268175,142.31703196875,81.0,79.0
223,142.325286675,142.53401281875,79.0,80.0
224,142.608305175,144.29580298125,76.0,73.0
225,142.608305175,144.3606613875,81.0,69.0
226,144.306416175,144.85476451875,88.0,80.0
227,144.872453175,145.89721599375,86.0,79.0
228,146.004527175,146.570564175,81.0,78.0
229,146.570564175,147.136601175,84.0,79.0
230,147.136601175,149.400749175,81.0,79.0
231,149.400749175,150.532823175,74.0,79.0
232,150.815841675,150.93494529375,76.0,80.0
233,150.957350925,151.11183185625,74.0,79.0
234,151.098860175,151.40664279375,76.0,79.0
235,151.381878675,151.6483877625,79.0,76.0
236,151.664897175,153.363008175,81.0,79.0
237,153.363008175,153.929045175,81.0,79.0
238,153.929045175,155.061119175,84.0,79.0
239,155.061119175,155.627156175,83.0,79.0
240,155.627156175,156.193193175,88.0,79.0
241,156.193193175,157.891304175,86.0,79.0
242,158.457341175,158.67078429375,76.0,80.0
243,158.740359675,158.9078122875,79.0,79.0
244,159.023378175,159.19908549375,81.0,77.0
245,159.306396675,159.49979265,83.0,79.0
246,159.589415175,159.9809241,81.0,79.0
247,160.155452175,160.29578218125,72.0,81.0
248,160.296961425,160.4078103375,74.0,80.0
249,160.438470675,160.5634705125,76.0,79.0
250,160.579979925,160.69436656875,79.0,79.0
251,160.721489175,162.985637175,81.0,79.0
252,162.985637175,164.117711175,74.0,79.0
253,164.117711175,164.683748175,76.0,79.0
254,164.683748175,165.249785175,72.0,79.0
255,165.249785175,167.513933175,69.0,79.0
256,167.513933175,168.646007175,67.0,79.0
257,168.646007175,168.9879878625,72.0,77.0
258,168.929025675,169.27218560625,74.0,79.0
259,169.212044175,169.52926074375,76.0,74.0
260,169.49506267499999,169.81935470625,79.0,75.0
261,169.778081175,171.51982419375,76.0,78.0
262,171.476192175,172.042229175,69.0,70.0
263,172.042229175,173.174303175,72.0,79.0
264,173.457321675,173.617698825,71.0,82.0
265,173.740340175,173.89010413125,72.0,80.0
266,174.023358675,174.16840565625,76.0,82.0
267,174.306377175,174.730904925,74.0,85.0
268,175.155432675,175.34293243125,74.0,85.0
269,175.438451175,175.6625074875,76.0,84.0
270,176.570525175,176.721468375,72.0,73.0
271,176.570525175,176.72264761875,69.0,78.0
272,176.853543675,177.00802460625,72.0,77.0
273,176.853543675,177.02453401875,69.0,78.0
274,177.419580675,177.57642009375,64.0,78.0
275,177.702599175,177.89599515,72.0,73.0
276,177.702599175,177.89717439375,69.0,77.0
277,177.985617675,178.1153344875,67.0,73.0
278,177.985617675,178.1342023875,71.0,78.0
279,178.268636175,178.43019256875,69.0,74.0
280,178.268636175,178.4408057625,72.0,78.0
281,178.551654675,178.702597875,76.0,82.0
282,178.551654675,178.72028653125,72.0,78.0
283,178.834673175,178.9832578875,74.0,79.0
284,178.834673175,178.99151259375,77.0,73.0
285,179.117691675,179.30754991875,74.0,78.0
286,179.117691675,179.3205216,77.0,71.0
287,179.542219425,179.6389174125,72.0,79.0
288,179.683728675,179.84528506875,74.0,79.0
289,179.966747175,180.108256425,76.0,79.0
290,180.108256425,180.249765675,72.0,79.0
291,180.249765675,180.391274925,74.0,79.0
292,180.391274925,180.532784175,76.0,79.0
293,180.532784175,180.674293425,79.0,79.0
294,180.674293425,180.815802675,74.0,79.0
295,180.815802675,180.957311925,76.0,79.0
296,180.957311925,181.098821175,79.0,79.0
297,181.098821175,182.78631898125,76.0,73.0
298,181.098821175,182.8511773875,81.0,69.0
299,182.796932175,183.34528051875,88.0,80.0
300,183.362969175,184.38773199375,86.0,79.0
301,184.495043175,185.061080175,81.0,78.0
302,185.061080175,185.627117175,84.0,79.0
303,185.627117175,187.891265175,81.0,79.0
304,187.891265175,189.023339175,74.0,79.0
305,189.306357675,189.42546129375,76.0,80.0
306,189.447866925,189.60234785625,74.0,79.0
307,189.589376175,189.89715879375,76.0,79.0
308,189.872394675,190.1389037625,79.0,76.0
309,190.155413175,191.853524175,81.0,79.0
310,191.853524175,192.419561175,81.0,79.0
311,192.419561175,193.551635175,84.0,79.0
312,193.551635175,194.117672175,83.0,79.0
313,194.117672175,194.683709175,88.0,79.0
314,194.683709175,196.381820175,86.0,79.0
315,196.947857175,197.16130029375,76.0,80.0
316,197.230875675,197.3983282875,79.0,79.0
317,197.513894175,197.68960149375,81.0,77.0
318,197.796912675,197.99030865,83.0,79.0
319,198.079931175,198.4714401,81.0,79.0
320,198.645968175,198.78629818125,72.0,81.0
321,198.787477425,198.8983263375,74.0,80.0
322,198.928986675,199.0539865125,76.0,79.0
323,199.070495925,199.18488256875,79.0,79.0
324,199.212005175,201.476153175,81.0,79.0
325,201.476153175,202.608227175,74.0,79.0
326,202.608227175,203.174264175,76.0,79.0
327,203.174264175,203.740301175,72.0,79.0
328,203.740301175,206.004449175,69.0,79.0
329,206.004449175,207.136523175,67.0,79.0
330,207.136523175,207.4785038625,72.0,77.0
331,207.419541675,207.76270160625,74.0,79.0
332,207.702560175,208.01977674375,76.0,74.0
333,207.985578675,208.30987070625,79.0,75.0
334,208.268597175,210.01034019375,76.0,78.0
335,209.966708175,210.532745175,69.0,70.0
336,210.532745175,211.664819175,72.0,79.0
337,211.947837675,212.108214825,71.0,82.0
338,212.23085617499999,212.38062013125,72.0,80.0
339,212.513874675,212.65892165625,76.0,82.0
340,212.796893175,213.221420925,74.0,85.0
341,213.645948675,213.83344843125,74.0,85.0
342,213.928967175,214.1530234875,76.0,84.0
343,215.06104117499999,215.211984375,72.0,73.0
344,215.06104117499999,215.21316361875,69.0,78.0
345,215.344059675,215.49854060625,72.0,77.0
346,215.344059675,215.51505001875,69.0,78.0
347,215.910096675,216.06693609375,64.0,78.0
348,216.193115175,216.38651115,72.0,73.0
349,216.193115175,216.38769039375,69.0,77.0
350,216.476133675,216.59759578125,67.0,72.0
351,216.476133675,216.6058504875,71.0,78.0
352,216.759152175,216.91599159375,69.0,70.0
353,216.759152175,216.92306705625,72.0,74.0
354,217.042170675,217.19901009375,72.0,74.0
355,217.042170675,217.21080253125,76.0,75.0
356,217.325189175,217.749716925,74.0,85.0
357,218.174244675,218.36174443125,74.0,85.0
358,218.457263175,218.6813194875,76.0,84.0
359,218.740281675,220.155374175,76.0,84.0
360,220.438392675,220.565751,76.0,85.0
361,220.579901925,220.73202436875,79.0,78.0
362,220.721411175,221.29570288125,81.0,84.0
363,221.287448175,221.57164591875,76.0,83.0
364,221.570466675,221.8558436625,84.0,78.0
365,221.853485175,222.8133895875,81.0,83.0
366,222.985559175,223.2615022125,86.0,87.0
367,223.268577675,223.41716238749999,84.0,80.0
368,223.410086925,223.59758668125,86.0,81.0
369,223.551596175,223.8133882875,84.0,94.0
370,223.834614675,224.117633175,83.0,79.0
371,224.117633175,224.400651675,81.0,81.0
372,224.400651675,224.683670175,79.0,81.0
373,224.683670175,224.966688675,76.0,79.0
374,224.966688675,225.249707175,79.0,79.0
375,225.249707175,225.4265937375,69.0,89.0
376,225.532725675,225.63060290625,74.0,92.0
377,225.674234925,225.8039517375,72.0,81.0
378,225.815744175,225.957253425,74.0,95.0
379,226.098762675,226.2237625125,74.0,81.0
380,226.240271925,226.3652717625,76.0,81.0
381,226.381781175,226.523290425,79.0,79.0
382,226.664799675,226.806308925,81.0,79.0
383,226.947818175,227.089327425,86.0,79.0
384,227.20843104375,227.3133837375,84.0,89.0
385,227.32163844375,227.40182701875,86.0,80.0
386,227.39711004375,227.4902703,84.0,87.0
387,227.513855175,227.65654366875,69.0,79.0
388,227.796873675,227.99380738125,69.0,79.0
389,228.362910675,228.5209293375,64.0,82.0
390,227.50088349375,229.19899449375,81.0,78.0
391,228.60937261875,229.24616424375,69.0,80.0
