,start,end,pitch,velocity
0,31.665053175,31.95632638125,64.0,84.0
1,31.948071675,32.1060903375,69.0,80.0
2,32.231090175,32.4079767375,69.0,78.0
3,32.514108675,32.7004291875,72.0,79.0
4,32.797127175,33.57542805,69.0,66.0
5,33.929201175,34.15443673125,74.0,87.0
6,34.212219675,34.69924734375,76.0,79.0
7,34.778256675,34.891464075,74.0,82.0
8,34.919765925,35.00820920625,72.0,72.0
9,35.061275175,35.6957083125,69.0,80.0
10,36.193349175,36.43509414375,69.0,85.0
11,36.476367675,36.6532542375,72.0,85.0
12,36.759386175,37.014102825,72.0,71.0
13,37.042404675,37.17801770625,74.0,87.0
14,37.325423175,37.5023097375,81.0,82.0
15,37.608441675,37.768818825,79.0,79.0
16,37.891460175,38.08367690625,81.0,79.0
17,38.174478675,38.2947615375,79.0,80.0
18,38.457497175,40.04593850625,76.0,81.0
19,40.721645175,40.89263551875,81.0,82.0
20,41.004663675,41.1626823375,81.0,81.0
21,41.287682175,41.4645687375,81.0,82.0
22,41.570700675,41.75584194375,84.0,83.0
23,41.853719175,42.29121860625,81.0,84.0
24,42.419756175,42.61197290625,79.0,82.0
25,42.702774675,42.93980266875,76.0,87.0
26,42.985793175,43.26291545625,69.0,79.0
27,43.268811675,43.5282453,76.0,79.0
28,43.551830175,43.751122368749996,74.0,83.0
29,43.834848674999996,44.03414086875,72.0,79.0
30,44.117867175,44.90442275625,74.0,84.0
31,45.249941175,45.4504126125,74.0,89.0
32,45.532959675,45.71574245625,76.0,82.0
33,45.815978175,46.18508146875,79.0,79.0
34,46.382015175,46.60253375625,67.0,78.0
35,46.665033675,46.8655051125,69.0,80.0
36,46.948052175,47.14144815,74.0,80.0
37,47.231070675,47.4362590875,71.0,78.0
38,47.514089175,48.58838023125,69.0,80.0
39,49.778237175,49.93979356875,69.0,82.0
40,50.061255675,50.45158535625,69.0,78.0
41,50.627292675,50.91384890625,72.0,79.0
42,50.910311175,51.61431969375,69.0,78.0
43,52.042385175,52.2239887125,74.0,79.0
44,52.325403675,52.56950713125,76.0,74.0
45,52.608422175,52.83365773125,74.0,82.0
46,52.891440675,53.13082715625,67.0,78.0
47,53.174459175,53.8183262625,69.0,79.0
48,54.306533175,54.551815875,69.0,79.0
49,54.589551675,54.76997596875,72.0,75.0
50,54.872570175,55.04827749375,72.0,74.0
51,55.155588675,55.31714506875,74.0,82.0
52,55.438607175,55.65676726875,81.0,74.0
53,55.721625675,55.8796443375,79.0,70.0
54,56.004644175,56.22044578125,79.0,74.0
55,56.287662675,56.50110579375,74.0,79.0
56,56.570681175,58.23695259375,76.0,79.0
57,58.834829175,59.0117157375,81.0,77.0
58,59.117847675,59.6036961,81.0,79.0
59,59.683884675,59.90440325625,84.0,80.0
60,59.966903175,60.40911958125,81.0,82.0
61,60.532940175,60.7711474125,79.0,70.0
62,60.815958675,60.98459053125,76.0,80.0
63,61.098977175,61.28647693125,69.0,78.0
64,61.381995675,61.6060519875,76.0,69.0
65,61.665014175,61.89260821875,74.0,82.0
66,61.948032675,62.1815229375,72.0,79.0
67,62.231051175,63.16383298125,74.0,82.0
68,63.363125175,63.51878535,74.0,82.0
69,63.646143675,63.78175670625,74.0,82.0
70,63.929162175,64.1060487375,74.0,79.0
71,64.212180675,64.36784085,76.0,82.0
72,64.495199175,64.66618951875,83.0,78.0
73,64.778217675,64.9810476,83.0,78.0
74,65.061236175,65.24873593125,81.0,73.0
75,65.344254675,65.52703745625,79.0,74.0
76,65.627273175,69.25580619375,81.0,77.0
77,69.872550675,70.0753806,76.0,87.0
78,70.155569175,70.71570995625,81.0,79.0
79,70.721606175,70.98693601875,76.0,80.0
80,71.004624675,71.25462435,84.0,80.0
81,71.287643175,72.1767929625,81.0,78.0
82,72.419717175,72.66971685,79.0,78.0
83,72.702735675,72.8749052625,81.0,73.0
84,72.985754175,73.22514065625,83.0,80.0
85,73.268772675,73.4928289875,79.0,78.0
86,73.551791175,74.30768641875,81.0,78.0
87,74.683865175,75.1484872125,74.0,81.0
88,75.249902175,75.5069773125,72.0,79.0
89,75.532920675,75.73221286875,69.0,78.0
90,75.815939175,76.098957675,74.0,81.0
91,76.098957675,76.2829197,76.0,78.0
92,76.381976175,76.76994736875,76.0,79.0
93,76.948013175,77.174427975,74.0,82.0
94,77.231031675,77.3984842875,81.0,78.0
95,77.514050175,77.6909367375,81.0,78.0
96,77.797068675,77.95390809375,79.0,71.0
97,78.080087175,78.825369225,79.0,79.0
98,79.212161175,79.43267975625,76.0,82.0
99,79.495179675,79.95390549375,81.0,78.0
100,80.061216675,80.28881071875,79.0,74.0
101,80.344235175,80.54824434375,74.0,85.0
102,80.627253675,80.8277251125,76.0,78.0
103,80.910272175,81.30767731875,76.0,78.0
104,81.476309175,81.6437617875,69.0,76.0
105,81.759327675,81.98456323125,69.0,76.0
106,82.042346175,82.24399685624999,72.0,79.0
107,82.325364675,82.48692106875,76.0,76.0
108,82.608383175,83.438570775,76.0,80.0
109,83.740457175,83.89611735,74.0,82.0
110,84.023475675,84.174418875,74.0,80.0
111,84.306494175,84.51522031875,74.0,82.0
112,84.589512675,84.77229545625,76.0,80.0
113,84.872531175,85.0447007625,79.0,78.0
114,85.155549675,85.31710606875,79.0,74.0
115,85.438568175,85.60012456875,79.0,77.0
116,85.721586675,85.88314306875,81.0,77.0
117,86.004605175,86.155548375,83.0,79.0
118,86.287623675,86.46097250625,83.0,79.0
119,86.570642175,86.73691554375,81.0,72.0
120,86.853660675,87.02465101875,79.0,76.0
121,87.136679175,87.96332904375,81.0,78.0
122,87.985734675,88.1885646,76.0,87.0
123,88.268753175,88.82889395625,81.0,79.0
124,88.834790175,89.10012001875,76.0,80.0
125,89.117808675,89.36780835,84.0,80.0
126,89.400827175,90.2899769625,81.0,78.0
127,90.532901175,90.78290085,79.0,78.0
128,90.815919675,90.9880892625,81.0,73.0
129,91.098938175,91.33832465625,83.0,80.0
130,91.381956675,91.6060129875,79.0,78.0
131,91.664975175,92.42087041875,81.0,78.0
132,92.797049175,93.2616712125,74.0,81.0
133,93.363086175,93.6201613125,72.0,79.0
134,93.646104675,93.84539686875,69.0,78.0
135,93.929123175,94.212141675,74.0,81.0
136,94.495160175,94.88313136875,76.0,79.0
137,95.061197175,95.287611975,74.0,82.0
138,95.344215675,95.5116682875,81.0,78.0
139,95.627234175,95.8041207375,81.0,78.0
140,95.910252675,96.06709209375,79.0,71.0
141,96.193271175,96.938553225,79.0,79.0
142,97.325345175,97.54586375625,76.0,82.0
143,97.608363675,98.06708949375,81.0,78.0
144,98.174400675,98.40199471875,79.0,74.0
145,98.457419175,98.66142834375,81.0,85.0
146,98.740437675,98.9409091125,79.0,78.0
147,99.02345617499999,99.42086131875,76.0,78.0
148,99.589493175,99.7569457875,69.0,76.0
149,99.872511675,100.09774723125,69.0,76.0
150,100.155530175,100.35718085625,72.0,79.0
151,100.43854867499999,100.60010506875,79.0,76.0
152,100.721567175,101.551754775,76.0,80.0
153,101.85364117499999,102.00930135,74.0,82.0
154,102.136659675,102.287602875,74.0,80.0
155,102.419678175,102.62840431875,74.0,82.0
156,102.702696675,102.88547945625,76.0,80.0
157,102.985715175,103.1578847625,83.0,78.0
158,103.268733675,103.43029006875,83.0,74.0
159,103.551752175,103.71330856875,81.0,77.0
160,103.834770675,103.99632706875,79.0,77.0
161,104.117789175,106.240427925,81.0,79.0
162,106.381937175,106.46330499375,69.0,76.0
163,106.664955675,106.7805215625,69.0,70.0
164,106.947974175,107.05764384375,69.0,77.0
165,107.230992675,107.3512755375,69.0,79.0
166,107.372501925,107.46566218125,67.0,76.0
167,107.514011175,107.61896386875,69.0,65.0
168,107.797029675,107.8866522,67.0,78.0
169,108.080048175,108.19443481875,69.0,78.0
170,108.646085175,108.75575484375,74.0,73.0
171,108.929103675,109.0187262,74.0,75.0
172,109.070612925,109.12839586875,74.0,75.0
173,109.212122175,109.31943335625,74.0,79.0
174,109.495140675,109.61896126875,74.0,77.0
175,109.778159175,109.92556464375,74.0,74.0
176,110.061177675,110.202686925,72.0,76.0
177,110.344196175,110.57886568125,69.0,75.0
178,110.910233175,111.0564594,74.0,74.0
179,111.193251675,111.34891185,74.0,78.0
180,111.476270175,111.88546775625,76.0,75.0
181,112.042307175,112.193250375,74.0,79.0
182,112.325325675,112.485702825,72.0,71.0
183,112.608344175,112.96329654375,76.0,73.0
184,113.174381175,113.3371168125,74.0,78.0
185,113.457399675,113.65079565,72.0,69.0
186,113.740418175,113.89254061875,69.0,74.0
187,114.023436675,114.17909685,67.0,67.0
188,114.306455175,114.48098325,67.0,70.0
189,114.589473675,114.76046401875,69.0,73.0
190,114.872492175,115.1484352125,69.0,76.0
191,115.438529175,115.580038425,69.0,79.0
192,115.580038425,115.721547675,67.0,79.0
193,115.721547675,115.863056925,69.0,79.0
194,115.863056925,116.004566175,67.0,79.0
195,116.004566175,116.146075425,69.0,79.0
196,116.287584675,116.429093925,72.0,79.0
197,116.570603175,116.712112425,74.0,79.0
198,116.712112425,116.853621675,72.0,79.0
199,116.853621675,116.995130925,74.0,79.0
200,116.995130925,117.136640175,72.0,79.0
201,117.136640175,117.278149425,74.0,79.0
202,117.419658675,117.561167925,76.0,79.0
203,117.702677175,117.844186425,74.0,79.0
204,117.844186425,117.985695675,72.0,79.0
205,117.985695675,118.127204925,74.0,79.0
206,118.127204925,118.268714175,72.0,79.0
207,118.268714175,118.410223425,74.0,79.0
208,118.551732675,118.693241925,76.0,79.0
209,118.834751175,118.976260425,74.0,79.0
210,119.117769675,119.259278925,74.0,79.0
211,119.259278925,119.400788175,72.0,79.0
212,119.400788175,119.542297425,69.0,79.0
213,119.542297425,119.683806675,72.0,79.0
214,119.683806675,119.825315925,69.0,79.0
215,119.966825175,120.108334425,64.0,79.0
216,120.249843675,120.391352925,62.0,79.0
217,120.532862175,120.674371425,64.0,79.0
218,120.815880675,120.957389925,69.0,79.0
219,121.098899175,121.523426925,69.0,79.0
220,122.230973175,122.372482425,76.0,79.0
221,122.513991675,122.655500925,74.0,79.0
222,122.797010175,122.938519425,76.0,79.0
223,123.080028675,123.22153792499999,79.0,79.0
224,123.363047175,123.646065675,81.0,79.0
225,124.495121175,124.65667756875,69.0,82.0
226,124.778139675,125.16846935625,69.0,78.0
227,125.344176675,125.63073290625,72.0,79.0
228,125.627195175,126.33120369375,69.0,78.0
229,126.759269175,126.9408727125,74.0,79.0
230,127.042287675,127.28639113125,76.0,74.0
231,127.325306175,127.55054173125,74.0,82.0
232,127.608324675,127.84771115625,67.0,78.0
233,127.891343175,128.5352102625,69.0,79.0
234,129.023417175,129.268699875,69.0,79.0
235,129.306435675,129.48685996875,72.0,75.0
236,129.589454175,129.76516149374999,72.0,74.0
237,129.872472675,130.03402906875,74.0,82.0
238,130.155491175,130.37365126875,81.0,74.0
239,130.438509675,130.5965283375,79.0,70.0
240,130.721528175,130.93732978124999,79.0,74.0
241,131.004546675,131.21798979375,74.0,79.0
242,131.287565175,132.95383659375,76.0,79.0
243,133.551713175,133.7285997375,81.0,77.0
244,133.834731675,134.3205801,81.0,79.0
245,134.400768675,134.62128725625,84.0,80.0
246,134.683787175,135.12600358125,81.0,82.0
247,135.249824175,135.4880314125,79.0,70.0
248,135.532842675,135.70147453125,76.0,80.0
249,135.815861175,136.00336093125,69.0,78.0
250,136.098879675,136.3229359875,76.0,69.0
251,136.381898175,136.60949221875,74.0,82.0
252,136.664916675,136.8984069375,72.0,79.0
253,136.947935175,137.88071698125,74.0,82.0
254,138.080009175,138.23566935,74.0,82.0
255,138.363027675,138.49864070625,74.0,82.0
256,138.646046175,138.8229327375,74.0,79.0
257,138.929064675,139.08472485,76.0,82.0
258,139.212083175,139.38307351875,83.0,78.0
259,139.495101675,139.6979316,83.0,78.0
260,139.778120175,139.96561993125,81.0,73.0
261,140.061138675,140.24392145625,79.0,74.0
262,140.344157175,142.042268175,81.0,77.0
263,142.325286675,142.5281166,76.0,87.0
264,142.608305175,143.16844595625,81.0,79.0
265,143.174342175,143.43967201875,76.0,80.0
266,143.457360675,143.70736035,84.0,80.0
267,143.740379175,144.6295289625,81.0,78.0
268,144.872453175,145.12245285,79.0,78.0
269,145.155471675,145.3276412625,81.0,73.0
270,145.438490175,145.67787665625,83.0,80.0
271,145.721508675,145.9455649875,79.0,78.0
272,146.004527175,146.76042241875,81.0,78.0
273,147.136601175,147.6012232125,74.0,81.0
274,147.702638175,147.95971331249999,72.0,79.0
275,147.985656675,148.18494886875,69.0,78.0
276,148.268675175,148.551693675,74.0,81.0
277,148.551693675,148.7356557,76.0,78.0
278,148.834712175,149.22268336875,76.0,79.0
279,149.400749175,149.627163975,74.0,82.0
280,149.683767675,149.8512202875,81.0,78.0
281,149.966786175,150.1436727375,81.0,78.0
282,150.249804675,150.40664409375,79.0,71.0
283,150.532823175,151.278105225,79.0,79.0
284,151.664897175,151.88541575625,76.0,82.0
285,151.947915675,152.40664149375,81.0,78.0
286,152.513952675,152.74154671875,79.0,74.0
287,152.796971175,153.00098034375,74.0,85.0
288,153.079989675,153.2804611125,76.0,78.0
289,153.363008175,153.76041331875,76.0,78.0
290,153.929045175,154.0964977875,69.0,76.0
291,154.212063675,154.43729923125,69.0,76.0
292,154.495082175,154.69673285625,72.0,79.0
293,154.778100675,154.93965706875,76.0,76.0
294,155.061119175,155.891306775,76.0,80.0
295,156.193193175,156.34885335,74.0,82.0
296,156.476211675,156.627154875,74.0,80.0
297,156.759230175,156.96795631875,74.0,82.0
298,157.042248675,157.22503145625,76.0,80.0
299,157.325267175,157.4974367625,79.0,78.0
300,157.608285675,157.76984206875,79.0,74.0
301,157.891304175,158.05286056875,79.0,77.0
302,158.174322675,158.33587906875,81.0,77.0
303,158.457341175,158.608284375,83.0,79.0
304,158.740359675,158.91370850625,83.0,79.0
305,159.023378175,159.18965154375,81.0,72.0
306,159.306396675,159.47738701875,79.0,76.0
307,159.589415175,160.41606504375,81.0,78.0
308,160.438470675,160.6413006,76.0,87.0
309,160.721489175,161.28162995625,81.0,79.0
310,161.287526175,161.55285601875,76.0,80.0
311,161.570544675,161.82054435,84.0,80.0
312,161.853563175,162.7427129625,81.0,78.0
313,162.985637175,163.23563685,79.0,78.0
314,163.268655675,163.4408252625,81.0,73.0
315,163.551674175,163.79106065625,83.0,80.0
316,163.834692675,164.0587489875,79.0,78.0
317,164.117711175,164.87360641875,81.0,78.0
318,165.249785175,165.7144072125,74.0,81.0
319,165.815822175,166.0728973125,72.0,79.0
320,166.098840675,166.29813286875,69.0,78.0
321,166.381859175,166.66487767499999,74.0,81.0
322,166.947896175,167.33586736875,76.0,79.0
323,167.513933175,167.740347975,74.0,82.0
324,167.796951675,167.9644042875,81.0,78.0
325,168.079970175,168.2568567375,81.0,78.0
326,168.362988675,168.51982809375,79.0,71.0
327,168.646007175,169.391289225,79.0,79.0
328,169.778081175,169.99859975625,76.0,82.0
329,170.061099675,170.51982549375,81.0,78.0
330,170.627136675,170.85473071875,79.0,74.0
331,170.910155175,171.11416434375,81.0,85.0
332,171.193173675,171.3936451125,79.0,78.0
333,171.476192175,171.87359731875,76.0,78.0
334,172.042229175,172.2096817875,69.0,76.0
335,172.32524767499999,172.55048323125,69.0,76.0
336,172.608266175,172.80991685625,72.0,79.0
337,172.891284675,173.05284106875,79.0,76.0
338,173.174303175,174.004490775,76.0,80.0
339,174.306377175,174.46203735,74.0,82.0
340,174.589395675,174.740338875,74.0,80.0
341,174.872414175,175.08114031875,74.0,82.0
342,175.155432675,175.33821545625,76.0,80.0
343,175.438451175,175.6106207625,83.0,78.0
344,175.721469675,175.88302606875,83.0,74.0
345,176.004488175,176.16604456875,81.0,77.0
346,176.287506675,176.44906306875,79.0,77.0
347,176.570525175,178.693163925,81.0,79.0
348,180.815802675,181.0186326,76.0,87.0
349,181.098821175,181.65896195625,81.0,79.0
350,181.664858175,181.93018801875,76.0,80.0
351,181.947876675,182.19787635,84.0,80.0
352,182.230895175,183.1200449625,81.0,78.0
353,183.362969175,183.61296885,79.0,78.0
354,183.645987675,183.8181572625,81.0,73.0
355,183.929006175,184.16839265625,83.0,80.0
356,184.212024675,184.4360809875,79.0,78.0
357,184.495043175,185.25093841875,81.0,78.0
358,185.627117175,186.0917392125,74.0,81.0
359,186.193154175,186.4502293125,72.0,79.0
360,186.476172675,186.67546486875,69.0,78.0
361,186.759191175,187.042209675,74.0,81.0
362,187.042209675,187.2261717,76.0,78.0
363,187.325228175,187.71319936875,76.0,79.0
364,187.891265175,188.117679975,74.0,82.0
365,188.174283675,188.3417362875,81.0,78.0
366,188.457302175,188.6341887375,81.0,78.0
367,188.740320675,188.89716009375,79.0,71.0
368,189.023339175,189.768621225,79.0,79.0
369,190.155413175,190.37593175625,76.0,82.0
370,190.438431675,190.89715749375,81.0,78.0
371,191.004468675,191.23206271875,79.0,74.0
372,191.287487175,191.49149634375,74.0,85.0
373,191.570505675,191.7709771125,76.0,78.0
374,191.853524175,192.25092931875,76.0,78.0
375,192.419561175,192.5870137875,69.0,76.0
376,192.702579675,192.92781523125,69.0,76.0
377,192.985598175,193.18724885625,72.0,79.0
378,193.268616675,193.43017306875,76.0,76.0
379,193.551635175,194.381822775,76.0,80.0
380,194.683709175,194.83936935,74.0,82.0
381,194.966727675,195.117670875,74.0,80.0
382,195.249746175,195.45847231875,74.0,82.0
383,195.532764675,195.71554745625,76.0,80.0
384,195.815783175,195.9879527625,79.0,78.0
385,196.098801675,196.26035806875,79.0,74.0
386,196.381820175,196.54337656875,79.0,77.0
387,196.664838675,196.82639506875,81.0,77.0
388,196.947857175,197.098800375,83.0,79.0
389,197.230875675,197.40422450625,83.0,79.0
390,197.513894175,197.68016754375,81.0,72.0
391,197.796912675,197.96790301875,79.0,76.0
392,198.079931175,198.90658104375,81.0,78.0
393,198.928986675,199.1318166,76.0,87.0
394,199.212005175,199.77214595625,81.0,79.0
395,199.778042175,200.04337201875,76.0,80.0
396,200.061060675,200.31106035,84.0,80.0
397,200.344079175,201.2332289625,81.0,78.0
398,201.476153175,201.72615285,79.0,78.0
399,201.759171675,201.9313412625,81.0,73.0
400,202.042190175,202.28157665625,83.0,80.0
401,202.325208675,202.5492649875,79.0,78.0
402,202.608227175,203.36412241875,81.0,78.0
403,203.740301175,204.2049232125,74.0,81.0
404,204.306338175,204.5634133125,72.0,79.0
405,204.589356675,204.78864886875,69.0,78.0
406,204.872375175,205.155393675,74.0,81.0
407,205.438412175,205.82638336875,76.0,79.0
408,206.004449175,206.230863975,74.0,82.0
409,206.287467675,206.4549202875,81.0,78.0
410,206.570486175,206.7473727375,81.0,78.0
411,206.853504675,207.01034409375,79.0,71.0
412,207.136523175,207.881805225,79.0,79.0
413,208.268597175,208.48911575625,76.0,82.0
414,208.551615675,209.01034149375,81.0,78.0
415,209.117652675,209.34524671875,79.0,74.0
416,209.400671175,209.60468034375,81.0,85.0
417,209.683689675,209.8841611125,79.0,78.0
418,209.966708175,210.36411331875,76.0,78.0
419,210.532745175,210.7001977875,69.0,76.0
420,210.815763675,211.04099923125,69.0,76.0
421,211.098782175,211.30043285625,72.0,79.0
422,211.381800675,211.54335706875,79.0,76.0
423,211.664819175,212.495006775,76.0,80.0
424,212.796893175,212.95255335,74.0,82.0
425,213.079911675,213.230854875,74.0,80.0
426,213.362930175,213.57165631875,74.0,82.0
427,213.645948675,213.82873145625,76.0,80.0
428,213.928967175,214.1011367625,83.0,78.0
429,214.211985675,214.37354206875,83.0,74.0
430,214.495004175,214.65656056875,81.0,77.0
431,214.778022675,214.93957906875,79.0,77.0
432,215.06104117499999,217.183679925,81.0,79.0
433,217.325189175,217.48084935,74.0,82.0
434,217.608207675,217.759150875,74.0,80.0
435,217.89122617499999,218.09995231875,74.0,82.0
436,218.174244675,218.35702745625,76.0,80.0
437,218.457263175,218.6294327625,86.0,78.0
438,218.740281675,220.155374175,86.0,74.0
439,220.155374175,220.438392675,86.0,79.0
440,220.438392675,220.721411175,84.0,79.0
441,220.721411175,221.853485175,81.0,79.0
