,start,end,pitch,velocity
0,9.306591675,9.51767630625,64.0,80.0
1,9.306591675,9.54597815625,60.0,77.0
2,9.306591675,9.56484605625,57.0,73.0
3,9.023573175,10.02003414375,45.0,79.0
4,9.872628675,10.2193263375,64.0,78.0
5,9.872628675,10.2287602875,57.0,68.0
6,9.872628675,10.23937348125,60.0,72.0
7,10.438665675,10.542439125,60.0,74.0
8,10.438665675,10.54597685625,64.0,78.0
9,10.438665675,10.54833534375,57.0,71.0
10,10.721684175,10.8985707375,57.0,75.0
11,10.721684175,10.9080046875,60.0,80.0
12,10.721684175,10.91154241875,64.0,80.0
13,10.155647175,10.9929102375,45.0,78.0
14,11.570739675,11.8278148125,64.0,78.0
15,11.570739675,11.8301733,57.0,67.0
16,11.570739675,11.8466827125,60.0,75.0
17,11.853758175,12.264135,52.0,65.0
18,11.287721175,12.29243685,45.0,80.0
19,12.136776675,12.5660214,64.0,80.0
20,12.136776675,12.57545535,57.0,73.0
21,12.136776675,12.596681737499999,60.0,79.0
22,12.702813675,12.80304939375,57.0,71.0
23,12.702813675,12.80304939375,64.0,78.0
24,12.702813675,12.8089456125,60.0,74.0
25,12.985832175,13.16389798125,57.0,78.0
26,12.985832175,13.17569041875,64.0,82.0
27,12.985832175,13.193379075,60.0,80.0
28,12.419795175,13.20870924375,45.0,77.0
29,13.551869175,13.92097246875,60.0,72.0
30,13.551869175,13.92804793125,57.0,70.0
31,13.834887675,14.23583055,52.0,69.0
32,14.117906175,14.2476229875,57.0,78.0
33,14.117906175,14.2947927375,60.0,81.0
34,14.117906175,14.31483988125,64.0,80.0
35,13.551869175,14.52002829375,45.0,79.0
36,14.683943175,15.0683766375,45.0,69.0
37,14.966961675,15.14974445625,64.0,83.0
38,14.966961675,15.15917840625,60.0,84.0
39,14.966961675,15.1674331125,57.0,78.0
40,15.249980175,15.32898950625,52.0,67.0
41,15.532998675,15.6579985125,64.0,79.0
42,15.532998675,15.66625321875,60.0,75.0
43,15.532998675,15.6815833875,57.0,73.0
44,15.816017175,16.1296960125,55.0,70.0
45,15.816017175,16.155639375,59.0,72.0
46,16.099035675,16.43276165625,50.0,61.0
47,16.382054175,16.49172384375,55.0,81.0
48,16.382054175,16.580167125,59.0,89.0
49,15.816017175,16.7617706625,43.0,78.0
50,16.665072675,16.7735631,55.0,77.0
51,16.948091175,17.1579965625,57.0,72.0
52,16.948091175,17.15917580625,60.0,73.0
53,17.231109675,17.57426960625,52.0,71.0
54,17.514128175,17.61200540625,57.0,78.0
55,17.514128175,17.61318465,60.0,83.0
56,16.948091175,17.61436389375,45.0,80.0
57,17.514128175,17.63559028125,64.0,84.0
58,18.080165175,18.240542325,57.0,73.0
59,18.080165175,18.25115551875,62.0,76.0
60,18.646202175,18.731107725,57.0,78.0
61,18.646202175,18.75823033125,62.0,84.0
62,18.080165175,18.76530579375,50.0,81.0
63,18.646202175,18.7759189875,65.0,82.0
64,18.929220675,19.02709790625,57.0,69.0
65,19.212239175,19.608465075,50.0,74.0
66,19.495257675,19.816011975,62.0,82.0
67,19.495257675,19.8183704625,57.0,79.0
68,20.061294675,20.1697851,62.0,75.0
69,20.061294675,20.17568131875,57.0,70.0
70,20.344313175,20.6768599125,59.0,78.0
71,20.344313175,20.71341646875,55.0,78.0
72,20.627331675,20.97285009375,50.0,64.0
73,20.910350175,21.023557575,55.0,78.0
74,20.344313175,21.03181228125,43.0,79.0
75,20.910350175,21.05068018125,59.0,79.0
76,20.910350175,21.12379329375,62.0,78.0
77,21.193368675,21.297142125,55.0,66.0
78,21.476387175,21.5872360875,60.0,71.0
79,21.476387175,21.59077381875,55.0,69.0
80,21.476387175,21.882047025,48.0,75.0
81,21.759405675,22.042424175,64.0,83.0
82,21.759405675,22.07898073125,60.0,80.0
83,21.759405675,22.0919524125,55.0,78.0
84,22.042424175,22.34077284375,48.0,71.0
85,22.325442675,22.419782175,55.0,79.0
86,22.325442675,22.44926326875,60.0,78.0
87,22.325442675,22.4551594875,64.0,80.0
88,22.608461175,22.8089326125,60.0,72.0
89,22.608461175,22.82190429375,57.0,69.0
90,22.891479675,23.19926229375,52.0,51.0
91,23.174498175,23.2664791875,60.0,87.0
92,23.174498175,23.278271625,64.0,83.0
93,23.174498175,23.2806301125,57.0,80.0
94,22.608461175,23.28888481875,45.0,81.0
95,23.457516675,23.5400637375,52.0,69.0
96,23.740535175,23.77709173125,60.0,52.0
97,23.740535175,23.79831811875,57.0,53.0
98,23.740535175,24.099025275,45.0,79.0
99,24.023553675,24.21577040625,64.0,83.0
100,24.023553675,24.22284586875,60.0,79.0
101,24.023553675,24.24407225625,57.0,78.0
102,24.589590675,24.72048673125,57.0,71.0
103,24.589590675,24.721665975,60.0,73.0
104,24.589590675,24.75822253125,45.0,76.0
105,24.872609175,25.19690120625,57.0,73.0
106,24.872609175,25.2334577625,53.0,69.0
107,25.438646175,25.5164762625,53.0,75.0
108,24.872609175,25.60020256875,41.0,78.0
109,25.438646175,25.75350425625,60.0,80.0
110,25.438646175,25.7664759375,57.0,80.0
111,25.721664675,25.85020224375,53.0,74.0
112,26.004683175,26.13086225625,52.0,72.0
113,26.004683175,26.14029620625,55.0,72.0
114,26.004683175,26.39972983125,40.0,79.0
115,26.287701675,26.56718244375,59.0,81.0
116,26.287701675,26.5919465625,55.0,79.0
117,26.287701675,26.59312580625,52.0,80.0
118,26.570720174999998,26.7004369875,47.0,71.0
119,26.853738675,26.92803103125,55.0,79.0
120,26.853738675,26.9315687625,52.0,79.0
121,26.853738675,26.93746498125,59.0,74.0
122,27.136757175,27.29123810625,50.0,81.0
123,27.136757175,27.297134325,62.0,77.0
124,27.136757175,27.306568275,57.0,73.0
125,27.136757175,27.31128525,65.0,78.0
126,27.985812675,28.117887975,57.0,72.0
127,27.985812675,28.1320389,50.0,79.0
128,27.985812675,28.14147285,65.0,76.0
129,27.985812675,28.14265209375,62.0,75.0
130,28.268831175,28.469302612499998,52.0,83.0
131,28.268831175,28.476378075,59.0,74.0
132,28.268831175,28.48109505,64.0,79.0
133,29.400905175,29.5353389625,60.0,72.0
134,29.400905175,29.54123518125,57.0,69.0
135,29.400905175,29.5447729125,64.0,78.0
136,29.400905175,29.5471314,45.0,79.0
137,29.683923675,29.7924141,60.0,78.0
138,29.683923675,29.79359334375,64.0,79.0
139,29.683923675,29.81010275625,45.0,78.0
140,29.683923675,29.81246124375,57.0,74.0
141,30.249960675,30.3891114375,55.0,69.0
142,30.249960675,30.391469925,59.0,69.0
143,30.249960675,30.39264916875,62.0,70.0
144,30.249960675,30.41151706875,43.0,75.0
145,30.532979175,31.3891101375,57.0,78.0
146,30.532979175,31.39028938125,45.0,80.0
147,30.532979175,31.39264786875,60.0,79.0
148,30.532979175,31.39736484375,64.0,81.0
149,31.948071675,32.240524125,57.0,74.0
150,31.948071675,32.2523165625,60.0,79.0
151,32.514108675,32.66976885,64.0,80.0
152,32.514108675,32.67566506875,60.0,80.0
153,32.514108675,32.68274053125,57.0,74.0
154,32.231090175,32.68509901875,52.0,69.0
155,33.080145675,33.20632475625,57.0,68.0
156,33.080145675,33.20868324375,60.0,72.0
157,33.363164175,33.4692961125,57.0,78.0
158,33.363164175,33.5117488875,60.0,83.0
159,33.363164175,33.523541325,64.0,85.0
160,31.665053175,33.55066393125,45.0,79.0
161,33.646182675,33.69924864375,60.0,60.0
162,33.646182675,33.7994843625,57.0,76.0
163,34.212219675,34.5683512875,52.0,62.0
164,34.495238175,34.59429465,57.0,78.0
165,34.495238175,34.60726633125,60.0,82.0
166,34.778256675,34.93981306875,57.0,69.0
167,34.778256675,34.9504262625,60.0,73.0
168,35.344293675,35.4598595625,57.0,71.0
169,35.344293675,35.4692935125,60.0,77.0
170,35.061275175,35.63320839375,52.0,61.0
171,35.627312175,35.71575545625,57.0,78.0
172,35.627312175,35.78651008125,60.0,81.0
173,35.627312175,35.7994817625,64.0,84.0
174,33.929201175,35.8560854625,45.0,80.0
175,35.910330675,36.00938715,57.0,78.0
176,36.193349175,36.50584876875,53.0,60.0
177,36.193349175,36.50820725625,57.0,72.0
178,36.759386175,36.8466502125,53.0,78.0
179,36.476367675,36.910329375,48.0,57.0
180,36.759386175,37.117876275,60.0,78.0
181,37.042404675,37.13556493125,53.0,73.0
182,36.193349175,37.1391026625,41.0,78.0
183,37.325423175,37.63320579375,59.0,77.0
184,37.325423175,37.65914915625,55.0,76.0
185,37.891460175,37.98226194375,55.0,79.0
186,37.891460175,38.06009203125,59.0,85.0
187,37.891460175,38.08485615,62.0,82.0
188,37.325423175,38.1060825375,43.0,79.0
189,38.174478675,38.26292195625,55.0,69.0
190,38.457497175,38.5872139875,55.0,72.0
191,38.457497175,38.7098553375,60.0,74.0
192,38.740515675,38.8089118125,55.0,68.0
193,39.023534175,39.05537375625,64.0,70.0
194,39.023534175,39.09075106875,55.0,70.0
195,38.457497175,39.39027898125,48.0,79.0
196,39.306552675,39.47282604375,55.0,80.0
197,39.306552675,39.5117410875,60.0,82.0
198,39.306552675,39.52707125625,64.0,85.0
199,39.872589675,39.97164615,55.0,78.0
200,40.155608175,40.26056086875,60.0,84.0
201,40.155608175,40.27942876875,55.0,80.0
202,39.589571175,40.306551375,48.0,70.0
203,40.438626675,40.58603214375,59.0,80.0
204,40.721645175,41.01055989375,57.0,73.0
205,40.721645175,41.0188146,60.0,75.0
206,41.287682175,41.35254058125,64.0,72.0
207,41.287682175,41.3560783125,57.0,65.0
208,41.287682175,41.36787075,60.0,70.0
209,41.570700675,41.66150244375,57.0,76.0
210,41.570700675,41.67329488125,60.0,80.0
211,41.570700675,41.68272883125,64.0,80.0
212,40.721645175,41.72636085,45.0,79.0
213,42.136737675,42.23579415,57.0,67.0
214,42.419756175,42.51999189375,57.0,78.0
215,42.419756175,42.54593525625,60.0,78.0
216,42.702774675,42.8230575375,57.0,74.0
217,42.985793175,43.10489679375,57.0,70.0
218,42.985793175,43.1131515,62.0,69.0
219,43.268811675,43.3749436125,57.0,68.0
220,43.268811675,43.37848134375,62.0,71.0
221,42.985793175,43.4268303375,50.0,73.0
222,43.834848674999996,44.0824898625,50.0,78.0
223,43.834848674999996,44.1390935625,57.0,76.0
224,43.834848674999996,44.382017775,65.0,78.0
225,43.834848674999996,44.4881497125,62.0,79.0
226,44.400885675,44.5306024875,57.0,67.0
227,44.683904175,44.77470594375,57.0,78.0
228,44.683904175,44.793573843749996,50.0,80.0
229,44.683904175,45.00112074375,62.0,78.0
230,44.966922675,45.0872055375,57.0,68.0
231,45.249941175,45.448054125,55.0,69.0
232,45.249941175,45.504657825,59.0,71.0
233,45.532959675,45.82187439375,50.0,61.0
234,45.815978175,45.88791204375,55.0,75.0
235,45.249941175,45.90442145625,43.0,76.0
236,45.815978175,45.97989305625,59.0,80.0
237,45.815978175,46.06715709375,62.0,79.0
238,46.382015175,46.6673921625,64.0,72.0
239,46.382015175,46.7004109875,59.0,71.0
240,46.665033675,46.924467299999996,47.0,68.0
241,46.382015175,46.97281629375,40.0,80.0
242,46.948052175,47.03177848125,59.0,78.0
243,46.948052175,47.14734436875,64.0,81.0
244,47.231070675,47.3089007625,59.0,65.0
245,47.514089175,47.627296575,57.0,66.0
246,47.514089175,47.63083430625,64.0,74.0
247,47.514089175,47.632013549999996,60.0,70.0
248,47.514089175,47.67800405625,45.0,78.0
249,47.797107675,47.919749025,60.0,74.0
250,47.797107675,47.92328675625,64.0,78.0
251,47.797107675,47.9268244875,57.0,73.0
252,47.797107675,47.948050875,45.0,78.0
253,48.080126175,48.22281466875,64.0,83.0
254,48.080126175,48.22517315625,60.0,85.0
255,48.080126175,48.240503325,45.0,80.0
256,48.080126175,48.2452203,57.0,78.0
257,48.646163175,48.86668175625,38.0,80.0
258,48.646163175,48.8985213375,50.0,78.0
259,48.929181675,49.1013512625,52.0,80.0
260,48.929181675,49.17564361875,40.0,79.0
261,49.212200175,49.44686968125,43.0,79.0
262,49.212200175,49.51880355,55.0,79.0
263,49.495218675,49.73460515625,44.0,94.0
264,49.495218675,49.7664447375,56.0,66.0
265,50.061255675,50.353708125,57.0,74.0
266,50.061255675,50.3655005625,60.0,79.0
267,50.627292675,50.78295285,64.0,80.0
268,50.627292675,50.78884906875,60.0,80.0
269,50.627292675,50.79592453125,57.0,74.0
270,50.344274175,50.79828301875,52.0,69.0
271,51.193329675,51.31950875625,57.0,68.0
272,51.193329675,51.32186724375,60.0,72.0
273,51.476348175,51.5824801125,57.0,78.0
274,51.476348175,51.6249328875,60.0,83.0
275,51.476348175,51.636725325,64.0,85.0
276,49.778237175,51.66384793125,45.0,79.0
277,51.759366675,51.81243264375,60.0,60.0
278,51.759366675,51.9126683625,57.0,76.0
279,52.325403675,52.6815352875,52.0,62.0
280,52.608422175,52.70747865,57.0,78.0
281,52.608422175,52.72045033125,60.0,82.0
282,52.891440675,53.05299706875,57.0,69.0
283,52.891440675,53.0636102625,60.0,73.0
284,53.457477675,53.5730435625,57.0,71.0
285,53.457477675,53.5824775125,60.0,77.0
286,53.174459175,53.74639239375,52.0,61.0
287,53.740496175,53.82893945625,57.0,78.0
288,53.740496175,53.89969408125,60.0,81.0
289,53.740496175,53.9126657625,64.0,84.0
290,52.042385175,53.9692694625,45.0,80.0
291,54.023514675,54.12257115,57.0,78.0
292,54.306533175,54.61903276875,53.0,60.0
293,54.306533175,54.62139125625,57.0,72.0
294,54.872570175,54.9598342125,53.0,78.0
295,54.589551675,55.023513375,48.0,57.0
296,54.872570175,55.231060275,60.0,78.0
297,55.155588675,55.24874893125,53.0,73.0
298,54.306533175,55.2522866625,41.0,78.0
299,55.438607175,55.74638979375,59.0,77.0
300,55.438607175,55.77233315625,55.0,76.0
301,56.004644175,56.09544594375,55.0,79.0
302,56.004644175,56.17327603125,59.0,85.0
303,56.004644175,56.19804015,62.0,82.0
304,55.438607175,56.2192665375,43.0,79.0
305,56.287662675,56.37610595625,55.0,69.0
306,56.570681175,56.7003979875,55.0,72.0
307,56.570681175,56.8230393375,60.0,74.0
308,56.853699675,56.9220958125,55.0,68.0
309,57.136718175,57.16855775625,64.0,70.0
310,57.136718175,57.20393506875,55.0,70.0
311,56.570681175,57.50346298125,48.0,79.0
312,57.419736675,57.58601004375,55.0,80.0
313,57.419736675,57.6249250875,60.0,82.0
314,57.419736675,57.64025525625,64.0,85.0
315,57.985773675,58.08483015,55.0,78.0
316,58.268792175,58.37374486875,60.0,84.0
317,58.268792175,58.39261276875,55.0,80.0
318,57.702755175,58.419735375,48.0,70.0
319,58.551810675,58.69921614375,59.0,80.0
320,58.834829175,59.12374389375,57.0,73.0
321,58.834829175,59.1319986,60.0,75.0
322,59.400866175,59.46572458125,64.0,72.0
323,59.400866175,59.4692623125,57.0,65.0
324,59.400866175,59.48105475,60.0,70.0
325,59.683884675,59.77468644375,57.0,76.0
326,59.683884675,59.78647888125,60.0,80.0
327,59.683884675,59.79591283125,64.0,80.0
328,58.834829175,59.83954485,45.0,79.0
329,60.249921675,60.34897815,57.0,67.0
330,60.532940175,60.63317589375,57.0,78.0
331,60.532940175,60.65911925625,60.0,78.0
332,60.815958675,60.9362415375,57.0,74.0
333,61.098977175,61.21808079375,57.0,70.0
334,61.098977175,61.2263355,62.0,69.0
335,61.381995675,61.4881276125,57.0,68.0
336,61.381995675,61.49166534375,62.0,71.0
337,61.098977175,61.5400143375,50.0,73.0
338,61.948032675,62.1956738625,50.0,78.0
339,61.948032675,62.2522775625,57.0,76.0
340,61.948032675,62.495201775,65.0,78.0
341,61.948032675,62.6013337125,62.0,79.0
342,62.514069675,62.6437864875,57.0,67.0
343,62.797088175,62.88788994375,57.0,78.0
344,62.797088175,62.90675784375,50.0,80.0
345,62.797088175,63.11430474375,62.0,78.0
346,63.080106675,63.2003895375,57.0,68.0
347,63.363125175,63.561238125,55.0,69.0
348,63.363125175,63.617841825,59.0,71.0
349,63.646143675,63.93505839375,50.0,61.0
350,63.929162175,64.00109604375,55.0,75.0
351,63.363125175,64.01760545625,43.0,76.0
352,63.929162175,64.09307705625,59.0,80.0
353,63.929162175,64.18034109375,62.0,79.0
354,64.495199175,64.7805761625,64.0,72.0
355,64.495199175,64.8135949875,59.0,71.0
356,64.778217675,65.0376513,47.0,68.0
357,64.495199175,65.08600029375,40.0,80.0
358,65.061236175,65.14496248125,59.0,78.0
359,65.061236175,65.26052836875,64.0,81.0
360,65.344254675,65.4220847625,59.0,65.0
361,65.627273175,65.740480575,57.0,66.0
362,65.627273175,65.74401830625,64.0,74.0
363,65.627273175,65.74519755,60.0,70.0
364,65.627273175,65.79118805625,45.0,78.0
365,65.910291675,66.032933025,60.0,74.0
366,65.910291675,66.03647075625,64.0,78.0
367,65.910291675,66.0400084875,57.0,73.0
368,65.910291675,66.061234875,45.0,78.0
369,66.193310175,66.33599866875,64.0,83.0
370,66.193310175,66.33835715625,60.0,85.0
371,66.193310175,66.353687325,45.0,80.0
372,66.193310175,66.3584043,57.0,78.0
373,66.759347175,66.97986575625,38.0,80.0
374,66.759347175,67.0117053375,50.0,78.0
375,67.042365675,67.2145352625,52.0,80.0
376,67.042365675,67.28882761875,40.0,79.0
377,67.325384175,67.56005368125,43.0,79.0
378,67.325384175,67.63198755,55.0,79.0
379,67.608402675,67.84778915625,44.0,94.0
380,67.608402675,67.8796287375,56.0,66.0
381,67.891421175,68.0918926125,60.0,76.0
382,67.891421175,68.09543034375,64.0,79.0
383,67.891421175,68.117835975,57.0,73.0
384,67.891421175,68.22750564374999,45.0,79.0
385,68.457458175,68.65203339375,64.0,79.0
386,68.457458175,68.67090129375,57.0,72.0
387,68.457458175,68.67090129375,60.0,78.0
388,68.457458175,68.7852879375,45.0,80.0
389,69.023495175,69.40557015,57.0,75.0
390,69.023495175,69.4079286375,60.0,79.0
391,69.023495175,69.41146636875,64.0,81.0
392,69.023495175,69.4173625875,45.0,84.0
393,69.589532175,69.8890600875,57.0,74.0
394,69.589532175,69.89731479375,64.0,80.0
395,69.589532175,69.919720425,60.0,78.0
396,69.872550675,70.13316354375,52.0,79.0
397,69.589532175,70.15203144375,45.0,79.0
398,70.155569175,70.31712556875,60.0,78.0
399,70.155569175,70.3183048125,57.0,74.0
400,70.438587675,70.49637061875,57.0,62.0
401,70.438587675,70.51052154375,60.0,72.0
402,70.721606175,71.032926525,57.0,79.0
403,70.721606175,71.0400019875,60.0,85.0
404,70.721606175,71.042360475,64.0,87.0
405,70.155569175,71.14141694999999,45.0,80.0
406,71.004624675,71.19212443125,52.0,67.0
407,71.570661675,71.674435125,57.0,73.0
408,71.853680175,71.95155740625,57.0,79.0
409,71.287643175,72.0164158125,45.0,78.0
410,71.853680175,72.04825539375,60.0,83.0
411,71.853680175,72.15202884375,64.0,83.0
412,72.136698675,72.26051926875,57.0,77.0
413,72.419717175,72.78174500625,59.0,72.0
414,72.419717175,72.7899997125,55.0,72.0
415,72.985754175,73.127263425,55.0,79.0
416,72.985754175,73.18740485625,59.0,83.0
417,72.985754175,73.20155578125,62.0,81.0
418,72.419717175,73.344244275,43.0,78.0
419,72.702735675,73.3749046125,50.0,69.0
420,73.551791175,73.68032874375,60.0,73.0
421,73.551791175,73.68268723125,57.0,68.0
422,73.834809675,73.9220737125,57.0,63.0
423,73.834809675,73.93976236875,60.0,72.0
424,74.117828175,74.2451865,57.0,81.0
425,74.117828175,74.2569789375,60.0,85.0
426,74.117828175,74.26995061875,64.0,94.0
427,74.400846675,74.5258465125,57.0,78.0
428,73.551791175,74.52702575625,45.0,79.0
429,74.683865175,74.81240274375,57.0,72.0
430,74.683865175,74.834808375,62.0,78.0
431,74.966883675,75.03410056875,57.0,61.0
432,74.966883675,75.061223175,62.0,64.0
433,75.249902175,75.3560341125,57.0,79.0
434,75.249902175,75.40556235,65.0,81.0
435,75.532920675,75.6579205125,57.0,72.0
436,74.683865175,75.68268463125,50.0,79.0
437,75.815939175,75.90909943125,57.0,67.0
438,75.815939175,75.93740128125,62.0,75.0
439,76.098957675,76.19683490625,57.0,69.0
440,76.381976175,76.4715987,57.0,80.0
441,76.381976175,76.5069760125,62.0,84.0
442,75.815939175,76.5093345,50.0,73.0
443,76.948013175,77.0777299875,55.0,64.0
444,76.948013175,77.08598469375,59.0,70.0
445,77.231031675,77.2829184,55.0,56.0
446,77.231031675,77.2994278125,59.0,61.0
447,77.514050175,77.61428589375,62.0,71.0
448,77.514050175,77.61900286875,59.0,69.0
449,77.514050175,77.6343330375,55.0,60.0
450,77.797068675,77.92324775625,55.0,78.0
451,76.948013175,77.97749296875,43.0,78.0
452,78.080087175,78.2333888625,55.0,75.0
453,78.080087175,78.2640492,60.0,80.0
454,78.363105675,78.47277534375,55.0,70.0
455,78.646124175,78.731029725,55.0,79.0
456,78.646124175,78.797067375,60.0,83.0
457,78.646124175,78.8277277125,64.0,85.0
458,78.080087175,78.8984823375,48.0,83.0
459,78.929142675,79.032916125,55.0,71.0
460,79.212161175,79.29588748125,57.0,61.0
461,79.212161175,79.315934625,60.0,69.0
462,79.495179675,79.5635758125,57.0,56.0
463,79.495179675,79.57536825,60.0,65.0
464,79.778198175,79.8748961625,57.0,78.0
465,79.778198175,79.900839525,64.0,89.0
466,79.212161175,80.12607508125,45.0,77.0
467,80.061216675,80.15437693125,57.0,71.0
468,80.344235175,80.419706775,60.0,66.0
469,80.344235175,80.4220652625,57.0,61.0
470,80.627253675,80.70626300625,57.0,63.0
471,80.627253675,80.7168762,60.0,66.0
472,80.344235175,80.97513058125,45.0,74.0
473,80.910272175,81.02465881875,57.0,78.0
474,80.910272175,81.042347475,60.0,82.0
475,80.910272175,81.06239461875,64.0,87.0
476,81.193290675,81.2758377375,57.0,70.0
477,81.476309175,81.63314859375,53.0,73.0
478,81.476309175,81.65673346875,57.0,70.0
479,81.759327675,81.8654596125,53.0,70.0
480,82.042346175,82.13550643125,53.0,76.0
481,82.042346175,82.2003648375,57.0,79.0
482,81.476309175,82.287628875,41.0,77.0
483,82.325364675,82.4031947625,53.0,72.0
484,82.608383175,82.64729821875,55.0,59.0
485,82.608383175,82.76522259375,64.0,70.0
486,82.608383175,82.97512798125,59.0,76.0
487,82.891401675,82.9998921,64.0,66.0
488,82.891401675,83.0116845375,55.0,72.0
489,82.608383175,83.3607406875,40.0,79.0
490,83.174420175,83.48927825625,64.0,80.0
491,83.174420175,83.4904575,59.0,80.0
492,83.457438675,83.5588536375,55.0,72.0
493,83.740457175,83.88786264375,57.0,70.0
494,83.740457175,83.8890418875,62.0,73.0
495,84.023475675,84.10720198125,57.0,61.0
496,84.023475675,84.1130982,62.0,68.0
497,83.740457175,84.31121115,38.0,83.0
498,84.306494175,84.40555065,57.0,74.0
499,84.306494175,84.44446569375,62.0,81.0
500,84.306494175,84.51757880625,65.0,80.0
501,84.589512675,84.721587975,57.0,70.0
502,84.872531175,84.995172525,59.0,70.0
503,84.872531175,85.00106874375,55.0,69.0
504,85.155549675,85.2522476625,55.0,67.0
505,85.155549675,85.26050236875,59.0,70.0
506,85.438568175,85.5352661625,55.0,78.0
507,85.438568175,85.598945325,59.0,81.0
508,85.438568175,85.63550188125,62.0,83.0
509,84.872531175,85.77936961875,43.0,78.0
510,85.721586675,85.83125634375,55.0,73.0
511,86.004605175,86.16852005625,52.0,74.0
512,86.004605175,86.1862087125,55.0,75.0
513,86.287623675,86.3937556125,52.0,70.0
514,86.287623675,86.39729334375,55.0,70.0
515,86.570642175,86.683849575,52.0,80.0
516,86.004605175,86.7286608375,40.0,78.0
517,86.570642175,86.7522457125,55.0,81.0
518,86.853660675,86.92559454375,52.0,79.0
519,87.136679175,87.43502784375,60.0,79.0
520,87.136679175,87.44446179375,57.0,72.0
521,87.702716175,87.7923387,57.0,79.0
522,87.702716175,88.16026275,64.0,92.0
523,87.702716175,88.16380048125,60.0,94.0
524,87.985734675,88.1956400625,57.0,78.0
525,87.419697675,88.19917779375,52.0,74.0
526,87.136679175,88.202715525,45.0,78.0
527,88.268753175,88.43030956875,60.0,78.0
528,88.268753175,88.4314888125,57.0,74.0
529,88.551771675,88.60955461875,57.0,62.0
530,88.551771675,88.62370554375,60.0,72.0
531,88.834790175,89.146110525,57.0,79.0
532,88.834790175,89.1531859875,60.0,85.0
533,88.834790175,89.155544475,64.0,87.0
534,88.268753175,89.25460095,45.0,80.0
535,89.117808675,89.30530843125,52.0,67.0
536,89.683845675,89.787619125,57.0,73.0
537,89.966864175,90.06474140625,57.0,79.0
538,89.400827175,90.1295998125,45.0,78.0
539,89.966864175,90.16143939375,60.0,83.0
540,89.966864175,90.26521284375,64.0,83.0
541,90.249882675,90.37370326875,57.0,77.0
542,90.532901175,90.89492900625,59.0,72.0
543,90.532901175,90.9031837125,55.0,72.0
544,91.098938175,91.240447425,55.0,79.0
545,91.098938175,91.30058885625,59.0,83.0
546,91.098938175,91.31473978125,62.0,81.0
547,90.532901175,91.457428275,43.0,78.0
548,90.815919675,91.4880886125,50.0,69.0
549,91.664975175,91.79351274375,60.0,73.0
550,91.664975175,91.79587123125,57.0,68.0
551,91.947993675,92.0352577125,57.0,63.0
552,91.947993675,92.05294636875,60.0,72.0
553,92.231012175,92.3583705,57.0,81.0
554,92.231012175,92.3701629375,60.0,85.0
555,92.231012175,92.38313461875,64.0,94.0
556,92.514030675,92.6390305125,57.0,78.0
557,91.664975175,92.64020975625,45.0,79.0
558,92.797049175,92.92558674375,57.0,72.0
559,92.797049175,92.947992375,62.0,78.0
560,93.080067675,93.14728456875,57.0,61.0
561,93.080067675,93.174407175,62.0,64.0
562,93.363086175,93.4692181125,57.0,79.0
563,93.363086175,93.51874635,65.0,81.0
564,93.646104675,93.7711045125,57.0,72.0
565,92.797049175,93.79586863125,50.0,79.0
566,93.929123175,94.02228343125,57.0,67.0
567,93.929123175,94.05058528125,62.0,75.0
568,94.212141675,94.31001890625,57.0,69.0
569,94.495160175,94.5847827,57.0,80.0
570,94.495160175,94.6201600125,62.0,84.0
571,93.929123175,94.6225185,50.0,73.0
572,95.061197175,95.1909139875,55.0,64.0
573,95.061197175,95.19916869375,59.0,70.0
574,95.344215675,95.3961024,55.0,56.0
575,95.344215675,95.4126118125,59.0,61.0
576,95.627234175,95.72746989375,62.0,71.0
577,95.627234175,95.73218686875,59.0,69.0
578,95.627234175,95.7475170375,55.0,60.0
579,95.910252675,96.03643175625,55.0,78.0
580,95.061197175,96.09067696875,43.0,78.0
581,96.193271175,96.3465728625,55.0,75.0
582,96.193271175,96.3772332,60.0,80.0
583,96.476289675,96.58595934375,55.0,70.0
584,96.759308175,96.844213725,55.0,79.0
585,96.759308175,96.910251375,60.0,83.0
586,96.759308175,96.9409117125,64.0,85.0
587,96.193271175,97.0116663375,48.0,83.0
588,97.042326675,97.146100125,55.0,71.0
589,97.325345175,97.40907148125,57.0,61.0
590,97.325345175,97.429118625,60.0,69.0
591,97.608363675,97.6767598125,57.0,56.0
592,97.608363675,97.68855225,60.0,65.0
593,97.891382175,97.9880801625,57.0,78.0
594,97.891382175,98.014023525,64.0,89.0
595,97.325345175,98.23925908125,45.0,77.0
596,98.174400675,98.26756093125,57.0,71.0
597,98.457419175,98.532890775,60.0,66.0
598,98.457419175,98.5352492625,57.0,61.0
599,98.740437675,98.81944700625,57.0,63.0
600,98.740437675,98.8300602,60.0,66.0
601,98.457419175,99.08831458125,45.0,74.0
602,99.02345617499999,99.13784281875,57.0,78.0
603,99.02345617499999,99.155531475,60.0,82.0
604,99.02345617499999,99.17557861875,64.0,87.0
605,99.306474675,99.3890217375,57.0,70.0
606,99.589493175,99.74633259375,53.0,73.0
607,99.589493175,99.76991746875,57.0,70.0
608,99.872511675,99.9786436125,53.0,70.0
609,100.155530175,100.24869043125,53.0,76.0
610,100.155530175,100.3135488375,57.0,79.0
611,99.589493175,100.400812875,41.0,77.0
612,100.43854867499999,100.5163787625,53.0,72.0
613,100.721567175,100.76048221875,55.0,59.0
614,100.721567175,100.87840659375,64.0,70.0
615,100.721567175,101.08831198125,59.0,76.0
616,101.004585675,101.1130761,64.0,66.0
617,101.004585675,101.1248685375,55.0,72.0
618,100.721567175,101.4739246875,40.0,79.0
619,101.287604175,101.60246225624999,64.0,80.0
620,101.287604175,101.6036415,59.0,80.0
621,101.570622675,101.6720376375,55.0,72.0
622,101.85364117499999,102.22510295625,62.0,79.0
623,101.85364117499999,102.2333576625,57.0,75.0
624,101.85364117499999,102.240433125,65.0,79.0
625,101.85364117499999,102.25340480625,38.0,82.0
626,102.702696675,102.86425306875,57.0,73.0
627,102.702696675,102.89491340625,38.0,81.0
628,102.702696675,102.9173190375,62.0,77.0
629,102.985715175,103.278167625,64.0,80.0
630,102.985715175,103.27934686875,40.0,81.0
631,102.985715175,103.27934686875,59.0,78.0
632,104.117789175,104.27934556875,57.0,73.0
633,104.117789175,104.287600275,60.0,76.0
634,104.117789175,104.29231725,64.0,79.0
635,104.117789175,104.2993927125,45.0,79.0
636,104.400807675,104.5470339,64.0,79.0
637,104.400807675,104.5541093625,60.0,79.0
638,104.400807675,104.56236406875,45.0,80.0
639,104.400807675,104.56472255625,57.0,76.0
640,104.966844675,105.14491048125,55.0,70.0
641,104.966844675,105.16141989375,62.0,73.0
642,104.966844675,105.16849535625,59.0,71.0
643,104.966844675,105.17792930625,43.0,78.0
644,105.249863175,105.86189068125,57.0,72.0
645,105.249863175,105.87722085,64.0,79.0
646,105.249863175,105.88311706875,60.0,75.0
647,105.249863175,106.2097675875,45.0,81.0
648,105.815900175,106.2144845625,52.0,79.0
649,106.098918675,106.25575809375,57.0,68.0
650,106.381937175,106.72273861875,45.0,79.0
651,106.664955675,106.98453073125,60.0,78.0
652,106.664955675,106.98688921875,57.0,73.0
653,106.947974175,107.0776909875,52.0,72.0
654,106.947974175,107.10717208125,45.0,75.0
655,107.089483425,107.20622855625,60.0,71.0
656,107.089483425,107.21330401875,57.0,67.0
657,107.372501925,107.50103949375,60.0,70.0
658,107.372501925,107.5210866375,57.0,68.0
659,107.514011175,107.96094455625,52.0,73.0
660,107.797029675,108.18971784375,57.0,74.0
661,107.797029675,108.18971784375,60.0,79.0
662,108.080048175,108.27698188125,52.0,77.0
663,107.514011175,108.2852365875,45.0,71.0
664,108.363066675,108.56707584375,60.0,79.0
665,108.363066675,108.570613575,57.0,73.0
666,108.646085175,108.9432546,45.0,78.0
667,108.929103675,109.03405636875,60.0,70.0
668,108.929103675,109.0399525875,64.0,78.0
669,108.929103675,109.0446695625,57.0,67.0
670,109.212122175,109.28051831249999,45.0,49.0
671,109.212122175,109.29113150625,52.0,67.0
672,109.212122175,109.31117865,64.0,74.0
673,109.212122175,109.31707486875,60.0,66.0
674,109.212122175,109.3206126,57.0,64.0
675,109.636649925,109.7333479125,57.0,66.0
676,109.636649925,109.73688564375,60.0,67.0
677,109.778159175,109.88311186875,45.0,72.0
678,109.919668425,110.00339473125,57.0,60.0
679,109.919668425,110.004573975,60.0,67.0
680,110.061177675,110.16613036875,45.0,68.0
681,110.202686925,110.28405474375,57.0,54.0
682,110.202686925,110.28877171875,60.0,63.0
683,110.344196175,110.77933711875,52.0,70.0
684,110.344196175,110.7946672875,45.0,69.0
685,110.627214675,110.9243841,57.0,71.0
686,110.627214675,110.94443124375,60.0,74.0
687,111.193251675,111.5116474875,57.0,71.0
688,111.193251675,111.51754370625,60.0,74.0
689,110.910233175,111.5871190875,45.0,72.0
690,111.476270175,111.61424169375,52.0,72.0
691,111.759288675,111.89490170625,57.0,70.0
692,111.759288675,111.89490170625,60.0,76.0
693,112.042307175,112.15669381875,45.0,76.0
694,112.183816425,112.29112760625,60.0,70.0
695,112.183816425,112.3088162625,57.0,67.0
696,112.466834925,112.5540989625,60.0,68.0
697,112.466834925,112.55527820625,57.0,60.0
698,112.608344175,112.91494755,52.0,72.0
699,112.608344175,112.93499469375,45.0,67.0
700,112.891362675,113.1107020125,60.0,77.0
701,112.891362675,113.1154189875,57.0,71.0
702,113.174381175,113.51518261875,45.0,79.0
703,113.457399675,113.77697473125,60.0,78.0
704,113.457399675,113.77933321875,57.0,73.0
705,113.740418175,113.8701349875,52.0,72.0
706,113.740418175,113.89961608125,45.0,75.0
707,113.881927425,113.99867255625,60.0,71.0
708,113.881927425,114.00574801875,57.0,67.0
709,114.164945925,114.29348349375,60.0,70.0
710,114.164945925,114.3135306375,57.0,68.0
711,114.306455175,114.75338855625,52.0,73.0
712,114.589473675,114.98216184375,57.0,74.0
713,114.589473675,114.98216184375,60.0,79.0
714,114.872492175,115.06942588125,52.0,77.0
715,114.306455175,115.0776805875,45.0,71.0
716,115.155510675,115.35951984375,60.0,79.0
717,115.155510675,115.363057575,57.0,73.0
718,115.438529175,115.7356986,45.0,78.0
719,115.721547675,115.82650036875,60.0,70.0
720,115.721547675,115.8323965875,64.0,78.0
721,115.721547675,115.8371135625,57.0,67.0
722,116.004566175,116.0729623125,45.0,49.0
723,116.004566175,116.08357550625,52.0,67.0
724,116.004566175,116.10362265,64.0,74.0
725,116.004566175,116.10951886875,60.0,66.0
726,116.004566175,116.1130566,57.0,64.0
727,116.429093925,116.5257919125,57.0,66.0
728,116.429093925,116.52932964375,60.0,67.0
729,116.570603175,116.67555586875,45.0,72.0
730,116.712112425,116.79583873125,57.0,60.0
731,116.712112425,116.797017975,60.0,67.0
732,116.853621675,116.95857436874999,45.0,68.0
733,116.995130925,117.07649874375,57.0,54.0
734,116.995130925,117.08121571875,60.0,63.0
735,117.136640175,117.57178111875,52.0,70.0
736,117.136640175,117.5871112875,45.0,69.0
737,117.419658675,117.7168281,57.0,71.0
738,117.419658675,117.73687524375,60.0,74.0
739,117.985695675,118.3040914875,57.0,71.0
740,117.985695675,118.30998770625,60.0,74.0
741,117.702677175,118.3795630875,45.0,72.0
742,118.268714175,118.40668569375,52.0,72.0
743,118.551732675,118.68734570625,57.0,70.0
744,118.551732675,118.68734570625,60.0,76.0
745,118.834751175,118.94913781875,45.0,76.0
746,118.976260425,119.08357160625,60.0,70.0
747,118.976260425,119.1012602625,57.0,67.0
748,119.259278925,119.3465429625,60.0,68.0
749,119.259278925,119.34772220625,57.0,60.0
750,119.400788175,119.70739155,52.0,72.0
751,119.400788175,119.72743869375,45.0,67.0
752,119.683806675,119.9031460125,60.0,77.0
753,119.683806675,119.9078629875,57.0,71.0
754,119.966825175,120.30762661875,45.0,79.0
755,120.249843675,120.56941873125,60.0,78.0
756,120.249843675,120.57177721875,57.0,73.0
757,120.532862175,120.6625789875,52.0,72.0
758,120.532862175,120.69206008125,45.0,75.0
759,120.674371425,120.79111655625,60.0,71.0
760,120.674371425,120.79819201875,57.0,67.0
761,120.957389925,121.08592749375,60.0,70.0
762,120.957389925,121.1059746375,57.0,68.0
763,121.098899175,121.54583255625,52.0,73.0
764,121.381917675,121.77460584375,57.0,74.0
765,121.381917675,121.77460584375,60.0,79.0
766,121.664936175,121.86186988125,52.0,77.0
767,121.098899175,121.8701245875,45.0,71.0
768,121.947954675,122.15196384375,60.0,79.0
769,121.947954675,122.155501575,57.0,73.0
770,122.230973175,122.372482425,40.0,77.0
771,122.230973175,122.3984257875,52.0,76.0
772,122.513991675,122.608331175,38.0,82.0
773,122.513991675,122.67554806875,50.0,70.0
774,122.797010175,122.91375530625,40.0,78.0
775,122.797010175,122.9503118625,52.0,78.0
776,123.080028675,123.212103975,43.0,78.0
777,123.080028675,123.2805001125,55.0,71.0
778,123.363047175,124.0564425,57.0,69.0
779,123.363047175,124.08356510625,45.0,74.0
780,124.778139675,125.070592125,57.0,74.0
781,124.778139675,125.0823845625,60.0,79.0
782,125.344176675,125.49983685,64.0,80.0
783,125.344176675,125.50573306875,60.0,80.0
784,125.344176675,125.51280853125,57.0,74.0
785,125.061158175,125.51516701875,52.0,69.0
786,125.910213675,126.03639275625,57.0,68.0
787,125.910213675,126.03875124375,60.0,72.0
788,126.193232175,126.2993641125,57.0,78.0
789,126.193232175,126.3418168875,60.0,83.0
790,126.193232175,126.353609325,64.0,85.0
791,124.495121175,126.38073193125,45.0,79.0
792,126.476250675,126.52931664375,60.0,60.0
793,126.476250675,126.6295523625,57.0,76.0
794,127.042287675,127.3984192875,52.0,62.0
795,127.325306175,127.42436265,57.0,78.0
796,127.325306175,127.43733433125,60.0,82.0
797,127.608324675,127.76988106875,57.0,69.0
798,127.608324675,127.7804942625,60.0,73.0
799,128.174361675,128.2899275625,57.0,71.0
800,128.174361675,128.2993615125,60.0,77.0
801,127.891343175,128.46327639375,52.0,61.0
802,128.457380175,128.54582345625,57.0,78.0
803,128.457380175,128.61657808125,60.0,81.0
804,128.457380175,128.6295497625,64.0,84.0
805,126.759269175,128.6861534625,45.0,80.0
806,128.740398675,128.83945515,57.0,78.0
807,129.023417175,129.33591676875,53.0,60.0
808,129.023417175,129.33827525625,57.0,72.0
809,129.589454175,129.6767182125,53.0,78.0
810,129.306435675,129.740397375,48.0,57.0
811,129.589454175,129.947944275,60.0,78.0
812,129.872472675,129.96563293125,53.0,73.0
813,129.023417175,129.9691706625,41.0,78.0
814,130.155491175,130.46327379375,59.0,77.0
815,130.155491175,130.48921715625,55.0,76.0
816,130.721528175,130.81232994375,55.0,79.0
817,130.721528175,130.89016003125,59.0,85.0
818,130.721528175,130.91492415,62.0,82.0
819,130.155491175,130.9361505375,43.0,79.0
820,131.004546675,131.09298995625,55.0,69.0
821,131.287565175,131.4172819875,55.0,72.0
822,131.287565175,131.5399233375,60.0,74.0
823,131.570583675,131.6389798125,55.0,68.0
824,131.853602175,131.88544175625,64.0,70.0
825,131.853602175,131.92081906875,55.0,70.0
826,131.287565175,132.22034698125,48.0,79.0
827,132.136620675,132.30289404375,55.0,80.0
828,132.136620675,132.3418090875,60.0,82.0
829,132.136620675,132.35713925625,64.0,85.0
830,132.702657675,132.80171415,55.0,78.0
831,132.985676175,133.09062886875,60.0,84.0
832,132.985676175,133.10949676875,55.0,80.0
833,132.419639175,133.136619375,48.0,70.0
834,133.268694675,133.41610014375,59.0,80.0
835,133.551713175,133.84062789375,57.0,73.0
836,133.551713175,133.8488826,60.0,75.0
837,134.117750175,134.18260858125,64.0,72.0
838,134.117750175,134.1861463125,57.0,65.0
839,134.117750175,134.19793875,60.0,70.0
840,134.400768675,134.49157044375,57.0,76.0
841,134.400768675,134.50336288125,60.0,80.0
842,134.400768675,134.51279683125,64.0,80.0
843,133.551713175,134.55642885,45.0,79.0
844,134.966805675,135.06586215,57.0,67.0
845,135.249824175,135.35005989375,57.0,78.0
846,135.249824175,135.37600325625,60.0,78.0
847,135.532842675,135.6531255375,57.0,74.0
848,135.815861175,135.93496479375,57.0,70.0
849,135.815861175,135.9432195,62.0,69.0
850,136.098879675,136.2050116125,57.0,68.0
851,136.098879675,136.20854934375,62.0,71.0
852,135.815861175,136.2568983375,50.0,73.0
853,136.664916675,136.9125578625,50.0,78.0
854,136.664916675,136.9691615625,57.0,76.0
855,136.664916675,137.212085775,65.0,78.0
856,136.664916675,137.3182177125,62.0,79.0
857,137.230953675,137.3606704875,57.0,67.0
858,137.513972175,137.60477394375,57.0,78.0
859,137.513972175,137.62364184375,50.0,80.0
860,137.513972175,137.83118874375,62.0,78.0
861,137.796990675,137.9172735375,57.0,68.0
862,138.080009175,138.278122125,55.0,69.0
863,138.080009175,138.334725825,59.0,71.0
864,138.363027675,138.65194239375,50.0,61.0
865,138.646046175,138.71798004375,55.0,75.0
866,138.080009175,138.73448945625,43.0,76.0
867,138.646046175,138.80996105625,59.0,80.0
868,138.646046175,138.89722509375,62.0,79.0
869,139.212083175,139.4974601625,64.0,72.0
870,139.212083175,139.5304789875,59.0,71.0
871,139.495101675,139.7545353,47.0,68.0
872,139.212083175,139.80288429375,40.0,80.0
873,139.778120175,139.86184648125,59.0,78.0
874,139.778120175,139.97741236875,64.0,81.0
875,140.061138675,140.1389687625,59.0,65.0
876,140.344157175,140.45736457499999,57.0,66.0
877,140.344157175,140.46090230625,64.0,74.0
878,140.344157175,140.46208155,60.0,70.0
879,140.344157175,140.50807205625,45.0,78.0
880,140.627175675,140.749817025,60.0,74.0
881,140.627175675,140.75335475625,64.0,78.0
882,140.627175675,140.7568924875,57.0,73.0
883,140.627175675,140.778118875,45.0,78.0
884,140.910194175,141.05288266875,64.0,83.0
885,140.910194175,141.05524115625,60.0,85.0
886,140.910194175,141.070571325,45.0,80.0
887,140.910194175,141.0752883,57.0,78.0
888,141.476231175,141.69674975625,38.0,80.0
889,141.476231175,141.7285893375,50.0,78.0
890,141.759249675,141.9314192625,52.0,80.0
891,141.759249675,142.00571161875,40.0,79.0
892,142.042268175,142.27693768125,43.0,79.0
893,142.042268175,142.34887155,55.0,79.0
894,142.325286675,142.56467315625,44.0,94.0
895,142.325286675,142.5965127375,56.0,66.0
896,142.608305175,142.76986156875,60.0,78.0
897,142.608305175,142.7710408125,57.0,74.0
898,142.891323675,142.94910661875,57.0,62.0
899,142.891323675,142.96325754375,60.0,72.0
900,143.174342175,143.485662525,57.0,79.0
901,143.174342175,143.4927379875,60.0,85.0
902,143.174342175,143.495096475,64.0,87.0
903,142.608305175,143.59415295,45.0,80.0
904,143.457360675,143.64486043125,52.0,67.0
905,144.023397675,144.127171125,57.0,73.0
906,144.306416175,144.40429340625,57.0,79.0
907,143.740379175,144.4691518125,45.0,78.0
908,144.306416175,144.50099139375,60.0,83.0
909,144.306416175,144.60476484375,64.0,83.0
910,144.589434675,144.71325526875,57.0,77.0
911,144.872453175,145.23448100625,59.0,72.0
912,144.872453175,145.2427357125,55.0,72.0
913,145.438490175,145.579999425,55.0,79.0
914,145.438490175,145.64014085625,59.0,83.0
915,145.438490175,145.65429178125,62.0,81.0
916,144.872453175,145.796980275,43.0,78.0
917,145.155471675,145.8276406125,50.0,69.0
918,146.004527175,146.13306474375,60.0,73.0
919,146.004527175,146.13542323125,57.0,68.0
920,146.287545675,146.3748097125,57.0,63.0
921,146.287545675,146.39249836875,60.0,72.0
922,146.570564175,146.6979225,57.0,81.0
923,146.570564175,146.7097149375,60.0,85.0
924,146.570564175,146.72268661875,64.0,94.0
925,146.853582675,146.9785825125,57.0,78.0
926,146.004527175,146.97976175625,45.0,79.0
927,147.136601175,147.26513874375,57.0,72.0
928,147.136601175,147.287544375,62.0,78.0
929,147.419619675,147.48683656875,57.0,61.0
930,147.419619675,147.513959175,62.0,64.0
931,147.702638175,147.8087701125,57.0,79.0
932,147.702638175,147.85829835,65.0,81.0
933,147.985656675,148.1106565125,57.0,72.0
934,147.136601175,148.13542063124999,50.0,79.0
935,148.268675175,148.36183543125,57.0,67.0
936,148.268675175,148.39013728125,62.0,75.0
937,148.551693675,148.64957090625,57.0,69.0
938,148.834712175,148.9243347,57.0,80.0
939,148.834712175,148.9597120125,62.0,84.0
940,148.268675175,148.9620705,50.0,73.0
941,149.400749175,149.5304659875,55.0,64.0
942,149.400749175,149.53872069375,59.0,70.0
943,149.683767675,149.7356544,55.0,56.0
944,149.683767675,149.7521638125,59.0,61.0
945,149.966786175,150.06702189375,62.0,71.0
946,149.966786175,150.07173886875,59.0,69.0
947,149.966786175,150.0870690375,55.0,60.0
948,150.249804675,150.37598375625,55.0,78.0
949,149.400749175,150.43022896875,43.0,78.0
950,150.532823175,150.6861248625,55.0,75.0
951,150.532823175,150.7167852,60.0,80.0
952,150.815841675,150.92551134375,55.0,70.0
953,151.098860175,151.183765725,55.0,79.0
954,151.098860175,151.249803375,60.0,83.0
955,151.098860175,151.2804637125,64.0,85.0
956,150.532823175,151.3512183375,48.0,83.0
957,151.381878675,151.485652125,55.0,71.0
958,151.664897175,151.74862348125,57.0,61.0
959,151.664897175,151.768670625,60.0,69.0
960,151.947915675,152.0163118125,57.0,56.0
961,151.947915675,152.02810425,60.0,65.0
962,152.230934175,152.3276321625,57.0,78.0
963,152.230934175,152.353575525,64.0,89.0
964,151.664897175,152.57881108125,45.0,77.0
965,152.513952675,152.60711293125,57.0,71.0
966,152.796971175,152.872442775,60.0,66.0
967,152.796971175,152.8748012625,57.0,61.0
968,153.079989675,153.15899900625,57.0,63.0
969,153.079989675,153.1696122,60.0,66.0
970,152.796971175,153.42786658125,45.0,74.0
971,153.363008175,153.47739481874999,57.0,78.0
972,153.363008175,153.495083475,60.0,82.0
973,153.363008175,153.51513061875,64.0,87.0
974,153.646026675,153.7285737375,57.0,70.0
975,153.929045175,154.08588459375,53.0,73.0
976,153.929045175,154.10946946875,57.0,70.0
977,154.212063675,154.3181956125,53.0,70.0
978,154.495082175,154.58824243125,53.0,76.0
979,154.495082175,154.6531008375,57.0,79.0
980,153.929045175,154.740364875,41.0,77.0
981,154.778100675,154.8559307625,53.0,72.0
982,155.061119175,155.10003421875,55.0,59.0
983,155.061119175,155.21795859375,64.0,70.0
984,155.061119175,155.42786398125,59.0,76.0
985,155.344137675,155.4526281,64.0,66.0
986,155.344137675,155.4644205375,55.0,72.0
987,155.061119175,155.81347668749999,40.0,79.0
988,155.627156175,155.94201425625,64.0,80.0
989,155.627156175,155.9431935,59.0,80.0
990,155.910174675,156.0115896375,55.0,72.0
991,156.193193175,156.34059864375,57.0,70.0
992,156.193193175,156.3417778875,62.0,73.0
993,156.476211675,156.55993798125,57.0,61.0
994,156.476211675,156.5658342,62.0,68.0
995,156.193193175,156.76394715,38.0,83.0
996,156.759230175,156.85828665,57.0,74.0
997,156.759230175,156.89720169375,62.0,81.0
998,156.759230175,156.97031480625,65.0,80.0
999,157.042248675,157.174323975,57.0,70.0
1000,157.325267175,157.447908525,59.0,70.0
1001,157.325267175,157.45380474375,55.0,69.0
1002,157.608285675,157.7049836625,55.0,67.0
1003,157.608285675,157.71323836875,59.0,70.0
1004,157.891304175,157.9880021625,55.0,78.0
1005,157.891304175,158.051681325,59.0,81.0
1006,157.891304175,158.08823788125,62.0,83.0
1007,157.325267175,158.23210561875,43.0,78.0
1008,158.174322675,158.28399234375,55.0,73.0
1009,158.457341175,158.62125605625,52.0,74.0
1010,158.457341175,158.6389447125,55.0,75.0
1011,158.740359675,158.8464916125,52.0,70.0
1012,158.740359675,158.85002934375,55.0,70.0
1013,159.023378175,159.136585575,52.0,80.0
1014,158.457341175,159.1813968375,40.0,78.0
1015,159.023378175,159.2049817125,55.0,81.0
1016,159.306396675,159.37833054375,52.0,79.0
1017,159.589415175,159.88776384375,60.0,79.0
1018,159.589415175,159.89719779375,57.0,72.0
1019,160.155452175,160.2450747,57.0,79.0
1020,160.155452175,160.61299875,64.0,92.0
1021,160.155452175,160.61653648125,60.0,94.0
1022,160.438470675,160.6483760625,57.0,78.0
1023,159.872433675,160.65191379375,52.0,74.0
1024,159.589415175,160.655451525,45.0,78.0
1025,160.721489175,160.88304556875,60.0,78.0
1026,160.721489175,160.8842248125,57.0,74.0
1027,161.004507675,161.06229061875,57.0,62.0
1028,161.004507675,161.07644154375,60.0,72.0
1029,161.287526175,161.598846525,57.0,79.0
1030,161.287526175,161.6059219875,60.0,85.0
1031,161.287526175,161.608280475,64.0,87.0
1032,160.721489175,161.70733695,45.0,80.0
1033,161.570544675,161.75804443125,52.0,67.0
1034,162.136581675,162.240355125,57.0,73.0
1035,162.419600175,162.51747740625,57.0,79.0
1036,161.853563175,162.5823358125,45.0,78.0
1037,162.419600175,162.61417539375,60.0,83.0
1038,162.419600175,162.71794884375,64.0,83.0
1039,162.702618675,162.82643926875,57.0,77.0
1040,162.985637175,163.34766500625,59.0,72.0
1041,162.985637175,163.3559197125,55.0,72.0
1042,163.551674175,163.693183425,55.0,79.0
1043,163.551674175,163.75332485625,59.0,83.0
1044,163.551674175,163.76747578125,62.0,81.0
1045,162.985637175,163.910164275,43.0,78.0
1046,163.268655675,163.9408246125,50.0,69.0
1047,164.117711175,164.24624874375,60.0,73.0
1048,164.117711175,164.24860723125,57.0,68.0
1049,164.400729675,164.48799371249999,57.0,63.0
1050,164.400729675,164.50568236875,60.0,72.0
1051,164.683748175,164.8111065,57.0,81.0
1052,164.683748175,164.82289893749999,60.0,85.0
1053,164.683748175,164.83587061875,64.0,94.0
1054,164.966766675,165.0917665125,57.0,78.0
1055,164.117711175,165.09294575625,45.0,79.0
1056,165.249785175,165.37832274375,57.0,72.0
1057,165.249785175,165.400728375,62.0,78.0
1058,165.532803675,165.60002056875,57.0,61.0
1059,165.532803675,165.627143175,62.0,64.0
1060,165.815822175,165.9219541125,57.0,79.0
1061,165.815822175,165.97148235,65.0,81.0
1062,166.098840675,166.2238405125,57.0,72.0
1063,165.249785175,166.24860463125,50.0,79.0
1064,166.381859175,166.47501943125,57.0,67.0
1065,166.381859175,166.50332128125,62.0,75.0
1066,166.66487767499999,166.76275490625,57.0,69.0
1067,166.947896175,167.0375187,57.0,80.0
1068,166.947896175,167.0728960125,62.0,84.0
1069,166.381859175,167.0752545,50.0,73.0
1070,167.513933175,167.6436499875,55.0,64.0
1071,167.513933175,167.65190469375,59.0,70.0
1072,167.796951675,167.8488384,55.0,56.0
1073,167.796951675,167.8653478125,59.0,61.0
1074,168.079970175,168.18020589375,62.0,71.0
1075,168.079970175,168.18492286875,59.0,69.0
1076,168.079970175,168.2002530375,55.0,60.0
1077,168.362988675,168.48916775625,55.0,78.0
1078,167.513933175,168.54341296875,43.0,78.0
1079,168.646007175,168.7993088625,55.0,75.0
1080,168.646007175,168.8299692,60.0,80.0
1081,168.929025675,169.03869534375,55.0,70.0
1082,169.212044175,169.296949725,55.0,79.0
1083,169.212044175,169.362987375,60.0,83.0
1084,169.212044175,169.3936477125,64.0,85.0
1085,168.646007175,169.4644023375,48.0,83.0
1086,169.49506267499999,169.598836125,55.0,71.0
1087,169.778081175,169.86180748125,57.0,61.0
1088,169.778081175,169.881854625,60.0,69.0
1089,170.061099675,170.1294958125,57.0,56.0
1090,170.061099675,170.14128825,60.0,65.0
1091,170.344118175,170.4408161625,57.0,78.0
1092,170.344118175,170.466759525,64.0,89.0
1093,169.778081175,170.69199508125,45.0,77.0
1094,170.627136675,170.72029693125,57.0,71.0
1095,170.910155175,170.985626775,60.0,66.0
1096,170.910155175,170.9879852625,57.0,61.0
1097,171.193173675,171.27218300625,57.0,63.0
1098,171.193173675,171.2827962,60.0,66.0
1099,170.910155175,171.54105058125,45.0,74.0
1100,171.476192175,171.59057881875,57.0,78.0
1101,171.476192175,171.608267475,60.0,82.0
1102,171.476192175,171.62831461875,64.0,87.0
1103,171.759210675,171.8417577375,57.0,70.0
1104,172.042229175,172.19906859375,53.0,73.0
1105,172.042229175,172.22265346875,57.0,70.0
1106,172.32524767499999,172.4313796125,53.0,70.0
1107,172.608266175,172.70142643125,53.0,76.0
1108,172.608266175,172.7662848375,57.0,79.0
1109,172.042229175,172.853548875,41.0,77.0
1110,172.891284675,172.9691147625,53.0,72.0
1111,173.174303175,173.21321821875,55.0,59.0
1112,173.174303175,173.33114259375,64.0,70.0
1113,173.174303175,173.54104798125,59.0,76.0
1114,173.457321675,173.5658121,64.0,66.0
1115,173.457321675,173.5776045375,55.0,72.0
1116,173.174303175,173.9266606875,40.0,79.0
1117,173.740340175,174.05519825625,64.0,80.0
1118,173.740340175,174.0563775,59.0,80.0
1119,174.023358675,174.1247736375,55.0,72.0
1120,174.306377175,174.67783895624999,62.0,79.0
1121,174.306377175,174.6860936625,57.0,75.0
1122,174.306377175,174.693169125,65.0,79.0
1123,174.306377175,174.70614080625,38.0,82.0
1124,175.155432675,175.31698906875,57.0,73.0
1125,175.155432675,175.34764940625,38.0,81.0
1126,175.155432675,175.3700550375,62.0,77.0
1127,175.438451175,175.730903625,64.0,80.0
1128,175.438451175,175.73208286875,40.0,81.0
1129,175.438451175,175.73208286875,59.0,78.0
1130,176.570525175,176.73208156875,57.0,73.0
1131,176.570525175,176.740336275,60.0,76.0
1132,176.570525175,176.74505325,64.0,79.0
1133,176.570525175,176.7521287125,45.0,79.0
1134,176.853543675,176.9997699,64.0,79.0
1135,176.853543675,177.0068453625,60.0,79.0
1136,176.853543675,177.01510006875,45.0,80.0
1137,176.853543675,177.01745855625,57.0,76.0
1138,177.419580675,177.59764648125,55.0,70.0
1139,177.419580675,177.61415589375,62.0,73.0
1140,177.419580675,177.62123135625,59.0,71.0
1141,177.419580675,177.63066530625,43.0,78.0
1142,177.702599175,178.31462668125,57.0,72.0
1143,177.702599175,178.32995685,64.0,79.0
1144,177.702599175,178.33585306875,60.0,75.0
1145,177.702599175,178.6625035875,45.0,81.0
1146,178.268636175,178.6672205625,52.0,79.0
1147,178.551654675,178.70849409375,57.0,68.0
1148,178.834673175,178.95141830625,38.0,72.0
1149,178.834673175,178.995050325,62.0,73.0
1150,178.834673175,179.0021257875,57.0,70.0
1151,179.117691675,179.25566319375,38.0,79.0
1152,179.117691675,179.29575748125,62.0,76.0
1153,179.117691675,179.30519143125,57.0,72.0
1154,179.683728675,179.8040115375,57.0,66.0
1155,179.683728675,179.815803975,62.0,74.0
1156,179.683728675,179.81698321875,38.0,78.0
1157,179.966747175,180.1011809625,40.0,70.0
1158,179.966747175,180.108256425,59.0,71.0
1159,179.966747175,180.1153318875,64.0,79.0
1160,180.249765675,180.39481265625,59.0,70.0
1161,180.249765675,180.40896358125,40.0,79.0
1162,180.249765675,180.410142825,64.0,77.0
1163,180.532784175,180.6625009875,43.0,79.0
1164,180.532784175,180.664859475,64.0,78.0
1165,180.532784175,180.70141603125,67.0,70.0
1166,180.815802675,180.96320814375,43.0,76.0
1167,180.815802675,180.98207604375,64.0,74.0
1168,180.815802675,181.01981184375,67.0,72.0
1169,181.098821175,181.26037756875,60.0,78.0
1170,181.098821175,181.2615568125,57.0,74.0
1171,181.381839675,181.43962261875,57.0,62.0
1172,181.381839675,181.45377354375,60.0,72.0
1173,181.664858175,181.976178525,57.0,79.0
1174,181.664858175,181.9832539875,60.0,85.0
1175,181.664858175,181.985612475,64.0,87.0
1176,181.098821175,182.08466895,45.0,80.0
1177,181.947876675,182.13537643125,52.0,67.0
1178,182.513913675,182.617687125,57.0,73.0
1179,182.796932175,182.89480940625,57.0,79.0
1180,182.230895175,182.9596678125,45.0,78.0
1181,182.796932175,182.99150739375,60.0,83.0
1182,182.796932175,183.09528084375,64.0,83.0
1183,183.079950675,183.20377126875,57.0,77.0
1184,183.362969175,183.72499700625,59.0,72.0
1185,183.362969175,183.7332517125,55.0,72.0
1186,183.929006175,184.070515425,55.0,79.0
1187,183.929006175,184.13065685625,59.0,83.0
1188,183.929006175,184.14480778125,62.0,81.0
1189,183.362969175,184.287496275,43.0,78.0
1190,183.645987675,184.3181566125,50.0,69.0
1191,184.495043175,184.62358074375,60.0,73.0
1192,184.495043175,184.62593923125,57.0,68.0
1193,184.778061675,184.8653257125,57.0,63.0
1194,184.778061675,184.88301436875,60.0,72.0
1195,185.061080175,185.1884385,57.0,81.0
1196,185.061080175,185.2002309375,60.0,85.0
1197,185.061080175,185.21320261875,64.0,94.0
1198,185.344098675,185.4690985125,57.0,78.0
1199,184.495043175,185.47027775625,45.0,79.0
1200,185.627117175,185.75565474375,57.0,72.0
1201,185.627117175,185.778060375,62.0,78.0
1202,185.910135675,185.97735256875,57.0,61.0
1203,185.910135675,186.004475175,62.0,64.0
1204,186.193154175,186.2992861125,57.0,79.0
1205,186.193154175,186.34881435,65.0,81.0
1206,186.476172675,186.6011725125,57.0,72.0
1207,185.627117175,186.62593663125,50.0,79.0
1208,186.759191175,186.85235143124999,57.0,67.0
1209,186.759191175,186.88065328125,62.0,75.0
1210,187.042209675,187.14008690625,57.0,69.0
1211,187.325228175,187.4148507,57.0,80.0
1212,187.325228175,187.4502280125,62.0,84.0
1213,186.759191175,187.4525865,50.0,73.0
1214,187.891265175,188.0209819875,55.0,64.0
1215,187.891265175,188.02923669375,59.0,70.0
1216,188.174283675,188.2261704,55.0,56.0
1217,188.174283675,188.2426798125,59.0,61.0
1218,188.457302175,188.55753789375,62.0,71.0
1219,188.457302175,188.56225486875,59.0,69.0
1220,188.457302175,188.5775850375,55.0,60.0
1221,188.740320675,188.86649975625,55.0,78.0
1222,187.891265175,188.92074496875,43.0,78.0
1223,189.023339175,189.1766408625,55.0,75.0
1224,189.023339175,189.2073012,60.0,80.0
1225,189.306357675,189.41602734375,55.0,70.0
1226,189.589376175,189.674281725,55.0,79.0
1227,189.589376175,189.740319375,60.0,83.0
1228,189.589376175,189.7709797125,64.0,85.0
1229,189.023339175,189.8417343375,48.0,83.0
1230,189.872394675,189.976168125,55.0,71.0
1231,190.155413175,190.23913948125,57.0,61.0
1232,190.155413175,190.259186625,60.0,69.0
1233,190.438431675,190.5068278125,57.0,56.0
1234,190.438431675,190.51862025,60.0,65.0
1235,190.721450175,190.8181481625,57.0,78.0
1236,190.721450175,190.844091525,64.0,89.0
1237,190.155413175,191.06932708125,45.0,77.0
1238,191.004468675,191.09762893125,57.0,71.0
1239,191.287487175,191.362958775,60.0,66.0
1240,191.287487175,191.36531726249999,57.0,61.0
1241,191.570505675,191.64951500625,57.0,63.0
1242,191.570505675,191.6601282,60.0,66.0
1243,191.287487175,191.91838258125,45.0,74.0
1244,191.853524175,191.96791081875,57.0,78.0
1245,191.853524175,191.985599475,60.0,82.0
1246,191.853524175,192.00564661875,64.0,87.0
1247,192.136542675,192.2190897375,57.0,70.0
1248,192.419561175,192.57640059375,53.0,73.0
1249,192.419561175,192.59998546875,57.0,70.0
1250,192.702579675,192.8087116125,53.0,70.0
1251,192.985598175,193.07875843125,53.0,76.0
1252,192.985598175,193.1436168375,57.0,79.0
1253,192.419561175,193.230880875,41.0,77.0
1254,193.268616675,193.3464467625,53.0,72.0
1255,193.551635175,193.59055021875,55.0,59.0
1256,193.551635175,193.70847459375,64.0,70.0
1257,193.551635175,193.91837998125,59.0,76.0
1258,193.834653675,193.9431441,64.0,66.0
1259,193.834653675,193.9549365375,55.0,72.0
1260,193.551635175,194.3039926875,40.0,79.0
1261,194.117672175,194.43253025625,64.0,80.0
1262,194.117672175,194.4337095,59.0,80.0
1263,194.400690675,194.5021056375,55.0,72.0
1264,194.683709175,194.83111464375,57.0,70.0
1265,194.683709175,194.8322938875,62.0,73.0
1266,194.966727675,195.05045398125,57.0,61.0
1267,194.966727675,195.0563502,62.0,68.0
1268,194.683709175,195.25446315,38.0,83.0
1269,195.249746175,195.34880265,57.0,74.0
1270,195.249746175,195.38771769375,62.0,81.0
1271,195.249746175,195.46083080625,65.0,80.0
1272,195.532764675,195.664839975,57.0,70.0
1273,195.815783175,195.938424525,59.0,70.0
1274,195.815783175,195.94432074375,55.0,69.0
1275,196.098801675,196.1954996625,55.0,67.0
1276,196.098801675,196.20375436875,59.0,70.0
1277,196.381820175,196.4785181625,55.0,78.0
1278,196.381820175,196.542197325,59.0,81.0
1279,196.381820175,196.57875388125,62.0,83.0
1280,195.815783175,196.72262161875,43.0,78.0
1281,196.664838675,196.77450834375,55.0,73.0
1282,196.947857175,197.11177205625,52.0,74.0
1283,196.947857175,197.1294607125,55.0,75.0
1284,197.230875675,197.3370076125,52.0,70.0
1285,197.230875675,197.34054534375,55.0,70.0
1286,197.513894175,197.627101575,52.0,80.0
1287,196.947857175,197.6719128375,40.0,78.0
1288,197.513894175,197.69549771249999,55.0,81.0
1289,197.796912675,197.86884654375,52.0,79.0
1290,198.079931175,198.37827984375,60.0,79.0
1291,198.079931175,198.38771379375,57.0,72.0
1292,198.645968175,198.7355907,57.0,79.0
1293,198.645968175,199.10351475,64.0,92.0
1294,198.645968175,199.10705248125,60.0,94.0
1295,198.928986675,199.1388920625,57.0,78.0
1296,198.362949675,199.14242979375,52.0,74.0
1297,198.079931175,199.145967525,45.0,78.0
1298,199.212005175,199.37356156875,60.0,78.0
1299,199.212005175,199.3747408125,57.0,74.0
1300,199.495023675,199.55280661875,57.0,62.0
1301,199.495023675,199.56695754375,60.0,72.0
1302,199.778042175,200.089362525,57.0,79.0
1303,199.778042175,200.0964379875,60.0,85.0
1304,199.778042175,200.098796475,64.0,87.0
1305,199.212005175,200.19785295,45.0,80.0
1306,200.061060675,200.24856043125,52.0,67.0
1307,200.627097675,200.730871125,57.0,73.0
1308,200.910116175,201.00799340625,57.0,79.0
1309,200.344079175,201.0728518125,45.0,78.0
1310,200.910116175,201.10469139375,60.0,83.0
1311,200.910116175,201.20846484375,64.0,83.0
1312,201.193134675,201.31695526875,57.0,77.0
1313,201.476153175,201.83818100625,59.0,72.0
1314,201.476153175,201.8464357125,55.0,72.0
1315,202.042190175,202.183699425,55.0,79.0
1316,202.042190175,202.24384085625,59.0,83.0
1317,202.042190175,202.25799178125,62.0,81.0
1318,201.476153175,202.400680275,43.0,78.0
1319,201.759171675,202.4313406125,50.0,69.0
1320,202.608227175,202.73676474375,60.0,73.0
1321,202.608227175,202.73912323125,57.0,68.0
1322,202.891245675,202.9785097125,57.0,63.0
1323,202.891245675,202.99619836875,60.0,72.0
1324,203.174264175,203.3016225,57.0,81.0
1325,203.174264175,203.3134149375,60.0,85.0
1326,203.174264175,203.32638661875,64.0,94.0
1327,203.457282675,203.5822825125,57.0,78.0
1328,202.608227175,203.58346175625,45.0,79.0
1329,203.740301175,203.86883874375,57.0,72.0
1330,203.740301175,203.891244375,62.0,78.0
1331,204.023319675,204.09053656875,57.0,61.0
1332,204.023319675,204.117659175,62.0,64.0
1333,204.306338175,204.4124701125,57.0,79.0
1334,204.306338175,204.46199835,65.0,81.0
1335,204.589356675,204.7143565125,57.0,72.0
1336,203.740301175,204.73912063125,50.0,79.0
1337,204.872375175,204.96553543125,57.0,67.0
1338,204.872375175,204.99383728125,62.0,75.0
1339,205.155393675,205.25327090625,57.0,69.0
1340,205.438412175,205.5280347,57.0,80.0
1341,205.438412175,205.5634120125,62.0,84.0
1342,204.872375175,205.5657705,50.0,73.0
1343,206.004449175,206.1341659875,55.0,64.0
1344,206.004449175,206.14242069375,59.0,70.0
1345,206.287467675,206.3393544,55.0,56.0
1346,206.287467675,206.3558638125,59.0,61.0
1347,206.570486175,206.67072189375,62.0,71.0
1348,206.570486175,206.67543886875,59.0,69.0
1349,206.570486175,206.6907690375,55.0,60.0
1350,206.853504675,206.97968375625,55.0,78.0
1351,206.004449175,207.03392896875,43.0,78.0
1352,207.136523175,207.2898248625,55.0,75.0
1353,207.136523175,207.3204852,60.0,80.0
1354,207.419541675,207.52921134375,55.0,70.0
1355,207.702560175,207.787465725,55.0,79.0
1356,207.702560175,207.853503375,60.0,83.0
1357,207.702560175,207.8841637125,64.0,85.0
1358,207.136523175,207.9549183375,48.0,83.0
1359,207.985578675,208.089352125,55.0,71.0
1360,208.268597175,208.35232348125,57.0,61.0
1361,208.268597175,208.372370625,60.0,69.0
1362,208.551615675,208.6200118125,57.0,56.0
1363,208.551615675,208.63180425,60.0,65.0
1364,208.834634175,208.9313321625,57.0,78.0
1365,208.834634175,208.957275525,64.0,89.0
1366,208.268597175,209.18251108125,45.0,77.0
1367,209.117652675,209.21081293125,57.0,71.0
1368,209.400671175,209.476142775,60.0,66.0
1369,209.400671175,209.4785012625,57.0,61.0
1370,209.683689675,209.76269900625,57.0,63.0
1371,209.683689675,209.7733122,60.0,66.0
1372,209.400671175,210.03156658125,45.0,74.0
1373,209.966708175,210.08109481875,57.0,78.0
1374,209.966708175,210.098783475,60.0,82.0
1375,209.966708175,210.11883061875,64.0,87.0
1376,210.249726675,210.3322737375,57.0,70.0
1377,210.532745175,210.68958459375,53.0,73.0
1378,210.532745175,210.71316946875,57.0,70.0
1379,210.815763675,210.9218956125,53.0,70.0
1380,211.098782175,211.19194243125,53.0,76.0
1381,211.098782175,211.2568008375,57.0,79.0
1382,210.532745175,211.344064875,41.0,77.0
1383,211.381800675,211.4596307625,53.0,72.0
1384,211.664819175,211.70373421875,55.0,59.0
1385,211.664819175,211.82165859375,64.0,70.0
1386,211.664819175,212.03156398125,59.0,76.0
1387,211.947837675,212.0563281,64.0,66.0
1388,211.947837675,212.0681205375,55.0,72.0
1389,211.664819175,212.4171766875,40.0,79.0
1390,212.23085617499999,212.54571425625,64.0,80.0
1391,212.23085617499999,212.5468935,59.0,80.0
1392,212.513874675,212.6152896375,55.0,72.0
1393,212.796893175,213.16835495625,62.0,79.0
1394,212.796893175,213.1766096625,57.0,75.0
1395,212.796893175,213.183685125,65.0,79.0
1396,212.796893175,213.19665680625,38.0,82.0
1397,213.645948675,213.80750506875,57.0,73.0
1398,213.645948675,213.83816540625,38.0,81.0
1399,213.645948675,213.8605710375,62.0,77.0
1400,213.928967175,214.221419625,64.0,80.0
1401,213.928967175,214.22259886875,40.0,81.0
1402,213.928967175,214.22259886875,59.0,78.0
1403,215.06104117499999,215.22259756875,57.0,73.0
1404,215.06104117499999,215.230852275,60.0,76.0
1405,215.06104117499999,215.23556925,64.0,79.0
1406,215.06104117499999,215.2426447125,45.0,79.0
1407,215.344059675,215.4902859,64.0,79.0
1408,215.344059675,215.4973613625,60.0,79.0
1409,215.344059675,215.50561606875,45.0,80.0
1410,215.344059675,215.50797455625,57.0,76.0
1411,215.910096675,216.08816248125,55.0,70.0
1412,215.910096675,216.10467189375,62.0,73.0
1413,215.910096675,216.11174735625,59.0,71.0
1414,215.910096675,216.12118130625,43.0,78.0
1415,216.193115175,216.80514268125,57.0,72.0
1416,216.193115175,216.82047285,64.0,79.0
1417,216.193115175,216.82636906875,60.0,75.0
1418,216.193115175,217.1530195875,45.0,81.0
1419,216.759152175,217.1577365625,52.0,79.0
1420,217.042170675,217.19901009375,57.0,68.0
1421,217.325189175,217.910094075,38.0,80.0
1422,217.325189175,217.93721668125,57.0,73.0
1423,217.325189175,217.947829875,62.0,76.0
1424,218.174244675,218.33815955625,57.0,64.0
1425,218.174244675,218.40183871874999,38.0,78.0
1426,218.174244675,218.42070661875,62.0,72.0
1427,218.457263175,218.636508225,40.0,82.0
1428,218.457263175,218.6388667125,59.0,72.0
1429,218.457263175,218.64476293125,64.0,78.0
1430,218.740281675,219.76032751875,59.0,72.0
1431,218.740281675,219.787450125,64.0,79.0
1432,218.740281675,219.806318025,40.0,85.0
1433,220.155374175,220.65065655,59.0,72.0
1434,220.155374175,220.6530150375,64.0,74.0
1435,220.155374175,220.6577320125,40.0,80.0
1436,220.155374175,220.65891125625,67.0,72.0
1437,220.721411175,220.9218826125,60.0,72.0
1438,220.721411175,220.93485429375,57.0,69.0
1439,221.004429675,221.31221229375,52.0,51.0
1440,221.287448175,221.3794291875,60.0,87.0
1441,221.287448175,221.391221625,64.0,83.0
1442,221.287448175,221.3935801125,57.0,80.0
1443,220.721411175,221.40183481875,45.0,81.0
1444,221.570466675,221.6530137375,52.0,69.0
1445,221.853485175,221.89004173125,60.0,52.0
1446,221.853485175,221.91126811875,57.0,53.0
1447,221.853485175,222.211975275,45.0,79.0
1448,222.136503675,222.32872040625,64.0,83.0
1449,222.136503675,222.33579586875,60.0,79.0
1450,222.136503675,222.35702225625,57.0,78.0
1451,222.702540675,222.83343673125,57.0,71.0
1452,222.702540675,222.834615975,60.0,73.0
1453,222.702540675,222.87117253125,45.0,76.0
1454,222.985559175,223.30985120625,57.0,73.0
1455,222.985559175,223.3464077625,53.0,69.0
1456,223.551596175,223.6294262625,53.0,75.0
1457,222.985559175,223.71315256875,41.0,78.0
1458,223.551596175,223.86645425625,60.0,80.0
1459,223.551596175,223.8794259375,57.0,80.0
1460,223.834614675,223.96315224375,53.0,74.0
1461,224.117633175,224.24381225625,52.0,72.0
1462,224.117633175,224.25324620625,55.0,72.0
1463,224.117633175,224.51267983125,40.0,79.0
1464,224.400651675,224.68013244375,59.0,81.0
1465,224.400651675,224.7048965625,55.0,79.0
1466,224.400651675,224.70607580625,52.0,80.0
1467,224.683670175,224.8133869875,47.0,71.0
1468,224.966688675,225.04098103125,55.0,79.0
1469,224.966688675,225.0445187625,52.0,79.0
1470,224.966688675,225.05041498125,59.0,74.0
1471,225.249707175,225.40418810625,50.0,81.0
1472,225.249707175,225.41008432499999,62.0,77.0
1473,225.249707175,225.419518275,57.0,73.0
1474,225.249707175,225.42423525,65.0,78.0
1475,226.098762675,226.230837975,57.0,72.0
1476,226.098762675,226.2449889,50.0,79.0
1477,226.098762675,226.25442285,65.0,76.0
1478,226.098762675,226.25560209374999,62.0,75.0
1479,226.381781175,226.58225261249999,52.0,83.0
1480,226.381781175,226.589328075,59.0,74.0
1481,226.381781175,226.59404505,64.0,79.0
1482,227.513855175,227.6482889625,60.0,72.0
1483,227.513855175,227.65418518125,57.0,69.0
1484,227.513855175,227.6577229125,64.0,78.0
1485,227.513855175,227.6600814,45.0,79.0
1486,227.796873675,227.90536409999999,60.0,78.0
1487,227.796873675,227.90654334375,64.0,79.0
1488,227.796873675,227.92305275625,45.0,78.0
1489,227.796873675,227.92541124375,57.0,74.0
1490,228.362910675,228.5020614375,55.0,69.0
1491,228.362910675,228.504419925,59.0,69.0
1492,228.362910675,228.50559916875,62.0,70.0
1493,228.362910675,228.52446706875,43.0,75.0
1494,228.645929175,229.5020601375,57.0,78.0
1495,228.645929175,229.50323938125,45.0,80.0
1496,228.645929175,229.50559786875,60.0,79.0
1497,228.645929175,229.51031484375,64.0,81.0
