,start,end,pitch,velocity
0,12.919305262500002,13.137486862500001,56.0,92.0
1,13.328395762500001,13.4670319875,59.0,90.0
2,13.601122762500001,13.811349825,63.0,85.0
3,13.8738497625,14.1090768,56.0,69.0
4,14.1465767625,15.288621075000002,59.0,95.0
5,16.055665762500002,16.5011198625,56.0,70.0
6,16.6011197625,16.8056650125,59.0,89.0
7,16.8738467625,17.113619250000003,63.0,95.0
8,17.1465737625,17.477255250000002,56.0,76.0
9,17.4193007625,19.0727082,58.0,89.0
10,19.328389762500002,19.540889550000003,56.0,90.0
11,19.601116762500002,19.874980125,59.0,100.0
12,19.8738437625,20.205661612500002,61.0,89.0
13,20.1465707625,20.4170250375,63.0,102.0
14,20.4192977625,20.59543395,66.0,99.0
15,20.6920247625,20.9579335875,68.0,99.0
16,20.9647517625,21.172706100000003,63.0,97.0
17,21.2374787625,21.484069425,59.0,100.0
18,21.5102057625,21.730660087500002,56.0,95.0
19,21.782932762500003,22.0192961625,63.0,107.0
20,22.055659762500003,22.235205037500002,66.0,102.0
21,22.328386762500003,22.456795725000003,68.0,99.0
22,22.601113762500002,22.863613500000003,61.0,100.0
23,22.873840762500002,23.70452175,59.0,112.0
24,23.4192947625,23.729521725,56.0,99.0
25,23.6920217625,25.312474687500004,63.0,112.0
26,26.146564762500002,26.514807072916668,56.0,95.0
27,26.836235214583333,27.02608449375,59.0,102.0
28,27.061798714583336,27.19901651041667,63.0,99.0
29,27.287362214583336,27.489429516666668,56.0,92.0
30,27.512925714583336,29.007968625,59.0,107.0
31,29.4159227625,29.5602408,56.0,86.0
32,29.6886497625,29.8602405,56.0,93.0
33,29.961376762500002,30.1272856875,59.0,100.0
34,30.234103762500002,30.5181943875,63.0,99.0
35,30.5068307625,30.794330475000002,56.0,92.0
36,30.7795577625,32.2409199375,58.0,92.0
37,32.6886467625,32.8931920125,56.0,93.0
38,32.9613737625,33.1750099125,59.0,117.0
39,33.2341007625,33.561373162500004,61.0,102.0
40,33.5068277625,33.6602367,63.0,107.0
41,33.7795547625,34.0727362875,66.0,112.0
42,34.0522817625,34.2954633375,68.0,117.0
43,34.325008762500005,34.53750855,61.0,99.0
44,34.5977357625,34.8454627875,59.0,96.0
45,34.8704627625,35.10114435,56.0,93.0
46,35.1431897625,35.4386440125,64.0,112.0
47,35.415916762500004,35.6113711125,66.0,122.0
48,35.6886437625,35.9022799125,68.0,112.0
49,35.9613707625,36.1181887875,63.0,99.0
50,36.0977342625,36.24659775,61.0,95.0
51,36.2340977625,36.7795517625,59.0,100.0
52,36.7795517625,37.276142175000004,56.0,97.0
53,37.3250057625,39.067049475000005,63.0,122.0
54,39.2340947625,39.455685450000004,63.0,99.0
55,39.5068217625,39.7420488,68.0,100.0
56,39.7795487625,40.0227303375,70.0,95.0
57,40.0522757625,40.31023005,72.0,122.0
58,40.3250027625,40.4931844125,68.0,96.0
59,40.5977297625,40.777275037500004,68.0,92.0
60,40.8704567625,41.6840923125,63.0,96.0
61,42.506818762500004,42.71022765,63.0,99.0
62,42.7795457625,43.0056819,72.0,112.0
63,43.0522727625,43.3227270375,68.0,97.0
64,43.3249997625,43.4693178,70.0,102.0
65,43.5977267625,43.78295385,67.0,122.0
66,43.870453762500006,44.0772717375,67.0,100.0
67,44.1431807625,45.2272705875,63.0,102.0
68,45.7795427625,46.0409061375,60.0,99.0
69,46.0522697625,46.3068149625,70.0,107.0
70,46.32499676250001,46.6113601125,67.0,102.0
71,46.5977237625,47.576131875,68.0,122.0
72,47.9613587625,48.167040375,67.0,122.0
73,48.2340857625,48.61931265,68.0,102.0
74,48.7795397625,48.99203955,72.0,112.0
75,49.0522667625,49.8113569125,67.0,117.0
76,49.734084262500005,49.980674925,63.0,100.0
77,50.0068112625,51.4329462,65.0,99.0
78,52.3249907625,52.548854175,63.0,102.0
79,52.597717762500004,52.827262987500006,68.0,100.0
80,52.8704447625,53.12726268750001,70.0,97.0
81,53.1431717625,53.4022624125,72.0,127.0
82,53.41589876250001,53.576125875,68.0,102.0
83,53.6886257625,53.9022619125,68.0,93.0
84,53.9613527625,55.2136242375,63.0,102.0
85,55.597714762500004,55.854532687500004,63.0,92.0
86,55.87044176250001,56.107941525,68.0,102.0
87,56.143168762500004,56.268168637500004,70.0,93.0
88,56.4158957625,56.76703177500001,75.0,112.0
89,56.96134976250001,57.507940125000005,70.0,122.0
90,57.5068037625,57.75566715000001,72.0,127.0
91,57.7795307625,58.040894137500004,70.0,97.0
92,58.052257762500005,59.1249839625,68.0,99.0
93,59.41589276250001,59.618165287500005,67.0,127.0
94,59.6886197625,61.12043651250001,68.0,117.0
95,61.0522547625,61.342027200000004,67.0,99.0
96,61.3249817625,61.6965723,68.0,112.0
97,61.87043576250001,62.022708337500006,72.0,112.0
98,62.1431627625,62.876116575,67.0,122.0
99,62.96134376250001,63.2147526,63.0,107.0
100,63.2340707625,65.38520497500001,68.0,102.0
101,73.59769676250001,74.0295145125,56.0,95.0
102,74.1431507625,74.37269598750001,59.0,102.0
103,74.4158777625,74.5817866875,63.0,99.0
104,74.6886047625,74.9329227,56.0,92.0
105,74.96133176250001,76.46166575000001,59.0,107.0
106,76.86939700833334,77.01363620000001,56.0,86.0
107,77.14197500833333,77.313472,56.0,93.0
108,77.41455300833334,77.58037129166667,59.0,100.0
109,77.68713100833334,77.971066425,63.0,99.0
110,77.95970900833333,78.24705165,56.0,92.0
111,78.23228700833334,79.69285079166667,58.0,92.0
112,80.14033300833334,80.34476650833334,56.0,93.0
113,80.41291100833334,80.62643044166667,59.0,117.0
114,80.68548900833333,81.01258260833333,61.0,102.0
115,80.95806700833334,81.11139213333334,63.0,107.0
116,81.23064500833334,81.52366635833334,66.0,112.0
117,81.50322300833334,81.746271725,68.0,117.0
118,81.77580100833333,81.9881847,61.0,99.0
119,82.04837900833334,82.29597069166667,59.0,96.0
120,82.32095700833334,82.55151256666667,56.0,93.0
121,82.59353500833333,82.88882784166667,64.0,112.0
122,82.86611300833334,83.06146057500001,66.0,122.0
123,83.13869100833334,83.35221044166667,68.0,112.0
124,83.41126900833333,83.56800135833333,63.0,99.0
125,83.54755800833334,83.69634016666667,61.0,95.0
126,83.68384700833334,84.22900300833334,59.0,100.0
127,84.22900300833334,84.72532211666667,56.0,97.0
128,84.77415900833334,86.51525098333335,63.0,122.0
129,86.68220500833334,86.90367463333334,63.0,99.0
130,86.95478300833334,87.18944703333334,68.0,100.0
131,87.22684503958334,87.46936544375001,70.0,95.0
132,87.49883053958334,87.75608349166667,72.0,122.0
133,87.77081603958334,87.93854043125,68.0,96.0
134,88.04280153958334,88.22185866041667,68.0,92.0
135,88.31478703958334,89.12621044791668,63.0,96.0
136,89.94670003958333,90.14955589166667,63.0,99.0
137,90.21868553958333,90.44420685,72.0,112.0
138,90.49067103958333,90.76038999375001,68.0,97.0
139,90.76265653958333,90.9065822,70.0,102.0
140,91.03464203958333,91.219365525,67.0,122.0
141,91.30662753958333,91.51288321041667,67.0,100.0
142,91.57861303958333,92.65975540208333,63.0,102.0
143,93.21052603958334,93.47117881041667,60.0,99.0
144,93.48251153958334,93.73636467291666,70.0,107.0
145,93.75449703958334,94.04008181458333,67.0,102.0
146,94.02648253958334,95.00223052083334,68.0,122.0
147,95.38641003958334,95.5915324375,67.0,122.0
148,95.65839553958334,96.04257505833334,68.0,102.0
149,96.20236653958334,96.413968125,72.0,112.0
150,96.47392271875,97.22957684375,67.0,117.0
151,97.15265396875,97.3981284375,63.0,100.0
152,97.42414646875,98.843826,65.0,99.0
153,99.73183271875,99.9546828125,63.0,102.0
154,100.00332521875,100.23183140625001,68.0,100.0
155,100.27481771875,100.53047315625,70.0,97.0
156,100.54631021875001,100.80422809375,72.0,127.0
157,100.81780271875,100.9773045625,68.0,102.0
158,101.08929521875001,101.30196434375,68.0,93.0
159,101.36078771875,102.60739078125,63.0,102.0
160,102.98974271875001,103.24539815625,63.0,92.0
161,103.26123521875,103.4976599375,68.0,102.0
162,103.53272771875001,103.65716178125,70.0,93.0
163,103.80422021875,104.15376681250001,75.0,112.0
164,104.34720521875,104.8913214375,70.0,122.0
165,104.89019021875,105.137927125,72.0,127.0
166,105.16168271875,105.42186303125,70.0,97.0
167,105.43317521875001,106.50104571875,68.0,99.0
168,106.79063771875,106.99199465625,67.0,127.0
169,107.06213021875,108.48746584375,68.0,117.0
170,108.41959271875001,108.7080535,67.0,99.0
171,108.69108521875,109.06099375000001,68.0,112.0
172,109.23407021875,109.38565353125,72.0,112.0
173,109.50556271875,110.2351988125,67.0,122.0
174,110.32004021875001,110.57230200000001,63.0,107.0
175,110.59153271875,112.7329298125,68.0,102.0
176,113.03496521875,113.94898996875,75.0,127.0
177,114.12093521875,114.359622375,70.0,127.0
178,114.39242771875,114.7103001875,68.0,85.0
179,114.66392021875001,115.16618134375,70.0,122.0
180,115.20690521875,116.29287521875,68.0,112.0
181,116.15712896875,117.02364253125,63.0,107.0
182,135.61510423125,135.836493825,63.0,99.0
183,135.88758373125,136.1225973,68.0,100.0
184,136.16006323125,136.40302411874998,70.0,95.0
185,136.43254273125,136.69127804166666,72.0,122.0
186,136.70610467708332,136.87490021874999,68.0,96.0
187,136.97982717708334,137.1595010375,68.0,92.0
188,137.2526827625,138.06631831250002,63.0,96.0
189,138.88904476250002,139.09245365,63.0,99.0
190,139.1617717625,139.38790790000002,72.0,112.0
191,139.4344987625,139.70495303750002,68.0,97.0
192,139.7072257625,139.8515438,70.0,102.0
193,139.9799527625,140.16517985000002,67.0,122.0
194,140.2526797625,140.4601240729167,67.0,100.0
195,140.52627367708334,141.61432061458336,63.0,102.0
196,142.16860867708334,142.4309260729167,60.0,99.0
197,142.44233117708336,142.69780551041669,70.0,107.0
198,142.71605367708335,143.00346230208336,67.0,102.0
199,142.98977617708334,143.97175564583335,68.0,122.0
200,144.35838867708335,144.56482106250002,67.0,122.0
201,144.63211117708335,145.01874420833335,68.0,102.0
202,145.17955617708336,145.392831625,72.0,112.0
203,145.45327867708335,146.21513963541668,67.0,117.0
204,146.13758492708334,146.3850756875,63.0,100.0
205,146.41130742708336,147.84264800000003,65.0,99.0
206,148.73794867708335,148.96262922916668,63.0,102.0
207,149.01167117708334,149.24205428125,68.0,100.0
208,149.28539367708336,149.54314903125,70.0,97.0
209,149.55911617708335,149.81915255208335,72.0,127.0
210,149.83283867708334,149.99365064583336,68.0,102.0
211,150.10656117708336,150.32097713541668,68.0,93.0
212,150.38028367708336,151.63712615625002,63.0,102.0
213,152.02261867708336,152.28037403125,63.0,92.0
214,152.29634117708335,152.5347078541667,68.0,102.0
215,152.57006367708334,152.69551982291668,70.0,93.0
216,152.84378617708336,153.19620389583335,75.0,112.0
217,153.39123117708334,153.9398166875,70.0,122.0
218,153.93867617708335,154.18844795833334,72.0,127.0
219,154.21239867708334,154.4747160729167,70.0,97.0
220,154.48612117708336,155.5627630104167,68.0,99.0
221,155.85473367708335,156.05774453125002,67.0,127.0
222,156.12845617708336,157.56239251250003,68.0,117.0
223,157.49421076250002,157.78398320000002,67.0,99.0
224,157.76693776250002,158.13852830000002,68.0,112.0
225,158.31239176250003,158.4646643375,72.0,112.0
226,158.58511876250003,159.31807257500003,67.0,122.0
227,159.4032997625,159.65670860000003,63.0,107.0
228,159.67602676250002,161.82716097500003,65.0,102.0
229,171.904311,172.14384225,56.0,97.0
230,172.20894641666666,172.48238391666666,59.0,93.0
231,172.67769641666666,172.93030058333335,63.0,97.0
232,172.99019641666666,173.343061,56.0,85.0
233,173.30269641666666,175.05949755833333,59.0,96.0
234,175.25162734166668,175.61621096666667,56.0,100.0
235,175.80718334166667,175.99699830833333,59.0,112.0
236,176.08496134166668,176.32338745833334,63.0,107.0
237,176.36273934166667,176.63010066666666,56.0,92.0
238,176.64051734166668,178.3357271,58.0,100.0
239,178.61049137916666,178.83336884166667,56.0,89.0
240,178.89351037916668,179.11167085833333,59.0,122.0
241,179.17652937916668,179.41827477500001,61.0,99.0
242,179.45954837916668,179.60223712500002,63.0,117.0
243,179.74256737916667,180.026765625,66.0,122.0
244,180.02558637916667,180.26166220416667,68.0,117.0
245,180.31334488958333,180.48642178958332,63.0,127.0
246,180.45757563958333,180.61382561874998,61.0,88.0
247,180.60180638958332,180.89151685416664,59.0,97.0
248,180.89519332291664,181.153771625,56.0,96.0
249,181.18931082291664,181.44543814583332,63.0,102.0
250,181.48342832291667,181.77509484375,66.0,107.0
251,181.77754582291666,182.02754569791665,68.0,122.0
252,182.07166332291666,182.25671225,63.0,112.0
253,182.21872207291665,182.35842788541666,61.0,95.0
254,182.36578082291666,182.73220220833332,59.0,112.0
255,182.95401582291666,183.26896664583333,56.0,102.0
256,183.68930957291664,188.33391509375,63.0,127.0
