,start,end,pitch,velocity
0,33.355772010416665,34.12692592083334,81.0,84.0
1,34.278849010416664,34.74615674166667,81.0,95.0
2,34.74038751041667,35.25192601458333,79.0,91.0
3,35.20192601041666,36.17500301458333,77.0,98.0
4,37.04808001041667,37.503849279166666,84.0,97.0
5,37.509618510416665,37.823080075,81.0,86.0
6,37.97115701041667,38.41731089375,81.0,94.0
7,38.432695510416664,38.95192632291667,72.0,87.0
8,38.89423401041667,39.58461868333333,74.0,87.0
9,40.740388010416666,41.54231115416667,74.0,97.0
10,41.663465010416665,42.16923428333333,74.0,90.0
11,42.12500351041667,42.60384970416666,77.0,91.0
12,42.586542010416665,43.461542083333335,79.0,68.0
13,44.43269601041666,44.68654218541667,74.0,54.0
14,44.663465260416665,44.825003735416665,81.0,54.0
15,44.894234510416666,45.1269268375,79.0,54.0
16,45.12500376041667,45.39423455208333,77.0,60.0
17,45.35577301041667,45.861542283333335,79.0,66.0
18,45.817311510416665,45.965388445833334,81.0,54.0
19,46.04808076041667,46.49038848958333,81.0,63.0
20,46.50961926041666,47.43846549166667,79.0,48.0
21,48.12500401041667,48.82115791458333,81.0,93.0
22,49.04808101041667,49.49808104791666,81.0,97.0
23,49.50961951041667,49.72115798958333,84.0,96.0
24,49.740388760416664,50.23269649375,86.0,90.0
25,50.43269651041667,51.161542725,84.0,95.0
26,51.817312010416664,51.925004327083336,86.0,95.0
27,52.048081260416666,52.32308128333333,86.0,84.0
28,52.50961976041667,52.611542845833334,84.0,84.0
29,52.74038901041666,53.13077365833333,84.0,80.0
30,53.20192751041667,53.29808136458333,81.0,66.0
31,53.43269676041667,53.76346601875,81.0,77.0
32,53.894235260416664,54.807696875,81.0,79.0
33,55.50962001041667,56.4807739375,72.0,90.0
34,56.43269701041667,56.81538935,74.0,97.0
35,56.894235510416664,57.32885093125,81.0,90.0
36,57.35577401041667,58.41346640625,79.0,89.0
37,59.201928010416665,59.65769727916667,81.0,105.0
38,59.66346651041667,61.99423593541667,79.0,95.0
39,62.89423601041667,63.546159141666664,81.0,101.0
40,63.81731301041667,64.269236125,81.0,98.0
41,64.27885151041667,64.70577462291666,79.0,95.0
42,64.74039001041666,65.72692855416666,77.0,99.0
43,66.58654401041666,66.97308250416667,84.0,106.0
44,67.04808251041666,67.38269792291666,81.0,97.0
45,67.50962101041667,67.90962104375,81.0,97.0
46,67.97115951041667,68.50000570833333,72.0,87.0
47,68.43269801041667,69.97500583125,74.0,98.0
48,70.27885201041667,71.00000591666667,74.0,100.0
49,71.20192901041666,71.58846750416667,74.0,93.0
50,71.66346751041667,72.16346755208333,77.0,97.0
51,72.12500601041667,73.4192368875,79.0,105.0
52,73.97116001041667,74.20577541458333,72.0,90.0
53,74.20192926041666,74.45385235833334,81.0,89.0
54,74.43269851041667,74.70192930208333,79.0,85.0
55,74.66346776041667,74.930775475,77.0,82.0
56,74.89423701041666,75.36731397291666,79.0,89.0
57,75.35577551041666,75.49423706041667,81.0,79.0
58,75.58654476041667,76.038467875,81.0,93.0
59,76.04808326041666,76.96731410625,79.0,66.0
60,77.66346801041666,78.40192961041667,81.0,93.0
61,78.58654501041667,79.00769889166666,81.0,91.0
62,79.04808351041666,79.33077584166666,84.0,87.0
63,79.27885276041667,79.85000665416666,86.0,90.0
64,79.97116051041667,80.90769905,84.0,89.0
65,81.35577601041666,81.45577601875,86.0,96.0
66,81.58654526041667,81.67500680625,86.0,90.0
67,81.81731451041667,82.07692991666667,86.0,82.0
68,82.04808376041666,82.16923761666666,84.0,79.0
69,82.27885301041667,82.72116073958334,84.0,79.0
70,82.74039151041667,83.0192376875,81.0,69.0
71,83.20193001041666,84.39423780208334,81.0,84.0
72,85.04808401041667,85.80962253541666,72.0,95.0
73,85.97116101041667,86.40577643125,74.0,98.0
74,86.43269951041667,86.66731491458333,81.0,63.0
75,86.66346876041666,86.66731491458333,81.0,90.0
76,87.12500726041667,87.97693040833333,79.0,65.0
77,88.74039201041667,89.28846897916667,81.0,97.0
78,89.20193051041666,90.60577678125,79.0,87.0
79,91.04808451041667,91.26154606666667,79.0,89.0
80,91.27885376041667,91.50385377916666,77.0,90.0
81,91.50962301041666,91.96731535625,74.0,79.0
82,91.97116151041666,92.30577692291666,77.0,90.0
83,92.43270001041667,94.915392525,77.0,91.0
84,95.20193101041667,95.42885410625,72.0,94.0
85,95.43270026041667,95.65193104791666,74.0,82.0
86,95.66346951041666,95.84808491041666,77.0,92.0
87,95.89423876041667,96.06731569791667,79.0,86.0
88,96.12500801041666,97.45962350625,81.0,87.0
89,97.50962351041666,97.98654662708333,84.0,87.0
90,97.97116201041666,98.68077745416667,81.0,93.0
91,98.89423901041667,99.15193133958333,77.0,92.0
92,99.12500826041666,99.36731597291667,79.0,87.0
93,99.35577751041667,99.55770060416667,81.0,83.0
94,99.58654676041667,99.76923908333333,84.0,90.0
95,99.81731601041666,101.19039304791667,86.0,90.0
96,101.20193151041667,101.64808539375,84.0,106.0
97,101.66347001041666,102.48654700208333,81.0,106.0
98,102.58654701041667,102.74616240833333,81.0,95.0
99,102.81731626041666,102.96347011875,84.0,94.0
100,103.04808551041667,103.22693167916667,86.0,90.0
101,103.27885476041666,103.40193169375,89.0,92.0
102,103.50962401041667,104.68654718541667,89.0,90.0
103,104.89423951041667,105.14423953125,89.0,99.0
104,105.12500876041666,105.30770108333333,86.0,94.0
105,105.35577801041667,105.75770112083333,89.0,100.0
106,105.81731651041666,106.23077808333333,86.0,99.0
107,106.27885501041666,106.70000889166667,81.0,90.0
108,106.74039351041667,106.98270122291666,86.0,95.0
109,106.97116276041666,109.02308600833334,84.0,99.0
110,109.97116301041666,110.1346245625,72.0,96.0
111,110.20193226041667,110.41347073958333,74.0,89.0
112,110.43270151041666,110.63654768125,77.0,93.0
113,110.66347076041667,110.87500923958333,79.0,84.0
114,110.89424001041667,112.35577859375,81.0,84.0
115,112.27885551041666,112.70962477708333,84.0,100.0
116,112.74039401041667,113.34808636875,81.0,105.0
117,113.66347101041667,113.88270179791667,77.0,98.0
118,113.89424026041667,114.11731720208333,79.0,87.0
119,114.12500951041666,114.29231721666666,81.0,86.0
120,114.35577876041667,114.58654801041666,84.0,87.0
121,114.58654801041666,116.04039428541667,86.0,80.0
122,115.97116351041666,116.376932775,84.0,90.0
123,116.43270201041666,117.13077899166666,81.0,84.0
124,117.35577901041667,117.57885595208333,72.0,87.0
125,117.58654826041666,117.79039443125,74.0,77.0
126,117.81731751041667,118.06731753125,77.0,89.0
127,118.04808676041667,118.30770216666667,81.0,90.0
128,118.27885601041666,119.55770227083333,79.0,95.0
129,119.66347151041667,119.87500998958333,79.0,96.0
130,119.89424076041666,120.13077924166667,77.0,85.0
131,120.12501001041666,120.52885619791667,79.0,87.0
132,120.58654851041666,121.11347163125,72.0,90.0
133,121.04808701041667,121.47885627708334,74.0,89.0
134,121.50962551041667,122.00193324375,77.0,86.0
135,122.43270251041666,125.423087375,77.0,97.0
136,155.20193601041666,155.97501299791668,81.0,84.0
137,156.12501301041667,156.59039766458332,81.0,95.0
138,156.58655151041665,157.0961669375,79.0,91.0
139,157.04809001041667,158.0192439375,77.0,98.0
140,158.89424401041666,159.32116712291668,84.0,97.0
141,159.35578251041667,159.669244075,81.0,86.0
142,159.81732101041666,160.26347489375,81.0,94.0
143,160.27885951041665,160.79809032291666,72.0,87.0
144,160.74039801041667,161.43078268333332,74.0,87.0
145,162.58655201041665,163.407705925,74.0,97.0
146,163.50962901041666,164.01539828333333,74.0,90.0
147,163.97116751041668,164.45193678125,77.0,91.0
148,164.43270601041667,165.30578300625,79.0,68.0
149,166.27886001041668,166.53270618541666,74.0,54.0
150,166.50962926041666,166.67116773541667,81.0,54.0
151,166.74039851041667,166.9730908375,79.0,54.0
152,166.97116776041668,167.238475475,77.0,60.0
153,167.20193701041666,167.70578320625,79.0,66.0
154,167.66347551041667,167.81155244583334,81.0,54.0
155,167.89424476041665,168.33655248958334,81.0,63.0
156,168.35578326041667,169.28462949166666,79.0,48.0
157,169.97116801041668,170.66732191458334,81.0,93.0
158,170.89424501041665,171.34424504791667,81.0,97.0
159,171.35578351041667,171.56732198958332,84.0,96.0
160,171.58655276041665,172.25193743124998,86.0,90.0
161,172.27886051041668,173.03078365,84.0,95.0
162,173.66347601041667,173.77116832708333,86.0,95.0
163,173.89424526041665,174.02693757916666,86.0,100.0
164,174.12501451041666,174.33270683541667,86.0,84.0
165,174.35578376041667,174.45578376875,84.0,84.0
166,174.58655301041668,174.97501458125,84.0,80.0
167,175.04809151041667,175.14424536458333,81.0,66.0
168,175.50963001041666,176.44232239583334,81.0,77.0
169,177.35578401041667,178.24809177708335,74.0,90.0
170,178.27886101041668,178.65963027291667,74.0,97.0
171,178.74039951041667,178.96732260625,81.0,90.0
172,178.97116876041667,179.30193801875,81.0,90.0
173,179.20193801041665,180.22501501874999,79.0,89.0
174,181.04809201041667,181.50193820208332,81.0,105.0
175,181.50963051041666,182.89039985624999,79.0,95.0
176,183.58655376041668,183.8884768625,79.0,100.0
177,183.81732301041666,184.09809226458333,77.0,100.0
178,184.04809226041667,184.361553825,74.0,100.0
179,184.27886151041668,184.59424615208334,77.0,100.0
180,184.97116926041667,186.55770785416667,77.0,100.0
181,187.50963101041665,187.73655410625,72.0,94.0
182,187.74040026041666,187.961554125,74.0,82.0
183,187.97116951041667,188.15578491041666,77.0,92.0
184,188.20193876041665,188.37501569791667,79.0,86.0
185,188.43270801041666,189.76540042916668,81.0,87.0
186,189.81732351041666,190.29232355,84.0,87.0
187,190.27886201041667,190.98847745416666,81.0,93.0
188,191.20193901041665,191.45963133958332,77.0,92.0
189,191.43270826041666,191.67693905,79.0,87.0
190,191.66347751041667,191.86732368124999,81.0,83.0
191,191.89424676041668,192.07501600625,84.0,90.0
192,192.12501601041666,193.49616997083334,86.0,90.0
193,193.50963151041665,193.95578539375,84.0,106.0
194,193.97117001041667,194.79424700208332,81.0,106.0
195,194.89424701041668,195.05578548541666,81.0,95.0
196,195.12501626041666,195.27117011875,84.0,94.0
197,195.35578551041667,195.53655475625,86.0,90.0
198,195.58655476041667,195.71155477083335,89.0,92.0
199,195.81732401041666,196.99424718541667,89.0,90.0
200,197.20193951041668,197.45001645416667,89.0,99.0
201,197.43270876041666,197.61540108333332,86.0,94.0
202,197.66347801041667,198.06540112083334,89.0,100.0
203,198.12501651041666,198.53655500625,86.0,99.0
204,198.58655501041667,199.00770889166665,81.0,90.0
205,199.04809351041666,199.2923243,86.0,95.0
206,199.27886276041667,201.31732446875,84.0,99.0
207,202.27886301041667,202.4423245625,72.0,96.0
208,202.50963226041665,202.72117073958333,74.0,89.0
209,202.74040151041666,202.94617075833332,77.0,93.0
210,202.97117076041667,203.18270923958335,79.0,84.0
211,203.20194001041668,204.66540167083332,81.0,84.0
212,204.58655551041667,205.0154017,84.0,100.0
213,205.04809401041666,205.65578636875,81.0,105.0
214,205.97117101041667,206.23270949375,77.0,98.0
215,206.20194026041668,206.42501720208332,79.0,87.0
216,206.43270951041666,206.60001721666666,81.0,86.0
217,206.66347876041667,206.89424801041667,84.0,87.0
218,206.89424801041667,208.34617120833335,86.0,80.0
219,208.27886351041667,208.684632775,84.0,90.0
220,208.74040201041666,209.43655591458332,81.0,84.0
221,209.66347901041667,209.88847902916666,72.0,87.0
222,209.89424826041667,210.09809443125,74.0,77.0
223,210.12501751041665,210.37501753125,77.0,89.0
224,210.35578676041666,210.61732524375,81.0,90.0
225,210.58655601041667,211.86540227083333,79.0,95.0
226,211.97117151041667,212.18463306666666,79.0,96.0
227,212.20194076041668,212.43847924166667,77.0,85.0
228,212.43271001041666,212.83463312083333,79.0,87.0
229,212.89424851041667,213.54040241041668,72.0,90.0
230,213.58655626041667,213.81347935624999,74.0,89.0
231,213.81732551041665,214.61732557708334,77.0,86.0
232,214.74040251041666,216.69232575,77.0,97.0
233,217.04809501041666,217.27501810625,72.0,94.0
234,217.27886426041667,217.500018125,74.0,82.0
235,217.50963351041668,217.69424891041666,77.0,92.0
236,217.74040276041666,217.91347969791667,79.0,86.0
237,217.97117201041667,219.30386442916665,81.0,87.0
238,219.35578751041666,219.83078755,84.0,87.0
239,219.81732601041668,220.52694145416666,81.0,93.0
240,220.74040301041666,220.99809533958333,77.0,92.0
241,220.97117226041667,221.21540305,79.0,87.0
242,221.20194151041667,221.40578768125,81.0,83.0
243,221.43271076041665,221.61348000625,84.0,90.0
244,221.66348001041666,223.03463397083334,86.0,90.0
245,223.04809551041666,223.49424939375,84.0,106.0
246,223.50963401041668,224.33271100208333,81.0,106.0
247,224.43271101041665,224.59424948541667,81.0,95.0
248,224.66348026041666,224.80963411875,84.0,94.0
249,224.89424951041667,225.07309567916667,86.0,90.0
250,225.12501876041665,225.24809569375,89.0,92.0
251,225.35578801041666,226.53271118541667,89.0,90.0
252,226.74040351041666,226.99040353125,89.0,99.0
253,226.97117276041666,227.15386508333333,86.0,94.0
254,227.20194201041667,227.60386512083332,89.0,100.0
255,227.66348051041666,228.07694208333334,86.0,99.0
256,228.12501901041668,228.54617289166666,81.0,90.0
257,228.58655751041667,228.8307883,86.0,95.0
258,228.81732676041668,230.85578846875,84.0,99.0
259,231.81732701041668,231.9807885625,72.0,96.0
260,232.04809626041666,232.26155781666665,74.0,89.0
261,232.27886551041667,232.48463475833333,77.0,93.0
262,232.50963476041667,232.72117323958332,79.0,84.0
263,232.74040401041665,234.20386567083332,81.0,84.0
264,234.12501951041668,234.5538657,84.0,100.0
265,234.58655801041667,235.19425036875,81.0,105.0
266,235.50963501041667,235.77117349375,77.0,98.0
267,235.74040426041665,235.96348120208333,79.0,87.0
268,235.97117351041666,236.13848121666666,81.0,86.0
269,236.20194276041667,236.43271201041668,84.0,87.0
270,236.43271201041668,237.88655828541667,86.0,80.0
271,237.81732751041667,238.223096775,84.0,90.0
272,238.27886601041666,238.97694299166668,81.0,84.0
273,239.20194301041667,239.42694302916667,72.0,87.0
274,239.43271226041668,239.63655843125,74.0,77.0
275,239.66348151041666,239.91348153125,77.0,89.0
276,239.89425076041667,240.15578924375,81.0,90.0
277,240.12502001041668,241.40386627083333,79.0,95.0
278,241.50963551041667,241.72309706666667,79.0,96.0
279,241.74040476041665,241.97694324166667,77.0,85.0
280,241.97117401041666,242.37309712083334,79.0,87.0
281,242.43271251041668,243.07886641041665,72.0,90.0
282,242.89425101041667,243.38271258958332,74.0,89.0
283,243.35578951041666,244.20386650416665,77.0,86.0
284,244.27886651041666,246.56348208541667,77.0,97.0
285,246.58655901041666,246.7500205625,72.0,96.0
286,246.81732826041667,247.02886673958332,74.0,89.0
287,247.04809751041665,247.32502061041666,77.0,93.0
288,247.27886676041666,247.49040523958334,79.0,84.0
289,247.50963601041667,248.97309767083334,81.0,84.0
290,248.89425151041667,249.3230977,84.0,100.0
291,249.35579001041665,249.96348236875,81.0,105.0
292,250.27886701041666,250.54232857083332,77.0,98.0
293,250.50963626041667,250.73271320208335,79.0,87.0
294,250.74040551041668,250.90771321666668,81.0,86.0
295,250.97117476041666,251.20194401041667,84.0,87.0
296,251.20194401041667,252.65386720833334,86.0,80.0
297,252.58655951041666,252.992328775,84.0,90.0
298,253.04809801041665,253.74425191458334,81.0,84.0
299,253.97117501041666,254.19617502916665,72.0,87.0
300,254.20194426041667,254.40579043125,74.0,77.0
301,254.43271351041668,254.68271353125,77.0,89.0
302,254.66348276041666,254.92502124375,81.0,90.0
303,254.89425201041666,256.17309827083335,79.0,95.0
304,256.27886751041666,256.4923290666667,79.0,96.0
305,256.50963676041664,256.74617524166666,77.0,85.0
306,256.7404060104167,257.1423291208333,79.0,87.0
307,257.20194451041664,257.84809841041664,72.0,90.0
308,257.8942522604167,258.392329225,74.0,89.0
309,258.35579076041665,259.43656008125,77.0,86.0
310,259.74040626041665,262.7577142041667,77.0,97.0
