,start,end,pitch,velocity
0,4.278846510416667,4.8000004,48.0,46.0
1,3.817308010416667,5.2038465875,41.0,55.0
2,4.7403850104166665,5.2269235125,53.0,45.0
3,5.201923510416667,5.669231241666667,48.0,43.0
4,5.663462010416667,6.1500005125,55.0,31.0
5,6.125000510416666,6.613462089583333,48.0,49.0
6,6.586539010416667,6.967308272916666,57.0,47.0
7,7.048077510416666,7.14807751875,48.0,63.0
8,7.509616010416667,8.000000666666667,38.0,53.0
9,7.971154510416667,8.461539166666666,45.0,44.0
10,8.432693010416667,8.900000741666666,53.0,48.0
11,8.894231510416667,9.346154625,45.0,37.0
12,9.355770010416666,9.853846975,55.0,43.0
13,9.817308510416666,10.290385472916666,45.0,45.0
14,10.278847010416667,10.77115474375,57.0,37.0
15,10.740385510416667,10.930770141666667,45.0,58.0
16,11.201924010416667,12.009616385416667,43.0,60.0
17,11.663462510416666,12.20192409375,50.0,53.0
18,12.125001010416666,12.580770279166666,55.0,56.0
19,12.586539510416667,13.080770320833333,50.0,37.0
20,13.048078010416667,13.519231895833332,57.0,42.0
21,13.509616510416667,14.080770404166666,50.0,50.0
22,13.971155010416666,14.392308891666666,58.0,52.0
23,14.432693510416666,14.551924289583333,50.0,62.0
24,14.894232010416667,15.373078204166667,36.0,63.0
25,15.355770510416667,15.888462862499999,48.0,54.0
26,15.817309010416666,16.703847545833334,50.0,64.0
27,16.278847510416668,16.73653985625,53.0,38.0
28,16.740386010416668,17.2500014375,55.0,57.0
29,16.740386010416668,17.37115529375,64.0,70.0
30,16.740386010416668,17.421155297916666,60.0,50.0
31,17.663463010416667,18.113463047916667,60.0,58.0
32,17.201924510416667,18.151924589583334,57.0,56.0
33,18.125001510416666,18.284616908333334,64.0,52.0
34,19.048078510416666,19.784617033333333,53.0,38.0
35,19.509617010416665,19.98461705,57.0,58.0
36,19.509617010416665,20.021155514583334,60.0,60.0
37,19.509617010416665,20.0423093625,55.0,52.0
38,19.509617010416665,20.15192475625,65.0,51.0
39,19.971155510416665,20.71730941875,53.0,33.0
40,20.432694010416668,20.996155595833333,57.0,62.0
41,20.432694010416668,21.007694058333332,60.0,67.0
42,20.432694010416668,21.09807868125,55.0,58.0
43,20.432694010416668,21.119232529166666,65.0,56.0
44,20.894232510416668,21.3576940875,53.0,24.0
45,18.586540010416666,21.544232564583332,41.0,70.0
46,21.355771010416667,21.846155666666668,60.0,70.0
47,21.355771010416667,21.851924897916668,57.0,67.0
48,21.355771010416667,21.873078745833332,55.0,64.0
49,21.355771010416667,21.90577105625,65.0,59.0
50,21.817309510416667,22.17115569375,40.0,46.0
51,22.278848010416667,22.757694204166665,65.0,28.0
52,22.278848010416667,22.825001902083333,57.0,60.0
53,22.278848010416667,22.840386518749998,53.0,59.0
54,22.278848010416667,22.859617289583333,60.0,66.0
55,22.278848010416667,23.528848114583333,50.0,56.0
56,23.201925010416666,23.671155818749998,57.0,56.0
57,23.201925010416666,23.686540435416667,60.0,58.0
58,23.201925010416666,23.707694283333332,65.0,54.0
59,23.201925010416666,23.715386591666668,53.0,56.0
60,23.663463510416666,24.246155866666665,50.0,31.0
61,24.125002010416665,24.626925129166665,60.0,59.0
62,24.125002010416665,24.644232822916667,57.0,57.0
63,24.125002010416665,24.688463595833333,53.0,48.0
64,24.125002010416665,24.757694370833335,65.0,52.0
65,24.586540510416665,25.14807901875,50.0,41.0
66,22.278848010416667,25.49423289375,38.0,58.0
67,25.048079010416668,25.509617510416668,57.0,64.0
68,25.048079010416668,25.513463664583334,60.0,70.0
69,25.048079010416668,25.5346175125,53.0,61.0
70,25.048079010416668,25.5692329,65.0,57.0
71,25.509617510416668,25.61538675,50.0,57.0
72,25.971156010416667,26.44038681875,62.0,63.0
73,25.971156010416667,26.4576945125,65.0,57.0
74,25.971156010416667,26.467309897916667,58.0,66.0
75,25.971156010416667,26.482694514583333,53.0,59.0
76,26.432694510416667,26.980771479166666,50.0,40.0
77,26.894233010416666,27.37115612708333,65.0,44.0
78,26.894233010416666,27.390386897916667,62.0,67.0
79,26.894233010416666,27.401925360416666,58.0,69.0
80,25.971156010416667,27.440386902083333,43.0,64.0
81,27.355771510416666,27.4500022875,50.0,69.0
82,27.817310010416666,28.223079275,53.0,64.0
83,27.817310010416666,28.294233127083334,62.0,66.0
84,27.817310010416666,28.300002358333334,58.0,66.0
85,28.278848510416665,29.07307934583333,48.0,49.0
86,28.740387010416665,29.130771658333334,60.0,69.0
87,28.740387010416665,29.165387045833334,55.0,63.0
88,28.740387010416665,29.171156277083334,64.0,75.0
89,27.817310010416666,29.190387047916666,36.0,67.0
90,29.201925510416668,29.303848595833333,40.0,75.0
91,29.663464010416668,30.107694816666665,57.0,72.0
92,29.663464010416668,30.117310202083335,60.0,70.0
93,29.663464010416668,30.117310202083335,65.0,66.0
94,30.586541010416667,30.988464120833335,53.0,36.0
95,30.817310260416665,31.230771833333332,62.0,63.0
96,30.817310260416665,31.255771835416667,58.0,70.0
97,31.509618010416666,32.45192578125,60.0,44.0
98,31.509618010416666,32.52307963333333,65.0,46.0
99,31.509618010416666,32.575002714583334,57.0,46.0
100,31.278848760416665,32.87500273958333,53.0,33.0
101,29.663464010416668,32.946156591666664,41.0,67.0
102,32.89423351041667,33.25192584791667,60.0,39.0
103,33.355772010416665,33.765387429166665,69.0,49.0
104,33.355772010416665,33.907695133333334,77.0,62.0
105,33.81731051041667,34.45577210208333,60.0,36.0
106,34.278849010416664,34.61154134583333,72.0,54.0
107,34.278849010416664,34.65384904166667,67.0,51.0
108,34.278849010416664,34.775002897916664,65.0,43.0
109,34.74038751041667,35.20769524166667,60.0,24.0
110,35.20192601041666,35.62115681458333,69.0,44.0
111,35.20192601041666,35.644233739583335,67.0,40.0
112,35.20192601041666,35.653849125,72.0,44.0
113,35.66346451041667,36.03846454166666,60.0,30.0
114,35.20192601041666,36.27115686875,65.0,38.0
115,36.12500301041667,36.31538764166667,69.0,60.0
116,36.12500301041667,36.32115687291667,72.0,57.0
117,36.12500301041667,36.346156875,67.0,52.0
118,33.355772010416665,36.44423380625,53.0,49.0
119,36.586541510416666,36.62884920625,60.0,62.0
120,37.04808001041667,37.48654158541667,72.0,52.0
121,37.04808001041667,37.50192620208333,67.0,59.0
122,37.04808001041667,37.509618510416665,64.0,53.0
123,37.509618510416665,38.161541641666666,57.0,33.0
124,37.97115701041667,38.39231089166667,67.0,65.0
125,37.97115701041667,38.423080125,64.0,53.0
126,37.04808001041667,38.432695510416664,45.0,70.0
127,37.97115701041667,38.45000320416667,72.0,52.0
128,38.432695510416664,38.869234008333336,57.0,46.0
129,38.89423401041667,39.34231097083333,60.0,56.0
130,38.89423401041667,39.34231097083333,69.0,53.0
131,38.89423401041667,39.36538789583334,65.0,60.0
132,39.355772510416664,39.90192640208333,57.0,42.0
133,39.81731101041667,40.26538797083333,60.0,56.0
134,39.81731101041667,40.288464895833336,69.0,58.0
135,39.81731101041667,40.29615720416667,65.0,60.0
136,40.27884951041667,40.32308028333333,57.0,45.0
137,38.89423401041667,40.361541825,50.0,66.0
138,40.740388010416666,41.1807726625,65.0,65.0
139,40.740388010416666,41.20192651041667,62.0,55.0
140,40.740388010416666,41.29038805625,70.0,46.0
141,41.20192651041667,41.663465010416665,53.0,39.0
142,41.663465010416665,42.053849658333334,60.0,66.0
143,41.663465010416665,42.15192658958333,58.0,48.0
144,41.663465010416665,42.290388139583335,65.0,74.0
145,40.740388010416666,42.34038814375,46.0,60.0
146,42.12500351041667,42.53461892916667,53.0,36.0
147,42.586542010416665,42.98846512083333,65.0,60.0
148,42.586542010416665,42.990388197916666,69.0,48.0
149,42.586542010416665,43.0038497375,60.0,56.0
150,42.817311260416666,43.0269266625,67.0,29.0
151,43.04808051041667,43.573080554166665,55.0,49.0
152,43.509619010416664,43.98077289583333,72.0,53.0
153,43.509619010416664,43.99808058958333,65.0,69.0
154,43.509619010416664,44.007695975,67.0,58.0
155,42.586542010416665,44.14038829375,48.0,78.0
156,43.509619010416664,44.15192675625,60.0,49.0
157,44.20192676041667,44.328849847916665,55.0,22.0
158,44.43269601041666,44.980772979166666,62.0,55.0
159,44.43269601041666,45.12500376041667,64.0,68.0
160,44.43269601041666,45.18077299583333,67.0,66.0
161,44.43269601041666,45.19038838125,48.0,58.0
162,44.894234510416666,45.31346531458333,55.0,51.0
163,45.35577301041667,45.853849975,60.0,71.0
164,46.740388510416665,47.02308084166667,67.0,64.0
165,46.27885001041667,47.42692702916666,64.0,65.0
166,45.817311510416665,47.49808088125,62.0,61.0
167,47.20192701041667,47.676927049999996,72.0,61.0
168,47.663465510416664,47.77885013541667,77.0,79.0
169,48.12500401041667,48.65385020833333,65.0,55.0
170,48.12500401041667,48.705773289583334,72.0,36.0
171,48.12500401041667,48.7269271375,69.0,49.0
172,48.12500401041667,48.730773291666665,67.0,52.0
173,48.12500401041667,48.742311754166664,60.0,51.0
174,49.04808101041667,49.617311827083334,65.0,56.0
175,49.04808101041667,49.638465675,69.0,50.0
176,49.04808101041667,49.638465675,72.0,23.0
177,49.04808101041667,49.680773370833336,67.0,52.0
178,49.04808101041667,49.684619525,60.0,46.0
179,48.12500401041667,50.213465722916666,53.0,46.0
180,49.971158010416666,50.467311897916666,72.0,22.0
181,49.971158010416666,50.49615805416666,65.0,56.0
182,49.971158010416666,50.51923497916667,69.0,51.0
183,49.971158010416666,50.523081133333335,60.0,46.0
184,49.971158010416666,50.52500421041667,67.0,48.0
185,48.12500401041667,50.80000423333333,41.0,48.0
186,50.894235010416665,51.35000427916667,60.0,65.0
187,50.894235010416665,51.35000427916667,65.0,72.0
188,50.894235010416665,51.35000427916667,67.0,51.0
189,50.43269651041667,51.37692735833333,53.0,28.0
190,50.894235010416665,51.384619666666666,69.0,47.0
191,51.35577351041667,51.89038893958333,52.0,49.0
192,51.817312010416664,52.35577359375,60.0,52.0
193,51.817312010416664,52.39038898125,65.0,69.0
194,51.817312010416664,52.41154282916666,69.0,51.0
195,52.74038901041666,53.14038904375,72.0,30.0
196,52.74038901041666,53.20961981875,60.0,55.0
197,52.74038901041666,53.22885058958333,65.0,56.0
198,52.74038901041666,53.269235208333335,69.0,45.0
199,53.66346601041667,54.15385066666666,60.0,41.0
200,53.66346601041667,54.20961990208333,69.0,35.0
201,53.66346601041667,54.234619904166664,65.0,45.0
202,51.817312010416664,54.82308149166666,50.0,69.0
203,54.58654301041667,55.07115843541666,65.0,71.0
204,54.58654301041667,55.09038920625,69.0,61.0
205,54.58654301041667,55.140389210416664,60.0,63.0
206,55.048081510416665,55.29808153125,67.0,60.0
207,55.27885076041667,55.382696922916665,69.0,31.0
208,55.50962001041667,55.867312347916666,60.0,51.0
209,55.50962001041667,55.917312352083336,64.0,64.0
210,55.50962001041667,55.940389277083334,67.0,63.0
211,55.971158510416664,56.5269277875,55.0,41.0
212,56.43269701041667,56.90000474166666,62.0,58.0
213,56.43269701041667,56.93654320625,67.0,69.0
214,56.43269701041667,57.023081675,60.0,47.0
215,56.894235510416664,57.157697070833336,64.0,67.0
216,57.35577401041667,57.403850937499996,64.0,48.0
217,57.35577401041667,57.46923555833333,72.0,70.0
218,57.81731251041666,57.961543291666665,74.0,55.0
219,58.278851010416666,58.37885101875,76.0,77.0
220,55.50962001041667,58.717312585416664,48.0,53.0
221,57.35577401041667,58.723081816666664,60.0,40.0
222,58.74038951041667,58.780774129166666,77.0,56.0
223,57.125004760416665,58.986543377083336,55.0,17.0
224,59.201928010416665,59.49808188125,79.0,59.0
225,59.201928010416665,59.55192803958333,72.0,54.0
226,59.201928010416665,59.569235733333336,76.0,62.0
227,59.201928010416665,59.598081889583334,67.0,65.0
228,60.125005010416665,60.378851185416664,60.0,50.0
229,60.125005010416665,60.58654351041667,65.0,76.0
230,60.58654351041667,60.63846659166666,67.0,58.0
231,59.66346651041667,60.648081977083336,55.0,47.0
232,59.201928010416665,60.746158908333335,48.0,65.0
233,61.048082010416664,61.155774327083336,69.0,61.0
234,61.048082010416664,61.717312835416664,48.0,71.0
235,61.50962051041667,62.00577439791667,55.0,56.0
236,61.74038976041667,62.028851322916665,60.0,64.0
237,61.97115901041666,62.246159033333335,65.0,72.0
238,62.201928260416665,62.37115904375,67.0,67.0
239,62.432697510416666,62.6769283,69.0,71.0
240,62.66346676041667,62.78846677083333,72.0,54.0
241,62.89423601041667,63.492312983333335,69.0,65.0
242,62.89423601041667,63.4961591375,60.0,67.0
243,62.89423601041667,63.50577452291667,65.0,74.0
244,62.89423601041667,64.04038995208333,53.0,47.0
245,63.81731301041667,64.34808228541667,60.0,52.0
246,63.81731301041667,64.34808228541667,65.0,52.0
247,63.81731301041667,64.35192843958333,69.0,51.0
248,63.81731301041667,64.36538997916666,67.0,51.0
249,64.27885151041667,64.92885156458334,53.0,21.0
250,64.74039001041666,65.19423620208333,69.0,46.0
251,64.74039001041666,65.20000543333333,65.0,51.0
252,64.74039001041666,65.20962081875,60.0,51.0
253,64.74039001041666,65.23077466666666,67.0,63.0
254,65.20192851041666,65.72500547708333,53.0,24.0
255,62.89423601041667,65.81346702291667,41.0,38.0
256,65.66346701041667,65.89808241458333,60.0,65.0
257,65.66346701041667,65.95577472708334,65.0,77.0
258,65.66346701041667,66.023082425,69.0,72.0
259,66.12500551041667,66.31731321875,60.0,52.0
260,66.12500551041667,66.36154399166666,67.0,74.0
261,66.58654401041666,67.06539020416666,65.0,80.0
262,66.58654401041666,67.12115943958334,60.0,75.0
263,66.58654401041666,67.72115948958333,45.0,62.0
264,67.50962101041667,67.9384672,67.0,63.0
265,67.50962101041667,67.99231335833333,60.0,57.0
266,67.50962101041667,68.0423133625,64.0,68.0
267,67.50962101041667,68.53654417291666,57.0,52.0
268,68.43269801041667,68.94615959166667,60.0,66.0
269,68.43269801041667,69.01923652083333,65.0,77.0
270,68.43269801041667,69.5076981,50.0,28.0
271,69.35577501041666,69.85000582083333,60.0,63.0
272,69.35577501041666,69.94231352083334,65.0,75.0
273,69.81731351041667,70.13269815208334,50.0,62.0
274,70.27885201041667,70.62500588541667,70.0,38.0
275,70.27885201041667,70.74231358749999,65.0,62.0
276,70.27885201041667,70.74808281875,62.0,57.0
277,70.27885201041667,71.62692904583334,58.0,39.0
278,71.20192901041666,71.71731366875,62.0,64.0
279,71.20192901041666,71.8038521375,65.0,70.0
280,71.20192901041666,71.83077521666667,70.0,57.0
281,70.27885201041667,71.92500599375,46.0,55.0
282,72.12500601041667,72.807698375,62.0,75.0
283,72.12500601041667,72.80962145208333,58.0,73.0
284,72.12500601041667,72.82500606875,67.0,72.0
285,72.12500601041667,73.45962150625,55.0,62.0
286,72.12500601041667,73.58846767083334,43.0,67.0
287,73.04808301041666,73.61539075,62.0,72.0
288,73.04808301041666,73.63077536666667,58.0,64.0
289,73.04808301041666,73.73654460624999,67.0,70.0
290,73.97116001041667,74.71346776458333,67.0,76.0
291,73.97116001041667,74.71731391875,60.0,70.0
292,73.97116001041667,74.72500622708333,64.0,76.0
293,73.97116001041667,75.0807754875,48.0,59.0
294,74.89423701041666,75.29423704375,67.0,73.0
295,74.89423701041666,75.33269858541667,64.0,75.0
296,74.89423701041666,75.34231397083333,60.0,72.0
297,73.97116001041667,75.37308320416666,36.0,67.0
298,75.35577551041666,75.79423708541667,48.0,49.0
299,75.81731401041667,76.13462172916667,60.0,61.0
300,75.81731401041667,76.14808326875,64.0,63.0
301,75.81731401041667,76.23269866041666,72.0,73.0
302,76.27885251041667,77.01731411041666,48.0,49.0
303,76.74039101041667,77.04616026666666,72.0,64.0
304,76.74039101041667,77.17116027708333,76.0,88.0
305,75.81731401041667,77.20962181875,36.0,63.0
306,77.20192951041666,77.60385262083334,48.0,54.0
307,77.20192951041666,77.60962185208334,74.0,69.0
308,77.20192951041666,77.60962185208334,77.0,69.0
309,78.12500651041667,78.80577579791667,53.0,51.0
310,78.58654501041667,79.06731428125,60.0,73.0
311,78.58654501041667,79.06731428125,65.0,69.0
312,78.58654501041667,79.0730835125,57.0,73.0
313,79.04808351041666,79.74808356875,53.0,31.0
314,79.50962201041666,80.007698975,57.0,63.0
315,79.50962201041666,80.007698975,60.0,67.0
316,79.50962201041666,80.0192374375,65.0,60.0
317,77.66346801041666,80.43269901041667,41.0,63.0
318,79.97116051041667,80.61154517916667,53.0,37.0
319,80.89423751041667,80.95962213125,53.0,48.0
320,80.43269901041667,81.14616060833333,65.0,66.0
321,80.43269901041667,81.161545225,57.0,73.0
322,80.43269901041667,81.1730836875,60.0,73.0
323,80.89423751041667,81.17885291875,40.0,74.0
324,81.35577601041666,82.10192991875,65.0,70.0
325,81.35577601041666,82.10962222708334,57.0,75.0
326,81.35577601041666,82.1423145375,60.0,73.0
327,81.35577601041666,82.60000688333334,50.0,70.0
328,82.27885301041667,82.86731459791666,65.0,70.0
329,82.27885301041667,82.90000690833334,57.0,72.0
330,82.27885301041667,82.9038530625,60.0,75.0
331,82.74039151041667,83.38654541041667,50.0,27.0
332,83.20193001041666,83.69423774375,57.0,60.0
333,83.20193001041666,83.70385312916666,60.0,63.0
334,83.20193001041666,83.80000698333333,65.0,60.0
335,83.66346851041666,84.33654548958333,50.0,42.0
336,81.35577601041666,84.63654551458333,38.0,69.0
337,84.12500701041667,84.6576993625,65.0,60.0
338,84.12500701041667,84.67308397916666,57.0,60.0
339,84.12500701041667,84.68462244166666,60.0,67.0
340,84.58654551041667,84.75962244791667,50.0,61.0
341,85.04808401041667,85.46923789166667,58.0,73.0
342,85.04808401041667,85.48462250833333,62.0,69.0
343,85.50962251041666,86.00000716666666,50.0,41.0
344,85.04808401041667,86.40962258541667,43.0,60.0
345,85.97116101041667,86.40962258541667,67.0,61.0
346,85.97116101041667,86.42116104791667,58.0,56.0
347,85.97116101041667,86.43654566458333,62.0,64.0
348,85.97116101041667,86.45577643541667,55.0,48.0
349,86.43269951041667,86.96923801666667,50.0,48.0
350,86.89423801041667,87.22885342291667,58.0,56.0
351,86.89423801041667,87.2423149625,62.0,63.0
352,86.89423801041667,87.26154573333334,67.0,61.0
353,87.35577651041666,87.86154578333333,50.0,41.0
354,87.81731501041666,87.98269963958333,62.0,64.0
355,87.81731501041666,88.17116119375,70.0,75.0
356,86.89423801041667,88.34616120833333,43.0,66.0
357,87.81731501041666,88.3500073625,55.0,44.0
358,88.27885351041667,88.67693046666666,50.0,60.0
359,88.27885351041667,88.71154585416667,65.0,70.0
360,88.74039201041667,88.92885356458333,64.0,49.0
361,88.74039201041667,89.146161275,60.0,63.0
362,88.74039201041667,89.27885359375,67.0,72.0
363,89.66346901041666,89.930776725,60.0,47.0
364,88.74039201041667,90.04423827291667,48.0,59.0
365,89.20193051041666,90.07308442916667,55.0,49.0
366,89.66346901041666,90.11923827916667,65.0,69.0
367,90.12500751041667,90.3576998375,67.0,62.0
368,90.58654601041667,90.94423834791667,53.0,58.0
369,90.58654601041667,90.97308450416666,58.0,49.0
370,90.58654601041667,91.01731527708333,62.0,57.0
371,90.58654601041667,91.08654605208334,36.0,70.0
372,91.04808451041667,91.37500761458334,48.0,59.0
373,91.50962301041666,91.95193073958333,38.0,46.0
374,91.50962301041666,91.99039228125,64.0,73.0
375,91.50962301041666,92.01154612916666,60.0,66.0
376,91.97116151041666,92.27693076666667,40.0,69.0
377,92.43270001041667,92.90577697291667,58.0,73.0
378,92.43270001041667,92.91731543541667,65.0,67.0
379,93.12500776041666,93.50193086875,57.0,70.0
380,92.89423851041667,93.6000078,53.0,58.0
381,92.43270001041667,94.1192386125,41.0,73.0
382,93.58654626041667,94.14616169166666,58.0,73.0
383,92.66346926041666,94.32116170625,48.0,60.0
384,94.27885401041667,94.361546325,65.0,54.0
385,94.04808476041667,94.39423863541667,53.0,56.0
386,94.27885401041667,94.40193094375,41.0,70.0
387,94.27885401041667,94.40193094375,60.0,69.0
388,94.27885401041667,94.40577709791667,57.0,67.0
389,94.50962326041666,94.638469425,57.0,80.0
390,94.50962326041666,94.638469425,60.0,76.0
391,94.50962326041666,94.64231557916666,65.0,73.0
392,94.50962326041666,94.64808481041666,53.0,76.0
393,94.50962326041666,94.68654635208333,41.0,76.0
394,95.20193101041667,95.52885411458334,36.0,70.0
395,95.20193101041667,95.69039258958334,55.0,70.0
396,95.43270026041667,95.71539259166667,38.0,63.0
397,95.20193101041667,95.77308490416667,60.0,67.0
398,95.20193101041667,95.78270028958333,64.0,80.0
399,95.66346951041666,95.8269310625,40.0,78.0
400,95.89423876041667,95.99231569166666,55.0,48.0
401,96.12500801041666,96.59231574166667,57.0,73.0
402,96.12500801041666,96.60385420416667,65.0,72.0
403,96.12500801041666,96.61731574375,60.0,72.0
404,96.58654651041667,97.10577732291667,53.0,57.0
405,96.81731576041666,97.24423887291667,55.0,47.0
406,97.04808501041667,97.3846235,60.0,76.0
407,96.12500801041666,97.53270043541667,41.0,72.0
408,97.27885426041667,97.58270043958333,53.0,61.0
409,96.35577726041667,97.91154662083333,48.0,64.0
410,97.50962351041666,98.29039280625,55.0,49.0
411,97.74039276041667,98.4346235875,65.0,69.0
412,98.43270051041667,98.52885436458334,53.0,69.0
413,98.20193126041667,98.53846975,48.0,64.0
414,97.97116201041666,98.5500082125,41.0,66.0
415,98.66346976041666,99.18462365,55.0,66.0
416,98.89423901041667,99.2653928875,64.0,67.0
417,99.12500826041666,99.45577751875,52.0,63.0
418,99.35577751041667,99.61731599375,55.0,55.0
419,99.58654676041667,99.80385447083333,64.0,72.0
420,98.89423901041667,99.86923909166667,40.0,80.0
421,100.04808526041667,100.26731604791667,50.0,62.0
422,99.81731601041666,100.30770066666666,60.0,61.0
423,99.81731601041666,100.31154682083333,57.0,64.0
424,99.81731601041666,100.546162225,65.0,69.0
425,99.81731601041666,100.85577763541667,38.0,69.0
426,100.74039301041667,101.03846995833334,57.0,56.0
427,100.50962376041667,101.04616226666667,53.0,64.0
428,100.27885451041666,101.05962380625,52.0,46.0
429,100.97116226041666,101.26923920833333,60.0,54.0
430,101.43270076041667,101.51923922916667,67.0,53.0
431,101.20193151041667,101.55577769375,64.0,57.0
432,102.12500851041666,102.36539314583334,50.0,49.0
433,101.66347001041666,102.392316225,60.0,55.0
434,101.66347001041666,102.40000853333333,65.0,64.0
435,101.89423926041667,102.58654701041667,45.0,63.0
436,101.66347001041666,102.72500856041667,38.0,61.0
437,102.58654701041667,103.01347012291667,53.0,67.0
438,102.35577776041667,103.038470125,52.0,64.0
439,102.81731626041666,103.07693166666667,64.0,63.0
440,103.04808551041667,103.35577784375,65.0,61.0
441,103.27885476041666,103.45962400625,60.0,64.0
442,103.50962401041667,103.86154711666667,62.0,66.0
443,103.97116251041666,104.27500868958333,58.0,60.0
444,104.20193176041667,104.51731640208334,65.0,69.0
445,104.20193176041667,104.53270101875,60.0,60.0
446,104.20193176041667,104.72308565,62.0,64.0
447,103.50962401041667,104.76539334583333,46.0,69.0
448,104.66347026041666,104.85193181458334,58.0,58.0
449,103.74039326041667,104.88270104791667,53.0,64.0
450,104.89423951041667,105.17693184166667,60.0,60.0
451,105.12500876041666,105.80193189375,62.0,66.0
452,105.35577801041667,105.83654728125,60.0,60.0
453,105.35577801041667,105.83654728125,65.0,64.0
454,106.04808576041667,106.19423961875,60.0,58.0
455,105.81731651041666,106.3384704,58.0,56.0
456,106.27885501041666,106.40000886666667,62.0,66.0
457,106.27885501041666,106.57116272708333,60.0,63.0
458,106.27885501041666,106.66539350416667,65.0,76.0
459,106.50962426041667,106.68077812083334,58.0,64.0
460,105.35577801041667,106.82693197916667,46.0,70.0
461,105.58654726041667,106.82885505625,53.0,54.0
462,106.74039351041667,107.05000892083333,60.0,59.0
463,106.97116276041666,107.14039354375,65.0,72.0
464,107.20193201041667,107.64039358541666,60.0,62.0
465,107.20193201041667,107.67693205,65.0,67.0
466,107.89423976041667,108.23270132708333,60.0,56.0
467,108.12500901041666,108.35385518333334,65.0,47.0
468,107.43270126041666,108.39423980208333,53.0,61.0
469,107.20193201041667,108.41923980416666,48.0,67.0
470,108.35577826041667,108.55000904583333,67.0,62.0
471,107.66347051041667,108.68462444166667,55.0,60.0
472,108.58654751041666,108.71731675208333,60.0,51.0
473,108.81731676041666,109.23077833333333,60.0,60.0
474,108.81731676041666,109.32885526458334,64.0,78.0
475,109.04808601041667,109.38270142291667,48.0,70.0
476,109.27885526041666,109.55385528333333,55.0,60.0
477,109.50962451041667,109.62885528958333,60.0,57.0
478,109.50962451041667,109.68654760208334,65.0,62.0
479,109.74039376041667,109.90193223541667,60.0,62.0
480,109.74039376041667,109.97693224166666,67.0,69.0
481,109.50962451041667,110.00962455208334,50.0,62.0
482,110.20193226041667,110.31731688541666,64.0,50.0
483,110.20193226041667,110.35000919583334,60.0,59.0
484,110.43270151041666,110.52500921041667,55.0,75.0
485,109.97116301041666,110.53270151875,52.0,54.0
486,110.20193226041667,110.55385536666667,70.0,72.0
487,110.66347076041667,110.792316925,60.0,54.0
488,110.89424001041667,111.21154772916667,65.0,70.0
489,110.89424001041667,111.22308619166667,69.0,72.0
490,110.89424001041667,111.25962465625,60.0,64.0
491,111.58654776041666,111.66154776666667,57.0,21.0
492,111.35577851041667,111.83847085833334,53.0,61.0
493,111.81731701041667,112.06731703125,57.0,57.0
494,111.81731701041667,112.09039395625,65.0,73.0
495,111.81731701041667,112.15193242291667,60.0,75.0
496,110.89424001041667,112.29616320416666,41.0,69.0
497,112.04808626041667,112.35770167083334,53.0,55.0
498,111.12500926041666,112.58270168958333,48.0,67.0
499,112.27885551041666,113.20577866458333,57.0,55.0
500,112.50962476041667,113.22116328125,64.0,67.0
501,112.74039401041667,113.24424020625,65.0,69.0
502,113.20193251041667,113.41924022083333,53.0,61.0
503,112.74039401041667,113.43077868333333,41.0,73.0
504,112.97116326041666,113.515394075,48.0,64.0
505,113.43270176041666,113.58654792708333,57.0,57.0
506,113.66347101041667,113.72500947708333,57.0,43.0
507,113.66347101041667,113.84808641041667,60.0,69.0
508,113.66347101041667,114.00962488541667,65.0,73.0
509,114.12500951041666,114.20000951666667,52.0,50.0
510,113.89424026041667,114.22500951875,57.0,58.0
511,114.12500951041666,114.27116336875,40.0,66.0
512,114.12500951041666,114.49039415625,64.0,70.0
513,114.58654801041666,114.96731727291666,57.0,57.0
514,114.58654801041666,114.96731727291666,60.0,63.0
515,114.58654801041666,114.96924034999999,65.0,63.0
516,115.04808651041667,115.52693270416667,50.0,50.0
517,115.50962501041667,115.76347118541666,60.0,67.0
518,115.50962501041667,115.7884711875,53.0,51.0
519,115.74039426041666,115.95962504791666,50.0,48.0
520,114.58654801041666,115.98077889583334,38.0,72.0
521,115.97116351041666,116.24808661041666,53.0,55.0
522,114.81731726041667,116.284625075,45.0,61.0
523,116.43270201041666,116.90193281875,62.0,63.0
524,116.20193276041667,116.930778975,57.0,60.0
525,116.43270201041666,116.94039436041666,53.0,63.0
526,116.89424051041667,117.19039438125,50.0,58.0
527,117.12500976041666,117.45193286458333,53.0,72.0
528,117.12500976041666,117.4730867125,60.0,69.0
529,117.35577901041667,117.54616364166667,50.0,41.0
530,116.66347126041667,117.61924057083333,45.0,54.0
531,117.58654826041666,117.807702125,53.0,66.0
532,117.58654826041666,117.84039443541667,57.0,75.0
533,117.58654826041666,117.88462520833333,62.0,73.0
534,116.43270201041666,117.89424059375,38.0,66.0
535,117.81731751041667,117.900009825,50.0,49.0
536,117.81731751041667,117.95000982916666,45.0,34.0
537,118.04808676041667,118.21731754375,53.0,58.0
538,118.27885601041666,118.75962528125,58.0,73.0
539,118.27885601041666,118.78077912916666,53.0,72.0
540,118.27885601041666,118.78077912916666,62.0,72.0
541,118.27885601041666,118.81347143958334,65.0,66.0
542,118.97116376041667,119.10193300208333,53.0,44.0
543,118.74039451041666,119.28654840208333,46.0,45.0
544,119.20193301041667,119.40770225833333,65.0,49.0
545,119.20193301041667,119.49616380416667,53.0,72.0
546,119.20193301041667,119.51924072916667,62.0,75.0
547,119.20193301041667,119.52500996041667,58.0,73.0
548,118.27885601041666,119.7230869,34.0,67.0
549,119.43270226041666,119.84616383333334,46.0,57.0
550,119.66347151041667,119.98077922916667,53.0,49.0
551,119.89424076041666,120.05193308125,60.0,61.0
552,120.12501001041666,120.51347158125,53.0,64.0
553,120.12501001041666,120.52885619791667,62.0,67.0
554,120.12501001041666,120.61347158958333,58.0,69.0
555,120.81731776041667,120.96731777291667,53.0,44.0
556,120.58654851041666,121.13654855625,48.0,45.0
557,121.04808701041667,121.34808703541667,53.0,73.0
558,121.04808701041667,121.3730870375,58.0,76.0
559,121.04808701041667,121.37693319166667,62.0,75.0
560,120.12501001041666,121.5115485875,36.0,70.0
561,121.27885626041666,121.52885628125,48.0,51.0
562,121.50962551041667,121.6961639875,53.0,60.0
563,121.74039476041666,121.9038563125,58.0,67.0
564,121.97116401041667,122.33462557916667,41.0,61.0
565,122.20193326041667,122.3653948125,48.0,48.0
566,121.97116401041667,122.60962560208333,60.0,43.0
567,122.43270251041666,122.69424099375,53.0,46.0
568,121.97116401041667,122.87501023958333,65.0,53.0
569,121.97116401041667,123.07116410208333,72.0,61.0
570,122.66347176041667,123.18077949583333,55.0,50.0
571,123.35577951041667,123.58270260625,65.0,52.0
572,123.58654876041666,123.94424109791666,67.0,60.0
573,123.81731801041667,124.13270265208334,69.0,60.0
574,124.74039501041666,124.8346257875,72.0,56.0
575,123.12501026041667,124.91924117916666,60.0,62.0
576,122.89424101041666,124.94039502708333,57.0,52.0
577,125.66347201041667,126.15193358958334,60.0,64.0
578,125.66347201041667,126.17116436041667,65.0,67.0
579,126.58654901041666,126.95001057916667,62.0,53.0
580,126.58654901041666,126.97501058125,65.0,60.0
581,126.58654901041666,127.59808755625,58.0,44.0
582,127.50962601041667,127.91731835208333,62.0,44.0
583,127.50962601041667,127.93847219999999,60.0,38.0
584,127.50962601041667,127.98462605,65.0,46.0
585,127.97116451041667,128.47693378333332,58.0,31.0
586,128.43270301041667,128.69039533958332,62.0,67.0
587,126.12501051041667,128.69616457083333,53.0,52.0
588,128.43270301041667,128.70385687916666,65.0,60.0
589,128.43270301041667,128.70962611041668,60.0,61.0
590,125.66347201041667,128.73077995833333,46.0,69.0
591,129.35578001041665,129.7500108125,58.0,56.0
592,129.35578001041665,129.75578004375,53.0,51.0
593,129.35578001041665,129.7730877375,62.0,61.0
594,129.81731851041667,130.41154932916666,48.0,36.0
595,130.27885701041666,130.62116473125,62.0,61.0
596,130.27885701041666,130.65770319583334,58.0,61.0
597,129.35578001041665,130.87501090625,36.0,56.0
598,130.74039551041668,131.31731863541665,48.0,37.0
599,131.20193401041666,131.61347250625,60.0,53.0
600,131.20193401041666,131.63654943125,55.0,51.0
601,131.20193401041666,131.68078020416667,64.0,69.0
602,131.20193401041666,132.28654948541666,36.0,46.0
603,131.66347251041665,132.40001103333333,48.0,40.0
604,132.12501101041667,132.4500110375,60.0,57.0
605,132.12501101041667,132.4500110375,65.0,56.0
606,132.58654951041666,132.70770336666666,67.0,62.0
607,132.58654951041666,132.70962644375,60.0,46.0
608,133.04808801041668,133.54231882083334,60.0,53.0
609,133.04808801041668,133.63270344375,65.0,61.0
610,133.50962651041667,134.03847270833333,53.0,45.0
611,133.97116501041666,134.37116504375,62.0,45.0
612,133.97116501041666,134.39039581458334,58.0,30.0
613,133.97116501041666,134.39616504583333,60.0,40.0
614,133.97116501041666,134.4000112,65.0,49.0
615,134.43270351041667,134.95962663125,53.0,36.0
616,134.89424201041666,135.37308820416666,60.0,45.0
617,134.89424201041666,135.37308820416666,62.0,48.0
618,134.89424201041666,135.40770359166666,65.0,54.0
619,134.89424201041666,135.52308821666668,58.0,33.0
620,135.58654976041666,135.87116516875,53.0,37.0
621,135.81731901041667,136.06539595416666,60.0,62.0
622,135.81731901041667,136.07693441666666,65.0,66.0
623,136.04808826041668,136.20385750416668,53.0,57.0
624,133.04808801041668,136.25385750833334,46.0,53.0
625,136.27885751041666,136.47116521875,60.0,48.0
626,136.50962676041667,136.60962676875,62.0,58.0
627,136.74039601041667,137.15962681458333,58.0,59.0
628,136.74039601041667,137.16731912291667,62.0,70.0
629,137.43270376041667,137.515396075,53.0,43.0
630,137.20193451041666,137.79808840625,48.0,34.0
631,137.66347301041665,138.01731919375,53.0,80.0
632,137.66347301041665,138.0346268875,58.0,75.0
633,137.66347301041665,138.08654996875,62.0,73.0
634,136.74039601041667,138.16347305208333,36.0,62.0
635,138.12501151041667,138.2423192125,48.0,56.0
636,138.35578076041668,138.48847307916665,53.0,40.0
637,138.58655001041666,138.65578078541665,55.0,80.0
638,138.58655001041666,138.70770386666666,60.0,80.0
639,138.58655001041666,138.76539617916666,64.0,73.0
640,138.81731926041667,138.93655003958332,48.0,51.0
641,138.58655001041666,139.16731928958333,36.0,78.0
642,139.04808851041668,139.22116544791666,48.0,63.0
643,139.27885776041666,139.40962700208334,60.0,82.0
644,139.27885776041666,139.60001163333334,65.0,76.0
645,139.27885776041666,139.82885780625,38.0,73.0
646,139.74039626041667,139.83655011458333,60.0,78.0
647,139.74039626041667,139.85385780833334,67.0,73.0
648,139.97116551041665,140.06155013333333,40.0,72.0
649,140.43270401041667,140.78462711666666,60.0,73.0
650,140.43270401041667,140.79808865625,57.0,82.0
651,140.43270401041667,140.80770404166665,65.0,80.0
652,140.89424251041666,141.15770407083332,53.0,51.0
653,141.12501176041667,141.3807810125,55.0,76.0
654,141.12501176041667,141.48270409791667,60.0,72.0
655,141.58655026041666,141.75962719791667,57.0,72.0
656,141.58655026041666,141.80962720208333,65.0,73.0
657,140.43270401041667,141.90385797916667,41.0,73.0
658,141.81731951041667,142.04039645208334,53.0,48.0
659,140.66347326041668,142.07501183958334,48.0,61.0
660,142.04808876041668,142.69808881458334,60.0,70.0
661,142.04808876041668,142.75385805,55.0,64.0
662,142.74039651041667,142.97501191458332,53.0,60.0
663,142.97116576041665,143.30001194166667,55.0,78.0
664,142.97116576041665,143.38655041041667,60.0,78.0
665,142.27885801041666,143.51155042083334,41.0,75.0
666,142.50962726041666,143.53078119166668,48.0,69.0
667,143.43270426041667,143.54039657708333,53.0,44.0
668,143.66347351041668,143.86347352708333,55.0,75.0
669,143.66347351041668,143.91539660833334,65.0,75.0
670,144.12501201041667,144.4961658875,57.0,70.0
671,144.12501201041667,144.51347358125,65.0,62.0
672,144.12501201041667,144.52116588958333,53.0,75.0
673,143.89424276041666,144.54039666041666,40.0,50.0
674,144.12501201041667,144.54424281458333,60.0,69.0
675,144.58655051041666,144.95578131041665,50.0,38.0
676,144.81731976041667,145.11731978541667,57.0,78.0
677,144.81731976041667,145.19424286875,53.0,78.0
678,144.81731976041667,145.21347363958333,60.0,78.0
679,144.12501201041667,145.45193519791667,38.0,69.0
680,145.50962751041666,145.67116598541668,53.0,56.0
681,145.27885826041665,145.77308907083332,50.0,60.0
682,145.74039676041667,145.823089075,57.0,60.0
683,145.74039676041667,145.86347369375,60.0,64.0
684,145.97116601041665,146.23462757083334,65.0,49.0
685,145.97116601041665,146.25385834166667,53.0,75.0
686,145.97116601041665,146.25385834166667,57.0,69.0
687,145.97116601041665,146.26539680416667,60.0,60.0
688,146.43270451041667,146.50770451666668,53.0,48.0
689,146.20193526041666,146.69616607083333,50.0,53.0
690,146.66347376041668,147.09616610416666,57.0,78.0
691,146.66347376041668,147.12116610625,65.0,57.0
692,146.66347376041668,147.12501226041667,60.0,76.0
693,146.66347376041668,147.12885841458333,53.0,80.0
694,145.97116601041665,147.15385841666668,38.0,70.0
695,147.12501226041667,147.29808919791665,50.0,66.0
696,147.35578151041668,147.55385845,57.0,85.0
697,147.35578151041668,147.58078152916667,53.0,88.0
698,147.35578151041668,147.60770460833334,65.0,60.0
699,147.35578151041668,147.65578153541668,60.0,80.0
700,147.58655076041666,147.86732001458333,41.0,56.0
701,147.81732001041667,147.94039694375,65.0,60.0
702,147.81732001041667,148.12885849791667,53.0,85.0
703,147.81732001041667,148.14424311458333,62.0,80.0
704,147.81732001041667,148.16924311666668,58.0,78.0
705,148.27885851041665,148.40962775208334,53.0,39.0
706,147.81732001041667,148.79232009166665,43.0,60.0
707,148.50962776041666,148.88847394583334,53.0,73.0
708,148.50962776041666,148.91732010208332,58.0,75.0
709,148.50962776041666,148.95385856666667,62.0,72.0
710,148.97116626041665,149.43270476041667,43.0,49.0
711,149.20193551041666,149.49424322708333,53.0,52.0
712,149.43270476041667,149.53078169166668,58.0,63.0
713,149.66347401041668,149.930781725,48.0,72.0
714,149.66347401041668,150.1961663625,60.0,70.0
715,149.66347401041668,150.22885867291666,64.0,75.0
716,149.66347401041668,150.23078175,67.0,72.0
717,150.12501251041667,150.52693562083334,48.0,48.0
718,150.58655101041666,150.6807817875,48.0,39.0
719,150.58655101041666,150.71924332916666,60.0,56.0
720,149.66347401041668,150.73655102291667,36.0,70.0
721,150.81732026041666,151.04039720208334,36.0,76.0
722,150.81732026041666,151.05578181875,64.0,85.0
723,150.81732026041666,151.05578181875,67.0,75.0
724,150.81732026041666,151.06155105,48.0,88.0
725,150.81732026041666,151.0730895125,60.0,88.0
726,151.50962801041666,151.85193573125,53.0,53.0
727,151.50962801041666,151.95962804791665,60.0,78.0
728,151.50962801041666,152.01155112916666,57.0,78.0
729,151.50962801041666,152.09616652083332,65.0,73.0
730,152.20193576041666,152.80770504166668,53.0,61.0
731,152.66347426041668,153.11347429791667,55.0,58.0
732,152.66347426041668,153.1384743,60.0,59.0
733,153.35578201041668,154.11155130416665,55.0,43.0
734,153.35578201041668,154.11732053541667,57.0,47.0
735,153.35578201041668,154.11732053541667,60.0,48.0
736,153.35578201041668,154.6500128875,65.0,42.0
737,154.27885901041665,154.70962827708334,55.0,39.0
738,154.50962826041666,154.73270520208334,57.0,45.0
739,153.12501276041667,154.79232059166665,53.0,35.0
740,151.50962801041666,154.80962828541666,41.0,56.0
741,154.74039751041667,154.99808983958334,60.0,47.0
742,155.20193601041666,155.80001298333335,69.0,65.0
743,155.20193601041666,155.8038591375,60.0,67.0
744,155.20193601041666,155.81347452291666,65.0,74.0
745,155.20193601041666,156.34808995208334,53.0,47.0
746,156.12501301041667,156.65578228541668,60.0,52.0
747,156.12501301041667,156.65578228541668,65.0,52.0
748,156.12501301041667,156.65962843958334,69.0,51.0
749,156.12501301041667,156.67308997916666,67.0,51.0
750,156.58655151041665,157.23655156458332,53.0,21.0
751,157.04809001041667,157.50193620208333,69.0,46.0
752,157.04809001041667,157.50770543333334,65.0,51.0
753,157.04809001041667,157.51732081875,60.0,51.0
754,157.04809001041667,157.53847466666667,67.0,63.0
755,157.50962851041666,158.03270547708334,53.0,24.0
756,155.20193601041666,158.12116702291667,41.0,38.0
757,157.97116701041668,158.20578241458333,60.0,65.0
758,157.97116701041668,158.26347472708332,65.0,77.0
759,157.97116701041668,158.330782425,69.0,72.0
760,158.43270551041667,158.62501321875,60.0,52.0
761,158.43270551041667,158.66924399166666,67.0,74.0
762,158.89424401041666,159.59424406875,60.0,52.0
763,158.89424401041666,159.59424406875,69.0,56.0
764,158.89424401041666,159.63078253333333,64.0,60.0
765,158.89424401041666,160.13270565208333,57.0,57.0
766,159.81732101041666,160.36347490208334,60.0,54.0
767,159.81732101041666,160.36347490208334,69.0,59.0
768,159.81732101041666,160.40193644375,64.0,61.0
769,158.89424401041666,160.6500133875,45.0,61.0
770,160.27885951041665,160.77501339791667,57.0,52.0
771,160.74039801041667,161.44232114583332,69.0,56.0
772,160.74039801041667,161.47501345625,60.0,56.0
773,160.74039801041667,161.47501345625,65.0,59.0
774,160.74039801041667,161.97309042083333,50.0,49.0
775,161.66347501041668,162.40770584166665,60.0,62.0
776,161.66347501041668,162.45385969166668,69.0,67.0
777,161.66347501041668,162.48078277083334,65.0,67.0
778,162.12501351041666,162.49039815625,50.0,67.0
779,162.58655201041665,162.93270588541665,70.0,38.0
780,162.58655201041665,163.0500135875,65.0,62.0
781,162.58655201041665,163.05578281875,62.0,57.0
782,162.58655201041665,163.93462904583333,58.0,39.0
783,163.50962901041666,164.02501366875,62.0,64.0
784,163.50962901041666,164.1115521375,65.0,70.0
785,163.50962901041666,164.13847521666668,70.0,57.0
786,162.58655201041665,164.23270599375,46.0,55.0
787,164.43270601041667,165.115398375,62.0,75.0
788,164.43270601041667,165.11732145208333,58.0,73.0
789,164.43270601041667,165.13270606875,67.0,72.0
790,164.43270601041667,165.76732150625,55.0,62.0
791,164.43270601041667,165.89616767083334,43.0,67.0
792,165.35578301041667,165.92309075,62.0,72.0
793,165.35578301041667,165.93847536666667,58.0,64.0
794,165.35578301041667,166.04424460625,67.0,70.0
795,166.27886001041668,167.02116776458334,67.0,76.0
796,166.27886001041668,167.02501391875,60.0,70.0
797,166.27886001041668,167.03270622708334,64.0,76.0
798,166.27886001041668,167.3884754875,48.0,59.0
799,167.20193701041666,167.60193704375,67.0,73.0
800,167.20193701041666,167.64039858541668,64.0,75.0
801,167.20193701041666,167.65001397083333,60.0,72.0
802,166.27886001041668,167.68078320416666,36.0,67.0
803,167.66347551041667,168.10193708541667,48.0,49.0
804,168.12501401041666,168.44232172916668,60.0,61.0
805,168.12501401041666,168.45578326875,64.0,63.0
806,168.12501401041666,168.54039866041666,72.0,73.0
807,168.58655251041665,169.32501411041667,48.0,49.0
808,169.04809101041667,169.35386026666666,72.0,64.0
809,169.04809101041667,169.47886027708333,76.0,88.0
810,168.12501401041666,169.51732181875,36.0,63.0
811,169.50962951041666,169.91155262083333,48.0,54.0
812,169.50962951041666,169.91732185208332,74.0,69.0
813,169.50962951041666,169.91732185208332,77.0,69.0
814,170.43270651041666,171.11347579791666,53.0,51.0
815,170.89424501041665,171.37501428125,60.0,73.0
816,170.89424501041665,171.37501428125,65.0,69.0
817,170.89424501041665,171.3807835125,57.0,73.0
818,171.35578351041667,172.05578356875,53.0,31.0
819,171.81732201041666,172.315398975,57.0,63.0
820,171.81732201041666,172.315398975,60.0,67.0
821,171.81732201041666,172.3269374375,65.0,60.0
822,169.97116801041668,172.74039901041667,41.0,63.0
823,172.27886051041668,172.91924517916667,53.0,37.0
824,173.20193751041666,173.26732213125,53.0,48.0
825,172.74039901041667,173.45386060833334,65.0,66.0
826,172.74039901041667,173.469245225,57.0,73.0
827,172.74039901041667,173.4807836875,60.0,73.0
828,173.20193751041666,173.48655291875,40.0,74.0
829,173.66347601041667,174.40962991875,65.0,70.0
830,173.66347601041667,174.41732222708333,57.0,75.0
831,173.66347601041667,174.4500145375,60.0,73.0
832,173.66347601041667,174.90770688333333,50.0,70.0
833,174.58655301041668,175.17501459791666,65.0,70.0
834,174.58655301041668,175.20770690833334,57.0,72.0
835,174.58655301041668,175.2115530625,60.0,75.0
836,175.04809151041667,175.69424541041667,50.0,27.0
837,175.50963001041666,176.00193774375,57.0,60.0
838,175.50963001041666,176.01155312916666,60.0,63.0
839,175.50963001041666,176.10770698333334,65.0,60.0
840,175.97116851041667,176.64424548958334,50.0,42.0
841,173.66347601041667,176.94424551458334,38.0,69.0
842,176.43270701041666,176.9653993625,65.0,60.0
843,176.43270701041666,176.98078397916666,57.0,60.0
844,176.43270701041666,176.99232244166666,60.0,67.0
845,176.89424551041665,177.06732244791667,50.0,61.0
846,177.35578401041667,177.77693789166668,58.0,73.0
847,177.35578401041667,177.79232250833334,62.0,69.0
848,177.81732251041666,178.30770716666666,50.0,41.0
849,177.35578401041667,178.71732258541667,43.0,60.0
850,178.27886101041668,178.71732258541667,67.0,61.0
851,178.27886101041668,178.72886104791667,58.0,56.0
852,178.27886101041668,178.74424566458333,62.0,64.0
853,178.27886101041668,178.76347643541666,55.0,48.0
854,178.74039951041667,179.27693801666666,50.0,48.0
855,179.20193801041665,179.53655342291665,58.0,56.0
856,179.20193801041665,179.5500149625,62.0,63.0
857,179.20193801041665,179.56924573333333,67.0,61.0
858,179.66347651041667,180.16924578333334,50.0,41.0
859,180.12501501041666,180.29039963958334,62.0,64.0
860,180.12501501041666,180.47886119375,70.0,75.0
861,179.20193801041665,180.65386120833332,43.0,66.0
862,180.12501501041666,180.6577073625,55.0,44.0
863,180.58655351041668,180.98463046666666,50.0,60.0
864,180.58655351041668,181.01924585416666,65.0,70.0
865,181.04809201041667,181.23655356458335,64.0,49.0
866,181.04809201041667,181.453861275,60.0,63.0
867,181.04809201041667,181.58655359375,67.0,72.0
868,181.97116901041667,182.238476725,60.0,47.0
869,181.04809201041667,182.35193827291667,48.0,59.0
870,181.50963051041666,182.38078442916665,55.0,49.0
871,181.97116901041667,182.42693827916668,65.0,69.0
872,182.43270751041666,182.6653998375,67.0,62.0
873,182.89424601041665,183.25193834791668,53.0,58.0
874,182.89424601041665,183.28078450416666,58.0,49.0
875,182.89424601041665,183.32501527708334,62.0,57.0
876,182.89424601041665,183.39424605208333,36.0,70.0
877,183.35578451041667,183.68270761458334,48.0,59.0
878,183.81732301041666,184.25963073958334,38.0,46.0
879,183.81732301041666,184.29809228125,64.0,73.0
880,183.81732301041666,184.31924612916666,60.0,66.0
881,184.27886151041668,184.58463076666666,40.0,69.0
882,184.74040001041666,185.21347697291665,58.0,73.0
883,184.74040001041666,185.22501543541668,65.0,67.0
884,185.43270776041666,185.80963086875,57.0,70.0
885,185.20193851041665,185.9077078,53.0,58.0
886,184.74040001041666,186.4269386125,41.0,73.0
887,185.89424626041668,186.45386169166667,58.0,73.0
888,184.97116926041667,186.62886170625,48.0,60.0
889,186.58655401041668,186.669246325,65.0,54.0
890,186.35578476041667,186.70193863541667,53.0,56.0
891,186.58655401041668,186.70963094375,41.0,70.0
892,186.58655401041668,186.70963094375,60.0,69.0
893,186.58655401041668,186.71347709791667,57.0,67.0
894,186.81732326041666,186.946169425,57.0,80.0
895,186.81732326041666,186.946169425,60.0,76.0
896,186.81732326041666,186.95001557916666,65.0,73.0
897,186.81732326041666,186.95578481041667,53.0,76.0
898,186.81732326041666,186.99424635208334,41.0,76.0
899,187.50963101041665,187.83655411458332,36.0,70.0
900,187.50963101041665,187.99809258958334,55.0,70.0
901,187.74040026041666,188.02309259166665,38.0,63.0
902,187.50963101041665,188.08078490416668,60.0,67.0
903,187.50963101041665,188.09040028958333,64.0,80.0
904,187.97116951041667,188.1346310625,40.0,78.0
905,188.20193876041665,188.30001569166666,55.0,48.0
906,188.43270801041666,188.90001574166666,57.0,73.0
907,188.43270801041666,188.91155420416666,65.0,72.0
908,188.43270801041666,188.92501574375,60.0,72.0
909,188.89424651041668,189.41347732291666,53.0,57.0
910,189.12501576041666,189.55193887291668,55.0,47.0
911,189.35578501041667,189.6923235,60.0,76.0
912,188.43270801041666,189.84040043541665,41.0,72.0
913,189.58655426041668,189.89040043958335,53.0,61.0
914,188.66347726041667,190.21924662083333,48.0,64.0
915,189.81732351041666,190.59809280625,55.0,49.0
916,190.04809276041667,190.7423235875,65.0,69.0
917,190.74040051041666,190.83655436458332,53.0,69.0
918,190.50963126041665,190.84616975,48.0,64.0
919,190.27886201041667,190.8577082125,41.0,66.0
920,190.97116976041667,191.49232365,55.0,66.0
921,191.20193901041665,191.5730928875,64.0,67.0
922,191.43270826041666,191.76347751875,52.0,63.0
923,191.66347751041667,191.92501599375,55.0,55.0
924,191.89424676041668,192.11155447083334,64.0,72.0
925,191.20193901041665,192.17693909166667,40.0,80.0
926,192.35578526041667,192.57501604791668,50.0,62.0
927,192.12501601041666,192.61540066666666,60.0,61.0
928,192.12501601041666,192.61924682083333,57.0,64.0
929,192.12501601041666,192.853862225,65.0,69.0
930,192.12501601041666,193.16347763541665,38.0,69.0
931,193.04809301041666,193.34616995833332,57.0,56.0
932,192.81732376041666,193.35386226666665,53.0,64.0
933,192.58655451041668,193.36732380625,52.0,46.0
934,193.27886226041667,193.57693920833333,60.0,54.0
935,193.74040076041666,193.82693922916667,67.0,53.0
936,193.50963151041665,193.86347769374999,64.0,57.0
937,194.43270851041666,194.67309314583332,50.0,49.0
938,193.97117001041667,194.700016225,60.0,55.0
939,193.97117001041667,194.70770853333335,65.0,64.0
940,194.20193926041668,194.89424701041668,45.0,63.0
941,193.97117001041667,195.03270856041667,38.0,61.0
942,194.89424701041668,195.32117012291667,53.0,67.0
943,194.66347776041667,195.346170125,52.0,64.0
944,195.12501626041666,195.38463166666668,64.0,63.0
945,195.35578551041667,195.66347784375,65.0,61.0
946,195.58655476041667,195.76732400625,60.0,64.0
947,195.81732401041666,196.16924711666667,62.0,66.0
948,196.27886251041667,196.58270868958334,58.0,60.0
949,196.50963176041665,196.82501640208332,65.0,69.0
950,196.50963176041665,196.84040101875,60.0,60.0
951,196.50963176041665,197.03078565,62.0,64.0
952,195.81732401041666,197.07309334583334,46.0,69.0
953,196.97117026041667,197.15963181458332,58.0,58.0
954,196.04809326041666,197.19040104791665,53.0,64.0
955,197.20193951041668,197.48463184166667,60.0,60.0
956,197.43270876041666,198.10963189375,62.0,66.0
957,197.66347801041667,198.14424728125,60.0,60.0
958,197.66347801041667,198.14424728125,65.0,64.0
959,198.35578576041667,198.50193961875,60.0,58.0
960,198.12501651041666,198.6461704,58.0,56.0
961,198.58655501041667,198.70770886666668,62.0,66.0
962,198.58655501041667,198.87886272708334,60.0,63.0
963,198.58655501041667,198.97309350416666,65.0,76.0
964,198.81732426041665,198.98847812083332,58.0,64.0
965,197.66347801041667,199.13463197916667,46.0,70.0
966,197.89424726041668,199.13655505625,53.0,54.0
967,199.04809351041666,199.35770892083335,60.0,59.0
968,199.27886276041667,199.44809354375,65.0,72.0
969,199.50963201041665,199.94809358541667,60.0,62.0
970,199.50963201041665,199.98463205,65.0,67.0
971,200.20193976041668,200.54040132708334,60.0,56.0
972,200.43270901041666,200.66155518333332,65.0,47.0
973,199.74040126041666,200.70193980208333,53.0,61.0
974,199.50963201041665,200.72693980416668,48.0,67.0
975,200.66347826041667,200.85770904583333,67.0,62.0
976,199.97117051041667,200.99232444166665,55.0,60.0
977,200.89424751041668,201.02501675208333,60.0,51.0
978,201.12501676041666,201.53847833333333,60.0,60.0
979,201.12501676041666,201.63655526458334,64.0,78.0
980,201.35578601041667,201.69040142291666,48.0,70.0
981,201.58655526041667,201.86155528333333,55.0,60.0
982,201.81732451041665,201.93655528958334,60.0,57.0
983,201.81732451041665,201.99424760208333,65.0,62.0
984,202.04809376041666,202.20963223541668,60.0,62.0
985,202.04809376041666,202.28463224166666,67.0,69.0
986,201.81732451041665,202.31732455208333,50.0,62.0
987,202.50963226041665,202.62501688541667,64.0,50.0
988,202.50963226041665,202.65770919583332,60.0,59.0
989,202.74040151041666,202.83270921041665,55.0,75.0
990,202.27886301041667,202.84040151874999,52.0,54.0
991,202.50963226041665,202.86155536666666,70.0,72.0
992,202.97117076041667,203.100016925,60.0,54.0
993,203.20194001041668,203.51924772916666,65.0,70.0
994,203.20194001041668,203.53078619166666,69.0,72.0
995,203.20194001041668,203.56732465625,60.0,64.0
996,203.89424776041668,203.96924776666665,57.0,21.0
997,203.66347851041667,204.14617085833333,53.0,61.0
998,204.12501701041666,204.37501703125,57.0,57.0
999,204.12501701041666,204.39809395625,65.0,73.0
1000,204.12501701041666,204.45963242291666,60.0,75.0
1001,203.20194001041668,204.60386320416666,41.0,69.0
1002,204.35578626041666,204.66540167083332,53.0,55.0
1003,203.43270926041666,204.89040168958334,48.0,67.0
1004,204.58655551041667,205.51347866458335,57.0,55.0
1005,204.81732476041665,205.52886328125,64.0,67.0
1006,205.04809401041666,205.55194020625,65.0,69.0
1007,205.50963251041668,205.72694022083334,53.0,61.0
1008,205.04809401041666,205.73847868333334,41.0,73.0
1009,205.27886326041667,205.823094075,48.0,64.0
1010,205.74040176041666,205.89424792708334,57.0,57.0
1011,205.97117101041667,206.03270947708333,57.0,43.0
1012,205.97117101041667,206.15578641041665,60.0,69.0
1013,205.97117101041667,206.31732488541667,65.0,73.0
1014,206.43270951041666,206.50770951666667,52.0,50.0
1015,206.20194026041668,206.53270951875,57.0,58.0
1016,206.43270951041666,206.57886336875,40.0,66.0
1017,206.43270951041666,206.79809415625,64.0,70.0
1018,206.89424801041667,207.27501727291667,57.0,57.0
1019,206.89424801041667,207.27501727291667,60.0,63.0
1020,206.89424801041667,207.27694035,65.0,63.0
1021,207.35578651041666,207.83463270416667,50.0,50.0
1022,207.81732501041665,208.07117118541666,60.0,67.0
1023,207.81732501041665,208.0961711875,53.0,51.0
1024,208.04809426041666,208.26732504791667,50.0,48.0
1025,206.89424801041667,208.28847889583332,38.0,72.0
1026,208.27886351041667,208.55578661041667,53.0,55.0
1027,207.12501726041666,208.592325075,45.0,61.0
1028,208.74040201041666,209.20963281875,62.0,63.0
1029,208.50963276041668,209.238478975,57.0,60.0
1030,208.74040201041666,209.24809436041667,53.0,63.0
1031,209.20194051041668,209.49809438125,50.0,58.0
1032,209.43270976041666,209.75963286458332,53.0,72.0
1033,209.43270976041666,209.7807867125,60.0,69.0
1034,209.66347901041667,209.85386364166666,50.0,41.0
1035,208.97117126041667,209.92694057083332,45.0,54.0
1036,209.89424826041667,210.115402125,53.0,66.0
1037,209.89424826041667,210.14809443541665,57.0,75.0
1038,209.89424826041667,210.19232520833333,62.0,73.0
1039,208.74040201041666,210.20194059375,38.0,66.0
1040,210.12501751041665,210.207709825,50.0,49.0
1041,210.12501751041665,210.25770982916666,45.0,34.0
1042,210.35578676041666,210.52501754375,53.0,58.0
1043,210.58655601041667,211.06732528125,58.0,73.0
1044,210.58655601041667,211.08847912916667,53.0,72.0
1045,210.58655601041667,211.08847912916667,62.0,72.0
1046,210.58655601041667,211.12117143958332,65.0,66.0
1047,211.27886376041667,211.40963300208332,53.0,44.0
1048,211.04809451041666,211.59424840208334,46.0,45.0
1049,211.50963301041668,211.71540225833334,65.0,49.0
1050,211.50963301041668,211.80386380416667,53.0,72.0
1051,211.50963301041668,211.82694072916667,62.0,75.0
1052,211.50963301041668,211.83270996041668,58.0,73.0
1053,210.58655601041667,212.0307869,34.0,67.0
1054,211.74040226041666,212.15386383333333,46.0,57.0
1055,211.97117151041667,212.28847922916665,53.0,49.0
1056,212.20194076041668,212.35963308125,60.0,61.0
1057,212.43271001041666,212.82117158124998,53.0,64.0
1058,212.43271001041666,212.83655619791668,62.0,67.0
1059,212.43271001041666,212.92117158958334,58.0,69.0
1060,213.12501776041665,213.27501777291667,53.0,44.0
1061,212.89424851041667,213.44424855625,48.0,45.0
1062,213.35578701041666,213.65578703541667,53.0,73.0
1063,213.35578701041666,213.6807870375,58.0,76.0
1064,213.35578701041666,213.68463319166668,62.0,75.0
1065,212.43271001041666,213.8192485875,36.0,70.0
1066,213.58655626041667,213.83655628125,48.0,51.0
1067,213.81732551041665,214.0038639875,53.0,60.0
1068,214.04809476041666,214.2115563125,58.0,67.0
1069,214.27886401041667,214.64232557916665,41.0,61.0
1070,214.50963326041668,214.6730948125,48.0,48.0
1071,214.27886401041667,214.91732560208334,60.0,43.0
1072,214.74040251041666,215.00194099375,53.0,46.0
1073,214.27886401041667,215.18271023958334,65.0,53.0
1074,214.27886401041667,215.37886410208333,72.0,61.0
1075,214.97117176041667,215.48847949583333,55.0,50.0
1076,215.66347951041666,215.89040260625,65.0,52.0
1077,215.89424876041667,216.25194109791667,67.0,60.0
1078,216.12501801041665,216.44040265208332,69.0,60.0
1079,217.04809501041666,217.1423257875,72.0,56.0
1080,215.43271026041666,217.22694117916666,60.0,62.0
1081,215.20194101041668,217.24809502708334,57.0,52.0
1082,217.97117201041667,218.19424895208334,41.0,69.0
1083,218.20194126041667,218.50771051666666,53.0,51.0
1084,217.97117201041667,218.58847975416666,65.0,66.0
1085,217.97117201041667,218.5961720625,60.0,66.0
1086,217.97117201041667,218.700018225,69.0,67.0
1087,218.43271051041665,218.80963361875,55.0,54.0
1088,218.66347976041666,218.92309516666666,57.0,52.0
1089,218.89424901041667,219.05578748541666,60.0,55.0
1090,219.12501826041665,219.31540289166668,65.0,72.0
1091,219.35578751041666,219.576941375,67.0,66.0
1092,219.81732601041668,220.33271066875,60.0,62.0
1093,219.58655676041667,220.33271066875,72.0,64.0
1094,219.81732601041668,220.35578759375,69.0,67.0
1095,220.04809526041666,220.66540300416668,48.0,63.0
1096,220.50963376041668,220.684633775,60.0,72.0
1097,219.81732601041668,220.68847992916668,41.0,70.0
1098,220.74040301041666,220.93078764166665,67.0,63.0
1099,220.27886451041667,221.23463382083332,53.0,75.0
1100,220.97117226041667,221.25771074583332,69.0,73.0
1101,221.20194151041667,221.51155692083333,72.0,67.0
1102,221.20194151041667,221.63848000833335,52.0,54.0
1103,221.43271076041665,221.6423261625,69.0,70.0
1104,221.66348001041666,221.86540310416666,69.0,52.0
1105,221.66348001041666,221.91348003125,72.0,45.0
1106,221.66348001041666,221.98463388333334,60.0,78.0
1107,221.66348001041666,221.99232619166668,65.0,72.0
1108,222.12501851041665,222.45386469166667,60.0,55.0
1109,221.89424926041667,222.65578778541666,57.0,58.0
1110,222.35578776041666,222.70578778958333,65.0,73.0
1111,222.58655701041667,222.75963394791665,60.0,49.0
1112,222.58655701041667,222.89617242083332,67.0,72.0
1113,221.66348001041666,223.24617245,50.0,76.0
1114,223.04809551041666,223.32886476458333,60.0,55.0
1115,222.81732626041668,223.43655708125,57.0,61.0
1116,223.27886476041667,223.57117247708334,67.0,69.0
1117,223.50963401041668,223.82886480625,60.0,67.0
1118,223.50963401041668,223.87501865625,72.0,70.0
1119,223.97117251041666,224.05963405625,72.0,34.0
1120,223.97117251041666,224.12501867708332,60.0,67.0
1121,223.74040326041666,224.26348022708333,57.0,57.0
1122,224.20194176041667,224.29424946041667,72.0,39.0
1123,224.20194176041667,224.5038648625,60.0,70.0
1124,224.20194176041667,224.51155717083333,67.0,63.0
1125,224.43271101041665,224.75578796041665,57.0,50.0
1126,223.50963401041668,224.98078797916668,50.0,64.0
1127,224.66348026041666,224.98463413333334,60.0,63.0
1128,224.89424951041667,225.14809568541668,65.0,67.0
1129,225.12501876041665,225.30578800625,67.0,70.0
1130,225.35578801041666,225.82694189583333,60.0,66.0
1131,225.35578801041666,225.86155728333333,65.0,75.0
1132,226.04809576041666,226.25963423958333,60.0,61.0
1133,225.81732651041668,226.32886501458333,58.0,63.0
1134,226.27886501041667,226.61540349999999,62.0,76.0
1135,225.35578801041666,226.70386504583334,46.0,72.0
1136,226.50963426041668,226.80578813125,58.0,60.0
1137,226.74040351041666,226.99232660833334,60.0,61.0
1138,225.58655726041667,227.10578815625,53.0,60.0
1139,226.97117276041666,227.18848047083333,62.0,72.0
1140,227.20194201041667,227.67309589583334,60.0,61.0
1141,227.20194201041667,227.68271128125,65.0,70.0
1142,227.43271126041665,228.13463439583333,53.0,67.0
1143,227.66348051041666,228.20194209375,58.0,76.0
1144,227.89424976041667,228.26924979166665,60.0,53.0
1145,228.12501901041668,228.35963441458333,65.0,78.0
1146,227.20194201041667,228.45963442291668,46.0,72.0
1147,228.35578826041666,228.63078828333335,53.0,67.0
1148,228.58655751041667,228.7961729125,62.0,63.0
1149,228.81732676041668,229.00001908333334,65.0,75.0
1150,229.04809601041666,229.14617294166666,58.0,56.0
1151,229.04809601041666,229.49040373958334,62.0,63.0
1152,229.27886526041667,230.09232686666667,55.0,59.0
1153,229.97117301041666,230.15001917916666,65.0,48.0
1154,229.50963451041667,230.16155764166666,60.0,61.0
1155,229.04809601041666,230.4923269,48.0,66.0
1156,230.20194226041667,230.60386537083332,67.0,64.0
1157,230.43271151041665,230.75578846041665,55.0,72.0
1158,230.66348076041666,230.82309615833333,60.0,66.0
1159,230.89425001041667,231.17694234166666,60.0,64.0
1160,230.89425001041667,231.24617311666665,64.0,88.0
1161,230.89425001041667,231.26348081041667,48.0,67.0
1162,231.35578851041666,231.63848084166668,62.0,70.0
1163,231.12501926041668,231.71925007916667,50.0,61.0
1164,231.35578851041666,231.72501931041666,65.0,70.0
1165,231.81732701041668,231.91540394166665,67.0,47.0
1166,231.81732701041668,231.92886548125,60.0,62.0
1167,231.58655776041667,231.96348086875,48.0,22.0
1168,231.58655776041667,232.1884808875,55.0,63.0
1169,232.27886551041667,232.34809628541666,64.0,88.0
1170,232.27886551041667,232.3730962875,60.0,73.0
1171,232.27886551041667,232.38078859583334,52.0,58.0
1172,232.27886551041667,232.42309629166667,70.0,73.0
1173,232.50963476041667,232.58655784375,70.0,36.0
1174,232.74040401041665,233.12501942708334,41.0,72.0
1175,232.97117326041666,233.18848097083333,48.0,55.0
1176,232.74040401041665,233.35578867708332,69.0,72.0
1177,232.74040401041665,233.45963483958334,60.0,66.0
1178,233.20194251041667,233.49809638125,53.0,64.0
1179,232.74040401041665,233.57117331041667,65.0,63.0
1180,233.43271176041665,233.76540409583333,55.0,58.0
1181,233.89425026041667,234.07694258333333,60.0,67.0
1182,233.66348101041666,234.09425027708332,57.0,63.0
1183,234.12501951041668,234.1846349,60.0,38.0
1184,234.12501951041668,234.47501953958334,65.0,78.0
1185,234.35578876041666,234.48655800208334,60.0,43.0
1186,234.35578876041666,234.68848109583334,67.0,67.0
1187,234.58655801041667,235.06155805,65.0,46.0
1188,234.58655801041667,235.09425036041665,60.0,60.0
1189,234.58655801041667,235.09425036041665,69.0,70.0
1190,235.04809651041666,235.31925037916668,53.0,64.0
1191,235.27886576041666,235.32309653333334,65.0,73.0
1192,235.27886576041666,235.58848117083332,60.0,72.0
1193,235.27886576041666,235.60771194166668,72.0,82.0
1194,234.81732726041668,235.60963501875,48.0,64.0
1195,235.50963501041667,235.62117348125,53.0,55.0
1196,234.58655801041667,235.6269427125,41.0,69.0
1197,235.74040426041665,236.01732736041666,60.0,72.0
1198,235.74040426041665,236.25386584166665,67.0,78.0
1199,235.97117351041666,236.33463507916667,40.0,56.0
1200,236.20194276041667,236.5038658625,69.0,72.0
1201,236.43271201041668,236.65001972083334,38.0,66.0
1202,236.66348126041666,236.96732743958333,50.0,72.0
1203,236.43271201041668,237.14809668541668,60.0,82.0
1204,236.43271201041668,237.16732745625,65.0,76.0
1205,237.35578901041666,237.52501979375,60.0,72.0
1206,237.12501976041668,237.58655826041667,55.0,69.0
1207,236.89425051041667,237.59617364583332,53.0,57.0
1208,237.58655826041667,237.761558275,65.0,66.0
1209,237.81732751041667,238.0730967625,67.0,73.0
1210,238.04809676041666,238.37886601875,72.0,69.0
1211,238.27886601041666,238.4884814125,38.0,69.0
1212,238.50963526041667,238.79809682291668,50.0,58.0
1213,238.27886601041666,238.99809683958333,60.0,73.0
1214,238.27886601041666,239.03078915,69.0,73.0
1215,239.20194301041667,239.37117379375,60.0,88.0
1216,239.43271226041668,239.59425073541667,65.0,59.0
1217,238.97117376041666,239.64617381666667,55.0,56.0
1218,238.74040451041665,239.65578920208333,53.0,58.0
1219,239.66348151041666,239.84425075625,67.0,78.0
1220,239.89425076041667,240.07117385208332,69.0,62.0
1221,240.12502001041668,240.59232774166668,58.0,73.0
1222,240.12502001041668,240.60194312708333,67.0,75.0
1223,240.12502001041668,240.63848159166668,62.0,78.0
1224,240.81732776041667,240.99809700625,58.0,60.0
1225,240.58655851041667,241.06155855,55.0,63.0
1226,241.04809701041665,241.37502011458332,62.0,72.0
1227,240.12502001041668,241.58078936249998,43.0,75.0
1228,241.27886626041666,241.63078936666668,55.0,49.0
1229,241.50963551041667,241.81348168958334,58.0,59.0
1230,240.35578926041666,241.823097075,50.0,63.0
1231,241.74040476041665,241.93078939166668,65.0,73.0
1232,241.97117401041666,242.45002020416666,58.0,70.0
1233,241.97117401041666,242.51155867083332,67.0,63.0
1234,242.66348176041666,242.81732792708334,58.0,82.0
1235,242.43271251041668,242.95578947708333,55.0,63.0
1236,241.97117401041666,243.25771257916668,48.0,72.0
1237,243.12502026041668,243.27694335,55.0,64.0
1238,242.89425101041667,243.40771259166667,62.0,72.0
1239,243.35578951041666,243.58463568333335,65.0,70.0
1240,243.58655876041666,243.75578954375,67.0,63.0
1241,243.81732801041667,243.86925109166665,67.0,59.0
1242,243.81732801041667,244.27309727916668,65.0,85.0
1243,243.81732801041667,244.31925112916667,58.0,69.0
1244,244.50963576041667,244.69809731458332,58.0,64.0
1245,244.74040501041665,245.00963580208332,60.0,61.0
1246,244.97117426041666,245.13848196666666,65.0,54.0
1247,244.27886651041666,245.31155890416667,53.0,72.0
1248,245.20194351041667,245.4577127625,67.0,69.0
1249,245.43271276041668,245.55386661666665,69.0,62.0
1250,245.66348201041666,245.87502048958333,72.0,75.0
1251,243.81732801041667,246.70002055833334,41.0,69.0
1252,244.04809726041665,246.7500205625,48.0,56.0
1253,246.58655901041666,246.77886671875,77.0,62.0
1254,245.66348201041666,246.79040518125,53.0,53.0
1255,246.81732826041667,247.01155904583334,72.0,58.0
1256,247.04809751041665,247.22502060208333,77.0,58.0
1257,247.27886676041666,247.50194370208334,79.0,57.0
1258,247.50963601041667,247.89617450416665,53.0,64.0
1259,247.74040526041668,247.94232835416668,60.0,53.0
1260,247.97117451041666,248.25963607291666,65.0,53.0
1261,247.50963601041667,248.39809762291665,81.0,69.0
1262,248.20194376041667,248.63271302708333,67.0,55.0
1263,248.43271301041668,248.82117458125,69.0,61.0
1264,248.66348226041666,248.83271304375,72.0,46.0
1265,248.89425151041667,249.1038669125,77.0,54.0
1266,249.12502076041667,249.78655927708334,84.0,62.0
1267,249.35579001041665,249.85002082083332,65.0,48.0
1268,249.35579001041665,249.89232851666665,72.0,48.0
1269,249.35579001041665,250.09232853333333,81.0,64.0
1270,250.27886701041666,250.48655933541667,72.0,61.0
1271,250.27886701041666,250.5346362625,79.0,70.0
1272,250.50963626041667,250.78271320625,81.0,67.0
1273,250.74040551041668,250.97694399166667,79.0,54.0
1274,250.97117476041666,251.1577132375,77.0,67.0
1275,250.27886701041666,251.1807901625,64.0,76.0
1276,251.20194401041667,251.55579019375,72.0,67.0
1277,251.20194401041667,251.57502096458333,77.0,66.0
1278,251.66348251041666,251.82502098541667,72.0,57.0
1279,251.43271326041668,252.15194408958334,69.0,61.0
1280,251.89425176041667,252.40579026458335,72.0,56.0
1281,251.89425176041667,252.46348257708334,77.0,58.0
1282,252.35579026041665,252.75771337083333,69.0,53.0
1283,252.58655951041666,252.79232875833333,79.0,62.0
1284,252.81732876041667,253.53079035833332,81.0,48.0
1285,253.04809801041665,253.61925190416667,72.0,58.0
1286,253.04809801041665,254.12117502291667,69.0,53.0
1287,253.97117501041666,254.21732887708333,77.0,91.0
1288,253.97117501041666,254.22309810833335,72.0,76.0
1289,251.20194401041667,254.27502118958333,62.0,67.0
1290,254.89425201041666,255.40002128333333,62.0,60.0
1291,254.89425201041666,255.51732898541667,65.0,64.0
1292,254.89425201041666,255.58655976041666,70.0,58.0
1293,255.81732901041667,256.1154059583333,62.0,73.0
1294,256.0480982604167,256.32117520625,65.0,64.0
1295,255.58655976041666,256.4192521375,58.0,64.0
1296,254.89425201041666,256.4692521416667,46.0,69.0
1297,256.27886751041666,256.50963676041664,69.0,57.0
1298,255.35579051041665,256.56925215,53.0,47.0
1299,256.50963676041664,256.8596367895833,70.0,37.0
1300,256.7404060104167,257.3211752895833,60.0,57.0
1301,256.7404060104167,257.33655990625,67.0,37.0
1302,256.7404060104167,257.35194452291665,64.0,66.0
1303,257.66348301041666,258.17694459166665,60.0,49.0
1304,257.66348301041666,258.22694459583334,64.0,62.0
1305,257.66348301041666,258.53848308333335,67.0,49.0
1306,256.7404060104167,258.77694464166666,48.0,64.0
1307,256.7404060104167,258.78079079583335,55.0,59.0
1308,260.0904062895833,260.37117554375,60.0,45.0
1309,260.19425245208333,260.7327140354167,67.0,66.0
1310,261.03848329166664,261.14232945416666,58.0,44.0
1311,261.27694485,261.38656024375,60.0,66.0
1312,261.5211756395833,261.67309872916667,65.0,63.0
1313,261.77886796875,262.05579106875,70.0,44.0
1314,262.0250218354167,262.12694492083335,72.0,67.0
1315,262.2904064729167,262.4923295666667,77.0,70.0
1316,262.6019449604167,262.7904065145833,82.0,54.0
1317,262.91156037083334,263.1019450020833,84.0,56.0
1318,263.28656040208335,263.49425272708334,89.0,51.0
1319,263.70579120625,263.8307912166667,88.0,49.0
1320,260.78656019375,264.2577143291667,53.0,63.0
1321,260.15579091041667,264.3673297229167,41.0,70.0
1322,260.53271401874997,264.4615605,48.0,57.0
1323,264.6423297458333,264.9904066979167,77.0,42.0
1324,264.72117590625,265.31348364791666,81.0,53.0
1325,264.7923297583333,265.3346374958333,84.0,59.0
1326,264.89425284375,265.42694519583335,89.0,57.0
