,start,end,pitch,velocity
0,20.000234889583332,20.23410587291667,71.0,90.0
1,20.242170389583336,20.47604137291667,69.0,83.0
2,20.484105889583333,21.201847872916666,71.0,90.0
3,21.209912389583334,21.44378337291667,69.0,79.0
4,21.451847889583334,21.685718872916667,71.0,90.0
5,21.693783389583334,22.411525372916667,71.0,90.0
6,22.419589889583335,22.895396372916668,69.0,93.0
7,22.903460889583336,23.13733187291667,71.0,82.0
8,23.145396389583336,23.62120287291667,64.0,80.0
9,23.629267389583333,27.734106372916667,67.0,84.0
10,27.742170889583335,27.976041872916667,71.0,90.0
11,27.984106389583335,28.217977372916668,71.0,90.0
12,28.226041889583335,28.70184837291667,71.0,98.0
13,28.709912889583336,28.94378387291667,71.0,93.0
14,28.951848389583336,29.42765487291667,69.0,84.0
15,29.435719389583333,29.91152587291667,69.0,75.0
16,29.919590389583334,30.153461372916667,69.0,82.0
17,30.161525889583334,30.637332372916667,67.0,83.0
18,30.645396889583335,30.879267872916667,67.0,84.0
19,30.887332389583335,31.121203372916668,64.0,83.0
20,31.129267889583335,35.71797787291667,62.0,79.0
21,35.726042389583334,35.95991337291667,62.0,73.0
22,35.96797788958334,36.44378437291667,71.0,84.0
23,36.45184888958333,36.685719872916664,67.0,79.0
24,36.693784389583335,37.16959087291667,71.0,86.0
25,37.177655389583336,37.653461872916665,69.0,83.0
26,37.66152638958334,37.89539737291667,67.0,84.0
27,37.90346188958334,38.13733287291667,67.0,86.0
28,38.14539738958334,38.62120387291667,67.0,86.0
29,38.62926838958333,38.86313937291666,67.0,90.0
30,38.871203889583335,39.105074872916674,64.0,84.0
31,39.11313938958334,43.21797837291666,69.0,90.0
32,43.22604288958334,43.45991387291667,69.0,83.0
33,43.46797838958334,43.70184937291667,69.0,90.0
34,43.70991388958333,44.18572037291666,69.0,86.0
35,44.19378488958334,44.427655872916674,62.0,78.0
36,44.43572038958334,44.91152687291667,69.0,80.0
37,44.91959138958333,45.63733337291667,71.0,86.0
38,45.645397889583336,46.121204372916665,71.0,90.0
39,46.12926888958333,46.60507537291667,69.0,84.0
40,46.61313988958334,50.95991437291667,67.0,93.0
41,50.967978889583335,51.20184987291667,71.0,86.0
42,51.20991438958333,51.443785372916665,71.0,86.0
43,51.45184988958333,51.92765637291667,71.0,84.0
44,51.93572088958334,52.16959187291667,67.0,83.0
45,52.17765638958333,52.65346287291666,71.0,83.0
46,52.66152738958334,53.13733387291667,69.0,80.0
47,53.145398389583335,53.37926937291667,69.0,86.0
48,53.38733388958333,53.621204872916664,67.0,90.0
49,53.62926938958334,54.10507587291667,67.0,86.0
50,54.113140389583336,54.34701137291667,67.0,83.0
51,54.35507588958333,54.830882372916676,64.0,98.0
52,54.83894688958334,58.94378587291666,67.0,84.0
53,58.95185038958334,59.185721372916674,62.0,59.0
54,59.19378588958334,59.66959237291667,71.0,90.0
55,59.67765688958333,59.911527872916665,67.0,82.0
56,59.91959238958334,60.39539887291667,71.0,98.0
57,60.40346338958334,60.879269872916666,69.0,95.0
58,60.88733438958333,61.363140872916674,67.0,72.0
59,61.37120538958334,61.84701187291667,67.0,80.0
60,61.85507638958333,62.088947372916664,67.0,83.0
61,62.09701188958334,62.57281837291667,64.0,81.0
62,62.580882889583336,66.68572187291667,62.0,76.0
63,66.69378638958334,66.92765737291667,62.0,73.0
64,66.93572188958333,67.41152837291666,71.0,84.0
65,67.41959288958334,67.65346387291667,67.0,79.0
66,67.66152838958334,68.13733487291667,71.0,86.0
67,68.14539938958333,68.86314137291667,69.0,83.0
68,68.87120588958334,69.34701237291667,67.0,86.0
69,69.35507688958333,69.58894787291668,67.0,86.0
70,69.59701238958334,69.83088337291667,64.0,84.0
71,69.83894788958334,74.42765787291667,69.0,90.0
72,74.43572238958333,74.66959337291667,69.0,90.0
73,74.67765788958333,75.15346437291667,69.0,86.0
74,75.16152888958334,75.39539987291667,69.0,78.0
75,75.40346438958333,75.87927087291666,69.0,80.0
76,75.88733538958333,76.60507737291667,62.0,86.0
77,76.61314188958333,77.08894837291666,69.0,90.0
78,77.09701288958334,77.33088387291667,67.0,84.0
79,77.33894838958334,78.29862587291667,67.0,93.0
80,78.30669038958334,81.92765837291667,64.0,68.0
81,81.93572288958333,82.16959387291666,76.0,86.0
82,82.17765838958333,82.41152937291666,76.0,86.0
83,82.41959388958334,82.89540037291667,76.0,101.0
84,82.90346488958333,83.13733587291667,76.0,100.0
85,83.14540038958333,83.86314237291667,76.0,100.0
86,83.87120688958333,84.34701337291666,74.0,94.0
87,84.35507788958333,84.83088437291667,74.0,94.0
88,84.83894888958334,85.79862637291667,74.0,94.0
89,85.80669088958334,89.66959437291666,64.0,93.0
90,89.67765888958333,89.91152987291667,76.0,98.0
91,89.91959438958334,90.15346537291667,76.0,94.0
92,90.16152988958333,90.63733637291666,76.0,98.0
93,90.64540088958333,90.87927187291666,76.0,98.0
94,90.88733638958334,91.60507837291667,79.0,98.0
95,91.61314288958333,92.08894937291667,76.0,95.0
96,92.09701388958334,92.57282037291667,74.0,95.0
97,92.58088488958333,92.81475587291666,74.0,95.0
98,92.82282038958333,97.41153037291667,71.0,98.0
99,97.41959488958334,97.65346587291667,76.0,86.0
100,97.66153038958333,97.89540137291667,74.0,86.0
101,97.90346588958333,98.37927237291667,76.0,84.0
102,98.38733688958334,98.62120787291667,74.0,84.0
103,98.62927238958333,99.34701437291666,76.0,90.0
104,99.35507888958334,99.83088537291667,74.0,94.0
105,99.83894988958333,100.31475637291666,74.0,95.0
106,100.32282088958334,100.55669187291667,67.0,79.0
107,100.56475638958334,102.25024037291666,69.0,90.0
108,102.25830488958333,102.49217587291666,67.0,86.0
109,102.50024038958334,105.15346637291667,64.0,84.0
110,105.16153088958333,105.39540187291666,69.0,83.0
111,105.40346638958333,105.63733737291666,69.0,90.0
112,105.64540188958334,106.12120837291667,69.0,91.0
113,106.12927288958333,106.36314387291667,69.0,95.0
114,106.37120838958333,107.33088587291667,69.0,94.0
115,107.33895038958333,107.57282137291666,71.0,95.0
116,107.58088588958333,108.05669237291667,71.0,98.0
117,108.06475688958334,108.29862787291667,69.0,98.0
118,108.30669238958333,108.41959562291667,71.0,83.0
119,108.42766013958334,108.54056337291667,69.0,76.0
120,108.54862788958333,112.41959588958333,67.0,86.0
121,143.87121088958335,144.10508187291668,76.0,86.0
122,144.11314638958336,144.3470173729167,76.0,86.0
123,144.35508188958335,144.8308883729167,76.0,101.0
124,144.83895288958334,145.07282387291667,76.0,100.0
125,145.08088838958335,145.79863037291668,76.0,100.0
126,145.80669488958335,146.2825013729167,74.0,94.0
127,146.29056588958335,146.7663723729167,74.0,94.0
128,146.77443688958334,147.73411437291668,74.0,94.0
129,147.74217888958336,151.60508237291668,64.0,93.0
130,151.61314688958336,151.8470178729167,76.0,98.0
131,151.85508238958334,152.08895337291668,76.0,94.0
132,152.09701788958336,152.57282437291667,76.0,98.0
133,152.58088888958335,152.81475987291668,76.0,98.0
134,152.82282438958336,153.5405663729167,79.0,98.0
135,153.54863088958336,154.02443737291668,76.0,95.0
136,154.03250188958336,154.50830837291667,74.0,95.0
137,154.51637288958335,154.75024387291668,74.0,95.0
138,154.75830838958336,159.3470183729167,71.0,98.0
139,159.35508288958334,159.58895387291668,76.0,86.0
140,159.59701838958335,159.8308893729167,74.0,86.0
141,159.83895388958337,160.31476037291668,76.0,84.0
142,160.32282488958336,160.5566958729167,74.0,84.0
143,160.56476038958334,161.2825023729167,76.0,90.0
144,161.29056688958335,161.7663733729167,74.0,94.0
145,161.77443788958334,162.25024437291668,74.0,95.0
146,162.25830888958336,162.4921798729167,67.0,79.0
147,162.50024438958334,164.18572837291669,69.0,90.0
148,164.19379288958336,164.4276638729167,67.0,86.0
149,164.43572838958335,167.08895437291667,64.0,84.0
150,167.09701888958335,167.33088987291669,69.0,83.0
151,167.33895438958336,167.5728253729167,69.0,90.0
152,167.58088988958335,168.0566963729167,69.0,91.0
153,168.06476088958334,168.29863187291667,69.0,95.0
154,168.30669638958335,169.2663738729167,69.0,94.0
155,169.27443838958334,169.5083093729167,71.0,95.0
156,169.51637388958335,169.9921803729167,71.0,98.0
157,170.00024488958334,170.23411587291668,69.0,98.0
158,170.24218038958335,170.35508362291668,71.0,83.0
159,170.36314813958336,170.4760513729167,69.0,76.0
160,170.48411588958336,174.83089037291668,67.0,86.0
161,174.83895488958336,175.0728258729167,76.0,86.0
162,175.08089038958335,175.31476137291668,76.0,86.0
163,175.32282588958336,175.7986323729167,76.0,101.0
164,175.80669688958335,176.04056787291668,76.0,100.0
165,176.04863238958336,176.7663743729167,76.0,100.0
166,176.77443888958337,177.25024537291668,74.0,94.0
167,177.25830988958336,177.73411637291667,74.0,94.0
168,177.74218088958335,178.2179873729167,74.0,94.0
169,178.22605188958335,182.5728263729167,64.0,93.0
170,182.58089088958334,182.81476187291668,76.0,98.0
171,182.82282638958335,183.0566973729167,76.0,94.0
172,183.06476188958337,183.54056837291668,76.0,98.0
173,183.54863288958336,183.7825038729167,76.0,98.0
174,183.79056838958334,184.5083103729167,79.0,98.0
175,184.51637488958335,184.9921813729167,76.0,95.0
176,185.00024588958334,185.47605237291668,74.0,95.0
177,185.48411688958336,185.7179878729167,74.0,95.0
178,185.72605238958334,190.31476237291668,71.0,98.0
179,190.32282688958335,190.5566978729167,76.0,86.0
180,190.56476238958336,190.7986333729167,76.0,86.0
181,190.80669788958335,191.2825043729167,76.0,84.0
182,191.29056888958334,191.52443987291667,74.0,84.0
183,191.53250438958335,192.25024637291668,76.0,90.0
184,192.25831088958336,192.7341173729167,74.0,94.0
185,192.74218188958335,193.05669803958335,74.0,95.0
186,193.06476255625003,193.45992387291668,74.0,95.0
187,193.46798838958335,193.7018593729167,67.0,79.0
188,193.70992388958337,198.05669837291669,69.0,90.0
189,198.06476288958336,198.2986338729167,69.0,83.0
190,198.30669838958335,198.54056937291668,69.0,90.0
191,198.54863388958336,199.0244403729167,69.0,91.0
192,199.03250488958335,199.26637587291668,69.0,95.0
193,199.27444038958336,199.5083113729167,69.0,94.0
194,199.51637588958334,200.2341178729167,69.0,94.0
195,200.24218238958335,200.95992437291667,71.0,95.0
196,200.96798888958335,201.20185987291669,69.0,98.0
197,201.20992438958336,201.3228276229167,71.0,83.0
198,201.33089213958334,201.4437953729167,69.0,76.0
199,201.45185988958335,205.3147633729167,67.0,86.0
