,start,end,pitch,velocity
0,17.978435091666668,18.112055683333335,72.0,108.0
1,18.237055591666667,18.3620555,74.0,100.0
2,18.495676091666667,18.6659345875,75.0,112.0
3,18.754296591666666,18.85774479166667,74.0,100.0
4,19.01291709166667,19.137917,72.0,108.0
5,19.271537591666668,19.642226975,75.0,109.0
6,19.788778591666667,19.900847475,74.0,105.0
7,20.047399091666666,20.168088658333335,72.0,105.0
8,20.30601959166667,20.7090365375,75.0,109.0
9,20.823260591666667,21.7047254625,74.0,111.0
10,22.374983591666666,22.52584555,70.0,102.0
11,22.63360409166667,22.999983133333334,70.0,105.0
12,23.150845091666667,23.30170705,72.0,97.0
13,23.409465591666667,24.709033604166667,72.0,102.0
14,26.25429109166667,26.379291000000002,72.0,111.0
15,26.51291159166667,26.624980475,74.0,108.0
16,26.771532091666668,26.8900664875,75.0,112.0
17,27.030152591666667,27.13360079166667,74.0,102.0
18,27.288773091666666,27.409462658333336,72.0,105.0
19,27.54739359166667,27.933169170833335,75.0,109.0
20,28.064634591666668,28.1702379625,74.0,105.0
21,28.323255091666667,28.450410170833333,72.0,108.0
22,28.581875591666666,28.918082241666667,77.0,108.0
23,29.099116591666668,29.963340095833335,74.0,111.0
24,30.650839591666667,30.7952360375,70.0,96.0
25,30.909460091666666,31.245666741666668,72.0,108.0
26,31.42670109166667,31.56894236666667,79.0,111.0
27,31.685321591666668,32.148683320833335,79.0,111.0
28,32.20256259166667,33.75213042083333,75.0,99.0
29,34.53014709166667,34.6616125125,72.0,108.0
30,34.78876759166667,34.92885369583333,74.0,100.0
31,35.04738809166667,35.1788535125,75.0,105.0
32,35.30600859166667,35.42238781666667,75.0,105.0
33,35.56462909166667,35.67454280416667,75.0,102.0
34,35.823249591666666,35.95902535416667,75.0,93.0
35,36.081870091666666,36.37712849583333,75.0,112.0
36,36.59911109166667,36.726266170833334,72.0,100.0
37,36.85773159166667,37.206869266666665,75.0,112.0
38,37.37497259166667,38.2693684875,77.0,102.0
39,39.18531609166667,39.29307463333333,74.0,108.0
40,39.44393659166667,39.5495399625,74.0,100.0
41,39.70255709166667,39.799539779166665,74.0,102.0
42,39.96117759166667,40.079711987500005,74.0,97.0
43,40.21979809166667,40.52367717916667,74.0,100.0
44,40.73703909166667,40.870659683333336,70.0,109.0
45,40.995659591666666,41.39005585416667,77.0,108.0
46,41.51290059166667,42.355572387500004,75.0,102.0
47,43.06462359166667,43.20039935416667,70.0,105.0
48,43.323244091666666,43.67884727916667,79.0,111.0
49,43.84048509166667,43.980571195833335,77.0,108.0
50,44.09910559166667,44.237036525,75.0,112.0
51,44.35772609166667,44.7348809875,79.0,108.0
52,44.87496709166667,45.010742854166665,77.0,102.0
53,45.13358759166667,45.27582886666667,75.0,109.0
54,45.39220809166667,46.04522485416667,77.0,111.0
55,46.168069591666665,46.3253970625,70.0,109.0
56,46.42669009166667,46.72194849583334,70.0,112.0
57,46.94393109166667,47.068931,77.0,97.0
58,47.20255159166667,47.88143040416667,77.0,108.0
59,47.97841309166667,49.950394404166666,75.0,102.0
60,50.30599759166667,50.45470437916667,79.0,105.0
61,50.56461809166667,50.70470419583334,79.0,117.0
62,50.823238591666666,50.956859183333336,77.0,111.0
63,51.08185909166667,51.221945195833335,75.0,112.0
64,51.34047959166667,51.480565695833334,74.0,97.0
65,51.59910009166667,51.974099816666666,72.0,111.0
66,52.11634109166667,52.24996168333333,68.0,112.0
67,52.37496159166667,53.0172025,72.0,111.0
68,53.150823091666666,53.536598670833335,79.0,108.0
69,53.66806409166667,54.265046412500006,77.0,111.0
70,54.44392559166667,54.55383930416667,77.0,108.0
71,54.70254609166667,54.834011512500005,77.0,111.0
72,54.96116659166667,55.079700987500004,75.0,112.0
73,55.21978709166667,55.32108012083334,74.0,111.0
74,55.47840759166667,55.61849369583334,72.0,114.0
75,55.737028091666666,56.13142435416667,70.0,112.0
76,56.25426909166667,56.374958658333334,67.0,102.0
77,56.51288959166667,57.148664987500005,70.0,109.0
78,57.28875109166667,57.685302525000004,77.0,108.0
79,57.80599209166667,58.37926753333333,75.0,105.0
80,58.58185359166667,58.7133190125,75.0,109.0
81,58.84047409166667,58.99133605,75.0,109.0
82,59.09909459166667,59.196077279166666,74.0,108.0
83,59.35771509166667,59.4891805125,72.0,105.0
84,59.61633559166667,59.728404475000005,74.0,105.0
85,59.87495609166667,60.209007570833336,75.0,112.0
86,60.39219709166667,60.530128025,68.0,102.0
87,60.650817591666666,61.13357585833334,68.0,112.0
88,61.16805859166667,61.517196266666666,75.0,105.0
89,61.68529959166667,61.84478223333333,75.0,112.0
90,61.94392009166667,62.31891981666667,74.0,111.0
91,62.46116109166667,62.59693685416667,75.0,112.0
92,62.71978159166667,63.079695120833335,77.0,108.0
93,63.75426359166667,63.93529794166667,74.0,102.0
94,64.01288409166666,66.1033998,70.0,102.0
95,66.85770959166668,66.99348535416667,79.0,100.0
96,67.11633009166667,67.25641619583334,79.0,108.0
97,67.37495059166667,67.4805539625,77.0,105.0
98,67.63357109166667,67.7650365125,75.0,112.0
99,67.89219159166667,68.01934667083333,74.0,97.0
100,68.15081209166667,68.44822566666667,72.0,114.0
101,68.66805309166666,68.81675987916667,68.0,109.0
102,68.92667359166667,69.426673225,72.0,105.0
103,69.70253509166668,69.8598625625,79.0,108.0
104,69.96115559166667,70.86417217083334,77.0,111.0
105,70.99563759166666,71.11632715833333,77.0,97.0
106,71.25425809166667,71.38572351250001,77.0,111.0
107,71.51287859166666,71.624947475,75.0,116.0
108,71.77149909166667,71.88787831666667,74.0,102.0
109,72.03011959166668,72.15727467083333,72.0,108.0
110,72.28874009166667,72.659429475,70.0,109.0
111,72.80598109166667,73.20253252500001,82.0,109.0
112,73.32322209166666,73.69822181666667,82.0,109.0
113,73.84046309166666,73.97408368333333,80.0,102.0
114,74.09908359166667,74.443910925,80.0,105.0
115,74.61632459166667,75.2133069125,79.0,82.0
116,75.39218609166667,75.79304786666667,77.0,111.0
117,75.90942709166667,76.280116475,79.0,120.0
118,76.42666809166667,76.80166781666667,80.0,112.0
119,76.94390909166667,77.07968485416667,79.0,108.0
120,77.20252959166667,77.573218975,75.0,109.0
121,77.71977059166667,78.1227875375,72.0,108.0
122,78.49563209166666,78.84476976666667,70.0,105.0
123,79.01287309166668,79.35339008333334,79.0,105.0
124,79.53011409166668,79.86632074166667,77.0,108.0
125,80.04735509166667,80.15295846250001,75.0,105.0
126,80.30597559166667,80.8641648375,77.0,102.0
127,80.82321659166666,83.107697675,75.0,112.0
128,117.28870709166667,117.42232768333334,72.0,108.0
129,117.54732759166667,117.67232750000001,74.0,100.0
130,117.80594809166666,117.9762065875,75.0,112.0
131,118.06456859166667,118.16801679166667,74.0,100.0
132,118.32318909166668,118.448189,72.0,108.0
133,118.58180959166667,118.95249897500001,75.0,109.0
134,119.09905059166667,119.211119475,74.0,105.0
135,119.35767109166667,119.47836065833334,72.0,105.0
136,119.61629159166667,120.01930853750001,75.0,109.0
137,120.13353259166666,121.0149974625,74.0,111.0
138,121.68525559166667,121.83611755000001,70.0,102.0
139,121.94387609166667,122.31025513333334,70.0,105.0
140,122.46111709166667,122.61197905,72.0,97.0
141,122.71973759166667,124.01930560416668,72.0,102.0
142,125.56456309166667,125.689563,72.0,111.0
143,125.82318359166668,125.935252475,74.0,108.0
144,126.08180409166667,126.2003384875,75.0,112.0
145,126.34042459166668,126.44387279166668,74.0,102.0
146,126.59904509166667,126.71973465833334,72.0,105.0
147,126.85766559166667,127.24344117083334,75.0,109.0
148,127.37490659166667,127.48050996250001,74.0,105.0
149,127.63352709166668,127.76068217083333,72.0,108.0
150,127.89214759166667,128.22835424166666,77.0,108.0
151,128.40938859166667,129.27361209583333,74.0,111.0
152,129.96111159166668,130.10550803750002,70.0,96.0
153,130.21973209166669,130.55593874166667,72.0,108.0
154,130.73697309166667,130.87921436666667,79.0,111.0
155,130.99559359166668,131.45895532083333,79.0,111.0
156,131.51283459166666,133.06240242083334,75.0,99.0
157,133.84041909166666,133.9718845125,72.0,108.0
158,134.09903959166667,134.23912569583334,74.0,100.0
159,134.35766009166667,134.4891255125,75.0,105.0
160,134.61628059166668,134.73265981666668,75.0,105.0
161,134.87490109166666,134.98481480416666,75.0,102.0
162,135.13352159166666,135.26929735416667,75.0,93.0
163,135.39214209166667,135.68740049583334,75.0,112.0
164,135.90938309166668,136.03653817083332,72.0,100.0
165,136.16800359166666,136.51714126666667,75.0,112.0
166,136.68524459166667,137.5796404875,77.0,102.0
167,138.49558809166666,138.60334663333333,74.0,108.0
168,138.75420859166667,138.8598119625,74.0,100.0
169,139.01282909166667,139.10981177916668,74.0,102.0
170,139.27144959166668,139.38998398750002,74.0,97.0
171,139.53007009166666,139.83394917916667,74.0,100.0
172,140.04731109166667,140.18093168333334,70.0,109.0
173,140.30593159166668,140.70032785416666,77.0,108.0
174,140.82317259166666,141.66584438750002,75.0,102.0
175,142.37489559166667,142.51067135416667,70.0,105.0
176,142.63351609166668,142.98911927916666,79.0,111.0
177,143.15075709166666,143.29084319583333,77.0,108.0
178,143.40937759166667,143.547308525,75.0,112.0
179,143.66799809166668,144.04515298750002,79.0,108.0
180,144.18523909166666,144.32101485416666,77.0,102.0
181,144.44385959166667,144.58610086666667,75.0,109.0
182,144.70248009166667,145.35549685416666,77.0,111.0
183,145.47834159166666,145.6356690625,70.0,109.0
184,145.73696209166667,146.03222049583334,70.0,112.0
185,146.25420309166668,146.37920300000002,77.0,97.0
186,146.51282359166666,147.19170240416668,77.0,108.0
187,147.28868509166668,149.26066640416667,75.0,102.0
188,149.61626959166668,149.76497637916668,79.0,105.0
189,149.87489009166669,150.01497619583333,79.0,117.0
190,150.13351059166666,150.26713118333333,77.0,111.0
191,150.39213109166667,150.53221719583334,75.0,112.0
192,150.65075159166668,150.79083769583335,74.0,97.0
193,150.90937209166668,151.28437181666666,72.0,111.0
194,151.42661309166667,151.56023368333334,68.0,112.0
195,151.68523359166667,152.3274745,72.0,111.0
196,152.46109509166666,152.84687067083334,79.0,108.0
197,152.97833609166668,153.5753184125,77.0,111.0
198,153.75419759166667,153.86411130416667,77.0,108.0
199,154.01281809166667,154.1442835125,77.0,111.0
200,154.27143859166668,154.38997298750002,75.0,112.0
201,154.5300590916667,154.63135212083333,74.0,111.0
202,154.78867959166666,154.92876569583333,72.0,114.0
203,155.04730009166667,155.44169635416668,70.0,112.0
204,155.56454109166668,155.68523065833335,67.0,102.0
205,155.82316159166666,156.4589369875,70.0,109.0
206,156.59902309166668,156.995574525,77.0,108.0
207,157.11626409166666,157.68953953333335,75.0,105.0
208,157.89212559166668,158.02359101250002,75.0,109.0
209,158.15074609166666,158.30160805,75.0,109.0
210,158.40936659166667,158.50634927916667,74.0,108.0
211,158.66798709166667,158.7994525125,72.0,105.0
212,158.92660759166668,159.03867647500002,74.0,105.0
213,159.1852280916667,159.51927957083333,75.0,112.0
214,159.70246909166667,159.840400025,68.0,102.0
215,159.96108959166668,160.44384785833333,68.0,112.0
216,160.47833059166666,160.82746826666667,75.0,105.0
217,160.99557159166667,161.15505423333335,75.0,112.0
218,161.25419209166668,161.62919181666666,74.0,111.0
219,161.77143309166667,161.90720885416667,75.0,112.0
220,162.03005359166667,162.38996712083335,77.0,108.0
221,163.06453559166667,163.24556994166667,74.0,102.0
222,163.32315609166668,165.4136718,70.0,102.0
223,166.16798159166666,166.30375735416666,79.0,100.0
224,166.42660209166667,166.56668819583334,79.0,108.0
225,166.68522259166667,166.7908259625,77.0,105.0
226,166.94384309166668,167.07530851250002,75.0,112.0
227,167.20246359166669,167.32961867083333,74.0,97.0
228,167.46108409166666,167.75849766666667,72.0,114.0
229,167.97832509166668,168.12703187916668,68.0,109.0
230,168.23694559166668,168.736945225,72.0,105.0
231,169.01280709166667,169.1701345625,79.0,108.0
232,169.27142759166668,170.17444417083334,77.0,111.0
233,170.30590959166668,170.42659915833335,77.0,97.0
234,170.56453009166668,170.69599551250002,77.0,111.0
235,170.82315059166666,170.935219475,75.0,116.0
236,171.08177109166667,171.19815031666667,74.0,102.0
237,171.34039159166667,171.46754667083334,72.0,108.0
238,171.59901209166668,171.969701475,70.0,109.0
239,172.11625309166666,172.512804525,82.0,109.0
240,172.63349409166668,173.0084938166667,82.0,109.0
241,173.15073509166666,173.28435568333333,80.0,102.0
242,173.40935559166667,173.754182925,80.0,105.0
243,173.92659659166668,174.5235789125,79.0,82.0
244,174.70245809166667,175.10331986666668,77.0,111.0
245,175.21969909166668,175.590388475,79.0,120.0
246,175.73694009166667,176.11193981666668,80.0,112.0
247,176.25418109166668,176.38995685416668,79.0,108.0
248,176.5128015916667,176.883490975,75.0,109.0
249,177.03004259166667,177.43305953750001,72.0,108.0
250,177.80590409166666,178.15504176666667,70.0,105.0
251,178.32314509166667,178.66366208333335,79.0,105.0
252,178.8403860916667,179.17659274166667,77.0,108.0
253,179.35762709166667,179.4632304625,75.0,105.0
254,179.61624759166668,180.1744368375,77.0,102.0
255,180.13348859166666,182.417969675,75.0,112.0
256,184.27141659166668,184.37270962083335,75.0,109.0
257,184.53003709166669,184.65503700000002,75.0,109.0
258,184.78865759166666,184.89857130416667,75.0,116.0
259,185.04727809166667,185.38348474166668,75.0,116.0
260,185.56451909166668,185.68089831666668,75.0,112.0
261,185.82313959166666,186.33607025,75.0,112.0
262,186.34038059166667,186.64210450833335,77.0,82.0
263,186.85762159166669,188.14641375,77.0,120.0
264,188.40934459166667,188.5408100125,82.0,105.0
265,188.66796509166667,188.7994305125,82.0,105.0
266,188.92658559166668,189.04727515833335,82.0,102.0
267,189.18520609166669,189.52787825416667,82.0,112.0
268,189.70244709166667,189.827447,74.0,105.0
269,189.96106759166668,190.3554638541667,74.0,114.0
270,190.47830859166666,190.85115314583334,75.0,116.0
271,190.99554959166667,191.76710075,75.0,112.0
272,191.77141109166666,191.89856617083333,77.0,108.0
273,192.03003159166667,192.1873590625,79.0,111.0
274,192.28865209166668,193.62485800833335,80.0,109.0
275,193.8403750916667,193.96106465833333,77.0,102.0
276,194.09899559166666,194.2433920375,79.0,111.0
277,194.35761609166667,194.5020125375,80.0,109.0
278,194.61623659166668,194.73692615833335,80.0,109.0
279,194.87485709166668,194.99554665833335,80.0,105.0
280,195.13347759166666,195.2584775,79.0,109.0
281,195.39209809166667,195.74985645,80.0,116.0
282,195.90933909166668,196.03002865833335,75.0,116.0
283,196.1679595916667,198.53649233750002,82.0,112.0
284,201.34036959166667,201.48907637916668,79.0,105.0
285,201.59899009166668,201.73907619583335,79.0,117.0
286,201.85761059166668,201.99123118333335,77.0,111.0
287,202.11623109166666,202.25631719583333,75.0,112.0
288,202.37485159166667,202.51493769583334,74.0,97.0
289,202.63347209166668,203.00847181666668,72.0,111.0
290,203.1507130916667,203.28433368333333,68.0,112.0
291,203.40933359166667,204.05157450000002,72.0,111.0
292,204.18519509166669,204.57097067083333,79.0,108.0
293,204.70243609166667,205.29941841250002,77.0,111.0
294,205.4782975916667,205.58821130416666,77.0,108.0
295,205.73691809166667,205.8683835125,77.0,111.0
296,205.99553859166667,206.1140729875,75.0,112.0
297,206.25415909166668,206.35545212083335,74.0,111.0
298,206.51277959166669,206.65286569583333,72.0,114.0
299,206.77140009166666,207.16579635416667,70.0,112.0
300,207.28864109166668,207.40933065833335,67.0,102.0
301,207.54726159166668,208.1830369875,70.0,109.0
302,208.32312309166667,208.71967452500002,77.0,108.0
303,208.8403640916667,209.41363953333334,75.0,105.0
304,209.61622559166668,209.7476910125,75.0,109.0
305,209.87484609166668,210.02570805000002,75.0,109.0
306,210.13346659166666,210.23044927916666,74.0,108.0
307,210.39208709166667,210.5235525125,72.0,105.0
308,210.65070759166667,210.762776475,74.0,105.0
309,210.90932809166668,211.24337957083335,75.0,112.0
310,211.42656909166666,211.564500025,68.0,102.0
311,211.68518959166667,212.16794785833335,68.0,112.0
312,212.20243059166668,212.55156826666666,75.0,105.0
313,212.71967159166667,212.87915423333334,75.0,112.0
314,212.97829209166667,213.35329181666668,74.0,111.0
315,213.4955330916667,213.63130885416666,75.0,112.0
316,213.75415359166666,214.11406712083334,77.0,108.0
317,214.53217026250002,214.60329090000002,80.0,127.0
318,214.7907907625,215.5019971375,80.0,127.0
319,215.56449709166668,216.5623411875,79.0,127.0
320,216.60328943333334,216.83173754166668,80.0,127.0
321,216.85975476250002,217.26923722083333,79.0,127.0
322,217.89208159166668,218.02785735416668,79.0,100.0
323,218.1507020916667,218.29078819583333,79.0,108.0
324,218.40932259166667,218.5149259625,77.0,105.0
325,218.66794309166667,218.7994085125,75.0,112.0
326,218.92656359166668,219.05371867083335,74.0,97.0
327,219.18518409166668,219.48259766666666,72.0,114.0
328,219.70242509166667,219.85113187916667,68.0,109.0
329,219.96104559166668,220.46104522500002,72.0,105.0
330,220.73690709166667,220.8942345625,79.0,108.0
331,220.99552759166667,221.89854417083333,77.0,111.0
332,222.03000959166667,222.15069915833334,77.0,97.0
333,222.28863009166668,222.4200955125,77.0,111.0
334,222.54725059166668,222.65931947500002,75.0,116.0
335,222.8058710916667,222.92225031666666,74.0,102.0
336,223.06449159166667,223.19164667083334,72.0,108.0
337,223.32311209166667,223.69380147500001,70.0,109.0
338,223.84035309166669,224.236904525,82.0,109.0
339,224.35759409166667,224.73259381666668,82.0,109.0
340,224.87483509166668,225.00845568333335,80.0,102.0
341,225.1334555916667,225.478282925,80.0,105.0
342,225.65069659166667,226.24767891250002,79.0,82.0
343,226.42655809166666,226.82741986666667,77.0,111.0
344,226.94379909166668,227.31448847500002,79.0,120.0
345,227.4610400916667,227.83603981666667,80.0,112.0
346,227.97828109166667,228.11405685416668,79.0,108.0
347,228.23690159166668,228.60759097500002,75.0,109.0
348,228.75414259166666,229.1571595375,72.0,108.0
349,229.53000409166668,229.87914176666666,70.0,105.0
350,230.04724509166667,230.38776208333334,79.0,105.0
351,230.56448609166668,230.9006927416667,77.0,108.0
352,231.08172709166666,231.1873304625,75.0,105.0
353,231.34034759166667,231.89853683750002,77.0,102.0
354,231.85758859166668,234.14206967500002,75.0,112.0
