,start,end,pitch,velocity
0,1.9461192625000001,2.719825591666667,60.0,80.0
1,1.9461192625000001,2.771549691666667,67.0,92.0
2,2.4633602625,3.1185321958333336,55.0,60.0
3,2.9806012625,3.3512906458333336,63.0,74.0
4,2.9806012625,3.353445816666667,60.0,78.0
5,1.9461192625000001,3.5711180708333337,48.0,97.0
6,3.2392217625,3.6939628083333336,55.0,67.0
7,3.4978422625000003,3.7715489583333337,62.0,64.0
8,3.7564627625,4.107755608333333,63.0,96.0
9,4.0150832625,4.7392206625,67.0,62.0
10,4.0150832625,5.219823758333334,48.0,97.0
11,4.5323242625,5.290944395833334,55.0,44.0
12,5.0495652625,5.368530545833334,63.0,85.0
13,5.0495652625,5.374996058333333,60.0,89.0
14,5.5668062625,5.7413751,48.0,42.0
15,6.0840472625,6.842667395833334,62.0,87.0
16,6.0840472625,6.959046620833334,58.0,61.0
17,6.601288262500001,7.254305025,53.0,37.0
18,7.1185292625,7.308184295833334,58.0,68.0
19,7.1185292625,7.329736004166667,62.0,92.0
20,7.1185292625,7.424563520833334,65.0,97.0
21,6.0840472625,7.9655114000000005,46.0,70.0
22,7.6357702625,7.967666570833334,62.0,76.0
23,7.3771497625,8.0172355,53.0,69.0
24,7.8943907625000005,8.265080145833334,63.0,99.0
25,8.1530112625,8.911631395833334,67.0,89.0
26,8.1530112625,9.33620005,46.0,68.0
27,8.6702522625,9.426717225,53.0,37.0
28,9.1874932625,9.4978378625,62.0,89.0
29,9.1874932625,9.605596404166667,58.0,87.0
30,9.1874932625,9.721975629166668,67.0,92.0
31,9.7047342625,10.153009795833334,46.0,44.0
32,10.2219752625,10.6874921625,60.0,82.0
33,10.2219752625,11.023698812500001,63.0,63.0
34,10.2219752625,11.064647058333334,56.0,68.0
35,10.739216262500001,11.351284779166667,51.0,39.0
36,11.2564572625,11.607750108333335,56.0,93.0
37,11.2564572625,11.831887875,63.0,77.0
38,10.2219752625,12.120680766666666,44.0,96.0
39,11.7736982625,12.140077304166667,56.0,77.0
40,11.5150777625,12.297404775,51.0,52.0
41,12.2909392625,12.8469733375,63.0,63.0
42,12.2909392625,12.8728353875,56.0,77.0
43,12.8081802625,13.452576341666667,51.0,39.0
44,12.2909392625,13.6486968875,44.0,79.0
45,13.3254212625,13.834041579166668,56.0,93.0
46,13.3254212625,13.8620588,63.0,90.0
47,13.842662262500001,14.002144904166666,51.0,74.0
48,14.359903262500001,14.9030063125,55.0,78.0
49,14.359903262500001,15.18102335,62.0,89.0
50,14.8771442625,15.273695695833334,50.0,58.0
51,15.135764762500001,15.603436833333333,55.0,78.0
52,15.3943852625,15.969815875,62.0,89.0
53,14.359903262500001,16.019384804166666,43.0,100.0
54,15.653005762500001,16.262919108333335,67.0,82.0
55,15.9116262625,16.306022525,55.0,87.0
56,16.4288672625,17.784469716666667,55.0,71.0
57,17.4633492625,18.168090125,50.0,55.0
58,16.4288672625,18.256452129166668,43.0,64.0
59,17.9805902625,18.383607208333334,55.0,39.0
60,16.4288672625,18.41808994166667,62.0,87.0
61,18.4978312625,18.818951716666668,60.0,58.0
62,18.4978312625,19.023692945833336,63.0,79.0
63,19.015072262500002,19.314641008333336,60.0,82.0
64,19.2736927625,19.693951075,62.0,102.0
65,18.7564517625,19.874985425000002,55.0,62.0
66,18.4978312625,19.9073129875,48.0,92.0
67,19.7909337625,20.002140504166668,63.0,96.0
68,20.5667952625,21.146536216666668,58.0,50.0
69,20.5667952625,21.3555877875,62.0,87.0
70,21.0840362625,21.8211046875,53.0,58.0
71,20.5667952625,21.9633459625,46.0,59.0
72,21.601277262500002,21.9892080125,62.0,94.0
73,21.342656762500003,22.0797251875,58.0,63.0
74,21.601277262500002,22.081880358333333,65.0,102.0
75,22.635759262500002,22.952569375,56.0,54.0
76,22.635759262500002,23.217655387500002,63.0,61.0
77,22.8943797625,23.5538620375,51.0,22.0
78,23.1530002625,24.079723720833336,56.0,87.0
79,24.1874822625,24.616361258333335,56.0,65.0
80,22.635759262500002,24.618516429166668,44.0,77.0
81,23.928861762500002,24.66377501666667,51.0,41.0
82,23.4116207625,24.668085358333336,63.0,85.0
83,24.7047232625,25.301705583333334,56.0,70.0
84,24.7047232625,25.502136470833335,60.0,89.0
85,25.4805847625,25.6357570625,56.0,41.0
86,25.221964262500002,25.88791205,51.0,36.0
87,25.7392052625,25.93748097916667,60.0,89.0
88,25.7392052625,25.959032687500002,56.0,93.0
89,24.7047232625,26.060325716666668,44.0,82.0
90,25.7392052625,26.11851532916667,63.0,82.0
91,25.9978257625,26.161618745833334,51.0,52.0
92,26.256446262500003,26.728428675,62.0,94.0
93,26.7736872625,27.254290358333336,63.0,65.0
94,26.7736872625,27.3103248,60.0,76.0
95,27.549548762500002,27.659462475,60.0,40.0
96,27.2909282625,27.887910583333333,55.0,62.0
97,26.7736872625,28.254289625000002,48.0,97.0
98,28.0667897625,28.334030945833334,55.0,71.0
99,27.8081692625,28.357737825,63.0,82.0
100,27.8081692625,28.396530900000002,67.0,97.0
101,28.3254102625,28.4805825625,60.0,105.0
102,28.842651262500002,29.469805975,58.0,61.0
103,28.842651262500002,29.6831678875,62.0,92.0
104,29.6185127625,29.959029754166668,58.0,42.0
105,29.3598922625,30.01721936666667,53.0,43.0
106,30.135753762500002,30.398684604166668,53.0,84.0
107,29.877133262500003,30.409460458333335,62.0,89.0
108,29.877133262500003,30.433167337500002,65.0,102.0
109,28.842651262500002,30.452563875000003,46.0,85.0
110,30.3943742625,30.575408612500002,58.0,99.0
111,30.9116152625,31.987045508333335,56.0,77.0
112,31.428856262500002,32.06463165833333,51.0,35.0
113,30.9116152625,32.41592450416667,60.0,87.0
114,31.9460972625,32.53230372916667,63.0,99.0
115,30.9116152625,32.87066555,44.0,99.0
116,32.2047177625,32.995665458333335,51.0,63.0
117,32.4633382625,33.609889145833336,56.0,90.0
118,32.9805792625,33.629285683333336,60.0,80.0
119,32.9805792625,33.892216525,63.0,45.0
120,33.4978202625,34.133595658333334,51.0,32.0
121,32.9805792625,34.3254058625,44.0,87.0
122,34.0150612625,34.34695757083333,56.0,99.0
123,34.273681762500004,34.538767775000004,51.0,85.0
124,34.0150612625,34.54092294583334,63.0,99.0
125,34.532302262500004,34.68100905,44.0,96.0
126,35.0495432625,35.7866116875,56.0,70.0
127,35.0495432625,36.15299072916667,53.0,80.0
128,35.5667842625,36.1551459,48.0,24.0
129,35.0495432625,36.4590249875,41.0,97.0
130,36.3426457625,36.562473187500004,48.0,53.0
131,36.0840252625,36.713335145833334,56.0,99.0
132,36.0840252625,36.77367992916667,60.0,100.0
133,36.601266262500005,36.79954197916667,53.0,100.0
134,37.1185072625,37.4159208375,58.0,48.0
135,37.1185072625,37.7004033875,62.0,78.0
136,37.6357482625,38.023679012500004,58.0,87.0
137,37.3771277625,38.24997195,53.0,49.0
138,37.1185072625,38.32971327083334,46.0,70.0
139,38.1529892625,38.7348853875,58.0,102.0
140,38.1529892625,38.76505777916667,62.0,102.0
141,39.187471262500004,39.48057449583334,55.0,80.0
142,39.187471262500004,39.607729575,62.0,87.0
143,39.7047122625,40.122815404166666,55.0,100.0
144,39.446091762500004,40.357729025000005,50.0,62.0
145,40.2219532625,40.67669430833333,55.0,89.0
146,40.2219532625,40.717642554166666,62.0,87.0
147,39.187471262500004,40.76290114166667,43.0,102.0
148,40.2219532625,40.8426424625,67.0,92.0
149,40.7391942625,40.88574587916667,50.0,66.0
150,41.2564352625,41.590486741666666,60.0,73.0
151,41.2564352625,41.8383313875,63.0,72.0
152,41.773676262500004,42.1874690625,60.0,97.0
153,41.515055762500005,42.374968925000005,55.0,58.0
154,42.2909172625,42.577554983333336,62.0,97.0
155,41.2564352625,42.8598823625,48.0,100.0
156,42.8081582625,42.943934025000004,55.0,80.0
157,43.0667787625,43.418071608333335,60.0,80.0
158,42.5495377625,43.709019670833335,63.0,109.0
159,43.842640262500005,44.21548481666667,56.0,70.0
160,43.5840197625,44.443932925,51.0,32.0
161,43.3253992625,44.62281210416667,44.0,93.0
162,44.359881262500004,44.81031196666667,56.0,93.0
163,44.359881262500004,44.86203606666667,63.0,82.0
164,44.6185017625,44.88143260416667,51.0,63.0
165,44.8771222625,45.08186349166667,44.0,82.0
166,45.3943632625,46.112035150000004,62.0,97.0
167,45.3943632625,46.34263842916667,58.0,72.0
168,45.9116042625,46.53660380416667,53.0,40.0
169,45.3943632625,46.719793325000005,46.0,77.0
170,46.428845262500005,46.75427605833333,58.0,72.0
171,46.428845262500005,46.909448358333336,65.0,100.0
172,46.428845262500005,46.971948312500004,62.0,100.0
173,46.687465762500004,46.984879337500004,53.0,78.0
174,46.9460862625,47.2241033,58.0,99.0
175,47.2047067625,47.57539614583334,65.0,97.0
176,47.9805682625,48.31461974166667,62.0,67.0
177,47.7219477625,48.48056789583333,58.0,32.0
178,48.2391887625,48.53229199583333,63.0,99.0
179,48.4978092625,48.99996406666667,67.0,97.0
180,47.4633272625,49.08186055833333,51.0,102.0
181,48.756429762500005,49.25642939583334,58.0,61.0
182,49.015050262500004,49.424532720833334,63.0,85.0
183,49.5322912625,50.07323914166667,67.0,92.0
184,49.5322912625,50.15513563333334,63.0,77.0
185,50.0495322625,50.67453180416667,58.0,29.0
186,49.5322912625,50.780135175000005,51.0,90.0
187,50.5667732625,50.872807520833334,63.0,109.0
188,50.8253937625,50.9676350375,58.0,90.0
189,50.5667732625,51.08616943333333,67.0,102.0
190,51.084014262500006,51.40944505833333,63.0,99.0
191,51.342634762500005,52.06030665,67.0,89.0
192,51.8598757625,52.493495987500005,51.0,59.0
193,52.1184962625,52.9202198125,56.0,79.0
194,52.6357372625,52.99134045,51.0,63.0
195,51.601255262500004,53.19608167916667,44.0,96.0
196,53.1529782625,53.34478846666667,51.0,79.0
197,52.8943577625,53.46547803333333,60.0,76.0
198,53.4115987625,53.56030555,56.0,102.0
199,52.3771167625,53.581857258333336,63.0,99.0
200,53.670219262500005,54.23702919166667,62.0,94.0
201,53.928839762500004,54.607718575,53.0,66.0
202,54.187460262500004,54.7305633125,58.0,90.0
203,54.4460807625,55.010735520833336,62.0,89.0
204,54.4460807625,55.19823538333333,65.0,94.0
205,54.7047012625,55.224097433333334,53.0,80.0
206,53.670219262500005,55.243493970833335,46.0,93.0
207,54.9633217625,55.30383875416667,58.0,93.0
208,55.2219422625,55.42021797916667,62.0,84.0
209,55.7391832625,56.03228649583333,55.0,67.0
210,55.7391832625,56.3275449,58.0,63.0
211,55.997803762500006,56.6702170625,50.0,49.0
212,56.256424262500005,57.09909605833334,55.0,84.0
213,55.7391832625,57.39866480416667,43.0,87.0
214,57.0322857625,57.4654751,50.0,78.0
215,57.2909062625,57.532285395833334,55.0,80.0
216,56.515044762500004,57.57323364166667,58.0,87.0
217,56.515044762500004,57.672371500000004,62.0,94.0
218,57.5495267625,58.27797450416667,67.0,89.0
219,58.0667677625,58.616336325,55.0,73.0
220,58.3253882625,58.9848705375,60.0,78.0
221,58.584008762500005,59.15512903333334,62.0,105.0
222,58.842629262500004,59.19392210833333,55.0,76.0
223,57.8081472625,59.50426670833333,48.0,80.0
224,59.3598702625,59.52581841666667,55.0,78.0
225,59.101249762500004,59.857714725,63.0,112.0
226,59.6184907625,59.930990533333336,60.0,92.0
227,60.3943522625,60.60555900416667,56.0,85.0
228,60.1357317625,60.7564209625,51.0,57.0
229,59.8771112625,61.45038597083334,44.0,96.0
230,60.6529727625,61.47840319166667,56.0,85.0
231,61.428834262500004,61.6098686125,51.0,70.0
232,60.6529727625,61.8102995,63.0,93.0
233,61.6874547625,61.9590062875,60.0,89.0
234,62.4633162625,62.62279890416667,58.0,96.0
235,62.2046957625,62.84909184166667,53.0,66.0
236,62.7219367625,63.349091475,58.0,96.0
237,61.9460752625,63.44176382083334,46.0,99.0
238,63.239177762500006,63.52150514166667,53.0,58.0
239,62.7219367625,63.5495223625,62.0,94.0
240,63.497798262500005,63.85340145,58.0,102.0
241,63.756418762500005,64.07538404583333,62.0,66.0
242,64.53228026250001,64.6486594875,63.0,87.0
243,64.2736597625,64.84693520416667,58.0,35.0
244,64.7909007625,65.14434877916666,63.0,109.0
245,64.7909007625,65.27365902916667,67.0,97.0
246,64.0150392625,65.40943479166667,51.0,105.0
247,65.04952126250001,65.42236581666667,58.0,65.0
248,65.3081417625,65.65727943750001,63.0,99.0
249,65.5667622625,65.86202066666667,58.0,59.0
250,65.8253827625,66.21331351250001,68.0,96.0
251,65.8253827625,66.23702039166668,63.0,93.0
252,66.3426237625,66.71331314583334,63.0,85.0
253,66.3426237625,66.724089,67.0,105.0
254,66.0840032625,66.98055432916667,51.0,102.0
255,66.6012442625,67.0150370625,58.0,85.0
256,66.8598647625,67.24564034166667,63.0,90.0
257,66.8598647625,67.27150239166667,67.0,92.0
258,67.1184852625,67.5516746,51.0,72.0
259,67.37710576250001,67.61848489583333,63.0,79.0
260,67.6357262625,67.79305373333334,58.0,105.0
261,67.37710576250001,67.95253637500001,65.0,108.0
262,67.8943467625,68.2046913625,63.0,40.0
263,68.6702082625,68.82753573333333,56.0,82.0
264,68.4115877625,69.01503559583334,51.0,74.0
265,68.9288287625,69.31460434166667,56.0,85.0
266,68.9288287625,69.323225025,63.0,96.0
267,68.1529672625,69.45684561666667,44.0,105.0
268,69.1874492625,69.5689145,51.0,59.0
269,69.4460697625,69.69391440833334,60.0,92.0
270,69.4460697625,69.72624197083334,56.0,93.0
271,69.4460697625,69.77365572916666,63.0,87.0
272,69.70469026250001,69.83615568333333,44.0,87.0
273,70.22193126250001,70.51072415416667,58.0,74.0
274,70.22193126250001,70.78874119166667,62.0,94.0
275,70.7391722625,70.96762037083333,58.0,72.0
276,70.4805517625,71.107706475,53.0,62.0
277,70.9977927625,71.3081373625,58.0,61.0
278,70.9977927625,71.40727522083334,65.0,102.0
279,70.22193126250001,71.57753371666666,46.0,93.0
280,71.2564132625,71.60339576666667,53.0,78.0
281,71.5150337625,71.780119775,62.0,102.0
282,71.5150337625,71.79089562916667,58.0,82.0
283,71.7736542625,71.97839549166667,46.0,74.0
284,72.2908952625,72.56891230000001,55.0,66.0
285,72.2908952625,72.866325875,58.0,65.0
286,72.8081362625,72.93960168333334,55.0,66.0
287,72.54951576250001,73.11201535000001,50.0,64.0
288,73.0667567625,73.4029634125,55.0,84.0
289,73.0667567625,73.42235995,62.0,92.0
290,72.2908952625,73.5969287875,43.0,102.0
291,73.3253772625,73.68529079166667,50.0,82.0
292,73.5839977625,73.77796313750001,55.0,92.0
293,73.5839977625,73.78873899166668,58.0,105.0
294,73.8426182625,73.95468714583333,43.0,87.0
295,74.35985926250001,74.59477288333333,60.0,73.0
296,74.35985926250001,74.84908304166667,63.0,72.0
297,74.87710026250001,75.16373798333333,60.0,94.0
298,74.6184797625,75.20468622916667,55.0,69.0
299,75.1357207625,75.6917548375,62.0,102.0
300,75.3943412625,75.69606517916667,55.0,69.0
301,74.35985926250001,75.995633925,48.0,100.0
302,75.9115822625,76.06244422083334,55.0,71.0
303,76.1702027625,76.45037497083334,60.0,82.0
304,75.6529617625,76.9202022125,63.0,109.0
305,76.68744376250001,77.314598475,51.0,72.0
306,76.9460642625,77.51718453333334,56.0,90.0
307,77.20468476250001,77.75425332500001,63.0,99.0
308,76.4288232625,77.78873605833334,44.0,93.0
309,77.4633052625,77.80382225416668,51.0,72.0
310,77.7219257625,78.10123582916667,56.0,105.0
311,78.4977872625,78.8339939125,58.0,70.0
312,78.4977872625,79.099079925,62.0,102.0
313,78.7564077625,79.48054516250001,53.0,48.0
314,79.0150282625,79.89002762083334,58.0,77.0
315,79.2736487625,80.030113725,65.0,97.0
316,79.2736487625,80.11847572916668,62.0,94.0
317,78.4977872625,80.14864812083334,46.0,90.0
318,79.7908897625,80.20899290416666,53.0,51.0
319,80.04951026250001,80.28011354166667,58.0,87.0
320,80.3081307625,80.56459609166667,65.0,94.0
321,80.8253717625,81.4072678875,58.0,68.0
322,81.0839922625,81.92019854583333,63.0,65.0
323,81.3426127625,82.099077725,67.0,82.0
324,80.5667512625,82.38140510416667,51.0,102.0
325,82.1184742625,82.42235335000001,63.0,65.0
326,81.85985376250001,82.58183599166667,58.0,59.0
327,82.37709476250001,82.60554287083333,65.0,58.0
328,82.6357152625,83.831835075,63.0,85.0
329,82.6357152625,84.271489925,51.0,96.0
330,82.8943357625,84.28442095,58.0,43.0
331,84.70467926250001,85.02579971666667,60.0,58.0
332,84.70467926250001,85.23054094583334,63.0,79.0
333,85.2219202625,85.52148900833333,60.0,82.0
334,85.4805407625,85.90079907500001,62.0,102.0
335,84.9632997625,86.081833425,55.0,62.0
336,84.70467926250001,86.1141609875,48.0,92.0
337,85.9977817625,86.20898850416667,63.0,96.0
338,86.7736432625,87.35338421666667,58.0,50.0
339,86.7736432625,87.56243578750001,62.0,87.0
340,87.2908842625,88.0279526875,53.0,58.0
341,86.7736432625,88.17019396250001,46.0,59.0
342,87.8081252625,88.19605601250001,62.0,94.0
343,87.5495047625,88.2865731875,58.0,63.0
344,87.8081252625,88.28872835833333,65.0,102.0
345,88.84260726250001,89.159417375,56.0,54.0
346,88.84260726250001,89.42450338750001,63.0,61.0
347,89.1012277625,89.7607100375,51.0,22.0
348,89.35984826250001,90.28657172083334,56.0,87.0
349,90.3943302625,90.82320925833334,56.0,65.0
350,88.84260726250001,90.82536442916667,44.0,77.0
351,90.1357097625,90.87062301666667,51.0,41.0
352,89.6184687625,90.87493335833334,63.0,85.0
353,90.9115712625,91.50855358333334,56.0,70.0
354,90.9115712625,91.70898447083334,60.0,89.0
355,91.68743276250001,91.8426050625,56.0,41.0
356,91.4288122625,92.09476005,51.0,36.0
357,91.9460532625,92.14432897916667,60.0,89.0
358,91.9460532625,92.1658806875,56.0,93.0
359,90.9115712625,92.26717371666668,44.0,82.0
360,91.9460532625,92.32536332916668,63.0,82.0
361,92.20467376250001,92.36846674583333,51.0,52.0
362,92.4632942625,92.935276675,62.0,94.0
363,92.9805352625,93.46113835833334,63.0,65.0
364,92.9805352625,93.5171728,60.0,76.0
365,93.7563967625,93.866310475,60.0,40.0
366,93.4977762625,94.09475858333333,55.0,62.0
367,92.9805352625,94.461137625,48.0,97.0
368,94.2736377625,94.54087894583334,55.0,71.0
369,94.01501726250001,94.56458582500001,63.0,82.0
370,94.01501726250001,94.60337890000001,67.0,97.0
371,94.53225826250001,94.6874305625,60.0,105.0
372,95.0494992625,95.67665397500001,58.0,61.0
373,95.0494992625,95.8900158875,62.0,92.0
374,95.8253607625,96.16587775416667,58.0,42.0
375,95.5667402625,96.22406736666667,53.0,43.0
376,96.34260176250001,96.60553260416667,53.0,84.0
377,96.0839812625,96.61630845833334,62.0,89.0
378,96.0839812625,96.6400153375,65.0,102.0
379,95.0494992625,96.659411875,46.0,85.0
380,96.6012222625,96.7822566125,58.0,99.0
381,97.1184632625,98.19389350833333,56.0,77.0
382,97.6357042625,98.27147965833333,51.0,35.0
383,97.1184632625,98.62277250416668,60.0,87.0
384,98.1529452625,98.73915172916666,63.0,99.0
385,97.1184632625,99.07751355,44.0,99.0
386,98.4115657625,99.20251345833334,51.0,63.0
387,98.67018626250001,99.81673714583334,56.0,90.0
388,99.18742726250001,99.83613368333334,60.0,80.0
389,99.18742726250001,100.099064525,63.0,45.0
390,99.70466826250001,100.34044365833334,51.0,32.0
391,99.18742726250001,100.5322538625,44.0,87.0
392,100.2219092625,100.55380557083333,56.0,99.0
393,100.4805297625,100.745615775,51.0,85.0
394,100.2219092625,100.74777094583334,63.0,99.0
395,100.7391502625,100.88785705000001,44.0,96.0
396,101.2563912625,101.9934596875,56.0,70.0
397,101.2563912625,102.35983872916667,53.0,80.0
398,101.7736322625,102.3619939,48.0,24.0
399,101.2563912625,102.66587298750001,41.0,97.0
400,102.5494937625,102.7693211875,48.0,53.0
401,102.2908732625,102.92018314583333,56.0,99.0
402,102.2908732625,102.98052792916667,60.0,100.0
403,102.8081142625,103.00638997916667,53.0,100.0
404,103.32535526250001,103.6227688375,58.0,48.0
405,103.32535526250001,103.9072513875,62.0,78.0
406,103.84259626250001,104.2305270125,58.0,87.0
407,103.5839757625,104.45681995000001,53.0,49.0
408,103.32535526250001,104.53656127083333,46.0,70.0
409,104.35983726250001,104.94173338750001,58.0,102.0
410,104.35983726250001,104.97190577916668,62.0,102.0
411,105.3943192625,105.68742249583333,55.0,80.0
412,105.3943192625,105.814577575,62.0,87.0
413,105.9115602625,106.32966340416667,55.0,100.0
414,105.6529397625,106.564577025,50.0,62.0
415,106.4288012625,106.88354230833333,55.0,89.0
416,106.4288012625,106.92449055416667,62.0,87.0
417,105.3943192625,106.96974914166667,43.0,102.0
418,106.4288012625,107.0494904625,67.0,92.0
419,106.9460422625,107.09259387916667,50.0,66.0
420,107.4632832625,107.79733474166667,60.0,73.0
421,107.4632832625,108.0451793875,63.0,72.0
422,107.9805242625,108.39431706250001,60.0,97.0
423,107.7219037625,108.581816925,55.0,58.0
424,108.49776526250001,108.78440298333334,62.0,97.0
425,107.4632832625,109.06673036250001,48.0,100.0
426,109.01500626250001,109.150782025,55.0,80.0
427,109.2736267625,109.62491960833334,60.0,80.0
428,109.53224726250001,109.85983322916667,61.0,59.0
429,108.7563857625,109.91586767083334,63.0,109.0
430,109.53224726250001,110.13353992500001,68.0,48.0
431,110.0494882625,110.21974675833334,61.0,87.0
432,109.7908677625,110.47190174583334,56.0,50.0
433,110.3081087625,110.76284980833334,68.0,72.0
434,110.3081087625,110.79517737083334,61.0,87.0
435,110.82534976250001,111.34474593333334,65.0,92.0
436,109.53224726250001,111.35767695833334,49.0,74.0
437,110.5667292625,111.40940105833334,56.0,34.0
438,111.6012112625,111.95250410833334,61.0,59.0
439,112.1184522625,112.24345217083334,61.0,43.0
440,111.6012112625,112.28440041666667,68.0,55.0
441,111.85983176250001,112.50207267083334,56.0,24.0
442,112.3770727625,112.98267576666667,61.0,90.0
443,111.6012112625,112.98914127916667,49.0,87.0
444,112.8943137625,113.15077909166668,56.0,70.0
445,112.3770727625,113.1723308,65.0,84.0
446,113.15293426250001,113.49345125416667,61.0,74.0
447,113.4115547625,113.78224414583333,68.0,48.0
448,113.67017526250001,113.98914054583334,58.0,59.0
449,113.67017526250001,114.55379530416667,62.0,92.0
450,113.9287957625,114.633536625,53.0,42.0
451,114.18741626250001,114.83827785416668,58.0,72.0
452,114.4460367625,114.96758810416667,65.0,97.0
453,114.7046572625,115.1313810875,53.0,50.0
454,113.67017526250001,115.49129461666666,46.0,68.0
455,115.2218982625,115.52146700833333,53.0,49.0
456,114.9632777625,115.52577735,62.0,89.0
457,115.48051876250001,115.67017379583334,58.0,68.0
458,115.7391392625,116.71112130833333,70.0,61.0
459,115.7391392625,117.07534517916667,58.0,41.0
460,115.7391392625,117.07965552083334,62.0,94.0
461,117.0322417625,117.77362052916668,53.0,58.0
462,117.5494827625,117.78870672500001,62.0,50.0
463,117.2908622625,117.8081032625,58.0,52.0
464,115.7391392625,117.814568775,46.0,65.0
465,117.8081032625,118.12922371666667,60.0,58.0
466,117.8081032625,118.33396494583334,63.0,79.0
467,118.32534426250001,118.62491300833334,60.0,82.0
468,118.5839647625,119.004223075,62.0,102.0
469,118.0667237625,119.185257425,55.0,62.0
470,117.8081032625,119.2175849875,48.0,92.0
471,119.1012057625,119.31241250416667,63.0,96.0
472,119.8770672625,120.45680821666667,58.0,50.0
473,119.8770672625,120.66585978750001,62.0,87.0
474,120.3943082625,121.13137668750001,53.0,58.0
475,119.8770672625,121.2736179625,46.0,59.0
476,120.9115492625,121.2994800125,62.0,94.0
477,120.65292876250001,121.3899971875,58.0,63.0
478,120.9115492625,121.39215235833333,65.0,102.0
479,121.9460312625,122.26284137500001,56.0,54.0
480,121.9460312625,122.5279273875,63.0,61.0
481,122.2046517625,122.86413403750001,51.0,22.0
482,122.4632722625,123.38999572083334,56.0,87.0
483,123.49775426250001,123.92663325833334,56.0,65.0
484,121.9460312625,123.92878842916667,44.0,77.0
485,123.2391337625,123.97404701666667,51.0,41.0
486,122.7218927625,123.97835735833334,63.0,85.0
487,124.01499526250001,124.61197758333334,56.0,70.0
488,124.01499526250001,124.81240847083333,60.0,89.0
489,124.7908567625,124.9460290625,56.0,41.0
490,124.5322362625,125.19818405000001,51.0,36.0
491,125.0494772625,125.24775297916668,60.0,89.0
492,125.0494772625,125.26930468750001,56.0,93.0
493,124.01499526250001,125.37059771666667,44.0,82.0
494,125.0494772625,125.42878732916667,63.0,82.0
495,125.30809776250001,125.47189074583333,51.0,52.0
496,125.5667182625,126.038700675,62.0,94.0
497,126.0839592625,126.56456235833333,63.0,65.0
498,126.0839592625,126.6205968,60.0,76.0
499,126.85982076250001,126.96973447500001,60.0,40.0
500,126.6012002625,127.19818258333333,55.0,62.0
501,126.0839592625,127.56456162500001,48.0,97.0
502,127.3770617625,127.64430294583333,55.0,71.0
503,127.1184412625,127.668009825,63.0,82.0
504,127.1184412625,127.7068029,67.0,97.0
505,127.63568226250001,127.7908545625,60.0,105.0
506,128.1529232625,128.780077975,58.0,61.0
507,128.1529232625,128.99343988750002,62.0,92.0
508,128.92878476250002,129.26930175416666,58.0,42.0
509,128.6701642625,129.32749136666666,53.0,43.0
510,129.4460257625,129.70895660416667,53.0,84.0
511,129.1874052625,129.71973245833334,62.0,89.0
512,129.1874052625,129.7434393375,65.0,102.0
513,128.1529232625,129.762835875,46.0,85.0
514,129.7046462625,129.8856806125,58.0,99.0
515,130.22188726250002,131.29731750833335,56.0,77.0
516,130.7391282625,131.37490365833335,51.0,35.0
517,130.22188726250002,131.72619650416667,60.0,87.0
518,131.25636926250002,131.84257572916667,63.0,99.0
519,130.22188726250002,132.18093755,44.0,99.0
520,131.5149897625,132.30593745833335,51.0,63.0
521,131.7736102625,132.92016114583333,56.0,90.0
522,132.2908512625,132.93955768333333,60.0,80.0
523,132.2908512625,133.202488525,63.0,45.0
524,132.8080922625,133.44386765833335,51.0,32.0
525,132.2908512625,133.63567786250002,44.0,87.0
526,133.3253332625,133.65722957083335,56.0,99.0
527,133.58395376250002,133.849039775,51.0,85.0
528,133.3253332625,133.85119494583333,63.0,99.0
529,133.8425742625,133.99128105,44.0,96.0
530,134.3598152625,135.0968836875,56.0,70.0
531,134.3598152625,135.46326272916667,53.0,80.0
532,134.8770562625,135.4654179,48.0,24.0
533,134.3598152625,135.7692969875,41.0,97.0
534,135.6529177625,135.87274518750002,48.0,53.0
535,135.3942972625,136.02360714583335,56.0,99.0
536,135.3942972625,136.08395192916666,60.0,100.0
537,135.91153826250002,136.10981397916666,53.0,100.0
538,136.4287792625,136.7261928375,58.0,48.0
539,136.4287792625,137.01067538750002,62.0,78.0
540,136.9460202625,137.3339510125,58.0,87.0
541,136.6873997625,137.56024395,53.0,49.0
542,136.4287792625,137.63998527083334,46.0,70.0
543,137.4632612625,138.0451573875,58.0,102.0
544,137.4632612625,138.07532977916668,62.0,102.0
545,138.4977432625,138.79084649583334,55.0,80.0
546,138.4977432625,138.918001575,62.0,87.0
547,139.0149842625,139.43308740416668,55.0,100.0
548,138.7563637625,139.668001025,50.0,62.0
549,139.5322252625,139.98696630833334,55.0,89.0
550,139.5322252625,140.02791455416667,62.0,87.0
551,138.4977432625,140.07317314166667,43.0,102.0
552,139.5322252625,140.1529144625,67.0,92.0
553,140.0494662625,140.19601787916667,50.0,66.0
554,140.56670726250002,140.90075874166666,60.0,73.0
555,140.56670726250002,141.1486033875,63.0,72.0
556,141.0839482625,141.4977410625,60.0,97.0
557,140.8253277625,141.68524092500002,55.0,58.0
558,141.60118926250001,141.88782698333333,62.0,97.0
559,140.56670726250002,142.1701543625,48.0,100.0
560,142.1184302625,142.254206025,55.0,80.0
561,142.3770507625,142.72834360833335,60.0,80.0
562,141.8598097625,143.01929167083333,63.0,109.0
563,143.1529122625,143.52575681666667,56.0,70.0
564,142.89429176250002,143.754204925,51.0,32.0
565,142.6356712625,143.93308410416668,44.0,93.0
566,143.6701532625,144.1205839666667,56.0,93.0
567,143.6701532625,144.17230806666666,63.0,82.0
568,143.92877376250001,144.19170460416666,51.0,63.0
569,144.1873942625,144.39213549166666,44.0,82.0
570,144.7046352625,145.42230715,62.0,97.0
571,144.7046352625,145.65291042916667,58.0,72.0
572,145.22187626250002,145.84687580416667,53.0,40.0
573,144.7046352625,146.030065325,46.0,77.0
574,145.7391172625,146.06454805833334,58.0,72.0
575,145.7391172625,146.21972035833335,65.0,100.0
576,145.7391172625,146.28222031250002,62.0,100.0
577,145.9977377625,146.29515133750002,53.0,78.0
578,146.25635826250002,146.5343753,58.0,99.0
579,146.5149787625,146.88566814583334,65.0,97.0
580,147.2908402625,147.62489174166666,62.0,67.0
581,147.0322197625,147.79083989583333,58.0,32.0
582,147.54946076250002,147.84256399583333,63.0,99.0
583,147.8080812625,148.31023606666668,67.0,97.0
584,146.7735992625,148.39213255833334,51.0,102.0
585,148.0667017625,148.56670139583335,58.0,61.0
586,148.3253222625,148.73480472083335,63.0,85.0
587,148.8425632625,149.38351114166667,67.0,92.0
588,148.8425632625,149.46540763333334,63.0,77.0
589,149.3598042625,149.98480380416666,58.0,29.0
590,148.8425632625,150.090407175,51.0,90.0
591,149.87704526250002,150.18307952083333,63.0,109.0
592,150.1356657625,150.2779070375,58.0,90.0
593,149.87704526250002,150.39644143333334,67.0,102.0
594,150.3942862625,150.71971705833334,63.0,99.0
595,150.6529067625,151.37057865,67.0,89.0
596,151.1701477625,151.8037679875,51.0,59.0
597,151.4287682625,152.23049181250002,56.0,79.0
598,151.9460092625,152.30161245,51.0,63.0
599,150.91152726250002,152.50635367916666,44.0,96.0
600,152.4632502625,152.65506046666667,51.0,79.0
601,152.20462976250002,152.77575003333334,60.0,76.0
602,152.7218707625,152.87057755,56.0,102.0
603,151.6873887625,152.89212925833334,63.0,99.0
604,152.9804912625,153.54730119166666,62.0,94.0
605,153.23911176250002,153.917990575,53.0,66.0
606,153.4977322625,154.0408353125,58.0,90.0
607,153.7563527625,154.32100752083335,62.0,89.0
608,153.7563527625,154.50850738333335,65.0,94.0
609,154.0149732625,154.53436943333335,53.0,80.0
610,152.9804912625,154.55376597083335,46.0,93.0
611,154.2735937625,154.61411075416666,58.0,93.0
612,154.53221426250002,154.73048997916666,62.0,84.0
613,155.0494552625,155.34255849583334,55.0,67.0
614,155.0494552625,155.63781690000002,58.0,63.0
615,155.3080757625,155.9804890625,50.0,49.0
616,155.56669626250002,156.40936805833334,55.0,84.0
617,155.0494552625,156.70893680416668,43.0,87.0
618,156.3425577625,156.77574710000002,50.0,78.0
619,156.6011782625,156.84255739583335,55.0,80.0
620,155.8253167625,156.88350564166666,58.0,87.0
621,155.8253167625,156.9826435,62.0,94.0
622,156.85979876250002,157.58824650416668,67.0,89.0
623,157.3770397625,157.92660832500002,55.0,73.0
624,157.6356602625,158.2951425375,60.0,78.0
625,157.89428076250002,158.46540103333334,62.0,105.0
626,158.1529012625,158.50419410833334,55.0,76.0
627,157.1184192625,158.81453870833334,48.0,80.0
628,158.6701422625,158.83609041666668,55.0,78.0
629,158.4115217625,159.16798672500002,63.0,112.0
630,158.9287627625,159.24126253333333,60.0,92.0
631,159.7046242625,159.91583100416668,56.0,85.0
632,159.4460037625,160.0666929625,51.0,57.0
633,159.1873832625,160.76065797083334,44.0,96.0
634,159.9632447625,160.78867519166667,56.0,85.0
635,160.7391062625,160.9201406125,51.0,70.0
636,159.9632447625,161.1205715,63.0,93.0
637,160.9977267625,161.26927828750001,60.0,89.0
638,161.7735882625,161.93307090416667,58.0,96.0
639,161.5149677625,162.15936384166667,53.0,66.0
640,162.0322087625,162.659363475,58.0,96.0
641,161.25634726250001,162.75203582083333,46.0,99.0
642,162.54944976250002,162.83177714166666,53.0,58.0
643,162.0322087625,162.8597943625,62.0,94.0
644,162.8080702625,163.16367345,58.0,102.0
645,163.0666907625,163.38565604583334,62.0,66.0
646,163.8425522625,163.9589314875,63.0,87.0
647,163.58393176250001,164.15720720416667,58.0,35.0
648,164.1011727625,164.45462077916667,63.0,109.0
649,164.1011727625,164.58393102916668,67.0,97.0
650,163.3253112625,164.71970679166668,51.0,105.0
651,164.3597932625,164.73263781666668,58.0,65.0
652,164.6184137625,164.96755143750002,63.0,99.0
653,164.87703426250002,165.17229266666666,58.0,59.0
654,165.1356547625,165.5235855125,68.0,96.0
655,165.1356547625,165.54729239166667,63.0,93.0
656,165.6528957625,166.02358514583335,63.0,85.0
657,165.6528957625,166.03436100000002,67.0,105.0
658,165.3942752625,166.29082632916666,51.0,102.0
659,165.91151626250002,166.3253090625,58.0,85.0
660,166.1701367625,166.55591234166667,63.0,90.0
661,166.1701367625,166.58177439166667,67.0,92.0
662,166.4287572625,166.8619466,51.0,72.0
663,166.6873777625,166.92875689583335,63.0,79.0
664,166.9459982625,167.10332573333335,58.0,105.0
665,166.6873777625,167.26280837500002,65.0,108.0
666,167.20461876250002,167.5149633625,63.0,40.0
667,167.9804802625,168.13780773333335,56.0,82.0
668,167.7218597625,168.32530759583335,51.0,74.0
669,168.23910076250002,168.62487634166666,56.0,85.0
670,168.23910076250002,168.633497025,63.0,96.0
671,167.4632392625,168.76711761666667,44.0,105.0
672,168.4977212625,168.8791865,51.0,59.0
673,168.7563417625,169.00418640833334,60.0,92.0
674,168.7563417625,169.03651397083334,56.0,93.0
675,168.7563417625,169.08392772916667,63.0,87.0
676,169.0149622625,169.14642768333334,44.0,87.0
677,169.53220326250002,169.82099615416666,58.0,74.0
678,169.53220326250002,170.09901319166667,62.0,94.0
679,170.0494442625,170.27789237083334,58.0,72.0
680,169.7908237625,170.417978475,53.0,62.0
681,170.3080647625,170.61840936250002,58.0,61.0
682,170.3080647625,170.71754722083335,65.0,102.0
683,169.53220326250002,170.88780571666666,46.0,93.0
684,170.56668526250002,170.91366776666666,53.0,78.0
685,170.8253057625,171.090391775,62.0,102.0
686,170.8253057625,171.10116762916667,58.0,82.0
687,171.0839262625,171.28866749166667,46.0,74.0
688,171.6011672625,171.87918430000002,55.0,66.0
689,171.6011672625,172.176597875,58.0,65.0
690,172.1184082625,172.24987368333333,55.0,66.0
691,171.85978776250002,172.42228735,50.0,64.0
692,172.3770287625,172.7132354125,55.0,84.0
693,172.3770287625,172.73263195,62.0,92.0
694,171.6011672625,172.90720078750002,43.0,102.0
695,172.6356492625,172.99556279166669,50.0,82.0
696,172.89426976250002,173.0882351375,55.0,92.0
697,172.89426976250002,173.09901099166666,58.0,105.0
698,173.1528902625,173.26495914583333,43.0,87.0
699,173.6701312625,173.90504488333335,60.0,73.0
700,173.6701312625,174.1593550416667,63.0,72.0
701,174.18737226250002,174.47400998333333,60.0,94.0
702,173.9287517625,174.51495822916667,55.0,69.0
703,174.4459927625,175.0020268375,62.0,102.0
704,174.7046132625,175.00633717916668,55.0,69.0
705,173.6701312625,175.30590592500002,48.0,100.0
706,175.22185426250002,175.37271622083335,55.0,71.0
707,175.4804747625,175.76064697083333,60.0,82.0
708,174.9632337625,176.2304742125,63.0,109.0
709,175.9977157625,176.624870475,51.0,72.0
710,176.2563362625,176.82745653333333,56.0,90.0
711,176.51495676250002,177.064525325,63.0,99.0
712,175.7390952625,177.09900805833334,44.0,93.0
713,176.7735772625,177.11409425416667,51.0,72.0
714,177.0321977625,177.41150782916668,56.0,105.0
715,177.8080592625,178.1442659125,58.0,70.0
716,177.8080592625,178.409351925,62.0,102.0
717,178.0666797625,178.79081716250002,53.0,48.0
718,178.3253002625,179.20029962083333,58.0,77.0
719,178.58392076250001,179.340385725,65.0,97.0
720,178.58392076250001,179.42874772916667,62.0,94.0
721,177.8080592625,179.45892012083334,46.0,90.0
722,179.1011617625,179.51926490416668,53.0,51.0
723,179.3597822625,179.59038554166668,58.0,87.0
724,179.6184027625,179.87486809166668,65.0,94.0
725,180.1356437625,180.7175398875,58.0,68.0
726,180.3942642625,181.23047054583333,63.0,65.0
727,180.6528847625,181.409349725,67.0,82.0
728,179.87702326250002,181.69167710416667,51.0,102.0
729,181.4287462625,181.73262535,63.0,65.0
730,181.17012576250002,181.89210799166668,58.0,59.0
731,181.6873667625,181.91581487083334,65.0,58.0
732,181.9459872625,183.142107075,63.0,85.0
733,181.9459872625,183.581761925,51.0,96.0
734,182.20460776250002,183.59469295,58.0,43.0
735,184.0149512625,184.14210634166668,60.0,92.0
736,184.0149512625,184.16581322083334,56.0,61.0
737,184.0149512625,184.17227873333334,63.0,68.0
738,184.0149512625,184.40934752500002,44.0,102.0
739,184.53219226250002,184.65072665833335,60.0,69.0
740,184.53219226250002,184.67227836666666,56.0,70.0
741,184.53219226250002,184.67658870833333,63.0,70.0
742,185.0494332625,185.17012282916667,60.0,92.0
743,185.0494332625,185.18305385416667,56.0,74.0
744,185.0494332625,185.18951936666667,63.0,74.0
745,185.0494332625,185.35546752083334,51.0,57.0
746,185.0494332625,185.3597778625,44.0,79.0
747,185.56667426250002,185.70245002500002,60.0,89.0
748,185.56667426250002,185.73046724583335,56.0,68.0
749,185.56667426250002,185.7455534416667,63.0,65.0
750,186.0839152625,186.24339790416667,62.0,84.0
751,186.0839152625,186.24986341666667,58.0,72.0
752,186.0839152625,186.26925995416667,46.0,87.0
753,186.6011562625,186.71969065833335,62.0,87.0
754,186.6011562625,186.73693202500002,58.0,74.0
755,187.1183972625,187.25848336666667,62.0,92.0
756,187.1183972625,187.26279370833333,58.0,61.0
757,187.1183972625,187.26279370833333,65.0,87.0
758,187.1183972625,187.2929661,46.0,72.0
759,187.6356382625,187.73693129166668,62.0,87.0
760,187.6356382625,187.76063817083335,58.0,65.0
761,187.6356382625,187.78434505,65.0,87.0
762,188.1528792625,188.29727570833333,58.0,93.0
763,188.1528792625,188.30374122083333,55.0,87.0
764,188.1528792625,188.31882741666666,62.0,89.0
765,188.1528792625,188.73908572916667,43.0,102.0
766,188.6701202625,188.75848226666668,55.0,57.0
767,188.6701202625,188.77141329166668,58.0,96.0
768,188.6701202625,188.7735684625,62.0,82.0
769,189.18736126250002,189.3037404875,55.0,80.0
770,189.18736126250002,189.31236117083333,58.0,99.0
771,189.18736126250002,189.31882668333333,62.0,92.0
772,189.7046022625,189.79942977916667,55.0,52.0
773,189.7046022625,189.82313665833334,58.0,79.0
774,189.7046022625,189.840378025,62.0,76.0
775,190.22184326250002,190.3425328291667,60.0,97.0
776,190.22184326250002,190.34684317083335,55.0,80.0
777,190.22184326250002,190.35330868333335,63.0,90.0
778,190.22184326250002,190.4007224416667,48.0,89.0
779,190.7390842625,190.848997975,55.0,71.0
780,190.7390842625,190.85115314583334,60.0,92.0
781,190.7390842625,190.86623934166667,63.0,82.0
782,191.2563252625,191.45460097916668,55.0,94.0
783,191.2563252625,191.45891132083335,60.0,108.0
784,191.2563252625,191.48477337083335,63.0,96.0
785,191.7735662625,191.87485929166667,60.0,105.0
786,191.7735662625,191.883479975,63.0,93.0
787,191.7735662625,191.90718685416667,55.0,89.0
788,192.0321867625,192.064514325,56.0,27.0
789,192.2908072625,192.48692780833335,56.0,77.0
790,192.2908072625,192.51710020000002,53.0,73.0
791,192.2908072625,192.51925537083335,60.0,92.0
792,192.2908072625,192.79942757916666,41.0,97.0
793,192.8080482625,192.90934129166666,53.0,60.0
794,192.8080482625,192.917961975,56.0,87.0
795,192.8080482625,192.93304817083333,60.0,87.0
796,193.3252892625,193.48261673333334,56.0,109.0
797,193.3252892625,193.50201327083334,53.0,94.0
798,193.3252892625,193.50416844166668,60.0,102.0
799,193.84253026250002,193.9589094875,56.0,99.0
800,193.84253026250002,193.96106465833333,53.0,87.0
801,193.84253026250002,193.96106465833333,60.0,97.0
802,194.3597712625,194.48477117083334,56.0,85.0
803,194.3597712625,194.50847805,53.0,76.0
804,194.3597712625,194.5149435625,60.0,84.0
805,194.3597712625,194.53218492916668,65.0,80.0
806,194.3597712625,194.87270192083335,41.0,89.0
807,194.87701226250002,194.99554665833335,53.0,76.0
808,194.87701226250002,194.99554665833335,56.0,93.0
809,194.87701226250002,194.99985700000002,60.0,94.0
810,195.3942532625,195.66149444583334,53.0,97.0
811,195.3942532625,195.75201162083334,56.0,105.0
812,195.9114942625,195.96752870416668,56.0,14.0
813,195.3942532625,196.1356320291667,60.0,102.0
814,195.6528737625,196.19597681250002,48.0,67.0
815,195.9114942625,196.23045954583336,53.0,102.0
816,196.17011476250002,196.31020086666666,56.0,87.0
817,196.4287352625,197.0235624125,58.0,112.0
818,196.4287352625,197.2800277416667,62.0,100.0
819,196.9459762625,197.6442516125,53.0,82.0
820,197.20459676250002,197.64640678333333,58.0,77.0
821,197.4632172625,198.09252714583334,62.0,94.0
822,196.4287352625,198.34683730416668,46.0,99.0
823,197.9804582625,198.38994072083335,58.0,93.0
824,197.7218377625,198.40933725833335,53.0,89.0
825,198.23907876250001,198.4373544791667,62.0,73.0
826,198.49769926250002,202.34898954166667,46.0,102.0
827,199.0149402625,202.34898954166667,53.0,48.0
828,198.49769926250002,202.45890325416667,58.0,63.0
829,198.49769926250002,202.4804549625,65.0,89.0
830,198.49769926250002,202.48907564583334,62.0,69.0
831,202.89424776250002,203.5278679875,51.0,59.0
832,203.15286826250002,203.9545918125,56.0,79.0
833,203.6701092625,204.02571245000001,51.0,63.0
834,202.6356272625,204.2304536791667,44.0,96.0
835,204.18735026250002,204.37916046666666,51.0,79.0
836,203.9287297625,204.49985003333333,60.0,76.0
837,204.4459707625,204.59467755,56.0,102.0
838,203.4114887625,204.61622925833333,63.0,99.0
839,204.7045912625,205.27140119166668,62.0,94.0
840,204.9632117625,205.642090575,53.0,66.0
841,205.22183226250002,205.7649353125,58.0,90.0
842,205.48045276250002,206.04510752083334,62.0,89.0
843,205.48045276250002,206.23260738333335,65.0,94.0
844,205.7390732625,206.25846943333335,53.0,80.0
845,204.7045912625,206.27786597083335,46.0,93.0
846,205.9976937625,206.33821075416668,58.0,93.0
847,206.2563142625,206.45458997916668,62.0,84.0
848,206.7735552625,207.06665849583334,55.0,67.0
849,206.7735552625,207.3619169,58.0,63.0
850,207.0321757625,207.70458906250002,50.0,49.0
851,207.2907962625,208.13346805833334,55.0,84.0
852,206.7735552625,208.43303680416668,43.0,87.0
853,208.0666577625,208.4998471,50.0,78.0
854,208.3252782625,208.56665739583335,55.0,80.0
855,207.54941676250002,208.60760564166668,58.0,87.0
856,207.54941676250002,208.70674350000002,62.0,94.0
857,208.5838987625,209.31234650416667,67.0,89.0
858,209.1011397625,209.650708325,55.0,73.0
859,209.3597602625,210.01924253750002,60.0,78.0
860,209.6183807625,210.18950103333333,62.0,105.0
861,209.87700126250002,210.22829410833333,55.0,76.0
862,208.84251926250002,210.53863870833334,48.0,80.0
863,210.3942422625,210.56019041666667,55.0,78.0
864,210.1356217625,210.892086725,63.0,112.0
865,210.6528627625,210.96536253333335,60.0,92.0
866,211.4287242625,211.63993100416667,56.0,85.0
867,211.17010376250002,211.7907929625,51.0,57.0
868,210.9114832625,212.48475797083333,44.0,96.0
869,211.6873447625,212.51277519166666,56.0,85.0
870,212.4632062625,212.6442406125,51.0,70.0
871,211.6873447625,212.8446715,63.0,93.0
872,212.7218267625,212.9933782875,60.0,89.0
873,213.49768826250002,213.65717090416666,58.0,96.0
874,213.2390677625,213.88346384166667,53.0,66.0
875,213.7563087625,214.383463475,58.0,96.0
876,212.9804472625,214.47613582083335,46.0,99.0
877,214.2735497625,214.55587714166668,53.0,58.0
878,213.7563087625,214.58389436250002,62.0,94.0
879,214.53217026250002,214.88777345,58.0,102.0
880,214.7907907625,215.10975604583334,62.0,66.0
881,215.5666522625,215.68303148750002,63.0,87.0
882,215.3080317625,215.8813072041667,58.0,35.0
883,215.82527276250002,216.17872077916667,63.0,109.0
884,215.82527276250002,216.30803102916667,67.0,97.0
885,215.0494112625,216.44380679166667,51.0,105.0
886,216.0838932625,216.45673781666667,58.0,65.0
887,216.3425137625,216.6916514375,63.0,99.0
888,216.6011342625,216.89639266666669,58.0,59.0
889,216.85975476250002,217.2476855125,68.0,96.0
890,216.85975476250002,217.27139239166667,63.0,93.0
891,217.3769957625,217.74768514583334,63.0,85.0
892,217.3769957625,217.758461,67.0,105.0
893,217.1183752625,218.01492632916668,51.0,102.0
894,217.6356162625,218.04940906250002,58.0,85.0
895,217.89423676250001,218.28001234166666,63.0,90.0
896,217.89423676250001,218.30587439166666,67.0,92.0
897,218.15285726250002,218.5860466,51.0,72.0
898,218.4114777625,218.65285689583334,63.0,79.0
899,218.6700982625,218.82742573333334,58.0,105.0
900,218.4114777625,218.986908375,65.0,108.0
901,218.9287187625,219.23906336250002,63.0,40.0
902,219.7045802625,219.86190773333334,56.0,82.0
903,219.4459597625,220.04940759583334,51.0,74.0
904,219.9632007625,220.34897634166668,56.0,85.0
905,219.9632007625,220.35759702500002,63.0,96.0
906,219.18733926250002,220.4912176166667,44.0,105.0
907,220.22182126250001,220.6032865,51.0,59.0
908,220.48044176250002,220.72828640833333,60.0,92.0
909,220.48044176250002,220.76061397083333,56.0,93.0
910,220.48044176250002,220.80802772916667,63.0,87.0
911,220.7390622625,220.87052768333334,44.0,87.0
912,221.2563032625,221.54509615416669,58.0,74.0
913,221.2563032625,221.82311319166666,62.0,94.0
914,221.7735442625,222.00199237083334,58.0,72.0
915,221.51492376250002,222.142078475,53.0,62.0
916,222.0321647625,222.3425093625,58.0,61.0
917,222.0321647625,222.44164722083335,65.0,102.0
918,221.2563032625,222.61190571666668,46.0,93.0
919,222.2907852625,222.63776776666668,53.0,78.0
920,222.54940576250002,222.81449177500002,62.0,102.0
921,222.54940576250002,222.8252676291667,58.0,82.0
922,222.80802626250002,223.01276749166666,46.0,74.0
923,223.3252672625,223.6032843,55.0,66.0
924,223.3252672625,223.90069787500002,58.0,65.0
925,223.84250826250002,223.97397368333336,55.0,66.0
926,223.5838877625,224.14638735,50.0,64.0
927,224.1011287625,224.4373354125,55.0,84.0
928,224.1011287625,224.45673195,62.0,92.0
929,223.3252672625,224.6313007875,43.0,102.0
930,224.3597492625,224.71966279166668,50.0,82.0
931,224.6183697625,224.8123351375,55.0,92.0
932,224.6183697625,224.82311099166668,58.0,105.0
933,224.87699026250002,224.98905914583335,43.0,87.0
934,225.3942312625,225.62914488333334,60.0,73.0
935,225.3942312625,225.88345504166668,63.0,72.0
936,225.9114722625,226.19810998333335,60.0,94.0
937,225.6528517625,226.2390582291667,55.0,69.0
938,226.17009276250002,226.7261268375,62.0,102.0
939,226.4287132625,226.73043717916667,55.0,69.0
940,225.3942312625,227.030005925,48.0,100.0
941,226.9459542625,227.09681622083335,55.0,71.0
942,227.20457476250002,227.48474697083336,60.0,82.0
943,226.6873337625,227.9545742125,63.0,109.0
944,227.7218157625,228.34897047500002,51.0,72.0
945,227.9804362625,228.55155653333335,56.0,90.0
946,228.2390567625,228.788625325,63.0,99.0
947,227.46319526250002,228.82310805833333,44.0,93.0
948,228.49767726250002,228.83819425416667,51.0,72.0
949,228.7562977625,229.13560782916667,56.0,105.0
950,229.53215926250002,229.8683659125,58.0,70.0
951,229.53215926250002,230.133451925,62.0,102.0
952,229.79077976250002,230.5149171625,53.0,48.0
953,230.0494002625,230.92439962083336,58.0,77.0
954,230.3080207625,231.064485725,65.0,97.0
955,230.3080207625,231.15284772916667,62.0,94.0
956,229.53215926250002,231.18302012083333,46.0,90.0
957,230.82526176250002,231.24336490416667,53.0,51.0
958,231.0838822625,231.31448554166667,58.0,87.0
959,231.3425027625,231.59896809166668,65.0,94.0
960,231.85974376250002,232.4416398875,58.0,68.0
961,232.11836426250002,232.95457054583335,63.0,65.0
962,232.3769847625,233.13344972500002,67.0,82.0
963,231.6011232625,233.41577710416666,51.0,102.0
964,233.15284626250002,233.45672535,63.0,65.0
965,232.8942257625,233.61620799166667,58.0,59.0
966,233.4114667625,233.63991487083334,65.0,58.0
967,233.6700872625,234.866207075,63.0,85.0
968,233.6700872625,235.30586192500002,51.0,96.0
969,233.9287077625,235.31879295000002,58.0,43.0
970,235.7390512625,236.06017171666667,60.0,58.0
971,235.7390512625,236.26491294583334,63.0,79.0
972,236.2562922625,236.55586100833335,60.0,82.0
973,236.51491276250002,236.935171075,62.0,102.0
974,235.9976717625,237.116205425,55.0,62.0
975,235.7390512625,237.1485329875,48.0,92.0
976,237.0321537625,237.24336050416667,63.0,96.0
977,237.80801526250002,238.38775621666667,58.0,50.0
978,237.80801526250002,238.5968077875,62.0,87.0
979,238.3252562625,239.06232468750002,53.0,58.0
980,237.80801526250002,239.2045659625,46.0,59.0
981,238.84249726250002,239.2304280125,62.0,94.0
982,238.5838767625,239.3209451875,58.0,63.0
983,238.84249726250002,239.32310035833333,65.0,102.0
984,239.87697926250002,240.19378937500002,56.0,54.0
985,239.87697926250002,240.4588753875,63.0,61.0
986,240.13559976250002,240.7950820375,51.0,22.0
987,240.3942202625,241.32094372083336,56.0,87.0
988,241.4287022625,241.85758125833334,56.0,65.0
989,239.87697926250002,241.85973642916667,44.0,77.0
990,241.17008176250002,241.90499501666667,51.0,41.0
991,240.6528407625,241.90930535833334,63.0,85.0
992,241.9459432625,242.54292558333333,56.0,70.0
993,241.9459432625,242.74335647083333,60.0,89.0
994,242.7218047625,242.8769770625,56.0,41.0
995,242.46318426250002,243.12913205,51.0,36.0
996,242.9804252625,243.17870097916668,60.0,89.0
997,242.9804252625,243.2002526875,56.0,93.0
998,241.9459432625,243.30154571666668,44.0,82.0
999,242.9804252625,243.35973532916668,63.0,82.0
1000,243.2390457625,243.40283874583335,51.0,52.0
1001,243.49766626250002,243.969648675,62.0,94.0
1002,244.0149072625,244.49551035833335,63.0,65.0
1003,244.0149072625,244.55154480000002,60.0,76.0
1004,244.79076876250002,244.900682475,60.0,40.0
1005,244.53214826250002,245.12913058333334,55.0,62.0
1006,244.0149072625,245.495509625,48.0,97.0
1007,245.3080097625,245.57525094583335,55.0,71.0
1008,245.0493892625,245.598957825,63.0,82.0
1009,245.0493892625,245.63775090000001,67.0,97.0
1010,245.5666302625,245.72180256250002,60.0,105.0
1011,246.0838712625,246.711025975,58.0,61.0
1012,246.0838712625,246.92438788750002,62.0,92.0
1013,246.85973276250002,247.20024975416666,58.0,42.0
1014,246.6011122625,247.25843936666666,53.0,43.0
1015,247.3769737625,247.63990460416667,53.0,84.0
1016,247.11835326250002,247.65068045833334,62.0,89.0
1017,247.11835326250002,247.6743873375,65.0,102.0
1018,246.0838712625,247.693783875,46.0,85.0
1019,247.6355942625,247.8166286125,58.0,99.0
1020,248.15283526250002,249.22826550833335,56.0,77.0
1021,248.6700762625,249.30585165833335,51.0,35.0
1022,248.15283526250002,249.65714450416667,60.0,87.0
1023,249.18731726250002,249.77352372916667,63.0,99.0
1024,248.15283526250002,250.11188555,44.0,99.0
1025,249.44593776250002,250.23688545833335,51.0,63.0
1026,249.7045582625,250.85110914583333,56.0,90.0
1027,250.2217992625,250.87050568333333,60.0,80.0
1028,250.2217992625,251.133436525,63.0,45.0
1029,250.7390402625,251.37481565833335,51.0,32.0
1030,250.2217992625,251.56662586250002,44.0,87.0
1031,251.2562812625,251.58817757083335,56.0,99.0
1032,251.51490176250002,251.77998777500002,51.0,85.0
1033,251.2562812625,251.78214294583336,63.0,99.0
1034,251.77352226250002,251.92222905,44.0,96.0
1035,252.2907632625,253.4416244875,58.0,48.0
1036,252.80800426250002,253.4804175625,53.0,44.0
1037,252.2907632625,253.87481382500002,62.0,87.0
1038,253.3252452625,254.06231368750002,65.0,78.0
1039,252.2907632625,256.1442087125,46.0,48.0
1040,253.5838657625,256.15282939583335,53.0,78.0
1041,253.84248626250002,256.26920862083335,58.0,65.0
1042,254.10110676250002,256.2778293041667,62.0,78.0
1043,254.3597272625,256.38558784583336,65.0,71.0
1044,256.37050165,257.3080009625,67.0,76.0
1045,256.94808743333334,257.3273975,60.0,60.0
1046,257.236880325,257.68731102916666,62.0,76.0
1047,256.3920533583333,259.23687885833334,48.0,78.0
1048,257.56231112083333,259.44377525833335,63.0,87.0
1049,256.66144971250003,259.4761028208333,55.0,52.0
1050,258.00196597083334,259.5579993125,67.0,80.0
1051,258.56015521666666,259.6355854625,60.0,10.0
1052,259.83386117916666,262.73256595000004,55.0,41.0
1053,259.91144732916666,262.7433418041667,63.0,36.0
1054,259.6463613166667,262.74549697500004,48.0,39.0
1055,260.004119675,262.75411765833337,72.0,50.0
1056,259.8166198125,262.75842800000004,60.0,57.0
