,start,end,pitch,velocity
0,28.780328362500004,29.114256600000004,66.0,99.0
1,29.208899362500002,29.499970500000003,66.0,81.0
2,29.637470362500004,29.935684350000002,66.0,79.0
3,30.066041362500005,30.410683875000004,70.0,92.0
4,30.494612362500003,30.887469112500003,68.0,93.0
5,30.923183362500005,31.326754387500003,66.0,81.0
6,31.351754362500003,31.814253900000004,65.0,74.0
7,31.780325362500005,31.814253900000004,65.0,70.0
8,32.208896362500006,34.89103653750001,63.0,97.0
9,35.637464362500005,35.91424980000001,68.0,93.0
10,36.0660353625,36.348177937500004,63.0,93.0
11,36.49460636250001,36.74996325000001,68.0,99.0
12,36.923177362500006,37.1874628125,71.0,102.0
13,37.351748362500004,37.70353372500001,70.0,102.0
14,37.7803193625,37.9624620375,68.0,102.0
15,38.20889036250001,38.442818700000004,66.0,92.0
16,38.637461362500005,38.87674683750001,66.0,95.0
17,39.0660323625,39.28210357500001,65.0,100.0
18,39.280317862500006,39.489246225,63.0,73.0
19,39.49460336250001,41.424958575000005,61.0,95.0
20,42.49460036250001,42.6696001875,70.0,97.0
21,42.92317136250001,43.1195997375,70.0,100.0
22,43.351742362500005,43.5374564625,70.0,99.0
23,43.7803133625,43.96602746250001,73.0,99.0
24,44.20888436250001,44.453526975,71.0,102.0
25,44.637455362500006,44.773169512500004,70.0,100.0
26,45.066026362500004,45.3142404,70.0,96.0
27,45.49459736250001,45.7445971125,69.0,96.0
28,45.92316836250001,46.34995365,68.0,90.0
29,48.49459436250001,48.703522725000006,63.0,89.0
30,48.708879862500005,48.821379750000006,66.0,78.0
31,48.92316536250001,49.1374508625,66.0,89.0
32,49.351736362500006,50.03923567500001,65.0,90.0
33,50.20887836250001,51.639234075000005,63.0,71.0
34,51.92316236250001,52.742804400000004,63.0,88.0
35,52.780304362500004,54.82494517500001,58.0,92.0
36,56.20887236250001,56.59458626250001,66.0,102.0
37,56.63744336250001,57.039228675000004,61.0,86.0
38,57.066014362500006,57.46065682500001,66.0,97.0
39,57.494585362500004,57.84637072500001,70.0,117.0
40,57.92315636250001,58.324941675000005,68.0,107.0
41,58.35172736250001,58.667798475000005,66.0,92.0
42,58.780298362500005,59.30172641250001,65.0,107.0
43,59.20886936250001,59.30172641250001,65.0,112.0
44,59.63744036250001,61.12851030000001,63.0,100.0
45,63.06600836250001,63.28743671250001,68.0,122.0
46,63.494579362500005,63.732079125000006,68.0,107.0
47,63.92315036250001,64.2052929375,68.0,112.0
48,64.35172136250002,64.6517210625,71.0,127.0
49,64.7802923625,65.14814913750001,70.0,122.0
50,65.20886336250001,65.4124345875,68.0,117.0
51,65.6374343625,65.82136275,66.0,102.0
52,66.06600536250001,66.31600511250001,66.0,99.0
53,66.49457636250001,66.83029031250001,65.0,100.0
54,66.70886186250002,66.87136170000001,63.0,95.0
55,66.9231473625,67.95528918750001,61.0,86.0
56,69.92314436250001,70.096358475,70.0,112.0
57,70.35171536250002,70.55885801250001,70.0,102.0
58,70.78028636250001,71.00885756250001,70.0,112.0
59,71.20885736250001,71.4374285625,73.0,122.0
60,71.6374283625,71.82492817500001,71.0,112.0
61,72.06599936250001,72.41421330000001,70.0,122.0
62,72.49457036250001,72.68385588750002,70.0,117.0
63,72.9231413625,73.103498325,69.0,112.0
64,73.35171236250001,74.72671098750001,68.0,112.0
65,75.92313836250001,75.99278115000001,66.0,92.0
66,76.13742386250001,76.22670948750002,66.0,85.0
67,76.3517093625,76.48742351250002,66.0,97.0
68,76.78028036250001,77.21063707500001,65.0,117.0
69,77.20885136250001,77.44456541250001,61.0,75.0
70,77.42313686250002,79.20706365000001,63.0,85.0
71,79.35170636250001,80.15349127500001,66.0,93.0
72,80.2088483625,82.46956038750001,63.0,96.0
73,82.78027436250001,82.96777417500002,70.0,107.0
74,82.99455986250001,83.15348827500002,71.0,95.0
75,83.20884536250001,83.49455936250001,73.0,112.0
76,83.6374163625,84.67848675,75.0,127.0
77,84.9231293625,85.18562910000001,78.0,127.0
78,85.35170036250001,86.05884251250001,77.0,127.0
79,86.63741336250001,86.9856273,73.0,127.0
80,87.06598436250002,87.5802695625,70.0,112.0
81,87.49455536250001,87.5802695625,70.0,107.0
82,87.92312636250001,88.15884041250001,70.0,102.0
83,88.3516973625,88.76955408750001,77.0,127.0
84,88.78026836250001,89.69455316250001,75.0,127.0
85,90.06598136250001,90.20526693750001,68.0,122.0
86,90.28026686250001,90.40883816250002,70.0,97.0
87,90.49455236250002,91.439194275,71.0,117.0
88,91.78026536250002,91.98562230000002,75.0,127.0
89,92.20883636250001,92.51597891250002,73.0,122.0
90,92.63740736250001,93.11776402500001,71.0,112.0
91,93.49454936250001,93.69990630000001,70.0,127.0
92,93.70883486250001,93.93740606250002,68.0,102.0
93,93.92312036250001,94.16240583750002,70.0,127.0
94,94.13740586250002,94.31776282500002,71.0,112.0
95,94.3516913625,95.83561845000001,70.0,99.0
96,96.49454636250002,96.67668903750001,70.0,112.0
97,96.7088318625,96.87847455,71.0,112.0
98,96.92311736250001,97.22668848750001,73.0,117.0
99,97.35168836250001,98.23740176250001,75.0,127.0
100,98.63740136250001,98.93382963750001,78.0,127.0
101,99.06597236250002,100.02489997500001,77.0,127.0
102,100.3516853625,100.60168511250001,73.0,122.0
103,100.78025636250001,101.03204182500001,70.0,112.0
104,101.20882736250002,101.47846995000002,70.0,102.0
105,101.63739836250001,101.8731124125,70.0,102.0
106,102.06596936250001,102.41775472500001,77.0,127.0
107,102.49454036250002,103.08203977500001,75.0,127.0
108,103.78025336250002,103.93025321250002,68.0,102.0
109,103.99453886250001,104.11953873750001,70.0,100.0
110,104.20882436250001,105.04275210000002,71.0,117.0
111,105.49453736250001,105.82132275000001,75.0,127.0
112,105.92310836250002,106.40525073750001,73.0,127.0
113,106.35167936250001,106.84453601250001,71.0,122.0
114,107.20882136250002,107.41417830000002,70.0,122.0
115,107.42310686250002,107.58739241250001,68.0,99.0
116,107.63739236250001,108.15524898750002,70.0,117.0
117,108.06596336250001,108.15524898750002,70.0,127.0
118,110.20881836250001,110.35346107500001,70.0,122.0
119,110.42310386250001,110.57667513750002,71.0,127.0
120,110.63738936250002,110.89274625000002,73.0,122.0
121,111.06596036250002,111.78381678750002,75.0,127.0
122,112.35167336250001,112.58560170000001,71.0,127.0
123,112.56595886250001,112.74274440000002,70.0,102.0
124,112.78024436250001,113.48202937500001,68.0,112.0
125,114.49452836250002,114.77309951250001,73.0,127.0
126,114.92309936250001,115.22309906250001,73.0,102.0
127,115.35167036250002,115.63738436250001,73.0,112.0
128,115.78024136250002,116.12131245000002,77.0,127.0
129,116.20881236250001,117.30166841250002,75.0,127.0
130,117.49452536250001,117.64273950000002,68.0,102.0
131,117.70881086250002,117.84273930000002,70.0,97.0
132,117.92309636250002,118.62130995000001,71.0,127.0
133,119.20880936250002,119.41952343750002,75.0,127.0
134,119.63738036250001,119.94988005000002,73.0,127.0
135,120.06595136250002,120.30880826250002,71.0,127.0
136,120.92309336250001,121.13023601250002,70.0,127.0
137,121.13737886250001,121.31059297500002,68.0,117.0
138,121.35166436250002,123.24273390000002,66.0,112.0
139,155.63734436250002,156.02305826250003,66.0,102.0
140,156.06591536250002,156.46770067500003,61.0,86.0
141,156.49448636250003,156.88912882500003,66.0,97.0
142,156.92305736250003,157.274842725,70.0,117.0
143,157.3516283625,157.75341367500002,68.0,107.0
144,157.7801993625,158.096270475,66.0,92.0
145,158.20877036250002,158.73019841250002,65.0,107.0
146,158.63734136250002,158.73019841250002,65.0,112.0
147,159.06591236250003,160.55698230000002,63.0,100.0
148,162.4944803625,162.7159087125,68.0,122.0
149,162.92305136250002,163.160551125,68.0,107.0
150,163.35162236250002,163.63376493750002,68.0,112.0
151,163.78019336250003,164.08019306250003,71.0,127.0
152,164.20876436250003,164.5766211375,70.0,122.0
153,164.6373353625,164.84090658750003,68.0,117.0
154,165.06590636250002,165.24983475000002,66.0,102.0
155,165.49447736250002,165.74447711250002,66.0,99.0
156,165.92304836250003,166.2587623125,65.0,100.0
157,166.13733386250001,166.29983370000002,63.0,95.0
158,166.35161936250003,167.38376118750003,61.0,86.0
159,169.3516163625,169.52483047500002,70.0,112.0
160,169.78018736250002,169.98733001250002,70.0,102.0
161,170.20875836250002,170.43732956250003,70.0,112.0
162,170.63732936250003,170.86590056250003,73.0,122.0
163,171.06590036250003,171.25340017500002,71.0,112.0
164,171.49447136250004,171.84268530000003,70.0,122.0
165,171.9230423625,172.11232788750002,70.0,117.0
166,172.35161336250002,172.53197032500003,69.0,112.0
167,172.78018436250002,174.1551829875,68.0,112.0
168,175.35161036250003,175.42125315,66.0,92.0
169,175.5658958625,175.65518148750002,66.0,85.0
170,175.78018136250003,175.91589551250001,66.0,97.0
171,176.20875236250004,176.63910907500002,65.0,117.0
172,176.6373233625,176.87303741250003,61.0,75.0
173,176.85160886250003,178.63553565000004,63.0,85.0
174,178.7801783625,179.58196327500002,66.0,93.0
175,179.63732036250002,181.89803238750002,63.0,96.0
176,182.20874636250002,182.39624617500002,70.0,107.0
177,182.4230318625,182.58196027500003,71.0,95.0
178,182.63731736250003,182.9230313625,73.0,112.0
179,183.06588836250003,184.10695875000002,75.0,127.0
180,184.35160136250002,184.61410110000003,78.0,127.0
181,184.78017236250002,185.48731451250003,77.0,127.0
182,186.0658853625,186.41409930000003,73.0,127.0
183,186.49445636250002,187.00874156250003,70.0,112.0
184,186.92302736250002,187.00874156250003,70.0,107.0
185,187.35159836250003,187.5873124125,70.0,102.0
186,187.78016936250003,188.1980260875,77.0,127.0
187,188.20874036250004,189.12302516250003,75.0,127.0
188,189.49445336250002,189.63373893750003,68.0,122.0
189,189.7087388625,189.83731016250002,70.0,97.0
190,189.92302436250003,190.86766627500003,71.0,117.0
191,191.20873736250002,191.41409430000002,75.0,127.0
192,191.63730836250002,191.94445091250003,73.0,122.0
193,192.06587936250003,192.546236025,71.0,112.0
194,192.92302136250004,193.12837830000004,70.0,127.0
195,193.13730686250003,193.36587806250003,68.0,102.0
196,193.3515923625,193.59087783750002,70.0,127.0
197,193.56587786250003,193.74623482500002,71.0,112.0
198,193.78016336250002,195.26409045000003,70.0,99.0
199,195.92301836250002,196.10516103750004,70.0,112.0
200,196.13730386250003,196.30694655000002,71.0,112.0
201,196.35158936250002,196.6551604875,73.0,117.0
202,196.78016036250003,197.6658737625,75.0,127.0
203,198.0658733625,198.36230163750002,78.0,127.0
204,198.49444436250002,199.45337197500004,77.0,127.0
205,199.78015736250003,200.03015711250004,73.0,122.0
206,200.20872836250004,200.46051382500002,70.0,112.0
207,200.63729936250002,200.90694195000003,70.0,102.0
208,201.06587036250002,201.30158441250003,70.0,102.0
209,201.49444136250003,201.84622672500004,77.0,127.0
210,201.92301236250003,202.51051177500003,75.0,127.0
211,203.20872536250002,203.35872521250002,68.0,102.0
212,203.42301086250004,203.54801073750002,70.0,100.0
213,203.63729636250002,204.47122410000003,71.0,117.0
214,204.92300936250004,205.24979475000004,75.0,127.0
215,205.35158036250002,205.83372273750004,73.0,127.0
216,205.78015136250002,206.27300801250001,71.0,122.0
217,206.63729336250003,206.84265030000003,70.0,122.0
218,206.85157886250002,207.01586441250004,68.0,99.0
219,207.06586436250004,207.58372098750002,70.0,117.0
220,207.4944353625,207.58372098750002,70.0,127.0
221,209.63729036250004,209.78193307500004,70.0,122.0
222,209.85157586250003,210.00514713750002,71.0,127.0
223,210.06586136250002,210.32121825000002,73.0,122.0
224,210.49443236250002,211.21228878750003,75.0,127.0
225,211.78014536250004,212.01407370000004,71.0,127.0
226,211.99443086250002,212.17121640000002,70.0,102.0
227,212.20871636250004,212.91050137500002,68.0,112.0
228,213.92300036250003,214.20157151250004,73.0,127.0
229,214.35157136250004,214.65157106250004,73.0,102.0
230,214.78014236250002,215.06585636250003,73.0,112.0
231,215.20871336250002,215.54978445000003,77.0,127.0
232,215.63728436250003,216.73014041250002,75.0,127.0
233,216.92299736250004,217.07121150000003,68.0,102.0
234,217.13728286250003,217.27121130000003,70.0,97.0
235,217.35156836250002,218.04978195000004,71.0,127.0
236,218.63728136250003,218.84799543750003,75.0,127.0
237,219.06585236250004,219.37835205000002,73.0,127.0
238,219.49442336250002,219.73728026250004,71.0,127.0
239,220.35156536250003,220.55870801250003,70.0,127.0
240,220.56585086250004,220.73906497500002,68.0,117.0
241,220.78013636250003,222.67120590000002,66.0,112.0
