,start,end,pitch,velocity
0,1.3517843625000001,4.235710050000001,42.0,45.0
1,1.7803553625000001,4.3017814125000005,49.0,34.0
2,2.2089263625,4.56428115,54.0,27.0
3,3.0660683625000003,4.771423800000001,70.0,33.0
4,2.6374973625000004,4.7874952125000005,61.0,31.0
5,3.0660683625000003,4.79285235,66.0,27.0
6,6.066065362500001,6.498207787500001,58.0,28.0
7,5.637494362500001,7.310706975000001,56.0,28.0
8,5.208923362500001,7.346421225000001,51.0,33.0
9,4.7803523625,7.383921187500001,44.0,40.0
10,6.4946363625000005,7.617849525000001,63.0,24.0
11,6.4946363625000005,7.908920662500001,59.0,25.0
12,8.2089203625,8.726776987500001,59.0,31.0
13,8.2089203625,8.760705525,63.0,33.0
14,8.2089203625,8.7732055125,66.0,33.0
15,8.6374913625,10.389275325000002,54.0,33.0
16,8.2089203625,10.507132350000001,47.0,46.0
17,9.923204362500002,10.67856075,66.0,31.0
18,9.0660623625,11.1696316875,59.0,35.0
19,9.494633362500002,11.196417375000001,63.0,27.0
20,11.637488362500001,12.557130300000003,66.0,31.0
21,11.637488362500001,12.564273150000002,70.0,31.0
22,12.494630362500002,14.587485412500001,54.0,37.0
23,12.0660593625,14.962485037500002,49.0,31.0
24,11.637488362500001,14.994627862500002,61.0,31.0
25,12.923201362500002,15.007127850000002,66.0,30.0
26,11.637488362500001,15.019627837500002,42.0,38.0
27,13.351772362500002,15.021413550000002,70.0,34.0
28,15.494627362500003,16.035698250000003,49.0,45.0
29,15.923198362500003,16.43569785,66.0,81.0
30,15.923198362500003,16.666054762500004,54.0,76.0
31,15.923198362500003,17.5339110375,70.0,71.0
32,16.566054862500003,17.566053862500002,66.0,42.0
33,16.566054862500003,17.591053837500002,61.0,85.0
34,17.208911362500004,17.749982250000002,54.0,65.0
35,17.8517678625,18.058910512500002,54.0,57.0
36,15.066056362500001,18.153553275000004,42.0,75.0
37,16.3517693625,18.464267250000002,49.0,43.0
38,18.066053362500003,18.514267200000003,61.0,77.0
39,17.637482362500002,18.5410528875,66.0,82.0
40,17.637482362500002,18.553552875,70.0,86.0
41,18.923195362500003,19.599980400000003,51.0,52.0
42,19.3517663625,19.8696229875,59.0,86.0
43,19.780337362500003,20.3714082,51.0,55.0
44,19.9946228625,20.867836275000002,59.0,71.0
45,19.9946228625,20.892836250000002,63.0,66.0
46,20.637479362500002,21.121407450000003,51.0,64.0
47,20.8517648625,21.141050287500004,56.0,59.0
48,18.4946243625,21.371407200000004,44.0,77.0
49,21.280335862500003,21.396407175000004,51.0,66.0
50,21.708906862500005,21.932120925000003,56.0,76.0
51,21.494621362500002,21.953549475000003,59.0,72.0
52,21.066050362500004,21.964263750000004,63.0,89.0
53,22.780334362500003,23.3339052375,59.0,75.0
54,22.780334362500003,23.510690775000004,54.0,72.0
55,23.208905362500005,23.844619012500004,47.0,52.0
56,23.423190862500004,24.3660470625,63.0,72.0
57,23.423190862500004,24.389261325000003,59.0,70.0
58,23.851761862500002,24.467832675000004,54.0,61.0
59,24.280332862500003,24.594618262500003,47.0,63.0
60,24.7089038625,24.867832275000005,47.0,66.0
61,21.923192362500004,25.048189237500004,35.0,69.0
62,24.494618362500002,25.058903512500002,59.0,78.0
63,24.494618362500002,25.074974925000003,63.0,76.0
64,24.923189362500004,25.264260450000002,54.0,69.0
65,22.3517633625,25.303546125000004,42.0,41.0
66,25.351760362500002,25.392831750000003,47.0,39.0
67,25.351760362500002,27.958900612500003,54.0,65.0
68,26.2089023625,27.973186312500005,42.0,35.0
69,25.351760362500002,27.994614862500004,59.0,68.0
70,25.351760362500002,28.003543425000004,35.0,66.0
71,25.351760362500002,28.032114825000004,63.0,69.0
72,26.2089023625,28.235686050000005,47.0,35.0
73,28.780328362500004,31.328540100000005,58.0,79.0
74,28.780328362500004,31.346397225000004,61.0,71.0
75,28.780328362500004,31.355325787500004,54.0,77.0
76,28.780328362500004,31.355325787500004,65.0,73.0
77,28.780328362500004,31.432111425000006,42.0,70.0
78,33.0660383625,33.4767522375,59.0,60.0
79,33.0660383625,33.7338948375,63.0,65.0
80,33.49460936250001,33.985680300000006,56.0,56.0
81,33.0660383625,34.328537100000005,68.0,59.0
82,34.1374658625,34.45532268750001,56.0,69.0
83,34.3517513625,34.832108025000004,63.0,57.0
84,33.7088948625,34.94996505,59.0,83.0
85,34.566036862500006,34.994607862500004,56.0,56.0
86,32.208896362500006,35.464250250000006,44.0,75.0
87,32.637467362500004,35.6410357875,51.0,43.0
88,35.4231788625,35.8910355375,59.0,41.0
89,35.20889336250001,35.97853545,63.0,53.0
90,34.7803223625,36.10710675000001,68.0,82.0
91,36.923177362500006,37.564248150000005,56.0,58.0
92,37.351748362500004,38.0428191,68.0,69.0
93,36.49460636250001,38.082104775000005,63.0,66.0
94,36.49460636250001,38.09281905,59.0,68.0
95,37.7803193625,38.15889041250001,56.0,72.0
96,36.0660353625,38.282104575000005,51.0,57.0
97,38.4231758625,38.512461487500005,51.0,36.0
98,35.637464362500005,38.5731757125,44.0,61.0
99,38.20889036250001,39.080318062500005,68.0,89.0
100,38.20889036250001,39.092818050000005,63.0,79.0
101,38.637461362500005,39.099960900000006,59.0,66.0
102,39.923174362500006,40.44995955,61.0,76.0
103,39.923174362500006,40.45353097500001,65.0,68.0
104,39.923174362500006,40.482102375000004,56.0,72.0
105,40.56603086250001,40.75888781250001,56.0,51.0
106,40.351745362500004,40.987459012500004,49.0,58.0
107,40.56603086250001,41.52138705000001,61.0,69.0
108,40.56603086250001,41.524958475000005,65.0,62.0
109,41.4231728625,41.723172562500004,49.0,41.0
110,41.20888736250001,41.735672550000004,56.0,35.0
111,39.0660323625,41.960672325000004,37.0,72.0
112,39.49460336250001,41.9660294625,44.0,52.0
113,41.85174386250001,42.080315062500006,49.0,83.0
114,41.637458362500006,42.13745786250001,61.0,82.0
115,42.066029362500004,42.46781467500001,56.0,77.0
116,41.637458362500006,42.528528900000005,65.0,89.0
117,42.280314862500006,42.539243175,61.0,66.0
118,43.351742362500005,43.874956125000004,61.0,66.0
119,43.351742362500005,43.999956000000005,65.0,70.0
120,43.351742362500005,44.05888451250001,70.0,66.0
121,43.7803133625,44.43209842500001,58.0,78.0
122,44.20888436250001,44.730312412500005,65.0,63.0
123,44.20888436250001,44.7588838125,70.0,63.0
124,44.20888436250001,44.93924077500001,61.0,59.0
125,44.637455362500006,45.1088834625,58.0,67.0
126,45.28031186250001,45.44281170000001,58.0,66.0
127,42.92317136250001,45.458883112500004,53.0,52.0
128,42.49460036250001,45.535668750000006,46.0,79.0
129,45.066026362500004,45.93745406250001,70.0,99.0
130,45.49459736250001,45.946382625000005,65.0,72.0
131,45.708882862500005,45.966025462500006,61.0,69.0
132,46.351739362500005,46.932095925000006,51.0,58.0
133,46.7803103625,47.38209547500001,63.0,79.0
134,47.20888136250001,47.648166637500005,51.0,37.0
135,47.423166862500004,48.15709470000001,56.0,63.0
136,47.423166862500004,48.353523075000005,63.0,58.0
137,47.423166862500004,48.36245163750001,59.0,60.0
138,48.066023362500005,48.521380050000005,51.0,38.0
139,48.708879862500005,48.839236875000005,51.0,72.0
140,45.92316836250001,48.901736812500005,44.0,76.0
141,48.49459436250001,48.94816533750001,59.0,81.0
142,48.92316536250001,49.274950725000004,56.0,82.0
143,49.1374508625,49.36066492500001,58.0,69.0
144,48.49459436250001,49.39280775000001,63.0,88.0
145,50.20887836250001,50.70709215000001,59.0,68.0
146,50.63744936250001,51.228520200000006,47.0,53.0
147,50.20887836250001,51.5695912875,54.0,70.0
148,50.20887836250001,51.76601966250001,63.0,66.0
149,50.85173486250001,51.796376775000006,59.0,61.0
150,51.49459136250001,51.96601946250001,47.0,58.0
151,49.780307362500004,52.169590687500005,42.0,47.0
152,49.351736362500006,52.19280495000001,35.0,76.0
153,52.137447862500004,52.39816188750001,47.0,60.0
154,52.351733362500006,52.74101868750001,54.0,69.0
155,51.92316236250001,52.767804375000004,59.0,89.0
156,51.92316236250001,52.77137580000001,63.0,88.0
157,53.63744636250001,54.171374400000005,58.0,75.0
158,53.63744636250001,54.17316011250001,61.0,79.0
159,54.066017362500006,54.714231000000005,54.0,61.0
160,54.28030286250001,55.201730512500006,61.0,66.0
161,54.28030286250001,55.21601621250001,58.0,69.0
162,54.92315936250001,55.40887316250001,54.0,41.0
163,55.35173036250001,55.880301262500005,61.0,79.0
164,52.780304362500004,55.92851550000001,42.0,82.0
165,53.20887536250001,55.94637262500001,49.0,51.0
166,55.56601586250001,56.035658250000004,54.0,66.0
167,55.780301362500005,56.06958678750001,58.0,67.0
168,56.20887236250001,58.75708410000001,58.0,79.0
169,56.20887236250001,58.774941225000006,61.0,71.0
170,56.20887236250001,58.78386978750001,54.0,77.0
171,56.20887236250001,58.78386978750001,65.0,73.0
172,56.20887236250001,58.860655425000004,42.0,70.0
173,60.494582362500005,60.90529623750001,59.0,60.0
174,60.494582362500005,61.162438837500005,63.0,65.0
175,60.92315336250001,61.41422430000001,56.0,56.0
176,60.494582362500005,61.75708110000001,68.0,59.0
177,61.56600986250001,61.88386668750001,56.0,69.0
178,61.780295362500006,62.260652025000006,63.0,57.0
179,61.137438862500005,62.378509050000005,59.0,83.0
180,61.99458086250001,62.423151862500006,56.0,56.0
181,59.63744036250001,62.89279425000001,44.0,75.0
182,60.06601136250001,63.06957978750001,51.0,43.0
183,62.85172286250001,63.31957953750001,59.0,41.0
184,62.63743736250001,63.407079450000005,63.0,53.0
185,62.20886636250001,63.53565075000001,68.0,82.0
186,64.35172136250002,64.99279215000001,56.0,58.0
187,64.7802923625,65.4713631,68.0,69.0
188,63.92315036250001,65.510648775,63.0,66.0
189,63.92315036250001,65.52136305,59.0,68.0
190,65.20886336250001,65.5874344125,56.0,72.0
191,63.494579362500005,65.71064857500001,51.0,57.0
192,65.8517198625,65.94100548750001,51.0,36.0
193,63.06600836250001,66.0017197125,44.0,61.0
194,65.6374343625,66.50886206250001,68.0,89.0
195,65.6374343625,66.52136205000001,63.0,79.0
196,66.06600536250001,66.52850490000002,59.0,66.0
197,67.35171836250001,67.87850355,61.0,76.0
198,67.35171836250001,67.88207497500001,65.0,68.0
199,67.35171836250001,67.91064637500001,56.0,72.0
200,67.9945748625,68.18743181250001,56.0,51.0
201,67.78028936250001,68.41600301250001,49.0,58.0
202,67.9945748625,68.94993105,61.0,69.0
203,67.9945748625,68.95350247500001,65.0,62.0
204,68.85171686250001,69.15171656250001,49.0,41.0
205,68.63743136250001,69.16421655,56.0,35.0
206,66.49457636250001,69.389216325,37.0,72.0
207,66.9231473625,69.3945734625,44.0,52.0
208,69.2802878625,69.50885906250001,49.0,83.0
209,69.06600236250002,69.5660018625,61.0,82.0
210,69.4945733625,69.89635867500002,56.0,77.0
211,69.06600236250002,69.95707290000001,65.0,89.0
212,69.70885886250001,69.96778717500001,61.0,66.0
213,70.78028636250001,71.30350012500001,61.0,66.0
214,70.78028636250001,71.42850000000001,65.0,70.0
215,70.78028636250001,71.4874285125,70.0,66.0
216,71.20885736250001,71.86064242500001,58.0,78.0
217,71.6374283625,72.15885641250001,65.0,63.0
218,71.6374283625,72.1874278125,70.0,63.0
219,71.6374283625,72.367784775,61.0,59.0
220,72.06599936250001,72.5374274625,58.0,67.0
221,72.70885586250002,72.87135570000001,58.0,66.0
222,70.35171536250002,72.8874271125,53.0,52.0
223,69.92314436250001,72.96421275000002,46.0,79.0
224,72.49457036250001,73.36599806250001,70.0,99.0
225,72.9231413625,73.37492662500001,65.0,72.0
226,73.1374268625,73.39456946250002,61.0,69.0
227,73.78028336250001,74.36063992500002,51.0,58.0
228,74.2088543625,74.81063947500002,63.0,79.0
229,74.63742536250001,75.07671063750001,51.0,37.0
230,74.85171086250001,75.5856387,56.0,63.0
231,74.85171086250001,75.78206707500001,63.0,58.0
232,74.85171086250001,75.7909956375,59.0,60.0
233,75.4945673625,75.94992405,51.0,38.0
234,76.13742386250001,76.26778087500001,51.0,72.0
235,73.35171236250001,76.3302808125,44.0,76.0
236,75.92313836250001,76.3767093375,59.0,81.0
237,76.3517093625,76.70349472500001,56.0,82.0
238,76.5659948625,76.78920892500001,58.0,69.0
239,75.92313836250001,76.82135175,63.0,88.0
240,77.6374223625,78.13563615000001,59.0,68.0
241,78.06599336250001,78.65706420000001,47.0,53.0
242,77.6374223625,78.9981352875,54.0,70.0
243,77.6374223625,79.19456366250002,63.0,66.0
244,78.28027886250001,79.22492077500002,59.0,61.0
245,78.9231353625,79.39456346250002,47.0,58.0
246,77.20885136250001,79.5981346875,42.0,47.0
247,76.78028036250001,79.62134895000001,35.0,76.0
248,79.56599186250001,79.82670588750001,47.0,60.0
249,79.78027736250002,80.1695626875,54.0,69.0
250,79.35170636250001,80.19634837500001,59.0,89.0
251,79.35170636250001,80.1999198,63.0,88.0
252,80.2088483625,80.61241938750001,66.0,76.0
253,80.2088483625,80.61599081250002,70.0,74.0
254,80.2088483625,80.66599076250002,63.0,75.0
255,81.06599036250002,81.5802755625,66.0,81.0
256,81.06599036250002,81.6052755375,63.0,83.0
257,81.06599036250002,81.62670408750002,58.0,72.0
258,81.70884686250001,81.996346575,66.0,77.0
259,81.70884686250001,82.0159894125,63.0,89.0
260,81.49456136250001,82.2409891875,51.0,88.0
261,82.3517033625,82.6659887625,58.0,42.0
262,82.13741786250002,82.68384588750001,66.0,72.0
263,82.13741786250002,82.696345875,63.0,82.0
264,82.5659888625,82.87313141250002,51.0,73.0
265,80.2088483625,83.0767026375,39.0,69.0
266,80.63741936250001,83.09455976250001,46.0,52.0
267,82.99455986250001,83.19098823750001,51.0,96.0
268,83.20884536250001,83.55527358750001,63.0,100.0
269,82.78027436250001,83.57848785000002,66.0,127.0
270,83.42313086250002,83.59277355,58.0,97.0
271,84.06598736250001,84.56062972500001,56.0,107.0
272,84.28027286250001,84.63741536250001,63.0,117.0
273,84.70884386250002,84.82491517500002,56.0,112.0
274,83.85170186250001,84.84991515000002,51.0,95.0
275,83.6374163625,84.97491502500002,44.0,97.0
276,84.49455836250002,85.23562905000001,71.0,127.0
277,84.9231293625,85.24455761250002,68.0,102.0
278,85.13741486250001,85.34991465000002,63.0,99.0
279,85.78027136250002,86.24812803750001,49.0,95.0
280,85.9945568625,86.34277080000001,56.0,96.0
281,85.35170036250001,86.4945563625,37.0,78.0
282,85.56598586250001,86.51241348750001,44.0,95.0
283,86.42312786250001,86.6195562375,49.0,92.0
284,86.63741336250001,86.91419880000001,56.0,100.0
285,86.85169886250002,87.0302701125,61.0,100.0
286,86.20884236250001,87.07312721250001,65.0,122.0
287,87.49455536250001,87.72848370000001,58.0,95.0
288,87.70884086250001,87.92491207500001,61.0,112.0
289,87.2802698625,88.00526913750001,53.0,82.0
290,88.13741186250002,88.2516974625,53.0,107.0
291,87.06598436250002,88.2659831625,46.0,76.0
292,87.92312636250001,88.56776857500002,65.0,127.0
293,88.3516973625,88.64098278750001,61.0,96.0
294,88.56598286250001,88.95526818750001,58.0,100.0
295,89.20883936250002,89.70348172500002,51.0,93.0
296,89.42312486250002,89.79812448750002,58.0,95.0
297,88.78026836250001,89.98562430000001,39.0,82.0
298,88.99455386250001,90.00883856250002,46.0,89.0
299,89.85169586250001,90.11062417500001,51.0,97.0
300,90.28026686250001,90.49990950000002,58.0,93.0
301,90.06598136250001,90.49990950000002,63.0,86.0
302,89.6374103625,90.52490947500002,66.0,100.0
303,90.92312336250001,91.39990860000002,56.0,92.0
304,91.13740886250001,91.46776567500001,63.0,83.0
305,91.56597986250001,91.67133690000001,56.0,99.0
306,90.70883786250002,91.68383688750001,51.0,69.0
307,90.49455236250002,91.75883681250001,44.0,93.0
308,91.35169436250001,91.78740821250001,68.0,82.0
309,91.35169436250001,92.15347927500001,71.0,95.0
310,91.9945508625,92.16419355000001,68.0,82.0
311,91.78026536250002,92.21062207500002,63.0,96.0
312,92.63740736250001,93.12133545000002,49.0,77.0
313,92.85169286250002,93.12669258750002,61.0,96.0
314,92.42312186250001,93.44812083750001,44.0,59.0
315,92.20883636250001,93.47490652500001,37.0,78.0
316,93.28026386250001,93.86062042500001,49.0,86.0
317,93.06597836250002,93.88740611250002,65.0,89.0
318,93.70883486250001,93.93740606250002,68.0,93.0
319,93.49454936250001,93.96240603750002,61.0,95.0
320,94.56597686250001,94.75526238750001,61.0,92.0
321,94.3516913625,94.87490512500001,54.0,85.0
322,94.78026236250001,95.26776187500002,66.0,99.0
323,94.78026236250001,95.27490472500001,70.0,102.0
324,95.42311886250002,95.69097573750001,66.0,86.0
325,95.42311886250002,95.69454716250002,61.0,89.0
326,95.42311886250002,95.69990430000001,70.0,82.0
327,95.20883336250002,96.08740391250001,54.0,88.0
328,96.06597536250001,96.34990365000002,61.0,78.0
329,95.85168986250001,96.37490362500002,66.0,95.0
330,95.85168986250001,96.37490362500002,70.0,96.0
331,96.28026086250001,96.53918917500002,54.0,89.0
332,96.7088318625,96.89454596250002,54.0,96.0
333,96.49454636250002,97.00168871250001,70.0,102.0
334,96.49454636250002,97.01061727500002,66.0,99.0
335,93.92312036250001,97.1338314375,42.0,71.0
336,96.92311736250001,97.27847415000001,61.0,99.0
337,94.13740586250002,97.28025986250002,49.0,69.0
338,97.13740286250001,97.34811693750001,66.0,89.0
339,97.13740286250001,97.36061692500002,70.0,92.0
340,97.78025936250002,98.30347312500001,56.0,95.0
341,97.9945448625,98.37311591250001,59.0,88.0
342,98.42311586250001,98.53561575000002,56.0,93.0
343,97.56597386250002,98.54097288750002,51.0,76.0
344,97.35168836250001,98.59811568750001,44.0,90.0
345,98.63740136250001,98.97668673750002,63.0,90.0
346,98.20883036250001,98.98918672500001,68.0,99.0
347,98.85168686250002,99.09811518750001,59.0,100.0
348,99.49454336250001,99.99990000000001,49.0,97.0
349,99.70882886250001,100.09811418750002,56.0,97.0
350,99.06597236250002,100.24632832500001,37.0,68.0
351,99.28025786250001,100.26239973750002,44.0,88.0
352,100.13739986250002,100.35347107500002,49.0,93.0
353,100.3516853625,100.75882781250002,61.0,88.0
354,100.56597086250001,100.79989920000001,56.0,88.0
355,99.92311436250002,100.80347062500002,65.0,112.0
356,101.20882736250002,101.467755675,58.0,96.0
357,101.42311286250002,101.67846975000002,61.0,95.0
358,100.99454186250001,101.75882681250002,53.0,83.0
359,101.85168386250001,101.98025516250001,53.0,102.0
360,100.78025636250001,102.00882656250002,46.0,81.0
361,102.06596936250001,102.32668338750001,61.0,95.0
362,101.63739836250001,102.33025481250002,65.0,107.0
363,102.28025486250002,102.61418310000002,58.0,92.0
364,102.92311136250001,103.44453941250002,51.0,92.0
365,103.13739686250001,103.63203922500001,58.0,89.0
366,102.49454036250002,103.71596771250002,39.0,75.0
367,102.7088258625,103.73025341250002,46.0,95.0
368,103.56596786250002,103.96061032500002,51.0,88.0
369,103.99453886250001,104.19811008750001,58.0,93.0
370,103.35168236250001,104.20525293750002,66.0,100.0
371,103.78025336250002,104.20882436250001,63.0,85.0
372,104.63739536250002,105.14453771250001,56.0,86.0
373,104.85168086250002,105.19275195000002,59.0,79.0
374,105.28025186250001,105.42489457500001,56.0,92.0
375,104.42310986250001,105.43203742500002,51.0,72.0
376,104.20882436250001,105.50168021250002,44.0,73.0
377,105.06596636250002,105.90703695000002,68.0,85.0
378,105.49453736250001,105.91596551250001,63.0,77.0
379,105.70882286250001,105.96239403750002,59.0,97.0
380,106.35167936250001,106.91596451250001,49.0,96.0
381,106.56596486250001,107.04632152500001,56.0,89.0
382,105.92310836250002,107.22132135000001,37.0,73.0
383,106.13739386250002,107.22846420000002,44.0,78.0
384,106.99453586250002,107.53203532500001,49.0,89.0
385,107.20882136250002,107.59096383750001,61.0,83.0
386,106.78025036250001,107.60346382500002,65.0,127.0
387,107.42310686250002,107.61060667500001,56.0,90.0
388,108.06596336250001,108.56239143750001,54.0,90.0
389,108.28024886250002,108.68917702500002,61.0,89.0
390,107.63739236250001,109.22489077500002,42.0,78.0
391,107.85167786250001,109.36774777500001,49.0,72.0
392,108.70881986250001,109.58739041250001,54.0,95.0
393,109.13739086250001,109.81953303750001,61.0,86.0
394,108.49453436250002,110.06596136250002,70.0,102.0
395,108.92310536250001,110.10167561250002,66.0,97.0
396,109.78024736250002,110.28381828750001,54.0,79.0
397,109.99453286250001,110.34988965000001,61.0,89.0
398,110.42310386250001,110.85524628750001,54.0,99.0
399,109.56596186250002,111.01596041250002,49.0,61.0
400,110.63738936250002,111.04274610000002,61.0,89.0
401,110.20881836250001,111.05524608750001,66.0,100.0
402,110.20881836250001,111.07310321250002,70.0,100.0
403,109.35167636250002,111.08917462500001,42.0,72.0
404,111.49453136250001,111.86595956250001,56.0,92.0
405,111.28024586250001,111.98560230000001,51.0,79.0
406,111.70881686250002,112.14274500000002,59.0,93.0
407,112.13738786250002,112.25167346250001,51.0,73.0
408,111.06596036250002,112.25881631250002,44.0,83.0
409,111.92310236250002,112.71953013750002,68.0,102.0
410,112.35167336250001,112.72488727500001,63.0,78.0
411,112.56595886250001,112.84274430000002,59.0,86.0
412,113.20881536250002,113.70702915000001,49.0,88.0
413,113.42310086250002,113.89274325000001,56.0,93.0
414,112.78024436250001,113.94095748750001,37.0,77.0
415,112.99452986250002,113.96060032500002,44.0,65.0
416,113.85167186250001,114.05167166250001,49.0,88.0
417,114.06595736250001,114.36238563750001,56.0,90.0
418,114.28024286250002,114.48559980000002,61.0,90.0
419,113.63738636250001,114.49631407500002,65.0,100.0
420,114.92309936250001,115.21774192500001,58.0,88.0
421,114.70881386250001,115.49452736250001,53.0,79.0
422,115.56595586250002,115.70881286250001,53.0,90.0
423,114.49452836250002,115.77309851250001,46.0,73.0
424,115.78024136250002,116.31416940000001,58.0,89.0
425,115.35167036250002,116.33381223750001,65.0,107.0
426,115.13738486250001,116.36416935000001,61.0,96.0
427,116.63738336250002,117.11416860000001,51.0,88.0
428,116.85166886250002,117.33916837500001,58.0,83.0
429,116.20881236250001,117.36595406250001,39.0,70.0
430,116.42309786250001,117.42488257500001,46.0,88.0
431,117.28023986250001,117.60702525000002,51.0,89.0
432,117.49452536250001,117.86773927500002,63.0,89.0
433,117.06595436250001,117.88023926250001,66.0,83.0
434,117.70881086250002,117.91416780000002,58.0,88.0
435,118.35166736250001,118.69809558750002,56.0,90.0
436,118.56595286250001,118.84988115000002,59.0,89.0
437,118.13738186250002,118.87845255000002,51.0,62.0
438,118.99452386250002,119.12488087500002,51.0,78.0
439,117.92309636250002,119.18202367500001,44.0,69.0
440,119.20880936250002,119.54988045000002,63.0,72.0
441,118.78023836250001,119.60345182500002,68.0,93.0
442,119.42309486250002,119.63916607500002,59.0,97.0
443,120.06595136250002,120.53559375000002,49.0,85.0
444,120.28023686250002,120.79452206250002,56.0,83.0
445,119.63738036250001,120.79809348750001,37.0,58.0
446,119.85166586250001,120.81773632500001,44.0,89.0
447,120.70880786250001,120.97845045000001,49.0,85.0
448,120.92309336250001,121.29273585000001,61.0,72.0
449,121.13737886250001,121.31952153750001,56.0,92.0
450,120.49452236250002,121.32666438750002,65.0,107.0
451,121.78023536250002,122.28916342500001,54.0,81.0
452,121.99452086250001,122.74987725000001,61.0,89.0
453,121.35166436250002,122.91594851250002,42.0,72.0
454,121.56594986250002,123.10701975000002,49.0,69.0
455,122.42309186250002,123.36951948750001,54.0,86.0
456,122.85166286250002,123.58916212500002,61.0,61.0
457,122.20880636250001,123.62666208750002,70.0,93.0
458,122.63737736250002,123.66773347500002,68.0,90.0
459,123.49451936250001,123.96059032500001,54.0,69.0
460,123.70880486250002,124.03023311250001,61.0,53.0
461,123.92309036250002,124.39987560000002,66.0,66.0
462,123.06594836250001,124.61951823750002,42.0,81.0
463,123.92309036250002,125.48023166250002,70.0,71.0
464,124.56594686250001,125.52844590000002,66.0,58.0
465,124.35166136250001,125.53201732500001,61.0,74.0
466,124.13737586250002,125.85523128750002,54.0,74.0
467,125.63737436250001,126.21237378750001,66.0,58.0
468,125.63737436250001,126.21594521250002,70.0,59.0
469,126.06594536250002,128.0373719625,54.0,53.0
470,124.78023236250002,128.08022906250002,42.0,60.0
471,123.28023386250001,128.1659432625,49.0,50.0
472,126.28023086250002,128.18558610000002,70.0,30.0
473,126.28023086250002,128.19272895,66.0,32.0
474,125.63737436250001,128.21772892500002,61.0,58.0
475,129.0659423625,130.1266555875,54.0,71.0
476,129.92308436250002,130.571298,66.0,68.0
477,130.35165536250003,130.80522633750002,54.0,62.0
478,129.49451336250002,130.86415485,61.0,63.0
479,128.6373713625,130.96415475,49.0,56.0
480,128.20880036250003,131.0141547,42.0,78.0
481,131.2087973625,131.6373683625,61.0,78.0
482,130.78022636250003,131.6373683625,66.0,67.0
483,129.92308436250002,131.6373683625,70.0,72.0
484,132.49451036250002,133.6195092375,56.0,92.0
485,133.3516523625,134.07129450000002,68.0,68.0
486,133.3516523625,134.08736591250002,63.0,64.0
487,132.06593936250002,134.33200852500002,51.0,46.0
488,133.7802233625,134.33915137500003,56.0,72.0
489,132.92308136250003,134.45343697500002,59.0,81.0
490,131.6373683625,134.46415125000001,44.0,89.0
491,134.20879436250002,134.68736531250002,63.0,85.0
492,134.20879436250002,134.717722425,68.0,90.0
493,134.63736536250002,135.11950773750002,59.0,61.0
494,135.9230783625,136.68022046250002,62.0,86.0
495,135.9230783625,136.689149025,59.0,83.0
496,136.3516493625,137.08200577500003,47.0,66.0
497,136.78022036250002,137.55700530000001,62.0,89.0
498,136.78022036250002,137.560576725,59.0,82.0
499,135.9230783625,137.5623624375,54.0,81.0
500,135.06593636250003,137.69093373750002,35.0,83.0
501,137.20879136250002,137.6945051625,47.0,46.0
502,135.49450736250003,137.69807658750003,42.0,48.0
503,138.0659333625,138.45879011250003,54.0,71.0
504,137.63736236250003,138.46950438750002,59.0,92.0
505,137.63736236250003,138.489147225,62.0,97.0
506,139.35164636250002,140.41950243750003,54.0,99.0
507,140.20878836250003,140.91771622500002,70.0,97.0
508,140.20878836250003,140.94450191250002,66.0,92.0
509,140.6373593625,140.98557330000003,54.0,90.0
510,139.78021736250003,141.1873588125,61.0,79.0
511,138.92307536250001,141.27307301250002,49.0,50.0
512,138.4945043625,141.2873587125,42.0,89.0
513,141.0659303625,141.86950098750003,70.0,100.0
514,141.49450136250002,141.9266437875,61.0,92.0
515,142.35164336250003,142.853428575,51.0,77.0
516,142.56592886250002,142.88021426250003,55.0,69.0
517,142.99449986250002,143.21235678750003,51.0,73.0
518,141.92307236250002,143.51592791250002,39.0,86.0
519,142.1373578625,143.66057062500002,46.0,66.0
520,143.42307086250003,143.69092773750003,58.0,58.0
521,143.2087853625,143.72664198750002,55.0,82.0
522,142.78021436250003,143.78914192500002,63.0,72.0
523,143.63735636250001,144.82842660000003,39.0,74.0
524,144.06592736250002,144.83735516250002,46.0,42.0
525,144.49449836250002,145.29271185000002,51.0,85.0
526,144.49449836250002,145.41592601250002,67.0,127.0
527,144.92306936250003,145.42128315000002,63.0,86.0
528,144.49449836250002,145.42664028750002,70.0,100.0
529,145.7802113625,146.37663933750002,51.0,73.0
530,146.20878236250002,146.98913872500003,60.0,99.0
531,146.20878236250002,146.99449586250003,63.0,86.0
532,146.20878236250002,146.996281575,56.0,95.0
533,146.63735336250002,147.27663843750003,51.0,81.0
534,147.06592436250003,147.84092358750001,60.0,90.0
535,147.06592436250003,147.84449501250003,56.0,78.0
536,147.06592436250003,147.84806643750002,63.0,76.0
537,147.49449536250003,147.94092348750002,51.0,78.0
538,145.3516403625,147.9516377625,44.0,85.0
539,147.9230663625,148.289137425,63.0,92.0
540,147.9230663625,148.30520883750003,60.0,99.0
541,148.78020836250002,149.30163641250002,68.0,69.0
542,148.78020836250002,149.54627902500002,62.0,89.0
543,148.78020836250002,149.58199327500003,65.0,82.0
544,148.78020836250002,150.0052071375,50.0,71.0
545,149.63735036250003,150.13199272500003,62.0,86.0
546,149.63735036250003,150.14270700000003,68.0,56.0
547,149.63735036250003,150.31413540000003,65.0,73.0
548,150.4944923625,151.231991625,61.0,75.0
549,150.4944923625,151.24627732500002,65.0,90.0
550,150.4944923625,151.26949158750003,58.0,77.0
551,150.92306336250002,151.32127725,53.0,46.0
552,150.4944923625,151.40699145000002,46.0,76.0
553,151.35163436250002,151.87484812500003,65.0,100.0
554,151.35163436250002,152.17484782500003,61.0,92.0
555,151.78020536250003,152.2427049,58.0,73.0
556,153.0659183625,153.34627522500003,47.0,72.0
557,153.0659183625,153.4712751,63.0,69.0
558,152.20877636250003,153.51056077500002,35.0,59.0
559,152.6373473625,153.68913202500002,42.0,56.0
560,153.49448936250002,153.72127485000001,54.0,77.0
561,153.0659183625,153.79270335,59.0,69.0
562,153.92306036250002,154.76055952500002,49.0,75.0
563,153.92306036250002,155.63734436250002,37.0,33.0
564,153.92306036250002,155.63734436250002,44.0,59.0
565,153.92306036250002,155.63734436250002,56.0,56.0
566,153.92306036250002,155.63734436250002,61.0,74.0
567,153.92306036250002,155.63734436250002,65.0,73.0
568,155.63734436250002,158.1855561,58.0,79.0
569,155.63734436250002,158.20341322500002,61.0,71.0
570,155.63734436250002,158.2123417875,54.0,77.0
571,155.63734436250002,158.2123417875,65.0,73.0
572,155.63734436250002,158.28912742500003,42.0,70.0
573,159.9230543625,160.3337682375,59.0,60.0
574,159.9230543625,160.59091083750002,63.0,65.0
575,160.35162536250002,160.84269630000003,56.0,56.0
576,159.9230543625,161.18555310000002,68.0,59.0
577,160.9944818625,161.31233868750002,56.0,69.0
578,161.20876736250003,161.689124025,63.0,57.0
579,160.56591086250003,161.80698105000002,59.0,83.0
580,161.42305286250001,161.85162386250002,56.0,56.0
581,159.06591236250003,162.32126625,44.0,75.0
582,159.49448336250003,162.49805178750003,51.0,43.0
583,162.28019486250003,162.74805153750003,59.0,41.0
584,162.0659093625,162.83555145000003,63.0,53.0
585,161.63733836250003,162.96412275000003,68.0,82.0
586,163.78019336250003,164.42126415,56.0,58.0
587,164.20876436250003,164.89983510000002,68.0,69.0
588,163.35162236250002,164.93912077500002,63.0,66.0
589,163.35162236250002,164.94983505000002,59.0,68.0
590,164.6373353625,165.01590641250002,56.0,72.0
591,162.92305136250002,165.13912057500002,51.0,57.0
592,165.28019186250003,165.36947748750003,51.0,36.0
593,162.4944803625,165.43019171250003,44.0,61.0
594,165.06590636250002,165.9373340625,68.0,89.0
595,165.06590636250002,165.94983405000002,63.0,79.0
596,165.49447736250002,165.95697690000003,59.0,66.0
597,166.7801903625,167.30697555000003,61.0,76.0
598,166.7801903625,167.31054697500002,65.0,68.0
599,166.7801903625,167.33911837500003,56.0,72.0
600,167.42304686250003,167.61590381250002,56.0,51.0
601,167.2087613625,167.84447501250003,49.0,58.0
602,167.42304686250003,168.37840305000003,61.0,69.0
603,167.42304686250003,168.38197447500002,65.0,62.0
604,168.2801888625,168.5801885625,49.0,41.0
605,168.06590336250002,168.59268855000002,56.0,35.0
606,165.92304836250003,168.81768832500003,37.0,72.0
607,166.35161936250003,168.82304546250003,44.0,52.0
608,168.70875986250002,168.93733106250002,49.0,83.0
609,168.49447436250003,168.99447386250003,61.0,82.0
610,168.92304536250003,169.32483067500002,56.0,77.0
611,168.49447436250003,169.3855449,65.0,89.0
612,169.13733086250002,169.396259175,61.0,66.0
613,170.20875836250002,170.73197212500003,61.0,66.0
614,170.20875836250002,170.856972,65.0,70.0
615,170.20875836250002,170.91590051250003,70.0,66.0
616,170.63732936250003,171.28911442500004,58.0,78.0
617,171.06590036250003,171.58732841250003,65.0,63.0
618,171.06590036250003,171.61589981250003,70.0,63.0
619,171.06590036250003,171.79625677500002,61.0,59.0
620,171.49447136250004,171.96589946250003,58.0,67.0
621,172.13732786250003,172.2998277,58.0,66.0
622,169.78018736250002,172.31589911250003,53.0,52.0
623,169.3516163625,172.39268475000003,46.0,79.0
624,171.9230423625,172.7944700625,70.0,99.0
625,172.35161336250002,172.80339862500003,65.0,72.0
626,172.56589886250003,172.82304146250002,61.0,69.0
627,173.20875536250003,173.78911192500001,51.0,58.0
628,173.63732636250003,174.23911147500002,63.0,79.0
629,174.0658973625,174.5051826375,51.0,37.0
630,174.28018286250003,175.01411070000003,56.0,63.0
631,174.28018286250003,175.210539075,63.0,58.0
632,174.28018286250003,175.21946763750003,59.0,60.0
633,174.92303936250002,175.37839605000002,51.0,38.0
634,175.5658958625,175.69625287500003,51.0,72.0
635,172.78018436250002,175.75875281250003,44.0,76.0
636,175.35161036250003,175.80518133750002,59.0,81.0
637,175.78018136250003,176.131966725,56.0,82.0
638,175.99446686250002,176.21768092500002,58.0,69.0
639,175.35161036250003,176.24982375000002,63.0,88.0
640,177.06589436250002,177.56410815,59.0,68.0
641,177.49446536250002,178.08553620000004,47.0,53.0
642,177.06589436250002,178.42660728750002,54.0,70.0
643,177.06589436250002,178.62303566250003,63.0,66.0
644,177.7087508625,178.65339277500001,59.0,61.0
645,178.35160736250003,178.82303546250003,47.0,58.0
646,176.6373233625,179.02660668750002,42.0,47.0
647,176.20875236250004,179.04982095000003,35.0,76.0
648,178.99446386250003,179.25517788750003,47.0,60.0
649,179.20874936250001,179.59803468750002,54.0,69.0
650,178.7801783625,179.624820375,59.0,89.0
651,178.7801783625,179.62839180000003,63.0,88.0
652,179.63732036250002,180.0408913875,66.0,76.0
653,179.63732036250002,180.04446281250003,70.0,74.0
654,179.63732036250002,180.09446276250003,63.0,75.0
655,180.49446236250003,181.00874756250002,66.0,81.0
656,180.49446236250003,181.03374753750003,63.0,83.0
657,180.49446236250003,181.05517608750003,58.0,72.0
658,181.13731886250002,181.42481857500002,66.0,77.0
659,181.13731886250002,181.44446141250003,63.0,89.0
660,180.92303336250004,181.66946118750002,51.0,88.0
661,181.78017536250002,182.09446076250003,58.0,42.0
662,181.56588986250003,182.1123178875,66.0,72.0
663,181.56588986250003,182.12481787500002,63.0,82.0
664,181.99446086250003,182.30160341250001,51.0,73.0
665,179.63732036250002,182.50517463750003,39.0,69.0
666,180.06589136250003,182.5230317625,46.0,52.0
667,182.4230318625,182.61946023750002,51.0,96.0
668,182.63731736250003,182.9837455875,63.0,100.0
669,182.20874636250002,183.00695985000002,66.0,127.0
670,182.85160286250002,183.02124555000003,58.0,97.0
671,183.49445936250004,183.989101725,56.0,107.0
672,183.70874486250003,184.06588736250004,63.0,117.0
673,184.13731586250003,184.25338717500003,56.0,112.0
674,183.28017386250002,184.27838715000001,51.0,95.0
675,183.06588836250003,184.40338702500003,44.0,97.0
676,183.92303036250001,184.66410105000003,71.0,127.0
677,184.35160136250002,184.67302961250002,68.0,102.0
678,184.56588686250004,184.77838665000002,63.0,99.0
679,185.20874336250003,185.67660003750004,49.0,95.0
680,185.42302886250002,185.7712428,56.0,96.0
681,184.78017236250002,185.92302836250002,37.0,78.0
682,184.9944578625,185.94088548750003,44.0,95.0
683,185.85159986250002,186.04802823750003,49.0,92.0
684,186.0658853625,186.34267080000004,56.0,100.0
685,186.28017086250003,186.45874211250003,61.0,100.0
686,185.63731436250004,186.50159921250003,65.0,122.0
687,186.92302736250002,187.15695570000003,58.0,95.0
688,187.1373128625,187.35338407500004,61.0,112.0
689,186.70874186250003,187.43374113750002,53.0,82.0
690,187.56588386250002,187.68016946250003,53.0,107.0
691,186.49445636250002,187.69445516250002,46.0,76.0
692,187.35159836250003,187.99624057500003,65.0,127.0
693,187.78016936250003,188.06945478750004,61.0,96.0
694,187.99445486250002,188.38374018750002,58.0,100.0
695,188.63731136250001,189.13195372500002,51.0,93.0
696,188.85159686250003,189.22659648750002,58.0,95.0
697,188.20874036250004,189.4140963,39.0,82.0
698,188.42302586250003,189.43731056250002,46.0,89.0
699,189.28016786250004,189.53909617500003,51.0,97.0
700,189.7087388625,189.92838150000003,58.0,93.0
701,189.49445336250002,189.92838150000003,63.0,86.0
702,189.06588236250002,189.95338147500001,66.0,100.0
703,190.35159536250003,190.82838060000003,56.0,92.0
704,190.56588086250002,190.89623767500004,63.0,83.0
705,190.99445186250003,191.09980890000003,56.0,99.0
706,190.13730986250002,191.11230888750003,51.0,69.0
707,189.92302436250003,191.18730881250002,44.0,93.0
708,190.7801663625,191.21588021250002,68.0,82.0
709,190.7801663625,191.58195127500002,71.0,95.0
710,191.42302286250003,191.59266555000002,68.0,82.0
711,191.20873736250002,191.63909407500003,63.0,96.0
712,192.06587936250003,192.54980745000003,49.0,77.0
713,192.28016486250002,192.55516458750003,61.0,96.0
714,191.85159386250004,192.87659283750003,44.0,59.0
715,191.63730836250002,192.90337852500002,37.0,78.0
716,192.70873586250002,193.28909242500004,49.0,86.0
717,192.49445036250003,193.31587811250003,65.0,89.0
718,193.13730686250003,193.36587806250003,68.0,93.0
719,192.92302136250004,193.39087803750002,61.0,95.0
720,193.99444886250004,194.18373438750004,61.0,92.0
721,193.78016336250002,194.30337712500003,54.0,85.0
722,194.20873436250002,194.69623387500002,66.0,99.0
723,194.20873436250002,194.70337672500003,70.0,102.0
724,194.85159086250002,195.11944773750002,66.0,86.0
725,194.85159086250002,195.12301916250001,61.0,89.0
726,194.85159086250002,195.1283763,70.0,82.0
727,194.63730536250003,195.51587591250004,54.0,88.0
728,195.4944473625,195.77837565000002,61.0,78.0
729,195.28016186250002,195.80337562500003,66.0,95.0
730,195.28016186250002,195.80337562500003,70.0,96.0
731,195.70873286250003,195.96766117500002,54.0,89.0
732,196.13730386250003,196.32301796250002,54.0,96.0
733,195.92301836250002,196.43016071250003,70.0,102.0
734,195.92301836250002,196.43908927500001,66.0,99.0
735,193.3515923625,196.56230343750002,42.0,71.0
736,196.35158936250002,196.70694615000002,61.0,99.0
737,193.56587786250003,196.70873186250003,49.0,69.0
738,196.56587486250004,196.77658893750004,66.0,89.0
739,196.56587486250004,196.78908892500002,70.0,92.0
740,197.20873136250003,197.73194512500004,56.0,95.0
741,197.42301686250002,197.80158791250003,59.0,88.0
742,197.85158786250003,197.96408775000003,56.0,93.0
743,196.99444586250002,197.96944488750003,51.0,76.0
744,196.78016036250003,198.0265876875,44.0,90.0
745,198.0658733625,198.40515873750002,63.0,90.0
746,197.63730236250004,198.41765872500002,68.0,99.0
747,198.28015886250003,198.5265871875,59.0,100.0
748,198.92301536250002,199.42837200000002,49.0,97.0
749,199.1373008625,199.52658618750002,56.0,97.0
750,198.49444436250002,199.67480032500004,37.0,68.0
751,198.70872986250004,199.69087173750003,44.0,88.0
752,199.56587186250002,199.78194307500002,49.0,93.0
753,199.78015736250003,200.18729981250002,61.0,88.0
754,199.99444286250002,200.22837120000003,56.0,88.0
755,199.35158636250003,200.23194262500002,65.0,112.0
756,200.63729936250002,200.89622767500003,58.0,96.0
757,200.85158486250003,201.10694175000003,61.0,95.0
758,200.42301386250003,201.18729881250002,53.0,83.0
759,201.28015586250004,201.4087271625,53.0,102.0
760,200.20872836250004,201.43729856250002,46.0,81.0
761,201.49444136250003,201.75515538750003,61.0,95.0
762,201.06587036250002,201.75872681250002,65.0,107.0
763,201.70872686250001,202.04265510000002,58.0,92.0
764,202.35158336250004,202.87301141250003,51.0,92.0
765,202.56586886250003,203.06051122500003,58.0,89.0
766,201.92301236250003,203.14443971250003,39.0,75.0
767,202.13729786250002,203.15872541250002,46.0,95.0
768,202.99443986250003,203.38908232500003,51.0,88.0
769,203.42301086250004,203.62658208750003,58.0,93.0
770,202.7801543625,203.63372493750003,66.0,100.0
771,203.20872536250002,203.63729636250002,63.0,85.0
772,204.06586736250003,204.57300971250004,56.0,86.0
773,204.28015286250002,204.62122395000003,59.0,79.0
774,204.70872386250002,204.85336657500002,56.0,92.0
775,203.85158186250004,204.86050942500003,51.0,72.0
776,203.63729636250002,204.93015221250002,44.0,73.0
777,204.49443836250003,205.33550895000002,68.0,85.0
778,204.92300936250004,205.34443751250004,63.0,77.0
779,205.13729486250003,205.39086603750002,59.0,97.0
780,205.78015136250002,206.34443651250004,49.0,96.0
781,205.99443686250004,206.47479352500002,56.0,89.0
782,205.35158036250002,206.64979335000004,37.0,73.0
783,205.56586586250003,206.65693620000002,44.0,78.0
784,206.42300786250001,206.96050732500004,49.0,89.0
785,206.63729336250003,207.01943583750003,61.0,83.0
786,206.20872236250003,207.03193582500003,65.0,127.0
787,206.85157886250002,207.039078675,56.0,90.0
788,207.4944353625,207.99086343750002,54.0,90.0
789,207.70872086250003,208.11764902500002,61.0,89.0
790,207.06586436250004,208.65336277500003,42.0,78.0
791,207.28014986250002,208.79621977500003,49.0,72.0
792,208.13729186250004,209.01586241250004,54.0,95.0
793,208.56586286250004,209.24800503750004,61.0,86.0
794,207.92300636250002,209.49443336250002,70.0,102.0
795,208.35157736250002,209.53014761250003,66.0,97.0
796,209.20871936250003,209.71229028750002,54.0,79.0
797,209.42300486250002,209.77836165000002,61.0,89.0
798,209.85157586250003,210.28371828750002,54.0,99.0
799,208.99443386250002,210.44443241250002,49.0,61.0
800,210.06586136250002,210.47121810000002,61.0,89.0
801,209.63729036250004,210.48371808750002,66.0,100.0
802,209.63729036250004,210.50157521250003,70.0,100.0
803,208.78014836250003,210.51764662500003,42.0,72.0
804,210.92300336250003,211.29443156250002,56.0,92.0
805,210.70871786250004,211.41407430000004,51.0,79.0
806,211.13728886250001,211.57121700000002,59.0,93.0
807,211.56585986250002,211.68014546250004,51.0,73.0
808,210.49443236250002,211.68728831250002,44.0,83.0
809,211.35157436250003,212.14800213750001,68.0,102.0
810,211.78014536250004,212.153359275,63.0,78.0
811,211.99443086250002,212.27121630000002,59.0,86.0
812,212.63728736250002,213.13550115000004,49.0,88.0
813,212.85157286250003,213.32121525000002,56.0,93.0
814,212.20871636250004,213.3694294875,37.0,77.0
815,212.42300186250003,213.38907232500003,44.0,65.0
816,213.28014386250004,213.48014366250004,49.0,88.0
817,213.49442936250003,213.79085763750004,56.0,90.0
818,213.70871486250002,213.91407180000002,61.0,90.0
819,213.06585836250002,213.92478607500001,65.0,100.0
820,214.35157136250004,214.64621392500004,58.0,88.0
821,214.13728586250002,214.92299936250004,53.0,79.0
822,214.99442786250003,215.13728486250002,53.0,90.0
823,213.92300036250003,215.20157051250004,46.0,73.0
824,215.20871336250002,215.74264140000002,58.0,89.0
825,214.78014236250002,215.76228423750004,65.0,107.0
826,214.56585686250003,215.79264135000003,61.0,96.0
827,216.06585536250003,216.54264060000003,51.0,88.0
828,216.28014086250002,216.76764037500004,58.0,83.0
829,215.63728436250003,216.79442606250004,39.0,70.0
830,215.8515698625,216.85335457500003,46.0,88.0
831,216.70871186250002,217.03549725000002,51.0,89.0
832,216.92299736250004,217.29621127500002,63.0,89.0
833,216.49442636250004,217.30871126250003,66.0,83.0
834,217.13728286250003,217.34263980000003,58.0,88.0
835,217.78013936250002,218.12656758750003,56.0,90.0
836,217.99442486250004,218.27835315000002,59.0,89.0
837,217.56585386250003,218.30692455000002,51.0,62.0
838,218.42299586250002,218.55335287500003,51.0,78.0
839,217.35156836250002,218.61049567500004,44.0,69.0
840,218.63728136250003,218.97835245000002,63.0,72.0
841,218.20871036250003,219.03192382500004,68.0,93.0
842,218.85156686250002,219.06763807500002,59.0,97.0
843,219.49442336250002,219.96406575000003,49.0,85.0
844,219.70870886250003,220.22299406250002,56.0,83.0
845,219.06585236250004,220.22656548750004,37.0,58.0
846,219.28013786250003,220.24620832500003,44.0,89.0
847,220.13727986250004,220.40692245000002,49.0,85.0
848,220.35156536250003,220.72120785000004,61.0,72.0
849,220.56585086250004,220.74799353750004,56.0,92.0
850,219.92299436250002,220.75513638750002,65.0,107.0
851,221.20870736250004,221.71763542500003,54.0,81.0
852,221.42299286250002,222.17834925000002,61.0,89.0
853,220.78013636250003,222.34442051250002,42.0,72.0
854,220.99442186250002,222.53549175000003,49.0,69.0
855,221.85156386250003,222.79799148750004,54.0,86.0
856,222.28013486250003,223.01763412500003,61.0,61.0
857,221.63727836250004,223.05513408750002,70.0,93.0
858,222.06584936250002,223.09620547500003,68.0,90.0
859,222.92299136250003,223.38906232500003,54.0,69.0
860,223.13727686250002,223.45870511250004,61.0,53.0
861,223.35156236250003,223.82834760000003,66.0,66.0
862,222.49442036250002,224.04799023750002,42.0,81.0
863,222.70870586250004,224.20870436250004,49.0,50.0
864,223.56584786250002,224.20870436250004,54.0,74.0
865,223.78013336250004,224.20870436250004,61.0,74.0
866,223.99441886250003,224.20870436250004,66.0,58.0
867,223.35156236250003,224.20870436250004,70.0,71.0
868,224.20870436250004,227.43548685000002,42.0,45.0
869,224.20870436250004,227.55691530000004,54.0,36.0
870,224.20870436250004,227.60691525000004,49.0,40.0
871,224.20870436250004,227.65334377500002,70.0,46.0
872,224.20870436250004,227.65691520000004,61.0,43.0
873,224.20870436250004,227.67477232500002,66.0,47.0
874,228.49441436250004,229.56405615000003,54.0,82.0
875,229.78012736250002,230.22476977500003,54.0,65.0
876,229.35155636250002,230.23012691250003,66.0,82.0
877,227.63727236250003,230.33726966250003,42.0,69.0
878,228.06584336250003,230.50869806250003,49.0,55.0
879,228.92298536250004,230.69976930000004,61.0,56.0
880,230.85155486250002,231.10869746250003,61.0,75.0
881,230.63726936250004,231.13369743750002,66.0,59.0
882,230.20869836250003,231.14441171250002,70.0,88.0
883,232.35155336250003,232.76226723750003,56.0,44.0
884,231.92298236250002,233.03905267500002,59.0,83.0
885,232.56583886250004,233.18548110000003,63.0,69.0
886,232.99440986250002,233.29083813750003,56.0,67.0
887,233.63726636250004,233.69440916250002,63.0,63.0
888,233.42298086250003,233.69798058750004,56.0,88.0
889,233.20869536250004,233.72476627500004,59.0,66.0
890,231.49441136250002,233.73012341250003,51.0,42.0
891,233.85155186250003,233.93726606250004,51.0,68.0
892,231.06584036250004,233.95690890000003,44.0,81.0
893,233.63726636250004,234.46226553750003,68.0,97.0
894,234.06583736250002,234.46940838750004,63.0,72.0
895,234.28012286250004,234.52297976250003,59.0,72.0
896,235.35155036250003,235.97476402500004,59.0,72.0
897,235.35155036250003,236.22119235000002,54.0,69.0
898,235.78012136250004,236.48012066250004,47.0,59.0
899,235.99440686250003,236.94440591250003,63.0,79.0
900,235.99440686250003,236.95690590000004,59.0,66.0
901,236.42297786250003,237.02476297500004,54.0,69.0
902,236.85154886250004,237.16940568750002,47.0,48.0
903,237.28011986250004,237.53904817500003,47.0,67.0
904,234.92297936250003,237.74083368750004,42.0,52.0
905,237.49440536250003,237.84797643750002,54.0,79.0
906,234.49440836250002,237.84976215000003,35.0,70.0
907,237.06583436250003,237.85333357500002,59.0,93.0
908,237.06583436250003,237.88369068750004,63.0,82.0
909,238.78011836250002,239.31583211250003,66.0,72.0
910,238.78011836250002,239.33011781250002,70.0,67.0
911,238.78011836250002,239.38011776250002,61.0,72.0
912,239.20868936250002,239.71583171250003,54.0,55.0
913,239.42297486250004,239.73011741250002,61.0,64.0
914,239.42297486250004,240.35511678750004,70.0,59.0
915,239.42297486250004,240.36761677500004,66.0,67.0
916,239.85154586250002,240.42297386250004,61.0,68.0
917,240.28011686250002,240.58190227500003,54.0,72.0
918,240.49440236250004,240.59797368750003,61.0,33.0
919,240.70868786250003,240.90154481250002,54.0,59.0
920,237.92297636250004,241.08190177500003,42.0,97.0
921,238.35154736250004,241.30511583750004,49.0,55.0
922,240.92297336250004,241.78011536250003,68.0,66.0
923,240.49440236250004,241.81404390000003,70.0,89.0
924,242.20868636250003,243.01225698750002,70.0,58.0
925,242.20868636250003,243.03011411250003,66.0,69.0
926,242.20868636250003,243.06404265000003,61.0,69.0
927,242.63725736250004,243.20154251250003,54.0,35.0
928,243.06582836250004,243.75332767500004,70.0,67.0
929,243.06582836250004,243.79618477500003,66.0,68.0
930,243.49439936250002,243.94439891250002,54.0,59.0
931,243.06582836250004,243.97832745000002,61.0,65.0
932,244.13725586250004,244.31939853750004,54.0,67.0
933,241.35154436250002,244.38904132500002,42.0,66.0
934,241.78011536250003,244.71582671250002,49.0,40.0
935,243.92297036250002,244.77832665000003,70.0,82.0
936,244.35154136250003,244.80689805000003,66.0,68.0
937,244.56582686250005,244.81046947500002,61.0,62.0
938,245.20868336250004,245.85868271250004,51.0,56.0
939,245.63725436250004,246.15511098750002,63.0,67.0
940,245.63725436250004,246.16582526250002,59.0,67.0
941,245.63725436250004,246.32296796250003,56.0,48.0
942,246.28011086250004,246.36582506250002,59.0,63.0
943,246.28011086250004,246.40868216250004,63.0,66.0
944,246.92296736250003,247.42832400000003,56.0,45.0
945,247.13725286250002,247.47832395000003,63.0,58.0
946,247.56582386250003,247.67653803750002,56.0,70.0
947,246.06582536250002,247.70689515000004,51.0,56.0
948,244.78011236250003,247.76760937500003,44.0,68.0
949,247.35153836250004,247.82832360000003,68.0,79.0
950,247.35153836250004,248.20153751250004,71.0,81.0
951,247.99439486250003,248.22296606250003,68.0,61.0
952,247.78010936250004,248.24796603750002,63.0,73.0
953,249.06582236250003,249.58189327500003,63.0,66.0
954,249.06582236250003,249.58189327500003,66.0,64.0
955,249.06582236250003,249.59439326250003,59.0,71.0
956,249.70867886250002,249.96225003750004,59.0,60.0
957,249.70867886250002,250.08189277500003,63.0,63.0
958,249.70867886250002,250.08546420000005,66.0,65.0
959,249.49439336250003,250.31760682500004,47.0,41.0
960,250.13724986250003,250.64260650000003,66.0,68.0
961,250.13724986250003,250.66224933750004,63.0,69.0
962,250.13724986250003,250.68367788750004,59.0,67.0
963,250.56582086250003,250.85153486250005,47.0,47.0
964,248.63725136250002,251.53367703750004,42.0,46.0
965,250.99439186250004,251.58189127500003,47.0,61.0
966,250.78010636250002,251.59617697500002,63.0,79.0
967,250.78010636250002,251.60689125000005,66.0,85.0
968,251.20867736250003,251.60867696250003,59.0,72.0
969,248.20868036250002,251.61939123750003,35.0,71.0
970,251.63724836250003,252.31581911250004,63.0,48.0
971,251.63724836250003,252.32296196250005,59.0,51.0
972,251.63724836250003,252.33724766250003,66.0,38.0
973,251.63724836250003,252.34796193750003,70.0,47.0
974,252.49439036250004,252.95331847500003,70.0,56.0
975,252.49439036250004,252.96581846250004,59.0,63.0
976,252.49439036250004,252.97117560000004,63.0,61.0
977,252.49439036250004,252.98724701250003,66.0,56.0
978,253.13724686250004,253.45688940000002,70.0,55.0
979,253.13724686250004,253.48367508750005,63.0,62.0
980,253.13724686250004,253.49081793750003,66.0,55.0
981,253.13724686250004,253.51581791250004,59.0,63.0
982,252.92296136250005,253.62296066250002,47.0,35.0
983,253.56581786250004,254.05867451250003,70.0,56.0
984,253.56581786250004,254.07653163750004,63.0,57.0
985,253.56581786250004,254.09617447500003,66.0,56.0
986,253.56581786250004,254.11581731250004,59.0,60.0
987,253.99438886250005,254.27474572500003,47.0,52.0
988,254.20867436250003,254.32295996250002,59.0,38.0
989,251.63724836250003,254.62117395000004,35.0,64.0
990,252.06581936250004,254.63010251250003,42.0,36.0
991,254.20867436250003,254.70153101250003,63.0,66.0
992,254.42295986250002,254.72117385000004,47.0,66.0
993,254.20867436250003,254.79795948750004,70.0,64.0
994,254.20867436250003,254.81403090000003,66.0,65.0
995,255.06581636250004,256.253315175,42.0,48.0
996,254.63724536250004,256.253315175,59.0,59.0
997,255.06581636250004,256.26402945,47.0,52.0
998,255.06581636250004,256.267600875,66.0,59.0
999,255.06581636250004,256.27831515,35.0,59.0
1000,255.06581636250004,256.27831515,70.0,65.0
1001,255.06581636250004,256.29081513750003,63.0,55.0
